<svg xmlns="http://www.w3.org/2000/svg" width="160" height="90"><defs><linearGradient id="a"><stop offset="0" stop-color="#ccc"/><stop offset="1" stop-opacity="0"/></linearGradient><linearGradient id="b"><stop offset="0" stop-color="#ccc"/><stop offset="1" stop-opacity="0"/></linearGradient><linearGradient id="c"><stop offset="0" stop-color="#ccc"/><stop offset="1" stop-opacity="0"/></linearGradient><linearGradient id="d"><stop offset="0" stop-color="#ccc"/><stop offset="1" stop-opacity="0"/></linearGradient><linearGradient id="e"><stop offset="0" stop-color="#ccc"/><stop offset="1" stop-opacity="0"/></linearGradient><linearGradient id="f"><stop offset="0" stop-color="#ccc"/><stop offset="1" stop-opacity="0"/></linearGradient></defs><path style="marker:none" d="M0 45v45h160V45H0zm63.375 7.875c2.995 0 5.349.695 7.094 2.063 1.745 1.354 2.625 3.182 2.625 5.5 0 1.614-.482 2.973-1.406 4.093-.925 1.107-2.232 1.883-3.938 2.313 1.888.403 3.352 1.224 4.406 2.5 1.068 1.276 1.625 2.875 1.625 4.75 0 2.877-.99 5.08-2.969 6.656-1.979 1.576-4.791 2.375-8.437 2.375-1.224 0-2.51-.128-3.813-.375a26.49 26.49 0 01-4-1.063v-3.812a13.653 13.653 0 003.594 1.438c1.302.325 2.675.5 4.094.5 2.474 0 4.336-.493 5.625-1.47 1.302-.976 1.969-2.387 1.969-4.25 0-1.718-.602-3.067-1.813-4.03-1.198-.977-2.883-1.47-5.031-1.47h-3.375v-3.25h3.531c1.94 0 3.44-.387 4.469-1.156 1.029-.78 1.531-1.885 1.531-3.343 0-1.498-.526-2.643-1.594-3.438-1.054-.807-2.583-1.218-4.562-1.218-1.08 0-2.232.109-3.469.343-1.237.235-2.61.6-4.093 1.094v-3.5a38.646 38.646 0 014.218-.938 23.88 23.88 0 013.719-.312zm17.531.531h8.125c5.651 0 9.794 1.175 12.438 3.532 2.643 2.343 3.968 6 3.969 11 0 5.026-1.344 8.736-4 11.093-2.657 2.357-6.782 3.531-12.407 3.531h-8.125V53.407zm3.969 3.25v22.657h4.75c4.023 0 6.982-.896 8.844-2.72 1.875-1.822 2.812-4.723 2.812-8.656 0-3.906-.937-6.752-2.812-8.562-1.862-1.823-4.82-2.719-8.844-2.719h-4.75z" color="#000" fill-rule="evenodd" stroke-width="3" overflow="visible"/><g style="line-height:125%" font-size="40" font-weight="400" letter-spacing="0" word-spacing="0" font-family="Sans"><path d="M59.258 34.523h13.77v3.32H54.511v-3.32a762.343 762.343 0 016.113-6.23c2.591-2.617 4.219-4.303 4.883-5.059 1.263-1.419 2.142-2.617 2.637-3.593.507-.99.761-1.96.761-2.91 0-1.55-.547-2.813-1.64-3.79-1.081-.976-2.494-1.464-4.239-1.464-1.237 0-2.545.214-3.925.644-1.368.43-2.832 1.08-4.395 1.953V10.09c1.589-.638 3.073-1.12 4.453-1.446 1.38-.325 2.643-.488 3.79-.488 3.02 0 5.429.755 7.226 2.266 1.797 1.51 2.695 3.528 2.695 6.055a8.708 8.708 0 01-.683 3.417c-.443 1.068-1.257 2.331-2.442 3.79-.325.377-1.36 1.47-3.105 3.28a2475.037 2475.037 0 01-7.383 7.56M84.922 11.926v22.676h4.766c4.023 0 6.966-.912 8.828-2.735 1.875-1.823 2.812-4.7 2.812-8.633 0-3.906-.937-6.764-2.812-8.574-1.862-1.823-4.805-2.734-8.829-2.734h-4.765m-3.945-3.242h8.105c5.651 0 9.798 1.178 12.441 3.535 2.644 2.343 3.965 6.015 3.965 11.015 0 5.026-1.328 8.718-3.984 11.075-2.656 2.356-6.797 3.535-12.422 3.535h-8.105V8.684"/></g></svg>