<svg xmlns="http://www.w3.org/2000/svg" width="160" height="90"><defs><linearGradient id="a"><stop offset="0" stop-color="#ccc"/><stop offset="1" stop-opacity="0"/></linearGradient><linearGradient id="b"><stop offset="0" stop-color="#ccc"/><stop offset="1" stop-opacity="0"/></linearGradient><linearGradient id="c"><stop offset="0" stop-color="#ccc"/><stop offset="1" stop-opacity="0"/></linearGradient></defs><g style="line-height:125%" font-size="40" font-weight="400" letter-spacing="0" word-spacing="0" font-family="Sans"><path d="M59.258 56.523h13.77v3.32H54.511v-3.32a762.425 762.425 0 016.113-6.23c2.591-2.617 4.219-4.303 4.883-5.059 1.263-1.419 2.142-2.617 2.637-3.593.507-.99.761-1.96.761-2.91 0-1.55-.547-2.813-1.64-3.79-1.081-.976-2.494-1.464-4.239-1.465-1.237 0-2.545.215-3.925.645-1.368.43-2.832 1.08-4.395 1.953V32.09c1.589-.638 3.073-1.12 4.453-1.446 1.38-.325 2.643-.488 3.79-.488 3.02 0 5.429.755 7.226 2.266 1.797 1.51 2.695 3.528 2.695 6.055a8.709 8.709 0 01-.683 3.418c-.443 1.067-1.257 2.33-2.442 3.789-.325.377-1.36 1.47-3.105 3.28a2486.612 2486.612 0 01-7.383 7.56M84.922 33.926v22.676h4.766c4.023 0 6.966-.912 8.828-2.735 1.875-1.823 2.812-4.7 2.812-8.633 0-3.906-.937-6.764-2.812-8.574-1.862-1.823-4.805-2.734-8.829-2.734h-4.765m-3.945-3.242h8.105c5.651 0 9.798 1.178 12.441 3.535 2.644 2.343 3.965 6.015 3.965 11.015 0 5.026-1.328 8.718-3.984 11.075-2.656 2.356-6.797 3.535-12.422 3.535h-8.105v-29.16"/></g></svg>