<?xml version="1.0" encoding="UTF-8"?>
<svg xmlns="http://www.w3.org/2000/svg" xmlns:xlink="http://www.w3.org/1999/xlink" width="150" height="100">
<rect width="150" height="100" id="field" style="fill:#0039A6"/>
<circle fill="#fff" cx="75" cy="50" r="30"/>
<circle fill="#ED2939" cx="75" cy="50" r="28.6"/>
<use transform="matrix(-1,0,0,1,150,0)" id="use4055" xlink:href="#g4036"/>
<g id="g4036">
<path d="M 82.696585,49.999619 C 87.627609,47.060144 90,41.089336 90,35.000062 L 87.739102,35.000062 C 87.739102,35.06278 87.741003,35.130565 87.741003,35.209753 87.738469,37.280689 87.352045,44.520413 81.881294,49.999619 87.352045,55.478192 87.738469,62.717915 87.741003,64.790118 87.741003,64.868673 87.739102,64.935191 87.739102,64.999176 L 90,64.999176 C 90,58.909902 87.627609,52.940361 82.696585,49.999619" id="path78" style="fill:#F9E300"/>
<path d="M 86.930336,35.210577 C 86.930336,35.130121 86.929069,35.062336 86.927168,35.000252 L 84.644099,35.000252 C 84.644099,35.075006 84.645366,35.159263 84.645366,35.254922 84.642832,37.348031 84.245639,44.320415 80.254702,49.999809 84.245639,55.681104 84.642832,62.651587 84.645366,64.744062 84.645366,64.839088 84.644099,64.924612 84.644099,64.999999 L 86.927168,64.999999 C 86.929069,64.938549 86.930336,64.868863 86.930336,64.790308 86.933503,62.777021 86.425451,55.543633 81.06936,49.999809 86.425451,44.456619 86.933503,37.221963 86.930336,35.210577" id="path82" style="fill:#F9E300"/>
<path d="M 79.444415,49.999619 79.585048,49.805132 C 83.624763,43.610063 83.842047,37.299695 83.834446,35.254732 83.834446,35.157806 83.831912,35.073549 83.831912,35.000062 L 81.550109,35.000062 81.550109,35.360528 C 81.550109,37.537893 81.323323,44.206827 78.674734,49.999619 81.323323,55.791778 81.550109,62.460711 81.550109,64.63871 L 81.550109,64.999176 83.831912,64.999176 C 83.831912,64.926322 83.834446,64.839532 83.834446,64.743872 83.842047,62.699543 83.624763,56.389175 79.585048,50.194106" id="path86" style="fill:#F9E300"/>
<path d="M 77.827895,49.999619 77.854502,49.945137 C 80.489787,44.317057 80.74318,37.499249 80.740012,35.360528 80.740012,35.215455 80.739379,35.10079 80.737478,35.000062 L 78.454409,35.000062 C 78.45821,35.178712 78.45821,35.413743 78.45821,35.715926 78.45821,38.153663 78.320111,44.31579 77.032242,49.999619 78.320111,55.681548 78.45821,61.846842 78.45821,64.280778 78.45821,64.585495 78.45821,64.819259 78.454409,64.999176 L 80.737478,64.999176 C 80.739379,64.897181 80.740012,64.782516 80.740012,64.63871 80.74318,62.499989 80.489787,55.681548 77.854502,50.053467" id="path90" style="fill:#F9E300"/>
<path d="M 76.200227,49.999619 76.221765,49.908394 C 77.506467,44.310088 77.6471,38.132123 77.6471,35.715926 77.6471,35.411209 77.644566,35.175544 77.643299,35.000062 L 75.390636,35.000062 75.390636,64.999176 77.643299,64.999176 C 77.644566,64.823694 77.6471,64.586762 77.6471,64.280778 77.6471,61.867748 77.506467,55.69105 76.221765,50.090211" id="path94" style="fill:#F9E300"/></g></svg>