<svg xmlns="http://www.w3.org/2000/svg" width="40" height="40"><path d="M15 15.833v15a.811.811 0 01-.234.6.811.811 0 01-.6.234H12.5a.81.81 0 01-.599-.235.811.811 0 01-.234-.599v-15c0-.243.078-.442.234-.599A.811.811 0 0112.5 15h1.667a.81.81 0 01.599.234.811.811 0 01.234.6zm6.667 0v15a.811.811 0 01-.235.6.811.811 0 01-.599.234h-1.666a.81.81 0 01-.6-.235.811.811 0 01-.234-.599v-15c0-.243.078-.442.235-.599a.811.811 0 01.599-.234h1.666a.81.81 0 01.6.234.811.811 0 01.234.6zm6.666 0v15a.811.811 0 01-.234.6.811.811 0 01-.599.234h-1.667a.81.81 0 01-.599-.235.811.811 0 01-.234-.599v-15c0-.243.078-.442.234-.599a.811.811 0 01.6-.234H27.5a.81.81 0 01.599.234.811.811 0 01.234.6zm3.334 18.854V10H8.333v24.688c0 .381.061.733.183 1.054.121.321.247.556.377.703.13.148.222.222.274.222h21.666c.052 0 .144-.074.274-.222.13-.147.256-.382.377-.703.122-.321.183-.673.183-1.055zm-17.5-28.02h11.666l-1.25-3.047a.735.735 0 00-.442-.287h-8.256a.735.735 0 00-.442.287zm24.166.833v1.667a.81.81 0 01-.234.599.811.811 0 01-.599.234H35v24.688c0 1.44-.408 2.686-1.224 3.736C32.96 39.474 31.979 40 30.833 40H9.167c-1.146 0-2.127-.508-2.943-1.523C5.408 37.46 5 36.233 5 34.792V10H2.5a.81.81 0 01-.599-.234.81.81 0 01-.234-.6V7.5c0-.243.078-.443.234-.599a.815.815 0 01.599-.234h8.047l1.823-4.35c.26-.642.729-1.189 1.406-1.64C14.453.226 15.139 0 15.833 0h8.334c.694 0 1.38.226 2.057.677.677.452 1.146.998 1.406 1.64l1.823 4.35H37.5c.243 0 .443.078.599.234a.811.811 0 01.234.599z"/></svg>