<svg xmlns="http://www.w3.org/2000/svg" width="40" height="40"><g fill-opacity=".6" fill-rule="evenodd"><path d="M25.572 25.5c0 6.904-5.596 12.5-12.5 12.5S.572 32.404.572 25.5 6.168 13 13.072 13s12.5 5.596 12.5 12.5z" fill="red" stroke="maroon"/><path d="M32.5 13.5C32.5 20.404 26.904 26 20 26c-6.903 0-12.5-5.596-12.5-12.5S13.097 1 20 1c6.904 0 12.5 5.596 12.5 12.5z" fill="#00f" stroke="navy"/><path d="M39.428 25.5c0 6.904-5.596 12.5-12.5 12.5-6.903 0-12.5-5.596-12.5-12.5S20.025 13 26.928 13c6.904 0 12.5 5.596 12.5 12.5z" fill="#0f0" stroke="green"/></g></svg>