<svg xmlns="http://www.w3.org/2000/svg" width="40" height="40"><path d="M0 15h5v10h6c0 1 4.333 5.333 5 6 1.667 1.333 2 1 3 1v8h-5V30H5v10H0V15" font-size="40" font-weight="700" letter-spacing="0" word-spacing="0" font-family="Sans"/><g stroke="#000" stroke-linecap="round" stroke-linejoin="round"><path d="M38 2L24 16v7l-7-7h7" stroke-width="4" transform="matrix(.7473 0 0 .7501 10.105 -.003)"/><path d="M1 17s-.926 5.686 2 13c2 5 7 9 7 9 5-1 12-8 12-13l-8-8s-2 1-7 1c-5.385 0-6-2-6-2z" stroke-width="2" transform="matrix(.7473 0 0 .7501 10.105 -.003)"/></g></svg>