<svg xmlns="http://www.w3.org/2000/svg" height="30" width="30"><path d="M22.002 22.566a9.975 9.975 0 01-6.518 2.43c-.253-.002-.501-.01-.741-.03a9.934 9.934 0 01-6.845-3.444 9.967 9.967 0 01-1.95-3.456 10.017 10.017 0 01-.45-3.818 9.923 9.923 0 011.008-3.688 9.948 9.948 0 012.433-3.135 9.958 9.958 0 013.457-1.95c1.194-.382 2.484-.523 3.826-.451a10.03 10.03 0 013.68 1.007c.893.44 1.785 1.105 2.502 1.785l-.016.01-2.545 2.168 8.817 2.089L28 3.048l-2.57 2.187-.018.012c-1.103-1.127-2.39-2.11-3.8-2.803a13.896 13.896 0 00-5.191-1.416c-1.772-.104-3.602.084-5.313.637a13.893 13.893 0 00-4.85 2.729 13.876 13.876 0 00-3.413 4.393A14.043 14.043 0 001.4 15.002c0 1.46.228 2.905.673 4.293a13.891 13.891 0 002.725 4.846 13.97 13.97 0 0010.557 4.86h.066c1.46 0 2.9-.229 4.278-.676a13.925 13.925 0 004.85-2.724 13.874 13.874 0 003.408-4.396l-3.522-1.772a10.014 10.014 0 01-2.433 3.134"/></svg>