<svg xmlns="http://www.w3.org/2000/svg" style="-webkit-tap-highlight-color:transparent" height="41" width="40"><path d="M19 22l2-3" fill="none" stroke="#000" stroke-width="4" stroke-linecap="round" stroke-dashoffset="6"/><g style="line-height:125%"><path d="M25 0h4.316v6.479h6.368V0H40v17h-4.316V9.792h-6.368V17H25V0" style="-inkscape-font-specification:Sans Bold" font-size="19.441" font-weight="700" letter-spacing="0" word-spacing="0" font-family="Sans"/></g><g style="line-height:125%"><path d="M15 39.71c-.835.426-1.705.748-2.61.965-.906.217-1.85.325-2.835.325-2.937 0-5.264-.806-6.98-2.417C.858 36.963 0 34.771 0 32.006c0-2.774.858-4.966 2.575-6.577C4.29 23.809 6.618 23 9.555 23c.984 0 1.93.108 2.835.325.905.217 1.775.539 2.61.965v3.59c-.843-.565-1.673-.98-2.492-1.243a8.397 8.397 0 00-2.587-.395c-1.622 0-2.897.511-3.827 1.534-.929 1.023-1.393 2.433-1.393 4.23 0 1.79.464 3.195 1.393 4.218.93 1.023 2.205 1.534 3.827 1.534.906 0 1.768-.132 2.587-.395.819-.264 1.65-.678 2.492-1.244v3.591" style="-inkscape-font-specification:Sans Bold" font-size="20" font-weight="700" letter-spacing="0" word-spacing="0" font-family="Sans"/></g></svg>