<?xml version="1.0" encoding="UTF-8" standalone="no"?>
<svg xmlns="http://www.w3.org/2000/svg" xmlns:xlink="http://www.w3.org/1999/xlink" version="1.1" width="600" height="600" viewBox="0 0 240 240">
<rect fill="#ffce10" width="240" height="240"/>
<rect fill="#ce1021" width="240" height="160"/>
<rect fill="#009c00" width="240" height="80"/>
<g fill="#ffce10" id="RH">
	<path d="M14.309,121.293v5.36c0,1.03,0.035,1.797,0.109,2.297c0.082,0.5,0.227,0.914,0.437,1.233 c0.188,0.281,0.399,0.492,0.641,0.625c0.238,0.138,0.563,0.22,0.969,0.25v0.345H9.902v-0.345c0.395-0.03,0.711-0.112,0.953-0.25 c0.25-0.133,0.469-0.344,0.657-0.625c0.218-0.319,0.363-0.727,0.437-1.219c0.071-0.5,0.11-1.269,0.11-2.312v-11.156 c0-1.04-0.039-1.805-0.11-2.297c-0.074-0.5-0.219-0.911-0.437-1.235c-0.188-0.289-0.407-0.5-0.657-0.625 c-0.242-0.133-0.558-0.218-0.953-0.25v-0.343h4.938c0.832,0,1.379,0.007,1.64,0.015c1.063,0.063,1.891,0.274,2.485,0.625 c0.676,0.406,1.203,1.012,1.578,1.813c0.375,0.804,0.562,1.734,0.562,2.797c0,1.574-0.406,2.835-1.218,3.781 c-0.242,0.281-0.512,0.515-0.813,0.703c-0.293,0.181-0.687,0.345-1.187,0.5c0.406,0.263,0.707,0.527,0.906,0.798 c0.156,0.211,0.297,0.476,0.422,0.797c0.133,0.312,0.332,0.875,0.594,1.687c0.613,1.844,1.07,3.195,1.375,4.047 c0.312,0.855,0.578,1.478,0.796,1.859c0.165,0.312,0.329,0.532,0.485,0.657c0.164,0.117,0.39,0.194,0.672,0.233v0.345H19.73 c-0.179-0.552-0.289-0.906-0.328-1.063l-0.718-2.406c-0.43-1.437-0.86-2.711-1.297-3.828c-0.438-1.102-0.84-1.852-1.203-2.25 c-0.188-0.206-0.391-0.352-0.61-0.438c-0.211-0.082-0.465-0.125-0.765-0.125H14.309z M14.309,120.965h0.39 c0.844,0,1.446-0.07,1.813-0.218c0.363-0.146,0.707-0.438,1.031-0.875c0.719-1.008,1.078-2.258,1.078-3.75 c0-0.801-0.105-1.551-0.312-2.25c-0.211-0.708-0.497-1.286-0.86-1.735c-0.293-0.344-0.637-0.582-1.031-0.719 c-0.398-0.132-0.961-0.203-1.688-0.203h-0.421V120.965z M14.309,120.965"/>
	<g id="é">
		<path id="e" d="M31.738,115.403l0.141,3.875h-0.188c-0.062-0.656-0.171-1.196-0.328-1.625c-0.156-0.426-0.386-0.805-0.687-1.141 c-0.242-0.269-0.528-0.461-0.86-0.578c-0.336-0.113-0.777-0.172-1.328-0.172h-1.797v7.031h0.469c0.477,0,0.836-0.046,1.078-0.14 c0.239-0.095,0.43-0.259,0.578-0.5c0.145-0.228,0.254-0.492,0.329-0.798c0.07-0.312,0.128-0.77,0.171-1.375l0.188,0.016 l-0.031,6.281h-0.188c-0.043-0.603-0.109-1.086-0.203-1.453c-0.094-0.364-0.219-0.677-0.375-0.938 c-0.156-0.25-0.359-0.43-0.609-0.547c-0.25-0.113-0.571-0.172-0.953-0.172h-0.454v2.672c0,1.074,0.016,1.856,0.047,2.344 c0.039,0.492,0.114,0.898,0.219,1.22c0.176,0.562,0.445,0.979,0.813,1.25c0.363,0.261,0.843,0.39,1.437,0.39 c0.625,0,1.145-0.117,1.563-0.359c0.425-0.237,0.769-0.608,1.031-1.108c0.187-0.332,0.336-0.711,0.453-1.142 c0.125-0.437,0.234-1.004,0.328-1.703h0.188l-0.11,4.673h-9.312v-0.267c0.289-0.031,0.531-0.094,0.718-0.187 c0.188-0.103,0.352-0.271,0.5-0.5c0.157-0.25,0.266-0.567,0.329-0.953c0.062-0.383,0.093-0.978,0.093-1.782v-8.625 c0-0.801-0.031-1.394-0.093-1.781c-0.063-0.383-0.172-0.703-0.329-0.953c-0.148-0.227-0.312-0.391-0.5-0.484 c-0.179-0.102-0.418-0.172-0.718-0.204v-0.265H31.738z"/>
		<path d="M27.566,113.512l1.532-2.875h1.562l-2.719,2.875H27.566z"/>
	</g>
	<path d="M36.461,123.512 v4.203c0,0.805,0.031,1.399,0.094,1.782c0.062,0.386,0.172,0.703,0.328,0.953c0.144,0.218,0.305,0.382,0.484,0.483 c0.188,0.105,0.43,0.172,0.735,0.203v0.267h-4.985v-0.267c0.301-0.031,0.539-0.098,0.719-0.203c0.187-0.102,0.352-0.266,0.5-0.483 c0.164-0.25,0.273-0.563,0.328-0.938c0.063-0.383,0.094-0.983,0.094-1.797v-8.625c0-0.676-0.024-1.195-0.063-1.562 c-0.043-0.364-0.109-0.656-0.203-0.875c-0.137-0.313-0.308-0.547-0.515-0.703c-0.211-0.157-0.481-0.25-0.813-0.282h-0.047v-0.265 h4.703c0.821,0,1.426,0.062,1.813,0.187c0.394,0.125,0.754,0.375,1.078,0.75c0.738,0.844,1.109,1.969,1.109,3.375 c0,1.43-0.375,2.478-1.125,3.141c-0.386,0.345-0.859,0.556-1.422,0.625c-0.179,0.023-0.605,0.031-1.281,0.031H36.461z M36.461,123.137h0.766c0.519,0,0.914-0.055,1.187-0.172c0.281-0.113,0.531-0.32,0.75-0.625c0.508-0.695,0.766-1.625,0.766-2.781 c0-0.633-0.075-1.219-0.219-1.75c-0.149-0.539-0.359-0.977-0.641-1.312c-0.312-0.395-0.687-0.629-1.125-0.704 c-0.125-0.019-0.402-0.031-0.828-0.031h-0.656V123.137z"/>
	<path id="u" d="M47.055,115.403v0.265c-0.293,0.032-0.532,0.102-0.719,0.204 c-0.188,0.093-0.356,0.257-0.5,0.484c-0.168,0.262-0.281,0.59-0.344,0.984c-0.054,0.387-0.078,1.059-0.078,2.016v6.625 c0,1.087,0.024,1.867,0.078,2.345c0.063,0.479,0.176,0.922,0.344,1.328c0.25,0.616,0.555,1.062,0.922,1.344 c0.363,0.281,0.828,0.421,1.39,0.421c0.54,0,1.055-0.125,1.547-0.375c0.489-0.25,0.899-0.593,1.235-1.031 c0.195-0.269,0.343-0.562,0.437-0.875c0.102-0.319,0.172-0.733,0.203-1.233c0.02-0.313,0.032-1.067,0.032-2.267v-6.547 c0-0.812-0.032-1.406-0.094-1.781c-0.063-0.383-0.172-0.703-0.328-0.953c-0.149-0.227-0.313-0.391-0.5-0.484 c-0.188-0.102-0.43-0.172-0.719-0.204v-0.265h3.594v0.265c-0.293,0.032-0.532,0.102-0.719,0.204 c-0.188,0.093-0.356,0.257-0.5,0.484c-0.156,0.25-0.266,0.57-0.328,0.953c-0.063,0.387-0.094,0.98-0.094,1.781v7.391 c0,1.095-0.059,1.902-0.172,2.423c-0.105,0.522-0.324,0.996-0.656,1.422c-0.762,0.992-1.852,1.483-3.266,1.483 c-1.468,0-2.554-0.469-3.25-1.405c-0.461-0.595-0.73-1.375-0.812-2.345c-0.031-0.344-0.047-0.961-0.047-1.858v-7.11 c0-0.812-0.031-1.406-0.094-1.781c-0.055-0.383-0.164-0.703-0.328-0.953c-0.148-0.227-0.312-0.391-0.5-0.484 c-0.18-0.102-0.418-0.172-0.719-0.204v-0.265H47.055z"/>
	<path d="M53.996,131.403v-0.267c0.301-0.031,0.539-0.098,0.719-0.203 c0.187-0.102,0.351-0.266,0.5-0.483c0.164-0.25,0.273-0.563,0.328-0.938c0.062-0.383,0.094-0.983,0.094-1.797v-8.625 c0-0.812-0.032-1.406-0.094-1.781c-0.055-0.383-0.164-0.703-0.328-0.953c-0.149-0.227-0.313-0.391-0.5-0.484 c-0.188-0.102-0.43-0.172-0.719-0.204v-0.265h5.125c0.52,0,0.863,0.011,1.031,0.031c0.594,0.063,1.082,0.273,1.469,0.625 c0.344,0.313,0.602,0.727,0.781,1.234c0.188,0.512,0.282,1.079,0.282,1.704c0,1.03-0.211,1.875-0.625,2.531 c-0.157,0.241-0.336,0.444-0.532,0.608c-0.187,0.156-0.465,0.328-0.828,0.517c0.5,0.125,0.883,0.265,1.156,0.422 c0.282,0.147,0.536,0.351,0.766,0.608c0.332,0.406,0.586,0.918,0.766,1.531c0.187,0.606,0.281,1.258,0.281,1.953 c0,0.711-0.094,1.36-0.281,1.954c-0.188,0.593-0.453,1.07-0.797,1.421c-0.305,0.325-0.668,0.547-1.094,0.672 c-0.43,0.125-1.027,0.188-1.797,0.188H53.996z M57.34,115.762v6.969h0.64c0.29,0,0.598-0.03,0.922-0.094 c0.27-0.062,0.489-0.133,0.657-0.219c0.175-0.093,0.332-0.211,0.468-0.359c0.27-0.289,0.473-0.672,0.61-1.141 c0.144-0.468,0.218-0.984,0.218-1.546c0-0.594-0.074-1.157-0.218-1.688c-0.149-0.531-0.344-0.945-0.594-1.25 c-0.211-0.258-0.453-0.437-0.734-0.531c-0.274-0.094-0.684-0.141-1.235-0.141H57.34z M57.34,123.09v4.828 c0,0.586,0.023,1.059,0.078,1.422c0.062,0.356,0.156,0.657,0.281,0.907c0.258,0.531,0.711,0.796,1.36,0.796 c0.843,0,1.503-0.343,1.984-1.031c0.488-0.687,0.734-1.625,0.734-2.812c0-0.688-0.078-1.317-0.234-1.892 c-0.148-0.582-0.344-1.03-0.594-1.344c-0.469-0.582-1.203-0.875-2.203-0.875H57.34z"/>
	<path id="l" d="M64.562,131.403v-0.281 c0.52,0,0.926-0.224,1.219-0.672c0.157-0.25,0.266-0.567,0.328-0.953c0.063-0.383,0.094-0.978,0.094-1.782v-8.625 c0-0.832-0.039-1.445-0.109-1.843c-0.063-0.395-0.184-0.719-0.36-0.969c-0.148-0.196-0.308-0.344-0.484-0.438 c-0.18-0.093-0.406-0.148-0.688-0.172v-0.265h4.985v0.265c-0.281,0.032-0.516,0.094-0.703,0.188 c-0.18,0.094-0.34,0.242-0.485,0.437c-0.179,0.262-0.297,0.59-0.359,0.985c-0.062,0.386-0.094,0.992-0.094,1.812v6.75 c0,1.043,0.016,1.821,0.047,2.328c0.039,0.512,0.113,0.922,0.219,1.235c0.187,0.562,0.457,0.979,0.812,1.25 c0.364,0.261,0.844,0.39,1.438,0.39c0.613,0,1.133-0.125,1.562-0.375c0.426-0.25,0.774-0.629,1.047-1.14 c0.176-0.353,0.321-0.75,0.438-1.188c0.125-0.445,0.234-1.035,0.328-1.765l0.187,0.015l-0.093,4.813H64.562z"/>
	<g id="ique">
		<path d="M78.66,130.965v0.438h-4.531v-0.438h0.375c0.437,0,0.754-0.191,0.953-0.578c0.125-0.25,0.188-0.848,0.188-1.797v-10.265 c0-0.801-0.04-1.332-0.11-1.594c-0.055-0.195-0.156-0.363-0.312-0.5c-0.231-0.188-0.469-0.281-0.719-0.281h-0.375v-0.438h4.531 v0.438h-0.375c-0.437,0-0.758,0.187-0.953,0.562c-0.125,0.25-0.187,0.856-0.187,1.813v10.265c0,0.805,0.031,1.336,0.093,1.594 c0.051,0.199,0.16,0.367,0.328,0.5c0.227,0.188,0.469,0.281,0.719,0.281H78.66z M76.395,111.731c0.238,0,0.441,0.125,0.609,0.375 c0.164,0.25,0.25,0.555,0.25,0.906c0,0.356-0.086,0.656-0.25,0.906c-0.168,0.25-0.371,0.375-0.609,0.375 c-0.231,0-0.43-0.125-0.594-0.375c-0.168-0.25-0.25-0.55-0.25-0.906c0-0.351,0.078-0.656,0.234-0.906 C75.949,111.856,76.152,111.731,76.395,111.731L76.395,111.731z M76.395,111.731"/>
		<path d="M87.148,131.434c0.301,0.289,0.645,0.521,1.032,0.688c0.382,0.164,0.769,0.25,1.156,0.25c0.32,0,0.629-0.06,0.922-0.172 c0.301-0.106,0.539-0.258,0.719-0.453c0.156-0.18,0.273-0.379,0.359-0.61c0.094-0.226,0.176-0.547,0.25-0.953l0.125,0.017 c-0.023,0.573-0.086,1.058-0.188,1.453c-0.105,0.394-0.277,0.772-0.515,1.14c-0.617,0.969-1.512,1.454-2.688,1.454 c-0.679,0-1.25-0.185-1.718-0.547c-0.418-0.336-0.86-0.938-1.329-1.813l-0.046-0.078c-0.461,0-0.938-0.108-1.438-0.328 c-0.492-0.219-0.949-0.52-1.375-0.905c-0.855-0.771-1.523-1.774-2-3.017c-0.469-1.237-0.703-2.594-0.703-4.062 c0-1.301,0.187-2.508,0.562-3.625c0.375-1.125,0.922-2.102,1.641-2.938c0.531-0.625,1.109-1.098,1.734-1.422 c0.625-0.332,1.25-0.5,1.875-0.5c0.739,0,1.457,0.219,2.157,0.656c0.531,0.356,1.023,0.829,1.484,1.422 c0.469,0.586,0.859,1.25,1.172,2c0.562,1.312,0.844,2.742,0.844,4.282c0,0.992-0.121,1.949-0.36,2.875 c-0.23,0.929-0.57,1.777-1.015,2.546c-0.375,0.649-0.774,1.172-1.188,1.579C88.211,130.778,87.719,131.133,87.148,131.434 L87.148,131.434z M82.789,129.387c0.375-0.164,0.75-0.25,1.125-0.25c0.469,0,0.914,0.137,1.344,0.406 c0.176,0.125,0.359,0.282,0.547,0.469c0.195,0.188,0.515,0.517,0.953,0.985l0.062,0.078c0.344-0.271,0.633-0.586,0.875-0.953 c0.25-0.375,0.493-0.86,0.735-1.454c0.57-1.425,0.859-3.097,0.859-5.015c0-1.25-0.117-2.438-0.344-3.563 c-0.218-1.133-0.539-2.093-0.953-2.875c-0.336-0.625-0.703-1.082-1.109-1.375c-0.406-0.301-0.887-0.453-1.438-0.453 c-0.554,0-1.031,0.149-1.437,0.438c-0.406,0.293-0.778,0.757-1.11,1.39c-0.406,0.782-0.726,1.735-0.953,2.86 c-0.23,1.125-0.343,2.312-0.343,3.562c0,1.156,0.093,2.195,0.281,3.11C82.07,127.653,82.371,128.536,82.789,129.387L82.789,129.387 z M85.039,131.48l-0.047-0.108c-0.367-0.657-0.68-1.114-0.937-1.375c-0.25-0.271-0.512-0.407-0.782-0.407 c-0.093,0-0.203,0.032-0.328,0.094c0.332,0.574,0.657,0.996,0.969,1.267C84.227,131.211,84.602,131.387,85.039,131.48 L85.039,131.48z"/>
		<use xlink:href="#u" transform="translate(49.879)"/>
		<use xlink:href="#e" transform="translate(80.528)"/>
	</g>
	<path d="M125.996,120.355h7.281v-4.858c0-1.04-0.043-1.805-0.125-2.297c-0.074-0.5-0.219-0.911-0.438-1.235 c-0.188-0.289-0.406-0.5-0.656-0.625c-0.242-0.133-0.559-0.218-0.953-0.25v-0.343h6.562v0.343c-0.398,0.032-0.715,0.117-0.953,0.25 c-0.242,0.125-0.461,0.336-0.656,0.625c-0.211,0.324-0.355,0.735-0.438,1.235c-0.074,0.5-0.109,1.265-0.109,2.297v11.156 c0,1.03,0.035,1.797,0.109,2.297c0.082,0.492,0.227,0.901,0.438,1.233c0.195,0.281,0.414,0.492,0.656,0.625 c0.238,0.138,0.555,0.22,0.953,0.25v0.345h-6.562v-0.345c0.395-0.03,0.711-0.112,0.953-0.25c0.25-0.133,0.469-0.344,0.656-0.625 c0.219-0.319,0.363-0.727,0.438-1.219c0.082-0.5,0.125-1.269,0.125-2.312v-5.595h-7.281v5.595c0,1.03,0.035,1.797,0.109,2.297 c0.082,0.5,0.227,0.914,0.438,1.233c0.188,0.281,0.398,0.492,0.641,0.625c0.238,0.138,0.562,0.22,0.969,0.25v0.345h-6.562v-0.345 c0.395-0.03,0.711-0.112,0.953-0.25c0.25-0.133,0.469-0.344,0.656-0.625c0.219-0.319,0.362-0.727,0.438-1.219 c0.07-0.5,0.109-1.269,0.109-2.312v-11.156c0-1.04-0.039-1.805-0.109-2.297c-0.075-0.5-0.219-0.911-0.438-1.235 c-0.188-0.289-0.406-0.5-0.656-0.625c-0.242-0.133-0.559-0.218-0.953-0.25v-0.343h6.562v0.343c-0.398,0.032-0.715,0.117-0.953,0.25 c-0.242,0.125-0.461,0.336-0.656,0.625c-0.211,0.324-0.355,0.735-0.438,1.235c-0.074,0.5-0.109,1.265-0.109,2.297V120.355z"/>
	<use xlink:href="#e" transform="translate(115.157)"/>
	<use xlink:href="#l" transform="translate(83.711)"/>
	<path d="M157.168,115.403h5.156v0.265c-0.387,0.063-0.668,0.157-0.844,0.282c-0.156,0.117-0.289,0.297-0.391,0.547 c-0.094,0.242-0.141,0.507-0.141,0.796c0,0.2,0.008,0.375,0.031,0.532c0.031,0.156,0.109,0.5,0.234,1.031l2.312,9.422l2.25-8.267 c0.312-1.164,0.469-2.015,0.469-2.547c0-0.289-0.031-0.566-0.094-0.828c-0.062-0.258-0.148-0.457-0.25-0.594 c-0.105-0.132-0.219-0.226-0.344-0.281c-0.125-0.062-0.289-0.094-0.484-0.094v-0.265h3.469v0.265 c-0.281,0.043-0.531,0.153-0.75,0.329c-0.211,0.167-0.406,0.429-0.594,0.781c-0.138,0.25-0.277,0.594-0.422,1.031 c-0.137,0.43-0.328,1.094-0.578,2l-3.203,11.594h-0.328l-3.109-11.985c-0.406-1.562-0.734-2.554-0.984-2.984 c-0.156-0.258-0.352-0.453-0.578-0.578c-0.219-0.125-0.496-0.188-0.828-0.188V115.403z"/>
	<use xlink:href="#é" transform="translate(145.102)"/>
	<path d="M182.438,115.762c-0.336,0-0.688,0.016-1.062,0.047c-0.805,0.063-1.402,0.219-1.797,0.469 c-0.387,0.242-0.711,0.656-0.969,1.25c-0.23,0.543-0.406,1.281-0.531,2.219l-0.188-0.016l0.141-4.328h10.578l0.141,4.328 l-0.188,0.016c-0.136-1.083-0.354-1.899-0.655-2.454c-0.305-0.562-0.742-0.961-1.312-1.203c-0.48-0.218-1.297-0.328-2.453-0.328 v11.953c0,0.805,0.023,1.399,0.078,1.782c0.062,0.386,0.176,0.703,0.343,0.953c0.146,0.229,0.306,0.397,0.485,0.5 c0.188,0.093,0.43,0.155,0.734,0.187v0.267h-5v-0.267c0.301-0.031,0.547-0.094,0.734-0.187c0.188-0.103,0.352-0.271,0.5-0.5 c0.156-0.25,0.266-0.563,0.328-0.938c0.062-0.383,0.094-0.983,0.094-1.797V115.762z"/>
	<use xlink:href="#ique" transform="translate(114.883)"/>
	<path d="M230.086,128.747 c0.258,0,0.484,0.14,0.672,0.421c0.188,0.282,0.281,0.621,0.281,1.016c0,0.388-0.094,0.72-0.281,1 c-0.188,0.281-0.414,0.422-0.672,0.422c-0.262,0-0.484-0.141-0.672-0.422c-0.18-0.28-0.266-0.612-0.266-1 c0-0.395,0.086-0.733,0.266-1.016C229.602,128.887,229.824,128.747,230.086,128.747L230.086,128.747z"/>
</g>
<use xlink:href="#RH" transform="translate(-0.3,-0.3)"/>
</svg>