<?xml version="1.0" encoding="UTF-8" standalone="no"?>
<!-- Created with Inkscape (http://www.inkscape.org/) -->

<svg
   xmlns:dc="http://purl.org/dc/elements/1.1/"
   xmlns:cc="http://creativecommons.org/ns#"
   xmlns:rdf="http://www.w3.org/1999/02/22-rdf-syntax-ns#"
   xmlns:svg="http://www.w3.org/2000/svg"
   xmlns="http://www.w3.org/2000/svg"
   xmlns:xlink="http://www.w3.org/1999/xlink"
   xmlns:sodipodi="http://sodipodi.sourceforge.net/DTD/sodipodi-0.dtd"
   xmlns:inkscape="http://www.inkscape.org/namespaces/inkscape"
   id="svg2985"
   version="1.1"
   inkscape:version="0.91 r13725"
   width="518"
   height="259"
   sodipodi:docname="British Cameroon Flag.svg">
  <metadata
     id="metadata2991">
    <rdf:RDF>
      <cc:Work
         rdf:about="">
        <dc:format>image/svg+xml</dc:format>
        <dc:type
           rdf:resource="http://purl.org/dc/dcmitype/StillImage" />
        <dc:title />
      </cc:Work>
    </rdf:RDF>
  </metadata>
  <defs
     id="defs2989">
    <linearGradient
       inkscape:collect="always"
       id="linearGradient3893">
      <stop
         style="stop-color:#ffd42a;stop-opacity:1;"
         offset="0"
         id="stop3895" />
      <stop
         style="stop-color:#ffd42a;stop-opacity:0;"
         offset="1"
         id="stop3897" />
    </linearGradient>
    <linearGradient
       inkscape:collect="always"
       xlink:href="#linearGradient3893"
       id="linearGradient3899"
       x1="361.53571"
       y1="127.85465"
       x2="361.53571"
       y2="134.35881"
       gradientUnits="userSpaceOnUse"
       gradientTransform="translate(-1.3389907e-5,-0.99999752)" />
    <path
       sodipodi:type="arc"
       style="fill:none;stroke:#ff0000;stroke-width:0.5;stroke-linecap:round;stroke-linejoin:miter;stroke-miterlimit:4;stroke-opacity:1;stroke-dasharray:none;stroke-dashoffset:0"
       id="path3135-5-5"
       sodipodi:cx="401.19516"
       sodipodi:cy="144.11504"
       sodipodi:rx="42.832226"
       sodipodi:ry="41.801079"
       d="m 361.07541,129.47597 a 42.832226,41.801079 0 0 1 80.46376,0.59929"
       transform="matrix(0.98641554,0,0,1.0107484,-5.3622436,-6.2039074)"
       sodipodi:start="3.4993857"
       sodipodi:end="5.9406553"
       sodipodi:open="true" />
    <clipPath
       id="border">
      <rect
         x="-15"
         y="-7.5"
         width="30"
         height="15"
         id="rect6" />
    </clipPath>
    <linearGradient
       inkscape:collect="always"
       xlink:href="#linearGradient3893"
       id="linearGradient3374"
       gradientUnits="userSpaceOnUse"
       gradientTransform="translate(-1.3389907e-5,-0.99999752)"
       x1="361.53571"
       y1="127.85465"
       x2="361.53571"
       y2="134.35881" />
  </defs>
  <sodipodi:namedview
     pagecolor="#ffffff"
     bordercolor="#666666"
     borderopacity="1"
     objecttolerance="10"
     gridtolerance="10"
     guidetolerance="10"
     inkscape:pageopacity="0"
     inkscape:pageshadow="2"
     inkscape:window-width="1920"
     inkscape:window-height="1017"
     id="namedview2987"
     showgrid="false"
     inkscape:zoom="4.4573644"
     inkscape:cx="350.50203"
     inkscape:cy="216.09869"
     inkscape:window-x="-8"
     inkscape:window-y="-8"
     inkscape:window-maximized="1"
     inkscape:current-layer="svg2985"
     inkscape:snap-global="true"
     inkscape:snap-page="true"
     fit-margin-top="0"
     fit-margin-left="0"
     fit-margin-right="0"
     fit-margin-bottom="0"
     inkscape:snap-grids="false">
    <inkscape:grid
       type="xygrid"
       id="grid3300"
       empspacing="5"
       visible="true"
       enabled="true"
       snapvisiblegridlinesonly="true"
       originx="-1.3389907e-005px"
       originy="-4.7645692e-007px" />
  </sodipodi:namedview>
  <g
     id="g3289"
     transform="matrix(0.43166667,0,0,0.43166667,168.35451,155.55916)">
    <rect
       id="rect8"
       height="600"
       width="1200"
       y="-360.36871"
       x="-390.01044"
       style="fill:#00247d" />
    <g
       transform="matrix(20,0,0,20,-90.010431,-210.3687)"
       id="canton">
      <g
         id="g11"
         clip-path="url(#border)">
        <circle
           id="circle13"
           r="20"
           cx="0"
           cy="0"
           sodipodi:cx="0"
           sodipodi:cy="0"
           sodipodi:rx="20"
           sodipodi:ry="20"
           style="fill:#00247d" />
        <path
           id="diags_white"
           d="m -20,-10 40,20 m -40,0 40,-20"
           inkscape:connector-curvature="0"
           style="stroke:#ffffff;stroke-width:3" />
        <path
           id="diags_red"
           d="m -20,-10 40,20 m -40,0 40,-20"
           inkscape:connector-curvature="0"
           style="stroke:#cf142b;stroke-width:2" />
        <path
           id="eraser_white"
           d="M 0,0 20,10 H 17 L -3,0 m 3,0 20,-10 h 3 L 3,0 M 0,0 -20,10 h -3 L -3,0 m 3,0 -20,-10 h 3 L 3,0"
           inkscape:connector-curvature="0"
           style="fill:#ffffff;stroke:none" />
        <!--I think the above two lines give the simplest way to make the diagonals-->
        <path
           id="cross_white"
           d="M -20,0 H 20 M 0,-10 v 20"
           inkscape:connector-curvature="0"
           style="stroke:#ffffff;stroke-width:5" />
        <path
           id="cross_red"
           d="M -20,0 H 20 M 0,-10 v 20"
           inkscape:connector-curvature="0"
           style="stroke:#cf142b;stroke-width:3" />
      </g>
    </g>
  </g>
  <g
     id="g3335"
     transform="translate(-1.8316139,-8.9601371)">
    <rect
       y="126.63586"
       x="359.33649"
       height="6.5060868"
       width="5.2160869"
       id="rect3817"
       style="fill:#ffc200;fill-opacity:1;fill-rule:nonzero;stroke:none" />
    <rect
       y="126.57979"
       x="358.9447"
       height="6.5060868"
       width="5.2160869"
       id="rect3817-9"
       style="fill:url(#linearGradient3374);fill-opacity:1;fill-rule:nonzero;stroke:none" />
    <path
       transform="matrix(0.98879921,0,0,0.99902268,12.740012,5.5005019)"
       d="m 441.08175,133.08971 a 59.161068,58.555645 0 0 1 -59.16107,58.55564 59.161068,58.555645 0 0 1 -59.16106,-58.55564 59.161068,58.555645 0 0 1 59.16106,-58.555649 59.161068,58.555645 0 0 1 59.16107,58.555649 z"
       sodipodi:ry="58.555645"
       sodipodi:rx="59.161068"
       sodipodi:cy="133.08971"
       sodipodi:cx="381.92068"
       id="path3873-8"
       style="fill:#ffffff;stroke:#ffcc00;stroke-width:2.01227927;stroke-miterlimit:4;stroke-dasharray:none"
       sodipodi:type="arc" />
    <path
       transform="matrix(0.97654494,0,0,0.99040855,16.92017,7.1486512)"
       d="m 421.50083,133.08971 a 39.580147,39.024914 0 0 1 -39.58015,39.02491 39.580147,39.024914 0 0 1 -39.58014,-39.02491 39.580147,39.024914 0 0 1 39.58014,-39.024917 39.580147,39.024914 0 0 1 39.58015,39.024917 z"
       sodipodi:ry="39.024914"
       sodipodi:rx="39.580147"
       sodipodi:cy="133.08971"
       sodipodi:cx="381.92068"
       id="path3873"
       style="fill:none;stroke:#ffc910;stroke-width:2.01546407;stroke-miterlimit:4;stroke-opacity:1;stroke-dasharray:none"
       sodipodi:type="arc" />
    <g
       transform="translate(-1.3389907e-5,-0.99999752)"
       style="font-style:normal;font-variant:normal;font-weight:bold;font-stretch:normal;font-size:19px;line-height:125%;font-family:'Times New Roman';-inkscape-font-specification:'Times New Roman, Bold';text-align:start;letter-spacing:0px;word-spacing:0px;writing-mode:lr-tb;text-anchor:start;fill:#000000;fill-opacity:1;stroke:none"
       id="text3901">
      <path
         d="m 347.2508,115.27531 q 1.15474,-1.43069 2.00414,-1.82402 1.21215,-0.5684 2.42344,0.0167 1.27813,0.6174 1.61715,2.04845 0.40147,1.74969 -0.7607,4.15557 l -2.78035,5.75574 -0.30909,-0.14931 q 0.37933,-0.78525 0.37048,-1.12953 -0.0132,-0.35666 -0.19461,-0.57825 -0.17742,-0.22994 -1.09633,-0.67383 l -7.3513,-3.55109 q -0.91891,-0.44389 -1.20931,-0.43992 -0.29472,-0.008 -0.57394,0.207 -0.27921,0.21542 -0.6545,0.99232 l -0.30909,-0.1493 2.62297,-5.42994 q 0.94023,-1.94643 1.68252,-2.58726 0.73393,-0.64486 1.65327,-0.77774 0.91099,-0.13691 1.68789,0.23837 0.81866,0.39546 1.17539,1.2993 0.34838,0.8998 0.002,2.57672 z m -1.69441,2.93181 q 0.57302,-1.18624 0.57607,-1.87507 0.007,-0.69718 -0.33217,-1.23197 -0.33924,-0.53478 -1.09108,-0.89796 -0.75184,-0.36318 -1.37327,-0.29246 -0.62576,0.0583 -1.1427,0.48862 -0.51695,0.43029 -1.09775,1.65397 l 4.4609,2.15487 z m 0.65159,0.31475 3.63389,1.75537 0.41365,0.21012 q 0.4511,0.21791 0.79396,0.10535 0.33854,-0.12495 0.55645,-0.57605 0.32283,-0.6683 0.30081,-1.36924 -0.0263,-0.71333 -0.44076,-1.28443 -0.42278,-0.57514 -1.11614,-0.91007 -0.79361,-0.38336 -1.5977,-0.31844 -0.81244,0.0609 -1.37377,0.58306 -0.56133,0.52217 -1.17039,1.80433 z"
         style=""
         id="path4436" />
      <path
         d="m 358.24142,102.78522 2.25866,2.70682 q 0.65382,0.78355 0.9188,0.91285 0.26615,0.11623 0.60938,0.0352 0.34324,-0.081 1.00569,-0.63378 l 0.21993,0.26356 -4.9435,4.12503 -0.21992,-0.26356 q 0.66958,-0.55872 0.8036,-0.87596 0.1352,-0.33031 0.0614,-0.60703 -0.0667,-0.28266 -0.72052,-1.06621 l -5.23059,-6.2684 q -0.65382,-0.78355 -0.91997,-0.89979 -0.26498,-0.1293 -0.60821,-0.0483 -0.34324,0.081 -1.00569,0.63378 l -0.21992,-0.26356 4.4876,-3.744624 q 1.75231,-1.462186 2.76644,-1.897597 1.01413,-0.43541 2.07384,-0.208034 1.05376,0.220253 1.78485,1.096405 0.89158,1.068477 0.70477,2.408485 -0.12298,0.851763 -0.822,1.809615 l 5.05039,1.33185 q 0.98489,0.25356 1.30798,0.24979 0.47631,-0.0229 0.87879,-0.32248 l 0.21992,0.26356 -3.0416,2.53802 -6.78613,-1.80467 -0.63396,0.529 z m -3.95266,-4.736914 3.53064,4.231174 0.40603,-0.3388 q 0.99012,-0.8262 1.33302,-1.4144 0.33696,-0.595329 0.22247,-1.29727 -0.11331,-0.715007 -0.7493,-1.477188 -0.9213,-1.104094 -1.88113,-1.197309 -0.95272,-0.09916 -2.09955,0.857801 l -0.76218,0.635992 z"
         style=""
         id="path4438" />
      <path
         d="m 379.53784,97.137808 0.1123,0.324373 -6.21569,2.151868 -0.1123,-0.324373 0.39451,-0.136578 q 0.51725,-0.17907 0.76912,-0.472436 0.18544,-0.201648 0.20499,-0.542211 0.0236,-0.24379 -0.28599,-1.138007 l -2.70729,-7.820019 q -0.31564,-0.911751 -0.49099,-1.106303 -0.17535,-0.194552 -0.53109,-0.257929 -0.35,-0.07518 -0.84971,0.09782 l -0.39451,0.136578 -0.1123,-0.324372 6.21569,-2.151869 0.1123,0.324373 -0.39451,0.136579 q -0.51725,0.179069 -0.76911,0.472435 -0.18545,0.201648 -0.21376,0.545247 -0.0236,0.24379 0.28598,1.138007 l 2.70729,7.820018 q 0.31565,0.911751 0.49099,1.106303 0.18412,0.191517 0.53413,0.266696 0.35573,0.06338 0.85544,-0.109622 l 0.39451,-0.136578 z"
         style=""
         id="path4440" />
      <path
         d="m 396.46264,83.658767 -0.0167,3.404744 -0.33398,-0.0016 q -0.29109,-1.179667 -0.65039,-1.691692 -0.35926,-0.521302 -0.98861,-0.830549 -0.35172,-0.168721 -1.23305,-0.17305 l -0.937,-0.0046 -0.0477,9.703985 q -0.005,0.964832 0.0961,1.206541 0.11015,0.241755 0.41538,0.428803 0.31456,0.177817 0.85264,0.18046 l 0.41748,0.002 -0.002,0.343258 -6.58683,-0.03235 0.002,-0.343257 0.41748,0.002 q 0.54736,0.0027 0.88229,-0.190493 0.24185,-0.128697 0.38256,-0.443439 0.10314,-0.222153 0.10779,-1.16843 l 0.0477,-9.703985 -0.90917,-0.0045 q -1.27098,-0.0062 -1.84881,0.529012 -0.81081,0.747492 -1.03102,2.138029 l -0.35254,-0.0017 0.0167,-3.404744 11.29967,0.0555 z"
         style=""
         id="path4442" />
      <path
         d="m 408.0961,99.585274 -0.1181,0.322303 -6.17603,-2.263183 0.11811,-0.322303 0.39199,0.143644 q 0.51394,0.188332 0.89457,0.120318 0.27117,-0.03896 0.50165,-0.29044 0.17243,-0.173949 0.49802,-1.06246 l 2.84734,-7.770122 q 0.33197,-0.905933 0.31915,-1.167529 -0.0128,-0.261597 -0.24835,-0.535634 -0.22362,-0.279557 -0.72014,-0.461505 l -0.39199,-0.143644 0.11811,-0.322303 6.17602,2.263183 -0.1181,0.322303 -0.39199,-0.143644 q -0.51395,-0.188332 -0.89457,-0.120318 -0.27117,0.03896 -0.51037,0.287248 -0.17243,0.173949 -0.49802,1.06246 l -2.84733,7.770122 q -0.33198,0.905933 -0.31915,1.167529 0.0215,0.264789 0.24515,0.544345 0.23552,0.274038 0.73204,0.455986 l 0.39199,0.143644 z"
         style=""
         id="path4444" />
      <path
         d="m 427.70496,97.737164 -2.5436,3.335376 -0.29676,-0.23795 q 0.77671,-1.398747 0.54936,-2.805862 -0.21431,-1.408549 -1.16971,-2.174623 -0.73827,-0.591967 -1.49174,-0.542097 -0.74043,0.04843 -1.15249,0.562327 -0.26116,0.325706 -0.31229,0.700908 -0.0629,0.508487 0.13339,1.212861 0.14866,0.51162 0.89161,2.106216 1.0436,2.22809 1.04077,3.46253 -0.0101,1.22864 -0.78774,2.19852 -0.98661,1.23045 -2.6631,1.34883 -1.66344,0.11695 -3.13998,-1.06698 -0.46322,-0.37143 -0.80034,-0.79633 -0.33711,-0.4249 -0.75064,-1.18457 -0.23135,-0.42333 -0.45573,-0.60324 -0.18818,-0.1509 -0.51415,-0.17444 -0.32598,-0.0235 -0.6942,0.16874 l -0.26781,-0.21473 2.97144,-3.705813 0.26781,0.214733 q -0.93511,1.81875 -0.69198,3.36932 0.25617,1.54914 1.30567,2.39066 0.81064,0.65 1.64236,0.59152 0.83896,-0.0527 1.30905,-0.63894 0.27858,-0.34742 0.35155,-0.82402 0.0802,-0.47079 -0.064,-1.0621 -0.13843,-0.59854 -0.7166,-1.83508 -0.81088,-1.732313 -1.02572,-2.665631 -0.21485,-0.933317 -0.0748,-1.760471 0.14725,-0.821349 0.6986,-1.508951 0.94018,-1.172542 2.4631,-1.307037 1.52292,-0.134494 2.83298,0.915956 0.47771,0.383038 0.8336,0.858667 0.27054,0.359624 0.56396,0.987316 0.30646,0.626258 0.50189,0.782955 0.18818,0.150893 0.38961,0.12214 0.20142,-0.02875 0.64954,-0.394818 l 0.21713,0.174108 z"
         style=""
         id="path4446" />
      <path
         d="m 432.15711,114.11334 -3.45243,1.80646 q -0.85489,0.44731 -1.0213,0.64956 -0.16211,0.21047 -0.18458,0.56776 -0.01,0.3612 0.23522,0.82975 l 0.19355,0.3699 -0.30414,0.15914 -3.04948,-5.82804 0.30415,-0.15914 0.19355,0.3699 q 0.25376,0.48499 0.58122,0.69059 0.22691,0.15351 0.56661,0.12235 0.24459,-0.0128 1.08304,-0.45152 l 7.33231,-3.83657 q 0.85489,-0.44731 1.0213,-0.64956 0.16641,-0.20225 0.17636,-0.56345 0.0225,-0.35729 -0.2227,-0.82583 l -0.19355,-0.3699 0.30415,-0.15914 3.04947,5.82803 -0.30415,0.15914 -0.19354,-0.3699 q -0.25377,-0.48498 -0.58123,-0.69058 -0.22691,-0.15351 -0.57091,-0.13058 -0.24459,0.0128 -1.08304,0.45152 l -3.15651,1.65162 2.06022,3.93742 3.15651,-1.65162 q 0.85489,-0.44731 1.0213,-0.64956 0.16641,-0.20225 0.17635,-0.56345 0.0182,-0.36551 -0.22699,-0.83405 l -0.18925,-0.36169 0.30414,-0.15914 3.04517,5.81982 -0.30414,0.15914 -0.18925,-0.36168 q -0.25806,-0.49321 -0.58122,-0.69059 -0.22691,-0.1535 -0.57091,-0.13057 -0.2446,0.0128 -1.08305,0.45152 l -7.33231,3.83657 q -0.85489,0.44731 -1.0213,0.64956 -0.16641,0.20225 -0.18457,0.56775 -0.01,0.36121 0.23522,0.82975 l 0.18924,0.36169 -0.30414,0.15914 -3.04517,-5.81982 0.30414,-0.15914 0.18925,0.36168 q 0.25807,0.49321 0.58123,0.69059 0.22691,0.1535 0.5709,0.13057 0.2446,-0.0128 1.08305,-0.45152 l 3.45243,-1.80646 -2.06022,-3.93742 z"
         style=""
         id="path4448" />
    </g>
    <g
       transform="translate(-1.3389907e-5,-0.99999752)"
       id="g3311">
      <path
         style="fill:#018c01;fill-opacity:1;stroke:none"
         d="m 365.66029,163.86545 c 1.15363,0.61377 6.62594,0.61054 10.02305,0.0465 -0.84122,-1.7979 -1.7736,-4.47177 -0.79319,-5.92734 9.09588,-13.50411 15.50226,-23.19841 26.36908,-39.24597 2.22277,-3.28248 4.27033,-3.02862 8.03444,-2.67925 1.91454,0.1777 2.3716,-1.95332 3.16479,-2.95803 -0.35412,-1.36368 -0.42987,-1.82347 -1.90365,-1.90365 -5.78777,-0.31486 -11.48122,1.81774 -12.84802,4.02204 -8.50191,13.71143 -17.78582,27.47349 -26.01826,41.34839 -1.18264,1.99321 -3.81372,4.28322 -7.84859,5.85036 0.47591,0.37015 1.17618,1.24509 1.82035,1.44698 z"
         id="path2995"
         inkscape:connector-curvature="0"
         sodipodi:nodetypes="ccssscsssccc" />
      <rect
         style="fill:#ffc910;fill-opacity:1;fill-rule:nonzero;stroke:#aa8800;stroke-width:0.80000001;stroke-miterlimit:4;stroke-dasharray:none"
         id="rect2997"
         width="5.3094792"
         height="13.26514"
         x="383.91531"
         y="-131.46272"
         ry="4.1985631"
         rx="2.4782934"
         transform="matrix(0.82146177,0.57026358,-0.57026358,0.82146177,0,0)" />
      <rect
         style="fill:#ffc910;fill-opacity:1;fill-rule:nonzero;stroke:#aa8800;stroke-width:0.80000001;stroke-miterlimit:4;stroke-dasharray:none"
         id="rect2997-1"
         width="5.6639762"
         height="13.087306"
         x="388.46793"
         y="-131.78958"
         ry="4.1985631"
         rx="2.4782934"
         transform="matrix(0.82146177,0.57026358,-0.57026358,0.82146177,0,0)" />
      <rect
         style="fill:#ffc910;fill-opacity:1;fill-rule:nonzero;stroke:#aa8800;stroke-width:0.80000001;stroke-miterlimit:4;stroke-dasharray:none"
         id="rect2997-4-0-4-8"
         width="5.0515709"
         height="12.628516"
         x="400.43466"
         y="-150.9734"
         ry="4.1985631"
         rx="2.4997425"
         transform="matrix(0.78751523,0.6162952,-0.6162952,0.78751523,0,0)" />
      <rect
         style="fill:#ffc910;fill-opacity:1;fill-rule:nonzero;stroke:#aa8800;stroke-width:0.80000001;stroke-miterlimit:4;stroke-dasharray:none"
         id="rect2997-4-0-4"
         width="4.8883433"
         height="12.328934"
         x="395.32449"
         y="-158.66782"
         ry="4.1985631"
         rx="2.0273297"
         transform="matrix(0.77844063,0.62771824,-0.62771824,0.77844063,0,0)" />
      <rect
         style="fill:#ffc910;fill-opacity:1;fill-rule:nonzero;stroke:#aa8800;stroke-width:0.80000001;stroke-miterlimit:4;stroke-dasharray:none"
         id="rect2997-4-0"
         width="5.2486353"
         height="12.984949"
         x="383.36673"
         y="-179.32942"
         ry="4.1985631"
         rx="2.4782934"
         transform="matrix(0.74595579,0.66599547,-0.66599547,0.74595579,0,0)" />
      <rect
         style="fill:#ffc910;fill-opacity:1;fill-rule:nonzero;stroke:#aa8800;stroke-width:0.80000001;stroke-miterlimit:4;stroke-dasharray:none"
         id="rect2997-4"
         width="5.2784953"
         height="13.860546"
         x="388.97662"
         y="-155.4615"
         ry="4.1985631"
         rx="2.4782934"
         transform="matrix(0.78578071,0.61850519,-0.61850519,0.78578071,0,0)" />
      <rect
         style="fill:#ffc910;fill-opacity:1;fill-rule:nonzero;stroke:#aa8800;stroke-width:0.80000001;stroke-miterlimit:4;stroke-dasharray:none"
         id="rect2997-7"
         width="5.3094792"
         height="13.26514"
         x="392.40811"
         y="-132.40829"
         ry="4.1985631"
         rx="2.4782934"
         transform="matrix(0.82146177,0.57026358,-0.57026358,0.82146177,0,0)" />
      <path
         style="fill:#ffc910;fill-opacity:1;stroke:#aa8800;stroke-width:0.80000001;stroke-miterlimit:4"
         d="m 376.77169,135.5657 c 3.27631,0.63679 2.28568,1.83854 -0.84935,5.48822 -1.1196,1.3034 -0.78679,2.83177 -1.30306,4.39579 -1.27332,3.85754 -2.04914,4.19088 -2.60493,3.97545 -0.99924,-0.38732 -1.26166,-2.88711 -0.83323,-5.37604 0.27527,-1.59915 0.89103,-3.77187 1.69565,-5.181 0.65632,-1.14938 1.2565,-3.81523 3.89492,-3.30242 z"
         id="rect2997-17-1"
         inkscape:connector-curvature="0"
         sodipodi:nodetypes="sssssss" />
      <path
         style="fill:#ffc910;fill-opacity:1;stroke:#aa8800;stroke-width:0.80000001;stroke-miterlimit:4"
         d="m 381.08236,134.77101 c 3.08654,0.85737 0.78822,3.19421 -0.7565,5.72415 -0.89545,1.46647 -1.67319,2.82979 -2.24556,4.37415 -1.41171,3.80908 -4.26794,7.44387 -4.81559,7.20852 -0.98462,-0.42313 -0.94859,-3.38724 1.43021,-8.73227 0.65978,-1.48248 1.02657,-3.73726 1.88152,-5.11643 0.69737,-1.12494 3.2877,-3.79652 4.50592,-3.45812 z"
         id="rect2997-17-1-7-0"
         inkscape:connector-curvature="0"
         sodipodi:nodetypes="sssssss" />
      <path
         transform="matrix(0.87995163,0.47506329,-0.47506329,0.87995163,0,0)"
         style="fill:#ffc910;fill-opacity:1;fill-rule:nonzero;stroke:#aa8800;stroke-width:0.80000001;stroke-miterlimit:4"
         d="m 396.17552,-74.354252 c 3.14795,-0.593413 0.97958,2.197892 0.9291,5.161714 -0.0293,1.717989 0.36469,3.276164 0.65341,4.897687 0.71211,3.99935 -1.31645,4.708471 -1.90786,4.782937 -1.06329,0.133883 -1.88952,-2.260888 -2.69492,-4.654555 -0.51748,-1.537946 -0.30505,-3.739339 -0.26645,-5.361551 0.0315,-1.323184 0.64544,-4.32833 3.28672,-4.826232 z"
         id="rect2997-17"
         inkscape:connector-curvature="0"
         sodipodi:nodetypes="sssssss" />
      <path
         style="fill:#ffc910;fill-opacity:1;stroke:#aa8800;stroke-width:0.80000001;stroke-miterlimit:4"
         d="m 385.55213,138.54323 c -2.02908,-1.60477 -3.72142,1.08723 -4.7434,3.86972 -0.59235,1.61292 -1.17706,3.0695 -2.03123,4.47772 -2.10675,3.47327 -3.17921,7.96989 -2.65447,8.25266 0.94342,0.50841 2.85056,-1.75459 6.3448,-6.49139 0.96327,-1.30582 1.89724,-3.183 2.44638,-4.70992 0.44789,-1.24547 1.6296,-4.61448 0.63792,-5.39879 z"
         id="rect2997-17-1-7-4"
         inkscape:connector-curvature="0"
         sodipodi:nodetypes="sssssss" />
      <path
         style="fill:#ffc910;fill-opacity:1;stroke:#aa8800;stroke-width:0.80000001;stroke-miterlimit:4"
         d="m 383.03552,137.24513 c 3.05368,0.96791 0.67274,3.22051 -0.96204,5.69321 -0.94765,1.43329 -1.77395,2.76774 -2.40154,4.2905 -1.54789,3.7558 -4.53309,7.28543 -5.07192,7.03052 -0.96875,-0.45829 -0.82606,-3.41918 1.74358,-8.67513 0.71271,-1.45778 1.16042,-3.69789 2.06445,-5.0454 0.73741,-1.09911 3.42222,-3.67573 4.62747,-3.2937 z"
         id="rect2997-17-1-7"
         inkscape:connector-curvature="0"
         sodipodi:nodetypes="sssssss" />
      <path
         style="fill:#ffc910;fill-opacity:1;fill-rule:nonzero;stroke:#aa8800;stroke-width:0.80000001;stroke-miterlimit:4"
         d="m 387.87691,123.67527 c 3.05195,0.9733 -0.18215,2.3994 -1.63458,4.98344 -0.84193,1.49782 -1.23547,3.05611 -1.75174,4.62014 -1.27332,3.85753 -2.94653,4.97609 -4.56798,4.48022 -1.02483,-0.31342 0.0283,-4.06494 0.45677,-6.55387 0.27526,-1.59915 1.50799,-3.43535 2.31261,-4.84448 0.65631,-1.14938 2.62419,-3.5021 5.18492,-2.68545 z"
         id="rect2997-17-4"
         inkscape:connector-curvature="0"
         sodipodi:nodetypes="sssssss" />
      <path
         style="fill:#ffc910;fill-opacity:1;stroke:#aa8800;stroke-width:0.80000001;stroke-miterlimit:4"
         d="m 392.35662,147.48858 c -1.98373,-2.51528 -2.93089,0.45596 -4.83973,2.72381 -1.10642,1.31459 -2.50913,1.46195 -3.88186,2.37207 -2.82753,1.87466 -5.44698,1.65249 -4.4891,2.88234 0.65851,0.84549 5.05329,1.51271 7.23292,0.23696 1.40043,-0.81967 3.21819,-2.15967 4.25469,-3.40817 0.84544,-1.01837 3.3875,-2.69658 1.72308,-4.80701 z"
         id="rect2997-17-1-8"
         inkscape:connector-curvature="0"
         sodipodi:nodetypes="sssssss" />
      <path
         style="fill:#ffc910;fill-opacity:1;stroke:#aa8800;stroke-width:0.80000001;stroke-miterlimit:4"
         d="m 392.50971,143.96622 c -1.79092,-2.86665 -4.54247,-0.0175 -5.49555,2.42054 -0.62561,1.60031 -1.86948,2.65525 -3.15129,3.68949 -3.1615,2.55088 -5.32039,4.43133 -4.92293,4.87556 0.71457,0.7987 3.47483,1.3252 7.73924,-2.58221 1.19639,-1.09623 2.36104,-2.01253 3.39629,-3.26204 0.84441,-1.01921 3.10415,-4.06905 2.43424,-5.14134 z"
         id="rect2997-17-1-7-4-9-4"
         inkscape:connector-curvature="0"
         sodipodi:nodetypes="sssssss" />
      <path
         style="fill:#ffc910;fill-opacity:1;stroke:#aa8800;stroke-width:0.80000001;stroke-miterlimit:4"
         d="m 389.0713,141.40922 c -2.36317,-2.41672 -3.83148,0.59227 -5.20784,3.2176 -0.79778,1.52182 -1.56757,2.88964 -2.59821,4.17434 -2.54201,3.16863 -4.24821,5.46771 -3.76486,5.81654 0.86901,0.62718 2.66256,0.37112 7.19378,-3.58873 1.22185,-1.06778 2.2964,-2.90819 3.04011,-4.35038 0.6066,-1.17637 2.22098,-4.36538 1.33702,-5.26937 z"
         id="rect2997-17-1-7-4-9"
         inkscape:connector-curvature="0"
         sodipodi:nodetypes="sssssss" />
      <path
         style="fill:#ffc910;fill-opacity:1;fill-rule:nonzero;stroke:#aa8800;stroke-width:0.80000001;stroke-miterlimit:4"
         d="m 391.34596,125.72592 c 3.05195,0.9733 -0.18215,2.3994 -1.63458,4.98344 -0.84193,1.49782 -1.23547,3.05611 -1.75174,4.62014 -1.27332,3.85753 -2.94653,4.97609 -4.56798,4.48022 -1.02483,-0.31342 0.0283,-4.06494 0.45677,-6.55387 0.27526,-1.59915 1.50799,-3.43535 2.31261,-4.84448 0.65631,-1.14938 2.62419,-3.5021 5.18492,-2.68545 z"
         id="rect2997-17-4-0"
         inkscape:connector-curvature="0"
         sodipodi:nodetypes="sssssss" />
      <path
         style="fill:#ffc910;fill-opacity:1;fill-rule:nonzero;stroke:#aa8800;stroke-width:0.80000001;stroke-miterlimit:4"
         d="m 395.39752,128.02597 c 2.93876,1.27491 -0.14179,3.43463 -1.84641,5.85972 -0.98811,1.40569 -1.59225,2.24353 -2.43126,3.69171 -2.03641,3.51496 -3.4875,4.31846 -5.05095,3.66225 -0.98817,-0.41477 0.71686,-4.15372 1.39315,-6.58703 0.43448,-1.56341 1.56497,-3.15435 2.50705,-4.47554 0.76843,-1.07765 2.96266,-3.22082 5.42842,-2.15111 z"
         id="rect2997-17-4-0-9"
         inkscape:connector-curvature="0"
         sodipodi:nodetypes="sssssss" />
      <path
         style="fill:#ffc910;fill-opacity:1;fill-rule:nonzero;stroke:#aa8800;stroke-width:0.80000001;stroke-miterlimit:4"
         d="m 396.85666,131.13407 c -1.13094,-0.8078 -2.62609,1.40567 -4.07487,3.99175 -0.83975,1.49906 -1.34779,2.25428 -2.41374,3.50985 -2.62905,3.09677 -1.17741,5.12349 -0.70394,5.48563 0.85123,0.65107 2.71485,-1.33843 4.61598,-3.00095 1.22151,-1.06818 2.18403,-2.75094 2.98603,-4.16156 1.42428,-2.50514 1.77771,-4.26248 -0.40946,-5.82472 z"
         id="rect2997-17-48"
         inkscape:connector-curvature="0"
         sodipodi:nodetypes="sssssss" />
      <path
         style="fill:#ffc910;fill-opacity:1;fill-rule:nonzero;stroke:#aa8800;stroke-width:0.80000001;stroke-miterlimit:4"
         d="m 400.53475,133.99987 c -2.17558,-2.35128 -2.48839,1.91151 -4.21275,4.32261 -0.99949,1.39761 -2.24389,2.41478 -3.44143,3.54553 -2.95365,2.78888 -3.25718,4.77853 -2.12056,6.03673 0.71841,0.79523 3.66941,-1.74928 5.74182,-3.1927 1.33155,-0.92738 2.47179,-2.8224 3.40679,-4.14861 0.76264,-1.08176 2.45155,-4.59072 0.62613,-6.56356 z"
         id="rect2997-17-4-8"
         inkscape:connector-curvature="0"
         sodipodi:nodetypes="sssssss" />
      <path
         style="fill:#ffc910;fill-opacity:1;fill-rule:nonzero;stroke:#aa8800;stroke-width:0.80000001;stroke-miterlimit:4"
         d="m 402.94838,138.23526 c -1.83668,-2.62456 -2.27827,1.28589 -4.16547,3.57178 -1.09388,1.32504 -2.40573,2.25359 -3.6787,3.29869 -3.1397,2.57763 -4.25333,3.70019 -3.20658,5.03408 0.66161,0.84307 3.50131,-1.37879 5.6687,-2.67522 1.39258,-0.83294 2.88567,-2.19575 3.91027,-3.45402 0.83572,-1.02635 3.21229,-3.28819 1.47178,-5.77531 z"
         id="rect2997-17-4-8-2"
         inkscape:connector-curvature="0"
         sodipodi:nodetypes="sssssss" />
    </g>
    <g
       transform="translate(-1.3389907e-5,-0.99999752)"
       style="font-style:normal;font-variant:normal;font-weight:bold;font-stretch:normal;font-size:19px;line-height:125%;font-family:'Times New Roman';-inkscape-font-specification:'Times New Roman, Bold';text-align:start;letter-spacing:0px;word-spacing:0px;writing-mode:lr-tb;text-anchor:start;fill:#000000;fill-opacity:1;stroke:none"
       id="text3901-1">
      <path
         d="m 347.90287,146.83939 -4.35223,0.26608 -0.0221,-0.36114 q 1.67894,-0.51161 2.51849,-1.6783 0.83955,-1.16669 0.7535,-2.57421 -0.0719,-1.17603 -0.80789,-2.11627 -0.73599,-0.94024 -1.85642,-1.32718 -1.43393,-0.4979 -3.14704,-0.39316 -1.68533,0.10303 -3.0483,0.61391 -1.35371,0.51032 -2.01125,1.46139 -0.64828,0.95051 -0.55997,2.39508 0.0725,1.18529 0.65104,2.13515 0.57914,0.95913 1.91457,1.97425 l -1.08343,0.0662 q -1.16648,-0.98828 -1.73673,-2.10595 -0.56041,-1.10899 -0.65382,-2.6369 -0.12285,-2.00943 0.5871,-3.62363 0.71051,-1.60494 2.16782,-2.54914 1.45787,-0.93495 3.16172,-1.03911 1.79645,-0.10983 3.46488,0.72693 1.66899,0.84602 2.65533,2.3844 0.98691,1.54764 1.09673,3.34409 0.081,1.32419 -0.40315,2.83164 -0.28128,0.8723 -0.26713,1.1038 0.0181,0.29633 0.24412,0.49629 0.23583,0.20865 0.71206,0.2446 l 0.0221,0.36114 z"
         style=""
         id="path4451" />
      <path
         d="m 343.8771,162.56326 -1.9107,-4.01211 -1.333,0.0491 q -0.66451,0.0287 -1.02468,0.20027 -0.47743,0.22736 -0.52009,0.72036 -0.0263,0.28998 0.3295,1.20975 l -0.30991,0.14759 -1.79901,-3.77758 0.30992,-0.1476 q 0.38332,0.56758 0.98123,0.76579 0.60628,0.19423 2.1798,0.15389 l 10.99747,-0.25366 0.0758,0.15915 -7.36354,8.53155 q -1.04418,1.21658 -1.2081,1.75704 -0.12403,0.40844 0.0814,0.9477 l -0.30991,0.14759 -2.61674,-5.49466 0.30992,-0.14759 0.1077,0.22615 q 0.31512,0.6617 0.62704,0.84198 0.22177,0.12045 0.47305,7.8e-4 0.15077,-0.0718 0.28598,-0.19784 0.0674,-0.0527 0.50854,-0.55045 l 1.12834,-1.27721 z m 0.4842,-0.57996 3.10583,-3.55478 -4.74129,0.12061 1.63546,3.43417 z"
         style=""
         id="path4453" />
      <path
         d="m 357.99099,178.71693 7.86281,-4.31527 3.98728,3.21359 -0.2154,0.26726 -0.31783,-0.25615 q -0.4334,-0.3493 -0.81569,-0.4072 -0.26209,-0.0444 -0.56256,0.10663 -0.21918,0.10932 -0.80717,0.83888 l -5.20462,6.45767 q -0.60546,0.75122 -0.67737,1.00307 -0.0719,0.25185 0.0573,0.59425 0.13498,0.33518 0.54671,0.66702 l 0.31783,0.25616 -0.2154,0.26726 -5.11413,-4.12178 0.21541,-0.26726 0.31782,0.25615 q 0.4334,0.34931 0.8157,0.4072 0.26209,0.0444 0.56838,-0.11385 0.21917,-0.10932 0.81299,-0.8461 l 5.85083,-7.25946 -10.95761,5.90798 -0.17336,-0.13973 3.33515,-11.94413 -5.55974,6.89829 q -0.58217,0.72234 -0.67996,0.91758 -0.19718,0.43685 -0.0729,0.91833 0.13735,0.48008 0.80912,1.0215 l -0.2154,0.26727 -3.35163,-2.70128 0.2154,-0.26727 0.10113,0.0815 q 0.31923,0.2692 0.68827,0.3879 0.37485,0.11147 0.67069,0.0401 0.29583,-0.0714 0.6489,-0.34683 0.0785,-0.0678 0.60827,-0.72514 l 4.99503,-6.19763 q 0.59964,-0.744 0.66573,-0.98862 0.0719,-0.25185 -0.0631,-0.58703 -0.12916,-0.34241 -0.54089,-0.67425 l -0.31061,-0.25033 0.21541,-0.26726 4.00173,3.22523 -2.45253,8.67574 z"
         style=""
         id="path4455" />
      <path
         d="m 378.88154,180.96871 -1.15903,4.98821 0.24399,0.0567 q 1.16572,0.27086 1.85992,-0.33932 0.6942,-0.61019 1.17053,-2.00438 l 0.3434,0.0798 -1.49079,6.416 -0.34339,-0.0798 q 0.13513,-1.07345 -0.0619,-1.82404 -0.18802,-0.7485 -0.59639,-1.0815 -0.40628,-0.34204 -1.28283,-0.54571 l -0.80208,3.45199 q -0.23517,1.0121 -0.20633,1.25691 0.0379,0.24692 0.23923,0.44609 0.20136,0.19918 0.72548,0.32096 l 0.73197,0.17008 q 1.71695,0.39894 2.9319,-0.15692 1.22398,-0.55375 2.05376,-2.07536 l 0.33435,0.0777 -1.4562,3.7667 -10.59091,-2.46084 0.0777,-0.33436 0.40665,0.0945 q 0.53316,0.12388 0.90257,0.01 0.26435,-0.0719 0.46225,-0.34977 0.1498,-0.19378 0.36396,-1.11551 l 1.87293,-8.06066 q 0.19317,-0.83137 0.19208,-1.03164 -0.0169,-0.33728 -0.22097,-0.56567 -0.2846,-0.33281 -0.88102,-0.47139 l -0.40664,-0.0945 0.0777,-0.33435 10.25656,2.38315 -0.84197,3.62368 -0.3434,-0.0798 q 0.0466,-1.38927 -0.29796,-2.0789 -0.33553,-0.68752 -1.14005,-1.16019 -0.46826,-0.28024 -1.8599,-0.6036 l -1.26512,-0.29395 z"
         style=""
         id="path4457" />
      <path
         d="m 397.06408,187.99565 0.63462,3.4678 q 0.18371,1.00384 0.35077,1.24677 0.17452,0.23214 0.51319,0.3305 0.33867,0.0984 1.18737,-0.057 l 0.0618,0.33766 -6.3333,1.15902 -0.0618,-0.33766 q 0.85783,-0.15698 1.13059,-0.36723 0.28021,-0.22105 0.35209,-0.49828 0.081,-0.2789 -0.10271,-1.28274 l -1.46966,-8.0307 q -0.1837,-1.00383 -0.35822,-1.23597 -0.16707,-0.24294 -0.50574,-0.3413 -0.33867,-0.0984 -1.18737,0.057 l -0.0618,-0.33765 5.74925,-1.05214 q 2.24494,-0.41083 3.34206,-0.29094 1.09713,0.11989 1.90783,0.83921 0.80903,0.71021 1.01445,1.83268 0.25051,1.36887 -0.57141,2.44356 -0.52614,0.68103 -1.60596,1.17102 l 3.74156,3.6443 q 0.73269,0.70531 1.01582,0.86098 0.42593,0.21443 0.92374,0.15162 l 0.0618,0.33766 -3.89671,0.71311 -5.02007,-4.90992 -0.81219,0.14864 z m -1.11059,-6.06865 0.99201,5.42072 0.52017,-0.0952 q 1.26849,-0.23214 1.85641,-0.57552 0.58626,-0.35251 0.83194,-1.01994 0.25314,-0.67823 0.0744,-1.65469 -0.25886,-1.4145 -1.04862,-1.96789 -0.78064,-0.55507 -2.2499,-0.28619 l -0.97645,0.1787 z"
         style=""
         id="path4459" />
      <path
         d="m 414.24548,173.78561 q 2.39537,-1.81928 5.00081,-1.37101 2.61302,0.44294 4.22387,2.73532 1.37615,1.9584 1.27541,4.25159 -0.13131,3.04036 -2.90191,4.98725 -2.77818,1.95222 -5.61913,1.13651 -2.24478,-0.64501 -3.67961,-2.6869 -1.61084,-2.29238 -1.12687,-4.91156 0.48622,-2.63211 2.82743,-4.1412 z m 0.43246,0.4218 q -1.41187,0.99211 -1.13472,2.95173 0.23243,1.60552 1.78994,3.822 1.85087,2.63396 3.66237,3.24328 1.26394,0.42713 2.42531,-0.38896 0.78184,-0.5494 1.0389,-1.29697 0.32661,-0.95519 -0.0482,-2.27925 -0.38014,-1.33164 -1.5856,-3.04714 -1.43483,-2.04189 -2.52378,-2.78475 -1.09428,-0.75045 -1.97972,-0.75189 -0.87784,-0.007 -1.6445,0.53195 z"
         style=""
         id="path4461" />
      <path
         d="m 426.75525,160.10397 q 1.3986,-2.66299 3.94846,-3.36116 2.55448,-0.70622 4.98503,0.68744 2.07643,1.1906 2.95705,3.31037 1.16958,2.80947 -0.51481,5.74705 -1.68899,2.94564 -4.60789,3.41082 -2.30657,0.36712 -4.47154,-0.87425 -2.43055,-1.39365 -3.10221,-3.97109 -0.67509,-2.59011 0.80591,-4.94918 z m 0.57046,0.19876 q -0.85834,1.49696 0.22318,3.15444 0.89095,1.3557 3.24102,2.70321 2.79272,1.60132 4.69172,1.38549 1.32584,-0.14879 2.0319,-1.38016 0.47532,-0.82896 0.39132,-1.61502 -0.10898,-1.00359 -1.0096,-2.04401 -0.90868,-1.04504 -2.72756,-2.08798 -2.16497,-1.24136 -3.46611,-1.45271 -1.30919,-0.21597 -2.11179,0.15798 -0.79799,0.36589 -1.26408,1.17876 z"
         style=""
         id="path4463" />
      <path
         d="m 432.19557,144.93896 8.322,-5.49004 -5.38738,-0.47974 q -1.12737,-0.10039 -1.55353,0.18766 -0.57546,0.39583 -0.64996,1.44168 l -0.34191,-0.0305 0.36865,-4.13986 0.3419,0.0304 q 0.0309,0.80376 0.17253,1.0958 0.13323,0.28197 0.48888,0.47198 0.34722,0.17994 1.23433,0.25894 l 10.43284,0.92902 -0.028,0.31419 -11.18742,7.54477 7.96555,0.70931 q 1.08117,0.0963 1.50366,-0.35974 0.4233,-0.46527 0.48008,-1.10288 l 0.0263,-0.29571 0.34191,0.0305 -0.3958,4.44482 -0.34191,-0.0304 q 0.0829,-1.03579 -0.29671,-1.47941 -0.37962,-0.44363 -1.37763,-0.5325 l -8.84342,-0.78749 -0.35654,0.23836 q -0.53438,0.35292 -0.71863,0.64387 -0.18425,0.29096 -0.25375,0.86224 l -0.34191,-0.0304 0.39581,-4.44482 z"
         style=""
         id="path4465" />
    </g>
  </g>
</svg>
