<?xml version="1.0" encoding="UTF-8" standalone="no"?>
<!-- Created with Inkscape (http://www.inkscape.org/) -->
<svg xmlns:svg="http://www.w3.org/2000/svg" xmlns="http://www.w3.org/2000/svg" version="1.0" width="800" height="533" id="svg2707">
  <defs id="defs2710"/>
  <rect width="801.31232" height="532.02289" x="-0.015117645" y="0.53072739" id="rect3171" style="fill: rgb(232, 17, 45); fill-opacity: 1; stroke: none; stroke-width: 3.5; stroke-linecap: round; stroke-linejoin: round; stroke-miterlimit: 4; stroke-dasharray: none; stroke-opacity: 1;"/>
  <path d="M 372.00737,253.44199 L 408.47146,259.7035" id="path4007" style="fill: none; fill-rule: evenodd; stroke: rgb(0, 0, 0); stroke-width: 1px; stroke-linecap: butt; stroke-linejoin: miter; stroke-opacity: 1;"/>
  <path d="M 411.78637,92.116022 C 411.78637,92.116022 401.84162,105.37569 401.4733,110.1639 C 401.10497,114.95212 399.26335,114.95212 402.57827,118.26703 C 405.89319,121.58195 412.1547,119.74033 409.94475,127.84346 C 407.73481,135.94659 402.57827,131.89503 401.10497,138.52486 C 399.63168,145.1547 408.10313,158.41436 408.10313,169.46409 C 408.10313,180.51381 405.15654,179.40884 395.58011,184.19705 C 386.00368,188.98527 368.69245,183.09208 355.43278,179.40884" id="path4023" style="fill: none; fill-rule: evenodd; stroke: rgb(0, 0, 0); stroke-width: 1px; stroke-linecap: butt; stroke-linejoin: miter; stroke-opacity: 1;"/>
  <path d="M 463.35175,193.77348 C 463.35175,193.77348 459.66851,142.57643 464.45673,137.05156 C 473.19765,126.96587 547.69797,123.42358 565.00921,114.95212 C 579.99936,107.61652 589.68692,99.482504 608.47146,81.802946 C 613.03109,77.51153 622.09945,76.646408 622.09945,76.646408 C 622.09945,76.646408 620.40075,80.644516 611.78637,94.69429 C 607.88804,101.05234 611.70838,115.67 609.2081,119.00368 C 606.99815,121.95027 597.05341,120.10865 587.84531,122.3186 C 580.49661,124.08229 577.90055,130.42173 576.79558,136.68324" id="path3180" style="fill: rgb(249, 221, 22); fill-opacity: 1; fill-rule: evenodd; stroke: rgb(0, 0, 0); stroke-width: 3.5; stroke-linecap: round; stroke-linejoin: miter; marker-start: none; stroke-miterlimit: 5; stroke-dasharray: none; stroke-opacity: 1;"/>
  <path d="M 544.38305,352.70534 C 527.25598,356.20442 517.55994,361.92255 511.78637,369.09576 C 505.70903,376.64641 506.17044,391.47865 512.89135,401.13996 C 518.78453,409.61141 545.65818,414.31564 556.16943,409.97974 C 570.90239,403.90239 573.93118,385.69094 571.82321,374.98895 C 569.4291,362.83425 542.90976,348.10129 524.49355,346.99632 C 507.94524,345.9934 468.32412,353.81031 450.09208,358.78269 C 436.5069,362.48774 425.96685,374.43647 417.86372,377.01473 C 410.28698,379.42552 409.39226,376.09392 402.39411,377.56722 C 395.39595,379.04052 394.03137,383.35319 391.16022,388.61695 C 390.05525,390.64272 375.87477,391.56353 366.29834,391.93186 C 356.72191,392.30018 323.7569,387.69613 313.0755,385.48619 C 302.3941,383.27624 288.57877,370.16833 281.21547,370.38489 C 275.13812,370.56906 241.43646,381.67851 241.2523,388.98526 C 241.16878,392.29913 258.01105,391.19521 279.55801,405.55985 C 284.97096,414.38641 286.00368,427.10681 284.16206,432.26335 C 282.32044,437.41989 278.45304,442.02394 274.03315,441.65562 C 269.61326,441.28729 270.71823,424.34438 270.71823,424.34438 C 270.71823,424.34438 251.19705,422.50276 244.1989,421.76611 C 237.20074,421.02947 220.62615,413.29466 212.52302,413.29466 C 204.41989,413.29466 198.89503,417.34622 192.63352,425.08103 C 186.37201,432.81584 188.13151,446.92133 181.95212,449.0221 C 175.09981,451.35164 166.76756,440.38595 158.19521,445.33885 C 149.90791,450.12706 154.88029,454.17863 152.11786,463.75506 C 150.87175,468.07489 148.30646,471.27002 146.593,468.17495 C 145.10846,465.49339 138.12155,445.33886 142.90976,440.18232 C 151.9913,430.4022 177.1639,410.71639 172.37569,414.76796 C 167.58748,418.81952 158.37937,418.26704 153.95948,417.16206 C 149.5396,416.05709 144.38306,403.34991 138.8582,403.34991 C 133.33333,403.34991 128.54512,409.42726 129.09761,424.71271 C 119.33702,420.66114 118.96869,410.90055 120.07366,401.87661 C 121.14806,393.10236 134.00379,385.84569 147.88214,387.69613 C 161.69429,389.53775 176.30718,401.17356 176.97975,399.29834 C 177.95093,396.59054 176.56445,384.07238 173.11234,382.72376 C 163.00585,378.7755 149.49768,375.41366 150.64457,373.51565 C 153.63634,368.5645 152.10363,363.06166 149.5396,360.62431 C 145.87081,357.13678 126.33518,371.30571 122.46777,364.67588 C 119.12203,358.94033 147.44637,345.6557 159.30018,346.99631 C 190.05525,350.49539 181.76755,372.50725 213.81215,372.59484 C 234.07641,372.64973 239.04236,358.59853 246.40884,351.41621 C 251.84557,346.11539 257.62003,348.04206 260.77348,337.41989 C 264.27256,325.63352 250.46041,316.79374 244.1989,316.79374 C 237.93739,316.79374 235.38727,331.26888 228.36096,333 C 215.65378,336.13075 211.41805,330.42173 208.83978,326.37017 C 206.26151,322.3186 217.75934,318.24535 216.20626,300.9558 C 215.09487,288.58337 198.17644,285.0628 180.29466,260.44015 C 178.46198,257.91662 178.45304,242.2081 168.50829,240.55064 C 161.80913,239.43411 149.90792,249.39042 148.43462,254.17864 C 146.96133,258.96685 148.0663,261.91344 143.27808,266.70166 C 138.48987,271.48987 136.83242,268.17496 132.0442,269.64825 C 127.25599,271.12155 130.01842,272.96317 121.91529,276.27808 C 113.81215,279.593 102.33151,267.31848 106.07734,262.46593 C 114.18048,251.9687 156.58454,240.56675 158.01105,218.4512 C 158.61513,209.08595 148.00202,193.59726 138.8582,190.09024 C 132.85229,187.78673 123.7569,186.407 125.2302,181.25046 C 126.73444,175.9856 128.91344,172.59484 126.7035,168.9116 C 124.49355,165.22836 117.31124,167.99079 117.31124,160.62431 C 117.31124,154.73112 124.67863,147.14769 131.86004,147.36464 C 140.88065,147.63159 154.69613,161.54512 156.16943,172.77901 C 157.24039,180.94506 154.69613,184.19705 158.37937,189.35359 C 162.06262,194.51013 167.58748,196.16758 167.58748,191.93186 C 167.58748,186.10815 161.87845,171.30571 160.95764,159.15101 C 160.59168,154.32031 165.74585,154.17864 167.21915,146.62799 C 168.14693,141.87312 166.11418,138.89319 161.32597,137.78821 C 156.53775,136.68324 154.42957,144.07734 151.74954,135.94659 C 150.52778,132.23998 163.17008,121.00336 172.92818,121.95027 C 178.61116,122.50174 194.48666,134.61071 191.89687,151.04788 C 188.15819,174.77693 175.87477,187.8803 179.74217,193.77348 C 182.09885,197.36461 182.37634,195.73909 187.10866,192.30018 C 194.13458,187.19454 201.10497,166.5175 203.31492,163.5709 C 205.52486,160.62431 214.73297,166.14917 215.46961,161.72928 C 216.20626,157.30939 210.12891,151.96869 209.39226,148.28545 C 208.65561,144.60221 220.44198,143.12891 227.80847,150.31124 C 232.10153,154.49696 230.93923,171.8582 229.09761,178.85636 C 227.25599,185.85451 213.39521,200.22591 205.89319,206.2965 C 200.4884,210.67001 190.5035,210.89928 190.42357,221.76611 C 190.38426,226.74164 211.97054,276.46224 233.5175,279.96133 C 240.43472,281.08464 238.8582,280.14549 244.56722,272.96317 C 249.91274,266.23816 247.14549,259.51934 251.56538,246.44383 C 253.41155,240.98223 264.45672,242.94475 265.37753,241.65561 C 269.30759,236.15353 275.13812,224.34438 282.13628,220.66114 C 289.13444,216.9779 299.71374,217.34753 302.39411,215.13628 C 305.73137,212.3831 307.00558,207.05015 322.1949,199.78539 C 358.53272,182.40569 356.21411,177.71978 356.21411,177.71978 C 356.21411,177.71978 331.22426,175.55069 318.38461,176.59247 C 311.40496,176.59247 305.12692,185.43938 300.93932,185.75589 C 294.93442,186.20975 293.92265,182.72376 294.6593,177.19889 C 295.39595,171.67403 309.10564,165.54274 317.86372,166.08598 C 323.75708,166.45152 335.11176,168.68276 344.68819,168.68276 C 354.26462,168.68276 359.70394,165.92958 359.24624,163.78666 C 358.51639,160.3695 341.2022,155.66118 330.27886,156.02951 C 321.43644,156.32768 282.39672,160.66517 273.55694,160.66517 C 264.71716,160.66517 253.40316,157.11598 253.03867,151.41621 C 252.69161,145.98905 261.52864,140.71246 267.0535,140.71246 C 272.57836,140.71246 280.46574,148.92348 280.46574,148.92348 L 354.32781,147.36464 C 354.32781,147.36464 340.62195,134.7114 330.21566,134.7114 C 318.24672,134.7114 300.29205,139.17597 295.18019,136.68324 C 289.63061,133.97706 293.92265,119.74033 287.66114,117.53039 C 281.39963,115.32044 278.63178,127.56068 270.28672,127.19235 C 264.02068,126.9114 260.01832,119.4352 260.40516,116.06093 C 261.20113,109.11794 295.04614,95.866291 302.91116,96.383346 C 310.93816,96.911049 314.28453,105.63613 320.54604,105.26781 C 326.80755,104.89948 334.92535,93.113114 347.08771,93.113114 C 354.82252,93.113114 372.77907,99.856296 393.97276,102.6672 C 397.06796,103.07771 400.10354,99.849171 400.04468,95.747568 C 399.99601,92.463213 395.90975,90.367805 392.94565,88.268716 C 387.68092,84.54038 384.71179,83.091095 384.53039,81.434622 C 384.2195,78.595669 390.86426,73.826119 393.28463,74.674566 C 404.79011,78.707738 405.75761,90.331348 413.99632,92.85267 C 417.39221,93.891926 429.59999,80.634779 432.65063,80.504557 C 438.17046,80.268932 438.24997,84.808372 438.52147,91.379373 C 438.84448,99.327162 428.99855,119.07172 425.41437,122.49351 C 423.03334,124.76665 418.24207,124.90297 418.41621,127.84346 C 418.64417,131.69274 425.43039,135.85667 431.67588,138.52486 C 439.08704,141.69105 448.80436,149.40332 447.51381,154.73112 C 446.55026,158.70897 421.73112,153.62615 421.73112,153.62615 L 423.57274,169.83241 C 423.57274,169.83241 430.06545,166.9853 434.62247,168.72744 C 438.56378,170.2342 442.42253,190.32358 437.56906,192.30018 C 433.55156,193.93633 430.38248,185.59753 425.41437,183.82873 C 423.77383,183.24465 414.1177,187.4664 413.62799,190.45856 C 412.92475,194.75544 422.9829,199.98712 424.30939,203.28672 C 425.8151,207.03213 429.98128,216.87701 427.29684,221.35693 C 426.65665,222.42531 425.78269,220.98478 409.94475,212.88165 C 403.14767,225.81768 378.35058,235.76243 368.77799,237.08316 C 357.4612,238.64454 343.2697,234.00811 343.25574,238.05791 C 343.23217,245.02992 394.46747,249.08913 413.99632,244.97053 C 429.05123,241.79547 452.29484,221.67939 458.56354,205.55985 C 466.29834,185.67035 477.72023,150.13923 504.23573,142.2081 C 547.96939,129.08785 596.51179,144.38016 614.73297,135.94659 C 635.58857,126.29369 666.47596,109.84953 680.3802,98.891873 C 694.28443,87.934234 697.60589,82.17127 697.60589,82.17127 C 697.60589,82.17127 690.91799,110.19093 683.24125,122.3186 C 674.44451,136.21567 659.42433,139.18081 647.75575,152.82248 C 634.75529,168.02124 635.25507,168.69743 627.40855,197.82504 C 590.20781,195.6151 588.28065,220.61262 582.9939,244.64689 C 560.72337,238.89862 541.80479,262.28177 538.8582,278.11971 C 529.65009,278.48803 511.01813,276.10317 504.38829,290.09949 M 577.13692,312.70488 C 577.13692,312.70488 577.75093,311.87765 587.04187,307.97596 C 599.64812,302.68202 639.13077,277.24351 639.13077,277.24351 C 639.13077,277.24351 632.35922,278.02485 617.25343,273.33685 C 602.14765,268.64885 596.93877,262.65862 596.93877,262.65862 C 596.93877,262.65862 622.45601,261.2992 634.18232,255.36617 C 654.14641,245.26517 663.35211,235.83284 669.08189,226.45684 C 674.81167,217.08083 683.66678,188.1715 683.66678,188.1715 C 683.66678,188.1715 694.70338,231.68766 695.64723,251.98039 C 696.16812,263.17951 695.18329,272.69254 687.313,289.74485 C 679.49966,306.67374 658.40366,332.97863 658.40366,332.97863 L 662.57077,287.92174 C 662.57077,287.92174 657.36189,296.77685 649.28811,303.02752 C 639.23285,310.81224 620.11832,320.73774 602.92899,330.11374 M 376.79558,304.63904 C 385.63536,296.16759 404.90551,302.29323 415.83794,313.84714 C 422.10518,320.47066 423.20442,327.10681 423.20442,327.10681 C 423.20442,327.10681 429.14064,316.77232 434.62247,312.00552 C 443.09392,304.63904 467.77164,305.37569 474.40147,311.26888 C 479.21706,315.54941 485.08287,323.05524 485.08287,323.05524 C 485.08287,323.05524 487.64942,297.62494 494.6593,292.48434 C 500.18416,288.43278 512.33886,291.7477 524.12523,293.95764 C 535.9116,296.16759 543.27808,296.53591 543.27808,296.53591 C 543.27808,296.53591 550.26679,286.84687 558.01105,286.95948 C 567.61465,287.1061 576.79558,292.48435 576.79558,292.48435 L 557.64273,305.74401 C 557.64273,305.74401 561.69429,308.32228 576.42725,313.1105 C 581.96581,314.91053 608.83978,334.4733 617.31123,341.47145 C 625.78269,348.46961 630.93923,357.67772 630.93923,357.67772 L 611.78637,355.46777 C 611.78637,355.46777 613.62799,363.5709 614.73296,371.30571 C 615.61847,377.50429 615.83794,385.67035 615.83794,385.67035 C 615.83794,385.67035 629.83426,394.51013 629.83426,399.29834 C 629.83426,405.92818 613.4867,401.73 607.36648,407.7698 C 602.62394,412.45002 605.52486,424.7127 605.89318,431.34254 C 606.26151,437.97237 607.35558,447.50261 602.57827,448.65378 C 597.02115,449.99286 591.52855,434.65746 591.52855,434.65746 C 591.52855,434.65746 579.00552,450.49539 573.84899,453.81032 C 569.96688,456.30596 565.75965,469.83234 562.06262,469.64825 C 558.39459,469.4656 553.22284,460.07182 553.22284,460.07182 C 553.22284,460.07182 534.06998,461.91344 520.44199,463.38674 C 512.0196,464.29726 511.54853,457.91968 507.18232,453.81031 C 500.92081,447.91713 493.55432,450.86372 487.66115,446.81215 C 479.92302,441.49218 480.77525,434.19925 478.82136,425.08103 C 477.71639,419.9245 467.95614,408.51138 468.13996,398.19337 C 468.24503,392.29568 468.13997,376.83057 473.2965,372.04236 C 478.45304,367.25414 497.2836,353.48803 510.9116,347.59484" id="path3182" style="fill: rgb(249, 221, 22); fill-opacity: 1; fill-rule: nonzero; stroke: rgb(0, 0, 0); stroke-width: 3.5; stroke-linecap: round; stroke-linejoin: miter; marker-start: none; stroke-miterlimit: 5; stroke-dasharray: none; stroke-opacity: 1;"/>
  <path d="M 244.75138,272.77901 C 242.90976,285.67035 243.83057,304.63904 245.67219,316.05709" id="path4053" style="fill: none; fill-rule: evenodd; stroke: rgb(0, 0, 0); stroke-width: 3.5; stroke-linecap: round; stroke-linejoin: miter; stroke-miterlimit: 4; stroke-dasharray: none; stroke-opacity: 1;"/>
  <path d="M 411.91659,92.529031 C 411.91659,92.529031 400.21576,108.62741 400.21576,114.5206 C 400.21576,120.41379 409.40152,121.43322 409.40152,127.6277 C 409.40152,134.99419 401.55884,132.95914 401.55884,141.4306 C 401.55884,149.90205 409.29364,162.52912 407.82035,170.63225 C 406.34705,178.73538 395.53159,186.73064 383.3769,186.73064 C 371.2222,186.73064 368.06369,182.93951 357.38229,177.78298" id="path4055" style="fill: none; fill-rule: evenodd; stroke: rgb(0, 0, 0); stroke-width: 3.5; stroke-linecap: round; stroke-linejoin: miter; stroke-miterlimit: 4; stroke-dasharray: none; stroke-opacity: 1;"/>
  <path d="M 369.10355,112.26597 C 369.10355,112.26597 347.56775,108.25526 347.56775,108.25526 C 347.56775,108.25526 345.55491,121.90758 356.735,123.40123 C 364.74086,124.47081 369.10355,112.26597 369.10355,112.26597 z" id="path4059" style="fill: rgb(255, 255, 255); fill-opacity: 1; fill-rule: evenodd; stroke: rgb(0, 0, 0); stroke-width: 2; stroke-linecap: round; stroke-linejoin: round; stroke-miterlimit: 4; stroke-dasharray: none; stroke-opacity: 1;"/>
  <path d="M 379.00553,114.21547 C 379.00553,114.21547 351.82424,106.9141 339.35674,107.67309" id="path4057" style="fill: none; fill-rule: evenodd; stroke: rgb(0, 0, 0); stroke-width: 2; stroke-linecap: round; stroke-linejoin: miter; stroke-miterlimit: 4; stroke-dasharray: none; stroke-opacity: 1;"/>
  <path d="M 360.32449,115.88094 A 0.14300811,2.946593 0 1 1 360.36061,114.48636 L 360.22101,113.84715 z" transform="matrix(-39.0814, 0, 0, 1.83529, 14434.7, -93.8497)" id="path4061" style="fill: rgb(0, 0, 0); fill-opacity: 1; stroke: none; stroke-width: 2; stroke-linecap: round; stroke-linejoin: round; stroke-miterlimit: 4; stroke-dasharray: none; stroke-opacity: 1;"/>
  <path d="M 285.12892,290.36648 C 278.38398,300.74862 281.67588,316.24125 280.1105,318.63536 C 274.88145,326.63273 270.44199,332.90792 259.94475,339.99816" id="path2397" style="fill: none; fill-rule: evenodd; stroke: rgb(0, 0, 0); stroke-width: 3.5; stroke-linecap: round; stroke-linejoin: miter; stroke-miterlimit: 4; stroke-dasharray: none; stroke-opacity: 1;"/>
  <path d="M 337.3849,327.47514 C 337.3849,327.47514 335.24458,347.40394 330.47882,350.58747 C 320.87238,357.00459 290.14733,353.99447 277.99263,370.75322" id="path3169" style="fill: none; fill-rule: evenodd; stroke: rgb(0, 0, 0); stroke-width: 3.5; stroke-linecap: round; stroke-linejoin: miter; stroke-miterlimit: 4; stroke-dasharray: none; stroke-opacity: 1;"/>
  <path d="M 370.90239,253.44199 C 370.90239,253.44199 395.21179,258.96685 409.2081,259.7035 C 423.20442,260.44015 426.88766,259.33517 434.99079,254.54696 C 443.09392,249.75874 456.72191,237.97237 464.45672,228.02763 C 471.36015,219.1518 486.92449,178.30386 497.23757,168.72744 C 507.55064,159.15101 518.22401,150.46833 534.80663,149.94291 C 548.99358,149.49339 566.07719,152.90878 580.1105,151.4162 C 619.43549,147.27278 650.82873,127.84346 650.82873,127.84346" id="path3196" style="fill: none; fill-rule: evenodd; stroke: rgb(0, 0, 0); stroke-width: 3.5; stroke-linecap: round; stroke-linejoin: round; stroke-miterlimit: 4; stroke-dasharray: none; stroke-opacity: 1;"/>
  <path d="M 493.92265,176.46225 C 493.92265,176.46225 516.39971,173.94871 543.64641,173.14733 C 555.8011,172.779 563.16758,173.88398 574.58564,177.56722 C 589.32905,182.32315 599.63168,186.77532 599.63168,186.77532" id="path3194" style="fill: none; fill-rule: evenodd; stroke: rgb(0, 0, 0); stroke-width: 3.5; stroke-linecap: round; stroke-linejoin: round; stroke-miterlimit: 4; stroke-dasharray: none; stroke-opacity: 1;"/>
  <path d="M 476.24309,208.50645 C 476.24309,208.50645 482.49817,203.84376 505.70903,203.34991 C 522.65194,202.98159 536.92415,206.8883 548.43462,211.82136 C 561.32597,217.34623 568.69245,222.13444 570.90239,230.23757" id="path3192" style="fill: none; fill-rule: evenodd; stroke: rgb(0, 0, 0); stroke-width: 3.5; stroke-linecap: round; stroke-linejoin: round; stroke-miterlimit: 4; stroke-dasharray: none; stroke-opacity: 1;"/>
  <path d="M 465.56169,229.1326 C 465.56169,229.1326 481.75054,230.10899 495.39595,234.65746 C 509.76059,239.44568 516.75874,242.76059 521.54696,247.91713 C 527.87248,254.72923 526.33517,255.28361 526.33517,255.28361" id="path3190" style="fill: none; fill-rule: evenodd; stroke: rgb(0, 0, 0); stroke-width: 3.5; stroke-linecap: round; stroke-linejoin: round; stroke-miterlimit: 4; stroke-dasharray: none; stroke-opacity: 1;"/>
  <path d="M 451.19705,244.97053 C 451.19705,244.97053 464.82505,256.75691 470.34991,266.70166 C 475.87477,276.64641 482.13628,301.69245 485.08287,323.05525" id="path3188" style="fill: none; fill-rule: evenodd; stroke: rgb(0, 0, 0); stroke-width: 3.5; stroke-linecap: round; stroke-linejoin: round; stroke-miterlimit: 4; stroke-dasharray: none; stroke-opacity: 1;"/>
  <path d="M 429.83425,258.96685 C 429.83425,258.96685 433.5175,267.80663 433.5175,279.22468 C 433.5175,290.64273 427.99264,309.05893 423.94107,323.42357" id="path4011" style="fill: none; fill-rule: evenodd; stroke: rgb(0, 0, 0); stroke-width: 3.5; stroke-linecap: round; stroke-linejoin: round; stroke-miterlimit: 4; stroke-dasharray: none; stroke-opacity: 1;"/>
</svg>