<?xml version="1.0" encoding="UTF-8" standalone="no"?>
<svg
   xmlns:dc="http://purl.org/dc/elements/1.1/"
   xmlns:cc="http://creativecommons.org/ns#"
   xmlns:rdf="http://www.w3.org/1999/02/22-rdf-syntax-ns#"
   xmlns:svg="http://www.w3.org/2000/svg"
   xmlns="http://www.w3.org/2000/svg"
   xmlns:sodipodi="http://sodipodi.sourceforge.net/DTD/sodipodi-0.dtd"
   xmlns:inkscape="http://www.inkscape.org/namespaces/inkscape"
   version="1.0"
   width="900.00006"
   height="600"
   viewBox="0 0 250.00002 250"
   id="svg2"
   inkscape:version="0.91 r13725"
   sodipodi:docname="Flag of the Kingdom of Champasak (1713-1947).svg">
  <metadata
     id="metadata70">
    <rdf:RDF>
      <cc:Work
         rdf:about="">
        <dc:format>image/svg+xml</dc:format>
        <dc:type
           rdf:resource="http://purl.org/dc/dcmitype/StillImage" />
        <dc:title></dc:title>
      </cc:Work>
    </rdf:RDF>
  </metadata>
  <defs
     id="defs68" />
  <sodipodi:namedview
     pagecolor="#ffffff"
     bordercolor="#666666"
     borderopacity="1"
     objecttolerance="10"
     gridtolerance="10"
     guidetolerance="10"
     inkscape:pageopacity="0"
     inkscape:pageshadow="2"
     inkscape:window-width="1366"
     inkscape:window-height="656"
     id="namedview66"
     showgrid="false"
     inkscape:zoom="0.75666667"
     inkscape:cx="450.00003"
     inkscape:cy="300"
     inkscape:window-x="0"
     inkscape:window-y="1"
     inkscape:window-maximized="1"
     inkscape:current-layer="layer1"
     fit-margin-top="0"
     fit-margin-left="0"
     fit-margin-right="0"
     fit-margin-bottom="0" />
  <g
     inkscape:groupmode="layer"
     id="layer1"
     inkscape:label="Flag"
     transform="translate(6.298224e-6,-2.6623411e-6)">
    <g
       id="g4685">
      <rect
         y="2.6623411e-06"
         x="-62.500004"
         height="249.99998"
         width="375"
         id="rect4683"
         style="fill:#002868;fill-opacity:1;stroke:none;stroke-width:0.54166663;stroke-linejoin:round;stroke-miterlimit:4;stroke-dasharray:none;stroke-opacity:1" />
      <g
         transform="translate(0.4513155,0.72778379)"
         id="g4628">
        <path
           style="fill:#ffffff;fill-rule:evenodd;stroke:#000000;stroke-width:0.54166663;stroke-linecap:butt;stroke-linejoin:miter;stroke-miterlimit:4;stroke-dasharray:none;stroke-opacity:1"
           d="m 127.00493,166.16371 c 0,0 0.95096,1.72064 2.26991,3.78717 0.66235,1.03777 2.00526,2.29338 2.1839,3.19918 0.28616,1.45094 0.0617,3.15466 -0.78597,4.36648 -0.23181,0.33137 -0.76794,0.31952 -1.04795,0.6113 -0.3877,0.404 -0.42222,1.05891 -0.78597,1.4846 -0.37821,0.44262 -0.86657,0.80856 -1.39727,1.04796 -0.78581,0.35447 -1.84535,0.003 -2.53255,0.52398 -0.70575,0.53455 -1.17931,1.47361 -1.22261,2.35789 -0.0307,0.62629 0.69863,1.74659 0.69863,1.74659 l 9.7809,0.26199 c 0,0 0.32556,-1.66913 0.78596,-2.3579 0.6422,-0.96076 1.88953,-1.37499 2.61989,-2.27057 1.2026,-1.47465 2.35813,-3.12564 2.79454,-4.97777 0.27405,-1.16307 -0.38038,-2.40343 -0.17466,-3.58051 0.19545,-1.11833 1.30994,-3.14386 1.30994,-3.14386 l -4.27914,-4.71579 -6.02573,-1.30994 z"
           id="path4592"
           inkscape:connector-curvature="0"
           sodipodi:nodetypes="cssssssssccsssscccc" />
        <path
           style="fill:#ffffff;fill-rule:evenodd;stroke:#000000;stroke-width:0.54166663;stroke-linecap:butt;stroke-linejoin:miter;stroke-miterlimit:4;stroke-dasharray:none;stroke-opacity:1"
           d="m 88.492642,185.20153 6.462379,0.0873 c 0,0 0.299573,-1.36888 0.698637,-1.92125 0.412668,-0.5712 0.998513,-1.06503 1.659258,-1.30994 0.655652,-0.24302 0.844198,-0.35171 1.309944,-0.87327 0.816423,-0.91425 0.245189,-1.68827 0.523977,-2.88187 0.222566,-0.95289 0.812949,-1.82092 1.484603,-2.53255 1.44081,-1.52658 3.89945,-1.87765 5.23976,-3.49318 0.94939,-1.14433 1.74659,-4.10449 1.74659,-4.10449 l -4.36647,-4.36647 c 0,0 -4.125233,2.30429 -5.676414,4.27915 -1.713123,2.18103 -1.787315,5.58561 -3.493181,7.77232 -0.437116,0.56033 -1.29836,0.67113 -1.746588,1.22261 -0.279653,0.34407 -0.158978,0.97088 -0.523975,1.22261 -0.575618,0.39699 -0.752784,0.68934 -1.397272,0.96059 -1.252726,0.52723 -3.128756,1.02291 -3.66784,2.27058 -0.265555,0.61461 -0.234519,1.38146 0,2.00857 0.310788,0.83105 1.746592,1.65929 1.746592,1.65929 z"
           id="path4590"
           inkscape:connector-curvature="0"
           sodipodi:nodetypes="ccssssssccsssssssc" />
        <path
           sodipodi:nodetypes="cscscc"
           inkscape:connector-curvature="0"
           id="path4409"
           d="m 121.78957,45.280327 c 0,0 1.55327,-0.729926 1.66452,-2.561666 0.13317,-2.192637 -2.50209,-5.249812 -2.50209,-5.249812 0,0 -2.63526,3.057175 -2.50209,5.249812 0.11125,1.83174 1.66452,2.561666 1.66452,2.561666 z"
           style="fill:#f9f9f9;fill-rule:evenodd;stroke:#000000;stroke-width:0.54166663;stroke-linecap:butt;stroke-linejoin:miter;stroke-miterlimit:4;stroke-dasharray:none;stroke-opacity:1" />
        <path
           style="fill:#ffffff;fill-opacity:1;stroke:#000000;stroke-width:0.54166663;stroke-linejoin:round;stroke-miterlimit:4;stroke-dasharray:none;stroke-opacity:1"
           d="m 116.71456,55.064864 0,-10.074561 c 0,-0.682393 1.90351,-1.235582 4.2663,-1.235582 2.36279,0 4.20858,0.553189 4.20858,1.235582 l 0,10.074561"
           id="ellipse4400"
           inkscape:connector-curvature="0"
           sodipodi:nodetypes="csccc" />
        <path
           style="fill:#ffffff;fill-opacity:1;stroke:#000000;stroke-width:0.54166663;stroke-linejoin:round;stroke-miterlimit:4;stroke-dasharray:none;stroke-opacity:1"
           d="m 116.13973,62.933613 0,-9.485653 c 0,-0.748629 2.30145,-1.355513 4.89358,-1.355513 2.59213,-10e-7 4.73097,0.606883 4.73097,1.355513 l 0,9.485653"
           id="ellipse4398"
           inkscape:connector-curvature="0"
           sodipodi:nodetypes="csccc" />
        <path
           style="fill:#ffffff;fill-opacity:1;stroke:#000000;stroke-width:0.54166663;stroke-linejoin:round;stroke-miterlimit:4;stroke-dasharray:none;stroke-opacity:1"
           d="m 113.89669,70.802361 0,-8.306149 c 0,-1.129487 3.22577,-2.045118 7.13662,-2.045118 3.91085,0 6.97401,0.915631 6.97401,2.045118 l 0,8.096316"
           id="ellipse4396"
           inkscape:connector-curvature="0"
           sodipodi:nodetypes="csccc" />
        <path
           style="fill:#ffffff;fill-opacity:1;stroke:#000000;stroke-width:0.54166663;stroke-linejoin:round;stroke-miterlimit:4;stroke-dasharray:none;stroke-opacity:1"
           d="m 110.81761,79.615359 0,-8.513865 c 0,-1.609699 4.64211,-2.914621 10.2157,-2.914621 5.57359,-1e-6 10.05308,1.30492 10.05308,2.914621 l 0,8.513865"
           id="ellipse4392"
           inkscape:connector-curvature="0"
           sodipodi:nodetypes="csccc" />
        <path
           style="fill:#ffffff;fill-opacity:1;stroke:#000000;stroke-width:0.54166663;stroke-linejoin:round;stroke-miterlimit:4;stroke-dasharray:none;stroke-opacity:1"
           d="m 107.21574,88.533274 0,-7.740671 c 0,-2.189266 6.13382,-3.964019 13.71416,-3.96402 7.58034,0 13.75837,1.774752 13.75837,3.96402 l 0,7.740671"
           id="ellipse4394"
           inkscape:connector-curvature="0"
           sodipodi:nodetypes="csccc" />
        <path
           style="fill:#ffffff;fill-rule:evenodd;stroke:#000000;stroke-width:0.54166663;stroke-linecap:butt;stroke-linejoin:miter;stroke-miterlimit:4;stroke-dasharray:none;stroke-opacity:1"
           d="m 138.09491,103.27972 0,-12.374993 c 0,-3.133984 -6.29443,-5.673891 -17.14291,-5.67389 -10.84847,1e-6 -17.1429,2.539907 -17.1429,5.67389 l 0,12.374993"
           id="path4388"
           inkscape:connector-curvature="0"
           sodipodi:nodetypes="ccscc" />
        <path
           sodipodi:nodetypes="ccscc"
           inkscape:connector-curvature="0"
           id="path4547"
           d="m 140.59491,112.44635 0,-12.37496 c 0,-3.133984 -8.79443,-5.673891 -19.64291,-5.67389 -10.84847,1e-6 -19.6429,2.539907 -19.6429,5.67389 l 0,12.37496"
           style="fill:#ffffff;fill-rule:evenodd;stroke:#000000;stroke-width:0.54166663;stroke-linecap:butt;stroke-linejoin:miter;stroke-miterlimit:4;stroke-dasharray:none;stroke-opacity:1" />
        <path
           id="path4343"
           style="fill:#ffffff;fill-opacity:1;stroke:#000000;stroke-width:0.54166663;stroke-linejoin:round;stroke-miterlimit:4;stroke-dasharray:none;stroke-opacity:1"
           d="m 139.3428,98.06921 0,12.37496 m -1.74336,-13.351241 0,12.374961 m -2.37097,-13.281507 0,12.374967 m -3.34725,-13.142045 0,12.374965 m -3.34725,-13.002574 0,12.374964 m -3.47279,-12.723636 0,12.374966 m -22.49998,-8.74878 0,12.37496 m 1.74335,-13.351241 0,12.374961 m 2.37097,-13.281507 0,12.374967 m 3.34726,-13.142045 0,12.374965 m 3.34725,-13.002574 0,12.374964 m 3.47278,-12.723636 0,12.374966 m 4.10919,-12.374966 0,12.374966"
           inkscape:connector-curvature="0" />
        <ellipse
           style="fill:#ffffff;fill-opacity:1;stroke:#000000;stroke-width:0.54166663;stroke-linejoin:round;stroke-miterlimit:4;stroke-dasharray:none;stroke-opacity:1"
           id="path4540"
           cx="120.952"
           cy="112.57055"
           rx="19.642906"
           ry="5.6730418" />
        <path
           style="fill:#ffffff;fill-opacity:1;stroke:#000000;stroke-width:0.54166663;stroke-linejoin:round;stroke-miterlimit:4;stroke-dasharray:none;stroke-opacity:1"
           d="m 120.95241,106.89778 c -0.74903,0 -1.4855,0.0147 -2.21273,0.0383 l 0,26.73909 4.42464,0 0,-26.73909 c -0.72698,-0.0236 -1.46313,-0.0383 -2.21191,-0.0383 z"
           id="rect4560"
           inkscape:connector-curvature="0" />
        <path
           sodipodi:nodetypes="csscscccccc"
           inkscape:connector-curvature="0"
           id="path4558"
           d="m 114.57304,151.82232 c -3.63537,-4.40488 -6.96487,-18.02202 -1.92543,-21.91466 2.91637,-2.25272 4.73239,-2.66162 7.7535,-4.77179 8.94235,-6.24602 12.5482,-13.5404 12.5482,-13.5404 2.2804,3.69937 -0.13985,11.81994 -5.46454,15.5677 -0.38443,0.27059 -0.65633,0.76653 -0.81483,1.40083 2.59693,-1.76939 2.47322,-0.34681 5.96014,-3.04694 0.46024,8.69595 -8.84937,9.05355 -9.77258,13.09262 2.95692,-2.76047 5.62075,-1.12517 8.52632,-3.7702 -0.13145,4.91951 -4.19498,6.75944 -6.70467,9.26299 z"
           style="fill:#ffffff;fill-rule:evenodd;stroke:#000000;stroke-width:0.54166663;stroke-linecap:butt;stroke-linejoin:miter;stroke-miterlimit:4;stroke-dasharray:none;stroke-opacity:1" />
        <path
           style="fill:#ffffff;fill-rule:evenodd;stroke:#000000;stroke-width:0.54166663;stroke-linecap:butt;stroke-linejoin:miter;stroke-miterlimit:4;stroke-dasharray:none;stroke-opacity:1"
           d="m 101.86375,185.03657 c -0.84188,-0.88311 -0.55733,-2.64743 0.12614,-3.65813 1.10729,-1.63743 3.97197,-1.05563 5.42413,-2.39671 1.29922,-1.19984 2.08914,-2.95278 2.52286,-4.66727 0.24749,-0.97832 0.12099,-2.02556 0,-3.02742 -0.0815,-0.67445 -0.48517,-1.97947 -0.48517,-1.97947 0,0 -2.86608,0.31058 -4.16271,-0.32021 -2.45173,-1.19275 -4.09957,-3.17767 -4.96322,-5.76374 -0.880519,-2.63661 0.33128,-5.88568 0,-8.64562 -0.23941,-1.99462 -1.761141,-5.76375 -1.761141,-5.76375 l 8.165311,-6.24405 c 2.64354,2.02677 6.17711,3.46018 7.68498,6.24406 0.65377,-6.40925 1.2628,-11.7387 6.88448,-14.72957 3.25332,-1.73085 8.35496,-1.78945 11.68759,-3.36219 9.86443,-4.65524 14.64427,-11.24032 14.64427,-11.24032 1.62663,4.02985 -2.12323,11.62852 -8.00178,14.42865 -0.42442,0.20217 -0.77576,0.64539 -1.03855,1.24407 2.85723,-1.30806 4.18664,0.19052 8.07755,-1.88555 -1.00694,8.64971 -10.24434,7.4385 -11.83288,11.26512 3.37859,-2.22458 5.72989,-0.16508 9.03846,-2.28448 -0.95591,4.82753 -5.27076,5.95877 -8.1653,8.0052 2.75414,1.14576 7.09119,-0.85552 10.72697,0.64042 0,0 1.07589,-1.48485 1.21776,-3.07109 0.21095,-2.35872 -1.5065,-3.68234 -0.63071,-8.57769 0.4558,-2.54778 2.97261,-4.53994 5.29798,-5.67642 2.5412,-1.24196 6.10425,-1.49301 8.70385,-0.37842 3.60313,1.54486 4.69907,3.21531 5.92869,6.93783 1.58346,4.79375 -0.2903,12.06547 0.63071,17.02925 0.43311,2.33426 2.14443,6.18098 2.14443,6.18098 0,0 -2.79853,-0.36421 -4.16271,-1.63985 -5.52836,-5.16955 -3.35162,-11.34041 -5.0457,-16.14625 -0.33665,-0.95503 -1.13179,-1.89466 -2.14442,-1.89213 -1.40025,0.003 -2.07658,1.49723 -2.649,2.77513 -0.57139,1.2756 -0.6212,2.86767 -1.38757,4.03657 -1.22968,1.87558 -4.91955,3.53199 -4.91955,3.53199 0,0 1.93915,4.38914 1.89213,6.68555 -0.047,2.29371 -1.24805,4.45059 -1.76599,6.68556 -0.23732,1.02405 -0.43437,1.31331 0,2.27056 0.92348,2.03513 3.02135,2.19512 3.2797,4.41499 0.16725,1.43713 -0.62566,2.17789 -1.13528,3.53199 -0.44654,1.18647 0.0146,2.81926 -0.63072,3.91042 -0.4156,0.70272 -1.34428,0.56236 -1.76599,1.26143 -0.37177,0.61628 -0.25228,2.14442 -0.25228,2.14442 l -8.82998,0 c -1.68091,-4.45238 1.14192,-3.75867 4.79342,-5.55027 0.802,-0.42922 0.6631,-0.37878 0.883,-1.26143 0.30646,-1.23011 0.29432,-1.95293 -0.37843,-3.02741 -1.02182,-1.63198 -1.45187,-3.19041 -4.66728,-4.28885 -3.09113,-1.05599 -5.62599,-2.70875 -7.56855,-5.29799 -2.79651,2.44964 -10.73578,3.45238 -14.36652,3.29172 0,0 -1.79664,3.52913 -2.53658,6.29511 -0.30426,1.13734 -0.74417,3.35738 -1.26143,4.41499 -0.21063,0.43067 -0.87048,0.48335 -1.13528,0.883 -0.36055,0.54414 -0.0471,1.42651 -0.50457,1.89214 -0.42906,0.43672 -1.36022,0.0461 -1.766,0.50457 -0.53607,0.60563 0.23995,1.8754 -0.37843,2.39671 z"
           id="path4546"
           inkscape:connector-curvature="0"
           sodipodi:nodetypes="cssssccssccssscsccccccsssssscssssscssssssscccsssccssssscc" />
        <path
           style="fill:#ffffff;fill-rule:evenodd;stroke:#000000;stroke-width:0.54166663;stroke-linecap:butt;stroke-linejoin:miter;stroke-miterlimit:4;stroke-dasharray:none;stroke-opacity:1"
           d="m 89.103946,151.49236 c -0.68973,1.38823 5.384354,5.3622 8.470958,2.53255 l -2.794542,-4.71579 -2.532554,-0.43665 z"
           id="path4509"
           inkscape:connector-curvature="0"
           sodipodi:nodetypes="ccccc" />
        <path
           style="fill:#ffffff;fill-rule:evenodd;stroke:#000000;stroke-width:0.54166663;stroke-linecap:butt;stroke-linejoin:miter;stroke-miterlimit:4;stroke-dasharray:none;stroke-opacity:1"
           d="m 87.532018,150.53173 c 0,0 -0.236229,-0.868 -0.04895,-1.67068 0.234103,-1.00335 0.447678,-2.31401 0.223606,-3.13243 -0.186081,-0.67966 -0.628086,-0.99863 -0.873294,-1.65927 -0.476512,-1.28382 -0.699288,-2.83956 -0.174659,-4.10448 0.544637,-1.31316 2.707211,-2.88188 2.707211,-2.88188 0,0 -0.65754,-0.10332 -0.96062,0 -1.217951,0.41519 -1.854157,1.89956 -3.056534,2.3579 -0.763556,0.29106 -2.445224,0.17466 -2.445224,0.17466 0,0 0.62167,-1.6528 1.135283,-2.35789 0.96986,-1.33142 2.120751,-2.64268 3.580508,-3.40585 0.895495,-0.46817 2.073566,-1.07921 2.9692,-0.61131 0.589485,0.30796 0.834728,1.17063 0.785967,1.83392 -0.03258,0.44315 -0.698634,1.13528 -0.698634,1.13528 2.768892,-1.82209 9.321223,-0.93595 9.999222,1.51371 0,0 0.55273,-1.88593 1.6156,-2.56166 1.31672,-0.83713 3.09005,-0.95909 4.62846,-0.69864 1.78457,0.30212 3.38915,0.95144 4.62846,2.27057 1.31142,1.39588 1.22443,3.84078 2.53255,5.23976 1.01397,1.0844 3.92983,2.09591 3.92983,2.09591 0,0 -2.38307,2.06008 -3.8425,2.53256 -1.27516,0.41282 -2.69303,0.38241 -4.01715,0.17466 -0.82801,-0.12991 -2.3579,-0.8733 -2.3579,-0.8733 0,0 -1.79202,3.30529 -3.40585,4.19182 -1.07914,0.59281 -2.45091,0.0711 -3.49317,0.78596 -0.988637,0.67806 -1.214437,2.11404 -2.008584,2.88187 -0.589326,0.5698 -1.659259,0.69864 -1.659259,0.69864 0,0 -1.443016,-3.2114 -2.969202,-4.10448 -0.402773,-0.23569 -1.309942,-0.43662 -1.309942,-0.43662 z"
           id="path4507"
           inkscape:connector-curvature="0"
           sodipodi:nodetypes="csssscsscssssccsssscsscssscscc" />
        <path
           style="fill:#ffffff;fill-rule:evenodd;stroke:#000000;stroke-width:0.54166663;stroke-linecap:butt;stroke-linejoin:miter;stroke-miterlimit:4;stroke-dasharray:none;stroke-opacity:1"
           d="m 89.715254,152.88963 c -1.062685,-0.97045 -2.564575,-2.06159 -2.445225,-2.70722 0,0 0.38685,-1.17963 0.873292,-1.4846 0.91555,-0.57399 2.216943,-0.6348 3.231192,-0.26198 0.618236,0.22725 1.39727,1.39727 1.39727,1.39727 -0.332333,1.51145 -2.323598,2.87733 -3.056529,3.05653 z"
           id="path4505"
           inkscape:connector-curvature="0"
           sodipodi:nodetypes="ccsscc" />
        <g
           style="stroke-width:0.54166663;stroke-miterlimit:4;stroke-dasharray:none"
           id="g4517">
          <path
             sodipodi:nodetypes="ccc"
             inkscape:connector-curvature="0"
             id="path4511"
             d="m 97.312916,145.64128 c -0.936377,-2.45737 0.0955,-3.6222 1.92125,-4.36647 0.983724,1.26063 1.486894,4.07213 -1.92125,4.36647 z"
             style="fill:none;fill-rule:evenodd;stroke:#000000;stroke-width:0.54166663;stroke-linecap:butt;stroke-linejoin:miter;stroke-miterlimit:4;stroke-dasharray:none;stroke-opacity:1" />
          <ellipse
             ry="1.2452902"
             rx="1.2675275"
             cy="144.04591"
             cx="98.255554"
             id="path4513"
             style="fill:#000000;fill-opacity:1;stroke:none;stroke-width:0.54166663;stroke-linejoin:round;stroke-miterlimit:4;stroke-dasharray:none;stroke-opacity:1" />
          <ellipse
             style="fill:#ffffff;fill-opacity:1;stroke:none;stroke-width:0.54166663;stroke-linejoin:round;stroke-miterlimit:4;stroke-dasharray:none;stroke-opacity:1"
             id="ellipse4515"
             cx="97.851418"
             cy="144.24797"
             rx="0.27554941"
             ry="0.27168208" />
        </g>
        <g
           style="stroke-width:0.60082942;stroke-miterlimit:4;stroke-dasharray:none"
           id="g4522"
           transform="matrix(-0.89388648,-0.117158,-0.117158,0.89388648,193.3375,25.622119)">
          <path
             style="fill:none;fill-rule:evenodd;stroke:#000000;stroke-width:0.60082942;stroke-linecap:butt;stroke-linejoin:miter;stroke-miterlimit:4;stroke-dasharray:none;stroke-opacity:1"
             d="m 97.312916,145.64128 c -0.936377,-2.45737 0.0955,-3.6222 1.92125,-4.36647 0.983724,1.26063 1.486894,4.07213 -1.92125,4.36647 z"
             id="path4524"
             inkscape:connector-curvature="0"
             sodipodi:nodetypes="ccc" />
          <ellipse
             style="fill:#000000;fill-opacity:1;stroke:none;stroke-width:0.60082942;stroke-linejoin:round;stroke-miterlimit:4;stroke-dasharray:none;stroke-opacity:1"
             id="ellipse4526"
             cx="98.255554"
             cy="144.04591"
             rx="1.2675275"
             ry="1.2452902" />
          <ellipse
             ry="0.27168208"
             rx="0.27554941"
             cy="144.24797"
             cx="97.851418"
             id="ellipse4528"
             style="fill:#ffffff;fill-opacity:1;stroke:none;stroke-width:0.60082942;stroke-linejoin:round;stroke-miterlimit:4;stroke-dasharray:none;stroke-opacity:1" />
        </g>
        <path
           style="fill:none;fill-rule:evenodd;stroke:#000000;stroke-width:0.54166663;stroke-linecap:butt;stroke-linejoin:miter;stroke-miterlimit:4;stroke-dasharray:none;stroke-opacity:1"
           d="m 104.04577,140.35057 c 0.0939,2.60215 1.60968,3.99088 3.69938,5.47507"
           id="path4530"
           inkscape:connector-curvature="0"
           sodipodi:nodetypes="cc" />
        <path
           style="fill:none;fill-rule:evenodd;stroke:#000000;stroke-width:0.54166663;stroke-linecap:butt;stroke-linejoin:miter;stroke-miterlimit:4;stroke-dasharray:none;stroke-opacity:1"
           d="m 133.31101,165.50937 c -1.46784,-2.65176 -1.70192,-5.46874 -1.55147,-8.47644"
           id="path4550"
           inkscape:connector-curvature="0"
           sodipodi:nodetypes="cc" />
        <path
           style="fill:none;fill-rule:evenodd;stroke:#000000;stroke-width:0.54166663;stroke-linecap:butt;stroke-linejoin:miter;stroke-miterlimit:4;stroke-dasharray:none;stroke-opacity:1"
           d="m 118.89471,168.8766 c 0.88594,-2.43632 0.64914,-4.19933 0.629,-5.03198 -0.0193,-0.79756 0.68521,-1.47599 0.75686,-2.27056 0.0801,-0.88836 -0.37843,-2.649 -0.37843,-2.649"
           id="path4552"
           inkscape:connector-curvature="0"
           sodipodi:nodetypes="cssc" />
        <path
           style="fill:none;fill-rule:evenodd;stroke:#000000;stroke-width:0.54166663;stroke-linecap:butt;stroke-linejoin:miter;stroke-miterlimit:4;stroke-dasharray:none;stroke-opacity:1"
           d="m 109.49494,169.31853 c 0,0 -1.04705,-2.93466 -1.57634,-4.21248 -0.37426,-0.90355 -0.44178,-0.97766 -0.65732,-1.93161 -0.23167,-1.02534 -0.44587,-2.20162 0,-3.15357 0.27859,-0.59479 0.63101,-1.38401 0.9096,-1.9788 0.39236,-0.83771 0,-2.77514 0,-2.77514"
           id="path4554"
           inkscape:connector-curvature="0"
           sodipodi:nodetypes="cssssc" />
        <path
           style="fill:none;fill-rule:evenodd;stroke:#000000;stroke-width:0.54166663;stroke-linecap:butt;stroke-linejoin:miter;stroke-miterlimit:4;stroke-dasharray:none;stroke-opacity:1"
           d="m 136.13915,149.9542 c -4.59172,3.34807 -9.84198,3.75123 -15.48016,3.91667"
           id="path4556"
           inkscape:connector-curvature="0"
           sodipodi:nodetypes="cc" />
        <path
           style="fill:#ffffff;fill-opacity:1;stroke:#000000;stroke-width:0.54166663;stroke-linejoin:round;stroke-miterlimit:4;stroke-dasharray:none;stroke-opacity:1"
           d="m 98.856719,193.6403 -6.511225,-4.35113 -2.716455,0 -10.43291,0 0,-4.61809 41.669991,0 41.67,0 0,4.61809 -10.43291,0 -2.71646,0 -6.51122,4.35113 -22.00941,0 z"
           id="rect4538"
           inkscape:connector-curvature="0"
           sodipodi:nodetypes="ccccccccccccc" />
        <g
           id="g4458"
           transform="translate(-0.4264555,0)"
           style="fill:#ffffff;stroke-width:0.54166663;stroke-miterlimit:4;stroke-dasharray:none">
          <g
             id="g4430"
             style="fill:#ffffff;stroke-width:0.54166663;stroke-miterlimit:4;stroke-dasharray:none">
            <g
               id="g4422"
               transform="matrix(0.99903306,0.04396527,0.04396527,-0.99903306,-8.3411134,389.25754)"
               style="fill:#ffffff;stroke-width:0.54166663;stroke-miterlimit:4;stroke-dasharray:none">
              <path
                 style="fill:#ffffff;fill-rule:evenodd;stroke:#000000;stroke-width:0.54166663;stroke-linecap:butt;stroke-linejoin:miter;stroke-miterlimit:4;stroke-dasharray:none;stroke-opacity:1"
                 d="m 105.21268,197.86915 c 0,0 -1.98542,-4.49499 -3.99047,-6.02816 -5.394133,-3.68253 -9.147992,-1.74693 -11.462011,-5.34893 -0.35251,8.64413 8.125591,12.37811 15.452481,11.37709 z"
                 id="path4424"
                 inkscape:connector-curvature="0"
                 sodipodi:nodetypes="cccc" />
              <path
                 sodipodi:nodetypes="cccc"
                 inkscape:connector-curvature="0"
                 id="path4426"
                 d="m 112.71267,197.86915 c 0,0 -1.98542,-4.49499 -3.99047,-6.02816 -5.39413,-3.68253 -9.147983,-1.74693 -11.462002,-5.34893 -0.35251,8.64413 8.125582,12.37811 15.452472,11.37709 z"
                 style="fill:#ffffff;fill-rule:evenodd;stroke:#000000;stroke-width:0.54166663;stroke-linecap:butt;stroke-linejoin:miter;stroke-miterlimit:4;stroke-dasharray:none;stroke-opacity:1" />
              <path
                 style="fill:#ffffff;fill-rule:evenodd;stroke:#000000;stroke-width:0.54166663;stroke-linecap:butt;stroke-linejoin:miter;stroke-miterlimit:4;stroke-dasharray:none;stroke-opacity:1"
                 d="m 120.21264,197.86915 c 0,0 -1.98542,-4.49499 -3.99047,-6.02816 -5.39413,-3.68253 -9.14798,-1.74693 -11.46199,-5.34893 -0.35251,8.64413 8.12557,12.37811 15.45246,11.37709 z"
                 id="path4428"
                 inkscape:connector-curvature="0"
                 sodipodi:nodetypes="cccc" />
            </g>
            <g
               id="g4417"
               style="fill:#ffffff;stroke-width:0.54166663;stroke-miterlimit:4;stroke-dasharray:none">
              <path
                 sodipodi:nodetypes="cccc"
                 inkscape:connector-curvature="0"
                 id="path4415"
                 d="m 105.6372,197.27482 c 0,0 -2.40994,-3.90066 -4.41499,-5.43383 -5.394133,-3.68253 -9.147992,-1.74693 -11.462011,-5.34893 -0.35251,8.64413 7.87088,12.71772 15.877001,10.78276 z"
                 style="fill:#ffffff;fill-rule:evenodd;stroke:#000000;stroke-width:0.54166663;stroke-linecap:butt;stroke-linejoin:miter;stroke-miterlimit:4;stroke-dasharray:none;stroke-opacity:1" />
              <path
                 style="fill:#ffffff;fill-rule:evenodd;stroke:#000000;stroke-width:0.54166663;stroke-linecap:butt;stroke-linejoin:miter;stroke-miterlimit:4;stroke-dasharray:none;stroke-opacity:1"
                 d="m 113.307,197.44463 c 0,0 -2.57975,-4.07047 -4.5848,-5.60364 -5.39413,-3.68253 -9.147983,-1.74693 -11.462002,-5.34893 -0.35251,8.64413 8.210482,12.63282 16.046802,10.95257 z"
                 id="path4413"
                 inkscape:connector-curvature="0"
                 sodipodi:nodetypes="cccc" />
              <path
                 sodipodi:nodetypes="cccc"
                 inkscape:connector-curvature="0"
                 id="path4411"
                 d="m 120.21264,197.86915 c 0,0 -1.98542,-4.49499 -3.99047,-6.02816 -5.39413,-3.68253 -9.14798,-1.74693 -11.46199,-5.34893 -0.35251,8.64413 8.12557,12.37811 15.45246,11.37709 z"
                 style="fill:#ffffff;fill-rule:evenodd;stroke:#000000;stroke-width:0.54166663;stroke-linecap:butt;stroke-linejoin:miter;stroke-miterlimit:4;stroke-dasharray:none;stroke-opacity:1" />
            </g>
          </g>
          <g
             transform="matrix(-1,0,0,1,242.58516,0)"
             id="g4440"
             style="fill:#ffffff;stroke-width:0.54166663;stroke-miterlimit:4;stroke-dasharray:none">
            <g
               transform="matrix(0.99903306,0.04396527,0.04396527,-0.99903306,-8.3411134,389.25754)"
               id="g4442"
               style="fill:#ffffff;stroke-width:0.54166663;stroke-miterlimit:4;stroke-dasharray:none">
              <path
                 sodipodi:nodetypes="cccc"
                 inkscape:connector-curvature="0"
                 id="path4444"
                 d="m 105.21268,197.86915 c 0,0 -1.98542,-4.49499 -3.99047,-6.02816 -5.394133,-3.68253 -9.147992,-1.74693 -11.462011,-5.34893 -0.35251,8.64413 8.125591,12.37811 15.452481,11.37709 z"
                 style="fill:#ffffff;fill-rule:evenodd;stroke:#000000;stroke-width:0.54166663;stroke-linecap:butt;stroke-linejoin:miter;stroke-miterlimit:4;stroke-dasharray:none;stroke-opacity:1" />
              <path
                 style="fill:#ffffff;fill-rule:evenodd;stroke:#000000;stroke-width:0.54166663;stroke-linecap:butt;stroke-linejoin:miter;stroke-miterlimit:4;stroke-dasharray:none;stroke-opacity:1"
                 d="m 112.71267,197.86915 c 0,0 -1.98542,-4.49499 -3.99047,-6.02816 -5.39413,-3.68253 -9.147983,-1.74693 -11.462002,-5.34893 -0.35251,8.64413 8.125582,12.37811 15.452472,11.37709 z"
                 id="path4446"
                 inkscape:connector-curvature="0"
                 sodipodi:nodetypes="cccc" />
              <path
                 sodipodi:nodetypes="cccc"
                 inkscape:connector-curvature="0"
                 id="path4448"
                 d="m 120.21264,197.86915 c 0,0 -1.98542,-4.49499 -3.99047,-6.02816 -5.39413,-3.68253 -9.14798,-1.74693 -11.46199,-5.34893 -0.35251,8.64413 8.12557,12.37811 15.45246,11.37709 z"
                 style="fill:#ffffff;fill-rule:evenodd;stroke:#000000;stroke-width:0.54166663;stroke-linecap:butt;stroke-linejoin:miter;stroke-miterlimit:4;stroke-dasharray:none;stroke-opacity:1" />
            </g>
            <g
               id="g4450"
               style="fill:#ffffff;stroke-width:0.54166663;stroke-miterlimit:4;stroke-dasharray:none">
              <path
                 style="fill:#ffffff;fill-rule:evenodd;stroke:#000000;stroke-width:0.54166663;stroke-linecap:butt;stroke-linejoin:miter;stroke-miterlimit:4;stroke-dasharray:none;stroke-opacity:1"
                 d="m 105.6372,197.27482 c 0,0 -2.40994,-3.90066 -4.41499,-5.43383 -5.394133,-3.68253 -9.147992,-1.74693 -11.462011,-5.34893 -0.35251,8.64413 7.87088,12.71772 15.877001,10.78276 z"
                 id="path4452"
                 inkscape:connector-curvature="0"
                 sodipodi:nodetypes="cccc" />
              <path
                 sodipodi:nodetypes="cccc"
                 inkscape:connector-curvature="0"
                 id="path4454"
                 d="m 113.307,197.44463 c 0,0 -2.57975,-4.07047 -4.5848,-5.60364 -5.39413,-3.68253 -9.147983,-1.74693 -11.462002,-5.34893 -0.35251,8.64413 8.210482,12.63282 16.046802,10.95257 z"
                 style="fill:#ffffff;fill-rule:evenodd;stroke:#000000;stroke-width:0.54166663;stroke-linecap:butt;stroke-linejoin:miter;stroke-miterlimit:4;stroke-dasharray:none;stroke-opacity:1" />
              <path
                 style="fill:#ffffff;fill-rule:evenodd;stroke:#000000;stroke-width:0.54166663;stroke-linecap:butt;stroke-linejoin:miter;stroke-miterlimit:4;stroke-dasharray:none;stroke-opacity:1"
                 d="m 120.21264,197.86915 c 0,0 -1.98542,-4.49499 -3.99047,-6.02816 -5.39413,-3.68253 -9.14798,-1.74693 -11.46199,-5.34893 -0.35251,8.64413 8.12557,12.37811 15.45246,11.37709 z"
                 id="path4456"
                 inkscape:connector-curvature="0"
                 sodipodi:nodetypes="cccc" />
            </g>
          </g>
        </g>
        <path
           sodipodi:nodetypes="scsss"
           inkscape:connector-curvature="0"
           id="path4555"
           d="m 116.48094,201.80014 c -0.55041,4.08246 2.82171,8.37753 4.38519,9.3695 1.56347,-0.99197 4.93559,-5.28704 4.38518,-9.3695 -0.35949,-2.66633 -1.94847,-4.85482 -4.38518,-4.85482 -2.43672,0 -4.0257,2.18849 -4.38519,4.85482 z"
           style="fill:#ffffff;fill-rule:evenodd;stroke:#000000;stroke-width:0.54166663;stroke-linecap:butt;stroke-linejoin:miter;stroke-miterlimit:4;stroke-dasharray:none;stroke-opacity:1" />
        <path
           style="fill:#ffffff;fill-rule:evenodd;stroke:#000000;stroke-width:0.54166663;stroke-linecap:butt;stroke-linejoin:miter;stroke-miterlimit:4;stroke-dasharray:none;stroke-opacity:1"
           d="m 116.48094,193.01993 c -0.55041,-4.08246 2.82171,-8.37753 4.38519,-9.3695 1.56347,0.99197 4.93559,5.28704 4.38518,9.3695 -0.35949,2.66633 -1.94847,4.85482 -4.38518,4.85482 -2.43672,0 -4.0257,-2.18849 -4.38519,-4.85482 z"
           id="path4551"
           inkscape:connector-curvature="0"
           sodipodi:nodetypes="scsss" />
      </g>
    </g>
  </g>
</svg>
