<?xml version="1.0" encoding="UTF-8" standalone="no"?>
<svg
   xmlns:dc="http://purl.org/dc/elements/1.1/"
   xmlns:cc="http://web.resource.org/cc/"
   xmlns:rdf="http://www.w3.org/1999/02/22-rdf-syntax-ns#"
   xmlns:svg="http://www.w3.org/2000/svg"
   xmlns="http://www.w3.org/2000/svg"
   xmlns:sodipodi="http://sodipodi.sourceforge.net/DTD/sodipodi-0.dtd"
   xmlns:inkscape="http://www.inkscape.org/namespaces/inkscape"
   version="1.1"
   width="1500"
   height="1000"
   viewBox="0 0 3 2"
   id="svg277"
   sodipodi:version="0.32"
   inkscape:version="0.45pre1"
   sodipodi:docname="Flag_of_the Roman Republic.svg"
   sodipodi:docbase="C:\Documents and Settings\Flanker\Desktop"
   inkscape:output_extension="org.inkscape.output.svg.inkscape"
   sodipodi:modified="true">
  <metadata
     id="metadata288">
    <rdf:RDF>
      <cc:Work
         rdf:about="">
        <dc:format>image/svg+xml</dc:format>
        <dc:type
           rdf:resource="http://purl.org/dc/dcmitype/StillImage" />
      </cc:Work>
    </rdf:RDF>
  </metadata>
  <defs
     id="defs286" />
  <sodipodi:namedview
     inkscape:window-height="1003"
     inkscape:window-width="1280"
     inkscape:pageshadow="2"
     inkscape:pageopacity="0.0"
     borderopacity="1.0"
     bordercolor="#666666"
     pagecolor="#ffffff"
     id="base"
     inkscape:zoom="0.798"
     inkscape:cx="750"
     inkscape:cy="500"
     inkscape:window-x="-4"
     inkscape:window-y="-4"
     inkscape:current-layer="svg277"
     inkscape:showpageshadow="false" />
  <rect
     width="1"
     height="2"
     fill="#008d46"
     id="rect279"
     style="fill:#006837;fill-opacity:1" />
  <rect
     width="1"
     height="2"
     x="1"
     fill="#fafeff"
     id="rect281"
     style="fill:#ffffff;fill-opacity:1" />
  <rect
     width="1"
     height="2"
     x="2"
     fill="#d2232c"
     id="rect283"
     style="fill:#c02926;fill-opacity:1" />
  <path
     style="font-size:0.19961622px;font-style:normal;font-weight:normal;fill:#c02926;fill-opacity:1;stroke:none;stroke-width:1px;stroke-linecap:butt;stroke-linejoin:miter;stroke-opacity:1;font-family:Bitstream Vera Sans"
     d="M 1.1945146,0.72222624 L 1.2934455,0.72222624 C 1.3146935,0.72222637 1.3300936,0.72917914 1.3396457,0.74308457 C 1.3491975,0.75699023 1.3539735,0.77144809 1.3539736,0.78645821 C 1.3539735,0.80244316 1.3490188,0.81751833 1.3391096,0.83168377 C 1.3292001,0.84584925 1.3154408,0.85293198 1.2978316,0.85293198 L 1.1945146,0.85293198 L 1.1945146,0.84835094 L 1.2096222,0.84835094 L 1.2096222,0.72680727 L 1.1945146,0.72680727 L 1.1945146,0.72222624 z M 1.2911062,0.82973439 L 1.2911062,0.74532636 C 1.2911061,0.73765892 1.2903913,0.73265552 1.2889619,0.73031615 C 1.2875322,0.72797702 1.2833736,0.7268074 1.2764859,0.72680727 L 1.2665441,0.72680727 L 1.2665441,0.84835094 L 1.2745365,0.84835094 C 1.2809694,0.84835094 1.2853392,0.84714883 1.2876461,0.84474459 C 1.2899527,0.84234037 1.2911061,0.83733697 1.2911062,0.82973439 L 1.2911062,0.82973439 z "
     id="text2169" />
  <path
     style="font-size:0.19961622px;font-style:normal;font-weight:normal;fill:#c02926;fill-opacity:1;stroke:none;stroke-width:1px;stroke-linecap:butt;stroke-linejoin:miter;stroke-opacity:1;font-family:Bitstream Vera Sans"
     d="M 1.5505376,0.85293198 L 1.4627182,0.85293198 L 1.4627182,0.84835094 L 1.4778259,0.84835094 L 1.4778259,0.72680727 L 1.4627182,0.72680727 L 1.4627182,0.72222624 L 1.5505376,0.72222624 L 1.5505376,0.72680727 L 1.5347477,0.72680727 L 1.5347477,0.84835094 L 1.5505376,0.84835094 L 1.5505376,0.85293198 z "
     id="text2173" />
  <path
     style="font-size:0.19961622px;font-style:normal;font-weight:normal;fill:#c02926;fill-opacity:1;stroke:none;stroke-width:1px;stroke-linecap:butt;stroke-linejoin:miter;stroke-opacity:1;font-family:Bitstream Vera Sans"
     d="M 1.7321888,0.71803508 C 1.7548665,0.71803521 1.772752,0.72427321 1.7858454,0.7367491 C 1.7989386,0.74922521 1.8054853,0.76624976 1.8054854,0.78782278 C 1.8054853,0.8082263 1.7990523,0.82484473 1.7861866,0.8376781 C 1.7733206,0.8505115 1.7557112,0.8569282 1.7333585,0.8569282 C 1.7110055,0.8569282 1.6930713,0.85060897 1.6795556,0.83797051 C 1.66604,0.82533207 1.6592821,0.80829128 1.6592821,0.78684809 C 1.6592821,0.76592486 1.6658938,0.74922521 1.679117,0.7367491 C 1.6923403,0.72427321 1.7100309,0.71803521 1.7321888,0.71803508 L 1.7321888,0.71803508 z M 1.7432028,0.83792177 L 1.7432028,0.73694403 C 1.7432027,0.72843188 1.7398563,0.72417574 1.7331635,0.72417561 C 1.7258858,0.72417574 1.7222469,0.72862682 1.722247,0.73752885 L 1.722247,0.83860405 C 1.7222469,0.84302265 1.7230754,0.84619039 1.7247325,0.84810727 C 1.7263894,0.85002416 1.7291997,0.8509826 1.7331635,0.8509826 C 1.7398563,0.8509826 1.7432027,0.846629 1.7432028,0.83792177 L 1.7432028,0.83792177 z "
     id="text2177" />
  <path
     transform="scale(0.9283102,1.0772261)"
     style="font-size:0.25707874px;font-style:normal;font-weight:normal;fill:#c02926;fill-opacity:1;stroke:none;stroke-width:1px;stroke-linecap:butt;stroke-linejoin:miter;stroke-opacity:1;font-family:Bitstream Vera Sans"
     d="M 1.172963,1.1090963 L 1.172963,1.1795168 L 1.1971897,1.1795168 L 1.1971897,1.1878016 L 1.1108273,1.1878016 L 1.1108273,1.1795168 L 1.1317903,1.1795168 L 1.1317903,1.0276295 L 1.1108273,1.0276295 L 1.1108273,1.0194703 L 1.1906623,1.0194703 C 1.2143449,1.0194704 1.2312073,1.0239057 1.2412496,1.0327761 C 1.2512916,1.0416468 1.2563126,1.0520237 1.2563128,1.0639067 C 1.2563126,1.0759574 1.2507476,1.0865016 1.2396177,1.0955395 C 1.2284876,1.1045775 1.2087799,1.1090964 1.1804946,1.1090963 L 1.172963,1.1090963 z M 1.172963,1.0276295 L 1.172963,1.1009371 L 1.1814989,1.1009371 C 1.1889467,1.1009372 1.1947,1.1003305 1.1987588,1.099117 C 1.2028174,1.0979036 1.2061438,1.0946399 1.2087382,1.0893259 C 1.2113323,1.084012 1.2126294,1.075539 1.2126295,1.0639067 C 1.2126294,1.0525258 1.2113532,1.0442201 1.2088009,1.0389897 C 1.2062484,1.0337595 1.2029848,1.0305586 1.1990098,1.0293869 C 1.1950347,1.0282154 1.1893651,1.0276297 1.182001,1.0276295 L 1.172963,1.0276295 z "
     id="text2181" />
  <path
     transform="scale(0.9283102,1.0772261)"
     style="font-size:0.25707874px;font-style:normal;font-weight:normal;fill:#c02926;fill-opacity:1;stroke:none;stroke-width:1px;stroke-linecap:butt;stroke-linejoin:miter;stroke-opacity:1;font-family:Bitstream Vera Sans"
     d="M 1.27324,1.1029455 C 1.27324,1.0777566 1.280688,1.0571493 1.2955838,1.0411236 C 1.3104796,1.0250982 1.3283462,1.0170854 1.3491837,1.0170853 C 1.3685147,1.0170854 1.3858165,1.024617 1.401089,1.0396801 C 1.4163613,1.0547434 1.4239975,1.0761666 1.4239976,1.1039497 C 1.4239975,1.1299757 1.4167797,1.150834 1.4023443,1.1665248 C 1.3879086,1.1822157 1.3702721,1.1900611 1.3494348,1.1900611 C 1.3269236,1.1900611 1.3085967,1.1817345 1.2944541,1.1650813 C 1.2803114,1.1484281 1.27324,1.1277162 1.27324,1.1029455 L 1.27324,1.1029455 z M 1.3771762,1.1036987 C 1.3771761,1.077924 1.3766949,1.060936 1.3757326,1.0527348 C 1.3747701,1.0445339 1.3723015,1.0379228 1.3683265,1.0329016 C 1.3643514,1.0278807 1.3578031,1.0253702 1.3486816,1.02537 C 1.3409826,1.0253702 1.3348527,1.0273995 1.3302919,1.0314581 C 1.3257311,1.0355169 1.3228858,1.0420234 1.3217561,1.0509775 C 1.3206263,1.0599318 1.3200615,1.0774219 1.3200615,1.1034476 C 1.3200615,1.1292225 1.3205426,1.1462732 1.3215051,1.1545998 C 1.3224674,1.1629264 1.3250198,1.1695584 1.3291622,1.1744958 C 1.3333045,1.1794332 1.339811,1.1819018 1.3486816,1.1819018 C 1.3560458,1.1819018 1.3620501,1.1799143 1.3666947,1.1759393 C 1.3713391,1.1719643 1.3742471,1.1654997 1.3754188,1.1565454 C 1.3765903,1.1475912 1.3771761,1.1299757 1.3771762,1.1036987 L 1.3771762,1.1036987 z "
     id="text2185" />
  <path
     transform="scale(0.9283102,1.0772261)"
     style="font-size:0.25707874px;font-style:normal;font-weight:normal;fill:#c02926;fill-opacity:1;stroke:none;stroke-width:1px;stroke-linecap:butt;stroke-linejoin:miter;stroke-opacity:1;font-family:Bitstream Vera Sans"
     d="M 1.5031204,1.1090963 L 1.5031204,1.1795168 L 1.5273471,1.1795168 L 1.5273471,1.1878016 L 1.4409847,1.1878016 L 1.4409847,1.1795168 L 1.4619477,1.1795168 L 1.4619477,1.0276295 L 1.4409847,1.0276295 L 1.4409847,1.0194703 L 1.5208197,1.0194703 C 1.5445023,1.0194704 1.5613647,1.0239057 1.571407,1.0327761 C 1.581449,1.0416468 1.58647,1.0520237 1.5864702,1.0639067 C 1.58647,1.0759574 1.580905,1.0865016 1.5697751,1.0955395 C 1.558645,1.1045775 1.5389373,1.1090964 1.510652,1.1090963 L 1.5031204,1.1090963 z M 1.5031204,1.0276295 L 1.5031204,1.1009371 L 1.5116563,1.1009371 C 1.5191041,1.1009372 1.5248574,1.1003305 1.5289162,1.099117 C 1.5329748,1.0979036 1.5363012,1.0946399 1.5388956,1.0893259 C 1.5414897,1.084012 1.5427868,1.075539 1.5427869,1.0639067 C 1.5427868,1.0525258 1.5415106,1.0442201 1.5389583,1.0389897 C 1.5364058,1.0337595 1.5331422,1.0305586 1.5291672,1.0293869 C 1.5251921,1.0282154 1.5195225,1.0276297 1.5121584,1.0276295 L 1.5031204,1.0276295 z "
     id="text2189" />
  <path
     transform="scale(0.9283102,1.0772261)"
     style="font-size:0.25707874px;font-style:normal;font-weight:normal;fill:#c02926;fill-opacity:1;stroke:none;stroke-width:1px;stroke-linecap:butt;stroke-linejoin:miter;stroke-opacity:1;font-family:Bitstream Vera Sans"
     d="M 1.6019102,1.1029455 C 1.6019102,1.0777566 1.6093581,1.0571493 1.624254,1.0411236 C 1.6391497,1.0250982 1.6570164,1.0170854 1.6778539,1.0170853 C 1.6971849,1.0170854 1.7144866,1.024617 1.7297592,1.0396801 C 1.7450314,1.0547434 1.7526676,1.0761666 1.7526678,1.1039497 C 1.7526676,1.1299757 1.7454499,1.150834 1.7310144,1.1665248 C 1.7165787,1.1822157 1.6989422,1.1900611 1.6781049,1.1900611 C 1.6555937,1.1900611 1.6372668,1.1817345 1.6231242,1.1650813 C 1.6089815,1.1484281 1.6019102,1.1277162 1.6019102,1.1029455 L 1.6019102,1.1029455 z M 1.7058463,1.1036987 C 1.7058462,1.077924 1.705365,1.060936 1.7044028,1.0527348 C 1.7034403,1.0445339 1.7009716,1.0379228 1.6969967,1.0329016 C 1.6930216,1.0278807 1.6864733,1.0253702 1.6773518,1.02537 C 1.6696527,1.0253702 1.6635228,1.0273995 1.6589621,1.0314581 C 1.6544012,1.0355169 1.651556,1.0420234 1.6504263,1.0509775 C 1.6492965,1.0599318 1.6487316,1.0774219 1.6487317,1.1034476 C 1.6487316,1.1292225 1.6492128,1.1462732 1.6501752,1.1545998 C 1.6511375,1.1629264 1.6536899,1.1695584 1.6578324,1.1744958 C 1.6619747,1.1794332 1.6684811,1.1819018 1.6773518,1.1819018 C 1.6847159,1.1819018 1.6907203,1.1799143 1.6953648,1.1759393 C 1.7000092,1.1719643 1.7029173,1.1654997 1.7040889,1.1565454 C 1.7052604,1.1475912 1.7058462,1.1299757 1.7058463,1.1036987 L 1.7058463,1.1036987 z "
     id="text2193" />
  <path
     transform="scale(0.9283102,1.0772261)"
     style="font-size:0.25707874px;font-style:normal;font-weight:normal;fill:#c02926;fill-opacity:1;stroke:none;stroke-width:1px;stroke-linecap:butt;stroke-linejoin:miter;stroke-opacity:1;font-family:Bitstream Vera Sans"
     d="M 1.905298,1.1029455 C 1.9052979,1.0777566 1.9127459,1.0571493 1.9276417,1.0411236 C 1.9425375,1.0250982 1.9604041,1.0170854 1.9812416,1.0170853 C 2.0005726,1.0170854 2.0178744,1.024617 2.0331469,1.0396801 C 2.0484192,1.0547434 2.0560554,1.0761666 2.0560556,1.1039497 C 2.0560554,1.1299757 2.0488376,1.150834 2.0344022,1.1665248 C 2.0199665,1.1822157 2.00233,1.1900611 1.9814927,1.1900611 C 1.9589815,1.1900611 1.9406546,1.1817345 1.926512,1.1650813 C 1.9123693,1.1484281 1.9052979,1.1277162 1.905298,1.1029455 L 1.905298,1.1029455 z M 2.0092341,1.1036987 C 2.009234,1.077924 2.0087528,1.060936 2.0077905,1.0527348 C 2.006828,1.0445339 2.0043594,1.0379228 2.0003845,1.0329016 C 1.9964093,1.0278807 1.989861,1.0253702 1.9807395,1.02537 C 1.9730405,1.0253702 1.9669106,1.0273995 1.9623499,1.0314581 C 1.957789,1.0355169 1.9549437,1.0420234 1.953814,1.0509775 C 1.9526842,1.0599318 1.9521194,1.0774219 1.9521194,1.1034476 C 1.9521194,1.1292225 1.9526006,1.1462732 1.953563,1.1545998 C 1.9545253,1.1629264 1.9570777,1.1695584 1.9612201,1.1744958 C 1.9653624,1.1794332 1.9718689,1.1819018 1.9807395,1.1819018 C 1.9881037,1.1819018 1.994108,1.1799143 1.9987526,1.1759393 C 2.003397,1.1719643 2.006305,1.1654997 2.0074767,1.1565454 C 2.0086482,1.1475912 2.009234,1.1299757 2.0092341,1.1036987 L 2.0092341,1.1036987 z M 2.0766419,1.1693492 C 2.0766419,1.1633239 2.0788177,1.1581564 2.0831693,1.1538466 C 2.0875209,1.1495369 2.0926256,1.147382 2.0984836,1.147382 C 2.1045088,1.147382 2.1096763,1.1495369 2.1139861,1.1538466 C 2.1182958,1.1581564 2.1204507,1.1633239 2.1204508,1.1693492 C 2.1204507,1.1753745 2.1183168,1.1805211 2.1140489,1.184789 C 2.1097809,1.1890569 2.1045925,1.1911908 2.0984836,1.1911908 C 2.0926256,1.1911908 2.0875209,1.1890359 2.0831693,1.1847262 C 2.0788177,1.1804165 2.0766419,1.1752908 2.0766419,1.1693492 L 2.0766419,1.1693492 z "
     id="text2197" />
  <path
     style="font-size:0.29095441px;font-style:normal;font-weight:normal;fill:#c02926;fill-opacity:1;stroke:none;stroke-width:1px;stroke-linecap:butt;stroke-linejoin:miter;stroke-opacity:1;font-family:Bitstream Vera Sans"
     d="M 1.7599689,1.2795309 L 1.6363519,1.2795309 L 1.6363519,1.2706063 L 1.6575599,1.2706063 L 1.6575599,1.1069893 L 1.6363519,1.1069893 L 1.6363519,1.0981999 L 1.7190866,1.0981999 L 1.7190866,1.1069893 L 1.6957811,1.1069893 L 1.6957811,1.2706063 L 1.7029869,1.2706063 C 1.7112214,1.2706063 1.7173003,1.2701105 1.7212235,1.2691189 C 1.7251464,1.2681273 1.7294968,1.26522 1.7342746,1.2603971 C 1.7390521,1.2555743 1.7430917,1.2495119 1.7463934,1.24221 C 1.7496949,1.2349081 1.7526276,1.2268399 1.7551913,1.2180055 L 1.762416,1.2180055 L 1.7599689,1.2795309 z "
     id="text2201" />
  <path
     style="font-size:0.10536739px;font-style:normal;font-weight:normal;fill:#c02926;fill-opacity:1;stroke:none;stroke-width:1px;stroke-linecap:butt;stroke-linejoin:miter;stroke-opacity:1;font-family:Bitstream Vera Sans"
     d="M 1.4773947,1.0084364 L 1.4773947,0.92228604 L 1.5213442,0.92228604 L 1.5213442,0.9368599 L 1.4907275,0.9368599 L 1.4907275,0.95595871 L 1.5013229,0.95595871 L 1.5013229,0.97047381 L 1.4907275,0.97047381 L 1.4907275,0.99392128 L 1.5226053,0.99392128 L 1.5226053,1.0084364 L 1.4773947,1.0084364 z "
     id="text2210"
     sodipodi:nodetypes="ccccccccccccc" />
</svg>
