<?xml version="1.0" encoding="UTF-8" standalone="no"?>
<!-- Created with Inkscape (http://www.inkscape.org/) -->

<svg
   xmlns:dc="http://purl.org/dc/elements/1.1/"
   xmlns:cc="http://creativecommons.org/ns#"
   xmlns:rdf="http://www.w3.org/1999/02/22-rdf-syntax-ns#"
   xmlns:svg="http://www.w3.org/2000/svg"
   xmlns="http://www.w3.org/2000/svg"
   version="1.0"
   width="294"
   height="435"
   viewBox="-18 -5 72 88"
   id="svg2">
  <metadata
     id="metadata53">
    <rdf:RDF>
      <cc:Work
         rdf:about="">
        <dc:format>image/svg+xml</dc:format>
        <dc:type
           rdf:resource="http://purl.org/dc/dcmitype/StillImage" />
        <dc:title></dc:title>
      </cc:Work>
    </rdf:RDF>
  </metadata>
  <defs
     id="defs4" />
  <path
     d="m -18,-14.265306 0,106.530612 71.471951,0 -55.1250095,-47.770406 55.4005195,0 L -18,-14.265306 z"
     id="path3470"
     style="fill:#003893;fill-opacity:1;fill-rule:evenodd;stroke:none;stroke-width:4.89795923;marker:none;visibility:visible;display:inline;overflow:visible;enable-background:accumulate" />
  <path
     d="m -18,-11.081633 64.897959,53.142857 -55.1020406,0 55.1020406,47.755102 -64.897959,0 0,-100.897959 z"
     id="rect3465"
     style="fill:#ce1126;fill-opacity:1;fill-rule:evenodd;stroke:none;stroke-width:2;marker:none;visibility:visible;display:inline;overflow:visible;enable-background:accumulate" />
  <g
     id="g3318">
    <path
       d="m -22.156055,45.051069 -0.920502,-1.270247 -1.336536,0.821294 -0.364331,-1.525816 -1.549093,0.247307 0.247306,-1.549093 -1.525816,-0.364331 0.821294,-1.336536 -1.270246,-0.920502 1.270246,-0.920502 -0.821294,-1.336536 1.525816,-0.364331 -0.247307,-1.549093 1.549094,0.247307 0.364331,-1.525816 1.336535,0.821293 0.920502,-1.270246 0.920503,1.270246 1.336535,-0.821293 0.364331,1.525815 1.549093,-0.247306 -0.247306,1.549093 1.525816,0.364331 -0.821294,1.336535 1.270246,0.920503 -1.270246,0.920502 0.821294,1.336535 -1.525816,0.364331 0.247307,1.549094 -1.549094,-0.247307 -0.364331,1.525816 -1.336535,-0.821294 z"
       transform="matrix(2.2184819,0,0,-2.2184819,51.414291,157.73947)"
       id="path3417"
       style="fill:#ffffff;fill-opacity:1;fill-rule:evenodd;stroke:none;stroke-width:1.39999998;marker:none;visibility:visible;display:inline;overflow:visible;enable-background:accumulate" />
    <g
       id="g3303">
      <path
         d="m 7.3469386,70.714287 a 5.1428571,5.1428571 0 1 1 -10.2857141,0 5.1428571,5.1428571 0 1 1 10.2857141,0 z"
         transform="matrix(1.0303969,0,0,1.0303969,-0.00959577,-1.9848551)"
         id="path3438"
         style="fill:none;stroke:#ce1126;stroke-width:0.41946921;stroke-linecap:butt;stroke-linejoin:miter;stroke-miterlimit:4;stroke-opacity:1;stroke-dasharray:none;marker:none;visibility:visible;display:inline;overflow:visible;enable-background:accumulate" />
      <g
         id="g3290">
        <path
           d="m 1.0714787,74.088521 0.3505079,-0.115584 1.8615668,0 0.249107,0.102247 c 0,0.10059 -0.4140345,0.09893 -0.6589325,0.199525 l -1.2244898,0 c -0.2823917,-0.0958 -0.5777594,-0.0856 -0.5777594,-0.186188 z"
           id="rect3269"
           style="fill:#ce1126;fill-opacity:1;fill-rule:evenodd;stroke:none;stroke-width:1.39999998;marker:none;visibility:visible;display:inline;overflow:visible;enable-background:accumulate" />
        <path
           d="m 1.5574014,71.574712 c -0.077447,0.07271 -0.2076906,0.04519 -0.3125,0.0625 0.00602,-0.01447 -0.017572,0.01746 -0.03125,0.03125 -0.027356,0.02758 -0.087484,0.05895 -0.15625,0.125 -0.0687655,0.06605 -0.14410725,0.161532 -0.1875,0.28125 -0.0433928,0.119718 -0.0565715,0.284025 0,0.4375 0.1349399,0.187066 0.3364606,0.308814 0.5625,0.40625 0.2254961,0.06498 0.4681706,0.07484 0.71875,0.0625 0.2505794,-0.01234 0.4858403,-0.06143 0.6875,-0.125 0.2016597,-0.06357 0.3792369,-0.133472 0.46875,-0.3125 l -0.3125,-0.125 c 0.00788,-0.01576 -0.083842,0.07262 -0.25,0.125 -0.1661581,0.05238 -0.3710937,0.08279 -0.59375,0.09375 -0.2226563,0.01096 -0.4526081,-0.01282 -0.625,-0.0625 -0.1723919,-0.04968 -0.2714791,-0.132542 -0.3125,-0.21875 -0.017815,-0.06544 -0.045498,-0.116941 -0.03125,-0.15625 0.017005,-0.04692 0.075127,-0.108349 0.125,-0.15625 0.049873,-0.0479 0.098705,-0.09822 0.15625,-0.15625 0.028772,-0.02901 0.070956,-0.03899 0.09375,-0.09375 0.022793,-0.05476 0.031192,-0.156365 0,-0.21875 z"
           id="path3255"
           style="fill:#ce1126;fill-opacity:1;fill-rule:evenodd;stroke:none" />
        <g
           transform="translate(0.10374,-0.08026239)"
           id="g3448">
          <path
             d="m -61.314284,46.714287 a 0.2857145,0.2857145 0 1 1 -0.571429,0 0.2857145,0.2857145 0 1 1 0.571429,0 z"
             transform="matrix(2.4255229,0,0,1.8214208,149.44753,-14.917956)"
             id="path3257"
             style="fill:#ce1126;fill-opacity:1;fill-rule:evenodd;stroke:none;stroke-width:2;marker:none;visibility:visible;display:inline;overflow:visible;enable-background:accumulate" />
          <path
             d="m -61.314284,46.714287 a 0.2857145,0.2857145 0 1 1 -0.571429,0 0.2857145,0.2857145 0 1 1 0.571429,0 z"
             transform="matrix(2.4255229,0,0,1.8214208,153.69237,-14.917956)"
             id="path3259"
             style="fill:#ce1126;fill-opacity:1;fill-rule:evenodd;stroke:none;stroke-width:2;marker:none;visibility:visible;display:inline;overflow:visible;enable-background:accumulate" />
        </g>
        <path
           d="m 1.136483,66.730962 -0.21874997,0.21875 c 0.24125107,0.241253 0.49300597,0.242084 0.71874997,0.25 0.00322,1.13e-4 -0.0032,0.03115 0,0.03125 -2.819e-4,0.0095 0.044048,0.05061 0.0625,0.15625 0.021709,0.124281 0.018261,0.294792 0.03125,0.46875 0.025977,0.347916 0.035986,0.748389 0.09375,1 l 0.03125,0.125 0.15625,0 c 0,0 0.2105402,0 0.25,0 0.048534,2e-6 0.21875,0 0.21875,0 l 0.15625,0 0.03125,-0.15625 c 0.053868,-0.254252 0.066062,-0.621495 0.09375,-0.96875 0.013844,-0.173628 0.040823,-0.345673 0.0625,-0.46875 0.018161,-0.103119 0.032864,-0.14774 0.03125,-0.15625 -3.123e-4,-0.0016 0.00378,-0.03503 0,-0.03125 0.226561,-0.0075 0.5072976,-0.0073 0.75,-0.25 l -0.25,-0.21875 c -0.2044926,0.204491 -0.3801061,0.187503 -0.625,0.1875 l -0.0625,0 -0.0625,0.0625 c -0.1087108,0.108712 -0.099577,0.1994 -0.125,0.34375 -0.025423,0.14435 -0.048341,0.322424 -0.0625,0.5 -0.02458,0.308268 -0.062203,0.602739 -0.09375,0.8125 -0.029972,0 -0.048646,10e-7 -0.0625,0 -0.014801,0 -0.051856,0 -0.09375,0 -0.031622,-0.201369 -0.070682,-0.503549 -0.09375,-0.8125 -0.013288,-0.17797 -0.00568,-0.322361 -0.03125,-0.46875 -0.02557,-0.146389 -0.04753,-0.266277 -0.15625,-0.375 l -0.0625,-0.0625 -0.0625,0 c -0.2448986,0 -0.4205099,0.01699 -0.625,-0.1875 z"
           id="path3261"
           style="fill:#ce1126;fill-opacity:1;fill-rule:evenodd;stroke:none" />
        <g
           transform="translate(0.03495328,-0.0190379)"
           id="g3440">
          <path
             d="m -1.9273814,69.18019 c 1.07689883,-0.210652 1.99471966,-0.361032 3.1617115,-0.02153 l -0.029314,-0.737858 c -1.20709206,-0.346833 -2.20386042,-0.06945 -3.0091689,0.335137 -0.2197491,0.1104 -0.1472969,0.221486 -0.1232281,0.424247 z"
             id="path3253"
             style="fill:#ce1126;fill-opacity:1;fill-rule:evenodd;stroke:none" />
          <path
             d="M 6.3804409,69.18019 C 5.303542,68.969538 4.3857212,68.819158 3.2187294,69.158664 l 0.029314,-0.737858 c 1.207092,-0.346833 2.2038604,-0.06945 3.0091689,0.335137 0.2197491,0.1104 0.1472969,0.221486 0.1232281,0.424247 z"
             id="path3267"
             style="fill:#ce1126;fill-opacity:1;fill-rule:evenodd;stroke:none" />
        </g>
        <path
           d="M -0.625,69.53125 C -0.98898002,69.5828 -1.3294897,69.694191 -1.65625,69.75 l 0.03125,0.3125 c 0.71675866,-0.122418 1.31720776,-0.397359 2.03125,-0.09375 l 0.125,-0.3125 C 0.10780064,69.4762 -0.26101998,69.479704 -0.625,69.53125 z"
           id="path2407"
           style="fill:#ce1126;fill-opacity:1;fill-rule:evenodd;stroke:none" />
        <path
           d="M 5.15625,69.53125 C 4.79227,69.479704 4.4234494,69.4762 4,69.65625 l 0.125,0.3125 c 0.7140424,-0.303609 1.2832413,-0.02867 2,0.09375 L 6.1875,69.75 C 5.8607397,69.694191 5.52023,69.582796 5.15625,69.53125 z"
           id="path3205"
           style="fill:#ce1126;fill-opacity:1;fill-rule:evenodd;stroke:none" />
      </g>
    </g>
  </g>
  <g
     id="g3373">
    <g
       id="g3369">
      <path
         d="m -6.3826511,16.086732 0.5127552,3.214286 -3.1607148,0.75 1.7066329,2.770409 -2.6326535,1.905612 2.6326535,1.905613 -1.7066329,2.770409 3.1607148,0.757653 -0.5127552,3.206633 3.2142862,-0.512755 0.7500002,3.160715 2.77040858,-1.69898 1.90561252,2.632653 1.9132657,-2.632653 2.7627555,1.69898 0.7576532,-3.160715 3.2066332,0.512755 -0.512755,-3.206633 3.160715,-0.757653 -1.69898,-2.770409 2.632653,-1.905613 -2.632653,-1.905612 1.69898,-2.770409 -3.160715,-0.75 0.512755,-3.214286 -2.5561229,0.405612 c 0.6978589,1.107642 1.102041,2.413916 1.102041,3.818878 0,3.966956 -3.2192694,7.186226 -7.1862257,7.186226 -3.9669565,3e-6 -7.1862256,-3.21927 -7.1862256,-7.186226 0,-1.404482 0.4046217,-2.711476 1.102041,-3.818878 l -2.5561229,-0.405612 z"
         id="path3419"
         style="fill:#ffffff;fill-opacity:1;fill-rule:evenodd;stroke:none;stroke-width:1.39999998;marker:none;visibility:visible;display:inline;overflow:visible;enable-background:accumulate" />
      <path
         d="m 7.4991367,23.524641 a 5.0651937,5.0651937 0 1 1 -10.1303873,0 5.0651937,5.0651937 0 1 1 10.1303873,0 z"
         transform="translate(-0.1731681,-0.6568157)"
         id="path3313"
         style="fill:#ffffff;fill-opacity:1;fill-rule:evenodd;stroke:none;stroke-width:1.39999998;marker:none;visibility:visible;display:inline;overflow:visible;enable-background:accumulate" />
    </g>
    <g
       id="g3356">
      <path
         d="m 1.68265,24.375033 -0.3125,0.125 c 0.1633373,0.326675 0.5231632,0.46875 0.875,0.46875 0.3518368,0 0.7429139,-0.142075 0.90625,-0.46875 l -0.3125,-0.125 c -0.08156,0.163122 -0.333342,0.25 -0.59375,0.25 -0.260408,0 -0.4809387,-0.08688 -0.5625,-0.25 z"
         id="path3233"
         style="fill:#ce1126;fill-opacity:1;fill-rule:evenodd;stroke:none" />
      <g
         transform="translate(0.250579,0.4687829)"
         id="g3292">
        <path
           d="m -61.314284,46.714287 a 0.2857145,0.2857145 0 1 1 -0.571429,0 0.2857145,0.2857145 0 1 1 0.571429,0 z"
           transform="matrix(2.1428571,0,0,1.8214208,132.35713,-63.198591)"
           id="path3241"
           style="fill:#ce1126;fill-opacity:1;fill-rule:evenodd;stroke:none;stroke-width:2;marker:none;visibility:visible;display:inline;overflow:visible;enable-background:accumulate" />
        <path
           d="m -61.314284,46.714287 a 0.2857145,0.2857145 0 1 1 -0.571429,0 0.2857145,0.2857145 0 1 1 0.571429,0 z"
           transform="matrix(2.1428571,0,0,1.8214208,135.66325,-63.198591)"
           id="path3243"
           style="fill:#ce1126;fill-opacity:1;fill-rule:evenodd;stroke:none;stroke-width:2;marker:none;visibility:visible;display:inline;overflow:visible;enable-background:accumulate" />
      </g>
      <path
         d="m 1.167025,18.937533 -0.25000004,0.21875 c 0.24270114,0.2427 0.52343914,0.24247 0.75000004,0.25 0.00301,1e-4 -0.003,0.03116 0,0.03125 8.057e-4,0.01127 0.013062,0.05212 0.03125,0.15625 0.021709,0.124281 0.049511,0.294792 0.0625,0.46875 0.025977,0.347916 0.035986,0.748389 0.09375,1 l 0.03125,0.125 0.15625,0 c 0,0 0.1792871,0 0.21875,0 0.048521,1e-6 0.25,0 0.25,0 l 0.15625,0 0.03125,-0.15625 c 0.053868,-0.254253 0.066062,-0.621495 0.09375,-0.96875 0.013844,-0.173628 0.00957,-0.345673 0.03125,-0.46875 0.018425,-0.104616 0.065339,-0.149638 0.0625,-0.15625 -5.01e-4,-0.0012 0.00349,-0.03474 0,-0.03125 0.2257422,-0.0079 0.477497,-0.0087 0.71875,-0.25 l -0.21875,-0.21875 c -0.2044921,0.20449 -0.3801034,0.1875 -0.625,0.1875 l -0.0625,0 -0.0625,0.0625 c -0.1087107,0.108711 -0.099577,0.1994 -0.125,0.34375 -0.025423,0.14435 -0.048341,0.322424 -0.0625,0.5 -0.02458,0.308268 -0.062203,0.602739 -0.09375,0.8125 -0.041627,0 -0.075561,0 -0.09375,0 -0.011276,0 -0.032789,0 -0.0625,0 -0.031622,-0.201369 -0.070682,-0.503549 -0.09375,-0.8125 -0.013288,-0.17797 -0.03693,-0.322361 -0.0625,-0.46875 -0.02557,-0.146389 -0.016278,-0.266277 -0.125,-0.375 l -0.0625,-0.0625 -0.0625,0 c -0.2448986,0 -0.4205101,0.01699 -0.625,-0.1875 z"
         id="path3245"
         style="fill:#ce1126;fill-opacity:1;fill-rule:evenodd;stroke:none" />
      <g
         transform="translate(0.2901009,0.4687829)"
         id="g3296">
        <path
           d="m -1.0994278,21.8089 c 0.65859518,-0.511671 1.33830944,-0.97704 2.2395137,-0.956846 l -0.29861357,-0.54318 c -0.93110353,-0.01742 -1.63951708,0.454801 -1.95899653,1.133956 -0.082163,0.174661 -0.048679,0.208993 0.018096,0.36607 z"
           id="path2446"
           style="fill:#ce1126;fill-opacity:1;fill-rule:evenodd;stroke:none" />
        <path
           d="M 5.0407757,21.8089 C 4.3821815,21.297228 3.7024672,20.83186 2.801263,20.852054 l 0.2986136,-0.54318 c 0.9311034,-0.01742 1.639517,0.4548 1.9589956,1.133955 0.082164,0.174662 0.048679,0.208993 -0.018096,0.366071 z"
           id="path3249"
           style="fill:#ce1126;fill-opacity:1;fill-rule:evenodd;stroke:none" />
      </g>
      <path
         d="m 1.3860179,26.346869 c 0.1943914,0 0.3082628,0.143885 0.5831699,0.143885 l 0.5831743,0 c 0.2749071,0 0.3887786,-0.143885 0.58317,-0.143885 0,-0.143883 -0.1943914,-0.287765 -0.3887807,-0.287765 l -0.9719528,0 c -0.1943893,0 -0.3887807,0.143882 -0.3887807,0.287765 z"
         id="path3251"
         style="fill:#ce1126;fill-opacity:1;fill-rule:evenodd;stroke:none" />
      <path
         d="m 0.15625,21.90625 c -0.27139276,0.06304 -0.49547002,0.157925 -0.71875,0.21875 l 0.09375,0.3125 c 0.26592814,-0.07244 0.49839797,-0.198819 0.71875,-0.25 0.22035203,-0.05118 0.41235987,-0.0404 0.65625,0.125 l 0.15625,-0.25 C 0.74911319,21.849962 0.42764276,21.843213 0.15625,21.90625 z"
         id="path3237"
         style="fill:#ce1126;fill-opacity:1;fill-rule:evenodd;stroke:none" />
      <path
         d="M 4.34375,21.90625 C 4.0723572,21.84321 3.7821369,21.84996 3.46875,22.0625 l 0.15625,0.25 C 3.8688902,22.147095 4.060898,22.136319 4.28125,22.1875 4.501602,22.23868 4.7340718,22.365056 5,22.4375 L 5.09375,22.125 c -0.22328,-0.06083 -0.4786072,-0.155713 -0.75,-0.21875 z"
         id="path3239"
         style="fill:#ce1126;fill-opacity:1;fill-rule:evenodd;stroke:none" />
    </g>
  </g>
</svg>
