<?xml version="1.0" encoding="utf-8"?>
<!-- Generator: Adobe Illustrator 16.0.0, SVG Export Plug-In . SVG Version: 6.00 Build 0)  -->
<!DOCTYPE svg PUBLIC "-//W3C//DTD SVG 1.1//EN" "http://www.w3.org/Graphics/SVG/1.1/DTD/svg11.dtd">
<svg version="1.1" id="Layer_1" xmlns="http://www.w3.org/2000/svg" xmlns:xlink="http://www.w3.org/1999/xlink" x="0px" y="0px"
	 width="800px" height="553px" viewBox="0 0 800 553" enable-background="new 0 0 800 553" xml:space="preserve">
<rect y="0" fill="#FFFFFF" width="800" height="554"/>
<rect x="1264" y="-502" fill="#B92B0D" width="53" height="61"/>
<g>
	<rect y="0" opacity="0.1" fill="#FFFFFF" enable-background="new    " width="800" height="553"/>
	<rect x="400" y="277" fill="#B92B0D" width="400" height="277"/>
	<polygon fill="#B92B0D" points="551,243 551,158 533,158 505,191 477,158 459,158 459,243 455,243 455,253 482,253 482,243 
		477,243 477,194.082 505,224 533,194.082 533,243 528,243 528,253 555,253 555,243 	"/>
	<path fill="#B92B0D" d="M369,334v-27h-10v4.394l-25,34.854c0,0-1.75-39.5-27.5-40.5s-29.5,23.5-29.5,48.75v31v0.23V403h82v5h10v-27
		h-10v6h-25v-28.502l25-26.441V334H369z M293,387v-32.502c0,0-0.25-16.75,8.75-21.5s16.25,8.75,16.25,21.5S318,387,318,387H293z"/>
	<g>
		<path fill="#B92B0D" d="M285.191,159.175c-44.076,46.433-16.734,89.803,15.793,95.932c32.527,6.129,67.646-12.493,67.646-12.493
			s18.62-35.118,12.492-67.646C374.994,142.442,331.624,115.099,285.191,159.175z"/>
		<rect x="254.292" y="128" fill="#B92B0D" width="41.709" height="42"/>
		<path fill="#FFFFFF" d="M291.084,182.982c0,0,24.51,8.938,45.962,45.962C337.046,228.944,294.855,215.037,291.084,182.982z"/>
		<path fill="#FFFFFF" d="M276.867,204.574c0,0,20.577,7.502,38.586,38.585C315.453,243.16,280.033,231.485,276.867,204.574z"/>
		<rect x="254" y="128" fill="#B92B0D" width="42" height="42"/>
		<path fill="#FFFFFF" d="M308.93,165.136c0,0,8.938,24.509,45.963,45.962C354.893,211.098,340.986,168.906,308.93,165.136z"/>
		<path fill="#FFFFFF" d="M330.523,150.919c0,0,7.502,20.577,38.585,38.585C369.108,189.504,357.434,154.085,330.523,150.919z"/>
		
			<ellipse transform="matrix(-0.7071 -0.7071 0.7071 -0.7071 456.5454 671.9884)" fill="#B92B0D" cx="367.448" cy="241.439" rx="17.333" ry="30.666"/>
		
			<ellipse transform="matrix(-0.7071 -0.7071 0.7071 -0.7071 457.8955 675.2394)" fill="#FFFFFF" cx="368.798" cy="242.784" rx="9.244" ry="19.735"/>
	</g>
</g>
</svg>
