<svg width="900" height="600" version="1.0" xmlns="http://www.w3.org/2000/svg" xmlns:xlink="http://www.w3.org/1999/xlink">
 <g transform="translate(-4499.3 -2779.3)">
  <rect x="4499.3" y="2779.3" width="900" height="600" fill="#A51931"/>
  <g transform="matrix(.69832 0 0 .69832 4449 2030.8)">
   <g transform="translate(0 1e3)">
    <g fill-rule="evenodd">
     <path d="m904.36 590.65s-19.048 14.369-25.979 30.894c-8.8083 21-22.67 59.224-19.973 75.709 1.831 11.193 6.7257 39.972 3.6508 50.817-2.2282 7.8586-13.405 11.413-13.405 11.413-5.2401 0.41682-12.905-0.96283-17.162 0.15726 0 0-20.463 2.3212-25.138-0.12264 0 0-12.132 4.0304-18.019 2.4629-3.1922-0.84997-6.686-2.8506-8.1903-6.1178-2.7548-5.9835-1.3323-13.794 0.54605-20.189 2.6987-9.1884 12.935-20.547 18.955-28.072 0 0 4.8876-4.2068 5.7132-7.1414 4.0249-14.308-2.6106-42.99-2.8086-57.852-0.28196-21.167 4.7695-36.444 3.5107-57.575-0.51325-8.6159-5.6171-25.277-5.6171-25.277l-4.7703-10.57 102.39 15.282 14.772 17.829z" fill="#fdfbfb"/>
     <path d="m806.06 585.04c-0.51326-8.6159-5.6171-25.277-5.6171-25.277l-4.7703-10.57 102.39 15.282 14.772 17.829-8.473 8.3533s-19.048 14.369-25.979 30.894c-8.8083 21-22.67 59.224-19.973 75.709 1.831 11.193 6.7257 39.972 3.6508 50.817-2.2282 7.8586-13.405 11.413-13.405 11.413-5.2401 0.41682-12.905-0.96283-17.162 0.15726 0 0-20.463 2.3212-25.138-0.12264 0 0-12.132 4.0304-18.019 2.4629-3.1922-0.84997-6.686-2.8506-8.1903-6.1178-2.7548-5.9835-1.3323-13.794 0.54605-20.189 2.6987-9.1884 12.935-20.547 18.955-28.072 0 0 4.8876-4.2068 5.7132-7.1414 4.0249-14.308-2.6106-42.99-2.8086-57.852-0.23197-17.414 3.1459-30.841 3.65-46.822zm7.2727 12.613c-0.38879 16.508-5.067 32.78-4.9293 49.293 0.13284 15.922 6.1174 31.532 5.5454 47.444-0.15774 4.3878-0.46792 9.029-2.4646 12.939-4.493 8.7992-14.761 13.407-20.333 21.566-2.4352 3.5658-5.5454 11.707-5.5454 11.707s4.3022-2.9065 6.7777-3.0808c3.6305-0.2556 10.475 3.0808 10.475 3.0808 4.8678-5.0387 5.6901-12.774 19.717-11.707l-6.7777 13.555s10.715-4.2748 16.02-3.0808c3.7272 0.83887 9.2424 6.7777 9.2424 6.7777s2.7486-3.0203 3.0808-4.9293c0.82867-4.7627-0.55285-10.051-3.0808-14.172-5.2671-8.5854-23.828-16.203-23.828-16.203 4.5254-1.6295 7.713-3.5265 17.464-4.1109l-9.0402-14.191 11.091-0.61616-9.8585-26.495h8.01l-7.3939-10.475h6.7777c-6.3062-12.876-12.06-19.049-17.869-25.879l9.2424-6.1616-8.6262-3.0808 11.707-5.5454-11.091-7.3939c10.436-3.697 17.752-7.3939 21.566-11.091-10.609-0.99387-19.347-3.2348-26.326-6.6488 0 0 0.51394 5.6617 0.44716 8.4973z" fill="#eadacd"/>
     <path transform="matrix(1.432 0 0 1.432 69.512 70.618)" d="m507.09 334.2 3.332 7.3809s1.1462-0.71239 1.7012 6.2051c8.5521 9.7404 29.915 17.074 36.512 16.195-3.8885 3.3406-9.0209 7.47-20.697 10.811 4.9049 2.5207 12.206 2.2111 28.654-3.1465-7.7652 5.0537-13.512 11.207-29.475 11.789 10.513 4.77 21.026 0.67179 31.539-1.1777-9.5339 9.1572-21.828 8.192-33.602 9.1367 10.292 5.6047 16.309 0.5838 24.543 5.9707-6.2004 3.3087-15.462-0.25308-16.354 0.1914 3.1665 3.9564 8.2539 3.376 12.121 13.699-3.5928-3.696-7.2032-6.1517-10.836-7.1406 3.3932 3.3139 6.8059 6.587 9.2578 11.814-4.4639-3.5492-6.8273-3.8438-9.3164-4.334 3.7746 4.433 7.4088 9.5094 10.299 18.049-4.1895-5.0654-8.4599-8.9573-12.912-10.289 4.1361 5.0178 7.3677 7.4599 9.3398 21.303-2.9593-3.4221-7.787-2.9979-9.7988-3.9238 3.8823 4.403 9.7751 7.4007 10.82 14.457-2.7666-4.09-13.925-5.2616-15.154-3.2285 5.84 0.99568 21.631 9.1785 19.166 20.076-0.78181 3.457-1.8945 5.8524-2.3457 6.5566-2.0613 3.2176-0.43567 4.5915 0.20313 6.459 0 0 7.8054-2.481 9.3613-7.9688 2.1472-7.5732-1.2722-27.67-2.5508-35.486-1.8832-11.512 7.7982-38.205 13.949-52.869 4.8404-11.54 18.141-21.574 18.141-21.574l5.918-5.834-10.316-12.449-71.5-10.672zm14.912 128.08c-4.9715 0.11131-7.1794 5.6417-8.1836 10.879-2.038-1.8552-5.0409-2.9469-8.0059-2.8945-0.65338 0.0115-1.3031 0.079-1.9414 0.20508-1.9508 0.38535-4.0083 1.5783-5.4356 2.9629-1.3962 1.3545-2.668 4.5469-2.668 4.5469l1.0879 1.7774 3.457 2.373 4.1504 0.78907 4.3476-0.39454 6.7715-1.6914 0.0781 0.82031 3.9316-0.16797 5.3203 0.1875 5.4355-0.14453 6.002-0.96484s0.49016-2.705 0.11523-3.8438c-1.1707-3.556-4.9972-5.9042-10.059-5.832-0.72306 0.0103-1.4441 0.071-2.1504 0.18359-2.1589 0.34422-4.4342 1.4097-6.0137 2.6465-0.40205 0.31484-0.79327 0.74327-1.1543 1.2012 0.15866-5.4688 1.4764-10.202 4.9141-12.639zm-16.453 11.846c1.6726-0.0487 3.6106 0.41501 5.041 1.2832 0.78283 0.47513 1.5421 1.3717 1.3828 2.2734-0.25744 1.4578-1.8242 1.8296-3.459 2.2734-1.9114 0.51894-4.7915 0.75142-6.7188 0.29492-1.2642-0.29946-2.614-0.40303-2.8652-1.6777-0.19999-1.0147 0.51692-2.202 1.3828-2.7676 1.5316-1.0004 3.4077-1.6265 5.2363-1.6797zm20.566 0.21093c1.851-0.0435 1.8115 0.37099 3.3945 1.1465 0.86634 0.4244 1.7056 1.2257 1.5293 2.0312-0.28491 1.3021-2.0171 1.6328-3.8262 2.0293-2.1152 0.46354-3.1211 0.67338-5.2539 0.26562-1.3991-0.26749-2.8919-0.36137-3.1699-1.5-0.22133-0.90639 0.57106-1.9675 1.5293-2.4727 1.695-0.89358 3.7733-1.4525 5.7969-1.5z" fill="#dfa892"/>
    </g>
    <path d="m904.36 590.65s-19.048 14.369-25.979 30.894c-8.8083 21-22.67 59.224-19.973 75.709 1.831 11.193 6.7257 39.972 3.6508 50.817-2.2282 7.8586-13.405 11.413-13.405 11.413-5.2401 0.41682-12.905-0.96283-17.162 0.15726 0 0-20.463 2.3212-25.138-0.12264 0 0-12.132 4.0304-18.019 2.4629-3.1922-0.84997-6.686-2.8506-8.1903-6.1178-2.7548-5.9835-1.3323-13.794 0.54605-20.189 2.6987-9.1884 12.935-20.547 18.955-28.072 0 0 4.8876-4.2068 5.7132-7.1414 4.0249-14.308-2.6106-42.99-2.8086-57.852-0.28196-21.167 4.7695-36.444 3.5107-57.575-0.51325-8.6159-5.6171-25.277-5.6171-25.277l-4.7703-10.57 102.39 15.282 14.772 17.829z" fill="none" stroke="#7e1911" stroke-width="2"/>
    <g fill-rule="evenodd">
     <path d="m572.02 466.39s-6.3641 20.539-9.3106 32.005c-5.2076 20.265-10.494 52.598-13.384 73.321-5.7016 40.891 1.14 95.492-7.9879 124.21-1.9114 6.0135-4.8398 9.454-7.6945 11.681-2.7729 2.1631-4.9551 9.5037-7.7036 12.979-4.7836 6.0484-6.0366 12.759-7.7506 18.595-1.8783 6.3953-6.802 10.704-4.0471 16.688 1.5042 3.2673 4.998 5.2679 8.1903 6.1178 5.887 1.5675 18.019-2.4629 18.019-2.4629 4.6756 2.4438 25.138 0.12264 25.138 0.12264 4.2563-1.1201 11.921 0.25956 17.162-0.15726 0 0 11.177-3.5545 13.405-11.413 3.0749-10.845-5.7674-39.675-3.6508-50.817 0 0 3.4582-22.581 6.3825-33.6 5.0508-19.032 19.203-55.863 19.203-55.863l13.656-31.096-54.505-120.73z" fill="#fdfbfb"/>
     <path d="m567.93 517.05s-4.2832 17.266-3.0385 25.853c0.74534 5.142 2.9938 10.192 6.1401 14.327 1.7636 2.3176 6.8224 5.4579 6.8224 5.4579h-6.8224l7.5046 12.28h-8.1868c-2.2141 5.4579-0.99538 10.916 0 16.374 0 0-3.7211 0.0947-5.4579 0.68223-2.9927 1.0124-8.1868 4.7757-8.1868 4.7757l10.916 4.7757-6.1401 2.0467 10.916 19.103-4.0934 0.68224 6.1401 12.962-6.8224 0.68224 4.0934 10.234h-4.0934l4.0934 12.962-6.1401-0.68223 7.5046 19.785h-5.4579l4.7756 13.645h-7.5046l1.3645 10.916-8.1868 1.3645s12.975 12.418 16.374 20.467c2.8529 6.7562 2.729 21.832 2.729 21.832s-2.0496-4.7714-4.0934-6.1401c-2.8904-1.9357-6.7639-1.795-10.234-2.0467-4.3155-0.31301-12.962 0.68224-12.962 0.68224l6.1401-10.234c-11.977-0.83959-13.402-1.6649-19.785 10.234 0 0-3.1725-0.80802-4.7756-0.68224-3.0837 0.24195-8.8691 2.729-8.8691 2.729s1.1181-6.6584 2.729-9.5513c1.6447-2.9537 4.9114-4.7158 6.8224-7.5046 2.8743-4.1948 4.27-9.2466 6.8224-13.645 2.8809-4.9643 7.611-8.9252 9.5513-14.327 3.7865-10.542 2.7119-22.25 3.4112-33.43 1.8319-29.287-0.78976-58.802 2.0467-88.009 2.0744-21.36 10.916-63.448 10.916-63.448zm-7.514-9.0261c-4.4175 19.878-8.6281 46.011-11.094 63.692-5.7016 40.891 1.14 95.492-7.9879 124.21-1.9114 6.0135-4.8398 9.454-7.6945 11.681-2.7729 2.1631-4.9551 9.5037-7.7036 12.979-4.7836 6.0484-6.0366 12.759-7.7506 18.595-1.8783 6.3953-6.802 10.704-4.0471 16.688 1.5042 3.2673 4.998 5.2679 8.1903 6.1178 5.887 1.5675 18.019-2.4629 18.019-2.4629 4.6756 2.4438 25.138 0.12264 25.138 0.12264 4.2563-1.1201 11.921 0.25956 17.162-0.15726 0 0 11.177-3.5545 13.405-11.413 3.0749-10.845-5.7674-39.675-3.6508-50.817 0 0 3.4582-22.581 6.3825-33.6 5.0508-19.032 19.203-55.863 19.203-55.863l13.656-31.096-54.505-120.73-5.1223 10.418s-6.3641 20.539-9.3106 32.005z" fill="#eadacd"/>
     <path d="m572.02 466.39 5.1223-10.418 54.505 120.73-13.656 31.096s-14.152 36.832-19.203 55.863c-2.9242 11.019-6.3825 33.6-6.3825 33.6-2.1166 11.142 6.7257 39.972 3.6508 50.817-2.2282 7.8586-13.405 11.413-13.405 11.413 5.1796-18.827-3.2142-41.747-19.282-52.423 4.7396 0.17284 9.3224 2.2076 14.672 9.4277-2.0397-8.5138-4.9464-14.577-8.528-18.732 3.7232 1.1091 7.4992 4.5363 11.31 9.5186-1.8727-10.042-4.7251-14.543-7.3845-20.13 2.9188 0.96137 5.4789 0.98492 9.9022 5.8764-3.5616-19.704-8.3161-23.028-14.503-29.988 6.4423 1.6679 12.763 7.0106 19.028 14.035-4.5919-12.066-10.065-19.137-15.704-25.279 3.5881 0.56849 6.9867 0.86363 13.564 5.7041-3.788-7.3496-8.8479-11.85-13.881-16.411 5.2513 1.2211 10.549 4.5419 15.888 9.639-6.0855-14.566-10.554-18.215-15.297-23.708 1.2514-0.68366 5.3047 1.3122 10.504 4.402-5.305-13.835-10.443-17.145-16.471-26.888 9.5702 5.8612 18.395 15.944 27.333 25.387 1.4569-12.934-20.996-35.637-33.941-33.27 15.175-6.995 22.016 5.893 33.713 14.582-9.7582-13.745-16.831-16.215-19.113-32.181 2.3717 7.284 7.7207 10.942 22.472 26.439 0 0-3.4162-12.547-7.1661-17.685-2.6808-3.6728-10.48-8.733-10.48-8.733s5.2805 1.0128 7.5686 2.3288c5.9524 3.4236 15.137 13.973 15.137 13.973s-8.7916-15.437-14.555-22.123c-3.2304-3.7476-11.062-9.8973-11.062-9.8973s9.0164 3.5048 12.808 6.4042c5.7868 4.4247 14.555 16.302 14.555 16.302s-11.779-19.92-20.377-27.363c-4.0047-3.467-10.384-3.6728-13.973-7.5686-3.5914-3.8984-6.4042-14.555-6.4042-14.555s5.5573 8.5262 8.7791 11.387c4.4818 3.9803 9.882 4.0142 14.509 7.825 3.7208 3.0647 9.3152 11.062 9.3152 11.062s-4.9612-12.109-9.8973-17.117c-3.1094-3.1549-8.6018-5.3028-11.644-8.5226-3.3979-3.5964-7.9174-13.391-7.9174-13.391s6.6136 7.1423 9.664 9.9204c3.1857 2.9014 7.4053 3.6413 10.48 6.6606 3.4614 3.3996 8.733 12.552 8.733 12.552s-4.1687-13.508-8.1508-19.212c-4.8725-6.9799-18.63-17.466-18.63-17.466s12.307 5.6358 17.466 9.8973c5.3069 4.3835 13.391 15.719 13.391 15.719l-13.973-24.452s-6.5771-1.1543-9.3151-2.911c-4.395-2.8197-10.48-11.644-10.48-11.644s5.9415 4.095 9.3151 5.2398c2.5989 0.88192 8.1508 1.1644 8.1508 1.1644s-9.5659-13.039-12.808-20.377c-1.4652-3.3162-2.9412-10.167-2.9412-10.167 2.5351-8.4345 4.9883-16.352 4.9883-16.352z" fill="#dfa892"/>
     <path transform="matrix(1.432 0 0 1.432 69.512 70.618)" d="m336.05 462.28c-4.9715 0.11131-7.1794 5.6436-8.1836 10.881-2.038-1.8552-5.039-2.9469-8.0039-2.8945-0.65338 0.0115-1.3051 0.079-1.9434 0.20508-1.9508 0.38535-4.0083 1.5783-5.4356 2.9629-1.3962 1.3545-2.668 4.5469-2.668 4.5469l1.0879 1.7773 3.457 2.373 4.1504 0.78906 4.3477-0.39453 6.7734-1.6914 0.0781 0.82031 3.9297-0.16797 5.3203 0.1875 5.4356-0.14453 6.002-0.96484s0.49016-2.705 0.11523-3.8438c-1.1707-3.556-4.9972-5.9042-10.059-5.832-0.72306 0.0103-1.4421 0.071-2.1484 0.18359-2.1589 0.34422-4.4362 1.4097-6.0156 2.6465-0.40202 0.31481-0.7933 0.74134-1.1543 1.1992 0.15873-5.4686 1.4765-10.202 4.9141-12.639zm-16.451 11.848c1.6726-0.0487 3.6086 0.41501 5.0391 1.2832 0.78283 0.47513 1.5421 1.3717 1.3828 2.2734-0.25744 1.4578-1.8223 1.8296-3.457 2.2734-1.9114 0.51894-4.7934 0.75142-6.7207 0.29492-1.2642-0.29945-2.614-0.40302-2.8652-1.6777-0.2-1.0147 0.51692-2.202 1.3828-2.7676 1.5316-1.0004 3.4097-1.6265 5.2383-1.6797zm20.564 0.21094c1.851-0.0435 1.8115 0.37098 3.3945 1.1465 0.86633 0.4244 1.7076 1.2257 1.5312 2.0312-0.28492 1.3021-2.0171 1.6328-3.8262 2.0293-2.1152 0.46354-3.1211 0.67339-5.2539 0.26562-1.3991-0.26749-2.8938-0.36137-3.1719-1.5-0.22132-0.90639 0.57302-1.9675 1.5312-2.4726 1.695-0.89359 3.7713-1.4525 5.7949-1.5z" fill="#dfa892"/>
    </g>
    <path d="m572.02 466.39s-6.3641 20.539-9.3106 32.005c-5.2076 20.265-10.494 52.598-13.384 73.321-5.7016 40.891 1.14 95.492-7.9879 124.21-1.9114 6.0135-4.8398 9.454-7.6945 11.681-2.7729 2.1631-4.9551 9.5037-7.7036 12.979-4.7836 6.0484-6.0366 12.759-7.7506 18.595-1.8783 6.3953-6.802 10.704-4.0471 16.688 1.5042 3.2673 4.998 5.2679 8.1903 6.1178 5.887 1.5675 18.019-2.4629 18.019-2.4629 4.6756 2.4438 25.138 0.12264 25.138 0.12264 4.2563-1.1201 11.921 0.25956 17.162-0.15726 0 0 11.177-3.5545 13.405-11.413 3.0749-10.845-5.7674-39.675-3.6508-50.817 0 0 3.4582-22.581 6.3825-33.6 5.0508-19.032 19.203-55.863 19.203-55.863l13.656-31.096-54.505-120.73z" fill="none" stroke="#7e1911" stroke-width="2"/>
    <g fill-rule="evenodd">
     <path d="m1080 671.25s-7.798 14.463 9.1138 38.408c13.043 18.468 46.22 24.738 46.22 24.738s-13.492-33.155-22.134-48.173c-8.388-16.03-25.041-20.518-25.041-20.518z" fill="#dfa892" stroke="#7e1911" stroke-width="2"/>
     <path d="m1085.2 699.65c-1.0535-5.8164-7.452-12.767-0.4597-30.336 12.4 3.6178 23.674 9.1546 27.61 20.563-4.9593-5.3307-9.0407-7.5892-13.037-9.5479 0 0 9.7231 6.9543 13.404 11.568 3.5005 4.3875 7.8954 14.873 7.8954 14.873-3.6077-4.3252-7.1576-8.3036-10.282-9.7316 0 0 8.9916 10.765 12.669 16.709 3.4133 5.5165 8.6299 17.443 8.6299 17.443s-6.3249-1.4574-9.3644-2.5706c-4.3712-1.601-8.3509-3.0635-11.751-6.2429-5.302-4.9575-11.384-18.729-11.384-18.729-0.6485 5.692 3.5888 11.384 6.6101 17.076 0 0-5.7112-3.1238-7.5282-5.692-4.0805-5.7676-6.4265-20.198-6.4265-20.198-1.6841 6.1817 1.7239 12.363 3.6723 18.545 0 0-4.86-4.8385-6.2429-7.8954-2.949-6.5189-3.8559-21.116-3.8559-21.116z" fill="#eadacd"/>
    </g>
    <g fill-rule="evenodd">
     <path d="m397.58 467.55c-29.035 22.695-64.173 39.649-96.412 46.351 29.256 7.9255 64.203-1.2989 102.1-28.09 0.51292 0.73802-5.5249-17.783-5.686-18.261z" fill="#fdfbfb"/>
     <path d="m301.17 513.9c29.256 7.9255 64.203-1.2989 102.1-28.09 0.29281 0.42131-1.5492-5.4336-3.2141-10.625-19.001 19.18-66.202 44.625-98.884 38.716z" fill="#eadacd"/>
     <path d="m344.29 514.05c18.485-4.2227 38.295-13.613 58.983-28.24 0.18036 0.25951-0.44927-1.8623-1.3486-4.7436-18.417 15.496-42.53 26.296-57.634 32.983z" fill="#dfa892"/>
    </g>
    <path d="m397.58 467.55c-29.035 22.695-64.173 39.649-96.412 46.351 29.256 7.9255 64.203-1.2989 102.1-28.09 0.51292 0.73802-5.5249-17.783-5.686-18.261z" fill="none" stroke="#7e1911" stroke-linejoin="round" stroke-width="2"/>
    <g>
     <g fill-rule="evenodd">
      <path d="m543.73 240.2c-8.6149-0.10955-16.838 0.85848-24.193 3.5371-36.952 13.457-54.037 70.912-54.037 70.912-41.595 31.468-39.137 60.896-42.094 77.432 0 0-29.175 32.61-29.344 70.369-0.12759 28.564 23.248 59.598 29.398 87.492 7.666 34.767-13.484 83.682-10.508 119.07 1.4473 17.209 8.5509 37.119 27.574 39.115 31.006 3.2539 25.328-24.163 42.754-26.867 2.7532-0.42726 6.9902 0.94335 6.9902 0.94335 0.62301-6.9483-10.109-13.333-20.43-5.6562-2.5356-6.9766-10.391-7.8782-13.916-4.7246 0 0 2.3941 6.8694-0.14062 9.7637-1.741 1.988-5.705 3.6213-10.332 1.1582-6.7285-3.5818-8.384-11.888-7.957-17.234 1.5488-19.392 13.605-43.019 22.279-72.789 8.822-30.278 9.9309-70.275 5.3867-92.863-2.3813-11.837-6.2916-26.276-13.777-38.113 21.422 3.4187 29.103-3.9847 33.51-13.514 19.616 5.7182 38.471 5.2208 54.762-1.0078 0 0 14.029 3.0254 19.773 7.0137 10.443 7.2498 14.963 15.067 20.736 26.393 5.2953 10.387 9.5739 28.86 14.141 39.588 4.5816 10.762 16.047 26.246 17.414 28.076 0.023 0.55372 0.0332 1.1545 0.0605 1.6914 0.99794 19.581 2.0086 35.824 5.5117 55.115 4.3796 24.118 16.047 50.11 19.291 74.406 1.0028 7.5118 1.3184 15.274 0 22.736-0.61736 3.4944-2.0615 0.78679-3.6484 10-1.636 9.4979-12.044 14.673-14.742 23.861-1.8784 6.3953-3.2997 14.204-0.54492 20.188 1.5042 3.2673 4.9972 5.2692 8.1894 6.1191 5.887 1.5675 18.02-2.4629 18.02-2.4629 4.6756 2.4438 25.139 0.12109 25.139 0.12109 4.2563-1.1201 11.922 0.26057 17.162-0.15625 0 0 11.176-3.5555 13.404-11.414 3.0749-10.845-8.8495-24.878-10.672-36.072-1.7716-10.883 6.0881-55.417 0.0527-83.9-0.93769-4.4253-2.5043-7.2879-3.4434-11.713-3.1941-15.051-2.4207-30.965 0-46.16 1.3471-8.4559 5.4698-16.25 8.5234-24.293 4.8922 0.1178 29.817 0.79714 51.424 3.0703 36.389 3.8283 77.714 18.681 117.79 26.115 14.142 2.6234 29.702 0.36967 31.496-0.52734 14.069 27.999 43.985 39.688 58.057 67.686 10.69 21.27 20.392 46.253 15.881 69.627-1.83 9.4821-13.473 14.647-16.492 23.82-2.1011 6.3847-3.6908 14.181-0.60937 20.154 1.6826 3.2618 5.5894 5.2589 9.1602 6.1074 6.5852 1.5649 20.156-2.459 20.156-2.459 5.2301 2.4398 28.119 0.12305 28.119 0.12305 4.761-1.1182 13.336 0.25987 19.197-0.15625 0 0 12.502-3.5491 14.994-11.395 3.4395-10.827-7.5865-20.711-9.625-31.887-1.5473-8.4832 1.0257-17.307 0-25.869-4.4434-37.089-26.366-78.49-25.867-125.21 0.1946-18.232 1.5354-30.388 6.0215-43.541 0.4959-1.4541 2.4688 0.80274 2.4688 0.80274 19.711 50.287 27.976 96.233 63.797 148.43 9.0207 13.144 18.442 31.878 35.324 42.793-5.6553-11.592-17.399-33.892-28.057-49.23-10.778-15.511-22.782-35.52-48.398-120.14-16.807-55.521-16.172-132.81-55.449-189.52-12.969-21.918-29.161-42.298-55.365-60.088-33.265-22.584-71.363-40.576-111.03-47.137-42.14-6.97-88.212 8.5017-130.92 8.8008-14.301 0.10016-25.459-4.4484-39.73-5.5625-9.1142-0.71148-18.257 3.177-27.314 2-20.094-2.6112-49.472-12.636-75.316-12.965z" fill="#fdfbfb"/>
      <path d="m543.73 240.2c-8.6149-0.10955-16.838 0.85843-24.193 3.5371-36.952 13.457-54.037 70.912-54.037 70.912-41.595 31.468-39.137 60.896-42.094 77.432 0 1e-5 -29.175 32.61-29.344 70.369-0.12759 28.564 23.248 59.598 29.398 87.492 7.666 34.767-13.484 83.682-10.508 119.07 1.4473 17.209 8.5509 37.119 27.574 39.115 31.006 3.2539 25.328-24.163 42.754-26.867 2.7532-0.42726 6.9902 0.94336 6.9902 0.94335 0 1e-5 -5.2224-4.3468-11.354-1.9746-12.37 4.7861-15.878 23.671-33.729 22.848-21.484-0.99139-29.77-27.391-25.031-44.984 2.2223-8.251 6.6802-17.785 9.1152-22.691 7.79-15.696 10.364-25.86 12.715-34.838 3.0948-11.817 5.9103-21.578 7.2207-39.188 1.3106-17.612 3.3502-25.604-0.45703-42.85 4.4212-1.4076 8.8424 1.4371 13.264 2.2656 0.64328-4.3764-1.685-8.7545-6.877-13.131 4.0957 1.195 8.2754 1.9732 11.566 7.1914v-9.0664l-5.3144-21.256-9.3789-22.508c18.858 2.9153 28.507-3.3784 34.074-13.754 46.145 13.079 74.25-10.485 83.463-22.506 0.44394-0.51244 0.86602-1.037 1.293-1.5586-0.12285 0.15925-0.24078 0.32247-0.36719 0.47852 0.90717 3.104 2.0483 5.8165 5.4121 4.8262 0 0 0.73314-6.3933 1.9629-9.3203 0.91344-2.1741 1.6634-5.2148 3.9238-5.8867 2.3873-0.70967 4.3928 3.2265 6.8672 2.9434 3.0218-0.34576 3.8623-3.6742 5.7988-6.0195 2.1888-2.6508 7.4037-5.5708 5.9746-8.6973-1.2699-2.7782-7.3471 0.21742-8.8301-2.4531-1.4066-2.5331 0.78373-5.9697 2.4531-8.3379 1.2814-1.8178 4.7851-1.785 5.3945-3.9238 1.3062-4.5847-5.3945-13.246-5.3945-13.246l-0.49023-9.8106s5.9792 5.195 8.3379 8.3398c3.4686 4.6248 8.3398 15.207 8.3398 15.207 0.87167 0.87167 4.874-6.8537 0-15.697-2.7893-5.061-7.3574-15.697-7.3574-15.697s8.9706 5.7395 12.262 9.8106c1.1493 1.4217 2.4531 4.9043 2.4531 4.9043s2.8377-6.129 2.4531-9.3184c-0.7796-6.465-9.3203-17.17-9.3203-17.17s12.41 2.58 17.66 5.8867c5.773 3.6359 13.912 13.156 13.912 13.156s3.5362-5.4102-4.1016-14.627c-3.7617-4.5394-14.717-9.8125-14.717-9.8125s12.272-0.0401 18.15 1.4727c3.4729 0.89374 9.8106 4.4141 9.8106 4.4141s-5.1282-9.8911-9.2441-12.701c-4.015-2.7412-9.5125-2.6566-14.303-3.4863-5.3167-0.92093-16.188 0-16.188 0s13.515-5.7884 20.604-5.3945c4.5479 0.25272 8.4911 1.0298 12.754 2.6348 3.0985 1.1666 9.3203 5.7031 9.3203 5.7031 2.4319 0.40532-1.6092-8.9564-7.8496-12.754-3.748-2.2808-7.5014-4.8787-11.771-5.8867-1.9096-0.45081-7.873 0-7.873 0s8.2438-3.1904 11.719-2.8125c4.9519 0.53857 8.6866 3.5524 13.424 5.0918 3.5084 1.14 10.111 4.0977 10.111 4.0977s-3.9492-7.95-7.7598-10.791c-2.875-2.1435-6.3043-3.6634-9.8106-4.416-7.0343-1.5098-21.584 0-21.584 0s13.677-4.8835 20.602-3.9238c6.5189 0.90346 12.501 4.744 17.66 8.8301 2.0022 1.5858 4.9043 5.8867 4.9043 5.8867s0.9164-5.3992 0-7.8496c-1.7457-4.668-5.4559-8.8574-9.8105-11.281-5.3553-2.9808-15.342-4.1914-15.342-4.1914s9.028-0.34355 14.361 1.7383c4.6426 1.8122 8.4977 5.6779 11.283 9.8106 3.0924 4.588 5.3945 15.697 5.3945 15.697l5.4688 3.8242c-3.4114-8.5813-2.2588-19.31-12.043-28.053-4.6104-4.1199-8.9505-6.6226-15.066-7.5312-19.45-2.8898-43.909 5.5333-54.67 24.037-10.154 17.459-9.246 40.71-9.5078 61.67-0.0268 2.1449-0.0664 4.2652-0.13086 6.3535-0.0942 0.35927-5.197 19.789-9.9688 28.641-3.7381 6.9345-8.5599 13.446-14.379 18.756-5.9149 5.3979-20.32 12.816-20.32 12.816 2.253-3.7645 2.4481-6.7096 1.25-10.941-3.6301 7.1486-10.525 13.512-17.191 15.943-3.8419 1.3406-12.191 0.625-12.191 0.625s5.0083-1.2054 7.1895-2.502c10.474-5.9223 14.958-13.953 13.754-23.756-8.7895 11.717-17.202 22.712-32.438 20.127 10.178-3.3873 21.041-5.8063 26.811-28.256-9.3384 10.928-19.25 18.939-32.197 19.068l0.3125-3.4375 5.002-8.4414s-6.5469 2.6414-9.0645 5.002c-3.2472 3.0447-5.7385 5.927-7.9141 9.8105-2.0954 3.7404-4.8761 8.4206-7.7891 11.566-6.6727 7.2061-10.624 4.45-20.246 4.209 2.3929-7.7004 3.6641-13.464 14.512-23.375-1.2986-1.8818-3.591-2.7936-6.6191 0.21485 2.6298-4.6693 1.1345-2.2881 6.8965-8.2441-2.7977-1.8384-3.1351-2.1224-6.3652 1.502 2.2214-6.4866 1.8084-6.9348 6.0527-9.9434-2.4485-1.7987-4.7577-2.5486-7.6387 1.3965 0 0-0.0319-1.3492 1.4082-4.1934 1.4659-2.8953 6.8555-7.5176 6.8555-7.5176s-10.259 4.3731-13.539 6.7559c-3.16 2.2954-7.3634 4.611-8.127 8.4414-0.50314 2.5239 2.6479 4.6212 2.8125 7.1895 0.41219 6.4311-4.7457 12.79-5.6523 19.17-1.2152 8.5518-1.7629 17.792-1.7539 17.717l-17.289 16.254-2.0625-11.582c-0.23832-6.4311 0.37046-12.935 1.5254-19.211 2.1124-11.479 6.2533-22.839 12.465-32.721 2.2688-3.6093 7.2087-8.5144 10.576-11.67 2.0014-1.8754-1.8872 6.3675 5.4707 4.6894 4.7955-1.0937 12.307-13.459 12.143-15.916-0.0321-0.4797-1.6363-1.0061-3.1621-0.16992-2.1396 1.1725-5.566 3.29-4.1074 0.57422 0 0-0.97152-0.22099 2.0625-4.041 0 0-1.1934-16.769 7.5312-21.986 12.043-7.2014 20.71 1.5908 29.346-0.95313 2.073-0.61067 3.2461-3.1172 3.2461-3.1172l-26.488-4.457c11.631-12.684 9.6018-30.083 4.3164-45.318-1.818-4.5676 1.4279-5.4194 5.75-3.9473 27.476 12.466 46.894 11.808 76.268 5.1172l2.2969 0.65625s0.66883 2.8287 0.25977 4.1543c-0.8728 2.8284-3.1369 5.1642-5.4512 7.0098-2.2399 1.7862-5.0745 2.719-7.7891 3.6348-3.86 1.3021-7.8683 2.526-11.941 2.5957-3.8695 0.0662-11.422-2.0762-11.422-2.0762l2.3359 8.8262-7.0098-4.9316-2.0762 2.5957s-4.9363-3.9244-7.5293-5.7129c-2.0161-1.3906-3.7916-4.1168-6.2305-3.8926-1.4028 0.12896-3.1152 2.8555-3.1152 2.8555s-1.9444-3.9261-3.6348-5.1934c-4.5324-3.398-16.096-5.4512-16.096-5.4512s5.2055 7.6377 6.75 11.941c1.5138 4.2182 0.97281 8.971 2.3359 13.24 1.1656 3.6506 4.9336 10.385 4.9336 10.385 0 0 3.916-4.7062 4.9316-7.5293 1.3263-3.6868 1.2988-11.682 1.2988-11.682s8.6235 8.6122 11.162 14.02c1.8032 3.8407 2.5957 12.461 2.5957 12.461s2.3608-4.7075 2.5977-7.2695c0.40337-4.3632-2.0781-12.98-2.0781-12.98 11.429 12.84 6.6129 33.888 3.3262 36.963 3.489 10.297 4.9386 19.563-0.21094 25.604 5.0459-0.59107 11.156-0.95868 16.248-5.3711 7.2523-6.2841 12.439-18.083 9.541-27.387 4.8112 10.117 3.6012 28.854-2.9434 46.518 8.1489-4.4488 13.441-13.676 16.615-21.029 2.1936-5.1571 2.6713-10.886 3.8945-16.355 1.6596-7.4201 4.6738-22.326 4.6738-22.326l1.8301 17.67 2.0957-5.0352c4.3712-10.503-5.1274-30.192-2.4629-42.689 2.2208-10.416 6.529-14.512 12.119-20.373 13.332-13.978 35.218-16.888 57.615-17.881l4.9062 1.4726 9.8106 1.9629 4.9043 2.9414c-1.8658-15.797 11.354-21.264 21.094-19.621 15.661 2.6414 14.974 15.635 24.533 16.619 9.2628 0.95356 17.949-12.467 28.859-15.609 16.427-4.7304 37.05-7.309 55.467-6.3984 28.095 1.389 43.968 18.795 69.031 31.498 16.362 8.2927 36.027-0.3453 53.953 8.209 23.224 11.082 49.653 34.415 62.994 53.486l29.123 41.629-11.178-26.084-12.686-20.736c-12.969-21.918-29.161-42.298-55.365-60.088-33.265-22.584-71.363-40.576-111.03-47.137-42.14-6.97-88.212 8.5017-130.92 8.8008-14.301 0.10016-25.459-4.4484-39.73-5.5625-9.1142-0.71148-18.257 3.177-27.314 2-20.094-2.6112-49.472-12.636-75.316-12.965zm-1.1016 9.9805c14.862 0.0218 32.081 8.6718 30.094 13.072-3.9687 8.7873-0.13568 10.167-6.291 12.885-7.5769 3.3451-25.385-2.4071-30.277 3.2676-5.3964 5.0497 20.245 6.1639 13.734 15.207-16.979 10.815-37.827 9.8631-60.826 2.4531 0 0-2.4742-0.59656-2.6914-1.6211 5.4898-7.941 11.381-20.832 17.67-26.703 9.696-9.052 20.928-16.51 34.074-18.277 1.4631-0.19667 2.9762-0.28546 4.5137-0.28321zm-50.529 40.707-1.3594 3.3965c21.76 7.4716 45.581 5.6052 53.32-2.7168-17.861 4.3083-34.746 4.7132-51.961-0.67968zm108.02 10.564s-4.4415 1.7628-6.2031 3.3086c-3.5656 3.1289-6.5293 7.1678-8.2715 11.58-10.011 25.353-3.3507 54.829-10.754 81.062-1.4751 5.227-3.7692 10.266-6.6172 14.891-2.0549 3.3368-7.4453 9.0976-7.4453 9.0976s6.4059-3.7798 8.6856-6.6172c3.9019-4.8565 7.8788-11.359 9.5117-17.371 4.5018-16.574 1.0522-33.905 3.7226-50.871 1.602-10.178 1.9135-20.825 6.2051-30.191 2.5841-5.64 11.166-14.889 11.166-14.889zm121.33 8.2754v3.8945s5.1926 11.307 6.375 17.355c1.9944 10.202 2.1115 20.824 1.0625 31.166-0.6617 6.5237-4.6035 19.125-4.6035 19.125 0 0 7.452-10.509 9.207-17.709 2.4643-10.11 1.4643-24.708-1.416-34.707-2.1646-7.5147-9.5625-18.418-9.5625-18.418l-1.0625-0.70703zm194.54 6.8789c19.064 16.834 30.575 26.164 40.361 49.938l-6.1582-20.521c12.69 8.9327 19.289 20.911 28.732 31.467-17.664-32.009-29.963-43.624-62.936-60.883zm-211.56 1.5664c2.7297 9.3711 17.263 27.23 8.291 49.662 13.074-11.849 6.8357-37.864-7.1172-49.158l-1.1738-0.50391zm-11.334 3.541c2.7297 9.3711 17.263 27.23 8.291 49.662 13.074-11.849 6.8357-37.862-7.1172-49.156l-1.1738-0.50586zm175.03 5.125s8.9579 14.243 11.848 22.08c2.9236 7.9285 5.3848 24.771 5.3848 24.771-6.8145-17.682-5.0414-24.376-23.156-33.389 9.7523 8.0634 12.422 21.194 17.232 30.695 2.9418 5.6551 5.9238 14.002 5.9238 14.002s-5.5132-6.1102-9.1543-11.309c-7.519-12.934-2.1433-16.391-18.85-21.541 7.2506 6.2321 11.114 14.17 13.959 22.869-8.9863-13.479-21.579-23.712-38.514-30.037-1.3508-0.53618-2.4533-0.75302-3.4297-0.79102-2.9291-0.11391-4.7184 1.3822-8.6348 0.69727 12.081 19.876 26.799 39.341 32.789 62.152 2.1181 13.707 4.8261 30.409 4.7324 44.318-0.0245 3.6327-3.0881 4.5108-3.0293 8.1328 0 0-2.5274-5.2656-4.1348-12.879-1.8979-8.99-3.1166-21.011-6.0703-28.023-1.8605-4.4168-7.5488-12.236-7.5488-12.236s3.4284 10.761 3.9707 17.473c1.2826 15.875 0.1541 34.433 0.6582 39.205 0.93944 8.894 2.1094 15.834 2.1094 15.834l-6.7676-5.8652c-1.5757 10.678-1.2628 21.357 3.1582 32.035 0 0-13.484-21.932-14.439-23.463-1.2917-2.0711-6.7895 21.017-4.3438 23.297l-10.545-6.1504-2.707 14.438-9.9258-12.182-5.2051 9.6055c6.295-12.65-9.8847-23.579 8.0273-52.135-14.532 10.615-27.77 22.137-32.734 40.914l-8.4414-20.043-8.1211 17.146c1.7042-11.03 6.2457-14.324-5.4141-32.035-5.0742 2.3101-8.2448 12.736-12.184 25.266 1.1149-13.536 4.6121-52.062-0.72852-63.764-1.419 19.953-6.3993 40.675-15.514 54.74l0.0664-9.4336c-0.7385-7.9419 3.211-17.391 3.2676-25.367 0.0339-4.7802-0.10444-9.6131-1.0215-14.305-1.9698-10.077-8.2151-19.109-9.5371-29.291-0.77593-5.9765-2.0815-12.074-1.3066-18.051 0.72999-5.6305 3.4062-16.689 3.4062-16.689s-7.4794 11.564-9.5371 18.051c-2.146 6.7649-2.591 14.021-2.7246 21.117-0.14168 7.5225 2.0933 14.955 2.0449 22.479-0.0565 8.7886-0.81218 17.647-2.7266 26.225-2.2524 10.092-10.217 29.291-10.217 29.291s-7.8882-12.73-11.24-19.414c-2.3255-4.6372-6.1289-14.303-6.1289-14.303s-1.9739 11.873-1.0234 17.709c1.3758 8.4479 5.7766 16.153 9.5371 23.842 3.0626 6.2619 8.5796 11.367 10.559 18.051 1.3874 4.6859 1.2141 9.7866 0.68164 14.645-0.75615 6.8988-1.3568 14.491-5.4492 20.096-1.3555 1.8566-3.4998 3.5602-5.791 3.7461-1.9762 0.16032-3.8116-1.267-5.4492-2.3848-3.1826-2.1722-5.8939-5.0674-8.1738-8.1738-3.4852-4.7487-5.9736-10.202-8.1738-15.666-1.865-4.6317-3.201-9.4454-4.457-14.287 0 0 3.3416-10.98 3.5449-16.652 0.21898-6.109-0.43706-12.42-2.5234-18.166-2.1662-5.9657-10.092-16.145-10.092-16.145l7.0644 18.668 1.5137 12.109-3.2246 6.5449c-1.7003-5.374-5.4492-16.008-5.4492-16.008s-0.6909 22.378 1.0215 33.377c1.1443 7.35 4.8774 14.125 6.1309 21.457-1.3082-2.1804-23.888 20.35-5.1406 52.322h-5.2383l13.098 17.684h-8.5137l15.064 16.375h-9.8242l7.8594 8.5137-5.2402-0.6543 9.1699 12.445h-9.1699l15.064 22.924-9.8242-3.2754 9.1699 14.408-9.1699-1.9648 5.8945 14.41-9.8242 0.65429 11.609 12.023c-0.83523 1.0882-2.7225 0.78987-3.7461 1.7031-2.4698 2.2036-5.1094 8.5156-5.1094 8.5156l8.8555 2.043s-6.6592 1.8924-9.1953 4.0879c-1.6175 1.4003-2.6661 3.4726-3.5254 5.7285l19.16 3.6641s5.5859 4.6435 6.5644 7.9336c1.1512 3.8705-1.3672 12.037-1.3672 12.037s-4.1766-4.1457-6.8398-5.1973c-3.3252-1.3129-7.1669-1.8189-10.668-1.0957-3.4782 0.71845-9.3008 5.1992-9.3008 5.1992s-0.47308-3.1761 0-4.6523c1.4363-4.482 9.3008-9.3008 9.3008-9.3008s-11.391-1.3377-15.594 2.1894c-3.093 2.596-6.5644 10.941-6.5644 10.941s-5.5864-2.5605-8.207-3.0078c-3.5786-0.61078-9.3008 1.0938-9.3008 1.0938 0 0 0.74722-5.4293 2.1875-7.6602 2.5238-3.9092 10.654-9.0195 10.654-9.0195-1.4115-4.5261 3.1493-8.9754 4.0859-13.623 1.6916-8.3942 2.9047-16.982 2.7246-25.543-0.21002-9.9845-2.2313-19.889-4.4277-29.631-3.8625-17.132-11.787-33.207-15.326-50.408-2.9005-14.097-3.9716-28.543-4.7676-42.914-0.97313-17.57-0.23935-35.196 0-52.791 0.22708-16.693 1.3633-50.066 1.3633-50.066-0.81751 0.10702-1.2255-1.084-3.748 4.4277 0 0-1.0636-31.629 2.0449-47 4.0101-15.535 4.3458-20.544 15.744-29.066 2.474-1.8109 4.7736-2.2811 6.3633 2.6875 3.4888 13.251 4.1405 24.956-4.4531 38.773 10.44-3.1548 11.733-23.668 8.6777-48.443 9.1988 18.243 6.7753 38.018-2.1289 51.588 14.743-5.1672 15.604-35.81 10.135-61.291 0 0 7.119 16.009 7.8301 20.678 0.7105 4.6652 0.85013 16.456 0.41211 21.154-0.32787 3.517-2.6582 14.48-2.6582 14.48 0 2.0944 4.7973-5.0144 6.3262-13.695 1.2932-7.3428 2.983-14.865 2.0957-22.268-0.92358-7.7054-7.1504-23.4-7.1504-23.4 0-0.79849 6.5154 4.7224 9.7324 15.875 2.6263 9.1047 3.1476 18.082 2.8828 17.553 0.94522 3.8219 3.3459-5.1273 0.52344-17.816-0.96629-4.3442-1.9752-8.7201-3.668-12.836-1.9326-4.699-9.4316-14.934-9.4316-14.934s7.1244-9.2416 11.266-10.48c17.045-4.0472 20.962 9.634 20.848 24.408 7.8463-11.688 1.5432-23.724-6.9629-29.91l-9.6934-1.834-12.312 5.2402-7.5976 8.3848-5.7637 11.002-5.2402 10.48-7.8594 7.3359-7.0176 3.6367-4.0879 2.3848-7.834 6.4707-7.832 15.668-17.711 13.283-16.348 22.137c-7.759-3.4059-8.9317-6.8109-12.602-10.217-5.6704 4.3126-9.4408 8.6249-21.971 12.938 0 0 14.029 3.0254 19.773 7.0137 10.443 7.2498 14.963 15.067 20.736 26.393 5.2953 10.387 9.5739 28.86 14.141 39.588 4.5816 10.762 16.047 26.246 17.414 28.076 0.023 0.55372 0.0332 1.1544 0.0605 1.6914 0.99794 19.581 2.0086 35.824 5.5117 55.115 4.3796 24.118 16.047 50.11 19.291 74.406 1.0028 7.5118 1.3184 15.274 0 22.736-0.61736 3.4944-2.0615 0.78679-3.6484 10-1.636 9.4979-12.044 14.673-14.742 23.861-1.8784 6.3953-3.2997 14.204-0.54492 20.188 1.5042 3.2673 4.9972 5.2692 8.1894 6.1191 5.887 1.5675 18.019-2.4629 18.02-2.4629 4.6756 2.4438 25.139 0.12109 25.139 0.12109 4.2563-1.1201 11.922 0.26057 17.162-0.15625 0 0 11.176-3.5555 13.404-11.414 3.0749-10.845-8.8495-24.878-10.672-36.072-1.7716-10.883 6.0883-55.417 0.0527-83.9-0.93769-4.4253-2.5043-7.2879-3.4434-11.713-3.1941-15.051-2.4207-30.965 0-46.16 1.3471-8.4559 5.4698-16.25 8.5234-24.293 58.888-2.059 116.96 19.163 169.21 29.186 14.142 2.6234 29.702 0.36967 31.496-0.52734 14.069 27.999 43.985 39.688 58.057 67.686 10.69 21.27 20.392 46.253 15.881 69.627-1.83 9.4821-13.473 14.647-16.492 23.82-2.1011 6.3847-3.6908 14.181-0.60937 20.154 1.6826 3.2618 5.5894 5.2589 9.1602 6.1074 6.5852 1.5649 20.156-2.4589 20.156-2.459 5.2301 2.4398 28.119 0.12305 28.119 0.12305 4.761-1.1182 13.336 0.25987 19.197-0.15625 0 0 12.502-3.5491 14.994-11.395 3.4395-10.827-7.5865-20.711-9.625-31.887-1.5473-8.4832 1.0257-17.307 0-25.869-4.4434-37.089-26.366-78.49-25.867-125.21 0.1946-18.232 1.5354-30.388 6.0215-43.541 0.4959-1.4541-17.184-49.335 2.4688 0.80274 19.711 50.287 27.976 96.233 63.797 148.43 9.0207 13.144 18.441 31.877 34.826 42.471 0 0-7.9171-9.0071-11.471-13.828-9.1693-12.439-17.585-25.457-25.326-38.832-8.0693-13.942-15.51-28.288-21.947-43.055-9.8185-22.523-17.273-46.01-25.326-69.223-6.3584-18.327-12.364-42.427-16.637-61.35-4.4048-19.508-4.3728-34.029-9.1113-53.459-2.1304-8.7354-5.0803-17.379-9.2852-25.326-4.857-9.1802-18.15-25.326-18.15-25.326s5.1047 13.349 4.6426 20.262c-0.40089 5.9972-5.0126 11.019-6.332 16.883-4.5027 20.012-3.4612 33.499 0.25391 45.9 0 0 3.2915 13.197 2.3281 19.758-0.97556 6.644-5.3833 12.304-8.0098 18.484-3.1329 7.372-7.1612 14.447-9.2422 22.182-2.0451 7.6016-4.0966 15.608-3.082 23.414 1.1159 8.5857 4.6332 17.126 9.8594 24.029 3.6208 4.7825 14.172 11.092 14.172 11.092l-10.475-0.61719 9.8574 11.092-7.3926 1.8477 13.555 14.789-7.3945 1.2324 12.324 11.09h-14.172s3.9443 13.521 8.0098 19.102c3.345 4.5914 12.939 11.09 12.939 11.09-0.23713 4.2024-9.3757 2.0482 0.61518 13.557 0 0-6.4106-0.99907-9.2421-2.4648-4.2737-2.2123-11.09-9.2422-11.09-9.2422s2.4466 10.223 4.9297 14.787c2.5139 4.6209 9.8574 12.322 9.8574 12.322l-8.0098 6.1621 19.377 8.1308s-7.1333 1.1154-9.707 3.377c-3.5449 3.1151-6.332 12.664-6.332 12.664s19.408-0.76694 28.48 9.8555c3.6836 4.3127 3.5996 16.736 3.5996 16.736 0-1.1086-6.5072-8.5572-13.365-7.9473 4.8833 2.9512 9.2967 6.1783 9.4902 11.865-9.4478-5.7862-24.309-9.9648-32 1.1894 0.0349-5.7898 2.8215-10.186 5.375-15.203-3.2567-0.59962-9.4889 1.332-16.783 9.5274 0.35723 1.6967-5.1749-6.7774-14.912-4.0059-1.549-7.2083 15.05-13.36 17.453-20.33 3.4009-9.8656 0.0195-21.019-2.1113-31.234-2.4717-11.85-7.2083-23.18-12.24-34.189-5.2378-11.46-10.952-22.889-18.572-32.924-9.9881-13.152-25.844-21.311-35.033-35.033-5.0888-7.5988-7.5703-10.917-10.553-19.562-3.6178-10.487-6.8856-17.959-8.8633-28.875-2.5434-14.038-2.86-37.365-1.877-51.598 0.7761-11.236-0.2696-27.47 1.7363-38.553-0.43888-13.6-2.0076-26.185-4.8945-37.582 1.5205 1.8551 2.9444 3.9439 3.8418 6.082 5.0259 11.974 3.7695 43.082 3.7695 43.082s7.0004-16.137 5.3848-32.312c-1.8197-18.219-11.309-28.004-11.309-28.004s8.5564 5.5609 11.309 9.6934c3.5558 5.3391 5.9238 18.311 5.9238 18.311s0.16109-14.563-1.6152-21.541c-2.4775-9.7326-6.8624-14.599-9.6934-24.234-2.4045-8.1842-3.041-20.727-6.4629-28.541-3.79-8.6543-17.771-22.08-17.771-22.08zm-417.98 19.242c0.40482-8e-3 0.81581 0.0835 1.2344 0.29688 1.1348 0.57857 2.7756 0.54353 3.2383 1.8438 0.87776 2.4669-4.5804 4.7816-6.2617 6.5176-3.0302 3.1288-7.2794 10.909-10.57 18.166-3.0123 6.6429-4.2012 9.0703-4.2012 9.0703-0.29848-0.38029-0.79726-1.1844-0.67578-1.6524 0.34735-9.2344 7.1116-29.458 17.236-34.242zm30.924 19.164c-1.6325 0.0416-3.1992 0.35413-4.6172 1.0644-8.2538 4.2286-6.2826 13.458-6.8145 15.254-0.33585 1.1327-0.62217 3.1533 0.48828 3.5566 5.0088 1.087 10.721 0.57908 14.908-2.4004 2.1054-1.4982 6.0464-3.4029 8.1875-10.01 8.2741-0.47171 9.2756-3.1012 8.416-5.5625 0.0582-1.0409-4.861 2.1983-9.7012 0.40235-3.3632-1.1767-7.2757-2.3963-10.867-2.3047zm21.625 9.3691s-1.3975 5.089-2.9297 6.8828c-2.0134 2.3572-4.3753 3.7175-7.3203 4.6856-4.5037 1.4803-10.332 0.58085-14.789 2.1953-2.2946 0.83109-5.418 4.1016-5.418 4.1016s4.7982-2.1238 6.8809-2.4902c5.0003-0.87965 9.1866 1.142 14.057-0.29297 4.1837-1.2327 8.5425-3.8929 10.25-7.9062 0.99694-2.3432-0.73047-7.1758-0.73047-7.1758zm7.3164 10.221c-0.37991-0.0187-0.74608-2e-3 -1.0488 0.0762-2.804 0.72652-4.3606 3.8272-6.8945 5.2305-2.5867 1.4325-8.4375 2.7324-8.4375 2.7324s2.9132 0.78655 4.3965 0.71485c2.3325-0.1127 4.708-0.69738 6.7754-1.7832 2.9599-1.5546 7.6074-6.537 7.6074-6.5371 0 0-1.2587-0.37742-2.3984-0.43359zm4.584 4.3652s-2.361 2.4587-3.7949 3.3476c-1.844 1.1431-6.0273 2.457-6.0273 2.457s3.1456 1.2842 4.6875 0.89258c2.0502-0.52078 3.9276-2.1473 4.9121-4.0195 0.41705-0.79312 0.22265-2.6777 0.22265-2.6777zm70.891 0.93554c-0.97096 10.158-3.2163 19.05-8.5918 25.439 4.4752-7.6121 7.3846-16.068 8.5918-25.439zm83.875 112.65c-1.242-0.0704-2.6516 0.17109-3.6914 1.2109-2.4162 2.4162-2.696 5.8016-2.3223 9s1.3776 6.4315 1.9199 9.0469c1.3456 6.4893 3.6151 13.296 8.0742 18.545 1.079 1.2702 2.3958 2.8072 3.9746 4.0234 1.5788 1.2162 3.532 2.1715 5.7168 1.8516 1.4319-0.2097 2.4844-1.1302 3.2207-2.1094 0.73633-0.97921 1.2217-2.0808 1.5469-3.0664 1.9141-5.8019 0.66096-12.207-1.1973-17.639-1.5503-4.5311-5.0199-7.7374-7.3379-11.096-0.85261-1.2353-1.5784-2.8939-2.5-4.5293-0.92156-1.6354-2.0882-3.311-4.0039-4.2969-0.98031-0.50449-2.1584-0.87104-3.4004-0.94141zm-215.39 18.42s0.31341 29.061-1.2402 44.092c-1.4567 14.094-5.0857 27.906-8.6953 41.607-3.986 15.13-16.768 42.85-16.768 42.85s16.291-24.912 21.115-39.123c4.7129-13.884 8.3685-28.271 9.9356-42.85 1.6152-15.026 0.62109-44.092 0.62109-44.092l-4.9688-2.4844zm8.9394 149.1c1.7331 2.6873 7.5262 9.6909 3.5801 17.133 3.7631-8.1715 8.3136-13.662 14.256-14.424-2.9121-0.2827-6.9301 0.59262-10.889 3.5371-1.3236-3.6418-4.0971-5.6277-6.9473-6.2461z" fill="#eadacd"/>
      <path d="m543.73 240.2c-8.6149-0.10955-16.838 0.85848-24.193 3.5371-36.952 13.457-54.037 70.912-54.037 70.912l-3.0879 2.3965c-38.386 30.56-36.125 58.92-39.006 75.035 0 0-29.175 32.61-29.344 70.369-0.12012 26.892 20.587 55.971 28.145 82.561l-0.5039-2.5195c9.8644-3.3369 18.72-1.2202 28.584 0.0781-7.6813-3.6548-19.905-6.04-30.361-5.4062l-0.88671-2.3672c10.087-0.63947 20.256-1.1134 31.664 0.88867-11.147-4.9076-22.293-4.6487-33.439-5.0312l-0.59179-1.4805c11.675-1.3682 23.361-2.7956 34.381-0.88672-9.5946-3.5429-22.572-3.7026-36.156-3.2559l-0.88867-1.7754c12.402-1.7249 22.27-3.462 38.611-0.59179-9.274-4.7446-17.519-6.679-26.943-5.1562-0.2432 0 6.6471-3.3921 14.822-5.0957 5.8442-1.2178 15.753 2.2623 15.943 2.4531-4.0741-3.4452-4.0651-6.4106-12.508-8.0957 6.6192-3.582 9.9267-1.6503 15.695-0.73437 0 0-4.6676-6.0088-8.584-6.8672-8.2504-1.8082-16.918-3.276-25.262-1.9629-4.8893 0.76946-13.734 5.6406-13.734 5.6406s7.2069-7.2042 11.527-9.8106c4.5238-2.729 9.527-4.8876 14.715-5.8867 3.3718-0.64935 10.303 0 10.303 0s-8.1324-3.7752-12.51-4.1699c-4.6061-0.41533-9.3422 0.5146-13.734 1.9629-4.412 1.4548-15.562 7.5644-15.562 7.5644 6.2804-11.127 16.649-13.062 34.043-15.125-10.445-5.2466-22.698-1.5913-38.756 5.0879 7.5329-11.198 23.631-14.573 39.15-13.869-12.327-2.8611-19.726-5.2128-40.074 4.627 8.7404-11.567 25.785-13.333 39.354-11.543-14.731-7.5101-25.494-3.319-38.902 3.7031 5.6752-12.215 27.913-13.077 39.031-12.4-9.8912-4.923-25.603-4.1181-39.463 3.1289 6.9261-12.022 24.169-12.737 37.887-11.514-10.105-3.4812-20.847-5.585-35.137 0 4.5008-5.9354 9.7575-12.42 36.252-6.2656-8.3285-9.6243-20.488-5.3878-33.48-4.3516 7.0338-6.3719 20.989-11.142 35.457-3.502-5.8844-6.8999-9.8862-9.1627-30.852-6.1934 4.5618-2.0619 11.804-10.845 33.227-1.7227-9.8162-13.13-23.417-5.1338-29.523-5.2031 7.6994-4.4561 20.382-6.5259 31.635-2.8945-7.6154-6.3702-17.876-5.9213-27.873-4.9824 5.9768-4.1094 18.611-3.9012 29.389-1.9434-4.9028-3.725-15.899-6.4969-25.652-4.7559 9.1128-5.6659 19.51-4.0053 30.01-2.0449 0 0 0.58456 1.7459 1.2441 2.3281 3.9839 0.19588 9.673-9.5738 12.354-13.096 0.36791-2.0508-5.9297 1.9766-5.9297 1.9766-6.0268-1.4992-12.217-1.9325-18.406-2.3477 4.887-2.6368 10.32-2.72 15.812-2.7168-9.6743-5.821-23.344 2.0623-25.549-1.1777-1.9049-2.7992-2.3955-7.2132-1.918-9.4551 1.5707-6.3497 3.4276-12.844 5.3476-17.375 3.0016-7.0838 6.8522-14.019 12.07-19.672 4.6299-5.016 14.605-16.047 17.438-9.8359 0 0 0.50861 15.487-2.2363 23.695-2.2809 6.8208-7.3503 12.456-12.07 17.883-3.9474 4.5384-13.414 12.072-13.414 12.072 6.0896-1.9834 11.605-1.0852 18.779-8.4941l3.5762 6.2578s-0.4412-7.685 0.89453-11.176c1.4061-3.6747 4.0981-6.9084 7.1524-9.3887 2.6908-2.1852 5.9787-3.848 9.3887-4.4707 3.5307-0.64481 7.2023 0.2338 10.73 0.89258 2.5959 0.48472 4.9716 1.9974 7.6016 2.2363 2.8355 0.25757 8.4941-0.89453 8.4941-0.89453s-8.2699-5.2652-12.965-6.2598c-4.522-0.95795-13.861 0.44727-13.861 0.44727 5.447-12.57 8.3161-32.326-3.1289-44.262 0 0 16.669-49.698 50.586-60.791 30.934-10.118 76.862 11.348 94.561 13.088 7.7917 0.76608 14.955-2.9262 22.771-3.3691 12.366-0.70079 26.559 5.5622 40.051 5.9863 40.47 1.2721 94.134-15.094 134.09-8.5117 40.714 6.7076 76.552 23.386 109.04 45.092 39.342 26.281 58.4 55.748 58.4 55.748-12.969-21.918-29.161-42.298-55.365-60.088-33.265-22.584-71.363-40.576-111.03-47.137-42.14-6.97-88.212 8.5017-130.92 8.8008-14.301 0.10016-25.459-4.4484-39.73-5.5625-9.1142-0.71148-18.257 3.177-27.314 2-20.094-2.6112-49.472-12.636-75.316-12.965zm-121.52 304.81 0.38282 1.9199c0.0436-0.0128 0.0873-0.0206 0.13086-0.0332-0.16397-0.62763-0.33446-1.2562-0.51368-1.8867zm0.51368 1.8867c0.26604 1.0183 0.51745 2.0346 0.74023 3.0449 1.6877 7.6542 1.9782 15.994 1.4375 24.725 7.4183-2.7169 14.836-3.8217 22.254-2.582-6.854-3.5619-14.391-3.0235-21.898-2.6641l0.29492-3.5508c7.2061-0.68549 13.5-2.2837 21.9-1.7754-7.201-4.6856-14.402-2.1699-21.604-2.6641l-0.5918-3.8476c7.5956-0.92161 15.192-3.3428 22.787-1.1836-8.2838-4.2754-17.906-3.9464-23.084-2.0723l-0.88671-3.5508c8.6807-2.4882 17.36-1.3439 26.041-0.5918-9.1304-3.2378-18.26-5.9279-27.391-3.2871zm2.1777 27.77c-0.0787 0.0288-0.15762 0.0509-0.23633 0.0801 0.0768-2e-3 0.15362-2.3e-4 0.23047-2e-3 2e-3 -0.0259 4e-3 -0.0522 6e-3 -0.0781zm-6e-3 0.0781c-0.0883 1.4135-0.20457 2.8389-0.33398 4.2715l0.10351-0.71875c7.023-0.71217 14.207-0.77811 21.898 1.1836-7.2228-4.436-14.445-4.8844-21.668-4.7363zm-0.33398 4.2715-0.48828 3.4258c0.0502-3e-3 0.10022-5e-3 0.15039-8e-3 0.12553-1.1449 0.23542-2.2837 0.33789-3.418zm-0.33789 3.418c-3.1829 29.028-13.397 61.264-11.268 86.58 2.3894-1.9562 1.8398-2.4436 9.0781-6.8242-1.459-1.1181-4.7755 0.55091-8.916 3.4551v-4.8066c2.3266-1.7562 4.2269-3.5114 10.447-5.2676-3.7684-1.8727-6.8342-0.23968-9.9512 1.1445v-4.9394c3.0311-2.1432 6.0578-4.2914 11.715-3.8086-3.7911-3.9308-7.5838-1.3648-11.375-0.99804l0.6504-5.1016c5.0136-2.1231 10.027-4.446 15.041-3.3066-3.8152-3.1732-8.81-2.535-13.877-1.6602l0.81054-4.6113c4.0687-3.2182 9.9255-4.2924 17.357-3.4746-5.4531-4.1519-10.906-3.7049-16.359-4.7793l0.99024-4.457c7.7045-1.0512 15.409-3.2026 23.113-1.7734-6.0883-4.2897-14.652-2.8031-22.639-2.6641l1.332-4.4375c6.5186-1.2689 13.739-1.84 22.934-0.44531-8.131-4.4599-15.253-4.883-22.047-3.9941l0.88867-3.9961c7.5956-2.5375 12.668-0.4824 20.264 0.10547-3.1995-2.6989-11.792-6.5728-19.82-4.9883l1.0352-4.291c6.1154-1.6921 13.102 1.166 19.828 2.6641-5.7086-3.8935-11.764-7.2076-19.471-7.7715 7.201-2.9909 13.897-3.678 21.098-1.9942-6.9536-3.5151-13.906-4.0109-20.859-3.5586zm224.44-295.22c-0.69688 4e-3 -1.6226 0.093-2.6621 0.23243 1.4806 0.0848 2.9504 0.2115 4.3926 0.42578 0.23914-0.43842-0.40926-0.66625-1.7305-0.65821zm-2.6621 0.23243c-2.4538-0.14062-4.947-0.12796-7.459 0.0781-16.414 1.347-33.438 9.9823-42.818 24.385-12.616 19.371-8.6258 46.841-10.311 71.582 0 0 2.6346-10.776 3.8789-20.635 0.74186-5.878 10.631-10.204 11.666-16.611 1.9508-12.074-4.2533-26.165 1.3457-34.186 11.259-16.127 34.094-23.326 43.697-24.613zm-177.2 30.895c0.6756-0.0285 1.3704 0.29148 1.8828 1.1602 6.7288 8.7293 5.5837 21.317-0.92187 31.727 2.513-11.668 3.8045-21.286-2.9844-29.795-0.85512-1.2831 0.53712-3.0292 2.0234-3.0918zm97.631 7.4512c-0.0641-0.0138-0.13752-0.0125-0.21875 2e-3 -1.4081 0.25126-5.2365 4.5997-6.0195 8.0645-0.60651 2.6836 0 6.5391 0 6.5391l-4.252-3.9238c-2.9652-0.69651-7.6509-3.6524-5.5586 2.2891l0.6543 8.502-8.502-5.8848c-5.1258-2.8703-4.4992 0.45415-5.5605 1.9609 0 0 3.6752 11.906 3.2695 17.986-0.34958 5.2394-4.1929 11.602-4.5781 12.754-0.95636 2.8593 1.1189 4.2891 1.9629 7.1836 0.35716 1.2249 0.54883 5.3711 0.54883 5.3711s7.5105-3.8983 8.9356-12.227c0.75379-4.4053 0-13.408 0-13.408s3.2209 2.5319 4.5273 5.2617c2.2832 4.7696 3.553 11.818 3.9356 17.092 0.26812 3.6966 0 11.117 0 11.117 4.0979-12.455 4.8442-20.931 0.32812-36.953 7.2983 11.53 4.899 24.135 2.3828 37.607 0 0 4.1558-8.6018 5.1387-13.08 1.7884-8.1485 2.9434-24.854 2.9434-24.854l3.3086-9.5996-1.9629-9.1562-0.98047-12.1c0-0.32959-0.11037-0.50336-0.30273-0.54492zm270.61 26.283s15.674 20.744 21.193 32.414c4.9286 10.42 8.0821 21.692 10.369 32.99 3.2876 16.241 4.7129 49.486 4.7129 49.486s-3.5495-30.903-8.0117-45.717c-3.5104-11.654-8.2292-23.096-14.609-33.461-3.7433-6.0809-13.668-16.496-13.668-16.496s7.1745 9.7204 9.8965 15.082c6.0761 11.969 10.774 24.709 14.139 37.703 4.5395 17.529 8.0117 53.729 8.0117 53.729l2.8281 24.037s-2.4092-4.4627-3.7695-6.5996c-5.2666-8.273-13.259-14.956-16.967-24.035-2.2263-5.4515-2.8281-17.439-2.8281-17.439s-1.6437 14.024 0 20.738c2.0217 8.2584 8.5604 14.755 11.783 22.623 3.8615 9.4271 8.9531 29.219 8.9531 29.219s-11.542-15.032-16.494-23.092c-4.0832-6.6456-10.84-20.738-10.84-20.738s2.606 17.313 5.6543 25.451c3.5755 9.5457 14.611 26.863 14.611 26.863 0 0-10.933-8.1849-16.023-12.725-4.6428-4.1405-10.099-7.8029-13.197-13.197-3.0746-5.3529-4.7129-17.908-4.7129-17.908s-0.1711 7.9034 0.4707 11.781c0.72236 4.3646 1.9909 8.6748 3.7715 12.725 3.687 8.3856 14.139 23.566 14.139 23.566 0 0-14.691-9.3813-20.738-15.553-4.333-4.4219-10.84-15.082-10.84-15.082s2.6682 9.3041 4.7129 13.668c2.9607 6.3189 10.84 17.908 10.84 17.908s-23.339-10.471-29.691-20.736c-2.2563-3.6464-1.8848-12.725-1.8848-12.725s-1.262 10.524 0 15.553c1.2148 4.8401 7.0703 13.195 7.0703 13.195 0 0-12.79-2.5298-15.93-8.2949-3.3006-6.0612-0.97427-15.41-1.0723-22.311-0.1055-7.4296-2.2345-10.978-2.3223-18.408-0.0532-4.4983 2.8281-13.197 2.8281-13.197s-6.1267 6.217-8.3242 10.965c-2.7343 5.9076-2.0049 14.297-4.873 20.141-2.6924 5.4856-12.725 13.197-12.725 13.197l2.8281-9.4258-13.197 13.195s4.6355-9.8109 5.6562-15.082c1.2548-6.4797 0.4707-19.793 0.4707-19.793s-2.0641 10.49-5.1836 14.609c-4.7625 6.2898-19.322 13.668-19.322 13.668s10.869-12.843 12.725-20.738c1.624-6.909-1.8848-21.207-1.8848-21.207s-1.2889 15.06-5.1855 21.207c-4.5453 7.1698-19.795 16.025-19.795 16.025s7.5457-15.316 9.4258-23.564c2.0645-9.0578 1.8867-27.807 1.8867-27.807s-4.573 14.785-8.0117 21.68c-4.6681 9.3591-16.967 26.393-16.967 26.393s4.31-11.118 5.1836-16.967c0.71946-4.8166 0-14.611 0-14.611s-0.86633 9.0799-3.2988 12.725c-1.3347 1.9999-5.7539 4.3516-5.7539 4.3516s5.2373-14.097 7.2266-21.338c1.4602-5.3153 2.905-10.688 3.4414-16.174 0.75918-7.7643 1.099-15.736-0.34375-23.402-1.6984-9.0251-9.6367-25.811-9.6367-25.811s1.163 14.677 1.0332 22.025c-0.1728 9.7821-0.46587 19.663-2.4102 29.252-1.8959 9.3503-7.2234 17.804-8.9473 27.188-0.91294 4.9694-0.6875 15.143-0.6875 15.143s-7.1734-11.496-10.67-19.617c-2.8235-6.558-6.2008-13.371-7.9141-20.303-1.159-4.6891-1.0332-14.455-1.0332-14.455s-2.155 9.1618-1.7207 13.766c0.73602 7.8012 4.2939 15.103 7.2266 22.369 4.3011 10.657 12.641 19.756 15.143 30.973 1.5733 7.0546 1.3136 14.646-0.34375 21.682-1.4 5.9431-2.9446 12.973-7.916 16.518-2.4446 1.743-6.171 2.1763-8.9473 1.0332-9.5089-3.9152-14.293-15.092-19.271-24.09-3.7059-6.6981-5.7852-14.238-7.5703-21.682-1.5928-6.6417-2.7539-20.303-2.7539-20.303 0 0-2.5209 15.583-2.0645 23.4 0.36191 6.1988-0.62357 0.9417 3.7852 18.24 3.6781 14.432 27.607 33.741 28.908 45.082-15.227-9.4065-22.776-20.879-28.908-30.285 2.6847 13.536 16.202 29.138 27.531 42.674-16.29-13.081-28.403-25.589-32.006-32.35 5.0243 15.326 18.629 26.363 30.629 38.201-1e-5 0-16.58-7.3053-23.4-13.078-3.3588-2.8427-8.2558-10.301-8.2559-10.301 3.8002 21.464 35.251 25.605 35.131 41.742-10.444-7.7443-20.888-16.139-31.332-20.246 7.6306 8.5458 13.266 10.912 20.896 23.613-5.6573-2.1384-9.996-3.3987-11.109-2.5078 5.6258 4.5838 10.661 7.4001 19.188 20.686-6.144-4.0908-11.939-6.4395-17.322-6.7285 5.7493 3.6161 11.515 7.1674 16.523 13.746-7.3192-3.6226-10.717-3.3221-14.35-3.2578 6.6206 5.0676 13.241 11.079 19.861 22.162-7.3922-5.8279-14.545-9.9898-21.18-10.512 7.3032 5.7774 12.563 8.2238 19.498 27.008-5.2067-4.0476-7.7318-3.6254-10.773-4.0644 3.5908 5.0399 7.1826 8.9761 10.773 18.539-4.6191-4.2435-8.9337-6.9617-12.793-7.4062 4.2497 3.4681 8.1668 8.9336 11.656 16.963-6.5239-6.1796-11.391-7.3862-15.645-6.7559 5.3691 3.3852 10.738 9.701 16.107 18.408 0 0-6.9525-2.2166-10.436-1.6836-1.9842 0.30368-5.3867 2.6934-5.3867 2.6934s5.0883-0.20485 7.4062 0.67383c4.4282 1.6786 11.445 8.416 11.445 8.416s-6.9934-1.6147-10.436-1.0098c-2.5706 0.45179-7.0703 3.3652-7.0703 3.3652s14.41 0.39259 19.525 4.7129c3.9172 3.3087 5.9822 9.0117 6.0606 14.139 0.0516 3.3754-3.1363 8.5999-3.7031 11.928-0.63761 3.7432 0.41993 8.8828 0.41993 8.8828s11.176-3.5555 13.404-11.414c3.0749-10.845-8.8495-24.878-10.672-36.072-1.7716-10.883 6.0882-55.417 0.0527-83.9-0.93769-4.4253-2.5043-7.2879-3.4434-11.713-3.1941-15.051-2.4207-30.965 0-46.16 1.3471-8.4559 5.4698-16.25 8.5234-24.293l2.877-9.3672 1.0234-4.7812s17.576 0.10487 25.951 1.0254c27.878 3.0641 61.974 11.49 89.459 17.072 19.53 3.9669 33.134 9.9602 52.926 12.293 8.5047 1.0024 24.796 5.4169 23.281 0.87891-3.6764-11.004-6.2264-24.982-7.6562-35.381-4.874-35.448-0.12379-78.422-8.3047-113.26-11.18-47.603-36.541-62.773-36.541-62.773zm-355.43 15.449c-1.5811 0.0575-3.231 0.43291-4.9707 1.3242-7.0134 3.5932-4.7352 10.714-5.7598 14.174 12.223 4.4348 19.807-2.1762 20.432-13.324-3.0722-0.88338-6.2227-2.3004-9.7012-2.1738zm134.95 25.148-5.0879 11.447-3.8144 5.7227-17.172 12.721-9.5391 14.625-7.3125 6.6777c-4.4847-2.5463-9.1612-5.1197-11.447-9.8574-1.3749 5.7753-3.8809 9.9526-9.8887 14.184 4.153-0.62506 9.0269-0.3877 11.314-6.6094 1.4866 4.8264-0.042 7.9097-2.6465 10.533 3.5107-0.60393 7.0458-2.1853 7.0898-7.2012 3.4679 8.6208 9.4e-4 8.7998-0.94531 12.418 5.2994-2.5366 6.9971-6.8298 8.7226-12.047 0 0 2.2745 13.221 4.916 19.256 2.636 6.0218 10.637 16.293 10.637 16.293s-4.5054-15.593-5.002-21.68c-0.85605-10.493 0.78954-24.723 2.0859-17.641 1.4246 7.7827-0.55925 17.987 4.0273 30.805 1.7307 4.8367 8.8867 12.59 8.8867 12.59s-3.2862-12.485-3.7031-18.887c-0.88421-13.577 0.40637-49.751 2.4746-37.422 1.8155 10.823-0.25841 24.907 1.2285 38.904 1.0613 9.9907 5.5527 18.342 5.5547 29.625 1e-3 7.8505-14.072-18.887-14.072-18.887l2.2187 11.768c0.84904 4.5067-8.1426-9.916-8.1426-9.916s7.1638 19.892 12.59 28.885c1.6333 2.7069 5.9258 7.4062 5.9258 7.4062 3.3047 5.7734 1.931 4.9154 0.0918 5.5449 0 0-7.4495-6.8805-9.6328-11.566-4.4394-9.5281-10.816-29.066-14.072-29.066l-1.6699-0.66406c5.2953 10.387 9.5739 28.86 14.141 39.588 4.5816 10.762 16.047 26.246 17.414 28.076 0.023 0.55372 0.0332 1.1544 0.0605 1.6914l0.0586-35.701 3.1309-45.619-4.0254 12.076s-0.67051-18.787-0.44727-28.178c0.22366-9.4086-0.0623-18.95 1.7891-28.178 1.7066-8.5056 8.498-24.598 8.498-24.598-6.9692 8.107-9.6745 15.202-12.354 26.834-0.32787-10.585 2.3834-15.625 8.3281-27.281l-0.20899-6.6719zm-154.29 13.207s-6.0184 3.7898-6.9258 6.9258c-0.84962 2.9363 1.3829 5.889 1.3301 8.9453-0.11412 6.6052-1.6131 8.5652-3.5117 14.893-0.638 2.1263-2.5483 7.3809-2.9629 10.17-0.43648 2.9358-0.76765 8.248-0.35742 11.188 0.16607 1.19 1.125 3.4258 1.125 3.4258 20.394 3.3285 29.744-3.7132 34.309-13.033 34.078 9.3711 52.538-0.15522 51.045-0.71289l12.484-4.6934 10.967-7.9492c-5.9578 2.6682-10.74 5.1405-20.834 8.498l1.1602-7.0273c-3.4264 9.577-22.332 14.818-34.562 10.404 13.364-3.2477 18.968-8.8828 23.85-14.74-7.3322 7.5055-30.205 14.51-32.182 6.5625 10.038-0.61498 28.626-14.11 24.84-16.928-7.1395 5.729-13.102 11.877-28.639 12.008l-1.2129-4.2832c-3.5458 0.314-4.4757 7.4277-6.502 11.109-7.8921 14.339-16.199 21.426-33 15.936 0 0-2.6293-9.4884 2.7051-18.42 1.4379-2.4075 7.2305-12.686 7.2305-12.686l-3.2129 2.2226 3.752-10.965-2.3086 2.3086s-1.1259-5.2456-0.57617-7.791c0.50883-2.356 1.9902-5.3672 1.9902-5.3672zm525.22 11.434c-8.2013 0.07-7.2868 17.84-6.9316 24.422 0.43573 8.0736 1.9188 16.165 4.4512 23.844 4.0228 12.198 14.23 34.654 14.23 34.654s-3.2416-6.187-5.4043-8.9024c-3.3149-4.1621-11.883-11.127-11.883-11.127s8.9678 13.211 12.199 20.348c3.1378 6.93 7.3125 21.617 7.3125 21.617s-4.5818-9.0207-7.9473-12.717c-4.9375-5.4225-13.992-10.732-13.992-10.732s7.9801 12.951 11.449 21.859c2.7829 7.1463 4.4492 22.572 4.4492 22.572s-10.223-7.4788-16.174-15.229c-2.3889-3.1111-5.5664-11.84-5.5664-11.84 0 0-1.036 10.754 2.3477 18.168 4.8259 10.574 20.641 28.105 20.641 28.105-16.535-6.8502-25.823-16.969-33.381-25.273 4.815 12.933 20.653 26.173 34.002 37.723-18.172-10.308-32.13-20.717-36.768-26.814 7.4107 14.325 22.605 23.044 36.344 32.811-15.254-4.9416-15.562-3.0647-26.742-15.018 7.184 20.58 30.647 16.639 33.109 32.588-11.548-5.9744-15.456-9.5925-26.422-11.977 8.899 7.2155 10.343 5.6533 19.906 16.971-5.9265-1.2061-14.407-3.2548-15.363-2.1973 6.2865 3.6251 12.457 7.0988 22.998 18.85-6.7191-3.0555-12.815-4.4487-18.176-3.873 6.2536 2.65 12.513 5.2348 18.51 10.928-7.8045-2.4054-9.3622 1.1818-12.938 1.8262 7.346 3.9436 13.092 6.0716 21.4 15.953-4.7233-2.6234-12.908-3.26-19.854-7.4805-5.1551-3.1327-8.403-7.9865-11.229-7.7539 2.9151 1.6254 2.9746 7.7481 7.1133 11.25 7.4085 6.2686 18.628 9.3522 24.947 20.537-5.787-3.1627-8.7106-3.5922-11.783-3.5391 4.3506 4.4008 9.0237 8.9606 14.098 17.826-5.2383-3.4501-9.9317-5.4421-13.812-5.2637 4.7496 2.7438 9.4901 7.5111 14.219 14.879 0 0-5.4333-4.1027-11.914-7.3398-3.908-1.952-8.8334-2.7937-11.375-4.4824-4.5825-3.0448-10.992-9.9922-10.992-9.9922s2.0558 7.5558 8.2441 12.74c2.2263 1.8652 9.5137 4.9082 9.5137 4.9082 5.4747 3.2117 12.153 7.8592 18.846 15.596-4.9987-0.74772-17.738-12.434-27.449-7.4648 10.43 1.471 25.634 12.648 32.055 16.949 0 0-12.966-1.9786-16.459-2.0762-8.4825-0.23694-12.669 8.1136-12.187 8.2012 0 0 11.79-3.1665 24.525 7.0254 4.0034 3.2039 7.3469 7.9379 8.2442 12.986 0.5911 3.3236-1.7211 14.238-1.7481 17.613-0.031 3.797 2.1992 9.8262 2.1992 9.8262s12.367-3.4221 14.859-11.268c3.4395-10.827-7.5865-20.711-9.625-31.887-1.5473-8.4832 1.0257-17.307 0-25.869-4.4434-37.089-26.366-78.49-25.867-125.21 0.1946-18.232 1.5354-30.388 6.0215-43.541 0.4959-1.4541 2.7266 0.79102 2.7266 0.79102s-8.6317-31.743-10.553-48.018c-1.3296-11.263-1.8378-26.087-5.875-38.385-2.1739-6.6226-3.1934-16.031-9.7031-18.523-1.0543-0.4036-1.9992-0.58537-2.8477-0.57813zm-456.85 13.35c-0.41109 0.50273-0.8307 1.0031-1.248 1.5039 0.4884-0.50051 0.90874-1.0033 1.248-1.5039zm139.23 75.375c-0.98478-0.0558-1.928 0.14874-2.5605 0.78125-3.9356 3.9356-1.7219 9.4736-0.5919 14.924 1.3196 6.3638 3.5443 12.935 7.752 17.889 2.1419 2.5214 5.0762 5.8466 8.3496 5.3672 1.8133-0.26556 3.004-2.4334 3.5781-4.1738 1.7482-5.2991 0.61298-9.0501-1.1934-14.33-1.3921-4.0687-6.1933-9.5629-8.636-13.102-1.9427-2.8146-0.85035-5.009-3.8912-6.5739-0.79537-0.40931-1.8219-0.72545-2.8066-0.78125zm-228.88 142.1c-5.7239 7.9133-14.969 39.571 2.9199 44.447 13.422 3.6586 19.065-12.858 12.027-20.754 0 0 2.3941 6.8694-0.14062 9.7637-1.741 1.988-5.705 3.6213-10.332 1.1582-6.7285-3.5818-8.384-11.888-7.957-17.234 0.43494-5.4457 1.6977-11.225 3.4824-17.381zm548.16 85.164c-7.1186 0.15938-10.279 8.079-11.717 15.578-2.9185-2.6563-7.2193-4.2176-11.465-4.1426-0.93565 0.0165-1.8672 0.11242-2.7812 0.29296-2.7936 0.55183-5.7394 2.2614-7.7832 4.2441-1.9993 1.9397-3.8203 6.5098-3.8203 6.5098l1.5566 2.5469 4.9512 3.3965 5.9434 1.1309 6.2266-0.56445 10.188-2.5469s0.0365-0.20542 0.0566-0.31445l1.9473 0.80859c-1.096-11.322-0.0134-22.183 6.6973-26.939zm-334.99 0.25195c-7.1193 0.1594-10.283 8.0803-11.721 15.58-2.9185-2.6561-7.2176-4.2196-11.463-4.1445-0.93565 0.0165-1.8672 0.11243-2.7812 0.29297-2.7936 0.55183-5.7394 2.2613-7.7832 4.2441-1.9993 1.9396-3.8203 6.5098-3.8203 6.5098l1.5566 2.5469 4.9512 3.3965 5.9434 1.1309 6.2266-0.56445 10.188-2.5469s0.0365-0.20541 0.0566-0.31445l1.6172 0.67188 0.0449 0.47656 5.6289-0.24024 7.6172 0.26563 7.7852-0.20508 8.5938-1.3828s0.70292-3.8712 0.16602-5.502c-1.6765-5.0922-7.1563-8.455-14.404-8.3516-1.0354 0.0147-2.0666 0.10045-3.0781 0.26172-3.0915 0.49292-6.3515 2.0199-8.6133 3.791-1.5944 1.2485-3.0584 3.6809-3.7676 4.9629-0.16019-8.9875 1.5591-16.983 7.0566-20.879zm345.49 12.076c-1.0354 0.0147-2.0666 0.10045-3.0781 0.26172-3.0915 0.49292-6.3515 2.0199-8.6133 3.791-2.2125 1.7326-4.2266 5.8144-4.2266 5.8144l0.53125 5.5488 5.6289-0.24023 7.6172 0.26757 7.7851-0.20703 8.5938-1.3828s0.701-3.8712 0.1641-5.502c-1.6765-5.0922-7.1544-8.455-14.402-8.3516zm-34.059 4.6367c2.3952-0.0697 5.1684 0.59463 7.2168 1.8379 1.121 0.68039 2.2085 1.9645 1.9805 3.2559-0.36866 2.0875-2.6102 2.6183-4.9512 3.2539-2.7371 0.74313-6.8632 1.0775-9.623 0.42383-1.8104-0.42882-3.7437-0.5789-4.1035-2.4043-0.2864-1.4531 0.7405-3.153 1.9805-3.9629 2.1933-1.4326 4.8814-2.3281 7.5-2.4043zm-303.45 0.0899c2.6506-0.0623 2.5944 0.53009 4.8613 1.6406 1.2406 0.60775 2.4439 1.7547 2.1914 2.9082-0.408 1.8647-2.8879 2.3385-5.4785 2.9062-3.029 0.6638-4.4693 0.96283-7.5234 0.37891-2.0035-0.38305-4.1429-0.51595-4.541-2.1465-0.31694-1.298 0.81921-2.8176 2.1914-3.541 2.4272-1.2796 5.401-2.0784 8.2988-2.1465zm-31.545 0.16211c2.3952-0.0697 5.1684 0.59463 7.2168 1.8379 1.121 0.68039 2.2085 1.9645 1.9805 3.2559-0.36866 2.0875-2.6102 2.6183-4.9512 3.2539-2.7371 0.74313-6.8632 1.0775-9.623 0.42383-1.8104-0.42882-3.7438-0.5789-4.1035-2.4043-0.2864-1.4531 0.7405-3.153 1.9805-3.9629 2.1933-1.4326 4.8814-2.3281 7.5-2.4043zm368.64 0.0508c2.6506-0.0623 2.5944 0.53009 4.8614 1.6406 1.2406 0.60775 2.4439 1.7547 2.1914 2.9082-0.408 1.8647-2.8879 2.3405-5.4785 2.9082-3.029 0.6638-4.4693 0.96087-7.5235 0.37695-2.0035-0.38305-4.1429-0.51595-4.541-2.1465-0.31694-1.298 0.8192-2.8176 2.1914-3.541 2.4272-1.2796 5.401-2.0784 8.2988-2.1465z" fill="#dfa892"/>
      <path d="m471.78 376.01c0.69411 2.9536 2.0294 5.1417 3.0342 6.4636 11.608 1.835 13.545-5.8232 14.279-10.071 0 0-0.44468-1.8286-4.4725-2.4527-8.9647-1.3891-12.84 6.0596-12.84 6.0596z" fill="#fdfbfb"/>
     </g>
     <path d="m477.52 370.25c-0.88281 0.0106-1.6981 0.22884-2.3711 0.63477-2.2181 1.3378-2.3878 4.3485-0.3789 6.7246 2.0087 2.3767 5.4359 3.2188 7.6543 1.8808 2.2181-1.3378 2.3878-4.3485 0.3789-6.7246-1.33-1.5738-3.3562-2.5386-5.2832-2.5156zm0.51758 0.98047c0.79236-0.0264 1.9785 0.34891 2.8164 1.3398 1.1175 1.3215 0.34566 2.3215-0.25074 2.6809-0.59622 0.35936-1.8728 0.59368-2.9895-0.72777-1.1165-1.3211-0.80684-2.7811-0.21094-3.1406 0.149-0.0899 0.37065-0.14354 0.63477-0.15234z" fill="#7e1911"/>
    </g>
    <g stroke="#808080">
     <path d="m484.9 448.23c37.768 11.01 72.713-1.0182 91.973-32.64 17.707-29.073 0.27374-75.161 18.852-103.69 11.682-17.936 35.221-26.926 54.671-24.036 6.1159 0.90869 10.457 3.4112 15.067 7.5312 9.7842 8.7432 8.6308 19.471 12.042 28.052 1.4924 3.7542 5.1195 4.8376 6.6655 8.57 1.0325 2.4926 0 8.0938 0 8.0938s-7.7225-1.8945-11.427-0.95221c-6.4414 1.6387-12.249 5.9823-16.664 10.95-6.3648 7.162-8.8481 18.568-15.235 25.71-6.8081 7.6123-16.678 8.9142-23.329 16.664-4.5338 5.2824-4.3894 10.537-9.046 15.712-4.4246 4.9165-11.761 8.8912-16.664 13.331-6.9277 6.2736-13.981 22.671-18.092 22.377-7.9531-3.7472-10.616-6.9653-11.427-9.9983m-91.407-50.89c1.0246-3.4603-1.253-10.58 5.7605-14.173 5.5672-2.8522 10.203-0.4352 14.671 0.84972-0.62429 11.148-8.2087 17.759-20.432 13.324z" fill="none" stroke="#7e1911" stroke-width="2"/>
    </g>
    <path d="m626.82 283.41c-5.7382 0.0134-11.613 0.6354-17.305 1.8379-13.01 2.7486-25.093 8.5245-32.352 17.229-7.3424 8.8041-10.214 17.333-10.717 26.178-0.37158 6.5327 0.71041 10.952 2.041 17.012 1.3306 6.06 2.9311 13.845 4.6894 27.336 0.23331-13.717-1.3986-21.68-2.7344-27.764-1.3357-6.0833-2.3563-10.206-2-16.471 0.48307-8.4929 3.1551-16.495 10.258-25.012 6.8347-8.1954 18.531-13.868 31.229-16.551 12.698-2.6826 26.376-2.3782 37.055 1.1348l0.625-1.8984c-5.5624-1.8298-11.834-2.8157-18.34-3-0.81327-0.023-1.6295-0.0332-2.4492-0.0312zm209.76 68.764s5.7665 4.5047 13.529 14.111c7.7628 9.6066 16.938 25.128 22.494 48.785 8.1194 34.572 3.3883 77.521 8.2891 113.16 2.0188 14.683 6.2273 33.856 12.947 47.23l1.7871-0.89649c-6.5244-12.985-10.755-32.066-12.754-46.607-4.8472-35.254-0.0798-78.251-8.3223-113.35-5.6236-23.945-14.946-39.759-22.887-49.586-7.9408-9.8268-15.084-12.854-15.084-12.854zm-356.71 2.5762c-0.85888-5e-3 -1.7035 0.0505-2.5274 0.1836-8.3263 1.3447-13.694 6.3569-16.398 12.504-1.985 4.512-2.2785 9.0374-1.832 13.559 0.24025 2.433 0.64818 4.6924 1.1289 4.0215 0.20591-0.28739 0.33961-1.1683 0.32227-2.8965 0 0 0.0128-2.3856 0.29882-5.3301 0.28598-2.9444 0.88617-6.4581 1.877-8.4688 2.7726-5.6268 7.2498-10.175 14.924-11.414 2.7742-0.44803 6.1935 0.16535 9.6914 1.0039 3.4979 0.83855 7.0599 1.8861 10.287 2.1367 3.2896 0.25544 6.4805-2.0332 6.4805-2.0332s-3.7488 0.24118-6.3262 0.041c-2.9024-0.22538-6.4141-1.2343-9.9746-2.0879-1.7803-0.42678-3.5753-0.81859-5.3379-1.0371-0.88129-0.10925-1.7544-0.17618-2.6133-0.18164zm2.4551 11.777c-1.9404-0.0421-3.9912 0.32159-6.1465 1.4258-2.3964 1.2278-3.8746 2.9134-4.7168 4.7109-0.8422 1.7975-1.0732 3.6747-1.1699 5.3652-0.0967 1.6905-0.0475 3.2244-0.26953 4.252-0.58686 2.7162-0.86398 1.8192-0.99023 3.209 1.9275-0.34776 2.4695-1.1594 2.9551-2.834 0.26261-1.3794 0.20988-2.9252 0.30079-4.5137 0.0909-1.5885 0.31159-3.195 0.98437-4.6309 0.67279-1.4359 1.7736-2.7317 3.8184-3.7793 4.2589-2.1819 7.7922-1.0562 11.537 0.16601 1.8724 0.61109 3.7648 1.2541 5.7559 1.4277 1.991 0.17366 4.6417-0.78187 5.6309-2.6621-2.2365 0.77803-3.7914 0.81519-5.457 0.66992s-3.4271-0.72386-5.3086-1.3379c-1.8814-0.61403-3.9179-1.2546-6.0996-1.4277-0.2727-0.0216-0.54701-0.035-0.82422-0.041zm224.43 51.545c-0.0187-9e-3 -0.0358-6e-3 -0.0508 0.01-0.33551 0.34272 0.22984 6.7106 0.5293 11.303 0.24544 3.7638-0.73161 21.337-2.7363 31.531-2.0393 10.37-8.1637 20.046-9.6562 31.061-1.9582 14.451 3.3447 28.945 1.3789 42.709-0.61474 4.3042-1.9977 8.4665-3.6328 12.617l1.8613 0.73437c1.6611-4.2165 3.1035-8.5297 3.752-13.07 2.0625-14.441-3.2446-28.938-1.377-42.721 1.414-10.435 7.4974-20.077 9.6348-30.945 2.0875-10.615 3.4667-28.029 2.7754-31.85-1.4888-8.228-2.198-11.237-2.4785-11.379zm-211.82 7.5352c-2.7886 1.6164-4.2773 4.3668-5.4609 7.3437-2.8779 7.2385-4.5924 15.5-9.3867 21.201-4.7943 5.7008-12.631 9.141-28.543 6.6016l-0.31445 1.9746c16.301 2.6015 25.143-1.052 30.389-7.2891 5.2453-6.2371 6.9328-14.757 9.7129-21.75 1.1264-2.8331 2.5156-5.3668 3.6035-8.082zm121.6 38.887c-0.0287-0.0119-0.0621-7e-3 -0.0996 0.0137-0.50032 0.27443-1.7315 3.2293-2.2031 3.3984 0 0-4.9174 53.281-3.4473 82.127l1.998-0.10157c-1.4521-28.493 3.4414-81.842 3.4414-81.842 0.47989-2.5786 0.5113-3.5127 0.31055-3.5957zm384.16 12.902c1.4672 7.5632 2.1984 12.652 14.566 45.775 0.4653 1.2461 0.925 2.4901 1.3789 3.7305l1.8789-0.6875c-0.4553-1.2443-0.9159-2.4918-1.3828-3.7422-12.354-33.085-13.028-37.996-16.441-45.076z" color="#000000" color-rendering="auto" fill="#7e1911" fill-rule="evenodd" image-rendering="auto" shape-rendering="auto" solid-color="#000000" style="block-progression:tb;isolation:auto;mix-blend-mode:normal;text-decoration-color:#000000;text-decoration-line:none;text-decoration-style:solid;text-indent:0;text-transform:none;white-space:normal"/>
    <path d="m543.73 240.2c-8.6149-0.10955-16.838 0.85848-24.193 3.5371-36.952 13.457-54.037 70.912-54.037 70.912-41.595 31.468-39.137 60.896-42.094 77.432 0 0-29.175 32.61-29.344 70.369-0.12759 28.564 23.248 59.598 29.398 87.492 7.666 34.767-13.484 83.682-10.508 119.07 1.4473 17.209 8.5509 37.119 27.574 39.115 31.006 3.2539 25.328-24.163 42.754-26.867 2.7532-0.42726 6.9902 0.94335 6.9902 0.94335 0.62301-6.9483-10.109-13.333-20.43-5.6562-2.5356-6.9766-10.391-7.8782-13.916-4.7246 0 0 2.3941 6.8694-0.14062 9.7637-1.741 1.988-5.705 3.6213-10.332 1.1582-6.7285-3.5818-8.384-11.888-7.957-17.234 1.5488-19.392 13.605-43.019 22.279-72.789 8.822-30.278 9.9309-70.275 5.3867-92.863-2.3813-11.837-6.2916-26.276-13.777-38.113 21.422 3.4187 29.103-3.9847 33.51-13.514 19.616 5.7182 38.471 5.2208 54.762-1.0078 0 0 14.029 3.0254 19.773 7.0137 10.443 7.2498 14.963 15.067 20.736 26.393 5.2953 10.387 9.5739 28.86 14.141 39.588 4.5816 10.762 16.047 26.246 17.414 28.076 0.023 0.55372 0.0332 1.1545 0.0605 1.6914 0.99794 19.581 2.0086 35.824 5.5117 55.115 4.3796 24.118 16.047 50.11 19.291 74.406 1.0028 7.5118 1.3184 15.274 0 22.736-0.61736 3.4944-2.0615 0.78679-3.6484 10-1.636 9.4979-12.044 14.673-14.742 23.861-1.8784 6.3953-3.2997 14.204-0.54492 20.188 1.5042 3.2673 4.9972 5.2692 8.1894 6.1191 5.887 1.5675 18.02-2.4629 18.02-2.4629 4.6756 2.4438 25.139 0.12109 25.139 0.12109 4.2563-1.1201 11.922 0.26057 17.162-0.15625 0 0 11.176-3.5555 13.404-11.414 3.0749-10.845-8.8495-24.878-10.672-36.072-1.7716-10.883 6.0881-55.417 0.0527-83.9-0.93769-4.4253-2.5043-7.2879-3.4434-11.713-3.1941-15.051-2.4207-30.965 0-46.16 1.3471-8.4559 5.4698-16.25 8.5234-24.293 4.8922 0.1178 29.817 0.79714 51.424 3.0703 36.389 3.8283 77.714 18.681 117.79 26.115 14.142 2.6234 29.702 0.36967 31.496-0.52734 14.069 27.999 43.985 39.688 58.057 67.686 10.69 21.27 20.392 46.253 15.881 69.627-1.83 9.4821-13.473 14.647-16.492 23.82-2.1011 6.3847-3.6908 14.181-0.60937 20.154 1.6826 3.2618 5.5894 5.2589 9.1602 6.1074 6.5852 1.5649 20.156-2.459 20.156-2.459 5.2301 2.4398 28.119 0.12305 28.119 0.12305 4.761-1.1182 13.336 0.25987 19.197-0.15625 0 0 12.502-3.5491 14.994-11.395 3.4395-10.827-7.5865-20.711-9.625-31.887-1.5473-8.4832 1.0257-17.307 0-25.869-4.4434-37.089-26.366-78.49-25.867-125.21 0.1946-18.232 1.5354-30.388 6.0215-43.541 0.4959-1.4541 2.4688 0.80274 2.4688 0.80274 19.711 50.287 27.976 96.233 63.797 148.43 9.0207 13.144 18.442 31.878 35.324 42.793-5.6553-11.592-17.399-33.892-28.057-49.23-10.778-15.511-22.782-35.52-48.398-120.14-16.807-55.521-16.172-132.81-55.449-189.52-12.969-21.918-29.161-42.298-55.365-60.088-33.265-22.584-71.363-40.576-111.03-47.137-42.14-6.97-88.212 8.5017-130.92 8.8008-14.301 0.10016-25.459-4.4484-39.73-5.5625-9.1142-0.71148-18.257 3.177-27.314 2-20.094-2.6112-49.472-12.636-75.316-12.965z" fill="none" stroke="#7e1911" stroke-width="2"/>
    <g stroke="#808080">
     <g fill-rule="evenodd" stroke="none">
      <path d="m484.9 448.23c-4.3926 9.4982-12.042 16.881-33.307 13.543-40.536 50.444-96.706 64.684-154.5 75.152 41.983 8.2103 146.3-4.7505 190.61-87.934-0.93114-0.24432-1.8621-0.48923-2.7969-0.76172z" fill="#fdfbfb"/>
      <path d="m297.09 536.93c41.983 8.2103 146.3-4.7505 190.61-87.934-0.93114-0.24432-1.8621-0.48923-2.7969-0.76172-3.3756 7.299-8.6743 13.349-20.597 14.244-20.746 33.49-84.284 76.02-167.21 74.451z" fill="#eadacd"/>
      <path d="m336.59 538.49c49.276-3.6774 117.47-26.36 151.1-89.494-0.93114-0.24432-1.8621-0.48923-2.7969-0.76172-2.2589 4.8844-5.379 9.2095-10.769 11.805-25.201 41.993-72.641 66.918-137.53 78.451z" fill="#dfa892"/>
     </g>
     <path d="m484.9 448.23c-4.3926 9.4982-12.042 16.881-33.307 13.543-40.536 50.444-96.706 64.684-154.5 75.152 41.983 8.2103 146.3-4.7505 190.61-87.934-0.93114-0.24432-1.8621-0.48923-2.7969-0.76172z" fill="none" stroke="#7e1911" stroke-linejoin="round" stroke-width="2.0005"/>
     <path d="m472.31 460.81c6.5073-2.4434 10.065-7.1517 12.573-12.554 5.3768 1.5631 10.696 2.6602 15.921 3.301-13.419 6.1598-23.22 21.532-19.129 40.424-4.3266-2.3056-16.218-16.291-9.365-31.171z" fill="#f6f2f2" fill-rule="evenodd" stroke="#7e1911" stroke-width="2"/>
    </g>
   </g>
  </g>
 </g>
</svg>
