<?xml version="1.0" encoding="UTF-8"?>
<!DOCTYPE svg PUBLIC "-//W3C//DTD SVG 1.1//EN" "http://www.w3.org/Graphics/SVG/1.1/DTD/svg11.dtd">
<!-- Creator: CorelDRAW -->
<svg xmlns="http://www.w3.org/2000/svg" xml:space="preserve" width="600px" height="400px" style="shape-rendering:geometricPrecision; text-rendering:geometricPrecision; image-rendering:optimizeQuality; fill-rule:evenodd; clip-rule:evenodd"
viewBox="0 0 600 400">
 <defs>
  <style type="text/css">
   <![CDATA[
    .str0 {stroke:#500000;stroke-width:0.1866;stroke-linejoin:round}
    .fil2 {fill:#AB7A00}
    .fil0 {fill:#B00000}
    .fil1 {fill:#F7C200}
   ]]>
  </style>
 </defs>
 <g id="Layer_x0020_1">
  <metadata id="CorelCorpID_0Corel-Layer"/>
  <g id="_134538616">
   <polygon id="_136043096" class="fil0" points="600,399.716 0.0002,400 0.0002,0 600,0 "/>
   <path id="_136043144" class="fil1 str0" d="M287.929 294.788c-27.849,4.2928 -28.8302,34.3052 -2.9718,39.6638 6.066,-0.1164 11.0392,-3.0004 16.5912,-5.2422 3.8272,0 7.4216,0 10.7672,0 4.453,0.9654 3.8366,1.538 13.8618,3.7014 30.8114,4.758 30.5596,-29.9024 14.4688,-35.7452 -7.1792,-1.2986 -12.2548,-0.2328 -14.4688,-5.2264 0,-5.0252 -0.7578,-10.8492 -0.7578,-15.6162 -0.6164,-12.8618 -0.3588,-26.9092 -0.2422,-32.2738 2.0972,-36.7926 39.239,-47.044 43.4402,-33.1136 23.1482,1.7802 47.774,-1.2986 66.2048,-21.7988 -5.1914,1.5568 -19.8016,1.673 -25.8428,1.673 -13.2454,-2.148 -17.207,-4.6512 -27.4814,-6.3082 -5.4398,0.1164 -10.8994,4.0442 -9.0346,10.2328 1.9718,5.9562 11.632,5.6004 20.9088,4.6506 -6.415,4.4028 -17.3144,3.8114 -20.2922,1.8966 -5.7994,-3.9276 -8.6544,-17.7486 8.4272,-20.1196 6.173,-0.7168 31.302,12.629 51.9786,5 -36.7672,-7.8618 -83.535,-29.538 -80.3152,12.39 -2.846,2.5032 -14.7356,-1.6728 -17.3304,-8.1036 -5.8082,3.462 -5.317,9.3018 -2.355,14.651 -9.635,0 -9.2674,-1.0658 -17.0724,-5.1258 -7.431,2.9778 -9.0286,12.7388 -4.585,20.019 -13.8524,-1.5568 -20.66,-7.2802 -21.157,-16.4496 -4.3272,2.1538 -8.6604,1.5568 -12.8712,0.9558 0.3742,-5.3586 0.132,-10.6008 -1.8554,-14.645 -5.4496,7.022 -12.8802,9.5346 -22.648,7.4968 10.7576,-15.6008 -4.459,-24.544 -24.5124,-24.2956 -13.239,0 -29.2048,17.1636 -52.0948,18.588 12.7294,3.8114 26.7232,0.9496 40.9592,-5.2422 30.3178,-12.3964 36.0094,24.1796 0.6164,17.1478 36.0026,0.2422 19.6852,-24.2956 1.2388,-15.2356 -12.0158,4.6352 -21.541,11.1824 -39.3554,7.4966 18.4468,18.928 41.5858,22.5158 68.925,10.7168 55.3054,6.5504 39.9718,63.7362 38.8554,88.2614l0.0004 0z"/>
   <path id="_136048592" class="fil2 str0" d="M274.684 319.926c4.453,4.2924 11.5226,3.0944 12.1322,-4.17 -4.2108,-6.5566 -7.2956,-5.6004 -12.8712,-3.327 4.8272,1.198 6.5568,2.3868 4.4528,3.0942 0,0.8396 0,2.148 0,3.3366 -0.4846,1.0662 -2.4658,0.7076 -3.7142,1.0662l0.0004 0z"/>
   <path id="_136046592" class="fil2 str0" d="M340.049 319.451c2.2042,-1.5568 1.1066,-1.7798 -1.9972,-2.6192 -1.4804,-0.717 -1.5968,-1.6638 -0.6062,-3.453 2.2202,-0.1258 3.3272,0.116 3.2108,-1.1982 -2.7202,-2.2548 -7.6698,-5.4844 -9.7864,2.3868 -0.2482,4.8836 4.9528,7.138 9.1794,4.8836l-0.0004 0z"/>
   <path id="_136059896" class="fil1 str0" d="M337.061 252.272c0.3746,-1.9152 1.3494,-4.4088 2.2202,-6.324 3.6038,1.324 10.651,-1.9056 17.8398,-6.4244 -1.9878,9.2894 -8.4216,14.1728 -20.06,12.7488l0 0 0 -0.0004z"/>
   <path id="_136051096" class="fil1 str0" d="M360.823 172.224c-7.6694,-0.9494 -11.506,-4.6416 -11.7484,-9.7674 -9.5346,-12.0218 -15.236,-11.0754 -26.5004,-2.9714 -9.7672,-6.5472 -22.0252,-7.2706 -32.789,0 -13.8526,-6.6636 -24.8616,-5.0098 -27.1074,-0.7076 -1.9624,3.8018 0.7388,12.3806 -13.4782,14.2768 6.6984,3.3366 11.5158,9.4088 8.6604,22.3994 4.4594,1.7892 11.89,-1.915 19.6762,-10.6068 1.5976,4.8838 2.962,10.252 3.2202,17.997 5.0758,1.198 8.7862,-1.9058 13.113,-8.1038 -1.1066,9.7674 0.3742,18.9468 12.6228,21.45 -1.1164,-8.9276 2.1132,-15.8426 9.6606,-20.7266 6.4244,5.4846 10.2674,7.1384 11.8808,5.4846 -0.2422,-7.038 3.2108,-12.3902 8.2794,-16.9154 1.7394,6.1916 7.4374,13.33 16.2234,12.3802 -1.374,-13.698 1.2328,-20.2612 8.2862,-24.189l0 0 0 -0.0002 0.0004 0.0002z"/>
   <path id="_136068408" class="fil1 str0" d="M263.052 65.026c-24.6196,16.1918 -36.7582,49.4308 -25.736,70.8808 5.0756,13.3364 19.1792,13.3364 22.89,22.5158 -1.107,10.9496 -7.8052,12.8552 -20.1698,12.1382 -23.1384,-13.695 -28.3306,-36.808 -25.1264,-56.4622 4.8268,-24.8932 22.2736,-43.8304 48.1422,-49.0726z"/>
   <path id="_21407192" class="fil1 str0" d="M347.712 65.026c24.6196,16.1918 36.7582,49.4308 25.736,70.8808 -5.0756,13.3364 -19.1792,13.3364 -22.89,22.5158 1.107,10.9496 7.8052,12.8552 20.1698,12.1382 23.1384,-13.695 28.3306,-36.808 25.1264,-56.4622 -4.8268,-24.8932 -22.2736,-43.8304 -48.1422,-49.0726z"/>
   <path id="_136070832" class="fil1 str0" d="M276.913 245.592c-15.8336,1.6792 -27.1072,-9.8834 -25.1196,-22.6322 12.4974,0.3588 21.9092,9.3022 25.1196,22.6322z"/>
   <path id="_136075104" class="fil1 str0" d="M284.218 269.297c-1.8554,-28.8302 -8.6698,-49.305 -34.78,-49.0726 -1.8552,-4.6352 -1.8552,-8.327 0,-11.0754 33.6542,6.6636 42.192,28.821 37.9812,60.4972l-0.8586 15.7262 -2.343 -16.0754 0 0 0.0004 0z"/>
   <path id="_136083992" class="fil1 str0" d="M277.536 253.089c0,-1.7738 0.3742,-3.6764 0.2422,-5.9498 -7.6698,2.2704 -15.7174,0.3586 -22.7738,-5.1258 -1.3554,7.406 3.462,11.6824 22.5312,11.0756l0.0004 0z"/>
   <path id="_136080000" class="fil1 str0" d="M284.951 293.483c-0.6074,-14.0534 -3.3274,-27.041 -6.066,-37.2832 -5.1924,0.1164 -9.7674,0.1164 -14.9686,0.5912 3.8272,12.1636 8.4122,24.2958 13.6132,36.692 2.4876,-0.3584 5.2078,0.3582 7.4218,0l-0.0004 0z"/>
   <path id="_136089336" class="fil1 str0" d="M361.804 221.18c-12.1228,-1.7892 -21.89,11.082 -21.1574,22.6384 7.305,0.2328 26.1104,-13.7046 21.1574,-22.6384z"/>
   <path id="_136088328" class="fil1 str0" d="M361.93 218.916c3.4684,-2.7356 4.0848,-6.431 2.0972,-11.082 -36.7582,-0.2324 -38.3558,35.6258 -35.154,77.5446 4.7164,-30.3776 9.0534,-72.3024 33.0568,-66.4626z"/>
   <path id="_136089976" class="fil1 str0" d="M338.917 293.483c3.8366,-11.7894 7.8052,-25.3682 10.1606,-39.431 -3.7108,0.698 -8.544,0.2328 -12.2646,0.9494 -2.7202,11.7988 -5.3236,25.3776 -6.5568,37.8742 2.8434,0.2488 6.189,0.607 8.6608,0.607l0 0 0 0.0004z"/>
   <path id="_136093944" class="fil1 str0" d="M316.395 334.335c-3.5848,4.874 -15.2266,6.7894 -18.9372,0 -3.2142,-1.0818 13.2452,-6.431 18.9372,0z"/>
   <path id="_136105656" class="fil1 str0" d="M293.753 335.659c-2.7296,-0.2576 -3.346,0.2328 -2.9718,1.1824 -2.355,7.1384 24.0124,16.7832 33.0474,-0.5912 2.5972,-1.4404 -1.0064,-2.3868 -4.459,-0.5912 -9.0346,8.8022 -17.4464,6.6638 -25.6166,0z"/>
   <path id="_136103280" class="fil1 str0" d="M444.094 281.306c-10.783,4.4276 -30.418,-1.5222 -32,-17.5062 0,-20.6606 16.5974,-25.1008 28.9624,-20.6606 -15.1514,-11.7896 -47.283,-11.7896 -47.283,22.1668 1.4752,18.9026 30.6856,31.9812 50.3206,16z"/>
   <path id="_136101648" class="fil1 str0" d="M183.263 253.552c-3.1536,-5.7232 -8.0122,-18.9024 -21.6008,-13.0722 -1.4554,4.4436 0,10.384 -1.4554,13.0722 -7.6294,6.4154 -3.1542,10.6164 3.0284,14.9436 7.3962,-2.937 13.5946,-4.3272 16.8646,-4.3272 0.0126,-2.7892 1.5912,-7.7046 3.1636,-10.6164l-0.0004 0z"/>
   <path id="_136109224" class="fil1 str0" d="M186.285 250.863c4.61,0 7.3902,0 8.962,0 3.038,0 6.0726,-5.9404 10.676,-8.868 1.5724,-4.434 1.5724,-5.9402 0,-7.3458 -6.066,-2.8052 -10.676,-4.2108 -15.0344,-1.2892 -4.6104,-2.9276 -7.6294,-2.9276 -10.783,0 -3.2644,2.6918 1.5846,11.5532 6.179,17.5034l0 0 0.0004 -0.0004z"/>
   <path id="_136113152" class="fil1 str0" d="M219.515 256.464c-1.5628,-5.6004 0,-10.0346 0,-13.0632 -3.0372,-4.4432 -6.1822,-4.4432 -8.987,-1.4056 -4.6008,4.4432 -7.6224,8.868 -10.657,11.5568 1.4652,4.4276 3.0372,7.8208 1.4652,12.0064 7.6226,0 11.997,1.522 16.6164,4.4432 3.145,-1.5156 6.1734,-4.4432 4.5948,-5.8334 -0.0096,-4.2044 -1.4594,-6.1916 -3.032,-7.7046l0 0 0 0.0004 -0.0004 0z"/>
   <path id="_136117528" class="fil1 str0" d="M199.864 293.338c0,0 6.0664,-2.9122 10.6574,-7.3554 4.3676,-4.434 5.9498,-7.113 5.9498,-11.5566 -1.5724,-2.912 -5.9498,-4.4276 -15.142,-5.9402 -1.4648,3.0282 -6.0722,4.4338 -8.9774,5.9402 0,4.4342 0,7.1132 -1.456,14.4778 4.3582,3.0442 7.3962,4.4342 8.9686,4.4342l0 0 -0.0008 0 0.0004 0z"/>
   <path id="_136121792" class="fil1 str0" d="M189.323 272.929c-4.6098,0 -6.0562,-2.9216 -9.2012,-7.3648 -3.2764,1.522 -12.4966,2.937 -16.8642,7.3648 -3.0286,4.4276 -1.5724,8.6286 8.9774,14.5788 6.4244,4.4432 11.0416,7.3458 17.0974,1.3994 -0.0094,-7.3586 -0.0094,-11.5536 -0.0094,-15.9778l0 0 0 -0.0004z"/>
   <path id="_136130184" class="fil1 str0" d="M190.895 270.008c-4.61,0 -7.629,-2.9276 -7.629,-7.3554 0,-4.676 3.019,-10.3838 7.629,-10.3838 4.352,0 8.9684,5.7168 8.9684,10.3838 0,4.4278 -4.6096,7.3554 -8.9684,7.3554z"/>
   <polygon id="_136134464" class="fil1 str0" points="265.81,82.2652 295.863,80.5168 306.429,53.3186 315.999,80.5168 345.703,81.916 322.914,99.0636 331.401,126.262 306.432,110.736 281.939,126.262 289.451,99.0636 "/>
  </g>
 </g>
</svg>
