<?xml version="1.0" encoding="UTF-8" standalone="no"?>
<!-- Created with Inkscape (http://www.inkscape.org/) -->

<svg
   xmlns:dc="http://purl.org/dc/elements/1.1/"
   xmlns:cc="http://creativecommons.org/ns#"
   xmlns:rdf="http://www.w3.org/1999/02/22-rdf-syntax-ns#"
   xmlns:svg="http://www.w3.org/2000/svg"
   xmlns="http://www.w3.org/2000/svg"
   xmlns:sodipodi="http://sodipodi.sourceforge.net/DTD/sodipodi-0.dtd"
   xmlns:inkscape="http://www.inkscape.org/namespaces/inkscape"
   width="500"
   height="360"
   id="svg4134"
   version="1.1"
   inkscape:version="0.48.3.1 r9886"
   sodipodi:docname="National_Flag_of_Chinese_Soviet_Republic.svg">
  <defs
     id="defs4136" />
  <sodipodi:namedview
     id="base"
     pagecolor="#000000"
     bordercolor="#666666"
     borderopacity="1.0"
     inkscape:pageopacity="0"
     inkscape:pageshadow="2"
     inkscape:zoom="0.7"
     inkscape:cx="85.032524"
     inkscape:cy="126.77422"
     inkscape:document-units="px"
     inkscape:current-layer="g5018"
     showgrid="false"
     fit-margin-top="0"
     fit-margin-left="0"
     fit-margin-right="0"
     fit-margin-bottom="0"
     inkscape:window-width="1600"
     inkscape:window-height="848"
     inkscape:window-x="-8"
     inkscape:window-y="-8"
     inkscape:window-maximized="1" />
  <metadata
     id="metadata4139">
    <rdf:RDF>
      <cc:Work
         rdf:about="">
        <dc:format>image/svg+xml</dc:format>
        <dc:type
           rdf:resource="http://purl.org/dc/dcmitype/StillImage" />
        <dc:title />
      </cc:Work>
    </rdf:RDF>
  </metadata>
  <g
     inkscape:label="Layer 1"
     inkscape:groupmode="layer"
     id="layer1"
     transform="translate(-67.680222,-573.54987)">
    <rect
       style="fill:#d4000e;fill-opacity:1;stroke:none"
       id="rect4142"
       width="500"
       height="360"
       x="67.680222"
       y="573.54987" />
    <g
       id="g5018"
       transform="matrix(0.26223985,0,0,0.26223985,351.32281,512.70942)">
      <g
         transform="matrix(1.0051443,0,0,1.0051443,-2.7559243,-10.947817)"
         id="g6967">
        <polygon
           class="fil1 str0"
           points="4.80484,2.10673 4.87228,2.29754 5.07459,2.30271 4.91396,2.42581 4.97156,2.61983 4.80484,2.50509 4.63812,2.61983 4.69572,2.42581 4.53509,2.30271 4.7374,2.29754 "
           id="polygon23-0"
           transform="matrix(167.08884,0,0,167.08884,-932.55039,241.00417)"
           style="fill:#ffcc00;fill-rule:evenodd;stroke:#332c2b;stroke-width:0.01135572;stroke-miterlimit:4;stroke-dasharray:none" />
        <path
           style="fill:#ffffff;fill-rule:evenodd;stroke:#000000;stroke-width:3.34177685;stroke-miterlimit:4;stroke-opacity:1"
           d="m 71.510608,906.32838 c 0,110.96372 -89.953867,200.91762 -200.917558,200.91762 -110.96372,0 -200.91759,-89.9539 -200.91759,-200.91762 0,-110.96373 89.95387,-200.91759 200.91759,-200.91759 110.963691,0 200.917558,89.95386 200.917558,200.91759 z"
           id="path3803-7"
           inkscape:connector-curvature="0" />
        <path
           style="fill:none;stroke:#000000;stroke-width:1.85317683px;stroke-linecap:butt;stroke-linejoin:miter;stroke-opacity:1"
           d="m -230.83954,734.29111 c 0,0 92.80875,40.60364 202.116799,0.96674"
           id="path3830-1"
           inkscape:connector-curvature="0" />
        <path
           style="fill:none;stroke:#000000;stroke-width:1.96232522px;stroke-linecap:butt;stroke-linejoin:miter;stroke-opacity:1"
           d="m -210.62739,1090.9337 c 0,0 85.63871,-39.119 168.105597,-4.2291"
           id="path3832-7"
           inkscape:connector-curvature="0" />
        <path
           style="fill:none;stroke:#000000;stroke-width:1.96232522px;stroke-linecap:butt;stroke-linejoin:miter;stroke-opacity:1"
           d="m -52.037206,1082.4755 c 0,0 197.709106,-161.76203 10.572674,-343.61211"
           id="path3836-7"
           inkscape:connector-curvature="0"
           sodipodi:nodetypes="cc" />
        <path
           style="fill:none;stroke:#000000;stroke-width:1.96232522px;stroke-linecap:butt;stroke-linejoin:miter;stroke-opacity:1"
           d="m -72.125293,1078.2464 c 0,0 122.643084,-186.07916 4.229065,-333.03941"
           id="path3838-7"
           inkscape:connector-curvature="0"
           sodipodi:nodetypes="cc" />
        <path
           style="fill:none;stroke:#000000;stroke-width:1.96232522px;stroke-linecap:butt;stroke-linejoin:miter;stroke-opacity:1"
           d="m -100.67153,1072.9601 c 0,0 102.5549962,-150.13208 -1.05726,-321.40949"
           id="path3840-7"
           inkscape:connector-curvature="0"
           sodipodi:nodetypes="cc" />
        <path
           sodipodi:nodetypes="cc"
           inkscape:connector-curvature="0"
           id="path3842-3"
           d="m -202.00514,1085.6473 c 0,0 -199.82364,-163.87656 -12.68721,-345.72665"
           style="fill:none;stroke:#000000;stroke-width:1.96232522px;stroke-linecap:butt;stroke-linejoin:miter;stroke-opacity:1" />
        <path
           sodipodi:nodetypes="cc"
           inkscape:connector-curvature="0"
           id="path3844-3"
           d="m -184.03159,1079.3037 c 0,0 -122.64309,-186.07918 -4.22906,-333.03944"
           style="fill:none;stroke:#000000;stroke-width:1.96232522px;stroke-linecap:butt;stroke-linejoin:miter;stroke-opacity:1" />
        <path
           sodipodi:nodetypes="cc"
           inkscape:connector-curvature="0"
           id="path3846-5"
           d="m -155.48535,1074.0173 c 0,0 -102.55499,-150.13202 1.05727,-321.40943"
           style="fill:none;stroke:#000000;stroke-width:1.96232522px;stroke-linecap:butt;stroke-linejoin:miter;stroke-opacity:1" />
        <path
           style="fill:none;stroke:#000000;stroke-width:1.96232522px;stroke-linecap:butt;stroke-linejoin:miter;stroke-opacity:1"
           d="m 70.605878,912.25533 c 0,0 -125.814888,-30.66077 -402.819078,-2.11453"
           id="path3848-9"
           inkscape:connector-curvature="0" />
        <path
           style="fill:none;stroke:#000000;stroke-width:1.96232522px;stroke-linecap:butt;stroke-linejoin:miter;stroke-opacity:1"
           d="m 54.746858,830.84569 c -69.779694,28.54625 -287.576878,39.11892 -368.986508,3.17181"
           id="path3850-9"
           inkscape:connector-curvature="0" />
        <path
           style="fill:none;stroke:#000000;stroke-width:1.96232522px;stroke-linecap:butt;stroke-linejoin:miter;stroke-opacity:1"
           d="m -271.94894,1049.7001 c 0,0 145.90298,-58.14967 283.347819,-7.4008"
           id="path3852-8"
           inkscape:connector-curvature="0" />
        <path
           style="fill:none;stroke:#000000;stroke-width:1.96232522px;stroke-linecap:butt;stroke-linejoin:miter;stroke-opacity:1"
           d="m 52.632315,988.37862 c 0,0 -142.731167,-75.06601 -362.642875,2.11455"
           id="path3854-1"
           inkscape:connector-curvature="0" />
        <path
           style="fill:none;stroke:#000000;stroke-width:1.96232522px;stroke-linecap:butt;stroke-linejoin:miter;stroke-opacity:1"
           d="m -122.87415,1069.7883 -8.45814,-315.06589"
           id="path3856-8"
           inkscape:connector-curvature="0" />
        <path
           style="fill:#0044aa;fill-rule:evenodd;stroke:#000000;stroke-width:1.96232522px;stroke-linecap:butt;stroke-linejoin:miter;stroke-opacity:1"
           d="m -96.410729,753.74747 c -9.066711,19.15074 -33.593471,19.62706 -50.646431,11.10057 -6.79701,-3.39849 -8.65225,-10.5702 -13.87574,-13.18193 l -51.34022,-8.32544 c -5.65989,8.25341 -8.88817,17.30098 -19.42602,20.8136 -3.42141,1.14047 -6.55139,4.66326 -9.71302,6.24408 -9.7113,4.85566 -39.60898,4.09957 -21.50737,22.20118 0.65587,0.65587 3.5823,0.11342 4.16272,0.69378 11.41204,11.41206 34.01625,-20.8136 46.48369,-20.8136 4.79798,0 11.79438,-8.08559 11.79438,1.38756 0,1.67565 1.94947,6.50785 0.69378,9.01924 -4.602,9.20405 -10.50048,18.77908 -18.73224,22.89495 -7.3035,3.65176 -24.43653,6.39811 -29.83281,11.79439 -1.03617,1.03616 -4.8176,0.21828 -6.24408,0.69377 -10.39837,3.46614 -26.51804,10.79234 -19.42604,24.97634 2.15652,4.31302 7.04657,8.39789 11.1006,11.10058 1.88697,1.25799 6.84724,6.15346 8.32544,7.63166 1.06128,1.06129 3.14466,0.12323 4.85649,0.69378 15.97033,5.32343 31.7802,4.92351 47.1775,-2.77514 1.43917,-0.71958 26.48464,-3.92125 27.05768,-2.77516 2.1179,4.23577 33.42764,16.02003 41.62721,20.11981 4.45863,2.22932 8.73573,5.40857 13.18194,7.63167 4.56616,2.28306 5.73586,9.80579 9.71302,11.79438 4.63126,2.31561 10.63104,3.58104 15.957101,6.24408 5.295942,2.64796 13.566594,-13.87574 19.426018,-13.87574 1.755961,0 8.871685,-2.22889 10.406792,-0.69378 2.694038,2.69401 35.388691,8.31987 38.158277,5.55027 2.931282,-2.93128 10.161901,-2.53023 13.181939,-5.55027 7.6689631,-7.66897 24.731713,-20.15987 19.4260375,-36.07692 -0.7708405,-2.31252 -1.31152,-9.63696 -2.7751595,-11.10058 -1.93018222,-1.9302 -5.4026343,-9.98609 -7.6316394,-11.1006 -8.6947496,-4.34738 -11.7943786,-15.71441 -11.7943786,-27.05767 0,-6.2134 -0.514129,-13.87574 5.550299,-13.87574 19.2761164,0 15.7015841,13.36471 21.507378,24.97631 0.835519,1.67103 4.417959,3.0304 5.550299,4.16272 4.131225,4.13125 8.324615,-6.24241 9.019219,-7.63164 4.34247,-8.68492 -6.385288,-15.54575 -9.019219,-20.81362 -0.449293,-0.89858 -4.57883,-2.91355 -5.550299,-4.85649 -5.1083246,-10.21667 -16.5137514,-11.72582 -27.751457,-17.34468 -0.943761,-0.47188 -1.021979,-2.88454 -2.77516,-3.46892 -10.261489,-3.42051 -23.987815,-13.28634 -28.445257,-22.20118 z"
           id="path3362-2"
           inkscape:connector-curvature="0"
           sodipodi:nodetypes="csccsssssssssssssssssssssssssssssssssssscc" />
        <path
           style="fill:#0044aa;fill-rule:evenodd;stroke:#000000;stroke-width:1.96232522px;stroke-linecap:butt;stroke-linejoin:miter;stroke-opacity:1"
           d="m -232.39291,895.97373 c -7.94354,-6.55038 -25.85558,-12.04854 -36.07693,-6.93785 -6.21026,3.10512 -8.99572,9.9286 -13.87573,13.18193 -14.37663,9.58444 -22.09507,23.80097 -13.18194,41.62722 4.4314,8.86281 34.56066,21.81519 35.38311,24.28254 2.86233,8.58694 7.94972,17.28697 12.48816,26.36388 2.16633,4.33263 1.6118,12.01865 4.85651,15.26325 1.5176,1.5177 22.13743,28.509 29.83283,20.8136 1.54622,-1.5461 4.70895,-1.9337 6.93786,-4.1627 8.16639,-8.1664 0.67405,-20.774 5.5503,-30.52658 6.12116,-12.24231 21.43593,-33.44467 13.87574,-48.56507 -4.18342,-8.36682 -26.06208,-22.98509 -29.13903,-29.13904 -1.51381,-3.02759 -14.39703,-20.84885 -16.65088,-22.20118 z"
           id="path3366-6"
           inkscape:connector-curvature="0" />
        <path
           style="fill:#0044aa;fill-rule:evenodd;stroke:#000000;stroke-width:1.96232522px;stroke-linecap:butt;stroke-linejoin:miter;stroke-opacity:1"
           d="m 8.3510544,946.62017 c -5.2046947,2.26445 -31.6376464,-1.66413 -33.9955364,0.69378 -1.167054,1.16705 -7.968336,4.16272 -10.406819,4.16272 -2.441545,0 -13.393125,3.95153 -15.957079,1.38758 -1.253709,-1.25371 -15.549111,-7.34584 -17.344678,-5.5503 -3.98821,3.98821 -19.082978,28.78058 -16.650872,36.07691 2.308381,6.92517 15.378422,13.29707 20.119811,18.03844 2.998473,2.9985 29.529148,32.6944 29.832818,33.3018 1.873982,3.7479 18.039852,2.0813 22.894978,2.0813 6.429244,0 10.8581331,-3.9202 15.263298,-8.3254 3.4737669,-3.4737 7.984917,-4.5159 12.488159,-9.0192 8.542335,-8.5423 4.16272,-23.99527 4.16272,-36.07694 0,-7.47307 -4.008776,-13.56785 -6.93786,-19.42601 -2.3882283,-4.77648 -1.530574,-12.49879 -3.4689396,-17.34468 z"
           id="path3368-6"
           inkscape:connector-curvature="0" />
        <g
           transform="matrix(1.2707547,0,0,1.2707547,-330.8559,14.964845)"
           id="g6167">
          <path
             style="fill:#ffcc00;fill-opacity:1;stroke:#000000;stroke-width:1.49313784px;stroke-linecap:butt;stroke-linejoin:miter;stroke-opacity:1"
             d="m 345.39756,554.62001 c -0.28292,-0.75059 -8.31758,-24.04942 -44.58532,-44.72309 -10.84547,-7.21496 -26.21744,-12.58033 -33.83575,-15.78817 l -0.40906,3.4549 c 28.85401,11.16443 59.94121,27.67974 75.38523,57.65934 z"
             id="path5391"
             inkscape:connector-curvature="0"
             sodipodi:nodetypes="cccccc" />
          <path
             style="fill:#ffcc00;fill-opacity:1;stroke:#000000;stroke-width:1.49313784px;stroke-linecap:butt;stroke-linejoin:miter;stroke-opacity:1"
             d="m 50.846848,495.68139 c -1.084457,-0.66427 -0.997476,-0.11739 -3.814928,0.0412 -2.817452,0.15865 -1.019478,-4.58254 -12.680725,0.0455 -14.193397,5.633 -11.210409,15.0062 -11.210409,15.0062 0,0 5.689244,7.97785 17.278631,0.0739 10.850065,-7.3997 7.609401,-7.73547 8.811602,-9.63934 1.202172,-1.90386 1.382597,-1.46229 2.290012,-2.21968 1.228395,-1.02529 0.0931,-2.83788 -0.674183,-3.30794 z"
             id="path4771-7"
             inkscape:connector-curvature="0"
             sodipodi:nodetypes="szscszss" />
          <path
             style="fill:#ffcc00;fill-opacity:1;stroke:#000000;stroke-width:1.49313784px;stroke-linecap:butt;stroke-linejoin:miter;stroke-opacity:1"
             d="m 42.935318,512.14568 c -1.093117,-0.64985 -0.998922,-0.10408 -3.814032,0.0917 -2.81511,0.19587 -1.079976,-4.56867 -12.679019,0.21313 -14.117691,5.82015 -11.011033,15.15309 -11.011033,15.15309 0,0 5.794195,7.90196 17.278067,-0.15446 10.751303,-7.54249 7.506475,-7.83541 8.683392,-9.75499 1.176932,-1.91957 1.363168,-1.48045 2.260479,-2.24976 1.214749,-1.04143 0.05566,-2.83885 -0.717854,-3.29874 z"
             id="path4771-11"
             inkscape:connector-curvature="0"
             sodipodi:nodetypes="szscszss" />
          <path
             style="fill:#ffcc00;fill-opacity:1;stroke:#000000;stroke-width:1.49313784px;stroke-linecap:butt;stroke-linejoin:miter;stroke-opacity:1"
             d="m 23.498556,506.17161 c -1.236013,-0.29915 -0.985289,0.19464 -3.617893,1.21078 -2.632633,1.01615 -2.377442,-4.04806 -12.0540883,3.93727 -11.7778782,9.7193 -6.0607049,17.72363 -6.0607049,17.72363 0,0 7.8641727,5.84538 16.4664952,-5.23548 8.053575,-10.374 4.866368,-9.69843 5.425843,-11.87946 0.559474,-2.18102 0.866779,-1.81621 1.497767,-2.81566 0.854217,-1.35294 -0.782732,-2.72938 -1.657419,-2.94108 z"
             id="path4771-52"
             inkscape:connector-curvature="0"
             sodipodi:nodetypes="szscszss" />
          <path
             style="fill:#ffcc00;fill-opacity:1;stroke:#000000;stroke-width:1.49313784px;stroke-linecap:butt;stroke-linejoin:miter;stroke-opacity:1"
             d="m 27.821105,528.68069 c -1.095776,-0.64539 -0.999341,-0.10004 -3.813627,0.1074 -2.814286,0.20742 -1.098696,-4.56419 -12.678036,0.26511 -14.0937088,5.87796 -10.94882903,15.19809 -10.94882903,15.19809 0,0 5.82653273,7.87814 17.27728703,-0.22527 10.720294,-7.58649 7.47431,-7.86611 8.643349,-9.7905 1.169024,-1.92438 1.357082,-1.48602 2.251226,-2.259 1.210456,-1.0464 0.04409,-2.83905 -0.73137,-3.29576 z"
             id="path4771-76"
             inkscape:connector-curvature="0"
             sodipodi:nodetypes="szscszss" />
          <path
             style="fill:#ffcc00;fill-opacity:1;stroke:#000000;stroke-width:1.49313784px;stroke-linecap:butt;stroke-linejoin:miter;stroke-opacity:1"
             d="m 4.0426113,526.73648 c -1.2499057,-0.23452 -0.9738546,0.24556 -3.55012365,1.39716 -2.57624005,1.15158 -2.58458115,-3.91905 -11.83314365,4.5584 -11.256842,10.31829 -5.131403,18.01464 -5.131403,18.01464 0,0 8.1573394,5.42878 16.17214317,-6.08416 7.50353973,-10.77853 4.35575433,-9.93823 4.80112803,-12.14538 0.4453737,-2.20718 0.7712111,-1.85882 1.3494061,-2.88969 0.7827469,-1.39552 -0.923519,-2.68502 -1.808007,-2.85097 z"
             id="path4771-22"
             inkscape:connector-curvature="0"
             sodipodi:nodetypes="szscszss" />
          <path
             style="fill:#ffcc00;fill-opacity:1;stroke:#000000;stroke-width:1.4924649px;stroke-linecap:butt;stroke-linejoin:miter;stroke-opacity:1"
             d="m -12.134302,541.83026 c -1.327896,-0.22055 -1.034613,0.23094 -3.771604,1.31392 -2.736976,1.083 -2.745823,-3.68556 -12.571409,4.28684 -11.959141,9.70359 -5.45156,16.94146 -5.45156,16.94146 0,0 8.666276,5.10536 17.181112,-5.72171 7.9716959,-10.1364 4.627512,-9.34618 5.10067,-11.42186 0.473158,-2.07566 0.819349,-1.74806 1.433612,-2.71752 0.8315646,-1.31238 -0.981141,-2.52506 -1.920821,-2.68113 z"
             id="path4771-22-0-2"
             inkscape:connector-curvature="0"
             sodipodi:nodetypes="szscszss" />
          <path
             style="fill:#ffcc00;fill-opacity:1;stroke:#000000;stroke-width:1.49313784px;stroke-linecap:butt;stroke-linejoin:miter;stroke-opacity:1"
             d="m -28.526205,560.46212 c -1.271705,0.003 -0.910639,0.42361 -3.225602,2.03736 -2.314963,1.61373 -3.272873,-3.36561 -10.769994,6.69404 -9.12505,12.24404 -1.666512,18.65695 -1.666512,18.65695 0,0 9.029757,3.80485 14.746424,-9.00549 5.351972,-11.99317 2.417268,-10.57816 2.44138,-12.82968 0.024,-2.25153 0.409422,-1.97036 0.784309,-3.09129 0.507491,-1.51743 -1.410078,-2.46454 -2.310005,-2.46189 z"
             id="path4771-3"
             inkscape:connector-curvature="0"
             sodipodi:nodetypes="szscszss" />
          <path
             style="fill:#ffcc00;fill-opacity:1;stroke:#000000;stroke-width:1.49313784px;stroke-linecap:butt;stroke-linejoin:miter;stroke-opacity:1"
             d="m -46.749085,577.57748 c -1.258276,0.18437 -0.841207,0.54871 -2.903437,2.47493 -2.062244,1.92626 -3.717827,-2.86648 -9.709765,8.15622 -7.293032,13.41621 1.000917,18.70445 1.000917,18.70445 0,0 9.478715,2.48345 13.317466,-11.00911 3.593868,-12.63185 0.889967,-10.81429 0.593967,-13.04639 -0.296029,-2.23212 0.125333,-2.00854 0.337156,-3.17135 0.286807,-1.57415 -1.745889,-2.2392 -2.636304,-2.10875 z"
             id="path4771-1"
             inkscape:connector-curvature="0"
             sodipodi:nodetypes="szscszss"
             inkscape:transform-center-y="4.5248886" />
          <path
             style="fill:#ffcc00;fill-opacity:1;stroke:#000000;stroke-width:1.49313784px;stroke-linecap:butt;stroke-linejoin:miter;stroke-opacity:1"
             d="m -8.5053214,580.72015 c -1.2659518,0.12085 -0.8677479,0.50568 -3.0242446,2.32576 -2.156511,1.82006 -3.568931,-3.04989 -10.107723,7.65748 -7.958628,13.03238 0.05883,18.73113 0.05883,18.73113 0,0 9.341803,2.95708 13.8543761,-10.32532 4.2246966,-12.43509 1.4327881,-10.75583 1.2494431,-12.99998 -0.1833739,-2.24418 0.2262069,-1.99971 0.4962587,-3.15041 0.3656057,-1.5577 -1.6310661,-2.32417 -2.5269164,-2.23866 z"
             id="path4771-16"
             inkscape:connector-curvature="0"
             sodipodi:nodetypes="szscszss" />
          <path
             style="fill:#ffcc00;fill-opacity:1;stroke:#000000;stroke-width:1.49313784px;stroke-linecap:butt;stroke-linejoin:miter;stroke-opacity:1"
             d="m -18.165936,598.57387 c -1.245902,0.25489 -0.808999,0.59516 -2.759571,2.63439 -1.950571,2.03925 -3.873229,-2.65275 -9.235393,8.68968 -6.526519,13.80536 2.051879,18.6185 2.051879,18.6185 0,0 9.603442,1.94611 12.676851,-11.74107 2.877344,-12.81407 0.279998,-10.84723 -0.14109,-13.05914 -0.421145,-2.21192 0.01156,-2.01242 0.158192,-3.18531 0.197743,-1.58779 -1.869141,-2.1374 -2.75081,-1.95705 z"
             id="path4771-34"
             inkscape:connector-curvature="0"
             sodipodi:nodetypes="szscszss" />
          <path
             style="fill:#ffcc00;fill-opacity:1;stroke:#000000;stroke-width:1.49313784px;stroke-linecap:butt;stroke-linejoin:miter;stroke-opacity:1"
             d="m -28.361667,734.5078 c -1.117012,0.60786 -0.599749,0.80561 -1.869185,3.32587 -1.26945,2.52025 -4.479411,-1.40499 -6.292636,11.00934 -2.206977,15.11002 7.403548,17.20599 7.403548,17.20599 0,0 9.752916,-0.94546 8.692094,-14.93331 -0.993211,-13.09552 -2.902352,-10.45546 -3.951493,-12.44774 -1.0492,-1.99229 -0.576706,-1.92806 -0.779625,-3.09249 -0.274909,-1.57626 -2.412208,-1.49782 -3.20266,-1.0677 z"
             id="path4771-34-2"
             inkscape:connector-curvature="0"
             sodipodi:nodetypes="szscszss" />
          <path
             style="fill:#ffcc00;fill-opacity:1;stroke:#000000;stroke-width:1.49313784px;stroke-linecap:butt;stroke-linejoin:miter;stroke-opacity:1"
             d="m -66.12931,712.1612 c -1.012177,0.76987 -0.470946,0.88706 -1.344462,3.57038 -0.87353,2.68331 -4.640421,-0.71112 -4.554553,11.83465 0.104517,15.26999 9.921516,15.88782 9.921516,15.88782 0,0 9.49761,-2.41014 6.332694,-16.07646 -2.963053,-12.79454 -4.450802,-9.89603 -5.78928,-11.70664 -1.338535,-1.81059 -0.861763,-1.8186 -1.238529,-2.93893 -0.510223,-1.51653 -2.611035,-1.11563 -3.327328,-0.57085 z"
             id="path4771-34-9"
             inkscape:connector-curvature="0"
             sodipodi:nodetypes="szscszss" />
          <path
             style="fill:#ffcc00;fill-opacity:1;stroke:#000000;stroke-width:1.49313784px;stroke-linecap:butt;stroke-linejoin:miter;stroke-opacity:1"
             d="m -63.256997,737.96221 c -0.787373,0.99865 -0.234042,0.97669 -0.408439,3.79322 -0.174397,2.81651 -4.670735,0.47252 -1.448733,12.59778 3.921642,14.75819 13.580985,12.90022 13.580985,12.90022 0,0 8.59255,-4.70975 2.109067,-17.14957 -6.069928,-11.64627 -6.785151,-8.46774 -8.534077,-9.88586 -1.748969,-1.41813 -1.28937,-1.54517 -1.934439,-2.53559 -0.873429,-1.34064 -2.80713,-0.42689 -3.364335,0.27978 z"
             id="path4771-34-31"
             inkscape:connector-curvature="0"
             sodipodi:nodetypes="szscszss" />
          <path
             style="fill:#ffcc00;fill-opacity:1;stroke:#000000;stroke-width:1.49313784px;stroke-linecap:butt;stroke-linejoin:miter;stroke-opacity:1"
             d="m -60.580129,768.80232 c -0.737644,1.03592 -0.186034,0.98696 -0.222593,3.80865 -0.03657,2.82167 -4.642069,0.70019 -0.831391,12.6535 4.638151,14.54893 14.19516,12.22116 14.19516,12.22116 0,0 8.352134,-5.124 1.268496,-17.23214 -6.631787,-11.33573 -7.190842,-8.12604 -9.006959,-9.45702 -1.816204,-1.33097 -1.363342,-1.48032 -2.056043,-2.43803 -0.937902,-1.29636 -2.824636,-0.2892 -3.346641,0.44385 z"
             id="path4771-34-98"
             inkscape:connector-curvature="0"
             sodipodi:nodetypes="szscszss" />
          <path
             style="fill:#ffcc00;fill-opacity:1;stroke:#000000;stroke-width:1.49313784px;stroke-linecap:butt;stroke-linejoin:miter;stroke-opacity:1"
             d="m -52.545781,796.06231 c -0.512536,1.16388 0.01778,1.00421 0.55349,3.77478 0.535694,2.77062 -4.404052,1.62591 1.748709,12.55967 7.488751,13.30796 16.376218,9.09273 16.376218,9.09273 0,0 7.141201,-6.70946 -2.24796,-17.13192 -8.790294,-9.75757 -8.687671,-6.50116 -10.735734,-7.43672 -2.048106,-0.93552 -1.634911,-1.17349 -2.507213,-1.97106 -1.181037,-1.07951 -2.82468,0.28882 -3.187394,1.11248 z"
             id="path4771-34-5-6"
             inkscape:connector-curvature="0"
             sodipodi:nodetypes="szscszss" />
          <path
             style="fill:#ffcc00;fill-opacity:1;stroke:#000000;stroke-width:1.49313784px;stroke-linecap:butt;stroke-linejoin:miter;stroke-opacity:1"
             d="m -60.445978,598.01837 c -1.228048,0.33036 -0.771211,0.64336 -2.593847,2.79772 -1.822637,2.15436 -4.02772,-2.41173 -8.688538,9.23645 -5.672866,14.17752 3.182971,18.45881 3.182971,18.45881 0,0 9.704214,1.35711 11.937587,-12.49196 2.090896,-12.96565 -0.381724,-10.84414 -0.936905,-13.02625 -0.555196,-2.18214 -0.110443,-2.00941 -0.03628,-3.18903 0.100613,-1.59689 -1.995964,-2.01951 -2.864998,-1.78574 z"
             id="path4771-45-1"
             inkscape:connector-curvature="0"
             sodipodi:nodetypes="szscszss" />
          <path
             style="fill:#ffcc00;fill-opacity:1;stroke:#000000;stroke-width:1.4924649px;stroke-linecap:butt;stroke-linejoin:miter;stroke-opacity:1"
             d="m 10.490143,541.83031 c -1.3278954,-0.22057 -1.0346129,0.23092 -3.7716177,1.31391 -2.7369615,1.08299 -2.7458085,-3.68557 -12.5713948,4.28685 -11.9591555,9.70357 -5.4515595,16.94144 -5.4515595,16.94144 0,0 8.666276,5.10535 17.1811114,-5.72171 7.9716816,-10.13641 4.6275116,-9.34618 5.1006696,-11.42186 0.473158,-2.07566 0.819335,-1.74806 1.433598,-2.71752 0.831579,-1.31238 -0.98114,-2.52506 -1.920807,-2.68111 z"
             id="path4771-22-0"
             inkscape:connector-curvature="0"
             sodipodi:nodetypes="szscszss" />
          <path
             style="fill:#ffcc00;fill-opacity:1;stroke:#000000;stroke-width:1.49313784px;stroke-linecap:butt;stroke-linejoin:miter;stroke-opacity:1"
             d="m -7.6577684,550.51708 c -1.2714307,0.0269 -0.9028037,0.44008 -3.1880886,2.09557 -2.285299,1.65549 -3.333414,-3.30565 -10.646685,6.88845 -8.901301,12.40765 -1.327577,18.68412 -1.327577,18.68412 0,0 9.097323,3.64032 14.5804982,-9.27169 5.1333983,-12.08833 2.2248735,-10.6203 2.2081046,-12.87189 -0.016769,-2.25159 0.3735709,-1.97747 0.7280455,-3.10502 0.4798801,-1.52638 -1.4545732,-2.43852 -2.3542977,-2.41954 z"
             id="path4771-14"
             inkscape:connector-curvature="0"
             sodipodi:nodetypes="szscszss" />
          <path
             style="fill:#ffcc00;fill-opacity:1;stroke:#000000;stroke-width:1.49313784px;stroke-linecap:butt;stroke-linejoin:miter;stroke-opacity:1"
             d="m -14.687037,569.80181 c -1.270159,0.0626 -0.890068,0.46525 -3.127981,2.18424 -2.237913,1.719 -3.42492,-3.21074 -10.449115,7.18462 -8.549472,12.65267 -0.802537,18.71404 -0.802537,18.71404 0,0 9.195957,3.38347 14.314494,-9.67736 4.7919778,-12.22767 1.925823,-10.67857 1.845896,-12.9288 -0.08009,-2.25023 0.317742,-1.98722 0.640587,-3.12422 0.43686,-1.53927 -1.522458,-2.39674 -2.421301,-2.35251 z"
             id="path4771-34-1"
             inkscape:connector-curvature="0"
             sodipodi:nodetypes="szscszss" />
          <path
             style="fill:#ffcc00;fill-opacity:1;stroke:#000000;stroke-width:1.49313784px;stroke-linecap:butt;stroke-linejoin:miter;stroke-opacity:1"
             d="m -29.798951,584.9994 c -1.27172,-6.6e-4 -0.912099,0.42045 -3.232642,2.02617 -2.320543,1.60571 -3.261193,-3.37693 -10.793124,6.65666 -9.16745,12.21234 -1.731188,18.65107 -1.731188,18.65107 0,0 9.016515,3.83613 14.777548,-8.95433 5.393519,-11.97452 2.453928,-10.56971 2.485833,-12.82113 0.03195,-2.25143 0.416259,-1.96894 0.79502,-3.08856 0.512767,-1.51565 -1.401535,-2.4694 -2.301447,-2.46988 z"
             id="path4771-2"
             inkscape:connector-curvature="0"
             sodipodi:nodetypes="szscszss" />
          <path
             style="fill:#ffcc00;fill-opacity:1;stroke:#000000;stroke-width:1.49313784px;stroke-linecap:butt;stroke-linejoin:miter;stroke-opacity:1"
             d="m -50.418731,602.94589 c -1.22296,0.3488 -0.761453,0.65489 -2.551462,2.83644 -1.789995,2.18154 -4.063571,-2.35083 -8.548518,9.36619 -5.458846,14.26129 3.460424,18.4088 3.460424,18.4088 0,0 9.723542,1.2109 11.748229,-12.67023 1.895509,-12.99565 -0.544903,-10.83716 -1.132885,-13.01068 -0.587981,-2.17353 -0.140801,-2.0075 -0.08413,-3.18812 0.07662,-1.59821 -2.026133,-1.98923 -2.891539,-1.7424 z"
             id="path4771-5"
             inkscape:connector-curvature="0"
             sodipodi:nodetypes="szscszss" />
          <path
             style="fill:#ffcc00;fill-opacity:1;stroke:#000000;stroke-width:1.49313784px;stroke-linecap:butt;stroke-linejoin:miter;stroke-opacity:1"
             d="m -62.851189,622.19335 c -1.191215,0.44521 -0.706796,0.71353 -2.317117,3.03088 -1.610337,2.31733 -4.238112,-2.0193 -7.774373,10.01806 -4.304132,14.65121 4.917484,18.07423 4.917484,18.07423 0,0 9.789143,0.4316 10.700375,-13.56677 0.853104,-13.10544 -1.407404,-10.7592 -2.166848,-12.8789 -0.759429,-2.11971 -0.300366,-1.98989 -0.338255,-3.17124 -0.05103,-1.59924 -2.17831,-1.82132 -3.021281,-1.50626 z"
             id="path4771-45-4"
             inkscape:connector-curvature="0"
             sodipodi:nodetypes="szscszss" />
          <path
             style="fill:#ffcc00;fill-opacity:1;stroke:#000000;stroke-width:1.49313784px;stroke-linecap:butt;stroke-linejoin:miter;stroke-opacity:1"
             d="m -67.291699,649.65995 c -1.088158,0.65813 -0.562409,0.83208 -1.715648,3.4076 -1.153253,2.57552 -4.538781,-1.19934 -5.784278,11.28473 -1.515924,15.1949 8.180137,16.85063 8.180137,16.85063 0,0 9.699718,-1.38902 8.002357,-15.31397 -1.589072,-13.03666 -3.375872,-10.31233 -4.514799,-12.25469 -1.138913,-1.94237 -0.663745,-1.89983 -0.919789,-3.05372 -0.346438,-1.56208 -2.477969,-1.38633 -3.247995,-0.92058 z"
             id="path4771-45-2"
             inkscape:connector-curvature="0"
             sodipodi:nodetypes="szscszss" />
          <path
             style="fill:#ffcc00;fill-opacity:1;stroke:#000000;stroke-width:1.49313784px;stroke-linecap:butt;stroke-linejoin:miter;stroke-opacity:1"
             d="m -65.734648,681.77343 c -1.031736,0.74348 -0.493714,0.87461 -1.436185,3.53451 -0.942514,2.65985 -4.620515,-0.83065 -4.858504,11.71313 -0.289654,15.26759 9.508119,16.13861 9.508119,16.13861 0,0 9.556677,-2.16421 6.745542,-15.90766 -2.631838,-12.86676 -4.193877,-10.00762 -5.485242,-11.85214 -1.291351,-1.84454 -0.81429,-1.84033 -1.162259,-2.96991 -0.470874,-1.52919 -2.581372,-1.18267 -3.311485,-0.65653 z"
             id="path4771-45-0"
             inkscape:connector-curvature="0"
             sodipodi:nodetypes="szscszss" />
          <path
             style="fill:#ffcc00;fill-opacity:1;stroke:#000000;stroke-width:1.49313784px;stroke-linecap:butt;stroke-linejoin:miter;stroke-opacity:1"
             d="m -66.860991,594.65004 c -4.567456,4.4548 -66.591149,98.95637 25.048483,235.74804 -3.131982,1.99846 -54.075245,-168.23994 -25.048483,-235.74804 z"
             id="path5154"
             inkscape:connector-curvature="0"
             sodipodi:nodetypes="ccc" />
          <path
             style="fill:#ffcc00;fill-opacity:1;stroke:#000000;stroke-width:1.49313784px;stroke-linecap:butt;stroke-linejoin:miter;stroke-opacity:1"
             d="m -34.770154,609.35614 c -1.222959,0.3488 -0.761453,0.65489 -2.551462,2.83644 -1.789995,2.18154 -4.063571,-2.35083 -8.548518,9.36619 -5.458845,14.26129 3.460424,18.4088 3.460424,18.4088 0,0 9.723542,1.2109 11.748229,-12.67023 1.895509,-12.99565 -0.544903,-10.83716 -1.132884,-13.01068 -0.587982,-2.17353 -0.140801,-2.0075 -0.08413,-3.18812 0.07662,-1.59821 -2.026133,-1.98923 -2.891539,-1.7424 z"
             id="path4771-761"
             inkscape:connector-curvature="0"
             sodipodi:nodetypes="szscszss" />
          <path
             style="fill:#ffcc00;fill-opacity:1;stroke:#000000;stroke-width:1.49313784px;stroke-linecap:butt;stroke-linejoin:miter;stroke-opacity:1"
             d="m -51.132957,628.45904 c -1.228048,0.33036 -0.771225,0.64336 -2.593847,2.79773 -1.822651,2.15434 -4.027734,-2.41173 -8.688538,9.23643 -5.672866,14.17753 3.182957,18.45882 3.182957,18.45882 0,0 9.704214,1.35711 11.937602,-12.49196 2.090895,-12.96565 -0.381724,-10.84414 -0.93692,-13.02625 -0.555196,-2.18214 -0.110444,-2.00941 -0.03628,-3.18903 0.100614,-1.59689 -1.995948,-2.0195 -2.864983,-1.78574 z"
             id="path4771-45"
             inkscape:connector-curvature="0"
             sodipodi:nodetypes="szscszss" />
          <path
             style="fill:#ffcc00;fill-opacity:1;stroke:#000000;stroke-width:1.49313784px;stroke-linecap:butt;stroke-linejoin:miter;stroke-opacity:1"
             d="m -55.056839,654.79216 c -1.167594,0.50393 -0.67041,0.74782 -2.16345,3.14241 -1.493026,2.39458 -4.333319,-1.8059 -7.266274,10.39249 -3.569827,14.84721 5.810674,17.80717 5.810674,17.80717 0,0 9.798496,-0.056 10.012097,-14.08239 0.199984,-13.13162 -1.940987,-10.67583 -2.804948,-12.75513 -0.863975,-2.07929 -0.399085,-1.97247 -0.495608,-3.15049 -0.130682,-1.5947 -2.266232,-1.71068 -3.092491,-1.35406 z"
             id="path4771-82"
             inkscape:connector-curvature="0"
             sodipodi:nodetypes="szscszss" />
          <path
             style="fill:#ffcc00;fill-opacity:1;stroke:#000000;stroke-width:1.49313784px;stroke-linecap:butt;stroke-linejoin:miter;stroke-opacity:1"
             d="m -54.7891,679.7328 c -1.117865,0.60635 -0.600862,0.80479 -1.873738,3.32331 -1.272891,2.51853 -4.477474,-1.41111 -6.307671,11.00074 -2.22762,15.10697 7.380028,17.21609 7.380028,17.21609 0,0 9.754217,-0.93212 8.712477,-14.92141 -0.975314,-13.09689 -2.88804,-10.45945 -3.934507,-12.45313 -1.046467,-1.9937 -0.573844,-1.92889 -0.774999,-3.09367 -0.27274,-1.57661 -2.410141,-1.5011 -3.201185,-1.07203 z"
             id="path4771-8"
             inkscape:connector-curvature="0"
             sodipodi:nodetypes="szscszss" />
          <path
             style="fill:#ffcc00;fill-opacity:1;stroke:#000000;stroke-width:1.49313784px;stroke-linecap:butt;stroke-linejoin:miter;stroke-opacity:1"
             d="m -21.945042,620.06432 c -1.235739,0.30029 -0.786679,0.62436 -2.661328,2.73362 -1.874649,2.10924 -3.967699,-2.50927 -8.911232,9.02175 -6.017005,14.03493 2.731757,18.53096 2.731757,18.53096 0,0 9.668233,1.59342 12.238734,-12.19707 2.406556,-12.91076 -0.117093,-10.8502 -0.618889,-13.04522 -0.501795,-2.19502 -0.06158,-2.0115 0.04149,-3.18897 0.1395,-1.59394 -1.946119,-2.06758 -2.820589,-1.85507 z"
             id="path4771-85"
             inkscape:connector-curvature="0"
             sodipodi:nodetypes="szscszss" />
          <path
             style="fill:#ffcc00;fill-opacity:1;stroke:#000000;stroke-width:1.49313784px;stroke-linecap:butt;stroke-linejoin:miter;stroke-opacity:1"
             d="m -27.37726,646.18152 c -1.228048,0.33037 -0.771211,0.64337 -2.593847,2.79772 -1.822637,2.15436 -4.02772,-2.41173 -8.688538,9.23645 -5.672866,14.17753 3.182971,18.45882 3.182971,18.45882 0,0 9.704214,1.35711 11.937587,-12.49196 2.090896,-12.96565 -0.381724,-10.84414 -0.936919,-13.02625 -0.555182,-2.18214 -0.110444,-2.00941 -0.03628,-3.18903 0.100614,-1.59689 -1.995963,-2.01951 -2.864998,-1.78575 z"
             id="path4771-23"
             inkscape:connector-curvature="0"
             sodipodi:nodetypes="szscszss" />
          <path
             style="fill:#ffcc00;fill-opacity:1;stroke:#000000;stroke-width:1.49313784px;stroke-linecap:butt;stroke-linejoin:miter;stroke-opacity:1"
             d="m -31.092181,673.57949 c -1.132683,0.57818 -0.620797,0.78948 -1.956383,3.27534 -1.335558,2.48585 -4.440727,-1.5228 -6.581221,10.8393 -2.605282,15.04645 6.946508,17.39553 6.946508,17.39553 0,0 9.774499,-0.68752 9.083475,-14.6985 -0.646962,-13.11721 -2.625159,-10.52851 -3.621305,-12.54779 -0.996218,-2.01928 -0.525575,-1.9426 -0.697673,-3.11199 -0.233189,-1.58296 -2.37179,-1.56103 -3.173358,-1.15191 z"
             id="path4771-34-77"
             inkscape:connector-curvature="0"
             sodipodi:nodetypes="szscszss" />
          <path
             style="fill:#ffcc00;fill-opacity:1;stroke:#000000;stroke-width:1.49313784px;stroke-linecap:butt;stroke-linejoin:miter;stroke-opacity:1"
             d="m -39.63285,636.83106 c -1.195031,0.43492 -0.712939,0.70742 -2.343195,3.01079 -1.630257,2.30334 -4.220519,-2.05578 -7.86053,9.95061 -4.430419,14.61351 4.761302,18.11598 4.761302,18.11598 0,0 9.785052,0.51608 10.817077,-13.47392 0.966164,-13.09756 -1.314509,-10.77094 -2.055623,-12.89713 -0.741114,-2.12619 -0.283264,-1.9924 -0.310861,-3.17404 -0.0373,-1.59961 -2.16251,-1.84006 -3.00817,-1.53229 z"
             id="path4771-89"
             inkscape:connector-curvature="0"
             sodipodi:nodetypes="szscszss" />
          <path
             style="fill:#ffcc00;fill-opacity:1;stroke:#000000;stroke-width:1.49313784px;stroke-linecap:butt;stroke-linejoin:miter;stroke-opacity:1"
             d="m -44.83753,665.25707 c -1.059955,0.70268 -0.527455,0.8547 -1.572997,3.47578 -1.045542,2.62107 -4.584578,-1.01027 -5.311741,11.51468 -0.885081,15.24466 8.871261,16.49726 8.871261,16.49726 0,0 9.633814,-1.78971 7.36099,-15.63237 -2.127845,-12.95964 -3.800255,-10.16361 -5.018647,-12.05713 -1.218435,-1.8935 -0.741981,-1.87067 -1.045513,-3.013 -0.410896,-1.54638 -2.533277,-1.28246 -3.283353,-0.78522 z"
             id="path4771-27"
             inkscape:connector-curvature="0"
             sodipodi:nodetypes="szscszss" />
          <path
             style="fill:#ffcc00;fill-opacity:1;stroke:#000000;stroke-width:1.49313784px;stroke-linecap:butt;stroke-linejoin:miter;stroke-opacity:1"
             d="m -37.283843,691.59881 c -1.207564,0.39876 -0.733886,0.68563 -2.432736,2.93888 -1.69885,2.25326 -4.156739,-2.18185 -8.156414,9.70957 -4.868175,14.47357 4.213985,18.25107 4.213985,18.25107 0,0 9.765088,0.8103 11.217637,-13.14232 1.359873,-13.06255 -0.98977,-10.8056 -1.666555,-12.95313 -0.676814,-2.14752 -0.223186,-2.00003 -0.215206,-3.18196 0.01012,-1.60002 -2.106161,-1.90429 -2.960711,-1.62211 z"
             id="path4771-31"
             inkscape:connector-curvature="0"
             sodipodi:nodetypes="szscszss" />
          <path
             style="fill:#ffcc00;fill-opacity:1;stroke:#000000;stroke-width:1.49313784px;stroke-linecap:butt;stroke-linejoin:miter;stroke-opacity:1"
             d="m -32.507709,708.90374 c -1.222945,0.34879 -0.761453,0.65488 -2.551463,2.83643 -1.789995,2.18154 -4.06357,-2.35081 -8.548517,9.36619 -5.458846,14.26128 3.460438,18.40882 3.460438,18.40882 0,0 9.723528,1.2109 11.748215,-12.67023 1.895509,-12.99565 -0.544889,-10.83718 -1.13287,-13.01069 -0.587996,-2.17354 -0.140801,-2.00751 -0.08428,-3.18811 0.07662,-1.59821 -2.026132,-1.98925 -2.891539,-1.74241 z"
             id="path4771-54"
             inkscape:connector-curvature="0"
             sodipodi:nodetypes="szscszss" />
          <path
             style="fill:#ffcc00;fill-opacity:1;stroke:#000000;stroke-width:1.49313784px;stroke-linecap:butt;stroke-linejoin:miter;stroke-opacity:1"
             d="m -53.550759,701.67356 c -1.040844,0.73068 -0.504484,0.86846 -1.479799,3.51646 -0.975315,2.64803 -4.609861,-0.88771 -5.002977,11.65217 -0.478478,15.26283 9.307774,16.25497 9.307774,16.25497 0,0 9.582697,-2.04583 6.941767,-15.82301 -2.472476,-12.89831 -4.069772,-10.05872 -5.338211,-11.91907 -1.268452,-1.86039 -0.791565,-1.85024 -1.12544,-2.98408 -0.451965,-1.53487 -2.56654,-1.2145 -3.303114,-0.69744 z"
             id="path4771-9"
             inkscape:connector-curvature="0"
             sodipodi:nodetypes="szscszss" />
          <path
             style="fill:#ffcc00;fill-opacity:1;stroke:#000000;stroke-width:1.49313784px;stroke-linecap:butt;stroke-linejoin:miter;stroke-opacity:1"
             d="m -47.989667,722.26651 c -1.123329,0.59612 -0.608148,0.79927 -1.903951,3.30608 -1.295818,2.50682 -4.464434,-1.4519 -6.407778,10.94273 -2.365342,15.08604 7.22266,17.28272 7.22266,17.28272 0,0 9.762327,-0.8431 8.848234,-14.84131 -0.855764,-13.10524 -2.792487,-10.48536 -3.820725,-12.48852 -1.028253,-2.00315 -0.55628,-1.93404 -0.747157,-3.10049 -0.258356,-1.57904 -2.396335,-1.52305 -3.191283,-1.10121 z"
             id="path4771"
             inkscape:connector-curvature="0"
             sodipodi:nodetypes="szscszss" />
          <path
             style="fill:#ffcc00;fill-opacity:1;stroke:#000000;stroke-width:1.49313784px;stroke-linecap:butt;stroke-linejoin:miter;stroke-opacity:1"
             d="m -42.312753,740.27492 c -0.885977,0.9123 -0.333297,0.94743 -0.796596,3.73106 -0.463285,2.78362 -4.694559,-0.0101 -2.737352,12.38183 2.382212,15.08338 12.181489,14.22921 12.181489,14.22921 0,0 9.031563,-3.80058 3.862531,-16.8415 -4.839306,-12.20904 -5.877808,-9.12099 -7.471549,-10.71154 -1.593784,-1.59054 -1.123387,-1.66973 -1.663273,-2.72119 -0.730836,-1.42337 -2.748295,-0.71347 -3.37525,-0.0679 z"
             id="path4771-4"
             inkscape:connector-curvature="0"
             sodipodi:nodetypes="szscszss" />
          <path
             style="fill:#ffcc00;fill-opacity:1;stroke:#000000;stroke-width:1.49313784px;stroke-linecap:butt;stroke-linejoin:miter;stroke-opacity:1"
             d="m -34.391552,765.02476 c -0.708993,1.05574 -0.158914,0.99169 -0.118105,3.81332 0.04077,2.82161 -4.621137,0.8271 -0.484405,12.67154 5.034982,14.4164 14.524626,11.82767 14.524626,11.82767 0,0 8.20863,-5.35089 0.795931,-17.26042 -6.939844,-11.14979 -7.410761,-7.92598 -9.262671,-9.20672 -1.851968,-1.2807 -1.40337,-1.44241 -2.122063,-2.38079 -0.973059,-1.27017 -2.831503,-0.2117 -3.333226,0.53537 z"
             id="path4771-34-8"
             inkscape:connector-curvature="0"
             sodipodi:nodetypes="szscszss" />
          <path
             style="fill:#ffcc00;fill-opacity:1;stroke:#000000;stroke-width:1.49313784px;stroke-linecap:butt;stroke-linejoin:miter;stroke-opacity:1"
             d="m -18.394008,785.16775 c -0.926439,0.87117 -0.375942,0.93134 -0.965094,3.69107 -0.589139,2.75973 -4.689239,-0.22366 -3.296451,12.24485 1.695236,15.17595 11.523164,14.76737 11.523164,14.76737 0,0 9.194743,-3.38676 4.6228864,-16.64886 -4.2802504,-12.41606 -5.4578194,-9.37832 -6.9777044,-11.03958 -1.519943,-1.66125 -1.046597,-1.7189 -1.538056,-2.79386 -0.66548,-1.4551 -2.71308,-0.83748 -3.368702,-0.22101 z"
             id="path4771-34-7"
             inkscape:connector-curvature="0"
             sodipodi:nodetypes="szscszss" />
          <path
             style="fill:#ffcc00;fill-opacity:1;stroke:#000000;stroke-width:1.49313784px;stroke-linecap:butt;stroke-linejoin:miter;stroke-opacity:1"
             d="m -52.650298,752.00559 c -0.839833,0.95496 -0.286097,0.96272 -0.611371,3.76583 -0.325259,2.8031 -4.689355,0.22124 -2.122554,12.50191 3.124164,14.94735 12.869289,13.6103 12.869289,13.6103 0,0 8.832866,-4.24193 3.026152,-17.01172 -5.436323,-11.95515 -6.321071,-8.81956 -7.991385,-10.3295 -1.670357,-1.50991 -1.2046,-1.61212 -1.795603,-2.63572 -0.800239,-1.38557 -2.780171,-0.57689 -3.374499,0.0989 z"
             id="path4771-34-3"
             inkscape:connector-curvature="0"
             sodipodi:nodetypes="szscszss" />
          <path
             style="fill:#ffcc00;fill-opacity:1;stroke:#000000;stroke-width:1.49313784px;stroke-linecap:butt;stroke-linejoin:miter;stroke-opacity:1"
             d="m -45.335133,778.09602 c -0.541709,1.15058 -0.0072,1.00432 0.458109,3.78755 0.465699,2.78322 -4.443618,1.51435 1.431545,12.59973 7.150901,13.49253 16.141814,9.50268 16.141814,9.50268 0,0 7.308067,-6.52731 -1.815437,-17.18313 -8.541535,-9.97606 -8.521022,-6.71811 -10.544857,-7.705 -2.023878,-0.98686 -1.604799,-1.21434 -2.456733,-2.03364 -1.153441,-1.10896 -2.831055,0.2176 -3.214412,1.03178 z"
             id="path4771-34-4"
             inkscape:connector-curvature="0"
             sodipodi:nodetypes="szscszss" />
          <path
             style="fill:#ffcc00;fill-opacity:1;stroke:#000000;stroke-width:1.49313784px;stroke-linecap:butt;stroke-linejoin:miter;stroke-opacity:1"
             d="m -31.697033,802.18599 c -0.547245,1.14794 -0.01156,1.00427 0.439837,3.78971 0.452298,2.78542 -4.45086,1.49291 1.370815,12.6065 7.085806,13.5268 16.09583,9.58035 16.09583,9.58035 0,0 7.3394216,-6.49201 -1.732604,-17.19169 -8.49334,-10.0171 -8.48854,-6.7591 -10.50759,-7.75573 -2.019107,-0.99659 -1.598945,-1.22206 -2.446903,-2.04544 -1.148077,-1.1145 -2.832081,0.20394 -3.219356,1.01627 z"
             id="path4771-34-6"
             inkscape:connector-curvature="0"
             sodipodi:nodetypes="szscszss" />
          <path
             style="fill:#ffcc00;fill-opacity:1;stroke:#000000;stroke-width:1.49313784px;stroke-linecap:butt;stroke-linejoin:miter;stroke-opacity:1"
             d="m -12.416367,811.72667 c -0.653048,1.09125 -0.107119,0.99865 0.08066,3.8143 0.187624,2.81567 -4.571813,1.06663 0.176103,12.67959 5.7788711,14.13462 15.1208621,11.05526 15.1208621,11.05526 0,0 7.9188159,-5.7711 -0.1039383,-17.27846 -7.5110714,-10.77328 -7.8134756,-7.52933 -9.7295553,-8.71189 -1.9161521,-1.18252 -1.4765897,-1.36736 -2.2431603,-2.26704 -1.0378802,-1.21777 -2.8386732,-0.064 -3.3008162,0.70821 z"
             id="path4771-34-5"
             inkscape:connector-curvature="0"
             sodipodi:nodetypes="szscszss" />
          <path
             style="fill:#ffcc00;fill-opacity:1;stroke:#000000;stroke-width:1.49313784px;stroke-linecap:butt;stroke-linejoin:miter;stroke-opacity:1"
             d="m 115.12409,930.30876 c 0,0 -42.117787,-42.96157 -57.921303,-64.97599 C 41.3993,843.31834 47.530419,833.09122 5.4684316,808.26444 c 0,0 13.2812114,58.45677 49.6992304,83.65373 36.418005,25.19694 12.330573,9.39413 59.956428,38.39059 z"
             id="path5160"
             inkscape:connector-curvature="0" />
          <path
             style="fill:#ffcc00;fill-opacity:1;stroke:#000000;stroke-width:1.49313784px;stroke-linecap:butt;stroke-linejoin:miter;stroke-opacity:1"
             d="m 116.16585,935.6657 c 0,0 -100.594466,-70.93652 -113.6614685,-87.71579 -13.0669735,-16.77926 -40.3100555,-48.81315 -40.3100555,-48.81315 0,0 13.185657,50.71784 48.214242,73.58726 35.028614,22.8694 48.057063,37.00943 105.757282,62.94168 z"
             id="path5162"
             inkscape:connector-curvature="0" />
          <path
             style="fill:#ffcc00;fill-opacity:1;stroke:#000000;stroke-width:1.49313784px;stroke-linecap:butt;stroke-linejoin:miter;stroke-opacity:1"
             d="m 120.84489,934.76712 c 0,0 -99.33796,-10.93677 -140.962569,-58.6339 -41.624623,-47.69715 -67.64499,-92.27361 -66.86181,-100.6093 0,0 80.8775722,89.07469 104.772827,104.68298 25.718874,16.79945 37.177044,22.59724 103.051552,54.56022 z"
             id="path5158"
             inkscape:connector-curvature="0"
             sodipodi:nodetypes="cscsc" />
          <path
             style="fill:#ffcc00;fill-opacity:1;stroke:#000000;stroke-width:1.49313784px;stroke-linecap:butt;stroke-linejoin:miter;stroke-opacity:1"
             d="m 118.17715,933.38921 c 0,0 -47.13427,10.18101 -83.333397,-12.44345 -36.1991419,-22.62444 -46.003059,-33.18253 -55.429921,-35.06789 0,0 47.134281,16.59127 69.381657,29.41178 22.247377,12.82053 31.674224,13.19761 69.381661,18.09956 z"
             id="path5156"
             inkscape:connector-curvature="0"
             sodipodi:nodetypes="csczc" />
          <path
             style="fill:#ffcc00;fill-opacity:1;stroke:#000000;stroke-width:1.48293555px;stroke-linecap:butt;stroke-linejoin:miter;stroke-opacity:1"
             d="m 341.60991,561.49281 c 0.0159,-0.79096 1.20126,-25.06769 -24.80709,-57.33096 -7.39423,-10.593 -19.67858,-21.15909 -25.56301,-26.89779 l -1.66213,3.01099 c 22.65262,20.83358 45.39322,47.38541 48.60925,80.50193 z"
             id="path5391-0"
             inkscape:connector-curvature="0"
             sodipodi:nodetypes="cccccc" />
          <path
             style="fill:#ffcc00;fill-opacity:1;stroke:#000000;stroke-width:1.49313784;stroke-linecap:butt;stroke-linejoin:miter;stroke-miterlimit:4;stroke-opacity:1;stroke-dasharray:none"
             d="m 336.3481,540.22896 2.47391,19.84104 c 1.91554,15.36303 21.9598,7.83261 12.6971,-5.01181 -4.0792,-5.65655 -15.17101,-14.82923 -15.17101,-14.82923 z"
             id="path5164"
             inkscape:connector-curvature="0"
             sodipodi:nodetypes="cssc" />
          <path
             style="fill:#ffcc00;fill-opacity:1;stroke:#000000;stroke-width:1.49313784px;stroke-linecap:butt;stroke-linejoin:miter;stroke-opacity:1"
             d="m 358.26851,597.39378 c -0.12071,-0.79301 -3.13399,-25.25342 -34.30904,-53.01788 -9.10777,-9.31281 -23.02774,-17.75786 -29.81231,-22.48 l -1.11864,3.29429 c 25.90112,16.92127 52.87374,39.54087 61.74502,72.07693 z"
             id="path5391-9"
             inkscape:connector-curvature="0"
             sodipodi:nodetypes="cccccc" />
          <path
             style="fill:#ffcc00;fill-opacity:1;stroke:#000000;stroke-width:1.49313784;stroke-linecap:butt;stroke-linejoin:miter;stroke-miterlimit:4;stroke-opacity:1;stroke-dasharray:none"
             d="m 333.8578,558.35617 3.36526,19.70942 c 2.60573,15.26114 22.2904,6.83534 12.45842,-5.57876 -4.32989,-5.46701 -15.82368,-14.13066 -15.82368,-14.13066 z"
             id="path5164-8"
             inkscape:connector-curvature="0"
             sodipodi:nodetypes="cssc" />
          <path
             style="fill:#ffcc00;fill-opacity:1;stroke:#000000;stroke-width:1.49313784px;stroke-linecap:butt;stroke-linejoin:miter;stroke-opacity:1"
             d="m 349.85094,616.64739 c -0.24934,-0.76241 -7.24153,-24.39503 -42.55552,-46.65871 -10.5144,-7.68941 -25.63298,-13.73205 -33.10131,-17.275 l -0.56208,3.43333 c 28.32982,12.43461 58.65302,30.31402 72.75062,60.9498 z"
             id="path5391-7"
             inkscape:connector-curvature="0"
             sodipodi:nodetypes="cccccc" />
          <path
             style="fill:#ffcc00;fill-opacity:1;stroke:#000000;stroke-width:1.49313784;stroke-linecap:butt;stroke-linejoin:miter;stroke-miterlimit:4;stroke-opacity:1;stroke-dasharray:none"
             d="m 350.90229,557.22608 -0.33983,19.99177 c -0.26316,15.47974 20.64067,10.84188 13.27556,-3.17713 -3.24352,-6.17381 -12.93573,-16.81464 -12.93573,-16.81464 z"
             id="path5164-6"
             inkscape:connector-curvature="0"
             sodipodi:nodetypes="cssc" />
          <path
             style="fill:#ffcc00;fill-opacity:1;stroke:#000000;stroke-width:1.49313784px;stroke-linecap:butt;stroke-linejoin:miter;stroke-opacity:1"
             d="m 358.03132,611.60154 c -0.1236,-0.79257 -3.22834,-25.24153 -34.50693,-52.88929 -9.14251,-9.2787 -23.09395,-17.67169 -29.8961,-22.36843 l -1.10634,3.29845 c 25.96419,16.82435 53.02115,39.34299 62.01395,71.84567 z"
             id="path5391-3"
             inkscape:connector-curvature="0"
             sodipodi:nodetypes="cccccc" />
          <path
             style="fill:#ffcc00;fill-opacity:1;stroke:#000000;stroke-width:1.49313784;stroke-linecap:butt;stroke-linejoin:miter;stroke-miterlimit:4;stroke-opacity:1;stroke-dasharray:none"
             d="m 348.70109,577.40307 -0.90877,19.974 c -0.70369,15.46599 20.32368,11.42503 13.36063,-2.79795 -3.06645,-6.26364 -12.45186,-17.17605 -12.45186,-17.17605 z"
             id="path5164-0"
             inkscape:connector-curvature="0"
             sodipodi:nodetypes="cssc" />
          <path
             style="fill:#ffcc00;fill-opacity:1;stroke:#000000;stroke-width:1.49313784px;stroke-linecap:butt;stroke-linejoin:miter;stroke-opacity:1"
             d="m 363.07996,676.54043 c -0.0834,-0.79778 -1.9506,-25.37226 -31.79431,-54.56306 -8.66267,-9.72818 -22.17285,-18.81443 -28.72936,-23.84841 l -1.27135,3.23842 c 25.0822,18.113 50.96846,41.96818 58.30979,74.88321 z"
             id="path5391-72"
             inkscape:connector-curvature="0"
             sodipodi:nodetypes="cccccc" />
          <path
             style="fill:#ffcc00;fill-opacity:1;stroke:#000000;stroke-width:1.49313784;stroke-linecap:butt;stroke-linejoin:miter;stroke-miterlimit:4;stroke-opacity:1;stroke-dasharray:none"
             d="m 344.73775,587.49083 -2.57407,19.82827 c -1.99313,15.35316 19.2983,13.08278 13.54764,-1.67212 -2.53252,-6.49789 -10.97357,-18.15615 -10.97357,-18.15615 z"
             id="path5164-2"
             inkscape:connector-curvature="0"
             sodipodi:nodetypes="cssc" />
          <path
             style="fill:#ffcc00;fill-opacity:1;stroke:#000000;stroke-width:1.49313784px;stroke-linecap:butt;stroke-linejoin:miter;stroke-opacity:1"
             d="m 368.99705,604.53238 c 0.19207,-0.7788 6.76997,-24.53006 -11.40499,-62.11223 -4.84999,-12.08956 -14.47786,-25.21926 -18.93851,-32.17852 l -2.29432,2.61533 c 17.45267,25.54608 33.71426,56.76671 29.45743,90.22076 z"
             id="path5391-6"
             inkscape:connector-curvature="0"
             sodipodi:nodetypes="cccccc" />
          <path
             style="fill:#ffcc00;fill-opacity:1;stroke:#000000;stroke-width:1.49313784;stroke-linecap:butt;stroke-linejoin:miter;stroke-miterlimit:4;stroke-opacity:1;stroke-dasharray:none"
             d="m 364.41858,585.2797 -4.0459,19.58104 c -3.13278,15.16173 18.26867,14.48581 13.63463,-0.65694 -2.04078,-6.66869 -9.58873,-18.9241 -9.58873,-18.9241 z"
             id="path5164-4"
             inkscape:connector-curvature="0"
             sodipodi:nodetypes="cssc" />
          <path
             style="fill:#ffcc00;fill-opacity:1;stroke:#000000;stroke-width:1.49313784px;stroke-linecap:butt;stroke-linejoin:miter;stroke-opacity:1"
             d="m 380.4772,645.85959 c 0.34812,-0.72265 11.66935,-22.61376 1.61074,-63.13009 -2.26039,-12.82851 -8.98268,-27.65739 -11.91701,-35.38514 l -2.78306,2.08764 c 11.82671,28.58892 21.32099,62.48624 10.27603,94.35004 z"
             id="path5391-01"
             inkscape:connector-curvature="0"
             sodipodi:nodetypes="cccccc" />
          <path
             style="fill:#ffcc00;fill-opacity:1;stroke:#000000;stroke-width:1.49313784;stroke-linecap:butt;stroke-linejoin:miter;stroke-miterlimit:4;stroke-opacity:1;stroke-dasharray:none"
             d="m 357.79657,602.61761 -2.40128,19.84995 c -1.85933,15.36993 19.41151,12.91419 13.53257,-1.79007 -2.58902,-6.47557 -11.13129,-18.05988 -11.13129,-18.05988 z"
             id="path5164-86"
             inkscape:connector-curvature="0"
             sodipodi:nodetypes="cssc" />
          <path
             style="fill:#ffcc00;fill-opacity:1;stroke:#000000;stroke-width:1.49313784px;stroke-linecap:butt;stroke-linejoin:miter;stroke-opacity:1"
             d="m 349.13872,758.93375 c 0.30362,-0.74244 10.27559,-23.28022 -2.22312,-63.11151 -3.03467,-12.66769 -10.64445,-27.0613 -14.04229,-34.59677 l -2.65126,2.25267 c 13.53976,27.81856 25.07352,61.07727 15.98249,93.55261 z"
             id="path5391-65"
             inkscape:connector-curvature="0"
             sodipodi:nodetypes="cccccc" />
          <path
             style="fill:#ffcc00;fill-opacity:1;stroke:#000000;stroke-width:1.49313784;stroke-linecap:butt;stroke-linejoin:miter;stroke-miterlimit:4;stroke-opacity:1;stroke-dasharray:none"
             d="m 374.73816,605.46111 -5.10666,19.33155 c -3.95411,14.96852 17.4524,15.45956 13.65019,0.0869 -1.67445,-6.76999 -8.54353,-19.41839 -8.54353,-19.41839 z"
             id="path5164-5"
             inkscape:connector-curvature="0"
             sodipodi:nodetypes="cssc" />
          <path
             style="fill:#ffcc00;fill-opacity:1;stroke:#000000;stroke-width:1.49313784px;stroke-linecap:butt;stroke-linejoin:miter;stroke-opacity:1"
             d="m 358.86076,735.9743 c 0.2281,-0.76902 7.90348,-24.18866 -8.50394,-62.57547 -4.28248,-12.30204 -13.2893,-25.86528 -17.42148,-33.02447 l -2.41347,2.50578 c 16.2457,26.33013 31.03773,58.27327 25.22961,91.49315 z"
             id="path5391-75"
             inkscape:connector-curvature="0"
             sodipodi:nodetypes="cccccc" />
          <path
             style="fill:#ffcc00;fill-opacity:1;stroke:#000000;stroke-width:1.49313784;stroke-linecap:butt;stroke-linejoin:miter;stroke-miterlimit:4;stroke-opacity:1;stroke-dasharray:none"
             d="m 352.22771,612.2801 -2.97674,19.77182 c -2.30493,15.30946 19.02828,13.47249 13.57885,-1.39629 -2.39988,-6.54805 -10.60211,-18.37553 -10.60211,-18.37553 z"
             id="path5164-09"
             inkscape:connector-curvature="0"
             sodipodi:nodetypes="cssc" />
          <path
             style="fill:#ffcc00;fill-opacity:1;stroke:#000000;stroke-width:1.49313784;stroke-linecap:butt;stroke-linejoin:miter;stroke-miterlimit:4;stroke-opacity:1;stroke-dasharray:none"
             d="m 367.58999,626.13656 -5.56604,19.20432 c -4.30981,14.87001 17.07891,15.87119 13.64423,0.41221 -1.5126,-6.80796 -8.07819,-19.61653 -8.07819,-19.61653 z"
             id="path5164-00"
             inkscape:connector-curvature="0"
             sodipodi:nodetypes="cssc" />
          <path
             style="fill:#ffcc00;fill-opacity:1;stroke:#000000;stroke-width:1.49313784;stroke-linecap:butt;stroke-linejoin:miter;stroke-miterlimit:4;stroke-opacity:1;stroke-dasharray:none"
             d="m 380.05296,629.90439 -5.58873,19.19771 c -4.3274,14.86492 17.06013,15.89138 13.64373,0.42835 -1.50454,-6.80974 -8.055,-19.62606 -8.055,-19.62606 z"
             id="path5164-61"
             inkscape:connector-curvature="0"
             sodipodi:nodetypes="cssc" />
          <path
             style="fill:#ffcc00;fill-opacity:1;stroke:#000000;stroke-width:1.49313951;stroke-linecap:butt;stroke-linejoin:miter;stroke-miterlimit:4;stroke-opacity:1;stroke-dasharray:none"
             d="m 360.36097,637.45855 -5.49091,19.22595 c -4.25164,14.88675 17.14082,15.80428 13.64573,0.35884 -1.5392,-6.80199 -8.15482,-19.58479 -8.15482,-19.58479 z"
             id="path5164-3"
             inkscape:connector-curvature="0"
             sodipodi:nodetypes="cssc" />
          <path
             style="fill:#ffcc00;fill-opacity:1;stroke:#000000;stroke-width:1.49313784;stroke-linecap:butt;stroke-linejoin:miter;stroke-miterlimit:4;stroke-opacity:1;stroke-dasharray:none"
             d="m 372.45604,650.1777 -6.39263,18.9452 c -4.94988,14.66938 16.3754,16.59607 13.61355,1.00281 -1.21629,-6.86709 -7.22092,-19.94801 -7.22092,-19.94801 z"
             id="path5164-89"
             inkscape:connector-curvature="0"
             sodipodi:nodetypes="cssc" />
          <path
             style="fill:#ffcc00;fill-opacity:1;stroke:#000000;stroke-width:1.49313784;stroke-linecap:butt;stroke-linejoin:miter;stroke-miterlimit:4;stroke-opacity:1;stroke-dasharray:none"
             d="m 385.30143,655.79628 -6.84835,18.78528 c -5.30276,14.54556 15.96976,16.98676 13.58535,1.33135 -1.05007,-6.89447 -6.737,-20.11663 -6.737,-20.11663 z"
             id="path5164-34"
             inkscape:connector-curvature="0"
             sodipodi:nodetypes="cssc" />
          <path
             style="fill:#ffcc00;fill-opacity:1;stroke:#000000;stroke-width:1.49313784;stroke-linecap:butt;stroke-linejoin:miter;stroke-miterlimit:4;stroke-opacity:1;stroke-dasharray:none"
             d="m 362.33346,664.65507 -5.15212,19.31948 c -3.98933,14.95919 17.41597,15.50058 13.64992,0.11897 -1.65852,-6.77389 -8.4978,-19.43842 -8.4978,-19.43842 z"
             id="path5164-46"
             inkscape:connector-curvature="0"
             sodipodi:nodetypes="cssc" />
          <path
             style="fill:#ffcc00;fill-opacity:1;stroke:#000000;stroke-width:1.49313784;stroke-linecap:butt;stroke-linejoin:miter;stroke-miterlimit:4;stroke-opacity:1;stroke-dasharray:none"
             d="m 374.78871,673.92613 -6.47261,18.91803 c -5.0118,14.64834 16.30515,16.6651 13.6092,1.06031 -1.18727,-6.87217 -7.13659,-19.97834 -7.13659,-19.97834 z"
             id="path5164-06"
             inkscape:connector-curvature="0"
             sodipodi:nodetypes="cssc" />
          <path
             style="fill:#ffcc00;fill-opacity:1;stroke:#000000;stroke-width:1.49313784;stroke-linecap:butt;stroke-linejoin:miter;stroke-miterlimit:4;stroke-opacity:1;stroke-dasharray:none"
             d="m 387.87782,682.14327 -8.85354,17.92766 c -6.85538,13.8815 14.02474,18.625 13.35955,2.80303 -0.29292,-6.96782 -4.50601,-20.73069 -4.50601,-20.73069 z"
             id="path5164-618"
             inkscape:connector-curvature="0"
             sodipodi:nodetypes="cssc" />
          <path
             style="fill:#ffcc00;fill-opacity:1;stroke:#000000;stroke-width:1.49313784;stroke-linecap:butt;stroke-linejoin:miter;stroke-miterlimit:4;stroke-opacity:1;stroke-dasharray:none"
             d="m 366.69771,690.24443 -8.56328,18.06812 c -6.63059,13.99026 14.3233,18.39638 13.40306,2.5872 -0.40528,-6.9622 -4.83978,-20.65532 -4.83978,-20.65532 z"
             id="path5164-49"
             inkscape:connector-curvature="0"
             sodipodi:nodetypes="cssc" />
          <path
             style="fill:#ffcc00;fill-opacity:1;stroke:#000000;stroke-width:1.49313784;stroke-linecap:butt;stroke-linejoin:miter;stroke-miterlimit:4;stroke-opacity:1;stroke-dasharray:none"
             d="m 377.61062,699.17378 -9.95864,17.33817 c -7.71104,13.42504 12.83112,19.46655 13.15786,3.63397 0.14398,-6.9725 -3.19922,-20.97214 -3.19922,-20.97214 z"
             id="path5164-63"
             inkscape:connector-curvature="0"
             sodipodi:nodetypes="cssc" />
          <path
             style="fill:#ffcc00;fill-opacity:1;stroke:#000000;stroke-width:1.49313784;stroke-linecap:butt;stroke-linejoin:miter;stroke-miterlimit:4;stroke-opacity:1;stroke-dasharray:none"
             d="m 387.80889,708.92703 -9.1828,17.76127 c -7.11032,13.75265 13.67871,18.88058 13.30555,3.04902 -0.16432,-6.97202 -4.12275,-20.81029 -4.12275,-20.81029 z"
             id="path5164-7"
             inkscape:connector-curvature="0"
             sodipodi:nodetypes="cssc" />
          <path
             style="fill:#ffcc00;fill-opacity:1;stroke:#000000;stroke-width:1.49313784;stroke-linecap:butt;stroke-linejoin:miter;stroke-miterlimit:4;stroke-opacity:1;stroke-dasharray:none"
             d="m 368.11159,716.48919 -12.16653,15.86702 c -9.42061,12.28592 10.14079,20.994 12.56087,5.34406 1.0658,-6.89205 -0.39434,-21.21108 -0.39434,-21.21108 z"
             id="path5164-88"
             inkscape:connector-curvature="0"
             sodipodi:nodetypes="cssc" />
          <path
             style="fill:#ffcc00;fill-opacity:1;stroke:#000000;stroke-width:1.49313784;stroke-linecap:butt;stroke-linejoin:miter;stroke-miterlimit:4;stroke-opacity:1;stroke-dasharray:none"
             d="m 377.25782,727.36309 -11.89202,16.07376 c -9.20808,12.44601 10.50011,20.81661 12.65087,5.12741 0.94717,-6.90937 -0.75885,-21.20117 -0.75885,-21.20117 z"
             id="path5164-29"
             inkscape:connector-curvature="0"
             sodipodi:nodetypes="cssc" />
          <path
             style="fill:#ffcc00;fill-opacity:1;stroke:#000000;stroke-width:1.49313784;stroke-linecap:butt;stroke-linejoin:miter;stroke-miterlimit:4;stroke-opacity:1;stroke-dasharray:none"
             d="m 362.66869,739.19897 -10.49428,17.0193 c -8.12578,13.17814 12.21804,19.85707 13.03818,4.04236 0.36117,-6.9646 -2.5439,-21.06166 -2.5439,-21.06166 z"
             id="path5164-1"
             inkscape:connector-curvature="0"
             sodipodi:nodetypes="cssc" />
          <path
             style="fill:#ffcc00;fill-opacity:1;stroke:#000000;stroke-width:1.49313784;stroke-linecap:butt;stroke-linejoin:miter;stroke-miterlimit:4;stroke-opacity:1;stroke-dasharray:none"
             d="m 386.3556,736.37699 -12.05767,15.94985 c -9.33635,12.35009 10.28416,20.92415 12.59716,5.25801 1.01852,-6.89919 -0.53949,-21.20786 -0.53949,-21.20786 z"
             id="path5164-35"
             inkscape:connector-curvature="0"
             sodipodi:nodetypes="cssc" />
          <path
             style="fill:#ffcc00;fill-opacity:1;stroke:#000000;stroke-width:1.49313784;stroke-linecap:butt;stroke-linejoin:miter;stroke-miterlimit:4;stroke-opacity:1;stroke-dasharray:none"
             d="m 372.34296,754.52132 -13.32507,14.90734 c -10.31769,11.54286 8.53363,21.69703 12.12352,6.27334 1.58095,-6.79241 1.20155,-21.18068 1.20155,-21.18068 z"
             id="path5164-9"
             inkscape:connector-curvature="0"
             sodipodi:nodetypes="cssc" />
          <path
             style="fill:#ffcc00;fill-opacity:1;stroke:#000000;stroke-width:1.49313784;stroke-linecap:butt;stroke-linejoin:miter;stroke-miterlimit:4;stroke-opacity:1;stroke-dasharray:none"
             d="m 349.5872,754.93454 -7.39165,18.57821 c -5.72342,14.38522 15.46914,17.44389 13.54091,1.72578 -0.84917,-6.92209 -6.14926,-20.30399 -6.14926,-20.30399 z"
             id="path5164-84"
             inkscape:connector-curvature="0"
             sodipodi:nodetypes="cssc" />
          <path
             style="fill:#ffcc00;fill-opacity:1;stroke:#000000;stroke-width:1.49313784;stroke-linecap:butt;stroke-linejoin:miter;stroke-miterlimit:4;stroke-opacity:1;stroke-dasharray:none"
             d="m 337.90102,772.25954 -8.63508,18.0339 c -6.68623,13.96377 14.24996,18.45324 13.39262,2.64051 -0.37757,-6.96374 -4.75754,-20.67441 -4.75754,-20.67441 z"
             id="path5164-07"
             inkscape:connector-curvature="0"
             sodipodi:nodetypes="cssc" />
          <path
             style="fill:#ffcc00;fill-opacity:1;stroke:#000000;stroke-width:1.49313784;stroke-linecap:butt;stroke-linejoin:miter;stroke-miterlimit:4;stroke-opacity:1;stroke-dasharray:none"
             d="m 361.86479,776.16254 -13.74798,14.51825 c -10.64515,11.24156 7.90658,21.93331 11.93824,6.61915 1.7755,-6.74417 1.80974,-21.1374 1.80974,-21.1374 z"
             id="path5164-636"
             inkscape:connector-curvature="0"
             sodipodi:nodetypes="cssc" />
          <path
             style="fill:#ffcc00;fill-opacity:1;stroke:#000000;stroke-width:1.49313784;stroke-linecap:butt;stroke-linejoin:miter;stroke-miterlimit:4;stroke-opacity:1;stroke-dasharray:none"
             d="m 348.06182,782.19786 -10.59572,16.95632 c -8.20436,13.12938 12.09921,19.92968 13.01379,4.12017 0.40277,-6.96234 -2.41807,-21.07649 -2.41807,-21.07649 z"
             id="path5164-15"
             inkscape:connector-curvature="0"
             sodipodi:nodetypes="cssc" />
          <path
             style="fill:#ffcc00;fill-opacity:1;stroke:#000000;stroke-width:1.49313784;stroke-linecap:butt;stroke-linejoin:miter;stroke-miterlimit:4;stroke-opacity:1;stroke-dasharray:none"
             d="m 319.48204,813.56995 -11.34812,16.46228 c -8.78694,12.74684 11.19005,20.45401 12.81518,4.70168 0.71572,-6.93715 -1.46706,-21.16396 -1.46706,-21.16396 z"
             id="path5164-42-0"
             inkscape:connector-curvature="0"
             sodipodi:nodetypes="cssc" />
          <path
             style="fill:#ffcc00;fill-opacity:1;stroke:#000000;stroke-width:1.49313784;stroke-linecap:butt;stroke-linejoin:miter;stroke-miterlimit:4;stroke-opacity:1;stroke-dasharray:none"
             d="m 333.72268,795.88527 -11.34812,16.46229 c -8.78694,12.74683 11.19004,20.45401 12.81518,4.70167 0.71572,-6.93714 -1.46706,-21.16396 -1.46706,-21.16396 z"
             id="path5164-42"
             inkscape:connector-curvature="0"
             sodipodi:nodetypes="cssc" />
          <path
             style="fill:#ffcc00;fill-opacity:1;stroke:#000000;stroke-width:1.49313784;stroke-linecap:butt;stroke-linejoin:miter;stroke-miterlimit:4;stroke-opacity:1;stroke-dasharray:none"
             d="m 317.47515,837.64761 -16.30699,11.57013 c -12.62662,8.95884 3.49398,23.05159 10.42451,8.81275 3.05213,-6.27062 5.88248,-20.38288 5.88248,-20.38288 z"
             id="path5164-42-4"
             inkscape:connector-curvature="0"
             sodipodi:nodetypes="cssc" />
          <path
             style="fill:#ffcc00;fill-opacity:1;stroke:#000000;stroke-width:1.49313784px;stroke-linecap:butt;stroke-linejoin:miter;stroke-opacity:1"
             d="m 201.61214,926.92634 c 0,0 90.45043,-7.39201 136.90418,-52.9524 46.45375,-45.5604 72.54594,-90.9847 72.54594,-90.9847 l -83.93857,78.99419 c 0,0 -53.2762,40.32682 -84.87412,51.85051 -31.59794,11.52365 -40.63743,13.0924 -40.63743,13.0924 z"
             id="path5521"
             inkscape:connector-curvature="0" />
          <path
             style="fill:#ffcc00;fill-opacity:1;stroke:#000000;stroke-width:1.49313784px;stroke-linecap:butt;stroke-linejoin:miter;stroke-opacity:1"
             d="m 307.09088,807.03756 c 0,0 6.31736,117.90327 -139.45175,128.16362 0,0 80.31045,-20.18571 139.45175,-128.16362 z"
             id="path4769"
             inkscape:connector-curvature="0"
             sodipodi:nodetypes="ccc" />
          <path
             style="fill:#ffcc00;fill-opacity:1;stroke:#000000;stroke-width:1.49313784px;stroke-linecap:butt;stroke-linejoin:miter;stroke-opacity:1"
             d="m 189.0671,931.88092 c 0,0 46.75721,-9.80392 72.39826,-16.59127 25.64105,-6.78735 51.2821,3.0166 51.2821,7.54149 0,4.52489 -25.64105,14.32882 -63.34848,15.83711 -37.70742,1.50831 -60.33188,-6.78733 -60.33188,-6.78733 z"
             id="path5519"
             inkscape:connector-curvature="0" />
          <path
             style="fill:#ffcc00;fill-opacity:1;stroke:#000000;stroke-width:1.49313784;stroke-linecap:butt;stroke-linejoin:miter;stroke-miterlimit:4;stroke-opacity:1;stroke-dasharray:none"
             d="m 338.59746,817.41045 -15.57674,12.53601 c -12.06118,9.70671 4.88292,22.79783 10.93885,8.16556 2.66697,-6.44387 4.63789,-20.70157 4.63789,-20.70157 z"
             id="path5164-42-1"
             inkscape:connector-curvature="0"
             sodipodi:nodetypes="cssc" />
          <path
             style="fill:#ffcc00;fill-opacity:1;stroke:#000000;stroke-width:1.49313784px;stroke-linecap:butt;stroke-linejoin:miter;stroke-opacity:1"
             d="m 380.5495,773.22915 c -22.63447,36.38875 -102.26319,116.6264 -115.70451,129.09923 0,0 105.64403,-72.01809 132.55941,-119.47101 20.21099,-35.63282 23.19817,-95.31844 11.59678,-134.67552 -11.60102,-39.35587 -19.50312,-48.50113 -19.50312,-48.50113 4.89059,13.97434 14.85639,135.27791 -8.94856,173.54843 z"
             id="path5525"
             inkscape:connector-curvature="0"
             sodipodi:nodetypes="scsccs" />
          <g
             transform="matrix(1.4931378,0,0,1.4931378,-353.91979,-47.811352)"
             id="g5570">
            <g
               transform="translate(1.4285714,2.6785714)"
               id="g4751">
              <path
                 style="fill:#ffcc00;fill-opacity:1;stroke:#000000;stroke-width:1px;stroke-linecap:butt;stroke-linejoin:miter;stroke-opacity:1"
                 d="m 333.57143,653.07647 c 0,0 9.28571,-36.42857 34.28571,-35 25,1.42857 3.57143,37.85714 -26.42857,32.85714 0,0 32.14286,-15.71428 25.71429,-22.85714 -6.42857,-7.14286 -33.57143,25 -33.57143,25 z"
                 id="path3437"
                 inkscape:connector-curvature="0" />
              <path
                 style="fill:none;stroke:#000000;stroke-width:1px;stroke-linecap:butt;stroke-linejoin:miter;stroke-opacity:1"
                 d="m 366.47321,633.83539 c 0,0 5.98215,-6.91964 1.69644,-15.84821"
                 id="path3457"
                 inkscape:connector-curvature="0"
                 sodipodi:nodetypes="cc" />
            </g>
            <g
               transform="translate(-1.9642857,-1.25)"
               id="g4763">
              <path
                 style="fill:#ffcc00;fill-opacity:1;stroke:#000000;stroke-width:1px;stroke-linecap:butt;stroke-linejoin:miter;stroke-opacity:1"
                 d="m 337.34375,658.07647 c 0,0 7.65625,37.14286 33.37054,27.85714 25.71428,-9.28571 -1.42858,-32.85714 -22.14286,-32.14286 -20.71429,0.71429 -5.71429,3.57143 -5.71429,3.57143 0,0 24.28572,2.85715 31.42857,16.42857 7.14286,13.57143 -29.28571,-2.85714 -32.85714,-11.42857 -3.57143,-8.57143 -4.08482,-4.28571 -4.08482,-4.28571 z"
                 id="path3447"
                 inkscape:connector-curvature="0"
                 sodipodi:nodetypes="csscssc" />
              <path
                 style="fill:none;stroke:#000000;stroke-width:1px;stroke-linecap:butt;stroke-linejoin:miter;stroke-opacity:1"
                 d="m 372.38839,678.96932 c 0,0 3.77232,0.15626 8.88393,-3.37053"
                 id="path3461"
                 inkscape:connector-curvature="0"
                 sodipodi:nodetypes="cc" />
            </g>
            <g
               transform="translate(0.53571429,-0.35714286)"
               id="g4759">
              <path
                 style="fill:#ffcc00;fill-opacity:1;stroke:#000000;stroke-width:1px;stroke-linecap:butt;stroke-linejoin:miter;stroke-opacity:1"
                 d="M 317.85714,684.50504 C 294.28571,676.6479 310,663.79075 315,659.50504 c 5,-4.28571 19.04017,-4.48661 19.04017,-4.48661 -14.95533,7.16518 -15.46874,12.34375 -15.46874,12.34375 0,0 -6.42857,10.71429 3.57143,11.42857 10,0.71429 12.20981,-23.03571 12.20981,-23.03571 0,0 7.0759,36.60714 -16.49553,28.75 z"
                 id="path3449"
                 inkscape:connector-curvature="0"
                 sodipodi:nodetypes="ssccscs" />
              <path
                 style="fill:none;stroke:#000000;stroke-width:1px;stroke-linecap:butt;stroke-linejoin:miter;stroke-opacity:1"
                 d="m 316.61969,675.38588 c 0,0 1.32582,7.1342 6.69226,10.29093"
                 id="path3467"
                 inkscape:connector-curvature="0" />
            </g>
            <g
               transform="translate(3.2142857,1.25)"
               id="g4755">
              <path
                 style="fill:#ffcc00;fill-opacity:1;stroke:#000000;stroke-width:1px;stroke-linecap:butt;stroke-linejoin:miter;stroke-opacity:1"
                 d="m 327.14286,624.50504 c -10.01886,-5.68116 -28.57143,7.14286 -29.28572,10 -0.71428,2.85714 10.96552,17.63597 20.89286,18.83928 8.83928,1.07143 12.6754,-0.37292 12.6754,-0.37292 -0.38432,-0.34014 -10.0152,-2.77043 -15.97898,-6.59136 -6.19214,-3.96723 -10.71455,-9.36756 -8.61606,-11.91964 3.10814,-3.77996 8.7632,-4.4831 14.55357,-6.25 6.47321,1.78571 10.92536,24.50846 10.92536,24.50846 2.02408,-19.26359 4.91086,-22.49953 -5.16643,-28.21382 z"
                 id="path3443"
                 inkscape:connector-curvature="0"
                 sodipodi:nodetypes="ssscssccs" />
              <path
                 style="fill:none;stroke:#000000;stroke-width:1px;stroke-linecap:butt;stroke-linejoin:miter;stroke-opacity:1"
                 d="m 321.29464,628.21039 c 0,0 4.91072,-2.00892 9.50894,-1.33928"
                 id="path3469"
                 inkscape:connector-curvature="0"
                 sodipodi:nodetypes="cc" />
            </g>
          </g>
        </g>
        <g
           transform="matrix(0.97906596,0,0,0.97906596,5.0862269,21.420601)"
           id="g6822">
          <path
             style="fill:#000000;stroke:#000000;stroke-width:5.38113403px;stroke-linecap:butt;stroke-linejoin:miter;stroke-opacity:1"
             d="m -157.96893,856.02864 38.39011,-33.29425 -63.87031,-8.49353 -58.43445,48.92208 33.97352,32.61438 28.53782,-23.10181 141.329882,142.68909 c 19.993953,15.9659 38.39777329,-8.8364 23.102014,-21.74311 z"
             id="path6797"
             inkscape:connector-curvature="0"
             sodipodi:nodetypes="ccccccccc" />
          <path
             style="fill:#000000;stroke:#000000;stroke-width:5.38113403px;stroke-linecap:butt;stroke-linejoin:miter;stroke-opacity:1"
             d="m -252.75511,989.5443 50.2808,-50.2808 c 0,0 59.79348,72.0239 122.304744,13.58976 62.511376,-58.43466 18.34573,-120.26663 -1.358872,-138.95208 -24.652082,-23.37689 -93.767042,-33.63394 -93.767042,-33.63394 0,0 91.712298,-23.71708 139.971022,51.64004 59.045035,92.2004 -30.432098,161.64596 -46.20398,167.82947 -33.688322,13.20685 -74.741792,14.26865 -119.586902,-18.34578 l -29.89673,29.89643 z"
             id="path6799"
             inkscape:connector-curvature="0"
             sodipodi:nodetypes="ccsscssccc" />
        </g>
      </g>
    </g>
  </g>
</svg>
