<svg xmlns="http://www.w3.org/2000/svg" height="600" width="900"><path d="M 0.29999794,299.89728 H 399.99957 V 33.49453 H 0.29999794 Z" fill="#fff" transform="matrix(2.2516912,0,0,2.252229,-0.67550272,-75.437352)"/><path d="M 0.29999794,33.49453 H 399.99957 L 0.29999794,299.89728 Z" fill="#ce1126" fill-rule="evenodd" transform="matrix(2.2516912,0,0,2.252229,-0.67550272,-75.437352)"/><path d="M 0.29999794,269.69238 360.11726,33.49453 h 39.88231 V 63.699426 L 40.182307,299.89728 H 0.29999794 Z" fill="#14b53a" fill-rule="evenodd" transform="matrix(2.2516912,0,0,2.252229,-0.67550272,-75.437352)"/><g fill="#ce1126"><path d="M350.83917 226.73823c-1.98104-1.98006-5.18736-1.98006-7.16841 0-.12381.12374-.24562.26531-.35395.39808-2.45207 2.70015-8.58889 11.68535-11.08448 14.3518-.0759.0815-.17434.21856-.24334.28752-.30135.28987-.69334.44184-1.08412.46438-.0598.003-.11744.002-.17698 0-.39429-.0204-.78034-.17166-1.08411-.46438-.006-.006-.0164-.0163-.0221-.0221-.0149-.0149-.03-.0289-.0442-.0442-.0531-.0541-.11988-.16001-.17695-.22118-2.44326-2.60824-8.39687-11.22998-10.95174-14.13066-.15135-.20605-.30035-.43282-.48677-.61915-1.98105-1.98006-5.20949-1.95795-7.19053.0221-1.98104 1.98005-1.98104 5.18477 0 7.16484.12381.12375.26537.24557.39827.35378 2.7015 2.45085 11.69117 8.58462 14.35894 11.07897.0816.0759.21867.17427.28766.24323.29529.30647.42418.70813.44249 1.10568.0188.44826-.12991.91348-.46462 1.26047-.006.006-.0163.0164-.0221.0221-.0149.0149-.0289.03-.0442.0442-.0541.0531-.16016.11975-.22127.17688-2.60953 2.44203-11.23557 8.39269-14.1377 10.94629-.20616.15129-.43304.30021-.61946.48654-1.98103 1.98005-1.95891 5.20689.0221 7.18695 1.98104 1.98006 5.18736 1.98006 7.16841 0 .12381-.12374.24562-.26531.35395-.39808 2.45207-2.70015 8.58889-11.68536 11.08448-14.3518.0759-.0816.17434-.21856.24334-.28752.34731-.3344.81262-.48321 1.2611-.46438.39778.0183.79978.14696 1.10624.44227.006.006.0163.0163.0221.0221.0149.0149.03.0289.0442.0442.0531.0541.11987.16001.17696.22119 2.44323 2.60822 8.39686 11.22997 10.95172 14.13066.15136.20605.30036.43282.48678.61915 1.98105 1.98005 5.20949 1.95794 7.19054-.0221 1.98103-1.98006 1.98103-5.18478 0-7.16484-.12383-.12375-.26539-.24557-.39828-.35378-2.70151-2.45086-11.69117-8.58464-14.35894-11.07898-.0815-.0759-.21866-.17426-.28766-.24321-.29265-.30384-.44416-.68951-.46462-1.08357-.002-.0596-.003-.11712 0-.17692.0225-.39059.17434-.78263.46462-1.08356.006-.006.0163-.0164.0221-.0221.0149-.0149.0289-.03.0442-.0442.0541-.0531.16016-.11976.22128-.17688 2.60952-2.44204 11.23556-8.39269 14.13769-10.94629.20616-.15128.43304-.3002.61946-.48653 1.98103-1.98007 1.95891-5.2069-.0221-7.18696zM266.77607 226.73823c-1.98104-1.98006-5.18737-1.98006-7.16841 0-.12381.12374-.24563.26531-.35396.39808-2.45207 2.70015-8.58888 11.68535-11.08447 14.3518-.0759.0815-.17434.21856-.24333.28752-.30135.28987-.69335.44184-1.08412.46438-.0598.003-.11746.002-.17699 0-.3943-.0204-.78035-.17166-1.08411-.46438-.006-.006-.0164-.0163-.0221-.0221-.0149-.0149-.03-.0289-.0442-.0442-.0531-.0541-.11988-.16001-.17697-.22118-2.44325-2.60824-8.39686-11.22998-10.95172-14.13066-.15136-.20605-.30036-.43282-.48678-.61915-1.98104-1.98006-5.20949-1.95795-7.19052.0221-1.98105 1.98005-1.98105 5.18477 0 7.16484.12381.12375.26537.24557.39827.35378 2.70149 2.45085 11.69116 8.58462 14.35893 11.07897.0816.0759.21866.17427.28766.24323.29529.30647.42418.70813.4425 1.10568.0188.44826-.12992.91348-.46463 1.26047-.006.006-.0163.0164-.0221.0221-.0149.0149-.0289.03-.0442.0442-.0541.0531-.16016.11975-.22128.17688-2.60953 2.44203-11.23556 8.39269-14.13768 10.94629-.20616.15129-.43304.30021-.61946.48654-1.98103 1.98005-1.95892 5.20689.0221 7.18695 1.98103 1.98006 5.18736 1.98006 7.1684 0 .12382-.12374.24563-.26531.35396-.39808 2.45207-2.70015 8.58888-11.68536 11.08448-14.3518.0759-.0816.17434-.21856.24333-.28752.34731-.3344.81262-.48321 1.26111-.46438.39777.0183.79978.14696 1.10624.44227l.0221.0221c.0149.0149.03.0289.0442.0442.0531.0541.11987.16001.17697.22119 2.44324 2.60822 8.39686 11.22997 10.95171 14.13066.15137.20605.30037.43282.48679.61915 1.98104 1.98005 5.20949 1.95794 7.19052-.0221 1.98105-1.98006 1.98105-5.18478 0-7.16484-.12381-.12375-.26538-.24557-.39827-.35378-2.7015-2.45086-11.69116-8.58464-14.35893-11.07898-.0815-.0759-.21866-.17426-.28766-.24321-.29265-.30384-.44417-.68951-.46462-1.08357-.002-.0596-.003-.11712 0-.17692.0225-.39059.17434-.78263.46462-1.08356.006-.006.0163-.0164.0221-.0221.0149-.0149.0289-.03.0442-.0442.0541-.0531.16016-.11976.22127-.17688 2.60953-2.44204 11.23556-8.39269 14.13769-10.94629.20615-.15128.43303-.3002.61944-.48653 1.98105-1.98007 1.95893-5.2069-.0221-7.18696zM308.80761 168.38404c-1.98104-1.98005-5.18736-1.98005-7.16841 0-.12381.12375-.24562.26531-.35395.39808-2.45208 2.70015-8.58888 11.68534-11.08448 14.35178-.0759.0815-.17434.21856-.24333.28752-.30134.28987-.69335.44184-1.08411.46438-.0598.003-.11746.002-.17699 0-.3943-.0204-.78035-.17166-1.08412-.46438-.006-.006-.0164-.0163-.0221-.0221-.0149-.0149-.03-.0289-.0442-.0442-.0531-.0541-.11988-.16001-.17696-.22118-2.44325-2.60822-8.39686-11.22995-10.95173-14.13064-.15135-.20605-.30035-.43282-.48678-.61915-1.98104-1.98005-5.20948-1.95794-7.19052.0221-1.98104 1.98006-1.98104 5.18477 0 7.16483.12382.12375.26537.24557.39827.35378 2.7015 2.45085 11.69116 8.58462 14.35894 11.07896.0816.0759.21866.17426.28765.24322.29529.30647.42419.70813.44249 1.10568.0188.44826-.1299.91349-.46462 1.26048-.006.006-.0163.0164-.0221.0221-.0149.0149-.0289.03-.0442.0442-.0541.0531-.16016.11975-.22127.17687-2.60953 2.44203-11.23556 8.39268-14.13769 10.94628-.20615.15128-.43303.3002-.61945.48653-1.98104 1.98006-1.95892 5.20689.0221 7.18695 1.98104 1.98005 5.18737 1.98005 7.1684 0 .12382-.12375.24564-.26531.35397-.39808 2.45207-2.70015 8.58887-11.68534 11.08447-14.35179.0759-.0816.17433-.21855.24334-.28751.34731-.3344.81262-.4832 1.2611-.46438.39777.0183.79977.14696 1.10624.44227.006.006.0163.0163.0221.0221.0149.0149.03.0289.0442.0442.0531.0541.11987.16001.17696.22118 2.44324 2.60823 8.39686 11.22997 10.95172 14.13064.15135.20605.30037.43282.48678.61915 1.98105 1.98005 5.20948 1.95794 7.19053-.0221 1.98105-1.98004 1.98105-5.18477 0-7.16483-.12381-.12375-.26538-.24557-.39828-.35378-2.7015-2.45085-11.69116-8.58461-14.35893-11.07896-.0815-.0759-.21866-.17426-.28766-.24321-.29265-.30384-.44416-.68951-.46462-1.08357-.002-.0596-.003-.11712 0-.17691.0225-.3906.17435-.78263.46462-1.08357.006-.006.0163-.0164.0221-.0221.0149-.0149.0289-.03.0442-.0442.0541-.0531.16016-.11975.22128-.17687 2.60953-2.44203 11.23557-8.39268 14.13768-10.94628.20616-.15128.43305-.3002.61946-.48653 1.98105-1.98006 1.95893-5.20689-.0221-7.18695z" transform="matrix(2.2516912,0,0,2.252229,-0.67550272,-75.437352) translate(0,-0.42686903)"/></g></svg>