<?xml version="1.0" encoding="UTF-8" standalone="no"?>
<!-- Generator: Adobe Illustrator 12.0.1, SVG Export Plug-In . SVG Version: 6.00 Build 51448)  -->

<svg
   xmlns:dc="http://purl.org/dc/elements/1.1/"
   xmlns:cc="http://creativecommons.org/ns#"
   xmlns:rdf="http://www.w3.org/1999/02/22-rdf-syntax-ns#"
   xmlns:svg="http://www.w3.org/2000/svg"
   xmlns="http://www.w3.org/2000/svg"
   xmlns:xlink="http://www.w3.org/1999/xlink"
   xmlns:sodipodi="http://sodipodi.sourceforge.net/DTD/sodipodi-0.dtd"
   xmlns:inkscape="http://www.inkscape.org/namespaces/inkscape"
   version="1.1"
   width="950"
   height="475"
   viewBox="-475.907 -256.986 950.00001 475.00001"
   style="overflow:visible"
   xml:space="preserve"
   id="svg2"
   inkscape:version="0.47 r22583"
   sodipodi:docname="Flag_of_Orange_River_Colony.svg"><metadata
   id="metadata108"><rdf:RDF><cc:Work
       rdf:about=""><dc:format>image/svg+xml</dc:format><dc:type
         rdf:resource="http://purl.org/dc/dcmitype/StillImage" /></cc:Work></rdf:RDF></metadata><defs
   id="defs106"><inkscape:perspective
   sodipodi:type="inkscape:persp3d"
   inkscape:vp_x="0 : 236.9865 : 1"
   inkscape:vp_y="0 : 1000 : 0"
   inkscape:vp_z="950.81299 : 236.9865 : 1"
   inkscape:persp3d-origin="475.40649 : 157.991 : 1"
   id="perspective110" />
	
	
	
	
	
	
	
	
	
	
	
	
<inkscape:perspective
   id="perspective2838"
   inkscape:persp3d-origin="0.5 : 0.33333333 : 1"
   inkscape:vp_z="1 : 0.5 : 1"
   inkscape:vp_y="0 : 1000 : 0"
   inkscape:vp_x="0 : 0.5 : 1"
   sodipodi:type="inkscape:persp3d" /><clipPath
   id="border"><rect
     x="-15"
     y="-7.5"
     width="30"
     height="15"
     id="rect6" /></clipPath>
	
	
</defs><sodipodi:namedview
   pagecolor="#ffffff"
   bordercolor="#666666"
   borderopacity="1"
   objecttolerance="10"
   gridtolerance="10"
   guidetolerance="10"
   inkscape:pageopacity="0"
   inkscape:pageshadow="2"
   inkscape:window-width="1920"
   inkscape:window-height="1018"
   id="namedview104"
   showgrid="false"
   inkscape:zoom="0.70416333"
   inkscape:cx="560.70841"
   inkscape:cy="236.9865"
   inkscape:window-x="-8"
   inkscape:window-y="-8"
   inkscape:window-maximized="1"
   inkscape:current-layer="svg2" />
<rect
   style="fill:#00247d"
   x="-475.90701"
   y="-256.98599"
   width="950"
   height="475"
   id="rect8" /><g
   id="canton"
   transform="matrix(15.833334,0,0,15.833333,-238.40696,-138.236)"><g
     clip-path="url(#border)"
     id="g11"><circle
       style="fill:#00247d"
       sodipodi:ry="20"
       sodipodi:rx="20"
       sodipodi:cy="0"
       sodipodi:cx="0"
       cy="0"
       cx="0"
       r="20"
       id="circle13"
       d="m 20,0 c 0,11.045695 -8.954305,20 -20,20 -11.045695,0 -20,-8.954305 -20,-20 0,-11.045695 8.954305,-20 20,-20 11.045695,0 20,8.954305 20,20 z" /><path
       style="stroke:#ffffff;stroke-width:3"
       d="m -20,-10 40,20 m -40,0 40,-20"
       id="diags_white" /><path
       style="stroke:#cf142b;stroke-width:2"
       d="m -20,-10 40,20 m -40,0 40,-20"
       id="diags_red" /><path
       style="fill:#ffffff;stroke:none"
       d="M 0,0 20,10 H 17 L -3,0 m 3,0 20,-10 h 3 L 3,0 M 0,0 -20,10 h -3 L -3,0 m 3,0 -20,-10 h 3 L 3,0"
       id="eraser_white" /><!--I think the above two lines give the simplest way to make the diagonals--><path
       style="stroke:#ffffff;stroke-width:5"
       d="M -20,0 H 20 M 0,-10 v 20"
       id="cross_white" /><path
       style="stroke:#cf142b;stroke-width:3"
       d="M -20,0 H 20 M 0,-10 v 20"
       id="cross_red" /></g></g><g
   id="g30"
   transform="translate(-3.5077746e-5,1.0270067)">
		<defs
   id="defs32">
			<circle
   r="103.88"
   cy="-20.091"
   cx="236.313"
   id="XMLID_1_"
   sodipodi:cx="236.313"
   sodipodi:cy="-20.091"
   sodipodi:rx="103.88"
   sodipodi:ry="103.88" />
		</defs>
		<clipPath
   id="XMLID_3_">
			<use
   id="use36"
   xlink:href="#XMLID_1_"
   x="0"
   y="0"
   width="950.81299"
   height="473.97299" />
		</clipPath>
		<g
   clip-path="url(#XMLID_3_)"
   id="g38">
			<circle
   d="m 342.53001,-20.091 c 0,58.662031 -47.55498,106.217003 -106.21701,106.217003 -58.66203,0 -106.217,-47.554972 -106.217,-106.217003 0,-58.66203 47.55497,-106.217 106.217,-106.217 58.66203,0 106.21701,47.55497 106.21701,106.217 z"
   id="circle40"
   r="106.217"
   cy="-20.091"
   cx="236.313"
   style="fill:#deedff"
   sodipodi:cx="236.313"
   sodipodi:cy="-20.091"
   sodipodi:rx="106.217"
   sodipodi:ry="106.217" />
			<path
   id="path42"
   d="m 348.518,12.831 c -13.229,-6.714 -33.978,1.302 -47.803,4.273 -9.959,2.14 -18.842,3.419 -28.728,4.928 -8.702,1.328 -13.912,5.936 -21.689,8.213 -18.39,5.384 -41.209,-5.226 -59.39,-9.752 -18.069,-4.498 -51.125,-10.096 -69.777,-3.719 l 44.052,64.932 70.146,14.992 78.239,-16.161 34.95,-67.706 z"
   style="fill:#c5d49f;stroke:#000000;stroke-width:0.5px" />
			<path
   id="path44"
   d="m 133.637,23.87 c 19.949,-3.621 39.407,0.266 59.478,3.018 5.158,8.941 21.347,8.122 31.075,9.836 9.93,1.751 21.204,6.274 30.957,1.619 6.055,-2.89 12.141,-4.935 18.115,-7.903 5.225,-2.598 10.15,-2.375 15.64,-4.233 10.287,-3.483 21.354,-7.128 33.429,-6.556 10.396,0.492 18.609,5.956 11.686,17.656 -4.932,8.332 -12.5,14.924 -22.172,13.89 -10.823,-1.154 -22.874,-6.068 -33.795,-3.229 -8.832,2.297 -18.113,3.896 -27.031,5.479 -0.395,-2.99 1.909,-4.485 4.625,-4.54 0.168,-0.353 0.227,-0.725 0.174,-1.114 -0.854,-0.043 -3.57,-1.114 -4.255,-1.139 6.905,-3.737 18.468,-0.337 26.186,-2.337 4.473,-1.158 7.121,-3.842 11.254,-5.256 4.771,-1.632 7.177,-0.712 11.214,-4.091 -6.421,-5.007 -18.462,2.25 -24.751,4.512 -8.082,2.905 -17.005,2.686 -25.116,4.707 -3.997,0.996 -6.271,1.262 -9.805,3.177 -3.056,1.655 -6.36,4.195 -9.916,5.569 -14.443,5.579 -27.8,-3.069 -42.642,-2.089 -0.396,0.841 -0.556,1.836 -0.528,2.732 7.062,1.543 1.838,5.595 4.103,8.86 2.297,3.309 15.842,0.188 19.713,-0.012 7.072,-0.363 10.007,1.612 16.447,3.375 5.973,1.636 13.011,0.391 18.853,-1.011 7.06,-1.692 62.555,-14.854 61.648,-2.45 -15.64,3.457 -33.086,0.868 -48.423,6.058 -5.425,1.836 -9.151,4.155 -15.163,4.413 -5.46,0.236 -11.164,0.131 -16.357,-0.455 -2.266,-0.256 -3.226,-3.842 -4.686,0.003 -1.261,3.321 1.378,4.429 3.672,5.27 6.162,2.26 16.162,-1.836 22.527,-2.22 6.882,-0.417 12.58,-2.481 18.822,-3.649 1.951,-0.365 14.476,-0.309 16.358,1.154 4.28,3.327 -1.854,7.578 -4.733,9.332 -8.864,5.397 -20.745,6.126 -30.918,7.052 -6.113,0.555 -34.57,5.302 -37.997,-2.319 -1.188,-2.642 2.707,-7.562 1.204,-10.54 -1.668,-3.306 -10.424,-2.562 -13.65,-3.5 -12.312,-3.578 -24.466,0.22 -36.768,-3.066 0.208,-2.246 1.138,-5.855 1.19,-7.445 0.075,-2.203 -1.342,-6.846 -0.611,-8.468 2.4,-5.331 16.656,-1.636 14.675,-8.97 -7.222,-0.365 -13.892,-1.499 -20.844,-1.841 -6.854,-0.337 -14.491,-0.337 -19.378,-5.258 L 133.637,23.87 z"
   style="fill:#a9b186" />
			<g
   id="g46">
				<path
   id="path48"
   d="m 187.482,-67.516 c -1.726,-4.768 -0.838,-13.899 1.424,-18.654 2.839,4.31 5.092,13.722 3.059,19.035"
   style="fill:#f5bd8a;stroke:#000000;stroke-width:0.25px" />
				<path
   id="path50"
   d="m 186.926,-71.823 c 0.979,-3.727 3.039,-8.664 5.611,-10.028 2.573,-1.364 7.609,-2.188 10.683,-4.547 3.073,-2.361 6.256,-6.626 9.307,-7.722 3.053,-1.096 4.126,-0.889 5.844,-0.273 -2.837,1.705 -3.583,1.78 -4.649,3.149 -1.065,1.369 -3.834,5.274 -5.926,6.906 -2.094,1.631 -5.089,4.771 -7.411,5.636 -2.322,0.865 -6.461,4.594 -7.018,6.544"
   style="fill:#6b695c;stroke:#000000;stroke-width:0.25px" />
				<path
   id="path52"
   d="m 209.8,-3.66 c 0,3.505 1.315,18.184 1.754,22.346 0.438,4.162 3.285,17.307 2.847,22.126 -0.438,4.819 -1.095,14.24 -1.314,15.773 -0.219,1.533 -1.752,3.286 -0.438,3.286 1.314,0 3.067,0.219 3.943,-0.219 0.877,-0.438 0.877,-1.753 0.657,-3.505 -0.219,-1.754 1.752,-1.973 1.533,-3.287 -0.219,-1.313 -1.313,-3.725 -1.095,-8.105 0.218,-4.382 0,-6.135 0.218,-11.172 0.22,-5.039 -0.437,-8.326 -0.218,-10.735 0.218,-2.41 1.752,-10.516 1.752,-12.925 0,-2.41 -0.438,-10.297 -0.219,-11.831"
   style="fill:#f5bd8a;stroke:#000000;stroke-width:0.25px" />
				<path
   id="path54"
   d="m 213.086,58.994 c -1.313,0.877 -2.848,3.067 -2.848,3.725 0,0.658 5.039,1.096 6.135,0.438 1.096,-0.658 -0.657,-2.629 -0.438,-4.163"
   style="fill:#6b695c;stroke:#000000;stroke-width:0.25px" />
				<path
   id="path56"
   d="m 184.387,-73.532 c -3.832,1.626 -4.279,3.952 -7.52,6.414 -1.804,1.368 -8.011,3.73 -10.809,6.133 -0.51,0.438 -0.377,4.128 0.95,4.82 3.301,1.723 7.083,1.606 11.173,1.606 1.897,1.461 3.53,2.572 4.526,4.09 1.55,5.271 -1.395,11.339 0.367,16.641 1.777,5.346 4.236,10.784 7.374,15.636 3.069,4.749 7.848,9.806 12.122,13.29 3.329,2.716 8.228,3.26 12.268,3.943 6.432,1.09 12.6,1.885 19.065,2.906 6.674,1.053 13.587,2.047 20.339,1.179 5.631,-0.723 10.905,-2.884 16.229,-4.733 4.554,-1.582 9.784,-2.476 13.528,-5.712 4.065,-3.516 7.349,-10.18 7.076,-15.254 -0.508,-9.424 -8.208,-14.913 -16.65,-16.504 -9.521,-1.794 -20.518,-0.759 -30.187,-0.243 -9.285,0.492 -19.066,1.68 -28.379,1.704 -2.584,0.007 -6.445,1.216 -8.763,-0.146 -2.482,-1.46 -2.896,-6.419 -3.221,-9.669 -0.383,-3.833 -0.259,-8.13 -1.015,-11.946 -0.688,-3.466 -2.483,-7.74 -4.308,-10.458 -2.56,-3.813 -8.063,-5.272 -12.803,-4.146 -0.473,0.114 -0.927,0.264 -1.362,0.449 z"
   style="fill:#f5bd8a;stroke:#000000;stroke-width:0.25px" />
				<path
   id="path58"
   d="m 187.627,-71.685 c 1.334,-4.125 3.136,-7.618 7.604,-10.15 4.469,-2.532 14.089,-3.85 19.087,-6.673 4.726,-2.668 6.835,-6.172 7.327,-9.472 2.347,3.762 -2.184,10.086 -5.137,12.067 -1.748,1.175 -7.116,3.38 -10.425,5.154 -3.309,1.774 -9.314,3.05 -10.01,7.308"
   style="fill:#6b695c;stroke:#000000;stroke-width:0.25px" />
				<path
   id="path60"
   d="m 188.113,-66.242 c -0.539,-0.149 -0.755,-0.714 -1.226,-0.969 -0.511,-0.277 -1.18,-0.312 -1.77,-0.272 -1.22,0.081 -1.759,1.173 -2.834,1.546 -0.002,0.089 -0.006,0.178 0,0.268 1.415,1.078 2.309,2.389 4.388,1.638 0.64,-0.229 1.162,-0.767 1.604,-1.262 0.474,-0.531 0.587,-1.157 1.005,-1.679"
   style="fill:none;stroke:#000000;stroke-width:0.25px" />
				<ellipse
   d="m 186.215,-65.805 c 0,0.766571 -0.35997,1.388 -0.804,1.388 -0.44404,0 -0.804,-0.621429 -0.804,-1.388 0,-0.766572 0.35996,-1.388 0.804,-1.388 0.44403,0 0.804,0.621428 0.804,1.388 z"
   id="ellipse62"
   ry="1.388"
   rx="0.80400002"
   cy="-65.805"
   cx="185.411"
   style="stroke:#000000;stroke-width:0.25px"
   sodipodi:cx="185.411"
   sodipodi:cy="-65.805"
   sodipodi:rx="0.80400002"
   sodipodi:ry="1.388" />
				<path
   id="path64"
   d="m 166.37,-58.473 c -0.111,-0.534 -0.347,-1.887 0.056,-2.346 0.397,-0.455 1.586,-1.354 2.102,-0.898 0.182,0.16 0.268,0.926 0.234,1.17 -0.083,0.607 -0.236,0.524 -0.674,0.657 -0.134,0.041 -0.328,-0.145 -0.515,-0.005 -0.183,0.139 -0.096,0.486 -0.2,0.663 -0.193,0.324 -0.661,0.67 -1.003,0.759 z"
   style="fill:none;stroke:#000000;stroke-width:0.25px" />
				<path
   id="path66"
   d="m 280.78,60.747 c 0,0 -3.286,4.163 -2.41,4.82 0.876,0.656 4.819,0.438 5.696,-0.22 0.876,-0.657 1.096,-3.067 1.314,-4.162"
   style="fill:#6b695c;stroke:#000000;stroke-width:0.25px" />
				<path
   id="path68"
   d="m 273.112,7.513 c 2.41,4.162 8.764,14.021 8.764,17.087 0,3.067 -1.753,17.526 -2.849,19.717 -1.096,2.191 -3.724,10.077 -4.601,11.393 -0.877,1.313 -1.752,1.971 -1.096,2.628 0.657,0.657 2.63,0.657 3.944,0.438 1.313,-0.219 1.752,-2.19 1.971,-3.286 0.22,-1.096 2.191,-1.972 2.191,-3.286 0,-1.314 3.286,-12.487 4.162,-14.896 0.877,-2.41 -0.657,-26.509 -0.657,-26.509"
   style="fill:#f5bd8a;stroke:#000000;stroke-width:0.25px" />
				<path
   id="path70"
   d="m 273.988,57.461 c -0.657,0.876 -3.505,3.943 -2.848,4.381 0.658,0.438 3.943,0.657 5.039,0 1.096,-0.656 -0.219,-3.285 0.657,-4.162"
   style="fill:#6b695c;stroke:#000000;stroke-width:0.25px" />
				<path
   id="path72"
   d="m 233.904,1.947 c 6.674,1.053 13.587,2.047 20.339,1.179 4.546,-0.584 8.858,-2.104 13.153,-3.643 -0.292,-0.672 -0.783,-1.256 -1.467,-1.608 -1.24,-0.64 -3.988,-0.269 -5.366,-0.014 -1.916,0.355 -10.892,4.019 -8.323,-1.126 1.354,-2.713 6.632,-5.701 6.21,-9.087 -2.126,2.552 -9.826,3.288 -12.821,3.833 -4.523,0.823 -8.772,1.795 -13.514,1.528 -4,-0.224 -8.108,-0.396 -12.019,-0.783 -1.668,-0.165 -3.644,-0.196 -5.269,0.121 -3.161,0.617 -3.23,3.351 -3.124,6.174 1.073,0.189 2.131,0.35 3.135,0.52 6.433,1.09 12.6,1.885 19.066,2.906 z"
   style="fill:#ffffff;stroke:#000000;stroke-width:0.25px" />
				<g
   id="g74">
					<path
   id="path76"
   d="m 201.673,-27.372 c 0.347,3.768 -1.948,6.663 -3.335,9.931 -0.345,-2.613 -0.992,-5.358 -1.051,-8.075 -2.354,1.254 -1.796,3.905 -1.995,6.251 -0.534,-2.352 -0.579,-6.369 -2.315,-8.042 -0.293,4.457 1.334,9.355 0.973,13.812 2.055,2.47 4.365,4.852 6.643,6.891 0.396,-2.741 -0.095,-6.382 0.385,-8.496 0.72,-3.179 3.137,-9.546 0.695,-12.272 z"
   style="fill:#ad8c5e;stroke:#000000;stroke-width:0.25px" />
					<path
   id="path78"
   d="m 184.984,-52.952 c -1.354,0.064 -3.218,0.267 -4.55,0.006 -0.079,-0.016 -0.153,-0.039 -0.231,-0.062 1.021,0.811 1.887,1.597 2.505,2.539 0.483,1.644 0.529,3.365 0.417,5.115 0.455,0.604 0.822,1.153 0.996,1.599 0.815,2.108 0.644,4.52 1.356,6.571 0.685,1.972 1.512,3.572 1.588,5.695 0.542,-1.948 -0.063,-4.43 0.438,-6.422 0.669,-2.653 1.72,-5.371 2.521,-7.983 1.182,-3.86 1.536,-8.59 3.975,-11.734 -3.214,2.308 -4.629,4.469 -9.015,4.676 z"
   style="fill:#ad8c5e;stroke:#000000;stroke-width:0.25px" />
				</g>
				<path
   id="path80"
   d="m 169.053,-60.181 c 2.828,-0.264 5.547,-2.557 8.095,-3.518 0.917,-0.347 2.32,-0.855 3.298,-0.863 1.608,-0.015 2.283,1.026 3.696,1.132 -0.049,0.271 -0.094,0.512 -0.23,0.801 -3.92,0.302 -12.07,1.098 -14.858,3.981 v -1.533 z"
   style="fill:#ad8c5e;stroke:#000000;stroke-width:0.25px" />
				<path
   id="path82"
   d="m 259.968,-16.147 c 1.534,1.753 0.438,8.543 1.753,11.83 1.314,3.286 5.258,8.325 7.887,11.392 2.629,3.067 13.363,14.239 13.582,17.088 0.22,2.848 0.877,28.917 0.22,31.766 -0.658,2.848 -2.629,3.725 -2.629,4.819 0,1.094 4.601,1.533 5.477,0.876 0.876,-0.656 1.095,-2.848 1.095,-3.505 0,-0.657 1.315,-0.438 0.877,-3.066 -0.438,-2.63 -0.657,-26.946 -0.438,-30.452 0.22,-3.505 3.943,-5.695 3.725,-8.981 -0.22,-3.286 -3.505,-7.229 -3.725,-9.857 -0.219,-2.63 0.877,-5.916 1.534,-10.297 0.657,-4.382 1.314,-4.162 1.753,-10.735 0.162,-2.443 0.438,-7.667 -0.438,-9.639"
   style="fill:#f5bd8a;stroke:#000000;stroke-width:0.25px" />
				<path
   id="path84"
   d="m 201.074,-65.033 -0.445,-1.017 -0.827,-1.683 -1.062,-1.919 -1.059,-1.279 -1.014,-0.933 c -0.173,0.077 -0.339,0.157 -0.499,0.24 -1.875,0.974 -1.85,1.312 -1.101,3.379 1.375,3.791 2.11,7.433 3.17,11.348 1.305,4.82 1.184,9.533 1.924,14.46 0.29,1.925 0.82,3.69 1.259,5.537 0.423,1.779 0.2,3.285 0.312,5.159 2.082,0.828 4.168,0.512 6.21,-0.425 2.799,-1.285 4.814,-1.553 7.867,-1.728 4.975,-0.284 9.77,0.701 14.577,-0.499 2.545,-0.635 5.578,-0.615 8.111,10e-4 2.751,0.669 5.634,2.3 8.565,2.042 2.553,-0.223 5.066,-1.494 7.702,-1.811 2.961,-0.356 7.319,-1.164 10.173,-0.018 1.999,0.803 3.744,4.251 4.936,6.226 2.797,4.636 3.35,10.632 4.601,15.747 0.456,1.863 0.182,3.721 0.39,5.695 0.217,2.061 0.657,3.938 0.657,6.135 0,2.271 -0.152,3.602 1.48,5.259 1.583,1.608 3.86,1.938 5.311,3.668 2.176,2.598 2.22,6.908 3.079,10.132 0.591,2.214 2.701,3.189 2.846,0.22 0.07,-1.458 -1.2,-3.535 -1.762,-4.873 -0.938,-2.23 -1.423,-4.886 -1.101,-7.342 0.444,-3.387 0.698,-2.723 -2.589,-4.204 -5.504,-2.481 -4.589,-11.75 -3.979,-16.896 0.397,-3.329 0.905,-6.272 0.876,-9.735 -0.037,-4.327 -1.715,-5.939 -5.656,-7.162 -4.116,-1.274 -3.702,-2.299 -5.688,-5.828 -1.427,-2.536 -2.964,-2.06 -5.497,-1.806 -4.938,0.493 -10.021,0.465 -14.993,0.448 -2.849,-0.009 -5.316,0.999 -8.054,1.267 -5.753,0.56 -11.501,0.415 -17.291,0.706 -5.079,0.253 -9.552,0.992 -14.804,0.481 -2.516,-0.246 -3.529,0.232 -4.486,-2.223 -0.454,-1.165 -0.497,-2.522 -0.693,-3.833 -0.445,-2.967 -0.893,-5.939 -1.047,-8.885 -0.164,-3.126 0.004,-6.306 0,-9.437 -0.001,-1.039 0.006,-2.165 0.135,-3.261 l -0.534,-1.353 z"
   style="fill:#ad8c5e;stroke:#000000;stroke-width:0.25px" />
				<path
   id="path86"
   d="m 281.219,-28.854 c 6.791,5.915 10.561,12.713 10.953,20.812 0.404,8.32 1.303,13.363 1.96,15.554 0.657,2.191 1.983,3.067 3.298,3.067 -0.264,-0.368 -0.473,-0.685 -0.654,-0.979 -0.376,-0.581 1.166,-0.701 2.261,-0.408 0,-1.97 -2.67,-0.345 -3.209,-1.577 0,-0.003 -0.002,-0.007 -0.004,-0.011 -0.516,-1.228 2.341,-0.675 3.798,-0.384 -1.021,-2.332 -4.229,-0.835 -4.461,-1.857 0,-0.004 0,-0.008 0,-0.011 -0.204,-1.021 3.076,-0.469 4.314,-0.469 -1.422,-1.422 -4.462,-0.716 -4.547,-1.441 -10e-4,-0.003 -10e-4,-0.006 -10e-4,-0.01 -0.063,-0.728 2.653,-0.813 4.037,-1.104 -1.167,-0.366 -4.114,0.147 -4.166,-0.505 0,-0.002 -10e-4,-0.003 -10e-4,-0.004 -0.043,-0.652 2.853,-0.733 2.853,-0.733 0,0 -2.916,-0.287 -2.955,-0.946 -0.137,-2.513 -0.234,-5.499 -0.332,-8.619 -0.219,-7.011 -2.41,-20.594 -9.639,-26.289"
   style="fill:#f5bd8a;stroke:#000000;stroke-width:0.25px" />
				<path
   id="path88"
   d="m 194.1,-68.579 c -1.021,-4.965 1.169,-13.875 4.09,-18.256 2.19,4.674 3.066,14.312 0.292,19.278"
   style="fill:#f5bd8a;stroke:#000000;stroke-width:0.25px" />
				<path
   id="path90"
   d="m 196.146,-70.916 c -0.877,-2.337 0.146,-7.739 1.752,-10.369 0.876,2.63 1.022,9.494 -0.146,10.954"
   style="fill:#ad8c5e;stroke:#000000;stroke-width:0.25px" />
				<path
   id="path92"
   d="m 201.037,-12.642 c 1.973,3.943 4.382,7.886 3.943,14.458 -0.439,6.572 0.657,38.776 -0.219,44.473 -0.877,5.695 -3.067,10.733 -4.382,12.268 -1.313,1.533 -2.409,1.972 -0.657,2.19 1.753,0.22 3.506,3.067 4.162,2.19 0.657,-0.876 0.657,-2.19 0.877,-3.505 0.219,-1.314 1.753,-1.533 2.191,-3.066 0.438,-1.534 -0.22,-3.287 0.438,-5.696 0.658,-2.41 1.314,-4.601 1.096,-8.544 -0.219,-3.942 -0.219,-6.354 0.656,-10.077 0.877,-3.725 0.877,-10.954 1.315,-15.116 0.438,-4.162 1.753,-11.172 2.19,-13.802 0.438,-2.629 1.752,-4.601 2.19,-6.135 0.438,-1.532 -0.657,-3.066 -0.438,-4.818"
   style="fill:#f5bd8a;stroke:#000000;stroke-width:0.25px" />
				<path
   id="path94"
   d="m 199.504,59.871 c -1.095,1.096 -5.257,4.819 -5.039,5.477 0.219,0.657 3.287,1.314 4.383,1.314 1.095,0 1.313,0.438 2.189,-0.22 0.877,-0.656 1.973,-3.066 1.973,-4.162"
   style="fill:#6b695c;stroke:#000000;stroke-width:0.25px" />
				<path
   id="path96"
   d="m 213.483,-14.328 c -0.161,0.979 -0.303,1.996 -0.873,2.962 -2.413,0.206 -2.227,-2.694 -4.257,-3.236 -0.354,1.216 0.594,4.83 1.447,5.636 1.372,1.293 4.606,-0.565 6.38,-0.876 8.46,-1.485 16.12,0.717 24.514,0.268 4.895,-0.262 10.418,-1.578 14.727,-4.103 3.512,-2.057 6.153,-5.569 10.407,-5.744 -4.143,-1.896 -10.387,-1.941 -14.623,-0.603 -4.67,1.476 -7.7,2.832 -12.936,2.562 -5.095,-0.264 -10.057,-1.842 -15.188,-1.922 -2.337,-0.036 -5.364,0.056 -7.438,1.308 -1.656,0.999 -1.928,2.336 -2.16,3.748 z"
   style="fill:#ad8c5e;stroke:#000000;stroke-width:0.25px" />
				<path
   id="path98"
   d="m 178.506,-60.317 c -0.023,0.011 -0.049,0.022 -0.073,0.034 -0.665,0.31 -3.08,2.448 -3.43,2.425 7.153,0.469 15.774,0.689 18.747,-6.858 -3.422,-0.542 -6.21,1.778 -9.224,2.871 -1.933,0.7 -4.143,0.682 -6.02,1.528 z"
   style="fill:#ffffff;stroke:#000000;stroke-width:0.25px" />
				<path
   id="path100"
   d="m 272.703,-37.438 c 0.234,-0.218 0.518,-0.391 0.847,-0.498 2.034,-0.668 4.165,1.647 5.868,2.34 2.076,0.843 3.809,2.161 5.464,3.724 3.833,3.621 6.048,8.215 6.812,13.287 -1.664,-0.451 -2.877,-4.287 -4.166,-5.674 -1.692,-1.819 -3.394,-3.629 -5.38,-5.081 -2.742,-2.005 -6.698,-2.301 -9.343,-4.467 -1.183,-0.969 -1.098,-2.704 -0.102,-3.631 z"
   style="fill:#ffffff;stroke:#000000;stroke-width:0.25px" />
			</g>
		</g>
	</g><circle
   d="m 340.193,-20.091 c 0,57.371339 -46.50866,103.879998 -103.88,103.879998 -57.37133,0 -103.87999,-46.508659 -103.87999,-103.879998 0,-57.371338 46.50866,-103.88 103.87999,-103.88 57.37134,0 103.88,46.508662 103.88,103.88 z"
   id="circle102"
   r="103.88"
   cy="-20.091"
   cx="236.313"
   style="fill:none;stroke:#000000;stroke-width:0.5px"
   sodipodi:cx="236.313"
   sodipodi:cy="-20.091"
   sodipodi:rx="103.88"
   sodipodi:ry="103.88"
   transform="translate(-3.5077746e-5,1.0270067)" />

</svg>