<?xml version="1.0" encoding="utf-8"?>
<!-- Generator: Adobe Illustrator 24.1.1, SVG Export Plug-In . SVG Version: 6.00 Build 0)  -->
<svg version="1.1" id="Capa_1" xmlns="http://www.w3.org/2000/svg" xmlns:xlink="http://www.w3.org/1999/xlink" x="0px" y="0px"
	 width="76.8px" height="268.5px" viewBox="0 0 76.8 268.5" style="enable-background:new 0 0 76.8 268.5;" xml:space="preserve">
<style type="text/css">
	.st0{fill:#FAFCF8;stroke:#000000;stroke-width:0.25;stroke-miterlimit:10;}
	.st1{fill:#0096FF;}
	.st2{fill:url(#SVGID_1_);}
	.st3{fill:#FAFCF8;stroke:#000000;stroke-width:0.1185;stroke-miterlimit:10;}
	.st4{fill:#005996;stroke:#000000;stroke-width:0.1329;stroke-miterlimit:10;}
	.st5{fill:#F3FFFF;stroke:#000000;stroke-width:0.1329;stroke-miterlimit:10;}
	.st6{fill:#008E41;stroke:#000000;stroke-width:0.1329;stroke-miterlimit:10;}
	.st7{fill:#F3CC00;stroke:#000000;stroke-width:0.1329;stroke-miterlimit:10;}
	.st8{fill:#CB0000;stroke:#000000;stroke-width:0.1329;stroke-miterlimit:10;}
	.st9{fill:#EAC102;stroke:#000000;stroke-width:0.1185;stroke-linecap:square;}
	.st10{fill:#EAC102;stroke:#000000;stroke-width:0.1185;stroke-miterlimit:10;}
	.st11{fill:#EAC102;stroke:#000000;stroke-width:0.1172;stroke-miterlimit:10;}
	.st12{fill:#EAC102;stroke:#000000;stroke-width:0.1087;stroke-miterlimit:10;}
	.st13{fill:#BC001B;stroke:#000000;stroke-width:0.1185;stroke-linecap:square;}
	.st14{fill:#00978F;stroke:#000000;stroke-width:0.1185;stroke-linecap:square;}
	.st15{fill:#EAC102;stroke:#000000;stroke-width:0.116;stroke-linecap:square;}
	.st16{fill:#EAC102;stroke:#000000;stroke-width:0.1091;stroke-linecap:square;}
	.st17{fill:#BC001B;stroke:#000000;stroke-width:0.1303;stroke-linecap:square;}
	.st18{fill:#BC001B;stroke:#000000;stroke-width:0.1292;stroke-linecap:square;}
	.st19{fill:#0F655E;}
	.st20{fill:#0F665F;}
	.st21{fill:#166962;}
	.st22{fill:none;stroke:#000000;stroke-width:0.1201;stroke-linecap:square;}
</style>
<path class="st0" d="M12.8,19.6l63.8-0.1v199.2l-64-0.1C12.6,218.6,12.8,19.6,12.8,19.6z"/>
<path class="st1" d="M12.8,59.6h63.7v10.6H12.8V59.6z M12.9,45.4h63.6V34.7H12.9V45.4z"/>
<path class="st1" d="M12.2,167.3h64.3L76.4,178H12.2V167.3z"/>
<path class="st1" d="M12.2,192.9h64.3v10.9H12.2V192.9z"/>
<linearGradient id="SVGID_1_" gradientUnits="userSpaceOnUse" x1="-1574.6892" y1="460.1481" x2="-1573.6892" y2="460.1481" gradientTransform="matrix(5.2452 0 0 -249.0156 8267.1475 114728.1484)">
	<stop  offset="0" style="stop-color:#AB3F00"/>
	<stop  offset="0.5" style="stop-color:#FF6D1C"/>
	<stop  offset="1" style="stop-color:#AB3F00"/>
</linearGradient>
<path class="st2" d="M7.6,19.6h5.2v249H7.6V19.6z"/>
<path class="st0" d="M10.4,1.5c3.2,0.7,5.5,2.2,6.8,4.5c0.7,3.9,0.4,7-1.1,9.2c-3.6,6.2-7.7,6.4-12,0.4C1.9,12.4,1.4,9,2.7,5.4
	C3.5,2.8,6.1,1.5,10.4,1.5z"/>
<path class="st0" d="M3.8,3.5L4,12.8"/>
<path class="st0" d="M5.7,2.2l-0.2,9.3"/>
<path class="st0" d="M7.4,1.7l0.2,9.6"/>
<path class="st0" d="M9.3,1.4l-0.1,11"/>
<path class="st0" d="M11.3,1.6L11.2,13"/>
<path class="st0" d="M13.5,2.5l-0.3,11.4"/>
<path class="st0" d="M15.2,3.6v10.8"/>
<path class="st0" d="M16.8,5.2v7"/>
<path class="st0" d="M8.3,19.4c0,0,0.2-1.2,0.2-1.3s0.2-1,0.2-1c0.8-1.5,2.6-0.8,2.3,2.4"/>
<g>
	<path class="st3" d="M62,147.2"/>
	<g>
		<path class="st4" d="M56.7,137.7c-3.4-4.8-7.4-5.7-12.4-3c1.4,4.2,2.4,6.5,3,7.1c1.2,0,1.7-1.3,1.5-4.1c0.2,1.6,1.2,3.2,3.2,4.7
			c3.9,3.5,4.8,3.1,3-1.3c1.3,0.7,3.4,1.2,6.1,1.4c1.9,0.3,2.7-0.3,2.5-1.9C63.4,139.2,58.6,139.6,56.7,137.7z"/>
		<path class="st4" d="M62.3,141.2c-2.6-0.6-5.4-1.4-8.2-2.3"/>
		<path class="st4" d="M49.2,136.8c2,3.3,4,5.3,5.7,6"/>
		<path class="st4" d="M46.5,136.5c0.9,4.1,1.3,4.3,1.2,0.5"/>
		<path class="st5" d="M65.3,139.4c0.9,0,1.6,0.7,1.6,1.6c0,0.9-0.7,1.6-1.6,1.6c-0.9,0-1.6-0.7-1.6-1.6
			C63.7,140.1,64.5,139.4,65.3,139.4z"/>
		<path class="st5" d="M65.3,140.5c0.3,0,0.5,0.2,0.5,0.5s-0.2,0.5-0.5,0.5c-0.3,0-0.5-0.2-0.5-0.5S65,140.5,65.3,140.5z"/>
		<path class="st5" d="M56,144.3c0.9,0,1.6,0.7,1.6,1.6c0,0.9-0.7,1.6-1.6,1.6s-1.6-0.7-1.6-1.6C54.5,145,55.2,144.3,56,144.3z"/>
		<path class="st5" d="M56,145.4c0.3,0,0.5,0.2,0.5,0.5s-0.2,0.5-0.5,0.5c-0.3,0-0.5-0.2-0.5-0.5S55.8,145.4,56,145.4z"/>
		<path class="st5" d="M47.6,141.6c0.9,0,1.6,0.7,1.6,1.6c0,0.9-0.7,1.6-1.6,1.6s-1.6-0.7-1.6-1.6C45.9,142.4,46.7,141.6,47.6,141.6
			z"/>
		<path class="st5" d="M47.6,142.8c0.3,0,0.5,0.2,0.5,0.5s-0.2,0.5-0.5,0.5c-0.3,0-0.5-0.2-0.5-0.5S47.3,142.8,47.6,142.8z"/>
		<path class="st4" d="M31.2,137.7c3.4-4.8,7.4-5.7,12.4-3c-1.4,4.1-2.4,6.5-3,7.1c-1.2,0-1.7-1.3-1.5-4.1c-0.2,1.6-1.2,3.2-3.2,4.7
			c-3.9,3.5-4.9,3.1-3-1.3c-1.3,0.7-3.4,1.2-6.1,1.4c-1.9,0.3-2.7-0.3-2.5-1.9C24.6,139.2,29.3,139.5,31.2,137.7z"/>
		<path class="st6" d="M58.9,128c-3.9-5.8-6.4-13.7-7.7-24c-0.6-5.6-3.3-8.1-8-7.9c-3.4-0.3-5.4,2.3-5.9,7.9
			c-1.7,10-4.3,17.5-7.7,22.8c-3.2,4.7-0.3,11.9,6.7,8.7l3.3-2.5h3.5h0.8h5.2l2.9,2.4C58.4,138.9,61.7,132.6,58.9,128z"/>
		<path class="st7" d="M36.1,132.6h15.8v2.2H36.1V132.6z"/>
		<path class="st8" d="M50.9,131.7c-2.3,0-5,0-7.5,0c-1.8,0-3.9,0-6.3-0.1c-3.3-0.3-2.6,4.1-0.8,4.1c0.5-0.3,0.5-0.7,0.1-1.1
			c-0.3-1.1-0.1-1.6,0.6-1.6h6.8L51,133c0.7-0.1,0.8,0.5,0.6,1.6c-0.4,0.4-0.4,0.8,0.1,1.1C53.6,135.7,54.2,131.3,50.9,131.7z"/>
		<path class="st4" d="M25.6,141.2c2.6-0.6,5.4-1.4,8.2-2.3"/>
		<path class="st4" d="M38.8,136.8c-2,3.3-4,5.3-5.7,6"/>
		<path class="st4" d="M41.5,136.5c-0.9,4.1-1.3,4.3-1.2,0.5"/>
		<path class="st5" d="M22.6,139.3c0.9,0,1.6,0.7,1.6,1.6s-0.7,1.6-1.6,1.6s-1.6-0.7-1.6-1.6C21,140.1,21.7,139.3,22.6,139.3z"/>
		<path class="st5" d="M22.6,140.4c0.3,0,0.5,0.2,0.5,0.5c0,0.3-0.2,0.5-0.5,0.5s-0.5-0.2-0.5-0.5C22.1,140.7,22.3,140.4,22.6,140.4
			z"/>
		<path class="st5" d="M31.9,144.3c0.9,0,1.6,0.7,1.6,1.6c0,0.9-0.7,1.6-1.6,1.6s-1.6-0.7-1.6-1.6C30.3,145,31,144.3,31.9,144.3z"/>
		<path class="st5" d="M31.9,145.4c0.3,0,0.5,0.2,0.5,0.5s-0.2,0.5-0.5,0.5c-0.3,0-0.5-0.2-0.5-0.5S31.6,145.4,31.9,145.4z"/>
		<path class="st5" d="M40.3,141.5c0.9,0,1.6,0.7,1.6,1.6c0,0.9-0.7,1.6-1.6,1.6c-0.9,0-1.6-0.7-1.6-1.6
			C38.7,142.4,39.4,141.5,40.3,141.5z"/>
		<path class="st5" d="M40.3,142.7c0.3,0,0.5,0.2,0.5,0.5s-0.2,0.5-0.5,0.5c-0.3,0-0.5-0.2-0.5-0.5C39.8,143,40,142.7,40.3,142.7z"
			/>
	</g>
	<g>
		<g>
			<g>
				<path class="st9" d="M40.6,98.4c0,0-0.4,1-0.9,2.1c-0.6,1.2-1.1,1.5-0.9,2c0.1,0.5,0.6,0.8,1.1,0.9c0.5,0.1,1-0.1,1.3-0.5
					c0.3-0.4,0-0.8-0.2-2.2C40.7,99.4,40.6,98.4,40.6,98.4z"/>
				<line class="st10" x1="40" y1="103.4" x2="40.1" y2="102.1"/>
				<path class="st10" d="M39.5,100.9c0.2,0,0.4,0,0.7,0c0.3,0,0.5,0,0.7,0"/>
				<path class="st10" d="M39.8,100.3c0.1,0,0.3,0,0.5,0c0.2,0,0.4,0,0.5,0"/>
			</g>
			<g>
				<path class="st9" d="M47.3,98.4c0,0,0.4,1,0.9,2.1c0.6,1.2,1.1,1.5,0.9,2c-0.1,0.5-0.6,0.8-1.1,0.9c-0.5,0.1-1-0.1-1.3-0.5
					c-0.3-0.4,0-0.8,0.2-2.2C47.3,99.3,47.3,98.4,47.3,98.4z"/>
				<line class="st10" x1="47.9" y1="103.4" x2="47.8" y2="102.1"/>
				<path class="st10" d="M48.4,100.9c-0.2,0-0.4,0-0.7,0c-0.3,0-0.5,0-0.7,0"/>
				<path class="st10" d="M48.1,100.3c-0.1,0-0.3,0-0.5,0c-0.2,0-0.4,0-0.5,0"/>
			</g>
			<g>
				<path class="st9" d="M44,98.3c0,0-0.2,1.4-0.7,2.5c-0.6,1.2-0.7,1.1-0.6,1.7c0.1,0.5,0.7,0.9,1.2,0.9l0.1,0
					c0.6,0,1.1-0.5,1.2-0.9c0.1-0.5,0-0.5-0.6-1.7C44.2,99.8,44,98.3,44,98.3L44,98.3z"/>
				<line class="st10" x1="43.9" y1="103.4" x2="43.9" y2="102.1"/>
				<path class="st11" d="M43.6,100.2c0.1,0,0.3,0,0.4,0c0.2,0,0.2,0,0.3,0"/>
				<path class="st12" d="M43.4,100.8c0.2,0,0.4,0.1,0.6,0.1c0.3,0,0.5,0,0.6-0.1"/>
			</g>
		</g>
		<path class="st13" d="M43.2,93.5h1.3v1.2h-1.3V93.5z"/>
		<path class="st14" d="M36.1,89c1.2,0,2.3,1,2.3,2.2c0,1.2-1,2.2-2.3,2.2c-1.2,0-2.3-1-2.3-2.2C33.8,90,34.7,89,36.1,89z
			 M50.9,88.9c-1.2,0-2.3,1-2.3,2.2c0,1.2,1,2.2,2.3,2.2s2.3-1,2.3-2.2C53.2,89.9,52.2,88.9,50.9,88.9z"/>
		<path class="st14" d="M46.6,93.4c-1.9,0.2-4.1,0.2-6.6,0.2c-2.9,0-3.1-4.2,1.4-4.9h4.2C49.3,88.3,49.6,93.4,46.6,93.4z"/>
		<path class="st15" d="M39.3,94.5h9.2v4h-9.2V94.5z"/>
		<path class="st16" d="M40.3,95.4h7.4v2.3h-7.4V95.4z"/>
		<g>
			<g>
				<path class="st13" d="M51.9,86.6c-0.1-0.1-0.2-0.1-0.4-0.2c-0.2-0.1-0.3-0.2-0.5-0.4c-0.1-0.1-0.3-0.2-0.4-0.4
					c-0.1-0.2-0.2-0.3-0.3-0.4c0-0.1-0.1-0.1-0.2-0.4c-0.1-0.2-0.3-0.7-0.2-1c0-0.1,0-0.1,0.1-0.2c0.1-0.1,0.1-0.1,0.2-0.1
					c0.1-0.1,0.1-0.4,0.1-0.6c0-0.4,0.4-0.6,0.7-0.7c0.2-0.1,0.4-0.1,0.6-0.1c0.4,0,0.8,0.3,1.2,0.6c0.7,0.6,1.4,1.5,1.2,2.5
					C53.9,85.9,53,87.1,51.9,86.6z"/>
				<path class="st17" d="M53.2,83.4c-0.4-0.3-1.2-0.5-1.6-0.5c-0.3,0-0.9,0.2-1.3,0.5"/>
				<path class="st13" d="M53.1,83.8c-0.4-0.2-0.9-0.2-1.4-0.2c-0.2,0-0.4,0.1-0.5,0.2c-0.2,0.1-0.9,0.5-0.9,0.8"/>
			</g>
			<path class="st13" d="M53.3,85.1c-0.3,0.6-0.9,1.1-1.6,1.3"/>
			<path class="st13" d="M51.3,86.1c0-0.1,0.1-0.2,0.2-0.3c0.4-0.5,1-0.8,1.7-1.1"/>
			<path class="st18" d="M50.7,85.5c0.1-0.2,0.2-0.3,0.4-0.5c0.5-0.5,1.1-0.8,1.7-0.8"/>
		</g>
		<g>
			<g>
				<path class="st13" d="M35,86.6c0.1-0.1,0.2-0.1,0.4-0.2c0.2-0.1,0.3-0.2,0.5-0.4c0.1-0.1,0.3-0.2,0.4-0.4
					c0.1-0.2,0.2-0.3,0.3-0.4c0-0.1,0.1-0.1,0.2-0.4c0.1-0.2,0.3-0.7,0.2-1c0-0.1,0-0.1-0.1-0.2c-0.1-0.1-0.1-0.1-0.2-0.1
					c-0.1-0.1-0.1-0.4-0.1-0.6c0-0.4-0.4-0.6-0.7-0.7c-0.2-0.1-0.4-0.1-0.6-0.1c-0.4,0-0.8,0.3-1.2,0.6c-0.7,0.6-1.4,1.5-1.2,2.5
					C33,85.9,34,87.1,35,86.6z"/>
				<path class="st17" d="M33.7,83.4c0.4-0.3,1.2-0.5,1.6-0.5c0.3,0,0.9,0.2,1.3,0.5"/>
				<path class="st13" d="M33.8,83.8c0.4-0.2,0.9-0.2,1.4-0.2c0.2,0,0.4,0.1,0.5,0.2c0.2,0.1,0.9,0.5,0.9,0.8"/>
			</g>
			<path class="st13" d="M33.6,85.1c0.3,0.6,0.9,1.1,1.6,1.3"/>
			<path class="st13" d="M35.6,86.1c0-0.1-0.1-0.2-0.2-0.3c-0.4-0.5-1-0.8-1.7-1.1"/>
			<path class="st18" d="M36.2,85.5c-0.1-0.2-0.2-0.3-0.4-0.5c-0.5-0.5-1.1-0.8-1.7-0.8"/>
		</g>
		<path class="st13" d="M30.4,84.8c-3.5,0.5-2.6,3.8-0.9,4.7l0.1,0.6l-0.4,0.3c-1.6-1-2.3-2.1-2.3-3.2c0-1.8,1.2-3,3.4-3.5
			c1.2-0.2,2.3-0.2,3.6-0.2l-0.2,1.3l-0.7,0.2c-0.2-0.2-0.5-0.2-1-0.3C31.3,84.8,30.9,84.8,30.4,84.8z"/>
		<path class="st13" d="M56.6,84.6c3.5,0.5,2.6,3.8,0.9,4.7l0,0.6l0.4,0.3c1.6-1,2.3-2.1,2.3-3.2c-0.1-1.8-1.2-3-3.4-3.5
			c-1.2-0.2-2.3-0.2-3.6-0.2l0.2,1.3l0.8,0.2c0.2-0.2,0.5-0.2,1-0.3C55.7,84.5,56.2,84.5,56.6,84.6z"/>
		<path class="st13" d="M32.5,84.9c0.2,0.3,0.5,0.4,0.9,0.3c1.1-0.6,0.9-1.8,0.1-2.2c-0.5-0.1-0.9,0.1-1,0.5l0.1,0.1
			c1.1-0.4,1.2,1.1,0.2,1.2L32.5,84.9z"/>
		<path class="st13" d="M34,84.9"/>
		<path class="st14" d="M31.5,88.9c1.3,0,2.4,1,2.4,2.3c0,1.3-1,2.3-2.4,2.3c-1.3,0-2.5-1-2.5-2.2C29,90,30.1,88.9,31.5,88.9z
			 M55.6,88.5c-1.3,0-2.4,1-2.4,2.3c0,1.3,1,2.3,2.4,2.3c1.3,0,2.4-1,2.4-2.3C58.1,89.6,56.9,88.5,55.6,88.5z"/>
		<path class="st13" d="M54.6,84.8c-0.2,0.3-0.5,0.4-0.9,0.3c-1.1-0.6-0.9-1.8-0.1-2.2c0.5-0.1,0.9,0,1,0.5l-0.2,0.1
			c-1.1-0.4-1.1,1.1-0.2,1.1L54.6,84.8z"/>
		<path class="st19" d="M40.2,93.1c-0.2-0.1-0.3-0.2-0.5-0.3c-0.1-0.1-0.2,0-0.2-0.1c-1.5-0.6-1.7-1.4-0.5-2.6
			c0.2-0.2,0.5-0.4,0.8-0.6c0.2-0.1,0.5-0.2,0.6-0.1c0.2,0.2,0.2,0.5,0.3,0.8c0,0.1,0,0.1,0,0.2l0,0c-0.3,0.2-0.7,0.3-0.9,0.5
			c-0.3,0.2-0.4,0.9-0.2,1c0.3,0.2,0.7,0.1,0.9-0.2l0.1-0.1c0.4-0.4,0.7-0.3,1,0.2c0.2,0.2,0.3,0.4,0.7,0.3c0.2-0.1,0.5-0.1,0.8-0.1
			c0.1,0,0.2-0.1,0.3-0.2c0.1-0.1,0.2-0.2,0.3-0.2c0.1-0.1,0.2-0.2,0.2-0.2c-0.3-0.3-0.3-1-0.9-1.1h-0.1c-0.1-0.1-0.2-0.1-0.2-0.2
			c-0.2-0.2-0.3-0.3-0.3-0.5s0.2-0.4,0.3-0.5c0.2-0.1,0.6-0.2,0.9-0.1c0.3,0.1,0.8,0.2,1.1,0.4h0c0.1,0.3,0.2,0.7,0.2,1.1
			c0.1,0.5,0.2,1,0.2,1.6c0,0,0.1,0.1,0.2,0.1c0.1,0,0.2,0,0.2,0c0.5,0.1,0.9,0,1.1-0.6c0.1-0.3,0.4-0.8,0-1.1
			c0-0.1-0.1-0.1-0.1-0.2c-0.2-0.7,0.2-1.1,0.9-0.9l0,0c0.1,0.1,0.1,0.1,0.2,0.2l0,0c0.2,0.3,0.4,0.8,0.6,1.1c0,0.1,0,0.1,0,0.2
			s0.1,0.2,0.1,0.2c0,1.1-0.5,1.7-1.8,2.1c0.1,0,0-0.2,0.1-0.1c-0.7,0.1-1.3,0.1-2,0.2c-0.6-0.2-1,0.1-1.7,0.1c-0.1,0-0.2,0-0.2,0
			c-0.2,0-0.3,0-0.6,0c0-0.1-0.1-0.2-0.1-0.2c-0.5-0.2-1-0.2-1.6-0.4c-0.1,0-0.2,0.1-0.2,0.2C40.3,93.1,40.3,93.1,40.2,93.1z"/>
		<path class="st19" d="M52.2,92.5c-0.6,0.2-1.1,0.2-1.8,0c-0.1,0-0.2,0-0.3,0c-0.1-0.1-0.2-0.1-0.3-0.1c-0.1,0-0.2,0-0.2,0
			c-0.1-0.1-0.2-0.2-0.3-0.3c-0.1-0.2-0.2-0.6-0.2-0.9c0-0.1,0.5-0.2,0.9-0.2c0.1,0,0.2,0.1,0.3,0.1h0.1c0.2,0.2,0.6,0.4,0.9,0.2
			c0.2-0.2-0.1-0.5-0.1-0.9c0-0.7,0.2-0.9,1.2-0.8c0.1,0.2,0.2,0.3,0.3,0.5c0.1,0.1,0.1,0.2,0.2,0.3c0,0.1,0,0.2,0,0.2
			c0,0.2,0,0.3,0,0.6C52.8,91.7,52.5,92.1,52.2,92.5z"/>
		<path class="st20" d="M55.7,90.6c-0.4-0.2-0.7-0.4-0.6-1c0.1-0.1,0.1-0.2,0.2-0.3c0.1-0.1,0.2-0.2,0.2-0.2c0.3,0.1,0.8,0,1.1,0.2
			c0.8,0.3,1,1.1,1,2c-0.1,0.2-0.2,0.2-0.3,0.4c-0.1,0-0.1,0-0.2,0c-0.1,0.1-0.2,0.2-0.2,0.3c0,0.4-0.2,0.7-0.5,0.8s-0.9,0.2-1-0.4
			c-0.1-0.2,0-0.5,0.1-0.6c0.1-0.2,0.2-0.3,0.4-0.5c0.2,0,0.2,0,0.4,0h0.1c0-0.1,0-0.1-0.1-0.2C56.4,90.6,56,90.7,55.7,90.6z"/>
		<path class="st20" d="M36.8,93.1c-1,0-1.1-0.2-1.2-1.1c0.2-0.3,0.5-0.8,0.7-1.1c0.2-0.1,0.2-0.1,0.4-0.2c0.3-0.4,0.7-0.2,0.9,0.1
			c0.2,0.2,0.2,0.5,0.2,0.7C37.7,92.3,37.4,92.8,36.8,93.1z"/>
		<path class="st20" d="M35.6,90.9c-1,0-1.2-0.1-1.2-0.8c0.2-0.2,0.5-0.5,0.8-0.7c0.2-0.1,0.3-0.1,0.4-0.2c0.4-0.2,0.8-0.2,0.9,0.1
			c0.2,0.1,0.2,0.3,0.2,0.5C36.5,90.3,36.3,90.8,35.6,90.9z"/>
		<path class="st21" d="M32.5,89.4c0.2,0.1,0.2,0.2,0.4,0.3c0.1,0.1,0.2,0.2,0.3,0.4c0,0.1,0,0.2,0,0.2c0,0.2,0,0.5,0,0.8
			c-0.2,0.2-0.3,0.4-0.5,0.6c-0.9,0-1.1-0.1-1.2-0.8c-0.1-0.2-0.2-0.4-0.3-0.7c-0.2-0.2-0.4-0.6,0-0.9
			C31.6,89.2,31.9,89.3,32.5,89.4C32.4,89.4,32.5,89.4,32.5,89.4z"/>
		<path class="st21" d="M29.7,92.6C29.7,92.6,29.7,92.5,29.7,92.6c-0.1-0.5-0.2-0.9-0.2-1.4c0.1-0.2,0.2-0.3,0.2-0.5l0.1-0.1H30
			c0.1,0,0.2,0.1,0.2,0.1c0.6-0.2,1,0.1,0.9,0.7c-0.1,0.3,0,0.6,0.3,0.9c0.2,0.2,0.3,0.3,0.2,0.7c-0.1,0.1-0.2,0.2-0.2,0.2
			c-0.2,0-0.4,0.1-0.6,0.1C30.5,93.1,30.3,93,30,93c-0.1,0-0.1-0.1-0.2-0.1l-0.1-0.1l0,0l0,0C29.8,92.6,29.7,92.6,29.7,92.6z"/>
		<g>
			<line class="st22" x1="40.3" y1="97.5" x2="41.7" y2="95.4"/>
			<line class="st22" x1="41.2" y1="95.4" x2="43.5" y2="97.6"/>
			<line class="st22" x1="41.3" y1="97.6" x2="42.7" y2="95.4"/>
			<line class="st22" x1="42.4" y1="95.4" x2="44.7" y2="97.6"/>
			<line class="st22" x1="44.1" y1="95.4" x2="42.9" y2="97.6"/>
			<line class="st22" x1="44.9" y1="95.4" x2="43.8" y2="97.6"/>
			<g>
				<line class="st22" x1="47.6" y1="96.8" x2="46.3" y2="95.4"/>
				<line class="st22" x1="47.6" y1="96" x2="46.7" y2="97.6"/>
				<line class="st22" x1="47.1" y1="97.6" x2="45.1" y2="95.4"/>
				<line class="st22" x1="45.8" y1="97.7" x2="46.8" y2="95.4"/>
			</g>
		</g>
	</g>
</g>
</svg>
