<svg width="900" height="600" version="1.1" xmlns="http://www.w3.org/2000/svg">
 <rect x="-4.4531e-5" y="2e-5" width="900" height="600" fill="#A51931"/>
 <g transform="matrix(1.4277 0 0 1.4277 -18.613 -771.79)" fill="#F4F5F8" shape-rendering="auto">
  <g>
   <path d="m329.77 651.81c-55.184 0-99.952 44.772-99.952 99.956 0 55.184 44.768 99.956 99.952 99.956 55.184 0 99.956-44.772 99.956-99.956 0-55.184-44.772-99.956-99.956-99.956zm0 3.3864c53.353 0 96.57 43.217 96.57 96.57 0 53.353-43.217 96.566-96.57 96.566-53.353 0-96.566-43.213-96.566-96.566 0-53.353 43.213-96.57 96.566-96.57zm0 1.7759c-52.335 0-94.79 42.459-94.79 94.794 0 52.335 42.455 94.79 94.79 94.79 52.335 0 94.794-42.455 94.794-94.79 0-52.335-42.459-94.794-94.794-94.794zm0 2.8238c50.809 0 91.97 41.161 91.97 91.97 0 50.809-41.161 91.966-91.97 91.966-50.809 0-91.966-41.157-91.966-91.966 0-50.809 41.157-91.97 91.966-91.97zm0 14.994c-42.494 0-76.972 34.481-76.972 76.976 0 42.494 34.478 76.972 76.972 76.972 42.494 0 76.976-34.478 76.976-76.972 0-42.494-34.481-76.976-76.976-76.976zm0 2.8238c40.968 0 74.152 33.183 74.152 74.152 0 40.968-33.184 74.148-74.152 74.148-40.968 0-74.148-33.18-74.148-74.148 0-40.968 33.18-74.152 74.148-74.152zm0 2.0922c-39.776 0-72.056 32.283-72.056 72.06 0 39.776 32.28 72.056 72.056 72.056 39.776 0 72.06-32.28 72.06-72.056 0-39.776-32.283-72.06-72.06-72.06zm0 3.3901c37.945 0 68.669 30.725 68.669 68.669 0 37.945-30.725 68.669-68.669 68.669-37.945 0-68.666-30.725-68.666-68.669 0-37.945 30.721-68.669 68.666-68.669z" color="#000000" color-rendering="auto" image-rendering="auto" solid-color="#000000" style="block-progression:tb;isolation:auto;mix-blend-mode:normal;text-decoration-color:#000000;text-decoration-line:none;text-decoration-style:solid;text-indent:0;text-transform:none;white-space:normal"/>
   <path d="m329.77 661.62c-1.3442 0-2.5137 0.758-3.2798 1.8127-0.58485 0.80523-0.97044 1.8012-1.1214 2.89-0.88004-0.0113-1.684-0.0198-2.526-0.0294-3.9273 0-5.4634 0.81389-5.9566 1.0957 0.49318 0.28182 2.0293 1.0957 5.9566 1.0957 0.84322-9e-3 1.6498-0.0188 2.5297-0.0294 0.15682 1.0638 0.54387 2.03 1.1178 2.8202 0.76606 1.0547 1.9356 1.8164 3.2798 1.8164 1.3442 0 2.5137-0.76169 3.2798-1.8164 0.56776-0.78168 0.94936-1.7367 1.1104-2.7871 0.87923 0.0113 1.6938 0.0196 2.5407 0.0294 3.9273 0 5.4634-0.81389 5.9565-1.0957-0.49317-0.28182-2.0293-1.0957-5.9565-1.0957-0.842 9e-3 -1.646 0.0188-2.526 0.0294-0.14872-1.1016-0.53444-2.1099-1.1251-2.9231-0.76605-1.0547-1.9355-1.8127-3.2798-1.8127zm0 2.2576c0.50375 0 1.0074 0.26981 1.4524 0.88245 0.44498 0.61266 0.76479 1.5454 0.76479 2.5959s-0.31981 1.9796-0.76479 2.5922c-0.44498 0.61265-0.94861 0.88615-1.4524 0.88615-0.50376 0-1.0038-0.2735-1.4487-0.88615-0.445-0.61264-0.76479-1.5417-0.76481-2.5922 0-1.0505 0.31983-1.9832 0.76481-2.5959 0.44494-0.61264 0.94493-0.88245 1.4487-0.88245z" color="#000000" color-rendering="auto" image-rendering="auto" solid-color="#000000" style="block-progression:tb;isolation:auto;mix-blend-mode:normal;text-decoration-color:#000000;text-decoration-line:none;text-decoration-style:solid;text-indent:0;text-transform:none;white-space:normal"/>
   <path d="m329.77 830.45c-1.3442 0-2.5137 0.75799-3.2798 1.8127-0.58485 0.80523-0.97044 1.8011-1.1214 2.89-0.88004-0.0113-1.684-0.0198-2.526-0.0294-3.9273 0-5.4634 0.81389-5.9566 1.0957 0.49318 0.28182 2.0293 1.0957 5.9566 1.0957 0.84322-9e-3 1.6498-0.0188 2.5297-0.0294 0.15682 1.0638 0.54387 2.03 1.1178 2.8202 0.76606 1.0547 1.9356 1.8164 3.2798 1.8164 1.3442 0 2.5137-0.76168 3.2798-1.8164 0.56776-0.78168 0.94936-1.7367 1.1104-2.7871 0.87923 0.0113 1.6938 0.0196 2.5407 0.0294 3.9273 0 5.4634-0.81389 5.9565-1.0957-0.49317-0.28182-2.0293-1.0957-5.9565-1.0957-0.842 9e-3 -1.646 0.0188-2.526 0.0294-0.14872-1.1016-0.53444-2.1099-1.1251-2.9231-0.76605-1.0547-1.9355-1.8127-3.2798-1.8127zm0 2.2576c0.50375 0 1.0074 0.26981 1.4524 0.88246 0.44498 0.61266 0.76479 1.5454 0.76479 2.5959s-0.31981 1.9796-0.76479 2.5922-0.94861 0.88614-1.4524 0.88614c-0.50376 0-1.0038-0.2735-1.4487-0.88614-0.445-0.61264-0.76479-1.5417-0.76481-2.5922 0-1.0505 0.31983-1.9832 0.76481-2.5959 0.44494-0.61265 0.94493-0.88246 1.4487-0.88246z" color="#000000" color-rendering="auto" image-rendering="auto" solid-color="#000000" style="block-progression:tb;isolation:auto;mix-blend-mode:normal;text-decoration-color:#000000;text-decoration-line:none;text-decoration-style:solid;text-indent:0;text-transform:none;white-space:normal"/>
  </g>
  <g transform="matrix(1.8184 -.48724 .48724 1.8184 541.02 -427.34)" fill-rule="evenodd">
   <path d="m-270.5 529.87c-1.1831 0-1.8898-0.0771-2.2549-0.75 0.36511-0.6729 1.0718-0.75 2.2549-0.75s1.8898 0.0771 2.2549 0.75c-0.36511 0.6729-1.0718 0.75-2.2549 0.75z" color="#000000" color-rendering="auto" image-rendering="auto" solid-color="#000000" style="block-progression:tb;isolation:auto;mix-blend-mode:normal;text-decoration-color:#000000;text-decoration-line:none;text-decoration-style:solid;text-indent:0;text-transform:none;white-space:normal"/>
   <path d="m-270.5 533.87c-1.1831 0-1.8898-0.0771-2.2549-0.75 0.36511-0.6729 1.0718-0.75 2.2549-0.75s1.8898 0.0771 2.2549 0.75c-0.36511 0.6729-1.0718 0.75-2.2549 0.75z" color="#000000" color-rendering="auto" image-rendering="auto" solid-color="#000000" style="block-progression:tb;isolation:auto;mix-blend-mode:normal;text-decoration-color:#000000;text-decoration-line:none;text-decoration-style:solid;text-indent:0;text-transform:none;white-space:normal"/>
  </g>
  <g transform="matrix(1.8184 -.48724 .48724 1.8184 584.71 -264.31)" fill-rule="evenodd">
   <path d="m-270.5 529.87c-1.1831 0-1.8898-0.0771-2.2549-0.75 0.36511-0.6729 1.0718-0.75 2.2549-0.75s1.8898 0.0771 2.2549 0.75c-0.36511 0.6729-1.0718 0.75-2.2549 0.75z" color="#000000" color-rendering="auto" image-rendering="auto" solid-color="#000000" style="block-progression:tb;isolation:auto;mix-blend-mode:normal;text-decoration-color:#000000;text-decoration-line:none;text-decoration-style:solid;text-indent:0;text-transform:none;white-space:normal"/>
   <path d="m-270.5 533.87c-1.1831 0-1.8898-0.0771-2.2549-0.75 0.36511-0.6729 1.0718-0.75 2.2549-0.75s1.8898 0.0771 2.2549 0.75c-0.36511 0.6729-1.0718 0.75-2.2549 0.75z" color="#000000" color-rendering="auto" image-rendering="auto" solid-color="#000000" style="block-progression:tb;isolation:auto;mix-blend-mode:normal;text-decoration-color:#000000;text-decoration-line:none;text-decoration-style:solid;text-indent:0;text-transform:none;white-space:normal"/>
  </g>
  <g transform="matrix(1.6303 -.94128 .94128 1.6303 228.28 -442.47)">
   <path d="m-270.5 528.45c-0.71404 0-1.3353 0.40264-1.7422 0.96289-0.31067 0.42773-0.51549 0.95675-0.5957 1.5352-0.46747-6e-3 -0.89454-0.0105-1.3418-0.0156-2.0861 0-2.9021 0.43233-3.1641 0.58203 0.26197 0.1497 1.0779 0.58203 3.1641 0.58203 0.44791-5e-3 0.87638-0.01 1.3438-0.0156 0.0833 0.56509 0.2889 1.0783 0.59375 1.498 0.40692 0.56025 1.0282 0.96485 1.7422 0.96485s1.3353-0.4046 1.7422-0.96485c0.30159-0.41522 0.50429-0.92252 0.58985-1.4805 0.46704 6e-3 0.89974 0.0104 1.3496 0.0156 2.0861 0 2.9021-0.43233 3.1641-0.58203-0.26197-0.1497-1.0779-0.58203-3.1641-0.58203-0.44726 5e-3 -0.87433 0.01-1.3418 0.0156-0.079-0.58518-0.28389-1.1207-0.59766-1.5527-0.40692-0.56025-1.0281-0.96289-1.7422-0.96288zm0 1.1992c0.26759 0 0.53511 0.14332 0.77148 0.46875 0.23637 0.32544 0.40625 0.82091 0.40625 1.3789s-0.16988 1.0515-0.40625 1.377-0.50389 0.47071-0.77148 0.47071-0.53318-0.14528-0.76953-0.47071c-0.23638-0.32543-0.40625-0.81895-0.40626-1.377 0-0.558 0.16989-1.0535 0.40626-1.3789 0.23635-0.32543 0.50194-0.46875 0.76953-0.46875z" color="#000000" color-rendering="auto" image-rendering="auto" solid-color="#000000" style="block-progression:tb;isolation:auto;mix-blend-mode:normal;text-decoration-color:#000000;text-decoration-line:none;text-decoration-style:solid;text-indent:0;text-transform:none;white-space:normal"/>
   <path d="m-270.5 618.13c-0.71404 0-1.3353 0.40264-1.7422 0.96289-0.31067 0.42773-0.51549 0.95675-0.5957 1.5352-0.46747-6e-3 -0.89454-0.0105-1.3418-0.0156-2.0861 0-2.9021 0.43233-3.1641 0.58203 0.26197 0.1497 1.0779 0.58203 3.1641 0.58203 0.44791-5e-3 0.87638-0.01 1.3438-0.0156 0.0833 0.56509 0.2889 1.0783 0.59375 1.498 0.40692 0.56025 1.0282 0.96485 1.7422 0.96485s1.3353-0.4046 1.7422-0.96485c0.30159-0.41522 0.50429-0.92252 0.58985-1.4805 0.46704 6e-3 0.89974 0.0104 1.3496 0.0156 2.0861 0 2.9021-0.43233 3.1641-0.58203-0.26197-0.1497-1.0779-0.58203-3.1641-0.58203-0.44726 5e-3 -0.87433 0.01-1.3418 0.0156-0.079-0.58518-0.28389-1.1207-0.59766-1.5527-0.40692-0.56025-1.0281-0.96289-1.7422-0.96288zm0 1.1992c0.26759 0 0.53511 0.14332 0.77148 0.46875 0.23637 0.32544 0.40625 0.82091 0.40625 1.3789s-0.16988 1.0515-0.40625 1.377-0.50389 0.47071-0.77148 0.47071-0.53318-0.14528-0.76953-0.47071c-0.23638-0.32543-0.40625-0.81895-0.40626-1.377 0-0.558 0.16989-1.0535 0.40626-1.3789 0.23635-0.32543 0.50194-0.46875 0.76953-0.46875z" color="#000000" color-rendering="auto" image-rendering="auto" solid-color="#000000" style="block-progression:tb;isolation:auto;mix-blend-mode:normal;text-decoration-color:#000000;text-decoration-line:none;text-decoration-style:solid;text-indent:0;text-transform:none;white-space:normal"/>
  </g>
  <g transform="matrix(.94128 -1.6303 1.6303 .94128 -355.26 -231.71)">
   <path d="m-270.5 528.45c-0.71404 0-1.3353 0.40264-1.7422 0.96289-0.31067 0.42773-0.51549 0.95675-0.5957 1.5352-0.46747-6e-3 -0.89454-0.0105-1.3418-0.0156-2.0861 0-2.9021 0.43233-3.1641 0.58203 0.26197 0.1497 1.0779 0.58203 3.1641 0.58203 0.44791-5e-3 0.87638-0.01 1.3438-0.0156 0.0833 0.56509 0.2889 1.0783 0.59375 1.498 0.40692 0.56025 1.0282 0.96485 1.7422 0.96485s1.3353-0.4046 1.7422-0.96485c0.30159-0.41522 0.50429-0.92252 0.58985-1.4805 0.46704 6e-3 0.89974 0.0104 1.3496 0.0156 2.0861 0 2.9021-0.43233 3.1641-0.58203-0.26197-0.1497-1.0779-0.58203-3.1641-0.58203-0.44726 5e-3 -0.87433 0.01-1.3418 0.0156-0.079-0.58518-0.28389-1.1207-0.59766-1.5527-0.40692-0.56025-1.0281-0.96289-1.7422-0.96288zm0 1.1992c0.26759 0 0.53511 0.14332 0.77148 0.46875 0.23637 0.32544 0.40625 0.82091 0.40625 1.3789s-0.16988 1.0515-0.40625 1.377-0.50389 0.47071-0.77148 0.47071-0.53318-0.14528-0.76953-0.47071c-0.23638-0.32543-0.40625-0.81895-0.40626-1.377 0-0.558 0.16989-1.0535 0.40626-1.3789 0.23635-0.32543 0.50194-0.46875 0.76953-0.46875z" color="#000000" color-rendering="auto" image-rendering="auto" solid-color="#000000" style="block-progression:tb;isolation:auto;mix-blend-mode:normal;text-decoration-color:#000000;text-decoration-line:none;text-decoration-style:solid;text-indent:0;text-transform:none;white-space:normal"/>
   <path d="m-270.5 618.13c-0.71404 0-1.3353 0.40264-1.7422 0.96289-0.31067 0.42773-0.51549 0.95675-0.5957 1.5352-0.46747-6e-3 -0.89454-0.0105-1.3418-0.0156-2.0861 0-2.9021 0.43233-3.1641 0.58203 0.26197 0.1497 1.0779 0.58203 3.1641 0.58203 0.44791-5e-3 0.87638-0.01 1.3438-0.0156 0.0833 0.56509 0.2889 1.0783 0.59375 1.498 0.40692 0.56025 1.0282 0.96485 1.7422 0.96485s1.3353-0.4046 1.7422-0.96485c0.30159-0.41522 0.50429-0.92252 0.58985-1.4805 0.46704 6e-3 0.89974 0.0104 1.3496 0.0156 2.0861 0 2.9021-0.43233 3.1641-0.58203-0.26197-0.1497-1.0779-0.58203-3.1641-0.58203-0.44726 5e-3 -0.87433 0.01-1.3418 0.0156-0.079-0.58518-0.28389-1.1207-0.59766-1.5527-0.40692-0.56025-1.0281-0.96289-1.7422-0.96288zm0 1.1992c0.26759 0 0.53511 0.14332 0.77148 0.46875 0.23637 0.32544 0.40625 0.82091 0.40625 1.3789s-0.16988 1.0515-0.40625 1.377-0.50389 0.47071-0.77148 0.47071-0.53318-0.14528-0.76953-0.47071c-0.23638-0.32543-0.40625-0.81895-0.40626-1.377 0-0.558 0.16989-1.0535 0.40626-1.3789 0.23635-0.32543 0.50194-0.46875 0.76953-0.46875z" color="#000000" color-rendering="auto" image-rendering="auto" solid-color="#000000" style="block-progression:tb;isolation:auto;mix-blend-mode:normal;text-decoration-color:#000000;text-decoration-line:none;text-decoration-style:solid;text-indent:0;text-transform:none;white-space:normal"/>
  </g>
  <g transform="matrix(-1.0687e-8 -1.8826 1.8826 -1.0687e-8 -755.24 242.59)">
   <path d="m-270.5 528.45c-0.71404 0-1.3353 0.40264-1.7422 0.96289-0.31067 0.42773-0.51549 0.95675-0.5957 1.5352-0.46747-6e-3 -0.89454-0.0105-1.3418-0.0156-2.0861 0-2.9021 0.43233-3.1641 0.58203 0.26197 0.1497 1.0779 0.58203 3.1641 0.58203 0.44791-5e-3 0.87638-0.01 1.3438-0.0156 0.0833 0.56509 0.2889 1.0783 0.59375 1.498 0.40692 0.56025 1.0282 0.96485 1.7422 0.96485s1.3353-0.4046 1.7422-0.96485c0.30159-0.41522 0.50429-0.92252 0.58985-1.4805 0.46704 6e-3 0.89974 0.0104 1.3496 0.0156 2.0861 0 2.9021-0.43233 3.1641-0.58203-0.26197-0.1497-1.0779-0.58203-3.1641-0.58203-0.44726 5e-3 -0.87433 0.01-1.3418 0.0156-0.079-0.58518-0.28389-1.1207-0.59766-1.5527-0.40692-0.56025-1.0281-0.96289-1.7422-0.96288zm0 1.1992c0.26759 0 0.53511 0.14332 0.77148 0.46875 0.23637 0.32544 0.40625 0.82091 0.40625 1.3789s-0.16988 1.0515-0.40625 1.377-0.50389 0.47071-0.77148 0.47071-0.53318-0.14528-0.76953-0.47071c-0.23638-0.32543-0.40625-0.81895-0.40626-1.377 0-0.558 0.16989-1.0535 0.40626-1.3789 0.23635-0.32543 0.50194-0.46875 0.76953-0.46875z" color="#000000" color-rendering="auto" image-rendering="auto" solid-color="#000000" style="block-progression:tb;isolation:auto;mix-blend-mode:normal;text-decoration-color:#000000;text-decoration-line:none;text-decoration-style:solid;text-indent:0;text-transform:none;white-space:normal"/>
   <path d="m-270.5 618.13c-0.71404 0-1.3353 0.40264-1.7422 0.96289-0.31067 0.42773-0.51549 0.95675-0.5957 1.5352-0.46747-6e-3 -0.89454-0.0105-1.3418-0.0156-2.0861 0-2.9021 0.43233-3.1641 0.58203 0.26197 0.1497 1.0779 0.58203 3.1641 0.58203 0.44791-5e-3 0.87638-0.01 1.3438-0.0156 0.0833 0.56509 0.2889 1.0783 0.59375 1.498 0.40692 0.56025 1.0282 0.96485 1.7422 0.96485s1.3353-0.4046 1.7422-0.96485c0.30159-0.41522 0.50429-0.92252 0.58985-1.4805 0.46704 6e-3 0.89974 0.0104 1.3496 0.0156 2.0861 0 2.9021-0.43233 3.1641-0.58203-0.26197-0.1497-1.0779-0.58203-3.1641-0.58203-0.44726 5e-3 -0.87433 0.01-1.3418 0.0156-0.079-0.58518-0.28389-1.1207-0.59766-1.5527-0.40692-0.56025-1.0281-0.96289-1.7422-0.96288zm0 1.1992c0.26759 0 0.53511 0.14332 0.77148 0.46875 0.23637 0.32544 0.40625 0.82091 0.40625 1.3789s-0.16988 1.0515-0.40625 1.377-0.50389 0.47071-0.77148 0.47071-0.53318-0.14528-0.76953-0.47071c-0.23638-0.32543-0.40625-0.81895-0.40626-1.377 0-0.558 0.16989-1.0535 0.40626-1.3789 0.23635-0.32543 0.50194-0.46875 0.76953-0.46875z" color="#000000" color-rendering="auto" image-rendering="auto" solid-color="#000000" style="block-progression:tb;isolation:auto;mix-blend-mode:normal;text-decoration-color:#000000;text-decoration-line:none;text-decoration-style:solid;text-indent:0;text-transform:none;white-space:normal"/>
  </g>
  <g transform="matrix(-.94128 -1.6303 1.6303 -.94128 -864.49 853.31)">
   <path d="m-270.5 528.45c-0.71404 0-1.3353 0.40264-1.7422 0.96289-0.31067 0.42773-0.51549 0.95675-0.5957 1.5352-0.46747-6e-3 -0.89454-0.0105-1.3418-0.0156-2.0861 0-2.9021 0.43233-3.1641 0.58203 0.26197 0.1497 1.0779 0.58203 3.1641 0.58203 0.44791-5e-3 0.87638-0.01 1.3438-0.0156 0.0833 0.56509 0.2889 1.0783 0.59375 1.498 0.40692 0.56025 1.0282 0.96485 1.7422 0.96485s1.3353-0.4046 1.7422-0.96485c0.30159-0.41522 0.50429-0.92252 0.58985-1.4805 0.46704 6e-3 0.89974 0.0104 1.3496 0.0156 2.0861 0 2.9021-0.43233 3.1641-0.58203-0.26197-0.1497-1.0779-0.58203-3.1641-0.58203-0.44726 5e-3 -0.87433 0.01-1.3418 0.0156-0.079-0.58518-0.28389-1.1207-0.59766-1.5527-0.40692-0.56025-1.0281-0.96289-1.7422-0.96288zm0 1.1992c0.26759 0 0.53511 0.14332 0.77148 0.46875 0.23637 0.32544 0.40625 0.82091 0.40625 1.3789s-0.16988 1.0515-0.40625 1.377-0.50389 0.47071-0.77148 0.47071-0.53318-0.14528-0.76953-0.47071c-0.23638-0.32543-0.40625-0.81895-0.40626-1.377 0-0.558 0.16989-1.0535 0.40626-1.3789 0.23635-0.32543 0.50194-0.46875 0.76953-0.46875z" color="#000000" color-rendering="auto" image-rendering="auto" solid-color="#000000" style="block-progression:tb;isolation:auto;mix-blend-mode:normal;text-decoration-color:#000000;text-decoration-line:none;text-decoration-style:solid;text-indent:0;text-transform:none;white-space:normal"/>
   <path d="m-270.5 618.13c-0.71404 0-1.3353 0.40264-1.7422 0.96289-0.31067 0.42773-0.51549 0.95675-0.5957 1.5352-0.46747-6e-3 -0.89454-0.0105-1.3418-0.0156-2.0861 0-2.9021 0.43233-3.1641 0.58203 0.26197 0.1497 1.0779 0.58203 3.1641 0.58203 0.44791-5e-3 0.87638-0.01 1.3438-0.0156 0.0833 0.56509 0.2889 1.0783 0.59375 1.498 0.40692 0.56025 1.0282 0.96485 1.7422 0.96485s1.3353-0.4046 1.7422-0.96485c0.30159-0.41522 0.50429-0.92252 0.58985-1.4805 0.46704 6e-3 0.89974 0.0104 1.3496 0.0156 2.0861 0 2.9021-0.43233 3.1641-0.58203-0.26197-0.1497-1.0779-0.58203-3.1641-0.58203-0.44726 5e-3 -0.87433 0.01-1.3418 0.0156-0.079-0.58518-0.28389-1.1207-0.59766-1.5527-0.40692-0.56025-1.0281-0.96289-1.7422-0.96288zm0 1.1992c0.26759 0 0.53511 0.14332 0.77148 0.46875 0.23637 0.32544 0.40625 0.82091 0.40625 1.3789s-0.16988 1.0515-0.40625 1.377-0.50389 0.47071-0.77148 0.47071-0.53318-0.14528-0.76953-0.47071c-0.23638-0.32543-0.40625-0.81895-0.40626-1.377 0-0.558 0.16989-1.0535 0.40626-1.3789 0.23635-0.32543 0.50194-0.46875 0.76953-0.46875z" color="#000000" color-rendering="auto" image-rendering="auto" solid-color="#000000" style="block-progression:tb;isolation:auto;mix-blend-mode:normal;text-decoration-color:#000000;text-decoration-line:none;text-decoration-style:solid;text-indent:0;text-transform:none;white-space:normal"/>
  </g>
  <g transform="matrix(-1.6303 -.94128 .94128 -1.6303 -653.73 1436.8)">
   <path d="m-270.5 528.45c-0.71404 0-1.3353 0.40264-1.7422 0.96289-0.31067 0.42773-0.51549 0.95675-0.5957 1.5352-0.46747-6e-3 -0.89454-0.0105-1.3418-0.0156-2.0861 0-2.9021 0.43233-3.1641 0.58203 0.26197 0.1497 1.0779 0.58203 3.1641 0.58203 0.44791-5e-3 0.87638-0.01 1.3438-0.0156 0.0833 0.56509 0.2889 1.0783 0.59375 1.498 0.40692 0.56025 1.0282 0.96485 1.7422 0.96485s1.3353-0.4046 1.7422-0.96485c0.30159-0.41522 0.50429-0.92252 0.58985-1.4805 0.46704 6e-3 0.89974 0.0104 1.3496 0.0156 2.0861 0 2.9021-0.43233 3.1641-0.58203-0.26197-0.1497-1.0779-0.58203-3.1641-0.58203-0.44726 5e-3 -0.87433 0.01-1.3418 0.0156-0.079-0.58518-0.28389-1.1207-0.59766-1.5527-0.40692-0.56025-1.0281-0.96289-1.7422-0.96288zm0 1.1992c0.26759 0 0.53511 0.14332 0.77148 0.46875 0.23637 0.32544 0.40625 0.82091 0.40625 1.3789s-0.16988 1.0515-0.40625 1.377-0.50389 0.47071-0.77148 0.47071-0.53318-0.14528-0.76953-0.47071c-0.23638-0.32543-0.40625-0.81895-0.40626-1.377 0-0.558 0.16989-1.0535 0.40626-1.3789 0.23635-0.32543 0.50194-0.46875 0.76953-0.46875z" color="#000000" color-rendering="auto" image-rendering="auto" solid-color="#000000" style="block-progression:tb;isolation:auto;mix-blend-mode:normal;text-decoration-color:#000000;text-decoration-line:none;text-decoration-style:solid;text-indent:0;text-transform:none;white-space:normal"/>
   <path d="m-270.5 618.13c-0.71404 0-1.3353 0.40264-1.7422 0.96289-0.31067 0.42773-0.51549 0.95675-0.5957 1.5352-0.46747-6e-3 -0.89454-0.0105-1.3418-0.0156-2.0861 0-2.9021 0.43233-3.1641 0.58203 0.26197 0.1497 1.0779 0.58203 3.1641 0.58203 0.44791-5e-3 0.87638-0.01 1.3438-0.0156 0.0833 0.56509 0.2889 1.0783 0.59375 1.498 0.40692 0.56025 1.0282 0.96485 1.7422 0.96485s1.3353-0.4046 1.7422-0.96485c0.30159-0.41522 0.50429-0.92252 0.58985-1.4805 0.46704 6e-3 0.89974 0.0104 1.3496 0.0156 2.0861 0 2.9021-0.43233 3.1641-0.58203-0.26197-0.1497-1.0779-0.58203-3.1641-0.58203-0.44726 5e-3 -0.87433 0.01-1.3418 0.0156-0.079-0.58518-0.28389-1.1207-0.59766-1.5527-0.40692-0.56025-1.0281-0.96289-1.7422-0.96288zm0 1.1992c0.26759 0 0.53511 0.14332 0.77148 0.46875 0.23637 0.32544 0.40625 0.82091 0.40625 1.3789s-0.16988 1.0515-0.40625 1.377-0.50389 0.47071-0.77148 0.47071-0.53318-0.14528-0.76953-0.47071c-0.23638-0.32543-0.40625-0.81895-0.40626-1.377 0-0.558 0.16989-1.0535 0.40626-1.3789 0.23635-0.32543 0.50194-0.46875 0.76953-0.46875z" color="#000000" color-rendering="auto" image-rendering="auto" solid-color="#000000" style="block-progression:tb;isolation:auto;mix-blend-mode:normal;text-decoration-color:#000000;text-decoration-line:none;text-decoration-style:solid;text-indent:0;text-transform:none;white-space:normal"/>
  </g>
  <g transform="matrix(1.3312 -1.3312 1.3312 1.3312 -77.39 -375.52)" fill-rule="evenodd">
   <g transform="translate(.010703 .406)">
    <path d="m-270.5 529.87c-1.1831 0-1.8898-0.0771-2.2549-0.75 0.36511-0.6729 1.0718-0.75 2.2549-0.75s1.8898 0.0771 2.2549 0.75c-0.36511 0.6729-1.0718 0.75-2.2549 0.75z" color="#000000" color-rendering="auto" image-rendering="auto" solid-color="#000000" style="block-progression:tb;isolation:auto;mix-blend-mode:normal;text-decoration-color:#000000;text-decoration-line:none;text-decoration-style:solid;text-indent:0;text-transform:none;white-space:normal"/>
    <path d="m-270.5 533.87c-1.1831 0-1.8898-0.0771-2.2549-0.75 0.36511-0.6729 1.0718-0.75 2.2549-0.75s1.8898 0.0771 2.2549 0.75c-0.36511 0.6729-1.0718 0.75-2.2549 0.75z" color="#000000" color-rendering="auto" image-rendering="auto" solid-color="#000000" style="block-progression:tb;isolation:auto;mix-blend-mode:normal;text-decoration-color:#000000;text-decoration-line:none;text-decoration-style:solid;text-indent:0;text-transform:none;white-space:normal"/>
   </g>
   <g transform="translate(.010703 90.062)">
    <path d="m-270.5 529.87c-1.1831 0-1.8898-0.0771-2.2549-0.75 0.36511-0.6729 1.0718-0.75 2.2549-0.75s1.8898 0.0771 2.2549 0.75c-0.36511 0.6729-1.0718 0.75-2.2549 0.75z" color="#000000" color-rendering="auto" image-rendering="auto" solid-color="#000000" style="block-progression:tb;isolation:auto;mix-blend-mode:normal;text-decoration-color:#000000;text-decoration-line:none;text-decoration-style:solid;text-indent:0;text-transform:none;white-space:normal"/>
    <path d="m-270.5 533.87c-1.1831 0-1.8898-0.0771-2.2549-0.75 0.36511-0.6729 1.0718-0.75 2.2549-0.75s1.8898 0.0771 2.2549 0.75c-0.36511 0.6729-1.0718 0.75-2.2549 0.75z" color="#000000" color-rendering="auto" image-rendering="auto" solid-color="#000000" style="block-progression:tb;isolation:auto;mix-blend-mode:normal;text-decoration-color:#000000;text-decoration-line:none;text-decoration-style:solid;text-indent:0;text-transform:none;white-space:normal"/>
   </g>
  </g>
  <g transform="matrix(.48724 -1.8184 1.8184 .48724 -586.48 -20.907)" fill-rule="evenodd">
   <g transform="translate(.010703 .406)">
    <path d="m-270.5 529.87c-1.1831 0-1.8898-0.0771-2.2549-0.75 0.36511-0.6729 1.0718-0.75 2.2549-0.75s1.8898 0.0771 2.2549 0.75c-0.36511 0.6729-1.0718 0.75-2.2549 0.75z" color="#000000" color-rendering="auto" image-rendering="auto" solid-color="#000000" style="block-progression:tb;isolation:auto;mix-blend-mode:normal;text-decoration-color:#000000;text-decoration-line:none;text-decoration-style:solid;text-indent:0;text-transform:none;white-space:normal"/>
    <path d="m-270.5 533.87c-1.1831 0-1.8898-0.0771-2.2549-0.75 0.36511-0.6729 1.0718-0.75 2.2549-0.75s1.8898 0.0771 2.2549 0.75c-0.36511 0.6729-1.0718 0.75-2.2549 0.75z" color="#000000" color-rendering="auto" image-rendering="auto" solid-color="#000000" style="block-progression:tb;isolation:auto;mix-blend-mode:normal;text-decoration-color:#000000;text-decoration-line:none;text-decoration-style:solid;text-indent:0;text-transform:none;white-space:normal"/>
   </g>
   <g transform="translate(.010703 90.062)">
    <path d="m-270.5 529.87c-1.1831 0-1.8898-0.0771-2.2549-0.75 0.36511-0.6729 1.0718-0.75 2.2549-0.75s1.8898 0.0771 2.2549 0.75c-0.36511 0.6729-1.0718 0.75-2.2549 0.75z" color="#000000" color-rendering="auto" image-rendering="auto" solid-color="#000000" style="block-progression:tb;isolation:auto;mix-blend-mode:normal;text-decoration-color:#000000;text-decoration-line:none;text-decoration-style:solid;text-indent:0;text-transform:none;white-space:normal"/>
    <path d="m-270.5 533.87c-1.1831 0-1.8898-0.0771-2.2549-0.75 0.36511-0.6729 1.0718-0.75 2.2549-0.75s1.8898 0.0771 2.2549 0.75c-0.36511 0.6729-1.0718 0.75-2.2549 0.75z" color="#000000" color-rendering="auto" image-rendering="auto" solid-color="#000000" style="block-progression:tb;isolation:auto;mix-blend-mode:normal;text-decoration-color:#000000;text-decoration-line:none;text-decoration-style:solid;text-indent:0;text-transform:none;white-space:normal"/>
   </g>
  </g>
  <g transform="matrix(-.48724 -1.8184 1.8184 -.48724 -850.07 540.74)" fill-rule="evenodd">
   <g transform="translate(.010703 .406)">
    <path d="m-270.5 529.87c-1.1831 0-1.8898-0.0771-2.2549-0.75 0.36511-0.6729 1.0718-0.75 2.2549-0.75s1.8898 0.0771 2.2549 0.75c-0.36511 0.6729-1.0718 0.75-2.2549 0.75z" color="#000000" color-rendering="auto" image-rendering="auto" solid-color="#000000" style="block-progression:tb;isolation:auto;mix-blend-mode:normal;text-decoration-color:#000000;text-decoration-line:none;text-decoration-style:solid;text-indent:0;text-transform:none;white-space:normal"/>
    <path d="m-270.5 533.87c-1.1831 0-1.8898-0.0771-2.2549-0.75 0.36511-0.6729 1.0718-0.75 2.2549-0.75s1.8898 0.0771 2.2549 0.75c-0.36511 0.6729-1.0718 0.75-2.2549 0.75z" color="#000000" color-rendering="auto" image-rendering="auto" solid-color="#000000" style="block-progression:tb;isolation:auto;mix-blend-mode:normal;text-decoration-color:#000000;text-decoration-line:none;text-decoration-style:solid;text-indent:0;text-transform:none;white-space:normal"/>
   </g>
   <g transform="translate(.010703 90.062)">
    <path d="m-270.5 529.87c-1.1831 0-1.8898-0.0771-2.2549-0.75 0.36511-0.6729 1.0718-0.75 2.2549-0.75s1.8898 0.0771 2.2549 0.75c-0.36511 0.6729-1.0718 0.75-2.2549 0.75z" color="#000000" color-rendering="auto" image-rendering="auto" solid-color="#000000" style="block-progression:tb;isolation:auto;mix-blend-mode:normal;text-decoration-color:#000000;text-decoration-line:none;text-decoration-style:solid;text-indent:0;text-transform:none;white-space:normal"/>
    <path d="m-270.5 533.87c-1.1831 0-1.8898-0.0771-2.2549-0.75 0.36511-0.6729 1.0718-0.75 2.2549-0.75s1.8898 0.0771 2.2549 0.75c-0.36511 0.6729-1.0718 0.75-2.2549 0.75z" color="#000000" color-rendering="auto" image-rendering="auto" solid-color="#000000" style="block-progression:tb;isolation:auto;mix-blend-mode:normal;text-decoration-color:#000000;text-decoration-line:none;text-decoration-style:solid;text-indent:0;text-transform:none;white-space:normal"/>
   </g>
  </g>
  <g transform="matrix(-1.3312 -1.3312 1.3312 -1.3312 -797.51 1158.9)" fill-rule="evenodd">
   <g transform="translate(.010703 .406)">
    <path d="m-270.5 529.87c-1.1831 0-1.8898-0.0771-2.2549-0.75 0.36511-0.6729 1.0718-0.75 2.2549-0.75s1.8898 0.0771 2.2549 0.75c-0.36511 0.6729-1.0718 0.75-2.2549 0.75z" color="#000000" color-rendering="auto" image-rendering="auto" solid-color="#000000" style="block-progression:tb;isolation:auto;mix-blend-mode:normal;text-decoration-color:#000000;text-decoration-line:none;text-decoration-style:solid;text-indent:0;text-transform:none;white-space:normal"/>
    <path d="m-270.5 533.87c-1.1831 0-1.8898-0.0771-2.2549-0.75 0.36511-0.6729 1.0718-0.75 2.2549-0.75s1.8898 0.0771 2.2549 0.75c-0.36511 0.6729-1.0718 0.75-2.2549 0.75z" color="#000000" color-rendering="auto" image-rendering="auto" solid-color="#000000" style="block-progression:tb;isolation:auto;mix-blend-mode:normal;text-decoration-color:#000000;text-decoration-line:none;text-decoration-style:solid;text-indent:0;text-transform:none;white-space:normal"/>
   </g>
   <g transform="translate(.010703 90.062)">
    <path d="m-270.5 529.87c-1.1831 0-1.8898-0.0771-2.2549-0.75 0.36511-0.6729 1.0718-0.75 2.2549-0.75s1.8898 0.0771 2.2549 0.75c-0.36511 0.6729-1.0718 0.75-2.2549 0.75z" color="#000000" color-rendering="auto" image-rendering="auto" solid-color="#000000" style="block-progression:tb;isolation:auto;mix-blend-mode:normal;text-decoration-color:#000000;text-decoration-line:none;text-decoration-style:solid;text-indent:0;text-transform:none;white-space:normal"/>
    <path d="m-270.5 533.87c-1.1831 0-1.8898-0.0771-2.2549-0.75 0.36511-0.6729 1.0718-0.75 2.2549-0.75s1.8898 0.0771 2.2549 0.75c-0.36511 0.6729-1.0718 0.75-2.2549 0.75z" color="#000000" color-rendering="auto" image-rendering="auto" solid-color="#000000" style="block-progression:tb;isolation:auto;mix-blend-mode:normal;text-decoration-color:#000000;text-decoration-line:none;text-decoration-style:solid;text-indent:0;text-transform:none;white-space:normal"/>
   </g>
  </g>
  <g transform="matrix(-1.8184 -.48724 .48724 -1.8184 -442.9 1668)" fill-rule="evenodd">
   <g transform="translate(.010703 .406)">
    <path d="m-270.5 529.87c-1.1831 0-1.8898-0.0771-2.2549-0.75 0.36511-0.6729 1.0718-0.75 2.2549-0.75s1.8898 0.0771 2.2549 0.75c-0.36511 0.6729-1.0718 0.75-2.2549 0.75z" color="#000000" color-rendering="auto" image-rendering="auto" solid-color="#000000" style="block-progression:tb;isolation:auto;mix-blend-mode:normal;text-decoration-color:#000000;text-decoration-line:none;text-decoration-style:solid;text-indent:0;text-transform:none;white-space:normal"/>
    <path d="m-270.5 533.87c-1.1831 0-1.8898-0.0771-2.2549-0.75 0.36511-0.6729 1.0718-0.75 2.2549-0.75s1.8898 0.0771 2.2549 0.75c-0.36511 0.6729-1.0718 0.75-2.2549 0.75z" color="#000000" color-rendering="auto" image-rendering="auto" solid-color="#000000" style="block-progression:tb;isolation:auto;mix-blend-mode:normal;text-decoration-color:#000000;text-decoration-line:none;text-decoration-style:solid;text-indent:0;text-transform:none;white-space:normal"/>
   </g>
   <g transform="translate(.010703 90.062)">
    <path d="m-270.5 529.87c-1.1831 0-1.8898-0.0771-2.2549-0.75 0.36511-0.6729 1.0718-0.75 2.2549-0.75s1.8898 0.0771 2.2549 0.75c-0.36511 0.6729-1.0718 0.75-2.2549 0.75z" color="#000000" color-rendering="auto" image-rendering="auto" solid-color="#000000" style="block-progression:tb;isolation:auto;mix-blend-mode:normal;text-decoration-color:#000000;text-decoration-line:none;text-decoration-style:solid;text-indent:0;text-transform:none;white-space:normal"/>
    <path d="m-270.5 533.87c-1.1831 0-1.8898-0.0771-2.2549-0.75 0.36511-0.6729 1.0718-0.75 2.2549-0.75s1.8898 0.0771 2.2549 0.75c-0.36511 0.6729-1.0718 0.75-2.2549 0.75z" color="#000000" color-rendering="auto" image-rendering="auto" solid-color="#000000" style="block-progression:tb;isolation:auto;mix-blend-mode:normal;text-decoration-color:#000000;text-decoration-line:none;text-decoration-style:solid;text-indent:0;text-transform:none;white-space:normal"/>
   </g>
  </g>
  <g transform="matrix(1.4421 -1.2101 1.2101 1.4421 22.418 -406.74)" fill-rule="evenodd">
   <path d="m-289.69 503.46-0.33594 0.82227c-0.81909 2.0128-0.78392 4.5107-0.84766 6.8574-15.134-1.3017-24.426 4.6173-31.059 10.439l-1.8144 1.5938 2.4141-0.0176c8.692-0.0595 16.88-0.54343 27.102 7.6699l1.127-1.4043c-9.566-7.6864-17.779-8.0842-25.631-8.0508 6.4079-5.2056 14.834-9.8483 28.635-8.3926l0.95117 0.0996 0.043-0.95312c0.10314-2.2712 0.17009-4.4912 0.56641-6.166 11.936 4.9826 17.233 12.353 19.385 18.625l1.7031-0.58398c-2.3703-6.9097-8.2504-15.07-21.412-20.215l-0.82617-0.32422z" color="#000000" color-rendering="auto" image-rendering="auto" solid-color="#000000" style="block-progression:tb;isolation:auto;mix-blend-mode:normal;text-decoration-color:#000000;text-decoration-line:none;text-decoration-style:solid;text-indent:0;text-transform:none;white-space:normal"/>
   <path d="m-287.14 508.06-0.12891 1.082c-0.27508 2.3382 0.23686 4.3109 0.625 6.3613-8.0604-1.2818-16.201-0.9182-24.316 2.9121l-2.248 1.0606 2.4453 0.44921c4.6105 0.84752 11.649 1.6308 19.109 9.1367l1.1348-1.1289c-6.3724-6.4117-12.571-8.1516-17.115-9.041 7.2606-2.7578 14.51-2.9857 21.834-1.6797l1.0977 0.19532-0.16602-1.1016c-0.3152-2.0912-0.69855-3.8257-0.74804-5.6211 6.3174 3.3421 10.719 9.3691 13.096 13.594l1.3945-0.78516c-2.6173-4.6517-7.4943-11.602-15.02-14.986l-0.99414-0.44727z" color="#000000" color-rendering="auto" image-rendering="auto" solid-color="#000000" style="block-progression:tb;isolation:auto;mix-blend-mode:normal;text-decoration-color:#000000;text-decoration-line:none;text-decoration-style:solid;text-indent:0;text-transform:none;white-space:normal"/>
   <path transform="translate(1.2893e-8 51.66)" d="m-282.83 462.48c-0.51491 0.0564-0.94228 0.41785-1.1816 0.81836-0.38298 0.64081-0.0155 1.6976 0.79817 2.4368 0.14331-0.56923 0.25515-1.6327 0.39648-1.8691 0.18931-0.64422 0.98746-0.52216 1.4199-1.0391-0.34961-0.24293-1.124-0.38083-1.4329-0.34701zm-11.621 2.921c-0.22933 4e-3 -0.44793 0.029-0.65625 0.0762-0.83331 0.18893-1.4236 0.69641-1.8457 1.166-0.42212 0.4696-0.73185 0.9168-0.93554 1.0996-0.10185 0.0914-0.15353 0.10875-0.16602 0.11133-3e-4 6e-5 -4e-3 -8e-5 -4e-3 0-7e-3 -0.0498-0.0119-0.0734-0.0195-0.16211-0.0131-0.15194 0.0108-0.35704-0.0918-0.58398-0.27945-0.61807-0.75124-0.7117-1.1676-0.62115-0.46708 0.1016-0.98534 0.47209-1.5194 0.67484-1.2092 0.4591-0.78554-0.51383-1.1347-0.94345-0.37768 0.9968-0.17699 1.4197 0.1947 1.729 0.99684 0.35541 2.2848-0.99429 2.6245-0.41345 0.0784 0.13401-0.20996 0.67465-0.17671 0.92608 0.0435 0.32855 0.14195 0.52783 0.48203 0.69517 0.35149 0.17296 0.75362 0.24249 1.1152 0.16797 0.36161-0.0745 0.64462-0.2649 0.86523-0.46289 0.44121-0.396 0.70127-1.1066 1.0257-1.4675 0.32441-0.36089 0.63662-0.61046 1.0625-0.70703 0.21517-0.0488 1.1182-0.0769 1.0524 0.46754-0.0521 0.43089-0.575 0.60545-0.98504 0.86821-0.45299 0.29028-0.78858 0.54722-1.0117 1.1289-0.26556 0.69227-0.16433 1.2348 0.68621 1.7275-0.2702-0.68302-0.31258-1.3926 0.28485-1.8105 1.3198-1.1343 4.2085-1.5048 2.3849-3.0779-0.59557-0.28818-0.84097-0.44626-1.3436-0.53153-0.2513-0.0427-0.49137-0.0604-0.7207-0.0566zm7.8715 0.9201c-0.47211 8e-3 -1.0139 0.30073-1.1562 0.70117-0.60805 1.7104 2.8262 4.9394 2.8262 4.9394s0.35613-4.6793-1.2383-5.5469c-0.12445-0.0677-0.27428-0.0963-0.43164-0.0937zm5.2637 0.61523c-0.25067-0.0213-0.53396 0.0554-0.73633 0.24219-1.2966 1.1967-0.86133 4.873-0.86133 4.873s2.6193-3.4166 2.1406-4.7637c-0.0747-0.21029-0.29231-0.33028-0.54297-0.35157zm3.7129 2.3965c-0.0681-2e-3 -0.13516 6e-3 -0.20117 0.0254-1.0209 0.30226-1.9824 2.2988-1.9824 2.2988s2.4195-0.46778 2.9551-1.459c0.18566-0.3436-0.29493-0.84927-0.77148-0.86524zm-12.248 0.0508c-0.39781 0.0455-0.74883 0.32642-0.72265 0.66016 0.11178 1.4252 3.8125 3.2031 3.8125 3.2031s-1.0178-3.2597-2.6895-3.8242c-0.13046-0.044-0.26779-0.0542-0.40039-0.0391zm-1.6348 3.3164c-0.55011 0.0263-0.97227 0.81044-0.64258 1.1113 0.8322 0.75947 3.2715 0.40625 3.2715 0.40625s-1.5654-1.5685-2.6289-1.5176z" color="#000000" color-rendering="auto" image-rendering="auto" solid-color="#000000" style="block-progression:tb;isolation:auto;mix-blend-mode:normal;text-decoration-color:#000000;text-decoration-line:none;text-decoration-style:solid;text-indent:0;text-transform:none;white-space:normal"/>
  </g>
  <g transform="matrix(.3269 -1.854 1.854 .3269 -650.57 61.268)" fill-rule="evenodd">
   <path d="m-289.69 503.46-0.33594 0.82227c-0.81909 2.0128-0.78392 4.5107-0.84766 6.8574-15.134-1.3017-24.426 4.6173-31.059 10.439l-1.8144 1.5938 2.4141-0.0176c8.692-0.0595 16.88-0.54343 27.102 7.6699l1.127-1.4043c-9.566-7.6864-17.779-8.0842-25.631-8.0508 6.4079-5.2056 14.834-9.8483 28.635-8.3926l0.95117 0.0996 0.043-0.95312c0.10314-2.2712 0.17009-4.4912 0.56641-6.166 11.936 4.9826 17.233 12.353 19.385 18.625l1.7031-0.58398c-2.3703-6.9097-8.2504-15.07-21.412-20.215l-0.82617-0.32422z" color="#000000" color-rendering="auto" image-rendering="auto" solid-color="#000000" style="block-progression:tb;isolation:auto;mix-blend-mode:normal;text-decoration-color:#000000;text-decoration-line:none;text-decoration-style:solid;text-indent:0;text-transform:none;white-space:normal"/>
   <path d="m-287.14 508.06-0.12891 1.082c-0.27508 2.3382 0.23686 4.3109 0.625 6.3613-8.0604-1.2818-16.201-0.9182-24.316 2.9121l-2.248 1.0606 2.4453 0.44921c4.6105 0.84752 11.649 1.6308 19.109 9.1367l1.1348-1.1289c-6.3724-6.4117-12.571-8.1516-17.115-9.041 7.2606-2.7578 14.51-2.9857 21.834-1.6797l1.0977 0.19532-0.16602-1.1016c-0.3152-2.0912-0.69855-3.8257-0.74804-5.6211 6.3174 3.3421 10.719 9.3691 13.096 13.594l1.3945-0.78516c-2.6173-4.6517-7.4943-11.602-15.02-14.986l-0.99414-0.44727z" color="#000000" color-rendering="auto" image-rendering="auto" solid-color="#000000" style="block-progression:tb;isolation:auto;mix-blend-mode:normal;text-decoration-color:#000000;text-decoration-line:none;text-decoration-style:solid;text-indent:0;text-transform:none;white-space:normal"/>
   <path transform="translate(1.2893e-8 51.66)" d="m-282.83 462.48c-0.51491 0.0564-0.94228 0.41785-1.1816 0.81836-0.38298 0.64081-0.0155 1.6976 0.79817 2.4368 0.14331-0.56923 0.25515-1.6327 0.39648-1.8691 0.18931-0.64422 0.98746-0.52216 1.4199-1.0391-0.34961-0.24293-1.124-0.38083-1.4329-0.34701zm-11.621 2.921c-0.22933 4e-3 -0.44793 0.029-0.65625 0.0762-0.83331 0.18893-1.4236 0.69641-1.8457 1.166-0.42212 0.4696-0.73185 0.9168-0.93554 1.0996-0.10185 0.0914-0.15353 0.10875-0.16602 0.11133-3e-4 6e-5 -4e-3 -8e-5 -4e-3 0-7e-3 -0.0498-0.0119-0.0734-0.0195-0.16211-0.0131-0.15194 0.0108-0.35704-0.0918-0.58398-0.27945-0.61807-0.75124-0.7117-1.1676-0.62115-0.46708 0.1016-0.98534 0.47209-1.5194 0.67484-1.2092 0.4591-0.78554-0.51383-1.1347-0.94345-0.37768 0.9968-0.17699 1.4197 0.1947 1.729 0.99684 0.35541 2.2848-0.99429 2.6245-0.41345 0.0784 0.13401-0.20996 0.67465-0.17671 0.92608 0.0435 0.32855 0.14195 0.52783 0.48203 0.69517 0.35149 0.17296 0.75362 0.24249 1.1152 0.16797 0.36161-0.0745 0.64462-0.2649 0.86523-0.46289 0.44121-0.396 0.70127-1.1066 1.0257-1.4675 0.32441-0.36089 0.63662-0.61046 1.0625-0.70703 0.21517-0.0488 1.1182-0.0769 1.0524 0.46754-0.0521 0.43089-0.575 0.60545-0.98504 0.86821-0.45299 0.29028-0.78858 0.54722-1.0117 1.1289-0.26556 0.69227-0.16433 1.2348 0.68621 1.7275-0.2702-0.68302-0.31258-1.3926 0.28485-1.8105 1.3198-1.1343 4.2085-1.5048 2.3849-3.0779-0.59557-0.28818-0.84097-0.44626-1.3436-0.53153-0.2513-0.0427-0.49137-0.0604-0.7207-0.0566zm7.8715 0.9201c-0.47211 8e-3 -1.0139 0.30073-1.1562 0.70117-0.60805 1.7104 2.8262 4.9394 2.8262 4.9394s0.35613-4.6793-1.2383-5.5469c-0.12445-0.0677-0.27428-0.0963-0.43164-0.0937zm5.2637 0.61523c-0.25067-0.0213-0.53396 0.0554-0.73633 0.24219-1.2966 1.1967-0.86133 4.873-0.86133 4.873s2.6193-3.4166 2.1406-4.7637c-0.0747-0.21029-0.29231-0.33028-0.54297-0.35157zm3.7129 2.3965c-0.0681-2e-3 -0.13516 6e-3 -0.20117 0.0254-1.0209 0.30226-1.9824 2.2988-1.9824 2.2988s2.4195-0.46778 2.9551-1.459c0.18566-0.3436-0.29493-0.84927-0.77148-0.86524zm-12.248 0.0508c-0.39781 0.0455-0.74883 0.32642-0.72265 0.66016 0.11178 1.4252 3.8125 3.2031 3.8125 3.2031s-1.0178-3.2597-2.6895-3.8242c-0.13046-0.044-0.26779-0.0542-0.40039-0.0391zm-1.6348 3.3164c-0.55011 0.0263-0.97227 0.81044-0.64258 1.1113 0.8322 0.75947 3.2715 0.40625 3.2715 0.40625s-1.5654-1.5685-2.6289-1.5176z" color="#000000" color-rendering="auto" image-rendering="auto" solid-color="#000000" style="block-progression:tb;isolation:auto;mix-blend-mode:normal;text-decoration-color:#000000;text-decoration-line:none;text-decoration-style:solid;text-indent:0;text-transform:none;white-space:normal"/>
  </g>
  <g transform="matrix(-.94128 -1.6303 1.6303 -.94128 -864.97 852.01)" fill-rule="evenodd">
   <path d="m-293.1 529.43c-9.566-7.6864-17.779-8.0842-25.631-8.0508 6.4079-5.2056 14.834-9.8483 28.635-8.3926l0.95117 0.0996 0.043-0.95312c0.10314-2.2712 0.17009-4.4912 0.56641-6.166 11.936 4.9826 17.233 12.353 19.385 18.625l1.7031-0.58398c-2.3703-6.9097-8.2504-15.07-21.412-20.215l-0.82617-0.32422-3e-5 4e-5 -0.33594 0.82227c-0.81909 2.0128-0.78392 4.5107-0.84766 6.8574-15.134-1.3017-24.426 4.6173-31.059 10.439l-1.8144 1.5938 2.4141-0.0176c8.3685-0.0573 16.27-0.508 25.969 6.7886z" color="#000000" color-rendering="auto" image-rendering="auto" solid-color="#000000" style="block-progression:tb;isolation:auto;mix-blend-mode:normal;text-decoration-color:#000000;text-decoration-line:none;text-decoration-style:solid;text-indent:0;text-transform:none;white-space:normal"/>
   <path d="m-287.14 508.06-0.12891 1.082c-0.27508 2.3382 0.23686 4.3109 0.625 6.3613-8.0604-1.2818-16.201-0.9182-24.316 2.9121l-2.248 1.0606 2.4453 0.44921c4.6105 0.84752 11.649 1.6308 19.109 9.1367l1.1348-1.1289c-6.3724-6.4117-12.571-8.1516-17.115-9.041 7.2606-2.7578 14.51-2.9857 21.834-1.6797l1.0977 0.19532-0.16602-1.1016c-0.3152-2.0912-0.69855-3.8257-0.74804-5.6211 6.3174 3.3421 10.719 9.3691 13.096 13.594l1.3945-0.78516c-2.6173-4.6517-7.4943-11.602-15.02-14.986l-0.99414-0.44727z" color="#000000" color-rendering="auto" image-rendering="auto" solid-color="#000000" style="block-progression:tb;isolation:auto;mix-blend-mode:normal;text-decoration-color:#000000;text-decoration-line:none;text-decoration-style:solid;text-indent:0;text-transform:none;white-space:normal"/>
   <path transform="translate(1.2893e-8 51.66)" d="m-282.83 462.48c-0.51491 0.0564-0.94228 0.41785-1.1816 0.81836-0.38298 0.64081-0.0155 1.6976 0.79817 2.4368 0.14331-0.56923 0.25515-1.6327 0.39648-1.8691 0.18931-0.64422 0.98746-0.52216 1.4199-1.0391-0.34961-0.24293-1.124-0.38083-1.4329-0.34701zm-11.621 2.921c-0.22933 4e-3 -0.44793 0.029-0.65625 0.0762-0.83331 0.18893-1.4236 0.69641-1.8457 1.166-0.42212 0.4696-0.73185 0.9168-0.93554 1.0996-0.10185 0.0914-0.15353 0.10875-0.16602 0.11133-3e-4 6e-5 -4e-3 -8e-5 -4e-3 0-7e-3 -0.0498-0.0119-0.0734-0.0195-0.16211-0.0131-0.15194 0.0108-0.35704-0.0918-0.58398-0.27945-0.61807-0.75124-0.7117-1.1676-0.62115-0.46708 0.1016-0.98534 0.47209-1.5194 0.67484-1.2092 0.4591-0.78554-0.51383-1.1347-0.94345-0.37768 0.9968-0.17699 1.4197 0.1947 1.729 0.99684 0.35541 2.2848-0.99429 2.6245-0.41345 0.0784 0.13401-0.20996 0.67465-0.17671 0.92608 0.0435 0.32855 0.14195 0.52783 0.48203 0.69517 0.35149 0.17296 0.75362 0.24249 1.1152 0.16797 0.36161-0.0745 0.64462-0.2649 0.86523-0.46289 0.44121-0.396 0.70127-1.1066 1.0257-1.4675 0.32441-0.36089 0.63662-0.61046 1.0625-0.70703 0.21517-0.0488 1.1182-0.0769 1.0524 0.46754-0.0521 0.43089-0.575 0.60545-0.98504 0.86821-0.45299 0.29028-0.78858 0.54722-1.0117 1.1289-0.26556 0.69227-0.16433 1.2348 0.68621 1.7275-0.2702-0.68302-0.31258-1.3926 0.28485-1.8105 1.3198-1.1343 4.2085-1.5048 2.3849-3.0779-0.59557-0.28818-0.84097-0.44626-1.3436-0.53153-0.2513-0.0427-0.49137-0.0604-0.7207-0.0566zm7.8715 0.9201c-0.47211 8e-3 -1.0139 0.30073-1.1562 0.70117-0.60805 1.7104 2.8262 4.9394 2.8262 4.9394s0.35613-4.6793-1.2383-5.5469c-0.12445-0.0677-0.27428-0.0963-0.43164-0.0937zm5.2637 0.61523c-0.25067-0.0213-0.53396 0.0554-0.73633 0.24219-1.2966 1.1967-0.86133 4.873-0.86133 4.873s2.6193-3.4166 2.1406-4.7637c-0.0747-0.21029-0.29231-0.33028-0.54297-0.35157zm3.7129 2.3965c-0.0681-2e-3 -0.13516 6e-3 -0.20117 0.0254-1.0209 0.30226-1.9824 2.2988-1.9824 2.2988s2.4195-0.46778 2.9551-1.459c0.18566-0.3436-0.29493-0.84927-0.77148-0.86524zm-12.248 0.0508c-0.39781 0.0455-0.74883 0.32642-0.72265 0.66016 0.11178 1.4252 3.8125 3.2031 3.8125 3.2031s-1.0178-3.2597-2.6895-3.8242c-0.13046-0.044-0.26779-0.0542-0.40039-0.0391zm-1.6348 3.3164c-0.55011 0.0263-0.97227 0.81044-0.64258 1.1113 0.8322 0.75947 3.2715 0.40625 3.2715 0.40625s-1.5654-1.5685-2.6289-1.5176z" color="#000000" color-rendering="auto" image-rendering="auto" solid-color="#000000" style="block-progression:tb;isolation:auto;mix-blend-mode:normal;text-decoration-color:#000000;text-decoration-line:none;text-decoration-style:solid;text-indent:0;text-transform:none;white-space:normal"/>
  </g>
  <g transform="matrix(-1.769 -.64387 .64387 -1.769 -520.31 1595.9)" fill-rule="evenodd">
   <path d="m-293.77 528.9c-9.2809-7.1773-17.294-7.5559-24.962-7.5233 6.4079-5.2056 14.834-9.8483 28.635-8.3926l0.95117 0.0996 0.043-0.95312c0.10314-2.2712 0.17009-4.4912 0.56641-6.166 11.342 4.7345 16.689 11.624 19.039 17.68l2.0484 0.36092c-2.3703-6.9097-8.2504-15.07-21.412-20.215l-0.82617-0.32422-3e-5 4e-5 -0.33594 0.82227c-0.81909 2.0128-0.78392 4.5107-0.84766 6.8574-15.134-1.3017-24.426 4.6173-31.059 10.439l-1.8144 1.5938 2.4141-0.0176c8.3503-0.0572 16.235-0.50604 25.906 6.7412z" color="#000000" color-rendering="auto" image-rendering="auto" solid-color="#000000" style="block-progression:tb;isolation:auto;mix-blend-mode:normal;text-decoration-color:#000000;text-decoration-line:none;text-decoration-style:solid;text-indent:0;text-transform:none;white-space:normal"/>
   <path d="m-290.52 527.94c-6.3724-6.4117-12.571-8.1516-17.115-9.041 7.2606-2.7578 14.51-2.9857 21.834-1.6797l1.0977 0.19532-0.16602-1.1016c-0.3152-2.0912-0.69855-3.8257-0.74804-5.6211 6.3174 3.3421 10.719 9.3691 13.096 13.594l1.3945-0.78516c-2.6173-4.6517-7.4943-11.602-15.02-14.986l-0.99414-0.44727-0.12891 1.082c-0.27508 2.3382 0.23686 4.3109 0.625 6.3613-8.0604-1.2818-16.201-0.9182-24.316 2.9121l-2.248 1.0606 2.4453 0.44921c4.4248 0.81338 11.086 1.5676 18.21 8.2618z" color="#000000" color-rendering="auto" image-rendering="auto" solid-color="#000000" style="block-progression:tb;isolation:auto;mix-blend-mode:normal;text-decoration-color:#000000;text-decoration-line:none;text-decoration-style:solid;text-indent:0;text-transform:none;white-space:normal"/>
   <path transform="translate(1.2893e-8 51.66)" d="m-282.83 462.48c-0.51491 0.0564-0.94228 0.41785-1.1816 0.81836-0.38298 0.64081-0.0155 1.6976 0.79817 2.4368 0.14331-0.56923 0.25515-1.6327 0.39648-1.8691 0.18931-0.64422 0.98746-0.52216 1.4199-1.0391-0.34961-0.24293-1.124-0.38083-1.4329-0.34701zm-11.621 2.921c-0.22933 4e-3 -0.44793 0.029-0.65625 0.0762-0.83331 0.18893-1.4236 0.69641-1.8457 1.166-0.42212 0.4696-0.73185 0.9168-0.93554 1.0996-0.10185 0.0914-0.15353 0.10875-0.16602 0.11133-3e-4 6e-5 -4e-3 -8e-5 -4e-3 0-7e-3 -0.0498-0.0119-0.0734-0.0195-0.16211-0.0131-0.15194 0.0108-0.35704-0.0918-0.58398-0.27945-0.61807-0.75124-0.7117-1.1676-0.62115-0.46708 0.1016-0.98534 0.47209-1.5194 0.67484-1.2092 0.4591-0.78554-0.51383-1.1347-0.94345-0.37768 0.9968-0.17699 1.4197 0.1947 1.729 0.99684 0.35541 2.2848-0.99429 2.6245-0.41345 0.0784 0.13401-0.20996 0.67465-0.17671 0.92608 0.0435 0.32855 0.14195 0.52783 0.48203 0.69517 0.35149 0.17296 0.75362 0.24249 1.1152 0.16797 0.36161-0.0745 0.64462-0.2649 0.86523-0.46289 0.44121-0.396 0.70127-1.1066 1.0257-1.4675 0.32441-0.36089 0.63662-0.61046 1.0625-0.70703 0.21517-0.0488 1.1182-0.0769 1.0524 0.46754-0.0521 0.43089-0.575 0.60545-0.98504 0.86821-0.45299 0.29028-0.78858 0.54722-1.0117 1.1289-0.26556 0.69227-0.16433 1.2348 0.68621 1.7275-0.2702-0.68302-0.31258-1.3926 0.28485-1.8105 1.3198-1.1343 4.2085-1.5048 2.3849-3.0779-0.59557-0.28818-0.84097-0.44626-1.3436-0.53153-0.2513-0.0427-0.49137-0.0604-0.7207-0.0566zm7.8715 0.9201c-0.47211 8e-3 -1.0139 0.30073-1.1562 0.70117-0.60805 1.7104 2.8262 4.9394 2.8262 4.9394s0.35613-4.6793-1.2383-5.5469c-0.12445-0.0677-0.27428-0.0963-0.43164-0.0937zm5.2637 0.61523c-0.25067-0.0213-0.53396 0.0554-0.73633 0.24219-1.2966 1.1967-0.86133 4.873-0.86133 4.873s2.6193-3.4166 2.1406-4.7637c-0.0747-0.21029-0.29231-0.33028-0.54297-0.35157zm3.7129 2.3965c-0.0681-2e-3 -0.13516 6e-3 -0.20117 0.0254-1.0209 0.30226-1.9824 2.2988-1.9824 2.2988s2.4195-0.46778 2.9551-1.459c0.18566-0.3436-0.29493-0.84927-0.77148-0.86524zm-12.248 0.0508c-0.39781 0.0455-0.74883 0.32642-0.72265 0.66016 0.11178 1.4252 3.8125 3.2031 3.8125 3.2031s-1.0178-3.2597-2.6895-3.8242c-0.13046-0.044-0.26779-0.0542-0.40039-0.0391zm-1.6348 3.3164c-0.55011 0.0263-0.97227 0.81044-0.64258 1.1113 0.8322 0.75947 3.2715 0.40625 3.2715 0.40625s-1.5654-1.5685-2.6289-1.5176z" color="#000000" color-rendering="auto" image-rendering="auto" solid-color="#000000" style="block-progression:tb;isolation:auto;mix-blend-mode:normal;text-decoration-color:#000000;text-decoration-line:none;text-decoration-style:solid;text-indent:0;text-transform:none;white-space:normal"/>
  </g>
  <g transform="matrix(-1.769 .64387 -.64387 -1.769 221.26 1944.5)" fill-rule="evenodd">
   <path d="m-267.45 524c-2.3703-6.9097-8.2504-15.07-21.412-20.215l-0.82617-0.32422-3e-5 4e-5 -0.33594 0.82227c-0.81909 2.0128-0.78392 4.5107-0.84766 6.8574-15.134-1.3017-24.426 4.6173-31.059 10.439l-1.8144 1.5938 2.4141-0.0176c8.3696-0.0573 16.272-0.50813 25.973 6.7917l1.4073-1.1916c-9.2048-7.0442-17.164-7.4177-24.782-7.3853 6.4079-5.2056 14.834-9.8483 28.635-8.3926l0.95117 0.0996 0.043-0.95312c0.10314-2.2712 0.17009-4.4912 0.56641-6.166 11.288 4.7119 16.638 11.559 19.006 17.594z" color="#000000" color-rendering="auto" image-rendering="auto" solid-color="#000000" style="block-progression:tb;isolation:auto;mix-blend-mode:normal;text-decoration-color:#000000;text-decoration-line:none;text-decoration-style:solid;text-indent:0;text-transform:none;white-space:normal"/>
   <path d="m-271.13 523.5c-2.6173-4.6517-7.4943-11.602-15.02-14.986l-0.99414-0.44727-0.12891 1.082c-0.27508 2.3382 0.23686 4.3109 0.625 6.3613-8.0604-1.2818-16.201-0.9182-24.316 2.9121l-2.248 1.0606 2.4453 0.44921c4.4375 0.81572 11.125 1.5719 18.272 8.3198l1.9726-0.31203c-6.3724-6.4117-12.571-8.1516-17.115-9.041 7.2606-2.7578 14.51-2.9857 21.834-1.6797l1.0977 0.19532-0.16602-1.1016c-0.3152-2.0912-0.69855-3.8257-0.74804-5.6211 5.8645 3.1024 10.078 8.5187 12.553 12.659z" color="#000000" color-rendering="auto" image-rendering="auto" solid-color="#000000" style="block-progression:tb;isolation:auto;mix-blend-mode:normal;text-decoration-color:#000000;text-decoration-line:none;text-decoration-style:solid;text-indent:0;text-transform:none;white-space:normal"/>
   <path transform="translate(1.2893e-8 51.66)" d="m-282.83 462.48c-0.51491 0.0564-0.94228 0.41785-1.1816 0.81836-0.38298 0.64081-0.0155 1.6976 0.79817 2.4368 0.14331-0.56923 0.25515-1.6327 0.39648-1.8691 0.18931-0.64422 0.98746-0.52216 1.4199-1.0391-0.34961-0.24293-1.124-0.38083-1.4329-0.34701zm-11.621 2.921c-0.22933 4e-3 -0.44793 0.029-0.65625 0.0762-0.83331 0.18893-1.4236 0.69641-1.8457 1.166-0.42212 0.4696-0.73185 0.9168-0.93554 1.0996-0.10185 0.0914-0.15353 0.10875-0.16602 0.11133-3e-4 6e-5 -4e-3 -8e-5 -4e-3 0-7e-3 -0.0498-0.0119-0.0734-0.0195-0.16211-0.0131-0.15194 0.0108-0.35704-0.0918-0.58398-0.27945-0.61807-0.75124-0.7117-1.1676-0.62115-0.46708 0.1016-0.98534 0.47209-1.5194 0.67484-1.2092 0.4591-0.78554-0.51383-1.1347-0.94345-0.37768 0.9968-0.17699 1.4197 0.1947 1.729 0.99684 0.35541 2.2848-0.99429 2.6245-0.41345 0.0784 0.13401-0.20996 0.67465-0.17671 0.92608 0.0435 0.32855 0.14195 0.52783 0.48203 0.69517 0.35149 0.17296 0.75362 0.24249 1.1152 0.16797 0.36161-0.0745 0.64462-0.2649 0.86523-0.46289 0.44121-0.396 0.70127-1.1066 1.0257-1.4675 0.32441-0.36089 0.63662-0.61046 1.0625-0.70703 0.21517-0.0488 1.1182-0.0769 1.0524 0.46754-0.0521 0.43089-0.575 0.60545-0.98504 0.86821-0.45299 0.29028-0.78858 0.54722-1.0117 1.1289-0.26556 0.69227-0.16433 1.2348 0.68621 1.7275-0.2702-0.68302-0.31258-1.3926 0.28485-1.8105 1.3198-1.1343 4.2085-1.5048 2.3849-3.0779-0.59557-0.28818-0.84097-0.44626-1.3436-0.53153-0.2513-0.0427-0.49137-0.0604-0.7207-0.0566zm7.8715 0.9201c-0.47211 8e-3 -1.0139 0.30073-1.1562 0.70117-0.60805 1.7104 2.8262 4.9394 2.8262 4.9394s0.35613-4.6793-1.2383-5.5469c-0.12445-0.0677-0.27428-0.0963-0.43164-0.0937zm5.2637 0.61523c-0.25067-0.0213-0.53396 0.0554-0.73633 0.24219-1.2966 1.1967-0.86133 4.873-0.86133 4.873s2.6193-3.4166 2.1406-4.7637c-0.0747-0.21029-0.29231-0.33028-0.54297-0.35157zm3.7129 2.3965c-0.0681-2e-3 -0.13516 6e-3 -0.20117 0.0254-1.0209 0.30226-1.9824 2.2988-1.9824 2.2988s2.4195-0.46778 2.9551-1.459c0.18566-0.3436-0.29493-0.84927-0.77148-0.86524zm-12.248 0.0508c-0.39781 0.0455-0.74883 0.32642-0.72265 0.66016 0.11178 1.4252 3.8125 3.2031 3.8125 3.2031s-1.0178-3.2597-2.6895-3.8242c-0.13046-0.044-0.26779-0.0542-0.40039-0.0391zm-1.6348 3.3164c-0.55011 0.0263-0.97227 0.81044-0.64258 1.1113 0.8322 0.75947 3.2715 0.40625 3.2715 0.40625s-1.5654-1.5685-2.6289-1.5176z" color="#000000" color-rendering="auto" image-rendering="auto" solid-color="#000000" style="block-progression:tb;isolation:auto;mix-blend-mode:normal;text-decoration-color:#000000;text-decoration-line:none;text-decoration-style:solid;text-indent:0;text-transform:none;white-space:normal"/>
  </g>
  <g transform="matrix(-.94128 1.6303 -1.6303 -.94128 1013.7 1734.2)" fill-rule="evenodd">
   <path d="m-267.45 524c-2.3703-6.9097-8.2504-15.07-21.412-20.215l-0.82617-0.32422-3e-5 4e-5 -0.33594 0.82227c-0.81909 2.0128-0.78392 4.5107-0.84766 6.8574-15.134-1.3017-24.426 4.6173-31.059 10.439l-1.8144 1.5938 2.4141-0.0176c8.4817-0.0581 16.483-0.52027 26.363 7.089l1.3205-1.2544c-9.3338-7.2705-17.384-7.6526-25.086-7.6198 6.4079-5.2056 14.834-9.8483 28.635-8.3926l0.95117 0.0996 0.043-0.95312c0.10314-2.2712 0.17009-4.4912 0.56641-6.166 11.206 4.6778 16.56 11.46 18.954 17.462z" color="#000000" color-rendering="auto" image-rendering="auto" solid-color="#000000" style="block-progression:tb;isolation:auto;mix-blend-mode:normal;text-decoration-color:#000000;text-decoration-line:none;text-decoration-style:solid;text-indent:0;text-transform:none;white-space:normal"/>
   <path d="m-290.52 527.94c-6.3724-6.4117-12.571-8.1516-17.115-9.041 7.2606-2.7578 14.51-2.9857 21.834-1.6797l1.0977 0.19532-0.16602-1.1016c-0.3152-2.0912-0.69855-3.8257-0.74804-5.6211 6.3174 3.3421 10.719 9.3691 13.096 13.594l1.3945-0.78516c-2.6173-4.6517-7.4943-11.602-15.02-14.986l-0.99414-0.44727-0.12891 1.082c-0.27508 2.3382 0.23686 4.3109 0.625 6.3613-8.0604-1.2818-16.201-0.9182-24.316 2.9121l-2.248 1.0606 2.4453 0.44921c4.4952 0.82632 11.299 1.5916 18.55 8.586z" color="#000000" color-rendering="auto" image-rendering="auto" solid-color="#000000" style="block-progression:tb;isolation:auto;mix-blend-mode:normal;text-decoration-color:#000000;text-decoration-line:none;text-decoration-style:solid;text-indent:0;text-transform:none;white-space:normal"/>
   <path transform="translate(1.2893e-8 51.66)" d="m-282.83 462.48c-0.51491 0.0564-0.94228 0.41785-1.1816 0.81836-0.38298 0.64081-0.0155 1.6976 0.79817 2.4368 0.14331-0.56923 0.25515-1.6327 0.39648-1.8691 0.18931-0.64422 0.98746-0.52216 1.4199-1.0391-0.34961-0.24293-1.124-0.38083-1.4329-0.34701zm-11.621 2.921c-0.22933 4e-3 -0.44793 0.029-0.65625 0.0762-0.83331 0.18893-1.4236 0.69641-1.8457 1.166-0.42212 0.4696-0.73185 0.9168-0.93554 1.0996-0.10185 0.0914-0.15353 0.10875-0.16602 0.11133-3e-4 6e-5 -4e-3 -8e-5 -4e-3 0-7e-3 -0.0498-0.0119-0.0734-0.0195-0.16211-0.0131-0.15194 0.0108-0.35704-0.0918-0.58398-0.27945-0.61807-0.75124-0.7117-1.1676-0.62115-0.46708 0.1016-0.98534 0.47209-1.5194 0.67484-1.2092 0.4591-0.78554-0.51383-1.1347-0.94345-0.37768 0.9968-0.17699 1.4197 0.1947 1.729 0.99684 0.35541 2.2848-0.99429 2.6245-0.41345 0.0784 0.13401-0.20996 0.67465-0.17671 0.92608 0.0435 0.32855 0.14195 0.52783 0.48203 0.69517 0.35149 0.17296 0.75362 0.24249 1.1152 0.16797 0.36161-0.0745 0.64462-0.2649 0.86523-0.46289 0.44121-0.396 0.70127-1.1066 1.0257-1.4675 0.32441-0.36089 0.63662-0.61046 1.0625-0.70703 0.21517-0.0488 1.1182-0.0769 1.0524 0.46754-0.0521 0.43089-0.575 0.60545-0.98504 0.86821-0.45299 0.29028-0.78858 0.54722-1.0117 1.1289-0.26556 0.69227-0.16433 1.2348 0.68621 1.7275-0.2702-0.68302-0.31258-1.3926 0.28485-1.8105 1.3198-1.1343 4.2085-1.5048 2.3849-3.0779-0.59557-0.28818-0.84097-0.44626-1.3436-0.53153-0.2513-0.0427-0.49137-0.0604-0.7207-0.0566zm7.8715 0.9201c-0.47211 8e-3 -1.0139 0.30073-1.1562 0.70117-0.60805 1.7104 2.8262 4.9394 2.8262 4.9394s0.35613-4.6793-1.2383-5.5469c-0.12445-0.0677-0.27428-0.0963-0.43164-0.0937zm5.2637 0.61523c-0.25067-0.0213-0.53396 0.0554-0.73633 0.24219-1.2966 1.1967-0.86133 4.873-0.86133 4.873s2.6193-3.4166 2.1406-4.7637c-0.0747-0.21029-0.29231-0.33028-0.54297-0.35157zm3.7129 2.3965c-0.0681-2e-3 -0.13516 6e-3 -0.20117 0.0254-1.0209 0.30226-1.9824 2.2988-1.9824 2.2988s2.4195-0.46778 2.9551-1.459c0.18566-0.3436-0.29493-0.84927-0.77148-0.86524zm-12.248 0.0508c-0.39781 0.0455-0.74883 0.32642-0.72265 0.66016 0.11178 1.4252 3.8125 3.2031 3.8125 3.2031s-1.0178-3.2597-2.6895-3.8242c-0.13046-0.044-0.26779-0.0542-0.40039-0.0391zm-1.6348 3.3164c-0.55011 0.0263-0.97227 0.81044-0.64258 1.1113 0.8322 0.75947 3.2715 0.40625 3.2715 0.40625s-1.5654-1.5685-2.6289-1.5176z" color="#000000" color-rendering="auto" image-rendering="auto" solid-color="#000000" style="block-progression:tb;isolation:auto;mix-blend-mode:normal;text-decoration-color:#000000;text-decoration-line:none;text-decoration-style:solid;text-indent:0;text-transform:none;white-space:normal"/>
  </g>
  <g transform="matrix(.3269 1.854 -1.854 .3269 1485.7 1063.9)" fill-rule="evenodd">
   <path d="m-289.69 503.46-0.33594 0.82227c-0.81909 2.0128-0.78392 4.5107-0.84766 6.8574-15.134-1.3017-24.426 4.6173-31.059 10.439l-1.8144 1.5938 2.4141-0.0176c8.692-0.0595 16.88-0.54343 27.102 7.6699l1.127-1.4043c-9.566-7.6864-17.779-8.0842-25.631-8.0508 6.4079-5.2056 14.834-9.8483 28.635-8.3926l0.95117 0.0996 0.043-0.95312c0.10314-2.2712 0.17009-4.4912 0.56641-6.166 11.936 4.9826 17.233 12.353 19.385 18.625l1.7031-0.58398c-2.3703-6.9097-8.2504-15.07-21.412-20.215l-0.82617-0.32422z" color="#000000" color-rendering="auto" image-rendering="auto" solid-color="#000000" style="block-progression:tb;isolation:auto;mix-blend-mode:normal;text-decoration-color:#000000;text-decoration-line:none;text-decoration-style:solid;text-indent:0;text-transform:none;white-space:normal"/>
   <path d="m-287.14 508.06-0.12891 1.082c-0.27508 2.3382 0.23686 4.3109 0.625 6.3613-8.0604-1.2818-16.201-0.9182-24.316 2.9121l-2.248 1.0606 2.4453 0.44921c4.6105 0.84752 11.649 1.6308 19.109 9.1367l1.1348-1.1289c-6.3724-6.4117-12.571-8.1516-17.115-9.041 7.2606-2.7578 14.51-2.9857 21.834-1.6797l1.0977 0.19532-0.16602-1.1016c-0.3152-2.0912-0.69855-3.8257-0.74804-5.6211 6.3174 3.3421 10.719 9.3691 13.096 13.594l1.3945-0.78516c-2.6173-4.6517-7.4943-11.602-15.02-14.986l-0.99414-0.44727z" color="#000000" color-rendering="auto" image-rendering="auto" solid-color="#000000" style="block-progression:tb;isolation:auto;mix-blend-mode:normal;text-decoration-color:#000000;text-decoration-line:none;text-decoration-style:solid;text-indent:0;text-transform:none;white-space:normal"/>
   <path transform="translate(1.2893e-8 51.66)" d="m-282.83 462.48c-0.51491 0.0564-0.94228 0.41785-1.1816 0.81836-0.38298 0.64081-0.0155 1.6976 0.79817 2.4368 0.14331-0.56923 0.25515-1.6327 0.39648-1.8691 0.18931-0.64422 0.98746-0.52216 1.4199-1.0391-0.34961-0.24293-1.124-0.38083-1.4329-0.34701zm-11.621 2.921c-0.22933 4e-3 -0.44793 0.029-0.65625 0.0762-0.83331 0.18893-1.4236 0.69641-1.8457 1.166-0.42212 0.4696-0.73185 0.9168-0.93554 1.0996-0.10185 0.0914-0.15353 0.10875-0.16602 0.11133-3e-4 6e-5 -4e-3 -8e-5 -4e-3 0-7e-3 -0.0498-0.0119-0.0734-0.0195-0.16211-0.0131-0.15194 0.0108-0.35704-0.0918-0.58398-0.27945-0.61807-0.75124-0.7117-1.1676-0.62115-0.46708 0.1016-0.98534 0.47209-1.5194 0.67484-1.2092 0.4591-0.78554-0.51383-1.1347-0.94345-0.37768 0.9968-0.17699 1.4197 0.1947 1.729 0.99684 0.35541 2.2848-0.99429 2.6245-0.41345 0.0784 0.13401-0.20996 0.67465-0.17671 0.92608 0.0435 0.32855 0.14195 0.52783 0.48203 0.69517 0.35149 0.17296 0.75362 0.24249 1.1152 0.16797 0.36161-0.0745 0.64462-0.2649 0.86523-0.46289 0.44121-0.396 0.70127-1.1066 1.0257-1.4675 0.32441-0.36089 0.63662-0.61046 1.0625-0.70703 0.21517-0.0488 1.1182-0.0769 1.0524 0.46754-0.0521 0.43089-0.575 0.60545-0.98504 0.86821-0.45299 0.29028-0.78858 0.54722-1.0117 1.1289-0.26556 0.69227-0.16433 1.2348 0.68621 1.7275-0.2702-0.68302-0.31258-1.3926 0.28485-1.8105 1.3198-1.1343 4.2085-1.5048 2.3849-3.0779-0.59557-0.28818-0.84097-0.44626-1.3436-0.53153-0.2513-0.0427-0.49137-0.0604-0.7207-0.0566zm7.8715 0.9201c-0.47211 8e-3 -1.0139 0.30073-1.1562 0.70117-0.60805 1.7104 2.8262 4.9394 2.8262 4.9394s0.35613-4.6793-1.2383-5.5469c-0.12445-0.0677-0.27428-0.0963-0.43164-0.0937zm5.2637 0.61523c-0.25067-0.0213-0.53396 0.0554-0.73633 0.24219-1.2966 1.1967-0.86133 4.873-0.86133 4.873s2.6193-3.4166 2.1406-4.7637c-0.0747-0.21029-0.29231-0.33028-0.54297-0.35157zm3.7129 2.3965c-0.0681-2e-3 -0.13516 6e-3 -0.20117 0.0254-1.0209 0.30226-1.9824 2.2988-1.9824 2.2988s2.4195-0.46778 2.9551-1.459c0.18566-0.3436-0.29493-0.84927-0.77148-0.86524zm-12.248 0.0508c-0.39781 0.0455-0.74883 0.32642-0.72265 0.66016 0.11178 1.4252 3.8125 3.2031 3.8125 3.2031s-1.0178-3.2597-2.6895-3.8242c-0.13046-0.044-0.26779-0.0542-0.40039-0.0391zm-1.6348 3.3164c-0.55011 0.0263-0.97227 0.81044-0.64258 1.1113 0.8322 0.75947 3.2715 0.40625 3.2715 0.40625s-1.5654-1.5685-2.6289-1.5176z" color="#000000" color-rendering="auto" image-rendering="auto" solid-color="#000000" style="block-progression:tb;isolation:auto;mix-blend-mode:normal;text-decoration-color:#000000;text-decoration-line:none;text-decoration-style:solid;text-indent:0;text-transform:none;white-space:normal"/>
  </g>
  <g transform="matrix(1.4421 1.2101 -1.2101 1.4421 1416.2 246.98)" fill-rule="evenodd">
   <path d="m-289.69 503.46-0.33594 0.82227c-0.81909 2.0128-0.78392 4.5107-0.84766 6.8574-15.134-1.3017-24.426 4.6173-31.059 10.439l-1.8144 1.5938 2.4141-0.0176c8.692-0.0595 16.88-0.54343 27.102 7.6699l1.127-1.4043c-9.566-7.6864-17.779-8.0842-25.631-8.0508 6.4079-5.2056 14.834-9.8483 28.635-8.3926l0.95117 0.0996 0.043-0.95312c0.10314-2.2712 0.17009-4.4912 0.56641-6.166 11.936 4.9826 17.233 12.353 19.385 18.625l1.7031-0.58398c-2.3703-6.9097-8.2504-15.07-21.412-20.215l-0.82617-0.32422z" color="#000000" color-rendering="auto" image-rendering="auto" solid-color="#000000" style="block-progression:tb;isolation:auto;mix-blend-mode:normal;text-decoration-color:#000000;text-decoration-line:none;text-decoration-style:solid;text-indent:0;text-transform:none;white-space:normal"/>
   <path d="m-287.14 508.06-0.12891 1.082c-0.27508 2.3382 0.23686 4.3109 0.625 6.3613-8.0604-1.2818-16.201-0.9182-24.316 2.9121l-2.248 1.0606 2.4453 0.44921c4.6105 0.84752 11.649 1.6308 19.109 9.1367l1.1348-1.1289c-6.3724-6.4117-12.571-8.1516-17.115-9.041 7.2606-2.7578 14.51-2.9857 21.834-1.6797l1.0977 0.19532-0.16602-1.1016c-0.3152-2.0912-0.69855-3.8257-0.74804-5.6211 6.3174 3.3421 10.719 9.3691 13.096 13.594l1.3945-0.78516c-2.6173-4.6517-7.4943-11.602-15.02-14.986l-0.99414-0.44727z" color="#000000" color-rendering="auto" image-rendering="auto" solid-color="#000000" style="block-progression:tb;isolation:auto;mix-blend-mode:normal;text-decoration-color:#000000;text-decoration-line:none;text-decoration-style:solid;text-indent:0;text-transform:none;white-space:normal"/>
   <path transform="translate(1.2893e-8 51.66)" d="m-282.83 462.48c-0.51491 0.0564-0.94228 0.41785-1.1816 0.81836-0.38298 0.64081-0.0155 1.6976 0.79817 2.4368 0.14331-0.56923 0.25515-1.6327 0.39648-1.8691 0.18931-0.64422 0.98746-0.52216 1.4199-1.0391-0.34961-0.24293-1.124-0.38083-1.4329-0.34701zm-11.621 2.921c-0.22933 4e-3 -0.44793 0.029-0.65625 0.0762-0.83331 0.18893-1.4236 0.69641-1.8457 1.166-0.42212 0.4696-0.73185 0.9168-0.93554 1.0996-0.10185 0.0914-0.15353 0.10875-0.16602 0.11133-3e-4 6e-5 -4e-3 -8e-5 -4e-3 0-7e-3 -0.0498-0.0119-0.0734-0.0195-0.16211-0.0131-0.15194 0.0108-0.35704-0.0918-0.58398-0.27945-0.61807-0.75124-0.7117-1.1676-0.62115-0.46708 0.1016-0.98534 0.47209-1.5194 0.67484-1.2092 0.4591-0.78554-0.51383-1.1347-0.94345-0.37768 0.9968-0.17699 1.4197 0.1947 1.729 0.99684 0.35541 2.2848-0.99429 2.6245-0.41345 0.0784 0.13401-0.20996 0.67465-0.17671 0.92608 0.0435 0.32855 0.14195 0.52783 0.48203 0.69517 0.35149 0.17296 0.75362 0.24249 1.1152 0.16797 0.36161-0.0745 0.64462-0.2649 0.86523-0.46289 0.44121-0.396 0.70127-1.1066 1.0257-1.4675 0.32441-0.36089 0.63662-0.61046 1.0625-0.70703 0.21517-0.0488 1.1182-0.0769 1.0524 0.46754-0.0521 0.43089-0.575 0.60545-0.98504 0.86821-0.45299 0.29028-0.78858 0.54722-1.0117 1.1289-0.26556 0.69227-0.16433 1.2348 0.68621 1.7275-0.2702-0.68302-0.31258-1.3926 0.28485-1.8105 1.3198-1.1343 4.2085-1.5048 2.3849-3.0779-0.59557-0.28818-0.84097-0.44626-1.3436-0.53153-0.2513-0.0427-0.49137-0.0604-0.7207-0.0566zm7.8715 0.9201c-0.47211 8e-3 -1.0139 0.30073-1.1562 0.70117-0.60805 1.7104 2.8262 4.9394 2.8262 4.9394s0.35613-4.6793-1.2383-5.5469c-0.12445-0.0677-0.27428-0.0963-0.43164-0.0937zm5.2637 0.61523c-0.25067-0.0213-0.53396 0.0554-0.73633 0.24219-1.2966 1.1967-0.86133 4.873-0.86133 4.873s2.6193-3.4166 2.1406-4.7637c-0.0747-0.21029-0.29231-0.33028-0.54297-0.35157zm3.7129 2.3965c-0.0681-2e-3 -0.13516 6e-3 -0.20117 0.0254-1.0209 0.30226-1.9824 2.2988-1.9824 2.2988s2.4195-0.46778 2.9551-1.459c0.18566-0.3436-0.29493-0.84927-0.77148-0.86524zm-12.248 0.0508c-0.39781 0.0455-0.74883 0.32642-0.72265 0.66016 0.11178 1.4252 3.8125 3.2031 3.8125 3.2031s-1.0178-3.2597-2.6895-3.8242c-0.13046-0.044-0.26779-0.0542-0.40039-0.0391zm-1.6348 3.3164c-0.55011 0.0263-0.97227 0.81044-0.64258 1.1113 0.8322 0.75947 3.2715 0.40625 3.2715 0.40625s-1.5654-1.5685-2.6289-1.5176z" color="#000000" color-rendering="auto" image-rendering="auto" solid-color="#000000" style="block-progression:tb;isolation:auto;mix-blend-mode:normal;text-decoration-color:#000000;text-decoration-line:none;text-decoration-style:solid;text-indent:0;text-transform:none;white-space:normal"/>
  </g>
  <g fill-rule="evenodd">
   <path d="m293.64 614.54-0.63243 1.548c-1.542 3.7892-1.4758 8.4917-1.5958 12.91-28.49-2.4505-45.984 8.6924-58.47 19.653l-3.4158 3.0003 4.5446-0.0331c16.363-0.11201 31.777-1.023 51.02 14.439l2.1216-2.6437c-18.009-14.47-33.47-15.219-48.252-15.156 12.063-9.8 27.927-18.54 53.907-15.8l1.7906 0.18751 0.0809-1.7943c0.19417-4.2757 0.32021-8.4549 1.0663-11.608 22.471 9.3801 32.442 23.255 36.493 35.063l3.2062-1.0994c-4.4623-13.008-15.532-28.369-40.31-38.056l-1.5553-0.61036z" color="#000000" color-rendering="auto" image-rendering="auto" solid-color="#000000" style="block-progression:tb;isolation:auto;mix-blend-mode:normal;text-decoration-color:#000000;text-decoration-line:none;text-decoration-style:solid;text-indent:0;text-transform:none;white-space:normal"/>
   <path d="m298.43 623.2-0.24268 2.037c-0.51786 4.4019 0.4459 8.1156 1.1766 11.976-15.174-2.4131-30.499-1.7286-45.777 5.4822l-4.2321 1.9966 4.6035 0.84567c8.6796 1.5955 21.931 3.07 35.975 17.2l2.1363-2.1252c-11.996-12.07-23.666-15.346-32.221-17.02 13.669-5.1917 27.317-5.6208 41.104-3.1621l2.0664 0.3677-0.31254-2.0738c-0.59339-3.9367-1.3151-7.2022-1.4082-10.582 11.893 6.2917 20.179 17.638 24.653 25.591l2.6253-1.4781c-4.9272-8.7571-14.109-21.842-28.275-28.213l-1.8715-0.84201z" color="#000000" color-rendering="auto" image-rendering="auto" solid-color="#000000" style="block-progression:tb;isolation:auto;mix-blend-mode:normal;text-decoration-color:#000000;text-decoration-line:none;text-decoration-style:solid;text-indent:0;text-transform:none;white-space:normal"/>
   <path d="m306.55 634.63c-0.96935 0.10618-1.7739 0.78663-2.2245 1.5406-0.72098 1.2064-0.0292 3.1957 1.5026 4.5875 0.26979-1.0716 0.48033-3.0736 0.7464-3.5188 0.35638-1.2128 1.859-0.983 2.6731-1.9561-0.65817-0.45733-2.116-0.71694-2.6976-0.65327zm-21.878 5.4991c-0.43173 8e-3 -0.84326 0.0546-1.2354 0.14346-1.5688 0.35567-2.68 1.311-3.4747 2.1951-0.79467 0.88405-1.3778 1.7259-1.7612 2.0701-0.19173 0.17207-0.28903 0.20473-0.31254 0.20958-5.6e-4 1.2e-4 -8e-3 -1.5e-4 -8e-3 0-0.0132-0.0937-0.0224-0.13818-0.0367-0.30518-0.0247-0.28603 0.0203-0.67215-0.17282-1.0994-0.52608-1.1636-1.4143-1.3398-2.198-1.1694-0.87931 0.19127-1.855 0.88874-2.8603 1.2704-2.2764 0.86428-1.4788-0.96732-2.1361-1.7761-0.71101 1.8765-0.3332 2.6727 0.36653 3.2549 1.8766 0.66908 4.3012-1.8718 4.9407-0.77835 0.14759 0.25228-0.39527 1.2701-0.33267 1.7434 0.0819 0.61851 0.26723 0.99367 0.90745 1.3087 0.6617 0.32561 1.4187 0.4565 2.0995 0.31621 0.68075-0.14025 1.2135-0.49869 1.6288-0.87142 0.83061-0.74549 1.3202-2.0833 1.9309-2.7627 0.61072-0.6794 1.1985-1.1492 2.0002-1.331 0.40507-0.0919 2.1051-0.14477 1.9813 0.88017-0.0981 0.81118-1.0825 1.1398-1.8544 1.6345-0.85279 0.54647-1.4846 1.0302-1.9046 2.1252-0.49993 1.3032-0.30936 2.3246 1.2918 3.2521-0.50867-1.2858-0.58845-2.6218 0.53625-3.4084 2.4846-2.1354 7.9228-2.833 4.4897-5.7943-1.1212-0.54252-1.5832-0.84011-2.5294-1.0006-0.47309-0.0804-0.92503-0.11371-1.3568-0.10655zm14.819 1.7322c-0.88878 0.0151-1.9087 0.56614-2.1767 1.32-1.1447 3.2199 5.3204 9.2988 5.3204 9.2988s0.67044-8.8092-2.3311-10.442c-0.23428-0.12745-0.51635-0.18129-0.81259-0.1764zm9.9092 1.1582c-0.4719-0.0401-1.0052 0.10429-1.3862 0.45594-2.4409 2.2529-1.6215 9.1738-1.6215 9.1738s4.931-6.4319 4.0299-8.9679c-0.14063-0.39588-0.55029-0.62177-1.0222-0.66185zm6.9898 4.5115c-0.12821-4e-3 -0.25445 0.0113-0.37872 0.0478-1.922 0.56903-3.732 4.3277-3.732 4.3277s4.5548-0.88063 5.5631-2.7466c0.34951-0.64684-0.55523-1.5988-1.4524-1.6289zm-23.058 0.0956c-0.7489 0.0857-1.4097 0.61451-1.3604 1.2428 0.21043 2.6831 7.1773 6.0301 7.1773 6.0301s-1.916-6.1366-5.0631-7.1993c-0.2456-0.0828-0.50413-0.10203-0.75376-0.0736zm-3.0775 6.2434c-1.0356 0.0495-1.8304 1.5257-1.2097 2.0921 1.5667 1.4298 6.1588 0.76479 6.1588 0.76479s-2.947-2.9527-4.9491-2.8569z" color="#000000" color-rendering="auto" image-rendering="auto" solid-color="#000000" style="block-progression:tb;isolation:auto;mix-blend-mode:normal;text-decoration-color:#000000;text-decoration-line:none;text-decoration-style:solid;text-indent:0;text-transform:none;white-space:normal"/>
  </g>
 </g>
</svg>
