<svg height="600" width="900" xmlns="http://www.w3.org/2000/svg"><path d="m0 0h900v600h-900z" fill="#dc241f" fill-rule="evenodd"/><g transform="matrix(.50889821 0 0 .50889821 50.809555 -204.53219)"><g stroke="#000"><path d="m366.66876 897.28478c4.73924-2.18587 4.62017-6.8009 4.54004-11.39646-.48131-9.091-8.89565-35.7914 6.71742-43.54738 2.97843-3.0091 3.67547-5.87722 8.94111-11.21114 2.13104-4.0277 3.70616-11.22634 6.53211-11.67441 1.63532-4.20123 1.56893-8.85078 5.88353-11.4891 3.50365-10.08469 5.73008-11.31108 8.2462-14.54668 1.23539-7.39903 2.19282-8.97897 3.4282-10.09929.70507-6.3386.59991-13.89551 4.35474-17.41895-1.17841-7.15009-.2549-12.54871 1.76043-18.71611-1.3001-6.60932-3.11397-13.21864-.37062-19.82796-1.07468-5.88052-3.97961-10.38835-2.409-18.25284-1.96216-6.75878-8.51002-13.30913-5.55924-20.29123-3.42142-4.60602-5.03906-9.84867-4.26208-15.93649-2.99667-4.53276-6.77259-8.45325-6.48579-15.56587-2.61839-4.10054-6.37923-7.45136-5.28127-13.99076-2.99092-4.41361-9.2837-7.92083-6.57844-13.8981-4.75821-2.66064-9.13406-5.63566-8.43152-12.78625-9.52715-6.78701-11.4965-11.33861-12.36931-15.56588-7.5096-3.18243-13.73041-10.26719-14.4077-16.67772-7.56674-8.12267-17.91922-13.02619-22.70023-24.36801 6.83106 1.71323 14.0251 5.72528 21.21777 9.72867-4.62684-8.66019 12.28126-3.71914 15.75118 2.31636 6.47194 1.00129 12.86527 2.25693 17.27998 9.91398 8.09678 2.35019 12.39549 6.70266 15.51954 11.6744 6.72227 4.17822 7.86632 5.9397 11.30379 13.34218 4.97896 2.6002 7.8649 6.91287 10.14562 11.72073 5.89814 3.87299 10.26143 8.61805 10.74786 15.56587 7.19281 3.63799 9.1074 8.85648 10.05297 14.59301 5.59 2.50009 7.15964 8.58593 8.2462 15.1026 6.79185 5.40953 6.60643 11.56663 6.67109 17.69692 7.72299 4.69169 7.7542 13.4555 7.22701 22.51493 5.42165 3.63505 8.90054 9.53665 6.94905 21.77369 4.16908 5.78075 4.69289 12.31807 2.31636 19.45735 6.66153 11.01743 3.85404 18.14205-.46327 24.64596 6.50277 10.00918 2.76395 18.52726-2.96493 27.24028 3.93312 9.58432 1.11293 17.31497-5.18863 24.09005 2.01356 11.97417-2.7585 18.02041-8.24621 23.44146 1.06399 10.0891-2.55397 16.75963-9.2654 21.17145-.41083 7.09189-4.36475 13.89129-9.63602 17.74323-2.04685 6.07117-3.4831 12.00614-11.25746 16.16813-1.19217 4.47774-4.08946 12.58212-14.59301 16.35342-4.61029 13.08159-21.76531 16.22787-49.84786 8.0609-4.71801-1.38998-9.18747-3.38363-15.56587-.74124z" fill="#009543" stroke-linejoin="round" stroke-width="1.792664"/><g transform="matrix(-.51218978 0 0 .51218978 531.77821 390.27211)"><path d="m294.68255 966.01366c-11.05733-29.92749 9.0339-42.02386 4.88424-82.30851l-7.23592-9.76848c10.0203 20.33912 2.89686 51.35952-8.50219 83.75569z"/><path d="m268.99506 941.95425c-.70437-30.18282 15.80289-46.86008 16.64259-77.60517l-5.60783-7.23591c6.40181 20.94723-7.31175 54.80292-18.81337 76.70068z"/><path d="m251.26707 922.41728c-6.21287-28.17572 19.80652-52.7279 20.62235-82.12761l-5.42693-8.3213c4.78747 27.63327-12.89314 56.42648-23.69762 81.04223z"/><path d="m231.911 896.0062c-2.15154-27.3485 27.68737-55.94429 26.77288-78.87145l-3.07526-6.33142c-1.31721 26.85057-18.4191 54.86205-32.01892 73.80631z"/><path d="m214.90661 870.8614c-5.44714-28.58309 26.1825-45.52813 30.02904-80.31863l-3.97976-7.9595c.81275 31.91969-20.10739 53.99312-33.4661 75.07259z"/><path d="m201.88196 846.98289c-5.81017-31.2746 16.61811-35.69932 34.18969-77.96696l-2.35167-8.68309c-7.60823 30.99976-24.5385 50.25318-39.61662 70.00745z"/><path d="m187.59104 812.7932c-2.98919-31.04569 28.13646-44.93549 40.8829-76.88157l-2.17077-5.60783c-4.78743 15.98171-23.22945 45.7254-46.12894 62.59064z"/><path d="m174.0237 772.45299c-4.17167-19.34608 31.16671-46.98762 49.38511-73.98721l.90448-11.93925c-15.95124 27.83503-33.59818 49.17486-53.54575 70.36925z"/><path d="m167.14958 731.75098c-.22946-25.1023 36.41307-44.46771 56.98282-72.35912l2.17077-9.76849c-21.02952 26.08033-39.43363 46.9024-60.96256 65.48501z"/><path d="m165.7024 685.44114c10.82244-21.62217 41.73734-41.13548 62.95244-61.50526l4.34155-10.49207c-22.92399 21.11527-45.95248 45.34449-67.47489 62.04795z"/><path d="m170.04395 643.47285c5.20606-18.36241 49.08189-33.98827 70.00745-60.41987l1.80898-5.24604c-20.11897 22.0014-45.75026 40.17138-70.91194 53.18396z"/><path d="m174.3855 615.25278c11.27422-22.2569 49.86739-35.75739 73.8063-62.04795l1.98988-6.15052c-21.29807 20.63358-47.86666 39.13244-69.82656 53.54575z"/><path d="m188.49553 578.71143c2.33286-17.10939 49.13726-34.60057 72.17823-54.63114l3.25616-8.6831c-20.91905 21.78602-45.10815 35.5358-69.82656 46.30984z"/><path d="m212.19314 525.88927c16.5535-13.28844 33.48113-17.52301 59.33448-30.20994l3.79886-7.23591c-23.49001 15.30036-42.61527 23.6717-60.05808 27.85826z"/><path d="m225.21778 502.91524c10.25842-19.31879 37.27507-19.24424 60.78167-35.63687 11.75274-12.20132 16.34381-21.76575 15.42344-23.8951-.44766-1.03568-5.09931 4.38305-5.29316 3.09185-9.08016 24.18903-45.47745 35.3984-65.48501 42.33009z"/><path d="m245.47834 472.70531c12.27959-14.36179 36.74014-18.85249 56.44012-30.02904 7.91112-9.41609 18.73321-17.66779 22.33318-28.80834l-14.19278 6.37701c1.42614 20.65569-38.64163 35.2792-56.80191 40.15932z"/><path d="m266.64338 444.48524c17.35395-18.42824 38.46705-20.88008 57.70641-31.29532 10.64711-8.61502 23.11458-14.39027 28.10464-31.83028l-10.82889 3.61023c-1.21086 25.72448-47.26186 40.13321-63.2238 43.77727z"/><path d="m394.5 332.3125c-2.3446.0232-7.05612 2.18668-12.5625 5.34375-5.48805 2.49903-23.24894 12.23417-26.96875 12.5-23.44403 18.52488-45.38744 41.36819-59.0625 60.34375 12.75668-8.67285 37.31222-24.76073 56.84375-29.5 4.29941-8.98792 27.09136-25.62024 35.6875-35.65625 8.16659-9.5345 9.07698-13.06113 6.0625-13.03125zm-6.875 7.1875c3.89506.16526-3.80816 7.29625-5.8125 9.90625-15.02354 19.56326-34.27424 29.77006-53.46875 37.34375-21.41199 8.44865-7.83086-1.54179-4.71875-4.71875 13.86586-14.15481 29.25438-27.60967 49.875-37.375 8.18136-3.87446 12.35452-5.23137 14.125-5.15625z"/></g><path d="m379.82563 597.45637c-3.53644-8.56842-7.18062-16.51187-11.4891-24.46065-1.2829-.42724-2.96956-.63727-3.96983-1.79537-2.96019-3.42727-18.44015-9.26047-14.25461-2.17013 3.19755 1.53274 13.8175-8.77065 28.32373 28.61146z" stroke-width=".51219"/><g transform="matrix(-.51218978 0 0 .51218978 531.77821 390.27211)"><path d="m352.27536 1038.7292c-43.58382-30.8299-51.38571 1.3218-113.33187-9.7215l-2.30245-3.8374c21.81559 5.5086 54.72223 1.3156 93.88893-5.6283l25.90783 14.7938z"/><path d="m326.94837 1017.4954c-35.47479-25.07109-80.25923-6.5852-116.91346-19.44292l-1.27914-4.34908c31.23948 8.4055 54.23959 6.7481 91.8423 5.62822z"/><path d="m286.78335 987.81935c-15.99005-17.06267-68.20325-8.62703-97.72635-20.46625l-2.04662-5.88405c22.80906 11.40406 52.42921 12.96658 85.4466 13.04724z"/><path d="m255.57232 959.67825c-5.65438-14.80835-55.15881-16.65605-86.21409-26.86195l-.76748-4.86074c19.18369 5.61672 26.42545 12.62203 72.65519 15.09386z"/><path d="m226.15208 923.86231c-.0441-7.67504-47.64026-21.69035-74.95764-33.00183v-5.11656c17.98421 7.62995 3.58979 7.16524 67.79445 26.3503z"/><path d="m201.08092 882.92981c.71867-7.86324-42.87301-23.0995-65.74783-36.83925l-.51166-5.88405c18.95032 11.72339 38.68261 22.59999 63.70121 31.46686z"/><path d="m180.61467 835.6016c-15.91403-16.74268-37.0794-26.13348-56.02636-38.63005l-3.32577-11.00061c16.55256 17.04851 40.37723 32.91715 55.25888 38.1184z"/><path d="m117.93678 744.78261c15.80821 17.36946 36.62275 31.39039 49.37483 45.53741l-1.53497-9.72147c-19.15323-11.44393-33.96165-25.06027-46.3049-39.90919z"/><path d="m160.40425 755.27156-1.7908-20.21042c-22.56614-14.66748-29.5716-29.84662-40.67667-44.76993l-.76749 5.88405c13.85948 22.88759 41.09902 38.84149 43.23496 59.0963z"/><path d="m157.59014 715.87403c-7.51685-22.60767-26.78466-40.10907-36.07177-58.32882l1.53497-5.11656c10.8624 19.08566 22.67844 37.69451 37.60674 54.74722z"/><path d="m157.59014 696.68692c4.20555-32.36845-12.83654-55.49879-23.02453-81.60918l2.30245-11.51227c3.03427 26.27222 17.94156 44.98887 27.62944 67.02698z"/><path d="m161.68339 652.94031c2.13397-16.53995 5.42113-31.24149-14.07055-82.12084l4.09325-4.09325c3.54837 21.95784 10.57284 41.01894 18.1638 59.60796z"/><path d="m169.10241 618.65933c6.90361-40.17104-7.45138-58.2705-7.93068-81.865l4.34908-6.13988c-.99067 19.18166 4.53466 42.8943 12.53558 66.00366z"/><path d="m180.35884 580.28511c8.2756-20.15505-5.71811-48.50436-3.83742-73.93433l4.60491-4.34908c-2.56726 25.98647 1.22791 41.93026 8.1865 60.11961z"/><path d="m198.26681 540.37592c-4.19071-38.51-2.30923-45.79157-2.04662-61.39876l3.32577-3.83742c-1.83537 20.36063-.88815 39.32996 4.09325 56.2822z"/><path d="m217.70975 501.49004c-1.12917-18.00353-2.75612-36.25596-1.27914-52.95642l6.90736-6.90736c-3.50977 12.21659-6.23907 25.81402-1.02331 53.46808z"/><path d="m236.12938 475.13974c-1.29464-14.73338-2.17069-29.99-.76748-48.09569l6.13987-5.62822c-4.82284 18.57229-3.15761 35.70278-2.04662 52.95643z"/><path d="m257.36312 446.48699c-.35805-15.14267-1.8626-29.4664 2.30245-47.83986l16.373-15.86135c-12.32571 17.14848-20.54354 36.1227-14.5822 61.39876z"/><path d="m278.34102 425.50908c1.71339-15.35494 5.21091-32.64606 10.48896-49.63066 5.86897-5.33439 18.79359-19.40334 30.69641-19.3301 1.61589.01-3.33672 3.73011-1.532 4.49207-7.28983 2.15546-33.44395 7.03268-33.25766 57.04968z"/></g><path d="m322.38014 933.0492-8.89479-8.89479c70.70863-15.43566 222.97284-156.55066 65.59905-325.77149 112.45157 104.51003 89.46409 278.17913-56.70426 334.66628z" fill="#009543" stroke-linejoin="round" stroke-width="2.50973"/></g><g stroke="#000"><path d="m133.97932 905.80895c-4.73924-2.18587-4.62017-6.8009-4.54004-11.39646.48131-9.09101 4.63357-34.12363-10.9795-41.87961-4.1386-5.77709-7.30651-10.25278-8.98745-10.37725-2.57336-4.06308-2.53241-7.18199-7.7366-11.02583-2.131047-4.0277-3.706164-11.22634-6.532114-11.67441-1.635325-4.20123-1.568935-8.85078-5.883529-11.4891-3.503655-10.08469-5.730083-11.31108-8.246205-14.54668-1.235386-7.39903-2.192812-8.97897-3.428199-10.09929-.70507-6.3386-.599907-13.89552-4.354739-17.41895 1.17841-7.15009.254901-12.54871-1.760427-18.71611 1.300096-6.60932 3.113965-13.21864.370615-19.82796 1.074687-5.88052 3.979612-10.38835 2.409003-18.25284 1.962163-6.75878 8.510017-13.30913 5.559241-20.29123 3.421422-4.60602 5.039061-9.84867 4.262085-15.93649 2.996668-4.53276 6.772583-8.45325 6.485782-15.56587 2.618396-4.10054 6.379237-7.45136 5.281276-13.99076 2.990917-4.41361 9.283691-7.92083 6.578441-13.8981 4.7582-2.66064 9.13405-5.63566 8.43151-12.78625 9.52716-6.78701 11.49651-11.33861 12.36931-15.56588 7.50961-3.18243 13.73042-10.26719 14.4077-16.67772 7.56674-8.12267 17.91922-13.02619 22.70024-24.36801-6.83107 1.71323-14.0251 5.72528-21.21777 9.72867 4.62684-8.66019-12.28127-3.71915-15.75118 2.31636-6.47195 1.00129-12.86527 2.25693-17.27998 9.91398-8.09678 2.35018-12.395491 6.70266-15.519547 11.6744-6.722271 4.17822-7.866313 5.9397-11.303788 13.34217-4.978956 2.60021-7.864904 6.91288-10.145619 11.72074-5.898142 3.87299-10.26143 8.61805-10.747862 15.56587-7.192809 3.63798-9.107395 8.85648-10.052964 14.59301-5.590008 2.50009-7.159639 8.58593-8.246204 15.1026-6.791846 5.40953-6.606429 11.56663-6.671087 17.69692-7.722993 4.69169-7.7542 13.4555-7.227014 22.51493-5.421646 3.63505-8.900542 9.53665-6.949052 21.77369-4.169077 5.78075-4.692883 12.31807-2.316353 19.45735-6.661535 11.01743-3.854044 18.14205.46327 24.64596-6.502771 10.00918-2.76395 18.52726 2.964929 27.24028-3.933121 9.58432-1.112932 17.31496 5.188626 24.09005-2.013557 11.97417 2.758505 18.02041 8.246209 23.44146-1.063987 10.0891 2.553968 16.75963 9.2654 21.17145.410828 7.09189 4.364749 13.89129 9.636021 17.74323 2.046849 6.07117 3.483096 12.00614 11.257461 16.16813 1.192172 4.47774 4.089461 12.58212 14.593009 16.35342 4.610291 13.08159 21.765315 16.22787 49.847855 8.0609 4.71801-1.38998 9.18747-3.38363 15.56587-.74124z" fill="#009543" stroke-linejoin="round" stroke-width="1.792664"/><g transform="matrix(.51218978 0 0 .51218978 -43.175153 390.27211)"><path d="m318.01837 988.08319c-10.83858-11.41482 7.11885-68.51558-2.35168-85.74557-1.93349-1.61775-5.57436-5.74014-4.58485-3.62074 9.8662 21.132 3.01492 59.60974-4.27914 79.77873z"/><path d="m294.68255 966.01366c-11.05733-29.92749 9.0339-42.02386 4.88424-82.30851l-7.23592-9.76848c10.0203 20.33912 2.89686 51.35952-8.50219 83.75569z"/><path d="m268.99506 941.95425c-.70437-30.18282 15.80289-46.86008 16.64259-77.60517l-5.60783-7.23591c6.40181 20.94723-7.31175 54.80292-18.81337 76.70068z"/><path d="m251.26707 922.41728c-6.21287-28.17572 19.80652-52.7279 20.62235-82.12761l-5.42693-8.3213c4.78747 27.63327-12.89314 56.42648-23.69762 81.04223z"/><path d="m231.911 896.0062c-2.15154-27.3485 27.68737-55.94429 26.77288-78.87145l-3.07526-6.33142c-1.31721 26.85057-18.4191 54.86205-32.01892 73.80631z"/><path d="m214.90661 870.8614c-5.44714-28.58309 26.1825-45.52813 30.02904-80.31863l-3.97976-7.9595c.81275 31.91969-20.10739 53.99312-33.4661 75.07259z"/><path d="m201.88196 846.98289c-5.81017-31.2746 16.61811-35.69932 34.18969-77.96696l-2.35167-8.68309c-7.60823 30.99976-24.5385 50.25318-39.61662 70.00745z"/><path d="m187.59104 812.7932c-2.98919-31.04569 28.13646-44.93549 40.8829-76.88157l-2.17077-5.60783c-4.78743 15.98171-23.22945 45.7254-46.12894 62.59064z"/><path d="m174.0237 772.45299c-4.17167-19.34608 31.16671-46.98762 49.38511-73.98721l.90448-11.93925c-15.95124 27.83503-33.59818 49.17486-53.54575 70.36925z"/><path d="m167.14958 731.75098c-.22946-25.1023 36.41307-44.46771 56.98282-72.35912l2.17077-9.76849c-21.02952 26.08033-39.43363 46.9024-60.96256 65.48501z"/><path d="m165.7024 685.44114c10.82244-21.62217 41.73734-41.13548 62.95244-61.50526l4.34155-10.49207c-22.92399 21.11527-45.95248 45.34449-67.47489 62.04795z"/><path d="m170.04395 643.47285c5.20606-18.36241 49.08189-33.98827 70.00745-60.41987l1.80898-5.24604c-20.11897 22.0014-45.75026 40.17138-70.91194 53.18396z"/><path d="m174.3855 615.25278c11.27422-22.2569 49.86739-35.75739 73.8063-62.04795l1.98988-6.15052c-21.29807 20.63358-47.86666 39.13244-69.82656 53.54575z"/><path d="m188.49553 578.71143c2.33286-17.10939 49.13726-34.60057 72.17823-54.63114l3.25616-8.6831c-20.91905 21.78602-45.10815 35.5358-69.82656 46.30984z"/><path d="m212.19314 525.88927c16.5535-13.28844 33.48113-17.52301 59.33448-30.20994l3.79886-7.23591c-23.49001 15.30036-42.61527 23.6717-60.05808 27.85826z"/><path d="m225.21778 502.91524c10.25842-19.31879 37.27507-19.24424 60.78167-35.63687 11.75274-12.20132 16.34381-21.76575 15.42344-23.8951-.44766-1.03568-5.09931 4.38305-5.29316 3.09185-9.08016 24.18903-45.47745 35.3984-65.48501 42.33009z"/><path d="m245.47834 472.70531c12.27959-14.36179 36.74014-18.85249 56.44012-30.02904 7.91112-9.41609 18.73321-17.66779 22.33318-28.80834l-14.19278 6.37701c1.42614 20.65569-38.64163 35.2792-56.80191 40.15932z"/><path d="m266.64338 444.48524c17.35395-18.42824 38.46705-20.88008 57.70641-31.29532 10.64711-8.61502 23.11458-14.39027 28.10464-31.83028l-10.82889 3.61023c-1.21086 25.72448-47.26186 40.13321-63.2238 43.77727z"/><path d="m394.5 332.3125c-2.3446.0232-7.05612 2.18668-12.5625 5.34375-5.48805 2.49903-23.24894 12.23417-26.96875 12.5-23.44403 18.52488-45.38744 41.36819-59.0625 60.34375 12.75668-8.67285 37.31222-24.76073 56.84375-29.5 4.29941-8.98792 27.09136-25.62024 35.6875-35.65625 8.16659-9.5345 9.07698-13.06113 6.0625-13.03125zm-6.875 7.1875c3.89506.16526-3.80816 7.29625-5.8125 9.90625-15.02354 19.56326-34.27424 29.77006-53.46875 37.34375-21.41199 8.44865-7.83086-1.54179-4.71875-4.71875 13.86586-14.15481 29.25438-27.60967 49.875-37.375 8.18136-3.87446 12.35452-5.23137 14.125-5.15625z"/></g><path d="m108.77743 597.45637c3.53643-8.56842 7.18061-16.51187 11.4891-24.46065 1.2829-.42724 2.96956-.63727 3.96983-1.79537 2.96019-3.42727 18.44015-9.26047 14.2546-2.17013-3.19754 1.53274-13.81749-8.77065-28.32372 28.61146z" stroke-width=".51219"/><g transform="matrix(.51218978 0 0 .51218978 -43.175153 390.27211)"><path d="m352.27536 1038.7292c-43.58382-30.8299-51.38571 1.3218-113.33187-9.7215l-2.30245-3.8374c21.81559 5.5086 54.72223 1.3156 93.88893-5.6283l25.90783 14.7938z"/><path d="m326.94837 1017.4954c-35.47479-25.07109-80.25923-6.5852-116.91346-19.44292l-1.27914-4.34908c31.23948 8.4055 54.23959 6.7481 91.8423 5.62822z"/><path d="m286.78335 987.81935c-15.99005-17.06267-68.20325-8.62703-97.72635-20.46625l-2.04662-5.88405c22.80906 11.40406 52.42921 12.96658 85.4466 13.04724z"/><path d="m255.57232 959.67825c-5.65438-14.80835-55.15881-16.65605-86.21409-26.86195l-.76748-4.86074c19.18369 5.61672 26.42545 12.62203 72.65519 15.09386z"/><path d="m226.15208 923.86231c-.0441-7.67504-47.64026-21.69035-74.95764-33.00183v-5.11656c17.98421 7.62995 3.58979 7.16524 67.79445 26.3503z"/><path d="m201.08092 882.92981c.71867-7.86324-42.87301-23.0995-65.74783-36.83925l-.51166-5.88405c18.95032 11.72339 38.68261 22.59999 63.70121 31.46686z"/><path d="m180.61467 835.6016c-15.91403-16.74268-37.0794-26.13348-56.02636-38.63005l-3.32577-11.00061c16.55256 17.04851 40.37723 32.91715 55.25888 38.1184z"/><path d="m117.93678 744.78261c15.80821 17.36946 36.62275 31.39039 49.37483 45.53741l-1.53497-9.72147c-19.15323-11.44393-33.96165-25.06027-46.3049-39.90919z"/><path d="m160.40425 755.27156-1.7908-20.21042c-22.56614-14.66748-29.5716-29.84662-40.67667-44.76993l-.76749 5.88405c13.85948 22.88759 41.09902 38.84149 43.23496 59.0963z"/><path d="m157.59014 715.87403c-7.51685-22.60767-26.78466-40.10907-36.07177-58.32882l1.53497-5.11656c10.8624 19.08566 22.67844 37.69451 37.60674 54.74722z"/><path d="m157.59014 696.68692c4.20555-32.36845-12.83654-55.49879-23.02453-81.60918l2.30245-11.51227c3.03427 26.27222 17.94156 44.98887 27.62944 67.02698z"/><path d="m161.68339 652.94031c2.13397-16.53995 5.42113-31.24149-14.07055-82.12084l4.09325-4.09325c3.54837 21.95784 10.57284 41.01894 18.1638 59.60796z"/><path d="m169.10241 618.65933c6.90361-40.17104-7.45138-58.2705-7.93068-81.865l4.34908-6.13988c-.99067 19.18166 4.53466 42.8943 12.53558 66.00366z"/><path d="m180.35884 580.28511c8.2756-20.15505-5.71811-48.50436-3.83742-73.93433l4.60491-4.34908c-2.56726 25.98647 1.22791 41.93026 8.1865 60.11961z"/><path d="m198.26681 540.37592c-4.19071-38.51-2.30923-45.79157-2.04662-61.39876l3.32577-3.83742c-1.83537 20.36063-.88815 39.32996 4.09325 56.2822z"/><path d="m217.70975 501.49004c-1.12917-18.00353-2.75612-36.25596-1.27914-52.95642l6.90736-6.90736c-3.50977 12.21659-6.23907 25.81402-1.02331 53.46808z"/><path d="m236.12938 475.13974c-1.29464-14.73338-2.17069-29.99-.76748-48.09569l6.13987-5.62822c-4.82284 18.57229-3.15761 35.70278-2.04662 52.95643z"/><path d="m257.36312 446.48699c-.35805-15.14267-1.8626-29.4664 2.30245-47.83986l16.373-15.86135c-12.32571 17.14848-20.54354 36.1227-14.5822 61.39876z"/><path d="m278.34102 425.50908c1.71339-15.35494 5.21091-32.64606 10.48896-49.63066 5.86897-5.33439 18.79359-19.40334 30.69641-19.3301 1.61589.01-3.33672 3.73011-1.532 4.49207-7.28983 2.15546-33.44395 7.03268-33.25766 57.04968z"/></g><path d="m166.22292 933.0492 8.89478-8.89479c-70.70863-15.43566-222.972833-156.55066-65.59904-325.77149-112.4515982 104.51003-89.464097 278.17913 56.70426 334.66628z" fill="#009543" stroke-linejoin="round" stroke-width="2.50973"/></g><g><g stroke="#000"><path d="m299.41688 884.37133c1.07773-27.77879 3.29418-47.15178 7.99706-59.34906 21.90631-56.81557 59.02166 26.5573 55.74891 62.59195-20.01454-6.44954-51.09958-6.05262-63.74597-3.24289z" fill="#ffd700" stroke-linejoin="round" stroke-width="2.048759"/><path d="m178.41619 985.09667 146.5732-144.08742c15.52509-15.57625 3.29841-24.56384-10.37725-10.74786l-146.94381 145.94049c-10.15929 10.08993-1.11812 20.55955 10.74786 8.89479z" fill="#ffd700" stroke-linejoin="round" stroke-width="2.048759"/><path d="m262.81855 901.69764c-7.98787 4.53092-12.64213 1.50191-18.43815-1.76044l-1.57512 2.40901 9.72867 9.914z" stroke-width=".51219"/><path d="m227.14675 917.72676c6.98733-3.66364 15.00075 4.0989 9.54336 9.54337l6.11517-5.92982-9.82133-9.54338z" stroke-width=".51219"/><path d="m305.79652 984.89026-145.4249-147.33265c-6.46587-6.5507.45525-20.91002 10.5419-10.58641l145.76687 149.19124c7.66625 7.84639.0994 19.85524-10.88387 8.72782z" fill="#ffd700" stroke-linejoin="round" stroke-width="2.048759"/><path d="m194.47354 806.72436c1.08732-1.08013 1.1923-.92003 2.19351-.20597 10.05715 7.17275 21.19082 9.46644 27.16042 4.39981 1.92593-1.63461 3.26876-1.34286 4.87988.3347l11.76209 12.24711-37.08222 36.29602 3.79995 3.79995c-9.72183-.0171-10.42059 5.38221-8.25506 13.23428l-6.68265-6.42059-27.64788 27.38581c-.78481.77737-1.20574 1.18987-2.48962-.13104l-27.25477-28.04096c-1.80988-1.8621-1.33302-2.52627.17504-3.98743 20.02848-19.40543 39.6524-39.25355 59.44131-58.91169z" stroke-width=".51219"/></g><path d="m138.133 869.36141c-1.49779-1.5401-.88252-1.61326 0-2.48962l55.72023-55.33057c.51346-.71887.88334-.24798 1.44443.0875 10.82652 6.38829 19.49038 5.56773 27.63835 3.0275 1.03229-.37985 1.2951-.57694 2.0809.18391l7.59058 7.3496c2.08542 2.01922.85173 2.9558-.13104 3.93097l-67.74383 67.21971c-1.40278 1.39192-2.17048 1.14026-3.40685-.13104z" fill="#ffd700" stroke="#ffd700" stroke-width="1.792664"/></g></g><path d="m200.17028 112.31464-24.80167-16.880215-24.33015 17.728925 8.2515-28.950975-24.70736-18.20047 30.60129-.565814 9.336-29.139603 10.23186 28.809537 30.4127.04718-24.16779 18.876144z" fill="#ffd700" stroke="#000"/></svg>