<?xml version="1.0" encoding="UTF-8"?>
<!DOCTYPE svg PUBLIC "-//W3C//DTD SVG 1.1//EN" "http://www.w3.org/Graphics/SVG/1.1/DTD/svg11.dtd">
<svg xmlns="http://www.w3.org/2000/svg" version="1.1" width="450" height="300">
<rect width="450" height="150" x="0" y ="0" style="fill:#fcd116" />
<rect width="450" height="75" x="0" y ="150" style="fill:#003893" />
<rect width="450" height="75" x="0" y ="225" style="fill:#ce1126" />
<path d="M 155,191 l -4,12 -13,0 11,8 -4,12 10,-7 10,7 -4,-12 11,-8 -13,0 z m 31,-27 -4,12 -13,0 11,8 -4,12 10,-7 10,7 -4,-12 11,-8 -13,0 z m 39,-11 -4,12 -13,0 11,8 -4,12 10,-7 10,7 -4,-12 11,-8 -13,0 z m 39,11 -4,12 -13,0 11,8 -4,12 10,-7 10,7 -4,-12 11,-8 -13,0 z m 31,27 -4,12 -13,0 11,8 -4,12 10,-7 10,7 -4,-12 11,-8 -13,0 z" style="fill:#ffffff" />
</svg>
