<?xml version="1.0" encoding="UTF-8" standalone="no"?>
<!-- Created with Inkscape (http://www.inkscape.org/) -->

<svg
   xmlns:dc="http://purl.org/dc/elements/1.1/"
   xmlns:cc="http://creativecommons.org/ns#"
   xmlns:rdf="http://www.w3.org/1999/02/22-rdf-syntax-ns#"
   xmlns:svg="http://www.w3.org/2000/svg"
   xmlns="http://www.w3.org/2000/svg"
   xmlns:sodipodi="http://sodipodi.sourceforge.net/DTD/sodipodi-0.dtd"
   xmlns:inkscape="http://www.inkscape.org/namespaces/inkscape"
   width="500"
   height="878"
   id="svg6963"
   version="1.1"
   inkscape:version="0.48.2 r9819"
   sodipodi:docname="Ankh.svg">
  <defs
     id="defs6965" />
  <sodipodi:namedview
     id="base"
     pagecolor="#ffffff"
     bordercolor="#666666"
     borderopacity="1.0"
     inkscape:pageopacity="0.0"
     inkscape:pageshadow="2"
     inkscape:zoom="0.62029711"
     inkscape:cx="246.27541"
     inkscape:cy="483.2104"
     inkscape:document-units="px"
     inkscape:current-layer="layer1"
     showgrid="false"
     inkscape:window-width="1218"
     inkscape:window-height="745"
     inkscape:window-x="27"
     inkscape:window-y="0"
     inkscape:window-maximized="0" />
  <metadata
     id="metadata6968">
    <rdf:RDF>
      <cc:Work
         rdf:about="">
        <dc:format>image/svg+xml</dc:format>
        <dc:type
           rdf:resource="http://purl.org/dc/dcmitype/StillImage" />
        <dc:title />
      </cc:Work>
    </rdf:RDF>
  </metadata>
  <g
     inkscape:label="Layer 1"
     inkscape:groupmode="layer"
     id="layer1"
     transform="translate(0,-174.36218)">
    <path
       style="fill:#000000;fill-opacity:1;fill-rule:evenodd;stroke:#000000;stroke-width:2.2900753;stroke-linecap:round;stroke-linejoin:round;stroke-miterlimit:4;stroke-opacity:1;stroke-dasharray:none"
       d="M 260.34375 2.09375 C 187.27919 2.5124335 83.288494 37.502632 127.53125 214.65625 C 148.20441 297.43408 198.59244 362.51788 239.25 421.875 L 24.4375 409.84375 C 30.916123 435.67548 30.289842 461.48078 24.4375 487.3125 L 239.25 475.84375 L 224.75 874.78125 C 253.57845 865.36195 277.20371 868.96405 299.9375 874.78125 L 286.6875 475.84375 L 480.25 487.3125 C 474.99722 461.48078 473.21991 435.67548 480.25 409.84375 L 286.6875 421.875 C 322.65761 357.58124 373.11086 300.58634 391.25 206.5625 C 427.90854 16.54273 330.99824 2.70182 263.78125 2.09375 C 262.63779 2.0834072 261.5035 2.0871042 260.34375 2.09375 z M 258.1875 51.1875 C 335.21188 50.560129 414.21208 161.35782 264.125 385.4375 C 106.11454 163.8673 181.16312 51.814871 258.1875 51.1875 z "
       transform="translate(0,174.36218)"
       id="path6957" />
  </g>
</svg>
