<svg xmlns="http://www.w3.org/2000/svg" xmlns:xlink="http://www.w3.org/1999/xlink" version="1" width="900" height="600" viewBox="-125 -75 900 600"><defs><g id="c"><g id="b"><path d="M0 0v10h10" transform="rotate(30 18.66 -5)" id="a"/><use transform="scale(-1 1)" width="250" height="150" xlink:href="#a"/></g><use transform="rotate(120)" width="250" height="150" xlink:href="#b"/><use transform="rotate(-120)" width="250" height="150" xlink:href="#b"/></g><clipPath id="d"><path fill="#00f" fill-rule="evenodd" stroke-width=".347" d="M-125-83.333h250V83.334h-250z"/></clipPath></defs><path d="M-125 70.696C-90.522 46.408-19.988 1.31-19.538-.229L-125-70.601v-12.732h19.102C-70.486-60.257-35.91-35.875-.25-13.18l106.295-70.154H125V-70.6C90.36-46.296 53.658-24.83 19.565.259L125 70.601v12.732h-19.102C70.202 60.645 36.21 35.176 0 13.295l-105.898 70.038H-125z" clip-path="url(#d)" transform="matrix(3.6 0 0 3.6 325 225)" fill="#fff"/><path d="M325 225L-125-75h900zm0 0l450 300h-900z" fill="#ce1126"/><path d="M325 225L-125-75v600zm0 0l450 300V-75z" fill="#1eb53a"/><path d="M-125 479.506C-.879 392.07 253.044 229.717 254.663 224.176L-125-29.165V-75h68.769C71.25 8.074 195.72 95.85 324.098 177.554L706.758-75H775v45.841c-124.707 87.492-256.833 164.77-379.565 255.092L775 479.165V525h-68.769C577.727 443.322 455.361 351.632 325 272.86L-56.231 525H-125z" fill="#fff"/><g transform="matrix(3.6 0 0 3.6 325 225)"><circle r="42.5" transform="scale(1.11111 -1.11111)" fill="#fff"/><path d="M-11.111-32.292H11.11l-.694 6.945-3.473 6.944.695 8.334H-7.64l.695-8.334-3.473-6.944z" fill="#e37909"/><g fill="#1eb53a"><path d="M-1.042-12.5L-.976-.477l-.89 28.96.89.12H.977l.89-.12-.89-28.96.065-12.023z"/><path d="M-.796 19.32l.76 9.271c-5.142 7.31-8.824 3.154-11.73 2.538 7.51-.71 10.944-3.685 10.97-11.81z"/><path d="M-.771 25.595l.507-8.892c-9.938-13.436-19.903-1.225-22.134.254C-14.69 12.654-1.51 9.97-.771 25.595z"/><path d="M-.517 14.465l.507-8.891c-11.207-13.563-26.374-1.86-28.859 1.65C-20.779 1.27-1.256-1.16-.517 14.464zM.796 19.32l-.76 9.271c5.142 7.31 8.824 3.154 11.73 2.538-7.51-.71-10.944-3.685-10.97-11.81z"/><path d="M.771 25.595l-.507-8.892c9.938-13.436 19.903-1.225 22.134.254C14.69 12.654 1.51 9.97.771 25.595z"/><path d="M.517 14.465L.01 5.574c11.207-13.563 26.374-1.86 28.859 1.65C20.779 1.27 1.256-1.16.517 14.464z"/></g><path d="M0-25.694c-.512.858-1.701 1.249-1.736 3.168-.81-.565-.75-.273-1.65-.39.004 1.98-.157 3.028.532 3.895-.81-.408-1.848-.602-2.658-.565 2.606 2.892 1.648 7.064 3.081 7.78l1.39.695h2.083l1.389-.695c1.433-.716.475-4.888 3.081-7.78-.81-.037-1.848.157-2.658.565.69-.867.528-1.916.531-3.896-.898.118-.84-.174-1.649.391-.035-1.92-1.224-2.31-1.736-3.168z" fill="#ce1126"/></g></svg>