<?xml version="1.0" encoding="utf-8"?>
<!-- Generator: Adobe Illustrator 16.0.0, SVG Export Plug-In . SVG Version: 6.00 Build 0)  -->
<!DOCTYPE svg PUBLIC "-//W3C//DTD SVG 1.1//EN" "http://www.w3.org/Graphics/SVG/1.1/DTD/svg11.dtd">
<svg version="1.1" id="Layer_1" xmlns="http://www.w3.org/2000/svg" xmlns:xlink="http://www.w3.org/1999/xlink" x="0px" y="0px"
	 width="600px" height="300px" viewBox="0 0 600 300" enable-background="new 0 0 600 300" xml:space="preserve">
<polygon fill="#FFFFFF" stroke="#000000" stroke-miterlimit="10" points="600,0.455 0.563,0.455 0.563,299.531 600,299.531 
	300.531,149.993 "/>
<path fill="#B73535" d="M172.011,117.366c-4.527-21.716-20.136-42.528-20.136-42.528s-15.611,20.812-20.133,42.528
	c0,0-36.192-43.432-57.908,22.617c0,0,44.462-31.002,55.023,35.399c-2.902,4.374-4.609,9.603-4.609,15.242
	c0,15.258,12.369,27.633,27.627,27.633s27.627-12.375,27.627-27.633c0-5.642-1.707-10.868-4.607-15.242
	c10.563-66.401,55.021-35.399,55.021-35.399C208.2,73.935,172.011,117.366,172.011,117.366z"/>
</svg>
