<svg xmlns="http://www.w3.org/2000/svg" width="1000" height="600"><path d="M1000 600H0V0h1000v600z" fill="#fff"/><path d="M0 200h1000v400H0V200z" fill="#00966e"/><path d="M0 400h1000v200H0V400z" fill="#d62612"/><path fill="#B7774B" d="M232.666 98.728v.116c-.86 2.338-1.563 4.833-2.312 7.283.088.154 1.248-.207 1.503.116-.55 3.613-3.551 5.773-3.468 10.403 1.377-.28 1.201-2.113 2.197-2.774.52.809-.351 1.862-.81 2.774-.465.926-1.093 1.873-1.502 2.659 1.749 1.285 3.45 4.725 2.081 8.091-.421 1.037-1.468 2.199-2.196 3.353-.698 1.106-1.394 2.256-2.081 3.352-2.602 4.155-4.943 8.603-6.011 14.334-1.291.594-2.637.492-3.699 1.04-.912.471-2.323 2.582-3.005 3.468-.991 1.286-1.815 2.605-2.659 3.699 1.16.111 2.655-.112 3.121.693.116.682-.666.998-1.04 1.387-6.177 6.43-12.404 13.451-18.727 19.882-2.6.507-4.466-1.596-6.357-1.503-1.295.064-2.069 1.445-3.468 1.734.16.302.597.328.924.462-.225 1.542-1.891.892-3.467 1.387-1 .314-1.051 1.018-1.85 1.502-1.236-.118-1.941.294-2.774.578-.383.156-.328.751-.578 1.041-1.964.039-3.183.825-4.162 1.85-1.489-.101-2.821-.047-2.659 1.502-2.376-.372-3.474.533-4.393 1.618-1.952.344-3.772.012-5.78-.347-1.173-.209-2.356-.809-3.352-.809-2.208 0-4.508 1.496-6.705 1.734h-.116c-1.089-.529-2.334-.902-2.774-2.081-1.879.223-3.209-.104-3.468-1.502-2.046.042-3.336-.671-4.046-1.965-.905-.391-1.92-.195-2.89-.694-.44-.227-.644-.767-1.04-.925-1.177-.469-3.052.249-3.121-1.503-1.579.076-2.576-.43-3.468-1.041-.097-.559.107-.817.231-1.155-2.243-2.84-5.11 1.42-7.976.462-.745-.249-1.897-1.714-2.659-2.543-5.145-5.597-9.63-10.465-14.796-16.183-1.198-1.326-3.712-3.375-.462-3.814-1.025-2.214-3.174-4.3-4.855-6.242-1.407-.159-3.445.051-4.045-1.041-.42-.763-.518-2.131-.81-3.121-1.399-4.756-3.826-9-6.589-12.715-1.576-2.12-4.149-4.712-3.583-8.554.206-1.393 1.598-2.856 1.619-4.161.032-2.016-2.379-4.213-2.428-6.127.764.046.728.891 1.619.81-.363-2.296-1.524-4.795-2.313-7.052.378-.462.658 1.092 1.734.694-.5-2.505-1.578-5.435-2.312-8.092.359-.188.363.756 1.156.462.929-.343.076-2.635-.231-4.046a121.88 121.88 0 0 0-1.04-4.392v-.116c.923.232.911 1.4 1.965 1.503.092-3.251-1.324-5.611-1.271-8.439.533.978.972 2.64 1.85 2.89.235-3.899-.658-8.691-.347-12.253.809.096.62 1.25.694 1.849.202 1.641.41 3.229.578 4.624.086.716-.137 1.815.693 1.965.26-4.639.231-10.197.231-15.027 0-.864-.378-2.122.462-2.659.432 3.538.489 7.448.693 11.212.55.542 1.209 1.547 1.965 1.503.593-1.145.386-2.592.462-4.045.183-3.481.405-7.382.694-10.866.042-.505-.223-1.627.693-1.618.006 4.399-.426 9.361-.462 14.103 1.931-.585 2.085-1.858 2.428-4.046.336-2.147.691-4.188 1.041-6.242.491-2.89.616-5.852 1.502-8.207.185.601-.034 1.31-.115 1.965-.672 5.401-1.179 11.067-1.85 16.298.541.115.962.348 1.503.463 2.031-6.759 3.15-14.624 4.854-21.501.098-.393-.006-1.165.579-1.271-.188 2.491-.818 5.522-1.272 8.323-.099.609-.643 2.475.116 2.543.801.072 1.526-3.732 1.734-4.393 1.296-4.119 2.377-7.756 3.583-11.675.224-.729.431-1.692 1.041-2.081.17 1.69-.621 3.71-1.156 5.665-.242.882-.57 1.887-.809 2.774-.228.847-.93 2.05-.116 2.659.726-.167.706-1.069.925-1.619 1.23-3.09 2.449-6.249 3.699-9.363.438-1.092.893-3.005 1.965-3.121.022 1.725-.895 3.399-1.503 4.971-.647 1.673-1.373 3.275-1.734 4.854 1.005.328 1.263-.655 1.619-1.271 2.172-3.769 4.257-7.489 6.357-11.213.312-.553.738-1.475 1.503-.81-1.594 3.417-3.978 6.656-5.202 10.057 1.14.136 1.471-1.057 1.965-1.734 3.144-4.315 6.406-8.63 9.479-12.831.449-.614.899-1.743 1.85-1.734-2.284 3.288-4.59 7.016-6.936 10.519-1.026 1.533-2.623 2.926-2.312 4.855 1.207.68 2.072-.712 2.658-1.387 4.209-4.845 8.477-9.76 12.6-14.449.603-.686 1.352-2.16 2.312-1.734-.014.971-.953 1.563-1.503 2.196-3.706 4.277-7.49 8.755-11.097 12.946-.574.667-1.43 1.273-1.618 2.196 2.158 1.344 3.083-.429 4.393-1.618 4.748-4.313 9.519-8.359 14.102-12.369.626-.547 1.357-1.938 2.428-1.387-5.339 5.604-11.854 11.034-17.455 16.761.119.613.257 1.207.231 1.965 5.371-3.222 10.425-7.526 15.375-11.097.712-.514 1.608-1.285 2.196-1.156-5.221 4.279-10.776 8.501-16.067 12.6-.726.563-1.959 1.05-1.965 2.196.431.505 1.383.47 1.965.347 1.316-.28 3.013-1.963 4.277-2.774 3.737-2.4 7.275-4.554 10.75-6.82.605-.395 1.339-1.32 2.196-.925-.83.636-1.661 1.312-2.543 1.965-.779.576-2.139 1.023-2.196 2.312 6.803-2.231 15.706-4.621 25.662-3.814 5.944.481 11.715 2.526 16.183 3.93-2.225-1.551-4.574-2.979-6.589-4.74 4.391 2.254 9.082 5.255 13.524 7.861 1.293.758 3.319 2.469 4.508 2.658.843.135 2.148-.333 2.196-.809.06-.597-1.662-1.497-2.312-1.965-5.879-4.236-12.321-8.617-17.57-12.715.966-.063 1.616.806 2.312 1.271 4.604 3.083 9.267 6.138 13.756 9.132.753.502 1.493 1.354 2.543 1.271.277-1.917-.954-2.57-2.196-3.699-4.621-4.196-9.197-8.12-13.64-12.022-.68-.597-1.862-1.13-1.85-2.196.43-.329.907.26 1.156.462 4.458 3.62 8.762 7.206 13.177 10.866 2.369 1.964 4.326 4.704 7.745 4.393.15-1.151-.973-1.844-1.618-2.543-4.373-4.737-9.069-9.421-13.293-14.103-.237-.262-.938-.669-.578-1.156 1.727 1.071 3.098 2.636 4.508 4.045 4.367 4.367 8.435 8.918 12.947 13.063 1.452-1.22.401-1.958-.462-3.121-2.654-3.574-5.128-7.081-7.629-10.403-.315-.418-1.387-1.099-.694-1.734.394.034.597.532.809.81 3.445 4.509 7.221 9.023 10.75 13.293.466.564 1.004 1.668 1.965 1.503.124-.767-.532-1.572-.925-2.312-1.284-2.425-2.897-5.103-3.814-7.398 1.197.717 1.84 2.163 2.543 3.354 1.841 3.116 3.617 6.311 5.433 9.363.321.541.674 1.592 1.618 1.387-.199-1.804-1.04-3.588-1.734-5.317-.712-1.773-1.657-3.444-1.965-5.202.768-.063.832.911 1.04 1.387 1.22 2.791 2.517 5.708 3.699 8.438.398.92.683 2.872 2.196 2.659-.446-2.362-1.292-5.014-1.85-7.167-.176-.68-.636-1.658-.116-2.196a962.925 962.925 0 0 0 5.896 17.57c.204.592.329 2.137 1.502 1.618-.271-2.02-.766-4.244-1.271-6.473-.499-2.201-1.278-4.467-1.156-6.474 1.677 5.458 2.973 11.818 4.393 17.687.206.852.908 5.623 1.734 5.664.418.021 1.43-1.854 1.502-2.428.139-1.102-.466-2.719-.694-4.162-.448-2.844-.842-5.706-1.271-8.438-.219-1.398-.73-2.729-.462-3.93.998 3.691 1.82 8.423 2.659 12.484.583 2.827.8 5.312 3.121 6.011.378-4.441-.981-9.718-.809-14.334.662.256.524 1.181.578 1.734.471 4.862.708 10.493 1.734 14.681.618-.153 1.004-.538 1.502-.81.333-3.829.366-7.958.809-11.675.399 3.35.422 7.744.579 11.444.052 1.232-.384 3.065.578 3.815.744-.415.571-1.634.693-2.543.136-1.011.28-2.064.462-2.89 1.166.443.434 1.822.347 2.89-.193 2.359-.116 5.563-.231 8.091-.04.867-.667 2.193.462 2.543 1.036-.621.547-2.767 1.502-3.467.263 3.043-1.076 6.714-.693 9.363.735-.344.726-1.431 1.271-1.965.469 1.647-.48 4.267-.925 6.126-.125.525-.756 1.651.116 1.85.854.634.922-2.556 1.852-1.848zm-35.604-30.17c-3.553-4.708-7.715-9.397-12.946-12.369-2.707-1.537-5.346-3.462-8.208-4.508-2.354-.861-5.25-1.601-7.977-2.081-2.906-.512-5.945-1.223-8.785-1.387-9.592-.557-18.463 1.742-24.622 4.971-2.161 1.133-4.473 2.088-6.357 3.236-3.328 2.028-6.286 5.019-9.016 7.86-5.686 5.919-9.62 12.365-12.484 21.038.94.114-.653 1.15.462 1.387 1.032.219 1.101-1.364 1.503-2.774 1.008-3.534 2.605-7.156 4.161-9.825 3.61-6.191 9.813-12.928 16.183-16.761 6.071-3.653 13.922-7.248 22.888-7.745 6.493-.36 13.144.563 17.917 1.849 3.359.905 6.119 1.929 8.9 3.236 4.073 1.916 6.976 4.207 10.172 6.936 4.161 3.553 7.419 7.388 10.289 12.253 1.421 2.41 2.91 5.081 3.814 7.514.605 1.628.923 2.818 1.734 4.046.293.444.644 1.279.924 1.04-1.398-7.619-4.784-12.926-8.552-17.916zm.81-19.305c-1.802 2.92-.77 8.247 2.081 9.248 2.236-2.929.148-8.303-2.081-9.248zm-84.731.925c-2.443 1.397-3.932 6.496-1.849 9.363 2.911-1.006 3.711-6.598 1.849-9.363zm78.604 4.624c1.691.026 2.401-.083 3.815-.116.015-1.287-.279-2.264-.347-3.468-1.505-.191-3.225-.781-4.739-.578.52 1.291.904 2.718 1.271 4.162zm9.016 24.39c-.597-1.39-1.465-2.587-2.081-3.699-2.262-4.086-4.435-6.801-7.283-9.71-.914-.934-1.695-2.102-2.659-3.005-.853-.8-2.12-1.432-3.121-2.196-3.291-2.515-6.413-4.632-10.866-6.126-2.804-.941-6.125-2.347-8.785-2.89-4.184-.854-9.094-.9-13.525-.694-2.788.13-4.397.655-6.705 1.156-1.736.377-3.594.559-5.085 1.041-2.587.834-5.132 2.255-7.629 3.352-3.832 1.683-6.85 4.519-9.594 7.051-3.965 3.66-7.417 7.71-10.057 12.484-.295.343.191.57 0 .693-1.611 2.242-2.383 5.323-3.583 7.976.375.857.101 2.366 1.156 2.543 1.546-2.461 2.376-5.638 3.814-8.207.318.221.588.491.81.809-1.158 3.736-2.61 7.177-3.468 11.212.322.209.913-.112 1.387-.115 1.123-1.849 2.099-4.031 3.006-6.011.282-.615.438-1.6 1.271-1.734.51 1.435-.253 3.093-.694 4.624-.449 1.561-1.267 3.091-1.04 4.739.233.229.891.034.809.578a77.346 77.346 0 0 1-1.618 5.78c.445.75 1.421.968 1.734 1.85-.503 1.308-1.082 2.54-.925 4.508.269.579 1.096.6 1.387 1.156-.615 1.868-1.617 3.909-1.387 6.242.19.272.827.098 1.04.347-.222 2.282-1.029 3.98-1.156 6.357.184.039.795.156 1.041.462-.052 2.414-.222 4.71-.231 7.167.673.368 1.419.662 2.081 1.04 1.322 3.944 3.375 7.882 5.664 11.906 1.476 2.593 2.923 5.829 4.74 8.438.46.661 1.701 2.142 2.196 2.196.579.064 1.664-.762 2.081-1.156 1.316-1.242 2.393-3.339 3.699-4.508.939.564 1.638 1.368 2.659 1.85.696-.69 1.897-.876 2.428-1.734-.339-.972-.755-1.866-1.041-2.89 2.001-.734 3.895-1.577 5.896-2.312.946.62 1.064 2.301 2.196 2.543 1.009.216 2.027-.745 3.353-.693.036-1.004.182-1.899.116-3.005 2.34-.164 4.572-.437 6.936-.578.195 1.153.564 2.132.809 3.237 1.201.379 2.543.617 3.814.924.573-.776.894-1.803 1.734-2.312 1.726.817 3.794 1.292 5.433 2.196-.104 1.09-.386 2.003-.462 3.121 1.263 1.604 3.586 1.571 4.971.115 2.204 1.495 3.547 3.851 6.357 4.74.932-1.909 2.656-3.233 3.815-4.971 1.185-1.777 2.188-3.754 3.236-5.664 1.035-1.886 2.186-3.797 2.89-5.896.723-2.151 1.407-4.354 2.312-6.589.191-.349 1.272.193 1.271-.347.334-2.325.125-5.192.347-7.629.412-.243 1.069-.24 1.387-.578a76.353 76.353 0 0 1-1.387-5.664c.232-.423 1.111-.199 1.271-.694-.552-1.914-1.34-3.592-1.849-5.548.368-.826 1.117-1.271 1.502-2.081-.729-2.182-2.117-5.374 0-6.936-.741-1.687-1.109-3.746-1.849-5.433.316-.647 1.126-.8 1.387-1.503-.909-2.213-1.833-4.409-2.659-6.705 1.857-1.719 2.543 1.479 3.352 3.237.66 1.434.961 3.289 2.428 3.005-.996-4.052-2.497-7.599-3.583-11.56.563-.974 1.734-.085 2.196.578.744 1.067 1.565 3.982 2.081 5.317.262.679.391 1.48.925 1.619 1.534-2.134.293-4.513-.696-6.816zm-84.962-27.165c.021 1.293-.237 2.306-.231 3.583h3.814c.338-1.435 1.04-3.121 1.041-4.508-1.443.407-3.07.629-4.624.925zm87.274 1.619c-2.336 1.981-1.79 8.531.81 9.363 2.367-2.181 1.352-7.785-.81-9.363zm-95.134 1.04c-1.93 2.075-2.841 7.402-.347 9.594 2.71-1.463 2.864-7.77.347-9.594zm81.494 2.312c1.534 2.244 6.09 4.234 9.479 2.428-1.384-2.641-6.035-3.884-9.479-2.428zm-76.986 3.584c3.798 1.36 8.026-.41 9.363-3.005-3.709-1.171-8.355.009-9.363 3.005zm95.135-1.734c-2.647 1.781-2.855 8.394-.116 10.288 2.405-2.237 1.923-7.792.116-10.288zm-103.804 1.155c-1.751 2.576-2.254 8.601.578 10.404 2.491-2.242 2.027-8.615-.578-10.404zm89.586 1.85c1.434 2.428 6.095 4.237 9.479 2.543-1.349-2.651-5.898-3.871-9.479-2.543zm-84.731 3.699c3.682 1.615 8.044-.405 9.479-2.89-3.721-1.246-8.351.06-9.479 2.89zm101.954 9.363c2.288-1.833 2.753-7.559.924-10.288-2.153 1.735-3.466 7.948-.924 10.288zM99.848 66.014c-1.522 3.19-1.098 8.738 1.618 10.288 2.05-2.898.871-8.79-1.618-10.288zm97.214.347c1.602 2.415 5.061 4.663 9.132 3.468-1.164-2.866-5.165-4.536-9.132-3.468zm-91.666 4.624c4.059 1.446 7.789-1.268 9.132-3.814-4.239-.802-7.879.871-9.132 3.814zm107.503 9.594c2.627-1.462 3.349-6.249 1.965-9.479-2.404 1.394-4.109 6.686-1.965 9.479zm-12.6-8.669c1.56 2.504 5.276 4.725 9.132 3.467-1.179-2.865-5.172-4.51-9.132-3.467zm-103.341.694h-.231c-1.101 3.64-.346 8.192 2.543 9.479 1.798-3.233.084-7.976-2.312-9.479zm5.433 4.161c4.12 1.13 7.549-1.269 9.132-3.814-4.009-1.01-8.11.7-9.132 3.814zm115.478 2.658c1.055.756 1.995 1.627 3.006 2.428.663-.956 1.264-1.973 1.965-2.89-.915-1.358-1.989-2.558-3.121-3.699a89.818 89.818 0 0 0-1.85 4.161zm-14.218-2.889c1.101 2.836 3.918 5.552 8.207 5.202-.612-3.26-4.48-5.436-8.207-5.202zM89.097 80.695c.722.858 1.404 1.755 1.965 2.774 1.151-.737 2.169-1.607 3.006-2.659-.744-1.26-1.196-2.812-2.081-3.93-.867 1.368-2.044 2.426-2.89 3.815zm10.982 2.428c4.141.456 6.973-2.334 8.323-5.433-4.286-.162-7.363 1.884-8.323 5.433zm122.414 4.508c1.619-.816 3.321-2.951 3.583-5.317.111-1.004.196-2.804-.347-3.699-2.441 1.408-4.885 5.382-3.236 9.016zm-1.156.231c.345-4.47-2.485-6.761-5.78-7.976.349 4.236 2.313 6.858 5.78 7.976zM85.976 80.348a.548.548 0 0 1-.116.347c-.333 4.497 1.287 7.65 4.046 8.669 1.225-3.922-1.052-7.721-3.93-9.016zm128.888 7.63c.425-.076.575-.426.809-.694-.273-.497-.369-1.172-.694-1.618 1.141-1.14.261-3.417-.347-4.508-.91 1.638-1.348 5.576.232 6.82zM90.715 89.48c3.274-.54 6.02-4.208 5.549-8.091-3.118 1.427-5.647 3.446-5.549 8.091zm114.67-6.936c1.311 3.024 4.223 5.616 8.323 5.086-1.121-3.272-4.09-5.309-8.323-5.086zm-108.197 4.74c-.356.376-.442 1.022-.578 1.619.234.305.475.604 1.041.578 1.021-1.771.863-5.355-.347-6.82-.487 1.251-1.18 3.478-.116 4.623zm1.388 1.849c4.054.413 6.95-2.284 8.208-5.433-4.232-.221-7.524 2.108-8.208 5.433zm124.726 4.277c2.23-.733 3.921-3.175 4.277-5.895.117-.898.385-2.158-.231-2.89-2.699 1.428-4.937 4.892-4.046 8.785zM84.474 86.821c.083 1.203.003 2.325.231 3.353.505 2.271 2.593 4.606 4.393 4.97.861-4.037-1.458-7.54-4.624-8.669v.346zm117.328 3.7a14.917 14.917 0 0 0 3.121 2.312c.48-1.1 1.193-1.966 1.734-3.006-1.166-1.068-2.049-2.42-3.352-3.352-.444 1.406-1.066 2.633-1.503 4.046zm20.46 4.276c.353-4.439-2.501-6.669-5.665-7.976.013 4.074 2.245 6.926 5.665 7.976zm-14.911-5.548c.593-.255.839-.856 1.156-1.387-.443-.251-1.028-.359-1.618-.462-.134.902.377 1.163.462 1.849zm-101.724 1.965c.716.825 1.277 1.805 1.85 2.774 1.21-.64 2.2-1.499 3.121-2.428-.687-1.278-1.064-2.866-1.85-4.045-1.013 1.26-2.226 2.32-3.121 3.699zm-15.489 5.317c3.48-1.029 5.586-4.045 5.549-8.207-3.189 1.322-5.959 3.674-5.549 8.207zm119.987-3.468c.998.659 1.852 1.462 3.468 1.503-.134-3.257-1.898-4.884-4.046-6.127-.109 1.843.435 3.034.578 4.624zm-106.463-3.814c.5.347.646 1.049 1.271 1.271.084-.687.54-1.001.462-1.85-.704.067-1.383.159-1.733.579zm-4.855 6.705c1.735.078 2.412-.902 3.468-1.503.089-1.53.719-3.134.347-4.74-1.954 1.399-3.678 3.028-3.815 6.243zm109.699-6.127c-.006-.07-.017-.136-.116-.115-2.313 1.475-3.561 5.914-2.081 9.132 2.133-1.402 3.991-5.891 2.197-9.017zm5.317 1.271c.1 2.56.038 5.28.231 7.745-.022 1.363-2.001 2.861-1.965 3.814.045 1.182 1.872 1.699 2.313 2.89 1.034-.7 1.775-1.692 2.543-2.659-.272-.718-1.322-1.417-1.503-2.428-.082-.459.137-1.09.116-1.618-.099-2.519-.373-5.605-.578-7.976-.301-.215-1.126-.183-1.157.232zm-110.045-.115c-1.754 3.276.222 7.742 2.543 9.132 1.369-3.407.082-7.938-2.543-9.132zm100.798 8.207c.484-4.114-2.457-6.785-5.664-7.976.062 4.024 2.23 6.94 5.664 7.976zm18.842.231c3.479-1.029 5.162-3.854 5.433-8.091-3.111.824-5.893 4.066-5.433 8.091zm-115.479.925c3.536-1.049 5.329-3.842 5.664-8.092-3.136.914-6.117 3.589-5.664 8.092zm-10.635-7.745c-.074 3.05-.378 6.478-.116 9.479-.548.8-.971 1.727-1.502 2.543 1.126.608 1.648 1.82 2.774 2.428.648-1.125 1.615-1.93 2.312-3.005-.686-1.089-1.931-2.197-2.196-3.931-.372-2.431.372-5.21-.116-7.745-.226-.142-1.253-.312-1.156.231zm124.842 7.514c.25-3.953-2.437-6.752-5.779-7.86.086 3.923 2.424 7.205 5.779 7.86zM83.549 93.179c-.09.026-.135.097-.116.231.422 4.011 2.368 7.11 5.78 7.745.416-4.018-2.546-7.122-5.664-7.976zm12.253.578c-2.71 1.165-6.085 4.147-5.202 8.092 3.05-.695 5.812-4.241 5.317-8.092h-.115zm110.392 12.138c1.019-.021 1.254-.826 1.965-1.156-.071-1.536-.498-3.649.116-4.855 1.15-.465.952.925 1.965.925.33-.71.468-2.768.347-3.93-2.932 1.439-5.218 4.568-4.393 9.016zm17.224.23c3.467-1.041 5.103-3.913 5.433-8.091-3.042.932-5.883 3.669-5.433 8.091zm-120.796-3.929c.661-.303.602-1.325 1.85-1.041.439 1.256.146 3.244.231 4.855.568.434.99 1.014 1.85 1.156.998-3.963-1.479-7.631-4.624-8.901.02 1.144-.13 3.228.693 3.931zm102.532 3.929c.237-3.977-2.363-6.904-5.895-7.86.488 4.098 2.269 6.901 5.895 7.86zm12.6-3.929c.735-.421 1.198-1.114 1.733-1.734-.953-.434-1.684-1.09-2.658-1.503-.14 1.078.423 2.418.925 3.237zm-110.162 5.086c3.621-.869 5.473-3.981 5.78-8.092-3.526 1-6.054 4.039-5.78 8.092zm-18.148.693c.308-4.471-2.282-7.042-5.78-8.092.445 4.18 2.176 7.073 5.78 8.092zm3.699-5.895c.57.624 1.082 1.307 1.85 1.734.326-.946 1.078-2.081.694-3.352-.833.555-1.624 1.151-2.544 1.618zm126.807 3.584c.645.472 1.534.701 2.427.925.38-1.837-.798-3.826-1.849-4.971-.64.901-.578 2.504-.578 4.046zm-6.704 5.086c.489-3.77-1.09-7.25-3.93-8.438-.741 3.96 1.359 7.023 3.93 8.438zm-122.762-2.428c.853-.303 1.783-.528 2.427-1.04-.261-1.319.107-3.266-.809-3.93-.956 1.151-2.105 3.12-1.618 4.97zm123.918 3.237c2.52-1.148 4.832-4.097 4.508-8.091-2.975.701-4.746 4.172-4.508 8.091zm-114.67.693c2.486-1.449 4.687-4.885 3.699-8.669-2.808 1.176-4.437 4.711-3.699 8.669zm123.108.231c3.639-.871 5.759-3.872 6.011-7.745-3.391 1.119-6.131 3.501-6.011 7.745zm-124.264.694c.288-4.145-1.583-7.123-4.624-8.323-.618 4.03 1.913 6.858 4.624 8.323zm106.809-.115c.207-3.958-2.39-6.87-5.896-7.86.496 4.089 2.215 6.955 5.896 7.86zm-97.677 1.271c3.455-1.054 5.51-4.121 5.548-8.208-3.32 1.104-6.191 4.271-5.548 8.208zm-23.813-7.629c-.09.026-.134.097-.115.231.839 3.747 2.583 6.587 6.473 7.282.048-4.134-2.987-6.798-6.358-7.513zm136.98.115c-.795.053-.879.816-1.156 1.387 1.075.587.495 2.723.231 3.931.627.105.878.586 1.502.694.914-1.873-.127-4.389-.577-6.012zM91.64 114.564c.524-.246.948-.594 1.503-.81-.395-1.124-1.042-3.353.115-4.046-.442-.367-.463-1.155-1.156-1.271-.648 1.419-1.506 4.483-.462 6.127zm120.912 2.197c-.068-4.209-1.654-6.901-4.74-8.092-.285 4.105 1.855 6.773 4.74 8.092zm1.387.808c2.909-1.331 5.345-3.747 5.202-7.745-3.31 1.006-4.967 3.665-5.202 7.745zm-113.283.694c2.211-1.15 4.352-3.61 4.624-6.589.045-.493.167-1.437-.347-1.734-2.921 1.203-4.591 4.269-4.277 8.323zm-6.819-6.935c-.333 3.82 2.402 6.522 5.433 7.745-.131-3.804-2.084-6.776-5.433-7.745zm127.847 7.167c2.644-.313 4.735-2.198 5.78-4.393.382-.804 1.12-1.774.809-2.659-3.365.644-6.589 3.042-6.589 7.052zm-16.183 1.618c.02-4.183-2.493-6.726-5.896-7.861.19 3.496 2.104 7.203 5.896 7.861zm-120.912-6.821c-.09.026-.134.097-.116.231 1.102 3.408 3.222 6.41 7.167 6.589-.259-3.826-3.408-6.376-7.051-6.82zm23.234 8.092c3.52-.93 5.702-4.37 5.549-8.208-3.187 1.323-5.952 3.681-5.549 8.208zm111.896-2.889c.37.092.583.341 1.041.347.563-1.85.224-4.329-.925-5.433-.603 1.395.144 3.624-.116 5.086zm-7.861 4.507c-.042-4.235-1.594-6.959-4.739-8.092-.271 4.095 1.91 6.715 4.739 8.092zM92.45 120.459c.496.034.764-.161 1.04-.347-.387-1.422.604-4.116-.462-5.086-.764 1.324-1.271 3.662-.578 5.433zm9.016 3.931c2.844-1.294 5.103-4.355 4.508-8.324-3.078 1.137-4.706 4.291-4.508 8.324zm111.433-.925c3.259-1.019 5.755-3.414 5.896-7.167-3.555.799-5.303 3.405-5.896 7.167zm7.167 1.271c1.732.25 3.264-1.342 4.624-2.196.767-1.356 2.333-3.132 1.965-4.854-3.499 1.047-6.22 2.873-6.589 7.05zm-125.767-6.935c.175 3.798 2.836 6.101 6.126 7.167-.34-3.63-2.45-6.488-6.126-7.167zm105.538.809a.585.585 0 0 1-.347.346c.588 2.341.916 4.941 1.965 6.82 1.241-.14 2.839.256 3.583-.116.702-3.883-2.899-5.406-5.201-7.05zm-113.629 1.04c1.107 3.554 2.987 6.337 7.167 6.82-.239-3.886-3.318-6.544-7.167-6.82zm26.933-.115c-1.843 2.027-5.618 3.297-4.739 7.283.814.378 2.458-.072 3.699 0 .769-2.083 1.225-4.478 1.618-6.936-.204-.105-.338-.279-.578-.347zm105.191 3.93c.311.229.569.509 1.155.463.208-1.216.479-3.047-.231-3.931-1.069.621-.347 2.536-.924 3.468zm-11.675 2.08c1.234.384 2.588.648 4.277.578-.809-2.39-2.439-3.957-4.045-5.548-.708 1.104-.222 3.241-.232 4.97zm21.269-4.97c-.141.399-.692.387-.578 1.04.306.35.983.326 1.04.925-.747 1.72-1.641 3.292-2.312 5.086 3.703.796 4.107-5.512 1.85-7.051zm-133.974 4.97c.457-.005.67-.254 1.04-.347-.373-1.207.084-3.244-1.156-3.583-.312 1.217-.31 2.848.116 3.93zm12.253-3.699c-1.248 1.761-3.258 3.367-3.583 5.665 1.561-.096 3.041-.273 4.162-.809-.242-1.824.598-4.085-.579-4.856zm-18.726 7.514c-.845-1.698-1.802-3.284-2.543-5.086.158-.497.961-.35 1.041-.925-.042-.537-.394-.762-.809-.925-1.918 2.01-1.233 8.068 2.311 6.936zm125.189-2.889c.762.817 2.314.845 3.93.809.304-1.392.914-2.477.925-4.162-2.242.42-3.904 2.027-4.855 3.353zm-14.218-.347c.395-.144 1.04-.039 1.387-.231-.085-1.032-.469-1.766-1.271-2.081-.219.953-.383 1.3-.116 2.312zm20.922.578c.011 1.685 2.945 1.787 4.046 1.156.864-.496 1.988-3.157 1.85-3.583-2.121.653-3.994 1.555-5.896 2.427zm-122.53 1.965c1.507.341 3.236-.07 4.046-.809-1.292-1.444-2.759-2.712-4.971-3.237-.098 1.755.654 2.659.925 4.046zm16.761-1.734c.548-.046.795.207 1.387.116.256-1.002.163-1.605-.347-2.312-.563.514-.996 1.16-1.04 2.196zm-23.465 2.659c1.134.598 3.994.413 4.046-1.272-2.023-.829-3.993-1.709-6.242-2.312.51.896 1.063 2.986 2.196 3.584zm113.744-1.966c-2.942.137-5.601.449-8.323 1.156a189.46 189.46 0 0 0-1.387 4.393c9.668-3.08 19.252 1.883 29.477 1.271.868-1.56 1.876-2.979 2.659-4.624-7.622 1.106-14.798-2.551-22.426-2.196zm-96.174 1.041c-6.816.557-13.15 3.768-20.345 3.005.625 1.379 1.791 3.218 2.89 4.508 6.87.438 11.319-1.898 17.108-2.543 4.005-.446 8.002-.745 12.138.347-.49-1.475-1-2.93-1.502-4.393-3.385-.45-6.741-1.215-10.289-.924zm92.822 5.433c-2.883.167-5.361.459-7.976 1.156-.523 1.403-.95 2.903-1.387 4.393 9.592-3.085 19.229 1.852 29.361 1.271 1.023-1.443 1.912-3.021 2.774-4.624-7.709 1.089-15.051-2.644-22.772-2.196zm-89.586.924c-6.848.559-13.192 3.803-20.46 3.005.971 1.534 1.8 3.208 3.005 4.508 5.598.244 9.588-1.029 13.987-1.965 5.006-1.065 10.253-1.438 15.259-.231-.502-1.463-1.013-2.918-1.503-4.393-3.39-.441-6.742-1.213-10.288-.924zm97.562 6.474c-6.305-1.111-12.834-2.204-19.073-.116-.346 1.542-.945 2.831-1.271 4.393 9.35-3.223 19.708 2.083 29.477 1.156.888-1.501 1.803-2.975 2.659-4.508-4.059.709-7.687-.203-11.792-.925zm-54.098-.347c.09 1.053-.16 1.767-.116 2.774-2.31.002-3.885.738-5.895 1.04-.622-.727-.868-1.83-1.619-2.427-.846.465-1.788.832-2.659 1.271.095.983.631 1.526.809 2.427-1.782 1.108-3.243 2.537-5.086 3.583-.886-.539-1.713-1.138-2.543-1.734-.585.383-.929.836-1.503 1.503-.28.325-1.398 1.363-1.387 1.618.018.402 2.077 1.88 2.312 1.965 1.59.575 3.831.169 5.317.694 1.477-.913 2.248-2.53 3.814-3.352 1.179.679 2.109 3.708 3.468 4.162.785.262 1.913.028 3.005 0-.958-1.973-2.198-4.273-2.774-6.242 3.637-1.138 9.75-1.937 12.946 0-.965 2.118-1.979 4.186-2.89 6.357 1.146.029 2.032-.204 3.237-.115 1.361-1.452 2.293-3.333 3.814-4.624.882.522 1.416 1.069 2.197 1.849.474.475 1.281 1.783 2.081 1.965.781.179 3.381-.367 4.508-.578.387-.072 2.785-2.301 2.774-2.543-.005-.113-1.14-1.22-1.387-1.503-.56-.64-.992-1.074-1.503-1.502-.814.649-1.651 1.277-2.659 1.734-1.322-1.182-3.172-1.837-4.393-3.121.264-.777.565-1.515.694-2.427-.941-.254-1.702-.688-2.659-.925-.728.543-.883 1.66-1.734 2.081-1.926-.463-3.659-1.119-5.895-1.271-.125-.993-.173-2.062-.347-3.005-1.271.151-2.729.118-3.927.346zm-40.226-.115c-6.851.559-13.188 3.805-20.46 3.005.995.914 1.765 4.072 3.005 4.508.64.225 2.35.038 3.236 0 5.191-.219 8.812-2 13.987-2.543 4.257-.446 8.199-.594 12.021.231a57.631 57.631 0 0 1-1.503-4.277c-3.401-.427-6.747-1.214-10.286-.924zm78.141 5.548c-2 2.739-4.758 4.721-7.051 7.167.402.138.867.212.925.694 2.808-2.201 5.115-4.903 7.282-7.745-.219-.206-.764-.085-1.156-.116zm4.277.231c-1.924 2.29-4.735 5.278-7.282 7.629-.972.897-2.852 1.934-1.965 3.237 4.215-2.628 7.083-6.892 10.403-10.75-.218-.205-.763-.084-1.156-.116zm-69.125 6.357c-2.034-1.629-4.632-4.632-6.011-6.126-.196-.212-1.129.078-1.271.115.946 1.758 2.687 2.772 3.814 4.277.356.476.489 1.173.925 1.618.564.577 1.43.968 2.081 1.503.284-.545 1.07-.899.462-1.387zm60.571-6.126c-1.372 2.443-3.524 4.104-5.664 5.78.533.006 1.13-.051 1.503.116 1.842-1.819 4.18-3.141 5.086-5.896h-.925zm-68.317 3.121c-.958-.995-2.281-3.308-3.814-2.775v.231c3.461 3.514 6.265 7.684 10.75 10.173-.045-.547.037-.965.116-1.388-2.459-1.825-4.884-3.991-7.052-6.241zm80.801-2.774c-.071.007-.137.018-.116.116-2.636 2.934-5.693 6.16-8.554 8.785-.368.338-.995.647-.925 1.156.517-.177 1.189-.198 1.85-.231 2.234-1.624 3.748-3.896 5.549-5.896 1.176-1.305 2.479-2.408 3.236-3.814-.216-.17-.922-.2-1.04-.116zm-75.83.115c.513 2.8 2.75 3.878 4.508 5.433.448-.284 1.534.07 1.965-.231-1.978-1.606-4.213-2.954-5.433-5.318-.361.025-.848-.077-1.04.116zm-9.247 2.775c-.917-.994-2.065-2.91-3.352-2.312 1.977 2.956 4.742 5.122 6.936 7.861 1.243.876 2.177 2.062 4.508 1.849-2.694-2.096-5.601-4.699-8.092-7.398zm87.274-.116a559.486 559.486 0 0 1-6.011 6.589c.493-.24 1.419-.045 1.965-.231 2.394-2.731 4.895-5.354 7.051-8.323-1.313-.79-2.224 1.095-3.005 1.965zm-91.089 1.271c-.922-1.037-2.066-3.272-3.583-2.774.025.847.846 1.349 1.387 1.965.543.619 1.116 1.262 1.734 1.965 1.466 1.669 2.808 4.294 5.78 4.161-.076-.389-.8-1.125-1.503-1.271-1.344-1.397-2.308-2.35-3.815-4.046zm96.637-2.658c-1.868 2.235-4.173 4.893-6.126 6.936-.182.191-.796.408-.578.809h1.503c1.15-1.112 2.261-2.426 3.352-3.699 1.103-1.287 2.308-2.564 3.005-3.93-.219-.206-.763-.084-1.156-.116zm-57.104 1.04c.571 1.78 1.394 3.308 2.081 4.971 1.739.155 3.694.155 5.433 0 .74-1.804 1.514-3.573 2.312-5.317-3.141-.748-7.181-.97-9.826.346zm-44.272 1.157c-.737-.834-1.468-2.223-2.659-1.387 1.075 1.559 2.67 3.402 4.046 4.971.839.956 1.412 1.831 3.005 1.502-1.027-1.312-2.931-3.431-4.392-5.086zm105.19-1.503c-2.128 2.379-4.085 4.931-6.357 7.167h1.734c1.934-2.305 4.052-4.426 5.78-6.936a3.734 3.734 0 0 0-1.157-.231zm-107.734 3.583c-.65-.741-1.961-2.688-2.774-2.889-.359-.089-.71-.01-1.04.115a.546.546 0 0 1-.116.347c.763.741 1.563 1.658 2.543 2.774.969 1.104 1.911 3.223 3.814 2.659-.562-.799-1.403-1.839-2.427-3.006zm59.879 1.503c1.136-.251 2.639-.135 3.699-.462-.66-.573-1.296-1.17-1.965-1.734-.572.739-1.232 1.388-1.734 2.196zm-18.149-1.619c-.261.569-1.273.933-1.156 1.503.77.193 1.933-.006 2.659.231-.43-.648-.794-1.363-1.503-1.734zm40.805 8.439c.003-1.267.101-2.676-.116-3.468-.268-.981-1.724-2.913-2.659-3.468-2.141-1.27-6.089-.386-8.785 0-8.56 1.227-18.003 1.872-26.703 1.271-3.727-.257-7.209-1.038-10.288-1.271-.974-.074-1.599.086-2.312 0-1.567-.188-3.905-1.067-5.664-.694-.595.126-2.261 1.058-2.543 1.734-.361.868-.091 2.573-.115 3.814-.08 4.061-.304 8.909-.116 12.138 2.43-1.023 5.145-1.04 8.323-.809 7.58.552 15.952 1.345 24.391 1.156 3.921-.088 8.176-.23 12.022-.578 4.732-.427 9.59-2.818 13.293-1.156.639.287 1.028.95 1.503.81-.54-2.941-.239-6.321-.231-9.479zm-74.443-4.393c-3.132-.173-7.26-.057-9.826.347 4.008 4.664 8.168 9.489 12.253 13.987 1.411 1.553 2.784 3.178 4.277 4.277 1.408-.765 3.401-.467 5.202 0 3.709.961 5.737 3.604 9.132 4.277.238-.841.281-1.721 0-2.543-1.807-1.353-6.192-.127-7.167-2.312-.904-4.882.652-11.088-.231-16.299-5.167.18-8.936-1.473-13.64-1.734zm76.177 1.272c-.948 5.263.007 11.362-1.04 16.414-1.38 1.879-5.29.519-7.282 1.734-.244.793-.325 1.88 0 2.659 2.353-.14 4.108-2.156 6.357-3.005 2.263-.854 6.484-1.848 8.323-.462 4.352-4.298 8.674-8.905 12.947-13.178 1.445-1.445 3.084-2.722 4.161-4.393-7.624-1.927-16.294.352-23.466.231zm-9.132 12.253v5.202c1.679-1.262 4.273-1.356 6.705-1.041 1.852-4.068-3.664-4.589-6.705-4.161zm-51.902 2.196c-.077 1.006-.375 1.843.116 2.543 2.37-.117 4.982-.057 6.588 1.387.299-1.551.118-3.582.347-5.202-2.353-.339-5.965-.377-7.051 1.272zm48.897-1.271c-2.665.888-5.346 2.514-8.092 3.815-2.749 1.303-5.812 2.073-8.785 3.121-4.525 1.595-9.162 2.781-13.756 4.045-1.553.428-3.214.55-4.624 1.388.165 1.143.982.767 1.734.578 2.515-.632 5.052-1.261 7.283-1.85 9.877-2.608 18.772-5.878 26.934-9.709.11-.699 1.254-.364 1.04-1.388-.628-.245-1.364-.124-1.734 0zm-8.323.578c-1.057.232-2.328 1.078-3.468 1.618-1.212.575-2.482.965-3.699 1.387-5.094 1.765-10.286 3.407-15.605 4.854-2.686.731-5.43 1.172-7.976 2.312.096.29.317.454.347.81 11.801-2.609 23.716-6.107 33.638-10.981.118-.05.605-.249.116-.231-1.098.292-2.134-.038-3.353.231zm-27.743 2.658c.466-.112.651-.505.925-.81-1.683-.629-2.863-2.377-5.433-1.733 1.442.909 3.066 1.635 4.508 2.543zm4.74-.347c.255-.361.856-.376 1.04-.809-1.294-.671-2.553-1.993-4.739-1.387 1.329.636 2.402 1.528 3.699 2.196zm2.89-1.965c-.081-.09-.646-.257-.694 0 .195.206.519.324.694 0zm-7.052 3.468c-2.016.72-4.218 1.253-6.242 1.965.012.474.023.947-.116 1.271 7.328-1.958 14.883-3.689 21.27-6.589-6.23-.28-9.818 3.264-14.912 3.353zm18.958-3.236c-7.149 3.042-15.865 5.049-23.466 7.167-.947.264-2.695.353-2.659 1.85 9.788-2.226 20.664-5.284 29.592-9.132-.905.089-2.799-.169-3.467.115zm-15.028 13.178c.459 1.565 2.779.441 3.93.116 10.478-2.966 20.812-6.052 29.477-10.403-.075-.542.151-1.385-.116-1.734-9.576 5.526-21.75 8.457-33.291 12.021zm-9.941-10.52c.41.389 1.834.772 2.427.231-.555-.678-1.509-.958-2.312-1.388-.119.305-.138.711-.115 1.157zm53.636 1.388c.902 1.092 5.54 1.885 5.896-.231-1.705-.556-3.741.475-5.896.231zm-69.241-.232c-.24 2.332 4.759 1.747 5.896.694-2.265.068-3.672-.722-5.896-.694zm29.014 10.982c.463 1.524 2.322.432 3.468.115 4.135-1.141 8.075-2.34 12.137-3.467 3.913-1.086 7.645-2.701 11.444-4.162 1.434-.551 4.686-1.389 3.005-2.89-8.802 4.684-19.842 7.13-30.054 10.404zm-17.917-7.167c.387-.037.729-.119.925-.347-.437-.025-.561-.363-.925-.462.031.479-.152.45 0 .809zm45.776.924c.698.458 1.833.479 2.889.578.07-.276.167-.527.116-.924-.826-.531-2.944-1.196-3.005.346zm-3.237 1.966c.829.25 1.795.362 2.774.462.114-.271.203-.568.231-.925-.791-.463-3.157-1.361-3.005.463zm-3.815 1.387c.705.451 1.951.361 2.89.578-.025-.372.205-.489.116-.924-.711-.575-3.015-1.261-3.006.346zm-3.699 1.503c.696.421 1.915.32 2.774.578.158-.228.11-.66.231-.925-.637-.55-3.109-1.328-3.005.347zm-4.855.578v.925c1.253.365 2.731.506 4.162.694-.089-.436.141-.553.116-.925-.993-.568-3.154-1.007-4.278-.694z"/><path fill="#FFF" d="M205.616 86.475c-.281.239-.631-.596-.924-1.04-.811-1.228-1.128-2.418-1.734-4.046-.905-2.434-2.393-5.104-3.814-7.514-2.869-4.864-6.127-8.7-10.289-12.253-3.196-2.729-6.099-5.02-10.172-6.936-2.782-1.309-5.541-2.332-8.9-3.237-4.773-1.286-11.424-2.209-17.917-1.849-8.966.496-16.817 4.091-22.888 7.745-6.37 3.833-12.573 10.57-16.183 16.761-1.556 2.669-3.153 6.292-4.161 9.825-.402 1.411-.471 2.994-1.503 2.774-1.115-.237.478-1.273-.462-1.387 2.864-8.673 6.798-15.119 12.484-21.038 2.73-2.842 5.688-5.833 9.016-7.861 1.884-1.148 4.197-2.104 6.357-3.236 6.159-3.228 15.03-5.527 24.622-4.971 2.84.165 5.878.875 8.785 1.387 2.727.48 5.623 1.22 7.977 2.081 2.861 1.046 5.501 2.971 8.208 4.508 5.23 2.972 9.393 7.661 12.946 12.369 3.766 4.991 7.152 10.298 8.552 17.918zM199.952 58.5c-2.851-1-3.882-6.327-2.081-9.248 2.23.946 4.318 6.32 2.081 9.248zm-88.66 1.041c-2.083-2.867-.594-7.967 1.849-9.363 1.862 2.765 1.062 8.357-1.849 9.363zm79.182-8.901c1.514-.204 3.234.387 4.739.578.068 1.203.362 2.181.347 3.467-1.414.032-2.124.143-3.815.116-.367-1.443-.751-2.87-1.271-4.161z"/><path fill="#33A5D0" d="M201.455 86.012c-.535-.138-.663-.939-.925-1.619-.515-1.335-1.337-4.25-2.081-5.317-.463-.663-1.634-1.551-2.196-.578 1.087 3.96 2.587 7.508 3.583 11.56-1.466.283-1.768-1.572-2.427-3.005-.809-1.758-1.495-4.956-3.353-3.237.826 2.295 1.75 4.492 2.659 6.705-.26.703-1.071.856-1.387 1.503.74 1.687 1.109 3.746 1.85 5.433-2.117 1.562-.729 4.754 0 6.936-.385.81-1.135 1.255-1.503 2.081.509 1.956 1.297 3.634 1.85 5.548-.161.495-1.039.271-1.271.694a76.353 76.353 0 0 0 1.387 5.664c-.318.337-.976.334-1.387.578-.221 2.438-.013 5.304-.347 7.629 0 .54-1.081-.001-1.272.347-.904 2.234-1.589 4.437-2.312 6.589-.705 2.098-1.855 4.009-2.89 5.896-1.047 1.91-2.052 3.887-3.236 5.664-1.159 1.738-2.883 3.062-3.814 4.97-2.811-.889-4.154-3.244-6.358-4.739-1.384 1.456-3.708 1.489-4.971-.115.077-1.118.358-2.031.462-3.121-1.639-.904-3.707-1.379-5.433-2.196-.84.508-1.161 1.536-1.734 2.312-1.271-.308-2.614-.545-3.815-.924-.244-1.104-.613-2.084-.809-3.237-2.363.141-4.595.414-6.936.578.066 1.106-.079 2.001-.116 3.005-1.326-.051-2.343.909-3.352.693-1.132-.242-1.25-1.923-2.196-2.543-2.001.735-3.894 1.578-5.896 2.312.286 1.024.702 1.918 1.041 2.89-.53.857-1.731 1.043-2.428 1.734-1.021-.481-1.719-1.286-2.659-1.85-1.306 1.169-2.383 3.266-3.699 4.508-.417.394-1.502 1.22-2.081 1.156-.496-.054-1.736-1.535-2.196-2.196-1.816-2.609-3.264-5.845-4.74-8.438-2.29-4.024-4.343-7.962-5.664-11.906-.662-.379-1.408-.673-2.081-1.04.009-2.457.179-4.753.231-7.167-.245-.306-.857-.423-1.04-.462.127-2.377.934-4.075 1.156-6.357-.214-.249-.851-.075-1.04-.347-.23-2.333.772-4.375 1.387-6.242-.291-.556-1.119-.577-1.387-1.156-.157-1.968.421-3.201.925-4.508-.313-.882-1.289-1.1-1.734-1.85a77.828 77.828 0 0 0 1.619-5.78c.082-.544-.576-.349-.809-.578-.227-1.649.591-3.179 1.04-4.739.441-1.531 1.204-3.189.694-4.624-.834.134-.99 1.119-1.272 1.734-.907 1.98-1.883 4.162-3.005 6.011-.474.003-1.065.325-1.387.115.857-4.036 2.31-7.477 3.468-11.212a3.19 3.19 0 0 0-.809-.809c-1.438 2.569-2.269 5.746-3.814 8.207-1.056-.177-.781-1.686-1.156-2.543 1.2-2.653 1.973-5.734 3.583-7.976.191-.123-.295-.35 0-.693 2.64-4.774 6.092-8.825 10.057-12.484 2.744-2.533 5.762-5.369 9.594-7.051 2.497-1.097 5.042-2.518 7.629-3.352 1.491-.481 3.35-.663 5.086-1.041 2.307-.501 3.917-1.026 6.705-1.156 4.43-.206 9.341-.16 13.524.694 2.661.542 5.981 1.948 8.785 2.89 4.453 1.495 7.575 3.612 10.866 6.126 1.001.765 2.268 1.396 3.121 2.196.963.903 1.744 2.071 2.659 3.005 2.848 2.91 5.021 5.624 7.283 9.71.615 1.112 1.483 2.309 2.081 3.699.988 2.299 2.229 4.678.693 6.816zm-30.517-23.928c-.252-.746-.777-1.395-1.04-2.081-.638-1.663-.958-3.985-2.428-4.508-1.107-.394-2.041.24-2.89.347-1.863.234-4.137-.412-5.78-.116-1.658.299-2.935 1.802-4.277 2.081-1.142.237-2.664-.102-3.699.231-.827 1.36-1.38 3.998-.809 6.011-.522.018-.283.796-.694.925-1.688-1.279-3.528-2.406-3.121-5.78-1.295-.263-2.039 1.412-2.312 2.543-.687 2.847.929 4.854 2.312 5.664 1.514.077 2.533.077 4.046 0 .375.633.723 1.425.347 2.196-1.276.767-3.248.836-5.317.81-2.008-1.344-3.932-2.772-5.548-4.508 1.266-1.488 4.294-5.424 1.271-7.398-.692-.153-.344.735-1.156.462-.88-.901-1.019-2.684-2.312-2.659-1.011.02-2.06 2.035-3.699.925-.148 1.385-1.384 1.349-2.196 2.196-1.471 1.536-2.398 4.449-2.081 6.82.399 2.984 2.524 5.085 4.855 6.011.179.487-.642-.025-.462.462.746 1.065 1.364 2.258 3.237 2.196 1.03 1.051 1.616 2.545 2.427 3.814-.679.705-.8 2.072-1.85 2.543-1.097.493-2.507.174-3.93 0 .059-1.677-.008-3.228-.347-4.508-.866-1.48-4.574-2.442-6.126-.809.026.639.264 1.386 0 1.965-1.689-.106-3.351.948-3.121 2.196.142.773.768.658 1.156 1.503-.855 1.094-1.693 1.975-1.156 3.93 2.246.042 1.3 2.684 2.312 3.814.478.256.678-.273 1.156-.347.874.309 1.758 1.695 3.005 1.965 1.919.416 4.042-.006 5.548-.578.313 1.075 2.392.382 3.583.578.708-.949 1.59-1.521 3.353-1.156 2.267 3.153 5.4 4.771 9.016 6.589 1.161.583 4.538 1.6 4.508 2.89-.021.904-2.337 1.753-3.468 2.313-1.625.804-2.635 1.35-3.814 2.081-2.192 1.359-5.516 3.029-7.167 4.508-1.344 1.205-2.77 2.703-2.428 5.202.748 1.334 2.074 2.78 3.237 4.393 1.088 1.508 2.616 3.285 3.005 4.739.489 1.824-.507 2.344-1.271 3.237-.415.485-.933 1.371-1.734 1.503-.792.13-1.022-.367-1.849-.578-.343-.088-.77.097-1.041 0-.665-.24-1.046-.995-1.734-1.156-3.202-.75-4.988 1.873-5.086 5.086 1.119.763.413 2.421.693 3.584.126.523 1.031 1.167 1.503 2.081.121.233.091.634.231.809 1.074 1.348 2.292.451 4.161.694.393.051.733.392 1.156.462 1.746.29 4.626.251 5.895 0 1.724-.342 2.639-1.88 3.699-2.427.13-.333.023-.902.231-1.156.325-.176.892-.11 1.271-.231.766-.926 1.097-2.804.462-4.162a76.478 76.478 0 0 1 3.005-2.89c.886-.811 2.713-1.807 3.005-2.89.837-3.109-2.204-4.63-3.005-6.82.297-2.65 3.131-3.316 6.126-2.89.639 2.109.619 3.993 2.081 5.202 1.849 1.528 5.812.029 8.439 1.041 1.924 1.14 2.239 7.959-.463 8.091-.69.034-.961-.555-1.618-.925-.712-.401-1.874-.855-2.543-.925-1.719-.18-2.373.667-3.121 1.387-.38.365-.792.462-1.04.925-.24.446-.082.921-.231 1.502-.133.52-.517.87-.462 1.619.041.57.615 1.138.809 1.849.167.609.055 1.289.231 1.734.502 1.268 1.955 1.761 2.543 3.005.966.267 1.813-.024 2.659.116.637.105 1.041.543 1.618.578.929.056 1.668-.637 2.774-.462 2.972 2.194 6.728-1.743 8.208-3.583.057-.405.172-.752.115-1.271 1.203-.925 1.778-2.045 1.618-3.583-.058-.563-.395-1.008-.462-1.502-.545-3.982.476-7.538 1.387-10.057.596-1.648 1.536-3.27 1.734-4.624.658-4.495-4.804-2.905-8.323-3.468-.546-1.188-.574-2.894-1.04-4.162.333-1.294 1.331-1.959 1.965-2.89.266-.39.374-1.015.693-1.503.386-.587.892-.893 1.041-1.387.391-1.299.628-5.643.231-7.513-.281-1.325-1.974-2.781-1.271-4.624.736.112.932.764 1.387 1.156 1.489-1.658 2.319-4.216 3.583-6.589.569-1.069 1.15-2.221 1.618-3.468.469-1.248 1.272-2.593 1.503-3.699.35-1.682.285-3.643.231-5.086-.079-2.128-1.45-3.78-1.965-5.548-1.05-.446-1.327-1.308-2.312-1.618-1.26-.396-5.138-.391-6.011-.116-1.652.521-2.353 2.166-3.352 3.236-.893.957-2.009 1.384-2.428 2.196-.457-2.742.092-5.435-.69-7.745z"/><path fill="#FFF" d="M120.423 51.103c0 1.388-.703 3.073-1.041 4.508h-3.814c-.006-1.278.252-2.291.231-3.583 1.554-.297 3.181-.519 4.624-.925zm83.459 11.906c-2.599-.832-3.146-7.382-.809-9.363 2.162 1.578 3.177 7.182.809 9.363zm-96.29 1.271c-2.495-2.192-1.583-7.52.347-9.594 2.517 1.824 2.363 8.131-.347 9.594z"/><path d="M171.632 69.829c.419-.813 1.535-1.24 2.427-2.197.999-1.071 1.7-2.716 3.353-3.236.873-.275 4.75-.282 6.011.116.985.311 1.262 1.172 2.312 1.619.516 1.769 1.886 3.42 1.965 5.548.053 1.443.119 3.403-.231 5.086-.229 1.105-1.034 2.451-1.502 3.699-.468 1.246-1.049 2.398-1.618 3.468-1.265 2.374-2.095 4.931-3.583 6.589-.456-.392-.651-1.044-1.388-1.156-.702 1.843.991 3.3 1.272 4.624.397 1.871.16 6.215-.231 7.514-.148.494-.655.799-1.041 1.387-.319.488-.427 1.113-.693 1.502-.634.931-1.632 1.596-1.965 2.89.466 1.268.494 2.973 1.04 4.161 3.519.563 8.981-1.027 8.323 3.468-.198 1.354-1.137 2.975-1.733 4.624-.912 2.519-1.932 6.075-1.388 10.057.068.495.404.94.463 1.502.16 1.539-.416 2.659-1.618 3.584.057.519-.059.866-.116 1.271-1.479 1.841-5.235 5.777-8.208 3.583-1.105-.174-1.845.519-2.774.462-.578-.035-.981-.473-1.619-.578-.846-.14-1.692.151-2.659-.116-.588-1.244-2.041-1.738-2.543-3.005-.176-.445-.065-1.125-.231-1.734-.194-.711-.769-1.279-.81-1.85-.054-.748.329-1.099.463-1.619.149-.582-.009-1.056.231-1.502.249-.463.66-.56 1.04-.925.749-.719 1.403-1.567 3.121-1.387.669.07 1.831.524 2.543.925.657.37.928.958 1.618.925 2.702-.132 2.386-6.952.462-8.092-2.627-1.011-6.589.488-8.438-1.041-1.462-1.208-1.442-3.092-2.081-5.201-2.996-.427-5.83.239-6.126 2.89.802 2.189 3.842 3.71 3.005 6.82-.292 1.083-2.119 2.078-3.005 2.89a76.561 76.561 0 0 0-3.006 2.89c.635 1.358.303 3.236-.462 4.162-.38.121-.946.055-1.271.231-.208.254-.101.823-.231 1.156-1.061.548-1.976 2.086-3.699 2.427-1.27.252-4.149.291-5.896 0-.422-.07-.763-.411-1.156-.462-1.87-.243-3.087.655-4.162-.693-.14-.175-.11-.576-.231-.81-.472-.914-1.376-1.557-1.503-2.081-.281-1.163.426-2.82-.694-3.583.098-3.213 1.884-5.836 5.086-5.086.688.161 1.068.916 1.734 1.156.271.098.698-.087 1.04 0 .827.212 1.058.708 1.85.578.801-.132 1.319-1.018 1.734-1.502.764-.893 1.76-1.413 1.271-3.237-.389-1.455-1.917-3.231-3.005-4.739-1.163-1.612-2.489-3.059-3.236-4.393-.342-2.5 1.083-3.998 2.427-5.202 1.651-1.479 4.975-3.149 7.167-4.508 1.18-.731 2.19-1.277 3.814-2.081 1.13-.559 3.447-1.409 3.468-2.312.03-1.29-3.347-2.306-4.508-2.89-3.616-1.818-6.75-3.436-9.017-6.589-1.762-.365-2.645.207-3.352 1.156-1.191-.196-3.271.497-3.583-.578-1.506.571-3.629.993-5.549.578-1.248-.27-2.131-1.656-3.005-1.965-.478.073-.678.602-1.156.347-1.012-1.131-.066-3.773-2.312-3.815-.538-1.955.301-2.836 1.156-3.93-.389-.845-1.014-.729-1.156-1.503-.23-1.249 1.432-2.303 3.121-2.196.264-.579.026-1.326 0-1.965 1.552-1.633 5.261-.672 6.127.809.338 1.28.405 2.832.347 4.508 1.423.174 2.833.493 3.93 0 1.049-.471 1.17-1.838 1.85-2.543-.811-1.27-1.397-2.764-2.428-3.814-1.873.062-2.491-1.131-3.236-2.196-.18-.487.642.025.462-.462-2.331-.925-4.456-3.027-4.854-6.011-.317-2.371.609-5.285 2.081-6.82.813-.848 2.048-.811 2.196-2.196 1.64 1.111 2.688-.905 3.699-.925 1.292-.025 1.431 1.758 2.312 2.659.812.272.464-.615 1.156-.462 3.023 1.973-.006 5.909-1.271 7.398 1.616 1.735 3.54 3.165 5.548 4.508 2.069.027 4.042-.043 5.317-.81.376-.772.029-1.563-.347-2.196a35.928 35.928 0 0 1-4.046 0c-1.383-.81-2.999-2.817-2.312-5.664.273-1.131 1.017-2.806 2.312-2.543-.406 3.374 1.434 4.5 3.121 5.78.411-.129.172-.908.694-.925-.57-2.014-.018-4.651.809-6.011 1.035-.333 2.557.006 3.699-.231 1.342-.278 2.619-1.782 4.277-2.081 1.643-.296 3.916.35 5.779.116.85-.105 1.783-.741 2.89-.347 1.469.523 1.789 2.846 2.427 4.508.264.686.788 1.335 1.041 2.081.782 2.309.233 5.002.694 7.744zm-4.624-12.484c-.823-.263-1.458.291-2.196.347-2.551.194-5.847-2.066-6.82.347.699.881 3.567-.408 3.352 1.388-.374.401-.667-.401-1.041 0-.106.669-.274 1.939-1.271 1.849-1.084-.098-.902-2.363-2.428-2.543-.593-.07-.942.258-1.503.347-1.319.209-2.991.066-3.93 1.271.341.43.204 1.337.231 2.081 2.286.99 6.688-.139 7.051 2.774-.563 1.73-2.556 2.316-4.971 1.85-.507-.302-.71-.908-1.502-.925-.238 1.024-.516 2.123.116 2.89 1.401.21 2.419-.405 3.699-.462 1.928-.086 3.802 1.218 5.78.578.977-.565 1.174-1.908 1.618-3.005.709 3.035-.852 5.88-3.93 4.739-.471-.174-.679-.773-1.156-.925-1.425-.453-3.924.261-5.896.694-1.845.404-3.824.756-4.971 1.271-1.555.699-3.103 2.08-3.814 3.814 1.519.759 2.199-.634 3.237-.578-.059.674-.592.873-.578 1.618.996.852 4.38 1.896 4.277-.578-1.534-.045-2.053-1.107-2.89-1.85 1.075-.352 1.639-1.828 3.005-1.503-.009.201.026.36.116.462-.527.475-1.372.632-1.387 1.619 1.256.208 2.333.595 3.93.462.975-.307 1.223-1.923 2.081-1.965.523.016.465.614.462 1.156-.656 1.887-4.585.501-4.162 3.468.872.731 2.673.715 3.93.462.848-.732 1.271-1.887 1.618-3.121.228-.229.661-.073.925 0 .36 1.389-.935 1.536-.694 3.121 1.555.314 4.121-.133 4.393-1.85-.317-.685-1.904-.099-2.543-.462.549-.915-.061-2.989 1.387-3.005-.112.587-.36 1.099-.115 1.734.821.258 2.11.047 3.121.116.877-.51 1.029-1.746 1.849-2.313.154.116.431.109.462.347-.756 1.208-1.296 2.634-2.774 3.121-.632 1.449-1.935 2.227-2.312 3.93 1.681.174 3.041-.634 3.931-1.734.457-.564.705-2.111 1.849-1.271-.848 1.76-1.242 3.547-3.236 3.93-.643.124-1.437-.209-2.196 0-.486.134-1.554 1.251-2.196 1.85-1.029.96-2.041 1.936-1.85 3.699 3.182-.055 4.389-2.084 5.086-4.624.416-.065 1.164-.291 1.387.116-1.22.762-2.501 3.963-1.041 5.549 2.261-.439 1.314-4.694 2.89-5.433.226 1.767-1.149 1.933-.81 3.814.658.828 1.279 2.238 2.312 2.312.74-2.809.352-5.583.925-8.554.155-.803.729-1.514.924-2.312.752-3.079.859-7.236.694-10.866-.093-2.045.194-3.582-.925-4.509-.968.337-3.842 1.636-3.237-.693 1.938.01 3.137-2.82 1.737-4.045zm-29.592 1.04c-.259.402.315.794.694.925.453-.46-.031-1.339-.694-.925zm-1.503.925c-.446-2.377-2.226.979 0 0zm3.468.347c.278 1.108.462 2.312.809 3.352 1.16-.822 1.261-3.842-.809-3.352zm-2.196.231c-.006.148-.148.161-.115.347.042.3-.053.725 0 1.156.227 1.868 1.135 4.725 0 6.242-1.796-.747-1.464-3.622-2.775-4.855-1.257.261-1.865-.045-3.005.116.244 1.77-.211 3.483.809 4.739.274.339.852.426 1.156.693.545.479.645 1.298 1.387 1.387.436.258 1.416-.028 1.618.463.306.958-.462 1.538-.462 2.543.706.998 1.881.191 2.774.578 1.428.619 1.812 4.08 3.699 3.814-.008-1.11-1.203-1.032-1.272-2.081.567-1.09 1.876-1.438 2.543-2.428-.991-2.611-4.719-3.271-5.202-6.242-.357-2.199 1.448-4.499.116-6.474-.424.002-.848.002-1.271.002zm-2.891 1.271c.724 1.088 1.319 2.303 2.312 3.121-.025-1.177-.484-5.182-2.312-3.121zm13.294 4.508c.303-.618-.696-.604-1.04-.924-.468-.727-.736-1.653-1.619-1.965.02 1.759 1.382 2.772 2.659 2.889zm6.011-1.387c.498.312 1.297.32 2.081.347.343-.967-2.193-1.46-2.081-.347zm-1.619.116c.153-.001.106-.203.231-.231-.014-.294-.168-.448-.462-.462-.16.158-.11.696.231.693zm2.082 1.965c.815.006 1.728.109 1.965-.462-.602-.169-1.076-.465-1.965-.347-.153.359.031.33 0 .809zm28.204 16.762c.559-.752 1.295-1.583 1.734-2.428 1.87-3.594 2.841-10.508-.116-13.64-1.583-.82-3.392-2.006-5.664-1.156-3.338 1.898-5.862 4.895-6.358 9.363-.352 3.167.417 5.133 1.271 7.398.478 1.269.959 2.674 1.502 3.814 1.185 2.484 2.64 4.895 3.121 7.398.641 3.336-.438 5.178-1.618 7.282-.84.42-1.149 1.128-2.081 1.271-2.615.402-3.655-1.376-4.854-2.774-1.667-1.942-2.942-4.021-3.699-6.705-.428-1.518-.396-3.092-.925-4.393-.946.364-1.412 1.209-2.428 1.503-.979-.639-.917-2.319-1.965-2.89-.865.249-3.364.366-4.739.116-.033-.734.771-1.856-.116-2.081-1.609 1.263-.102 4.808-2.312 5.433-1.333.377-2.383-.225-4.161 0 2.058 3.262 5.894 4.421 8.669 6.82 1.327 1.146 2.746 2.74 3.699 4.276 2.297 3.707 2.042 9.565 3.468 14.565 1.164 1.408 3.732.887 5.78 1.387 1.413.345 2.055 1.381 3.121 1.85 2.016 2.587 2.978 10.855-.809 12.138-2.32-.142-7.425-1.72-6.358 1.734.791.085 1.011-.692 1.734-.925 1.323-.427 2.997.24 4.509.231.626 1.724-1.882 1.16-2.313 2.196v1.387c1.108-.318 1.481-1.37 3.237-1.04 1.516.3.455 2.51 1.387 3.005.46.245 1.429-.323 2.081-.694 1.243-.708 3.091-1.964 3.121-3.352.019-.888-.841-1.05-.347-1.85 1.225.056 2.273-.55 2.081-1.619-.166-.917-1.824-1.012-1.965-1.965.867-3.311 1.716-6.949 2.89-9.941.338-.861 1.192-2.476 1.156-3.236-.135-2.882-3.914-1.644-6.358-2.196-1.364-.309-3.179-1.26-3.583-2.428-.466-1.345.157-3.163-.116-4.624-.143-.77-.769-1.052-.693-1.849 3.196-.629 5.25-3.095 5.664-6.126.624-4.558-1.109-7.499-2.427-10.866-.875-2.23-2.161-4.301-2.89-6.357-.633-1.787-.683-5.419-.231-7.398.3-1.316.969-3.135 1.733-4.277.976-1.459 4.188-3.926 6.358-2.196 1.552 4.807-4.563 5.544-3.121 10.635 1.021-.289 1.494-1.125 2.312-1.618.591-1.018.676-3.839 1.965-3.468 1.009.291-.009 2.457-.347 3.121-1.801 1.705-3.963 3.049-3.814 6.704 1.008.302 1.749-.526 2.312-1.04.653-1.179.748-3.852 2.081-4.046.251 1.646-.477 3.066-1.387 4.277-.908 1.208-2.461 1.8-1.271 3.237.924-.133 1.504-1.187 2.08-1.963zm-4.739-14.45c-1.44.97-3.06 3.859-3.353 6.242-.392 3.198.433 6.977 2.082 7.629.682-.396.673-1.484.693-2.543-.429-.541-.857-.672-1.041-1.271-1.311-4.285 4.05-6.161 4.624-9.363-.464-1.255-1.942-1.409-3.005-.694zm-49.243 8.092c.338-.03.355.261.693.231.16-.149.114-.502.116-.809-.373-.167-.83.03-.809.578zm2.08.115c.225.584.961.657 1.503.925a1.317 1.317 0 0 0 0-1.041c-.676.013-1.044-.221-1.503.116zm11.444 2.312c.871 1.209 3.5.361 4.277-.578-.742-2.494-3.539-.783-4.277.578zm3.237 2.081c-3.227.318-6.511 2.595-10.172 2.081-2.875-.404-2.847-4.825-4.97-4.971-1.248-.085-1.502 1.227-1.734 1.85 1.032 1.319 2.761 1.94 3.583 3.468.638.21 1.521.174 1.387 1.156-1.738.027-4.786-1.556-4.855 1.387-.481-.019-.964-.04-1.156.231-.228.414.054.617 0 1.156.493.218.918-.514 1.502-.578 1.271 1.097 3.145 1.966 5.318 1.618 1.354-.217 2.559-2.121 4.045-1.503.127.824-.261 1.477 0 2.081 1.318.342 2.333-.586 2.659-1.619 3.992-.269 8.123.13 12.021-.347.605-1.066 1.89-1.891 1.734-3.353-1.212-.329-3.178.095-4.393-.231.09-.565.428-.883.347-1.618-1.327.588-2.982.066-4.624 0-.366-.132-.145-.854-.692-.808zm1.965-2.312c-.116.489-.206 1.264 0 1.734 1.583.034 3.772.083 3.814-1.04-.817-.795-2.5-1.024-3.814-.694zm-20.691.347v.693c.586.107.804.096 1.156-.231v-.694c-.491-.027-.819.107-1.156.232zm26.24.347c-.646.587-.733 1.733-.925 2.774 2.418.244 4.389-.501 4.739-2.658-1.036-.342-2.621-.252-3.814-.116zm3.698 4.161c.93-1.286 3.631-1.569 2.89-3.815-2.385-.607-3.281 1.262-2.89 3.815zm13.41 8.438c-.559-.02-.621-.535-1.271-.462-.909 1.164-.289 2.917.347 4.277.701 1.5 2.233 2.733 2.774 3.814 1.379.11 2.864.237 3.931-.231 1.112-1.692 1.547-3.803.925-6.126-.505-1.886-1.831-4.306-2.774-6.589-1.041-2.518-2.039-5.17-2.89-6.82-.006-.07-.017-.137-.116-.116-.586 3.809-.653 8.134-.926 12.253zM127.59 81.966c-.243.451-.058 1.33-.116 1.965.839.068 1.212-.329 1.85-.462-.2-.878-.605-1.552-1.734-1.503zm-2.08 1.966h.693c.115-.348.409-.516.347-1.041-.842-.148-1.042.346-1.04 1.041zm35.487 21.5c.302-1.779-.616-4.306-2.312-4.855.172 1.759 1.398 3.454 2.312 4.855zm-.694.578c-.609-1.387-1.068-3.19-2.312-3.353-1.524-.198-2.975.597-4.393 1.041-3.396 1.062-6.751 2.997-8.901 4.854-1.339 1.157-2.609 2.509-1.734 4.739.49 1.249 1.818 2.561 2.774 3.931.889 1.272 2.176 3.013 2.313 4.508.189 2.084-1.245 4.403-2.313 5.549-.854.918-3.124 2.656-4.508 2.659-.427.001-.951-.387-1.503-.462-1.226-.168-2.357-.139-3.237.578-.049.819-.034 1.576.463 1.85 1.038-1.053 3.099-.757 4.854-.925.594-.057 1.072-.534 1.503-.116.168.375.209 1.481 0 1.85-1.232.088-2.874.349-2.427 1.734.842-.358 2.425-.366 3.121.578.133.483.114 1.12.462 1.387 1.957.352 4.62-1.07 4.855-2.659.123-.831-.579-1.315-.347-2.196.917-.355 1.323.43 2.312.347.554-.93-.303-1.652-.578-2.428 1.033-2.62 4.304-3.282 5.086-5.895.92-3.075-1.901-4.965-1.85-8.208 1.195-2.773 4.598-3.34 7.745-4.161.237-1.047-1.146-.473-1.503-.925-.867-1.21-.393-2.977.118-4.277zm.347 2.428c1.399.099 1.16-1.41.925-2.427-.913-.258-1.105 1.59-.925 2.427zm-23.581 20.575c.25-.251.674-.327 1.04-.462.333.425.817.509 1.387.231.466-2.373-4.091-1.6-2.427.231zm-2.544-.115c.24.029.032.507.231.578.679-.014.992-.395.925-1.156-.42-.247-.911.278-1.156.578zm31.789.462c.04.617-.492.884-.231 1.387.606-.135 2.11-.243 2.427-1.04-.392-.724-1.35-.535-2.196-.347zm-31.21 4.277c.813-.093 1.092-1.004.924-1.734-1.151-.794-2.049 1.188-.924 1.734zm2.774.578c.491.242.932.532 1.619.578v-.925c.365-.444.653-.966 1.156-1.271.22-.242.857-.067.693-.693-1.513-.049-4.022-.092-3.468 2.311zm26.702 1.157c.514-.127.843.279 1.156 0-.098-.711-.271-1.348-.578-1.85-.424.385-.685.933-.578 1.85zm2.89-1.272c-.701 1.386.697 3.104 1.965 2.543-.083-.534-.269-.964-.347-1.502.125-.53.844-.467.809-1.156-.497-.884-1.828-.239-2.427.115zm-30.864.809c-.256.609.424 1.637 1.271 1.156.178-.934-.731-1.316-1.271-1.156zm4.393.463c-.088.627.183.895.116 1.502.701-.031 1.589.125 1.965-.231a2.495 2.495 0 0 0-.116-1.04c-.781-.072-1.211-.767-1.965-.231zm30.748.924c-.111.621-.552.913-.462 1.734 2.367 1.026 3.444-2.379.462-1.734zm-4.739 1.965c.519-.059.664-.492.81-.925-.327-.174-.493-.509-.925-.578.046.493-.113 1.191.115 1.503z"/><path fill="#FFF" d="M198.912 59.426c-3.389 1.806-7.945-.184-9.479-2.428 3.444-1.456 8.095-.213 9.479 2.428z"/><path fill="#B7774B" d="M165.274 61.391c-.606 2.329 2.268 1.03 3.236.693 1.12.927.832 2.464.925 4.509.165 3.629.058 7.787-.694 10.866-.195.798-.77 1.509-.925 2.312-.573 2.971-.185 5.745-.925 8.554-1.034-.074-1.655-1.484-2.312-2.312-.34-1.882 1.035-2.047.809-3.814-1.576.739-.629 4.994-2.89 5.433-1.46-1.585-.18-4.787 1.041-5.549-.224-.406-.972-.181-1.387-.116-.697 2.54-1.904 4.569-5.086 4.624-.19-1.763.821-2.739 1.85-3.699.642-.599 1.71-1.716 2.197-1.85.76-.209 1.553.124 2.196 0 1.995-.383 2.388-2.17 3.236-3.93-1.145-.84-1.393.707-1.85 1.271-.89 1.1-2.25 1.909-3.93 1.734.377-1.704 1.68-2.481 2.312-3.93 1.478-.487 2.018-1.913 2.774-3.121-.032-.237-.309-.231-.462-.347-.821.566-.972 1.802-1.85 2.313-1.01-.068-2.3.142-3.121-.116-.245-.635.003-1.146.116-1.734-1.448.016-.838 2.09-1.387 3.005.639.363 2.226-.223 2.543.462-.271 1.716-2.838 2.164-4.393 1.85-.241-1.585 1.053-1.732.693-3.121-.264-.074-.697-.229-.925 0-.346 1.233-.771 2.388-1.618 3.121-1.257.252-3.059.269-3.931-.462-.424-2.968 3.505-1.581 4.162-3.468.002-.542.061-1.14-.463-1.156-.858.042-1.106 1.658-2.081 1.965-1.596.132-2.673-.255-3.93-.462.015-.987.86-1.144 1.387-1.619-.09-.103-.125-.261-.115-.462-1.366-.325-1.931 1.151-3.006 1.503.837.743 1.356 1.804 2.89 1.85.103 2.474-3.281 1.43-4.277.578-.014-.746.52-.944.578-1.618-1.038-.056-1.719 1.337-3.237.578.712-1.735 2.26-3.115 3.814-3.814 1.146-.516 3.126-.867 4.971-1.271 1.971-.432 4.47-1.146 5.896-.694.477.151.686.75 1.156.925 3.078 1.141 4.639-1.705 3.93-4.739-.444 1.097-.642 2.44-1.618 3.005-1.978.64-3.852-.664-5.78-.578-1.28.057-2.297.672-3.699.462-.632-.767-.354-1.865-.116-2.89.793.017.996.623 1.503.925 2.414.466 4.408-.12 4.971-1.85-.362-2.913-4.766-1.784-7.051-2.774-.027-.743.109-1.651-.231-2.081.938-1.206 2.611-1.063 3.93-1.272.561-.089.91-.417 1.502-.347 1.526.179 1.344 2.445 2.428 2.543.997.09 1.165-1.18 1.271-1.849.374-.401.667.401 1.041 0 .215-1.795-2.653-.507-3.353-1.388.973-2.413 4.269-.152 6.82-.347.737-.056 1.374-.61 2.196-.347 1.403 1.225.204 4.055-1.731 4.046z"/><path fill="#FFF" d="M121.811 57.576c-1.337 2.595-5.565 4.365-9.363 3.005 1.007-2.995 5.653-4.175 9.363-3.005z"/><path fill="#B7774B" d="M138.109 59.31c-.379-.131-.952-.522-.693-.925.663-.414 1.147.465.693.925zm-2.196 0c-2.226.979-.446-2.377 0 0z"/><path fill="#FFF" d="M207.466 69.135c-2.739-1.894-2.532-8.506.115-10.288 1.808 2.497 2.29 8.052-.115 10.288z"/><path fill="#B7774B" d="M140.19 63.009c-.347-1.04-.531-2.244-.809-3.352 2.07-.49 1.969 2.53.809 3.352zm-1.734-3.121c1.333 1.975-.473 4.274-.116 6.474.483 2.97 4.211 3.631 5.202 6.242-.667.99-1.976 1.337-2.543 2.427.068 1.049 1.264.971 1.271 2.081-1.887.266-2.271-3.196-3.699-3.814-.893-.387-2.068.42-2.774-.578 0-1.005.768-1.585.462-2.543-.203-.491-1.183-.205-1.619-.462-.742-.089-.841-.908-1.387-1.387-.304-.267-.881-.355-1.156-.694-1.021-1.256-.565-2.969-.809-4.739 1.14-.161 1.749.145 3.005-.115 1.311 1.233.978 4.108 2.774 4.854 1.135-1.517.228-4.374 0-6.242-.053-.432.042-.856 0-1.156-.033-.187.109-.199.115-.347l1.274-.001z"/><path fill="#FFF" d="M104.355 70.407c-2.832-1.803-2.329-7.828-.578-10.404 2.606 1.789 3.07 8.162.578 10.404z"/><path fill="#B7774B" d="M136.606 64.28c-.993-.818-1.588-2.033-2.312-3.121 1.828-2.061 2.287 1.944 2.312 3.121z"/><path fill="#FFF" d="M202.842 64.396c-3.383 1.694-8.044-.115-9.479-2.543 3.582-1.328 8.131-.108 9.479 2.543zm-84.731-1.734c-1.435 2.484-5.797 4.505-9.479 2.89 1.129-2.83 5.759-4.136 9.479-2.89z"/><path fill="#B7774B" d="M144.929 62.778c.882.313 1.15 1.239 1.619 1.965.344.321 1.343.306 1.04.924-1.277-.117-2.639-1.13-2.659-2.889z"/><path fill="#33A5D0" d="M155.68 64.627c-.783-.026-1.583-.036-2.081-.347-.112-1.113 2.424-.62 2.081.347zm-3.93-.924c.294.014.448.168.462.462-.125.029-.079.23-.231.231-.342.003-.392-.535-.231-.693z"/><path fill="#FFF" d="M211.512 64.627c1.828 2.729 1.364 8.454-.925 10.288-2.542-2.34-1.229-8.553.925-10.288z"/><path fill="#33A5D0" d="M154.062 65.552c.889-.119 1.363.178 1.965.347-.237.572-1.15.468-1.965.462.031-.479-.153-.45 0-.809z"/><path fill="#B7774B" d="M180.186 85.087c-1.189-1.437.363-2.028 1.271-3.236.911-1.211 1.638-2.631 1.387-4.277-1.333.194-1.428 2.867-2.081 4.045-.564.514-1.304 1.342-2.312 1.041-.149-3.655 2.014-4.999 3.814-6.705.338-.664 1.356-2.831.347-3.121-1.289-.371-1.374 2.451-1.965 3.468-.817.493-1.291 1.329-2.312 1.619-1.442-5.091 4.673-5.828 3.121-10.635-2.169-1.729-5.382.736-6.358 2.196-.764 1.143-1.434 2.961-1.734 4.277-.452 1.979-.402 5.612.231 7.398.729 2.057 2.016 4.126 2.89 6.358 1.319 3.367 3.051 6.309 2.427 10.866-.415 3.031-2.468 5.498-5.664 6.126-.075.797.55 1.08.693 1.85.272 1.46-.35 3.278.116 4.624.405 1.167 2.219 2.119 3.583 2.427 2.444.553 6.223-.686 6.358 2.196.036.76-.818 2.376-1.156 3.237-1.174 2.992-2.023 6.63-2.89 9.941.142.953 1.8 1.047 1.965 1.965.192 1.068-.856 1.674-2.081 1.618-.494.799.366.962.347 1.85-.03 1.388-1.878 2.644-3.121 3.352-.651.371-1.62.939-2.081.694-.932-.496.129-2.706-1.387-3.005-1.755-.33-2.128.723-3.236 1.04v-1.387c.43-1.037 2.938-.473 2.312-2.196-1.512.009-3.185-.658-4.509-.231-.723.233-.943 1.01-1.733.925-1.067-3.454 4.038-1.876 6.358-1.734 3.787-1.282 2.824-9.55.809-12.138-1.066-.468-1.708-1.504-3.121-1.849-2.048-.5-4.616.021-5.78-1.387-1.427-5-1.17-10.858-3.468-14.565-.953-1.537-2.372-3.131-3.699-4.277-2.775-2.398-6.612-3.558-8.67-6.82 1.778-.225 2.828.377 4.162 0 2.209-.625.703-4.17 2.312-5.433.886.225.083 1.347.116 2.081 1.375.25 3.874.133 4.739-.116 1.048.571.986 2.251 1.965 2.89 1.016-.294 1.481-1.139 2.427-1.503.528 1.3.497 2.875.925 4.393.757 2.684 2.031 4.762 3.699 6.705 1.2 1.397 2.24 3.176 4.855 2.774.932-.143 1.241-.852 2.081-1.272 1.181-2.104 2.259-3.946 1.618-7.282-.48-2.503-1.936-4.914-3.121-7.398-.544-1.141-1.024-2.546-1.502-3.815-.854-2.265-1.624-4.231-1.272-7.398.497-4.468 3.02-7.465 6.358-9.363 2.272-.85 4.081.336 5.665 1.156 2.956 3.132 1.986 10.046.115 13.64-.439.844-1.175 1.674-1.734 2.427-.575.776-1.155 1.83-2.079 1.964zM158.801 95.26c3.621-.729 1.411-5.592-.578-6.589-1.543.761.188 1.392.231 2.196.064 1.204-1.478 1.11-2.427 1.965v.462c1.06.95 1.559-1.026 2.312-1.156.538-.093 1.118.279 1.387.924.014 1.125-2.319 1.412-.925 2.198zm21.385 23.466c-.165.848-1.283 1.603-.694 2.428.853.201 1.088-1.001 1.387-1.619.48-.992 1.112-1.922.925-3.352-2.51-1.138-1.325 1.038-1.618 2.543z"/><path fill="#FFF" d="M101.466 76.302c-2.716-1.55-3.14-7.098-1.618-10.288 2.489 1.498 3.668 7.39 1.618 10.288zm104.728-6.473c-4.072 1.194-7.531-1.053-9.132-3.468 3.967-1.068 7.968.602 9.132 3.468zm-91.666-2.659c-1.343 2.547-5.073 5.261-9.132 3.814 1.253-2.942 4.893-4.615 9.132-3.814z"/><path fill="#33A5D0" d="M180.533 69.367c-.574 3.202-5.935 5.078-4.624 9.363.183.599.611.731 1.04 1.271-.02 1.059-.011 2.147-.693 2.543-1.648-.652-2.473-4.431-2.081-7.629.292-2.383 1.913-5.272 3.352-6.242 1.063-.715 2.541-.561 3.006.694z"/><path fill="#FFF" d="M214.864 71.101c1.383 3.23.662 8.016-1.965 9.479-2.144-2.794-.439-8.086 1.965-9.479zm-5.433 4.276c-3.856 1.257-7.572-.963-9.132-3.468 3.96-1.042 7.953.603 9.132 3.468zM99.27 82.082c-2.889-1.287-3.644-5.839-2.543-9.479h.231c2.396 1.504 4.11 6.247 2.312 9.479zm12.252-9.132c-1.583 2.546-5.012 4.944-9.132 3.814 1.023-3.113 5.124-4.823 9.132-3.814zm108.197 2.312c1.133 1.142 2.206 2.341 3.121 3.699-.701.917-1.302 1.934-1.965 2.89-1.011-.8-1.951-1.672-3.006-2.428a89.818 89.818 0 0 1 1.85-4.161z"/><path fill="#B7774B" d="M129.093 76.187c-.001.307.044.66-.116.809-.338.03-.355-.261-.693-.231-.021-.548.436-.745.809-.578z"/><path fill="#FFF" d="M211.858 81.735c-4.29.351-7.106-2.366-8.207-5.202 3.727-.233 7.595 1.943 8.207 5.202z"/><path fill="#B7774B" d="M131.867 76.765c.143.327.143.713 0 1.041-.542-.268-1.278-.341-1.503-.925.459-.338.827-.104 1.503-.116z"/><path fill="#FFF" d="M91.987 76.88c.884 1.119 1.337 2.67 2.081 3.93-.837 1.051-1.855 1.921-3.006 2.659-.561-1.019-1.243-1.917-1.965-2.774.846-1.389 2.023-2.447 2.89-3.815z"/><path fill="#B7774B" d="M146.085 78.614c-.777.938-3.407 1.787-4.277.578.738-1.361 3.535-3.072 4.277-.578z"/><path fill="#FFF" d="M108.401 77.689c-1.35 3.099-4.182 5.889-8.323 5.433.961-3.548 4.038-5.594 8.323-5.433z"/><path fill="#B7774B" d="M145.738 82.082c1.642.066 3.297.588 4.624 0 .081.735-.257 1.053-.347 1.619 1.214.326 3.181-.098 4.393.231.156 1.462-1.129 2.287-1.734 3.352-3.899.477-8.03.078-12.022.347-.325 1.032-1.341 1.96-2.659 1.618-.261-.604.127-1.257 0-2.081-1.486-.618-2.691 1.286-4.046 1.503-2.173.348-4.047-.521-5.317-1.619-.584.064-1.009.796-1.503.578.054-.539-.228-.743 0-1.156.191-.271.675-.25 1.156-.231.069-2.943 3.117-1.361 4.855-1.387.134-.982-.75-.946-1.387-1.156-.823-1.528-2.552-2.149-3.583-3.468.232-.623.487-1.935 1.734-1.85 2.123.146 2.096 4.567 4.971 4.971 3.661.515 6.946-1.763 10.172-2.081.547-.045.326.677.693.81zm-.231 3.237c-.894-.33-3.189-.437-3.583.462.316.47 1.105.664 1.734.693 2.115.1 5.05-.541 7.398-.347.222-.317.441-.637.462-1.156-2.016.104-4.514-.275-6.011.348z"/><path fill="#FFF" d="M225.73 78.614c.542.896.458 2.695.347 3.699-.263 2.367-1.964 4.501-3.583 5.317-1.65-3.633.794-7.607 3.236-9.016z"/><path fill="#B7774B" d="M150.825 79.655c-.042 1.124-2.232 1.074-3.814 1.04-.206-.47-.116-1.244 0-1.734 1.313-.33 2.996-.101 3.814.694zm-23.35-.579v.694c-.351.327-.57.338-1.156.231v-.693c.337-.125.665-.259 1.156-.232zm28.898.694c-.351 2.157-2.321 2.902-4.739 2.659.192-1.041.279-2.187.925-2.774 1.193-.136 2.778-.226 3.814.115zm2.774.231c.741 2.246-1.96 2.529-2.89 3.815-.391-2.553.505-4.422 2.89-3.815z"/><path fill="#FFF" d="M215.558 79.886c3.294 1.215 6.125 3.506 5.78 7.976-3.468-1.118-5.432-3.74-5.78-7.976z"/><path fill="#33A5D0" d="M170.591 80.001c.099-.021.109.045.116.116.852 1.65 1.849 4.302 2.89 6.82.943 2.283 2.269 4.703 2.774 6.589.622 2.324.187 4.434-.925 6.126-1.066.468-2.551.341-3.931.231-.541-1.082-2.073-2.314-2.774-3.814-.636-1.36-1.255-3.113-.347-4.277.651-.073.713.443 1.271.462.275-4.119.342-8.444.926-12.253z"/><path fill="#FFF" d="M89.906 89.364c-2.759-1.02-4.379-4.173-4.046-8.669a.546.546 0 0 0 .116-.347c2.878 1.295 5.155 5.094 3.93 9.016zm124.727-8.207c.608 1.091 1.487 3.369.347 4.508.325.446.42 1.121.694 1.618-.234.267-.384.618-.809.694-1.581-1.243-1.143-5.181-.232-6.82zm-118.369.232c.471 3.883-2.275 7.552-5.549 8.091-.098-4.645 2.431-6.664 5.549-8.091z"/><path fill="#B7774B" d="M129.324 83.469c-.638.133-1.011.53-1.85.462.058-.636-.128-1.515.115-1.965 1.13-.049 1.535.625 1.735 1.503z"/><path fill="#FFF" d="M213.708 87.631c-4.101.529-7.013-2.062-8.323-5.086 4.233-.224 7.202 1.813 8.323 5.086zM97.304 82.66c1.21 1.465 1.369 5.049.347 6.82-.566.026-.806-.272-1.041-.578.136-.596.222-1.242.578-1.618-1.064-1.145-.371-3.372.116-4.624z"/><path fill="#B7774B" d="M126.55 82.891c.063.524-.232.693-.347 1.041h-.693c-.002-.695.198-1.189 1.04-1.041z"/><path fill="#FFF" d="M106.783 83.7c-1.257 3.149-4.154 5.846-8.208 5.433.685-3.325 3.977-5.654 8.208-5.433zm120.566.925c.616.732.348 1.992.231 2.89-.356 2.72-2.047 5.162-4.277 5.896-.892-3.894 1.346-7.358 4.046-8.786z"/><path fill="#020202" d="M151.518 84.972c-.021.519-.24.838-.462 1.156-2.348-.195-5.283.446-7.398.347-.629-.029-1.417-.224-1.734-.694.394-.899 2.69-.792 3.583-.462 1.497-.623 3.995-.244 6.011-.347z"/><path fill="#FFF" d="M84.474 86.475c3.165 1.13 5.484 4.632 4.624 8.669-1.799-.364-3.888-2.7-4.393-4.97-.228-1.027-.148-2.15-.231-3.353v-.346zm118.831 0c1.303.932 2.186 2.283 3.352 3.352-.541 1.04-1.253 1.907-1.734 3.006a14.917 14.917 0 0 1-3.121-2.312c.437-1.413 1.059-2.64 1.503-4.046zm13.293.346c3.164 1.307 6.018 3.537 5.665 7.976-3.421-1.05-5.653-3.902-5.665-7.976zm-9.71.578c.59.104 1.175.211 1.618.462-.317.531-.563 1.132-1.156 1.387-.084-.685-.595-.946-.462-1.849zm-98.14.116c.786 1.179 1.163 2.767 1.85 4.045-.921.929-1.912 1.788-3.121 2.428-.573-.969-1.134-1.949-1.85-2.774.895-1.379 2.108-2.439 3.121-3.699zm-13.062.809c.038 4.162-2.068 7.178-5.549 8.207-.409-4.533 2.361-6.885 5.549-8.207zm113.86.115c2.148 1.243 3.912 2.87 4.046 6.127-1.616-.041-2.47-.843-3.468-1.503-.142-1.59-.686-2.781-.578-4.624zm-104.15.232c.077.848-.378 1.163-.462 1.85-.625-.222-.771-.924-1.271-1.271.349-.421 1.028-.513 1.733-.579z"/><path fill="#020202" d="M159.726 93.063c-.269-.645-.849-1.018-1.387-.924-.753.129-1.252 2.105-2.312 1.156v-.462c.95-.855 2.492-.762 2.428-1.965-.043-.805-1.774-1.436-.231-2.196 1.989.998 4.199 5.86.578 6.589-1.395-.787.938-1.074.924-2.198z"/><path fill="#FFF" d="M102.622 89.711c.372 1.605-.257 3.21-.347 4.739-1.056.601-1.733 1.581-3.468 1.503.137-3.214 1.861-4.843 3.815-6.242zm103.688 9.132c-1.48-3.219-.232-7.657 2.081-9.132.099-.021.109.045.116.115 1.793 3.127-.065 7.616-2.197 9.017zm8.669-7.976c.205 2.371.479 5.458.578 7.976.021.528-.198 1.159-.116 1.619.181 1.01 1.231 1.709 1.503 2.427-.768.966-1.509 1.959-2.543 2.659-.44-1.19-2.267-1.708-2.313-2.89-.036-.954 1.943-2.451 1.965-3.814-.193-2.465-.132-5.185-.231-7.745.032-.416.857-.448 1.157-.232zm-108.659 9.248c-2.321-1.39-4.297-5.856-2.543-9.132 2.626 1.194 3.913 5.725 2.543 9.132zm92.592-8.901c3.208 1.191 6.148 3.862 5.664 7.976-3.434-1.036-5.602-3.952-5.664-7.976zm29.939.116c-.271 4.237-1.954 7.063-5.433 8.091-.46-4.025 2.322-7.267 5.433-8.091zm-115.248.924c-.335 4.25-2.128 7.042-5.664 8.092-.453-4.503 2.528-7.178 5.664-8.092z"/><path fill="#FFF" d="M98.46 92.37c.487 2.534-.256 5.313.116 7.745.265 1.733 1.51 2.841 2.196 3.931-.697 1.075-1.664 1.881-2.312 3.005-1.126-.608-1.648-1.82-2.774-2.428.532-.816.955-1.743 1.502-2.543-.262-3 .042-6.429.116-9.479-.097-.543.93-.373 1.156-.231zm117.907-.116c3.343 1.108 6.029 3.908 5.779 7.86-3.355-.654-5.693-3.936-5.779-7.86zm-127.154 8.901c-3.412-.635-5.358-3.734-5.78-7.745-.019-.134.026-.205.116-.231 3.118.854 6.08 3.958 5.664 7.976zm6.704-7.398c.495 3.851-2.267 7.397-5.317 8.092-.883-3.945 2.492-6.926 5.202-8.092h.115zm114.67 3.121c.121 1.162-.017 3.22-.347 3.93-1.014 0-.815-1.39-1.965-.925-.613 1.206-.187 3.319-.116 4.855-.71.33-.946 1.134-1.965 1.156-.825-4.447 1.461-7.576 4.393-9.016zm18.264 1.156c-.33 4.178-1.966 7.051-5.433 8.092-.45-4.423 2.391-7.16 5.433-8.092zm-126.923.231c3.145 1.271 5.622 4.938 4.624 8.901-.86-.143-1.282-.722-1.85-1.156-.084-1.611.208-3.599-.231-4.855-1.248-.285-1.188.737-1.849 1.041-.823-.703-.673-2.787-.694-3.931zm97.331 0c3.532.956 6.132 3.884 5.895 7.86-3.626-.959-5.407-3.762-5.895-7.86zm17.57.694c.974.413 1.706 1.069 2.659 1.503-.536.62-.999 1.313-1.734 1.734-.502-.819-1.065-2.159-.925-3.237zm-103.457.231c-.307 4.111-2.158 7.223-5.78 8.092-.274-4.053 2.254-7.092 5.78-8.092zm-29.708.694c3.498 1.05 6.088 3.621 5.78 8.091-3.604-1.019-5.335-3.912-5.78-8.091zm12.022.577c.384 1.272-.367 2.406-.694 3.353-.767-.427-1.279-1.11-1.85-1.734.921-.467 1.712-1.063 2.544-1.619z"/><path fill="#B7774B" d="M158.685 100.577c1.696.549 2.614 3.076 2.312 4.855-.914-1.401-2.14-3.096-2.312-4.855z"/><path fill="#FFF" d="M220.528 101.618c1.051 1.145 2.229 3.133 1.849 4.97-.894-.224-1.782-.452-2.427-.925 0-1.541-.062-3.144.578-4.045zm-11.213.693c2.84 1.188 4.419 4.668 3.931 8.438-2.571-1.414-4.671-4.477-3.931-8.438z"/><path fill="#B7774B" d="M160.188 110.287c.357.452 1.74-.122 1.502.925-3.147.821-6.549 1.388-7.745 4.162-.052 3.242 2.77 5.132 1.85 8.207-.782 2.613-4.053 3.275-5.086 5.896.274.775 1.131 1.497.578 2.428-.988.083-1.395-.703-2.312-.347-.232.881.469 1.366.347 2.196-.235 1.589-2.898 3.01-4.855 2.659-.349-.268-.329-.904-.462-1.387-.695-.943-2.279-.936-3.121-.578-.447-1.385 1.195-1.646 2.427-1.734.209-.369.168-1.475 0-1.85-.431-.418-.909.059-1.503.116-1.756.167-3.816-.128-4.854.925-.497-.273-.512-1.03-.463-1.849.879-.717 2.011-.746 3.237-.578.552.075 1.076.463 1.503.462 1.384-.002 3.653-1.741 4.508-2.659 1.068-1.146 2.502-3.465 2.313-5.549-.136-1.496-1.424-3.235-2.313-4.508-.956-1.37-2.284-2.681-2.774-3.93-.875-2.231.395-3.582 1.734-4.739 2.15-1.857 5.504-3.792 8.901-4.855 1.417-.444 2.868-1.239 4.393-1.04 1.244.162 1.702 1.965 2.312 3.352-.513 1.298-.987 3.065-.117 4.275zm-7.86 13.872c2.703.526 3.784-3.032 1.271-3.583.259 1.877-1.101 2.134-1.271 3.583z"/><path fill="#FFF" d="M92.103 103.352c.916.664.548 2.611.81 3.93-.644.512-1.575.737-2.428 1.04-.488-1.85.661-3.819 1.618-4.97zm126.807.115c.324 3.994-1.988 6.943-4.508 8.091-.238-3.918 1.533-7.389 4.508-8.091zm-115.479.116c.987 3.784-1.213 7.22-3.699 8.669-.738-3.958.891-7.493 3.699-8.669zm125.42 1.155c-.251 3.873-2.372 6.875-6.011 7.745-.12-4.244 2.62-6.626 6.011-7.745zm-134.899.116c3.041 1.2 4.912 4.178 4.624 8.323-2.711-1.465-5.242-4.293-4.624-8.323zm105.538.347c3.506.991 6.102 3.902 5.896 7.86-3.682-.904-5.401-3.77-5.896-7.86z"/><path fill="#B7774B" d="M161.575 106.01c.235 1.017.474 2.526-.925 2.427-.18-.836.012-2.684.925-2.427z"/><path fill="#FFF" d="M113.256 106.125c-.038 4.086-2.093 7.153-5.548 8.208-.643-3.937 2.228-7.104 5.548-8.208zm-23.003 8.092c-3.89-.695-5.634-3.536-6.473-7.282-.019-.134.025-.206.115-.231 3.371.715 6.406 3.379 6.358 7.513zm131.2-1.386c-.625-.108-.875-.589-1.502-.694.264-1.208.844-3.344-.231-3.931.277-.57.361-1.333 1.156-1.387.449 1.623 1.49 4.139.577 6.012zm-129.35-4.393c.693.116.714.904 1.156 1.271-1.157.693-.51 2.922-.115 4.046-.555.216-.978.563-1.503.81-1.045-1.645-.187-4.709.462-6.127zm115.71.231c3.086 1.191 4.671 3.883 4.739 8.092-2.885-1.319-5.025-3.987-4.739-8.092zm11.328 1.156c.143 3.998-2.293 6.414-5.202 7.745.235-4.081 1.892-6.74 5.202-7.745zm-114.207.115c.513.297.392 1.241.347 1.734-.272 2.979-2.414 5.439-4.624 6.589-.315-4.054 1.355-7.12 4.277-8.323zm-5.664 9.132c-3.03-1.223-5.766-3.924-5.433-7.745 3.349.97 5.302 3.942 5.433 7.745zm129.003-7.629c.311.883-.427 1.854-.809 2.659-1.045 2.195-3.137 4.08-5.78 4.393 0-4.01 3.224-6.408 6.589-7.052zm-28.668.809c3.402 1.135 5.915 3.678 5.896 7.861-3.792-.658-5.706-4.365-5.896-7.861zM91.64 120.113c-3.945-.18-6.065-3.181-7.167-6.589-.019-.134.025-.206.116-.231 3.643.443 6.792 2.993 7.051 6.82zm21.732-6.936c.153 3.838-2.029 7.277-5.549 8.207-.403-4.527 2.362-6.885 5.549-8.207zm106.462.231c1.148 1.104 1.488 3.583.925 5.433-.457-.005-.67-.255-1.041-.347.261-1.461-.486-3.69.116-5.086zm-12.715 1.503c3.145 1.132 4.697 3.857 4.739 8.091-2.829-1.377-5.01-3.997-4.739-8.091zm-114.092.116c1.067.97.075 3.664.462 5.086-.276.186-.544.38-1.04.347-.692-1.772-.185-4.11.578-5.433z"/><path fill="#020202" d="M181.804 116.182c.187 1.43-.444 2.36-.925 3.353-.299.618-.534 1.819-1.387 1.618-.589-.824.529-1.58.694-2.427.293-1.505-.892-3.681 1.618-2.544z"/><path fill="#FFF" d="M105.974 116.066c.595 3.968-1.664 7.03-4.508 8.324-.198-4.033 1.43-7.187 4.508-8.324zm112.82.232c-.141 3.753-2.636 6.148-5.896 7.167.594-3.762 2.342-6.368 5.896-7.167zm7.86 1.387c.369 1.722-1.198 3.499-1.965 4.855-1.36.854-2.892 2.446-4.624 2.196.37-4.177 3.091-6.003 6.589-7.051zm-126.229 7.282c-3.291-1.066-5.952-3.369-6.126-7.167 3.676.68 5.786 3.538 6.126 7.167zm104.614.694c-.744.372-2.342-.024-3.583.116-1.05-1.879-1.377-4.479-1.965-6.82a.582.582 0 0 0 .347-.346c2.301 1.643 5.902 3.166 5.201 7.05zm-111.665.81c-4.179-.483-6.059-3.266-7.167-6.82 3.85.275 6.929 2.933 7.167 6.82zm20.345-6.59c-.394 2.458-.85 4.854-1.619 6.936-1.241-.072-2.884.378-3.699 0-.879-3.985 2.896-5.256 4.739-7.283.241.069.375.243.579.347zm105.537.116c.71.884.439 2.714.231 3.931-.586.046-.845-.234-1.155-.463.577-.932-.145-2.847.924-3.468z"/><path fill="#020202" d="M153.599 120.575c2.513.552 1.432 4.109-1.271 3.583.17-1.448 1.53-1.705 1.271-3.583z"/><path fill="#FFF" d="M206.888 120.575c1.606 1.591 3.237 3.159 4.045 5.548-1.688.07-3.042-.193-4.277-.578.011-1.729-.475-3.866.232-4.97zm19.189 7.051c.671-1.794 1.565-3.366 2.312-5.086-.057-.599-.734-.575-1.04-.925-.114-.653.437-.641.578-1.04 2.256 1.539 1.852 7.847-1.85 7.051zm-132.24-6.011c1.24.34.783 2.377 1.156 3.583-.37.092-.583.341-1.041.347-.426-1.082-.428-2.713-.115-3.93zm12.946 5.087c-1.121.536-2.601.713-4.162.809.326-2.297 2.336-3.904 3.583-5.665 1.178.771.338 3.032.579 4.856zm-21.616-4.277c.416.162.768.388.809.925-.079.575-.882.428-1.041.925.741 1.803 1.698 3.389 2.543 5.086-3.543 1.131-4.228-4.927-2.311-6.936zm132.355.693c-.011 1.684-.621 2.77-.925 4.161-1.615.036-3.168.009-3.93-.809.952-1.325 2.614-2.932 4.855-3.352zm-18.957.694c.803.315 1.187 1.049 1.271 2.081-.347.192-.992.087-1.387.231-.266-1.012-.102-1.359.116-2.312zm26.702.462c.139.427-.985 3.088-1.849 3.583-1.101.631-4.035.529-4.046-1.156 1.902-.871 3.775-1.773 5.895-2.427zm-129.35.347c2.211.524 3.678 1.793 4.971 3.236-.81.739-2.539 1.15-4.046.81-.271-1.387-1.023-2.291-.925-4.046zm18.727.115c.509.707.602 1.31.347 2.313-.592.09-.839-.162-1.387-.116.043-1.036.476-1.682 1.04-2.197zm-26.703 1.272c2.249.602 4.219 1.483 6.242 2.312-.052 1.685-2.912 1.87-4.046 1.272-1.132-.598-1.685-2.688-2.196-3.584z"/><path fill="#B7774B" d="M139.496 128.782c-.569.278-1.054.194-1.387-.231-.366.136-.79.211-1.04.462-1.664-1.831 2.893-2.604 2.427-.231z"/><path fill="#FFF" d="M226.308 129.823c-.783 1.645-1.792 3.064-2.659 4.624-10.225.611-19.809-4.351-29.477-1.271.45-1.477.909-2.944 1.388-4.393 2.722-.707 5.38-1.019 8.323-1.156 7.627-.356 14.803 3.301 22.425 2.196z"/><path fill="#B7774B" d="M135.682 128.32c.067.761-.246 1.142-.925 1.156-.2-.07.009-.549-.231-.578.244-.3.735-.825 1.156-.578z"/><path fill="#FFF" d="M117.996 129.592c.502 1.463 1.012 2.917 1.502 4.392-4.135-1.091-8.132-.793-12.138-.347-5.789.645-10.238 2.981-17.108 2.543-1.099-1.29-2.265-3.129-2.89-4.508 7.194.762 13.528-2.449 20.345-3.005 3.549-.291 6.905.474 10.289.925z"/><path fill="#B7774B" d="M168.51 129.707c-.317.797-1.821.905-2.427 1.04-.261-.503.271-.77.231-1.387.846-.188 1.804-.377 2.196.347zm-32.482 2.196c.168.729-.112 1.641-.924 1.734-1.125-.546-.227-2.528.924-1.734zm5.318 0c.164.626-.474.451-.694.694-.503.306-.791.827-1.156 1.271v.925c-.687-.046-1.127-.337-1.618-.578-.554-2.403 1.955-2.36 3.468-2.312zm23.812 1.618c.307.502.48 1.139.578 1.85-.313.279-.642-.127-1.156 0-.107-.916.154-1.464.578-1.85zm4.74.463c.035.69-.684.626-.809 1.156.078.538.264.968.347 1.502-1.269.561-2.667-1.157-1.965-2.543.598-.353 1.929-.998 2.427-.115z"/><path fill="#00966E" d="M223.302 136.296c-.863 1.604-1.751 3.181-2.774 4.624-10.131.581-19.769-4.357-29.361-1.271.438-1.49.864-2.989 1.387-4.393 2.615-.697 5.093-.989 7.976-1.156 7.721-.448 15.063 3.285 22.772 2.196z"/><path fill="#B7774B" d="M137.878 136.065c-.847.48-1.528-.547-1.271-1.156.539-.16 1.448.222 1.271 1.156z"/><path fill="#00966E" d="M121.232 135.949c.49 1.475 1 2.93 1.503 4.393-5.006-1.207-10.252-.834-15.259.231-4.399.936-8.389 2.209-13.987 1.965-1.205-1.3-2.035-2.974-3.005-4.508 7.268.798 13.612-2.446 20.46-3.006 3.546-.289 6.898.483 10.288.925z"/><path fill="#B7774B" d="M142.964 135.603c.097.288.151.619.116 1.04-.376.356-1.265.2-1.965.231.067-.607-.204-.875-.116-1.502.754-.536 1.184.159 1.965.231zm28.321 2.427c-.089-.821.351-1.113.462-1.734 2.982-.645 1.905 2.76-.462 1.734zm-4.392-1.272c.432.068.598.404.925.578-.145.433-.291.866-.81.925-.228-.312-.069-1.01-.115-1.503z"/><path fill="#D52B28" d="M220.297 142.422c-.855 1.533-1.771 3.007-2.659 4.508-9.769.926-20.127-4.379-29.477-1.156.327-1.562.926-2.85 1.271-4.393 6.239-2.088 12.768-.995 19.073.116 4.106.723 7.734 1.635 11.792.925z"/><path fill="#C6C6C6" d="M158.338 140.804c.173.944.222 2.013.347 3.005 2.236.152 3.969.809 5.896 1.271.851-.421 1.006-1.537 1.734-2.081.957.237 1.718.671 2.659.925-.128.912-.43 1.65-.694 2.427 1.221 1.284 3.07 1.939 4.393 3.121 1.007-.457 1.844-1.084 2.659-1.734.511.429.943.862 1.502 1.502.248.283 1.382 1.39 1.387 1.503.01.242-2.388 2.471-2.774 2.543-1.126.211-3.727.757-4.508.578-.8-.183-1.606-1.491-2.081-1.965-.781-.78-1.314-1.327-2.196-1.849-1.521 1.292-2.453 3.172-3.815 4.624-1.205-.088-2.09.145-3.236.115.911-2.171 1.925-4.24 2.89-6.357-3.196-1.937-9.31-1.138-12.947 0 .577 1.969 1.817 4.269 2.775 6.242-1.093.028-2.221.262-3.006 0-1.358-.454-2.289-3.483-3.468-4.162-1.566.822-2.338 2.44-3.814 3.352-1.486-.524-3.728-.119-5.317-.694-.235-.084-2.295-1.563-2.312-1.965-.011-.255 1.107-1.293 1.387-1.618.574-.667.917-1.12 1.502-1.503.83.596 1.657 1.195 2.543 1.734 1.844-1.046 3.305-2.475 5.086-3.583-.178-.901-.714-1.444-.809-2.427.871-.439 1.813-.807 2.659-1.271.751.598.997 1.7 1.618 2.427 2.01-.302 3.585-1.038 5.896-1.04-.044-1.007.205-1.721.115-2.774 1.197-.227 2.655-.194 3.929-.346z"/><path fill="#D52B28" d="M124.469 141.96a57.336 57.336 0 0 0 1.503 4.277c-3.823-.825-7.764-.677-12.021-.231-5.175.542-8.796 2.324-13.987 2.543-.887.038-2.597.225-3.236 0-1.241-.437-2.011-3.595-3.005-4.508 7.273.8 13.609-2.446 20.46-3.005 3.538-.29 6.884.497 10.286.924z"/><path fill="#FFF" d="M193.479 146.7c-2.167 2.842-4.475 5.543-7.282 7.745-.058-.482-.523-.556-.925-.694 2.293-2.446 5.051-4.427 7.051-7.167.392.031.937-.09 1.156.116zm4.277.231c-3.32 3.858-6.188 8.123-10.403 10.75-.887-1.303.993-2.339 1.965-3.236 2.547-2.351 5.357-5.339 7.282-7.629.393.031.938-.09 1.156.115zm-70.744 7.629c-.651-.536-1.517-.927-2.081-1.503-.436-.445-.569-1.143-.925-1.618-1.128-1.505-2.869-2.52-3.815-4.277.143-.038 1.076-.328 1.271-.116 1.379 1.494 3.978 4.498 6.011 6.126.61.488-.176.842-.461 1.388zm61.959-7.514c-.906 2.754-3.244 4.077-5.086 5.896-.373-.167-.97-.109-1.503-.116 2.14-1.676 4.292-3.337 5.664-5.78h.925zm-62.19 9.363c-.079.423-.161.841-.116 1.388-4.486-2.489-7.29-6.659-10.75-10.173v-.231c1.534-.533 2.857 1.78 3.815 2.775 2.167 2.249 4.592 4.415 7.051 6.241zm74.79-8.901c-.758 1.407-2.061 2.509-3.237 3.815-1.801 1.999-3.314 4.271-5.548 5.895-.661.033-1.333.054-1.85.231-.07-.509.557-.818.925-1.156 2.861-2.626 5.918-5.852 8.554-8.785-.021-.099.045-.109.116-.116.117-.083.823-.053 1.04.116zm-75.83-.115c1.219 2.364 3.455 3.712 5.433 5.318-.431.301-1.517-.053-1.965.231-1.758-1.555-3.995-2.633-4.509-5.433.192-.194.679-.092 1.041-.116zm-2.197 10.288c-2.332.213-3.266-.973-4.508-1.849-2.194-2.739-4.959-4.905-6.936-7.861 1.287-.598 2.435 1.318 3.353 2.312 2.491 2.699 5.398 5.302 8.091 7.398zm-8.091-2.197c.703.146 1.427.883 1.503 1.271-2.972.133-4.314-2.492-5.78-4.161-.618-.704-1.19-1.346-1.734-1.965-.541-.616-1.362-1.118-1.387-1.965 1.517-.499 2.662 1.737 3.583 2.774 1.507 1.696 2.471 2.649 3.815 4.046zm93.978-6.588c-.697 1.366-1.903 2.644-3.006 3.93-1.091 1.273-2.202 2.587-3.352 3.699h-1.502c-.218-.401.396-.618.578-.809 1.953-2.043 4.259-4.7 6.126-6.936.393.032.937-.09 1.156.116z"/><path fill="#33A5D0" d="M160.997 149.474a146.837 146.837 0 0 0-2.312 5.317 31.797 31.797 0 0 1-5.433 0c-.688-1.663-1.51-3.191-2.081-4.971 2.645-1.316 6.685-1.094 9.826-.346z"/><path fill="#FFF" d="M111.292 156.063c-1.594.328-2.167-.546-3.006-1.502-1.375-1.569-2.971-3.412-4.045-4.971 1.191-.835 1.922.553 2.659 1.387 1.46 1.655 3.364 3.774 4.392 5.086zm101.954-6.358c-1.728 2.51-3.846 4.63-5.78 6.936h-1.734c2.272-2.236 4.229-4.788 6.357-7.167.44.023.823.102 1.157.231zm-106.463 6.358c-1.903.563-2.845-1.555-3.814-2.659-.98-1.116-1.781-2.033-2.543-2.774a.546.546 0 0 0 .116-.347c.33-.126.681-.205 1.04-.116.813.202 2.125 2.149 2.774 2.89 1.023 1.167 1.864 2.207 2.427 3.006z"/><path fill="#33A5D0" d="M165.968 152.364c.669.563 1.305 1.161 1.965 1.734-1.06.327-2.563.211-3.699.462.502-.808 1.162-1.457 1.734-2.196zm-18.38 2.312c-.726-.237-1.888-.038-2.659-.231-.117-.57.895-.934 1.156-1.502.709.369 1.073 1.084 1.503 1.733z"/><path fill="#D52B28" d="M187.121 170.859c-.475.141-.864-.522-1.502-.81-3.704-1.663-8.562.729-13.293 1.156-3.846.348-8.101.49-12.022.578-8.438.189-16.811-.604-24.391-1.156-3.178-.231-5.893-.214-8.323.809-.188-3.229.036-8.077.116-12.138.024-1.241-.246-2.946.115-3.814.282-.676 1.948-1.607 2.543-1.734 1.759-.373 4.097.505 5.664.694.712.086 1.338-.074 2.312 0 3.079.234 6.562 1.015 10.288 1.271 8.699.6 18.143-.045 26.703-1.271 2.696-.386 6.644-1.27 8.785 0 .935.555 2.391 2.486 2.659 3.468.216.792.119 2.202.116 3.468-.009 3.158-.31 6.538.23 9.479z"/><path fill="#D52B28" d="M126.087 158.721c.884 5.211-.673 11.417.231 16.299.975 2.184 5.36.959 7.167 2.312.281.821.238 1.701 0 2.543-3.395-.674-5.423-3.315-9.132-4.277-1.801-.467-3.793-.765-5.202 0-1.493-1.099-2.866-2.724-4.277-4.277-4.085-4.498-8.246-9.324-12.253-13.987 2.566-.404 6.694-.52 9.826-.347 4.704.261 8.473 1.914 13.64 1.734zm86.002-.693c-1.077 1.671-2.716 2.947-4.161 4.393-4.273 4.273-8.595 8.88-12.947 13.178-1.839-1.385-6.06-.392-8.323.462-2.249.849-4.004 2.866-6.357 3.005-.325-.779-.244-1.866 0-2.659 1.993-1.215 5.902.145 7.282-1.734 1.047-5.052.092-11.151 1.04-16.414 7.173.121 15.843-2.158 23.466-.231z"/><path fill="#D52B28" d="M186.197 174.673c-2.432-.315-5.026-.222-6.705 1.041v-5.202c3.041-.428 8.557.093 6.705 4.161zm-51.556-3.236c-.229 1.621-.047 3.651-.347 5.202-1.606-1.444-4.219-1.504-6.589-1.387-.491-.7-.192-1.537-.116-2.543 1.087-1.65 4.699-1.612 7.052-1.272z"/><path fill="#FFF" d="M178.221 171.437c.214 1.024-.93.689-1.041 1.388-8.161 3.831-17.057 7.102-26.933 9.709-2.23.589-4.768 1.218-7.283 1.85-.751.189-1.57.565-1.734-.578 1.409-.837 3.071-.959 4.624-1.387 4.594-1.265 9.231-2.45 13.756-4.045 2.973-1.049 6.036-1.818 8.785-3.121 2.746-1.301 5.427-2.927 8.092-3.815.37-.125 1.106-.246 1.734-.001zm-6.705.346c.489-.018.002.182-.116.231-9.922 4.874-21.836 8.372-33.638 10.981-.03-.355-.251-.52-.347-.81 2.546-1.14 5.29-1.581 7.976-2.312 5.319-1.447 10.512-3.089 15.605-4.854 1.217-.422 2.487-.813 3.699-1.387 1.14-.54 2.411-1.386 3.468-1.618 1.22-.268 2.256.062 3.353-.231zm-35.603.347c2.57-.644 3.75 1.104 5.433 1.733-.274.304-.459.697-.925.81-1.442-.908-3.066-1.634-4.508-2.543zm5.548 0c2.187-.606 3.445.716 4.739 1.387-.184.433-.785.448-1.04.809-1.296-.668-2.369-1.56-3.699-2.196zm5.896.231c.048-.257.613-.09.694 0-.175.324-.499.206-.694 0zm8.554.116c-6.387 2.899-13.942 4.63-21.27 6.589.139-.324.127-.797.116-1.271 2.024-.712 4.227-1.245 6.242-1.965 5.094-.09 8.682-3.634 14.912-3.353zm7.513 0c-8.929 3.848-19.804 6.906-29.592 9.132-.037-1.497 1.712-1.585 2.659-1.85 7.601-2.117 16.316-4.125 23.466-7.167.668-.283 2.562-.025 3.467-.115zm14.797 1.272c.267.35.041 1.192.116 1.734-8.665 4.352-18.999 7.438-29.477 10.403-1.151.326-3.471 1.449-3.93-.116 11.54-3.563 23.714-6.494 33.291-12.021zm-43.117.346c.803.43 1.757.709 2.312 1.387-.593.541-2.018.157-2.427-.231-.024-.446-.005-.852.115-1.156z"/><path fill="#D52B28" d="M194.519 176.407c-.355 2.116-4.993 1.323-5.895.231 2.155.245 4.191-.786 5.895-.231zm-69.241.694c-1.136 1.053-6.135 1.638-5.896-.694 2.225-.028 3.632.762 5.896.694z"/><path fill="#FFF" d="M178.452 176.985c1.68 1.5-1.572 2.339-3.005 2.89-3.798 1.461-7.531 3.076-11.444 4.162-4.062 1.127-8.002 2.327-12.137 3.467-1.146.316-3.005 1.409-3.468-.115 10.211-3.274 21.251-5.72 30.054-10.404zm-47.972 2.428c.363.099.488.437.925.462-.196.228-.538.31-.925.347-.152-.359.031-.33 0-.809zm48.781 1.387c.05.397-.046.648-.116.925-1.057-.099-2.191-.12-2.89-.578.062-1.543 2.18-.878 3.006-.347zm-3.237 1.849a2.952 2.952 0 0 1-.231.925c-.979-.1-1.945-.213-2.774-.462-.152-1.824 2.214-.926 3.005-.463zm-3.815 1.503c.089.435-.141.553-.116.924-.938-.216-2.185-.127-2.89-.578-.008-1.606 2.296-.92 3.006-.346zm-3.699 1.503c-.121.265-.073.697-.231.925-.86-.257-2.078-.157-2.774-.578-.104-1.675 2.368-.897 3.005-.347zm-3.583 1.618c.025.372-.205.489-.116.925-1.431-.188-2.909-.328-4.162-.694v-.924c1.125-.313 3.286.126 4.278.693zm40.805-39.071c-2.157 2.968-4.658 5.592-7.051 8.323-.546.186-1.473-.008-1.965.231a543.232 543.232 0 0 0 6.011-6.589c.781-.87 1.692-2.755 3.005-1.965z"/><g><path d="M128.92 164.677c.606.009 1.212.015 1.817.017-.027.475.033.838.181 1.09a.87.87 0 0 0 .666.441c.373.053.723-.13 1.045-.547.323-.417.614-1.335.876-2.753-.545.636-1.164.907-1.846.81-.742-.106-1.328-.58-1.746-1.417-.419-.837-.527-1.862-.335-3.071.2-1.26.638-2.232 1.302-2.92.665-.688 1.413-.971 2.253-.853.915.129 1.598.717 2.066 1.771.467 1.054.572 2.702.299 4.944-.278 2.283-.8 3.891-1.581 4.818-.779.928-1.704 1.319-2.755 1.17-.757-.107-1.331-.458-1.715-1.045-.384-.589-.559-1.407-.527-2.455zm4.805-4.632c.104-.772.053-1.389-.147-1.85-.201-.461-.469-.715-.808-.763-.321-.046-.613.09-.877.408-.264.318-.455.873-.573 1.667-.119.805-.089 1.414.091 1.825.182.412.451.643.807.693.343.048.657-.094.941-.425.284-.332.472-.85.566-1.555zm9.35 9.553a223.576 223.576 0 0 0 3.863-6.253 224.969 224.969 0 0 1-2.396-6.236c.716.065 1.431.126 2.146.183a221.787 221.787 0 0 0 1.532 3.868 213.693 213.693 0 0 0 2.054-3.623c.711.041 1.424.078 2.135.111a223.465 223.465 0 0 1-3.224 5.846c.946 2.25 1.932 4.493 2.958 6.727-.788-.035-1.575-.074-2.362-.118a218.795 218.795 0 0 1-1.876-4.396 230.26 230.26 0 0 1-2.463 4.098c-.792-.065-1.58-.133-2.367-.207zm-3.017-.446c.416-4.17.832-8.339 1.25-12.509.61.061 1.221.119 1.832.173l-1.115 12.521a161.46 161.46 0 0 1-1.967-.185zm21.184.571c-.625.014-1.249.025-1.874.033l-.114-9.077c-.644.829-1.416 1.441-2.313 1.834l.002-2.179c.465-.205.968-.597 1.506-1.176a4.487 4.487 0 0 0 1.086-2.023c.474-.006.946-.016 1.419-.026.097 4.203.192 8.408.288 12.614zm2.748-2.979c.595-.109 1.188-.22 1.781-.334.066.471.195.816.387 1.035.193.219.438.32.737.305.376-.02.683-.267.918-.738.235-.472.344-1.429.327-2.871-.411.729-.964 1.114-1.651 1.151-.747.039-1.412-.313-1.982-1.054-.571-.741-.874-1.726-.919-2.949-.047-1.275.194-2.313.712-3.116.519-.804 1.195-1.226 2.042-1.271.92-.05 1.704.395 2.366 1.339.661.945 1.081 2.541 1.246 4.794.167 2.293-.034 3.972-.62 5.032-.585 1.06-1.415 1.623-2.473 1.679-.762.041-1.391-.192-1.88-.695-.492-.504-.821-1.273-.991-2.307zm3.811-5.472c-.048-.778-.216-1.373-.501-1.787-.285-.414-.597-.611-.937-.593-.324.017-.583.207-.78.569-.197.363-.277.944-.24 1.746.039.813.185 1.404.442 1.773.256.369.565.543.922.524.345-.019.626-.218.84-.598.213-.38.298-.925.254-1.634zm7.477 7.594l-.25-2.511c-1.305.13-2.611.246-3.917.347l-.163-2.101a218.239 218.239 0 0 0 3.305-8.313c.49-.05.979-.101 1.468-.154l.869 7.931c.393-.043.786-.087 1.179-.133l.245 2.102c-.398.046-.795.091-1.193.134l.274 2.509c-.606.066-1.212.129-1.817.189zm-.459-4.617l-.42-4.22a214.26 214.26 0 0 1-1.742 4.421 156.38 156.38 0 0 0 2.162-.201zm8.02 3.707l-.354-2.499c-1.3.184-2.602.354-3.904.509l-.25-2.093a217.147 217.147 0 0 0 2.963-8.443c.487-.069.975-.141 1.462-.215l1.196 7.888c.392-.059.783-.12 1.174-.182l.331 2.09c-.396.063-.792.124-1.188.184l.378 2.495c-.602.092-1.205.181-1.808.266zm-.65-4.594l-.593-4.199a219.142 219.142 0 0 1-1.561 4.49c.719-.093 1.437-.19 2.154-.291z" fill="#B7774B"/></g><g><path fill="#B7774B" d="M155.351 14.942l4.583 9.287 10.248 1.489-7.415 7.229 1.75 10.207-9.166-4.819-9.167 4.819 1.751-10.207-7.416-7.229 10.249-1.489z"/><path fill="#D52A27" d="M155.432 20.893l2.882 5.84 6.445.937-4.663 4.546 1.101 6.419-5.765-3.031-5.765 3.031 1.102-6.419-4.664-4.546 6.445-.937z"/></g></svg>