<?xml version="1.0" encoding="UTF-8" standalone="no"?>
<svg
   xmlns:dc="http://purl.org/dc/elements/1.1/"
   xmlns:cc="http://creativecommons.org/ns#"
   xmlns:rdf="http://www.w3.org/1999/02/22-rdf-syntax-ns#"
   xmlns:svg="http://www.w3.org/2000/svg"
   xmlns="http://www.w3.org/2000/svg"
   xmlns:sodipodi="http://sodipodi.sourceforge.net/DTD/sodipodi-0.dtd"
   xmlns:inkscape="http://www.inkscape.org/namespaces/inkscape"
   width="432"
   height="216"
   id="svg2"
   version="1.1"
   inkscape:version="0.92.0 r15299"
   sodipodi:docname="Flag of Hyderabad 1900-1947.svg">
  <metadata
     id="metadata12">
    <rdf:RDF>
      <cc:Work
         rdf:about="">
        <dc:format>image/svg+xml</dc:format>
        <dc:type
           rdf:resource="http://purl.org/dc/dcmitype/StillImage" />
        <dc:title></dc:title>
      </cc:Work>
    </rdf:RDF>
  </metadata>
  <defs
     id="defs10">
    <inkscape:perspective
       sodipodi:type="inkscape:persp3d"
       inkscape:vp_x="0 : 108 : 1"
       inkscape:vp_y="0 : 1000 : 0"
       inkscape:vp_z="432 : 108 : 1"
       inkscape:persp3d-origin="216 : 72 : 1"
       id="perspective14" />
  </defs>
  <sodipodi:namedview
     pagecolor="#ffffff"
     bordercolor="#666666"
     borderopacity="1"
     objecttolerance="10"
     gridtolerance="10"
     guidetolerance="10"
     inkscape:pageopacity="0"
     inkscape:pageshadow="2"
     inkscape:window-width="1920"
     inkscape:window-height="1137"
     id="namedview8"
     showgrid="false"
     inkscape:zoom="0.5462963"
     inkscape:cx="565.29726"
     inkscape:cy="233.74553"
     inkscape:window-x="-8"
     inkscape:window-y="-8"
     inkscape:window-maximized="1"
     inkscape:current-layer="svg2"
     inkscape:snap-bbox="true"
     inkscape:snap-bbox-midpoints="true" />
  <g
     id="g1000">
    <rect
       style="fill:#009240;fill-opacity:1"
       x="0"
       id="rect6"
       y="0"
       height="216"
       width="432" />
    <rect
       style="fill:#de2219;fill-opacity:1"
       x="216"
       id="rect6-6"
       y="0"
       height="216"
       width="216" />
  </g>
  <g
     id="g996"
     transform="matrix(-0.5184967,0,0,0.50576272,302.36851,-103.96304)">
    <path
       style="fill:#ffffff"
       id="path614"
       d="m 151.57486,319.09581 c -55.228474,0 -100.000004,44.77153 -100.000004,100 0,55.22847 44.77153,100 100.000004,100 17.73986,0 34.39889,-4.61736 48.84375,-12.71875 -2.09902,0.15068 -4.20633,0.21875 -6.34375,0.21875 -48.32491,0 -87.5,-39.17509 -87.5,-87.5 0,-48.32491 39.17509,-87.5 87.5,-87.5 2.13742,0 4.24473,0.0681 6.34375,0.21875 -14.44486,-8.10139 -31.10389,-12.71875 -48.84375,-12.71875 z"
       inkscape:connector-curvature="0" />
    <path
       style="fill:#ffffff;stroke-width:0.88692528"
       id="path2994"
       d="m 186.57486,449.87201 22.57995,-30.85353 -22.44822,-30.94986 36.26813,11.97933 22.4451,-30.95212 -0.16502,38.25717 36.32006,11.82039 -36.37012,11.6649 0.002,38.25753 -22.31296,-31.04786 z"
       inkscape:connector-curvature="0" />
  </g>
</svg>
