<?xml version="1.0" encoding="utf-8"?>
<!-- Generator: Adobe Illustrator 12.0.1, SVG Export Plug-In . SVG Version: 6.00 Build 51448)  -->
<!DOCTYPE svg PUBLIC "-//W3C//DTD SVG 1.1//EN" "http://www.w3.org/Graphics/SVG/1.1/DTD/svg11.dtd" [
	<!ENTITY ns_svg "http://www.w3.org/2000/svg">
	<!ENTITY ns_xlink "http://www.w3.org/1999/xlink">
]>
<svg  version="1.1" id="Layer_1" xmlns="&ns_svg;" xmlns:xlink="&ns_xlink;" width="127.335" height="178.033"
	 viewBox="0 0 127.335 178.033" overflow="visible" enable-background="new 0 0 127.335 178.033" xml:space="preserve">
<g id="Layer_1_1_">
</g>
<path fill="#222226" d="M6.038,51.898c0.53,6.44,37.438,24.282,41.284,26.408c1.727,0.955,6.583,3.378,8.422,4.16L54.64,12.404
	c0,0-0.212-8.539-8.794-11.359c15.326-0.49,45.698-5.924,49.61,13.886c1.392,7.048,1.5,14.792-3.076,20.846
	c-5.353,7.081-15.601,8.262-23.864,8.271c0.013,10.575-0.198,21.173-0.19,31.69c0.001,1.567,0.065,4.636-0.008,6.202
	c8.722-5.281,17.434-12.59,25.969-18.17c6.911-4.52,15.86-9.658,20.252-17.011c3.123,3.147,5.683,7.622,7.295,11.741
	c0.907,2.318,1.385,3.437,2.047,5.802c-2.09-0.255-3.477,0.326-5.493,0.797c-3.232,0.756-8.179,4.1-11.164,5.493
	C101.891,73.081,74.792,92,74.792,92c13.381,6.326,25.693,12.837,39.873,19.616c3.705,1.771,6.095,3.325,12.67,2.126
	c-3.779,7.341-6.058,13.309-11.164,19.759c-0.379-6.244-3.551-8.532-5.759-9.924c-3.209-2.021-6.603-3.745-9.924-5.582
	c-7.53-4.164-17.298-8.274-24.896-12.315c-1.772-0.943-5.498-2.7-7.274-3.637c0,0,0.54,64.618,0.896,67.821
	c0.31,2.762,2.092,5.008,3.485,7.136c-8.003,2.175-14.445,0.173-22.581,0.594c7.211-0.374,5.802-17.53,5.879-22.03
	c0.158-9.219-0.179-36.243-0.008-45.462c0.01-0.551-0.275-4.682-0.173-6.035c-11.94,9.146-31.636,19.725-42.17,30.549
	c-3.654,3.755-2.729,6.188-6.734,0.443c-3.038-4.356-3.866-7.089-6.911-11.43c5.629-0.105,9.193-3.306,13.822-6.291
	c4.603-2.968,9.563-5.859,14.087-8.949c6.069-4.145,17.133-10.698,23.138-14.937c-12.789-6.178-26.683-13.055-39.517-19.137
	c-2.994-1.418-7.662-3.634-11.341-2.126C1.367,65.555,2.845,59.803,6.038,51.898z M84.826,24.345
	c0.695-6.73-1.821-10.877-8.182-12.393c-4.465-1.063-8.671-0.849-8.448,2.695c0.26,4.128-0.276,9.981-0.024,18.58
	C72.237,33.228,83.81,34.169,84.826,24.345z M76.19,116.858 M49.524,72.524"/>
</svg>
