<?xml version="1.0" encoding="UTF-8" standalone="no"?>
<!-- Created with Inkscape (http://www.inkscape.org/) -->
<svg
   xmlns:dc="http://purl.org/dc/elements/1.1/"
   xmlns:cc="http://creativecommons.org/ns#"
   xmlns:rdf="http://www.w3.org/1999/02/22-rdf-syntax-ns#"
   xmlns:svg="http://www.w3.org/2000/svg"
   xmlns="http://www.w3.org/2000/svg"
   xmlns:sodipodi="http://sodipodi.sourceforge.net/DTD/sodipodi-0.dtd"
   xmlns:inkscape="http://www.inkscape.org/namespaces/inkscape"
   width="565.51862"
   height="234.11482"
   id="svg2"
   sodipodi:version="0.32"
   inkscape:version="0.46"
   version="1.0"
   sodipodi:docname="Flag of the Mongol Empire.svg"
   inkscape:output_extension="org.inkscape.output.svg.inkscape">
  <defs
     id="defs4">
    <inkscape:perspective
       sodipodi:type="inkscape:persp3d"
       inkscape:vp_x="0 : 526.18109 : 1"
       inkscape:vp_y="0 : 1000 : 0"
       inkscape:vp_z="744.09448 : 526.18109 : 1"
       inkscape:persp3d-origin="372.04724 : 350.78739 : 1"
       id="perspective10" />
    <inkscape:perspective
       id="perspective2447"
       inkscape:persp3d-origin="372.04724 : 350.78739 : 1"
       inkscape:vp_z="744.09448 : 526.18109 : 1"
       inkscape:vp_y="0 : 1000 : 0"
       inkscape:vp_x="0 : 526.18109 : 1"
       sodipodi:type="inkscape:persp3d" />
    <inkscape:perspective
       id="perspective2860"
       inkscape:persp3d-origin="372.04724 : 350.78739 : 1"
       inkscape:vp_z="744.09448 : 526.18109 : 1"
       inkscape:vp_y="0 : 1000 : 0"
       inkscape:vp_x="0 : 526.18109 : 1"
       sodipodi:type="inkscape:persp3d" />
    <inkscape:perspective
       id="perspective2968"
       inkscape:persp3d-origin="372.04724 : 350.78739 : 1"
       inkscape:vp_z="744.09448 : 526.18109 : 1"
       inkscape:vp_y="0 : 1000 : 0"
       inkscape:vp_x="0 : 526.18109 : 1"
       sodipodi:type="inkscape:persp3d" />
    <inkscape:perspective
       id="perspective3018"
       inkscape:persp3d-origin="372.04724 : 350.78739 : 1"
       inkscape:vp_z="744.09448 : 526.18109 : 1"
       inkscape:vp_y="0 : 1000 : 0"
       inkscape:vp_x="0 : 526.18109 : 1"
       sodipodi:type="inkscape:persp3d" />
    <inkscape:perspective
       id="perspective3103"
       inkscape:persp3d-origin="450 : 150 : 1"
       inkscape:vp_z="900 : 225 : 1"
       inkscape:vp_y="0 : 1000 : 0"
       inkscape:vp_x="0 : 225 : 1"
       sodipodi:type="inkscape:persp3d" />
  </defs>
  <sodipodi:namedview
     id="base"
     pagecolor="#ffffff"
     bordercolor="#666666"
     borderopacity="1.0"
     gridtolerance="10000"
     guidetolerance="10"
     objecttolerance="10"
     inkscape:pageopacity="0.0"
     inkscape:pageshadow="2"
     inkscape:zoom="0.98994949"
     inkscape:cx="517.23115"
     inkscape:cy="118.82743"
     inkscape:document-units="px"
     inkscape:current-layer="layer1"
     showgrid="false"
     inkscape:window-width="1280"
     inkscape:window-height="750"
     inkscape:window-x="-8"
     inkscape:window-y="-8" />
  <metadata
     id="metadata7">
    <rdf:RDF>
      <cc:Work
         rdf:about="">
        <dc:format>image/svg+xml</dc:format>
        <dc:type
           rdf:resource="http://purl.org/dc/dcmitype/StillImage" />
      </cc:Work>
    </rdf:RDF>
  </metadata>
  <g
     inkscape:label="Layer 1"
     inkscape:groupmode="layer"
     id="layer1"
     transform="translate(-1598.4047,-200.14285)">
    <g
       id="g3155">
      <path
         style="opacity:1;fill:#cc0000;fill-opacity:1;stroke:none;stroke-width:4;stroke-linecap:square;stroke-miterlimit:4;stroke-dasharray:none;stroke-dashoffset:0;stroke-opacity:1"
         d="M 1898.413,434.07911 L 1893.209,415.85715 L 1867.4947,415.85715 L 1867.4947,413.35715 L 1867.4947,410.85715 L 2163.9233,410.85715 L 2163.9233,412.31123 L 2157.3353,434.1684 L 2152.1375,415.85715 L 2125.709,415.85715 L 2120.371,433.98983 L 2114.9947,415.85715 L 2088.9233,415.85715 L 2083.2983,433.80358 L 2078.209,415.85715 L 2064.9947,415.85715 L 2051.7804,415.85715 L 2046.4425,434.25768 L 2041.0661,415.85715 L 2014.9947,415.85715 L 2009.459,434.07143 L 2003.9233,415.85715 L 1977.8518,415.85715 L 1972.3353,434.1684 L 1967.1375,415.85715 L 1940.709,415.85715 L 1935.4157,434.14608 L 1929.9947,415.85715 L 1903.9233,415.85715 L 1898.413,434.07911 z"
         id="path3151"
         sodipodi:nodetypes="cccccccccccccccccccccccccccccc" />
      <path
         sodipodi:nodetypes="cccccccccccccccccccccccccccccc"
         id="path3149"
         d="M 1898.413,223.36482 L 1893.209,205.14286 L 1867.4947,205.14286 L 1867.4947,202.64286 L 1867.4947,200.14286 L 2163.9233,200.14286 L 2163.9233,201.59694 L 2157.3353,223.45411 L 2152.1375,205.14286 L 2125.709,205.14286 L 2120.371,223.27554 L 2114.9947,205.14286 L 2088.9233,205.14286 L 2083.2983,223.08929 L 2078.209,205.14286 L 2064.9947,205.14286 L 2051.7804,205.14286 L 2046.4425,223.54339 L 2041.0661,205.14286 L 2014.9947,205.14286 L 2009.459,223.35714 L 2003.9233,205.14286 L 1977.8518,205.14286 L 1972.3353,223.45411 L 1967.1375,205.14286 L 1940.709,205.14286 L 1935.4157,223.43179 L 1929.9947,205.14286 L 1903.9233,205.14286 L 1898.413,223.36482 z"
         style="opacity:1;fill:#cc0000;fill-opacity:1;stroke:none;stroke-width:4;stroke-linecap:square;stroke-miterlimit:4;stroke-dasharray:none;stroke-dashoffset:0;stroke-opacity:1" />
      <rect
         y="200.14285"
         x="1598.4047"
         height="215.71428"
         width="270"
         id="rect3147"
         style="opacity:1;fill:#004cb1;fill-opacity:1;fill-rule:evenodd;stroke:none;stroke-width:1px;stroke-linecap:butt;stroke-linejoin:miter;marker:none;marker-start:none;marker-mid:none;marker-end:none;stroke-miterlimit:4;stroke-dasharray:none;stroke-dashoffset:0;stroke-opacity:1;visibility:visible;display:inline;overflow:visible;enable-background:accumulate" />
      <path
         id="crescent"
         d="M 1679.5315,324.73559 C 1679.5268,325.03113 1679.5315,325.32544 1679.5315,325.62211 C 1679.5315,355.24233 1703.5946,379.30543 1733.2148,379.30539 C 1762.8351,379.30539 1786.7996,355.24233 1786.7996,325.62211 C 1786.7996,325.32544 1786.8045,325.03113 1786.7996,324.73559 C 1777.7464,345.36987 1757.1791,359.80211 1733.2148,359.80211 C 1709.2505,359.80207 1688.5849,345.36987 1679.5315,324.73559 z"
         style="fill:#ffffff" />
      <path
         id="flame"
         d="M 1723.5111,256.92046 C 1723.5111,262.2535 1727.8344,266.57678 1733.1674,266.57678 C 1738.5005,266.57678 1742.8238,262.2535 1742.8238,256.92046 C 1742.8238,253.05792 1740.4097,252.5751 1740.4097,251.12665 C 1740.4097,249.67821 1741.8581,247.74695 1738.9612,245.33285 C 1740.4097,247.74695 1737.9956,248.22975 1737.9956,250.64384 C 1737.9956,253.05792 1738.9612,253.05792 1738.9612,254.98919 C 1738.9612,256.05579 1738.0966,256.92046 1737.03,256.92046 C 1735.9634,256.92046 1735.0987,256.05579 1735.0987,254.98919 C 1735.0987,253.05792 1737.03,251.12665 1737.03,248.22975 C 1737.03,245.33285 1736.5472,244.36722 1735.0987,241.95314 C 1733.6503,239.53907 1731.2362,237.6078 1733.1674,235.67653 C 1730.2705,236.64217 1731.719,240.5047 1731.719,242.91878 C 1731.719,245.33285 1729.7877,246.78131 1729.7877,249.67821 C 1729.7877,252.5751 1731.2362,253.05792 1731.2362,254.98919 C 1731.2362,256.05579 1730.3715,256.92046 1729.3049,256.92046 C 1728.2383,256.92046 1727.3736,256.05579 1727.3736,254.98919 C 1727.3736,253.05792 1728.3393,253.05792 1728.3393,250.64384 C 1728.3393,248.22975 1725.9252,247.74695 1727.3736,245.33285 C 1724.4767,247.74695 1725.9252,249.67821 1725.9252,251.12665 C 1725.9252,252.5751 1723.5111,253.05792 1723.5111,256.92046"
         style="fill:#ffffff" />
      <circle
         transform="matrix(3.806266,0,0,3.806266,1580.9168,163.57275)"
         sodipodi:ry="8"
         sodipodi:rx="8"
         sodipodi:cy="38"
         sodipodi:cx="40"
         id="moon"
         cx="40"
         cy="38"
         r="8"
         style="fill:#ffffff" />
      <path
         sodipodi:nodetypes="cccccccccccccccccccccccccccccc"
         id="path3153"
         d="M 1898.413,326.59276 L 1893.209,308.3708 L 1867.4947,308.3708 L 1867.4947,305.8708 L 1867.4947,303.3708 L 2163.9233,303.3708 L 2163.9233,304.82488 L 2157.3353,326.68205 L 2152.1375,308.3708 L 2125.709,308.3708 L 2120.371,326.50348 L 2114.9947,308.3708 L 2088.9233,308.3708 L 2083.2983,326.31723 L 2078.209,308.3708 L 2064.9947,308.3708 L 2051.7804,308.3708 L 2046.4425,326.77133 L 2041.0661,308.3708 L 2014.9947,308.3708 L 2009.459,326.58508 L 2003.9233,308.3708 L 1977.8518,308.3708 L 1972.3353,326.68205 L 1967.1375,308.3708 L 1940.709,308.3708 L 1935.4157,326.65973 L 1929.9947,308.3708 L 1903.9233,308.3708 L 1898.413,326.59276 z"
         style="opacity:1;fill:#cc0000;fill-opacity:1;stroke:none;stroke-width:4;stroke-linecap:square;stroke-miterlimit:4;stroke-dasharray:none;stroke-dashoffset:0;stroke-opacity:1" />
    </g>
  </g>
</svg>
