<svg id="svg" version="1.1" xmlns="http://www.w3.org/2000/svg" xmlns:xlink="http://www.w3.org/1999/xlink" width="400" height="400" viewBox="0, 0, 400,400"><g id="svgg"><path id="path0" d="M193.800 12.787 C 189.780 13.455,187.367 14.185,183.689 15.846 C 182.528 16.371,181.403 16.800,181.189 16.800 C 180.975 16.800,180.800 16.939,180.800 17.109 C 180.800 17.279,180.125 17.774,179.300 18.209 C 178.475 18.644,177.451 19.315,177.025 19.700 C 176.598 20.085,176.092 20.400,175.900 20.400 C 175.708 20.400,174.069 21.885,172.259 23.700 C 169.305 26.662,168.304 27.853,167.001 29.956 C 166.782 30.310,166.197 31.173,165.701 31.873 C 165.205 32.574,164.800 33.244,164.800 33.362 C 164.800 33.481,164.371 34.528,163.846 35.689 C 159.185 46.004,159.185 57.996,163.846 68.311 C 164.371 69.472,164.800 70.521,164.800 70.642 C 164.800 72.497,173.410 82.061,177.700 84.972 L 180.000 86.533 180.000 133.266 L 180.000 180.000 133.266 180.000 L 86.533 180.000 84.972 177.700 C 82.061 173.410,72.497 164.800,70.642 164.800 C 70.521 164.800,69.472 164.371,68.311 163.846 C 57.996 159.185,46.004 159.185,35.689 163.846 C 34.528 164.371,33.481 164.800,33.362 164.800 C 33.244 164.800,32.574 165.205,31.873 165.701 C 31.173 166.197,30.310 166.782,29.956 167.001 C 27.799 168.338,26.657 169.303,23.700 172.292 C 21.885 174.127,20.400 175.767,20.400 175.938 C 20.400 176.109,20.085 176.598,19.700 177.025 C 19.315 177.451,18.644 178.475,18.209 179.300 C 17.774 180.125,17.279 180.800,17.109 180.800 C 16.939 180.800,16.800 180.975,16.800 181.189 C 16.800 181.403,16.360 182.528,15.822 183.689 C 15.284 184.850,14.553 186.790,14.198 188.000 C 13.843 189.210,13.338 190.920,13.076 191.800 C 12.444 193.925,12.444 206.075,13.076 208.200 C 13.338 209.080,13.843 210.790,14.198 212.000 C 14.553 213.210,15.284 215.150,15.822 216.311 C 16.360 217.472,16.800 218.499,16.800 218.593 C 16.800 218.759,17.784 220.314,19.689 223.162 C 22.578 227.480,29.356 233.227,34.400 235.635 C 52.544 244.297,73.862 238.676,84.972 222.300 L 86.533 220.000 133.266 220.000 L 180.000 220.000 180.000 266.765 L 180.000 313.530 177.500 315.218 C 173.239 318.094,164.800 327.491,164.800 329.358 C 164.800 329.479,164.371 330.528,163.846 331.689 C 159.185 342.004,159.185 353.996,163.846 364.311 C 164.371 365.472,164.800 366.503,164.800 366.603 C 164.800 366.772,166.707 369.718,168.294 372.000 C 170.271 374.844,176.052 380.104,179.003 381.745 C 179.661 382.111,180.470 382.585,180.800 382.799 C 190.502 389.084,206.805 389.208,218.572 383.086 C 244.819 369.431,246.999 331.758,222.500 315.218 L 220.000 313.530 220.000 266.765 L 220.000 220.000 266.765 220.000 L 313.530 220.000 315.218 222.500 C 318.679 227.627,325.369 233.390,330.678 235.819 C 364.675 251.369,399.064 217.784,384.148 183.600 C 383.620 182.390,383.013 181.130,382.799 180.800 C 382.585 180.470,382.111 179.661,381.745 179.003 C 380.058 175.970,374.803 170.228,371.850 168.193 C 369.236 166.391,367.353 165.195,366.587 164.851 C 359.690 161.754,358.393 161.377,352.080 160.637 C 345.079 159.816,338.220 160.895,331.689 163.846 C 330.528 164.371,329.479 164.800,329.358 164.800 C 327.491 164.800,318.094 173.239,315.218 177.500 L 313.530 180.000 266.765 180.000 L 220.000 180.000 220.000 133.266 L 220.000 86.533 222.300 84.972 C 239.639 73.208,244.722 50.442,234.206 31.646 C 231.730 27.221,225.182 20.582,220.997 18.255 C 220.339 17.889,219.530 17.415,219.200 17.201 C 218.022 16.438,214.163 14.833,212.000 14.206 C 210.790 13.856,209.260 13.387,208.600 13.165 C 207.025 12.635,196.360 12.363,193.800 12.787 " stroke="none" fill="#040404" fill-rule="evenodd"></path><path id="path1" d="M0.000 200.000 L 0.000 400.000 200.000 400.000 L 400.000 400.000 400.000 200.000 L 400.000 0.000 200.000 0.000 L 0.000 0.000 0.000 200.000 M209.200 12.687 C 209.750 12.912,211.280 13.428,212.600 13.832 C 219.211 15.859,232.400 25.338,232.400 28.063 C 232.400 28.217,232.677 28.620,233.015 28.958 C 234.486 30.428,238.800 39.743,238.800 41.447 C 238.800 41.898,238.934 42.401,239.099 42.566 C 240.567 44.034,240.605 59.765,239.144 61.380 C 238.955 61.589,238.800 62.152,238.800 62.631 C 238.800 64.323,235.393 71.884,233.400 74.616 C 230.429 78.687,226.601 82.684,224.200 84.221 C 223.540 84.644,222.761 85.218,222.469 85.497 C 222.177 85.777,221.592 86.190,221.169 86.417 C 220.417 86.819,220.400 87.868,220.400 133.414 L 220.400 180.000 266.714 180.000 L 313.028 180.000 313.794 178.700 C 314.718 177.132,314.643 177.233,317.297 174.015 C 319.156 171.761,322.031 169.111,325.251 166.685 C 328.193 164.467,335.450 161.486,340.600 160.379 C 349.058 158.561,365.671 161.982,370.511 166.540 C 370.780 166.793,371.720 167.522,372.600 168.160 C 374.553 169.577,378.190 173.232,379.804 175.400 C 380.459 176.280,381.120 177.093,381.272 177.208 C 381.891 177.673,385.494 185.165,386.174 187.400 C 386.575 188.720,387.038 190.165,387.203 190.612 C 388.530 194.209,388.530 205.791,387.203 209.388 C 387.038 209.835,386.575 211.280,386.174 212.600 C 385.377 215.221,381.999 222.058,381.015 223.042 C 380.677 223.380,380.400 223.824,380.400 224.029 C 380.400 224.632,372.555 232.297,371.639 232.587 C 371.178 232.734,370.800 232.993,370.800 233.163 C 370.800 233.332,370.082 233.815,369.205 234.236 C 368.327 234.656,367.607 235.135,367.605 235.300 C 367.602 235.465,367.425 235.600,367.211 235.600 C 366.997 235.600,365.872 236.039,364.711 236.576 C 361.214 238.192,359.548 238.800,358.618 238.800 C 358.131 238.800,357.599 238.934,357.434 239.099 C 355.977 240.556,342.093 240.642,338.600 239.215 C 338.160 239.035,336.990 238.671,336.000 238.406 C 335.010 238.140,333.062 237.400,331.672 236.762 C 330.282 236.123,328.977 235.600,328.772 235.600 C 328.567 235.600,328.400 235.464,328.400 235.298 C 328.400 235.131,327.900 234.774,327.288 234.503 C 323.709 232.919,317.102 226.508,313.888 221.500 L 313.182 220.400 266.791 220.400 L 220.400 220.400 220.400 266.791 L 220.400 313.182 221.500 313.888 C 224.595 315.874,228.436 319.266,230.703 322.015 C 233.407 325.292,233.297 325.143,234.220 326.800 C 234.649 327.570,235.090 328.290,235.200 328.400 C 235.415 328.615,236.339 330.534,237.319 332.800 C 237.652 333.570,238.141 335.010,238.406 336.000 C 238.671 336.990,239.035 338.160,239.215 338.600 C 240.642 342.093,240.556 355.977,239.099 357.434 C 238.934 357.599,238.800 358.131,238.800 358.618 C 238.800 359.548,238.192 361.214,236.576 364.711 C 236.039 365.872,235.600 366.997,235.600 367.211 C 235.600 367.425,235.465 367.602,235.300 367.605 C 235.135 367.607,234.656 368.327,234.236 369.205 C 233.815 370.082,233.332 370.800,233.163 370.800 C 232.993 370.800,232.734 371.178,232.587 371.639 C 232.241 372.732,224.732 380.241,223.639 380.587 C 223.178 380.734,222.800 380.998,222.800 381.174 C 222.800 381.709,213.963 385.944,211.400 386.637 C 200.384 389.615,191.345 388.673,181.208 383.488 C 179.122 382.421,177.322 381.424,177.208 381.272 C 177.093 381.120,176.280 380.459,175.400 379.804 C 173.232 378.190,169.577 374.553,168.160 372.600 C 167.522 371.720,166.793 370.780,166.540 370.511 C 164.772 368.634,161.249 359.875,160.382 355.200 C 159.942 352.832,159.940 342.640,160.379 340.600 C 161.488 335.440,164.508 328.074,166.672 325.251 C 169.294 321.830,171.771 319.148,174.015 317.297 C 177.233 314.643,177.132 314.718,178.700 313.794 L 180.000 313.028 180.000 266.714 L 180.000 220.400 133.414 220.400 C 87.868 220.400,86.819 220.417,86.417 221.169 C 86.190 221.592,85.777 222.177,85.497 222.469 C 85.218 222.761,84.644 223.540,84.221 224.200 C 83.105 225.944,80.528 228.640,77.956 230.755 C 73.979 234.025,72.553 234.925,68.580 236.670 C 64.770 238.344,63.496 238.800,62.631 238.800 C 62.152 238.800,61.589 238.955,61.380 239.144 C 59.765 240.605,44.034 240.567,42.566 239.099 C 42.401 238.934,41.898 238.800,41.447 238.800 C 39.743 238.800,30.428 234.486,28.958 233.015 C 28.620 232.677,28.217 232.400,28.063 232.400 C 25.418 232.400,16.028 219.434,13.869 212.800 C 12.270 207.888,12.200 207.353,12.200 200.000 C 12.200 192.620,12.252 192.228,13.890 187.200 C 17.659 175.634,28.059 165.290,39.400 161.829 C 40.720 161.426,42.250 160.913,42.800 160.689 C 44.212 160.115,56.586 159.831,59.000 160.318 C 64.326 161.393,71.790 164.404,74.749 166.672 C 79.916 170.633,85.075 176.089,86.503 179.102 L 86.930 180.003 133.365 179.902 L 179.800 179.800 179.902 133.365 L 180.003 86.930 179.102 86.503 C 176.089 85.075,170.633 79.916,166.672 74.749 C 164.404 71.790,161.393 64.326,160.318 59.000 C 159.831 56.586,160.115 44.212,160.689 42.800 C 160.913 42.250,161.426 40.720,161.829 39.400 C 165.902 26.053,178.968 14.740,193.200 12.237 C 195.077 11.907,208.197 12.276,209.200 12.687 " stroke="none" fill="#fbfbfb" fill-rule="evenodd"></path><path id="path2" d="M190.800 12.806 C 190.378 13.082,190.615 13.123,191.600 12.942 C 193.325 12.625,193.651 12.398,192.367 12.406 C 191.835 12.409,191.130 12.589,190.800 12.806 M206.833 12.543 C 206.925 12.621,207.630 12.801,208.400 12.942 C 209.385 13.123,209.622 13.082,209.200 12.806 C 208.658 12.450,206.437 12.203,206.833 12.543 M171.375 23.700 L 170.200 25.000 171.500 23.825 C 172.215 23.179,172.800 22.594,172.800 22.525 C 172.800 22.216,172.470 22.488,171.375 23.700 M227.200 22.525 C 227.200 22.594,227.785 23.179,228.500 23.825 L 229.800 25.000 228.625 23.700 C 227.530 22.488,227.200 22.216,227.200 22.525 M231.599 27.500 C 232.122 28.215,232.613 28.800,232.689 28.800 C 232.993 28.800,232.001 27.300,231.345 26.767 C 230.913 26.416,231.010 26.696,231.599 27.500 M160.649 43.015 C 160.512 43.373,160.418 44.056,160.441 44.533 C 160.467 45.081,160.603 44.886,160.810 44.003 C 161.160 42.516,161.065 41.933,160.649 43.015 M239.152 43.687 C 239.337 44.798,239.393 44.855,239.519 44.054 C 239.601 43.533,239.503 42.943,239.301 42.741 C 239.079 42.519,239.021 42.893,239.152 43.687 M240.144 52.000 C 240.144 54.090,240.212 54.945,240.294 53.900 C 240.376 52.855,240.376 51.145,240.294 50.100 C 240.212 49.055,240.144 49.910,240.144 52.000 M239.152 60.313 C 239.021 61.107,239.079 61.481,239.301 61.259 C 239.503 61.057,239.601 60.467,239.519 59.946 C 239.393 59.145,239.337 59.202,239.152 60.313 M167.564 75.933 C 167.780 76.336,168.271 76.921,168.655 77.233 C 169.087 77.584,168.990 77.304,168.401 76.500 C 167.351 75.065,166.957 74.798,167.564 75.933 M171.400 80.400 C 172.706 81.720,173.865 82.800,173.975 82.800 C 174.085 82.800,173.106 81.720,171.800 80.400 C 170.494 79.080,169.335 78.000,169.225 78.000 C 169.115 78.000,170.094 79.080,171.400 80.400 M228.187 80.500 L 225.800 83.000 228.300 80.613 C 229.675 79.299,230.800 78.174,230.800 78.113 C 230.800 77.817,230.405 78.178,228.187 80.500 M177.600 85.620 C 178.987 86.561,179.778 86.835,178.800 86.036 C 178.250 85.586,177.620 85.217,177.400 85.215 C 177.180 85.213,177.270 85.396,177.600 85.620 M220.889 86.223 L 220.000 86.845 220.098 133.523 L 220.197 180.200 220.300 133.600 L 220.403 87.001 221.302 86.309 C 222.422 85.447,222.095 85.378,220.889 86.223 M42.800 160.806 C 42.378 161.082,42.615 161.123,43.600 160.942 C 45.325 160.625,45.651 160.398,44.367 160.406 C 43.835 160.409,43.130 160.589,42.800 160.806 M354.833 160.543 C 354.925 160.621,355.630 160.801,356.400 160.942 C 357.385 161.123,357.622 161.082,357.200 160.806 C 356.658 160.450,354.437 160.203,354.833 160.543 M361.200 162.134 C 361.200 162.237,361.781 162.524,362.491 162.772 C 363.201 163.019,363.606 163.057,363.391 162.856 C 362.935 162.429,361.200 161.858,361.200 162.134 M75.200 167.311 C 75.200 167.387,75.785 167.878,76.500 168.401 C 77.304 168.990,77.584 169.087,77.233 168.655 C 76.700 167.999,75.200 167.007,75.200 167.311 M323.322 168.229 L 322.200 169.258 323.500 168.354 C 324.215 167.857,324.800 167.393,324.800 167.325 C 324.800 167.009,324.358 167.280,323.322 168.229 M80.200 171.600 C 81.506 172.920,82.665 174.000,82.775 174.000 C 82.885 174.000,81.906 172.920,80.600 171.600 C 79.294 170.280,78.135 169.200,78.025 169.200 C 77.915 169.200,78.894 170.280,80.200 171.600 M319.387 171.700 L 317.000 174.200 319.500 171.813 C 320.875 170.499,322.000 169.374,322.000 169.313 C 322.000 169.017,321.605 169.378,319.387 171.700 M23.375 171.700 L 22.200 173.000 23.500 171.825 C 24.215 171.179,24.800 170.594,24.800 170.525 C 24.800 170.216,24.470 170.488,23.375 171.700 M375.200 170.525 C 375.200 170.594,375.785 171.179,376.500 171.825 L 377.800 173.000 376.625 171.700 C 375.530 170.488,375.200 170.216,375.200 170.525 M316.323 175.100 C 315.618 175.921,315.090 176.800,315.301 176.800 C 315.383 176.800,315.849 176.260,316.337 175.600 C 317.301 174.296,317.292 173.972,316.323 175.100 M85.215 177.400 C 85.217 177.620,85.586 178.250,86.036 178.800 C 86.579 179.464,86.715 179.531,86.440 179.000 C 85.766 177.695,85.212 176.972,85.215 177.400 M12.649 191.015 C 12.512 191.373,12.418 192.056,12.441 192.533 C 12.467 193.081,12.603 192.886,12.810 192.003 C 13.160 190.516,13.065 189.933,12.649 191.015 M387.044 191.400 C 387.373 192.871,387.602 193.190,387.594 192.167 C 387.591 191.745,387.405 191.130,387.182 190.800 C 386.885 190.362,386.848 190.524,387.044 191.400 M388.140 200.000 C 388.140 201.870,388.209 202.635,388.293 201.700 C 388.377 200.765,388.377 199.235,388.293 198.300 C 388.209 197.365,388.140 198.130,388.140 200.000 M12.406 207.633 C 12.409 208.165,12.589 208.870,12.806 209.200 C 13.082 209.622,13.123 209.385,12.942 208.400 C 12.625 206.675,12.398 206.349,12.406 207.633 M387.246 207.667 C 387.221 208.034,387.096 208.664,386.970 209.067 C 386.752 209.762,386.763 209.763,387.197 209.087 C 387.448 208.696,387.573 208.066,387.473 207.687 C 387.311 207.068,387.288 207.066,387.246 207.667 M86.511 220.500 C 85.760 221.471,85.541 222.187,86.266 221.302 L 87.001 220.403 133.600 220.300 L 180.200 220.197 133.549 220.098 C 96.607 220.020,86.817 220.104,86.511 220.500 M220.267 220.267 C 219.553 220.981,219.980 313.087,220.700 313.632 C 221.296 314.082,221.325 314.078,220.900 313.601 C 220.506 313.159,220.400 303.210,220.400 266.720 L 220.400 220.400 266.720 220.400 C 303.210 220.400,313.159 220.506,313.601 220.900 C 314.078 221.325,314.082 221.296,313.632 220.700 C 313.087 219.980,220.981 219.553,220.267 220.267 M379.599 224.500 C 379.010 225.304,378.913 225.584,379.345 225.233 C 380.001 224.700,380.993 223.200,380.689 223.200 C 380.613 223.200,380.122 223.785,379.599 224.500 M80.187 228.500 L 77.800 231.000 80.300 228.613 C 82.622 226.395,82.983 226.000,82.687 226.000 C 82.626 226.000,81.501 227.125,80.187 228.500 M319.400 228.400 C 320.706 229.720,321.865 230.800,321.975 230.800 C 322.085 230.800,321.106 229.720,319.800 228.400 C 318.494 227.080,317.335 226.000,317.225 226.000 C 317.115 226.000,318.094 227.080,319.400 228.400 M22.400 227.325 C 22.400 227.394,22.985 227.979,23.700 228.625 L 25.000 229.800 23.825 228.500 C 22.730 227.288,22.400 227.016,22.400 227.325 M376.175 228.500 L 375.000 229.800 376.300 228.625 C 377.015 227.979,377.600 227.394,377.600 227.325 C 377.600 227.016,377.270 227.288,376.175 228.500 M26.767 231.345 C 27.300 232.001,28.800 232.993,28.800 232.689 C 28.800 232.613,28.215 232.122,27.500 231.599 C 26.696 231.010,26.416 230.913,26.767 231.345 M372.200 231.850 C 371.481 232.462,371.334 232.705,371.833 232.457 C 372.566 232.093,373.941 230.776,373.549 230.814 C 373.467 230.822,372.860 231.288,372.200 231.850 M42.741 239.301 C 42.943 239.503,43.533 239.601,44.054 239.519 C 44.855 239.393,44.798 239.337,43.687 239.152 C 42.893 239.021,42.519 239.079,42.741 239.301 M60.200 239.200 L 59.000 239.505 60.076 239.553 C 60.668 239.579,61.264 239.420,61.400 239.200 C 61.536 238.980,61.592 238.821,61.524 238.847 C 61.456 238.873,60.860 239.032,60.200 239.200 M338.741 239.301 C 338.943 239.503,339.533 239.601,340.054 239.519 C 340.855 239.393,340.798 239.337,339.687 239.152 C 338.893 239.021,338.519 239.079,338.741 239.301 M356.200 239.200 L 355.000 239.505 356.076 239.553 C 356.668 239.579,357.264 239.420,357.400 239.200 C 357.536 238.980,357.592 238.821,357.524 238.847 C 357.456 238.873,356.860 239.032,356.200 239.200 M50.100 240.294 C 51.145 240.376,52.855 240.376,53.900 240.294 C 54.945 240.212,54.090 240.144,52.000 240.144 C 49.910 240.144,49.055 240.212,50.100 240.294 M346.100 240.294 C 347.145 240.376,348.855 240.376,349.900 240.294 C 350.945 240.212,350.090 240.144,348.000 240.144 C 345.910 240.144,345.055 240.212,346.100 240.294 M175.322 316.229 L 174.200 317.258 175.500 316.354 C 176.215 315.857,176.800 315.393,176.800 315.325 C 176.800 315.009,176.358 315.280,175.322 316.229 M171.387 319.700 L 169.000 322.200 171.500 319.813 C 173.822 317.595,174.183 317.200,173.887 317.200 C 173.826 317.200,172.701 318.325,171.387 319.700 M228.200 319.600 C 229.506 320.920,230.665 322.000,230.775 322.000 C 230.885 322.000,229.906 320.920,228.600 319.600 C 227.294 318.280,226.135 317.200,226.025 317.200 C 225.915 317.200,226.894 318.280,228.200 319.600 M168.323 323.100 C 167.618 323.921,167.090 324.800,167.301 324.800 C 167.383 324.800,167.849 324.260,168.337 323.600 C 169.301 322.296,169.292 321.972,168.323 323.100 M239.152 339.687 C 239.337 340.798,239.393 340.855,239.519 340.054 C 239.601 339.533,239.503 338.943,239.301 338.741 C 239.079 338.519,239.021 338.893,239.152 339.687 M240.144 348.000 C 240.144 350.090,240.212 350.945,240.294 349.900 C 240.376 348.855,240.376 347.145,240.294 346.100 C 240.212 345.055,240.144 345.910,240.144 348.000 M160.406 355.633 C 160.409 356.165,160.589 356.870,160.806 357.200 C 161.082 357.622,161.123 357.385,160.942 356.400 C 160.625 354.675,160.398 354.349,160.406 355.633 M239.152 356.313 C 239.021 357.107,239.079 357.481,239.301 357.259 C 239.503 357.057,239.601 356.467,239.519 355.946 C 239.393 355.145,239.337 355.202,239.152 356.313 M162.218 362.100 C 162.368 362.595,162.655 363.176,162.856 363.391 C 163.057 363.606,163.019 363.201,162.772 362.491 C 162.265 361.038,161.797 360.708,162.218 362.100 M231.599 372.500 C 231.010 373.304,230.913 373.584,231.345 373.233 C 232.001 372.700,232.993 371.200,232.689 371.200 C 232.613 371.200,232.122 371.785,231.599 372.500 M170.400 375.325 C 170.400 375.394,170.985 375.979,171.700 376.625 L 173.000 377.800 171.825 376.500 C 170.730 375.288,170.400 375.016,170.400 375.325 M228.175 376.500 L 227.000 377.800 228.300 376.625 C 229.015 375.979,229.600 375.394,229.600 375.325 C 229.600 375.016,229.270 375.288,228.175 376.500 M224.200 379.850 C 223.481 380.462,223.334 380.705,223.833 380.457 C 224.566 380.093,225.941 378.776,225.549 378.814 C 225.467 378.822,224.860 379.288,224.200 379.850 M190.800 387.182 C 191.130 387.405,191.745 387.591,192.167 387.594 C 193.190 387.602,192.871 387.373,191.400 387.044 C 190.524 386.848,190.362 386.885,190.800 387.182 M208.000 387.200 C 207.176 387.464,207.141 387.526,207.800 387.554 C 208.240 387.573,208.870 387.413,209.200 387.200 C 209.901 386.747,209.414 386.747,208.000 387.200 M198.300 388.293 C 199.235 388.377,200.765 388.377,201.700 388.293 C 202.635 388.209,201.870 388.140,200.000 388.140 C 198.130 388.140,197.365 388.209,198.300 388.293 " stroke="none" fill="#a2a2a2" fill-rule="evenodd"></path><path id="path3" d="M197.900 12.295 C 199.055 12.376,200.945 12.376,202.100 12.295 C 203.255 12.214,202.310 12.148,200.000 12.148 C 197.690 12.148,196.745 12.214,197.900 12.295 M190.400 13.200 C 189.576 13.464,189.541 13.526,190.200 13.554 C 190.640 13.573,191.270 13.413,191.600 13.200 C 192.301 12.747,191.814 12.747,190.400 13.200 M208.400 13.182 C 208.730 13.405,209.345 13.591,209.767 13.594 C 210.790 13.602,210.471 13.373,209.000 13.044 C 208.124 12.848,207.962 12.885,208.400 13.182 M228.400 24.200 C 229.146 24.970,229.847 25.600,229.957 25.600 C 230.067 25.600,229.546 24.970,228.800 24.200 C 228.054 23.430,227.353 22.800,227.243 22.800 C 227.133 22.800,227.654 23.430,228.400 24.200 M161.246 42.067 C 161.221 42.434,161.096 43.064,160.970 43.467 C 160.752 44.162,160.763 44.163,161.197 43.487 C 161.448 43.096,161.573 42.466,161.473 42.087 C 161.311 41.468,161.288 41.466,161.246 42.067 M239.693 48.800 C 239.693 49.570,239.775 49.885,239.876 49.500 C 239.976 49.115,239.976 48.485,239.876 48.100 C 239.775 47.715,239.693 48.030,239.693 48.800 M160.114 49.800 C 160.117 50.900,160.195 51.303,160.287 50.695 C 160.379 50.086,160.377 49.186,160.282 48.695 C 160.187 48.203,160.111 48.700,160.114 49.800 M160.114 54.200 C 160.117 55.300,160.195 55.703,160.287 55.095 C 160.379 54.486,160.377 53.586,160.282 53.095 C 160.187 52.603,160.111 53.100,160.114 54.200 M239.701 55.000 C 239.705 55.880,239.787 56.193,239.883 55.695 C 239.979 55.198,239.975 54.478,239.875 54.095 C 239.775 53.713,239.696 54.120,239.701 55.000 M227.964 80.100 C 226.514 81.585,225.440 82.800,225.576 82.800 C 225.925 82.800,230.994 77.646,230.778 77.511 C 230.680 77.450,229.414 78.615,227.964 80.100 M171.600 80.200 C 172.795 81.410,173.863 82.400,173.973 82.400 C 174.083 82.400,173.195 81.410,172.000 80.200 C 170.805 78.990,169.737 78.000,169.627 78.000 C 169.517 78.000,170.405 78.990,171.600 80.200 M48.905 160.287 C 49.514 160.379,50.414 160.377,50.905 160.282 C 51.397 160.187,50.900 160.111,49.800 160.114 C 48.700 160.117,48.297 160.195,48.905 160.287 M53.305 160.287 C 53.914 160.379,54.814 160.377,55.305 160.282 C 55.797 160.187,55.300 160.111,54.200 160.114 C 53.100 160.117,52.697 160.195,53.305 160.287 M344.905 160.287 C 345.514 160.379,346.414 160.377,346.905 160.282 C 347.397 160.187,346.900 160.111,345.800 160.114 C 344.700 160.117,344.297 160.195,344.905 160.287 M349.305 160.287 C 349.914 160.379,350.814 160.377,351.305 160.282 C 351.797 160.187,351.300 160.111,350.200 160.114 C 349.100 160.117,348.697 160.195,349.305 160.287 M42.400 161.200 C 41.576 161.464,41.541 161.526,42.200 161.554 C 42.640 161.573,43.270 161.413,43.600 161.200 C 44.301 160.747,43.814 160.747,42.400 161.200 M356.400 161.182 C 356.730 161.405,357.345 161.591,357.767 161.594 C 358.790 161.602,358.471 161.373,357.000 161.044 C 356.124 160.848,355.962 160.885,356.400 161.182 M80.000 171.800 C 81.195 173.010,82.263 174.000,82.373 174.000 C 82.483 174.000,81.595 173.010,80.400 171.800 C 79.205 170.590,78.137 169.600,78.027 169.600 C 77.917 169.600,78.805 170.590,80.000 171.800 M319.600 171.800 C 318.628 172.790,317.923 173.600,318.033 173.600 C 318.143 173.600,319.028 172.790,320.000 171.800 C 320.972 170.810,321.677 170.000,321.567 170.000 C 321.457 170.000,320.572 170.810,319.600 171.800 M376.400 172.200 C 377.146 172.970,377.847 173.600,377.957 173.600 C 378.067 173.600,377.546 172.970,376.800 172.200 C 376.054 171.430,375.353 170.800,375.243 170.800 C 375.133 170.800,375.654 171.430,376.400 172.200 M386.244 189.400 C 386.573 190.871,386.802 191.190,386.794 190.167 C 386.791 189.745,386.605 189.130,386.382 188.800 C 386.085 188.362,386.048 188.524,386.244 189.400 M13.246 190.067 C 13.221 190.434,13.096 191.064,12.970 191.467 C 12.752 192.162,12.763 192.163,13.197 191.487 C 13.448 191.096,13.573 190.466,13.473 190.087 C 13.311 189.468,13.288 189.466,13.246 190.067 M387.485 196.000 C 387.607 197.430,387.772 198.675,387.853 198.767 C 388.120 199.070,387.911 195.822,387.585 194.600 C 387.382 193.844,387.346 194.362,387.485 196.000 M12.148 200.000 C 12.148 202.310,12.214 203.255,12.295 202.100 C 12.376 200.945,12.376 199.055,12.295 197.900 C 12.214 196.745,12.148 197.690,12.148 200.000 M387.466 203.568 C 387.319 204.978,387.274 206.207,387.366 206.300 C 387.614 206.547,388.115 202.146,387.910 201.530 C 387.813 201.240,387.614 202.157,387.466 203.568 M13.044 209.000 C 13.373 210.471,13.602 210.790,13.594 209.767 C 13.591 209.345,13.405 208.730,13.182 208.400 C 12.885 207.962,12.848 208.124,13.044 209.000 M386.446 209.667 C 386.421 210.034,386.296 210.664,386.170 211.067 C 385.952 211.762,385.963 211.763,386.397 211.087 C 386.648 210.696,386.773 210.066,386.673 209.687 C 386.511 209.068,386.488 209.066,386.446 209.667 M79.964 228.100 C 78.514 229.585,77.440 230.800,77.576 230.800 C 77.925 230.800,82.994 225.646,82.778 225.511 C 82.680 225.450,81.414 226.615,79.964 228.100 M319.600 228.200 C 320.795 229.410,321.863 230.400,321.973 230.400 C 322.083 230.400,321.195 229.410,320.000 228.200 C 318.805 226.990,317.737 226.000,317.627 226.000 C 317.517 226.000,318.405 226.990,319.600 228.200 M376.000 228.200 C 375.028 229.190,374.323 230.000,374.433 230.000 C 374.543 230.000,375.428 229.190,376.400 228.200 C 377.372 227.210,378.077 226.400,377.967 226.400 C 377.857 226.400,376.972 227.210,376.000 228.200 M24.000 228.600 C 24.746 229.370,25.447 230.000,25.557 230.000 C 25.667 230.000,25.146 229.370,24.400 228.600 C 23.654 227.830,22.953 227.200,22.843 227.200 C 22.733 227.200,23.254 227.830,24.000 228.600 M358.000 238.400 C 357.176 238.664,357.141 238.726,357.800 238.754 C 358.240 238.773,358.870 238.613,359.200 238.400 C 359.901 237.947,359.414 237.947,358.000 238.400 M48.100 239.876 C 48.485 239.976,49.115 239.976,49.500 239.876 C 49.885 239.775,49.570 239.693,48.800 239.693 C 48.030 239.693,47.715 239.775,48.100 239.876 M54.500 239.876 C 54.885 239.976,55.515 239.976,55.900 239.876 C 56.285 239.775,55.970 239.693,55.200 239.693 C 54.430 239.693,54.115 239.775,54.500 239.876 M344.305 239.883 C 344.802 239.979,345.522 239.975,345.905 239.875 C 346.287 239.775,345.880 239.696,345.000 239.701 C 344.120 239.705,343.807 239.787,344.305 239.883 M350.500 239.876 C 350.885 239.976,351.515 239.976,351.900 239.876 C 352.285 239.775,351.970 239.693,351.200 239.693 C 350.430 239.693,350.115 239.775,350.500 239.876 M228.000 319.800 C 229.195 321.010,230.263 322.000,230.373 322.000 C 230.483 322.000,229.595 321.010,228.400 319.800 C 227.205 318.590,226.137 317.600,226.027 317.600 C 225.917 317.600,226.805 318.590,228.000 319.800 M171.600 319.800 C 170.628 320.790,169.923 321.600,170.033 321.600 C 170.143 321.600,171.028 320.790,172.000 319.800 C 172.972 318.810,173.677 318.000,173.567 318.000 C 173.457 318.000,172.572 318.810,171.600 319.800 M239.701 345.000 C 239.705 345.880,239.787 346.193,239.883 345.695 C 239.979 345.198,239.975 344.478,239.875 344.095 C 239.775 343.713,239.696 344.120,239.701 345.000 M160.114 345.800 C 160.117 346.900,160.195 347.303,160.287 346.695 C 160.379 346.086,160.377 345.186,160.282 344.695 C 160.187 344.203,160.111 344.700,160.114 345.800 M160.047 350.233 C 160.073 351.315,160.235 352.740,160.406 353.400 C 160.588 354.103,160.628 353.358,160.503 351.600 C 160.257 348.159,159.977 347.318,160.047 350.233 M239.693 351.200 C 239.693 351.970,239.775 352.285,239.876 351.900 C 239.976 351.515,239.976 350.885,239.876 350.500 C 239.775 350.115,239.693 350.430,239.693 351.200 M161.044 357.000 C 161.373 358.471,161.602 358.790,161.594 357.767 C 161.591 357.345,161.405 356.730,161.182 356.400 C 160.885 355.962,160.848 356.124,161.044 357.000 M167.599 371.500 C 168.122 372.215,168.613 372.800,168.689 372.800 C 168.993 372.800,168.001 371.300,167.345 370.767 C 166.913 370.416,167.010 370.696,167.599 371.500 M228.000 376.200 C 227.028 377.190,226.323 378.000,226.433 378.000 C 226.543 378.000,227.428 377.190,228.400 376.200 C 229.372 375.210,230.077 374.400,229.967 374.400 C 229.857 374.400,228.972 375.210,228.000 376.200 M172.000 376.600 C 172.746 377.370,173.447 378.000,173.557 378.000 C 173.667 378.000,173.146 377.370,172.400 376.600 C 171.654 375.830,170.953 375.200,170.843 375.200 C 170.733 375.200,171.254 375.830,172.000 376.600 M174.544 378.709 C 174.860 379.221,177.200 380.953,177.200 380.675 C 177.200 380.576,176.539 379.991,175.732 379.375 C 174.924 378.759,174.389 378.459,174.544 378.709 M188.800 386.382 C 189.130 386.605,189.745 386.791,190.167 386.794 C 191.190 386.802,190.871 386.573,189.400 386.244 C 188.524 386.048,188.362 386.085,188.800 386.382 M210.000 386.400 C 209.176 386.664,209.141 386.726,209.800 386.754 C 210.240 386.773,210.870 386.613,211.200 386.400 C 211.901 385.947,211.414 385.947,210.000 386.400 M194.600 387.585 C 195.822 387.911,199.070 388.120,198.767 387.853 C 198.675 387.772,197.430 387.607,196.000 387.485 C 194.362 387.346,193.844 387.382,194.600 387.585 M202.800 387.600 L 201.000 387.880 202.600 387.893 C 203.480 387.900,204.740 387.768,205.400 387.600 C 207.000 387.193,205.419 387.193,202.800 387.600 " stroke="none" fill="#7c7c7c" fill-rule="evenodd"></path><path id="path4" d="" stroke="none" fill="#848484" fill-rule="evenodd"></path></g></svg>