<svg xmlns="http://www.w3.org/2000/svg" version="1" width="1000" height="500"><g><path d="M0 0h1000v500H0z" fill="#fff"/><g><path d="M382.12 93.255h229.713l-.001 135.256c0 100.606-104.557 175.684-115.005 175.674-10.527-.01-114.71-74.423-114.71-175.674V93.255z" fill="#003e9e" stroke="#eeca00" stroke-width="7.911471099999999"/><path d="M391.71 105.184l-.03 19.27 173.744 200.75c4.788-4.48 12.982-17.104 14.612-22.399L408.962 105.146l-17.253.04z" fill="#fff"/><path d="M570.924 113.938c-3.501 1.971-7.438 5.42-7.438 12.321.437 5.916 5.689 20.703 5.25 27.604h-.437c-.439-.986-.439-6.408-3.501-11.832-3.063-5.913-5.69-5.42-7.878-5.42-3.939 0-7.44 3.943-7.44 8.378 0 3.945 3.939 8.874 7.44 8.874-1.313-.986-1.75-3.45-1.313-4.93 0-.986 2.188-2.463 3.501-2.463 1.75.492 3.064 1.477 4.378 2.956 1.312 1.48 2.188 2.958 3.062 4.437h-5.252c-1.312 0-2.188.985-2.188 1.972 0 1.478.876 1.971 2.188 1.971h5.25c3.504.493.44 6.407-.435 7.393l2.188 2.464c.439.987.875 1.972.875 3.451.438.985.876 1.479 1.75 1.479.875 0 .875-.494 1.314-1.479.438-1.479.438-2.464 1.312-3.45.438-.986 1.313-1.48 1.752-2.465-.439-.986-3.94-6.9 0-7.393h4.376c1.313 0 2.188-.493 2.188-1.971 0-.987-.875-1.972-2.188-1.972h-4.376c.437-1.479 1.75-2.958 2.188-4.437 1.313-1.479 2.625-2.464 4.376-2.958 1.75 0 3.501 1.48 3.939 2.466.438.985 0 3.943-1.314 4.929 3.502 0 7.44-4.93 7.44-8.874 0-4.435-3.501-8.378-7.44-8.378-2.188 0-4.813-.493-7.877 5.42-3.064 5.424-3.064 10.846-3.064 11.832h-.875c0-6.9 4.815-21.69 5.25-27.604-.435-6.9-3.937-10.35-7-12.321zm-68.752 0c-3.5 1.971-7.44 5.42-7.44 12.321.439 5.916 5.69 20.703 5.252 27.604h-.437c-.439-.986-.439-6.408-3.501-11.832-3.063-5.913-5.69-5.42-7.878-5.42-3.939 0-7.44 3.943-7.44 8.378 0 3.945 3.94 8.874 7.44 8.874-1.312-.986-1.75-3.45-1.312-4.93 0-.986 2.188-2.463 3.5-2.463 1.75.492 3.064 1.477 4.376 2.956 1.314 1.48 2.19 2.958 3.064 4.437h-5.252c-1.312 0-2.188.985-2.188 1.972 0 1.478.876 1.971 2.188 1.971h5.252c3.502.493.44 6.407-.437 7.393l2.188 2.464c.439.987.876 1.972.876 3.451.437.985.875 1.479 1.75 1.479.876 0 .876-.494 1.313-1.479.439-1.479.439-2.464 1.313-3.45.438-.986 1.314-1.48 1.75-2.465-.438-.986-3.938-6.9 0-7.393h4.377c1.313 0 2.188-.493 2.188-1.971 0-.987-.875-1.972-2.188-1.972h-4.376c.437-1.479 1.75-2.958 2.188-4.437 1.313-1.479 2.625-2.464 4.376-2.958 1.75 0 3.501 1.48 3.939 2.466.439.985 0 3.943-1.312 4.929 3.501 0 7.44-4.93 7.44-8.874 0-4.435-3.501-8.378-7.44-8.378-2.19 0-4.815-.493-7.88 5.42-3.062 5.424-3.062 10.846-3.062 11.832h-.874c0-6.9 4.813-21.69 5.25-27.604-.437-6.9-3.938-10.35-7.001-12.321zm68.752 79.942c-3.501 1.972-7.438 5.42-7.438 12.323.437 5.916 5.689 20.702 5.25 27.603h-.437c-.439-.985-.439-6.407-3.501-11.83-3.063-5.915-5.69-5.421-7.878-5.421-3.939 0-7.44 3.943-7.44 8.378 0 3.943 3.939 8.874 7.44 8.874-1.313-.986-1.75-3.452-1.313-4.93 0-.986 2.188-2.463 3.501-2.463 1.75.49 3.064 1.477 4.378 2.956 1.312 1.478 2.188 2.958 3.062 4.436h-5.252c-1.312 0-2.188.986-2.188 1.971 0 1.479.876 1.972 2.188 1.972h5.25c3.504.492.44 6.408-.435 7.393l2.188 2.465c.439.985.875 1.972.875 3.45.438.986.876 1.48 1.75 1.48.875 0 .875-.494 1.314-1.48.438-1.478.438-2.465 1.312-3.45.438-.986 1.313-1.479 1.752-2.465-.439-.985-3.94-6.9 0-7.393h4.376c1.313 0 2.188-.493 2.188-1.972 0-.985-.875-1.971-2.188-1.971h-4.376c.437-1.478 1.75-2.958 2.188-4.436 1.313-1.479 2.625-2.465 4.376-2.958 1.75 0 3.501 1.48 3.939 2.464.438.987 0 3.945-1.314 4.93 3.502 0 7.44-4.93 7.44-8.873 0-4.435-3.501-8.378-7.44-8.378-2.188 0-4.813-.494-7.877 5.42-3.064 5.424-3.064 10.846-3.064 11.832h-.875c0-6.902 4.815-21.69 5.25-27.604-.435-6.9-3.937-10.351-7-12.323zm-150.293 0c-3.502 1.972-7.44 5.42-7.44 12.323.438 5.916 5.689 20.702 5.252 27.603h-.44c-.435-.985-.435-6.407-3.5-11.83-3.063-5.915-5.689-5.421-7.877-5.421-3.938 0-7.44 3.943-7.44 8.378 0 3.943 3.939 8.874 7.44 8.874-1.313-.986-1.75-3.452-1.313-4.93 0-.986 2.19-2.463 3.501-2.463 1.751.49 3.064 1.477 4.376 2.956 1.314 1.478 2.189 2.958 3.065 4.436h-5.253c-1.312 0-2.188.986-2.188 1.971 0 1.479.876 1.972 2.188 1.972h5.253c3.501.492.438 6.408-.44 7.393l2.19 2.465c.439.985.875 1.972.875 3.45.439.986.876 1.48 1.75 1.48.877 0 .877-.494 1.314-1.48.437-1.478.437-2.465 1.313-3.45.438-.986 1.312-1.479 1.751-2.465-.439-.985-3.939-6.9 0-7.393h4.376c1.312 0 2.188-.493 2.188-1.972 0-.985-.876-1.971-2.188-1.971h-4.376c.437-1.478 1.75-2.958 2.188-4.436 1.312-1.479 2.626-2.465 4.376-2.958 1.75 0 3.502 1.48 3.939 2.464.439.987 0 3.945-1.313 4.93 3.501 0 7.44-4.93 7.44-8.873 0-4.435-3.5-8.378-7.44-8.378-2.188 0-4.814-.494-7.878 5.42-3.063 5.424-3.063 10.846-3.063 11.832h-.877c0-6.902 4.816-21.69 5.253-27.604-.438-6.9-3.938-10.351-7.002-12.323zm39.972 57.56c-3.502 1.972-7.44 5.42-7.44 12.323.438 5.914 5.689 20.701 5.25 27.602h-.436c-.438-.985-.438-6.408-3.501-11.83-3.064-5.915-5.69-5.42-7.878-5.42-3.938 0-7.44 3.941-7.44 8.378 0 3.943 3.939 8.872 7.44 8.872-1.313-.985-1.75-3.45-1.313-4.93 0-.984 2.188-2.463 3.501-2.463 1.751.492 3.063 1.479 4.376 2.958 1.314 1.477 2.188 2.956 3.065 4.435h-5.253c-1.313 0-2.188.985-2.188 1.972 0 1.479.875 1.971 2.188 1.971h5.251c3.503.493.439 6.409-.436 7.394l2.188 2.464c.438.986.875 1.971.875 3.45.439.987.876 1.48 1.75 1.48.877 0 .877-.493 1.314-1.48.437-1.479.437-2.464 1.312-3.45.439-.985 1.313-1.478 1.75-2.463-.437-.986-3.938-6.902 0-7.395h4.377c1.313 0 2.19-.492 2.19-1.971 0-.987-.877-1.972-2.19-1.972h-4.376c.438-1.479 1.75-2.958 2.188-4.437 1.313-1.477 2.626-2.464 4.377-2.958 1.75 0 3.502 1.48 3.939 2.466.437.985 0 3.944-1.313 4.93 3.501 0 7.44-4.93 7.44-8.873 0-4.437-3.502-8.379-7.44-8.379-2.188 0-4.815-.494-7.878 5.42-3.064 5.423-3.064 10.846-3.064 11.831h-.875c0-6.9 4.814-21.688 5.251-27.602-.437-6.901-3.937-10.351-7.001-12.323zM497.377 309c-3.502 1.971-7.441 5.42-7.441 12.321.439 5.916 5.69 20.703 5.252 27.603h-.437c-.44-.985-.44-6.407-3.502-11.83-3.062-5.915-5.69-5.421-7.877-5.421-3.939 0-7.44 3.943-7.44 8.378 0 3.945 3.938 8.874 7.44 8.874-1.312-.986-1.75-3.452-1.312-4.93 0-.986 2.188-2.465 3.5-2.465 1.75.494 3.064 1.48 4.376 2.958 1.313 1.48 2.188 2.958 3.064 4.436h-5.252c-1.312 0-2.188.986-2.188 1.973 0 1.477.876 1.971 2.188 1.971H493c3.501.493.439 6.407-.437 7.394l2.188 2.464c.438.986.876 1.971.876 3.45.437.985.874 1.479 1.75 1.479.875 0 .875-.494 1.312-1.479.44-1.479.44-2.464 1.314-3.45.437-.985 1.313-1.48 1.75-2.464-.438-.987-3.938-6.901 0-7.394h4.377c1.312 0 2.188-.494 2.188-1.971 0-.987-.876-1.973-2.188-1.973h-4.376c.437-1.48 1.75-2.958 2.188-4.436 1.312-1.479 2.625-2.464 4.376-2.958 1.75 0 3.501 1.48 3.938 2.466.44.985 0 3.943-1.313 4.928 3.503 0 7.44-4.928 7.44-8.871 0-4.437-3.5-8.38-7.44-8.38-2.188 0-4.812-.493-7.878 5.42-3.062 5.424-3.062 10.846-3.062 11.832h-.875c0-6.9 4.814-21.69 5.25-27.604-.436-6.9-3.938-10.35-7-12.323z" fill="#eec900"/></g></g></svg>