<?xml version="1.0" encoding="UTF-8" standalone="no"?>
<svg
   xmlns:dc="http://purl.org/dc/elements/1.1/"
   xmlns:cc="http://creativecommons.org/ns#"
   xmlns:rdf="http://www.w3.org/1999/02/22-rdf-syntax-ns#"
   xmlns:svg="http://www.w3.org/2000/svg"
   xmlns="http://www.w3.org/2000/svg"
   xmlns:xlink="http://www.w3.org/1999/xlink"
   xmlns:sodipodi="http://sodipodi.sourceforge.net/DTD/sodipodi-0.dtd"
   xmlns:inkscape="http://www.inkscape.org/namespaces/inkscape"
   height="300"
   width="600"
   version="1.1"
   id="svg331"
   sodipodi:docname="British_Raj_Red_Ensign.svg"
   inkscape:version="0.92.3 (2405546, 2018-03-11)">
  <metadata
     id="metadata337">
    <rdf:RDF>
      <cc:Work
         rdf:about="">
        <dc:format>image/svg+xml</dc:format>
        <dc:type
           rdf:resource="http://purl.org/dc/dcmitype/StillImage" />
      </cc:Work>
    </rdf:RDF>
  </metadata>
  <defs
     id="defs335">
    <clipPath
       id="b">
      <path
         id="path2-3"
         d="M0 0v1.5h7V3H6zm6 0H3v3.5H0V3z" />
    </clipPath>
    <path
       d="M0-360l69.421 215.845 212.038-80.301L155.99-35.603l194.985 115.71-225.881 19.651 31.105 224.59L0 160l-156.198 164.349 31.105-224.59-225.881-19.651 194.986-115.711-125.471-188.853 212.038 80.301z"
       id="a-5" />
    <path
       d="M0-210L54.86-75.508l144.862 10.614L88.765 28.842l34.67 141.052L0 93.334l-123.435 76.56 34.67-141.052-110.957-93.736L-54.86-75.508z"
       id="d" />
    <use
       transform="scale(2.1)"
       xlink:href="#a-5"
       id="c" />
  </defs>
  <sodipodi:namedview
     pagecolor="#ffffff"
     bordercolor="#666666"
     borderopacity="1"
     objecttolerance="10"
     gridtolerance="10"
     guidetolerance="10"
     inkscape:pageopacity="0"
     inkscape:pageshadow="2"
     inkscape:window-width="1920"
     inkscape:window-height="1017"
     id="namedview333"
     showgrid="false"
     inkscape:zoom="1.3670731"
     inkscape:cx="341.69389"
     inkscape:cy="194.66467"
     inkscape:window-x="-4"
     inkscape:window-y="-4"
     inkscape:window-maximized="1"
     inkscape:current-layer="svg331" />
  <clipPath
     id="a">
    <path
       d="m150 75h150v75zm0 0v75h-150zm0 0h-150v-75zm0 0v-75h150z"
       id="path2" />
  </clipPath>
  <path
     d="m0 0h600v300h-600z"
     id="path5"
     fill="#c8102e"
     style="fill:#c8102f;fill-opacity:1" />
  <svg
     height="150"
     version="1.1"
     width="300"
     id="svg17">
    <path
       d="m0 0h300v150h-300z"
       fill="#012169"
       id="path7"
       style="fill:#012169;fill-opacity:1" />
    <path
       d="m0 0 300 150m0-150-300 150"
       stroke="#fff"
       stroke-width="30"
       id="path9" />
    <path
       clip-path="url(#a)"
       d="m0 0 300 150m0-150-300 150"
       id="path11"
       stroke-width="20"
       stroke="#c8102e"
       style="fill:#c8102f;fill-opacity:1" />
    <path
       d="m150 0v150m-150-75h300"
       stroke="#fff"
       stroke-width="50"
       id="path13" />
    <path
       d="m150 0v150m-150-75h300"
       id="path15"
       stroke-width="30"
       stroke="#c8102e"
       style="fill:#c8102f;fill-opacity:1" />
  </svg>
  <g
     transform="matrix(.38461534 0 0 .38461539 375 74.999999)"
     id="g329">
    <g
       transform="matrix(3.951714 0 0 3.9617324 -879.39476 -179.05352)"
       id="g103"
       stroke-width=".505466"
       stroke="#806600">
      <g
         id="g59">
        <g
           transform="translate(18.90662 -24.94623)"
           id="g27">
          <path
             d="m253.08253 118.57493-2.41385-24.509827s.73339 6.408707 0 0c-.0113-7.984261-1.11408-10.583788-1.11408-10.583788s.84022 2.747552 0 0c-1.36542-5.570416-.49686-8.363354.0113-9.18652 3.52793-4.827693 7.23028-3.811116 7.23028-3.811116s-.93613-.132896 0 0c-3.52793 5.384735-1.81369 8.569628-1.00532 10.420636.74273 5.199054-.29445 13.532149-.29445 13.532149s-1.48544 9.284026 0 0c1.48545-9.284025.22333-10.764002.66581-13.794741 1.4272-4.212403 5.22319-5.729704 7.536-6.425772-1.36348 3.899291-.22688 7.753528-.35817 10.510743-.2626 4.464062-3.20162 10.452492-3.20162 10.452492l-7.05586 23.395744z"
             id="path19"
             fill-rule="evenodd"
             fill="#fdd502" />
          <g
             id="g25"
             fill="none">
            <path
               d="m256.61792 70.531119c-3.80759.853423-4.59536 6.236556-4.59536 6.236556s.13129 4.135823 1.24732 8.205997c.26259 3.282399-.2626 12.473115-.2626 12.473115l.26259 19.563093"
               id="path21" />
            <path
               d="m263.37966 74.404348s-3.28239 3.807582-3.61063 5.054895c-.78778 3.479342-.65649 5.251837-.32825 8.534235-.72213 4.464063-2.29768 9.912844-2.29768 9.912844l-3.74193 16.937168"
               id="path23" />
          </g>
        </g>
        <g
           transform="matrix(.92388 -.382683 .382683 .92388 -7.562222 80.78004)"
           id="g37">
          <path
             d="m253.08253 118.57493-2.41385-24.509827s.73339 6.408707 0 0c-.0113-7.984261-1.11408-10.583788-1.11408-10.583788s.84022 2.747552 0 0c-1.36542-5.570416-.49686-8.363354.0113-9.18652 3.52793-4.827693 7.23028-3.811116 7.23028-3.811116s-.93613-.132896 0 0c-3.52793 5.384735-1.81369 8.569628-1.00532 10.420636.74273 5.199054-.29445 13.532149-.29445 13.532149s-1.48544 9.284026 0 0c1.48545-9.284025.22333-10.764002.66581-13.794741 1.4272-4.212403 5.22319-5.729704 7.536-6.425772-1.36348 3.899291-.22688 7.753528-.35817 10.510743-.2626 4.464062-3.20162 10.452492-3.20162 10.452492l-7.05586 23.395744z"
             id="path29"
             fill-rule="evenodd"
             fill="#fdd502" />
          <g
             id="g35"
             fill="none">
            <path
               d="m256.61792 70.531119c-3.80759.853423-4.59536 6.236556-4.59536 6.236556s.13129 4.135823 1.24732 8.205997c.26259 3.282399-.2626 12.473115-.2626 12.473115l.26259 19.563093"
               id="path31" />
            <path
               d="m263.37966 74.404348s-3.28239 3.807582-3.61063 5.054895c-.78778 3.479342-.65649 5.251837-.32825 8.534235-.72213 4.464063-2.29768 9.912844-2.29768 9.912844l-3.74193 16.937168"
               id="path33" />
          </g>
        </g>
        <g
           transform="matrix(.707107 -.707107 .707107 .707107 8.716615 188.7297)"
           id="g47">
          <path
             d="m253.08253 118.57493-2.41385-24.509827s.73339 6.408707 0 0c-.0113-7.984261-1.11408-10.583788-1.11408-10.583788s.84022 2.747552 0 0c-1.36542-5.570416-.49686-8.363354.0113-9.18652 3.52793-4.827693 7.23028-3.811116 7.23028-3.811116s-.93613-.132896 0 0c-3.52793 5.384735-1.81369 8.569628-1.00532 10.420636.74273 5.199054-.29445 13.532149-.29445 13.532149s-1.48544 9.284026 0 0c1.48545-9.284025.22333-10.764002.66581-13.794741 1.4272-4.212403 5.22319-5.729704 7.536-6.425772-1.36348 3.899291-.22688 7.753528-.35817 10.510743-.2626 4.464062-3.20162 10.452492-3.20162 10.452492l-7.05586 23.395744z"
             id="path39"
             fill-rule="evenodd"
             fill="#fdd502" />
          <g
             id="g45"
             fill="none">
            <path
               d="m256.61792 70.531119c-3.80759.853423-4.59536 6.236556-4.59536 6.236556s.13129 4.135823 1.24732 8.205997c.26259 3.282399-.2626 12.473115-.2626 12.473115l.26259 19.563093"
               id="path41" />
            <path
               d="m263.37966 74.404348s-3.28239 3.807582-3.61063 5.054895c-.78778 3.479342-.65649 5.251837-.32825 8.534235-.72213 4.464063-2.29768 9.912844-2.29768 9.912844l-3.74193 16.937168"
               id="path43" />
          </g>
        </g>
        <g
           transform="matrix(.382684 -.92388 .92388 .382684 64.8742 282.511)"
           id="g57">
          <path
             d="m253.08253 118.57493-2.41385-24.509827s.73339 6.408707 0 0c-.0113-7.984261-1.11408-10.583788-1.11408-10.583788s.84022 2.747552 0 0c-1.36542-5.570416-.49686-8.363354.0113-9.18652 3.52793-4.827693 7.23028-3.811116 7.23028-3.811116s-.93613-.132896 0 0c-3.52793 5.384735-1.81369 8.569628-1.00532 10.420636.74273 5.199054-.29445 13.532149-.29445 13.532149s-1.48544 9.284026 0 0c1.48545-9.284025.22333-10.764002.66581-13.794741 1.4272-4.212403 5.22319-5.729704 7.536-6.425772-1.36348 3.899291-.22688 7.753528-.35817 10.510743-.2626 4.464062-3.20162 10.452492-3.20162 10.452492l-7.05586 23.395744z"
             id="path49"
             fill-rule="evenodd"
             fill="#fdd502" />
          <g
             id="g55"
             fill="none">
            <path
               d="m256.61792 70.531119c-3.80759.853423-4.59536 6.236556-4.59536 6.236556s.13129 4.135823 1.24732 8.205997c.26259 3.282399-.2626 12.473115-.2626 12.473115l.26259 19.563093"
               id="path51" />
            <path
               d="m263.37966 74.404348s-3.28239 3.807582-3.61063 5.054895c-.78778 3.479342-.65649 5.251837-.32825 8.534235-.72213 4.464063-2.29768 9.912844-2.29768 9.912844l-3.74193 16.937168"
               id="path53" />
          </g>
        </g>
      </g>
      <g
         transform="matrix(0 -1 1 0 177.3399 366.3712)"
         id="g101">
        <g
           transform="translate(18.90662 -24.94623)"
           id="g69">
          <path
             d="m253.08253 118.57493-2.41385-24.509827s.73339 6.408707 0 0c-.0113-7.984261-1.11408-10.583788-1.11408-10.583788s.84022 2.747552 0 0c-1.36542-5.570416-.49686-8.363354.0113-9.18652 3.52793-4.827693 7.23028-3.811116 7.23028-3.811116s-.93613-.132896 0 0c-3.52793 5.384735-1.81369 8.569628-1.00532 10.420636.74273 5.199054-.29445 13.532149-.29445 13.532149s-1.48544 9.284026 0 0c1.48545-9.284025.22333-10.764002.66581-13.794741 1.4272-4.212403 5.22319-5.729704 7.536-6.425772-1.36348 3.899291-.22688 7.753528-.35817 10.510743-.2626 4.464062-3.20162 10.452492-3.20162 10.452492l-7.05586 23.395744z"
             id="path61"
             fill-rule="evenodd"
             fill="#fdd502" />
          <g
             id="g67"
             fill="none">
            <path
               d="m256.61792 70.531119c-3.80759.853423-4.59536 6.236556-4.59536 6.236556s.13129 4.135823 1.24732 8.205997c.26259 3.282399-.2626 12.473115-.2626 12.473115l.26259 19.563093"
               id="path63" />
            <path
               d="m263.37966 74.404348s-3.28239 3.807582-3.61063 5.054895c-.78778 3.479342-.65649 5.251837-.32825 8.534235-.72213 4.464063-2.29768 9.912844-2.29768 9.912844l-3.74193 16.937168"
               id="path65" />
          </g>
        </g>
        <g
           transform="matrix(.92388 -.382683 .382683 .92388 -7.562222 80.78004)"
           id="g79">
          <path
             d="m253.08253 118.57493-2.41385-24.509827s.73339 6.408707 0 0c-.0113-7.984261-1.11408-10.583788-1.11408-10.583788s.84022 2.747552 0 0c-1.36542-5.570416-.49686-8.363354.0113-9.18652 3.52793-4.827693 7.23028-3.811116 7.23028-3.811116s-.93613-.132896 0 0c-3.52793 5.384735-1.81369 8.569628-1.00532 10.420636.74273 5.199054-.29445 13.532149-.29445 13.532149s-1.48544 9.284026 0 0c1.48545-9.284025.22333-10.764002.66581-13.794741 1.4272-4.212403 5.22319-5.729704 7.536-6.425772-1.36348 3.899291-.22688 7.753528-.35817 10.510743-.2626 4.464062-3.20162 10.452492-3.20162 10.452492l-7.05586 23.395744z"
             id="path71"
             fill-rule="evenodd"
             fill="#fdd502" />
          <g
             id="g77"
             fill="none">
            <path
               d="m256.61792 70.531119c-3.80759.853423-4.59536 6.236556-4.59536 6.236556s.13129 4.135823 1.24732 8.205997c.26259 3.282399-.2626 12.473115-.2626 12.473115l.26259 19.563093"
               id="path73" />
            <path
               d="m263.37966 74.404348s-3.28239 3.807582-3.61063 5.054895c-.78778 3.479342-.65649 5.251837-.32825 8.534235-.72213 4.464063-2.29768 9.912844-2.29768 9.912844l-3.74193 16.937168"
               id="path75" />
          </g>
        </g>
        <g
           transform="matrix(.707107 -.707107 .707107 .707107 8.716615 188.7297)"
           id="g89">
          <path
             d="m253.08253 118.57493-2.41385-24.509827s.73339 6.408707 0 0c-.0113-7.984261-1.11408-10.583788-1.11408-10.583788s.84022 2.747552 0 0c-1.36542-5.570416-.49686-8.363354.0113-9.18652 3.52793-4.827693 7.23028-3.811116 7.23028-3.811116s-.93613-.132896 0 0c-3.52793 5.384735-1.81369 8.569628-1.00532 10.420636.74273 5.199054-.29445 13.532149-.29445 13.532149s-1.48544 9.284026 0 0c1.48545-9.284025.22333-10.764002.66581-13.794741 1.4272-4.212403 5.22319-5.729704 7.536-6.425772-1.36348 3.899291-.22688 7.753528-.35817 10.510743-.2626 4.464062-3.20162 10.452492-3.20162 10.452492l-7.05586 23.395744z"
             id="path81"
             fill-rule="evenodd"
             fill="#fdd502" />
          <g
             id="g87"
             fill="none">
            <path
               d="m256.61792 70.531119c-3.80759.853423-4.59536 6.236556-4.59536 6.236556s.13129 4.135823 1.24732 8.205997c.26259 3.282399-.2626 12.473115-.2626 12.473115l.26259 19.563093"
               id="path83" />
            <path
               d="m263.37966 74.404348s-3.28239 3.807582-3.61063 5.054895c-.78778 3.479342-.65649 5.251837-.32825 8.534235-.72213 4.464063-2.29768 9.912844-2.29768 9.912844l-3.74193 16.937168"
               id="path85" />
          </g>
        </g>
        <g
           transform="matrix(.382684 -.92388 .92388 .382684 64.8742 282.511)"
           id="g99">
          <path
             d="m253.08253 118.57493-2.41385-24.509827s.73339 6.408707 0 0c-.0113-7.984261-1.11408-10.583788-1.11408-10.583788s.84022 2.747552 0 0c-1.36542-5.570416-.49686-8.363354.0113-9.18652 3.52793-4.827693 7.23028-3.811116 7.23028-3.811116s-.93613-.132896 0 0c-3.52793 5.384735-1.81369 8.569628-1.00532 10.420636.74273 5.199054-.29445 13.532149-.29445 13.532149s-1.48544 9.284026 0 0c1.48545-9.284025.22333-10.764002.66581-13.794741 1.4272-4.212403 5.22319-5.729704 7.536-6.425772-1.36348 3.899291-.22688 7.753528-.35817 10.510743-.2626 4.464062-3.20162 10.452492-3.20162 10.452492l-7.05586 23.395744z"
             id="path91"
             fill-rule="evenodd"
             fill="#fdd502" />
          <g
             id="g97"
             fill="none">
            <path
               d="m256.61792 70.531119c-3.80759.853423-4.59536 6.236556-4.59536 6.236556s.13129 4.135823 1.24732 8.205997c.26259 3.282399-.2626 12.473115-.2626 12.473115l.26259 19.563093"
               id="path93" />
            <path
               d="m263.37966 74.404348s-3.28239 3.807582-3.61063 5.054895c-.78778 3.479342-.65649 5.251837-.32825 8.534235-.72213 4.464063-2.29768 9.912844-2.29768 9.912844l-3.74193 16.937168"
               id="path95" />
          </g>
        </g>
      </g>
    </g>
    <g
       transform="matrix(-3.951714 0 0 -3.9617324 1269.3948 569.05351)"
       id="g189"
       stroke-width=".505466"
       stroke="#806600">
      <g
         id="g145">
        <g
           transform="translate(18.90662 -24.94623)"
           id="g113">
          <path
             d="m253.08253 118.57493-2.41385-24.509827s.73339 6.408707 0 0c-.0113-7.984261-1.11408-10.583788-1.11408-10.583788s.84022 2.747552 0 0c-1.36542-5.570416-.49686-8.363354.0113-9.18652 3.52793-4.827693 7.23028-3.811116 7.23028-3.811116s-.93613-.132896 0 0c-3.52793 5.384735-1.81369 8.569628-1.00532 10.420636.74273 5.199054-.29445 13.532149-.29445 13.532149s-1.48544 9.284026 0 0c1.48545-9.284025.22333-10.764002.66581-13.794741 1.4272-4.212403 5.22319-5.729704 7.536-6.425772-1.36348 3.899291-.22688 7.753528-.35817 10.510743-.2626 4.464062-3.20162 10.452492-3.20162 10.452492l-7.05586 23.395744z"
             id="path105"
             fill-rule="evenodd"
             fill="#fdd502" />
          <g
             id="g111"
             fill="none">
            <path
               d="m256.61792 70.531119c-3.80759.853423-4.59536 6.236556-4.59536 6.236556s.13129 4.135823 1.24732 8.205997c.26259 3.282399-.2626 12.473115-.2626 12.473115l.26259 19.563093"
               id="path107" />
            <path
               d="m263.37966 74.404348s-3.28239 3.807582-3.61063 5.054895c-.78778 3.479342-.65649 5.251837-.32825 8.534235-.72213 4.464063-2.29768 9.912844-2.29768 9.912844l-3.74193 16.937168"
               id="path109" />
          </g>
        </g>
        <g
           transform="matrix(.92388 -.382683 .382683 .92388 -7.562222 80.78004)"
           id="g123">
          <path
             d="m253.08253 118.57493-2.41385-24.509827s.73339 6.408707 0 0c-.0113-7.984261-1.11408-10.583788-1.11408-10.583788s.84022 2.747552 0 0c-1.36542-5.570416-.49686-8.363354.0113-9.18652 3.52793-4.827693 7.23028-3.811116 7.23028-3.811116s-.93613-.132896 0 0c-3.52793 5.384735-1.81369 8.569628-1.00532 10.420636.74273 5.199054-.29445 13.532149-.29445 13.532149s-1.48544 9.284026 0 0c1.48545-9.284025.22333-10.764002.66581-13.794741 1.4272-4.212403 5.22319-5.729704 7.536-6.425772-1.36348 3.899291-.22688 7.753528-.35817 10.510743-.2626 4.464062-3.20162 10.452492-3.20162 10.452492l-7.05586 23.395744z"
             id="path115"
             fill-rule="evenodd"
             fill="#fdd502" />
          <g
             id="g121"
             fill="none">
            <path
               d="m256.61792 70.531119c-3.80759.853423-4.59536 6.236556-4.59536 6.236556s.13129 4.135823 1.24732 8.205997c.26259 3.282399-.2626 12.473115-.2626 12.473115l.26259 19.563093"
               id="path117" />
            <path
               d="m263.37966 74.404348s-3.28239 3.807582-3.61063 5.054895c-.78778 3.479342-.65649 5.251837-.32825 8.534235-.72213 4.464063-2.29768 9.912844-2.29768 9.912844l-3.74193 16.937168"
               id="path119" />
          </g>
        </g>
        <g
           transform="matrix(.707107 -.707107 .707107 .707107 8.716615 188.7297)"
           id="g133">
          <path
             d="m253.08253 118.57493-2.41385-24.509827s.73339 6.408707 0 0c-.0113-7.984261-1.11408-10.583788-1.11408-10.583788s.84022 2.747552 0 0c-1.36542-5.570416-.49686-8.363354.0113-9.18652 3.52793-4.827693 7.23028-3.811116 7.23028-3.811116s-.93613-.132896 0 0c-3.52793 5.384735-1.81369 8.569628-1.00532 10.420636.74273 5.199054-.29445 13.532149-.29445 13.532149s-1.48544 9.284026 0 0c1.48545-9.284025.22333-10.764002.66581-13.794741 1.4272-4.212403 5.22319-5.729704 7.536-6.425772-1.36348 3.899291-.22688 7.753528-.35817 10.510743-.2626 4.464062-3.20162 10.452492-3.20162 10.452492l-7.05586 23.395744z"
             id="path125"
             fill-rule="evenodd"
             fill="#fdd502" />
          <g
             id="g131"
             fill="none">
            <path
               d="m256.61792 70.531119c-3.80759.853423-4.59536 6.236556-4.59536 6.236556s.13129 4.135823 1.24732 8.205997c.26259 3.282399-.2626 12.473115-.2626 12.473115l.26259 19.563093"
               id="path127" />
            <path
               d="m263.37966 74.404348s-3.28239 3.807582-3.61063 5.054895c-.78778 3.479342-.65649 5.251837-.32825 8.534235-.72213 4.464063-2.29768 9.912844-2.29768 9.912844l-3.74193 16.937168"
               id="path129" />
          </g>
        </g>
        <g
           transform="matrix(.382684 -.92388 .92388 .382684 64.8742 282.511)"
           id="g143">
          <path
             d="m253.08253 118.57493-2.41385-24.509827s.73339 6.408707 0 0c-.0113-7.984261-1.11408-10.583788-1.11408-10.583788s.84022 2.747552 0 0c-1.36542-5.570416-.49686-8.363354.0113-9.18652 3.52793-4.827693 7.23028-3.811116 7.23028-3.811116s-.93613-.132896 0 0c-3.52793 5.384735-1.81369 8.569628-1.00532 10.420636.74273 5.199054-.29445 13.532149-.29445 13.532149s-1.48544 9.284026 0 0c1.48545-9.284025.22333-10.764002.66581-13.794741 1.4272-4.212403 5.22319-5.729704 7.536-6.425772-1.36348 3.899291-.22688 7.753528-.35817 10.510743-.2626 4.464062-3.20162 10.452492-3.20162 10.452492l-7.05586 23.395744z"
             id="path135"
             fill-rule="evenodd"
             fill="#fdd502" />
          <g
             id="g141"
             fill="none">
            <path
               d="m256.61792 70.531119c-3.80759.853423-4.59536 6.236556-4.59536 6.236556s.13129 4.135823 1.24732 8.205997c.26259 3.282399-.2626 12.473115-.2626 12.473115l.26259 19.563093"
               id="path137" />
            <path
               d="m263.37966 74.404348s-3.28239 3.807582-3.61063 5.054895c-.78778 3.479342-.65649 5.251837-.32825 8.534235-.72213 4.464063-2.29768 9.912844-2.29768 9.912844l-3.74193 16.937168"
               id="path139" />
          </g>
        </g>
      </g>
      <g
         transform="matrix(0 -1 1 0 177.3399 366.3712)"
         id="g187">
        <g
           transform="translate(18.90662 -24.94623)"
           id="g155">
          <path
             d="m253.08253 118.57493-2.41385-24.509827s.73339 6.408707 0 0c-.0113-7.984261-1.11408-10.583788-1.11408-10.583788s.84022 2.747552 0 0c-1.36542-5.570416-.49686-8.363354.0113-9.18652 3.52793-4.827693 7.23028-3.811116 7.23028-3.811116s-.93613-.132896 0 0c-3.52793 5.384735-1.81369 8.569628-1.00532 10.420636.74273 5.199054-.29445 13.532149-.29445 13.532149s-1.48544 9.284026 0 0c1.48545-9.284025.22333-10.764002.66581-13.794741 1.4272-4.212403 5.22319-5.729704 7.536-6.425772-1.36348 3.899291-.22688 7.753528-.35817 10.510743-.2626 4.464062-3.20162 10.452492-3.20162 10.452492l-7.05586 23.395744z"
             id="path147"
             fill-rule="evenodd"
             fill="#fdd502" />
          <g
             id="g153"
             fill="none">
            <path
               d="m256.61792 70.531119c-3.80759.853423-4.59536 6.236556-4.59536 6.236556s.13129 4.135823 1.24732 8.205997c.26259 3.282399-.2626 12.473115-.2626 12.473115l.26259 19.563093"
               id="path149" />
            <path
               d="m263.37966 74.404348s-3.28239 3.807582-3.61063 5.054895c-.78778 3.479342-.65649 5.251837-.32825 8.534235-.72213 4.464063-2.29768 9.912844-2.29768 9.912844l-3.74193 16.937168"
               id="path151" />
          </g>
        </g>
        <g
           transform="matrix(.92388 -.382683 .382683 .92388 -7.562222 80.78004)"
           id="g165">
          <path
             d="m253.08253 118.57493-2.41385-24.509827s.73339 6.408707 0 0c-.0113-7.984261-1.11408-10.583788-1.11408-10.583788s.84022 2.747552 0 0c-1.36542-5.570416-.49686-8.363354.0113-9.18652 3.52793-4.827693 7.23028-3.811116 7.23028-3.811116s-.93613-.132896 0 0c-3.52793 5.384735-1.81369 8.569628-1.00532 10.420636.74273 5.199054-.29445 13.532149-.29445 13.532149s-1.48544 9.284026 0 0c1.48545-9.284025.22333-10.764002.66581-13.794741 1.4272-4.212403 5.22319-5.729704 7.536-6.425772-1.36348 3.899291-.22688 7.753528-.35817 10.510743-.2626 4.464062-3.20162 10.452492-3.20162 10.452492l-7.05586 23.395744z"
             id="path157"
             fill-rule="evenodd"
             fill="#fdd502" />
          <g
             id="g163"
             fill="none">
            <path
               d="m256.61792 70.531119c-3.80759.853423-4.59536 6.236556-4.59536 6.236556s.13129 4.135823 1.24732 8.205997c.26259 3.282399-.2626 12.473115-.2626 12.473115l.26259 19.563093"
               id="path159" />
            <path
               d="m263.37966 74.404348s-3.28239 3.807582-3.61063 5.054895c-.78778 3.479342-.65649 5.251837-.32825 8.534235-.72213 4.464063-2.29768 9.912844-2.29768 9.912844l-3.74193 16.937168"
               id="path161" />
          </g>
        </g>
        <g
           transform="matrix(.707107 -.707107 .707107 .707107 8.716615 188.7297)"
           id="g175">
          <path
             d="m253.08253 118.57493-2.41385-24.509827s.73339 6.408707 0 0c-.0113-7.984261-1.11408-10.583788-1.11408-10.583788s.84022 2.747552 0 0c-1.36542-5.570416-.49686-8.363354.0113-9.18652 3.52793-4.827693 7.23028-3.811116 7.23028-3.811116s-.93613-.132896 0 0c-3.52793 5.384735-1.81369 8.569628-1.00532 10.420636.74273 5.199054-.29445 13.532149-.29445 13.532149s-1.48544 9.284026 0 0c1.48545-9.284025.22333-10.764002.66581-13.794741 1.4272-4.212403 5.22319-5.729704 7.536-6.425772-1.36348 3.899291-.22688 7.753528-.35817 10.510743-.2626 4.464062-3.20162 10.452492-3.20162 10.452492l-7.05586 23.395744z"
             id="path167"
             fill-rule="evenodd"
             fill="#fdd502" />
          <g
             id="g173"
             fill="none">
            <path
               d="m256.61792 70.531119c-3.80759.853423-4.59536 6.236556-4.59536 6.236556s.13129 4.135823 1.24732 8.205997c.26259 3.282399-.2626 12.473115-.2626 12.473115l.26259 19.563093"
               id="path169" />
            <path
               d="m263.37966 74.404348s-3.28239 3.807582-3.61063 5.054895c-.78778 3.479342-.65649 5.251837-.32825 8.534235-.72213 4.464063-2.29768 9.912844-2.29768 9.912844l-3.74193 16.937168"
               id="path171" />
          </g>
        </g>
        <g
           transform="matrix(.382684 -.92388 .92388 .382684 64.8742 282.511)"
           id="g185">
          <path
             d="m253.08253 118.57493-2.41385-24.509827s.73339 6.408707 0 0c-.0113-7.984261-1.11408-10.583788-1.11408-10.583788s.84022 2.747552 0 0c-1.36542-5.570416-.49686-8.363354.0113-9.18652 3.52793-4.827693 7.23028-3.811116 7.23028-3.811116s-.93613-.132896 0 0c-3.52793 5.384735-1.81369 8.569628-1.00532 10.420636.74273 5.199054-.29445 13.532149-.29445 13.532149s-1.48544 9.284026 0 0c1.48545-9.284025.22333-10.764002.66581-13.794741 1.4272-4.212403 5.22319-5.729704 7.536-6.425772-1.36348 3.899291-.22688 7.753528-.35817 10.510743-.2626 4.464062-3.20162 10.452492-3.20162 10.452492l-7.05586 23.395744z"
             id="path177"
             fill-rule="evenodd"
             fill="#fdd502" />
          <g
             id="g183"
             fill="none">
            <path
               d="m256.61792 70.531119c-3.80759.853423-4.59536 6.236556-4.59536 6.236556s.13129 4.135823 1.24732 8.205997c.26259 3.282399-.2626 12.473115-.2626 12.473115l.26259 19.563093"
               id="path179" />
            <path
               d="m263.37966 74.404348s-3.28239 3.807582-3.61063 5.054895c-.78778 3.479342-.65649 5.251837-.32825 8.534235-.72213 4.464063-2.29768 9.912844-2.29768 9.912844l-3.74193 16.937168"
               id="path181" />
          </g>
        </g>
      </g>
    </g>
    <path
       d="m344.27604 112.13033a28.841469 28.841469 0 1 1 -57.68294 0 28.841469 28.841469 0 1 1 57.68294 0z"
       transform="matrix(3.3590026 0 0 3.3590026 -864.54553 -181.64608)"
       id="path191"
       stroke-linejoin="round"
       stroke-width=".595411"
       stroke="#afc6e9"
       fill="#135ecb" />
    <path
       d="m170.69805 284.95425-11.91992 15.20923 14.08718 9.05314 11.55872 1.81063.72238-15.57139-2.52846-2.89702-.36121-4.7076-11.55869-2.897z"
       id="path193"
       stroke-width="1.999987"
       stroke="#afc6e9"
       fill-rule="evenodd"
       fill="#135ecb" />
    <path
       d="m338.81136 115.46986a22.769581 22.769581 0 1 1 -45.53916 0 22.769581 22.769581 0 1 1 45.53916 0z"
       transform="matrix(-1.7314515 2.4190964 -2.4190962 -1.7314515 1021.5437 -369.60508)"
       id="path195"
       stroke-width=".67229"
       stroke="#806600"
       fill="#fdd502" />
    <path
       d="m226.91622 102.17588 10.54614 14.65226-8.98135-15.66618 9.0592 15.61541-7.40255-16.47107 7.48499 16.42817-5.75245-17.117327 5.83871 17.082717-4.04697-17.598739 4.1362 17.572759-2.3025-17.910674 2.39384 17.893554-.53585-18.050109.62844 18.042029 1.23594-18.015715-1.14301 18.016755 2.99584-17.807826-2.90346 17.817966 4.72689-17.428435-4.63594 17.447575 6.41241-16.881191-6.32378 16.909161 8.03618-16.17138-7.95072 16.2079 9.58255-15.30583-9.50108 15.35055 11.03664-14.29287-10.95994 14.34536 12.38444-13.14227-12.31326 13.20202 13.61297-11.86509-13.54799 11.93154 14.71041-10.47366-14.65226 10.54615 15.66618-8.98135-15.61541 9.05919 16.47106-7.40254-16.42816 7.48499 17.11732-5.75246-17.08272 5.83871 17.59875-4.04696-17.57276 4.13619 17.91067-2.30249-17.89355 2.39384 18.05011-.53586-18.04203.62845 18.01571 1.23594-18.01675-1.14301 17.80782 2.99584-17.81796-2.90346 17.42843 4.72689-17.44757-4.63595 16.88119 6.41241-16.90916-6.32378 16.17138 8.03618-16.2079-7.95071 15.30583 9.58255-15.35055-9.50108 14.29287 11.03664-14.34536-10.95995 13.14227 12.38445-13.20202-12.31327 11.86509 13.61298-11.93154-13.548 10.47366 14.71041-10.54615-14.65225 8.98135 15.66617-9.0592-15.6154 7.40255 16.47106-7.48499-16.42817 5.75245 17.11733-5.83871-17.08272 4.04697 17.59874-4.1362-17.57275 2.3025 17.91067-2.39384-17.89356.53585 18.05011-.62844-18.04203-1.23594 18.01572 1.14301-18.01675-2.99584 17.80782 2.90346-17.81796-4.72689 17.42843 4.63594-17.44758-6.41241 16.88119 6.32378-16.90915-8.03618 16.17137 7.95072-16.20789-9.58255 15.30582 9.50108-15.35054-11.03664 14.29287 10.95995-14.34536-12.38445 13.14226 12.31327-13.20202-13.61298 11.86509 13.54799-11.93153-14.71041 10.47365 14.65226-10.54615-15.66618 8.98135 15.61541-9.05919-16.47106 7.40255 16.42816-7.485-17.11732 5.75246 17.08272-5.83871-17.59874 4.04696 17.57275-4.13619-17.91067 2.3025 17.89355-2.39385-18.05011.53586 18.04204-.62844-18.01572-1.23595 18.01675 1.14302-17.80782-2.99584 17.81796 2.90345-17.42843-4.72688 17.44757 4.63594-16.88119-6.41241 16.90916 6.32378-16.17138-8.03618 16.2079 7.95072-15.30583-9.58256 15.35055 9.50109-14.29287-11.03665 14.34536 10.95995-13.14226-12.38444 13.20202 12.31326-11.8651-13.61298 11.93154 13.548z"
       transform="matrix(3.56756 0 0 3.5675602 -654.14348 -224.52734)"
       id="path197"
       stroke-linejoin="round"
       stroke-width=".560604"
       stroke="#806600"
       fill="#fdd502" />
    <path
       d="m307.23754 130.95319a1.2143776 1.2143776 0 1 1 -2.42875 0 1.2143776 1.2143776 0 1 1 2.42875 0z"
       transform="matrix(3.951714 0 0 3.9617324 -1051.3278 -248.38056)"
       id="path199"
       stroke-linejoin="round"
       stroke-width=".505466"
       stroke="#808080"
       fill="#ececec" />
    <path
       d="m307.23754 130.95319a1.2143776 1.2143776 0 1 1 -2.42875 0 1.2143776 1.2143776 0 1 1 2.42875 0z"
       transform="matrix(3.951714 0 0 3.9617324 -977.22437 -248.38048)"
       id="path201"
       stroke-linejoin="round"
       stroke-width=".505466"
       stroke="#808080"
       fill="#ececec" />
    <path
       d="m180.14574 263.39166-3.06496 11.26664s6.12991 18.94859 6.12991 18.94859l12.77067 1.02423-3.57578-6.65761 3.06498 6.14548 11.23821-.5121 2.55415-14.33946 3.57577-4.09699-2.04329-9.73033-20.43314-2.56057z"
       id="path203"
       stroke-width="1.999987"
       stroke="#afc6e9"
       fill-rule="evenodd"
       fill="#135ecb" />
    <path
       d="m212.84033 276.47896 12.44013 16.03314 7.20814 6.26975-7.13631-6.62469 15.86307 1.74885-3.30398 16.32511-10.21972 6.78919-11.11241-3.36892-9.11679-22.50458 1.60529-9.14454 3.77258-5.5233z"
       id="path205"
       stroke-width="1.999987"
       stroke="#afc6e9"
       fill-rule="evenodd"
       fill="#135ecb" />
    <g
       id="g327"
       stroke="#808080">
      <path
         d="m198.71875 156.40625-.0312.65625c.40607.14814.67947.26757.84375.375.16428.10746.2831.24073.375.40625.0919.16554.1636.40011.1875.6875.0239.28742.0151.75281-.0312 1.375l-.875 11.6875c-.0497.6673-.1047 1.14848-.1875 1.46875-.0828.32026-.23504.55701-.4375.71875-.20247.16173-.58642.30361-1.15625.40625l-.0625.65625 5.6875.4375.0625-.65625c-.40675-.13911-.69821-.28428-.875-.40625-.1768-.12198-.2924-.26813-.375-.4375-.0826-.16936-.13645-.37369-.15625-.65625-.0197-.28256-.0137-.73958.0312-1.34375l.40625-5.65625 7.53125.5625-.40625 5.65625c-.0558.74845-.14986 1.28385-.25 1.59375-.10017.3099-.25896.51772-.46875.65625-.20982.13852-.55715.25445-1.0625.34375l-.0625.65625 5.6875.4375.0312-.65625c-.34498-.11637-.58924-.2189-.75-.3125-.1608-.0936-.2922-.20659-.375-.3125s-.1361-.24374-.1875-.40625-.0857-.36148-.0937-.625-.008-.66449.0312-1.1875l.875-11.71875c.0551-.73941.1543-1.25225.25-1.5625.0956-.31022.22735-.54446.4375-.6875.21012-.14302.57935-.25505 1.09375-.34375l.0625-.65625-5.6875-.40625-.0312.65625c.52127.18392.86231.36453 1.03125.53125.16892.16674.28855.39325.34375.6875.0551.29428.0272.80924-.0312 1.59375l-.34375 4.8125-7.53125-.5625.375-4.78125c.0463-.62219.0845-1.0811.15625-1.375.0718-.29386.16646-.51517.28125-.65625.11478-.14104.28551-.25765.46875-.34375.18322-.0861.47084-.1803.875-.25l.0312-.65625-5.6875-.40625zm-11.5 1.125c-.78193.0485-1.57941.15917-2.40625.3125-1.57368.29187-2.85294.92121-3.875 1.90625-1.02207.98508-1.73686 2.23443-2.09375 3.78125-.35737 1.54686-.35121 3.29376 0 5.1875.56392 3.04066 1.57589 5.19975 3 6.53125 1.4241 1.3315 3.25062 1.79217 5.5 1.375.81795-.1517 1.52507-.37025 2.125-.65625.5999-.286 1.14429-.66219 1.65625-1.125l1.1875.875.96875-.46875-.84375-4.625c-.10222-.55122-.1634-.97763-.1875-1.28125-.0242-.3036-.0154-.59234.0312-.8125.0465-.22014.14676-.395.28125-.5625.13446-.16748.3247-.33394.625-.5l-.0937-.65625-5.40625 1 .125.65625c.51207.0338.90659.12523 1.15625.28125.24965.15603.44332.41004.59375.75.15041.33998.28909.88734.4375 1.6875l.15625.8125c.17642.95132.0468 1.69814-.375 2.25-.42187.55187-1.16964.93043-2.21875 1.125-.98689.18302-1.86431.0327-2.65625-.46875-.79196-.50148-1.45977-1.3589-2.03125-2.53125-.5715-1.17234-1.02057-2.60114-1.34375-4.34375-.31824-1.71591-.39822-3.24262-.21875-4.53125.17945-1.2886.57388-2.30492 1.1875-3.0625.61363-.75755 1.4059-1.2265 2.375-1.40625.70237-.1302 1.28791-.13747 1.78125-.0312.49332.10625.96276.36204 1.375.75.41222.38799.79904.96311 1.1875 1.71875l1.34375-.25-.6875-3.6875c-.97642-.058-1.87434-.0484-2.65625 0zm34.46875 1.5625-1.53125 4.46875 1.25.4375c.39733-.62842.78699-1.11408 1.125-1.5.33799-.38588.66271-.67631.96875-.84375.30603-.1674.58772-.23135.875-.21875.28727.0126.62927.0808 1.03125.21875l1.625.5625-4.5 13.125c-.17614.51316-.36197.90726-.5 1.15625-.13805.24899-.27217.43644-.40625.5625-.1341.12606-.27974.1942-.4375.25-.15778.0558-.34231.0928-.5625.0937-.2202.0009-.47288-.003-.75-.0312l-.1875.625 5.84375 2 .21875-.625c-.3868-.23793-.64956-.42788-.8125-.59375-.16296-.16588-.28845-.37879-.34375-.59375s-.0472-.46282 0-.78125c.0471-.31842.13929-.7454.3125-1.25l4.53125-13.125 1.625.5625c.47038.16147.79708.32521 1 .5.20289.17482.37105.39469.5.6875.12893.29284.2129.69676.25 1.1875.0371.49076.0331 1.13739-.0312 1.9375l1.25.4375 1.53125-4.46875-13.875-4.78125zm-50.90625 2.5625-5.34375 2.0625.25.625c.43036-.0403.74302-.0579.9375-.0312.19449.0266.3772.10867.53125.21875.15405.11012.29263.28189.4375.53125.14488.24939.33753.66806.5625 1.25l4.21875 10.93745c.24127.62413.40625 1.11268.46875 1.4375.0625.32483.0198.61082-.0937.84375-.11354.23294-.40425.50666-.875.84375l.25.625 5.34375-2.0625-.25-.625c-.4271.0488-.75673.0657-.96875.0312-.21203-.0344-.38401-.13242-.53125-.25-.14725-.11757-.29848-.28446-.4375-.53125-.13903-.24678-.3128-.65366-.53125-1.21875l-4.21875-10.9375c-.22497-.58194-.3763-1.01622-.4375-1.3125-.0612-.29624-.0745-.54207-.0312-.71875.0432-.17664.1214-.34362.25-.5.1286-.15633.38351-.3575.71875-.59375l-.25-.625zm-16.34375 7.75-4.90625 2.9375.34375.5625c.41711-.11337.74134-.1805.9375-.1875.19618-.007.36064.0429.53125.125.17063.0821.34584.21661.53125.4375.18541.22092.46002.62139.78125 1.15625l6.03125 10.03125c.34452.57364.57028 1.03443.6875 1.34375.1172.30933.1345.59482.0625.84375s-.31263.55608-.71875.96875l.34375.59375 10.46875-6.28125-2.59375-4.8125-1.15625.6875c.26861.79854.45531 1.39695.5625 1.8125.10715.41557.1641.79137.1875 1.09375.0234.3024.0105.56103-.0312.78125-.0418.22023-.10873.41692-.21875.59375-.11004.17684-.26724.35748-.46875.53125-.20154.17377-.47918.36232-.8125.5625l-3.0313 1.8125-7.15625-11.875c-.3352-.55812-.54913-.99749-.65625-1.28125-.10709-.28372-.1435-.50758-.125-.6875.0185-.17988.0571-.34021.15625-.5.0992-.15975.30854-.38961.59375-.6875zm96.5 4.53125c-1.36591-.11334-2.74746.21137-4.125.96875-1.37756.7574-2.69128 1.91475-3.9375 3.5-1.01152 1.28669-1.73469 2.51696-2.1875 3.65625-.45281 1.1393-.6595 2.19993-.625 3.1875s.27052 1.88749.75 2.71875c.47946.83126 1.14694 1.57938 2 2.25 1.20848.95004 2.4903 1.51242 3.84375 1.65625 1.35344.14382 2.72763-.18419 4.125-.9375 1.39734-.75332 2.75478-1.96155 4.0625-3.625 1.22385-1.55682 2.05368-3.04097 2.46875-4.46875.41508-1.42777.39375-2.76296-.0312-4-.42505-1.23703-1.26591-2.349-2.53125-3.34375-1.18718-.93326-2.44662-1.44913-3.8125-1.5625zm1 1.59375c.69322.0619 1.3602.3408 2 .84375.72508.57003 1.19086 1.29513 1.375 2.1875.18411.89239.0168 1.98121-.46875 3.25-.48563 1.2688-1.31299 2.66904-2.53125 4.21875-1.00035 1.27247-2.01227 2.29103-3.03125 3.03125-1.019.74021-2.00885 1.14945-2.9375 1.21875-.92868.0693-1.78766-.20337-2.5625-.8125-1.22272-.96122-1.69542-2.26868-1.4375-3.90625.25791-1.63757 1.25309-3.53635 2.96875-5.71875.75443-.95968 1.49664-1.7645 2.25-2.4375.75334-.67298 1.51476-1.18658 2.25-1.5.73522-.3134 1.43176-.4369 2.125-.375zm-113.59375 6.625c-.84869.56151-1.50676 1.06214-2 1.5-.49322.43789-.97671.8964-1.4375 1.40625-.79423.87885-1.34275 1.79625-1.65625 2.75-.31349.95378-.36015 1.86637-.125 2.71875.23518.85241.71739 1.60221 1.46875 2.28125.51658.46685 1.11083.79941 1.75.96875.63918.1694 1.3404.18221 2.125.0625.78462-.11969 1.74528-.37922 2.84375-.8125 1.13613-.44797 2.0279-.75201 2.6875-.875.6596-.12297 1.21897-.10352 1.71875.0312.49978.13479.99685.42029 1.5.875.78492.70937 1.2197 1.46088 1.25 2.25.0303.78914-.32189 1.59009-1.03125 2.375-.51535.57025-1.00824.94253-1.5 1.15625-.49176.21373-1.01422.29985-1.5625.21875s-1.19463-.31939-1.90625-.71875l-.90625 1 2.75 2.46875c1.59845-1.05395 2.89187-2.10298 3.84375-3.15625.5881-.65073 1.04965-1.2977 1.40625-1.96875.35659-.67105.5756-1.33167.625-2 .0494-.66831-.0887-1.33904-.375-2-.28632-.66094-.76434-1.33214-1.46875-1.96875-.63062-.5699-1.31881-.93129-2.03125-1.09375-.71245-.16242-1.45359-.17074-2.25-.0312-.79642.13951-1.79459.46683-3 .9375-.99151.39587-1.79708.64238-2.40625.75-.60916.10762-1.14166.0948-1.625-.0312-.48332-.12599-.99243-.41327-1.46875-.84375-.44948-.4062-.73151-.84843-.875-1.34375-.1435-.4953-.15123-1.00898 0-1.5.15124-.49099.44967-.93892.84375-1.375.45472-.50314.86548-.8654 1.28125-1.0625.41578-.19721.89658-.2498 1.4375-.1875.54094.0623 1.17644.27703 1.90625.65625l.90625-1-2.71875-2.4375zm127.53125 3.5625-.53125.40625c.17243.42474.26645.71367.28125.90625.0147.19259.002.37563-.0625.53125-.064.15563-.20349.34562-.375.53125-.17154.18564-.53016.48221-1.09375.90625l-7.125 5.375c-.93212.7013-1.62632 1.36542-2.09375 2-.46743.63459-.76904 1.31991-.90625 2.0625-.13722.74259-.0877 1.47819.1875 2.25.27516.7718.74844 1.59444 1.40625 2.46875.54365.72256 1.10221 1.29821 1.65625 1.71875.55403.42052 1.07856.72893 1.625.90625.54642.17725 1.12147.24855 1.6875.21875.62566-.0408 1.26102-.19831 1.90625-.46875.67955-.28497 1.39989-.71993 2.1875-1.3125l6.96875-5.25c.59248-.44579 1.05456-.71672 1.34375-.84375.28914-.12701.53428-.1825.78125-.125.24692.0575.60752.25621 1.03125.59375l.53125-.375-3.28125-4.34375-.53125.40625c.21598.52775.3293.92293.3125 1.15625-.0168.23333-.12751.45212-.3125.6875-.18504.23539-.59014.58953-1.21875 1.0625l-6.78125 5.09375c-.88877.66868-1.62062 1.16582-2.21875 1.46875-.59816.30292-1.16448.45345-1.71875.46875-.55429.0153-1.0661-.094-1.53125-.34375-.46517-.24977-.90071-.61921-1.28125-1.125-.41318-.54916-.68572-1.07304-.84375-1.53125-.15807-.45821-.21885-.90923-.15625-1.375.0626-.46579.2908-.96182.65625-1.46875.36544-.50693.89285-1.03517 1.59375-1.5625l7.6875-5.75c.59249-.44579 1.01609-.74252 1.3125-.875.29637-.13246.56643-.15755.8125-.0937.24604.0638.59438.26523 1 .59375l.53125-.40625-3.4375-4.5625zm-139.0625 8.375-1.625 2.375 5.625 3.21875.8125-1.1875zm-4.71875 8.65625-1.9375 4.46875.625.25c.27298-.33512.47148-.54037.625-.65625.15355-.11581.32123-.19255.5-.21875.17879-.0262.40756.0121.6875.0937.27996.0817.70857.22115 1.28125.46875l2.625 1.15625c1.21178.52396 2.57298 1.06938 4.09375 1.6875 1.52077.61815 2.53827 1.04136 3.0625 1.21875l-.0625.15625c-.55809.0148-1.06984.0519-1.53125.0937-.46141.0419-.99782.104-1.625.1875l-12.9375 1.6875-1.6875 3.90625.625.28125c.27299-.33513.50093-.56748.65625-.6875.15534-.12001.3135-.2173.5-.25.18653-.0327.40812-.009.6875.0625.2794.0716.70858.25239 1.28125.5l10.78125 4.65625c.61419.26556 1.03704.47311 1.3125.65625.27547.18314.476.41198.5625.65625.0863.24428.0897.64675 0 1.21875l.59375.25 1.96875-4.53125-.59375-.28125c-.26468.33874-.48309.59167-.65625.71875-.17317.12706-.37542.19625-.5625.21875-.18707.0226-.41405-.0198-.6875-.0937-.27344-.0739-.69391-.2283-1.25-.46875l-2.53125-1.0937c-1.65996-.71771-3.31681-1.42678-5-2.125-1.68317-.69819-2.86703-1.15676-3.53125-1.375l.0937-.1875c.39189-.0177.77657-.0547 1.1875-.0937.41096-.039 1.09132-.13061 2-.25l14.625-1.90625.65625-1.5625-13.9375-6.03125c-.60588-.26195-1.03717-.46034-1.28125-.625-.24405-.16461-.4085-.31586-.5-.46875-.0915-.15284-.13965-.34179-.15625-.53125-.0166-.18941.0006-.48967.0625-.90625l-.625-.25zm156.8125 2.09375-.59375.25c.0494.42936.0535.74248.0312.9375-.0223.19504-.0809.37479-.1875.53125-.10666.15647-.28518.28711-.53125.4375-.2461.15039-.67321.35588-1.25.59375l-10.84375 4.46875c-.6186.2551-1.0829.4302-1.40625.5s-.60834.0458-.84375-.0625c-.2354-.10832-.52751-.38062-.875-.84375l-.59375.25 2.15625 5.28125.625-.25c-.0494-.42936-.0535-.74248-.0312-.9375.0223-.19504.0875-.38242.1875-.53125.10001-.14884.27852-.27949.53125-.4375.25272-.15802.67936-.37679 1.28125-.625l4.25-1.75.5625 1.375c.16891.40961.274.71373.3125.9375.0385.22376.0471.45778 0 .6875-.0471.22971-.19323.50647-.40625.84375-.21305.33727-.56509.80986-1.0625 1.40625l-1.625 1.96875c-.41289.49304-.82603 1.00548-1.21875 1.5-.39272.4945-.75046.96836-1.0625 1.46875l1.4375 3.46875.625-.25c-.0986-.42885-.1297-.78239-.0625-1.09375.0672-.31139.21635-.66619.4375-1.03125.22112-.36508.56381-.83203 1.03125-1.40625l1.59375-1.96875c.63651-.7809 1.07374-1.44482 1.3125-1.96875.23875-.52395.34475-1.06015.34375-1.65625l.125-.0625c.97195 1.07611 1.96845 1.76229 3.03125 2.0625 1.06277.30018 2.16723.22228 3.3125-.25 1.49633-.61709 2.40807-1.54978 2.71875-2.8125.31064-1.26273.0567-2.88763-.75-4.84375zm.4375 4.28125c.22648.45434.50221 1.06015.8125 1.8125.38608.93626.5483 1.74076.5 2.40625-.0484.66549-.27291 1.26113-.6875 1.75-.41462.48886-1.01836.89124-1.8125 1.21875-.76073.31371-1.47649.4519-2.09375.4375-.61728-.0144-1.14261-.14237-1.59375-.40625-.45118-.26388-.80311-.59169-1.09375-1-.29067-.40833-.60634-.99148-.90625-1.71875l-.5625-1.40625zm-165.5625 15.84375-1.96875 12.53125.65625.125c.18083-.3926.34826-.68879.46875-.84375.12053-.15494.26503-.26565.4375-.34375.17251-.0781.39911-.12464.6875-.125.28842-.00036.72743.0592 1.34375.15625l11.59375 1.8125c.661.10407 1.15633.23506 1.46875.34375.31243.10869.54285.25375.6875.46875s.22555.61119.28125 1.1875l.65625.0937 1.96875-12.40625-4.65625-.96875-.21875 1.3125c.57927.27429 1.01157.47237 1.3125.625.30093.15266.60414.333.875.53125.27086.19827.47283.43092.625.65625.15218.22536.24825.46562.28125.75.033.28441.006.65608-.0625 1.09375l-.65625 4.15625-7.71875-1.21875.4375-2.875c.0661-.41981.19459-.71461.34375-.90625.14918-.19161.35991-.32854.65625-.4375.29635-.10895.72562-.2093 1.28125-.25l.1875-1.25-5.125-.8125-.21875 1.28125c.55059.224.94275.40419 1.1875.59375.24478.18959.4235.41537.5.65625.0765.2409.0931.54449.0312.9375l-.46875 2.875-7.03125-1.09375.6875-4.25c.0549-.34835.13025-.63261.21875-.875.0885-.24236.2122-.43172.375-.59375.16283-.16201.34655-.32079.59375-.4375.24723-.11668.55326-.2216.90625-.3125.35301-.0909.75998-.15365 1.21875-.21875l.21875-1.3125-4.0625-.65625zm164.5625 8.53125c-3.0871.183-5.37738.908-6.875 2.15625-1.49762 1.24823-2.19788 2.99752-2.0625 5.28125.0492.83044.19675 1.58802.40625 2.21875.20949.63071.5104 1.21591.90625 1.78125l-1 1.0625.34375 1.03125 4.6875-.28125c.55964-.0333 1.00823-.045 1.3125-.0312.30425.0137.5373.0515.75.125.21269.0734.41295.18955.5625.34375.14954.15417.27866.4002.40625.71875l.65625-.0312-.3125-5.46875-.65625.0312c-.097.50394-.25177.86532-.4375 1.09375-.18575.22839-.45652.39284-.8125.5-.35598.10715-.93762.17055-1.75.21875l-.8125.0625c-.96584.0573-1.69213-.1693-2.1875-.65625-.49537-.48697-.78065-1.24738-.84375-2.3125-.0594-1.00196.21679-1.87002.8125-2.59375.5957-.72375 1.5159-1.29686 2.75-1.71875 1.23408-.42191 2.73079-.67638 4.5-.78125 1.74212-.10328 3.24351.006 4.5.34375 1.25646.33767 2.2305.85977 2.90625 1.5625.67572.70272 1.03545 1.54735 1.09375 2.53125.0423.7131-.021 1.30487-.1875 1.78125-.16653.47637-.47023.88899-.90625 1.25-.43606.361-1.04582.70811-1.84375 1l.0625 1.3125 3.71875-.21875c.17849-.96172.29495-1.81186.34375-2.59375.0482-.78192.0497-1.59804 0-2.4375-.0947-1.59771-.55538-2.95756-1.40625-4.09375-.85092-1.1362-2.04053-1.98555-3.53125-2.53125-1.49075-.54572-3.1711-.77022-5.09375-.65625zm-166.34375 9.96875-.65625.0625.46875 5.65625.65625-.0312c.0434-.60204.17787-1.04509.40625-1.3125.22841-.2674.61539-.42615 1.15625-.46875.1172-.01.23874-.003.375 0 .1363.003.28529.005.46875.0312.1835.0264.36895.0546.5625.0937.19358.0392.38698.0844.5625.125l11.40625 3-10.78125 4.03125c-.43106.16997-.80583.30613-1.15625.40625-.35038.10016-.69349.1634-1 .1875-.33353.0263-.60565-.001-.8125-.0937-.20681-.0926-.37478-.22965-.5-.4375-.12517-.20783-.23899-.5285-.34375-.9375l-.65625.0625.5 6.09375.65625-.0312c.0604-.3857.15375-.70732.3125-.9375.15878-.23018.41714-.44866.75-.65625.3329-.2076.88633-.47332 1.6875-.78125l14.71875-5.71875-.125-1.78125-15.4375-4.4375c-.85414-.25025-1.479-.46516-1.875-.65625-.39597-.19105-.68597-.38184-.875-.59375-.18899-.21187-.34951-.51248-.46875-.875zm160.84375 9.6875c-.78428.0781-1.48175.32314-2.125.71875s-1.17383.96616-1.5625 1.6875-.66658 1.6134-.875 2.6875c-.17196.88768-.2464 1.68193-.1875 2.375.0589.69305.20306 1.28802.4375 1.8125.23443.52445.56744.97473.96875 1.375.4494.43721.99196.82714 1.625 1.125.66682.3136 1.46993.56223 2.4375.75l8.5625 1.65625c.72789.14123 1.2432.27665 1.53125.40625.28802.12956.50224.30938.625.53125.12274.22184.18545.58429.21875 1.125l.65625.15625 1.03125-5.3125-.65625-.15625c-.24712.51391-.47177.85617-.65625 1-.18451.1438-.42007.2297-.71875.25-.29872.0203-.82148-.0377-1.59375-.1875l-8.3125-1.625c-1.09185-.21188-1.96814-.44637-2.59375-.6875-.62562-.24116-1.11731-.5675-1.5-.96875-.38269-.40126-.65506-.83108-.78125-1.34375-.12576-.51268-.12057-1.09738 0-1.71875.13092-.67465.32819-1.23196.5625-1.65625.23432-.4243.51851-.76569.90625-1.03125.38773-.26558.91006-.4317 1.53125-.5.62118-.0683 1.3577-.0108 2.21875.15625l9.4375 1.84375c.72789.14124 1.23432.27493 1.53125.40625.29689.13129.50753.30581.625.53125.11743.22543.19095.60377.21875 1.125l.65625.125 1.0625-5.59375-.65625-.125c-.19982.41256-.36693.67252-.5.8125-.13311.13997-.27912.2557-.4375.3125-.15841.0568-.34104.0655-.59375.0625-.25274-.003-.74512-.0531-1.4375-.1875l-8.75-1.71875c-1.14511-.22217-2.12197-.29685-2.90625-.21875zm-141.65625 5.96875-.625.21875c.0342.41751-.002.77373-.125 1.0625-.12301.2888-.35738.56788-.65625.84375-.29886.2759-.74317.6337-1.34375 1.0625l-12.875 9.15625.65625 2.03125 16.03125.625c1.00367.0374 1.80723.14777 2.40625.34375.59903.19598 1.01275.51405 1.25.96875l.65625-.21875-1.84375-5.5-.625.21875c.10285.5662.0593 1.03332-.0937 1.375-.15304.34168-.48527.57853-1 .75-.26595.0886-.55738.17875-.90625.21875-.34885.0396-.8846.0428-1.59375.0312l-1.40625-.0312-2-6 1.5-1.03125c.37751-.26872.74651-.47472 1.0625-.65625.31601-.1815.61458-.30905.90625-.40625.30885-.1029.56251-.13525.78125-.0937.21875.0415.42079.13662.59375.3125.17297.1759.36507.47465.59375.875l.625-.21875-1.96875-5.9375zm-5.125 7.8125 1.8125 5.375-9.28125-.15625zm139.65625 1.65625-2.15625 5.3125.59375.25c.25735-.34434.48586-.58798.65625-.71875.1704-.13077.3447-.19215.53125-.21875.18655-.0265.41253-.005.6875.0625.27496.068.68888.20905 1.25.4375l10.875 4.40625c.57786.23525.99237.43516 1.25.59375.25761.15857.43225.31617.53125.46875.0989.15256.1619.33042.1875.53125.0256.20081.0267.50023-.0312.90625l.59375.25 2.15625-5.28125-.59375-.25c-.26573.34091-.4723.56417-.625.6875-.15274.12331-.34549.2133-.53125.25-.18579.0367-.40665.003-.6875-.0625-.28087-.0655-.70339-.20225-1.28125-.4375l-10.875-4.4375c-.61975-.25231-1.06442-.44782-1.34375-.625-.27934-.17719-.4708-.41389-.5625-.65625-.0917-.24237-.10865-.64495-.0312-1.21875l-.59375-.25zm-128.09375 8.28125-4.15625 2.3125.71875 1.125c.6169-.17387 1.07911-.2923 1.40625-.375.32715-.0827.66555-.12775 1-.15625.33446-.0285.64348-.007.90625.0625.26279.0699.47574.18233.6875.375.21178.19268.45186.49979.6875.875l2.25 3.5625-6.625 4.15625-1.5625-2.46875c-.22602-.3599-.33025-.66378-.34375-.90625s.0357-.47313.1875-.75c.15181-.27685.42039-.63549.8125-1.03125l-.65625-1.0625-4.40625 2.75.65625 1.09375c.56223-.19292 1.00344-.2946 1.3125-.3125.30909-.0179.56532.0249.78125.15625.21596.13133.44466.38183.65625.71875l1.53125 2.4375-6 3.78125-2.28125-3.625c-.18754-.29865-.3449-.57164-.4375-.8125-.0925-.24086-.10995-.45839-.0937-.6875.0163-.22912.0778-.46834.1875-.71875.1097-.2504.26238-.54329.46875-.84375.2064-.30045.44694-.61824.75-.96875l-.6875-1.125-3.46875 2.1875 6.71875 10.71875.56245-.34375c-.12166-.41477-.1765-.71027-.1875-.90625-.011-.19599.0151-.39029.0937-.5625.0787-.17223.22035-.34148.4375-.53125.21719-.18978.59664-.44942 1.125-.78125l9.9375-6.25c.56666-.35588 1.00557-.59539 1.3125-.71875.30693-.1234.59344-.16075.84375-.0937.25032.067.57932.32093 1 .71875l.5625-.375-6.6875-10.625zm124.78125.15625-2.6875 4.09375c-.83083 1.26097-1.43838 2.30904-1.8125 3.15625-.37412.8472-.6064 1.68832-.6875 2.46875-.0927.94598-.005 1.82613.25 2.6875.28877.99157.81502 1.97623 1.59375 2.90625.77874.92998 1.81767 1.81545 3.09375 2.65625 1.26098.83082 2.44865 1.36632 3.5625 1.65625 1.11384.28992 2.1942.34871 3.21875.125 1.02454-.22376 1.99339-.70287 2.90625-1.40625.91285-.70343 1.84095-1.76042 2.78125-3.1875l3.25-4.96875-.5625-.375c-.33201.2902-.5762.50255-.75.59375-.17382.0912-.34569.123-.53125.125-.18559.002-.42479-.0686-.6875-.1875-.26274-.11897-.65896-.33926-1.1875-.6875l-9.78125-6.46875c-.52101-.34329-.90825-.5843-1.125-.78125-.21674-.19696-.3639-.39487-.4375-.5625-.0736-.16764-.0789-.35676-.0625-.5625.0164-.20575.0805-.49922.21875-.90625zm-1.21875 4.15625 13.375 8.8125c-.27329.48049-.56796.98653-.90625 1.5-.73632 1.1175-1.61086 1.90058-2.59375 2.40625-.98289.5056-2.09859.67625-3.375.46875-1.27642-.20754-2.68594-.83383-4.21875-1.84375-.76263-.5025-1.42037-1.014-2-1.53125-.57962-.51728-1.07829-1.04413-1.46875-1.59375-.39045-.54965-.68495-1.12791-.875-1.71875-.19006-.59086-.26085-1.16176-.21875-1.71875.0421-.557.18362-1.11951.40625-1.6875.22265-.56801.55085-1.14699.96875-1.78125.38806-.58897.67705-1.03038.90625-1.3125zm-114.875 9.0625-.4375.46875c.19421.30796.3093.54471.375.71875.0657.17406.0967.33436.0937.46875-.003.13441-.031.27903-.0937.4375-.0627.15849-.18333.35329-.34375.5625-.16039.20922-.421.49384-.78125.875l-8.03125 8.53125c-.50928.53889-.91751.91343-1.1875 1.09375-.26993.18033-.52795.24035-.78125.21875-.25324-.0216-.6075-.15044-1.0625-.40625l-.46875.46875 4.15625 3.90625.4375-.46875c-.28834-.47161-.44285-.82657-.46875-1.0625-.0258-.23595.0446-.48691.1875-.75.14291-.2631.49091-.67825 1.03125-1.25l3.28125-3.5 5.46875 5.1875-3.28125 3.5c-.42854.45345-.75888.75478-1 .9375-.2411.1827-.44693.30675-.625.34375-.17805.037-.36601.0176-.5625-.0312-.19645-.0488-.48625-.17401-.84375-.375l-.46875.5 4.15625 3.90625.46875-.46875c-.22155-.37116-.3778-.65674-.4375-.84375-.0596-.18702-.0643-.37607-.0312-.5625.0331-.18644.11848-.38694.28125-.625.16281-.23807.4777-.60905.90625-1.0625l8.0625-8.5c.45962-.48632.82744-.83504 1.09375-1.03125.26632-.1962.52213-.28325.78125-.28125s.64943.12631 1.15625.40625l.4375-.46875-4.15625-3.9375-.4375.5c.22777.36458.3773.63757.4375.84375.0602.20619.0428.41025 0 .59375-.0428.18352-.11828.39333-.28125.625-.16296.23168-.45886.55969-.875 1l-3.90625 4.125-5.5-5.1875 3.90625-4.125c.51553-.54546.91426-.91652 1.1875-1.09375.27326-.17724.53109-.24365.78125-.21875.25018.0249.61411.15666 1.0625.40625l.46875-.46875-4.15625-3.90625zm105.5 1.875-9.25 8.5 3.03125 3.65625 1-.90625c-.28271-.57522-.48445-1.00574-.625-1.3125-.14054-.30677-.25515-.61376-.34375-.9375-.0886-.32377-.1461-.63517-.125-.90625.0211-.2711.13012-.50685.28125-.75.15114-.24317.39242-.54405.71875-.84375l3.09375-2.84375 5.28125 5.78125-2.125 1.9375c-.31302.28746-.57648.47405-.8125.53125-.23602.0571-.51273.0366-.8125-.0625-.29977-.0992-.69602-.31105-1.15625-.625l-.9375.875 3.53125 3.8125.9375-.84375c-.29155-.518-.45765-.91805-.53125-1.21875-.0736-.30073-.09-.57635 0-.8125.09-.23617.30071-.48089.59375-.75l2.125-1.96875 4.8125 5.21875-3.15625 2.90625c-.25974.23852-.49863.42784-.71875.5625-.22012.13461-.42798.2245-.65625.25-.22828.0255-.48387 0-.75-.0625s-.57339-.16396-.90625-.3125c-.33287-.14857-.69415-.35918-1.09375-.59375l-.96875.90625 2.75 3.03125 9.34375-8.59375-.4375-.5c-.38588.19476-.68425.3287-.875.375-.19077.0463-.37888.0462-.5625 0-.18363-.0462-.39904-.16456-.625-.34375-.22598-.17922-.54672-.47798-.96875-.9375l-7.9375-8.65625c-.45262-.49284-.7606-.87674-.9375-1.15625-.17688-.27952-.23935-.55418-.21875-.8125.0206-.25831.18495-.63923.5-1.125z"
         transform="matrix(1.0352716 0 0 1.0427223 -12.080444 -60.93589)"
         id="path207"
         stroke-width=".962473"
         fill="#ececec" />
      <path
         d="m194.99999 127.25785-23.58227 36.99182-39.3038 11.09754 27.51265 33.29264-3.9304 44.39017 39.30382-14.79673 39.30382 14.79673-3.93039-44.39017 27.51266-33.29265-39.30383-11.09754z"
         id="path209"
         stroke-width="1.999987"
         fill="#ececec" />
      <path
         d="m-230.21458 192.36389-39.69591-.0909-12.18029-37.78113 32.16808-23.25916 32.06125 23.40619z"
         transform="matrix(.59712934 0 0 .65916705 344.26708 87.377646)"
         id="path211"
         stroke-width="3.18783"
         fill="#ececec" />
      <path
         d="m195.06536 127.64634-.0168 67.35365"
         id="path213"
         stroke-width="1.999987"
         fill="none" />
      <path
         d="m257.80752 175.36863-62.92047 19.89971"
         id="path215"
         stroke-width="1.999987"
         fill="none" />
      <path
         d="m132.14666 175.36863 62.92048 19.89971"
         id="path217"
         stroke-width="1.999987"
         fill="none" />
      <path
         d="m234.03106 252.74689-38.9713-57.53869"
         id="path219"
         stroke-width="1.999987"
         fill="none" />
      <path
         d="m156.01696 252.74689 38.97132-57.53869"
         id="path221"
         stroke-width="1.999987"
         fill="none" />
      <g
         transform="matrix(.62903077 0 0 .75414861 407.79818 209.86555)"
         id="g325"
         stroke-linejoin="round"
         stroke-width=".549505"
         fill="#ececec">
        <path
           d="m317.10434 111.67493a1.8215663 1.8215663 0 1 1 -3.64313 0 1.8215663 1.8215663 0 1 1 3.64313 0z"
           transform="matrix(5.4205636 0 0 5.1515478 -2063.9729 -598.69307)"
           id="path223" />
        <g
           transform="matrix(5.4205636 0 0 5.1515478 -2049.2629 -605.21551)"
           id="g231">
          <path
             d="m305.56775 106.96922a1.9733636 1.9733636 0 1 1 -3.94672 0 1.9733636 1.9733636 0 1 1 3.94672 0z"
             transform="matrix(.429766 0 0 .429766 170.18721 62.683277)"
             id="path225"
             stroke-width="1.278614" />
          <path
             d="m309.05911 105.29945a3.035944 3.035944 0 1 1 -6.07189 0 3.035944 3.035944 0 1 1 6.07189 0z"
             transform="matrix(.524473 0 0 .524473 142.9314 53.430072)"
             id="path227"
             stroke-width="1.047728" />
          <path
             d="m312.24684 106.05844a3.9467273 3.9467273 0 1 1 -7.89346 0 3.9467273 3.9467273 0 1 1 7.89346 0z"
             transform="matrix(.556038 0 0 .556038 136.11376 49.812725)"
             id="path229"
             stroke-width=".988251" />
        </g>
        <g
           transform="matrix(1.3128334 4.9981759 -5.2591826 1.2476791 -156.82911 -1739.9206)"
           id="g239">
          <path
             d="m305.56775 106.96922a1.9733636 1.9733636 0 1 1 -3.94672 0 1.9733636 1.9733636 0 1 1 3.94672 0z"
             transform="matrix(.429766 0 0 .429766 170.96288 62.734623)"
             id="path233"
             stroke-width="1.278614" />
          <path
             d="m309.05911 105.29945a3.035944 3.035944 0 1 1 -6.07189 0 3.035944 3.035944 0 1 1 6.07189 0z"
             transform="matrix(.52440435 .00000282 .00000282 .52439378 143.56551 53.390354)"
             id="path235"
             stroke-width="1.047875" />
          <path
             d="m312.24684 106.05844a3.9467273 3.9467273 0 1 1 -7.89346 0 3.9467273 3.9467273 0 1 1 7.89346 0z"
             transform="matrix(.556038 0 0 .556038 136.55404 49.446845)"
             id="path237"
             stroke-width=".98825" />
        </g>
        <g
           transform="matrix(-.52829913 5.1270213 -5.3947563 -.50208031 398.21601 -1590.6582)"
           id="g247">
          <path
             d="m305.56775 106.96922a1.9733636 1.9733636 0 1 1 -3.94672 0 1.9733636 1.9733636 0 1 1 3.94672 0z"
             transform="matrix(.429766 0 0 .429766 171.30178 61.993764)"
             id="path241"
             stroke-width="1.278615" />
          <path
             d="m309.05911 105.29945a3.035944 3.035944 0 1 1 -6.07189 0 3.035944 3.035944 0 1 1 6.07189 0z"
             transform="matrix(.524473 0 0 .524473 143.83616 53.163775)"
             id="path243"
             stroke-width="1.047728" />
          <path
             d="m312.24684 106.05844a3.9467273 3.9467273 0 1 1 -7.89346 0 3.9467273 3.9467273 0 1 1 7.89346 0z"
             transform="matrix(.556038 0 0 .556038 136.77997 50.229478)"
             id="path245"
             stroke-width=".988251" />
        </g>
        <g
           transform="matrix(4.8398587 2.3198244 -2.4409666 4.5996624 -1616.4239 -1234.7393)"
           id="g255">
          <path
             d="m305.56775 106.96922a1.9733636 1.9733636 0 1 1 -3.94672 0 1.9733636 1.9733636 0 1 1 3.94672 0z"
             transform="matrix(.429766 0 0 .429766 170.93289 62.512493)"
             id="path249"
             stroke-width="1.278613" />
          <path
             d="m309.05911 105.29945a3.035944 3.035944 0 1 1 -6.07189 0 3.035944 3.035944 0 1 1 6.07189 0z"
             transform="matrix(.524473 0 0 .524473 143.60327 53.49794)"
             id="path251"
             stroke-width="1.047727" />
          <path
             d="m312.24684 106.05844a3.9467273 3.9467273 0 1 1 -7.89346 0 3.9467273 3.9467273 0 1 1 7.89346 0z"
             transform="matrix(.556038 0 0 .556038 136.72141 49.790211)"
             id="path253"
             stroke-width=".98825" />
        </g>
        <g
           transform="matrix(3.5686552 -3.8776061 4.0800962 3.3915473 -1895.4676 850.86328)"
           id="g263">
          <path
             d="m305.56775 106.96922a1.9733636 1.9733636 0 1 1 -3.94672 0 1.9733636 1.9733636 0 1 1 3.94672 0z"
             transform="matrix(.429766 0 0 .429766 170.88613 61.13337)"
             id="path257"
             stroke-width="1.278615" />
          <path
             d="m309.05911 105.29945a3.035944 3.035944 0 1 1 -6.07189 0 3.035944 3.035944 0 1 1 6.07189 0z"
             transform="matrix(.524473 0 0 .524473 143.49437 52.493424)"
             id="path259"
             stroke-width="1.047728" />
          <path
             d="m312.24684 106.05844a3.9467273 3.9467273 0 1 1 -7.89346 0 3.9467273 3.9467273 0 1 1 7.89346 0z"
             transform="matrix(.556038 0 0 .556038 136.5696 49.36278)"
             id="path261"
             stroke-width=".988251" />
        </g>
        <g
           transform="matrix(2.108789 -4.7457243 4.9935478 2.0041324 -1568.3653 1253.9652)"
           id="g271">
          <path
             d="m305.56775 106.96922a1.9733636 1.9733636 0 1 1 -3.94672 0 1.9733636 1.9733636 0 1 1 3.94672 0z"
             transform="matrix(.429766 0 0 .429766 170.76914 62.069682)"
             id="path265"
             stroke-width="1.278614" />
          <path
             d="m309.05911 105.29945a3.035944 3.035944 0 1 1 -6.07189 0 3.035944 3.035944 0 1 1 6.07189 0z"
             transform="matrix(.524473 0 0 .524473 143.44524 52.727296)"
             id="path267"
             stroke-width="1.047728" />
          <path
             d="m312.24684 106.05844a3.9467273 3.9467273 0 1 1 -7.89346 0 3.9467273 3.9467273 0 1 1 7.89346 0z"
             transform="matrix(.556038 0 0 .556038 136.54169 48.910838)"
             id="path269"
             stroke-width=".988251" />
        </g>
        <g
           transform="matrix(-4.2513101 -3.1959687 3.3628635 -4.0403229 624.21124 1447.174)"
           id="g279">
          <path
             d="m305.56775 106.96922a1.9733636 1.9733636 0 1 1 -3.94672 0 1.9733636 1.9733636 0 1 1 3.94672 0z"
             transform="matrix(.429766 0 0 .429766 171.09612 62.387507)"
             id="path273"
             stroke-width="1.278615" />
          <path
             d="m309.05911 105.29945a3.035944 3.035944 0 1 1 -6.07189 0 3.035944 3.035944 0 1 1 6.07189 0z"
             transform="matrix(.524473 0 0 .524473 143.82643 52.964202)"
             id="path275"
             stroke-width="1.047728" />
          <path
             d="m312.24684 106.05844a3.9467273 3.9467273 0 1 1 -7.89346 0 3.9467273 3.9467273 0 1 1 7.89346 0z"
             transform="matrix(.556038 0 0 .556038 136.92772 49.356298)"
             id="path277"
             stroke-width=".988251" />
        </g>
        <g
           transform="matrix(-2.6400692 -4.499233 4.7341848 -2.5090459 2.002627 1668.4042)"
           id="g287">
          <path
             d="m305.56775 106.96922a1.9733636 1.9733636 0 1 1 -3.94672 0 1.9733636 1.9733636 0 1 1 3.94672 0z"
             transform="matrix(.429766 0 0 .429766 171.06363 61.973026)"
             id="path281"
             stroke-width="1.278615" />
          <path
             d="m309.05911 105.29945a3.035944 3.035944 0 1 1 -6.07189 0 3.035944 3.035944 0 1 1 6.07189 0z"
             transform="matrix(.524473 0 0 .524473 143.73885 53.054789)"
             id="path283"
             stroke-width="1.047729" />
          <path
             d="m312.24684 106.05844a3.9467273 3.9467273 0 1 1 -7.89346 0 3.9467273 3.9467273 0 1 1 7.89346 0z"
             transform="matrix(.556038 0 0 .556038 136.73334 49.943295)"
             id="path285"
             stroke-width=".988251" />
        </g>
        <g
           transform="matrix(-4.361792 3.0585511 -3.21827 -4.1453217 1408.569 -512.27026)"
           id="g295">
          <path
             d="m305.56775 106.96922a1.9733636 1.9733636 0 1 1 -3.94672 0 1.9733636 1.9733636 0 1 1 3.94672 0z"
             transform="matrix(.429766 0 0 .429766 171.1083 61.781492)"
             id="path289"
             stroke-width="1.278615" />
          <path
             d="m309.05911 105.29945a3.035944 3.035944 0 1 1 -6.07189 0 3.035944 3.035944 0 1 1 6.07189 0z"
             transform="matrix(.524473 0 0 .524473 143.78202 52.742611)"
             id="path291"
             stroke-width="1.047728" />
          <path
             d="m312.24684 106.05844a3.9467273 3.9467273 0 1 1 -7.89346 0 3.9467273 3.9467273 0 1 1 7.89346 0z"
             transform="matrix(.556038 0 0 .556038 136.83478 49.626849)"
             id="path293"
             stroke-width=".988251" />
        </g>
        <g
           transform="matrix(-5.3059133 1.0539036 -1.1089389 -5.0425874 1461.7523 175.2316)"
           id="g303">
          <path
             d="m305.56775 106.96922a1.9733636 1.9733636 0 1 1 -3.94672 0 1.9733636 1.9733636 0 1 1 3.94672 0z"
             transform="matrix(.429766 0 0 .429766 171.1162 60.829402)"
             id="path297"
             stroke-width="1.278615" />
          <path
             d="m309.05911 105.29945a3.035944 3.035944 0 1 1 -6.07189 0 3.035944 3.035944 0 1 1 6.07189 0z"
             transform="matrix(.524473 0 0 .524473 143.838 52.147114)"
             id="path299"
             stroke-width="1.047729" />
          <path
             d="m312.24684 106.05844a3.9467273 3.9467273 0 1 1 -7.89346 0 3.9467273 3.9467273 0 1 1 7.89346 0z"
             transform="matrix(.556038 0 0 .556038 136.94197 49.112404)"
             id="path301"
             stroke-opacity=".941176"
             stroke-width=".988252" />
        </g>
        <path
           d="m312.85403 107.72821a1.6697692 1.6697692 0 1 1 -3.33953 0 1.6697692 1.6697692 0 1 1 3.33953 0z"
           transform="matrix(5.4205636 0 0 5.1515478 -2046.2819 -599.87039)"
           id="path305" />
        <path
           d="m312.85403 107.72821a1.6697692 1.6697692 0 1 1 -3.33953 0 1.6697692 1.6697692 0 1 1 3.33953 0z"
           transform="matrix(5.4205636 0 0 5.1515478 -2003.8548 -599.87039)"
           id="path307" />
        <path
           d="m312.85403 107.72821a1.6697692 1.6697692 0 1 1 -3.33953 0 1.6697692 1.6697692 0 1 1 3.33953 0z"
           transform="matrix(5.4205636 0 0 5.1515478 -1993.0546 -564.95738)"
           id="path309" />
        <path
           d="m312.85403 107.72821a1.6697692 1.6697692 0 1 1 -3.33953 0 1.6697692 1.6697692 0 1 1 3.33953 0z"
           transform="matrix(5.4205636 0 0 5.1515478 -2024.9904 -541.61679)"
           id="path311" />
        <path
           d="m312.85403 107.72821a1.6697692 1.6697692 0 1 1 -3.33953 0 1.6697692 1.6697692 0 1 1 3.33953 0z"
           transform="matrix(5.4205636 0 0 5.1515478 -2057.2334 -564.95738)"
           id="path313" />
        <path
           d="m317.10434 111.67493a1.8215663 1.8215663 0 1 1 -3.64313 0 1.8215663 1.8215663 0 1 1 3.64313 0z"
           transform="matrix(5.4205636 0 0 5.1515478 -2047.2574 -610.55139)"
           id="path315" />
        <path
           d="m317.10434 111.67493a1.8215663 1.8215663 0 1 1 -3.64313 0 1.8215663 1.8215663 0 1 1 3.64313 0z"
           transform="matrix(5.4205636 0 0 5.1515478 -2058.0579 -579.92426)"
           id="path317" />
        <path
           d="m317.10434 111.67493a1.8215663 1.8215663 0 1 1 -3.64313 0 1.8215663 1.8215663 0 1 1 3.64313 0z"
           transform="matrix(5.4205636 0 0 5.1515478 -2036.51 -579.92426)"
           id="path319" />
        <path
           d="m317.10434 111.67493a1.8215663 1.8215663 0 1 1 -3.64313 0 1.8215663 1.8215663 0 1 1 3.64313 0z"
           transform="matrix(5.4205636 0 0 5.1515478 -2030.5935 -598.69307)"
           id="path321" />
        <path
           d="m312.85403 107.72821a1.6697692 1.6697692 0 1 1 -3.33953 0 1.6697692 1.6697692 0 1 1 3.33953 0z"
           transform="matrix(5.4205636 0 0 5.1515478 -2024.9518 -573.69658)"
           id="path323" />
      </g>
    </g>
  </g>
</svg>
