<svg fill-rule="evenodd" height="496" image-rendering="optimizeQuality" shape-rendering="geometricPrecision" text-rendering="geometricPrecision" viewBox="0 0 744 496" width="744" xmlns="http://www.w3.org/2000/svg"><path d="m0 0h744v496h-744z" fill="#fff"/><path d="m0 0h248v496h-248z" fill="#002654"/><path d="m496 0h248v496h-248z" fill="#ce1126"/><path d="m368 126c-7 15-12 15-25 25-5 5-13 8-3 13-10 5-15 7-20 17 0 0 3 3 3 3s9-5 10-3c2 2-13 10-15 11-1 1-10 7-10 7-13 10-20 7-28 23 0 0 25-3 25-3 5 18-12 20-25 28 0 0-20 12-20 12 5 18 20 8 33 3 0 0 2 2 2 2v5s-25 13-25 13-30 17-30 18c-1 1 0 5 0 5 10 2 25 5 35 0 13-5 15-10 30-10-17 12-30 17-50 20v10c15 0 25 0 38-3 0 0 32-10 32-10 8 0 15 8 13 15-8 28-38 23-48 46 0 0 40-15 40-15 10-6 21-11 33-8 15 5 15 15 35 20 0 0-5-12-5-12 5 2 11 2 16 5 12 5 15 10 30 7-13-15-15-12-25-23-10-15-16-37 0-40 0 0 17 5 17 5 18 3 18-2 43 8 15 5 20 12 38 7-8-17-35-30-53-35 20-13 15 5 43-2v-5c-20-16-28-28-56-28 0 0 43-5 43-5v-5s-42-11-43-12c0-1 1-3 4-4 8 5 32 4 34 4-1-6-12-11-22-16 0 0-44-27-44-29 1-7 18 1 36 6-5-10-15-15-25-17 0 0 15-3 15-3-10-22-35-20-51-30-10-8-10-13-25-20z" fill="#009e3f"/><g fill="#fff" stroke="#fff" stroke-linecap="round" stroke-linejoin="round" stroke-width="3"><path d="m341 294c2-6 4-12-7-17s6 21 7 17z"/><path d="m354 282c-2 0-3 8 1 10 5 1 1-10-1-10z"/><path d="m367 281c-2 0-2 12 6 10s0-11-6-10z"/><path d="m383 251c1-3 0-15-8-10-7 5 5 11 8 10z"/><path d="m367 241c2-1 3-8-4-6-6 2 2 8 4 6z"/><path d="m353 244s-4-6-8-5c-4 4 8 5 8 5z"/><path d="m305 263c2 0 16-2 20-7 5-6-24 2-24 2s3 5 4 5z"/><path d="m442 229c1-1-7-7-12-4-1 4 12 5 12 4z"/><path d="m415 216c1-2-3-11-13-6s10 9 13 6z"/><path d="m384 211s2-8 8-7c7 5-8 7-8 7z"/><path d="m378 205c-1-3-7-1-14 3-7 5 16 2 14-3z"/><path d="m396 183s6-3 8 0c3 4-8 0-8 0z"/><path d="m391 180c-1-2-8-2-8 1-1 3 9 3 8-1z"/><path d="m374 180c-1-1-10 0-13 6 4 3 15-2 13-6z"/><path d="m353 186s-13 8-14 14c0 5 16-9 16-9s2-5-2-5z"/><path d="m338 179c1-1 7-5 7-5 1 2-5 6-7 5z"/><path d="m343 210c0-3-16-2-10 5 5 6 11-4 10-5z"/><path d="m328 220c-1-1-2-6-4-6s-11 2-12 3c-1 2 4 10 5 10 2 1 11-6 11-7z"/><path d="m414 274c0-2 16-8 22-2 7 9-23 4-22 2z"/><path d="m458 284c4-6-11-13-17-6 2 8 14 11 17 6z"/></g></svg>