<?xml version="1.0" encoding="UTF-8" standalone="no"?>
<svg
   xmlns:dc="http://purl.org/dc/elements/1.1/"
   xmlns:cc="http://creativecommons.org/ns#"
   xmlns:rdf="http://www.w3.org/1999/02/22-rdf-syntax-ns#"
   xmlns:svg="http://www.w3.org/2000/svg"
   xmlns="http://www.w3.org/2000/svg"
   version="1.1"
   width="1200"
   height="600"
   id="svg10">
  <metadata
     id="metadata16">
    <rdf:RDF>
      <cc:Work
         rdf:about="">
        <dc:format>image/svg+xml</dc:format>
        <dc:type
           rdf:resource="http://purl.org/dc/dcmitype/StillImage" />
        <dc:title></dc:title>
      </cc:Work>
    </rdf:RDF>
  </metadata>
  <defs
     id="defs14" />
  <path
     d="M0 0h1200v600H0z"
     id="path2"
     style="fill:#cc0000;fill-opacity:1"
     fill-opacity="1"
     fill="#bc0000" />
  <path
     id="path11728"
     d="M 200,35.65541 191.64311,61.4 H 164.6 l 21.87831,15.91084 -8.35689,25.74457 L 200,87.14427 221.87861,103.05541 213.52172,77.31084 235.4,61.4 h -27.0431 z m 0,13.41282 5.34832,16.47641 h 17.30787 L 208.6538,75.72795 214.00211,92.20436 200,82.02133 185.9979,92.20436 191.34621,75.72795 177.34382,65.54464 h 17.30787 z"
     style="fill:#ffd700;fill-opacity:1;stroke:none;stroke-width:0.14895929px;stroke-linecap:butt;stroke-linejoin:miter;stroke-opacity:1" />
  <g
     transform="matrix(0.98932498,0,0,0.9867358,2.8503864,1.3215688)"
     id="g1616">
    <path
       id="rect4165"
       d="m 137.43744,171.81173 18.86296,18.9937 17.78834,-17.66589 c 27.05847,29.021 55.43807,56.99501 82.28704,86.12782 4.03444,4.06233 10.59815,4.085 14.66056,0.0506 4.06232,-4.03445 4.08499,-10.59815 0.0506,-14.66056 -28.81871,-27.1901 -57.72545,-54.60143 -86.55328,-81.89095 l 23.96499,-23.80003 -33.34026,-4.61605 z"
       style="fill:#ffd700;fill-opacity:1;stroke:none;stroke-width:0.48919073;stroke-miterlimit:4;stroke-dasharray:none;stroke-dashoffset:0;stroke-opacity:1" />
    <path
       id="path4179"
       d="m 199.2769,110.31266 c 15.51743,8.7394 26.31052,21.28122 33.2602,34.3924 7.04394,13.28902 10.13959,27.16218 10.20325,38.25433 0.13054,22.74374 -18.43771,41.18184 -41.18183,41.18184 -12.13597,0 -23.04607,-5.24868 -30.58302,-13.60085 l -4.16863,3.51033 a 6.2236943,6.2236943 0 0 0 -2.22429,-0.41276 6.2236943,6.2236943 0 0 0 -4.74859,2.20136 7.8151961,7.8151961 0 0 0 -6.40534,5.29224 c -3.13486,6.28843 -8.63524,11.21997 -15.29104,13.4776 -0.0637,0.0216 -0.11992,0.05 -0.1758,0.0783 a 10.6033,17.146325 44.799447 0 0 -8.78919,5.80245 10.6033,17.146325 44.799447 0 0 -6.30024,16.63822 3.9309968,3.9309968 0 0 0 -0.21498,1.26979 3.9309968,3.9309968 0 0 0 3.93073,3.93073 3.9309968,3.9309968 0 0 0 1.57745,-0.33632 10.6033,17.146325 44.799447 0 0 16.05444,-6.55917 10.6033,17.146325 44.799447 0 0 5.98303,-9.53062 c 2.31696,-6.62278 7.29699,-12.01856 13.62281,-15.05312 0.15105,-0.0725 0.27303,-0.14714 0.38218,-0.22358 a 7.8151961,7.8151961 0 0 0 4.225,-5.2139 c 9.70222,11.44481 24.25255,18.75299 40.51876,19.13577 29.83352,0.70205 52.13299,-21.25802 53.16414,-52.83642 0.51894,-15.89259 -5.62993,-36.3847 -19.6412,-53.19089 -10.70835,-12.84441 -25.42072,-23.50795 -43.19784,-28.20777 z"
       style="fill:#ffd700;fill-opacity:1;stroke:none;stroke-width:0.50003481;stroke-miterlimit:4;stroke-dasharray:none;stroke-dashoffset:0;stroke-opacity:1" />
  </g>
  <path
     id="path1684"
     d="M 0,450 H 1200 V 600 H 0 Z"
     style="opacity:1;fill:#003399;fill-rule:evenodd" />
</svg>
