<?xml version="1.0" encoding="UTF-8"?>
<!DOCTYPE svg PUBLIC "-//W3C//DTD SVG 1.1//EN" "http://www.w3.org/Graphics/SVG/1.1/DTD/svg11.dtd">
<!-- Creator: CorelDRAW -->
<svg xmlns="http://www.w3.org/2000/svg" xml:space="preserve" width="600px" height="300px" style="shape-rendering:geometricPrecision; text-rendering:geometricPrecision; image-rendering:optimizeQuality; fill-rule:evenodd; clip-rule:evenodd"
viewBox="0 0 600 300"
 xmlns:xlink="http://www.w3.org/1999/xlink"
 version="1.1"
 xmlns:a="http://ns.adobe.com/AdobeSVGViewerExtensions/3.0/"
 enable-background="new 0 0 591 295">
 <defs>
  <style type="text/css">
   <![CDATA[
    .str0 {stroke:black;stroke-width:0.0762}
    .fil2 {fill:none}
    .fil0 {fill:#CC0000}
    .fil1 {fill:gold}
   ]]>
  </style>
 </defs>
 <g id="Слой_x0020_1">
  <metadata id="CorelCorpID_0Corel-Layer"/>
  <rect class="fil0" x="-0.0593" y="0.037" width="600" height="300"/>
  <polygon id="path1873_1_" class="fil1" points="41.3251,109.642 37.1157,119.207 46.8896,124.749 28.6047,155.756 55.6352,166.885 55.9148,174.17 58.8143,174.041 58.8143,157.427 37.4551,148.166 52.6293,121.568 41.9449,115.033 44.2734,110.474 "/>
  <path id="path1875_1_" class="fil1" d="M65.5839 110.095l-0.129 42.8509c1.971,10.2931 6.8317,19.2998 18.0145,19.2998 10.7462,0.1716 17.2201,-7.2622 17.6275,-17.6287l0 -44.3941 -8.8773 0.0003 0.3852 45.2962c0,0 -0.2562,11.2581 -8.8769,11.4505 -8.2399,0.1878 -9.6511,-10.6782 -9.6511,-10.6782l0 -46.0673 -8.4929 -0.1294z"/>
  <path id="path1877_1_" class="fil1" d="M108.145 110.095l-0.129 42.8509c1.9711,10.2931 6.8317,19.2998 18.0138,19.2998 10.7462,0.1716 17.2201,-7.2622 17.6287,-17.6287l0 -44.3941 -8.8781 0.0003 0.384 45.2962c0,0 -0.255,11.2581 -8.8758,11.4505 -8.2406,0.1878 -9.6518,-10.6782 -9.6518,-10.6782l0 -46.0673 -8.4918 -0.1294z"/>
  <path id="path1879_1_" class="fil1" d="M187.088 172.25l0.1291 -42.8509c-1.9711,-10.2931 -6.8295,-19.3009 -18.0138,-19.3009 -10.7482,-0.1717 -17.2201,7.2622 -17.6287,17.6286l0 44.3942 8.8781 0 -0.3859 -45.2954c0,0 0.2569,-11.2593 8.8776,-11.4505 8.2388,-0.1878 9.6519,10.6771 9.6519,10.6771l0 46.0684 8.4917 0.1294z"/>
  <polygon id="path1881_1_" class="fil1" points="183.611,135.058 195.284,135.058 195.413,145.48 191.038,145.48 191.166,139.047 183.539,139.047 "/>
  <g id="_61806528">
   <path id="path1376" class="fil1" d="M112.018 23.7528c19.6884,7.115 32.0495,23.7072 32.1441,35.8505 0.21,26.881 -29.1348,39.8781 -48.0515,18.2141l-1.3252 0.9749 0.3333 2.3178c-4.1529,-0.3938 -8.4028,8.6916 -11.6547,11.2431 -3.6433,3.9701 -9.0717,-0.2645 -5.16,-5.1054 3.0211,-4.3441 10.1139,-6.3077 11.2839,-11.6684l2.1899 0.1657 1.9222 -1.9764 1.7275 0.324 2.3096 -2.3846c18.3969,19.4914 42.4867,3.7774 37.859,-15.0072 -1.3542,-14.8697 -11.1355,-23.3577 -23.5781,-32.9481l0 0z"/>
   <path id="_120391944" class="fil2 str0" d="M81.7864 82.5326l0 0 0 0 0 0m0 0m0 0m0 0"/>
   <path id="polygon1374" class="fil1" d="M81.7864 46.7659l8.1807 8.2345 6.5906 -6.8622c14.8022,15.2957 29.6043,30.5911 44.4065,45.8865 3.2859,-0.7469 5.0552,-2.0224 6.1055,-5.8289l-45.6296 -44.861 9.2083 -8.2348 -13.4086 -3.6599 -15.4534 15.3258z"/>
  </g>
 </g>
</svg>
