<svg xmlns="http://www.w3.org/2000/svg" width="1500" height="1000" version="1"><path d="M0 0h1500v1000H0z"/><path d="M661.099 579.322v14.903h16.281v-14.903H661.1zm33.745 0v14.903h14.509v-14.903h-14.51zm31.906 0v14.903h14.51v-14.903h-14.51zm31.972 0v14.903h14.51v-14.903h-14.51zm31.972 0v14.903h14.51v-14.903h-14.51zm31.907 0v14.903h16.347v-14.903h-16.347zm-144.236 15.494v9.585h14.575v-9.585h-14.575zm32.432 0v9.585h14.509v-9.585h-14.51zm31.972 0v9.585h14.509v-9.585h-14.509zm31.907 0v9.585h14.509v-9.585h-14.51zm32.431 0v9.585h14.51v-9.585h-14.51zm-112.526 11.16v9.586h14.509v-9.585h-14.509zm32.17 0v9.586h14.508v-9.585H726.75zm31.971 0v9.586h14.51v-9.585h-14.51zm32.17 0v9.586H805.4v-9.585h-14.509z" fill="#fff"/><g fill="#fff"><path d="M901.235 390.181c5.93 0 10.7 4.771 10.7 10.701 0 4.571-2.866 8.494-6.893 10.045l-5.383 16.15c23.3 12.286 41.295 33.315 41.295 59.808 0 13.337-4.936 24.066-9.52 32.17-5.09 7.173-11.89 13.17-16.807 21.796-5.05 8.861-4.47 19.81-14.049 25.998-4.994-2.276-10.898-8.233-10.898-17.53 0-12.142 7.353-25.188 7.353-35.188 0-8.68-6.053-25.126-15.494-32.957l-28.69 85.675-10.766-10.176L891.19 404.69a10.77 10.77 0 0 1-.722-3.808c0-5.93 4.836-10.7 10.767-10.7zM598.766 390.181a10.676 10.676 0 0 0-10.702 10.701c0 4.571 2.867 8.494 6.894 10.045l5.383 16.15c-23.3 12.286-41.295 33.315-41.295 59.808 0 13.337 4.936 24.066 9.52 32.17 5.09 7.173 11.89 13.17 16.807 21.796 5.05 8.861 4.47 19.81 14.049 25.998 4.994-2.276 10.898-8.233 10.898-17.53 0-12.142-7.353-25.188-7.353-35.188 0-8.68 6.053-25.126 15.494-32.957l28.69 85.675 10.766-10.176L608.81 404.69a10.77 10.77 0 0 0 .722-3.808c0-5.93-4.836-10.7-10.766-10.7z"/></g><path d="M689.92 465.352a15.847 15.847 0 0 0-15.888 15.887v13.656h-8.14v14.115h18.644v-4.53h53.44v4.53h96.18v-14.115h-8.141v-13.656c0-8.806-7.147-15.887-15.953-15.887H689.92zm4.07 10.701c4.582 0 8.338 3.756 8.338 8.338 0 4.581-3.756 8.272-8.338 8.272a8.256 8.256 0 0 1-8.272-8.272c0-4.582 3.69-8.338 8.272-8.338zm19.367 0c4.582 0 8.272 3.756 8.272 8.338a8.256 8.256 0 0 1-8.272 8.272c-4.581 0-8.337-3.69-8.337-8.272 0-4.582 3.756-8.338 8.337-8.338zm19.302 0c4.581 0 8.337 3.756 8.337 8.338 0 4.581-3.756 8.272-8.337 8.272a8.256 8.256 0 0 1-8.272-8.272c0-4.582 3.69-8.338 8.272-8.338zm34.467 0c4.581 0 8.337 3.756 8.337 8.338 0 4.581-3.756 8.272-8.337 8.272a8.256 8.256 0 0 1-8.272-8.272c0-4.582 3.69-8.338 8.272-8.338zm19.367 0c4.581 0 8.272 3.756 8.272 8.338a8.256 8.256 0 0 1-8.272 8.272c-4.582 0-8.338-3.69-8.338-8.272 0-4.582 3.756-8.338 8.338-8.338zm19.301 0c4.582 0 8.338 3.756 8.338 8.338 0 4.581-3.756 8.272-8.338 8.272a8.256 8.256 0 0 1-8.272-8.272c0-4.582 3.69-8.338 8.272-8.338z" fill="#fff"/><g fill="#fff" stroke="#000" stroke-width=".762" stroke-linecap="square" stroke-linejoin="round" stroke-dashoffset="3.2" transform="translate(1475.962 -704.816) scale(2.10084)"><rect width="12.053" height="103.388" x="-396.448" y="520.45" rx="0" ry="0"/><rect ry="0" rx="0" y="520.45" x="-306.721" height="103.388" width="12.053"/></g><path d="M755.374 517.807c-2.094 0-3.742 1.714-3.742 3.808v57.707h7.156V537.7h2.363v41.622h5.58V540.13l39.392 39.193h8.272l-41.82-41.622h4.727l41.754 41.622h10.11v-10.57h-8.075v-8.271h-8.14v-8.207h-8.076v-8.206h-8.14v-8.272h-8.141v-8.207h-8.338v-5.974a3.82 3.82 0 0 0-3.808-3.808h-21.074zM700.621 637.424c-2.913.228-5.158 3.504-3.151 6.171 15.598 20.736 49.123 36.135 70.706 30.725 1.031 2.76 2.3 5.745 4.267 8.534 3.27 4.638 8.866 8.47 16.873 8.47 11.507 0 19.348-12.165 15.953-24.357a3.677 3.677 0 0 0-3.808-2.692c-11.054.816-19.924.805-31.447 0-24.453-1.707-46.193-13.741-66.242-25.998-1.089-.665-2.18-.93-3.151-.853zm97.755 34.335c.62 6.957-3.477 12.212-9.06 12.212-5.938 0-8.621-2.089-10.898-5.318-1.351-1.916-2.337-4.326-3.283-6.828 7.892.348 15.354.38 23.24-.066z" fill="#fff"/><path d="M802.15 637.424c2.912.228 5.157 3.504 3.15 6.171-15.598 20.736-49.122 36.135-70.706 30.725-1.03 2.76-2.3 5.745-4.267 8.534-3.27 4.638-8.865 8.47-16.873 8.47-11.507 0-19.348-12.165-15.953-24.357a3.677 3.677 0 0 1 3.808-2.692c11.054.816 19.924.805 31.447 0 24.454-1.707 46.193-13.741 66.242-25.998 1.089-.665 2.18-.93 3.151-.853zm-97.755 34.335c-.62 6.957 3.476 12.212 9.06 12.212 5.938 0 8.62-2.089 10.898-5.318 1.35-1.916 2.336-4.326 3.282-6.828-7.892.348-15.353.38-23.24-.066z" fill="#fff"/><path d="M655.748 335.822c-5.364 0-16.61 19.133-16.61 28.296s7.447 16.544 16.61 16.544 16.61-7.381 16.61-16.544-11.104-28.296-16.61-28.296zM642.159 383.09a2.09 2.09 0 0 0-2.101 2.102v8.863c0 1.169.931 2.1 2.1 2.1h27.18a2.09 2.09 0 0 0 2.101-2.1v-8.863a2.09 2.09 0 0 0-2.1-2.101h-27.18zM644.325 439.617c-1.792 0-3.283 1.49-3.283 3.282v2.364c0 1.792 1.49 3.217 3.283 3.216h22.912a3.197 3.197 0 0 0 3.217-3.216v-2.364c0-1.792-1.424-3.282-3.217-3.282h-22.912zM644.982 494.632a3.197 3.197 0 0 0-3.217 3.217v6.5a3.197 3.197 0 0 0 3.217 3.217h21.533a3.197 3.197 0 0 0 3.217-3.217v-6.5a3.197 3.197 0 0 0-3.217-3.217h-21.533z" fill="#fff" stroke="#000" stroke-width="1.6008400799999998" stroke-linecap="square" stroke-linejoin="round" stroke-dashoffset="3.2"/><path d="M635.224 606.613l-14.706 23.076h258.609l-14.706-23.076-29.084 7.964H665.038l-29.814-7.964z" fill="#fff"/><path d="M642.323 590.746c-5.607 8.206-8.082 16.413-9.98 24.619h46.81c-2.066-8.398-6.132-16.596-11.949-24.62h-24.881zM844.252 335.822c-5.365 0-16.61 19.133-16.61 28.296s7.447 16.544 16.61 16.544 16.61-7.381 16.61-16.544-11.105-28.296-16.61-28.296zM830.662 383.09a2.09 2.09 0 0 0-2.101 2.102v8.863c0 1.169.932 2.1 2.1 2.1h27.18a2.09 2.09 0 0 0 2.101-2.1v-8.863a2.09 2.09 0 0 0-2.1-2.101h-27.18zM832.828 439.617c-1.792 0-3.282 1.49-3.282 3.282v2.364c0 1.792 1.49 3.217 3.282 3.216h22.913a3.197 3.197 0 0 0 3.216-3.216v-2.364c0-1.792-1.424-3.282-3.216-3.282h-22.913zM833.485 494.632a3.197 3.197 0 0 0-3.217 3.217v6.5a3.197 3.197 0 0 0 3.217 3.217h21.533a3.197 3.197 0 0 0 3.217-3.217v-6.5a3.197 3.197 0 0 0-3.217-3.217h-21.533zM830.826 590.746c-5.607 8.206-8.082 16.413-9.98 24.619h46.81c-2.066-8.398-6.132-16.596-11.948-24.62h-24.882zM750 387.752c-1.575 3.683-6.746 9.203-13.59 14.18-6.75 4.91-15.144 9.273-20.155 10.636-23.247 6.325-39.128 18.982-39.128 33.548 0 8.606 5.572 16.558 14.903 22.912h115.94c9.33-6.354 14.903-14.306 14.903-22.912 0-14.565-15.881-27.223-39.128-33.548-5.011-1.363-13.406-5.726-20.155-10.635-6.844-4.978-12.014-10.498-13.59-14.18z" fill="#fff" stroke="#000" stroke-width="1.6008400799999998" stroke-linecap="square" stroke-linejoin="round" stroke-dashoffset="3.2"/><path d="M681.351 496.886H818.65" fill="#fd5" stroke="#000" stroke-width="1.6008400799999998" stroke-linecap="round" stroke-linejoin="round" stroke-dashoffset="3.2"/><path d="M684.536 504.48v74.842h9.585V539.8c0-9.585 7.628-17.332 17.135-17.332 9.508 0 17.135 7.747 17.135 17.332v39.522h9.586V504.48h-53.44zm7.222 3.348h9.716v12.67h-9.716v-12.67zm14.64 0h9.717v12.67h-9.717v-12.67zm14.64 0h9.717v12.67h-9.716v-12.67z" fill="#fff"/><path d="M684.536 509.01v-4.53h53.44v4.53" fill="none" stroke="#000" stroke-width="1.6008400799999998" stroke-linecap="round" stroke-linejoin="round" stroke-dashoffset="3.2"/><path d="M750 188.025l-11.423 11.424 5.383 95.456c2.022-.058 4.004-.13 6.04-.13 2.036 0 4.018.072 6.04.13l5.383-95.456L750 188.025zm-21.796 21.796l-18.645 18.645 11.686 68.409c3.9-.548 7.849-.988 11.817-1.313l-4.858-85.74zm43.592 0l-4.858 85.741c4.056.332 8.094.748 12.08 1.313l11.554-68.277-18.776-18.777zm-71.822 28.362l-15.363 15.23 13.787 47.795c3.868-1 7.865-1.717 11.817-2.495l-10.241-60.53zm100.052 0l-10.373 60.53c3.954.775 7.949 1.496 11.818 2.495l13.786-47.794-15.23-15.231zm-124.212 24.16l-12.999 12.998 13.787 33.089c3.742-1.437 7.448-2.851 11.292-4.07l-12.08-42.018zm148.372 0l-12.08 42.016c3.883 1.232 7.644 2.617 11.423 4.07l13.656-33.088-13-12.999zm-294.774 17.069v16.15l71.297 63.682a206.362 206.362 0 0 1 8.535-8.535l-63.682-71.297h-16.15zm30.725 0l57.247 64.075c3.073-2.606 6.23-5.059 9.454-7.484l-40.178-56.591h-26.523zm40.047 0l35.583 50.157a207.355 207.355 0 0 1 10.241-6.433l-24.16-43.724h-21.664zm34.138 0l21.271 38.471a205.437 205.437 0 0 1 10.899-5.252l-13.787-33.22h-18.383zm212.973 0l-13.787 33.22a205.44 205.44 0 0 1 10.899 5.251l21.27-38.471h-18.382zm30.988 0l-24.16 43.724a207.57 207.57 0 0 1 10.242 6.433l35.582-50.157h-21.664zm34.926 0l-40.047 56.46c3.246 2.44 6.36 4.991 9.454 7.615l57.247-64.075H913.21zm41.229 0l-63.682 71.297a206.36 206.36 0 0 1 8.535 8.535l71.297-63.682v-16.15h-16.15zm16.15 30.987l-63.944 57.117c2.604 3.075 5.062 6.227 7.484 9.454l56.46-40.048V310.4zm-441.176.131v26.392l56.46 40.048c2.385-3.177 4.791-6.293 7.353-9.323l-63.813-57.117zm0 39.785v21.665l43.724 24.028c2.03-3.441 4.08-6.932 6.302-10.241l-50.026-35.452zm441.176 0l-50.026 35.452c2.255 3.36 4.376 6.877 6.434 10.373l43.592-24.16v-21.665zm-441.176 34.139v18.25l33.22 13.788c1.62-3.628 3.298-7.255 5.12-10.767l-38.34-21.271zm441.176 0l-38.34 21.14c1.841 3.545 3.484 7.235 5.12 10.898l33.22-13.787v-18.251zM525.21 412.815l-12.999 13 42.148 12.21c1.23-3.884 2.62-7.642 4.07-11.423l-33.219-13.787zm449.58 0l-33.22 13.787c1.452 3.78 2.84 7.539 4.07 11.423l42.149-12.21-13-13zm-471.507 21.928l-15.232 15.23 60.662 10.374c.775-3.954 1.496-7.949 2.495-11.818l-47.925-13.786zm493.434 0l-47.925 13.786c.999 3.87 1.72 7.864 2.495 11.818l60.662-10.373-15.232-15.231zm-518.25 24.816l-18.777 18.776 85.872 4.727c.329-4.012.757-8.005 1.313-11.949l-68.409-11.554zm543.067 0l-68.409 11.554c.562 3.986.983 8.025 1.313 12.08l85.872-4.858-18.776-18.776zm29.017 29.018l-95.456 5.383c.058 2.022.13 4.004.13 6.04 0 2.036-.072 4.018-.13 6.04l95.456 5.383L1061.975 500l-11.424-11.423zm-601.234.131L438.025 500l11.555 11.555 95.325-5.384c-.061-2.065-.13-4.091-.13-6.171 0-1.991.074-3.93.13-5.909l-95.588-5.383zm96.245 28.23l-85.74 4.858 18.776 18.776 68.277-11.554c-.565-3.986-.98-8.024-1.313-12.08zm408.876.131a206.059 206.059 0 0 1-1.313 11.949l68.277 11.554 18.777-18.776-85.741-4.727zm-405.725 22.716l-60.662 10.241 15.363 15.363 47.925-13.787c-1.004-3.88-1.846-7.852-2.626-11.817zm402.574 0c-.78 3.965-1.622 7.937-2.626 11.817l47.925 13.787 15.363-15.363-60.662-10.241zm-396.928 22.321l-42.017 12.211 13 13 33.088-13.788c-1.454-3.78-2.839-7.538-4.07-11.423zm391.282 0c-1.232 3.885-2.617 7.642-4.07 11.423l33.219 13.656 12.868-12.868-42.017-12.21zM562.63 583.64l-33.22 13.786v18.252l38.472-21.14a205.416 205.416 0 0 1-5.252-10.898zm374.738 0c-1.63 3.647-3.419 7.235-5.252 10.767l38.471 21.27v-18.25l-33.22-13.787zm-364.365 20.352l-43.592 24.16v21.664l50.157-35.583c-2.26-3.37-4.502-6.735-6.565-10.241zm353.86.13a204.912 204.912 0 0 1-6.433 10.243l50.157 35.451v-21.665l-43.723-24.028zm-340.992 19.04l-56.46 40.047v26.523l63.944-57.116c-2.604-3.076-5.061-6.228-7.484-9.454zm328.256 0c-2.403 3.2-4.903 6.271-7.484 9.322l63.944 57.117v-26.392l-56.46-40.047zM600.71 640.888l-71.297 63.681v16.02h16.281l63.55-71.167a206.496 206.496 0 0 1-8.534-8.534zm298.45 0a206.32 206.32 0 0 1-8.403 8.403l63.55 71.297h16.282V704.57l-71.428-63.681zm-281.775 15.756l-57.116 63.944h26.523l40.047-56.329c-3.24-2.437-6.366-4.994-9.454-7.615zm265.232 0c-3.067 2.603-6.237 5.061-9.454 7.484l40.047 56.46h26.523l-57.116-63.944zm-246.98 13.918l-35.452 50.026h21.665l24.16-43.724c-3.488-2.059-7.022-4.046-10.373-6.302zm228.597 0c-3.321 2.233-6.786 4.262-10.241 6.302l24.16 43.724h21.664l-35.583-50.026zm-208.64 11.686l-21.27 38.34h18.382l13.787-33.088a205.274 205.274 0 0 1-10.899-5.252zm188.814 0a205.277 205.277 0 0 1-10.899 5.252l13.787 33.088h18.383l-21.271-38.34zm-167.936 9.454l-13.656 33.088 13 12.999 12.079-42.017c-3.883-1.234-7.644-2.615-11.423-4.07zm146.927 0c-3.742 1.438-7.448 2.849-11.292 4.07l12.08 42.017 12.999-13-13.787-33.087zm-124.869 7.221l-13.786 47.794 15.23 15.232 10.374-60.53c-3.954-.777-7.949-1.496-11.818-2.496zm102.81 0c-3.787.977-7.686 1.733-11.554 2.495l10.241 60.53 15.363-15.362-13.787-47.663c-.082.022-.18-.02-.263 0zm-80.357 4.333l-11.554 68.146 18.776 18.777 4.858-85.61c-4.056-.332-8.094-.747-12.08-1.313zm57.773 0c-3.9.549-7.849.988-11.817 1.313l4.858 85.61 18.645-18.645-11.686-68.278zm-34.795 1.97l-5.383 95.325L750 811.975l11.423-11.424-5.383-95.325c-2.022.059-4.004.131-6.04.131-2.036 0-4.018-.072-6.04-.131zM747.371 303.084c-.844-.014-1.74-.014-2.659.063-6.452 4.833-7.344 20.4-5.887 30.891-4.564-.263-9.257-.76-13.736-.76-5.673 0-11.68 6.19-11.9 11.774-.305 7.677 6.597 17.013 7.722 24.371.3 1.963.407 4.481.57 7.09 2.52-3.182 5.538-6.53 8.799-9.115 1.724-1.367 4.26-1.9 7.026-2.596 2.767-.696 5.68-1.36 7.406-2.089.763-.321 2.728-1.713 5.001-3.608 2.274-1.895 4.976-4.318 7.723-6.9 5.492-5.163 11.238-10.919 14.432-14.179.25-.272.585-.45.95-.506.698-.095 1.406.25 1.709.886.303.635.133 1.416-.38 1.899-3.215 3.281-8.947 9.026-14.496 14.243-2.774 2.608-5.493 5.062-7.849 7.026-2.356 1.964-4.213 3.435-5.824 4.114-2.216.935-5.194 1.595-7.912 2.28-2.718.683-5.242 1.55-5.76 1.962-3.895 3.087-7.689 7.595-10.382 11.33.577 4.174 1.78 7.833 4.874 8.863 4.91 1.633 17.385-7.85 25.067-7.85 8.248 0 18.47 7.715 21.27 4.495 4.712-5.423-.372-22.91.949-33.107.434-3.347 3.092-5.356 4.051-10.508 1.717-9.22-11.123-12.786-15.319-12.786-2.472 0-6.392 1.201-10.444 2.278-1.736-9.144.87-17.26 6.9-22.535-1.94-4.608-5.997-6.928-11.901-7.026zm-13.61 36.208c6.312 0 11.458 5.146 11.458 11.458 0 6.311-5.146 11.457-11.458 11.457s-11.457-5.145-11.457-11.457c0-6.313 5.145-11.458 11.457-11.458z" fill="#fff"/></svg>