<?xml version="1.0" encoding="UTF-8" standalone="no"?>
<!-- Created with Inkscape (http://www.inkscape.org/) -->

<svg
   xmlns:dc="http://purl.org/dc/elements/1.1/"
   xmlns:cc="http://creativecommons.org/ns#"
   xmlns:rdf="http://www.w3.org/1999/02/22-rdf-syntax-ns#"
   xmlns:svg="http://www.w3.org/2000/svg"
   xmlns="http://www.w3.org/2000/svg"
   xmlns:sodipodi="http://sodipodi.sourceforge.net/DTD/sodipodi-0.dtd"
   xmlns:inkscape="http://www.inkscape.org/namespaces/inkscape"
   width="900"
   height="600"
   id="svg3329"
   sodipodi:version="0.32"
   inkscape:version="0.48.5 r10040"
   version="1.0"
   sodipodi:docname="Flag_of_the_Republic_of_Pisa.svg"
   inkscape:output_extension="org.inkscape.output.svg.inkscape">
  <defs
     id="defs3331">
    <inkscape:perspective
       sodipodi:type="inkscape:persp3d"
       inkscape:vp_x="0 : 128 : 1"
       inkscape:vp_y="0 : 1000 : 0"
       inkscape:vp_z="256 : 128 : 1"
       inkscape:persp3d-origin="128 : 85.333333 : 1"
       id="perspective238" />
  </defs>
  <sodipodi:namedview
     id="base"
     pagecolor="#ffffff"
     bordercolor="#666666"
     borderopacity="1.0"
     inkscape:pageopacity="0.0"
     inkscape:pageshadow="2"
     inkscape:zoom="0.25730405"
     inkscape:cx="706.74832"
     inkscape:cy="143.85808"
     inkscape:document-units="px"
     inkscape:current-layer="layer1"
     inkscape:window-width="1920"
     inkscape:window-height="1001"
     inkscape:window-x="-9"
     inkscape:window-y="-9"
     showgrid="false"
     fit-margin-top="0"
     fit-margin-left="0"
     fit-margin-right="0"
     fit-margin-bottom="0"
     inkscape:window-maximized="1"
     showguides="true"
     inkscape:guide-bbox="true" />
  <metadata
     id="metadata3334">
    <rdf:RDF>
      <cc:Work
         rdf:about="">
        <dc:format>image/svg+xml</dc:format>
        <dc:type
           rdf:resource="http://purl.org/dc/dcmitype/StillImage" />
        <dc:title />
      </cc:Work>
    </rdf:RDF>
  </metadata>
  <g
     inkscape:label="Layer 1"
     inkscape:groupmode="layer"
     id="layer1"
     transform="translate(-128,347.43167)">
    <rect
       y="-347.43167"
       x="128"
       height="600"
       width="900"
       id="rect6609"
       style="fill:#cd212a;fill-opacity:1;fill-rule:evenodd;stroke:none;stroke-width:0.88082318999999998;stroke-linecap:round;stroke-linejoin:round;stroke-miterlimit:4;stroke-dasharray:none;stroke-dashoffset:1;stroke-opacity:1" />
    <g
       id="g3155"
       transform="matrix(0.99603825,0,0,0.99603794,-1384.64,-326.28717)"
       style="stroke:none">
      <g
         transform="matrix(0.75044506,0,0,1,159.09199,10.0678)"
         style="fill:#ffff00;stroke:none"
         id="g4945" />
      <g
         transform="matrix(1.110444,0,0,1.110444,-27.611,-42.75995)"
         id="g5410"
         style="stroke:none">
        <g
           id="g4986"
           style="stroke:none">
          <g
             id="g4784"
             style="stroke:none">
            <path
               sodipodi:nodetypes="ccccccccccccccccc"
               inkscape:connector-curvature="0"
               id="path4703-1-7-4-3-8"
               d="m 1865.9489,142.49019 c -25.5903,-11.76356 -48.293,-28.85038 -66.649,-49.805523 -18.3408,20.990453 -41.0144,38.048223 -66.6173,49.755593 31.15,34.95265 50.0681,81.06956 50.0681,132.01954 -50.6307,0.41454 -96.8263,-18.57507 -131.8727,-49.79045 -11.786,25.38779 -28.7576,47.83923 -49.584,65.93844 20.9929,18.27163 38.0992,40.9808 49.9012,66.59844 35.0048,-31.12168 81.0757,-49.99817 131.5555,-49.99815 0,50.49213 -18.8857,96.57325 -49.959,131.59169 25.6095,11.79766 48.2608,28.86156 66.5822,49.76793 18.317,-20.97008 40.9534,-38.00723 66.5384,-49.75684 -31.098,-34.9928 -49.9988,-81.09053 -49.9988,-131.60278 50.4556,-2e-5 96.5066,18.85846 131.5541,49.92465 11.8719,-25.65456 29.0044,-48.36616 49.8776,-66.65394 -20.9619,-18.15277 -37.9142,-40.63588 -49.6377,-65.91162 -35.007,31.33364 -81.1848,50.30717 -131.794,49.89263 0,-50.90566 18.885,-96.98595 50.0354,-131.96961 z"
               style="fill:#ffffff;fill-opacity:1;stroke:#cd212a;stroke-width:2.71236849;stroke-miterlimit:4;stroke-opacity:1;stroke-dasharray:none" />
            <path
               inkscape:connector-curvature="0"
               id="path4901"
               d="m 1815.0844,91.649777 c 0,8.699793 -7.0525,15.752353 -15.7523,15.752353 -8.6998,0 -15.7523,-7.05256 -15.7523,-15.752353 0,-8.69977 7.0525,-15.75232 15.7523,-15.75232 8.6998,0 15.7523,7.05255 15.7523,15.75232 z"
               style="fill:#ffffff;stroke:#cd212a;stroke-width:2.71236849;stroke-miterlimit:4;stroke-opacity:1;stroke-dasharray:none" />
            <path
               inkscape:connector-curvature="0"
               id="path4901-7"
               d="m 1815.0844,489.60357 c 0,8.69977 -7.0525,15.75232 -15.7523,15.75232 -8.6998,0 -15.7523,-7.05255 -15.7523,-15.75232 0,-8.69976 7.0525,-15.75231 15.7523,-15.75231 8.6998,0 15.7523,7.05255 15.7523,15.75231 z"
               style="fill:#ffffff;stroke:#cd212a;stroke-width:2.71236849;stroke-miterlimit:4;stroke-opacity:1;stroke-dasharray:none" />
            <path
               inkscape:connector-curvature="0"
               id="path4901-6"
               d="m 1600.3551,274.87436 c 8.6999,0 15.7525,7.05257 15.7525,15.75234 0,8.69978 -7.0526,15.75233 -15.7525,15.75233 -8.6998,0 -15.7522,-7.05255 -15.7522,-15.75233 0,-8.69977 7.0524,-15.75234 15.7522,-15.75234 z"
               style="fill:#ffffff;stroke:#cd212a;stroke-width:2.71236849;stroke-miterlimit:4;stroke-opacity:1;stroke-dasharray:none" />
            <path
               inkscape:connector-curvature="0"
               id="path4901-7-1"
               d="m 1998.309,274.87436 c 8.6998,0 15.7522,7.05257 15.7522,15.75234 0,8.69978 -7.0524,15.75233 -15.7522,15.75233 -8.6999,0 -15.7525,-7.05255 -15.7525,-15.75233 0,-8.69977 7.0526,-15.75234 15.7525,-15.75234 z"
               style="fill:#ffffff;stroke:#cd212a;stroke-width:2.71236849;stroke-miterlimit:4;stroke-opacity:1;stroke-dasharray:none" />
            <path
               inkscape:connector-curvature="0"
               id="path4901-7-1-9"
               d="m 1852.0184,133.51524 c 4.3498,-7.53425 13.9839,-10.11566 21.5181,-5.76576 7.5343,4.34988 10.1155,13.98384 5.7657,21.51807 -4.3498,7.53422 -13.9839,10.11563 -21.518,5.76576 -7.5343,-4.3499 -10.1158,-13.98386 -5.7658,-21.51807 z"
               style="fill:#ffffff;stroke:#cd212a;stroke-width:2.71236849;stroke-miterlimit:4;stroke-opacity:1;stroke-dasharray:none" />
            <path
               inkscape:connector-curvature="0"
               id="path4901-7-1-9-2"
               d="m 1719.3671,133.51524 c 4.35,-7.53425 13.9839,-10.11566 21.5182,-5.76576 7.5341,4.34988 10.1156,13.98384 5.7658,21.51807 -4.35,7.53422 -13.9839,10.11563 -21.5182,5.76576 -7.534,-4.3499 -10.1155,-13.98386 -5.7658,-21.51807 z"
               style="fill:#ffffff;stroke:#cd212a;stroke-width:2.71236849;stroke-miterlimit:4;stroke-opacity:1;stroke-dasharray:none" />
            <path
               inkscape:connector-curvature="0"
               id="path4901-7-1-9-7"
               d="m 1853.6765,431.98053 c 4.35,-7.53421 13.9839,-10.11564 21.5182,-5.76574 7.5341,4.34987 10.1156,13.98385 5.7658,21.51808 -4.35,7.53423 -13.9839,10.11565 -21.5182,5.76576 -7.5342,-4.3499 -10.1156,-13.98387 -5.7658,-21.5181 z"
               style="fill:#ffffff;stroke:#cd212a;stroke-width:2.71236849;stroke-miterlimit:4;stroke-opacity:1;stroke-dasharray:none" />
            <path
               inkscape:connector-curvature="0"
               id="path4901-7-1-9-2-9"
               d="m 1721.0254,431.98053 c 4.3498,-7.53421 13.9837,-10.11564 21.518,-5.76574 7.5343,4.34987 10.1156,13.98385 5.7658,21.51808 -4.3499,7.53423 -13.984,10.11565 -21.5181,5.76576 -7.5343,-4.3499 -10.1156,-13.98387 -5.7657,-21.5181 z"
               style="fill:#ffffff;stroke:#cd212a;stroke-width:2.71236849;stroke-miterlimit:4;stroke-opacity:1;stroke-dasharray:none" />
            <path
               inkscape:connector-curvature="0"
               id="path4901-7-1-9-7-5"
               d="m 1642.226,237.94035 c -7.5343,-4.34987 -10.1155,-13.98389 -5.7657,-21.5181 4.3498,-7.53423 13.9839,-10.11565 21.518,-5.76576 7.5343,4.3499 10.1158,13.98386 5.7658,21.51809 -4.3499,7.53422 -13.984,10.11563 -21.5181,5.76576 z"
               style="fill:#ffffff;stroke:#cd212a;stroke-width:2.71236849;stroke-miterlimit:4;stroke-opacity:1;stroke-dasharray:none" />
            <path
               inkscape:connector-curvature="0"
               id="path4901-7-1-9-2-9-4"
               d="m 1642.226,370.5916 c -7.5343,-4.34988 -10.1155,-13.98384 -5.7657,-21.51809 4.3498,-7.53421 13.9839,-10.11563 21.518,-5.76574 7.5343,4.3499 10.1158,13.98386 5.7658,21.51807 -4.3499,7.53426 -13.984,10.11565 -21.5181,5.76576 z"
               style="fill:#ffffff;stroke:#cd212a;stroke-width:2.71236849;stroke-miterlimit:4;stroke-opacity:1;stroke-dasharray:none" />
            <path
               inkscape:connector-curvature="0"
               id="path4901-7-1-9-7-5-3"
               d="m 1940.6911,237.94035 c -7.5343,-4.34987 -10.1155,-13.98389 -5.7657,-21.5181 4.3498,-7.53423 13.9839,-10.11565 21.518,-5.76576 7.5343,4.3499 10.1158,13.98386 5.7658,21.51809 -4.3499,7.53422 -13.9838,10.11563 -21.5181,5.76576 z"
               style="fill:#ffffff;stroke:#cd212a;stroke-width:2.71236849;stroke-miterlimit:4;stroke-opacity:1;stroke-dasharray:none" />
            <path
               inkscape:connector-curvature="0"
               id="path4901-7-1-9-2-9-4-1"
               d="m 1940.6911,370.5916 c -7.5343,-4.34988 -10.1155,-13.98384 -5.7657,-21.51809 4.3498,-7.53421 13.9839,-10.11563 21.518,-5.76574 7.5343,4.3499 10.1158,13.98386 5.7658,21.51807 -4.3499,7.53426 -13.9838,10.11565 -21.5181,5.76576 z"
               style="fill:#ffffff;stroke:#cd212a;stroke-width:2.71236849;stroke-miterlimit:4;stroke-opacity:1;stroke-dasharray:none" />
          </g>
        </g>
      </g>
    </g>
  </g>
</svg>
