<?xml version="1.0" encoding="utf-8"?>
<!-- Generator: Adobe Illustrator 19.0.0, SVG Export Plug-In . SVG Version: 6.00 Build 0)  -->
<svg version="1.1" id="Layer_1" xmlns="http://www.w3.org/2000/svg" xmlns:xlink="http://www.w3.org/1999/xlink" x="0px" y="0px"
	 viewBox="0 0 3628.4 2177" style="enable-background:new 0 0 3628.4 2177;" xml:space="preserve">
<style type="text/css">
	.st0{fill:#006633;}
	.st1{fill:#EA5B0C;}
	.st2{fill:#FFFFFF;}
</style>
<rect id="XMLID_3_" x="0" y="1088.7" class="st0" width="3628.3" height="1088.5"/>
<rect id="XMLID_1_" x="0" y="0.2" class="st1" width="3628.3" height="1088.5"/>
<g id="XMLID_5_">
	<g id="XMLID_2_">
		<path id="XMLID_227_" class="st2" d="M1273.2,1209.5c0.6-44.1,0.5-88.2,9.4-131.7c0.6-2.8,0.5-6.3,2.3-8c9-8.8,8.2-20.5,10.7-31.4
			c2.9-12.8,7.2-25.3,11.9-37.6c7.7-20.3,16.2-40.3,24.4-60.4c9.5-23.1,22.4-44,38.9-62.9c13.8-15.8,25-33.9,39.1-49.4
			c16.4-18.1,34.6-34.6,52.2-51.5c5.7-5.4,11.7-10.7,18.2-15.1c19.2-13.1,38.8-25.6,58.2-38.4c2.4-1.6,5.3-2.7,7-4.8
			c10.7-13.1,26.4-16.2,41.1-21.4c7.9-2.8,15.4-6.9,23.3-9.9c24.9-9.3,46.4-26.6,73.7-30.3c12.4-1.7,24.4-6.7,36.8-8.1
			c22.8-2.6,45.7-3.8,68.6-5c2.8-0.1,5.8,3.8,8.7,5.9c-2.2,2.7-4,6.5-6.8,7.9c-22.5,10.5-45.7,19.6-67.6,31.1
			c-16.9,8.9-32.5,20.6-48.4,31.3c-15.4,10.3-30.7,20.6-45.6,31.6c-5.7,4.2-10.1,10.3-15,15.6c-18.5,19.7-37.7,38.8-55,59.5
			c-11.6,13.9-20.6,30.1-30.3,45.5c-4.4,6.9-7.5,14.6-11.8,21.5c-20.6,33-30,69.9-36.9,107.5c-4.4,24.1-7.5,48.5-9.9,72.9
			c-2.7,28.1,1,56,5.8,83.7c0.8,4.3,1.7,8.7,1.8,13.1c0.4,24.7,7.3,47.6,19.4,69c1.4,2.5,2.8,5,3.7,7.7
			c9.6,29.2,26.8,54.6,42.5,80.5c9.8,16.3,23.1,30.6,35.9,44.9c17.7,19.8,34.7,41,55.3,57.4c17.3,13.8,33.6,30.5,56.2,37.5
			c10.3,3.2,19.5,9.8,29.2,14.7c26.1,13.2,53.7,21.4,82.3,27.4c15.1,3.2,29.5,9.9,44.6,12.2c37.9,5.7,76,4.9,114.2,1.7
			c16.6-1.4,32.9-3.4,48.9-7.7c6.4-1.7,13-2.8,19.2-5c16.6-5.9,32.8-13.1,49.7-18.2c20.4-6.1,36.6-19.5,53.9-30.5
			c27.5-17.5,54.2-36.6,79.3-57.4c17.2-14.3,31.6-32.3,46.3-49.4c12.6-14.8,23.8-30.7,35.4-46.2c3-4,5.6-8.3,7.4-12.9
			c8.4-20.5,18.7-39.7,33.4-56.7c4.9-5.7,8.1-13.5,10.3-20.9c5.8-19.6,10.2-39.5,15.9-59.1c1.1-3.8,5.8-6.6,8.9-9.8
			c2.4,2.6,5.3,4.8,7,7.8c1.9,3.2,3.6,7.1,3.6,10.7c0,34.5,4.3,69-8.1,102.9c-6.5,17.8-7.1,37.8-12,56.3
			c-7.8,29.5-18.5,58-34.1,84.6c-9.3,15.9-16.2,33.2-24.2,50c-1.1,2.3-1.5,5-2.9,7c-9.7,13.9-19.4,27.8-29.4,41.5
			c-14.3,19.5-28.8,38.8-43.2,58.1c-0.8,1-1.4,2.2-2.3,3c-15.1,14.6-29.3,30.3-45.6,43.3c-19.9,15.7-41.3,29.6-62.6,43.3
			c-15.3,9.8-31.9,17.5-47.2,27.3c-35.4,22.8-75.8,31.1-115.9,39.6c-28.2,6-57.2,10.5-86,11.6c-44.6,1.7-89.6,3.4-133.8-3.4
			c-24.1-3.7-47.3-12.7-71-19.3c-3.6-1-7.2-2.3-10.7-3.8c-27-11.9-54-23.6-80.8-35.9c-6.5-3-11.7-8.5-18-12.1
			c-27.5-15.6-56-29.3-78.1-53.1c-12.2-13.1-25.5-25.1-39-36.8c-7.1-6.1-16.1-10-23.3-16c-5.4-4.5-9.9-10.4-13.9-16.3
			c-12.4-18.1-23.4-37.4-36.8-54.7c-21.9-28.4-35.5-60.7-48.5-93.5c-5.4-13.7-8.9-28.2-13.5-42.2c-5.4-16.4-10.7-32.9-16.7-49.1
			c-7.6-20.5-8.7-41.9-9.6-63.3C1272.9,1227.8,1273.2,1218.7,1273.2,1209.5z"/>
		<path id="XMLID_226_" class="st2" d="M1977,1317c-24.2-1.4-55.3-9.9-85.5-25.5c-21.4-11.1-42.1-22.9-61-37.3
			c-18.1-13.9-34.5-30.2-51.5-45.5c-13-11.8-25.9-23.7-38.6-35.8c-2.6-2.5-4.8-5.9-5.9-9.3c-5.1-17-16.1-30.1-28.9-41.4
			c-4.8-4.3-12.3-6.2-18.9-7.7c-17.5-4-33.8-9.6-40.5-28.3c-2.2-6.2-2.3-13.3-2.5-20c-0.4-10.8,0.1-21.7-0.1-32.6
			c0-3.8-1.2-7.5-1.1-11.3c0.3-11.5,6.3-17.2,17.8-17.5c1.6,0,3.3-0.4,4.7,0.1c18.4,7.6,38.2,5.4,57.3,8.3
			c18.8,2.9,29.8,23.4,22.6,41.5c-10.3,25.9-2,37.8,16,53.5c1.9,1.7,4,3.2,5.7,5c18.1,19,39.3,33.8,62.5,46.1
			c9.4,5,18.4,10.8,27.7,15.9c22,11.9,44.1,9.5,65.4-1.2c22.3-11.3,36.7-29.9,48-52.2c9.5-18.7,15.4-37.8,17.2-58.4
			c0.7-8.1,1.1-16.3,1.2-24.5c0.4-30.2,0.7-60.4,1-90.5c0.3-33.9,3.4-68.2,0.1-101.8c-3.7-37.1-24.7-64.5-61.2-77.8
			c-1.8-0.6-4.1-0.7-5.3-1.9c-3-2.8-7.9-6.4-7.6-9.2c0.4-3.7,4.4-8.2,8-10.1c24-12.8,49.2-23.1,71.6-39
			c11.2-7.9,15.7-19.4,20.9-30.7c1-2.2,0.6-5.9-0.6-8.1c-6.4-12.3-12.8-24.6-19.9-36.5c-8.6-14.3-10.5-29.7-7.8-45.6
			c1.8-10.5,5.4-20.7,8.7-30.9c1.1-3.4,3.4-6.8,6-9.4c46.6-47.3,118.9-35.9,155.6,9c12.5,15.4,13.7,34.9,8.6,54.1
			c-4.8,18.2-11.7,35-28,46.7c-7.7,5.5-8.6,15.3-2.2,21.8c10.3,10.4,21.3,20.3,33.1,29c18.6,13.9,38.7,25.8,57.1,40.1
			c11.7,9.1,10.6,17.4-0.7,27.4c-15.3,13.6-30.3,27.4-45.8,40.7c-9.4,8.1-10.6,19.3-11.1,30.1c-1.8,40-3.1,80-3.9,120
			c-1,48.6-0.9,97.1-2.2,145.7c-1.1,38.9-8.3,76.3-25.1,112.4c-14,30.1-34.2,52.4-62.8,68.3C2048.6,1307.7,2014.2,1317.6,1977,1317z
			"/>
	</g>
</g>
</svg>
