<svg height="600" width="1200" xmlns="http://www.w3.org/2000/svg"><g transform="translate(349.71429 -224.36218)"><path d="m-349.71429 224.36218h1200v600h-1200z" fill="#fff"/><path d="m-349.71429 374.36218h1200v450h-1200z" fill="#c8102e"/><path d="m-349.71429 524.36218h1200v300h-1200z" fill="#ffc72c"/><path d="m-349.71429 674.36218h1200v150h-1200z"/><path d="m256.27825 431.78406c-62.76283 0-113.61861 38.74697-113.61861 86.53231s50.85578 86.50568 113.61861 86.50568 113.64524-38.72034 113.64524-86.50568-50.88241-86.53231-113.64524-86.53231z" fill="#fff"/><g transform="matrix(.85227273 0 0 .85227273 -51.662339 121.78078)"><path d="m286.57143 420.07646c1.89108 1.88725 2.68527 4.58355-2.07143 4.57143l-4 1.5-3.57143 5-1.78571 3.57143c-.68018-.42177-.64649 6.2989 2.36736 9.57115l10.48978 5.07171-1.72874 3.5749-9.06662-.76214-2.41893 3.25867 5 5.35714 6.42858 2.14286 9.64285-.71429 1.07143-4.64285 4.28572 5.71428 3.57142 5 3.57143 8.57143-5 7.14286-5 5.71428-4.64285 6.78572h-7.85715l-8.21428 5.71428-4.64286 8.92857 1.78571 2.5h5l6.07143-5 11.42857-5 15.71429-4.64285 6.42857 2.14285-2.5 3.92858-8.57143 7.85714-3.57143-.35714-.35714 1.78571-5.35714 2.5v4.64286l9.64286 2.14285 29.28571-23.21428 6.42857-2.5 6.78572-3.57143 29.64285-7.5 6.42857 1.07143 5-.71429 32.5 10 15.71429-4.28571 11.07143-2.5 2.14286-2.14286.35714-1.78571 5 4.28571 5.35714 2.5 3.57143 2.5-.35714 2.85714 5.35714-1.42857 1.78571-4.28571-18.57142-10.35714-16.42858 1.78571-12.14285-29.28571-16.78572-15.35715-33.92857 7.5-27.14286 3.21429-23.92857-9.64286-7.85714-12.5-.35714-2.5-.71429-5.71428v-3.21429h-3.92857l-2.5 1.78571v4.28572l-16.78571-1.78572z" fill="#ffc72c" fill-rule="evenodd"/><path d="m311 425.43361 3.57143-3.57143v-4.64286l3.57143 3.21429.71429 5.71428.35714 3.92857-6.78572.35715z" fill="#ea9e00" fill-rule="evenodd"/><path d="m804.4375 271.34375c.0961.0278.12439.0471.1875.0625.0125-.006.0188-.0249.0312-.0312-.0472-.006-.2105-.0326-.21875-.0312zm-10.4375 13.53125c-2.29392.0227-4.23212.48212-5.3125 1.5625-.79785.79785-2.73356 1.77698-4.3125 2.15625-1.57894.37928-4.82243 1.95838-7.1875 3.53125-2.36507 1.57288-4.63301 2.875-5.0625 2.875-1.5798 0-3.54145 4.9898-2.40625 6.125 1.41001 1.41001 6.93568.19026 7.65625-1.6875.30368-.79139 1.25148-1.4375 2.09375-1.4375.84226 0 1.53125-.45 1.53125-1s.49115-1 1.09375-1 2.34788-.88134 3.875-1.96875c1.74064-1.23944 4.63124-2.04587 7.75-2.15625 4.12717-.14608 5.76505.37554 9.625 3.03125 2.55906 1.76068 4.65625 3.68041 4.65625 4.28125 0 2.21304-4.40696 9.8125-5.6875 9.8125-.7275 0-1.3125.45-1.3125 1s-.493 1-1.09375 1-2.22658.9-3.625 2-3.71792 2.01176-5.15625 2.03125c-1.43833.0195-3.75.68273-5.125 1.46875-4.29719 2.4565-14.47096 1.90118-20.65625-1.125-4.5021-2.20267-6.19438-2.51552-10.59375-2-9.75674 1.14329-13.24063 1.87652-15.21875 3.25-1.08487.75327-2.65987 1.37161-3.5 1.375-.84012.003-2.71999.62556-4.15625 1.375-3.91126 2.0409-17.68872 4.89238-23.4375 4.84375-6.39944-.0541-16.13286-2.8759-18.84375-5.4375-1.14318-1.08023-3.44375-2.64493-5.09375-3.5s-3.225-1.8205-3.5-2.15625c-.52356-.63923-3.67456-2.46731-10.6875-6.1875-3.9935-2.11845-4.25148-2.15477-5.9375-.46875-1.68603 1.68603-1.79696 1.69546-2.5-.0937-1.14547-2.91515-.99324-3.71335.46875-2.5 1.47751 1.22622 2.65625.52386 2.65625-1.5625 0-1.0005-.98084-1.17655-3.84375-.71875-2.61154.4176-4.86468.0881-6.96875-1-1.70566-.88203-4.33519-1.61499-5.875-1.625-1.53981-.01-4.80874-1.34591-7.25-3-3.73024-2.52745-4.64465-2.79284-5.78125-1.65625-2.04738 2.04738-.0961 6.01667 4.21875 8.5625 4.32215 2.55013 4.15222 4.21579-.5625 5.4375-4.26918 1.10625-5.14221 2.32636-4.4375 6.375.72041 4.13885-6.69805 9.08033-8.6875 9.84375-.089.0342-.09.0397-.15625.0625.6352 1.08407.84375 2.42232.84375 4.5625 0 3.5028.42023 4.53675 2.1875 5.3125 1.20365.52834 2.42022 1.7904 2.6875 2.8125.37432 1.43139 1.25101 1.77695 3.8125 1.53125 4.45588-.42742 4.33632-2.92603-.1875-4.09375-1.925-.4969-3.63886-1.0487-3.8125-1.21875-.17365-.17005.18708-2.20863.8125-4.53125l1.15625-4.21875 4.5.53125c4.99827.56338 4.7854 1.14565 2.71875-6.90625-1.00862-3.9297 6.47806-7.21769 14.75-6.5.88607.0769 2.68607 2.2625 4 4.875s2.74641 5.03056 3.21875 5.375c.47235.34444.55093 2.53889.15625 4.875-.52021 3.07908-.36713 4.46864.59375 5.0625.72903.45056 1.35669 2.30612 1.375 4.125.0216 2.13992.48565 3.23028 1.3125 3.0625 1.74806-.35468 2.74099 2.63401 1.34375 4.03125-.62303.62303-1.125 1.91625-1.125 2.90625 0 2.43502 3.22135 2.33038 5.5-.1875 2.58944-2.8613 3.76233-2.47088 3 1-.50892 2.3171-.27179 3.14424 1.0625 3.65625 1.73838.66708 7.90788-4.99258 11.5-10.5625 1.89396-2.93677 3.93956-2.05261 3.9375 1.71875-.001 1.90708-1.45758 4.11741-5 7.59375-5.11139 5.01604-6.45027 8.59375-3.21875 8.59375.97763 0 2.76779-.69943 4-1.5625 1.23221-.86308 3.27233-1.50521 4.5-1.40625 3.95333.31864 4.36741.0405 6.71875-4.53125 1.27294-2.475 2.69272-4.5 3.15625-4.5s.84375 1.97708.84375 4.40625c0 4.44467.9899 5.66291 4.03125 4.875 1.92821-.49953 4.50531-6.36787 5.375-12.28125.364-2.475 1.11185-5.175 1.65625-6 .85386-1.29395 1.18616-1.22527 2.53125.5 1.17498 1.50709 1.38207 3.10905.84375 6.5-1.18631 7.47273-1.07275 10.5.40625 10.5 1.72692 0 4.83044-5.68677 6.25-11.46875l1.09375-4.5 1.53125 2.9375c1.38988 2.65267 1.38851 3.34284-.21875 7.8125-1.45015 4.03271-1.53175 5.07372-.4375 5.75.7624.47119 2.1498.33053 3.25-.34375 4.87672-2.98877 6.29618-3.67376 7.84375-3.6875.97112-.009 2.57153-1.87194 3.84375-4.5 2.66073-5.49634 3.59861-6.14977 5-3.53125 1.28898 2.40848 3.28901 2.61723 5.375.53125.83236-.83237 2.81845-1.80119 4.4375-2.125 1.78835-.35767 3.48366-1.59734 4.3125-3.1875.75038-1.43962 2.1625-3.42704 3.125-4.40625.99421-1.01147 1.75-3.29282 1.75-5.28125 0-4.47038 1.24596-4.47038 3 0 .75531 1.925 1.74015 3.5 2.1875 3.5.44734 0 .8125.9.8125 2s-.45 2-1 2c-1.61239 0-1.16253 5.73702.5 6.375 2.55009.97856 1.66393 4.9419-2.03125 9.09375-1.94191 2.18189-3.41116 4.66321-3.25 5.5.46619 2.42076 3.34841 2.34496 6.0625-.15625 5.30104-4.88525 8.70372-7.8125 9.125-7.8125.24137 0 .063 1.33272-.40625 2.96875-.46921 1.63603-.97666 5.12353-1.125 7.75l-.25 4.78125 3.21875-.25c3.75709-.30172 7.15625 1.22732 7.15625 3.21875 0 .7608-1.575 2.34153-3.5 3.53125s-3.5 2.58861-3.5 3.09375c0 1.40941-2.60447 1.06855-3.90625-.5-.63767-.76834-3.44764-2.14589-6.25-3.0625-7.38114-2.41425-9.22395-3.91374-12.25-10.09375-3.00341-6.13377-6.46562-8.59272-9.0625-6.4375-.84855.70423-1.42601 1.98587-1.28125 2.875.18772 1.15303-.6629 1.71957-2.90625 1.9375-1.72991.16805-3.93841 1.18055-4.90625 2.25-2.2519 2.48832-4.08613 2.46255-5.4375-.0625-.5887-1.1-1.46617-2-1.9375-2-.47134 0-4.50967 2.05489-8.96875 4.5625-4.45907 2.5076-8.54351 4.27757-9.09375 3.9375s-1-2.36492-1-4.5-.40588-4.12825-.90625-4.4375c-1.47305-.91039-3.95836.46211-4.625 2.5625-.89732 2.82721-10.7034 11.97216-12.46875 11.625-1.03969-.20446-1.40113-1.29773-1.1875-3.5.39357-4.05727-1.31698-7.25-3.875-7.25-2.60773 0-3.52823 2.573-2.1875 6.125.89724 2.37707.71271 3.37971-1.09375 6.03125-1.1872 1.74259-3.03567 3.6484-4.09375 4.25-1.05807.60161-6.24937 5.48125-11.5625 10.84375-9.65029 9.73996-12.83178 11.51197-15.65625 8.6875-.75788-.75788-2.14268-.63885-4.71875.4375-4.10391 1.71472-4.83128 4.72116-1.875 7.71875.98304.99677 3.27531 1.81036 5.25 1.84375 3.60975.061 6.00989-1.74761 22.28125-17.0625 3.33461-3.1386 6.09389-4.85075 8.5625-5.25 4.23767-.68534 9.72217-5.44587 11.4375-9.9375.51852-1.35777 1.28555-1.63006 2.96875-1.09375 1.24021.39516 6.13417.66084 10.875.625 6.50222-.0492 9.73603-.55268 13.1875-2.125 2.51649-1.1464 5.04482-2.09375 5.625-2.09375.58017 0 1.0625-.45 1.0625-1s.60704-1 1.34375-1c.73672 0 1.84225-1.125 2.46875-2.5 1.70051-3.73222 3.89581-3.04713 7.1875 2.25 5.48782 8.83123 6.49969 9.74137 10.9375 9.625 2.22296-.0583 4.70292-.65098 5.5-1.3125 1.14254-.94823 2.19353-.8646 4.9375.4375 1.9143.9084 3.73097 2.27998 4.03125 3.0625.71925 1.87431 5.33555 1.81835 9.0625-.125 1.6365-.85333 3.88304-1.31517 4.96875-1.03125s3.88648-.3295 6.25-1.375c4.60559-2.03727 6.90573-1.56301 10.71875 2.25 2.47022 2.47023 8.22929 2.26415 9.625-.34375 1.25211-2.33959.82537-3.09268-5.25-9.25-4.02431-4.0786-4.98535-7.69332-2.03125-7.65625 2.6061.0327 9.77249 3.49124 12.15625 5.875 1.14869 1.14869 2.43125 2.03388 2.84375 1.96875 3.03213-.47876 4.14805.38054 4.4375 3.375.37155 3.84377 2.97347 4.81334 5.875 2.1875 4.43016-4.00924.34757-10.00956-7.5625-11.09375-3.03276-.41569-5.61268-1.64334-8.15625-3.90625-5.26282-4.68209-7.98739-5.1531-11.34375-1.9375-5.09785 4.88405-11.50546.29733-9.125-6.53125 1.51244-4.33859.63109-7.29225-4.5-15.09375-6.46615-9.83137-5.87771-11.89766 3.875-13.3125 2.6125-.379 4.75-1.1087 4.75-1.625s.62417-.9375 1.375-.9375 2.50783-.9 3.90625-2 3.29523-2 4.21875-2c.93904 0 2.16187-1.29658 2.78125-2.9375.60914-1.61381 1.93707-3.14463 2.9375-3.40625 3.88017-1.01469 6.40319-13.06527 3.28125-15.65625-.825-.68469-1.5-2.02133-1.5-2.96875 0-4.19744-10.11823-8.2245-17-8.15625zm-168.34375 39.71875c-.05-.0854-.10087-.16752-.15625-.25-.25316.26235-.26207.39395.15625.25zm-.15625-.25c.70809-.73378 3.17617-2.81153 3.09375-5.53125-.0854-2.81785-.44833-3.3125-2.5625-3.3125-1.78835 0-2.75212.73863-3.4375 2.6875-.80327 2.28408-.58393 3.0247 1.46875 4.6875.60118.48699 1.08426.94265 1.4375 1.46875zm24.9375-8.21875c-.62764.0406-1.25087.32576-1.875.84375-2.39693 1.98927-3.10007 7.79289-1.1875 9.90625 1.24009 1.37029 1.4889 2.90179 1 6.46875-.57765 4.21437-.46321 4.65625 1.34375 4.65625 3.66061 0 7.28125-3.78365 7.28125-7.625 0-8.15234-3.17323-14.46943-6.5625-14.25zm80.28125 13.21875c1.89451-.0325 6.29792 3.90827 6.25 5.78125-.0195.76193-.62159 2.44749-1.34375 3.75-1.30697 2.35731-1.32938 2.34734-3.96875-2.375-3.02847-5.41852-3.20639-6.35501-1.28125-7.09375.10204-.0392.21745-.0603.34375-.0625zm-55.71875 27.15625c-.84912-.0379-1.85477.3792-2.96875 1.28125-2.68 2.17013-2.97456 7.13288-.625 10.71875 2.23682 3.41383.6864 5.65603-3.375 4.84375-1.67284-.33457-5.2799.3264-8.9375 1.625-3.95962 1.40583-7.1833 1.94399-9.0625 1.53125-1.86464-.40954-3.73601-.0898-5.21875.875-1.36708.88953-4.22287 1.42313-6.96875 1.3125-3.2245-.1299-5.22382.35101-6.5625 1.5625-1.21631 1.10075-3.58862 1.74035-6.375 1.75-5.5786.0193-7.15625 1.06159-7.15625 4.59375 0 1.89295.93702 3.54298 2.875 5.09375 1.58125 1.26531 3.4026 2.30977 4.03125 2.3125 1.69905.007 2.34469-2.57292 1-3.9375-.89804-.9113-.70631-1.52709.78125-2.625 2.49629-1.84242 4.21359-1.82398 4.9375.0625.81643 2.1276 7.23359 1.86272 12.125-.5 2.2-1.06268 4.47941-1.95009 5.0625-1.96875.58309-.0187 2.45874-1.40357 4.1875-3.09375 2.8017-2.73919 3.64064-3.01871 7.71875-2.59375 2.51634.26221 5.6913 1.18453 7.03125 2.0625 3.57663 2.3435 4.79249 2.00363 8.84375-2.375 3.64545-3.94003 4.94976-9.11378 2.65625-10.53125-.55-.33992-1-2.83306-1-5.53125 0-4.12179-1.13194-6.38531-3-6.46875z" transform="translate(-349.71429 120.36218)"/><g fill="#ea9e00" fill-rule="evenodd"><path d="m450.31464 432.24825 2.82628 5.65643 1.76643-.80807.70657-.80805z" stroke="#ea9e00" stroke-width="1.058"/><path d="m432.54733 410.19964c2.77792 3.28299 1.51523 4.04061 2.77792 3.28299 1.26269-.75761 3.78807 2.52538 1.26269-.75761-2.52538-3.283-4.04061-3.283-4.04061-2.52538z"/></g></g></g></svg>
