<?xml version="1.0" encoding="utf-8"?>
<!-- Generator: Adobe Illustrator 16.0.0, SVG Export Plug-In . SVG Version: 6.00 Build 0)  -->
<!DOCTYPE svg PUBLIC "-//W3C//DTD SVG 1.1//EN" "http://www.w3.org/Graphics/SVG/1.1/DTD/svg11.dtd">
<svg version="1.1" id="Layer_1" xmlns="http://www.w3.org/2000/svg" xmlns:xlink="http://www.w3.org/1999/xlink" x="0px" y="0px"
	 width="750px" height="500px" viewBox="0 0 750 500" enable-background="new 0 0 750 500" xml:space="preserve">
<g>
	<rect fill="#F7E017" width="750" height="500"/>
	<g>
		<path d="M417,166.5c0,0-4,7.75-3.75,32.25s-5.75,38.5-9.75,43.75s-8,21,19.75,26.5s26,8.5,26,8.5S479,222.5,417,166.5z"/>
		<path d="M418.334,163.667c0,0,64,43,35,116c0,0,19.332,10.494,22.499,32.494S490,320.994,490,320.994s-3.833,0.667-4.333-4.333
			s1.667-30.325-16-43.825c0,0-4.333-2.167-3.5-6.5s22.333,13.666,22.833,40.5c0,0,10.999-6.994,6.333-24.994
			S470.5,256.343,470.5,256.343s-1.833-0.833-1.833-4s25.833,8.166,31.833,31.833c0,0,6.5-19-1.5-29.5s-29.5-13.5-29.5-13.5
			s-1.334-0.833-1.667-2.833s29.166,1.17,37,19.336c0,0,4.5-18.498-2.833-25.331S472,222,472,222s-2.833-0.985-1.5-3.818
			s24.166,1.667,34.333,10.167c0,0-1-20.496-13.5-27.162s-23.999,2.835-27.166-2.165c0,0-1.001-1.667,2.166-3s21.166-5.167,27-0.333
			c0,0-0.5-13.167-9-17.333s-37.334,10.333-33,0.833s31.167-6.497,31.167-6.497S448.001,127.138,418.334,163.667z"/>
		<path d="M395.75,253.5c0,0-29.75,37.5-47.25,48.75c0,0,7,19.75,0,27s-21,42-21,42s-22.25,2.25-31,13.5c0,0,8.25-5,14.75-4
			c0,0-4.25,8.5-2,14.75c0,0,22.75-35.75,45.5,0c0,0-1.5-11-5-13.5c0,0,3-3.25,8.25,0c0,0-1.75-5-10.5-6.75s-4-8.75,4.75-10
			s11-7,11.5-9.75c0,0-20.25,12.75-10-3.5s31.25-25.25,23.5-49.5c0,0-0.5-0.75-0.75-4.25s7.5-0.75,10.25,17.5s-3,35.25,5,61.5
			c0,0-4.75,4.25-9.75,5.25s-10.5,5-11.5,13c0,0,7.25-8,12.25-8c0,0-4.5,9-4.5,18.75c0,0,14.5-40.25,47.25-6
			c0,0-3.25-12.25-10.5-16.25c0,0,7-1.75,16.25,3.5c0,0-3.75-9.5-18.75-9.25s-7.75-9.5-1.25-10.5S425,362,426,356.75
			c0,0-18.25,13.25-19.75-1.75s1-50.25,18-49.25s10.5,20.25,1,20.75c0,0,3.5,10.25,11.5,8.25c0,0,8.5-3.75,9.25-20.75
			c0,0,8.5,11-6,24.25c0,0,4,5.75,13,4.25c0,0,5-19,0-28.25s-1.48-16.5,3.385-8s6.115,21.75,3.115,28s-4.75,23.5,13.5,20.25
			c0,0-5.25-13.75-1.25-23.5s-2.25-38.5-19.25-46.75S403,275.25,395.75,253.5z"/>
		<path d="M323.5,193c0,0-57,45.75-4.75,110.5c0,0-22.826,10.115-16.721,41.498c0,0-22.528-9.833-20.695-28
			s16.666-24.667,11.833-26.167s-17,16.667-18.167,30.167c0,0-11-8.166-9.167-20.333s22.667-26.834,12.667-26.667
			S259.334,301.5,259.334,301.5s-15.834-21.666-1.667-31.833s29.834-14.334,22.667-16.167s-25.167,7.677-34.333,17.344
			c0,0-6.667-8,0-22.667c6.667-14.667,43.667-2.833,36-11.833s-38.167,3.333-38.167,3.333S242.333,227.323,251,222
			s39,0.677,38.167-3.823s-25.333-9.999-40.333-4.332c0,0-1-12.167,11-17.333s36.666,10.167,39.333,6.167s-25-16.499-35.333-14.999
			c0,0,1.333-9.5,18-13.167S315.672,178.496,323.5,193z"/>
		<path d="M333.25,112.5c0,0,21.25-2.25,32,18c0,0,0.125-9.074,12.25-9.037c0,0-1.75-2.463-7-2.463s-3.125-7.75,5.125-10.375
			c0,0-0.75-1.375-5.125,0s-8,0.875-5.625-4.625s1.625-12.125,1.625-12.125s-2.875,8.875-6.25,10s-5.125-3.625-4.875-9.125
			c0,0-4.125,11.125-7.375,10.375s-3.125-8.5-3.125-8.5s-3.25,4.625-2,9.75s-7-3.25-7-3.25S336.875,107.375,333.25,112.5z"/>
		<path d="M361.25,136.25c0.375-3.25,3.625-8.5-10-16.75s-23.125-3.125-23.125-3.125c-18.625-2.5-19.75,7.375-19.75,7.375
			c11.875-2.75,17.75,1.875,16.625,4.875s-12.25-1.375-12.25-1.375c1.375,7.5,12,12.25,13.875,13s5.25,0.625,1.625,4.75
			s-2.875,7.875-2.875,7.875s2.125-4,7-4.375s-3.375,0.125-1,11.375s8.125,10.25,8.125,10.25c-5.5-3.875-3.875-11.125-3.25-13.25
			s1.875-3.125,2.125,0.25s4.75,6.125,4.75,6.125c-2.25-11.875,2.625-7.125,7.5-6.375S355,163.25,355,163.25
			c14.625-3.875,16.375-15.5,16.375-15.5C365.844,145.104,360.875,139.5,361.25,136.25z M347.559,125.458
			c-0.305,1.347-2.445,2.009-4.779,1.479s-3.979-2.05-3.673-3.396c0.305-1.347,2.445-2.009,4.778-1.479
			C346.22,122.591,347.865,124.112,347.559,125.458z"/>
		<path d="M389,164c0,0,1.25-0.625,1.875-3.25c0,0-4.625,0.375-7.75-4.5s-9.625-7.75-9.625-7.75s-0.166,11.375-19.083,18
			c0,0-10.167,27.25-9.167,57s6.25,20.75,5,33s6.5,25.375,6.5,25.375s0.625,1.75-1.125,1.375s-8.125-14.375-7-26.75
			c0,0,0.25-7-1.5-8.75s-4.25-21.375-4.25-27.25c0,0-11.19,30.256,2.375,48.375c0,0,0.875,2-0.5,1.5s-16.083-15.209-3.083-50.875
			c0,0-8.5-5.999-15.833-22.166c0,0-51.083,41.166-3.583,104.166c0,0,3.917-5.499,4.583-11.666s4.333-10.5,8-11.167
			s13.333-1.5,12.833,17.5c0,0,34.154-24.667,52.994-61.667S389,164,389,164z M369.125,163.5c20.875,15.125,28,32.875,28,32.875
			c-18.625-27-26.75-26.375-29.25-29.875S369.125,163.5,369.125,163.5z M396.625,218.5c0,0-20.875-32.375-26.875-34
			s4.125,11.5,5.25,15.625s14,24.125,14,28.625s3.5,10,3.5,10s-3.875-2-5.125-9.25S376.5,210,372.5,200.375
			s-7.56-13.125-7.56-13.125c-0.685,7.5,1.31,32.75,2.81,38.375s-1.25,12.376,0.5,15.46s2.583,11.999,2.833,16.832
			s3.916,7.25,3.916,7.25s-5.5,1.501-6-8.999s-4-16.167-3.167-22.167s-4.167-25.833-3.5-33.5S361,190.667,361,190.667
			c-8.667,22.333-0.875,59.083,0.125,63.458s4.5,12.5,3.25,18.875s-3.5,0-2-3.125s-2.375-7.125-6.25-35.25s2.375-44.875,4.125-52.5
			s-3.125-12.625,0-14.375s4.125,1,4.125,1c0.916,1.172,3.875,4.125,8.75,7.625s16.125,15.625,16.625,18s4.125,5.5,4.125,5.5
			s-4.5-0.5-6.125-5s-20.375-21.625-23.375-24s-2.25,5.5,4.25,9.125s28.75,34.125,29.375,37.375S396.625,218.5,396.625,218.5z"/>
	</g>
</g>
</svg>
