<?xml version="1.0" encoding="UTF-8"?>
<svg xmlns="http://www.w3.org/2000/svg" xmlns:xlink="http://www.w3.org/1999/xlink" width="360" height="216">
	<rect width="360" height="216" fill="#ffd700"/>
	<g id="c" fill="#f00" fill-rule="evenodd" stroke="#000" stroke-width="1pt">
		<path d="M 233.4319 164.1414 C 234.5706 169.0758 235.7093 167.9371 237.9867 169.0758 C 240.264 170.2145 239.5049 173.251 240.264 176.2875 C 240.3982 181.6678 242.0948 190.9342 242.6085 193.9037 C 243.1222 195.6232 240.2975 196.5607 239.7283 194.3724 C 238.9691 192.8542 238.7458 192.9883 238.3662 195.2657 C 237.9867 197.5431 235.5081 198.9272 232.8069 198.9722 C 231.3557 199.1734 234.3023 195.9806 230.5523 197.8556 L 230.2392 197.6101 C 228.6767 196.8289 231.9136 195.2657 233.8115 192.6088 C 235.7093 189.9518 236.4684 184.2583 234.9501 182.3605 C 233.4319 180.4627 232.2932 178.1853 232.2932 176.2875 C 232.2932 174.3897 230.0158 174.0101 227.7384 172.1123 C 225.461 170.2145 223.9428 169.8349 223.1837 172.4919 C 222.4245 175.1488 223.9428 177.0466 223.5632 180.0831 C 223.1837 183.1197 220.1471 182.3605 218.2493 185.0175 C 216.3515 187.6744 206.8624 195.6453 206.8624 195.6453 C 206.8624 195.6453 204.585 194.5066 204.2055 196.4044 C 203.8259 198.3022 199.8405 200.0439 198.1324 199.6642 L 197.7529 197.9226 L 194.7164 197.9226 C 194.5266 196.5941 195.855 195.6453 197.3733 193.7474 C 198.8916 191.8496 200.7894 192.6088 203.0668 191.0905 C 205.3441 189.5722 207.6215 186.5357 209.8989 183.1197 C 212.1763 179.7036 212.1763 176.6671 211.0376 175.5284 C 209.8989 174.3897 209.1398 171.7327 209.1398 171.7327 C 209.1398 171.7327 206.4828 172.1123 206.1033 169.8349 C 205.7237 167.5575 192.8185 174.0101 190.9207 175.1488 C 189.0229 176.2875 184.0886 176.6671 184.0886 176.6671 C 184.0886 176.6671 185.2273 188.054 185.6068 190.3314 C 185.9864 192.6088 186.7456 194.6963 184.0886 194.3168 C 183.709 192.2292 181.8111 192.7985 182.1907 194.8861 C 182.1907 197.9226 179.9133 199.8205 179.9133 199.8205 L 174.979 199.9097 L 174.979 197.1635 L 172.8578 198.0789 C 172.4783 197.5096 172.8914 196.2147 174.5995 194.5066 C 177.2564 192.2292 178.7747 185.7766 178.7747 183.1197 C 178.7747 180.4627 177.2564 177.4262 177.2564 177.4262 C 177.2564 177.4262 167.3877 177.0466 166.249 175.5284 C 165.1104 174.0101 165.1103 176.2875 162.833 177.8058 C 160.5556 179.324 157.5191 179.7036 155.2417 180.0831 C 152.9643 180.4627 149.1687 184.2583 146.5117 184.2583 C 143.8548 184.2583 143.8548 185.397 143.8548 187.6744 C 143.8548 189.9518 145.373 197.5988 141.9569 195.1316 C 140.4387 193.9929 143.665 200.0103 138.9204 199.8205 C 136.2635 199.8205 134.243 199.4409 135.1919 197.9226 L 133.227 198.1124 C 132.8474 196.2146 133.227 195.2657 133.9861 193.7474 C 135.1248 190.3314 139.6796 186.5357 139.6796 184.6379 C 139.6796 182.7401 141.1978 180.8423 144.2343 178.1853 C 147.2709 175.5284 150.6869 171.7327 153.3439 170.2145 C 156.0008 168.6962 154.8621 167.178 153.7234 165.6597 C 152.5847 164.1414 143.4752 155.4115 142.3365 153.5137 C 141.1978 151.6158 138.5409 154.2728 136.6431 153.8932 C 134.7452 153.5137 133.6065 157.3093 131.3292 158.0684 C 129.0518 158.8276 126.0153 158.448 124.497 157.6889 C 122.9787 156.9297 123.3583 155.4115 121.4605 153.8932 C 119.5627 152.375 119.9422 151.6158 122.2196 150.0976 C 124.497 148.5793 126.7744 143.2654 126.0153 142.1267 C 125.2561 140.988 124.8766 139.4698 126.0153 138.3311 C 127.1539 137.1924 128.2926 133.7763 128.2926 132.2581 C 128.2926 130.7398 129.4313 128.4624 130.9496 128.4624 C 132.4679 128.4624 140.4387 127.3237 142.3365 128.842 C 144.2343 130.3603 157.5191 135.6741 162.0738 135.6741 C 166.6286 135.6741 178.7746 134.5355 180.6725 135.2946 C 182.5703 136.0537 203.8259 136.0537 206.8624 135.6741 C 209.8989 135.2946 215.5924 133.0172 220.1472 133.7763 C 224.7019 134.5355 226.9793 135.2946 228.8771 137.9515 C 230.7749 140.6085 233.8114 142.5063 236.848 144.4041 C 245.1984 149.718 243.3006 160.7253 233.4319 164.1414 L 233.4319 164.1414 L 233.4319 164.1414 L 233.4319 164.1414 L 233.4319 164.1414 L 233.4319 164.1414 L 233.4319 164.1414 L 233.4319 164.1414 z"/>
		<path d="M 129.0518 128.4624 C 126.3948 125.8055 128.2926 124.2872 124.8766 125.0464 C 124.8766 128.0829 125.6357 130.3602 127.5335 131.8785 C 129.4313 133.3968 129.0518 128.842 129.0518 128.4624 L 129.0518 128.4624 z"/>
		<path d="M 231.9136 159.9662 C 238.7458 156.9297 239.1254 148.5793 229.2567 144.0246 C 219.388 139.4698 232.2932 160.3458 231.9136 159.9662 L 231.9136 159.9662 z" fill="#ffd700"/>
		<path d="M 177.636 135.2946 C 175.2876 137.5026 173.0886 140.4406 177.4006 142.1255 C 177.9004 142.3209 178.1271 142.3852 178.0662 142.9184"/>
		<path d="M 220.5267 133.7763 C 220.5267 135.2426 223.8402 138.227 225.0817 139.1837"/>
		<path d="M 220.1472 140.988 C 220.1472 143.7204 219.7068 145.5683 220.1436 148.0284 C 220.5888 150.5356 220.5442 153.1242 219.565 155.332 C 219.1762 155.5441 218.96 156.2658 218.5538 156.6504"/>
		<path d="M 162.833 160.7254 C 162.833 163.7658 165.6621 167.06 167.9743 168.9389 C 169.1405 169.8866 169.7919 171.3144 171.5024 171.755 C 171.7927 171.8297 175.5663 174.1919 175.819 174.4216 C 176.5022 175.0423 176.4061 176.3073 177.1861 177.0691"/>
		<path d="M 154.8621 167.9371 C 156.8319 169.9068 159.7495 170.9359 162.0083 172.5378 C 163.244 173.4141 164.0858 174.0522 165.6465 174.9718"/>
		<path d="M 211.2274 160.9152 C 213.0828 162.7706 214.9042 165.1162 217.0436 166.7257 C 218.7205 167.9871 221.9601 170.8976 224.0836 170.7516"/>
		<path d="M 205.3441 169.4775 C 208.0544 169.4774 210.6173 168.768 213.247 168.2866 C 213.7127 168.2014 216.5911 166.7799 216.4433 166.3582"/>
		<path d="M 208.3807 168.6962 C 210.0639 170.3795 212.0201 172.3127 213.9872 172.8805 C 215.7109 173.378 218.4059 172.3323 218.579 172.8585 C 218.7771 173.4608 220.7845 173.6626 221.4732 173.6462 C 221.5499 173.6444 223.0038 173.6351 222.8221 173.6311"/>
		<path d="M 212.9354 172.4919 C 212.9354 173.3846 213.883 174.4308 213.6991 175.1785"/>
		<path d="M 217.1106 172.8714 C 217.4855 173.6211 217.8885 174.7625 217.8702 175.5372"/>
		<path d="M 220.5938 173.9431 C 220.5938 174.2003 220.7395 175.2253 220.9063 175.4925"/>
		<path d="M 158.6357 141.9705 C 158.6357 143.7569 159.8631 145.9908 159.4169 147.7755 C 158.9706 149.5605 158.2857 150.799 158.2788 152.6488 C 158.2725 154.3494 156.2424 159.5255 155.5846 161.1928 C 155.3082 161.8932 155.7891 162.6909 156.006 163.4119"/>
		<path d="M 145.373 148.1998 C 145.373 150.5892 142.0293 152.159 140.1292 152.9185"/>
		<path d="M 141.5774 139.0902 C 139.1603 143.9243 133.0777 138.756 133.2324 143.279 C 133.258 144.0273 137.915 144.3945 137.7993 141.705"/>
		<path d="M 136.6431 143.2654 C 136.6431 144.9894 134.5284 144.83 133.5498 146.3274"/>
		<path d="M 130.9496 131.8785 C 132.0487 132.4281 134.0898 131.6809 134.931 132.2581 C 135.3665 132.557 136.1573 133.5166 136.3232 133.0151"/>
		<path d="M 126.0153 142.1267 C 127.0762 142.1267 128.4551 142.1267 128.4227 142.1267"/>
		<path d="M 131.3292 157.6889 C 134.5613 157.6889 132.985 152.0911 133.2199 151.5914"/>
		<path d="M 127.1539 151.9954 C 126.3365 153.6304 122.8688 154.611 127.2343 155.4275 C 127.4656 155.4708 128.4743 154.1692 128.295 153.8753"/>
		<path d="M 184.0886 176.2875 L 183.709 161.4845"/>
		<path d="M 231.5341 159.9662 C 225.461 161.1049 215.2128 160.3458 210.658 156.5502 C 206.1033 152.7545 199.2711 145.1632 193.9572 146.3019 C 188.6433 147.4406 182.1907 147.0611 184.8477 148.9589 C 187.5046 150.8567 191.3003 152.7545 193.5777 151.9954 C 195.855 151.2363 181.0521 150.8567 185.9864 152.7545 C 190.9207 154.6524 194.7163 155.4115 196.6142 154.2728 C 198.512 153.1341 200.0303 152.375 203.8259 155.4115 C 207.6215 158.448 214.0741 163.3823 217.8698 163.7619 C 221.6654 164.1414 233.0523 163.7619 233.0523 163.7619 L 233.9898 163.7619"/>
		<path d="M 184.4681 148.1998 C 188.4258 150.1786 191.6754 149.03 195.5443 148.5318"/>
		<path d="M 153.3439 137.1924 C 155.2417 147.061 148.7891 156.1706 146.8913 156.9297 C 144.9935 157.6889 143.4752 155.0319 143.4752 155.0319 C 143.4752 155.0319 143.4752 158.0684 144.2343 159.5867 C 144.9935 161.1049 141.9569 165.6597 141.9569 167.5575 C 141.9569 169.4553 150.6869 169.4553 149.9278 167.5575 C 149.1687 166.4189 148.03 162.2437 148.03 161.8641 C 148.7891 159.9662 161.3147 154.6523 158.2782 136.8129 C 157.1395 137.1924 155.2417 137.1924 153.3439 137.1924 L 153.3439 137.1924 z" fill="#00f"/>
		<path d="M 232.2932 194.797 C 233.9408 195.1095 236.3475 195.2657 237.9951 195.2657"/>
		<path d="M 197.3733 197.1635 C 197.7623 197.4794 199.0329 195.2088 199.5957 195.4267"/>
		<path d="M 197.3733 194.127 C 197.9799 194.127 205.0389 195.4053 204.8332 195.7264"/>
		<path d="M 174.5995 195.2657 C 177.6355 196.7837 179.673 196.3395 181.8283 194.1067"/>
		<path d="M 134.3657 194.127 C 136.5132 195.2008 138.8796 195.2656 141.2182 195.2657"/>
		<path d="M 135.5044 194.5066 C 136.2546 196.0071 135.2858 196.4106 135.5071 197.5922"/>
		<path d="M 144.4241 160.7254 L 147.8402 161.6743"/>
		<ellipse cx="146.227051" cy="169.075775" rx="1.04380035" ry="1.89781952"/>
		<path d="M 149.9278 133.0172 C 152.5847 135.2946 157.8986 133.9661 162.0738 132.8274 C 166.249 131.6887 156.3804 140.6085 145.7526 134.5355 C 135.1248 128.4624 149.5482 133.0172 149.9278 133.0172 L 149.9278 133.0172 z"/>
		<path d="M 157.5191 113.6594 C 152.7745 113.6594 150.6869 114.039 149.5482 117.0755 C 149.1686 120.4916 149.1687 126.5646 146.5117 126.9442 C 144.4241 127.7033 143.0956 128.0828 143.0956 129.2215 C 143.0956 130.55 146.3219 130.9296 147.2709 131.6887 C 148.7891 131.3092 150.6869 130.3602 151.4461 129.4113 C 152.9643 127.5135 152.9643 125.6157 152.9643 123.1485 C 152.9643 121.2507 152.5847 118.7836 154.103 117.4551 C 156.3804 115.5573 157.1395 114.039 157.5191 113.6594 L 157.5191 113.6594 L 157.5191 113.6594 z" fill="#00f"/>
		<path d="M 122.2196 114.039 C 126.7744 113.6594 129.6211 114.6083 130.9496 118.9733 C 131.3292 122.3894 135.1248 125.0464 136.2635 127.3237 C 137.4022 129.6011 130.9496 126.9442 130.1905 128.842 C 129.4313 130.7398 127.1539 122.3894 127.1539 120.8711 C 126.205 115.9368 121.8401 114.4186 122.2196 114.039 L 122.2196 114.039 z" fill="#00f"/>
		<path d="M 134.7452 141.5574 C 135.3146 142.8859 135.9005 143.4718 135.9005 143.4718" fill="none"/>
	</g>
	<use xlink:href="#c" y="-96.25"/>
</svg>