<svg xmlns="http://www.w3.org/2000/svg" width="900" height="600"><path d="M 0,0 H 900 V 600 H 0 Z"/><path d="M 0,150 H 900 V 600 H 0 Z" fill="#bf0000"/><path d="M 0,300 H 900 V 600 H 0 Z" fill="#090"/><g transform="translate(0,10.189386)"><path overflow="visible" d="m 257.6475,138.375 a 103.875,103.875 0 1 1 -207.75,0 103.875,103.875 0 1 1 207.75,0 z" style="marker:none" fill-rule="evenodd"/><path d="m 146.0205,245.0025 c -5.01,-0.504 -10.8855,-1.3725 -12.141,-1.794 a 259.47,259.47 0 0 0 -5.3955,-1.6605 c -2.226,-0.6645 -6.417,-2.2725 -9.312,-3.573 -2.895,-1.3005 -5.367,-2.364 -5.493,-2.364 -0.1275,0 -3.8295,-2.115 -8.2275,-4.698 -7.932,-4.6605 -8.025,-4.698 -11.727,-4.722 l -3.732,-0.0225 -1.275,-4.182 c -0.7035,-2.301 -1.452,-4.182 -1.665,-4.182 -0.48,0 -6.219,-1.29 -10.8645,-2.442 -1.905,-0.4725 -3.933,-1.1895 -4.5105,-1.593 -1.008,-0.705 -0.9855,-0.768 0.5595,-1.566 4.026,-2.082 10.0365,-4.029 15.2355,-4.935 6.315,-1.0995 6.7695,-1.4505 8.8035,-6.801 0.522,-1.374 1.4325,-2.9355 2.025,-3.4725 1.041,-0.942 1.155,-0.9345 3.354,0.2055 1.251,0.6495 4.872,3.0615 8.0445,5.361 11.721,8.493 16.8705,11.352 21.348,11.856 2.277,0.255 2.292,0.246 2.292,-1.4865 0,-0.96 0.5145,-2.5755 1.1415,-3.591 0.627,-1.0155 1.0305,-1.956 0.897,-2.0895 -0.135,-0.135 -1.0215,0.027 -1.9725,0.36 -2.37,0.825 -8.8425,-0.9165 -8.415,-2.265 0.2295,-0.723 -0.318,-0.93 -3.153,-1.194 -4.8345,-0.4515 -6.4545,-1.275 -6.18,-3.1455 0.225,-1.533 -0.573,-2.064 -3.1215,-2.082 -0.6105,-0.003 -2.277,-0.747 -3.705,-1.653 -2.355,-1.494 -2.565,-1.794 -2.277,-3.2385 0.27,-1.347 0.1485,-1.59 -0.786,-1.59 -1.1505,0 -5.148,-2.511 -6.399,-4.0185 -0.54,-0.6495 -0.579,-1.185 -0.156,-2.115 0.507,-1.113 0.387,-1.311 -1.1355,-1.887 -2.0925,-0.7935 -5.937,-5.616 -5.5425,-6.9525 0.192,-0.6495 -0.2595,-1.287 -1.44,-2.0325 -0.948,-0.5985 -1.8105,-1.569 -1.9185,-2.16 -0.108,-0.588 -0.5625,-1.485 -1.011,-1.9905 -0.4485,-0.5055 -0.873,-1.6605 -0.945,-2.568 -0.0705,-0.906 -0.54,-2.103 -1.0425,-2.658 -0.711,-0.786 -3.5625,-7.59 -3.5625,-8.5035 0,-0.105 0.3645,-0.1905 0.81,-0.1905 1.155,0 1.008,-0.543 -0.5985,-2.22 -1.134,-1.185 -1.4625,-2.157 -1.692,-5.0205 -0.243,-3.018 -0.156,-3.552 0.579,-3.552 0.7665,0 0.7515,-0.1995 -0.132,-1.755 -1.875,-3.2895 -1.9995,-9.0375 -0.1995,-9.0375 0.5595,0 0.69,-0.291 0.42,-0.945 -1.4295,-3.4635 -1.182,-7.8435 0.516,-9.084 0.5985,-0.438 0.7425,-1.0995 0.5025,-2.2995 -0.333,-1.6695 1.4505,-8.505 3.459,-13.251 l 0.891,-2.106 12.1095,0.3525 c 6.66,0.195 13.8705,0.3525 16.023,0.3525 h 3.915 l 1.686,2.7405 c 0.927,1.5075 2.382,4.6035 3.234,6.8805 0.852,2.277 2.0895,5.3775 2.751,6.8925 l 1.2015,2.754 -2.775,8.304 -2.775,8.304 1.218,0.9375 c 0.669,0.5145 1.371,0.942 1.56,0.948 0.855,0.03 5.8635,-5.28 5.8665,-6.2205 0.006,-1.593 1.8195,-7.08 3.7095,-11.2245 0.927,-2.0325 2.0175,-5.0685 2.424,-6.7455 0.405,-1.6755 0.915,-3.4725 1.134,-3.993 0.285,-0.672 0.15,-0.945 -0.468,-0.945 -1.098,0 -1.0995,-1.1115 -0.005,-3.6585 1.554,-3.6135 1.875,-5.1555 1.167,-5.5935 -1.5585,-0.963 4.752,-10.95 10.5615,-16.7145 3.765,-3.7335 4.395,-4.146 6.825,-4.4685 3.6795,-0.4875 9.6,0.171 11.9025,1.3245 1.05,0.5265 3.924,1.1325 6.3855,1.3485 3.249,0.2835 4.563,0.615 4.791,1.212 0.174,0.4515 -0.513,2.355 -1.524,4.2315 -1.9455,3.6045 -3.12,4.422 -6.3765,4.437 -1.4445,0.006 -4.3755,0.7965 -5.3325,1.44 -0.0795,0.0525 0.8535,2.2575 2.0745,4.8975 1.404,3.036 2.214,5.556 2.2035,6.8565 -0.009,1.131 0.4605,3.171 1.044,4.533 1.0965,2.559 1.788,4.983 2.7285,9.564 0.3,1.464 1.2255,4.014 2.055,5.6655 0.8325,1.6515 1.6905,4.095 1.911,5.4315 0.405,2.463 2.7645,8.1045 4.1295,9.87 0.7125,0.9225 0.8025,0.915 1.9695,-0.171 1.545,-1.44 1.3305,-2.925 -1.584,-11.013 -1.575,-4.365 -2.0325,-6.33 -1.7655,-7.554 0.483,-2.211 4.755,-12.2145 6.87,-16.089 l 1.695,-3.1035 h 31.647 l 1.389,3.1035 c 1.776,3.969 2.853,7.944 2.862,10.5585 0.003,1.1325 0.2865,2.583 0.63,3.225 1.3155,2.4585 1.53,4.893 0.6345,7.2615 -0.4755,1.26 -1.0755,2.2935 -1.332,2.2935 -0.255,0 0.0195,0.486 0.6135,1.08 1.71,1.71 1.5285,6.9375 -0.318,9.1305 -1.35,1.605 -1.3575,1.6605 -0.264,1.6605 1.023,0 1.104,0.225 0.825,2.295 -0.579,4.2705 -0.858,4.9875 -2.538,6.5325 -1.446,1.3305 -1.557,1.611 -0.8055,2.031 1.725,0.966 -0.5625,8.115 -2.826,8.835 -1.182,0.375 -1.4445,1.1445 -0.4965,1.4595 1.788,0.5955 -2.442,7.9875 -4.5705,7.9875 -0.5085,0 -0.681,0.3675 -0.4995,1.065 0.4875,1.863 -2.2905,5.8095 -4.938,7.0155 -1.8945,0.864 -2.304,1.29 -2.0745,2.163 0.354,1.353 -3.492,5.4045 -5.13,5.4045 -1.827,0 -2.805,0.5985 -2.805,1.7115 0,1.9455 -4.6365,5.2545 -7.404,5.2845 -1.2405,0.015 -1.656,0.2295 -1.455,0.756 0.1575,0.408 -0.4695,1.3695 -1.407,2.1585 -1.35,1.1355 -2.253,1.422 -4.485,1.422 -2.58,0 -2.85,0.123 -3.504,1.605 -0.8145,1.8375 -3.1305,2.7045 -7.2435,2.709 -1.8705,0.001 -2.5635,0.213 -2.5635,0.78 0,0.4275 0.2115,0.909 0.4695,1.068 0.258,0.159 0.6285,1.287 0.8235,2.505 l 0.354,2.2155 2.28,-0.3585 c 3.423,-0.537 8.334,-2.334 12.2625,-4.4865 4.2495,-2.3295 13.299,-8.3955 16.998,-11.394 1.485,-1.203 3.0795,-2.19 3.546,-2.193 0.87,-0.006 4.818,7.161 4.818,8.742 0,0.585 0.9825,1.0095 3.372,1.4595 1.8555,0.348 3.9795,0.837 4.722,1.086 0.7425,0.249 2.442,0.759 3.777,1.134 5.3865,1.5075 7.377,2.262 9.309,3.5295 1.113,0.729 2.0235,1.521 2.0235,1.7595 0,0.24 -3.096,1.188 -6.8805,2.112 -11.139,2.7165 -10.638,2.4255 -12.3255,7.1415 -0.798,2.232 -1.599,4.2255 -1.7805,4.428 -0.18,0.204 -1.893,0.042 -3.8055,-0.36 -3.423,-0.717 -3.525,-0.705 -6.4755,0.7995 -1.65,0.84 -5.544,3.0045 -8.655,4.8105 -3.1125,1.806 -6.096,3.285 -6.633,3.285 -0.5355,0 -1.9125,0.4785 -3.06,1.065 -3.222,1.6425 -16.068,5.76 -20.085,6.438 -3.852,0.6495 -17.1195,1.1685 -20.685,0.81 z m 79.0545,-37.0035 -4.8555,-1.338 -2.97,-0.8175 4.074,-4.2225 4.0725,-4.2225 4.0215,0.465 c 2.2125,0.2565 5.2965,0.477 6.855,0.4905 1.5585,0.0135 2.8335,0.207 2.8335,0.4305 0,0.759 -3.624,5.505 -5.865,7.68 -2.403,2.3325 -4.11,2.6535 -8.166,1.5345 z m -152.43,-3.486 c -1.9155,-2.04 -3.711,-4.35 -3.993,-5.1375 -0.4905,-1.3755 -0.426,-1.44 1.7355,-1.7295 1.236,-0.165 4.1685,-0.465 6.516,-0.666 l 4.2675,-0.3645 4.095,4.362 4.0965,4.362 -2.1585,0.555 a 96.165,96.165 0 0 1 -5.1255,1.11 c -1.6335,0.303 -3.6405,0.702 -4.461,0.885 -1.32,0.291 -1.896,-0.099 -4.9725,-3.3765 z m 140.9625,-2.2245 c -0.816,-1.41 -2.115,-3.594 -2.8875,-4.857 l -1.404,-2.295 1.563,-1.482 c 0.858,-0.816 2.382,-2.6355 3.384,-4.0455 1.0035,-1.41 2.022,-2.5635 2.265,-2.5635 0.243,0 1.0545,0.9105 1.803,2.0235 l 3.1755,4.7175 1.8135,2.694 -1.146,1.638 c -1.059,1.515 -6.381,6.735 -6.8655,6.735 -0.1185,-0.001 -0.8835,-1.155 -1.701,-2.565 z m -125.697,-1.092 c -3.75,-4.0065 -4.413,-5.217 -3.6465,-6.6465 1.065,-1.992 5.5365,-8.0445 5.9415,-8.0445 0.2085,0 1.05,0.9105 1.8735,2.025 0.822,1.1115 2.34,2.9145 3.3705,4.005 l 1.875,1.9815 -2.901,4.6275 c -1.596,2.5455 -3.1725,4.6275 -3.5025,4.629 -0.33,0 -1.686,-1.1595 -3.0105,-2.577 z m 146.07,-4.212 a 142.9965,142.9965 0 0 0 -4.182,-0.5055 c -1.707,-0.186 -3.1035,-0.5625 -3.1035,-0.837 0,-0.2745 0.816,-1.41 1.812,-2.5245 a 38.2395,38.2395 0 0 0 3.2445,-4.3185 l 1.4325,-2.2935 h 6.4695 c 3.558,0 6.468,0.129 6.468,0.285 0,0.6645 -3.498,7.143 -4.725,8.754 -1.1925,1.5615 -1.6125,1.746 -3.837,1.68 -1.3755,-0.0405 -2.985,-0.1485 -3.579,-0.24 z M 64.485,192.5895 c -1.0875,-1.701 -2.421,-4.128 -2.9655,-5.397 L 60.531,184.887 h 6.726 c 3.7005,0 6.726,0.195 6.726,0.432 0,0.453 3.4995,5.835 5.3685,8.259 l 1.083,1.4055 -4.116,0.348 c -2.265,0.192 -5.4075,0.348 -6.987,0.348 H 66.462 Z m 158.3805,0.5625 c -0.7695,-0.8355 -2.2875,-2.7075 -3.3705,-4.158 l -1.9695,-2.64 1.212,-1.998 c 2.3955,-3.945 4.8885,-7.563 5.205,-7.557 0.18,0.005 1.1745,1.3845 2.214,3.069 1.038,1.683 2.544,3.8235 3.345,4.755 l 1.4595,1.695 -2.0985,2.658 c -1.1535,1.461 -2.6595,3.3405 -3.345,4.176 l -1.251,1.518 z m -143.025,-2.817 c -1.0815,-1.422 -2.355,-3.3375 -2.8305,-4.2555 -0.855,-1.6515 -0.84,-1.698 1.158,-4.0395 1.1115,-1.302 2.628,-3.3735 3.3705,-4.602 0.7425,-1.23 1.4805,-2.241 1.641,-2.25 0.1605,-0.007 0.9555,1.26 1.767,2.82 0.81,1.557 2.079,3.6615 2.8185,4.677 1.599,2.1945 1.3875,3.387 -1.02,5.7795 -0.9345,0.9285 -2.136,2.325 -2.67,3.102 -0.5325,0.7785 -1.26,1.401 -1.617,1.3845 -0.357,-0.018 -1.5345,-1.194 -2.6175,-2.616 z m 149.031,-9.5925 c -1.3035,-1.9815 -2.82,-4.056 -3.375,-4.608 -0.978,-0.9795 -0.978,-1.0545 0.0375,-3.006 0.573,-1.101 1.3545,-3.045 1.737,-4.323 0.3825,-1.275 0.984,-2.7165 1.3395,-3.201 0.57,-0.78 0.7875,-0.666 1.8885,0.972 0.684,1.0185 2.514,2.9445 4.065,4.281 1.782,1.533 2.736,2.748 2.5905,3.2985 -0.321,1.2075 -5.265,10.158 -5.622,10.176 -0.1605,0.009 -1.3575,-1.6065 -2.661,-3.5895 z m 5.919,3.36 c 0,-0.1545 1.137,-2.5695 2.526,-5.3655 2.8515,-5.7405 2.397,-5.472 10.2345,-6.075 l 4.497,-0.345 -2.094,5.88 -2.0955,5.88 -6.534,0.1515 c -3.594,0.084 -6.534,0.027 -6.534,-0.1275 z m -174.594,-1.89 c -0.7995,-0.324 -1.653,-2.0355 -3.078,-6.1725 l -1.9725,-5.7225 h 1.4595 c 1.521,0 10.392,1.467 10.692,1.767 0.0945,0.0945 1.266,2.529 2.6025,5.409 l 2.43,5.235 -5.514,-0.0345 c -3.033,-0.018 -6.012,-0.2355 -6.6195,-0.4815 z m 13.326,-2.3175 c -0.8925,-1.557 -2.1045,-3.96 -2.6955,-5.34 l -1.0755,-2.5095 4.3395,-4.1265 c 2.3865,-2.271 4.4055,-4.056 4.488,-3.9675 0.5145,0.555 1.881,4.5345 1.8825,5.487 0.0015,0.6315 0.444,1.875 0.9825,2.7615 l 0.981,1.614 -3.141,3.9525 c -1.728,2.175 -3.1425,4.1805 -3.1425,4.458 0,1.272 -1.14,0.258 -2.619,-2.3295 z m 167.3205,-8.841 c 0.15,-0.555 0.975,-3.2595 1.833,-6.015 1.7445,-5.61 0.72,-4.806 8.7,-6.822 4.8825,-1.2345 4.8885,-1.233 4.464,1.443 -0.705,4.4475 -2.895,10.2165 -4.0425,10.6515 -0.6,0.2265 -2.91,0.5805 -5.136,0.7875 -2.226,0.2055 -4.5075,0.507 -5.07,0.6675 -0.798,0.228 -0.963,0.0705 -0.75,-0.7125 z m -6.5925,-3.0375 c -5.247,-5.007 -4.9905,-4.2795 -3.5265,-10.035 0.702,-2.76 1.413,-5.157 1.578,-5.322 0.165,-0.165 1.2795,0.5835 2.475,1.6635 1.1955,1.08 2.4225,1.965 2.724,1.965 0.303,0 0.8145,0.579 1.137,1.29 0.324,0.708 1.1685,1.599 1.878,1.98 0.7095,0.378 1.29,0.9465 1.29,1.2615 0,1.3725 -3.444,10.0365 -3.987,10.0335 -0.33,-0.002 -1.935,-1.278 -3.57,-2.835 z m -176.451,0.894 c -1.629,-0.438 -3.117,-0.969 -3.306,-1.179 -0.726,-0.81 -3.174,-9.1065 -3.174,-10.758 0,-1.665 0.075,-1.725 1.755,-1.4325 0.963,0.168 3.6,0.8985 5.8575,1.623 l 4.104,1.3185 1.4805,4.935 c 0.8145,2.715 1.605,5.2545 1.755,5.6475 0.3765,0.984 -4.5705,0.894 -8.472,-0.1545 z m 10.485,-1.155 c -0.18,-0.8175 -0.792,-2.6235 -1.3605,-4.014 -1.7205,-4.2045 -1.5105,-4.8 3.0315,-8.6205 2.2365,-1.881 4.347,-3.42 4.6875,-3.42 0.342,0 1.1805,2.1855 1.863,4.8555 1.38,5.4 1.143,6.7485 -1.425,8.0955 -0.7515,0.3945 -2.205,1.587 -3.2265,2.652 -2.2305,2.3205 -3.1365,2.4345 -3.57,0.45 z M 240.84,157.0875 c -0.678,-0.357 -1.77,-1.14 -2.4285,-1.7385 -0.6555,-0.597 -2.2155,-1.7205 -3.465,-2.496 l -2.271,-1.4085 0.3225,-5.538 c 0.177,-3.045 0.4215,-5.6505 0.543,-5.79 0.1215,-0.1365 0.6345,0.0405 1.14,0.3945 0.5055,0.354 2.8005,1.8 5.1,3.213 2.301,1.413 4.182,2.9415 4.182,3.3975 0,2.0055 -1.1775,10.005 -1.515,10.296 -0.2055,0.177 -0.93,0.0285 -1.608,-0.33 z m 3.5805,-0.126 c 0.273,-0.519 0.816,-3.06 1.209,-5.6475 l 0.7125,-4.7025 5.055,-2.178 c 2.781,-1.197 5.28,-2.175 5.556,-2.175 0.555,0 0.69,9.1695 0.174,11.751 -0.264,1.32 -0.651,1.683 -2.0235,1.893 -0.933,0.144 -3.7605,0.6525 -6.2835,1.131 -2.523,0.48 -4.656,0.8715 -4.74,0.8715 -0.0855,0 0.069,-0.4245 0.3405,-0.9435 z m -183.927,-1.062 c -3.5595,-0.636 -9.468,-2.451 -9.831,-3.021 -0.6165,-0.9705 -0.5145,-12.78 0.111,-12.78 0.2925,0 2.8425,1.1475 5.6655,2.55 5.016,2.4915 5.1345,2.595 5.157,4.452 0.021,1.7235 0.2865,3.2235 1.365,7.7025 0.375,1.5615 0.306,1.5915 -2.4675,1.095 z m 4.1115,-1.635 c -0.1605,-0.8175 -0.4425,-2.9415 -0.627,-4.722 -0.1845,-1.7805 -0.453,-3.663 -0.597,-4.182 -0.144,-0.5205 0.0015,-0.945 0.324,-0.945 0.3225,0 1.5525,-0.609 2.733,-1.3545 A 108.456,108.456 0 0 1 71.55,140.1 l 2.97,-1.6065 0.0045,3.096 c 0.003,1.7025 0.1455,4.3095 0.318,5.7945 l 0.312,2.697 -2.88,1.5735 c -1.584,0.8655 -3.567,2.1405 -4.4055,2.8335 -2.0025,1.653 -2.91,1.59 -3.267,-0.225 z m 178.2795,-10.779 c -1.998,-1.4145 -4.3095,-2.7315 -6.8205,-3.888 -1.23,-0.5655 -2.376,-1.257 -2.55,-1.5375 -0.4035,-0.654 -1.47,-9.9645 -1.1745,-10.26 0.336,-0.336 5.8425,1.5495 6.768,2.3175 0.444,0.369 1.719,0.963 2.832,1.32 2.4675,0.7935 2.6595,1.4205 2.4525,7.9995 l -0.159,5.0025 -1.35,-0.954 z m 3.78,-5.0955 0.006,-6.1155 2.019,-1.2195 a 236.64,236.64 0 0 0 3.078,-1.89 c 3.063,-1.935 5.268,-3.1545 5.4195,-3 0.0945,0.0945 0.3375,3.21 0.54,6.918 l 0.366,6.7455 -5.283,2.16 c -2.9055,1.185 -5.478,2.238 -5.715,2.337 -0.2385,0.099 -0.432,-2.5725 -0.429,-5.9355 z m -183.468,0.2175 c 0.0075,-5.265 0.4875,-8.2215 1.335,-8.2215 0.36,0 1.725,-0.5685 3.03,-1.2615 2.727,-1.449 7.9905,-3.285 8.3595,-2.9175 0.231,0.231 -0.75,10.2885 -1.011,10.3635 -0.3975,0.114 -6.5145,3.3 -8.886,4.626 l -2.832,1.5855 z m -8.259,1.56 -5.2875,-1.9575 0.315,-4.047 c 0.171,-2.226 0.45,-5.4435 0.615,-7.149 l 0.3045,-3.102 1.4325,0.9435 c 2.4525,1.614 3.5325,2.25 5.2065,3.0645 3.7605,1.83 3.9075,2.178 3.624,8.5545 -0.1425,3.18 -0.408,5.754 -0.591,5.718 -0.1845,-0.036 -2.7135,-0.9465 -5.6205,-2.025 z m 186.597,-11.148 c -5.913,-2.796 -8.763,-4.0305 -9.3045,-4.0305 -0.312,0 -0.84,-1.638 -1.1745,-3.642 a 220.5525,220.5525 0 0 0 -0.909,-5.127 c -0.261,-1.2975 -0.132,-1.4835 1.029,-1.4835 0.7305,0 2.94,0.6075 4.911,1.35 1.9725,0.741 4.167,1.3485 4.8795,1.3485 0.9855,0 1.4295,0.4185 1.857,1.7535 0.543,1.6935 1.809,10.7085 1.542,10.9755 -0.072,0.072 -1.3455,-0.4425 -2.8305,-1.1445 z m 4.41,-3.153 c -0.186,-2.187 -0.6,-4.6665 -0.9195,-5.5095 -0.3195,-0.8415 -0.4365,-2.025 -0.2595,-2.631 0.378,-1.2945 6.594,-6.03 8.562,-6.525 1.2435,-0.312 1.389,-0.162 1.692,1.7325 0.183,1.14 0.549,3.045 0.8145,4.23 0.72,3.213 1.008,7.2855 0.516,7.2855 -0.237,0 -1.119,0.5745 -1.9575,1.275 -0.84,0.702 -2.133,1.464 -2.874,1.695 -0.7425,0.2295 -1.929,0.87 -2.637,1.422 -2.184,1.7055 -2.5755,1.3095 -2.937,-2.9745 z m -187.647,0.84 a 127.68,127.68 0 0 1 -4.7685,-2.967 l -2.301,-1.5195 0.3525,-2.7975 c 0.372,-2.9595 2.277,-9.492 2.9985,-10.2795 0.4335,-0.474 2.9805,1.2045 6.513,4.29 1.0695,0.936 2.229,1.797 2.574,1.911 0.4605,0.1545 0.411,0.855 -0.189,2.634 -0.45,1.335 -1.0005,4.104 -1.2255,6.1575 -0.225,2.055 -0.6525,3.7965 -0.9495,3.8745 -0.2955,0.078 -1.65,-0.51 -3.0045,-1.305 z m 5.643,-0.165 c 0.1545,-1.002 0.4275,-3.036 0.6045,-4.5195 0.54,-4.509 1.2645,-6.2055 2.6505,-6.2055 0.6735,0 2.55,-0.4575 4.17,-1.0155 1.6215,-0.5565 3.99,-1.1895 5.265,-1.4055 2.094,-0.3525 2.2905,-0.294 2.031,0.6105 -0.1575,0.5505 -0.5625,2.457 -0.9,4.2375 -0.858,4.521 -1.0665,5.127 -1.7715,5.127 -0.3405,0 -2.571,0.9525 -4.956,2.115 -2.385,1.1655 -5.019,2.289 -5.856,2.4975 -1.4775,0.369 -1.5135,0.327 -1.2375,-1.4415 z m 174.357,-11.286 c -1.1865,-0.243 -3.2205,-0.825 -4.5195,-1.29 -1.299,-0.465 -2.901,-0.8475 -3.561,-0.8475 -1.296,0 -2.1,-1.4505 -3.9405,-7.089 l -0.99,-3.0435 3.267,0.2535 c 4.362,0.336 9.0705,1.155 9.5115,1.6515 0.546,0.615 3.7395,9.2955 3.7395,10.1625 0,0.837 -0.321,0.855 -3.507,0.2025 z m 5.4855,-0.879 c -0.1965,-0.198 -0.366,-0.8655 -0.375,-1.485 -0.006,-0.6165 -0.693,-3.0255 -1.5225,-5.352 l -1.509,-4.2285 3.5475,-3.4605 c 1.95,-1.9035 3.8475,-3.4605 4.215,-3.4605 0.8055,0 3.501,5.775 4.4805,9.5985 0.804,3.1365 0.4005,4.0215 -2.451,5.3565 -2.352,1.1025 -4.053,2.103 -4.74,2.79 -0.69,0.69 -1.1325,0.7545 -1.6455,0.2415 z m -176.73,-2.445 c 0.282,-1.26 1.23,-3.7875 2.1015,-5.6175 1.5135,-3.171 1.695,-3.3405 3.8835,-3.645 4.2015,-0.588 10.659,-1.035 10.659,-0.741 0,0.159 -0.954,2.364 -2.1195,4.899 -2.031,4.4175 -2.205,4.623 -4.182,4.9545 -1.134,0.1905 -3.156,0.6705 -4.491,1.0665 -1.335,0.396 -3.315,0.867 -4.398,1.05 l -1.9695,0.327 0.516,-2.292 z M 60.7635,110.88 c -1.782,-1.1535 -3.663,-2.2425 -4.182,-2.421 -0.5205,-0.1785 -0.9705,-0.6 -1.002,-0.936 -0.255,-2.721 0.9255,-6.2325 3.708,-11.034 l 1.35,-2.3295 3.702,3.678 c 2.124,2.112 3.699,4.1385 3.6975,4.758 0,0.594 -0.729,2.5095 -1.6155,4.2585 -0.885,1.7475 -1.611,3.7365 -1.611,4.419 0,0.6825 -0.183,1.3455 -0.405,1.4715 -0.222,0.1275 -1.8615,-0.7125 -3.642,-1.8645 z m 170.25,-9.096 c -6.729,-0.648 -7.455,-0.921 -8.6415,-3.2505 a 46.6845,46.6845 0 0 0 -2.4585,-4.1355 l -1.395,-2.055 2.064,-0.375 c 1.137,-0.204 4.008,-0.3795 6.3825,-0.387 5.025,-0.015 4.8945,-0.123 7.9815,6.5625 1.6005,3.465 1.776,4.17 1.023,4.107 -0.501,-0.042 -2.73,-0.252 -4.9575,-0.465 z m 7.854,-1.7265 c -1.011,-2.2095 -3.918,-7.4115 -4.5975,-8.232 -0.342,-0.411 0.6225,-1.917 2.9655,-4.6305 1.911,-2.211 3.675,-4.0875 3.9225,-4.17 0.438,-0.1455 6.5835,10.6455 6.582,11.5575 0,0.4095 -3.555,3.675 -6.837,6.285 -1.206,0.957 -1.23,0.9465 -2.0355,-0.81 z M 72.2025,99.75 c 0.186,-0.513 1.41,-2.8155 2.724,-5.115 l 2.388,-4.182 h 3.924 c 2.16,0 5.064,0.156 6.456,0.345 2.964,0.408 2.9595,0.462 -0.3765,5.4255 l -2.25,3.342 -3.249,0.279 c -10.56,0.9045 -9.9795,0.9105 -9.6165,-0.0945 z m -6.858,-3.15 a 345.549,345.549 0 0 1 -3.987,-3.48 c -0.5565,-0.519 5.8845,-11.886 6.69,-11.808 0.462,0.0465 5.562,6.3015 6.327,7.764 0.672,1.284 0.585,1.575 -1.1625,3.8625 -1.038,1.3605 -2.322,3.4155 -2.853,4.566 -0.5295,1.152 -1.0875,2.1 -1.2375,2.1075 -0.15,0.008 -1.851,-1.3485 -3.777,-3.0135 z m 150.183,-7.9905 a 100.3065,100.3065 0 0 0 -2.967,-4.155 l -1.491,-1.95 2.82,-0.3255 c 6.78,-0.7815 11.7255,-1.023 11.73,-0.573 0,0.2655 1.095,2.175 2.43,4.2465 2.898,4.4955 3.066,4.344 -5.256,4.7085 l -5.79,0.252 z m -126.435,1.002 c -0.4455,-0.096 -2.952,-0.3345 -5.5695,-0.528 -5.427,-0.402 -5.3085,-0.0765 -1.932,-5.3355 2.2575,-3.516 2.301,-3.549 4.7265,-3.549 3.264,0 11.4075,1.197 11.4075,1.677 0,0.21 -0.789,1.3725 -1.7535,2.586 -0.9645,1.212 -2.319,2.9355 -3.009,3.828 -1.1745,1.518 -1.8705,1.755 -3.87,1.3215 z M 230.328,85.191 c -3.966,-5.94 -3.903,-5.3115 -1.0395,-10.2915 1.392,-2.424 2.703,-4.407 2.91,-4.41 0.468,-0.004 4.2735,4.821 6.3465,8.0475 1.1925,1.8555 1.389,2.529 0.885,3.033 -0.3555,0.357 -1.8495,2.136 -3.3195,3.954 -1.47,1.818 -2.8245,3.306 -3.0105,3.3075 -0.1875,0 -1.4355,-1.6365 -2.772,-3.6405 z M 73.677,84.921 C 72.4935,83.661 71.01,81.8805 70.3785,80.967 L 69.231,79.305 70.764,76.92 c 2.0805,-3.2385 5.88,-8.055 6.3465,-8.0445 0.7755,0.015 5.58,9.438 5.139,10.08 l -3.0405,4.452 c -1.428,2.094 -2.775,3.807 -2.991,3.807 -0.216,0 -1.359,-1.032 -2.541,-2.2935 z" fill="#653200"/><path d="m 154.641,45.141 c -0.3645,0 -0.8055,0.5505 -0.984,1.218 -0.4305,1.605 -0.4335,14.445 0,18.048 0.273,2.28 0.5505,2.859 1.359,2.859 1.167,0 1.245,-1.566 0.6555,-14.4375 -0.252,-5.5275 -0.555,-7.6875 -1.0305,-7.6875 z m 15.984,2.718 c -1.512,0.1785 -0.2235,1.056 4.266,2.1105 2.673,0.627 6.396,1.77 8.25,2.5305 14.523,5.97 23.079,11.214 31.125,19.125 4.4385,4.365 4.56,4.5195 3.093,4.6875 -1.2435,0.1425 -2.202,-0.4935 -5.391,-3.516 -6.495,-6.1575 -14.7435,-11.6745 -19.734,-13.218 -5.3655,-1.6605 -5.04,-0.666 0.984,2.859 2.226,1.302 5.22,3.285 6.657,4.407 1.437,1.1205 2.835,2.0145 3.0945,2.0145 0.6675,0 9.1395,7.5615 9.1395,8.157 0,0.27 -0.63,0.468 -1.4055,0.468 -0.9315,0 -2.3655,-0.888 -4.266,-2.625 -5.3325,-4.872 -14.01,-10.05 -15.375,-9.1875 -0.426,0.27 -0.531,0.51 -0.234,0.516 0.297,0.006 -0.3105,0.4665 -1.3125,1.0785 -2.5035,1.5255 -12.2265,9.774 -12,10.1715 0.1005,0.177 0.372,0.702 0.609,1.125 0.324,0.579 1.824,-0.6525 6.141,-4.875 3.1515,-3.084 6.0795,-5.8035 6.516,-6.0465 1.479,-0.828 5.097,1.56 13.218,8.718 l 4.5465,3.9855 6.1875,-0.33 c 10.0095,-0.57 10.1895,-0.627 11.6715,-3.5145 0.705,-1.3695 1.9065,-3.3375 2.673,-4.359 0.765,-1.023 1.4055,-2.196 1.4055,-2.5785 0,-0.9765 -8.8875,-9.7905 -12.2805,-12.1875 -3.39,-2.394 -12.801,-6.8685 -14.391,-6.8445 -1.2825,0.0195 -1.5585,-0.243 3.4695,3.2355 11.85,8.2005 18.891,14.334 18.045,15.702 -0.309,0.5025 -0.81,0.225 -1.827,-0.984 -4.602,-5.475 -29.0805,-20.517 -32.5785,-20.0145 l -1.1715,0.186 1.1715,1.08 c 0.6435,0.5955 3.4755,2.22 6.3285,3.6555 5.4915,2.763 11.25,6.798 18.4695,12.8895 5.178,4.371 7.317,6.945 6.6555,8.016 -0.348,0.564 -1.59,-0.3105 -5.2035,-3.609 -9.8595,-9.0015 -23.6655,-17.511 -32.5785,-20.109 -1.335,-0.39 -3.0075,-0.9225 -3.75,-1.173 -0.741,-0.249 -2.7855,-0.72 -4.545,-1.0305 -2.8155,-0.495 -4.7655,-0.6225 -5.673,-0.516 z m -52.5,0.0945 c -0.738,0.147 -1.9695,0.6015 -3.0945,1.1715 -1.497,0.759 -3.0945,1.407 -3.561,1.407 -1.131,0 -4.692,1.8435 -8.3445,4.311 -1.632,1.104 -4.056,2.556 -5.391,3.2355 -1.335,0.678 -3.711,2.2695 -5.2965,3.5625 -1.5855,1.2915 -3.0855,2.391 -3.282,2.3895 -0.195,0 -1.3605,0.9075 -2.625,2.064 -2.6085,2.385 -3.7605,1.9275 -1.4055,-0.564 2.418,-2.556 11.478,-9.165 16.5945,-12.093 2.556,-1.4625 4.6395,-2.8245 4.6395,-3.0465 0.005,-0.948 -2.9565,-0.276 -7.734,1.7805 -3.906,1.683 -6.429,3.3195 -10.6875,6.798 -5.388,4.3995 -9.0765,8.0595 -9.0945,9.045 -0.003,0.2625 1.194,2.574 2.673,5.157 l 2.718,4.6875 6.3285,0.657 c 3.4935,0.3705 6.726,0.7545 7.1715,0.843 1.962,0.393 2.4975,0.123 5.859,-2.859 3.9675,-3.519 12.927,-9.795 13.9695,-9.7965 0.7095,0 0.93,-1.1805 0.3285,-1.782 -0.561,-0.561 -9.5235,4.3905 -12.891,7.125 -1.6875,1.3695 -3.6,2.925 -4.266,3.4695 -0.7305,0.597 -1.866,0.906 -2.8125,0.7965 L 96.375,76.125 98.5785,74.016 c 3.36,-3.312 9.57,-7.62 16.266,-11.25 3.3375,-1.8105 6.093,-3.606 6.093,-3.9855 0,-0.885 -0.219,-0.8865 -4.0785,0.33 -5.622,1.77 -12.87,6.3855 -18.843,11.952 -3.087,2.8755 -4.584,3.75 -6.3285,3.75 -1.089,0 -0.9195,-0.3375 1.4535,-2.766 5.4,-5.5275 12.4545,-10.437 21.327,-14.9055 2.523,-1.2705 5.001,-2.2965 5.532,-2.298 0.531,0 1.98,-0.507 3.1875,-1.125 2.898,-1.4775 7.389,-2.877 12.0465,-3.75 4.113,-0.7695 5.3055,-1.3605 3.8445,-1.92 -1.1595,-0.4455 -11.6295,1.134 -14.907,2.25 -4.614,1.569 -16.473,7.41 -19.968,9.843 -8.46,5.8875 -11.2425,8.016 -13.875,10.5465 -2.427,2.331 -2.91,2.589 -3.657,1.9695 -0.771,-0.6405 -0.6165,-0.96 1.4535,-3.0945 3.45,-3.555 13.542,-10.9995 19.3125,-14.2035 2.79,-1.5495 5.658,-3.171 6.3285,-3.609 0.669,-0.438 2.2455,-1.0785 3.516,-1.4535 2.3055,-0.681 3.105,-2.016 1.4055,-2.343 a 1.4175,1.4175 0 0 0 -0.5625,0 z m 31.3125,2.577 c -0.534,0 -0.09,15.915 0.4695,16.875 0.129,0.2235 0.7155,0.375 1.311,0.375 0.78,0 1.0005,-0.258 0.798,-0.936 -0.156,-0.5205 -0.567,-3.978 -0.891,-7.689 -0.648,-7.431 -0.867,-8.625 -1.6875,-8.625 z m 10.9695,0 c -0.3375,0 -0.6105,0.6555 -0.6105,1.455 0,0.7965 -0.2655,2.802 -0.5625,4.452 -0.2955,1.65 -0.744,4.872 -0.984,7.1715 -0.387,3.7185 -0.33,4.173 0.4695,4.173 0.966,0 1.176,-1.245 1.92,-12 0.2625,-3.7845 0.2085,-5.25 -0.234,-5.25 z m -22.266,2.6745 a 0.612,0.612 0 0 0 -0.282,0.1875 c -0.3285,0.3285 2.679,9.975 4.407,14.109 0.5475,1.311 1.14,1.9215 1.9215,1.9215 0.6945,0 1.0155,-0.288 0.8445,-0.702 -2.4285,-5.832 -6.504,-15.297 -6.657,-15.4695 -0.0555,-0.0615 -0.135,-0.069 -0.234,-0.0465 z m 33.843,0.468 c -0.426,-0.147 -6.069,11.9265 -7.0305,15.048 -0.3045,0.9855 -0.198,1.218 0.7035,1.218 1.239,0 1.6995,-0.852 4.734,-9.4215 2.1555,-6.09 2.271,-6.6105 1.593,-6.8445 z m -26.9535,4.923 c -0.573,0 -0.0105,5.79 0.798,8.109 0.7425,2.13 2.3535,2.25 1.875,0.1395 -0.978,-4.3125 -2.247,-8.25 -2.6715,-8.25 z m 37.407,0 c -0.297,0 -0.516,0.2685 -0.516,0.561 0,0.294 -1.1685,1.8225 -2.5785,3.423 -5.4015,6.1335 -8.223,9.9915 -7.545,10.2645 0.3675,0.15 0.8175,0.258 1.0305,0.282 0.339,0.0375 3.4725,-3.777 5.859,-7.1715 0.4455,-0.6345 1.566,-2.2095 2.532,-3.516 1.7595,-2.385 2.223,-3.843 1.218,-3.8445 z m -55.359,0.045 c -0.5145,0.0285 0.039,1.2015 1.5465,3.189 a 97.26,97.26 0 0 1 3.0945,4.359 c 0.741,1.1265 2.0625,3.192 2.952,4.5465 1.788,2.721 1.8405,2.745 3.0945,1.782 0.774,-0.5955 0.285,-1.455 -4.5,-7.173 -2.9835,-3.561 -5.6445,-6.5565 -5.907,-6.6555 a 0.6675,0.6675 0 0 0 -0.2805,-0.0465 z m 37.641,0.516 c -0.2625,0 -0.6435,0.552 -0.798,1.2195 -0.1545,0.6675 -0.7575,2.871 -1.359,4.875 -1.0695,3.564 -1.056,3.609 -0.0465,3.609 1.0905,0 1.179,-0.2475 2.109,-5.625 0.675,-3.894 0.6945,-4.0785 0.0945,-4.077 z m -29.673,0.657 c -0.099,0.057 -0.093,0.4305 -0.093,1.1715 0,0.846 1.035,3.477 2.2965,5.8125 1.431,2.652 2.634,4.2195 3.1875,4.2195 0.7065,0 0.375,-0.954 -1.5465,-4.6875 -1.3275,-2.58 -2.766,-5.163 -3.1875,-5.766 -0.3705,-0.528 -0.558,-0.807 -0.657,-0.75 z m 39.7035,0.657 c -0.294,-0.2505 -1.17,1.2915 -3.609,5.859 -2.445,4.575 -2.685,5.25 -1.782,5.25 0.7635,0 1.629,-1.212 3.282,-4.548 1.236,-2.493 2.25,-5.0835 2.25,-5.7645 0,-0.4305 -0.0435,-0.714 -0.141,-0.798 z m -48,5.295 c -0.12,-0.03 -0.1935,0.006 -0.234,0.048 -0.324,0.3225 1.83,3.375 4.9215,6.984 1.1865,1.386 2.46,2.5215 2.8125,2.532 1.515,0.042 1.0695,-1.11 -1.4535,-3.798 -1.482,-1.578 -2.6715,-3.0675 -2.6715,-3.2805 0,-0.4905 -2.532,-2.2725 -3.375,-2.484 z m 56.109,0.423 c -0.954,-10e-4 -8.58,8.061 -8.2035,8.6715 0.573,0.927 1.368,0.468 4.173,-2.4375 3.303,-3.42 5.109,-6.2325 4.0305,-6.234 z m -63.891,0.282 c -0.114,0.015 -0.186,0.072 -0.186,0.186 0,0.279 2.7105,3.0945 6.045,6.2355 3.3375,3.1395 6.255,5.6715 6.4695,5.6715 0.2145,0 0.6675,-0.4845 0.984,-1.0785 0.369,-0.687 0.3435,-1.077 0,-1.077 -0.294,0 -1.1865,-0.606 -2.0145,-1.3605 -0.828,-0.753 -2.868,-2.5815 -4.5,-4.077 -2.649,-2.427 -5.9925,-4.6065 -6.7965,-4.5 z m -42.045,4.734 c -0.852,-0.285 -5.28,6.6195 -4.782,7.452 0.7605,1.272 3.189,4.224 3.468,4.2195 0.15,-0.003 1.194,-1.4505 2.3445,-3.234 L 80.0625,76.407 78.75,73.8765 c -0.711,-1.38 -1.536,-2.574 -1.8285,-2.6715 z m 155.625,1.734 c -0.6045,0.099 -1.1205,1.044 -2.064,2.766 l -1.266,2.25 2.1105,3.2805 c 1.1565,1.797 2.2425,3.279 2.391,3.282 0.147,0.002 0.879,-0.7695 1.6395,-1.7355 2.145,-2.715 2.253,-3.501 0.7965,-5.718 -1.95,-2.97 -2.8335,-4.2525 -3.609,-4.125 z m -113.1105,0.984 c -0.075,0.009 -0.141,0.033 -0.141,0.0945 0,0.5625 4.6395,4.389 6.984,5.7645 2.796,1.6425 3.612,1.8255 3.939,0.8445 0.129,-0.39 -1.611,-1.8225 -4.125,-3.3285 -3.813,-2.283 -6.132,-3.438 -6.657,-3.375 z m 70.125,0.657 c -0.8235,0.15 -2.601,1.017 -3.609,1.875 -0.594,0.504 -2.343,1.569 -3.891,2.343 -1.992,0.9975 -2.751,1.6305 -2.532,2.2035 0.405,1.0515 0.483,1.068 2.814,-0.516 1.0905,-0.741 2.19,-1.359 2.436,-1.359 0.612,0 5.205,-3.891 5.205,-4.407 0,-0.138 -0.15,-0.1905 -0.423,-0.1395 z m -76.4535,1.125 c -0.201,0.009 -0.2805,0.099 -0.2805,0.327 0,0.4365 1.3875,1.5525 3.093,2.439 a 140.0745,140.0745 0 0 1 7.1715,4.077 c 3.792,2.3295 4.83,2.8425 4.83,2.298 0,-0.1245 0.147,-0.609 0.327,-1.08 0.216,-0.561 0.0615,-0.843 -0.516,-0.843 -0.4815,0 -2.6745,-1.101 -4.875,-2.4375 -2.199,-1.335 -4.2195,-2.4375 -4.5,-2.4375 -0.2805,0 -1.674,-0.639 -3.0465,-1.4055 -1.203,-0.672 -1.866,-0.9525 -2.2035,-0.9375 z m 83.625,0.702 c -0.2145,-0.348 -7.0425,2.808 -11.343,5.25 -0.594,0.3375 -1.821,0.9165 -2.766,1.266 -1.119,0.414 -1.6425,0.8655 -1.4535,1.3605 0.1605,0.417 0.6855,0.795 1.125,0.795 1.0155,0 7.38,-3.5895 8.25,-4.6395 0.3615,-0.435 0.99,-0.7965 1.407,-0.7965 1.065,0 5.097,-2.724 4.7805,-3.2355 z M 87.9375,81.8925 c -1.308,0.084 -1.5765,0.5205 -2.484,2.109 l -1.266,2.157 4.5,-0.048 c 4.419,-0.009 4.461,-0.009 5.6715,-1.734 l 1.2195,-1.734 -1.5,-0.375 c -0.822,-0.1875 -2.82,-0.342 -4.4535,-0.375 -0.729,-0.015 -1.251,-0.0285 -1.6875,0 z m 125.766,1.0305 1.218,2.1105 1.266,2.1555 4.1715,0.0465 h 4.2195 L 223.4535,85.08 222.375,82.923 Z M 68.157,83.58 c -0.21,-0.072 -1.2915,1.5435 -2.391,3.5625 l -1.971,3.6525 1.9695,1.9695 c 1.095,1.095 2.133,2.0145 2.2965,2.0145 0.165,0 1.047,-1.551 1.9695,-3.42 l 1.686,-3.375 -1.593,-2.157 C 69.252,84.654 68.364,83.649 68.154,83.577 Z m 172.452,1.6395 c -0.2085,0.0735 -1.0905,1.0695 -1.968,2.25 l -1.5945,2.157 1.6875,3.0945 c 0.939,1.71 2.0505,3.135 2.4375,3.1395 0.3885,0.004 1.389,-0.7905 2.25,-1.734 L 245.016,92.439 243,88.734 c -1.101,-2.022 -2.1825,-3.588 -2.391,-3.5145 z m -81.984,2.814 a 12.033,12.033 0 0 0 -1.3125,0.093 c -2.2995,0.315 -2.9715,0.7455 -6.0465,3.891 -4.335,4.431 -6.5145,7.167 -8.391,10.452 l -1.5,2.58 h 1.5945 c 1.821,0 2.34,0.903 1.875,3.234 -0.282,1.4025 -0.15,1.593 0.8895,1.593 0.6585,0 1.824,-0.4845 2.5785,-1.0785 1.935,-1.5225 2.4675,-1.3695 3.8445,1.0785 1.08,1.923 1.4205,2.157 3.234,2.157 1.518,0 2.715,-0.5055 4.593,-1.9695 l 2.484,-1.9695 2.064,1.455 c 1.128,0.78 2.5515,1.4055 3.186,1.4055 1.14,0 1.143,-0.027 -0.42,-3.891 -0.873,-2.151 -1.9365,-4.59 -2.391,-5.391 -0.9555,-1.68 -0.78,-1.8525 3.5145,-3.141 4.0725,-1.221 3.846,-1.7715 -0.5625,-1.452 -2.226,0.1605 -4.5825,0.498 -5.25,0.7035 -0.894,0.273 -1.218,0.141 -1.218,-0.4695 0,-1.0155 1.965,-1.5075 6.75,-1.641 3.2325,-0.09 3.7275,0.0345 4.6875,1.2195 1.317,1.626 2.325,1.143 4.0785,-1.9215 2.046,-3.5775 1.8615,-3.807 -3.33,-4.08 -3.0045,-0.156 -4.899,-0.54 -5.5305,-1.077 -1.173,-0.999 -6.123,-1.86 -9.4215,-1.782 z m 1.1715,2.436 c 2.052,0 4.848,1.485 4.5,2.391 -0.51,1.332 -3.72,1.0725 -4.734,-0.375 -1.116,-1.5915 -1.0815,-2.0145 0.234,-2.0145 z m -79.875,1.08 -1.077,2.109 c -0.6,1.1745 -1.08,2.277 -1.08,2.436 0,0.1605 1.7715,0.282 3.939,0.282 h 3.9375 l 1.1715,-2.391 1.1715,-2.4375 h -8.0625 z m 140.859,1.593 1.173,2.4375 1.1715,2.4375 H 231 L 229.8285,95.58 228.657,93.1425 h -7.875 z m -160.2165,3.561 -1.6875,3.75 -1.6875,3.75 2.3445,2.016 c 1.2795,1.107 2.367,2.0055 2.436,2.0145 0.0705,0.009 0.861,-1.455 1.782,-3.2805 L 65.439,101.625 63,99.1875 60.5625,96.7035 Z m 187.686,1.641 -2.4375,2.3895 -2.391,2.391 1.125,2.9535 c 0.618,1.623 1.2615,3.141 1.407,3.375 0.243,0.3945 1.26,-0.2205 4.359,-2.6715 l 1.266,-0.9855 -1.6875,-3.75 -1.641,-3.7035 z M 77.9535,103.404 c -3.174,0.1245 -3.951,0.8145 -5.016,3.375 l -1.125,2.673 1.782,-0.375 c 0.963,-0.219 2.5725,-0.5565 3.609,-0.75 1.4955,-0.2805 2.139,-0.81 3.1395,-2.625 l 1.266,-2.2965 H 79.5 c -0.5595,0 -1.0935,-0.018 -1.5465,0 z m 149.2965,1.455 0.7035,2.061 c 0.654,1.89 0.969,2.148 3.891,3 4.6845,1.368 4.6095,1.407 3.75,-1.4535 -0.411,-1.365 -0.8805,-2.613 -1.032,-2.7645 -0.1515,-0.153 -1.8525,-0.4065 -3.7965,-0.5625 l -3.516,-0.282 z m -83.9535,2.577 c -0.1695,-0.002 -0.4245,0.1755 -0.843,0.4695 -0.633,0.4425 -1.617,1.7925 -2.157,3 l -0.984,2.202 h 1.8285 c 1.1475,0 1.9005,-0.3 2.109,-0.843 0.18,-0.4695 0.3285,-1.821 0.3285,-3 0,-1.3005 0,-1.8255 -0.282,-1.8285 z m -55.734,2.439 -1.2195,5.25 c -0.657,2.895 -1.296,5.6355 -1.452,6.0465 -0.24,0.6285 1.197,0.6645 9.093,0.3285 5.3595,-0.228 9.555,-0.6225 9.75,-0.9375 0.552,-0.885 1.5465,0.036 1.5465,1.4535 0,0.714 -1.218,3.261 -2.718,5.625 l -2.7195,4.266 1.08,2.1555 c 1.203,2.3595 1.518,2.556 5.109,3.0945 2.565,0.384 2.5665,0.3705 2.718,-1.923 0.03,-0.4455 0.2655,-0.663 0.5625,-0.516 1.065,0.534 0.3705,3.009 -1.734,6.189 -3.684,5.562 -3.63,5.3415 -1.125,6.75 2.0655,1.1595 2.3865,1.179 5.1555,0.5145 l 2.907,-0.7035 -0.3285,-1.7805 c -0.372,-1.9875 0.411,-2.4345 1.3125,-0.75 0.8355,1.56 0.6795,3.24 -0.7035,8.016 l -1.218,4.3125 1.7805,0.843 c 2.1195,1.011 2.9865,1.0875 5.7195,0.3285 1.5735,-0.4365 2.016,-0.8355 2.016,-1.782 0,-0.6675 -0.3,-1.518 -0.657,-1.875 -0.504,-0.5025 -0.4425,-0.6555 0.282,-0.6555 0.51,0 1.1625,0.645 1.452,1.407 0.6255,1.644 0.6675,9.195 0.0465,10.734 -1.191,2.958 2.22,3.174 7.689,0.468 l 3.984,-1.968 0.375,-5.391 c 0.2025,-2.955 0.234,-5.484 0.093,-5.625 -0.141,-0.141 -1.5975,0.0255 -3.2805,0.375 l -3.0945,0.657 -3.75,-4.08 c -5.1165,-5.553 -7.4535,-8.421 -7.4535,-9.093 0,-0.3105 1.0995,-4.5195 2.439,-9.3285 2.7705,-9.9525 2.8455,-8.985 -1.2195,-17.952 l -2.016,-4.4535 z m 62.391,0.657 c -0.519,0.075 -1.164,0.3585 -2.016,0.843 -1.4685,0.8355 -1.644,1.227 -1.641,3.375 0.007,4.005 0.417,4.8285 2.3445,4.8285 1.2795,0 2.0625,-0.42 3.1875,-1.8285 1.773,-2.223 1.872,-3.663 0.375,-5.766 -0.81,-1.1355 -1.386,-1.5795 -2.25,-1.4535 z m 41.2965,0.42 -3.3285,7.407 -3.3285,7.4535 2.673,8.859 2.6715,8.859 -6,6.423 C 178.2465,156.036 177.81,156.339 176.25,156 a 65.8275,65.8275 0 0 0 -3.516,-0.609 l -1.9215,-0.282 0.234,4.4535 c 0.183,4.017 0.318,4.584 1.5465,5.5785 2.97,2.4 5.742,3.5625 8.625,3.5625 h 2.8605 v -5.859 c 0,-4.602 0.1515,-6.0285 0.7965,-6.564 0.9885,-0.819 1.8285,-0.234 0.9375,0.657 -0.474,0.474 -0.18,0.924 1.2195,1.875 2.1435,1.4565 4.503,1.608 6.795,0.4215 1.551,-0.801 1.62,-0.9495 1.2675,-3.375 -0.204,-1.395 -0.9,-4.0065 -1.548,-5.8125 -0.87,-2.4255 -1.0425,-3.588 -0.6555,-4.4535 0.7575,-1.695 1.3095,-1.434 1.218,0.564 -0.0645,1.425 0.219,1.8825 1.5465,2.5305 0.888,0.4335 2.775,0.897 4.173,1.032 2.355,0.225 2.544,0.132 2.859,-1.125 0.3435,-1.3695 -0.7215,-4.1085 -2.2965,-5.907 -1.05,-1.1985 -1.785,-4.575 -1.407,-6.4695 0.438,-2.187 1.251,-1.89 0.891,0.33 -0.273,1.68 -0.15,1.917 1.1715,2.25 0.8055,0.201 2.37,0.093 3.4695,-0.2355 1.551,-0.465 2.2515,-1.122 3.093,-2.859 l 1.0785,-2.2035 -2.5785,-5.016 c -2.3175,-4.509 -2.535,-5.2095 -2.016,-6.7035 0.3195,-0.9135 0.81,-1.524 1.08,-1.359 0.288,0.18 0.258,0.6945 -0.048,1.266 -0.471,0.8805 -0.1245,0.9975 3.609,1.3125 2.259,0.1905 6.7455,0.375 9.984,0.375 5.37,0 5.862,-0.0765 5.58,-0.9375 a 798.09,798.09 0 0 0 -2.064,-6.0945 l -1.7805,-5.109 -14.5785,-0.141 -14.625,-0.1395 z m -136.1715,0.423 c -0.126,0.0225 -0.192,0.108 -0.2355,0.234 -0.462,1.353 -1.845,7.1295 -1.734,7.2195 0.063,0.048 1.332,0.822 2.8125,1.734 3.039,1.872 3.066,1.875 3.9855,-2.484 0.333,-1.584 0.501,-3.078 0.375,-3.282 -0.1275,-0.204 -1.3575,-1.131 -2.7195,-2.109 -1.32,-0.948 -2.109,-1.38 -2.484,-1.3125 z M 162,111.516 c -0.2805,0 -1.419,0.825 -2.532,1.875 l -2.0145,1.9215 2.343,2.391 c 1.9845,2.022 2.721,2.4375 4.4535,2.4375 1.9395,0 2.0985,-0.162 3.0945,-2.484 0.582,-1.3605 1.077,-2.5305 1.077,-2.625 0,-0.2955 -5.8815,-3.516 -6.4215,-3.516 z m 6.9375,0.516 c -0.315,0 -0.4185,0.2655 -0.234,0.561 0.4275,0.6915 0.7965,0.6915 0.7965,0 a 0.57,0.57 0 0 0 -0.5625,-0.561 z m 84.5625,0.75 c -0.3045,-0.306 -5.7705,3.5145 -5.766,4.0305 0.001,0.195 0.249,1.2105 0.516,2.25 0.267,1.0395 0.615,2.559 0.7965,3.375 0.183,0.816 0.4575,1.4535 0.609,1.4535 0.153,0 1.545,-0.63 3.0945,-1.407 1.548,-0.777 2.8455,-1.4505 2.907,-1.5 0.174,-0.1425 -1.869,-7.914 -2.157,-8.2035 z m -98.016,0.936 c -0.2445,0 -0.5175,0.066 -0.7035,0.141 -0.3705,0.15 -0.0375,0.234 0.705,0.234 0.741,0 1.026,-0.084 0.6555,-0.234 a 1.767,1.767 0 0 0 -0.657,-0.141 z m -10.359,0.4695 -2.4375,1.734 c -2.061,1.4805 -3.9375,3.9015 -3.9375,5.016 0,0.1635 0.801,0.282 1.782,0.282 1.3185,0 2.2455,-0.471 3.561,-1.83 1.5105,-1.557 1.719,-2.094 1.407,-3.5145 z m -68.3445,0.75 c -0.4755,0.051 -1.4835,0.2775 -2.577,0.609 -1.4595,0.4425 -3.156,0.795 -3.798,0.7965 -0.9555,0.006 -1.254,0.42 -1.545,2.298 -0.198,1.26 -0.4965,2.7645 -0.657,3.3285 -0.33,1.155 -0.135,1.113 4.6395,-0.705 1.596,-0.606 3.0045,-1.221 3.141,-1.359 0.3645,-0.363 1.314,-4.7325 1.0785,-4.968 -0.027,-0.027 -0.123,-0.0165 -0.282,0 z m 92.7195,0.891 c -0.297,0 -0.561,0.285 -0.5625,0.6555 -0.001,0.372 -0.306,1.3005 -0.7035,2.0625 -1.569,3.006 -1.512,3.93 0.4695,6.0945 2.319,2.5305 4.41,2.625 4.125,0.1875 -0.0975,-0.8325 -0.7815,-2.829 -1.5,-4.4535 -0.72,-1.6245 -1.3125,-3.3135 -1.3125,-3.75 0,-0.4365 -0.219,-0.7965 -0.516,-0.7965 z m 61.8285,0.5625 c -0.2775,0.279 0.495,4.7625 0.891,5.1555 0.315,0.315 6.918,2.799 7.593,2.859 0.243,0.0225 0.33,-0.3705 0.1875,-0.8895 a 37.506,37.506 0 0 1 -0.609,-2.907 c -0.318,-1.884 -0.48,-2.055 -4.0785,-3.234 -2.067,-0.678 -3.858,-1.1115 -3.984,-0.984 z m -76.407,1.4535 c -0.8355,0.1455 -1.6515,1.059 -3,2.859 l -1.734,2.2965 1.0785,1.8285 c 0.7755,1.3155 1.44,1.7745 2.484,1.7805 0.7875,0.005 1.8045,0.228 2.25,0.516 1.1865,0.7665 1.188,0.78 3.0945,-2.016 0.9645,-1.4145 1.7805,-2.7165 1.7805,-2.9055 0,-0.189 -1.245,-1.344 -2.7195,-2.5785 -1.545,-1.2945 -2.397,-1.9275 -3.234,-1.782 z m -7.4535,2.859 c -0.7425,0.03 -0.6915,0.1365 0.189,0.516 1.443,0.6195 1.461,0.6195 1.077,0 -0.183,-0.297 -0.7635,-0.537 -1.266,-0.516 z m 17.1105,0.516 c -0.594,0 -0.9345,0.2175 -0.75,0.5145 0.183,0.297 0.813,0.5625 1.4055,0.5625 0.594,0 0.9345,-0.2655 0.75,-0.5625 -0.183,-0.297 -0.813,-0.516 -1.4055,-0.516 z m -19.4535,0.936 a 2.085,2.085 0 0 0 -0.7035,0.33 c -1.2555,0.828 -1.722,4.275 -1.125,8.295 0.3105,2.091 0.5025,2.298 1.9215,2.298 0.873,0 2.1345,-0.54 2.8605,-1.2195 1.53,-1.434 2.676,-3.45 2.109,-3.7035 -0.2205,-0.0975 -1.32,-1.6185 -2.484,-3.327 -1.4835,-2.178 -1.9845,-2.784 -2.5785,-2.6715 z m -5.859,0.75 c -0.2445,0 -0.471,0.0195 -0.657,0.0945 -0.3705,0.15 -0.0855,0.282 0.657,0.282 0.741,0 1.074,-0.132 0.7035,-0.282 -0.186,-0.075 -0.459,-0.0945 -0.705,-0.0945 z m 24.843,1.032 c -0.7725,0.012 -4.002,4.2105 -4.4055,5.7195 -0.0945,0.3525 0.4335,1.3875 1.1715,2.295 0.975,1.2 1.7805,1.689 3,1.689 1.425,0 1.8,-0.3435 2.532,-2.0625 1.6695,-3.93 1.704,-4.413 0.093,-6.0945 -0.825,-0.8625 -1.9275,-1.554 -2.391,-1.5465 z m -24,1.032 c -1.788,0 -1.995,0.219 -3.7965,3.795 -1.0425,2.07 -1.875,3.876 -1.875,4.032 0,0.792 4.035,0.123 5.6715,-0.9375 1.746,-1.1295 1.869,-1.3935 1.875,-4.0305 v -2.859 z m -57.4215,1.6395 -0.3285,1.5945 c -0.195,0.8835 -0.1905,2.118 0,2.718 0.327,1.0275 0.762,1.08 7.9695,1.0785 h 7.6875 l 1.5,-2.6715 1.5,-2.7195 z M 52.125,126.75 c -0.0765,0.081 -0.3195,1.9455 -0.516,4.1715 l -0.375,4.032 2.625,1.1715 c 1.428,0.642 2.76,1.1925 2.9535,1.2195 0.1935,0.0255 0.4995,-1.389 0.7035,-3.141 0.2145,-1.8525 0.1245,-3.588 -0.1875,-4.1715 -0.48,-0.8955 -4.8525,-3.6555 -5.2035,-3.282 z m 121.1715,0.9375 c -0.2835,0 -0.627,0.213 -0.843,0.5625 -0.1845,0.297 0.0525,0.516 0.516,0.516 0.462,0 0.843,-0.219 0.843,-0.516 0,-0.3495 -0.2325,-0.5625 -0.516,-0.5625 z m 43.0785,0 c -5.556,0 -8.5785,0.198 -8.5785,0.5625 0,0.309 0.48,1.5435 1.0785,2.7195 l 1.125,2.109 h 16.1715 v -1.3125 c 0,-0.729 -0.312,-1.9635 -0.6555,-2.7195 l -0.609,-1.359 z M 73.593,127.782 c -2.097,1.053 -5.745,2.625 -6.1395,2.625 -0.273,0 -0.4695,1.3425 -0.4695,3 0,1.656 0.1785,2.91 0.423,2.811 a 157.59,157.59 0 0 0 3.5145,-1.5 l 3.048,-1.359 v -2.904 c 0.0045,-1.584 -0.153,-2.784 -0.375,-2.6715 z m 95.8605,0.5145 c -0.2925,0.09 -0.507,0.528 -0.7035,1.3125 -0.2595,1.035 0.06,1.9395 1.359,3.75 1.587,2.211 1.9305,2.4375 4.0785,2.4375 1.2855,0 2.3445,-0.21 2.3445,-0.468 0,-0.2595 -0.639,-1.6275 -1.407,-3 -1.026,-1.8375 -1.7145,-2.484 -2.625,-2.484 -0.681,0 -1.5525,-0.3525 -1.9215,-0.798 -0.48,-0.5775 -0.8325,-0.84 -1.125,-0.75 z m 86.25,0 -2.9535,1.9695 -2.9535,1.968 0.3285,2.7195 c 0.18,1.494 0.3255,3.132 0.3285,3.6555 0.005,0.852 0.279,0.804 2.8125,-0.468 1.5585,-0.783 2.898,-1.503 3,-1.5945 0.1005,-0.09 0.021,-1.989 -0.1875,-4.218 z m -101.3445,0.141 c -0.195,-0.006 -0.369,0 -0.516,0.0465 -1.9515,0.6195 -8.379,8.298 -11.577,13.8285 -4.5615,7.8855 -5.0745,12.294 -5.109,42.984 l -0.048,20.625 h 3.141 l 0.234,-23.859 0.1875,-23.907 1.5,-4.218 c 0.804,-2.325 1.788,-4.8795 2.2035,-5.6715 1.053,-2.0055 8.6565,-9.7965 9.5625,-9.7965 0.9735,0 6.2895,5.5665 8.2035,8.577 3.921,6.168 4.5975,11.916 4.641,41.2035 v 18.234 h 2.718 v -25.0785 c 0,-29.565 -0.342,-33.069 -3.9375,-40.4055 -1.7475,-3.5655 -7.1625,-10.518 -9.282,-11.907 -0.5895,-0.3855 -1.338,-0.6375 -1.92,-0.6555 z m 80.2035,1.0785 c -0.297,0.0735 -0.3285,0.7695 -0.3285,2.5785 V 135 l 2.859,1.4535 c 1.56,0.7845 2.958,1.434 3.141,1.4535 0.1845,0.018 0.519,-0.8565 0.7035,-1.9695 0.594,-3.5985 0.4755,-3.837 -1.9695,-4.5465 -1.26,-0.366 -2.847,-1.032 -3.5145,-1.4535 -0.4515,-0.285 -0.7125,-0.465 -0.891,-0.4215 z m -135.516,3.375 c -0.1005,0.005 -0.153,0.105 -0.234,0.234 -0.6105,0.987 1.512,5.145 2.25,4.407 0.36,-0.36 0.1275,-1.3245 -0.657,-2.8605 -0.633,-1.2435 -1.056,-1.797 -1.359,-1.7805 z m 43.1715,0.6555 -2.202,1.641 c -1.479,1.071 -3.045,1.6695 -4.5945,1.782 -1.719,0.123 -2.4,0.429 -2.5305,1.125 -0.246,1.293 1.6275,1.926 5.6715,1.968 3.168,0.033 3.354,-0.027 4.407,-1.6875 0.606,-0.957 0.9165,-1.9065 0.702,-2.0625 -0.2145,-0.156 -0.597,-0.8145 -0.891,-1.5 l -0.561,-1.266 z m 2.7195,0.609 c -0.4455,0 -0.7965,0.267 -0.7965,0.564 0,0.2955 0.351,0.5145 0.7965,0.5145 0.4455,0 0.7965,-0.219 0.7965,-0.516 0,-0.2955 -0.351,-0.561 -0.7965,-0.561 z m -9.7035,0.564 c -0.741,0 -1.359,0.2175 -1.359,0.5145 0,0.297 0.618,0.5625 1.359,0.5625 0.7425,0 1.359,-0.2655 1.359,-0.5625 0,-0.297 -0.6165,-0.516 -1.359,-0.516 z m 29.391,0 c -0.297,0 -0.516,0.2475 -0.516,0.561 0,0.315 0.219,0.4185 0.516,0.2355 0.297,-0.1845 0.5625,-0.432 0.5625,-0.5625 0,-0.132 -0.2655,-0.234 -0.5625,-0.234 z m 2.4375,0.75 c -0.2715,-0.0225 -0.42,0.1455 -0.609,0.468 -0.2475,0.42 -0.765,0.867 -1.125,0.984 -0.8175,0.267 1.9005,4.674 3.093,5.016 0.4455,0.1275 2.6025,0.186 4.8285,0.141 3.66,-0.075 4.0785,-0.195 4.0785,-1.1715 0,-0.8955 -0.426,-1.125 -2.4375,-1.266 -1.6155,-0.1125 -2.8995,-0.579 -3.7965,-1.407 -0.7425,-0.684 -1.9755,-1.6545 -2.766,-2.1555 -0.6105,-0.387 -0.9945,-0.588 -1.266,-0.609 z m 42.657,0.186 c -0.327,0.0315 -0.828,0.681 -1.548,1.9695 -1.341,2.4 -0.99,3.459 0.516,1.5465 1.3965,-1.7745 1.74,-2.634 1.3125,-3.3285 -0.075,-0.12 -0.1725,-0.1965 -0.282,-0.186 z m -127.5945,0.657 -0.375,1.875 c -0.66,3.5175 -0.6315,3.54 8.8125,3.4695 4.6845,-0.036 10.071,-0.252 12,-0.4695 3.123,-0.351 3.255,-0.396 1.0785,-0.4695 -2.5425,-0.0855 -3.834,-1.0335 -4.5465,-3.2805 -0.3465,-1.092 -0.7035,-1.125 -8.673,-1.125 z m 93.3285,0.5625 c -1.08,0 -1.641,0.258 -1.641,0.7965 0,0.54 0.561,0.7965 1.641,0.7965 1.08,0 1.593,-0.2565 1.593,-0.795 0,-0.54 -0.5145,-0.798 -1.593,-0.798 z m -73.1715,0.234 c -0.0945,0.009 -0.15,0.411 -0.141,1.0785 0.0105,0.891 0.144,1.2285 0.2805,0.7035 0.1365,-0.525 0.102,-1.275 -0.0465,-1.641 -0.0375,-0.09 -0.063,-0.144 -0.0945,-0.141 z m 1.593,0.9375 c -0.111,0.0405 -0.2055,0.324 -0.1875,0.75 0.0255,0.63 0.156,0.759 0.3285,0.3285 0.156,-0.39 0.132,-0.852 -0.0465,-1.032 -0.045,-0.045 -0.057,-0.06 -0.0945,-0.045 z m 1.5945,0 c -0.111,0.0405 -0.159,0.324 -0.141,0.75 0.0255,0.63 0.156,0.759 0.3285,0.3285 0.1545,-0.39 0.132,-0.852 -0.048,-1.032 -0.045,-0.045 -0.1035,-0.06 -0.141,-0.045 z m 105.1395,0.4215 -1.125,1.5945 c -0.6255,0.879 -1.6815,1.701 -2.343,1.8285 -0.6615,0.1275 0.852,0.297 3.375,0.375 2.523,0.0765 6.2655,0.3015 8.343,0.516 7.734,0.7935 7.362,0.882 7.1715,-1.7355 l -0.1395,-2.2965 -7.641,-0.141 z m -7.125,1.08 c -0.297,0 -0.516,0.483 -0.516,1.077 0,0.594 0.219,1.0785 0.516,1.0785 0.297,0 0.5625,-0.4845 0.5625,-1.0785 0,-0.594 -0.2655,-1.0785 -0.5625,-1.0785 z m 1.641,0 c -0.297,0 -0.5625,0.483 -0.5625,1.077 0,0.594 0.2655,1.0785 0.5625,1.0785 0.297,0 0.516,-0.4845 0.516,-1.0785 0,-0.594 -0.219,-1.0785 -0.516,-1.0785 z m -3.5625,0.2805 c -0.0975,-0.036 -0.141,0.24 -0.141,0.7965 0,0.7425 0.132,1.074 0.282,0.7035 0.15,-0.372 0.15,-0.99 0,-1.359 a 0.2445,0.2445 0 0 0 -0.141,-0.141 z m -68.532,0.516 c -0.1635,0.03 -0.234,0.207 -0.234,0.5145 0,0.7125 0.681,1.2495 1.734,1.359 0.2235,0.024 0.423,-0.1815 0.423,-0.468 0,-0.285 -0.4845,-0.807 -1.0785,-1.125 -0.4245,-0.2265 -0.6795,-0.312 -0.8445,-0.282 z m -60.375,0.2805 c -0.168,0.048 -0.393,0.261 -0.609,0.609 -0.198,0.321 -1.425,1.065 -2.7645,1.641 -2.3895,1.0245 -2.436,1.074 -2.1105,3.0465 0.183,1.107 0.3255,2.4345 0.3285,2.9535 0.0075,1.23 0.5655,1.2 3.516,-0.234 l 2.4375,-1.2195 v -3.375 c 0,-2.37 -0.2895,-3.567 -0.798,-3.4215 z m 161.58,1.5945 v 6.234 l 2.577,1.4535 c 1.4085,0.798 2.754,1.2735 3,1.0305 0.246,-0.243 0.51,-1.5705 0.5625,-2.9535 0.1005,-2.7045 0.405,-2.3835 -4.359,-4.875 l -1.782,-0.891 z m -182.625,0.045 c -0.159,0 -0.282,1.533 -0.282,3.423 v 3.4215 l 2.8125,1.125 c 4.3125,1.701 4.3815,1.668 3.9375,-1.9215 -0.2115,-1.707 -0.423,-3.102 -0.4695,-3.141 -0.3075,-0.2595 -5.769,-2.9055 -6,-2.9055 z m 79.7805,0.423 c -0.3555,0.0195 -0.651,0.2325 -1.125,0.609 -0.6045,0.48 -1.512,1.5945 -1.9695,2.484 -0.8055,1.5705 -0.777,1.641 0.8445,3.33 1.7565,1.8285 1.644,1.848 6.4215,0.6555 1.7205,-0.4305 2.112,-0.855 2.859,-3.0465 0.4725,-1.3845 0.8445,-2.577 0.8445,-2.673 0,-0.0945 -1.122,-0.186 -2.532,-0.1875 -1.41,-0.002 -3.21,-0.3 -3.984,-0.7035 -0.6075,-0.315 -1.005,-0.4875 -1.359,-0.468 z m 22.4535,0.657 c -0.642,0 -5.64,5.325 -7.266,7.734 -4.2555,6.2985 -4.5945,9.024 -4.5945,35.016 0,17.28 0.093,19.827 0.7965,19.827 0.6525,0 0.798,-0.834 0.798,-4.3125 v -4.3125 h 6.375 l 0.4215,-4.0305 0.375,-4.0785 h 7.407 v -9.141 h 7.029 v -6.891 c -0.001,-8.0955 -0.8775,-15.96 -2.016,-18.234 -2.451,-4.9005 -7.845,-11.5785 -9.3285,-11.5785 z m 22.92,0 c -0.8385,0 -1.311,0.2925 -1.311,0.795 0,0.5055 0.4725,0.798 1.3125,0.798 0.84,0 1.359,-0.2925 1.359,-0.7965 0,-0.504 -0.5205,-0.7965 -1.359,-0.7965 z m 79.08,1.218 c -0.573,0.0675 -1.722,0.438 -2.955,0.9375 -2.304,0.936 -2.994,1.455 -3,2.3445 -0.001,0.633 -0.1425,2.0745 -0.327,3.186 -0.375,2.265 -0.45,2.244 3.282,1.266 l 2.718,-0.7035 0.4695,-3.327 c 0.264,-1.8315 0.3675,-3.477 0.1875,-3.657 -0.045,-0.045 -0.1845,-0.069 -0.375,-0.0465 z M 101.109,145.5 c -1.998,-0.003 -18.057,2.118 -18.4215,2.4375 -0.105,0.09 -0.021,1.2015 0.1875,2.4375 0.327,1.9365 0.549,2.184 1.5465,1.9695 0.6375,-0.138 3.462,-0.6645 6.282,-1.173 11.712,-2.1105 11.343,-1.971 11.343,-3 0,-0.5355 0.219,-1.128 0.516,-1.3125 1.1505,-0.711 0.48,-1.356 -1.4535,-1.359 z m 67.9695,0.234 c -0.09,0.09 0.141,1.38 0.468,2.907 l 0.5625,2.8125 h 2.6715 c 1.9005,0 3.282,-0.4125 4.782,-1.359 1.155,-0.7305 2.256,-1.5825 2.4375,-1.875 0.5115,-0.828 -1.551,-1.6275 -4.125,-1.641 -1.281,-0.007 -3.2745,-0.243 -4.4535,-0.516 -1.179,-0.273 -2.2545,-0.417 -2.343,-0.3285 z m 36.468,1.407 c -0.819,0.096 -0.984,0.399 -0.984,1.266 0,1.5675 1.191,2.91 3.0465,3.375 6.969,1.749 12.213,2.7615 14.2965,2.811 2.163,0.0525 2.532,-0.075 2.8125,-1.125 0.366,-1.365 0.465,-4.218 0.141,-4.218 -0.1155,0 -3.7935,-0.4395 -8.2035,-1.032 -4.41,-0.591 -8.964,-1.0755 -10.077,-1.077 -0.447,0 -0.759,-0.033 -1.032,0 z m -101.5785,0.516 c -0.282,0 0.054,0.6165 0.75,1.359 1.311,1.395 2.205,1.728 2.205,0.843 0,-0.5805 -2.181,-2.2035 -2.955,-2.2035 z m 22.407,0.843 c -0.354,0.354 3.2385,4.032 3.9375,4.032 0.3,0 -0.393,-0.975 -1.5465,-2.157 -1.155,-1.182 -2.244,-2.022 -2.391,-1.875 z m -17.859,0.75 c -0.297,0 -0.516,0.4845 -0.516,1.0785 0,0.5925 0.219,1.125 0.516,1.125 0.297,0 0.5625,-0.5325 0.5625,-1.125 0,-0.594 -0.2655,-1.0785 -0.5625,-1.0785 z m 4.641,0.0465 c -0.129,0 -0.288,0.3405 -0.4695,1.032 -0.1545,0.5925 -0.081,1.125 0.1875,1.125 0.27,0 0.516,-0.5325 0.516,-1.125 0,-0.6915 -0.105,-1.032 -0.234,-1.032 z m -3.33,0.234 c -0.096,-0.036 -0.1395,0.24 -0.1395,0.798 0,0.741 0.132,1.074 0.282,0.7035 0.15,-0.372 0.15,-0.99 0,-1.3605 a 0.2445,0.2445 0 0 0 -0.141,-0.141 z m 1.641,0 c -0.0975,-0.036 -0.186,0.24 -0.186,0.798 0,0.741 0.1305,1.074 0.2805,0.7035 0.15,-0.372 0.15,-0.99 0,-1.3605 -0.0375,-0.093 -0.06,-0.1275 -0.0945,-0.141 z m 69.564,0.141 c -0.3045,0.072 -0.894,0.486 -1.9695,1.266 -1.26,0.915 -2.28,1.881 -2.25,2.157 0.1455,1.3545 0.2595,1.593 0.7965,1.593 0.3195,0 1.29,-0.726 2.157,-1.5945 0.867,-0.867 1.593,-2.1 1.593,-2.718 0,-0.528 -0.024,-0.774 -0.3285,-0.7035 z m 22.593,0.234 c -0.636,-0.0675 -1.749,1.0875 -1.407,1.641 0.195,0.315 0.6675,0.177 1.173,-0.3285 0.465,-0.465 0.666,-1.02 0.468,-1.218 -0.0645,-0.0645 -0.1425,-0.084 -0.234,-0.0945 z m -6.891,0.141 c -0.0975,-0.036 -0.1875,0.288 -0.1875,0.8445 0,0.741 0.132,1.0275 0.282,0.6555 0.15,-0.3705 0.15,-0.9405 0,-1.3125 -0.0375,-0.093 -0.0615,-0.1755 -0.0945,-0.1875 z m 1.5945,0.5625 c -0.0975,-0.036 -0.141,0.288 -0.141,0.8445 0,0.741 0.132,1.0275 0.282,0.6555 0.15,-0.3705 0.15,-0.9885 0,-1.359 a 0.2445,0.2445 0 0 0 -0.141,-0.141 z m 1.641,0.516 c -0.099,-0.036 -0.1875,0.288 -0.1875,0.8445 0,0.741 0.1305,1.026 0.2805,0.6555 0.15,-0.3705 0.15,-0.942 0,-1.3125 -0.0375,-0.093 -0.06,-0.1755 -0.0945,-0.1875 z m -89.7195,0.8445 c -1.755,0 -4.356,0.381 -5.8125,0.843 -1.4565,0.462 -4.6095,1.278 -6.984,1.8285 -7.4205,1.7205 -10.74,2.592 -11.7195,3 -0.969,0.405 -1.2165,2.1855 -0.609,4.4535 0.387,1.44 0.4815,1.446 4.407,0.375 1.677,-0.459 3.5175,-1.095 4.077,-1.407 0.561,-0.312 2.28,-0.909 3.798,-1.359 1.515,-0.45 3.825,-1.3815 5.1555,-2.016 1.3305,-0.6345 4.2375,-1.743 6.4695,-2.484 2.76,-0.918 4.146,-1.6545 4.2645,-2.2965 0.15,-0.813 -0.3,-0.939 -3.0465,-0.939 z m -36.1875,1.593 c -0.4755,-0.0105 -1.1775,0.654 -2.4375,1.8285 -2.388,2.223 -2.559,2.559 -2.2035,4.218 0.8715,4.0575 1.278,4.1955 4.548,1.407 1.62,-1.383 1.716,-1.671 1.359,-3.7965 -0.4245,-2.5215 -0.654,-3.6435 -1.266,-3.657 z m 122.5785,0.0465 c -0.738,0.018 -0.669,0.3255 -0.4215,1.125 0.216,0.705 0.4305,1.3065 0.468,1.3125 0.0375,0.006 1.2585,0.537 2.7195,1.2195 1.4595,0.6825 3.6165,1.59 4.827,2.016 1.212,0.423 5.244,1.8315 8.9535,3.1395 3.7095,1.3095 7.0455,2.4105 7.407,2.4375 0.36,0.0285 0.9105,-0.4095 1.218,-0.984 0.3075,-0.5745 0.5625,-1.62 0.5625,-2.3445 0,-1.2075 -0.561,-1.5195 -6.7965,-3.561 -3.738,-1.2255 -7.329,-2.247 -7.9695,-2.25 -0.6405,-0.005 -2.1405,-0.339 -3.3285,-0.75 -1.185,-0.4125 -3.558,-0.9105 -5.295,-1.125 -1.182,-0.147 -1.902,-0.246 -2.3445,-0.2355 z m 36.609,1.032 -0.984,3.0465 -0.9375,3.0465 2.2965,2.157 c 2.568,2.3955 3,2.2845 4.125,-0.984 0.834,-2.427 0.276,-3.576 -2.7195,-5.8605 z m -180.3285,2.25 v 1.1715 c 0,0.645 0.4005,2.3355 0.891,3.7035 0.873,2.4345 0.978,2.475 3.9375,3 1.6635,0.2955 3.294,0.5655 3.657,0.609 0.45,0.054 0.3015,-0.96 -0.516,-3.234 l -1.2195,-3.3285 -3.375,-0.9375 z m 58.407,1.5465 c -0.2325,0 -3.375,1.32 -6.984,2.9535 -3.612,1.632 -6.84,3 -7.173,3 -1.5045,0 -8.625,3.405 -8.625,4.125 0,0.432 0.39,1.515 0.8445,2.391 0.9855,1.9065 2.358,2.037 5.343,0.5145 1.155,-0.588 2.2695,-1.296 2.4375,-1.5465 0.1695,-0.2505 2.8365,-1.7055 5.9535,-3.234 7.386,-3.6255 9.7035,-4.935 9.7035,-5.532 a 0.519,0.519 0 0 0 -0.516,-0.516 c -0.297,0 -0.5625,-0.4845 -0.5625,-1.077 0,-0.594 -0.189,-1.0785 -0.4215,-1.0785 z m 2.391,0.234 c -0.138,-0.006 -0.285,-0.008 -0.375,0.0465 -0.855,0.5295 -0.588,1.0425 0.984,2.016 1.8165,1.128 2.2965,1.155 2.2965,0.1875 0,-0.81 -1.941,-2.202 -2.907,-2.25 z m 140.5305,0.375 c -0.435,-0.0195 -1.248,0.117 -2.109,0.375 -1.149,0.345 -2.619,0.657 -3.234,0.657 -0.6165,0 -1.251,0.234 -1.455,0.5625 -0.3495,0.5655 -2.4285,7.014 -2.25,6.984 0.048,-0.007 1.7805,-0.486 3.8445,-1.032 l 3.75,-0.984 1.032,-3.093 c 0.564,-1.692 0.8805,-3.198 0.7035,-3.375 -0.045,-0.045 -0.138,-0.087 -0.282,-0.0945 z m -131.4375,0.1875 c -0.0975,-0.036 -0.1875,0.288 -0.1875,0.8445 0,0.741 0.132,1.0275 0.282,0.6555 0.15,-0.3705 0.15,-0.9885 0,-1.359 -0.0375,-0.093 -0.0615,-0.129 -0.0945,-0.141 z m -3.516,0.282 c -0.297,0 -0.516,0.4845 -0.516,1.0785 0,0.5925 0.219,1.077 0.516,1.077 0.297,0 0.5625,-0.4845 0.5625,-1.0785 0,-0.5925 -0.2655,-1.077 -0.5625,-1.077 z m 1.875,0.2805 c -0.0975,-0.036 -0.141,0.24 -0.141,0.7965 0,0.7425 0.0855,1.0755 0.2355,0.705 0.15,-0.372 0.15,-0.99 0,-1.3605 -0.0375,-0.093 -0.0615,-0.129 -0.0945,-0.141 z m 73.9695,0.282 c -1.35,0 -3.516,1.2135 -3.516,1.968 0,0.9195 0.0915,0.909 2.391,-0.1875 1.965,-0.9375 2.502,-1.7805 1.125,-1.7805 z m -8.7195,0.093 c -0.1095,0.0405 -0.1575,0.324 -0.141,0.75 0.027,0.63 0.156,0.759 0.33,0.3285 0.1545,-0.39 0.132,-0.852 -0.048,-1.032 -0.045,-0.045 -0.105,-0.06 -0.141,-0.045 z m 11.2965,0.516 c -0.621,0.0315 -1.002,0.537 -1.5,1.5 l -0.795,1.5945 5.8575,3.5145 c 5.7885,3.4875 13.9395,7.851 14.766,7.875 0.234,0.007 0.918,-1.125 1.5,-2.484 0.5835,-1.3605 1.032,-2.538 1.032,-2.625 0,-0.087 -1.254,-0.693 -2.8125,-1.359 -1.5585,-0.6675 -4.812,-2.178 -7.2195,-3.3285 -2.4075,-1.1505 -4.614,-2.0625 -4.9215,-2.0625 -0.3075,0 -1.614,-0.621 -2.907,-1.359 -1.503,-0.8595 -2.3775,-1.2975 -3,-1.266 z m -9.609,0.1875 c -0.0975,-0.036 -0.1875,0.24 -0.1875,0.7965 0,0.7425 0.132,1.074 0.282,0.7035 0.15,-0.3705 0.15,-0.9885 0,-1.359 -0.0375,-0.093 -0.0615,-0.129 -0.0945,-0.141 z m 1.875,0.7965 c -0.297,0 -0.516,0.399 -0.516,0.8445 0,0.4455 0.219,0.7965 0.516,0.7965 0.297,0 0.5625,-0.351 0.5625,-0.7965 0,-0.4455 -0.2655,-0.8445 -0.5625,-0.8445 z m -67.4535,0.516 -3.375,0.3285 c -1.854,0.1995 -3.501,0.516 -3.702,0.7035 -0.201,0.186 -0.6285,2.6295 -0.9375,5.436 -0.435,3.9405 -0.4155,5.2305 0.093,5.58 1.083,0.7395 6.0975,0.135 7.734,-0.939 0.891,-0.5835 1.2795,-1.089 0.891,-1.218 -0.459,-0.153 -0.7035,-1.7145 -0.7035,-5.0625 z m 63,1.125 c -0.2025,0 -0.375,2.049 -0.375,4.5465 0,3.1515 -0.234,4.575 -0.702,4.734 -1.2765,0.4335 3.5805,2.577 5.2035,2.298 0.852,-0.147 2.04,-0.234 2.625,-0.234 0.9645,0 1.014,-0.285 0.702,-2.8605 -0.8745,-7.233 -0.5475,-6.675 -3.984,-7.641 -1.7055,-0.4785 -3.2655,-0.843 -3.4695,-0.843 z m -71.811,2.2965 c -0.15,-0.15 -2.109,0.906 -4.3605,2.3445 -10.362,6.6165 -15.4215,10.068 -15.4215,10.4535 0,0.54 2.7405,3.234 3.282,3.234 0.228,0 3.8985,-2.5725 8.1555,-5.7195 7.149,-5.2845 7.7445,-5.8875 8.157,-7.875 0.2445,-1.182 0.336,-2.2875 0.186,-2.4375 z m 79.92,0.1875 0.423,2.3445 c 0.33,1.95 0.9495,2.838 3.657,5.343 3.075,2.85 12.1305,9.7965 12.795,9.7965 0.171,0 0.8595,-1.116 1.5,-2.436 l 1.125,-2.391 -3.327,-2.016 c -1.845,-1.107 -4.695,-2.994 -6.3285,-4.2195 -1.632,-1.224 -3.9225,-2.8095 -5.109,-3.5145 -1.1865,-0.705 -2.7645,-1.6635 -3.4695,-2.109 l -1.2645,-0.798 z m -116.061,0.1875 -2.298,2.25 c -1.569,1.542 -2.169,2.493 -1.92,3.0945 0.288,0.699 2.925,4.896 3.093,4.9215 0.024,0.003 0.8175,-1.0965 1.7805,-2.4375 l 1.782,-2.4375 -1.2195,-2.7195 -1.218,-2.67 z m 95.6715,0.5625 c -0.297,0 -0.516,0.3525 -0.516,0.7965 0,0.4455 0.219,0.798 0.516,0.798 0.297,0 0.5625,-0.3525 0.5625,-0.7965 0,-0.4455 -0.2655,-0.798 -0.5625,-0.798 z m -38.625,0.657 c -0.111,0.0405 -0.1575,0.3225 -0.141,0.75 0.027,0.6285 0.1095,0.7575 0.282,0.3285 0.156,-0.39 0.18,-0.9 0,-1.08 -0.045,-0.045 -0.105,-0.012 -0.141,0 z m 94.9215,0.3285 -1.359,2.67 -1.3125,2.673 1.641,2.2035 c 1.833,2.5305 2.0085,2.625 3.141,1.3125 0.447,-0.519 1.1865,-1.734 1.6395,-2.6715 0.819,-1.6965 0.828,-1.6995 -1.4535,-3.939 l -2.295,-2.25 z m -96.1875,0.093 c -0.297,0 -0.5625,0.4845 -0.5625,1.0785 0,0.5925 0.2655,1.0785 0.5625,1.0785 0.297,0 0.516,-0.486 0.516,-1.08 0,-0.5925 -0.219,-1.077 -0.516,-1.077 z m 41.532,0 c -0.297,0 -0.5625,0.351 -0.5625,0.7965 0,0.4455 0.2655,0.7965 0.5625,0.7965 0.297,0 0.5625,-0.351 0.5625,-0.795 0,-0.447 -0.2655,-0.798 -0.5625,-0.798 z m -43.4535,0.7965 c -0.0975,-0.036 -0.1875,0.24 -0.1875,0.7965 0,0.7425 0.132,1.0755 0.282,0.705 0.15,-0.372 0.15,-0.99 0,-1.3605 -0.0375,-0.093 -0.0615,-0.129 -0.0945,-0.141 z m 44.766,0.516 c -0.0975,-0.036 -0.141,0.288 -0.141,0.8445 0,0.741 0.132,1.026 0.282,0.6555 0.15,-0.3705 0.15,-0.942 0,-1.3125 -0.0375,-0.093 -0.1095,-0.1755 -0.141,-0.1875 z m -51.891,0.4215 c -0.357,0.0135 -0.5655,0.171 -0.75,0.4695 -0.333,0.54 0.12,0.9 1.5945,1.359 2.718,0.846 2.7645,0.876 2.7645,0 0,-0.4215 -0.8475,-1.098 -1.9215,-1.4535 -0.7935,-0.261 -1.3305,-0.3885 -1.6875,-0.375 z m 47.5785,0.0945 A 0.207,0.207 0 0 0 171.75,169.5 c -0.192,0.192 -0.444,2.766 -0.5625,5.7195 L 171,180.5625 h 5.2965 l 1.734,-3.516 c 0.9555,-1.935 1.7355,-3.6075 1.7355,-3.75 0,-0.1425 -0.615,-0.2805 -1.3125,-0.2805 -0.699,0 -2.4,-0.855 -3.7965,-1.9215 -1.224,-0.9345 -2.37,-1.6185 -2.766,-1.641 z M 129.795,169.5 c -0.0975,-0.036 -0.141,0.24 -0.141,0.7965 0,0.7425 0.132,1.074 0.282,0.7035 0.15,-0.3705 0.15,-0.9885 0,-1.359 a 0.2445,0.2445 0 0 0 -0.141,-0.141 z m 48.0465,0 c -0.0975,-0.036 -0.186,0.24 -0.186,0.7965 0,0.7425 0.1305,1.074 0.2805,0.7035 0.15,-0.3705 0.15,-0.9885 0,-1.359 -0.0375,-0.093 -0.06,-0.129 -0.0945,-0.141 z m -42.045,0.282 c -0.132,0 -1.035,0.462 -2.016,1.0305 -0.9825,0.5685 -2.7945,1.326 -4.032,1.6875 l -2.25,0.657 0.984,2.202 c 0.54,1.221 1.227,2.934 1.5465,3.75 0.513,1.3065 0.8625,1.4535 2.955,1.4535 2.007,0 2.442,-0.192 2.718,-1.2195 0.375,-1.395 0.453,-9.561 0.093,-9.561 z m 45.843,0.5145 c -1.335,0 -2.4375,0.2655 -2.4375,0.5625 0,0.297 1.101,0.516 2.4375,0.516 1.335,0 2.4375,-0.219 2.4375,-0.516 0,-0.297 -1.1025,-0.5625 -2.4375,-0.5625 z m -122.8125,2.157 c -1.7835,0 -1.9395,0.5325 -0.7035,2.9055 0.4875,0.936 1.0545,2.0865 1.266,2.532 0.225,0.48 1.4805,0.9345 3.0465,1.125 4.986,0.603 4.728,0.843 2.9535,-2.6715 -1.6755,-3.318 -2.5695,-3.891 -6.5625,-3.891 z m 65.859,1.125 c -0.297,0 -0.516,0.351 -0.516,0.7965 0,0.4455 0.219,0.7965 0.516,0.7965 0.297,0 0.5625,-0.351 0.5625,-0.7965 0,-0.4455 -0.2655,-0.7965 -0.5625,-0.7965 z m -1.5945,0.516 c -0.2955,0 -0.561,0.4845 -0.561,1.077 0,0.594 0.2655,1.0785 0.561,1.0785 0.297,0 0.516,-0.4845 0.516,-1.0785 0,-0.5925 -0.219,-1.0785 -0.516,-1.0785 z m 125.298,0 c -0.915,-0.015 -2.148,0.09 -3.3285,0.327 -1.3665,0.273 -1.947,0.8745 -3,2.9535 -0.726,1.434 -1.359,2.748 -1.359,2.907 0,0.1575 1.551,0.2805 3.4215,0.2805 h 3.4215 l 1.032,-2.8125 c 0.5775,-1.5495 1.119,-3.003 1.218,-3.234 0.1095,-0.255 -0.492,-0.408 -1.4055,-0.4215 z m -126.657,0.795 c -0.0975,-0.0345 -0.1875,0.288 -0.1875,0.8445 0,0.7425 0.132,1.0275 0.282,0.657 0.15,-0.372 0.15,-0.99 0,-1.359 -0.0375,-0.093 -0.0615,-0.129 -0.0945,-0.141 z m -7.5465,0.282 c -0.954,0 -0.0285,1.524 1.2195,2.016 1.962,0.7755 2.295,0.765 2.295,0.141 0,-0.4695 -2.763,-2.157 -3.5145,-2.157 z m 5.907,0.234 c -0.099,-0.036 -0.141,0.288 -0.141,0.8445 0,0.7425 0.084,1.0275 0.234,0.657 0.15,-0.372 0.15,-0.942 0,-1.314 -0.0375,-0.0915 -0.06,-0.174 -0.0945,-0.186 z m 60.5145,0.189 c -0.9825,0.066 -0.648,1.395 1.032,3.75 a 109.467,109.467 0 0 1 3.516,5.295 c 0.9075,1.485 2.9625,4.479 4.593,6.705 1.6305,2.2245 3.2235,4.629 3.5625,5.295 0.7395,1.455 0.7245,1.4325 2.6715,0.282 0.8535,-0.504 1.662,-1.254 1.8285,-1.6875 0.3495,-0.912 -1.305,-3.612 -4.5945,-7.4055 -1.269,-1.4655 -3.1335,-3.9375 -4.125,-5.484 -1.9425,-3.036 -4.4325,-5.265 -7.077,-6.375 -0.621,-0.261 -1.08,-0.3975 -1.407,-0.375 z m -54.0465,0.327 c -0.6405,0.1305 -2.928,1.2285 -5.859,2.859 -1.356,0.756 -8.1855,8.7255 -9.891,11.532 -0.6435,1.059 -1.695,2.3625 -2.2965,2.907 -1.0905,0.9855 -1.059,0.984 0.6555,2.25 2.7465,2.025 3.675,1.6965 6.657,-2.3445 1.467,-1.9875 3.4215,-4.737 4.3125,-6.141 4.8975,-7.725 6.744,-10.881 6.5625,-11.0625 -0.0225,-0.0225 -0.0495,-0.018 -0.141,0 z m -14.25,0.3285 c -0.816,0 -7.2345,5.214 -10.1715,8.25 l -2.3445,2.391 1.734,1.4055 c 0.933,0.786 1.7775,1.4535 1.923,1.4535 0.1455,0 2.79,-2.4855 5.859,-5.532 5.565,-5.523 5.5695,-5.544 4.5945,-6.75 -0.54,-0.663 -1.2555,-1.218 -1.5945,-1.218 z m 79.3125,0 c -1.6275,0 -2.157,0.2325 -2.157,0.891 0,0.6405 0.327,0.7545 1.2195,0.516 0.6675,-0.18 1.6365,-0.3255 2.157,-0.33 0.519,-0.003 0.9375,-0.2175 0.9375,-0.5145 0,-0.297 -0.9705,-0.5625 -2.157,-0.5625 z m -108.282,1.6875 c -0.4185,0.1425 -1.212,1.029 -2.436,2.7195 l -2.016,2.7645 1.734,2.2965 c 1.8345,2.496 1.971,2.631 2.8125,2.016 0.2985,-0.2175 1.2285,-1.3185 2.0625,-2.4375 l 1.5,-2.0625 -1.641,-2.0625 c -0.9105,-1.149 -1.6875,-2.3895 -1.6875,-2.718 0,-0.441 -0.0765,-0.6015 -0.327,-0.516 z m 110.814,0.375 c -0.2835,0.03 -0.5955,0.1515 -0.9375,0.282 -1.5375,0.579 -1.5195,0.585 -0.6105,2.202 1.0155,1.806 9.177,10.5465 9.8445,10.5465 0.2325,0 1.149,-0.591 2.0625,-1.359 0.9135,-0.768 1.6875,-1.6095 1.6875,-1.8285 0,-0.8715 -5.604,-6.273 -8.4375,-8.1555 -2.013,-1.335 -2.763,-1.7775 -3.609,-1.6875 z m 29.67,1.2195 c -0.588,0.156 -1.248,1.2555 -2.4825,3.42 l -1.173,2.064 1.0785,1.1715 c 0.6075,0.6465 1.125,1.455 1.125,1.782 0,0.525 0.7275,1.0455 1.641,1.17 0.171,0.024 0.7875,-0.5025 1.359,-1.17 2.367,-2.7675 2.4255,-3.2145 0.5625,-6.2355 -0.975,-1.578 -1.521,-2.3595 -2.109,-2.2035 z m -45.2805,1.359 -1.0305,1.968 c -0.9975,1.944 -0.9855,2.019 0.093,4.8285 1.8255,4.7535 7.239,14.997 7.9215,15 0.3525,0 1.2555,-0.225 2.016,-0.516 0.8655,-0.33 1.359,-0.948 1.359,-1.641 0,-1.3815 -2.4765,-6.342 -5.577,-11.1555 -1.299,-2.016 -2.8935,-4.7715 -3.5625,-6.0945 z m -49.593,0.093 -6.141,10.1715 -6.1875,10.173 1.734,0.6555 c 0.966,0.351 2.0925,0.6345 2.484,0.657 0.4005,0.0225 2.127,-2.9355 3.939,-6.75 1.776,-3.7425 3.867,-7.7385 4.6395,-8.907 1.3845,-2.091 1.38,-2.1705 0.4695,-4.0785 l -0.9375,-1.92 z m 3.1875,0.609 c -0.8475,0.0195 -1.5,0.1995 -1.5,0.516 0,0.8805 0.756,1.1715 3.0465,1.1715 1.842,0 2.262,-0.201 2.016,-0.843 -0.2085,-0.5415 -2.151,-0.8745 -3.5625,-0.8445 z m 27.6555,0.048 v 9.1875 h -7.545 v 8.109 h -7.734 l 0.3285,2.8125 c 0.186,1.5585 0.372,3.363 0.375,4.032 0.003,0.894 0.3225,1.2105 1.218,1.218 0.6675,0.006 2.406,0.3675 3.891,0.7965 1.56,0.4515 3.831,0.6675 5.391,0.516 1.4835,-0.1455 4.2375,-0.378 6.093,-0.5625 l 3.375,-0.375 v -25.734 h -5.3895 z m 15.0465,0.609 a 13.362,13.362 0 0 0 -1.077,0.0465 c -1.299,0.096 -2.4,0.492 -2.532,0.891 -0.1725,0.5265 0.3465,0.6405 2.0625,0.516 1.299,-0.096 2.4,-0.492 2.532,-0.891 0.129,-0.3945 -0.12,-0.552 -0.984,-0.5625 z m -39.561,2.109 c -0.402,-0.06 -0.858,0.2535 -1.125,0.9375 -0.204,0.519 -1.914,4.947 -3.798,9.8445 -1.8825,4.896 -3.555,9.3 -3.75,9.7965 -0.27,0.693 0.003,0.9495 1.1715,1.125 2.4315,0.3645 2.8605,0.402 2.8605,0.234 0,-0.087 0.978,-2.505 2.1555,-5.391 1.9425,-4.755 3.234,-10.9275 3.234,-15.327 0,-0.726 -0.348,-1.158 -0.75,-1.2195 z m 36.702,0.8445 -0.375,1.3125 c -1.1925,4.2825 0.309,14.1975 2.9535,19.3125 l 0.8445,1.593 2.577,-0.843 c 1.422,-0.456 2.664,-0.906 2.766,-0.984 0.1695,-0.1335 -1.338,-3.834 -5.391,-13.266 -0.8505,-1.98 -1.5465,-3.777 -1.5465,-4.032 0,-0.255 -0.429,-1.056 -0.9375,-1.7805 z m -109.3125,0.75 1.4535,3 1.4535,2.9535 h 3.702 c 3.5925,0 3.702,-0.0405 3.33,-1.2195 -0.2115,-0.6675 -1.0005,-1.989 -1.7355,-2.9535 -1.26,-1.6545 -1.536,-1.7805 -4.782,-1.7805 h -3.42 z m 177.8445,1.641 c -2.097,0 -3.651,0.2445 -3.984,0.6555 -0.66,0.81 -2.8125,4.6575 -2.8125,5.016 0,0.1395 1.6395,0.234 3.6555,0.234 h 3.657 l 1.452,-2.9535 1.4535,-2.9535 h -3.4215 z m -150.234,1.077 c -0.198,0.0105 -1.1535,1.1835 -2.1105,2.5785 l -1.734,2.532 1.9695,2.0145 1.968,2.016 1.782,-2.484 1.7805,-2.484 -1.6875,-2.1105 c -0.9075,-1.146 -1.77,-2.0715 -1.9695,-2.0625 z m 126.327,1.0785 c -0.1275,-0.141 -1.068,0.6945 -2.0625,1.875 l -1.7805,2.157 1.4535,2.577 c 0.789,1.41 1.539,2.544 1.6875,2.532 0.147,-0.012 1.158,-0.816 2.25,-1.782 l 1.968,-1.734 -1.641,-2.6715 c -0.906,-1.4715 -1.746,-2.8125 -1.875,-2.9535 z M 99.702,197.3445 c -0.48,0.522 -3.0465,5.8935 -3.0465,6.375 0,0.945 1.653,2.202 2.9055,2.202 0.93,0 1.59,-0.63 2.625,-2.625 l 1.359,-2.6715 -1.8285,-1.734 c -1.005,-0.975 -1.8975,-1.6755 -2.0145,-1.5465 z m -23.2965,1.6875 c -1.485,0.006 -3.405,0.1875 -4.266,0.375 -1.416,0.3075 -1.4625,0.4095 -0.657,1.077 0.492,0.408 0.891,0.9795 0.891,1.266 0,1.284 2.4405,2.5695 4.3125,2.2965 1.0395,-0.15 2.9655,-0.2775 4.266,-0.2805 h 2.343 l -2.109,-2.391 c -1.9545,-2.22 -2.262,-2.355 -4.782,-2.3445 z m 132.045,0.5145 c -0.7005,-0.005 -1.53,0.477 -2.67,1.4535 l -1.7805,1.5465 0.9375,1.6875 c 1.152,2.025 3.3435,2.283 5.016,0.609 1.296,-1.2945 1.35,-1.728 0.2805,-3.795 -0.51,-0.99 -1.08,-1.497 -1.7805,-1.5 z m 23.157,0.984 c -4.2165,0 -4.26,0.045 -6.3285,2.1105 l -2.109,2.0625 3.234,0.516 c 5.4345,0.885 5.472,0.8925 7.548,-1.641 1.059,-1.293 1.9215,-2.4795 1.9215,-2.6715 0,-0.1935 -1.926,-0.375 -4.266,-0.375 z m -89.859,7.125 a 11.142,11.142 0 0 0 -3.657,0.5625 c -2.001,0.6645 -2.379,1.05 -2.811,2.766 -0.315,1.245 -0.3255,3.4155 0,5.766 0.354,2.5665 0.333,3.7605 -0.048,3.75 -0.306,-0.009 -1.617,-0.624 -2.9535,-1.359 -2.7195,-1.4985 -6.996,-3.54 -14.577,-6.984 -4.5075,-2.049 -6.1455,-2.484 -13.5,-3.516 -9.2505,-1.299 -12.66,-1.17 -19.407,0.6555 -2.226,0.603 -5.4,1.758 -7.0305,2.5785 l -2.9535,1.5 2.157,0.5625 c 1.185,0.3075 3.594,0.9075 5.3895,1.359 5.961,1.503 5.946,1.5 7.266,5.766 l 1.2195,3.8445 3.045,-0.423 c 4.254,-0.636 11.109,-0.3375 14.625,0.657 3.7485,1.059 5.5665,1.8495 17.673,7.7805 5.4195,2.655 10.0305,4.8285 10.2195,4.8285 0.4245,0 6.1125,-4.7445 7.0305,-5.859 0.912,-1.107 0.9345,-1.0455 -1.125,-4.1715 -0.9975,-1.515 -1.911,-3.426 -2.0625,-4.2195 -0.609,-3.186 3.393,-5.0445 8.4375,-3.9375 3.174,0.696 5.067,0.72 10.407,0.141 3.216,-0.3495 4.116,-0.2745 5.25,0.468 0.753,0.495 1.359,1.3245 1.359,1.875 0,1.494 -1.542,4.971 -3,6.7035 -0.987,1.173 -1.158,1.77 -0.75,2.532 0.549,1.0275 7.554,7.545 8.109,7.545 0.1725,0 1.623,-0.99 3.234,-2.202 1.6125,-1.212 3.9225,-2.6745 5.109,-3.282 1.188,-0.606 3.2595,-1.8675 4.5945,-2.8125 5.4405,-3.8475 12.5835,-5.5425 21,-4.92 3.1365,0.2295 6.8955,0.4815 8.3445,0.5145 l 2.625,0.0465 1.4055,-3.75 c 1.38,-3.6225 1.5405,-3.8175 4.125,-4.7805 1.4745,-0.5505 4.8435,-1.5645 7.5,-2.2965 2.6565,-0.7335 4.917,-1.449 5.016,-1.548 0.615,-0.615 -12.4905,-4.2345 -18.141,-5.016 -6.1905,-0.855 -6.915,-0.873 -12.891,0 -6.897,1.008 -11.3505,2.4105 -17.2035,5.4375 -2.073,1.074 -3.993,1.9695 -4.311,1.9695 -0.3195,0 -1.779,0.8265 -3.2355,1.8285 -3.225,2.22 -6.957,4.152 -7.3125,3.7965 -0.144,-0.144 0.1755,-1.23 0.75,-2.391 0.618,-1.248 1.083,-3.3435 1.125,-5.1555 0.0645,-2.7615 -0.081,-3.186 -1.5,-4.407 -1.521,-1.308 -1.74,-1.362 -6.1875,-0.9375 -6.213,0.594 -12.15,0.615 -15.2805,0.0465 -1.9755,-0.357 -2.5575,-0.3255 -2.4375,0.1875 a 0.84,0.84 0 0 1 -0.516,0.9375 c -0.399,0.147 -0.657,-0.198 -0.657,-0.843 0,-0.9555 -1.539,-1.551 -3.468,-1.5945 z m 25.1715,2.0625 c 0.372,0.008 1.2705,0.4485 1.9695,0.9855 1.6425,1.263 2.235,5.439 0.9375,6.516 -0.75,0.621 -0.9495,0.36 -1.5465,-1.875 -0.375,-1.404 -0.987,-2.67 -1.3605,-2.8125 -0.882,-0.339 -0.882,-2.829 0,-2.8125 z M 161.202,210 c 0.318,-0.1005 0.684,0.001 1.0785,0.3285 0.366,0.3045 1.1505,0.42 1.734,0.234 1.665,-0.528 1.797,0.4725 0.2805,2.109 -1.128,1.2165 -1.308,1.8525 -1.0305,3.3285 0.2685,1.434 0.1575,1.782 -0.516,1.782 -0.468,0 -0.99,-0.42 -1.1715,-0.9375 a 85.269,85.269 0 0 0 -1.032,-2.7195 c -0.7575,-1.8915 -0.2985,-3.825 0.657,-4.125 z m -11.016,0.375 c 0.345,-0.054 0.735,-0.0195 1.0785,0.0465 l 1.218,0.234 -1.218,0.375 c -0.6675,0.222 -1.2195,0.666 -1.2195,0.9375 0,0.2745 0.483,0.225 1.0785,-0.093 0.594,-0.318 1.125,-0.4395 1.125,-0.234 0,0.204 0.483,-0.024 1.0785,-0.5625 0.5955,-0.54 1.2315,-0.7995 1.4535,-0.5625 0.2205,0.237 0.09,0.5235 -0.282,0.6555 -0.3705,0.1335 -0.657,0.4845 -0.657,0.75 0,0.2655 0.615,0.1995 1.3605,-0.141 1.05,-0.4785 1.665,-0.4695 2.718,0.0945 1.6575,0.8865 1.476,1.6425 -0.609,2.7195 -3.072,1.584 -3.21,1.746 -2.0625,2.1555 0.5745,0.204 -0.423,0.3615 -2.2035,0.3285 l -3.234,-0.0945 -0.516,-2.2965 c -0.36,-1.623 -0.741,-2.217 -1.266,-2.016 -0.4095,0.1575 -1.1385,0.282 -1.6395,0.282 -0.5025,0 -1.377,0.8145 -1.9215,1.8285 -1.53,2.8395 -4.9275,3.3945 -6.75,1.077 -1.3425,-1.704 -1.3575,-1.7925 -0.282,-3.3285 1.08,-1.542 1.7025,-1.173 1.407,0.8445 -0.1965,1.335 0.008,1.665 1.218,1.9695 1.98,0.4965 2.4375,0.012 2.4375,-2.391 v -2.0625 l 3.0945,0.1875 c 1.6995,0.1035 3.39,-0.075 3.75,-0.375 0.18,-0.15 0.4995,-0.2745 0.843,-0.3285 z m 59.625,0.7035 c 0.1065,-0.012 0.249,0.108 0.4215,0.2805 0.615,0.615 0.678,1.6425 0.4215,4.6875 -0.18,2.1525 -0.495,3.9375 -0.75,3.9375 -0.2535,0 -0.468,-2.148 -0.468,-4.734 0,-3.096 0.0555,-4.137 0.375,-4.1715 z m -13.407,0.7965 c 0.309,0.0225 0.774,0.3735 1.125,1.032 0.3075,0.573 0.762,2.3355 0.9855,3.8895 0.2235,1.554 0.7065,2.925 1.0785,3.0465 0.414,0.1395 0.5175,-0.114 0.327,-0.609 -0.195,-0.5085 0.141,-0.9015 0.8445,-1.125 1.419,-0.45 2.2035,0.03 2.2035,1.359 0,1.236 0.975,1.35 2.4375,0.282 1.005,-0.735 0.978,-0.8085 -0.4695,-1.1715 -1.668,-0.42 -1.677,-1.122 -0.0465,-2.2035 0.9045,-0.6 1.2495,-0.561 2.25,0.141 0.9225,0.645 1.218,1.3275 1.218,3.1875 0,1.3185 0.123,2.4375 0.282,2.4375 0.1575,0 1.1265,-0.3675 2.1555,-0.7965 2.0895,-0.8745 2.4765,-2.457 1.0785,-4.455 -0.7065,-1.008 -0.7035,-1.182 0,-1.452 0.5145,-0.198 1.0695,0.252 1.5945,1.266 1.881,3.6405 0.39,5.94 -4.125,6.375 l -2.766,0.2805 0.375,-1.4535 c 0.3225,-1.2885 0.21,-1.4205 -0.891,-1.17 -0.675,0.1515 -2.775,0.345 -4.6875,0.42 l -3.516,0.141 -0.609,-3.75 c -0.342,-2.0775 -0.8055,-4.215 -1.032,-4.734 -0.282,-0.6525 -0.12,-0.96 0.1875,-0.9375 z m -39.702,0.5625 c -0.1665,0.036 -0.399,0.0915 -0.7035,0.1875 -0.7425,0.234 -1.9125,0.4245 -2.5785,0.4215 -0.666,-0.002 -1.0545,0.2505 -0.891,0.516 0.507,0.819 3.297,0.531 4.08,-0.4215 0.4995,-0.6105 0.591,-0.813 0.093,-0.7035 z m 48.6555,0.282 c 0.2955,0 0.633,0.279 0.75,0.8895 0.114,0.591 -0.195,0.9375 -0.75,0.9375 -0.555,0 -0.816,-0.3465 -0.7035,-0.9375 0.1185,-0.6105 0.4095,-0.891 0.705,-0.891 z m -106.1715,0.795 c 0.6825,-0.007 0.654,0.189 0.1875,0.75 -0.8475,1.023 -3.4665,1.1805 -3.141,0.189 0.1215,-0.372 1.02,-0.795 2.016,-0.891 0.399,-0.039 0.7095,-0.045 0.9375,-0.0465 z m -6.5625,0.1425 c 0.084,0 0.1575,0.063 0.282,0.1395 0.327,0.2025 0.939,1.2 1.359,2.2035 0.48,1.146 1.1475,1.782 1.7805,1.782 1.026,0 4.425,-1.1625 6.1875,-2.157 0.5385,-0.303 1.4265,-0.4215 2.016,-0.234 0.6195,0.195 1.6455,-0.045 2.4375,-0.5625 1.71,-1.1205 2.337,-0.6465 1.032,0.7965 -0.54,0.5955 -0.7245,1.0785 -0.423,1.0785 0.303,0 0.4275,0.681 0.282,1.5 l -0.282,1.5 1.8285,-1.6875 c 2.1885,-2.019 3.8475,-2.493 5.157,-1.5 0.9045,0.687 0.912,0.735 -0.282,0.75 -0.7035,0.009 -2.127,0.75 -3.141,1.641 -1.713,1.503 -4.953,2.2305 -5.109,1.17 -0.033,-0.222 -0.003,-0.9135 0.0465,-1.545 0.0645,-0.8295 -0.351,-1.2885 -1.5,-1.6875 -1.347,-0.471 -1.896,-0.351 -3.516,0.75 -1.23,0.8355 -2.7,1.3125 -4.077,1.3125 -1.851,0 -2.265,-0.2595 -3.234,-1.83 -1.0545,-1.704 -1.431,-3.4335 -0.8445,-3.42 z m 58.6875,1.0305 c -0.111,-0.015 -0.1875,0.066 -0.1875,0.234 0,0.72 0.6705,1.3455 1.032,0.984 0.153,-0.153 -0.024,-0.585 -0.375,-0.9375 -0.195,-0.1935 -0.3585,-0.267 -0.4695,-0.2805 z m 7.407,0.4215 c 0.8895,0 1.593,0.219 1.593,0.516 0,0.297 -0.36,0.5625 -0.7965,0.5625 -0.483,0 -0.6585,0.3045 -0.4695,0.7965 0.39,1.017 -0.3705,1.017 -1.266,0 -1.098,-1.248 -0.7845,-1.875 0.939,-1.875 z m 32.811,0.141 c 0.333,-0.048 0.6105,0.1335 0.6105,0.609 a 0.84,0.84 0 0 1 -0.8445,0.8445 c -0.4695,0 -0.774,-0.258 -0.6555,-0.609 0.165,-0.501 0.558,-0.7965 0.891,-0.8445 z m -44.484,0.657 c 0.147,-0.039 0.387,0.007 0.609,0.093 1.0365,0.3975 1.0365,0.7035 0,0.7035 -0.444,0 -0.843,-0.228 -0.843,-0.516 0,-0.144 0.087,-0.243 0.234,-0.282 z m 53.766,0.045 c 0.297,-0.0675 0.6435,-0.015 0.7965,0.2355 0.1875,0.3015 -0.0525,0.516 -0.516,0.516 -0.462,0 -0.843,-0.105 -0.843,-0.234 0,-0.285 0.2655,-0.447 0.5625,-0.516 z m -6.375,0.798 c 0.4125,-0.006 0.9795,0.183 1.407,0.609 0.7155,0.717 0.852,3.0855 0.234,4.032 -0.219,0.333 -1.2585,0.7695 -2.2965,0.984 -1.0395,0.2145 -2.361,0.705 -2.955,1.0785 -1.533,0.966 -6.9,2.472 -8.718,2.4375 -1.326,-0.0255 -1.743,-0.4545 -3,-3.0945 -0.7995,-1.68 -1.3995,-3.147 -1.3125,-3.234 0.4845,-0.4845 2.988,2.2725 3.282,3.609 0.321,1.467 0.489,1.5495 2.343,1.266 1.095,-0.1665 2.406,-0.645 2.907,-1.0785 0.501,-0.435 1.161,-0.63 1.5,-0.4215 0.345,0.213 0.999,-0.15 1.4535,-0.7965 0.5295,-0.7575 1.1355,-1.05 1.7805,-0.8445 0.543,0.1725 1.1685,0.075 1.359,-0.234 0.192,-0.309 0.81,-0.5625 1.407,-0.5625 1.0815,0 1.1145,-0.378 0.093,-3.0945 -0.162,-0.429 0.105,-0.6495 0.516,-0.6555 z m -81.0465,1.6875 c 0.375,-0.1395 0.573,0.2265 0.375,1.266 -0.5295,2.7645 0.495,3.4965 3.75,2.625 1.0155,-0.273 1.116,-0.4665 0.5625,-1.359 -0.5205,-0.84 -0.513,-1.1325 0.141,-1.548 1.227,-0.78 2.025,-0.6345 3.1395,0.5625 l 1.032,1.0785 1.359,-1.0785 c 2.082,-1.638 2.7495,-1.416 2.391,0.7965 -0.231,1.425 -0.117,1.875 0.468,1.875 0.4275,0 0.7965,-0.474 0.7965,-1.0305 0,-1.857 1.1655,-2.2455 3.564,-1.1715 2.2635,1.0125 3.468,3.015 3.468,5.8125 0,1.4835 -1.0005,1.623 -3.234,0.468 -1.3575,-0.702 -1.56,-0.702 -1.8285,0 -0.18,0.465 -1.035,0.7965 -2.016,0.7965 -1.6035,0 -1.635,-0.105 -1.3125,-1.7805 0.303,-1.572 0.2595,-1.6425 -0.4215,-0.7965 -1.3815,1.7175 -4.1715,0.9945 -4.1715,-1.0785 0,-1.1475 -0.1905,-1.278 -1.2195,-0.984 -3.2925,0.939 -6.321,0.957 -7.641,0.093 -1.2645,-0.828 -1.299,-0.9375 -0.609,-2.5785 0.48,-1.143 1.032,-1.8285 1.407,-1.968 z m -10.8285,0.4695 c 0.813,-0.0735 1.6275,0.0675 1.875,0.468 0.363,0.5865 -0.9195,1.125 -2.6715,1.125 -0.924,0 -1.2075,-0.216 -0.984,-0.7965 0.1665,-0.438 0.9675,-0.7245 1.7805,-0.7965 z m 79.9695,0.234 c 0.4905,-0.063 0.9555,0.0195 1.218,0.2805 0.309,0.3105 -0.0765,0.7335 -0.984,1.0785 -1.878,0.714 -1.9215,0.7065 -1.9215,-0.1875 0,-0.567 0.8685,-1.068 1.686,-1.1715 z M 124.686,220.5 c -0.297,0 -0.516,0.2475 -0.516,0.5625 0,0.315 0.219,0.4185 0.516,0.234 0.297,-0.183 0.5625,-0.4305 0.5625,-0.5625 0,-0.1305 -0.2655,-0.234 -0.5625,-0.234 z m 4.9215,1.359 c -0.2835,0.045 -0.5445,0.174 -0.7035,0.4215 -0.708,1.116 -0.4995,1.4625 1.314,2.25 1.854,0.807 2.577,0.9645 2.577,0.5625 0,-0.135 -0.276,-0.816 -0.609,-1.545 -0.5115,-1.125 -1.7265,-1.824 -2.5785,-1.689 z m 47.016,0.0945 c 0.405,-0.021 0.777,0.5685 1.5,2.0625 1.467,3.03 1.176,4.4295 -1.359,6.6555 -2.3295,2.0445 -5.775,2.3925 -6.7035,0.657 -0.3075,-0.5745 -0.5625,-1.1925 -0.5625,-1.359 0,-0.63 1.509,-0.264 2.157,0.5145 1.032,1.245 2.0745,0.972 4.077,-1.0305 2.13,-2.13 2.265,-2.6115 0.7965,-4.0785 -1.266,-1.266 -1.374,-2.319 -0.327,-3.1875 0.1515,-0.126 0.285,-0.228 0.4215,-0.234 z m -32.016,0.141 c -0.081,0.007 -0.153,0.06 -0.234,0.1395 -0.549,0.549 0.315,6.405 0.891,6.0465 0.2745,-0.1695 0.4725,-1.287 0.468,-2.5305 -0.007,-2.028 -0.552,-3.7125 -1.125,-3.657 z m 5.157,0.5625 c -2.604,0 -2.9505,0.1185 -2.7195,0.9375 0.147,0.519 0.414,1.9725 0.609,3.234 0.4575,2.9385 1.4985,3.0615 1.2195,0.141 -0.1875,-1.968 -0.06,-2.2185 1.1715,-2.4855 2.304,-0.498 2.7195,-0.6885 2.7195,-1.266 0,-0.315 -1.296,-0.5625 -3,-0.5625 z m 4.9215,0 c -0.741,0 -2.625,5.2395 -2.157,6 0.348,0.561 1.407,0.6075 2.625,0.1395 1.3905,-0.5325 0.963,-6.141 -0.468,-6.141 z m 3.4695,0.327 c -0.15,0.066 -0.195,1.611 -0.0945,3.4215 0.1755,3.1725 1.155,4.188 1.1715,1.2195 0.0105,-1.758 0.453,-2.499 1.875,-3.0465 0.951,-0.366 0.8655,-0.495 -0.7965,-1.0785 -1.0395,-0.3645 -2.0085,-0.5805 -2.157,-0.516 z m -34.83,0.234 c -0.1335,0 -0.234,0.279 -0.234,0.798 0,0.4455 0.2295,0.7965 0.516,0.7965 0.288,0 0.405,-0.351 0.234,-0.7965 -0.198,-0.519 -0.381,-0.7965 -0.5145,-0.7965 z m 31.689,1.641 c 0.3675,0.0525 0.4785,0.396 0.375,1.125 -0.099,0.699 -0.624,1.35 -1.1715,1.4535 -0.765,0.1455 -0.9825,-0.105 -0.8445,-1.0785 0.099,-0.6975 0.6225,-1.3485 1.1715,-1.4535 0.192,-0.036 0.3465,-0.063 0.4695,-0.045 z m 18.7965,1.6875 c 0.1905,-0.008 0.3825,0.0765 0.5625,0.1875 0.603,0.3735 0.1935,1.3125 -0.5625,1.3125 -0.2625,0 -0.6255,-0.24 -0.7965,-0.516 -0.3,-0.483 0.2265,-0.96 0.7965,-0.984 z m -43.4535,0.984 c 0.4455,0 0.8445,0.219 0.8445,0.516 0,0.297 -0.399,0.5625 -0.8445,0.5625 -0.4455,0 -0.7965,-0.2655 -0.7965,-0.5625 0,-0.297 0.351,-0.516 0.7965,-0.516 z" fill="#fecb00"/></g></svg>