<svg height="300" width="600" xmlns="http://www.w3.org/2000/svg"><g fill-rule="evenodd"><path d="m0 0h600v300h-600z" fill="#fff"/><path d="m0 0h600v100h-600z" fill="#090"/><path d="m0 200h600v100h-600z"/><path d="m371.475 136.746c-.055.29.732.721.92.498.846-1.015 1.955-3.007 2.182-4.213.067-.35-1.061-.748-1.302-.46-.793.95-1.562 2.908-1.8 4.175z" fill="#e8d94c"/><path d="m265.53 198.528c-.843 2.98-13.286-2.809-14.676-5.808 7.12 3.772 14.847 2.983 14.677 5.808zm-39.34-60.876c.622.74 1.67.244.715-.758-.782-.81-.524-1.065-1.001-2.051-.471-1.102-.447-1.71-1.015-2.498-.503-.747-1.26.016-.753.644.636.744.46 1.292.85 2.011.719 1.231.543 1.877 1.204 2.652zm16.741 20.199c2.002.985 3.521 3.443 3.621 5.446.17 2.305.502 4.25 1.537 5.889-1.647-.46-2.437-3.085-2.67-5.6-.238-2.604-1.64-3.734-2.488-5.735zm4.17 4.82c1.385 2.557 3.322 3.533 3.421 5.43.168 2.184.334 2.295.926 4.442-1.63-.434-2.041-.576-2.482-3.844-.271-2.296-2.11-3.916-1.865-6.028z" fill="#d4aa00" fill-opacity=".941"/><path d="m279.46 176.416c2.12 1.736 3.495 3.718 4.136 6.28.668 2.386 1.608 4.289 2.988 6.434-2.247-1.533-3.66-3.617-4.367-6.128-.62-2.469-1.352-4.313-2.757-6.586zm39.673 0c-2.167 1.747-3.573 3.74-4.228 6.317-.683 2.4-1.644 4.314-3.054 6.471 2.297-1.54 3.74-3.637 4.463-6.163.634-2.483 1.383-4.34 2.819-6.625zm-2.662 0c-2.323 1.824-4.512 3.895-5.167 6.471-.684 2.4-1.097 4.237-2.663 6.626 2.453-1.542 3.427-3.87 4.15-6.396.634-2.482 2.088-4.338 3.68-6.701z" fill="#e8d94c"/><path d="m290.221 186.334c.779 1.467 1.673 3.701 3.293 3.293.026-1.124-1.749-1.902-3.293-3.293zm2.413.496c3.147 1.29 5.865.972 6.203 2.95-2.952.32-4.032-.894-6.203-2.95z" fill="#d4aa00" fill-opacity=".941"/><path d="m308.067 186.525c-.79 1.384-1.695 3.49-3.338 3.104-.026-1.059 1.773-1.792 3.338-3.104zm-2.208.421c-3.193 1.224-5.95.922-6.294 2.799 2.996.302 4.091-.848 6.294-2.8zm2.919-4.48c.062-.448-.243-.84-.61-.957a27.208 27.208 0 0 0 -2.134-.69c-.805-.19-1.255.387-1.258.766-.004.632-.034 1.168 0 1.646.043.596.157.64.533.729.603.102 1.376.206 1.982.612.48.296.942.062 1.182-.458.155-.398.24-1.177.305-1.648zm-8.675 0c-.056-.448.18-.877.507-.995.638-.269 1.274-.334 1.944-.307.744-.012.932.157.934.536.003.632.03 1.244 0 1.723-.039.596-.026.64-.362.728-.539.102-1.458.13-1.999.536-.429.296-.918.062-.941-.497a14.96 14.96 0 0 0 -.083-1.724zm-10.533-.116c-.062-.447.245-.838.613-.956a27.433 27.433 0 0 1 2.144-.689c.809-.191 1.262.386 1.265.766.004.63.033 1.167 0 1.646-.044.596-.158.64-.537.728-.605.102-1.382.206-1.99.613-.483.296-.947.061-1.188-.46-.156-.397-.24-1.176-.307-1.647zm8.716.001c.057-.448-.18-.877-.51-.995-.64-.268-1.279-.334-1.952-.307-.748-.011-.936.157-.94.537-.002.63-.029 1.244 0 1.722.04.596.027.64.365.728.541.102 1.465.13 2.008.537.431.296.923.061.946-.497-.01-.422.025-1.253.083-1.725z" fill="#e8d94c"/><g fill="#d4aa00" fill-opacity=".941"><path d="m276.869 100.952h5.903v1.354h-5.903zm0 2.565h5.903v11.31h-5.903zm-.356-4.113 6.548.038c.256-2.22-1.96-4.619-3.254-4.594-1.28.061-3.345 2.425-3.294 4.556zm39.132 1.586h5.903v1.354h-5.903zm0 2.565h5.903v11.311h-5.903zm-.356-4.113 6.548.038c.256-2.22-1.96-4.619-3.254-4.594-1.28.062-3.345 2.425-3.294 4.556z"/><path d="m276.869 100.952h5.903v1.354h-5.903zm0 2.565h5.903v11.31h-5.903zm-.356-4.113 6.548.038c.256-2.22-1.96-4.619-3.254-4.594-1.28.061-3.345 2.425-3.294 4.556zm39.132 1.586h5.903v1.354h-5.903zm0 2.565h5.903v11.311h-5.903zm-.356-4.113 6.548.038c.256-2.22-1.96-4.619-3.254-4.594-1.28.062-3.345 2.425-3.294 4.556z"/></g></g><g fill="none" stroke-width=".8556"><path d="m264.658 123.771c-1.013-1.626-2.225 2.256-6.39 5.146-1.94 1.32-3.29 4.836-3.303 7.15-.064 1.588.176 3.173-.001 4.71-.112.973-1.126 3.132-.433 3.683 1.834 1.363 4.207 4.457 5.308 5.524.952.835 1.776-4.306 2.49-6.607.766-2.465.423-5.412 2.547-7.69 1.504-1.538 5.3-3.052 4.874-3.737z" stroke="#e8d94c"/><path d="m264.658 123.771c-1.013-1.626-2.225 2.256-6.39 5.146-1.94 1.32-3.29 4.836-3.303 7.15-.064 1.588.176 3.173-.001 4.71-.112.973-1.126 3.132-.433 3.683 1.834 1.363 4.207 4.457 5.308 5.524.952.835 1.776-4.306 2.49-6.607.766-2.465.423-5.412 2.547-7.69 1.504-1.538 5.3-3.052 4.874-3.737z" stroke="#d4aa00" stroke-opacity=".941"/><path d="m263.25 122.093.759-.487 14.567 24.534-.758.487z" stroke="#e8d94c"/><g stroke="#d4aa00" stroke-opacity=".941"><path d="m263.25 122.093.759-.487 14.567 24.534-.758.487z"/><path d="m265.196 125.732s-1.274 2.382-2.875 3.696c-1.602 1.314-3.122 2.341-3.82 3.573s-.452 5.463-.74 6.86c-.287 1.396-1.56 6.324-1.56 6.324m11.028-17.045s-2.383 2.547-3.984 3.861c-1.602 1.315-1.808 2.834-2.506 4.066-.698 1.233-.657 4.806-.944 6.202a765.82 765.82 0 0 0 -1.11 5.668"/></g></g><g fill-opacity=".941" fill-rule="evenodd"><g fill="#fff" stroke="#d4aa00" stroke-opacity=".941" stroke-width=".98029"><path d="m271.885 116.706 3.754 4.136 46.718.076 3.83-4.135-11.947-.153-5.821-4.06-18.765-.076-5.438 4.212h-12.33z"/><path d="m271.885 116.706 3.754 4.136 46.718.076 3.83-4.135-11.947-.153-5.821-4.06-18.765-.076-5.438 4.212h-12.33z"/></g><g fill="#d4aa00"><path d="m291.08 110.366 16.133-.017c2.184-1.155 2.865-4.843 2.854-6.906-.03-6.096-4.294-9.019-8.572-9.175-.642-.032-1.386-.531-1.555-1.115-.422-1.324-.313-4.77-.775-4.722-.41-.006-.29 3.373-.655 4.614-.201.617-.895 1.226-1.588 1.261-5.325.266-8.76 4.154-8.626 9.137.09 3.294.473 5.262 2.784 6.923z"/><path d="m291.08 110.366 16.133-.017c2.184-1.155 2.865-4.843 2.854-6.906-.03-6.096-4.294-9.019-8.572-9.175-.642-.032-1.386-.531-1.555-1.115-.422-1.324-.313-4.692-.775-4.722-.333.032-.29 3.373-.655 4.614-.201.617-.895 1.226-1.588 1.261-5.325.266-8.76 4.154-8.626 9.137.09 3.294.473 5.262 2.784 6.923z"/><path d="m290.07 104.995c.406 2.008 1.374 1.7 1.302.728-.238-3.103.013-6.158 2.757-8.195.87-.638-.102-1.226-.842-.919-2.333.981-3.751 5.48-3.218 8.386z"/><path d="m292.788 106.258c.407 2.008 2.069 1.921 1.763.614-.623-2.505-.524-6.159 1.684-7.736.871-.634-.102-1.225-.842-.918-2.333.98-3.138 5.134-2.605 8.04zm15.552-1.187c-.407 2.009-1.375 1.7-1.304.728.239-3.102-.013-6.158-2.76-8.195-.87-.637.103-1.225.844-.918 2.335.981 3.754 5.48 3.22 8.385z"/><path d="m305.62 106.334c-.408 2.009-2.071 1.922-1.765.614.623-2.505.524-6.158-1.686-7.735-.872-.635.102-1.226.843-.919 2.336.981 3.141 5.135 2.607 8.04z"/><path d="m264.528 169.521h69.313l-6.204-5.055h-56.907l-6.203 5.055z"/><path d="m264.528 169.521h69.313l-6.204-5.055h-56.907l-6.203 5.055z"/></g></g><g fill="none" stroke-width=".8556"><path d="m334.207 123.507c1.012-1.626 2.225 2.256 6.39 5.146 1.94 1.32 3.29 4.836 3.303 7.15.064 1.588-.176 3.173 0 4.71.113.973 1.126 3.132.433 3.683-1.833 1.363-4.206 4.457-5.307 5.524-.952.835-1.776-4.306-2.491-6.607-.766-2.465-.423-5.412-2.546-7.69-1.505-1.538-5.3-3.052-4.874-3.737z" stroke="#e8d94c"/><path d="m334.207 123.507c1.012-1.626 2.225 2.256 6.39 5.146 1.94 1.32 3.29 4.836 3.303 7.15.064 1.588-.176 3.173 0 4.71.113.973 1.126 3.132.433 3.683-1.833 1.363-4.206 4.457-5.307 5.524-.952.835-1.776-4.306-2.491-6.607-.766-2.465-.423-5.412-2.546-7.69-1.505-1.538-5.3-3.052-4.874-3.737z" stroke="#d4aa00" stroke-opacity=".941"/><path d="m335.615 121.83-.76-.488-14.566 24.534.757.487 14.569-24.534z" stroke="#e8d94c"/><g stroke="#d4aa00" stroke-opacity=".941"><path d="m335.615 121.83-.76-.488-14.566 24.534.757.487 14.569-24.534z"/><path d="m333.67 125.468s1.272 2.382 2.874 3.696 3.122 2.341 3.82 3.573.452 5.463.739 6.86c.288 1.396 1.56 6.324 1.56 6.324m-11.027-17.044s2.382 2.546 3.984 3.86c1.602 1.315 1.807 2.834 2.505 4.066.699 1.233.658 4.806.945 6.202a765.82 765.82 0 0 1 1.109 5.668"/></g></g><g fill-rule="evenodd"><g fill="#d4aa00" fill-opacity=".941"><path d="m276.552 124.027h6.587v9.114h-6.587zm.383 14.322h6.358v1.914h-6.358zm-.154 3.371h6.51v7.122h-6.51zm-.458 8.577h7.122v3.982h-7.122zm.873-13.657h5.74l1.137-1.895h-7.907zm7.744-6.986.053-4.982h3.954c-1.553 1.281-2.997 2.834-4.008 4.982zm36.718-5.627h-6.476v9.114h6.476zm-.108 14.322h-6.25v1.914h6.25zm.114 3.371h-6.364v7.122h6.364zm.412 8.577h-7.003v3.982h7.003zm-1.05-13.657h-5.643l-1.119-1.895h7.774zm-7.614-6.986-.053-4.982h-3.887c1.527 1.281 2.947 2.834 3.94 4.982z"/><path d="m276.552 124.027h6.587v9.114h-6.587zm.383 14.322h6.358v1.914h-6.358zm-.154 3.371h6.51v7.122h-6.51zm-.458 8.577h7.122v3.982h-7.122zm.873-13.657h5.74l1.137-1.895h-7.907zm7.744-6.986.053-4.982h3.954c-1.553 1.281-2.997 2.834-4.008 4.982zm36.718-5.627h-6.476v9.114h6.476zm-.108 14.322h-6.25v1.914h6.25zm.114 3.371h-6.364v7.122h6.364zm.412 8.577h-7.003v3.982h7.003zm-1.05-13.657h-5.643l-1.119-1.895h7.774zm-7.614-6.986-.053-4.982h-3.887c1.527 1.281 2.947 2.834 3.94 4.982z"/></g><path d="m277.575 131.7c.039 1.066 1.246.59 1.246.054 0-1.644.021-3.421-.045-4.585-.008-.857 2.044-.643 2.033-.114.008 1.388.023 3.291.031 4.916-.015.79 1.325.722 1.307 0a654.046 654.046 0 0 1 0-5.787c.012-1.72-4.514-1.682-4.55-.038.002 1.35-.024 3.766-.022 5.554zm38.754.192c.039 1.065 1.246.59 1.246.054 0-1.644.021-3.422-.044-4.585-.008-.858 2.044-.643 2.032-.115.008 1.388.023 3.292.031 4.916-.014.791 1.286.723 1.269 0-.008-1.853.03-4.451.038-5.786.012-1.72-4.514-1.683-4.55-.039.002 1.35-.024 3.767-.022 5.555z" fill="#fff"/><path d="m277.588 142.562h4.672v5.821h-4.672z" fill="#fffffd"/><path d="m280.575 144.974h1.647v.957h-1.647zm-2.872 0h1.608v.957h-1.608z" fill="#d4aa00" fill-opacity=".941"/><path d="m279.31 142.638h1.265v2.374h-1.264zm0 3.255h1.265v2.527h-1.264z" fill="#d4aa00" fill-opacity=".941"/><path d="m316.189 142.523h4.672v5.821h-4.672z" fill="#fffffd"/><path d="m319.176 144.936h1.647v.957h-1.647zm-2.872 0h1.608v.957h-1.608zm1.608-2.336h1.264v2.374h-1.264zm0 3.255h1.264v2.527h-1.264z" fill="#d4aa00" fill-opacity=".941"/><path d="m311.939 142.867h.804v5.783h-.804z" fill="#e8d94c"/><path d="m296.315 150.528 1.263 3.79h2.872l-2.297-3.791h-1.838zm-1.608 3.79.728 3.753 3.369.038-1.226-3.792-2.87.001zm5.705.039 2.337 3.714h4.786l-3.752-3.754-3.37.04zm-28.261 8.5c2.54-2.36 4.161-4.377 4.174-7.275h6.203c.013 1.621.6 2.59 1.494 2.527l6.28-.038-.037-3.714h-4.558v-20.259c-.166-7.161 8.705-11.335 12.331-11.297l-21.56-.038v-.651h45.341l.038.65-21.866.04c6.485.012 12.739 6.152 12.79 11.335v5.744h-.842l-.038-5.667c0-5.668-7.139-10.966-12.868-10.8-4.953.142-12.637 4.864-12.56 10.761v1.762l11.756.077-.114 2.029 1.846 1.178 3.682 1.173-.054 3.044 2.637.778.022 3.04 3.164 1.358v3.148l2.006 1.236-.092 3.197 2.72 1.914h-6.434l4.02 4.481h-5.935l-2.95-4.48h-3.905l1.762 4.441-4.173-.038-.997-4.404h-5.093l.038 4.748zm18.19-12.292v3.752h4.366l-.882-3.752z" fill="#d4aa00" fill-opacity=".941"/><path d="m290.572 143.94h2.719v6.241h-2.72z" fill="#fff"/><path d="m286.73 150.622h2.654l-.016-4.593c-.035-1.996 1.757-4.009 2.615-4.076.95-.036 2.353 1.885 2.4 3.92l.038 4.764 2.815-.006v-11.826l-10.505.056v11.761z" fill="#fff"/><g fill="#d4aa00" fill-opacity=".941"><path d="m307.729 153.36h3.293v2.565h-3.293zm-1.953-4.405h3.293v2.566h-3.293zm-3.178-4.404h3.293v2.566h-3.293zm-2.719-3.714h3.293v2.566h-3.293zm12.06 2.03h.804v5.783h-.804z"/><path d="m253.311 84.296c.292 4.568-1.125 7.075-3.545 6.694-.666-2.534.85-4.234 3.545-6.694zm-5.311 10.122c-2.15-1.094-.599-9.447.226-12.949.611 4.51 1.633 10.921-.226 12.949z"/><path d="m248.77 94.81c3.614 1.257 6.477-2.636 7.444-7.146-2.984 4.119-7.84 4.124-7.445 7.146zm-2.745 4.216c-2.827-.747-1.125-9.609-.61-13.153.62 3.66 2.57 11.94.61 13.153zm.965-.273c.157-3.057 3.204-2.174 5.307-3.805-.343 1.528-1.636 4.234-5.308 3.805zm-3.463 4.092c-2.801-.756-1.117-10.293-1.276-14.22.821 3.393 3.422 13.3 1.276 14.22zm1.312-.411c2.294.746 5.334-.745 5.574-3.478-1.977 1.34-5.132.316-5.574 3.478z"/><path d="m241.436 107.055c-2.68.214-1.48-7.91-1.479-15.474.985 7.07 3.666 13.544 1.479 15.474z"/><path d="m242.365 106.687c1.81.908 5.051-.543 5.977-3.6-3.27 1.422-5.455.033-5.977 3.6z"/><path d="m263.4 88.523c-.477 3.962-2.096 6.268-4.516 5.886-.666-2.534 1.295-4.153 4.516-5.886zm-6.4 10.173c4.018.57 5.466-2.514 8.172-6.458-3.792 2.744-8.326 3.314-8.173 6.458z"/><path d="m255.855 98.238c-2.19-2.629-.073-5.93 1.601-8.745-.36 4.187 1.067 6.516-1.6 8.745zm-.971 4.344c-.247-2.571 4.134-3.143 6.115-4.572-.667 1.486-1.676 5.487-6.115 4.572z"/><path d="m253.97 102.64c-3.03-.343-1.772-5.487.4-8.345-.915 3.944 1.599 6.687-.4 8.345z"/><path d="m251.683 106.926c-3.448-1.525-1.238-5.849.058-8.401-.553 3.352 2.21 5.905-.058 8.4z"/><path d="m252.37 106.526c1.809 2.362 5.334-.705 6.058-4.287-3.068 2.554-5.334 2.134-6.059 4.287z"/><path d="m335.355 88.922c.457 2.058.572 6.117 4.23 5.316.533-3.772-2.534-3.944-4.23-5.316z"/><path d="m341.584 98.64c-.132-3.888-4.324-3.03-7.943-6.231.991 3.372 4.496 7.487 7.943 6.23z"/><path d="m342.442 98.182c2.458-1.696.572-5.392-1.714-8.63.857 3.524-1.029 6.762 1.714 8.63zm1.086 4.4c-3.962.305-4.667-1.676-6.23-4.229 2.706 1.753 6.325.648 6.23 4.229zm.972.115c-1.886-1.544.458-4.859-.342-8.173 1.486 2.095 3.772 7.106.343 8.173z"/><path d="m346.157 106.811c-3.962.933-5.238-1.162-6.23-4.686 3.22 2.953 5.011 1.562 6.23 4.686z"/><path d="m346.729 106.754c2.762-.038 1.524-5.505.114-8.001.381 3.01-2.038 6.477-.114 8.001z"/><path d="m345.043 84.327c.496 2.288-.462 6.806 3.196 6.771 1.529-2.585-1.73-5.016-3.196-6.77z"/><path d="m350.532 94.529c2.305-1.58.228-6.77-.489-12.613-.559 5.21-1.794 10.9.49 12.613z"/><path d="m349.292 94.931c.29-2.852-4.208-3.488-7.291-7.264.799 3.028 3.078 7.45 7.291 7.264zm3.08 4.442c-2.423-2.195.456-8.496.576-13.38.375 4.507 2.355 12.581-.576 13.38zm-1.378-.633c-3.542.228-4.476-2.366-4.89-3.846 1.902 1.37 4.909.724 4.89 3.846zm3.552 3.912c2.723-.114 1.716-10.445 1.338-13.706-.27 3.47-3.11 12.45-1.338 13.706zm-1.19-.186c-2.354.359-4.741-1.009-5.387-3.346 2.032.884 5.393.184 5.387 3.346z"/><path d="m356.737 106.94c2.915 1.187 1.87-12.283 1.492-15.392-.27 3.969-3.722 13.715-1.492 15.392z"/><path d="m356.055 106.942c-2.93.435-5.086-1.353-5.924-3.805 2.99 1.115 5.317.719 5.924 3.805z"/><path d="m353.94 122.92c.36-3.52-2.334-9.917-.422-13.327.261-.469-.572-1.713-1.11-.958-.841 1.205-1.706 4.638-2.068 3.37-.383-1.378-.442-3.816-1.685-4.29-.793-.277-1.914-.458-1.608.767.303 1.179.984 2.806.23 2.91-.437.065-1.697-1.603-2.758-2.373-.854-.688-2.13.388-.88 1.416 4.062 3.313 7.998 4.804 10.3 12.484z"/><path d="m353.94 122.92c.36-3.52-2.334-9.917-.422-13.327.261-.469-.572-1.713-1.11-.958-.841 1.205-1.706 4.638-2.068 3.37-.383-1.378-.442-3.816-1.685-4.29-.793-.277-1.914-.458-1.608.767.303 1.179.984 2.806.23 2.91-.437.065-1.697-1.603-2.758-2.373-.854-.688-2.13.388-.88 1.416 4.062 3.313 7.998 4.804 10.3 12.484z"/><path d="m364.142 120.57c.992-1.04.705-1.439-.762-1.455-1.164-.074-3.47.716-4.345.076-.802-.585-.483-3.067-.84-4.212-.154-.638-.6-1.64-1.6-.077-2.957 4.764-6.652 10.482-8.232 16.084-.863 3.14-.432 8.194 2.897 10.875l2.363-6.893c1.123-3.277 7.168-11.141 10.519-14.398z"/><path d="m364.142 120.57c.992-1.04.705-1.439-.762-1.455-1.164-.074-3.47.716-4.345.076-.802-.585-.483-3.067-.84-4.212-.154-.638-.6-1.64-1.6-.077-2.957 4.764-6.652 10.482-8.232 16.084-.863 3.14-.432 8.194 2.897 10.875l2.363-6.893c1.123-3.277 7.168-11.141 10.519-14.398z"/><path d="m367.458 112.004c-1.333 4.287-2.134 7.8-.21 8.214 2.057-.357 1.163-4.498.21-8.214zm-.139 12.029c2.193 1.165 4.556-4.425 4.065-8.827-1.105 3.773-4.824 6.103-4.065 8.827zm-.809-.109c.341-3.048-.91-2.967-2.55-5.88.173 3.29.992 6.049 2.55 5.88z"/><path d="m367.231 128.385c2.56.727 5.493-5.367 5.383-9.87-1.065 4.984-6.62 6.976-5.383 9.87z"/><path d="m366.393 128.28c1.026-2.361-1.068-2.073-2.457-6.305-.46 4.38.208 6.379 2.457 6.305zm.742 4.593c3.321.572 5.034-6.76 6.684-10.272-3.267 4.603-7.18 7.167-6.684 10.272z"/><path d="m366.363 132.62c.971-2.704-1.773-2.553-3.218-6.594.23 5.125.895 6.974 3.218 6.594zm.956 4.656c2.1.152 5.875-5.712 5.957-9.334-1.794 3.989-7.425 6.631-5.957 9.334z"/><path d="m365.765 136.597c.873-2.82-1.565-2.84-2.648-5.999-.076 4.763.667 6.379 2.648 5.999zm.075 5.087c3.704.648 4.652-4.234 6.837-9.2-2.155 3.953-7.025 6.171-6.836 9.2z"/><path d="m365.574 141.007c1.2-2.55-1.582-2.552-3.066-6.364-.076 5.393.857 6.974 3.066 6.364z"/><path d="m352.123 145.703c-3.253.016-3.888-4.595-3.888-5.82 1.601.306 4.499 3.216 3.888 5.82z"/><path d="m352.123 145.703c-3.253.016-3.888-4.595-3.888-5.82 1.601.306 4.499 3.216 3.888 5.82z"/><path d="m358.618 124.757c-1.333 4.287-1.867 6.345-.057 7.716 2.363-1.315 1.01-4 .057-7.716zm-.743 11.202c.99-3.163-1.448-3.924-2.743-7.488-.133 4.707.533 8.154 2.743 7.488z"/><path d="m358.847 136.645c1.734.666 3.867-3.353 2.687-7.373-1.22 3.62-4.212 4.495-2.687 7.373zm-1.829 3.6c1.677-2.59-.992-2.724-2.342-6.343-.077 4.763.36 6.723 2.342 6.343z"/><path d="m357.017 144.703c1.277-2.933-1.505-2.553-3.142-6.172-.076 5.392.819 6.552 3.142 6.172zm1.258-4.286c1.449.037 4.267-2.496 3.43-5.658-1.22 2.648-4.668 2.38-3.43 5.658z"/><path d="m357.875 144.245c2.363.496 4.153-3.123 3.888-5.6-1.85 2.306-4.384 2.495-3.888 5.6z"/><path d="m372.679 138.185c.29-.377 1.122.01.914.92-.193 1.23-2 7.552-5.106 9.726-2.214 1.604-13.854 4.187-19.131 5.284-2.905.587-5.337 2.043-7.242 4.366.788-3.038 1.421-5.289 2.439-8.041.989-2.42 3.61-5.066 6.326-5.209 5.043-.182 11.57-.613 16.312-2.68 2.448-1.028 3.913-2.416 5.488-4.366z"/><path d="m372.679 138.185c.29-.377 1.122.01.914.92-.193 1.23-2 7.552-5.106 9.726-2.214 1.604-13.854 4.187-19.131 5.284-2.905.587-5.337 2.043-7.242 4.366.788-3.038 1.421-5.289 2.439-8.041.989-2.42 3.61-5.066 6.326-5.209 5.043-.182 11.57-.613 16.312-2.68 2.448-1.028 3.913-2.416 5.488-4.366z"/><path d="m365.553 153.103c.533-2.129-.146-2.814.436-6.148-3.196 4.286-1.994 6.317-.436 6.148z"/><path d="m365.902 153.633c2.116.59 7.62-4.233 7.78-7.832-1.488 2.586-8.921 5.376-7.78 7.832zm-3.454 3.175c1.448-.79 1.04-4.14-.273-5.27-.269 3.268-2.243 5.19.273 5.27z"/><path d="m363.938 157.717c2.56.803 5.455-3.835 7.566-5.849-2.406 2.074-9.684 3.07-7.566 5.85zm-3.519 2.308c1.792-1.174.12-3.49-.006-8.067-1.8 3.308-2.166 7.834.006 8.067z"/><path d="m360.76 161.202c.913 1.225 7.675-2.993 9.365-6.118-5.775 4.296-10.871 3.722-9.365 6.118zm-.677 3.813c1.66-1.21-1.428-4.39-2.07-8.66.04 5.2-.674 9.155 2.07 8.66z"/><path d="m361.89 163.583c.832 1.338 5.99-2.203 8.215-6.059-3.42 2.995-9.172 3.797-8.216 6.06zm-5.277 5.83c1.87-.331 1.612-5.06.186-8.909-1.608 4.649-2.32 9.366-.186 8.91z"/><path d="m361.306 166.838c.645.765 8.25-4.564 8.14-6.73-2.406 3.452-10.45 4.142-8.14 6.73zm-8.828 6.986c2.579-1.057 1.366-5.233 1.874-9.734-2.03 4.398-4.428 8.812-1.874 9.734z"/><path d="m357.301 170.212c.41 1.414 6.604-1.209 9.594-5.524-3.611 2.804-10.625 3.185-9.594 5.524z"/><path d="m353.303 174.497c1.335 2.22 9.016-1.845 10.132-5.658-2.483 3.3-11.063 2.801-10.132 5.658z"/><path d="m356.826 176.22c1.411.152 4.69-2.534 5.612-3.935-2.636 1.308-6.199 3.108-5.612 3.935z"/><path d="m345.254 159.718c1.679.243 3.874-2.838 2.408-5.96-.728 3.116-5.613 5.384-2.408 5.96zm3.596-1.848c1.297.727 4.575-2.762 4.158-5.045-1.832 2.917-5.51 3.76-4.157 5.046z"/><path d="m345.021 163.002c1.26 1.225 7.447-5.06 9.29-7.917-5.355 4.563-10.834 5.713-9.29 7.917zm-1.474 3.759c.985 1.491 5.11-3.007 7.718-6.748-3.305 3.262-8.904 4.754-7.718 6.748z"/><path d="m343.962 163.177c1.009-2.664-.663-3.089-1.419-6.401-1.493 1.831-1.325 6.896 1.419 6.401zm-1.647 3.676c2.005-.559-1.237-3.969-1.916-6.401-.306 4.474-.253 6.705 1.916 6.401zm-1.952 3.217c1.85-.673-1.046-2.362-1.342-6.095-.92 1.372-1.402 6.59 1.342 6.095z"/><path d="m337.597 170.862c1.179-.638.694-3.682-1.117-4.084-.421 2.388-.367 4.12 1.117 4.084z"/><path d="m360.952 176.313c.466-.09 1.104-.249.523.48-4.638 5.74-5.98 7.322-12.742 6.514-6.832-.903-8.458-2.76-13.241-5.457-2.555-1.506-6.29-1.84-9.122-.907-1.318.434-2.116.46-1.17-.49.944-.95 2.061-2.242 3.224-3.132 2.546-1.964 6.865-2.816 10.39-2.184 4.985.786 9.105 3.975 14.027 5.18 2.586.593 5.423.504 8.11-.004z"/><path d="m360.952 176.313c.466-.09 1.104-.249.523.48-4.638 5.74-5.98 7.322-12.742 6.514-6.832-.903-8.458-2.76-13.241-5.457-2.555-1.506-6.29-1.84-9.122-.907-1.318.434-2.116.46-1.17-.49.944-.95 2.061-2.242 3.224-3.132 2.546-1.964 6.865-2.816 10.39-2.184 4.985.786 9.105 3.975 14.027 5.18 2.586.593 5.423.504 8.11-.004z"/><path d="m321.892 186.412c-.856.107-1.399 1.786-1.82.65-.715-1.84-.214-3.304.589-3.142.948.256 2.553 2.407 1.231 2.492z"/><path d="m321.892 186.412c-.856.107-1.399 1.786-1.82.65-.715-1.84-.214-3.304.589-3.142.948.256 2.553 2.407 1.231 2.492z"/><path d="m331.27 178.926c2.424.63 3.054-2.163 3.291-4.194-2.186.471-4.476 1.738-3.291 4.194zm-.969 2.479c.427 1.933 5.17-.06 6.091-2.766-3.371 1.967-6.698-.176-6.09 2.766z"/><path d="m328.603 181.31c2.167.358.96-3.036.836-6.385-1.213 2.73-2.945 6.094-.836 6.384zm-2.736 3.211c2.36.295.863-4.254.222-7.311-.775 2.833-2.48 7.062-.222 7.311z"/><path d="m327.264 184.625c.287 2.574 5.163-.308 8.001-1.89-3.748.582-8.422-.635-8.001 1.89zm-2.681 3.6c.287 2.573 5.164-.308 8.002-1.89-3.749.581-8.423-.635-8.002 1.89z"/><path d="m323.34 188.121c2.243.065.594-4.828-.047-7.886-.774 2.834-2.25 7.79.047 7.886zm-1.935 3.129c.287 2.573 4.743.037 7.504-1.737-3.787.81-7.925-.789-7.504 1.737z"/><path d="m346.48 186.934c1.334 2.219 6.258-1.615 8.944-3.59-3.861 1.192-9.875.734-8.944 3.59z"/><path d="m341.455 189.24c.48 2.545 8.788.445 9.972-1.441-3.82 1.618-10.428-.757-9.972 1.441z"/><path d="m337.542 191.183c.25 1.396 6.606.866 9.82-.216-3.476.432-10.466-2.02-9.82.216z"/><path d="m334.223 192.846c.02 1.281 7.41 2.015 9.896-.062-4.968.737-10.39-3.016-9.896.062z"/><path d="m328.382 194.044c-.286 1.778 7.754 1.401 10.278.51-4.316-.333-9.89-3.13-10.278-.51z"/><path d="m328.259 192.425c1.812 1.662 6.472-5.764 7.989-9.035-3.586 3.739-10.056 7.58-7.99 9.035z"/><path d="m333.547 191.17c2.157 1.433 4.137-3.81 5.232-7.657-2.054 3.318-7.298 5.476-5.232 7.657z"/><path d="m337.719 189.73c2.157 1.433 3.372-3.312 3.893-6.279-1.48 2.553-5.96 4.098-3.893 6.279z"/><path d="m341.757 187.206c2.157 1.433 4.865-2.546 4.237-6.469-.828 4.046-6.303 4.288-4.237 6.47zm-8.188 11.166c1.063 2.706 12.237-2.365 14.11-5.748-3.59 3.034-15.15 2.62-14.11 5.748z"/><path d="m244.49 123.149c-.354-3.518 2.292-9.916.414-13.326-.256-.469.562-1.713 1.09-.958.826 1.205 1.675 4.638 2.03 3.37.377-1.378.434-3.816 1.655-4.29.778-.277 1.88-.458 1.58.767-.3 1.178-.967 2.806-.227 2.91.43.064 1.666-1.603 2.708-2.374.839-.687 2.091.389.864 1.417-3.989 3.312-7.853 4.803-10.114 12.484z"/><path d="m244.49 123.149c-.354-3.518 2.292-9.916.414-13.326-.256-.469.562-1.713 1.09-.958.826 1.205 1.675 4.638 2.03 3.37.377-1.378.434-3.816 1.655-4.29.778-.277 1.88-.458 1.58.767-.3 1.178-.967 2.806-.227 2.91.43.064 1.666-1.603 2.708-2.374.839-.687 2.091.389.864 1.417-3.989 3.312-7.853 4.803-10.114 12.484z"/><path d="m237.324 176.097c-.468-.09-1.11-.25-.526.479 4.66 5.74 6.008 7.323 12.804 6.515 6.864-.904 8.498-2.76 13.304-5.457 2.567-1.506 6.32-1.84 9.166-.907 1.324.433 2.126.46 1.176-.491-.95-.95-2.072-2.242-3.24-3.131-2.559-1.965-6.898-2.817-10.44-2.184-5.01.785-9.148 3.975-14.094 5.18-2.599.593-5.45.503-8.15-.004z"/><path d="m237.324 176.097c-.468-.09-1.11-.25-.526.479 4.66 5.74 6.008 7.323 12.804 6.515 6.864-.904 8.498-2.76 13.304-5.457 2.567-1.506 6.32-1.84 9.166-.907 1.324.433 2.126.46 1.176-.491-.95-.95-2.072-2.242-3.24-3.131-2.559-1.965-6.898-2.817-10.44-2.184-5.01.785-9.148 3.975-14.094 5.18-2.599.593-5.45.503-8.15-.004z"/><path d="m276.542 186.357c.867.108 1.416 1.787 1.842.65.724-1.84.217-3.303-.596-3.141-.96.255-2.583 2.407-1.246 2.491z"/><path d="m276.542 186.357c.867.108 1.416 1.787 1.842.65.724-1.84.217-3.303-.596-3.141-.96.255-2.583 2.407-1.246 2.491z"/></g><path d="m274.61 187.922c2.325.529 2.293-5.07-.08-7.443 1.044 3.596-1.748 6.883.08 7.443zm-.9-.051c.153 2.661-6.531-.347-8.249-2.417 3.949 1.678 8.054.289 8.248 2.417zm-2.93-3.798c.239 2.578-5.797.312-7.58-1.701 3.963 1.28 7.316-.42 7.58 1.701zm1.112.364c2.324.529 1.948-5.262-.311-7.251 1.084 3.864-1.517 6.692.31 7.25zm-2.451-3.523c2.325.529.99-4.457-.732-6.448.28 3.635-.866 6.156.732 6.448zm-1.227-.019c.24 2.654-4.456.616-6.278-1.895 3.924 1.281 6.014-.226 6.278 1.895zm-1.279-2.013c1.523-1.095-.093-3.991-2.991-3.812.283 1.75 1.285 4.825 2.99 3.812zm11.448 12.001c.153 2.661-6.531 1.338-8.632-1.498 4.217.797 8.437-.63 8.632 1.498z" fill="#e8d94c"/><g fill="#d4aa00" fill-opacity=".941"><path d="m234.118 120.354c-.997-1.041-.708-1.44.766-1.456 1.17-.074 3.487.717 4.366.076.806-.585.485-3.067.843-4.212.156-.638.603-1.64 1.608-.076 2.972 4.763 6.684 10.48 8.272 16.083.867 3.14.05 8.042-2.834 11.335.101-2.808-.945-4.697-2.222-7.046-1.576-3.087-7.431-11.448-10.799-14.704z"/><path d="m246.372 145.397c3.268.016 3.83-4.365 3.83-5.59-1.609.305-4.443 2.986-3.83 5.59z"/><path d="m234.118 120.354c-.997-1.041-.708-1.44.766-1.456 1.17-.074 3.487.717 4.366.076.806-.585.485-3.067.843-4.212.156-.638.603-1.64 1.608-.076 2.972 4.763 6.684 10.48 8.272 16.083.867 3.14.05 8.042-2.834 11.335.101-2.808-.945-4.697-2.222-7.046-1.576-3.087-7.431-11.448-10.799-14.704z"/><path d="m246.372 145.397c3.268.016 3.83-4.365 3.83-5.59-1.609.305-4.443 2.986-3.83 5.59z"/></g><path d="m274.61 187.922c2.325.529 2.293-5.07-.08-7.443 1.044 3.596-1.748 6.883.08 7.443zm-.9-.051c.153 2.661-6.531-.347-8.249-2.417 3.949 1.678 8.054.289 8.248 2.417zm-2.93-3.798c.239 2.578-5.797.312-7.58-1.701 3.963 1.28 7.316-.42 7.58 1.701zm1.112.364c2.324.529 1.948-5.262-.311-7.251 1.084 3.864-1.517 6.692.31 7.25zm-2.451-3.523c2.325.529.99-4.457-.732-6.448.28 3.635-.866 6.156.732 6.448zm-1.227-.019c.24 2.654-4.456.616-6.278-1.895 3.924 1.281 6.014-.226 6.278 1.895zm-1.279-2.013c1.523-1.095-.093-3.991-2.991-3.812.283 1.75 1.285 4.825 2.99 3.812zm11.448 12.001c.153 2.661-6.531 1.338-8.632-1.498 4.217.797 8.437-.63 8.632 1.498z" fill="#d4aa00" fill-opacity=".941"/><g fill="#e8d94c"><path d="m251.828 186.126c.24 2.654-7.059-.265-8.881-2.776 3.925 1.281 8.617.655 8.881 2.776zm4.473 1.134c1.523-1.095-1.585-3.915-4.062-4.578.283 1.75 2.356 5.591 4.062 4.578zm.467 1.836c.163 2.386-7.827 1.077-9.916-1.128 6.874 1.243 9.69-.916 9.916 1.128z"/><path d="m260.507 190.688c.887 2.217-6.782 1.676-9.474.387 4.35-.038 8.864-1.931 9.474-.387z"/><path d="m264.094 192.306c.849 1.987-6.245 1.944-9.703.846 4.58-.038 8.863-2.811 9.703-.846zm5.158 1.067c1.256 2.35-6.227 2.58-8.655 1.422 4.327-.595 7.584-3.272 8.655-1.422zm-8.762-4.023c-2.381 1.502-2.254-2.924-4.147-5.99 2.975 2.71 5.76 4.56 4.146 5.99z"/><path d="m264.71 190.941c-1.996 1.77-3.593-4.305-5.41-7.713 2.938 3.245 7.253 6.244 5.41 7.713zm5.576 1.692c-1.691 1.96-6.58-5.759-8.36-9.78 2.708 3.13 9.705 8.119 8.36 9.78z"/></g><g fill="#d4aa00" fill-opacity=".941"><path d="m251.828 186.126c.24 2.654-7.059-.265-8.881-2.776 3.925 1.281 8.617.655 8.881 2.776zm4.473 1.134c1.523-1.095-1.585-3.915-4.062-4.578.283 1.75 2.356 5.591 4.062 4.578zm.467 1.836c.163 2.386-7.827 1.077-9.916-1.128 6.874 1.243 9.69-.916 9.916 1.128z"/><path d="m260.507 190.688c.887 2.217-6.782 1.676-9.474.387 4.35-.038 8.864-1.931 9.474-.387z"/><path d="m264.094 192.306c.849 1.987-6.245 1.944-9.703.846 4.58-.038 8.863-2.811 9.703-.846zm5.158 1.067c1.256 2.35-6.227 2.58-8.655 1.422 4.327-.595 7.584-3.272 8.655-1.422zm-8.762-4.023c-2.381 1.502-2.254-2.924-4.147-5.99 2.975 2.71 5.76 4.56 4.146 5.99z"/><path d="m264.71 190.941c-1.996 1.77-3.593-4.305-5.41-7.713 2.938 3.245 7.253 6.244 5.41 7.713zm5.576 1.692c-1.691 1.96-6.58-5.759-8.36-9.78 2.708 3.13 9.705 8.119 8.36 9.78z"/><path d="m265.53 198.528c-.843 2.98-13.286-2.809-14.676-5.808 7.12 3.772 14.847 2.983 14.677 5.808z"/><path d="m225.54 137.968c-.29-.377-1.126.01-.918.92.194 1.231 2.01 7.552 5.13 9.726 2.225 1.604 13.921 4.187 19.224 5.284 2.918.587 5.362 2.043 7.276 4.366-.792-3.038-1.428-5.288-2.45-8.04-.994-2.42-3.628-5.067-6.357-5.21-5.067-.182-11.625-.613-16.39-2.68-2.46-1.028-3.932-2.416-5.514-4.366z"/><path d="m225.54 137.968c-.29-.377-1.126.01-.918.92.194 1.231 2.01 7.552 5.13 9.726 2.225 1.604 13.921 4.187 19.224 5.284 2.918.587 5.362 2.043 7.276 4.366-.792-3.038-1.428-5.288-2.45-8.04-.994-2.42-3.628-5.067-6.357-5.21-5.067-.182-11.625-.613-16.39-2.68-2.46-1.028-3.932-2.416-5.514-4.366z"/><path d="m254.584 162.984c1.597 1.177 3.36-3.04 1.331-7.047-.064 3.858-3.13 5.153-1.331 7.047z"/><path d="m256.115 166.852c2.21.678 2.902-3.231 1.447-6.358.242 3.36-3.474 5.383-1.447 6.358z"/><path d="m257.8 169.952c2.133 1.063 2.94-2.886 1.407-5.819.168 3.741-3.053 4.844-1.408 5.82z"/><path d="m256.922 170.194c-.846 2.527-5.75-2.18-6.576-4.74 3.043 3.025 7.185 2.69 6.576 4.74z"/><path d="m254.7 166.326c-.96 2.527-7.127-3.98-8.49-7.113 3.044 3.024 9.177 5.332 8.49 7.113z"/><path d="m253.475 162.535c-.96 2.872-7.664-4.784-9.563-7.497 3.198 2.986 10.287 5.41 9.563 7.497zm-.213-2.837c2.36-.46-.134-2.425-3.027-5.62-.135 3.364.417 5.716 3.027 5.62z"/><path d="m249.28 157.783c1.02-1.11-.977-1.583-3.449-4.357-.365 1.87 2.293 5.296 3.449 4.357zm11.43 12.475c1.29.756 2.175-1.89.565-4.287-.368 2.592-1.75 3.312-.566 4.287z"/><path d="m232.647 153.556c-2.742 1.644-7.1-4.917-8.261-7.617 2.407 3.098 8.78 5.928 8.261 7.617z"/><path d="m234.983 157.384c-1.518 1.683-6.295-2.887-7.955-5.203 2.56 2.217 8.626 2.481 7.955 5.203z"/><path d="m237.583 160.811c-.5 2.299-7.472-2.868-9.102-5.313 3.006 2.832 9.559 2.576 9.102 5.313z"/><path d="m236.512 163.3c-1.076 2.069-6.746-3.058-8.107-5.734 3.464 3.024 8.984 3.687 8.107 5.734zm-2.914-10.082c1.79-1.886 1.027-2.77-.277-5.744-.713 3.053-1.788 4.272.277 5.744zm2.374 3.562c3.245.143.031-3.806-.736-7.122.282 3.78-.832 6.76.736 7.122z"/><path d="m238.04 159.92c2.25-.508 1.6-3.69-.123-7.544.358 4.164-1.904 6.57.124 7.544zm-.763 6.29c-.845 2.529-7.243-3.327-8.26-5.542 3.235 2.717 8.832 3.648 8.26 5.543z"/><path d="m241.106 170.155c-.96 2.528-7.664-2.599-9.715-5.39 4.04 3.178 10.21 2.883 9.715 5.39z"/><path d="m245.012 174.137c-1.075 3.524-8.085-2.101-10.175-4.853 4.46 3.406 10.746 2.346 10.175 4.853zm-6.589-9.047c1.905.985 2.674-4.418 1.6-8.233.014 4.164-3.82 7.258-1.6 8.233z"/><path d="m241.678 169.378c2.288.68 1.563-5.144-.392-8.922-.253 3.743-1.942 7.297.392 8.922zm4.059 4.022c2.556.142.797-4.993-1.31-7.89.358 3.781-.832 7.45 1.31 7.89zm-4.477 2.192c-.769 1.302-2.648-1.105-5.733-2.862 2.775.726 6.074 1.656 5.733 2.862z"/><path d="m239.793 132.31c2.385-1.764.565-5.065 0-8.204-.768 2.977-2.788 6.884 0 8.204zm-.081 4.405c-3.583-.43-3.043-5.064-3.151-8.001 1.077 3.986 4.014 4.66 3.151 8zm.566-.606c3.031-.176 2.87-3.624 3.032-7.113-1.536 3.206-3.355 3.704-3.032 7.113z"/><path d="m240.157 140.393c-2.357.188-3.582-2.128-4.122-5.739 2.236 3.327 4.27 2.29 4.122 5.739zm.848-.283c3.031.39 2.547-3.138 2.426-5.74-.93 2.48-3.395 3.261-2.426 5.74z"/><path d="m236.277 138.614c.243 2.304 1.698 6.265 4.042 5.375.97-2.829-2.061-3.394-4.042-5.375z"/><path d="m241.047 144.233c-1.051-2.02 2.384-3.033 3.111-5.659.418 3.759.068 6.224-3.111 5.659z"/><path d="m231.27 120.289c1.887-2.032.22-5.257-.345-8.395-.768 2.977-2.098 6.921.345 8.395zm-.06 3.783c-3.314.336-4.116-6.405-4.453-9.303 1.077 3.986 4.894 5.809 4.453 9.303zm.683-.062c2.341-1.209 1.797-3.814 2.534-5.772-1.575 2.403-3.01 2.747-2.534 5.773z"/><path d="m231.242 128.42c-3.468.296-5.533-7.171-5.641-10.108 1.077 3.987 6.044 6.154 5.64 10.107zm.658-.11c3.26-.75 2.87-2.858 2.38-6.27-1.038 3.437-2.857 2.708-2.38 6.27z"/><path d="m231.196 132.732c-3.813.647-3.545-5.384-6.572-9.759 2.618 3.25 7.332 7.344 6.572 9.759zm.861-.206c2.878.083 3.16-4.25 3-6.007-.662 1.75-4.046 3.413-3 6.007z"/><path d="m225.24 128.083c1.429 4.64 3.459 9.29 5.956 8.937 1.198-2.638-2.369-2.975-5.957-8.937z"/><path d="m232.098 136.344c-1.05-2.02 2.384-3.032 3.112-5.658.417 3.758.067 6.224-3.112 5.658zm-5.874-2.959c2.04 4.18 2.961 8.983 5.764 8.285 1.046-3.25-3.095-3.93-5.764-8.285z"/><path d="m232.569 140.88c-1.204-2.211 2.231-2.994 3.073-6.041.456 3.989.03 6.836-3.073 6.041z"/><path d="m238.446 112.588c2.012.544 4.121-1.715 3.39-5.095-2.299.573-3.353 2.66-3.39 5.095zm-6.436-1.692c.176.951 1.333 1.038.997-.305-.28-1.09-.329-1.91 0-2.796.45-1.11.3-3.002-.039-3.791-.34-.833-1.471-.345-.995.307.523.756.55 2.328.19 3.062-.473 1.084-.344 2.524-.152 3.523zm6.954-3.615c-.191 1.485-1.448 1.62-1.083-.477.305-1.703.357-2.983 0-4.367-.489-1.735-.326-4.688.042-5.92.37-1.302 1.599-.54 1.082.479-.569 1.18-.599 3.636-.208 4.783.515 1.693.375 3.94.166 5.502zm9.366 14.841c-.776 1.143-2.015.48-1.313-1.356.592-1.27.656-2.845 1.316-3.775.923-1.408 2.487-2.582 3.375-3.434.917-.908 1.678-.033.837.745-1.021 1.022-2.129 2.293-2.745 3.257-1.148 1.871-.642 3.365-1.47 4.563z"/><path d="m250.779 123.959c-.777 1.143-2.364.444-1.155-1.126.99-1.271 2.402-2.31 2.507-3.622.082-1.665 1.059-4.19 1.947-5.042.917-.908 1.976.369.996.974-1.102.716-1.817 3.657-1.793 4.789-.037 1.642-1.675 2.828-2.502 4.027z"/><path d="m250.779 123.959c-.777 1.143-2.364.444-1.155-1.126.99-1.271 2.402-2.31 2.507-3.622.082-1.665 1.059-4.19 1.947-5.042.917-.908 1.976.369.996.974-1.102.716-1.817 3.657-1.793 4.789-.037 1.642-1.675 2.828-2.502 4.027z"/><path d="m235.418 116.204c-.092 1.614 1.207 2.005 1.149-.335-.059-2.444-1.788-4.68-.728-8.399.558-1.82.568-5.154.23-6.927-.297-1.758-1.548-.609-1.073.76.524 1.587-.098 4.631-.498 6.163-1.2 4.459.99 6.63.92 8.738z"/><path d="m235.418 116.204c-.092 1.614 1.207 2.005 1.149-.335-.059-2.444-1.788-4.68-.728-8.399.558-1.82.568-5.154.23-6.927-.297-1.758-1.548-.609-1.073.76.524 1.587-.098 4.631-.498 6.163-1.2 4.459.99 6.63.92 8.738z"/><path d="m321.274 187.195c-.442-.003-.992.135-1.72.438-5.925 2.698-13.45 4.668-20.812 4.812-6.849.059-16.246-3.125-20.156-4.781-1.014-.437-2.193-.02-3.25 1.094-3.55 3.479-7.731 6.863-11.094 9.5-1.254 1.09-2.54 3.076 2.813 5.03.194.074 4.09 1.502 6.562 1.595 1.01-.029 1.031 1.473.844 1.875-.426.802-.138 1.133-1 1.906-.898.758.107 1.729.813 1.062 3.013-2.616 7.915-.937 12.625.594 1.112.308 3.142.223 3.125-1.312.02-1.673 1.227-2.864 1.968-2.907 1.923.334 11.418.45 14.344.094 1.706-.222 1.806 2.335 2.719 3.344.63.668 3.058.827 4.719.093 3.283-1.525 8.273-1.52 10.312-.062.838.638 1.508.117 1.031-.531-.613-.886-.601-1.3-.906-2-.766-1.558-.147-1.919.656-2.032 9.071-1.169 11.961-4.289 9.188-6.812-3.581-3.14-7.565-6.289-11-10-.582-.615-1.046-.995-1.781-1zm-.125 1.125c.446-.044.843.03 1.062.344 2.466 3.488 6.204 5.771 9.656 8.594 1.053.892.288 1.5-.53 1.812-6.145 2.052-12.895 6.506-32.095 6.688-19.017.179-25.621-4.388-32.468-6.844-.735-.302-.784-1.15-.407-1.438a95.352 95.352 0 0 0 9.75-8.5c.478-.463 1.476-.763 2.094-.5 6.45 2.651 13.626 4.55 20.5 4.563 7.04.013 13.796-1.8 21.125-4.375.371-.136.866-.3 1.313-.344zm-40.532 17.094c1.723.009 3.25.054 3.875.062 1.877.027 3.359 1.234 4.125 2.344.446.625.244 2.42-2.28 1.375-3.674-1.481-7.584-2.724-11.22-1.219.337-.798.454-1.617.407-2.53 1.458-.016 3.37-.042 5.093-.032zm42.094.062c.038.97.144 1.753.719 2.532-3.345-1.34-8.083-.63-11.313.875-1.44.688-3.158-.791-1.468-2.188 2.403-1.948 7.964-.836 12.062-1.219z"/></g><g fill="#e8d94c"><path d="m341.371 170.403c.411 1.415 6.068-1.17 8.944-6.825-3.766 4.105-9.86 4.065-8.944 6.825z"/><path d="m341.371 170.403c.411 1.415 6.068-1.17 8.944-6.825-3.766 4.105-9.86 4.065-8.944 6.825z"/></g><g fill="#d4aa00" fill-opacity=".941"><path d="m350.797 161.806c-1.723 2.395-4.022 4.128-4.126 6.025-.176 2.184-.35 2.295-.97 4.442 1.709-.434 2.139-.576 2.6-3.844.285-2.296 2.752-4.51 2.496-6.623z"/><path d="m350.797 161.806c-1.723 2.395-4.022 4.128-4.126 6.025-.176 2.184-.35 2.295-.97 4.442 1.709-.434 2.139-.576 2.6-3.844.285-2.296 2.752-4.51 2.496-6.623z"/><path d="m353.595 158.502c-2.097.984-2.573 2.614-2.656 4.633-.041 2.337-.634 4.143-1.718 5.78 2.16.3 2.553-3.084 2.798-5.6.248-2.603.689-2.812 1.576-4.813z"/><path d="m353.595 158.502c-2.097.984-2.573 2.614-2.656 4.633-.041 2.337-.634 4.143-1.718 5.78 2.16.3 2.553-3.084 2.798-5.6.248-2.603.689-2.812 1.576-4.813z"/><path d="m359.453 107.173c.188 1.485 1.425 1.62 1.065-.478-.3-1.702-.351-2.982 0-4.366.482-1.735.321-4.688-.04-5.92-.366-1.302-1.575-.54-1.066.478.56 1.18.59 3.637.204 4.783-.506 1.694-.369 3.941-.163 5.503z"/><path d="m359.453 107.173c.188 1.485 1.425 1.62 1.065-.478-.3-1.702-.351-2.982 0-4.366.482-1.735.321-4.688-.04-5.92-.366-1.302-1.575-.54-1.066.478.56 1.18.59 3.637.204 4.783-.506 1.694-.369 3.941-.163 5.503z"/><path d="m362.942 116.096c.09 1.614-1.188 2.005-1.131-.335.058-2.444 1.76-4.68.716-8.399-.55-1.82-.559-5.154-.226-6.926.292-1.758 1.524-.61 1.056.76-.516 1.586.096 4.63.49 6.162 1.182 4.459-.975 6.63-.905 8.738z"/><path d="m362.942 116.096c.09 1.614-1.188 2.005-1.131-.335.058-2.444 1.76-4.68.716-8.399-.55-1.82-.559-5.154-.226-6.926.292-1.758 1.524-.61 1.056.76-.516 1.586.096 4.63.49 6.162 1.182 4.459-.975 6.63-.905 8.738z"/><path d="m366.296 110.788c-.173.95-1.311 1.037-.98-.306.276-1.09.323-1.91 0-2.796-.443-1.11-.295-3.002.038-3.79.335-.834 1.448-.346.98.306-.515.756-.542 2.328-.188 3.062.466 1.085.34 2.524.15 3.524z"/><path d="m366.296 110.788c-.173.95-1.311 1.037-.98-.306.276-1.09.323-1.91 0-2.796-.443-1.11-.295-3.002.038-3.79.335-.834 1.448-.346.98.306-.515.756-.542 2.328-.188 3.062.466 1.085.34 2.524.15 3.524z"/><path d="m359.324 112.646c-1.674.71-3.837-4.047-2.238-4.94 1.24-.311 4.077 4.035 2.238 4.94z"/><path d="m359.324 112.646c-1.674.71-3.837-4.047-2.238-4.94 1.24-.311 4.077 4.035 2.238 4.94z"/><path d="m349.936 122.061c.75 1.143 1.945.48 1.268-1.356-.572-1.27-.634-2.845-1.27-3.774-.891-1.409-2.4-2.583-3.257-3.435-.885-.907-1.62-.033-.808.745.986 1.022 2.055 2.294 2.649 3.257 1.108 1.872.62 3.365 1.418 4.563z"/><path d="m349.936 122.061c.75 1.143 1.945.48 1.268-1.356-.572-1.27-.634-2.845-1.27-3.774-.891-1.409-2.4-2.583-3.257-3.435-.885-.907-1.62-.033-.808.745.986 1.022 2.055 2.294 2.649 3.257 1.108 1.872.62 3.365 1.418 4.563z"/></g><g fill="#e8d94c"><path d="m347.868 123.286c.75 1.143 2.282.444 1.115-1.126-.956-1.27-2.318-2.309-2.42-3.622-.078-1.664-1.021-4.19-1.878-5.042-.885-.907-1.907.37-.961.975 1.063.715 1.754 3.657 1.73 4.788.036 1.643 1.617 2.829 2.414 4.027z"/><path d="m347.868 123.286c.75 1.143 2.282.444 1.115-1.126-.956-1.27-2.318-2.309-2.42-3.622-.078-1.664-1.021-4.19-1.878-5.042-.885-.907-1.907.37-.961.975 1.063.715 1.754 3.657 1.73 4.788.036 1.643 1.617 2.829 2.414 4.027z" fill="#d4aa00" fill-opacity=".941"/></g><path d="m282.064 176.416c2.272 1.813 4.414 3.872 5.055 6.434.669 2.386 1.072 4.212 2.605 6.586-2.4-1.532-3.353-3.847-4.06-6.358-.62-2.467-2.043-4.312-3.6-6.662z" fill="#e8d94c"/><path d="m282.064 176.416c2.272 1.813 4.414 3.872 5.055 6.434.669 2.386 1.072 4.212 2.605 6.586-2.4-1.532-3.353-3.847-4.06-6.358-.62-2.467-2.043-4.312-3.6-6.662zm-2.604 0c2.12 1.736 3.495 3.718 4.136 6.28.668 2.386 1.608 4.289 2.988 6.434-2.247-1.533-3.66-3.617-4.367-6.128-.62-2.469-1.352-4.313-2.757-6.586zm39.673 0c-2.167 1.747-3.573 3.74-4.228 6.317-.683 2.4-1.644 4.314-3.054 6.471 2.297-1.54 3.74-3.637 4.463-6.163.634-2.483 1.383-4.34 2.819-6.625zm-2.662 0c-2.323 1.824-4.512 3.895-5.167 6.471-.684 2.4-1.097 4.237-2.663 6.626 2.453-1.542 3.427-3.87 4.15-6.396.634-2.482 2.088-4.338 3.68-6.701zm-7.693 6.05c.062-.448-.243-.84-.61-.957a27.208 27.208 0 0 0 -2.134-.69c-.805-.19-1.255.387-1.258.766-.004.632-.034 1.168 0 1.646.043.596.157.64.533.729.603.102 1.376.206 1.982.612.48.296.942.062 1.182-.458.155-.398.24-1.177.305-1.648zm-8.675 0c-.056-.448.18-.877.507-.995.638-.269 1.274-.334 1.944-.307.744-.012.932.157.934.536.003.632.03 1.244 0 1.723-.039.596-.026.64-.362.728-.539.102-1.458.13-1.999.536-.429.296-.918.062-.941-.497a14.96 14.96 0 0 0 -.083-1.724zm-10.533-.116c-.062-.447.245-.838.613-.956a27.433 27.433 0 0 1 2.144-.689c.809-.191 1.262.386 1.265.766.004.63.033 1.167 0 1.646-.044.596-.158.64-.537.728-.605.102-1.382.206-1.99.613-.483.296-.947.061-1.188-.46-.156-.397-.24-1.176-.307-1.647zm8.716.001c.057-.448-.18-.877-.51-.995-.64-.268-1.279-.334-1.952-.307-.748-.011-.936.157-.94.537-.002.63-.029 1.244 0 1.722.04.596.027.64.365.728.541.102 1.465.13 2.008.537.431.296.923.061.946-.497-.01-.422.025-1.253.083-1.725zm-8.065 3.983c.779 1.467 1.673 3.701 3.293 3.293.026-1.124-1.749-1.902-3.293-3.293zm2.413.496c3.147 1.29 5.865.972 6.203 2.95-2.952.32-4.032-.894-6.203-2.95z" fill="#d4aa00" fill-opacity=".941"/><path d="m308.067 186.525c-.79 1.384-1.695 3.49-3.338 3.104-.026-1.059 1.773-1.792 3.338-3.104z" fill="#e8d94c"/><path d="m305.859 186.946c-3.193 1.224-5.95.922-6.294 2.799 2.996.302 4.091-.848 6.294-2.8zm9.42-31.368 6.855.001c.025 2.591 1.544 5.374 3.676 6.969h-13.136c2.056-1.864 2.617-4.072 2.605-6.97zm-39.674 37.185c-.824-.532-1.196.16-.612.88.756.831 1.98 1.331 3.254 1.686.743.207 2.277-.054 3.065.038.612.077.958 1.313 2.068 1.264 1.12-.048 1.838-3.025 1.876-4.52.051-.99-1.317-.357-1.187.04.359.984-.298 3.18-.996 3.178-.514-.031-1.064-1.096-1.838-1.225-.605-.1-1.522.07-2.145.076-1.82.018-2.604-.89-3.485-1.417z" fill="#d4aa00" fill-opacity=".941"/><path d="m277.136 191.959c.972.485 1.82-.384 2.376.23 1.417 1.609 3.24-.77 1.11-.689-.861.033-.996-.652-2.49-.499-.795.102-1.46.687-.996.958zm.231 7.046c-.768-.335-1.026.394-.575.843.634.579 3.264.809 3.907.345 1.063-.807.286-2.926-.191-3.524-.298-.364-1.196-.391-.843.575.146.448.799 1.563.267 2.068-.486.465-1.83-.001-2.565-.307zm5.898.652c.169-.432-.286-1.177-1.073-.307-.65.686-.123 3.58 1.954 4.098 2.029.498 3.55-.232 3.829-1.34.193-.738-.919-1.38-.345-2.03.48-.51 1.405.006 1.8-.804.232-.454.25-1.384-.996-1.992-.54-.272-1.475.348-1.455.805.029.628 1.002.218.65.765-.256.417-1.406.243-1.76 1.226-.212.624 1.302 1.777.498 2.068-.718.248-1.653.409-2.605-.115-.588-.311-.838-1.602-.497-2.374zm-7.315-3.983c-.483.07-1.149.422-1.187.996-.03.46.35 1.259.996.726.667-.517.155-.762.306-.574.332.332-.155.36-.766 1.188-.425.628-1.334.527-1.8.306-.803-.415-.502-.68-1.379-1.072-.875-.43-1.405.579-.574 1.034.918.526 2.423 1.578 3.906.805.882-.498 1.915-.952 1.877-2.069-.05-.725-.373-1.481-1.38-1.34zm47.64-.384c-.678-.484-.263-1.362.728-1.033.843.311 2.243 1.304 2.335 2.604.105 1.422-2.186 2.462-3.062 2.414-1.501-.122-1.234-1.312-.116-1.227.866.063 1.931-.246 1.992-1.149.05-.783-1.39-1.239-1.877-1.608zm-4.94-3.484c-.876-.883.957-1.838 1.493-.766.707 1.364 1.548 2.706 2.183 4.213.506 1.236-.158 1.403-.574.727-.697-1.176-1.753-2.75-3.102-4.174z" fill="#d4aa00" fill-opacity=".941"/><path d="m314.361 194.449c.942-.41.919.765.575.996-.623.346-1.456-.575-.575-.996zm2.796-1.034c.942-.41.918.765.574.996-.622.346-1.456-.575-.574-.996z" fill="#e8d94c"/><g fill="#d4aa00" fill-opacity=".941"><path d="m287.936 195.061c-1.413-.902.288-2.25 1.264-1.225 1.399 1.428 2.736 4.558 3.792 5.745 1.004 1.165.195-3.161.498-4.443.207-.713.763-.613.765.076.005 1.763-.266 5.349.191 5.63.857.487.702 1.282 1.417 1.149.767-.182.652-.383 1.341-.421.683 0 .707.685 1.494.574.502-.066.653-.634 1.263-.652.555-.047.316 1.18-.038 1.38-.577.324-2.375-.354-2.91-.307-.637.017-1.784.608-2.49.345-.862-.308-.67-1.4-1.264-1.226-.671.155-.545 1.378-2.144 1.762-.749.17-1-.502-.612-.958.695-.743 2.095-1.336 1.876-2.03-.648-1.93-2.606-4.257-4.443-5.399zm12.294.268c.679 2.235.645 5.207 1.033 7.238.192.8.956.088.882-.536-.301-2.18-.434-4.858-.996-6.931-.234-.718-1.18-.579-.92.229zm1.875.575c-.179-.932.713-1.02.844-.46.46 1.799.4 5.915 1.301 6.051 1.555.177 3.735-.144 5.668-.536.951-.19 1.146-.878 1.111-1.15-.182-1.106.85-1.019 1.11.154.14.612-.137 1.708-1.301 1.953-2.275.439-5.407 1.116-7.2.727-1.57-.332-1.059-4.387-1.533-6.739z"/><path d="m304.634 197.512c.039-1.18.924-1.353.918-.345.025 2.413 2.849 1.786 3.448.881.442-.706.118-1.01-.307-1.8-.53-1.022.591-1.31 1.072-.421.36.636.61 2.664-.038 3.18-.897.71-3.321 1.059-4.366.267-.555-.383-.77-1.116-.727-1.762zm-1.226-3.141c.126.756 2.182.498 2.106-.076-.07-.494-2.22-.384-2.106.076zm2.681.613c.08.762 1.411.537 1.34-.038-.07-.609-1.417-.729-1.34.038zm4.021-.919c-.676-.933.639-.992 1.072-.305 1.121 1.676 1.86 4.378 2.949 6.203.462.84 1.042.089 1.11-.115.073-.217-.352-.549-.382-1.302-.054-.585 1.143-1.312 1.991-.765.793.534.144 1.007.536 1.302.374.28 1.317.103 1.456-.077.419-.658-.152-.272-.728-.652-.667-.477-.267-2.546 1.11-1.685.82.474 1.061 1.991.766 2.834-.26.781-1.632 1.047-2.374.881-.837-.255-1.512-1.26-1.34-.996.413.68-.102 1.35-.498 1.609-.978.614-1.661.935-2.375-.076-1.264-1.894-1.96-5.09-3.293-6.856z"/><path d="m274.42 64.266c-.057-1.132 1.697-1.218 1.496.338-.257 1.938 3.658 6.845 3.983 9.871.218 2.029-1.192 3.805-2.588 4.91-1.712 1.326-4.344 1.144-5.575.383-.745-.6-1.424-2.653-.867-3.466.197-.273 1.09 3.014 3.054 3.001 2.673-.017 4.839-2.025 4.918-3.816.137-3.12-4.373-8.05-4.422-11.221zm7.823 7.704c.442-.316 1.148 1.063.65 1.408-.415.276-1.225-1.026-.65-1.408zm1.185-2.798c-.224.108-.668-.046-.535-.235.625-.894 1.958-2.239 2.925-2.708.297-.145.817.38.637.636-.578.827-1.986 1.802-3.027 2.307zm10.335-8.199c.248-.518 1.737-1.103 2.117-1.453.35-.36.518.304.368.617-.248.517-1.533 1.39-2.097 1.414-.303.013-.538-.266-.388-.578zm3.537.165c.322-.909 1.362-2.286 2.077-2.74.368-.232 1.028-.05.904.299-.273.77-1.546 2.118-2.402 2.753-.26.23-.654-.102-.58-.312zm-3.034 2.274c-.216.108-.099.568.109.637.442.147 1.247.176 1.611-.025.53-.326.289-2.334-.42-1.261-.475.661-.823.449-1.3.65zm-5.983 4.607c-1.08-.842.292-2.022 1.422-1.198 2.202 1.66-3.285 8.023-6.27 10.998-.546.582-1.026-.885-.326-1.517 2.14-1.815 4.144-3.984 5.537-6.224.269-.432.526-1.361-.363-2.06zm12.533-5.473c.135-.806-1.303.017-1.33-1.052-.014-.565 1.572-.962 2.234-.311 1.12 1.135.283 3.051-1.579 3.172-1.552.068-4.14 2.203-3.747 2.652.448.554 4.472.92 6.812.553 1.45-.203 1.145 1.093-.339 1.268-1.434.166-2.603.012-3.943.434-1.577.45-2.265 2.567-3.141 3.357-.195.138-.722-.694-.522-1.006.631-.988 1.638-2.499 2.746-2.931.699-.283-1.927-.373-2.766-.612-.664-.2-.471-1.045-.216-1.516.338-.735 2.813-3.214 3.811-3.173.937.04 1.887-.234 1.98-.835zm4.174.217c.465-.411.703-1.098 1.192-1.517.267-.268.695.053.623.7-.06.51-.744.949-1.204 1.332-.374.28-.81-.325-.612-.515zm5.308-1.893c.693-.077.865 1.261.108 1.478-.46.153-.862-1.4-.108-1.478zm-1.752 4.135c-.01 1.152.558 1.046 1.643 1.007 1.053-.04 1.98.027 1.975-1.013-.005-1.078-.597-2.022-.77-1.288-.153.69-.275 1.818-.676 1.326-.378-.422-.228-.515-.879.179-.36.382-.402-.186-.619-.542-.15-.211-.673.17-.674.331zm-7.564 5.881c-.259 1.525-.022 3.66.759 3.683.964.032 2.96-3.333 3.905-5.078.567-.973 1.54-1.144 1.134-.128-.614 1.568-.56 4.922-.02 5.907.291.531 2.433-.486 2.779-1.242.63-1.375.118-3.908.338-5.455.107-1.015 1.036-1.228.987-.286-.092 1.684-.252 4.772-.133 6.174.07.806 2.375 1.996 2.746-.445.195-1.537.986-3.052-.038-4.754-.636-1.065.932-.931 1.777.523.591.99-.498 2.627-.46 3.892.098 1.948-1.416 3.054-2.515 3.077-.982.02-1.623-1.187-2.427-1.203-.893-.057-1.811 1.389-2.55 1.338-2.86-.196-1.345-4.377-2.217-4.428-.97-.057-2.112 4.098-3.306 3.95-1.177-.142-2.396-3.387-1.906-4.76.443-1.277 1.278-1.577 1.147-.765z"/><path d="m314.835 64.292c-1.396-.851.088-3.066.77-2.288 1.318 1.578 2.646 5.323 3.574 5.633.588.196.56-2.769.976-4.116.267-.996 1.471-.67 1.24.605-.078.426-1.572 5.27-1.457 5.46 1.035 2.07 2.06 4.17 2.708 6.391.267.958-.883.313-1.02.114-.734-1.097-2.02-5.294-2.02-5.103-.59 2.953-.73 3.824-1.357 6.333-.191.804-1.374.658-1.108-.758.257-1.164 1.949-6.887 1.854-7.053-1.33-2.348-2.547-4.206-4.16-5.218z"/><path d="m317.351 77.914c-.39-.044-.993.866.945 1.223 2.59.469 5.425-.403 6.293-2.943.995-3.025 1.653-5.889 2.173-6.97.649-1.26 1.479-1.157.866-2.995-.432-1.323-1.239-.924-1.408-.217-.453 1.928-2.172 8.167-2.708 9.315-1.012 2.097-3.05 2.926-6.161 2.587z"/><path d="m322.538 67.962c-.278-.595-.925-.135-.809.516a.982.982 0 0 0 1.025.892c.568-.02 1.769.019 1.772-.924.002-.662-.519-1.215-.905-.484-.37.661-.845.592-1.083 0zm.65-2.492c-.2.139-.021.875.216.867.846-.028 2.045-.298 2.687-.745.188-.13.11-.576-.158-.567-.815.027-2.113.006-2.745.445zm7.186 1.855c.613-.957 2.303-1.055 1.695.312-.43.942-4.638 9.071-5.212 10.105-.627 1.163-1.14.587-.694-.318.599-1.165 4.019-9.816 4.211-10.099z"/><path d="m324.041 79.425c-.179-.647-1.183-1.604-1.07.127.2 3.141 4.516 2.148 5.823 1.032 1.186-1.051.157 3.547 1.733 4.039.869.278 2.504-.907 3.308-1.95 2.229-2.893 3.647-7.039 5.791-9.895.81-1.117-.443-1.914-.95-1.025-1.864 3.126-4.18 9.506-6.709 11.163-2.061 1.32-1.45-1.699-1.522-2.606-.09-.665-.901-1.644-1.982-.745-.756.59-1.93 1.07-2.994.975-.617-.035-1.137-.024-1.428-1.115z"/><path d="m331.745 73.594c.022-.177-.913-.258-.867.65.032.672.836.855.974.758 1.265-.92-.268-.46-.107-1.408zm-1.842 3.683c-.25.058-.478.853.108.898.537.039 2.637-.187 3.218-.153.375-.014.518-.732-.286-.693-.977.048-2.26-.196-3.04-.052zm13.909-.934c.862-3.23 2.949.498 1.11 2.336-2.837 2.78-3.692 8.086-8.195 8.885-1.213.26-3.35-.547-3.983-.996-.247-.176.16-1.329.919-.766 1.097.857 3.362 1.05 4.558.076 2.559-2.511 4.642-5.837 5.591-9.535z"/><path d="m279.067 63.61c.333.015 1.247 1.2 1.187 1.57-.041.174-.978-.026-1.264-.268-.212-.18-.126-1.312.077-1.303zm-4.406 8.576c-.835.456.133 1.355.758.975 2.348-1.52 5.871-3.117 6.607-6.128.236-1.02 1.184-2.583 2.084-2.932.87-.337 2.132 1.573 2.957.07.483-.86 2.177.563 2.586-.356.498-1.11.26-1.722.281-2.786-.036-.696-.568-.904-.955.224-.2.51.036 1.026-.128 1.293-.125.203-.513.399-.738.23-.208-.156-.064-.591-.562-.784-.193-.097-.503-.177-.637.07-.591 1.054-.919 2.037-1.746.917-.737-.965-1.11-2.633-1.65-.35-.195.806-1.42 1.975-2.142 1.975-.902 0-.675-2.375-2.656-2.013-1.019.217-.948 2.166-.796 2.886.25 1.001 3.226.282 3.078.937-.509 2.274-3.666 4.435-6.34 5.772z"/><path d="m256.03 83.017c-.127.38.38 1.414.904 1.49.514.039.777-1.115.611-1.49-.122-.275-1.425-.27-1.515 0zm2.733 4.008c-.33-.356-1.304.599-.517 1.274.442.358 2.062.878 2.505.122.6-.973-.591-4.504-.064-4.97.412-.365 2.32 2.358 3.263 2.554 2.213.307 1.682-3.79 4.067-3.511 1.625.217 1.803-1.815 1.577-3.083-.181-1.217-2.152-2.973-3.058-3.76-1.192-.991-1.723.732-.975 1.3.963.772 2.656 2.329 2.925 3.359.128.486-1.176 1.453-1.656 1.19-1.11-.604-2.14-3.198-3.11-3.79-.33-.202-1.143.254-.752 1.063.44.867 2.384 2.21 2.498 3.136.103.844-.867 2.67-1.503 2.67-.7 0-2.484-2.207-3.04-3.245-.279-.497-1.244-.449-1.345.238-.16 1.03.15 3.21.395 4.56.196 1.28-.72 1.345-1.21.893zm-3.346-7.033c-.278.315.65.93.834.77.358-.309 1.747-1.893 1.48-2.446-.239-.494-2.15-1.574-2.46-1.04-.576.927 1.8 1.342 1.428 1.613-.183.106-.837.557-1.282 1.103zm3.428-6.94s.597 2.043 1.083 1.192c.393-.59-1.083-1.192-1.083-1.192zm.975 3.25c-.218.12-.834.607-.433.866.634.376 2.36.673 1.987-.554-.226-.723 2.602.02 1.913-1.937-.18-.541-1.033-1.323-1.453-1.433-.267-.07-1.172.426-.606.7.414.214 1.662.947 1.198 1.428-.526.502-.893-.226-1.548-.109-.33.063-.114 1-.3 1.255-.104.143-.58-.313-.757-.216zm4.492-7.767c-.357.178-.996 1.145-1.02 1.593-.012.238.25.567.454.465.374-.187.952-1.103.974-1.523.014-.266-.186-.646-.408-.535zm2.332-.249c-.689-.842.732-2.093 1.37-.407.387 1.058 4.504 6.476 5.346 8.314.596 1.244-.021 1.758-.758.867-2.086-2.66-3.796-5.976-5.958-8.774zm4.224.109c.735-.796 2.233-2.42 1.83-3.326-.31-.78-1.22-.702-1.377-.522-.89 1.063.634.796.414 1.16-.454.852-.906 1.32-1.14 2.14-.055.192.141.69.273.548z"/><path d="m334.697 71.058c-.527-.428.519-2.498 1.227-1.685 1.943 2.248 2.845 9.548 3.407 15.011 0 0-.873.729-.88.613 0-2.91-1.17-11.814-3.754-13.94z"/><path d="m335.884 83.811c.351-.977 5.018-8.809 5.63-10.532.314-.831 1.653 1.425.345 2.642-1.149 1.034-4.538 6.593-5.17 8.54-.292.88-1.175.462-.805-.65zm-44.759-19.857c-.628-1.445.943-1.98 1.179-.95 1.092 4.746 3.706 8.338 5.696 11.565.599 1.009.119 1.61-1.338.682-1.009-.692-2.033-3.214-2.53-3.313-.897-.167-3.046 4.097-7.442 2.88-1.137-.318-1.061-3.7-1.083-5.193-.048-.7.726-.885.752.07.04 1.377-.002 4.237 1.76 4.334 1.436.08 4.617-1.95 5.287-3.538.597-1.632-1.601-4.875-2.28-6.537zm13.865-1.191c.465-.411.703-1.098 1.192-1.517.267-.268.695.053.623.7-.06.51-.744.949-1.204 1.332-.374.28-.81-.325-.612-.515z"/><path d="m335.884 83.811c.351-.977 5.018-8.809 5.63-10.532.314-.831 1.653 1.425.345 2.642-1.149 1.034-4.538 6.593-5.17 8.54-.292.88-1.175.462-.805-.65z"/><path d="m343.812 76.343c.862-3.23 2.949.498 1.11 2.336-2.837 2.78-3.692 8.086-8.195 8.885-1.213.26-3.35-.547-3.983-.996-.247-.176.16-1.329.919-.766 1.097.857 3.362 1.05 4.558.076 2.559-2.511 4.642-5.837 5.591-9.535z"/></g><path d="m290.774 178.184c.41.912 1.01.872.92-.001-.174-1.119-.512-2.665-.703-4.008-.11-1.137-1.284-.917-.975.271.392 1.282.31 2.689.758 3.738zm3.519.053c-.005.462.712.42.705.055-.074-1.164-.163-2.736.162-3.304.253-.443 1.273-.13 2.22-.217.378-.055.3-1.094-.487-1.028-.927.083-3.372-.218-3.52.65-.213 1.558.963-.094.92 3.844zm7.095-4.494c.593.428.51.983-.217.812-.867-.217-1.45-.147-1.439.328.013.468.378.559.91 1.078.51.534-.312.447-.942 1.54-.538.906.558 1.026 1.85.683.33-.094.762.472-.054.938-.574.307-2.175.682-2.573-.48-.756-2.009 1.266-2.287.414-2.823-.465-.28-.632-.703-.548-1.263.18-1.294 2.108-1.123 2.599-.813zm2.674 4.431c.78-1.422 1.316-2.488 1.534-3.696.19-1.09.973-1.195 1.137-.27.212 1.227.915 2.444 1.768 3.558.5.691-.506 1.3-.901.762-.725-.92-.755-2.2-1.182-2.192-.494.01-1.053 1.428-1.58 2.475-.153.304-1.087 0-.776-.637z" fill="#e8d94c"/><g fill="#d4aa00" fill-opacity=".941"><path d="m290.774 178.184c.41.912 1.01.872.92-.001-.174-1.119-.512-2.665-.703-4.008-.11-1.137-1.284-.917-.975.271.392 1.282.31 2.689.758 3.738zm3.519.053c-.005.462.712.42.705.055-.074-1.164-.163-2.736.162-3.304.253-.443 1.273-.13 2.22-.217.378-.055.3-1.094-.487-1.028-.927.083-3.372-.218-3.52.65-.213 1.558.963-.094.92 3.844zm7.095-4.494c.593.428.51.983-.217.812-.867-.217-1.45-.147-1.439.328.013.468.378.559.91 1.078.51.534-.312.447-.942 1.54-.538.906.558 1.026 1.85.683.33-.094.762.472-.054.938-.574.307-2.175.682-2.573-.48-.756-2.009 1.266-2.287.414-2.823-.465-.28-.632-.703-.548-1.263.18-1.294 2.108-1.123 2.599-.813zm2.674 4.431c.78-1.422 1.316-2.488 1.534-3.696.19-1.09.973-1.195 1.137-.27.212 1.227.915 2.444 1.768 3.558.5.691-.506 1.3-.901.762-.725-.92-.755-2.2-1.182-2.192-.494.01-1.053 1.428-1.58 2.475-.153.304-1.087 0-.776-.637z"/><path d="m371.475 136.746c-.055.29.732.721.92.498.846-1.015 1.955-3.007 2.182-4.213.067-.35-1.061-.748-1.302-.46-.793.95-1.562 2.908-1.8 4.175z"/></g></g><g stroke="#d4aa00" stroke-opacity=".941"><g stroke-width="3.22"><path d="m339.631 219.295s-75.905 6.782-106.874-33.457c-10.14-13.175-14.95-31.156-14.869-47.396.17-33.484 15.334-52.972 15.334-52.972s-32.063 30.668-17.193 82.246c6.87 23.834 27.028 42.592 50.415 51.274 33.322 12.37 73.187 10.063 73.187 10.063l22.885-1.975-.232-8.016z" fill="none" stroke-linecap="square" stroke-linejoin="round"/><path d="m339.166 219.41s-.58.93.117 4.183c.697 3.252 1.974 5.46 1.974 5.46m3.485-9.875s-.464 1.975 1.046 4.996c1.51 3.02 2.556 4.065 2.556 4.065m2.672-9.293s-.465 2.207 1.045 4.763 2.788 3.833 2.788 3.833" fill="none"/><path d="m358.218 223.07a4.705 4.821 0 1 0 9.41 0 4.705 4.821 0 1 0 -9.41 0z" fill-rule="evenodd" stroke-linecap="square"/><path d="m363.33 228.123s3.02 4.647 2.09 7.667-19.284 5.112-22.304 2.788c-3.02-2.323-3.02-9.525-3.02-9.525" fill="none"/></g><g fill="none" stroke-width=".92"><path d="m332.745 220.12.164 2.794-1.807 1.314s-7.721 0-12.814-.329c-5.093-.328-16.429-.328-26.614-2.464-10.186-2.136-25.465-6.571-28.586-8.05l-3.122-1.479"/><path d="m333.895 228.992-.493-3.286-2.505-1.437 2.012-1.355.493 2.792"/></g></g><path d="m262.692 220.051 32.992-.93 19.075-4.012 25.3 2.386-48.093 11.385z" fill-rule="evenodd"/><g stroke="#d4aa00" stroke-opacity=".941"><g stroke-width="3.22"><path d="m260.369 219.819s75.905 6.783 106.874-33.457c10.14-13.175 14.95-31.156 14.869-47.396-.17-33.483-15.334-52.972-15.334-52.972s32.063 30.668 17.193 82.246c-6.87 23.834-27.028 42.593-50.415 51.274-33.322 12.37-73.187 10.063-73.187 10.063l-22.885-1.975.232-8.016z" fill="none" stroke-linecap="square" stroke-linejoin="round"/><path d="m260.834 219.935s.58.93-.117 4.182c-.697 3.253-1.974 5.46-1.974 5.46m-3.485-9.874s.464 1.974-1.046 4.995c-1.51 3.02-2.556 4.066-2.556 4.066m-2.672-9.294s.465 2.207-1.045 4.763-2.788 3.834-2.788 3.834" fill="none"/><path d="m241.782 223.595a4.705 4.821 0 1 1 -9.41 0 4.705 4.821 0 1 1 9.41 0z" fill-rule="evenodd" stroke-linecap="square"/><path d="m236.67 228.647s-3.02 4.647-2.09 7.668c.93 3.02 19.284 5.11 22.304 2.788 3.02-2.324 3.02-9.526 3.02-9.526" fill="none"/></g><g fill="none" stroke-width=".92"><path d="m267.255 220.645-.164 2.793 1.807 1.314s7.721 0 12.814-.329c5.093-.328 16.429-.328 26.614-2.464 10.186-2.136 25.465-6.571 28.586-8.05l3.122-1.478"/><path d="m266.105 229.516.493-3.285 2.505-1.438-2.012-1.355-.493 2.793"/></g></g><g fill-rule="evenodd"><path d="m307.538 85.192c.62-.165.427-.165 1.403-.921.38-.273.456.525.416.84-.071.535-.744.157-.952.629-.306.612-.182 2.036-.284 2.616-.07.298-.575.273-.623.037-.144-.707.102-1.4.079-2.284-.008-.3-.463-.771-.039-.917z" fill="#e8d94c"/><g fill="#d4aa00" fill-opacity=".941"><path d="m304.046 83.688c-.15.64-.139 1.167-.139 1.606.034.355.72.127.717.081-.034-.562.101-1.339-.074-1.556-.095-.117-.47-.252-.504-.13zm-3.115 3.483c-.846.162-.702 1.191-.454 1.319.41.18 1.045.257 1.282-.927.11-.486.211 2.416 1.337 1.298.648-.677 2.255.123 2.927-.73.482-.567.63-.963.255-1.801-.11-.255-.769-.13-.731.489.033.521-.391 1.165-.942 1.055-.268-.046.15-1.275-.118-1.609-.148-.183-.374-.163-.521.027-.207.265.208 1.444-.472 1.599-.857.187-.408-.788-.771-.966-1.167-.557-1.28.144-1.792.246zm6.607-1.979c.62-.165.427-.165 1.403-.921.38-.273.456.525.416.84-.071.535-.744.157-.952.629-.306.612-.182 2.036-.284 2.616-.07.298-.575.273-.623.037-.144-.707.102-1.4.079-2.284-.008-.3-.463-.771-.039-.917zm-10.463-1.372c-1.057.875-2.038 1.232-3.01 2.338-.398.453-.387 1.084-.624 1.662-.239.613-1.005.733-1.242.606-.397-.247-.34-1.384-.782-.772-.376.564-.619 1.34-1.175 1.33-.502-.01-1.45-.982-.97-1.029 1.645-.16 1.625-1.404 2.24-1.486.691-.087.737 1.028 1.163.805.335-.163.493-1.463.857-1.813 1.115-1.078 1.997-1.647 3.135-2.44.575-.434.986.35.408.8z"/><path d="m297.637 85.155c-.18.196-.733.164-.783.44-.217 1.022 0 1.54-.238 2.524-.228.943-.92.978-.872.21.062-.996.93-2.402.317-2.499-.408-.09-.723-.607-.3-.862.797-.523 1.225-.443 1.773-.285.19.055.24.32.103.472zm1.9-7.947-1.038 3.866-1.444-2.592v2.656l-3.114-3.585 1.083 3.845-2.798-2.311 1.489 2.613-4.965-3.11 3.16 3.585-3.972-1.9 2.843 2.332-6.5-2.376 6.275 3.002c2.293-1.097 5.438-1.77 8.936-1.77 3.486 0 6.645.68 8.937 1.77.009.004.037-.004.045 0l6.229-3.002-6.41 2.397 2.8-2.353-3.928 1.878 3.115-3.563-4.965 3.11 1.49-2.613-2.8 2.31 1.084-3.844-3.114 3.607.045-2.678-1.444 2.592-1.038-3.866z"/></g></g></svg>