<?xml version="1.0" encoding="UTF-8" standalone="no"?>
<!-- Created with Inkscape (http://www.inkscape.org/) -->
<svg
   xmlns:svg="http://www.w3.org/2000/svg"
   xmlns="http://www.w3.org/2000/svg"
   version="1.0"
   width="300"
   height="150"
   id="svg2">
  <rect
     width="300" height="150"
     x="0" y="0"
     style="fill:#0093dd;stroke:none" />
  <path
     d="M 37.28,24.15 L 39.53,32.29 L 47.96,31.91 L 40.92,36.56 L
	  43.88,44.46 L 37.28,39.20 L 30.68,44.46 L 33.67,36.56 L
	  26.61,31.91 L 35.04,32.29 L 37.28,24.15 z "
     style="fill:white;stroke:none"/>
  <path
     d="M 37.29,49.33 L 39.54,57.47 L 47.97,57.09 L 40.93,61.74 L
          43.89,69.64 L 37.29,64.38 L 30.69,69.64 L 33.66,61.74 L
	  26.61,57.09 L 35.04,57.47 L 37.29,49.33 z "
     style="fill:white;stroke:none" />
  <path
     d="M 37.29,74.45 L 39.54,82.58 L 47.97,82.21 L 40.93,86.86 L
          43.89,94.76 L 37.29,89.50 L 30.69,94.76 L 33.66,86.86 L
	  26.61,82.21 L 35.04,82.58 L 37.29,74.45 z "
     style="fill:white;stroke:none"/>
  <path
     d="M 170.91,84.56 L 129.49,46.31 C 126.11,42.93 121.30,42.46 118.21,45.50 C 115.47,48.21 114.08,52.37 117.52,55.91 L 150.42,85.93 C 154.55,89.88 158.99,93.40 158.99,98.18 C 158.99,102.96 155.11,106.85 150.32,106.85 C 145.54,106.85 141.66,102.96 141.66,98.18 C 141.66,93.40 146.70,89.13 150.32,86.12 L 181.91,57.36 C 185.31,53.95 185.41,49.18 182.17,45.66 C 179.50,42.75 174.27,43.09 170.93,46.45 L 129.49,84.75 C 126.11,88.13 121.30,88.61 118.21,85.56 C 115.47,82.86 114.08,78.70 117.52,75.16 L 150.42,45.14 C 154.55,41.18 158.99,37.67 158.99,32.88 C 158.99,28.10 155.11,24.22 150.32,24.22 C 145.54,24.22 141.66,28.10 141.66,32.88 C 141.66,37.67 146.70,41.94 150.32,44.94 L 181.91,73.70 C 185.31,77.11 185.41,81.88 182.17,85.40 C 179.50,88.31 174.30,87.94 170.91,84.56 z "
     style="fill:none;stroke:white;stroke-width:4" />
</svg>
