<svg xmlns="http://www.w3.org/2000/svg" viewBox="0 0 264.58 158.75" height="600" width="1000"><path fill-rule="evenodd" d="M-.26-.26h265.11v159.28H-.26z"/><path d="M121.97 138.87v-.76h1.92v-15.4h-1.92v-1.53h6.29v1.61l.18-.3c.46-.71 1.3-1.3 2.23-1.55.22-.06.76-.12 1.2-.14 2.57-.11 4.55 1.04 5.59 3.25a9.66 9.66 0 0 1-.03 7.4 5.54 5.54 0 0 1-5.3 3.22c-1.67 0-2.99-.61-3.69-1.71l-.18-.3v5.45h2.05v1.52h-8.34zm9.83-6.35c.6-.29.92-.8 1.15-1.77.25-1.05.34-3.1.2-4.68-.16-1.88-.52-2.71-1.35-3.14-.36-.18-.45-.2-1.03-.2-.54 0-.68.03-1 .18-.71.33-1.09.9-1.34 2.04-.12.57-.14.84-.14 2.78s.02 2.21.14 2.78c.36 1.63 1.1 2.28 2.5 2.22.38-.02.6-.07.87-.2zm-22.36 2.1a3.75 3.75 0 0 1-2.86-1.88c-.3-.6-.42-1.1-.46-1.94-.07-1.33.24-2.32.99-3.11.49-.53 1.1-.9 1.9-1.16 1.07-.34 1.52-.4 3.7-.44l2-.03-.03-.84c-.06-1.3-.33-1.96-1.03-2.5-.77-.59-2.67-.72-3.7-.26-.64.3-1.04.78-1.34 1.61l-.15.42h-1.37l.02-1.44.01-1.43.36-.12c.56-.19 1.63-.44 2.45-.56.95-.15 3.52-.17 4.34-.04 2.68.44 4.06 1.52 4.6 3.59.15.54.15.68.18 4.44l.02 3.9h1.91v1.51h-6.28v-1.68l-.45.44a4.95 4.95 0 0 1-2.83 1.47c-.53.1-1.5.12-1.98.06zm4.03-2.26c.5-.24.83-.6 1.05-1.14.13-.32.14-.5.16-2.03l.03-1.68-1.22.03c-1.46.04-1.79.13-2.34.68-.43.44-.62.91-.67 1.72-.06 1.05.22 1.93.75 2.33.55.41 1.5.46 2.24.1zm-47.32 1.22v-.76h1.5l.24-.58 3.48-8.48 3.23-7.9h3l3.48 8.48 3.48 8.48h1.76v1.52h-8.66v-1.52h.9c.53 0 .88-.02.87-.06l-.75-1.89-.73-1.82H71l-.76 1.87-.77 1.87 1.09.02 1.09.01v1.52h-5.49v-.76zm11.16-6.1c-2.27-5.64-2.8-6.95-2.84-6.9-.05.04-2.71 6.53-2.8 6.8l-.04.15h2.85c1.57 0 2.85-.03 2.83-.06zm10.07 6.1v-.76h1.85v-10.19h-1.85v-1.45h7.87v1.45h-1.59V126.6h4.3V122.63h-1.59v-1.45h7.88v1.45h-1.86v10.2h1.86v1.51h-7.88v-1.52h1.6v-4.7H93.65v4.7h1.59v1.52h-7.87zm51.8 0v-.76h1.88l1.7-2.39a47.48 47.48 0 0 0 1.73-2.48c0-.06-.83-1.26-1.85-2.67l-1.85-2.57h-.74l-.75-.01v-1.52h8.07v1.52l-.8.01-.79.02.94 1.3 1.16 1.6.23.32 1.15-1.6 1.15-1.62-.79-.02-.8-.01v-1.52H154v1.52l-.9.01-.9.02-1.68 2.32-1.67 2.31.31.44 1.96 2.72 1.65 2.3h1.76v1.52h-8.4v-1.52h.83c.46 0 .82-.02.8-.06 0-.03-.55-.8-1.2-1.71-.9-1.26-1.21-1.64-1.27-1.58l-1.25 1.7-1.17 1.62.87.02.86.01v1.52h-5.42v-.76zm15.93 0v-.76h1.85v-10.19h-1.85v-1.45h7.87v1.45h-1.59v5.99l1.01-1 2.29-2.24 1.27-1.26v-1.49h-1.65v-1.45h7.93v1.45l-.94.02-.94.02-.02 5.07-.02 5.08h1.92v1.52h-7.94l.02-.74.02-.75.81-.01.81-.02v-5.84l-.28.25c-.16.14-1.18 1.15-2.28 2.24l-2 1.99v1.36h1.59v1.52h-7.88zm18.54.02l.02-.75 1-.03 1.01-.03 1.49-2.42c1.22-1.99 1.46-2.42 1.37-2.46l-.77-.32c-1.88-.78-2.47-1.42-2.54-2.73-.03-.75.06-1.19.39-1.69.6-.93 1.96-1.63 3.68-1.9.53-.07 1.62-.09 6.16-.1h5.5v1.46l-.94.02-.94.02-.02 5.07-.02 5.08.95.02.94.01.02.75.02.74h-7.94v-1.52h1.65v-4.37l-.9.02-.91.02-1.8 2.92-1.78 2.93h-5.66l.02-.74zm11.01-8.8l-.01-2.13h-1.56a7.3 7.3 0 0 0-2 .12c-1.12.3-1.83 1.15-1.75 2.07.07.91.84 1.73 1.87 1.98.2.05.89.08 1.9.09h1.57zm10.73 7.33v-2.22h4.5v4.43h-4.5zm.64-4.09c-.02-.04-.17-1.21-.33-2.6l-.3-2.5v-7.12h4.49v7.24l-.31 2.52-.32 2.51-1.6.02c-1.25.01-1.61 0-1.63-.07zM207 108.17c-.33-.04-1.45-.28-1.81-.39l-.34-.1V104.91h1.37l.05.31c.14 1.08.7 1.6 1.7 1.6.91 0 1.43-.4 2.02-1.62.2-.43.38-.86.38-.95 0-.1-1.28-3.12-2.83-6.73l-2.84-6.57h-1.43v-1.52h7.6v1.52l-.78.02-.79.01 1.6 3.71 1.66 3.87c.07.14.26-.3 1.6-3.68.85-2.1 1.54-3.85 1.54-3.88 0-.03-.39-.05-.86-.05h-.86v-1.52h4.96v1.52l-.8.02-.8.01-3.02 7.55a295.07 295.07 0 0 1-3.25 7.94 4.07 4.07 0 0 1-1.39 1.37 5.3 5.3 0 0 1-2.68.33zm-104.6-1.05v-.76h1.91V90.95h-1.92v-1.52h6.29v1.61l.18-.3c.46-.71 1.3-1.3 2.23-1.55.22-.06.76-.12 1.2-.14 2.57-.11 4.55 1.04 5.59 3.25a9.66 9.66 0 0 1-.03 7.4 5.54 5.54 0 0 1-5.3 3.22c-1.67 0-2.98-.61-3.69-1.71l-.18-.3v5.45h2.05v1.52h-8.34zm9.82-6.35c.6-.29.92-.8 1.15-1.77.25-1.05.34-3.1.2-4.68-.16-1.88-.52-2.71-1.35-3.14-.36-.18-.45-.2-1.02-.2-.55 0-.69.03-1 .18-.72.33-1.1.9-1.35 2.04-.12.57-.13.84-.13 2.78s0 2.21.13 2.78c.36 1.63 1.1 2.28 2.5 2.22.38-.02.6-.07.87-.2zm-90.13 3.05v-2.75h.82c1.02 0 1.37-.1 1.82-.5.7-.63 1.08-1.77 1.33-4.06.23-2.08.27-3.14.31-7.1l.04-3.82h-2.4v-1.52h17.8v1.52H39.41v15.48h2.91v5.49h-1.51l-.04-.28-.16-1.3a8.4 8.4 0 0 0-.27-1.4c-.16-.44-.52-.83-.86-.92-.32-.1-14.23-.1-14.56 0-.33.1-.7.48-.86.92-.08.2-.2.8-.26 1.4a296 296 0 0 1-.17 1.3l-.03.28h-1.52zm12.57-10.39V85.8h-6.55v3.16c0 4.34-.12 7.16-.36 8.84-.06.36-.24 1.15-.4 1.75l-.34 1.21c-.01.06.02.16.08.21.1.1.5.11 3.84.11h3.73v-7.64zm51.13 10.15v-2.5l.58-.01c.42 0 .65-.04.84-.12.65-.3 1.1-1.18 1.39-2.72.25-1.35.31-2.15.35-4.75l.03-2.6h-1.87v-1.45h13.7v1.45h-1.86v10.2H101v5.02h-1.49l-.11-1.01c-.07-.56-.16-1.18-.22-1.4-.14-.48-.53-.93-.89-1.03-.17-.05-1.86-.06-5.04-.05l-4.79.02-.23.16c-.5.34-.66.77-.83 2.24l-.12 1.07H85.8zm8.73-7.6v-5.1h-3.88l-.04 2.4c-.05 3.18-.17 4.2-.83 7.1-.1.4-.1.57-.05.62.04.05.83.07 2.43.07h2.37zm-46.73 6.9a3.75 3.75 0 0 1-2.86-1.89c-.3-.6-.42-1.1-.46-1.94-.07-1.33.24-2.32.99-3.11.5-.53 1.1-.9 1.9-1.16 1.07-.34 1.52-.4 3.7-.44l2-.03-.03-.84c-.06-1.3-.33-1.96-1.03-2.5-.77-.59-2.67-.72-3.69-.26-.64.3-1.04.78-1.35 1.61l-.15.42h-1.37l.02-1.44.02-1.43.35-.12c.56-.19 1.63-.44 2.46-.56.94-.15 3.5-.17 4.33-.04 2.68.44 4.06 1.52 4.6 3.59.15.54.15.68.18 4.44l.02 3.9h1.91v1.51h-6.28v-1.68l-.45.44a4.95 4.95 0 0 1-2.83 1.47c-.53.1-1.5.12-1.98.06zm4.03-2.27c.5-.24.84-.6 1.05-1.14.13-.32.14-.5.17-2.03l.02-1.68-1.21.03c-1.47.04-1.8.13-2.34.68-.44.44-.63.91-.67 1.72-.06 1.05.22 1.93.74 2.33.55.41 1.5.46 2.24.1zm23.35 2.27c-2.04-.3-3.43-.94-4.53-2.12a4.78 4.78 0 0 1-.92-1.33c0-.06.24-.08.98-.08h.99l.23.32c.48.66 1.04 1.2 1.46 1.4.73.36 1.14.43 2.42.43 1.11 0 1.18-.01 1.66-.2a4.8 4.8 0 0 0 1.57-.98c.33-.4.43-.73.4-1.36a1.95 1.95 0 0 0-.68-1.52c-.75-.69-2.24-1.06-4.25-1.06h-.55v-.83c0-.82 0-.83.15-.83l1.34-.06c1.89-.1 2.62-.3 3.23-.9.35-.35.44-.6.44-1.23 0-1.08-.75-1.72-2.3-1.98-.61-.1-2.25-.08-2.81.04-.65.13-.92.24-1.4.6-.54.37-.88.76-.93 1.05l-.05.23h-1.37v-1.32c0-.73 0-1.32.02-1.32l1.47-.23c3.28-.52 4.5-.62 5.99-.5 2.26.16 3.63.58 4.5 1.38.88.8 1.13 2.1.62 3.16-.35.7-1.38 1.41-2.41 1.66-.48.12-.61.21-.28.21.35 0 1.3.28 1.84.54a3.28 3.28 0 0 1 1.95 2.53c.21 1.46-.47 2.65-1.93 3.37-1.43.7-2.55.91-4.93.94h-1.92zm48.82 0a3.75 3.75 0 0 1-2.86-1.89c-.3-.6-.42-1.1-.46-1.94-.07-1.33.24-2.32.99-3.11.5-.53 1.1-.9 1.9-1.16 1.07-.34 1.52-.4 3.7-.44l2-.03-.03-.84c-.06-1.3-.33-1.96-1.03-2.5-.77-.59-2.67-.72-3.69-.26-.64.3-1.04.78-1.35 1.61l-.15.42h-1.37l.02-1.44.02-1.43.35-.12c.56-.19 1.63-.44 2.46-.56.94-.15 3.5-.17 4.33-.04 2.68.44 4.06 1.52 4.6 3.59.15.54.15.68.18 4.45l.02 3.88h1.91v1.52h-6.28v-1.68l-.45.44a4.95 4.95 0 0 1-2.83 1.47c-.53.1-1.5.12-1.98.06zm4.03-2.27c.5-.24.84-.6 1.05-1.14.13-.32.14-.5.17-2.03l.02-1.68-1.21.03c-1.47.04-1.8.13-2.34.68-.44.44-.63.91-.67 1.72-.06 1.05.22 1.93.74 2.33.55.41 1.5.46 2.24.1zm32.98 2.27c-3.28-.35-5.37-2.09-6.03-4.98-.16-.73-.23-2.23-.13-3.02.2-1.67.76-2.9 1.76-3.9 1.56-1.58 3.93-2.2 7-1.85 1.11.13 2 .32 3.09.65l.89.28.02 1.83.02 1.84h-1.39l-.04-.25c-.3-1.74-1.03-2.69-2.33-2.96a3.83 3.83 0 0 0-2.47.27c-.97.53-1.46 1.61-1.64 3.6-.2 2.05 0 4.14.47 5.38a2.71 2.71 0 0 0 2.66 1.76c1.68 0 2.8-1.03 3.11-2.86l.04-.24h2.05l-.04.18a5.68 5.68 0 0 1-1.58 2.91 5.23 5.23 0 0 1-2.93 1.3c-.58.1-1.94.12-2.53.06zm65.1-.03a7.1 7.1 0 0 1-3.47-1.37c-1.38-1.12-2.11-2.77-2.21-5.04-.1-2.37.49-4.16 1.81-5.51 1.16-1.18 2.71-1.78 4.79-1.88 4.43-.2 6.95 2.21 7.3 6.98l.05.6h-9.1l.05.82c.15 2.76 1.02 3.95 2.98 4.06 1.93.12 3.22-.87 3.64-2.77l.04-.18H233c.56 0 1.02 0 1.02.02 0 .16-.34 1.06-.58 1.53-.24.47-.42.72-.87 1.17a3.6 3.6 0 0 1-1.2.87c-.7.35-1.6.6-2.53.7-.74.09-2.05.08-2.74 0zm3.4-8.62c-.1-2.2-.45-3.19-1.26-3.6a1.48 1.48 0 0 0-.83-.18c-1.4 0-1.98 1.04-2.1 3.76l-.04.97h4.28zm-92.64 7.6v-.76h1.85V90.88h-1.85v-1.46l5.44.03c5.25.02 5.46.03 6.07.16 1.08.25 1.58.44 2.15.85.76.54 1.1 1.2 1.1 2.14.01.48-.01.63-.16.94-.4.88-1.5 1.5-3.1 1.78l-.5.08.6.1c1.94.28 3.37 1.06 3.89 2.12.2.42.22.47.22 1.24 0 .79 0 .8-.25 1.3-.59 1.19-1.86 1.87-4.19 2.25-.8.13-1.15.14-6.07.17l-5.2.02zm8.46-.83c.7-.1 1.52-.4 1.94-.68.72-.49 1-1.28.75-2.12-.21-.71-1-1.32-2.06-1.6-.41-.1-1.68-.22-2.4-.22h-.41V101.07h.88c.48 0 1.07-.03 1.3-.07zm.63-6.77c1.05-.31 1.53-.68 1.68-1.25a1.3 1.3 0 0 0-.56-1.36c-.6-.42-1.55-.64-2.95-.7l-.98-.06V94.47l1.1-.03c.96-.03 1.2-.06 1.7-.21zm27.02 7.6v-.76h1.85V90.88h-3.18V93h-1.51v-3.58h13.76V93h-1.53v-2.12l-1.57.02-1.57.02-.01 5.07-.02 5.08h1.65v1.52h-7.87zm13.1 0v-.76h1.85V90.88h-1.85v-1.46l5.44.03c5.25.02 5.46.03 6.07.16 1.09.25 1.59.44 2.16.85.75.54 1.1 1.2 1.1 2.14 0 .48-.02.63-.17.94-.4.88-1.5 1.5-3.1 1.78l-.49.08.6.1c1.93.28 3.36 1.06 3.88 2.12.21.42.22.47.22 1.24 0 .79 0 .8-.25 1.3-.59 1.19-1.86 1.87-4.18 2.25-.82.13-1.15.14-6.07.17l-5.21.02zm8.46-.83c.71-.1 1.52-.4 1.95-.68.7-.49.98-1.28.74-2.12-.2-.71-1-1.32-2.06-1.6-.4-.1-1.67-.22-2.4-.22h-.4V101.06h.87c.48 0 1.07-.03 1.3-.07zm.63-6.77c1.05-.31 1.54-.68 1.68-1.25a1.3 1.3 0 0 0-.56-1.36c-.6-.42-1.54-.64-2.95-.71l-.98-.05V94.47l1.11-.03c.95-.03 1.2-.06 1.7-.21zm43.96 7.6v-.76h1.85V90.88h-3.18V93h-1.52v-3.58h13.76V93h-1.52v-2.12l-1.57.02-1.57.02-.02 5.07-.02 5.08H247v1.52h-7.87zM92.34 75.37v-.76h1.92v-15.4h-1.92v-1.53h6.28v1.61l.19-.3c.46-.71 1.3-1.3 2.23-1.55.22-.06.75-.12 1.19-.14 2.58-.11 4.56 1.04 5.6 3.25a9.66 9.66 0 0 1-.03 7.4 5.54 5.54 0 0 1-5.3 3.22c-1.67 0-2.99-.61-3.69-1.71l-.19-.3v5.45h2.05v1.52h-8.33zm9.82-6.35c.6-.29.93-.8 1.16-1.77.25-1.05.33-3.1.2-4.68-.17-1.88-.52-2.71-1.35-3.14-.36-.18-.45-.2-1.03-.2-.54 0-.68.03-1 .18-.71.33-1.1.9-1.34 2.04-.13.57-.14.84-.14 2.78s.01 2.21.14 2.78c.36 1.63 1.1 2.28 2.49 2.22.39-.02.6-.07.87-.2zm-22.36 2.1a3.75 3.75 0 0 1-2.86-1.88c-.3-.6-.41-1.1-.45-1.94-.08-1.33.24-2.32.98-3.11.5-.53 1.11-.9 1.9-1.16 1.08-.34 1.53-.4 3.7-.44l2.01-.03-.03-.84c-.06-1.3-.33-1.96-1.03-2.5-.78-.59-2.67-.72-3.7-.26-.64.3-1.04.78-1.34 1.61l-.15.42h-1.38l.02-1.44.02-1.43.35-.12c.57-.19 1.64-.44 2.46-.56.94-.15 3.51-.17 4.33-.04 2.68.44 4.07 1.52 4.61 3.59.14.54.15.68.17 4.44l.03 3.9h1.91v1.51h-6.29v-1.68l-.44.44a4.95 4.95 0 0 1-2.83 1.47c-.54.1-1.51.12-1.99.06zm4.04-2.26c.5-.24.83-.6 1.04-1.14.13-.32.15-.5.17-2.03l.02-1.68-1.2.03c-1.48.04-1.8.13-2.35.68-.44.44-.62.91-.67 1.72-.06 1.05.22 1.93.75 2.33.54.41 1.5.46 2.24.1zm30.1 2.27a3.75 3.75 0 0 1-2.87-1.89c-.29-.6-.4-1.1-.45-1.94-.07-1.33.24-2.32.98-3.11.5-.53 1.12-.9 1.9-1.16 1.08-.34 1.53-.4 3.7-.44l2.01-.03-.03-.84c-.06-1.3-.33-1.96-1.03-2.5-.78-.59-2.67-.72-3.7-.26-.64.3-1.04.78-1.34 1.61l-.15.42h-1.37l.01-1.44.02-1.43.36-.12c.56-.19 1.63-.44 2.45-.56.94-.15 3.52-.17 4.33-.04 2.69.44 4.07 1.52 4.61 3.59.14.54.15.68.17 4.44l.03 3.9h1.91v1.51h-6.29v-1.68l-.44.44a4.95 4.95 0 0 1-2.83 1.47c-.53.1-1.5.12-1.98.06zm4.03-2.27c.5-.24.83-.6 1.05-1.14.13-.32.14-.5.16-2.03l.02-1.68-1.2.03c-1.48.04-1.8.13-2.35.68-.44.44-.62.91-.67 1.72-.06 1.05.22 1.93.75 2.33.54.41 1.5.46 2.24.1zm14.35 2.27c-2.04-.3-3.43-.94-4.53-2.12a4.78 4.78 0 0 1-.92-1.33c0-.06.24-.08.98-.08h.99l.23.32c.48.66 1.04 1.2 1.46 1.4.73.36 1.14.43 2.42.43 1.11 0 1.18-.01 1.66-.2a4.8 4.8 0 0 0 1.57-.98c.33-.4.43-.73.4-1.36a1.95 1.95 0 0 0-.68-1.52c-.75-.69-2.24-1.06-4.25-1.06h-.55v-.83c0-.82 0-.83.15-.83l1.34-.06c1.89-.1 2.62-.3 3.23-.9.35-.35.44-.6.44-1.23 0-1.08-.75-1.72-2.3-1.98-.61-.1-2.25-.08-2.81.04-.65.13-.92.24-1.4.6-.54.37-.88.76-.93 1.05l-.05.23h-1.37V59.4c0-.73 0-1.32.02-1.32l1.47-.23c3.28-.52 4.5-.62 5.99-.5 2.26.16 3.63.58 4.5 1.38.88.8 1.13 2.1.62 3.16-.35.7-1.38 1.41-2.41 1.66-.48.12-.61.21-.28.21.35 0 1.3.28 1.84.54a3.28 3.28 0 0 1 1.95 2.53c.21 1.46-.47 2.65-1.93 3.37-1.43.7-2.55.91-4.93.94h-1.92zm51.57-.02c-2.48-.35-4.24-1.44-5.26-3.27a8.48 8.48 0 0 1-.12-7.02c1.14-2.28 3.53-3.54 6.73-3.54 3.1 0 5.43 1.17 6.61 3.32.51.93.77 1.97.81 3.33.13 3.75-1.79 6.3-5.31 7.05-.74.15-2.73.23-3.46.13zm2.33-1.51c.8-.35 1.23-1.2 1.44-2.8.11-.9.15-3.14.07-4.27-.17-2.28-.53-3.19-1.45-3.64-.33-.16-.45-.19-1-.19-.54 0-.69.03-1 .18-.7.33-1.1.94-1.32 2.05-.35 1.7-.35 4.89 0 6.59.25 1.26.71 1.87 1.62 2.18a3.1 3.1 0 0 0 1.64-.1zm28.84 1.45a2.39 2.39 0 0 1-1.43-1.31 2.64 2.64 0 0 1 .03-1.89c.23-.48.69-.94 1.17-1.16.32-.15.46-.18.97-.18.73 0 1.15.17 1.65.67s.67.92.67 1.64c0 .5-.03.66-.17.96-.22.47-.73.97-1.19 1.18-.49.23-1.22.27-1.7.1zm-157.31-.97v-.76h1.85V59.13h-1.85v-1.45H74.6v1.45h-1.85v10.2h1.85v1.51h-7.87v-1.52h1.59V59.13h-4.3v10.2h1.59v1.51h-7.87zm85.2 0v-.76h1.84V59.13h-1.85v-1.45h7.87v1.45h-1.59v5.99l1.01-1 2.29-2.24 1.27-1.26v-1.49h-1.65v-1.45h7.93v1.45l-.94.02-.94.02-.02 5.07-.02 5.08h1.92v1.52h-7.94l.02-.74.02-.75.8-.01.82-.02v-5.84l-.28.25c-.16.14-1.18 1.15-2.28 2.24l-2 1.99v1.36h1.59v1.52h-7.88zm21.55 0v-.76h1.86V59.13h-3.18v2.12h-1.52v-3.58h13.76v3.58h-1.52v-2.12l-1.57.02-1.57.02-.02 5.07-.02 5.08h1.66v1.52h-7.88zm30.03 0v-.76h1.86V59.13h-1.86v-1.46l5.45.03c5.25.02 5.46.03 6.06.16 1.1.25 1.6.44 2.16.85.76.54 1.1 1.2 1.1 2.14.01.48-.02.63-.16.94-.4.88-1.5 1.5-3.1 1.78l-.5.08.6.1c1.94.28 3.37 1.06 3.89 2.12.2.42.21.47.21 1.24 0 .79 0 .8-.24 1.3-.6 1.19-1.86 1.87-4.19 2.25-.8.13-1.15.14-6.07.16l-5.2.03zm8.47-.83c.7-.1 1.51-.4 1.94-.68.71-.49 1-1.28.74-2.12-.2-.71-.99-1.32-2.05-1.6-.41-.1-1.68-.22-2.4-.22h-.41V69.31h.88c.48 0 1.07-.03 1.3-.07zm.63-6.77c1.05-.31 1.53-.68 1.68-1.25a1.3 1.3 0 0 0-.56-1.36c-.6-.42-1.55-.64-2.96-.71l-.97-.05V62.72l1.1-.03c.95-.03 1.2-.06 1.7-.21zm-77.69-18.86v-.76h1.92V27.45h-1.92v-1.52h6.29v1.61l.18-.3c.46-.71 1.3-1.3 2.23-1.55.22-.06.75-.12 1.19-.14 2.58-.11 4.56 1.04 5.6 3.25a9.66 9.66 0 0 1-.03 7.4 5.54 5.54 0 0 1-5.3 3.22c-1.67 0-2.99-.61-3.69-1.71l-.18-.3v5.45h2.05v1.52h-8.34zm9.83-6.35c.6-.29.92-.8 1.15-1.77.25-1.05.34-3.1.2-4.68-.16-1.88-.52-2.71-1.35-3.14-.36-.18-.45-.2-1.03-.2-.54 0-.68.03-1 .18-.71.33-1.1.9-1.34 2.04-.12.57-.14.84-.14 2.78s.02 2.2.14 2.78c.36 1.63 1.1 2.28 2.5 2.21.38-.01.6-.06.87-.2zm50.83 2.81v-2.5l.58-.01c.41 0 .65-.04.84-.12.65-.3 1.1-1.18 1.39-2.72.25-1.35.3-2.15.34-4.75l.04-2.6h-1.87v-1.45h13.69v1.45h-1.85v10.2h2.05v5.02h-1.5l-.1-1.01c-.07-.56-.17-1.18-.23-1.4-.14-.48-.52-.94-.88-1.03-.17-.05-1.87-.06-5.05-.05l-4.78.02-.24.15c-.5.35-.66.78-.82 2.25l-.12 1.07h-1.49zm8.73-7.6v-5.1h-3.88l-.04 2.4c-.06 3.18-.17 4.2-.84 7.1-.08.4-.1.57-.05.62.05.05.84.07 2.44.07h2.37zM34.69 39.32c-.8-.18-.79-.17-.83-.5a7.04 7.04 0 0 1-.05-.78c0-.43 0-.48.1-.44.44.17 1.11.3 1.53.3.76 0 1.07-.17 1.53-.86.56-.81.78-1.45 1.03-2.88.23-1.33.3-2.36.3-4.7v-2.08h-1.85v-1.45H50.4v1.45l-.94.02-.94.02-.02 5.07-.02 5.08.95.02.94.01.02.75.02.74h-8.14v-1.52h1.85V27.38h-4.15l-.04 2.17c-.1 4.75-.6 7.29-1.75 8.72a3.4 3.4 0 0 1-1.46 1.04c-.43.14-1.45.14-2.03.01zm21.04.06a3.75 3.75 0 0 1-2.86-1.89c-.3-.6-.42-1.1-.46-1.94-.07-1.33.24-2.32.99-3.11.49-.53 1.1-.9 1.9-1.16 1.07-.34 1.52-.4 3.7-.44l2-.03-.03-.84c-.06-1.3-.33-1.96-1.03-2.5-.77-.59-2.67-.72-3.7-.26-.64.3-1.04.78-1.34 1.61l-.15.42h-1.37l.01-1.44.02-1.43.36-.12c.56-.19 1.63-.44 2.45-.56.95-.15 3.52-.17 4.34-.04 2.68.44 4.06 1.52 4.6 3.59.15.54.15.68.18 4.44l.02 3.9h1.91v1.51h-6.28v-1.68l-.45.44a4.95 4.95 0 0 1-2.83 1.47c-.53.1-1.5.12-1.98.06zm4.03-2.27c.5-.24.83-.6 1.05-1.14.13-.32.14-.5.16-2.03l.03-1.68-1.22.03c-1.46.04-1.79.13-2.34.68-.44.44-.62.91-.67 1.72-.06 1.05.22 1.93.75 2.33.55.41 1.5.46 2.24.1zM75 39.38c-3.28-.35-5.37-2.09-6.03-4.98-.16-.73-.23-2.23-.13-3.02.2-1.67.76-2.9 1.76-3.9 1.56-1.58 3.93-2.2 7-1.85 1.11.13 2 .32 3.09.65l.9.28v1.83l.03 1.84h-1.39l-.04-.25c-.3-1.74-1.03-2.69-2.33-2.96a3.83 3.83 0 0 0-2.47.27c-.96.53-1.46 1.61-1.64 3.6-.2 2.05 0 4.14.47 5.38a2.71 2.71 0 0 0 2.66 1.76c1.68 0 2.8-1.03 3.11-2.86l.04-.25h2.05l-.04.19a5.68 5.68 0 0 1-1.58 2.91 5.23 5.23 0 0 1-2.93 1.3c-.58.1-1.94.12-2.53.06zm75.27-.02c-2.47-.35-4.23-1.44-5.25-3.27a8.47 8.47 0 0 1-.12-7.02c1.14-2.28 3.53-3.54 6.73-3.54 3.1 0 5.42 1.17 6.6 3.32.52.93.77 1.97.82 3.33.13 3.75-1.8 6.3-5.32 7.05-.74.15-2.72.23-3.46.13zm2.33-1.51c.8-.35 1.24-1.2 1.45-2.8.11-.9.15-3.14.07-4.27-.17-2.28-.53-3.19-1.45-3.64-.33-.16-.45-.19-1-.19s-.69.03-1 .18c-.7.33-1.1.94-1.32 2.05-.35 1.7-.35 4.89 0 6.59.25 1.26.7 1.87 1.62 2.18a3.1 3.1 0 0 0 1.63-.1zm54.46 1.53a3.75 3.75 0 0 1-2.86-1.89c-.3-.6-.42-1.1-.46-1.94-.07-1.33.24-2.32.99-3.11.49-.53 1.1-.9 1.9-1.16 1.07-.34 1.52-.4 3.7-.44l2-.03-.03-.84c-.06-1.3-.33-1.96-1.03-2.5-.77-.59-2.67-.72-3.69-.26-.65.3-1.05.78-1.35 1.61l-.15.42h-1.38l.03-1.44.01-1.43.36-.12c.56-.19 1.63-.44 2.46-.56.94-.15 3.5-.17 4.33-.04 2.68.44 4.06 1.52 4.6 3.59.15.54.15.68.18 4.44l.02 3.9h1.91v1.51h-6.28v-1.68l-.45.44a4.95 4.95 0 0 1-2.83 1.47c-.53.1-1.5.12-1.98.06zm4.03-2.27c.5-.24.83-.6 1.05-1.14.13-.32.14-.5.16-2.03l.03-1.68-1.21.03c-1.47.04-1.8.13-2.34.68-.44.44-.63.91-.67 1.72-.06 1.05.22 1.93.74 2.33.55.41 1.5.46 2.24.1zm14.74 2.24a7.1 7.1 0 0 1-3.47-1.37c-1.39-1.12-2.11-2.77-2.22-5.04-.1-2.37.5-4.16 1.82-5.51 1.16-1.18 2.7-1.78 4.78-1.88 4.44-.2 6.96 2.21 7.31 6.98l.05.6H225l.04.82c.15 2.76 1.02 3.95 2.99 4.06 1.92.12 3.21-.87 3.63-2.77l.04-.18h1.03c.56 0 1.02 0 1.02.02 0 .16-.34 1.06-.58 1.53-.24.47-.42.72-.87 1.17a3.6 3.6 0 0 1-1.2.87c-.7.35-1.6.6-2.53.7-.74.08-2.06.08-2.74 0zm3.4-8.62c-.1-2.2-.46-3.19-1.27-3.6a1.48 1.48 0 0 0-.83-.18c-1.4 0-1.97 1.04-2.09 3.76l-.04.97h4.27zM13.1 38.33v-.76h2.38V22.1H13.1v-1.52l6.33.02c4.68.02 6.46.05 6.82.1 2.22.38 3.56 1.15 4.18 2.42a4.1 4.1 0 0 1 .1 3.59c-.54 1.1-1.8 1.84-3.68 2.16l-.5.09.44.05c.63.08 1.81.39 2.37.63a4.56 4.56 0 0 1 2.68 2.75c.2.67.2 2.09-.01 2.84-.52 1.8-1.83 2.9-4.13 3.44-1.6.38-1.68.39-8.4.41l-6.2.03zm10.05-.83c2.38-.28 3.58-1.56 3.57-3.79 0-1.2-.33-2.11-1-2.78-.89-.87-1.99-1.16-4.34-1.16h-1.14v7.8h1.18c.64 0 1.42-.03 1.73-.07zm0-9.35c1.17-.18 2-.61 2.44-1.27.73-1.1.56-3.09-.33-3.9a3.17 3.17 0 0 0-.68-.43c-.7-.31-1.26-.4-2.87-.44l-1.47-.03v6.16h1.14c.66 0 1.41-.04 1.78-.1zm63.83 10.18v-.76h1.85V27.38h-3.18v2.12h-1.51v-3.58H97.9v3.58h-1.53v-2.12l-1.57.02-1.57.02-.01 5.07-.02 5.08h1.65v1.52h-7.87zm13.3 0v-.76h1.85V27.38h-1.85v-1.45H108.4v1.45h-1.85v4.09l1.97.03c2.61.05 3.72.23 4.94.8 1.33.63 1.95 1.59 1.95 2.99 0 .98-.24 1.62-.88 2.25-.68.68-1.79 1.13-3.42 1.4-.6.1-1.38.11-5.77.13l-5.07.03zm8.82-.9a3.06 3.06 0 0 0 1.47-1c.54-.8.41-1.99-.27-2.62-.66-.61-1.3-.8-2.7-.8h-1.04v4.56h1.05c.87 0 1.13-.02 1.49-.13zm51.3.9v-.76h1.43l2.72-3.5c1.5-1.93 2.74-3.54 2.75-3.58 0-.04-.74-.75-1.67-1.58l-1.69-1.52h-2.41v-1.46h6.02v1.45h-.76c-.42 0-.76.03-.76.05 0 .03 1.05 1.11 2.34 2.4l2.35 2.35v-4.8h-1.59v-1.45h7.55v1.45h-1.6v4.8l2.36-2.35a81.7 81.7 0 0 0 2.34-2.4c0-.02-.34-.05-.76-.05h-.76v-1.45h6.02v1.45h-2.42l-1.7 1.53c-.93.84-1.7 1.54-1.7 1.56 0 .02 1.24 1.62 2.76 3.57l2.75 3.53h1.44v1.52h-7.54v-1.52h.72c.4 0 .73-.02.73-.04 0-.03-3.17-4.13-3.35-4.32-.08-.09-.14-.04-.48.33l-.4.43v3.6h1.59v1.52h-7.54v-1.52h1.59v-3.6l-.39-.4c-.2-.22-.4-.4-.43-.4-.03 0-.82.98-1.76 2.19l-1.7 2.18.74.02.75.02v1.51h-7.54v-.76zm78.45 0v-.76h1.85V27.38h-3.17v2.12h-1.52v-3.58h13.76v3.58h-1.52v-2.12l-1.58.02-1.57.02-.01 5.07-.02 5.08h1.65v1.52h-7.87z" fill="#fff"/></svg>