<svg xmlns="http://www.w3.org/2000/svg" height="600" width="900"><path d="M 0,0 H 900 V 600 H 0 Z" fill="#c10"/><path d="m 449.6722,103.45495 v 0.046 c -6.08242,0.13994 -11.53226,5.25623 -11.53226,12.32971 0,4.0639 2.05495,8.24857 5.62619,12.32588 2.05879,-1.29201 3.56167,-2.63003 4.96869,-3.98338 -2.9329,-3.37381 -4.31309,-6.82428 -4.31309,-8.3425 0,-3.99105 2.59936,-5.98083 5.3444,-6.04792 2.75847,0.0671 5.85815,2.20447 5.85815,6.04792 0,1.61981 -1.45112,5.52844 -4.87476,9.04793 -1.89201,1.94377 -3.88371,3.51182 -6.13994,5.01469 -2.13354,1.41854 -4.8115,2.52077 -7.54696,3.42173 0.0575,1.87284 0.0326,4.25176 -0.23387,6.60958 0.27988,-0.0537 0.57317,-0.0633 0.84345,-0.14185 4.88627,-1.39936 8.8294,-3.74377 12.3278,-6.28179 1.97061,-1.42811 3.9393,-2.94249 5.62428,-4.6869 4.03514,-4.17124 6.28179,-8.70096 6.28179,-12.98339 0,-7.22492 -5.90415,-12.19744 -12,-12.32971 v -0.046 h -0.23578 z m -32.10862,14.6262 c -8.17572,0 -14.4786,5.77572 -19.6409,12.3738 -1.246,1.59106 -2.35782,3.32396 -3.46964,5.0147 h 7.6869 c 0.23578,-0.34697 0.45431,-0.80511 0.70351,-1.12332 4.70032,-6.00575 9.63642,-9.98531 14.71821,-9.98531 2.58019,0 5.2409,0.64601 7.26518,2.06262 2.0262,1.41853 3.66134,3.53099 4.26709,7.40703 0.009,0.0633 -0.006,0.16294 0,0.23387 0.0326,0.27795 0.0288,0.5885 0.046,0.88945 0.001,0.0383 -0.004,0.0575 0,0.0958 0.10926,2.00703 -0.14186,4.42812 -0.88946,6.51374 -0.0863,0.2147 -0.13419,0.44664 -0.23387,0.65751 -0.0441,0.0901 -0.0479,0.19169 -0.0958,0.27987 h -0.046 c -1.37636,2.66837 -3.89137,5.18914 -9.46965,6.70351 -5.28115,1.43579 -13.85942,0.66326 -23.53035,0.42173 -0.92013,1.32843 -2.63195,3.95271 -4.17125,6.28179 a 48.690096,48.690096 0 0 1 2.85815,-0.046 c 9.81086,0.19552 19.00447,1.43386 26.53035,-0.60959 7.15975,-1.94569 11.4901,-5.94441 13.59489,-10.3131 0.60575,-1.25559 0.88371,-2.47284 1.12524,-3.70351 0.006,-0.0364 -0.006,-0.10352 0,-0.13994 0.39489,-2.446 0.55591,-5.13163 0.51757,-7.26517 -0.004,-0.15336 0.001,-0.36997 0,-0.51757 a 3.3833866,3.3833866 0 0 0 -0.0479,-0.42173 c -0.83003,-5.30607 -3.43706,-9.2722 -6.79744,-11.62428 -3.36039,-2.35016 -7.34186,-3.18786 -10.92269,-3.18786 z m 64.87476,0 c -3.58083,0 -7.46837,0.83578 -10.83067,3.18594 -3.18594,2.2294 -5.7393,5.92908 -6.7016,10.82876 1.92652,0.51182 4.17891,0.87603 6.13994,1.17124 0.67476,-3.50223 2.20447,-5.50159 4.12524,-6.84345 2.02619,-1.41853 4.6869,-2.06262 7.26517,-2.06262 5.08371,0 10.01981,3.97956 14.72013,9.98531 0.2607,0.33354 0.54249,0.66709 0.79744,1.03131 0.21662,0.31054 0.39297,0.66709 0.60767,0.98338 0.19936,0.29138 0.41022,0.56358 0.60959,0.84345 a 240.96613,240.96613 0 0 1 4.17316,6.3278 h 0.0939 c 0.91629,1.46453 1.75591,2.84089 2.62428,4.21917 2.4115,0 5.17764,0.0805 7.64089,0.18786 -0.6,-0.94505 -1.19616,-1.88435 -1.82875,-2.90607 l -0.88946,-1.45304 c -1.24984,-1.97252 -2.86389,-4.3131 -4.21917,-6.32779 -0.31054,-0.4754 -0.67859,-0.92972 -0.9853,-1.40703 -1.17125,-1.82301 -2.27156,-3.68243 -3.60958,-5.39042 -5.16227,-6.59808 -11.55908,-12.37572 -19.73288,-12.37572 z m -25.92269,12.3738 c -1.36102,1.2901 -3.14568,2.67412 -4.96869,4.03131 3.11502,2.1393 6.52333,4.09074 10.73483,5.29649 0.55591,0.16102 1.13482,0.26837 1.73291,0.37572 0.33546,0.0575 0.71693,0.10926 1.03131,0.18786 0.004,0.0173 -0.004,0.0288 0,0.046 1.92651,0.43131 4.45687,0.87029 6.70351,1.21917 -0.006,-0.0192 0.008,-0.0307 0,-0.0479 9.50224,1.55655 19.47604,1.94761 29.53227,1.96869 a 469.81725,469.81725 0 0 0 -4.26709,-6.3738 c -8.77189,-0.10543 -17.26582,-0.57508 -25.07732,-1.92269 -0.30863,-0.0441 -0.73994,-0.13418 -1.07732,-0.18786 -1.92651,-0.2952 -4.0984,-0.67859 -6.14185,-1.21725 -0.0172,-0.005 -0.0767,0.004 -0.0939,0 -0.19744,-0.0441 -0.41789,-0.0383 -0.60958,-0.0958 -2.81789,-0.80511 -5.26774,-1.96294 -7.49905,-3.27987 z m -29.15654,4.87476 c -8.2639,1.36678 -17.23898,1.8901 -26.53036,1.87476 -2.76613,-0.004 -5.53226,0.0403 -8.2984,0.0479 -5.40575,0.0115 -10.76933,-0.0383 -16.17124,0.13993 -11.24665,0.36997 -20.07029,4.12716 -25.78275,9.60959 a 23.467093,23.467093 0 0 0 -5.85815,9.09393 c 2.81789,-1.12524 6.75911,-2.64345 9.14185,-3.3278 0.36422,-0.41597 0.70927,-0.82045 1.12524,-1.21917 4.42428,-4.24792 11.6492,-7.45303 21.60767,-7.78275 4.06965,-0.13418 8.30224,-0.18594 12.46965,-0.18594 2.83706,0 5.52843,-0.0479 8.34441,-0.0479 9.89712,0 19.71565,-0.33738 29.10862,-1.73291 l -0.18785,-0.0479 c 0.82044,-1.76166 1.11182,-4.39169 1.03131,-6.42172 z m 81.51565,1.92269 c 1.4722,2.15655 3.1361,4.55655 4.21725,6.32587 3.48499,0.0102 6.9738,0.0767 10.36103,0.18978 9.96038,0.32588 17.18338,3.53291 21.60958,7.78083 0.42556,0.40831 0.73802,0.84729 1.12524,1.26518 3.01917,3.25112 4.02939,7.31501 4.17125,11.57827 0.0115,0.36422 -0.023,0.72269 -0.0939,1.07732 -0.36422,1.86517 -1.18275,2.97125 -2.76422,3.9393 -1.58339,0.96613 -4.14824,1.6869 -7.78275,1.6869 -4.19808,0 -8.56294,-2.35016 -12.84345,-6.28179 -2.13355,-1.95911 -4.14633,-4.26326 -6.09393,-6.74952 -1.95719,-0.0767 -5.07987,-0.15336 -7.96869,-0.18786 2.9099,4.10415 6.10351,8.13929 9.79553,11.53227 4.91693,4.51437 10.63514,7.96869 17.11054,7.96869 4.39744,0 8.11629,-0.77636 11.06262,-2.57828 2.86582,-1.75208 5.0377,-4.55463 5.57828,-7.82875 0.4984,-3.00767 0.006,-6.08051 -0.56167,-9.04793 a 9.0115016,9.0115016 0 0 0 -0.46967,-1.54504 c -1.154,-3.37764 -3.0556,-6.63834 -5.90416,-9.37572 -5.71246,-5.48243 -14.5361,-9.23962 -25.78275,-9.60959 -4.93418,-0.16294 -9.83578,-0.14377 -14.76613,-0.13993 z m -43.45303,5.0607 a 12.268371,12.268371 0 0 0 0.89137,2.6262 c 2.10479,4.36869 6.52716,8.36741 13.6869,10.3131 7.52588,2.04345 16.67348,0.80511 26.48435,0.60958 1.62364,-0.0326 3.32971,0.17061 5.01661,0.18594 2.65495,0.009 5.53802,0.0613 7.87476,0.14186 h 0.046 c 0.52523,0.0192 1.28051,0.0307 1.6869,0.046 v 0.0958 c 5.0377,0.33929 9.7821,0.88562 13.40702,1.7329 4.00831,0.93738 8.88691,2.37317 14.10863,4.17125 -0.18402,-2.1623 -1.01789,-4.88434 -3.27987,-7.78083 a 184.23642,184.23642 0 0 0 -9.46965,-2.53035 c -5.48243,-1.28435 -12.40831,-1.86901 -19.45303,-2.10863 v 0.046 a 386.83706,386.83706 0 0 0 -9.13994,-0.28179 c -0.29329,0.004 -0.64792,-0.005 -0.9393,0 -10.16549,0.2032 -19.246,1.11949 -24.7476,-0.37572 -4.86326,-1.32076 -7.41853,-3.39872 -8.90799,-5.6722 a 145.96677,145.96677 0 0 1 -7.26517,-1.21725 z m -77.53036,3.14377 c -0.76294,1.24601 -1.53738,2.46709 -2.25048,3.56166 a 118.8,118.8 0 0 1 -6.18785,8.6262 c -2.0377,2.58978 -4.00639,5.12779 -6.23387,7.17124 -4.28243,3.93163 -8.73738,6.28179 -12.9393,6.28179 -3.63259,0 -6.19744,-0.72076 -7.78083,-1.6869 -1.58147,-0.96805 -2.35208,-2.07412 -2.71821,-3.9393 a 6.9450479,6.9450479 0 0 1 -0.0939,-0.7476 c -0.82236,0.32205 -1.67348,0.65751 -2.57827,1.02939 -1.30927,0.54058 -2.21023,0.95847 -3.3278,1.45304 0.74952,3.15527 2.63962,5.88307 5.43834,7.59489 2.94633,1.80191 6.66518,2.57827 11.0607,2.57827 6.47732,0 12.24154,-3.45431 17.15655,-7.96869 3.80895,-3.4984 7.10607,-7.66773 10.07923,-11.90799 1.82109,-2.59169 3.531,-5.26198 5.25048,-7.92076 0.90096,-1.39553 1.73291,-2.70096 2.6262,-4.12524 z m -4.83067,4.40703 c -6.85687,0.2492 -13.59872,0.81469 -18.93546,2.06262 -3.2722,0.76485 -7.24601,1.74441 -11.43834,3.09201 -3.13994,1.01214 -5.97508,2.30607 -9.04792,3.51566 -0.12844,0.0518 -0.24345,0.1361 -0.3738,0.18786 l 0.14185,6.74951 c 2.89457,-1.26134 5.82172,-2.54376 8.81214,-3.56166 a 144.05176,144.05176 0 0 1 13.3591,-3.84345 c 3.45623,-0.80894 7.89393,-1.34185 12.6556,-1.6869 1.24025,-1.57763 3.40255,-4.43195 4.82875,-6.51757 z m -72.27987,30.09201 a 58.734824,58.734824 0 0 0 -4.92077,6.37572 c -16.86325,25.18275 -26.81789,51.66901 -30.56357,78.37572 2.58786,-5.29649 5.60319,-10.154 8.95207,-14.34441 0.006,-0.0172 -10e-4,-0.0767 0,-0.0939 4.83259,-20.54952 13.6869,-40.81725 26.81406,-60.42173 a 51.546326,51.546326 0 0 1 2.43834,-3.32779 c -1.02748,-2.48626 -1.55272,-3.71885 -2.72013,-6.56358 z m 279.74952,1.54697 -4.21725,4.73482 c 0.92396,1.15208 1.78658,2.35783 2.6262,3.60958 13.03897,19.47604 21.86453,39.63259 26.71629,60.04793 3.37572,4.14249 6.38339,8.97891 9,14.24856 -3.80511,-26.51502 -13.72524,-52.80575 -30.46773,-77.81214 a 59.894569,59.894569 0 0 0 -3.65751,-4.82875 z m 29.11054,93.46964 c 0.90096,10.79234 0.71885,21.58467 -0.42172,32.34441 h 5.6722 c 0.91055,-8.46517 -0.45431,-18.49073 -3.6575,-28.03131 a 68.670288,68.670288 0 0 0 -1.59298,-4.3131 z m -339.28178,0.46965 a 69.791693,69.791693 0 0 0 -1.40512,3.84345 c -3.20127,9.54058 -4.56805,19.56614 -3.6575,28.03131 h 5.48434 a 171.69393,171.69393 0 0 1 -0.42172,-31.87476 z m -4.73483,40.82684 c 0.76677,5.05112 1.72524,10.08498 2.90607,15.09393 5.13546,21.73227 14.16614,42.9968 26.6262,63.23387 v -12.42173 c -9.38914,-16.9361 -16.27859,-34.46262 -20.48435,-52.26518 a 184.70799,184.70799 0 0 1 -2.71821,-13.64089 z m 342.42173,0 a 184.41853,184.41853 0 0 1 -2.67029,13.64089 c -4.27476,18.09585 -11.37316,35.91374 -21,53.10863 v 12.42173 c 12.72652,-20.48627 21.88754,-42.04601 27.09393,-64.07732 a 188.39042,188.39042 0 0 0 2.90607,-15.09393 z" fill-rule="evenodd"/><path d="m 330.87796,155.6377 v 17.21406 h 8.91565 V 155.6377 h -8.91374 z m 229.32843,0 v 17.21406 h 8.91374 V 155.6377 Z m -240.93355,21.4754 v 17.21406 h 8.91374 V 177.1131 Z m 11.60512,0 v 17.21406 h 8.91565 V 177.1131 h -8.91374 z m 11.60702,0 v 17.21406 h 8.97125 V 177.1131 Z m 206.05879,0 v 17.21406 h 8.97125 V 177.1131 Z m 11.66262,0 v 17.21406 h 8.91374 V 177.1131 Z m 11.60703,0 v 17.21406 h 8.91374 V 177.1131 Z m -255.51374,21.75527 v 8.97125 h 37.39936 v -8.97125 z m 230.00128,0 v 8.97125 h 37.39936 v -8.97125 z M 319.27284,212.32524 V 313.8115 h 8.91374 V 212.32524 Z m 11.60512,0 V 313.8115 h 8.91565 V 212.32524 h -8.91374 z m 11.60702,0 V 313.8115 h 8.97125 V 212.32524 Z m 206.05879,0 V 313.8115 h 8.97125 V 212.32524 Z m 11.66262,0 V 313.8115 h 8.91374 V 212.32524 Z m 11.60703,0 V 313.8115 h 8.91374 V 212.32524 Z m -281.24856,38.63195 c -13.6524,13.72907 -24.25496,42.44473 -20.12972,62.85623 h 46.14633 l -0.28179,-52.59489 c 0,0 -13.00447,-1.25559 -14.29649,5.21406 -1.29392,6.46965 5.71822,7.7099 5.71822,12.50415 v 4.82109 h -4.09266 c -10.14057,0 -16.12715,-18.01917 -8.86006,-29.49202 z m 318.87028,0 -4.20383,3.30862 c 7.26709,11.47285 1.28243,29.49202 -8.86006,29.49202 h -4.09266 v -4.82109 c 0,-4.79425 7.01214,-6.0345 5.71822,-12.50415 -1.29202,-6.46965 -14.29649,-5.21406 -14.29649,-5.21406 l -0.28179,52.59297 h 46.14633 c 4.12524,-20.40958 -6.47924,-49.12524 -20.1278,-62.85431 z m -305.47092,67.34185 v 8.97125 h 49.73482 v -8.97125 z m 242.33674,0 v 8.97125 h 49.73482 v -8.97125 z m -238.63515,13.45687 v 118.53163 h 8.91374 V 331.75399 h -8.91374 z m 11.60703,0 v 118.53163 h 8.91374 V 331.75399 h -8.91374 z m 11.60512,0 v 118.53163 h 8.91565 V 331.75399 h -8.91374 z m 11.60702,0 v 118.53163 h 8.97125 V 331.75399 h -8.97125 z m 206.05879,0 v 118.53163 h 8.97125 V 331.75399 h -8.97125 z m 11.66262,0 v 118.53163 h 8.91374 V 331.75399 h -8.91374 z m 11.60703,0 v 118.53163 h 8.91374 V 331.75399 h -8.91374 z m 11.60511,0 v 118.53163 h 8.91566 V 331.75399 h -8.91374 z M 303.96422,454.77316 v 8.97125 h 49.73482 v -8.97125 z m 242.33674,0 v 8.97125 h 49.73482 v -8.97125 z m -238.63515,13.51438 -5.49584,8.80064 6.61725,6.1131 c 0,0 3.98339,-2.74505 5.93291,-6.47348 1.9476,-3.72844 1.85942,-8.44218 1.85942,-8.44218 h -8.91374 z m 11.60703,0 v 10.09073 h 8.91374 v -10.09265 h -8.91374 z m 11.60512,0 v 10.09073 h 8.91565 v -10.09265 h -8.91374 z m 11.60702,0 v 10.09073 h 8.97125 v -10.09265 h -8.97125 z m 206.05879,0 v 10.09073 h 8.97125 v -10.09265 h -8.97125 z m 11.66262,0 v 10.09073 h 8.91374 v -10.09265 h -8.91374 z m 11.60703,0 v 10.09073 h 8.91374 v -10.09265 h -8.91374 z m 11.60511,0 c 0,0 0.17828,5.24281 2.1278,8.97125 1.9476,3.72843 5.66645,5.94249 5.66645,5.94249 l 6.61725,-6.1131 -5.49584,-8.80256 h -8.91374 z m -252.54057,14.63195 v 11.60703 h 8.91565 v -11.60703 h -8.91374 z m 229.32843,0 v 11.60703 h 8.91374 v -11.60703 z" fill-rule="evenodd"/><path d="m 362.22364,187.98978 v 192.99488 c 0,32.71822 63.32013,46.29969 87.80511,64.92844 24.48499,-18.62875 87.74952,-32.21022 87.74952,-64.92844 V 187.98978 H 362.22173 Z" fill="none" stroke="#000" stroke-width="6.161"/><path d="m 364.08882,448.64665 c -2.60703,6.77444 -3.91438,14.20063 -4.25176,22.10798 l 17.43067,5.10288 6.37764,-19.55847 z m 171.82428,0 c 2.60511,6.77444 3.91054,14.20063 4.25176,22.10798 l -17.43259,5.10288 -6.37764,-19.55847 z" fill-rule="evenodd" stroke="#c10" stroke-width="2.691"/><path d="m 450.01342,495.20128 c -29.71246,0 -83.32907,-8.17189 -88.75975,-23.38275 -2.64345,-7.39936 17.11821,2.63962 19.11949,-8.91374 1.10224,-6.3623 -12.20703,-13.04856 -31.84792,-14.46709 -19.64089,-1.41853 -41.6032,-10.48562 -41.6032,-10.48562 -1.67156,-9.27796 -1.4837,-30.03259 0.22429,-39.2492 10.44728,8.19297 22.42811,12.9968 39.64217,16.5968 17.16038,3.5885 39.40447,5.89074 43.79041,19.96102 -3.58466,4.96103 -5.16613,10.76166 -5.49584,16.14825 15.38338,8.71437 41.53035,12.78402 64.93035,12.78402 23.39808,0 49.54696,-4.06965 64.92843,-12.78594 -0.32971,-5.38467 -1.96869,-11.1853 -5.55143,-16.14633 4.38594,-14.07028 26.63003,-16.37252 43.79233,-19.96102 17.21406,-3.6 29.19489,-8.40383 39.64217,-16.5968 1.70607,9.21661 1.94952,29.97124 0.27987,39.2492 0,0 -21.96421,9.06709 -41.60511,10.48562 -19.64089,1.41853 -33.00575,8.10479 -31.90351,14.46518 2.00127,11.55527 21.76102,1.51437 19.11948,8.91373 -5.43067,15.21278 -59.19488,23.38275 -88.70223,23.38275 z" fill-rule="evenodd" stroke="#c10" stroke-width="2.691"/><path d="m 571.30927,416.16805 c 5.63003,-0.11501 9.40638,-1.91693 13.68115,-5.18147 1.15016,5.87732 4.29968,9.94122 6.34888,14.94249 -2.94249,-2.08945 -5.53994,-5.55143 -7.42237,-9.08051 l -2.57827,1.23642 c 1.17508,5.25623 3.31821,10.9016 7.16358,14.63387 -3.74761,0.14952 -6.45048,1.07348 -9.88371,3.10927 1.69265,-5.81981 0.30096,-11.76422 -0.80511,-16.5508 l -2.74888,0.69201 c 0.46581,5.06837 -0.51758,8.74313 -0.95847,12.06326 -0.64409,-5.30032 -1.25367,-10.60256 -2.79872,-15.86454 z m -7.32652,2.77955 c -3.75144,0.4179 -6.99106,1.50288 -10.49904,2.07221 3.49456,2.91565 4.83833,16.93993 2.37508,20.1738 2.9099,-1.2345 4.88051,-1.5278 7.98786,-1.44537 -1.48563,-1.78274 -1.6294,-4.10798 -1.98211,-6.55974 2.12204,-0.36805 3.39297,1.8115 5.03578,3.29521 1.53355,1.38019 3.94888,2.08754 7.88626,-0.12077 -2.40383,-1.23451 -5.65112,-3.47348 -7.07731,-6.55591 4.48754,-3.79936 2.55718,-11.56486 -3.72652,-10.86134 z m 1.4837,6.61917 c 0.34122,2.26582 -2.36357,3.13419 -4.23642,3.36422 l -0.64217,-4.65815 c 1.83642,-0.96996 4.53546,-0.9738 4.87859,1.29393 z m -24.32971,10.68882 c 3.62684,-0.81661 9.00192,-4.54313 10.86134,-7.68307 -0.96421,-2.89648 -3.19169,-6.31246 -8.03195,-5.81405 -3.77635,0.38722 -7.9361,3.46965 -8.09329,10.52779 -0.1706,7.66198 4.27093,11.0607 8.25048,10.89968 5.30607,-0.22044 8.16614,-3.93163 9.18019,-7.27284 -2.22364,1.98211 -4.34568,3.1016 -6.5214,3.15335 -2.40384,0.0575 -4.49521,-0.84345 -5.64537,-3.81086 z m 1.58722,-9.71501 c -3.18786,1.90926 -2.18338,6.31437 -2.18338,6.31437 2.80638,-0.80128 5.61469,-2.23322 8.03194,-4.72332 0,0 -2.42492,-3.64217 -5.84856,-1.59105 z m -26.69712,6.34504 c 5.89265,-1.94952 11.13354,-4.27092 17.36358,-8.33099 -1.00256,3.31055 -0.74761,5.90607 -0.23962,8.57828 -3.39297,-3.4639 -5.83706,-2.18914 -9.57316,-0.32588 0.51757,2.65687 1.01405,3.64217 2.17763,5.57252 2.10479,-1.09648 3.23195,-2.49201 4.25943,-5.21405 0.44664,3.47923 1.53354,6.58083 3.38338,9.22619 -2.27156,-0.72268 -4.33227,-1.77891 -6.26645,-0.55974 1.23834,2.84281 1.71374,4.90735 4.93227,5.63578 -3.23387,0.77636 -6.14377,2.12013 -9.1246,3.8147 2.84089,-5.8639 -2.13355,-17.19489 -6.91246,-18.39489 z m -145.75208,-6.08051 c 4.3361,3.73802 8.02812,4.89585 12.76294,5.25048 -1.79233,5.37508 -1.23642,10.69265 -1.94377,15.99489 -1.29201,-3.63451 -1.70032,-8.10479 -1.53355,-12.14377 l -2.52076,-0.78594 c -1.48946,4.90735 -2.41726,10.77699 -1.18467,16.30735 -2.91949,-2.42876 -5.39616,-3.54441 -8.93291,-4.28818 3.92972,-3.39681 5.56486,-8.99042 6.89521,-13.48179 l -2.40767,-1.32844 c -1.94377,4.2786 -4.3591,6.48115 -6.19744,8.77956 1.91118,-4.58147 3.85304,-9.14186 5.0607,-14.30416 z m -8.93866,-1.87476 c -3.62492,-1.32652 -6.98147,-1.77124 -10.42811,-2.83898 2.33099,4.44729 -0.85495,18.68627 -4.16933,20.68946 3.09968,0.14569 5.02236,0.77252 7.89009,2.28882 -0.81853,-2.41917 -0.21469,-4.74249 0.23004,-7.28626 2.09137,0.623 2.5821,3.32779 3.64217,5.52651 0.99105,2.05112 3.01533,3.85304 7.38019,3.52908 -1.84792,-2.31182 -4.16166,-5.98658 -4.51246,-9.64026 5.377,-1.61406 6.0345,-10.04856 -0.0326,-12.26837 z m -0.71501,7.11374 c -0.39873,2.35974 -3.18978,1.95144 -5.00512,1.30926 l 0.87604,-4.82108 c 2.0147,-0.092 4.5278,1.15208 4.12908,3.51182 z m -24.65943,1.07923 c 3.62684,-0.82428 9.00192,-4.5968 10.86134,-7.77699 -0.96421,-2.93291 -3.19169,-6.39106 -8.03195,-5.88499 -3.77635,0.39297 -7.9361,3.51374 -8.09329,10.65815 -0.1706,7.75591 4.27093,11.1968 8.25048,11.03386 5.30607,-0.22428 8.16614,-3.97955 9.18019,-7.36293 -2.22364,2.00702 -4.34568,3.13993 -6.5214,3.19169 -2.40384,0.0575 -4.49521,-0.85112 -5.64537,-3.85879 z m 1.58722,-9.83386 c -3.18786,1.93227 -2.18338,6.39297 -2.18338,6.39297 2.80638,-0.81278 5.61469,-2.26198 8.03194,-4.78083 0,0 -2.42492,-3.68626 -5.84664,-1.61023 z m -24.68243,-13.10224 c 6.41598,3.21278 12.40639,5.53035 20.15847,7.09265 -2.53802,2.19106 -3.56166,4.79617 -4.38978,7.68307 -1.46453,-6.06901 -4.35143,-6.97189 -8.72204,-8.43451 -0.81278,2.88307 -0.83003,4.21151 -0.68626,6.97572 2.48434,0.7802 4.20766,0.4524 6.48306,-1.17699 a 25.278594,25.278594 0 0 0 -1.34185,11.35974 c -1.75783,-2.59361 -3.15527,-5.31757 -5.54185,-5.83898 -0.23387,3.66518 -0.79553,5.96742 1.83642,9.37189 -3.37764,-2.03195 -6.72843,-3.27029 -10.31885,-4.24409 5.48435,-2.977 6.3738,-17.62428 2.52268,-22.7885 z m 118.16742,71.31182 c 4.72524,-0.50415 11.73163,-3.80319 14.15079,-6.82428 -1.25367,-3.023 -4.15974,-6.68626 -10.46262,-6.61342 -4.92268,0.0575 -10.34377,2.81406 -10.54696,9.96039 -0.22236,7.75399 5.56677,11.59744 10.75016,11.78913 6.91246,0.2492 10.63898,-3.2607 11.96166,-6.55974 -2.8984,1.8115 -5.6607,2.75846 -8.49585,2.61661 -3.13418,-0.15527 -5.85814,-1.25367 -7.35718,-4.36869 z m 2.06837,-9.71118 c -4.154,1.6524 -2.84473,6.21086 -2.84473,6.21086 3.65751,-0.56358 7.31501,-1.76358 10.46453,-4.0754 0,0 -3.1591,-3.91054 -7.6198,-2.13546 z m 48.18594,-4.77891 c 7.53355,0.1246 12.81278,-1.36678 18.94888,-4.177 0.76486,5.423 4.44153,9.26645 6.52332,13.92268 -3.65559,-2.03195 -6.67092,-5.30223 -8.72396,-8.60703 l -3.60383,1.02365 c 0.87987,4.85559 3.00575,10.10415 7.65239,13.6754 -5.02619,-0.0173 -8.75463,0.71693 -13.60639,2.43642 3.02109,-5.25048 1.93994,-10.74249 1.09266,-15.16486 l -3.76486,0.51949 c -0.0383,4.65431 -1.83642,7.97444 -2.85623,10.99169 -0.16677,-4.87476 -0.28754,-9.7476 -1.66198,-14.62044 z m -15.98914,1.75591 c -5.19489,0.0326 -9.75719,0.7706 -14.63386,0.97763 4.49137,3.23003 4.86709,17.19489 1.1444,20.13547 4.12716,-0.92013 6.86262,-1.01023 11.12013,-0.61342 -1.85367,-1.90927 -1.80383,-4.21726 -2.03195,-6.67093 2.95208,-0.14569 4.46646,2.13355 6.56742,3.76294 1.9591,1.51821 5.20063,2.45942 10.84217,0.68434 -3.17253,-1.46262 -7.39745,-4.00255 -9.03067,-7.18849 6.55974,-3.28754 4.7214,-11.14313 -3.97764,-11.08754 z m 1.34185,6.67859 c 0.23195,2.27157 -3.57316,2.85048 -6.16869,2.8869 l -0.39297,-4.65815 c 2.62237,-0.7706 6.3278,-0.4984 6.56166,1.77125 z m -70.20383,-13.87859 c 8.13163,2.52076 15.72268,4.22108 25.54888,5.0492 -3.21853,2.31182 -4.51437,4.88818 -5.56485,7.71565 -1.85559,-5.6722 -5.51502,-6.28754 -11.05496,-7.30926 -1.02939,2.82172 -1.05048,4.09265 -0.87028,6.72076 3.14952,0.53291 5.33482,0.0728 8.21789,-1.67923 -1.61598,3.52907 -2.25048,7.177 -1.70032,10.96486 -2.22748,-2.32716 -3.99872,-4.80767 -7.02556,-5.10288 -0.29329,3.52141 -1.00639,5.76997 2.32907,8.79489 -4.27859,-1.6524 -8.52843,-2.54952 -13.07731,-3.17061 6.9508,-3.31437 8.07795,-17.37891 3.19744,-21.98338 z" fill="#c10" fill-rule="evenodd"/><path d="m 463.85942,246.26645 c 0.36806,1.22301 -0.0805,2.61087 1.08116,3.38531 0.0824,0.93929 0.0192,2.14121 0.0192,2.99808 -0.67092,0.30671 -1.9361,0.9393 -3.54632,1.10224 -1.61023,0.16294 -3.32588,0.24345 -4.24217,0.24345 -3.14186,0 -6.28179,-0.44857 -9.17828,-0.48882 -3.09968,-0.0613 -8.70862,0.85687 -9.42364,-0.36805 -0.38722,-0.85495 -0.1016,-2.05879 -0.0403,-3.09968 -0.26453,-0.30671 -0.22428,-0.99872 -0.18402,-1.48754 0.12268,-2.46901 0.63259,-5.16039 1.63131,-7.15975 -0.0192,-1.40703 0.53099,-2.38658 1.36677,-2.95782 -0.0402,-0.89713 0.34697,-1.48754 1.00064,-1.54889 0.77444,-1.32651 2.05879,-1.1214 3.03834,-1.48945 0.40831,-0.14186 1.36677,-1.40703 1.97827,-1.95719 0.36614,-0.30671 0,-2.18339 0.40831,-2.89649 0.0805,-0.16294 0.1016,-0.44856 0.0383,-0.57124 -0.28371,-0.48882 -0.9163,-0.36805 -1.44537,-0.57125 -1.10224,-0.40831 -2.73354,-0.83578 -3.55016,-1.44728 -0.55016,-0.4294 -0.9393,-0.97956 -1.24409,-1.67349 -0.28562,-0.67092 -0.48882,-1.81533 -0.87604,-2.07987 1.52972,0.18403 2.44601,0.34505 3.24154,1.16166 0.4083,0.4294 1.36677,0.97956 2.08179,1.32652 -1.5508,-2.81406 -3.42748,-4.15974 -5.6492,-5.85431 -2.85623,-2.18147 -5.99809,-3.38531 -6.05751,-3.73227 -0.0824,-0.42748 0.6115,-0.42748 0.93738,-0.38722 1.61022,0.20511 5.81214,1.75399 8.72971,3.69201 2.73163,1.83642 5.13738,4.22109 7.05623,6.42364 0,-1.0198 -1.48946,-3.03834 -2.40575,-3.81469 -0.89904,-0.75336 -1.42812,-2.05879 -1.3476,-3.34313 2.26389,1.06006 3.79552,3.73227 6.24153,6.19936 0.77444,0.44856 1.30543,0.97955 1.38786,1.69265 0.44856,0.45048 1.18275,1.22492 1.52779,1.40894 -0.12076,0.4064 0.30671,0.83579 0.0211,1.38595 -0.0613,0.16294 -0.18403,0.24536 -0.16294,0.42747 0.83578,0.49074 1.28435,2.40767 1.87668,3.38722 0.4083,0.65176 1.36677,1.30352 1.42811,1.73291 0.1016,0.81661 -0.61342,1.26518 -0.67476,2.01853 0.2262,0.42939 0.57125,0.57125 0.8377,0.69393 0.69202,0.50991 1.26518,1.08115 1.26518,1.9361 h 0.24345 c 1.40703,1.00064 1.75399,2.51119 1.75399,4.61023 0.63259,0 1.08115,0.65175 0.83578,1.10223 z"/><path d="m 434.95974,216.69393 c -0.32587,0 -0.71309,0.0805 -0.65175,0.40639 0.0613,0.34696 3.20128,1.52971 6.05751,3.73227 2.22364,1.69265 4.0984,3.04025 5.6492,5.85431 -0.71502,-0.34505 -1.67349,-0.89712 -2.07988,-1.32652 -0.79552,-0.81469 -1.71373,-0.97763 -3.24345,-1.16166 0.38722,0.26454 0.59042,1.40703 0.87604,2.07987 0.30671,0.69393 0.69393,1.24601 1.24601,1.67349 0.8147,0.6115 2.446,1.03897 3.52716,1.44728 0.55015,0.2032 1.18274,0.0824 1.46837,0.57125 0.0613,0.12268 0.0403,0.4083 -0.0403,0.57124 -0.40831,0.7131 -0.0422,2.58978 -0.40831,2.89457 -0.61342,0.55208 -1.57188,1.83642 -1.97827,1.98019 -0.97764,0.34505 -2.2639,0.14186 -3.03834,1.46837 -0.65176,0.0805 -1.04089,0.65176 -1.00064,1.52972 0.89713,-0.18403 1.38786,-1.36678 2.1623,-1.63131 -0.16294,0.38722 -0.91821,1.10032 -0.46965,1.3246 0.38914,0.18402 1.5508,-1.08115 1.73483,-1.26518 0.10159,0.28754 -0.57125,1.14249 -0.34697,1.26518 0.52908,0.30671 1.46837,-1.01981 1.67157,-1.34569 0.5099,1.81534 1.79616,1.38594 1.69265,-0.42939 0.20511,0.63259 0.73418,2.1623 1.51054,1.71374 0.79553,-0.46965 -0.22428,-1.34569 -0.36805,-1.79425 0.71502,0.69393 0.95847,1.61022 1.77508,2.1623 a 0.8971246,0.8971246 0 0 0 0.6115,0.0192 c 0.30671,-0.12269 0.1016,-0.50991 -0.0192,-0.65176 -0.12268,-0.18403 -0.38913,-0.50991 -0.38913,-0.50991 0.30671,0.16294 0.49073,0.44857 1.16357,1.06007 0.67093,0.59233 0.95847,0.63259 1.20192,0.5099 0.2262,-0.10159 -0.26454,-0.73418 -0.46773,-0.93929 0.22428,0.12268 0.65176,0.53099 1.08115,0.85878 0.42748,0.30671 0.97764,0.40639 1.10032,0.2032 0.0824,-0.14377 -0.2032,-0.34505 -0.48882,-0.57125 a 8.9175719,8.9175719 0 0 1 -0.57124,-0.46965 c 0,0 0.26453,0.0422 0.75527,0.34697 0.48881,0.28754 1.20191,0.83578 1.46837,0.89712 0.5099,0.12268 0.75335,0.0613 0.75335,-0.1016 -0.0192,-0.16294 -0.22428,-0.28562 -0.42747,-0.44856 a 10.619808,10.619808 0 0 1 -0.40831,-0.34505 c 0,0 1.48946,0.77253 2.07987,0.8147 0.46965,0.0192 0.69393,0 0.71502,-0.18403 0.0192,-0.14185 -0.36805,-0.48881 -0.36805,-0.48881 0.53099,0.30671 1.10223,0.5099 1.4492,0.34504 a 1.1175719,1.1175719 0 0 0 -0.18403,-0.14185 c -0.24537,-0.1016 -0.57124,-0.24537 -0.79552,-0.59041 -0.79553,0.12076 -3.22237,0.20319 -5.22173,-0.95847 -3.16102,-1.83642 -4.05815,-2.08179 -4.5278,-2.08179 -1.85559,0 -2.85623,1.57189 -4.77316,1.24601 2.02045,0 3.28371,-1.95911 5.32332,-1.40895 2.32524,0.63259 4.77317,3.03834 7.89393,2.95783 0.0614,-0.61342 -0.75527,-0.73419 -0.7131,-1.38786 0.0383,-0.52907 0.40639,-0.79553 0.61151,-0.48882 0.16294,0.22428 -0.32588,0.67284 -0.12269,0.87604 0.14186,0.14377 0.48882,0.0211 0.48882,0.0211 0,0 -0.0403,0.48881 0.0824,0.63258 0.1016,0.16294 0.38722,0.22428 0.73418,0.26454 0,-0.7131 0.40831,-0.42748 0.16294,-1.48754 -0.0613,-0.30671 0.0824,-0.24537 0.22428,-0.26645 0.14377,0 0.26454,-0.14186 0.1016,-0.59042 -0.26453,-0.28754 -0.63259,-0.63259 -0.89712,-0.95846 -0.69393,-0.10352 -1.08115,-0.73419 -0.87604,-1.79617 -0.28754,-0.67093 -0.59233,-1.3246 -0.97955,-1.67157 a 0.28753994,0.28753994 0 0 0 -0.12269,0.0403 c -0.18402,0.0613 -0.4083,-0.24345 -0.24536,-0.38722 0.0613,-0.0613 0.10351,-0.42748 0.10351,-0.57125 -0.0211,-0.89712 -0.46965,-1.54888 -0.92013,-2.05878 l -0.3853,-0.38914 c -0.0824,-0.7131 -0.61342,-1.24409 -1.38786,-1.69265 -2.44792,-2.4671 -3.97764,-5.13738 -6.23962,-6.19936 -0.0824,1.28434 0.44856,2.58977 1.34569,3.34504 0.59041,0.50991 1.4262,1.52972 1.9361,2.4671 h 0.0211 c 0,0.0192 0.73418,1.10223 0.53099,1.79425 -0.89713,-1.03898 -1.42812,-1.79425 -2.0607,-2.58786 -1.50863,-1.53163 -3.22045,-3.04026 -5.07988,-4.28435 -2.91374,-1.9361 -7.11565,-3.48882 -8.72779,-3.69201 -0.0805,-0.0192 -0.18403,-0.0192 -0.28563,-0.0192 z m 6.36422,7.85176 c 0.2032,0.14185 0.65176,1.20383 1.24409,1.97827 0.8147,1.08115 2.52844,1.83451 3.36422,2.03962 0.44856,0.12268 1.18275,0.24345 1.46837,0.4083 -0.63259,0.16294 -2.977,-0.53099 -4.15975,-1.18466 -0.97763,-0.65176 -1.83642,-2.05879 -1.91693,-3.24153 z m 10.03323,5.68945 c 0.40831,0 0.30671,0.16294 0.61342,0.24537 0.30671,0.0824 0.63258,-0.0192 0.95846,0.0824 a 0.74376997,0.74376997 0 0 1 0.32588,0.28371 c 0.0805,0.14377 0.18403,0.18402 0.24345,0.28754 0.12269,0.20319 0.10352,0.40639 0.10352,0.59041 h -0.26646 v -0.30671 c 0,-0.0613 -0.0192,-0.12077 -0.14185,-0.12077 -0.14377,0 -0.14377,0.12077 -0.14377,0.18211 0.0211,0.0614 0.0211,0.12269 -0.0192,0.16294 0,0.0422 -0.0192,0.0613 -0.0613,0.0613 -0.0403,0.0211 -0.12268,0.0211 -0.12268,0.0211 -0.22429,0 -0.44857,0.0192 -0.55016,-0.0613 -0.12269,-0.0805 -0.16294,-0.22428 -0.16294,-0.36614 0,-0.0613 -0.0192,-0.0824 -0.0422,-0.10351 a 0.2798722,0.2798722 0 0 0 -0.0805,-0.0613 c -0.0824,-0.0383 -0.24536,-0.0805 -0.34696,-0.18211 -0.0824,-0.0824 -0.0824,-0.16294 -0.1016,-0.22428 0,-0.0422 0.0192,-0.14377 0,-0.16294 -0.0824,-0.0824 -0.16294,-0.0211 -0.28754,-0.0613 a 0.23003195,0.23003195 0 0 1 -0.16102,-0.0613 c -0.0613,-0.0422 -0.0824,-0.0824 -0.0824,-0.16294 v -0.0422 z m -3.44665,7.09841 c 0,0 -0.18402,0.85687 -0.69393,0.85687 -0.7131,0 -0.89712,-0.36806 -1.16166,-0.79553 0,0 -0.67284,1.01981 -1.223,1.01981 -0.63259,0 -0.79553,-0.28754 -0.79553,-0.28754 0,0 -0.36805,0.26837 -0.79553,0.24536 a 1.1252396,1.1252396 0 0 1 -0.69393,-0.28562 c 0,0 -0.93929,0.71502 -1.223,0.38914 -0.81661,0.55016 -1.36677,1.52971 -1.3476,2.91565 -0.99681,1.97828 -1.50863,4.69074 -1.6294,7.15975 -0.0422,0.48882 -0.0824,1.18275 0.18211,1.48754 -0.0613,1.04089 -0.34504,2.24281 0.0403,3.09968 0.71502,1.22492 6.32396,0.30671 9.42364,0.34696 2.89457,0.0613 6.03834,0.53099 9.17828,0.53099 0.91629,0 2.63003,-0.10159 4.24217,-0.26453 1.61022,-0.16294 2.8754,-0.79553 3.56933,-1.10224 0,-0.85687 0.0383,-2.05879 -0.0422,-2.99808 -1.16167,-0.77444 -0.7131,-2.1623 -1.08116,-3.38531 0.24537,-0.44856 -0.20319,-1.10223 -0.83578,-1.10223 0,-2.09904 -0.34505,-3.60959 -1.75399,-4.60831 h -0.24345 c 0,-0.75527 -0.45048,-1.30543 -1.0409,-1.77508 0,0.20511 -0.53099,0.26645 -0.83578,0.14377 0,0.75336 -1.5508,0.36613 -1.89776,0.0403 0.24536,0.83578 -1.38595,0.57124 -1.95719,-0.0192 0.0613,0.69201 -1.24601,0.44664 -1.67348,-0.12269 0.0824,0.44857 -0.34505,0.48882 -0.8147,0.30671 -0.46965,-0.18594 -1.00064,-0.61342 -1.12141,-0.81661 -0.0211,0.22428 -0.0824,0.44856 -0.28754,0.5099 -0.85495,0.22428 -1.59105,-0.97955 -1.59105,-0.97955 0,0 -0.14185,0.44856 -0.73227,0.48882 -0.92013,0.0613 -1.16358,-0.99872 -1.16358,-0.99872 z" fill="#c10"/><path d="m 462.37188,251.63003 c -0.67284,-0.0192 -1.00063,-0.44856 -1.0198,-1.16166 -0.0192,-0.79553 0.40639,-1.32652 1.223,-1.20383 0.42939,0.0613 0.77444,0.77444 0.77444,1.32651 0,0.56933 -0.44856,1.07924 -0.97764,1.03898 z" fill="none" stroke="#000" stroke-width=".123"/><path d="m 447.09585,227.60511 c -0.38914,-0.36805 -0.71502,-0.61342 -1.08115,-0.92013 m 17.84664,19.58147 c 0.36422,1.22301 -0.0824,2.61087 1.07924,3.38531 0.0824,0.93929 0.0192,2.14121 0.0192,2.99808 -0.67092,0.30671 -1.9361,0.9393 -3.54632,1.10224 -1.61023,0.16294 -3.32588,0.24345 -4.24217,0.24345 -3.14186,0 -6.28179,-0.44857 -9.17828,-0.48882 -3.09968,-0.0613 -8.70862,0.85687 -9.42364,-0.36805 -0.38722,-0.85495 -0.1016,-2.05879 -0.0403,-3.09968 -0.26453,-0.30671 -0.22428,-0.99872 -0.18402,-1.48754 0.12268,-2.46901 0.63259,-5.16039 1.63131,-7.15975 -0.0192,-1.40703 0.53099,-2.38658 1.36677,-2.95782 -0.0402,-0.89713 0.34697,-1.48754 1.00064,-1.54889 0.77444,-1.32651 2.05879,-1.1214 3.03834,-1.48945 0.40831,-0.14186 1.36677,-1.40703 1.97827,-1.95719 0.36614,-0.30671 0,-2.18339 0.40831,-2.89649 0.0805,-0.16294 0.1016,-0.44856 0.0383,-0.57124 -0.28371,-0.48882 -0.9163,-0.36805 -1.44537,-0.57125 -1.10224,-0.40831 -2.73354,-0.83578 -3.55016,-1.44728 -0.55016,-0.4294 -0.9393,-0.97956 -1.24409,-1.67349 -0.28562,-0.67092 -0.48882,-1.81533 -0.87604,-2.07987 1.52972,0.18403 2.44601,0.34505 3.24154,1.16166 0.4083,0.4294 1.36677,0.97956 2.08179,1.32652 -1.5508,-2.81406 -3.42748,-4.15974 -5.6492,-5.85431 -2.85623,-2.18147 -5.99809,-3.38531 -6.05751,-3.73227 -0.0824,-0.42748 0.6115,-0.42748 0.93738,-0.38722 1.61022,0.20511 5.81214,1.75399 8.72971,3.69201 2.73163,1.83642 5.13738,4.22109 7.05623,6.42364 0,-1.0198 -1.48946,-3.03834 -2.40575,-3.81469 -0.89904,-0.75336 -1.42812,-2.05879 -1.3476,-3.34313 2.26389,1.06006 3.79552,3.73226 6.24153,6.19936 0.77444,0.44856 1.30543,0.97955 1.38786,1.69265 0.44856,0.45048 1.18275,1.22492 1.52779,1.40894 -0.12076,0.40639 0.30671,0.83579 0.0211,1.38595 -0.0613,0.16294 -0.18403,0.24536 -0.16294,0.42747 0.7131,0.59234 1.28435,2.40767 1.87668,3.38722 0.4083,0.65176 1.36677,1.30352 1.42811,1.73291 0.1016,0.81661 -0.61342,1.26518 -0.67476,2.01853 0.2262,0.42939 0.57125,0.57125 0.8377,0.69393 0.69202,0.50991 1.26518,1.08115 1.26518,1.9361 h 0.24345 c 1.40703,1.00064 1.75399,2.51119 1.75399,4.61023 0.63259,0 1.08115,0.65175 0.83578,1.10223 z" fill="none" stroke="#000" stroke-width=".123"/><path d="m 454.56038,245.91949 c -0.65175,0 -1.30543,0.0613 -1.99936,0.18402 -2.50926,0.40831 -3.81469,0.75528 -6.70926,0.50991 -2.12205,-0.16294 -3.1016,0.14185 -4.44729,0.77444 -0.30671,0.14377 -1.06006,0.16294 -1.69265,0.20511 -0.61342,0.0192 -1.06006,0 -1.06006,0 -0.26454,0 -0.53099,0.22428 -0.53099,0.48882 a 0.51757188,0.51757188 0 0 0 0.49073,0.53099 c 0,0 0.48882,0.0192 1.16166,0 0.67285,-0.0422 1.44729,-0.18403 2.06071,-0.46965 1.30351,-0.61342 1.91693,-0.75527 3.91437,-0.59233 2.99809,0.24537 4.48754,-0.1016 6.97764,-0.52907 2.56869,-0.4294 4.7099,0.12076 6.70926,0.55015 1.73291,0.36614 4.36294,0.38723 4.36294,0.38723 0.26646,0 0.50991,-0.24537 0.53099,-0.50991 a 0.53290735,0.53290735 0 0 0 -0.5099,-0.5099 c 0,0 -2.65112,-0.0403 -4.15975,-0.36614 -1.51054,-0.30671 -3.1821,-0.69393 -5.09904,-0.65175 z" fill="#c10"/><path d="m 454.56038,245.91949 c -0.65175,0 -1.30543,0.0613 -1.99936,0.18402 -2.50926,0.40831 -3.81469,0.75528 -6.70926,0.50991 -2.12205,-0.16294 -3.1016,0.14185 -4.44729,0.77444 -0.30671,0.14377 -1.06006,0.16294 -1.69265,0.20511 -0.61342,0.0192 -1.06006,0 -1.06006,0 -0.26454,0 -0.53099,0.22428 -0.53099,0.48882 a 0.51757188,0.51757188 0 0 0 0.49073,0.53099 c 0,0 0.48882,0.0192 1.16166,0 0.67285,-0.0422 1.44729,-0.18403 2.06071,-0.46965 1.30351,-0.61342 1.91693,-0.75527 3.91437,-0.59233 2.99809,0.24537 4.48754,-0.1016 6.97764,-0.52907 2.56869,-0.4294 4.7099,0.12076 6.70926,0.55015 1.73291,0.36614 4.36294,0.38723 4.36294,0.38723 0.26646,0 0.50991,-0.24537 0.53099,-0.50991 a 0.53290735,0.53290735 0 0 0 -0.5099,-0.5099 c 0,0 -2.65112,-0.0403 -4.15975,-0.36614 -1.51054,-0.30671 -3.1821,-0.69393 -5.09904,-0.65175 z m -2.99808,-3.75336 c 0.52907,0.16294 0.85687,0.0422 1.08115,-0.30671 0.44856,0.4294 1.34569,0.34889 1.62939,-0.0594 0.67476,0.63259 1.53163,0.28562 1.77508,-0.0824 0.40831,0.63259 1.1425,0.55208 1.57189,0.18403 0.24345,0.38722 0.97763,0.65175 1.40703,0.36805 m 2.24281,-1.71374 c -1.52971,0 -2.73355,-0.24537 -4.20192,-0.36805 -1.46837,-0.1016 -3.07859,-0.0383 -5.15846,0.18402 -1.99937,0.22429 -3.99873,0.0403 -5.93675,0.22429 -2.0377,0.18402 -4.36294,0.49073 -6.09584,0.95846 m 1.24217,1.51055 c 0.32588,0.22428 1.04089,0 1.26518,-0.40831 0.34504,0.32588 1.14249,0.36613 1.3246,-0.20511 0.4083,0.44856 1.08115,0.36805 1.32651,-0.12077 0.50991,0.42748 1.0409,0.26454 1.36678,-0.0422" fill="none" stroke="#000" stroke-width=".123"/><path d="m 441.71118,246.59425 a 0.47923323,0.47923323 0 1 1 -0.95846,0 0.47923323,0.47923323 0 1 1 0.95846,0 z m 4.54697,-4.85559 c 0,0.28562 -0.2032,0.48882 -0.46773,0.48882 a 0.479235,0.479235 0 1 1 0,-0.95847 0.4600639,0.4600639 0 0 1 0.46773,0.46965 z m 6.34313,3.50799 a 0.49648562,0.49648562 0 0 1 -0.48882,0.48881 0.47923323,0.47923323 0 0 1 -0.46965,-0.48881 0.4600639,0.4600639 0 0 1 0.46965,-0.46965 0.47923323,0.47923323 0 0 1 0.48882,0.46965 z m -6.7917,0.18402 a 0.47923323,0.47923323 0 1 1 -0.95846,0 c 0,-0.26645 0.20511,-0.46965 0.49073,-0.46965 a 0.4600639,0.4600639 0 0 1 0.46773,0.46965 z m 18.04984,0.83578 c -0.69201,0 -0.77444,-0.48881 -1.24408,-0.69393 m -11.25815,-0.91821 c 0.49073,-0.44856 1.00064,-0.28562 1.20383,-0.0192 0.34505,-0.57124 1.32652,-0.83578 1.77508,-0.14377 0.30671,-0.55016 1.16166,-0.75335 1.52971,-0.20319 0.59042,-0.55016 1.22301,-0.44856 1.52972,0.1016 0.36613,-0.30671 0.67092,-0.30671 1.03897,-0.12269 m -17.82555,1.754 c 0.32587,-0.42748 0.89712,-0.38722 1.1214,-0.0403 0.34697,-0.55016 0.95847,-0.83578 1.4492,-0.40831 0.14186,-0.48881 0.83579,-0.85687 1.3246,-0.38722 a 0.80702875,0.80702875 0 0 1 1.0409,-0.53099" fill="none" stroke="#000" stroke-width=".123"/><path d="m 443.11821,246.16486 a 0.49648562,0.49648562 0 0 1 -0.48882,0.48881 0.47923323,0.47923323 0 0 1 -0.46965,-0.48881 0.4600639,0.4600639 0 0 1 0.46965,-0.46965 0.47923323,0.47923323 0 0 1 0.48882,0.46965 z m 1.34569,-0.38722 a 0.47923323,0.47923323 0 0 1 -0.46965,0.48881 0.49648562,0.49648562 0 0 1 -0.48882,-0.48881 0.47923323,0.47923323 0 0 1 0.48882,-0.46965 0.4600639,0.4600639 0 0 1 0.46965,0.46965 z m 9.56549,-0.79553 a 0.49648562,0.49648562 0 0 1 -0.48881,0.48882 0.49648562,0.49648562 0 0 1 -0.49074,-0.48882 c 0,-0.26646 0.22428,-0.49074 0.49074,-0.49074 0.26453,0 0.48881,0.22428 0.48881,0.49074 z m 1.63131,-0.14377 a 0.47923323,0.47923323 0 1 1 -0.95846,0 c 0,-0.26454 0.20511,-0.46965 0.49073,-0.46965 a 0.4600639,0.4600639 0 0 1 0.46773,0.46965 z m 1.50863,0.0824 a 0.4600639,0.4600639 0 0 1 -0.46773,0.46773 0.47923323,0.47923323 0 0 1 -0.48882,-0.46773 c 0,-0.26646 0.22428,-0.49074 0.48882,-0.49074 a 0.47923323,0.47923323 0 0 1 0.46965,0.49074 z m 1.51054,0.20319 a 0.47923323,0.47923323 0 0 1 -0.48882,0.46965 0.47923323,0.47923323 0 0 1 -0.49073,-0.46965 c 0,-0.26454 0.22428,-0.48882 0.49073,-0.48882 0.26454,0 0.48882,0.22428 0.48882,0.48882 z m -16.64281,-2.8754 a 0.47923323,0.47923323 0 0 1 -0.48882,0.46965 0.47923323,0.47923323 0 0 1 -0.49073,-0.46965 c 0,-0.26453 0.22428,-0.48882 0.49073,-0.48882 0.26454,0 0.48882,0.22429 0.48882,0.48882 z m 1.38786,-0.18402 a 0.47923323,0.47923323 0 0 1 -0.46965,0.49073 0.49648562,0.49648562 0 0 1 -0.49073,-0.49073 0.47923323,0.47923323 0 0 1 0.49073,-0.46965 0.4600639,0.4600639 0 0 1 0.46965,0.46965 z m 1.4262,-0.16294 a 0.49648562,0.49648562 0 0 1 -0.48882,0.48882 0.47923323,0.47923323 0 0 1 -0.46965,-0.48882 0.47923323,0.47923323 0 0 1 0.46965,-0.48882 c 0.26454,0 0.48882,0.22428 0.48882,0.48882 z m 7.58722,-0.48882 a 0.47923323,0.47923323 0 0 1 -0.48882,0.46773 0.47923323,0.47923323 0 0 1 -0.48882,-0.46773 c 0,-0.26645 0.22428,-0.49074 0.48882,-0.49074 0.26454,0 0.48882,0.22429 0.48882,0.49074 z m 1.56997,-0.0824 a 0.479235,0.479235 0 1 1 -0.95847,0 0.479235,0.479235 0 1 1 0.95847,0 z m 1.77508,0 a 0.49648562,0.49648562 0 0 1 -0.48882,0.48882 0.47923323,0.47923323 0 0 1 -0.46965,-0.48882 0.47923323,0.47923323 0 0 1 0.46965,-0.48882 c 0.26454,0 0.48882,0.22428 0.48882,0.48882 z m 1.67348,0 a 0.49648562,0.49648562 0 0 1 -0.49074,0.48882 0.49648562,0.49648562 0 0 1 -0.48881,-0.48882 0.47923323,0.47923323 0 0 1 0.48881,-0.46965 0.47923323,0.47923323 0 0 1 0.49074,0.46965 z m 1.56997,0.14377 a 0.49648562,0.49648562 0 0 1 -0.49074,0.48882 0.47923323,0.47923323 0 0 1 -0.46773,-0.48882 0.47923323,0.47923323 0 0 1 0.46773,-0.49073 c 0.26646,0 0.49074,0.22428 0.49074,0.49073 z" fill="none" stroke="#000" stroke-width=".123"/><path d="m 439.97636,241.43195 c -0.67093,-0.18211 -1.24409,1.5508 -1.61023,2.99808 -0.36805,1.42812 -0.36805,3.1016 0.38722,3.1016 1.22301,0 2.12205,-1.71374 2.30416,-2.7738 0.36805,-2.03962 -0.38722,-3.14186 -1.08115,-3.32588 z" fill="#c10"/><path d="m 438.36422,246.26645 c 0,0.2032 0.18594,0.30671 0.51182,0.24537 0.28562,-0.0422 0.59041,-0.65176 0.26454,-0.81661 m 0.32587,-0.16294 c 0.18403,0.24537 0.4294,0.16294 0.57125,-0.0403 a 1.8134185,1.8134185 0 0 0 0.22428,-0.75527 c 0,-0.22428 -0.18211,-0.38722 -0.5099,-0.22428 m -0.42748,-1.30543 c -0.1016,-0.91821 0.83578,-0.83578 1.14249,-0.24537 0.26454,0.49074 -0.16294,1.38786 -0.44856,1.0409" fill="none" stroke="#000" stroke-width=".123"/><path d="m 439.97636,241.43195 c -0.67093,-0.18211 -1.24409,1.5508 -1.61023,2.99808 -0.36805,1.42812 -0.36805,3.1016 0.38722,3.1016 1.22301,0 2.12205,-1.71374 2.30416,-2.7738 0.36805,-2.03962 -0.38722,-3.14186 -1.08115,-3.32588 z" fill="none" stroke="#000" stroke-width=".123"/><path d="m 438.42748,245.61278 c -0.38722,0 -0.55016,-0.7131 -0.46965,-1.16166 0.0613,-0.44856 0.46965,-0.85687 0.87795,-0.85687 0.52908,0 0.63259,0.59233 0.59042,1.06006 a 0.96613419,0.96613419 0 0 1 -0.99872,0.95847 z" fill="#c10"/><path d="m 438.42748,245.61278 c -0.38722,0 -0.55016,-0.7131 -0.46965,-1.16166 0.0613,-0.44856 0.46965,-0.85687 0.87795,-0.85687 0.52908,0 0.63259,0.59233 0.59042,1.06006 a 0.96613419,0.96613419 0 0 1 -0.99872,0.95847 z" fill="none" stroke="#000" stroke-width=".123"/><path d="m 451.54121,243.71693 c -0.0824,1.69265 -1.26517,2.95783 -3.20127,3.09968 -1.6524,0.12269 -2.93675,-0.95846 -2.85623,-2.83514 0.10159,-1.71182 1.34568,-3.13994 3.1821,-3.22045 1.67157,-0.0824 2.977,1.24217 2.8754,2.95591 z" fill="#c10"/><path d="m 449.46134,243.87987 a 1.0888179,1.0888179 0 0 1 -1.08115,1.08115 1.0888179,1.0888179 0 0 1 -1.08115,-1.08115 c 0,-0.59041 0.48882,-1.08115 1.08115,-1.08115 0.59042,0 1.08115,0.49074 1.08115,1.08115 z" fill="none" stroke="#000" stroke-width=".123" stroke-linecap="round" stroke-linejoin="round"/><path d="m 447.62492,245.44984 c -0.59042,0.5099 0.46965,0.55208 0.92013,0.55208 0.67092,0 1.48754,-0.0422 1.11949,-0.77636 m -1.91694,-2.69137 c -0.55016,-0.44857 0.28754,-0.85687 0.85687,-0.85687 0.77444,0 1.26518,0.34504 0.61342,0.91821 m 0.54824,1.93802 c 0.55208,0.40639 0.8377,-0.16486 0.8377,-1.20384 0,-0.73418 -0.73418,-1.38786 -0.87795,-0.4083 m -2.30415,-0.0613 c -0.75528,-0.61341 -0.95847,0.32588 -1.12141,1.10224 -0.28754,1.18275 0.44856,1.83451 0.91629,1.10032" fill="none" stroke="#000" stroke-width=".123"/><path d="m 451.54121,243.71693 c -0.0824,1.69265 -1.26517,2.95783 -3.20127,3.09968 -1.6524,0.12269 -2.93675,-0.95846 -2.85623,-2.83514 0.10159,-1.71182 1.34568,-3.13994 3.1821,-3.22045 1.67157,-0.0824 2.977,1.24217 2.8754,2.95591 z" fill="none" stroke="#000" stroke-width=".123" stroke-linecap="round" stroke-linejoin="round"/><path d="m 463.30927,243.92013 c -0.1016,1.38786 -0.99873,2.63195 -2.28499,2.44792 -1.46837,-0.22428 -2.30415,-1.3246 -2.34441,-2.81406 -0.0403,-1.5508 1.0409,-2.53035 2.34441,-2.42683 1.28435,0.10159 2.38658,1.46837 2.28499,2.79297 z" fill="#c10"/><path d="m 461.94249,243.59425 a 0.914377,0.914377 0 0 1 -0.91821,0.91821 0.91054313,0.91054313 0 0 1 0,-1.81534 c 0.50991,0 0.92013,0.40831 0.92013,0.89713 z" fill="none" stroke="#000" stroke-width=".123" stroke-linecap="round" stroke-linejoin="round"/><path d="m 460.02556,244.49137 c 0,0.50991 0.0613,0.65176 0.59233,0.87796 0.34505,0.14185 0.87604,0.12268 0.87604,-0.24537 m -1.06006,-2.61086 c -0.46965,-0.55016 -0.91822,-0.1016 -1.0409,0.5099 -0.12077,0.57125 0,1.12141 0.53099,1.08115 m 0.73419,-1.89584 c -0.75527,-0.75527 0.16294,-0.67285 0.75527,-0.46965 0.44856,0.14185 0.83578,0.61342 0.40639,0.85687 m 0.24537,0.42747 c 0.46964,-0.10159 0.4083,0.57125 0.42939,0.9393 0.0192,0.46773 -0.16486,1.06006 -0.63259,0.91629" fill="none" stroke="#000" stroke-width=".123"/><path d="m 463.30927,243.92013 c -0.1016,1.38786 -0.99873,2.63195 -2.28499,2.44792 -1.46837,-0.22428 -2.30415,-1.3246 -2.34441,-2.81406 -0.0403,-1.5508 1.0409,-2.53035 2.34441,-2.42683 1.28435,0.10159 2.38658,1.46837 2.28499,2.79297 z" fill="none" stroke="#000" stroke-width=".123" stroke-linecap="round" stroke-linejoin="round"/><path d="m 440.56869,250.73291 c -0.0613,0.61342 -0.0192,0.93929 0.12268,1.18274 a 0.98530351,0.98530351 0 0 0 0.87604,0.48882 c 0.44856,0 0.9393,-0.26453 1.06198,-0.73418 0.1016,-0.38722 0.0805,-0.8147 -0.14377,-1.14058 -0.22428,-0.34696 -0.48881,-0.63259 -0.48881,-0.63259 -0.89713,0 -1.34761,0.2032 -1.42812,0.83579 z m 4.97636,1.65048 c -0.67285,0 -1.14249,-0.38531 -1.18275,-1.10032 -0.0403,-0.87604 0.26454,-1.38595 1.38594,-1.38595 0.63259,0.32588 0.79553,0.83579 0.75527,1.48754 -0.0403,0.53099 -0.4083,1.00064 -0.95846,1.00064 z m 5.20255,-2.69138 c -1.04089,-0.0805 -1.59105,0.24537 -1.57188,1.26518 0.0192,0.63259 0.40831,1.16166 1.14249,1.16166 0.67093,0 1.01981,-0.48882 0.99872,-1.30351 -0.0192,-0.45048 -0.32588,-0.87796 -0.57124,-1.12333 z m 4.13866,-0.83578 c -1.10223,0.1016 -1.61022,0.36805 -1.44728,1.57189 0.0805,0.56932 0.48882,1.06006 1.14057,0.9968 0.79553,-0.0594 1.01981,-0.8147 0.92013,-1.50863 -0.0633,-0.40639 -0.3278,-0.79552 -0.61342,-1.06006 z m 4.30352,0 c -1.10224,-0.0192 -1.36678,0.30671 -1.34569,1.26518 0.0192,0.71309 0.34505,1.18274 1.03898,1.18274 0.69393,0.0192 1.10223,-0.65175 1.08115,-1.30543 -0.0192,-0.46965 -0.36614,-1.14249 -0.77444,-1.14249 z" fill="none" stroke="#000" stroke-width=".123"/><path d="m 464.96166,252.65176 c 0,-0.85879 0.0613,-2.06071 -0.0192,-3 -7.2,-1.73291 -9.93354,-0.87604 -14.21597,-0.0613 -3.04026,0.57124 -8.30032,-0.0613 -12.19745,0.44856 -0.0613,1.04089 -0.34504,2.24281 0.0403,3.09968 1.71374,-1.20192 9.95271,-0.0192 13.177,-0.9163 4.42428,-1.26517 8.03578,-1.26517 13.21533,0.42748 z" fill="none" stroke="#000" stroke-width=".123" stroke-linejoin="round"/><path d="m 465.023,249.91629 c -1.01981,0.49074 -0.79552,1.63323 -0.0613,2.20448 1.0409,-0.79553 0.89713,-1.61214 0.0613,-2.20448 z" fill="#c10"/><path d="m 465.023,249.91629 c -1.01981,0.49074 -0.79552,1.63323 -0.0613,2.20448 1.0409,-0.79553 0.89713,-1.61214 0.0613,-2.20448 z" fill="none" stroke="#000" stroke-width=".123"/><path d="m 438.91629,250.08115 c -0.34504,0 -0.4083,-0.0422 -0.67092,0.18211 a 1.6351438,1.6351438 0 0 0 -0.59425,1.20383 c 0,0.44856 0.28754,0.75527 0.57124,1.01981 0.20512,0.2032 0.38914,0.18403 0.61342,0.18403 0.32588,0 0.65176,-0.53099 0.7131,-1.16358 0.0613,-0.65176 -0.16294,-1.4262 -0.63259,-1.4262 z" fill="#c10"/><path d="m 438.91629,250.08115 c -0.34504,0 -0.4083,-0.0422 -0.67092,0.18211 a 1.6351438,1.6351438 0 0 0 -0.59425,1.20383 c 0,0.44856 0.28754,0.75527 0.57124,1.01981 0.20512,0.2032 0.38914,0.18403 0.61342,0.18403 0.32588,0 0.65176,-0.53099 0.7131,-1.16358 0.0613,-0.65176 -0.16294,-1.4262 -0.63259,-1.4262 z" fill="none" stroke="#000" stroke-width=".123"/><path d="m 249.794,137.708 c 0.09,0.367 0.183,1.117 -0.015,1.428 -1.345,-0.01 -1.391,0.27 -2.07,0.27 0.308,-0.809 1.586,-0.93 2.085,-1.698 z m -31.588,0 c -0.09,0.367 -0.183,1.117 0.015,1.428 1.345,-0.01 1.391,0.27 2.07,0.27 -0.308,-0.809 -1.586,-0.93 -2.085,-1.698 z m 13.761,8.209 c 0.308,0 1.162,-0.36 1.215,-0.606 -1.313,-0.021 -2.677,-2.035 -3.776,-2.847 0.307,0 1.075,-0.44 1.136,-0.666 -0.663,0.078 -2.185,-1.63 -4.955,-2.605 0.07,-0.262 0.56,-0.223 1.298,-0.836 0.386,-0.32 0.82,-0.81 0.905,-1.577 -1.794,0.638 -3.664,0.093 -5.46,-0.388 -2.473,-0.663 -4.323,-1.18 -4.825,0.903 -0.664,-0.383 -1.956,-0.514 -2.55,-0.476 -0.918,0.058 -2.771,0.716 -2.771,2.387 0,0.537 -0.02,1.064 0.278,1.42 0.571,-1.733 2.445,-0.433 3.271,0 0.572,0.3 0.91,0.483 1.235,0.67 -0.584,0 -0.996,-0.092 -1.5,-0.218 -0.936,-0.235 -2.178,0.099 -3.13,0.099 -1.483,0 -2.122,-1.347 -1.95,-3.303 -0.558,0 -0.982,0.25 -1.193,0.629 -0.74,1.328 0.46,3.296 2.02,3.782 1.435,0.447 2.989,-0.039 3.583,-0.156 1.362,-0.268 3.183,-0.26 4.23,0.502 -0.389,0 -1.024,0.027 -1.454,0.113 -0.74,0.148 -1.422,0.206 -1.905,-0.139 0.853,2.357 3.405,1.853 5.63,2.1 0.839,0.225 4.019,1.183 5.556,4.694 1.425,3.252 0.074,8.226 -4.28,7.486 0.141,0.547 0.286,1.094 0.484,1.642 -1.305,0.36 -4.185,-1.173 -3.215,-2.575 3.091,-4.464 -3.848,-8.108 -5.911,-9.3 -0.227,0.342 -0.462,0.672 -0.76,0.917 -3.735,-2.577 -11.6,-6.748 -11.72,-9.628 -0.054,-1.304 -0.639,-1.882 -1.365,-1.935 -1.21,-0.089 -2.797,1.275 -2.835,3.093 -0.08,3.827 3.102,6.345 6.482,8.262 3.38,1.918 6.964,3.048 7.674,4.408 -4.166,-1.226 -10.255,-3.254 -11.39,-5.22 -1.285,-2.343 -3.402,0.07 -2.714,2.35 0.703,2.331 3.376,3.895 7.484,4.996 3.342,0.895 6.477,1.275 6.586,2.472 -2.144,0.043 -8.025,-0.23 -9.403,-1.608 -0.672,-0.672 -1.61,-1.633 -2.627,-1.71 -2.529,-0.194 -2.003,2.986 -0.951,4.32 1.901,2.411 8.264,2.42 13.413,2.265 -2.341,1.935 -10.018,1.304 -12.428,-0.363 -3.043,-0.271 -2.478,3.496 0.225,4.338 2.741,0.854 8.262,0.873 10.768,-0.38 1.661,-0.83 1.47,0.518 1.47,0.518 -1.846,1.207 -6.151,2.053 -9.542,1.953 -2.127,-0.062 -3.3,-1.883 -4.355,-0.847 -1.503,1.478 0.064,4.529 3.94,4.529 3.591,-0.066 8.817,-1.722 11.028,-3.491 -0.286,2.764 -11.3,8.239 -14.052,4.528 -3.221,1.127 -1.094,5.433 1.573,5.79 5.785,0.775 9.973,-3.872 14.017,-6.568 -3.74,3.827 -9.17,11.334 -15.055,8.297 -2.966,1.256 0.006,5.358 2.386,5.358 7.521,0 12.353,-7.343 15.348,-10.44 -1.277,4.769 -4.972,8.867 -9.35,9.265 -0.815,2.28 2.206,3.334 3.871,2.713 3.927,-1.462 7.658,-6.107 8.314,-9.714 1.006,1.971 -1.256,5.567 -3.025,6.275 0.98,3.084 5.078,0.32 5.151,-2.904 0.696,2.597 -0.082,5.363 -1.452,6.775 -1.9,1.96 -3.696,2.16 -7.156,1.85 -0.05,1.115 0.203,2.526 0.692,3.422 0,0 -3.656,-0.084 -4.944,0.294 -1.157,0.34 -1.212,0.97 -2.489,0.864 -0.601,-0.519 -0.948,-0.93 -1.78,-1.158 -0.677,-0.659 -1.31,-2.196 -2.247,-2.212 -0.432,-0.008 -0.703,0.112 -1.106,0.467 -0.906,-0.538 -2.48,0.143 -2.748,1.123 1.948,0.012 1.509,1.867 2.903,1.867 0.374,0 0.657,0.443 0.657,0.847 -2.385,-0.194 -4.909,-0.877 -4.39,1.745 -1.313,0.455 -2.16,1.75 -1.4,2.835 0.429,-0.42 0.772,-0.892 1.314,-1.089 1.607,0.978 2.463,-0.401 3.474,-0.985 0.64,-0.37 1.763,-0.247 1.417,0.328 -0.471,0.786 -4.818,1.976 -3.578,3.82 -0.521,1.779 -0.187,3.009 1.037,3.907 -0.03,-0.843 0.143,-1.876 0.519,-2.49 2.626,0 1.985,-1.033 2.817,-2.281 0.41,-0.614 1.563,-2.109 2.593,-2.109 2.71,0 0.992,4.753 4.978,4.39 0.207,0.935 -0.486,1.663 -0.847,2.127 1.465,-0.175 2.748,-0.869 2.748,-2.438 1.62,-5.132 -4.58,-3.846 -4.58,-6.43 7.742,0 11.304,-1.06 11.304,4.477 6.256,-3.263 5.347,-11.463 6.914,-12.03 0.91,-0.33 2.057,0.327 2.143,1.418 0.325,4.127 -1.446,7.533 -3.56,10.025 -2.02,2.38 -5.092,2.78 -8.574,2.592 0.138,1.573 0.835,2.92 1.539,3.976 4.132,-0.292 7.796,-2.804 10.163,-6.257 -1.183,4.413 -5.583,6.864 -9.336,7.561 0.493,1.217 1.7,2.603 3.237,3.489 3.352,-2.033 6.146,-4.713 7.568,-8.267 -0.51,4.33 -2.999,7.56 -6.13,9.58 0.701,1.047 2.357,2.373 3.857,3.143 2.76,-3.76 3.81,-8.447 5.108,-12.775 0.038,3.89 -0.78,11.07 -3.094,14.07 1.136,1.212 2.985,2.73 4.338,2.73 1.353,0 3.202,-1.518 4.338,-2.73 -2.315,-3 -3.132,-10.18 -3.094,-14.07 1.299,4.328 2.348,9.015 5.108,12.775 1.5,-0.77 3.156,-2.096 3.858,-3.144 -3.132,-2.018 -5.62,-5.25 -6.131,-9.58 1.422,3.555 4.216,6.235 7.568,8.268 1.536,-0.886 2.744,-2.272 3.237,-3.489 -3.753,-0.697 -8.153,-3.148 -9.336,-7.561 2.367,3.453 6.03,5.965 10.163,6.257 0.704,-1.056 1.401,-2.403 1.539,-3.976 -3.482,0.187 -6.554,-0.213 -8.573,-2.592 -2.115,-2.492 -3.886,-5.898 -3.561,-10.025 0.086,-1.091 1.233,-1.747 2.143,-1.418 1.567,0.567 0.658,8.767 6.914,12.03 0,-5.538 3.562,-4.476 11.304,-4.476 0,2.583 -6.2,1.297 -4.58,6.43 0,1.568 1.283,2.262 2.748,2.437 -0.36,-0.464 -1.054,-1.192 -0.847,-2.126 3.986,0.362 2.268,-4.39 4.978,-4.39 1.03,0 2.183,1.494 2.593,2.108 0.832,1.248 0.191,2.282 2.817,2.282 0.376,0.613 0.55,1.646 0.519,2.489 1.224,-0.898 1.558,-2.128 1.037,-3.907 1.24,-1.844 -3.107,-3.034 -3.578,-3.82 -0.346,-0.575 0.778,-0.697 1.417,-0.328 1.011,0.584 1.867,1.963 3.474,0.985 0.541,0.197 0.885,0.669 1.314,1.09 0.76,-1.086 -0.087,-2.381 -1.4,-2.836 0.519,-2.622 -2.005,-1.939 -4.39,-1.745 0,-0.404 0.283,-0.847 0.657,-0.847 1.394,0 0.955,-1.855 2.903,-1.867 -0.267,-0.98 -1.842,-1.661 -2.748,-1.123 -0.403,-0.355 -0.674,-0.475 -1.106,-0.467 -0.937,0.016 -1.57,1.553 -2.247,2.212 -0.832,0.227 -1.179,0.64 -1.78,1.158 -1.277,0.107 -1.332,-0.524 -2.49,-0.864 -1.287,-0.378 -4.943,-0.294 -4.943,-0.294 0.49,-0.896 0.742,-2.307 0.692,-3.422 -3.46,0.31 -5.257,0.11 -7.156,-1.85 -1.37,-1.412 -2.148,-4.178 -1.452,-6.775 0.073,3.224 4.171,5.988 5.15,2.904 -1.768,-0.708 -4.03,-4.304 -3.024,-6.275 0.656,3.607 4.387,8.252 8.314,9.714 1.665,0.62 4.686,-0.432 3.871,-2.713 -4.378,-0.398 -8.073,-4.496 -9.35,-9.265 2.995,3.097 7.827,10.44 15.348,10.44 2.38,0 5.352,-4.102 2.385,-5.358 -5.883,3.037 -11.313,-4.47 -15.054,-8.297 4.044,2.696 8.232,7.343 14.017,6.568 2.667,-0.357 4.794,-4.663 1.573,-5.79 -2.752,3.71 -13.766,-1.764 -14.052,-4.528 2.211,1.769 7.437,3.425 11.028,3.491 3.876,0 5.443,-3.051 3.94,-4.529 -1.054,-1.036 -2.228,0.785 -4.355,0.847 -3.39,0.1 -7.696,-0.746 -9.541,-1.953 0,0 -0.192,-1.349 1.469,-0.518 2.506,1.253 8.027,1.234 10.768,0.38 2.703,-0.842 3.268,-4.61 0.225,-4.338 -2.41,1.667 -10.087,2.298 -12.428,0.363 5.15,0.154 11.512,0.146 13.413,-2.265 1.052,-1.334 1.578,-4.514 -0.95,-4.32 -1.018,0.077 -1.956,1.038 -2.628,1.71 -1.378,1.379 -7.26,1.65 -9.403,1.608 0.109,-1.197 3.244,-1.577 6.586,-2.472 4.108,-1.1 6.781,-2.665 7.484,-4.995 0.688,-2.281 -1.429,-4.694 -2.714,-2.35 -1.135,1.965 -7.224,3.993 -11.39,5.219 0.71,-1.36 4.294,-2.49 7.674,-4.408 3.38,-1.917 6.562,-4.435 6.482,-8.262 -0.038,-1.818 -1.624,-3.182 -2.835,-3.093 -0.726,0.053 -1.311,0.631 -1.365,1.935 -0.12,2.88 -7.985,7.051 -11.72,9.628 -0.298,-0.245 -0.533,-0.575 -0.76,-0.916 -2.063,1.191 -9.002,4.835 -5.911,9.299 0.97,1.402 -1.91,2.934 -3.215,2.575 0.198,-0.548 0.343,-1.095 0.484,-1.642 -4.354,0.74 -5.705,-4.234 -4.28,-7.486 1.537,-3.51 4.717,-4.47 5.556,-4.694 2.225,-0.247 4.777,0.257 5.63,-2.1 -0.483,0.345 -1.165,0.287 -1.905,0.139 -0.43,-0.086 -1.065,-0.113 -1.454,-0.113 1.047,-0.761 2.868,-0.77 4.23,-0.502 0.594,0.117 2.148,0.603 3.583,0.156 1.56,-0.486 2.76,-2.454 2.02,-3.782 -0.211,-0.38 -0.635,-0.63 -1.193,-0.63 0.172,1.957 -0.467,3.304 -1.95,3.304 -0.952,0 -2.194,-0.334 -3.13,-0.1 -0.504,0.127 -0.916,0.22 -1.5,0.22 0.326,-0.188 0.663,-0.371 1.234,-0.67 0.827,-0.434 2.7,-1.734 3.272,0 0.298,-0.357 0.278,-0.884 0.278,-1.42 0,-1.672 -1.853,-2.33 -2.77,-2.388 -0.595,-0.038 -1.887,0.093 -2.551,0.476 -0.502,-2.083 -2.352,-1.566 -4.826,-0.903 -1.795,0.48 -3.665,1.026 -5.46,0.388 0.085,0.767 0.52,1.257 0.906,1.577 0.738,0.613 1.228,0.574 1.298,0.836 -2.77,0.975 -4.292,2.683 -4.955,2.605 0.061,0.227 0.83,0.666 1.136,0.666 -1.1,0.812 -2.463,2.826 -3.776,2.847 0.053,0.245 0.907,0.606 1.215,0.606 -1.057,0.817 -2.033,2.446 -2.033,2.446 0,0 -0.976,-1.629 -2.033,-2.446 z" fill-rule="evenodd" transform="matrix(1.9169329,0,0,1.9169329,1.4376997,0)"/></svg>