<?xml version="1.0" encoding="utf-8"?>
<!-- Generator: Adobe Illustrator 22.1.0, SVG Export Plug-In . SVG Version: 6.00 Build 0)  -->
<svg version="1.1"
	 id="svg2211" inkscape:version="0.48.4 r9939" sodipodi:docname="Flag_of_the_Second_Saudi_State.svg" xmlns:cc="http://creativecommons.org/ns#" xmlns:dc="http://purl.org/dc/elements/1.1/" xmlns:inkscape="http://www.inkscape.org/namespaces/inkscape" xmlns:rdf="http://www.w3.org/1999/02/22-rdf-syntax-ns#" xmlns:sodipodi="http://sodipodi.sourceforge.net/DTD/sodipodi-0.dtd" xmlns:svg="http://www.w3.org/2000/svg"
	 xmlns="http://www.w3.org/2000/svg" xmlns:xlink="http://www.w3.org/1999/xlink" x="0px" y="0px" width="725px" height="500px"
	 viewBox="0 0 725 500" style="enable-background:new 0 0 725 500;" xml:space="preserve">
<style type="text/css">
	.st0{fill:#006C35;}
	.st1{fill:#FFFFFF;}
</style>
<sodipodi:namedview  bordercolor="#666666" borderopacity="1" gridtolerance="10" guidetolerance="10" id="namedview8" inkscape:current-layer="g2292" inkscape:cx="401.10162" inkscape:cy="287.48431" inkscape:pageopacity="0" inkscape:pageshadow="2" inkscape:window-height="988" inkscape:window-maximized="1" inkscape:window-width="1680" inkscape:window-x="-8" inkscape:window-y="-8" inkscape:zoom="0.944" objecttolerance="10" pagecolor="#ffffff" showgrid="false">
	</sodipodi:namedview>
<defs>
	
	
		<inkscape:perspective  id="perspective12" inkscape:persp3d-origin="362.5 : 166.66667 : 1" inkscape:vp_x="0 : 250 : 1" inkscape:vp_y="0 : 1000 : 0" inkscape:vp_z="725 : 250 : 1" sodipodi:type="inkscape:persp3d">
		</inkscape:perspective>
</defs>
<g id="g2292">
	<rect id="rect2220" class="st0" width="600" height="500"/>
	<rect id="rect2282" x="596.3" class="st1" width="128.7" height="500"/>
	<g id="g4298" transform="matrix(2.1932951,0,0,2.1932951,-533.80454,1070.2553)">
		<path id="path2997" inkscape:connector-curvature="0" sodipodi:nodetypes="cccccc" class="st1" d="M446.7-374.8
			c3.5-3.1,7.1-4.1,10.5-4.6l-0.8-0.4l-3.9-0.1l-5.7,3.2L446.7-374.8z"/>
		<path id="path3778" inkscape:connector-curvature="0" sodipodi:nodetypes="ccccccc" class="st1" d="M440.1-367.5l1.7-0.6l3,3.5
			l-1.4,0.3l2.1,19.1c-0.5,2.4-1.6,3-2.6,4.1L440.1-367.5z"/>
		<path id="path3778-1" inkscape:connector-curvature="0" sodipodi:nodetypes="ccccccc" class="st1" d="M349.8-410.7l2.1-0.6
			l3.9,3.5l-1.7,0.3l2.7,19.1c-0.6,2.4-2,3-3.3,4.1L349.8-410.7z"/>
		<path id="path3778-1-7" inkscape:connector-curvature="0" sodipodi:nodetypes="ccccccc" class="st1" d="M398.8-410.4l2.1-0.6
			l3.9,3.5l-1.7,0.3l2.7,19.1c-0.6,2.4-2,3-3.3,4.1L398.8-410.4z"/>
		<path id="path3778-1-4" inkscape:connector-curvature="0" sodipodi:nodetypes="ccccccc" class="st1" d="M449.1-409.9l2.1-0.6
			l3.9,3.5l-1.7,0.3l2.7,19.1c-0.6,2.4-2,3-3.3,4.1L449.1-409.9z"/>
		<path id="path3778-1-0" inkscape:connector-curvature="0" sodipodi:nodetypes="ccccccc" class="st1" d="M342.6-372.1l1.7-0.6
			l3,3.5l-1.4,0.3l2.1,19.1c-0.5,2.4-1.6,3-2.6,4.1L342.6-372.1z"/>
		<path id="path3850-4" inkscape:connector-curvature="0" class="st1" d="M497.8-410.8l-17.3,16c0,0-11-7-11.6-7.6l-2.7-3l-2.3-0.1
			l-1.7,2l15.4,10.7c-2.6,3.6-2.6,5.5-1.4,6.4c1.4,1,4.4,0.7,6.9,0c0.9-0.3,4.6-4.5-0.8-7c0,0,18.4-15,18.6-15.1
			C501.2-408.6,497.8-410.8,497.8-410.8z M480.9-390.8c0.5,0,1,0.2,1.2,0.4c0.5,0.6,0,1.4-1,1.9c-1.1,0.5-2.3,0.4-2.8-0.1
			s0-1.4,1-1.9C479.8-390.7,480.3-390.9,480.9-390.8z"/>
		<path id="path3873" inkscape:connector-curvature="0" class="st1" d="M325.3-366.9c0.3-0.1,11.4-5.3,11.4-5.3s2.3-0.2,2,0.1
			c-0.3,0.3-0.5,0.9-0.8,1s-11.2,4.9-11.2,4.9L325.3-366.9z"/>
		<path id="path3873-8" inkscape:connector-curvature="0" class="st1" d="M327.7-405.5c0.3-0.1,14.6-5.3,14.6-5.3s2.9-0.2,2.6,0.1
			c-0.3,0.3-0.6,0.9-1,1c-0.3,0.1-14.4,4.9-14.4,4.9L327.7-405.5z"/>
		<path id="path3893" inkscape:connector-curvature="0" class="st1" d="M316.4-355c0,0,1.7,0,1.7,0.2s-0.1,3-0.1,3l0.2,2.1l0.8,0.2
			l1.2-0.6l0.5-3l0.4-3.1l1.6-2.1l2.3-0.3l-0.8,2.1c0,0-0.3,2.5-0.3,2.7s0.6,3.1,0.6,3.1l1.6,1.1l1.6,0.2l1.5-0.9l0.6-1.9l-0.5-2.6
			l-0.5-2.7l-0.1-2.1l1.6-0.5l1.5,0.2l0.1,3.2l0.2,3l1,1.8l1.5,1.2l1.5,0.2l0.6-1.3l-0.6-1.3l-2.3-5.1l-0.3-1.7l0.9-1.3l1.8,0.1
			l2.1,5.8l0.6,2.5v2.6l-1.1,1.5l-1.1,0.6h-1.8l-2-0.8l-1.3-0.7l-1.5,1.5l-1.3,0.9h-2.7l-2.5-0.4l-1.4-1.8l-0.9,1.5l-1.1,1l-2.3-0.1
			l-1.8-1.8l-0.1-2.6L316.4-355z"/>
		<path id="path3893-8" inkscape:connector-curvature="0" class="st1" d="M316.5-393.8c0,0,2.1,0,2.1,0.2s-0.1,3-0.1,3l0.3,2.1
			l1,0.2l1.5-0.6l0.6-3l0.5-3.1l2.1-2.1l3-0.3l-1,2.1c0,0-0.4,2.5-0.4,2.7s0.9,3.1,0.9,3.1l2,1.1l2,0.2l1.8-0.9l0.9-1.9l-0.6-2.6
			l-0.6-2.7l-0.1-2.1l2.1-0.5l1.8,0.2l0.1,3.2l0.3,3l1.3,1.8l1.9,1.2l1.9,0.2l0.8-1.3l-0.9-1.3l-2.9-5.1l-0.4-1.7l1.1-1.3l2.4,0.1
			l2.8,5.8l0.9,2.5v2.6l-1.4,1.5l-1.4,0.6h-2.3l-2.7-0.8l-1.7-0.7l-1.9,1.5l-1.6,0.9h-3.4l-3.1-0.4l-1.8-1.8l-1.2,1.5l-1.4,1
			l-2.9-0.1l-2.4-1.8l-0.1-2.6L316.5-393.8z"/>
		<path id="path3913" inkscape:connector-curvature="0" class="st1" d="M414.6-391.4l2.7,0.2l0.1,4.2l1.5,2l2.1,0.2l0.5-1.7l2-2.9
			l2.3-2.6l1.9-0.4l2.7,0.7l3.8,2.6l2.6,1.2l4.5-0.7l1-1.9l-1.7-12.7l-1.6-6.3l0.5-1.6l1.4-1.1l2.3,2.5l1.1,2.2l-1.6,0.2l1.5,9.6
			l1.1,5.9l-0.1,3.6l-1.1,1.8l-3.1,1.4l-4.8-0.1l-2.7-1.1l-3.2-2.2l-2-1.1l-0.4,2l-1.5,2.2l-2.6,3l-3.3,0.7l-3.2-1.1l-1.5-2.4
			L414.6-391.4z"/>
		<path id="path4030-8-2-3" inkscape:connector-curvature="0" sodipodi:nodetypes="cccccccccccccccccccccccc" class="st1" d="
			M336-366.9c0,0.8-0.2,1.5-0.5,2.1c-0.3,0.6-0.8,0.9-1.3,0.9c-0.3,0-0.5,0-0.8-0.1c-0.2-0.1-0.4-0.2-0.8-0.3
			c-0.1,0.3-0.3,0.7-0.6,0.9c-0.4,0.4-0.8,0.5-1.2,0.5c-0.5,0-0.9-0.2-1.2-0.5c-0.2-0.3-0.4-0.7-0.4-1.2c0-0.2,0-0.4,0.1-0.7
			c0-0.3,0.1-0.5,0.1-0.6l0.5-0.2c0,0.5,0.1,0.9,0.2,1.1c0.2,0.2,0.4,0.3,0.9,0.3c0.2,0,0.5-0.2,0.9-0.7s0.4-1,0.5-1.4l0.4-0.1
			c0.1,0.5,0.2,0.7,0.3,0.8c0.2,0.2,0.5,0.3,1,0.3c0.3,0,0.6-0.2,0.9-0.7c0.1-0.3,0.3-0.7,0.3-1.1l0.4-0.1
			C336-367.4,336-367.2,336-366.9L336-366.9z"/>
		<path id="path4030-8-2-34" inkscape:connector-curvature="0" sodipodi:nodetypes="cccccccccccccccccccccccc" class="st1" d="
			M342.1-405.5c0,0.8-0.2,1.5-0.6,2.1s-1,0.9-1.6,0.9c-0.3,0-0.6,0-1-0.1c-0.3-0.1-0.6-0.2-1-0.3c-0.2,0.3-0.4,0.7-0.9,0.9
			c-0.5,0.4-1,0.5-1.5,0.5c-0.6,0-1.2-0.2-1.5-0.5c-0.3-0.3-0.5-0.7-0.5-1.2c0-0.2,0-0.4,0.1-0.7c0.1-0.3,0.1-0.5,0.1-0.6l0.8-0.2
			c0,0.5,0.1,0.9,0.3,1.1c0.2,0.2,0.6,0.3,1.1,0.3c0.3,0,0.6-0.2,1.1-0.7c0.3-0.5,0.6-1,0.6-1.4l0.5-0.1c0.2,0.5,0.3,0.7,0.4,0.8
			c0.2,0.2,0.6,0.3,1.2,0.3c0.4,0,0.8-0.2,1.1-0.7c0.2-0.3,0.3-0.7,0.4-1.1l0.5-0.1C342.1-406,342.1-405.8,342.1-405.5L342.1-405.5z
			"/>
		<path id="path4211" inkscape:connector-curvature="0" class="st1" d="M459.9-362.6l-2.3,0.5c0,0-0.3,2.1-0.2,2.3l0.6,2.3l1.8,3.7
			l0.5,2.9l-0.5,2l-6,4.9l-3.8,0.4l-0.8-0.8l0.5-3.7l1.9-2.6l-1.3-0.8l-2.5,2l-0.8,2.4l-0.4,3.5l1.1,2c0,0,5.1,0.5,5.4,0.5
			c0.3,0,1.6-0.5,1.6-0.5l1.8-1.3l4.2-3.3l3.4,3.7l4.2,0.1l0.8-1l2.5-0.1l1.5,0.7l2.8,0.1l0.4-0.9l1.2,0.1l1.9,1.3l6.4-0.2l14.1-3.5
			l0.5-0.9l0.2-1l-8.2-0.7l-6.6-1.1l4.2-1.3l4.9-1.5l2.1-1.5l-0.8-1.9l-3.3-2.6l-2.5,0.6l-1.2,2.2l0.6,1.5l-2.8,1.1l-2.9,1.8l-3,2.1
			l2.9,1.7l2.7,0.4l2.4,0.3l-0.8,0.7l-3.8,1l-2.9,0.2l-3.1-1.5l-3-1.9c0,0-1.8-0.1-2.1-0.1c-0.3,0-2.5,0.5-2.5,0.5l-1.6,1.7
			l-2.6,1.1l-2.6-1.1l-1-3.2l-1-4.1l-1.6-6L459.9-362.6z M492.8-356.7c0.6,0,1.1,0.5,1.1,1s-0.4,1-1.1,1s-1.1-0.4-1.1-1
			S492.3-356.7,492.8-356.7z M474.5-345.6c0.3,0,0.6,0.3,0.6,0.6c0,0.3-0.3,0.5-0.6,0.5s-0.6-0.2-0.6-0.5S474.2-345.6,474.5-345.6z"
			/>
		<path id="path3850-4-1" inkscape:connector-curvature="0" class="st1" d="M399.4-410.7l-17.3,16c0,0-11-7-11.6-7.6l-2.7-3
			l-2.3-0.1l-1.7,2l15.4,10.7c-2.6,3.6-2.6,5.5-1.4,6.4c1.4,1,4.4,0.7,6.9,0c0.9-0.3,4.6-4.5-0.8-7c0,0,18.4-15,18.6-15.1
			C402.9-408.5,399.4-410.7,399.4-410.7z M382.5-390.7c0.5,0,1,0.2,1.2,0.4c0.5,0.6,0,1.4-1,1.9c-1.1,0.5-2.3,0.4-2.8-0.1
			c-0.5-0.6,0-1.4,1-1.9C381.5-390.6,382-390.7,382.5-390.7z"/>
		<path id="path4260" inkscape:connector-curvature="0" class="st1" d="M356-354.1c0.3,0.1,1.8,0.2,1.8,0.2l-0.1,2.7l0.1,3.7
			l2.3,2.4l2.3,0.3l2.7-0.7l3-1.9l2.1-1.8l1.6-1.1l1.5-0.5l-0.3-3.5l-1.3-7.7l-1.2-5.8l-0.3-3.5l1.1-1.1l1.3,0.7l2,4.9l0.6,9.4
			l0.5,6.4l-2.7,2.7c0,0-3.3,3-3.5,3.1c-0.2,0.1-3.5,2-3.5,2s-2.3,0.8-2.6,0.9c-0.3,0.1-3-0.1-3-0.1s-1.8-0.7-2-0.9
			c-0.2-0.1-2.7-2.1-2.7-2.1l-0.8-1.5l-0.2-5.2L356-354.1z"/>
		<path id="path4262" inkscape:connector-curvature="0" class="st1" d="M413.2-351.5c0.2,0,1.8-0.1,1.8,0c0,0.2-1.1,1.5-1.2,1.7
			c-0.2,0.2-1.6,3.3-1.6,3.4c0,0.2,0.9,2.4,0.9,2.4l1.5,0.1l2.5-1.9l2.9-2.5l3.1-2.8c0,0,2.3-1.4,2.5-1.4s3.5-0.3,3.5-0.3l3.4,0.2
			l0.8,3.4l-1.8,0.1c0,0-1.8-0.9-2-0.9s-3.5,0.1-3.5,0.1l-3,2.8l-5.1,4.3l-2.5,1.5c0,0-2.8-0.2-2.9-0.2c-0.2,0-1.9-2.2-1.9-2.2
			l-0.2-2.8l1.1-2.6L413.2-351.5z"/>
		<path id="path4264" inkscape:connector-curvature="0" class="st1" d="M408.4-353.7l-1.3,3.1h-0.8l-1-1.3L404-351l-1.3,1.4l-2-0.8
			l-1.8-1.2l-1.1,0.2l-1.9,1.1l-2.6,0.7l-2.3-0.2l-1.5-1.1l-2.1-2l-2.3,0.2l-2.5,2.2l-0.1,1.5l2.1,1.8h3.7l-0.1,0.5l-3.5,3.5
			l-4.8,2.9l-4.4,2.1l-6.2,1.5l0.6,1.1c0,0,3.4-0.1,3.8-0.1c0.3,0,4-1,4-1l3.5-1.3l2.7-1.6c0,0,4.5-2.8,4.8-3
			c0.3-0.2,1.7-2.3,1.7-2.3l0.2-2.1h3.8l1.3-0.9l1.7-1.2l1.3,0.1l1.1,1.6l2,0.7l1.6-0.6l2-0.9l3.1-0.3l1.7-2.7v-2L408.4-353.7
			L408.4-353.7z M386.1-351c0.4,0,0.9,0.4,0.9,0.8s-0.4,0.8-0.9,0.8c-0.4,0-0.9-0.4-0.9-0.8C385.2-350.6,385.7-351,386.1-351z"/>
	</g>
</g>
</svg>
