<?xml version="1.0" encoding="UTF-8" standalone="no"?>
<!-- Created with Inkscape (http://www.inkscape.org/) -->
<svg
   xmlns:dc="http://purl.org/dc/elements/1.1/"
   xmlns:cc="http://web.resource.org/cc/"
   xmlns:rdf="http://www.w3.org/1999/02/22-rdf-syntax-ns#"
   xmlns:svg="http://www.w3.org/2000/svg"
   xmlns="http://www.w3.org/2000/svg"
   xmlns:sodipodi="http://sodipodi.sourceforge.net/DTD/sodipodi-0.dtd"
   xmlns:inkscape="http://www.inkscape.org/namespaces/inkscape"
   version="1.0"
   width="900"
   height="600"
   id="svg1966"
   sodipodi:version="0.32"
   inkscape:version="0.45pre1"
   sodipodi:docname="Flag_of_the_Repubblica_Anconitana.svg"
   inkscape:output_extension="org.inkscape.output.svg.inkscape"
   sodipodi:docbase="C:\Documents and Settings\Flanker\Desktop"
   sodipodi:modified="true">
  <metadata
     id="metadata10">
    <rdf:RDF>
      <cc:Work
         rdf:about="">
        <dc:format>image/svg+xml</dc:format>
        <dc:type
           rdf:resource="http://purl.org/dc/dcmitype/StillImage" />
      </cc:Work>
    </rdf:RDF>
  </metadata>
  <sodipodi:namedview
     inkscape:window-height="1003"
     inkscape:window-width="1280"
     inkscape:pageshadow="2"
     inkscape:pageopacity="0.0"
     guidetolerance="10.0"
     gridtolerance="10.0"
     objecttolerance="10.0"
     borderopacity="1.0"
     bordercolor="#666666"
     pagecolor="#ffffff"
     id="base"
     inkscape:zoom="0.89331157"
     inkscape:cx="252.13668"
     inkscape:cy="328.1176"
     inkscape:window-x="-4"
     inkscape:window-y="-4"
     inkscape:current-layer="svg1966" />
  <defs
     id="defs1968" />
  <rect
     id="rect1947"
     style="fill:#ef0f00;fill-opacity:1;fill-rule:nonzero"
     y="399.44751"
     x="0"
     height="200.55247"
     width="900" />
  <path
     style="fill:#ffc700;fill-opacity:1"
     d="M 0,199.44751 L 900,199.44751 L 900,400 L 0,400 L 0,199.44751 z "
     id="rect1951" />
  <rect
     id="rect1949"
     style="fill:#133fd3;fill-opacity:1"
     y="-0.55247498"
     x="0"
     height="200.55247"
     width="900" />
  <path
     style="font-size:58.56271744px;font-style:normal;font-weight:normal;fill:#000000;fill-opacity:1;stroke:none;stroke-width:1px;stroke-linecap:butt;stroke-linejoin:miter;stroke-opacity:1;font-family:Lello"
     d="M 78.178217,298.47987 C 78.864485,298.67052 79.598425,298.76584 80.380038,298.76582 C 82.858261,298.76584 84.859914,297.87939 86.385004,296.10647 C 87.833799,294.42892 88.558207,292.34148 88.55823,289.84415 C 88.558207,287.34688 87.824267,285.26898 86.356409,283.61043 C 84.831319,281.8757 82.839197,281.00831 80.380038,281.00827 L 78.349788,281.00827 C 78.006634,281.00831 77.825532,281.38958 77.806481,282.15208 C 77.844595,282.68589 77.87319,283.21013 77.892266,283.72481 L 77.777886,297.90796 C 77.777874,298.213 77.911317,298.41317 78.178217,298.50846 L 78.178217,298.47987 z M 103.51346,320.41229 C 103.51342,320.927 103.32278,321.18436 102.94155,321.18436 C 99.300413,321.18436 96.088236,320.11681 93.305013,317.98171 C 91.341458,316.45664 89.072918,313.86402 86.499385,310.20385 C 84.764597,307.74468 82.924982,304.83752 80.980535,301.48235 L 81.00913,301.51094 C 80.894734,301.35846 80.770822,301.26314 80.637394,301.22499 C 80.065478,301.09157 79.217158,300.81515 78.092432,300.39574 C 78.035229,300.35763 77.987571,300.33857 77.949457,300.33855 C 77.892254,300.35763 77.835064,300.39576 77.777886,300.45293 C 77.777874,306.15289 77.825532,310.99499 77.920862,314.97923 C 77.958976,316.44711 78.273521,317.54325 78.864499,318.26766 C 79.45545,318.99207 80.351428,319.421 81.552436,319.55444 C 82.486525,319.66882 82.953577,319.95477 82.953595,320.41229 C 82.953577,320.927 82.724817,321.18436 82.267313,321.18436 C 81.733522,321.18436 81.037709,321.15576 80.179873,321.09857 C 79.093246,321.02232 78.397433,320.97466 78.092432,320.9556 C 76.834237,320.91747 75.747625,320.89841 74.832593,320.89841 C 73.993796,320.89841 72.740379,320.94606 71.072341,321.04138 C 69.40429,321.1367 68.179469,321.18436 67.397873,321.18436 C 66.94035,321.18436 66.71159,320.927 66.711591,320.41229 C 66.71159,319.93571 67.178642,319.64976 68.11275,319.55444 C 69.294676,319.44006 70.200186,319.0016 70.829282,318.23906 C 71.401178,317.53372 71.706192,316.44711 71.744325,314.97923 C 71.839635,311.03311 71.887294,306.86777 71.8873,302.48318 L 71.8873,296.70697 C 71.887294,292.47493 71.839635,288.41443 71.744325,284.52547 C 71.706192,283.07669 71.401178,281.99961 70.829282,281.29422 C 70.257376,280.58892 69.227954,280.11234 67.741014,279.86447 C 67.340681,279.78826 67.140516,279.5309 67.140518,279.0924 C 67.140516,278.57773 67.359744,278.32038 67.798204,278.32034 C 68.331976,278.32038 69.151701,278.35374 70.257381,278.42042 C 71.363051,278.48718 72.192308,278.52054 72.745153,278.5205 C 73.90801,278.52054 75.657074,278.48718 77.992349,278.42042 C 80.327599,278.35374 82.076663,278.32038 83.239546,278.32034 C 86.556553,278.32038 89.306444,279.41176 91.489226,281.59447 C 93.671955,283.77727 94.763332,286.52716 94.763362,289.84415 C 94.763332,295.02942 92.447133,298.62286 87.814758,300.6245 L 87.843353,300.6245 C 87.690824,300.71983 87.61457,300.83421 87.614593,300.96764 C 87.61457,301.00578 87.633634,301.05821 87.671783,301.12491 C 87.709887,301.19165 87.72895,301.24408 87.728973,301.28218 C 87.72895,301.47284 87.624102,301.56815 87.414427,301.56813 L 95.220883,313.14914 C 96.231211,314.65515 97.622837,316.16116 99.395764,317.66716 C 100.63485,318.73471 101.80725,319.3924 102.91296,319.64022 C 103.31325,319.73554 103.51342,319.9929 103.51346,320.41229 L 103.51346,320.41229 z M 132.56605,310.23244 C 132.96635,310.34683 133.16652,310.56606 133.16655,310.89013 C 133.16652,311.08077 132.98542,311.91956 132.62324,313.4065 C 132.20382,315.12221 131.97506,316.08491 131.93696,316.2946 C 131.84162,317.30496 131.61285,318.77284 131.25068,320.69824 C 131.13627,321.11763 130.85985,321.32733 130.42142,321.32733 C 128.51506,321.32733 125.64602,321.25584 121.8143,321.11287 C 117.98255,320.96989 115.11351,320.89841 113.20718,320.89841 C 112.36839,320.89841 111.11497,320.94606 109.44693,321.04138 C 107.77888,321.1367 106.55406,321.18436 105.77246,321.18436 C 105.31494,321.18436 105.08618,320.927 105.08618,320.41229 C 105.08618,319.93571 105.55323,319.64976 106.48734,319.55444 C 107.66927,319.44006 108.57478,319.0016 109.20387,318.23906 C 109.75671,317.55279 110.05219,316.46617 110.09032,314.97923 C 110.2047,311.14749 110.26189,306.06711 110.26189,299.73805 C 110.26189,293.4281 110.2047,288.35724 110.09032,284.52547 C 110.05219,283.05763 109.75194,281.97578 109.18958,281.27993 C 108.6272,280.58415 107.60255,280.11234 106.11561,279.86447 C 105.71527,279.78826 105.51511,279.5309 105.51511,279.0924 C 105.51511,278.57773 105.73434,278.32038 106.1728,278.32034 C 106.66844,278.32038 107.3166,278.34897 108.11726,278.40612 C 109.10855,278.48242 109.75671,278.52054 110.06173,278.5205 C 111.24365,278.57773 112.29213,278.60633 113.20718,278.60629 C 115.05632,278.60633 117.83004,278.55867 121.52835,278.46331 C 125.22663,278.36804 128.00035,278.32038 129.84952,278.32034 C 130.42139,278.32038 130.70734,278.76837 130.70737,279.66431 C 130.70734,280.29344 130.75024,281.21801 130.83605,282.43803 C 130.92181,283.65812 130.9647,284.57316 130.96473,285.18315 C 130.9647,285.62165 130.71688,285.84088 130.22126,285.84084 C 129.72558,285.84088 129.42057,285.36429 129.30621,284.41109 C 129.15368,283.2292 128.74382,282.37134 128.07662,281.83753 C 127.35219,281.28473 126.24652,281.00831 124.7596,281.00827 L 116.69578,281.00827 C 116.5242,281.00831 116.41935,281.11316 116.38124,281.32282 C 116.38123,281.34192 116.35263,282.36181 116.29545,284.38249 C 116.20012,288.11895 116.15247,291.54082 116.15248,294.64813 L 116.15248,297.05011 C 116.15247,297.25983 116.24778,297.36468 116.43843,297.36466 L 121.38538,297.36466 C 122.8723,297.36468 123.97798,297.07873 124.70241,296.50681 C 125.33148,295.99212 125.74134,295.1438 125.93199,293.96184 C 126.06542,292.98964 126.3609,292.50352 126.81844,292.50349 C 127.33313,292.50352 127.59048,292.73228 127.59051,293.18978 C 127.59048,293.79983 127.54283,294.71964 127.44753,295.9492 C 127.35219,297.17881 127.30453,298.09862 127.30456,298.70863 C 127.30453,299.31868 127.35219,300.23372 127.44753,301.45375 C 127.54283,302.67383 127.59048,303.58887 127.59051,304.19888 C 127.59048,304.65642 127.33313,304.88518 126.81844,304.88516 C 126.3609,304.88518 126.06542,304.39906 125.93199,303.42681 C 125.74134,302.2449 125.33148,301.39658 124.70241,300.88185 C 123.97798,300.30997 122.8723,300.02402 121.38538,300.024 L 116.40983,300.024 C 116.21919,300.02402 116.12387,300.12887 116.12388,300.33855 C 116.12387,308.53581 116.18106,313.30166 116.29545,314.63608 C 116.35263,315.22705 116.46701,315.7513 116.63859,316.20881 C 117.17236,317.73389 118.42101,318.49642 120.38455,318.49642 L 123.41563,318.49642 C 126.35137,318.49642 128.57225,317.09526 130.07828,314.29294 C 130.47858,313.54948 130.86938,312.70116 131.25068,311.74798 C 131.3269,311.4811 131.46035,311.10937 131.65101,310.63277 C 131.80349,310.34683 132.01319,310.20386 132.2801,310.20385 C 132.37539,310.20386 132.47071,310.22292 132.56605,310.26104 L 132.56605,310.23244 z M 149.40856,298.76582 C 151.88678,298.76584 153.88843,297.87939 155.41352,296.10647 C 156.86232,294.42892 157.58673,292.34148 157.58675,289.84415 C 157.58673,287.34688 156.85279,285.26898 155.38493,283.61043 C 153.85984,281.8757 151.86772,281.00831 149.40856,281.00827 L 147.26393,281.00827 C 147.07328,281.00831 146.96843,281.10363 146.94938,281.29422 C 146.94937,281.31333 146.9303,282.2379 146.89219,284.06795 C 146.85405,285.89807 146.83499,287.76628 146.835,289.67258 L 146.77781,298.07953 C 146.7778,298.53708 147.65471,298.76584 149.40856,298.76582 L 149.40856,298.76582 z M 146.8064,300.25276 C 146.78733,300.30997 146.7778,300.36716 146.77781,300.42433 C 146.7778,306.63901 146.83499,311.49064 146.94938,314.97923 C 147.00656,316.46617 147.3211,317.55279 147.89302,318.23906 C 148.35052,318.81097 148.92243,319.1827 149.60872,319.35427 C 150.29499,319.44959 150.97174,319.54491 151.63897,319.64022 C 152.05835,319.71648 152.26805,319.97383 152.26806,320.41229 C 152.26805,320.927 152.03929,321.18436 151.58178,321.18436 C 150.76204,321.18436 149.4848,321.1367 147.75004,321.04138 C 146.01526,320.94606 144.71895,320.89841 143.86111,320.89841 C 143.02231,320.89841 141.7689,320.94606 140.10086,321.04138 C 138.43281,321.1367 137.20799,321.18436 136.42639,321.18436 C 135.96887,321.18436 135.74011,320.927 135.74011,320.41229 C 135.74011,319.93571 136.20716,319.64976 137.14127,319.55444 C 138.32319,319.44006 139.2287,319.0016 139.8578,318.23906 C 140.41063,317.55279 140.70612,316.46617 140.74425,314.97923 C 140.85862,311.37626 140.91581,306.29587 140.91582,299.73805 C 140.91581,293.18027 140.85862,288.10942 140.74425,284.52547 C 140.70612,283.05763 140.4011,281.97101 139.82921,281.26563 C 139.40981,280.75096 138.94275,280.39829 138.42805,280.20761 C 138.35179,280.18859 137.79895,280.07421 136.76953,279.86447 C 136.3692,279.78826 136.16903,279.5309 136.16904,279.0924 C 136.16903,278.57773 136.38826,278.32038 136.82672,278.32034 C 137.37956,278.32038 138.20405,278.35374 139.3002,278.42042 C 140.39634,278.48718 141.22083,278.52054 141.77367,278.5205 C 142.93653,278.52054 144.68559,278.48718 147.02087,278.42042 C 149.35612,278.35374 151.10518,278.32038 152.26806,278.32034 C 155.58507,278.32038 158.33496,279.41176 160.51774,281.59447 C 162.70047,283.77727 163.79185,286.52716 163.79188,289.84415 C 163.79185,293.19934 162.71,295.97306 160.54634,298.16532 C 158.38262,300.35763 155.6232,301.45377 152.26806,301.45375 C 150.28546,301.45377 148.4649,301.05344 146.8064,300.25276 L 146.8064,300.25276 z M 189.27009,310.43261 C 189.36538,310.43262 189.45593,310.34683 189.54174,310.17525 C 189.6275,310.00369 190.20417,308.65019 191.27174,306.11475 L 200.50795,284.43968 C 200.83199,283.67719 200.99403,283.00997 200.99407,282.43803 C 200.99403,281.02738 200.09805,280.21718 198.30613,280.00745 C 197.92483,279.98842 197.44825,279.93123 196.87638,279.83588 C 196.60946,279.75966 196.47601,279.52137 196.47605,279.121 C 196.47601,278.60633 196.69524,278.34897 197.13373,278.34893 C 197.81998,278.34897 198.83987,278.39663 200.19341,278.49191 C 201.54687,278.58727 202.56676,278.63492 203.25308,278.63488 C 203.93932,278.63492 204.95921,278.58727 206.31275,278.49191 C 207.66621,278.39663 208.6861,278.34897 209.37243,278.34893 C 209.8299,278.34897 210.05866,278.60633 210.05871,279.121 C 210.05866,279.59762 209.59161,279.88358 208.65755,279.97885 C 207.43745,280.11234 206.52241,280.53173 205.91242,281.23703 C 205.39767,281.82804 204.41591,283.82969 202.96713,287.242 L 188.52661,321.27014 C 188.27877,321.84204 188.02141,322.12799 187.75455,322.12799 C 187.48764,322.12799 187.23028,321.84204 186.98248,321.27014 L 172.57056,287.242 C 171.88427,285.62165 170.89298,283.61999 169.59667,281.23703 C 169.0057,280.51267 168.10973,280.09327 166.90874,279.97885 C 165.95557,279.88358 165.47898,279.59762 165.47898,279.121 C 165.47898,278.60633 165.70774,278.34897 166.16526,278.34893 C 166.69904,278.34897 167.40438,278.37757 168.2813,278.43472 C 169.36791,278.51101 170.07325,278.54914 170.39734,278.5491 C 171.67458,278.60633 172.80885,278.63492 173.80015,278.63488 C 174.8105,278.63492 175.9543,278.60633 177.23156,278.5491 C 177.53656,278.54914 178.24191,278.51101 179.3476,278.43472 C 180.2245,278.37757 180.92984,278.34897 181.46363,278.34893 C 181.92114,278.34897 182.1499,278.60633 182.14991,279.121 C 182.1499,279.59762 181.9402,279.85498 181.52082,279.89307 C 178.92819,280.15999 177.63188,281.00831 177.63189,282.43803 C 177.63188,283.00997 177.79392,283.67719 178.11801,284.43968 L 189.01273,310.20385 C 189.08896,310.35637 189.17475,310.43262 189.27009,310.43261 L 189.27009,310.43261 z M 223.4698,281.03687 C 223.10758,281.03691 222.90742,281.25614 222.8693,281.69456 C 222.85023,281.92336 222.82163,284.05845 222.78352,288.09985 L 222.75492,296.564 C 222.75491,297.05967 223.16477,297.30749 223.98451,297.30747 C 226.0624,297.30749 227.73998,296.44964 229.01724,294.73391 C 230.16103,293.17074 230.73293,291.31206 230.73295,289.15787 C 230.73293,287.00374 230.16103,285.1546 229.01724,283.61043 C 227.75904,281.89476 226.08147,281.03691 223.98451,281.03687 L 223.4698,281.03687 z M 223.29823,300.024 C 222.91695,300.02402 222.72631,300.64358 222.72633,301.88268 L 222.72633,304.71359 C 222.72631,308.92661 222.7835,312.43427 222.8979,315.23658 C 222.95507,316.64728 223.16954,317.53849 223.54129,317.91022 C 223.91301,318.28196 224.58499,318.46783 225.55724,318.46782 C 227.97827,318.46783 229.93227,317.51466 231.41923,315.60832 C 232.79177,313.83543 233.47805,311.70986 233.47808,309.23161 C 233.47805,306.71526 232.76318,304.5897 231.33344,302.85491 C 229.80835,300.96766 227.81623,300.02402 225.35707,300.024 L 223.29823,300.024 z M 228.21658,321.18436 C 227.03463,321.18436 225.27127,321.151 222.92649,321.08427 C 220.58169,321.01755 218.82786,320.98419 217.665,320.98419 C 217.07403,320.98419 216.19235,321.01755 215.01995,321.08427 C 213.84755,321.151 212.96587,321.18436 212.37491,321.18436 C 211.91739,321.18436 211.68863,320.927 211.68863,320.41229 C 211.68863,319.93571 212.15568,319.64976 213.08979,319.55444 C 214.27171,319.44006 215.17722,319.0016 215.80632,318.23906 C 216.35915,317.55279 216.65463,316.46617 216.69277,314.97923 C 216.80714,311.37626 216.86433,306.29587 216.86434,299.73805 C 216.86433,293.18027 216.80714,288.10942 216.69277,284.52547 C 216.65463,283.05763 216.34962,281.97101 215.77772,281.26563 C 215.35832,280.75096 214.89127,280.39829 214.37656,280.20761 C 214.30031,280.18859 213.74747,280.07421 212.71805,279.86447 C 212.31772,279.78826 212.11755,279.5309 212.11755,279.0924 C 212.11755,278.57773 212.33678,278.32038 212.77524,278.32034 C 213.30901,278.32038 214.1192,278.35374 215.20582,278.42042 C 216.29243,278.48718 217.10262,278.52054 217.6364,278.5205 C 218.64675,278.52054 220.17182,278.48718 222.21162,278.42042 C 224.25138,278.35374 225.77645,278.32038 226.78683,278.32034 C 229.66538,278.32038 232.07689,279.28785 234.02138,281.22274 C 235.96582,283.15771 236.93805,285.56446 236.93808,288.44299 C 236.93805,290.73063 236.31849,292.75611 235.0794,294.51945 C 233.84026,296.28284 232.14362,297.50766 229.98948,298.19391 C 230.00852,298.19394 230.01805,298.20347 230.01807,298.22251 C 230.05618,298.20347 230.1229,298.19394 230.21824,298.19391 C 230.96169,298.19394 232.07689,298.55614 233.56386,299.28053 C 237.68152,301.32033 239.74037,304.76127 239.7404,309.60335 C 239.74037,312.97758 238.66329,315.7513 236.50915,317.92452 C 234.35497,320.09774 231.59078,321.18436 228.21658,321.18436 L 228.21658,321.18436 z M 254.12373,281.03687 C 253.76151,281.03691 253.56135,281.25614 253.52323,281.69456 C 253.50416,281.92336 253.47556,284.05845 253.43745,288.09985 L 253.40885,296.564 C 253.40884,297.05967 253.8187,297.30749 254.63844,297.30747 C 256.71633,297.30749 258.39391,296.44964 259.67117,294.73391 C 260.81496,293.17074 261.38686,291.31206 261.38688,289.15787 C 261.38686,287.00374 260.81496,285.1546 259.67117,283.61043 C 258.41297,281.89476 256.7354,281.03691 254.63844,281.03687 L 254.12373,281.03687 z M 253.95216,300.024 C 253.57088,300.02402 253.38024,300.64358 253.38026,301.88268 L 253.38026,304.71359 C 253.38024,308.92661 253.43743,312.43427 253.55183,315.23658 C 253.60901,316.64728 253.82347,317.53849 254.19522,317.91022 C 254.56694,318.28196 255.23892,318.46783 256.21117,318.46782 C 258.6322,318.46783 260.5862,317.51466 262.07316,315.60832 C 263.4457,313.83543 264.13198,311.70986 264.13201,309.23161 C 264.13198,306.71526 263.41711,304.5897 261.98738,302.85491 C 260.46228,300.96766 258.47016,300.02402 256.011,300.024 L 253.95216,300.024 z M 258.87051,321.18436 C 257.68857,321.18436 255.9252,321.151 253.58042,321.08427 C 251.23562,321.01755 249.48179,320.98419 248.31893,320.98419 C 247.72796,320.98419 246.84628,321.01755 245.67388,321.08427 C 244.50148,321.151 243.6198,321.18436 243.02884,321.18436 C 242.57132,321.18436 242.34256,320.927 242.34256,320.41229 C 242.34256,319.93571 242.80961,319.64976 243.74372,319.55444 C 244.92564,319.44006 245.83115,319.0016 246.46025,318.23906 C 247.01308,317.55279 247.30856,316.46617 247.3467,314.97923 C 247.46107,311.37626 247.51826,306.29587 247.51827,299.73805 C 247.51826,293.18027 247.46107,288.10942 247.3467,284.52547 C 247.30856,283.05763 247.00355,281.97101 246.43165,281.26563 C 246.01225,280.75096 245.5452,280.39829 245.03049,280.20761 C 244.95424,280.18859 244.4014,280.07421 243.37198,279.86447 C 242.97165,279.78826 242.77148,279.5309 242.77148,279.0924 C 242.77148,278.57773 242.99071,278.32038 243.42917,278.32034 C 243.96294,278.32038 244.77314,278.35374 245.85975,278.42042 C 246.94636,278.48718 247.75655,278.52054 248.29033,278.5205 C 249.30068,278.52054 250.82575,278.48718 252.86555,278.42042 C 254.90531,278.35374 256.43038,278.32038 257.44076,278.32034 C 260.31931,278.32038 262.73083,279.28785 264.67531,281.22274 C 266.61975,283.15771 267.59198,285.56446 267.59201,288.44299 C 267.59198,290.73063 266.97242,292.75611 265.73333,294.51945 C 264.49419,296.28284 262.79755,297.50766 260.64341,298.19391 C 260.66245,298.19394 260.67198,298.20347 260.672,298.22251 C 260.71011,298.20347 260.77683,298.19394 260.87217,298.19391 C 261.61562,298.19394 262.73083,298.55614 264.21779,299.28053 C 268.33545,301.32033 270.3943,304.76127 270.39433,309.60335 C 270.3943,312.97758 269.31722,315.7513 267.16308,317.92452 C 265.0089,320.09774 262.24471,321.18436 258.87051,321.18436 L 258.87051,321.18436 z M 284.06277,299.73805 C 284.06276,302.92165 284.08182,305.77163 284.11996,308.28798 C 284.10088,309.66055 284.12948,311.70986 284.20574,314.43592 C 284.28198,315.82755 284.71091,316.85697 285.49252,317.52419 C 286.14066,318.09609 287.04617,318.4297 288.20905,318.52501 C 288.05653,318.50595 289.04783,318.49642 291.18294,318.49642 C 293.31802,318.49642 295.13857,317.81014 296.6446,316.43757 C 297.80744,315.37003 298.8464,313.89262 299.76146,312.00534 C 299.89488,311.70033 300.10458,311.24281 300.39056,310.63277 C 300.54303,310.32777 300.75273,310.17526 301.01965,310.17525 C 301.62965,310.17526 301.93466,310.41356 301.93469,310.89013 C 301.93466,310.96639 301.9156,311.06171 301.8775,311.17608 C 301.4962,312.39615 300.9529,314.22623 300.24758,316.66633 C 300.19036,316.91416 299.89488,318.19141 299.36113,320.49807 C 299.22766,321.05091 298.91312,321.32733 298.4175,321.32733 C 296.49207,321.32733 293.60874,321.25584 289.76749,321.11287 C 285.9262,320.96989 283.04287,320.89841 281.11747,320.89841 C 280.27868,320.89841 279.02526,320.94606 277.35722,321.04138 C 275.68917,321.1367 274.46435,321.18436 273.68275,321.18436 C 273.22523,321.18436 272.99647,320.927 272.99647,320.41229 C 272.99647,319.9929 273.2157,319.72601 273.65416,319.61163 C 274.03542,319.59257 274.42622,319.56397 274.82656,319.52584 C 276.86633,319.31615 277.93388,317.80061 278.02921,314.97923 C 278.14358,311.31907 278.20077,306.23868 278.20078,299.73805 C 278.20077,293.23746 278.14358,288.16661 278.02921,284.52547 C 277.99107,283.05763 277.68606,281.97101 277.11416,281.26563 C 276.58038,280.63658 275.56049,280.16953 274.05449,279.86447 C 273.63509,279.78826 273.4254,279.5309 273.4254,279.0924 C 273.4254,278.57773 273.65416,278.32038 274.11168,278.32034 C 274.58826,278.32038 275.22689,278.34897 276.02755,278.40612 C 277.01884,278.48242 277.667,278.52054 277.97202,278.5205 C 279.15394,278.57773 280.20242,278.60633 281.11747,278.60629 C 282.05157,278.60633 283.10006,278.57773 284.26293,278.5205 C 284.54887,278.52054 285.19703,278.48242 286.2074,278.40612 C 287.00805,278.34897 287.6562,278.32038 288.15186,278.32034 C 288.5903,278.32038 288.80953,278.57773 288.80955,279.0924 C 288.80953,279.51184 288.60937,279.7692 288.20905,279.86447 C 288.03747,279.88358 287.77058,279.91217 287.40839,279.95026 C 286.49333,280.12187 285.7451,280.56032 285.16368,281.26563 C 284.58223,281.97101 284.27245,283.05763 284.23434,284.52547 C 284.11995,288.18567 284.06276,293.25653 284.06277,299.73805 L 284.06277,299.73805 z M 320.95042,320.41229 C 320.95041,320.927 320.72165,321.18436 320.26414,321.18436 C 319.4444,321.18436 318.17192,321.1367 316.4467,321.04138 C 314.72145,320.94606 313.42038,320.89841 312.54347,320.89841 C 311.68561,320.89841 310.39883,320.94606 308.68314,321.04138 C 306.96743,321.1367 305.68065,321.18436 304.8228,321.18436 C 304.36528,321.18436 304.13652,320.927 304.13652,320.41229 C 304.13652,319.93571 304.65123,319.64022 305.68065,319.52584 C 306.97696,319.3924 307.9206,318.96824 308.51157,318.25336 C 309.10252,317.53849 309.41707,316.44711 309.4552,314.97923 C 309.55051,311.10937 309.59817,306.94402 309.59818,302.48318 L 309.59818,296.70697 C 309.59817,292.53212 309.55051,288.47162 309.4552,284.52547 C 309.41707,283.0195 309.12159,281.91382 308.56876,281.20844 C 308.05404,280.56032 307.20572,280.15046 306.02379,279.97885 C 305.05156,279.84545 304.56544,279.54997 304.56545,279.0924 C 304.56544,278.57773 304.7942,278.32038 305.25173,278.32034 C 305.76644,278.32038 306.44319,278.34897 307.28198,278.40612 C 308.33046,278.48242 309.01674,278.52054 309.34082,278.5205 C 310.56087,278.57773 311.62842,278.60633 312.54347,278.60629 C 313.47757,278.60633 314.55465,278.57773 315.77472,278.5205 C 316.06065,278.52054 316.7374,278.48242 317.80497,278.40612 C 318.64374,278.34897 319.32049,278.32038 319.83522,278.32034 C 320.29272,278.32038 320.52148,278.57773 320.5215,279.0924 C 320.52148,279.54997 320.03536,279.84545 319.06315,279.97885 C 317.8812,280.15046 317.03288,280.56032 316.51819,281.20844 C 315.96534,281.91382 315.66985,283.0195 315.63174,284.52547 C 315.53641,288.50975 315.48875,292.66556 315.48877,296.99292 L 315.48877,302.76913 C 315.48875,307.07747 315.53641,311.14749 315.63174,314.97923 C 315.66985,316.44711 315.9844,317.53849 316.57538,318.25336 C 317.16633,318.96824 318.10996,319.3924 319.40629,319.52584 C 320.4357,319.64022 320.95041,319.93571 320.95042,320.41229 L 320.95042,320.41229 z M 356.20814,289.18647 C 355.94122,289.1865 355.75059,289.01493 355.63624,288.67175 C 354.58772,285.65978 353.39626,283.63906 352.06185,282.6096 C 350.55582,281.44677 348.36353,280.86534 345.48499,280.8653 C 341.06226,280.86534 337.3878,282.643 334.46158,286.19828 C 331.53535,289.75363 330.07223,294.25735 330.07224,299.70945 C 330.07223,305.18066 331.53535,309.67962 334.46158,313.20633 C 337.3878,316.73306 341.06226,318.49642 345.48499,318.49642 C 347.81069,318.49642 349.66937,318.23907 351.06103,317.72435 C 352.81483,317.09526 354.26364,315.94193 355.40748,314.26435 C 355.65527,313.90215 356.28436,312.64397 357.29475,310.4898 C 357.42816,310.18479 357.64739,310.03229 357.95244,310.03228 C 358.04772,310.03229 358.14304,310.05135 358.23839,310.08947 L 358.23839,310.06087 C 358.61962,310.1562 358.81026,310.35637 358.81029,310.66137 C 358.81026,310.7567 358.79119,310.85201 358.7531,310.94732 L 358.7817,310.94732 C 358.05725,313.23493 357.228,315.92287 356.29393,319.01113 C 356.19858,319.31615 356.0556,319.5735 355.865,319.7832 C 355.46464,320.22166 353.82519,320.60292 350.94665,320.927 C 348.63995,321.19389 346.8194,321.32733 345.48499,321.32733 C 339.23218,321.32733 334.07077,319.28755 330.00075,315.20799 C 325.93072,311.12843 323.8957,305.96226 323.8957,299.70945 C 323.8957,293.47575 325.93548,288.32865 330.01505,284.26811 C 334.0946,280.20765 339.25124,278.1774 345.48499,278.17736 C 349.16419,278.1774 352.22386,278.5968 354.66401,279.43554 C 355.15962,279.60716 355.47417,279.90264 355.60764,280.32199 C 355.68386,280.76049 355.80778,281.40864 355.97938,282.26646 C 356.24623,283.61999 356.63703,285.65978 357.15178,288.3858 L 357.15178,288.35721 C 357.17081,288.43349 357.18034,288.50975 357.18037,288.58597 C 357.18034,288.98633 356.85626,289.1865 356.20814,289.18647 L 356.20814,289.18647 z M 380.22802,289.47242 C 380.13268,289.5487 380.05643,289.64402 379.99926,289.75837 C 379.6561,290.55906 378.48847,293.56154 376.49636,298.76582 C 374.50422,303.97014 373.50816,306.62948 373.50817,306.74384 C 373.50816,307.06793 373.83224,307.22997 374.48041,307.22996 L 386.63331,307.22996 C 387.24332,307.22997 387.54833,307.06793 387.54836,306.74384 C 387.54833,306.17196 385.18447,300.51014 380.45678,289.75837 C 380.41863,289.68215 380.34238,289.58683 380.22802,289.47242 L 380.22802,289.47242 z M 388.20604,309.9179 L 373.05065,309.9179 C 372.57406,309.91791 372.19279,310.22292 371.90685,310.83294 C 370.53428,313.80683 369.848,315.87521 369.848,317.03807 C 369.848,318.08656 370.33411,318.78237 371.30635,319.12551 C 372.18326,319.29708 373.06017,319.47819 373.9371,319.66882 C 374.2421,319.76414 374.39461,320.01196 374.39462,320.41229 C 374.39461,320.927 374.16585,321.18436 373.70834,321.18436 C 373.02205,321.18436 372.00216,321.1367 370.64867,321.04138 C 369.29516,320.94606 368.27527,320.89841 367.58899,320.89841 C 366.90271,320.89841 365.88758,320.94606 364.54362,321.04138 C 363.19965,321.1367 362.18452,321.18436 361.49824,321.18436 C 361.04072,321.18436 360.81196,320.927 360.81196,320.41229 C 360.81196,319.93571 361.28854,319.64976 362.24171,319.55444 C 363.4427,319.421 364.33868,318.99684 364.92965,318.28196 C 365.52061,317.56708 366.26408,316.05631 367.16007,313.74964 L 380.82851,278.23455 C 381.05725,277.62457 381.29555,277.31955 381.54339,277.31951 C 381.79119,277.31955 382.03902,277.62457 382.28686,278.23455 L 396.67019,312.29129 C 397.33737,313.93075 398.32866,315.9324 399.64407,318.29625 C 400.21594,318.94441 401.11191,319.35427 402.33201,319.52584 C 403.3042,319.67835 403.79032,319.97383 403.79036,320.41229 C 403.79032,320.927 403.56156,321.18436 403.10408,321.18436 C 402.24618,321.18436 400.96894,321.1367 399.27234,321.04138 C 397.57566,320.94606 396.29841,320.89841 395.4406,320.89841 C 394.58271,320.89841 393.30547,320.94606 391.60886,321.04138 C 389.91219,321.1367 388.63494,321.18436 387.77712,321.18436 C 387.33863,321.18436 387.1194,320.927 387.11943,320.41229 C 387.1194,319.97383 387.31957,319.71648 387.71993,319.64022 C 389.20684,319.37334 390.05516,319.19223 390.26489,319.09692 C 391.16084,318.73471 391.60883,318.0675 391.60886,317.09526 C 391.60883,316.48524 391.45632,315.81802 391.15134,315.09361 L 389.37844,310.86153 C 389.11153,310.23245 388.72073,309.91791 388.20604,309.9179 L 388.20604,309.9179 z M 443.82348,289.47242 C 443.72814,289.5487 443.65189,289.64402 443.59472,289.75837 C 443.25156,290.55906 442.08392,293.56154 440.09182,298.76582 C 438.09968,303.97014 437.10362,306.62948 437.10363,306.74384 C 437.10362,307.06793 437.4277,307.22997 438.07587,307.22996 L 450.22877,307.22996 C 450.83878,307.22997 451.14379,307.06793 451.14382,306.74384 C 451.14379,306.17196 448.77993,300.51014 444.05224,289.75837 C 444.01409,289.68215 443.93784,289.58683 443.82348,289.47242 L 443.82348,289.47242 z M 451.8015,309.9179 L 436.64611,309.9179 C 436.16952,309.91791 435.78825,310.22292 435.50231,310.83294 C 434.12974,313.80683 433.44345,315.87521 433.44346,317.03807 C 433.44345,318.08656 433.92957,318.78237 434.90181,319.12551 C 435.77872,319.29708 436.65563,319.47819 437.53256,319.66882 C 437.83756,319.76414 437.99007,320.01196 437.99008,320.41229 C 437.99007,320.927 437.76131,321.18436 437.3038,321.18436 C 436.6175,321.18436 435.59761,321.1367 434.24413,321.04138 C 432.89062,320.94606 431.87073,320.89841 431.18445,320.89841 C 430.49816,320.89841 429.48304,320.94606 428.13908,321.04138 C 426.79511,321.1367 425.77998,321.18436 425.0937,321.18436 C 424.63618,321.18436 424.40742,320.927 424.40742,320.41229 C 424.40742,319.93571 424.884,319.64976 425.83717,319.55444 C 427.03816,319.421 427.93414,318.99684 428.52511,318.28196 C 429.11607,317.56708 429.85954,316.05631 430.75553,313.74964 L 444.42397,278.23455 C 444.65271,277.62457 444.89101,277.31955 445.13885,277.31951 C 445.38665,277.31955 445.63448,277.62457 445.88232,278.23455 L 460.26565,312.29129 C 460.93283,313.93075 461.92412,315.9324 463.23953,318.29625 C 463.8114,318.94441 464.70737,319.35427 465.92747,319.52584 C 466.89966,319.67835 467.38578,319.97383 467.38582,320.41229 C 467.38578,320.927 467.15702,321.18436 466.69954,321.18436 C 465.84164,321.18436 464.5644,321.1367 462.8678,321.04138 C 461.17112,320.94606 459.89387,320.89841 459.03606,320.89841 C 458.17817,320.89841 456.90093,320.94606 455.20432,321.04138 C 453.50765,321.1367 452.2304,321.18436 451.37258,321.18436 C 450.93409,321.18436 450.71486,320.927 450.71489,320.41229 C 450.71486,319.97383 450.91503,319.71648 451.31539,319.64022 C 452.8023,319.37334 453.65062,319.19223 453.86035,319.09692 C 454.7563,318.73471 455.20429,318.0675 455.20432,317.09526 C 455.20429,316.48524 455.05178,315.81802 454.7468,315.09361 L 452.9739,310.86153 C 452.70698,310.23245 452.31619,309.91791 451.8015,309.9179 L 451.8015,309.9179 z M 508.04801,299.82383 C 508.04797,302.20678 508.07656,305.77163 508.13379,310.51839 C 508.19094,315.26518 508.21954,318.8205 508.21958,321.18436 C 508.21954,321.71813 508.12422,321.98502 507.93363,321.98502 C 507.62857,321.98502 507.37122,321.87064 507.16156,321.64188 L 477.27971,289.5868 C 477.2797,289.56776 477.26063,289.55823 477.22252,289.5582 C 477.20344,289.5773 477.19391,289.60589 477.19392,289.64399 C 477.07953,291.58848 477.02234,295.66804 477.02235,301.88268 C 477.02234,307.29669 477.07953,311.66221 477.19392,314.97923 C 477.2511,316.46617 477.56088,317.56232 478.12326,318.26766 C 478.68562,318.97301 479.5673,319.40193 480.7683,319.55444 C 481.72146,319.66882 482.19804,319.95477 482.19806,320.41229 C 482.19804,320.927 481.97882,321.18436 481.54037,321.18436 C 480.87314,321.18436 479.86755,321.1367 478.52359,321.04138 C 477.17961,320.94606 476.17402,320.89841 475.50681,320.89841 C 474.83959,320.89841 473.83399,320.94606 472.49003,321.04138 C 471.14606,321.1367 470.14047,321.18436 469.47325,321.18436 C 469.01573,321.18436 468.78697,320.927 468.78697,320.41229 C 468.78697,319.93571 469.25402,319.64976 470.18813,319.55444 C 471.38912,319.44006 472.29463,319.0016 472.90466,318.23906 C 473.43843,317.55279 473.73391,316.46617 473.79111,314.97923 C 473.90548,311.64314 473.96267,306.54369 473.96268,299.68086 C 473.96267,297.29796 473.93408,293.73311 473.87689,288.9863 C 473.8197,284.23955 473.7911,280.68424 473.79111,278.32034 C 473.7911,277.69129 473.90548,277.37674 474.13425,277.3767 C 474.32487,277.37674 474.5727,277.54831 474.87772,277.89141 L 474.84912,277.89141 L 489.80435,293.96184 C 493.10229,297.56485 498.08736,302.91212 504.75957,310.00368 C 504.75954,310.02276 504.7786,310.03229 504.81676,310.03228 C 504.83579,310.01322 504.84532,309.98463 504.84536,309.94649 C 504.86439,309.48898 504.90251,307.68749 504.95974,304.54202 C 504.97877,302.50226 504.9883,300.20512 504.98833,297.65061 C 504.9883,292.21757 504.93111,287.84253 504.81676,284.52547 C 504.75954,283.03856 504.46406,281.95195 503.93032,281.26563 C 503.41557,280.63658 502.86273,280.25531 502.2718,280.12183 C 501.66174,280.04561 501.04218,279.95983 500.41312,279.86447 C 500.01276,279.7692 499.81259,279.51184 499.81263,279.0924 C 499.81259,278.57773 500.03182,278.32038 500.47031,278.32034 C 501.1375,278.32038 502.14309,278.36804 503.48709,278.46331 C 504.83102,278.55867 505.83662,278.60633 506.50387,278.60629 C 507.17105,278.60633 508.17665,278.55867 509.52065,278.46331 C 510.86458,278.36804 511.87017,278.32038 512.53744,278.32034 C 512.99491,278.32038 513.22367,278.57773 513.22372,279.0924 C 513.22367,279.56903 512.75662,279.85498 511.82256,279.95026 C 510.62152,280.06468 509.72554,280.50313 509.13462,281.26563 C 508.58174,281.95195 508.27673,283.03856 508.21958,284.52547 C 508.10516,287.86159 508.04797,292.96104 508.04801,299.82383 L 508.04801,299.82383 z M 547.33766,289.18647 C 547.07074,289.1865 546.8801,289.01493 546.76576,288.67175 C 545.71724,285.65978 544.52578,283.63906 543.19137,282.6096 C 541.68534,281.44677 539.49305,280.86534 536.6145,280.8653 C 532.19178,280.86534 528.51732,282.643 525.5911,286.19828 C 522.66486,289.75363 521.20175,294.25735 521.20176,299.70945 C 521.20175,305.18066 522.66486,309.67962 525.5911,313.20633 C 528.51732,316.73306 532.19178,318.49642 536.6145,318.49642 C 538.94021,318.49642 540.79889,318.23907 542.19054,317.72435 C 543.94434,317.09526 545.39316,315.94193 546.537,314.26435 C 546.78479,313.90215 547.41388,312.64397 548.42427,310.4898 C 548.55768,310.18479 548.77691,310.03229 549.08196,310.03228 C 549.17724,310.03229 549.27256,310.05135 549.36791,310.08947 L 549.36791,310.06087 C 549.74914,310.1562 549.93977,310.35637 549.93981,310.66137 C 549.93977,310.7567 549.92071,310.85201 549.88262,310.94732 L 549.91121,310.94732 C 549.18677,313.23493 548.35751,315.92287 547.42344,319.01113 C 547.32809,319.31615 547.18512,319.5735 546.99452,319.7832 C 546.59415,320.22166 544.9547,320.60292 542.07616,320.927 C 539.76947,321.19389 537.94892,321.32733 536.6145,321.32733 C 530.3617,321.32733 525.20029,319.28755 521.13027,315.20799 C 517.06023,311.12843 515.02522,305.96226 515.02522,299.70945 C 515.02522,293.47575 517.065,288.32865 521.14457,284.26811 C 525.22412,280.20765 530.38076,278.1774 536.6145,278.17736 C 540.29371,278.1774 543.35338,278.5968 545.79352,279.43554 C 546.28914,279.60716 546.60368,279.90264 546.73716,280.32199 C 546.81338,280.76049 546.93729,281.40864 547.1089,282.26646 C 547.37575,283.61999 547.76655,285.65978 548.28129,288.3858 L 548.28129,288.35721 C 548.30032,288.43349 548.30986,288.50975 548.30989,288.58597 C 548.30986,288.98633 547.98578,289.1865 547.33766,289.18647 L 547.33766,289.18647 z M 559.03303,299.68086 C 559.3571,305.19019 561.09186,309.73681 564.23733,313.32071 L 564.20873,313.32071 C 567.31605,316.8665 571.0906,318.6394 575.53238,318.63939 C 580.01225,318.6394 583.5771,316.85697 586.22694,313.29212 C 588.60983,310.07041 589.80129,306.14336 589.80133,301.51094 C 589.80129,295.29631 588.04746,290.19686 584.53983,286.21258 C 581.39435,282.64776 577.62933,280.86534 573.24478,280.8653 C 568.76487,280.86534 565.20002,282.63823 562.55022,286.18398 C 560.16729,289.38666 558.97583,293.30418 558.97584,297.93656 C 558.97583,298.54661 558.99489,299.13757 559.03303,299.70945 L 559.03303,299.68086 z M 574.38858,321.32733 C 568.11671,321.32733 562.95531,319.29232 558.90435,315.22228 C 554.85338,311.15226 552.82789,305.98132 552.82789,299.70945 C 552.82789,293.47575 554.86291,288.32865 558.93294,284.26811 C 563.00296,280.20765 568.15484,278.1774 574.38858,278.17736 C 580.62228,278.1774 585.77415,280.20765 589.84422,284.26811 C 593.91421,288.32865 595.94923,293.47575 595.94927,299.70945 C 595.94923,305.98132 593.92374,311.15226 589.87282,315.22228 C 585.82181,319.29232 580.66041,321.32733 574.38858,321.32733 L 574.38858,321.32733 z M 637.52649,299.82383 C 637.52645,302.20678 637.55505,305.77163 637.61228,310.51839 C 637.66943,315.26518 637.69802,318.8205 637.69806,321.18436 C 637.69802,321.71813 637.60271,321.98502 637.41211,321.98502 C 637.10706,321.98502 636.8497,321.87064 636.64005,321.64188 L 606.75819,289.5868 C 606.75818,289.56776 606.73912,289.55823 606.701,289.5582 C 606.68193,289.5773 606.6724,289.60589 606.67241,289.64399 C 606.55802,291.58848 606.50083,295.66804 606.50083,301.88268 C 606.50083,307.29669 606.55802,311.66221 606.67241,314.97923 C 606.72959,316.46617 607.03937,317.56232 607.60175,318.26766 C 608.1641,318.97301 609.04578,319.40193 610.24679,319.55444 C 611.19995,319.66882 611.67653,319.95477 611.67654,320.41229 C 611.67653,320.927 611.4573,321.18436 611.01886,321.18436 C 610.35163,321.18436 609.34603,321.1367 608.00208,321.04138 C 606.6581,320.94606 605.65251,320.89841 604.9853,320.89841 C 604.31807,320.89841 603.31248,320.94606 601.96851,321.04138 C 600.62454,321.1367 599.61895,321.18436 598.95173,321.18436 C 598.49421,321.18436 598.26545,320.927 598.26545,320.41229 C 598.26545,319.93571 598.7325,319.64976 599.66661,319.55444 C 600.8676,319.44006 601.77311,319.0016 602.38314,318.23906 C 602.91691,317.55279 603.2124,316.46617 603.26959,314.97923 C 603.38397,311.64314 603.44116,306.54369 603.44116,299.68086 C 603.44116,297.29796 603.41256,293.73311 603.35538,288.9863 C 603.29818,284.23955 603.26959,280.68424 603.26959,278.32034 C 603.26959,277.69129 603.38397,277.37674 603.61273,277.3767 C 603.80336,277.37674 604.05118,277.54831 604.3562,277.89141 L 604.32761,277.89141 L 619.28283,293.96184 C 622.58077,297.56485 627.56584,302.91212 634.23806,310.00368 C 634.23802,310.02276 634.25709,310.03229 634.29525,310.03228 C 634.31428,310.01322 634.32381,309.98463 634.32384,309.94649 C 634.34287,309.48898 634.381,307.68749 634.43822,304.54202 C 634.45725,302.50226 634.46678,300.20512 634.46682,297.65061 C 634.46678,292.21757 634.40959,287.84253 634.29525,284.52547 C 634.23802,283.03856 633.94254,281.95195 633.4088,281.26563 C 632.89406,280.63658 632.34122,280.25531 631.75029,280.12183 C 631.14023,280.04561 630.52067,279.95983 629.89161,279.86447 C 629.49124,279.7692 629.29108,279.51184 629.29111,279.0924 C 629.29108,278.57773 629.51031,278.32038 629.9488,278.32034 C 630.61598,278.32038 631.62158,278.36804 632.96558,278.46331 C 634.30951,278.55867 635.3151,278.60633 635.98236,278.60629 C 636.64954,278.60633 637.65513,278.55867 638.99914,278.46331 C 640.34307,278.36804 641.34866,278.32038 642.01592,278.32034 C 642.4734,278.32038 642.70216,278.57773 642.7022,279.0924 C 642.70216,279.56903 642.2351,279.85498 641.30104,279.95026 C 640.10001,280.06468 639.20403,280.50313 638.61311,281.26563 C 638.06023,281.95195 637.75521,283.03856 637.69806,284.52547 C 637.58364,287.86159 637.52645,292.96104 637.52649,299.82383 L 637.52649,299.82383 z M 661.80373,320.41229 C 661.80371,320.927 661.57495,321.18436 661.11745,321.18436 C 660.2977,321.18436 659.02522,321.1367 657.3,321.04138 C 655.57475,320.94606 654.27368,320.89841 653.39677,320.89841 C 652.53891,320.89841 651.25214,320.94606 649.53644,321.04138 C 647.82073,321.1367 646.53395,321.18436 645.6761,321.18436 C 645.21858,321.18436 644.98982,320.927 644.98982,320.41229 C 644.98982,319.93571 645.50453,319.64022 646.53396,319.52584 C 647.83026,319.3924 648.7739,318.96824 649.36487,318.25336 C 649.95583,317.53849 650.27037,316.44711 650.30851,314.97923 C 650.40382,311.10937 650.45147,306.94402 650.45148,302.48318 L 650.45148,296.70697 C 650.45147,292.53212 650.40382,288.47162 650.30851,284.52547 C 650.27037,283.0195 649.97489,281.91382 649.42206,281.20844 C 648.90734,280.56032 648.05902,280.15046 646.8771,279.97885 C 645.90486,279.84545 645.41875,279.54997 645.41875,279.0924 C 645.41875,278.57773 645.64751,278.32038 646.10503,278.32034 C 646.61974,278.32038 647.29649,278.34897 648.13528,278.40612 C 649.18376,278.48242 649.87004,278.52054 650.19413,278.5205 C 651.41417,278.57773 652.48172,278.60633 653.39677,278.60629 C 654.33087,278.60633 655.40795,278.57773 656.62802,278.5205 C 656.91396,278.52054 657.5907,278.48242 658.65827,278.40612 C 659.49704,278.34897 660.17379,278.32038 660.68852,278.32034 C 661.14602,278.32038 661.37478,278.57773 661.3748,279.0924 C 661.37478,279.54997 660.88867,279.84545 659.91645,279.97885 C 658.73451,280.15046 657.88619,280.56032 657.37149,281.20844 C 656.81864,281.91382 656.52316,283.0195 656.48504,284.52547 C 656.38971,288.50975 656.34205,292.66556 656.34207,296.99292 L 656.34207,302.76913 C 656.34205,307.07747 656.38971,311.14749 656.48504,314.97923 C 656.52316,316.44711 656.8377,317.53849 657.42868,318.25336 C 658.01963,318.96824 658.96327,319.3924 660.25959,319.52584 C 661.289,319.64022 661.80371,319.93571 661.80373,320.41229 L 661.80373,320.41229 z M 684.62258,296.96433 L 684.62258,302.82632 C 684.62256,307.15372 684.67022,311.20468 684.76556,314.97923 C 684.80366,316.44711 685.11821,317.53849 685.7092,318.25336 C 686.30014,318.96824 687.24378,319.3924 688.54011,319.52584 C 689.56951,319.64022 690.08422,319.93571 690.08424,320.41229 C 690.08422,320.927 689.85546,321.18436 689.39796,321.18436 C 688.57821,321.18436 687.30573,321.1367 685.58052,321.04138 C 683.85526,320.94606 682.55419,320.89841 681.67729,320.89841 C 680.81942,320.89841 679.53264,320.94606 677.81696,321.04138 C 676.10124,321.1367 674.81446,321.18436 673.95662,321.18436 C 673.49909,321.18436 673.27033,320.927 673.27034,320.41229 C 673.27033,319.93571 673.78504,319.64022 674.81447,319.52584 C 676.09171,319.41146 677.04488,318.98254 677.67398,318.23906 C 678.24587,317.53372 678.55088,316.44711 678.58902,314.97923 C 678.68432,311.16656 678.73198,307.02028 678.732,302.54037 L 678.732,296.67838 C 678.73198,292.50352 678.68432,288.4049 678.58902,284.38249 C 678.60807,283.79157 678.57948,282.91465 678.50324,281.75175 C 678.42697,281.25614 678.16008,281.00831 677.70258,281.00827 L 670.12488,281.00827 C 667.37975,281.00831 665.86421,282.06633 665.57826,284.18233 C 665.54013,284.58269 665.50201,284.98303 665.46388,285.38332 C 665.36856,285.80275 665.10168,286.01245 664.66322,286.01241 C 664.16757,286.01245 663.91975,285.78369 663.91975,285.32613 C 663.91975,285.82181 663.996,284.5255 664.14851,281.4372 C 664.14851,280.90347 664.1771,280.1028 664.23429,279.03521 C 664.27242,278.55867 664.50118,278.32038 664.92058,278.32034 C 666.78878,278.32038 669.58157,278.36804 673.29893,278.46331 C 677.01628,278.55867 679.80906,278.60633 681.67729,278.60629 C 683.54548,278.60633 686.33827,278.55867 690.05565,278.46331 C 693.77298,278.36804 696.56576,278.32038 698.43401,278.32034 C 698.85337,278.32038 699.08213,278.55867 699.12029,279.03521 C 699.13932,279.56903 699.17744,280.36016 699.23467,281.4086 C 699.36808,284.49691 699.4348,285.80275 699.43483,285.32613 C 699.4348,285.78369 699.18697,286.01245 698.69136,286.01241 C 698.25287,286.01245 697.97645,285.80275 697.8621,285.38332 C 697.84301,284.98303 697.81441,284.58269 697.77632,284.18233 C 697.56659,282.06633 696.05105,281.00831 693.2297,281.00827 L 685.65201,281.00827 C 685.19446,281.00831 684.92758,281.25614 684.85134,281.75175 C 684.83226,281.88523 684.80366,282.76214 684.76556,284.38249 C 684.67022,288.4049 684.62256,292.59884 684.62258,296.96433 L 684.62258,296.96433 z M 719.93755,289.47242 C 719.84221,289.5487 719.76596,289.64402 719.70879,289.75837 C 719.36563,290.55906 718.198,293.56154 716.20589,298.76582 C 714.21376,303.97014 713.21769,306.62948 713.21771,306.74384 C 713.21769,307.06793 713.54177,307.22997 714.18994,307.22996 L 726.34285,307.22996 C 726.95285,307.22997 727.25786,307.06793 727.25789,306.74384 C 727.25786,306.17196 724.89401,300.51014 720.16631,289.75837 C 720.12816,289.68215 720.05191,289.58683 719.93755,289.47242 L 719.93755,289.47242 z M 727.91558,309.9179 L 712.76019,309.9179 C 712.28359,309.91791 711.90232,310.22292 711.61638,310.83294 C 710.24381,313.80683 709.55753,315.87521 709.55754,317.03807 C 709.55753,318.08656 710.04364,318.78237 711.01589,319.12551 C 711.89279,319.29708 712.76971,319.47819 713.64663,319.66882 C 713.95163,319.76414 714.10414,320.01196 714.10416,320.41229 C 714.10414,320.927 713.87538,321.18436 713.41787,321.18436 C 712.73158,321.18436 711.71169,321.1367 710.3582,321.04138 C 709.00469,320.94606 707.9848,320.89841 707.29853,320.89841 C 706.61224,320.89841 705.59711,320.94606 704.25315,321.04138 C 702.90918,321.1367 701.89406,321.18436 701.20778,321.18436 C 700.75025,321.18436 700.52149,320.927 700.52149,320.41229 C 700.52149,319.93571 700.99808,319.64976 701.95125,319.55444 C 703.15224,319.421 704.04822,318.99684 704.63919,318.28196 C 705.23014,317.56708 705.97362,316.05631 706.8696,313.74964 L 720.53805,278.23455 C 720.76679,277.62457 721.00508,277.31955 721.25292,277.31951 C 721.50073,277.31955 721.74855,277.62457 721.9964,278.23455 L 736.37972,312.29129 C 737.0469,313.93075 738.0382,315.9324 739.35361,318.29625 C 739.92547,318.94441 740.82145,319.35427 742.04155,319.52584 C 743.01374,319.67835 743.49985,319.97383 743.49989,320.41229 C 743.49985,320.927 743.27109,321.18436 742.81361,321.18436 C 741.95572,321.18436 740.67847,321.1367 738.98187,321.04138 C 737.28519,320.94606 736.00795,320.89841 735.15013,320.89841 C 734.29225,320.89841 733.015,320.94606 731.31839,321.04138 C 729.62172,321.1367 728.34448,321.18436 727.48665,321.18436 C 727.04817,321.18436 726.82894,320.927 726.82896,320.41229 C 726.82894,319.97383 727.0291,319.71648 727.42946,319.64022 C 728.91638,319.37334 729.7647,319.19223 729.97442,319.09692 C 730.87037,318.73471 731.31836,318.0675 731.31839,317.09526 C 731.31836,316.48524 731.16585,315.81802 730.86087,315.09361 L 729.08798,310.86153 C 728.82106,310.23245 728.43026,309.91791 727.91558,309.9179 L 727.91558,309.9179 z M 784.16205,299.82383 C 784.16201,302.20678 784.19061,305.77163 784.24784,310.51839 C 784.30499,315.26518 784.33358,318.8205 784.33362,321.18436 C 784.33358,321.71813 784.23827,321.98502 784.04767,321.98502 C 783.74262,321.98502 783.48526,321.87064 783.2756,321.64188 L 753.39375,289.5868 C 753.39374,289.56776 753.37468,289.55823 753.33656,289.5582 C 753.31749,289.5773 753.30795,289.60589 753.30796,289.64399 C 753.19357,291.58848 753.13638,295.66804 753.13639,301.88268 C 753.13638,307.29669 753.19357,311.66221 753.30796,314.97923 C 753.36515,316.46617 753.67492,317.56232 754.2373,318.26766 C 754.79966,318.97301 755.68134,319.40193 756.88235,319.55444 C 757.8355,319.66882 758.31209,319.95477 758.3121,320.41229 C 758.31209,320.927 758.09286,321.18436 757.65442,321.18436 C 756.98718,321.18436 755.98159,321.1367 754.63764,321.04138 C 753.29366,320.94606 752.28806,320.89841 751.62085,320.89841 C 750.95363,320.89841 749.94804,320.94606 748.60407,321.04138 C 747.2601,321.1367 746.25451,321.18436 745.58729,321.18436 C 745.12977,321.18436 744.90101,320.927 744.90101,320.41229 C 744.90101,319.93571 745.36806,319.64976 746.30217,319.55444 C 747.50316,319.44006 748.40867,319.0016 749.0187,318.23906 C 749.55247,317.55279 749.84795,316.46617 749.90515,314.97923 C 750.01952,311.64314 750.07671,306.54369 750.07672,299.68086 C 750.07671,297.29796 750.04812,293.73311 749.99094,288.9863 C 749.93374,284.23955 749.90514,280.68424 749.90515,278.32034 C 749.90514,277.69129 750.01952,277.37674 750.24829,277.3767 C 750.43892,277.37674 750.68674,277.54831 750.99176,277.89141 L 750.96317,277.89141 L 765.91839,293.96184 C 769.21633,297.56485 774.2014,302.91212 780.87362,310.00368 C 780.87358,310.02276 780.89264,310.03229 780.93081,310.03228 C 780.94983,310.01322 780.95937,309.98463 780.9594,309.94649 C 780.97843,309.48898 781.01656,307.68749 781.07378,304.54202 C 781.09281,302.50226 781.10234,300.20512 781.10238,297.65061 C 781.10234,292.21757 781.04515,287.84253 780.93081,284.52547 C 780.87358,283.03856 780.5781,281.95195 780.04436,281.26563 C 779.52961,280.63658 778.97678,280.25531 778.38585,280.12183 C 777.77578,280.04561 777.15623,279.95983 776.52717,279.86447 C 776.1268,279.7692 775.92664,279.51184 775.92667,279.0924 C 775.92664,278.57773 776.14587,278.32038 776.58436,278.32034 C 777.25154,278.32038 778.25713,278.36804 779.60114,278.46331 C 780.94507,278.55867 781.95066,278.60633 782.61792,278.60629 C 783.2851,278.60633 784.29069,278.55867 785.6347,278.46331 C 786.97862,278.36804 787.98422,278.32038 788.65148,278.32034 C 789.10896,278.32038 789.33772,278.57773 789.33776,279.0924 C 789.33772,279.56903 788.87066,279.85498 787.9366,279.95026 C 786.73557,280.06468 785.83959,280.50313 785.24867,281.26563 C 784.69579,281.95195 784.39077,283.03856 784.33362,284.52547 C 784.2192,287.86159 784.16201,292.96104 784.16205,299.82383 L 784.16205,299.82383 z M 809.72606,289.47242 C 809.63073,289.5487 809.55447,289.64402 809.4973,289.75837 C 809.15414,290.55906 807.98651,293.56154 805.99441,298.76582 C 804.00227,303.97014 803.00621,306.62948 803.00622,306.74384 C 803.00621,307.06793 803.33029,307.22997 803.97845,307.22996 L 816.13136,307.22996 C 816.74136,307.22997 817.04638,307.06793 817.0464,306.74384 C 817.04638,306.17196 814.68252,300.51014 809.95483,289.75837 C 809.91668,289.68215 809.84042,289.58683 809.72606,289.47242 L 809.72606,289.47242 z M 817.70409,309.9179 L 802.5487,309.9179 C 802.0721,309.91791 801.69084,310.22292 801.4049,310.83294 C 800.03232,313.80683 799.34604,315.87521 799.34605,317.03807 C 799.34604,318.08656 799.83216,318.78237 800.8044,319.12551 C 801.6813,319.29708 802.55822,319.47819 803.43515,319.66882 C 803.74015,319.76414 803.89265,320.01196 803.89267,320.41229 C 803.89265,320.927 803.66389,321.18436 803.20639,321.18436 C 802.52009,321.18436 801.5002,321.1367 800.14671,321.04138 C 798.7932,320.94606 797.77331,320.89841 797.08704,320.89841 C 796.40075,320.89841 795.38563,320.94606 794.04166,321.04138 C 792.69769,321.1367 791.68257,321.18436 790.99629,321.18436 C 790.53877,321.18436 790.31001,320.927 790.31001,320.41229 C 790.31001,319.93571 790.78659,319.64976 791.73976,319.55444 C 792.94075,319.421 793.83673,318.99684 794.4277,318.28196 C 795.01866,317.56708 795.76213,316.05631 796.65811,313.74964 L 810.32656,278.23455 C 810.5553,277.62457 810.79359,277.31955 811.04144,277.31951 C 811.28924,277.31955 811.53706,277.62457 811.78491,278.23455 L 826.16823,312.29129 C 826.83542,313.93075 827.82671,315.9324 829.14212,318.29625 C 829.71398,318.94441 830.60996,319.35427 831.83006,319.52584 C 832.80225,319.67835 833.28836,319.97383 833.28841,320.41229 C 833.28836,320.927 833.0596,321.18436 832.60213,321.18436 C 831.74423,321.18436 830.46699,321.1367 828.77039,321.04138 C 827.07371,320.94606 825.79646,320.89841 824.93865,320.89841 C 824.08076,320.89841 822.80351,320.94606 821.10691,321.04138 C 819.41023,321.1367 818.13299,321.18436 817.27516,321.18436 C 816.83668,321.18436 816.61745,320.927 816.61748,320.41229 C 816.61745,319.97383 816.81762,319.71648 817.21797,319.64022 C 818.70489,319.37334 819.55321,319.19223 819.76294,319.09692 C 820.65888,318.73471 821.10687,318.0675 821.10691,317.09526 C 821.10687,316.48524 820.95437,315.81802 820.64938,315.09361 L 818.87649,310.86153 C 818.60957,310.23245 818.21877,309.91791 817.70409,309.9179 L 817.70409,309.9179 z "
     id="text2174" />
</svg>
