<?xml version="1.0" encoding="utf-8"?>
<!-- Generator: Adobe Illustrator 16.0.0, SVG Export Plug-In . SVG Version: 6.00 Build 0)  -->
<!DOCTYPE svg PUBLIC "-//W3C//DTD SVG 1.1//EN" "http://www.w3.org/Graphics/SVG/1.1/DTD/svg11.dtd">
<svg version="1.1" id="Layer_1" xmlns="http://www.w3.org/2000/svg" xmlns:xlink="http://www.w3.org/1999/xlink" x="0px" y="0px"
	 width="800px" height="480px" viewBox="0 0 800 480" enable-background="new 0 0 800 480" xml:space="preserve">
<rect y="0" fill="#FF0000" width="800" height="480"/>
<rect x="400" y="0" width="400" height="480"/>
<g>
	<path fill="#FF0000" d="M399.44,100.709v-0.016c-0.026,0.003-0.049,0.006-0.075,0.009c-0.026-0.002-0.049-0.006-0.075-0.009v0.016
		c-83.918,8.141-84.182,31.299-84.182,31.299c7.517,29.27,21.582,22.788,21.582,22.788l6.141,5.912
		c13.821-12.491,54.651-14.07,56.533-14.138c1.883,0.066,42.713,1.646,56.536,14.138l6.141-5.912c0,0,14.064,6.481,21.583-22.788
		C483.623,132.008,483.358,108.851,399.44,100.709z"/>
	<path fill="#FFCC00" stroke="#A07724" stroke-miterlimit="10" d="M466.931,156.442c0,0-6.134-2.394-8.525-9.873
		c0,0-10.62,7.579-14.959-4.289c0,0-11.369,11.805-21.094-4.594c0,0-8.702,10.714-22.75,0c-14.049,10.714-22.75,0-22.75,0
		c-9.724,16.397-21.093,4.594-21.093,4.594c-4.338,11.867-14.959,4.289-14.959,4.289c-2.393,7.479-8.526,9.873-8.526,9.873
		L348.13,171.7l-0.748,10.472c16.661-13.343,52.22-13.164,52.22-13.164s35.559-0.179,52.219,13.164l-0.747-10.472L466.931,156.442z"
		/>
	<circle fill="#FFCC00" stroke="#A07724" stroke-miterlimit="10" cx="399.291" cy="288.338" r="122.764"/>
	<circle fill="#0000CC" stroke="#A07724" stroke-miterlimit="10" cx="399.291" cy="288.338" r="115.398"/>
	<path fill="#FF0000" stroke="#A07724" stroke-miterlimit="10" d="M405.289,156.281c0,2.445-1.322,4.428-2.953,4.428h-5.792
		c-1.629,0-2.952-1.982-2.952-4.428l0,0c0-2.443,1.322-4.427,2.952-4.427h5.792C403.967,151.854,405.289,153.837,405.289,156.281
		L405.289,156.281z"/>
	<path fill="#FF0000" stroke="#A07724" stroke-miterlimit="10" d="M371.288,159.554c0.607,2.135-0.174,4.228-1.743,4.673
		l-5.572,1.581c-1.569,0.445-3.332-0.925-3.937-3.061l0,0c-0.607-2.137,0.174-4.229,1.742-4.674l5.573-1.581
		C368.918,156.047,370.683,157.418,371.288,159.554L371.288,159.554z"/>
	<path fill="#FF0000" stroke="#A07724" stroke-miterlimit="10" d="M428.563,159.36c-0.696,2.003-0.046,4.021,1.45,4.507l5.318,1.724
		c1.497,0.485,3.274-0.746,3.97-2.749l0,0c0.696-2.003,0.046-4.021-1.45-4.506l-5.318-1.725
		C431.035,156.125,429.257,157.356,428.563,159.36L428.563,159.36z"/>
	<path fill="#0000CC" stroke="#A07724" stroke-miterlimit="10" d="M388.611,156.771c0.305,2.364-0.76,4.45-2.376,4.659l-5.746,0.74
		c-1.617,0.208-3.174-1.539-3.479-3.903l0,0c-0.305-2.364,0.76-4.45,2.376-4.658l5.745-0.74
		C386.748,152.658,388.307,154.406,388.611,156.771L388.611,156.771z"/>
	<path fill="#0000CC" stroke="#A07724" stroke-miterlimit="10" d="M410.709,156.708c-0.311,2.321,0.749,4.368,2.365,4.568
		l5.74,0.715c1.617,0.2,3.179-1.52,3.487-3.842l0,0c0.313-2.321-0.749-4.368-2.364-4.567l-5.74-0.715
		C412.581,152.665,411.02,154.385,410.709,156.708L410.709,156.708z"/>
	<path fill="#0000CC" stroke="#A07724" stroke-miterlimit="10" d="M348.13,171.7l5.385-2.318c0,0,3.292-6.433-2.692-6.657
		l-7.991,3.876L348.13,171.7z"/>
	<path fill="#0000CC" stroke="#A07724" stroke-miterlimit="10" d="M451.042,171.7l-5.386-2.318c0,0-3.291-6.433,2.692-6.657
		l7.99,3.876L451.042,171.7z"/>
	<path fill="none" stroke="#A07724" stroke-miterlimit="10" d="M342.832,166.602c0,0,53.228-33.187,113.508,0"/>
	<path fill="none" stroke="#A07724" stroke-miterlimit="10" d="M348.13,171.7c0,0,51.095-24.732,102.912,0"/>
	<path fill="#FFCC00" stroke="#A07724" stroke-miterlimit="10" d="M390.066,103.088c0,0-31.116-13.364-45.477,10.771
		c0,0,15.558,0.897,24.533,3.241c0,0,9.972,1.296,15.558-8.851C384.681,108.249,386.275,104.684,390.066,103.088z"/>
	<path fill="none" stroke="#A07724" stroke-miterlimit="10" d="M384.681,108.249c0,0-25.039-6.371-36.056,5.902"/>
	<path fill="#FFCC00" stroke="#A07724" stroke-miterlimit="10" d="M318.778,139.837c0,0-4.109-28.971,44.952-20.993
		c0,0,16.681,4.587,21.587-8.177c0,0,6.868-7.779,14.522-7.579v-2.992c0,0-9.37-2.992-18.128,8.776c0,0-6.011,9.973-19.158,5.186
		c0,0-54.287-19.347-47.455,28.023L318.778,139.837z"/>
	<path fill="#FFCC00" stroke="#A07724" stroke-miterlimit="10" d="M318.778,139.956c0,0-12.882-25.744,26.41-29.903
		c0,0,3.79-2.27-0.598-2.459c0,0-45.021-1.7-29.491,34.487L318.778,139.956z"/>
	<path fill="#FFCC00" stroke="#A07724" stroke-miterlimit="10" d="M393.592,100.179c0,0,4.472-0.026,1.469,3.735
		c0,0-7.189,3.02-14.569,0c0,0-45.032-10.611-27.524,24.902c0,0,2.792,8.976-6.982,7.38c0,0-23.734-40.289,18.549-39.69
		C364.535,96.506,382.358,97.868,393.592,100.179z"/>
	<rect x="395.227" y="102.19" fill="#FFCC00" stroke="#A07724" stroke-miterlimit="10" width="8.401" height="26.827"/>
	<path fill="#FFCC00" stroke="#A07724" stroke-miterlimit="10" d="M396.098,73.968c0,0-9.623-5.585,1.547-7.18
		c0,0,2.194-12.966,4.787,0c0,0,10.569,2.99,1.196,7.18H396.098z"/>
	<circle fill="#0000CC" stroke="#A07724" stroke-miterlimit="10" cx="399.839" cy="84.14" r="12.166"/>
	<circle fill="#DBDBDB" stroke="#A07724" stroke-miterlimit="10" cx="387.672" cy="100.694" r="3.132"/>
	<circle fill="#DBDBDB" stroke="#A07724" stroke-miterlimit="10" cx="380.091" cy="99.059" r="3.133"/>
	<circle fill="#DBDBDB" stroke="#A07724" stroke-miterlimit="10" cx="372.311" cy="97.562" r="3.132"/>
	<circle fill="#DBDBDB" stroke="#A07724" stroke-miterlimit="10" cx="333.558" cy="106.959" r="3.132"/>
	<circle fill="#DBDBDB" stroke="#A07724" stroke-miterlimit="10" cx="321.89" cy="111.408" r="3.132"/>
	<circle fill="#DBDBDB" stroke="#A07724" stroke-miterlimit="10" cx="310.671" cy="130.953" r="3.132"/>
	<circle fill="#DBDBDB" stroke="#A07724" stroke-miterlimit="10" cx="312.451" cy="139.33" r="3.133"/>
	<circle fill="#DBDBDB" stroke="#A07724" stroke-miterlimit="10" cx="342.832" cy="127.82" r="3.132"/>
	<circle fill="#DBDBDB" stroke="#A07724" stroke-miterlimit="10" cx="362.962" cy="96.306" r="3.854"/>
	<circle fill="#DBDBDB" stroke="#A07724" stroke-miterlimit="10" cx="352.479" cy="97.562" r="3.854"/>
	<circle fill="#DBDBDB" stroke="#A07724" stroke-miterlimit="10" cx="312.451" cy="119.458" r="3.854"/>
	<circle fill="#DBDBDB" stroke="#A07724" stroke-miterlimit="10" cx="340.737" cy="118.005" r="3.853"/>
	<circle fill="#DBDBDB" stroke="#A07724" stroke-miterlimit="10" cx="343.253" cy="105.496" r="4.878"/>
	<path fill="#FFCC00" stroke="#A07724" stroke-miterlimit="10" d="M409.2,103.088c0,0,31.115-13.364,45.476,10.771
		c0,0-15.557,0.897-24.532,3.241c0,0-9.973,1.296-15.557-8.851C414.587,108.249,412.991,104.684,409.2,103.088z"/>
	<path fill="none" stroke="#A07724" stroke-miterlimit="10" d="M414.587,108.249c0,0,25.038-6.371,36.055,5.902"/>
	<path fill="#FFCC00" stroke="#A07724" stroke-miterlimit="10" d="M480.489,139.837c0,0,4.107-28.971-44.953-20.993
		c0,0-16.681,4.587-21.587-8.177c0,0-6.867-7.779-14.521-7.579v-2.992c0,0,9.37-2.992,18.126,8.776c0,0,6.013,9.973,19.158,5.186
		c0,0,54.288-19.347,47.455,28.023L480.489,139.837z"/>
	<path fill="#FFCC00" stroke="#A07724" stroke-miterlimit="10" d="M480.489,139.956c0,0,12.881-25.744-26.411-29.903
		c0,0-3.79-2.27,0.598-2.459c0,0,45.021-1.7,29.492,34.487L480.489,139.956z"/>
	<path fill="#FFCC00" stroke="#A07724" stroke-miterlimit="10" d="M405.675,100.179c0,0-4.471-0.026-1.47,3.735
		c0,0,7.189,3.02,14.57,0c0,0,45.03-10.611,27.522,24.902c0,0-2.792,8.976,6.981,7.38c0,0,23.734-40.289-18.548-39.69
		C434.732,96.506,416.908,97.868,405.675,100.179z"/>
	<circle fill="#DBDBDB" stroke="#A07724" stroke-miterlimit="10" cx="411.594" cy="100.694" r="3.132"/>
	<circle fill="#DBDBDB" stroke="#A07724" stroke-miterlimit="10" cx="419.175" cy="99.059" r="3.132"/>
	<circle fill="#DBDBDB" stroke="#A07724" stroke-miterlimit="10" cx="426.956" cy="97.562" r="3.132"/>
	<circle fill="#DBDBDB" stroke="#A07724" stroke-miterlimit="10" cx="465.708" cy="106.959" r="3.132"/>
	<circle fill="#DBDBDB" stroke="#A07724" stroke-miterlimit="10" cx="477.376" cy="111.408" r="3.132"/>
	<circle fill="#DBDBDB" stroke="#A07724" stroke-miterlimit="10" cx="488.595" cy="130.953" r="3.132"/>
	<circle fill="#DBDBDB" stroke="#A07724" stroke-miterlimit="10" cx="486.815" cy="139.33" r="3.133"/>
	<circle fill="#DBDBDB" stroke="#A07724" stroke-miterlimit="10" cx="436.303" cy="96.306" r="3.854"/>
	<circle fill="#DBDBDB" stroke="#A07724" stroke-miterlimit="10" cx="446.788" cy="97.562" r="3.854"/>
	<circle fill="#DBDBDB" stroke="#A07724" stroke-miterlimit="10" cx="486.815" cy="119.458" r="3.854"/>
	<circle fill="#DBDBDB" stroke="#A07724" stroke-miterlimit="10" cx="458.529" cy="118.005" r="3.854"/>
	<circle fill="#DBDBDB" stroke="#A07724" stroke-miterlimit="10" cx="456.014" cy="105.496" r="4.878"/>
	<circle fill="#FFCC00" stroke="#A07724" stroke-miterlimit="10" cx="399.839" cy="100.096" r="7.379"/>
	<circle fill="#DBDBDB" stroke="#A07724" stroke-miterlimit="10" cx="399.44" cy="107.476" r="3.132"/>
	<circle fill="#DBDBDB" stroke="#A07724" stroke-miterlimit="10" cx="399.44" cy="112.471" r="3.132"/>
	<circle fill="#DBDBDB" stroke="#A07724" stroke-miterlimit="10" cx="399.44" cy="118.005" r="3.132"/>
	<path fill="#FFCC00" stroke="#A07724" stroke-miterlimit="10" d="M480.355,139.837l-3.143,4.787c0,0-9.273-3.291-3.141,4.188
		c0,0-8.826,12.267-12.416-2.692l-3.143-2.244c0,0-11.815,8.525-11.069-3.89c0,0,14.659-0.448,2.095-7.479
		c0,0-0.448-14.211-6.731-1.047c0,0-14.062-2.693-1.795,7.479c0,0-8.078,13.165-16.155-4.188l-2.991-0.599
		c0,0-12.566,14.511-18.699-1.646c0,0,20.194-5.983,0-7.479c0,0,0.707-7.506-3.391-7.908v-0.021c-0.06,0-0.116,0.007-0.174,0.01
		c-0.059-0.003-0.115-0.01-0.175-0.01v0.021c-4.098,0.402-3.392,7.908-3.392,7.908c-20.194,1.496,0,7.479,0,7.479
		c-6.132,16.156-18.698,1.646-18.698,1.646l-2.991,0.599c-8.079,17.353-16.157,4.188-16.157,4.188
		c12.267-10.172-1.795-7.479-1.795-7.479c-6.283-13.164-6.731,1.047-6.731,1.047c-12.565,7.031,2.094,7.479,2.094,7.479
		c0.749,12.415-11.069,3.89-11.069,3.89l-3.142,2.244c-3.59,14.959-12.416,2.692-12.416,2.692c6.133-7.479-3.142-4.188-3.142-4.188
		l-3.141-4.787l-3.74,2.244l9.125,12.267c11.519,11.069,17.353-4.787,17.353-4.787c14.061,4.637,14.959-4.729,14.959-4.729
		c11.817,11.426,20.942-4.995,20.942-4.995c10.633,11.506,21.547-0.385,22.115-1.02c0.567,0.635,11.48,12.525,22.113,1.02
		c0,0,9.126,16.42,20.943,4.995c0,0,0.896,9.365,14.96,4.729c0,0,5.834,15.856,17.352,4.787l9.125-12.267L480.355,139.837z"/>
	<circle fill="#FFCC00" stroke="#A07724" stroke-miterlimit="10" cx="375.443" cy="132.008" r="4.188"/>
	<circle fill="#FFCC00" stroke="#A07724" stroke-miterlimit="10" cx="337.747" cy="142.38" r="4.188"/>
	<circle fill="#FFCC00" stroke="#A07724" stroke-miterlimit="10" cx="424.01" cy="132.008" r="4.188"/>
	<circle fill="#FFCC00" stroke="#A07724" stroke-miterlimit="10" cx="462.206" cy="142.28" r="4.189"/>
	<path fill="#FFCC00" stroke="#A07724" stroke-miterlimit="10" d="M388.664,88.956c0,0,11.517-4.5,21.993,0.752
		c0,0,1.598-2.408,1.349-5.22c0,0-6.299-2.393-9.433-2.02c0,0-3.208-6.662-5.376-0.04c0,0-4.334-0.102-9.46,2.96
		C387.736,85.39,387.933,87.53,388.664,88.956z"/>
	<g>
		<path fill="#FFCC00" stroke="#A07724" stroke-miterlimit="10" d="M339.659,354.73l8.697,6.785l-12.803,16.412l-8.331-6.5
			l1.356-1.74l6.408,5l4.26-5.459l-5.929-4.625l1.348-1.729l5.929,4.625l4.482-5.743l-6.775-5.285L339.659,354.73z"/>
		<path fill="#FFCC00" stroke="#A07724" stroke-miterlimit="10" d="M323.539,335.857l1.812,2.361l-3.408,8.649
			c-0.104,0.263-0.28,0.599-0.526,1.006l0.035,0.048c0.236-0.06,0.608-0.138,1.118-0.234l9.327-0.937l1.819,2.373l-12.543,0.841
			l-4.307,11.389l-1.82-2.371l3.216-7.826c0.213-0.518,0.447-1.008,0.701-1.471l-0.035-0.047c-0.695,0.145-1.259,0.233-1.692,0.272
			l-8.453,0.904l-1.705-2.223l12.173-1.086L323.539,335.857z"/>
		<path fill="#FFCC00" stroke="#A07724" stroke-miterlimit="10" d="M309.777,299.702c1.116,1.334,1.914,3.123,2.393,5.365
			c0.62,2.896,0.183,5.414-1.309,7.551c-1.491,2.142-3.751,3.535-6.779,4.185c-3.255,0.694-6.095,0.276-8.52-1.252
			c-2.424-1.529-3.958-3.799-4.603-6.81c-0.412-1.93-0.475-3.588-0.188-4.975l2.541-0.545c-0.502,1.633-0.566,3.326-0.189,5.086
			c0.5,2.338,1.686,4.065,3.557,5.186c1.872,1.119,4.114,1.398,6.725,0.84c2.48-0.53,4.31-1.631,5.491-3.305
			c1.181-1.672,1.537-3.608,1.064-5.813c-0.438-2.045-1.269-3.718-2.497-5.019L309.777,299.702z"/>
		<path fill="#FFCC00" stroke="#A07724" stroke-miterlimit="10" d="M289.514,283.877l2.089,0.033l-0.032,2.032l16.631,0.271
			l0.033-2.031l2.089,0.033l-0.105,6.502l-2.09-0.035l0.033-2.031l-16.631-0.27l-0.033,2.031l-2.089-0.033L289.514,283.877z"/>
		<path fill="#FFCC00" stroke="#A07724" stroke-miterlimit="10" d="M315.173,257.934l-0.746,2.896l-18.738,6.233
			c-0.47,0.156-0.947,0.265-1.431,0.318l-0.022,0.086c0.45,0.035,1.383,0.236,2.798,0.6l14.56,3.754l-0.607,2.361l-20.156-5.195
			l0.79-3.063l18.413-6.019c0.764-0.252,1.284-0.407,1.559-0.467l0.015-0.057c-0.605-0.055-1.606-0.264-3.001-0.623l-14.195-3.66
			l0.608-2.359L315.173,257.934z"/>
		<path fill="#FFCC00" stroke="#A07724" stroke-miterlimit="10" d="M325.78,237.727l-5.614,9.494l-17.917-10.591l5.378-9.096
			l1.899,1.123l-4.138,6.995l5.961,3.523l3.826-6.472l1.886,1.114l-3.827,6.473l6.272,3.708l4.374-7.396L325.78,237.727z"/>
		<path fill="#FFCC00" stroke="#A07724" stroke-miterlimit="10" d="M342.834,218.953l-2.062,2.044l-6.582-1.691
			c-0.608-0.16-1.153-0.27-1.636-0.33c-0.482-0.061-0.92-0.064-1.314-0.017c-0.393,0.051-0.759,0.164-1.094,0.34
			c-0.337,0.176-0.666,0.425-0.989,0.745l-1.422,1.411l6.233,6.287l-1.732,1.717l-14.654-14.78l4.411-4.374
			c0.645-0.64,1.322-1.15,2.028-1.531c0.707-0.38,1.424-0.604,2.153-0.673c0.729-0.069,1.451,0.03,2.164,0.296
			c0.714,0.268,1.398,0.729,2.052,1.39c0.512,0.515,0.902,1.064,1.174,1.646c0.271,0.583,0.431,1.185,0.479,1.804
			c0.048,0.619-0.01,1.247-0.177,1.883s-0.437,1.269-0.809,1.896l0.041,0.041c0.356-0.136,0.695-0.223,1.017-0.263
			c0.322-0.04,0.661-0.044,1.016-0.018c0.356,0.029,0.735,0.086,1.139,0.169c0.403,0.084,0.865,0.189,1.383,0.314L342.834,218.953z
			 M320.87,214.527l5.314,5.36l2.35-2.33c0.433-0.429,0.768-0.891,1.006-1.386c0.238-0.495,0.371-0.998,0.396-1.507
			c0.027-0.511-0.061-1.017-0.26-1.521c-0.2-0.504-0.517-0.976-0.954-1.416c-0.784-0.79-1.65-1.154-2.602-1.088
			c-0.952,0.064-1.913,0.577-2.881,1.537L320.87,214.527z"/>
		<path fill="#FFCC00" stroke="#A07724" stroke-miterlimit="10" d="M353.853,187.916l3.371,21.937l-2.348,1.304l-16.706-14.528
			l2.374-1.318l13.051,11.628c0.419,0.376,0.84,0.846,1.264,1.407l0.051-0.028c-0.215-0.545-0.379-1.168-0.491-1.87l-2.862-17.255
			L353.853,187.916z"/>
		<path fill="#FFCC00" stroke="#A07724" stroke-miterlimit="10" d="M372.882,203.101l-4.84-20.243l5.76-1.377
			c1.75-0.419,3.24-0.321,4.471,0.288c1.23,0.612,2.01,1.604,2.338,2.979c0.275,1.147,0.202,2.22-0.216,3.215
			c-0.418,0.996-1.131,1.803-2.137,2.421l0.014,0.056c1.402-0.166,2.618,0.088,3.645,0.764c1.026,0.674,1.707,1.708,2.04,3.102
			c0.414,1.732,0.128,3.282-0.857,4.652c-0.986,1.37-2.425,2.28-4.316,2.732L372.882,203.101z M370.926,184.437l1.563,6.536
			l2.428-0.581c1.299-0.311,2.245-0.867,2.839-1.671c0.594-0.804,0.754-1.775,0.482-2.914c-0.47-1.967-2-2.641-4.587-2.021
			L370.926,184.437z M372.999,193.104l1.741,7.285l3.218-0.77c1.394-0.333,2.395-0.922,3.004-1.764
			c0.609-0.841,0.777-1.837,0.502-2.984c-0.572-2.391-2.486-3.196-5.742-2.417L372.999,193.104z"/>
		<path fill="#FFCC00" stroke="#A07724" stroke-miterlimit="10" d="M412.136,178.883l-8.428,20.532l-2.685-0.094l-6.816-21.063
			l2.712,0.094l5.185,16.693c0.164,0.539,0.283,1.157,0.356,1.856l0.058,0.002c0.099-0.577,0.278-1.195,0.543-1.854l6.448-16.259
			L412.136,178.883z"/>
		<path fill="#FFCC00" stroke="#A07724" stroke-miterlimit="10" d="M419.965,200.648l0.848-2.746
			c0.229,0.375,0.528,0.74,0.898,1.099c0.372,0.356,0.776,0.688,1.215,0.989c0.438,0.303,0.89,0.57,1.354,0.806
			c0.464,0.233,0.903,0.416,1.319,0.544c1.435,0.442,2.584,0.507,3.457,0.194c0.872-0.313,1.462-0.97,1.771-1.969
			c0.166-0.536,0.19-1.04,0.079-1.51c-0.112-0.47-0.327-0.934-0.644-1.39c-0.313-0.457-0.71-0.923-1.185-1.399
			c-0.478-0.476-0.991-0.981-1.545-1.517c-0.585-0.565-1.123-1.122-1.612-1.667c-0.488-0.546-0.889-1.104-1.199-1.677
			c-0.31-0.57-0.507-1.172-0.591-1.801c-0.085-0.628-0.012-1.313,0.216-2.052c0.279-0.906,0.723-1.633,1.326-2.18
			c0.604-0.548,1.298-0.939,2.08-1.173c0.779-0.236,1.617-0.331,2.511-0.289c0.894,0.043,1.771,0.196,2.63,0.463
			c1.96,0.604,3.314,1.28,4.066,2.029l-0.81,2.621c-0.923-1.175-2.305-2.047-4.145-2.615c-0.509-0.157-1.033-0.262-1.575-0.312
			c-0.542-0.051-1.048-0.018-1.52,0.102c-0.473,0.117-0.892,0.326-1.258,0.629c-0.367,0.302-0.634,0.726-0.805,1.271
			c-0.155,0.508-0.195,0.978-0.121,1.405c0.075,0.429,0.251,0.852,0.527,1.271c0.275,0.419,0.634,0.854,1.078,1.307
			c0.442,0.449,0.958,0.954,1.546,1.51c0.604,0.572,1.164,1.148,1.683,1.734c0.519,0.585,0.944,1.188,1.279,1.808
			c0.336,0.62,0.556,1.26,0.66,1.921c0.104,0.66,0.044,1.36-0.184,2.099c-0.305,0.98-0.751,1.751-1.346,2.313
			c-0.594,0.562-1.282,0.954-2.064,1.178c-0.782,0.225-1.628,0.299-2.538,0.228c-0.91-0.074-1.835-0.256-2.779-0.547
			c-0.313-0.098-0.694-0.242-1.14-0.436c-0.447-0.194-0.896-0.414-1.348-0.659c-0.449-0.246-0.868-0.507-1.255-0.783
			C420.465,201.169,420.169,200.903,419.965,200.648z"/>
		<path fill="#FFCC00" stroke="#A07724" stroke-miterlimit="10" d="M466.273,229.108l-2.182-2.044l3.528-19.43
			c0.087-0.489,0.222-0.958,0.406-1.41l-0.064-0.059c-0.246,0.377-0.871,1.1-1.869,2.166l-10.282,10.972l-1.779-1.667l14.232-15.188
			l2.309,2.163l-3.563,19.041c-0.146,0.792-0.259,1.322-0.339,1.593l0.043,0.04c0.34-0.505,1.003-1.282,1.988-2.333l10.024-10.697
			l1.778,1.667L466.273,229.108z"/>
		<path fill="#FFCC00" stroke="#A07724" stroke-miterlimit="10" d="M481.322,252.48l-1.333-2.348l3.981-4.799l-4.356-7.674
			l-6.1,1.076l-1.341-2.359l22.041-3.338l1.247,2.195L481.322,252.48z M485.484,243.557l6.099-7.219
			c0.199-0.236,0.551-0.559,1.054-0.965l-0.028-0.052c-0.563,0.208-1.021,0.34-1.376,0.398l-9.311,1.565L485.484,243.557z"/>
		<path fill="#FFCC00" stroke="#A07724" stroke-miterlimit="10" d="M484.931,260.348l2.787-0.701c-0.202,0.39-0.357,0.836-0.47,1.34
			c-0.113,0.5-0.188,1.019-0.216,1.55c-0.031,0.53-0.025,1.059,0.015,1.573c0.042,0.521,0.115,0.99,0.222,1.414
			c0.367,1.453,0.91,2.472,1.631,3.056c0.721,0.58,1.589,0.743,2.601,0.487c0.544-0.137,0.989-0.377,1.331-0.717
			c0.344-0.342,0.628-0.766,0.854-1.271c0.227-0.507,0.421-1.086,0.579-1.74c0.159-0.654,0.324-1.357,0.494-2.109
			c0.179-0.791,0.376-1.539,0.587-2.242c0.212-0.7,0.481-1.334,0.81-1.895c0.328-0.563,0.736-1.043,1.23-1.441
			c0.493-0.397,1.115-0.692,1.866-0.883c0.919-0.229,1.771-0.229,2.552,0c0.782,0.232,1.478,0.623,2.083,1.168
			s1.123,1.211,1.551,1.996c0.429,0.785,0.752,1.615,0.972,2.486c0.501,1.988,0.629,3.498,0.379,4.531l-2.659,0.67
			c0.523-1.4,0.552-3.033,0.082-4.9c-0.13-0.516-0.313-1.02-0.552-1.508c-0.239-0.49-0.531-0.904-0.877-1.244
			c-0.347-0.344-0.742-0.594-1.191-0.75c-0.448-0.154-0.949-0.164-1.502-0.023c-0.518,0.13-0.938,0.339-1.265,0.625
			c-0.328,0.287-0.6,0.656-0.813,1.109c-0.216,0.455-0.4,0.986-0.556,1.6c-0.156,0.613-0.317,1.314-0.486,2.105
			c-0.175,0.813-0.378,1.594-0.607,2.34c-0.23,0.748-0.524,1.424-0.881,2.033c-0.354,0.607-0.786,1.129-1.297,1.561
			c-0.51,0.435-1.141,0.744-1.891,0.935c-0.995,0.25-1.885,0.27-2.674,0.053c-0.787-0.215-1.481-0.6-2.079-1.152
			c-0.599-0.553-1.104-1.233-1.513-2.051c-0.409-0.813-0.735-1.699-0.979-2.656c-0.079-0.319-0.152-0.721-0.22-1.202
			c-0.066-0.482-0.112-0.979-0.138-1.492c-0.023-0.515-0.019-1.006,0.018-1.48C484.745,261.047,484.819,260.656,484.931,260.348z"/>
		<path fill="#FFCC00" stroke="#A07724" stroke-miterlimit="10" d="M489.048,297.463c-0.788-1.551-1.162-3.473-1.126-5.767
			c0.048-2.961,1.039-5.315,2.977-7.063c1.934-1.75,4.448-2.6,7.545-2.549c3.326,0.055,6.001,1.098,8.02,3.135
			c2.021,2.037,3.004,4.592,2.953,7.668c-0.031,1.975-0.345,3.605-0.936,4.893l-2.599-0.043c0.856-1.477,1.299-3.112,1.329-4.913
			c0.038-2.39-0.729-4.341-2.301-5.851c-1.572-1.512-3.694-2.289-6.364-2.332c-2.534-0.043-4.564,0.619-6.093,1.982
			c-1.527,1.364-2.309,3.174-2.346,5.428c-0.033,2.092,0.401,3.908,1.307,5.451L489.048,297.463z"/>
		<path fill="#FFCC00" stroke="#A07724" stroke-miterlimit="10" d="M505.28,317.418l-2.032-0.492l0.479-1.976l-16.166-3.914
			l-0.478,1.976l-2.033-0.492l1.532-6.32l2.031,0.492l-0.479,1.975l16.167,3.916l0.479-1.975l2.03,0.492L505.28,317.418z"/>
		<path fill="#FFCC00" stroke="#A07724" stroke-miterlimit="10" d="M493.313,341.258l2.593-5.422l-16.788-8.027l1.052-2.199
			l16.788,8.027l2.585-5.408l1.99,0.951l-6.229,13.029L493.313,341.258z"/>
		<path fill="#FFCC00" stroke="#A07724" stroke-miterlimit="10" d="M476.86,366.613l-10.783-19.397l1.748-2.039l20.712,7.817
			l-1.768,2.062l-16.277-6.367c-0.523-0.209-1.081-0.502-1.673-0.881l-0.038,0.043c0.391,0.438,0.761,0.965,1.108,1.584
			l8.681,15.186L476.86,366.613z"/>
		<path fill="#FFCC00" stroke="#A07724" stroke-miterlimit="10" d="M441.346,367.309l2.415-1.611l6.137,2.92
			c0.564,0.273,1.079,0.486,1.543,0.64c0.46,0.149,0.891,0.239,1.283,0.266c0.397,0.027,0.777-0.014,1.143-0.123
			c0.362-0.106,0.732-0.289,1.111-0.541l1.666-1.11l-4.912-7.365l2.026-1.354l11.552,17.314l-5.167,3.446
			c-0.758,0.505-1.519,0.875-2.283,1.113c-0.77,0.238-1.517,0.32-2.242,0.248c-0.729-0.072-1.418-0.307-2.068-0.705
			c-0.647-0.397-1.23-0.983-1.747-1.758c-0.402-0.602-0.682-1.217-0.837-1.84c-0.153-0.623-0.195-1.246-0.124-1.861
			c0.07-0.617,0.249-1.223,0.534-1.813s0.672-1.16,1.156-1.705l-0.032-0.049c-0.375,0.063-0.725,0.086-1.048,0.063
			c-0.324-0.022-0.657-0.082-1-0.178c-0.345-0.099-0.706-0.226-1.086-0.385c-0.38-0.158-0.813-0.353-1.298-0.572L441.346,367.309z
			 M462.057,375.859l-4.188-6.279l-2.753,1.837c-0.507,0.34-0.926,0.729-1.254,1.17c-0.328,0.438-0.555,0.905-0.68,1.401
			c-0.122,0.494-0.134,1.011-0.034,1.541c0.101,0.533,0.32,1.058,0.665,1.572c0.616,0.926,1.399,1.449,2.346,1.568
			c0.946,0.116,1.986-0.201,3.121-0.959L462.057,375.859z"/>
	</g>
	<circle fill="#DBDBDB" stroke="#A07724" stroke-miterlimit="10" cx="456.34" cy="127.82" r="3.133"/>
	<path fill="#FFCC00" stroke="#A07724" stroke-miterlimit="10" d="M465.421,240.327l10.211-12.78H453.9
		c-14.475-13.01-33.615-20.929-54.609-20.929c-20.993,0-40.134,7.919-54.608,20.929h-21.434l10.054,12.586
		c-9.89,13.514-15.733,30.176-15.733,48.206c0,45.135,36.587,81.721,81.721,81.721s81.721-36.586,81.721-81.721
		C481.011,270.396,475.226,253.807,465.421,240.327z M399.29,211.52c17.688,0,33.975,5.981,46.958,16.026H399.44l0,0h-47.108
		C365.316,217.501,381.604,211.52,399.29,211.52z M436.458,355.575c-10.008,5.545-21.383,8.922-33.495,9.492
		C407.875,360.848,418.297,354.645,436.458,355.575z M395.93,365.077c-12.219-0.524-23.697-3.903-33.787-9.489
		C380.496,354.575,390.999,360.838,395.93,365.077z M322.472,288.338c0-16.467,5.185-31.723,14.007-44.229l7.911,9.902v88.051
		C330.833,328.209,322.472,309.252,322.472,288.338z M454.489,341.756v-87.744l7.751-9.703c8.735,12.469,13.867,27.65,13.867,44.029
		C476.107,309.098,467.87,327.932,454.489,341.756z"/>
	<path fill="#0000CC" stroke="#A07724" stroke-miterlimit="10" d="M399.44,232.285L399.44,232.285h-65.97l16.306,21.727l0.12,85.021
		c1.794,11.332,15.796,10.604,15.796,10.604c24.766-1.461,33.743,12.055,33.749,12.063l0,0l0,0l0,0l0,0
		c0.005-0.008,8.983-13.522,33.749-12.063c0,0,14.001,0.729,15.797-10.604l0.118-85.021l16.007-21.727H399.44L399.44,232.285z"/>
	<g>
		<path fill="#FFCC00" stroke="#A07724" stroke-miterlimit="10" d="M388.523,295.711c0,0-7.563-7.181-6.436-18.103
			c0,0,2.091-5.233-16.897-8.227c0,0-13.517-1.131-1.448,6.166c0,0-8.207,2.061-0.321,4.455c0,0-2.576,3.889,4.344,6.881
			c0,0-8.046,2.842,0.644,7.182c0,0-2.439,5.533,5.218,5.385c0,0-7.793,8.826,8.944,5.086
			C382.57,304.536,389.971,303.639,388.523,295.711z"/>
		<path fill="#FFCC00" stroke="#A07724" stroke-miterlimit="10" d="M393.03,267.639c0,0,5.793-7.979,12.66-2.791
			c0,0,4.937,3.389,0,10.371c0,0-14.065,15.756,2.192,17.352c0,0,7.892,2.195,8.75-12.963c0,0,0.644-4.588,12.445-6.385
			c0,0,3.647-0.397,4.936-2.99c0,0,1.716-3.59,4.506-1.795c0,0,3.646,0.353-3.648,9.451c0,0,6.008,1.521-4.29,8.898
			c0,0,13.73-0.998-3.862,7.577c0,0,5.577,4.189-2.575,7.979c0,0,12.444,1.194-13.09,9.973c0,0-1.931,8.576-7.938,16.156
			c0,0,2.79,7.777,1.072,10.77h-26.391c0,0-0.859-8.576,8.796-11.17c0,0-14.161-14.16-1.716-31.313c0,0,11.364-15.523,10.299-22.938
			C395.176,273.822,391.528,271.029,393.03,267.639z"/>
		<path fill="#FFCC00" stroke="#A07724" stroke-miterlimit="10" d="M394.209,266.309c0,0-6.811-2.608-5.523,4.721
			c0,0,0.965,1.195,3.7,0c0,0,1.449,1.646,0,4.339c0,0,3.541,1.194,5.15-2.546C397.536,272.822,397.802,268.469,394.209,266.309z"/>
		<path fill="#FFCC00" stroke="#A07724" stroke-miterlimit="10" d="M387.024,335.352c0,0,4.936-7.629,4.787-16.305
			c0,0,4.339-0.898,8.526,17.352c0,0,2.993,6.266,10.621-10.619c0,0,1.944-7.182,11.07-4.787c0,0,2.99,3.74-5.687,8.525
			c0,0-5.234,5.535,0.45,5.686c0,0,6.281,0.082,8.077-6.916c0,0-0.897-17.317,4.638-3.704c0,0,8.377-15.855,5.685,2.395
			c0,0-2.843,13.014-14.811,14.809h-49.364c0,0-15.708-0.299-11.669-22.737c0,0,3.142-15.408,4.039,4.787
			c0,0,0.748,2.69,1.646,1.047c0,0,2.094-12.117,4.638-10.172c0,0,2.393,2.094-0.898,11.069c0,0-2.99,6.73,6.733,8.377
			c0,0-4.354-7.178-0.749-17.95C374.758,316.204,376.702,336.698,387.024,335.352z"/>
		<path fill="#FFCC00" stroke="#A07724" stroke-miterlimit="10" d="M398.144,267.338c0,0,0.897,2.192,3.69,0.6
			C401.834,267.938,400.337,264.744,398.144,267.338z"/>
		<path fill="none" stroke="#A07724" stroke-miterlimit="10" d="M363.742,275.549c0,0,8.127,2.266,14.034,1.766"/>
		<path fill="none" stroke="#A07724" stroke-miterlimit="10" d="M367.765,286.885c0,0,6.797,0.895,10.011,0"/>
		<path fill="none" stroke="#A07724" stroke-miterlimit="10" d="M363.42,280.004c0,0,9.746,2.197,14.355,0.899"/>
		<path fill="none" stroke="#A07724" stroke-miterlimit="10" d="M368.409,294.066c0,0,5.701,0.9,10.587-0.694"/>
		<path fill="none" stroke="#A07724" stroke-miterlimit="10" d="M373.626,299.45c0,0,4.67-0.396,7.364-1.893"/>
		<path fill="none" stroke="#A07724" stroke-miterlimit="10" d="M434.87,277.889c0,0-7.207,5.312-13.59,5.01"/>
		<path fill="none" stroke="#A07724" stroke-miterlimit="10" d="M430.58,286.787c0,0-5.71,3.791-12.592,2.991"/>
		<path fill="none" stroke="#A07724" stroke-miterlimit="10" d="M426.718,294.365c0,0-7.932,3.193-13.813,1.3"/>
		<path fill="none" stroke="#A07724" stroke-miterlimit="10" d="M424.143,302.344c0,0-6.254,1.498-11.238,1"/>
		<path fill="none" stroke="#A07724" stroke-miterlimit="10" d="M411.053,312.316c0,0-4.433-0.396-2.039-10.67"/>
		<path fill="none" stroke="#A07724" stroke-miterlimit="10" d="M399.44,295.863c0,0-10.224,4.488-6.408,12.066"/>
		<path fill="none" stroke="#A07724" stroke-miterlimit="10" d="M401.834,299.45c0,0-4.089,5.388-1.197,9.078"/>
		<path fill="none" stroke="#A07724" stroke-miterlimit="10" d="M388.523,311.922c0,0-2.248,5.284,0.843,7.08"/>
		<path fill="none" stroke="#A07724" stroke-miterlimit="10" d="M397.206,311.922c0,0,0.539,4.784,4.628,4.586"/>
		<path fill="none" stroke="#A07724" stroke-miterlimit="10" d="M388.551,291.238c0,0-0.18,4.229,7.798,2.134"/>
		<path fill="none" stroke="#A07724" stroke-miterlimit="10" d="M386.076,299.95c0,0-2.792,5.386,0.998,7.031"/>
		<polygon fill="#FFCC00" stroke="#A07724" stroke-miterlimit="10" points="399.602,236.936 401.307,241.836 406.492,241.941 
			402.357,245.076 403.859,250.041 399.602,247.078 395.343,250.041 396.845,245.076 392.712,241.941 397.898,241.836 		"/>
		<polygon fill="#FFCC00" stroke="#A07724" stroke-miterlimit="10" points="378.418,240.24 381.695,244.264 386.604,242.588 
			383.792,246.947 386.902,251.1 381.887,249.771 378.899,254.012 378.613,248.834 373.655,247.301 378.494,245.43 		"/>
		<polygon fill="#FFCC00" stroke="#A07724" stroke-miterlimit="10" points="359.84,250.637 364.295,253.295 368.335,250.041 
			367.184,255.1 371.526,257.939 366.359,258.404 365.002,263.412 362.962,258.643 357.78,258.898 361.686,255.484 		"/>
		<polygon fill="#FFCC00" stroke="#A07724" stroke-miterlimit="10" points="420.641,240.24 417.363,244.264 412.453,242.588 
			415.266,246.947 412.154,251.1 417.17,249.771 420.159,254.012 420.445,248.834 425.402,247.301 420.564,245.43 		"/>
		<polygon fill="#FFCC00" stroke="#A07724" stroke-miterlimit="10" points="439.218,250.637 434.762,253.295 430.722,250.041 
			431.874,255.1 427.531,257.939 432.698,258.404 434.057,263.412 436.096,258.643 441.278,258.898 437.373,255.484 		"/>
	</g>
</g>
</svg>
