<svg xmlns="http://www.w3.org/2000/svg" xmlns:xlink="http://www.w3.org/1999/xlink" version="1" width="1100" height="550"><title>Federation of Malaya Flag</title><path fill="#fff" d="M0 0h1100v550H0z"/><path id="a" fill="#cc0001" d="M0 500h1100v50H0z"/><use xlink:href="#a" transform="translate(0 -100)" fill="#cc0001"/><use xlink:href="#a" transform="translate(0 -200)" fill="#cc0001"/><use xlink:href="#a" transform="translate(0 -300)" fill="#cc0001"/><use xlink:href="#a" transform="translate(0 -400)" fill="#cc0001"/><use xlink:href="#a" transform="translate(0 -500)" fill="#cc0001"/><path fill="#010066" d="M0 0h550v350H0z"/><path fill="#fc0" d="M314.043 206.28l-54.15 8.958 42.232-35.055-50.396-21.738 54.478-6.66-30.644-45.533 49.43 23.853-1.16-54.872 28.688 46.79 28.69-46.79-1.164 54.872 49.43-23.85-30.643 45.53 54.48 6.66-50.397 21.738 42.232 35.055-54.15-8.96 16.575 52.322-40.71-36.81-14.343 52.978-14.345-52.98L297.47 258.6z"/><path d="M137.003 175.11c-.704-35.63 15.493-72.055 45.44-92.264 27.337-19.11 62.362-24.368 94.92-19.79-37.138-19.22-83.946-17.522-119.394 4.753-41.928 24.937-67.54 75.505-60.078 124.107 7.223 55.392 55.328 102.177 110.94 107.696 23.45 2.618 47.48-2.153 68.533-12.67-39.75 5.872-84-4.1-111.873-34.526-19.388-20.668-28.7-49.25-28.49-77.307z" fill="#fc0"/></svg>