<svg height="300" width="600" xmlns="http://www.w3.org/2000/svg"><path d="m0 0h600v300h-600z"/><path d="m0 100h600v200h-600z" fill="#fff"/><path d="m0 200h600v100h-600z" fill="#007a3d"/><path d="m0 300 150-100v-100l-150-100z" fill="#ce1126"/><g fill="#fff"><path d="m104.32048-40.930347-9.598199-9.543561-9.624807 9.516725 1.477077-13.454487-13.441443-1.591396 11.440083-7.233909-7.136399-11.501163 12.788474 4.433948 4.542498-12.75032 4.506883 12.762954 12.800803-4.398226-7.16848 11.481194 11.41984 7.265822-13.44584 1.553861z" transform="translate(-23.13311 160.9303)"/><path d="m104.32048-40.930347-9.598199-9.543561-9.624807 9.516725 1.477077-13.454487-13.441443-1.591396 11.440083-7.233909-7.136399-11.501163 12.788474 4.433948 4.542498-12.75032 4.506883 12.762954 12.800803-4.398226-7.16848 11.481194 11.41984 7.265822-13.44584 1.553861z" transform="translate(-23.13311 260.9303)"/></g></svg>