<?xml version="1.0" encoding="UTF-8" standalone="no"?>
<!-- Created with Inkscape (http://www.inkscape.org/) -->
<svg
   xmlns:dc="http://purl.org/dc/elements/1.1/"
   xmlns:cc="http://web.resource.org/cc/"
   xmlns:rdf="http://www.w3.org/1999/02/22-rdf-syntax-ns#"
   xmlns:svg="http://www.w3.org/2000/svg"
   xmlns="http://www.w3.org/2000/svg"
   xmlns:sodipodi="http://sodipodi.sourceforge.net/DTD/sodipodi-0.dtd"
   xmlns:inkscape="http://www.inkscape.org/namespaces/inkscape"
   width="415.33499"
   height="240"
   id="svg4510"
   sodipodi:version="0.32"
   inkscape:version="0.45.1"
   version="1.0"
   sodipodi:docbase="C:\Documents and Settings\fsc\Bureau"
   sodipodi:docname="Flag_of_Republic of Ararat.svg"
   inkscape:output_extension="org.inkscape.output.svg.inkscape">
  <defs
     id="defs4512" />
  <sodipodi:namedview
     id="base"
     pagecolor="#ffffff"
     bordercolor="#666666"
     borderopacity="1.0"
     inkscape:pageopacity="0.0"
     inkscape:pageshadow="2"
     inkscape:zoom="0.77708335"
     inkscape:cx="207.5553"
     inkscape:cy="144.90428"
     inkscape:document-units="px"
     inkscape:current-layer="layer1"
     inkscape:window-width="756"
     inkscape:window-height="540"
     inkscape:window-x="363"
     inkscape:window-y="148"
     width="415.335px"
     height="240px" />
  <metadata
     id="metadata4515">
    <rdf:RDF>
      <cc:Work
         rdf:about="">
        <dc:format>image/svg+xml</dc:format>
        <dc:type
           rdf:resource="http://purl.org/dc/dcmitype/StillImage" />
      </cc:Work>
    </rdf:RDF>
  </metadata>
  <g
     inkscape:label="Layer 1"
     inkscape:groupmode="layer"
     id="layer1">
    <g
       id="g5134">
      <g
         transform="matrix(-1.1537087,0,0,-1,415.33512,240)"
         id="g2161">
        <rect
           style="opacity:1;fill:#ffffff;fill-opacity:1;fill-rule:evenodd;stroke:none;stroke-width:1;stroke-linecap:square;stroke-linejoin:bevel;stroke-miterlimit:4;stroke-dasharray:none;stroke-dashoffset:0.99999998;stroke-opacity:1"
           id="rect4518"
           width="360"
           height="240"
           x="0"
           y="-3.8146973e-006" />
        <rect
           style="opacity:1;fill:#ff0000;fill-opacity:1;fill-rule:evenodd;stroke:none;stroke-width:1;stroke-linecap:square;stroke-linejoin:bevel;stroke-miterlimit:4;stroke-dasharray:none;stroke-dashoffset:0.99999998;stroke-opacity:1"
           id="rect4520"
           width="360"
           height="80"
           x="0"
           y="2.8421709e-014" />
        <rect
           y="160"
           x="0"
           height="80"
           width="360"
           id="rect4522"
           style="opacity:1;fill:#298b00;fill-opacity:1;fill-rule:evenodd;stroke:none;stroke-width:1;stroke-linecap:square;stroke-linejoin:bevel;stroke-miterlimit:4;stroke-dasharray:none;stroke-dashoffset:0.99999998;stroke-opacity:1" />
      </g>
      <path
         transform="matrix(0.5135896,0,0,0.6522962,136.6187,40.255483)"
         d="M 250.2949 122.25201 A 111.9571 88.150131 0 1 1  26.380699,122.25201 A 111.9571 88.150131 0 1 1  250.2949 122.25201 z"
         sodipodi:ry="88.150131"
         sodipodi:rx="111.9571"
         sodipodi:cy="122.25201"
         sodipodi:cx="138.3378"
         id="path2166"
         style="fill:#ffff00;fill-opacity:1;fill-rule:nonzero;stroke:none;stroke-width:4.68200016;stroke-linecap:butt;stroke-linejoin:round;stroke-miterlimit:4;stroke-dasharray:none;stroke-dashoffset:0;stroke-opacity:1"
         sodipodi:type="arc" />
      <g
         style="fill:#ffffff;fill-opacity:1;stroke:#00affe;stroke-width:1.86810112;stroke-miterlimit:4;stroke-dasharray:none;stroke-opacity:1"
         transform="matrix(1.3093488,0.1205704,-0.1145532,1.3781251,-47.343973,-72.880189)"
         id="g2203">
        <path
           style="fill:#ffffff;fill-opacity:1;fill-rule:evenodd;stroke:#00affe;stroke-width:1.86810112;stroke-linecap:butt;stroke-linejoin:miter;stroke-miterlimit:4;stroke-dasharray:none;stroke-opacity:1"
           d="M 165.98975,131.7576 C 167.02646,130.43068 170.54227,129.08909 172.64623,127.82788 C 174.39883,126.7773 175.85603,124.31878 177.48731,122.68902 C 178.83296,121.34462 179.6323,119.95494 181.42068,119.06159 C 183.18151,118.18199 183.68099,117.32791 185.05149,116.6433 C 186.4626,115.9384 186.45894,115.23376 188.07716,114.82958 C 190.13345,114.316 190.78674,115.42065 192.01053,116.6433 C 192.6701,117.30226 193.02733,119.49757 193.2208,120.27073 C 193.53654,121.53254 194.11183,122.90803 194.43107,124.50274 C 194.70034,125.84785 197.4522,124.95842 198.36444,124.50274 C 201.55827,122.9073 204.166,119.57827 205.92862,116.6433 C 207.58779,113.88059 209.27742,110.27476 211.37483,108.1793 C 212.9815,106.57412 214.52052,105.03653 215.91334,103.64501 C 216.90706,102.65222 217.56455,102.25016 219.24157,101.83129 C 220.96337,101.40124 222.47798,102.08771 223.78008,102.73815 C 225.58999,103.64226 226.88354,105.1593 228.01602,106.66787 C 229.25663,108.32049 230.22959,109.41502 231.34426,110.89987 C 232.44834,112.37061 234.71019,113.35581 236.18534,114.82958 C 237.62725,116.27016 238.86606,117.39294 240.11871,119.06159 C 241.08469,120.34836 241.90846,121.45424 243.14438,122.68902 C 244.17185,123.71553 244.41245,125.18432 245.26235,126.31645 C 246.35238,127.76846 246.37651,127.95235 246.77518,129.94388 C 246.81941,130.16481 246.9769,130.34693 247.07775,130.54846"
           id="path2175" />
        <path
           style="fill:#ffffff;fill-opacity:1;fill-rule:evenodd;stroke:#00affe;stroke-width:1.86810112;stroke-linecap:butt;stroke-linejoin:miter;stroke-miterlimit:4;stroke-dasharray:none;stroke-opacity:1"
           d="M 194.1285,124.50274 C 194.23535,125.03649 191.46674,126.73924 190.49769,127.22331 C 189.43205,127.75564 187.21946,127.58867 186.26175,127.82788 C 184.71567,128.21404 184.31451,128.08753 182.93352,128.43246"
           id="path2177" />
        <path
           style="fill:#ffffff;fill-opacity:1;fill-rule:evenodd;stroke:#00affe;stroke-width:1.86810112;stroke-linecap:butt;stroke-linejoin:miter;stroke-miterlimit:4;stroke-dasharray:none;stroke-opacity:1"
           d="M 180.81555,122.9913 C 178.59726,123.54536 177.89388,126.51482 176.27704,128.13017"
           id="path2179" />
        <path
           style="fill:#ffffff;fill-opacity:1;fill-rule:evenodd;stroke:#00affe;stroke-width:1.86810112;stroke-linecap:butt;stroke-linejoin:miter;stroke-miterlimit:4;stroke-dasharray:none;stroke-opacity:1"
           d="M 184.14378,122.68902 C 183.40712,122.87302 181.29847,126.37849 180.21042,127.82788"
           id="path2181" />
        <path
           style="fill:#ffffff;fill-opacity:1;fill-rule:evenodd;stroke:#00affe;stroke-width:1.86810112;stroke-linecap:butt;stroke-linejoin:miter;stroke-miterlimit:4;stroke-dasharray:none;stroke-opacity:1"
           d="M 186.26175,122.08445 C 186.14617,122.11332 186.26175,127.36227 186.26175,128.73474"
           id="path2183" />
        <path
           style="fill:#ffffff;fill-opacity:1;fill-rule:evenodd;stroke:#00affe;stroke-width:1.86810112;stroke-linecap:butt;stroke-linejoin:miter;stroke-miterlimit:4;stroke-dasharray:none;stroke-opacity:1"
           d="M 188.37972,122.08445 C 188.37784,122.08491 191.59173,125.59576 192.3131,126.31645"
           id="path2185" />
        <path
           style="fill:#ffffff;fill-opacity:1;fill-rule:evenodd;stroke:#00affe;stroke-width:1.86810112;stroke-linecap:butt;stroke-linejoin:miter;stroke-miterlimit:4;stroke-dasharray:none;stroke-opacity:1"
           d="M 210.76969,112.4113 C 210.44608,112.49213 208.58116,117.64415 207.74402,118.7593"
           id="path2187" />
        <path
           style="fill:#ffffff;fill-opacity:1;fill-rule:evenodd;stroke:#00affe;stroke-width:1.86810112;stroke-linecap:butt;stroke-linejoin:miter;stroke-miterlimit:4;stroke-dasharray:none;stroke-opacity:1"
           d="M 213.4928,113.31815 C 212.71645,114.35233 211.99705,116.90292 211.37483,118.45701 C 210.8609,118.47027 211.14661,119.14103 211.07226,119.36387"
           id="path2189" />
        <path
           style="fill:#ffffff;fill-opacity:1;fill-rule:evenodd;stroke:#00affe;stroke-width:1.86810112;stroke-linecap:butt;stroke-linejoin:miter;stroke-miterlimit:4;stroke-dasharray:none;stroke-opacity:1"
           d="M 216.51847,113.31815 C 216.17215,114.18316 215.61076,116.9371 215.61076,118.7593 C 215.61076,119.36387 215.61076,119.96844 215.61076,120.57301"
           id="path2191" />
        <path
           style="fill:#ffffff;fill-opacity:1;fill-rule:evenodd;stroke:#00affe;stroke-width:1.86810112;stroke-linecap:butt;stroke-linejoin:miter;stroke-miterlimit:4;stroke-dasharray:none;stroke-opacity:1"
           d="M 219.84671,112.4113 C 219.84671,113.95959 222.12175,116.96873 222.56982,118.7593"
           id="path2193" />
        <path
           style="fill:#ffffff;fill-opacity:1;fill-rule:evenodd;stroke:#00affe;stroke-width:1.86810112;stroke-linecap:butt;stroke-linejoin:miter;stroke-miterlimit:4;stroke-dasharray:none;stroke-opacity:1"
           d="M 223.47752,112.10901 C 223.98184,114.12443 228.43859,118.27462 230.43656,120.27073 C 230.53742,120.3715 230.63827,120.47226 230.73913,120.57301"
           id="path2195" />
        <path
           style="fill:#ffffff;fill-opacity:1;fill-rule:evenodd;stroke:#00affe;stroke-width:1.86810112;stroke-linecap:butt;stroke-linejoin:miter;stroke-miterlimit:4;stroke-dasharray:none;stroke-opacity:1"
           d="M 228.31859,112.4113 C 229.69788,113.78931 233.0334,117.75784 235.5802,119.66616 C 235.66089,119.72662 235.37849,119.66616 235.27763,119.66616"
           id="path2197" />
        <path
           style="fill:#ffffff;fill-opacity:1;fill-rule:evenodd;stroke:#00affe;stroke-width:1.86810112;stroke-linecap:butt;stroke-linejoin:miter;stroke-miterlimit:4;stroke-dasharray:none;stroke-opacity:1"
           d="M 242.84182,123.29359 C 243.90305,124.08878 239.84645,121.75188 238.90844,122.68902 C 237.48836,124.10778 237.77997,125.10731 235.27763,125.10731 C 232.70583,125.10731 234.41501,122.6665 231.34426,124.20045 C 230.94084,124.40197 230.53742,124.6035 230.13399,124.80502 C 228.41078,125.66583 227.9623,126.31645 225.89805,126.31645 C 223.75728,126.31645 224.39244,124.5765 222.26724,125.10731 C 221.25302,125.36063 219.97913,127.94595 219.24157,128.13017 C 219.16203,128.15003 216.45911,126.13566 216.21591,126.01417 C 215.1225,125.46796 214.8032,128.78476 212.88766,127.82788 C 211.0051,126.88747 210.48951,126.60755 209.25686,127.22331 C 207.19216,128.2547 206.26071,130.54108 203.81065,131.15303 C 203.05071,131.34284 201.41332,129.8741 200.48241,129.6416 C 197.90506,128.99785 199.17339,132.26351 196.54904,129.6416 C 195.53096,128.62446 192.53106,131.44314 191.70797,132.05988 C 190.51386,132.95462 188.32629,130.65956 187.77459,130.24617 C 186.25867,129.11028 184.48906,132.29318 182.63095,132.66446 C 181.37567,132.91527 180.4322,130.83056 179.30271,130.54846 C 177.29601,130.04724 176.69621,132.17638 175.06677,130.54846 C 173.875,129.35779 173.30521,130.23272 172.0411,130.54846 C 171.47776,130.68915 170.43244,128.94129 170.22569,128.73474"
           id="path2199" />
        <path
           style="fill:#ffffff;fill-opacity:1;fill-rule:evenodd;stroke:#00affe;stroke-width:1.86810112;stroke-linecap:butt;stroke-linejoin:miter;stroke-miterlimit:4;stroke-dasharray:none;stroke-opacity:1"
           d="M 165.98975,132.05988 C 164.74579,132.37059 168.60643,134.47817 168.71286,134.47817 C 171.05371,134.47817 170.18,135.2567 172.34366,134.17589 C 172.97617,133.85993 173.702,135.46221 175.67191,134.47817 C 177.09822,133.76567 178.05822,136.81233 179.60527,137.19874 C 181.84745,137.75876 181.94649,134.09662 184.14378,136.29189 C 185.85299,137.99951 186.8815,136.58688 188.68229,135.68731 C 190.72964,134.66458 190.80625,138.09962 192.91823,135.9896 C 194.41278,134.49644 195.51395,134.26339 197.15417,135.08274 C 199.50895,136.25903 199.67547,137.65224 202.29782,135.68731 C 204.30015,134.18695 205.49335,134.15202 207.13889,135.38503 C 209.0474,136.81508 208.90543,136.3407 210.76969,134.47817 C 212.37431,132.87504 214.2006,135.08274 215.91334,135.08274 C 217.3327,135.08274 218.66209,132.96033 219.84671,132.66446 C 221.73883,132.19186 221.79867,134.03946 223.78008,132.05988 C 225.38007,130.46137 226.15883,132.36217 228.62115,132.36217 C 230.38309,132.36217 230.07087,130.07925 231.9494,130.54846 C 234.24487,131.12178 233.92296,133.19002 236.18534,132.05988 C 237.91865,131.19403 236.86616,128.50807 239.21101,130.85074 C 241.03414,132.67218 242.75137,131.57579 243.74952,130.24617 C 244.19883,129.64763 245.76307,129.94388 246.47262,129.94388"
           id="path2201" />
      </g>
    </g>
  </g>
</svg>
