<?xml version="1.0" encoding="UTF-8" standalone="no"?>
<!-- Created with Inkscape (http://www.inkscape.org/) -->

<svg
   xmlns:dc="http://purl.org/dc/elements/1.1/"
   xmlns:cc="http://creativecommons.org/ns#"
   xmlns:rdf="http://www.w3.org/1999/02/22-rdf-syntax-ns#"
   xmlns:svg="http://www.w3.org/2000/svg"
   xmlns="http://www.w3.org/2000/svg"
   xmlns:sodipodi="http://sodipodi.sourceforge.net/DTD/sodipodi-0.dtd"
   xmlns:inkscape="http://www.inkscape.org/namespaces/inkscape"
   width="501.09875"
   height="284.09875"
   id="svg2"
   version="1.1"
   inkscape:version="0.48.1 "
   sodipodi:docname="新規ドキュメント 1">
  <defs
     id="defs4" />
  <sodipodi:namedview
     id="base"
     pagecolor="#ffffff"
     bordercolor="#666666"
     borderopacity="1.0"
     inkscape:pageopacity="0.0"
     inkscape:pageshadow="2"
     inkscape:zoom="1.979899"
     inkscape:cx="279.49841"
     inkscape:cy="104.11588"
     inkscape:document-units="px"
     inkscape:current-layer="layer1"
     showgrid="false"
     fit-margin-top="0"
     fit-margin-left="0"
     fit-margin-right="0"
     fit-margin-bottom="0"
     inkscape:window-width="1920"
     inkscape:window-height="1018"
     inkscape:window-x="-8"
     inkscape:window-y="-8"
     inkscape:window-maximized="1" />
  <metadata
     id="metadata7">
    <rdf:RDF>
      <cc:Work
         rdf:about="">
        <dc:format>image/svg+xml</dc:format>
        <dc:type
           rdf:resource="http://purl.org/dc/dcmitype/StillImage" />
        <dc:title></dc:title>
      </cc:Work>
    </rdf:RDF>
  </metadata>
  <g
     inkscape:label="レイヤー 1"
     inkscape:groupmode="layer"
     id="layer1"
     transform="translate(-285.31,-785.9975)">
    <path
       style="fill:#ffffff"
       d="m 137.19545,749.57094 c -0.14384,-0.23275 -0.71512,-0.42318 -1.26952,-0.42318 -0.55439,0 -1.12567,-0.19042 -1.26952,-0.42317 -0.14384,-0.23275 -0.63115,-0.42317 -1.08291,-0.42317 -0.45175,0 -0.82137,-0.15493 -0.82137,-0.34421 0,-0.18929 -0.68209,-0.61183 -1.51576,-0.93894 -0.83367,-0.32711 -1.67774,-0.89738 -1.8757,-1.26728 -0.54731,-1.02264 -4.3268,-2.859 -4.54389,-2.20773 -0.0965,0.28953 -0.44524,0.52642 -0.77496,0.52642 -0.32973,0 -0.5995,0.16821 -0.5995,0.37379 0,0.20562 -0.38086,0.47341 -0.84635,0.59515 -0.57191,0.14955 -0.84634,0.57721 -0.84634,1.31887 0,1.24967 -0.22815,1.35305 -1.08817,0.49303 -0.38724,-0.38724 -0.60453,-1.5015 -0.60453,-3.10004 0,-2.06136 0.17039,-2.65558 0.97942,-3.4156 0.53867,-0.50607 1.30039,-0.9201 1.69269,-0.9201 0.3923,0 0.71328,-0.19043 0.71328,-0.42318 0,-0.23274 0.35865,-0.42317 0.79699,-0.42317 0.76232,0 1.13026,-0.63116 1.7008,-2.91749 0.3558,-1.42584 2.19137,-2.65892 4.47353,-3.00529 1.87335,-0.28429 2.9851,0.0828 1.72042,0.56811 -0.75849,0.2911 -2.34414,3.32344 -2.34414,4.48289 0,1.71402 1.36099,4.18535 3.17217,5.76011 2.06304,1.79375 3.02104,2.02476 5.50288,1.3269 2.81413,-0.79125 4.44787,-2.90238 4.43792,-5.73468 -0.007,-1.92247 -1.82331,-7.70086 -3.19435,-10.16106 -0.56759,-1.0185 -1.03198,-2.14431 -1.03198,-2.50185 0,-0.35754 -0.48551,-1.47857 -1.07892,-2.49114 -0.5934,-1.01256 -1.53264,-3.02877 -2.08719,-4.48047 -0.55454,-1.45174 -1.40438,-3.44446 -1.88853,-4.42834 -0.48414,-0.98392 -1.08934,-2.79299 -1.34488,-4.02015 -0.25554,-1.2272 -0.66996,-2.66675 -0.92093,-3.19898 -0.62034,-1.31552 -0.62646,-9.21108 -0.009,-11.30431 0.27472,-0.93098 0.80637,-2.75668 1.18145,-4.05713 1.03452,-3.58669 1.48567,-4.04059 4.07477,-4.09958 1.21701,-0.0275 2.80018,-0.27011 3.51818,-0.53866 2.10257,-0.78647 3.36369,-1.31742 4.26765,-1.79683 0.46549,-0.24688 1.26727,-0.66942 1.78172,-0.93907 1.68631,-0.88375 4.79196,-4.18074 6.17325,-6.5536 1.56463,-2.68783 2.36934,-5.62998 2.39485,-8.75588 0.0172,-2.11092 0.51404,-3.15569 1.0716,-2.25357 0.14619,0.23656 0.68302,0.42957 1.19296,0.42893 0.50995,0 1.68888,0.36198 2.61986,0.80585 0.93098,0.44387 2.26213,0.97203 2.9581,1.17367 3.07813,0.89176 1.49196,3.87754 -7.18382,13.52263 -1.2834,1.42678 -2.33346,2.79358 -2.33346,3.03729 0,0.2437 -0.47607,0.81757 -1.05794,1.27527 -0.58186,0.45771 -1.05793,1.12679 -1.05793,1.48687 0,0.36003 -0.1706,0.7601 -0.37911,0.88896 -0.68195,0.42148 -2.96688,5.18171 -4.08256,8.50527 -2.5886,7.71128 -3.58466,14.63435 -2.76524,19.21956 1.00986,5.65081 1.91341,5.13466 1.77225,-1.01235 -0.13186,-5.74187 0.69362,-12.02968 2.05887,-15.68272 0.17397,-0.46554 0.54901,-1.60806 0.83344,-2.53904 0.65605,-2.1474 2.49621,-6.04521 3.0013,-6.35738 0.21161,-0.13076 0.71204,-0.9438 1.11206,-1.8067 0.40003,-0.86293 1.45247,-2.32868 2.33878,-3.25729 0.8863,-0.92857 1.61146,-1.83475 1.61146,-2.01371 0,-0.179 0.99975,-1.46135 2.22166,-2.84965 5.33136,-6.05735 6.52099,-7.69177 7.06607,-9.70806 0.42801,-1.58322 1.36675,-1.96332 3.36808,-1.36372 1.51001,0.45241 1.73209,0.67636 1.73209,1.74652 0,0.67513 -0.19043,1.34522 -0.42318,1.4891 -0.23274,0.14384 -0.42317,0.66037 -0.42317,1.14786 0,0.56003 -1.71378,2.62338 -4.65491,5.60438 -2.5602,2.5949 -4.6549,4.92269 -4.6549,5.17287 0,0.25018 -0.31154,0.71343 -0.69232,1.02942 -0.38077,0.31602 -1.13558,1.24387 -1.67735,2.06191 -0.54177,0.81799 -1.56578,2.3071 -2.27558,3.30909 -1.76181,2.48707 -3.81822,6.63874 -3.81822,7.70856 0,0.48369 -0.26969,1.40096 -0.59932,2.03839 -0.56215,1.08709 -0.99322,2.80822 -1.97787,7.89726 -0.40838,2.11058 -0.95113,11.23449 -1.49231,25.08618 -0.15714,4.0221 -0.44835,7.41345 -0.64714,7.5363 -0.19879,0.12284 -0.36144,0.5635 -0.36144,0.97918 0,0.41568 -0.38086,1.10046 -0.84635,1.52173 -0.46549,0.42123 -0.84634,0.98984 -0.84634,1.2636 0,0.2737 -0.52368,0.76755 -1.16373,1.09745 -0.64005,0.32987 -1.25894,0.71203 -1.37532,0.84927 -0.25154,0.29656 -3.91015,1.233 -4.81732,1.233 -0.34869,0 -0.75167,-0.19043 -0.89552,-0.42317 z m 12.41309,-5.9216 c -0.0776,-0.23117 1.5e-4,-1.99263 0.17273,-3.91435 0.17259,-1.92171 0.48273,-8.34993 0.68922,-14.28494 0.51979,-14.9403 1.77994,-22.11398 4.7777,-27.19819 0.66091,-1.12095 1.20165,-2.11532 1.20165,-2.20977 0,-0.0945 0.57129,-1.01824 1.26952,-2.05282 0.69824,-1.03461 1.26952,-2.05417 1.26952,-2.26567 0,-0.21154 0.6665,-1.03059 1.48111,-1.82011 0.81461,-0.78956 1.48202,-1.63624 1.48313,-1.88151 10e-4,-0.24527 1.8072,-2.25501 4.01353,-4.46609 4.21017,-4.21929 6.56378,-7.99112 6.56378,-10.51907 0,-1.06589 0.20291,-1.3071 1.3026,-1.54865 0.71643,-0.15738 1.94796,-0.16504 2.73673,-0.0169 1.34984,0.25323 1.41901,0.34891 1.17684,1.62778 -0.14151,0.74733 -0.4209,1.67949 -0.62087,2.07148 -0.19996,0.39203 -0.3678,1.1537 -0.37298,1.69269 -0.005,0.539 -0.38179,1.45606 -0.83693,2.03792 -0.45514,0.58186 -0.83176,1.27583 -0.83694,1.54213 -0.005,0.2663 -0.58069,1.09576 -1.27893,1.84326 -0.69824,0.74745 -1.26952,1.50167 -1.26952,1.67602 0,0.17439 -1.04735,1.3076 -2.32745,2.51826 -1.2801,1.21066 -2.32746,2.38086 -2.32746,2.60044 0,0.21955 -0.17138,0.39923 -0.38085,0.39923 -0.8732,0 -5.41949,5.15095 -8.59045,9.73298 -2.88246,4.16513 -4.99342,11.45425 -4.99342,17.2422 0,1.4255 -0.20226,3.12383 -0.44948,3.77407 -0.24721,0.65021 -0.63368,4.61399 -0.85882,8.8084 -0.46433,8.65059 -0.5362,9.40012 -0.94,9.80395 -0.15991,0.15988 -0.29074,0.66536 -0.29074,1.12323 0,0.45788 -0.22057,1.56871 -0.49016,2.4685 -0.47589,1.58838 -0.98486,2.07444 -1.27306,1.21569 z m -12.70084,-1.94012 c 1.58295,-1.35491 1.76886,-1.71135 1.76886,-3.3911 0,-1.03237 -0.16821,-2.20774 -0.3738,-2.61187 -0.20559,-0.40417 -0.63405,-1.30612 -0.95214,-2.00431 -0.31809,-0.69824 -0.81637,-1.52119 -1.10731,-1.82875 -0.29093,-0.30756 -0.52896,-0.7224 -0.52896,-0.92188 0,-0.19953 -0.3195,-0.68224 -0.71,-1.07275 -0.91649,-0.91646 -0.27901,-2.04832 1.25745,-2.23266 0.85824,-0.10291 1.2402,0.14566 1.7558,1.14274 0.36243,0.70086 0.65896,1.66459 0.65896,2.14164 0,0.47704 0.16822,0.86738 0.37382,0.86738 0.2056,0 0.48441,0.33324 0.61958,0.74055 0.13516,0.40726 0.53187,1.50142 0.88158,2.43143 0.80988,2.15374 0.95013,4.81761 0.31589,5.99987 -0.62297,1.16128 -2.77913,2.25383 -4.44792,2.25383 l -1.28068,0 1.76887,-1.51412 z m -5.72441,-15.88144 c -0.25772,-0.25771 -1.91445,-0.49059 -3.68161,-0.5175 -2.96774,-0.0452 -3.21301,-0.11684 -3.21301,-0.93873 0,-0.48944 0.44073,-1.30392 0.97941,-1.80995 0.81835,-0.76882 1.48042,-0.92011 4.02589,-0.92011 1.67556,0 3.41999,-0.23329 3.87652,-0.51838 0.53363,-0.33325 0.95995,-0.37104 1.19383,-0.1058 0.65805,0.74631 1.84126,4.40342 1.56781,4.84589 -0.35995,0.58241 -4.15935,0.55406 -4.74884,-0.0355 z m -3.93241,-6.17664 c -0.81461,-0.10224 -1.66201,-0.36274 -1.88312,-0.5789 -0.22111,-0.21612 -1.41726,-0.39296 -2.65811,-0.39296 -2.50585,0 -3.06605,-0.55288 -2.2,-2.17109 1.14084,-2.13169 2.00879,-2.45474 6.63544,-2.46977 3.36789,-0.011 4.33752,0.11375 4.33752,0.55766 0,0.31446 0.46754,1.45106 1.03898,2.5258 0.57144,1.07473 0.90469,2.03343 0.74056,2.1305 -0.54809,0.32411 -4.51149,0.58703 -6.01127,0.39876 z m -2.96221,-7.30913 c -2.29385,-1.31205 -4.05483,-1.78431 -5.77443,-1.54865 l -1.84269,0.25259 0,-1.71715 c 0,-1.32187 0.27641,-1.99357 1.20072,-2.91787 1.43325,-1.43324 4.50568,-2.06466 6.34315,-1.30354 0.65153,0.26986 1.8463,0.44611 2.65504,0.39165 1.85384,-0.12488 2.34252,0.18137 2.62265,1.64356 0.12317,0.64289 0.45876,1.9973 0.74577,3.00978 0.43378,1.53015 0.42207,1.90398 -0.0693,2.21514 -0.74959,0.47463 -5.03898,0.45601 -5.88086,-0.0254 z m 0.21158,-8.92397 c -2.39878,-0.48364 -4.83779,-1.08865 -6.55639,-1.62634 -0.81307,-0.25441 -2.00325,-0.46253 -2.64484,-0.46253 -1.31049,0 -1.39508,-0.3652 -0.60801,-2.62477 1.09848,-3.15353 3.58346,-4.08616 8.26407,-3.10157 1.69489,0.35653 3.71185,0.64826 4.48216,0.64826 1.22826,0 1.43288,0.16165 1.66344,1.31446 0.14459,0.72295 0.14217,2.34159 -0.005,3.59698 -0.21228,1.80614 -0.42551,2.28251 -1.02174,2.28251 -0.41441,0 -1.00708,0.0707 -1.31705,0.15712 -0.30997,0.0865 -1.32529,0.004 -2.25627,-0.18412 z m -29.046744,-5.59596 c -1.654824,-1.46033 -2.519892,-3.5277 -2.552594,-6.10021 -0.02298,-1.80953 0.759824,-5.06594 1.268525,-5.2768 0.183852,-0.0762 1.049212,-1.61437 1.923018,-3.41815 0.873803,-1.80377 1.740402,-3.27959 1.925774,-3.27959 0.369345,0 3.099041,-3.99691 3.540351,-5.18387 0.15143,-0.40731 0.4628,-0.74056 0.69194,-0.74056 0.22913,0 0.73287,-0.66649 1.11943,-1.4811 0.64423,-1.35763 1.87591,-2.05519 1.87591,-1.06242 0,0.89188 -2.28373,6.1854 -3.02602,7.0141 -0.4304,0.48051 -0.78254,1.11188 -0.78254,1.40311 0,0.29127 -0.23473,0.9455 -0.52163,1.45386 -0.62994,1.1162 -2.044802,6.85278 -2.054472,8.32987 -0.0094,1.43041 0.755966,4.89556 1.309822,5.93048 0.24735,0.46214 0.70646,0.84029 1.02026,0.84029 0.73353,0 1.17584,2.22297 0.52474,2.63726 -0.26967,0.1716 -1.44244,0.30773 -2.606169,0.30257 -1.77302,-0.008 -2.36548,-0.2297 -3.656345,-1.36884 z m 90.811214,-0.10782 c 1.57901,-1.19399 2.40206,-7.09476 1.45187,-10.40888 -0.29097,-1.0149 -0.54445,-2.22611 -0.5633,-2.69156 -0.0188,-0.46553 -0.3396,-1.41767 -0.7128,-2.11586 -0.37318,-0.69824 -0.9233,-2.03123 -1.22247,-2.96222 -0.29918,-0.93098 -0.99114,-2.28196 -1.5377,-3.00216 -0.54655,-0.72024 -0.99373,-1.61351 -0.99373,-1.9851 0,-0.37159 -0.19043,-0.79333 -0.42317,-0.93716 -0.23275,-0.14388 -0.42318,-0.68829 -0.42318,-1.2099 0,-0.52156 -0.21192,-1.16021 -0.47093,-1.41924 -0.46759,-0.4676 -0.19245,-1.39101 0.41445,-1.39101 0.39304,0 5.13456,6.51552 5.13456,7.05565 0,0.13601 0.64145,0.95731 1.42544,1.82507 1.62657,1.80043 4.49899,6.53083 4.49899,7.40913 0,0.32292 0.17129,0.69299 0.38065,0.82235 0.20937,0.12941 0.61187,1.19906 0.89446,2.37705 0.40758,1.699 0.40307,2.55224 -0.0218,4.12725 -0.56694,2.10157 -1.47702,3.4666 -2.31121,3.4666 -0.27697,0 -0.84826,0.38081 -1.26952,0.84634 -0.57911,0.63988 -1.29184,0.84305 -2.92201,0.83289 -1.99486,-0.0123 -2.0942,-0.0603 -1.32857,-0.6392 z m -60.28336,-3.10711 c -0.34912,-0.19178 -1.87254,-0.59536 -3.38539,-0.89683 -1.51284,-0.30147 -3.01793,-0.75769 -3.34463,-1.01376 -0.82512,-0.64678 -6.10298,-0.59451 -6.90169,0.0684 -0.55361,0.45948 -0.67519,0.29694 -0.87121,-1.16449 -0.29945,-2.23254 0.33315,-3.4586 2.42117,-4.69253 1.6467,-0.97313 4.71227,-2.11693 4.97361,-1.8557 0.18162,0.18154 10.02768,3.02137 11.64987,3.36012 1.15827,0.24185 1.35611,0.4591 1.29082,1.41738 -0.0956,1.40337 -1.7306,4.1187 -2.83634,4.71051 -0.97802,0.52343 -2.11882,0.5489 -2.99621,0.067 z m 4.44332,-8.12557 c -1.16373,-0.13647 -2.97608,-0.55744 -4.02747,-0.9355 -1.05138,-0.37807 -2.95566,-0.90615 -4.23173,-1.17346 -2.6604,-0.55741 -6.0629,-2.87496 -7.86898,-5.35983 -0.63677,-0.8761 -1.66334,-2.25941 -2.28126,-3.07402 -2.22297,-2.9306 -1.80273,-4.61238 1.15982,-4.64145 1.14348,-0.011 1.5458,0.26499 2.43325,1.67082 0.58477,0.92636 1.06324,1.84114 1.06324,2.03284 0,0.48106 2.36566,2.60581 4.6549,4.18086 3.03188,2.086 6.77078,3.08253 6.77078,1.80458 0,-0.49841 -1.46193,-1.23909 -2.44564,-1.23909 -0.44472,0 -1.15325,-0.38086 -1.57451,-0.84635 -0.42126,-0.46553 -0.98042,-0.84634 -1.24256,-0.84634 -0.57474,0 -4.8795,-4.45661 -5.67519,-5.87538 -0.6251,-1.1146 -0.16397,-1.72245 1.31644,-1.73527 0.41047,-0.004 1.13627,-0.24451 1.61289,-0.53544 0.76829,-0.46896 0.99566,-0.3699 2.00433,0.87351 2.11664,2.60916 3.80159,4.31036 4.26923,4.31036 0.80419,0 0.5086,-1.09944 -0.62426,-2.32182 -2.19484,-2.36825 -2.18193,-3.99979 0.0318,-4.02091 0.46549,-0.004 1.49066,-0.40087 2.27816,-0.88096 0.78749,-0.48009 1.55876,-0.71741 1.71392,-0.52736 0.15515,0.19 0.73552,1.48809 1.28969,2.88456 0.55418,1.39647 1.38613,2.82468 1.8488,3.1738 4.46292,3.36761 5.77469,3.63493 9.15739,1.86619 4.16145,-2.17595 4.63538,-6.67386 1.12185,-10.64704 -0.78955,-0.89285 -3.24214,-1.37527 -3.22702,-0.63476 0.0114,0.55927 0.60736,1.21773 1.34971,1.49135 0.77704,0.28636 2.45237,3.23677 2.45237,4.31882 0,1.31611 -2.08352,4.02861 -3.09447,4.02861 -0.5324,0 -1.1854,0.21739 -1.45111,0.4831 -0.36203,0.36202 -0.88701,0.29546 -2.09471,-0.26559 -4.93563,-2.29292 -6.45283,-6.68178 -4.01802,-11.623 1.31902,-2.67687 3.49561,-4.37646 6.56072,-5.12302 1.71187,-0.41691 2.3898,-0.38217 4.23173,0.21683 4.7968,1.5599 5.82525,2.32153 7.45504,5.52076 1.41681,2.78114 1.50894,3.20791 1.50727,6.98236 -0.002,3.58614 -0.13579,4.29394 -1.24326,6.55652 -1.31358,2.68369 -4.61361,6.56186 -5.58365,6.56186 -0.31727,0 -0.57686,0.16732 -0.57686,0.3718 0,0.20452 -0.61889,0.60793 -1.37531,0.89645 -0.75642,0.28852 -2.14242,0.86408 -3.08,1.27891 -1.85116,0.81918 -7.05283,1.21379 -10.56734,0.8017 z M 91.365778,684.3176 c -0.709353,-0.70936 -0.633969,-2.66925 0.126952,-3.30075 0.349118,-0.28975 0.63476,-0.7692 0.63476,-1.06546 0,-0.60341 8.76084,-9.51387 9.3541,-9.51387 0.56276,0 0.48806,0.24861 -0.78484,2.61187 -1.805066,3.35127 -2.03931,3.71063 -3.226277,4.94956 -0.611185,0.63797 -1.111249,1.3451 -1.111249,1.57141 0,0.22631 -0.571284,1.03699 -1.26952,1.80145 -0.698236,0.76446 -1.26952,1.53912 -1.26952,1.72143 0,0.34526 -1.398918,1.73217 -1.747173,1.73217 -0.109682,0 -0.427938,-0.22851 -0.707233,-0.50781 z m 101.956772,-1.07909 c -0.21799,-0.4073 -0.43793,-0.93098 -0.48877,-1.16373 -0.2739,-1.25411 -0.89144,-2.24637 -2.1069,-3.38538 -0.74508,-0.69824 -1.53413,-1.65038 -1.75345,-2.11587 -0.87733,-1.86213 -1.6095,-2.90356 -3.15147,-4.48272 -1.24568,-1.27565 -1.49867,-1.76658 -1.11047,-2.1548 0.3882,-0.38817 1.29942,0.26241 3.99962,2.85579 1.92329,1.84719 3.55564,3.58199 3.62746,3.85507 0.0718,0.27311 0.55845,0.7769 1.08141,1.11954 0.52296,0.34269 1.20944,1.40659 1.5255,2.36427 0.47965,1.45335 0.48143,1.91541 0.0108,2.79481 -0.6653,1.24311 -1.09219,1.32491 -1.63374,0.31302 z m -102.1472,-8.83603 c -1.470697,-0.94075 -1.58621,-1.16182 -1.577489,-3.019 0.0061,-1.30833 0.288681,-2.36736 0.813953,-3.05095 0.726415,-0.94537 0.879613,-0.98646 1.577493,-0.42318 2.098149,1.6935 4.51978,2.20901 5.547748,1.18104 0.955255,-0.95523 0.95291,-0.0351 -0.0042,1.64855 -0.84754,1.49084 -1.869575,2.53088 -4.135842,4.20872 -0.489921,0.3627 -0.996857,0.23833 -2.22166,-0.54518 z M 191.57323,673.165 c -1.44365,-0.78453 -4.65491,-4.03797 -4.65491,-4.71602 0,-0.76256 0.57182,-0.69028 2.3237,0.29373 1.26622,0.71118 1.65172,0.7612 2.44612,0.31738 1.61342,-0.9014 2.50676,-1.75846 2.89716,-2.77949 l 0.3759,-0.98307 1.05664,1.25576 c 0.84893,1.00889 1.05665,1.71737 1.05665,3.60392 0,1.94681 -0.16076,2.46075 -0.94051,3.00694 -1.12761,0.78977 -3.10827,0.79015 -4.56075,0 z m -86.11578,-3.81089 c -4.47627,-0.93196 -6.614025,-1.9397 -7.507361,-3.53896 -0.680619,-1.21844 -0.725674,-1.6045 -0.283649,-2.43045 0.936386,-1.74965 2.163368,-2.27346 3.91487,-1.67133 0.84309,0.28984 1.66339,0.65749 1.8229,0.81698 0.15951,0.15954 0.68674,0.29072 1.17163,0.29161 0.48489,0 1.5039,0.38098 2.26447,0.8447 1.77079,1.07968 8.36236,1.52423 12.58186,0.84859 1.62922,-0.26085 3.81914,-0.56845 4.8665,-0.68351 1.04735,-0.11506 2.28513,-0.36596 2.75062,-0.55758 3.922,-1.61444 4.02015,-1.62236 4.02015,-0.32309 0,1.57704 -0.8754,2.34349 -4.02015,3.51979 -7.18187,2.68639 -16.52947,3.93517 -21.58184,2.88325 z m 65.80346,0.39291 c -4.06247,-0.58393 -7.04168,-1.18526 -7.38437,-1.4905 -0.22111,-0.19694 -0.9378,-0.35804 -1.59265,-0.35804 -0.65484,0 -1.52129,-0.17524 -1.92544,-0.38937 -0.40414,-0.21416 -1.78216,-0.79167 -3.06226,-1.2834 -3.0534,-1.17286 -4.06609,-2.04248 -4.38723,-3.76734 -0.23035,-1.23723 -0.16928,-1.38001 0.47453,-1.10935 0.40639,0.17088 1.21497,0.39876 1.79683,0.50641 0.58187,0.1077 1.71016,0.48881 2.50732,0.84694 2.17601,0.97766 7.2322,1.56621 13.1501,1.53075 6.4547,-0.0385 7.93005,-0.28158 11.33888,-1.86675 3.06871,-1.42698 4.74066,-1.56248 5.73405,-0.46481 1.85686,2.0518 0.20021,3.75241 -6.19613,6.36059 -0.651,0.26546 -1.72271,0.48267 -2.38157,0.48267 -0.65886,0 -1.88156,0.28565 -2.71712,0.63476 -1.44159,0.60231 -2.98425,0.70818 -5.35494,0.36744 z m -55.75309,-6.51191 c -1.09588,-0.44594 -1.08058,-0.29098 -0.51556,-5.22285 0.43904,-3.83218 1.51738,-6.4203 3.37576,-8.10208 0.46341,-0.41941 0.84257,-0.98003 0.84257,-1.24582 0,-0.60133 3.04739,-3.61725 3.65502,-3.61725 0.24504,0 0.79021,-0.38089 1.21147,-0.84634 0.42126,-0.46549 0.95946,-0.84635 1.19599,-0.84635 0.23654,0 0.77962,-0.31636 1.20685,-0.70302 0.42723,-0.38661 1.20225,-0.91507 1.72227,-1.17435 1.08887,-0.54284 1.53308,-1.93123 0.61789,-1.93123 -0.33479,0 -1.0668,0.36037 -1.62669,0.80077 -0.55989,0.4404 -1.60221,1.1545 -2.31627,1.5869 -3.53792,2.14231 -4.85909,3.26144 -6.86768,5.81728 -1.20133,1.52867 -2.18424,2.87026 -2.18424,2.9813 0,0.11104 -0.46335,0.88464 -1.02966,1.71914 -0.64314,0.94774 -1.12999,2.42415 -1.29695,3.93314 -0.14702,1.32872 -0.46345,3.43761 -0.70319,4.68639 l -0.43588,2.27054 -1.51745,-0.24629 c -2.2766,-0.36943 -2.92718,-1.2035 -2.29734,-2.94533 0.28033,-0.77525 0.50969,-2.04896 0.50969,-2.83052 0,-1.40231 0.59829,-3.74669 1.32147,-5.17816 0.20418,-0.40413 0.37123,-0.97605 0.37123,-1.27087 0,-0.29483 0.68378,-1.48758 1.51952,-2.65055 0.83573,-1.16301 1.67353,-2.50506 1.86177,-2.9824 0.34591,-0.87719 4.62197,-4.42178 5.33423,-4.42178 0.212,0 0.92466,-0.57128 1.58368,-1.26956 0.65902,-0.69824 1.45934,-1.26952 1.77849,-1.26952 0.31914,0 1.54916,-0.57129 2.73338,-1.26952 1.18421,-0.69824 2.51434,-1.26952 2.95586,-1.26952 0.44151,0 0.90801,-0.17029 1.03666,-0.37845 0.12865,-0.20815 0.9492,-0.47831 1.82346,-0.60031 0.87425,-0.122 2.44648,-0.4616 3.49383,-0.75469 2.12337,-0.59417 12.0023,-0.74449 15.65742,-0.23824 2.72293,0.37709 5.54362,1.12538 6.11485,1.6221 0.22111,0.19229 0.80272,0.34959 1.29247,0.34959 0.48974,0 1.73705,0.53163 2.77178,1.18137 1.03474,0.64974 2.56921,1.50316 3.40994,1.8965 0.84073,0.39329 1.76858,1.00427 2.06189,1.35766 0.29331,0.35344 0.70285,0.64259 0.91009,0.64259 0.55623,0 3.74979,3.09695 3.7506,3.63718 3.8e-4,0.25483 0.38155,0.80805 0.84704,1.22931 0.46549,0.42123 0.84635,0.93479 0.84635,1.14118 0,0.20642 0.39914,0.79582 0.88698,1.30976 0.48785,0.51394 1.05867,1.31531 1.26851,1.7808 0.20984,0.46545 0.54917,1.13199 0.75407,1.48111 0.57399,0.97799 1.32217,3.55507 1.32217,4.55414 0,0.49342 0.19043,1.01482 0.42318,1.1587 0.23274,0.14383 0.42317,1.37167 0.42317,2.72849 l 0,2.46697 -1.53622,0.28819 c -1.71902,0.3225 -2.42688,-0.12188 -2.51172,-1.57683 -0.11959,-2.05057 -2.05926,-7.44548 -3.68687,-10.25442 -2.42587,-4.18663 -6.1396,-7.6608 -10.37665,-9.70731 -1.89821,-0.9168 -3.57432,-1.54394 -3.7247,-1.39355 -0.64755,0.64754 0.41933,1.67065 3.10537,2.97783 3.54513,1.72532 5.75341,3.2033 6.80418,4.55394 1.16355,1.49566 4.30949,6.76265 4.30949,7.21502 0,0.21214 0.16705,0.71635 0.37122,1.12048 0.76467,1.5136 1.32147,3.81173 1.32147,5.45428 0,1.6695 -0.0316,1.70437 -1.94089,2.14126 l -1.94089,0.44416 -0.80974,-1.88905 c -0.44535,-1.03897 -0.8109,-2.20646 -0.81234,-2.59451 -0.001,-0.38801 -0.28707,-1.2509 -0.63476,-1.91757 -0.34768,-0.66663 -0.63215,-1.43845 -0.63215,-1.71512 0,-1.52466 -6.20228,-8.4388 -8.40935,-9.37456 -1.70516,-0.72291 -1.74681,-0.7268 -1.74681,-0.16314 0,0.24303 1.6731,2.13906 3.71801,4.21337 2.5426,2.57916 4.14798,4.6354 5.07808,6.50426 1.61055,3.23609 1.69115,4.26148 0.40141,5.10656 -0.84002,0.55042 -1.31444,0.55368 -3.83381,0.0267 -3.91858,-0.81986 -8.71371,-2.51682 -12.31152,-4.35687 -4.16861,-2.13203 -7.30248,-2.33672 -10.91997,-0.7133 -1.43023,0.64187 -3.05006,1.61665 -3.59964,2.16623 -0.54957,0.54957 -1.27077,0.99924 -1.60268,0.99924 -0.3319,0 -1.64716,0.46155 -2.92281,1.02573 -1.27563,0.56413 -3.32817,1.08781 -4.56117,1.16372 l -2.24184,0.138 -0.13137,-2.32153 c -0.0951,-1.6811 0.12366,-2.90678 0.79319,-4.44332 1.82906,-4.19762 2.48165,-5.11248 4.98498,-6.98828 2.53582,-1.90018 2.94638,-2.62981 1.62409,-2.88626 -0.8223,-0.15949 -5.05785,3.70256 -6.41408,5.84847 -1.55684,2.46333 -2.76109,6.23127 -2.76109,8.63908 0,1.29843 -0.22503,2.44104 -0.52896,2.68589 -0.82789,0.66692 -2.9722,0.94185 -4.02015,0.51542 z m -9.85199,-4.54065 c -0.0171,-3.69359 -1.10849,-5.56397 -4.4058,-7.55026 -2.711281,-1.63324 -2.926325,-1.66261 -4.679219,-0.639 -1.800273,1.05125 -3.176374,3.26233 -3.160344,5.078 0.01925,2.17858 0.80177,3.00546 2.844339,3.00546 1.690751,0 2.220285,-0.46244 2.220285,-1.93889 0,-0.79895 -1.230411,-0.77132 -1.539662,0.0347 -0.338919,0.8832 -1.308126,0.7929 -1.823377,-0.16986 -0.658445,-1.2303 0.241081,-3.28544 1.772394,-4.04935 1.494986,-0.74584 2.436992,-0.83247 2.436992,-0.22411 0,0.23274 0.380856,0.42317 0.846342,0.42317 0.46549,0 0.84635,0.16821 0.84635,0.37379 0,0.20562 0.34643,0.46443 0.76984,0.57513 0.98922,0.25869 2.25692,2.93306 2.52727,5.33157 0.16622,1.4748 0.0859,1.82967 -0.37938,1.67525 -0.32465,-0.10778 -0.69428,-0.94215 -0.82138,-1.85417 -0.29267,-2.1 -1.52364,-3.9857 -2.60182,-3.9857 -0.707488,0 -0.788856,0.19322 -0.546322,1.29745 0.381512,1.737 -0.375588,3.40718 -1.953572,4.30959 -1.991855,1.13906 -3.04466,0.88389 -5.563896,-1.34869 -1.01088,-0.89586 -1.163726,-1.34578 -1.163726,-3.42559 0,-1.85689 0.189975,-2.56621 0.846346,-3.16022 0.465491,-0.42127 0.846347,-1.00503 0.846347,-1.29728 0,-0.77055 4.155702,-2.72286 5.795926,-2.72286 0.768911,0 1.398017,0.19042 1.398017,0.42317 0,0.23274 0.3738,0.42317 0.83065,0.42317 1.25775,0 5.02788,4.14558 5.63381,6.19488 0.67425,2.28031 0.44352,6.07715 -0.36928,6.07715 -0.44982,0 -0.59713,-0.69307 -0.60713,-2.85642 z m 73.43766,0.84634 c -0.14276,-1.10554 -0.33764,-2.38394 -0.43306,-2.84084 -0.0954,-0.45691 0.15252,-1.19098 0.55101,-1.63134 0.39849,-0.44031 0.66462,-0.82819 0.59141,-0.86192 -0.35258,-0.16254 0.67179,-1.98989 2.34736,-4.1873 l 1.85537,-2.43325 2.73163,0 c 3.00094,0 3.8512,0.34476 6.21134,2.51865 1.37969,1.27079 1.5869,1.70898 1.5869,3.35581 0,2.88629 -0.74204,4.42296 -2.74882,5.69257 -2.34923,1.48622 -3.14536,1.42482 -4.89108,-0.37722 -1.11341,-1.1493 -1.45833,-1.86565 -1.45833,-3.02853 0,-0.83775 -0.23687,-1.60403 -0.52637,-1.70285 -0.67032,-0.22876 -1.37396,1.60163 -1.39137,3.61949 -0.0151,1.74483 -0.93934,3.28615 -1.69175,2.82113 -0.49988,-0.30896 -0.44118,-0.91664 0.43829,-4.53693 0.67766,-2.7896 3.2041,-4.97673 5.74879,-4.97673 1.47986,0 1.98056,0.22585 2.88605,1.30198 0.60255,0.71609 1.09555,1.49033 1.09555,1.7205 0,0.74529 -0.80574,1.94943 -1.47673,2.20693 -0.73617,0.28251 -2.33184,-0.89895 -2.33184,-1.72651 0,-0.2974 -0.29713,-0.54068 -0.6603,-0.54068 -0.50235,0 -0.62889,0.37205 -0.52897,1.55545 0.10215,1.20969 0.41353,1.72016 1.40086,2.29652 1.78163,1.03999 2.42901,0.97334 3.72939,-0.38398 0.88966,-0.92862 1.13711,-1.60117 1.13711,-3.09078 0,-1.59883 -0.22036,-2.11248 -1.37532,-3.20566 -1.79377,-1.69782 -2.91897,-2.24964 -4.58714,-2.24964 -1.39272,0 -3.82863,1.51717 -5.04005,3.13915 -1.13869,1.52456 -2.0496,4.63929 -2.08307,7.12281 -0.0396,2.94313 -0.72689,3.2107 -1.08686,0.42317 z m -68.44153,-18.11554 c -1.29252,-0.70145 -2.19879,-2.09526 -1.79117,-2.75482 0.16161,-0.26148 1.00209,-0.32474 2.10915,-0.15873 1.26856,0.19022 2.21026,0.0815 3.03048,-0.35009 0.65451,-0.34434 1.78887,-0.93945 2.52081,-1.32242 0.73192,-0.38297 1.56456,-0.97799 1.8503,-1.32229 0.28573,-0.34429 0.68069,-0.626 0.87767,-0.626 0.197,0 1.68284,-0.85692 3.30188,-1.90428 1.61905,-1.04735 3.19602,-1.90851 3.50438,-1.91367 0.30836,-0.005 1.03673,-0.38179 1.61859,-0.83696 0.58187,-0.45512 1.30849,-0.83173 1.61472,-0.83691 0.30624,-0.005 0.97273,-0.24439 1.48111,-0.53159 2.11863,-1.19687 5.26417,-1.63364 11.40245,-1.58325 3.43552,0.0282 6.86197,0.22782 7.61433,0.44359 0.75236,0.21578 2.07205,0.39232 2.93265,0.39232 0.86059,0 1.68241,0.19043 1.82625,0.42317 0.14385,0.23275 0.57278,0.42318 0.95318,0.42318 1.06285,0 7.01898,3.0103 7.6196,3.85106 0.62866,0.87999 2.88723,2.07334 3.92404,2.07334 0.40123,0 0.96949,0.28916 1.2628,0.64259 0.78372,0.94431 3.27337,2.02751 4.01024,1.74474 0.351,-0.13469 0.63818,-0.0338 0.63818,0.22395 0,0.31357 0.69691,0.38631 2.10408,0.21967 1.15724,-0.13707 2.192,-0.10694 2.29947,0.0669 0.35805,0.57933 -1.92251,3.03945 -3.38351,3.64987 -1.36214,0.56917 -1.57439,0.53206 -3.87539,-0.6772 -1.33887,-0.70365 -2.71996,-1.52749 -3.06907,-1.83078 -1.12812,-0.98007 -7.36114,-4.37425 -8.88664,-4.83924 -0.81461,-0.24827 -2.63331,-0.83538 -4.04155,-1.30468 -3.62336,-1.20744 -11.06793,-1.94283 -13.49107,-1.3327 -1.03673,0.26105 -2.66015,0.47463 -3.6076,0.47463 -0.94744,0 -2.05329,0.1721 -2.45744,0.38242 -0.40415,0.21036 -2.16302,0.81033 -3.90861,1.33329 -4.45551,1.3349 -4.58748,1.38374 -7.28638,2.69744 -1.33093,0.64783 -2.93156,1.65211 -3.55694,2.23169 -1.67668,1.55389 -5.50958,3.51382 -6.83371,3.49439 -0.6348,-0.009 -1.67308,-0.2985 -2.30728,-0.64267 z m 5.85829,-9.50655 c -2.36352,-0.90749 -4.07044,-2.33908 -4.07044,-3.41388 0,-0.40552 -0.22414,-0.81203 -0.49809,-0.90335 -0.27396,-0.0913 -0.36237,-0.38565 -0.19648,-0.65407 0.22509,-0.36419 0.56624,-0.36746 1.34444,-0.0129 0.57356,0.26133 1.04282,0.61047 1.04282,0.77587 0,0.1654 0.97711,0.43035 2.17135,0.58877 2.10242,0.2789 6.28099,-0.58482 7.3289,-1.51489 0.22111,-0.19624 0.71527,-0.35681 1.09814,-0.35681 0.38287,0 1.04079,-0.38085 1.46206,-0.84634 0.42126,-0.46549 1.17207,-0.84635 1.66847,-0.84635 0.49639,0 1.56184,-0.56355 2.36766,-1.25232 0.80582,-0.68878 1.88234,-1.26007 2.39228,-1.26952 0.50995,-0.009 1.02475,-0.17509 1.14401,-0.36806 0.11926,-0.19297 1.32068,-0.59198 2.66981,-0.8867 1.34913,-0.29471 2.89039,-0.70811 3.42502,-0.91866 2.33926,-0.92126 9.71713,0.33212 13.11134,2.22741 0.7635,0.42634 1.73993,0.77516 2.16984,0.77516 0.42991,0 1.0203,0.28754 1.31197,0.63898 0.87106,1.04956 6.38049,3.48484 8.94987,3.95601 2.35515,0.4319 5.01134,-0.0341 5.01134,-0.8792 0,-0.18172 0.28565,-0.33039 0.63476,-0.33039 1.58757,0 -0.0644,3.86465 -2.05598,4.80972 -2.24426,1.06496 -3.34966,0.85989 -7.677,-1.42436 -2.20464,-1.1637 -4.40137,-2.11584 -4.88165,-2.11584 -0.48027,0 -1.38744,-0.26092 -2.01594,-0.57982 -0.62849,-0.31889 -2.0428,-0.71075 -3.14292,-0.87079 -1.10011,-0.16004 -2.0876,-0.43239 -2.19441,-0.60522 -0.31941,-0.51681 -13.24596,-0.59836 -13.56289,-0.0856 -0.15252,0.24677 -0.65923,0.44868 -1.12602,0.44868 -1.41865,0 -11.55736,4.45443 -13.06606,5.74054 -1.09887,0.93678 -2.68054,0.99386 -4.8162,0.17388 z m 4.35434,-8.69359 c -1.75995,-1.29845 -2.31865,-2.2267 -1.70785,-2.8375 0.32724,-0.32725 0.6796,-0.25559 1.24089,0.25237 1.03222,0.93414 2.27717,0.89552 4.41414,-0.13695 0.96345,-0.46549 2.03124,-0.84635 2.37286,-0.84635 0.34162,0 1.2952,-0.51414 2.11907,-1.14254 0.82387,-0.6284 1.84318,-1.16797 2.26512,-1.19906 0.42194,-0.0311 1.20633,-0.46908 1.74307,-0.97332 0.53675,-0.50425 1.38085,-0.91681 1.87579,-0.91681 0.49494,0 0.9977,-0.15825 1.11724,-0.35167 0.11953,-0.19342 1.56534,-0.60602 3.2129,-0.91689 2.40407,-0.45362 3.54221,-0.4645 5.76406,-0.0551 1.52267,0.28057 3.08735,0.67761 3.47705,0.88231 0.3897,0.20471 1.66069,0.79067 2.82442,1.30212 1.16373,0.51146 2.21108,1.0507 2.32745,1.19831 0.4406,0.55887 2.13686,1.32631 2.9315,1.32631 0.45491,0 0.9448,0.19043 1.08865,0.42318 0.14384,0.23274 0.63374,0.42317 1.08865,0.42317 0.45491,0 1.19363,0.2289 1.6416,0.50866 0.83036,0.51857 0.85712,0.51211 3.94328,-0.9513 1.64303,-0.7791 2.20709,-0.0995 1.3475,1.62363 -0.77204,1.5476 -2.42221,2.95703 -3.89484,3.32663 -0.87889,0.22059 -4.81942,-1.1597 -5.6073,-1.96414 -0.49423,-0.50461 -5.24048,-2.58111 -6.88584,-3.01257 -0.98407,-0.25805 -3.2871,-0.67578 -5.11786,-0.9283 -2.84924,-0.39299 -3.61927,-0.35589 -5.34646,0.25755 -1.1098,0.39417 -2.38495,0.71667 -2.83368,0.71667 -0.44872,0 -1.60414,0.38085 -2.56759,0.84634 -0.96346,0.4655 -1.95137,0.84635 -2.19535,0.84635 -0.24399,0 -0.44362,0.14394 -0.44362,0.31987 0,0.17593 -0.52368,0.54912 -1.16373,0.82931 -5.56169,2.43472 -7.03516,2.6223 -9.03112,1.14973 z m 8.75376,-7.73541 c -0.23424,-0.37902 0.97669,-1.57225 3.77221,-3.71707 l 1.69636,-1.3015 6.34393,-0.0841 c 6.04309,-0.0801 6.44428,-0.0331 8.45981,0.99171 1.92194,0.97723 5.50663,3.97031 5.16465,4.3123 -0.0775,0.0775 -1.27131,-0.4207 -2.65282,-1.1072 -1.38151,-0.68649 -2.83384,-1.25416 -3.22741,-1.26146 -0.39357,-0.007 -0.83327,-0.20371 -0.97712,-0.43645 -0.14384,-0.23275 -1.09598,-0.42318 -2.11586,-0.42318 -1.01989,0 -1.97203,-0.19042 -2.11587,-0.42317 -0.14385,-0.23274 -0.71513,-0.42317 -1.26952,-0.42317 -0.55439,0 -1.12568,0.19043 -1.26952,0.42317 -0.14385,0.23275 -1.38163,0.42317 -2.75063,0.42317 -1.369,0 -2.60457,0.18686 -2.74571,0.41523 -0.25831,0.41794 -5.23552,2.97016 -5.79227,2.97016 -0.16429,0 -0.39839,-0.16129 -0.52023,-0.35842 z m 5.81421,-7.78767 c -0.79678,-1.27054 -1.83408,-3.49819 -1.83408,-3.93881 0,-1.55546 4.07568,-6.94178 5.27198,-6.96731 0.24247,-0.005 0.91693,-0.3818 1.49879,-0.83694 1.74888,-1.36799 3.44293,-1.09292 5.55475,0.90195 1.01793,0.96157 2.27925,2.03082 2.80293,2.37613 0.52368,0.3453 0.95214,0.82896 0.95214,1.0748 0,0.24584 0.30839,0.78774 0.6853,1.20422 0.81437,0.89987 0.49745,4.2022 -0.49888,5.19854 -0.33528,0.33528 -0.60959,0.81362 -0.60959,1.06299 0,0.69169 -13.38806,0.6185 -13.82334,-0.0756 z"
       id="path3898"
       inkscape:connector-curvature="0" />
    <g
       id="g3936">
      <rect
         y="786.03986"
         x="285.3681"
         height="284"
         width="501"
         id="rect3934"
         style="fill:#ed1c24;fill-opacity:1;fill-rule:nonzero;stroke:#000000;stroke-width:0;stroke-linecap:round;stroke-linejoin:round;stroke-miterlimit:4;stroke-opacity:1;stroke-dasharray:none;stroke-dashoffset:0" />
      <g
         transform="matrix(1.0304272,0,0,1.0304272,375.88424,-7.649333)"
         id="g3930">
        <path
           style="fill:#ffffff"
           d="m 152.68492,996.06389 c -2.54814,-0.653 -7.64701,-3.05228 -9.02982,-4.24906 -1.6766,-1.45112 -3.34151,-2.50233 -4.17736,-2.63759 -1.34591,-0.21788 -4.0225,1.80487 -4.5655,3.45012 -0.18118,0.54906 -0.43876,0.9982 -0.57239,0.9982 -0.5253,0 -1.26684,-2.72875 -1.25932,-4.63413 0.0102,-2.57953 0.57999,-3.51649 2.9938,-4.92277 2.43678,-1.41972 3.03298,-2.03975 3.47312,-3.61173 0.68331,-2.44056 2.91475,-3.88455 6.01948,-3.89539 1.1447,-0.007 1.75869,0.10156 1.64656,0.283 -0.28574,0.46235 0.0426,0.34112 1.19564,-0.44135 0.59218,-0.40184 1.37915,-0.80659 1.74883,-0.89938 0.81575,-0.20468 0.83948,-0.59888 0.0935,-1.55261 -0.71678,-0.91631 -0.73494,-2.14145 -0.0416,-2.80967 0.29534,-0.2847 0.61546,-0.93012 0.71136,-1.43426 0.17371,-0.91327 0.17092,-0.91572 -0.75209,-0.65099 -1.44019,0.41305 -2.96648,0.31684 -4.80572,-0.30267 -1.32791,-0.44735 -2.2083,-0.5403 -4.13393,-0.43629 -3.09961,0.1674 -3.67035,-0.13987 -3.2612,-1.75557 0.32916,-1.29983 1.27101,-2.06618 3.11867,-2.53751 l 1.35916,-0.34677 -1.52221,-1.18364 c -2.19361,-1.70568 -2.62369,-1.87791 -4.88128,-1.9549 -2.26746,-0.0773 -2.56066,-0.29769 -2.56775,-1.9301 -0.005,-1.25491 0.56362,-2.1122 1.72002,-2.59119 0.48374,-0.20044 0.87951,-0.40058 0.87951,-0.44483 0,-0.0445 -0.44283,-0.73851 -0.98408,-1.5428 -0.54124,-0.8043 -1.0405,-1.63116 -1.10947,-1.83739 -0.0892,-0.26688 -0.8164,-0.37504 -2.52157,-0.37504 l -2.39619,0 0.17431,-1.66723 c 0.19728,-1.88682 1.06056,-3.8049 1.91936,-4.26458 0.31774,-0.17 0.57771,-0.56004 0.57771,-0.86679 0,-0.70251 -1.13155,-3.75954 -1.3951,-3.76897 -1.36922,-0.049 -3.46351,-0.41959 -3.77144,-0.66724 -0.4793,-0.38567 -0.2652,-2.39357 0.3904,-3.6614 0.53975,-1.0437 1.74374,-2.19008 2.73547,-2.60455 0.52945,-0.2213 0.87965,-0.73235 1.23633,-1.80441 0.2737,-0.82263 0.42571,-1.56768 0.33781,-1.65572 -0.23878,-0.23927 -5.28025,-0.19317 -6.69989,0.0609 -1.39502,0.24996 -1.5759,0.0319 -1.89962,-2.29023 -0.17095,-1.2261 -0.058,-1.44481 1.72289,-3.33571 0.82042,-0.87103 6.24184,-3.46905 6.88735,-3.30038 0.33025,0.0862 1.48163,0.41165 2.5586,0.723 l 1.95814,0.56621 -0.50965,-0.86271 c -0.33602,-0.56889 -1.20023,-1.19493 -2.53679,-1.8379 -2.96629,-1.427 -8.29216,-6.91768 -9.80757,-10.11115 -0.86209,-1.81674 -0.91122,-2.89512 -0.1636,-3.59161 0.35957,-0.33504 0.76425,-0.54082 0.89928,-0.45738 0.31691,0.19591 0.30992,0.0994 -0.0721,-0.99657 l -0.31762,-0.91111 -2.648,-0.0238 c -1.45639,-0.0126 -3.00058,-0.0819 -3.43154,-0.15293 -0.61089,-0.10066 -0.89646,0.0431 -1.29586,0.6527 -0.37464,0.57178 -0.41676,0.81372 -0.15676,0.90035 0.90324,0.30111 0.29214,2.2785 -1.98886,6.43558 -0.91682,1.67086 -2.07084,4.0795 -2.5645,5.3526 -0.49365,1.27302 -1.03262,2.55562 -1.1977,2.85027 -0.65822,1.17459 -0.89203,7.67341 -0.39965,11.10846 0.1966,1.37154 1.35867,2.96698 2.16108,2.96698 0.9923,0 1.19487,1.85326 0.32058,2.93305 -0.49808,0.61505 -0.77653,0.68083 -2.82095,0.66635 -1.74629,-0.0126 -2.54745,-0.16139 -3.4812,-0.64772 -2.34145,-1.2195 -3.83418,-4.00229 -3.84401,-7.16615 -0.012,-3.85679 0.56942,-5.73307 3.13772,-10.12562 l 0.85654,-1.46501 -0.80523,-0.30393 c -0.76089,-0.28722 -0.87294,-0.21729 -2.03445,1.26991 -1.80833,2.31539 -3.06418,2.54768 -3.712865,0.68692 -0.236454,-0.67831 -0.192097,-1.0538 0.214351,-1.81444 1.230184,-2.30225 2.086764,-3.65293 2.626244,-4.14112 0.31862,-0.28833 0.57932,-0.69404 0.57932,-0.90154 0,-0.65618 -0.99733,-2.41183 -1.37432,-2.41925 -0.19891,-0.007 -0.36166,-0.14395 -0.36166,-0.3112 0,-0.16726 -0.45313,-0.49339 -1.00697,-0.72486 -1.44493,-0.6037 -2.032491,-1.65475 -2.004243,-3.58515 0.02509,-1.71563 0.940953,-3.95567 1.743198,-4.26346 0.242985,-0.0933 0.790455,0.0859 1.216575,0.39821 1.20776,0.88506 2.57223,1.24615 4.70915,1.24615 1.89693,0 1.99425,-0.0349 2.71674,-0.98246 l 0.74934,-0.98246 -0.878,-0.96123 c -1.48533,-1.62624 -1.5284,-3.73429 -0.10328,-5.05505 1.06659,-0.98847 2.30702,-0.90191 6.38112,0.44557 2.85115,0.94297 7.49641,2.32772 7.80856,2.32772 0.043,0 0.0781,-0.38871 0.0781,-0.86383 0,-0.78521 -0.12122,-0.89434 -1.33158,-1.19916 l -1.33157,-0.33525 0.19069,-2.05586 c 0.58291,-6.28391 2.28312,-12.56151 3.77716,-13.94619 0.39633,-0.36725 0.72187,-0.90184 0.72342,-1.18795 0.006,-1.04125 1.97649,-3.18108 5.87017,-6.37329 1.26268,-1.03517 1.91021,-1.76084 1.80831,-2.02639 -0.0873,-0.22746 -0.15875,-0.53035 -0.15875,-0.67296 0,-0.14261 -0.61137,0.12843 -1.35862,0.60236 -0.74725,0.47386 -1.51844,0.8616 -1.71377,0.8616 -0.19534,0 -0.78101,0.35805 -1.3015,0.79561 -0.78944,0.66376 -1.2142,0.79419 -2.56194,0.78662 -1.8769,-0.0104 -3.33737,-0.76517 -4.54516,-2.34865 -0.65528,-0.85916 -0.70564,-1.05744 -0.35546,-1.3996 0.23535,-0.22999 1.14249,-0.42657 2.14394,-0.46458 2.46882,-0.0938 3.87806,-0.58076 6.90147,-2.38503 2.55381,-1.52395 2.67413,-1.64236 3.10878,-3.05881 l 0.45214,-1.47339 -1.61458,0 c -1.2484,0 -1.94269,-0.19183 -3.06123,-0.83651 -1.61162,-0.92879 -3.90594,-3.0568 -3.90594,-3.62287 0,-0.20177 -0.2604,-0.60251 -0.57866,-0.89055 -1.36335,-1.23383 -0.25175,-1.3342 2.8644,-0.25864 2.51699,0.8688 4.94305,0.86249 8.04153,-0.0208 1.45617,-0.41514 1.92857,-0.708 2.5203,-1.56233 0.40052,-0.57831 0.98834,-1.3872 1.30627,-1.79758 l 0.57804,-0.74609 -1.53204,0.12702 c -2.19152,0.18173 -4.4866,-1.12589 -5.55084,-3.16259 -0.3394,-0.64958 -0.33992,-0.81684 -0.004,-1.09612 0.30679,-0.25464 0.64108,-0.16399 1.46986,0.39843 1.25479,0.85151 2.01938,0.80258 5.19163,-0.33214 3.22587,-1.15394 5.56495,-2.56587 5.78582,-3.49243 0.10318,-0.43295 0.25531,-1.01497 0.33804,-1.29344 0.10916,-0.36755 -0.0137,-0.50645 -0.44773,-0.50645 -0.32898,0 -0.59815,-0.12234 -0.59815,-0.27178 0,-0.55121 6.11006,-6.39059 7.54331,-7.20913 l 1.48178,-0.84631 -1.03607,-0.34194 c -1.75989,-0.58076 -2.35472,-1.75274 -2.63019,-5.18207 -0.17293,-2.15289 1.48246,-4.69359 4.76768,-7.31745 2.6991,-2.1557 4.91215,-2.87195 6.44232,-2.0851 2.31604,1.19099 6.19399,4.73583 6.91715,6.32303 0.17974,0.3945 0.56077,0.79152 0.84675,0.88224 0.82218,0.26094 0.90644,1.11103 0.29052,2.93126 -1.07093,3.16505 -2.04279,5.0829 -2.48892,4.91171 -0.22887,-0.0878 -0.49309,-0.0349 -0.58714,0.117 -0.0941,0.15218 -0.0495,0.27668 0.099,0.27668 1.23304,0 8.12623,7.29302 7.34786,7.77408 -0.45381,0.28047 0.16091,2.58539 0.77753,2.91545 0.26065,0.1395 0.99231,0.34833 1.6259,0.46406 0.6336,0.11574 1.54259,0.48529 2.01999,0.82129 1.26628,0.89122 4.34732,0.85284 6.5543,-0.0817 1.86603,-0.79019 2.55955,-0.67527 2.55955,0.42419 0,0.55671 -0.53633,1.29864 -1.98857,2.75087 -1.0937,1.09374 -2.34327,2.12342 -2.77681,2.2883 -0.9015,0.34275 -2.50399,0 -4.29778,-0.91268 l -1.10987,-0.56621 1.13227,1.52863 c 1.18647,1.60182 2.39302,2.25964 5.71348,3.11478 2.12889,0.54832 5.62453,0.63562 7.14351,0.17847 1.66201,-0.50014 2.10627,-0.2389 1.88736,1.11007 -0.36511,2.24999 -3.09285,4.52641 -5.45668,4.55395 -1.34032,0.0156 -3.26025,-0.57482 -4.7746,-1.46834 l -0.923,-0.54461 0.3606,1.06153 c 0.43297,1.27458 3.14497,3.46674 5.27675,4.26524 0.77255,0.28938 1.86034,0.82114 2.4173,1.18156 1.14302,0.73978 3.8394,1.4091 6.70402,1.66404 2.435,0.21677 2.84383,0.37824 2.84383,1.12336 0,0.74564 -2.58958,3.29043 -3.90959,3.84194 -0.82558,0.34498 -1.1313,0.34498 -2.10812,3e-4 -1.41318,-0.49858 -4.99476,-2.51213 -6.39384,-3.59458 -1.50128,-1.16153 -3.21718,-2.15935 -3.39962,-1.97688 -0.0863,0.0863 -0.0745,0.53251 0.0264,0.99152 0.13561,0.61743 0.44749,0.93012 1.19874,1.20176 1.99825,0.72263 7.91294,6.90854 10.92217,11.42315 1.96867,2.95346 3.53699,8.26189 3.86765,13.09119 0.15658,2.28674 0.14207,2.35719 -0.53705,2.60396 -0.56062,0.2037 -0.66767,0.40155 -0.54398,1.00532 l 0.15399,0.75173 1.73598,-0.35849 c 0.95478,-0.19725 2.59276,-0.75181 3.63995,-1.23235 2.2571,-1.03568 4.69719,-1.79313 5.77672,-1.79313 1.03686,0 2.21344,0.96739 2.44194,2.00768 0.19745,0.89902 -0.26387,2.05668 -1.21449,3.04767 -0.53386,0.55656 -0.5342,0.59828 -0.0138,1.67547 0.89419,1.85074 3.41229,2.95324 5.12502,2.24375 0.46493,-0.19257 1.49572,-1.06026 2.29066,-1.92817 1.31663,-1.43746 1.49858,-1.54473 2.04324,-1.20458 0.98563,0.61551 1.58686,2.22646 1.59915,4.2847 0.015,2.50826 -0.47509,3.60356 -1.86028,4.15782 l -1.09523,0.4383 -0.20183,2.42274 c -0.17619,2.11525 -0.12918,2.54894 0.37035,3.41619 0.9335,1.62075 1.02922,2.68294 0.37505,4.16175 -0.7053,1.59447 -1.68202,1.83901 -1.95207,0.48878 -0.15114,-0.75574 -0.22564,-0.79961 -0.85849,-0.50637 -0.88206,0.40882 -0.87296,0.57979 0.14232,2.67574 2.0573,4.24705 2.59017,8.07192 1.45208,10.42287 -1.27397,2.63165 -4.82308,4.87659 -7.42491,4.69649 -1.53842,-0.10645 -1.56788,-0.15211 -0.91105,-1.41229 0.86194,-1.65364 1.63755,-5.83351 1.64735,-8.8777 0.007,-2.23254 -0.0774,-2.73097 -0.53327,-3.14358 -0.2993,-0.2709 -0.62706,-1.09055 -0.73225,-1.83137 -0.10474,-0.73755 -0.61224,-2.3174 -1.12776,-3.51091 -0.51553,-1.19345 -1.10469,-2.69074 -1.30926,-3.32733 -0.20457,-0.63651 -0.82808,-1.84978 -1.38558,-2.69608 -1.31172,-1.99143 -2.78084,-6.21012 -2.5553,-7.33786 0.0923,-0.46161 0.0201,-1.07593 -0.1604,-1.36501 -0.31628,-0.50645 -0.39272,-0.50682 -2.09275,-0.0104 -0.97046,0.28344 -2.0197,0.55864 -2.33164,0.61142 -0.3794,0.0638 -0.63304,0.41825 -0.76622,1.06939 -0.1654,0.80874 -0.10617,0.9976 0.35016,1.11698 0.5862,0.1533 0.65684,0.42864 0.57628,2.24613 -0.12691,2.86282 -2.32394,8.29975 -4.15055,10.2712 -0.3686,0.39777 -1.16233,1.37139 -1.76383,2.16351 -0.6015,0.79204 -3.07081,3.51411 -5.48736,6.04887 -2.41655,2.53477 -4.5292,4.75105 -4.69476,4.92499 -1.29831,1.36434 -4.32048,5.2941 -5.27866,6.86393 -2.279,3.73385 -4.23354,8.76589 -4.54074,11.69033 -0.0997,0.9492 -0.36457,2.507 -0.58858,3.46178 -0.53275,2.2707 -0.7043,3.84602 -1.16579,10.7052 -0.0964,1.43219 -0.21924,3.12473 -0.27308,3.76124 -0.0538,0.63651 -0.18489,2.58948 -0.29122,4.33993 -0.10633,1.75044 -0.24023,3.50816 -0.29756,3.90593 -0.0573,0.39784 -0.18765,1.63471 -0.2896,2.74864 -0.39426,4.30793 -2.1196,10.8006 -2.76424,10.40216 -0.14697,-0.0908 -0.26724,-0.75848 -0.26724,-1.48371 l 0,-1.31853 -1.11634,1.00852 c -0.61399,0.5547 -1.23243,1.0581 -1.37431,1.11861 -0.14189,0.0609 -0.64104,0.87607 -1.10924,1.81221 -0.94349,1.88652 -2.17067,2.94552 -4.93581,4.25938 -2.09484,0.99537 -3.56343,1.17406 -5.52256,0.67207 z m 47.91489,-101.57862 c -1.18066,-4.02337 -0.37736,-7.52553 2.67742,-11.67266 2.31716,-3.14574 3.05543,-3.58218 6.02872,-3.56407 1.95449,0.0119 2.54767,0.14343 4.09279,0.90719 1.96838,0.97295 3.75199,2.54196 4.47706,3.93837 1.56947,3.02251 -0.60953,7.5778 -4.49548,9.39788 l -1.45359,0.68075 -1.69074,-1.32833 c -1.96418,-1.5431 -2.56648,-2.44991 -2.80987,-4.23027 -0.0968,-0.70786 -0.29527,-1.40636 -0.44113,-1.55216 -0.45472,-0.45478 -1.20964,1.46463 -1.38112,3.51151 -0.20748,2.47641 -0.73907,3.81232 -1.517,3.81232 -1.73832,0 -0.78711,-5.04815 1.58103,-8.39055 0.84071,-1.18661 1.54944,-3.76124 1.03536,-3.76124 -0.11085,0 -0.73172,0.55329 -1.37971,1.22959 -2.01922,2.10753 -2.76608,3.89398 -3.57472,8.55083 -0.31902,1.83715 -0.63463,3.39488 -0.70135,3.46162 -0.0667,0.0668 -0.26818,-0.37913 -0.44767,-0.99078 z m -83.71942,0.26214 c -0.0728,-0.1193 -0.21659,-1.38876 -0.31951,-2.82095 -0.10293,-1.43219 -0.25508,-2.83172 -0.33813,-3.11004 -0.26656,-0.89359 -2.15449,-3.52294 -3.02748,-4.21646 l -0.8459,-0.67193 0,1.0642 c 0,0.70384 0.23727,1.34615 0.70084,1.89706 1.5371,1.82676 2.81106,7.19718 1.79939,7.58544 -0.55517,0.21299 -0.89379,-0.34914 -1.18641,-1.96959 -0.26711,-1.47926 -1.09467,-3.2859 -1.89533,-4.13763 -0.8702,-0.92574 -1.53484,-0.37883 -1.36165,1.12054 0.1535,1.32893 -0.31246,2.4465 -1.52983,3.66889 -1.22606,1.23123 -2.35229,1.51185 -4.28842,1.06873 -1.72219,-0.39428 -3.37993,-1.58104 -4.22615,-3.02555 -0.759227,-1.29604 -0.71677,-3.61047 0.0971,-5.29165 0.78858,-1.629 2.96492,-3.78983 4.65725,-4.62404 1.97532,-0.9737 4.5939,-0.88624 6.6081,0.22071 4.22119,2.31978 7.4492,8.45766 6.43176,12.22967 -0.30021,1.11297 -0.91609,1.6019 -1.2756,1.0126 z"
           id="path3928"
           inkscape:connector-curvature="0" />
        <path
           style="fill:#000000"
           d="m 148.97356,997.53162 c -0.43397,-0.52294 -1.67221,-1.12741 -2.75161,-1.34324 -1.07942,-0.21583 -2.83691,-1.2668 -3.9055,-2.33542 -2.47206,-2.47208 -3.94049,-2.4744 -4.87155,-0.007 -0.90895,2.40802 -3.21595,2.60254 -5.24548,0.44221 -1.14357,-1.21729 -1.40255,-2.26852 -1.40255,-5.69309 0,-4.36166 0.99677,-6.1396 4.04625,-7.21707 0.6289,-0.22219 1.32356,-0.91854 1.54367,-1.54746 0.22013,-0.62893 1.43356,-2.23204 2.69651,-3.56247 1.86764,-1.96736 2.7536,-2.41896 4.74567,-2.41896 1.34713,0 2.44486,-0.21771 2.43944,-0.4838 -0.0299,-1.46272 -1.49964,-2.19898 -5.20565,-2.6077 -3.43651,-0.37899 -4.24576,-0.70233 -4.77461,-1.90772 -0.35019,-0.79826 -0.85819,-1.45138 -1.12886,-1.45138 -0.68057,0 -0.62166,-1.7779 0.0678,-2.04268 0.30785,-0.11828 0.74439,-0.80997 0.97004,-1.53717 0.36904,-1.18941 0.18244,-1.29557 -1.85883,-1.05722 -3.22341,0.37631 -4.40448,-0.80926 -3.97751,-3.99269 0.18849,-1.40536 0.79918,-2.81065 1.35702,-3.12284 1.8205,-1.01879 1.07255,-1.71921 -2.04973,-1.91956 l -3.06404,-0.19659 -0.20049,-3.1595 c -0.18012,-2.8378 0.003,-3.34682 1.8137,-4.99921 2.08256,-1.9021 2.02954,-2.07183 -0.57869,-1.85257 -3.07261,0.25826 -6.09576,-2.84601 -4.0206,-4.12853 0.30896,-0.19094 0.74783,-1.27756 0.97523,-2.41472 0.22743,-1.13713 0.89049,-2.59457 1.47341,-3.23872 0.58297,-0.64412 0.74179,-1.17115 0.35295,-1.17115 -0.38884,0 -0.87564,0.27292 -1.08184,0.60653 -0.63834,1.03288 -4.05679,-0.57347 -4.46576,-2.09852 -1.00697,-3.75482 0.33215,-8.18393 2.47436,-8.18393 0.47409,0 1.02908,-0.43539 1.2333,-0.96759 0.2042,-0.53215 0.81584,-0.96756 1.35915,-0.96756 1.40165,0 1.20235,-0.65524 -0.97359,-3.20093 -1.04991,-1.22832 -1.92074,-2.53457 -1.93516,-2.90275 -0.0151,-0.36822 -0.88524,-1.67443 -1.93518,-2.90279 -1.04996,-1.22832 -1.92737,-2.6797 -1.94987,-3.22526 -0.0338,-0.82261 -1.27759,1.53244 -1.34968,2.55583 -0.0118,0.17741 -0.21273,0.46768 -0.44491,0.64506 -0.6436,0.49167 -2.02627,2.76572 -2.45135,4.03162 -0.20846,0.62086 -0.63363,1.12887 -0.9448,1.12887 -0.31119,0 -0.4658,0.6531 -0.34356,1.45138 0.21878,1.42869 0.0613,1.96417 -1.41975,4.82918 -1.31462,2.54306 -0.93681,7.26 0.70564,8.8095 0.79826,0.75312 1.88285,2.20184 2.4102,3.21936 0.93704,1.8079 0.90151,1.89963 -1.55884,4.0264 -3.0394,2.6274 -4.40355,2.69803 -8.73223,0.45223 -2.52717,-1.31114 -3.41063,-2.16101 -3.68798,-3.54783 -0.20061,-1.00299 -0.58462,-1.82364 -0.85337,-1.82364 -0.26873,0 -0.69323,-2.18327 -0.943292,-4.85177 -0.250053,-2.66843 -0.89935,-5.74314 -1.442848,-6.83263 -1.169742,-2.34483 -0.799286,-6.56917 0.723662,-8.25203 1.457988,-1.61107 1.273438,-2.45026 -0.75167,-3.41766 -1.617583,-0.77274 -1.790811,-1.20212 -1.965954,-4.87311 -0.105531,-2.21416 0.0781,-4.02574 0.408583,-4.02574 0.330325,0 0.752416,-0.58055 0.937974,-1.29011 0.409172,-1.56471 3.733955,-1.79252 5.172105,-0.35438 0.51464,0.51465 1.68783,1.12452 2.60707,1.35522 l 1.67134,0.4195 -1.48389,-2.80664 c -0.81615,-1.54362 -2.0412,-2.9068 -2.72227,-3.02927 -0.6811,-0.12246 -2.21127,-1.13845 -3.400352,-2.25769 -2.127321,-2.00241 -2.15642,-2.10443 -1.813746,-6.36187 0.333007,-4.13724 0.480947,-4.454 3.376258,-7.22821 2.87068,-2.75059 3.21628,-2.89947 6.65166,-2.86536 4.35382,0.043 6.08019,0.73493 9.26793,3.71362 2.23928,2.09239 2.41897,2.15476 2.41897,0.83928 0,-0.78156 0.29029,-1.42102 0.64506,-1.42102 0.35478,0 0.64508,-0.34414 0.64508,-0.76477 0,-0.42058 0.59551,-1.39865 1.32342,-2.17345 l 1.32341,-1.40873 -2.93607,-2.93607 c -2.1884,-2.1884 -2.93608,-3.43213 -2.93608,-4.8841 0,-2.47175 0.81432,-2.95992 4.9669,-2.97755 4.88571,-0.0206 5.53638,-1.04767 2.58125,-4.07401 -1.31321,-1.34484 -2.38767,-2.7958 -2.38767,-3.22434 0,-0.42849 -0.3078,-0.77911 -0.684,-0.77911 -1.10282,0 -0.40945,-4.62848 0.8075,-5.39056 0.82542,-0.5169 1.38665,-0.41579 2.30482,0.41517 1.61455,1.46113 6.8928,2.20092 7.59513,1.0645 0.33361,-0.53981 0.0198,-1.1682 -0.88251,-1.76732 -1.57946,-1.04872 -1.97302,-5.10204 -0.62617,-6.44889 0.93736,-0.93735 3.09629,-1.02731 3.09629,-0.12899 0,0.99414 1.79177,0.76589 3.7318,-0.47541 2.99791,-1.91819 4.21895,-3.38833 5.90043,-7.10402 0.36125,-0.79826 1.06385,-1.4514 1.56134,-1.4514 1.85951,0 2.41151,-1.61898 1.30692,-3.83324 -1.05251,-2.10976 -0.93452,-6.88413 0.19052,-7.70951 0.29298,-0.21497 0.84239,-0.95198 1.22085,-1.63782 0.3785,-0.68587 1.23064,-1.55669 1.8936,-1.93519 0.66302,-0.37849 1.81942,-1.32124 2.56981,-2.09498 0.75039,-0.77374 2.14794,-1.60348 3.1056,-1.84385 0.95768,-0.24036 1.74125,-0.69582 1.74125,-1.01217 0,-1.17774 3.36778,-0.52098 5.04034,0.98299 9.45462,8.50158 9.79656,8.89611 9.77551,11.27999 -0.0118,1.27644 -0.44674,2.88425 -0.96761,3.57293 -1.39534,1.84482 -1.18886,2.64382 1.31064,5.0713 1.24173,1.20596 2.2577,2.47186 2.2577,2.81313 0,0.34127 0.8907,1.47305 1.97933,2.51507 1.81413,1.73648 2.36595,1.8946 6.61186,1.8946 l 4.63251,0 0.20077,2.42828 c 0.14063,1.70193 -0.19694,2.9339 -1.12886,4.11859 -0.73128,0.92969 -1.32962,1.94149 -1.32962,2.24841 0,0.77724 3.06009,0.70224 3.54784,-0.0868 0.55106,-0.89166 3.12492,-0.80993 4.06387,0.12898 0.42574,0.42577 0.77406,1.93588 0.77406,3.35586 0,2.02819 -0.44049,3.03625 -2.05424,4.70124 l -2.05427,2.11947 2.05427,0.41086 c 1.12984,0.22595 2.05424,0.66482 2.05424,0.97528 0,0.31042 1.24818,0.5644 2.77375,0.5644 5.18762,0 5.75559,2.83977 1.41914,7.09566 -3.26395,3.20332 -3.44637,3.8235 -1.61264,5.48301 0.70955,0.64214 1.29012,1.55796 1.29012,2.03514 0,0.47719 0.271,0.8676 0.60221,0.8676 0.33121,0 0.69407,0.77611 0.80631,1.72465 0.18948,1.60088 0.31299,1.50534 1.72119,-1.33103 1.89065,-3.80819 3.41146,-4.43267 10.11999,-4.15564 4.95647,0.2047 5.2844,0.31433 7.39615,2.47192 1.9299,1.97183 2.24138,2.75197 2.45996,6.16118 0.24912,3.88582 0.23691,3.91722 -2.69542,6.93438 -1.62014,1.66702 -3.36146,3.03091 -3.86957,3.03091 -0.61195,0 -1.02069,0.92568 -1.21053,2.74147 -0.15765,1.50784 -0.1777,2.87292 -0.0445,3.0335 0.13316,0.1606 1.42619,-0.92795 2.87335,-2.41895 1.4472,-1.49104 2.88812,-2.71096 3.20211,-2.71096 0.31394,0 1.22185,0.65103 2.01757,1.44675 1.1751,1.17512 1.49142,2.3315 1.68472,6.1589 0.2591,5.1307 -0.71207,7.23069 -3.34387,7.23069 -1.27794,0 -1.27605,0.0283 0.10015,1.49298 1.95723,2.08337 1.93187,6.3464 -0.049,8.20296 -1.44301,1.3526 -1.44394,1.36594 -0.16127,2.31325 1.09414,0.80805 1.28429,1.6739 1.25175,5.69968 -0.0411,5.09982 0.006,5.01635 -4.9936,8.80486 -1.85634,1.40662 -7.66637,2.02333 -9.33663,0.99103 -1.10542,-0.68319 -0.98748,-3.96103 0.1773,-4.9277 0.72623,-0.60272 0.96761,-2.22202 0.96761,-6.49151 0,-3.12866 -0.27761,-5.86003 -0.61692,-6.06971 -0.33928,-0.2097 -0.45337,-0.80741 -0.2535,-1.32822 0.19984,-0.52079 0.0652,-0.94691 -0.29945,-0.94691 -0.36455,0 -0.85409,-0.87083 -1.08786,-1.93517 -0.23377,-1.06436 -0.65839,-1.93519 -0.9436,-1.93519 -0.28524,0 -0.70221,-0.50799 -0.92665,-1.12886 -0.22442,-0.62086 -0.83458,-1.85455 -1.35585,-2.74149 l -0.94776,-1.61265 -0.0101,1.77391 c -0.003,0.97564 -0.29981,1.77393 -0.65461,1.77393 -0.35479,0 -0.64505,0.82583 -0.64505,1.83517 0,1.016 -0.57589,2.35641 -1.29012,3.00277 -0.70957,0.64214 -1.29013,1.37622 -1.29013,1.63131 0,0.25512 -2.61249,3.02028 -5.80551,6.14485 -3.19305,3.12455 -5.80554,5.94503 -5.80554,6.26771 0,0.32268 -1.24943,2.08438 -2.77654,3.91488 -3.2548,3.9015 -6.01952,9.12246 -6.63263,12.52526 -0.2392,1.32769 -0.6937,2.74168 -1.01004,3.14219 -0.3163,0.40054 -0.7367,3.15817 -0.93414,6.12807 -0.1975,2.96989 -0.60551,5.98038 -0.90669,6.68995 -0.30119,0.70957 -0.68469,5.6006 -0.85217,10.86899 -0.18115,5.69906 -0.59201,9.86639 -1.01432,10.2887 -0.3904,0.3904 -0.70981,1.45805 -0.70981,2.37262 0,1.86871 -1.57758,3.49319 -3.97719,4.09543 -0.88395,0.22187 -1.94097,1.13602 -2.34898,2.03149 -0.40799,0.89545 -1.01757,1.62814 -1.35465,1.62814 -0.33702,0 -1.12051,0.50787 -1.74108,1.12875 -1.55423,1.55515 -11.21831,2.04036 -12.39505,0.62255 z m 10.12458,-2.56423 c 4.94535,-2.53226 5.63234,-4.61346 6.12487,-18.55445 0.23158,-6.55483 0.45865,-13.80471 0.50456,-16.11079 0.0459,-2.3061 0.29331,-4.48317 0.54971,-4.83795 0.2564,-0.35476 0.63867,-2.58848 0.8495,-4.96379 0.21082,-2.37531 0.66085,-4.84268 1.00011,-5.48301 0.33924,-0.64035 1.24392,-3.19618 2.01041,-5.67965 0.76645,-2.4835 2.09781,-5.43946 2.95857,-6.56881 0.86075,-1.1294 1.565,-2.24165 1.565,-2.4717 0,-0.23005 1.01596,-1.65814 2.2577,-3.17349 1.24174,-1.51538 2.25771,-2.99906 2.25771,-3.29704 0,-0.29802 2.46735,-2.93803 5.48302,-5.86673 3.26557,-3.17144 5.48296,-5.84485 5.48296,-6.61059 0,-0.70712 0.2903,-1.46507 0.64506,-1.68435 1.26865,-0.78405 0.66112,-2.9286 -1.00957,-3.56379 -2.70493,-1.02844 -3.30616,-0.7634 -4.79222,2.11241 -1.686,3.2628 -5.59142,8.45125 -8.34508,11.08668 -1.08877,1.04202 -1.97958,2.22511 -1.97958,2.62905 0,0.40396 -0.71712,1.40813 -1.59356,2.23153 -1.42381,1.33761 -6.14714,8.62281 -6.14714,9.48131 0,0.18704 -0.39042,1.25476 -0.86754,2.37274 -2.88088,6.74995 -4.31519,15.08697 -3.82532,22.23447 0.38211,5.57465 -0.28301,6.85566 -1.62815,3.13576 -0.89476,-2.47438 -1.05044,-11.80247 -0.2057,-12.32455 0.31292,-0.1934 0.77113,-2.23939 1.01821,-4.54669 0.24709,-2.30729 0.68385,-4.34006 0.97057,-4.51724 0.28672,-0.17721 0.70717,-1.31281 0.93429,-2.52353 0.43468,-2.31707 3.08831,-7.74761 4.62986,-9.47477 0.49993,-0.56013 0.90895,-1.29703 0.90895,-1.63757 0,-0.34054 1.7349,-2.6399 3.85535,-5.10967 7.55667,-8.80156 10.03608,-11.95044 10.55636,-13.40676 0.60306,-1.68802 -0.66774,-3.66239 -2.3573,-3.66239 -0.79554,0 -2.01898,-0.39138 -2.71876,-0.8697 -0.69986,-0.47833 -2.17556,-1.04358 -3.2794,-1.25608 l -2.00696,-0.38641 -0.41626,4.47859 c -0.45563,4.90267 -2.74953,9.56809 -6.48217,13.18383 -2.98888,2.89528 -8.60538,5.53045 -12.83656,6.02269 -4.21766,0.4907 -4.62954,0.93728 -6.6495,7.20966 -1.33609,4.14879 -1.56935,15.05701 -0.34812,16.27825 0.41323,0.41322 0.75133,1.57753 0.75133,2.58732 0,1.00978 1.01595,4.00601 2.25769,6.65824 1.24173,2.65225 2.25769,4.97764 2.25769,5.16756 0,0.18991 1.27557,3.02081 2.83455,6.29089 5.95525,12.49134 6.30213,17.71624 1.33277,20.07435 -3.35447,1.59182 -5.58369,1.27943 -7.83372,-1.09774 -3.87042,-4.08917 -4.26263,-6.17131 -1.83603,-9.74712 l 1.59319,-2.34773 -1.94775,0 c -3.15795,0 -5.54758,1.60001 -6.00126,4.01826 -0.32115,1.7118 -0.90804,2.34902 -2.99705,3.25404 -1.47316,0.6382 -2.81694,1.75114 -3.10407,2.57081 -0.67069,1.91464 -0.48788,5.06376 0.38445,6.62254 0.66717,1.19216 0.72276,1.17436 1.10642,-0.35429 0.22218,-0.88523 1.29205,-2.11919 2.37748,-2.74216 1.90898,-1.0956 2.04512,-1.08842 4.16193,0.21986 1.20364,0.74387 2.19174,1.54656 2.1958,1.78368 0.002,0.23715 1.09261,0.93628 2.41898,1.55362 7.67227,3.57077 8.86047,3.71863 12.97372,1.6124 z m 10.18433,-11.19079 c 0.54795,-2.79966 1.25351,-10.31525 1.56794,-16.70136 0.31442,-6.38604 0.86501,-12.11507 1.22348,-12.73114 0.35848,-0.61607 0.65181,-2.10466 0.65181,-3.30802 0,-3.26464 2.64059,-9.67103 5.83945,-14.16702 1.55815,-2.19008 5.38101,-6.48793 8.4952,-9.55087 3.1142,-3.06292 5.66717,-5.82054 5.67329,-6.12805 0.006,-0.30751 0.73182,-1.2427 1.61266,-2.07818 0.88082,-0.83552 1.6015,-1.82863 1.6015,-2.20692 0,-0.37834 0.38566,-1.14613 0.857,-1.70621 1.17569,-1.39709 2.54639,-7.87142 1.82021,-8.59759 -0.3179,-0.31792 -1.55831,-0.48429 -2.75648,-0.36975 -1.72536,0.16493 -2.22337,0.5257 -2.39443,1.73474 -0.40341,2.85144 -3.46408,7.49092 -7.97805,12.09342 -2.47546,2.52399 -4.83751,5.16254 -5.24902,5.86341 -0.41154,0.70087 -2.17193,3.42536 -3.91204,6.05436 -6.59443,9.96333 -8.11019,16.3863 -8.11349,34.38116 -9.9e-4,5.99192 -0.27346,11.2214 -0.60516,11.62108 -0.49334,0.59447 -0.94075,7.40624 -0.74338,11.3179 0.11756,2.32733 1.48812,-0.81333 2.40951,-5.52096 z m -13.91161,3.80146 c 1.03036,-0.60868 1.90282,-1.55207 1.93877,-2.09644 0.17371,-2.63067 -0.2548,-5.39943 -1.08059,-6.98238 -0.50161,-0.96144 -0.91378,-2.11095 -0.91599,-2.55444 -9.9e-4,-0.44346 -0.29422,-0.80632 -0.64902,-0.80632 -0.35476,0 -0.64503,-0.66762 -0.64503,-1.48362 0,-1.78669 -1.12096,-3.03176 -2.72948,-3.03176 -1.42055,0 -2.18445,1.63877 -1.28177,2.74968 1.50687,1.85464 4.65628,8.35193 4.65628,9.60605 0,0.74838 -1.03662,2.33835 -2.30362,3.53329 l -2.30364,2.17259 1.72031,0 c 0.94618,0 2.56338,-0.49797 3.59378,-1.10665 z m -4.4667,-2.54112 c 1.42576,-1.29028 1.53459,-3.64037 0.21916,-4.73208 -0.52826,-0.43843 -0.78218,-1.08561 -0.56428,-1.43821 0.24867,-0.40231 -0.17441,-0.46537 -1.13594,-0.16931 -0.8427,0.25947 -1.53218,0.50828 -1.53218,0.5529 0,0.0444 -0.30886,0.66168 -0.68634,1.37126 -0.66526,1.2505 -0.43717,2.1333 1.20838,4.67668 0.68545,1.05939 1.07731,1.01832 2.4912,-0.26124 z m 0.30446,-16.67977 c 0.20596,-0.53669 0.083,-1.33497 -0.27334,-1.77393 -0.35631,-0.43895 -0.75531,-1.37707 -0.88666,-2.08474 -0.21743,-1.17134 -0.66276,-1.26703 -4.97103,-1.06798 -5.13265,0.23708 -7.18508,1.29212 -7.18508,3.6934 0,1.25637 0.27088,1.34859 3.14901,1.07204 1.73198,-0.16644 3.69133,0.0118 4.35414,0.39758 1.81277,1.05321 5.37368,0.9084 5.81296,-0.23637 z m -3.07978,-7.1303 c 0.1309,-0.11982 -0.30457,-1.53703 -0.96759,-3.14916 l -1.20548,-2.9312 -4.8557,-0.002 c -5.75605,-0.002 -7.91136,1.0662 -7.59851,3.76902 0.17567,1.51792 0.43967,1.68805 2.33363,1.50376 1.17459,-0.11428 2.48084,0.0758 2.90277,0.42202 1.13799,0.93408 3.66342,1.29056 6.57273,0.92775 1.41914,-0.17699 2.68731,-0.41987 2.81815,-0.53975 z m -3.1407,-8.34291 c 0.56012,-0.67487 0.60147,-1.2115 0.13674,-1.77391 -0.36647,-0.44344 -0.86972,-1.89484 -1.11834,-3.22528 -0.41882,-2.24119 -0.61582,-2.41897 -2.68035,-2.41897 -1.22559,0 -2.82039,-0.31684 -3.54399,-0.70412 -1.64477,-0.88023 -5.19649,-0.25547 -6.87004,1.20849 -0.69682,0.60956 -1.42953,2.22483 -1.62826,3.58956 -0.3515,2.41409 -0.31557,2.46973 1.32875,2.05706 1.77413,-0.44531 7.27988,0.86352 7.27988,1.73055 0,0.956 6.25677,0.54744 7.09563,-0.46338 z m -2.09642,-9.9896 c 0.56146,-0.006 0.80633,-1.28211 0.80633,-4.20167 l 0,-4.19291 -2.93966,0 c -1.61679,0 -4.20061,-0.31751 -5.74179,-0.70555 -4.70529,-1.18482 -8.73516,1.54077 -8.73516,5.90803 0,0.9973 0.45548,1.24815 2.26648,1.24815 1.24652,0 2.77049,0.28979 3.38655,0.64404 1.50731,0.86674 7.25675,1.8816 8.8608,1.56411 0.70957,-0.1405 1.65298,-0.25933 2.09645,-0.2642 z m -30.27494,-6.62064 c 0.14412,-1.25176 -0.0865,-1.77394 -0.78362,-1.77394 -0.54323,0 -1.33937,-0.65311 -1.76918,-1.45136 -0.88435,-1.64259 -1.01565,-10.83072 -0.17401,-12.17918 0.30321,-0.4858 0.60409,-1.23101 0.66867,-1.65606 0.12835,-0.84543 2.94558,-6.77091 3.46609,-7.29045 0.17771,-0.17738 0.84668,-1.45352 1.48657,-2.83592 0.80329,-1.7353 0.95635,-2.72044 0.49456,-3.18227 -0.3679,-0.36791 -0.7728,-0.54312 -0.89982,-0.38937 -0.12702,0.15372 -1.61536,2.31145 -3.30754,4.79494 -1.6922,2.48346 -3.40786,4.80568 -3.81259,5.16047 -0.40475,0.35476 -1.31472,1.80614 -2.02221,3.22528 -0.70743,1.41914 -1.80792,3.36822 -2.44554,4.33136 -1.58513,2.39441 -2.1376,7.6648 -1.08196,10.32196 1.36706,3.44114 3.69107,5.03596 7.07372,4.85433 2.64175,-0.14184 2.9211,-0.31542 3.10686,-1.92979 z m 102.2626,-0.77557 c 3.165,-2.41408 3.9741,-5.34329 2.69304,-9.74994 -1.01002,-3.47446 -4.32783,-9.61528 -5.90139,-10.92269 -0.42697,-0.3548 -1.59944,-1.96145 -2.6055,-3.57034 -1.00607,-1.6089 -2.20194,-3.35052 -2.65753,-3.87033 -0.45559,-0.51981 -1.20982,-1.49744 -1.67608,-2.17253 -0.46622,-0.67507 -1.15649,-1.03655 -1.53392,-0.80328 -0.79663,0.49233 1.15622,6.3968 2.67238,8.07974 0.51863,0.57562 1.15396,1.91742 1.41193,2.9818 0.25795,1.06432 0.86112,2.50774 1.34038,3.20753 0.47924,0.69982 0.87135,2.07864 0.87135,3.06405 0,0.9854 0.29027,1.79164 0.64506,1.79164 1.68247,0 0.23986,11.70127 -1.60922,13.05256 -0.35667,0.26067 0.45939,0.47836 1.81351,0.48381 1.63091,0.006 3.16215,-0.52414 4.53599,-1.57202 z m -70.37784,-3.41733 c 0.55191,-0.62086 1.29927,-2.21769 1.66084,-3.54852 0.62885,-2.31474 0.58267,-2.43663 -1.06476,-2.81051 -0.94716,-0.21495 -4.54497,-1.19593 -7.99511,-2.18 l -6.27302,-1.78917 -3.56208,1.6969 c -1.95915,0.93329 -3.563,2.05978 -3.56415,2.50324 -8.4e-4,0.44348 -0.31539,0.80635 -0.69837,0.80635 -0.44767,0 -0.53593,0.74855 -0.24717,2.09642 0.24704,1.15305 0.49719,2.15421 0.55587,2.22477 0.0589,0.0708 1.25844,-0.15457 2.66612,-0.50036 2.08898,-0.51307 3.56732,-0.33952 8.04246,0.94437 6.68014,1.91648 9.15371,2.04782 10.47937,0.55651 z m 12.98964,-9.54108 c 1.03755,-0.51761 2.20972,-0.94109 2.60477,-0.94109 0.39508,0 2.21947,-1.31321 4.05424,-2.91824 4.58879,-4.01413 6.65411,-8.48986 6.59746,-14.29717 -0.0846,-8.68322 -5.04022,-13.91455 -13.28025,-14.01943 -3.51721,-0.0448 -4.25253,0.17785 -6.45059,1.95297 -4.99076,4.03051 -5.72429,11.17753 -1.5732,15.32798 1.68184,1.68161 2.4959,2.01012 4.85601,1.95971 3.46638,-0.0741 4.88827,-1.34497 5.34918,-4.78115 0.30063,-2.24124 0.0984,-2.77615 -1.67639,-4.43404 -2.3451,-2.19066 -2.48137,-2.65784 -0.77509,-2.65784 0.68373,0 2.12339,1.0679 3.19927,2.37311 1.96759,2.38703 2.11788,3.44305 1.05761,7.43105 -0.53539,2.01368 -4.5213,4.38713 -7.36756,4.38713 -2.75137,0 -7.11258,-3.66617 -8.45962,-7.1115 -0.62079,-1.58779 -1.38135,-2.8682 -1.69013,-2.84535 -2.03586,0.15064 -6.68942,1.97534 -6.68942,2.62299 0,0.43136 0.7503,1.67602 1.66743,2.7659 0.91706,1.08993 1.54953,2.33521 1.4055,2.76736 -0.16482,0.49439 -0.75857,0.19653 -1.60139,-0.80327 -0.73674,-0.87394 -2.06384,-2.45293 -2.94914,-3.50884 -1.41692,-1.69002 -1.79168,-1.83217 -3.13009,-1.18735 -0.8362,0.40288 -2.03847,0.89874 -2.67171,1.10191 -1.09466,0.35122 -1.09659,0.45734 -0.0392,2.15493 2.09296,3.36067 7.08805,7.40345 10.06022,8.14225 2.70303,0.67192 2.22946,1.94923 -0.55511,1.49734 -2.9149,-0.473 -10.35164,-6.00063 -10.88854,-8.09323 -0.54471,-2.12314 -1.88886,-3.30865 -3.75142,-3.30865 -4.30648,0 -2.9991,4.42807 3.12961,10.60018 3.25154,3.27454 4.62256,4.14546 7.19326,4.56946 1.34931,0.22254 3.03383,0.67274 3.74338,1.00046 4.27035,1.97236 14.89483,2.11629 18.63106,0.25242 z m -50.54071,-7.98912 c 3.57498,-5.04562 5.76457,-9.07845 4.92894,-9.07845 -0.96844,0 -10.75525,9.49702 -10.75525,10.43677 0,0.34175 -0.4354,1.05678 -0.96759,1.58894 -1.28655,1.28656 -1.227881,3.24591 0.11988,4.00009 1.11,0.62122 1.87755,-0.1778 6.67406,-6.94735 z m 112.21944,3.06934 c 0,-1.15113 -0.62811,-2.51361 -1.61264,-3.49816 -0.88695,-0.88694 -1.61265,-1.72403 -1.61265,-1.86018 0,-0.38523 -7.77656,-7.73031 -8.44042,-7.97208 -1.09279,-0.39797 -0.60223,1.61702 0.67507,2.77296 0.69603,0.62987 1.81959,2.1988 2.49685,3.48654 0.67726,1.28772 2.28488,3.45051 3.57247,4.80616 1.28759,1.35573 2.34109,2.97643 2.34109,3.6016 0,0.62516 0.19099,1.32765 0.42443,1.56112 0.80314,0.8031 2.1558,-1.01529 2.1558,-2.89796 z m -114.7722,-8.46293 c 1.26827,-1.13974 2.76489,-2.81853 3.3258,-3.7307 l 1.0198,-1.65847 -3.09584,0.0458 c -2.11414,0.0315 -3.49896,-0.31868 -4.36696,-1.10363 -1.2274,-1.11001 -1.307332,-1.09415 -2.326357,0.46108 -1.718722,2.62314 -0.965077,6.81645 1.225107,6.81645 0.5197,0 0.9449,0.2903 0.9449,0.64507 0,1.08063 0.86074,0.69263 3.27355,-1.47561 z m 115.61833,-0.62087 c 1.55328,-1.14616 1.64376,-5.89732 0.14391,-7.55466 -1.14802,-1.26856 -1.16504,-1.26632 -2.41321,0.32051 -2.05325,2.61027 -3.49561,3.09507 -5.79523,1.94784 -2.42418,-1.20933 -2.46301,-1.21248 -2.43596,-0.19665 0.054,2.02538 5.26673,6.23804 7.75726,6.26887 0.90781,0.0118 2.14231,-0.3424 2.74328,-0.78591 z m -88.52766,-5.02956 c 2.33164,-0.3249 5.81496,-1.20496 7.7407,-1.95564 1.92575,-0.75071 4.15451,-1.6207 4.95276,-1.93331 1.05948,-0.41492 1.45138,-1.0947 1.45138,-2.51742 0,-2.29697 0.0101,-2.29497 -3.20655,-0.74156 -1.47111,0.71078 -5.50487,1.53675 -9.80597,2.00792 -8.09898,0.88727 -10.71006,0.57669 -18.18115,-2.16252 -3.59888,-1.31948 -4.65269,-1.47898 -5.65149,-0.85521 -3.01026,1.87997 -1.73912,5.91392 2.33452,7.40848 5.39086,1.9778 10.26325,2.15707 20.3658,0.74926 z m 67.51419,0.58922 c 1.6903,-0.40219 3.65385,-0.96448 4.36342,-1.24958 0.70956,-0.28505 2.01018,-0.7225 2.89028,-0.97205 4.09772,-1.16201 6.39186,-4.60099 4.39887,-6.59396 -1.21448,-1.21446 -3.39791,-0.92077 -7.4328,0.99986 -3.55065,1.6901 -4.16874,1.77202 -13.08234,1.73457 -9.17503,-0.0387 -11.20841,-0.37427 -17.98148,-2.96889 -1.89555,-0.72614 -1.98074,-0.64185 -1.56076,1.54443 0.26227,1.36522 1.11792,2.13031 3.80324,3.40067 1.90568,0.90151 4.41282,1.81876 5.57146,2.03835 1.15863,0.21953 2.42192,0.64471 2.80727,0.94479 0.66519,0.51795 7.59511,1.59625 11.3849,1.77149 0.97056,0.045 3.14765,-0.24749 4.83794,-0.64968 z m -66.75476,-7.59756 c 0.26584,-0.2437 0.53165,-1.67506 0.59065,-3.18074 0.0591,-1.50569 0.34945,-2.88733 0.64548,-3.07027 0.29602,-0.18296 0.53823,-0.82782 0.53823,-1.43299 0,-3.0599 6.77324,-11.72469 9.16514,-11.72469 0.63566,0 1.1558,0.29026 1.1558,0.64506 0,0.35478 -0.24351,0.64507 -0.54115,0.64507 -0.95963,0 -5.33071,4.06218 -6.20432,5.76593 -1.85925,3.62584 -2.95479,7.96197 -2.55293,10.10424 0.40361,2.15141 0.44956,2.1779 3.08014,1.77755 1.46873,-0.22352 3.81349,-0.9475 5.21055,-1.6089 1.3971,-0.66138 2.8855,-1.20249 3.30758,-1.20249 0.42208,0 1.13163,-0.43877 1.5767,-0.97509 1.41245,-1.7019 6.48741,-3.54031 9.77308,-3.54031 2.09013,0 4.23658,0.54313 6.32119,1.59946 6.64828,3.36896 17.05118,6.33477 18.89393,5.38657 2.39692,-1.23333 0.4932,-6.85808 -3.87033,-11.43538 -1.15306,-1.20951 -2.09645,-2.42848 -2.09645,-2.70879 0,-0.28031 -0.86172,-1.01866 -1.91494,-1.64081 -2.25386,-1.33138 -3.03268,-2.81211 -1.47912,-2.81211 2.76685,0 11.77981,11.49304 11.77981,15.02128 0,0.67802 0.46055,2.20326 1.02344,3.38947 0.91615,1.93064 1.19231,2.09254 2.63435,1.54427 0.88603,-0.33687 1.87686,-0.44813 2.20188,-0.24728 0.96671,0.59747 0.67239,-3.91074 -0.50496,-7.73418 -0.60274,-1.95743 -2.43308,-5.52481 -4.06739,-7.92753 -2.60141,-3.82453 -3.54241,-4.64971 -7.55633,-6.62625 -4.01654,-1.97786 -5.88989,-3.53752 -5.14442,-4.283 0.12533,-0.12533 1.94646,0.60938 4.0468,1.63281 7.73776,3.77037 13.50634,11.53275 15.39195,20.71182 0.65928,3.20925 0.90341,3.56802 2.55844,3.75951 1.00623,0.11638 2.08028,-0.0391 2.38678,-0.34556 0.70248,-0.70246 -0.80734,-9.36391 -2.19979,-12.61965 -2.12737,-4.97408 -11.01864,-14.66147 -13.45655,-14.66147 -0.31082,0 -1.64787,-0.65984 -2.97128,-1.46627 -5.27302,-3.21329 -9.37938,-4.01673 -20.52926,-4.01673 -6.65447,0 -10.70778,0.25791 -11.28851,0.71826 -0.49838,0.39503 -2.12343,0.90382 -3.61116,1.13065 -6.37131,0.97131 -20.19456,10.93565 -20.19456,14.55702 0,0.37849 -0.25587,0.68811 -0.5686,0.68811 -0.91753,0 -2.71797,5.74725 -3.40404,10.86612 -0.3493,2.60592 -0.52055,4.85255 -0.38062,4.9925 0.1399,0.13987 1.13548,0.43061 2.21232,0.64601 1.67066,0.3341 2.01732,0.16952 2.36311,-1.12214 0.2229,-0.83253 0.40923,-2.73025 0.41408,-4.21712 0.003,-1.48691 0.29907,-2.88286 0.65385,-3.10213 0.35478,-0.21927 0.64506,-0.91853 0.64506,-1.55391 0,-0.63539 1.46523,-3.18274 3.2561,-5.66083 2.43698,-3.37219 4.5495,-5.36773 8.39788,-7.9329 2.82799,-1.88502 5.35405,-3.21426 5.61347,-2.95385 0.2594,0.26036 -0.25403,1.0289 -1.14097,1.7078 -0.88696,0.67889 -1.90293,1.4668 -2.25771,1.75091 -0.35477,0.2841 -1.08047,0.73101 -1.61264,0.99312 -2.78329,1.37086 -3.97402,2.38039 -6.24506,5.29485 -4.03108,5.17314 -4.54518,6.24968 -5.29631,11.09078 -0.39311,2.53374 -0.71476,4.77827 -0.71476,4.98784 0,1.32874 4.61486,1.63533 5.96637,0.39636 z m 71.08798,-10.37786 c 2.65141,-5.19729 7.46787,-6.68914 11.2692,-3.49051 2.55477,2.1497 2.77549,5.74802 0.4846,7.90017 -1.42552,1.33919 -1.60195,1.35848 -3.54783,0.38773 -1.45709,-0.72687 -2.04772,-1.47305 -2.04772,-2.58692 0,-0.86099 0.29027,-1.5654 0.64506,-1.5654 0.35478,0 0.64504,0.28002 0.64504,0.62233 0,1.19399 2.5825,2.11399 3.58906,1.2786 1.31214,-1.08896 1.14978,-2.54756 -0.47618,-4.27834 -2.08457,-2.21891 -4.96535,-1.98585 -7.45897,0.60349 -2.37206,2.46308 -4.038,7.83913 -2.80981,9.0673 0.96246,0.96248 1.96724,-0.43707 1.99436,-2.77797 0.0266,-2.29442 0.69869,-4.51541 1.36644,-4.51541 0.31338,0 0.56982,0.85604 0.56982,1.90232 0,1.42452 0.58061,2.34522 2.31158,3.66551 l 2.31161,1.76313 2.25366,-1.21367 c 4.30774,-2.31987 5.50633,-7.8453 2.31523,-10.67331 -2.80409,-2.48501 -4.45268,-3.18471 -7.50384,-3.18471 -2.41941,0 -3.12849,0.3232 -4.74268,2.16167 -2.95893,3.37004 -4.89262,7.85046 -4.43694,10.28054 0.37154,1.98159 0.78453,3.63755 1.07967,4.32932 0.0756,0.17739 0.33996,-1.41913 0.58726,-3.54782 0.24729,-2.12868 0.9679,-4.88633 1.60138,-6.12805 z m -84.89904,6.73501 c 0.34011,-2.91574 -0.95134,-6.16329 -3.62124,-9.10637 -4.01119,-4.42156 -8.60305,-4.55572 -12.66851,-0.37007 -4.228737,4.35371 -2.661691,9.98325 3.03632,10.9079 1.95918,0.31794 2.56331,0.10035 3.98755,-1.4365 1.29816,-1.4007 1.58828,-2.22247 1.2801,-3.62553 -0.24063,-1.09555 -0.12848,-1.81433 0.28294,-1.81433 0.9725,0 2.79724,2.98363 3.00997,4.9215 0.20009,1.82281 0.71739,2.59831 1.32675,1.98893 0.90616,-0.90616 -0.51869,-6.2079 -2.09091,-7.78011 -3.41787,-3.41787 -8.63028,-2.51702 -8.63028,1.49156 0,2.35518 1.10056,3.10924 2.24788,1.54017 1.06645,-1.45842 1.89698,-0.81778 1.31539,1.01465 -0.29731,0.93667 -0.96949,1.3387 -2.23836,1.3387 -1.41618,0 -1.99323,-0.43405 -2.63416,-1.98142 -1.11203,-2.68464 0.39923,-5.91196 3.44521,-7.35739 2.14011,-1.01553 2.28148,-0.99473 5.17224,0.76081 1.63457,0.9927 2.98115,2.13218 2.99238,2.53221 0.0118,0.40007 0.45578,1.08873 0.98796,1.53039 0.64391,0.5344 0.96759,1.98136 0.96759,4.32563 0,2.52923 0.22738,3.44792 0.80631,3.25783 0.44349,-0.14559 0.90467,-1.10797 1.02487,-2.13856 z m 9.13482,-20.60377 c 0.44168,-0.53219 1.23091,-0.96761 1.75391,-0.96761 0.52299,0 2.24863,-1.14231 3.8348,-2.5385 1.58616,-1.39617 3.80778,-2.73593 4.93692,-2.97726 1.12916,-0.2413 2.34331,-0.66198 2.69807,-0.93481 0.35477,-0.27283 1.66103,-0.70829 2.90278,-0.96761 1.24174,-0.25932 2.57045,-0.7222 2.95262,-1.02859 1.87294,-1.50146 16.53255,-2.77486 20.2695,-1.76065 9.9147,2.69088 16.354,5.35395 19.40106,8.02369 0.55932,0.49003 2.41332,1.59792 4.11998,2.46193 2.95855,1.49783 3.18152,1.52094 4.78862,0.49632 3.26494,-2.08154 4.25415,-4.27285 2.00808,-4.44835 -5.10314,-0.39878 -7.356,-0.87727 -8.3451,-1.77238 -0.6104,-0.55239 -1.46004,-1.00436 -1.88806,-1.00436 -0.94848,0 -3.68076,-1.74649 -5.80263,-3.7091 -0.86304,-0.79825 -2.04275,-1.45137 -2.62156,-1.45137 -0.57882,0 -1.6782,-0.43832 -2.44302,-0.97404 -0.76483,-0.53572 -2.78881,-1.1564 -4.49769,-1.37925 -1.70888,-0.22284 -3.42317,-0.6521 -3.80951,-0.95391 -1.04873,-0.81922 -17.77224,-0.91185 -19.29435,-0.10672 -0.70956,0.37523 -3.03178,1.34611 -5.16047,2.15754 -2.12872,0.81133 -5.52353,2.58711 -7.54405,3.94608 -2.02054,1.35899 -3.82022,2.4709 -3.99929,2.4709 -0.17905,0 -1.6159,0.87078 -3.19296,1.93518 -2.1558,1.45489 -3.60458,1.93517 -5.83788,1.93517 -3.39612,0 -3.69084,0.68409 -1.26365,2.93354 1.92012,1.77952 4.82168,2.07489 6.03388,0.61428 z m 7.79151,-11.66132 c 0.56011,-0.50454 1.36412,-0.91733 1.78672,-0.91733 0.42261,0 1.85114,-0.67372 3.1745,-1.49712 1.32338,-0.82342 4.47555,-2.1548 7.0048,-2.95857 4.04303,-1.28487 5.52392,-1.42229 12.25613,-1.13725 4.2116,0.17833 8.23802,0.4469 8.94757,0.59685 2.69946,0.57039 7.142,1.9159 8.25325,2.49963 0.63667,0.33448 2.79036,1.49147 4.786,2.57115 2.80203,1.51597 4.11131,1.87243 5.74882,1.56526 2.32033,-0.4353 4.75659,-3.01031 4.75659,-5.02748 0,-1.04389 -0.26623,-1.18661 -1.45141,-0.77813 -3.89541,1.34262 -10.14855,-0.042 -15.96518,-3.53476 -8.83253,-5.30393 -20.19464,-5.871 -28.38259,-1.41654 -0.53218,0.28954 -2.6123,1.43847 -4.62252,2.55322 -7.19898,3.99219 -11.93366,4.7842 -16.18338,2.7071 -0.97714,-0.47757 -1.99309,-0.63632 -2.25769,-0.35273 -0.26459,0.2836 -0.11814,0.64522 0.32525,0.80361 0.44349,0.15837 0.80634,0.68441 0.80634,1.16898 0,1.0245 3.59936,3.8907 5.48301,4.36617 1.77052,0.44688 4.30944,-0.10926 5.53379,-1.21206 z m 9.94761,-11.10443 c 10.47493,-5.11703 17.63574,-5.05137 28.22619,0.25886 3.10704,1.55792 6.25652,2.83258 6.99891,2.83258 1.58439,0 5.73613,-3.92184 5.73613,-5.41848 0,-1.28515 -0.82916,-1.30361 -3.21175,-0.0715 -1.86952,0.96674 -5.49334,0.73339 -6.19312,-0.39884 -0.19094,-0.30894 -0.96027,-0.56173 -1.70967,-0.56173 -0.74939,0 -1.86662,-0.45623 -2.48283,-1.01385 -2.3298,-2.10847 -10.26407,-4.79169 -14.16893,-4.79169 -2.07099,0 -3.92924,0.265 -4.1294,0.58895 -0.20022,0.32387 -1.50688,0.782 -2.90371,1.01799 -1.39685,0.23602 -2.88226,0.8418 -3.30091,1.34625 -0.41862,0.50444 -1.18042,0.91716 -1.69285,0.91716 -0.51238,0 -1.85564,0.67733 -2.98502,1.50518 -1.12936,0.82785 -3.62275,1.99287 -5.54086,2.58889 -3.17926,0.98797 -3.58688,0.99373 -4.61266,0.0656 -0.85926,-0.77766 -1.24085,-0.83111 -1.61469,-0.2262 -0.30346,0.49103 0.2976,1.4954 1.58162,2.64262 2.67166,2.38716 5.00279,2.13826 12.00355,-1.28164 z m 4.31587,-8.91979 c 2.23684,-1.41203 3.38383,-1.64978 8.29009,-1.71839 3.13178,-0.0438 6.36617,0.23035 7.18755,0.60928 0.82139,0.37888 2.83149,1.3089 4.46683,2.06669 3.99525,1.85125 4.38569,1.73981 2.14648,-0.61264 -3.45321,-3.62789 -6.12147,-4.46017 -14.29909,-4.46017 -4.02834,0 -7.67485,0.28017 -8.10333,0.62261 -3.69391,2.95203 -5.61704,4.77336 -5.61704,5.31967 0,0.96211 2.95071,0.0526 5.92851,-1.82705 z m 17.96159,-9.00665 c 1.41116,-3.29211 1.59872,-4.78446 0.60135,-4.78446 -0.36622,0 -0.87421,-0.51779 -1.12888,-1.15068 -0.77951,-1.93731 -6.3245,-6.59006 -7.85378,-6.59006 -2.65448,0 -7.12073,3.16073 -9.35724,6.62201 -0.85991,1.33084 -1.04659,2.44775 -0.73494,4.39685 0.67605,4.22769 1.07166,4.4105 9.60393,4.43805 l 7.60233,0.0245 1.26723,-2.95626 z"
           id="path3110"
           inkscape:connector-curvature="0" />
      </g>
    </g>
  </g>
</svg>
