<svg fill-rule="evenodd" height="681.33398" viewBox="0 0 1023 681.33398" width="1022.001" xmlns="http://www.w3.org/2000/svg"><g transform="translate(0 -.33301)"><path d="m0 0h1023v682h-1023z" fill="#d21034"/><path d="m0 0h1023v455h-1023z" fill="#007e3a"/><path d="m0 0h1023v227h-1023z" fill="#6ea6dd"/><circle cx="496" cy="342" fill="#fff" r="102"/><circle cx="538" cy="340" fill="#007e3a" r="96"/><g fill="#fff"><path d="m535 278 14 44h45l-37 26 15 44-37-27-37 27 14-44-37-26h45zm-8 22"/><path d="m886 45 14 44h46l-37 27 14 43-37-27-37 27 14-43-37-27h46zm-7 22"/><path d="m114 511 14 43h45l-37 27 15 43-37-26-37 26 14-43-37-27h45zm-8 21"/></g></g></svg>