<?xml version="1.0" encoding="utf-8"?>
<!-- Generator: Adobe Illustrator 16.0.0, SVG Export Plug-In . SVG Version: 6.00 Build 0)  -->
<!DOCTYPE svg PUBLIC "-//W3C//DTD SVG 1.1//EN" "http://www.w3.org/Graphics/SVG/1.1/DTD/svg11.dtd">
<svg version="1.1" id="Layer_1" xmlns="http://www.w3.org/2000/svg" xmlns:xlink="http://www.w3.org/1999/xlink" x="0px" y="0px"
	 width="800px" height="533px" viewBox="0 0 800 533" enable-background="new 0 0 800 533" xml:space="preserve">
<rect y="0" fill="#FFFFFF" width="800" height="533"/>
<circle fill="#861C32" cx="398.006" cy="266.5" r="198.314"/>
<circle fill="#FFFFFF" cx="398.006" cy="266.5" r="158.652"/>
<g>
	<path fill="#211917" d="M412.612,246.954c0,0,7.042-14.992,5.68-18.172c0,0-1.591-6.588-12.949-1.136
		c0,0-44.297,6.134-86.322,4.316c0,0-24.761,0.227-7.724,22.943c0,0,4.998,15.22-0.681,37.028c0,0-6.361,19.31,11.358,16.584
		c0,0,39.527-10.905,62.017-7.725c0,0,31.576,3.861,29.985-11.358C413.976,289.434,410.568,254.45,412.612,246.954z
		 M403.677,283.831c-0.605,11.208-16.052,11.51-16.052,11.51l-58.154,1.514c-7.572,0.908-7.118-3.332-7.118-3.332v-53.914
		c4.089-1.363,8.784-1.817,8.784-1.817c30.592-3.483,70.572-3.786,70.572-3.786c1.516,0.454,1.969,4.088,1.969,4.088V283.831z"/>
	<path fill="#211917" d="M317.658,207.663c0,0-29.379,3.348-20.294,16.507c0,0,4.999,4.543,18.779-4.846
		c0,0,10.45-10.753,101.467-8.33c0,0,7.269,1.06,7.269-4.998c0,0,0.001-2.726-3.785-2.423
		C421.094,203.574,347.34,204.937,317.658,207.663z"/>
	<path fill="#211917" d="M347.946,194.941c0,0-5.365-2.712-4.998,7.571c0,0,0.57,38.315-0.018,44.071
		c0,0-12.552,11.063-22.093,9.692v6.36c0,0,18.779-1.061,29.229-6.058c0,0,6.36-43.616,5.452-55.125
		C355.519,201.453,355.215,197.213,347.946,194.941z"/>
	<path fill="#211917" d="M373.995,191.912v63c0,0,22.868-4.392,31.955-1.666v-6.815c0,0-13.933-1.061-24.988,0.605
		c0,0,1.515-47.896-0.303-52.419C380.658,194.617,377.326,187.974,373.995,191.912z"/>
	<path fill="#211917" d="M327.501,276.407c0,0,3.635,4.694,9.995,4.393c0,0,52.551,1.969,56.488-6.968c0,0,0.454-3.18-4.013-3.18
		c0,0-49.143,4.543-58.381,2.878C331.591,273.531,325.835,272.62,327.501,276.407z"/>
	<path fill="#211917" d="M299.049,318.049c0,0-29.55,13.048-15.372,20.297c0,0,11.641-0.145,25.371-7.539
		c0,0,19.7-7.248,46.713-6.958l59.249-2.319c0,0,11.642-4.638,7.761-9.568C422.771,311.961,319.197,311.237,299.049,318.049z"/>
	<path fill="#211917" d="M331.438,336.077c0,0-4.694,0.455-8.178,8.937c0,0-8.935,14.388-16.659,15.145
		c0,0,20.145,6.631,33.621-14.843C340.223,345.316,342.948,333.351,331.438,336.077z"/>
	<path fill="#211917" d="M375.509,333.351c0,0,1.691,41.345,18.489,20.144c0,0,10.285-10.307,7.257-15.148
		c0,0-14.236,0.912-23.02-4.995C378.235,333.351,375.35,330.917,375.509,333.351z"/>
	<path fill="#211917" d="M518.472,201.749c0,0-51.794-8.178-60.881,3.18c0,0-22.489-1.308-9.768,17.86
		c0,0,4.053,100.08,2.935,138.336c0,0,0.473,10.542,6.833,10.09c0,0,7.27-0.683,3.408-14.312c0,0-2.499-39.981,2.271-46.571
		c0,0,27.261,0.455,31.576-4.769c0,0,26.124-21.126,17.266-36.12c0,0-15.902-19.082-28.851-21.354c0,0-3.407-1.136,1.817-4.771
		c0,0,36.347-22.262,37.482-26.806C522.561,216.514,526.423,203.793,518.472,201.749z M475.992,240.594
		c-12.495,6.815-2.272,11.585-2.272,11.585c22.263,6.134,24.308,19.535,24.308,19.535c2.271,30.896-33.167,31.35-33.167,31.35
		c-2.953-24.306,0-90.638,0-90.638c12.039-2.954,36.347-1.817,36.347-1.817C510.975,216.741,475.992,240.594,475.992,240.594z"/>
	<path fill="#211917" d="M336.512,172.217c0,0-8.632-3.862-10.904,7.497c0,0-14.312,7.724-33.848,7.95c0,0-14.315,4.593,3.86,6.954
		c0,0,60.2,2.587,49.75-14.45C345.372,180.168,341.964,173.807,336.512,172.217z"/>
	<path fill="#211917" d="M387.17,171.584c0,0-16.81-7.318-2.953,9.72c0,0,22.943,13.252,30.895-5.641c0,0,1.817-3.445-3.635-2.991
		C411.477,172.671,399.664,175.267,387.17,171.584z"/>
</g>
</svg>
