<?xml version="1.0" encoding="UTF-8" standalone="no"?>
<!-- Created with Inkscape (http://www.inkscape.org/) -->

<svg
   xmlns:dc="http://purl.org/dc/elements/1.1/"
   xmlns:cc="http://creativecommons.org/ns#"
   xmlns:rdf="http://www.w3.org/1999/02/22-rdf-syntax-ns#"
   xmlns:svg="http://www.w3.org/2000/svg"
   xmlns="http://www.w3.org/2000/svg"
   xmlns:sodipodi="http://sodipodi.sourceforge.net/DTD/sodipodi-0.dtd"
   xmlns:inkscape="http://www.inkscape.org/namespaces/inkscape"
   width="3000"
   height="2000"
   id="svg4328"
   sodipodi:version="0.32"
   inkscape:version="0.92.3 (2405546, 2018-03-11)"
   version="1.0"
   sodipodi:docname="Flag_of_Independent_State_of_Croatia.svg"
   inkscape:output_extension="org.inkscape.output.svg.inkscape">
  <defs
     id="defs4330" />
  <sodipodi:namedview
     id="base"
     pagecolor="#ffffff"
     bordercolor="#666666"
     borderopacity="1.0"
     gridtolerance="10000"
     guidetolerance="10"
     objecttolerance="10"
     inkscape:pageopacity="0.0"
     inkscape:pageshadow="2"
     inkscape:zoom="0.25"
     inkscape:cx="1492.0014"
     inkscape:cy="1012.5679"
     inkscape:document-units="px"
     inkscape:current-layer="layer1"
     showgrid="false"
     inkscape:window-width="1366"
     inkscape:window-height="705"
     inkscape:window-x="-8"
     inkscape:window-y="-8"
     inkscape:window-maximized="1" />
  <metadata
     id="metadata4333">
    <rdf:RDF>
      <cc:Work
         rdf:about="">
        <dc:format>image/svg+xml</dc:format>
        <dc:type
           rdf:resource="http://purl.org/dc/dcmitype/StillImage" />
      </cc:Work>
    </rdf:RDF>
  </metadata>
  <g
     inkscape:label="Layer 1"
     inkscape:groupmode="layer"
     id="layer1"
     transform="translate(1774.29, 953.352)">
    <rect
       width="3000"
       height="2000"
       x="-1774.2858"
       y="-953.35211"
       id="rect4081"
       style="fill: rgb(255, 255, 255);" />
    <rect
       width="3000"
       height="666.66602"
       x="-1774.2858"
       y="-953.35211"
       id="rect4083"
       style="fill: rgb(221, 0, 0); fill-opacity: 1;" />
    <rect
       width="3000"
       height="666.66602"
       x="-1774.2858"
       y="379.9809"
       id="rect4085"
       style="fill:#011171;fill-opacity:1" />
    <g
       id="g4117"
       transform="matrix(-1, 0, 0, 1, -1083.1, -951.684)">
      <path
         sodipodi:nodetypes="ccscsscscssscscscscscscccscssscscscscc"
         id="path4119"
         d="M 344.68749,51.925271 C 338.41399,52.230471 332.66499,55.730771 329.53129,61.175271 C 318.61299,80.08607 305.10099,110.09797 286.31249,135.11278 C 279.00009,144.84848 271.03359,153.39898 262.59369,160.36278 C 246.30499,113.84857 204.97239,89.87347 167.93749,92.64407 C 152.09849,93.82897 136.82989,100.00157 125.37499,111.45647 C 87.106191,149.72528 107.87879,225.13628 174.34369,248.58148 C 167.36889,257.04468 158.80299,265.05448 149.03129,272.39408 C 124.01129,291.18648 93.994692,304.76288 75.093692,315.67528 C 75.072891,315.68558 75.052092,315.69598 75.031291,315.70648 C 69.353892,319.02188 65.874991,325.15468 65.874991,331.67528 C 65.874991,338.19658 69.354392,344.32868 75.031291,347.64408 C 75.052092,347.65458 75.072891,347.66498 75.093692,347.67528 C 93.994692,358.58778 124.01149,372.16418 149.03129,390.95648 C 158.80299,398.29608 167.36889,406.30588 174.34369,414.76908 C 107.87879,438.21428 87.106092,513.62538 125.37499,551.89408 C 163.64409,590.16308 239.02749,569.36398 262.46869,502.89408 C 270.95339,509.87388 278.96569,518.45618 286.31249,528.23778 C 305.10099,553.25258 318.64429,583.26448 329.56249,602.17528 C 332.82929,607.84278 338.98539,611.42528 345.56249,611.42528 C 352.13959,611.42528 358.26729,607.94678 361.59369,602.17528 C 372.50609,583.27448 386.08269,553.25788 404.87499,528.23778 C 412.22969,518.44568 420.24059,509.84628 428.71869,502.86278 C 452.14971,569.35128 527.53901,590.16738 565.81251,551.89408 C 604.08581,513.62068 583.26971,438.23138 516.78131,414.80028 C 523.76481,406.32218 532.36421,398.31138 542.15631,390.95648 C 567.17621,372.16408 597.19291,358.58778 616.09371,347.67528 C 616.11461,347.66498 616.13551,347.65458 616.15631,347.64408 C 621.83311,344.32878 625.31251,338.19678 625.31251,331.67528 C 625.31221,325.15488 621.83351,319.02188 616.15631,315.70648 C 616.13551,315.69598 616.11461,315.68558 616.09371,315.67528 C 597.19291,304.76298 567.17631,291.18648 542.15631,272.39408 C 532.36411,265.03918 523.76481,257.02838 516.78131,248.55028 C 583.26971,225.11918 604.08571,149.72978 565.81251,111.45647 C 527.53911,73.18317 452.14991,93.99947 428.71869,160.48778 C 420.24069,153.50428 412.22989,144.90488 404.87499,135.11278 C 386.08259,110.09277 372.50639,80.07617 361.59369,61.175271 C 358.14619,55.186571 351.58969,51.593571 344.68749,51.925271 z"
         style="fill: rgb(255, 255, 255); fill-opacity: 1; fill-rule: nonzero; stroke: none; stroke-width: 26; stroke-linecap: round; stroke-linejoin: round; stroke-miterlimit: 4; stroke-dasharray: none; stroke-opacity: 1;" />
      <path
         id="path4121"
         d="M 345.30094,64.922177 C 343.43065,65.013173 341.73504,66.049277 340.80094,67.672177 C 330.61385,85.31667 316.66779,116.34688 296.70719,142.92218 C 276.74668,169.49748 251.49184,190.92218 218.86344,190.92218 C 199.39935,190.92218 184.85709,183.33648 176.64469,174.92218 C 172.53829,170.71498 170.07989,166.29518 169.26969,162.92218 C 168.45919,159.54918 169.02399,157.73058 170.33219,156.42218 C 171.64072,155.11378 173.45939,154.54928 176.83219,155.35968 C 180.20532,156.17008 184.62529,158.62838 188.83219,162.73468 C 191.69402,165.52788 194.42799,169.09028 196.83219,173.29718 C 196.83482,173.30168 196.86084,173.29268 196.86344,173.29718 C 200.81155,175.13248 205.52544,176.60588 210.92594,177.35968 C 207.38305,168.06678 202.22054,160.45448 196.48844,154.85968 C 191.14895,149.64818 185.32369,146.09678 179.39469,144.67218 C 177.91229,144.31608 176.37724,144.11843 174.86344,144.07843 C 170.5067,143.96417 166.24643,145.24648 162.98844,148.26593 C 162.84437,148.38344 162.68523,148.50663 162.55094,148.64093 C 162.41665,148.77522 162.29345,148.90311 162.17594,149.04718 C 158.10231,153.43946 157.20069,159.73365 158.58219,165.48468 C 160.00682,171.41388 163.55789,177.27018 168.76969,182.60968 C 179.19269,193.28868 196.54924,201.92218 218.86344,201.92218 C 256.29795,201.92218 284.54554,177.43038 305.48844,149.54718 C 323.68415,125.32158 336.16999,99.66043 345.58219,82.07843 C 354.99438,99.66063 367.45169,125.32558 385.64469,149.54718 C 396.06169,163.41638 408.28784,176.45278 422.55094,186.04718 C 423.08955,181.94248 423.80354,177.96318 424.67594,174.10968 C 413.41455,165.73138 403.40859,154.83988 394.45719,142.92218 C 374.49668,116.34688 360.51949,85.31668 350.33219,67.672177 C 349.30328,65.884773 347.36094,64.823177 345.30094,64.922177 z M 345.30094,104.42218 C 343.43065,104.51317 341.73504,105.54928 340.80094,107.17218 C 331.22365,123.79968 318.28139,150.29853 298.83219,172.51593 C 279.38328,194.73304 254.02734,212.42218 218.86344,212.42218 C 190.12685,212.42218 169.11364,199.50318 158.11344,184.23468 C 152.61335,176.60038 149.67519,168.42058 149.39469,161.10968 C 149.11389,153.79878 151.31269,147.45458 156.33219,142.42218 C 156.40013,142.35453 156.45127,142.27005 156.51969,142.20343 C 156.57982,142.13633 156.65096,142.08517 156.70719,142.01593 C 161.67386,137.28021 167.90638,135.21148 175.01969,135.48468 C 182.33049,135.76548 190.51019,138.70343 198.14469,144.20343 C 208.08819,151.36733 217.01974,162.79443 222.05094,177.82843 C 225.83205,177.62863 229.50429,177.07833 233.08219,176.20343 C 227.48752,158.19273 216.90429,144.17458 204.58219,135.29718 C 195.44372,128.71328 185.31024,124.89543 175.42594,124.51593 C 174.80815,124.49214 174.19819,124.47998 173.58219,124.48468 C 164.52214,124.55382 155.72721,127.72645 148.95719,134.26593 C 148.94655,134.27621 148.93657,134.28689 148.92594,134.29718 C 148.79359,134.40728 148.6437,134.5164 148.51969,134.64093 C 148.36849,134.7925 148.22991,134.95601 148.08219,135.10968 C 148.05704,135.13818 148.04419,135.17447 148.01969,135.20343 C 141.13074,142.41612 138.02408,151.87316 138.39469,161.51593 C 138.77429,171.40014 142.59204,181.53358 149.17594,190.67218 C 162.34375,208.94928 186.82184,223.42218 218.86344,223.42218 C 257.76245,223.42218 286.41514,203.41003 307.11344,179.76593 C 324.61565,159.77264 336.63624,137.41618 345.55094,121.23468 C 354.46635,137.41708 366.54384,159.76683 384.05094,179.76593 C 394.42315,191.61444 406.77824,202.55283 421.42594,210.51593 C 421.36005,208.69224 421.33219,206.84758 421.33219,204.98468 C 421.33228,202.60218 421.38104,200.26643 421.48844,197.95343 C 410.42315,191.07423 400.82619,182.21863 392.33219,172.51593 C 372.88328,150.29874 359.90979,123.79969 350.33219,107.17218 C 349.30328,105.38477 347.36094,104.32318 345.30094,104.42218 z M 174.48844,105.42218 C 172.60445,105.40157 170.74489,105.47128 168.89469,105.60968 C 155.73639,106.59407 143.58434,111.60732 134.55094,120.64093 C 134.41665,120.77522 134.29345,120.90311 134.17594,121.04718 C 98.643552,157.41069 127.07547,242.92218 218.86344,242.92218 C 257.30455,242.92217 285.83784,227.95653 306.67594,208.95343 C 324.35905,192.82773 336.50479,174.08118 345.58219,158.73468 C 354.65938,174.08018 366.80744,192.82973 384.48844,208.95343 C 395.48465,218.98123 408.60849,227.87368 424.20719,234.04718 C 423.37368,229.92267 422.71764,225.69383 422.23844,221.32843 C 410.62615,215.91823 400.62499,208.79003 391.89469,200.82843 C 372.58549,183.21983 359.68469,161.40928 350.33219,145.17218 C 349.35008,143.46838 347.51754,142.42218 345.55094,142.42218 C 343.58435,142.42218 341.78304,143.46838 340.80094,145.17218 C 331.44855,161.40928 318.57859,183.21983 299.26969,200.82843 C 279.96049,218.43713 254.48524,231.92218 218.86344,231.92218 C 133.43135,231.92217 114.70299,156.05158 142.33219,128.42218 C 166.14712,104.60727 225.78264,115.25758 241.80094,173.35968 C 245.17145,171.99118 248.44649,170.33858 251.64469,168.42218 C 238.91059,126.81148 204.89894,105.75408 174.48844,105.42218 z M 516.67591,105.42218 C 478.36861,105.84037 434.33241,139.13018 434.33221,204.98468 C 434.33221,243.42578 449.29801,271.92763 468.30091,292.76593 C 484.41651,310.43784 503.14701,322.59628 518.48841,331.67218 C 503.14701,340.74807 484.41651,352.90663 468.30091,370.57843 C 458.27901,381.56833 449.38031,394.67903 443.20721,410.26593 C 447.32561,409.43734 451.56741,408.80353 455.92591,408.32843 C 461.33621,396.71613 468.46441,386.71508 476.42591,377.98468 C 494.03451,358.67547 515.84521,345.80593 532.08221,336.45343 C 533.80131,335.47553 534.86341,333.64998 534.86341,331.67218 C 534.86331,329.69437 533.80151,327.86873 532.08221,326.89093 C 515.84521,317.53854 494.03451,304.66888 476.42591,285.35968 C 458.81731,266.05047 445.33221,240.60648 445.33221,204.98468 C 445.33231,119.55278 521.20271,100.79267 548.83221,128.42218 C 572.64701,152.23698 561.99661,211.87253 503.89471,227.89093 C 505.26601,231.26644 506.87991,234.56313 508.80091,237.76593 C 571.07411,218.73402 587.27511,152.03675 556.98841,121.04718 C 556.87091,120.90312 556.74771,120.77521 556.61341,120.64093 C 556.48461,120.50699 556.34751,120.38513 556.20721,120.26593 C 547.21601,111.47795 535.23731,106.57983 522.26971,105.60968 C 520.41931,105.47127 518.55991,105.40158 516.67591,105.42218 z M 517.58221,124.48468 C 516.96641,124.47998 516.35621,124.49213 515.73841,124.51593 C 505.85411,124.89554 495.72091,128.71328 486.58221,135.29718 C 468.30511,148.46498 453.83221,172.94308 453.83221,204.98468 C 453.83221,243.88368 473.84401,272.50513 497.48841,293.20343 C 517.47151,310.69673 539.80841,322.75858 555.98841,331.67218 C 539.80841,340.58577 517.47151,352.64743 497.48841,370.14093 C 485.63991,380.51314 474.70141,392.86823 466.73841,407.51593 C 468.56641,407.45024 470.40261,407.42218 472.26971,407.42218 C 474.64771,407.42217 476.99041,407.47093 479.30091,407.57843 C 486.18021,396.51313 495.03561,386.91608 504.73841,378.42218 C 526.95561,358.97317 553.45471,346.03103 570.08221,336.45343 C 571.80131,335.47553 572.86341,333.64998 572.86341,331.67218 C 572.86331,329.69437 571.80151,327.86873 570.08221,326.89093 C 553.45471,317.31354 526.95561,304.37118 504.73841,284.92218 C 482.52121,265.47317 464.83221,240.14848 464.83221,204.98468 C 464.83221,176.24808 477.75111,155.20383 493.01971,144.20343 C 500.65391,138.70333 508.83381,135.76548 516.14471,135.48468 C 523.45551,135.20388 529.79981,137.40238 534.83221,142.42218 C 539.85201,147.45458 542.01921,153.79878 541.73841,161.10968 C 541.45761,168.42058 538.55101,176.60038 533.05091,184.23468 C 525.88711,194.17818 514.45991,203.10963 499.42591,208.14093 C 499.62301,211.92644 500.17651,215.59198 501.05091,219.17218 C 519.06161,213.57748 533.08001,202.99418 541.95721,190.67218 C 548.54101,181.53358 552.35881,171.39993 552.73841,161.51593 C 553.11121,151.80919 549.97401,142.27725 542.98841,135.04718 C 542.87091,134.90312 542.74771,134.77521 542.61341,134.64093 C 542.47911,134.50663 542.35081,134.38381 542.20721,134.26593 C 535.43781,127.72989 526.64021,124.5538 517.58221,124.48468 z M 516.26971,144.07843 C 514.75581,144.11823 513.25201,144.31598 511.76971,144.67218 C 505.84041,146.09678 499.98401,149.64818 494.64471,154.85968 C 483.96571,165.28278 475.33241,182.67058 475.33221,204.98468 C 475.33221,242.41918 499.82411,270.66678 527.70721,291.60968 C 551.93271,309.80537 577.59411,322.25978 595.17591,331.67218 C 577.59411,341.08457 551.93291,353.53898 527.70721,371.73468 C 513.83811,382.15167 500.80161,394.37773 491.20721,408.64093 C 495.30771,409.17894 499.29011,409.89623 503.14471,410.76593 C 511.52301,399.50454 522.41461,389.49848 534.33221,380.54718 C 560.90741,360.58657 591.93791,346.60928 609.58221,336.42218 C 611.27081,335.43607 612.30091,333.62768 612.30091,331.67218 C 612.30081,329.71667 611.27081,327.90828 609.58221,326.92218 C 591.93771,316.73517 560.90751,302.75778 534.33221,282.79718 C 507.75701,262.83657 486.33221,237.61308 486.33221,204.98468 C 486.33231,185.52068 493.91811,170.94738 502.33221,162.73468 C 506.53941,158.62838 510.95921,156.17008 514.33221,155.35968 C 517.70531,154.54928 519.52401,155.11378 520.83221,156.42218 C 522.14061,157.73058 522.67381,159.54918 521.86341,162.92218 C 521.05301,166.29518 518.62581,170.71498 514.51971,174.92218 C 511.73171,177.77858 508.18481,180.52108 503.98841,182.92218 C 502.13951,186.88558 500.62321,191.59023 499.86341,197.01593 C 509.16861,193.48104 516.79441,188.34738 522.39471,182.60968 C 527.60621,177.27018 531.15771,171.41388 532.58221,165.48468 C 533.96491,159.73035 533.06811,153.43961 528.98841,149.04718 C 528.87091,148.90312 528.74771,148.77521 528.61341,148.64093 C 528.47911,148.50663 528.35081,148.38381 528.20721,148.26593 C 524.94611,145.24258 520.62911,143.9643 516.26971,144.07843 z M 187.98844,252.57843 C 179.61165,263.83363 168.74469,273.84978 156.83219,282.79718 C 130.25702,302.75777 99.226991,316.73508 81.582191,326.92218 C 79.893621,327.90827 78.863441,329.71668 78.863441,331.67218 C 78.863451,333.62767 79.893792,335.43608 81.582191,336.42218 C 99.226821,346.60927 130.25719,360.58658 156.83219,380.54718 C 183.40752,400.50777 204.83219,425.73128 204.83219,458.35968 C 204.83222,477.82377 197.24669,492.39708 188.83219,500.60968 C 184.62512,504.71597 180.20539,507.17428 176.83219,507.98468 C 173.45932,508.79507 171.64089,508.23058 170.33219,506.92218 C 169.02382,505.61377 168.45899,503.79518 169.26969,500.42218 C 170.08009,497.04917 172.53809,492.62938 176.64469,488.42218 C 179.44369,485.55437 182.99349,482.79863 187.20719,480.39093 C 189.04992,476.43464 190.51189,471.74203 191.26969,466.32843 C 181.97779,469.86323 174.36759,474.99918 168.76969,480.73468 C 163.55809,486.07417 160.00699,491.93048 158.58219,497.85968 C 157.20052,503.6107 158.10229,509.90508 162.17594,514.29718 C 162.30215,514.43325 162.41859,514.57109 162.55094,514.70343 C 162.68523,514.83772 162.84437,514.96092 162.98844,515.07843 C 167.38032,519.14522 173.6472,520.05305 179.39469,518.67218 C 185.32389,517.24757 191.14894,513.69618 196.48844,508.48468 C 207.16745,498.06157 215.83219,480.67388 215.83219,458.35968 C 215.83222,420.92517 191.34039,392.67758 163.45719,371.73468 C 139.22432,353.53337 113.53869,341.08518 95.957191,331.67218 C 113.53852,322.25917 139.22449,309.81098 163.45719,291.60968 C 177.32642,281.19267 190.36289,268.96663 199.95719,254.70343 C 195.83992,254.16333 191.85714,253.45343 187.98844,252.57843 z M 247.95719,253.04718 C 243.82148,253.88067 239.55334,254.57008 235.17594,255.04718 C 229.76085,266.64347 222.66019,276.63868 214.70719,285.35968 C 197.09862,304.66887 175.31959,317.53843 159.08219,326.89093 C 157.36312,327.86884 156.30094,329.69438 156.30094,331.67218 C 156.30095,333.64997 157.36329,335.47563 159.08219,336.45343 C 175.31932,345.80593 197.09879,358.67548 214.70719,377.98468 C 232.31592,397.29387 245.83219,422.73788 245.83219,458.35968 C 245.83218,543.79177 169.96199,562.55168 142.33219,534.92218 C 118.50842,511.09837 129.14824,451.41388 187.30094,435.42218 C 185.93295,432.05177 184.27924,428.77603 182.36344,425.57843 C 120.08701,444.60546 103.88719,511.30561 134.17594,542.29718 C 134.30514,542.42938 134.42004,542.57253 134.55094,542.70343 C 170.68445,578.83693 256.83219,550.48408 256.83219,458.35968 C 256.83218,419.91857 241.86634,391.41653 222.86344,370.57843 C 206.74785,352.90653 188.01734,340.74808 172.67594,331.67218 C 188.01735,322.59627 206.74784,310.43773 222.86344,292.76593 C 232.89125,281.76974 241.78379,268.64598 247.95719,253.04718 z M 211.86344,255.76593 C 204.98415,266.83124 196.12874,276.42828 186.42594,284.92218 C 164.20875,304.37117 137.70999,317.31333 121.08219,326.89093 C 119.36312,327.86884 118.30094,329.69438 118.30094,331.67218 C 118.30095,333.64997 119.36329,335.47563 121.08219,336.45343 C 137.70982,346.03083 164.20874,358.97318 186.42594,378.42218 C 208.64315,397.87117 226.33219,423.19578 226.33219,458.35968 C 226.33232,487.14457 213.72344,508.61213 198.67594,519.76593 C 191.15225,525.34261 183.07784,528.29993 175.73844,528.51593 C 168.46849,528.72976 161.92685,526.45541 156.45719,521.07843 C 156.41033,521.03236 156.37889,520.9687 156.33219,520.92218 C 150.84412,515.42097 148.52244,508.85523 148.73844,501.51593 C 148.95445,494.17641 151.88069,486.10223 157.45719,478.57843 C 164.75102,468.73833 176.46134,459.95748 191.73844,455.04718 C 191.53245,451.27037 190.96149,447.62128 190.08219,444.04718 C 171.94832,449.48407 157.69599,459.80433 148.64469,472.01593 C 141.93729,481.06484 138.03284,491.19783 137.73844,501.20343 C 137.4508,510.97999 140.78777,520.63852 148.01969,528.17218 C 148.18934,528.34891 148.34573,528.52907 148.51969,528.70343 C 148.52529,528.70843 148.54532,528.69845 148.55094,528.70343 C 148.68011,528.83204 148.81911,528.96537 148.95719,529.07843 C 156.51009,536.4001 166.21698,539.80518 176.05094,539.51593 C 186.05675,539.22151 196.18944,535.31698 205.23844,528.60968 C 223.33645,515.19507 237.33249,490.35308 237.33219,458.35968 C 237.33218,419.46067 217.28879,390.83923 193.64469,370.14093 C 173.66149,352.64764 151.35594,340.58578 135.17594,331.67218 C 151.35595,322.75857 173.66129,310.69693 193.64469,293.20343 C 205.49979,282.82543 216.45394,270.45568 224.42594,255.79718 C 222.58825,255.86367 220.74044,255.92218 218.86344,255.92218 C 216.49165,255.92217 214.16744,255.87293 211.86344,255.76593 z M 472.26971,420.42218 C 433.82861,420.42217 405.32654,435.38783 384.48844,454.39093 C 366.80745,470.51474 354.65949,489.26418 345.58219,504.60968 C 336.50468,489.26317 324.35904,470.51663 306.67594,454.39093 C 295.70145,444.38294 282.58609,435.50053 267.01969,429.32843 C 267.84499,433.44833 268.48489,437.68778 268.95719,442.04718 C 280.56048,447.45527 290.54859,454.56293 299.26969,462.51593 C 318.57889,480.12454 331.44854,501.93508 340.80094,518.17218 C 341.78305,519.87597 343.58434,520.92218 345.55094,520.92218 C 347.51755,520.92217 349.35029,519.87598 350.33219,518.17218 C 359.68458,501.93517 372.58539,480.12453 391.89469,462.51593 C 411.20389,444.90724 436.64761,431.42218 472.26971,431.42218 C 557.70161,431.42227 576.46191,507.29268 548.83221,534.92218 C 525.01621,558.73807 465.34751,548.09338 449.33221,489.98468 C 445.96871,491.35037 442.71101,493.01068 439.51971,494.92218 C 458.56681,557.16426 525.22371,573.35923 556.20721,543.07843 C 556.35121,542.96092 556.47911,542.83773 556.61341,542.70343 C 556.74771,542.56914 556.87091,542.44125 556.98841,542.29718 C 592.52611,505.93567 564.06031,420.42228 472.26971,420.42218 z M 472.26971,439.92218 C 433.37059,439.92217 404.74934,459.93433 384.05094,483.57843 C 366.54385,503.57743 354.46634,525.92728 345.55094,542.10968 C 336.63625,525.92817 324.61564,503.57193 307.11344,483.57843 C 296.74985,471.73973 284.37814,460.82108 269.73844,452.85968 C 269.80315,454.67907 269.83219,456.50208 269.83219,458.35968 C 269.83218,460.74757 269.78344,463.10178 269.67594,465.42218 C 280.73295,472.29827 290.34759,481.13623 298.83219,490.82843 C 318.28118,513.04563 331.22364,539.54468 340.80094,556.17218 C 341.78305,557.87597 343.58434,558.92218 345.55094,558.92218 C 347.51755,558.92217 349.35029,557.87598 350.33219,556.17218 C 359.90958,539.54467 372.88339,513.04583 392.33219,490.82843 C 411.78118,468.61133 437.10561,450.92218 472.26971,450.92218 C 501.00631,450.92217 522.05071,463.84118 533.05091,479.10968 C 538.55101,486.74397 541.45761,494.92378 541.73841,502.23468 C 542.01921,509.54557 539.85221,515.88978 534.83221,520.92218 C 529.79981,525.94197 523.45531,528.14048 516.14471,527.85968 C 508.83381,527.57887 500.65371,524.64093 493.01971,519.14093 C 483.07611,511.97701 474.14471,500.54993 469.11341,485.51593 C 465.33411,485.71261 461.65841,486.27033 458.08221,487.14093 C 463.67701,505.15161 474.26031,519.16978 486.58221,528.04718 C 495.72081,534.63107 505.85411,538.44893 515.73841,538.82843 C 525.44311,539.20123 534.97751,536.06092 542.20721,529.07843 C 542.35121,528.96092 542.47911,528.83773 542.61341,528.70343 C 542.74771,528.56914 542.87091,528.44125 542.98841,528.29718 C 549.97091,521.06758 553.11111,511.53317 552.73841,501.82843 C 552.35881,491.94423 548.54131,481.81078 541.95721,472.67218 C 528.78951,454.39507 504.31131,439.92218 472.26971,439.92218 z M 472.26971,461.42218 C 434.83521,461.42217 406.58759,485.91398 385.64469,513.79718 C 367.45189,538.01877 354.99449,563.68363 345.58219,581.26593 C 336.16978,563.68401 323.68414,538.02278 305.48844,513.79718 C 295.08025,499.93977 282.86114,486.92053 268.61344,477.32843 C 268.07825,481.42953 267.38609,485.41053 266.51969,489.26593 C 277.77079,497.64001 287.76709,508.51928 296.70719,520.42218 C 316.66778,546.99747 330.61384,578.02768 340.80094,595.67218 C 341.78305,597.37597 343.58434,598.42218 345.55094,598.42218 C 347.51755,598.42217 349.35029,597.37598 350.33219,595.67218 C 360.51928,578.02767 374.49689,546.99748 394.45719,520.42218 C 414.41778,493.84687 439.64101,472.42218 472.26971,472.42218 C 491.73371,472.42217 506.30681,480.00788 514.51971,488.42218 C 518.62601,492.62937 521.05301,497.04918 521.86341,500.42218 C 522.67381,503.79517 522.14091,505.61378 520.83221,506.92218 C 519.52381,508.23057 517.70541,508.79508 514.33221,507.98468 C 510.95921,507.17427 506.53961,504.71598 502.33221,500.60968 C 499.47581,497.82167 496.73331,494.27493 494.33221,490.07843 C 490.36731,488.23023 485.66751,486.71153 480.23841,485.95343 C 483.77331,495.25873 488.90681,502.88448 494.64471,508.48468 C 499.98421,513.69617 505.84031,517.24758 511.76971,518.67218 C 517.52071,520.05396 523.81481,519.15226 528.20721,515.07843 C 528.35121,514.96092 528.47911,514.83773 528.61341,514.70343 C 528.74771,514.56914 528.87091,514.44125 528.98841,514.29718 C 533.06811,509.90457 533.96511,503.61401 532.58221,497.85968 C 531.15761,491.93047 527.60601,486.07418 522.39471,480.73468 C 511.97161,470.05567 494.58361,461.42228 472.26971,461.42218 z"
         style="fill: rgb(221, 0, 0); fill-opacity: 1; fill-rule: nonzero; stroke: none; stroke-width: 11; stroke-linecap: round; stroke-linejoin: round; stroke-miterlimit: 4; stroke-dasharray: none; stroke-opacity: 1;" />
    </g>
    <path
       style="fill:#ffffff;fill-opacity:1;stroke:#dd0000;stroke-width:7.27601004;stroke-opacity:1"
       d="m -539.61721,-217.75332 h 510.533087 v 18.01913 281.509868 c 0,37.592702 9.701523,134.606222 -61.845877,174.624322 -46.0813,25.4659 -137.03162,19.40238 -192.81432,54.56978 -56.9954,-35.1674 -146.7328,-29.1041 -192.8142,-54.5701 -71.54733,-40.018 -63.05869,-137.0313 -63.05869,-174.624002 z"
       id="path4238"
       sodipodi:nodetypes="ccccccccc"
       inkscape:connector-curvature="0" />
    <path
       style="fill: rgb(221, 0, 0); fill-opacity: 1;"
       d="M 1339.1875 1141.8438 L 1339.1875 1221.875 C 1369.3081 1230.1173 1405.5792 1233.7686 1439.8438 1243.2188 L 1439.8438 1141.8438 L 1339.1875 1141.8438 z M 1540.5 1141.8438 L 1540.5 1243.2188 C 1574.7647 1233.7686 1611.0044 1230.1173 1641.125 1221.875 L 1641.125 1141.8438 L 1540.5 1141.8438 z "
       transform="translate(-1774.29,-953.352)"
       id="path4240" />
    <g
       id="g4244"
       style="fill: rgb(221, 0, 0); fill-opacity: 1;"
       transform="matrix(1.21267, 0, 0, 1.21267, -2102.52, -1134.53)">
      <rect
         width="83"
         height="84.266037"
         x="1375"
         y="757.73395"
         id="rect4246"
         style="fill: rgb(221, 0, 0); fill-opacity: 1;" />
      <rect
         width="83"
         height="84.899055"
         x="1541"
         y="757.10095"
         id="rect4248"
         style="fill: rgb(221, 0, 0); fill-opacity: 1;" />
      <rect
         width="83"
         height="83"
         x="1375"
         y="925"
         id="rect4250"
         style="fill: rgb(221, 0, 0); fill-opacity: 1;" />
      <rect
         width="83"
         height="83"
         x="1541"
         y="925"
         id="rect4252"
         style="fill: rgb(221, 0, 0); fill-opacity: 1;" />
      <rect
         width="83"
         height="83"
         x="1458"
         y="1008"
         id="rect4254"
         style="fill: rgb(221, 0, 0); fill-opacity: 1;" />
      <rect
         width="85.532074"
         height="83"
         x="1289.4679"
         y="842"
         id="rect4256"
         style="fill: rgb(221, 0, 0); fill-opacity: 1;" />
      <rect
         width="83"
         height="83"
         x="1458"
         y="842"
         id="rect4258"
         style="fill: rgb(221, 0, 0); fill-opacity: 1;" />
      <rect
         width="84.266037"
         height="83"
         x="1624"
         y="842"
         id="rect4260"
         style="fill: rgb(221, 0, 0); fill-opacity: 1;" />
    </g>
    <path
       style="fill: rgb(221, 0, 0); fill-opacity: 1; stroke: none; stroke-width: 6; stroke-opacity: 1;"
       d="M -133.15282,87.838978 L -133.15282,188.49028 L -37.796023,188.49028 C -34.357123,179.44138 -31.922623,170.16258 -30.198523,160.93998 L -30.198523,87.838978 L -133.15282,87.838978 z"
       id="path4262" />
    <path
       style="fill: rgb(221, 0, 0); fill-opacity: 1; stroke: none; stroke-width: 6; stroke-opacity: 1;"
       d="M -435.10712,87.838978 L -435.10712,188.49028 L -530.3419,188.49028 C -533.77644,179.44138 -536.20776,170.16258 -537.92973,160.93998 L -537.92973,87.838978 L -435.10712,87.838978 z"
       id="path4264" />
    <path
       style="font-size:3600px;font-style:normal;font-variant:normal;font-weight:normal;font-stretch:normal;text-align:start;line-height:125%;text-anchor:start;fill:#011171;fill-opacity:1;stroke:none;stroke-width:1px;stroke-linecap:butt;stroke-linejoin:miter;stroke-opacity:1;font-family:Times New Roman"
       d="M -1506.192,-694.37022 C -1506.192,-690.77352 -1506.192,-687.17692 -1506.192,-683.58022 C -1501.3754,-682.95742 -1496.3983,-683.99982 -1491.6838,-682.59552 C -1489.0911,-681.79492 -1487.2951,-679.23842 -1487.0175,-676.59292 C -1485.6798,-670.63632 -1486.2705,-664.47982 -1486.0848,-658.42412 C -1486.0124,-638.37832 -1486.3299,-618.32712 -1485.766,-598.28612 C -1485.4292,-590.76552 -1484.7678,-583.13832 -1482.2309,-576.00262 C -1477.3062,-562.76712 -1465.8411,-552.11872 -1452.1855,-548.41322 C -1442.5707,-545.71592 -1432.4777,-545.21082 -1422.5417,-545.67702 C -1414.3231,-546.08842 -1406.0517,-547.63792 -1398.6081,-551.24102 C -1392.4293,-554.23862 -1386.882,-558.56152 -1382.4868,-563.83702 C -1378.9074,-568.12672 -1376.1915,-573.13692 -1374.6409,-578.51372 C -1372.6403,-585.17632 -1371.9031,-592.14222 -1371.4694,-599.06572 C -1370.8216,-610.85152 -1371.3519,-622.65732 -1371.1485,-634.45162 C -1371.1019,-647.36402 -1371.386,-660.28432 -1370.8322,-673.18942 C -1370.6298,-675.84312 -1369.8378,-678.64272 -1367.8138,-680.48932 C -1365.3829,-682.79992 -1361.8769,-683.72702 -1358.5819,-683.39932 C -1356.6325,-683.31062 -1354.5227,-683.12252 -1352.7537,-684.09052 C -1351.4235,-685.01552 -1351.0765,-686.80242 -1351.2233,-688.33572 C -1351.2998,-690.39472 -1351.239,-692.45552 -1351.2569,-694.51532 C -1370.043,-694.51532 -1388.8291,-694.51532 -1407.6151,-694.51532 C -1407.6151,-690.87782 -1407.6151,-687.24042 -1407.6151,-683.60292 C -1402.9956,-682.92302 -1398.1985,-684.00732 -1393.6752,-682.66862 C -1391.8343,-682.08882 -1389.9638,-681.00452 -1389.1783,-679.15132 C -1387.6631,-674.89022 -1387.8638,-670.28642 -1387.7564,-665.82602 C -1387.7052,-661.05162 -1387.7568,-656.27562 -1387.7356,-651.50062 C -1387.7427,-638.15802 -1387.674,-624.81502 -1387.7547,-611.47262 C -1387.8334,-604.63222 -1387.9219,-597.76242 -1388.7905,-590.97212 C -1389.3996,-586.57882 -1390.3693,-582.15902 -1392.462,-578.22282 C -1395.2849,-573.24712 -1399.866,-569.45762 -1404.8738,-566.83342 C -1414.627,-561.72212 -1426.2173,-560.41352 -1436.9576,-562.75612 C -1443.8273,-564.44262 -1450.2894,-568.60602 -1453.782,-574.84382 C -1456.1762,-579.18032 -1457.0905,-584.14262 -1457.821,-589.00452 C -1458.5071,-594.02412 -1458.8894,-599.09252 -1459.0612,-604.15872 C -1459.3209,-614.01692 -1458.9539,-623.87802 -1459.1105,-633.73732 C -1459.1175,-646.84532 -1459.2984,-659.95952 -1458.8277,-673.06172 C -1458.6018,-675.65042 -1458.201,-678.42202 -1456.4851,-680.47342 C -1454.544,-682.54052 -1451.6039,-683.35302 -1448.8339,-683.35522 C -1446.2122,-683.50622 -1443.5363,-683.05022 -1440.9579,-683.67552 C -1439.348,-684.48702 -1438.6908,-686.49182 -1439.0167,-688.19512 C -1439.0253,-690.30182 -1439.0193,-692.40862 -1439.0189,-694.51532 C -1461.4099,-694.51532 -1483.801,-694.51532 -1506.192,-694.51532 L -1506.192,-694.44282 L -1506.192,-694.37022 z"
       id="path3967" />
  </g>
</svg>
