<svg xmlns="http://www.w3.org/2000/svg" xmlns:xlink="http://www.w3.org/1999/xlink" width="1000" height="1000" version="1.0"><path fill="#fff" d="M0 0H1000V1000H0z"/><path fill="#fed700" d="M500 500H1000V1000H500z"/><path fill="#fed700" d="M0 0H500V500H0z"/><g id="b" transform="matrix(1.3902168,0,0,1.3902168,-533.30028,9.2753277)" stroke-linecap="round" stroke-linejoin="round"><path d="m 585.57242,58.763224 c -12.1075,8.490929 -31.71616,5.031446 -48.44752,17.055508 13.84181,-16.246691 28.69295,-11.362189 45.23417,-20.763227 z" fill="#f80e06" stroke-width=".7"/><path d="m 602.625,28.84375 c -4.21229,4.7566 -10.49804,9.050163 -20.28125,9.90625 -19.52907,1.708905 -45.49056,0.07556 -42,14.3125 -25.44074,-10e-7 -20.96126,20.176511 -9.40625,19.0625 -4.54884,-1.7758 -4.03669,-6.412583 -1.03125,-8.9375 2.16286,-1.817049 5.60791,-1.9375 9.4375,-1.9375 10.42126,-2e-6 25.23202,-5.6875 31.90625,-5.6875 6.96219,-2e-6 14.3125,2.815647 14.3125,6.65625 -3e-5,5.078818 -10.45055,3.945386 -22.8125,6.4375 -8.72004,1.757924 -16.21875,7.187822 -16.21875,12.59375 5.0546,-4.103456 26.88727,-9.291507 39.28125,-8.65625 3e-5,9.268418 -14.34097,17.5625 -32.125,17.5625 -7.80328,10e-7 -14.62763,1.485371 -19.8125,3.90625 -4.80461,-0.618279 -8.66966,-2.248571 -13.0625,-5.4375 0.56561,3.787409 3.66263,6.94664 7.53125,8.84375 -3.0748,2.58678 -4.8125,5.69766 -4.8125,9 0,0.15125 -0.005,0.29027 0,0.4375 -3.3805,-0.0707 -6.6191,-0.7983 -10.34375,-2.3125 1.70418,4.14539 6.57891,6.66723 11.625,7.15625 0.78583,1.45221 1.87841,2.62964 3.09375,3.6875 -3.36581,1.24469 -6.78907,1.70584 -11.03125,1.5625 3.50797,3.82346 10.22119,4.12349 15.625,1.9375 2.27569,1.69514 4.26741,3.50041 4.90625,6.1875 -16.65804,2.7935 -39.92252,-2.97304 -52.71875,-11.75 -12.74439,-8.7414 -19.25001,-21.387913 -19.25,-35.09375 0,-15.969284 14.7307,-33.197073 5.4375,-38.5625 -0.56306,-0.325088 -1.17064,-0.496512 -1.8125,-0.53125 -4.49309,-0.243165 -10.53973,6.143578 -12.6875,12.0625 -4.1259,11.370352 -8.36843,25.270818 -22.0625,28.78125 3.38689,0.86429 8.69347,0.663888 12.5625,-1.5 -3.78755,19.862633 -16.36594,41.70609 -27.6875,52.15625 6.89889,-0.76752 14.21641,-4.71832 21.5,-13.59375 -2.23593,23.67633 -14.95414,53.14009 -23.6875,63.78125 7.64496,-1.65522 16.15135,-6.62459 24.09375,-16.90625 -1.71372,13.77248 -3.88849,27.16223 -6.46875,39.15625 -5.94783,27.6478 -13.37128,48.0001 -20.25,49.1875 1.60877,1.46409 3.7622,2.0625 6.125,2.0625 10.11482,0 19.09252,-18.73343 25.5,-47.8125 5.25961,-23.86977 8.20287,-45.18982 9.6875,-70.53125 1.66697,2.05229 4.0689,4.50693 7.15625,6.625 -0.68314,13.67439 -1.86266,26.97169 -3.53125,38.96875 -3.89585,28.01072 -9.85235,48.84058 -16.625,50.53125 1.7122,1.34167 3.8936,1.79899 6.25,1.625 10.08736,-0.74481 17.68867,-20.09055 21.9375,-49.5625 1.84664,-12.80919 3.10206,-24.83599 3.8125,-37.09375 0.76756,0.0754 1.56872,0.125 2.375,0.125 0.94337,0 1.77624,-0.0267 2.6875,-0.0312 -0.11984,7.0011 -0.35598,13.79974 -0.75,20.21875 -1.73219,28.21917 -5.61337,49.44277 -11.3125,51.625 1.54197,1.21254 3.43092,1.47115 5.4375,1.125 8.5899,-1.48181 13.98676,-21.29774 15.9375,-51 0.49827,-7.58674 0.82592,-14.89494 1,-22.125 2.56873,-0.0677 5.03336,-0.14747 7.34375,-0.25 0.0602,25.94225 -2.02484,45.23225 -6.65625,47.6875 1.44628,1.09444 3.12016,1.21325 4.875,0.71875 7.24134,-2.0405 10.71845,-20.89199 10.75,-48.90625 2.36307,-0.16322 4.63334,-0.34376 6.78125,-0.53125 -0.19986,16.60634 -1.38975,28.12897 -3.90625,30.03125 1.08324,1.07171 2.28677,1.17792 3.5625,0.65625 4.05575,-1.65843 6.26354,-13.26836 6.8125,-31.3125 2.43509,-0.24587 4.86167,-0.47238 7.1875,-0.71875 -0.37235,8.70564 -1.17515,14.49053 -2.5,15.78125 0.86406,1.07025 1.81601,1.17935 2.8125,0.65625 2.21388,-1.16217 3.65203,-7.26514 4.40625,-16.9375 2.02707,-0.20558 4.09629,-0.38139 6.1875,-0.5625 -0.31998,3.58731 -0.83101,5.95835 -1.59375,6.75 0.89748,1.04239 1.83305,1.11687 2.8125,0.5625 1.35076,-0.76451 2.32754,-3.45227 3,-7.65625 3.47006,-0.2512 7.17108,-0.43669 11.1875,-0.5625 1.64435,2.23573 3.28125,4.53125 3.28125,4.53125 10e-6,0 -1.54116,4.23097 -3.96875,4.9375 -12.83115,3.73442 -21.31102,16.0323 -33.59375,21.28125 3.20902,0.25153 6.68105,0.20216 11.84375,-1.5 -1.78535,5.27319 -12.79386,11.77521 -15.3125,15.8125 1.93584,0.28793 4.8321,0.55964 7.65625,0.5 -9.80485,10.22365 -19.60139,15.86761 -29.40625,19.28125 4.09076,1.08558 10.77735,0.33352 15.5625,-0.84375 -0.7643,4.77884 -11.03705,11.76252 -17.53125,14.6875 3.62164,0.55402 7.85433,-0.0123 13.09375,-3.46875 0.45596,4.21748 -2.34641,9.25047 -5.8125,11.5 -4.55135,2.95389 -11.9054,7.7646 -11.75,14.21875 2.10414,-3.45516 7.44668,-7.48676 15.59375,-7.9375 -3.48965,6.11913 -9.17527,14.24941 -12.625,18.3125 -6.43978,0.54336 -8.88616,3.55894 -11.125,6.6875 -1.94896,-1.88548 -3.85249,-3.82996 -7.40625,-3.46875 -0.88321,-2.10014 -2.47815,-4.46919 -6.4375,-4.1875 -1.34723,-1.25856 -3.6797,-1.0515 -4.90625,0.0938 -3.03746,0.16643 -5.22625,1.777 -6.71875,3.59375 1.64595,-0.57127 3.97752,-0.79966 6.125,-0.5625 0.64323,1.58373 2.6722,2.51187 4.78125,2.5625 1.12846,2.08489 2.88153,3.49887 5.65625,3.9375 1.01102,1.37842 2.8353,1.96278 4.46875,2.71875 -2.73125,-0.2193 -5.36571,-1.3143 -8.40625,1.25 -3.08976,-1.19434 -6.9288,-1.10357 -8.90625,1.21875 -2.93894,1.09642 -4.2272,3.14803 -3.78125,5.34375 -1.81601,2.3415 -2.03642,4.99707 -1.6875,7.28125 0.70476,-1.67899 2.13699,-3.69734 3.84375,-5.15625 1.01961,0.28196 2.28398,0.30601 3.59375,0.1875 3.26353,-0.43434 4.03487,-1.78578 4.71875,-3.1875 3.351,0.90727 6.17883,0.30721 8.875,-0.75 2.84649,-3.25455 7.41039,-2.80136 9.90625,-4.46875 2.66433,-1.77993 4.79082,-4.6875 7.90625,-4.6875 3.66138,-10e-6 4.9291,4.00252 7.65625,4.6875 2.40705,0.60457 5.86066,-1.32645 7.40625,-3.9375 2.0668,1.52275 4.90012,2.56716 6.75,1.46875 1.70544,1.2295 3.1969,2.9052 4.03125,4.375 0.0737,-2.25217 -0.41999,-4.79456 -2.375,-6.875 0.31027,-1.95403 -1.38012,-3.47199 -5.6875,-3.65625 -2.85019,-1.08948 -5.50774,-2.7117 -9.625,0 -0.0824,-1.40068 -0.98848,-2.30678 -2.71875,-2.71875 3.50511,-5.13574 7.38252,-12.82682 10.9375,-19.28125 2.82834,4.09253 1.53004,10.88063 5.875,17.03125 -1.34202,-11.90647 8.22828,-27.27377 16.5625,-35.21875 0.63433,11.04076 -3.98725,24.58738 -11.25,35.59375 -0.85663,1.29823 0.24793,2.21726 1.46875,0.75 7.45599,-8.9611 14.66777,-23.15314 19.90625,-35.21875 -3.34892,17.575 -9.77928,33.8072 -19.53125,50.90625 -1.21606,2.13227 0.71764,2.68019 1.96875,1.09375 16.12908,-20.45214 20.27194,-44.18366 29,-64.65625 -3.1815,29.28179 -8.46648,54.32053 -22.34375,72.71875 -12.30286,16.31091 -40.18641,17.2807 -67.6875,17.53125 13.90688,0.77369 24.10279,1.5 38.5,1.5 13.99261,-10e-6 39.63577,-1.64831 47.5625,-16.375 6.77605,-12.58889 9.74517,-34.50833 10.71875,-70 L 561,216.09375 c -2.4034,42.64864 -2.58198,72.10677 -10.125,80.6875 -4.95727,5.63924 -17.73019,7.52602 -24.3125,12.5 -4.64514,3.51015 -7.9416,12.04635 0.1875,17.5625 -1.48415,-8.11055 6.39151,-13.625 14,-13.625 7.11488,-10e-6 10.39958,3.04093 12.875,5.59375 -1.49901,-4.77215 1.2994,-8.1173 3.875,-11.53125 2.96163,5.01047 5.9375,9.67078 5.9375,15.03125 0,-5.36047 2.97587,-10.02078 5.9375,-15.03125 2.5756,3.41395 5.37405,6.7591 3.875,11.53125 2.47542,-2.55282 5.82258,-5.59376 12.9375,-5.59375 7.60848,0 15.42164,5.51445 13.9375,13.625 8.1291,-5.51615 4.83262,-14.05235 0.1875,-17.5625 -6.58231,-4.97398 -19.35523,-6.86076 -24.3125,-12.5 -7.54673,-8.58494 -7.70238,-38.06746 -10.09375,-80.75 l 3.1875,-4.09375 c 0.99105,35.47319 4.0072,57.38357 10.78125,69.96875 7.92673,14.72669 33.56991,16.37499 47.5625,16.375 14.3972,0 24.53062,-0.72631 38.4375,-1.5 -27.50108,-0.25055 -55.32213,-1.22034 -67.625,-17.53125 -13.87214,-18.39142 -19.17652,-43.41969 -22.375,-72.6875 8.71851,20.46516 12.8795,44.18377 29,64.625 1.25112,1.58644 3.1848,1.03852 1.96875,-1.09375 -9.75197,-17.09905 -16.18236,-33.33125 -19.53125,-50.90625 5.23848,12.06561 12.45025,26.25765 19.90625,35.21875 1.22082,1.46726 2.32542,0.54823 1.46875,-0.75 -7.26274,-11.00637 -11.8843,-24.55299 -11.25,-35.59375 8.33422,7.94498 17.90455,23.31228 16.5625,35.21875 4.34476,-6.15032 3.01598,-12.93866 5.84375,-17.03125 3.55498,6.45443 7.43239,14.14551 10.9375,19.28125 -1.73027,0.41197 -2.63636,1.31807 -2.71875,2.71875 -4.11726,-2.7117 -6.77481,-1.08948 -9.625,0 -4.30738,0.18426 -5.99777,1.70222 -5.6875,3.65625 -1.95501,2.08044 -2.44867,4.62283 -2.375,6.875 0.83435,-1.4698 2.32581,-3.1455 4.03125,-4.375 1.84988,1.09841 4.6832,0.054 6.75,-1.46875 1.54559,2.61105 4.9992,4.54207 7.40625,3.9375 2.72715,-0.68498 3.99487,-4.68751 7.65625,-4.6875 3.11543,0 5.24192,2.90757 7.90625,4.6875 2.49586,1.66739 7.05976,1.2142 9.90625,4.46875 2.69617,1.05721 5.524,1.65727 8.875,0.75 0.68388,1.40172 1.45522,2.75316 4.71875,3.1875 1.30977,0.11851 2.57414,0.0945 3.59375,-0.1875 1.70676,1.45891 3.13899,3.47726 3.84375,5.15625 0.34892,-2.28418 0.12851,-4.93975 -1.6875,-7.28125 0.44595,-2.19572 -0.84231,-4.24733 -3.78125,-5.34375 -1.97745,-2.32232 -5.81649,-2.41309 -8.90625,-1.21875 -3.04054,-2.5643 -5.675,-1.4693 -8.40625,-1.25 1.63345,-0.75597 3.45773,-1.34033 4.46875,-2.71875 2.77472,-0.43863 4.52779,-1.85261 5.65625,-3.9375 2.10905,-0.0506 4.13802,-0.97877 4.78125,-2.5625 2.14748,-0.23716 4.47905,-0.009 6.125,0.5625 -1.4925,-1.81675 -3.68129,-3.42732 -6.71875,-3.59375 -1.22655,-1.14525 -3.55902,-1.35231 -4.90625,-0.0938 -3.95935,-0.28169 -5.55429,2.08736 -6.4375,4.1875 -3.55376,-0.36121 -5.45729,1.58327 -7.40625,3.46875 -2.23884,-3.12856 -4.68522,-6.14414 -11.125,-6.6875 -3.44973,-4.06309 -9.13535,-12.19337 -12.625,-18.3125 8.14708,0.45074 13.52086,4.48234 15.625,7.9375 0.1554,-6.45415 -7.2299,-11.26486 -11.78125,-14.21875 -3.46609,-2.24953 -6.23718,-7.28252 -5.78125,-11.5 5.23942,3.45644 9.47209,4.02277 13.09375,3.46875 -6.49419,-2.92498 -16.76692,-9.90866 -17.53125,-14.6875 4.78516,1.17727 11.47175,1.92933 15.5625,0.84375 -9.80485,-3.41364 -19.60142,-9.0576 -29.40625,-19.28125 2.82416,0.0596 5.72044,-0.21207 7.65625,-0.5 -2.51864,-4.03729 -13.55836,-10.53931 -15.34375,-15.8125 5.1627,1.70216 8.66596,1.75153 11.875,1.5 -12.28273,-5.2489 -20.79381,-17.54678 -33.625,-21.2812 C 572.00991,151.23097 570.50002,147 570.5,147 c 0,0 1.60566,-2.29552 3.25,-4.53125 4.01642,0.12581 7.71744,0.3113 11.1875,0.5625 0.67246,4.20398 1.64924,6.89174 3,7.65625 0.97946,0.55437 1.91502,0.47989 2.8125,-0.5625 -0.76275,-0.79165 -1.27377,-3.16269 -1.59375,-6.75 2.09121,0.18111 4.16043,0.35692 6.1875,0.5625 0.75422,9.67236 2.19236,15.77533 4.40625,16.9375 0.99649,0.5231 1.94844,0.414 2.8125,-0.65625 -1.32485,-1.29072 -2.12765,-7.07561 -2.5,-15.78125 2.32583,0.24637 4.75241,0.47288 7.1875,0.71875 0.54895,18.04414 2.75675,29.65407 6.8125,31.3125 1.27572,0.52167 2.47926,0.41546 3.5625,-0.65625 -2.51651,-1.90228 -3.70639,-13.42491 -3.90625,-30.03125 2.14791,0.18749 4.41818,0.36803 6.78125,0.53125 0.0316,28.01426 3.50867,46.86575 10.75,48.90625 1.75486,0.4945 3.42872,0.37569 4.875,-0.71875 -4.63139,-2.45525 -6.7164,-21.74525 -6.65625,-47.6875 2.31039,0.10253 4.77502,0.18225 7.34375,0.25 0.17408,7.23006 0.50174,14.53826 1,22.125 1.95074,29.70226 7.34762,49.51819 15.9375,51 2.00657,0.34615 3.89554,0.0875 5.4375,-1.125 -5.69912,-2.18223 -9.58031,-23.40583 -11.3125,-51.625 -0.39403,-6.41901 -0.63016,-13.21765 -0.75,-20.21875 0.91126,0.005 1.74413,0.0312 2.6875,0.0312 0.80628,0 1.60744,-0.0496 2.375,-0.125 0.71044,12.25776 1.96585,24.28456 3.8125,37.09375 4.24883,29.47195 11.85014,48.81769 21.9375,49.5625 2.3564,0.17399 4.53779,-0.28333 6.25,-1.625 -6.77265,-1.69067 -12.72915,-22.52053 -16.625,-50.53125 -1.6686,-11.99706 -2.84811,-25.29436 -3.53125,-38.96875 3.08735,-2.11807 5.48928,-4.57271 7.15625,-6.625 1.48461,25.34143 4.42787,46.66148 9.6875,70.53125 6.40747,29.07907 15.38518,47.8125 25.5,47.8125 2.3628,0 4.51624,-0.59841 6.125,-2.0625 -6.87873,-1.1874 -14.30216,-21.5397 -20.25,-49.1875 -2.58026,-11.99402 -4.75503,-25.38377 -6.46875,-39.15625 7.9424,10.28166 16.4488,15.25103 24.09375,16.90625 -8.73335,-10.64116 -21.45157,-40.10492 -23.6875,-63.78125 7.28355,8.87543 14.6011,12.82623 21.5,13.59375 C 696.36591,120.23734 683.78755,98.393883 680,78.53125 c 3.86902,2.163888 9.17562,2.36429 12.5625,1.5 C 678.86838,76.520818 674.6259,62.620352 670.5,51.25 c -2.14778,-5.918922 -8.1944,-12.305665 -12.6875,-12.0625 -0.64188,0.03474 -1.24942,0.206162 -1.8125,0.53125 -9.29319,5.365427 5.4375,22.593216 5.4375,38.5625 -10e-6,13.705837 -6.50562,26.35235 -19.25,35.09375 -13.08828,8.97728 -37.12309,14.79056 -53.84375,11.53125 -8.43998,-6.49971 -7.39448,-13.17351 -2.5,-19.78125 2.29295,2.1569 4.1156,4.72477 5.84375,8.0625 1.2231,-3.72985 -0.20064,-8.08778 -2.9375,-11.5625 0.67632,-0.73179 1.38583,-1.4588 2.125,-2.1875 1.26905,-1.251082 2.55823,-2.581229 3.84375,-3.96875 2.18754,1.622543 4.10074,3.65166 6.0625,6.25 0.4831,-3.241834 -0.92327,-6.597471 -3.3125,-9.34375 1.13267,-1.338003 2.25673,-2.711442 3.3125,-4.15625 2.51161,2.084083 4.51443,4.605426 6.46875,7.96875 1.08699,-3.954606 -0.7265,-8.447528 -3.875,-11.84375 1.06376,-1.71822 2.02487,-3.497071 2.875,-5.34375 2.93668,1.703268 5.40472,3.951849 7.9375,7.09375 0.49869,-4.273892 -2.27023,-8.645371 -6.1875,-11.53125 0.22795,-0.697321 0.40609,-1.411749 0.59375,-2.125 5.58121,1.897598 9.33746,4.584015 13.25,9.4375 0.73459,-6.295398 -5.60836,-12.777946 -12.28125,-14.4375 0.13692,-1.220064 0.21875,-2.457791 0.21875,-3.71875 0,-1.096111 -0.1009,-2.187731 -0.25,-3.25 5.52396,0.657505 9.62662,2.457702 14.34375,6.15625 -0.71831,-6.432136 -8.67295,-11.374828 -15.65625,-11.28125 -0.77357,-1.991704 -1.82991,-3.836041 -3.09375,-5.46875 6.23145,-0.960952 12.43214,-5.480718 13.0625,-11.125 -5.76686,4.521604 -10.64261,6.173272 -18.28125,6.40625 -1.45314,-0.881414 -3.01686,-1.548935 -4.6875,-1.96875 4.67602,-3.048569 7.38297,-8.823369 7.40625,-14.34375 z" stroke="#000" stroke-width="1.367"/><path d="m 550.71987,47.887248 c 0,8.20848 7.85966,6.239661 11.61752,-2.471812 -4.11969,0.259477 -7.74501,3.900432 -11.61752,2.471812 z" fill="#fff" stroke-width=".7"/><path d="m 484.96875,19.46875 c -15.02101,0 -9.88195,14.317649 -16.5625,20.25 C 463.7098,33.7864 460.2767,26.624999 448.375,26.625 c -9.07756,0 -17.53124,6.41304 -17.53125,15.5625 0,6.891287 1.23951,15.098901 -3.71875,21.03125 5.94905,-2.648986 8.3545,-11.630538 11.1875,-19 2.40023,-6.243678 7.84606,-10.1875 14.53125,-10.1875 6.83399,0 9.42761,3.081612 13.34375,5.6875 l 6.0625,2.71875 c 5.19055,-1.338333 13.71875,3.401068 13.71875,10.625 0,4.614462 -6.1875,5.75162 -6.1875,12.75 0,6.141031 6.35978,11.378305 13.71875,8.375 -3.25917,1.10595 -8.28125,-0.527265 -8.28125,-4.78125 0,-5.35158 9.40626,-6.084058 9.40625,-14.71875 0,-13.84674 -15.76087,-20.085955 -24.5,-13.96875 6.22819,-4.623047 7.42999,-13.843751 15.84375,-13.84375 5.81862,0 9.11355,5.937502 16.75,5.9375 4.39792,0 8.03842,-0.646222 10.9375,-2.46875 -16.31396,0.741544 -17.51011,-10.875001 -28.6875,-10.875 z M 493.5,74.1875 c 0.30191,-0.102447 0.60892,-0.193314 0.875,-0.34375 -0.29165,0.143899 -0.58612,0.225854 -0.875,0.34375 z M 647,24.40625 c -4.00848,0 -8.19678,3.584395 -11.1875,6.3125 -2.88297,2.629837 -7.0955,2.676302 -11.6875,0.84375 2.89907,1.822528 3.44583,3.46875 7.84375,3.46875 6.02978,0 8.46263,-6.65625 14.28125,-6.65625 3.29975,1e-6 6.02927,1.222578 6.75,4.15625 0.65028,2.646841 1.68148,6.260036 3.03125,8.1875 -5.60786,-3.925379 -9.62844,-2.800341 -11.78125,-0.0625 V 40.5625 c -1.71181,2.213925 -2.95021,4.598574 -5.59375,6.8125 0.14528,0.145278 2.13903,-0.375678 3.78125,-1.125 0.008,1.939624 0.25066,3.645384 0.625,5.1875 -1.06085,3.126882 -2.93965,5.977124 -5.8125,8.5 2.48233,-1.082397 5.06406,-1.895963 7.03125,-4.78125 1.31582,3.311823 2.84375,5.955407 2.84375,9.03125 2e-5,4.344989 -6.10783,7.523054 -9.46875,6.46875 7.44923,3.194952 13.90625,-2.112085 13.90625,-8.3125 10e-6,-6.998377 -4.1875,-9.46636 -4.1875,-15.6875 10e-6,-4.628526 2.32943,-6.792989 6.53125,-4.21875 l 6.0625,-2.71875 c 2.43304,-3.100251 6.7684,-4.4375 12.125,-4.4375 6.68517,10e-7 9.94316,7.95237 11.8125,14.375 3.08019,10.582818 15.34629,16.084346 22.53125,14.53125 -9.16037,-1.235904 -13.46166,-14.992405 -14.8125,-21.75 -1.48312,-7.419191 -6.51619,-13.59375 -15.59375,-13.59375 -8.19397,0 -13.5848,4.94265 -18.28125,10.875 -1.29623,-2.13654 -2.28089,-6.041192 -2.59375,-9.375 -0.34101,-3.633754 -4.01066,-5.9375 -8.15625,-5.9375 z" stroke="#000" stroke-width="1.367"/></g><g id="a" transform="matrix(5.2920977,0,0,5.2920977,101.64031,-4.362234)" stroke-linecap="round" stroke-linejoin="round"><g transform="matrix(0.4890122,0,0,0.4890122,81.919867,1.2086394)"><path d="m 102.6875,23.6875 c 0,0 -1.4772,-2.27432 -8.765625,-2.27432 -7.319671,0 -8.765625,2.27432 -8.765625,2.27432 0,0 3.23807,1.15625 8.765625,1.15625 5.558804,0 8.765625,-1.15625 8.765625,-1.15625 z" fill="#87761a" stroke-width=".236"/><path d="m 93.910824,7.49829 c -1.773231,0.8412542 -4.585488,3.41885 -5.00321,5.783466 0.677335,1.630418 2.340675,2.899082 2.340675,4.785822 -1.358944,0.01752 -2.84655,0.180948 -3.818241,0.303618 -2.447068,-2.633476 -6.34242,-4.536002 -9.055503,-4.829192 2.679016,2.068506 5.983345,5.949442 6.714828,10.03431 0,-0.788657 5.470007,-1.257908 8.821451,-1.257908 3.351422,0 8.836066,0.469251 8.836066,1.257908 0.73149,-4.084868 4.02118,-7.965804 6.70019,-10.03431 -2.71306,0.29319 -6.59379,2.195716 -9.04088,4.829192 -0.971672,-0.12267 -2.473919,-0.286094 -3.832863,-0.303618 0,-1.88674 1.66334,-3.155404 2.340676,-4.785822 C 98.496291,10.91714 95.684033,8.3395442 93.910824,7.49829 Z" fill="#fed700" stroke="#000" stroke-width=".483"/><path d="m 93.910824,25.362897 c -1.698941,0 -3.906538,-0.127844 -5.720052,-0.34701 -0.906746,-0.109584 -1.717037,-0.237939 -2.326054,-0.404839 -0.304498,-0.08345 -0.556403,-0.165326 -0.775345,-0.289183 -0.10946,-0.06192 -0.212828,-0.137843 -0.307218,-0.24579 -0.09439,-0.107968 -0.19017,-0.274623 -0.19017,-0.462688 -1.64e-4,-0.234421 0.169068,-0.435552 0.402344,-0.478126 0.233255,-0.04255 0.464016,0.08558 0.54855,0.304641 4.71e-4,4.1e-5 0.0054,0.0077 0.01464,0.01444 0.005,0.0047 0.0098,0.0095 0.01462,0.01448 0.09329,0.05276 0.295235,0.130973 0.555912,0.20242 0.521334,0.142894 1.300094,0.28407 2.179767,0.390382 1.759345,0.212602 3.950501,0.318096 5.603004,0.318096 1.652502,0 3.854557,-0.105453 5.617624,-0.318096 0.881534,-0.106332 1.656964,-0.247447 2.179764,-0.390382 0.2614,-0.07149 0.46216,-0.14954 0.55592,-0.20242 0.0108,-0.0061 0.007,0.0051 0.0146,0 0.005,-0.0034 -0.004,-0.01176 0,-0.01448 0.065,-0.242294 0.30582,-0.395964 0.55601,-0.354761 0.25019,0.04122 0.42758,0.263786 0.40952,0.513809 0,0.188433 -0.0956,0.354761 -0.19019,0.462688 -0.0946,0.107906 -0.19755,0.183934 -0.3072,0.24579 -0.21928,0.123714 -0.47021,0.205753 -0.77536,0.289183 -0.61029,0.166839 -1.41749,0.295255 -2.326057,0.404839 -1.817092,0.219146 -4.035731,0.34701 -5.734651,0.34701 z" fill="#fed700" stroke="#000" stroke-width=".483"/><path d="m 102.26413,23.720905 c 0.0938,0.05288 0.64874,-0.144591 0.98015,-0.144591 0,-0.188412 -0.0956,-0.35476 -0.19017,-0.462667 -0.0946,-0.107927 -0.19757,-0.183954 -0.30722,-0.245811 -0.21928,-0.123713 -0.47021,-0.205732 -0.77534,-0.289162 -0.61031,-0.166859 -1.41751,-0.295276 -2.326055,-0.404839 -1.817112,-0.219167 -4.035751,-0.34701 -5.734671,-0.34701 -1.698921,0 -3.906517,0.127843 -5.720052,0.34701 -0.906746,0.109584 -1.717017,0.237918 -2.326034,0.404839 -0.304518,0.08345 -0.556423,0.165326 -0.775365,0.289162 -0.10946,0.06194 -0.212828,0.137843 -0.307218,0.245811 -0.09439,0.107947 -0.19017,0.274623 -0.19017,0.462667 0.244073,0 0.88687,0.197369 0.980156,0.144591 0.09331,-0.05278 0.295235,-0.130993 0.555912,-0.202419 0.521355,-0.142894 1.300094,-0.28407 2.179767,-0.390382 1.759345,-0.212623 3.950501,-0.318096 5.603004,-0.318096 1.652502,0 3.854557,0.105452 5.617624,0.318096 0.881552,0.106312 1.656962,0.247447 2.179762,0.390382 0.26142,0.07147 0.46218,0.14954 0.55592,0.202419 z" fill="#fed700" stroke-width=".236"/><path d="m 93.881562,17.937443 c -1.943321,0 -4.480035,0.128621 -6.553899,0.346991 -1.036942,0.109215 -1.960088,0.240596 -2.647914,0.404859 -0.343902,0.08212 -0.623944,0.156819 -0.86313,0.274705 -0.119582,0.05895 -0.231313,0.126535 -0.336459,0.231333 -0.105166,0.104819 -0.219432,0.283068 -0.219432,0.491602 -0.03084,0.255033 0.144489,0.48972 0.400176,0.535668 0.255688,0.04595 0.50338,-0.112732 0.565339,-0.362163 0.01311,-0.0083 0.0065,-0.0032 0.02926,-0.01446 0.119153,-0.05873 0.353615,-0.144121 0.658318,-0.216876 0.609405,-0.145553 1.503024,-0.283682 2.516225,-0.390403 2.026424,-0.213379 4.54864,-0.318076 6.451514,-0.318076 1.902873,0 4.435437,0.104676 6.46614,0.318076 1.01532,0.106721 1.90516,0.24481 2.51622,0.390403 0.30554,0.0728 0.53863,0.158046 0.65832,0.216876 0.0279,0.01372 0.0306,0.0057 0.0439,0.01446 -6e-5,0.0048 -6e-5,0.0097 0,0.01446 0.0853,0.221968 0.32041,0.350467 0.55598,0.303905 0.23556,-0.04656 0.40256,-0.254563 0.39494,-0.491867 0,-0.208943 -0.11411,-0.386865 -0.21946,-0.491602 -0.10535,-0.104716 -0.21669,-0.172442 -0.33646,-0.231333 -0.23957,-0.117763 -0.51849,-0.192604 -0.86313,-0.274705 -0.68929,-0.164222 -1.6089,-0.295644 -2.64789,-0.404859 -2.078015,-0.21837 -4.62522,-0.346991 -6.56854,-0.346991 z" fill="#fed700" stroke="#000" stroke-width=".483"/><path d="m 103.24428,23.576314 c 0,-0.188412 -0.0956,-0.35476 -0.19019,-0.462667 -0.0946,-0.107927 -0.19755,-0.183954 -0.3072,-0.245811 -0.21928,-0.123713 -0.47021,-0.205753 -0.77536,-0.289162 -0.61029,-0.166859 -1.41749,-0.295276 -2.326055,-0.404859 -1.817092,-0.219147 -4.035731,-0.347011 -5.734651,-0.347011 -1.698941,0 -3.906538,0.127844 -5.720052,0.347011 -0.906746,0.109583 -1.717037,0.237938 -2.326054,0.404859 -0.304498,0.08345 -0.556403,0.165326 -0.775345,0.289162 -0.10946,0.06192 -0.212828,0.137843 -0.307218,0.245811 -0.09439,0.107947 -0.19017,0.274623 -0.19017,0.462667 m 0.980156,0.144591 c 0.09329,-0.05278 0.295235,-0.130972 0.555912,-0.20244 0.521334,-0.142873 1.300094,-0.28407 2.179767,-0.390381 1.759345,-0.212603 3.950501,-0.318076 5.603004,-0.318076 1.652502,0 3.854557,0.105452 5.617624,0.318076 0.881532,0.106332 1.656962,0.247467 2.179762,0.390381 0.2614,0.07149 0.46216,0.14954 0.55592,0.20244" fill="none" stroke="#000" stroke-width=".483"/></g><path d="m 123.39899,86.872927 c -0.27549,0.290916 -0.55156,0.364109 -1.01984,0.290767 -0.81204,-0.235357 -1.16563,-1.239025 -0.87597,-2.038134 0.28512,-0.577779 1.05867,-0.856583 1.75708,-0.749646 -0.60421,0.483649 -0.55854,1.812777 0.13873,2.497013 z" fill="#0094c9" stroke="#000" stroke-width=".236"/><path d="m 121.87542,87.970997 c 0.27354,-0.175764 0.53279,-0.431991 0.50373,-0.807303 -0.81204,-0.235357 -1.16563,-1.239025 -0.87597,-2.038134 -0.99139,-0.04247 -1.7414,1.257204 -1.59203,2.050432 0.24679,0.538552 1.08856,0.961776 1.96427,0.795005 z" fill="#0094c9" stroke="#000" stroke-width=".236"/><path d="m 121.87542,87.970997 c 0.13628,0.345817 0.0524,0.830788 -0.10021,1.169225 -0.38654,0.423486 -1.35779,0.559063 -1.80933,0.226638 -0.55216,-0.728766 -0.42372,-1.776219 -0.0547,-2.190868 0.24679,0.538552 1.08856,0.961776 1.96427,0.795005 z" fill="#0094c9" stroke="#000" stroke-width=".236"/><path d="m 122.38328,90.537736 c 0,-0.437485 -0.20841,-1.077108 -0.60807,-1.397514 -0.38654,0.423486 -1.35779,0.559063 -1.80933,0.226638 0.31257,0.849711 0.8341,1.662939 1.64727,1.858268 0.50263,0.120734 0.77013,-0.135666 0.77013,-0.687392 z" fill="#0094c9" stroke="#000" stroke-width=".236"/><path d="m 127.33832,77.155003 c 0.57552,-0.255793 1.83675,-0.04605 2.38417,0.716271 0.60173,1.247039 -0.0401,2.796384 -1.27401,3.205155 -0.33255,0.10852 -0.86295,0.09049 -1.13908,-0.159438 0.94681,-0.641874 1.17091,-2.936373 0.0289,-3.761988 z" fill="#0094c9" stroke="#000" stroke-width=".236"/><path d="m 131.97767,79.817822 c -0.30295,-1.079345 -1.34766,-1.912763 -2.25518,-1.946548 0.60173,1.247039 -0.0401,2.796384 -1.27401,3.205155 -0.22275,0.328133 0.0704,0.804243 0.34331,0.993536 0.64484,0.318939 3.36706,-0.630427 3.18588,-2.252143 z" fill="#0094c9" stroke="#000" stroke-width=".236"/><path d="m 131.97767,79.817822 c 0.68532,0.457953 1.0681,1.491256 0.70961,2.720253 -0.77086,1.247035 -2.89508,1.012015 -3.5525,0.624685 -0.30511,-0.330707 -0.39627,-0.650698 -0.34299,-1.092795 0.64484,0.318939 3.36706,-0.630427 3.18588,-2.252143 z" fill="#0094c9" stroke="#000" stroke-width=".236"/><path d="m 130.9345,85.500338 c 1.152,-0.145986 2.13872,-1.638244 1.75278,-2.962263 -0.77086,1.247035 -2.89508,1.012015 -3.5525,0.624685 -0.33256,0.02616 -0.47863,0.39247 -0.42534,0.773925 0.39777,0.730715 1.08856,1.401003 2.22506,1.563653 z" fill="#0094c9" stroke="#000" stroke-width=".236"/><path d="m 130.9345,85.500338 c -0.0833,0.924633 -1.45746,1.601063 -2.47479,1.237855 -0.9493,-0.523602 -0.97346,-2.076306 -0.64262,-2.532265 0.18903,-0.193451 0.48219,-0.376181 0.89235,-0.269243 0.39777,0.730715 1.08856,1.401003 2.22506,1.563653 z" fill="#0094c9" stroke="#000" stroke-width=".236"/><path d="m 126.28143,87.023911 c 0.56178,0.485407 1.97401,0.269653 2.17828,-0.285718 -0.9493,-0.523602 -0.97346,-2.076306 -0.64262,-2.532265 -0.2502,-0.179725 -0.95903,-0.142839 -1.27634,0.04645 -0.7552,0.566003 -0.88797,2.073571 -0.25932,2.77153 z" fill="#0094c9" stroke="#000" stroke-width=".236"/><path d="m 126.28143,87.023911 c -0.28922,0.293247 -1.34766,0.201021 -1.71987,-0.24454 -0.41399,-0.75694 -0.25971,-2.378276 0.52408,-2.628347 0.44982,-0.111096 0.94886,-0.115389 1.45511,0.101357 -0.7552,0.566003 -0.88797,2.073571 -0.25932,2.77153 z" fill="#0094c9" stroke="#000" stroke-width=".236"/><path d="m 123.39899,86.872927 c 0.24609,0.181109 0.95829,0.199399 1.16257,-0.09356 -0.41399,-0.75694 -0.25971,-2.378276 0.52408,-2.628347 -0.75805,-0.179725 -1.41199,-0.01931 -1.82538,0.22489 -0.60421,0.483649 -0.55854,1.812777 0.13873,2.497013 z" fill="#0094c9" stroke="#000" stroke-width=".236"/><path d="m 119.9232,77.950869 c 0.26493,-0.333439 1.2544,-0.337215 1.64654,-0.0019 0.93171,0.781164 1.1634,2.233453 0.60888,3.671027 -0.52667,0.807326 -2.35762,0.944593 -2.75022,0.48114 1.31562,-1.010693 1.17091,-3.305194 0.4948,-4.150217 z" fill="#0094c9" stroke="#000" stroke-width=".236"/><path d="m 123.24254,77.834401 c -0.53094,-0.255793 -1.38554,-0.259569 -1.6728,0.114518 0.93171,0.781164 1.1634,2.233453 0.60888,3.671027 0.2692,0.302632 1.00054,0.323431 1.38439,-0.02356 1.31563,-1.224213 0.74387,-3.130488 -0.32047,-3.761988 z" fill="#0094c9" stroke="#000" stroke-width=".236"/><path d="m 123.24254,77.834401 c 0.16787,-0.391674 1.37086,-0.608976 1.87947,-0.33194 1.08701,0.645283 1.57104,2.07816 0.78358,3.457501 -0.35196,0.516158 -1.85292,0.983415 -2.34258,0.636427 1.31563,-1.224213 0.74387,-3.130488 -0.32047,-3.761988 z" fill="#0094c9" stroke="#000" stroke-width=".236"/><path d="m 127.33832,77.155003 c -0.66681,-0.294616 -1.90964,-0.12369 -2.21631,0.347458 1.08701,0.645283 1.57104,2.07816 0.78358,3.457501 0.34685,0.205573 0.94231,0.206961 1.40381,-0.04297 0.94681,-0.641874 1.17091,-2.936373 0.0289,-3.761988 z" fill="#0094c9" stroke="#000" stroke-width=".236"/><path d="m 117.08915,74.068604 c 0.20669,0.656539 -0.41498,1.254516 -0.77989,1.434488 -0.73765,0.431759 -3.4759,0.699959 -4.26335,-1.375916 -0.29373,-1.269682 0.37937,-3.092965 1.88908,-3.478775 -0.37316,1.939831 1.4815,3.682886 3.15416,3.420203 z" fill="#0094c9" stroke="#000" stroke-width=".236"/><path d="m 117.12797,76.844424 c 0.12905,-0.605201 -0.085,-1.230136 -0.81871,-1.341332 -0.73765,0.431759 -3.4759,0.699959 -4.26335,-1.375916 -0.95372,0.593805 -1.01824,3.332183 0.33617,4.441047 1.91738,0.988676 4.41261,-0.93701 4.74589,-1.723799 z" fill="#0094c9" stroke="#000" stroke-width=".236"/><path d="m 117.12797,76.844424 c 0.49786,-0.275208 1.13793,0.08983 1.31654,0.75509 0.23291,1.111158 -0.75832,3.436954 -2.94339,3.865142 -1.53605,0.244401 -3.30877,-1.481825 -3.11904,-2.896433 1.91738,0.988676 4.41261,-0.93701 4.74589,-1.723799 z" fill="#0094c9" stroke="#000" stroke-width=".236"/><path d="m 119.9232,77.950869 c -0.39506,-0.430498 -0.93908,-0.570149 -1.47869,-0.351355 0.23291,1.111158 -0.75832,3.436954 -2.94339,3.865142 0.54096,1.059675 2.78639,1.37164 3.92728,0.63643 1.31562,-1.010693 1.17091,-3.305194 0.4948,-4.150217 z" fill="#0094c9" stroke="#000" stroke-width=".236"/><path d="m 124.97014,72.70981 c 0.51728,0.481838 2.24438,0.575119 2.7724,0.26981 -0.89295,-1.062917 -0.50597,-4.405226 0.60888,-4.656433 -0.44902,-0.551465 -2.35762,-0.550079 -2.8861,-0.198258 -1.24667,0.270456 -1.46903,3.644064 -0.49518,4.584881 z" fill="#0094c9" stroke="#000" stroke-width=".236"/><path d="m 124.97014,72.70981 c -0.51152,0.481838 -2.31728,0.28395 -2.62395,-0.215473 -0.99001,-0.519398 -0.93302,-3.900529 0.24007,-4.501141 0.57978,-0.434997 2.57286,-0.355967 2.87906,0.131733 -1.24667,0.270456 -1.46903,3.644064 -0.49518,4.584881 z" fill="#0094c9" stroke="#000" stroke-width=".236"/><path d="m 120.21437,72.670988 c 0.43963,0.365371 1.9532,0.264536 2.13182,-0.176651 -0.99001,-0.519398 -0.93302,-3.900529 0.24007,-4.501141 -0.74019,-0.396172 -2.80408,-0.239499 -3.17727,0.267614 -0.97491,1.105143 -0.40141,4.071111 0.80538,4.410178 z" fill="#0094c9" stroke="#000" stroke-width=".236"/><path d="m 120.21437,72.670988 c -0.20094,0.307134 -1.34672,0.594529 -1.92515,0.386277 -1.82469,-0.15058 -2.58298,-2.891141 -1.77871,-3.938213 0.17214,-0.648518 2.26228,-1.190654 2.89848,-0.858242 -0.97491,1.105143 -0.40141,4.071111 0.80538,4.410178 z" fill="#0094c9" stroke="#000" stroke-width=".236"/><path d="m 117.08915,74.068604 c 0.53668,-0.08109 1.07969,-0.492504 1.20007,-1.011339 -1.82469,-0.15058 -2.58298,-2.891141 -1.77871,-3.938213 -1.49723,-0.318527 -2.37703,0.847537 -2.57552,1.529349 -0.37316,1.939831 1.4815,3.682886 3.15416,3.420203 z" fill="#0094c9" stroke="#000" stroke-width=".236"/><path d="m 120.60259,60.771844 c -1.17151,-0.391672 -3.13255,-0.240158 -4.19627,0.386278 1.49465,0.897628 2.15338,4.698685 0.0848,5.825683 0.67683,0.962621 3.85401,0.323431 4.66491,-0.567071 1.29621,-1.068924 1.40385,-4.29517 -0.55342,-5.64489 z" fill="#0094c9" stroke="#000" stroke-width=".236"/><path d="m 120.60259,60.771844 c -0.0457,-0.624606 2.47732,-1.366016 3.52944,-0.894871 1.82464,0.722928 3.02689,3.592241 1.50181,5.515101 -0.72079,1.040269 -3.56113,1.643405 -4.47783,1.02466 1.29621,-1.068924 1.40385,-4.29517 -0.55342,-5.64489 z" fill="#0094c9" stroke="#000" stroke-width=".236"/><path d="m 128.46418,59.102469 c -1.92855,-0.411083 -4.14195,0.167477 -4.33215,0.774504 1.82464,0.722928 3.02689,3.592241 1.50181,5.515101 0.56036,0.496752 2.59227,-0.0066 3.09258,-0.567068 2.40267,-1.010693 2.70442,-4.275758 -0.26224,-5.722537 z" fill="#0094c9" stroke="#000" stroke-width=".236"/><path d="m 128.46418,59.102469 c 0.69198,-0.546962 4.41845,-0.589563 5.41234,0.211579 1.82463,1.266439 0.61988,4.912209 -1.81753,5.631568 -0.64314,0.360871 -2.80408,0.401079 -3.33257,-0.12061 2.40267,-1.010693 2.70442,-4.275758 -0.26224,-5.722537 z" fill="#0094c9" stroke="#000" stroke-width=".236"/><path d="m 138.67454,61.101838 c -0.82211,-2.196926 -4.12254,-2.200705 -4.79802,-1.78779 1.82463,1.266439 0.61988,4.912209 -1.81753,5.631568 0.36624,0.438516 1.85464,0.886359 2.91788,0.733486 1.41268,-0.117769 3.98556,-2.198744 3.69767,-4.577264 z" fill="#0094c9" stroke="#000" stroke-width=".236"/><path d="m 138.67454,61.101838 c 2.12842,0.287723 3.37023,3.428578 2.98592,4.559713 -0.2912,1.771136 -4.67941,2.291681 -5.97156,1.477543 -0.42961,-0.02736 -0.84353,-0.860658 -0.71203,-1.459992 1.41268,-0.117769 3.98556,-2.198744 3.69767,-4.577264 z" fill="#0094c9" stroke="#000" stroke-width=".236"/><path d="m 138.55807,71.68101 c 2.20606,0.05479 3.9914,-3.773021 3.10239,-6.019459 -0.2912,1.771136 -4.67941,2.291681 -5.97156,1.477543 -0.37138,0.05029 -0.64941,0.614603 -0.55674,0.966421 -0.004,1.279847 1.36503,3.294665 3.42591,3.575495 z" fill="#0094c9" stroke="#000" stroke-width=".236"/><path d="m 138.55807,71.68101 c -0.0845,0.967119 -3.87019,2.419195 -5.18625,1.29861 -0.93177,-0.888214 -0.44773,-3.900529 0.27889,-4.501143 0.15273,-0.35735 1.11702,-0.588902 1.48145,-0.372962 -0.004,1.279847 1.36503,3.294665 3.42591,3.575495 z" fill="#0094c9" stroke="#000" stroke-width=".236"/><path d="m 130.34708,73.09804 c 0.47845,0.792415 2.72966,0.439237 3.02474,-0.11842 -0.93177,-0.888214 -0.44773,-3.900529 0.27889,-4.501143 -0.27432,-0.454406 -2.12467,-0.530666 -2.49787,-0.06238 -0.91668,0.3481 -1.85725,3.605242 -0.80576,4.68194 z" fill="#0094c9" stroke="#000" stroke-width=".236"/><path d="m 130.34708,73.09804 c -0.37564,0.462421 -2.22023,0.47806 -2.60454,-0.11842 -0.89295,-1.062917 -0.50597,-4.405226 0.60888,-4.656433 0.4439,-0.493228 2.20405,-0.414198 2.80142,0.09291 -0.91668,0.3481 -1.85725,3.605242 -0.80576,4.68194 z" fill="#0094c9" stroke="#000" stroke-width=".236"/><path d="m 111.269,57.230569 c 0.61285,0.706395 2.22053,0.199064 2.30979,-0.354922 -2.04147,-1.078897 -1.39119,-6.336921 -0.025,-6.55506 -1.18989,-1.151163 -5.72666,-0.225601 -5.73931,0.723161 -0.37834,1.23702 1.26659,5.450205 3.45455,6.186821 z" fill="#0094c9" stroke="#000" stroke-width=".236"/><path d="m 111.269,57.230569 c -0.18325,0.404424 -0.68936,0.857909 -1.31384,0.715696 -1.60225,0.293693 -4.98737,-1.230893 -5.21341,-3.12359 -0.31144,-1.562939 1.35589,-4.206108 3.0727,-3.778927 -0.37834,1.23702 1.26659,5.450205 3.45455,6.186821 z" fill="#0094c9" stroke="#000" stroke-width=".236"/><path d="m 110.74741,59.454161 c 0.0638,-0.583837 -0.19522,-1.173523 -0.79225,-1.507896 -1.60225,0.293693 -4.98737,-1.230893 -5.21341,-3.12359 -1.16244,0.05671 -1.99322,3.809808 -0.24896,4.758573 0.85698,1.209567 5.32945,1.030468 6.25462,-0.127087 z" fill="#0094c9" stroke="#000" stroke-width=".236"/><path d="m 110.74741,59.454161 c 0.0638,-0.583837 1.04011,0.473584 0.93721,1.100022 0.53899,1.281954 -2.95594,4.726136 -5.26832,3.57464 -1.79383,-0.245256 -3.00893,-3.657073 -1.92351,-4.547575 0.85698,1.209567 5.32945,1.030468 6.25462,-0.127087 z" fill="#0094c9" stroke="#000" stroke-width=".236"/><path d="m 113.16317,61.375783 c -0.23816,-0.50148 -0.88152,-0.87155 -1.47855,-0.8216 0.53899,1.281954 -2.95594,4.726136 -5.26832,3.57464 0.23761,1.456752 2.81084,2.931349 4.66491,2.562431 1.9276,-0.657153 3.35293,-3.773588 2.08196,-5.315471 z" fill="#0094c9" stroke="#000" stroke-width=".236"/><path d="m 113.16317,61.375783 c 0.5854,-0.50148 2.24798,-0.542129 3.24315,-0.217661 1.49465,0.897628 2.15338,4.698685 0.0848,5.825683 -1.54676,1.072429 -5.01291,0.597948 -5.40989,-0.292551 1.9276,-0.657153 3.35293,-3.773588 2.08196,-5.315471 z" fill="#0094c9" stroke="#000" stroke-width=".236"/><path d="m 135.94813,58.136476 c -1.30877,0.678944 -5.63067,1.214783 -6.63948,0.413728 -2.67286,-0.63967 -3.80694,-4.497654 -3.07217,-6.362897 1.00624,-0.437419 2.45397,-0.747188 3.92371,0.146678 -0.3509,2.088021 2.85879,5.724718 5.78794,5.802491 z" fill="#0094c9" stroke="#000" stroke-width=".236"/><path d="m 123.81445,58.136476 c 0.77756,1.063269 4.25197,1.159879 5.4942,0.413728 -2.67286,-0.63967 -3.80694,-4.497654 -3.07217,-6.362897 -0.75067,-0.821742 -2.43245,-1.076609 -3.48827,-0.621972 -1.17445,0.715433 -0.81974,5.779621 1.06624,6.571141 z" fill="#0094c9" stroke="#000" stroke-width=".236"/><path d="m 123.81445,58.136476 c -0.75973,0.569136 -2.96785,0.52849 -3.64724,-0.354923 -1.82186,-1.161251 -1.39118,-6.474179 -0.025,-6.692315 0.78663,-0.519774 1.93238,-0.143249 2.60602,0.476097 -1.17445,0.715433 -0.81974,5.779621 1.06624,6.571141 z" fill="#0094c9" stroke="#000" stroke-width=".236"/><path d="m 116.75935,57.148215 c 0.5854,0.871106 2.76957,1.242231 3.40786,0.633338 -1.82186,-1.161251 -1.39118,-6.474179 -0.025,-6.692315 -0.28399,-0.739387 -2.405,-1.131513 -3.04904,-0.429813 -1.55878,0.413466 -2.24724,5.532557 -0.3338,6.48879 z" fill="#0094c9" stroke="#000" stroke-width=".236"/><path d="m 116.75935,57.148215 c -0.48522,0.733848 -2.9953,0.391226 -3.18056,-0.272568 -2.04147,-1.078897 -1.39119,-6.336921 -0.025,-6.55506 0.62193,-0.711934 3.05791,-0.417764 3.53939,0.338838 -1.55878,0.413466 -2.24724,5.532557 -0.3338,6.48879 z" fill="#0094c9" stroke="#000" stroke-width=".236"/><path d="m 143.41501,50.038206 c 0.33833,0.92601 -0.30502,3.657991 -2.02758,3.955006 -1.98657,1.364308 -6.55212,-0.160273 -7.05269,-2.931425 0.0454,-0.629584 0.91667,-1.735452 1.83738,-1.692594 1.26876,1.099759 5.02749,1.82657 7.24289,0.669013 z" fill="#0094c9" stroke="#000" stroke-width=".236"/><path d="m 135.94813,58.136476 c 1.90309,0.129909 5.15788,-2.299041 5.4393,-4.143264 -1.98657,1.364308 -6.55212,-0.160273 -7.05269,-2.931425 -1.60166,-0.217808 -3.58541,0.46069 -4.17455,1.272198 -0.3509,2.088021 2.85879,5.724718 5.78794,5.802491 z" fill="#0094c9" stroke="#000" stroke-width=".236"/><path d="m 130.92446,38.37121 c -1.91271,-0.364222 -4.5875,-0.102908 -5.62377,0.496083 -2.23363,1.336855 -1.99513,5.961464 -0.87603,7.006109 1.22586,0.71555 4.45795,0.103821 5.26885,-0.731778 -1.25681,-1.508163 -1.25897,-5.997185 1.23095,-6.770414 z" fill="#0094c9" stroke="#000" stroke-width=".236"/><path d="m 120.93202,39.661442 c 0.66775,-0.501483 3.2088,-0.871555 4.36867,-0.794149 -2.23363,1.336855 -1.99513,5.961464 -0.87603,7.006109 -0.58595,0.743 -3.44816,1.311698 -4.64124,0.723164 -1.55877,-1.233646 -1.34132,-6.161895 1.1486,-6.935124 z" fill="#0094c9" stroke="#000" stroke-width=".236"/><path d="m 130.92446,38.37121 c 1.21679,-0.611291 4.44413,-0.734297 5.10987,0.194112 -2.45324,0.815274 -4.54814,4.808493 -4.44476,6.07275 -0.42124,0.660647 -1.44418,0.872471 -1.89606,0.503552 -1.25681,-1.508163 -1.25897,-5.997185 1.23095,-6.770414 z" fill="#0094c9" stroke="#000" stroke-width=".236"/><path d="m 141.02671,41.034029 c 0.11872,-1.40739 -3.43453,-2.98534 -4.99238,-2.468707 -2.45324,0.815274 -4.54814,4.808493 -4.44476,6.07275 0.31996,1.01752 2.28926,1.394052 3.34722,0.997683 0.52756,-1.755227 3.16077,-4.652046 6.08992,-4.601726 z" fill="#0094c9" stroke="#000" stroke-width=".236"/><path d="m 141.02671,41.034029 c 0.88737,0.15736 1.89111,1.352039 1.32153,2.500062 -1.7395,1.281953 -3.97166,3.243743 -6.20168,3.821706 -0.6683,-0.272712 -1.27947,-0.911894 -1.20977,-1.720042 0.52756,-1.755227 3.16077,-4.652046 6.08992,-4.601726 z" fill="#0094c9" stroke="#000" stroke-width=".236"/><path d="m 143.41501,50.038206 c 1.49131,-1.297582 1.04011,-5.70306 -1.06677,-6.504115 -1.7395,1.281953 -3.97166,3.243743 -6.20168,3.821706 -0.31143,0.633197 -0.29121,1.586215 0.0256,2.013396 1.26876,1.099759 5.02749,1.82657 7.24289,0.669013 z" fill="#0094c9" stroke="#000" stroke-width=".236"/><path d="m 120.93202,39.661442 c -2.02252,-0.11716 -4.80711,0.501031 -5.54141,1.045118 -1.90421,1.336857 -1.83042,5.549688 -0.71132,6.594333 0.48466,0.633195 4.12852,0.295986 5.10413,-0.704327 -1.55877,-1.233646 -1.34132,-6.161895 1.1486,-6.935124 z" fill="#0b698b" stroke="#000" stroke-width=".236"/><path d="m 118.34511,35.572788 c 1.09548,1.667567 0.57364,4.109099 -0.21868,4.790473 -0.51495,-2.474432 -2.5486,-3.690564 -5.00375,-3.409343 -0.26663,-0.238308 -0.41255,-0.704319 -0.47288,-1.109874 0.56293,-0.782266 3.08415,-1.754444 5.69531,-0.271256 z" fill="#0b698b" stroke="#000" stroke-width=".236"/><path d="m 111.07683,41.912487 c 0.66776,-0.501485 2.82449,-1.310784 4.31378,-1.205927 -1.90421,1.336857 -1.83042,5.549688 -0.71132,6.594333 -0.58596,0.825357 -3.53052,1.531314 -4.31182,1.134943 -1.55878,-1.233647 -1.06681,-5.777572 0.70936,-6.523349 z" fill="#0b698b" stroke="#000" stroke-width=".236"/><path d="m 96.534445,35.852096 c -0.269564,-1.732812 1.104781,-4.956578 3.267689,-5.543905 2.922236,-0.702721 6.147676,2.094011 5.866596,5.481048 0.0273,0.613957 -0.13643,0.986441 -0.71685,1.503559 -1.27189,-0.962988 -6.482642,-1.789896 -8.417435,-1.440702 z" fill="#0094c9" stroke="#000" stroke-width=".236"/><path d="m 99.82817,30.308884 c 0.66025,-1.624616 4.42269,-3.26272 6.21339,-2.873396 2.86741,0.900675 4.60738,4.458839 2.62395,7.218738 -1.23448,0.677126 -1.6854,1.100948 -3.01509,1.13267 0.0696,-2.983804 -3.65063,-5.714295 -5.82225,-5.478012 z" fill="#0094c9" stroke="#000" stroke-width=".236"/><path d="m 118.34511,35.572788 c 0.29938,-1.105062 -0.66169,-2.698937 -1.56382,-3.197987 -2.21696,-0.470456 -4.27806,1.168396 -4.70177,2.602594 -0.047,0.338174 0.21883,0.668265 0.57028,0.866649 0.56293,-0.782266 3.08415,-1.754444 5.69531,-0.271256 z" fill="#0b698b" stroke="#000" stroke-width=".236"/><path d="m 114.52932,30.137339 c 1.06803,0.15772 2.11093,1.089406 2.25197,2.237462 -2.21696,-0.470456 -4.27806,1.168396 -4.70177,2.602594 -0.29409,-0.183407 -0.52236,-0.429807 -0.6376,-0.83536 -0.19199,-1.015607 -0.0728,-4.115294 3.0874,-4.004696 z" fill="#0b698b" stroke="#000" stroke-width=".236"/><path d="m 105.96719,27.421188 c 1.33037,-0.868913 4.32987,-0.922894 5.55164,-0.504695 2.57328,1.552906 3.6666,5.241056 1.08704,7.453948 -1.35956,0.36615 -2.69923,0.516408 -3.99874,0.23294 1.63138,-2.634022 -0.53824,-6.634431 -2.63994,-7.182193 z" fill="#0094c9" stroke="#000" stroke-width=".236"/><path d="m 101.83903,42.038949 c 2.16481,2.172645 4.9488,3.843246 9.88263,3.843246 5.39469,0 13.36776,-4.17267 21.30257,-4.17267 3.93419,0 7.7963,2.601035 7.7963,6.368811 0,4.466866 -3.76649,8.015913 -10.54148,8.015913 -6.59789,0 -11.91515,-2.52556 -17.02009,-2.52556 -2.91294,0 -6.259,1.429776 -6.259,5.160929 0,2.942009 3.86603,5.490355 8.12572,5.490355 7.1546,0 12.12613,-3.623635 18.33778,-3.623635 3.54701,0 7.13746,2.040206 7.13746,5.380547 0,3.116409 -3.52662,4.886414 -7.63159,4.886414 -4.16781,0 -8.22577,-0.658843 -12.4082,-0.658843 -3.68733,0 -7.63159,2.077623 -7.63159,5.270739 0,2.814473 2.51072,4.447182 5.92958,4.447182 4.12717,0 5.54276,-1.098069 8.23553,-1.098069 2.62421,0 4.39228,1.531429 4.39228,3.843248 0,1.696509 -1.91435,3.239307 -3.73344,3.239307 -1.90006,0 -2.2726,-0.549037 -4.17267,-0.549037 -1.11065,0 -2.24333,0.721162 -2.7133,1.756899 -0.42188,0.929742 -0.26098,2.430929 0.51716,3.01971" fill="none" stroke="#fff" stroke-width=".971"/><path d="m 99.873193,46.140101 c 0.895117,2.032985 5.103517,3.235006 7.266427,2.298272 3.69868,-0.819189 2.45952,-7.339895 0.81965,-8.650399 -0.40941,-0.269261 -1.17494,-0.32383 -1.60978,-0.243461 0.2422,2.725164 -2.60037,7.294607 -6.476297,6.595588 z" fill="#0094c9" stroke="#000" stroke-width=".236"/><path d="m 96.534445,35.852096 c -1.24013,0.945952 -1.496336,4.36086 0.62775,6.102893 2.922235,0.850186 7.622935,0.424638 8.700655,-2.788179 -0.0115,-0.667189 -0.21409,-1.498211 -0.91097,-1.874012 -1.27189,-0.962988 -6.482642,-1.789896 -8.417435,-1.440702 z" fill="#0094c9" stroke="#000" stroke-width=".236"/><path d="m 114.85874,45.208357 c -1.08484,3.158841 -6.2327,4.050283 -7.71912,3.230016 3.69868,-0.819189 2.45952,-7.339895 0.81965,-8.650399 0.71645,-0.657489 2.47438,-0.867346 3.59246,-0.786978 1.2904,0.35698 4.15477,2.830003 3.30701,6.207361 z" fill="#0094c9" stroke="#000" stroke-width=".236"/><path d="m 99.873193,46.140101 c -1.822472,-0.606954 -2.971596,-2.433104 -2.710998,-4.185112 2.922235,0.850186 7.622935,0.424638 8.700655,-2.788179 0.25058,0.08015 0.41678,0.219689 0.48664,0.377703 0.2422,2.725164 -2.60037,7.294607 -6.476297,6.595588 z" fill="#0094c9" stroke="#000" stroke-width=".236"/><path d="m 114.85874,45.208357 c 1.96021,-0.679558 3.26391,-2.65776 3.26769,-4.845096 -0.51495,-2.474432 -2.5486,-3.690564 -5.00375,-3.409343 -0.87057,0.324452 -1.52434,1.42319 -1.57095,2.047078 1.2904,0.35698 4.15477,2.830003 3.30701,6.207361 z" fill="#0b698b" stroke="#000" stroke-width=".236"/><path d="m 112.74052,38.19669 c -0.32745,-0.0024 -0.64544,0.02455 -0.95114,0.0738 -0.13469,0.265688 -0.22234,0.52293 -0.23779,0.729757 1.2904,0.35698 4.15217,2.82968 3.30441,6.207038 1.85972,-0.644716 3.12677,-2.457603 3.25521,-4.509737 -1.17673,-1.565749 -3.41056,-2.486218 -5.37069,-2.500854 z" fill="#0094c9" stroke-width=".7"/><path d="m 114.85874,45.208357 c 1.96021,-0.679558 3.26391,-2.65776 3.26769,-4.845096 -0.51495,-2.474432 -2.5486,-3.690564 -5.00375,-3.409343 -0.87057,0.324452 -1.52434,1.42319 -1.57095,2.047078 1.2904,0.35698 4.15477,2.830003 3.30701,6.207361 z" fill="none" stroke="#000" stroke-width=".236"/><path d="m 116.48813,33.516345 c 0.60171,5.485947 -3.35831,10.656248 -8.61863,10.656248 -5.13225,0 -7.76453,-3.122176 -7.76453,-6.696335 0,-4.693223 3.63144,-7.143374 9.39508,-7.143374" fill="none" stroke="#fff" stroke-width=".971"/><path d="m 117.14812,27.421188 c -1.6978,-0.868913 -4.13347,-0.845249 -5.62929,-0.504695 2.57328,1.552906 3.6666,5.241056 1.08704,7.453948 0.81451,0.482618 3.62887,0.865812 5.20223,0.38823 2.60194,-1.508164 1.82994,-6.207382 -0.65998,-7.337483 z" fill="#0094c9" stroke="#000" stroke-width=".236"/><path d="m 117.14812,27.421188 c 1.60213,-0.208929 4.05811,0.513544 5.3187,1.009388 2.80621,1.203501 4.44305,5.396349 1.24233,7.531596 -1.70896,0.2885 -4.56271,0.05053 -5.90105,-1.203501 2.60194,-1.508164 1.82994,-6.207382 -0.65998,-7.337483 z" fill="#0094c9" stroke="#000" stroke-width=".236"/><path d="m 127.86317,29.284675 c -1.07663,-0.635978 -4.21112,-0.961716 -5.39635,-0.854099 2.80621,1.203501 4.44305,5.396349 1.24233,7.531596 0.89216,0.832019 3.74533,1.292858 5.35752,0.504694 2.60194,-1.508163 1.28642,-6.052089 -1.2035,-7.182191 z" fill="#0094c9" stroke="#000" stroke-width=".236"/><path d="m 127.86317,29.284675 c 1.91271,-0.364221 4.83456,-0.185262 6.1728,0.194113 3.19444,0.815273 4.52069,5.357528 1.39762,7.143371 -0.62192,0.715549 -5.61092,0.982276 -6.36692,-0.155293 2.60194,-1.508163 1.28642,-6.052089 -1.2035,-7.182191 z" fill="#0094c9" stroke="#000" stroke-width=".236"/><path d="m 140.32524,28.702336 c -1.58133,-0.247757 -4.98757,0.04767 -6.28927,0.776452 3.19444,0.815273 4.52069,5.357528 1.39762,7.143371 1.35803,0.948484 5.25942,0.322292 6.09515,-0.737632 2.60194,-1.974036 0.82055,-6.285024 -1.2035,-7.182191 z" fill="#0094c9" stroke="#000" stroke-width=".236"/><path d="m 140.32524,28.702336 c 0.0492,-0.480691 1.02994,-0.728781 1.97996,-0.582339 3.19444,0.815274 4.09364,2.756409 3.92109,4.969299 0.6204,1.763763 -4.17449,3.544573 -4.69755,2.795231 2.60194,-1.974036 0.82055,-6.285024 -1.2035,-7.182191 z" fill="#0094c9" stroke="#000" stroke-width=".236"/><path d="m 142.7184,26.567091 c -0.53311,0.140473 -1.33824,1.018237 -1.00939,1.552906 3.19444,0.815274 4.68983,2.756409 4.51728,4.969299 1.51331,0.24968 3.35711,-2.977636 2.67876,-4.581072 -0.8921,-2.43991 -5.09434,-2.363939 -6.18665,-1.941133 z" fill="#0094c9" stroke="#000" stroke-width=".236"/><path d="m 142.14514,26.956906 c -0.30018,-0.558336 0.0594,-1.544058 0.62116,-1.979958 1.02038,-0.776454 5.53485,-1.205088 6.41051,0.03723 0.4651,1.336717 0.21247,3.001057 -0.27176,3.494041 -0.8921,-2.43991 -5.6676,-1.974125 -6.75991,-1.551318 z" fill="#0094c9" stroke="#000" stroke-width=".236"/><path d="m 141.63886,24.410276 c -0.18371,0.41223 0.29231,1.018236 0.73763,1.048209 1.02037,-0.776454 5.92466,-1.686625 6.80032,-0.444302 1.08627,-2.545548 -1.34043,-4.452894 -2.79523,-4.425781 -2.01796,-0.188196 -5.08685,2.894373 -4.74272,3.821874 z" fill="#0094c9" stroke-width=".9"/><path d="m 141.79937,25.098183 c -0.53311,0.101648 -0.87237,-0.107622 -1.24232,-0.543519 -0.53254,-0.737632 1.37719,-5.325056 2.5246,-5.67446 1.78508,-0.720884 3.74534,0.982276 3.29993,1.708198 -2.01796,-0.188196 -4.92634,3.58228 -4.58221,4.509781 z" fill="#0b698b" stroke="#000" stroke-width=".236"/><path d="m 137.82357,24.791004 c 0.47627,0.218118 2.11697,0.668835 2.75641,0.03882 -0.53254,-0.737632 1.35426,-5.600219 2.50167,-5.949623 -0.38899,-0.953821 -3.1651,-0.958856 -3.95991,-0.543517 -1.16386,1.63647 -2.06935,5.798576 -1.29817,6.454317 z" fill="#0b698b" stroke="#000" stroke-width=".236"/><path d="m 139.19938,22.956584 c -0.61076,0.451055 -2.54174,0.630009 -3.14463,0.03882 -1.07605,-0.854099 -0.99212,-3.494038 -0.19411,-4.386959 0.69804,-0.720887 2.54183,-0.725922 3.2611,-0.27176 -1.16386,1.63647 -0.69354,3.964155 0.0776,4.619897 z" fill="#0094c9" stroke="#000" stroke-width=".236"/><path d="m 146.18637,20.584117 c -2.0143,0.01058 -4.88411,2.930661 -4.55073,3.829177 -0.0459,0.103056 -0.0504,0.212731 -0.0246,0.32798 l 0.45097,0.434575 c 8.9e-4,-0.397458 0.28925,-0.79147 0.77895,-1.188931 0.0847,0.42171 1.46123,3.556835 4.6015,0.702249 -2.27415,0.989217 -2.83356,-1.241053 -2.49422,-2.309355 0.52642,-0.933667 1.73215,-1.057654 2.84524,-1.287325 l -0.16399,-0.155791 c -0.42844,-0.229072 -0.87032,-0.351388 -1.24633,-0.34438 -0.0631,-0.0059 -0.13181,-0.0085 -0.19679,-0.0082 z" fill="#0b698b" stroke-width=".7"/><path d="m 141.63886,24.410276 c -0.18371,0.41223 0.29231,1.018236 0.73763,1.048209 1.02037,-0.776454 5.92466,-1.686625 6.80032,-0.444302 1.08627,-2.545548 -1.34043,-4.452894 -2.79523,-4.425781 -2.01796,-0.188196 -5.08685,2.894373 -4.74272,3.821874 z" fill="none" stroke="#000" stroke-width=".236"/><path d="m 109.50005,30.332884 c 9.85008,0 17.84691,3.760923 27.64174,2.872879 6.57195,-0.595847 9.96337,-4.84634 9.23979,-8.929209 -0.79074,-4.461841 -8.17094,-4.972303 -11.95738,-3.64933" fill="none" stroke="#fff" stroke-width=".971"/><path d="m 113.61554,7.952062 c -0.39337,0.015966 -0.71027,0.05721 -0.93256,0.147245 -0.50959,0.2064076 -0.81092,0.4085698 -1.06998,0.598796 -0.22818,0.1675589 -0.54957,0.304201 -0.86384,0.4417352 -0.31426,0.1375368 -0.62778,0.2729667 -0.85402,0.4515535 -0.0368,0.031413 -0.0488,0.083228 -0.0294,0.1276108 0.0361,0.1021963 0.0777,0.2074571 0.12762,0.3141245 -0.0528,-0.0033 -0.10617,-0.0042 -0.15707,0 -0.0796,-0.2965945 -0.25121,-0.5052874 -0.481,-0.6086145 -0.25467,-0.1145152 -0.54596,-0.1354588 -0.81475,-0.1276108 -0.002,-0.00208 -0.008,0.00205 -0.01,0 -0.14189,-0.1344145 -0.29682,-0.2402893 -0.49082,-0.2748585 -0.22424,-0.039961 -0.47153,-0.025323 -0.70677,0.029447 -0.45507,0.1059536 -0.88855,0.3474289 -1.11906,0.6478803 -0.47077,0.1432831 -0.82844,0.3603725 -1.06999,0.6478785 -0.23469,0.27935 -0.34595,0.629117 -0.3632,1.020899 -0.40018,0.26784 -0.56863,0.56741 -0.57917,0.854023 -0.0106,0.288537 0.10527,0.547891 0.1767,0.795123 -0.10847,0.337335 -0.20382,0.681292 -0.16688,1.040533 0.0367,0.356941 0.22467,0.714414 0.60861,1.060163 0.005,0.371561 0.12989,0.672476 0.35339,0.893289 0.22941,0.226645 0.54407,0.369049 0.90311,0.481001 0.005,0.0015 0.005,0.0084 0.01,0.0098 0.16737,0.196607 0.38228,0.320957 0.62825,0.353387 0.26711,0.03522 0.56371,-0.01201 0.88347,-0.117795 0.007,-0.0057 0.0139,-0.01228 0.0196,-0.01963 0.20945,-0.125554 0.37742,-0.251997 0.45155,-0.431917 0.0421,-0.102109 0.0395,-0.218923 0,-0.333756 0.24194,0.07539 0.49386,0.131778 0.75586,0.166877 -0.10723,0.390224 -0.50245,0.80396 -1.04053,1.256492 -0.5647,0.474924 -1.26532,0.996047 -1.89455,1.619696 -0.65971,0.653852 -1.02358,1.70619 -1.23686,2.728945 -0.20271,0.972001 -0.25631,1.878611 -0.2945,2.454084 -1.46077,-0.464901 -3.10802,-0.386674 -4.623492,-0.402469 0.0088,-0.429771 0.0042,-0.865859 -0.09816,-1.246677 -0.111986,-0.416811 -0.327401,-0.78163 -0.687144,-0.971817 -0.09991,-0.05282 -0.212654,-0.04928 -0.304305,-0.0098 -0.09165,0.03946 -0.158407,0.107271 -0.206143,0.196327 -0.09548,0.178109 -0.09561,0.431355 0.06871,0.638061 0.02384,0.02999 0.0389,0.05959 0.0589,0.08835 l -0.451551,-0.206143 c 0.0028,-0.05155 0.0092,-0.128922 0,-0.274858 -0.0059,-0.09382 -0.01527,-0.191916 -0.03927,-0.284674 -0.02399,-0.09276 -0.05357,-0.179928 -0.127613,-0.245409 -0.124143,-0.109784 -0.301491,-0.156945 -0.480999,-0.166876 -0.17951,-0.0099 -0.368632,0.01852 -0.500635,0.12761 -0.0018,0.0015 -0.04106,0.02574 -0.08835,0.0589 -0.04728,0.03316 -0.109511,0.07305 -0.166876,0.127613 -0.09386,0.08929 -0.154519,0.236372 -0.186511,0.392654 -0.214599,0.06828 -0.364613,0.224848 -0.422104,0.402469 -0.05734,0.177149 -0.02193,0.364605 0.0589,0.530083 h -0.0098 c 0.002,0.01281 0.0078,0.02642 0.0098,0.03927 0.10174,0.657268 0.185336,1.369905 0.962,2.051614 0.0031,0.0035 0.0063,0.0068 0.0098,0.0098 0.275137,0.177346 0.644435,0.209459 1.011084,0.255224 0.366646,0.04577 0.731723,0.09995 0.981634,0.26504 0.384018,0.253687 1.282975,0.660307 2.336295,1.030718 1.05332,0.370409 2.25206,0.700822 3.21976,0.755857 0.0211,-7.51e-4 0.0416,-0.0076 0.0589,-0.01963 2.24293,-1.307838 2.76731,-3.131926 3.57315,-4.78056 0.0214,-0.04384 0.047,-0.0846 0.0687,-0.127611 v -0.0098 l -0.01,-0.107979 c 3.1992,-0.20862 5.55297,2.292426 8.40279,2.827106 0.005,0.01065 0.22756,0.499751 0.32394,0.706778 l 4.329,1.315389 c 0.007,5.85e-4 0.0131,5.85e-4 0.0196,0 l 4.15231,0.382838 c 0.0425,0.0061 0.0846,-0.01305 0.10798,-0.04908 l 0.962,-1.590248 c 0.0163,-0.02272 0.0233,-0.05081 0.0196,-0.07853 L 126.151,22.82382 c -0.004,-0.01427 -0.0105,-0.02763 -0.0196,-0.03927 -0.003,-0.0069 -0.006,-0.01343 -0.01,-0.01963 l -2.71913,-3.180496 c -0.003,-0.0035 -0.006,-0.0068 -0.01,-0.0098 -0.009,-0.0081 -0.0186,-0.01472 -0.0295,-0.01963 L 119.898,18.180691 c -0.0159,-0.02782 -0.0367,-0.05182 -0.0687,-0.0589 l -3.29829,-1.521532 c 0.0479,-0.100042 0.0372,-0.213332 0,-0.32394 -0.0372,-0.110608 -0.10605,-0.227566 -0.19633,-0.343572 -0.18055,-0.232011 -0.45861,-0.477443 -0.79512,-0.687143 -0.36042,-0.224596 -0.79,-0.417625 -1.24668,-0.500633 0.62612,-0.779639 1.62166,-1.691285 2.40501,-2.738761 0.78672,-1.051987 1.36134,-2.2562461 1.09943,-3.5927812 -0.008,-0.044944 -0.0434,-0.080114 -0.0884,-0.088345 -0.74381,-0.145857 -1.78385,-0.2812239 -2.74857,-0.3435744 -0.48237,-0.031174 -0.95148,-0.045414 -1.34484,-0.029447 z m -0.88347,1.8748436 c 0.38012,-0.017729 0.77446,0.071279 1.17796,0.1505459 0.44617,0.087646 0.91257,0.2137075 1.37429,0.2225525 -0.065,0.05849 -0.089,0.105163 -0.19633,0.176695 -0.20082,0.133813 -0.46339,0.292015 -0.74604,0.461366 -0.5653,0.338702 -1.21691,0.737094 -1.65897,1.227045 -0.16587,0.18384 -0.52826,0.357961 -0.94236,0.608612 -0.37884,0.229308 -0.80917,0.532027 -1.15833,1.001268 -0.0685,-0.254555 -0.15647,-0.51264 -0.26504,-0.765675 0.16589,0.03431 0.33221,-0.0075 0.45155,-0.09816 0.14755,-0.112062 0.20949,-0.307202 0.15706,-0.510451 0.14954,-0.17574 0.19948,-0.410593 0.13743,-0.647878 -0.0631,-0.241375 -0.23161,-0.475275 -0.481,-0.657693 0.0263,-0.08314 0.0413,-0.161325 0.0491,-0.235593 0.0104,-8.13e-4 0.0198,-0.0053 0.0294,-0.0098 0.1963,-0.09157 0.73046,-0.316956 0.73046,-0.316956 0,0 0.0193,0.490694 0.0193,0.490694 0,0 0.69299,-0.838154 0.92557,-1.0360025 0.12446,-0.026747 0.26925,-0.054639 0.39596,-0.060548 z" fill="#be5525" stroke-width=".7"/><path d="m 107.40179,24.158843 c -0.4889,0.452931 -0.96728,0.799618 -1.8651,1.364472 -0.38502,0.242225 -0.87653,0.536348 -1.59025,0.539898 -1.64263,0.0082 -3.28431,-0.454776 -4.927805,-0.893289 -0.02486,0 -0.13887,0.101593 -0.274856,0.225777 0.140977,0.03812 0.275401,0.08609 0.382838,0.157061 0.384018,0.253687 1.282973,0.660307 2.336293,1.030718 1.05332,0.370409 2.25206,0.700822 3.21976,0.755857 0.0211,-7.51e-4 0.0416,-0.0076 0.0589,-0.01963 1.4624,-0.852719 2.19297,-1.923513 2.74858,-3.023435 z" fill="#74361a" stroke-width=".7"/><path d="m 107.68647,9.0024089 c -0.11926,0.00551 -0.23577,0.021697 -0.35339,0.049082 -0.45507,0.1059536 -0.88855,0.3474289 -1.11906,0.6478803 -0.47077,0.1432831 -0.82844,0.3603718 -1.06999,0.6478778 -0.23469,0.27935 -0.34595,0.629117 -0.3632,1.020899 -0.40018,0.26784 -0.56863,0.56741 -0.57917,0.854023 -0.0106,0.288537 0.10527,0.547891 0.1767,0.795123 -0.10847,0.337335 -0.20382,0.681292 -0.16688,1.040533 0.0367,0.356941 0.22467,0.714414 0.60861,1.060163 0.005,0.371561 0.12989,0.672476 0.35339,0.893289 0.22941,0.226645 0.54407,0.369049 0.90311,0.481001 0.005,0.0015 0.005,0.0084 0.01,0.0098 0.16737,0.196607 0.38228,0.320957 0.62825,0.353387 0.26711,0.03522 0.56371,-0.01201 0.88347,-0.117795 0.007,-0.0057 0.0139,-0.01228 0.0196,-0.01963 0.20945,-0.125554 0.37742,-0.251997 0.45155,-0.431917 0.0421,-0.102109 0.0395,-0.218923 0,-0.333756 0.10828,0.03374 0.22147,0.06242 0.33376,0.08834 l 0.0491,-0.147245 -1.35465,-0.471182 -1.08962,-0.893289 -0.51045,-1.011084 0.39266,-1.079797 1.05035,-0.85402 0.4221,-0.814757 1.40373,0.117795 0.57917,0.579164 0.93255,1.629514 0.0982,-0.03927 c -0.0195,-0.04923 -0.0379,-0.09833 -0.0589,-0.147245 0.16589,0.03431 0.33221,-0.0075 0.45155,-0.09816 0.14755,-0.112062 0.20949,-0.307202 0.15706,-0.510451 0.14954,-0.17574 0.19948,-0.410593 0.13743,-0.647878 -0.0631,-0.241375 -0.23161,-0.475275 -0.481,-0.657693 0.0263,-0.08314 0.0413,-0.161325 0.0491,-0.235593 0.0104,-8.13e-4 0.0195,-0.006 0.0294,-0.0098 0.24172,-0.07823 0.48813,-0.147001 0.74604,-0.245409 0.0602,-0.289701 -0.041,-0.5492754 -0.25747,-0.5373762 0.0967,-0.149701 0.0475,-0.3186374 -0.1771,-0.2957679 0.11933,-0.2064364 -0.0281,-0.4218622 -0.40964,-0.4527947 -0.24834,0.1107788 -0.48657,0.2301849 -0.66751,0.3730218 -0.0368,0.031413 -0.0488,0.083228 -0.0294,0.1276108 0.0361,0.1021963 0.0777,0.2074571 0.12762,0.3141242 -0.0528,-0.0033 -0.10617,-0.0042 -0.15707,0 -0.0796,-0.2965942 -0.25121,-0.5052871 -0.481,-0.6086142 -0.25467,-0.1145152 -0.54596,-0.1354588 -0.81475,-0.1276108 -0.002,-0.00208 -0.008,0.00205 -0.01,0 -0.14189,-0.1344145 -0.29682,-0.2402893 -0.49082,-0.2748585 -0.11212,-0.019981 -0.23412,-0.025144 -0.35338,-0.019634 z" fill="#74361a" stroke-width=".7"/><path d="m 109.64973,21.086326 c -0.7847,0.165256 -1.19355,0.873642 -1.25649,1.207411 3.18901,-0.196902 5.53929,2.293544 8.38316,2.827106 0.005,0.01065 0.22756,0.499751 0.32394,0.706778 l 2.09088,0.638061 0.55953,-1.256492 c 0,0 -3.49246,-1.887081 -5.12413,-2.06143 -1.44822,-0.908119 -3.3383,-0.868176 -4.95725,-2.061434 -0.006,0.001 -0.0138,-0.0011 -0.0196,0 z" fill="#74361a" stroke-width=".7"/><path d="m 120.31028,14.175622 c -0.29208,0 -0.5384,0.08352 -0.73622,0.225777 -0.30623,0.126834 -0.5723,0.345301 -0.75586,0.677328 -0.04,0.303414 0.0352,0.80158 0.20614,1.364471 0.008,0.02584 0.0114,0.05244 0.0196,0.07853 0.13718,0.698844 0.47807,1.447007 1.0209,2.100699 1.28699,1.54981 2.91448,2.670814 4.07379,3.80874 0.57965,0.568963 1.04047,1.140497 1.28594,1.766941 0.23578,0.601732 0.26296,1.254778 0.0196,2.022167 -1.53854,-0.828574 -3.58144,-1.717859 -5.65421,-1.717859 -1.3067,0 -2.34189,0.258596 -3.0627,0.657694 -0.72082,0.3991 -1.12888,0.939702 -1.12888,1.5019 0,0.20614 0.10722,0.391182 0.26504,0.520267 0.15782,0.129085 0.36773,0.212238 0.58898,0.255224 0.4425,0.08598 0.94286,-0.0045 1.17796,-0.373019 0.13006,-0.203883 0.28065,-0.367966 0.44174,-0.510451 0.003,7.48e-4 0.007,-3.83e-4 0.01,0 0.007,8.19e-4 0.0131,8.19e-4 0.0196,0 0.30304,-0.03479 0.77494,0.141635 1.33502,0.412285 0.56008,0.270652 1.20822,0.622038 1.90437,0.932555 0.69615,0.310516 1.43929,0.575575 2.17923,0.647877 0.73994,0.0723 1.4767,-0.04862 2.15959,-0.500632 0.01,-0.0066 0.0196,-0.01298 0.0294,-0.01964 0.20357,0.339634 0.67878,0.604947 1.20741,0.530083 0.56226,-0.07962 1.02233,-0.509365 1.35466,-1.069981 0.072,0.534464 0.35926,0.889035 0.71659,1.079797 0.42606,0.227459 0.93409,0.23486 1.31539,0.08835 0.0593,0.06958 0.11928,0.143281 0.18651,0.206146 0.4955,0.463345 1.18695,0.74019 1.95345,0.85402 0.53221,0.07904 1.20125,0.218257 1.71786,0.431919 0.25831,0.106833 0.48432,0.230781 0.62825,0.373022 0.14392,0.142241 0.20746,0.292698 0.18651,0.471183 -0.002,0.0097 -0.002,0.01972 0,0.02945 0.006,0.02111 0.0199,0.0389 0.0393,0.04908 0.009,0.0052 0.0191,0.0085 0.0294,0.0098 0.0129,0.0033 0.0264,0.0033 0.0393,0 0.0112,-0.0042 0.0213,-0.01093 0.0294,-0.01963 0.43331,-0.454844 0.5561,-0.948807 0.46136,-1.384106 -0.0947,-0.435299 -0.39562,-0.812548 -0.7853,-1.050347 -0.4869,-0.297117 -1.10129,-0.440072 -1.6197,-0.58898 -0.25921,-0.07446 -0.49711,-0.152259 -0.67733,-0.245411 -0.0438,-0.02264 -0.0517,-0.05405 -0.0883,-0.07853 0.46788,0.19985 0.98768,0.299375 1.60987,0.353387 0.61306,0.05322 1.19415,0.238253 1.60988,0.510451 0.41575,0.272196 0.66931,0.622067 0.64788,1.0209 -0.002,0.0097 -0.002,0.01972 0,0.02945 0.002,0.007 0.006,0.01358 0.01,0.01964 0.007,0.01229 0.0172,0.02246 0.0294,0.02945 0.009,0.0052 0.0191,0.0085 0.0294,0.0098 0.0137,2.15e-4 0.0273,-0.0032 0.0393,-0.0098 0.0112,-0.0042 0.0213,-0.01093 0.0294,-0.01963 0.0118,-0.01524 0.008,-0.03383 0.0196,-0.04908 0.33782,-0.454933 0.4949,-0.913451 0.47118,-1.31539 -0.0245,-0.415413 -0.23015,-0.773046 -0.58898,-0.981634 -0.58909,-0.342448 -1.41789,-0.278468 -2.21849,-0.412287 -0.72436,-0.121075 -1.41756,-0.411879 -1.93382,-1.246677 0.78241,0.535402 1.62612,0.801819 2.37555,0.814757 0.49729,0.0086 1.00201,-0.04272 1.42337,0.02945 0.42136,0.07217 0.75594,0.248193 0.962,0.755857 0.002,0.007 0.006,0.01358 0.01,0.01964 0.003,0.0036 0.006,0.0068 0.01,0.0098 0.0161,0.01435 0.0374,0.02146 0.0589,0.01963 0.0181,-6.74e-4 0.0355,-0.0076 0.0491,-0.01963 0.004,-0.003 0.007,-0.0063 0.01,-0.0098 0.005,-0.0091 0.009,-0.01908 0.01,-0.02945 0.0469,-0.179123 0.0752,-0.346747 0.0982,-0.500633 0.16412,0.156166 0.26678,0.324523 0.35339,0.500633 0.1025,0.208412 0.19564,0.419694 0.37302,0.569348 0.2671,0.225357 0.56825,0.334367 0.92274,0.353388 0.35448,0.01902 0.75618,-0.04284 1.21722,-0.157061 0.007,-0.0023 0.0136,-0.0056 0.0196,-0.0098 0.0123,-0.007 0.0225,-0.01716 0.0294,-0.02945 0.004,-0.0061 0.007,-0.01266 0.01,-0.01963 0.003,-0.01288 0.003,-0.02639 0,-0.03927 -0.001,-0.01037 -0.005,-0.02038 -0.01,-0.02945 -0.01,-0.01376 -0.0234,-0.02408 -0.0393,-0.02945 -0.78886,-0.302086 -1.19407,-0.961433 -1.41355,-1.364471 -0.15295,-0.280867 -0.20831,-0.550221 -0.33376,-0.804942 -0.10325,-0.209663 -0.28313,-0.400629 -0.55953,-0.579164 0.38499,-0.09026 0.72571,-0.05858 1.04053,0.08835 0.36467,0.170185 0.70146,0.456672 1.05035,0.765675 0.69779,0.618005 1.44782,1.323043 2.53262,1.197592 0.0268,-0.005 0.0491,-0.0236 0.0589,-0.04908 0.007,-0.012 0.01,-0.02554 0.01,-0.03926 -0.003,-0.01948 -0.0138,-0.03701 -0.0294,-0.04908 -0.003,-0.0036 -0.006,-0.0068 -0.01,-0.0098 -0.003,-2.05e-4 -0.007,-2.05e-4 -0.01,0 -0.58053,-0.30916 -0.78539,-0.771374 -0.93255,-1.256492 -0.14717,-0.485115 -0.2226,-0.995942 -0.5399,-1.344837 -0.69901,-0.768598 -1.2932,-1.344389 -2.44427,-1.649146 0.85344,-0.107344 1.98292,0.0377 3.49462,0.775491 0.012,0.0066 0.0255,0.01003 0.0393,0.0098 0.0104,-0.0013 0.0204,-0.0046 0.0294,-0.0098 0.007,-0.0023 0.0136,-0.0056 0.0196,-0.0098 0.004,-0.003 0.007,-0.0063 0.01,-0.0098 0.009,-0.0082 0.0154,-0.01827 0.0196,-0.02945 0.002,-0.0097 0.002,-0.01972 0,-0.02945 -0.002,-0.007 -0.006,-0.01358 -0.01,-0.01963 -0.007,-0.01577 -0.0227,-0.02361 -0.0294,-0.03927 -0.73121,-1.683864 -2.16518,-2.680456 -3.5437,-2.935088 0.43851,0.01666 0.92505,0.09237 1.43318,0.274859 0.85271,0.306232 1.68157,0.848701 2.08107,1.63933 0.64381,1.274127 1.55588,1.961123 2.5228,1.884738 0.95768,-0.07566 1.92123,-0.905235 2.70931,-2.55225 0.008,-0.01588 0.0219,-0.02324 0.0294,-0.03927 0.005,-0.0091 0.009,-0.01908 0.01,-0.02945 -0.001,-0.01037 -0.005,-0.02038 -0.01,-0.02945 -0.002,-0.007 -0.006,-0.01358 -0.01,-0.01963 -0.003,-0.0036 -0.006,-0.0068 -0.01,-0.0098 -0.008,-0.0087 -0.0183,-0.01541 -0.0294,-0.01963 -0.0129,-0.0033 -0.0264,-0.0033 -0.0393,0 -0.007,0.0023 -0.0136,0.0056 -0.0196,0.0098 -0.003,-2.04e-4 -0.007,-2.04e-4 -0.01,0 -0.68673,0.462131 -1.22647,0.737986 -1.66878,0.863839 -0.4423,0.125853 -0.78192,0.112327 -1.06998,-0.0098 -0.57611,-0.244288 -0.97215,-0.937731 -1.51171,-1.776759 -0.63845,-0.99279 -1.75839,-1.78992 -2.96454,-2.277391 -0.54147,-0.218837 -1.09533,-0.352365 -1.63933,-0.43192 1.00425,0.07328 1.91445,0.390767 2.83692,0.520267 2.1021,0.295099 4.35221,0.09724 5.50697,-1.315389 0.004,-0.0061 0.007,-0.01266 0.01,-0.01963 0.013,-0.04062 -0.009,-0.0842 -0.0491,-0.09816 -0.009,-0.0052 -0.0191,-0.0085 -0.0295,-0.0098 -2.6774,0.255143 -4.78758,-0.702532 -7.06777,-1.443 -1.2832,-0.416709 -2.66115,-0.555471 -4.00507,-0.43192 -1.34391,0.123552 -2.6539,0.5091 -3.7891,1.148513 -0.004,0.003 -0.007,0.0063 -0.01,0.0098 -0.004,0.003 -0.007,0.0063 -0.01,0.0098 -0.68453,-0.901011 -1.58287,-1.521532 -2.91545,-1.521532 -0.92843,-3e-6 -1.81271,0.458082 -2.4639,1.109244 -0.35568,0.355658 -0.64509,0.766938 -0.83439,1.197595 -0.003,-7.48e-4 -0.007,3.83e-4 -0.01,0 -0.007,-8.21e-4 -0.0131,-8.21e-4 -0.0196,0 -1.1636,0.0059 -1.92444,-0.705526 -2.66023,-1.433185 -0.73579,-0.727661 -1.44573,-1.482269 -2.47372,-1.482269 z" fill="#0094c9" stroke-width=".5"/><path d="m 119.49693,18.157058 c 0.66849,1.329037 1.40592,2.477072 2.89443,3.714384 l -0.78716,0.139392 c 0.036,0.580898 0.64758,1.165599 1.14794,1.746498 -1.8831,0.259873 -2.45375,0.519078 -3.575,0.778954 l 0.008,0.0656 c 0.19575,-0.01308 0.39677,-0.0246 0.60677,-0.0246 2.08948,5e-6 4.16381,0.923867 5.70687,1.762897 1.13188,-3.294938 -2.8229,-4.695193 -5.37889,-7.773147 -0.0778,-0.09375 -0.15025,-0.194965 -0.22139,-0.295182 z" fill="#74361a" stroke-width=".7"/><path d="m 122.81218,26.556153 c -1.48562,-0.63563 -4.06145,-1.385927 -5.24329,0.46668 -0.41954,0.657662 -1.89417,0.359997 -1.89417,-0.356872 0,-1.048209 1.52533,-2.086334 4.11776,-2.086334 2.08948,0 4.16691,0.917885 5.70997,1.756915 1.13188,-3.294933 -2.82456,-4.690895 -5.38055,-7.768849 -0.94387,-1.136627 -1.39631,-2.812176 -1.30656,-3.492894 0.32269,-0.583659 0.90831,-0.817034 1.49872,-0.817034 1.97866,0 2.74222,2.921994 5.13348,2.909888" fill="none" stroke="#000" stroke-width=".236"/><path d="m 131.7889,16.591165 c -0.69879,-1.016799 -1.59754,-1.729462 -3.01969,-1.729462 -1.80491,0 -3.45893,1.791038 -3.45893,3.321665 0,2.460675 3.64677,3.916451 3.48638,6.286454" fill="none" stroke="#000" stroke-width=".236"/><path d="m 125.66716,21.889355 c 1.207,1.189576 2.40095,4.48692 -0.0275,6.094288 -2.66593,1.764593 -6.19198,-1.665654 -7.54923,-1.509848" fill="none" stroke="#000" stroke-width=".236"/><path d="m 128.76921,25.375728 c 0,1.345139 -0.75612,2.944775 -1.86672,3.102051 -0.52263,0.07401 -0.98827,-0.219616 -1.15298,-0.549037" fill="none" stroke="#000" stroke-width=".236"/><path d="m 128.35743,15.767613 c 1.75668,0.957287 0.22658,4.913864 2.30595,4.913864 0.68591,0 1.14422,-0.942113 0.68629,-2.443205" fill="none" stroke="#000" stroke-width=".236"/><path d="m 127.61364,16.75732 c 0.34719,0.481282 0.4246,0.897665 0.45155,1.285942 0.0254,0.365749 0.0407,0.703957 0.19633,1.030715 -0.25136,0.09746 -0.57401,0.09874 -0.83439,-0.07853 -0.26345,-0.179359 -0.47118,-0.544763 -0.47118,-1.197592 0,-0.706274 0.55884,-0.99309 0.65769,-1.040535 z" fill="#fff" stroke-width=".5"/><path d="m 129.48295,19.638309 c -0.27452,0.164712 -0.82926,-0.0041 -1.12552,-0.494131 -0.40326,-0.666992 0.0824,-1.454944 -0.71375,-2.498109 -1.41639,0.648316 -0.87767,2.81062 0.65885,2.498109" fill="none" stroke="#000" stroke-width=".236"/><ellipse transform="matrix(0.2784033,-0.1454814,0.1454814,0.2784033,80.273462,11.355942)" cx="107.798" cy="71.486" rx="1.529" ry="1.66" fill="#0094c9" stroke="#000" stroke-width=".752"/><path d="m 129.73002,23.646267 c 0.0161,1.37483 1.13118,2.968282 2.82753,2.662822" fill="none" stroke="#000" stroke-width=".236"/><path d="m 128.32998,27.160091 c -0.0408,1.398721 1.23336,1.69722 1.94907,1.422212" fill="none" stroke="#000" stroke-width=".236"/><path d="m 129.83983,26.940481 c -0.11654,1.585407 1.10793,2.476793 2.61711,2.700917 1.0712,0.159081 2.6948,0.543433 2.59872,1.361942 0.83802,-0.87965 0.43563,-1.853034 -0.31205,-2.309287 -0.94212,-0.574914 -2.43249,-0.568341 -2.68019,-1.20454 0.52036,0.344448 1.1731,0.431379 1.96126,0.499798 1.24855,0.108386 2.36778,0.74697 2.32121,1.613989 0.70695,-0.916778 0.59847,-1.829953 -0.0766,-2.222367 -1.11387,-0.647513 -3.26993,0.216462 -4.34315,-1.950301 0.84099,0.674012 1.78669,0.941188 2.60963,0.955396 0.98088,0.01693 2.02587,-0.221799 2.45619,0.83839 0.3998,-1.528336 -0.14397,-2.051618 -0.98928,-2.290343 -0.82737,-0.233651 -1.94932,-0.188996 -2.23727,-1.068192 1.33047,0.649195 2.47015,-0.140197 3.29754,0.547083 0.52269,-1.803984 -1.43712,-1.674954 -2.30928,-2.441257 0.80897,-0.09526 1.61794,-0.158315 2.42692,0.557825" fill="none" stroke="#000" stroke-width=".236"/><path d="m 131.74543,16.356732 c 2.24909,-1.26682 5.18655,-1.537021 7.73129,-0.710643 2.27471,0.738689 4.3992,1.705548 7.09897,1.448272 -1.12513,1.376386 -3.34335,1.578176 -5.43297,1.28483 -1.4272,-0.200355 -2.85417,-0.956353 -4.69974,-0.314261 1.97117,-0.554267 5.13513,0.679193 6.38764,2.626856 1.07674,1.674332 1.60325,2.804153 4.36623,0.944827 -1.57134,3.330929 -3.8548,3.215792 -5.12578,0.700467 -0.82485,-1.632405 -3.36231,-2.214765 -4.38577,-1.903968 1.55291,-0.06804 3.45522,1.010016 4.30931,3.028166 -1.74234,-0.850357 -3.01988,-0.948413 -3.92108,-0.737632 1.41693,0.262296 1.99913,0.880007 2.77546,1.733628 0.5899,0.648626 0.28965,1.972585 1.49503,2.614509 -2.09554,0.242336 -2.87303,-2.691086 -4.81401,-2.018777 0.7865,0.398659 0.71515,0.883738 1.03218,1.465909 0.22138,0.406531 0.63599,1.094304 1.45247,1.406967 -0.91502,0.226682 -1.57007,0.254112 -2.07754,-0.174058 -0.31723,-0.267648 -0.33236,-0.789718 -0.81475,-1.165324" fill="none" stroke="#000" stroke-width=".236"/><path d="m 108.84007,10.960381 c 0.59799,0.445377 0.92416,1.018641 1.21545,1.625033 0.32542,0.677461 0.5784,1.396272 0.53157,2.024298 -0.0589,0.789841 -0.52197,1.367402 -1.39762,1.436438 -1.29484,-0.07614 -2.34115,-0.649331 -3.22228,-1.552906" fill="none" stroke="#000" stroke-width=".236"/><path d="m 109.50006,14.609712 c 0,0.214302 -0.20872,0.388227 -0.46588,0.388227 -0.25716,0 -0.46587,-0.173925 -0.46587,-0.388227 0,-0.2143 0.22812,-0.504695 0.48529,-0.504695 0.25716,0 0.44646,0.290395 0.44646,0.504695 z" fill="#74361a" stroke="#000" stroke-width=".236"/><path d="m 107.59775,12.979161 0.62116,0.854097" fill="none" stroke="#000" stroke-width=".236"/><path d="m 108.45184,11.698013 c -0.24754,0.167118 -0.52209,0.316234 -0.62116,0.582339 0.48687,0.335816 0.86795,-0.04401 0.62116,-0.582339 z" fill="none" stroke="#000" stroke-width=".236"/><path d="m 106.35456,13.681817 c 0.18106,-0.237545 0.34569,-0.503081 0.61705,-0.586703 0.3073,0.505345 -0.0938,0.863991 -0.61705,0.586703 z" fill="none" stroke="#000" stroke-width=".236"/><path d="m 117.68483,8.7112092 c -0.43567,1.7656308 -1.58824,2.5593688 -2.32046,3.3044068 -0.76086,0.774172 -2.1688,1.640186 -2.96142,2.67915 0.28822,0.308772 0.79957,0.09633 1.79709,-0.0061 1.22493,-1.530905 3.79898,-3.515536 3.52579,-5.9774518 z" fill="#74361a" stroke-width=".7"/><path d="m 110.58709,13.872083 c 0.70642,-1.05771 1.79191,-1.302496 2.1783,-1.730748 0.85209,-0.944401 2.57184,-1.611973 2.791,-2.03505 -1.07379,0.08011 -2.1735,-0.4971587 -3.22228,-0.2717597 -0.19482,0.1719537 -0.65341,1.2155417 -0.96721,1.1754967 -0.19274,-0.02459 0.18045,-0.478729 0.0575,-0.554238 -0.17049,-0.104733 -0.57748,0.122473 -0.79853,0.194018 -0.0694,-0.156423 -0.21515,-0.393375 -0.38845,-0.446474 -0.38824,-0.11896 -0.48319,-0.2721638 -0.43204,-0.4553005 0.25154,-0.1985675 0.8061,-0.4216259 1.18594,-0.5915987 0.24824,-0.1110806 0.49041,-0.2288703 0.68276,-0.3701147 0.2557,-0.1877572 0.54719,-0.3794056 1.04821,-0.5823392 0.78856,-0.3193956 3.49424,-0.05631 4.96931,0.2329347 0.50736,2.5891204 -2.22401,4.6631714 -3.49405,6.2504474" fill="none" stroke="#000" stroke-width=".236"/><path d="m 107.83068,15.774393 c 0.32072,0.343456 0.12921,0.613739 -0.27176,0.854096 -0.62023,0.205206 -1.12628,0.182022 -1.43644,-0.232935 -0.71066,-0.21892 -1.21442,-0.585632 -1.2035,-1.31997 -0.79474,-0.685866 -0.64978,-1.371735 -0.42705,-2.0576 -0.14681,-0.530576 -0.45699,-1.061155 0.38823,-1.591731 0.0127,-0.795296 0.45334,-1.352811 1.39762,-1.6305502 0.39641,-0.5574441 1.72675,-1.0032095 2.25171,-0.388227 0.52661,-0.01663 1.13808,0.079311 1.24232,0.7376312 0.38033,-0.06163 0.99588,0.140988 0.69881,0.892919 0.52636,0.345794 0.6601,0.951137 0.3494,1.242326 0.14236,0.362346 -0.25881,0.672925 -0.62116,0.465872" fill="none" stroke="#000" stroke-width=".236"/><path d="m 97.929022,21.675309 c -0.100934,0.148636 -0.332623,0.431956 -0.657694,0.314122 0.01227,0.211144 0.01181,0.323693 -0.284674,0.431919 0.05759,0.157232 -0.06177,0.318052 -0.186511,0.343572 0.110438,0.226023 0.238524,0.436097 0.274856,0.736225 0.216108,0.181172 0.301868,0.358727 0.392656,0.539899 0.269663,-0.03102 0.464109,0.06128 0.657694,0.157061 0.06794,-0.273376 0.419763,-0.458875 0.736225,-0.657694 v -0.775491 l -0.29449,-0.29449 -0.451551,-0.206143 c 0.0028,-0.05155 0.0092,-0.128922 0,-0.274858 -0.0018,-0.02823 -0.0071,-0.05961 -0.0098,-0.08835 z" fill="#74361a" stroke-width=".7"/><path d="m 108.95654,16.084972 c -0.18422,0.918803 -1.74586,1.756899 -2.98935,2.989344 -1.26355,1.252336 -1.43931,4.114381 -1.51408,5.241058 -1.49203,-0.511419 -3.22402,-0.405439 -4.814009,-0.427047 0.03271,-0.925394 -0.08832,-1.889028 -0.737632,-2.232303 -0.291126,-0.15391 -0.585338,0.314366 -0.310579,0.659984 0.363505,0.45726 0.298342,0.808806 0.271757,1.184092" fill="none" stroke="#000" stroke-width=".236"/><path d="m 98.785002,22.684824 -0.776454,-0.349405 c 0,0 0.04557,-0.635409 -0.135878,-0.795862 -0.187784,-0.166064 -0.64146,-0.198518 -0.834688,-0.03882 -0.06603,0.05457 -0.445312,0.252485 -0.446096,0.58722 -0.413697,0.1018 -0.493304,0.538636 -0.330356,0.829804 0.10549,0.672928 0.165085,1.345853 0.931744,2.01878 0.48061,0.309793 1.431999,0.15375 1.991516,0.523371 0.725667,0.479382 3.60496,1.659316 5.50125,1.767164 2.2111,-1.28928 2.72134,-3.076104 3.53287,-4.736361 0.36599,-0.748778 0.77324,-1.445318 1.78584,-1.436439" fill="none" stroke="#000" stroke-width=".236"/><path d="m 108.3742,22.296597 c 3.20706,-0.209134 5.56524,2.307789 8.42451,2.834054" fill="none" stroke="#000" stroke-width=".236"/><path d="m 116.27451,16.894332 c -0.21655,-0.23888 -0.59082,0.951268 -1.59084,1.152512 -0.5302,0.106693 -1.88575,-0.365355 -1.88575,-0.365358 v 0.0328 c 0.48682,0.277577 0.85856,0.532415 1.78749,0.541169 1.04298,0.0098 1.41322,-0.737015 1.6891,-1.361121 z" fill="#74361a" stroke-width=".9"/><path d="m 116.41049,16.667311 3.37757,1.552909" fill="none" stroke="#000" stroke-width=".236"/><path d="m 119.8657,20.806695 c 0,0.142144 -0.13913,0.257507 -0.31058,0.257507 -0.17144,0 -0.31058,-0.115363 -0.31058,-0.257507 0,-0.142144 0.15208,-0.334761 0.32353,-0.334761 0.17144,0 0.29763,0.192617 0.29763,0.334761 z" fill="none" stroke="#000" stroke-width=".236"/><path d="m 114.14647,19.524188 c -0.29794,0.668178 -0.77521,1.320241 -1.42556,1.411989 -0.45796,0.06461 -1.11803,-0.292501 -1.75558,-0.353419 -0.74095,-0.0708 -1.14342,0.281032 -1.22751,0.364321 1.64105,-0.173788 2.30699,0.71547 3.1201,0.60629 0.62412,-0.0838 1.23801,-1.225723 1.28855,-2.029181 z" fill="#74361a" stroke-width=".9"/><path d="m 113.11056,14.920294 c 1.65853,-0.522705 3.57018,1.106455 3.31934,1.63055 -0.0682,0.142575 -0.13595,0.306631 -0.21359,0.475475" fill="none" stroke="#000" stroke-width=".236"/><path d="m 107.62163,20.489052 c -0.49575,0.452918 -0.96317,2.081724 -1.42996,3.736369 0.45152,-0.294942 1.17659,-2.819082 1.42996,-3.736369 z" fill="#74361a" stroke-width=".7"/><path d="m 114.17554,18.986488 c 0.37648,0.328125 1.41685,0.418808 2.00659,0.768042 1.00749,0.596615 2.19534,0.748597 2.67119,0.699494 -0.32948,-0.267682 -2.69317,-1.08896 -4.67778,-1.467536 z" fill="#74361a" stroke-width=".7"/><path d="m 120.41258,22.334307 c 0.88315,-0.294475 2.1105,-0.476706 3.16429,-0.489741" fill="none" stroke="#000" stroke-width=".184"/></g><use xlink:href="#a" transform="translate(-500.00498,499.99773)" width="1000" height="1000"/><use xlink:href="#b" transform="translate(500,500)" width="1000" height="1000"/></svg>