<?xml version="1.0" encoding="UTF-8" standalone="no"?>
<!-- Created with Inkscape (http://www.inkscape.org/) -->

<svg
   xmlns:osb="http://www.openswatchbook.org/uri/2009/osb"
   xmlns:dc="http://purl.org/dc/elements/1.1/"
   xmlns:cc="http://creativecommons.org/ns#"
   xmlns:rdf="http://www.w3.org/1999/02/22-rdf-syntax-ns#"
   xmlns:svg="http://www.w3.org/2000/svg"
   xmlns="http://www.w3.org/2000/svg"
   xmlns:sodipodi="http://sodipodi.sourceforge.net/DTD/sodipodi-0.dtd"
   xmlns:inkscape="http://www.inkscape.org/namespaces/inkscape"
   width="900"
   height="600"
   id="svg2"
   version="1.1"
   inkscape:version="0.48.1 r9760"
   sodipodi:docname="King of Kandy.svg">
  <defs
     id="defs4">
    <linearGradient
       id="linearGradient5238"
       osb:paint="solid">
      <stop
         style="stop-color:#000000;stop-opacity:1;"
         offset="0"
         id="stop5240" />
    </linearGradient>
    <linearGradient
       id="linearGradient5232"
       osb:paint="solid">
      <stop
         style="stop-color:#ffff00;stop-opacity:1;"
         offset="0"
         id="stop5234" />
    </linearGradient>
    <linearGradient
       id="linearGradient3788"
       osb:paint="gradient">
      <stop
         style="stop-color:#ffff00;stop-opacity:1;"
         offset="0"
         id="stop3790" />
      <stop
         style="stop-color:#ffff00;stop-opacity:0;"
         offset="1"
         id="stop3792" />
    </linearGradient>
    <linearGradient
       id="linearGradient3760"
       osb:paint="solid">
      <stop
         style="stop-color:#ff0000;stop-opacity:1;"
         offset="0"
         id="stop3762" />
    </linearGradient>
  </defs>
  <sodipodi:namedview
     id="base"
     pagecolor="#ffffff"
     bordercolor="#666666"
     borderopacity="1.0"
     inkscape:pageopacity="0.0"
     inkscape:pageshadow="2"
     inkscape:zoom="0.7"
     inkscape:cx="672.2906"
     inkscape:cy="330.70238"
     inkscape:document-units="px"
     inkscape:current-layer="layer1"
     showgrid="false"
     inkscape:window-width="1366"
     inkscape:window-height="716"
     inkscape:window-x="0"
     inkscape:window-y="0"
     inkscape:window-maximized="1" />
  <metadata
     id="metadata7">
    <rdf:RDF>
      <cc:Work
         rdf:about="">
        <dc:format>image/svg+xml</dc:format>
        <dc:type
           rdf:resource="http://purl.org/dc/dcmitype/StillImage" />
        <dc:title />
      </cc:Work>
    </rdf:RDF>
  </metadata>
  <g
     inkscape:label="Layer 1"
     inkscape:groupmode="layer"
     id="layer1"
     transform="translate(0,-452.36218)">
    <rect
       style="fill:#ffce00;fill-opacity:1;fill-rule:evenodd;stroke:none"
       id="rect3786"
       width="900"
       height="600"
       x="0"
       y="452.36218" />
    <rect
       y="502.36218"
       x="50"
       height="500"
       width="800"
       id="rect5244"
       style="fill:#aa0000;fill-opacity:1;fill-rule:evenodd;stroke:#000000;stroke-width:7;stroke-miterlimit:4;stroke-dasharray:none" />
    <path
       style="fill:#ffce00;fill-opacity:1;stroke:#000000;stroke-width:3;stroke-miterlimit:4;stroke-dasharray:none"
       d="m 149.28272,586.64907 c 1.64659,-2.17236 -1.89423,-7.63061 -7.90441,-12.18615 -1.32864,-1.00707 -2.66632,-1.87308 -3.9628,-2.60773 -0.33893,-4.17352 -3.45301,-9.20807 -8.52503,-13.05251 -3.2661,-2.47562 -6.79521,-4.03346 -9.98687,-4.61924 -0.61318,-5.69414 -4.58305,-12.19767 -11.0351,-17.08815 -3.6343,-2.75469 -7.54857,-4.6093 -11.283137,-5.53789 -1.180673,-9.06597 -7.070559,-19.47445 -16.073362,-26.39933 l -28.066488,0.30993 -0.211971,36.99816 c 9.052809,6.89323 20.710803,9.7163 29.784998,8.35998 1.903163,3.33498 4.738461,6.59324 8.362691,9.34031 6.451964,4.8904 13.780289,6.96321 19.428259,6.01496 1.42676,2.91328 3.88772,5.88455 7.15226,8.35897 5.07202,3.84444 10.76077,5.4822 14.87062,4.68071 1.05766,1.04972 2.25293,2.10362 3.58157,3.11068 6.01018,4.55555 12.22219,6.48965 13.86877,4.3173 z"
       id="path2985"
       inkscape:connector-curvature="0"
       sodipodi:nodetypes="sscscscccccscscss" />
    <path
       sodipodi:nodetypes="sscscscccccscscss"
       inkscape:connector-curvature="0"
       id="path5265"
       d="m 749.95858,586.64907 c -1.64659,-2.17236 1.89423,-7.63061 7.90441,-12.18615 1.32864,-1.00707 2.66632,-1.87308 3.9628,-2.60773 0.33893,-4.17352 3.45301,-9.20807 8.52503,-13.05251 3.2661,-2.47562 6.79521,-4.03346 9.98687,-4.61924 0.61318,-5.69414 4.58305,-12.19767 11.0351,-17.08815 3.6343,-2.75469 7.54857,-4.6093 11.28314,-5.53789 1.18067,-9.06597 7.07056,-19.47445 16.07336,-26.39933 l 28.06649,0.30993 0.21197,36.99816 c -9.05281,6.89323 -20.7108,9.7163 -29.785,8.35998 -1.90316,3.33498 -4.73846,6.59324 -8.36269,9.34031 -6.45196,4.8904 -13.78029,6.96321 -19.42826,6.01496 -1.42676,2.91328 -3.88772,5.88455 -7.15226,8.35897 -5.07202,3.84444 -10.76077,5.4822 -14.87062,4.68071 -1.05766,1.04972 -2.25293,2.10362 -3.58157,3.11068 -6.01018,4.55555 -12.22219,6.48965 -13.86877,4.3173 z"
       style="fill:#ffce00;fill-opacity:1;stroke:#000000;stroke-width:3;stroke-miterlimit:4;stroke-dasharray:none" />
    <path
       sodipodi:nodetypes="sscscscccccscscss"
       inkscape:connector-curvature="0"
       id="path5269"
       d="m 149.81843,918.08535 c 1.64659,2.17236 -1.89423,7.63061 -7.90441,12.18615 -1.32864,1.00707 -2.66632,1.87308 -3.9628,2.60773 -0.33893,4.17352 -3.45301,9.20807 -8.52503,13.05251 -3.2661,2.47562 -6.79521,4.03346 -9.98687,4.61924 -0.61318,5.69414 -4.58305,12.19767 -11.0351,17.08815 -3.6343,2.75469 -7.54857,4.6093 -11.283133,5.53789 -1.180673,9.06597 -7.070559,19.47445 -16.073362,26.39937 l -28.066488,-0.31 -0.211971,-36.99813 c 9.052809,-6.89323 20.710803,-9.7163 29.784998,-8.35998 1.903163,-3.33498 4.738461,-6.59324 8.362691,-9.34031 6.451964,-4.8904 13.780285,-6.96321 19.428255,-6.01496 1.42676,-2.91328 3.88772,-5.88455 7.15226,-8.35897 5.07202,-3.84444 10.76077,-5.4822 14.87062,-4.68071 1.05766,-1.04972 2.25293,-2.10362 3.58157,-3.11068 6.01018,-4.55555 12.22219,-6.48965 13.86877,-4.3173 z"
       style="fill:#ffce00;fill-opacity:1;stroke:#000000;stroke-width:3;stroke-miterlimit:4;stroke-dasharray:none" />
    <path
       style="fill:#ffce00;fill-opacity:1;stroke:#000000;stroke-width:3;stroke-miterlimit:4;stroke-dasharray:none"
       d="m 749.95858,917.90677 c -1.64659,2.17236 1.89423,7.63061 7.90441,12.18615 1.32864,1.00707 2.66632,1.87308 3.9628,2.60773 0.33893,4.17352 3.45301,9.20807 8.52503,13.05251 3.2661,2.47562 6.79521,4.03346 9.98687,4.61924 0.61318,5.69414 4.58305,12.19767 11.0351,17.08815 3.6343,2.75469 7.54857,4.6093 11.28314,5.53789 1.18067,9.06597 7.07056,19.4744 16.07336,26.3993 l 28.06649,-0.3099 0.21197,-36.99816 c -9.05281,-6.89323 -20.7108,-9.7163 -29.785,-8.35998 -1.90316,-3.33498 -4.73846,-6.59324 -8.36269,-9.34031 -6.45196,-4.8904 -13.78029,-6.96321 -19.42826,-6.01496 -1.42676,-2.91328 -3.88772,-5.88455 -7.15226,-8.35897 -5.07202,-3.84444 -10.76077,-5.4822 -14.87062,-4.68071 -1.05766,-1.04972 -2.25293,-2.10362 -3.58157,-3.11068 -6.01018,-4.55555 -12.22219,-6.48965 -13.86877,-4.3173 z"
       id="path5271"
       inkscape:connector-curvature="0"
       sodipodi:nodetypes="sscscscccccscscss" />
    <path
       sodipodi:nodetypes="scsscssssssssssssssscssssssscscsccscscscssssccscsssssssssssscsscssssssscssssscssscccssssssscsssssscsscsssssssssscsssscscsssssssssssccsssssssssssssssscsssccscsscscsssssssssssscscsccsssssscsssscssscscsssscsssscssssssscsscssssccsssssscsscsssssscssssscssssssssssssscssssscsssssssssscsscscsssssssssssssssssssscssssscssssssssscsccscsssscssscssssssccssssscssscssssccccccscsscscssssssccssssscsssscccscccsssssssssssssscssssssssssssssssssssssccsscssscssscccscsssccsscsssssccssscscsssssssscscsssssscsscssssscsssscsssscssscssscssssscsssssssssssssssccssssssssssssssssssssscssccsssssssssssssssscsssscsssssccccssssssccscc"
       style="fill:#000000;fill-opacity:1;stroke:#000000;stroke-width:5;stroke-miterlimit:4;stroke-dasharray:none"
       d="m 352.88325,925.22847 3.81537,-2.32605 1.63223,2.33025 c 2.17452,3.10465 8.19162,3.06952 12.18424,-0.0714 l 3.05297,-2.40142 2.55635,2.40142 c 3.36102,3.15758 9.63787,3.16177 13.64579,0.0113 2.80591,-2.20705 3.19713,-2.25137 5.0524,-0.57245 1.10602,1.00096 4.34996,2.14053 7.20879,2.53232 5.14874,0.70573 5.22671,0.66697 8.23911,-4.10504 2.52291,-3.99648 2.91754,-5.61398 2.31551,-9.49009 -0.39904,-2.56972 -0.82892,-6.70571 -0.95528,-9.19099 -0.2286,-4.50002 -0.204,-4.52801 6.00383,-6.81043 3.42833,-1.26049 7.39681,-2.95109 8.81881,-3.75689 2.47928,-1.40488 9.31453,-9.88765 9.31453,-11.55954 0,-0.44302 -2.67036,-1.12166 -5.93403,-1.50824 -12.98176,-1.53748 -15.18032,-8.89837 -6.74106,-22.57057 13.76309,-22.29754 22.06827,-44.01221 22.1238,-57.84511 0.0249,-6.18302 0.35836,-8.25906 1.11078,-6.91447 3.07508,5.49485 -2.43383,28.53428 -10.77879,45.07925 l -3.36011,6.66207 3.20632,-0.77939 c 1.76346,-0.42863 12.13142,-5.04753 23.03976,-10.26415 29.858,-14.27909 40.11343,-17.07729 59.43665,-16.21789 16.18876,0.72001 23.08294,4.05949 34.51295,16.71814 6.05518,6.70605 11.88822,11.50424 22.55867,18.55686 22.73342,15.02563 23.68145,16.32715 24.76265,33.9974 1.09537,17.90338 0.55023,18.87465 -12.27445,21.86642 -10.96081,2.55703 -17.83289,7.9526 -19.67592,15.44848 -0.98418,4.00316 1.08698,4.11842 6.61323,0.36822 l 4.05008,-2.74845 1.80087,2.74845 c 2.36753,3.6134 7.39998,3.6278 11.57881,0.0329 l 3.15667,-2.71524 3.22683,2.71524 c 5.01376,4.21872 11.68127,3.19566 13.56295,-2.08114 0.36176,-1.01422 1.32713,-0.68929 3.28202,1.10466 3.66293,3.36147 13.0526,4.8033 14.06682,2.16025 0.38703,-1.00844 -0.34816,-3.49894 -1.6337,-5.53441 -5.46301,-8.6496 -7.17196,-12.7746 -7.24314,-17.48292 -0.0986,-6.54874 1.75168,-9.70847 8.80589,-15.03434 8.56913,-6.46975 11.21717,-14.81675 4.7005,-14.81675 -4.02356,0 -8.07976,-3.75519 -10.66648,-9.87508 -5.25821,-12.44015 -4.22767,-26.38638 3.66418,-49.58685 8.01595,-23.56552 8.90517,-27.91072 8.93724,-43.67142 0.0261,-12.74329 -0.27789,-14.94702 -3.02373,-21.93329 -1.67881,-4.27163 -5.08516,-10.63205 -7.56965,-14.13425 l -4.51735,-6.36765 5.79983,-5.07356 c 17.70924,-15.49153 14.08654,-40.84537 -7.23191,-50.61413 -6.52177,-2.98851 -8.15128,-3.25242 -19.5805,-3.17129 -6.85666,0.0487 -17.31166,1.00143 -23.23333,2.11727 -6.03772,1.13768 -16.25755,2.05204 -23.26801,2.08176 -11.13683,0.0473 -13.02734,-0.24258 -17.31927,-2.65479 -4.4752,-2.51522 -5.24246,-3.7094 -6.11864,-9.52284 -0.18009,-1.19502 -0.97138,-2.38714 -1.75826,-2.64917 -1.52218,-0.50681 -8.55179,5.93512 -9.59038,8.78858 -0.51238,1.40797 -0.93058,1.31062 -2.43383,-0.56667 -0.99835,-1.24666 -2.39224,-4.11125 -3.09763,-6.36574 -1.77378,-5.66993 0.40438,-9.92021 6.71625,-13.1055 l 4.89702,-2.47124 -2.88762,-1.8921 c -5.95873,-3.90428 -16.09073,-1.23344 -19.75502,5.20757 -1.03655,1.82197 -2.16716,3.31591 -2.51237,3.31985 -0.34522,0.003 -2.3154,-1.73417 -4.3783,-3.86248 -7.69352,-7.93775 -5.04707,-19.68138 5.24326,-23.26679 5.48726,-1.91193 10.34325,-0.45345 11.35362,3.41007 1.54246,5.89845 6.33737,-1.85486 5.4774,-8.85698 -0.57177,-4.6553 -0.48586,-4.81666 2.56484,-4.81666 4.24241,0 13.27224,5.87927 16.06512,10.4599 3.24394,5.32056 3.00786,13.69896 -0.56191,19.94316 l -2.80307,4.90306 3.66667,-0.77531 c 5.37676,-1.1369 10.60041,-4.6626 13.24301,-8.93837 2.79366,-4.5203 3.09411,-13.32199 0.61676,-18.07199 -2.40063,-4.60309 -2.12534,-5.33384 1.42369,-3.77834 6.03625,2.64567 9.26342,5.56347 11.6841,10.56388 2.17997,4.50323 2.30169,5.62229 1.12155,10.30925 -0.72817,2.89172 -2.34827,6.69628 -3.60037,8.45456 -1.94945,2.73784 -2.01598,3.19687 -0.46274,3.19687 2.89272,0 8.93282,-2.89084 11.0781,-5.30207 1.08381,-1.2182 2.6639,-4.21778 3.51141,-6.66575 l 1.54099,-4.45084 1.77061,3.39267 c 2.50387,4.79744 7.37154,9.1145 13.30635,11.80096 6.38294,2.88934 9.04117,3.05214 5.70328,0.34926 -2.25092,-1.82271 -6.39858,-14.67342 -5.1416,-15.9304 0.73962,-0.73961 9.4061,6.3013 19.3009,15.68058 9.3602,8.87263 15.24198,11.77884 23.83888,11.7789 10.982,8e-5 17.37626,-10.09416 12.44048,-19.63892 -2.87764,-5.5648 -9.28846,-6.33785 -13.03718,-1.57208 -1.7238,2.19146 -2.19708,3.93473 -1.69218,6.23333 0.61846,2.81581 0.37717,3.19103 -2.05247,3.19103 -3.19215,0 -9.48464,-4.31245 -20.6601,-14.15908 -17.04149,-15.01506 -37.74839,-27.74229 -52.70001,-32.39134 -9.59537,-2.98356 -30.0925,-4.14786 -39.84653,-2.2634 -10.55689,2.03959 -23.04362,8.4188 -29.84612,15.2477 -12.05368,12.10062 -12.24487,28.20328 -0.50886,42.86649 l 3.36181,4.20037 -2.27597,3.73296 c -3.31103,5.43069 -3.02747,12.73885 0.70313,18.12205 1.64311,2.371 3.30061,4.30991 3.68333,4.30866 0.38273,-10e-4 0.8024,-1.52556 0.93251,-3.3874 0.32946,-4.70996 2.24389,-7.86566 5.52987,-9.115 2.95959,-1.12522 4.87288,-0.59377 18.42415,5.11758 14.25597,6.0083 37.70136,6.4213 62.63141,1.10324 12.22164,-2.60712 26.63289,-2.45378 32.97309,0.35082 11.62234,5.14113 14.31548,18.51642 5.77252,28.66918 -3.69829,4.39514 -7.265,6.18499 -19.24015,9.65527 -9.11257,2.64071 -11.271,2.81602 -31.98312,2.59768 -17.69519,-0.18653 -24.05456,0.17228 -31.27774,1.76477 -7.84176,1.72884 -12.66489,1.90316 -35.7,1.29023 l -26.63334,-0.70867 2.95346,2.58229 c 1.62441,1.42025 3.91941,3.16769 5.1,3.88319 2.00884,1.21746 1.94186,1.38104 -1.04391,2.55 -1.75474,0.687 -5.64933,1.24909 -8.6547,1.24909 l -5.46414,0 -0.73531,4.90323 c -0.40448,2.69679 -0.37377,5.84532 0.068,6.99676 0.65167,1.69826 0.4088,1.94214 -1.28622,1.2917 -1.1492,-0.441 -4.34984,-1.30836 -7.11246,-1.92748 -2.76261,-0.61913 -6.4813,-1.87984 -8.26381,-2.80159 -2.99744,-1.55005 -3.33053,-1.5084 -4.43462,0.55464 -0.98589,1.84228 -10.24171,9.11607 -11.60012,9.11607 -0.21919,0 -0.50218,-1.4025 -0.62877,-3.11666 -0.1266,-1.71417 -1.4619,-6.17667 -2.9673,-9.91667 -1.50552,-3.74 -3.07746,-7.82001 -3.49328,-9.06667 -0.6273,-1.88058 -0.91131,-1.9771 -1.66781,-0.56667 -0.5015,0.935 -1.23375,3.485 -1.62713,5.66667 -0.39338,2.18167 -1.78806,5.72582 -3.09932,7.8759 l -2.38408,3.90923 -1.5206,-3.34257 c -1.63234,-3.58824 -4.34236,-7.30922 -5.32349,-7.30922 -0.33116,0 -0.89522,1.1475 -1.25335,2.55 -0.74789,2.92881 -7.17412,11.05 -8.74367,11.05 -0.578,0 -1.05083,-2.295 -1.05083,-5.1 0,-2.805 -0.51,-5.1 -1.13333,-5.1 -0.62333,0 -1.13333,0.72586 -1.13333,1.61304 0,2.1565 -5.48817,8.58696 -7.3287,8.58696 -0.8032,0 -2.09531,0.765 -2.8713,1.7 -2.02334,2.43788 -3.67846,2.09579 -2.82778,-0.58446 0.39882,-1.25645 0.13951,-4.18895 -0.5763,-6.51667 -0.71582,-2.32771 -1.47696,-4.80514 -1.69139,-5.50539 -0.27019,-0.88189 -2.23686,-0.64796 -6.39925,0.76114 -6.72623,2.27702 -8.98077,1.87418 -5.5215,-0.98656 1.26458,-1.04578 3.18796,-4.66822 4.27437,-8.04989 1.08631,-3.38167 2.68918,-6.38219 3.56196,-6.66782 1.22207,-0.39998 1.15702,0.0943 -0.28333,2.15065 -1.02862,1.46851 -1.87329,3.44902 -1.87714,4.40117 0,0.95214 -0.77793,3.20953 -1.7203,5.01644 -0.94225,1.80691 -1.53464,3.46393 -1.31625,3.68227 0.21828,0.21834 2.77747,-0.80818 5.68696,-2.28115 l 5.28995,-2.67811 0.0215,2.39585 c 0.0125,1.31772 0.64951,4.79401 1.41667,7.72509 l 1.39479,5.32921 3.60094,-1.74754 c 3.68016,-1.786 7.16573,-8.15293 7.16573,-13.08939 0,-2.44028 1.32384,-2.06569 1.86592,0.52795 0.15912,0.76113 0.99008,3.61777 1.84665,6.3481 l 1.55743,4.96423 2.46545,-3.13435 c 1.35603,-1.72389 3.05603,-5.10529 3.77774,-7.51423 1.2529,-4.18186 3.22014,-5.97975 3.22014,-2.94296 0,2.1884 5.65579,10.03689 6.74685,9.36256 0.52734,-0.32587 1.57737,-3.27156 2.33342,-6.54599 1.5725,-6.8096 4.10935,-11.44087 5.72129,-10.44463 0.60611,0.3746 0.84218,1.1016 0.52451,1.61556 -0.31768,0.51395 0.98498,4.9412 2.89476,9.83835 1.90978,4.89715 3.8275,9.82775 4.26168,10.95689 0.69756,1.81427 1.32804,1.55072 5.42175,-2.26667 2.54773,-2.37581 4.86019,-5.03537 5.13865,-5.91013 0.42092,-1.3224 0.98928,-1.27402 3.37166,0.287 3.33166,2.183 14.53296,5.70038 15.39804,4.83525 0.32402,-0.324 0.6562,-3.43024 0.73825,-6.90276 l 0.14915,-6.31367 3.22116,0.70533 c 1.77162,0.38794 5.49678,0.36409 8.27809,-0.0531 l 5.05693,-0.75833 -4.5067,-3.26469 c -2.47882,-1.79558 -4.98508,-4.11923 -5.56954,-5.16365 -0.62265,-1.11265 -2.82868,-2.05743 -5.32768,-2.28166 -6.75206,-0.60585 -18.71893,-7.69295 -18.71893,-11.08585 0,-0.63696 1.6575,0.44609 3.68333,2.40678 4.49412,4.34962 10.73766,7.07976 16.19069,7.07976 l 4.08034,0 -2.52416,-3.54479 c -1.44999,-2.03626 -2.75037,-5.89898 -3.05569,-9.0767 -0.48666,-5.06525 -0.99303,-5.87065 -6.00202,-9.54757 -3.00866,-2.20862 -6.7354,-5.51903 -8.2815,-7.35648 l -2.81112,-3.34081 -1.43423,3.96651 c -0.78891,2.18158 -1.75304,3.96651 -2.14245,3.96651 -0.38942,0 -1.90593,-1.275 -3.36986,-2.83333 -1.46404,-1.55834 -2.95539,-2.82749 -3.3142,-2.82034 -0.35893,0.007 -1.6558,2.10618 -2.88196,4.6645 l -2.22949,4.6515 -1.72279,-2.68116 c -0.94758,-1.47465 -3.1858,-4.08367 -4.97374,-5.79784 -1.78795,-1.71416 -2.72839,-3.11666 -2.08976,-3.11666 0.63852,0 2.84535,1.7857 4.90405,3.96822 l 3.74284,3.96822 1.52331,-2.90731 c 0.90395,-1.72527 1.2427,-4.37544 0.83323,-6.51822 -0.59693,-3.12332 -0.51306,-3.30484 0.62107,-1.34425 0.72125,1.24667 2.91085,3.63676 4.86596,5.3113 l 3.55482,3.04463 2.4531,-4.74463 c 2.44142,-4.72184 2.45854,-4.73102 3.56932,-1.9113 1.48546,3.77096 12.23569,13.07576 21.38804,18.51218 1.41066,0.83792 0.81588,-2.04347 -1.78931,-8.66929 -0.68997,-1.75474 -1.25449,-4.91821 -1.25449,-7.02993 0,-3.13286 -0.85589,-4.5272 -4.65052,-7.57622 -5.47819,-4.40186 -7.24982,-7.53215 -8.28217,-14.63371 -0.4182,-2.87667 -1.37689,-6.07612 -2.13055,-7.10989 -1.11792,-1.53366 -1.30266,-0.67537 -1.00357,4.66365 0.20162,3.59876 -0.24163,8.07321 -0.98509,9.94321 l -1.35162,3.4 -1.04482,-2.83334 c -0.5746,-1.55833 -3.11621,-4.26835 -5.64819,-6.02226 -2.53187,-1.75391 -4.30893,-3.48346 -3.94887,-3.84344 0.35994,-0.35998 2.96468,1.23849 5.78816,3.55216 4.30145,3.52468 5.24892,3.9063 5.84471,2.35387 0.69995,-1.82415 -10e-4,-9.76061 -1.3532,-15.307 -0.6749,-2.76946 -0.61585,-2.75456 2.6197,0.6613 2.38635,2.51934 3.70589,5.52416 4.72815,10.76667 1.29869,6.66012 1.95387,7.76885 7.78612,13.17606 3.50245,3.2472 6.55044,5.72167 6.77336,5.4988 0.22282,-0.22287 0.66482,-8.62287 0.98215,-18.66667 0.6086,-19.26046 -0.0793,-23.84308 -4.47213,-29.79363 l -2.25704,-3.05749 3.54813,-4.04114 c 4.62865,-5.27174 6.75387,-9.49745 7.67573,-15.26245 l 0.74992,-4.68981 -4.00418,4.00418 c -3.27873,3.27872 -4.84454,4.00418 -8.64212,4.00418 -3.7604,0 -5.22931,-0.66539 -7.76333,-3.51659 -3.04039,-3.42089 -8.42792,-6.71246 -13.60873,-8.31437 -1.91386,-0.59174 -2.55,-0.33398 -2.55,1.03307 0,1.00183 -1.05717,3.89368 -2.34928,6.42633 l -2.34918,4.6048 -4.92207,-5.13703 c -3.0192,-3.15093 -6.60223,-5.60353 -9.26749,-6.34363 -6.80986,-1.89094 -7.17865,-1.70318 -7.17865,3.65408 0,8.12616 -3.28587,9.64015 -9.19949,4.23886 -4.50806,-4.11745 -8.24761,-5.0126 -16.79589,-4.02046 l -6.60223,0.76626 1.18796,3.14712 c 0.99223,2.62876 0.76862,3.73584 -1.35728,6.72144 -3.44817,4.84244 -7.93153,6.94012 -14.83308,6.94012 -3.17866,0 -7.15643,0.69454 -8.83966,1.54343 -1.68322,0.84888 -5.86534,1.82688 -9.29367,2.17331 -3.42833,0.34646 -7.08243,0.9648 -8.12011,1.37413 -1.62384,0.64048 -1.80211,0.11265 -1.27908,-3.78717 0.80059,-5.96817 -3.14772,-10.37037 -9.30081,-10.37037 -7.98343,0 -11.66574,7.54025 -8.53933,17.48621 0.60169,1.91425 1.38902,4.93314 1.74953,6.70865 0.37411,1.84202 3.97018,6.73011 8.37477,11.38364 4.24558,4.48551 8.25803,9.15283 8.91672,10.37182 0.6587,1.219 2.83628,3.17523 4.83911,4.34718 l 3.64163,2.13083 -0.48031,-4.11416 c -0.52791,-4.5216 0.40517,-5.23097 2.68362,-2.04025 0.81441,1.14064 2.88343,2.9843 4.59759,4.09701 2.70028,1.75285 3.11667,1.78846 3.11667,0.26654 0,-0.96611 0.55046,-3.19228 1.22321,-4.94702 l 1.22332,-3.19044 2.1225,4.34089 c 1.16734,2.38751 4.96366,7.81364 8.4362,12.0581 6.7379,8.23576 10.84328,17.43911 8.7244,19.55804 -0.8594,0.85934 -3.18251,0.79283 -7.99737,-0.22895 -3.73241,-0.79207 -8.34904,-1.21074 -10.25927,-0.93038 -3.90094,0.57253 -4.20818,0.0408 -1.80903,-3.13108 2.53209,-3.34778 2.12931,-3.89995 -2.84512,-3.89995 -5.75518,0 -20.04334,-2.91308 -25.52788,-5.20463 -5.33301,-2.2283 -6.56347,-1.67347 -8.13325,3.66753 -0.70652,2.40374 -2.00011,6.75932 -2.87459,9.67906 l -1.58995,5.30862 5.77002,-0.58674 c 3.17356,-0.3227 7.25526,-1.05638 9.07052,-1.6304 1.81526,-0.574 3.46506,-0.87906 3.66622,-0.67791 0.20117,0.20117 -0.60792,2.27551 -1.79792,4.60964 l -2.16364,4.24387 3.59742,-0.77435 c 1.97869,-0.42589 4.9555,-1.46799 6.61527,-2.3158 2.88807,-1.4752 3.11995,-1.36808 5.39795,2.49273 2.80126,4.7479 5.0422,4.55282 5.5394,-0.48223 0.51408,-5.20525 2.13565,-4.43532 5.18613,2.46242 2.93329,6.63275 5.98513,8.97455 6.57152,5.04256 0.19459,-1.30549 1.7748,-3.43059 3.51141,-4.72244 3.51276,-2.61305 6.1599,-1.8291 7.67766,2.27365 1.57102,4.2469 -1.93279,8.62435 -12.12475,15.14776 -20.41575,13.0673 -32.28334,30.93892 -35.67133,53.7182 -3.0558,20.54609 6.48834,41.77751 25.6351,57.02674 9.16266,7.29753 23.7184,14.99944 22.79349,12.0607 -3.92813,-12.48083 -3.79882,-36.29454 0.21907,-40.31232 0.60294,-0.60294 0.39554,1.8819 -0.46092,5.52194 -3.19011,13.55908 -1.80427,24.36292 6.3733,49.68477 7.39613,22.90183 6.37239,32.69009 -4.09553,39.15961 -3.36203,2.07786 -5.52659,2.42024 -14.56617,2.30441 -9.80844,-0.1258 -10.87717,0.0827 -14.02625,2.73213 -3.05286,2.56892 -7.01114,11.00297 -7.01114,14.93904 0,2.13214 2.2423,1.84994 6.6487,-0.8364 z M 432.3679,726.60836 c 0,-1.66271 -4.62435,-6.16886 -9.31023,-9.07228 -3.67993,-2.28021 -4.28785,-2.3495 -4.29612,-0.48976 -0.0125,2.82347 -2.39032,9.91667 -3.32407,9.91667 -0.52655,0 -1.30515,-1.38614 -1.73037,-3.0803 -0.42523,-1.69418 -2.2091,-5.03303 -3.96429,-7.4197 l -3.19124,-4.33938 -2.48483,4.02053 c -2.31642,3.74803 -6.3291,7.41885 -8.10991,7.41885 -0.42534,0 -0.50853,-1.97388 -0.18496,-4.3864 0.35156,-2.6212 0.0805,-4.70049 -0.67456,-5.16689 -0.69451,-0.42927 -1.26276,-0.27951 -1.26276,0.33278 0,1.41233 -5.57249,8.08717 -6.75161,8.08717 -0.48586,0 -1.16597,-1.9125 -1.51152,-4.25 -0.34544,-2.3375 -0.93262,-6.035 -1.30481,-8.21666 -0.37219,-2.18167 0.42137,-0.7022 1.76358,3.2877 l 2.44041,7.25437 2.67614,-4.42104 c 1.47186,-2.43157 2.67874,-5.08863 2.68192,-5.90459 0,-0.81596 0.50104,-1.17749 1.10636,-0.80342 0.6052,0.37408 1.4476,3.29694 1.87181,6.49524 l 0.77146,5.81511 2.94474,-3.4091 c 1.61965,-1.87501 3.51753,-4.38527 4.21747,-5.57836 1.24894,-2.12889 1.31966,-2.12709 3.80392,0.0975 1.39219,1.24666 3.5326,4.22859 4.75638,6.6265 1.22388,2.39789 2.38895,4.18289 2.58921,3.96666 0.20015,-0.21624 0.64861,-2.68816 0.99665,-5.49316 0.34794,-2.805 0.65858,-5.20402 0.6902,-5.33116 0.17318,-0.69505 8.87038,5.27426 12.08825,8.29672 2.06822,1.94271 4.03252,3.26021 4.36493,2.92777 0.33252,-0.33249 0.60452,-3.19864 0.60452,-6.36928 0,-4.91338 -0.49323,-6.23029 -3.33938,-8.9166 -3.2725,-3.08866 -3.36407,-3.10562 -4.57322,-0.84631 -1.56933,2.93227 -3.42074,2.97462 -3.42074,0.0782 0,-2.114 -6.18415,-10.23945 -7.79303,-10.23945 -0.41707,0 -1.71949,1.785 -2.89442,3.96667 -1.17493,2.18166 -2.43837,3.96462 -2.80772,3.96214 -1.58633,-0.0102 -10.30449,-10.27405 -10.30064,-12.12624 0,-1.47354 0.58752,-1.09674 2.11593,1.3641 1.16133,1.87 3.48138,4.66164 5.15542,6.20364 3.3898,3.12236 4.62208,2.36315 5.93017,-3.65364 0.37264,-1.71417 1.02034,-3.11667 1.43922,-3.11667 1.44919,0 9.03856,8.51111 10.10593,11.33333 l 1.07157,2.83334 0.81169,-3.11667 c 0.99246,-3.81116 2.0876,-3.95291 3.67223,-0.47524 0.66187,1.45279 3.93131,4.4732 7.26524,6.71202 l 6.06175,4.07059 1.21652,-4.0942 c 0.66912,-2.2518 1.5555,-3.5458 1.96973,-2.87554 0.61778,0.99949 -0.95789,7.78378 -2.14676,9.2435 -0.17816,0.21878 -2.14245,-0.98926 -4.36515,-2.68452 l -4.04101,-3.0823 -0.0159,5.51784 c -0.0113,3.03482 -0.323,6.66536 -0.69892,8.06786 -0.73497,2.74226 -2.68566,3.51369 -2.68566,1.06203 z m -30.22521,-43.99358 c -7.20426,-6.35115 -8.29793,-7.80444 -8.13836,-10.81462 l 0.16978,-3.20385 0.46999,3.09445 c 0.27449,1.80692 2.19311,4.51472 4.61119,6.50797 l 4.14132,3.41354 2.54478,-3.10797 c 1.39978,-1.70939 2.56326,-3.74549 2.5857,-4.52465 0.0589,-2.03174 0.40415,-1.86109 5.28168,2.60756 4.33364,3.97036 4.40118,3.98934 5.04571,1.41667 0.35927,-1.43415 0.23177,-4.1342 -0.28333,-6.00009 -1.41599,-5.1289 -1.13855,-5.90294 1.00708,-2.80965 1.06896,1.54119 2.78788,3.71991 3.81978,4.84159 1.79622,1.9526 1.90582,1.92846 2.57414,-0.56667 0.38398,-1.43334 0.70505,-4.05684 0.71355,-5.82997 l 0.0159,-3.22391 3.90739,4.67684 c 3.64979,4.36856 3.98605,4.52995 5.10001,2.4484 0.65597,-1.22564 1.20042,-4.17446 1.20994,-6.55294 0.0125,-3.07256 0.31892,-3.84781 1.05899,-2.67788 1.2359,1.95367 0.37785,7.27303 -1.90434,11.80623 l -1.63767,3.25285 -2.1505,-3.53618 c -2.7497,-4.52159 -3.66509,-4.44902 -5.42946,0.43048 -1.66748,4.61127 -2.75174,4.96226 -4.37648,1.41667 -1.0514,-2.29458 -1.25154,-2.01341 -1.99784,2.807 l -0.82949,5.357 -4.96989,-4.07248 -4.97001,-4.07248 -2.23425,2.68214 c -1.22888,1.47519 -2.25126,3.31966 -2.272,4.09882 -0.0453,1.68874 -1.24066,1.74149 -3.06283,0.13513 z m 64.08615,-23.65396 c -2.62231,-2.49452 -4.42873,-4.87452 -4.01438,-5.28889 0.41435,-0.41437 0.88094,-0.53306 1.03677,-0.26377 0.15584,0.26929 2.29931,2.64929 4.76329,5.28888 5.67335,6.0776 4.50704,6.24988 -1.78568,0.26378 z m -85.36335,-9.31669 c -2.38544,-3.40563 -2.22066,-5.66195 0.68294,-9.35332 2.09826,-2.66746 3.05672,-3.02943 6.72056,-2.53801 2.3503,0.31524 7.40769,2.5079 11.23881,4.87256 4.42465,2.73104 9.00127,4.56056 12.54611,5.01533 3.0693,0.39376 5.58065,0.54221 5.58065,0.32991 0,-0.2123 -1.275,-2.40573 -2.83333,-4.87429 -3.70068,-5.86213 -3.57397,-6.49129 0.59998,-2.97917 4.28457,3.60522 9.4095,4.65961 20.86207,4.29207 l 5.59527,-0.17957 -3.24598,-3.38818 c -4.53968,-4.73838 -3.14251,-5.1632 1.87079,-0.56884 4.70186,4.30894 4.40742,4.61236 -5.48896,5.65534 -4.20524,0.4432 -8.72758,0.12172 -12.48639,-0.88762 -5.62383,-1.51019 -5.84211,-1.4872 -4.77678,0.5034 0.61404,1.14726 1.60843,2.0859 2.20978,2.0859 0.60146,0 1.09355,0.58136 1.09355,1.29189 0,2.18503 -12.14684,0.26361 -17.95132,-2.83959 -13.26045,-7.08932 -14.92917,-7.7032 -18.08539,-6.65301 -1.75633,0.58437 -3.51424,2.29491 -4.12001,4.009 -2.02096,5.71791 5.65896,10.16235 8.82663,5.10806 0.91811,-1.46503 0.70368,-2.46707 -0.90996,-4.25 -2.20977,-2.44189 -2.00248,-2.78981 0.98068,-1.64509 2.11797,0.81274 2.40289,6.18182 0.4327,8.15208 -2.25431,2.25426 -7.39874,1.61612 -9.3424,-1.15885 z m 52.23726,-14.12402 c -1.65818,-1.65823 -0.35824,-2.06439 7.07586,-2.21076 9.197,-0.18107 14.7824,-1.79935 21.37262,-6.19229 5.28043,-3.51988 6.71206,-2.82724 1.7,0.82244 -4.57232,3.3294 -11.7037,5.88891 -18.58836,6.67145 -3.33393,0.37895 -7.13343,0.9039 -8.44345,1.16654 -1.30991,0.26265 -2.71241,0.14683 -3.11667,-0.25738 z m 78.99663,289.25072 4.11445,-2.79208 2.7922,2.79208 c 3.65806,3.65806 7.94342,3.57624 11.46049,-0.21873 1.53476,-1.65603 2.91301,-2.80353 3.06261,-2.55 0.1496,0.25353 0.83402,1.48093 1.52082,2.72759 0.86938,1.57806 2.65687,2.3715 5.88336,2.61188 3.88744,0.28957 4.93136,-0.10766 6.47598,-2.46511 l 1.84133,-2.81033 4.0502,2.74845 c 11.08853,7.52488 16.99637,-0.36981 12.04098,-16.09039 -2.51974,-7.9934 -1.13424,-12.48707 6.98689,-22.66089 3.42459,-4.29012 6.22948,-8.86924 6.23288,-10.17563 0,-2.08296 -0.63353,-2.36198 -5.19123,-2.26667 -4.36152,0.0918 -5.63754,-0.40279 -7.93334,-3.07122 -3.7341,-4.34021 -3.5122,-9.31079 0.66187,-14.8265 l 3.33461,-4.4064 -5.91612,-4.23935 c -3.25391,-2.33172 -9.12174,-7.84822 -13.03968,-12.25904 -8.79909,-9.90601 -17.4513,-14.60356 -28.86,-15.6689 l -7.64977,-0.71434 0.0113,6.11388 c 0.0147,7.87078 3.51288,15.44235 13.06212,28.26749 10.85733,14.58204 11.61542,16.83953 12.05504,35.89913 l 0.37173,16.11929 -3.14171,3.14738 c -2.83889,2.84387 -4.11899,3.20677 -13.27927,3.76459 -8.72111,0.53108 -10.55326,1.00618 -13.11232,3.4 -3.39898,3.17946 -4.41536,4.90881 -5.46482,9.29935 -0.61166,2.55873 -0.3638,3.11667 1.38504,3.11667 1.17153,0 3.98163,-1.25653 6.24456,-2.7922 z M 278.73695,883.11085 c 0.97025,-1.38538 1.76426,-3.62247 1.76426,-4.97136 0,-2.03796 0.86247,-2.58174 5.10374,-3.21776 l 5.10374,-0.76534 -3.40374,-2.86416 c -4.04384,-3.40261 -4.41796,-6.06085 -0.85374,-6.06674 3.54983,0 9.56171,-3.89232 10.47574,-6.77201 0.42478,-1.33847 0.15765,-3.12675 -0.60429,-4.04487 -1.99002,-2.39779 -5.73149,-2.03626 -6.42645,0.62107 -0.74698,2.85657 -1.99762,2.86405 -4.83288,0.0283 -4.26507,-4.26518 -4.36084,-13.09374 -0.19776,-18.23499 1.96202,-2.42295 1.94457,-2.58185 -0.55681,-5.08323 -2.69087,-2.69087 -4.61255,-8.01674 -3.34855,-9.28075 0.40222,-0.40222 2.52813,-0.0816 4.7243,0.71264 3.12064,1.12846 4.35257,1.14557 5.63822,0.0782 3.89436,-3.23204 -0.32481,-7.38797 -6.57004,-6.47133 -2.5134,0.3689 -3.55176,0 -3.91272,-1.37666 -0.27302,-1.04414 -2.47146,-2.40743 -4.94836,-3.0685 -4.42589,-1.18139 -4.4571,-1.167 -4.4571,2.0528 0,3.5283 -1.90744,4.1939 -5.53192,1.93041 -2.94511,-1.83929 -5.80142,-0.4114 -5.80142,2.9002 0,3.08981 2.94272,4.61357 8.21668,4.25476 4.04516,-0.27529 4.19567,2.90099 0.35383,7.46674 l -2.76283,3.28338 2.1887,3.32021 c 3.24154,4.91731 2.96867,13.08422 -0.57268,17.14031 l -2.77629,3.17991 -1.8213,-2.55 c -2.53107,-3.54371 -5.99313,-3.30616 -6.94249,0.47634 -0.62165,2.4769 -0.10778,3.60876 2.82962,6.23333 1.97405,1.76381 4.85614,3.20699 6.40465,3.20699 3.83205,0 3.68221,3.18207 -0.30122,6.39666 l -3.11667,2.51509 4.81667,0.78891 c 2.64917,0.43396 4.81667,1.2503 4.81667,1.8139 0,2.16161 3.33816,8.88545 4.4112,8.88545 0.61982,0 1.92088,-1.13345 2.89124,-2.51883 z m 62.71732,-28.70144 c 4.37614,-1.82138 13.84695,-10.28976 13.84695,-12.38133 0,-0.65801 -2.61415,-3.69376 -5.80913,-6.74628 -6.72372,-6.42362 -14.03746,-17.24174 -15.93251,-23.56687 -0.98804,-3.29801 -5.76266,-8.94371 -19.21148,-22.71654 l -17.89669,-18.32782 -5.15803,1.3795 c -2.83696,0.75876 -6.29827,1.39796 -7.69182,1.4204 -2.40165,0.0385 -2.35813,0.18417 0.83481,2.79333 l 3.36861,2.75264 4.7226,-2.7676 c 4.57765,-2.68271 4.74062,-2.69926 5.30513,-0.54026 0.3306,1.26389 -0.3825,3.45429 -1.64809,5.06339 -1.22695,1.5597 -1.92587,3.32906 -1.55335,3.93188 0.37253,0.6027 -0.80614,1.86308 -2.61924,2.80069 -3.36056,1.73785 -5.69308,7.45847 -3.04108,7.45847 2.3859,0 7.64706,-6.85429 7.04084,-9.17264 -0.31054,-1.18716 -0.16037,-2.40822 0.33365,-2.71354 2.04907,-1.26638 1.921,4.11502 -0.16082,6.76181 -1.22695,1.55969 -1.92587,3.32905 -1.55335,3.93187 0.37253,0.60271 -0.80614,1.86309 -2.61924,2.8007 -3.3388,1.72652 -5.69478,7.45846 -3.06578,7.45846 2.57663,0 7.75143,-6.54987 7.11064,-9.00002 -0.33524,-1.28214 -0.20547,-2.58083 0.28855,-2.88615 1.38006,-0.85295 2.12455,3.39535 0.95959,5.47683 -0.62401,1.11509 -0.61834,2.63716 0.0147,3.84427 1.14614,2.18677 -0.0159,6.38645 -2.12818,7.69194 -0.90542,0.55953 -0.29228,1.6575 1.90389,3.40873 3.17787,2.53424 3.23952,2.80035 3.23952,13.9825 0,9.34478 0.35734,11.75663 1.98333,13.3833 1.82467,1.82558 1.98334,1.83215 1.98334,0.0816 0,-1.91204 3.17866,-4.24932 5.77886,-4.24932 0.76704,0 5.55923,4.2882 10.64915,9.5293 5.12085,5.27294 10.47937,9.75992 11.99656,10.04564 1.50813,0.28401 3.14092,0.58582 3.62848,0.6707 0.48745,0.085 2.78245,-0.63478 5.1,-1.59936 z m -54.71972,-45.21626 c 0,-3.01252 -5.88506,-6.22813 -12.92397,-7.06181 -5.68306,-0.67309 -5.77607,-0.63501 -5.77607,2.36255 0,2.48132 0.89367,3.45746 4.81667,5.26094 6.30363,2.89782 13.88337,2.59125 13.88337,-0.56168 z m 6.45456,-0.27552 c 2.87062,-2.75026 4.23073,-6.02129 2.50364,-6.02129 -1.98628,0 -7.2582,4.99517 -7.2582,6.87719 0,2.93748 0.9792,2.76114 4.75456,-0.8559 z m -6.12295,-8.90506 c 0.24321,-1.69966 -0.75242,-2.83401 -3.73694,-4.25714 -6.4379,-3.07008 -14.13491,-4.49196 -15.98848,-2.95358 -3.41426,2.83356 -1.13932,6.63805 4.37855,7.32247 2.22151,0.27551 5.2338,0.99087 6.69387,1.58973 4.24093,1.73921 8.27401,0.94622 8.653,-1.70148 z m 0,-9.1035 c 0.34657,-2.42465 -1.12166,-3.29233 -13.10938,-7.74746 -8.94929,-3.32588 -12.91075,-1.75758 -10.0507,3.97913 0.99631,1.99841 2.66857,2.91131 6.41879,3.50427 2.78932,0.44109 6.60147,1.30344 8.47147,1.91646 4.99585,1.63756 7.88199,1.06092 8.26982,-1.6524 z m 6.00882,-8.53264 c 1.80869,-1.93584 3.28837,-4.22053 3.28837,-5.07688 0,-2.77802 -7.14295,2.13668 -8.05347,5.5411 -1.09208,4.08351 0.6783,3.91113 4.76544,-0.46422 z m -6.00372,-0.57335 c 0.39429,-2.76193 -3.95579,-5.25617 -12.5103,-7.17332 -6.27628,-1.40658 -9.04455,-0.60883 -8.57453,2.47078 0.25656,1.68107 2.34678,2.90927 8.27658,4.86336 9.48962,3.12698 12.34404,3.09117 12.80825,-0.16082 z m 8.36525,-12.85665 c 10.96171,-5.15258 11.90997,-18.1456 1.57329,-21.55698 -4.29182,-1.41644 -7.03154,-0.65324 -8.67442,2.41635 -1.25789,2.35043 -0.41661,6.62386 1.30401,6.62386 0.58129,0 1.05695,0.79102 1.05695,1.75783 0,4.51156 -16.73661,6.55575 -23.60031,2.88238 -2.4113,-1.29051 -3.46113,-4.64021 -1.45427,-4.64021 1.49961,0 2.53646,-3.41329 1.7702,-5.82753 -1.04395,-3.28918 -4.18347,-4.42873 -8.73733,-3.17134 -10.27495,2.83704 -9.9865,15.58559 0.47504,20.99544 8.57828,4.43598 27.38292,4.7056 36.28684,0.5202 z m -6.82018,-9.98338 c 0.63478,-0.63483 0.35893,-1.61034 -0.70527,-2.49353 -2.33047,-1.93407 -2.20615,-4.81069 0.35009,-8.10369 1.91964,-2.47292 2.15945,-6.17359 2.82018,-43.50284 1.13844,-64.33038 5.66905,-112.71885 11.6407,-124.32707 2.37739,-4.6215 2.04396,-4.6399 -4.09938,-0.22641 -7.9135,5.68551 -13.93898,13.08901 -19.27755,23.68679 -10.07938,20.00854 -13.58179,46.92747 -13.58179,104.38721 0,32.62712 0.2105,36.89588 1.97052,39.96256 1.67192,2.91316 1.76078,3.98908 0.58637,7.10044 -0.76127,2.01685 -1.10671,3.94444 -0.76764,4.28351 2.25025,2.25027 18.64377,1.65334 21.064,-0.76697 z m 92.10386,-61.34356 c 0.3434,-0.55558 -0.41536,-3.36058 -1.68606,-6.23334 -1.98106,-4.47918 -2.77904,-5.22316 -5.60139,-5.22316 -8.84125,0 -23.05438,-4.17191 -37.70702,-11.0679 -8.46135,-3.98221 -11.38377,-4.89737 -12.39867,-3.88257 -2.58887,2.58891 1.71383,8.73387 8.37715,11.96401 5.91124,2.8655 22.43637,6.38646 29.97429,6.38646 4.37308,0 4.47644,0.20837 1.98786,4.00653 l -1.83044,2.79347 4.94711,0.13408 c 2.72079,0.0738 6.477,0.52342 8.347,0.99925 4.85679,1.23587 4.90224,1.23686 5.59051,0.12317 z"
       id="path3768"
       inkscape:connector-curvature="0" />
    <path
       inkscape:connector-curvature="0"
       id="path3018"
       d="m 352.88325,925.22847 3.81537,-2.32605 1.63223,2.33025 c 2.17452,3.10465 8.19162,3.06952 12.18424,-0.0714 l 3.05297,-2.40142 2.55635,2.40142 c 3.36102,3.15758 9.63787,3.16177 13.64579,0.0113 2.80591,-2.20705 3.19713,-2.25137 5.0524,-0.57245 1.10602,1.00096 4.34996,2.14053 7.20879,2.53232 5.14874,0.70573 5.22671,0.66697 8.23911,-4.10504 2.52291,-3.99648 2.91754,-5.61398 2.31551,-9.49009 -0.39904,-2.56972 -0.82892,-6.70571 -0.95528,-9.19099 -0.2286,-4.50002 -0.204,-4.52801 6.00383,-6.81043 3.42833,-1.26049 7.39681,-2.95109 8.81881,-3.75689 2.47928,-1.40488 9.31453,-9.88765 9.31453,-11.55954 0,-0.44302 -2.67036,-1.12166 -5.93403,-1.50824 -12.98176,-1.53748 -15.18032,-8.89837 -6.74106,-22.57057 13.76309,-22.29754 22.06827,-44.01221 22.1238,-57.84511 0.0249,-6.18302 0.35836,-8.25906 1.11078,-6.91447 3.07508,5.49485 -2.43383,28.53428 -10.77879,45.07925 l -3.36011,6.66207 3.20632,-0.77939 c 1.76346,-0.42863 12.13142,-5.04753 23.03976,-10.26415 29.858,-14.27909 40.11343,-17.07729 59.43665,-16.21789 16.18876,0.72001 23.08294,4.05949 34.51295,16.71814 6.05518,6.70605 11.88822,11.50424 22.55867,18.55686 22.73342,15.02563 23.68145,16.32715 24.76265,33.9974 1.09537,17.90338 0.55023,18.87465 -12.27445,21.86642 -10.96081,2.55703 -17.83289,7.9526 -19.67592,15.44848 -0.98418,4.00316 1.08698,4.11842 6.61323,0.36822 l 4.05008,-2.74845 1.80087,2.74845 c 2.36753,3.6134 7.39998,3.6278 11.57881,0.0329 l 3.15667,-2.71524 3.22683,2.71524 c 5.01376,4.21872 11.68127,3.19566 13.56295,-2.08114 0.36176,-1.01422 1.32713,-0.68929 3.28202,1.10466 3.66293,3.36147 13.0526,4.8033 14.06682,2.16025 0.38703,-1.00844 -0.34816,-3.49894 -1.6337,-5.53441 -5.46301,-8.6496 -7.17196,-12.7746 -7.24314,-17.48292 -0.0986,-6.54874 1.75168,-9.70847 8.80589,-15.03434 8.56913,-6.46975 11.21717,-14.81675 4.7005,-14.81675 -4.02356,0 -8.07976,-3.75519 -10.66648,-9.87508 -5.25821,-12.44015 -4.22767,-26.38638 3.66418,-49.58685 8.01595,-23.56552 8.90517,-27.91072 8.93724,-43.67142 0.0261,-12.74329 -0.27789,-14.94702 -3.02373,-21.93329 -1.67881,-4.27163 -5.08516,-10.63205 -7.56965,-14.13425 l -4.51735,-6.36765 5.79983,-5.07356 c 17.70924,-15.49153 14.08654,-40.84537 -7.23191,-50.61413 -6.52177,-2.98851 -8.15128,-3.25242 -19.5805,-3.17129 -6.85666,0.0487 -17.31166,1.00143 -23.23333,2.11727 -6.03772,1.13768 -16.25755,2.05204 -23.26801,2.08176 -11.13683,0.0473 -13.02734,-0.24258 -17.31927,-2.65479 -4.4752,-2.51522 -5.24246,-3.7094 -6.11864,-9.52284 -0.18009,-1.19502 -0.97138,-2.38714 -1.75826,-2.64917 -1.52218,-0.50681 -8.55179,5.93512 -9.59038,8.78858 -0.51238,1.40797 -0.93058,1.31062 -2.43383,-0.56667 -0.99835,-1.24666 -2.39224,-4.11125 -3.09763,-6.36574 -1.77378,-5.66993 0.40438,-9.92021 6.71625,-13.1055 l 4.89702,-2.47124 -2.88762,-1.8921 c -5.95873,-3.90428 -16.09073,-1.23344 -19.75502,5.20757 -1.03655,1.82197 -2.16716,3.31591 -2.51237,3.31985 -0.34522,0.003 -2.3154,-1.73417 -4.3783,-3.86248 -7.69352,-7.93775 -5.04707,-19.68138 5.24326,-23.26679 5.48726,-1.91193 10.34325,-0.45345 11.35362,3.41007 1.54246,5.89845 6.33737,-1.85486 5.4774,-8.85698 -0.57177,-4.6553 -0.48586,-4.81666 2.56484,-4.81666 4.24241,0 13.27224,5.87927 16.06512,10.4599 3.24394,5.32056 3.00786,13.69896 -0.56191,19.94316 l -2.80307,4.90306 3.66667,-0.77531 c 5.37676,-1.1369 10.60041,-4.6626 13.24301,-8.93837 2.79366,-4.5203 3.09411,-13.32199 0.61676,-18.07199 -2.40063,-4.60309 -2.12534,-5.33384 1.42369,-3.77834 6.03625,2.64567 9.26342,5.56347 11.6841,10.56388 2.17997,4.50323 2.30169,5.62229 1.12155,10.30925 -0.72817,2.89172 -2.34827,6.69628 -3.60037,8.45456 -1.94945,2.73784 -2.01598,3.19687 -0.46274,3.19687 2.89272,0 8.93282,-2.89084 11.0781,-5.30207 1.08381,-1.2182 2.6639,-4.21778 3.51141,-6.66575 l 1.54099,-4.45084 1.77061,3.39267 c 2.50387,4.79744 7.37154,9.1145 13.30635,11.80096 6.38294,2.88934 9.04117,3.05214 5.70328,0.34926 -2.25092,-1.82271 -6.39858,-14.67342 -5.1416,-15.9304 0.73962,-0.73961 9.4061,6.3013 19.3009,15.68058 9.3602,8.87263 15.24198,11.77884 23.83888,11.7789 10.982,8e-5 17.37626,-10.09416 12.44048,-19.63892 -2.87764,-5.5648 -9.28846,-6.33785 -13.03718,-1.57208 -1.7238,2.19146 -2.19708,3.93473 -1.69218,6.23333 0.61846,2.81581 0.37717,3.19103 -2.05247,3.19103 -3.19215,0 -9.48464,-4.31245 -20.6601,-14.15908 -17.04149,-15.01506 -37.74839,-27.74229 -52.70001,-32.39134 -9.59537,-2.98356 -30.0925,-4.14786 -39.84653,-2.2634 -10.55689,2.03959 -23.04362,8.4188 -29.84612,15.2477 -12.05368,12.10062 -12.24487,28.20328 -0.50886,42.86649 l 3.36181,4.20037 -2.27597,3.73296 c -3.31103,5.43069 -3.02747,12.73885 0.70313,18.12205 1.64311,2.371 3.30061,4.30991 3.68333,4.30866 0.38273,-10e-4 0.8024,-1.52556 0.93251,-3.3874 0.32946,-4.70996 2.24389,-7.86566 5.52987,-9.115 2.95959,-1.12522 4.87288,-0.59377 18.42415,5.11758 14.25597,6.0083 37.70136,6.4213 62.63141,1.10324 12.22164,-2.60712 26.63289,-2.45378 32.97309,0.35082 11.62234,5.14113 14.31548,18.51642 5.77252,28.66918 -3.69829,4.39514 -7.265,6.18499 -19.24015,9.65527 -9.11257,2.64071 -11.271,2.81602 -31.98312,2.59768 -17.69519,-0.18653 -24.05456,0.17228 -31.27774,1.76477 -7.84176,1.72884 -12.66489,1.90316 -35.7,1.29023 l -26.63334,-0.70867 2.95346,2.58229 c 1.62441,1.42025 3.91941,3.16769 5.1,3.88319 2.00884,1.21746 1.94186,1.38104 -1.04391,2.55 -1.75474,0.687 -5.64933,1.24909 -8.6547,1.24909 l -5.46414,0 -0.73531,4.90323 c -0.40448,2.69679 -0.37377,5.84532 0.068,6.99676 0.65167,1.69826 0.4088,1.94214 -1.28622,1.2917 -1.1492,-0.441 -4.34984,-1.30836 -7.11246,-1.92748 -2.76261,-0.61913 -6.4813,-1.87984 -8.26381,-2.80159 -2.99744,-1.55005 -3.33053,-1.5084 -4.43462,0.55464 -0.98589,1.84228 -10.24171,9.11607 -11.60012,9.11607 -0.21919,0 -0.50218,-1.4025 -0.62877,-3.11666 -0.1266,-1.71417 -1.4619,-6.17667 -2.9673,-9.91667 -1.50552,-3.74 -3.07746,-7.82001 -3.49328,-9.06667 -0.6273,-1.88058 -0.91131,-1.9771 -1.66781,-0.56667 -0.5015,0.935 -1.23375,3.485 -1.62713,5.66667 -0.39338,2.18167 -1.78806,5.72582 -3.09932,7.8759 l -2.38408,3.90923 -1.5206,-3.34257 c -1.63234,-3.58824 -4.34236,-7.30922 -5.32349,-7.30922 -0.33116,0 -0.89522,1.1475 -1.25335,2.55 -0.74789,2.92881 -7.17412,11.05 -8.74367,11.05 -0.578,0 -1.05083,-2.295 -1.05083,-5.1 0,-2.805 -0.51,-5.1 -1.13333,-5.1 -0.62333,0 -1.13333,0.72586 -1.13333,1.61304 0,2.1565 -5.48817,8.58696 -7.3287,8.58696 -0.8032,0 -2.09531,0.765 -2.8713,1.7 -2.02334,2.43788 -3.67846,2.09579 -2.82778,-0.58446 0.39882,-1.25645 0.13951,-4.18895 -0.5763,-6.51667 -0.71582,-2.32771 -1.47696,-4.80514 -1.69139,-5.50539 -0.27019,-0.88189 -2.23686,-0.64796 -6.39925,0.76114 -6.72623,2.27702 -8.98077,1.87418 -5.5215,-0.98656 1.26458,-1.04578 3.18796,-4.66822 4.27437,-8.04989 1.08631,-3.38167 2.68918,-6.38219 3.56196,-6.66782 1.22207,-0.39998 1.15702,0.0943 -0.28333,2.15065 -1.02862,1.46851 -1.87329,3.44902 -1.87714,4.40117 0,0.95214 -0.77793,3.20953 -1.7203,5.01644 -0.94225,1.80691 -1.53464,3.46393 -1.31625,3.68227 0.21828,0.21834 2.77747,-0.80818 5.68696,-2.28115 l 5.28995,-2.67811 0.0215,2.39585 c 0.0125,1.31772 0.64951,4.79401 1.41667,7.72509 l 1.39479,5.32921 3.60094,-1.74754 c 3.68016,-1.786 7.16573,-8.15293 7.16573,-13.08939 0,-2.44028 1.32384,-2.06569 1.86592,0.52795 0.15912,0.76113 0.99008,3.61777 1.84665,6.3481 l 1.55743,4.96423 2.46545,-3.13435 c 1.35603,-1.72389 3.05603,-5.10529 3.77774,-7.51423 1.2529,-4.18186 3.22014,-5.97975 3.22014,-2.94296 0,2.1884 5.65579,10.03689 6.74685,9.36256 0.52734,-0.32587 1.57737,-3.27156 2.33342,-6.54599 1.5725,-6.8096 4.10935,-11.44087 5.72129,-10.44463 0.60611,0.3746 0.84218,1.1016 0.52451,1.61556 -0.31768,0.51395 0.98498,4.9412 2.89476,9.83835 1.90978,4.89715 3.8275,9.82775 4.26168,10.95689 0.69756,1.81427 1.32804,1.55072 5.42175,-2.26667 2.54773,-2.37581 4.86019,-5.03537 5.13865,-5.91013 0.42092,-1.3224 0.98928,-1.27402 3.37166,0.287 3.33166,2.183 14.53296,5.70038 15.39804,4.83525 0.32402,-0.324 0.6562,-3.43024 0.73825,-6.90276 l 0.14915,-6.31367 3.22116,0.70533 c 1.77162,0.38794 5.49678,0.36409 8.27809,-0.0531 l 5.05693,-0.75833 -4.5067,-3.26469 c -2.47882,-1.79558 -4.98508,-4.11923 -5.56954,-5.16365 -0.62265,-1.11265 -2.82868,-2.05743 -5.32768,-2.28166 -6.75206,-0.60585 -18.71893,-7.69295 -18.71893,-11.08585 0,-0.63696 1.6575,0.44609 3.68333,2.40678 4.49412,4.34962 10.73766,7.07976 16.19069,7.07976 l 4.08034,0 -2.52416,-3.54479 c -1.44999,-2.03626 -2.75037,-5.89898 -3.05569,-9.0767 -0.48666,-5.06525 -0.99303,-5.87065 -6.00202,-9.54757 -3.00866,-2.20862 -6.7354,-5.51903 -8.2815,-7.35648 l -2.81112,-3.34081 -1.43423,3.96651 c -0.78891,2.18158 -1.75304,3.96651 -2.14245,3.96651 -0.38942,0 -1.90593,-1.275 -3.36986,-2.83333 -1.46404,-1.55834 -2.95539,-2.82749 -3.3142,-2.82034 -0.35893,0.007 -1.6558,2.10618 -2.88196,4.6645 l -2.22949,4.6515 -1.72279,-2.68116 c -0.94758,-1.47465 -3.1858,-4.08367 -4.97374,-5.79784 -1.78795,-1.71416 -2.72839,-3.11666 -2.08976,-3.11666 0.63852,0 2.84535,1.7857 4.90405,3.96822 l 3.74284,3.96822 1.52331,-2.90731 c 0.90395,-1.72527 1.2427,-4.37544 0.83323,-6.51822 -0.59693,-3.12332 -0.51306,-3.30484 0.62107,-1.34425 0.72125,1.24667 2.91085,3.63676 4.86596,5.3113 l 3.55482,3.04463 2.4531,-4.74463 c 2.44142,-4.72184 2.45854,-4.73102 3.56932,-1.9113 1.48546,3.77096 12.23569,13.07576 21.38804,18.51218 1.41066,0.83792 0.81588,-2.04347 -1.78931,-8.66929 -0.68997,-1.75474 -1.25449,-4.91821 -1.25449,-7.02993 0,-3.13286 -0.85589,-4.5272 -4.65052,-7.57622 -5.47819,-4.40186 -7.24982,-7.53215 -8.28217,-14.63371 -0.4182,-2.87667 -1.37689,-6.07612 -2.13055,-7.10989 -1.11792,-1.53366 -1.30266,-0.67537 -1.00357,4.66365 0.20162,3.59876 -0.24163,8.07321 -0.98509,9.94321 l -1.35162,3.4 -1.04482,-2.83334 c -0.5746,-1.55833 -3.11621,-4.26835 -5.64819,-6.02226 -2.53187,-1.75391 -4.30893,-3.48346 -3.94887,-3.84344 0.35994,-0.35998 2.96468,1.23849 5.78816,3.55216 4.30145,3.52468 5.24892,3.9063 5.84471,2.35387 0.69995,-1.82415 -10e-4,-9.76061 -1.3532,-15.307 -0.6749,-2.76946 -0.61585,-2.75456 2.6197,0.6613 2.38635,2.51934 3.70589,5.52416 4.72815,10.76667 1.29869,6.66012 1.95387,7.76885 7.78612,13.17606 3.50245,3.2472 6.55044,5.72167 6.77336,5.4988 0.22282,-0.22287 0.66482,-8.62287 0.98215,-18.66667 0.6086,-19.26046 -0.0793,-23.84308 -4.47213,-29.79363 l -2.25704,-3.05749 3.54813,-4.04114 c 4.62865,-5.27174 6.75387,-9.49745 7.67573,-15.26245 l 0.74992,-4.68981 -4.00418,4.00418 c -3.27873,3.27872 -4.84454,4.00418 -8.64212,4.00418 -3.7604,0 -5.22931,-0.66539 -7.76333,-3.51659 -3.04039,-3.42089 -8.42792,-6.71246 -13.60873,-8.31437 -1.91386,-0.59174 -2.55,-0.33398 -2.55,1.03307 0,1.00183 -1.05717,3.89368 -2.34928,6.42633 l -2.34918,4.6048 -4.92207,-5.13703 c -3.0192,-3.15093 -6.60223,-5.60353 -9.26749,-6.34363 -6.80986,-1.89094 -7.17865,-1.70318 -7.17865,3.65408 0,8.12616 -3.28587,9.64015 -9.19949,4.23886 -4.50806,-4.11745 -8.24761,-5.0126 -16.79589,-4.02046 l -6.60223,0.76626 1.18796,3.14712 c 0.99223,2.62876 0.76862,3.73584 -1.35728,6.72144 -3.44817,4.84244 -7.93153,6.94012 -14.83308,6.94012 -3.17866,0 -7.15643,0.69454 -8.83966,1.54343 -1.68322,0.84888 -5.86534,1.82688 -9.29367,2.17331 -3.42833,0.34646 -7.08243,0.9648 -8.12011,1.37413 -1.62384,0.64048 -1.80211,0.11265 -1.27908,-3.78717 0.80059,-5.96817 -3.14772,-10.37037 -9.30081,-10.37037 -7.98343,0 -11.66574,7.54025 -8.53933,17.48621 0.60169,1.91425 1.38902,4.93314 1.74953,6.70865 0.37411,1.84202 3.97018,6.73011 8.37477,11.38364 4.24558,4.48551 8.25803,9.15283 8.91672,10.37182 0.6587,1.219 2.83628,3.17523 4.83911,4.34718 l 3.64163,2.13083 -0.48031,-4.11416 c -0.52791,-4.5216 0.40517,-5.23097 2.68362,-2.04025 0.81441,1.14064 2.88343,2.9843 4.59759,4.09701 2.70028,1.75285 3.11667,1.78846 3.11667,0.26654 0,-0.96611 0.55046,-3.19228 1.22321,-4.94702 l 1.22332,-3.19044 2.1225,4.34089 c 1.16734,2.38751 4.96366,7.81364 8.4362,12.0581 6.7379,8.23576 10.84328,17.43911 8.7244,19.55804 -0.8594,0.85934 -3.18251,0.79283 -7.99737,-0.22895 -3.73241,-0.79207 -8.34904,-1.21074 -10.25927,-0.93038 -3.90094,0.57253 -4.20818,0.0408 -1.80903,-3.13108 2.53209,-3.34778 2.12931,-3.89995 -2.84512,-3.89995 -5.75518,0 -20.04334,-2.91308 -25.52788,-5.20463 -5.33301,-2.2283 -6.56347,-1.67347 -8.13325,3.66753 -0.70652,2.40374 -2.00011,6.75932 -2.87459,9.67906 l -1.58995,5.30862 5.77002,-0.58674 c 3.17356,-0.3227 7.25526,-1.05638 9.07052,-1.6304 1.81526,-0.574 3.46506,-0.87906 3.66622,-0.67791 0.20117,0.20117 -0.60792,2.27551 -1.79792,4.60964 l -2.16364,4.24387 3.59742,-0.77435 c 1.97869,-0.42589 4.9555,-1.46799 6.61527,-2.3158 2.88807,-1.4752 3.11995,-1.36808 5.39795,2.49273 2.80126,4.7479 5.0422,4.55282 5.5394,-0.48223 0.51408,-5.20525 2.13565,-4.43532 5.18613,2.46242 2.93329,6.63275 5.98513,8.97455 6.57152,5.04256 0.19459,-1.30549 1.7748,-3.43059 3.51141,-4.72244 3.51276,-2.61305 6.1599,-1.8291 7.67766,2.27365 1.57102,4.2469 -1.93279,8.62435 -12.12475,15.14776 -20.41575,13.0673 -32.28334,30.93892 -35.67133,53.7182 -3.0558,20.54609 6.48834,41.77751 25.6351,57.02674 9.16266,7.29753 23.7184,14.99944 22.79349,12.0607 -3.92813,-12.48083 -3.79882,-36.29454 0.21907,-40.31232 0.60294,-0.60294 0.39554,1.8819 -0.46092,5.52194 -3.19011,13.55908 -1.80427,24.36292 6.3733,49.68477 7.39613,22.90183 6.37239,32.69009 -4.09553,39.15961 -3.36203,2.07786 -5.52659,2.42024 -14.56617,2.30441 -9.80844,-0.1258 -10.87717,0.0827 -14.02625,2.73213 -3.05286,2.56892 -7.01114,11.00297 -7.01114,14.93904 0,2.13214 2.2423,1.84994 6.6487,-0.8364 z M 432.3679,726.60836 c 0,-1.66271 -4.62435,-6.16886 -9.31023,-9.07228 -3.67993,-2.28021 -4.28785,-2.3495 -4.29612,-0.48976 -0.0125,2.82347 -2.39032,9.91667 -3.32407,9.91667 -0.52655,0 -1.30515,-1.38614 -1.73037,-3.0803 -0.42523,-1.69418 -2.2091,-5.03303 -3.96429,-7.4197 l -3.19124,-4.33938 -2.48483,4.02053 c -2.31642,3.74803 -6.3291,7.41885 -8.10991,7.41885 -0.42534,0 -0.50853,-1.97388 -0.18496,-4.3864 0.35156,-2.6212 0.0805,-4.70049 -0.67456,-5.16689 -0.69451,-0.42927 -1.26276,-0.27951 -1.26276,0.33278 0,1.41233 -5.57249,8.08717 -6.75161,8.08717 -0.48586,0 -1.16597,-1.9125 -1.51152,-4.25 -0.34544,-2.3375 -0.93262,-6.035 -1.30481,-8.21666 -0.37219,-2.18167 0.42137,-0.7022 1.76358,3.2877 l 2.44041,7.25437 2.67614,-4.42104 c 1.47186,-2.43157 2.67874,-5.08863 2.68192,-5.90459 0,-0.81596 0.50104,-1.17749 1.10636,-0.80342 0.6052,0.37408 1.4476,3.29694 1.87181,6.49524 l 0.77146,5.81511 2.94474,-3.4091 c 1.61965,-1.87501 3.51753,-4.38527 4.21747,-5.57836 1.24894,-2.12889 1.31966,-2.12709 3.80392,0.0975 1.39219,1.24666 3.5326,4.22859 4.75638,6.6265 1.22388,2.39789 2.38895,4.18289 2.58921,3.96666 0.20015,-0.21624 0.64861,-2.68816 0.99665,-5.49316 0.34794,-2.805 0.65858,-5.20402 0.6902,-5.33116 0.17318,-0.69505 8.87038,5.27426 12.08825,8.29672 2.06822,1.94271 4.03252,3.26021 4.36493,2.92777 0.33252,-0.33249 0.60452,-3.19864 0.60452,-6.36928 0,-4.91338 -0.49323,-6.23029 -3.33938,-8.9166 -3.2725,-3.08866 -3.36407,-3.10562 -4.57322,-0.84631 -1.56933,2.93227 -3.42074,2.97462 -3.42074,0.0782 0,-2.114 -6.18415,-10.23945 -7.79303,-10.23945 -0.41707,0 -1.71949,1.785 -2.89442,3.96667 -1.17493,2.18166 -2.43837,3.96462 -2.80772,3.96214 -1.58633,-0.0102 -10.30449,-10.27405 -10.30064,-12.12624 0,-1.47354 0.58752,-1.09674 2.11593,1.3641 1.16133,1.87 3.48138,4.66164 5.15542,6.20364 3.3898,3.12236 4.62208,2.36315 5.93017,-3.65364 0.37264,-1.71417 1.02034,-3.11667 1.43922,-3.11667 1.44919,0 9.03856,8.51111 10.10593,11.33333 l 1.07157,2.83334 0.81169,-3.11667 c 0.99246,-3.81116 2.0876,-3.95291 3.67223,-0.47524 0.66187,1.45279 3.93131,4.4732 7.26524,6.71202 l 6.06175,4.07059 1.21652,-4.0942 c 0.66912,-2.2518 1.5555,-3.5458 1.96973,-2.87554 0.61778,0.99949 -0.95789,7.78378 -2.14676,9.2435 -0.17816,0.21878 -2.14245,-0.98926 -4.36515,-2.68452 l -4.04101,-3.0823 -0.0159,5.51784 c -0.0113,3.03482 -0.323,6.66536 -0.69892,8.06786 -0.73497,2.74226 -2.68566,3.51369 -2.68566,1.06203 z m -30.22521,-43.99358 c -7.20426,-6.35115 -8.29793,-7.80444 -8.13836,-10.81462 l 0.16978,-3.20385 0.46999,3.09445 c 0.27449,1.80692 2.19311,4.51472 4.61119,6.50797 l 4.14132,3.41354 2.54478,-3.10797 c 1.39978,-1.70939 2.56326,-3.74549 2.5857,-4.52465 0.0589,-2.03174 0.40415,-1.86109 5.28168,2.60756 4.33364,3.97036 4.40118,3.98934 5.04571,1.41667 0.35927,-1.43415 0.23177,-4.1342 -0.28333,-6.00009 -1.41599,-5.1289 -1.13855,-5.90294 1.00708,-2.80965 1.06896,1.54119 2.78788,3.71991 3.81978,4.84159 1.79622,1.9526 1.90582,1.92846 2.57414,-0.56667 0.38398,-1.43334 0.70505,-4.05684 0.71355,-5.82997 l 0.0159,-3.22391 3.90739,4.67684 c 3.64979,4.36856 3.98605,4.52995 5.10001,2.4484 0.65597,-1.22564 1.20042,-4.17446 1.20994,-6.55294 0.0125,-3.07256 0.31892,-3.84781 1.05899,-2.67788 1.2359,1.95367 0.37785,7.27303 -1.90434,11.80623 l -1.63767,3.25285 -2.1505,-3.53618 c -2.7497,-4.52159 -3.66509,-4.44902 -5.42946,0.43048 -1.66748,4.61127 -2.75174,4.96226 -4.37648,1.41667 -1.0514,-2.29458 -1.25154,-2.01341 -1.99784,2.807 l -0.82949,5.357 -4.96989,-4.07248 -4.97001,-4.07248 -2.23425,2.68214 c -1.22888,1.47519 -2.25126,3.31966 -2.272,4.09882 -0.0453,1.68874 -1.24066,1.74149 -3.06283,0.13513 z m 64.08615,-23.65396 c -2.62231,-2.49452 -4.42873,-4.87452 -4.01438,-5.28889 0.41435,-0.41437 0.88094,-0.53306 1.03677,-0.26377 0.15584,0.26929 2.29931,2.64929 4.76329,5.28888 5.67335,6.0776 4.50704,6.24988 -1.78568,0.26378 z m -85.36335,-9.31669 c -2.38544,-3.40563 -2.22066,-5.66195 0.68294,-9.35332 2.09826,-2.66746 3.05672,-3.02943 6.72056,-2.53801 2.3503,0.31524 7.40769,2.5079 11.23881,4.87256 4.42465,2.73104 9.00127,4.56056 12.54611,5.01533 3.0693,0.39376 5.58065,0.54221 5.58065,0.32991 0,-0.2123 -1.275,-2.40573 -2.83333,-4.87429 -3.70068,-5.86213 -3.57397,-6.49129 0.59998,-2.97917 4.28457,3.60522 9.4095,4.65961 20.86207,4.29207 l 5.59527,-0.17957 -3.24598,-3.38818 c -4.53968,-4.73838 -3.14251,-5.1632 1.87079,-0.56884 4.70186,4.30894 4.40742,4.61236 -5.48896,5.65534 -4.20524,0.4432 -8.72758,0.12172 -12.48639,-0.88762 -5.62383,-1.51019 -5.84211,-1.4872 -4.77678,0.5034 0.61404,1.14726 1.60843,2.0859 2.20978,2.0859 0.60146,0 1.09355,0.58136 1.09355,1.29189 0,2.18503 -12.14684,0.26361 -17.95132,-2.83959 -13.26045,-7.08932 -14.92917,-7.7032 -18.08539,-6.65301 -1.75633,0.58437 -3.51424,2.29491 -4.12001,4.009 -2.02096,5.71791 5.65896,10.16235 8.82663,5.10806 0.91811,-1.46503 0.70368,-2.46707 -0.90996,-4.25 -2.20977,-2.44189 -2.00248,-2.78981 0.98068,-1.64509 2.11797,0.81274 2.40289,6.18182 0.4327,8.15208 -2.25431,2.25426 -7.39874,1.61612 -9.3424,-1.15885 z m 52.23726,-14.12402 c -1.65818,-1.65823 -0.35824,-2.06439 7.07586,-2.21076 9.197,-0.18107 14.7824,-1.79935 21.37262,-6.19229 5.28043,-3.51988 6.71206,-2.82724 1.7,0.82244 -4.57232,3.3294 -11.7037,5.88891 -18.58836,6.67145 -3.33393,0.37895 -7.13343,0.9039 -8.44345,1.16654 -1.30991,0.26265 -2.71241,0.14683 -3.11667,-0.25738 z m 78.99663,289.25072 4.11445,-2.79208 2.7922,2.79208 c 3.65806,3.65806 7.94342,3.57624 11.46049,-0.21873 1.53476,-1.65603 2.91301,-2.80353 3.06261,-2.55 0.1496,0.25353 0.83402,1.48093 1.52082,2.72759 0.86938,1.57806 2.65687,2.3715 5.88336,2.61188 3.88744,0.28957 4.93136,-0.10766 6.47598,-2.46511 l 1.84133,-2.81033 4.0502,2.74845 c 11.08853,7.52488 16.99637,-0.36981 12.04098,-16.09039 -2.51974,-7.9934 -1.13424,-12.48707 6.98689,-22.66089 3.42459,-4.29012 6.22948,-8.86924 6.23288,-10.17563 0,-2.08296 -0.63353,-2.36198 -5.19123,-2.26667 -4.36152,0.0918 -5.63754,-0.40279 -7.93334,-3.07122 -3.7341,-4.34021 -3.5122,-9.31079 0.66187,-14.8265 l 3.33461,-4.4064 -5.91612,-4.23935 c -3.25391,-2.33172 -9.12174,-7.84822 -13.03968,-12.25904 -8.79909,-9.90601 -17.4513,-14.60356 -28.86,-15.6689 l -7.64977,-0.71434 0.0113,6.11388 c 0.0147,7.87078 3.51288,15.44235 13.06212,28.26749 10.85733,14.58204 11.61542,16.83953 12.05504,35.89913 l 0.37173,16.11929 -3.14171,3.14738 c -2.83889,2.84387 -4.11899,3.20677 -13.27927,3.76459 -8.72111,0.53108 -10.55326,1.00618 -13.11232,3.4 -3.39898,3.17946 -4.41536,4.90881 -5.46482,9.29935 -0.61166,2.55873 -0.3638,3.11667 1.38504,3.11667 1.17153,0 3.98163,-1.25653 6.24456,-2.7922 z M 278.73695,883.11085 c 0.97025,-1.38538 1.76426,-3.62247 1.76426,-4.97136 0,-2.03796 0.86247,-2.58174 5.10374,-3.21776 l 5.10374,-0.76534 -3.40374,-2.86416 c -4.04384,-3.40261 -4.41796,-6.06085 -0.85374,-6.06674 3.54983,0 9.56171,-3.89232 10.47574,-6.77201 0.42478,-1.33847 0.15765,-3.12675 -0.60429,-4.04487 -1.99002,-2.39779 -5.73149,-2.03626 -6.42645,0.62107 -0.74698,2.85657 -1.99762,2.86405 -4.83288,0.0283 -4.26507,-4.26518 -4.36084,-13.09374 -0.19776,-18.23499 1.96202,-2.42295 1.94457,-2.58185 -0.55681,-5.08323 -2.69087,-2.69087 -4.61255,-8.01674 -3.34855,-9.28075 0.40222,-0.40222 2.52813,-0.0816 4.7243,0.71264 3.12064,1.12846 4.35257,1.14557 5.63822,0.0782 3.89436,-3.23204 -0.32481,-7.38797 -6.57004,-6.47133 -2.5134,0.3689 -3.55176,0 -3.91272,-1.37666 -0.27302,-1.04414 -2.47146,-2.40743 -4.94836,-3.0685 -4.42589,-1.18139 -4.4571,-1.167 -4.4571,2.0528 0,3.5283 -1.90744,4.1939 -5.53192,1.93041 -2.94511,-1.83929 -5.80142,-0.4114 -5.80142,2.9002 0,3.08981 2.94272,4.61357 8.21668,4.25476 4.04516,-0.27529 4.19567,2.90099 0.35383,7.46674 l -2.76283,3.28338 2.1887,3.32021 c 3.24154,4.91731 2.96867,13.08422 -0.57268,17.14031 l -2.77629,3.17991 -1.8213,-2.55 c -2.53107,-3.54371 -5.99313,-3.30616 -6.94249,0.47634 -0.62165,2.4769 -0.10778,3.60876 2.82962,6.23333 1.97405,1.76381 4.85614,3.20699 6.40465,3.20699 3.83205,0 3.68221,3.18207 -0.30122,6.39666 l -3.11667,2.51509 4.81667,0.78891 c 2.64917,0.43396 4.81667,1.2503 4.81667,1.8139 0,2.16161 3.33816,8.88545 4.4112,8.88545 0.61982,0 1.92088,-1.13345 2.89124,-2.51883 z m 62.71732,-28.70144 c 4.37614,-1.82138 13.84695,-10.28976 13.84695,-12.38133 0,-0.65801 -2.61415,-3.69376 -5.80913,-6.74628 -6.72372,-6.42362 -14.03746,-17.24174 -15.93251,-23.56687 -0.98804,-3.29801 -5.76266,-8.94371 -19.21148,-22.71654 l -17.89669,-18.32782 -5.15803,1.3795 c -2.83696,0.75876 -6.29827,1.39796 -7.69182,1.4204 -2.40165,0.0385 -2.35813,0.18417 0.83481,2.79333 l 3.36861,2.75264 4.7226,-2.7676 c 4.57765,-2.68271 4.74062,-2.69926 5.30513,-0.54026 0.3306,1.26389 -0.3825,3.45429 -1.64809,5.06339 -1.22695,1.5597 -1.92587,3.32906 -1.55335,3.93188 0.37253,0.6027 -0.80614,1.86308 -2.61924,2.80069 -3.36056,1.73785 -5.69308,7.45847 -3.04108,7.45847 2.3859,0 7.64706,-6.85429 7.04084,-9.17264 -0.31054,-1.18716 -0.16037,-2.40822 0.33365,-2.71354 2.04907,-1.26638 1.921,4.11502 -0.16082,6.76181 -1.22695,1.55969 -1.92587,3.32905 -1.55335,3.93187 0.37253,0.60271 -0.80614,1.86309 -2.61924,2.8007 -3.3388,1.72652 -5.69478,7.45846 -3.06578,7.45846 2.57663,0 7.75143,-6.54987 7.11064,-9.00002 -0.33524,-1.28214 -0.20547,-2.58083 0.28855,-2.88615 1.38006,-0.85295 2.12455,3.39535 0.95959,5.47683 -0.62401,1.11509 -0.61834,2.63716 0.0147,3.84427 1.14614,2.18677 -0.0159,6.38645 -2.12818,7.69194 -0.90542,0.55953 -0.29228,1.6575 1.90389,3.40873 3.17787,2.53424 3.23952,2.80035 3.23952,13.9825 0,9.34478 0.35734,11.75663 1.98333,13.3833 1.82467,1.82558 1.98334,1.83215 1.98334,0.0816 0,-1.91204 3.17866,-4.24932 5.77886,-4.24932 0.76704,0 5.55923,4.2882 10.64915,9.5293 5.12085,5.27294 10.47937,9.75992 11.99656,10.04564 1.50813,0.28401 3.14092,0.58582 3.62848,0.6707 0.48745,0.085 2.78245,-0.63478 5.1,-1.59936 z m -54.71972,-45.21626 c 0,-3.01252 -5.88506,-6.22813 -12.92397,-7.06181 -5.68306,-0.67309 -5.77607,-0.63501 -5.77607,2.36255 0,2.48132 0.89367,3.45746 4.81667,5.26094 6.30363,2.89782 13.88337,2.59125 13.88337,-0.56168 z m 6.45456,-0.27552 c 2.87062,-2.75026 4.23073,-6.02129 2.50364,-6.02129 -1.98628,0 -7.2582,4.99517 -7.2582,6.87719 0,2.93748 0.9792,2.76114 4.75456,-0.8559 z m -6.12295,-8.90506 c 0.24321,-1.69966 -0.75242,-2.83401 -3.73694,-4.25714 -6.4379,-3.07008 -14.13491,-4.49196 -15.98848,-2.95358 -3.41426,2.83356 -1.13932,6.63805 4.37855,7.32247 2.22151,0.27551 5.2338,0.99087 6.69387,1.58973 4.24093,1.73921 8.27401,0.94622 8.653,-1.70148 z m 0,-9.1035 c 0.34657,-2.42465 -1.12166,-3.29233 -13.10938,-7.74746 -8.94929,-3.32588 -12.91075,-1.75758 -10.0507,3.97913 0.99631,1.99841 2.66857,2.91131 6.41879,3.50427 2.78932,0.44109 6.60147,1.30344 8.47147,1.91646 4.99585,1.63756 7.88199,1.06092 8.26982,-1.6524 z m 6.00882,-8.53264 c 1.80869,-1.93584 3.28837,-4.22053 3.28837,-5.07688 0,-2.77802 -7.14295,2.13668 -8.05347,5.5411 -1.09208,4.08351 0.6783,3.91113 4.76544,-0.46422 z m -6.00372,-0.57335 c 0.39429,-2.76193 -3.95579,-5.25617 -12.5103,-7.17332 -6.27628,-1.40658 -9.04455,-0.60883 -8.57453,2.47078 0.25656,1.68107 2.34678,2.90927 8.27658,4.86336 9.48962,3.12698 12.34404,3.09117 12.80825,-0.16082 z m 8.36525,-12.85665 c 10.96171,-5.15258 11.90997,-18.1456 1.57329,-21.55698 -4.29182,-1.41644 -7.03154,-0.65324 -8.67442,2.41635 -1.25789,2.35043 -0.41661,6.62386 1.30401,6.62386 0.58129,0 1.05695,0.79102 1.05695,1.75783 0,4.51156 -16.73661,6.55575 -23.60031,2.88238 -2.4113,-1.29051 -3.46113,-4.64021 -1.45427,-4.64021 1.49961,0 2.53646,-3.41329 1.7702,-5.82753 -1.04395,-3.28918 -4.18347,-4.42873 -8.73733,-3.17134 -10.27495,2.83704 -9.9865,15.58559 0.47504,20.99544 8.57828,4.43598 27.38292,4.7056 36.28684,0.5202 z m -6.82018,-9.98338 c 0.63478,-0.63483 0.35893,-1.61034 -0.70527,-2.49353 -2.33047,-1.93407 -2.20615,-4.81069 0.35009,-8.10369 1.91964,-2.47292 2.15945,-6.17359 2.82018,-43.50284 1.13844,-64.33038 5.66905,-112.71885 11.6407,-124.32707 2.37739,-4.6215 2.04396,-4.6399 -4.09938,-0.22641 -7.9135,5.68551 -13.93898,13.08901 -19.27755,23.68679 -10.07938,20.00854 -13.58179,46.92747 -13.58179,104.38721 0,32.62712 0.2105,36.89588 1.97052,39.96256 1.67192,2.91316 1.76078,3.98908 0.58637,7.10044 -0.76127,2.01685 -1.10671,3.94444 -0.76764,4.28351 2.25025,2.25027 18.64377,1.65334 21.064,-0.76697 z m 92.10386,-61.34356 c 0.3434,-0.55558 -0.41536,-3.36058 -1.68606,-6.23334 -1.98106,-4.47918 -2.77904,-5.22316 -5.60139,-5.22316 -8.84125,0 -23.05438,-4.17191 -37.70702,-11.0679 -8.46135,-3.98221 -11.38377,-4.89737 -12.39867,-3.88257 -2.58887,2.58891 1.71383,8.73387 8.37715,11.96401 5.91124,2.8655 22.43637,6.38646 29.97429,6.38646 4.37308,0 4.47644,0.20837 1.98786,4.00653 l -1.83044,2.79347 4.94711,0.13408 c 2.72079,0.0738 6.477,0.52342 8.347,0.99925 4.85679,1.23587 4.90224,1.23686 5.59051,0.12317 z"
       style="fill:#ffce00;fill-opacity:1;stroke:none"
       sodipodi:nodetypes="scsscssssssssssssssscssssssscscsccscscscssssccscsssssssssssscsscssssssscssssscssscccssssssscsssssscsscsssssssssscsssscscsssssssssssccsssssssssssssssscsssccscsscscsssssssssssscscsccsssssscsssscssscscsssscsssscssssssscsscssssccsssssscsscsssssscssssscssssssssssssscssssscsssssssssscsscscsssssssssssssssssssscssssscssssssssscsccscsssscssscssssssccssssscssscssssccccccscsscscssssssccssssscsssscccscccsssssssssssssscssssssssssssssssssssssccsscssscssscccscsssccsscsssssccssscscsssssssscscsssssscsscssssscsssscsssscssscssscssssscsssssssssssssssccssssssssssssssssssssscssccsssssssssssssssscsssscsssssccccssssssccscc" />
  </g>
</svg>
