<?xml version="1.0" encoding="UTF-8" standalone="no"?>
<!-- Created with Inkscape (http://www.inkscape.org/) -->

<svg
   xmlns:dc="http://purl.org/dc/elements/1.1/"
   xmlns:cc="http://creativecommons.org/ns#"
   xmlns:rdf="http://www.w3.org/1999/02/22-rdf-syntax-ns#"
   xmlns:svg="http://www.w3.org/2000/svg"
   xmlns="http://www.w3.org/2000/svg"
   xmlns:xlink="http://www.w3.org/1999/xlink"
   xmlns:sodipodi="http://sodipodi.sourceforge.net/DTD/sodipodi-0.dtd"
   xmlns:inkscape="http://www.inkscape.org/namespaces/inkscape"
   id="svg2"
   version="1.1"
   inkscape:version="0.92.3 (2405546, 2018-03-11)"
   width="1500"
   height="750"
   viewBox="0 0 1500 750"
   sodipodi:docname="Flag_of_Kingdom_of_Georgia.svg">
  <metadata
     id="metadata8">
    <rdf:RDF>
      <cc:Work
         rdf:about="">
        <dc:format>image/svg+xml</dc:format>
        <dc:type
           rdf:resource="http://purl.org/dc/dcmitype/StillImage" />
        <dc:title />
      </cc:Work>
    </rdf:RDF>
  </metadata>
  <defs
     id="defs6">
    <g
       id="smallcross">
      <clipPath
         id="vclip">
        <path
           inkscape:connector-curvature="0"
           d="m -109,104 a 104,104 0 0 0 0,-208 h 218 a 104,104 0 0 0 0,208 z"
           id="path2991" />
      </clipPath>
      <path
         inkscape:connector-curvature="0"
         id="varm"
         d="M -55,74 A 55,55 0 0 1 55,74 V -74 a 55,55 0 0 1 -110,0 z"
         clip-path="url(#vclip)" />
      <use
         height="1052.3622"
         width="744.09448"
         y="0"
         x="0"
         xlink:href="#varm"
         transform="matrix(0,1,-1,0,0,0)"
         id="use2994" />
    </g>
  </defs>
  <sodipodi:namedview
     pagecolor="#ffffff"
     bordercolor="#666666"
     borderopacity="1"
     objecttolerance="10"
     gridtolerance="10"
     guidetolerance="10"
     inkscape:pageopacity="0"
     inkscape:pageshadow="2"
     inkscape:window-width="1920"
     inkscape:window-height="1017"
     id="namedview4"
     showgrid="false"
     inkscape:zoom="0.1767767"
     inkscape:cx="2051.5814"
     inkscape:cy="790.43746"
     inkscape:window-x="-4"
     inkscape:window-y="-4"
     inkscape:window-maximized="1"
     inkscape:current-layer="svg2" />
  <g
     id="g4138">
    <path
       style="fill:#fdfcfc"
       d="M 0,375 0,0 l 750,0 750,0 0,375 0,375 -750,0 -750,0 0,-375 z"
       id="path4142"
       inkscape:connector-curvature="0" />
    <path
       style="fill:#bf0101;fill-opacity:1"
       d="M 665.39358,604.92187 665.15625,459.84375 332.57812,459.60807 0,459.37238 0,375 0,290.62762 332.57812,290.39193 665.15625,290.15625 665.39358,145.07812 665.63092,0 l 84.83783,0 84.83783,0 0.23734,145.07812 0.23733,145.07813 332.10935,0.23569 332.1094,0.23568 0,84.37238 0,84.37238 -332.1094,0.23568 -332.10935,0.23569 -0.23733,145.07812 L 835.30658,750 l -84.83783,0 -84.83783,0 z M 298.43239,716.57455 c -2.15125,-0.23387 -4.37473,-0.98356 -4.94109,-1.66597 -1.09775,-1.32271 0.47558,-22.3951 3.11969,-41.78358 0.73835,-5.41406 1.64032,-14.49808 2.00438,-20.1867 0.8298,-12.96612 0.65997,-13.17978 -10.25422,-12.90079 -9.85339,0.25188 -32.56053,2.65858 -55.76846,5.91084 -3.70012,0.51852 -9.48725,0.81748 -10.50947,0.27042 -2.00411,-1.07256 -1.41062,-4.62053 -1.7146,-34.34164 -0.12142,-11.872 -0.44494,-25.20931 -0.71065,-29.47297 -0.53317,-8.55532 0.43095,-11.07626 3.87029,-10.11993 1.06726,0.29676 7.21393,1.20274 13.65924,2.01328 6.44531,0.81053 14.46094,1.8421 17.8125,2.29236 3.35156,0.45024 13.99227,1.32241 23.64603,1.93814 14.00029,0.89295 17.83857,0.88189 18.96702,-0.0547 1.62534,-1.34891 1.35366,-9.57307 -1.00774,-30.5046 -0.75621,-6.70312 -1.98304,-18.09375 -2.72629,-25.3125 -0.74324,-7.21875 -1.59559,-14.25582 -1.8941,-15.63794 -1.0181,-4.71372 0.39644,-4.8701 37.49225,-4.14478 24.53221,0.47966 33.96516,0.96697 34.53035,1.78384 0.87823,1.26929 0.44541,7.97792 -1.61486,25.03013 -2.38405,19.73201 -3.84912,47.66854 -2.5671,48.95056 1.22461,1.22461 29.3001,-1.748 44.23694,-2.28567 4.47216,-0.16098 13.0921,-0.66281 19.21875,-0.87059 l 11.25,-0.38154 0.24584,34.43068 c 0.27943,39.1347 0.47169,38.08358 -6.735,36.90912 -3.93368,-0.64106 -11.0093,-1.55401 -24.91709,-3.21497 -12.3952,-1.48033 -40.80464,-3.02464 -42.64562,-2.3182 -1.52203,0.58406 -1.60367,1.80716 -1.01816,15.25466 0.58962,13.54193 1.75894,25.76739 4.4163,46.1733 1.16967,8.98188 0.71524,12.44634 -1.76005,13.41809 -1.8917,0.74263 -57.77937,1.46365 -63.68508,0.82161 z m 848.32741,-0.20634 c -11.3037,-0.76185 -11.5936,-1.21304 -9.5971,-14.93762 1.9969,-13.72716 3.7608,-32.29291 4.3452,-45.73584 0.5652,-13.00195 0.4804,-14.20064 -1.0447,-14.78592 -1.8451,-0.708 -30.2397,0.83405 -42.6507,2.31626 -13.9078,1.66097 -20.9834,2.57391 -24.9171,3.21498 -7.2067,1.17445 -7.0149,2.22557 -6.735,-36.90913 l 0.2459,-34.37469 11.25,0.0456 c 6.1875,0.025 14.8359,0.54281 19.2187,1.15054 14.8049,2.05283 43.0123,3.51028 44.237,2.28567 1.282,-1.28202 -0.1831,-29.21855 -2.5672,-48.95056 -2.0602,-17.05221 -2.4931,-23.76084 -1.6148,-25.03013 0.5652,-0.81687 9.9981,-1.30418 34.5303,-1.78384 36.3375,-0.71048 38.6044,-0.48802 37.5814,3.68788 -0.2738,1.11778 -0.964,6.67297 -1.5336,12.34484 -0.5698,5.67188 -1.8339,17.27344 -2.8093,25.78125 -2.7299,23.81285 -3.0781,32.37191 -1.3743,33.78585 1.1284,0.93654 4.9667,0.94759 18.967,0.0547 9.6537,-0.61573 20.2944,-1.4879 23.646,-1.93814 3.3516,-0.45026 10.6485,-0.72352 17.3646,-1.50851 7.1846,-0.83974 12.8158,-1.15663 13.8832,-1.45339 3.2165,-0.17283 4.6278,0.22041 4.0909,8.77619 -0.2677,4.26366 -0.6977,17.86413 -0.7272,30.25211 -0.074,30.95435 0.2309,32.44711 -1.8456,33.55847 -1.0305,0.5515 -6.6455,0.25398 -10.3586,-0.26632 -23.2079,-3.25226 -45.915,-5.65896 -55.7684,-5.91084 -10.9142,-0.27899 -11.0841,-0.0653 -10.2543,12.90079 0.3641,5.68862 1.2661,14.77264 2.0044,20.1867 0.7383,5.41406 1.9764,16.77857 2.7513,25.25445 1.2731,13.92601 1.2678,15.55177 -0.055,16.875 -1.2479,1.24805 -5.1628,1.48176 -26.5089,1.58251 -13.7746,0.0651 -28.9638,-0.14591 -33.7537,-0.46875 z M 293.1459,246.53793 c -1.22328,-0.77103 -1.54697,-1.76879 -1.15804,-3.56966 0.2969,-1.37474 1.15063,-8.40577 1.89718,-15.62452 0.74655,-7.21875 1.80539,-16.71094 2.35296,-21.09375 2.02208,-16.18483 2.82953,-33.08307 1.64879,-34.50577 -0.91431,-1.10167 -3.43704,-1.22408 -14.26439,-0.69213 -7.23451,0.35543 -18.42709,1.27415 -24.8724,2.0416 -27.08537,3.22507 -31.76731,3.82919 -33.60619,4.41283 -4.80285,1.52437 -4.13613,-1.65956 -4.83305,-21.41278 -0.26859,-7.61275 -0.21839,-19.75897 0.0412,-30.56056 0.42371,-17.62749 -0.95625,-20.7967 0.59258,-21.93053 1.03607,-0.75846 6.41,-0.31853 7.80542,0.0386 1.28906,0.32995 5.71875,0.95091 9.84375,1.37989 4.125,0.42899 15.07997,1.65715 24.34438,2.72927 21.97722,2.54327 32.45798,2.85464 34.67073,1.02999 1.49417,-1.23209 1.59929,-2.45611 1.00651,-11.71875 -0.36406,-5.688622 -1.26603,-14.772638 -2.00438,-20.1867 -0.73834,-5.414063 -1.97642,-16.778564 -2.75129,-25.254448 -1.27394,-13.93511 -1.26842,-15.550907 0.0577,-16.875 1.27345,-1.271463 5.62873,-1.457868 33.07145,-1.415445 17.38267,0.02687 32.75859,0.349702 34.16871,0.717402 3.45251,0.900275 4.01155,3.699183 2.71992,13.617631 -2.65736,20.405919 -3.82668,32.631378 -4.4163,46.173304 -0.58551,13.447496 -0.50387,14.670596 1.01816,15.254666 1.84098,0.70644 30.25042,-0.83788 42.64562,-2.3182 13.90779,-1.66097 20.98341,-2.57391 24.91709,-3.21498 7.20669,-1.17445 7.01489,-2.22557 6.735,36.90913 l -0.24585,34.37469 -8.4375,0.31119 c -4.64063,0.17116 -12.02344,-0.16706 -16.40625,-0.7516 -4.38281,-0.58454 -10.92188,-1.45417 -14.53125,-1.93251 -10.52033,-1.39421 -33.58178,-2.07664 -35.09428,-1.0385 -1.15539,0.79303 -1.18556,3.46864 -0.21474,19.04205 0.62126,9.96565 1.7667,23.39281 2.54543,29.83812 2.06541,17.09473 2.49272,23.76117 1.60538,25.04547 -1.11072,1.60765 -68.39579,2.72819 -70.85214,1.17996 z m 857.4124,0.26116 -13.3479,-0.28793 -0.6027,-2.40144 c -0.3315,-1.3208 -0.3168,-4.78972 0.033,-7.70871 0.3496,-2.91899 1.2396,-10.36976 1.9779,-16.55726 2.3315,-19.54039 3.7552,-47.22017 2.4936,-48.48181 -1.2247,-1.22461 -29.4321,0.23284 -44.237,2.28567 -4.3828,0.60773 -13.0312,1.12547 -19.2187,1.15054 l -11.25,0.0456 -0.2459,-34.37469 c -0.2799,-39.1347 -0.4717,-38.08358 6.735,-36.90912 3.9337,0.64106 11.0093,1.55401 24.9171,3.21498 12.3952,1.48032 40.8046,3.02463 42.6457,2.31819 1.522,-0.58406 1.6036,-1.80716 1.0181,-15.254664 -0.5896,-13.541926 -1.759,-25.767384 -4.4163,-46.173303 -1.2917,-9.918449 -0.7327,-12.717357 2.7199,-13.617631 1.4102,-0.3677 16.786,-0.690532 34.1688,-0.717403 27.4426,-0.04242 31.7979,0.143983 33.0714,1.415445 1.3261,1.324094 1.3316,2.939891 0.058,16.875 -0.7748,8.475884 -2.0129,19.840386 -2.7513,25.254449 -0.7382,5.414062 -1.6402,14.498078 -2.0043,20.1867 -0.5928,9.262637 -0.4876,10.486657 1.0066,11.718747 2.2126,1.82465 12.6934,1.51329 34.6707,-1.02999 9.2644,-1.07212 20.2193,-2.30028 24.3443,-2.72927 4.125,-0.42898 8.5547,-1.04993 9.8438,-1.37989 1.3929,-0.35653 3.0469,-0.0851 4.077,0.66895 1.5359,1.12435 1.8289,3.4513 2.5729,20.43243 0.4618,10.53996 1.2659,24.43701 1.787,30.88232 1.6433,20.32813 1.096,23.56914 -3.7222,22.0399 -1.8389,-0.58364 -7.6293,-1.34613 -34.7147,-4.5712 -6.4453,-0.76744 -17.638,-1.68617 -24.8725,-2.0416 -10.8273,-0.53195 -13.3501,-0.40954 -14.2643,0.69213 -1.1906,1.43464 -0.3445,19.15895 1.625,34.03702 0.546,4.125 1.634,13.82726 2.4178,21.56056 0.7837,7.73332 1.6547,14.97599 1.9355,16.09485 0.3573,1.42363 -0.058,2.33883 -1.3851,3.04881 -1.8096,0.96847 -21.6692,1.07758 -57.0856,0.31362 z"
       id="path4140"
       inkscape:connector-curvature="0"
       sodipodi:nodetypes="ccccccccccccccccccccccccccsssssssssssscssssssssscssssssscccsscsssccscscsccscsssccsccsssscscccssssssssssssssssscsssscssscsssssssccccscscsscssscsssscccscssscscssscccsccc" />
  </g>
</svg>
