<?xml version="1.0" encoding="UTF-8" standalone="no"?>
<!-- Created with Inkscape (http://www.inkscape.org/) -->

<svg
   xmlns:svg="http://www.w3.org/2000/svg"
   xmlns="http://www.w3.org/2000/svg"
   version="1.1"
   width="1200"
   height="600"
   viewBox="0 0 1146.512 716.57"
   id="svg2"
   xml:space="preserve"
   style="fill-rule:evenodd"><defs
     id="defs4" /><g
     transform="translate(-143.314,0)"
     id="Layer_x0020_1"><polygon
       points="1433.14,716.57 716.57,716.57 0,716.57 0,358.285 0,0 716.57,0 1433.14,0 1433.14,358.285 "
       id="path2405"
       style="fill:#c7ba20" /><path
       d="m 0,0 1433.14,0 0,716.57 L 0,716.57 0,0 z m 813.039,633.304 c 7.79011,5.76015 15.9689,8.74429 17.1149,6.95506 1.91085,-2.9854 -10.5975,-15.7645 -6.59896,-21.4357 1.47326,-1.24757 21.0808,8.71921 21.8457,8.1788 3.03304,-2.14281 0.61814,-8.87594 2.33089,-14.1747 1.33283,-4.12263 6.90866,-6.85726 8.25027,-9.26588 1.69519,-5.4843 -21.4896,-3.102 -55.1514,-3.102 -24.984,-5.29999 -36.4065,-5.72128 -39.9173,-27.345 0,-9.85143 -4.02859,-30.2615 -0.82127,-36.3188 5.46048,-2.33465 10.7692,-9.17561 20.2357,-10.9322 70.8558,-11.8914 138.045,-53.1741 158.207,-101.768 23.0744,-46.8698 17.224,-73.6556 -27.5682,-126.224 -38.9456,-39.1712 -42.8387,-62.988 -8.14119,-59.7117 33.1252,5.50436 72.8482,4.58404 59.0509,-11.1354 -2.16914,-2.61551 -8.3092,-4.75456 -13.6418,-4.75456 -13.4186,0 -25.5746,-9.65959 -28.5036,-27.5055 -2.70077,-16.4554 -8.81199,-28.891 -17.8685,-28.891 -3.34901,0 -6.81463,2.79607 -10.936,-3.49445 -4.12263,-6.29177 -12.7879,-20.0765 -16.0191,-20.9228 -3.2324,-0.84634 -5.66485,9.8928 -7.56442,4.44487 -1.64379,-4.71695 -4.3433,-32.0645 -7.18451,-31.405 -3.22864,4.23171 -9.49158,11.02 -9.49158,11.02 -7.53558,-1.1761 -9.14175,-11.7159 -24.1803,-14.8204 0.98301,18.7236 -4.55897,54.3665 10.1198,67.0203 -8.55997,17.9625 -14.8392,21.1297 -31.0138,11.7146 -1.51715,16.1369 13.1603,56.0492 5.03417,67.5482 -8.91982,2.83995 -28.8007,-11.3046 -34.2725,-15.2003 -7.83525,7.11179 0.0251,35.2505 13.3108,61.6137 -10.6263,8.61389 -37.8673,-13.4876 -48.1299,-14.1935 -5.74886,14.1634 16.1507,28.2666 13.7521,46.7419 -41.3968,15.1451 -101.776,3.24619 -109.359,-23.9596 -3.64993,-3.34525 -2.11774,12.7603 -5.76767,12.0544 -13.0262,-2.5152 -2.04752,-36.9645 -3.98847,-43.5559 -29.1104,0.43007 -35.7583,36.72 -38.4766,44.959 -18.4026,-7.05912 -27.7788,-21.042 -17.7494,-70.2239 6.24037,-30.5962 9.5969,-30.931 36.0316,-43.4205 22.9516,-10.8432 35.3897,-22.6306 32.7942,-32.551 -11.5466,1.64629 0.32475,-10.1373 4.09379,-14.927 8.17755,-10.3968 12.4757,-36.0316 12.0105,-47.414 -14.522,-0.89524 -2.96283,-47.1319 -1.50837,-55.9 -8.07724,-3.64492 -22.4876,39.3794 -30.2213,41.9824 -5.31754,-0.16801 -12.0394,-1.24256 -8.93989,-12.2124 -6.14257,-1.34913 -20.6959,16.6297 -26.2504,20.2696 -5.25485,3.44305 -5.83036,-7.5732 -10.8507,-8.83331 -6.32688,-1.58862 -18.9731,17.2077 -30.9511,27.5757 -8.43835,7.30362 -8.43333,-0.40248 -10.7768,-0.40248 -9.81256,-3.35026 -28.1061,53.7045 -29.5906,76.0893 -3.91073,-3.37534 -2.21178,-7.91926 -15.93,-33.1628 -9.41133,-14.616 -14.5145,-20.2395 -17.2177,-18.8415 -1.66886,0.86264 -1.17736,27.2949 -12.5823,53.06 -9.50788,21.4833 -14.8931,50.5122 -13.4625,59.9173 4.5715,30.0496 31.2457,77.4836 57.7043,94.9584 -6.64285,3.04182 -16.4391,8.11486 -21.472,10.0282 -12.6437,4.80723 10.2025,8.85964 21.4332,14.6348 23.907,8.57627 36.9244,14.9734 40.9868,20.2533 -3.88189,3.51326 -20.252,2.38104 -39.2239,-0.56674 3.10075,23.0907 22.7773,44.0901 48.644,46.7821 6.90365,0.71845 15.436,-3.48192 15.085,3.73394 5.76265,15.0323 40.9216,20.8163 53.1654,10.8721 2.79105,-1.31779 8.82829,3.56843 11.0175,35.6204 5.56831,29.7599 19.5286,65.7577 32.6488,84.1816 8.85462,12.4356 8.58881,16.1683 -1.48204,20.7561 -19.9198,9.60693 -15.8322,16.6999 6.45728,11.2081 16.74,-6.10746 30.9548,3.06815 39.57,16.2172 2.6431,4.03361 8.38067,13.1766 13.0763,12.0394 3.32268,-2.15661 4.90628,-12.4494 10.1862,-13.5402 8.83331,-1.15855 26.3332,4.92383 32.057,11.8212 2.97035,3.57846 6.03599,4.56523 8.41954,3.24996 5.55452,-3.06439 -0.95166,-15.3796 4.61037,-18.3938 4.76209,-2.5804 13.4951,-4.43609 23.5609,3.0042 l 1.6e-4,-1.1e-4 z m -99.0873,-74.1622 c 10.6702,2.47634 26.4046,20.7072 26.4861,31.9203 -1.43439,2.32086 -11.2307,7.15692 -12.5321,4.7671 -3.42048,-6.28174 -12.1297,-10.8382 -15.3458,-15.3683 -4.22419,-5.94948 -1.06451,-16.419 1.39176,-21.3191 l 4e-5,0 z"
       id="path2403"
       style="fill:#139337" /></g></svg>