<svg height="432" width="780" xmlns="http://www.w3.org/2000/svg"><g fill-rule="evenodd" transform="scale(2)"><path d="m0 0h390v216h-390z" fill="#ffce00" stroke-width="1pt"/><g stroke="#000"><path d="m22.99999 22.000004h344.00006v172.000056h-344.00006z" fill="#9c1e3d" stroke-width="2"/><g fill="#ffce00"><path d="m40.679045 33.803714s-2.291777-3.65252-4.583554-4.870027-4.583555 0-4.583555 0-1.074271 2.649867.286472 4.583554 5.156499 3.151194 5.156499 3.151194c1.551917 4.384293 4.209062 6.926541 7.734748 8.02122 1.357217 2.680381 1.968097 5.721063 9.453581 5.442971.849974-4.292524-.239899-7.64857-5.729443-8.880637-1.334243-4.099966-4.215653-6.188616-7.734748-7.448275z"/><path d="m40.679045 180.43886s-2.291777 3.65252-4.583554 4.87003c-2.291777 1.2175-4.583555 0-4.583555 0s-1.074271-2.64987.286472-4.58356 5.156499-3.15119 5.156499-3.15119c1.551917-4.3843 4.209062-6.92654 7.734748-8.02122 1.357217-2.68038 1.968097-5.72107 9.453581-5.44297.849974 4.29252-.239899 7.64857-5.729443 8.88063-1.334243 4.09997-4.215653 6.18862-7.734748 7.44828z"/><path d="m350.8309 180.43886s2.29178 3.65252 4.58355 4.87003c2.29178 1.2175 4.58356 0 4.58356 0s1.07427-2.64987-.28647-4.58356c-1.36075-1.93369-5.1565-3.15119-5.1565-3.15119-1.55192-4.3843-4.20907-6.92654-7.73475-8.02122-1.35722-2.68038-1.9681-5.72107-9.45358-5.44297-.84998 4.29252.2399 7.64857 5.72944 8.88063 1.33424 4.09997 4.21565 6.18862 7.73475 7.44828z"/><path d="m350.8309 33.803332s2.29178-3.65252 4.58355-4.87003c2.29178-1.2175 4.58356 0 4.58356 0s1.07427 2.64987-.28647 4.58356c-1.36075 1.93369-5.1565 3.15119-5.1565 3.15119-1.55192 4.3843-4.20907 6.92654-7.73475 8.02122-1.35722 2.68038-1.9681 5.72107-9.45358 5.44297-.84998-4.29252.2399-7.64857 5.72944-8.88063 1.33424-4.09997 4.21565-6.18862 7.73475-7.44828z"/></g></g></g><g fill="#ffce00" stroke="#9c1e3d" transform="matrix(1.0091703 0 0 .99749784 -293.17596 -28.5807)"><path d="m733.88532 130.15933c25.43685-2.31455 64.73782 18.47007 85.56873 32.33419 0-4.62909 0-9.23503 4.60594-11.54958 4.62909-2.31454 11.57273 2.31455 9.25818 9.23504-6.94363 16.15552-34.69503-2.31455-43.93006-6.92049 0 0 4.62909 9.23503 4.62909 9.23503-13.88727-2.31454-16.20182-4.62909-25.43685-16.17867-2.31455 9.23504-2.31455 11.54958-13.88727 11.54958 4.35134-6.85105 5.80951-9.14245 0-16.15552 0 0-2.31455 13.84098-2.31455 13.84098s-11.54958-16.15553-11.54958-16.15553v16.15553c-2.31454-2.2914-11.57272-9.23504-16.20181-9.23504-6.92049-2.31454-11.54958 11.54958-13.86413 18.49322 6.94364-6.94364 9.23504-11.54958 20.80776-6.94364-6.27241 5.92524-4.44392 13.03089 2.31455 18.47007 0 0 1.20356-9.60536 1.94422-11.80418 3.68012 2.75431 11.48014 13.10033 21.17808 14.11873 6.94364 0 13.88727-2.31455 20.80776-4.60595 23.12231-2.31454 73.99601 2.2914 62.44643 36.94014-2.31455 6.94364-4.62909 11.54958-9.25818 16.17867 32.38048 11.54958 4.62909 53.11881-2.31455 73.90342-4.62909 18.47007-1.41187 33.19058 21.3864 30.8066-4.60595 9.23503-12.12822 10.76263-21.3864 10.76263 0 0 1.15727 5.55491 7.10565 8.17034-9.8831 8.86471 3.42553 22.1502-2.47656 28.79294-9.95254 4.76797-23.1223-2.31454-23.1223-2.31454s-.64808 6.55016-.64808 6.55016-17.47481-1.20356-17.84514-1.94422c0 0 4.97627-9.30447 4.60595-9.48963-4.62909 6.92049-9.04987 10.97094-18.49322 9.48963 0 0 .74066-4.35134 5.90209-9.85996-7.01307 6.98993-7.77687 10.04513-15.13712 9.85996 0-11.54958 6.92049-25.39056 20.80776-20.78461 2.31454 0 9.60536 5.74007 13.03089 2.0368 2.77745-3.98102 1.13412-17.45167 1.13412-22.08076 1.45817-20.41429-2.61543-19.21072-14.16501-30.7603-9.25818-6.92049-16.02128-17.53037-27.57086-19.84491-11.57273-2.31455-30.24648 10.60987-39.50466 15.21582-23.1223 13.86412-43.93006 23.09916-69.36691 27.72825 0 0 .50226-1.18042.50226-3.49034 0-1.55769 24.96699-20.99061 29.33454-55.10931-6.83485 33.67431-31.1098 51.4639-32.02405 57.72012-.91193 6.25853-5.86968 16.93552-6.47146 17.63452 3.00196-1.80072 12.63278-6.52008 24.83738-7.51996-2.63164 14.46359-16.17867 11.54958-18.49322 18.47007 0 6.94363 9.25818 16.17867 0 20.78461h-36.98642s5.69146-7.87871 5.96226-10.04975c-4.97858 3.02048-8.13794 10.9478-19.04176 10.13539.3981-2.98113 5.61972-7.64957 4.7425-9.48269-6.23769 5.78636-9.16559 10.66311-17.123 9.39705 2.31455-6.92049 2.31455-16.15552 11.57273-16.15552 6.94363-2.31455 13.88727 2.31454 18.49321-4.62909 9.25818-11.54958-1.6873-36.81515-3.9787-50.67928 0-11.54958.0347-13.73914-2.94179-27.83009 0 0 2.31455 41.56923 2.31455 41.56923-9.25818-6.94363-18.51636-11.54958-25.46-20.78461-16.17867-20.78462-11.54958-43.88378 9.25818-57.7479 9.25818-6.92049 14.2576-10.53118 25.83032-15.13712-2.31454-6.94364 3.28666-12.05878-4.90683-14.21131-2.45342 4.28191-4.86055 8.95729-9.53593 8.56382 0 0 2.49971-11.54958 2.49971-11.54958s-8.33236.5092-6.68903 15.41487c-9.58222-4.60595-4.88369-15.41487-4.88369-15.41487h-4.62909s-.0231 13.74839-7.56857 16.52585c2.0368-6.45758 2.93948-16.52585 2.93948-16.52585s-12.38282 14.76679-19.58105 9.97568c4.23561-4.7911 7.52227-5.57805 6.94363-11.36441-.55549-5.76322-3.54125-13.19869-4.08286-14.37402 2.62007 1.26582 20.06479 6.47332 31.00565 1.04872-.72445 3.61648-.3981 7.79354-.3981 7.79354 11.54958-2.31455 13.86412-2.31455 25.43685 2.2914-2.31455-16.15553-11.57273-18.47007-20.80776-30.01965v9.23503c-9.25818-2.2914-11.57273-4.60594-16.20182-13.84098 0 0-6.92049 4.60595-6.92049 4.60595-12.19765-7.19824-21.20123-24.27958-3.88843-23.28433 10.32287 1.29615 1.57389 9.44335 1.57389 9.44335s26.47839-8.33236 36.98643-9.25818c0 0-3.0552-6.45758-12.82258-7.56856 8.1009-6.08726 16.2481-8.05462 22.08076 4.76796 5.8095.32403 11.22554-6.66589 7.77687-15.73891 8.58696-.13887 12.82258 5.30031 16.73416 11.01724 3.19407.57863 6.41129-2.77746 5.64749-14.2576 8.1009 6.92049 12.08192 9.04987 12.61427 14.88252 6.89734 1.5276 11.57272-.0231 21.96503-4.65223-2.2914 9.25818-2.2914 11.54958-11.54958 16.17867 6.52702 8.06619 7.21444 17.80047 5.84654 21.33918-2.26594-.65664-2.83069-.80546-4.4393-1.24477.50226 3.56834 1.22671 13.38548.9073 19.16027h-4.62909s6.94364 20.78462 6.94364 20.78462-4.62909 6.94363-4.62909 6.94363c16.17867-6.94363 32.38048-4.62909 48.55915-9.23503 18.49322-2.31455 37.00958-9.25818 57.81734-9.25818 13.86412 0 13.86412 6.94363 32.38048 6.94363 0-4.62909 0-6.94363 0-11.54958 0-9.23503-6.94363-18.47007-18.51636-20.78461-6.92049 0-18.49321 4.60594-25.43685 6.92049-9.23503 2.31454-23.1223 2.31454-32.38048 2.31454-30.0428-4.62909-25.25169-7.54542-35.73658-13.16976-6.27241 1.66647-9.79052 6.98993-12.91516 16.38698-5.80951-8.51753-4.51336-19.39589 2.40713-24.00183-6.92049-25.41371 11.57272-36.96329 34.69503-41.56923z" stroke="none"/><g stroke="#9c1e3d"><path d="m740.82895 338.02862c-4.62909-6.94364-20.8309-18.49322-16.20181-30.0428 6.94363-11.54958 46.26775-30.01965 53.18824-4.60594 2.31455 6.92049-4.81888 25.29103-7.13342 32.23467 3.5019-.90036 7.39497-6.27937 18.79179-4.33052-2.12244 9.07302-15.98657 16.06989-15.98657 16.06989 1.40725 6.13817-9.53592 34.53532-9.53592 34.53532h-30.06594s4.62909-9.23503 4.62909-9.23503-6.94364 9.23503-6.94364 9.23503h-11.57272s9.25818-11.54958 9.25818-11.54958-10.95011 12.82721-20.28236 12.3157c2.31455-18.47007 13.33872-21.55073 29.54054-14.6071 2.31454-9.23503 6.92049-20.78461 2.31454-30.01964z" stroke-linejoin="round" stroke-width="2.314545"/><path d="m616.99385 164.09635c-3.11769 1.91783-.57169 14.6057 4.2171 12.44577 5.96922-2.69159-1.84932-13.90301-4.2171-12.44577z" fill-rule="evenodd" stroke-width="2.314545pt"/><g stroke-linecap="round" stroke-linejoin="round"><g fill-rule="evenodd" stroke-width="2.314545pt"><path d="m619.9449 160.08848c5.69609 4.00787 14.76679 14.7661 25.94605 14.13331-8.43883-6.96123-6.74922-12.02383-6.74922-12.02383 4.43004 5.27345 19.19453 10.1252 24.04581 8.0155-5.69378-4.21872-6.74921-4.64067-8.01527-8.6483 6.75153.84388 15.18805 2.32056 21.93726-.6328"/><path d="m630.91584 230.54346.63187-9.7035s6.32797 14.76541 10.96863 14.97603c-2.95336-10.75615-1.6873-19.40584-1.6873-19.40584"/><path d="m645.68032 218.73072s12.65594 23.20262 18.77328 19.40676c-9.28133-8.22797-8.2259-18.98505-8.2259-18.98505s4.21942 14.34439 16.66473 18.77443c.84249-8.01643-4.85129-21.09476-4.85129-21.09476s10.33445 18.1414 15.60929 18.56265c3.37461-4.2171 2.10855-8.6483 2.10855-8.6483"/><path d="m635.76713 202.69902 9.28132 11.81274 1.47668-15.8206s9.0707 7.17184 10.75801 6.96099c1.6873-.21086-2.53211-16.87535-2.53211-16.87535s12.23468 18.56312 13.07949 18.14094c.84249-.42194 1.26374-18.35202 1.26374-18.35202s9.28364 25.5241 12.44762 25.31325c3.16399-.21086 2.31918-3.58593 2.31918-3.58593"/><path d="m628.80498 182.02666s14.34323 13.07834 15.81991 12.23469c1.47668-.84389-5.9044-15.18805-5.9044-15.18805s8.22589 7.80488 11.38987 8.43768c3.16399.63279 1.05543-10.12521 1.05543-10.12521s9.70258 8.22682 11.38988 7.80488c1.6873-.42195.84481-7.80488.84481-7.80488s6.32797 6.32843 6.74921 6.32843c.42125 0-1.26605-18.14117-1.26605-18.14117s14.13492 14.97695 15.18804 14.7661"/><path d="m571.42972 186.66733c.63187 1.05473 2.98113 19.70835 31.88054 12.11432 2.74274-1.47668 1.53686 5.21305 1.4165 7.17185 1.26606-.21085 15.03992-5.12278 24.53187 1.83845-1.11561-7.71554-3.19639-12.89781-11.42228-17.32761-4.00648-.84366-6.93207 1.20518-6.93207 1.20518s-34.8339.2715-39.47456-5.00219z"/></g><path d="m555.66998 305.43056c-.47911 2.15947-1.99051 2.78209-6.30713 9.01979 1.91876 2.63858 10.74643 6.7631 13.1443 4.60594 2.15947-1.20125 2.31454-6.92049 2.31454-6.92049 4.62909 6.92049 12.77166 17.83357 22.02984 20.14812 6.92049 2.31454 13.86413-2.31455 13.86413-9.23504s-10.45712-18.09743-15.06306-22.70337c-11.57273-13.86413-10.55201-40.04857-32.42909-36.40548-.11341.19905-.98831 3.17787-3.08529 3.71022 1.75674 3.36303 2.74274 6.20529-1.46279 7.26304 3.27045 3.21259 3.78428 5.54565-.41893 7.15889 2.54368 3.41164 5.5225 4.6638-.3333 7.58245 6.1266 5.97152 7.44589 14.75753 7.74678 15.77593" stroke-width="2.314545"/></g><path d="m549.97389 109.70107c-6.95521 10.07452-7.67735 120.89563-5.51788 143.20321-6.95521 4.55734-19.9074 2.63858-23.50652 1.19893 1.68036-7.91574 7.67503-136.48686 29.0244-144.40214z" fill-rule="evenodd" stroke-width="2.314545pt"/></g><g fill-rule="evenodd"><path d="m530.30488 336.85977s-30.70475 4.31663-17.75256-13.91041c11.03575-4.79806 10.79504 6.47609 6.71681 10.31361 5.03877.56012 8.39717-2.71959 9.11468-7.67735-6.23538-8.39485 2.63858-13.91273 2.15947-13.91273-21.34705 4.79805-24.22634-9.8345-16.3106-12.23237 9.99652.55781 6.79782 3.75651 10.79504 6.71681 7.19592-6.6358 11.51486-7.27461 15.83149-.47911 4.31663-6.71681 10.55432-5.99699 10.79272-5.27716 6.95752 11.75094-8.39485 12.47077-14.63024 11.03112 5.27717 5.75859 3.1177 11.27415 1.43734 15.35469.1597 3.99722 3.20101 4.63603 8.15645 6.23539-10.55201-29.10541 37.18085 7.75372-10.79504 4.07822.081 1.27763.16202 2.55758.24072 3.83752 3.91852.71982 6.6358 1.67804 7.91343 5.75627-1.67573 2.23817-4.31432 2.55757-8.39254.96054 0 0 2.39787 6.71681-1.91876 8.63557-3.59912-2.15947-4.07823-7.43664-4.07823-7.43664-1.99977 2.47888-4.95775.87722-7.43663-1.19893 2.24048-5.51788 8.55687-2.88161 8.15645-10.79504z" stroke="none"/><path d="m503.91907 248.10854c1.83775-8.31847 21.18735-7.27924 11.99397 1.67805 6.15438 9.8345 25.02486 8.39717 32.14209 2.87929-5.9993-11.43617 10.31593-8.95729 9.5961-.24071-1.99976 15.42876-55.81062 13.35261-53.73216-4.31663z" stroke="none"/><g stroke="#ffce00" stroke-linejoin="round" stroke-width="2.314545pt"><path d="m512.5801 267.0693c-.45365 3.51347 7.93194 5.04339 16.52816 5.08505 8.59622.044 17.4077-1.4003 17.80348-3.83752.11342-4.36291-7.50607-.6527-16.17404-.72445-8.66797-.0694-15.89166-3.4695-18.1576-.52308z"/><path d="m513.25826 276.81353c.1111 3.28665 8.44115 4.07823 15.80603 4.30505 7.36719.22683 14.78763-1.24522 16.14626-3.62457-1.3054-3.74031-9.48963-.62262-16.14858-.45365-6.65663.17127-14.04928-3.28666-15.80371-.22683z"/><path d="m515.63761 285.53936c-.56706 2.49277 6.77005 4.27728 13.5262 4.31895 6.75616.0417 16.33143-2.56452 16.38698-5.22625-.39579-2.09466-9.85765.73603-16.2157.94897-6.36037.21293-13.69748-2.30761-13.69748-.0417z"/><path d="m514.84604 294.48971c.56706 2.4349 8.89711 3.25888 16.21801 2.7057 7.32323-.55086 14.77143-2.81911 15.39404-5.42529-.33792-1.64333-8.75129 1.27531-15.72039 1.62944-6.96909.35412-16.00507-.83787-15.89166 1.09015z"/></g></g></g></svg>