<?xml version="1.0" encoding="UTF-8" standalone="no"?>
<svg
   xmlns:dc="http://purl.org/dc/elements/1.1/"
   xmlns:cc="http://web.resource.org/cc/"
   xmlns:rdf="http://www.w3.org/1999/02/22-rdf-syntax-ns#"
   xmlns:svg="http://www.w3.org/2000/svg"
   xmlns="http://www.w3.org/2000/svg"
   xmlns:sodipodi="http://sodipodi.sourceforge.net/DTD/sodipodi-0.dtd"
   xmlns:inkscape="http://www.inkscape.org/namespaces/inkscape"
   width="600"
   height="400"
   viewBox="0 0 323 217"
   version="1.0"
   id="svg2178"
   sodipodi:version="0.32"
   inkscape:version="0.45.1"
   sodipodi:docname="Liège.svg"
   inkscape:output_extension="org.inkscape.output.svg.inkscape"
   sodipodi:docbase="C:\TIIKERI\Liput\Belgia\provinssit\Liège - kunnat\Liège\svg">
  <metadata
     id="metadata2195">
    <rdf:RDF>
      <cc:Work
         rdf:about="">
        <dc:format>image/svg+xml</dc:format>
        <dc:type
           rdf:resource="http://purl.org/dc/dcmitype/StillImage" />
      </cc:Work>
    </rdf:RDF>
  </metadata>
  <sodipodi:namedview
     inkscape:window-height="712"
     inkscape:window-width="1024"
     inkscape:pageshadow="2"
     inkscape:pageopacity="0.0"
     guidetolerance="10.0"
     gridtolerance="10.0"
     objecttolerance="10.0"
     borderopacity="1.0"
     bordercolor="#666666"
     pagecolor="#ffffff"
     id="base"
     width="600px"
     height="400px"
     inkscape:zoom="0.98571755"
     inkscape:cx="230.10535"
     inkscape:cy="193.51806"
     inkscape:window-x="-4"
     inkscape:window-y="-4"
     inkscape:current-layer="svg2178" />
  <defs
     id="defs2180">
    <clipPath
       id="clip0">
      <rect
         width="323"
         height="217"
         id="rect2183"
         x="0"
         y="0" />
    </clipPath>
  </defs>
  <g
     id="g3193"
     transform="matrix(1,0,0,0.9995394,5e-6,4.99751e-2)">
    <path
       style="fill:#fcdd09;fill-opacity:1;fill-rule:nonzero;stroke:none"
       d="M -1.2496266,1.4210855e-014 L 324.24999,1.4210855e-014 L 324.24999,217 L -1.2496266,217 C -1.2501166,144.66611 -1.2501166,72.333557 -1.2496266,1.4210855e-014 z "
       id="path2192" />
    <path
       style="fill:none;stroke:#ff0000;stroke-width:0.1;stroke-linecap:butt;stroke-linejoin:miter;stroke-miterlimit:10"
       d="M 0,0 L 161,0 C 160.99976,72.333557 160.99976,144.66611 161,217 L 0,217 L 0,0 z "
       id="path2186" />
    <path
       style="fill:#da121a;fill-opacity:1;fill-rule:nonzero;stroke:none"
       d="M -1.25,1.4210855e-014 L 161.5,1.4210855e-014 C 161.49976,72.333557 161.49976,144.66611 161.5,217 L -1.25,217 L -1.25,1.4210855e-014 z "
       id="path2188" />
    <path
       style="fill:none;stroke:#ffff00;stroke-width:0.1;stroke-linecap:butt;stroke-linejoin:miter;stroke-miterlimit:10"
       d="M 161,0 L 323,0 L 323,217 L 161,217 C 160.99976,144.66611 160.99976,72.333557 161,0 z "
       id="path2190" />
  </g>
</svg>
