<?xml version="1.0" encoding="utf-8"?>
<!-- Generator: Adobe Illustrator 16.0.0, SVG Export Plug-In . SVG Version: 6.00 Build 0)  -->
<!DOCTYPE svg PUBLIC "-//W3C//DTD SVG 1.1//EN" "http://www.w3.org/Graphics/SVG/1.1/DTD/svg11.dtd">
<svg version="1.1" id="Layer_1" xmlns="http://www.w3.org/2000/svg" xmlns:xlink="http://www.w3.org/1999/xlink" x="0px" y="0px"
	 width="1280px" height="852px" viewBox="0 0 1280 852" enable-background="new 0 0 1280 852" xml:space="preserve">
<g>
	<rect x="2" y="0" fill="#2B2A28" width="1278" height="852"/>
	<path fill="#E74501" stroke="#2B2A28" stroke-width="2" stroke-miterlimit="10" d="M462.572,299.275c0,0-3.262-2.804-4.095-6.203
		s10.193-1.47,16.025-3.93c5.832-2.459,12.511-4.611,12.117,2.179C486.226,298.109,470.547,305.557,462.572,299.275z"/>
	<path fill="#FBB100" d="M594.031,296.412c0,0-7.552-12.167-19.885-12.833s-14-29.191-13.667-39.263
		c0.333-10.07-0.666-25.071-5.666-15.404s-6.667,43.177,7.667,57.088c0,0,3.667,5.912-12.667,2.245s-15-27.439-23.333-30.387
		c-8.333-2.946-19-10.946-17.667-23.279s-1.667-25.351-12.667-24.342c-11,1.008-17.521-2.325-16.261-9.658
		c1.26-7.333-17.072-18.667-24.405-12.667s-7,28.333,0,31.333s13.667-9.333,15.667-6s-7,7.667-5.333,14.333
		s-1.667-4.666-14.334,0.334s-21.908,17-14.121,28s25.788,14.228,30.454,1.946c4.666-12.28,11.666-9.015,16.333-4.313
		s3.667,10.7,12.667,10.7s4,11.333-3,12.333s-12.522,4-13.928,15.333c-1.406,11.333,2.594,11.667,9.594,16
		s3.333,10.054,9.667,10.526c6.334,0.474,0.333,8.141,9,9.474s10.334,19.334,19.001,19.334l17.667-12.667L594.031,296.412z"/>
	<path fill="#2B2A28" d="M494.283,313.867c10.237-16.701,1.355-9.793-3.774-5.249C492.794,310.342,493.661,312.218,494.283,313.867z
		"/>
	<path fill="#2B2A28" d="M498.057,318.286c0.327,0.069,0.688,0.122,1.091,0.151c3.894,0.291,3.128,3.301,3.973,5.887
		C516.321,304.122,504.523,312.878,498.057,318.286z"/>
	<path fill="none" stroke="#2B2A28" stroke-width="3" stroke-miterlimit="10" d="M594.031,296.412c0,0-7.552-12.167-19.885-12.833
		s-14-29.191-13.667-39.263c0.333-10.07-0.666-25.071-5.666-15.404s-6.667,43.177,7.667,57.088c0,0,3.667,5.912-12.667,2.245
		s-15-27.439-23.333-30.387c-8.333-2.946-19-10.946-17.667-23.279s-1.667-25.351-12.667-24.342c-11,1.008-17.521-2.325-16.261-9.658
		c1.26-7.333-17.072-18.667-24.405-12.667s-7,28.333,0,31.333s13.667-9.333,15.667-6s-7,7.667-5.333,14.333
		s-1.667-4.666-14.334,0.334s-21.908,17-14.121,28s25.788,14.228,30.454,1.946c4.666-12.28,11.666-9.015,16.333-4.313
		s3.667,10.7,12.667,10.7s4,11.333-3,12.333s-12.522,4-13.928,15.333c-1.406,11.333,2.594,11.667,9.594,16
		s3.333,10.054,9.667,10.526c6.334,0.474,0.333,8.141,9,9.474s10.334,19.334,19.001,19.334l17.667-12.667L594.031,296.412z"/>
	<path fill="#FFCA5F" d="M509.112,262.305c0,0-3.131,0.107-1.965,3.607s2.204,2.667,0.852,6.5s2.315,4.833,5.148,4.5
		s9.5,12.167,17.333,12.5s1.833-10.667,0-15.667s-7-11.167-11-10.333S513.411,261.531,509.112,262.305z"/>
	<path fill="#FFCA5F" d="M490.509,219.912c0,0-5.196,5-2.863,10.5s11.167,8,13.333,3.333S497.54,215.245,490.509,219.912z"/>
	<path fill="#E74501" stroke="#2B2A28" stroke-width="2" stroke-miterlimit="10" d="M434.111,273.6c0,0,2.901,3.175,6.324,3.906
		s1.161-10.233,3.443-16.137c2.282-5.903,4.232-12.646-2.543-12.045C434.562,249.923,427.591,265.818,434.111,273.6z"/>
	<path fill="#E74501" stroke="#2B2A28" stroke-width="2" stroke-miterlimit="10" d="M438.572,183.133c0,0-3.262,2.804-4.095,6.204
		c-0.833,3.398,10.193,1.469,16.025,3.929c5.832,2.459,12.511,4.612,12.117-2.178C462.226,184.299,446.547,176.851,438.572,183.133z
		"/>
	<path fill="#FBB100" stroke="#2B2A28" stroke-width="2" stroke-miterlimit="10" d="M522.147,192.412c0,0-10.057-8.333-20.695-3
		c-10.638,5.333-9.805,16.333-5.805,15.5s14.333,3.667,15.667,11.167s2.667,8.667,7.5,7.5S533.48,201.745,522.147,192.412z"/>
	<path fill="#E74501" stroke="#2B2A28" stroke-width="2" stroke-miterlimit="10" d="M529.519,178.758c0,0-2.266-3.657-5.495-5.006
		c-3.229-1.351-3.029,9.843-6.362,15.224c-3.332,5.381-6.492,11.646,0.277,12.309C524.707,201.947,534.489,187.609,529.519,178.758z
		"/>
	<path fill="#E74501" stroke="#2B2A28" stroke-width="2" stroke-miterlimit="10" d="M543.317,632.285c0,0,4.3,0.091,7.19-1.883
		c2.891-1.974-6.605-7.9-9.304-13.627c-2.698-5.726-6.232-11.788-10.473-6.472C526.489,615.619,533.187,631.635,543.317,632.285z"/>
	<path fill="#E74501" stroke="#2B2A28" stroke-width="2" stroke-miterlimit="10" d="M593.362,613.35c0,0,4.005,1.567,7.399,0.712
		c3.394-0.855-3.477-9.694-4.037-15.999c-0.559-6.305-1.787-13.214-7.6-9.686C583.313,591.906,584.078,609.247,593.362,613.35z"/>
	<path fill="#FBB100" d="M699.207,443.245c0,0-8.731,29.5-36.479,36.5s-50.748-21.5-75.248,0s-27.908,37.5-17.204,42.5
		s14.759,13,2.981,16c-11.778,3-28.277,0-35.777,13.5s-20.545,6-24.522,0s-14.978,1.194-20.478,9.348c-5.5,8.152-35,12.047-31,27.35
		c4,15.304,13.5,18.304,21,11.304s18.324-21.5,21.662-15s-8.398,27,22.72,32c31.118,5,24.118-19.5,20.118-26
		s17.092-9.236,23.296-14.618c6.204-5.383,4.704,18.062,18.204,20.34c13.5,2.277,16-23.723,32-23.723s17.5-16.096,10.5-25.548
		s-9.51-22.952,9.495-29.452s64.562,14.5,87.782,1.5l16.894-47.5l-29.171-33.5L699.207,443.245z"/>
	<path fill="#2B2A28" d="M510.98,573.745c-3.5,5-20.75,2-23.25,4.25s0.25,3.75,3,4.288c1.626,0.318,3.16,2.864,4.146,4.896
		c4.06-3.687,7.598-5.684,9.267-2.435c0.112,0.219,0.207,0.454,0.287,0.704c2.395-3.464,5.531-6.644,6.551-7.954
		C512.73,575.245,514.48,568.745,510.98,573.745z"/>
	<path fill="#2B2A28" d="M533.73,583.196c-10.75,4.3-9.75,17.55-4.25,16.55s2.75-9.855,6-11.304c2.36-1.051,7.088-1.324,11.13,1.467
		c-0.413-1.366,0.311-2.563,1.748-3.66C545.226,583.5,540.091,580.652,533.73,583.196z"/>
	<path fill="#FFCA5F" d="M596.399,503.211c0,0,14.422,5.311,17.856,0s-10.989-3.982-8.928-9.515
		c2.061-5.529,10.302-12.168,6.181-13.273c-4.121-1.106-30.677,9.07-29.532,26.106s19.459,22.333,20.604,18.137
		C603.726,520.469,589.303,510.291,596.399,503.211z"/>
	<path fill="#FFCA5F" d="M509.313,567.823c0,0-8.543,4.589-9.438,1.756s-2.228-8.2,2.772-11.518c5-3.316,9.374-2.517,10.354,0
		C513.981,560.579,520.147,562.736,509.313,567.823z"/>
	<path fill="#FFCA5F" d="M523.813,587.18c0,0-2.5,8.565,0,11.231c2.5,2.668,3.833,4,0,5s-7.861-2.831-8.181-9.166
		C515.313,587.911,525.813,581.113,523.813,587.18z"/>
	<path fill="none" stroke="#2B2A28" stroke-width="3" stroke-miterlimit="10" d="M699.207,443.245c0,0-8.731,29.5-36.479,36.5
		s-50.748-21.5-75.248,0s-27.908,37.5-17.204,42.5s14.759,13,2.981,16c-11.778,3-28.277,0-35.777,13.5s-20.545,6-24.522,0
		s-14.978,1.194-20.478,9.348c-5.5,8.152-35,12.047-31,27.35c4,15.304,13.5,18.304,21,11.304s18.324-21.5,21.662-15
		s-8.398,27,22.72,32c31.118,5,24.118-19.5,20.118-26s17.092-9.236,23.296-14.618c6.204-5.383,4.704,18.062,18.204,20.34
		c13.5,2.277,16-23.723,32-23.723s17.5-16.096,10.5-25.548s-9.51-22.952,9.495-29.452s64.562,14.5,87.782,1.5l16.894-47.5
		l-29.171-33.5L699.207,443.245z"/>
	<path fill="#E74501" stroke="#2B2A28" stroke-width="2" stroke-miterlimit="10" d="M470.335,620.353c0,0,4.001,1.576,7.397,0.729
		c3.396-0.85-3.455-9.702-4-16.01c-0.545-6.306-1.757-13.218-7.578-9.701C460.334,598.887,461.06,616.228,470.335,620.353z"/>
	<path fill="#E74501" stroke="#2B2A28" stroke-width="2" stroke-miterlimit="10" d="M694.119,272.578
		c0,0-5.291-20.667-27.882-21.167c-22.59-0.5-43.09-4-46.923-9.833s-6.5-11.167-4-15.667s3.667-7.666,3.5-12.333
		s-4.232-8-8.533-2.167c-4.301,5.833-3.866,21.5,0,30c3.866,8.5,18.886,13.667,31.959,15.167c13.073,1.5,24.907-1.167,31.74,3
		s9.833,7.5,12.5,14.167L694.119,272.578z"/>
	<path fill="#E74501" stroke="#2B2A28" stroke-width="2" stroke-miterlimit="10" d="M447.671,458.911c0,0,4.238,0.735,7.392-0.781
		c3.154-1.519-5.345-8.805-7.154-14.869c-1.809-6.064-4.393-12.59-9.383-7.97C433.537,439.911,437.753,456.748,447.671,458.911z"/>
	<path fill="#E74501" stroke="#2B2A28" stroke-width="2" stroke-miterlimit="10" d="M502.781,452.936c0,0-4.22,0.833-7.408-0.611
		c-3.188-1.443,5.14-8.926,6.808-15.03c1.667-6.105,4.1-12.688,9.196-8.186C516.473,433.614,512.647,450.543,502.781,452.936z"/>
	<path fill="#E74501" stroke="#2B2A28" stroke-width="2" stroke-miterlimit="10" d="M736.846,696.298c0,0,4.066,1.399,7.423,0.402
		c3.354-0.995-3.877-9.539-4.698-15.816c-0.82-6.275-2.335-13.128-7.997-9.359C725.912,675.292,727.397,692.585,736.846,696.298z"/>
	<path fill="#FBB100" d="M736.147,202.578c0,0-28.667-15.667-47.667-10.333s-12.667,13.333-21,13.333s-21.667-3.667-26,8.333
		s-12.999,22.667,2.667,27.334s18.334,4,30,0s20.666,5.667,17.333,14.667s-4.667,22.667-20.667,19.667s-23-19-33-13
		s-4.333,19.333-15.333,24.333s-58.333,3-72.667,20.333s-18.667,37.333-42.667,37.333c0,0-7.666,16,13.667,17.333
		s-4.333,3.667-9,4.333s-31-5.667-37.667,7.667s-22.666,11.334-26.666,4.334s-13.333-9.333-18.333-1s-14.667,13.301-17,6.483
		c-2.333-6.816-14-16.149-19.667-7.149s-8.667,29,14,28.333s21.667,3.667,20,8s-9,27,8.667,30
		c17.667,2.999,23.333-10.334,21.666-19.667s-13.333-11.333-6-16.333s29-2.333,32,4.667s5.333,10,11,10s-0.333,15.332,14.667,11.666
		c15-3.667,14,2,21,0s10,0.667,16.333-1.667s13,1.333,19.667-2s18.333,3.333,28.333-2s35,25.999,73.333,20.667
		c38.333-5.333,42.334,23.332,43.334,37c1,13.666,3,21.666,7,24c4,2.332-35.667,21.666-43.667,35.332
		c-8,13.668-4.999,39.334,0.334,42.002c5.333,2.667-5.334,10.666,2.333,16.332c7.667,5.668,21.001,21.002,13.334,29.334
		c-7.667,8.333-17.333,19-19,27s-14.667,18.668-21.667,18.668s-22.333,26-8,27.332c14.333,1.334,20-4.332,21-9
		c1-4.666,11,15.334,23,12.668c12-2.668,15-12.334,12-18.334s-14.999-5.334-6.333-13.334s15.999-13.666,22.666-7
		c6.667,6.668,11.334,16.666,22.667,9.334c11.333-7.334,2.334-19.334,15.667-26.334s23-17.001,19-27.666
		c-4-10.666-30.334-3-31.334-15s6.668-4.668,6.334-14c-0.334-9.334,3.333-8,3.333-16s16.824-12.666,22.579-22
		s0.087,38.331,24.421,36.666c24.334-1.666,29.334-12.666,37.667-39.334c8.333-26.666-8.667-37.998,6-50.332
		c14.667-12.335,23.001-17.334,25.334-29.668c0,0-19.666,8.668-31,10c-11.334,1.334-22,19.334-17.667,33
		c4.333,13.668,7.667,52.002-8.333,58.334c-16,6.333-18.667-16.334-17.667-31.334s-8.334-65.666-22.667-86
		c-14.333-20.332-50.666-72.999-64.666-77.999s-31.666-23-16-52c7.333-13.667,6.666,18.333,18.333,20c0,0,2.001-1.333,2.667-12.333
		s10.666-33.334,20.333-40.334s4.333,18,11,18s15-33.333,12-59c5-10.333,6.333-16.667,5-24.667s-17.333-9-15.333-14.333
		s26.999-9,27.666-22.667C768.814,188.245,749.146,205.245,736.147,202.578z"/>
	<path fill="#FFCA5F" d="M518.813,392.578c0,0-12.334,6.333-20.667,5s-25-5.667-15.333-13s8-12.667,18.333-8.333
		s24.667,2.219,27.333-1.558c2.666-3.775,3.667,2.225,1.667,4.225s-11.333,7.404-18.333,6.703c-7-0.702-19.333,2.63-12.666,4.297
		S517.813,387.578,518.813,392.578z"/>
	<path fill="#FFCA5F" d="M442.813,391.578c0,0-16.333,3.333-15-2.667s4-3.667,5-7s4-6.334,8.667-3.667
		S450.439,390.674,442.813,391.578z"/>
	<path fill="#FFCA5F" d="M402.48,387.245c0,0-3.333,9.703,3,10.518c6.333,0.815,5.667-2.338,6-5.261S403.346,382.573,402.48,387.245
		z"/>
	<path fill="#FFCA5F" d="M665.813,316.578c0,0,9.399-11.191,10.635-20.525c1.236-9.334,0.671-12.632-5.317-10.145
		c-5.986,2.486-6.983,5.2-5.316,14.936S654.813,323.245,665.813,316.578z"/>
	<path fill="#FFCA5F" d="M709.813,285.109c0,0-10.667-4.529-11-9.529s2.667-17.334,2.667-22.334s-2.001-12.333,1.333-14.333
		s9,6.333,7,12.333s-6.5,23,0.417,22.333s7.25-9.333,7.25-13.333s4.333,0.667,4,5.333S718.363,290.449,709.813,285.109z"/>
	<path fill="#2B2A28" d="M653.43,243.698c1.352,0.281,2.581,0.486,3.729,0.618c-1.17-1.874-3.897-7.027-5.757-16.817
		c0,0,6.84,2.523,10.672,0c3.832-2.524,10.244-7.854,6.659-8.011c-3.585-0.158-15.577,5.175-17.331,0.841
		c-1.373-3.393-1.688-10.269-1.433-14.49c-3.658,1.042-6.777,3.333-8.489,8.073c-0.604,1.672-1.292,3.315-1.985,4.923
		c2.332,2.298,6.26,5.964,8.819,7.244C648.314,226.078,649.533,237.421,653.43,243.698z"/>
	<path fill="#2B2A28" d="M688.105,201.995c0,0-7.375,2.875-7.625,10.813c-0.25,7.938,8.125,13.125,15.25,11.938
		c7.125-1.188,9.563-5.372,10.438-6.75c0,0,2.75,7.602,11.75,5.457c3.375-0.957-0.125-1.832-1.188-2.082s-6.813,0.563-8.563-5.938
		s-1.875-8.25-5.75-8.625s-9.625,0.577-10.813-3.743c-1.188-4.319-1.394-8.257-2.353-7.382
		C688.291,196.558,688.293,200.183,688.105,201.995z"/>
	<path fill="#FBB100" d="M685.105,208.183c0,0-3.833,4.104,0.375,10.125c4.208,6.021,16.813,4.813,19.25-4.563
		c0,0-0.375-3.954-1.875-3.915s-5.5-0.523-6.5-0.71c0,0,0.525,2.776-0.425,4.139s-2.738,3.816-7.513,2.361
		C683.643,214.165,684.543,209.62,685.105,208.183z"/>
	<path fill="#2B2A28" d="M743.564,238.162c0,0,0.666,3.667-1,5s-8.499,0.728-7.666-4.554c0.833-5.28,8.083-8.196,11.583-6.279
		S742.147,234.995,743.564,238.162z"/>
	<path fill="#2B2A28" d="M688.23,301.773c0,0,1.875-2.902,2-1.152s-3.125,14.317-5.875,17.817s-6.25,11.464-19.625,20.448
		s-23.5,24.109-18.5,36.109c2.625,4.75,1.02,4.774,0.318,3.512c-0.702-1.263-5.068-4.012-4.193-14.887s13.875-22.125,17.125-25.375
		s14.625-9.75,20.125-18.375S686.525,304.66,688.23,301.773z"/>
	<path fill="#2B2A28" d="M602.865,428.738c0.408-0.965,0.651-2.067,0.365-3.117c-0.75-2.75-7.429-8.752-4.75-13.75
		s26.619-14.375,28.31-21.125s-8.958-11.957-9.31-19.5s-1.375-6.125-2-3.625s-1.125,7.5,3.375,13.5s6.75,8.21,2.875,10.667
		s-23.375,12.833-26.625,18.708s1.75,9.25,3.5,11.375c1.174,1.425,1.947,3.858,1.429,5.763
		C600.925,427.921,601.869,428.29,602.865,428.738z"/>
	<path fill="#2B2A28" d="M597.48,352.245c0,0-12.625,10-8.875,32.5c0,0-3-0.684-4.5-11.279S590.105,352.87,597.48,352.245z"/>
	<path fill="#2B2A28" d="M561.73,386.37c0,0,2,5.738,1-0.755c-1-6.494-3.439-12.67-2.25-22.245s8-19.375,22.625-28.5
		c11.25-5.25,22.875-10,25.25-10.375s6.668-2.875,2.146-2.375s-28.646,5.125-41.646,18.625S554.48,369.745,561.73,386.37z"/>
	<path fill="#2B2A28" d="M614.855,311.62c8.625-1.375,18.375-9.375,19.75-11.562c1.375-2.186-0.25-2.438-3.125,0
		c-2.875,2.439-7.478,6.849-16.125,8.437s-22.125-1.125-34.25,4.625c-21.375,8.125-26.625,22.375-28.5,27.375
		s-2.595,12.743-13.25,18.625c-3.872,2.138-8.262,3.064-12.285,3.384c4.639,0.735,0.855,1.612-4.193,2.351
		c24.042,1.309,27.626-9.137,29.478-12.609c2-3.75,2.5-10,6.625-17.125c10.352-15.489,24.75-18.125,31.716-20.75
		C597.663,311.745,606.23,312.995,614.855,311.62z"/>
	<path fill="#2B2A28" d="M609.48,296.412c0,0,17.083-0.167,25-4.167s7.916-13.667,5.25-17.25s1.168,12.084-9.416,14.917
		S605.563,294.745,609.48,296.412z"/>
	<path fill="#2B2A28" d="M742.434,257.604c2.51,0,6.005,0.552,9.189,0.031c-0.047-0.464-0.088-0.931-0.143-1.39
		c1.236-2.556,2.247-4.864,3.05-7.017c-2.332,2.658-6.67,5.734-14.27,5.734C726.887,254.964,737.684,257.604,742.434,257.604z"/>
	<path fill="#2B2A28" d="M517.623,431.985c-3.618-3.349-3.666-8.182-4.476-12.906c-1-5.833-4.5-1.667-4.833,4.333
		c-0.226,4.062,1.418,7.506,2.505,9.312C513.688,432.144,515.876,431.954,517.623,431.985z"/>
	<path fill="#2B2A28" d="M527.147,420.078c-1-5.833-4.5-1.667-4.833,4.333c-0.213,3.845,1.248,7.135,2.326,9.007
		c1.324,0.332,2.712,0.434,4.84-0.174c0.69-0.197,1.332-0.338,1.952-0.454C528.013,429.45,527.941,424.714,527.147,420.078z"/>
	<path fill="#2B2A28" d="M544.61,431.974c-3.606-3.349-3.655-8.176-4.464-12.895c-1-5.833-4.5-1.667-4.833,4.333
		c-0.218,3.921,1.305,7.263,2.389,9.115C539.872,432.64,541.957,432.743,544.61,431.974z"/>
	<path fill="#2B2A28" d="M558.438,431.057c-1.501-2.962-1.693-6.498-2.29-9.979c-1-5.833-4.5-1.667-4.833,4.333
		c-0.109,1.967,0.223,3.785,0.715,5.348C554.146,430.82,556.286,431.06,558.438,431.057z"/>
	<path fill="#2B2A28" d="M572.147,422.078c-1-5.833-4.5-1.667-4.833,4.333c-0.048,0.863-0.004,1.694,0.094,2.494
		c1.741-0.396,3.719-0.361,5.85-0.169C572.75,426.607,572.533,424.331,572.147,422.078z"/>
	<path fill="#2B2A28" d="M722.48,463.245c0,0-0.834,6.5,0,12s2.666,20.166,0,29c-2.666,8.832-6.946,15.832-10.391,17.5
		c-3.443,1.666-0.109,4.332,2.891,1.5c3-2.834,7.682-6.666,10.341-19.834C727.98,490.244,725.646,471.245,722.48,463.245z"/>
	<path fill="#2B2A28" d="M700.48,555.12c0,0-0.527,2.51,2.236,2.941c1.764-0.191-1.111-2.941,1.139-7.441
		s10.875-13.875,13.125-16.125s2.5-4.375,0-2.25s-10.125,7.125-13.25,12.5S700.605,552.62,700.48,555.12z"/>
	<path fill="#2B2A28" d="M776.314,539.411c-1.597,6.922-4.553,16.014-6.48,21.682c0.713-0.801,1.353-1.637,1.894-2.514
		c1.26-2.045,1.973-1.354,2.572,0.951c2.618-8.451,5.187-18.981,5.516-21.286C780.314,534.745,778.813,528.579,776.314,539.411z"/>
	<path fill="#2B2A28" d="M685.647,576.91c0,0-3.334-2.665-1.667,1.835s9.834,10.166,18.334,9.666s2.332-2.834-0.834-2.834
		S689.98,584.743,685.647,576.91z"/>
	<path fill="#2B2A28" d="M662.451,690.62c-0.686,2.189-1.432,5.85-1.895,9.047c0.833-1.125,1.351-2.302,1.591-3.422
		c0.246-1.147,1.039-0.799,2.271,0.334c-0.056-2.068-0.013-4.352,0.313-5.96C665.48,686.913,663.547,687.12,662.451,690.62z"/>
	<path fill="none" stroke="#2B2A28" stroke-width="3" stroke-miterlimit="10" d="M736.147,202.578c0,0-28.667-15.667-47.667-10.333
		s-12.667,13.333-21,13.333s-21.667-3.667-26,8.333s-12.999,22.667,2.667,27.334s18.334,4,30,0s20.666,5.667,17.333,14.667
		s-4.667,22.667-20.667,19.667s-23-19-33-13s-4.333,19.333-15.333,24.333s-58.333,3-72.667,20.333s-18.667,37.333-42.667,37.333
		c0,0-7.666,16,13.667,17.333s-4.333,3.667-9,4.333s-31-5.667-37.667,7.667s-22.666,11.334-26.666,4.334s-13.333-9.333-18.333-1
		s-14.667,13.301-17,6.483c-2.333-6.816-14-16.149-19.667-7.149s-8.667,29,14,28.333s21.667,3.667,20,8s-9,27,8.667,30
		c17.667,2.999,23.333-10.334,21.666-19.667s-13.333-11.333-6-16.333s29-2.333,32,4.667s5.333,10,11,10s-0.333,15.332,14.667,11.666
		c15-3.667,14,2,21,0s10,0.667,16.333-1.667s13,1.333,19.667-2s18.333,3.333,28.333-2s35,25.999,73.333,20.667
		c38.333-5.333,42.334,23.332,43.334,37c1,13.666,3,21.666,7,24c4,2.332-35.667,21.666-43.667,35.332
		c-8,13.668-4.999,39.334,0.334,42.002c5.333,2.667-5.334,10.666,2.333,16.332c7.667,5.668,21.001,21.002,13.334,29.334
		c-7.667,8.333-17.333,19-19,27s-14.667,18.668-21.667,18.668s-22.333,26-8,27.332c14.333,1.334,20-4.332,21-9
		c1-4.666,11,15.334,23,12.668c12-2.668,15-12.334,12-18.334s-14.999-5.334-6.333-13.334s15.999-13.666,22.666-7
		c6.667,6.668,11.334,16.666,22.667,9.334c11.333-7.334,2.334-19.334,15.667-26.334s23-17.001,19-27.666
		c-4-10.666-30.334-3-31.334-15s6.668-4.668,6.334-14c-0.334-9.334,3.333-8,3.333-16s16.824-12.666,22.579-22
		s0.087,38.331,24.421,36.666c24.334-1.666,29.334-12.666,37.667-39.334c8.333-26.666-8.667-37.998,6-50.332
		c14.667-12.335,23.001-17.334,25.334-29.668c0,0-19.666,8.668-31,10c-11.334,1.334-22,19.334-17.667,33
		c4.333,13.668,7.667,52.002-8.333,58.334c-16,6.333-18.667-16.334-17.667-31.334s-8.334-65.666-22.667-86
		c-14.333-20.332-50.666-72.999-64.666-77.999s-31.666-23-16-52c7.333-13.667,6.666,18.333,18.333,20c0,0,2.001-1.333,2.667-12.333
		s10.666-33.334,20.333-40.334s4.333,18,11,18s15-33.333,12-59c5-10.333,6.333-16.667,5-24.667s-17.333-9-15.333-14.333
		s26.999-9,27.666-22.667C768.814,188.245,749.146,205.245,736.147,202.578z"/>
	<path fill="#E74501" stroke="#2B2A28" stroke-width="2" stroke-miterlimit="10" d="M641.48,720.245c0,0,3.5,2.5,7,2.5
		s-1-10.25,0-16.5s1.5-13.25-5-11.25S633.48,713.995,641.48,720.245z"/>
	<path fill="#E74501" stroke="#2B2A28" stroke-width="2" stroke-miterlimit="10" d="M388.48,417.245c0,0,3.5,2.5,7,2.5
		s-1-10.25,0-16.5s1.5-13.25-5-11.25S380.48,410.995,388.48,417.245z"/>
	<path fill="#E74501" stroke="#2B2A28" stroke-width="2" stroke-miterlimit="10" d="M698.994,717.94c0,0,4.297-0.188,7.055-2.346
		c2.756-2.156-7.104-7.455-10.17-12.994c-3.063-5.538-6.983-11.358-10.871-5.777C681.123,702.404,688.842,717.948,698.994,717.94z"
		/>
	<path fill="#FBB100" stroke="#2B2A28" stroke-width="2" stroke-miterlimit="10" d="M634.813,659.077c0,0-4.166,10.334,0.667,13.334
		s9.334,3.332,12.167,1.5c2.833-1.834,3.5,1,10.5-4.834c7-5.832,6.166-8.666,1.333-12
		C654.647,653.745,638.979,650.91,634.813,659.077z"/>
	<path fill="#E74501" stroke="#2B2A28" stroke-width="2" stroke-miterlimit="10" d="M614.729,660.311c0,0-2.353,3.601-2.208,7.098
		s10.2-1.424,16.486-0.684c6.287,0.74,13.301,0.949,11.033-5.462C637.771,654.852,620.643,652.059,614.729,660.311z"/>
	<path fill="#FFCA5F" d="M710.629,574.745c0,0,0.352,5.75-6.148,5.75s-15.25-4-16.5-14.25s3.75-11.5,5.75-11s1.203,6.75,5.477,9.75
		C703.481,567.995,708.777,570.995,710.629,574.745z"/>
	<path fill="#FFCA5F" d="M721.73,597.245c0,0-11.719,3-15.109,0c-3.39-3-5.891,3.5-3.391,5.5s18.25,9.5,18.5,18s-4,12,3.25,12
		s12.199-6,11.725-10c-0.474-4-6.975-5.25-6.975-12.25S727.349,596.201,721.73,597.245z"/>
	<path fill="#FBB100" stroke="#2B2A28" stroke-width="2" stroke-miterlimit="10" d="M418.48,350.412c0,0-9,5.5-7.833,14.167
		s6.5,6.108,5.667,9.888s5.833,4.055,8.667,0s7.167-6.721,10.5-6.888s4.425-3,2.879-7.833S426.313,347.078,418.48,350.412z"/>
	<path fill="#E74501" stroke="#2B2A28" stroke-width="2" stroke-miterlimit="10" d="M403.954,340.545c0,0-4.055,1.434-6.063,4.301
		c-2.008,2.867,8.97,5.06,13.517,9.462c4.546,4.403,9.994,8.828,12.083,2.355C425.582,350.192,413.662,337.576,403.954,340.545z"/>
	<path fill="#FBB100" stroke="#2B2A28" stroke-width="2" stroke-miterlimit="10" d="M806.48,481.245c0,0,1,10.25,7.75,0
		s13.75-15.5,19.5-18s38.154-24.491,42.077-44.496c0,0-3.827-3.754-12.077,3.746s-29,17-37.75,26.75S803.48,471.245,806.48,481.245z
		"/>
	<path fill="#FBB100" stroke="#2B2A28" stroke-width="2" stroke-miterlimit="10" d="M797.98,452.745c0,0,4.75-16.25,11.5-21.25
		s65.51-39.237,68.327-57.75c0,0-5.077-2.25-9.577,3s-17.5,11.5-23.25,11.5s-38.75,11.75-47,32.75s-5,24.5-4.75,27.5
		S795.89,458.75,797.98,452.745z"/>
	<path fill="#FBB100" stroke="#2B2A28" stroke-width="2" stroke-miterlimit="10" d="M771.98,410.495c0,0,3,12.13,7.25,8.314
		c4.25-3.814,3-23.814,17.25-31.564s56-14.25,66.25-26.5s25.5-22.5,23.25-32.25c-2-4.25-11,8.75-16.75,12.25
		s-27.25,10.5-36.75,11.75s-40.5,7.75-50.5,18S767.73,396.995,771.98,410.495z"/>
	<path fill="#FBB100" stroke="#2B2A28" stroke-width="2" stroke-miterlimit="10" d="M756.531,376.995c0,0,2.949,16.25,6.949,9.5
		s19.25-28.5,31.75-34.5s76.75-18.25,81-60.75s-25-58.75-33.25-61s-35,6.75-39.25,1.75s-15-1.5-15.25-9.75s-5-22.5-7.75-16.75
		s0.5,23.734,4.75,29.243c4.25,5.508,15.5,2.314,11.75,9.285c-3.75,6.972-22.5,21.449-18,44.085c4.5,22.637,7,20.443,9.25,16.665
		c2.25-3.777,8.25-2.718,8.25-8.623c0-5.904-4.25-17.904,2-25.154s11.75,16.5,19.5,17s-1.5-12,0.5-16.5s23-17,24.25-23
		s11.25,1.75,14,9.75s16.25,32.5-11,51.5S749.332,340.745,756.531,376.995z"/>
	<path fill="#FBB100" stroke="#2B2A28" stroke-width="2" stroke-miterlimit="10" d="M818.23,230.245c0,0-7.5,1.25-11,0
		s-8.25-8.25-8.25-12.5s8-13.25,11.5-11.5S810.98,220.995,818.23,230.245z"/>
	<path fill="#FBB100" stroke="#2B2A28" stroke-width="2" stroke-miterlimit="10" d="M829.313,483.911c0,0-9.499,6.168-12.666,10.5
		c-3.167,4.334-4.135-3.165-2.317-6.332c1.818-3.168,9.651-15.666,13.317-12.5S830.618,483.036,829.313,483.911z"/>
	<path fill="#FBB100" stroke="#2B2A28" stroke-width="2" stroke-miterlimit="10" d="M800.813,464.079c0,0-0.167,7.5,3,5.5
		s9.667-13.861,13.167-16.432c3.5-2.569,0.199-18.236-2.65-17.902c-2.849,0.334-7.517,1.166-9.85,6S800.146,453.746,800.813,464.079
		z"/>
	<path fill="#FBB100" stroke="#2B2A28" stroke-width="2" stroke-miterlimit="10" d="M797.813,415.161c0,0-6.833,13.084-6.833,18.084
		s-8.666-6-7.333-13s7.832-28.166,12.166-27.333S800.979,405.743,797.813,415.161z"/>
	<path fill="#FFCA5F" d="M835.98,239.995c0,0-2.416,5.22-7.708,9.234c-5.292,4.016-10.843,10.516-11.942,14.766
		c-1.099,4.25-7.1,1.5-5.1-4s4.5-13,1.5-12.5s-5.5-4.192,0.5-6.472C819.23,238.745,839.629,234.599,835.98,239.995z"/>
	<path fill="#FBB100" stroke="#2B2A28" stroke-width="2" stroke-miterlimit="10" d="M471.83,542.588c0,0-1.061,12.693,6.772,18
		s10.061,1.167,12.728-3.833s8.833-5.668,7.5-7.834S484.663,532.921,471.83,542.588z"/>
	<path fill="#E74501" stroke="#2B2A28" stroke-width="2" stroke-miterlimit="10" d="M460.612,536.382c0,0-3.555,2.422-4.763,5.707
		c-1.208,3.284,9.965,2.601,15.485,5.696c5.521,3.097,11.918,5.982,12.284-0.809C483.985,540.187,469.241,531.032,460.612,536.382z"
		/>
</g>
</svg>
