<?xml version="1.0" standalone="no"?>
<!DOCTYPE svg PUBLIC "-//W3C//DTD SVG 20010904//EN"
 "http://www.w3.org/TR/2001/REC-SVG-20010904/DTD/svg10.dtd">
<svg version="1.0" xmlns="http://www.w3.org/2000/svg"
 width="5756.000000pt" height="4343.000000pt" viewBox="0 0 5756.000000 4343.000000"
 preserveAspectRatio="xMidYMid meet">
<metadata>
Created by potrace 1.15, written by Peter Selinger 2001-2017
</metadata>
<g transform="translate(0.000000,4343.000000) scale(0.100000,-0.100000)"
fill="#000000" stroke="none">
<path d="M9540 36590 c0 -27 -3 -30 -30 -30 -27 0 -30 -3 -30 -30 0 -27 -3
-30 -30 -30 l-30 0 0 -8195 0 -8195 -2695 0 -2695 0 0 -30 c0 -27 -3 -30 -30
-30 -27 0 -30 -3 -30 -30 0 -27 -3 -30 -30 -30 l-30 0 0 -2695 0 -2695 30 0
c27 0 30 -3 30 -30 0 -27 3 -30 30 -30 27 0 30 -3 30 -30 l0 -30 5450 0 5450
0 0 30 c0 27 3 30 30 30 27 0 30 3 30 30 0 27 3 30 30 30 l30 0 0 8195 0 8195
5435 0 5435 0 0 -8190 0 -8190 -2690 0 -2690 0 0 -30 c0 -27 -3 -30 -30 -30
-27 0 -30 -3 -30 -30 0 -27 -3 -30 -30 -30 l-30 0 0 -2695 0 -2695 30 0 c27 0
30 -3 30 -30 0 -27 3 -30 30 -30 27 0 30 -3 30 -30 l0 -30 8200 0 8200 0 0 30
c0 27 3 30 30 30 27 0 30 3 30 30 0 27 3 30 30 30 l30 0 0 2695 0 2695 -30 0
c-27 0 -30 3 -30 30 0 27 -3 30 -30 30 -27 0 -30 3 -30 30 l0 30 -2695 0
-2695 0 0 8190 0 8190 5440 0 5440 0 0 -8195 0 -8195 30 0 c27 0 30 -3 30 -30
0 -27 3 -30 30 -30 27 0 30 -3 30 -30 l0 -30 5445 0 5445 0 0 30 c0 27 3 30
30 30 27 0 30 3 30 30 0 27 3 30 30 30 l30 0 0 2695 0 2695 -30 0 c-27 0 -30
3 -30 30 0 27 -3 30 -30 30 -27 0 -30 3 -30 30 l0 30 -2690 0 -2690 0 0 8195
0 8195 -30 0 c-27 0 -30 3 -30 30 0 27 -3 30 -30 30 -27 0 -30 3 -30 30 l0 30
-19200 0 -19200 0 0 -30z"/>
</g>
</svg>
