<svg xmlns="http://www.w3.org/2000/svg" version="1" width="900" height="600"><path d="M0 0h900v600H0z" fill="#ff0"/><path d="M450.063 346.509c-1.795-.003-3.507 2.432-6.3 7.256-11.989 19.769-15.848 35.582-11.757 62.888 3.802 18.302 6.22 22.796 8.381 33.131-14.746-35.435-41.668-32.586-55.071-23.344-16.709 11.521-24.563 34.032-.675 47.925-.253-25.74 24.894-32.569 36.508-24.468 4.319 3.012 23.554 15.297 23.626 45.393h-8.55c-1.845 0-3.375 1.42-3.375 3.263 0 1.842 1.53 3.319 3.375 3.319h7.538c-1.246 9.007-5.378 13.8-12.545 18.056 2.692.444 14.49 4.224 19.576 11.981 5.087-7.757 16.884-11.537 19.576-11.981-7.166-4.256-11.298-9.049-12.544-18.056h7.538c1.845 0 3.375-1.477 3.375-3.32 0-1.841-1.53-3.262-3.375-3.262H456.7c.05-29.804 19.374-42.417 23.232-45.393 10.9-8.41 36.629-1.24 36.734 24.58 22.746-14.611 14.71-37.278-2.082-47.98-13.687-8.725-39.877-11.773-53.721 23.23 1.758-10.082 4.61-14.532 7.706-33.637 3.096-26.36-.215-41.862-11.813-62.325-3.029-4.828-4.899-7.253-6.694-7.256zM335.377 207.183c-1.795-.003-3.507 2.432-6.3 7.256-11.988 19.77-15.848 35.583-11.757 62.888 3.802 18.302 6.22 22.796 8.382 33.131-14.747-35.435-41.669-32.586-55.072-23.344-16.708 11.521-24.562 34.032-.675 47.925-.252-25.74 24.895-32.568 36.508-24.468 4.32 3.012 23.555 15.298 23.627 45.393h-8.551c-1.845 0-3.375 1.421-3.375 3.263 0 1.842 1.53 3.319 3.375 3.319h7.538c-1.246 9.008-5.378 13.8-12.544 18.056 2.692.445 14.49 4.224 19.576 11.981 5.086-7.757 16.883-11.536 19.576-11.981-7.167-4.256-11.3-9.048-12.545-18.056h7.538c1.845 0 3.375-1.477 3.375-3.32 0-1.841-1.53-3.262-3.375-3.262h-8.663c.05-29.804 19.374-42.417 23.233-45.393 10.9-8.409 36.628-1.24 36.733 24.58 22.747-14.611 14.71-37.278-2.081-47.98-13.688-8.725-39.878-11.773-53.722 23.23 1.759-10.082 4.61-14.532 7.707-33.637 3.095-26.36-.215-41.861-11.814-62.325-3.028-4.828-4.898-7.253-6.694-7.256zM564.469 207.183c-1.796-.003-3.507 2.432-6.3 7.256-11.989 19.77-15.848 35.583-11.758 62.888 3.802 18.302 6.221 22.796 8.382 33.131-14.747-35.435-41.668-32.586-55.072-23.344-16.708 11.521-24.562 34.032-.675 47.925-.252-25.74 24.895-32.568 36.509-24.468 4.319 3.012 23.554 15.298 23.626 45.393h-8.551c-1.844 0-3.375 1.421-3.375 3.263 0 1.842 1.53 3.319 3.375 3.319h7.538c-1.245 9.008-5.378 13.8-12.544 18.056 2.692.445 14.49 4.224 19.576 11.981 5.087-7.757 16.884-11.536 19.576-11.981-7.166-4.256-11.299-9.048-12.544-18.056h7.538c1.844 0 3.375-1.477 3.375-3.32 0-1.841-1.53-3.262-3.375-3.262h-8.663c.049-29.804 19.374-42.417 23.232-45.393 10.9-8.409 36.629-1.24 36.734 24.58 22.746-14.611 14.71-37.278-2.082-47.98-13.687-8.725-39.877-11.773-53.722 23.23 1.76-10.082 4.611-14.532 7.707-33.637 3.096-26.36-.215-41.861-11.813-62.325-3.029-4.828-4.899-7.253-6.694-7.256zM450.063 68.092c-1.796-.003-3.507 2.431-6.3 7.256-11.99 19.769-15.849 35.582-11.758 62.888 3.802 18.301 6.22 22.796 8.382 33.13-14.747-35.434-41.668-32.585-55.072-23.343-16.708 11.521-24.562 34.032-.675 47.925-.252-25.74 24.895-32.569 36.508-24.469 4.32 3.013 23.555 15.298 23.627 45.394h-8.551c-1.844 0-3.375 1.42-3.375 3.262s1.53 3.32 3.375 3.32h7.538c-1.245 9.007-5.378 13.8-12.544 18.055 2.692.445 14.49 4.225 19.576 11.982 5.086-7.757 16.884-11.537 19.576-11.982-7.167-4.255-11.299-9.048-12.544-18.056h7.537c1.845 0 3.376-1.477 3.376-3.319 0-1.841-1.53-3.262-3.376-3.262H456.7c.05-29.804 19.374-42.417 23.233-45.394 10.9-8.408 36.628-1.24 36.733 24.581 22.747-14.612 14.71-37.278-2.081-47.98-13.688-8.725-39.877-11.773-53.722 23.23 1.759-10.082 4.611-14.532 7.707-33.637 3.096-26.36-.215-41.862-11.813-62.325-3.03-4.828-4.899-7.253-6.694-7.256zM220.833 68.092c-1.796-.003-3.507 2.431-6.3 7.256-11.99 19.769-15.849 35.582-11.758 62.888 3.802 18.301 6.22 22.796 8.382 33.13-14.747-35.434-41.668-32.585-55.072-23.343-16.708 11.521-24.562 34.032-.675 47.925-.252-25.74 24.895-32.569 36.508-24.469 4.32 3.013 23.555 15.298 23.627 45.394h-8.551c-1.844 0-3.375 1.42-3.375 3.262s1.53 3.32 3.375 3.32h7.538c-1.245 9.007-5.378 13.8-12.544 18.055 2.692.445 14.49 4.225 19.576 11.982 5.086-7.757 16.884-11.537 19.576-11.982-7.167-4.255-11.299-9.048-12.544-18.056h7.537c1.845 0 3.376-1.477 3.376-3.319 0-1.841-1.53-3.262-3.376-3.262h-8.663c.05-29.804 19.374-42.417 23.233-45.394 10.9-8.408 36.628-1.24 36.733 24.581 22.747-14.612 14.71-37.278-2.081-47.98-13.688-8.725-39.877-11.773-53.722 23.23 1.759-10.082 4.611-14.532 7.707-33.637 3.096-26.36-.215-41.862-11.813-62.325-3.03-4.828-4.899-7.253-6.694-7.256zM679.014 68.092c-1.796-.003-3.507 2.431-6.3 7.256-11.99 19.769-15.849 35.582-11.758 62.888 3.802 18.301 6.22 22.796 8.382 33.13-14.747-35.434-41.668-32.585-55.072-23.343-16.708 11.521-24.562 34.032-.675 47.925-.252-25.74 24.895-32.569 36.508-24.469 4.32 3.013 23.555 15.298 23.627 45.394h-8.551c-1.844 0-3.375 1.42-3.375 3.262s1.53 3.32 3.375 3.32h7.538c-1.245 9.007-5.378 13.8-12.544 18.055 2.692.445 14.49 4.225 19.576 11.982 5.086-7.757 16.884-11.537 19.576-11.982-7.167-4.255-11.299-9.048-12.544-18.056h7.537c1.845 0 3.376-1.477 3.376-3.319 0-1.841-1.53-3.262-3.376-3.262h-8.663c.05-29.804 19.374-42.417 23.233-45.394 10.9-8.408 36.628-1.24 36.733 24.581 22.747-14.612 14.71-37.278-2.081-47.98-13.688-8.725-39.877-11.773-53.722 23.23 1.759-10.082 4.611-14.532 7.707-33.637 3.096-26.36-.215-41.862-11.813-62.325-3.03-4.828-4.899-7.253-6.694-7.256z" fill="#00f"/></svg>