<?xml version="1.0" encoding="UTF-8" standalone="no"?>
<svg
   xmlns:dc="http://purl.org/dc/elements/1.1/"
   xmlns:cc="http://web.resource.org/cc/"
   xmlns:rdf="http://www.w3.org/1999/02/22-rdf-syntax-ns#"
   xmlns:svg="http://www.w3.org/2000/svg"
   xmlns="http://www.w3.org/2000/svg"
   xmlns:sodipodi="http://sodipodi.sourceforge.net/DTD/sodipodi-0.dtd"
   xmlns:inkscape="http://www.inkscape.org/namespaces/inkscape"
   width="437.79999"
   height="517.08301"
   id="svg2"
   sodipodi:version="0.32"
   inkscape:version="0.45.1"
   sodipodi:docname="POL księstwo płockie COA.svg"
   sodipodi:docbase="C:\Users\Mistrz\Desktop"
   version="1.0"
   inkscape:output_extension="org.inkscape.output.svg.inkscape">
  <metadata
     id="metadata29">
    <rdf:RDF>
      <cc:Work
         rdf:about="">
        <dc:format>image/svg+xml</dc:format>
        <dc:type
           rdf:resource="http://purl.org/dc/dcmitype/StillImage" />
      </cc:Work>
    </rdf:RDF>
  </metadata>
  <sodipodi:namedview
     inkscape:window-height="974"
     inkscape:window-width="1280"
     inkscape:pageshadow="2"
     inkscape:pageopacity="0.0"
     borderopacity="1.0"
     bordercolor="#666666"
     pagecolor="#ffffff"
     id="base"
     inkscape:zoom="1.027662"
     inkscape:cx="-41.205453"
     inkscape:cy="331.27626"
     inkscape:window-x="-8"
     inkscape:window-y="-8"
     inkscape:current-layer="svg2" />
  <defs
     id="defs4">
    <marker
       id="ArrowEnd"
       viewBox="0 0 10 10"
       refX="0"
       refY="5"
       markerUnits="strokeWidth"
       markerWidth="4"
       markerHeight="3"
       orient="auto">
      <path
         d="M 0,0 L 10,5 L 0,10 L 0,0 z "
         id="path7" />
    </marker>
    <marker
       id="ArrowStart"
       viewBox="0 0 10 10"
       refX="10"
       refY="5"
       markerUnits="strokeWidth"
       markerWidth="4"
       markerHeight="3"
       orient="auto">
      <path
         d="M 10,0 L 0,5 L 10,10 L 10,0 z "
         id="path10" />
    </marker>
  </defs>
  <path
     id="path14"
     d="M 2.1789238,2.1833041 L 435.61854,2.1833041 L 435.61854,309.01617 C 430.72994,366.35999 412.69349,413.19037 375.76119,450.72712 C 335.3825,491.76547 276.83016,515.31962 220.17993,514.74107 C 166.95632,516.97525 112.17196,496.22195 67.789762,453.87834 C 21.678441,409.88666 5.248841,363.4283 2.1877044,304.48723 L 2.1877044,2.1789785"
     style="fill:#222222;fill-rule:evenodd;stroke:none" />
  <path
     id="path16"
     d="M 435.61854,2.1833041 L 435.61854,309.01617 C 430.72994,366.35999 412.69349,413.19037 375.76119,450.72712 C 335.3825,491.76547 276.83016,515.31962 220.17993,514.74107 C 166.95632,516.97525 112.17196,496.22195 67.789762,453.87834 C 21.678441,409.88666 5.248841,363.4283 2.1877044,304.48723 L 2.1877044,2.1789785 L 435.61854,2.1833041 z "
     style="fill:#666666;stroke:#000000;stroke-width:4.35784626;stroke-opacity:1"
     sodipodi:nodetypes="cccccccc" />
  <path
     id="path18"
     d="M 2.1789238,2.1833041 L 435.61854,2.1833041 L 435.61854,309.01617 C 430.72994,366.35999 412.69349,413.19037 375.76119,450.72712 C 335.38689,491.76547 276.83016,515.31962 220.17993,514.74107 C 166.95632,516.97525 112.17196,496.21763 67.789762,453.87834 C 21.678441,409.89099 5.248841,363.4283 2.1877044,304.48723 L 2.1877044,2.1789785 L 2.1789238,2.1833041 z M 182.77677,79.102774 C 181.57602,79.306078 173.27616,79.086553 165.45155,79.288776 C 161.6704,79.386103 156.31094,79.52993 153.37383,77.996493 C 149.21951,75.8207 146.90472,72.81763 146.11557,73.966086 C 144.46481,76.378707 148.80792,84.383289 155.62057,87.217659 C 159.04171,88.64036 162.88322,89.076167 165.83789,89.219994 C 173.35738,89.583348 168.42707,89.202692 172.397,93.11847 C 181.09199,101.71458 199.73759,95.85984 204.53949,108.34686 C 205.76987,117.71185 197.22964,127.58835 189.66734,133.08407 C 187.425,134.71483 186.59743,135.43721 184.71509,136.07091 C 182.40798,136.84845 176.41852,137.26154 181.23358,138.70631 C 184.48789,139.68282 183.29153,141.3471 182.02712,143.39097 C 179.11087,148.1059 172.31139,157.5931 171.35101,162.14258 C 170.79344,164.78338 169.35343,164.92612 166.81034,165.19323 C 164.40995,165.44628 161.18527,165.53496 159.83526,165.6485 C 155.2002,166.02916 148.87268,166.05403 146.47996,164.8461 C 141.64844,162.39671 141.20611,155.96233 141.0777,149.46956 C 141.02172,146.68602 141.69563,143.59427 147.30753,141.1146 C 154.40775,137.97203 155.68532,130.13182 155.01141,120.99825 C 154.77653,117.75835 154.77214,114.42978 154.57019,111.30018 C 154.06421,103.41347 150.24464,99.598267 146.28679,96.659 C 142.33442,93.718652 138.00778,91.792664 136.33617,87.344184 C 135.57665,85.329521 135.41421,82.714676 135.43507,80.112809 C 135.44385,78.874597 135.83458,77.772642 136.29337,76.762607 C 137.30094,74.540313 138.64218,72.762479 136.98374,70.920841 C 136.02337,69.855654 132.32344,71.067912 129.37316,73.657884 C 120.81098,81.172589 124.40005,84.809364 113.28271,73.768188 C 102.65379,63.211483 83.846187,47.513765 74.083257,37.202539 C 69.568931,32.43353 66.901824,29.48453 66.721822,22.299656 C 66.609869,17.631217 63.064702,15.177503 57.743658,23.423239 C 52.509323,31.546776 51.146135,50.162133 54.524471,59.00805 C 55.878878,62.551824 58.382447,66.746606 62.430303,70.899213 C 69.714909,78.371742 80.227482,89.448172 87.258547,97.384625 C 93.924779,104.91231 95.867487,107.94998 85.140228,100.91218 C 74.983269,94.250704 60.851991,84.873167 50.065023,75.583872 C 45.743871,71.862747 44.860323,69.619907 42.703588,65.387276 C 40.774051,61.602348 38.562437,59.358426 36.54729,65.082319 C 35.8185,67.160785 35.364104,69.117052 35.08532,71.034389 C 33.648594,80.953063 34.35653,95.44566 39.509645,104.09692 C 41.374425,107.2276 43.796773,109.88895 46.78986,112.17396 C 59.210018,121.66223 74.490457,131.10725 88.785274,139.50979 C 95.271503,143.31959 99.639852,144.88655 84.047043,141.11893 C 78.143187,139.69471 70.455772,138.31808 62.644331,136.44616 C 57.208042,135.14955 49.859777,132.62339 43.569575,130.60007 C 38.065236,128.83089 34.613363,120.49215 32.075769,116.05622 C 27.787544,108.56638 25.061167,117.61885 24.525551,121.06638 C 23.603588,126.99249 24.490428,135.78326 25.533125,140.2657 C 29.725861,158.25276 37.61084,163.08449 52.903352,167.15707 C 64.8307,170.33316 77.577936,173.10049 85.384987,175.18328 C 93.088427,177.23579 98.983502,178.20365 87.258547,178.56268 C 77.260737,178.86655 59.150749,178.23285 47.055473,178.06415 C 33.117368,177.8695 25.733981,166.49849 24.889946,168.644 C 24.10957,170.62947 23.891152,176.07436 24.833969,179.99446 C 26.767896,188.02067 32.902243,198.72878 43.261156,205.71143 C 52.350175,211.84085 57.233286,211.30447 67.879763,211.19525 C 78.289165,211.09359 90.0229,210.51937 94.207953,210.68807 C 110.0712,211.32177 107.59727,210.85677 97.714705,213.21856 C 89.509235,215.17375 81.453473,217.82212 73.414834,220.34071 C 59.70283,224.63607 49.906973,227.28444 38.913661,223.66064 C 27.217902,219.80758 21.030872,218.10977 27.213512,230.26696 C 31.273442,238.25964 36.122528,243.70021 43.886774,248.70172 C 51.677361,253.72054 61.10553,255.52 71.806887,254.59864 C 85.58255,253.41666 99.880221,248.42272 113.65588,245.4575 C 121.29171,243.81484 132.74271,238.26397 119.97133,246.41671 C 110.10962,252.7105 89.311671,265.83555 74.465213,273.40973 C 67.480246,276.97513 60.689549,280.17718 53.336895,278.65132 C 50.370149,278.03924 47.784263,277.52016 47.458283,278.41989 C 45.559478,283.69176 54.682521,291.45519 66.28828,295.78082 C 76.235602,299.49005 85.659381,302.10057 95.87956,298.17181 C 98.499472,297.16718 101.42341,295.90842 104.49333,294.49286 C 116.16823,289.128 126.19568,282.7996 136.20337,274.85017 C 141.34331,270.76569 148.55877,265.72525 141.89649,275.89372 C 138.68938,280.79358 133.48906,291.78934 128.97913,300.3303 C 126.61605,304.79976 123.13015,308.72852 119.42254,312.04844 C 117.30861,313.9409 115.38786,315.49597 113.54393,316.55142 C 106.52604,320.56453 106.16164,321.70541 115.07944,323.11665 C 119.38742,323.79685 125.17164,323.28102 129.60914,321.92061 C 133.14662,320.83488 136.04861,318.76074 138.00339,317.66743 C 145.08165,313.6965 134.37261,326.2549 133.95224,326.8248 C 132.53308,328.75619 130.71988,330.77518 128.72998,331.64896 C 126.74886,332.51517 124.80725,332.9845 123.06649,333.25485 C 121.68135,333.46572 120.42573,333.5544 119.38303,333.62253 C 111.36634,334.11241 121.93489,339.75087 124.46371,340.61275 C 125.69848,341.03558 126.64239,341.66063 126.93764,342.82207 C 127.5424,345.22171 119.84621,351.57931 115.53384,357.181 C 111.57159,362.32201 108.60045,363.8468 101.80537,360.20137 C 96.14188,357.1637 90.28083,353.41662 84.283022,351.09376 C 75.72962,347.79005 67.335366,349.31917 62.24152,354.60833 C 59.896003,357.04583 58.24964,360.29005 57.610852,364.22205 C 57.3628,365.75981 57.336458,368.01995 57.790854,369.71019 C 58.773183,373.34264 61.02431,373.14042 62.721161,372.20176 C 65.298267,370.77863 66.181815,367.9356 69.560151,368.88184 C 73.552031,369.99677 77.401226,370.21197 80.574316,368.86886 C 81.881528,368.31626 87.503307,370.00542 89.320452,370.45312 C 92.861229,371.32798 95.14638,372.57376 88.938496,373.78602 C 85.599014,374.43703 80.698342,375.83096 76.552801,377.36007 C 73.037268,378.65668 69.88613,380.37612 67.695371,382.87634 C 62.473109,388.82841 62.541158,400.61467 69.650152,404.76728 C 71.352491,405.76001 74.499238,407.44917 76.428775,407.9769 C 79.258323,408.74578 79.832355,406.24124 79.231981,403.06406 C 78.799537,400.77039 79.357105,398.50701 82.589463,397.17147 C 83.751795,396.69457 84.59144,395.21628 85.65499,393.91859 C 89.066912,389.75842 90.139243,390.04932 94.902718,387.63345 C 99.05704,385.52579 103.68771,383.3208 99.576193,389.18311 C 97.873854,391.61628 94.529543,395.80673 93.092817,399.71927 C 90.829617,405.90276 90.105218,409.26161 91.236818,413.00004 C 92.732813,417.95938 97.118722,422.46236 101.72415,424.08014 C 106.61604,425.79526 109.93401,424.48567 114.25626,421.62967 C 120.37414,417.58305 114.78748,418.05238 111.85037,415.7241 C 110.23804,414.45345 109.44998,413.06276 109.13278,410.27056 C 108.43801,404.15412 112.35197,395.62506 113.95113,391.2194 C 116.4547,384.3211 116.93105,385.07376 120.33573,389.26421 C 122.61649,392.0683 126.20446,395.63803 129.13279,399.34726 C 130.56073,401.1597 130.9383,403.33874 131.82514,405.14685 C 132.90186,407.33562 133.26626,408.80958 132.28832,410.38087 C 130.13597,413.83597 125.82799,416.16856 131.7999,419.01483 C 137.85741,421.90435 146.69838,418.68608 148.80353,412.47231 C 152.65382,401.10888 151.47503,396.22524 141.68246,387.82378 C 137.39533,384.14807 132.40905,380.9417 129.28755,378.69021 C 124.71725,375.38759 128.45998,371.56048 129.99878,369.38036 C 136.03544,360.83832 146.38557,352.91809 152.15662,347.537 C 164.04555,336.44825 160.55087,339.61245 167.66426,354.43098 C 168.12743,355.39343 169.16903,357.60708 171.05576,360.29005 C 174.42971,365.08826 172.61981,367.4241 169.52026,369.23654 C 164.0236,372.43859 157.71255,374.99828 151.46625,376.18999 C 147.88596,376.8702 145.88837,378.25115 152.87224,382.01554 C 163.4364,387.70915 169.06147,388.77758 181.992,389.30206 C 189.0538,389.58539 196.19682,386.62774 188.39745,396.21659 C 178.30964,408.63223 166.3779,423.17176 152.10064,430.83029 C 135.76544,439.59186 126.54361,432.83306 137.12862,441.44972 C 140.97892,444.58472 144.25847,447.04709 149.10756,448.75787 C 154.42421,450.62979 160.43563,451.62252 165.54594,452.34058 C 175.99814,453.81021 181.74395,453.09648 188.11098,444.7491 C 190.1854,442.02935 193.82606,434.28972 194.8457,442.21428 C 195.44169,446.85676 196.83561,454.2882 199.5532,461.9251 C 202.9919,471.59072 207.9738,481.34394 215.35718,487.66369 C 221.34226,492.78308 223.15984,493.45896 228.37772,487.04296 C 232.31801,482.18852 236.09477,474.65327 238.99785,467.04448 C 242.40582,458.1153 244.65256,448.15877 244.83695,442.48138 C 245.1333,433.17479 248.88481,439.75191 253.80194,445.56448 C 257.0343,449.39591 265.15965,455.428 274.7766,452.28975 C 283.35525,449.49323 290.93071,445.76778 299.11094,442.03692 C 304.89077,439.40153 308.11544,437.04406 300.1229,434.22267 C 296.08492,432.79846 292.68025,432.11068 288.76629,430.18469 C 279.26459,425.49895 268.18676,417.73985 260.37422,409.40111 C 258.57859,407.47837 251.48277,398.98391 250.5608,396.72377 C 247.62808,389.50861 248.76846,390.85172 255.56465,389.92712 C 261.54973,389.11174 270.6135,388.0725 278.86617,385.44468 C 288.97593,382.23074 294.29258,376.54902 293.20818,374.46623 C 292.48707,373.08094 289.9835,373.37617 286.61395,373.12744 C 281.36974,372.73814 277.27578,371.69133 272.35755,369.73507 C 266.58759,367.44573 264.1433,368.1043 267.96725,360.89347 C 270.00874,357.05015 273.29268,350.6839 275.02465,346.59942 C 277.04858,341.83366 277.50298,338.37423 282.36085,343.25355 C 288.03311,348.94716 300.20522,360.67827 306.60189,366.98505 C 310.22388,370.5591 312.39379,375.0783 308.11874,379.18874 C 301.3456,385.69881 292.96781,387.98383 288.13958,396.05654 C 284.92039,401.43762 285.43515,406.55809 288.28995,411.01025 C 290.28753,414.1193 292.1567,416.51894 296.98493,418.49143 C 301.54646,420.35902 306.80274,420.26602 310.35779,417.58737 C 312.45416,416.09611 303.2016,410.67609 305.0576,403.84159 C 306.1903,399.67709 307.79385,398.32533 310.82426,395.29631 C 313.85137,392.27161 318.26362,387.48962 319.86718,387.66265 C 322.88551,389.64811 327.30983,397.94468 328.85302,402.87914 C 329.76621,405.80651 329.85621,409.07993 329.46218,411.85483 C 328.52704,418.42762 324.82273,423.45076 326.82141,423.42157 C 337.51399,423.92767 346.89935,420.62072 347.45582,409.78501 C 347.9662,399.85012 344.24103,393.73692 337.1452,386.90674 C 335.35725,385.18731 334.25529,384.04318 335.01371,383.56519 C 335.72165,383.12182 341.92514,383.97505 347.79936,386.98677 C 350.28537,388.26283 357.60071,394.3198 358.81353,396.93464 C 360.13391,399.77766 361.02953,402.12648 361.21063,404.0276 C 361.77588,410.08132 361.65625,409.07128 367.09254,406.26611 C 372.0448,403.71507 374.50556,396.40691 373.72518,391.0799 C 372.05248,379.67861 366.23972,377.89645 355.30239,374.95178 C 349.01658,373.26262 343.85029,374.00555 344.98189,371.96169 C 345.34299,371.30635 346.95862,370.5126 349.33816,369.85294 C 352.03491,369.11001 355.72276,368.54444 359.6883,368.55201 C 363.34542,368.55633 367.6545,369.03864 370.8649,369.43552 C 375.56033,370.01407 378.00792,372.51861 378.19231,372.40074 C 380.26783,371.07818 381.96578,360.91943 377.57109,355.11551 C 373.81079,350.15617 364.97861,348.60544 359.13951,349.65765 C 353.53529,350.66227 347.63144,353.25657 343.80748,355.38911 C 333.90406,360.90213 327.46349,363.20877 319.27559,352.61422 C 314.81175,346.83517 310.74304,344.87133 315.79847,341.74931 C 318.48204,340.09367 321.1228,340.6852 323.41674,339.24909 C 332.93491,333.28837 316.58653,330.45833 313.32014,328.75944 C 309.18668,326.61392 306.0059,323.01067 304.10161,320.02815 C 303.22355,318.65152 310.11303,322.70247 317.47446,323.6022 C 321.85159,324.12993 333.72406,320.77216 332.24892,315.75767 C 332.20173,315.41162 327.29227,314.75628 321.2172,309.7883 C 310.8506,301.31546 307.54031,290.96963 300.19644,281.14396 C 296.71493,276.48525 293.2422,272.58137 302.91403,278.85029 C 317.90691,288.56566 335.41762,301.99459 354.32445,301.45821 C 365.05544,301.15433 394.14557,290.15425 390.22283,275.69042 C 389.78161,274.05533 383.72738,277.00001 375.6196,276.40415 C 356.27155,274.99399 337.2824,257.27296 321.08439,248.13182 C 312.30379,243.17681 312.5694,242.42415 322.14355,245.3061 C 336.26166,249.55063 349.54451,253.47938 364.14665,255.8109 C 377.24511,257.90234 385.42972,257.58549 393.72629,249.14077 C 396.59426,246.21773 406.3956,236.05033 409.01441,228.42532 C 413.37069,215.74473 402.42018,223.06046 397.98708,225.12594 C 390.09442,228.79732 378.05512,225.46443 370.08123,223.74931 C 358.57316,221.26964 346.84338,217.80157 336.61727,214.88285 C 328.80144,212.6519 325.08395,211.81165 338.8212,211.8668 C 347.84217,211.90032 361.7243,211.73595 373.75921,211.31745 C 395.84791,210.55289 405.94011,201.6648 412.61995,180.78389 C 414.97864,173.40869 415.39901,167.09327 412.05909,166.14271 C 410.84956,165.80098 406.33523,173.07561 397.36146,176.57721 C 390.81443,179.12826 379.98465,178.03495 375.31557,178.009 C 367.7445,177.97115 359.51708,178.1312 353.04248,178.17013 C 330.22499,178.30098 345.59104,175.86781 357.00802,173.34164 C 368.75207,170.74302 383.2686,168.60616 394.07313,162.31128 C 400.5554,158.53933 405.52083,152.81111 408.62917,145.49971 C 409.01881,144.58268 410.87151,140.55659 411.83957,135.14955 C 413.45191,126.13494 413.68789,114.33245 408.51282,114.40058 C 406.90049,114.4168 404.2213,118.95871 403.60008,120.21315 C 402.23579,122.97506 399.95503,126.46909 396.04547,128.47186 C 381.7726,135.77893 358.35913,140.70475 351.44331,142.24251 C 345.86983,143.47964 339.4556,145.35588 348.10339,140.36302 C 361.15905,132.81804 375.09715,124.52148 386.71169,115.10566 C 394.56155,108.74373 399.20539,104.14775 400.99334,92.801618 C 402.34774,84.179984 402.3697,73.354009 400.56858,66.210228 C 399.561,62.227402 394.38154,56.22018 393.15116,63.768408 C 392.72311,66.400555 391.74517,70.138983 388.77842,73.835235 C 383.903,79.91383 373.02603,87.158182 366.31216,92.024085 C 359.8211,96.726047 353.1709,100.86568 348.29218,103.66652 C 337.94643,109.60562 340.4039,107.55743 346.48666,100.87 C 356.30118,90.081877 370.67722,75.68985 375.90277,67.144564 C 383.11055,55.353973 383.53421,48.206947 382.38176,35.3901 C 381.61785,26.886988 379.5555,15.722532 370.9549,17.428994 C 369.34366,17.745847 370.51368,20.985745 370.07684,23.895814 C 369.66525,26.641509 368.39975,29.793813 366.33741,32.424879 C 360.87587,39.403205 316.70287,83.956133 314.16418,80.864387 C 311.59585,77.738037 295.53175,63.139029 300.19644,75.634698 C 302.76476,82.528674 300.30729,89.949945 295.40662,95.128808 C 286.85761,104.1564 279.63776,100.19845 280.27216,117.85135 C 280.44009,122.53169 279.55654,135.66106 283.98965,136.97065 C 292.50463,139.47951 292.51341,146.68169 292.53866,153.42427 C 292.56939,160.84597 293.88977,164.60603 278.57531,165.39978 C 266.60845,166.02051 272.02827,159.43906 268.21201,153.01874 C 266.2704,149.74856 264.5933,146.19181 264.88087,144.05928 C 265.32209,140.7426 272.27633,144.29935 272.55072,141.41848 C 272.76145,139.18861 266.68199,138.55058 263.3245,134.82405 C 261.61778,132.92834 260.25898,130.6974 259.59494,128.50971 C 257.99907,123.27137 256.46027,123.24974 263.84366,123.7991 C 266.30442,123.98077 268.90238,123.52874 268.6664,122.59549 C 268.32835,118.46884 263.56487,118.44721 262.19729,117.09112 C 255.00269,109.97762 252.67034,87.530186 253.04791,77.248159 C 253.21474,72.736525 253.71633,71.402067 257.44699,69.762653 C 263.24328,67.215937 269.82434,60.051609 272.04913,54.141714 C 273.25427,50.943991 259.32384,56.38888 262.08095,52.904584 C 265.30563,48.82335 273.16426,42.558753 270.05154,36.57316 C 269.19434,34.92185 267.63358,36.083282 264.63611,37.169016 C 251.17874,42.073201 237.83552,36.721313 224.52303,34.11512 C 215.73914,32.400006 199.53235,30.743289 192.54848,36.564509 C 188.42379,40.007712 184.77106,44.477171 184.50106,49.106679 C 183.99508,57.90177 182.21591,53.888665 174.30898,54.90627 C 163.49677,56.295879 158.27011,67.262438 162.17638,76.82641 C 162.68676,78.080843 166.17595,77.231938 167.12425,75.186995 C 169.0955,70.932736 184.47472,71.338264 182.78555,79.098448 L 182.77677,79.102774 z M 198.49514,300.90561 C 202.73946,312.40747 190.00979,349.48029 179.84405,357.99638 C 176.03766,361.18113 178.45562,342.03696 184.02032,325.89587 C 188.56099,312.72432 197.08366,302.39255 198.49514,300.90994 L 198.49514,300.90561 z M 260.40935,360.81778 C 252.49473,350.2654 236.55794,324.44246 240.99983,303.76918 C 247.40089,310.20247 266.18039,347.05037 260.40935,360.81778"
     style="fill:#e72726;fill-rule:evenodd;stroke:none;fill-opacity:1" />
  <path
     style="fill:#000000;fill-rule:evenodd;stroke:none"
     d="M 63.591538,26.257609 C 64.081056,28.551275 64.814236,31.326168 66.091814,33.565764 C 67.823787,36.598032 72.184452,40.054212 74.696802,42.631208 C 86.765736,55.007922 99.228261,66.31188 111.37512,76.889132 C 114.50431,80.85141 120.90098,85.562024 119.58498,90.600952 C 119.02303,92.755117 118.69705,94.867107 118.74424,96.801746 C 118.83095,100.63317 119.73096,103.64922 114.63273,100.87 C 111.14793,98.968888 91.519992,74.072064 91.425601,77.04161 C 91.391576,78.211694 94.036732,81.954447 97.727876,86.322254 C 103.87649,93.599697 112.4727,102.59377 113.71954,104.12288 C 119.36218,111.04605 115.07505,109.46179 108.99119,109.34824 C 102.33659,109.22604 99.348995,106.50089 100.1162,106.53009 C 93.333186,99.141913 79.867477,84.60714 68.770994,72.221775 C 59.295629,61.640197 55.527654,56.494858 56.556082,41.955328 C 57.075235,34.625544 57.426459,30.558369 60.573206,25.16755 C 63.098727,20.846243 62.601525,21.636753 63.587147,26.244632 L 63.591538,26.257609 z "
     id="path3232" />
  <path
     style="fill:#000000;fill-rule:evenodd;stroke:none"
     d="M 313.251,174.88697 C 311.95256,174.9843 311.26219,175.42335 311.08658,175.96081 C 310.88462,176.56424 310.50706,178.04252 313.07538,178.72273 C 315.39017,179.33589 318.89802,179.87659 321.8944,181.2489 C 322.11282,181.34622 322.40038,181.3711 322.70112,181.46842 C 327.18142,182.97266 337.89485,190.03966 337.27801,196.18206 C 329.71462,207.83207 310.5806,205.92338 304.59552,202.83056 C 298.89252,199.88696 296.69737,201.66047 298.6741,204.4278 C 299.75412,205.94393 306.22871,206.97451 311.42902,210.73024 C 313.25539,212.0528 316.38128,214.7812 318.73448,219.09385 C 328.81461,237.55781 297.8597,233.61716 289.91106,226.11435 C 288.78715,225.05457 287.64238,224.22189 286.75554,223.56331 C 284.38038,221.79737 281.46413,224.22621 283.43208,226.42796 C 288.98471,232.62875 293.7866,232.81043 295.90821,242.55608 C 297.38774,249.35273 296.67652,255.43132 296.05858,255.7525 C 288.76629,259.55798 276.28906,250.38764 272.18633,244.67672 C 270.02191,241.65635 267.93761,243.95758 268.60274,246.61893 C 269.37873,249.74528 275.21344,252.4488 265.42965,251.07541 C 263.90732,250.86454 262.35096,251.08839 260.86374,251.13056 C 254.21353,251.32522 252.79437,253.95736 257.72468,247.74251 C 267.852,236.74351 270.7935,216.29733 271.13156,197.53815 C 271.25668,190.66472 273.31024,183.07864 272.71426,177.72134 C 273.39585,163.97665 276.72699,170.85765 286.63919,168.15413 C 286.93554,168.0741 287.20993,167.93893 287.50518,167.9 C 296.94213,166.68017 297.8169,159.99707 296.83018,150.7878 C 296.67213,146.83417 296.19578,140.86155 293.75258,137.6714 C 288.46995,130.77742 283.99404,138.86744 284.58124,123.85857 C 285.11686,110.12145 282.86683,108.33388 292.60781,102.42074 C 295.31662,100.777 297.21652,99.340892 299.09447,97.515475 C 302.28403,94.419404 304.02039,92.451242 304.50442,87.859583 C 305.01479,83.006657 304.27722,77.358463 304.24759,77.159484 C 309.60705,78.448522 314.51211,87.724407 314.32333,93.304472 C 314.42979,100.28712 315.67334,108.63019 307.19348,117.8427 C 306.41749,118.68836 300.71888,123.63905 304.29039,124.27275 C 306.31871,124.63178 307.78507,123.30489 309.20863,121.86446 C 311.3478,119.70164 313.53856,117.9065 316.69409,116.52555 C 325.06749,112.87147 336.46361,110.13767 335.46043,117.00245 C 334.39249,124.32358 332.26539,130.28754 327.75984,135.2339 C 325.87311,138.00988 323.00075,140.39655 320.37316,142.75402 C 319.04729,143.94465 313.12697,147.5771 315.27492,149.54201 C 316.71165,150.85592 321.92952,150.18004 325.17505,150.53042 C 335.2925,151.62913 343.71309,155.93314 343.83383,160.90112 C 343.98749,167.6264 327.48984,176.28523 320.99,175.01458 C 318.50728,174.52795 315.5581,174.6934 313.24661,174.86643 L 313.251,174.88697 z "
     id="path3230" />
  <path
     style="fill:#000000;fill-rule:evenodd;stroke:none"
     d="M 352.59247,160.70214 C 358.20877,158.4885 365.96533,157.00589 370.76283,155.27456 C 376.70949,153.12796 376.37034,151.65833 369.92648,153.45347 C 364.96214,154.83442 359.64549,156.21646 355.01482,156.76582 C 348.95621,157.48387 346.74459,156.64254 344.39908,155.0626 C 340.78915,152.63376 331.72099,149.89239 340.54878,147.91558 C 356.03118,144.4475 372.43883,141.24545 387.58646,136.46779 C 392.76591,134.83703 397.28463,132.36601 400.89455,129.95015 C 406.63048,126.11439 406.46804,121.52706 408.20879,119.51997 C 408.79161,122.71769 409.12637,126.03437 408.90356,129.45162 C 408.36355,137.79035 403.24007,149.70639 397.41744,155.47678 C 392.58152,160.26742 382.88335,162.96661 372.77359,165.69501 C 362.34662,168.51315 351.45648,171.30535 343.85468,172.46678 C 339.16913,173.18051 338.01119,172.21373 342.27746,168.63103 C 345.38909,166.01618 348.95292,162.15123 352.59686,160.71512 L 352.59247,160.70214 z "
     id="path3228" />
  <path
     style="fill:#000000;fill-rule:evenodd;stroke:none"
     d="M 369.30086,69.463103 C 363.98421,76.031575 353.67688,87.943933 348.30535,93.781373 C 345.71068,96.599523 342.96674,99.632872 340.29195,102.60999 C 333.86126,109.76242 331.37854,109.34392 323.90077,111.54458 C 319.9484,112.70601 316.56128,114.0621 315.99493,112.22046 C 315.2409,109.76242 317.83886,107.4136 319.2668,105.87151 C 325.02907,99.649093 338.01997,86.579629 343.05784,80.800584 C 347.06618,76.201356 343.40467,78.143565 340.75952,80.611338 C 335.78202,85.240846 327.5074,94.478882 321.81757,99.053237 C 317.30324,102.68244 317.44812,99.404695 317.38446,96.400544 C 317.35044,94.749234 317.36251,93.07197 317.5469,91.38281 C 318.47765,82.980703 318.38326,84.797468 324.53187,78.980575 C 331.5794,72.319101 341.99868,63.236356 351.73527,54.196866 C 363.65384,43.129737 373.45957,32.597904 373.43323,22.860906 C 373.42445,19.959489 376.63595,25.019397 377.66548,29.295284 C 378.8311,34.144318 379.53026,42.407356 378.88708,47.965793 C 378.38549,52.321705 377.66987,55.371275 376.64473,57.95584 C 375.15313,61.745094 371.91199,66.240507 369.30525,69.463103 L 369.30086,69.463103 z "
     id="path3226" />
  <path
     style="fill:#000000;fill-rule:evenodd;stroke:none"
     d="M 396.02352,65.500824 C 397.01902,67.503592 397.46463,69.750757 397.61829,71.971969 C 398.47221,84.34544 398.75538,100.591 388.94087,108.12301 C 387.15292,109.49207 384.88972,111.12283 382.09419,113.22617 C 368.25048,123.65527 353.24004,132.37899 338.85523,142.02298 C 336.16287,143.8311 334.50773,145.66408 329.94182,145.67274 C 321.9844,145.68463 323.39478,146.41134 328.69827,139.63632 C 329.44901,138.67711 333.62089,133.09704 340.65196,127.97333 C 348.70816,122.10129 359.20317,115.82371 364.81617,111.82358 C 367.9717,109.57642 371.0921,106.97455 364.97861,110.48048 C 359.98354,113.33972 355.64044,115.65069 349.41939,119.33396 C 337.79716,126.20739 338.10119,128.73789 339.11755,119.63459 C 339.58072,115.48631 339.69158,113.90205 345.50982,110.07927 C 358.25596,101.69836 384.14337,86.829434 392.41798,74.896097 C 394.75033,71.532918 394.55277,69.531232 396.01913,65.50515 L 396.02352,65.500824 z "
     id="path3224" />
  <path
     style="fill:#000000;fill-rule:evenodd;stroke:none"
     d="M 131.77026,84.062111 C 131.59794,91.648837 135.98385,93.266623 141.72966,97.820432 C 153.14663,106.8729 150.55745,113.20887 150.99868,125.21899 C 151.29063,133.16409 151.23027,134.1406 139.83415,141.18597 C 136.45581,143.27309 137.11655,149.00131 137.58741,154.8647 C 138.50937,166.40549 143.38919,169.67026 154.34738,169.74272 C 160.82527,169.78489 168.79147,166.05836 167.70706,175.45363 C 166.65668,184.57747 166.90913,201.84215 168.22512,215.76528 C 169.69148,231.20129 173.36616,239.70873 179.63002,248.98505 C 180.96796,250.96619 187.19341,253.96926 178.21086,254.00711 C 175.79729,254.01576 173.50336,254.01576 170.79344,253.99521 C 160.20404,253.89356 169.13062,249.81665 169.76502,245.61863 C 170.37746,241.55037 166.23192,245.31367 164.57239,247.43431 C 158.61804,255.05932 144.42201,259.54175 135.47787,255.84983 C 133.04345,254.9036 134.70628,243.09678 141.81088,234.63477 C 144.94116,230.90499 149.66074,228.22742 151.90308,225.83643 C 155.23093,222.28725 151.82625,221.11284 148.38755,223.87584 C 145.94874,225.83643 140.66172,229.24503 137.99132,231.45867 C 134.02907,234.74074 114.54712,233.33816 112.45514,228.42965 C 109.01644,220.34828 124.49444,210.20251 129.43353,208.1792 C 134.97299,205.91473 140.4905,203.35936 138.58291,200.19084 C 138.00778,199.23163 134.77542,199.33761 131.26428,201.26792 C 122.36734,206.17211 115.12224,206.79283 101.0206,201.90163 C 88.407708,197.52517 94.821498,190.38247 102.00183,185.05113 C 106.95409,181.37975 114.53065,179.99014 120.00536,179.10338 C 121.33013,178.89143 128.12961,179.52513 126.32958,176.23873 C 126.04641,175.84186 124.57127,174.99728 121.81416,174.95078 C 117.223,174.8794 109.83084,175.50878 104.09052,173.07994 C 96.236272,169.75461 91.146817,160.65997 91.900851,159.80241 C 91.061206,158.62368 94.898328,155.69198 99.846196,152.76461 C 104.12893,150.23087 110.30279,148.22378 117.68618,148.84018 C 122.09733,149.20786 124.32212,145.44023 118.78376,144.42263 C 110.53438,142.90541 96.94311,118.69593 103.12575,113.31052 C 107.54129,109.46611 120.07341,113.62737 123.50333,116.95595 C 127.2252,120.56785 130.64196,122.54899 131.58587,119.7276 C 132.10832,118.15523 130.42354,117.06192 128.25363,115.27003 C 118.52583,107.26112 119.66621,90.892933 127.28557,81.582442 C 132.21149,75.559 131.92831,76.969156 131.77026,84.062111 z "
     id="path3222" />
  <path
     style="fill:#000000;fill-rule:evenodd;stroke:none"
     d="M 102.65818,143.19307 C 87.11257,133.76427 64.75826,122.37596 50.515029,110.61565 C 45.100692,105.27133 42.446755,102.46292 41.207593,99.125692 C 37.074126,87.986108 37.811696,78.553418 38.848905,68.6315 C 39.428424,63.067656 40.397583,68.082145 41.121982,69.598279 C 42.733222,72.982004 46.574735,78.499348 55.849244,85.338172 C 68.458185,94.634604 81.457864,103.3075 95.575532,110.19715 C 99.113016,111.92091 101.11938,126.99682 96.61713,123.87912 C 91.678043,120.45755 82.379827,115.75667 77.058783,113.52572 C 71.591762,111.23638 71.703715,111.76411 76.398043,114.43843 C 82.692635,118.0287 95.15077,124.61448 101.20499,130.53302 C 102.61538,131.90966 108.93082,139.95749 109.35559,141.24113 C 112.27075,150.08704 104.87528,144.53185 102.66257,143.18874 L 102.65818,143.19307 z "
     id="path3220" />
  <path
     style="fill:#000000;fill-rule:evenodd;stroke:none"
     d="M 96.13749,150.66127 C 90.798885,156.80367 89.779238,157.84723 81.25591,156.35164 C 75.754864,155.39243 70.477723,153.74869 65.057898,152.98846 C 58.442813,152.06386 63.321534,153.81249 65.709857,154.6614 C 71.01773,156.54954 75.365225,157.27192 81.055054,158.54365 C 88.124534,160.11927 89.255695,163.35916 92.158781,167.07272 C 94.01917,169.45074 97.235065,171.98123 99.571802,175.19193 C 87.232206,172.50896 60.187958,165.72528 50.798204,163.45217 C 30.189038,158.4593 25.879958,138.55491 28.041083,120.79603 C 28.555846,116.56772 29.168293,118.60293 30.77624,121.04475 C 34.5058,126.71349 34.039331,130.41407 39.385619,133.02459 C 52.431395,139.39516 71.964937,141.22058 92.95562,146.80064 C 97.813487,148.0886 99.241432,147.07532 96.1331,150.65262 L 96.13749,150.66127 z "
     id="path3218" />
  <path
     style="fill:#000000;fill-rule:evenodd;stroke:none"
     d="M 97.033111,186.12388 C 93.024767,190.50467 92.570371,193.49476 85.886579,194.17929 C 79.447106,194.83463 70.68297,194.47992 68.183792,194.5221 C 60.590768,194.65295 62.344693,195.27368 68.646968,195.60351 C 75.142417,195.94091 77.839159,195.48888 84.368632,195.77221 C 90.654005,196.04256 88.364903,196.43943 92.849155,199.65446 C 94.945524,201.15762 97.615924,202.75486 99.520216,204.22882 C 105.41968,208.79128 97.92983,207.27514 94.259539,207.33786 C 82.589463,207.53684 71.141756,207.67202 59.351606,207.28704 C 41.592842,206.70416 29.104634,188.49325 26.959972,172.38243 C 32.379797,177.44775 36.354117,179.83874 44.761541,180.86067 C 58.537205,181.6036 81.18786,181.56142 97.320676,181.59495 C 102.35855,181.6036 99.940588,182.93049 97.037502,186.10658 L 97.033111,186.12388 z "
     id="path3216" />
  <path
     style="fill:#000000;fill-rule:evenodd;stroke:none"
     d="M 110.5728,220.66189 C 108.47643,224.39599 108.55765,226.87566 103.73051,228.69567 C 95.275894,231.88907 78.829171,235.1506 80.000284,235.9995 C 81.127494,236.81921 97.007867,232.94993 106.55128,231.88907 C 113.70747,231.09964 119.31059,235.03597 126.07604,236.3542 C 131.65392,237.43994 131.59794,237.72327 124.79408,239.34538 C 111.38281,242.53445 91.884387,247.70034 79.640279,249.93993 C 56.088515,254.23529 42.930786,249.12023 30.261478,227.81324 C 26.428746,221.36697 33.129441,228.08792 45.615454,229.0547 C 56.106076,229.86576 71.240538,225.3963 83.978993,220.90629 C 89.273256,219.04302 102.56818,215.82043 110.7528,213.15043 C 120.56292,209.95271 114.07516,214.43515 110.58158,220.65757 L 110.5728,220.66189 z "
     id="path3214" />
  <path
     style="fill:#000000;fill-rule:evenodd;stroke:none"
     d="M 101.29939,276.7675 C 101.96342,276.44632 119.64096,267.36033 128.61803,262.24095 C 134.44944,258.91562 133.53626,259.16975 139.57731,259.72668 C 144.50323,260.18303 149.55427,259.97215 149.15146,260.94758 C 147.98035,263.77439 144.17286,265.29052 139.91976,268.29791 C 125.0553,278.80812 99.203017,299.54087 80.535901,296.42317 C 71.296514,294.88109 60.663208,290.61926 53.336895,284.58716 C 46.351927,278.84164 53.156892,281.83714 55.548508,282.18752 C 63.29629,283.32408 75.416811,277.21953 87.879775,269.87785 C 105.07614,259.75263 123.07527,246.94443 129.56633,244.88759 C 134.04224,243.46771 130.72318,257.27729 127.38765,259.4109 C 119.10534,264.70331 101.13585,276.84861 101.29939,276.7675 z "
     id="path3212" />
  <path
     style="fill:#000000;fill-rule:evenodd;stroke:none"
     d="M 187.53146,269.3923 C 188.79697,274.35596 191.54529,281.92582 194.49448,287.34584 C 199.21954,296.0263 199.16795,292.7226 192.9469,300.78233 C 186.29669,309.39574 179.1888,323.43783 176.27254,333.58792 C 174.53288,339.66219 174.76337,345.27686 174.32654,351.45711 C 173.1686,367.7961 162.802,330.31883 162.50675,327.78401 C 162.16321,324.83176 163.66799,321.99307 165.39118,318.67206 C 170.21063,309.37952 173.4858,299.20239 178.6444,290.06558 C 180.84723,286.16278 178.86721,282.7066 175.87412,287.93304 C 163.90836,308.79232 158.66853,342.48467 125.71604,336.92082 C 119.4434,335.86537 129.72877,335.90322 132.50674,333.76527 C 136.96618,330.3318 140.77367,322.38562 144.03127,317.73448 C 147.29875,313.0628 150.71111,307.92611 153.11261,302.05407 C 156.57656,293.5888 161.78126,286.58885 164.62837,281.77767 C 165.4263,280.43456 166.51949,279.21797 166.93547,278.25876 C 167.78828,276.3079 166.20229,274.08128 163.7536,275.92725 C 162.56602,276.82265 161.79882,279.52617 160.4016,281.84147 C 151.16551,297.12825 146.75875,315.00609 126.58203,318.93809 C 120.21938,320.1763 116.62702,320.90301 113.76674,320.066 C 146.03874,305.8098 136.34825,252.80783 180.43235,256.54625 C 188.76184,257.25133 185.97071,263.28018 187.53146,269.39663 L 187.53146,269.3923 z "
     id="path3210" />
  <path
     style="fill:#000000;fill-rule:evenodd;stroke:none"
     d="M 152.01503,434.33622 C 186.7434,417.24997 213.86448,369.71019 212.5869,331.50621 C 212.26532,321.89141 217.56111,336.84945 222.79984,329.9598 C 226.07171,325.65471 226.07939,328.89894 226.36696,335.11271 C 227.28453,355.12308 231.41361,370.20007 237.47991,381.70193 C 248.7992,403.15274 268.76079,428.42308 293.43867,435.71826 C 299.27887,437.44094 296.32858,439.46534 286.98273,443.27081 C 276.25943,447.63429 267.68956,453.48038 257.38662,443.93804 C 239.95384,427.78937 225.64256,403.28359 222.003,379.87759 C 221.32031,372.67109 217.68514,373.19449 216.69513,381.3894 C 215.00596,395.45636 200.9559,419.78371 190.19857,435.31273 C 181.97554,447.18226 178.12085,449.92796 168.97586,449.18936 C 162.36078,448.6573 150.6727,447.19524 145.50641,443.52062 C 139.86817,439.51076 138.92535,438.61102 146.30874,437.43337 C 148.03193,437.16302 149.67391,435.48143 152.00625,434.33189 L 152.01503,434.33622 z "
     id="path3208" />
  <path
     style="fill:#000000;fill-rule:evenodd;stroke:none"
     d="M 202.90629,394.84428 C 205.13986,396.42422 218.43149,365.79009 219.77712,361.70021 C 221.06787,366.36864 232.6868,394.18895 234.82597,393.06536 C 234.92475,393.31517 225.00816,368.34978 222.53862,355.83357 C 222.05788,353.39607 218.02758,352.19138 217.37672,356.43699 C 216.45476,362.45287 207.35696,384.51143 203.41228,391.88338 C 202.48153,393.61904 202.8119,394.83995 202.91068,394.83563 L 202.90629,394.84428 z "
     id="path3206" />
  <path
     style="fill:#000000;fill-rule:evenodd;stroke:none"
     d="M 265.3649,354.25796 C 263.52646,334.67798 256.01026,317.16458 244.6789,301.13703 C 239.41822,293.69046 238.95944,294.80106 244.26292,287.57293 C 249.17567,280.86928 251.9668,267.05213 252.02717,262.38802 C 252.15558,252.91813 252.54632,256.0142 262.96011,254.83114 C 276.01467,253.34853 285.79955,266.4314 292.37622,275.99862 C 302.32683,290.48408 308.29984,307.41461 323.36954,317.95833 C 293.58904,328.17223 275.73698,266.80233 266.80162,272.8474 C 264.5033,274.40246 269.23714,278.47829 270.49716,280.42591 C 273.90623,285.69777 280.0285,293.67315 286.08601,302.25304 C 292.29829,311.05138 300.42364,327.17625 310.56303,332.18966 C 312.96014,333.37705 323.87113,335.13866 316.70287,336.80295 C 298.99569,340.91338 281.41693,327.75481 273.98306,312.7081 C 272.53426,309.7764 259.01982,284.86941 254.78427,285.95947 C 251.68033,286.75431 263.65926,303.89138 271.0207,314.92174 C 274.89185,320.72566 275.83137,322.63434 274.90063,330.175 C 273.9611,337.80866 272.40474,348.43674 265.36051,354.25363 L 265.3649,354.25796 z "
     id="path3204" />
  <path
     style="fill:#000000;fill-rule:evenodd;stroke:none"
     d="M 411.14152,171.61355 C 410.63553,174.5831 409.39198,177.90302 408.1616,181.09317 C 402.5497,195.65325 395.65034,203.90331 380.40502,205.66493 C 370.38965,206.82311 354.98958,207.46871 335.5153,208.27977 C 316.30335,209.08218 331.40379,206.27376 339.36999,200.22869 C 341.37197,198.71255 343.38711,197.35214 346.78301,196.94662 C 352.63967,196.24911 360.27989,196.60813 365.14983,196.34643 C 371.24247,196.02093 371.14808,195.24015 365.19703,194.63565 C 359.65427,194.0744 349.5489,194.43775 344.00505,193.85379 C 338.54681,193.28389 336.90044,188.23155 333.07649,184.70075 C 328.43265,180.41297 330.5378,180.62384 334.24651,180.9872 C 343.37504,181.87395 352.82845,182.03941 362.00308,182.30111 C 369.69489,182.52063 377.26267,182.55848 383.56494,182.17891 C 390.99882,181.72255 397.74781,181.76473 404.31131,177.51479 C 407.08927,175.71966 408.48319,172.69496 411.12834,171.63085 L 411.14152,171.61355 z "
     id="path3202" />
  <path
     style="fill:#000000;fill-rule:evenodd;stroke:none"
     d="M 356.60082,250.16811 C 341.34672,246.63191 326.12226,242.43712 310.90219,238.75385 C 300.72767,236.29148 307.03872,235.94002 313.50454,235.2263 C 321.91196,234.29737 325.7875,232.13455 335.16847,233.86588 C 339.89792,234.73642 345.90385,236.4007 351.95369,237.26691 C 359.33707,238.32345 357.18473,236.95439 353.3509,235.9238 C 345.29909,233.76531 337.83119,231.74632 330.98013,229.58675 C 325.36713,227.82189 324.24431,223.04423 321.65842,218.62993 C 317.91569,212.23015 321.57281,213.62409 326.19909,215.34353 C 335.76006,218.89163 346.09264,221.44267 356.42521,224.02832 C 365.30898,226.24953 374.27397,228.1766 382.89103,229.80303 C 385.44728,230.28426 388.21647,230.50379 390.95162,230.36429 C 393.68678,230.22911 396.38791,229.73058 398.80587,228.78002 C 409.24161,224.67824 409.86394,222.13153 396.2595,239.93691 C 384.03251,255.93418 371.75284,253.68701 356.59314,250.17244 L 356.60082,250.16811 z "
     id="path3200" />
  <path
     style="fill:#000000;fill-rule:evenodd;stroke:none"
     d="M 303.3388,273.84446 C 297.32409,269.15115 293.07098,266.68013 288.73117,263.40238 C 277.32737,254.78031 286.49322,258.99672 292.58585,259.16542 C 296.26932,259.26708 299.45448,259.14055 302.16439,260.69454 C 304.92479,262.2788 307.5919,264.08259 310.38742,265.68307 C 316.37689,269.10897 323.04795,273.01718 327.68301,275.57687 C 334.82164,279.52185 335.03127,278.60914 328.38107,274.09426 C 322.44758,270.05953 311.76817,263.65976 305.43077,258.62472 C 300.47961,254.69164 300.29083,252.757 299.81887,247.11313 C 298.89252,236.09683 298.89691,239.77578 306.0059,244.16521 C 315.49334,250.01131 336.39007,263.24558 350.6805,271.93902 C 358.09352,276.45065 367.30656,280.37075 376.10473,280.40968 C 379.35904,280.42158 382.76262,279.21797 385.21131,279.20932 C 386.83572,280.81089 380.92418,287.97089 371.02844,292.27922 C 362.1743,296.13552 350.39293,298.02474 341.11952,295.35907 C 331.02732,292.45657 311.13707,279.94035 303.33441,273.85311 L 303.3388,273.84446 z "
     id="path3198" />
  <path
     style="fill:#000000;fill-rule:evenodd;stroke:none"
     d="M 212.47605,478.38737 C 202.22031,463.52234 193.58569,440.71112 202.75593,423.78816 C 207.34818,415.31858 212.20605,406.60459 215.95317,397.6408 C 218.1999,392.26728 218.46552,393.14971 218.46991,398.98823 C 218.4743,408.88961 218.52918,418.07292 218.52918,428.30845 C 218.71028,433.64412 221.02067,433.91014 220.84067,428.57448 C 220.84067,418.69365 221.54751,409.22376 221.25226,399.32131 C 221.07226,393.15836 221.49263,396.20902 223.42985,399.95501 C 227.51612,407.86768 231.54642,415.62353 236.43392,423.30694 C 239.85067,428.67613 240.39507,433.15424 240.70019,437.56422 C 241.53984,449.80143 234.24316,472.88301 226.67538,482.99525 C 220.72103,490.94576 216.86196,484.74497 212.46288,478.37872 L 212.47605,478.38737 z "
     id="path3196" />
  <path
     style="fill:#000000;fill-rule:evenodd;stroke:none"
     d="M 236.24513,311.87974 C 237.55235,329.60077 246.09806,355.43993 260.49057,367.20025 C 267.39761,372.84411 277.65335,375.99534 286.21443,376.95455 C 285.79077,382.25993 254.79305,386.76292 250.71556,386.07839 C 239.85067,387.46908 233.57803,360.78425 231.99203,353.85243 C 229.76725,344.11543 231.12604,346.33232 235.18597,354.51533 C 236.43392,357.03285 242.16216,363.22932 245.43293,366.11884 C 250.84398,370.8965 244.00499,362.54587 240.4258,357.93691 C 231.00641,345.82189 226.20452,333.27972 230.95921,318.35521 C 232.99082,311.97274 235.02353,307.63846 236.24074,311.87974 L 236.24513,311.87974 z "
     id="path3194" />
  <path
     style="fill:#000000;fill-rule:evenodd;stroke:none"
     d="M 203.45508,312.44532 C 216.67757,324.24888 205.87304,348.17071 197.89038,358.96749 C 197.21317,359.88452 184.96314,376.15214 193.15653,368.44278 C 197.69281,364.17555 201.1359,358.49059 204.17948,353.15492 C 207.22415,347.81925 208.53576,343.41792 206.7522,352.94837 C 204.93022,362.69294 202.20714,372.81924 197.77842,381.3602 C 194.78643,387.13492 193.36288,386.32819 186.97829,386.04486 C 177.35804,385.61879 170.39502,386.23952 160.63209,382.43296 C 152.42662,379.23091 156.3285,379.95762 162.41565,377.49958 C 182.18957,369.26574 200.40712,340.24615 201.9975,319.32307 C 202.1775,316.95262 201.84274,314.45673 203.45069,312.44964 L 203.45508,312.44532 z "
     id="path3192" />
  <path
     style="fill:#000000;fill-rule:evenodd;stroke:none"
     d="M 227.83332,317.05428 C 226.06732,320.80568 223.6318,325.56604 221.27311,326.72855 C 216.23195,329.20714 206.21219,309.29842 204.84461,305.70814 C 201.59469,297.16286 202.35312,295.56129 208.98137,289.17882 C 212.21044,285.6729 214.52083,281.79497 216.18476,277.38931 C 217.42831,275.02319 217.3855,280.93741 217.4316,282.27619 C 217.64234,288.23259 216.71159,305.28531 219.25467,303.25767 C 221.25226,301.66584 220.17225,285.36794 220.29188,282.6017 C 220.68152,273.61195 220.40713,275.3952 222.94143,280.70491 C 224.48462,283.93616 226.82575,287.97089 231.77361,290.76308 C 240.13384,295.08872 230.38847,311.81269 227.82015,317.04995 L 227.83332,317.05428 z "
     id="path3190" />
  <path
     style="fill:#000000;fill-rule:evenodd;stroke:none"
     d="M 248.16809,264.74549 C 247.32845,269.8227 241.84496,297.28506 232.60558,287.82706 C 225.90378,280.96228 216.60074,269.81946 224.96536,261.09141 C 230.28201,255.54487 232.99521,251.41822 235.22878,245.03142 C 236.02233,242.7583 237.04746,239.46325 236.89709,244.70159 C 236.84112,246.81358 236.43392,265.77175 237.97272,265.77175 C 239.94067,266.0886 239.85067,253.43721 239.83859,246.38751 C 239.82981,241.36004 239.83859,243.10111 242.70217,246.34858 C 249.39079,253.93574 249.76397,255.10149 248.16041,264.74116 L 248.16809,264.74549 z "
     id="path3188" />
  <path
     style="fill:#000000;fill-rule:evenodd;stroke:none"
     d="M 201.98872,291.14266 C 196.8828,291.39246 184.89948,257.04911 190.96138,253.04466 C 192.50567,252.02597 194.10484,250.90671 195.37364,249.4414 C 199.06917,245.1666 197.6072,249.07805 197.66757,252.39365 C 197.68403,253.57238 197.47439,259.21192 198.24599,263.19908 C 199.42918,269.32093 200.61236,268.71642 200.73749,264.67844 C 200.93395,258.13052 200.89993,251.76859 200.72431,245.23365 C 200.64309,242.2468 200.86151,238.77872 202.71312,243.87756 C 204.55705,248.95153 208.48417,255.4443 211.37847,258.33707 C 215.98719,262.93738 217.70599,262.69298 215.73475,268.95757 C 213.01606,277.59154 205.92023,290.94476 201.97994,291.13833 L 201.98872,291.14266 z "
     id="path3186" />
  <path
     style="fill:#000000;fill-rule:evenodd;stroke:none"
     d="M 206.93659,223.58061 C 210.26773,220.75057 213.25204,215.52088 215.06084,210.44691 C 217.29111,204.19097 217.26477,204.44402 217.32953,209.24331 C 217.4316,217.13001 217.15721,238.85983 218.07917,238.86415 C 219.80346,240.57818 220.40713,238.55487 220.37749,234.82942 C 220.3303,228.84383 220.5103,217.06621 220.33908,209.68236 C 220.17993,202.88138 219.91871,203.77246 222.49142,209.90188 C 224.60535,214.93367 226.67538,218.29577 230.72323,222.0515 C 239.80786,230.48648 227.32734,264.12476 217.12757,259.10162 C 210.12614,253.33988 198.39636,230.83794 206.92781,223.58494 L 206.93659,223.58061 z "
     id="path3184" />
  <path
     style="fill:#000000;fill-rule:evenodd;stroke:none"
     d="M 199.45113,229.51105 C 198.22843,233.91671 192.17969,256.91393 185.24192,250.18866 C 172.9842,236.46018 168.6411,217.33224 171.0854,199.49333 C 171.80541,194.21714 174.27056,191.91915 178.69928,189.07613 C 183.16311,186.21256 180.94162,190.21269 180.15356,192.70101 C 177.1945,202.0368 178.78599,211.6808 179.26124,215.62578 C 179.94722,221.29127 180.79674,219.03978 181.12162,216.21731 C 181.87676,209.68236 179.91759,203.03386 182.082,196.49026 C 185.18265,187.13824 185.78632,196.37563 186.01022,198.0994 C 187.00463,205.82173 191.74615,214.50652 196.63365,220.80031 C 199.0088,223.03558 200.36431,224.82207 199.44235,229.50673 L 199.45113,229.51105 z "
     id="path3182" />
  <path
     style="fill:#000000;fill-rule:evenodd;stroke:none"
     d="M 241.43776,222.14775 C 248.40846,213.31913 252.70876,199.71718 251.95912,188.45107 C 251.85594,186.87114 251.85594,185.92923 253.75914,187.03227 C 256.96625,188.88256 256.36149,212.14148 255.85112,215.54575 C 255.38465,218.67967 256.66661,222.47325 258.23066,217.26086 C 259.86495,211.81598 258.63018,199.43493 258.50066,193.58344 C 258.34261,186.41154 258.06822,187.87252 262.69011,190.70689 C 264.5933,191.86832 266.60406,192.62531 266.64247,196.27939 C 266.81479,213.36996 266.58759,229.1769 255.85112,243.75969 C 252.45193,248.37622 251.27203,251.75237 246.27368,245.74948 C 243.26413,242.13325 241.21386,237.48644 239.66628,233.19 C 236.54587,224.51819 237.50186,226.82051 241.42459,222.15207 L 241.43776,222.14775 z "
     id="path3180" />
  <path
     style="fill:#000000;fill-rule:evenodd;stroke:none"
     d="M 247.9837,198.36975 C 246.63368,203.96712 241.82301,220.84249 235.90598,221.92065 C 229.90883,223.00963 217.30318,192.65451 224.45498,186.41154 C 228.98248,182.46115 232.19398,173.04101 232.97436,164.91855 C 233.08522,157.60175 237.42393,165.61931 237.35149,167.9465 C 237.31307,169.21823 237.3899,176.96544 237.0771,183.14136 C 236.72148,190.13266 235.97952,195.55701 236.41197,195.61973 C 240.45104,196.22423 240.09543,175.88403 240.00104,171.46972 C 239.82981,163.33862 246.56453,175.01025 247.42284,176.56856 C 250.54763,182.26758 249.45445,192.29115 247.98809,198.3611 L 247.9837,198.36975 z "
     id="path3178" />
  <path
     style="fill:#000000;fill-rule:evenodd;stroke:none"
     d="M 196.00803,214.93367 C 190.82419,205.54273 182.59677,187.94065 190.84614,178.22852 C 192.74055,175.99866 193.79971,174.45657 195.36486,171.94338 C 197.89038,167.88378 197.78281,168.65266 197.91123,172.99018 L 198.39636,189.34324 C 198.52477,193.82026 200.62114,201.2171 200.98554,192.65883 C 200.98554,182.0978 201.14908,172.21806 200.88676,167.31279 C 200.74078,164.6017 203.60984,159.34173 204.22668,165.35761 C 206.47341,175.33468 209.98455,180.93637 213.75802,185.2912 C 217.16599,189.22428 215.35718,196.20693 213.54399,203.21986 C 211.5025,211.08927 205.29023,231.74632 196.00803,214.92935 L 196.00803,214.93367 z "
     id="path3176" />
  <path
     style="fill:#000000;fill-rule:evenodd;stroke:none"
     d="M 174.31337,188.1937 C 172.18736,189.74011 171.14577,190.43654 171.05576,187.48862 C 170.53222,170.76897 173.7569,161.71218 183.50995,147.18887 C 185.47351,144.27015 187.39427,140.27002 190.73419,141.03025 C 193.9413,141.76128 195.40766,140.67555 192.51775,143.73377 C 191.02175,145.32236 180.62003,160.90112 181.11833,161.8852 C 179.38526,165.44196 181.4048,164.76175 182.42554,163.34727 C 184.69752,160.18739 194.82485,140.8821 199.06917,141.32548 C 202.80751,141.71478 202.59348,143.71214 202.32348,146.66979 C 200.76712,163.78632 187.79708,178.38533 174.30568,188.18937 L 174.31337,188.1937 z "
     id="path3174" />
  <path
     style="fill:#000000;fill-rule:evenodd;stroke:none"
     d="M 229.77932,163.81984 C 228.45125,169.15119 225.10694,190.59334 215.90597,182.93481 C 207.2494,175.72831 205.77865,157.69907 205.99706,146.89797 C 206.05304,143.9998 205.80938,141.17408 208.89137,139.85584 C 210.30175,139.25134 217.12318,136.23529 217.24392,138.82526 L 217.73673,164.40705 C 217.89917,173.01181 218.94955,169.10901 218.98467,165.28515 L 219.22394,138.23806 C 219.14272,137.69303 219.56309,135.48371 221.33348,134.66833 C 223.15984,133.82375 226.24293,139.84287 227.77734,141.05512 C 232.18081,144.53185 230.95482,159.06706 229.76725,163.81984 L 229.77932,163.81984 z "
     id="path3172" />
  <path
     style="fill:#000000;fill-rule:evenodd;stroke:none"
     d="M 268.74323,185.97573 C 267.94639,194.50047 256.28027,181.53655 254.18829,179.47539 L 254.18829,179.47539 L 252.54193,177.85328 L 252.54193,177.85328 C 247.34052,172.73281 233.35522,151.13493 233.42876,144.03332 C 233.454,141.1784 236.39989,137.62922 237.3899,135.43721 C 241.81862,125.64506 256.03112,155.38378 257.75102,159.65102 C 259.95495,165.11645 260.85057,163.01744 259.96702,160.65132 C 258.83981,157.61905 256.39551,153.93902 254.87866,150.34442 C 251.4696,142.28901 247.13966,137.38483 252.45632,140.36735 C 256.18588,142.46204 258.31298,141.60015 260.76496,145.79494 C 267.83005,157.87643 270.0252,172.23428 268.73994,185.97573 L 268.74323,185.97573 z "
     id="path3170" />
  <path
     style="fill:#000000;fill-rule:evenodd;stroke:none"
     d="M 189.08782,137.78603 C 197.22525,133.44309 209.39735,118.19416 208.23612,110.6708 C 207.99136,109.07356 207.64343,107.27843 208.02099,105.78284 C 208.87052,102.39479 212.53203,100.08057 213.07203,96.603848 C 214.30241,88.712814 213.27728,80.429661 208.49295,76.926981 C 204.04228,72.449952 200.79675,73.928236 198.99673,64.977422 C 197.49964,57.529766 196.73682,57.314565 200.47516,58.358124 C 200.44114,68.466045 214.4012,69.948655 216.72037,61.319019 C 217.24721,57.082063 216.49756,57.516789 221.0075,58.4468 C 224.4934,59.160529 228.01771,60.279786 231.418,61.648849 C 250.94715,69.513929 248.98359,71.41937 249.00883,78.9849 C 249.04286,89.696895 250.74081,113.6025 259.28982,117.79188 C 259.9758,119.75247 253.7295,118.14766 249.5664,116.77427 C 238.89907,113.24239 241.02617,93.96305 232.52765,85.249497 C 230.02847,82.685478 227.06172,85.054843 230.07566,87.724407 C 236.84112,93.730547 239.8342,111.28721 238.66748,119.7741 C 238.28553,122.56954 234.1312,143.9241 229.13724,138.24238 C 221.26982,129.29481 221.79227,121.93691 221.29946,110.80165 C 221.1447,107.2276 218.54235,107.73046 218.4743,110.90222 C 218.37552,115.41818 218.61149,118.96628 219.17675,123.19567 C 220.16786,130.59142 220.34347,131.32245 217.31636,132.97484 C 207.62696,138.24671 200.43675,138.96909 189.08782,137.7817 L 189.08782,137.78603 z "
     id="path3168" />
  <path
     style="fill:#000000;fill-rule:evenodd;stroke:none"
     d="M 248.01443,134.14493 C 244.39573,131.53441 242.74497,130.36757 242.28619,126.98384 C 241.98655,124.75831 239.85067,112.69844 245.3561,117.68265 C 248.92322,120.90525 255.06745,120.5592 255.47904,125.60721 C 255.91148,130.96342 257.29223,134.01732 261.2446,137.6887 C 263.18731,139.49249 262.00851,140.18567 258.83542,139.34866 C 253.52755,137.95473 250.86922,136.20176 248.01882,134.14493 L 248.01443,134.14493 z "
     id="path3166" />
  <path
     style="fill:#ffffff;fill-rule:evenodd;stroke:none"
     d="M 208.75856,63.726233 C 201.65067,63.726233 200.19199,54.090888 205.5262,55.515102 C 206.07499,55.657848 205.75779,59.743408 206.29341,59.776931 C 209.9637,60.000783 207.33062,55.831955 208.18014,55.810327 C 220.79786,55.477253 208.58295,64.761141 208.74978,63.730559 L 208.75856,63.726233 z "
     id="path3164" />
  <path
     style="fill:#000000;fill-rule:evenodd;stroke:none"
     d="M 236.75551,60.038632 C 228.76406,55.713 217.3855,52.313053 209.62894,51.61122 C 207.52818,51.421973 197.38439,53.495032 197.13085,55.979026 C 197.03646,56.920933 192.70214,58.657674 194.37484,53.55451 C 195.84889,49.051527 206.98817,47.099585 210.70566,47.061736 C 229.29968,46.875734 248.35687,57.268065 255.30672,57.622767 C 257.27906,57.720093 269.53239,54.57644 262.41571,61.217367 C 252.40034,70.573709 246.96844,63.076307 236.7599,60.034306 L 236.75551,60.038632 z "
     id="path3162" />
  <path
     style="fill:#000000;fill-rule:evenodd;stroke:none"
     d="M 190.68699,54.234715 C 190.71333,58.712826 187.90464,54.374217 188.08464,51.552824 C 188.65538,42.516578 196.68524,37.730266 206.81256,36.754836 C 214.04558,36.061654 221.25226,37.193888 228.2965,38.73165 C 236.5327,40.531113 247.04966,42.922106 256.37027,42.922106 C 260.69581,42.922106 268.78714,40.155865 264.38366,45.419077 C 259.68495,51.041318 255.38026,55.096598 247.61491,52.680732 C 242.48375,51.083492 236.37794,48.692499 230.08445,47.083364 C 218.99235,44.248994 208.88259,41.933699 198.13843,46.935211 C 194.08289,48.819024 190.67492,51.590673 190.69138,54.234715"
     id="path20" />
  <path
     id="path24"
     d="M 208.90015,87.13331 C 209.52138,90.955654 210.21175,105.37731 202.63629,100.11842 C 196.73682,96.025295 190.62772,93.971701 183.28275,93.840851 C 178.93526,93.769478 177.36243,92.68807 176.67206,91.68236 C 175.55253,90.042946 175.23533,88.923689 178.38647,89.404915 C 183.70312,90.215971 190.73858,90.254902 195.67327,91.103807 C 197.68403,91.445532 204.39461,95.374287 202.4047,89.77692 C 201.74835,87.922305 200.56956,84.877492 196.28682,83.251055 C 192.78007,81.920923 186.31425,82.82498 187.09463,76.437103 C 187.97379,69.205728 172.23895,66.85691 168.3711,70.438533 C 162.3948,75.980749 166.25387,64.926596 166.90913,62.996283 C 168.34585,58.759326 174.26617,58.407869 179.75405,58.628476 C 185.30668,58.848002 193.63727,57.547068 195.64364,64.018214 C 197.35037,69.518255 192.89092,73.024179 200.90871,75.212949 C 204.48022,76.184054 208.38539,83.995064 208.90015,87.141961 L 208.90015,87.13331 z M 106.02774,405.13388 C 105.48334,408.42893 105.23968,411.26762 104.58333,412.26468 C 102.37062,415.63975 94.619544,413.69322 94.370394,409.21078 C 94.194782,405.98711 96.767498,402.29518 98.469837,398.56973 C 100.32584,394.50147 104.20137,388.1655 106.52604,383.55654 C 109.20522,378.23061 106.24286,378.90216 101.70659,381.44023 C 99.477411,382.68709 95.425164,384.02587 91.583652,385.43279 C 83.160202,388.51588 85.084251,390.30669 80.235165,394.45173 C 76.672437,397.49697 69.384539,394.06675 69.157341,389.61892 C 68.604163,378.88486 91.279623,377.26275 98.024222,375.53466 C 102.11818,374.49218 111.15561,374.19587 101.03816,371.0068 C 91.776825,368.08376 85.736211,364.85575 75.871207,365.63761 C 70.837728,366.03449 69.812593,364.9401 69.487711,361.87756 C 68.784165,355.24636 69.671006,352.58502 77.830378,352.75372 C 88.115754,352.96459 107.05726,375.21024 115.63152,362.49071 C 117.25703,360.07809 126.02885,351.09808 129.24035,346.69134 C 132.19393,342.63282 134.82262,340.49055 138.8573,339.61245 C 147.3679,337.75783 150.03391,335.14299 154.23982,331.79279 C 156.79936,329.75217 158.84854,324.57331 160.19087,330.10363 C 161.67918,336.23305 155.77972,340.0807 151.40588,343.3379 C 146.54472,346.9617 134.12346,358.40516 128.24156,365.47324 C 126.81361,367.18835 124.21565,370.3904 123.19052,372.36289 C 118.10106,382.15396 146.90472,389.55079 146.52716,401.54793 C 146.27362,409.56549 136.11337,410.23704 134.82701,401.70041 C 134.17944,397.25582 123.8765,387.57397 119.74413,383.7512 C 118.35021,382.46324 117.9046,381.10283 116.5919,381.17853 C 115.28908,381.25422 113.94674,382.81794 112.69112,385.06078 C 109.52681,390.696 107.1297,398.61623 106.04091,405.15118 L 106.02774,405.13388 z M 145.68642,410.28787 C 145.40324,417.87935 128.224,418.94778 134.54383,413.65862 C 135.29019,413.03789 136.26703,412.11328 136.85862,410.47819 L 145.68203,410.29219 L 145.68642,410.28787 z M 106.98482,415.23423 C 107.61483,416.70494 111.02719,419.03213 111.49476,419.28086 C 113.57357,420.37957 100.75499,425.00475 98.40069,416.77199 L 106.98043,415.23423 L 106.98482,415.23423 z M 75.450836,399.16559 C 74.92839,402.07565 78.061967,406.48239 73.238124,403.5972 C 70.35699,401.87776 66.14779,398.05498 68.179401,394.79778 L 75.455226,399.16126 L 75.450836,399.16559 z M 66.62743,366.07234 C 64.003128,366.50382 62.760673,368.08808 61.045164,369.18571 C 60.707111,366.9472 58.919161,360.00239 66.14779,356.89335 L 66.62743,366.07234 z M 286.96956,332.45569 C 292.07109,336.61695 296.06736,337.69835 301.69243,340.60518 C 303.62197,341.60116 305.24638,342.77989 306.61835,343.96728 C 312.22696,348.81631 315.72493,356.11581 320.89561,360.66962 C 326.97946,366.02584 331.22379,366.5925 334.55163,364.86008 C 338.0068,363.06062 342.77906,360.64475 347.73022,358.73498 C 351.18209,357.40918 360.3227,353.30307 363.18188,353.38742 C 366.79619,353.48907 368.68292,356.30614 368.70049,359.34814 C 368.72134,364.34533 367.30217,365.74359 362.68468,365.44296 C 358.24718,365.15639 356.03557,364.3702 351.59368,365.56191 C 347.32741,366.71037 342.95028,368.77153 338.76083,370.33525 C 337.38118,370.85 336.27483,371.38638 336.08165,371.92708 C 335.23323,374.3224 341.97234,375.29459 349.78817,377.0562 C 356.46801,378.55936 364.44738,380.19877 368.1045,384.70608 C 369.31293,386.19734 369.6005,387.43447 369.69489,388.79488 C 369.95172,392.59279 367.45693,393.68717 364.3958,394.00727 C 356.44716,394.83563 356.90594,388.5959 354.76567,387.19007 C 351.40051,384.97643 347.09143,383.95774 343.31467,382.53461 C 339.80353,381.21205 336.51849,379.71754 332.85369,378.59721 C 330.22938,377.7948 328.43704,377.3644 327.89265,377.97648 C 325.72713,380.40532 333.7537,387.54045 339.63999,395.91271 C 340.63439,397.32827 341.88234,398.79358 342.73186,400.33134 C 344.21029,403.01324 344.71628,409.05074 341.09757,410.03049 C 337.54801,410.9897 332.10733,411.0016 332.51014,405.75136 C 332.72088,402.96349 331.95258,399.96799 331.56733,399.00446 C 330.31938,395.89973 328.42387,393.24704 326.71824,390.64517 C 326.13872,389.76274 323.90955,385.95619 322.14794,383.37054 C 319.73437,379.83109 319.18888,382.04041 316.26933,385.06943 C 311.90537,389.61026 306.07834,394.03322 302.26317,399.81227 C 299.83204,403.49554 303.30916,408.45921 296.58651,409.41301 C 292.68903,409.96236 289.67069,408.1164 289.42594,403.92594 C 289.14276,399.09746 291.64304,395.84134 295.24857,392.82096 C 303.77563,385.67718 318.2285,381.38508 314.20698,370.45745 C 312.98538,367.12887 309.49509,364.00252 304.9676,359.48656 C 295.84016,350.3757 284.0116,338.83059 279.97252,335.92052 C 276.7226,333.5836 277.78176,332.65467 279.06812,330.67353 C 281.5673,326.8248 282.47609,328.78539 286.98273,332.45136 L 286.96956,332.45569 z M 372.22919,356.74952 C 379.38428,358.32081 376.68315,367.5171 376.7479,368.57796 C 375.38911,368.70448 376.65351,365.79009 371.96248,365.87011 C 372.03163,361.48068 372.22041,358.48626 372.2248,356.74952 L 372.22919,356.74952 z M 370.74527,394.91133 C 370.48843,397.6873 369.61367,399.71494 368.47768,401.13807 C 367.34498,402.55796 365.94777,403.37334 364.64385,403.72372 C 365.09934,403.38957 362.7626,404.06112 363.18627,403.63937 C 364.81617,401.99563 363.28944,397.34449 364.0314,397.1001 L 370.74966,394.91565 L 370.74527,394.91133 z M 343.40467,413.47694 C 342.01075,417.83718 337.07606,420.41309 332.54417,419.94917 C 330.65415,419.60636 334.19931,417.53654 333.23015,413.36772 C 339.25913,413.29094 337.34606,413.38394 343.40467,413.47261 L 343.40467,413.47694 z M 302.60123,410.61337 C 302.76476,411.96946 303.86234,414.09442 305.09711,415.08283 C 306.57994,416.26913 307.80593,416.39998 304.106,416.68764 C 300.95925,416.93312 295.81492,416.37944 294.34856,412.51016 L 302.60123,410.60904 L 302.60123,410.61337 z M 198.22404,88.416508 C 199.36113,91.145982 197.11878,89.008038 195.40766,88.47166 C 184.14435,84.93697 161.60564,91.378485 154.77982,81.442941 C 167.80584,84.480616 188.56099,78.39337 198.22843,88.413264"
     style="fill:#ffc905;fill-rule:evenodd;stroke:none" />
  <path
     id="path26"
     d="M 208.90015,87.13331 C 209.52138,90.955654 210.21175,105.37731 202.63629,100.11842 C 196.73682,96.025295 190.62772,93.971701 183.28275,93.840851 C 178.93526,93.769478 177.36243,92.68807 176.67206,91.68236 C 175.55253,90.042946 175.23533,88.923689 178.38647,89.404915 C 183.70312,90.215971 190.73858,90.254902 195.67327,91.103807 C 197.68403,91.445532 204.39461,95.374287 202.4047,89.77692 C 201.74835,87.922305 200.56956,84.877492 196.28682,83.251055 C 192.78007,81.920923 186.31425,82.82498 187.09463,76.437103 C 187.97379,69.205728 172.23895,66.85691 168.3711,70.438533 C 162.3948,75.980749 166.25387,64.926596 166.90913,62.996283 C 168.34585,58.759326 174.26617,58.407869 179.75405,58.628476 C 185.30668,58.848002 193.63727,57.547068 195.64364,64.018214 C 197.35037,69.518255 192.89092,73.024179 200.90871,75.212949 C 204.48022,76.184054 208.38539,83.995064 208.90015,87.141961 L 208.90015,87.13331 z M 106.02774,405.13388 C 105.48334,408.42893 105.23968,411.26762 104.58333,412.26468 C 102.37062,415.63975 94.619544,413.69322 94.370394,409.21078 C 94.194782,405.98711 96.767498,402.29518 98.469837,398.56973 C 100.32584,394.50147 104.20137,388.1655 106.52604,383.55654 C 109.20522,378.23061 106.24286,378.90216 101.70659,381.44023 C 99.477411,382.68709 95.425164,384.02587 91.583652,385.43279 C 83.160202,388.51588 85.084251,390.30669 80.235165,394.45173 C 76.672437,397.49697 69.384539,394.06675 69.157341,389.61892 C 68.604163,378.88486 91.279623,377.26275 98.024222,375.53466 C 102.11818,374.49218 111.15561,374.19587 101.03816,371.0068 C 91.776825,368.08376 85.736211,364.85575 75.871207,365.63761 C 70.837728,366.03449 69.812593,364.9401 69.487711,361.87756 C 68.784165,355.24636 69.671006,352.58502 77.830378,352.75372 C 88.115754,352.96459 107.05726,375.21024 115.63152,362.49071 C 117.25703,360.07809 126.02885,351.09808 129.24035,346.69134 C 132.19393,342.63282 134.82262,340.49055 138.8573,339.61245 C 147.3679,337.75783 150.03391,335.14299 154.23982,331.79279 C 156.79936,329.75217 158.84854,324.57331 160.19087,330.10363 C 161.67918,336.23305 155.77972,340.0807 151.40588,343.3379 C 146.54472,346.9617 134.12346,358.40516 128.24156,365.47324 C 126.81361,367.18835 124.21565,370.3904 123.19052,372.36289 C 118.10106,382.15396 146.90472,389.55079 146.52716,401.54793 C 146.27362,409.56549 136.11337,410.23704 134.82701,401.70041 C 134.17944,397.25582 123.8765,387.57397 119.74413,383.7512 C 118.35021,382.46324 117.9046,381.10283 116.5919,381.17853 C 115.28908,381.25422 113.94674,382.81794 112.69112,385.06078 C 109.52681,390.696 107.1297,398.61623 106.04091,405.15118 L 106.02774,405.13388 z M 145.68642,410.28787 C 145.40324,417.87935 128.224,418.94778 134.54383,413.65862 C 135.29019,413.03789 136.26703,412.11328 136.85862,410.47819 L 145.68203,410.29219 L 145.68642,410.28787 z M 106.98482,415.23423 C 107.61483,416.70494 111.02719,419.03213 111.49476,419.28086 C 113.57357,420.37957 100.75499,425.00475 98.40069,416.77199 L 106.98043,415.23423 L 106.98482,415.23423 z M 75.450836,399.16559 C 74.92839,402.07565 78.061967,406.48239 73.238124,403.5972 C 70.35699,401.87776 66.14779,398.05498 68.179401,394.79778 L 75.455226,399.16126 L 75.450836,399.16559 z M 66.62743,366.07234 C 64.003128,366.50382 62.760673,368.08808 61.045164,369.18571 C 60.707111,366.9472 58.919161,360.00239 66.14779,356.89335 L 66.62743,366.07234 z M 286.96956,332.45569 C 292.07109,336.61695 296.06736,337.69835 301.69243,340.60518 C 303.62197,341.60116 305.24638,342.77989 306.61835,343.96728 C 312.22696,348.81631 315.72493,356.11581 320.89561,360.66962 C 326.97946,366.02584 331.22379,366.5925 334.55163,364.86008 C 338.0068,363.06062 342.77906,360.64475 347.73022,358.73498 C 351.18209,357.40918 360.3227,353.30307 363.18188,353.38742 C 366.79619,353.48907 368.68292,356.30614 368.70049,359.34814 C 368.72134,364.34533 367.30217,365.74359 362.68468,365.44296 C 358.24718,365.15639 356.03557,364.3702 351.59368,365.56191 C 347.32741,366.71037 342.95028,368.77153 338.76083,370.33525 C 337.38118,370.85 336.27483,371.38638 336.08165,371.92708 C 335.23323,374.3224 341.97234,375.29459 349.78817,377.0562 C 356.46801,378.55936 364.44738,380.19877 368.1045,384.70608 C 369.31293,386.19734 369.6005,387.43447 369.69489,388.79488 C 369.95172,392.59279 367.45693,393.68717 364.3958,394.00727 C 356.44716,394.83563 356.90594,388.5959 354.76567,387.19007 C 351.40051,384.97643 347.09143,383.95774 343.31467,382.53461 C 339.80353,381.21205 336.51849,379.71754 332.85369,378.59721 C 330.22938,377.7948 328.43704,377.3644 327.89265,377.97648 C 325.72713,380.40532 333.7537,387.54045 339.63999,395.91271 C 340.63439,397.32827 341.88234,398.79358 342.73186,400.33134 C 344.21029,403.01324 344.71628,409.05074 341.09757,410.03049 C 337.54801,410.9897 332.10733,411.0016 332.51014,405.75136 C 332.72088,402.96349 331.95258,399.96799 331.56733,399.00446 C 330.31938,395.89973 328.42387,393.24704 326.71824,390.64517 C 326.13872,389.76274 323.90955,385.95619 322.14794,383.37054 C 319.73437,379.83109 319.18888,382.04041 316.26933,385.06943 C 311.90537,389.61026 306.07834,394.03322 302.26317,399.81227 C 299.83204,403.49554 303.30916,408.45921 296.58651,409.41301 C 292.68903,409.96236 289.67069,408.1164 289.42594,403.92594 C 289.14276,399.09746 291.64304,395.84134 295.24857,392.82096 C 303.77563,385.67718 318.2285,381.38508 314.20698,370.45745 C 312.98538,367.12887 309.49509,364.00252 304.9676,359.48656 C 295.84016,350.3757 284.0116,338.83059 279.97252,335.92052 C 276.7226,333.5836 277.78176,332.65467 279.06812,330.67353 C 281.5673,326.8248 282.47609,328.78539 286.98273,332.45136 L 286.96956,332.45569 z M 372.22919,356.74952 C 379.38428,358.32081 376.68315,367.5171 376.7479,368.57796 C 375.38911,368.70448 376.65351,365.79009 371.96248,365.87011 C 372.03163,361.48068 372.22041,358.48626 372.2248,356.74952 L 372.22919,356.74952 z M 370.74527,394.91133 C 370.48843,397.6873 369.61367,399.71494 368.47768,401.13807 C 367.34498,402.55796 365.94777,403.37334 364.64385,403.72372 C 365.09934,403.38957 362.7626,404.06112 363.18627,403.63937 C 364.81617,401.99563 363.28944,397.34449 364.0314,397.1001 L 370.74966,394.91565 L 370.74527,394.91133 z M 343.40467,413.47694 C 342.01075,417.83718 337.07606,420.41309 332.54417,419.94917 C 330.65415,419.60636 334.19931,417.53654 333.23015,413.36772 C 339.25913,413.29094 337.34606,413.38394 343.40467,413.47261 L 343.40467,413.47694 z M 302.60123,410.61337 C 302.76476,411.96946 303.86234,414.09442 305.09711,415.08283 C 306.57994,416.26913 307.80593,416.39998 304.106,416.68764 C 300.95925,416.93312 295.81492,416.37944 294.34856,412.51016 L 302.60123,410.60904 L 302.60123,410.61337 z M 198.22404,88.416508 C 199.36113,91.145982 197.11878,89.008038 195.40766,88.47166 C 184.14435,84.93697 161.60564,91.378485 154.77982,81.442941 C 167.80584,84.480616 188.56099,78.39337 198.22843,88.413264 L 198.22404,88.416508 z "
     style="fill:#ffcc00;stroke:#ffc905;stroke-width:0.2353237" />
  <path
     style="font-size:144px;font-style:normal;font-weight:bold;fill:#ffcc00;fill-opacity:1;stroke:none;stroke-width:1px;stroke-linecap:butt;stroke-linejoin:miter;stroke-opacity:1;font-family:Times New Roman"
     d="M 217.3788,214.93082 L 217.3788,241.36832 C 217.37876,246.52458 217.69517,249.77067 218.32802,251.1066 C 218.96079,252.44254 220.08579,253.50895 221.70302,254.30582 C 223.32016,255.10269 226.285,255.50113 230.59755,255.50113 L 230.59755,258.10269 L 182.15224,258.10269 L 182.15224,255.50113 C 186.55848,255.50113 189.54676,255.09098 191.11708,254.27066 C 192.68738,253.45035 193.78894,252.38395 194.42177,251.07144 C 195.05456,249.75895 195.37097,246.52458 195.37099,241.36832 L 195.37099,179.49332 C 195.37097,174.33715 195.05456,171.09106 194.42177,169.75504 C 193.78894,168.41919 192.67566,167.35278 191.08192,166.55582 C 189.48816,165.75903 186.5116,165.3606 182.15224,165.3605 L 182.15224,162.75894 L 223.70692,162.75894 C 237.39437,162.75904 247.21467,165.19653 253.16786,170.07144 C 259.12091,174.94652 262.09747,181.04027 262.09755,188.35269 C 262.09747,194.54026 260.17559,199.83712 256.33192,204.24332 C 252.4881,208.64962 247.19123,211.64961 240.4413,213.24332 C 235.89437,214.36836 228.20687,214.93086 217.3788,214.93082 L 217.3788,214.93082 z M 217.3788,168.24332 L 217.3788,209.44644 C 218.92563,209.54024 220.09751,209.58712 220.89442,209.58707 C 226.61313,209.58712 231.01937,207.8879 234.11317,204.48941 C 237.20687,201.09103 238.75374,195.82932 238.7538,188.70425 C 238.75374,181.62621 237.20687,176.44652 234.11317,173.16519 C 231.01937,169.88403 226.40219,168.24341 220.26161,168.24332 L 217.3788,168.24332 z "
     id="text3234" />
</svg>
