<?xml version="1.0" encoding="utf-8"?>
<!-- Generator: Adobe Illustrator 16.0.0, SVG Export Plug-In . SVG Version: 6.00 Build 0)  -->
<!DOCTYPE svg PUBLIC "-//W3C//DTD SVG 1.1//EN" "http://www.w3.org/Graphics/SVG/1.1/DTD/svg11.dtd">
<svg version="1.1" id="Layer_1" xmlns="http://www.w3.org/2000/svg" xmlns:xlink="http://www.w3.org/1999/xlink" x="0px" y="0px"
	 width="630px" height="530px" viewBox="0 0 630 530" enable-background="new 0 0 630 530" xml:space="preserve">
<g>
	<polygon fill="#C24651" points="629.623,266.522 480.851,160.998 460.333,146.445 629.623,0 459.364,0 -1.503,0 -1.503,530 
		459.364,530 629.623,530 460.738,386.313 480.851,372.047 	"/>
	<g>
		<path fill="#FFFFFF" stroke="#7F7D78" stroke-miterlimit="10" d="M459.162,246.657H270.744V58.239
			c2.236-9.333,12.633-14,12.633-14h-33.378h-33.378c0,0,10.396,4.667,12.633,14v188.418H40.836c-9.333-2.236-14-12.634-14-12.634
			v33.379v33.377c0,0,4.667-10.396,14-12.633h188.418v188.418c-2.236,9.334-12.633,14-12.633,14h12.633h20.745h20.745h12.633
			c0,0-10.396-4.666-12.633-14V288.147h188.418c9.334,2.236,14,12.633,14,12.633v-12.633v-20.744v-20.746v-12.634
			C473.162,234.023,468.496,244.421,459.162,246.657z"/>
		<g>
			<g>
				<path fill="#F4DDAE" stroke="#7F7D78" stroke-miterlimit="10" d="M249.993,422.145c-5.865,0-10.619,4.754-10.619,10.619
					s4.754,10.619,10.619,10.619c5.864,0,10.618-4.754,10.618-10.619S255.857,422.145,249.993,422.145z M249.993,438.531
					c-3.185,0-5.767-2.582-5.767-5.768s2.583-5.768,5.767-5.768c3.184,0,5.767,2.582,5.767,5.768S253.177,438.531,249.993,438.531z"
					/>
				<g>
					<path fill="#F4DDAE" stroke="#7F7D78" stroke-miterlimit="10" d="M250.38,446.141c0,0-6.957-0.834-9.168,5.666
						s-12.712,7.334-7.045,14.834c0,0,1.167,5.334,3,5.5s3.59-0.334,4.045-2.334c0,0,1.01,0.727,0.232,2.363
						c-0.778,1.637-1.11,8.139,0.89,8.471c2,0.334-1.089-4,1.456-7.334c2.545-3.332,3.211-8.516,3.044-9.924
						s2.493-2.576,2.493-2.576s1.441,6.502,3.974,8.334c2.533,1.834,3.033,5.5,2.366,7.334c-0.667,1.832-2.167,5.332-0.5,5.5
						c1.667,0.166,4.167-4.334,4.667-10.168c0,0,2.896-1.832,2.615-7.166C262.168,459.307,261.76,447.309,250.38,446.141z"/>
					<path fill="#F4DDAE" stroke="#7F7D78" stroke-miterlimit="10" d="M238.011,464.043c0,0,0.58-3.07,3.202-2.904
						s4.867,3.832,2.578,5.332s-0.875-2.166-2.415-1.332C241.375,465.139,238.354,466.948,238.011,464.043z"/>
					<path fill="none" stroke="#7F7D78" stroke-miterlimit="10" d="M238.406,465.166c0,0-0.238,1.979-4.238,1.477"/>
					<path fill="none" stroke="#7F7D78" stroke-miterlimit="10" d="M244.739,471.832c0,0-4.99-0.027-3.364-6.693"/>
					<path fill="none" stroke="#7F7D78" stroke-miterlimit="10" d="M259.834,471.807c0,0-2.022,2.494-5.258-1.379"/>
					<path fill="none" stroke="#7F7D78" stroke-miterlimit="10" d="M254.577,481.631c0,0,2.5-3.855,2.629-9.174"/>
					<path fill="none" stroke="#7F7D78" stroke-miterlimit="10" d="M242.894,461.735c0,0-0.481-1.771,0.896-3.938"/>
				</g>
				<path fill="none" stroke="#7F7D78" stroke-miterlimit="10" d="M249.327,460.807c0,0,1.385-11.33-0.785-14.701"/>
				<path fill="none" stroke="#7F7D78" stroke-miterlimit="10" d="M249.993,464.043c0,0,4.1-8.385,0.337-19.313"/>
				<rect x="247.489" y="437.406" fill="#F4DDAE" stroke="#7F7D78" stroke-miterlimit="10" width="5.007" height="10"/>
			</g>
			<path fill="#F4DDAE" stroke="#7F7D78" stroke-miterlimit="10" d="M225.588,408.916c-0.546,6.234,4.067,11.732,10.303,12.277
				c6.236,0.547,11.732-4.066,12.278-10.303c0.546-6.238-4.066-11.732-10.303-12.279
				C231.631,398.067,226.133,402.68,225.588,408.916z M229.876,409.291c0.338-3.869,3.747-6.73,7.615-6.393
				c3.868,0.338,6.729,3.748,6.391,7.617c-0.339,3.867-3.748,6.729-7.616,6.391C232.397,416.569,229.537,413.158,229.876,409.291z"
				/>
			<path fill="#F4DDAE" stroke="#7F7D78" stroke-miterlimit="10" d="M213.346,406.276c-1.088,6.166,3.029,12.043,9.193,13.131
				c6.165,1.088,12.042-3.027,13.13-9.193c1.087-6.164-3.028-12.043-9.193-13.131C220.312,395.996,214.433,400.112,213.346,406.276z
				 M217.585,407.024c0.674-3.824,4.319-6.377,8.144-5.703c3.823,0.674,6.376,4.32,5.702,8.146c-0.675,3.822-4.32,6.377-8.145,5.701
				C219.463,414.494,216.91,410.848,217.585,407.024z"/>
			<path fill="#C24651" stroke="#7F7D78" stroke-miterlimit="10" d="M219.54,103.908c0,0,5.294-5.492,16.21-0.913
				s14.705-7.451,25.045-0.455s9.53-6.153,18.992,1.525l7.046,10.009l-7.046,6.302l-2.337,4.674h-55.574l-4.674-6.007l-4.026-4.969
				L219.54,103.908z"/>
			<g>
				<g>
					<path fill="#F4DDAE" stroke="#7F7D78" stroke-miterlimit="10" d="M278.029,312.24c0,0-4.484,0.156-2.915,4.115l29.375,17.188
						c0,0,2.018,6.055-2.915,7.623c-4.933,1.57-1.794,11.438,1.569,10.986c3.364-0.447,2.018-9.641,6.055-13.453
						c4.036-3.813,2.69,8.971,8.521,8.971c5.831,0,5.383-4.934,1.57-6.279c-3.813-1.346-5.077-9.418,2.843-10.539
						s10.611,1.795,9.714-4.26c-0.896-6.057-10.986-0.896-13.453,1.346s-1.795-7.4,3.813-8.746c5.605-1.346,4.933-6.727-1.346-5.828
						c-6.279,0.895-6.952,18.387-15.697,14.125C296.417,323.227,278.029,312.24,278.029,312.24z"/>
					<path fill="#F4DDAE" stroke="#7F7D78" stroke-miterlimit="10" d="M301.574,349.239c0,0-2.299,3.926,1.822,6.279
						c0,0,1.99-2.916,1.205-6.279C304.601,349.239,303.032,347.221,301.574,349.239z"/>
					<path fill="#F4DDAE" stroke="#7F7D78" stroke-miterlimit="10" d="M317.971,345.174c0,0-1.219,4.381,3.367,5.604
						c0,0,1.178-3.328-0.441-6.379C320.896,344.399,318.863,342.848,317.971,345.174z"/>
					<path fill="#F4DDAE" stroke="#7F7D78" stroke-miterlimit="10" d="M329.909,327.959c0,0,0.227,4.543,4.964,4.254
						c0,0,0.066-3.527-2.432-5.912C332.441,326.301,330.021,325.473,329.909,327.959z"/>
					<path fill="#F4DDAE" stroke="#7F7D78" stroke-miterlimit="10" d="M323.363,317.033c0,0,3.646,2.717,6.441-1.117
						c0,0-2.677-2.299-6.106-1.893C323.698,314.022,321.52,315.362,323.363,317.033z"/>
				</g>
				<path fill="#FFFFFF" stroke="#7F7D78" stroke-miterlimit="10" d="M271.975,226.135c0,0,0.523-3.7-1.644-9.754
					c0,0,0.978,0.168,4.45-0.505c0,0-7.514-6.308-7.514-11.688c0,0,1.569,2.342,5.83,1.893c0,0-1.346-9.93-1.121-16.433
					c0,0,2.242,1.987,4.036-0.03c0,0-4.709-8.313-4.373-14.144c0,0,1.458,2.234,3.476,2.907c0,0-3.812-19.96-14.351-22.651
					c0,0-21.751-3.813-31.393,4.707l15.024,8.969c0,0,12.109,11.436-2.691,21.525c0,0,7.176,0.449-5.157,11.212
					c0,0,4.26,1.233,0.448,4.821s-7.399,11.997-2.018,19.172L271.975,226.135L271.975,226.135z"/>
				<path fill="#F4DDAE" stroke="#7F7D78" stroke-miterlimit="10" d="M222.644,176.13c0,0-5.158-4.261-3.14-8.97
					c2.018-4.708,13.679-11.771,21.751-4.876c8.072,6.894,7.753,12.186,7.688,15.697c0,0-13.519-10.374-19.573,1.063
					c0,0-4.934-2.243-1.346-6.952c3.588-4.708,8.297-4.26,13.006-1.345c4.709,2.915,1.121-2.915-5.83-4.485
					C228.249,164.694,221.747,170.3,222.644,176.13z"/>
				<g>
					<path fill="#F4DDAE" stroke="#7F7D78" stroke-miterlimit="10" d="M221.971,312.24c0,0,4.484,0.156,2.915,4.115l-29.375,17.188
						c0,0-2.018,6.055,2.915,7.623c4.933,1.57,1.794,11.438-1.569,10.986c-3.364-0.447-2.018-9.641-6.055-13.453
						c-4.036-3.813-2.69,8.971-8.521,8.971c-5.831,0-5.382-4.934-1.57-6.279c3.812-1.344,5.077-9.418-2.843-10.539
						c-7.92-1.121-10.611,1.795-9.714-4.26c0.897-6.057,10.987-0.896,13.454,1.346c2.466,2.242,1.794-7.4-3.812-8.746
						s-4.933-6.727,1.345-5.828c6.279,0.895,6.951,18.387,15.697,14.125C203.583,323.227,221.971,312.24,221.971,312.24z"/>
					<path fill="#F4DDAE" stroke="#7F7D78" stroke-miterlimit="10" d="M198.426,349.239c0,0,2.299,3.926-1.822,6.279
						c0,0-1.99-2.916-1.205-6.279C195.399,349.239,196.968,347.221,198.426,349.239z"/>
					<path fill="#F4DDAE" stroke="#7F7D78" stroke-miterlimit="10" d="M182.03,345.174c0,0,1.218,4.381-3.368,5.604
						c0,0-1.178-3.328,0.44-6.379C179.103,344.399,181.138,342.848,182.03,345.174z"/>
					<path fill="#F4DDAE" stroke="#7F7D78" stroke-miterlimit="10" d="M170.091,327.959c0,0-0.227,4.543-4.964,4.254
						c0,0-0.067-3.527,2.432-5.912C167.559,326.301,169.978,325.473,170.091,327.959z"/>
					<path fill="#F4DDAE" stroke="#7F7D78" stroke-miterlimit="10" d="M176.637,317.033c0,0-3.646,2.717-6.442-1.117
						c0,0,2.676-2.299,6.107-1.893C176.302,314.022,178.482,315.362,176.637,317.033z"/>
				</g>
				<path fill="#FFFFFF" stroke="#7F7D78" stroke-miterlimit="10" d="M341.786,261.265c9.866,3.289,15.847-5.083,15.847-5.083
					c-17.938,0.897-29.599-16.743-29.599-16.743c22.723,4.783,22.124-10.764,22.124-10.764c-12.557,4.187-24.217-1.792-24.217-1.792
					c21.228-1.794,21.525-17.042,20.629-21.228c-0.896-4.187-3.588,3.289-9.27,7.475c-5.681,4.185-14.351,3.29-14.351,3.29
					c9.268-4.783,16.743-23.918,10.763-29.599c-5.979-5.682-0.896,8.969-8.371,14.052c-7.474,5.083-12.257,5.083-12.257,5.083
					c19.433-15.846,5.681-33.188,1.494-36.477c-4.186-3.289-5.083,7.774-5.083,13.454c0,5.681-4.783,12.857-4.783,12.857
					c2.392-12.856-9.268-27.507-18.237-32.29c-8.97-4.783-2.691,5.68,1.495,11.362c4.186,5.681,10.464,25.113,3.587,28.402
					c-6.876,3.289,1.794,16.146-4.783,15.847c-6.577-0.3-32.29,14.421-32.29,14.421l15.229,28.478H250h-19.713l15.228-28.479
					c0,0-25.711-14.607-32.29-14.31c-6.578,0.298,2.092-12.613-4.784-15.901c-6.876-3.289-0.598-22.75,3.587-28.432
					c4.187-5.68,10.466-16.16,1.496-11.375c-8.969,4.784-20.629,19.427-18.238,32.283c0,0-4.783-7.179-4.783-12.859
					c0-5.68-0.897-16.744-5.083-13.456c-4.186,3.289-17.939,20.63,1.494,36.476c0,0-4.783,0-12.257-5.083
					c-7.475-5.082-2.392-19.732-8.371-14.052c-5.98,5.681,1.495,24.814,10.763,29.599c0,0-8.67,0.895-14.351-3.29
					c-5.681-4.185-8.372-11.66-9.269-7.474c-0.897,4.186-0.598,19.434,20.629,21.228c0,0-11.66,5.979-24.217,1.792
					c0,0-0.598,15.547,22.125,10.763c0,0-11.66,17.641-29.599,16.743c0,0,5.98,8.372,15.846,5.083c0,0,11.062,2.99,19.134-7.773
					c0,0,0.598,11.956-23.918,26.01c0,0,9.865,6.279,23.32-8.072c0,0,11.062-2.391,13.753-10.762
					c2.691-8.371,7.774-10.465,7.175-4.485c-0.598,5.98-15.845,27.507-21.526,29.898c-5.681,2.393-3.588,5.383,2.093,5.682
					c5.68,0.299,20.031-9.867,23.918-19.732c0,0,8.671,0,11.361-7.176c0,0,4.485,8.368-2.99,18.237c0,0,12.097,0.26,15.775-12.645
					c4.549,6.668,11.604,7.135,15.842,16.119c5.606,11.885-7.848,12.895-7.848,12.895c-3.812-5.158-7.624-11.438-16.818-11.213
					c-9.193,0.225-8.295,10.539-6.053,19.059c2.242,8.521,2.242-3.588,8.969,5.607c6.727,9.191,13.23-2.244,13.23-2.244
					c5.606,4.262,10.987-1.121,10.987-1.121c0.897,9.643-12.108,10.539-12.108,10.539c2.691,7.176,7.624,3.813,7.624,3.813
					c-0.897,7.4-19.957,5.383-20.405,10.539c-0.449,5.158-6.952,1.795-6.952,1.795c3.588,12.332,8.073-1.795,10.763,0.896
					c2.691,2.689,6.279,3.139,14.127-3.363c7.848-6.504,5.83,1.793,5.83,1.793c0.224,4.262-2.914,7.4-2.914,7.4
					c-13.902-4.484-22.647,1.568-22.647,8.52s6.953,12.109,11.737,11.885c4.784-0.225,8.449-5.383,1.92-4.934
					c-6.528,0.449-6.469-9.193,0.007-11.211c6.478-2.02,5.226,2.242,1.414,4.26c-3.812,2.02,1.402,2.467,1.402,2.467
					c1.57,4.035,3.251,1.121,3.251,1.121c-0.224-4.037,7.4-5.605,7.4-5.605c-2.691,12.559,4.933,21.525,4.933,21.525
					s7.624-8.969,4.933-21.525c0,0,7.624,1.568,7.4,5.605c0,0,1.682,2.914,3.251-1.121c0,0,5.214-0.447,1.402-2.467
					c-3.812-2.018-5.064-6.279,1.414-4.26c6.478,2.018,6.536,11.66,0.007,11.211c-6.528-0.449-2.863,4.709,1.921,4.934
					c4.784,0.225,11.736-4.934,11.736-11.885s-8.744-13.006-22.646-8.52c0,0-3.14-3.141-2.915-7.4c0,0-2.019-8.297,5.83-1.793
					c7.848,6.502,11.436,6.055,14.126,3.363c2.691-2.691,7.176,11.436,10.763-0.896c0,0-6.502,3.363-6.951-1.795
					c-0.448-5.156-19.509-3.139-20.406-10.539c0,0,4.933,3.363,7.624-3.813c0,0-13.005-0.896-12.108-10.539
					c0,0,5.381,5.383,10.987,1.121c0,0,6.503,11.438,13.23,2.244c6.727-9.195,6.727,2.914,8.969-5.607
					c2.242-8.52,3.139-18.836-6.054-19.059c-9.194-0.227-13.006,6.053-16.818,11.211c0,0-13.454-1.01-7.848-12.895
					c4.238-8.984,11.293-9.451,15.842-16.119c3.679,12.904,15.775,12.645,15.775,12.645c-7.474-9.869-2.989-18.237-2.989-18.237
					c2.69,7.176,11.361,7.176,11.361,7.176c3.886,9.865,18.237,20.031,23.918,19.732s7.774-3.289,2.093-5.68
					c-5.681-2.393-20.928-23.919-21.526-29.899c-0.599-5.979,4.484-3.887,7.175,4.484c2.691,8.372,13.752,10.762,13.752,10.762
					c13.455,14.352,23.321,8.072,23.321,8.072c-24.518-14.054-23.92-26.009-23.92-26.009
					C330.725,264.256,341.786,261.265,341.786,261.265z"/>
				<circle fill="#FFFFFF" stroke="#7F7D78" stroke-miterlimit="10" cx="248.963" cy="160.06" r="2.234"/>
				<path fill="#F4DDAE" stroke="#7F7D78" stroke-miterlimit="10" d="M236.103,156.753c0,0,14.217-1.887,27.174,0
					c0,0,3.876,0.317,4.101-3.271c0.224-3.588-1.57-4.373-4.597-3.251l-0.897,3.028h-6.278c0,0,2.018-2.742-0.561-3.501
					s-3.14,0.81-5.045,0.922c-1.906,0.112-3.251-1.906-4.709-1.682c-1.458,0.224-2.691,2.475-0.336,3.872
					c0,0-5.27,0.275-7.288,0.725c0,0-1.65-2.243-3.668-2.13c0,0-1.265-2.803-2.947-1.345
					C229.37,151.578,231.176,156.098,236.103,156.753z"/>
				<path fill="#F4DDAE" stroke="#7F7D78" stroke-miterlimit="10" d="M250,221.202h-24.217v33.636v14.147
					c2.84,12.592,24.217,19.488,24.217,19.488s21.377-6.896,24.217-19.488v-14.147v-33.636H250z"/>
				<g>
					<path fill="#3E73B7" d="M231.313,234.951v19.138v11.757C233.505,276.311,250,282.043,250,282.043s16.495-5.732,18.687-16.197
						v-7.198"/>
					<polyline fill="#C24651" points="268.687,258.648 268.687,254.089 268.687,226.135 250,226.135 231.313,226.135 
						231.313,234.951 					"/>
					<path fill="#FFFFFF" d="M231.516,226.135h-0.203v12.657l36.942,28.556c0.173-0.49,0.324-0.988,0.432-1.502v-10.977
						L231.516,226.135z"/>
					<path fill="none" stroke="#7F7D78" stroke-miterlimit="10" d="M250,226.135h-18.687v27.954v11.757
						C233.505,276.311,250,282.043,250,282.043s16.495-5.732,18.687-16.197v-11.757v-27.954H250z"/>
				</g>
				<g>
					<path fill="#F4DDAE" stroke="#7F7D78" stroke-miterlimit="10" d="M248.951,243.885c0,0-4.335-2.392-7.026,0.897
						c-2.69,3.289,4.154,7.504,4.338,10.612c0,0-0.899,3.432-3.739,3.734c-2.841,0.302-1.645-6.125-3.887-7.172
						c-2.242-1.046-3.737-14.5,11.063-10.464L248.951,243.885z"/>
					<path fill="#F4DDAE" stroke="#7F7D78" stroke-miterlimit="10" d="M251.943,243.885c0,0,4.335-2.392,7.026,0.897
						c2.691,3.289-4.154,7.504-4.337,10.612c0,0,0.899,3.432,3.739,3.734c2.841,0.302,1.645-6.125,3.887-7.172
						c2.242-1.046,3.737-14.5-11.063-10.464L251.943,243.885z"/>
					<path fill="#F4DDAE" stroke="#7F7D78" stroke-miterlimit="10" d="M253.737,260.03c1.345-2.842,2.702-5.499,2.093-11.213
						c-0.609-5.713-5.232-5.526-3.438-11.959h-1.944h-1.945c1.794,6.434-2.829,6.247-3.438,11.959
						c-0.609,5.714,0.748,8.371,2.093,11.213c1.345,2.84-0.149,7.324,0,8.669c0.149,1.346,3.29,1.496,3.29,1.496
						s3.141-0.15,3.29-1.496C253.886,267.354,252.391,262.87,253.737,260.03z"/>
					<path fill="#F4DDAE" stroke="#7F7D78" stroke-miterlimit="10" d="M254.631,262.939c0,0.622-0.504,1.126-1.126,1.126h-6.117
						c-0.622,0-1.126-0.504-1.126-1.126l0,0c0-0.622,0.504-1.126,1.126-1.126h6.117
						C254.127,261.813,254.631,262.317,254.631,262.939L254.631,262.939z"/>
					<path fill="#F4DDAE" stroke="#7F7D78" stroke-miterlimit="10" d="M255.979,234.915c0,1.65-1.338,2.99-2.99,2.99h-5.085
						c-1.651,0-2.99-1.34-2.99-2.99l0,0c0-1.651,1.338-2.99,2.99-2.99h5.085C254.641,231.925,255.979,233.263,255.979,234.915
						L255.979,234.915z"/>
					<line fill="none" stroke="#7F7D78" stroke-miterlimit="10" x1="245.635" y1="236.857" x2="247.755" y2="234.915"/>
					<line fill="none" stroke="#7F7D78" stroke-miterlimit="10" x1="247.904" y1="237.905" x2="249.1" y2="235.886"/>
					<line fill="none" stroke="#7F7D78" stroke-miterlimit="10" x1="250.447" y1="237.905" x2="250.447" y2="235.886"/>
					<path fill="none" stroke="#7F7D78" stroke-miterlimit="10" d="M254.483,245.181c0,0-2.539,8.569-8.37,12.157"/>
					<line fill="none" stroke="#7F7D78" stroke-miterlimit="10" x1="255.11" y1="236.857" x2="252.99" y2="234.915"/>
					<line fill="none" stroke="#7F7D78" stroke-miterlimit="10" x1="252.841" y1="237.905" x2="251.646" y2="235.886"/>
					<path fill="none" stroke="#7F7D78" stroke-miterlimit="10" d="M255.479,247.082c0,0-3.046,11.146-8.896,12.047"/>
					<path fill="none" stroke="#7F7D78" stroke-miterlimit="10" d="M250.299,253.188c0,0-4.143-5.124-3.604-8.68"/>
					<path fill="none" stroke="#7F7D78" stroke-miterlimit="10" d="M251.869,255.065c0,0,2.19,2.697,3.299,1.623"/>
					<path fill="none" stroke="#7F7D78" stroke-miterlimit="10" d="M248.756,255.065c0,0-3.214-4.015-3.49-7.44"/>
					<path fill="none" stroke="#7F7D78" stroke-miterlimit="10" d="M250.293,256.94c0,0,3.506,3.132,4.19,1.439"/>
					<line fill="none" stroke="#7F7D78" stroke-miterlimit="10" x1="250.447" y1="270.196" x2="250.447" y2="267.274"/>
					<line fill="none" stroke="#7F7D78" stroke-miterlimit="10" x1="247.904" y1="269.596" x2="248.756" y2="267.649"/>
					<line fill="none" stroke="#7F7D78" stroke-miterlimit="10" x1="252.917" y1="269.596" x2="252.065" y2="267.649"/>
				</g>
			</g>
			<g>
				<polygon fill="#FFFFFF" stroke="#7F7D78" stroke-miterlimit="10" points="256.685,73.862 251.108,73.862 251.108,69.862 
					248.219,69.862 248.219,73.862 242.643,73.862 242.643,76.75 248.219,76.75 248.219,86.799 251.108,86.799 251.108,76.75 
					256.685,76.75 				"/>
				<path fill="#F4DDAE" stroke="#7F7D78" stroke-miterlimit="10" d="M230.861,122.825c0,0-2.204-19.646,17.468-21.722v-3.242
					c0,0-21.28,2.833-20.138,23.333L230.861,122.825z"/>
				<path fill="#F4DDAE" stroke="#7F7D78" stroke-miterlimit="10" d="M214.5,123.695c0,0,11.491-28.167,33.829-24.75v-2.338
					c0,0-22.054-7.151-37.524,26.218L214.5,123.695z"/>
				<circle fill="#FFFFFF" stroke="#7F7D78" stroke-miterlimit="10" cx="228.226" cy="98.609" r="2.337"/>
				<circle fill="#FFFFFF" stroke="#7F7D78" stroke-miterlimit="10" cx="238.532" cy="93.934" r="2.337"/>
				<circle fill="#FFFFFF" stroke="#7F7D78" stroke-miterlimit="10" cx="219.54" cy="105.442" r="2.337"/>
				<circle fill="#FFFFFF" stroke="#7F7D78" stroke-miterlimit="10" cx="213.176" cy="115.283" r="2.337"/>
				<circle fill="#F4DDAE" stroke="#7F7D78" stroke-miterlimit="10" cx="249.664" cy="93.445" r="7.167"/>
				<path fill="#F4DDAE" stroke="#7F7D78" stroke-miterlimit="10" d="M268.466,122.825c0,0,2.204-19.646-17.468-21.722v-3.242
					c0,0,21.28,2.833,20.138,23.333L268.466,122.825z"/>
				<path fill="#F4DDAE" stroke="#7F7D78" stroke-miterlimit="10" d="M284.827,123.695c0,0-11.491-28.167-33.829-24.75v-2.338
					c0,0,22.054-7.151,37.524,26.218L284.827,123.695z"/>
				<circle fill="#FFFFFF" stroke="#7F7D78" stroke-miterlimit="10" cx="271.101" cy="98.609" r="2.337"/>
				<circle fill="#FFFFFF" stroke="#7F7D78" stroke-miterlimit="10" cx="260.795" cy="93.934" r="2.337"/>
				<circle fill="#FFFFFF" stroke="#7F7D78" stroke-miterlimit="10" cx="279.788" cy="105.442" r="2.337"/>
				<circle fill="#FFFFFF" stroke="#7F7D78" stroke-miterlimit="10" cx="286.151" cy="115.283" r="2.337"/>
				<path fill="#F4DDAE" stroke="#7F7D78" stroke-miterlimit="10" d="M252.333,97.861h-2.67h-2.67
					c1.827,5.667,0.333,15.42,0.333,15.42h2.337H252C252,113.282,250.506,103.528,252.333,97.861z"/>
				<circle fill="#F4DDAE" stroke="#7F7D78" stroke-miterlimit="10" cx="249.664" cy="93.445" r="7.167"/>
				<path fill="#F4DDAE" stroke="#7F7D78" stroke-miterlimit="10" d="M289.25,119.695c-4.5-3.5-6.5,6-8.25,3.25s-5.75-1.25-4,1.75
					s0,5.75,0,5.75c-2.25-2.25-3.75-2.5-3.75-2.5s1.75-7.75-2.417-9.25s-5.587,7.625-5.587,7.625c-3.754-0.625-9.485,0-9.485,0
					c-2.989-6.625,4.989-3.625,4.989-3.625c1.75-6.25-4.989-5.75-4.989-5.75c1.011-5.25-6.098-6-6.098-6s-7.109,0.75-6.098,6
					c0,0-6.739-0.5-4.989,5.75c0,0,7.978-3,4.989,3.625c0,0-5.731-0.625-9.485,0c0,0-1.421-9.125-5.587-7.625
					s-2.417,9.25-2.417,9.25s-1.5,0.25-3.75,2.5c0,0-1.75-2.75,0-5.75s-2.25-4.5-4-1.75s-3.75-6.75-8.25-3.25s7.75,6.75,7.75,12.25
					c0,2.646,3.634,5.291,9.2,7.185c3.684,2.295,12.43,3.911,22.636,3.911s18.952-1.615,22.636-3.911
					c5.566-1.896,9.2-4.539,9.2-7.185C281.5,126.445,293.75,123.195,289.25,119.695z"/>
				<path fill="none" stroke="#7F7D78" stroke-miterlimit="10" d="M224.626,138.214c4.909-2.241,13.917-3.743,24.217-3.743
					c10.403,0,20.088,1.831,24.963,4.109"/>
				<circle fill="#F4DDAE" stroke="#7F7D78" stroke-miterlimit="10" cx="249.664" cy="120.155" r="2.67"/>
				<circle fill="#FFFFFF" stroke="#7F7D78" stroke-miterlimit="10" cx="228.191" cy="120.155" r="2.67"/>
				<circle fill="#F4DDAE" stroke="#7F7D78" stroke-miterlimit="10" cx="249.664" cy="129.662" r="2.337"/>
				<circle fill="#F4DDAE" stroke="#7F7D78" stroke-miterlimit="10" cx="235.33" cy="130.662" r="2.337"/>
				<circle fill="#FFFFFF" stroke="#7F7D78" stroke-miterlimit="10" cx="271.136" cy="120.155" r="2.67"/>
				<circle fill="#F4DDAE" stroke="#7F7D78" stroke-miterlimit="10" cx="263.997" cy="130.662" r="2.337"/>
				<rect x="242.643" y="92" fill="#FFFFFF" stroke="#7F7D78" stroke-miterlimit="10" width="14.042" height="2.889"/>
			</g>
			<g>
				<path fill="#F4DDAE" stroke="#7F7D78" stroke-miterlimit="10" d="M261.48,398.612c-6.236,0.547-10.849,6.043-10.303,12.279
					c0.546,6.236,6.042,10.85,12.278,10.303c6.235-0.545,10.849-6.043,10.303-12.277C273.214,402.68,267.716,398.067,261.48,398.612
					z M263.081,416.906c-3.868,0.338-7.277-2.521-7.616-6.391c-0.338-3.869,2.522-7.279,6.391-7.617
					c3.868-0.338,7.277,2.523,7.615,6.393C269.81,413.158,266.949,416.569,263.081,416.906z"/>
				<path fill="#F4DDAE" stroke="#7F7D78" stroke-miterlimit="10" d="M272.871,397.082c-6.165,1.088-10.28,6.967-9.193,13.131
					c1.088,6.166,6.965,10.281,13.13,9.193c6.164-1.088,10.281-6.965,9.193-13.131C284.914,400.112,279.035,395.996,272.871,397.082
					z M276.061,415.168c-3.824,0.676-7.47-1.879-8.145-5.701c-0.674-3.824,1.879-7.471,5.702-8.146
					c3.824-0.674,7.47,1.879,8.144,5.703C282.437,410.848,279.884,414.494,276.061,415.168z"/>
				<g>
					<path fill="#F4DDAE" stroke="#7F7D78" stroke-miterlimit="10" d="M261.999,385.977c0.25,3.5-1.625,3.875-3.125,4.5
						s-2.25,1.875-2.625,3.875s-1.667,1.5-1.667,1.5c0.083-5.375-4.582-9.875-4.582-9.875s-4.665,4.5-4.582,9.875
						c0,0-1.292,0.5-1.667-1.5s-1.125-3.25-2.625-3.875s-3.375-1-3.125-4.5c0,0-2.375,3.625,1.375,7.5s3.75,16.125,7.125,17h3.5h3.5
						c3.375-0.875,3.375-13.125,7.125-17S261.999,385.977,261.999,385.977z"/>
					<path fill="#F4DDAE" stroke="#7F7D78" stroke-miterlimit="10" d="M261.999,434.192c0.25-3.5-1.625-3.875-3.125-4.5
						s-2.25-1.875-2.625-3.875s-1.667-1.5-1.667-1.5c0.083,5.375-4.582,9.875-4.582,9.875s-4.665-4.5-4.582-9.875
						c0,0-1.292-0.5-1.667,1.5s-1.125,3.25-2.625,3.875s-3.375,1-3.125,4.5c0,0-2.375-3.625,1.375-7.5s3.75-16.125,7.125-17h3.5h3.5
						c3.375,0.875,3.375,13.125,7.125,17S261.999,434.192,261.999,434.192z"/>
					<ellipse fill="#F4DDAE" stroke="#7F7D78" stroke-miterlimit="10" cx="250" cy="410.477" rx="8.377" ry="11.266"/>
					<ellipse fill="#3E73B7" stroke="#7F7D78" stroke-miterlimit="10" cx="250" cy="410.477" rx="4.582" ry="6.34"/>
				</g>
			</g>
			<g>
				<path fill="#F4DDAE" stroke="#7F7D78" stroke-miterlimit="10" d="M297.189,390.272c-5.844,2.244-8.763,8.799-6.52,14.643
					c2.244,5.844,8.799,8.764,14.643,6.52c5.844-2.242,8.764-8.799,6.52-14.643C309.589,390.948,303.033,388.028,297.189,390.272z
					 M303.771,407.416c-3.625,1.393-7.69-0.418-9.083-4.043c-1.391-3.625,0.419-7.693,4.044-9.084
					c3.625-1.393,7.69,0.42,9.082,4.045S307.396,406.026,303.771,407.416z"/>
				<path fill="#F4DDAE" stroke="#7F7D78" stroke-miterlimit="10" d="M307.717,385.66c-5.627,2.746-7.962,9.531-5.218,15.156
					c2.745,5.627,9.529,7.965,15.155,5.219c5.626-2.744,7.963-9.529,5.219-15.154C320.129,385.254,313.343,382.918,307.717,385.66z
					 M315.768,402.168c-3.489,1.703-7.697,0.252-9.399-3.236c-1.701-3.49-0.253-7.699,3.236-9.402c3.49-1.699,7.698-0.252,9.4,3.238
					C320.706,396.256,319.258,400.465,315.768,402.168z"/>
				<g>
					<path fill="#F4DDAE" stroke="#7F7D78" stroke-miterlimit="10" d="M294.205,377.983c1.205,3.295-0.494,4.172-1.764,5.188
						c-1.27,1.014-1.646,2.422-1.455,4.447c0.19,2.027-1.189,1.902-1.189,1.902c-1.402-5.189-7.127-8.229-7.127-8.229
						s-3.243,5.609-1.683,10.754c0,0-1.104,0.838-2.016-0.982c-0.912-1.818-1.978-2.813-3.592-3
						c-1.614-0.188-3.52-0.031-4.244-3.465c0,0-1.284,4.139,3.39,6.83c4.672,2.689,8.049,14.467,11.534,14.377l3.364-0.963
						l3.363-0.965c3.003-1.771-0.373-13.547,2.164-18.307C297.487,380.813,294.205,377.983,294.205,377.983z"/>
					<path fill="#F4DDAE" stroke="#7F7D78" stroke-miterlimit="10" d="M307.495,424.33c-0.725-3.434-2.63-3.277-4.245-3.465
						c-1.613-0.188-2.68-1.182-3.591-3.002c-0.911-1.818-2.017-0.98-2.017-0.98c1.561,5.143-1.683,10.754-1.683,10.754
						s-5.724-3.039-7.126-8.229c0,0-1.381-0.125-1.189,1.9c0.19,2.025-0.186,3.436-1.455,4.449
						c-1.269,1.012-2.969,1.891-1.764,5.186c0,0-3.283-2.828-0.746-7.588c2.537-4.758-0.84-16.533,2.164-18.305l3.363-0.965
						l3.363-0.965c3.486-0.09,6.862,11.688,11.535,14.377C308.778,420.19,307.495,424.33,307.495,424.33z"/>
					
						<ellipse transform="matrix(-0.2757 -0.9612 0.9612 -0.2757 -19.9267 794.6282)" fill="#F4DDAE" stroke="#7F7D78" stroke-miterlimit="10" cx="289.414" cy="404.822" rx="11.266" ry="8.377"/>
					
						<ellipse transform="matrix(-0.2756 -0.9613 0.9613 -0.2756 -19.9542 794.6389)" fill="#3E73B7" stroke="#7F7D78" stroke-miterlimit="10" cx="289.441" cy="404.838" rx="6.341" ry="4.582"/>
				</g>
			</g>
			<g>
				<path fill="#F4DDAE" stroke="#7F7D78" stroke-miterlimit="10" d="M329.216,372.412c-4.998,3.768-5.998,10.873-2.229,15.871
					c3.768,5,10.873,6,15.871,2.23c5-3.766,6-10.873,2.23-15.871C341.32,369.643,334.215,368.643,329.216,372.412z M340.268,387.078
					c-3.1,2.338-7.508,1.717-9.846-1.385c-2.336-3.102-1.718-7.51,1.385-9.846c3.101-2.336,7.508-1.715,9.844,1.385
					C343.988,380.334,343.369,384.742,340.268,387.078z"/>
				<path fill="#F4DDAE" stroke="#7F7D78" stroke-miterlimit="10" d="M338.064,365.078c-4.652,4.189-5.026,11.355-0.838,16.008
					c4.188,4.65,11.354,5.027,16.006,0.838s5.028-11.355,0.84-16.006C349.884,361.266,342.717,360.891,338.064,365.078z
					 M350.354,378.727c-2.885,2.598-7.328,2.363-9.928-0.52c-2.598-2.889-2.365-7.332,0.52-9.934
					c2.886-2.596,7.33-2.363,9.929,0.523C353.471,371.682,353.239,376.127,350.354,378.727z"/>
				<g>
					<path fill="#F4DDAE" stroke="#7F7D78" stroke-miterlimit="10" d="M322.96,361.422c2.065,2.834,0.675,4.146-0.267,5.471
						c-0.939,1.326-0.914,2.783-0.172,4.678c0.742,1.896-0.619,2.156-0.619,2.156c-2.778-4.602-9.119-5.945-9.119-5.945
						s-1.57,6.287,1.347,10.803c0,0-0.83,1.107-2.208-0.391c-1.378-1.496-2.676-2.158-4.279-1.895
						c-1.604,0.266-3.392,0.941-5.035-2.16c0,0-0.094,4.332,5.141,5.631c5.233,1.301,11.726,11.689,15.051,10.645l2.97-1.855
						l2.967-1.854c2.397-2.531-4.094-12.92-2.965-18.193C326.895,363.237,322.96,361.422,322.96,361.422z"/>
					<path fill="#F4DDAE" stroke="#7F7D78" stroke-miterlimit="10" d="M348.51,402.311c-1.643-3.102-3.431-2.426-5.035-2.162
						c-1.603,0.266-2.9-0.396-4.279-1.895c-1.377-1.498-2.209-0.391-2.209-0.391c2.918,4.518,1.349,10.805,1.349,10.805
						s-6.34-1.346-9.118-5.945c0,0-1.361,0.26-0.619,2.154c0.741,1.895,0.769,3.354-0.173,4.678
						c-0.94,1.324-2.333,2.637-0.266,5.473c0,0-3.937-1.814-2.81-7.09c1.127-5.273-5.365-15.662-2.966-18.191l2.968-1.855
						l2.967-1.854c3.326-1.047,9.818,9.344,15.052,10.643C348.604,397.977,348.51,402.311,348.51,402.311z"/>
					
						<ellipse transform="matrix(-0.53 -0.848 0.848 -0.53 168.9893 870.7188)" fill="#F4DDAE" stroke="#7F7D78" stroke-miterlimit="10" cx="325.776" cy="388.531" rx="11.265" ry="8.377"/>
					
						<ellipse transform="matrix(-0.5299 -0.8481 0.8481 -0.5299 168.9059 870.7323)" fill="#3E73B7" stroke="#7F7D78" stroke-miterlimit="10" cx="325.786" cy="388.552" rx="6.341" ry="4.582"/>
				</g>
			</g>
			<g>
				<path fill="#F4DDAE" stroke="#7F7D78" stroke-miterlimit="10" d="M355.079,346.416c-3.767,5-2.769,12.105,2.229,15.871
					c5,3.768,12.106,2.771,15.873-2.23c3.769-4.998,2.77-12.105-2.23-15.871C365.952,340.418,358.846,341.414,355.079,346.416z
					 M369.745,357.467c-2.335,3.104-6.743,3.721-9.847,1.385c-3.101-2.338-3.722-6.746-1.383-9.848
					c2.336-3.1,6.744-3.717,9.846-1.381S372.082,354.367,369.745,357.467z"/>
				<path fill="#F4DDAE" stroke="#7F7D78" stroke-miterlimit="10" d="M361.563,336.928c-3.316,5.309-1.701,12.301,3.606,15.617
					c5.31,3.316,12.302,1.703,15.617-3.605c3.317-5.309,1.705-12.301-3.604-15.617C371.874,330.004,364.881,331.619,361.563,336.928
					z M377.139,346.66c-2.058,3.291-6.394,4.291-9.687,2.236c-3.293-2.061-4.295-6.396-2.239-9.689
					c2.059-3.291,6.396-4.293,9.688-2.234C378.193,339.03,379.195,343.365,377.139,346.66z"/>
				<g>
					<path fill="#F4DDAE" stroke="#7F7D78" stroke-miterlimit="10" d="M346.035,337.574c2.77,2.156,1.793,3.803,1.254,5.334
						c-0.539,1.533-0.113,2.928,1.123,4.543c1.236,1.619-0.001,2.244-0.001,2.244c-3.938-3.658-10.404-3.201-10.404-3.201
						s0.224,6.477,4.271,10.012c0,0-0.491,1.295-2.229,0.234c-1.736-1.059-3.168-1.338-4.636-0.643
						c-1.468,0.697-3.001,1.84-5.437-0.689c0,0,1.104,4.189,6.494,3.996c5.389-0.191,14.492,8.002,17.4,6.082l2.343-2.602
						l2.341-2.602c1.607-3.094-7.494-11.291-7.863-16.67C350.318,338.237,346.035,337.574,346.035,337.574z"/>
					<path fill="#F4DDAE" stroke="#7F7D78" stroke-miterlimit="10" d="M381.866,369.838c-2.433-2.527-3.966-1.387-5.437-0.689
						c-1.468,0.697-2.897,0.418-4.636-0.643c-1.735-1.061-2.229,0.234-2.229,0.234c4.049,3.537,4.272,10.014,4.272,10.014
						s-6.465,0.457-10.403-3.201c0,0-1.238,0.625-0.002,2.242c1.234,1.617,1.662,3.012,1.123,4.543
						c-0.539,1.533-1.516,3.178,1.254,5.334c0,0-4.285-0.658-4.654-6.041c-0.37-5.379-9.475-13.576-7.865-16.67l2.341-2.6
						l2.341-2.602c2.91-1.922,12.014,6.273,17.402,6.08S381.866,369.838,381.866,369.838z"/>
					
						<ellipse transform="matrix(-0.7432 -0.6691 0.6691 -0.7432 378.0687 870.9163)" fill="#F4DDAE" stroke="#7F7D78" stroke-miterlimit="10" cx="356.188" cy="362.896" rx="11.266" ry="8.377"/>
					
						<ellipse transform="matrix(-0.7431 -0.6692 0.6692 -0.7431 378.0815 870.9605)" fill="#3E73B7" stroke="#7F7D78" stroke-miterlimit="10" cx="356.222" cy="362.907" rx="6.341" ry="4.582"/>
				</g>
			</g>
			<g>
				<path fill="#F4DDAE" stroke="#7F7D78" stroke-miterlimit="10" d="M372.775,314.299c-2.242,5.844,0.675,12.398,6.518,14.641
					c5.846,2.244,12.402-0.672,14.643-6.52c2.246-5.842-0.674-12.398-6.519-14.641C381.573,305.535,375.018,308.451,372.775,314.299
					z M389.919,320.879c-1.39,3.627-5.456,5.436-9.083,4.045c-3.625-1.393-5.438-5.459-4.044-9.086
					c1.392-3.623,5.459-5.432,9.083-4.041C389.5,313.188,391.311,317.254,389.919,320.879z"/>
				<path fill="#F4DDAE" stroke="#7F7D78" stroke-miterlimit="10" d="M376.393,303.391c-1.726,6.018,1.756,12.293,7.771,14.018
					c6.018,1.725,12.295-1.754,14.02-7.771c1.726-6.016-1.752-12.295-7.771-14.018C384.396,293.893,378.119,297.373,376.393,303.391
					z M394.047,308.453c-1.07,3.73-4.963,5.887-8.693,4.818c-3.733-1.072-5.893-4.965-4.824-8.695
					c1.072-3.732,4.966-5.891,8.697-4.82C392.957,300.826,395.116,304.719,394.047,308.453z"/>
				<g>
					<path fill="#F4DDAE" stroke="#7F7D78" stroke-miterlimit="10" d="M361.645,308.293c3.256,1.309,2.771,3.158,2.676,4.781
						c-0.096,1.621,0.697,2.846,2.332,4.057c1.635,1.217,0.617,2.158,0.617,2.158c-4.795-2.432-10.884-0.209-10.884-0.209
						s1.999,6.162,6.865,8.445c0,0-0.116,1.381-2.078,0.84c-1.961-0.539-3.414-0.412-4.634,0.66
						c-1.219,1.076-2.377,2.598-5.414,0.838c0,0,2.217,3.723,7.344,2.051c5.126-1.67,16.137,3.697,18.402,1.051l1.535-3.146
						l1.533-3.145c0.691-3.42-10.316-8.789-12.154-13.859C365.943,307.748,361.645,308.293,361.645,308.293z"/>
					<path fill="#F4DDAE" stroke="#7F7D78" stroke-miterlimit="10" d="M404.98,329.43c-3.035-1.76-4.194-0.24-5.416,0.836
						c-1.219,1.072-2.67,1.199-4.633,0.66c-1.961-0.541-2.08,0.84-2.08,0.84c4.869,2.283,6.869,8.447,6.869,8.447
						s-6.09,2.221-10.885-0.209c0,0-1.018,0.941,0.616,2.156c1.634,1.213,2.429,2.436,2.332,4.057
						c-0.097,1.623-0.58,3.473,2.676,4.781c0,0-4.3,0.549-6.14-4.523c-1.838-5.068-12.85-10.439-12.155-13.855l1.532-3.145
						l1.533-3.145c2.269-2.65,13.278,2.721,18.404,1.047C402.764,325.705,404.98,329.43,404.98,329.43z"/>
					
						<ellipse transform="matrix(-0.8988 -0.4384 0.4384 -0.8988 573.9694 792.1668)" fill="#F4DDAE" stroke="#7F7D78" stroke-miterlimit="10" cx="378.423" cy="329.831" rx="11.266" ry="8.378"/>
					
						<ellipse transform="matrix(-0.8988 -0.4383 0.4383 -0.8988 573.9683 792.1039)" fill="#3E73B7" stroke="#7F7D78" stroke-miterlimit="10" cx="378.408" cy="329.805" rx="6.341" ry="4.583"/>
				</g>
			</g>
			<g>
				<path fill="#F4DDAE" stroke="#7F7D78" stroke-miterlimit="10" d="M380.934,278.547c-0.545,6.236,4.065,11.732,10.301,12.277
					c6.236,0.547,11.736-4.064,12.277-10.303c0.549-6.234-4.064-11.732-10.301-12.275
					C386.975,267.699,381.477,272.309,380.934,278.547z M399.227,280.147c-0.336,3.869-3.746,6.729-7.615,6.393
					c-3.869-0.338-6.731-3.75-6.393-7.619c0.338-3.867,3.75-6.727,7.617-6.389S399.564,276.28,399.227,280.147z"/>
				<path fill="#F4DDAE" stroke="#7F7D78" stroke-miterlimit="10" d="M381.402,267.065c0,6.262,5.076,11.334,11.336,11.334
					c6.259-0.002,11.334-5.074,11.332-11.334c0.002-6.259-5.072-11.336-11.332-11.334
					C386.479,255.728,381.404,260.804,381.402,267.065z M399.77,267.065c0,3.883-3.147,7.027-7.028,7.029
					c-3.886-0.002-7.032-3.148-7.034-7.031c0.001-3.881,3.148-7.029,7.032-7.029C396.619,260.035,399.768,263.18,399.77,267.065z"/>
				<g>
					<path fill="#F4DDAE" stroke="#7F7D78" stroke-miterlimit="10" d="M368.578,275.842c3.49,0.361,3.535,2.271,3.889,3.857
						c0.356,1.586,1.455,2.543,3.359,3.258c1.906,0.719,1.189,1.904,1.189,1.904c-5.279-1.016-10.521,2.799-10.521,2.799
						s3.62,5.375,8.928,6.227c0,0,0.269,1.359-1.767,1.381c-2.034,0.021-3.396,0.545-4.272,1.91
						c-0.874,1.371-1.569,3.152-4.974,2.299c0,0,3.156,2.967,7.625-0.053c4.467-3.02,16.529-0.895,17.979-4.063l0.609-3.447
						l0.605-3.445c-0.276-3.479-12.34-5.605-15.504-9.973C372.561,274.133,368.578,275.842,368.578,275.842z"/>
					<path fill="#F4DDAE" stroke="#7F7D78" stroke-miterlimit="10" d="M416.061,284.215c-3.401-0.854-4.098,0.926-4.975,2.297
						c-0.875,1.365-2.236,1.889-4.271,1.91c-2.035,0.02-1.768,1.381-1.768,1.381c5.309,0.854,8.932,6.229,8.932,6.229
						s-5.242,3.813-10.521,2.799c0,0-0.718,1.186,1.188,1.902c1.904,0.717,3.006,1.672,3.359,3.256
						c0.355,1.588,0.398,3.498,3.891,3.859c0,0-3.981,1.713-7.147-2.656c-3.164-4.365-15.229-6.492-15.504-9.969l0.606-3.445
						l0.605-3.447c1.449-3.172,13.516-1.043,17.98-4.066C412.902,281.246,416.061,284.215,416.061,284.215z"/>
					
						<ellipse transform="matrix(-0.9848 -0.1736 0.1736 -0.9848 724.601 647.2015)" fill="#F4DDAE" stroke="#7F7D78" stroke-miterlimit="10" cx="390.608" cy="291.907" rx="11.266" ry="8.376"/>
					<path fill="#3E73B7" stroke="#7F7D78" stroke-miterlimit="10" d="M391.418,287.401c3.448,0.609,5.889,3.121,5.449,5.613
						c-0.44,2.492-3.594,4.021-7.041,3.412c-3.447-0.607-5.887-3.119-5.447-5.615C384.818,288.321,387.971,286.793,391.418,287.401z
						"/>
				</g>
			</g>
			<g>
				<path fill="#F4DDAE" stroke="#7F7D78" stroke-miterlimit="10" d="M378.92,241.932c1.195,6.145,7.143,10.157,13.285,8.962
					c6.146-1.193,10.162-7.142,8.963-13.289c-1.191-6.144-7.143-10.157-13.285-8.961
					C381.736,229.839,377.723,235.787,378.92,241.932z M396.945,238.428c0.744,3.813-1.747,7.5-5.559,8.244
					c-3.813,0.74-7.505-1.749-8.244-5.563c-0.742-3.81,1.75-7.498,5.562-8.239C392.514,232.127,396.205,234.617,396.945,238.428z"/>
				<path fill="#F4DDAE" stroke="#7F7D78" stroke-miterlimit="10" d="M376.207,230.765c1.727,6.018,8.002,9.495,14.02,7.771
					c6.018-1.728,9.496-8.003,7.771-14.02c-1.724-6.017-8.001-9.499-14.019-7.771C377.961,218.469,374.482,224.747,376.207,230.765z
					 M393.861,225.703c1.068,3.73-1.09,7.622-4.819,8.692c-3.733,1.069-7.628-1.088-8.699-4.817
					c-1.069-3.732,1.091-7.626,4.822-8.696C388.896,219.812,392.789,221.969,393.861,225.703z"/>
				<g>
					<path fill="#F4DDAE" stroke="#7F7D78" stroke-miterlimit="10" d="M366.298,242.738c3.454-0.615,4.024,1.209,4.802,2.636
						c0.78,1.426,2.101,2.044,4.127,2.206c2.031,0.165,1.668,1.502,1.668,1.502c-5.354,0.479-9.34,5.589-9.34,5.589
						s4.961,4.169,10.299,3.524c0,0,0.633,1.232-1.317,1.813c-1.949,0.581-3.113,1.46-3.58,3.015
						c-0.463,1.559-0.642,3.463-4.147,3.581c0,0,3.854,1.98,7.314-2.153c3.462-4.134,15.645-5.417,16.163-8.86l-0.365-3.482
						l-0.366-3.479c-1.226-3.268-13.406-1.987-17.652-5.313C369.654,239.998,366.298,242.738,366.298,242.738z"/>
					<path fill="#F4DDAE" stroke="#7F7D78" stroke-miterlimit="10" d="M414.249,237.699c-3.506,0.115-3.685,2.019-4.147,3.579
						c-0.467,1.553-1.631,2.432-3.58,3.014c-1.951,0.582-1.317,1.814-1.317,1.814c5.338-0.644,10.301,3.524,10.301,3.524
						s-3.987,5.11-9.342,5.591c0,0-0.363,1.337,1.666,1.501c2.028,0.163,3.35,0.778,4.127,2.204
						c0.778,1.428,1.348,3.252,4.804,2.638c0,0-3.355,2.744-7.604-0.583c-4.245-3.323-16.43-2.044-17.651-5.309l-0.364-3.479
						l-0.369-3.48c0.52-3.449,12.703-4.729,16.164-8.864S414.249,237.699,414.249,237.699z"/>
					
						<ellipse transform="matrix(-0.9945 0.1046 -0.1046 -0.9945 808.016 461.8467)" fill="#F4DDAE" stroke="#7F7D78" stroke-miterlimit="10" cx="391.899" cy="252.108" rx="11.266" ry="8.377"/>
					
						<ellipse transform="matrix(-0.9945 0.1044 -0.1044 -0.9945 808.027 461.9597)" fill="#3E73B7" stroke="#7F7D78" stroke-miterlimit="10" cx="391.922" cy="252.13" rx="6.341" ry="4.582"/>
				</g>
			</g>
			<g>
				<path fill="#F4DDAE" stroke="#7F7D78" stroke-miterlimit="10" d="M366.893,207.292c2.844,5.576,9.666,7.794,15.241,4.953
					c5.579-2.842,7.8-9.667,4.952-15.244c-2.838-5.577-9.664-7.796-15.24-4.952C366.268,194.888,364.047,201.713,366.893,207.292z
					 M383.255,198.954c1.765,3.459,0.388,7.69-3.071,9.457c-3.461,1.763-7.695,0.387-9.459-3.074
					c-1.762-3.458-0.384-7.691,3.075-9.454C377.257,194.119,381.492,195.495,383.255,198.954z"/>
				<path fill="#F4DDAE" stroke="#7F7D78" stroke-miterlimit="10" d="M361.207,197.303c3.316,5.31,10.309,6.922,15.617,3.604
					c5.308-3.318,6.923-10.311,3.604-15.617c-3.314-5.31-10.31-6.926-15.615-3.606C359.504,185.001,357.891,191.995,361.207,197.303
					z M376.782,187.572c2.056,3.292,1.054,7.627-2.237,9.685c-3.295,2.058-7.632,1.057-9.689-2.233
					c-2.057-3.292-1.055-7.631,2.238-9.688C370.385,183.278,374.723,184.279,376.782,187.572z"/>
				<g>
					<path fill="#F4DDAE" stroke="#7F7D78" stroke-miterlimit="10" d="M354.98,211.544c3.15-1.544,4.203,0.054,5.344,1.211
						c1.143,1.155,2.58,1.386,4.574,0.982c1.998-0.401,2.019,0.983,2.019,0.983c-5.015,1.938-7.438,7.948-7.438,7.948
						s5.918,2.64,10.871,0.549c0,0,0.946,1.011-0.768,2.107c-1.713,1.096-2.59,2.261-2.609,3.885c-0.017,1.625,0.338,3.504-3,4.584
						c0,0,4.248,0.843,6.438-4.085c2.188-4.928,13.545-9.52,13.096-12.974l-1.313-3.245l-1.311-3.243
						c-2.078-2.804-13.438,1.785-18.434-0.241C357.453,207.984,354.98,211.544,354.98,211.544z"/>
					<path fill="#F4DDAE" stroke="#7F7D78" stroke-miterlimit="10" d="M399.686,193.482c-3.338,1.078-2.983,2.956-3,4.584
						c-0.021,1.621-0.896,2.787-2.609,3.884c-1.717,1.097-0.768,2.107-0.768,2.107c4.953-2.09,10.873,0.548,10.873,0.548
						s-2.425,6.012-7.438,7.949c0,0,0.021,1.386,2.016,0.984c1.994-0.402,3.435-0.176,4.574,0.979
						c1.144,1.158,2.19,2.755,5.345,1.211c0,0-2.47,3.563-7.47,1.535c-4.997-2.024-16.354,2.563-18.433-0.238l-1.31-3.243
						l-1.313-3.244c-0.45-3.459,10.908-8.047,13.095-12.977C395.436,192.637,399.686,193.482,399.686,193.482z"/>
					
						<ellipse transform="matrix(-0.9272 0.3746 -0.3746 -0.9272 816.5336 268.2637)" fill="#F4DDAE" stroke="#7F7D78" stroke-miterlimit="10" cx="382.196" cy="213.485" rx="11.267" ry="8.377"/>
					<path fill="#3E73B7" stroke="#7F7D78" stroke-miterlimit="10" d="M380.477,209.243c3.246-1.311,6.646-0.475,7.597,1.873
						c0.946,2.346-0.919,5.313-4.164,6.625c-3.244,1.312-6.644,0.475-7.595-1.875C375.366,213.519,377.23,210.554,380.477,209.243z"
						/>
				</g>
			</g>
			<g>
				<path fill="#F4DDAE" stroke="#7F7D78" stroke-miterlimit="10" d="M345.783,177.306c4.27,4.576,11.439,4.828,16.016,0.561
					c4.579-4.271,4.833-11.442,0.559-16.02c-4.266-4.578-11.438-4.83-16.016-0.56C341.764,165.556,341.51,172.728,345.783,177.306z
					 M359.213,164.782c2.65,2.839,2.492,7.287-0.347,9.937c-2.841,2.648-7.29,2.493-9.938-0.348
					c-2.646-2.839-2.488-7.288,0.35-9.937C352.114,161.787,356.564,161.942,359.213,164.782z"/>
				<path fill="#F4DDAE" stroke="#7F7D78" stroke-miterlimit="10" d="M337.564,169.272c4.65,4.189,11.816,3.813,16.006-0.84
					c4.188-4.651,3.813-11.818-0.84-16.005c-4.65-4.188-11.819-3.815-16.006,0.837C332.536,157.916,332.913,165.083,337.564,169.272
					z M349.854,155.625c2.883,2.598,3.115,7.041,0.521,9.927c-2.601,2.886-7.045,3.12-9.931,0.524
					c-2.885-2.6-3.117-7.045-0.52-9.932C342.521,153.26,346.967,153.028,349.854,155.625z"/>
				<g>
					<path fill="#F4DDAE" stroke="#7F7D78" stroke-miterlimit="10" d="M335.505,184.677c2.603-2.353,4.056-1.105,5.47-0.309
						c1.418,0.796,2.863,0.62,4.668-0.316c1.812-0.937,2.213,0.39,2.213,0.39c-4.287,3.244-4.959,9.69-4.959,9.69
						s6.416,0.906,10.601-2.469c0,0,1.188,0.711-0.156,2.236s-1.866,2.889-1.438,4.454c0.434,1.566,1.293,3.274-1.619,5.233
						c0,0,4.316-0.361,5.063-5.701s10.396-12.883,9.012-16.08l-2.153-2.759l-2.154-2.757c-2.771-2.121-12.424,5.42-17.786,4.85
						C336.9,180.575,335.505,184.677,335.505,184.677z"/>
					<path fill="#F4DDAE" stroke="#7F7D78" stroke-miterlimit="10" d="M373.499,154.994c-2.911,1.957-2.054,3.665-1.621,5.233
						c0.429,1.563-0.093,2.927-1.438,4.452c-1.346,1.527-0.154,2.237-0.154,2.237c4.186-3.374,10.604-2.469,10.604-2.469
						s-0.675,6.444-4.961,9.69c0,0,0.401,1.326,2.209,0.392c1.807-0.938,3.254-1.116,4.668-0.318
						c1.418,0.798,2.865,2.044,5.471-0.309c0,0-1.392,4.105-6.756,3.534c-5.361-0.568-15.017,6.974-17.783,4.853l-2.153-2.757
						l-2.156-2.757c-1.388-3.201,8.267-10.741,9.011-16.082C369.182,155.352,373.499,154.994,373.499,154.994z"/>
					
						<ellipse transform="matrix(-0.788 0.6157 -0.6157 -0.788 757.813 97.1344)" fill="#F4DDAE" stroke="#7F7D78" stroke-miterlimit="10" cx="362.182" cy="179.046" rx="11.266" ry="8.378"/>
					
						<ellipse transform="matrix(-0.7881 0.6156 -0.6156 -0.7881 757.8541 97.1516)" fill="#3E73B7" stroke="#7F7D78" stroke-miterlimit="10" cx="362.203" cy="179.035" rx="6.342" ry="4.582"/>
				</g>
			</g>
			<g>
				<path fill="#F4DDAE" stroke="#7F7D78" stroke-miterlimit="10" d="M317.227,154.302c5.365,3.222,12.326,1.488,15.549-3.876
					c3.226-5.367,1.492-12.331-3.877-15.553c-5.362-3.226-12.328-1.489-15.55,3.877
					C310.124,144.116,311.856,151.079,317.227,154.302z M326.684,138.56c3.33,1.999,4.404,6.317,2.405,9.647
					c-2.001,3.329-6.319,4.406-9.649,2.406c-3.325-2-4.4-6.32-2.401-9.647C319.034,137.638,323.355,136.561,326.684,138.56z"/>
				<path fill="#F4DDAE" stroke="#7F7D78" stroke-miterlimit="10" d="M307.111,148.844c5.626,2.745,12.411,0.408,15.155-5.219
					c2.742-5.626,0.406-12.412-5.22-15.154c-5.625-2.746-12.414-0.411-15.155,5.216
					C299.147,139.313,301.485,146.098,307.111,148.844z M315.162,132.338c3.486,1.703,4.936,5.909,3.236,9.399
					c-1.705,3.49-5.913,4.94-9.401,3.24c-3.489-1.703-4.938-5.912-3.236-9.401C307.462,132.087,311.672,130.637,315.162,132.338z"/>
				<g>
					<path fill="#F4DDAE" stroke="#7F7D78" stroke-miterlimit="10" d="M309.378,164.22c1.854-2.979,3.593-2.181,5.173-1.805
						c1.581,0.375,2.924-0.193,4.399-1.59c1.481-1.399,2.233-0.235,2.233-0.235c-3.228,4.3-2.097,10.682-2.097,10.682
						s6.418-0.896,9.511-5.295c0,0,1.34,0.355,0.467,2.193c-0.873,1.837-0.998,3.29-0.155,4.678
						c0.848,1.386,2.146,2.792-0.115,5.478c0,0,4.052-1.537,3.295-6.876c-0.756-5.339,6.442-15.25,4.229-17.94l-2.83-2.059
						l-2.831-2.057c-3.248-1.274-10.448,8.635-15.76,9.564C309.589,159.891,309.378,164.22,309.378,164.22z"/>
					<path fill="#F4DDAE" stroke="#7F7D78" stroke-miterlimit="10" d="M337.718,125.214c-2.259,2.684-0.964,4.089-0.114,5.479
						c0.842,1.386,0.717,2.839-0.155,4.677c-0.873,1.839,0.467,2.192,0.467,2.192c3.093-4.396,9.512-5.295,9.512-5.295
						s1.13,6.381-2.097,10.684c0,0,0.751,1.164,2.23-0.233c1.479-1.397,2.818-1.97,4.398-1.593c1.582,0.376,3.318,1.175,5.174-1.805
						c0,0-0.205,4.329-5.521,5.26c-5.311,0.931-12.512,10.841-15.756,9.564l-2.83-2.057l-2.832-2.055
						c-2.217-2.695,4.984-12.604,4.228-17.943C333.667,126.749,337.718,125.214,337.718,125.214z"/>
					
						<ellipse transform="matrix(-0.5878 0.809 -0.809 -0.5878 652.0319 -29.312)" fill="#F4DDAE" stroke="#7F7D78" stroke-miterlimit="10" cx="333.483" cy="151.455" rx="11.266" ry="8.377"/>
					<path fill="#3E73B7" stroke="#7F7D78" stroke-miterlimit="10" d="M329.779,148.759c2.059-2.831,5.386-3.925,7.435-2.438
						c2.047,1.487,2.037,4.992-0.021,7.824c-2.059,2.832-5.383,3.924-7.435,2.436C327.712,155.094,327.723,151.592,329.779,148.759z
						"/>
				</g>
			</g>
			<g>
				<path fill="#F4DDAE" stroke="#7F7D78" stroke-miterlimit="10" d="M278.624,151.758c0.961-3.374,2.853-3.086,4.476-3.161
					c1.623-0.076,2.756-0.991,3.791-2.741c1.039-1.754,2.081-0.842,2.081-0.842c-1.916,5.022,0.931,10.845,0.931,10.845
					s5.922-2.631,7.682-7.71c0,0,1.386-0.027,1.053,1.979c-0.332,2.006-0.053,3.437,1.141,4.539c1.196,1.099,2.83,2.093,1.398,5.297
					c0,0,3.471-2.594,1.272-7.518c-2.199-4.925,1.989-16.437-0.878-18.411l-3.289-1.199l-3.289-1.196
					c-3.473-0.33-7.663,11.181-12.513,13.538C277.634,147.538,278.624,151.758,278.624,151.758z"/>
				<path fill="#F4DDAE" stroke="#7F7D78" stroke-miterlimit="10" d="M295.115,106.451c-1.433,3.202,0.199,4.195,1.398,5.298
					c1.191,1.099,1.473,2.53,1.14,4.538s1.054,1.979,1.054,1.979c1.761-5.078,7.684-7.712,7.684-7.712s2.844,5.822,0.929,10.847
					c0,0,1.043,0.912,2.081-0.839c1.035-1.752,2.166-2.671,3.789-2.744c1.624-0.072,3.514,0.216,4.476-3.159
					c0,0,0.997,4.219-3.856,6.576c-4.849,2.358-9.039,13.87-12.511,13.538l-3.286-1.195l-3.289-1.194
					c-2.874-1.979,1.317-13.49-0.883-18.414C291.644,109.043,295.115,106.451,295.115,106.451z"/>
				
					<ellipse transform="matrix(-0.342 0.9397 -0.9397 -0.342 525.1158 -102.0087)" fill="#F4DDAE" stroke="#7F7D78" stroke-miterlimit="10" cx="298.272" cy="132.845" rx="11.266" ry="8.377"/>
				
					<ellipse transform="matrix(-0.3421 0.9397 -0.9397 -0.3421 525.1239 -102.0064)" fill="#3E73B7" stroke="#7F7D78" stroke-miterlimit="10" cx="298.272" cy="132.83" rx="6.343" ry="4.583"/>
			</g>
			<g>
				<path fill="#F4DDAE" stroke="#7F7D78" stroke-miterlimit="10" d="M187.515,396.791c-2.244,5.844,0.676,12.4,6.52,14.643
					c5.844,2.244,12.398-0.676,14.643-6.52c2.243-5.844-0.676-12.398-6.52-14.643C196.314,388.026,189.758,390.948,187.515,396.791z
					 M191.533,398.334c1.392-3.625,5.457-5.438,9.082-4.045c3.625,1.391,5.435,5.459,4.044,9.084
					c-1.393,3.625-5.458,5.436-9.083,4.043C191.951,406.026,190.142,401.959,191.533,398.334z"/>
				<path fill="#F4DDAE" stroke="#7F7D78" stroke-miterlimit="10" d="M176.474,390.881c-2.744,5.625-0.407,12.41,5.219,15.154
					c5.626,2.746,12.41,0.408,15.155-5.219c2.744-5.625,0.409-12.41-5.218-15.156C186.004,382.918,179.218,385.254,176.474,390.881z
					 M180.343,392.768c1.702-3.49,5.91-4.939,9.4-3.238c3.489,1.703,4.938,5.91,3.236,9.402c-1.703,3.488-5.911,4.939-9.4,3.236
					C180.089,400.465,178.641,396.256,180.343,392.768z"/>
				<g>
					<path fill="#F4DDAE" stroke="#7F7D78" stroke-miterlimit="10" d="M205.142,377.983c-1.205,3.295,0.494,4.172,1.764,5.188
						c1.27,1.014,1.646,2.422,1.455,4.447c-0.19,2.027,1.189,1.902,1.189,1.902c1.402-5.189,7.127-8.229,7.127-8.229
						s3.243,5.609,1.683,10.754c0,0,1.104,0.838,2.016-0.982c0.912-1.818,1.978-2.813,3.592-3c1.614-0.188,3.52-0.031,4.244-3.465
						c0,0,1.284,4.139-3.39,6.83c-4.672,2.689-8.049,14.467-11.534,14.377l-3.364-0.963l-3.363-0.965
						c-3.003-1.771,0.373-13.547-2.164-18.307C201.859,380.813,205.142,377.983,205.142,377.983z"/>
					<path fill="#F4DDAE" stroke="#7F7D78" stroke-miterlimit="10" d="M191.852,424.33c0.725-3.434,2.63-3.277,4.245-3.465
						c1.613-0.188,2.68-1.182,3.591-3.002c0.911-1.818,2.017-0.98,2.017-0.98c-1.561,5.143,1.683,10.754,1.683,10.754
						s5.724-3.039,7.126-8.229c0,0,1.381-0.125,1.189,1.9c-0.19,2.025,0.186,3.436,1.455,4.449c1.269,1.012,2.969,1.891,1.764,5.186
						c0,0,3.283-2.828,0.746-7.588c-2.537-4.758,0.84-16.533-2.164-18.305l-3.363-0.965l-3.363-0.965
						c-3.486-0.09-6.862,11.688-11.535,14.377C190.568,420.19,191.852,424.33,191.852,424.33z"/>
					
						<ellipse transform="matrix(-0.2757 0.9612 -0.9612 -0.2757 656.9813 314.6759)" fill="#F4DDAE" stroke="#7F7D78" stroke-miterlimit="10" cx="209.936" cy="404.857" rx="11.266" ry="8.377"/>
					
						<ellipse transform="matrix(-0.2756 0.9613 -0.9613 -0.2756 656.9414 314.6032)" fill="#3E73B7" stroke="#7F7D78" stroke-miterlimit="10" cx="209.933" cy="404.826" rx="6.341" ry="4.582"/>
				</g>
			</g>
			<g>
				<path fill="#F4DDAE" stroke="#7F7D78" stroke-miterlimit="10" d="M154.259,374.643c-3.769,4.998-2.77,12.105,2.23,15.871
					c4.999,3.77,12.104,2.77,15.872-2.23c3.768-4.998,2.768-12.104-2.23-15.871C165.132,368.643,158.025,369.643,154.259,374.643z
					 M157.696,377.233c2.336-3.1,6.744-3.721,9.845-1.385c3.102,2.336,3.72,6.744,1.384,9.846c-2.338,3.102-6.746,3.723-9.846,1.385
					C155.978,384.742,155.358,380.334,157.696,377.233z"/>
				<path fill="#F4DDAE" stroke="#7F7D78" stroke-miterlimit="10" d="M145.274,365.918c-4.189,4.65-3.813,11.816,0.84,16.006
					c4.65,4.189,11.816,3.813,16.006-0.838c4.188-4.652,3.814-11.818-0.838-16.008C156.63,360.891,149.463,361.266,145.274,365.918z
					 M148.474,368.799c2.598-2.887,7.043-3.119,9.929-0.523c2.884,2.602,3.116,7.045,0.519,9.934
					c-2.599,2.883-7.043,3.115-9.928,0.52C146.107,376.127,145.876,371.682,148.474,368.799z"/>
				<g>
					<path fill="#F4DDAE" stroke="#7F7D78" stroke-miterlimit="10" d="M176.387,361.422c-2.066,2.834-0.675,4.146,0.266,5.471
						c0.94,1.326,0.915,2.783,0.173,4.678c-0.742,1.896,0.619,2.156,0.619,2.156c2.778-4.602,9.119-5.945,9.119-5.945
						s1.57,6.287-1.347,10.803c0,0,0.83,1.107,2.208-0.391c1.378-1.496,2.676-2.158,4.279-1.895c1.604,0.266,3.392,0.941,5.035-2.16
						c0,0,0.094,4.332-5.141,5.631c-5.233,1.301-11.726,11.689-15.051,10.645l-2.969-1.855l-2.967-1.854
						c-2.398-2.531,4.093-12.92,2.965-18.193C172.452,363.237,176.387,361.422,176.387,361.422z"/>
					<path fill="#F4DDAE" stroke="#7F7D78" stroke-miterlimit="10" d="M150.837,402.311c1.643-3.102,3.431-2.426,5.035-2.162
						c1.603,0.266,2.901-0.396,4.279-1.895c1.377-1.498,2.209-0.391,2.209-0.391c-2.918,4.518-1.348,10.805-1.348,10.805
						s6.34-1.346,9.118-5.945c0,0,1.362,0.26,0.62,2.154s-0.769,3.354,0.172,4.678s2.333,2.637,0.266,5.473
						c0,0,3.937-1.814,2.81-7.09c-1.128-5.273,5.364-15.662,2.965-18.191l-2.967-1.855l-2.967-1.854
						c-3.327-1.047-9.818,9.344-15.052,10.643C150.743,397.977,150.837,402.311,150.837,402.311z"/>
					
						<ellipse transform="matrix(-0.53 0.848 -0.848 -0.53 595.1083 447.2748)" fill="#F4DDAE" stroke="#7F7D78" stroke-miterlimit="10" cx="173.602" cy="388.558" rx="11.266" ry="8.377"/>
					
						<ellipse transform="matrix(-0.5299 0.8481 -0.8481 -0.5299 595.0861 447.2061)" fill="#3E73B7" stroke="#7F7D78" stroke-miterlimit="10" cx="173.59" cy="388.544" rx="6.341" ry="4.583"/>
				</g>
			</g>
			<g>
				<path fill="#F4DDAE" stroke="#7F7D78" stroke-miterlimit="10" d="M128.396,344.186c-5,3.766-5.999,10.873-2.23,15.871
					c3.766,5.002,10.872,5.998,15.872,2.23c4.999-3.768,5.996-10.871,2.23-15.871C140.501,341.414,133.395,340.418,128.396,344.186z
					 M130.985,347.623c3.101-2.336,7.509-1.719,9.846,1.381c2.338,3.102,1.717,7.51-1.384,9.848
					c-3.103,2.336-7.511,1.719-9.846-1.385C127.265,354.367,127.884,349.959,130.985,347.623z"/>
				<path fill="#F4DDAE" stroke="#7F7D78" stroke-miterlimit="10" d="M122.164,333.323c-5.31,3.314-6.922,10.309-3.604,15.617
					c3.315,5.309,10.308,6.922,15.617,3.605c5.309-3.316,6.924-10.311,3.606-15.617
					C134.465,331.619,127.473,330.004,122.164,333.323z M124.445,336.973c3.293-2.059,7.63-1.057,9.688,2.234
					c2.056,3.293,1.054,7.629-2.239,9.689c-3.293,2.055-7.629,1.055-9.687-2.236C120.151,343.365,121.153,339.03,124.445,336.973z"
					/>
				<g>
					<path fill="#F4DDAE" stroke="#7F7D78" stroke-miterlimit="10" d="M153.312,337.574c-2.769,2.156-1.793,3.803-1.254,5.334
						c0.539,1.533,0.113,2.928-1.123,4.543c-1.236,1.619,0.001,2.244,0.001,2.244c3.939-3.658,10.404-3.201,10.404-3.201
						s-0.223,6.477-4.271,10.012c0,0,0.492,1.295,2.229,0.234c1.736-1.059,3.168-1.338,4.636-0.643
						c1.468,0.697,3.001,1.84,5.436-0.689c0,0-1.104,4.189-6.493,3.996c-5.389-0.191-14.493,8.002-17.401,6.082l-2.343-2.602
						l-2.34-2.602c-1.608-3.094,7.494-11.291,7.863-16.67C149.028,338.237,153.312,337.574,153.312,337.574z"/>
					<path fill="#F4DDAE" stroke="#7F7D78" stroke-miterlimit="10" d="M117.48,369.838c2.433-2.527,3.966-1.387,5.436-0.689
						c1.468,0.697,2.898,0.418,4.636-0.643c1.736-1.061,2.23,0.234,2.23,0.234c-4.05,3.537-4.273,10.014-4.273,10.014
						s6.465,0.457,10.404-3.201c0,0,1.238,0.625,0.002,2.242c-1.235,1.617-1.663,3.012-1.124,4.543
						c0.54,1.533,1.516,3.178-1.253,5.334c0,0,4.284-0.658,4.654-6.041c0.37-5.379,9.474-13.576,7.865-16.67l-2.341-2.6
						l-2.341-2.602c-2.91-1.922-12.014,6.273-17.402,6.08C118.585,365.647,117.48,369.838,117.48,369.838z"/>
					
						<ellipse transform="matrix(-0.7431 0.6691 -0.6691 -0.7431 492.3079 536.8229)" fill="#F4DDAE" stroke="#7F7D78" stroke-miterlimit="10" cx="143.12" cy="362.902" rx="11.265" ry="8.377"/>
					
						<ellipse transform="matrix(-0.7431 0.6692 -0.6692 -0.7431 492.3033 536.7571)" fill="#3E73B7" stroke="#7F7D78" stroke-miterlimit="10" cx="143.121" cy="362.876" rx="6.341" ry="4.582"/>
				</g>
			</g>
			<g>
				<path fill="#F4DDAE" stroke="#7F7D78" stroke-miterlimit="10" d="M111.93,307.78c-5.845,2.24-8.764,8.799-6.519,14.641
					c2.24,5.848,8.797,8.764,14.643,6.52c5.843-2.242,8.76-8.797,6.518-14.641C124.33,308.451,117.773,305.535,111.93,307.78z
					 M113.472,311.797c3.624-1.391,7.691,0.418,9.083,4.041c1.393,3.627-0.419,7.693-4.044,9.086
					c-3.627,1.391-7.693-0.418-9.083-4.045C108.036,317.254,109.847,313.188,113.472,311.797z"/>
				<path fill="#F4DDAE" stroke="#7F7D78" stroke-miterlimit="10" d="M108.934,295.619c-6.018,1.723-9.495,8.002-7.77,14.02
					c1.724,6.018,8.001,9.494,14.019,7.771c6.017-1.727,9.497-8,7.771-14.02C121.228,297.373,114.951,293.893,108.934,295.619z
					 M110.12,299.756c3.732-1.07,7.626,1.088,8.697,4.82c1.068,3.73-1.09,7.623-4.823,8.695c-3.731,1.068-7.624-1.088-8.694-4.818
					C104.23,304.719,106.39,300.826,110.12,299.756z"/>
				<g>
					<path fill="#F4DDAE" stroke="#7F7D78" stroke-miterlimit="10" d="M137.702,308.293c-3.256,1.309-2.771,3.158-2.675,4.781
						c0.095,1.621-0.698,2.846-2.332,4.057c-1.635,1.217-0.618,2.158-0.618,2.158c4.795-2.432,10.884-0.209,10.884-0.209
						s-1.999,6.162-6.865,8.445c0,0,0.116,1.381,2.078,0.84c1.961-0.539,3.414-0.412,4.634,0.66
						c1.218,1.076,2.377,2.598,5.414,0.838c0,0-2.217,3.723-7.344,2.051c-5.126-1.67-16.137,3.697-18.402,1.051l-1.535-3.146
						l-1.533-3.145c-0.692-3.42,10.316-8.789,12.154-13.859C133.402,307.748,137.702,308.293,137.702,308.293z"/>
					<path fill="#F4DDAE" stroke="#7F7D78" stroke-miterlimit="10" d="M94.366,329.43c3.035-1.76,4.194-0.24,5.415,0.836
						c1.219,1.072,2.671,1.199,4.634,0.66c1.961-0.541,2.079,0.84,2.079,0.84c-4.868,2.283-6.868,8.447-6.868,8.447
						s6.089,2.221,10.884-0.209c0,0,1.018,0.941-0.616,2.156c-1.634,1.213-2.429,2.436-2.332,4.057
						c0.096,1.623,0.58,3.473-2.676,4.781c0,0,4.3,0.549,6.14-4.523c1.838-5.068,12.849-10.439,12.155-13.855l-1.533-3.145
						l-1.533-3.145c-2.268-2.65-13.278,2.721-18.404,1.047C96.583,325.705,94.366,329.43,94.366,329.43z"/>
					
						<ellipse transform="matrix(-0.8988 0.4384 -0.4384 -0.8988 374.2229 573.1971)" fill="#F4DDAE" stroke="#7F7D78" stroke-miterlimit="10" cx="120.935" cy="329.803" rx="11.266" ry="8.377"/>
					
						<ellipse transform="matrix(-0.8988 0.4383 -0.4383 -0.8988 374.2251 573.255)" fill="#3E73B7" stroke="#7F7D78" stroke-miterlimit="10" cx="120.95" cy="329.819" rx="6.341" ry="4.583"/>
				</g>
			</g>
			<g>
				<path fill="#F4DDAE" stroke="#7F7D78" stroke-miterlimit="10" d="M106.136,268.244c-6.235,0.543-10.849,6.043-10.301,12.275
					c0.542,6.24,6.041,10.852,12.278,10.305c6.234-0.545,10.845-6.043,10.301-12.277
					C117.871,272.309,112.372,267.699,106.136,268.244z M106.511,272.533c3.867-0.338,7.279,2.521,7.617,6.387
					c0.34,3.871-2.522,7.281-6.392,7.621c-3.869,0.336-7.279-2.523-7.616-6.393C99.782,276.28,102.644,272.869,106.511,272.533z"/>
				<path fill="#F4DDAE" stroke="#7F7D78" stroke-miterlimit="10" d="M106.608,255.729c-6.26-0.002-11.334,5.075-11.333,11.333
					c-0.001,6.26,5.074,11.334,11.333,11.334c6.26,0,11.335-5.072,11.335-11.332C117.942,260.804,112.868,255.728,106.608,255.729z
					 M106.608,260.034c3.883,0,7.031,3.147,7.032,7.029c-0.002,3.883-3.149,7.029-7.034,7.031c-3.881-0.002-7.028-3.146-7.029-7.029
					C99.579,263.18,102.728,260.035,106.608,260.034z"/>
				<g>
					<path fill="#F4DDAE" stroke="#7F7D78" stroke-miterlimit="10" d="M130.769,275.842c-3.49,0.361-3.535,2.271-3.889,3.857
						c-0.356,1.586-1.455,2.543-3.359,3.258c-1.907,0.719-1.189,1.904-1.189,1.904c5.279-1.016,10.52,2.799,10.52,2.799
						s-3.62,5.375-8.928,6.227c0,0-0.269,1.359,1.767,1.381c2.034,0.021,3.396,0.545,4.272,1.91
						c0.874,1.371,1.569,3.152,4.974,2.299c0,0-3.157,2.967-7.625-0.053c-4.467-3.02-16.53-0.895-17.979-4.063l-0.609-3.447
						l-0.606-3.445c0.277-3.479,12.34-5.605,15.504-9.973C126.786,274.133,130.769,275.842,130.769,275.842z"/>
					<path fill="#F4DDAE" stroke="#7F7D78" stroke-miterlimit="10" d="M83.286,284.215c3.402-0.854,4.098,0.926,4.975,2.297
						c0.875,1.365,2.236,1.889,4.271,1.91c2.035,0.02,1.768,1.381,1.768,1.381c-5.309,0.854-8.931,6.229-8.931,6.229
						s5.241,3.813,10.521,2.799c0,0,0.718,1.186-1.188,1.902c-1.904,0.717-3.006,1.672-3.359,3.256
						c-0.355,1.588-0.399,3.498-3.891,3.859c0,0,3.982,1.713,7.148-2.656c3.164-4.365,15.229-6.492,15.504-9.969l-0.607-3.445
						l-0.605-3.447c-1.449-3.172-13.515-1.043-17.98-4.066C86.443,281.246,83.286,284.215,83.286,284.215z"/>
					
						<ellipse transform="matrix(-0.9848 0.1735 -0.1735 -0.9848 266.4605 560.5463)" fill="#F4DDAE" stroke="#7F7D78" stroke-miterlimit="10" cx="108.725" cy="291.922" rx="11.266" ry="8.377"/>
					<path fill="#3E73B7" stroke="#7F7D78" stroke-miterlimit="10" d="M107.929,287.401c-3.448,0.609-5.889,3.121-5.449,5.613
						s3.594,4.021,7.041,3.412c3.447-0.607,5.887-3.119,5.447-5.615C114.528,288.321,111.376,286.793,107.929,287.401z"/>
				</g>
			</g>
			<g>
				<path fill="#F4DDAE" stroke="#7F7D78" stroke-miterlimit="10" d="M111.464,228.644c-6.144-1.195-12.094,2.818-13.285,8.961
					c-1.199,6.146,2.816,12.096,8.963,13.289c6.143,1.195,12.09-2.817,13.285-8.962
					C121.625,235.787,117.609,229.839,111.464,228.644z M110.643,232.87c3.811,0.741,6.303,4.431,5.562,8.239
					c-0.74,3.813-4.432,6.304-8.244,5.563c-3.812-0.744-6.303-4.432-5.56-8.244C103.142,234.617,106.833,232.127,110.643,232.87z"/>
				<path fill="#F4DDAE" stroke="#7F7D78" stroke-miterlimit="10" d="M115.368,216.745c-6.017-1.729-12.294,1.754-14.018,7.771
					c-1.727,6.017,1.753,12.292,7.77,14.02c6.018,1.726,12.294-1.752,14.02-7.771C124.864,224.747,121.386,218.469,115.368,216.745z
					 M114.182,220.882c3.732,1.07,5.892,4.964,4.822,8.696c-1.071,3.729-4.965,5.888-8.699,4.817c-3.73-1.07-5.889-4.962-4.82-8.692
					C106.558,221.969,110.451,219.812,114.182,220.882z"/>
				<g>
					<path fill="#F4DDAE" stroke="#7F7D78" stroke-miterlimit="10" d="M133.049,242.738c-3.454-0.615-4.024,1.209-4.802,2.636
						c-0.78,1.426-2.1,2.044-4.127,2.206c-2.031,0.165-1.668,1.502-1.668,1.502c5.354,0.479,9.34,5.589,9.34,5.589
						s-4.961,4.169-10.298,3.524c0,0-0.633,1.232,1.317,1.813c1.949,0.581,3.113,1.46,3.58,3.015
						c0.463,1.559,0.641,3.463,4.147,3.581c0,0-3.853,1.98-7.314-2.153c-3.462-4.134-15.644-5.417-16.163-8.86l0.365-3.482
						l0.366-3.479c1.226-3.268,13.407-1.987,17.652-5.313C129.691,239.998,133.049,242.738,133.049,242.738z"/>
					<path fill="#F4DDAE" stroke="#7F7D78" stroke-miterlimit="10" d="M85.098,237.699c3.506,0.115,3.684,2.019,4.148,3.579
						c0.466,1.553,1.63,2.432,3.579,3.014c1.951,0.582,1.318,1.814,1.318,1.814c-5.338-0.644-10.301,3.524-10.301,3.524
						s3.987,5.11,9.342,5.591c0,0,0.363,1.337-1.666,1.501c-2.028,0.163-3.35,0.778-4.127,2.204
						c-0.779,1.428-1.348,3.252-4.804,2.638c0,0,3.356,2.744,7.604-0.583c4.245-3.323,16.429-2.044,17.651-5.309l0.365-3.479
						l0.369-3.48c-0.52-3.449-12.703-4.729-16.164-8.864C88.95,235.715,85.098,237.699,85.098,237.699z"/>
					
						<ellipse transform="matrix(-0.9945 -0.1046 0.1046 -0.9945 187.8886 514.0939)" fill="#F4DDAE" stroke="#7F7D78" stroke-miterlimit="10" cx="107.428" cy="252.119" rx="11.266" ry="8.377"/>
					
						<ellipse transform="matrix(-0.9945 -0.1044 0.1044 -0.9945 187.9238 514.0508)" fill="#3E73B7" stroke="#7F7D78" stroke-miterlimit="10" cx="107.418" cy="252.106" rx="6.341" ry="4.582"/>
				</g>
			</g>
			<g>
				<path fill="#F4DDAE" stroke="#7F7D78" stroke-miterlimit="10" d="M127.501,192.048c-5.576-2.844-12.402-0.625-15.24,4.952
					c-2.848,5.578-0.627,12.401,4.952,15.244c5.575,2.842,12.398,0.623,15.241-4.953C135.3,201.713,133.079,194.888,127.501,192.048
					z M125.547,195.882c3.459,1.763,4.837,5.996,3.075,9.454c-1.763,3.461-5.997,4.837-9.458,3.074
					c-3.459-1.766-4.837-5.997-3.072-9.457C117.854,195.495,122.09,194.119,125.547,195.882z"/>
				<path fill="#F4DDAE" stroke="#7F7D78" stroke-miterlimit="10" d="M134.534,181.684c-5.307-3.318-12.301-1.702-15.616,3.606
					c-3.318,5.307-1.703,12.299,3.604,15.617c5.309,3.316,12.301,1.704,15.617-3.604
					C141.456,191.995,139.843,185.001,134.534,181.684z M132.253,185.334c3.293,2.058,4.295,6.396,2.238,9.688
					c-2.058,3.291-6.395,4.291-9.689,2.233c-3.291-2.058-4.293-6.393-2.237-9.685C124.624,184.279,128.962,183.278,132.253,185.334z
					"/>
				<g>
					<path fill="#F4DDAE" stroke="#7F7D78" stroke-miterlimit="10" d="M144.365,211.544c-3.15-1.544-4.202,0.054-5.343,1.211
						c-1.143,1.155-2.581,1.386-4.574,0.982c-1.998-0.401-2.019,0.983-2.019,0.983c5.015,1.938,7.438,7.948,7.438,7.948
						s-5.917,2.64-10.87,0.549c0,0-0.947,1.011,0.767,2.107c1.713,1.096,2.59,2.261,2.61,3.885c0.016,1.625-0.339,3.504,3,4.584
						c0,0-4.249,0.843-6.438-4.085c-2.188-4.928-13.545-9.52-13.096-12.974l1.312-3.245l1.311-3.243
						c2.079-2.804,13.437,1.785,18.434-0.241C141.894,207.984,144.365,211.544,144.365,211.544z"/>
					<path fill="#F4DDAE" stroke="#7F7D78" stroke-miterlimit="10" d="M99.661,193.482c3.338,1.078,2.984,2.956,3.001,4.584
						c0.02,1.621,0.896,2.787,2.609,3.884c1.716,1.097,0.767,2.107,0.767,2.107c-4.953-2.09-10.872,0.548-10.872,0.548
						s2.424,6.012,7.438,7.949c0,0-0.02,1.386-2.016,0.984c-1.994-0.402-3.435-0.176-4.574,0.979
						c-1.143,1.158-2.191,2.755-5.345,1.211c0,0,2.47,3.563,7.47,1.535c4.997-2.024,16.355,2.563,18.432-0.238l1.31-3.243
						l1.313-3.244c0.451-3.459-10.907-8.047-13.094-12.977C103.911,192.637,99.661,193.482,99.661,193.482z"/>
					
						<ellipse transform="matrix(-0.9272 -0.3746 0.3746 -0.9272 145.8024 455.3173)" fill="#F4DDAE" stroke="#7F7D78" stroke-miterlimit="10" cx="117.157" cy="213.487" rx="11.266" ry="8.378"/>
					<path fill="#3E73B7" stroke="#7F7D78" stroke-miterlimit="10" d="M118.87,209.243c-3.246-1.311-6.646-0.475-7.596,1.873
						c-0.947,2.346,0.918,5.313,4.164,6.625c3.244,1.312,6.644,0.475,7.594-1.875C123.98,213.519,122.116,210.554,118.87,209.243z"
						/>
				</g>
			</g>
			<g>
				<path fill="#F4DDAE" stroke="#7F7D78" stroke-miterlimit="10" d="M153.005,161.288c-4.577-4.271-11.75-4.02-16.016,0.56
					c-4.274,4.577-4.021,11.749,0.559,16.02c4.576,4.268,11.746,4.016,16.016-0.561
					C157.837,172.728,157.583,165.556,153.005,161.288z M150.069,164.435c2.839,2.647,2.996,7.098,0.35,9.937
					c-2.648,2.841-7.098,2.996-9.938,0.348c-2.839-2.649-2.997-7.098-0.347-9.937C142.781,161.942,147.232,161.787,150.069,164.435z
					"/>
				<path fill="#F4DDAE" stroke="#7F7D78" stroke-miterlimit="10" d="M162.622,153.265c-4.187-4.652-11.355-5.026-16.006-0.837
					c-4.652,4.188-5.027,11.354-0.84,16.005c4.188,4.652,11.354,5.029,16.006,0.84C166.434,165.083,166.811,157.916,162.622,153.265
					z M159.423,156.144c2.599,2.887,2.365,7.332-0.52,9.932c-2.885,2.596-7.329,2.361-9.93-0.524
					c-2.596-2.886-2.363-7.329,0.52-9.927C152.38,153.028,156.826,153.26,159.423,156.144z"/>
				<g>
					<path fill="#F4DDAE" stroke="#7F7D78" stroke-miterlimit="10" d="M163.842,184.677c-2.603-2.353-4.055-1.105-5.47-0.309
						c-1.417,0.796-2.863,0.62-4.668-0.316c-1.811-0.937-2.212,0.39-2.212,0.39c4.287,3.244,4.959,9.69,4.959,9.69
						s-6.416,0.906-10.601-2.469c0,0-1.189,0.711,0.156,2.236c1.345,1.525,1.866,2.889,1.438,4.454
						c-0.433,1.566-1.292,3.274,1.62,5.233c0,0-4.317-0.361-5.063-5.701s-10.396-12.883-9.012-16.08l2.154-2.759l2.154-2.757
						c2.771-2.121,12.424,5.42,17.786,4.85C162.446,180.575,163.842,184.677,163.842,184.677z"/>
					<path fill="#F4DDAE" stroke="#7F7D78" stroke-miterlimit="10" d="M125.848,154.994c2.911,1.957,2.054,3.665,1.621,5.233
						c-0.428,1.563,0.093,2.927,1.438,4.452c1.346,1.527,0.155,2.237,0.155,2.237c-4.185-3.374-10.603-2.469-10.603-2.469
						s0.674,6.444,4.96,9.69c0,0-0.401,1.326-2.209,0.392c-1.806-0.938-3.253-1.116-4.667-0.318
						c-1.418,0.798-2.866,2.044-5.472-0.309c0,0,1.392,4.105,6.757,3.534c5.361-0.568,15.016,6.974,17.783,4.853l2.153-2.757
						l2.156-2.757c1.388-3.201-8.267-10.741-9.01-16.082C130.165,155.352,125.848,154.994,125.848,154.994z"/>
					
						<ellipse transform="matrix(-0.788 -0.6157 0.6157 -0.788 134.9847 404.5925)" fill="#F4DDAE" stroke="#7F7D78" stroke-miterlimit="10" cx="137.153" cy="179.055" rx="11.266" ry="8.378"/>
					
						<ellipse transform="matrix(-0.7881 -0.6155 0.6155 -0.7881 135.0386 404.5758)" fill="#3E73B7" stroke="#7F7D78" stroke-miterlimit="10" cx="137.155" cy="179.045" rx="6.342" ry="4.582"/>
				</g>
			</g>
			<g>
				<path fill="#F4DDAE" stroke="#7F7D78" stroke-miterlimit="10" d="M185.999,138.75c-3.223-5.366-10.188-7.103-15.55-3.877
					c-5.37,3.222-7.103,10.186-3.878,15.553c3.223,5.364,10.184,7.099,15.549,3.876C187.49,151.079,189.223,144.116,185.999,138.75z
					 M182.31,140.967c1.999,3.327,0.924,7.647-2.402,9.647c-3.329,2-7.648,0.923-9.649-2.406c-1.999-3.33-0.925-7.648,2.405-9.647
					C175.991,136.561,180.313,137.638,182.31,140.967z"/>
				<path fill="#F4DDAE" stroke="#7F7D78" stroke-miterlimit="10" d="M197.455,133.688c-2.741-5.627-9.53-7.962-15.155-5.216
					c-5.626,2.742-7.962,9.527-5.219,15.154c2.744,5.627,9.528,7.964,15.154,5.219C197.861,146.098,200.199,139.313,197.455,133.688
					z M193.586,135.576c1.702,3.489,0.253,7.699-3.236,9.401c-3.489,1.7-7.696,0.25-9.401-3.24c-1.699-3.49-0.251-7.696,3.236-9.399
					C187.675,130.637,191.885,132.087,193.586,135.576z"/>
				<g>
					<path fill="#F4DDAE" stroke="#7F7D78" stroke-miterlimit="10" d="M189.969,164.22c-1.854-2.979-3.593-2.181-5.173-1.805
						c-1.581,0.375-2.923-0.193-4.399-1.59c-1.482-1.399-2.233-0.235-2.233-0.235c3.227,4.3,2.096,10.682,2.096,10.682
						s-6.418-0.896-9.51-5.295c0,0-1.34,0.355-0.467,2.193c0.872,1.837,0.998,3.29,0.155,4.678
						c-0.848,1.386-2.145,2.792,0.115,5.478c0,0-4.051-1.537-3.295-6.876c0.756-5.339-6.442-15.25-4.23-17.94l2.831-2.059
						l2.831-2.057c3.248-1.274,10.448,8.635,15.76,9.564C189.758,159.891,189.969,164.22,189.969,164.22z"/>
					<path fill="#F4DDAE" stroke="#7F7D78" stroke-miterlimit="10" d="M161.629,125.214c2.259,2.684,0.964,4.089,0.115,5.479
						c-0.843,1.386-0.718,2.839,0.155,4.677c0.873,1.839-0.467,2.192-0.467,2.192c-3.093-4.396-9.512-5.295-9.512-5.295
						s-1.129,6.381,2.097,10.684c0,0-0.751,1.164-2.231-0.233c-1.478-1.397-2.818-1.97-4.398-1.593
						c-1.582,0.376-3.318,1.175-5.174-1.805c0,0,0.205,4.329,5.521,5.26c5.311,0.931,12.512,10.841,15.757,9.564l2.83-2.057
						l2.832-2.055c2.217-2.695-4.985-12.604-4.228-17.943C165.68,126.749,161.629,125.214,161.629,125.214z"/>
					
						<ellipse transform="matrix(-0.5878 -0.809 0.809 -0.5878 140.8263 374.6592)" fill="#F4DDAE" stroke="#7F7D78" stroke-miterlimit="10" cx="165.861" cy="151.453" rx="11.266" ry="8.377"/>
					<path fill="#3E73B7" stroke="#7F7D78" stroke-miterlimit="10" d="M169.567,148.759c-2.059-2.831-5.386-3.925-7.435-2.438
						c-2.047,1.487-2.037,4.992,0.021,7.824c2.058,2.832,5.383,3.924,7.434,2.436C171.635,155.094,171.625,151.592,169.567,148.759z
						"/>
				</g>
			</g>
			<g>
				<path fill="#F4DDAE" stroke="#7F7D78" stroke-miterlimit="10" d="M220.723,151.758c-0.961-3.374-2.853-3.086-4.476-3.161
					c-1.623-0.076-2.756-0.991-3.791-2.741c-1.039-1.754-2.081-0.842-2.081-0.842c1.916,5.022-0.931,10.845-0.931,10.845
					s-5.922-2.631-7.682-7.71c0,0-1.386-0.027-1.053,1.979c0.332,2.006,0.053,3.437-1.141,4.539
					c-1.196,1.099-2.83,2.093-1.398,5.297c0,0-3.471-2.594-1.272-7.518c2.199-4.925-1.989-16.437,0.878-18.411l3.289-1.199
					l3.289-1.196c3.473-0.33,7.663,11.181,12.513,13.538C221.713,147.538,220.723,151.758,220.723,151.758z"/>
				<path fill="#F4DDAE" stroke="#7F7D78" stroke-miterlimit="10" d="M204.231,106.451c1.433,3.202-0.199,4.195-1.398,5.298
					c-1.191,1.099-1.473,2.53-1.14,4.538s-1.054,1.979-1.054,1.979c-1.761-5.078-7.684-7.712-7.684-7.712s-2.844,5.822-0.929,10.847
					c0,0-1.043,0.912-2.081-0.839c-1.035-1.752-2.166-2.671-3.789-2.744c-1.624-0.072-3.514,0.216-4.476-3.159
					c0,0-0.997,4.219,3.856,6.576c4.849,2.358,9.039,13.87,12.511,13.538l3.286-1.195l3.289-1.194
					c2.874-1.979-1.317-13.49,0.883-18.414C207.703,109.043,204.231,106.451,204.231,106.451z"/>
				
					<ellipse transform="matrix(-0.342 -0.9397 0.9397 -0.342 144.9984 367.2206)" fill="#F4DDAE" stroke="#7F7D78" stroke-miterlimit="10" cx="201.068" cy="132.844" rx="11.266" ry="8.377"/>
				
					<ellipse transform="matrix(-0.3421 -0.9397 0.9397 -0.3421 145.0378 367.2249)" fill="#3E73B7" stroke="#7F7D78" stroke-miterlimit="10" cx="201.076" cy="132.838" rx="6.343" ry="4.583"/>
			</g>
		</g>
		<g>
			<path fill="#F4DDAE" d="M85.132,82.43V67.278h-5.66v-2.027h13.617v2.027h-5.684v15.151L85.132,82.43L85.132,82.43z"/>
			<path fill="#F4DDAE" d="M105.303,82.43v-17.18h12.422v2.027h-10.148v5.262h9.504v2.016h-9.504v5.849h10.547v2.026H105.303z"/>
			<path fill="#F4DDAE" d="M143.79,76.407l2.273,0.573c-0.477,1.867-1.334,3.291-2.572,4.271c-1.238,0.979-2.752,1.471-4.541,1.471
				c-1.852,0-3.357-0.377-4.518-1.131c-1.161-0.754-2.043-1.846-2.648-3.275c-0.605-1.429-0.908-2.965-0.908-4.604
				c0-1.789,0.342-3.35,1.025-4.682s1.656-2.345,2.918-3.035c1.262-0.691,2.65-1.037,4.166-1.037c1.719,0,3.164,0.438,4.336,1.313
				c1.172,0.875,1.988,2.105,2.449,3.691l-2.238,0.527c-0.398-1.25-0.977-2.16-1.734-2.73c-0.757-0.57-1.711-0.854-2.859-0.854
				c-1.32,0-2.424,0.315-3.311,0.948c-0.887,0.634-1.51,1.482-1.869,2.55c-0.359,1.066-0.539,2.165-0.539,3.299
				c0,1.461,0.213,2.735,0.639,3.826c0.426,1.09,1.088,1.903,1.986,2.442c0.898,0.539,1.871,0.81,2.918,0.81
				c1.273,0,2.352-0.367,3.234-1.103C142.879,78.941,143.477,77.851,143.79,76.407z"/>
			<path fill="#F4DDAE" d="M164.042,82.43l-6.656-17.18h2.461l4.465,12.479c0.359,1,0.66,1.938,0.902,2.813
				c0.266-0.938,0.574-1.875,0.926-2.813l4.641-12.479h2.32l-6.727,17.18H164.042z"/>
			<path fill="#F4DDAE" d="M185.337,82.43v-17.18h3.422l4.066,12.164c0.375,1.133,0.648,1.979,0.82,2.543
				c0.195-0.625,0.5-1.543,0.914-2.754l4.113-11.953h3.059v17.18h-2.191V68.052l-4.992,14.379h-2.051l-4.969-14.625V82.43H185.337z"
				/>
		</g>
		<g>
			<path fill="#F4DDAE" d="M298.485,82.435v-17.18h12.422v2.027h-10.148v5.262h9.504v2.016h-9.504v5.849h10.547v2.026H298.485z"/>
			<path fill="#F4DDAE" d="M320.617,82.435V67.284h-5.66v-2.027h13.617v2.027h-5.684v15.151H320.617z"/>
			<path fill="#F4DDAE" d="M349.209,82.435v-17.18h6.48c1.141,0,2.012,0.055,2.613,0.164c0.844,0.141,1.551,0.408,2.12,0.803
				c0.57,0.396,1.029,0.947,1.377,1.658c0.349,0.711,0.521,1.492,0.521,2.344c0,1.461-0.466,2.697-1.396,3.709
				c-0.93,1.013-2.609,1.519-5.039,1.519h-4.406v6.983H349.209z M351.482,73.425h4.44c1.47,0,2.513-0.272,3.129-0.82
				c0.617-0.547,0.927-1.315,0.927-2.309c0-0.719-0.183-1.334-0.545-1.846c-0.363-0.513-0.843-0.851-1.437-1.015
				c-0.384-0.102-1.09-0.151-2.121-0.151h-4.396v6.141H351.482z"/>
			<path fill="#F4DDAE" d="M367.052,82.435v-17.18h7.617c1.531,0,2.695,0.154,3.492,0.463c0.797,0.31,1.435,0.854,1.909,1.635
				c0.477,0.781,0.716,1.646,0.716,2.591c0,1.219-0.396,2.245-1.185,3.081c-0.789,0.837-2.008,1.367-3.656,1.595
				c0.603,0.289,1.06,0.574,1.371,0.854c0.664,0.609,1.293,1.371,1.888,2.285l2.987,4.676h-2.858l-2.272-3.573
				c-0.664-1.031-1.211-1.82-1.642-2.367c-0.43-0.547-0.813-0.931-1.153-1.148c-0.341-0.218-0.687-0.371-1.037-0.457
				c-0.258-0.055-0.681-0.082-1.267-0.082h-2.637v7.629L367.052,82.435L367.052,82.435z M369.325,72.839h4.887
				c1.039,0,1.853-0.107,2.438-0.322s1.031-0.559,1.336-1.03c0.305-0.473,0.457-0.986,0.457-1.541c0-0.813-0.295-1.48-0.885-2.005
				c-0.591-0.523-1.521-0.784-2.795-0.784h-5.438V72.839L369.325,72.839z"/>
			<path fill="#F4DDAE" d="M385.457,74.069c0-2.853,0.766-5.085,2.297-6.697c1.531-1.613,3.508-2.42,5.93-2.42
				c1.586,0,3.017,0.379,4.289,1.137c1.273,0.758,2.244,1.814,2.912,3.17c0.668,1.356,1.002,2.894,1.002,4.611
				c0,1.742-0.352,3.301-1.055,4.676s-1.699,2.416-2.988,3.123s-2.68,1.061-4.172,1.061c-1.617,0-3.063-0.391-4.336-1.172
				s-2.238-1.848-2.895-3.199C385.784,77.008,385.457,75.577,385.457,74.069z M387.801,74.103c0,2.07,0.557,3.701,1.67,4.894
				c1.113,1.191,2.51,1.787,4.189,1.787c1.711,0,3.119-0.603,4.225-1.806c1.106-1.203,1.658-2.909,1.658-5.121
				c0-1.397-0.236-2.618-0.709-3.661s-1.164-1.853-2.074-2.427c-0.91-0.573-1.932-0.86-3.064-0.86c-1.608,0-2.993,0.553-4.153,1.657
				C388.382,69.672,387.801,71.517,387.801,74.103z"/>
			<path fill="#F4DDAE" d="M427.49,82.435V67.284h-5.66v-2.027h13.617v2.027h-5.685v15.151H427.49z"/>
			<path fill="#F4DDAE" d="M439.626,82.435v-17.18h12.422v2.027H441.9v5.262h9.504v2.016H441.9v5.849h10.547v2.026H439.626z"/>
		</g>
	</g>
</g>
</svg>
