<?xml version="1.0" encoding="UTF-8" standalone="no"?>
<!-- Created with Inkscape (http://www.inkscape.org/) -->

<svg
   xmlns:dc="http://purl.org/dc/elements/1.1/"
   xmlns:cc="http://creativecommons.org/ns#"
   xmlns:rdf="http://www.w3.org/1999/02/22-rdf-syntax-ns#"
   xmlns:svg="http://www.w3.org/2000/svg"
   xmlns="http://www.w3.org/2000/svg"
   xmlns:sodipodi="http://sodipodi.sourceforge.net/DTD/sodipodi-0.dtd"
   xmlns:inkscape="http://www.inkscape.org/namespaces/inkscape"
   width="1000"
   height="500"
   viewBox="0 0 264.5833272454602 132.2916704048346"
   version="1.1"
   id="svg19011"
   inkscape:version="0.92.3 (2405546, 2018-03-11)"
   sodipodi:docname="West African Flag.svg">
  <defs
     id="defs19005" />
  <sodipodi:namedview
     id="base"
     pagecolor="#ffffff"
     bordercolor="#666666"
     borderopacity="1.0"
     inkscape:pageopacity="0.0"
     inkscape:pageshadow="2"
     inkscape:zoom="0.6999999996306545"
     inkscape:cx="637.9540789019054"
     inkscape:cy="187.5098944881312"
     inkscape:document-units="px"
     inkscape:current-layer="layer1"
     showgrid="false"
     units="px"
     inkscape:window-width="1366"
     inkscape:window-height="716"
     inkscape:window-x="-8"
     inkscape:window-y="-8"
     inkscape:window-maximized="1" />
  <metadata
     id="metadata19008">
    <rdf:RDF>
      <cc:Work
         rdf:about="">
        <dc:format>image/svg+xml</dc:format>
        <dc:type
           rdf:resource="http://purl.org/dc/dcmitype/StillImage" />
        <dc:title></dc:title>
      </cc:Work>
    </rdf:RDF>
  </metadata>
  <g
     inkscape:label="Layer 1"
     inkscape:groupmode="layer"
     id="layer1"
     transform="translate(0,-164.7083165486653)">
    <rect
       style="opacity:1;fill:#d00c27;fill-opacity:1;stroke:none;stroke-width:0.396874994;stroke-linecap:square;stroke-linejoin:round;stroke-miterlimit:4;stroke-dasharray:0.396874999, 0.7937499979;stroke-dashoffset:0;stroke-opacity:1;paint-order:markers stroke fill"
       id="rect17344"
       width="264.5833435058594"
       height="132.2916717529297"
       x="-264.5833435058594"
       y="164.7083129882812"
       transform="scale(-1,1)" />
    <path
       style="fill:#ffffff;stroke:#000000;stroke-width:0.2645833194;stroke-linecap:butt;stroke-linejoin:round;stroke-miterlimit:4;stroke-dasharray:none;stroke-opacity:1"
       d="m 89.76935272366478,192.2060860487806 c 0.47247023811306,-1.9607514881367 -1.60639880953622,-2.9765625000562 -3.21279761908335,-2.5749627976695 -1.88988095240836,-0.5905877976276 -3.35453869052489,-0.2362351190511 -3.75613839291162,0.3071056547664 -1.2756696428757,-0.070870535715 -2.5277157738463,0.5197172619123 -2.69308035718203,1.5119047619267 -1.37016369049607,0 -2.52771577384621,1.0866815476349 -1.4174107143063,4.6302083334006 -0.42522321429186,1.4646577381166 0.56696428572252,2.4568452381309 3.00018601194833,4.4412202381597 2.43322172622581,1.9843750000288 8.71707589296182,-5.4806547619584 8.07924107153497,-8.3154761905839 z"
       id="path17424"
       inkscape:connector-curvature="0" />
    <path
       style="fill:#ffffff;stroke:#000000;stroke-width:0.2645833194;stroke-linecap:butt;stroke-linejoin:miter;stroke-miterlimit:4;stroke-dasharray:none;stroke-opacity:1"
       d="m 108.2608704620461,206.3455020052608 c -1.286234601032,0.668173818718 -0.8853303098012,1.7372519286666 -0.08352172734,2.1715649108332 0.8018085824615,0.4343129821667 2.9232604568909,-1.3864606738397 2.9900778387627,-1.6704345467948 0.066817381872,-0.2839738729551 -2.9065561114229,-0.5011303640384 -2.9065561114227,-0.5011303640384 z"
       id="path17422"
       inkscape:connector-curvature="0" />
    <path
       style="fill:#ffffff;stroke:#000000;stroke-width:0.2645833194;stroke-linecap:round;stroke-linejoin:miter;stroke-miterlimit:4;stroke-dasharray:none;stroke-opacity:1"
       d="m 73.77623516391807,236.9726411089427 c -2.95293898813806,2.504092261941 -3.94512648815241,3.9923735119626 -4.77194940483109,7.3469122024875 -0.82682291667864,3.3545386905248 -0.29930536514233,4.8558904736494 -0.46634881982182,6.2757598384249 -0.1670434546795,1.4198693647756 -0.73845028733835,2.9374098045656 -1.25816754925063,3.8351032569596 -0.51971726191226,0.897693452394 -0.77957589286842,1.2284226190654 -1.25204613097054,1.5591517857369 -0.47247023810209,0.3307291666715 -1.39378720240117,1.795386904788 -1.46465773811647,2.5513392857513 -0.0708705357154,0.7559523809633 -0.42522321429189,2.6458333333718 -0.40159970238682,3.2364211309992 0.0236235119051,0.5905877976274 -0.21261160714592,2.291480654795 -0.0472470238102,3.189174107189 0.16536458333573,0.8976934523938 0.35435267857659,2.9529389881378 -0.42522321429183,3.8506324405319 -0.77957589286845,0.8976934523942 -1.08668154763481,2.1024925595545 -0.51971726191229,3.1183035714736 0.56696428572252,1.0158110119197 1.56006785404684,2.0459580764845 2.0779025635532,2.2798189130359 0.51783470950636,0.233860836551 2.13815621989724,0.8018085824613 2.45553878378827,1.2194172191602 0.31738256389103,0.4176086366984 1.28623460103201,1.570208473987 1.88759103787811,1.9042953833459 0.60135643684612,0.3340869093589 0.95214769167302,0.5846520913782 1.45327805571145,0.7851042369936 0.50113036403839,0.2004521456152 1.48668674664731,0.283973872955 1.77066061960241,-0.1169304182758 0.28397387295513,-0.4009042912305 0.43431298216666,-0.668173818718 0.98555638260892,-0.4510173276344 0.55124340044226,0.2171564910833 1.15259983728838,0.3173825638908 1.13589549182041,-0.2338608365513 -0.0167043454679,-0.5512434004424 0.1503391092115,-0.7851042369937 -0.46772167310249,-1.3196432919678 -0.61806078231406,-0.5345390549744 -1.41986936477555,-0.6514694732501 -1.58691281945504,-0.7516955460577 -0.1670434546795,-0.1002260728076 -0.78510423699356,-0.9688520371409 -0.90203465526913,-1.4866867466471 -0.11693041827566,-0.5178347095063 -1.21941721916018,-1.3697563283718 -1.97111276521784,-2.1047475289614 -0.75169554605756,-0.7349912005898 -1.16930418275632,-1.9544084197499 -0.86862596433325,-3.541321239205 0.30067821842306,-1.5869128194549 0.9516739306107,-2.584704543518 1.30602660918726,-3.2697863887662 0.35435267857659,-0.6850818452479 0.73232886905825,-1.842633928598 0.99218750001438,-2.291480654795 0.25985863095619,-0.4488467261972 0.51971726191229,-1.3465401785913 0.80319940477358,-2.1733630952698 0.28348214286123,-0.8268229166787 1.7008928571675,-2.0079985119337 1.98437500002879,-2.6458333333717 0.28348214286123,-0.6378348214378 0.87406994048885,-2.2914806547952 0.96856398810924,-3.2364211309994 0.0944940476204,-0.9449404762041 1.77176339288289,-2.8111979167074 2.26785714289002,-3.4962797619554 0.49609375000722,-0.6850818452481 2.61913663650245,-3.5501109786937 2.90311050945758,-4.2683978338155 0.28397387295514,-0.7182868551217 2.48894738729119,-6.0636773454245 2.82303429629756,-7.7341118904566 0.33408690900643,-1.6704345450319 -7.0963748951807,-2.3725737412623 -9.41141266295173,-2.0298563473594 z"
       id="path17404"
       inkscape:connector-curvature="0" />
    <path
       style="fill:#ffffff;stroke:#000000;stroke-width:0.2645833194;stroke-linecap:round;stroke-linejoin:miter;stroke-miterlimit:4;stroke-dasharray:none;stroke-opacity:1"
       d="m 71.26909746087915,276.7376137965015 c 0.55959557347144,0.3257347367968 1.30790665164137,0.5987788827447 1.45993799507444,1.3601153791467"
       id="path17406"
       inkscape:connector-curvature="0" />
    <path
       style="fill:#ffffff;stroke:#000000;stroke-width:0.2645833194;stroke-linecap:round;stroke-linejoin:miter;stroke-miterlimit:4;stroke-dasharray:none;stroke-opacity:1"
       d="m 72.17948428936266,276.420231232443 c 0.40090429144223,0.1837478002445 0.79230055151346,0.5419172820109 1.01838714476609,1.1354085194278"
       id="path17408"
       inkscape:connector-curvature="0" />
    <path
       style="fill:#ffffff;stroke:#000000;stroke-width:0.2645833194;stroke-linecap:round;stroke-linejoin:miter;stroke-miterlimit:4;stroke-dasharray:none;stroke-opacity:1"
       d="m 73.13998415427643,276.3367095050594 c 0.41760863691901,0.2255086639362 0.99120564238221,0.4762827179412 1.02596579007826,1.3406281604368"
       id="path17410"
       inkscape:connector-curvature="0" />
    <path
       style="opacity:1;fill:#ffffff;stroke:#000000;stroke-width:0.2645833194;stroke-linecap:butt;stroke-linejoin:round;stroke-miterlimit:4;stroke-dasharray:none;stroke-opacity:1"
       d="m 72.71317708982084,217.483243829189 c 0.89769345192029,3.3545386887548 0.70242872608337,4.1968473156508 1.0031069445064,4.6812733342213 0.30067821842309,0.4844260185705 0.5087978557863,4.437402219193 -0.6723777394689,5.3823426953971 -1.18117559525521,0.9449404762042 -3.15291740956796,3.0032387645736 -3.01928264589489,4.80730807416 0.13363476367306,1.8040693095864 1.40316501856715,5.3119818560043 2.77292134621614,6.4478773472255 1.36975632764887,1.135895491221 2.20711278780243,1.832240174042 2.79770058542999,2.1629693407134 0.59058779762762,0.3307291666716 4.44122023815959,0.874069940489 5.52790178579433,2.2206101190798 1.08668154763481,1.346540178591 1.77176339288283,2.5513392857513 2.85844494051764,3.4726562500504 1.08668154763477,0.921316964299 3.35453869052478,2.291480654795 3.75613839291151,2.5513392857512 0.40159970238672,0.2598586309562 1.3465401785909,0.8504464285837 1.58277529764193,1.3465401785908 0.23623511905106,0.4960937500073 0.40159970238678,2.7639508928972 0.23623511905106,3.3545386905249 -0.16536458333573,0.5905877976276 -0.80319940477351,1.4410342262113 -0.68508184524802,2.7639508928971 0.1181175595255,1.3229166666859 0.0472470238102,2.0788690476491 0.3071056547664,2.4095982143206 0.25985863095607,0.3307291666716 0.63783482143778,1.8190104166932 0.73232886905821,2.480468750036 0.0944940476205,0.6614583333428 0.92131696429904,2.5749627976564 1.22842261906534,3.0710565476634 0.30710565476642,0.4960937500072 1.27566964287564,1.9607514881237 1.41741071430627,2.1024925595543 0.14174107143066,0.1417410714306 1.00411932177427,1.0124098360628 1.05423235817813,2.4489835463063 0.0501130364039,1.4365737102434 -0.50113036403826,2.488947474724 0.050113036404,3.4745038573328 0.55124340044223,0.985556382609 0.66817381871799,1.8708866924102 2.67269527487164,1.4699824011794 2.00452145615367,-0.4009042912307 2.63928658393573,-0.4343129821666 3.24064302078179,-0.2171564910832 0.60135643684609,0.2171564910832 1.95440841974988,0.7349912005895 3.02348652969849,0.9020346552691 1.0690781099487,0.1670434546794 3.6248429665445,0.3674956002949 4.1593820215188,0.2672695274872 0.5345390549743,-0.1002260728078 0.1503391092116,-4.0591559487112 -4.8275558402367,-4.1092689851151 -1.0857824554166,-0.7683998915256 -1.1520142050654,-0.6219512039558 -1.3528140563647,-0.9999273946368 -0.2007998512993,-0.3779761906811 -1.29929315546637,-1.1693638399197 -1.85444568552919,-1.4882812508069 -0.55515253006287,-0.3189174108872 -1.70381782568261,-1.8382168307547 -1.93767866223384,-2.6400254132159 -0.23386083655124,-0.8018085824616 -0.73499120058959,-1.4198693647757 -0.78510423699342,-3.4243908209293 -0.0501130364038,-2.0045214561536 -0.0501130364038,-3.8921124940317 -0.1670434546795,-4.6772167310252 -0.11693041827563,-0.7851042369935 -0.35079125482686,-1.887591037878 -0.0835217273398,-3.4243908209291 0.26726952748716,-1.5367997830513 0.45101732763453,-3.3575734390574 0.51783470950635,-4.0758602941791 0.0668173818718,-0.7182868551217 0.25056518201929,-2.2049736017692 -0.30067821842297,-3.1404169479742 -0.5512434004423,-0.9354433462051 -1.33634763743579,-1.4031650193076 -1.46998240117939,-1.9209997288139 -0.13363476374359,-0.5178347095063 -0.63476512778199,-2.52235616566 -1.11919114635248,-3.2573473662498 -0.48442601857045,-0.7349912005896 -3.02348652969833,-4.3097211307304 -3.95892987590335,-5.1616427495959 -0.93544334620509,-0.8519216188651 -2.10474752896135,-2.0212258016215 -2.32190402004468,-2.3219040200446 -0.21715649108329,-0.300678218423 -0.51783470950636,-0.5011303640384 -0.46772167310246,-0.8853303098011 0.0501130364038,-0.3841999457628 -0.0668173818718,-0.8185129279294 -0.23386083655129,-1.2027128736921 -0.16704345467949,-0.3841999457628 -0.18374780014743,-0.8018085824615 0.2505651820192,-1.4198693647756 0.43431298216666,-0.618060782314 1.50339109211545,-2.4388344383204 1.70384323773081,-3.0568952206345 0.20045214561533,-0.618060782314 0.0501130364038,-2.1882692563011 0,-2.8731474204869 -0.0501130364038,-0.6848781641858 -0.28397391942157,-2.3720170172094 -0.0167043920753,-3.1070082174113 0.26726952734613,-0.7349912002018 0.83521727295665,-2.3720170551968 1.10248680030281,-2.7395126552978 0.26726952734609,-0.3674956001009 1.80406930958638,-1.6704345459134 2.00452145509601,-2.7061039643796 0.2004521455096,-1.0356694184663 0.2004521455096,-6.0803817471246 0.5679477456105,-7.0826424746726 0.36749560010098,-1.0022607275481 -14.29891975402001,-0.3674955536699 -14.29891975402001,-0.3674955536699 z"
       id="path17396"
       inkscape:connector-curvature="0" />
    <path
       style="opacity:1;fill:#ffffff;stroke:none;stroke-width:0.2645833194;stroke-linecap:round;stroke-linejoin:round;stroke-miterlimit:4;stroke-dasharray:none;stroke-opacity:1"
       d="m 90.91509309903281,200.320762337171 c -0.0354352678763,0.7087053575269 0.059058779794,1.6418340782708 -1.3583519352601,1.2166108637546 1.35551445830718,0.5283820665396 -0.90798957198673,0.719310043107 0.078784101496,2.102024838544 0.73499120058953,-0.016704345468 3.64154731201182,-0.317382563891 4.17608636698607,-0.3006782184228 0.53453905497419,0.016704345468 2.07133883802494,0.4176086366988 3.27405171171689,0.7349912005897 1.20271287369205,0.3173825638911 3.00678218423012,-0.1002260728073 3.55802558467222,-0.1169304182756 0.5512434004422,-0.016704345468 3.040190875166,-0.066817381872 4.0424516032426,-0.2004521456151 1.0022607280766,-0.1336347637434 2.9189636801239,0.1906430078757 3.887527668233,0.096148960256 0.9685639881091,-0.09449404762 2.4804687500355,-1.0630580357297 3.4962797619548,-1.1103050595397 1.0158110119193,-0.04724702381 5.2207961310269,2.9765625000427 5.1499255953119,4.2758556548232 -0.070870535715,1.2992931547806 -1.8190104166928,1.9843750000285 -3.1891741071885,2.1497395833642 -1.3701636904959,0.1653645833357 -2.6458333333715,-1.2992931547804 -3.2364211309989,-1.5355282738314 -0.5905877976276,-0.2362351190512 -4.1203207329122,-0.033911360273 -4.6548597876044,-0.033911360273 -0.5345390546922,0 -2.1548605093619,0.6514694260785 -3.2907560011822,0.768399844354 -1.1358954918203,0.1169304182756 -1.8207737093119,0.7349912469678 -4.56028636460952,1.2027129198235 -2.73951265529746,0.4677216728556 -4.51017327396531,-0.4677216728557 -7.28309462018099,1.53679978224 l -11.08693328638604,1.4633128020181 c -1.37016369049593,-0.2362351190511 -2.4568452381306,1.653645833357 -2.90569196432752,2.4095982143204 -0.44884672619683,0.7559523809632 -2.19388545970392,3.0092792711312 -2.69501582374231,3.9948356537398 -0.50113036403843,0.9855563826089 -1.75395627413435,2.3051996745767 -2.12145187442921,3.1404169479739 -0.3674956002947,0.8352172733973 -0.53453905497426,3.65825165748 -0.55124340044226,5.5291383498901 -0.0167043454679,1.8708866924097 0.50113036403843,2.8564430750185 1.52009543758305,4.0758602941785 1.01896507354475,1.2194172191601 0.63476512778189,2.2717909836407 0.58465209137812,3.0234865296983 -0.0501130364039,0.7516955460574 -0.76839989152545,1.186008528224 -1.20271287369208,0.8853303098012 -0.4343129821666,-0.3006782184232 -0.40090429123063,-1.1358954918205 -0.25056518201913,-1.7873649650703 0.1503391092115,-0.6514694732498 -0.31738256389096,-1.2027128736922 -0.58465209137816,-1.0356694190125 -0.18374780014736,0.5345390549744 -0.25056518201923,2.0212258016215 0.0835217273397,2.7729213476789 0.33408690935896,0.7516955460575 1.30667273334923,0.9126728778884 1.22836296255015,1.6623282390329 -0.0607376510504,0.5814383731248 -0.75822851301933,0.5338722750604 -1.56244987190905,0.074923689633 -0.0835217273397,0.6848781641851 -0.91537203889213,0.6178869792545 -1.36975632837154,-0.050113036404 -0.38419994576277,1.0356694190124 -1.09610997022493,0.4518460091019 -1.36975632837152,-0.2004521456156 -0.60135643684596,1.4866867466473 -1.41469908270034,-0.094161130694 -1.60361716492271,-0.6514694732498 -0.33408690935893,-0.9855563826087 -0.5470035416284,-3.1495741077261 -0.6178740773436,-4.8032199410832 -0.0708705357152,-1.6536458333572 0.77957589286828,-3.2127976190938 1.08668154763461,-3.732514881006 0.30710565476626,-0.5197172619123 0.35435267857649,-2.2914806547949 0.35435267857649,-3.047433035758 0,-0.7559523809633 -0.30532543936148,-3.0498387720726 -0.35543847576524,-3.7514212817263 -0.0501130364039,-0.7015825096538 -0.10022607280767,-2.6392865839355 -0.10022607280767,-3.4243908209289 0,-0.7851042369935 0.78510423699343,-1.2027128736921 1.18600852822412,-1.4365737102433 0.40090429123059,-0.2338608365513 0.50113036403822,-1.520095437583 0.58465209137809,-1.8708866924099 0.0835217273398,-0.3507912548265 0.81112003739983,-1.1985541760074 1.24815500787477,-1.7064596822351 0.43703497047504,-0.5079055062277 1.99248801290652,-2.118835429924 2.37668795866925,-2.4362179938152 0.38419994576276,-0.3173825638908 0.65146947324982,-0.9688520371408 0.75169554605749,-1.3697563283713 0.10022607280769,-0.4009042912308 0.21434343160863,-0.8714810374911 0.56869611037209,-1.5093158592654 0.35435267876342,-0.6378348217742 1.15755204419858,-1.0394344765086 1.67726930611073,-1.3937871550854 0.51971726191229,-0.3543526785765 1.77176339288266,-0.8268229166788 2.14973958336425,-0.9213169642988 0.37797619048162,-0.09449404762 1.63002232145199,-0.5433407738174 2.85844494051729,-1.2047991071601 1.22842261906514,-0.6614583333428 1.22842261906514,-2.4332217262255 0.47247023810186,-3.7797619048161 0.25805691214919,-1.0465827837445 0.90952642846331,-0.9964697990601 1.09327422861071,-1.5310088540344 0.18374780014743,-0.5345390549742 1.10371237856636,-2.7920938246022 0.70211267617961,-3.5716697174707 0.89769345239387,-1.0158110119192 2.92931547623273,-0.4015997023867 3.59077380957558,-2.2678571428897 1.2992931547806,0.4015997023867 2.59858630956116,0.6850818452479 3.02380952385299,-0.4488467261969 0.58445939673102,1.0599134550891 0.85172892421808,1.8450176920828 0.83502457875018,2.4129654379927 -0.0167043454679,0.5679477459104 -0.50113036403839,1.4031650193074 -0.38419994576276,1.8207736560061 0.11693041827556,0.4176086366986 1.04664827359609,2.2025825475248 1.18695633880398,2.5327181437456 0.12439919110415,0.292703067808 0.98729491101982,1.5626113697798 -0.49204059642332,1.3482190506461"
       id="path17369"
       inkscape:connector-curvature="0"
       sodipodi:nodetypes="cccssssssssssssccscccsscssssssssccsssssssssssscscccsssc" />
    <path
       style="fill:none;stroke:#000000;stroke-width:0.2645833194;stroke-linecap:round;stroke-linejoin:miter;stroke-miterlimit:4;stroke-dasharray:none;stroke-opacity:1"
       d="m 68.72168473940405,237.0647933208252 c -0.26807101543811,-0.6390027897618 -0.57965712890716,-2.1473977803763 -0.50878659315444,-3.3049498643371"
       id="path17371"
       inkscape:connector-curvature="0"
       sodipodi:nodetypes="cc" />
    <path
       sodipodi:nodetypes="cc"
       inkscape:connector-curvature="0"
       id="path17375"
       d="m 70.0914410677756,237.2652454664407 c -0.37142346277325,-0.5460375384742 -0.61306581986068,-1.8634239072713 -0.54219528410796,-3.0209759912322"
       style="fill:none;stroke:#000000;stroke-width:0.2645833194;stroke-linecap:round;stroke-linejoin:miter;stroke-miterlimit:4;stroke-dasharray:none;stroke-opacity:1" />
    <path
       style="fill:none;stroke:#000000;stroke-width:0.2645833194;stroke-linecap:round;stroke-linejoin:miter;stroke-miterlimit:4;stroke-dasharray:none;stroke-opacity:1"
       d="m 71.46119739614708,237.3153585028452 c -0.4657426485784,-0.2657874319991 -0.9079523559829,-1.5709960208711 -0.94338762385925,-3.1183360514718"
       id="path17377"
       inkscape:connector-curvature="0"
       sodipodi:nodetypes="cc" />
    <path
       style="fill:none;stroke:#000000;stroke-width:0.2645833194;stroke-linecap:round;stroke-linejoin:miter;stroke-miterlimit:4;stroke-dasharray:none;stroke-opacity:1"
       d="m 90.91509309903281,200.320762337171 c -0.0183897029682,-0.4231377337618 -0.71162004025371,-0.6308466048892 -0.71162004025371,-0.2811507972093 0,0.4429802193415 -0.91873900122179,0.7099346827623 -0.98555638312882,0.075169554645"
       id="path17380"
       inkscape:connector-curvature="0"
       sodipodi:nodetypes="csc" />
    <path
       style="fill:#000000;stroke:none;stroke-width:0.2645833194;stroke-linecap:butt;stroke-linejoin:miter;stroke-miterlimit:4;stroke-dasharray:none;stroke-opacity:1"
       d="m 86.94634309688446,196.7536120376151 c 0.14174107150539,-1.7953869057352 1.60639881039458,-2.244233632169 2.50409226326218,-1.7717633938177 -0.70870535752704,0.4842819943101 -1.64183407827095,0.9213169647853 -2.50409226326218,1.7717633938177 z"
       id="path17386"
       inkscape:connector-curvature="0" />
    <path
       style="opacity:1;fill:none;stroke:#000000;stroke-width:0.2645833194;stroke-linecap:round;stroke-linejoin:miter;stroke-miterlimit:4;stroke-dasharray:none;stroke-opacity:1"
       d="m 87.65504845441145,197.19064700809 c 0.48428199431021,-0.6378348217744 1.26420559316813,-1.2302033315893 1.74848758747824,-0.7931683611143 0.42758306429438,0.3858676433876 -0.0662238112817,0.8453079744674 -0.29445446329727,0.8902825563327 -0.45448550613074,0.089559817761 -0.85847817191366,-0.4017464851601 -0.26764450892742,-1.0203586544408"
       id="path17388"
       inkscape:connector-curvature="0"
       sodipodi:nodetypes="cssc" />
    <circle
       style="opacity:1;fill:#000000;fill-opacity:1;stroke:none;stroke-width:0.2645833194;stroke-linecap:round;stroke-linejoin:round;stroke-miterlimit:4;stroke-dasharray:none;stroke-dashoffset:0;stroke-opacity:1;paint-order:markers stroke fill"
       id="path17390"
       cx="89.02816772460938"
       cy="196.7890319824219"
       r="0.4370349943637848" />
    <path
       style="fill:#ffffff;stroke:#000000;stroke-width:0.2645833194;stroke-linecap:round;stroke-linejoin:miter;stroke-miterlimit:4;stroke-dasharray:none;stroke-opacity:1"
       d="m 84.74935648855134,196.8481060852845 c -0.30710565492845,-0.7677641373209 -0.77957589327974,-1.2047991077959 -1.4055989590953,-0.3189174108871 -0.62602306581556,0.8858816969088 -0.16536458342298,1.5591517865594 -0.059058779794,1.9961867570345 0.10630580362908,0.437034970475 0.70870535752712,1.0512462803318 1.16936383991964,1.1221168160844 0.46065848239259,0.070870535753 0.48428199431015,-0.437034970475 0.41341145855746,-0.6260230658155"
       id="path17392"
       inkscape:connector-curvature="0" />
    <path
       style="fill:none;stroke:#000000;stroke-width:0.2645833194;stroke-linecap:round;stroke-linejoin:miter;stroke-miterlimit:4;stroke-dasharray:none;stroke-opacity:1"
       d="m 84.04792175059657,197.0829423905713 c -0.37584777322715,0.4343129823955 -0.16704345476765,1.2945867744489 0.14198693655241,1.49503892017 0.22355051958215,0.1450057424316 0.49453958322239,-0.036115747804 0.40090429144226,-0.283973873105 -0.10363696449313,-0.2743331413054 -0.41760863691901,-0.075169554646 -0.40925646418064,0.1670434547679"
       id="path17394"
       inkscape:connector-curvature="0"
       sodipodi:nodetypes="cssc" />
    <path
       style="opacity:1;fill:none;stroke:#000000;stroke-width:0.2645833194;stroke-linecap:round;stroke-linejoin:miter;stroke-miterlimit:4;stroke-dasharray:none;stroke-opacity:1"
       d="m 104.0379539692509,271.9826857391074 c 0.3071056549284,0.047247023835 1.4288887650974,0.00259944944 1.6180497770025,0.1730505327103"
       id="path17398"
       inkscape:connector-curvature="0" />
    <path
       style="opacity:1;fill:none;stroke:#000000;stroke-width:0.2645833194;stroke-linecap:round;stroke-linejoin:miter;stroke-miterlimit:4;stroke-dasharray:none;stroke-opacity:1"
       d="m 104.4631771837671,272.667767584717 c 0.4606584823926,0.070870535753 1.5469833601652,-0.2301826477919 1.7661467600989,0.085990528409"
       id="path17400"
       inkscape:connector-curvature="0" />
    <path
       style="opacity:1;fill:none;stroke:#000000;stroke-width:0.2645833194;stroke-linecap:round;stroke-linejoin:miter;stroke-miterlimit:4;stroke-dasharray:none;stroke-opacity:1"
       d="m 104.8175298625306,273.3882846982029 c 0.6496465777333,0.070870535753 1.8405976218599,-0.1720419371483 1.9739356448986,0.4051312806236"
       id="path17402"
       inkscape:connector-curvature="0" />
    <path
       style="fill:#ffffff;stroke:#000000;stroke-width:0.2645833194;stroke-linecap:round;stroke-linejoin:miter;stroke-miterlimit:4;stroke-dasharray:none;stroke-opacity:1"
       d="m 112.9332866073578,205.7074561246468 c 0.8686259643331,-0.8686259643332 2.527156751354,-0.5145539566587 3.763278315982,-0.030127938089 1.2361215646278,0.4844260185705 2.3887214019161,1.6036171649227 0.8519216188651,1.820773656006 -1.5367997830508,0.2171564910834 -3.6843186608593,0.3250499913399 -4.2522664067695,0.057780463852"
       id="path17361"
       inkscape:connector-curvature="0"
       sodipodi:nodetypes="cssc" />
    <path
       style="fill:none;stroke:#000000;stroke-width:0.2645833194;stroke-linecap:round;stroke-linejoin:miter;stroke-miterlimit:4;stroke-dasharray:none;stroke-opacity:1"
       d="m 113.1330060574982,204.7147355538434 c -0.4488467264338,0.8622581849912 -0.1063058036291,3.0710565492836 0.649646577733,3.3899739601707"
       id="path17363"
       inkscape:connector-curvature="0" />
    <path
       style="fill:#ffffff;stroke:#000000;stroke-width:0.2645833194;stroke-linecap:butt;stroke-linejoin:round;stroke-miterlimit:4;stroke-dasharray:none;stroke-opacity:1"
       d="m 152.7732589745944,191.1194045011301 c -2.244233630985,-1.11030505954 -2.693080357182,-1.4882812500216 -3.7561383929118,-0.8504464285839 -1.0630580357298,0.6378348214379 -1.4646577381165,0.7323288690583 -1.5355282738318,1.2756696428757 -0.070870535715,0.5433407738175 -0.4724702381022,1.5591517857371 -1.2756696428758,1.7245163690727 -0.8031994047735,0.1653645833357 -2.0975268287092,0.4478727469948 -2.4149093926002,0.8654813836936 -0.317382563891,0.4176086366987 -0.4343129821667,0.935443346205 0.5345390549743,1.5033910921153 -1.0189650735448,1.9209997288141 0.334086909359,0.7349912005898 1.0022607280769,2.5390605111282 -1.0022607280769,-0.5011303640385 -1.8875910378781,-0.8018085824616 -1.8374780014744,0.016704345468 0.050113036404,0.8185129279295 0.2338608365514,0.8686259643333 0.016704345468,1.3530519829038 -0.2171564910834,0.4844260185706 0.1336347637434,1.1191911463525 0.4844260185704,1.4532780557115 0.3507912548269,0.334086909359 0.8352172733975,1.3029389465 0.5178347095065,2.1214518744294 1.3029389464998,0.4677216731024 3.2072343298457,1.0857824554164 5.712886150038,0.8519216188652 0.033408690936,-1.0022607280769 0.8519216188653,-1.0022607280769 1.5200954375832,-2.7228083112757 0.668173818718,-1.7205475831986 3.6081385391084,-6.3810599148685 3.6081385391084,-6.3810599148685 z"
       id="path17480"
       inkscape:connector-curvature="0"
       sodipodi:nodetypes="cssssccsssccscc" />
    <path
       style="fill:none;stroke:#000000;stroke-width:0.2645833194px;stroke-linecap:round;stroke-linejoin:miter;stroke-opacity:1"
       d="m 150.6397949142363,196.8073207430581 c 0.4176086366986,-0.8018085824615 0.968852037141,-0.4176086366987 1.1525998372885,-0.08352172734 0.1837478001473,0.334086909359 0.2505651820192,0.8519216188654 0.1837478001473,1.0857824554166 -0.066817381872,0.2338608365513 -0.4176086366987,0.1837478001475 -0.6514694732499,0.5846520913782 -0.2338608365514,0.4009042912308 -0.4009042912309,0.7851042369935 -0.7851042369937,1.0022607280769 -0.3841999457628,0.2171564910834 -1.2361215646282,0.2672695274872 -1.286234601032,-0.317382563891"
       id="path17482"
       inkscape:connector-curvature="0" />
    <path
       style="fill:none;stroke:#000000;stroke-width:0.2645833194px;stroke-linecap:round;stroke-linejoin:miter;stroke-opacity:1"
       d="m 149.6709428770952,198.3441205261094 c 0.2505651820193,-0.2839738729551 0.317382563891,-0.3841999457629 0.367495600295,-0.6013564368461"
       id="path17484"
       inkscape:connector-curvature="0" />
    <path
       style="fill:#ffffff;stroke:#000000;stroke-width:0.2645833194px;stroke-linecap:butt;stroke-linejoin:round;stroke-opacity:1"
       d="m 152.7496354626923,190.0090994415881 c -1.3701636904962,-1.2047991071605 -4.7010788691162,0.4724702381021 -0.9685639881094,2.5277157738463 -0.3307291666714,1.9135044643136 0.7795758928685,3.0001860119485 1.4882812500218,3.2836681548097 -0.5905877976277,0.5905877976278 -0.8268229166788,1.6300223214523 -0.6142113095329,2.1497395833646 -1.4646577381165,1.1575520833503 -1.7818375365418,3.2784393305741 -1.0731321793886,3.656415521056 -0.052079956779,1.1261103127895 1.9944491436878,-0.1601357591005 2.5614134294103,-0.7034765329177 2.2442336309851,-0.3071056547664 3.2600446429047,-0.4960937500072 3.567150297671,-3.0238095238535 0.4252232142919,-0.6378348214379 0.3779761904817,-2.22061011908 -0.1417410714307,-3.0710565476638 0.188988095241,-1.3937872024013 -0.070870535715,-2.4804687500361 -1.1811755952552,-3.33091517862 -0.8031994047737,-0.8740699404889 -2.669456845277,-2.1969866071748 -3.6380208333863,-1.4882812500216 z"
       id="path17486"
       inkscape:connector-curvature="0"
       sodipodi:nodetypes="cccccccccc" />
    <path
       style="fill:none;stroke:#000000;stroke-width:0.2645833194px;stroke-linecap:round;stroke-linejoin:miter;stroke-opacity:1"
       d="m 145.8038869781969,195.8384686525404 c -0.050113036431,0.8435694465765 -1.077430283251,0.6431173008553 -1.0440215922977,0.058465209169 0.020270635295,-0.3547361176646 0.021177217174,-0.4970772104197 -0.1709227558086,-0.6641206651874 -0.1920999729826,-0.1670434547677 -0.9763647747619,-0.090021176023 0.1261220267046,0.5698004703094"
       id="path17488"
       inkscape:connector-curvature="0"
       sodipodi:nodetypes="cssc" />
    <path
       style="fill:none;stroke:#000000;stroke-width:0.2645833194px;stroke-linecap:butt;stroke-linejoin:miter;stroke-opacity:1"
       d="m 144.2481243441745,195.2564718624584 0.4429408489219,0.3543526791376"
       id="path17490"
       inkscape:connector-curvature="0" />
    <path
       style="fill:none;stroke:#000000;stroke-width:0.2645833194px;stroke-linecap:round;stroke-linejoin:miter;stroke-opacity:1"
       d="m 147.7833519171952,193.625142876868 c -0.1169304183373,0.7767520646695 0.3841999459656,1.2194172198037 0.3340869095353,2.255086639363"
       id="path17492"
       inkscape:connector-curvature="0" />
    <path
       style="fill:#000000;stroke:none;stroke-width:0.2645833194px;stroke-linecap:butt;stroke-linejoin:miter;stroke-opacity:1"
       d="m 148.5768083273413,192.814982121245 c -0.083521727384,0.56794774621 0.3424390822738,2.2383822938862 0.4760738460879,2.7562170036659 0.6347651281169,-1.294586774449 -0.083521727384,-2.079691011857 -0.4760738460879,-2.7562170036659 z"
       id="path17494"
       inkscape:connector-curvature="0"
       sodipodi:nodetypes="ccc" />
    <path
       sodipodi:nodetypes="cccssssssssssssccscccsscssssssssccsssssssssssscscccsssc"
       inkscape:connector-curvature="0"
       id="path18915"
       d="m 90.91509309903281,200.320762337171 c -0.0354352678763,0.7087053575269 0.059058779794,1.6418340782708 -1.3583519352601,1.2166108637546 1.35551445830718,0.5283820665396 -0.90798957198673,0.719310043107 0.078784101496,2.102024838544 0.73499120058953,-0.016704345468 3.64154731201189,-0.317382563891 4.17608636698607,-0.3006782184228 0.53453905497419,0.016704345468 2.07133883802494,0.4176086366988 3.27405171171689,0.7349912005897 1.20271287369205,0.3173825638911 3.00678218423012,-0.1002260728073 3.55802558467222,-0.1169304182756 0.5512434004422,-0.016704345468 3.040190875166,-0.066817381872 4.0424516032426,-0.2004521456151 1.0022607280766,-0.1336347637434 2.9189636801239,0.1906430078757 3.887527668233,0.096148960256 0.9685639881091,-0.09449404762 2.4804687500355,-1.0630580357297 3.4962797619548,-1.1103050595397 1.0158110119193,-0.04724702381 5.2207961310269,2.9765625000427 5.1499255953119,4.2758556548232 -0.070870535715,1.2992931547806 -1.8190104166928,1.9843750000285 -3.1891741071885,2.1497395833642 -1.3701636904959,0.1653645833357 -2.6458333333715,-1.2992931547804 -3.2364211309989,-1.5355282738314 -0.5905877976276,-0.2362351190512 -4.1203207329122,-0.033911360273 -4.6548597876044,-0.033911360273 -0.5345390546922,0 -2.1548605093619,0.6514694260785 -3.2907560011822,0.768399844354 -1.1358954918203,0.1169304182756 -1.8207737093119,0.7349912469678 -4.56028636460952,1.2027129198235 -2.73951265529746,0.4677216728556 -4.51017327396531,-0.4677216728557 -7.28309462018096,1.53679978224 m -11.08693328638607,1.4633128020181 c -1.37016369049593,-0.2362351190511 -2.4568452381306,1.653645833357 -2.90569196432752,2.4095982143204 -0.44884672619683,0.7559523809632 -2.19388545970392,3.0092792711312 -2.69501582374228,3.9948356537398 -0.50113036403846,0.9855563826089 -1.75395627413438,2.3051996745767 -2.12145187442917,3.1404169479739 -0.36749560029473,0.8352172733973 -0.53453905497429,3.65825165748 -0.55124340044229,5.5291383498901 -0.0167043454679,1.8708866924097 0.50113036403842,2.8564430750185 1.52009543758304,4.0758602941785 1.01896507354475,1.2194172191601 0.63476512778192,2.2717909836407 0.58465209137813,3.0234865296983 -0.0501130364039,0.7516955460574 -0.76839989152546,1.186008528224 -1.20271287369209,0.8853303098012 -0.43431298216659,-0.3006782184232 -0.40090429123059,-1.1358954918205 -0.25056518201909,-1.7873649650703 0.15033910921146,-0.6514694732498 -0.31738256389097,-1.2027128736922 -0.58465209137816,-1.0356694190125 -0.1837478001474,0.5345390549744 -0.25056518201923,2.0212258016215 0.0835217273396,2.7729213476789 0.33408690935896,0.7516955460575 1.30667273334922,0.9126728778884 1.22836296255018,1.6623282390329 -0.0607376510505,0.5814383731248 -0.75822851301936,0.5338722750604 -1.56244987190905,0.074923689633 -0.0835217273398,0.6848781641851 -0.91537203889213,0.6178869792545 -1.36975632837154,-0.050113036404 -0.38419994576276,1.0356694190124 -1.09610997022493,0.4518460091019 -1.36975632837155,-0.2004521456156 -0.60135643684596,1.4866867466473 -1.41469908270035,-0.094161130694 -1.60361716492271,-0.6514694732498 -0.33408690935893,-0.9855563826087 -0.5470035416284,-3.1495741077261 -0.6178740773436,-4.8032199410832 -0.0708705357152,-1.6536458333572 0.77957589286828,-3.2127976190938 1.08668154763464,-3.732514881006 0.30710565476622,-0.5197172619123 0.35435267857646,-2.2914806547949 0.35435267857646,-3.047433035758 0,-0.7559523809633 -0.30532543936148,-3.0498387720726 -0.35543847576524,-3.7514212817263 -0.0501130364039,-0.7015825096538 -0.10022607280767,-2.6392865839355 -0.10022607280767,-3.4243908209289 0,-0.7851042369935 0.78510423699342,-1.2027128736921 1.18600852822412,-1.4365737102433 0.40090429123062,-0.2338608365513 0.50113036403826,-1.520095437583 0.58465209137809,-1.8708866924099 0.0835217273398,-0.3507912548265 0.81112003739986,-1.1985541760074 1.2481550078748,-1.7064596822351 0.43703497047501,-0.5079055062277 1.99248801290649,-2.118835429924 2.37668795866921,-2.4362179938152 0.38419994576273,-0.3173825638908 0.65146947324983,-0.9688520371408 0.75169554605749,-1.3697563283713 0.10022607280773,-0.4009042912308 0.21434343160861,-0.8714810374911 0.5686961103721,-1.5093158592654 0.35435267876342,-0.6378348217742 1.15755204419857,-1.0394344765086 1.67726930611076,-1.3937871550854 0.51971726191232,-0.3543526785765 1.77176339288262,-0.8268229166788 2.14973958336425,-0.9213169642988 0.37797619048159,-0.09449404762 1.63002232145196,-0.5433407738174 2.85844494051729,-1.2047991071601 1.22842261906514,-0.6614583333428 1.22842261906514,-2.4332217262255 0.47247023810186,-3.7797619048161 0.25805691214919,-1.0465827837445 0.90952642846331,-0.9964697990601 1.09327422861067,-1.5310088540344 0.18374780014746,-0.5345390549742 1.10371237856637,-2.7920938246022 0.70211267617965,-3.5716697174707 0.8976934523939,-1.0158110119192 2.92931547623269,-0.4015997023867 3.59077380957558,-2.2678571428897 1.29929315478056,0.4015997023867 2.59858630956113,0.6850818452479 3.02380952385299,-0.4488467261969 0.58445939673098,1.0599134550891 0.85172892421808,1.8450176920828 0.83502457875018,2.4129654379927 -0.0167043454679,0.5679477459104 -0.50113036403843,1.4031650193074 -0.38419994576276,1.8207736560061 0.1169304182756,0.4176086366986 1.04664827359608,2.2025825475248 1.18695633880398,2.5327181437456 0.12439919110415,0.292703067808 0.98729491101979,1.5626113697798 -0.49204059642332,1.3482190506461"
       style="opacity:1;fill:none;stroke:#000000;stroke-width:0.2645833194;stroke-linecap:round;stroke-linejoin:round;stroke-miterlimit:4;stroke-dasharray:none;stroke-opacity:1" />
    <path
       style="fill:#ffffff;stroke:#000000;stroke-width:0.2645833194;stroke-linecap:round;stroke-linejoin:miter;stroke-miterlimit:4;stroke-dasharray:none;stroke-opacity:1"
       d="m 117.7735456599138,205.2597195498593 c 9.7300472911114,0.5030217160453 30.5777539280913,0.4677216726087 37.6269877126554,-0.7851042369936 1.0356694190127,0.3674956002947 4.6605123855568,2.2216779472367 5.2618688224029,2.2049736017688 -1.4866867466472,0.4176086366985 -5.5625470408257,1.78736496507 -6.080381750332,1.8040693105381 -2.4722431292559,0.1169304182755 -35.1684088553009,-0.7165678205285 -36.6534415300984,-0.7333013428314"
       id="path17367"
       inkscape:connector-curvature="0"
       sodipodi:nodetypes="ccccc" />
    <path
       style="fill:#ffffff;stroke:#000000;stroke-width:0.2645833194;stroke-linecap:butt;stroke-linejoin:round;stroke-miterlimit:4;stroke-dasharray:none;stroke-opacity:1"
       d="m 116.3290693230455,202.9545198752831 2.3386083655123,0.016704345468 0.5345390549743,7.7508162971264 -2.2049736017688,-0.033408690936 z"
       id="path17365"
       inkscape:connector-curvature="0" />
    <path
       style="fill:#ffffff;stroke:#000000;stroke-width:0.2645833194;stroke-linecap:round;stroke-linejoin:miter;stroke-miterlimit:4;stroke-dasharray:none;stroke-opacity:1"
       d="m 90.41531207367606,201.6134680417337 c 0.15724010255248,0.384563641584 -0.51602998709822,0.4081871535015 -0.51602998709822,0.6680457845948 0,0.2598586310932 1.03943452437298,1.4292224710128 -0.0590587797938,1.6182105663533 -1.09849330416685,0.1889880953405 -2.59858631093236,-0.035435267876 -3.31910342441813,-0.9331287207439"
       id="path17382"
       inkscape:connector-curvature="0" />
    <path
       style="fill:#ffffff;stroke:#000000;stroke-width:0.2645833194px;stroke-linecap:butt;stroke-linejoin:round;stroke-opacity:1"
       d="m 136.1895539745957,246.2330579896356 c -0.094494047868,4.9373140011235 0.2126116077038,7.9375000209449 0.6850818470458,8.9769345474971 0.4724702393419,1.0394345265524 1.937127981302,4.2286086421106 2.1497395890058,4.8664434652222 0.2126116077039,0.6378348231116 0.708705359013,1.7008928616311 0.9213169667168,2.36235119671 0.2126116077039,0.6614583350785 0.6380869340811,0.868533110597 1.2728520635289,0.9687591836678 0.6347651294478,0.1002260730707 1.6704345511785,0.7516955480303 2.2717909896027,1.5033910960606 0.6013564384242,0.7516955480302 3.474503866451,2.7061039729089 4.0591559593635,3.2740517203093 0.5846520929123,0.5679477474006 2.62258224535,1.3864606774782 3.157121301727,1.9209997338551 0.534539056377,0.5345390563771 1.5702084781075,1.1860085313368 1.4198693685015,2.4388344447203 -0.1503391096059,1.2528259133837 -0.918739003148,2.2550866440909 -1.7205475877135,2.7729213549561 -0.8018085845656,0.5178347108652 -1.6704345511783,0.4009042922827 -1.8040693152727,1.3530519864545 -0.7851042390538,0.3173825647239 -0.8352172755892,0.7349912025184 -0.7182868570066,1.069078112754 -0.4009042922829,0.5679477474006 -0.033408691023,1.6036171691314 0.9688520396833,1.2862346044073 1.0022607307071,-0.3173825647238 2.1381562255085,-0.7683998935419 2.6225822453502,-1.1358954948012 0.4844260198417,-0.3674956012593 2.4054257536973,-1.4699824050371 2.8731474280273,-1.937704079367 0.4677216743298,-0.4677216743301 2.2216779530674,-1.4031650229898 2.6726952818855,-1.9042953883433 0.4510173288181,-0.5011303653535 1.0857824582658,-0.8185129300773 1.2027128768483,-1.9711127703905 0.1169304185826,-1.1525998403131 -0.1336347640943,-1.9878171159022 -1.4198693685016,-2.689399627397 -1.2862346044073,-0.701582511495 -3.8419994677101,-2.3887214081852 -4.7607384708582,-3.6415473215689 -0.918739003148,-1.2528259133837 -2.5891735543262,-4.4433559061344 -3.2907560658212,-5.479025327865 -0.7015825114949,-1.0356694217305 -1.5869128236195,-1.6036171691312 -2.0379301524376,-1.8374780062961 -0.4510173288181,-0.2338608371651 -1.1358954948012,-1.4699824050369 -1.1191911492895,-2.3720170626732 0.016704345512,-0.9020346576363 0.5011303653535,-2.6559909363736 0.6681738204714,-3.0568952286565 0.1670434551178,-0.4009042922826 0.1169304185825,-1.0022607307068 0.1670434551178,-1.2027128768482 0.050113036535,-0.2004521461415 1.6891272774106,-2.3994176588165 0.4607046551215,-5.8248268940457 -1.228422622289,-3.4254092352293 -10.7014509210966,0.2598586316385 -10.7014509210964,0.2598586316384 z"
       id="path18946"
       inkscape:connector-curvature="0" />
    <path
       style="fill:#ffffff;stroke:#000000;stroke-width:0.2645833194px;stroke-linecap:butt;stroke-linejoin:round;stroke-opacity:1"
       d="m 156.2459156346586,222.6567930464735 c -0.5197172632762,3.6852678668671 -0.9449404786839,5.3389137045639 -1.6536458376969,6.2602306712807 -0.7087053590128,0.9213169667168 -0.968563990651,1.441034229993 -1.2992931581903,2.0788690531045 -0.3307291675394,0.6378348231117 -0.8976934547497,2.0552455411376 -1.4174107180258,2.3387276847427 -0.5197172632762,0.2834821436051 -0.6850818470458,2.0079985172032 -1.1339285744207,2.4568452445781 -0.4488467273749,0.4488467273748 -1.3937872060588,1.1575520863878 -1.3701636940917,2.1969866129401 0.023623511967,1.0394345265523 -0.1417410718024,3.3545386993277 -0.2362351196707,4.2522321540773 -0.094494047868,0.8976934547498 -0.4665560718598,3.4101426636045 -1.6024515660617,4.0783164837232 -1.1358954942019,0.6681738201187 -4.0424516117185,2.5724692074571 -6.8821903472234,2.0713388423681 -2.8397387355045,2.0045214603565 -5.6794774710092,4.0090429207127 -5.9133383080507,4.1426776847365 -0.2338608370416,0.1336347640237 -1.3196432243387,0.9354433251975 -1.9377040082745,1.1693041623623 -0.618060783936,0.2338608371651 -1.9711127703905,0.6514694749596 -2.3386083716497,0.9187390031481 -0.3674956012592,0.2672695281886 -0.8018085845656,0.8853303121245 -0.8018085845656,1.6036171691313 0,0.7182868570066 0.3646800044445,2.150865328058 0.081197860839,2.8595706870709 -0.2834821436051,0.708705359013 -1.1339285744205,2.6694568522821 -1.3937872060587,3.1655506035911 -0.259858631638,0.496093751309 -1.6536458376968,2.92931548392 -2.7403273881832,3.7561384027686 -1.0866815504865,0.8268229188484 -2.0079985172034,1.8898809573678 -2.7403273881834,2.3387276847426 -0.7323288709801,0.448846727375 -0.8740699427826,1.157552086388 -0.8504464308155,2.1733631009729 0.023623511967,1.0158110145855 0.2362351196709,2.385974708677 -0.6614583350788,2.92931548392 -0.8976934547496,0.5433407752433 -1.2756696462231,0.8740699427827 -2.8111979240845,0.472470239342 -1.5355282778613,-0.4015997034407 -2.3640600164438,-0.1889821060596 -2.731555617703,0.044878731105 -0.3674956012591,0.2338608371649 -1.620321574894,1.0523737788414 -2.1548606309892,1.3530519978949 -0.534539056095,0.3006782190534 -2.5786135329105,0.8226793959072 -3.1455778201209,0.7281853480385 -0.5669642872103,-0.094494047868 -1.5591517898286,-0.3543526795064 -1.6536458376969,-0.6378348231115 -0.094494047868,-0.2834821436053 -0.236235119671,-0.5905877991775 -0.094494047868,-0.7795758949143 -0.1008815423679,-0.2796266811364 -0.017359814809,-0.8141657375137 0.2833184044031,-0.9645048471197 -0.016704345511,-0.2839738737002 0.2171564916532,-1.2528259133836 0.9354433486599,-1.0022607307069 0.551243401889,-0.5512434018887 1.2862346044075,-0.851921621101 2.0546344979495,-1.0690781127542 0.768399893542,-0.217156491653 1.9711127703905,-0.8853303121246 2.2383822985791,-1.5869128236193 0.2672695281885,-0.7015825114948 0.5011303653534,-1.4365737140134 1.1693041858247,-1.9209997338551 0.6681738204713,-0.4844260198417 1.002260730707,-0.9354433486598 1.5033910960605,-1.0189650762186 0.5011303653535,-0.083521727559 1.6036171691312,-1.4198693685015 2.15486057102,-2.2049736075553 0.5512434018889,-0.7851042390539 2.0393858682626,-4.099306592857 2.606350155473,-5.0678705835079 0.5669642872103,-0.9685639906511 0.8268229188484,-1.913504469335 0.8268229188484,-2.3623511967098 0,-0.448846727375 0.4252232154077,-1.5119047658943 0.7795758949142,-2.1261160770389 0.3543526795064,-0.6142113111446 0.6614583350787,-1.0630580385193 0.6378348231116,-2.0079985172033 -0.023623511967,-0.9449404786838 -0.2126116077038,-2.6222098283477 0.070870535901,-3.2600446514595 0.2834821436051,-0.6378348231116 0.7413188002461,-1.4289471570457 1.1422230925289,-1.796442758305 0.4009042922828,-0.3674956012592 1.0857824582659,-0.9855563851952 1.3530519864544,-1.2528259133837 0.2672695281886,-0.2672695281887 1.5033910960606,-2.1047475344849 1.8207736607844,-2.6893996273972 0.317382564724,-0.5846520929124 2.3553127171618,-2.6058778998381 2.9065561190506,-2.8731474280267 0.5512434018888,-0.2672695281886 1.5702084781076,-0.7182868570067 1.8207736607844,-1.9209997338551 0.2505651826767,-1.2027128768484 0.033408620795,-3.9088168173577 0.3340868398485,-4.7440340925062 0.3006782190535,-0.8352172751485 0.00106889149,-1.3304793593959 0.5207861547631,-2.0628082303758 0.5197172632762,-0.7323288709801 0.7795758949142,-1.8426339334337 0.9921875026181,-2.5985863163808 0.2126116077038,-0.7559523829471 2.3151041727756,-4.4175967378471 3.0001860198214,-4.9845610250575 0.6850818470459,-0.5669642872104 10.2526041155424,-8.5753348016021 10.2526041155424,-8.5753348016021 l 9.591145853581,0.4252232151833 z"
       id="path18940"
       inkscape:connector-curvature="0" />
    <path
       style="fill:#ffffff;stroke:#000000;stroke-width:0.2645833194px;stroke-linecap:round;stroke-linejoin:round;stroke-opacity:1"
       d="m 137.984940884089,228.5154240143153 c -1.3229166701575,-1.2284226222891 -2.2206101249071,-3.6616443549 -1.228422622289,-6.0476190635767 -2.2206101249071,1.488281253927 -2.9529389958871,1.7008928616308 -3.9923735224394,1.724516373598 -1.0394345265522,0.023623511967 -5.6774766014418,0.5613695441325 -6.278833039866,0.3776217435028 -0.6013564384242,-0.1837478006296 -3.2740517203093,-1.6704345511783 -3.6582516670803,-1.8541823518078 -0.384199946771,-0.1837478006297 -2.7896257004675,-1.469982405037 -3.2573473747975,-1.4866867505487 -0.46772167433,-0.016704345512 -1.8708866973197,0.150339109606 -2.6225822453499,-0.2505651826767 -0.7516955480303,-0.4009042922828 -3.5070184619912,-0.8258080048433 -3.8377476295305,-1.0384196125472 -0.3307291675394,-0.2126116077039 -2.4931993194348,-1.3168931046143 -2.5767210469938,-1.9349538885503 -0.083521727559,-0.6180607839359 0.5011303653535,-0.6514694749595 2.9733735010973,0.1670434551178 -1.8040693152725,-1.0523737672423 -4.3255030651538,-1.4130627959141 -3.9756342318043,-2.5891735543263 0.2952243323914,-0.992419102171 1.8541823518079,0.5011303653532 3.8587038132219,1.3196432954309 -1.9209997338549,-1.5200954415723 -3.8085907766865,-2.7395126639323 -3.2072343382623,-3.4912082119625 0.6013564384242,-0.7516955480303 2.4388344447203,1.620321514643 4.2596081055046,2.4722431357439 -1.2862346044073,-1.4699824050369 -2.990077846609,-3.3575734478684 -2.1381562255083,-3.8419994677101 0.851921621101,-0.4844260198416 2.2884953351143,1.386460677478 2.7395126639324,2.0880431889729 0.4510173288181,0.7015825114948 1.4198693685016,1.6704345511781 1.7873649697607,1.3697563319661 0.3674956012593,-0.300678219212 0.2004521461415,-0.5846520929123 -0.5679477474006,-1.8040693152726 -0.768399893542,-1.2194172223601 -0.300678219212,-2.2383822985788 1.0690781127541,-0.7182868570065 1.3697563319662,1.5200954415722 1.9711127703904,2.0880431889727 2.0379301524375,2.5390605177909 0.066817382047,0.4510173288181 -0.066817382047,1.0523737672422 0.9187390031482,1.5200954415721 0.9855563851952,0.4677216743299 4.1092689958987,2.0212258069256 4.860964543929,2.0713388434609 0.7516955480302,0.050113036535 1.7372519332254,0.4510173288181 2.3553127171615,0.2171564916533 0.618060783936,-0.233860837165 1.8040693152725,-0.6013564384243 2.4221300992084,-1.3029389499191 0.618060783936,-0.701582511495 4.8275558529056,-2.5557648633029 5.9300426566831,-3.0568952286564 1.1024868037777,-0.5011303653536 3.925521195269,-1.6704345511783 4.5101732881814,-2.1381562255084 0.5846520929125,-0.46772167433 1.453278059525,-1.1024868037776 1.5200954415722,-3.4577995209391 1.5316303751638,-0.3429620106572 5.6421214574387,-0.3429620106572 6.7996735438264,0.3421198363887 0.9213169667168,1.7008928616309 1.7717633975322,2.7403273881832 3.0946800676897,3.3545386993277 1.3229166701575,0.6142113111445 4.4648437617814,1.6063988137626 5.2207961447285,1.7717633975323 0.7559523829471,0.1653645837696 1.8426339334335,0.2834821436052 2.2442336368742,0.9449404786838 0.4015997034406,0.6614583350787 3.2364211394922,5.079055072926 3.897879474571,5.9531250157086 0.6614583350787,0.8740699427826 2.2678571488414,2.7875744121174 2.7167038762162,3.4726562591633 0.4488467273748,0.6850818470458 1.1811755983548,1.3229166701573 1.2047991103218,2.19698661294 0.023623511967,0.8740699427826 -0.3071056555721,1.6063988137625 0,2.5749628044137 0.3071056555724,0.9685639906511 0.73232887098,2.5513392924464 0.3543526795065,4.134114594242 -0.3779761914735,1.5827753017955 -0.070870535901,3.5199032830977 -0.023623511967,4.2522321540774 0.047247023934,0.7323288709799 0.094494047868,2.6458333403148 0.2834821436052,3.3545386993278 0.1889880957369,0.7087053590127 0.8504464308155,2.7639509001505 1.0630580385193,3.2836681634266 0.212611607704,0.5197172632762 0.42216101685,2.51707843368 0.2384132162205,3.0182087990336 -0.1837478006296,0.5011303653535 -0.9354433486598,0.534539056377 -1.1358954948012,-0.083521727559 -0.2004521461414,-0.6180607839357 0.1002260730706,-1.8541823518077 -0.8352172755892,-3.4410951754272 0.2839738737003,1.3196432954308 0.2156776005742,3.1413517629908 -0.1169304185825,3.6582516670802 -0.4721469168859,0.7337546962133 -1.5858366705655,0.4651709328384 -1.5033910960606,-0.768399893542 -1.015687e-7,6.25039e-8 -0.3479834824119,0.8405941452684 -1.2194172223601,0.7851042390538 -0.6314142911387,-0.040206292449 -0.9354433486598,-0.7349912025185 -0.7349912025184,-1.1525998403132 -0.7015825114951,0.7516955480302 -1.5869128236194,0.7182868570066 -1.7038432422017,0.167043455118 -0.1169304185828,-0.5512434018889 0.2839738737,-1.0022607307071 0.6514694749593,-1.5200954415723 0.3674956012592,-0.5178347108652 0.8185129300773,-1.1358954948013 0.7349912025183,-2.3386083716496 -0.083521727559,-1.2027128768483 -0.7349912025183,-1.3530519864543 -1.069078112754,-0.3173825647239 -0.3340869102356,1.0356694217306 -0.8686259666127,2.1715649165317 -1.5535041325956,1.987817115902 -0.6848781659833,-0.1837478006295 -0.46772167433,-1.7873649697608 -0.233860837165,-2.3386083716495 0.233860837165,-0.5512434018888 0.918739003148,-1.6370258601547 1.4031650229896,-2.1715649165317 0.4844260198417,-0.5345390563773 1.7539562787373,-0.9020346576363 1.703843242202,-2.2550866440908 -0.050113036536,-1.3530519864544 -0.2245254604633,-2.4190084843295 -0.2245254604633,-2.9623492595727 0,-0.5433407752434 0.3307291675393,-2.1024925650717 0.1653645837697,-2.7403273881832 -0.1653645837697,-0.6378348231116 -0.5905877991774,-2.6930803642493 -1.9607514932691,-3.2600446514594 -1.3701636940915,-0.5669642872104 -3.3309151873606,-1.9843750052363 -3.897879474571,-3.0001860198213 -0.5669642872103,-1.0158110145855 -2.1733631009728,-3.0710565557227 -2.3859747086767,-4.1577381062092"
       id="path18919"
       inkscape:connector-curvature="0"
       sodipodi:nodetypes="ccssssssscscscssssssssssssccssssssssssssscscscssssssssssssc" />
    <path
       style="fill:none;stroke:#000000;stroke-width:0.2645833194px;stroke-linecap:round;stroke-linejoin:miter;stroke-opacity:1"
       d="m 164.2872455926612,243.4792621871765 c 0.1837478006296,1.2194172223601 0.2004521461405,2.2550866440909 -0.8519216211014,3.5413212484981"
       id="path18921"
       inkscape:connector-curvature="0" />
    <path
       style="fill:none;stroke:#000000;stroke-width:0.2645833194px;stroke-linecap:round;stroke-linejoin:miter;stroke-opacity:1"
       d="m 165.535830646365,244.1810457112599 c 0.1837478006296,1.2194172223602 0.238101696844,2.2381812859909 -0.1460982499267,3.2070333256741"
       id="path18921-8"
       inkscape:connector-curvature="0"
       sodipodi:nodetypes="cc" />
    <path
       style="fill:none;stroke:#000000;stroke-width:0.2645833194px;stroke-linecap:butt;stroke-linejoin:miter;stroke-opacity:1"
       d="m 141.8867182613594,209.3689886521165 c 1.4725716708884,0.4484255942393 5.1342158708141,0.9090841699555 6.7996735438264,0.3421198363887"
       id="path18938"
       inkscape:connector-curvature="0" />
    <path
       style="fill:none;stroke:#000000;stroke-width:0.2645833194px;stroke-linecap:round;stroke-linejoin:miter;stroke-opacity:1"
       d="m 108.7626565807938,274.6285193740873 c 0.5433408329181,-0.2480468875895 1.358351996213,-0.4015997154567 1.736328187886,-0.2834821555589"
       id="path18942"
       inkscape:connector-curvature="0" />
    <path
       style="fill:none;stroke:#000000;stroke-width:0.2645833194px;stroke-linecap:round;stroke-linejoin:miter;stroke-opacity:1"
       d="m 109.0459749851969,273.6640145269678 c 0.9332925199325,-0.3938471035093 1.500256807442,-0.3702235915299 1.7601154392172,-0.311164811581"
       id="path18944"
       inkscape:connector-curvature="0" />
    <path
       style="fill:none;stroke:#000000;stroke-width:0.2645833194px;stroke-linecap:round;stroke-linejoin:miter;stroke-opacity:1"
       d="m 147.883578300095,277.7398748318425 c 0.448460903856,-0.2883457880018 1.145354507253,-0.1938517400837 1.145354507253,-0.1938517400837"
       id="path18948"
       inkscape:connector-curvature="0" />
    <path
       style="fill:none;stroke:#000000;stroke-width:0.2645833194px;stroke-linecap:round;stroke-linejoin:miter;stroke-opacity:1"
       d="m 148.6018651571015,276.6707967190885 c 0.6278675020727,-0.093337618492 0.8641026218684,-0.010655326563 0.9349731578072,0.048403453386"
       id="path18950"
       inkscape:connector-curvature="0" />
  </g>
</svg>
