<svg height="1000" width="1500" xmlns="http://www.w3.org/2000/svg"><g stroke-width="500"><path d="m0 0h1500v1000h-1500z" fill="#009246"/><path d="m500 0h1000v1000h-1000z" fill="#fff"/><path d="m1000 0h500v1000h-500z" fill="#ce2b37"/></g><path d="m576.98052 288.08032h346.03959v413.57484h-346.03959z" fill="#d2232c"/><path d="m723.2952 288.08032h53.41024v413.57484h-53.41024z" fill="#fff"/><path d="m923.02011 460.81767v53.41023h-346.03959v-53.41023z" fill="#fff"/><path d="m512.262 245.35213c0 .00001 21.48928 18.68683 21.48928 55.93471v350.62991c0 51.90847 39.00294 80.24047 79.25996 80.24047h105.69385c26.64703 0 31.29506 22.49065 31.29506 22.49078 0-.00007 4.64803-22.49078 31.29506-22.49078h105.69386c40.25702 0 79.25997-28.33193 79.25997-80.24047v-350.62991c0-37.24788 21.48927-55.9347 21.48927-55.93471zm71.39447 49.40447h332.68737v345.41403c-.00006 22.57023-8.76188 40.12017-36.21882 40.1203h-100.29025c-20.66215 0-29.83462 14.68782-29.83462 14.68782s-9.17247-14.68782-29.83462-14.68782h-100.29024c-27.45695-.0002-36.21876-17.55007-36.21882-40.1203z" fill="#4b61d1" fill-rule="evenodd"/></svg>