<svg xmlns="http://www.w3.org/2000/svg" version="1" width="1000" height="600"><path fill="#009" d="M0 0h1000v600H0z"/><path d="M500.063 522c-18.308 17.566-30.676 42.193-16.625 78h32.937c14.077-35.807 1.995-60.434-16.313-78zM447.5 584.625c-10.366 0-18.502 7.222-21.375 15.375h48.75c-6.184-9.228-14.899-15.375-27.375-15.375zm105 0c-12.476 0-21.191 6.147-27.375 15.375h48.75c-2.873-8.153-11.009-15.375-21.375-15.375z" fill="gold"/><path d="M750.438 0c2.089 13.773 12.046 24.197 30 30.188-3.082-8.888-5.542-22.75 3.5-22.75 13.96 0 20.326 16.557 20.5 30.562h-1.375c-2.711 0-4.875 2.143-4.875 4.813s2.164 4.812 4.875 4.812h9.812c-4.666 12.143-12.93 16.832-19.625 20.063 10.241 4.775 21.96-.406 24.188-2.876-.271 3.453-.342 12.825.937 19.126.866 5.08 2.985 8.008 6.688 12.062 3.702-4.054 5.883-6.982 6.75-12.063 1.279-6.3.895-15.672.625-19.124 2.227 2.469 14.196 7.65 24.437 2.874-6.694-3.23-14.896-7.921-19.563-20.062h9.813c2.71 0 4.875-2.142 4.875-4.813 0-2.67-2.164-4.812-4.875-4.812h-1.563c.174-14.005 6.54-30.563 20.5-30.563 9.042 0 6.582 13.863 3.5 22.75 17.954-5.99 27.911-16.414 30-30.187h-55.5c-4.615 11.74-6.994 25.558-8.437 38H831.5c-.116-12.95 1.707-26.449 5.313-38H813c3.606 11.551 5.491 25.05 5.375 38h-4c-1.443-12.442-3.822-26.26-8.438-38z" fill="gold"/><path d="M100.438 0c2.089 13.773 12.046 24.197 30 30.188-3.082-8.888-5.542-22.75 3.5-22.75 13.96 0 20.326 16.557 20.5 30.562h-1.375c-2.711 0-4.875 2.143-4.875 4.813s2.164 4.812 4.875 4.812h9.812c-4.666 12.143-12.93 16.832-19.625 20.063 10.241 4.775 21.96-.406 24.188-2.876-.271 3.453-.342 12.825.937 19.126.866 5.08 2.985 8.008 6.688 12.062 3.702-4.054 5.883-6.982 6.75-12.063 1.279-6.3.895-15.672.625-19.124 2.227 2.469 14.196 7.65 24.437 2.874-6.694-3.23-14.896-7.921-19.563-20.062h9.813c2.71 0 4.875-2.142 4.875-4.813 0-2.67-2.164-4.812-4.875-4.812h-1.563c.174-14.005 6.54-30.563 20.5-30.563 9.042 0 6.582 13.863 3.5 22.75 17.954-5.99 27.911-16.414 30-30.187h-55.5c-4.615 11.74-6.994 25.558-8.437 38H181.5c-.116-12.95 1.707-26.449 5.313-38H163c3.606 11.551 5.491 25.05 5.375 38h-4c-1.443-12.442-3.822-26.26-8.438-38z" fill="gold"/><path d="M500.076 282c-19.217 18.44-31.936 44.673-14.373 83.436 5.135 12.765 7.784 29.093 7.646 44.58h-3.976c-3.35-28.881-11.468-65.363-41.896-65.363-13.016 0-22.477 11.353-22.477 21.687 0 16.585 10.092 29.059 30.428 35.845-3.081-8.887-5.525-22.742 3.517-22.742 13.96 0 20.316 16.568 20.49 30.573h-1.377c-2.71 0-4.893 2.15-4.893 4.82 0 2.67 2.182 4.82 4.893 4.82h9.786c-4.666 12.142-12.877 16.8-19.572 20.03 10.242 4.776 21.932-.392 24.16-2.862-.272 3.453-.363 12.827.917 19.127.866 5.081 3.025 7.995 6.727 12.049 3.703-4.054 5.862-6.968 6.728-12.049 1.28-6.3.883-15.674.612-19.127 2.227 2.47 14.223 7.638 24.465 2.862-6.694-3.23-14.906-7.89-19.572-20.03h9.786c2.71 0 4.893-2.15 4.893-4.82 0-2.67-2.183-4.82-4.893-4.82h-1.53c.174-14.005 6.53-30.573 20.49-30.573 9.042 0 6.598 13.855 3.517 22.742C564.908 395.399 575 382.925 575 366.34c0-10.334-9.461-21.687-22.477-21.687-30.428 0-38.546 36.482-41.896 65.363h-4.129c-.138-15.487 2.512-31.814 7.646-44.58 17.564-38.763 5.15-64.997-14.068-83.436z" font-size="12" fill="gold" fill-rule="evenodd"/><path d="M500.076 42c-19.217 18.44-31.936 44.673-14.373 83.436 5.135 12.765 7.784 29.093 7.646 44.58h-3.976c-3.35-28.881-11.468-65.363-41.896-65.363-13.016 0-22.477 11.353-22.477 21.687 0 16.585 10.092 29.059 30.428 35.845-3.081-8.887-5.525-22.742 3.517-22.742 13.96 0 20.316 16.568 20.49 30.573h-1.377c-2.71 0-4.893 2.15-4.893 4.82 0 2.67 2.182 4.82 4.893 4.82h9.786c-4.666 12.142-12.877 16.8-19.572 20.03 10.242 4.776 21.932-.392 24.16-2.862-.272 3.453-.363 12.827.917 19.127.866 5.081 3.025 7.995 6.727 12.049 3.703-4.054 5.862-6.968 6.728-12.049 1.28-6.3.883-15.674.612-19.127 2.227 2.47 14.223 7.638 24.465 2.862-6.694-3.23-14.906-7.89-19.572-20.03h9.786c2.71 0 4.893-2.15 4.893-4.82 0-2.67-2.183-4.82-4.893-4.82h-1.53c.174-14.005 6.53-30.573 20.49-30.573 9.042 0 6.598 13.855 3.517 22.742C564.908 155.399 575 142.925 575 126.34c0-10.334-9.461-21.687-22.477-21.687-30.428 0-38.546 36.482-41.896 65.363h-4.129c-.138-15.487 2.512-31.814 7.646-44.58 17.564-38.763 5.15-64.997-14.068-83.436z" font-size="12" fill="gold" fill-rule="evenodd"/><path d="M825.076 150c-19.217 18.44-31.936 44.673-14.373 83.436 5.135 12.765 7.784 29.093 7.646 44.58h-3.976c-3.35-28.881-11.468-65.363-41.896-65.363-13.016 0-22.477 11.353-22.477 21.687 0 16.585 10.092 29.059 30.428 35.845-3.081-8.887-5.525-22.742 3.517-22.742 13.96 0 20.316 16.568 20.49 30.573h-1.377c-2.71 0-4.893 2.15-4.893 4.82 0 2.67 2.182 4.82 4.893 4.82h9.786c-4.666 12.142-12.877 16.8-19.572 20.03 10.242 4.776 21.932-.392 24.16-2.862-.272 3.453-.363 12.827.917 19.127.866 5.081 3.025 7.995 6.727 12.049 3.703-4.054 5.862-6.968 6.728-12.049 1.28-6.3.883-15.674.612-19.127 2.227 2.47 14.223 7.638 24.465 2.862-6.694-3.23-14.906-7.89-19.572-20.03h9.786c2.71 0 4.893-2.15 4.893-4.82 0-2.67-2.183-4.82-4.893-4.82h-1.53c.174-14.005 6.53-30.573 20.49-30.573 9.042 0 6.598 13.855 3.517 22.742C889.908 263.399 900 250.925 900 234.34c0-10.334-9.461-21.687-22.477-21.687-30.428 0-38.546 36.482-41.896 65.363h-4.129c-.138-15.487 2.512-31.814 7.646-44.58 17.564-38.763 5.15-64.997-14.068-83.436z" font-size="12" fill="gold" fill-rule="evenodd"/><path d="M825.076 390c-19.217 18.44-31.936 44.673-14.373 83.436 5.135 12.765 7.784 29.093 7.646 44.58h-3.976c-3.35-28.881-11.468-65.363-41.896-65.363-13.016 0-22.477 11.353-22.477 21.687 0 16.585 10.092 29.059 30.428 35.845-3.081-8.887-5.525-22.742 3.517-22.742 13.96 0 20.316 16.568 20.49 30.573h-1.377c-2.71 0-4.893 2.15-4.893 4.82 0 2.67 2.182 4.82 4.893 4.82h9.786c-4.666 12.142-12.877 16.8-19.572 20.03 10.242 4.776 21.932-.392 24.16-2.862-.272 3.453-.363 12.827.917 19.127.866 5.081 3.025 7.995 6.727 12.049 3.703-4.054 5.862-6.968 6.728-12.049 1.28-6.3.883-15.674.612-19.127 2.227 2.47 14.223 7.638 24.465 2.862-6.694-3.23-14.906-7.89-19.572-20.03h9.786c2.71 0 4.893-2.15 4.893-4.82 0-2.67-2.183-4.82-4.893-4.82h-1.53c.174-14.005 6.53-30.573 20.49-30.573 9.042 0 6.598 13.855 3.517 22.742C889.908 503.399 900 490.925 900 474.34c0-10.334-9.461-21.687-22.477-21.687-30.428 0-38.546 36.482-41.896 65.363h-4.129c-.138-15.487 2.512-31.814 7.646-44.58 17.564-38.763 5.15-64.997-14.068-83.436z" font-size="12" fill="gold" fill-rule="evenodd"/><path d="M175.076 150c-19.217 18.44-31.936 44.673-14.373 83.436 5.135 12.765 7.784 29.093 7.646 44.58h-3.976c-3.35-28.881-11.468-65.363-41.896-65.363-13.016 0-22.477 11.353-22.477 21.687 0 16.585 10.092 29.059 30.428 35.845-3.081-8.887-5.524-22.742 3.517-22.742 13.96 0 20.316 16.568 20.49 30.573h-1.377c-2.71 0-4.893 2.15-4.893 4.82 0 2.67 2.182 4.82 4.893 4.82h9.786c-4.666 12.142-12.877 16.8-19.572 20.03 10.242 4.776 21.932-.392 24.16-2.862-.272 3.453-.363 12.827.917 19.127.866 5.081 3.025 7.995 6.727 12.049 3.703-4.054 5.862-6.968 6.728-12.049 1.28-6.3.883-15.674.612-19.127 2.227 2.47 14.223 7.638 24.465 2.862-6.694-3.23-14.906-7.89-19.572-20.03h9.786c2.71 0 4.893-2.15 4.893-4.82 0-2.67-2.183-4.82-4.893-4.82h-1.53c.174-14.005 6.53-30.573 20.49-30.573 9.042 0 6.598 13.855 3.517 22.742C239.908 263.399 250 250.925 250 234.34c0-10.334-9.461-21.687-22.477-21.687-30.428 0-38.546 36.482-41.896 65.363h-4.129c-.138-15.487 2.512-31.814 7.646-44.58 17.564-38.763 5.15-64.997-14.068-83.436z" font-size="12" fill="gold" fill-rule="evenodd"/><path d="M175.076 390c-19.217 18.44-31.936 44.673-14.373 83.436 5.135 12.765 7.784 29.093 7.646 44.58h-3.976c-3.35-28.881-11.468-65.363-41.896-65.363-13.016 0-22.477 11.353-22.477 21.687 0 16.585 10.092 29.059 30.428 35.845-3.081-8.887-5.524-22.742 3.517-22.742 13.96 0 20.316 16.568 20.49 30.573h-1.377c-2.71 0-4.893 2.15-4.893 4.82 0 2.67 2.182 4.82 4.893 4.82h9.786c-4.666 12.142-12.877 16.8-19.572 20.03 10.242 4.776 21.932-.392 24.16-2.862-.272 3.453-.363 12.827.917 19.127.866 5.081 3.025 7.995 6.727 12.049 3.703-4.054 5.862-6.968 6.728-12.049 1.28-6.3.883-15.674.612-19.127 2.227 2.47 14.223 7.638 24.465 2.862-6.694-3.23-14.906-7.89-19.572-20.03h9.786c2.71 0 4.893-2.15 4.893-4.82 0-2.67-2.183-4.82-4.893-4.82h-1.53c.174-14.005 6.53-30.573 20.49-30.573 9.042 0 6.598 13.855 3.517 22.742C239.908 503.399 250 490.925 250 474.34c0-10.334-9.461-21.687-22.477-21.687-30.428 0-38.546 36.482-41.896 65.363h-4.129c-.138-15.487 2.512-31.814 7.646-44.58 17.564-38.763 5.15-64.997-14.068-83.436z" font-size="12" fill="gold" fill-rule="evenodd"/><path d="m 116.00003,56.64898 v 42.93684 h 38.99992 L 146.00004,168.68 h 57 l -9,-69.09418 h 286.49997 l -9,69.09418 h 57 l -9,-69.09418 h 286.49995 l -9,69.09418 h 57 l -9.00009,-69.09418 h 39.00009 V 56.64898 Z" font-size="12" fill="#e60000" fill-rule="evenodd"/></svg>