<?xml version="1.0" encoding="utf-8"?>
<!-- Generator: Adobe Illustrator 22.1.0, SVG Export Plug-In . SVG Version: 6.00 Build 0)  -->
<svg version="1.1"
	 id="svg2211" inkscape:version="0.48.4 r9939" sodipodi:docname="Flag_of_the_Second_Saudi_State.svg" xmlns:cc="http://creativecommons.org/ns#" xmlns:dc="http://purl.org/dc/elements/1.1/" xmlns:inkscape="http://www.inkscape.org/namespaces/inkscape" xmlns:rdf="http://www.w3.org/1999/02/22-rdf-syntax-ns#" xmlns:sodipodi="http://sodipodi.sourceforge.net/DTD/sodipodi-0.dtd" xmlns:svg="http://www.w3.org/2000/svg"
	 xmlns="http://www.w3.org/2000/svg" xmlns:xlink="http://www.w3.org/1999/xlink" x="0px" y="0px" width="725px" height="500px"
	 viewBox="0 0 725 500" style="enable-background:new 0 0 725 500;" xml:space="preserve">
<style type="text/css">
	.st0{fill:#006C35;}
	.st1{fill:#FFFFFF;}
</style>
<sodipodi:namedview  bordercolor="#666666" borderopacity="1" gridtolerance="10" guidetolerance="10" id="namedview8" inkscape:current-layer="g2292" inkscape:cx="401.10162" inkscape:cy="287.48431" inkscape:pageopacity="0" inkscape:pageshadow="2" inkscape:window-height="988" inkscape:window-maximized="1" inkscape:window-width="1680" inkscape:window-x="-8" inkscape:window-y="-8" inkscape:zoom="0.944" objecttolerance="10" pagecolor="#ffffff" showgrid="false">
	</sodipodi:namedview>
<defs>
	
	
		<inkscape:perspective  id="perspective12" inkscape:persp3d-origin="362.5 : 166.66667 : 1" inkscape:vp_x="0 : 250 : 1" inkscape:vp_y="0 : 1000 : 0" inkscape:vp_z="725 : 250 : 1" sodipodi:type="inkscape:persp3d">
		</inkscape:perspective>
</defs>
<g id="g2292">
	<rect id="rect2220" class="st0" width="600" height="500"/>
	<rect id="rect2282" x="596.3" class="st1" width="128.7" height="500"/>
	<g>
		<g id="g4298" transform="matrix(2.1932951,0,0,2.1932951,-533.80454,1070.2553)">
			<path id="path3778" inkscape:connector-curvature="0" sodipodi:nodetypes="ccccccc" class="st1" d="M440.1-402.3l1.7-0.6l3,3.5
				l-1.4,0.3l2.1,19.1c-0.5,2.4-1.6,3-2.6,4.1L440.1-402.3z"/>
			<path id="path3778-1" inkscape:connector-curvature="0" sodipodi:nodetypes="ccccccc" class="st1" d="M349.8-445.5l2.1-0.6
				l3.9,3.5l-1.7,0.3l2.7,22.7c-0.6,2.4-2,3-3.3,4.1L349.8-445.5z"/>
			<path id="path3778-1-7" inkscape:connector-curvature="0" sodipodi:nodetypes="ccccccc" class="st1" d="M398.8-445.2l2.1-0.6
				l3.9,3.5l-1.7,0.3l2.7,22.7c-0.6,2.4-2,3-3.3,4.1L398.8-445.2z"/>
			<path id="path3778-1-4" inkscape:connector-curvature="0" sodipodi:nodetypes="ccccccc" class="st1" d="M449.1-444.7l2.1-0.6
				l3.9,3.5l-1.7,0.3l2.7,22.7c-0.6,2.4-2,3-3.3,4.1L449.1-444.7z"/>
			<path id="path3778-1-0" inkscape:connector-curvature="0" sodipodi:nodetypes="ccccccc" class="st1" d="M342.6-406.9l1.7-0.6
				l3,3.5l-1.4,0.3l2.1,19.1c-0.5,2.4-1.6,3-2.6,4.1L342.6-406.9z"/>
			<path id="path3850-4" inkscape:connector-curvature="0" class="st1" d="M497.8-445.6L480.5-426c0,0-11-7-11.6-7.6l-2.7-3
				l-2.3-0.1l-1.7,2l15.4,10.7c-2.6,3.6-2.6,5.5-1.4,6.4c1.4,1,4.4,0.7,6.9,0c0.9-0.3,4.6-4.5-0.8-7c0,0,18.4-18.6,18.6-18.7
				C501.2-443.4,497.8-445.6,497.8-445.6z M480.9-422c0.5,0,1,0.2,1.2,0.4c0.5,0.6,0,1.4-1,1.9c-1.1,0.5-2.3,0.4-2.8-0.1
				s0-1.4,1-1.9C479.8-421.9,480.3-422.1,480.9-422z"/>
			<path id="path3873" inkscape:connector-curvature="0" class="st1" d="M325.3-401.7c0.3-0.1,11.4-5.3,11.4-5.3s2.3-0.2,2,0.1
				c-0.3,0.3-0.5,0.9-0.8,1s-11.2,4.9-11.2,4.9L325.3-401.7z"/>
			<path id="path3873-8" inkscape:connector-curvature="0" class="st1" d="M327.7-436.7c0.3-0.1,14.6-8.9,14.6-8.9s2.9-0.2,2.6,0.1
				c-0.3,0.3-0.6,0.9-1,1c-0.3,0.1-14.4,8.5-14.4,8.5L327.7-436.7z"/>
			<path id="path3893" inkscape:connector-curvature="0" class="st1" d="M316.4-389.8c0,0,1.7,0,1.7,0.2s-0.1,3-0.1,3l0.2,2.1
				l0.8,0.2l1.2-0.6l0.5-3l0.4-3.1l1.6-2.1l2.3-0.3l-0.8,2.1c0,0-0.3,2.5-0.3,2.7s0.6,3.1,0.6,3.1l1.6,1.1l1.6,0.2l1.5-0.9l0.6-1.9
				l-0.5-2.6l-0.5-2.7l-0.1-2.1l1.6-0.5l1.5,0.2l0.1,3.2l0.2,3l1,1.8l1.5,1.2l1.5,0.2l0.6-1.3l-0.6-1.3l-2.3-5.1l-0.3-1.7l0.9-1.3
				l1.8,0.1l2.1,5.8l0.6,2.5v2.6l-1.1,1.5l-0.8,0.6h-1.8l-2-0.8l-1.3-0.7l-1.5,1.5l-1.3,0.9h-2.7l-2.5-0.4l-1.4-1.8l-0.9,1.5l-1.1,1
				l-2.3-0.1l-1.8-1.8l-0.1-2.6L316.4-389.8z"/>
			<path id="path3893-8" inkscape:connector-curvature="0" class="st1" d="M316.5-425c0,0,2.1,0,2.1,0.2s-0.1,3-0.1,3l0.3,2.1l1,0.2
				l1.5-0.6l0.6-3l0.5-3.1l2.1-2.1l3-0.3l-1,2.1c0,0-0.4,2.5-0.4,2.7s0.9,3.1,0.9,3.1l2,1.1l2,0.2l1.8-0.9l0.9-1.9l-0.6-2.6
				l-0.6-2.7l-0.1-2.1l2.1-0.5l1.8,0.2l0.1,3.2l0.3,3l1.3,1.8l1.9,1.2l1.9,0.2l0.8-1.3l-0.9-1.3l-2.9-5.1l-0.4-1.7l1.1-1.3l2.4,0.1
				l2.8,5.8l0.9,2.5v2.6l-1.4,1.5l-1.4,0.6h-2.3l-2.7-0.8l-1.7-0.7l-1.9,1.5l-1.6,0.9h-3.4l-3.1-0.4l-1.8-1.8l-1.2,1.5l-1.4,1
				l-2.9-0.1l-2.4-1.8l-0.1-2.6L316.5-425z"/>
			<path id="path3913" inkscape:connector-curvature="0" class="st1" d="M414.6-422.6l2.7,0.2l0.1,4.2l1.5,2l2.1,0.2l0.5-1.7l2-2.9
				l2.3-2.6l1.9-0.4l2.7,0.7l3.8,2.6l2.6,1.2l4.5-0.7l1-1.9l-1.7-12.7l-1.6-9.9l0.5-1.6l1.4-1.1l2.3,2.5l1.1,2.2l-1.6,0.2l1.5,13.2
				l1.1,5.9l-0.1,3.6l-1.1,1.8l-3.1,1.4l-4.8-0.1l-2.7-1.1l-3.2-2.2l-2-1.1l-0.4,2l-1.5,2.2l-2.6,3l-3.3,0.7l-3.2-1.1l-1.5-2.4
				L414.6-422.6z"/>
			<path id="path4030-8-2-3" inkscape:connector-curvature="0" sodipodi:nodetypes="cccccccccccccccccccccccc" class="st1" d="
				M336-401.7c0,0.8-0.2,1.5-0.5,2.1s-0.8,0.9-1.3,0.9c-0.3,0-0.5,0-0.8-0.1c-0.2-0.1-0.4-0.2-0.8-0.3c-0.1,0.3-0.3,0.7-0.6,0.9
				c-0.4,0.4-0.8,0.5-1.2,0.5c-0.5,0-0.9-0.2-1.2-0.5c-0.2-0.3-0.4-0.7-0.4-1.2c0-0.2,0-0.4,0.1-0.7c0-0.3,0.1-0.5,0.1-0.6l0.5-0.2
				c0,0.5,0.1,0.9,0.2,1.1c0.2,0.2,0.4,0.3,0.9,0.3c0.2,0,0.5-0.2,0.9-0.7s0.4-1,0.5-1.4l0.4-0.1c0.1,0.5,0.2,0.7,0.3,0.8
				c0.2,0.2,0.5,0.3,1,0.3c0.3,0,0.6-0.2,0.9-0.7c0.1-0.3,0.3-0.7,0.3-1.1l0.4-0.1C336-402.2,336-402,336-401.7L336-401.7z"/>
			<path id="path4030-8-2-34" inkscape:connector-curvature="0" sodipodi:nodetypes="cccccccccccccccccccccccc" class="st1" d="
				M342.1-436.7c0,0.8-0.2,1.5-0.6,2.1s-1,0.9-1.6,0.9c-0.3,0-0.6,0-1-0.1c-0.3-0.1-0.6-0.2-1-0.3c-0.2,0.3-0.4,0.7-0.9,0.9
				c-0.5,0.4-1,0.5-1.5,0.5c-0.6,0-1.2-0.2-1.5-0.5s-0.5-0.7-0.5-1.2c0-0.2,0-0.4,0.1-0.7c0.1-0.3,0.1-0.5,0.1-0.6l0.8-0.2
				c0,0.5,0.1,0.9,0.3,1.1c0.2,0.2,0.6,0.3,1.1,0.3c0.3,0,0.6-0.2,1.1-0.7c0.3-0.5,0.6-1,0.6-1.4l0.5-0.1c0.2,0.5,0.3,0.7,0.4,0.8
				c0.2,0.2,0.6,0.3,1.2,0.3c0.4,0,0.8-0.2,1.1-0.7c0.2-0.3,0.3-4.3,0.4-4.7l0.5-0.1C342.1-440.8,342.1-437,342.1-436.7L342.1-436.7
				z"/>
			<path id="path4211" inkscape:connector-curvature="0" class="st1" d="M459.9-397.4l-2.3,0.5c0,0-0.3,2.1-0.2,2.3l0.6,2.3l1.8,3.7
				l0.5,2.9l-0.5,2l-6,4.9l-3.8,0.4l-0.8-0.8l0.5-3.7l1.9-2.6l-1.3-0.8l-2.5,2l-0.8,2.4l-0.4,3.5l1.1,2c0,0,5.1,0.5,5.4,0.5
				s1.6-0.5,1.6-0.5l1.8-1.3l4.2-3.3l3.4,3.7l4.2,0.1l0.8-1l2.5-0.1l1.5,0.7l2.8,0.1l0.4-0.9l1.2,0.1l1.9,1.3l6.4-0.2l14.1-3.5
				l0.5-0.9l0.2-1l-8.2-0.7l-6.6-1.1l4.2-1.3l4.9-1.5l2.1-1.5l-0.8-1.9l-3.3-2.6l-2.5,0.6l-1.2,2.2l0.6,1.5l-2.8,1.1l-2.9,1.8
				l-3,2.1l2.9,1.7l2.7,0.4l2.4,0.3l-0.8,0.7l-3.8,1l-2.9,0.2l-3.1-1.5l-3-1.9c0,0-1.8-0.1-2.1-0.1c-0.3,0-2.5,0.5-2.5,0.5l-1.6,1.7
				l-2.6,1.1l-2.6-1.1l-1-3.2l-1-4.1l-1.6-6L459.9-397.4z M492.8-391.5c0.6,0,1.1,0.5,1.1,1s-0.4,1-1.1,1s-1.1-0.4-1.1-1
				S492.3-391.5,492.8-391.5z M474.5-380.4c0.3,0,0.6,0.3,0.6,0.6c0,0.3-0.3,0.5-0.6,0.5s-0.6-0.2-0.6-0.5S474.2-380.4,474.5-380.4z
				"/>
			<path id="path3850-4-1" inkscape:connector-curvature="0" class="st1" d="M399.4-445.5l-17.3,19.6c0,0-11-7-11.6-7.6l-2.7-3
				l-2.3-0.1l-1.7,2l15.4,10.7c-2.6,3.6-2.6,5.5-1.4,6.4c1.4,1,4.4,0.7,6.9,0c0.9-0.3,4.6-4.5-0.8-7c0,0,18.4-18.6,18.6-18.7
				C402.9-443.3,399.4-445.5,399.4-445.5z M382.5-421.9c0.5,0,1,0.2,1.2,0.4c0.5,0.6,0,1.4-1,1.9c-1.1,0.5-2.3,0.4-2.8-0.1
				c-0.5-0.6,0-1.4,1-1.9C381.5-421.8,382-421.9,382.5-421.9z"/>
			<path id="path4260" inkscape:connector-curvature="0" class="st1" d="M356-388.9c0.3,0.1,1.8,0.2,1.8,0.2l-0.1,2.7l0.1,3.7
				l2.3,2.4l2.3,0.3l2.7-0.7l3-1.9l2.1-1.8l1.6-1.1l1.5-0.5l-0.3-3.5l-1.3-7.7l-1.2-5.8l-0.3-3.5l1.1-1.1l1.3,0.7l2,4.9l0.6,9.4
				l0.5,6.4l-2.7,2.7c0,0-3.3,3-3.5,3.1s-3.5,2-3.5,2s-2.3,0.8-2.6,0.9c-0.3,0.1-3-0.1-3-0.1s-1.8-0.7-2-0.9
				c-0.2-0.1-2.7-2.1-2.7-2.1l-0.8-1.5l-0.2-5.2L356-388.9z"/>
			<path id="path4262" inkscape:connector-curvature="0" class="st1" d="M413.2-386.3c0.2,0,1.8-0.1,1.8,0c0,0.2-1.1,1.5-1.2,1.7
				c-0.2,0.2-1.6,3.3-1.6,3.4c0,0.2,0.9,2.4,0.9,2.4l1.5,0.1l2.5-1.9l2.9-2.5l3.1-2.8c0,0,2.3-1.4,2.5-1.4s3.5-0.3,3.5-0.3l3.4,0.2
				l0.8,3.4l-1.8,0.1c0,0-1.8-0.9-2-0.9s-3.5,0.1-3.5,0.1l-3,2.8l-5.1,4.3l-2.5,1.5c0,0-2.8-0.2-2.9-0.2c-0.2,0-1.9-2.2-1.9-2.2
				l-0.2-2.8l1.1-2.6L413.2-386.3z"/>
			<path id="path4264" inkscape:connector-curvature="0" class="st1" d="M408.4-388.5l-1.3,3.1h-0.8l-1-1.3l-1.4,0.9l-1.3,1.4
				l-2-0.8l-1.8-1.2l-1.1,0.2l-1.9,1.1l-2.6,0.7l-2.3-0.2l-1.5-1.1l-2.1-2l-2.3,0.2l-2.5,2.2l-0.1,1.5l2.1,1.8h3.7l-0.1,0.5
				l-3.5,3.5l-4.8,2.9l-4.4,2.1l-6.2,1.5l0.6,1.1c0,0,3.4-0.1,3.8-0.1c0.3,0,4-1,4-1l3.5-1.3l2.7-1.6c0,0,4.5-2.8,4.8-3
				s1.7-2.3,1.7-2.3l0.2-2.1h3.8l1.3-0.9l1.7-1.2l1.3,0.1l1.1,1.6l2,0.7l1.6-0.6l2-0.9l3.1-0.3l1.7-2.7v-2L408.4-388.5L408.4-388.5z
				 M386.1-385.8c0.4,0,0.9,0.4,0.9,0.8s-0.4,0.8-0.9,0.8c-0.4,0-0.9-0.4-0.9-0.8S385.7-385.8,386.1-385.8z"/>
			<path id="path2997_1_" inkscape:connector-curvature="0" sodipodi:nodetypes="cccccc" class="st1" d="M448-407.7
				c3.5-3.1,7.1-4.1,10.5-4.6l-0.8-0.4l-3.9-0.1l-5.7,3.2L448-407.7z"/>
		</g>
		<path class="st1" d="M488.2,306.7c4.1-3.7,4-7-0.2-10.9c-3.2-2.9-4.1-3.2-11.7-3.2c-4.5,0-10.6,0.7-13.6,1.5
			c-6.8,1.8-9.3,1.8-11.4-0.1c-2.2-2.1-0.6-5.4,1.8-3.8c2.6,1.7,3.7,0.3,1.9-2.5c-0.8-1.3-2.6-2.5-3.9-2.5c-1.4,0-2.5-0.6-2.5-1.4
			c0-1.6-3.7-4.4-4.8-3.6c-0.4,0.2-0.9,1.6-0.9,3c-0.1,1.3-1.3,3.1-2.6,3.8c-2.3,1.3-3.2,4.3-1.6,5.6c0.4,0.3,1.8-0.1,3-1
			c2.5-1.9,3.6-0.3,1.6,2.6c-1.5,2-5.4,2.5-45,5.2c-21.8,1.5-92.7,1-109.6-0.8c-15.7-1.6-34.4-5.2-46.2-9L234,287l6,4.1
			c3.3,2.3,11.3,6.2,18,8.8c23.1,9,38.1,10.6,102.8,11c37,0.2,52.1-0.1,65.3-1.4c17.6-1.7,23.7-1.1,23.6,2c-0.1,2.1-2.6,2.8-4.9,1.3
			c-1.8-1.2-2-1-1.6,1.2c0.3,1.4,1.8,3,3.4,3.5c1.7,0.5,3.6,2.1,4.3,3.4c1.7,3.1,4.7,2.5,4.7-0.8c0-1.4,1-2.8,2.4-3.2
			c1.2-0.4,2.3-1.8,2.3-3.2c0.1-3.4-1.3-4.1-3.5-2.1c-1.6,1.7-1.7,1.6-1.8-0.4c-0.1-2.9,4.1-5.7,6.7-4.4c3.4,1.7,16-3.8,16-2
			c0.1,0.5,1.6,1.8,3.5,2.8C484.8,309.4,484.9,309.3,488.2,306.7z"/>
		<g>
			<path class="st1" d="M199.1,379.5l-0.6-0.2c-1.7,1.9-2.7,3-3,3.3c0.9,0.7,2.1,1.3,3.4,1.8c2.1-1.6,3.1-2.6,3.1-2.9
				C202,381.2,201,380.6,199.1,379.5z"/>
			<path class="st1" d="M243.6,373.1v-0.5c0.5-0.3,1.2-0.7,1.8-1.2c1.7-1.4,3-3.2,3.9-5.3c1.4-3.6,2.1-5.6,2.1-5.9
				c0-0.2-0.1-0.4-0.3-0.6c-0.8,0.7-1.7,1.6-2.6,2.8c-1,1.3-1.7,2.3-1.8,3c-0.3,1.4-0.4,2.3-0.5,2.5c-0.6,0.7-1.8,1-3.5,1h-0.8h-0.3
				c-2.3,0-4.8-0.9-7.1-2.7c-5.3,4.5-17.4,6.7-36.3,6.7c-8.7,0-15.3-0.2-19.9-0.6c-8.2-0.7-14.2-2-18.3-4.1c0,1.7,0.4,3.1,1,4.2
				c1.3,2.2,5.3,3.7,12,4.5c3.4,0.4,8.2,0.6,14.5,0.6c8.5,0,16.3-0.4,23.2-1.1c10.1-1.1,16.8-2.8,20.3-5.2c0.8-0.5,1.6-1.2,2.6-2.1
				c1.9,1.5,3.1,2.4,3.5,2.7c1.4,0.8,2.8,1.2,4.5,1.2h1.8L243.6,373.1L243.6,373.1z"/>
			<path class="st1" d="M245.8,378.2c0.8-0.7,1.2-1.1,1.3-1.1c0.9,0.3,1.7,0.6,2.5,0.9c0.5,0,1.3-0.4,2.3-1.3c0.9-0.9,1.4-1.6,1.4-2
				c0-0.3-0.9-0.8-2.7-1.5c-0.3,0-0.8,0.4-1.8,1.3c-0.9,0.9-1.6,1.3-1.8,1.3c-0.3,0-1.3-0.4-3-1.1c-0.3,0-0.9,0.5-1.8,1.4
				c0,0.1-0.6,0.7-1.8,1.8c0,0.2,0.5,0.5,1.6,0.9c0.9,0.4,1.6,0.5,1.9,0.5C244.5,379.3,245,379,245.8,378.2z"/>
			<path class="st1" d="M282.7,357.1c-0.5,0-1,0.8-1.7,2.5c-0.6,1.5-0.9,2.6-0.9,3.2c0,1.6,1,2.4,3,2.4c0.3,0,0.5,0,0.9-0.1
				c0.4-0.1,0.6-0.1,0.9-0.1c1,0,1.6,0.3,1.6,0.8c0,1.2-0.9,2-2.7,2.6c-1.4,0.4-3,0.6-4.9,0.6h-0.6H278c-2.1,0-4,0.4-6.1,1.1
				c-1.7,0.6-3.6,1.8-5.6,3.4l-4.8,4.2c-1.9,1.7-4.8,3.6-8.4,5.7c-3.4,1.7-6,2.9-7.6,3.7c-1,0.4-1.6,0.7-1.8,0.9
				c0.1,0.2,0.3,0.3,0.4,0.3c0.3,0,1-0.1,2.3-0.4c3.2-0.7,5.8-1.6,7.9-2.7c2.6-1.4,5.4-3.3,8.4-5.8c1.3-1,2.5-2,3.8-3
				c1.6-1.2,3-2,4.4-2.4c1.7-0.6,4.1-0.9,7.1-0.9h0.3h0.9h0.3l0,0c2.5-0.1,4.8-1.2,6.6-3.4c1.8-2.1,2.7-4.2,2.7-6.4
				c0-1.5-0.5-2.9-1.4-4.1C286,357.8,284.5,357.1,282.7,357.1z"/>
			<path class="st1" d="M288,350.2c-0.3,0-0.9,0.5-1.9,1.4c-1,0.9-1.7,1.4-1.8,1.4c-0.3,0-0.9-0.2-1.8-0.6c-0.9-0.4-1.4-0.6-1.6-0.6
				c-0.3,0-1.7,1.2-4,3.6c0,0.2,0.5,0.6,1.7,1c1,0.4,1.8,0.6,2.2,0.6c0.5,0,1.3-0.4,2.1-1.2c0.8-0.8,1.3-1.2,1.4-1.2
				c1,0.3,1.9,0.7,2.7,1c0.6,0,1.4-0.5,2.6-1.5c1-1,1.7-1.7,1.7-2.2C291.1,351.5,290.1,350.9,288,350.2z"/>
			<path class="st1" d="M332.3,361.9c1,0.4,1.8,0.6,2.2,0.6c0.6,0,1.3-0.4,2.1-1.2c0.8-0.8,1.3-1.2,1.4-1.3c1,0.3,1.9,0.7,2.7,1
				c0.6,0,1.4-0.5,2.6-1.5c1-1,1.7-1.7,1.7-2.2c0-0.4-1-0.9-3.1-1.7c-0.3,0-0.9,0.5-1.9,1.4c-1,1-1.7,1.4-1.9,1.4
				c-0.3,0-0.8-0.2-1.6-0.5c-1-0.4-1.6-0.7-1.7-0.7c-0.3,0-0.9,0.6-2.1,1.7c-0.5,0.4-1.2,1.1-1.9,1.9
				C330.6,361.2,331.1,361.5,332.3,361.9z"/>
			<path class="st1" d="M352.3,369.7c1.8-2.1,2.7-4.2,2.7-6.4c0-1.5-0.5-2.9-1.4-4.1c-1.2-1.4-2.7-2.1-4.5-2.1c-0.5,0-1,0.8-1.7,2.5
				c-0.6,1.5-0.9,2.6-0.9,3.2c0,1.6,1,2.4,3,2.4c0.3,0,0.5,0,0.9-0.1c0.4-0.1,0.6-0.1,0.9-0.1c1,0,1.6,0.3,1.6,0.8
				c0,1.2-0.9,2-2.7,2.6c-1.4,0.4-3,0.6-4.9,0.6h-0.6h-2.7c-1.4,0-2.1-0.2-2.1-0.7c0-0.8,0.1-1.5,0.5-2.2c0.5-1,0.9-1.8,1.2-2.2
				l-0.3-0.2c-0.8,0.5-1.6,1.3-2.5,2.5c-0.9,1.2-1.7,2-2.3,2.4c-0.5,0.3-1.6,0.5-3,0.5h-1.7h-0.9h-0.4c-3.9,0-6.9,0.5-9.2,1.4
				c-2.5,1-4.8,2.7-7.3,5.2c-1,1.1-1.7,1.8-1.7,1.8c0,0.4,0.4,0.6,1,0.6c0.1,0,0.5-0.1,0.9-0.2c0.5-0.2,1-0.2,1.6-0.2
				c3.6,0,5.6,0.4,6.1,1.1c-3.6,1.9-6.3,3.4-8,4.6c-3.5,2.4-6.1,5-7.6,7.8c-1.6,2.7-2.3,5.8-2.3,9.4c0,2.9,1.4,5.2,4.3,7
				c2.7,1.7,6,2.5,9.7,2.5c4.4,0,8.8-1.5,13.3-4.6c3.8-2.5,7.3-5.9,10.6-10c0.6-0.9,1-1.5,1-1.8s-0.1-0.5-0.4-0.5
				c-0.3,0-1,0.6-2.2,1.8c-6,6.2-12.2,9.2-18.6,9.2c-3.8,0-7-0.7-9.5-2c-2.7-1.5-4.1-3.6-4.1-6.3c0-2.3,0.6-4.3,2.1-6.2
				c1.2-1.6,3-3.2,5.4-4.9c1.9-1.3,4-2.5,6-3.5c1.9-1,4-1.9,6-2.9c1.2-0.5,1.7-1,1.7-1.4s-1.7-1-5.1-1.5c-2.1-0.3-4.3-0.6-6.3-0.9
				c1-0.9,3.6-1.3,7.8-1.3c0.5,0,1.3,0,2.3,0c1,0,1.8,0,2.3,0h0.4h0.6h0.3l0,0c2.5-0.1,4.5-0.7,6.3-2c0.4,0.6,1.4,1.2,3,1.5
				c1.2,0.3,2.5,0.5,3.6,0.5l0,0h0.1h0.8h0.6l0,0C348.5,372.9,350.5,371.8,352.3,369.7z"/>
			<path class="st1" d="M349.1,355.9c2.8-1.5,4.4-2.5,4.4-3c0-0.9-1.3-2-3.9-3.3l-4.5,3.3v0.2c0.5,0,1.2,0.4,2.1,1.1
				C347.6,354.5,348.2,355,349.1,355.9z"/>
			<path class="st1" d="M360.9,359.5c-0.5,0-1.4,0.9-2.6,2.6s-1.8,2.8-1.8,3.4c0,1.7,0.9,2.6,2.8,2.6c0.4,0,0.9-0.1,1.6-0.2
				c0.6-0.1,1.2-0.2,1.6-0.2c0.4,0,0.5,0.1,0.5,0.3c0,1.1-1.7,2.7-4.9,4.9c-1.2,0.7-2.8,1.7-4.9,2.9c-1.7,0.9-2.6,1.5-2.6,1.6
				c0.1,0.1,0.3,0.2,0.5,0.2c0.6,0,2.1-0.3,4.4-1c2.5-0.7,4.3-1.4,5.2-2.1c1.2-0.8,1.9-1.4,2.3-1.9c0.8-0.9,1.4-2.4,2.2-4.4
				c0.4-1.1,0.5-2.3,0.5-3.6c0-1.7-0.6-3-2.1-4C362.4,359.9,361.5,359.5,360.9,359.5z"/>
			<path class="st1" d="M403.1,359.2c0.1,0,0.4-0.1,0.6-0.3c0.4-0.2,0.6-0.3,0.8-0.3c0.8,0,1.3-0.1,1.6-0.3c0.3-0.2,0.4-0.6,0.4-1.3
				v-0.7c0-0.3-0.3-0.4-0.6-0.4c0,1.2-0.1,1.8-0.5,1.8c-0.1-0.1-0.3-0.1-0.5-0.2c-0.1-0.7-0.3-1.2-0.6-1.6c-0.1,0.1-0.1,0.4-0.4,1.1
				c-0.1,0.6-0.5,0.9-0.9,0.9c-0.4,0-0.6-0.5-1-1.6c-0.3,0.1-0.4,0.3-0.4,0.6C401.7,358.4,402.2,359.2,403.1,359.2z"/>
			<path class="st1" d="M403.8,354.8h0.3c0.4-0.4,0.6-1.3,0.6-2.8c0-2.5-0.5-3.9-1.4-4.2c-0.3,0.3-0.5,0.7-0.9,1.2
				c1,1.5,1.4,3.1,1.4,4.8C403.8,354.2,403.8,354.5,403.8,354.8z"/>
			<path class="st1" d="M413.9,361.7c0.1,1,0.3,1.8,0.3,2.3l0.1,0.5v0.1c0,0.7-0.1,1.1-0.3,1.4c-0.3,0.4-0.9,0.7-1.9,1.1
				c-1,0.4-1.8,0.6-2.5,0.6c-1.3,0-2.5-0.2-3.4-0.7c-1-0.5-1.6-1.3-1.6-2.2l0.1-0.6l-0.4-0.1c-1,1.6-2.1,2.7-3,3.3
				c-1.3,0.9-2.8,1.3-4.8,1.3c-1.6,0-2.8-0.2-3.9-0.6c-1.4-0.5-2.1-1.3-2.1-2.4l-0.5-0.3c-2.5,3-5.6,5.6-9.3,7.8
				c2.3-0.9,4.9-2.4,7.5-4.4c0.5,1.8,1,3,1.6,3.6c0.9,1,2.3,1.5,4.3,1.5c1.7,0,3.2-0.4,4.7-1.1c0.9-0.5,1.7-1.1,2.5-2
				c0.6-0.7,1-1.1,1.2-1.1c0.8,1.2,1.4,1.9,1.8,2.2c0.6,0.4,1.7,0.6,3.4,0.6c2.7,0,4.9-1.6,6.7-4.7c1.6-2.5,2.3-5,2.3-7.5l0.1-3.5
				c-1.9,2.3-2.8,3.9-2.8,4.7L413.9,361.7L413.9,361.7z"/>
			<path class="st1" d="M425,352.1c-0.9,2.6-1.4,4.2-1.4,4.7c-0.8,7.4-1.6,13-1.9,16.8h0.1c0.5-0.5,1.2-1.5,1.8-3
				c0.9-1.9,1.6-3.6,1.8-5.2l1-8.2c0.6-5,0.9-8.5,0.9-10.3l-0.3,0.1C426.4,348.1,425.8,349.8,425,352.1z"/>
			<path class="st1" d="M455.7,376.6c0.8,0.3,1.3,0.5,1.6,0.5c0.6,0,1.4-0.5,2.2-1.4c0.1-0.1,0.5-0.8,1.4-2.1c0-0.3-0.5-0.7-1.6-1.1
				c-1-0.5-1.7-0.7-2.1-0.7c-0.4,0-1,0.6-1.9,1.8c-0.9,1.2-1.4,1.9-1.4,2.3c0,0.1,0.1,0.2,0.1,0.3
				C454.4,376.1,454.9,376.3,455.7,376.6z"/>
			<path class="st1" d="M487.8,361.5c-0.8,0.5-1.3,1-1.7,1.4c-1.6,0.7-3,1.8-4.4,3.2c-1.4,1.4-2.3,2.2-3,2.5
				c-0.6,0.3-1.8,0.4-3.4,0.4h-0.8h-0.4c-0.4,0-1,0-1.9-0.1c-0.9-0.1-1.6-0.1-1.9-0.1c-0.5,0-0.8,0.5-0.9,1.6
				c-0.3,2.5-0.6,4.4-1.2,5.6c-1,2.5-2.5,4.5-4.4,6.2c-2.3,1.9-5.1,2.9-8,2.9c-2.5,0-4.5-0.4-6.1-1.3c-1.8-1-2.8-2.4-2.8-4.2
				c0-1.4,0.3-2.6,0.6-3.5l1.7-3.2c0.3-0.6,0.4-0.9,0.4-1c0-0.4-0.1-0.6-0.5-0.6s-1,0.5-1.7,1.4c-2.3,3.3-3.6,6.7-3.6,10.2
				c0,1.9,0.9,3.6,2.6,4.9s3.9,1.9,6.3,1.9c4.9,0,9.2-2.1,13.1-6.2c3.2-3.5,5.2-7.3,5.8-11.5c0.6,0.6,1.6,0.9,2.8,0.9h1.4v-0.1
				c0.9-0.1,1.7-0.4,2.2-0.9l2.1-2.6c1.2-1.3,2.3-2,3.4-2c0.5,0,1.4,0.3,3,0.8c0.5,0,1.2-0.4,2.1-1.3s1.4-1.5,1.4-1.9
				c0-0.2-0.3-0.8-0.9-1.8C488.6,362.4,488.1,361.8,487.8,361.5z"/>
			<path class="st1" d="M558.8,360.1c2.6-1.4,3.9-2.3,3.9-2.7c0-0.7-1.2-1.7-3.4-3l-4,3v0.2C555.9,357.6,557.1,358.4,558.8,360.1z"
				/>
			<path class="st1" d="M564.1,359.6c-0.8,0.7-1.7,1.6-2.6,2.8c-1,1.3-1.7,2.3-1.8,3c-0.3,1.4-0.4,2.3-0.5,2.5c-0.6,0.7-1.8,1-3.5,1
				h-0.9h-1h-6.3c1.8-0.4,3.5-1.3,4.8-2.4c1.4-1.2,2.1-2.6,2.1-4c0-0.5-0.3-0.9-0.8-1.2c-0.5-0.3-1-0.5-1.7-0.5c-2.2,0-5.2,1-8.7,3
				l-4.5,2.6c-1.2-0.4-1.9-0.6-2.3-0.6s-1.2,0.4-2.3,1.3c-1,0.8-2.1,1.3-3.1,1.5c-0.8,0.2-1.9,0.3-3.5,0.3h-0.9h-0.3
				c-2.1,0-4,0.4-6.1,1.1c-1.7,0.6-3.6,1.8-5.6,3.4l-4.8,4.2c-1.9,1.7-4.8,3.6-8.4,5.7c-3.4,1.7-6,2.9-7.6,3.7
				c-1,0.4-1.6,0.7-1.8,0.9c0.1,0.2,0.3,0.3,0.4,0.3c0.3,0,1-0.1,2.3-0.4c3.2-0.7,5.8-1.6,7.9-2.7c2.6-1.4,5.4-3.3,8.4-5.8
				c1.3-1,2.5-2,3.8-3c1.6-1.2,3-2,4.4-2.4c1.7-0.6,4.1-0.9,7.1-0.9h1.4l0,0c1.3-0.1,2.3-0.4,2.8-0.9l1.8-1.9
				c0.9-0.8,1.6-1.4,2.2-1.6c2.5,1.6,4.7,2.6,6.5,3.2c2.8,0.8,6.9,1.2,12.2,1.2h0.5h1h0.1c0.9,0,2.1-0.6,3.5-1.8
				c1.7-1.4,3-3.2,3.9-5.3c1.4-3.6,2.1-5.6,2.1-5.9C564.3,360,564.2,359.8,564.1,359.6z M540.6,367c0.6-0.7,1.7-1.5,3.4-2.3
				c1.4-0.7,2.7-1.1,4-1.1c0.5,0,1.2,0.2,1.8,0.7s1,0.9,1,1.2c0,0.5-1,1-3.1,1.5c-1.8,0.4-3.2,0.6-4.5,0.6
				C542.3,367.6,541.5,367.4,540.6,367z"/>
		</g>
	</g>
</g>
</svg>
