<?xml version="1.0" encoding="UTF-8" standalone="no"?>
<!-- Created with Inkscape (http://www.inkscape.org/) -->

<svg
   xmlns:dc="http://purl.org/dc/elements/1.1/"
   xmlns:cc="http://creativecommons.org/ns#"
   xmlns:rdf="http://www.w3.org/1999/02/22-rdf-syntax-ns#"
   xmlns:svg="http://www.w3.org/2000/svg"
   xmlns="http://www.w3.org/2000/svg"
   version="1.1"
   width="1709"
   height="587"
   viewBox="0 0 85.45 29.35"
   id="svg2">
  <metadata
     id="metadata21">
    <rdf:RDF>
      <cc:Work
         rdf:about="">
        <dc:format>image/svg+xml</dc:format>
        <dc:type
           rdf:resource="http://purl.org/dc/dcmitype/StillImage" />
        <dc:title></dc:title>
      </cc:Work>
    </rdf:RDF>
  </metadata>
  <defs
     id="defs19" />
  <clipPath
     id="t">
    <path
       d="m 25,15 h 25 v 15 z m 0,0 V 30 H 0 z m 0,0 H 0 V 0 z m 0,0 V 0 h 25 z"
       id="path5" />
  </clipPath>
  <g
     transform="translate(-0.075,-0.2)"
     id="g3037">
    <path
       d="m 0.95848561,1.2301374 0,27.0691956 38.83158239,0 45.085734,0.429694 L 47.360018,15.258968 84.764479,1.1209728 39.790068,1.2301371 z"
       id="path7"
       style="fill:#e3e4e5;fill-opacity:1;stroke:#630b57;stroke-width:0.08371139;stroke-miterlimit:4;stroke-opacity:1;stroke-dasharray:none" />
    <g
       transform="matrix(0.21059343,0,0,0.17921862,54.565147,4.2784722)"
       id="g4567"
       style="fill:#630b57;fill-opacity:1;stroke:#000000;stroke-width:0.75;stroke-miterlimit:4;stroke-opacity:1;stroke-dasharray:none">
      <path
         d="m -105.83442,123.80724 c 0.29842,1.09764 0.10863,0.45723 0.65225,2.8974 0.2305,1.14573 0.19463,0.52409 0.35483,0.0578 0.9119,-2.91214 0.0979,-0.61535 0.99401,-3.48206"
         id="rect3793-1-4-8-8-5-1-1"
         style="fill:#630b57;fill-opacity:1;stroke:#000000;stroke-width:0.75;stroke-miterlimit:4;stroke-opacity:1;stroke-dasharray:none" />
      <path
         d="m -100.61704,122.22081 c 0.897939,0.69827 0.36151,0.30028 2.26193,1.92458 0.872517,0.77753 0.470422,0.30208 0.318419,-0.16691 -1.020286,-2.87596 0.0043,-0.0725 -1.001324,-2.90268"
         id="rect3793-1-4-8-8-5-1-15"
         style="fill:#630b57;fill-opacity:1;stroke:#000000;stroke-width:0.75;stroke-miterlimit:4;stroke-opacity:1;stroke-dasharray:none" />
      <path
         d="m -166.36928,113.68075 c -0.20127,1.11954 -0.098,0.45963 -0.65367,2.89708 -0.28326,1.13384 -0.049,0.55691 0.29572,0.20445 2.07293,-2.23944 0.0662,-0.0299 2.1054,-2.23506"
         id="rect3793-1-4-8-8-5"
         style="fill:#630b57;fill-opacity:1;stroke:#000000;stroke-width:0.75;stroke-miterlimit:4;stroke-opacity:1;stroke-dasharray:none" />
      <path
         d="m -162.13682,115.33889 c -0.13874,1.12899 -0.0723,0.46436 -0.49166,2.92893 -0.21981,1.14782 -0.018,0.55877 0.30662,0.1877 1.94528,-2.35118 0.0644,-0.0335 1.97794,-2.34861"
         id="rect3793-1-4-8-8-5-1"
         style="fill:#630b57;fill-opacity:1;stroke:#000000;stroke-width:0.75;stroke-miterlimit:4;stroke-opacity:1;stroke-dasharray:none" />
      <path
         d="m -150.12008,109.96515 c 0.0294,1.13711 -0.003,2.18618 -0.42709,3.04404 -0.15957,0.88876 -0.0221,0.33843 0.33096,0.14039 0.60693,-0.52322 1.40193,-2.0574 1.60966,-3.17445"
         id="rect3793-1-4-8-8-4-5"
         style="fill:#630b57;fill-opacity:1;stroke:#000000;stroke-width:0.75;stroke-miterlimit:4;stroke-opacity:1;stroke-dasharray:none" />
      <path
         d="m -154.1234,115.34218 c -0.03,1.13709 0.0539,1.18261 0.1033,3.6821 0.0474,1.16773 -0.065,0.55527 -0.33105,0.14021 -1.57554,-2.61339 -0.0588,-0.0427 -1.60822,-2.61568"
         id="rect3793-1-4-8-8-5-7"
         style="fill:#630b57;fill-opacity:1;stroke:#000000;stroke-width:0.75;stroke-miterlimit:4;stroke-opacity:1;stroke-dasharray:none" />
      <path
         d="m -205.85029,107.63403 c 0.0294,1.13711 -0.003,2.18618 -0.42709,3.04404 -0.15957,0.88876 -0.0221,0.33843 0.33096,0.14039 0.60693,-0.52322 1.75826,-1.85378 1.60966,-3.47988"
         id="rect3793-1-4-8-8-4"
         style="fill:#630b57;fill-opacity:1;stroke:#000000;stroke-width:0.75;stroke-miterlimit:4;stroke-opacity:1;stroke-dasharray:none" />
      <path
         d="m -211.45714,115.64403 c 0.11682,1.13148 0.0633,0.46569 0.43475,2.93792 0.1975,1.15188 0.16945,0.65086 -0.3102,0.18171 -0.0888,-0.027 -0.71093,-1.21792 -1.83863,-2.49931"
         id="rect3793-1-4-8"
         style="fill:#630b57;fill-opacity:1;stroke:#000000;stroke-width:0.75;stroke-miterlimit:4;stroke-opacity:1;stroke-dasharray:none" />
      <path
         d="m -220.28023,116.27153 c 0.0294,1.13711 -0.003,0.46996 -0.054,2.96942 -0.048,1.1677 0.0647,0.5553 0.33096,0.14039 1.57697,-2.61253 0.0588,-0.0427 1.60966,-2.61481"
         id="rect3793-1-4-8-8"
         style="fill:#630b57;fill-opacity:1;stroke:#000000;stroke-width:0.75;stroke-miterlimit:4;stroke-opacity:1;stroke-dasharray:none" />
      <path
         d="m -223.4205,112.92559 c -0.42515,1.05506 -0.18963,0.43003 -1.23022,2.70314 -0.50832,1.05235 -0.16142,0.53525 0.24786,0.26042 2.48572,-1.77014 0.071,-0.0153 2.51662,-1.75923"
         id="rect3793-1-4-8-8-2"
         style="fill:#630b57;fill-opacity:1;stroke:#000000;stroke-width:0.75;stroke-miterlimit:4;stroke-opacity:1;stroke-dasharray:none" />
      <path
         d="m -102.67067,105.76064 c 1.015,0.51348 1.92318,1.03961 2.47723,1.81986 0.706733,0.56205 0.287457,0.17999 0.280577,-0.22477 -0.172727,-0.78248 -1.146247,-2.21007 -2.031107,-2.92279"
         id="rect3793-1-4-8-8-4-5-7"
         style="fill:#630b57;fill-opacity:1;stroke:#000000;stroke-width:0.75;stroke-miterlimit:4;stroke-opacity:1;stroke-dasharray:none" />
      <path
         d="m -208.05231,-1.1080197 c -0.41106,-1.9339572 -0.69158,-3.8679145 2.06055,-5.8018717 l 1.37244,5.2660074 c 2.41729,-3.060307 4.23751,-2.5381981 6.22666,-3.0297029 l -1.53092,-4.5178648 c 2.85908,-0.073549 4.74483,1.7995719 6.2259,4.4820458 l 2.10296,-0.016044 c 4.76035,0.6858571 9.87732,0.9641541 13.75688,2.656628 5.18134,2.84350288 10.64368,5.9167843 12.34979,14.2602989 1.80367,17.580779 -5.7196,41.58508 8.26225,44.480692 18.3994,3.810478 24.38543,-6.645611 39.45479,-2.104068 9.68001,2.917321 9.96137,12.235605 12.63168,17.127554 1.0393,1.903979 2.15231,3.111251 3.69751,2.952873 2.584137,-0.710367 6.124471,-11.216473 -0.68215,-17.946668 -1.13009,-1.117406 -2.13817,-2.181632 -3.89043,-3.028755 -0.54213,-0.714737 -1.89563,-1.258196 -3.13631,-1.765236 -5.47197,-2.236283 -16.6709,-2.773955 -24.18283,-4.448633 -6.8556,-1.528358 -10.53809,-4.12445 -10.27023,-4.267132 -4.43495,0.923047 -7.09119,-0.985246 -9.19357,-3.550141 1.6417,0.399279 2.33666,0.930704 4.35111,0.336 -4.39401,-4.766801 -5.91635,-11.781881 -5.36252,-14.300402 1.45738,0.90236 1.20057,4.947418 5.12613,1.324783 -2.76968,-3.719736 -1.5128,-7.439471 -1.25793,-11.159207 1.39491,2.909726 3.11354,2.906052 4.96781,1.681475 1.74325,-2.583991 2.47362,-5.336795 6.78579,-7.492634 -0.45784,1.732572 -0.97296,3.4766 -0.11169,4.945349 0.40731,-0.03163 0.75928,0.412791 1.15151,0.359822 19.06402,-2.574446 23.48402,-6.7329577 26.28966,-11.4297763 l 0.28809,2.0343367 c -0.36293,1.6643227 -0.0742,2.4562715 -1.44556,4.0429178 -4.10636,4.7508038 -12.40557,9.4296498 -24.02584,10.2908968 4.70371,0.223725 8.84213,1.251502 16.12757,-1.421657 2.72689,-1.000545 6.20107,-3.088624 9.86718,-5.107547 0.35111,-0.193361 0.35117,0.167411 0.71298,-0.03775 -10.61502,13.692073 -20.95436,11.143248 -25.67895,11.420097 8.7519,5.005446 15.94686,-0.423081 23.53992,-3.402717 -0.99929,2.096302 -2.95241,4.599838 -5.37659,6.696139 -1.2928,1.117952 -10.07177,3.712132 -20.78601,1.266773 -0.81018,-0.184913 0.76976,2.094672 4.26107,3.293917 3.62921,1.24661 9.18023,1.428368 8.54961,1.967703 -1.65065,1.820022 -4.29878,1.645074 -7.32642,0.711131 -4.29976,0.167321 -8.59952,-4.070604 -12.89929,1.035327 0.51895,1.074956 0.43742,2.47579 1.36095,3.434137 1.86923,1.93968 5.49136,3.170091 9.9895,3.942047 l 17.19557,2.485455 8.49983,1.535443 4.68492,2.480626 c 3.839715,5.620887 9.463775,10.011006 8.059186,19.088057 -0.27623,1.785115 -1.460464,3.849374 -2.286154,6.032621 l -3.037842,2.600666 c -6.98359,0.178686 -6.35762,-6.755304 -9.53643,-6.037227 -1.70515,0.385184 -3.76663,3.033863 -5.47178,8.93298 2.77581,0.827944 4.13359,2.467444 4.62003,4.211136 -1.11046,8.159046 -0.0489,13.93918 3.50054,16.994539 1.49557,1.28739 4.64343,1.39924 5.83539,2.38502 -0.83165,0.87535 -1.6594,1.83793 -1.49007,3.06127 0.20489,1.48022 1.60974,3.27133 2.87018,4.83421 l 3.293904,0.11074 c 3.255228,2.9146 2.247162,5.06561 0.940368,6.15142 -0.87553,0.72748 -1.829043,0.83653 -1.933091,0.8986 -1.418511,3.94513 -2.837021,2.54711 -4.255531,2.05735 -0.36352,0.33856 -0.56061,1.15002 -0.91033,1.38649 -2.84408,1.92307 -5.53131,-0.20116 -3.51081,-10.03997 -3.80935,-7.84091 -5.53085,-13.20893 -9.99355,-17.437219 -4.34818,-4.119787 -9.82103,-6.665031 -16.56613,-7.429135 L -152.7,73.368082 c -6.67875,2.324688 -15.59748,4.142404 -19.0664,10.212537 l -4.24652,3.743184 c -0.39084,3.161812 -0.0576,6.323624 -0.0393,9.485435 -2.11729,0.347752 -4.30734,0.261325 -6.4683,0.71546 -6.92189,1.454671 -14.01662,4.213162 -21.38438,9.280522 l -0.86585,0.99842 -1.5116,-0.21174 -4.37611,1.54375 c 0.0435,0.66797 -0.66331,0.92282 -0.58497,1.46543 0.39763,2.754 0.31793,4.41452 -0.31049,4.89148 -1.02476,0.77777 -4.17272,2.15559 -4.22116,-1.56607 -0.38332,2.5173 -1.77343,3.47407 -4.86748,1.78974 9.5e-4,-0.16038 0.43095,-2.33949 -1.70152,-1.86406 -1.8868,0.42065 -2.35671,-3.10639 1.00286,-5.25811 1.09424,-0.70083 3.22588,-0.68187 5.66816,-1.31861 0.72464,-0.18892 1.15753,-0.88955 2.01615,-1.08396 19.5092,-6.15224 32.56542,-13.758671 19.61314,-27.226173 -6.58942,-4.846639 -10.8261,-11.541853 -4.62522,-26.438012 6.85702,-12.521063 19.84499,-25.222447 12.20575,-37.317148 -0.46626,7.821539 -8.7849,7.292704 -15.74159,8.582228 -2.06729,0.383201 -3.73584,1.576704 -5.39076,2.384628 -0.89523,-0.935086 -0.22959,-1.714085 0.16901,-2.519787 l 3.15383,-1.317553 c 5.13921,-1.045938 11.76931,-1.390557 11.27751,-4.422466 -0.59517,-0.259611 -1.38436,-1.816861 -1.96158,-1.932892 -3.09539,-0.622223 -5.95067,0.676517 -8.75822,2.357018 -3.46432,2.049661 -6.00479,2.482605 -7.62437,1.303967 l -0.59582,-4.994763 c -5.70113,-1.659281 -4.68862,-3.902358 0.19979,-6.4824681 -0.2462,-3.0920295 -0.15226,-6.1840591 3.68318,-9.2760886 z"
         id="rect4721"
         style="fill:#630b57;stroke:none" />
      <path
         d="m -133.75815,87.707416 c 0.18832,0.475066 0.52017,1.526348 0.65849,1.970262 3.54149,11.365592 -8.86043,12.793012 -14.45556,18.211042 -0.26191,0.79609 -0.57524,1.59218 -1.02981,2.38827 -0.24702,0.85474 -0.42269,0.0638 -0.76298,0.0705 -1.36398,-1.29348 -1.42178,-0.62769 -2.0242,-0.77884 -0.0526,1.01884 -2.94823,1.94313 -2.69826,2.82784 1.16586,4.12631 -1.85457,6.3518 -3.89248,2.06467 -2.15416,2.95761 -5.21253,1.27699 -4.29037,-1.20839 -1.55129,1.68737 -3.46343,1.79307 -4.47609,-0.0545 -0.0804,-0.96604 0.59445,-2.17746 1.58826,-2.94604 2.06776,-1.56444 5.57616,-2.53794 9.4009,-3.5603 4.2282,-1.1302 11.8324,-3.9069 13.15389,-9.481371 1.16819,-4.927822 -14.23835,-7.561258 -9.00304,-23.778062"
         id="rect3019"
         style="fill:#630b57;fill-opacity:1;stroke:#000000;stroke-width:0.75;stroke-miterlimit:4;stroke-opacity:1;stroke-dasharray:none" />
      <path
         d="m -201.16243,60.682731 c -2.9154,0.764087 -4.98963,0.544835 -6.92774,-0.411054 -7.77115,-3.832778 -9.54574,-6.179849 -20.23522,1.227378 -2.48064,2.394972 -6.98656,2.47937 -10.13044,2.131125 -2.90142,-0.330358 -5.12805,-1.280637 -6.1834,1.594833 -0.62217,1.695224 0.21838,3.595408 2.62828,3.1028 1.11739,-0.228406 1.58059,0.145732 3.21027,-1.244587 0.72874,0.141031 -3.67877,1.322461 -2.82706,1.417057 -2.25999,1.433411 -0.28986,3.663778 1.65313,3.813614 1.27484,0.09831 2.50506,-2.000224 3.22957,-3.323831 -0.27948,0.537145 -1.70556,3.043046 -1.70903,3.479276 -0.0237,2.979989 5.54379,3.334068 5.1049,-2.643881 -0.0226,-0.307679 1.36593,-1.969795 3.61851,-3.467117 2.1174,-1.407473 1.41873,1.385358 1.89994,1.145246 0.9235,-0.460808 1.6124,-2.554683 2.59367,-3.016004 3.31037,-1.556288 5.20364,-3.896441 8.95552,-2.736345 9.6341,2.978899 9.5577,16.878264 20.22236,17.2038 0.45054,0.01375 1.36797,0.0033 1.85839,-0.03327"
         id="rect3793-7"
         style="fill:#630b57;fill-opacity:1;stroke:#000000;stroke-width:0.75;stroke-miterlimit:4;stroke-opacity:1;stroke-dasharray:none" />
      <path
         d="m -95.071231,115.94508 c 1.549901,3.4024 -3.325839,4.70403 -3.366461,2.80356 0.927487,3.1254 -3.671698,5.31852 -4.269908,1.35302 1.61788,3.62266 -1.89514,3.50836 -2.32784,3.53804 -5.1332,0.35206 0.41464,-8.67327 -2.39417,-13.03742 -2.60184,-4.04259 -4.62318,-9.57395 -7.97858,-13.631462 -10.2577,-12.404107 -25.17953,-1.306848 -30.44776,-28.334371 m 1.15672,4.508995 c -2.16267,-0.30054 -5.62401,-0.04533 -8.23138,0.42303 -8.5565,1.536988 -16.08957,5.942075 -17.66357,8.271262 m 5.95983,-22.64374 c 0.94803,2.431461 1.19396,4.604075 1.28448,5.337898 0.75621,6.1304 -3.98947,12.99401 -7.94451,18.280327 -1.08988,1.45674 -3.47985,2.273115 -4.71549,4.512636 m -0.24475,8.128716 c 0.10378,0.919904 0.32766,1.236939 -0.58187,1.246456 -9.3027,0.224111 -17.92768,5.192223 -26.64752,9.496273 -0.71683,0.35382 -0.96056,2.71656 -2.15284,1.045 -4.93522,2.71326 -6.80231,0.78273 -5.25863,5.74136 0.23309,0.78456 0.21606,1.56913 -0.49801,2.3537 -0.52159,0.70765 -3.99246,2.33198 -4.40827,-0.71319 -0.81045,2.08995 -2.65283,2.21342 -3.4291,1.97529 -1.33892,-0.41072 -2.18746,-0.67116 -1.48335,-2.48348 0.054,-0.13892 0.11678,-0.28338 0.18884,-0.43337 -0.21378,0.0935 -0.41434,0.16687 -0.60211,0.22164 -3.44218,1.004 -2.58653,-4.22828 -0.12924,-5.45393 2.20044,-1.09754 3.41253,-0.28511 5.20399,-1.12041 16.61437,-5.6644 22.80992,-10.016981 25.50097,-13.694894 1.76048,-2.406078 1.79532,-4.523412 1.22932,-6.530389 -0.5723,-3.642639 -2.60832,-6.0454 -4.83486,-8.316534 -6.35339,-2.578492 -6.45274,-5.92269 -7.03958,-10.352162 -3.23949,-20.58577 26.05294,-37.068043 14.7321,-53.781568 -2.54977,12.527822 -14.71514,6.1903 -21.05281,11.342226 -1.2081,-1.769618 0.42543,-2.630142 3.90848,-3.729594 9.27853,-0.873902 11.83735,-2.808809 10.10033,-5.422008 -3.18292,-2.623142 -11.23376,1.809056 -13.21831,3.087071 -7.18587,2.08624 -3.25703,-2.321554 -5.4682,-5.59688 -3.89475,0.265492 -5.07826,-3.998798 0.96625,-6.506582 -0.54824,-4.9292675 1.45969,-7.04067388 3.47316,-8.76779268 -0.55459,-3.44441662 0.49723,-4.54761442 1.67606,-5.63700462 0.65533,-0.2670995 0.43187,-0.4601527 0.5838,0.5866515 l 0.48801,3.3623329 c 0.0922,1.67179146 0.33699,0.850463 0.91857,-0.028395 1.18285,-1.456601 3.05416,-1.9952476 5.51031,-1.7541131 0.30348,-1.6815961 -2.88448,-4.6210537 -0.66892,-5.0447881 2.30017,0.1898148 4.15801,2.1489679 5.78894,5.0157197 50.04217,0.4383256 14.88426,48.2794964 33.36694,60.0539804 11.65852,6.280597 23.53915,-2.630135 35.55401,-2.218617 16.18571,0.708226 15.39111,10.86164 19.11447,17.964724 1.91892,4.533663 4.88144,4.717317 6.414385,1.123818 2.608232,-6.355247 1.334844,-21.796049 -22.303915,-23.418019 -3.29577,-0.226139 -13.9572,-0.967109 -21.95102,-5.393548 -0.85226,-0.471922 -5.602,0.323537 -8.95312,-3.307831 -1.05608,-1.090802 -0.33443,-0.685601 0.6041,-0.322112 2.04095,0.655306 3.6482,0.259223 2.9617,-0.482846 -1.7768,-1.920618 -3.77815,-5.939836 -5.51421,-13.609669 -0.36769,-1.471322 0.0835,-0.765776 0.39804,-0.18895 1.54415,2.471008 3.27574,4.249375 5.07227,1.527863 -1.66431,-3.332046 -1.98048,-7.741928 -1.3043,-10.234308 0.41137,-1.477552 0.58667,-1.023228 1.12056,0.02728 1.43475,2.45943 2.77121,1.449161 3.84847,0.882127 1.01498,-0.534249 2.34838,-4.914637 5.67372,-7.207217 1.00314,-0.647751 1.17233,-0.7726522 0.85417,0.341073 -0.97934,3.738217 0.14508,4.483163 1.59996,4.220312 16.80847,-3.03676 22.45483,-4.609068 25.81082,-11.1046313 0.41776,-0.8085738 4.76125,10.2522573 -22.0168,15.8715243 -1.39044,0.291779 -2.10949,0.06616 -3.67139,0.327079 11.52204,0.23803 14.76676,0.86451 26.33412,-6.538347 1.80216,-1.473714 0.47005,0.816111 -0.0198,1.472534 -2.90255,3.845772 -11.53798,11.005226 -24.87962,9.865867 10.43107,4.256153 18.32248,-0.230433 22.8704,-3.068718 0.86971,-0.556919 0.86305,-0.193883 0.23271,0.824742 -7.43855,11.491275 -17.77608,7.172061 -25.12769,6.76335 -1.76343,-0.09804 0.51676,2.876927 10.54229,4.780807 2.02274,0.264647 2.49881,0.465143 0.62631,1.236938 -4.38709,1.244797 -12.97592,-1.933613 -15.99789,-1.607002 -2.28239,0.246678 -7.32329,6.356208 8.11248,9.966448 5.08946,1.19036 12.04897,0.86286 22.46017,3.210382 10.27732,1.621731 17.371813,13.095073 16.5854,21.899692 -0.323816,2.805359 -1.822979,5.718848 -3.967777,7.817925 -1.486623,1.286937 -3.242363,1.337962 -4.666713,0.83982 -1.81598,-0.677272 -2.50547,-1.980334 -3.24487,-3.450647 -0.33058,-0.614415 -0.70975,-1.219225 -1.19031,-1.764443 -1.86019,-2.110476 -5.49502,0.924307 -7.42238,7.94388 -0.15238,0.554966 1.22401,1.220317 2.41742,2.177901 1.30633,1.048183 2.58492,2.471065 2.21962,4.58777 -1.24671,7.22404 0.70194,15.836052 6.06941,16.332372 0.89342,0.0826 1.75377,0.31374 2.56568,0.64019 0.5117,0.21524 0.66349,1.03792 -0.54746,1.82393 -1.01157,0.63949 -1.03899,2.45697 2.19962,6.24036 1.571882,1.8363 4.103076,-1.95286 5.574155,3.47385"
         id="rect3028"
         style="fill:none;stroke:#000000;stroke-width:0.75;stroke-miterlimit:4;stroke-opacity:1;stroke-dasharray:none" />
      <path
         d="m -205.60376,1.0522326 c 2.51522,-3.1705067 4.68328,0.9487477 8.76421,0.2368707 -1.53184,1.1278289 -3.06368,0.8318838 -4.59552,0.4199012 -1.84264,-0.75802553 -2.60298,-0.2698707 -4.00795,0.8346757 -2.05725,1.5957751 -2.42629,1.7068343 -3.83224,2.4169191 1.96907,-0.8733783 3.31631,-3.1756868 3.6715,-3.9083667 z"
         id="rect3790"
         style="fill:#630b57;fill-opacity:1;stroke:#000000;stroke-width:0.75;stroke-miterlimit:4;stroke-opacity:1;stroke-dasharray:none" />
      <path
         d="m -199.68199,2.2365861 c -2.43342,3.2730376 -5.49271,3.3001446 -7.46143,1.6580947"
         id="rect3793"
         style="fill:#630b57;fill-opacity:1;stroke:#000000;stroke-width:0.75;stroke-miterlimit:4;stroke-opacity:1;stroke-dasharray:none" />
      <path
         d="m -203.7088,3.7170279 a 0.88826513,1.0067004 0 1 1 -1.77653,0 0.88826513,1.0067004 0 1 1 1.77653,0 z"
         transform="translate(0,-0.2368707)"
         id="path3796"
         style="fill:#630b57;fill-opacity:1;stroke:#000000;stroke-width:0.75;stroke-miterlimit:4;stroke-opacity:1;stroke-dasharray:none" />
      <path
         d="m -193.04459,80.044641 c -3.82927,-5.726658 -3.89141,-9.110762 -3.85418,-12.255789"
         id="rect3793-1"
         style="fill:none;stroke:#000000;stroke-width:0.75;stroke-miterlimit:4;stroke-opacity:1;stroke-dasharray:none" />
      <path
         d="m -235.87296,74.638605 c -0.67077,0.918661 -0.0951,0.142733 -1.47429,2.227866 -0.62444,0.987874 -0.30985,0.596928 -0.35207,-0.07267 -0.0479,-0.07945 0.21148,-0.540654 0.23169,-2.247483"
         id="rect3793-1-4"
         style="fill:#630b57;fill-opacity:1;stroke:#000000;stroke-width:0.75;stroke-miterlimit:4;stroke-opacity:1;stroke-dasharray:none" />
      <path
         d="m -240.48286,72.099585 c -0.87716,0.724188 -0.12745,0.114773 -1.97956,1.793945 -0.8494,0.80271 -0.44788,0.501731 -0.32316,-0.157501 -0.0267,-0.08883 0.33865,-0.47154 0.78044,-2.120326"
         id="rect3793-1-4-9"
         style="fill:#630b57;fill-opacity:1;stroke:#000000;stroke-width:0.75;stroke-miterlimit:4;stroke-opacity:1;stroke-dasharray:none" />
      <path
         d="m -244.78604,67.503107 c -1.11466,-0.226669 -0.16937,-0.02697 -2.63966,-0.411172 -1.15826,-0.155698 -0.67176,-0.03276 -0.0807,-0.350308 2.45044,-0.811914 0.13411,-0.0777 2.48466,-0.804443"
         id="rect3793-1-4-4"
         style="fill:#630b57;fill-opacity:1;stroke:#000000;stroke-width:0.75;stroke-miterlimit:4;stroke-opacity:1;stroke-dasharray:none" />
      <path
         d="m -95.099361,117.59844 c 0.665544,0.92246 0.287098,0.37207 1.842032,2.32965 0.745657,0.8999 0.284977,0.48097 -0.17825,0.31221 -2.837425,-1.12301 -0.07262,0.002 -2.864809,-1.10502"
         id="rect3793-1-4-8-8-5-1-2"
         style="fill:#630b57;fill-opacity:1;stroke:#000000;stroke-width:0.75;stroke-miterlimit:4;stroke-opacity:1;stroke-dasharray:none" />
      <path
         d="m -173.20648,43.635125 c -2.18699,3.497723 -2.86851,4.210732 -3.68035,7.609966 -2.68689,-3.633326 -0.59319,-6.37604 -3.44244,-7.590315"
         id="rect3793-1-6"
         style="fill:none;stroke:#000000;stroke-width:0.75;stroke-miterlimit:4;stroke-opacity:1;stroke-dasharray:none" />
      <path
         d="m -186.3392,42.779705 c 1.46669,3.855623 0.87705,4.907078 1.01383,8.399236 3.34087,-3.042871 2.41379,-6.898962 5.44452,-7.537258"
         id="rect3793-1-6-1"
         style="fill:none;stroke:#000000;stroke-width:0.75;stroke-miterlimit:4;stroke-opacity:1;stroke-dasharray:none" />
      <path
         d="m -166.22628,41.971448 c -1.46067,3.459197 -3.48659,5.630009 -3.61534,8.917147 -3.11572,-2.837805 -1.34565,-6.2362 -3.55127,-7.199112"
         id="rect3793-1-6-1-4"
         style="fill:none;stroke:#000000;stroke-width:0.75;stroke-miterlimit:4;stroke-opacity:1;stroke-dasharray:none" />
      <path
         d="m -192.49183,42.489359 c 1.46669,3.855623 0.53969,5.750494 0.67647,9.242652 3.34087,-3.042871 2.75115,-8.248428 5.78188,-8.886724"
         id="rect3793-1-6-1-2"
         style="fill:none;stroke:#000000;stroke-width:0.75;stroke-miterlimit:4;stroke-opacity:1;stroke-dasharray:none" />
      <path
         d="m -198.39401,53.081477 c 2.32825,-3.804281 4.67302,-4.491043 6.35428,-9.852471"
         id="rect3793-1-6-1-3"
         style="fill:none;stroke:#000000;stroke-width:0.75;stroke-miterlimit:4;stroke-opacity:1;stroke-dasharray:none" />
      <path
         d="m -174.61038,10.522576 c 1.28954,3.389924 1.04228,4.904781 1.13845,7.492533 -0.0609,1.369673 0.22898,0.994117 0.93641,0.208231 2.26681,-2.843665 1.57645,-5.588306 4.29786,-6.161457"
         id="rect3793-1-6-1-22"
         style="fill:#630b57;fill-opacity:1;stroke:#000000;stroke-width:0.75;stroke-miterlimit:4;stroke-opacity:1;stroke-dasharray:none" />
      <path
         d="m -176.04652,-1.20792 c 2.65111,3.7710219 -0.22275,5.3285271 1.43685,11.612523 3.34087,-3.0428713 2.24458,-5.7166223 5.27531,-6.3549183"
         id="rect3793-1-6-1-1"
         style="fill:none;stroke:#000000;stroke-width:0.75;stroke-miterlimit:4;stroke-opacity:1;stroke-dasharray:none" />
      <path
         d="m -184.73241,-3.8985484 c 1.46669,3.85562298 4.25073,4.73839498 4.38751,8.230553 1.85754,-3.042871 -0.39692,-5.8868622 1.90216,-6.6938415"
         id="rect3793-1-6-1-6"
         style="fill:none;stroke:#000000;stroke-width:0.75;stroke-miterlimit:4;stroke-opacity:1;stroke-dasharray:none" />
      <path
         d="m -192.15447,-4.5732819 c 1.46669,3.85562305 6.94966,5.24444494 7.08644,8.7366029 3.34087,-3.042871 -3.32145,-7.4050119 -0.29072,-8.0433079"
         id="rect3793-1-6-1-8"
         style="fill:none;stroke:#000000;stroke-width:0.75;stroke-miterlimit:4;stroke-opacity:1;stroke-dasharray:none" />
      <path
         d="m -175.11746,28.151278 c 1.46669,3.855623 2.43015,5.501962 2.56693,8.99412 3.34087,-3.042871 0.69201,-7.493846 3.72274,-8.132142"
         id="rect3793-1-6-1-5"
         style="fill:#630b57;fill-opacity:1;stroke:#000000;stroke-width:0.75;stroke-miterlimit:4;stroke-opacity:1;stroke-dasharray:none" />
      <path
         d="m -181.26996,26.905726 c 1.30615,3.912925 0.42507,5.837395 0.41746,9.332222 3.46373,-2.902251 2.73275,-7.017063 5.78726,-7.529606"
         id="rect3793-1-6-1-7"
         style="fill:#630b57;fill-opacity:1;stroke:#000000;stroke-width:0.75;stroke-miterlimit:4;stroke-opacity:1;stroke-dasharray:none" />
      <path
         d="m -184.56198,27.104249 c 3.34087,-3.042871 1.8558,-6.78294 4.88653,-7.421236"
         id="rect3793-1-6-1-61"
         style="fill:#630b57;fill-opacity:1;stroke:#000000;stroke-width:0.75;stroke-miterlimit:4;stroke-opacity:1;stroke-dasharray:none" />
      <path
         d="m -186.92528,6.2224489 c 1.46669,3.8556231 6.94965,4.2323451 7.4238,11.7729021"
         id="rect3793-1-6-1-89"
         style="fill:#630b57;fill-opacity:1;stroke:#000000;stroke-width:0.75;stroke-miterlimit:4;stroke-opacity:1;stroke-dasharray:none" />
      <path
         d="m -179.47989,8.4996735 c 1.46669,3.8556235 4.08203,4.9070785 1.68857,11.2668525"
         id="rect3793-1-6-1-89-2"
         style="fill:#630b57;fill-opacity:1;stroke:#000000;stroke-width:0.75;stroke-miterlimit:4;stroke-opacity:1;stroke-dasharray:none" />
      <path
         d="m -175.26282,77.659826 c 1.46669,3.855623 -2.49558,10.727949 -0.84065,18.268506"
         id="rect3793-1-6-1-89-7"
         style="fill:none;stroke:#000000;stroke-width:0.75;stroke-miterlimit:4;stroke-opacity:1;stroke-dasharray:none" />
      <path
         d="m -180.74932,35.797605 c 1.46669,3.855623 0.9434,3.827264 1.08018,7.319422 3.34087,-3.042871 1.73802,-5.968348 4.76875,-6.606644"
         id="rect3793-1-6-1-7-5"
         style="fill:#630b57;fill-opacity:1;stroke:#000000;stroke-width:0.75;stroke-miterlimit:4;stroke-opacity:1;stroke-dasharray:none" />
      <path
         d="m -187.60002,34.636304 c 1.46669,3.855623 1.72047,4.063662 1.85725,7.55582 3.34087,-3.042871 1.8589,-5.246744 4.88963,-5.88504"
         id="rect3793-1-6-1-7-4"
         style="fill:#630b57;fill-opacity:1;stroke:#000000;stroke-width:0.75;stroke-miterlimit:4;stroke-opacity:1;stroke-dasharray:none" />
      <path
         d="m -175.45275,36.347675 c 1.16339,3.535571 2.40633,4.016517 2.1471,7.485057 3.78767,-2.464563 2.52039,-6.890778 4.77096,-7.200884"
         id="rect3793-1-6-1-7-5-3"
         style="fill:none;stroke:#000000;stroke-width:0.75;stroke-miterlimit:4;stroke-opacity:1;stroke-dasharray:none" />
      <path
         d="m -187.85131,35.116705 c 5.3025,-3.074156 2.49988,-4.916055 6.6253,-8.71804"
         id="rect3793-1-6-1-7-5-1"
         style="fill:#630b57;fill-opacity:1;stroke:#000000;stroke-width:0.75;stroke-miterlimit:4;stroke-opacity:1;stroke-dasharray:none" />
      <path
         d="m -168.62315,28.23562 c -0.0441,3.301779 2.48642,5.536763 2.66463,8.303805"
         id="rect3793-1-6-1-7-5-2"
         style="fill:#630b57;fill-opacity:1;stroke:#000000;stroke-width:0.75;stroke-miterlimit:4;stroke-opacity:1;stroke-dasharray:none" />
      <path
         d="m -168.92717,36.839507 c 0.4032,2.875044 2.24251,3.393203 2.78906,4.918722"
         id="rect3793-1-6-1-7-5-2-3"
         style="fill:none;stroke:#000000;stroke-width:0.75;stroke-miterlimit:4;stroke-opacity:1;stroke-dasharray:none" />
      <path
         d="m -179.92528,19.503126 c 1.30615,3.912925 2.19755,5.1637 2.18994,8.658527 3.46373,-2.902251 1.72064,-7.691796 4.77515,-8.204339"
         id="rect3793-1-6-1-7-1"
         style="fill:#630b57;fill-opacity:1;stroke:#000000;stroke-width:0.75;stroke-miterlimit:4;stroke-opacity:1;stroke-dasharray:none" />
      <path
         d="m -173.24638,20.057604 c 1.30615,3.912925 3.78414,5.790005 3.77653,9.284832 3.46373,-2.902251 1.55196,-7.691796 4.60647,-8.204339"
         id="rect3793-1-6-1-7-1-1"
         style="fill:#630b57;fill-opacity:1;stroke:#000000;stroke-width:0.75;stroke-miterlimit:4;stroke-opacity:1;stroke-dasharray:none" />
      <path
         d="m -168.70748,11.788998 c 1.35872,3.571803 -0.0606,4.447558 -0.1682,7.333475 -0.0885,0.911567 0.16435,0.571428 0.63251,0.107575 1.63644,-1.745421 1.90628,-3.244568 2.85488,-4.729077"
         id="rect3793-1-6-1-22-3"
         style="fill:none;stroke:#000000;stroke-width:0.75;stroke-miterlimit:4;stroke-opacity:1;stroke-dasharray:none" />
      <path
         d="m -216.53909,110.12203 c -1.67238,0.64816 -3.54018,1.40117 -4.43517,4.95056"
         id="rect3793-1-6-1-89-8"
         style="fill:#630b57;fill-opacity:1;stroke:#000000;stroke-width:0.75;stroke-miterlimit:4;stroke-opacity:1;stroke-dasharray:none" />
      <path
         d="m -214.63679,111.8451 c -1.62632,2.07798 -1.11532,1.94723 -1.47122,3.35867"
         id="rect3793-1-6-1-89-8-7"
         style="fill:#630b57;fill-opacity:1;stroke:#000000;stroke-width:0.75;stroke-miterlimit:4;stroke-opacity:1;stroke-dasharray:none" />
      <path
         d="m -158.87496,110.25321 c -2.08075,1.41045 -2.59794,1.35903 -3.59176,3.60109"
         id="rect3793-1-6-1-89-8-4"
         style="fill:#630b57;fill-opacity:1;stroke:#000000;stroke-width:0.75;stroke-miterlimit:4;stroke-opacity:1;stroke-dasharray:none" />
      <path
         d="m -156.122,111.33235 c -1.98437,1.94285 -2.06203,2.85229 -2.29333,3.7696"
         id="rect3793-1-6-1-89-8-2"
         style="fill:#630b57;fill-opacity:1;stroke:#000000;stroke-width:0.75;stroke-miterlimit:4;stroke-opacity:1;stroke-dasharray:none" />
    </g>
  </g>
</svg>
