<?xml version="1.0" encoding="UTF-8" standalone="no"?>
<!-- Created with Inkscape (http://www.inkscape.org/) -->
<svg
   xmlns:svg="http://www.w3.org/2000/svg"
   xmlns="http://www.w3.org/2000/svg"
   version="1.0"
   width="493.57144"
   height="321.42856"
   id="svg2">
  <defs
     id="defs4" />
  <g
     transform="translate(-125,-366.6479)"
     id="layer1">
    <rect
       width="493.57144"
       height="321.42856"
       x="125"
       y="366.64786"
       style="opacity:1;color:#000000;fill:#ffffff;fill-opacity:1;fill-rule:evenodd;stroke:none;stroke-width:10;stroke-linecap:butt;stroke-linejoin:miter;marker:none;marker-start:none;marker-mid:none;marker-end:none;stroke-miterlimit:4;stroke-dasharray:none;stroke-dashoffset:0;stroke-opacity:1;visibility:visible;display:inline;overflow:visible"
       id="rect2857" />
    <path
       d="M 238.97568,473.57092 L 203.00161,447.6482 L 167.35396,474.01799 L 180.89133,431.79406 L 144.79644,406.03984 L 189.13706,405.86673 L 202.47684,363.57996 L 216.34349,405.69691 L 260.68282,405.31646 L 224.91225,431.51927 L 238.97568,473.57092 z "
       transform="translate(-0.714286,12.14286)"
       style="opacity:1;color:#000000;fill:#aa0000;fill-opacity:1;fill-rule:evenodd;stroke:none;stroke-width:10;stroke-linecap:butt;stroke-linejoin:miter;marker:none;marker-start:none;marker-mid:none;marker-end:none;stroke-miterlimit:4;stroke-dasharray:none;stroke-dashoffset:0;stroke-opacity:1;visibility:visible;display:inline;overflow:visible"
       id="path1935" />
    <path
       d="M 353.69466,463.56193 C 351.06469,463.02624 352.20558,460.91529 355.32468,460.54598 C 358.72186,460.14375 359.26224,458.05186 358.69292,447.50718 C 358.44995,443.00697 358.643,439.08281 359.12191,438.78682 C 360.16894,438.13972 357.33917,432.37755 355.09632,430.58965 C 350.27999,426.75027 345.69856,425.23526 339.57569,425.45724 C 336.14015,425.58179 332.8436,425.38354 332.25003,425.0167 C 331.65647,424.64985 331.01989,424.76932 330.83541,425.28218 C 330.52323,426.15005 321.27518,424.26831 319.02847,422.87977 C 317.93983,422.20695 321.69063,414.36217 323.10097,414.36217 C 323.59544,414.36217 324,413.68717 324,412.86217 C 324,412.03717 324.37043,411.36217 324.82319,411.36217 C 325.93565,411.36217 339.65261,398.12287 339.84634,396.86217 C 339.93085,396.31217 340.5625,395.86217 341.25,395.86217 C 341.9375,395.86217 343.03036,395.18717 343.67858,394.36217 C 344.71756,393.03984 344.93293,393.0575 345.49685,394.51126 C 345.90317,395.55875 347.29725,396.16562 349.31827,396.17481 C 351.06822,396.18277 354.975,396.63297 358,397.17526 C 361.025,397.71755 363.95,397.81779 364.5,397.39802 C 365.70758,396.47635 366.23105,396.40786 377,395.76245 C 392.002,394.86335 401.82734,394.97499 403.18121,396.05994 C 403.90655,396.6412 408.325,397.38799 413,397.71948 C 420.45431,398.24805 431.56257,399.31884 434.5,399.79199 C 438.65714,400.46162 446.18043,404.32883 449.53785,407.52194 C 451.75867,409.63407 454.09881,411.36217 454.73816,411.36217 C 456.88217,411.36217 457.96611,414.66647 456.23689,415.9309 C 455.37024,416.56461 454.59546,418.48783 454.51516,420.20473 C 454.43486,421.92162 454.08982,423.60568 453.74842,423.94708 C 453.40702,424.28849 453.50405,425.55773 453.96405,426.76762 C 454.44194,428.02457 454.39328,429.69493 453.85052,430.6648 C 453.26383,431.71314 453.25929,432.36217 453.83863,432.36217 C 454.35453,432.36217 454.83715,434.27467 454.9111,436.61217 C 454.36071,454.34171 454.51622,438.09485 456.48706,451.02556 C 458.13326,461.82627 453.23051,462.0667 448.47663,463.26374 C 442.31001,464.81651 441,464.65855 441,462.36217 C 441,461.26217 441.65917,460.36217 442.46482,460.36217 C 445.86221,460.36217 447.19147,450.11021 444.3553,445.78168 C 442.01676,442.21261 440.59555,443.28492 440.85359,448.42372 C 441.23592,456.038 441.08469,457.13756 439.18632,460.54594 C 437.51318,463.54992 436.8525,463.89063 432.16963,464.16443 C 427.03682,464.46454 425.06183,463.0145 428.75,461.65373 C 429.7125,461.29861 430.76455,460.6167 431.0879,460.13838 C 432.28806,458.36299 431.93008,451.4565 430.4953,448.70555 C 429.67966,447.14169 429.00955,445.27311 429.00616,444.55315 C 429.00277,443.83319 428.56319,443.5141 428.02932,443.84405 C 427.49544,444.17401 426.77032,443.29524 426.41794,441.89124 C 425.7959,439.41285 425.58565,439.35237 419.19756,439.81422 C 415.22258,440.10161 412.09971,439.85989 411.30894,439.20361 C 410.31989,438.38276 410,438.52238 410,439.77491 C 410,441.07683 409.60369,441.22044 408.1532,440.44416 C 406.91834,439.78328 405.96235,439.79982 405.2681,440.49407 C 404.55037,441.2118 403.26809,441.03505 401.1149,439.92159 C 399.33162,438.99942 398,438.75434 398,439.34831 C 398,440.54836 390.04976,439.61116 388.55,438.23431 C 388.0275,437.75463 386.4024,437.36217 384.93867,437.36217 C 382.59932,437.36217 382.3386,437.68261 382.78366,440.0108 C 383.11071,441.72162 382.91565,442.42808 382.23277,442.00603 C 381.16451,441.34581 381.09142,443.01986 382.10807,444.86217 C 383.05093,446.57077 382.47121,453.75191 381.20519,456.04643 C 380.54233,457.24777 380,458.90975 380,459.73973 C 380,461.48739 376.26404,464.36928 374.02749,464.34686 C 370.65741,464.31307 369.88568,462.8986 371.48654,459.68961 C 373.00108,456.65365 372.63431,447.36217 370.99993,447.36217 C 370.01759,447.36217 367,455.40494 367,458.02316 C 367,459.17493 366.30105,460.69736 365.44678,461.40634 C 363.73986,462.82295 356.54535,464.14259 353.69466,463.56193 z "
       style="fill:#d45500"
       id="path2828" />
    <rect
       width="493.57144"
       height="37.857143"
       x="125"
       y="650.2193"
       style="opacity:1;color:#000000;fill:#aa0000;fill-opacity:1;fill-rule:evenodd;stroke:none;stroke-width:10;stroke-linecap:butt;stroke-linejoin:miter;marker:none;marker-start:none;marker-mid:none;marker-end:none;stroke-miterlimit:4;stroke-dasharray:none;stroke-dashoffset:0;stroke-opacity:1;visibility:visible;display:inline;overflow:visible"
       id="rect2855" />
    <path
       d="M 170.8457,499.35708 L 171.26953,505.65981 L 170.8457,505.65981 C 170.28058,503.77311 169.47394,502.41503 168.42578,501.58559 C 167.37759,500.75618 166.11978,500.34147 164.65234,500.34145 C 163.42186,500.34147 162.30989,500.65364 161.3164,501.27797 C 160.32291,501.90234 159.54133,502.89811 158.97168,504.26528 C 158.40201,505.63248 158.11718,507.33235 158.11719,509.36499 C 158.11718,511.04208 158.38606,512.49585 158.92383,513.72623 C 159.46158,514.9567 160.2705,515.90006 161.35058,516.5563 C 162.43065,517.21254 163.6634,517.54066 165.04883,517.54066 C 166.25194,517.54066 167.31379,517.28317 168.23437,516.76822 C 169.15493,516.25325 170.16665,515.23014 171.26953,513.69888 L 171.69336,513.97232 C 170.76365,515.62206 169.67902,516.82974 168.43945,517.59535 C 167.19986,518.36097 165.72785,518.74378 164.02344,518.74378 C 160.95181,518.74378 158.57291,517.60446 156.88672,515.32584 C 155.6289,513.63053 155,511.63453 155,509.33764 C 155,507.48729 155.41471,505.78743 156.24414,504.23794 C 157.07356,502.68847 158.21516,501.48763 159.66894,500.6354 C 161.12271,499.7832 162.71093,499.35709 164.43359,499.35708 C 165.77342,499.35709 167.09504,499.68522 168.39844,500.34145 C 168.78123,500.54199 169.05467,500.64225 169.21875,500.64223 C 169.46483,500.64225 169.67902,500.55566 169.86133,500.38247 C 170.09829,500.13639 170.26691,499.79459 170.36719,499.35708 L 170.8457,499.35708 z M 185.50195,512.11304 L 178.32422,512.11304 L 177.0664,515.03873 C 176.75651,515.75878 176.60156,516.29654 176.60156,516.65201 C 176.60156,516.93456 176.736,517.18291 177.00488,517.3971 C 177.27376,517.6113 177.85481,517.7503 178.74805,517.8141 L 178.74805,518.31996 L 172.91015,518.31996 L 172.91015,517.8141 C 173.68489,517.67738 174.1862,517.49964 174.41406,517.28089 C 174.8789,516.84342 175.39388,515.95474 175.95898,514.6149 L 182.48047,499.35708 L 182.95898,499.35708 L 189.41211,514.77896 C 189.93162,516.01855 190.4033,516.82291 190.82715,517.19203 C 191.25096,517.56117 191.84113,517.76852 192.59765,517.8141 L 192.59765,518.31996 L 185.2832,518.31996 L 185.2832,517.8141 C 186.02147,517.77764 186.52049,517.65459 186.78027,517.44496 C 187.04002,517.23532 187.16991,516.98013 187.16992,516.67935 C 187.16991,516.27831 186.98761,515.64485 186.62305,514.77896 L 185.50195,512.11304 z M 185.11914,511.10132 L 181.97461,503.60903 L 178.74805,511.10132 L 185.11914,511.10132 z M 208.97656,513.19302 L 209.42773,513.28873 L 207.8418,518.31996 L 193.48633,518.31996 L 193.48633,517.8141 L 194.18359,517.8141 C 194.96744,517.8141 195.52799,517.55889 195.86523,517.04849 C 196.05664,516.75683 196.15234,516.08235 196.15234,515.02505 L 196.15234,503.06215 C 196.15234,501.90462 196.02473,501.18001 195.76953,500.88833 C 195.41406,500.4873 194.88541,500.28678 194.18359,500.28676 L 193.48633,500.28676 L 193.48633,499.7809 L 201.88086,499.7809 L 201.88086,500.28676 C 200.89648,500.27767 200.20605,500.36881 199.80957,500.5602 C 199.41308,500.75162 199.14192,500.99316 198.99609,501.28481 C 198.85025,501.57649 198.77734,502.27376 198.77734,503.37661 L 198.77734,515.02505 C 198.77734,515.78157 198.85025,516.3011 198.99609,516.58365 C 199.10546,516.77506 199.27408,516.91633 199.50195,517.00748 C 199.72981,517.0986 200.44075,517.14418 201.63476,517.14418 L 202.98828,517.14418 C 204.41014,517.14418 205.40819,517.03938 205.98242,516.82974 C 206.55663,516.62011 207.08071,516.24869 207.55469,515.71548 C 208.02863,515.18228 208.50259,514.34146 208.97656,513.19302 L 208.97656,513.19302 z M 218.68359,517.8141 L 218.68359,518.31996 L 210.74023,518.31996 L 210.74023,517.8141 L 211.39648,517.8141 C 212.16211,517.8141 212.7181,517.59079 213.06445,517.14418 C 213.2832,516.85253 213.39257,516.15071 213.39258,515.03873 L 213.39258,503.06215 C 213.39257,502.12337 213.33333,501.50358 213.21484,501.20278 C 213.12369,500.97493 212.93685,500.77897 212.6543,500.61489 C 212.25325,500.39616 211.83398,500.28678 211.39648,500.28676 L 210.74023,500.28676 L 210.74023,499.7809 L 218.68359,499.7809 L 218.68359,500.28676 L 218.01367,500.28676 C 217.25715,500.28678 216.70572,500.51009 216.35937,500.95669 C 216.1315,501.24837 216.01757,501.95019 216.01758,503.06215 L 216.01758,515.03873 C 216.01757,515.97753 216.07682,516.59732 216.19531,516.8981 C 216.28645,517.12595 216.47786,517.32191 216.76953,517.48597 C 217.16145,517.70472 217.57616,517.8141 218.01367,517.8141 L 218.68359,517.8141 z M 225.12305,500.79262 L 225.12305,508.07973 L 228.5,508.07973 C 229.27473,508.07974 229.84211,507.90884 230.20215,507.56704 C 230.56216,507.22525 230.80142,506.54849 230.91992,505.53676 L 231.42578,505.53676 L 231.42578,511.81225 L 230.91992,511.81225 C 230.9108,511.09221 230.81737,510.56356 230.63965,510.22632 C 230.4619,509.88909 230.21581,509.63616 229.90137,509.46753 C 229.5869,509.29892 229.11978,509.21461 228.5,509.2146 L 225.12305,509.2146 L 225.12305,515.03873 C 225.12304,515.97753 225.18229,516.59732 225.30078,516.8981 C 225.39192,517.12595 225.58333,517.32191 225.875,517.48597 C 226.27603,517.70472 226.6953,517.8141 227.13281,517.8141 L 227.80273,517.8141 L 227.80273,518.31996 L 219.8457,518.31996 L 219.8457,517.8141 L 220.50195,517.8141 C 221.26757,517.8141 221.82356,517.59079 222.16992,517.14418 C 222.38867,516.85253 222.49804,516.15071 222.49805,515.03873 L 222.49805,503.06215 C 222.49804,502.12337 222.4388,501.50358 222.32031,501.20278 C 222.22916,500.97493 222.04231,500.77897 221.75976,500.61489 C 221.36783,500.39616 220.94857,500.28678 220.50195,500.28676 L 219.8457,500.28676 L 219.8457,499.7809 L 233.64062,499.7809 L 233.81836,503.85512 L 233.33984,503.85512 C 233.10285,502.98925 232.82713,502.35351 232.51269,501.9479 C 232.19823,501.54231 231.81086,501.24837 231.35058,501.06606 C 230.89029,500.88379 230.17707,500.79264 229.21094,500.79262 L 225.12305,500.79262 z M 245.2207,499.35708 C 247.62694,499.35709 249.7119,500.27083 251.47558,502.09829 C 253.23924,503.92577 254.12107,506.2067 254.12109,508.94106 C 254.12107,511.75757 253.2324,514.09537 251.45508,515.95474 C 249.67772,517.8141 247.52668,518.74378 245.00195,518.74378 C 242.44986,518.74378 240.30566,517.83688 238.56933,516.0231 C 236.833,514.2093 235.96484,511.86239 235.96484,508.98208 C 235.96484,506.03808 236.96744,503.63639 238.97266,501.777 C 240.71354,500.16373 242.79621,499.35709 245.2207,499.35708 L 245.2207,499.35708 z M 244.96094,500.35512 C 243.30207,500.35514 241.97135,500.97037 240.96875,502.20083 C 239.72005,503.73209 239.0957,505.97428 239.0957,508.92739 C 239.0957,511.95354 239.74283,514.28222 241.03711,515.91373 C 242.03059,517.15329 243.34309,517.77308 244.97461,517.77308 C 246.71548,517.77308 248.15331,517.09405 249.28808,515.73599 C 250.42283,514.37792 250.99022,512.23609 250.99023,509.3103 C 250.99022,506.13834 250.36587,503.77311 249.11719,502.2145 C 248.11457,500.97493 246.72915,500.35514 244.96094,500.35512 L 244.96094,500.35512 z M 274.13672,518.31996 L 269.1875,518.31996 L 262.91211,509.6521 C 262.44726,509.67034 262.069,509.67945 261.77734,509.67944 C 261.65885,509.67945 261.53124,509.67717 261.39453,509.67261 C 261.2578,509.66806 261.11653,509.66122 260.9707,509.6521 L 260.9707,515.03873 C 260.9707,516.2054 261.0983,516.93 261.35351,517.21253 C 261.69986,517.61358 262.21939,517.8141 262.91211,517.8141 L 263.63672,517.8141 L 263.63672,518.31996 L 255.69336,518.31996 L 255.69336,517.8141 L 256.39062,517.8141 C 257.17448,517.8141 257.73502,517.55889 258.07226,517.04849 C 258.26367,516.76594 258.35937,516.09602 258.35937,515.03873 L 258.35937,503.06215 C 258.35937,501.8955 258.23177,501.17089 257.97656,500.88833 C 257.62109,500.4873 257.09244,500.28678 256.39062,500.28676 L 255.69336,500.28676 L 255.69336,499.7809 L 262.44726,499.7809 C 264.41601,499.78092 265.8675,499.92448 266.80176,500.21157 C 267.73599,500.4987 268.52896,501.02734 269.18066,501.79751 C 269.83234,502.5677 270.15819,503.486 270.1582,504.55239 C 270.15819,505.69172 269.78677,506.68066 269.04394,507.51919 C 268.30109,508.35774 267.15038,508.95018 265.5918,509.29663 L 269.41992,514.6149 C 270.29491,515.83625 271.04686,516.64745 271.67578,517.04849 C 272.30467,517.44951 273.12498,517.70472 274.13672,517.8141 L 274.13672,518.31996 z M 260.9707,508.79067 C 261.14387,508.79068 261.29426,508.79296 261.42187,508.79751 C 261.54947,508.80207 261.65429,508.80435 261.73633,508.80434 C 263.50455,508.80435 264.83755,508.42154 265.73535,507.6559 C 266.63312,506.89029 267.08202,505.91503 267.08203,504.73012 C 267.08202,503.57259 266.71971,502.63151 265.99512,501.90688 C 265.2705,501.18229 264.31119,500.81998 263.11719,500.81997 C 262.58853,500.81998 261.87304,500.90657 260.9707,501.07973 L 260.9707,508.79067 z M 273.54883,499.7809 L 278.58008,499.7809 L 289.91406,513.68521 L 289.91406,502.99379 C 289.91405,501.85449 289.78644,501.14355 289.53125,500.86098 C 289.19399,500.47819 288.66079,500.28678 287.93164,500.28676 L 287.28906,500.28676 L 287.28906,499.7809 L 293.74219,499.7809 L 293.74219,500.28676 L 293.08594,500.28676 C 292.30206,500.28678 291.74607,500.52376 291.41797,500.9977 C 291.21743,501.28938 291.11717,501.95475 291.11719,502.99379 L 291.11719,518.62074 L 290.625,518.62074 L 278.40234,503.69106 L 278.40234,515.10709 C 278.40234,516.24641 278.52539,516.95735 278.77148,517.23988 C 279.11783,517.62269 279.65104,517.8141 280.37109,517.8141 L 281.02734,517.8141 L 281.02734,518.31996 L 274.57422,518.31996 L 274.57422,517.8141 L 275.2168,517.8141 C 276.00976,517.8141 276.57031,517.57712 276.89844,517.10316 C 277.09895,516.81151 277.19921,516.14615 277.19922,515.10709 L 277.19922,502.2145 C 276.66145,501.58561 276.25358,501.17089 275.97558,500.97036 C 275.69759,500.76985 275.28971,500.583 274.75195,500.40981 C 274.48763,500.3278 274.08659,500.28678 273.54883,500.28676 L 273.54883,499.7809 z M 302.79297,517.8141 L 302.79297,518.31996 L 294.84961,518.31996 L 294.84961,517.8141 L 295.50586,517.8141 C 296.27148,517.8141 296.82747,517.59079 297.17383,517.14418 C 297.39257,516.85253 297.50195,516.15071 297.50195,515.03873 L 297.50195,503.06215 C 297.50195,502.12337 297.4427,501.50358 297.32422,501.20278 C 297.23307,500.97493 297.04622,500.77897 296.76367,500.61489 C 296.36263,500.39616 295.94336,500.28678 295.50586,500.28676 L 294.84961,500.28676 L 294.84961,499.7809 L 302.79297,499.7809 L 302.79297,500.28676 L 302.12305,500.28676 C 301.36653,500.28678 300.8151,500.51009 300.46875,500.95669 C 300.24088,501.24837 300.12695,501.95019 300.12695,503.06215 L 300.12695,515.03873 C 300.12695,515.97753 300.18619,516.59732 300.30469,516.8981 C 300.39583,517.12595 300.58723,517.32191 300.87891,517.48597 C 301.27083,517.70472 301.68554,517.8141 302.12305,517.8141 L 302.79297,517.8141 z M 316.31445,512.11304 L 309.13672,512.11304 L 307.87891,515.03873 C 307.569,515.75878 307.41406,516.29654 307.41406,516.65201 C 307.41406,516.93456 307.5485,517.18291 307.81738,517.3971 C 308.08626,517.6113 308.66731,517.7503 309.56055,517.8141 L 309.56055,518.31996 L 303.72266,518.31996 L 303.72266,517.8141 C 304.49739,517.67738 304.9987,517.49964 305.22656,517.28089 C 305.6914,516.84342 306.20638,515.95474 306.77148,514.6149 L 313.29297,499.35708 L 313.77148,499.35708 L 320.22461,514.77896 C 320.74412,516.01855 321.2158,516.82291 321.63965,517.19203 C 322.06346,517.56117 322.65363,517.76852 323.41016,517.8141 L 323.41016,518.31996 L 316.0957,518.31996 L 316.0957,517.8141 C 316.83397,517.77764 317.33299,517.65459 317.59277,517.44496 C 317.85252,517.23532 317.98241,516.98013 317.98242,516.67935 C 317.98241,516.27831 317.80011,515.64485 317.43555,514.77896 L 316.31445,512.11304 z M 315.93164,511.10132 L 312.78711,503.60903 L 309.56055,511.10132 L 315.93164,511.10132 z M 349.66016,518.31996 L 344.71094,518.31996 L 338.43555,509.6521 C 337.9707,509.67034 337.59244,509.67945 337.30078,509.67944 C 337.18228,509.67945 337.05468,509.67717 336.91797,509.67261 C 336.78124,509.66806 336.63997,509.66122 336.49414,509.6521 L 336.49414,515.03873 C 336.49413,516.2054 336.62174,516.93 336.87695,517.21253 C 337.2233,517.61358 337.74283,517.8141 338.43555,517.8141 L 339.16016,517.8141 L 339.16016,518.31996 L 331.2168,518.31996 L 331.2168,517.8141 L 331.91406,517.8141 C 332.69791,517.8141 333.25846,517.55889 333.5957,517.04849 C 333.78711,516.76594 333.88281,516.09602 333.88281,515.03873 L 333.88281,503.06215 C 333.88281,501.8955 333.7552,501.17089 333.5,500.88833 C 333.14453,500.4873 332.61588,500.28678 331.91406,500.28676 L 331.2168,500.28676 L 331.2168,499.7809 L 337.9707,499.7809 C 339.93944,499.78092 341.39094,499.92448 342.32519,500.21157 C 343.25943,500.4987 344.05239,501.02734 344.7041,501.79751 C 345.35578,502.5677 345.68162,503.486 345.68164,504.55239 C 345.68162,505.69172 345.31021,506.68066 344.56738,507.51919 C 343.82453,508.35774 342.67382,508.95018 341.11523,509.29663 L 344.94336,514.6149 C 345.81834,515.83625 346.5703,516.64745 347.19922,517.04849 C 347.82811,517.44951 348.64842,517.70472 349.66016,517.8141 L 349.66016,518.31996 z M 336.49414,508.79067 C 336.66731,508.79068 336.8177,508.79296 336.94531,508.79751 C 337.07291,508.80207 337.17773,508.80435 337.25976,508.80434 C 339.02799,508.80435 340.36099,508.42154 341.25879,507.6559 C 342.15656,506.89029 342.60546,505.91503 342.60547,504.73012 C 342.60546,503.57259 342.24315,502.63151 341.51855,501.90688 C 340.79393,501.18229 339.83462,500.81998 338.64062,500.81997 C 338.11197,500.81998 337.39648,500.90657 336.49414,501.07973 L 336.49414,508.79067 z M 355.29297,500.79262 L 355.29297,508.12075 L 359.36719,508.12075 C 360.42447,508.12076 361.13085,507.96125 361.48633,507.64223 C 361.96027,507.22297 362.22459,506.48469 362.2793,505.42739 L 362.78516,505.42739 L 362.78516,511.88061 L 362.2793,511.88061 C 362.15168,510.97828 362.02408,510.3995 361.89648,510.14429 C 361.73241,509.82528 361.46353,509.57463 361.08984,509.39233 C 360.71613,509.21005 360.14192,509.1189 359.36719,509.11889 L 355.29297,509.11889 L 355.29297,515.23013 C 355.29296,516.05045 355.32942,516.54947 355.40234,516.7272 C 355.47525,516.90494 355.60286,517.04621 355.78516,517.15101 C 355.96744,517.25583 356.31379,517.30824 356.82422,517.30824 L 359.96875,517.30824 C 361.01691,517.30824 361.77798,517.23532 362.25195,517.08951 C 362.7259,516.94368 363.18163,516.65657 363.61914,516.22818 C 364.18423,515.66308 364.763,514.81087 365.35547,513.67154 L 365.90234,513.67154 L 364.30273,518.31996 L 350.01562,518.31996 L 350.01562,517.8141 L 350.67187,517.8141 C 351.10937,517.8141 351.52408,517.70928 351.91601,517.49964 C 352.20768,517.35381 352.40592,517.13506 352.51074,516.84341 C 352.61556,516.55175 352.66796,515.95474 352.66797,515.0524 L 352.66797,503.00747 C 352.66796,501.8317 352.54948,501.10709 352.3125,500.83364 C 351.98437,500.46907 351.4375,500.28678 350.67187,500.28676 L 350.01562,500.28676 L 350.01562,499.7809 L 364.30273,499.7809 L 364.50781,503.84145 L 363.97461,503.84145 C 363.78319,502.86621 363.57127,502.19628 363.33887,501.83169 C 363.10643,501.46712 362.76235,501.18912 362.30664,500.9977 C 361.94204,500.861 361.29947,500.79264 360.37891,500.79262 L 355.29297,500.79262 z M 372.30078,509.63843 L 372.30078,515.03873 C 372.30077,516.2054 372.42838,516.93 372.68359,517.21253 C 373.02994,517.61358 373.55403,517.8141 374.25586,517.8141 L 374.9668,517.8141 L 374.9668,518.31996 L 367.02344,518.31996 L 367.02344,517.8141 L 367.7207,517.8141 C 368.50455,517.8141 369.0651,517.55889 369.40234,517.04849 C 369.58463,516.76594 369.67578,516.09602 369.67578,515.03873 L 369.67578,503.06215 C 369.67578,501.8955 369.55273,501.17089 369.30664,500.88833 C 368.95117,500.4873 368.42252,500.28678 367.7207,500.28676 L 367.02344,500.28676 L 367.02344,499.7809 L 373.81836,499.7809 C 375.4772,499.78092 376.78515,499.95182 377.74219,500.2936 C 378.6992,500.63541 379.50584,501.21191 380.16211,502.02309 C 380.81834,502.8343 381.14647,503.79589 381.14648,504.90786 C 381.14647,506.42089 380.64745,507.65136 379.64941,508.59926 C 378.65135,509.54729 377.24087,510.02125 375.41797,510.02124 C 374.97135,510.02125 374.48827,509.98935 373.96875,509.92554 C 373.44921,509.86174 372.89322,509.76604 372.30078,509.63843 L 372.30078,509.63843 z M 372.30078,508.85903 C 372.78385,508.95018 373.21223,509.01854 373.58594,509.06421 C 373.95963,509.10979 374.27864,509.13258 374.54297,509.13257 C 375.49087,509.13258 376.30891,508.76561 376.99707,508.03188 C 377.68521,507.29817 378.02928,506.34797 378.0293,505.18129 C 378.02928,504.37923 377.86522,503.63411 377.53711,502.94594 C 377.20897,502.25781 376.74413,501.74283 376.14258,501.40102 C 375.54101,501.05924 374.85741,500.88834 374.0918,500.88833 C 373.62695,500.88834 373.02994,500.97493 372.30078,501.14809 L 372.30078,508.85903 z M 395.50195,500.28676 L 395.50195,499.7809 L 402.06445,499.7809 L 402.06445,500.28676 L 401.36719,500.28676 C 400.638,500.28678 400.07745,500.59212 399.68555,501.20278 C 399.49412,501.48535 399.39842,502.1416 399.39844,503.17153 L 399.39844,510.69116 C 399.39842,512.55054 399.21385,513.99283 398.84473,515.01822 C 398.47557,516.04361 397.75096,516.92317 396.6709,517.65687 C 395.59081,518.39059 394.12108,518.75746 392.26172,518.75746 C 390.23827,518.75746 388.70247,518.40654 387.6543,517.70472 C 386.60611,517.00292 385.86328,516.05956 385.42578,514.87466 C 385.13411,514.06347 384.98828,512.54143 384.98828,510.30835 L 384.98828,503.06215 C 384.98828,501.92285 384.83105,501.17545 384.5166,500.81997 C 384.20215,500.46452 383.69401,500.28678 382.99219,500.28676 L 382.29492,500.28676 L 382.29492,499.7809 L 390.30664,499.7809 L 390.30664,500.28676 L 389.5957,500.28676 C 388.83007,500.28678 388.2832,500.52832 387.95508,501.01137 C 387.72721,501.33951 387.61328,502.02311 387.61328,503.06215 L 387.61328,511.14233 C 387.61328,511.86239 387.67936,512.68726 387.81152,513.61685 C 387.94368,514.54654 388.18294,515.27115 388.5293,515.79068 C 388.87564,516.31021 389.37467,516.7386 390.02637,517.07584 C 390.67805,517.41306 391.47785,517.58168 392.42578,517.58168 C 393.63801,517.58168 394.72264,517.31735 395.67969,516.78873 C 396.6367,516.26008 397.29067,515.58333 397.6416,514.75845 C 397.9925,513.93359 398.16795,512.53687 398.16797,510.56811 L 398.16797,503.06215 C 398.16795,501.90462 398.04035,501.18001 397.78516,500.88833 C 397.42967,500.4873 396.90103,500.28678 396.19922,500.28676 L 395.50195,500.28676 z M 415.3125,508.85903 C 416.59764,509.13258 417.55923,509.57008 418.19726,510.17163 C 419.08136,511.01018 419.52342,512.03557 419.52344,513.24771 C 419.52342,514.16829 419.23175,515.05012 418.64844,515.89322 C 418.06509,516.73632 417.26528,517.35153 416.24902,517.7389 C 415.23273,518.12627 413.68098,518.31996 411.59375,518.31996 L 402.84375,518.31996 L 402.84375,517.8141 L 403.54101,517.8141 C 404.31575,517.8141 404.87174,517.568 405.20898,517.07584 C 405.41862,516.75683 405.52343,516.07779 405.52344,515.03873 L 405.52344,503.06215 C 405.52343,501.91373 405.39127,501.18912 405.12695,500.88833 C 404.77148,500.4873 404.24284,500.28678 403.54101,500.28676 L 402.84375,500.28676 L 402.84375,499.7809 L 410.85547,499.7809 C 412.35025,499.78092 413.54882,499.8903 414.45117,500.10903 C 415.81834,500.43717 416.86196,501.01823 417.58203,501.85219 C 418.30207,502.68619 418.66209,503.6455 418.66211,504.73012 C 418.66209,505.65982 418.37954,506.49153 417.81445,507.22524 C 417.24933,507.95897 416.41535,508.50357 415.3125,508.85903 L 415.3125,508.85903 z M 408.14844,508.12075 C 408.48567,508.18456 408.87076,508.23241 409.30371,508.2643 C 409.73665,508.29621 410.21288,508.31216 410.73242,508.31215 C 412.06314,508.31216 413.06346,508.16861 413.7334,507.88149 C 414.40331,507.59439 414.916,507.15461 415.27148,506.56215 C 415.62694,505.96972 415.80467,505.32258 415.80469,504.62075 C 415.80467,503.53613 415.36262,502.611 414.47851,501.84536 C 413.59439,501.07975 412.30468,500.69694 410.60937,500.69692 C 409.69791,500.69694 408.8776,500.7972 408.14844,500.9977 L 408.14844,508.12075 z M 408.14844,516.98013 C 409.20572,517.22621 410.24934,517.34925 411.2793,517.34925 C 412.92902,517.34925 414.18684,516.97786 415.05273,516.23502 C 415.91861,515.49218 416.35155,514.57389 416.35156,513.48013 C 416.35155,512.76009 416.15558,512.06747 415.76367,511.4021 C 415.37173,510.73674 414.73371,510.21265 413.84961,509.82983 C 412.96548,509.44703 411.87173,509.25562 410.56836,509.25561 C 410.00325,509.25562 409.52017,509.26474 409.11914,509.28296 C 408.71809,509.3012 408.39452,509.3331 408.14844,509.37866 L 408.14844,516.98013 z M 437.13281,513.19302 L 437.58398,513.28873 L 435.99805,518.31996 L 421.64258,518.31996 L 421.64258,517.8141 L 422.33984,517.8141 C 423.12369,517.8141 423.68424,517.55889 424.02148,517.04849 C 424.21289,516.75683 424.30859,516.08235 424.30859,515.02505 L 424.30859,503.06215 C 424.30859,501.90462 424.18099,501.18001 423.92578,500.88833 C 423.57031,500.4873 423.04166,500.28678 422.33984,500.28676 L 421.64258,500.28676 L 421.64258,499.7809 L 430.03711,499.7809 L 430.03711,500.28676 C 429.05273,500.27767 428.3623,500.36881 427.96582,500.5602 C 427.56933,500.75162 427.29817,500.99316 427.15234,501.28481 C 427.0065,501.57649 426.93359,502.27376 426.93359,503.37661 L 426.93359,515.02505 C 426.93359,515.78157 427.0065,516.3011 427.15234,516.58365 C 427.26171,516.77506 427.43033,516.91633 427.6582,517.00748 C 427.88606,517.0986 428.597,517.14418 429.79101,517.14418 L 431.14453,517.14418 C 432.56639,517.14418 433.56444,517.03938 434.13867,516.82974 C 434.71288,516.62011 435.23696,516.24869 435.71094,515.71548 C 436.18488,515.18228 436.65884,514.34146 437.13281,513.19302 L 437.13281,513.19302 z M 446.83984,517.8141 L 446.83984,518.31996 L 438.89648,518.31996 L 438.89648,517.8141 L 439.55273,517.8141 C 440.31836,517.8141 440.87435,517.59079 441.2207,517.14418 C 441.43945,516.85253 441.54882,516.15071 441.54883,515.03873 L 441.54883,503.06215 C 441.54882,502.12337 441.48958,501.50358 441.37109,501.20278 C 441.27994,500.97493 441.09309,500.77897 440.81055,500.61489 C 440.4095,500.39616 439.99023,500.28678 439.55273,500.28676 L 438.89648,500.28676 L 438.89648,499.7809 L 446.83984,499.7809 L 446.83984,500.28676 L 446.16992,500.28676 C 445.4134,500.28678 444.86197,500.51009 444.51562,500.95669 C 444.28775,501.24837 444.17382,501.95019 444.17383,503.06215 L 444.17383,515.03873 C 444.17382,515.97753 444.23307,516.59732 444.35156,516.8981 C 444.4427,517.12595 444.63411,517.32191 444.92578,517.48597 C 445.3177,517.70472 445.73241,517.8141 446.16992,517.8141 L 446.83984,517.8141 z M 464.4082,499.35708 L 464.83203,505.65981 L 464.4082,505.65981 C 463.84308,503.77311 463.03644,502.41503 461.98828,501.58559 C 460.94009,500.75618 459.68228,500.34147 458.21484,500.34145 C 456.98436,500.34147 455.87239,500.65364 454.87891,501.27797 C 453.88541,501.90234 453.10383,502.89811 452.53418,504.26528 C 451.96451,505.63248 451.67968,507.33235 451.67969,509.36499 C 451.67968,511.04208 451.94856,512.49585 452.48633,513.72623 C 453.02408,514.9567 453.833,515.90006 454.91308,516.5563 C 455.99315,517.21254 457.2259,517.54066 458.61133,517.54066 C 459.81444,517.54066 460.87629,517.28317 461.79687,516.76822 C 462.71743,516.25325 463.72915,515.23014 464.83203,513.69888 L 465.25586,513.97232 C 464.32615,515.62206 463.24152,516.82974 462.00195,517.59535 C 460.76236,518.36097 459.29035,518.74378 457.58594,518.74378 C 454.51431,518.74378 452.13541,517.60446 450.44922,515.32584 C 449.1914,513.63053 448.5625,511.63453 448.5625,509.33764 C 448.5625,507.48729 448.97721,505.78743 449.80664,504.23794 C 450.63606,502.68847 451.77766,501.48763 453.23144,500.6354 C 454.68521,499.7832 456.27343,499.35709 457.99609,499.35708 C 459.33592,499.35709 460.65754,499.68522 461.96094,500.34145 C 462.34373,500.54199 462.61717,500.64225 462.78125,500.64223 C 463.02733,500.64225 463.24152,500.55566 463.42383,500.38247 C 463.66079,500.13639 463.82941,499.79459 463.92969,499.35708 L 464.4082,499.35708 z "
       style="font-size:28px;font-family:Times New Roman"
       id="flowRoot2215" />
  </g>
</svg>
