<?xml version="1.0" encoding="UTF-8" standalone="no"?>
<svg
   xmlns:dc="http://purl.org/dc/elements/1.1/"
   xmlns:cc="http://creativecommons.org/ns#"
   xmlns:rdf="http://www.w3.org/1999/02/22-rdf-syntax-ns#"
   xmlns:svg="http://www.w3.org/2000/svg"
   xmlns="http://www.w3.org/2000/svg"
   xmlns:sodipodi="http://sodipodi.sourceforge.net/DTD/sodipodi-0.dtd"
   xmlns:inkscape="http://www.inkscape.org/namespaces/inkscape"
   width="1125"
   height="750"
   id="svg3010"
   version="1.1"
   inkscape:version="0.48.1 "
   sodipodi:docname="Flag of Austria (state) 1934-1938.svg">
  <metadata
     id="metadata3020">
    <rdf:RDF>
      <cc:Work
         rdf:about="">
        <dc:format>image/svg+xml</dc:format>
        <dc:type
           rdf:resource="http://purl.org/dc/dcmitype/StillImage" />
        <dc:title />
      </cc:Work>
    </rdf:RDF>
  </metadata>
  <defs
     id="defs3018" />
  <sodipodi:namedview
     pagecolor="#ffffff"
     bordercolor="#666666"
     borderopacity="1"
     objecttolerance="10"
     gridtolerance="10"
     guidetolerance="10"
     inkscape:pageopacity="0"
     inkscape:pageshadow="2"
     inkscape:window-width="1440"
     inkscape:window-height="838"
     id="namedview3016"
     showgrid="false"
     fit-margin-top="0"
     fit-margin-left="0"
     fit-margin-right="0"
     fit-margin-bottom="0"
     inkscape:zoom="0.25"
     inkscape:cx="225.97996"
     inkscape:cy="126.90922"
     inkscape:window-x="-8"
     inkscape:window-y="-8"
     inkscape:window-maximized="1"
     inkscape:current-layer="svg3010" />
  <path
     style="fill:#ed2939"
     d="M 0,0 0,750 1125,750 1125,0 0,0 z"
     id="rect3012"
     inkscape:connector-curvature="0" />
  <path
     style="fill:#ffffff"
     d="m 0,249.96094 0,250.07812 1125,0 0,-250.07812 -1125,0 z"
     id="rect3014"
     inkscape:connector-curvature="0" />
  <circle
     style="fill:#ffffff;fill-opacity:1;stroke:#9c7c4c;stroke-width:2"
     sodipodi:ry="46.25"
     sodipodi:rx="46.25"
     sodipodi:cy="47.25"
     sodipodi:cx="171.97"
     id="Schein_1_"
     r="46.25"
     cy="47.25"
     cx="171.97"
     transform="matrix(0.8505,0,0,0.8505,364.13786,177.26726)" />
  <circle
     style="fill:#ffffff;fill-opacity:1;stroke:#9c7c4c;stroke-width:2"
     sodipodi:ry="46.25"
     sodipodi:rx="46.25"
     sodipodi:cy="47.25"
     sodipodi:cx="291.97"
     id="Schein"
     r="46.25"
     cy="47.25"
     cx="291.97"
     transform="matrix(0.8505,0,0,0.8505,364.13786,177.26726)" />
  <circle
     style="fill:#9c7c4c"
     sodipodi:ry="41.25"
     sodipodi:rx="41.25"
     sodipodi:cy="47.25"
     sodipodi:cx="171.97"
     id="Aura_1_"
     cy="47.25"
     cx="171.97"
     r="41.25"
     transform="matrix(0.8505,0,0,0.8505,364.13786,177.26726)" />
  <circle
     style="fill:#9c7c4c"
     sodipodi:ry="41.25"
     sodipodi:rx="41.25"
     sodipodi:cy="47.25"
     sodipodi:cx="291.97"
     id="Aura"
     cy="47.25"
     cx="291.97"
     r="41.25"
     transform="matrix(0.8505,0,0,0.8505,364.13786,177.26726)" />
  <path
     inkscape:connector-curvature="0"
     id="XMLID_3_"
     d="m 758.71886,371.598 c -2.76412,7.93519 -12.00907,-4.29416 -13.608,0 -5.33351,-3.45218 -11.43922,-6.13125 -14.44999,-11.907 -0.86838,0.55282 -0.88455,1.95701 -2.5515,1.701 -17.06872,-16.95045 -36.1029,-31.9269 -55.2825,-46.76813 h -0.8505 c 0.27113,-1.12267 0.31463,-1.97317 0.55197,-2.56935 l 1.14903,0.0188 c 27.67527,20.51408 54.91677,41.47039 85.04149,59.52649 z m -69.82605,-76.77461 c -0.008,-0.007 -0.0263,-0.007 -0.0435,-0.007 -2.01484,-0.51116 -4.0305,-1.09718 -6.02066,-1.76906 l -0.65576,1.96466 c 22.1649,7.1952 39.71748,17.80946 61.236,23.86586 0.33937,-1.4637 -1.2579,-2.18576 0,-2.5515 3.4947,0.62003 11.13303,2.67056 11.0565,-2.5515 -23.77999,-4.38859 -44.14095,-12.20468 -65.57355,-18.94912 z m 6.04706,102.28961 c -12.9021,-24.29707 -28.95956,-46.19745 -39.96416,-68.88026 l -1.59045,-0.774 c -1.19921,0 -1.69249,-0.7059 -2.66205,-0.92704 l -0.67188,0.39124 c 24.4425,41.65665 51.67638,90.79087 72.95504,134.82127 -25.31088,-43.85944 -46.9221,-91.41176 -74.83466,-132.66101 0.8505,2.83219 -1.18305,2.78197 -3.402,2.5515 -0.15412,0.40057 -0.102,0.9951 -0.0338,1.61595 0.16088,1.3098 0.43377,2.73011 -0.81648,2.63655 -5.58777,-0.38186 -8.93025,-2.35586 -11.0565,-1.701 0.23062,0.44314 0.4593,0.9024 0.6804,1.36166 8.22435,16.70382 13.78661,42.75548 29.0871,54.76369 5.00096,17.95406 14.83188,31.08664 23.80466,45.06716 0.12,-1.58025 0.56134,-2.84066 1.701,-3.402 0.59535,11.31248 7.93515,15.87882 12.7575,22.9635 0.14475,-1.27575 -0.30525,-3.13665 0.8505,-3.402 4.13257,6.9069 10.86937,17.27535 19.5615,21.2625 -0.28913,-0.13612 1.26724,-1.77757 1.701,-1.701 5.35901,0.9534 10.78519,7.63069 13.608,-0.8505 -18.37931,-20.29293 -28.42373,-48.19785 -41.6745,-73.13452 z m -7.56945,-150.10474 0.46774,2.46559 c 12.68948,-2.35586 27.07144,-3.12982 31.76704,-11.38819 -9.8913,0.0772 -21.85785,7.08469 -32.23395,8.9226 z m -0.93555,264.90525 c -0.19462,0.1275 -0.35737,0.27225 -0.50182,0.42525 0.153,-0.0934 0.31462,-0.2295 0.50182,-0.42525 z m 47.628,-234.7125 c 0.11063,-5.55375 9.0663,-2.26234 8.49649,-8.505 -17.00149,4.80446 -40.22014,2.77264 -60.37699,1.701 l -1.42972,0.79099 c 0.18787,0.306 0.38272,0.61234 0.57922,0.91001 h 0.8505 c 17.78393,1.21624 34.64937,3.34249 51.8805,5.103 z m -23.814,-11.04799 c -0.92707,-0.204 -2.04037,-1.40332 -0.8505,-1.70099 5.22289,0.96956 7.31513,-2.80665 11.0565,-0.85051 0.73992,-2.73011 -2.21216,-1.76902 -2.5515,-3.40199 7.6026,-0.90154 14.4066,-2.60254 16.1595,-9.3555 -15.05302,-5.98752 -40.27203,1.44585 -55.2825,0.8505 l -0.84116,0.0937 c 0.24675,1.92213 -0.15412,3.18937 -0.85984,4.15893 12.3756,-3.22339 28.75624,-2.43244 42.525,-4.2525 h 5.103 c -0.26437,1.14818 -2.13476,0.70594 -3.40199,0.8505 -14.34796,1.52239 -29.63146,2.11774 -43.37551,4.2525 -1.55643,0.98659 -0.58601,4.50765 -4.2525,3.402 0.71442,1.25873 7.33981,3.78473 2.55151,5.103 2.02417,1.45436 3.20722,3.73369 4.52377,5.88548 l 1.42972,-0.79099 c 8.03719,-0.32325 19.75711,-0.0424 28.0665,-4.24399 z m -32.319,11.04799 c 23.00685,-0.89302 43.31678,8.28304 65.47999,11.0565 -21.0669,-1.0461 -42.37192,-9.21941 -65.47999,-11.0565 z m 1.701,9.3555 c 1.26724,1.00361 2.4069,2.13476 3.402,3.402 -0.57922,0.2805 -1.11502,0.60386 -1.62446,0.96109 -0.67106,0.44224 -1.30894,0.92704 -1.98082,1.37779 l 1.90428,0.21262 c 2.52683,0.74847 5.02643,1.51305 7.51842,2.30487 0.0188,0 0.0338,0 0.0435,0.008 13.74408,3.45303 27.88788,3.5721 38.3652,8.74316 5.06898,-3.25744 -2.86617,-6.9741 -1.701,-8.505 3.52192,4.12492 11.85513,3.44452 19.55298,3.402 0.97725,-2.49281 -4.07388,-3.15536 -1.701,-4.2525 h 5.103 c 1.54707,-2.42479 4.16663,-3.76856 3.402,-8.505 -22.26693,-2.1858 -45.62932,-10.43648 -69.73248,-13.608 h -0.8505 c 0.2985,3.41899 -3.98798,2.24531 -5.103,4.2525 3.22338,4.03987 3.13068,6.1746 5.9535,10.206 h -2.5515 z m -12.74902,5.9535 c -0.204,0.204 -0.45075,0.35738 -0.71528,0.49331 l 2.41628,0.35701 h 6.79466 c 2.2623,-1.97314 -2.253,-2.28019 0,-4.25251 2.69606,-0.13612 2.85,2.26234 5.9535,1.701 0.0517,-2.04971 -6.51484,-5.17102 -0.8505,-5.103 -1.08101,-3.03626 -2.77264,-2.2368 -5.9535,-1.701 -0.7578,-2.7471 2.77346,-1.19069 3.402,-2.5515 -0.1785,-3.50403 -4.17596,-3.18937 -5.103,-5.9535 l -1.0206,-0.39123 c -1.18219,2.78115 -4.21849,2.10075 -2.37289,6.34473 h -5.103 c 1.26724,1.28427 1.51388,3.58062 3.402,4.2525 -0.21262,1.49689 -1.47052,1.9383 -3.402,1.701 1.22472,1.32679 3.41899,1.68402 2.5515,5.103 z m -32.97386,46.02056 -1.89578,0.74843 c 9.1335,27.43714 18.88961,54.24491 26.3655,83.33966 3.27443,2.3916 4.6956,6.6441 4.2525,12.7575 1.49689,2.58638 2.62804,-2.32102 3.402,0 1.50623,7.28198 6.47145,11.09989 5.94416,20.412 8.12224,2.6544 5.94499,15.59817 16.1595,16.1595 -20.16536,-42.38044 -36.42693,-88.67314 -54.22788,-133.41795 z m 38.06838,-43.46906 c -1.00447,1.34382 2.86617,5.03498 5.10301,5.9535 0.11062,0.93555 -0.0859,1.58108 -0.51117,1.99016 -0.57836,0.56985 -1.59896,0.69743 -2.89084,0.56134 2.16027,1.5309 4.02199,3.35014 3.402,7.6545 -3.24127,-0.38272 -4.1598,-0.11062 -4.55103,0.83265 l 1.14903,0.0187 c 9.18623,5.84295 18.24319,11.80497 27.216,17.8605 0.13613,-1.00443 -0.14475,-2.41541 0.8505,-2.5515 4.49914,4.93208 11.32778,11.81344 19.5615,10.19749 5.88544,6.59141 17.74992,7.20289 24.65599,12.7575 1.91363,-2.25379 -1.26724,-4.3299 0.8505,-5.9535 1.56491,1.8456 5.01709,1.79374 8.505,1.701 1.28426,-2.4069 3.44453,-3.93015 3.402,-7.6545 -24.86865,-16.22753 -51.252,-30.95051 -79.08799,-44.21749 0.85984,0.26363 1.701,0.52733 2.54299,0.79864 l 0.65573,-1.96466 c -0.50265,-0.1785 -0.99593,-0.34875 -1.49772,-0.53584 l -1.90428,-0.21263 c -1.52239,1.03763 -3.19872,1.91363 -5.75022,1.91363 23.61072,13.53146 47.70454,26.56028 71.43349,39.9735 0.0585,2.5932 -11.26912,-5.4432 -15.30049,-7.6545 -17.01851,-9.36401 -36.15476,-20.46386 -54.432,-28.0665 -0.57836,-1.68398 -2.58555,-1.94764 -3.402,-3.402 z m -7.76508,-36.36056 c 1.48837,-1.0725 3.29145,-0.93641 5.22292,-0.204 -2.06756,4.12493 -2.36441,2.96824 0,6.804 -2.61956,-0.63787 -1.64231,2.33036 -4.2525,1.701 -0.34012,2.03269 3.86978,-0.47629 2.5515,2.54299 l 0.3315,0.56133 c 0.77396,-0.50264 1.59045,-0.75779 2.21981,-1.41183 -1.93147,4.32903 -0.4848,2.63655 1.69167,5.9535 -0.0517,0.16087 -0.11063,0.31462 -0.16913,0.45926 l 1.01978,0.39124 c 1.67632,-1.15669 4.8657,-0.80798 6.804,-1.701 -3.93784,-5.03498 -0.87518,-6.60075 -5.103,-6.79553 -2.79818,-1.26723 1.44585,-2.4069 1.701,-3.402 -0.53584,-1.7265 -3.97185,-0.5613 -4.2525,-2.5515 -0.7578,-2.7471 2.78197,-1.19917 3.402,-2.55146 -0.13613,-1.00361 -1.54707,-0.72296 -2.5515,-0.8505 0.95253,-1.88812 3.36795,-2.30486 4.2525,-4.2525 -1.3098,-2.68759 -5.103,1.06309 -5.94417,-0.8505 0.24675,-1.73505 2.29549,-1.66699 2.54217,-3.40204 l -0.255,-0.0263 c -1.93152,1.3863 -5.7324,0.91005 -8.24052,1.7265 -0.24675,-1.37779 0.7986,-1.46283 0.8505,-2.55146 -2.37288,0.73991 -4.20146,2.03265 -6.804,2.55146 l -0.8505,0.8505 c -0.46863,1.52243 -1.19921,2.77264 -2.1858,3.76774 l 0.66342,0.306 c 1.60743,-1.30129 7.05063,-0.54431 9.17688,0.1785 -0.82582,1.12264 -1.86258,1.47135 -2.95207,1.47135 l 1.13115,1.28254 z m 29.02758,234.49984 c 2.62804,-2.37203 5.1957,0.46863 6.804,1.701 -1.80307,2.82367 -2.46562,-2.5515 -5.103,-1.701 2.37289,2.45028 6.01215,3.63165 5.9535,8.505 -2.04971,-3.33394 -7.15271,-3.61459 -7.6545,-8.505 z m 1.701,-4.2525 c 0.30525,3.13751 -2.11691,3.55511 -4.2525,4.2525 0.31463,4.13261 1.99017,1.9902 3.402,4.2525 1.05462,2.75565 -2.74627,0.6549 -1.701,3.402 -4.83172,-2.27082 -7.60263,-2.41542 -11.0565,-6.804 5.00944,-0.65487 6.28519,-4.94989 13.60801,-5.103 z m -11.907,25.515 c 0.86835,0.55286 0.88452,1.95701 2.5515,1.701 -3.51258,2.16112 -4.68626,6.65092 -8.505,8.505 3.5721,1.9485 5.69835,-8.77714 10.206,-5.9535 -3.91998,2.6034 -5.71537,7.3143 -11.907,7.6545 2.65354,-3.87825 5.13702,-7.90965 7.6545,-11.907 z m -18.70252,-37.422 c 5.70686,-1.24088 10.23067,9.1344 11.89766,11.907 3.18086,5.28247 7.59581,10.41866 6.804,16.1595 5.45171,4.21083 4.27035,9.80715 5.9535,12.7575 -2.88405,-0.63784 -4.84785,-3.66649 -3.05328,-5.52825 -1.44586,0.92707 -1.23327,-2.50812 -4.60122,-1.27575 1.64231,3.3093 -1.97231,3.47857 -0.8505,5.103 0.14475,1.8456 -3.0108,0.38358 -4.2525,0.8505 -0.71445,-2.0412 -0.54517,-2.25379 -0.8505,-5.9535 l -0.13612,-0.0679 c -0.8505,1.64914 -1.64145,3.65801 -0.71441,6.87202 0.52728,1.17458 3.27525,0.1275 3.402,1.701 -0.36638,3.60615 -3.60529,4.32908 -4.2525,7.6545 8.93025,1.26728 9.19473,-6.12273 16.1595,-6.804 2.2623,-9.5766 -4.51703,-15.32599 -6.804,-22.9635 3.69116,3.58999 9.71268,6.79553 14.4585,2.5515 1.31827,1.51474 2.33887,3.33398 3.402,5.103 4.20997,-7.56176 -2.73012,-12.7575 -5.9535,-17.8605 -4.21849,-0.44988 -6.0054,2.66295 -10.20601,4.2525 -1.69166,-1.13966 -4.04838,-1.61595 -5.95349,-2.5515 -4.9329,-10.26551 -14.05793,-16.33725 -21.12646,-24.46886 l -0.97721,0.66169 c -1.18305,3.85275 3.44453,4.2525 2.5515,9.3555 2.33888,-2.04972 5.86845,-1.31828 5.103,2.54298 z m -10.94591,-149.58593 1.59041,0.7731 c 18.81221,29.08796 38.94442,56.86444 57.82466,85.88351 3.07879,2.35673 4.0152,1.60913 6.804,4.2525 2.52683,4.76363 6.252,11.0565 10.206,14.4585 3.5721,3.08817 12.98798,9.44138 17.85199,6.804 -33.77336,-31.13512 -61.76333,-72.59868 -87.58448,-108.84701 9.85815,12.8094 19.57935,25.77102 31.45999,36.56299 0.14438,-1.27575 -0.30525,-3.13747 0.8505,-3.402 8.74313,18.47374 26.73206,27.7008 41.6745,39.96502 1.18305,-2.44008 -2.32102,-4.31204 0,-5.09452 2.71223,6.47317 18.02123,12.80089 22.95499,4.24402 -25.5669,-31.97032 -54.99334,-60.08613 -84.19099,-88.43501 h -0.8505 c -2.09224,0.11063 -4.09177,0.12675 -5.09449,-0.8505 25.92323,26.22941 53.35185,50.95347 76.52798,79.9368 2.24531,0.87686 2.86534,3.36881 5.103,4.2525 1.7937,3.5049 -1.11503,-0.3225 -2.5515,-0.8505 -14.78254,-16.96661 -31.31543,-32.18208 -45.91849,-49.32731 -11.06501,-8.48797 -20.14069,-18.97549 -29.75816,-28.90849 -2.90018,-2.16877 -6.15761,0.0926 -8.505,-3.402 -1.47986,0.44993 0.9177,4.09857 0.8505,5.9535 -0.6132,-0.27225 -1.16516,-0.79181 -1.64231,-1.43733 l -1.72568,0.1275 c 1.17371,1.80307 0.9432,5.00092 1.66699,7.26326 -2.13559,-1.47987 -4.68709,0.83261 -5.9535,-2.5515 -1.92296,0.47628 1.02911,1.32678 -0.8505,2.5515 -0.2805,0.0596 -0.51878,0.0765 -0.73991,0.0765 z m 12.64691,187.85843 c -3.52958,3.0363 -6.94943,4.56806 -11.0565,1.701 4.43962,-0.66252 7.50907,-2.69607 9.3555,-5.9535 1.92214,2.46645 -2.9172,4.48215 1.701,4.2525 z m -8.505,5.103 c 7.81526,-0.40823 16.19351,-0.24563 14.44916,-10.206 3.33394,0.49331 2.17811,-3.4947 4.2525,-4.2525 0.876,1.95701 -0.0859,3.3093 -0.98659,5.03497 l 0.13613,0.0679 c 1.37779,0.23888 1.47049,-0.80711 2.5515,-0.8505 -0.0589,-3.6231 -1.42035,-5.94499 -0.8505,-10.206 -1.63298,2.51835 -3.09668,7.53458 -7.64516,9.3555 1.2936,2.45029 -0.0338,2.66295 0.8505,5.9535 -2.69693,-1.7937 -0.16163,1.12268 -2.5515,2.5515 -0.0937,-1.69249 -0.42525,-7.23772 -1.701,-10.206 -0.96192,2.16113 -4.278,1.96553 -5.103,4.2525 -2.577,-1.28422 0.70507,-3.73451 0,-5.9535 4.57571,1.18305 3.56276,-3.24124 7.6545,-2.5515 0.0851,-0.26437 0.16087,-0.51795 0.24675,-0.77392 l -0.24675,-0.0765 c -3.99735,-0.87518 -3.27529,2.95972 -7.6545,1.701 -1.89574,3.94717 -2.60337,5.74935 -1.701,11.0565 h -5.103 c -0.72293,3.55507 2.29635,3.36795 3.402,5.103 z m -6.804,-28.917 -0.47711,0.34012 c 2.83215,2.79731 9.78075,0.64639 12.38411,-1.1907 0.47629,2.6442 4.16662,2.06674 5.9535,3.402 v 8.505 l 0.24675,0.0765 c 1.45432,-4.80532 1.97227,-9.3036 -0.24675,-11.98353 -0.58684,-0.70591 -3.01076,0.51029 -2.5515,0.8505 -7.16205,-5.39217 -6.59138,-4.51699 -10.206,0.85049 -1.00358,-0.97807 -3.01076,-0.96105 -5.103,-0.85049 z m 2.2113,-20.82023 c -5.26373,-6.30221 -13.08068,-12.10177 -19.2213,-17.44376 1.18987,4.55955 11.79559,11.75392 18.711,17.8605 l 0.5103,-0.41674 z m -3.0618,11.46473 c 0.0926,-0.0679 0.0926,-0.0851 0.0338,-0.0679 -0.0188,0.0188 -0.0263,0.0424 -0.0338,0.0679 z m -2.58551,9.39806 c 0.39123,-1.32765 -0.306,-3.75923 1.73501,-3.44539 -0.0596,1.73588 0.41591,2.94356 1.22389,3.7422 l 0.47711,-0.34012 c 0.0671,-3.44367 4.64374,-5.56992 6.804,-4.2525 0.67192,-3.00143 -2.97675,-1.68402 -2.73945,-4.25254 h -0.66255 c -1.61595,1.5054 -5.45168,0.79099 -6.804,2.55154 3.83576,2.04967 -2.80748,0.97807 -0.8505,5.9535 l 0.81649,0.0424 z m 6.83801,-8.54756 h 0.66255 c 0.0263,-0.24563 0.0859,-0.52647 0.18787,-0.8505 3.60529,0.3735 7.08383,2.33891 11.0565,5.103 -0.37425,-5.2986 -7.22925,-4.1079 -7.6545,-9.3555 0.9177,0.21262 0.56985,1.69252 1.701,1.701 2.16878,0.12 -3.32542,-5.77403 -2.5515,-1.701 -1.03845,-2.47493 -2.63737,-4.87335 -4.5927,-7.21223 l -0.5103,0.41674 c -3.47002,-1.31741 -6.74531,-3.57975 -9.88278,-6.33536 l -0.40062,0.44992 c 5.4177,4.6182 10.12947,9.53494 13.6854,14.38193 -7.77442,-1.28427 -15.76826,8.01172 -9.3555,12.7575 0.45927,-0.0851 0.68892,-0.39038 0.81649,-0.80712 l -0.81649,-0.0435 c -4.09173,-4.99158 2.84067,-9.21945 3.43602,-9.42356 1.04613,-2.44091 3.21491,0.67193 4.21848,0.91856 z m -4.2525,-19.55299 c 5.59545,-2.07435 0.348,2.36524 6.804,1.701 l 0.97721,-0.66251 c -3.21487,-3.6912 -6.00536,-7.81527 -7.78121,-12.94549 -3.19871,-2.21895 -5.72299,-5.11151 -7.97854,-8.26601 l -0.7986,0.56985 c 0.0859,0.008 0.1785,0.0263 0.27225,0.0416 -0.2985,4.83083 2.60254,6.4638 5.103,8.505 -2.43244,1.3191 -0.51877,1.67633 -0.8505,5.103 0.79099,-0.62936 1.28426,-1.54792 1.701,-2.5515 0.6804,2.12625 0.90919,3.31695 4.2525,4.2525 0.72293,2.71309 -1.34377,2.62804 -1.701,4.2525 z m -7.33129,1.31827 c -6.71812,-5.89395 -12.83404,-14.05023 -19.03421,-20.03009 -1.83709,1.8966 2.10075,5.23057 2.5515,7.65449 -1.26724,0.11138 -2.21213,-0.10987 -2.9589,-0.52646 l -0.11138,0.19575 c 6.86352,3.73965 13.41323,8.27453 19.1541,13.15639 l 0.39972,-0.45075 z M 610.74885,340.12781 c 4.57571,23.20928 9.85815,45.70418 19.56236,63.77727 1.18219,-0.51792 0.12675,-3.26592 1.701,-3.39349 1.95615,5.4024 3.87829,10.85411 7.00725,15.0879 3.13069,4.24399 7.46741,7.28111 14.25525,7.86709 -6.10744,-25.08975 -15.13976,-59.11823 -21.2625,-84.19013 l 1.89578,-0.74842 c -0.34013,-0.88452 -0.69743,-1.76055 -1.04528,-2.6442 -1.87961,0.69656 -3.32546,1.82771 -4.93376,2.80578 -0.33263,0.204 -0.67189,0.40058 -1.01974,0.58684 6.70193,23.91608 13.96519,51.8031 18.711,74.83466 -7.1442,-23.75448 -13.21676,-48.58057 -19.5615,-73.13366 -5.1285,0.76545 -8.0976,-1.02907 -11.05736,-5.09362 -0.14438,3.4275 -3.07028,4.05686 -4.2525,4.24398 z m -1.69249,1.57343 -0.008,0.97807 c 1.5309,15.76827 -0.9432,35.53388 9.35636,42.52414 -3.52192,-10.68225 -5.89481,-29.79131 -8.50586,-44.22514 -0.008,0.45075 -0.41674,0.72293 -0.84199,0.72293 z m 34.86199,-117.2244 c -1.73501,-0.81649 -3.36799,-1.73505 -5.103,-2.5515 0.0589,3.18086 -1.36928,4.87249 -3.402,5.9535 l 0.007,0.0337 c 1.86172,-0.45075 3.58057,-1.01209 5.09449,-1.73501 v 4.2525 c -0.71528,2.70457 -1.12268,-1.50623 -0.8505,-2.5515 -0.9279,1.91362 -4.09178,1.58193 -3.402,5.103 -1.28513,-5.57078 -1.7784,0.73995 -2.5515,0.8505 -1.42969,0.204 -0.18788,-2.27082 -0.8505,-2.5515 -1.06313,-0.45927 -0.73144,2.56852 -0.8505,2.5515 -1.39568,-0.17025 -0.11138,-2.2368 -0.8505,-2.5515 -1.18305,-0.5103 -0.52733,2.51748 -0.8505,2.5515 -1.56578,0.16162 -1.74439,-5.51123 -1.701,0 -1.15669,-0.26363 -0.70594,-2.12625 -0.8505,-3.402 -1.36932,-1.44585 -3.34331,2.54298 -3.402,2.5515 -1.37783,0.30637 -0.24675,-2.29635 -0.8505,-2.5515 -0.91856,-0.39124 -0.94406,2.526 -0.8505,2.5515 -1.36166,-0.39124 -0.008,-2.00719 -0.8505,-2.5515 -0.19463,-0.1275 -0.47715,-0.153 -0.82586,-0.11888 -1.39564,0.18713 -3.86127,1.5309 -6.21799,1.77754 0.0337,0.0188 -0.12675,0.0338 -0.6132,0.0424 0.204,0 0.40057,-0.0187 0.60386,-0.0424 -0.31462,-0.0765 -4.67775,-0.1785 -2.50901,0.0263 -6.51398,-0.52646 -15.49609,0.86835 -22.74915,11.07435 l 0.44906,0.825 c 4.75429,-5.57929 11.83046,-8.8197 22.50424,-8.4795 -0.44993,0.6804 -0.88455,1.37782 -0.8505,2.5515 1.63294,-1.74353 3.37732,-1.92214 5.23905,-1.50623 0.0937,0.0188 0.1785,0.0435 0.27225,0.0596 l 0.13537,-0.54435 c -3.83658,-0.94403 -7.79992,-2.05819 -11.60167,-2.2623 14.18636,-1.52156 38.17897,9.32231 38.2725,-9.35468 z m -49.32049,55.27567 c -3.24124,-1.25107 -0.17025,3.80175 -3.40114,2.5515 -1.99188,-1.56491 -3.0363,-4.51698 -3.43601,-7.95303 l -2.51749,0.2985 c -0.57153,7.94366 2.09224,12.64691 5.103,17.01 -1.25193,1.97231 -2.69778,-1.65848 -2.5515,1.701 4.03988,0.49331 5.12682,3.9378 10.20514,3.402 -3.64012,-5.77489 -1.26724,-13.11469 -3.402,-17.01 z m -62.07799,11.0565 c 2.3559,-1.76902 2.70458,-5.56226 3.41899,-8.98976 l -1.72564,-0.36562 c -2.45028,0.53583 -4.38858,3.22338 -5.94502,0 -3.76853,2.60253 1.19921,12.79151 -4.2525,15.309 4.62589,1.58107 5.71537,-3.51255 11.04802,-2.5515 0.46778,-3.38498 -3.01076,0.91856 -2.54302,-3.402 z m -7.51841,-56.04964 c 0.24675,0.24676 0.4839,0.50179 0.71441,0.77397 -0.0859,-0.16163 -0.1785,-0.32325 -0.27225,-0.4848 -0.14475,-0.11063 -0.29775,-0.204 -0.44223,-0.28913 z m -9.49159,107.06944 h -2.5515 c -1.7265,15.02835 -4.77131,33.18649 -7.6545,44.22431 11.32017,-6.53186 5.37432,-30.345 10.206,-43.37381 v -0.85219 z m -18.711,-0.8505 c -5.84295,23.07319 -10.31655,54.88193 -19.5615,77.3853 7.54395,-24.48506 11.29381,-52.77266 18.711,-77.38616 -1.7529,-0.23063 -0.79946,-3.16388 -2.55149,-3.402 -8.62493,27.09694 -14.6031,56.82956 -21.2625,85.89202 12.54487,1.72737 16.94193,-11.93167 21.2625,-21.2625 -0.0424,1.47135 0.6549,2.18577 1.70099,2.5515 7.85862,-18.77906 14.85825,-42.96727 16.15951,-65.47916 -1.49689,5.14553 -2.61957,-2.41541 -3.402,-3.39262 -1.53091,7.2879 -4.74582,2.50811 -8.505,6.79462 -0.25501,-0.74842 -1.701,-4.32056 -2.5515,-1.701 z M 486.1506,460.81376 c 5.04431,-5.6133 11.03951,-7.71401 18.3036,-10.97996 l 0.0765,-0.80711 c -0.63788,-0.0596 -1.0461,-0.69743 -0.92704,-2.59489 0.91856,0.21263 0.57836,1.69249 1.701,1.701 2.02421,-0.25425 -0.94406,-2.304 -1.701,-2.5515 -2.39074,2.15261 -5.6388,7.98705 -10.206,5.9535 -2.73011,2.38226 -5.33347,5.70772 -8.05421,8.80267 l 0.80798,0.47629 z m -47.17721,12.83404 c 7.79058,-1.00358 9.21941,-8.35189 11.0565,-15.309 5.83443,-1.71799 7.44187,-13.76872 9.3555,-22.113 1.61595,0.36562 1.5309,2.4333 4.2525,1.701 v -6.804 c 8.13078,-25.53968 15.70023,-53.22428 23.80548,-77.38612 1.68315,-5.01713 5.48573,-10.85239 3.402,-16.15951 -0.12,1.59042 -0.56133,2.85001 -1.701,3.40201 v 0.85049 c -17.34168,43.32447 -29.55487,91.76895 -50.17098,131.81899 z m 42.6951,-244.6038 c 1.8711,3.17153 4.60968,1.39485 7.47588,1.38634 12.35689,-0.0337 26.8758,-1.17372 35.85709,4.32903 -9.14287,-9.32999 -28.22044,-5.01708 -42.66109,-6.03003 l -0.67188,0.31462 z m 26.09332,-3.20722 0.14475,-0.64639 c -3.67331,-0.7986 -6.69345,-3.402 -8.55604,-4.11641 -3.52957,-1.34378 -6.26819,-0.255 -8.505,-2.55151 -0.57918,1.68316 -3.86126,2.70458 -4.2525,0 -1.92213,0.84199 1.46284,4.26102 -2.55149,4.2525 -0.62937,-1.57342 -0.97043,-3.00225 -1.03845,-4.26101 l -0.66255,0.0188 c 0.0585,2.10072 0.51795,4.18444 1.34377,5.86076 0.53584,1.0878 1.22389,2.00633 2.05823,2.63655 -0.45927,-3.01076 0.72292,-4.38007 2.5515,-5.10299 5.80038,1.56577 12.9276,2.47496 19.46793,3.91147 z M 478.6407,452.69914 c -0.255,-0.10275 -0.552,0.22125 -0.552,0.53497 0.18712,-0.17025 0.37425,-0.34875 0.55286,-0.53583 z M 667.73235,241.48598 c 7.93432,-6.23415 18.45502,-9.88283 28.05716,-14.4585 -8.53054,5.6388 -18.60045,9.74673 -28.05799,14.4585 z m -46.7775,77.38871 c -0.99593,1.27575 -2.4588,2.07435 -2.5515,4.2525 -1.97314,-0.56985 -4.14277,-1.91366 -6.01301,-2.24618 -1.32765,-0.24675 -2.49281,0.007 -3.34331,1.39568 -1.12182,-0.63791 -0.43377,-6.61691 2.55149,-5.9535 -0.69656,2.39756 1.19918,2.20279 0.8505,4.2525 2.4588,-0.14475 3.87912,-3.47006 4.2525,0.8505 2.82364,-0.0187 0.86836,-4.80536 2.55233,-5.9535 1.95615,1.16516 2.73863,3.50404 4.2525,5.103 1.15582,-0.26438 0.70507,-2.13476 0.8505,-3.40204 2.56935,0.552 2.89935,3.33398 5.103,4.25254 1.87961,-0.11063 0.36562,-3.60615 0.8505,-5.103 1.52242,-0.11063 1.7937,1.03759 3.402,0.85046 0.70507,-2.4069 -1.19918,-2.20279 -0.8505,-4.2525 4.67775,0.90154 5.84209,1.95615 11.907,4.2525 1.87961,-0.11062 0.35737,-3.60611 0.8505,-5.10296 1.52242,-0.11063 1.7937,1.03759 3.402,0.85046 0.348,-2.04967 -1.5564,-1.84556 -0.8505,-4.25246 2.16877,0.0926 1.68315,2.84914 1.701,5.10296 -4.05773,-0.94406 -1.91363,4.32904 -4.2525,5.103 -2.53365,-0.0188 -5.1804,0.0765 -5.103,-2.5515 -1.22471,0.18712 -0.2985,2.53365 -1.701,2.5515 -2.73008,0.1785 -2.06756,-3.03626 -3.402,-4.2525 -0.95254,5.17954 -4.12579,3.1035 -5.103,8.505 -1.21706,-1.33526 -4.43108,-0.67189 -4.2525,-3.402 -0.73144,0.90154 -1.64231,1.38634 -2.50898,1.4025 -1.09713,0.0337 -2.11773,-0.6804 -2.59402,-2.25383 z m -8.505,-104.60303 c 3.67417,0.27225 0.91005,-5.89395 4.2525,-5.9535 2.33974,8.71763 -9.29595,9.84882 -9.3555,2.5515 3.07031,-0.23062 2.31337,3.36799 5.103,3.402 z m -4.2525,2.5515 c 1.76906,0.5103 5.5878,-1.0461 5.9535,0.8505 1.701,-0.8505 1.34381,-3.75919 4.25336,-3.402 -1.59127,-1.61595 0.5103,-1.53937 0,-4.2525 6.64242,-2.24531 21.90038,-2.58551 17.8605,11.0565 -3.14685,-0.255 -3.06266,-3.7422 -7.6545,-2.5515 1.41098,-1.42882 0.6804,-4.99241 4.2525,-4.2525 -0.21262,-0.91852 -1.69249,-0.57832 -1.701,-1.701 -1.62446,1.77758 -2.73945,4.06542 -3.402,6.804 -6.46466,-1.52239 -13.05603,7.79059 -21.26336,4.2525 0.91856,1.48838 -2.54212,3.09582 -5.36662,2.67057 -0.0773,0.0937 -0.16163,0.19575 -0.25613,0.2985 0.53666,0.80797 0.19463,1.31827 -1.18305,1.28426 0.4431,-0.45926 0.83348,-0.88452 1.18305,-1.28426 -0.0926,-0.1275 -0.19462,-0.27225 -0.33262,-0.41674 0.18787,0.051 0.38272,0.0851 0.58683,0.11925 2.51749,-2.96738 2.9172,-4.41323 8.76867,-5.22207 -0.18713,-1.08097 -2.53365,-1.11416 -2.5515,0 -0.825,-0.0263 -0.6549,-1.03762 -0.8505,-1.70099 v -1.70101 c 3.0873,3.5721 0.77396,-2.98526 -1.701,-1.701 0.38272,-1.60743 -1.15583,-5.12088 1.701,-4.2525 -2.10075,2.09138 2.41541,1.90425 1.701,5.10214 z m -102.04297,-7.6545 c 0.007,2.25383 -0.47715,5.00948 1.701,5.103 4.31118,1.47987 1.97231,-3.69116 5.103,-3.402 2.92485,4.02203 -4.05777,6.57353 -7.6545,4.2525 -0.14475,-2.46813 -3.83577,-5.74938 0.8505,-5.9535 z m 23.814,34.02 c -2.27085,2.19432 1.95615,0.89303 0.8505,4.2525 1.61508,-1.59892 1.5309,0.50183 4.24398,0 -1.10651,-10.80135 -10.02738,-13.7781 -15.30048,-20.412 7.0413,2.77264 7.73955,6.67643 13.608,10.206 -0.45075,3.68269 3.42663,6.13212 4.24398,9.3555 -1.49775,1.94768 -3.55593,2.73012 -3.402,4.2525 -1.26723,-1.02907 -2.46645,-2.09223 -3.63247,-3.13833 -6.94009,-6.25883 -12.5874,-12.13665 -21.87488,-7.91817 0.21263,-0.92703 1.69249,-0.57832 1.701,-1.701 -5.68218,2.21982 -8.11376,7.57797 -17.01,2.5515 9.10035,-3.51255 23.28672,-6.60836 32.319,-0.8505 0.88452,2.83133 -0.102,2.20962 4.2525,3.402 z m -75.68599,17.8605 c -0.58688,3.41903 3.58057,2.08373 3.402,5.103 h -2.5515 c -1.11416,3.65715 4.04839,1.04614 3.402,4.24399 0.11062,1.54706 -2.08373,0.77396 -3.52106,0.75698 -0.2805,-0.007 -0.52733,0.0188 -0.73144,0.0937 -1.25025,3.24037 3.80171,0.17025 2.5515,3.402 -2.2113,1.54706 -2.56853,-0.36675 -5.103,0.8505 -0.0937,3.97181 6.42979,2.26233 3.402,6.804 1.75204,0.51795 5.90246,-1.36932 5.103,1.701 -1.54793,0.73057 -2.34739,2.19427 -4.2525,2.5515 -0.007,3.75067 3.41047,-0.78248 4.2525,2.5515 -1.10565,1.73501 -4.12493,1.54706 -3.402,5.103 0.0596,0 0.11925,0.008 0.18712,0.008 2.49282,0 5.82679,-2.39843 6.61692,0.84198 -1.46288,-0.0424 -2.1858,0.6549 -2.5515,1.701 3.01076,0.96109 4.83933,-3.5721 6.79548,-0.8505 -0.0934,2.78115 -5.43555,4.71177 -3.402,6.804 0.0187,-1.11498 2.36355,-1.08097 2.5515,0 0.41674,2.67825 -2.6034,1.92214 -1.701,5.103 0.60387,0.58602 1.09714,0.80798 1.51305,0.80798 1.47135,0 2.1441,-2.73945 4.44045,-2.50898 2.08373,1.13119 -0.93641,3.16388 0.8505,3.402 2.19428,-1.54023 3.67332,-4.71176 5.9535,-1.701 -1.03845,1.82775 -4.89037,5.25612 -3.402,6.804 0.34875,-1.07163 1.09714,-1.74352 2.5515,-1.701 1.5054,1.42035 -0.74846,2.84918 0,5.9535 4.0569,0.73995 4.5672,-6.57435 7.6545,-1.701 1.41184,-1.42968 0.6804,-4.99241 4.2525,-4.2525 -0.19575,6.65944 2.02418,3.98802 5.103,9.3555 2.00633,-1.11498 0.83265,-5.4015 4.2525,-5.103 0.14475,1.26728 -0.306,3.13752 0.8505,3.402 2.10075,-1.30976 0.80798,-5.99602 5.103,-5.103 0.14475,2.40694 -0.73144,5.83358 1.701,5.9535 -0.56134,-4.74577 3.18086,-1.74352 3.402,0 1.41184,-1.42031 -0.54517,-6.20865 2.5515,-5.9535 2.1084,1.01127 0.0188,6.21717 3.402,5.9535 v 1.701 c -3.18937,0.63788 -1.85494,-3.24888 -4.2525,-3.402 -1.17371,5.63033 -3.52192,0.69657 -5.9535,3.402 -1.90511,-0.92703 -1.49689,-4.17592 -3.402,-5.103 -1.87961,5.35815 -4.31205,2.75565 -7.51841,4.49918 -0.58684,0.31462 -1.19921,0.77392 -1.83709,1.45432 -1.49689,-4.88186 -3.29996,-4.16745 -5.9535,-7.6545 -2.37289,5.2476 -4.82235,0.73995 -9.3555,4.2525 -2.27085,-2.62803 -0.4848,-4.56716 -1.701,-5.9535 0.36563,1.36849 -3.1647,2.84918 -3.402,0.8505 -0.23062,-3.38497 4.37156,-6.35407 3.402,-7.6545 -4.80532,4.8819 -4.68626,1.51305 -8.71762,1.43652 -0.65573,-0.0188 -1.42035,0.0517 -2.33888,0.26437 -0.88451,-2.4069 1.41184,-5.8344 0,-5.9535 -0.1275,2.11778 -2.87471,0.24675 -3.39349,0 0.71442,-1.6083 4.09939,-4.89037 2.5515,-5.9535 -0.72292,2.49199 -2.73862,-0.51112 -4.2525,0 -0.0424,-1.17367 0.39972,-1.86259 0.8505,-2.5515 -1.13966,0.0187 -2.36441,0.11063 -3.33397,-0.0517 -1.23323,-0.19462 -2.04971,-0.7986 -1.76903,-2.4996 -0.90153,-3.16474 2.86617,-1.66699 3.402,-3.402 -2.10926,0.12675 -4.13343,0.16088 -4.2525,-1.701 0.24675,-1.73505 2.29635,-1.66699 2.5515,-3.402 -2.99377,-0.0263 -5.85146,-2.7216 -2.56001,-4.2525 -2.76412,0.22125 -4.09177,-1.00447 -4.24399,-3.402 2.22829,-2.59402 2.55998,-2.66209 0.8505,-5.9535 1.0461,-0.2985 2.80665,0.12675 4.15043,0.12675 0.92704,0 1.64996,-0.20325 1.80307,-0.97721 -2.90021,0.0679 -3.17238,-2.5005 -4.2525,-4.24403 5.2731,0.255 -0.69742,-1.64145 0.8505,-5.103 2.16027,-0.3912 3.44453,-1.65847 4.2525,-3.402 3.46152,0.69743 2.92572,0.1275 6.79549,0 0.153,-3.94631 -0.83351,-4.60968 -0.84199,-7.6545 1.18219,2.5005 4.47364,2.8917 4.24399,6.804 -4.88186,-2.20278 -0.0679,1.86263 -2.5515,3.402 -2.78966,-1.61595 -3.52192,0.37425 -7.64599,0 1.06313,0.34875 1.73502,1.09718 1.701,2.5515 -2.00718,0.015 -2.50897,-1.47476 -5.103,-0.85218 z m -9.94238,-7.79992 c 0.88455,-0.34875 1.20859,-0.91853 2.28788,0.14475 -0.78248,-0.73144 -1.03763,-2.27085 -0.77396,-3.5466 0.1275,-0.62936 0.38272,-1.19922 0.77396,-1.5564 1.50536,1.88808 5.85994,0.93555 6.804,3.402 -0.2295,-1.74353 4.22696,-3.0108 2.5515,-3.402 1.00357,-1.76907 5.20504,0.3912 4.2525,3.402 -2.11778,0.1275 -2.63655,-1.3353 -4.2525,-1.70104 -0.42525,2.6706 2.92571,2.24535 0.8505,4.25254 -2.49199,-2.3304 -7.22078,-2.42393 -10.206,-4.25254 -0.50183,2.98526 4.01434,2.79818 1.701,5.10304 -0.98659,-0.71445 -2.27936,-1.12268 -4.2525,-0.8505 2.8917,4.09939 2.71309,6.23415 5.9535,9.3555 -2.67908,-0.40826 -3.32546,1.20769 -5.103,1.701 0.49327,1.10565 0.78244,2.27932 0.77392,3.35947 0.0263,0.0188 0.051,0.0263 0.0765,0.0337 h -0.0765 c -0.0263,2.1084 -1.17367,3.87829 -4.17592,4.2525 -0.18713,3.86978 3.50404,3.86978 5.9535,5.103 0.11062,2.95125 -4.31205,1.3608 -4.2525,4.2525 0.26362,1.15586 2.12625,0.70594 3.402,0.8505 -0.68891,2.15093 -3.50408,2.16878 -5.103,3.402 3.2574,1.59896 0.23812,3.19789 -0.8505,5.103 1.57342,2.60254 4.03987,-0.97807 6.804,0 0.62085,2.32103 -1.69253,1.70951 -1.701,3.402 3.29141,-0.45075 4.15042,1.52239 7.6545,0.8505 -1.23323,3.02779 -3.86978,4.63523 -5.9535,6.804 0.13612,0.9951 1.54789,0.71441 2.5515,0.8505 0.32325,3.15536 -3.44453,2.21895 -2.5515,5.9535 0.85897,3.30844 2.92571,0.12675 5.9535,0.8505 0.61234,2.32103 -1.69253,1.70951 -1.701,3.402 2.75561,0.49331 3.95482,-0.57919 5.9535,-0.8505 1.701,1.73505 -0.38273,1.66699 -0.8505,3.402 1.33526,1.23323 4.73726,-0.255 5.9535,-1.701 2.20279,1.18219 -0.62089,4.3971 -0.8505,5.9535 0.204,2.18494 1.46284,-1.17367 3.39349,0 -0.007,2.53365 -2.20279,2.89088 -2.54299,5.103 0.16162,0.68891 0.8505,0.84116 0.8505,1.701 3.33394,0.21263 3.15532,-3.07879 6.79549,-2.5515 0.24675,1.36845 -0.79947,1.46288 -0.8505,2.5515 3.67331,-0.0188 3.13747,-4.23547 6.804,-4.2525 0.95253,2.58555 -1.47135,4.18448 0,8.50418 1.5054,-0.76463 1.08862,-3.45308 4.2525,-2.5515 0.0188,2.67142 -2.80665,4.73726 -0.8505,6.804 2.526,-1.17285 2.75561,-4.62589 5.9535,-5.103 -0.41674,1.56491 -1.08102,2.88401 -2.00719,3.94717 l 1.15669,0.30525 c 0.90153,-1.68315 3.91995,-2.49963 5.9535,-5.103 1.53941,1.57425 0.14475,6.08959 2.5515,6.804 -0.0424,-1.47052 0.6549,-2.1858 1.701,-2.5515 2.0667,1.69249 -1.43734,3.63248 1.701,4.24399 -0.11063,-1.52156 0.84198,-1.99016 2.5515,-1.69249 v 4.24399 c 3.77535,-0.6549 2.68758,-6.69259 6.804,-2.5515 1.41183,-1.41184 -0.54518,-6.20865 2.5515,-5.94499 3.56272,1.149 -0.8505,4.98394 1.701,6.79549 1.08015,-4.55782 4.15893,1.52239 5.103,2.5515 v 0.8505 34.01914 c -3.60612,7.91134 -8.25837,15.27667 -11.907,23.814 -3.21492,7.5099 -3.64017,18.5664 -11.907,21.25399 -1.68402,-0.57919 0.52728,-5.05962 -2.5515,-4.2525 -3.4275,1.57428 -2.7471,6.6594 -0.8505,9.3555 -4.15047,-0.45844 -4.94228,6.54033 -2.5515,7.6545 -1.24174,-4.29503 4.7628,-2.43072 5.103,-0.8505 -4.11642,6.08872 -7.1187,12.84341 -10.69932,17.32552 l 0.73144,0.33075 c 1.5309,-1.42886 1.36845,-2.68672 4.01438,-1.49689 1.35228,-0.62002 -2.43244,-3.98715 1.701,-1.701 1.02911,-0.49327 -0.55283,-3.21405 0.8505,-5.103 -0.825,0.0263 -0.65577,1.03845 -0.8505,1.701 -0.83352,-3.18937 2.70457,-6.14062 5.0511,-9.38868 0.78247,-1.08094 1.43733,-2.19428 1.7529,-3.36882 4.51616,0.57923 8.90475,-10.51046 5.9535,-2.5515 -2.2368,1.16607 -3.22339,3.58148 -5.9535,4.2525 0.3735,1.2579 1.08862,-0.3315 2.5515,0 -0.1275,1.86263 -2.1441,1.82772 -4.2525,1.701 0.83265,1.14904 2.27085,1.701 3.402,2.5515 1.48837,0.11138 1.78605,-0.99506 3.30843,-0.85983 0.102,-0.10988 0.14475,-0.12 0.0937,0.007 -0.0337,-0.007 -0.0596,-0.007 -0.0937,-0.007 -0.51795,0.62085 -2.54298,4.23547 -0.75693,7.66383 h -1.701 c 1.41183,3.23277 5.59627,-2.18576 5.9535,0 0.49327,-0.91005 0.85901,-2.57617 1.701,-5.103 2.66205,1.08863 -1.85494,4.04839 1.701,4.2525 2.15175,-4.65221 7.04212,-6.56583 8.505,-11.907 0.55196,3.98884 -5.928,11.78029 -5.103,16.1595 l 0.255,0.23813 c 1.48837,-1.6236 3.10432,-3.12131 4.84785,-4.49063 -0.40827,2.67229 1.20768,3.3246 1.701,5.103 2.58551,0.0338 5.59627,0.49328 5.103,-2.5515 -2.26234,-3.97185 5.02646,-18.53152 8.3604,-25.25898 1.62532,5.71875 6.30307,6.144 23.09958,13.35198 2.67822,4.44728 -0.66337,14.18633 -5.103,8.505 -0.25612,-1.96466 2.45794,-0.94233 2.5515,-2.5515 -4.38007,-0.0187 -5.16255,-1.75203 -10.206,-2.5515 -2.24617,3.58148 0.33938,10.49516 2.5515,14.4585 -2.68758,-0.603 -3.11283,9.43208 0.8505,7.6545 2.3295,-0.77392 -1.50622,-2.98609 0.8505,-4.2525 5.56227,2.76413 11.37972,-0.91852 12.7575,-5.103 -1.32765,9.57664 -10.8192,19.60489 -20.412,15.309 -1.0461,-2.75561 2.75475,-0.65572 1.701,-3.402 -4.39792,1.39654 -8.98215,-2.1441 -12.74898,-1.701 -5.39217,0.62003 -12.25572,6.07429 -5.9535,8.505 -2.79814,-2.03269 1.1652,-4.43959 4.2525,-3.402 -0.61238,0.90323 -3.32547,3.91316 -0.8505,5.103 0.1785,-0.96022 0.9432,-1.32679 1.701,-1.701 0.68891,6.20951 12.57888,3.47003 16.15098,4.2525 -8.31022,3.91316 -14.75703,-0.86835 -22.95498,-1.701 -2.02422,1.7265 -5.2476,5.60479 -8.505,3.39266 0.0585,-2.18493 3.96333,-1.21623 1.701,-3.39266 -6.22568,-1.7784 -4.278,6.52335 -3.402,9.34617 -12.96162,-1.08016 -23.50868,30.13406 -4.2525,30.61799 1.60743,-1.79287 4.0824,-5.79277 0.8505,-7.6545 0.59535,3.14768 -1.34382,3.75919 -4.2525,3.40201 -5.71538,-4.48216 -1.25025,-15.81083 5.103,-16.15951 -3.51255,3.30162 -0.23063,13.22697 4.2525,7.6545 -2.84067,0.85984 -2.78967,-1.18305 -2.5515,-3.402 1.47986,0.0679 2.6442,-0.18637 3.402,-0.8505 -0.23813,1.93999 0.204,3.19872 1.701,3.402 1.91362,-2.32953 5.979,-2.52513 8.505,-4.2525 -0.39975,2.66374 0.73995,3.8034 3.402,3.402 1.40246,-1.1397 0.63787,-4.46516 3.402,-4.2525 16.42316,2.79049 24.63048,-9.91601 29.75898,-21.25316 -4.91587,15.76913 -7.89262,33.48503 -25.50648,36.56217 -2.08373,-2.00551 1.26723,-1.58026 0.8505,-4.25251 -3.5721,1.2519 -6.6594,2.98609 -7.6545,6.804 -2.4069,-0.70593 -2.20279,1.19922 -4.2525,0.8505 -2.58552,-1.49688 2.32098,-2.63655 0,-3.40199 -1.88813,1.51473 -3.32547,3.47939 -2.5515,7.65449 2.19427,3.2574 7.629,1.52322 10.206,2.55151 -7.45039,1.91362 -19.66358,-0.95086 -23.814,4.25249 0.102,-2.12625 1.62446,-2.66122 -0.8505,-3.40199 -2.7471,2.04119 -2.61957,10.20599 1.69248,10.20599 -7.95303,7.21223 -26.62151,-2.17815 -16.15098,-10.20599 2.77263,-1.46202 4.09091,4.07475 4.2525,0 -1.27575,-3.07711 -4.40644,-2.41542 -7.6545,-1.701 -13.09005,20.67821 17.62998,28.67118 32.319,19.56149 -2.17815,2.27082 0.5103,4.48298 0,7.64599 1.85407,0.44993 5.49423,2.05823 5.9535,-0.8505 -1.3353,-0.0765 -2.95125,0.12 -2.5515,-1.701 2.47496,-0.63787 4.21848,-2.01484 5.9535,-3.39349 0.153,2.39247 1.47986,3.62314 4.2525,3.39349 1.86172,-1.76902 -0.74847,-2.7471 0.8505,-4.24399 3.07878,-0.72888 6.25117,-3.90378 7.64598,-5.9535 7.67153,-11.30231 15.82695,-27.22451 19.5615,-41.67449 -1.3353,19.76561 1.24174,47.74961 -15.309,47.62799 -0.68126,2.94357 1.26642,3.26592 0.8505,5.94499 8.08827,3.0363 10.40925,-1.0878 13.608,-6.79549 -0.9024,6.23415 -5.93647,10.75287 -3.402,17.85199 3.43602,1.95702 8.283,2.49195 8.505,7.6545 3.13665,-3.09667 6.58118,-5.88547 10.206,-8.505 0.97639,-8.64109 -6.35493,-13.48042 -4.2525,-20.40349 -0.0784,6.31069 3.91909,8.54836 7.6545,11.04799 2.58383,-1.67632 10.57853,-1.94677 7.6545,-8.49648 -3.35947,-1.09632 -2.05991,2.47496 -4.2525,2.55149 -10.5981,-9.25259 -13.10621,-31.11978 -11.907,-49.329 2.21809,24.42807 19.29615,33.99619 28.06564,51.87199 2.90873,0.36563 2.5515,-2.54299 4.24316,-3.39349 4.02285,2.17984 5.17954,4.76449 7.6545,6.79549 5.69835,-1.18305 1.5309,-6.06491 2.5515,-8.49648 14.9016,10.59806 45.52725,-1.42887 32.31987,-20.41201 -5.00183,-0.7476 -7.71405,0.79182 -8.505,4.2525 2.40603,0.13613 1.98078,-2.56001 4.2525,-2.55149 10.23063,8.45309 -7.6545,17.24047 -17.01,11.05649 3.64777,-1.46201 7.28025,-2.93253 6.804,-8.505 -1.51392,-0.7578 -2.1603,-2.37206 -5.103,-1.70099 -2.38227,-0.36563 2.13472,3.17234 -0.8505,3.40199 -5.325,-2.03355 -9.08423,-5.25611 -16.16037,-3.40199 3.02862,-1.48838 6.17547,-6.51398 3.402,-11.0565 h -4.2525 c -0.4074,3.51423 2.61102,-1.13967 1.701,3.40199 -2.62803,0.0859 -4.71176,-0.38103 -5.9535,-1.701 1.0206,-2.53365 0.23813,-2.89083 -0.8505,-5.103 h -3.39266 c -1.59041,1.24257 -1.00444,4.66924 -4.25164,4.25251 -12.47853,-6.80401 -21.67923,-21.40711 -22.9635,-36.56217 3.402,14.50189 16.14165,25.6596 33.1593,21.25316 1.69249,0.58598 -0.52732,5.06982 2.5515,4.2525 2.25383,-0.29775 0.77397,-4.32903 2.5515,-5.103 0.72375,3.52958 4.88187,3.62397 8.505,4.2525 0.34013,-1.46201 -1.2579,-2.17815 0,-2.5515 1.08863,1.18388 4.16745,0.3735 4.25337,2.5515 -0.008,1.40333 -2.35677,0.47798 -2.5515,1.701 5.08511,3.98798 5.37427,-5.25611 5.103,-6.804 6.93071,0.32475 10.51132,18.17603 0,14.4585 -0.4593,3.01163 1.37692,3.7269 2.5515,5.103 20.0973,-3.74133 5.96197,-31.22951 -6.804,-32.319 2.62803,0.0859 2.53361,-2.56852 2.5515,-5.09366 -1.01213,-2.1084 -3.07883,-3.1545 -6.80487,-2.5515 -1.31827,3.02014 2.8917,0.51116 2.5515,2.5515 -0.72292,1.82775 -3.12986,1.96635 -5.9535,1.69166 2.47497,-2.39077 -1.27575,-2.32102 -1.701,-4.24316 -8.72613,0.42525 -16.27856,7.26413 -23.8038,1.701 7.27092,3.86213 13.81043,-3.26677 17.8503,-2.5515 2.60337,-2.24531 -3.44452,-2.86534 -0.8505,-5.103 2.58552,0.0765 5.91098,1.64149 3.402,4.2525 3.39349,0.552 2.44092,-3.24037 2.5515,-5.9535 -2.91723,-3.87829 -12.00907,-2.85 -14.44916,0.8505 -0.65572,-2.46559 -2.10836,-4.13171 -5.95264,-3.402 -0.97807,2.67229 1.33358,2.06674 1.701,3.402 -8.8971,7.84928 -21.45131,-5.21269 -20.412,-12.7575 0,3.12135 2.97675,3.25744 4.2525,5.103 4.03988,0.97725 6.95712,-1.97314 9.3555,0 -0.0937,1.60916 -2.81685,0.58688 -2.5515,2.5515 h 4.2525 c 1.89578,-2.33036 0.80629,-7.10846 -1.701,-7.6545 3.96162,-0.83265 2.32103,-6.93071 1.701,-10.206 1.60744,-0.18712 1.86942,0.96191 3.402,0.8505 -1.14986,-8.62406 -9.14287,-0.98659 -12.7575,-1.701 -0.63787,2.61956 2.93254,1.03845 1.701,4.2525 h -4.2525 c -5.9535,-15.70871 18.82155,-13.56461 23.81314,-23.814 2.90873,9.11906 9.66934,17.54666 9.34616,27.216 4.39707,0.98573 4.45662,-2.34821 5.9535,-4.2525 1.49772,0.7731 2.95973,1.58194 2.5515,4.2525 2.68759,1.17454 5.35902,2.49199 7.98705,3.92081 l 0.11138,-0.19462 c -2.71226,-1.50623 -2.8662,-5.58098 -7.2471,-5.42704 -0.18713,-2.67821 0.57919,-6.24352 2.55232,-4.2525 -0.24675,-1.98165 -2.29635,-1.98165 -2.55232,0 -2.67825,0.4074 -0.63791,-3.89527 -2.5515,-4.2525 2.54299,-0.81562 6.49016,4.27035 7.65532,7.6545 0.92708,-0.21262 0.57837,-1.69249 1.701,-1.701 -0.008,-2.38987 -2.32098,2.02504 -1.701,-1.701 1.9383,-1.83709 3.29997,1.701 5.103,2.5515 0.68892,-0.44989 1.37697,-0.88365 2.5515,-0.8505 -2.94273,-0.61234 1.34382,-7.95896 -3.402,-8.505 1.06313,-1.26724 4.3452,2.42479 5.9535,-0.8505 -0.16162,-0.96105 -0.8505,-0.46777 -0.8505,0 -2.1084,-1.8609 -1.91362,-6.02152 -5.103,-6.804 1.7937,-3.07796 1.47904,2.9589 4.2525,1.701 0.98573,2.95211 -0.40057,1.56491 2.5515,2.5515 -0.93637,4.30526 9.09102,8.9124 5.103,11.0565 0.8505,1.13119 2.29553,1.66785 2.5515,3.402 2.21895,0.23813 -2.04967,-3.13069 1.42887,-2.59402 l 0.7986,-0.56982 c -2.59403,-3.61462 -4.83083,-7.58647 -7.33047,-11.29466 2.6442,-2.18576 3.96248,-1.2579 6.804,0 0.87518,-4.55696 -2.33887,-5.02642 -4.2525,-6.804 2.95125,-1.47986 2.13477,-7.13569 -0.50265,-8.87156 -0.60382,-0.39038 -1.2936,-0.58515 -2.04885,-0.48394 -1.13115,1.51391 1.24174,4.77131 -2.5515,5.103 -7.19523,-4.4124 -7.17821,-12.46834 -11.0565,-21.25399 -3.67413,-8.32556 -10.41948,-16.10677 -11.90782,-22.9635 -2.12625,-9.83943 -0.29775,-21.62737 0,-34.01913 l 0.008,-0.97808 c -0.3735,0 -0.7578,-0.21262 -0.85988,-0.72292 1.76903,-1.80222 1.41184,-5.72389 5.103,-3.402 -0.50178,-3.05333 0.306,-4.79768 2.5515,-5.09453 0.66338,1.88899 0.49328,4.60973 2.55237,5.09453 -0.15413,-1.85412 0.69656,-2.70462 2.5515,-2.54303 0.153,2.67911 0.59448,5.06985 3.402,5.09453 0.46777,-1.23237 -0.9951,-4.38859 0.8505,-4.24403 1.96466,-0.26362 0.9432,2.45033 2.5515,2.54303 0.3315,-2.58552 -2.23767,-4.32908 0.8505,-5.09453 1.40246,0.007 0.47625,2.35676 1.701,2.5515 2.04033,-1.08011 -0.46864,-6.71044 1.701,-7.6545 2.88318,0.51881 1.3608,5.43555 5.103,5.103 2.27081,0.2475 -2.26234,-3.29906 1.701,-2.5515 0.61998,1.42886 3.19785,5.20594 5.103,2.5515 -1.00444,-1.3089 -2.57704,-4.99155 0,-5.103 1.60743,0.0937 0.58597,2.80751 2.5515,2.5515 1.85407,-3.5457 -2.20365,-7.65364 0.8505,-8.50414 0.90918,1.53942 1.82006,3.08734 2.73011,4.64374 l 0.67189,-0.39124 c 0.13537,-1.00443 1.54706,-0.72375 2.5515,-0.8505 0.13537,-0.99506 -0.18788,-1.51387 -0.8505,-1.701 0.52646,-2.07521 4.29502,-0.45075 3.402,1.701 h 4.2525 c -0.41674,-2.71308 -2.67908,-3.56358 -2.5515,-6.804 0.79095,0.20325 1.34377,0.64639 1.73501,1.24174 l 1.72567,-0.1275 c -1.54706,-2.13476 -2.28701,-5.74087 -1.75968,-7.06766 2.30486,1.0878 4.14108,2.65357 6.804,3.402 -0.324,-3.4275 -0.55283,-2.0922 -1.701,-5.103 2.63655,-0.0859 2.42392,2.6706 5.9535,1.701 2.30486,-0.78244 -2.27085,-1.5819 -0.8505,-4.2525 2.05818,1.39485 4.12492,2.16877 6.79462,0.8505 -0.008,-3.67414 -4.23461,-3.13834 -4.2525,-6.804 h 4.2525 c -2.68672,-2.97675 -6.23415,-5.103 -7.64512,-9.3555 l -2.41628,-0.357 c -1.64149,0.7986 -4.18447,0.69652 -3.53722,3.75919 -1.24174,-0.4686 -4.3971,0.9951 -4.2525,-0.8505 -1.89578,1.13118 1.80221,3.80175 1.701,5.9535 -3.65802,0.6549 -1.24174,2.10075 -1.701,5.9535 -1.87962,1.87023 -4.69564,-2.05819 -5.103,1.701 -2.78202,-0.34013 -5.50362,-0.73992 -5.9535,-3.402 2.16877,0.0926 2.97675,1.55643 4.2525,2.5515 2.50811,-0.73992 -1.97318,-1.27575 -0.8505,-3.402 3.17148,-0.91002 2.42392,2.1084 5.103,1.701 0.68891,-0.16163 0.84112,-0.8505 1.701,-0.8505 -0.6294,-1.2936 -3.91317,-5.87697 0.8505,-5.103 -0.7578,-2.64507 -2.84153,-3.9633 -3.402,-6.804 2.73858,-0.18788 3.59673,1.5054 6.804,0.8505 -0.6294,-0.79182 -1.54793,-1.28509 -2.5515,-1.701 0.8505,-3.3093 2.92485,-0.1275 5.9535,-0.8505 0.66251,-2.93423 -0.7995,-3.7422 -2.5515,-4.2525 0.20325,-1.49772 1.46283,-1.93913 3.402,-1.701 -0.6294,-2.77347 -3.96334,-2.84067 -4.2525,-5.9535 h 5.9535 c -3.51342,-3.58995 0.56981,-3.52958 2.5515,-5.9535 -0.72379,-1.25873 -2.73949,-1.22472 -4.2525,-1.701 0.50178,-1.61595 1.25021,-2.34822 2.03268,-2.84067 l -0.3315,-0.56133 h -4.2525 c 0.13538,-0.98655 -0.18787,-1.50623 -0.8505,-1.701 1.27575,-1.54789 3.66567,-1.9995 5.103,-3.39349 -0.85987,-2.07521 -3.76856,1.65847 -3.402,-2.5515 2.67057,0.96956 2.05819,-1.33526 3.402,-1.701 0.13538,-1.84556 -3.02013,-0.39124 -4.2525,-0.8505 0.23738,-0.255 0.47625,-0.46778 0.73058,-0.64639 l -1.13119,-1.28509 c -2.67821,0 -5.65496,-2.0829 -6.40339,0.23063 -0.45078,-0.86835 -0.324,-1.47135 0.1785,-1.87961 l -0.66341,-0.306 c -0.9951,0.98655 -2.25296,1.71885 -3.7677,2.18576 -1.00444,-3.8451 3.7677,-1.90511 2.5515,-5.9535 h 3.402 l 0.8505,-0.8505 c -2.28019,-3.80171 5.25608,-4.09943 6.804,-6.804 2.11688,0.34875 0.0424,3.29145 -1.701,2.5515 0.56981,2.34739 4.45575,-2.37289 3.402,2.5515 1.66695,-1.16516 4.85636,-0.81649 6.79463,-1.701 -0.1785,0.74842 -0.56982,1.28426 -1.10565,1.6755 l 0.255,0.0263 c 1.0725,0.204 0.85987,1.69249 0,1.701 -0.13538,1.8456 3.02013,0.38272 4.2525,0.8505 0.008,0.0337 0.008,0.0679 0.008,0.0937 l 0.84116,-0.0937 c 2.78962,-0.93641 5.86759,-1.62446 9.05696,-2.21981 l -0.46777,-2.46559 c -1.47987,0.26362 -2.93423,0.41587 -4.33842,0.43372 4.48302,-1.43733 13.55614,-4.58418 10.206,-8.505 5.22293,-1.5819 8.4123,-5.19652 11.0565,-9.3555 -1.00443,-0.13612 -2.41541,0.14475 -2.5515,-0.8505 3.22343,-1.02907 5.22975,-3.27524 5.9535,-6.80399 -17.17923,2.37292 -27.52132,11.60085 -43.36612,15.30899 -6.70279,11.27764 -29.139,18.10718 -21.2625,35.71253 6.43744,1.05375 6.53182,-4.23551 12.7575,-3.402 -0.84199,2.27933 -1.7529,4.4898 -1.701,7.6545 -4.07389,-0.67192 -4.14195,2.66205 -5.9535,4.2525 -3.39349,0.84113 -2.56088,-2.54302 -5.9535,-1.701 -1.1652,6.20865 -10.41011,4.33755 -7.6545,14.4585 -3.38415,-0.55282 -3.41985,2.25296 -6.804,1.701 -2.78198,-2.88405 -4.7373,-6.60075 -10.20686,-6.804 -12.14427,3.44452 -21.46575,9.71269 -24.6543,22.113 -6.62539,-7.5618 -9.9015,-22.98135 -7.6545,-36.5715 l 2.51748,-0.2985 c -0.73991,-6.40343 0.75694,-14.48317 2.58552,-18.40481 1.13966,13.31032 11.22491,17.68189 21.2523,22.10448 -0.008,1.69167 -2.31334,1.08015 -1.701,3.40201 2.94273,0.67188 3.58998,-0.94407 5.103,-1.701 0.97807,-3.52193 -1.78605,-3.3093 -1.701,-5.9535 2.26233,0.57836 4.04925,1.63297 5.95436,2.5515 1.46287,-2.16964 -0.97043,-2.97675 0.8505,-4.2525 3.24041,-0.67189 5.59545,-1.32765 5.9535,2.5515 -0.99593,2.1084 -3.52958,-2.05819 -3.402,1.701 3.29059,0.5358 3.50321,0.7059 5.9535,-0.8505 1.22385,-10.428 -10.12095,-12.99563 -17.01086,-10.19749 0.80797,-4.68626 -3.03544,-5.65583 -5.9535,-4.2525 -1.22385,3.21487 2.33887,1.62446 1.701,4.2525 -1.20769,0.19462 -1.42883,1.39481 -2.5515,1.701 -10.48665,-0.2805 -11.8968,-9.64466 -11.04713,-21.2625 6.10744,-3.69116 8.21498,-7.26326 16.15013,-5.9535 3.16473,0.51881 5.28161,3.96334 8.50586,4.2525 3.99649,0.357 12.5874,-0.34875 10.206,-6.804 -3.41985,0.64639 -7.32281,-0.153 -11.36269,-1.13966 l -0.13537,0.54431 c 3.16387,0.78244 6.67728,3.10432 10.6491,2.29635 -0.55283,0.86749 -1.95698,0.876 -1.701,2.5515 -4.1598,0.4074 -4.12579,-3.29145 -5.9535,0.8505 -1.6083,-0.0934 -0.58684,-2.81603 -2.55233,-2.5515 -2.89087,0.91005 2.37371,0.26362 0.85133,2.5515 -0.68123,-0.45075 -1.37865,-0.88451 -2.55233,-0.8505 -0.69656,-2.4069 1.19918,-2.20279 0.8505,-4.2525 -0.77314,3.58061 -7.63665,2.5515 -8.505,-0.8505 -6.88057,3.2574 -16.22756,2.16877 -19.5513,14.4585 -0.95257,-0.36563 -1.71889,-0.80798 -2.32189,-1.30976 -0.0765,0.153 -0.153,0.306 -0.2295,0.45926 -0.2655,-0.45926 -0.40143,-0.825 -0.45078,-1.12268 -4.4481,-5.20503 5.12002,-15.22308 8.10442,-18.43882 2.1084,-0.79946 0.24675,4.86484 0,1.701 -3.18851,3.90379 -6.32006,7.85861 -8.50414,12.7575 3.3918,2.98526 0.051,2.0157 0.39972,3.98032 0.19462,0.23063 0.42525,0.45927 0.6804,0.66342 1.02911,-2.02422 2.22832,-3.86978 3.62313,-5.51974 l -0.44906,-0.825 c 0.85901,-12.00056 16.60856,-12.38415 31.443,-13.42939 5.16169,-0.36562 10.21451,-0.80797 14.48318,-1.8456 l -0.008,-0.0337 c -10.19749,0.11063 -23.72895,0.255 -32.95774,2.0157 -1.81155,0.62003 -3.58909,1.11416 -5.30625,1.3863 1.51305,-0.55282 3.3093,-1.00357 5.30625,-1.3863 11.33719,-3.86977 24.14655,-12.82552 33.80824,-6.2682 0.65572,-0.63787 1.13032,-1.30976 1.47052,-2.03269 1.26638,-2.65353 0.68974,-5.91097 0.23063,-9.87431 -3.0363,-2.34735 -5.70687,-5.06047 -11.907,-4.2525 -20.30228,-9.20239 -42.97493,5.50275 -58.67513,11.907 -3.18937,0.84203 -1.8558,-4.17592 -4.2525,-1.701 -2.46731,2.80665 1.74353,6.15765 5.9535,5.103 -1.39654,1.37783 -1.02997,5.34116 1.701,5.103 1.96463,-0.95254 -1.19921,-3.29141 1.701,-4.2525 8.49476,1.96466 11.97416,-5.58011 16.1595,-5.103 -9.80629,5.5104 -15.05385,15.56415 -22.113,23.814 -1.52242,-1.73501 -3.13837,-0.23812 -1.701,-3.402 -3.04567,-0.49327 -2.58637,2.51749 -2.5515,5.103 2.28698,2.07439 5.91011,0.91005 7.6545,1.701 -5.70772,8.47099 -6.65944,21.68775 -9.3555,33.16102 -1.19921,-13.82062 -5.06899,-24.97068 -10.206,-34.86202 2.85683,4.10794 11.31165,-0.2805 7.6545,-5.103 -3.58999,-1.31827 0.18713,4.72028 -3.402,3.402 -6.71895,-8.02871 -15.75979,-18.2517 -22.10452,-23.814 4.35457,2.73011 8.72613,5.44238 16.15102,5.103 2.14324,1.60748 -1.78691,4.4226 1.701,5.103 1.17368,-1.09714 0.84113,-3.69116 0.8505,-5.9535 3.10346,0.552 4.53315,-0.56981 5.9535,-1.701 -0.37425,-1.60744 1.15583,-5.12085 -1.701,-4.2525 -1.46374,0.26363 1.10565,2.95125 -2.5515,2.5515 -16.41551,-6.18397 -41.33516,-20.99884 -61.22752,-10.206 h -5.103 c -3.05329,1.25025 -4.39707,5.33265 -4.2525,9.36401 l 0.66341,-0.0187 c -0.51116,-8.90557 11.70289,-10.2834 19.74859,-6.79549 -0.81645,1.73502 3.29145,7.74807 9.3555,5.103 0.62002,-1.51391 1.54792,-0.11925 2.5515,0 -1.30125,-1.21623 -0.83348,-4.43111 1.701,-4.2525 0.31462,1.44585 -0.66338,1.60744 -1.701,1.701 0.0187,0.83262 1.03762,0.66338 1.701,0.8505 -0.45075,0.68892 -0.89303,1.3863 -0.8505,2.5515 -1.77754,0.36563 -2.25383,-0.57836 -3.402,-0.8505 2.44946,0.95254 0.57836,6.22564 3.402,6.804 -2.71309,1.84557 -5.29009,2.05819 -7.60347,1.56492 l -0.14437,0.64638 c 7.74037,1.68398 14.67112,4.1079 17.68189,9.2109 2.67142,1.7265 4.81383,4.0824 6.22563,7.2888 -13.44723,-12.85957 -26.68867,-9.63618 -34.8705,-11.0565 -0.99506,0.13613 -0.71441,1.54789 -0.8505,2.5515 -1.49685,-2.10926 -1.5564,-1.38633 -2.5515,0.8505 -1.51387,-0.62088 -0.11925,-1.54792 0,-2.5515 -1.81155,-0.39975 -1.61595,1.2162 -1.701,2.5515 -1.2162,-1.00361 -1.60743,-4.50765 -1.701,0 -0.99506,-0.13612 -0.71441,-1.54792 -0.8505,-2.5515 -0.99506,0.13613 -0.71441,1.54789 -0.8505,2.5515 h -5.103 v -2.5515 c -0.82496,0.0263 -0.65572,1.03759 -0.8505,1.701 -1.57425,-0.1275 -0.51877,-2.88318 -1.701,-3.402 -1.25872,0.3735 0.33938,1.08863 0,2.5515 -3.98883,0.204 1.05465,-7.74041 -1.701,-5.9535 -2.45793,-0.47715 1.3098,-1.32765 0.8505,-2.5515 1.86177,0.12675 1.82775,2.14324 1.701,4.2525 0.0596,0.11063 0.11925,0.21263 0.1785,0.31463 l 0.67189,-0.31463 c 0.0765,-1.51391 0.11063,-2.98526 -0.24675,-4.05776 -0.13612,-0.41587 -0.3315,-0.76459 -0.60386,-1.04524 -3.29141,-0.73995 -3.01928,2.07435 -5.103,2.5515 0.11925,3.85275 2.08372,5.85994 2.5515,9.3555 12.27274,5.67282 23.33689,-6.33622 37.422,0 -10.33358,-0.69742 -17.02785,2.25297 -24.6645,4.2525 2.48347,1.48838 3.9123,4.03137 5.9535,5.9535 h 5.103 c 3.41902,-2.07525 5.17957,-4.58418 8.505,-5.103 21.10942,-3.31695 22.29161,30.31947 2.5515,24.6645 0.0596,-2.1858 3.96334,-1.21623 1.701,-3.402 h -4.2525 c -2.25383,1.10565 -0.90236,4.49914 -1.701,5.103 -1.62443,-0.36562 -1.54024,-2.43243 -4.2525,-1.701 -4.49914,1.59042 -12.73196,3.0873 -11.907,9.34699 0.16087,1.22385 3.72521,7.82374 5.9535,1.701 -0.27225,-2.81602 -2.62804,3.31609 -3.402,0 -1.02908,-4.43111 3.50407,-3.29992 6.804,-3.402 -0.11063,2.13476 -1.62443,2.66205 0.8505,3.402 0.4848,-1.0206 5.50275,-1.73501 5.103,-0.8505 -1.90511,0.36563 -0.34875,4.19295 -0.8505,5.9535 2.04971,-0.34875 1.8456,1.5564 4.2525,0.8505 1.04527,-2.74714 -2.75561,-0.64725 -1.701,-3.402 10.69931,-3.47002 18.33679,-10.01122 21.2625,-21.25399 1.5309,7.25475 3.16387,14.4066 2.54302,23.80549 l 1.72564,0.36563 c 0.35738,-1.73502 0.80798,-3.38498 1.67636,-4.6182 -1.28512,4.09856 -0.222,9.00678 -0.8505,13.608 -1.10651,8.11376 -2.88405,18.31976 -9.34702,20.412 v -5.9535 c -6.59985,-7.6545 -12.65543,-16.0668 -24.6645,-13.608 -3.49553,0.71441 -6.09806,5.12767 -9.3555,5.103 -6.22564,-0.0435 -7.0251,-3.75072 -5.9535,-9.3555 -3.68265,-2.41542 -8.16563,-7.11019 -14.4585,-4.2525 -1.45433,-3.93784 -9.3555,-5.91949 -5.9535,-11.907 5.17957,-0.35738 5.69835,3.94631 11.0565,3.402 13.71859,-18.63447 -19.74859,-26.55349 -22.95499,-39.11449 -1.04524,1.22385 -3.24889,1.29274 -4.2525,2.5515 -10.58872,-5.03498 -24.41786,-15.7938 -37.422,-12.7575 2.92571,2.33887 7.45039,5.28161 4.2525,6.804 2.67908,3.84424 6.35325,6.6849 10.206,9.3555 -1.00357,0.13612 -2.41541,-0.14475 -2.5515,0.8505 5.51974,4.12492 12.49384,6.77846 18.711,10.206 l 0.26363,0.70335 z m 8.24138,-10.91108 c -9.19391,-2.7216 -21.28804,-9.89981 -31.4685,-14.4585 8.778,3.13838 22.22355,8.95579 31.4685,14.4585 z m 20.35245,85.98555 c 0.0188,-0.0337 0.0337,-0.0589 0.0518,-0.0934 -3.35096,12.18765 -10.72481,23.58435 -17.00149,34.86199 -18.67699,33.55308 -36.2313,70.63488 -55.2825,104.60298 l -1.77754,-0.82414 c -0.255,0.56134 -0.51881,1.11334 -0.77396,1.67464 -2.32189,1.63298 -5.45171,2.48348 -6.79549,5.103 -0.007,2.26234 2.68755,1.8456 2.5515,4.24399 5.37514,0 8.36892,-2.39839 11.04799,-5.09449 0.102,1.02998 0.255,2.00805 1.701,1.701 8.24134,-5.08511 13.88018,-12.77449 17.8605,-22.113 0.51881,1.7529 -1.36931,5.90333 1.701,5.103 3.09581,-8.52967 10.67377,-12.57802 11.907,-22.9635 0.40823,1.00361 0.91001,1.93148 1.701,2.5515 8.6751,-15.69937 18.66847,-30.08133 23.814,-49.32048 v 2.5515 c 12.74899,-11.91552 16.42316,-32.8965 25.50649,-48.47764 v -0.8505 c -0.0187,-2.6706 2.80665,-4.73644 0.8505,-6.79466 -0.55283,-2.38223 -3.86127,3.9123 -5.103,0.8505 l -1.15669,-0.30713 c -1.18219,1.37014 -2.78111,2.32185 -4.79681,2.85 -0.41674,-3.07879 -1.68398,-4.12575 -2.73945,-5.8344 -0.71442,-1.15586 -1.32679,-2.61019 -1.51305,-5.21272 -0.99507,0.29775 -1.76903,0.83265 -2.56935,1.32678 l 0.81648,0.46778 z m 7.70554,160.62544 c -0.255,-0.0765 -9.4074,1.5054 -8.505,-2.5515 4.30353,-0.61238 6.4383,0.93555 8.505,2.5515 z m -6.804,-5.103 c 2.90868,0.62089 5.66433,0.25612 6.804,4.2525 -1.20773,-2.46645 -6.08108,-1.28426 -6.804,-4.2525 z m 0,-1.701 c -1.22472,1.6083 -1.8966,3.77539 -5.103,3.402 v 2.5515 c 1.00357,0.5103 5.7834,0.55282 5.95349,4.2525 l 0.18713,0.27225 c 2.5005,-1.59979 4.86487,-2.8917 6.61691,0.57832 2.37289,-6.47996 -2.27085,-9.55961 -7.5618,-11.34566 l -0.0934,0.28913 z m -74.91207,-15.27499 1.77758,0.82414 c 21.33904,-43.14503 44.7363,-91.02049 69.19669,-134.07281 l -2.0157,-1.1397 c -26.91833,40.84953 -47.49109,88.06931 -68.95857,134.38755 z m 69.56243,1.13119 c 0.0765,-0.11138 0.153,-0.21263 0.24675,-0.30713 1.00357,0.13613 0.72292,1.54793 0.8505,2.5515 1.7937,-1.99016 -1.22471,-5.40832 3.402,-3.402 -0.93641,-2.65271 -0.54518,-3.04477 1.701,-1.701 -0.0424,-4.29416 4.58418,-5.55292 3.402,-8.505 0.68891,0.16238 0.8505,0.8505 1.701,0.8505 -0.98659,-4.11641 2.42392,-3.69116 0.8505,-5.9535 0.0851,-0.0679 0.16087,-0.13612 0.23812,-0.204 l -0.73144,-0.33075 c -0.48476,0.61152 -0.98655,1.18137 -1.50622,1.701 0.1275,0.0416 0.24675,0.204 0.2985,0.53498 -2.5515,5.17102 -7.1187,9.93382 -10.8864,14.40832 l 0.43376,0.35738 z m 1.41184,-134.379 c 1.01122,-1.77758 2.02417,-3.53809 3.0354,-5.29778 l -0.81645,-0.46777 c -1.12182,0.69742 -2.30487,1.3353 -4.23465,1.22389 -0.23813,-1.37697 0.80797,-1.47053 0.8505,-2.55068 -0.52733,1.24174 -2.20279,1.32679 -3.70819,1.59896 l 1.14904,0.96019 c -8.98215,16.84076 -25.77953,30.27866 -31.45152,47.61015 l 2.1858,0.62936 c 10.206,-15.95452 20.30993,-31.72365 30.97519,-44.84598 l 2.0157,1.13966 z m -26.67169,-36.86066 c -30.79661,10.30803 -51.42124,30.78806 -79.08803,44.21748 v 6.804 c 4.50765,1.50537 9.86667,0.75608 13.608,-0.8505 -0.19462,1.60658 0.95258,1.87875 0.8505,3.402 25.31089,-7.28879 44.60876,-20.59147 65.48003,-32.31048 -2.16878,2.08368 -4.49066,4.01434 -6.89756,5.86759 l 1.57428,1.88895 c 3.1128,-2.40694 6.06405,-4.74578 8.70912,-7.00812 -30.36286,26.06696 -53.36888,59.50099 -81.62337,87.68655 5.91102,10.40078 20.83725,1.57429 25.515,-4.2525 0.34875,2.04968 -1.5564,1.85494 -0.8505,4.2525 16.959,-11.47327 32.20845,-24.67387 42.8397,-42.48247 0.11925,-0.35738 0.2805,-0.6549 0.52733,-0.88369 -0.17025,0.29775 -0.34875,0.59452 -0.52733,0.88369 -0.45926,1.3353 -0.23812,3.35947 -1.17367,4.21931 13.42087,-10.96376 22.78489,-25.9581 34.00297,-39.10597 l -1.14903,-0.96023 c -0.9015,0.16088 -1.74353,0.3819 -2.2368,0.95171 -2.54299,-0.58597 1.45436,-7.69616 -3.402,-5.95263 0.43376,-2.40694 2.04971,-3.61463 2.5515,-5.9535 -10.78437,1.04527 -21.13493,15.29115 -28.917,23.80462 -18.07313,19.79115 -41.63198,43.86795 -59.52649,62.92766 27.13942,-28.97568 51.32853,-60.92047 81.63949,-86.73401 0.11887,-3.18086 -7.75658,-1.18301 -4.2525,-5.10296 h -5.9535 c 0.98658,-2.40694 1.17367,-5.62181 3.402,-6.804 -0.19575,-1.22475 -2.54299,-0.2985 -2.5515,-1.701 1.18218,-2.78966 3.7677,-4.16745 5.103,-6.804 -23.14212,11.16705 -44.87239,23.72808 -65.47999,37.42114 -0.56985,-2.74628 3.51255,-2.63655 5.9535,-4.2525 15.02831,-10.02657 34.74379,-22.63947 52.5864,-31.45917 l -0.71442,-1.70947 z m -73.98503,45.91848 c -1.52239,0.24563 -1.74349,-0.80032 -0.8505,-0.8505 5.01795,-1.20858 8.07128,-4.39792 12.7575,-5.94498 0.0188,-0.83351 1.03849,-0.66424 1.701,-0.8505 -3.64864,3.43601 -9.09097,5.07746 -13.608,7.64598 z m 107.14601,127.56649 c -0.41673,1.86345 -5.09448,6.78698 -8.505,8.49649 2.16027,-3.50408 5.7834,-5.55375 8.505,-8.49649 z m -13.05517,19.57001 c 0.102,0 0.204,-0.007 0.306,-0.0188 -3.10433,-1.56491 1.24174,-4.53315 2.66205,-5.63793 -0.0424,-0.0945 -0.0851,-0.19575 -0.11925,-0.31538 0.75694,-0.24562 0.62936,-0.0926 0.11925,0.31538 0.85901,1.99016 2.19427,-1.29364 2.43244,-2.01657 h 5.103 l 0.0926,-0.28912 c -1.73501,-0.58598 -3.5466,-1.02825 -5.1957,-1.41184 12.37478,-8.31701 19.04269,-22.35026 35.721,-26.35699 1.37779,-2.03182 2.86616,-3.94545 4.50765,-5.71451 l -0.255,-0.23887 c -0.52732,-1.34378 -2.85004,1.03849 -4.17596,0.89389 l -0.0765,0.80711 c -2.85769,4.09177 -14.97731,7.20457 -20.412,13.608 0.6804,-0.96023 1.3863,-1.82858 2.1084,-2.62804 l -0.80798,-0.47715 c -3.49473,3.98205 -7.16973,7.5618 -11.50642,8.2065 0.44992,0.68122 0.89302,1.37865 0.8505,2.5515 -3.14685,-0.44314 -2.13476,-1.4535 -1.701,1.701 -3.8868,0.4686 -1.54793,2.78197 -5.9535,3.39262 0.73057,2.71227 -1.3353,2.63742 -1.701,4.2525 3.9123,-0.65486 -1.18305,1.14053 -1.69249,5.103 -2.19431,-2.27085 -0.90153,1.95788 -4.2525,0.8505 1.7265,0.73144 1.49689,3.41903 3.94632,3.41903 z m 3.80171,16.99298 c -3.92077,-0.3735 -5.24756,-3.31695 -8.59852,-4.2525 2.35586,-3.42668 0.97807,-4.5927 0,-8.505 4.20997,1.098 4.17592,-2.05823 7.64598,-1.701 2.58552,4.51702 5.74088,2.16964 8.69209,0.27225 l -0.18712,-0.27225 c -1.69249,-1.76903 -2.97675,0.62936 -4.2525,1.701 -2.66205,0.40057 -2.39078,-2.13476 -3.402,-3.402 -1.09714,-0.0263 -2.16027,0.19575 -3.18087,0.46864 -2.49198,0.67102 -4.78833,1.68397 -7.01662,0.38186 1.69249,3.05329 -1.25876,2.95207 -2.5515,5.103 1.33526,3.11284 1.26724,-1.97318 3.402,-0.8505 -0.0188,1.69249 -2.32189,1.08015 -1.701,3.402 0.85897,-0.55283 0.876,-1.95529 2.5515,-1.701 -1.31828,1.51474 -2.33888,3.33397 -3.402,5.103 5.17102,3.75922 5.52825,5.40832 11.89849,5.103 l 0.102,-0.8505 z m -7.20371,12.20467 c -0.91853,-1.63293 -2.36355,-3.53808 -3.80175,-5.50188 l -0.14475,0.10125 c -1.53941,10.04527 15.09637,10.05292 17.85199,3.402 -1.88895,0.36562 -4.60973,1.95701 -5.103,-0.8505 -0.80798,-2.53448 1.59045,-4.97543 0,-9.3555 -0.57919,0.0435 -1.11503,0.0435 -1.59897,0 l -0.102,0.8505 c -1.25876,1.77757 0.8505,3.19788 0.8505,4.2525 -0.007,2.38226 -2.3142,-2.02335 -1.701,1.701 -1.07163,-2.67908 -2.8662,0.68126 -2.54298,-3.402 -2.7216,-0.73058 -2.63655,1.3353 -4.2525,1.701 1.25872,3.85278 -1.26728,3.50407 0.54431,7.10167 0.12,0.18788 0.21262,0.37508 0.306,0.55283 -0.11063,-0.19575 -0.21263,-0.37425 -0.306,-0.55283 z m 8.80267,-1.14817 c -2.85003,2.799 -4.41408,-2.9172 -6.79548,-3.402 1.26723,3.402 5.05196,6.42214 9.34698,4.2525 -4.66923,5.36749 -12.21318,-1.66613 -10.19748,-5.9535 1.78605,-0.90154 5.21355,3.82725 7.64598,5.103 z m -17.39272,-4.43963 c -0.44314,-1.11498 -1.15669,-2.1849 -2.16026,-3.21573 3.07878,-3.9123 4.03987,2.15265 6.804,3.402 l 0.14475,-0.1005 c -2.95122,-4.02203 -5.88544,-8.2839 -4.39707,-10.95615 -0.16162,-0.68978 -0.85901,-0.8505 -0.85049,-1.701 -1.53091,-0.10988 -1.79457,1.03931 -3.40201,0.8505 3.62314,1.41183 -1.08014,4.86656 2.5515,5.103 -1.85411,1.73587 -3.21491,1.8813 -3.40199,4.2525 1.27574,0.99592 2.07521,2.45966 4.2525,2.5515 l 0.45926,-0.18713 z m -5.56226,-234.52533 c -0.49332,-0.0765 -0.88452,-0.0424 -1.19922,0.0589 0.39975,-0.0263 0.80033,-0.0424 1.19922,-0.0596 z m -6.02157,-5.66434 c 0.0187,-0.0937 0.0424,-0.18712 0.0679,-0.28912 3.86126,-0.48481 0.42525,-4.50766 5.87692,-4.2525 v -0.0337 c -3.5976,-1.42969 -2.37288,-5.04432 0.92708,-5.91098 -3.11284,-2.83215 -2.00719,-5.15404 -4.04839,-8.98129 l -1.05461,0.47629 c -15.1134,-2.67056 -35.36381,-4.03988 -51.87203,-2.5515 -4.2525,7.50139 10.47818,10.70779 16.15103,11.0565 -1.52243,-0.11063 -1.9902,0.84199 -1.701,2.5515 4.6437,1.86259 8.79416,0.45926 12.7575,1.701 -1.60748,0.37425 -5.12003,-1.1652 -4.2525,1.69249 6.53182,3.67331 17.73292,2.67821 26.3655,4.2525 l 0.78244,0.28912 z m 3.47007,-14.74088 c -11.83047,-2.91723 -32.25098,-1.76055 -41.6745,-4.25249 14.66261,0.0765 28.01546,1.46287 41.6745,2.5515 0.51963,0.75525 1.02907,1.51387 0,1.70099 z m -36.5715,90.13598 c -9.71273,5.0256 -18.06462,11.412 -26.35703,17.8605 -5.0511,4.0152 -13.71855,4.43025 -16.1595,11.0565 6.17464,-0.0679 9.70421,-2.77346 13.608,-5.103 0.1275,1.0053 -0.14475,2.41541 0.8505,2.5515 5.37518,-3.11284 10.32593,-9.84877 16.1595,-13.608 -0.29775,0.18788 -0.44224,1.65761 -0.8505,1.701 8.1393,-0.93637 15.33454,-13.52295 21.25403,-18.711 7.37381,-6.44677 15.97237,-12.7158 23.59286,-18.60045 l -1.57429,-1.88895 c -10.41776,8.00321 -22.42684,14.41598 -30.52357,24.74108 z m -39.96503,-33.16099 c -0.6804,7.56094 10.08694,3.24807 13.608,2.5515 -0.95254,1.22385 -0.91852,2.07439 0.8505,2.5515 20.48858,-5.51973 38.20448,-17.70742 57.48533,-22.75087 l -0.5103,-1.91363 c -25.48864,4.84785 -42.37193,18.29427 -71.43353,19.5615 z m 40.81553,97.79048 c -10.82689,8.1648 -15.6237,22.3605 -28.90853,28.0665 4.28655,8.33576 11.907,-4.32053 16.1595,-6.804 -0.95254,1.22557 -0.91852,2.07611 0.8505,2.5515 4.43111,-7.18587 10.34209,-12.90207 13.59953,-21.2625 v 2.5515 c 9.61065,-12.7056 18.69397,-26.95148 27.70076,-41.03663 l -2.18576,-0.62936 c -9.70422,11.54978 -19.42542,23.09108 -27.216,36.56299 z m 25.52347,89.71076 c 3.41051,0 6.68494,0.36637 9.34703,-0.41677 -1.82007,3.28211 -2.43244,7.77528 -3.402,11.907 0.2295,1.75376 3.7677,0.20399 3.402,2.55153 -1.48838,0.77393 -2.95977,1.58108 -2.5515,4.2525 2.90017,4.17593 6.34473,7.8348 14.4585,6.804 0.66337,-3.78304 -4.5672,-1.67463 -4.2525,-5.103 1.83708,-3.2217 2.54298,-6.50546 1.30976,-9.54176 l -0.45926,0.18637 c 0.008,1.24343 -3.58913,2.69693 0,2.55151 -1.57343,1.64231 -1.55644,0.67274 -0.8505,3.40199 -2.44095,0.16088 -4.64374,0.10275 -4.2525,-2.55149 -0.67193,0.16087 -1.5054,0.8505 -2.33037,0.87686 -0.007,0.008 -0.0188,0.0263 -0.0263,0.0416 1.26638,0.99592 2.75475,2.3916 4.9074,2.4843 -0.61237,2.59489 0.86749,3.09667 0.8505,5.103 -2.85768,-0.2655 -3.39352,-2.85 -4.2525,-5.103 -2.526,1.75969 1.20769,4.38772 2.5515,5.103 -2.26233,2.20282 -4.24402,-3.0873 -5.9535,-4.2525 0.73992,-1.23237 1.4118,-2.36355 1.8966,-3.3348 -0.0188,-0.007 -0.0263,-0.0225 -0.0435,-0.0337 0.0263,0 0.0435,0 0.0679,-0.008 1.43734,-2.88405 1.26724,-4.41409 -3.62314,-3.42837 2.51749,-6.93071 1.90511,-10.42713 5.9535,-14.45849 -2.80665,-3.18 1.69249,-9.60979 5.103,-10.206 -0.50179,-5.46023 9.10886,-7.78973 11.0565,-13.60801 1.44585,-0.3045 1.59893,0.66424 1.701,1.701 2.80665,-2.03355 0.79095,-6.95707 4.24399,-5.09362 -0.102,-1.90429 -0.1275,-3.73369 0.60386,-4.79685 l -0.43376,-0.357 c -2.23766,2.66119 -4.19381,5.22206 -5.26459,7.69616 -1.93912,-1.6236 -6.57435,4.21084 -6.8295,5.68901 0.0518,-0.0503 0.102,-0.0926 0.15375,-0.13424 0.28913,-0.66424 0.93555,-0.97722 1.57343,-1.30212 -0.54432,0.41674 -1.07164,0.8505 -1.57343,1.30212 -0.0596,0.11887 -0.102,0.25424 -0.1275,0.39888 -0.0337,-0.0585 -0.0424,-0.14437 -0.0263,-0.26437 -4.65225,4.21931 -7.86712,9.86749 -13.5825,13.02199 -2.47496,-0.0851 -3.33394,-0.93555 -4.2525,-4.2525 -1.92214,0.14549 -3.58909,0.55282 -5.02646,1.18391 l 0.18712,0.4431 c 1.21707,-0.52646 2.6289,-0.56134 3.13834,-0.77397 0.83351,1.81242 0.36563,3.17239 2.5515,5.10301 1.00361,-0.97808 3.00229,-0.96023 5.103,-0.85051 -0.28912,3.01163 -2.33887,2.0931 -0.8505,5.10301 -2.95121,-1.86173 -1.56491,-1.75287 -2.5515,0.8505 -1.51387,-0.26438 -3.07879,0.46863 -7.6545,1.70099 l 0.007,0.41674 z M 428.3166,275.26781 c 2.82367,-0.0926 5.5461,-0.0424 8.10529,0.23063 -24.63049,1.17371 -41.79357,9.79777 -64.62953,12.7575 -0.81645,6.20017 2.85004,7.91816 7.6545,8.505 -0.2715,1.14821 -1.2162,1.62446 -0.8505,3.40204 6.9741,2.56001 14.45003,-0.52733 19.55303,-2.55154 -1.43738,1.6755 -4.27804,1.94767 -3.39353,5.95354 14.22124,-1.24174 30.66057,-5.72389 43.36703,-7.65454 l 0.5103,1.91366 c 1.52238,-0.40826 3.05411,-0.7578 4.5927,-1.06316 l 0.71441,1.70955 c 1.1907,-0.58684 2.36438,-1.15669 3.53809,-1.70955 -0.34875,-1.64231 -3.89531,-0.0765 -2.5515,-3.402 h -5.9535 c 1.42882,-4.56717 -0.35738,-7.11866 4.2525,-8.505 -0.007,-1.68398 -2.32189,-1.08094 -1.701,-3.402 1.63294,-0.21263 1.65847,-2.03352 3.04477,-2.49282 -17.27448,0.91857 -41.17271,6.89757 -59.1693,11.84832 -1.64145,0.36562 -3.06945,-0.57919 -1.701,-0.8505 18.78758,-4.73726 37.70269,-9.34699 57.82553,-12.7575 -0.34875,-1.5564 -2.27936,-1.54024 -1.76906,-3.9633 l -0.78244,-0.28913 c -3.43601,-0.19575 -7.04216,-0.17025 -10.73333,-0.0424 l 0.0765,2.36437 z m 14.2629,-21.50231 c -0.0596,-0.12 -0.1275,-0.24675 -0.204,-0.37425 0.91852,0.17025 1.51387,0.0424 1.96462,-0.14437 l -0.26362,-0.70594 c -8.41148,-2.93423 -17.79248,-5.51123 -26.3655,-8.505 -4.32056,-1.51388 -9.95936,-5.79191 -13.608,-2.5515 8.13926,8.59009 26.46754,6.98261 37.422,12.75754 l 1.05461,-0.47629 z m -61.43164,15.77846 c -2.10836,8.34342 7.92668,4.55018 9.3555,9.3555 10.43651,0.153 25.1238,-3.22338 37.81324,-3.63247 l -0.0765,-2.36355 c -17.06018,0.58684 -35.77118,3.39349 -47.0922,-3.35948 z m 44.21753,233.862 c -0.47629,-1.92213 2.50046,-7.67917 5.9535,-8.505 -0.19575,-2.01484 0.79095,-2.97675 1.96462,-3.47857 l -0.18712,-0.4431 c -5.48573,2.37206 -7.83312,7.8765 -9.43204,14.12508 2.99374,-1.81068 6.23415,-2.13472 9.36397,-2.13472 l -0.007,-0.41677 c -0.0263,-0.82411 -1.03762,-0.66169 -1.701,-0.85047 -1.21619,-4.33755 2.60254,-3.63165 3.40201,-5.9535 -0.26363,-1.155 -2.12625,-0.70507 -3.40201,-0.8505 1.93999,3.70815 -4.27799,5.67282 -5.95349,8.505 z" />
  <path
     style="fill:#ffffff"
     inkscape:connector-curvature="0"
     id="Wei"
     d="m 515.50987,323.12801 c -3.18937,0.63788 -1.85493,-3.24889 -4.25249,-3.402 -1.17372,5.63033 -3.52193,0.69656 -5.95351,3.402 -1.90511,-0.92703 -1.49688,-4.17596 -3.40199,-5.103 -1.87962,5.35815 -4.31205,2.75561 -7.51842,4.49914 l -0.13612,-0.24675 c 2.00632,-1.11499 0.83265,-5.40154 4.2525,-5.103 0.14475,1.26724 -0.306,3.13751 0.8505,3.402 2.10075,-1.30976 0.80797,-5.99602 5.103,-5.103 0.14475,2.40694 -0.73144,5.83358 1.701,5.9535 -0.56134,-4.74577 3.18086,-1.74352 3.402,0 1.41183,-1.42031 -0.54518,-6.20865 2.5515,-5.9535 2.1084,1.01126 0.0187,6.21716 3.402,5.9535 v 1.69931 z m -28.917,-6.804 c -2.37288,5.24756 -4.82234,0.73995 -9.3555,4.2525 -2.27085,-2.62804 -0.48479,-4.56716 -1.70099,-5.9535 0.36562,1.36845 -3.1647,2.84918 -3.402,0.8505 -0.23063,-3.38497 4.37156,-6.35407 3.402,-7.6545 -4.80533,4.88186 -4.68627,1.51305 -8.71763,1.43648 l 0.0263,-0.6285 c 1.47135,0 2.1441,-2.73945 4.44045,-2.50898 2.08373,1.13115 -0.93641,3.16388 0.8505,3.402 2.19428,-1.54023 3.67331,-4.71176 5.9535,-1.701 -1.03845,1.82772 -4.89038,5.25611 -3.402,6.804 0.34875,-1.07163 1.09714,-1.74352 2.5515,-1.701 1.5054,1.42035 -0.74846,2.84918 0,5.9535 4.0569,0.73995 4.5672,-6.57435 7.6545,-1.701 1.41184,-1.42968 0.6804,-4.99245 4.2525,-4.2525 -0.19575,6.65944 2.02417,3.98798 5.103,9.3555 l 0.13613,0.24675 c -0.58684,0.31463 -1.19922,0.77397 -1.83709,1.45437 -1.49689,-4.88187 -3.29996,-4.16745 -5.9535,-7.65451 z m -29.5719,-22.10449 c 2.49282,0 5.82679,-2.39842 6.61692,0.84199 -1.46288,-0.0424 -2.1858,0.6549 -2.5515,1.701 3.01076,0.96109 4.83933,-3.5721 6.79548,-0.8505 -0.0934,2.78115 -5.43555,4.71176 -3.402,6.804 0.0188,-1.11499 2.36355,-1.08097 2.5515,0 0.41674,2.67821 -2.6034,1.92214 -1.701,5.103 0.60387,0.58601 1.09714,0.80798 1.51305,0.80798 l -0.0263,0.62853 c -0.65572,-0.0187 -1.42035,0.0517 -2.33887,0.26438 -0.88451,-2.4069 1.41184,-5.83444 0,-5.9535 -0.1275,2.11774 -2.87468,0.24675 -3.39349,0 0.71442,-1.6083 4.09939,-4.89038 2.5515,-5.9535 -0.72292,2.49199 -2.73862,-0.51113 -4.2525,0 -0.0424,-1.17368 0.39971,-1.86259 0.8505,-2.5515 -1.1397,0.0188 -2.36441,0.11062 -3.33397,-0.0517 l 0.11925,-0.79095 z m 8.3094,-34.87218 c -2.78966,-1.61599 -3.52192,0.37425 -7.64598,0 1.06312,0.34875 1.73501,1.09713 1.701,2.5515 -2.00719,0.0188 -2.50898,-1.47139 -5.103,-0.8505 -0.58688,3.41899 3.58057,2.08372 3.402,5.103 h -2.5515 c -1.11417,3.65715 4.04839,1.0461 3.402,4.24398 0.11062,1.54703 -2.08373,0.77397 -3.52107,0.75694 l 0.0188,-0.62936 c 0.92704,0 1.64997,-0.20325 1.80304,-0.97725 -2.90017,0.0679 -3.17235,-2.50046 -4.2525,-4.24399 5.2731,0.255 -0.69739,-1.64145 0.8505,-5.103 2.1603,-0.39124 3.44453,-1.65847 4.2525,-3.402 3.46155,0.69743 2.92575,0.1275 6.79553,0 0.153,-3.94631 -0.83352,-4.60968 -0.84203,-7.6545 1.18223,2.50046 4.47364,2.8917 4.24403,6.804 -4.8819,-2.20534 -0.0679,1.8609 -2.5515,3.40032 z m -9.34698,27.20917 c -0.007,3.75071 3.41047,-0.78244 4.2525,2.5515 -1.10565,1.73501 -4.12493,1.54706 -3.402,5.103 0.0596,0 0.11925,0.008 0.18712,0.008 l -0.11925,0.79099 c -1.23322,-0.19463 -2.04971,-0.79864 -1.76902,-2.49964 -0.90154,-3.1647 2.86616,-1.66698 3.402,-3.402 -2.10927,0.12675 -4.13344,0.16088 -4.2525,-1.701 0.24675,-1.73501 2.29635,-1.66699 2.5515,-3.402 -2.99378,-0.0263 -5.85147,-2.7216 -2.56002,-4.2525 -2.76412,0.22125 -4.09177,-1.00443 -4.24398,-3.402 2.22828,-2.59402 2.55997,-2.66205 0.8505,-5.9535 1.0461,-0.2985 2.80665,0.12675 4.15042,0.12675 l -0.0188,0.62936 c -0.2805,-0.007 -0.52732,0.0188 -0.73144,0.0937 -1.25025,3.24042 3.80172,0.17025 2.5515,3.40201 -2.2113,1.54706 -2.56852,-0.36675 -5.103,0.85049 -0.0937,3.97182 6.42979,2.26234 3.40201,6.80401 1.75203,0.51795 5.90246,-1.36932 5.10299,1.701 -1.54792,0.73143 -2.34738,2.19427 -4.2525,2.5515 z m 160.71896,-78.23666 c 2.33632,8.7168 -9.30278,9.84454 -9.35464,2.5515 3.06776,-0.23288 2.30741,3.36289 5.10214,3.402 3.67417,0.27037 0.91005,-5.89991 4.2525,-5.9535 z m -111.39848,6.80317 c -0.14024,-2.46562 -3.83235,-5.75107 0.8505,-5.95267 0.0113,2.25469 -0.47287,5.00692 1.701,5.10217 4.31461,1.48073 1.97824,-3.69033 5.103,-3.402 2.92572,4.01862 -4.0569,6.56839 -7.6545,4.2525 z m -62.07971,41.6694 c 0.52305,0.75694 1.02743,1.52067 0,1.701 -11.83215,-2.91127 -32.25349,-1.75886 -41.6694,-4.2525 14.66093,0.0799 28.01633,1.46625 41.6694,2.5515 z m 222.8055,-0.8505 c -2.84152,3.90038 -8.29747,-1.55302 -9.35381,1.701 -1.90511,-3.65205 6.56587,-2.64592 9.3555,-1.701 z m -7.6545,39.97009 c -1.89067,1.13115 1.80304,3.79916 1.701,5.95264 -3.6546,0.65572 -1.24087,2.10244 -1.701,5.95267 -1.87279,1.87024 -4.69136,-2.05736 -5.10214,1.701 -2.78115,-0.3375 -5.49765,-0.73826 -5.95267,-3.402 2.17387,0.0945 2.97675,1.55895 4.25167,2.5515 2.51153,-0.73995 -1.97148,-1.2732 -0.84967,-3.402 3.17662,-0.90918 2.42479,2.11092 5.10217,1.701 0.68974,-0.16162 0.84709,-0.85308 1.701,-0.8505 -0.62853,-1.2945 -3.91316,-5.87782 0.84964,-5.103 -0.75694,-2.6442 -2.84066,-3.96165 -3.40114,-6.80317 2.73946,-0.18788 3.5976,1.50454 6.80314,0.8505 -0.62257,-0.79523 -1.54537,-1.28936 -2.5515,-1.701 0.85815,-3.31354 2.9274,-0.13163 5.95264,-0.8505 0.66934,-2.93678 -0.79436,-3.74048 -2.55064,-4.2525 0.204,-1.49603 1.4637,-1.93826 3.40114,-1.701 -0.62426,-2.77688 -3.95906,-2.84235 -4.25164,-5.95264 h 5.95264 c -3.51255,-3.59591 0.57581,-3.53299 2.5515,-5.9535 -0.72124,-1.26386 -2.73859,-1.23067 -4.2525,-1.701 1.00954,-3.22849 2.99801,-2.94274 4.2525,-4.2525 -1.92296,4.32735 -0.47884,2.63228 1.70017,5.95264 -1.03507,3.32122 -4.48725,2.33632 -2.55067,6.80317 h -5.10214 c 1.2732,1.27744 1.5207,3.58058 3.40114,4.2525 -0.204,1.49603 -1.4637,1.9374 -3.40114,1.701 1.2264,1.3242 3.42326,1.67802 2.55064,5.103 -1.428,1.40588 -4.99159,0.67613 -4.25164,4.2525 -1.24174,-0.46777 -4.3971,0.99507 -4.2525,-0.8505 z m -212.5995,-27.216 c -3.6852,-1.41184 -2.47155,-5.07067 0.8505,-5.95264 -3.21487,-2.92402 -1.93147,-5.30032 -4.2525,-9.35467 2.71309,0.50434 2.62976,-1.59638 4.2525,0 -1.16347,-1.08776 -1.16347,-4.0152 0,-5.103 1.5105,1.89068 5.86335,0.93896 6.80314,3.402 -0.2295,-1.74352 4.22618,-3.01162 2.5515,-3.402 1.00871,-1.76902 5.21104,0.39124 4.2525,3.402 -2.11601,0.13087 -2.63314,-1.33613 -4.2525,-1.701 -0.42011,2.66974 2.93085,2.24704 0.8505,4.25168 -2.49278,-2.32613 -7.22074,-2.41714 -10.20514,-4.25168 -0.49837,2.98613 4.01948,2.79731 1.701,5.10218 -0.98741,-0.71359 -2.28019,-1.12182 -4.2525,-0.8505 2.89001,4.10621 2.71226,6.23328 5.9535,9.35463 -2.67566,-0.4074 -3.3246,1.2111 -5.103,1.701 1.45436,3.27443 1.15414,7.0872 -3.402,7.65364 -0.183,3.86809 3.50321,3.8664 5.95264,5.10218 0.11587,2.95035 -4.30778,1.36162 -4.25164,4.2525 0.26288,1.15327 2.1288,0.70589 3.402,0.8505 -0.68295,2.15006 -3.50066,2.16877 -5.103,3.402 3.25744,1.59637 0.23738,3.19957 -0.8505,5.10213 1.5726,2.59744 4.04074,-0.98148 6.80314,0 0.62003,2.32016 -1.68994,1.71207 -1.701,3.402 3.28976,-0.45502 4.15133,1.51815 7.65368,0.8505 -1.22813,3.02351 -3.86809,4.63609 -5.9535,6.80314 0.13762,0.99679 1.55043,0.717 2.5515,0.8505 0.32475,3.1596 -3.44622,2.22236 -2.5515,5.9535 0.85728,3.31271 2.9274,0.13087 5.9535,0.8505 0.61916,2.32102 -1.68994,1.71206 -1.701,3.402 2.76071,0.49327 3.95651,-0.58005 5.95263,-0.8505 1.70865,1.73419 -0.3759,1.66699 -0.8505,3.402 1.33954,1.23919 4.74072,-0.25612 5.95264,-1.701 2.2113,1.18646 -0.62085,4.40134 -0.8505,5.95264 0.20513,2.19258 1.46288,-1.16772 3.402,0 -0.015,2.53706 -2.21212,2.89087 -2.5515,5.103 0.16088,0.68891 0.85305,0.84795 0.8505,1.701 3.33566,0.21787 3.16046,-3.07538 6.80318,-2.5515 0.23887,1.37272 -0.80374,1.46373 -0.8505,2.5515 3.66821,-0.015 3.1341,-4.23634 6.80313,-4.25164 0.94575,2.58382 -1.47303,4.19044 0,8.50331 1.50627,-0.76121 1.0827,-3.45217 4.25164,-2.5515 0.015,2.67311 -2.80834,4.74409 -0.8505,6.804 2.51921,-1.16602 2.75055,-4.61906 5.95268,-5.103 -0.95172,3.58316 -3.21915,5.85056 -6.80318,6.80228 -0.70335,-5.16762 -3.78896,-4.60459 -4.2525,-11.05395 -2.39329,0.72378 -3.4896,2.74627 -6.80314,2.55067 -0.24,-1.37272 0.80288,-1.46374 0.8505,-2.55067 -0.84881,1.98592 -4.63691,1.03252 -5.95263,2.55067 -2.5362,-0.5826 1.46028,-7.69534 -3.402,-5.95181 0.43376,-2.40098 2.05736,-3.61208 2.5515,-5.9535 -10.78095,1.04782 -21.13069,15.29029 -28.91363,23.81059 -18.0765,19.79201 -41.63366,43.86881 -59.52731,62.92935 27.1437,-28.98248 51.33022,-60.92216 81.63776,-86.74249 0.12413,-3.18086 -7.75057,-1.17877 -4.2525,-5.10214 h -5.95264 c 0.99255,-2.40948 1.17964,-5.6235 3.402,-6.80317 -0.19312,-1.22471 -2.53788,-0.29775 -2.5515,-1.701 1.17964,-2.78794 3.77367,-4.16404 5.10214,-6.80314 -23.13615,11.16281 -44.8698,23.72726 -65.47999,37.41604 -0.56898,-2.742 3.51855,-2.62804 5.95268,-4.25078 16.03275,-10.69421 37.39732,-24.32857 56.12617,-33.16526 -0.34275,-1.64231 -3.89445,-0.0739 -2.5515,-3.402 h -5.95263 c 1.43223,-4.56461 -0.35813,-7.11697 4.2525,-8.50414 -0.0113,-1.68993 -2.32103,-1.08097 -1.701,-3.402 2.00463,-0.26362 1.58193,-2.9538 4.2525,-2.5515 -17.35448,0.69147 -41.94923,6.83715 -60.37785,11.90528 -1.63553,0.36075 -3.06863,-0.58343 -1.701,-0.8505 18.79263,-4.73558 37.70692,-9.34781 57.82635,-12.75664 -0.36225,-1.62191 -2.42989,-1.53941 -1.701,-4.25164 3.87487,-0.4848 0.38951,-4.54166 5.95008,-4.2525 z M 421.11371,227.8788 c 8.7729,3.13665 22.22018,8.95834 31.46509,14.45681 -9.19474,-2.71564 -21.28714,-9.89389 -31.46764,-14.45681 z m 246.6195,13.60631 c 7.93943,-6.23332 18.46181,-9.88451 28.06309,-14.45681 -8.53901,5.6397 -18.60893,9.74587 -28.0665,14.45681 z m 5.94499,7.65364 c 1.07077,0.21 0.85901,1.6908 0,1.701 -0.14288,1.84387 3.01759,0.38527 4.25167,0.8505 0.27113,1.97231 -0.13537,3.26509 -0.84967,4.2525 12.36799,-3.22253 28.75541,-2.4273 42.51904,-4.2525 h 5.103 c -0.26363,1.15327 -2.12963,0.70594 -3.402,0.8505 -14.34709,1.52666 -29.62887,2.11946 -43.37037,4.2525 -1.56239,0.98827 -0.5877,4.51275 -4.25167,3.402 0.70763,1.26469 7.34066,3.79155 2.5515,5.10217 2.3091,1.66017 3.52616,4.41154 5.10217,6.80314 0.29775,3.41475 -3.99225,2.24276 -5.10217,4.2525 3.22256,4.03988 3.12728,6.17209 5.95267,10.20514 h -2.5515 c 1.26638,1.00106 2.40094,2.13476 3.402,3.402 -3.06011,1.47476 -4.82066,4.25081 -9.35467,4.25167 23.60306,13.5306 47.70626,26.56197 71.43266,39.96754 0.0536,2.60336 -11.27595,-5.43555 -15.30645,-7.65281 -17.01172,-9.3606 -36.15221,-20.46131 -54.42521,-28.06309 -0.58005,-1.68825 -2.58979,-1.94595 -3.402,-3.402 -1.00613,1.33868 2.86279,5.03753 5.103,5.95264 0.25688,2.24107 -1.17795,2.79135 -3.402,2.5515 2.15685,1.52835 4.01775,3.35269 3.402,7.65367 -5.27651,-0.62002 -4.392,0.49838 -5.103,3.402 -2.09648,0.11213 -4.09601,0.12751 -5.10214,-0.8505 25.92495,26.23283 53.35695,50.95684 76.53563,79.9368 2.23852,0.87855 2.86365,3.37223 5.10217,4.25078 1.79198,3.51172 -1.11843,-0.3225 -2.5515,-0.8505 -14.78171,-16.96492 -31.32052,-32.17526 -45.92107,-49.32218 -11.06839,-8.4897 -20.13728,-18.97979 -29.76323,-28.91276 -2.89083,-2.17132 -6.15082,0.0967 -8.50414,-3.402 -1.47648,0.45161 0.92532,4.09601 0.8505,5.95264 -2.60426,-1.15073 -4.08667,-6.76485 -3.40199,-8.50414 2.31333,1.08866 4.14787,2.65613 6.80313,3.402 -0.32137,-3.4224 -0.54517,-2.08882 -1.70013,-5.103 2.63992,-0.0885 2.42729,2.67566 5.95263,1.701 2.31334,-0.77734 -2.26489,-1.58107 -0.8505,-4.2525 2.05991,1.39399 4.13085,2.16536 6.80314,0.8505 -0.015,-3.66904 -4.23548,-3.13492 -4.2525,-6.80314 h 4.2525 c -2.68841,-2.98016 -6.23588,-5.103 -7.65364,-9.35463 h 6.80314 c 2.25724,-1.97573 -2.25638,-2.27682 0,-4.2525 2.69014,-0.1395 2.84321,2.25975 5.95267,1.701 0.0484,-2.04803 -6.51825,-5.1753 -0.8505,-5.10218 -1.08187,-3.03967 -2.77436,-2.23852 -5.95267,-1.701 -0.76118,-2.74627 2.77433,-1.19494 3.40117,-2.5515 -0.17775,-3.50745 -4.18106,-3.18851 -5.10217,-5.95264 1.67464,-1.16092 4.85891,-0.81225 6.80317,-1.701 -3.93697,-5.03838 -0.87348,-6.60585 -5.10217,-6.80313 -2.80238,-1.26728 1.44585,-2.40098 1.701,-3.402 -0.54263,-1.72485 -3.97609,-0.55965 -4.2525,-2.5515 -0.76117,-2.74628 2.77519,-1.19498 3.402,-2.5515 -0.13613,-0.99679 -1.54961,-0.717 -2.5515,-0.8505 0.94575,-1.88899 3.36544,-2.30318 4.2525,-4.25168 -1.31659,-2.68927 -5.10469,1.06481 -5.95264,-0.8505 0.24675,-1.73077 2.29635,-1.66444 2.54299,-3.39859 z m -9.34699,-2.55064 c 0.57409,2.35249 4.46171,-2.36779 3.40114,2.5515 1.67464,-1.16092 4.85722,-0.81221 6.80317,-1.701 -0.81225,3.43943 -6.14317,2.361 -9.35467,3.402 -0.23813,-1.37355 0.80374,-1.4637 0.8505,-2.5515 -2.37203,0.74505 -4.19978,2.0361 -6.80314,2.5515 -2.2734,-3.80002 5.2578,-4.09687 6.80314,-6.80314 2.10926,0.34538 0.051,3.29569 -1.701,2.55064 z m 3.402,13.60631 c 0.14363,-1.84391 -3.01672,-0.38527 -4.25164,-0.8505 1.62188,-1.7376 3.69285,-1.70613 5.95264,-0.8505 -2.0616,4.1283 -2.35759,2.97248 0,6.80314 -2.61701,-0.63364 -1.63466,2.33464 -4.2525,1.701 -0.33675,2.03779 3.87488,-0.47201 2.5515,2.5515 h -4.25164 c 0.13763,-0.98914 -0.18787,-1.51305 -0.8505,-1.701 1.28168,-1.55389 3.66818,-2.00122 5.10214,-3.402 -0.85474,-2.07184 -3.76005,1.66613 -3.40114,-2.5515 2.67057,0.97808 2.0667,-1.33189 3.402,-1.69759 z m -17.8605,53.57809 c -4.05772,-0.93896 -1.90684,4.32904 -4.2525,5.103 -2.53365,-0.0187 -5.18126,0.0791 -5.10131,-2.5515 -1.22471,0.19238 -0.29775,2.53703 -1.701,2.5515 -2.73263,0.18038 -2.07098,-3.03289 -3.40114,-4.2525 -0.95426,5.18464 -4.12661,3.10601 -5.10214,8.50414 -1.22047,-1.33189 -4.43366,-0.6702 -4.2525,-3.402 -1.67039,2.04547 -4.24994,1.9587 -5.10217,-0.8505 -0.99251,1.27575 -2.45708,2.07862 -2.5515,4.2525 -3.37819,-0.97466 -7.31854,-4.19126 -9.35464,-0.8505 -1.1286,-0.6387 -0.43459,-6.61346 2.55064,-5.95264 -0.70166,2.40353 1.19921,2.20279 0.8505,4.25164 2.46052,-0.14438 3.87829,-3.46916 4.2525,0.8505 2.81857,-0.0188 0.86411,-4.80615 2.5515,-5.95264 1.95277,1.16603 2.73435,3.50235 4.2525,5.10214 1.15245,-0.26363 0.70507,-2.1288 0.8505,-3.402 2.56342,0.55369 2.89511,3.33994 5.10217,4.2525 1.87789,-0.1065 0.3615,-3.60698 0.8505,-5.10214 1.52494,-0.108 1.79198,1.041 3.40114,0.8505 0.70166,-2.40352 -1.19835,-2.20279 -0.8505,-4.25164 4.67861,0.90405 5.83781,1.9587 11.90614,4.25164 1.87792,-0.1065 0.36075,-3.60697 0.84881,-5.10214 1.52666,-0.108 1.7937,1.041 3.402,0.8505 0.348,-2.04888 -1.55216,-1.84815 -0.8505,-4.2525 2.16878,0.0934 1.68398,2.84067 1.701,5.103 z m 28.05799,-36.5715 c 23.00857,-0.89557 43.31002,8.28045 65.48085,11.05564 -21.05839,-1.0461 -42.36341,-9.21941 -65.47999,-11.0565 z m -20.40349,41.6745 c 3.17153,0.79778 2.4435,5.49251 3.40114,8.50414 -2.13473,-1.479 -4.68454,0.83689 -5.95264,-2.5515 -1.92127,0.47629 1.03249,1.32679 -0.8505,2.5515 -1.77754,0.36075 -2.25041,-0.58343 -3.40114,-0.8505 0.13688,-0.99679 1.54958,-0.71865 2.55064,-0.85046 0.13875,-0.98914 -0.18787,-1.51305 -0.8505,-1.701 0.53498,-2.06929 4.29844,-0.44996 3.402,1.701 h 4.25164 c -0.40823,-2.71313 -2.67908,-3.56363 -2.5515,-6.80404 z M 472.9857,328.2225 c -3.35775,12.19279 -10.72819,23.58525 -17.00828,34.8654 -18.67612,33.54881 -36.22533,70.63316 -55.27571,104.59448 22.23038,-44.94042 46.7001,-95.02636 72.28571,-139.45647 z m -91.83698,7.6545 c 0.0225,-0.82751 1.04187,-0.65914 1.701,-0.8505 -3.64695,3.44029 -9.09015,5.08346 -13.60631,7.6545 -1.51984,0.23888 -1.74521,-0.8037 -0.8505,-0.8505 5.02223,-1.2162 8.07296,-4.39706 12.75581,-5.9535 z m 271.27549,-78.23407 c -1.00444,-3.83918 3.77025,-1.90088 2.5515,-5.95268 h 3.40114 c -0.93555,3.0363 -2.9172,5.0205 -5.9535,5.95268 z" />
  <path
     inkscape:connector-curvature="0"
     id="Zunge_1_"
     d="m 636.26385,232.98184 c -1.28936,-5.5674 -1.78095,0.74077 -2.5515,0.8505 -1.43224,0.20325 -0.18975,-2.2683 -0.8505,-2.5515 -1.06313,-0.45589 -0.73313,2.56511 -0.8505,2.5515 -1.39823,-0.16763 -0.10725,-2.23257 -0.84964,-2.5515 -1.18729,-0.50775 -0.52477,2.51831 -0.8505,2.5515 -1.57001,0.159 -1.74525,-5.51209 -1.701,0 -1.15414,-0.26363 -0.70507,-2.12966 -0.8505,-3.402 -1.3659,-1.44758 -3.34586,2.53871 -3.40114,2.5515 -1.38292,0.30862 -0.25012,-2.2938 -0.8505,-2.5515 -0.91687,-0.3921 -0.94237,2.52513 -0.8505,2.5515 -1.36252,-0.39297 -0.015,-2.0055 -0.8505,-2.5515 -1.07846,-0.70253 -4.54507,1.63721 -7.6545,1.701 2.79049,-0.057 -4.93207,-0.2805 -1.701,0 -6.53527,-0.56644 -15.62201,0.7365 -22.96012,11.05563 1.2936,-17.98466 36.04166,-9.87854 51.02408,-17.00831 v 4.25168 c -0.71446,2.70116 -1.12099,-1.50882 -0.8505,-2.5515 -0.91857,1.90935 -4.08241,1.5768 -3.39353,5.103 z"
     style="fill:#ed2939;fill-opacity:1" />
  <path
     inkscape:connector-curvature="0"
     id="Zunge"
     d="m 531.66937,242.33561 c -13.44386,-12.8604 -26.68616,-9.63701 -34.86626,-11.05564 -0.99679,0.13763 -0.71782,1.55048 -0.8505,2.5515 -1.49434,-2.11177 -1.55554,-1.39057 -2.5515,0.8505 -1.51474,-0.62343 -0.12412,-1.5462 0,-2.55149 -1.81496,-0.3972 -1.62019,1.21537 -1.701,2.55149 -1.22043,-1.00529 -1.61167,-4.5102 -1.701,0 -0.99678,-0.13687 -0.71782,-1.55047 -0.8505,-2.55149 -0.99678,0.13762 -0.71696,1.55047 -0.8505,2.55149 h -5.10213 v -2.55149 c -0.82838,0.0225 -0.66,1.04099 -0.8505,1.70099 -1.57429,-0.12825 -0.52223,-2.87977 -1.701,-3.402 -1.26214,0.37163 0.336,1.08863 0,2.5515 -3.98884,0.204 1.04951,-7.737 -1.701,-5.95263 -2.46304,-0.47629 1.30466,-1.32679 0.8505,-2.5515 1.85917,0.12412 1.82516,2.14323 1.701,4.2525 1.8762,3.59418 4.6905,1.70865 7.65363,1.701 16.32109,-0.0442 36.4014,-2.01911 42.525,11.90527 z"
     style="fill:#ed2939;fill-opacity:1" />
  <path
     style="fill:#fbc206"
     inkscape:connector-curvature="0"
     id="Schnabel_1_"
     d="m 529.96838,243.18611 c -2.26999,2.19432 1.95697,0.89475 0.85049,4.25168 1.62105,-1.59555 1.53942,0.5052 4.2525,0 -1.10737,-10.7988 -10.03421,-13.77641 -15.30731,-20.40945 7.04471,2.76836 7.74379,6.67556 13.60631,10.20427 -0.44565,3.68524 3.42923,6.12956 4.25164,9.35468 -1.50112,1.95187 -3.5619,2.73435 -3.402,4.25164 -8.7729,-7.12294 -14.65837,-15.98344 -25.51159,-11.05482 0.21001,-0.92362 1.68994,-0.57663 1.701,-1.701 -5.68305,2.21558 -8.1078,7.58138 -17.00745,2.5515 9.10204,-3.5151 23.28585,-6.60498 32.31473,-0.8505 0.88455,2.83133 -0.102,2.21217 4.2525,3.402 z m -13.60801,-30.61372 c 0.31313,1.44667 -0.66341,1.60489 -1.701,1.701 0.0225,0.82751 1.041,0.65996 1.701,0.8505 -0.44992,0.68377 -0.88706,1.3812 -0.8505,2.5515 -1.77753,0.36075 -2.25127,-0.5826 -3.40199,-0.8505 0.62257,-1.51474 1.54533,-0.12338 2.55149,0 -1.30125,-1.22048 -0.83351,-4.43366 1.701,-4.2525 z m -4.25249,4.25164 c 2.44859,0.95257 0.57918,6.22395 3.40199,6.80313 -7.03023,4.77642 -13.11472,-1.3914 -16.15781,-2.5515 -3.52871,-1.34463 -6.26989,-0.25275 -8.50414,-2.5515 -0.57581,1.68315 -3.86212,2.70289 -4.25167,0 -1.92806,0.83607 1.45946,4.2576 -2.5515,4.2525 -5.10045,-12.67923 9.51457,-15.03513 18.70931,-11.05563 -0.81649,1.7316 3.29145,7.74806 9.3555,5.103 z" />
  <path
     style="fill:#fbc206"
     inkscape:connector-curvature="0"
     id="Schnabel"
     d="m 632.86185,214.27252 c -0.21,-0.9228 -1.68994,-0.57663 -1.70014,-1.70099 -1.62446,1.77753 -2.74372,4.06027 -3.402,6.80313 -6.4638,-1.52494 -13.05349,7.79059 -21.26081,4.2525 0.97894,1.58704 -3.04905,3.32633 -5.95264,2.5515 0.94999,1.04614 0.74078,1.74608 -0.8505,1.701 3.96844,-4.05517 3.39859,-5.8659 10.20514,-6.80313 -0.19312,-1.0827 -2.53702,-1.11417 -2.5515,0 -0.82751,-0.0225 -0.65827,-1.041 -0.8505,-1.70101 v -1.701 c 3.08479,3.57211 0.76886,-2.98526 -1.70014,-1.70099 0.37677,-1.60744 -1.15582,-5.12513 1.70014,-4.25251 -2.10585,2.09307 2.41204,1.90426 1.701,5.103 1.76141,0.50603 5.58611,-1.05123 5.95268,0.8505 1.69672,-0.85477 1.34208,-3.76008 4.25249,-3.402 -1.59641,-1.62191 0.5052,-1.53855 0,-4.25167 6.63983,-2.25041 21.89524,-2.58465 17.85796,11.05481 -3.14603,-0.25425 -3.06012,-3.74306 -7.65282,-2.5515 1.41184,-1.42714 0.6804,-4.99159 4.2525,-4.25164 z m -39.11449,16.15778 c 2.11519,-0.80201 0.24938,4.86743 0,1.70104 -3.18172,3.90379 -6.31155,7.86116 -8.50414,12.75577 3.91313,3.43774 -1.11075,1.63384 0.8505,5.103 4.47788,-9.12926 12.30503,-14.90842 26.36209,-14.45677 -0.4482,0.68377 -0.88706,1.38034 -0.8505,2.55146 4.46003,-4.76531 9.71441,2.16199 16.15864,0.8505 -0.55196,0.86498 -1.95615,0.87945 -1.701,2.5515 -4.16235,0.41164 -4.12493,-3.29141 -5.95264,0.85054 -1.60744,-0.0945 -0.58939,-2.81179 -2.5515,-2.55154 -2.89425,0.9075 2.3661,0.26437 0.8505,2.55154 -0.68464,-0.44993 -1.3812,-0.8871 -2.5515,-0.85054 -0.70166,-2.40349 1.19835,-2.20279 0.8505,-4.2525 -0.77396,3.58147 -7.63834,2.55405 -8.50414,-0.8505 -6.88567,3.26085 -16.2267,2.16709 -19.55895,14.45681 -10.46966,-4.02712 1.66699,-16.71487 5.103,-20.41031 z" />
  <path
     style="fill:#fbc206"
     inkscape:connector-curvature="0"
     id="Kralle_Rechts"
     d="m 649.87185,482.14601 c 1.04017,-2.57449 3.24465,0.60131 4.25167,0.85046 -1.61257,1.5054 -5.44406,0.79099 -6.80317,2.55154 3.83662,2.04968 -2.80579,0.97808 -0.8505,5.95178 -4.50765,-5.50272 4.38007,-10.07839 3.402,-9.3555 z m 50.17102,12.7575 c -1.79797,2.82537 -2.46817,-2.55322 -5.10217,-1.701 2.37375,2.44519 6.00877,3.62993 5.95267,8.50328 -2.05226,-3.33225 -7.15271,-3.618 -7.65367,-8.50328 2.62804,-2.37289 5.19656,0.45926 6.804,1.701 z M 666.03135,515.307 c -3.52616,3.03626 -6.94688,4.57144 -11.05477,1.701 4.44127,-0.66083 7.51158,-2.69269 9.35463,-5.95181 1.92214,2.46645 -2.9172,4.49066 1.701,4.2525 z m -36.5715,-85.88348 c 0.98317,2.94867 -0.39971,1.56661 2.55068,2.55151 -0.93897,4.30095 9.09097,8.91236 5.10299,11.05477 0.84709,1.13629 2.29718,1.66954 2.55064,3.402 2.27509,0.25088 -2.25978,-3.29906 1.701,-2.5515 -0.29775,4.83086 2.60423,6.46721 5.10132,8.50331 -2.43075,1.32424 -0.51713,1.67801 -0.8505,5.103 0.79518,-0.62257 1.28932,-1.5462 1.701,-2.5515 0.68295,2.12794 0.90832,3.32205 4.25163,4.2525 0.72889,2.71223 -1.33698,2.62973 -1.70014,4.25078 5.60224,-2.0718 0.35213,2.36523 6.80314,1.701 -1.18219,3.85533 3.44535,4.26101 2.55064,9.3555 2.34484,-2.0463 5.87528,-1.31569 5.103,2.54981 5.71027,-1.24088 10.23323,9.12926 11.90531,11.90531 3.17832,5.28075 7.59581,10.41863 6.80314,16.15778 5.45002,4.20915 4.2678,9.81052 5.95267,12.75581 -3.11711,-0.68295 -5.15744,-4.15639 -2.55149,-5.95181 -2.02591,2.10498 -1.39654,-2.20958 -5.10218,-0.8505 1.63721,3.30761 -1.97486,3.48195 -0.8505,5.10131 0.14362,1.8456 -3.01586,0.38527 -4.25164,0.8505 -0.72124,-2.0412 -0.5469,-2.25041 -0.8505,-5.95181 1.37355,0.23887 1.46539,-0.8037 2.55064,-0.8505 -0.0611,-3.6231 -1.42204,-5.9484 -0.84964,-10.20428 -1.63639,2.51321 -3.10095,7.53289 -7.65363,9.35378 1.29359,2.45028 -0.0263,2.65953 0.85049,5.95181 -2.68844,-1.79029 -0.15974,1.12013 -2.55149,2.5515 -0.0878,-1.69249 -0.42525,-7.23266 -1.701,-10.20431 -0.95854,2.15943 -4.27039,1.96552 -5.10218,4.2525 -2.57021,-1.28764 0.70508,-3.73283 0,-5.9535 4.58336,1.18136 3.56359,-3.24038 7.65368,-2.5515 1.644,-5.08767 2.33883,-9.93042 0,-12.75578 -0.58261,-0.70252 -3.00908,0.5052 -2.5515,0.8505 -7.15358,-5.39389 -6.58459,-4.51785 -10.20432,0.8505 -1.0053,-0.97807 -3.00483,-0.96191 -5.10213,-0.8505 0.0697,-3.44197 4.64711,-5.57674 6.80313,-4.25081 0.74164,-3.29396 -3.71242,-1.39058 -2.5515,-5.103 3.60525,0.369 7.08379,2.33209 11.05482,5.103 -0.37238,-5.29778 -7.22757,-4.11131 -7.65368,-9.3555 0.92366,0.21075 0.57836,1.6908 1.701,1.701 2.17474,0.11475 -3.31777,-5.77744 -2.55064,-1.701 -3.82129,-9.14625 -15.38981,-17.33745 -23.81145,-24.66109 1.18984,4.56461 11.79642,11.75561 18.70845,17.85878 -10.89746,-4.1283 -19.82347,-17.59343 -28.9119,-26.36209 -1.83877,1.89577 2.09989,5.2272 2.55064,7.65281 -5.90587,0.51964 -4.62502,-6.14659 -10.20514,-5.95181 -0.19125,-2.67908 0.57409,-6.24435 2.5515,-4.2525 -0.25012,-1.98506 -2.30145,-1.98506 -2.5515,0 -2.67738,0.40995 -0.63701,-3.89869 -2.5515,-4.2525 2.54385,-0.8139 6.4842,4.2678 7.6545,7.6545 0.92363,-0.21075 0.5775,-1.6908 1.701,-1.701 -0.0113,-2.38736 -2.32102,2.02504 -1.701,-1.701 1.93489,-1.83536 3.29483,1.70272 5.10214,2.5515 0.68468,-0.44993 1.38038,-0.88706 2.5515,-0.8505 -2.94019,-0.60979 1.34381,-7.9581 -3.402,-8.505 1.05803,-1.26555 4.34265,2.42565 5.9535,-0.84878 -0.16162,-0.96705 -0.85474,-0.47373 -0.8505,0 -2.1084,-1.86176 -1.91021,-6.02666 -5.103,-6.804 1.78605,-3.07882 1.47139,2.95973 4.24403,1.701 z m 47.61952,95.23898 c 3.56697,1.94678 5.69749,-8.77886 10.20428,-5.9535 -3.9174,2.60167 -5.71961,7.3194 -11.90528,7.6545 2.64589,-3.87401 5.13019,-7.90879 7.65364,-11.90531 0.8658,0.55113 0.87855,1.95532 2.55064,1.69931 -3.51255,2.16026 -4.68626,6.6594 -8.505,8.505 z m 17.8605,-35.71249 c 0.30375,3.1392 -2.11436,3.55508 -4.25167,4.2525 0.31537,4.13426 1.98675,1.98506 3.40117,4.2525 1.05034,2.75051 -2.75055,0.64977 -1.701,3.402 -4.8351,-2.27085 -7.60263,-2.41714 -11.05481,-6.804 5.01795,-0.6549 6.28519,-4.94992 13.608,-5.103 z" />
  <path
     style="fill:#fbc206"
     inkscape:connector-curvature="0"
     id="Kralle_Links"
     d="m 441.52489,521.26901 c 0.73991,-1.23236 1.41183,-2.36355 1.8966,-3.33397 1.26637,0.9951 2.75478,2.39074 4.9074,2.48347 -0.61238,2.59489 0.86748,3.09664 0.8505,5.10296 -2.85769,-0.26437 -3.39353,-2.84913 -4.2525,-5.10296 -2.526,1.76052 1.20768,4.38859 2.5515,5.10296 -2.26234,2.20283 -4.24403,-3.0873 -5.9535,-4.25246 z m 39.11448,-33.1695 c -1.21365,-2.47159 -6.08448,-1.28595 -6.80317,-4.2525 2.90872,0.62085 5.66434,0.255 6.804,4.2525 z m 0,0.85046 c -0.25762,-0.075 -9.40653,1.50627 -8.50417,-2.54977 4.30354,-0.61238 6.4383,0.93555 8.505,2.5515 z m 11.0565,-53.57298 c 0.83434,1.1499 2.26913,1.701 3.402,2.5515 1.52494,0.108 1.79284,-1.04014 3.402,-0.8505 0.3105,-0.77734 -2.97847,3.57465 -0.8505,7.6545 h -1.701 c 1.40843,3.23617 5.59204,-2.18745 5.95264,0 0.49669,-0.90664 0.86325,-2.57955 1.701,-5.10297 2.66546,1.08945 -1.85239,4.04835 1.701,4.2525 2.15434,-4.6497 7.04385,-6.56332 8.50414,-11.90531 0.55114,3.98966 -5.92455,11.7828 -5.10214,16.15778 -0.78244,-1.99358 -5.47297,4.1598 -5.10214,-1.701 0.9228,0.20925 0.57664,1.6908 1.701,1.701 2.02249,-0.25088 -0.94492,-2.30228 -1.701,-2.55147 -2.38905,2.15599 -5.63797,7.98702 -10.20517,5.95178 -6.23498,5.43896 -11.84659,15.86524 -19.55978,17.00831 0.44993,0.68464 0.88707,1.38034 0.8505,2.5515 -3.15026,-0.43886 -2.139,-1.45012 -1.701,1.701 -3.89445,0.47543 -1.54792,2.78539 -5.9535,3.40028 0.72803,2.71395 -1.33785,2.63145 -1.701,4.2525 3.90889,-0.66083 -1.18391,1.13797 -1.701,5.103 -2.19431,-2.27082 -0.89471,1.95701 -4.2525,0.8505 1.79457,0.75611 1.47645,3.62486 4.2525,3.40031 -4.22103,-2.12456 5.38197,-6.88054 2.5515,-5.95181 0.84795,2.61956 2.2989,-0.9483 2.5515,-1.701 h 5.10214 c -1.22895,1.60492 -1.89915,3.76942 -5.10214,3.402 v 2.5515 c 1.00275,0.5103 5.77744,0.55113 5.95264,4.25081 -1.69417,-1.77244 -2.97761,0.62595 -4.25164,1.701 -2.66546,0.39889 -2.39756,-2.13818 -3.402,-3.402 -3.78472,-0.0832 -7.05405,2.68927 -10.20431,0.8505 1.69504,3.05329 -1.25704,2.94529 -2.5515,5.103 1.33699,3.10942 1.27065,-1.97486 3.402,-0.8505 -0.0113,1.68907 -2.32099,1.08098 -1.701,3.402 0.86498,-0.55283 0.87941,-1.95532 2.5515,-1.701 -1.31827,1.51474 -2.33801,3.33056 -3.402,5.10127 5.1702,3.75754 5.52911,5.41178 11.90531,5.103 -1.26641,1.77927 0.84964,3.1962 0.8505,4.2525 -0.0112,2.38568 -2.32102,-2.02503 -1.701,1.701 -1.07842,-2.67903 -2.87385,0.67617 -2.5515,-3.402 -2.71308,-0.72884 -2.63058,1.33872 -4.2525,1.701 1.32083,4.03819 -1.52156,3.46328 0.8505,7.65282 -2.52427,-4.94142 -10.80986,-12.87402 -8.50417,-17.00832 -0.16163,-0.68887 -0.85305,-0.84708 -0.8505,-1.69927 -1.52494,-0.108 -1.7937,1.04014 -3.402,0.84877 3.6291,1.41357 -1.07843,4.86743 2.5515,5.103 -1.84984,1.73761 -3.20891,1.87879 -3.402,4.2525 1.27575,0.99169 2.07949,2.45543 4.25167,2.5515 0.015,1.24429 -3.58657,2.69442 0,2.54982 -1.57511,1.63976 -1.55812,0.67275 -0.8505,3.402 -2.43498,0.16762 -4.64118,0.1065 -4.2525,-2.5515 -0.68977,0.16162 -0.84795,0.85391 -1.701,0.8505 1.27575,0.99337 2.07945,2.45711 4.2525,2.5515 -0.61406,2.5983 0.86836,3.10009 0.8505,5.103 -2.85345,-0.2655 -3.3918,-2.84576 -4.2525,-5.103 -2.52003,1.76055 1.21279,4.39027 2.5515,5.103 -2.26147,2.20451 -4.24571,-3.08306 -5.95267,-4.2525 2.93426,-4.93035 4.86146,-8.11973 -1.701,-6.80232 2.52176,-6.93153 1.90684,-10.42882 5.95268,-14.45677 -2.80665,-3.18086 1.69845,-9.61151 5.10213,-10.206 -0.49923,-5.4585 9.11483,-7.7889 11.05564,-13.60631 1.44671,-0.312 1.60493,0.66424 1.701,1.701 2.8092,-2.03524 0.79777,-6.95708 4.25168,-5.10132 -0.11213,-2.09647 -0.12863,-4.0977 0.85049,-5.10299 0.99679,0.13762 0.71697,1.54965 0.8505,2.55149 1.79198,-1.99016 -1.22643,-5.40832 3.402,-3.40199 -0.94064,-2.64758 -0.54941,-3.03968 1.701,-1.70101 -0.0457,-4.29416 4.5774,-5.54609 3.402,-8.50327 0.68892,0.16087 0.84795,0.85219 1.701,0.8505 -0.98572,-4.11131 2.42138,-3.69116 0.8505,-5.9535 1.79457,-1.5003 1.47645,-2.9538 4.2525,-1.701 1.34805,-0.6183 -2.43667,-3.9897 1.701,-1.69931 1.0308,-0.49159 -0.55455,-3.21233 0.8505,-5.103 -0.82755,0.0225 -0.66,1.04017 -0.8505,1.701 -1.11671,-4.25419 5.53163,-8.06186 6.80314,-12.75578 4.51444,0.57323 8.90134,-10.51132 5.95264,-2.5515 -2.2368,1.16434 -3.22339,3.57975 -5.95264,4.2525 0.37088,1.26042 1.08694,-0.336 2.5515,0 -0.1275,1.85408 -2.14324,1.82006 -4.2525,1.701 z m -23.814,43.36698 c 2.16027,-3.50827 5.78085,-5.55798 8.50414,-8.50327 -0.41674,1.8711 -5.09449,6.79549 -8.505,8.505 z m 16.1595,-15.30896 c 5.4687,-7.65791 12.11025,-9.86752 20.40945,-13.60631 -2.85768,4.09943 -14.97731,7.20375 -20.412,13.608 z m -52.72248,31.46847 c 1.93743,3.70904 -4.27973,5.66775 -5.95268,8.50331 -0.47201,-1.9221 2.49878,-7.68852 5.95268,-8.505 z m 29.75898,17.86053 c 1.78943,-0.90067 5.21355,3.82894 7.65364,5.10128 -2.85341,2.79731 -4.41409,-2.91379 -6.80314,-3.40032 1.2681,3.39863 5.0511,6.42556 9.35464,4.25082 -4.66924,5.36666 -12.21319,-1.66699 -10.206,-5.9535 z m -22.10535,-17.01 c 1.0053,-0.97976 3.00567,-0.96364 5.10214,-0.8505 -0.28387,3.01163 -2.33887,2.09138 -0.8505,5.103 -2.94952,-1.86345 -1.5666,-1.7529 -2.5515,0.85047 -1.50877,-0.26625 -3.0771,0.46353 -7.65364,1.69931 -0.0225,-0.82583 -1.041,-0.65914 -1.701,-0.8505 -1.21961,-4.33755 2.60168,-3.63248 3.402,-5.95178 -0.26362,-1.15414 -2.1288,-0.70593 -3.402,-0.8505 -0.3972,-4.11131 4.10708,-3.82556 5.103,-4.2525 0.83265,1.81155 0.36413,3.16384 2.5515,5.103 z" />
  <path
     inkscape:connector-curvature="0"
     id="Wappenschild"
     d="m 515.7225,311.2125 v 76.55351 c 0,28.17709 20.93933,51.02149 46.7775,51.02149 25.82966,0 46.7775,-22.8444 46.7775,-51.02149 V 311.2125 h -93.555 z"
     style="fill:#ed2939;fill-opacity:1" />
  <path
     style="fill:#ffffff"
     inkscape:connector-curvature="0"
     id="Bindenschild"
     d="m 515.71399,352.1811 v 35.58491 c 0,2.25383 0.16162,4.46513 0.42525,6.64242 h 92.73 c 0.0187,-0.17026 0.0338,-0.3315 0.051,-0.50179 V 352.1811 h -93.20629 z" />
  <path
     inkscape:connector-curvature="0"
     id="path2941"
     style="fill:none;stroke:#000000;stroke-width:0.85049999;stroke-miterlimit:4;stroke-dasharray:none"
     d="m 515.7225,311.2125 v 76.55351 c 0,28.17709 20.93933,51.02149 46.7775,51.02149 25.82966,0 46.7775,-22.8444 46.7775,-51.02149 V 311.2125 h -93.555 z"
     stroke-miterlimit="4" />
</svg>
