<svg xmlns="http://www.w3.org/2000/svg" height="513" width="900" fill-rule="evenodd" image-rendering="optimizeQuality" shape-rendering="geometricPrecision" text-rendering="geometricPrecision"><path d="M 0,0 H 900 V 513 H 0 Z" fill="#da251d"/><path d="M 0,171 H 900 V 513 H 0 Z"/><path d="m 360.75,300 h 160.5 v 10.5 h -160.5 z" fill="#ffd400"/><path d="m 518.25,292.5 31.5,-30 -34.5,15 25.5,-36 -34.5,12 15,-36 -33,18 9,-36 -30,25.5 1.5,-36 -16.5,31.5 -10.5,-36 -12,36 -16.5,-31.5 1.5,36 -28.5,-25.5 7.5,36 -33,-18 16.5,36 -34.5,-12 25.5,36 -36,-13.5 31.5,28.5 z" fill="#ffd400"/><path d="M 0,342 H 900 V 513 H 0 Z" fill="#009a3f"/></svg>