<svg xmlns="http://www.w3.org/2000/svg" width="900" height="640"><g transform="matrix(1.7892644,0,0,1.7892644,0,-4.135184)"><path d="M 251,2.3111084 H 0 V 181.15555 360 h 251 c 0,0 147.666,-5.63062 252,-178.84445 C 398.666,7.9417277 251,2.3111084 251,2.3111084 Z" fill="#aa1e13"/><g transform="matrix(0.99738793,0,0,0.99738793,0.04197561,0.26047001)"><path d="m 306.967,297.536 c -6,0.214 -19.75,0.464 -24,1.714 0,0 -5.5,-2.25 -9.5,-2.5 0,0 -19.75,-24.75 -22.5,-38.75 h -6.5 l -2,5.5 c 0,0 16.875,32.875 24.875,39.875 8,7 -3.438,6.688 -4.688,10.438 -0.174,0.521 -0.168,1.074 -0.018,1.617 -2.547,3.204 0.205,9.32 0.205,9.32 1.523,-2.249 3.338,-4.45 4.596,-5.906 2.611,0.221 5.957,-1.003 9.248,-5.063 0,0 10.516,4.484 11.016,11.234 0.24,3.244 2.505,5.49 4.846,6.38 1.215,1.432 2.782,3.375 4.123,5.354 0,0 1.762,-3.925 1.158,-7.136 0.052,-0.194 0.109,-0.384 0.131,-0.606 0.5,-5.25 -2.496,-14.254 -9.496,-14.254 0,0 2.608,-4.252 9.555,-1.502 6.063,2.4 7.598,10.702 11.879,11.778 0.914,1.136 1.893,2.419 2.773,3.72 0,0 1.412,-3.141 1.281,-6.102 1.139,-5.456 -5.623,-18.034 -15.234,-16.398 0,0 -1.5,-3 3,-3.25 4.5,-0.25 13.25,8.75 16,5.5 2.75,-3.25 -4.75,-11.177 -10.75,-10.963 z" fill="#2b2923"/><path d="m 107.317,297.536 c 6,0.214 19.75,0.464 24,1.714 0,0 5.5,-2.25 9.5,-2.5 0,0 19.75,-24.75 22.5,-38.75 h 6.5 l 2,5.5 c 0,0 -16.875,32.875 -24.875,39.875 -8,7 3.438,6.688 4.688,10.438 0.174,0.521 0.167,1.074 0.018,1.617 2.547,3.204 -0.205,9.32 -0.205,9.32 -1.523,-2.249 -3.337,-4.45 -4.595,-5.906 -2.612,0.221 -5.958,-1.003 -9.249,-5.063 0,0 -10.516,4.484 -11.016,11.234 -0.24,3.244 -2.505,5.49 -4.846,6.38 -1.214,1.432 -2.782,3.375 -4.123,5.354 0,0 -1.761,-3.925 -1.159,-7.136 -0.051,-0.194 -0.109,-0.384 -0.13,-0.606 -0.5,-5.25 2.496,-14.254 9.496,-14.254 0,0 -2.608,-4.252 -9.555,-1.502 -6.063,2.4 -7.598,10.702 -11.879,11.778 -0.913,1.136 -1.892,2.419 -2.773,3.72 0,0 -1.412,-3.141 -1.281,-6.102 -1.139,-5.456 5.624,-18.034 15.235,-16.398 0,0 1.5,-3 -3,-3.25 -4.5,-0.25 -13.25,8.75 -16,5.5 -2.75,-3.25 4.749,-11.177 10.749,-10.963 z" fill="#2b2923"/><path d="m 18.335,247.334 c 4.333,-4.666 42.021,-51.332 52.354,-69.666 10.333,-18.334 47.04,-86 91.373,-78 41.265,7.446 4.424,36.836 25.464,51.353 0.045,-11.987 2.687,-23.681 0.22,-32.231 -15.169,-52.572 -49.058,-54.403 -53.217,-49.916 -4.948,5.337 -12.619,9.951 -20.705,11.587 -8.086,1.637 -12.632,9.699 -12.632,9.699 -5.967,-12.822 13.691,-18.331 21.967,-22.046 8.276,-3.716 5.268,-5.402 5.268,-5.402 -4.667,2.985 -12.283,2.742 -21.748,6.697 C 97.214,73.365 92.712,87.54 92.712,87.54 81.259,73.023 97.336,60.333 97.336,60.333 c -4.624,-20.745 28.495,-25.15 31.872,-25.579 3.378,-0.428 15.033,-4.824 15.033,-4.824 2.343,1.058 1.341,3.734 1.341,3.734 4.067,0.367 11.352,-2.283 11.352,-2.283 0.303,5.72 8.045,7.584 8.045,7.584 20.121,8.218 31.803,23.808 38.474,37.459 4.319,-13.646 12.716,-28.936 28.969,-39.757 0,0 7.225,-3.333 6.386,-9 0,0 7.669,1.167 11.582,0 0,0 -1.512,-2.417 0.576,-3.917 0,0 12.295,2 15.691,1.75 3.396,-0.25 36.73,-2.5 36.313,18.75 0,0 18.275,9.25 9.929,25.75 0,0 -7.223,-13 -17.284,-15 -10.061,-2 -17.479,-0.25 -22.646,-2.25 0,0 -2.613,2.25 6.235,4.25 8.848,2 29.209,3.5 25.903,17.25 0,0 -6.055,-7 -14.305,-7 -8.25,0 -16.684,-3 -22.592,-7.25 -5.855,-4.213 -50.379,8.355 -41.902,91.432 22.354,-14.365 -15.662,-44.247 25.994,-51.764 44.334,-8 81,59.666 91.333,78 10.333,18.334 48,65 52.333,69.666 4.334,4.666 1.667,12 -8,9 -9.666,-3 -12.166,-10.834 -46.416,-50.084 -4.093,-4.69 -8.715,-8.39 -13.664,-11.276 7.526,11.23 22.97,34.267 24.664,36.714 2.25,3.25 5.25,12.156 -2.5,10.906 -6.129,-0.988 -31.015,-38.927 -41.16,-54.759 -1.395,-0.29 -2.797,-0.538 -4.201,-0.749 l 0.129,0.206 c 0,0 21.17,42.654 22.98,46.167 1.812,3.514 3.637,12.732 -3.887,10.492 -5.747,-1.711 -24.394,-39.863 -32.883,-57.794 -1.842,0.014 -3.67,0.081 -5.479,0.193 5.068,13.374 12.01,31.671 12.922,33.971 1.455,3.675 2.361,13.028 -4.904,10.058 -4.079,-1.669 -13.154,-23.622 -20.329,-42.557 -2.162,0.381 -4.261,0.813 -6.28,1.287 3.186,11.824 6.465,23.969 7,25.844 1.084,3.801 1.059,13.198 -5.877,9.521 -3.088,-1.637 -8.034,-16.274 -12.574,-32.012 -9.621,3.449 -15.243,7.312 -13.457,8.787 5.75,4.75 -0.5,29 3.217,34 3.717,5 0.533,16.5 7.533,14.25 7,-2.25 7.5,4 7.5,4 -3.5,-1.75 -4,3.5 -4,3.5 2.75,4.25 -1.749,6.5 -1.749,6.5 0,0 -7.749,-6.5 -7.249,2.75 0.5,9.25 -6.748,9.75 -6.748,9.75 -2.75,-2.5 1.004,-6.25 -3.496,-7 -4.5,-0.75 -5.242,-7.75 -7.742,-8.75 -2.5,-1 -4.48,2.75 -4.48,2.75 -1.746,-3.5 -1.723,-9.75 -3.723,-11.25 -2,-1.5 -2.938,2 -0.938,25.5 2,23.5 23.375,30.25 22.875,43.75 -0.5,13.5 -35.75,18 -35.75,18 0,0 -35.411,-4.5 -35.911,-18 -0.5,-13.5 20.714,-20.25 22.714,-43.75 2,-23.5 1.063,-27 -0.938,-25.5 -2.001,1.5 -1.978,7.75 -3.723,11.25 0,0 -1.98,-3.75 -4.48,-2.75 -2.5,1 -3.242,8 -7.742,8.75 -4.5,0.75 -0.746,4.5 -3.496,7 0,0 -7.248,-0.5 -6.748,-9.75 0.5,-9.25 -7.249,-2.75 -7.249,-2.75 0,0 -4.5,-2.25 -1.75,-6.5 0,0 -0.5,-5.25 -4,-3.5 0,0 0.5,-6.25 7.5,-4 7,2.25 3.815,-9.25 7.533,-14.25 3.718,-5 -2.533,-29.25 3.217,-34 1.786,-1.476 -3.836,-5.338 -13.458,-8.787 -4.54,15.737 -9.486,30.375 -12.574,32.012 -6.935,3.677 -6.961,-5.721 -5.876,-9.521 0.535,-1.875 3.814,-14.02 7,-25.844 -2.02,-0.474 -4.119,-0.906 -6.281,-1.287 -7.175,18.935 -16.25,40.888 -20.33,42.557 -7.266,2.971 -6.359,-6.383 -4.903,-10.058 0.911,-2.3 7.853,-20.597 12.921,-33.971 -1.809,-0.112 -3.637,-0.18 -5.478,-0.193 -8.49,17.931 -27.136,56.083 -32.883,57.794 -7.523,2.24 -5.699,-6.979 -3.888,-10.492 1.812,-3.513 22.98,-46.167 22.98,-46.167 l 0.129,-0.206 c -1.404,0.211 -2.805,0.459 -4.2,0.749 -10.146,15.832 -35.031,53.771 -41.16,54.759 -7.75,1.25 -4.749,-7.656 -2.499,-10.906 1.694,-2.447 17.139,-25.483 24.665,-36.714 -4.949,2.887 -9.568,6.586 -13.661,11.276 -34.25,39.25 -36.745,47.084 -46.411,50.084 -9.666,3 -12.321,-4.334 -7.987,-9 z" fill="#d6a434"/><path d="m 297.553,156.25 c 0,0 -25.75,-31.25 -35.75,-33.5 -10,-2.25 -6.547,-8.25 -2.148,-9.5 4.399,-1.25 25.148,13.5 37.898,43 z" fill="#443f32"/><path stroke-miterlimit="10" d="m 239.303,239.75 c 0,0 4.25,11.25 8.5,15.5" fill="none" stroke="#4c422b" stroke-width=".5"/><path stroke-miterlimit="10" d="m 236.803,244.298 c 0,0 0.5,8.952 3.75,13.702" fill="none" stroke="#4c422b" stroke-width=".5"/><path stroke-miterlimit="10" d="m 230.053,226.75 c 0,0 -0.5,18.5 4.75,29.75" fill="none" stroke="#4c422b" stroke-width=".5"/><path stroke-miterlimit="10" d="m 238.678,210.647 c 0,0 -0.875,5.353 -5.125,6.853" fill="none" stroke="#4c422b" stroke-width=".5"/><path stroke-miterlimit="10" d="m 234.803,204.5 c 0,0 5.737,3.795 -2.381,6.147" fill="none" stroke="#4c422b" stroke-width=".5"/><path stroke-miterlimit="10" d="m 232.421,208 c 0,0 0.756,5 -1.744,7.5 -2.5,2.5 -4.875,0 -4.875,0" fill="none" stroke="#4c422b" stroke-width=".5"/><path stroke-miterlimit="10" d="m 223.969,226.75 c 0,0 1.5,10.084 -4.333,7.751" fill="none" stroke="#4c422b" stroke-width=".5"/><path stroke-miterlimit="10" d="m 238.678,222.167 c 0,0 -0.042,9.334 -5.125,6.334" fill="none" stroke="#4c422b" stroke-width=".5"/><path stroke-miterlimit="10" d="m 217.469,218.334 c 0,0 -1.333,11 -5.333,4.667" fill="none" stroke="#4c422b" stroke-width=".5"/><path stroke-miterlimit="10" d="m 217.469,242.834 c 0,0 -2,12.5 -6.833,0 0,0 -1.068,5.695 -3.201,5.556 -2.133,-0.139 -3.787,-5.556 -3.787,-5.556 -4.833,12.5 -6.833,0 -6.833,0" fill="none" stroke="#4c422b" stroke-width=".5"/><path stroke-miterlimit="10" d="m 217.469,317.834 c 0,0 -2,12.5 -6.833,0 0,0 -1.068,5.695 -3.201,5.556 -2.133,-0.139 -3.787,-5.556 -3.787,-5.556 -4.833,12.5 -6.833,0 -6.833,0" fill="none" stroke="#4c422b" stroke-width=".5"/><path stroke-miterlimit="10" d="m 280.637,118.668 c 0,0 18.832,9.166 44.666,45.333" fill="none" stroke="#4c422b" stroke-width=".5"/><path stroke-miterlimit="10" d="m 328.303,172.75 c 0,0 7.75,7.25 10.5,14.5 2.75,7.25 15.25,19 15.25,19" fill="none" stroke="#877139" stroke-width=".5"/><path stroke-miterlimit="10" d="m 320.803,175.5 c 0,0 21,29.398 33.25,38.574" fill="none" stroke="#4c422b" stroke-width=".5"/><path stroke-miterlimit="10" d="m 293.303,160.086 c 0,0 5,8.664 2,10.164 -3,1.5 -14.666,-23.25 -14.666,-23.25" fill="none" stroke="#4c422b" stroke-width=".5"/><path stroke-miterlimit="10" d="m 289.004,162.979 c 0,0 2.633,7.854 -1.367,8.354 -4,0.5 -13.154,-22 -13.154,-22" fill="none" stroke="#4c422b" stroke-width=".5"/><path stroke-miterlimit="10" d="m 301.803,162.333 c 0,0 1.834,10 7.5,10.417 5.666,0.417 5.166,-10.917 -5.334,-20.417" fill="none" stroke="#4c422b" stroke-width=".5"/><path stroke-miterlimit="10" d="m 284.186,168.511 c 0,0 1.117,4.504 -5.217,2.83 -6.333,-1.674 -11,-19.008 -11,-19.008" fill="none" stroke="#4c422b" stroke-width=".5"/><path stroke-miterlimit="10" d="m 247.136,107.49 c 0,0 3,12.834 -7.333,15.5" fill="none" stroke="#4c422b" stroke-width=".5"/><path stroke-miterlimit="10" d="m 247.376,114 c 0,0 8.093,-2.177 7.093,-9.177" fill="none" stroke="#4c422b" stroke-width=".5"/><path stroke-miterlimit="10" d="m 220.303,157.826 c 0,0 8.167,15.608 0,13.888" fill="none" stroke="#4c422b" stroke-width=".5"/><path stroke-miterlimit="10" d="m 230.04,174.489 c 0,0 6.941,16.504 -5.898,5.504" fill="none" stroke="#4c422b" stroke-width=".5"/><path stroke-miterlimit="10" d="m 226.538,181.898 c 0,0 0.265,9.942 -7.568,0.769" fill="none" stroke="#4c422b" stroke-width=".5"/><path stroke-miterlimit="10" d="m 224.142,157.326 c 0,0 9.763,-1.146 12.628,3.011" fill="none" stroke="#4c422b" stroke-width=".5"/><path stroke-miterlimit="10" d="m 230.04,152.333 c 0,0 9.364,-4.174 15.23,-1.007" fill="none" stroke="#4c422b" stroke-width=".5"/><path stroke-miterlimit="10" d="m 236.803,143.993 c 0,0 4.833,-5.167 11,-3.667" fill="none" stroke="#4c422b" stroke-width=".5"/><path stroke-miterlimit="10" d="m 274.074,166.926 c 0,0 2.729,6.937 -2.938,5.835 -5.667,-1.102 -9.667,-17.768 -9.667,-17.768" fill="none" stroke="#4c422b" stroke-width=".5"/><path stroke-miterlimit="10" d="m 268.731,171.341 c 0,0 2.904,4.818 -2.096,4.485 -5,-0.333 -10.667,-17.066 -10.667,-17.066" fill="none" stroke="#4c422b" stroke-width=".5"/><path stroke-miterlimit="10" d="m 262.77,172.896 c 0,0 1.533,7.541 -3.634,6.235 -5.167,-1.306 -9,-17.108 -9,-17.108" fill="none" stroke="#4c422b" stroke-width=".5"/><path stroke-miterlimit="10" d="m 255.509,175.843 c 0,0 -0.206,3.983 -3.373,4.483 -3.167,0.5 -6.866,-16.39 -6.866,-16.39" fill="none" stroke="#4c422b" stroke-width=".5"/><path stroke-miterlimit="10" d="m 246.136,174.489 c 0,0 3.333,4.691 -1.5,5.848 -4.833,1.157 -7.833,-11.344 -7.833,-11.344" fill="none" stroke="#4c422b" stroke-width=".5"/><path stroke-miterlimit="10" d="m 240.553,178.041 c 0,0 -0.045,3.451 -2.897,3.118 -2.852,-0.333 -5.126,-8.398 -5.126,-8.398" fill="none" stroke="#4c422b" stroke-width=".5"/><path stroke-miterlimit="10" d="m 245.27,184.227 c 0,0 0.2,4.935 2.533,6.769" fill="none" stroke="#4c422b" stroke-width=".5"/><path stroke-miterlimit="10" d="m 249.303,182.667 c 0,0 -0.207,4.829 2.5,7.495" fill="none" stroke="#4c422b" stroke-width=".5"/><path stroke-miterlimit="10" d="m 240.553,183.774 c 0,0 -0.37,6.84 3.119,9.555" fill="none" stroke="#4c422b" stroke-width=".5"/><path stroke-miterlimit="10" d="m 234.803,192.329 c 0,0 3.919,6.332 -0.207,7.166 -4.126,0.834 -5.43,-3 -5.43,-3" fill="none" stroke="#4c422b" stroke-width=".5"/><path stroke-miterlimit="10" d="m 224.142,199.614 c 0,0 4.006,6.386 0,8.386 -4.006,2 -6.673,-1.666 -6.673,-1.666" fill="none" stroke="#4c422b" stroke-width=".5"/><path stroke-miterlimit="10" d="m 220.303,190.162 c 0,0 2.333,4.947 -0.667,5.81" fill="none" stroke="#4c422b" stroke-width=".5"/><path stroke-miterlimit="10" d="m 216.969,192.329 c 0,0 3.167,6.339 0,8.005 -3.167,1.666 -4.833,-0.72 -4.833,-0.72" fill="none" stroke="#4c422b" stroke-width=".5"/><path stroke-miterlimit="10" d="m 311.492,172.137 c 0,0 7.503,11.745 1.406,11.638 -6.096,-0.107 -11.096,-8.274 -11.096,-8.274" fill="none" stroke="#4c422b" stroke-width=".5"/><path stroke-miterlimit="10" d="m 315.26,181.898 c 0,0 7.457,6.462 10.043,9.769" fill="none" stroke="#4c422b" stroke-width=".5"/><path stroke-miterlimit="10" d="m 304.771,179.284 c 0,0 2.197,4.55 -4.636,3.383 -6.833,-1.167 -8.5,-9.917 -8.5,-9.917" fill="none" stroke="#4c422b" stroke-width=".5"/><path stroke-miterlimit="10" d="m 295.614,180.337 c 0,0 -1.71,2.96 -5.761,1.562 -4.051,-1.398 -5.592,-8.065 -5.592,-8.065" fill="none" stroke="#4c422b" stroke-width=".5"/><path stroke-miterlimit="10" d="m 287.534,180.337 c 0,0 -2.397,2.96 -6.897,1.562 -4.5,-1.398 -4.521,-7.409 -4.521,-7.409" fill="none" stroke="#4c422b" stroke-width=".5"/><path stroke-miterlimit="10" d="m 279.155,181.182 c 0,0 0.837,2.535 -4.425,1.677 -5.262,-0.858 -4.428,-5.054 -4.428,-5.054" fill="none" stroke="#4c422b" stroke-width=".5"/><path stroke-miterlimit="10" d="m 272.086,181.898 c 0,0 1.252,2.222 -2.516,2.328 -3.768,0.106 -5.434,-4.942 -5.434,-4.942" fill="none" stroke="#4c422b" stroke-width=".5"/><path stroke-miterlimit="10" d="m 266.537,183.036 c 0,0 0.933,3.292 -2.4,3.378 -3.334,0.086 -5.334,-4.141 -5.334,-4.141" fill="none" stroke="#4c422b" stroke-width=".5"/><path stroke-miterlimit="10" d="m 261.469,185.522 c 0,0 1,1.534 -2.666,2.089 -3.666,0.555 -5.166,-4.575 -5.166,-4.575" fill="none" stroke="#4c422b" stroke-width=".5"/><path stroke-miterlimit="10" d="m 253.637,141.334 c 0,0 6.004,3.34 0.918,5.666" fill="none" stroke="#4c422b" stroke-width=".5"/><path stroke-miterlimit="10" d="m 251.803,147 c 0,0 7.13,3.159 3.314,6.659" fill="none" stroke="#4c422b" stroke-width=".5"/><path stroke-miterlimit="10" d="m 250.136,156.25 c 0,0 2.001,6.797 -1.833,7.687" fill="none" stroke="#4c422b" stroke-width=".5"/><path stroke-miterlimit="10" d="m 242.106,162.023 c 0,0 2.363,5.086 -1.554,5.277 -3.917,0.191 -5.75,-1.642 -5.75,-1.642" fill="none" stroke="#4c422b" stroke-width=".5"/><path stroke-miterlimit="10" d="m 242.813,121.726 c 0,0 4.637,6.893 -2.26,8.933" fill="none" stroke="#4c422b" stroke-width=".5"/><path stroke-miterlimit="10" d="m 256.6,128.492 c 0,0 11.703,6.166 16.369,14.666" fill="none" stroke="#4c422b" stroke-width=".5"/><path stroke-miterlimit="10" d="m 250.136,133.325 c 0,0 10.525,1.185 12.847,8.009" fill="none" stroke="#4c422b" stroke-width=".5"/><path stroke-miterlimit="10" d="m 272.969,106.325 c 0,0 -3,5.833 -11.5,1.833" fill="none" stroke="#4c422b" stroke-width=".5"/><path stroke-miterlimit="10" d="m 217.469,283 c -5.498,-5.603 -6.833,-22.5 -6.833,-22.5 0,0 -0.443,10.25 -3.201,11.25 -2.758,1 -3.441,-6 -3.787,-11.25 0,0 -1.336,16.897 -6.833,22.5" fill="none" stroke="#4c422b" stroke-width=".5"/><path stroke-miterlimit="10" d="m 212.136,284.5 c 0,0 2.866,15.484 15.892,22.25" fill="none" stroke="#4c422b" stroke-width=".5"/><path stroke-miterlimit="10" d="m 220.401,300.807 c 0,0 5.484,15.563 -1.432,14.378" fill="none" stroke="#4c422b" stroke-width=".5"/><path stroke-miterlimit="10" d="m 230.456,314 c 0,0 10.323,7.75 -1.29,12.5" fill="none" stroke="#4c422b" stroke-width=".5"/><path stroke-miterlimit="10" d="m 221.696,323 c 0,0 0.607,6.75 -6.893,8.25" fill="none" stroke="#4c422b" stroke-width=".5"/><path stroke-miterlimit="10" d="m 317.053,190.995 c 0,0 14.25,23.339 22.25,31.172" fill="none" stroke="#4c422b" stroke-width=".5"/><path stroke-miterlimit="10" d="m 297.553,186.783 c 0,0 6.942,20.467 15.346,30.717" fill="none" stroke="#4c422b" stroke-width=".5"/><path stroke-miterlimit="10" d="m 279.204,187.611 c 0,0 5.849,18.537 11.599,26.463" fill="none" stroke="#4c422b" stroke-width=".5"/><path stroke-miterlimit="10" d="m 261.594,189.5 c 0,0 1.792,12.443 5.625,19.097" fill="none" stroke="#4c422b" stroke-width=".5"/><path d="m 116.731,156.25 c 0,0 25.75,-31.25 35.75,-33.5 10,-2.25 6.547,-8.25 2.148,-9.5 -4.399,-1.25 -25.148,13.5 -37.898,43 z" fill="#443f32"/><path stroke-miterlimit="10" d="m 174.981,239.75 c 0,0 -4.25,11.25 -8.5,15.5" fill="none" stroke="#4c422b" stroke-width=".5"/><path stroke-miterlimit="10" d="m 177.481,244.298 c 0,0 -0.5,8.952 -3.75,13.702" fill="none" stroke="#4c422b" stroke-width=".5"/><path stroke-miterlimit="10" d="m 184.231,226.75 c 0,0 0.5,18.5 -4.75,29.75" fill="none" stroke="#4c422b" stroke-width=".5"/><path stroke-miterlimit="10" d="m 175.606,210.647 c 0,0 0.875,5.353 5.125,6.853" fill="none" stroke="#4c422b" stroke-width=".5"/><path stroke-miterlimit="10" d="m 179.481,204.5 c 0,0 -5.737,3.795 2.381,6.147" fill="none" stroke="#4c422b" stroke-width=".5"/><path stroke-miterlimit="10" d="m 181.863,208 c 0,0 -0.756,5 1.744,7.5 2.5,2.5 4.875,0 4.875,0" fill="none" stroke="#4c422b" stroke-width=".5"/><path stroke-miterlimit="10" d="m 190.315,226.75 c 0,0 -1.5,10.084 4.333,7.751" fill="none" stroke="#4c422b" stroke-width=".5"/><path stroke-miterlimit="10" d="m 175.606,222.167 c 0,0 0.042,9.334 5.125,6.334" fill="none" stroke="#4c422b" stroke-width=".5"/><path stroke-miterlimit="10" d="m 196.815,218.334 c 0,0 1.333,11 5.333,4.667" fill="none" stroke="#4c422b" stroke-width=".5"/><path stroke-miterlimit="10" d="m 133.648,118.668 c 0,0 -18.833,9.166 -44.667,45.333" fill="none" stroke="#4c422b" stroke-width=".5"/><path stroke-miterlimit="10" d="m 85.981,172.75 c 0,0 -7.75,7.25 -10.5,14.5 -2.75,7.25 -15.25,19 -15.25,19" fill="none" stroke="#4c422b" stroke-width=".5"/><path stroke-miterlimit="10" d="m 93.481,175.5 c 0,0 -21,29.398 -33.25,38.574" fill="none" stroke="#4c422b" stroke-width=".5"/><path stroke-miterlimit="10" d="m 120.981,160.086 c 0,0 -5,8.664 -2,10.164 3,1.5 14.667,-23.25 14.667,-23.25" fill="none" stroke="#4c422b" stroke-width=".5"/><path stroke-miterlimit="10" d="m 125.281,162.979 c 0,0 -2.633,7.854 1.367,8.354 4,0.5 13.153,-22 13.153,-22" fill="none" stroke="#4c422b" stroke-width=".5"/><path stroke-miterlimit="10" d="m 112.481,162.333 c 0,0 -1.833,10 -7.5,10.417 -5.667,0.417 -5.167,-10.917 5.333,-20.417" fill="none" stroke="#4c422b" stroke-width=".5"/><path stroke-miterlimit="10" d="m 130.099,168.511 c 0,0 -1.117,4.504 5.216,2.83 6.333,-1.674 11,-19.008 11,-19.008" fill="none" stroke="#4c422b" stroke-width=".5"/><path stroke-miterlimit="10" d="m 167.148,107.49 c 0,0 -3,12.834 7.333,15.5" fill="none" stroke="#4c422b" stroke-width=".5"/><path stroke-miterlimit="10" d="m 166.908,114 c 0,0 -8.093,-2.177 -7.093,-9.177" fill="none" stroke="#4c422b" stroke-width=".5"/><path stroke-miterlimit="10" d="m 193.981,157.826 c 0,0 -8.167,15.608 0,13.888" fill="none" stroke="#4c422b" stroke-width=".5"/><path stroke-miterlimit="10" d="m 184.244,174.489 c 0,0 -6.941,16.504 5.898,5.504" fill="none" stroke="#4c422b" stroke-width=".5"/><path stroke-miterlimit="10" d="m 187.747,181.898 c 0,0 -0.265,9.942 7.568,0.769" fill="none" stroke="#4c422b" stroke-width=".5"/><path stroke-miterlimit="10" d="m 190.142,157.326 c 0,0 -9.763,-1.146 -12.628,3.011" fill="none" stroke="#4c422b" stroke-width=".5"/><path stroke-miterlimit="10" d="m 184.244,152.333 c 0,0 -9.364,-4.174 -15.23,-1.007" fill="none" stroke="#4c422b" stroke-width=".5"/><path stroke-miterlimit="10" d="m 177.481,143.993 c 0,0 -4.833,-5.167 -11,-3.667" fill="none" stroke="#4c422b" stroke-width=".5"/><path stroke-miterlimit="10" d="m 140.209,166.926 c 0,0 -2.728,6.937 2.939,5.835 5.667,-1.102 9.667,-17.768 9.667,-17.768" fill="none" stroke="#4c422b" stroke-width=".5"/><path stroke-miterlimit="10" d="m 145.553,171.341 c 0,0 -2.904,4.818 2.096,4.485 5,-0.333 10.667,-17.066 10.667,-17.066" fill="none" stroke="#4c422b" stroke-width=".5"/><path stroke-miterlimit="10" d="m 151.515,172.896 c 0,0 -1.533,7.541 3.634,6.235 5.167,-1.306 9,-17.108 9,-17.108" fill="none" stroke="#4c422b" stroke-width=".5"/><path stroke-miterlimit="10" d="m 158.775,175.843 c 0,0 0.207,3.983 3.373,4.483 3.166,0.5 6.866,-16.39 6.866,-16.39" fill="none" stroke="#4c422b" stroke-width=".5"/><path stroke-miterlimit="10" d="m 168.148,174.489 c 0,0 -3.333,4.691 1.5,5.848 4.833,1.157 7.833,-11.344 7.833,-11.344" fill="none" stroke="#4c422b" stroke-width=".5"/><path stroke-miterlimit="10" d="m 173.731,178.041 c 0,0 0.045,3.451 2.897,3.118 2.852,-0.333 5.126,-8.398 5.126,-8.398" fill="none" stroke="#4c422b" stroke-width=".5"/><path stroke-miterlimit="10" d="m 169.014,184.227 c 0,0 -0.2,4.935 -2.533,6.769" fill="none" stroke="#4c422b" stroke-width=".5"/><path stroke-miterlimit="10" d="m 164.981,182.667 c 0,0 0.207,4.829 -2.5,7.495" fill="none" stroke="#4c422b" stroke-width=".5"/><path stroke-miterlimit="10" d="m 173.731,183.774 c 0,0 0.37,6.84 -3.119,9.555" fill="none" stroke="#4c422b" stroke-width=".5"/><path stroke-miterlimit="10" d="m 179.481,192.329 c 0,0 -3.919,6.332 0.207,7.166 4.126,0.834 5.43,-3 5.43,-3" fill="none" stroke="#4c422b" stroke-width=".5"/><path stroke-miterlimit="10" d="m 190.142,199.614 c 0,0 -4.006,6.386 0,8.386 4.006,2 6.673,-1.666 6.673,-1.666" fill="none" stroke="#4c422b" stroke-width=".5"/><path stroke-miterlimit="10" d="m 193.981,190.162 c 0,0 -2.333,4.947 0.667,5.81" fill="none" stroke="#4c422b" stroke-width=".5"/><path stroke-miterlimit="10" d="m 197.315,192.329 c 0,0 -3.167,6.339 0,8.005 3.167,1.666 4.833,-0.72 4.833,-0.72" fill="none" stroke="#4c422b" stroke-width=".5"/><path stroke-miterlimit="10" d="m 102.792,172.137 c 0,0 -7.503,11.745 -1.407,11.638 6.096,-0.107 11.096,-8.274 11.096,-8.274" fill="none" stroke="#4c422b" stroke-width=".5"/><path stroke-miterlimit="10" d="m 99.025,181.898 c 0,0 -7.457,6.462 -10.043,9.769" fill="none" stroke="#4c422b" stroke-width=".5"/><path stroke-miterlimit="10" d="m 109.513,179.284 c 0,0 -2.197,4.55 4.636,3.383 6.833,-1.167 8.5,-9.917 8.5,-9.917" fill="none" stroke="#4c422b" stroke-width=".5"/><path stroke-miterlimit="10" d="m 118.67,180.337 c 0,0 1.71,2.96 5.761,1.562 4.051,-1.398 5.592,-8.065 5.592,-8.065" fill="none" stroke="#4c422b" stroke-width=".5"/><path stroke-miterlimit="10" d="m 126.75,180.337 c 0,0 2.398,2.96 6.898,1.562 4.5,-1.398 4.521,-7.409 4.521,-7.409" fill="none" stroke="#4c422b" stroke-width=".5"/><path stroke-miterlimit="10" d="m 135.129,181.182 c 0,0 -0.837,2.535 4.424,1.677 5.261,-0.858 4.428,-5.054 4.428,-5.054" fill="none" stroke="#4c422b" stroke-width=".5"/><path stroke-miterlimit="10" d="m 142.198,181.898 c 0,0 -1.252,2.222 2.516,2.328 3.768,0.106 5.434,-4.942 5.434,-4.942" fill="none" stroke="#4c422b" stroke-width=".5"/><path stroke-miterlimit="10" d="m 147.748,183.036 c 0,0 -0.933,3.292 2.4,3.378 3.333,0.086 5.333,-4.141 5.333,-4.141" fill="none" stroke="#4c422b" stroke-width=".5"/><path stroke-miterlimit="10" d="m 152.815,185.522 c 0,0 -1,1.534 2.667,2.089 3.667,0.555 5.167,-4.575 5.167,-4.575" fill="none" stroke="#4c422b" stroke-width=".5"/><path stroke-miterlimit="10" d="m 160.648,141.334 c 0,0 -6.004,3.34 -0.918,5.666" fill="none" stroke="#4c422b" stroke-width=".5"/><path stroke-miterlimit="10" d="m 162.481,147 c 0,0 -7.13,3.159 -3.315,6.659" fill="none" stroke="#4c422b" stroke-width=".5"/><path stroke-miterlimit="10" d="m 164.148,156.25 c 0,0 -2,6.797 1.833,7.687" fill="none" stroke="#4c422b" stroke-width=".5"/><path stroke-miterlimit="10" d="m 172.178,162.023 c 0,0 -2.363,5.086 1.554,5.277 3.917,0.191 5.75,-1.642 5.75,-1.642" fill="none" stroke="#4c422b" stroke-width=".5"/><path stroke-miterlimit="10" d="m 171.471,121.726 c 0,0 -4.637,6.893 2.26,8.933" fill="none" stroke="#4c422b" stroke-width=".5"/><path stroke-miterlimit="10" d="m 157.685,128.492 c 0,0 -11.704,6.166 -16.37,14.666" fill="none" stroke="#4c422b" stroke-width=".5"/><path stroke-miterlimit="10" d="m 164.148,133.325 c 0,0 -10.525,1.185 -12.846,8.009" fill="none" stroke="#4c422b" stroke-width=".5"/><path stroke-miterlimit="10" d="m 141.315,106.325 c 0,0 3,5.833 11.5,1.833" fill="none" stroke="#4c422b" stroke-width=".5"/><path stroke-miterlimit="10" d="m 202.148,284.5 c 0,0 -2.866,15.484 -15.892,22.25" fill="none" stroke="#4c422b" stroke-width=".5"/><path stroke-miterlimit="10" d="m 193.883,300.807 c 0,0 -5.484,15.563 1.432,14.378" fill="none" stroke="#4c422b" stroke-width=".5"/><path stroke-miterlimit="10" d="m 183.828,314 c 0,0 -10.323,7.75 1.29,12.5" fill="none" stroke="#4c422b" stroke-width=".5"/><path stroke-miterlimit="10" d="m 192.588,323 c 0,0 -0.607,6.75 6.893,8.25" fill="none" stroke="#4c422b" stroke-width=".5"/><path stroke-miterlimit="10" d="m 97.231,190.995 c 0,0 -14.25,23.339 -22.25,31.172" fill="none" stroke="#4c422b" stroke-width=".5"/><path stroke-miterlimit="10" d="m 116.731,186.783 c 0,0 -6.942,20.467 -15.346,30.717" fill="none" stroke="#4c422b" stroke-width=".5"/><path stroke-miterlimit="10" d="m 135.08,187.611 c 0,0 -5.849,18.537 -11.599,26.463" fill="none" stroke="#4c422b" stroke-width=".5"/><path stroke-miterlimit="10" d="m 152.69,189.5 c 0,0 -1.792,12.443 -5.625,19.097" fill="none" stroke="#4c422b" stroke-width=".5"/><path d="m 272.969,38.375 c 0,0 9.551,-1.375 13.362,0 3.811,1.375 5.521,0.875 3.942,-1.375 -1.576,-2.25 -7.666,-3.625 -17.304,1.375 z" fill="#2b2923"/><circle cx="285.928" cy="39.25" r="2.875" fill="#2b2923"/><path d="m 283.969,66.59 c 3.451,-2.076 3.599,-5.82 3.338,-8.013 9.336,1.904 20.293,5.308 17.801,15.673 0,0 -6.055,-7 -14.305,-7 -2.283,0 -4.58,-0.237 -6.834,-0.66 z" fill="#443f32"/><path d="m 295.614,55 c -9.999,-1.987 -17.384,-0.275 -22.546,-2.217 4.717,-1.537 28.079,-0.352 27.416,-4.325 -0.37,-2.222 1.516,-3.527 2.516,-4.253 0,0.016 0,0.029 0,0.045 0,0 18.26,9.25 9.914,25.75 0,0 -7.238,-13 -17.3,-15 z" fill="#443f32"/><path stroke-miterlimit="10" d="m 240.553,39.138 c 0,0 -5.275,0.612 -10.513,7.612" fill="none" stroke="#4c422b" stroke-width=".5"/><path stroke-miterlimit="10" d="m 237.655,42.943 c 0,0 -4.382,2.057 -5.742,9.307" fill="none" stroke="#4c422b" stroke-width=".5"/><path stroke-miterlimit="10" d="m 238.808,52.25 c 0,0 -19.305,2.25 -10.78,12.5" fill="none" stroke="#4c422b" stroke-width=".5"/><path stroke-miterlimit="10" d="m 225.87,60.266 c 0,0 -11.187,7.984 -3.752,12.234" fill="none" stroke="#4c422b" stroke-width=".5"/><path stroke-miterlimit="10" d="m 231.913,72.5 c 0,0 -5.799,5.479 -3.885,14.5" fill="none" stroke="#4c422b" stroke-width=".5"/><path stroke-miterlimit="10" d="m 256.559,57.103 c 0,0 -7.105,-0.112 -9.303,6.147" fill="none" stroke="#4c422b" stroke-width=".5"/><path stroke-miterlimit="10" d="m 222.754,87 c 0,0 -2.201,10 -8.701,8 -6.5,-2 -1.917,-8 -1.917,-8" fill="none" stroke="#4c422b" stroke-width=".5"/><path stroke-miterlimit="10" d="m 213.553,101 c 0,0 0.75,11.824 -8,8.412" fill="none" stroke="#4c422b" stroke-width=".5"/><path stroke-miterlimit="10" d="m 221.167,101 c 0,0 -1.136,9.25 0,16" fill="none" stroke="#4c422b" stroke-width=".5"/><path stroke-miterlimit="10" d="m 215.256,118.668 c 0,0 1.471,12.3 -5.696,11.99 -7.167,-0.31 -4.008,-7.668 -4.008,-7.668" fill="none" stroke="#4c422b" stroke-width=".5"/><path stroke-miterlimit="10" d="m 221.167,134.713 c 0,0 3.534,12.787 -2.79,12.287 -6.324,-0.5 -6.241,-8.25 -6.241,-8.25" fill="none" stroke="#4c422b" stroke-width=".5"/><path stroke-miterlimit="10" d="m 246.536,58.577 c 0,0 -5.568,6.191 -5.995,11.423" fill="none" stroke="#4c422b" stroke-width=".5"/><path stroke-miterlimit="10" d="m 294.075,38 c 0,0 -2.991,-9.313 -21.007,-3.031" fill="none" stroke="#4c422b" stroke-width=".5"/><path stroke-miterlimit="10" d="m 250.965,39.138 c 0,0 -3.946,3.306 -4.429,8.459 0,0 2.771,4.653 8.019,4.653" fill="none" stroke="#4c422b" stroke-width=".5"/><path stroke-miterlimit="10" d="m 248.303,34.969 c 0,0 -6.041,-0.667 -7.75,-3.219" fill="none" stroke="#4c422b" stroke-width=".5"/><path d="m 125.576,48.621 c 0,0 -9.634,0.548 -13.097,2.651 -3.462,2.104 -5.236,1.952 -4.137,-0.566 1.099,-2.518 6.796,-5.073 17.234,-2.085 z" fill="#2b2923"/><circle cx="113.048" cy="52.05" r="2.875" fill="#2b2923"/><path d="m 120.391,78.458 c -3.794,-1.351 -4.682,-4.991 -4.86,-7.191 -8.773,3.718 -18.837,9.228 -14.339,18.893 0,0 4.546,-8.063 12.632,-9.699 2.239,-0.453 4.442,-1.142 6.567,-2.003 z" fill="#443f32"/><path d="m 106.679,69.408 c 9.405,-3.932 16.982,-3.719 21.658,-6.646 -4.928,-0.57 -27.576,5.223 -27.714,1.196 -0.077,-2.251 -1.787,-3.237 -3.293,-3.673 0.003,0.016 0.004,0.029 0.007,0.045 0,0 -16.077,12.691 -4.624,27.208 -10e-4,0.001 4.501,-14.174 13.966,-18.13 z" fill="#443f32"/><path stroke-miterlimit="10" d="m 157.499,42.938 c 0,0 5.292,-0.445 11.814,5.376" fill="none" stroke="#4c422b" stroke-width=".5"/><path stroke-miterlimit="10" d="m 161.094,46.095 c 0,0 4.703,1.146 7.475,7.982" fill="none" stroke="#4c422b" stroke-width=".5"/><path stroke-miterlimit="10" d="m 161.811,55.444 c 0,0 19.368,-1.624 13.045,10.114" fill="none" stroke="#4c422b" stroke-width=".5"/><path stroke-miterlimit="10" d="m 176.082,60.734 c 0,0 12.548,5.606 6.104,11.247" fill="none" stroke="#4c422b" stroke-width=".5"/><path stroke-miterlimit="10" d="m 172.585,73.925 c 0,0 6.77,4.221 6.684,13.44" fill="none" stroke="#4c422b" stroke-width=".5"/><path stroke-miterlimit="10" d="m 145.375,63.722 c 0,0 6.941,-1.52 10.337,4.181" fill="none" stroke="#4c422b" stroke-width=".5"/><path stroke-miterlimit="10" d="m 155.491,63.179 c 0,0 6.686,4.964 8.141,10.007" fill="none" stroke="#4c422b" stroke-width=".5"/><path stroke-miterlimit="10" d="m 104.815,52.44 c 0,0 1.084,-9.721 19.988,-7.138" fill="none" stroke="#4c422b" stroke-width=".5"/><path stroke-miterlimit="10" d="m 147.293,45.005 c 0,0 4.523,2.457 6.019,7.412 0,0 -1.792,5.11 -6.936,6.151" fill="none" stroke="#4c422b" stroke-width=".5"/><path stroke-miterlimit="10" d="m 149.076,40.39 c 0,0 5.789,-1.852 6.958,-4.691" fill="none" stroke="#4c422b" stroke-width=".5"/><path stroke-miterlimit="10" d="m 199.481,78.75 c 0,0 2.031,8.5 -3.574,7 -5.605,-1.5 -5.765,-9.75 -5.765,-9.75" fill="none" stroke="#4c422b" stroke-width=".5"/><path stroke-miterlimit="10" d="m 211.066,92.991 c 0,0 -0.514,3.759 -5.514,3.509 -5,-0.25 -5.712,-7.5 -5.712,-7.5" fill="none" stroke="#4c422b" stroke-width=".5"/><path stroke-miterlimit="10" d="m 202.148,94.805 c 0,0 -2.886,3.469 -6.241,1.707 -3.355,-1.762 -5.766,-8.973 -5.766,-8.973" fill="none" stroke="#4c422b" stroke-width=".5"/><path stroke-miterlimit="10" d="m 187.746,93.585 c 0,0 2.996,12.614 0.736,16.445" fill="none" stroke="#4c422b" stroke-width=".5"/><path stroke-miterlimit="10" d="m 205.553,105.516 c 0,0 1.25,5.484 -2,6.484 -3.25,1 -6.738,-4.058 -6.738,-4.058" fill="none" stroke="#4c422b" stroke-width=".5"/><path stroke-miterlimit="10" d="m 205.789,129.189 c 0,0 -1.912,4.311 -5.949,3.061 -4.037,-1.25 -3.932,-10.524 -3.932,-10.524" fill="none" stroke="#4c422b" stroke-width=".5"/><path stroke-miterlimit="10" d="m 213.518,143.993 c 0,0 0.801,5.536 -3.957,6.146 -4.758,0.61 -8.712,-12.81 -8.712,-12.81" fill="none" stroke="#4c422b" stroke-width=".5"/><path stroke-miterlimit="10" d="m 204.178,145.431 c 0,0 -0.175,4.569 -5.15,2.819 -4.975,-1.75 -4.037,-10.92 -4.037,-10.92" fill="none" stroke="#4c422b" stroke-width=".5"/><path stroke-miterlimit="10" d="m 216.661,173.833 c 0,0 -1.297,8.603 -9.453,2.01 0,0 -5.881,6.157 -10.393,-0.343" fill="none" stroke="#4c422b" stroke-width=".5"/><path stroke-miterlimit="10" d="m 207.208,158.76 c 0,0 -0.64,7.621 2.353,11.556" fill="none" stroke="#4c422b" stroke-width=".5"/><path stroke-miterlimit="10" d="m 210.567,186.414 c 0,0 2.841,8.84 -2.211,10.213 -5.052,1.373 -6.207,-9.844 -6.207,-9.844" fill="none" stroke="#4c422b" stroke-width=".5"/><path stroke-miterlimit="10" d="m 213.568,210.647 c 0,0 -1.41,9.853 -5.213,9.853 -3.803,0 -7.054,-8.194 -7.054,-8.194" fill="none" stroke="#4c422b" stroke-width=".5"/><path stroke-miterlimit="10" d="m 212.136,230.801 c 0,0 0.522,6.699 -3.78,5.199 -4.302,-1.5 -6.611,3.852 -6.207,-5.199" fill="none" stroke="#4c422b" stroke-width=".5"/><path stroke-miterlimit="10" d="m 208.355,297.375 c 0,0 -0.188,13.625 5.213,16.625" fill="none" stroke="#4c422b" stroke-width=".5"/><path stroke-miterlimit="10" d="m 204.859,297.375 c 0,0 2.532,12.791 -2.756,16.625" fill="none" stroke="#4c422b" stroke-width=".5"/><path stroke-miterlimit="10" d="m 210.12,285 c 0,0 0.719,9.084 -3.382,10.375 -4.101,1.291 -3.089,-12.875 -3.089,-12.875" fill="none" stroke="#4c422b" stroke-width=".5"/><path stroke-miterlimit="10" d="m 209.654,291.34 c 0,0 4.476,9.881 6.312,3.208" fill="none" stroke="#4c422b" stroke-width=".5"/><path stroke-miterlimit="10" d="m 203.784,290.723 c 0,0 -2.976,8.91 -4.354,1.656" fill="none" stroke="#4c422b" stroke-width=".5"/><path stroke-miterlimit="10" d="m 213.568,251.148 c 0,0 -10.704,16.518 -13.729,4.102" fill="none" stroke="#4c422b" stroke-width=".5"/><path stroke-miterlimit="10" d="m 18.335,247.334 c 4.333,-4.666 42.021,-51.332 52.354,-69.666 10.333,-18.334 47.04,-86 91.373,-78 41.265,7.446 4.424,36.836 25.464,51.353 0.045,-11.987 2.687,-23.681 0.22,-32.231 -15.169,-52.572 -49.058,-54.403 -53.217,-49.916 -4.948,5.337 -12.619,9.951 -20.705,11.587 -8.086,1.637 -12.632,9.699 -12.632,9.699 -5.967,-12.822 13.691,-18.331 21.967,-22.046 8.276,-3.716 5.268,-5.402 5.268,-5.402 -4.667,2.985 -12.283,2.742 -21.748,6.697 C 97.214,73.365 92.712,87.54 92.712,87.54 81.259,73.023 97.336,60.333 97.336,60.333 c -4.624,-20.745 28.495,-25.15 31.872,-25.579 3.378,-0.428 15.033,-4.824 15.033,-4.824 2.343,1.058 1.341,3.734 1.341,3.734 4.067,0.367 11.352,-2.283 11.352,-2.283 0.303,5.72 8.045,7.584 8.045,7.584 20.121,8.218 31.803,23.808 38.474,37.459 4.319,-13.646 12.716,-28.936 28.969,-39.757 0,0 7.225,-3.333 6.386,-9 0,0 7.669,1.167 11.582,0 0,0 -1.512,-2.417 0.576,-3.917 0,0 12.295,2 15.691,1.75 3.396,-0.25 36.73,-2.5 36.313,18.75 0,0 18.275,9.25 9.929,25.75 0,0 -7.223,-13 -17.284,-15 -10.061,-2 -17.479,-0.25 -22.646,-2.25 0,0 -2.613,2.25 6.235,4.25 8.848,2 29.209,3.5 25.903,17.25 0,0 -6.055,-7 -14.305,-7 -8.25,0 -16.684,-3 -22.592,-7.25 -5.855,-4.213 -50.379,8.355 -41.902,91.432 22.354,-14.365 -15.662,-44.247 25.994,-51.764 44.334,-8 81,59.666 91.333,78 10.333,18.334 48,65 52.333,69.666 4.334,4.666 1.667,12 -8,9 -9.666,-3 -12.166,-10.834 -46.416,-50.084 -4.093,-4.69 -8.715,-8.39 -13.664,-11.276 7.526,11.23 22.97,34.267 24.664,36.714 2.25,3.25 5.25,12.156 -2.5,10.906 -6.129,-0.988 -31.015,-38.927 -41.16,-54.759 -1.395,-0.29 -2.797,-0.538 -4.201,-0.749 l 0.129,0.206 c 0,0 21.17,42.654 22.98,46.167 1.812,3.514 3.637,12.732 -3.887,10.492 -5.747,-1.711 -24.394,-39.863 -32.883,-57.794 -1.842,0.014 -3.67,0.081 -5.479,0.193 5.068,13.374 12.01,31.671 12.922,33.971 1.455,3.675 2.361,13.028 -4.904,10.058 -4.079,-1.669 -13.154,-23.622 -20.329,-42.557 -2.162,0.381 -4.261,0.813 -6.28,1.287 3.186,11.824 6.465,23.969 7,25.844 1.084,3.801 1.059,13.198 -5.877,9.521 -3.088,-1.637 -8.034,-16.274 -12.574,-32.012 -9.621,3.449 -15.243,7.312 -13.457,8.787 5.75,4.75 -0.5,29 3.217,34 3.717,5 0.533,16.5 7.533,14.25 7,-2.25 7.5,4 7.5,4 -3.5,-1.75 -4,3.5 -4,3.5 2.75,4.25 -1.749,6.5 -1.749,6.5 0,0 -7.749,-6.5 -7.249,2.75 0.5,9.25 -6.748,9.75 -6.748,9.75 -2.75,-2.5 1.004,-6.25 -3.496,-7 -4.5,-0.75 -5.242,-7.75 -7.742,-8.75 -2.5,-1 -4.48,2.75 -4.48,2.75 -1.746,-3.5 -1.723,-9.75 -3.723,-11.25 -2,-1.5 -2.938,2 -0.938,25.5 2,23.5 23.375,30.25 22.875,43.75 -0.5,13.5 -35.75,18 -35.75,18 0,0 -35.411,-4.5 -35.911,-18 -0.5,-13.5 20.714,-20.25 22.714,-43.75 2,-23.5 1.063,-27 -0.938,-25.5 -2.001,1.5 -1.978,7.75 -3.723,11.25 0,0 -1.98,-3.75 -4.48,-2.75 -2.5,1 -3.242,8 -7.742,8.75 -4.5,0.75 -0.746,4.5 -3.496,7 0,0 -7.248,-0.5 -6.748,-9.75 0.5,-9.25 -7.249,-2.75 -7.249,-2.75 0,0 -4.5,-2.25 -1.75,-6.5 0,0 -0.5,-5.25 -4,-3.5 0,0 0.5,-6.25 7.5,-4 7,2.25 3.815,-9.25 7.533,-14.25 3.718,-5 -2.533,-29.25 3.217,-34 1.786,-1.476 -3.836,-5.338 -13.458,-8.787 -4.54,15.737 -9.486,30.375 -12.574,32.012 -6.935,3.677 -6.961,-5.721 -5.876,-9.521 0.535,-1.875 3.814,-14.02 7,-25.844 -2.02,-0.474 -4.119,-0.906 -6.281,-1.287 -7.175,18.935 -16.25,40.888 -20.33,42.557 -7.266,2.971 -6.359,-6.383 -4.903,-10.058 0.911,-2.3 7.853,-20.597 12.921,-33.971 -1.809,-0.112 -3.637,-0.18 -5.478,-0.193 -8.49,17.931 -27.136,56.083 -32.883,57.794 -7.523,2.24 -5.699,-6.979 -3.888,-10.492 1.812,-3.513 22.98,-46.167 22.98,-46.167 l 0.129,-0.206 c -1.404,0.211 -2.805,0.459 -4.2,0.749 -10.146,15.832 -35.031,53.771 -41.16,54.759 -7.75,1.25 -4.749,-7.656 -2.499,-10.906 1.694,-2.447 17.139,-25.483 24.665,-36.714 -4.949,2.887 -9.568,6.586 -13.661,11.276 -34.25,39.25 -36.745,47.084 -46.411,50.084 -9.666,3 -12.321,-4.334 -7.987,-9 z" fill="none" stroke="#35332e" stroke-width=".5"/></g></g></svg>