<svg xmlns="http://www.w3.org/2000/svg" xmlns:xlink="http://www.w3.org/1999/xlink" width="1000" height="600" version="1"><g stroke-width="1.125"><path fill="#ffcb05" stroke="#ffcb05" d="M.563 200.563h998.875v198.874H.563z"/><path fill="#bd223b" stroke="#bd223b" d="M.563.563h998.875v198.874H.563z"/><path fill="#9053a0" stroke="#9053a0" d="M.563 400.563h998.875v198.874H.563z"/></g><g transform="translate(398.64 196.502) scale(1.01475)"><g id="b" stroke="#000"><path d="M26.569 50.837l-1.553 104.11h16.17v-4.322l-1.035-99.788z" fill="#fff" stroke-width=".402" stroke-linecap="round" stroke-linejoin="round"/><path d="M26.057 44.574v-.003c-1.688-.036-3.05-1.465-3.09-3.237h20.269c-.04 1.795-1.437 3.24-3.156 3.24-.019 0-.037-.003-.056-.003v.003zm-4.569-6.811h23.226v3.582H21.488zm6.327 9.646v-.003c-1.267-.032-2.29-1.319-2.32-2.915h15.212c-.03 1.617-1.078 2.918-2.368 2.918l-.042-.003v.003zm-.186.008h10.945v2.163H27.629zm-1.753 4.55c-.865 0-1.566.64-1.566 1.43 0 .79.701 1.433 1.566 1.433.014 0 .026-.004.04-.004v.003h14.426c.857-.008 1.55-.646 1.55-1.432 0-.785-.693-1.422-1.55-1.43H25.916v.003c-.014 0-.026-.004-.04-.004zm1.21-2.36c-.72 0-1.304.532-1.304 1.19 0 .656.584 1.19 1.303 1.19.012 0 .022-.003.034-.004v.003H39.13c.714-.007 1.29-.537 1.29-1.19 0-.653-.576-1.182-1.29-1.189H27.12v.003c-.012 0-.022-.004-.034-.004z" fill="#ecbd26" stroke-width=".389" stroke-linecap="round" stroke-linejoin="round"/><path d="M1.965 99.973c-.407.513-.43 3.192 0 4.767.405 1.485 2.139 3.15 2.928 3.873 1.104 1.012 2.25 2.222 3.904 2.98 1.74.796 3.09.186 4.88.595 1.578.362 2.734 1.61 3.904 2.682 1.459 1.336 3.102 1.083 4.88 1.49 1.723.394 3.126 2.316 3.14 1.49l.176-13.11c.034-1.298-3.951-1.192-5.268-1.192-1.857 0-3.502-1.437-4.88-2.384-1.525-1.047-2.944-1.49-4.88-1.49-2.041 0-2.576-1.775-3.28-3.1-.784-1.48 1.776-2.77-.65-1.192-1.719 1.117-2.912 3.168-4.854 4.59zm9.071 44.082c.04.713.279 1.755 1.097 2.533.496.471 2.122.128 2.663 0 .855-.204 1.653 1.058 1.88 1.49.263.499-1.4 1.182-1.88 1.638-.758.72-1.134 1.413-1.566 2.235-.37.703-.314 1.425-.314 2.234 0 .837-.049 1.546.314 2.235.369.702.583-1.473.783-2.235.16-.606 1.095-1.538 1.41-1.936.584-.741 1.265-1.204 1.88-1.788.587-.559.993-1.706 1.41-2.235.52-.66.895-1.47 1.096-2.234.224-.853.293-1.51-.313-2.086-.808-.769-.946-1.192-2.193-1.192-1.091 0-1.818-1.297-2.507-1.952m26.022-20.827v-8.641c0-2.553-.088-1.329.984 0 1.295 1.606 2.711 2.338 3.204 4.172.473 1.76-.383 1.25-1.602 2.383-.378.352-2.052 2.086-2.586 2.086-.743 0-4.752 3.546-5.425 4.171-1.18 1.098-3.328 1.445-4.806 1.788-1.674.39-3.165.81-4.806 1.192-1.549.36-3.109.596-4.807.596-1.656 0-3.338-.044-4.806.298-1.516.352-2.819 1.842-3.205 3.277-.405 1.507-.64 2.894-.64 4.47 0 1.44-.61 3.163-.962 4.469-.452 1.68-.546 3.032-.32 3.873.004.015 3.332-2.92 3.845-3.277 1.342-.937 3.342-1.405 4.806-2.086 1.667-.775 3.222-1.349 4.807-2.086 1.46-.679 3.299-.841 4.806-1.192 1.736-.403 3.119-1.097 4.807-1.49 1.65-.383 3.369-1.902 4.486-2.68 1.605-1.12 3.333-.717 4.806-2.086 1.131-1.052 1.247-3.149 1.602-4.47.407-1.513.572-3.02.962-4.469.369-1.374-.641-2.254-.641-3.724M6.277 95.8c1.079-1.008 2.796-1.934 4.288-2.98 1.412-.989 3.173-1.41 4.785-1.787 1.633-.381 2.667-1.666 4.466-2.086 1.603-.374 3.234-.83 4.785-1.191 1.424-.333 3.135-1.464 4.466-2.086 1.326-.62 3.38-.262 4.785 0 1.532.286 3.263.539 4.785.894 2.139.5 3.402 1.49 5.104 2.681 1.373.963 3.19 2.012 4.785 2.384 1.709.4 2.956 1.192 4.785 1.192 1.993 0 .538-12.682.319-13.706-.915.073-3.715.021-5.423-.298-1.87-.349-3.233-.7-4.785-1.787-1.598-1.12-2.65-2.28-4.147-2.98-1.668-.779-2.838-1.192-4.785-1.192h-4.785c-2.36 0-3.024.441-4.147 1.49-1.292 1.207-2.265 2.704-3.51 3.575-.877.615-3.68.637-4.784.894-1.821.425-3.193 1.044-4.785 1.788-1.815.847-2.96 1.626-4.466 2.681-1.6 1.12-2.527 2.063-4.147 3.576-.4.373-.159 3.868-.32 4.47-.41 1.532-.564 3.003-.956 4.468-.375 1.4-.656 3.865-.656 4.226" fill="#bd223b" fill-rule="evenodd" stroke-width=".4"/><path d="M23.082 157.181v.005c-2.402.054-4.34 2.182-4.397 4.82h28.832c-.057-2.673-2.045-4.825-4.49-4.825-.026 0-.052.005-.079.005v-.005zm-4.8 4.835H47.92v5.545H18.282zm7.388-7.17v.003c-1.78.026-3.219 1.088-3.26 2.406h21.383c-.043-1.335-1.517-2.409-3.33-2.409-.02 0-.039.002-.059.003v-.003zM14.058 169.77h39.796l-.214 2.51-39.535-.214zm-3.424-2.22h43.057l-.047 2.212H10.681l-.047-2.213z" fill="#ecbd26" stroke-width=".4" stroke-linecap="round" stroke-linejoin="round"/></g><use xlink:href="#a" transform="rotate(-15 97.005 125.414)" width="885.827" height="531.496"/><use transform="matrix(-1 0 0 1 199.774 0)" xlink:href="#b" width="1000" height="600"/><path style="line-height:25.64212382%;text-align:start" d="M17.8 83.132c.191.268.28.525.266.771a1.13 1.13 0 0 1-.29.683c-.186.22-.438.418-.753.596a6.9 6.9 0 0 1-1.132.492l-.533.183.957 1.334c.057.08.127.144.21.19a.704.704 0 0 0 .34.059 5.202 5.202 0 0 0 .718-.125l.187.26-3.537 1.213-.187-.26.335-.149c.138-.064.23-.115.275-.153.094-.076.14-.146.14-.21.004-.065-.027-.144-.093-.235l-2.4-3.348a.615.615 0 0 0-.199-.182.657.657 0 0 0-.342-.062 2.617 2.617 0 0 0-.396.048 6.135 6.135 0 0 0-.348.066l-.187-.261 3.601-1.235c.844-.289 1.544-.407 2.102-.354.556.051.978.278 1.266.679m-1.672.786c-.256-.357-.545-.587-.867-.69-.321-.107-.735-.074-1.24.1l-.382.13 1.493 2.084.194-.066c.503-.172.824-.387.965-.644.142-.26.088-.564-.163-.914m11.688-1.348l.75 1.439-5.904 1.274-.15-.243c.101-.028.219-.064.353-.107.132-.045.217-.079.255-.101.09-.052.14-.11.15-.17.01-.06-.01-.131-.06-.212l-1.927-3.106a.538.538 0 0 0-.164-.173c-.064-.042-.171-.07-.322-.081a2.366 2.366 0 0 0-.381.004c-.141.01-.253.019-.337.027l-.15-.242 3.52-.759.15.242c-.093.027-.202.061-.327.102a2.127 2.127 0 0 0-.31.12c-.1.052-.152.111-.156.178a.345.345 0 0 0 .061.205l1.797 2.895c.085.136.165.241.24.314.077.073.165.12.267.14.102.022.227.024.373.007a8.29 8.29 0 0 0 .593-.11 7.69 7.69 0 0 0 .682-.18c.216-.07.354-.148.412-.236.088-.138.153-.32.194-.545.044-.227.064-.431.061-.611l.33-.071m9.394-4.618a4.618 4.618 0 0 0-.367.038.99.99 0 0 0-.393.123c-.108.06-.181.174-.22.341-.035.168-.045.42-.028.76l.104 2.066c.03.608-.177 1.086-.621 1.436-.445.349-1.048.506-1.81.47-.889-.04-1.585-.25-2.09-.63-.504-.38-.772-.89-.804-1.529l-.142-2.84a.465.465 0 0 0-.074-.238.562.562 0 0 0-.233-.187 1.386 1.386 0 0 0-.285-.095 4.064 4.064 0 0 0-.275-.055l-.015-.298 3.271.15.015.298a2.684 2.684 0 0 0-.575.067c-.11.027-.182.075-.217.147a.495.495 0 0 0-.045.243l.14 2.802c.028.55.185.957.47 1.22s.687.407 1.206.43c.51.024.903-.096 1.18-.359.276-.263.4-.663.373-1.2l-.094-1.883c-.017-.334-.055-.584-.116-.751a.729.729 0 0 0-.251-.37c-.08-.062-.216-.12-.408-.176a4.623 4.623 0 0 0-.4-.104l-.016-.305 2.704.124.016.305m4.629 7.602a5.895 5.895 0 0 1-1.801-1.323l-.364.134-.373-.175.395-2.059.377.178c.041.233.104.487.188.763s.193.539.328.789c.139.26.305.499.5.713.197.215.443.393.738.532.397.187.72.244.969.169a.645.645 0 0 0 .468-.515c.048-.22-.001-.445-.15-.679-.144-.234-.393-.494-.745-.78l-.635-.519c-.191-.157-.37-.31-.537-.459-.384-.347-.647-.71-.79-1.086a1.882 1.882 0 0 1-.093-1.08c.049-.22.148-.405.298-.556a1.27 1.27 0 0 1 .581-.33c.226-.06.5-.066.822-.019a3.6 3.6 0 0 1 1.013.32c.345.163.657.36.939.588.282.227.5.424.652.592l.32-.111.381.18-.39 1.933-.378-.178a8.539 8.539 0 0 0-.17-.776 3.712 3.712 0 0 0-.253-.714 2.485 2.485 0 0 0-.414-.598 1.999 1.999 0 0 0-.626-.449c-.315-.149-.592-.19-.829-.124a.576.576 0 0 0-.43.457c-.05.225-.005.449.135.673.144.225.387.478.731.76.202.168.407.338.617.51.21.173.397.33.558.474.39.347.666.704.827 1.068.165.364.204.738.118 1.124a1.188 1.188 0 0 1-.345.616 1.262 1.262 0 0 1-.634.326c-.27.057-.569.057-.895.002a4.313 4.313 0 0 1-1.103-.371m115.464-4.876c-.082.02-.2.057-.35.109a.968.968 0 0 0-.359.197c-.092.08-.14.206-.14.377.001.171.047.42.138.75l.55 2c.163.589.065 1.098-.294 1.527-.36.429-.915.701-1.669.817-.877.135-1.604.066-2.18-.206a2 2 0 0 1-1.12-1.337l-.758-2.751a.476.476 0 0 0-.124-.218.578.578 0 0 0-.268-.137 1.405 1.405 0 0 0-.3-.037 4.095 4.095 0 0 0-.281 0l-.08-.288 3.233-.497.08.288a2.652 2.652 0 0 0-.549.18c-.102.047-.161.109-.18.185a.493.493 0 0 0 .01.248l.747 2.713c.147.533.388.9.724 1.101.337.202.761.263 1.274.184.504-.078.863-.272 1.076-.584.213-.312.248-.728.104-1.249l-.502-1.822c-.089-.324-.181-.561-.277-.712a.75.75 0 0 0-.327-.313c-.09-.045-.236-.075-.437-.091a4.665 4.665 0 0 0-.414-.024l-.081-.295 2.672-.41.082.295m8.876.583l.26 1.758-5.718.6-.066-.299c.1-.018.218-.042.352-.072a1.51 1.51 0 0 0 .26-.078c.097-.047.159-.105.186-.173a.433.433 0 0 0 .007-.252l-.843-3.838a.525.525 0 0 0-.098-.222c-.045-.058-.135-.104-.268-.14a1.7 1.7 0 0 0-.346-.05 7.07 7.07 0 0 0-.313-.018l-.066-.3 3.409-.357.065.3a9.6 9.6 0 0 0-.325.068 1.912 1.912 0 0 0-.315.092c-.107.046-.171.106-.193.182a.47.47 0 0 0-.005.243l.786 3.578c.037.169.08.3.127.395.047.094.114.16.2.199.087.04.199.061.336.062.14-.001.33-.015.569-.04.233-.024.457-.06.67-.105.216-.05.364-.12.442-.212.12-.146.232-.344.335-.596.105-.254.183-.484.233-.691l.32-.034m8.329-1.249l-.332-.065a3.61 3.61 0 0 0-.344-.845c-.164-.308-.328-.49-.493-.543a6.731 6.731 0 0 0-.337-.095 6.456 6.456 0 0 0-.348-.08l-.202-.04-.499 4.334a.566.566 0 0 0 .027.26.45.45 0 0 0 .201.211c.063.036.163.081.298.134.138.052.255.092.351.122l-.035.304-3.409-.674.035-.304.353.038c.154.014.26.017.317.007.116-.02.197-.06.243-.123a.496.496 0 0 0 .085-.239l.503-4.373-.203-.04a6.37 6.37 0 0 0-.35-.057 6.493 6.493 0 0 0-.344-.04c-.17-.012-.368.097-.598.328a3.003 3.003 0 0 0-.514.675l-.331-.066.181-1.58 5.927 1.17-.182 1.581m7.139 7.661l-2.166-.97a33.99 33.99 0 0 0-.457-1.688 26.843 26.843 0 0 0-.512-1.506l-.22-.098-.6 1.589a.495.495 0 0 0-.032.248c.014.078.063.16.148.248.043.042.114.098.212.168.101.068.189.123.263.165l-.108.288-3.015-1.351.109-.288.314.106c.133.043.23.066.29.07.116.006.202-.013.259-.056a.474.474 0 0 0 .14-.21l1.392-3.69a.54.54 0 0 0 .04-.241c-.007-.072-.058-.156-.153-.25a2.155 2.155 0 0 0-.272-.217 7.57 7.57 0 0 0-.252-.169l.108-.287 3.17 1.42c.708.318 1.207.662 1.495 1.033.292.37.36.762.203 1.177-.138.367-.364.61-.676.732-.31.12-.72.138-1.232.056l.345 1.034c.134.393.275.797.423 1.211.046.133.113.3.201.504.091.202.185.343.282.424.055.045.126.094.214.148a4.1 4.1 0 0 0 .195.113l-.108.287m-1.244-5.105c.132-.35.122-.651-.03-.906-.149-.256-.418-.472-.808-.647l-.315-.141-.826 2.19.302.136c.39.175.729.216 1.015.123.287-.093.507-.345.662-.755m9.833 7.305l-3.331-.658.035-.304c.156.02.341.032.555.034.215 0 .326-.03.333-.09a.339.339 0 0 0-.001-.071.401.401 0 0 0-.022-.112l-.39-1.248-2.112-.418c-.061.097-.13.211-.207.342a27.33 27.33 0 0 0-.195.352 1.917 1.917 0 0 0-.135.296 1.19 1.19 0 0 0-.029.133c-.01.083.052.168.183.255.134.085.362.173.684.263l-.035.304-2.509-.496.035-.304c.096.014.203.022.324.024a.92.92 0 0 0 .619-.208 1.05 1.05 0 0 0 .244-.282l1.252-1.995 1.39-2.203.862.17c.42 1.363.747 2.44.982 3.23s.438 1.445.607 1.967c.028.086.067.166.117.243.05.073.126.15.226.227.075.058.165.107.269.15.104.041.199.073.284.095l-.035.304m-2.954-2.87l-.657-2.177-1.105 1.829 1.762.348" font-size="2.462" font-weight="700" font-family="Georgia" fill="#ecbd26"/><path class="fil1" d="M99.732 127.168H53.72v49.405l.87 3.136 1.606 3.27 3.367 1.954 3.481 1.277h31.942l4.747 3.53v-62.572z" fill="#ecbd26" fill-rule="evenodd"/><path d="M99.817 127.341h46.014v48.912l-.87 3.137-1.607 3.27-3.367 1.954-3.48 1.276h-31.943l-3.276 1.592-1.471 1.938zm-10.287-.197h5.058V185.5H89.53zM53.831 67.512h45.986v59.656H53.83V67.512zm15.392 59.85h5.058v58.651h-5.058v-58.65zm10.059-.296h5.058v59.039h-5.058zm-20.44.295v57.082h.358v.428h.372v.279h.721v.4h3.76v-58.19h-5.211z" fill="#bd223b" fill-rule="evenodd"/><path class="fil2" d="M145.746 67.512H99.732v59.656h46.014z" fill="#fff" fill-rule="evenodd"/><path class="fil4 str4" d="M111.53 186.115h21.022c13.032 0 13.194-7.698 13.194-15.712V67.513h-92v102.89c0 8.014.164 15.712 13.188 15.712l22.034.32m0 0c5.472.527 9.554 2.966 10.715 8.042m-.012.008c1.617-5.576 6.21-7.95 11.86-8.37" fill="none" stroke="#000" stroke-width=".829"/><g fill="#ecbd26" fill-rule="evenodd" stroke="#000"><path d="M159.177 159.427h10.655v11.785h11.958v-11.785h10.932v11.785h11.682v-11.785h11.011v25.714h-56.238zm7.252 25.714v112.143h41.734V185.14M187 262.593v-77.922m-20.72 26.72h41.587m-41.586 24.893h41.586m-41.586 26h41.586" transform="matrix(.12928 0 0 .14393 44.158 58.744)" stroke-width=".91"/><path d="M219.434 107.169h12.055v12.314h13.528v-12.314h12.368v12.314H270.6v-12.314h12.456v26.866h-63.623V107.17zm10.822 27.484V294.69h41.98V134.653m-21.288 93.684v-70.013m-20.841.465h41.831m-41.831 23.124h41.831m-41.831 24.153h41.831m-41.831 22.295h41.831m-41.831 24.152h41.831m-20.99 42.78V252.43m-6.67.257V228.08m15.428 24.608V228.08m-15.427-69.206v-24.609m15.129 24.609l.298-24.609" transform="matrix(.12928 0 0 .14393 44.158 58.744)" stroke-width=".88"/><path d="M283.825 159.427h10.856v11.785h12.182v-11.785h11.138v11.785h11.9v-11.785h11.219v25.714h-57.295zm7.388 25.714v112.143h42.518V185.14m-21.56 77.452V184.67m-21.109 26.72h42.368m-42.368 24.893h42.368m-42.368 26h42.368" transform="matrix(.12928 0 0 .14393 44.158 58.744)" stroke-width=".919"/><path d="M146.22 247.826v35.355l47.477-15.152v-36.113l-14.142 5.05v16.92l-20.456 7.071v-17.93l-12.88 4.799zm24.37 9.217v8.713m-24.37 8.182l47.477-15.152zm12.433-3.716v8.713m20.897-15.342v8.713m-22.471 7.592l-4.04 97.985-30.558 14.9 44.952 44.194 17.677-27.275 8.713-141.547m-40.737 110.174l31.494 31.906m-30.766-48.158l32.311 25.148M154.4 344.963l33.474 18.654m-32.707-35.831l34.087 11.277m-33.318-27.29l34.885 3.274m-34.556-20.507l35.805-2.79m-18.45 1.532v19.825m-2.147 20.455v20.708m-2.267 19.739v20.708m-6.584-6.63l-24.601 19.335m36.657-7.258l-21.856 22.306m201.262-174.644v35.355l-47.477-15.152v-36.113l14.142 5.05v16.92l20.456 7.071v-17.93l12.88 4.799zm-24.37 9.217v8.713m24.37 8.182l-47.477-15.152zm-12.433-3.716v8.713m-20.897-15.342v8.713m22.471 7.592l4.04 97.985 30.558 14.9-44.952 44.194-17.677-27.275-8.713-141.547m40.737 110.174l-31.494 31.906m30.766-48.158l-32.311 25.148m31.725-42.262l-33.474 18.654m32.707-35.831l-34.087 11.277m33.318-27.29l-34.885 3.274m34.556-20.507l-35.805-2.79m18.45 1.532v19.825m2.147 20.455v20.708m2.267 19.739v20.708m6.584-6.63l24.601 19.335m-36.657-7.258l21.856 22.306" transform="matrix(.12928 0 0 .14393 44.158 58.744)"/><path d="M223.537 250.538v8.713m53.242-8.713v8.713m-83.65-.314h113.446m-113.446 8.947h113.446m-69.038-8.433v8.087m-28-8.087v8.087m53.357-8.087v8.087m28-8.087v8.087m-98.565 24.257h115.537m-117.13 23.375H309.46m-119.787 24h120.85m-122.267 24.446H311.94m-125.1 24h126.517m-128.998 22.75h131.479M223.75 267.808v23.75m52.982-23.75v23.75M223.75 315.63v23.75m52.982-23.75v23.75m-72.714-47.768v23.75m92.536-23.75v23.75m-46.268-23.75v23.75m-46.268 24.25v23.75m92.536-23.75v23.75m-92.536 24.228v22.722m92.536-22.722v22.722m-7.963-.048l10.927 26.75m-36.336-26.396l3.565 26.577m-54.816-26.931l-10.927 26.75m36.335-26.396l-3.565 26.577m99.097-.218l-165.35.282-.044-.141 17.633-27.416 8.65-141.61-.063-36.176H213.9v18.435h20.96v-18.435h30.053v18.435h21.213v-18.435h20.616l-.261 36.239 8.713 141.547z" transform="matrix(.12928 0 0 .14393 44.158 58.744)"/><path d="M222.417 410.273s-.38-26.108 0-46.362c.378-20.243 13.566-26.453 27.685-26.16 14.118.294 27.108 5.2 27.724 26.654.616 21.446 0 45.89 0 45.89l-55.41-.022zm.28-19.702h54.606m-54.607-24h54.607m-48-22.085l20.87 24.242 20.872-24.242" transform="matrix(.12928 0 0 .14393 44.158 58.744)" stroke-linejoin="round"/><g fill="#1d4bba" stroke-linejoin="round"><path d="M401.451 325.18s-.332-16.46-.198-29.23c.133-12.764 4.987-16.68 9.97-16.494 4.984.185 9.63 3.279 9.848 16.805.217 13.521-.062 28.933-.062 28.933zm53.108 0s-.333-16.46-.2-29.23c.135-12.764 4.988-16.68 9.972-16.494 4.983.185 9.63 3.279 9.847 16.805.217 13.521-.061 28.933-.061 28.933z" transform="matrix(.12928 0 0 .14393 19.771 58.744)"/><path d="M368.985 221.117s-.219-9.608-.13-17.062c.087-7.45 3.285-9.735 6.568-9.627 3.283.108 6.344 1.914 6.487 9.809.143 7.892-.04 16.888-.04 16.888z" transform="matrix(.12928 0 0 .14393 19.771 58.744)" stroke-width=".774"/><path d="M432.012 199.91s-.27-12.22-.16-21.699c.107-9.475 4.032-12.381 8.062-12.244 4.03.138 7.787 2.434 7.963 12.475.175 10.038-.05 21.478-.05 21.478z" transform="matrix(.12928 0 0 .14393 19.771 58.744)" stroke-width=".793"/><path d="M493.625 221.105s-.219-9.986-.13-17.732c.087-7.742 3.285-10.117 6.568-10.005 3.283.112 6.344 1.989 6.487 10.194.143 8.202-.04 17.55-.04 17.55z" transform="matrix(.12928 0 0 .14393 19.771 58.744)" stroke-width=".789"/><path d="M425.926 409.21s-.403-19.415-.241-34.476c.162-15.053 6.052-19.671 12.1-19.453 6.047.218 11.686 3.867 11.95 19.82.264 15.948-.075 34.124-.075 34.124l-23.734-.016z" transform="matrix(.12928 0 0 .14393 19.771 58.744)"/></g></g><path d="M123.22 80.855c-.2-.032-.436-.059-.98-.059-.672 0-1.286.24-1.753.392-.468.153-.73.27-1.39.27-1.29 0-1.793-.717-1.793-1.296 0-.38.119-.685.345-.999a.578.578 0 0 0-.394-.138c-.443 0-.954.425-.954 1.279 0 1.31 1.075 1.917 2.132 1.917.97 0 1.894-.459 2.306-.624.412-.164.99-.314 1.35-.314.646 0 .88.054 1.167.13a1.52 1.52 0 0 0-.037-.558m-1.782-4.427c0 .223.14.46.395.46.197 0 .365-.242.407-.369-.14-.169-.438-.372-.727-.403a.613.613 0 0 0-.075.312z" fill="#fff"/><path d="M123.093 80.548a1.885 1.885 0 0 0-.337-.518 1.892 1.892 0 0 0-.887-.52 1.852 1.852 0 0 1-.35.81c-.096.127-.17.261-.246.324a3.8 3.8 0 0 1 .973-.14c.284 0 .589.017.847.044m-1.988 1.502c.496 0 .69.087 1.077.087.265 0 .82-.015 1-.447a4.947 4.947 0 0 0-1.088-.114c-.49 0-.86.12-1.196.242a.482.482 0 0 0 .14.234l.067-.002"/><path d="M130.93 86.302c.303-2.597.236-3.8.064-4.246.444-.027.82-.096 1.164-.263-.383-.414-.995-1.274-1.19-2.029-.163-.623-.535-1.61-.994-1.802.304-.108.522-.256.784-.672-.784-.413-1.122-.938-1.91-1.383.25-.162.468-.453.541-.755-.41-.061-.801-.235-1.19-.446-.062.341-.171.656-.502 1.064l-.226-.214c.206-.265.446-.68.446-1.015 0-.464-.336-.92-.567-1.069-.251-.161-.477-.136-1.004.264-.176.14-.587.558-.822.783l-.166-.219c.23-.247.523-.508.664-.642a1.695 1.695 0 0 0-.377-.042c-.443 0-.877.065-1.224.366-2.215 0-3.356 1.402-3.597 2.066-.85.558-1.792 1.41-1.792 2.02 0 .162.02.264.053.336.228-.131.45-.348.65-.546l.135.17c-.17.192-.522.5-.67.606-.111.162-.139.43-.139.66 0 .681.635 1.267 1.294 1.267.94 0 1.272-.968 1.217-1.414.51-.046 1.958.527 1.958 2.18 0 1.03-1.016 1.14-1.37 1.14-.358 0-.622-.122-1.015-.122-.394 0-.576.155-.576.45 0 .4.415.759.866.759.443 0 .476-.407.83-.407.21 0 .565.122.565.768 0 .641-.604.912-1.205.912-1.388 0-2.342-1.126-2.746-1.126v1.409c-1.286 0-1.713-.4-2.247-.946-.44.4-.924 1.168-.924 2.037 0 .603.045 1.1.155 1.445-1.1.174-2.232 1.366-2.771 2.763-.345.889-.439 1.362-1.145 1.697.396 1.088 1.275 1.64 2.109 1.675-.525.664-.219 2.12.169 2.184.508-.52 1.05-.636 1.636-.636 1.35 0 2.08.534 3.39.534 2.493 0 4.082-.944 5.287-2.123.548.293 1.35.45 1.725.45.735 0 1.364-.309 1.684-.802-.253-.373-.563-1.287-.344-1.955.304.275.871.478 1.31.371-.095-1.133.162-2.128.458-2.563a4.48 4.48 0 0 0 .628-1.569h1.229a2.147 2.147 0 0 1-.297-1.37zm-8.302-9.296s-.13-.245-.266-.387c-.058.18-.291.44-.527.44-.338 0-.552-.342-.552-.65a.93.93 0 0 1 .164-.498c.404.042.942.29 1.357.939 0-.003-.176.156-.176.156zm17.242 25.47c1.263-1.734.795-3.627.795-4.498 0-1.273 1.152-2.103 1.152-3.154 0-.29-.008-.538-.132-.803-.526.58-.844.529-1.311.751-.529.253-1.023.863-.894 1.549-.743-.584-1.909-1.33-1.909-2.531 0-1.725 2.789-1.25 2.789-3.083-.278.458-.616.67-1.103.67-.483 0-1.124-.331-1.764-.331-1.196 0-1.681.94-1.681 1.405 0 .466.006.84.2 1.222-.897-.364-1.616-1.33-1.616-2.611 0-3.811 4.713-2.687 5.3-5.326-1.666 1.43-2.905.187-4.45 1.336.077-.448.226-.74.585-1.076-.97.087-1.632.337-2.483 1.204.645-2.262 1.764-3.058 3.354-3.326 2.976-.5 4.374-2.644 4.374-4.972 0-.873-.067-1.466-.262-2.096-.476 1.377-1.735 2.33-2.886 2.757a2.728 2.728 0 0 0 .179-1.821c-.24.135-.808.527-1.138.696-.698.364-2.857 1.328-2.483 4.544-.894.872-2.413 2.364-2.413 5.487 0 2.391 2.25 5.667 3.733 6.686 1.485 1.02 3.684 2.005 3.684 4.216 0 2.15-1.381 3.705-3.237 3.705-.622 0-1.033-.129-1.494-.533.2-.238.303-.617.303-1.075 0-2.623-3.533-4.05-6.55-6.18-.4-.281-.695-.572-1.035-1.024-.278.177-.813.214-1.244.214-.376 0-.964-.135-1.563-.37-1.135 1.037-2.894 2.069-5.385 2.069-1.312 0-2.153-.54-3.316-.54-.585 0-1.226.171-1.644.795-.674-.238-1.026-1.423-.674-2.412-.616-.152-1.178-.46-1.634-1.143-.675.49-1.686 1.218-2.35 1.407-.662.187-2.144 1.045-2.53 1.045-.598 0-.958-.697-1.383-.697-.506 0-1.05.67-1.05 1.076 0 .483.369.925.73 1.107-.926-.033-1.224.278-1.185.91.522.093.85.878.722 1.357.04.122.242.245.457.175-.067.312-.227.975.199 1.363.165-.348.384-.465.699-.465.313 0 .584.333.659.572a.609.609 0 0 0 .437-.58c0-.61.275-1.019.508-1.034.075.374.366.495.604.58-.038-.665.36-.876.622-.876.414 0 .593.2.75.539.241-.102.391-.397.38-.73-.01-.333-.058-.472-.22-.631.127-.16.765-.51 1.473-.51 1.049 0 1.525.396 2.2.882.208-.159.404-.43.429-.837.46-.057.802.574 1.238 1.24.268-.167.689-.768.622-1.302.93.078 1.426.363 2.015.77.389-.213.527-.716.549-1.162 2.114 2.302 4.169 2.949 6.838 3.146 2.036.151 3.22 1.486 3.395 2.154-.319-.184-.717-.279-1.225-.279-1.333 0-2.406 1.817-2.406 3.644 0 1.292.185 2.402 1.32 3.767 1.06 1.264 1.339 1.419 1.339 2.657.581-.188.738-.507.895-.931.009.955.398 1.78.98 1.984.314-.669.582-1.074.957-1.34.107 2.718-2.27 4.243-3.114 4.243-.68 0-.728-.422-1.277-.422-.542 0-1.178.502-1.178 1.204 0 .439.248.742.516.917-.649.38-.728.768-.68 1.3.81-.181 1.142.665.993 1.215.502.119.866-.141 1.124-.4.08.274.31.534.585.616.173-.334.443-.577.774-.577.334 0 .61.143.75.659.375-.09.823-.864.603-1.397.382-.116.764-.722.782-1.142.255.372.59.66.95.476-.037-.713.503-1.228.862-1.228.21 0 .381.033.516.11a.853.853 0 0 0 .084-.369c0-.337-.256-.592-.485-.73.692-.494 1.354-1.5 1.55-2.15.056.422.25.753.632.841.262-.245.355-.448.394-.99.719.26 1.456.207 1.712-.29a1.24 1.24 0 0 1-.384-.9c0-1.054.32-1.472.32-2.43 0-.982-.626-1.784-1.418-1.784-.522 0-.973.23-1.202.521-.994 0-2.017-1.22-2.017-2.559 0-1.276.73-2.035 1.606-2.5.54.262 1.415.563 2.337.563.92 0 1.628-.301 1.962-.653.127.147.407.41.792.41.668 0 1.094-.218 1.428-.681.33-.464.594-.923 1.179-1.47-.46-.292-1.036-.206-1.51.195m-26.91-12.403c.54-1.187 1.517-2.4 2.618-2.693-.06-.343-.12-.59-.12-1.192 0-.232.064-.606.121-.82-1.297-.751-3.384-2.156-3.778-2.78-1.123-1.776-2.076-2.438-2.063-3.404.005-.4.245-.968.245-1.472 0-.505-.555-.73-.907-.73-.408 0-.835.14-.855.56-.018.42.132.794.185 1.01.07.291.037.702-.008 1.023-.37-.45-.73-.971-.73-1.431 0-.472-.368-.815-.793-.794-.425.024-1.102.592-1.102 1.143 0 .481.321.668.617.881.192.141.403.312.526.816a1.587 1.587 0 0 0-.958-.274c-.389 0-.925.205-.925.96 0 .947.626 1.313 1.329 1.417-.054.694.493 1.767 1.462 1.767a.625.625 0 0 0 .518-.274c1.167 1.768 1.343 3.102 1.349 4.142.442 0 .84-.129.926-.882.432 1.403.37 2.515.026 3.577.464.084 1.138-.163 1.307-.73.43.804.466 1.064.479 1.462.28-.429.251-.673.53-1.282m15.23 11.798c-.63-.825-1.941-1.277-2.885-1.315-.004 0 .004-.008-.009.007 1.129.309 1.6.787 1.915 1.262.45-.077.832-.028.98.046m-3.082-1.04c-.197.248-.414.46-.616.46-.812 0-1.345-.047-2.09-.047-3.283 0-5.703 2.295-5.703 4.92 0 1.605-.061 1.958-.51 2.508.197.17.5.282.759.27-.435 1.312-2.434 1.736-2.918 1.736-.677 0-.695-.708-1.461-.708-.498 0-1.124.255-1.124.893 0 .29.06.608.16.788-.277-.172-.59-.212-.85-.212-.46 0-.972.475-.972 1.127 0 .607.355 1.228.785 1.228.25 0 .448-.02.653-.081-.385.588-.469 1.124-.06 1.562.078-.214.348-.554.875-.554.393 0 .816.414.718 1.032.432-.116 1.054-.511.937-1.725.34 0 .7-.11.848-.298.08.398.295.792.722.976.117-.244.426-.63.791-.63.402 0 .59.2.707.409.209-.32.332-.591.156-1.167.59-.169 1.873-.691 2.56-1.22l.302.67c.492-.212.963-.688 1.232-1.156.241.365.26.72.285 1.175.956-.74 1.9-1.702 1.9-3.42 0-1.569-.546-1.554-.546-2.403 0-.843.691-1.995 1.805-1.995.25 0 .362.003.493.013.186-1.388.993-2.684 1.91-3.056-.37-.51-.993-.884-1.748-1.096" fill="#bd223b"/><path d="M123.22 80.855c-.2-.032-.436-.059-.98-.059-.672 0-1.286.24-1.753.393-.468.152-.73.27-1.39.27-1.29 0-1.793-.718-1.793-1.296 0-.38.119-.686.345-1a.578.578 0 0 0-.394-.138c-.443 0-.954.425-.954 1.28 0 1.31 1.075 1.916 2.132 1.916.97 0 1.894-.459 2.306-.624.412-.164.99-.314 1.35-.314.646 0 .88.054 1.167.13a1.52 1.52 0 0 0-.037-.558m-2.977-.05c.017.059.05.14.07.168 0 0 .254-.072.254-.074a.957.957 0 0 0 .006-.126.826.826 0 0 1-.33.033m.274 1.476c.066-.109.153-.162.298-.197a.807.807 0 0 1-.094-.209c0-.001-.213.09-.213.088a.57.57 0 0 0 .009.318M108.893 76.7c.219 0 .387.01.547.063-.172-.508-.467-.814-.972-.814-.49 0-.771.218-.925.494.314.194.48.346.608.582a.974.974 0 0 1 .742-.325m-1.932.391c-.196-.36-.487-.507-.862-.507-.562 0-.91.535-.966 1.055.262.014.423.075.587.187.212-.321.682-.772 1.241-.735m-2.122 3.364c-.429.096-.81.575-.81 1.222 0 .518.25.927.433 1.172.105-.496.365-.8.602-.923a1.8 1.8 0 0 1-.225-1.47m1.832 3.382c-.2.188-.31.308-.806.421.107.218.476.712.959.712.37 0 .783-.217 1.036-.645-.644.008-.948-.247-1.19-.488m-2.568 14.132c-.33.134-.49.47-.49.811 0 .464.231.832.579 1.17.11-.499.363-.714.516-.815.11-.355-.093-1.079-.605-1.166m1.146-3.48a1.55 1.55 0 0 0-.399-.055c-.598 0-.958.459-1.154.973.327-.018.557.037.737.143.034-.312.3-.804.816-1.06m1.007 5.963c-.343 0-.456.326-.499.436-.048.48.418 1.002.923.976a2.22 2.22 0 0 1 .105-.852c-.1-.333-.282-.56-.529-.56m2.908-1.396c-.472 0-.437.535-.422.844.059.193.226.48.38.676.481-.38.556-.6.624-.934-.107-.385-.305-.586-.582-.586m2.796 10.69c-.084-.073-.23-.162-.5-.162-.59 0-.908.574-.951 1.128.175-.033.499-.04.68.046-.003-.513.326-.82.771-1.011m-2.282 2.183c-.326.064-.847.48-.847 1.188 0 .521.208.904.41 1.178.155-.435.362-.593.547-.742-.302-.476-.356-1.2-.11-1.624m2.316 3.069c-.426 0-.64.39-.683.572-.009.429.37.874.666 1.053.225-.18.41-.522.485-.703.114-.327.01-.922-.468-.922m4.094-.658c-.366 0-.6.498-.6.494.198.224.29.428.136.908.522-.016 1.09-.454 1.036-.908 0 0-.204-.494-.572-.494m9.48 1.254c-.078-.054-.245-.094-.406-.094-.78 0-1.124.768-.95 1.786a1.03 1.03 0 0 1 .617-.427c-.053-.48.3-1.073.738-1.265m-.447 3.772a1 1 0 0 0-.374.078c-.185.167-.331.4-.331.922 0 .412.197.798.426.912.305-.54.632-.792.797-.89.157-.487-.033-1.022-.518-1.022m3.3.879c-.253 0-.443.195-.617.53.188.45.317.894.335 1.316.454-.316.727-.74.808-1.173-.028-.315-.194-.673-.527-.673m3.38-1.571c.18.094.34.241.535.752.28-.053.772-.568.772-1.05 0-.1-.037-.348-.166-.53-.143-.125-.392-.183-.56-.183-.215 0-.626.37-.58 1.01m-11.227-37.903a.826.826 0 0 1-.33.033c.017.058.05.139.07.167 0 0 .254-.072.254-.074a.957.957 0 0 0 .006-.126m.242 1.312a.807.807 0 0 1-.094-.209c0-.001-.213.09-.213.088a.57.57 0 0 0 .009.318c.066-.109.153-.162.298-.197" fill="#e10000"/><path d="M99.768 67.772v106.966m-46.064-47.57h92.057" fill="none" stroke="#000" stroke-width=".314"/><path d="M99.721 167.483c-.933 5.62-6.254 15.813-13.832 18.709 0 0 2.032.141 3.033.215 6.389.468 9.892 3.603 10.713 7.953h.018c.92-4.374 6.06-8.32 12.056-8.372.669-.005 2.281-.26 2.918-.14-7.244-2.119-13.723-12.97-14.894-18.502z" fill="#fff" stroke="#000" stroke-width=".292"/><path d="M101.255 178.254c1.224.41 1.845 1.425 1.845 2.614 0 1.548-1.349 2.723-3.1 2.723-1.75 0-3.17-1.175-3.17-2.723 0-1.17.584-2.478 1.8-2.572 0 0-.036-.123-.141-.324-.126-.15-.376-.43-.376-.43s.465-.098.733.016c.27.113.448.303.448.303s.127-.278.305-.493a1.77 1.77 0 0 1 .412-.347s.27.252.358.42c.088.175.145.38.145.38s.247-.226.462-.319c.215-.094.492-.168.492-.168s-.08.298-.132.45c-.053.151-.08.47-.08.47" font-size="12" fill="#ffd691" stroke="#000" stroke-width=".32"/><path d="M99.741 185.27s-2.327-1.746-3.337-1.982c-1.29-.303-2.74-.058-3.368-.095.018.02.753.604 1.075.965.323.358 1.398 1.075 2.006 1.245 1.889.527 3.624-.132 3.624-.132m.665.152s1.491-1.726 3.052-1.964c1.845-.285 3.052.17 3.769.377.016 0-.592.322-.914.567-.324.245-1.154 1.02-2.425 1.036-1.272.021-2.676-.148-2.91-.109a36.19 36.19 0 0 0-.572.093" font-size="12" fill="#058e6e" stroke="#000" stroke-width=".32"/><path d="M99.959 183.288a3.475 3.475 0 0 1-.951-2.422c0-.953.367-1.814.953-2.417.584.603.945 1.464.945 2.417 0 .955-.364 1.816-.947 2.422" font-size="12" fill="#ad1519" stroke="#000" stroke-width=".32"/><path d="M99.366 186.827s.36-.99.395-1.84c.03-.713-.09-1.417-.09-1.417h.465s.233.757.233 1.416c0 .661-.108 1.54-.108 1.54s-.322.056-.43.112c-.105.058-.465.19-.465.19" font-size="12" fill="#058e6e" stroke="#000" stroke-width=".32"/><g id="d" transform="translate(-400.13 -196.481) scale(1.12889)" fill="#ecbd26" stroke="#000" stroke-width=".2"><path id="c" d="M462.906 308.438a3.024 3.024 0 0 0-2.562 2.968c0 1.63 1.338 2.938 3 2.938 1.661 0 3-1.308 3-2.938 0-1.63-1.339-2.968-3-2.969-.078 0-.143-.005-.219 0-.073.006-.147-.01-.219 0zm.156 1.156c.078-.012.17.002.25 0h.032c1.05 0 1.906.825 1.906 1.812 0 .987-.857 1.781-1.906 1.781-1.05 0-1.906-.794-1.906-1.78 0-.896.707-1.68 1.625-1.813z" fill-rule="evenodd"/><use height="531.496" width="885.827" transform="translate(-14.38)" xlink:href="#c"/><use height="531.496" width="885.827" transform="translate(14.38)" xlink:href="#c"/></g><use xlink:href="#d" transform="translate(-.008 -18.41)" width="885.827" height="531.496" fill="#ecbd26" stroke="#000" stroke-width=".2"/><use xlink:href="#d" transform="translate(-.016 18.41)" width="885.827" height="531.496" fill="#ecbd26" stroke="#000" stroke-width=".2"/><g id="j" transform="translate(-400.17 -196.278) scale(1.12889)" fill="#ecbd26" stroke="#000" stroke-width=".2"><path id="e" d="M454.075 292.916c-.013.007-.05.023-.063.031-.019.014-.043.05-.062.063a1.216 1.216 0 0 0-.188.187c-.266.352-.437.972-.437 1.688 0 .681.161 1.296.406 1.656.022.03.068.093.094.125l.063.063c.03.026.09.07.125.093.024.01.073.024.093.032.02.006.069.025.094.03h3.75c.022-.004.072-.023.094-.03l.094-.032a.38.38 0 0 0 .062-.031c.016-.016.052-.054.063-.062.035-.032.092-.085.125-.125.27-.35.468-.997.468-1.72 0-.794-.243-1.493-.562-1.812l-.031-.031c-.017-.014-.046-.019-.063-.031-.02-.013-.069-.048-.094-.063l-.062-.031zm.813 1.344h2.312c.022.006.074.025.094.031a.709.709 0 0 1 .312.219c.018.026.048.065.063.094.01.021.023.07.031.093.008.024.027.07.031.094.004.025 0 .067 0 .094 0 .016.002.044 0 .062a1.33 1.33 0 0 1-.031.157 1.425 1.425 0 0 1-.063.125c-.008.015-.023.05-.03.062l-.032.031c-.011.012-.05.052-.063.063-.012.01-.048.022-.062.031a.856.856 0 0 1-.125.063c-.007.002-.024.029-.031.03-.02.006-.072-.005-.094 0-.005.002-.026.031-.031.032h-2.188c-.032-.003-.094-.024-.125-.031-.007-.002-.025.002-.031 0-.025-.011-.07-.048-.094-.063-.006-.004-.024-.026-.031-.031-.014-.012-.049-.049-.063-.062-.02-.021-.047-.043-.062-.063-.023-.035-.043-.108-.063-.156-.006-.02-.026-.046-.03-.063a1.377 1.377 0 0 1-.032-.156v-.031c0-.016-.002-.047 0-.063.006-.039.021-.088.031-.125.005-.014.024-.046.031-.062.02-.042.043-.095.063-.125.015-.02.044-.07.063-.094.023-.018.074-.049.093-.062.02-.013.068-.049.094-.063.02-.007.038-.024.063-.031z" stroke-linecap="round" stroke-linejoin="round"/><use height="531.496" width="885.827" transform="translate(14.5)" xlink:href="#e"/></g><g id="g" transform="translate(-400.169 -196.278) scale(1.12889)" fill="#ecbd26" stroke="#000" stroke-width=".2"><use height="531.496" width="885.827" transform="rotate(90 455.622 302.65)" id="f" xlink:href="#e"/><use transform="translate(-14.4)" height="531.496" width="885.827" xlink:href="#f"/><use height="531.496" width="885.827" transform="translate(14.4)" xlink:href="#f"/></g><use xlink:href="#g" transform="translate(0 18.288)" width="885.827" height="531.496" fill="#ecbd26" stroke="#000" stroke-width=".2"/><g id="i" transform="translate(-400.17 -196.278) scale(1.12889)" fill="#ecbd26" stroke="#000" stroke-width=".2"><use height="531.496" width="885.827" transform="rotate(52.723 447.861 298.776)" id="h" xlink:href="#e"/><use height="531.496" width="885.827" transform="matrix(-1 0 0 1 926.762 0)" xlink:href="#h"/></g><use transform="matrix(1 0 0 -1 0 309.872)" xlink:href="#i" width="885.827" height="531.496" fill="#ecbd26" stroke="#000" stroke-width=".2"/><use transform="translate(0 18.41)" xlink:href="#j" width="885.827" height="531.496" fill="#ecbd26" stroke="#000" stroke-width=".2"/><use transform="translate(0 36.822)" xlink:href="#j" width="885.827" height="531.496" fill="#ecbd26" stroke="#000" stroke-width=".2"/><g id="l" transform="matrix(1.12889 0 0 1.16426 -399.862 -206.9)" fill="#ecbd26" stroke="#000" stroke-width=".197"><path id="k" d="M463.655 297.243c-.005-.49-.245-.886-.541-.886-.296 0-.536.396-.541.886v3.534c0 .497.242.9.54.9.3 0 .542-.403.542-.9z" stroke-linecap="round" stroke-linejoin="round"/><use height="531.496" width="885.827" transform="translate(14.398)" xlink:href="#k"/><use height="531.496" width="885.827" transform="translate(-14.398)" xlink:href="#k"/></g><use xlink:href="#l" transform="translate(.008 9.205)" width="885.827" height="531.496" fill="#ecbd26" stroke="#000" stroke-width=".2"/><use xlink:href="#l" transform="translate(.016 27.616)" width="885.827" height="531.496" fill="#ecbd26" stroke="#000" stroke-width=".2"/><g id="n" transform="translate(-400.016 -196.22) scale(1.12889)" fill="#ecbd26" stroke="#000" stroke-width=".2"><path id="m" d="M454.013 295.357c.444-.004.802-.23.802-.508 0-.277-.358-.503-.802-.507h-3.196c-.45 0-.815.227-.815.507s.365.508.815.508z" stroke-linecap="round" stroke-linejoin="round"/><use height="531.496" width="885.827" transform="translate(7.2)" xlink:href="#m"/><use height="531.496" width="885.827" transform="translate(14.4)" xlink:href="#m"/><use height="531.496" width="885.827" transform="translate(21.6)" xlink:href="#m"/></g><use xlink:href="#n" transform="translate(.016 18.41)" width="885.827" height="531.496" fill="#ecbd26" stroke="#000" stroke-width=".2"/><use xlink:href="#n" transform="translate(.008 36.822)" width="885.827" height="531.496" fill="#ecbd26" stroke="#000" stroke-width=".2"/><use xlink:href="#l" transform="translate(.024 18.41)" width="885.827" height="531.496" fill="#ecbd26" stroke="#000" stroke-width=".2"/><g id="p" transform="translate(-400.177 -196.422) scale(1.12889)" fill="#ecbd26" stroke="#000" stroke-width=".2"><path id="o" d="M469.649 305.491c.515-.59.749-1.208.521-1.386-.228-.177-.832.153-1.354.737l-.016.017-3.716 4.205-.01.01c-.526.596-.766 1.224-.536 1.403.23.18.844-.158 1.37-.754l.01-.01 3.715-4.204z" stroke-linecap="round" stroke-linejoin="round"/><use height="531.496" width="885.827" transform="matrix(-1 0 0 1 926.687 0)" xlink:href="#o"/><use height="531.496" width="885.827" transform="translate(6.835 -8.219)" xlink:href="#o"/><use height="531.496" width="885.827" transform="matrix(-1 0 0 1 920.008 -8.219)" xlink:href="#o"/></g><use xlink:href="#p" transform="matrix(1 0 0 -1 .008 310.085)" width="885.827" height="531.496" fill="#ecbd26" stroke="#000" stroke-width=".2"/><g id="a" transform="translate(-400.17 -196.278) scale(1.12889)"><path d="M444.77 196.972l.023 1.767h-4v-1.696c-2.23 0-5.714.288-9.314.715l4.088 12.17 15.55-.269c4.095-9.774 5.821-11.847 2.428-12.169-3.393-.322-6.545-.492-8.775-.518z" fill="#ecbd26" fill-rule="evenodd" stroke="#000" stroke-width=".225"/><path id="q" d="M437.005 200.525c5.904-.606 11.809 0 11.809 0" fill="none" fill-opacity=".75" fill-rule="evenodd" stroke="#000" stroke-width=".225"/><use height="531.496" width="885.827" transform="translate(0 3.4)" xlink:href="#q"/><path d="M439.11 200.4l.281 3.331m3.007 3.894v-4.023m2.92.086l.173-3.396" fill="none" fill-opacity=".75" fill-rule="evenodd" stroke="#000" stroke-width=".225"/></g><use xlink:href="#a" width="885.827" height="531.496" transform="scale(-1 1) rotate(-15 -2.398 880.457)"/><g id="s" transform="translate(-400 -196.278) scale(1.12889)"><g id="r" stroke="#000"><path style="marker:none" overflow="visible" d="M399.374 195.548l10.707-4.599 8.152 18.98-10.707 4.599z" color="#000" fill="#ecbd26" stroke-width=".373" stroke-linecap="round" stroke-linejoin="round"/><path style="marker:none" d="M396.476 191.68l1.916 4.461 12.797-5.496-1.916-4.46-2.155.925.909 2.117-2.876 1.235-.91-2.116-2.558 1.098.94 2.188-2.883 1.239-.94-2.189-2.324.999z" overflow="visible" color="#000" fill="#ecbd26" stroke-width=".303" stroke-linecap="round" stroke-linejoin="round"/><path d="M400.773 198.749l10.525-4.52m1.456 3.197l-10.685 4.34m1.326 3.087l10.692-4.438m1.32 3.185l-10.546 4.28m1.377 3.398l10.524-4.52m-9.3-7.142l1.336 2.917m2.686-.905l1.266 2.947m-7.007-.64l1.22 3.036m-5.1-12.264l1.265 2.947m4.308-5.257l1.236 2.876m-.82 15.312l1.326 3.087m5.58-5.97l1.195 2.977" fill="#ecbd26" fill-rule="evenodd" stroke-width=".226"/><path d="M403.831 202s-.64-1.328-1.089-2.378c-.448-1.05-.008-1.605.598-1.833.606-.227 1.277-.2 1.796.894a61.368 61.368 0 0 1 1.046 2.366z" fill="#bd223b" fill-rule="evenodd" stroke-width=".108" stroke-linejoin="round"/><path d="M409.147 199.88s-.65-1.352-1.107-2.421c-.457-1.068-.018-1.63.587-1.857.606-.227 1.28-.195 1.807.92a63.585 63.585 0 0 1 1.065 2.409l-2.352.95z" fill="#bd223b" fill-rule="evenodd" stroke-width=".109" stroke-linejoin="round"/><path d="M410.9 213.151s-1.035-2.218-1.766-3.965c-.732-1.747-.08-2.612.84-2.928.919-.316 1.948-.213 2.789 1.614.84 1.825 1.701 3.942 1.701 3.942z" fill="#bd223b" fill-rule="evenodd" stroke-width=".17" stroke-linejoin="round"/></g><use height="531.496" width="885.827" transform="rotate(17.371 435.29 272.076)" xlink:href="#r"/></g><use transform="matrix(-1 0 0 1 199.493 0)" xlink:href="#s" width="885.827" height="531.496"/><path style="marker:none" d="M99.595 40.624c-14.841.019-28.216 2.253-38.09 5.807l-1.093.431.136-.096c-.16.06-.337.115-.495.176l.032.024-.39.103c2.786 3.17 4.69 9.49 4.69 16.776 0 .235-.012.469-.016.702h2.529c7.89-2.633 19.65-4.316 32.801-4.316 13.15 0 24.904 1.683 32.794 4.316h2.449c-.003-.204-.016-.401-.016-.606 0-7.363 1.943-13.736 4.778-16.872l-.878-.271.058-.022-1.166-.345c-9.88-3.554-23.3-5.788-38.123-5.807z" overflow="visible" color="#000" fill="#ecbd26" stroke="#000" stroke-width=".384" stroke-linecap="round" stroke-linejoin="round"/><path d="M64.082 58.653c22.96-7.062 48.313-8.291 71.133 0M79.63 54.936l.82 4.143m-17.486-5.322c23.777-7.205 49.932-8.56 73.624-.259m-72.156 9.344c22.734-6.997 47.705-7.483 70.344.172M60.86 48.798c24.985-7.77 52.462-8.445 77.387-.058m-53.121.215c.28 1.684.562 3.368.843 5.051m-12.528-3.115l1.24 4.96m-10.276-2.627l1.24 4.88m28.846-9.959l.402 4.902m10.348-5.14l-.322 5.136m10.215-4.498c-.299 1.662-.563 3.33-.884 4.987m11.18-3.056l-1.126 4.825m10.375-2.324l-1.206 5.212m-65.07-11.655l1.528 5.148m19.143-8.365l.563 4.987m21.878-4.987l-.644 4.826m20.35-1.528l-1.448 4.665M100.1 53.064l.119 4.558m19.176-3.272l-.93 4.695" fill="none" stroke="#000" stroke-width=".249"/><path d="M99.616 61.623c-13.607.017-25.842 2.05-34.61 5.318-.595.24-1.322-.326-1.508-.988-.187-.703.236-1.571.813-1.811 8.817-3.387 21.357-5.524 35.305-5.541 13.93.017 26.52 2.154 35.336 5.541.578.24 1 1.108.814 1.81-.168.663-.914 1.229-1.49.99-8.782-3.268-21.07-5.302-34.66-5.32zm.113-20.013c-15.462.02-29.365 2.412-39.327 6.256-.676.282-1.502-.383-1.714-1.163-.212-.826.268-1.848.924-2.13 10.02-3.985 24.267-6.498 40.117-6.518 15.828.02 30.133 2.533 40.152 6.518.656.282 1.136 1.304.924 2.13-.19.78-1.038 1.445-1.694 1.163-9.977-3.844-23.941-6.236-39.382-6.257z" style="marker:none" font-size="12" overflow="visible" color="#000" fill="#ecbd26" stroke="#000" stroke-width=".375" stroke-linecap="round" stroke-linejoin="round"/><path id="t" d="M98.32 47.143s-.07-1.334-.069-2.367c.002-1.033.707-1.338 1.436-1.31.73.026 1.414.288 1.465 1.384.05 1.095.03 2.342.03 2.342l-2.861-.049z" fill="#bd223b" fill-rule="evenodd" stroke="#000" stroke-width=".109" stroke-linejoin="round"/><use xlink:href="#t" transform="rotate(8.993 101.077 181.773)" width="885.827" height="531.496"/><use xlink:href="#t" transform="rotate(-10.181 99.748 162.84)" width="885.827" height="531.496"/><g id="v" transform="translate(-400.17 -196.278) scale(1.12889)"><path d="M417.07 227.895s-.568-1.81-.946-3.227c-.377-1.417.279-2.027 1.084-2.188.805-.16 1.646.012 2.104 1.5.458 1.489.895 3.204.895 3.204l-3.137.71z" id="u" fill="#bd223b" fill-rule="evenodd" stroke="#000" stroke-width=".137" stroke-linejoin="round"/><use height="531.496" width="885.827" transform="rotate(9.403 442.028 326.024)" xlink:href="#u"/></g><use transform="matrix(-1 0 0 1 199.138 0)" xlink:href="#v" width="885.827" height="531.496"/></g></svg>