<?xml version="1.0" encoding="UTF-8" standalone="no"?>
<!-- Created with Inkscape (http://www.inkscape.org/) -->
<svg
   xmlns:dc="http://purl.org/dc/elements/1.1/"
   xmlns:cc="http://web.resource.org/cc/"
   xmlns:rdf="http://www.w3.org/1999/02/22-rdf-syntax-ns#"
   xmlns:svg="http://www.w3.org/2000/svg"
   xmlns="http://www.w3.org/2000/svg"
   xmlns:sodipodi="http://sodipodi.sourceforge.net/DTD/sodipodi-0.dtd"
   xmlns:inkscape="http://www.inkscape.org/namespaces/inkscape"
   width="1507.7834"
   height="1019.1309"
   id="svg2"
   inkscape:label="Pozadí"
   sodipodi:version="0.32"
   inkscape:version="0.45.1"
   version="1.0"
   sodipodi:docbase="C:\Documents and Settings\Administrator\Plocha"
   sodipodi:docname="Flag of TRWT.svg"
   inkscape:output_extension="org.inkscape.output.svg.inkscape">
  <defs
     id="defs2194" />
  <sodipodi:namedview
     id="base"
     pagecolor="#ffffff"
     bordercolor="#666666"
     borderopacity="1.0"
     inkscape:pageopacity="0.0"
     inkscape:pageshadow="2"
     inkscape:zoom="0.35"
     inkscape:cx="375"
     inkscape:cy="520"
     inkscape:document-units="px"
     inkscape:current-layer="layer1"
     inkscape:window-width="1024"
     inkscape:window-height="721"
     inkscape:window-x="-4"
     inkscape:window-y="-4" />
  <metadata
     id="metadata2197">
    <rdf:RDF>
      <cc:Work
         rdf:about="">
        <dc:format>image/svg+xml</dc:format>
        <dc:type
           rdf:resource="http://purl.org/dc/dcmitype/StillImage" />
      </cc:Work>
    </rdf:RDF>
  </metadata>
  <g
     inkscape:label="Vrstva 1"
     inkscape:groupmode="layer"
     id="layer1"
     transform="translate(311.74886,10.923517)">
    <g
       id="g2187"
       transform="matrix(1.548831,0,0,1.548831,-313.67408,-1086.6727)">
      <path
         style="fill:#fcfcfc"
         d="M 1.7407407,1023.5556 L 1.7407407,694.55556 L 488.24074,694.55556 L 974.74074,694.55556 L 974.74074,1023.5556 L 974.74074,1352.5556 L 488.24074,1352.5556 L 1.7407407,1352.5556 L 1.7407407,1023.5556 z "
         id="path2177" />
      <path
         style="fill:#5a9666"
         d="M 1.7407407,1023.5556 L 1.7407407,694.55556 L 488.24074,694.55556 L 974.74074,694.55556 L 974.74074,805.55556 L 974.74074,916.55556 L 653.24074,916.55556 L 331.74074,916.55556 L 331.74074,1025.5556 L 331.74074,1134.5556 L 653.24074,1134.5556 L 974.74074,1134.5556 L 974.74074,1243.5556 L 974.74074,1352.5556 L 488.24074,1352.5556 L 1.7407407,1352.5556 L 1.7407407,1023.5556 z M 234.70234,1281.8056 C 239.21665,1275.6181 243.20956,1270.5595 243.57546,1270.5644 C 243.94137,1270.5693 250.42824,1272.5422 257.99074,1274.9487 C 265.55324,1277.3551 271.74074,1279.1097 271.74074,1278.8476 C 271.74074,1278.5856 267.8673,1273.0127 263.13309,1266.4634 L 254.52544,1254.5556 L 263.13309,1242.6477 C 267.8673,1236.0984 271.74074,1230.5255 271.74074,1230.2635 C 271.74074,1230.0015 265.55324,1231.756 257.99074,1234.1625 C 250.42824,1236.569 243.93294,1238.5419 243.55673,1238.5467 C 243.18053,1238.5516 238.90553,1233.116 234.05673,1226.4676 L 225.24074,1214.3797 L 224.74074,1229.6492 L 224.24074,1244.9186 L 210.49074,1249.4603 C 202.92824,1251.9582 196.74074,1254.2511 196.74074,1254.5556 C 196.74074,1254.86 202.92824,1257.1532 210.49074,1259.6516 L 224.24074,1264.1941 L 224.51772,1279.5478 C 224.6711,1288.0505 225.17394,1294.4897 225.64459,1293.9786 C 226.11204,1293.4709 230.18802,1287.9931 234.70234,1281.8056 z M 143.37898,1104.5331 C 151.92236,1102.362 165.18515,1096.4099 172.13678,1091.6271 C 178.68863,1087.1193 186.80966,1079.401 190.67334,1074.0098 L 194.10595,1069.2201 L 187.30328,1074.434 C 178.2728,1081.3555 170.48989,1085.1665 160.48798,1087.5643 C 144.48295,1091.4014 128.48889,1089.6466 113.74074,1082.4355 C 106.7785,1079.0313 103.60725,1076.6309 96.211594,1069.1675 C 81.98591,1054.8114 76.354485,1041.3088 76.354485,1021.5556 C 76.354485,1001.7705 81.994681,988.24856 96.20181,973.97325 C 103.53787,966.60198 106.84208,964.10238 113.74074,960.70524 C 128.43513,953.4692 144.45052,951.70194 160.48798,955.54678 C 170.49315,957.94543 178.273,961.75577 187.31415,968.68543 C 194.69976,974.34619 194.32554,973.01983 185.81366,963.36727 C 176.6047,952.92421 159.06382,942.65128 143.24074,938.43416 C 131.98956,935.43553 113.45816,935.44029 102.24074,938.44469 C 86.367995,942.69594 72.620625,950.74424 61.679393,962.19103 C 53.749532,970.48731 49.743531,976.23082 45.204565,985.81142 C 39.511956,997.82708 37.487206,1007.205 37.487206,1021.5556 C 37.487206,1045.0405 44.995758,1063.4655 61.679393,1080.9201 C 82.8174,1103.0348 113.91083,1112.0215 143.37898,1104.5331 z M 234.19972,1049.5556 C 238.97057,1042.9556 243.12324,1037.5556 243.42786,1037.5556 C 243.73248,1037.5556 250.27051,1039.5806 257.95682,1042.0556 C 265.64314,1044.5306 272.10353,1046.5556 272.31325,1046.5556 C 272.52297,1046.5556 268.66239,1041.0431 263.73417,1034.3056 C 258.80596,1027.5681 254.77378,1021.8306 254.77378,1021.5556 C 254.77378,1021.2806 258.80596,1015.5431 263.73417,1008.8056 C 268.66239,1002.0681 272.52297,996.55556 272.31325,996.55556 C 272.10353,996.55556 265.64314,998.58056 257.95682,1001.0556 C 250.27051,1003.5306 243.73248,1005.5556 243.42786,1005.5556 C 243.12324,1005.5556 238.90652,1000.0647 234.05737,993.35353 L 225.24074,981.1515 L 224.74074,996.55483 L 224.24074,1011.9582 L 210.0169,1016.5069 C 202.19379,1019.0086 195.79307,1021.2806 195.79307,1021.5556 C 195.79307,1021.8306 202.19379,1024.1028 210.0169,1026.605 L 224.24074,1031.1545 L 224.51679,1046.355 C 224.66861,1054.7153 224.95767,1061.5556 225.15913,1061.5556 C 225.3606,1061.5556 229.42886,1056.1556 234.19972,1049.5556 z M 233.70234,821.80556 C 238.21665,815.61806 242.20956,810.55954 242.57546,810.5644 C 242.94137,810.56926 249.42824,812.54217 256.99074,814.94865 C 264.55324,817.35512 270.74074,819.10967 270.74074,818.84763 C 270.74074,818.5856 266.8673,813.01269 262.13309,806.46338 L 253.52544,794.55556 L 262.13309,782.64774 C 266.8673,776.09843 270.74074,770.52552 270.74074,770.26349 C 270.74074,770.00145 264.55324,771.756 256.99074,774.16247 C 249.42824,776.56895 242.93294,778.54186 242.55673,778.54672 C 242.18053,778.55158 237.90553,773.11599 233.05673,766.46762 L 224.24074,754.37967 L 223.74074,769.64916 L 223.24074,784.91864 L 209.49074,789.46033 C 201.92824,791.95825 195.74074,794.25111 195.74074,794.55556 C 195.74074,794.86001 201.92824,797.15322 209.49074,799.65158 L 223.24074,804.19405 L 223.51772,819.54783 C 223.6711,828.05048 224.17394,834.48974 224.64459,833.97858 C 225.11204,833.47092 229.18802,827.99306 233.70234,821.80556 z "
         id="path2169" />
      <path
         style="fill:#308a4c"
         d="M 1.7407407,1023.5556 L 1.7407407,694.55556 L 488.24074,694.55556 L 974.74074,694.55556 L 974.74074,805.55556 L 974.74074,916.55556 L 653.24074,916.55556 L 331.74074,916.55556 L 331.74074,1025.5556 L 331.74074,1134.5556 L 653.24074,1134.5556 L 974.74074,1134.5556 L 974.74074,1243.5556 L 974.74074,1352.5556 L 488.24074,1352.5556 L 1.7407407,1352.5556 L 1.7407407,1023.5556 z M 234.28176,1282.5556 C 239.05262,1275.9556 243.16056,1270.5556 243.41052,1270.5556 C 243.66048,1270.5556 250.17484,1272.6178 257.88686,1275.1382 C 265.59889,1277.6587 272.05421,1279.5712 272.23202,1279.3882 C 272.40983,1279.2053 268.51124,1273.5431 263.56848,1266.8056 L 254.58164,1254.5556 L 263.56848,1242.3056 C 268.51124,1235.5681 272.40983,1229.9059 272.23202,1229.7229 C 272.05421,1229.5399 265.59889,1231.4524 257.88686,1233.9729 C 250.17484,1236.4934 243.66048,1238.5556 243.41052,1238.5556 C 243.16056,1238.5556 238.9701,1233.0431 234.09839,1226.3056 L 225.24074,1214.0556 L 224.74074,1229.5233 L 224.24074,1244.9911 L 211.04607,1249.1801 C 203.789,1251.4841 197.27805,1253.7235 196.57729,1254.1566 C 195.7935,1254.641 200.87125,1256.7091 209.77196,1259.5305 L 224.24074,1264.1171 L 224.51679,1279.3363 C 224.66861,1287.7069 224.97613,1294.5556 225.20016,1294.5556 C 225.42418,1294.5556 229.51091,1289.1556 234.28176,1282.5556 z M 144.24074,1104.5636 C 163.19684,1099.7302 181.89531,1087.0633 192.59733,1071.8056 C 195.64357,1067.4626 194.50891,1067.7094 188.95529,1072.5979 C 182.20476,1078.54 174.25503,1083.0614 165.23292,1086.09 C 128.93585,1098.2745 88.52369,1076.3087 78.81336,1039.1172 C 76.063438,1028.5848 76.028834,1014.659 78.726373,1004.1117 C 81.733277,992.35485 86.974389,983.34569 96.262473,973.96819 C 110.29786,959.79769 128.1161,952.83381 147.74252,953.84829 C 163.18958,954.64675 177.50734,960.43632 188.95529,970.51322 C 194.50891,975.4017 195.64357,975.64856 192.59733,971.30556 C 181.95557,956.13371 163.56627,943.63371 144.24074,938.43551 C 132.9001,935.38509 112.58087,935.38194 101.29472,938.42883 C 71.248809,946.54026 47.725445,970.06363 39.614015,1000.1095 C 36.568107,1011.392 36.570449,1031.7129 39.618963,1043.0556 C 44.155828,1059.936 55.705358,1077.9411 68.523317,1088.1159 C 80.176824,1097.3664 95.854835,1104.3426 109.74074,1106.4563 C 118.86833,1107.8457 134.79583,1106.9719 144.24074,1104.5636 z M 234.23851,1050.0262 C 239.61443,1042.5611 243.74558,1037.7272 244.50155,1038.0173 C 249.56034,1039.9585 271.91169,1046.718 272.22754,1046.4021 C 272.44453,1046.1851 268.60916,1040.5059 263.70449,1033.7816 L 254.78691,1021.5556 L 263.70449,1009.3296 C 268.60916,1002.6053 272.44453,996.92602 272.22754,996.70903 C 271.91169,996.39317 249.56034,1003.1526 244.50155,1005.0939 C 243.74558,1005.3839 239.61443,1000.55 234.23851,993.08488 C 229.28973,986.21291 225.01574,980.58193 224.74074,980.57159 C 224.46574,980.56126 224.3843,987.48636 224.55977,995.9607 L 224.8788,1011.3686 L 210.30977,1016.1863 C 202.2968,1018.836 195.74074,1021.2522 195.74074,1021.5556 C 195.74074,1021.859 202.2968,1024.2751 210.30977,1026.9249 L 224.8788,1031.7425 L 224.55977,1047.1504 C 224.3843,1055.6248 224.46574,1062.5499 224.74074,1062.5395 C 225.01574,1062.5292 229.28973,1056.8982 234.23851,1050.0262 z M 233.28176,822.55556 C 238.05262,815.95556 242.16056,810.55556 242.41052,810.55556 C 242.66048,810.55556 249.17484,812.61776 256.88686,815.13823 C 264.59889,817.6587 271.05421,819.5712 271.23202,819.38823 C 271.40983,819.20526 267.51124,813.54306 262.56848,806.80556 L 253.58164,794.55556 L 262.56848,782.30556 C 267.51124,775.56806 271.40983,769.90586 271.23202,769.72289 C 271.05421,769.53992 264.59889,771.45242 256.88686,773.97289 C 249.17484,776.49336 242.66048,778.55556 242.41052,778.55556 C 242.16056,778.55556 237.9701,773.04306 233.09839,766.30556 L 224.24074,754.05556 L 223.74074,769.52332 L 223.24074,784.99109 L 210.04607,789.18011 C 202.789,791.48407 196.27805,793.72348 195.57729,794.15658 C 194.7935,794.64098 199.87125,796.70907 208.77196,799.53054 L 223.24074,804.11706 L 223.51679,819.33631 C 223.66861,827.7069 223.97613,834.55556 224.20016,834.55556 C 224.42418,834.55556 228.51091,829.15556 233.28176,822.55556 z "
         id="path2165" />
      <path
         style="fill:#000000"
         d="M 167.24074,1188.5556 L 331.23846,1024.5556 L 166.24074,859.55556 L 1.2430134,694.55556 L 166.49188,694.55556 L 331.74074,694.55556 L 331.74074,1023.5556 L 331.74074,1352.5556 L 167.49188,1352.5556 L 3.2430273,1352.5556 L 167.24074,1188.5556 z M 234.28176,1282.5556 C 239.05262,1275.9556 243.16056,1270.5556 243.41052,1270.5556 C 243.66048,1270.5556 250.17484,1272.6178 257.88686,1275.1382 C 265.59889,1277.6587 272.05421,1279.5712 272.23202,1279.3882 C 272.40983,1279.2053 268.51124,1273.5431 263.56848,1266.8056 L 254.58164,1254.5556 L 263.56848,1242.3056 C 268.51124,1235.5681 272.40983,1229.9059 272.23202,1229.7229 C 272.05421,1229.5399 265.59889,1231.4524 257.88686,1233.9729 C 250.17484,1236.4934 243.66048,1238.5556 243.41052,1238.5556 C 243.16056,1238.5556 238.9701,1233.0431 234.09839,1226.3056 L 225.24074,1214.0556 L 224.74074,1229.5233 L 224.24074,1244.9911 L 211.04607,1249.1801 C 203.789,1251.4841 197.27805,1253.7235 196.57729,1254.1566 C 195.7935,1254.641 200.87125,1256.7091 209.77196,1259.5305 L 224.24074,1264.1171 L 224.51679,1279.3363 C 224.66861,1287.7069 224.97613,1294.5556 225.20016,1294.5556 C 225.42418,1294.5556 229.51091,1289.1556 234.28176,1282.5556 z M 233.28176,822.55556 C 238.05262,815.95556 242.16056,810.55556 242.41052,810.55556 C 242.66048,810.55556 249.17484,812.61776 256.88686,815.13823 C 264.59889,817.6587 271.05421,819.5712 271.23202,819.38823 C 271.40983,819.20526 267.51124,813.54306 262.56848,806.80556 L 253.58164,794.55556 L 262.56848,782.30556 C 267.51124,775.56806 271.40983,769.90586 271.23202,769.72289 C 271.05421,769.53992 264.59889,771.45242 256.88686,773.97289 C 249.17484,776.49336 242.66048,778.55556 242.41052,778.55556 C 242.16056,778.55556 237.9701,773.04306 233.09839,766.30556 L 224.24074,754.05556 L 223.74074,769.52332 L 223.24074,784.99109 L 210.04607,789.18011 C 202.789,791.48407 196.27805,793.72348 195.57729,794.15658 C 194.7935,794.64098 199.87125,796.70907 208.77196,799.53054 L 223.24074,804.11706 L 223.51679,819.33631 C 223.66861,827.7069 223.97613,834.55556 224.20016,834.55556 C 224.42418,834.55556 228.51091,829.15556 233.28176,822.55556 z "
         id="path2163" />
    </g>
  </g>
</svg>
