<?xml version="1.0" encoding="UTF-8" standalone="no"?>
<!-- Created with Inkscape (http://www.inkscape.org/) -->

<svg
   xmlns:dc="http://purl.org/dc/elements/1.1/"
   xmlns:cc="http://creativecommons.org/ns#"
   xmlns:rdf="http://www.w3.org/1999/02/22-rdf-syntax-ns#"
   xmlns:svg="http://www.w3.org/2000/svg"
   xmlns="http://www.w3.org/2000/svg"
   xmlns:sodipodi="http://sodipodi.sourceforge.net/DTD/sodipodi-0.dtd"
   xmlns:inkscape="http://www.inkscape.org/namespaces/inkscape"
   width="600"
   height="430"
   id="svg3030"
   version="1.1"
   inkscape:version="0.48.1 "
   sodipodi:docname="Flag_of_SSC.svg">
  <defs
     id="defs3032" />
  <sodipodi:namedview
     id="base"
     pagecolor="#ffffff"
     bordercolor="#666666"
     borderopacity="1.0"
     inkscape:pageopacity="1"
     inkscape:pageshadow="2"
     inkscape:zoom="0.98994949"
     inkscape:cx="321.6334"
     inkscape:cy="212.04687"
     inkscape:document-units="px"
     inkscape:current-layer="layer1"
     showgrid="false"
     fit-margin-top="0"
     fit-margin-left="0"
     fit-margin-right="0"
     fit-margin-bottom="0"
     showborder="true"
     inkscape:showpageshadow="false"
     inkscape:window-width="1280"
     inkscape:window-height="938"
     inkscape:window-x="-4"
     inkscape:window-y="-4"
     inkscape:window-maximized="1" />
  <metadata
     id="metadata3035">
    <rdf:RDF>
      <cc:Work
         rdf:about="">
        <dc:format>image/svg+xml</dc:format>
        <dc:type
           rdf:resource="http://purl.org/dc/dcmitype/StillImage" />
        <dc:title></dc:title>
      </cc:Work>
    </rdf:RDF>
  </metadata>
  <g
     inkscape:label="Layer 1"
     inkscape:groupmode="layer"
     id="layer1"
     transform="translate(-0.71427155,-0.93360996)">
    <rect
       style="fill:#0f48a2;fill-opacity:1;fill-rule:nonzero;stroke:none"
       id="rect3845"
       width="600"
       height="430"
       x="0.71427155"
       y="0.93360996" />
    <rect
       style="fill:#19bf42;fill-opacity:1;fill-rule:nonzero;stroke:none"
       id="rect3049"
       width="600.50897"
       height="50.492466"
       x="0.70927155"
       y="19.809109" />
    <path
       style="fill:#ffffff;fill-opacity:1;fill-rule:nonzero;stroke:none"
       d="M 218.1875 111.8125 C 154.02994 111.8125 102.03125 162.45361 102.03125 224.9375 C 102.03125 287.42139 154.02994 338.0625 218.1875 338.0625 C 257.47898 338.0625 292.22687 319.07867 313.25 290 C 296.60882 304.78472 274.28455 313.84375 249.75 313.84375 C 198.28448 313.84375 156.5625 274.03198 156.5625 224.9375 C 156.5625 175.84302 198.28448 136.03125 249.75 136.03125 C 274.28455 136.03125 296.60882 145.09028 313.25 159.875 C 292.22687 130.79633 257.47898 111.8125 218.1875 111.8125 z "
       transform="translate(0.71427155,0.93360996)"
       id="path3837" />
    <path
       style="fill:#ffffff;fill-opacity:1;stroke:none"
       d="m 115.33596,386.90789 c -1.61905,3.23127 -3.56863,4.13018 -6.74456,5.969 -14.313181,6.58678 -32.301184,-7.51002 -17.930209,-16.16244 24.329599,-10.4482 51.737199,-7.50758 73.993679,-6.81853 l 1.26269,0 c -0.12308,-4.20463 -0.0382,-8.78883 0.25253,-12.37437 1.10149,-6.27335 5.21426,-13.64486 10.10153,-15.65736 18.58612,-5.68543 18.54726,14.13729 5.05076,18.43528 -0.74384,0.22599 -1.2894,1.1387 -1.24037,1.85706 0.11092,3.23641 -1.20504,11.51153 1.24037,11.02239 99.05464,0.37448 168.9733,6.47 249.89806,-0.88277 30.75618,-3.99125 51.06538,-4.61485 76.64776,-10.64473 8.23076,1.68841 -24.43933,13.97686 -25.7729,13.66638 -60.97739,11.74567 -104.43458,12.96865 -163.734,13.56178 -47.09313,-1.71808 -91.34486,-0.16681 -132.24069,-3.32635 l -3.20903,0.49107 c -1.08353,7.12787 5.37757,32.25702 -22.72843,27.77919 -3.4077,-2.28975 -4.94175,-3.77784 -5.62981,-7.56213 -0.15293,-3.2337 1.399,-6.47253 4.54569,-6.81853 3.58755,-0.3265 6.68201,-2.77031 7.82868,-5.80838 1.91332,-3.59578 1.98761,-7.08248 1.76777,-11.36422 l -0.50508,-1.01015 -2.52538,0 c -15.33761,-0.0147 -31.42112,-0.0487 -44.77322,2.06363 -2.75763,0.70895 -3.5814,1.59044 -5.55584,3.58418 z"
       id="path3841"
       inkscape:connector-curvature="0"
       transform="translate(0.71427155,0.93360996)"
       sodipodi:nodetypes="ccccccccccccccccccccccccc" />
    <path
       style="fill:#ffffff;fill-opacity:1"
       inkscape:connector-curvature="0"
       d="m 292.31096,206.16474 h 107.053 l -86.59591,65.54019 33.11275,-106.074 33.11275,106.074 z"
       id="path4" />
  </g>
</svg>
