<?xml version="1.0" encoding="UTF-8" standalone="no"?>
<!-- Created with Inkscape (http://www.inkscape.org/) -->

<svg
   xmlns:dc="http://purl.org/dc/elements/1.1/"
   xmlns:cc="http://creativecommons.org/ns#"
   xmlns:rdf="http://www.w3.org/1999/02/22-rdf-syntax-ns#"
   xmlns:svg="http://www.w3.org/2000/svg"
   xmlns="http://www.w3.org/2000/svg"
   xmlns:sodipodi="http://sodipodi.sourceforge.net/DTD/sodipodi-0.dtd"
   xmlns:inkscape="http://www.inkscape.org/namespaces/inkscape"
   width="185.20833mm"
   height="132.29167mm"
   viewBox="0 0 185.20833 132.29167"
   version="1.1"
   id="svg8"
   inkscape:version="0.92.2 (5c3e80d, 2017-08-06)"
   sodipodi:docname="drawing.svg">
  <defs
     id="defs2" />
  <sodipodi:namedview
     id="base"
     pagecolor="#ffffff"
     bordercolor="#666666"
     borderopacity="1.0"
     inkscape:pageopacity="0.0"
     inkscape:pageshadow="2"
     inkscape:zoom="0.98994949"
     inkscape:cx="402.36804"
     inkscape:cy="279.55236"
     inkscape:document-units="mm"
     inkscape:current-layer="layer1"
     showgrid="false"
     inkscape:window-width="1366"
     inkscape:window-height="705"
     inkscape:window-x="-8"
     inkscape:window-y="-8"
     inkscape:window-maximized="1" />
  <metadata
     id="metadata5">
    <rdf:RDF>
      <cc:Work
         rdf:about="">
        <dc:format>image/svg+xml</dc:format>
        <dc:type
           rdf:resource="http://purl.org/dc/dcmitype/StillImage" />
        <dc:title></dc:title>
      </cc:Work>
    </rdf:RDF>
  </metadata>
  <g
     inkscape:label="Layer 1"
     inkscape:groupmode="layer"
     id="layer1"
     transform="translate(25.117032,-147.59858)">
    <g
       id="g1333">
      <rect
         id="rect240"
         style="fill:#b80000;fill-opacity:1;stroke:none;stroke-width:0.26458332"
         height="132.29167"
         width="185.20833"
         y="147.59859"
         x="-25.117031" />
      <g
         id="g1284">
        <path
           inkscape:connector-curvature="0"
           style="fill:#ffffff;fill-opacity:1;fill-rule:nonzero;stroke:none;stroke-width:0.26458332"
           d="m 67.487134,165.09105 2.183846,4.42557 4.883423,0.709 -3.533635,3.44475 0.834057,4.86379 -4.367691,-2.2965 -4.367692,2.2965 0.834057,-4.86379 -3.533635,-3.44475 4.883423,-0.709 z m 0,0"
           id="path242" />
        <path
           inkscape:connector-curvature="0"
           style="fill:#f5c72e;fill-opacity:1;fill-rule:nonzero;stroke:none;stroke-width:0.26458332"
           d="m 43.865838,239.29221 c -0.04341,-0.29456 -0.07648,-0.83096 0.02687,-1.26918 0.139525,-0.58807 0.669726,-0.94878 1.118277,-1.03559 0,0 -0.05374,-0.46302 0.06408,-0.7152 0.240811,-0.51367 0.701765,-0.69143 1.319816,-0.6594 0.63872,0.0331 1.257805,0.76688 1.161685,1.73633 0.398944,0 0.511598,-0.22944 1.106911,-0.45372 0.412377,-0.15606 0.881599,-0.22427 1.182357,-0.11472 -0.14056,-0.58601 0.361735,-1.08107 0.824756,-1.15032 -0.385508,-0.62735 -0.05064,-1.45417 0.615982,-1.61953 -0.449585,-0.72347 -0.235643,-1.5875 0.387572,-1.757 -0.440282,-0.73794 -0.1788,-1.7322 0.57671,-2.03916 -0.57671,-0.7245 -0.210839,-1.79627 0.613915,-1.96163 -0.668692,-0.94878 -0.04341,-2.23346 0.816488,-2.32337 -0.522964,-1.07901 0.292489,-2.24069 0.802019,-2.57039 0.342098,-0.22221 0.604615,-0.3576 0.957048,-0.678 0.583943,-0.53123 0.789614,-0.87023 0.920874,-1.06763 0.160197,-0.24081 0.382405,-0.063 0.258382,0.11162 -0.122989,0.17363 -0.839224,1.09761 -0.849562,2.11563 -0.01344,1.45004 0.651124,2.28513 0.783416,3.06545 0.12609,0.73691 -0.751375,2.78536 -0.687298,2.8174 0.07855,0.0403 0.819589,-1.69292 0.866098,-1.73633 0.04651,0.45372 0.04651,1.09037 0.04651,1.09037 -1.792136,4.09691 -2.951757,6.89157 -6.461619,10.72286 2.140436,-0.48782 4.32635,-1.59473 6.13089,-2.98793 0.02997,0.68523 -0.06615,1.35909 -0.403074,1.95647 1.228865,-0.48989 2.799829,-1.32395 3.995621,-2.31407 -0.772046,0.032 -1.676384,-0.14676 -1.956469,-0.59014 1.975072,-0.37414 3.326929,-1.48932 4.285009,-3.01584 1.173054,3.42305 -0.852662,4.14652 -1.471745,5.59036 -0.214974,-0.35244 -0.267684,-1.03043 -0.09612,-1.45728 -1.786972,1.52549 -3.860231,2.67374 -6.424414,3.73931 0.26665,-0.45372 0.469223,-0.93121 0.62425,-1.48415 -1.938898,1.07177 -4.509286,2.00711 -6.232176,2.06602 0.704866,0.3483 1.704287,1.14619 2.355411,1.98851 0.28112,-0.98908 0.902272,-1.82831 1.681552,-2.15801 0.311091,2.03502 1.809707,3.3135 3.734138,3.84473 -0.393774,-0.5643 -0.467156,-1.39319 0.282155,-1.71049 0.489891,1.51722 1.863449,2.14767 3.645254,2.06913 -0.463021,2.01538 -3.963583,0.78651 -4.834848,2.57348 -0.311091,-0.32969 -0.551905,-1.40663 0.336931,-1.99264 -1.638143,-0.55501 -2.886646,-1.49862 -3.617351,-2.67581 -0.623216,0.92915 -0.861962,1.74563 -0.911572,2.90938 -0.660424,-1.08623 -1.656746,-2.04638 -2.556949,-2.65823 0.219107,1.40973 -1.310516,2.3058 -2.273763,1.31568 -0.640789,1.01286 -2.836002,0.99839 -2.836002,-0.709 -1.30328,0.27802 -1.933732,-1.44074 -0.990122,-2.01331 -1.64021,-0.43512 -3.832322,-0.45786 -5.41569,1.01286 0.728639,0.0599 1.480013,0.46095 1.924431,1.03559 -2.252059,-0.0661 -4.087606,0.8754 -5.306136,3.0148 1.280543,-0.68936 2.964161,-0.66145 3.496429,0.7059 -2.185914,-0.30178 -4.38113,0.80719 -5.563487,3.36827 -1.64951,-2.04845 0.646989,-4.19302 0.417547,-6.51123 0.448551,-0.11988 1.240235,0.37621 0.980819,1.67225 0.650089,-1.01699 1.64021,-1.94716 2.822567,-2.46083 -0.312127,-0.24288 -0.836126,-0.34313 -1.327052,-0.32969 1.564761,-2.11667 3.980119,-3.43649 7.444507,-3.12023 -1.993678,-0.93017 -4.650878,-4.00802 -4.798674,-6.83989 0.715203,0.47439 1.965772,0.98599 2.970361,1.2175 -0.733804,-1.0635 -1.044896,-2.50734 -1.063501,-4.14755 -0.329695,0.5457 -0.788583,0.9033 -1.246434,0.94878 -0.156064,-1.54926 0.598411,-3.04271 2.398819,-4.20026 -0.12609,1.41386 0.112654,2.96312 1.628841,3.61838 -0.340029,0.45889 -1.414899,0.44752 -1.88309,-0.43098 -0.07338,1.82831 0.852662,4.18372 2.308905,5.53144 -1.105876,0.10956 -2.698544,-0.2067 -3.532603,-0.66455 0.728639,1.36942 2.213819,3.26904 4.825548,3.78478"
           id="path244" />
        <path
           inkscape:connector-curvature="0"
           style="fill:none;stroke:#000000;stroke-width:0.1984375;stroke-linecap:round;stroke-linejoin:round;stroke-miterlimit:10;stroke-opacity:1"
           d="m 43.865837,239.29221 c -0.04341,-0.29456 -0.07648,-0.83096 0.02687,-1.26918 0.139526,-0.58807 0.669726,-0.94878 1.118278,-1.03559 0,0 -0.05374,-0.46302 0.06408,-0.7152 0.240812,-0.51367 0.701766,-0.69143 1.319816,-0.6594 0.63872,0.0331 1.257804,0.76688 1.161686,1.73633 0.398942,0 0.511596,-0.22944 1.106909,-0.45372 0.412378,-0.15606 0.8816,-0.22427 1.182357,-0.11472 -0.14056,-0.58601 0.361735,-1.08107 0.824755,-1.15032 -0.385506,-0.62735 -0.05064,-1.45417 0.615984,-1.61953 -0.449585,-0.72347 -0.235645,-1.5875 0.387573,-1.757 -0.440283,-0.73794 -0.178801,-1.7322 0.576709,-2.03916 -0.576709,-0.7245 -0.21084,-1.79627 0.613916,-1.96163 -0.668693,-0.94878 -0.04341,-2.23346 0.816488,-2.32338 -0.522966,-1.079 0.292488,-2.24069 0.802018,-2.57038 0.342098,-0.22221 0.604614,-0.3576 0.957047,-0.678 0.583944,-0.53123 0.789616,-0.87023 0.920874,-1.06763 0.160197,-0.24081 0.382406,-0.0631 0.258382,0.11162 -0.122989,0.17363 -0.839225,1.09761 -0.84956,2.11563 -0.01344,1.45004 0.651123,2.28514 0.783414,3.06545 0.126091,0.73691 -0.751375,2.78536 -0.687296,2.8174 0.07855,0.0403 0.819588,-1.69292 0.866097,-1.73633 0.04651,0.45372 0.04651,1.09037 0.04651,1.09037 -1.792139,4.09691 -2.951758,6.89157 -6.461621,10.72286 2.140438,-0.48782 4.326351,-1.59473 6.130892,-2.98793 0.02997,0.68523 -0.06615,1.35909 -0.403077,1.95647 1.228866,-0.48989 2.79983,-1.32395 3.995622,-2.31407 -0.772046,0.032 -1.676383,-0.14676 -1.956469,-0.59014 1.975073,-0.37414 3.326928,-1.48932 4.285009,-3.01584 1.173055,3.42305 -0.852661,4.14652 -1.471745,5.59036 -0.214974,-0.35244 -0.267684,-1.03043 -0.09612,-1.45728 -1.786971,1.52549 -3.860229,2.67374 -6.424414,3.73931 0.266651,-0.45372 0.469222,-0.93121 0.624252,-1.48415 -1.9389,1.07177 -4.509286,2.00711 -6.232178,2.06602 0.704866,0.3483 1.704289,1.14619 2.355412,1.98851 0.281119,-0.98908 0.90227,-1.82831 1.681551,-2.15801 0.311092,2.03502 1.809708,3.3135 3.734139,3.84473 -0.393775,-0.56431 -0.467155,-1.3932 0.282153,-1.71049 0.489893,1.51722 1.863452,2.14767 3.645255,2.06913 -0.46302,2.01538 -3.963582,0.78651 -4.834846,2.57348 -0.311093,-0.32969 -0.551905,-1.40663 0.33693,-1.99264 -1.638143,-0.55501 -2.886646,-1.49862 -3.61735,-2.67581 -0.623218,0.92915 -0.861963,1.74563 -0.911573,2.90939 -0.660424,-1.08624 -1.656746,-2.04639 -2.556949,-2.65824 0.219108,1.40973 -1.310515,2.3058 -2.273763,1.31568 -0.640788,1.01286 -2.836003,0.99839 -2.836003,-0.709 -1.30328,0.27802 -1.933732,-1.44074 -0.99012,-2.01331 -1.64021,-0.43512 -3.832325,-0.45786 -5.41569,1.01286 0.728637,0.0599 1.480013,0.46095 1.92443,1.03559 -2.252059,-0.0661 -4.087606,0.8754 -5.306136,3.0148 1.280542,-0.68936 2.96416,-0.66145 3.496427,0.7059 -2.185913,-0.30179 -4.381128,0.80719 -5.563484,3.36827 -1.649512,-2.04845 0.646988,-4.19302 0.417545,-6.51123 0.448552,-0.11989 1.240235,0.37621 0.980819,1.67225 0.650089,-1.01699 1.64021,-1.94716 2.822567,-2.46083 -0.312126,-0.24288 -0.836125,-0.34313 -1.327051,-0.32969 1.564762,-2.11667 3.980118,-3.43649 7.444506,-3.12023 -1.993676,-0.93017 -4.650878,-4.00802 -4.798673,-6.83989 0.715202,0.47439 1.965771,0.98599 2.970361,1.2175 -0.733805,-1.0635 -1.044897,-2.50734 -1.063501,-4.14755 -0.329695,0.5457 -0.788582,0.9033 -1.246435,0.94878 -0.156063,-1.54926 0.598413,-3.04271 2.39882,-4.20026 -0.126091,1.41386 0.112654,2.96312 1.628841,3.61838 -0.340031,0.45889 -1.414901,0.44752 -1.883089,-0.43098 -0.07338,1.82831 0.852661,4.18372 2.308903,5.53144 -1.105876,0.10956 -2.698544,-0.2067 -3.532601,-0.66456 0.728637,1.36943 2.213818,3.26906 4.825545,3.78479 z m 0,0"
           id="path246" />
        <path
           inkscape:connector-curvature="0"
           style="fill:#f5c72e;fill-opacity:1;fill-rule:nonzero;stroke:none;stroke-width:0.26458332"
           d="m 91.108429,239.29221 c 0.04341,-0.29456 0.07648,-0.83096 -0.02687,-1.26918 -0.139525,-0.58807 -0.669726,-0.94878 -1.118277,-1.03559 0,0 0.05374,-0.46302 -0.06408,-0.7152 -0.240814,-0.51367 -0.701765,-0.69143 -1.319816,-0.6594 -0.63872,0.0331 -1.257805,0.76688 -1.161688,1.73633 -0.398941,0 -0.511595,-0.22944 -1.106908,-0.45372 -0.412377,-0.15606 -0.881599,-0.22427 -1.182357,-0.11472 0.14056,-0.58601 -0.361735,-1.08107 -0.824756,-1.15032 0.385506,-0.62735 0.05064,-1.45417 -0.615982,-1.61953 0.449585,-0.72347 0.235643,-1.5875 -0.387575,-1.757 0.440285,-0.73794 0.178803,-1.7322 -0.576707,-2.03916 0.576707,-0.7245 0.210839,-1.79627 -0.613918,-1.96163 0.668695,-0.94878 0.04341,-2.23346 -0.816485,-2.32337 0.522964,-1.07901 -0.292489,-2.24069 -0.802019,-2.57039 -0.342098,-0.22221 -0.604615,-0.3576 -0.957048,-0.678 -0.583943,-0.53123 -0.789617,-0.87023 -0.920874,-1.06763 -0.160197,-0.24081 -0.382405,-0.063 -0.258382,0.11162 0.122989,0.17363 0.839224,1.09761 0.849562,2.11563 0.01344,1.45004 -0.651124,2.28513 -0.783416,3.06545 -0.12609,0.73691 0.751375,2.78536 0.687295,2.8174 -0.07855,0.0403 -0.819586,-1.69292 -0.866095,-1.73633 -0.04651,0.45372 -0.04651,1.09037 -0.04651,1.09037 1.792136,4.09691 2.951757,6.89157 6.461619,10.72286 -2.140436,-0.48782 -4.32635,-1.59473 -6.13089,-2.98793 -0.02997,0.68523 0.06615,1.35909 0.403074,1.95647 -1.228865,-0.48989 -2.799829,-1.32395 -3.995621,-2.31407 0.772046,0.032 1.676384,-0.14676 1.956469,-0.59014 -1.975072,-0.37414 -3.326929,-1.48932 -4.285009,-3.01584 -1.173054,3.42305 0.852662,4.14652 1.471745,5.59036 0.214974,-0.35244 0.267684,-1.03043 0.09612,-1.45728 1.786972,1.52549 3.860228,2.67374 6.424414,3.73931 -0.26665,-0.45372 -0.469223,-0.93121 -0.62425,-1.48415 1.938898,1.07177 4.509283,2.00711 6.232176,2.06602 -0.704866,0.3483 -1.704287,1.14619 -2.355411,1.98851 -0.28112,-0.98908 -0.902272,-1.82831 -1.681552,-2.15801 -0.311091,2.03502 -1.809707,3.3135 -3.734138,3.84473 0.393774,-0.5643 0.467153,-1.39319 -0.282155,-1.71049 -0.489891,1.51722 -1.863452,2.14767 -3.645254,2.06913 0.463021,2.01538 3.963583,0.78651 4.834848,2.57348 0.311091,-0.32969 0.551902,-1.40663 -0.336931,-1.99264 1.638143,-0.55501 2.886646,-1.49862 3.617348,-2.67581 0.623219,0.92915 0.861965,1.74563 0.911575,2.90938 0.660424,-1.08623 1.656746,-2.04638 2.556949,-2.65823 -0.21911,1.40973 1.310513,2.3058 2.273763,1.31568 0.640786,1.01286 2.836002,0.99839 2.836002,-0.709 1.30328,0.27802 1.933732,-1.44074 0.990122,-2.01331 1.64021,-0.43512 3.832322,-0.45786 5.41569,1.01286 -0.728639,0.0599 -1.480013,0.46095 -1.924431,1.03559 2.252059,-0.0661 4.087606,0.8754 5.306135,3.0148 -1.280542,-0.68936 -2.96416,-0.66145 -3.496428,0.7059 2.185914,-0.30178 4.381128,0.80719 5.563488,3.36827 1.64951,-2.04845 -0.64699,-4.19302 -0.41755,-6.51123 -0.44855,-0.11988 -1.24023,0.37621 -0.98082,1.67225 -0.65009,-1.01699 -1.64021,-1.94716 -2.822564,-2.46083 0.312127,-0.24288 0.836126,-0.34313 1.327054,-0.32969 -1.564766,-2.11667 -3.980121,-3.43649 -7.444509,-3.12023 1.993675,-0.93017 4.650878,-4.00802 4.798674,-6.83989 -0.715203,0.47439 -1.965772,0.98599 -2.970363,1.2175 0.733806,-1.0635 1.044898,-2.50734 1.063503,-4.14755 0.329695,0.5457 0.78858,0.9033 1.246434,0.94878 0.156064,-1.54926 -0.598414,-3.04271 -2.398819,-4.20026 0.12609,1.41386 -0.112654,2.96312 -1.628841,3.61838 0.340029,0.45889 1.414899,0.44752 1.883087,-0.43098 0.07338,1.82831 -0.852659,4.18372 -2.308902,5.53144 1.105876,0.10956 2.698544,-0.2067 3.5326,-0.66455 -0.728636,1.36942 -2.213816,3.26904 -4.825545,3.78478"
           id="path248" />
        <path
           inkscape:connector-curvature="0"
           style="fill:none;stroke:#000000;stroke-width:0.1984375;stroke-linecap:round;stroke-linejoin:round;stroke-miterlimit:10;stroke-opacity:1"
           d="m 91.10843,239.29221 c 0.04341,-0.29456 0.07648,-0.83096 -0.02687,-1.26918 -0.139526,-0.58807 -0.669726,-0.94878 -1.118278,-1.03559 0,0 0.05374,-0.46302 -0.06408,-0.7152 -0.240812,-0.51367 -0.701765,-0.69143 -1.319816,-0.6594 -0.63872,0.0331 -1.257804,0.76688 -1.161686,1.73633 -0.398942,0 -0.511596,-0.22944 -1.106909,-0.45372 -0.412378,-0.15606 -0.8816,-0.22427 -1.182357,-0.11472 0.14056,-0.58601 -0.361735,-1.08107 -0.824755,-1.15032 0.385506,-0.62735 0.05064,-1.45417 -0.615984,-1.61953 0.449585,-0.72347 0.235645,-1.5875 -0.387573,-1.757 0.440284,-0.73794 0.178801,-1.7322 -0.576709,-2.03916 0.576709,-0.7245 0.21084,-1.79627 -0.613916,-1.96163 0.668693,-0.94878 0.04341,-2.23346 -0.816487,-2.32338 0.522965,-1.079 -0.292489,-2.24069 -0.802019,-2.57038 -0.342098,-0.22221 -0.604614,-0.3576 -0.957047,-0.678 C 78.95,222.1501 78.744328,221.8111 78.61307,221.6137 c -0.160197,-0.24081 -0.382406,-0.0631 -0.258382,0.11162 0.12299,0.17363 0.839225,1.09761 0.84956,2.11563 0.01344,1.45004 -0.651123,2.28514 -0.783414,3.06545 -0.126091,0.73691 0.751375,2.78536 0.687296,2.8174 -0.07855,0.0403 -0.819588,-1.69292 -0.866097,-1.73633 -0.04651,0.45372 -0.04651,1.09037 -0.04651,1.09037 1.792139,4.09691 2.951758,6.89157 6.461621,10.72286 -2.140437,-0.48782 -4.326351,-1.59473 -6.130892,-2.98793 -0.02997,0.68523 0.06615,1.35909 0.403077,1.95647 -1.228866,-0.48989 -2.799829,-1.32395 -3.995622,-2.31407 0.772046,0.032 1.676383,-0.14676 1.95647,-0.59014 -1.975074,-0.37414 -3.326929,-1.48932 -4.28501,-3.01584 -1.173055,3.42305 0.852661,4.14652 1.471745,5.59036 0.214974,-0.35244 0.267684,-1.03043 0.09612,-1.45728 1.786971,1.52549 3.860229,2.67374 6.424414,3.73931 -0.266651,-0.45372 -0.469222,-0.93121 -0.624252,-1.48415 1.9389,1.07177 4.509286,2.00711 6.232178,2.06602 -0.704866,0.3483 -1.704288,1.14619 -2.355412,1.98851 -0.281119,-0.98908 -0.90227,-1.82831 -1.681551,-2.15801 -0.311092,2.03502 -1.809708,3.3135 -3.734139,3.84473 0.393775,-0.56431 0.467155,-1.3932 -0.282153,-1.71049 -0.489893,1.51722 -1.863452,2.14767 -3.645255,2.06913 0.46302,2.01538 3.963582,0.78651 4.834847,2.57348 0.311092,-0.32969 0.551904,-1.40663 -0.336931,-1.99264 1.638143,-0.55501 2.886646,-1.49862 3.61735,-2.67581 0.623218,0.92915 0.861963,1.74563 0.911573,2.90939 0.660424,-1.08624 1.656746,-2.04639 2.556949,-2.65824 -0.219108,1.40973 1.310515,2.3058 2.273763,1.31568 0.640788,1.01286 2.836003,0.99839 2.836003,-0.709 1.30328,0.27802 1.933732,-1.44074 0.990121,-2.01331 1.640209,-0.43512 3.832324,-0.45786 5.41569,1.01286 -0.728638,0.0599 -1.480013,0.46095 -1.924431,1.03559 2.252059,-0.0661 4.087606,0.8754 5.306134,3.0148 -1.28054,-0.68936 -2.964158,-0.66145 -3.496425,0.7059 2.185913,-0.30179 4.381125,0.80719 5.563485,3.36827 1.64951,-2.04845 -0.64699,-4.19302 -0.41755,-6.51123 -0.44855,-0.11989 -1.24023,0.37621 -0.98082,1.67225 -0.65009,-1.01699 -1.64021,-1.94716 -2.822561,-2.46083 0.312125,-0.24288 0.836124,-0.34313 1.327051,-0.32969 -1.564763,-2.11667 -3.980119,-3.43649 -7.444507,-3.12023 1.993676,-0.93017 4.650878,-4.00802 4.798673,-6.83989 -0.715202,0.47439 -1.965771,0.98599 -2.970361,1.2175 0.733805,-1.0635 1.044897,-2.50734 1.063501,-4.14755 0.329695,0.5457 0.788582,0.9033 1.246435,0.94878 0.156063,-1.54926 -0.598413,-3.04271 -2.39882,-4.20026 0.126091,1.41386 -0.112654,2.96312 -1.628841,3.61838 0.340031,0.45889 1.414901,0.44752 1.883089,-0.43098 0.07338,1.82831 -0.852661,4.18372 -2.308903,5.53144 1.105876,0.10956 2.698544,-0.2067 3.532601,-0.66456 -0.728637,1.36943 -2.213818,3.26906 -4.825545,3.78479 z m 0,0"
           id="path250" />
        <path
           inkscape:connector-curvature="0"
           style="fill:#000000;fill-opacity:1;fill-rule:nonzero;stroke:none;stroke-width:0.26458332"
           d="m 67.487134,262.39777 c -0.423747,-0.25838 -0.846461,-0.57877 -1.241269,-1.05626 -0.391708,-0.47233 -0.348298,-0.96842 -0.283187,-1.22474 0.04444,-0.17466 0.04031,-0.39687 -0.02894,-0.61288 -0.178803,0.16123 -0.233579,0.28422 -0.302826,0.52297 -0.132292,0.45992 -0.531233,0.64182 -0.531233,0.64182 -0.270785,-0.5178 -0.981853,-1.15032 -0.796851,-2.16318 0.128159,-0.70383 0.160197,-1.04076 0.113689,-1.45934 -0.283187,0.0248 -0.224277,0.62012 -0.714169,0.74931 -0.144693,-0.64699 -0.144693,-1.49138 0.105421,-2.14044 0.31936,-0.82889 1.521354,-1.79627 1.956469,-2.73575 0.282154,-0.60771 -0.460954,-1.30328 -0.907439,-0.95291 -0.537435,0.42168 -0.478523,1.69705 -0.8847,2.24069 -0.403075,0.54053 -1.043864,0.76068 -1.043864,0.76068 0,0 -0.366903,-0.3297 -0.28422,-0.6966 0.08268,-0.3669 -0.110588,-0.55914 -0.110588,-0.55914 -0.439248,0.15813 -0.233577,1.08624 -0.721403,1.69085 -0.294555,0.36484 -0.99632,0.64699 -0.99632,0.64699 0,0 -0.366903,-0.30799 -0.326596,-0.75241 0.02479,-0.28629 -0.0083,-0.43511 -0.100253,-0.57257 -0.448551,0.16019 -0.192236,0.85576 -0.597379,1.34358 -0.357601,0.43098 -0.831991,0.60358 -0.831991,0.60358 0,0 -0.405143,-0.29249 -0.336931,-0.76687 0.04961,-0.34003 -0.03927,-0.50127 -0.113686,-0.65319 -0.37724,0.13435 -0.312126,0.70073 -0.649057,1.13378 -0.336931,0.43304 -0.894003,0.52916 -0.894003,0.52916 0,0 -0.233577,-0.34313 -0.05478,-0.86506 0.08578,-0.24908 0.03204,-0.46302 -0.03617,-0.68316 -0.538467,0.1881 -0.263549,0.91157 -1.041797,1.28467 -0.463021,0.22325 -0.735872,0.44959 -0.735872,0.44959 0,0 -0.214974,-0.19947 -0.172598,-0.70797 0.02997,-0.3576 0.02585,-0.57051 -0.06201,-0.74724 -0.303858,0.11266 -0.356568,0.45889 -0.595312,0.87127 -0.237712,0.41237 -0.779283,0.58601 -0.779283,0.58601 0,0 -0.371036,-0.25632 -0.301789,-0.80616 0.04444,-0.35966 0.01757,-0.56844 -0.0279,-0.78755 -0.487826,0.093 -0.31626,0.60875 -0.824757,0.88367 -0.484725,0.26252 -1.007689,0.21498 -1.007689,0.21498 0,0 -0.174668,-0.43512 0.04547,-0.74414 0.220141,-0.30903 0.137459,-0.65319 0.137459,-0.65319 -0.412377,0.0207 -0.474388,0.50849 -0.914673,0.86609 -0.439248,0.3576 -1.023191,0.20154 -1.023191,0.20154 0,0 -0.144696,-0.39067 0.132291,-0.65526 0.236678,-0.22531 0.210839,-0.42581 0.174665,-0.56844 -0.220141,0.0734 -0.42168,0.31626 -0.760677,0.50023 -0.338997,0.18293 -1.028361,0.11265 -1.028361,0.11265 0,0 -0.06718,-0.31936 0.115755,-0.54363 0.118856,-0.14469 0.04858,-0.31213 0.0052,-0.43512 -0.07545,0.0548 -0.248047,0.19224 -0.474387,0.31626 -0.227378,0.12299 -0.563274,0.13643 -0.563274,0.13643 0,0 -0.142627,-0.12919 -0.01447,-0.34934 0.110588,-0.19016 0.122992,-0.32762 0.12609,-0.48369 -1.173054,0.30179 -1.465543,1.74977 -0.574641,2.6169 1.190625,1.15755 1.363224,1.71772 0.830956,2.36781 -0.16433,-1.08107 -1.483111,-1.43764 -2.265495,-2.41122 -1.024226,-1.27227 -0.235643,-3.35277 1.688788,-4.10414 3.598746,-1.4056 11.27683,-2.07843 15.093651,-4.747 2.987931,-2.08979 3.61115,-5.90248 3.61115,-9.02684 -0.252183,0.0227 -0.31626,0.31006 -0.935345,1.14515 -0.514696,0.6966 -1.425236,1.41077 -2.843236,1.41077 -0.695566,0 -1.088305,0.34416 -1.431438,0.91467 -0.334862,-1.44591 0.755509,-2.25206 2.039151,-2.91248 1.28261,-0.65939 3.190505,-1.77664 3.170868,-3.73724 -0.01963,-1.93477 -0.03617,-5.1294 0,-7.80934 -0.366903,0.10955 -1.020094,1.73322 -2.249993,1.88309 -1.282608,0.15606 -1.85415,-0.5178 -1.85415,-0.5178 -0.975651,0 -1.536856,0.85886 -1.627807,1.38182 -0.481626,-1.14825 0.599446,-2.58278 2.707844,-2.78432 2.083594,-0.19947 2.665471,-0.5302 2.867009,-1.32292 0.396875,-1.56166 -1.208196,-10.01386 -1.904793,-10.51719 0.07338,0.87954 0.04237,4.48035 -1.842781,7.88066 -1.685687,3.04271 -3.500562,4.08761 -4.98471,5.05912 0,0 0,-0.63665 -0.04651,-1.09037 -0.04651,0.0434 -0.786513,1.77663 -0.866097,1.73633 -0.06408,-0.032 0.813387,-2.08049 0.687297,-2.8174 -0.132291,-0.78032 -0.796851,-1.61541 -0.783415,-3.06545 0.01035,-1.01802 0.726572,-1.942 0.850596,-2.11563 0.122988,-0.17466 -0.09922,-0.35243 -0.259416,-0.11162 -0.132292,0.1974 -0.336931,0.5364 -0.920875,1.06763 -0.352433,0.3204 -0.615984,0.45579 -0.95808,0.678 -0.177768,0.0827 -0.429948,0.10129 -0.595312,0.0548 0.0279,-1.58027 2.854605,-4.60024 3.918106,-7.67912 1.26814,-3.67316 1.553392,-6.34173 2.22622,-8.21139 -1.099675,1.12655 -1.60817,3.10679 -3.243212,7.64295 -1.631943,4.52582 -3.987353,7.14788 -6.327262,8.37158 3.409611,-3.22564 4.333584,-5.89835 5.365046,-8.57312 1.02216,-2.6541 1.28261,-5.63687 1.793171,-7.27708 -1.841746,2.00712 -1.701186,5.54282 -3.882967,9.309 -3.580143,6.18257 -6.974249,7.17785 -8.275462,6.54533 1.126545,-1.20922 3.184302,-5.04982 4.014224,-8.81599 0.820623,-3.72691 0.645956,-5.83531 1.043865,-7.06624 -1.043865,0.79788 -0.591179,1.48518 -2.226222,6.84609 -1.630908,5.34438 -5.050854,9.8826 -7.013525,11.75122 1.679485,-2.23862 4.520655,-7.22333 5.583121,-11.86077 0.646991,-2.82257 1.099675,-5.66374 1.613339,-7.05693 -1.517218,1.21439 -1.704289,3.26285 -3.977018,9.05474 -2.272728,5.79189 -6.525699,12.5367 -10.777635,16.78967 -3.135728,3.13573 -6.836794,2.82257 -8.211386,1.53893 2.286164,-1.12242 6.19497,-5.97483 8.907984,-11.61997 2.711979,-5.64513 5.290632,-14.58308 7.0559,-17.11936 1.430404,-2.05259 2.639631,-2.74919 3.817853,-3.33624 -1.163752,-0.32969 -3.614248,1.51826 -5.336106,4.11242 -2.34301,3.53053 -5.022951,9.08575 -8.470802,14.40015 -3.504695,5.40225 -7.338052,7.46001 -9.943579,6.26835 2.223119,-0.23047 4.300514,-1.64848 6.204273,-3.62872 4.374925,-4.55166 7.874455,-12.26695 10.346655,-16.44137 2.239656,-3.78065 3.970817,-4.98058 6.290053,-5.89731 -0.807185,-0.43099 -2.852539,0.33383 -6.060611,3.76204 -2.942455,3.14399 -8.044987,11.87421 -12.445752,14.39705 -4.123779,2.36472 -6.213572,0.47749 -6.726203,-0.81028 3.739306,-1.41697 13.55266,-14.40533 16.733862,-18.6552 2.923852,-3.90363 3.556373,-5.31957 3.906739,-6.47402 -1.468646,1.39733 -4.611605,6.19911 -10.55026,11.6427 -4.811078,4.41007 -8.122502,5.73712 -10.193695,5.40329 2.869076,-0.5271 7.123081,-3.73517 12.108823,-8.81187 3.988387,-4.06176 7.386629,-8.24859 7.405232,-8.87077 -2.639631,1.39216 -11.931054,9.67072 -16.239836,10.41073 -3.042708,0.52193 -3.835424,-0.64699 -4.14755,-1.16892 1.228865,-0.0186 1.884122,-0.25218 4.844148,-2.53421 3.291789,-2.53835 10.87479,-12.09849 12.647292,-13.563 1.474843,-1.21956 1.830377,-1.29914 2.913515,-1.7787 0,0 -1.685685,-0.34727 -3.738272,0.84336 -2.246892,1.30431 -3.590478,2.25929 -6.143294,5.01778 -2.49804,2.69958 -5.399154,4.61884 -7.567496,4.90719 -1.674318,0.22325 -2.180746,-0.45268 -2.308905,-0.79685 0.672828,0.19947 1.342554,0.38241 2.47427,0.0827 1.711523,-0.45372 4.501015,-2.43603 6.497793,-4.61471 2.007113,-2.19005 4.672584,-4.37906 6.61665,-5.39295 1.580266,-0.82476 3.257682,-0.99632 4.453474,-0.99632 -0.742071,-0.44545 -2.308902,-0.6811 -5.251357,0.19843 -2.941423,0.88057 -7.42487,4.78628 -10.943002,4.61884 -2.295467,-0.10852 -2.872177,-1.37459 -3.115056,-2.03398 0.525033,0.0889 1.391131,0.1788 2.552816,-0.87954 2.028817,-1.85001 4.446241,-4.15995 6.570141,-5.29993 1.863453,-0.99839 3.697968,-0.80408 4.780071,-0.65732 -0.990121,-0.6873 -2.287198,-0.8692 -4.844148,-0.37414 -2.556951,0.49403 -5.956225,2.90835 -8.251692,3.00447 -1.164789,0.0486 -2.089796,-0.70797 -1.938901,-1.35392 0.325562,0.25735 0.790649,0.70796 1.956469,0.57464 1.784906,-0.20361 4.746998,-2.35128 7.996412,-2.96003 2.790526,-0.52193 5.283399,0.0279 6.620785,0.58704 -0.834059,-1.06866 -2.563151,-1.61127 -7.006291,-1.54925 -4.406966,0.061 -5.652367,0 -7.308082,-0.52194 -1.585431,-0.50022 -2.48357,-2.1177 -2.116667,-2.75435 0.388607,0.29352 0.887801,0.69143 2.292369,0.53433 2.465998,-0.27595 5.936588,-2.00091 9.162229,-2.66547 4.289145,-0.88263 11.015348,-1.35185 15.580445,-1.35599 3.261817,-0.003 4.781102,1.3746 5.131469,2.34611 1.240234,3.42925 -1.668116,8.65167 -3.455085,16.41347 -0.966351,4.1982 1.834512,7.70909 4.665347,6.90087 7.12928,-2.03398 8.724017,-2.24999 11.51041,-1.75906 -1.233001,-2.11253 -1.174089,-4.23127 -0.847495,-5.24723 0.540536,-1.68258 0.890902,-2.72541 0.645956,-3.18947 -0.347265,-0.65836 -0.902271,-0.81338 -1.564761,-0.7369 -1.416968,0.16226 -3.150196,1.29191 -4.703591,0.95291 -2.140437,-0.46716 -2.378149,-2.32544 -2.378149,-2.32544 0.886767,0.71417 1.834512,1.17512 3.385841,0.74001 1.129647,-0.3173 2.24689,-1.12035 3.69383,-0.98082 0.996323,0.0961 1.697056,0.91467 1.697056,0.91467 0,0 0.110585,-1.44384 -2.018483,-1.87689 -1.248502,-0.25425 -3.747574,-0.27491 -4.366659,-0.0548 -0.351399,0.12505 -0.772047,0.81132 -1.154451,1.21646 -0.291455,0.30799 -0.610815,0.40618 -0.591177,0.24081 0.173632,-1.45727 -0.153996,-2.00814 0.01138,-3.10575 0.179832,-1.19373 2.297533,-2.95279 4.002854,-3.09025 1.050065,-0.0847 1.46141,0.11058 2.671673,0.68729 1.209228,0.57775 3.875733,1.16479 4.480345,1.43971 0.605648,0.27492 1.072804,1.23713 1.072804,1.23713 0,0 0.467153,-0.96221 1.072803,-1.23713 0.604613,-0.27492 3.271118,-0.86196 4.480346,-1.43971 1.210262,-0.57671 1.621607,-0.77204 2.671672,-0.68729 1.705322,0.13746 3.823023,1.89652 4.002855,3.09025 0.165365,1.09761 -0.162264,1.64848 0.01138,3.10575 0.01963,0.16537 -0.299722,0.0672 -0.591177,-0.24081 -0.382407,-0.40514 -0.803053,-1.09141 -1.154451,-1.21646 -0.619085,-0.22014 -3.118157,-0.19948 -4.366659,0.0548 -2.129071,0.43305 -2.018483,1.87689 -2.018483,1.87689 0,0 0.700733,-0.81855 1.697056,-0.91467 1.44694,-0.13953 2.564183,0.66352 3.693829,0.98082 1.551327,0.43511 2.499075,-0.0259 3.385842,-0.74001 0,0 -0.237713,1.85828 -2.378149,2.32544 -1.553396,0.339 -3.286623,-0.79065 -4.703591,-0.95291 -0.66249,-0.0765 -1.217496,0.0785 -1.564762,0.7369 -0.244946,0.46406 0.105421,1.50689 0.645957,3.18947 0.326593,1.01596 0.385506,3.1347 -0.847495,5.24723 2.786393,-0.49093 4.381129,-0.27492 11.510409,1.75906 2.830836,0.80822 5.631696,-2.70267 4.665348,-6.90087 -1.786972,-7.7618 -4.69532,-12.98422 -3.455085,-16.41347 0.350366,-0.97151 1.869651,-2.34921 5.131469,-2.34611 4.565094,0.004 11.291299,0.47336 15.580449,1.35599 3.22564,0.66456 6.69623,2.38952 9.16223,2.66547 1.40456,0.1571 1.90376,-0.24081 2.29236,-0.53433 0.36691,0.63665 -0.53123,2.25413 -2.11666,2.75435 -1.65572,0.52194 -2.90112,0.58291 -7.30808,0.52194 -4.44314,-0.062 -6.17224,0.48059 -7.006297,1.54925 1.337387,-0.55913 3.830257,-1.10897 6.620787,-0.58704 3.24941,0.60875 6.21151,2.75642 7.99641,2.96003 1.16582,0.13332 1.63091,-0.31729 1.95647,-0.57464 0.1509,0.64595 -0.77411,1.40249 -1.9389,1.35392 -2.29547,-0.0961 -5.69474,-2.51044 -8.25169,-3.00447 -2.55695,-0.49506 -3.85403,-0.31316 -4.84415,0.37414 1.0821,-0.14676 2.91662,-0.34107 4.78007,0.65732 2.1239,1.13998 4.54132,3.44992 6.57014,5.29993 1.16169,1.05834 2.02778,0.96842 2.55282,0.87954 -0.24288,0.65939 -0.81959,1.92546 -3.11506,2.03398 -3.51813,0.16744 -8.00158,-3.73827 -10.943,-4.61884 -2.942456,-0.87953 -4.509287,-0.64388 -5.251359,-0.19843 1.195793,0 2.873209,0.17156 4.453479,0.99632 1.94406,1.01389 4.60953,3.2029 6.61665,5.39295 1.99677,2.17868 4.78627,4.16099 6.49779,4.61471 1.13172,0.29972 1.80144,0.11678 2.47427,-0.0827 -0.12816,0.34417 -0.63459,1.0201 -2.30891,0.79685 -2.16834,-0.28835 -5.06945,-2.20761 -7.56749,-4.90719 -2.55282,-2.75849 -3.8964,-3.71347 -6.1433,-5.01778 -2.052584,-1.19063 -3.738271,-0.84336 -3.738271,-0.84336 1.083138,0.47956 1.438672,0.55914 2.913518,1.7787 1.772503,1.46451 9.355503,11.02465 12.647293,13.563 2.96002,2.28203 3.61528,2.51561 4.84415,2.53421 -0.31213,0.52193 -1.10484,1.69085 -4.14755,1.16892 -4.30878,-0.74001 -13.600208,-9.01857 -16.23984,-10.41073 0.0186,0.62218 3.416845,4.80901 7.40523,8.87077 4.98575,5.0767 9.23975,8.28477 12.10883,8.81187 -2.0712,0.33383 -5.38262,-0.99322 -10.1937,-5.40329 -5.938654,-5.44359 -9.081616,-10.24537 -10.550259,-11.6427 0.350366,1.15445 0.982887,2.57039 3.906739,6.47402 3.1812,4.24987 12.99456,17.23823 16.73386,18.6552 -0.51263,1.28777 -2.60242,3.175 -6.7262,0.81028 -4.40077,-2.52284 -9.503298,-11.25306 -12.445756,-14.39705 -3.208072,-3.42821 -5.253423,-4.19303 -6.060611,-3.76204 2.319239,0.91673 4.0504,2.11666 6.290056,5.89731 2.4722,4.17442 5.971731,11.88971 10.346651,16.44137 1.90376,1.98024 3.98116,3.39825 6.20428,3.62872 -2.60553,1.19166 -6.43889,-0.8661 -9.94358,-6.26835 -3.44785,-5.3144 -6.127794,-10.86962 -8.470804,-14.40015 -1.721858,-2.59416 -4.172355,-4.44211 -5.336109,-4.11242 1.178224,0.58705 2.387452,1.28365 3.817856,3.33624 1.765268,2.53628 4.343921,11.47423 7.055897,17.11936 2.71302,5.64514 6.62182,10.49755 8.90799,11.61997 -1.37459,1.28364 -5.07566,1.5968 -8.21139,-1.53893 -4.251935,-4.25297 -8.504906,-10.99778 -10.777634,-16.78967 -2.272732,-5.79189 -2.4598,-7.84035 -3.977019,-9.05474 0.513662,1.39319 0.966349,4.23436 1.613337,7.05693 1.062469,4.63744 3.903639,9.62215 5.583124,11.86077 -1.962672,-1.86862 -5.382618,-6.40684 -7.013528,-11.75122 -1.63504,-5.36091 -1.182357,-6.04821 -2.22622,-6.84609 0.39791,1.23093 0.223242,3.33933 1.043863,7.06624 0.829924,3.76617 2.887681,7.60677 4.014227,8.81599 -1.301213,0.63252 -4.69532,-0.36276 -8.275463,-6.54533 -2.18178,-3.76618 -2.04122,-7.30188 -3.882969,-9.309 0.510564,1.64021 0.771014,4.62298 1.793174,7.27708 1.031462,2.67477 1.955435,5.34748 5.365046,8.57312 -2.339909,-1.2237 -4.69532,-3.84576 -6.327262,-8.37158 -1.635043,-4.53616 -2.143538,-6.5164 -3.243212,-7.64295 0.672827,1.86966 0.95808,4.53823 2.22622,8.21139 1.063501,3.07888 3.8902,6.09885 3.918106,7.67912 -0.165365,0.0465 -0.417544,0.0279 -0.595312,-0.0548 -0.342099,-0.22221 -0.605648,-0.3576 -0.95808,-0.678 -0.583944,-0.53123 -0.788583,-0.87023 -0.920875,-1.06763 -0.160197,-0.24081 -0.382405,-0.063 -0.259416,0.11162 0.124024,0.17363 0.840259,1.09761 0.850596,2.11563 0.01344,1.45004 -0.651124,2.28513 -0.783415,3.06545 -0.12609,0.73691 0.751374,2.78536 0.687294,2.8174 -0.07958,0.0403 -0.819586,-1.69292 -0.866095,-1.73633 -0.04651,0.45372 -0.04651,1.09037 -0.04651,1.09037 -1.484148,-0.97151 -3.299023,-2.01641 -4.98471,-5.05912 -1.885157,-3.40031 -1.916163,-7.00112 -1.842781,-7.88066 -0.696597,0.50333 -2.301668,8.95553 -1.904793,10.51719 0.201538,0.79272 0.783415,1.12345 2.867009,1.32292 2.108398,0.20154 3.189467,1.63607 2.707843,2.78432 -0.09095,-0.52296 -0.652155,-1.38182 -1.627806,-1.38182 0,0 -0.571543,0.67386 -1.85415,0.5178 -1.2299,-0.14987 -1.88309,-1.77354 -2.249993,-1.88309 0.03617,2.67994 0.01963,5.87457 0,7.80934 -0.01963,1.9606 1.888257,3.07785 3.170865,3.73724 1.283644,0.66042 2.374016,1.46657 2.039154,2.91248 -0.343133,-0.57051 -0.735872,-0.91467 -1.431438,-0.91467 -1.418003,0 -2.32854,-0.71417 -2.843236,-1.41077 -0.619086,-0.83509 -0.683165,-1.12241 -0.935345,-1.14515 0,3.12436 0.623218,6.93705 3.61115,9.02684 3.816821,2.66857 11.494905,3.3414 15.093651,4.747 1.924431,0.75137 2.713013,2.83187 1.688785,4.10414 -0.782381,0.97358 -2.101162,1.33015 -2.265495,2.41122 -0.532265,-0.65009 -0.359667,-1.21026 0.830958,-2.36781 0.890903,-0.86713 0.598414,-2.31511 -0.574643,-2.6169 0.0031,0.15607 0.0155,0.29353 0.126093,0.48369 0.128156,0.22015 -0.01447,0.34934 -0.01447,0.34934 0,0 -0.335897,-0.0134 -0.563274,-0.13643 -0.226343,-0.12402 -0.398942,-0.26148 -0.47439,-0.31626 -0.04341,0.12299 -0.113686,0.29043 0.0052,0.43512 0.182933,0.22427 0.115755,0.54363 0.115755,0.54363 0,0 -0.689363,0.0703 -1.028361,-0.11265 -0.338997,-0.18397 -0.540536,-0.42685 -0.760677,-0.50023 -0.03617,0.14263 -0.06201,0.34313 0.174665,0.56844 0.276987,0.26459 0.132291,0.65526 0.132291,0.65526 0,0 -0.583943,0.15606 -1.023191,-0.20154 -0.440285,-0.3576 -0.502296,-0.84542 -0.914675,-0.86609 0,0 -0.08268,0.34416 0.137462,0.65319 0.220141,0.30902 0.04547,0.74414 0.04547,0.74414 0,0 -0.522964,0.0475 -1.007689,-0.21498 -0.508497,-0.27492 -0.336931,-0.79065 -0.824756,-0.88367 -0.04548,0.21911 -0.07235,0.42789 -0.02791,0.78755 0.06925,0.54984 -0.301789,0.80616 -0.301789,0.80616 0,0 -0.54157,-0.17364 -0.779283,-0.58601 -0.238744,-0.41238 -0.291454,-0.75861 -0.595312,-0.87127 -0.08785,0.17673 -0.09198,0.38964 -0.06201,0.74724 0.04237,0.5085 -0.172601,0.70797 -0.172601,0.70797 0,0 -0.272851,-0.22634 -0.735872,-0.44959 -0.778245,-0.3731 -0.503327,-1.09657 -1.041797,-1.28467 -0.06821,0.22014 -0.121954,0.43408 -0.03617,0.68316 0.1788,0.52193 -0.05478,0.86506 -0.05478,0.86506 0,0 -0.55707,-0.0961 -0.894001,-0.52916 -0.336931,-0.43305 -0.27182,-0.99943 -0.649057,-1.13378 -0.07441,0.15192 -0.163296,0.31316 -0.113686,0.65319 0.06821,0.47438 -0.336931,0.76687 -0.336931,0.76687 0,0 -0.47439,-0.1726 -0.831991,-0.60358 -0.405143,-0.48782 -0.148828,-1.18339 -0.597381,-1.34358 -0.09198,0.13746 -0.125055,0.28628 -0.100251,0.57257 0.04031,0.44442 -0.326596,0.75241 -0.326596,0.75241 0,0 -0.701765,-0.28215 -0.99632,-0.64699 -0.487826,-0.60461 -0.282155,-1.53272 -0.721403,-1.69085 0,0 -0.19327,0.19224 -0.110588,0.55914 0.08268,0.3669 -0.28422,0.6966 -0.28422,0.6966 0,0 -0.640789,-0.22015 -1.043864,-0.76068 -0.406177,-0.54364 -0.347265,-1.81901 -0.8847,-2.24069 -0.446484,-0.35037 -1.189593,0.3452 -0.907439,0.95291 0.435115,0.93948 1.637109,1.90686 1.956469,2.73575 0.250114,0.64906 0.250114,1.49345 0.105421,2.14044 -0.489894,-0.12919 -0.430982,-0.7245 -0.714169,-0.74931 -0.04651,0.41858 -0.01447,0.75551 0.113689,1.45934 0.185,1.01286 -0.526068,1.64538 -0.796851,2.16318 0,0 -0.398944,-0.1819 -0.531235,-0.64182 -0.06924,-0.23875 -0.124024,-0.36174 -0.302824,-0.52297 -0.06925,0.21601 -0.07338,0.43822 -0.02894,0.61288 0.06511,0.25632 0.108518,0.75241 -0.283187,1.22474 -0.394808,0.47749 -0.817522,0.79788 -1.241268,1.05626"
           id="path252" />
        <path
           inkscape:connector-curvature="0"
           style="fill:none;stroke:#000000;stroke-width:0.1984375;stroke-linecap:round;stroke-linejoin:round;stroke-miterlimit:10;stroke-opacity:1"
           d="m 67.487134,262.39777 c -0.423747,-0.25838 -0.84646,-0.57877 -1.241268,-1.05626 -0.391707,-0.47233 -0.348299,-0.96842 -0.283187,-1.22473 0.04444,-0.17467 0.04031,-0.39688 -0.02894,-0.61289 -0.1788,0.16123 -0.233577,0.28422 -0.302823,0.52297 -0.132292,0.45992 -0.531234,0.64182 -0.531234,0.64182 -0.270785,-0.5178 -0.981852,-1.15032 -0.796851,-2.16318 0.128158,-0.70383 0.160197,-1.04076 0.113688,-1.45934 -0.283186,0.0248 -0.224275,0.62012 -0.714168,0.74931 -0.144694,-0.64699 -0.144694,-1.49138 0.10542,-2.14044 0.31936,-0.82889 1.521354,-1.79627 1.95647,-2.73575 0.282153,-0.60771 -0.460954,-1.30328 -0.907438,-0.95291 -0.537435,0.42168 -0.478524,1.69705 -0.884701,2.24069 -0.403076,0.54053 -1.043864,0.76068 -1.043864,0.76068 0,0 -0.366903,-0.3297 -0.28422,-0.6966 0.08268,-0.36691 -0.110588,-0.55914 -0.110588,-0.55914 -0.43925,0.15813 -0.233577,1.08624 -0.721403,1.69085 -0.294555,0.36484 -0.996321,0.64699 -0.996321,0.64699 0,0 -0.366903,-0.30799 -0.326595,-0.75241 0.0248,-0.28629 -0.0083,-0.43511 -0.100253,-0.57257 -0.448551,0.16019 -0.192236,0.85576 -0.597379,1.34358 -0.357601,0.43099 -0.831991,0.60358 -0.831991,0.60358 0,0 -0.405143,-0.29248 -0.33693,-0.76687 0.04961,-0.34003 -0.03927,-0.50127 -0.113688,-0.65319 -0.377238,0.13435 -0.312126,0.70073 -0.649056,1.13378 -0.33693,0.43305 -0.894002,0.52916 -0.894002,0.52916 0,0 -0.233578,-0.34313 -0.05478,-0.86506 0.08578,-0.24908 0.03204,-0.46302 -0.03617,-0.68316 -0.538468,0.1881 -0.26355,0.91157 -1.041797,1.28467 -0.463021,0.22325 -0.735872,0.44959 -0.735872,0.44959 0,0 -0.214974,-0.19947 -0.1726,-0.70797 0.02997,-0.3576 0.02584,-0.57051 -0.06201,-0.74724 -0.303858,0.11266 -0.356568,0.45889 -0.595313,0.87127 -0.237711,0.41237 -0.77928,0.58601 -0.77928,0.58601 0,0 -0.371037,-0.25632 -0.301791,-0.80616 0.04444,-0.35966 0.01757,-0.56844 -0.0279,-0.78755 -0.487825,0.093 -0.31626,0.60875 -0.824756,0.88367 -0.484725,0.26252 -1.00769,0.21498 -1.00769,0.21498 0,0 -0.174667,-0.43512 0.04547,-0.74414 0.220142,-0.30903 0.137459,-0.6532 0.137459,-0.6532 -0.412378,0.0207 -0.474389,0.5085 -0.914672,0.8661 -0.43925,0.3576 -1.023194,0.20154 -1.023194,0.20154 0,0 -0.144694,-0.39067 0.132292,-0.65526 0.236678,-0.22531 0.21084,-0.42581 0.174666,-0.56844 -0.220142,0.0734 -0.42168,0.31626 -0.760677,0.50023 -0.338997,0.18293 -1.028361,0.11265 -1.028361,0.11265 0,0 -0.06718,-0.31936 0.115755,-0.54363 0.118856,-0.1447 0.04858,-0.31213 0.0052,-0.43512 -0.07545,0.0548 -0.248047,0.19224 -0.47439,0.31626 -0.227376,0.12299 -0.563273,0.13643 -0.563273,0.13643 0,0 -0.142627,-0.12919 -0.01447,-0.34933 0.110587,-0.19017 0.12299,-0.32763 0.12609,-0.4837 -1.173055,0.30179 -1.465543,1.74977 -0.574641,2.6169 1.190625,1.15755 1.363224,1.71772 0.830957,2.36781 -0.164332,-1.08107 -1.483114,-1.43764 -2.265495,-2.41122 -1.024227,-1.27227 -0.235645,-3.35277 1.688785,-4.10414 3.598747,-1.4056 11.276831,-2.07843 15.093653,-4.747 2.987932,-2.08979 3.61115,-5.90248 3.61115,-9.02684 -0.252181,0.0227 -0.31626,0.31006 -0.935344,1.14515 -0.514697,0.6966 -1.425236,1.41077 -2.843237,1.41077 -0.695565,0 -1.088306,0.34416 -1.431437,0.91467 -0.334863,-1.4459 0.755509,-2.25206 2.039152,-2.91248 1.282609,-0.65939 3.190503,-1.77664 3.170866,-3.73724 -0.01964,-1.93477 -0.03617,-5.1294 0,-7.80934 -0.366903,0.10955 -1.020093,1.73322 -2.249992,1.88309 -1.282609,0.15606 -1.854151,-0.5178 -1.854151,-0.5178 -0.975651,0 -1.536857,0.85886 -1.627807,1.38182 -0.481625,-1.14824 0.599446,-2.58278 2.707845,-2.78432 2.083593,-0.19947 2.66547,-0.5302 2.867008,-1.32292 0.396875,-1.56166 -1.208195,-10.01386 -1.904793,-10.51718 0.07338,0.87953 0.04237,4.48034 -1.842782,7.88065 -1.685685,3.04271 -3.500561,4.08761 -4.984708,5.05912 0,0 0,-0.63665 -0.04651,-1.09037 -0.04651,0.0434 -0.786515,1.77664 -0.866097,1.73633 -0.06408,-0.032 0.813387,-2.08049 0.687297,-2.8174 -0.132292,-0.78031 -0.796851,-1.6154 -0.783415,-3.06545 0.01033,-1.01802 0.72657,-1.942 0.850594,-2.11563 0.12299,-0.17466 -0.09922,-0.35243 -0.259416,-0.11162 -0.132291,0.1974 -0.33693,0.5364 -0.920874,1.06763 -0.352433,0.3204 -0.615983,0.45579 -0.958081,0.678 -0.177767,0.0827 -0.429948,0.10129 -0.595312,0.0548 0.02791,-1.58027 2.854606,-4.60024 3.918107,-7.67912 1.268139,-3.67316 1.553393,-6.34173 2.22622,-8.21139 -1.099674,1.12655 -1.60817,3.10679 -3.243212,7.64295 -1.631942,4.52582 -3.987354,7.14788 -6.327263,8.37158 3.409611,-3.22564 4.333586,-5.89835 5.365047,-8.57312 1.02216,-2.6541 1.282609,-5.63687 1.793173,-7.27707 -1.841749,2.00711 -1.701189,5.54281 -3.882967,9.30899 -3.580144,6.18257 -6.974252,7.17785 -8.275464,6.54533 1.126546,-1.20922 3.184301,-5.04982 4.014225,-8.81599 0.820622,-3.72691 0.645955,-5.83531 1.043864,-7.06624 -1.043864,0.79788 -0.591179,1.48518 -2.226221,6.84609 -1.630908,5.34438 -5.050854,9.8826 -7.013525,11.75122 1.679484,-2.23862 4.520654,-7.22333 5.583122,-11.86077 0.646988,-2.82257 1.099674,-5.66374 1.613338,-7.05693 -1.51722,1.21439 -1.704289,3.26285 -3.977018,9.05474 -2.27273,5.79189 -6.5257,12.5367 -10.777636,16.78967 -3.135728,3.13573 -6.836794,2.82257 -8.211386,1.53893 2.286167,-1.12242 6.19497,-5.97483 8.907984,-11.61997 2.711979,-5.64513 5.290632,-14.58308 7.055899,-17.11936 1.430404,-2.05259 2.639632,-2.74919 3.817855,-3.33624 -1.163753,-0.32969 -3.614249,1.51826 -5.336107,4.11242 -2.34301,3.53053 -5.022951,9.08575 -8.470802,14.40015 -3.504695,5.40225 -7.338052,7.46001 -9.943579,6.26835 2.223119,-0.23047 4.300514,-1.64848 6.204273,-3.62872 4.374928,-4.55166 7.874455,-12.26695 10.346655,-16.44137 2.239656,-3.78065 3.970817,-4.98058 6.290055,-5.89731 -0.807186,-0.43099 -2.852539,0.33383 -6.060613,3.76204 -2.942455,3.14399 -8.044985,11.87421 -12.445751,14.39705 -4.123778,2.36472 -6.213573,0.47749 -6.726203,-0.81028 3.739305,-1.41697 13.552659,-14.40533 16.733861,-18.65519 2.923852,-3.90364 3.556373,-5.31958 3.906739,-6.47403 -1.468646,1.39733 -4.611605,6.19911 -10.55026,11.6427 -4.811078,4.41007 -8.122502,5.73712 -10.193695,5.40329 2.869076,-0.5271 7.123081,-3.73517 12.108823,-8.81187 3.988387,-4.06176 7.38663,-8.24859 7.405232,-8.87077 -2.639631,1.39216 -11.931054,9.67073 -16.239836,10.41073 -3.042708,0.52193 -3.835424,-0.64699 -4.14755,-1.16892 1.228865,-0.0186 1.884124,-0.25218 4.84415,-2.53421 3.291787,-2.53835 10.874788,-12.09849 12.64729,-13.563 1.474843,-1.21956 1.830377,-1.29914 2.913515,-1.7787 0,0 -1.685684,-0.34727 -3.738272,0.84336 -2.246892,1.30431 -3.590477,2.25929 -6.143294,5.01778 -2.49804,2.69958 -5.399153,4.61884 -7.567496,4.9072 -1.674318,0.22324 -2.180746,-0.45269 -2.308905,-0.79686 0.672828,0.19947 1.342554,0.38241 2.47427,0.0827 1.711523,-0.45372 4.501017,-2.43603 6.497793,-4.61471 2.007114,-2.19005 4.672584,-4.37906 6.61665,-5.39295 1.580266,-0.82476 3.257682,-0.99632 4.453474,-0.99632 -0.742071,-0.44545 -2.308902,-0.6811 -5.251357,0.19843 -2.941423,0.88057 -7.42487,4.78628 -10.943002,4.61884 -2.295467,-0.10852 -2.872177,-1.37459 -3.115054,-2.03398 0.525032,0.0889 1.391129,0.1788 2.552814,-0.87953 2.028817,-1.85002 4.446241,-4.15996 6.570141,-5.29994 1.863453,-0.99839 3.697968,-0.80408 4.780071,-0.65732 -0.990121,-0.6873 -2.287198,-0.8692 -4.844148,-0.37414 -2.556951,0.49403 -5.956225,2.90835 -8.251692,3.00447 -1.164789,0.0486 -2.089796,-0.70797 -1.938901,-1.35392 0.325562,0.25734 0.790649,0.70796 1.956469,0.57464 1.784906,-0.20361 4.746998,-2.35128 7.996412,-2.96003 2.790526,-0.52193 5.283399,0.0279 6.620785,0.58704 -0.834059,-1.06866 -2.563151,-1.61127 -7.006291,-1.54926 -4.406966,0.061 -5.652367,0 -7.308082,-0.52193 -1.585431,-0.50022 -2.483567,-2.1177 -2.116667,-2.75435 0.388607,0.29352 0.887802,0.69143 2.292369,0.53433 2.465998,-0.27595 5.936588,-2.00091 9.162229,-2.66547 4.289145,-0.88263 11.015349,-1.35185 15.580445,-1.35599 3.261816,-0.003 4.781104,1.3746 5.13147,2.34611 1.240234,3.42925 -1.668115,8.65167 -3.455086,16.41347 -0.96635,4.1982 1.834513,7.70909 4.665348,6.90087 7.12928,-2.03398 8.724015,-2.24999 11.510408,-1.75906 -1.233,-2.11253 -1.174088,-4.23127 -0.847493,-5.24723 0.540535,-1.68258 0.890901,-2.72541 0.645955,-3.18947 -0.347265,-0.65835 -0.902271,-0.81338 -1.564762,-0.7369 -1.416968,0.16226 -3.150196,1.29191 -4.703589,0.95291 -2.140438,-0.46716 -2.37815,-2.32544 -2.37815,-2.32544 0.886768,0.71417 1.834514,1.17512 3.38584,0.74001 1.129647,-0.3173 2.246892,-1.12035 3.693832,-0.98082 0.996321,0.0961 1.697054,0.91467 1.697054,0.91467 0,0 0.110587,-1.44384 -2.018482,-1.87689 -1.248502,-0.25425 -3.747575,-0.27491 -4.366658,-0.0548 -0.3514,0.12505 -0.772046,0.81132 -1.154452,1.21646 -0.291455,0.30799 -0.610815,0.40618 -0.591178,0.24081 0.173633,-1.45727 -0.153996,-2.00814 0.01137,-3.10575 0.179834,-1.19373 2.297534,-2.95279 4.002856,-3.09025 1.050065,-0.0847 1.46141,0.11059 2.671672,0.68729 1.209228,0.57775 3.875732,1.16479 4.480346,1.43971 0.605648,0.27492 1.072803,1.23713 1.072803,1.23713 0,0 0.467155,-0.96221 1.072803,-1.23713 0.604614,-0.27492 3.271118,-0.86196 4.480346,-1.43971 1.210262,-0.5767 1.621607,-0.77204 2.671672,-0.68729 1.705322,0.13746 3.823022,1.89652 4.002856,3.09025 0.165365,1.09761 -0.162264,1.64848 0.01137,3.10575 0.01964,0.16537 -0.299723,0.0672 -0.591178,-0.24081 -0.382406,-0.40514 -0.803052,-1.09141 -1.154452,-1.21646 -0.619083,-0.22014 -3.118155,-0.19948 -4.366658,0.0548 -2.129069,0.43305 -2.018481,1.87689 -2.018481,1.87689 0,0 0.700732,-0.81855 1.697054,-0.91467 1.44694,-0.13953 2.564184,0.66352 3.693831,0.98082 1.551326,0.43511 2.499072,-0.0258 3.38584,-0.74001 0,0 -0.237712,1.85828 -2.37815,2.32544 -1.553393,0.339 -3.286621,-0.79065 -4.703588,-0.95291 -0.662492,-0.0765 -1.217497,0.0785 -1.564763,0.7369 -0.244946,0.46406 0.10542,1.50689 0.645956,3.18947 0.326595,1.01596 0.385506,3.1347 -0.847494,5.24723 2.786393,-0.49093 4.381128,-0.27492 11.510409,1.75906 2.830835,0.80822 5.631697,-2.70267 4.665348,-6.90087 -1.786971,-7.7618 -4.695321,-12.98422 -3.455086,-16.41347 0.350366,-0.97151 1.869653,-2.3492 5.131469,-2.34611 4.565096,0.004 11.291299,0.47336 15.580439,1.35599 3.22564,0.66456 6.69623,2.38952 9.16223,2.66547 1.40457,0.1571 1.90376,-0.24081 2.29237,-0.53433 0.3669,0.63665 -0.53124,2.25413 -2.11667,2.75435 -1.65571,0.52193 -2.90111,0.58291 -7.30808,0.52193 -4.44314,-0.062 -6.17223,0.4806 -7.006286,1.54926 1.337386,-0.55913 3.830256,-1.10897 6.620776,-0.58704 3.24942,0.60875 6.21151,2.75642 7.99642,2.96003 1.16582,0.13332 1.6309,-0.3173 1.95647,-0.57464 0.15089,0.64595 -0.77412,1.40249 -1.9389,1.35392 -2.29547,-0.0961 -5.69475,-2.51044 -8.2517,-3.00447 -2.55695,-0.49506 -3.85402,-0.31316 -4.84415,0.37414 1.08211,-0.14676 2.91662,-0.34107 4.78008,0.65732 2.1239,1.13998 4.54132,3.44992 6.57014,5.29994 1.16168,1.05833 2.02778,0.96841 2.55281,0.87953 -0.24288,0.65939 -0.81959,1.92546 -3.11505,2.03398 -3.51814,0.16744 -8.00158,-3.73827 -10.94301,-4.61884 -2.942446,-0.87953 -4.509277,-0.64388 -5.251348,-0.19843 1.195792,0 2.873208,0.17156 4.453468,0.99632 1.94407,1.01389 4.60954,3.2029 6.61665,5.39295 1.99678,2.17868 4.78627,4.16099 6.4978,4.61471 1.13171,0.29972 1.80144,0.11678 2.47426,-0.0827 -0.12815,0.34417 -0.63458,1.0201 -2.3089,0.79686 -2.16834,-0.28836 -5.06946,-2.20762 -7.5675,-4.9072 -2.55281,-2.75849 -3.8964,-3.71347 -6.14329,-5.01778 -2.052584,-1.19063 -3.738268,-0.84336 -3.738268,-0.84336 1.083138,0.47956 1.438672,0.55914 2.913515,1.7787 1.772503,1.46451 9.355503,11.02465 12.647283,13.563 2.96003,2.28203 3.61529,2.51561 4.84415,2.53421 -0.31212,0.52193 -1.10484,1.69085 -4.14755,1.16892 -4.30878,-0.74 -13.600198,-9.01857 -16.239829,-10.41073 0.0186,0.62218 3.416845,4.80901 7.405229,8.87077 4.98574,5.0767 9.23975,8.28477 12.10882,8.81187 -2.07119,0.33383 -5.38262,-0.99322 -10.19369,-5.40329 -5.938654,-5.44359 -9.081613,-10.24537 -10.550259,-11.6427 0.350366,1.15445 0.982887,2.57039 3.906739,6.47403 3.1812,4.24986 12.99455,17.23822 16.73386,18.65519 -0.51263,1.28777 -2.60243,3.175 -6.72621,0.81028 -4.40076,-2.52284 -9.503288,-11.25306 -12.445743,-14.39705 -3.208074,-3.42821 -5.253427,-4.19303 -6.060613,-3.76204 2.319239,0.91673 4.050399,2.11666 6.290055,5.89731 2.4722,4.17442 5.971721,11.88971 10.346651,16.44137 1.90376,1.98024 3.98115,3.39825 6.20427,3.62872 -2.60552,1.19166 -6.43888,-0.8661 -9.94358,-6.26835 -3.44785,-5.3144 -6.127784,-10.86962 -8.470794,-14.40015 -1.721857,-2.59416 -4.172353,-4.44211 -5.336107,-4.11242 1.178223,0.58705 2.387451,1.28365 3.817855,3.33624 1.765267,2.53628 4.34392,11.47423 7.055896,17.11936 2.71301,5.64514 6.62182,10.49755 8.90798,11.61997 -1.37459,1.28364 -5.07566,1.5968 -8.21138,-1.53893 -4.251935,-4.25297 -8.504905,-10.99778 -10.777634,-16.78967 -2.27273,-5.79189 -2.459798,-7.84035 -3.977018,-9.05474 0.513663,1.39319 0.966349,4.23436 1.613338,7.05693 1.062467,4.63744 3.903637,9.62215 5.583121,11.86077 -1.96267,-1.86862 -5.382617,-6.40684 -7.013525,-11.75122 -1.635042,-5.36091 -1.182357,-6.04821 -2.226221,-6.84609 0.397909,1.23093 0.223243,3.33933 1.043864,7.06624 0.829924,3.76617 2.887679,7.60677 4.014225,8.81599 -1.301212,0.63252 -4.69532,-0.36276 -8.275463,-6.54533 -2.181779,-3.76618 -2.041219,-7.30188 -3.882967,-9.30899 0.510563,1.6402 0.771012,4.62297 1.793172,7.27707 1.031461,2.67477 1.955436,5.34748 5.365047,8.57312 -2.339909,-1.2237 -4.695321,-3.84576 -6.327262,-8.37158 -1.635042,-4.53616 -2.143539,-6.5164 -3.243213,-7.64295 0.672827,1.86966 0.958081,4.53823 2.22622,8.21139 1.063501,3.07888 3.890202,6.09885 3.918108,7.67912 -0.165365,0.0465 -0.417546,0.0279 -0.595313,-0.0548 -0.342098,-0.22221 -0.605648,-0.3576 -0.958081,-0.678 C 78.95,222.1501 78.745362,221.8111 78.61307,221.6137 c -0.160197,-0.24081 -0.382406,-0.063 -0.259416,0.11162 0.124024,0.17363 0.840259,1.09761 0.850594,2.11563 0.01344,1.45005 -0.651123,2.28514 -0.783414,3.06545 -0.126091,0.73691 0.751375,2.78536 0.687296,2.8174 -0.07958,0.0403 -0.819588,-1.69292 -0.866097,-1.73633 -0.04651,0.45372 -0.04651,1.09037 -0.04651,1.09037 -1.484147,-0.97151 -3.299023,-2.01641 -4.984708,-5.05912 -1.885156,-3.40031 -1.916162,-7.00112 -1.842782,-7.88065 -0.696598,0.50332 -2.301668,8.95552 -1.904793,10.51718 0.201538,0.79272 0.783415,1.12345 2.867009,1.32292 2.108398,0.20154 3.189469,1.63608 2.707845,2.78432 -0.09095,-0.52296 -0.652157,-1.38182 -1.627808,-1.38182 0,0 -0.571541,0.67386 -1.854151,0.5178 -1.229899,-0.14987 -1.883089,-1.77354 -2.249991,-1.88309 0.03617,2.67994 0.01964,5.87457 0,7.80934 -0.01964,1.9606 1.888257,3.07785 3.170866,3.73724 1.283642,0.66042 2.374015,1.46658 2.039151,2.91248 -0.343131,-0.57051 -0.735872,-0.91467 -1.431437,-0.91467 -1.418001,0 -2.32854,-0.71417 -2.843237,-1.41077 -0.619084,-0.83509 -0.683163,-1.12241 -0.935344,-1.14515 0,3.12436 0.623218,6.93705 3.61115,9.02684 3.816821,2.66857 11.494905,3.3414 15.093652,4.747 1.92443,0.75137 2.713012,2.83187 1.688785,4.10414 -0.782381,0.97358 -2.101163,1.33015 -2.265494,2.41122 -0.532268,-0.65009 -0.359668,-1.21026 0.830957,-2.36781 0.890901,-0.86713 0.598413,-2.31511 -0.574642,-2.6169 0.0031,0.15607 0.0155,0.29353 0.12609,0.4837 0.128158,0.22014 -0.01447,0.34933 -0.01447,0.34933 0,0 -0.335896,-0.0134 -0.563273,-0.13643 -0.226343,-0.12402 -0.398942,-0.26148 -0.474389,-0.31626 -0.04341,0.12299 -0.113688,0.29042 0.0052,0.43512 0.182935,0.22427 0.115755,0.54363 0.115755,0.54363 0,0 -0.689363,0.0703 -1.028361,-0.11265 -0.338997,-0.18397 -0.540535,-0.42685 -0.760677,-0.50023 -0.03617,0.14263 -0.06201,0.34313 0.174666,0.56844 0.276986,0.26459 0.132292,0.65526 0.132292,0.65526 0,0 -0.583943,0.15606 -1.023193,-0.20154 -0.440283,-0.3576 -0.502295,-0.84542 -0.914673,-0.8661 0,0 -0.08268,0.34417 0.137459,0.6532 0.220142,0.30902 0.04547,0.74414 0.04547,0.74414 0,0 -0.522965,0.0475 -1.00769,-0.21498 -0.508495,-0.27492 -0.33693,-0.79065 -0.824755,-0.88367 -0.04547,0.21911 -0.07235,0.42789 -0.0279,0.78755 0.06925,0.54984 -0.301791,0.80616 -0.301791,0.80616 0,0 -0.541569,-0.17364 -0.77928,-0.58601 -0.238745,-0.41238 -0.291455,-0.75861 -0.595313,-0.87127 -0.08785,0.17673 -0.09198,0.38964 -0.06201,0.74724 0.04237,0.5085 -0.1726,0.70797 -0.1726,0.70797 0,0 -0.272851,-0.22634 -0.735872,-0.44959 -0.778247,-0.3731 -0.503329,-1.09657 -1.041797,-1.28467 -0.06821,0.22014 -0.121956,0.43408 -0.03617,0.68316 0.178801,0.52193 -0.05478,0.86506 -0.05478,0.86506 0,0 -0.557072,-0.0961 -0.894002,-0.52916 -0.33693,-0.43305 -0.271818,-0.99943 -0.649056,-1.13378 -0.07441,0.15192 -0.163297,0.31316 -0.113688,0.65319 0.06821,0.47439 -0.33693,0.76687 -0.33693,0.76687 0,0 -0.47439,-0.17259 -0.831991,-0.60358 -0.405143,-0.48782 -0.148828,-1.18339 -0.597379,-1.34358 -0.09198,0.13746 -0.125057,0.28628 -0.100253,0.57257 0.04031,0.44442 -0.326595,0.75241 -0.326595,0.75241 0,0 -0.701766,-0.28215 -0.996321,-0.64699 -0.487826,-0.60461 -0.282153,-1.53272 -0.721403,-1.69085 0,0 -0.19327,0.19223 -0.110588,0.55914 0.08268,0.3669 -0.28422,0.6966 -0.28422,0.6966 0,0 -0.640788,-0.22015 -1.043864,-0.76068 -0.406177,-0.54364 -0.347266,-1.81901 -0.884701,-2.24069 -0.446484,-0.35037 -1.189591,0.3452 -0.907438,0.95291 0.435116,0.93948 1.63711,1.90686 1.95647,2.73575 0.250114,0.64906 0.250114,1.49345 0.10542,2.14044 -0.489893,-0.12919 -0.430982,-0.7245 -0.714168,-0.74931 -0.04651,0.41858 -0.01447,0.75551 0.113688,1.45934 0.185001,1.01286 -0.526066,1.64538 -0.796851,2.16318 0,0 -0.398942,-0.1819 -0.531234,-0.64182 -0.06925,-0.23875 -0.124023,-0.36174 -0.302823,-0.52297 -0.06925,0.21601 -0.07338,0.43822 -0.02894,0.61289 0.06511,0.25631 0.10852,0.7524 -0.283187,1.22473 -0.394808,0.47749 -0.817521,0.79788 -1.241268,1.05626 z m 0,0"
           id="path254" />
        <path
           inkscape:connector-curvature="0"
           style="fill:#000000;fill-opacity:1;fill-rule:nonzero;stroke:none;stroke-width:0.26458332"
           d="m 88.631062,239.7883 c 0,0 -0.02687,0.003 -0.07235,0.007 -0.04547,0.003 -0.12609,0 -0.209804,-0.0155 -0.08578,-0.0176 -0.186037,-0.0496 -0.280088,-0.10851 -0.09612,-0.0558 -0.180866,-0.1385 -0.25218,-0.22532 -0.142629,-0.17673 -0.228409,-0.3762 -0.285255,-0.52503 -0.05684,-0.14882 -0.08371,-0.25011 -0.08371,-0.25011 -0.0041,-0.0134 0.0031,-0.0269 0.01551,-0.031 0.01241,-0.003 0.02479,0.003 0.02997,0.0124 0,0 0.04444,0.0951 0.124023,0.22841 0.07855,0.13126 0.196371,0.30283 0.343133,0.42995 0.144693,0.13023 0.309023,0.20257 0.441314,0.23875 0.06925,0.0176 0.119891,0.0279 0.164333,0.0362 0.04547,0.007 0.07131,0.0114 0.07131,0.0114 0.05271,0.008 0.08888,0.0579 0.08062,0.11059 -0.0072,0.0444 -0.04444,0.0775 -0.08682,0.0806"
           id="path256" />
        <path
           inkscape:connector-curvature="0"
           style="fill:#f5c72e;fill-opacity:1;fill-rule:nonzero;stroke:none;stroke-width:0.26458332"
           d="m 76.23492,179.93872 c -0.898136,0.60462 -3.161565,0.3266 -4.279842,1.16996 -1.118277,0.84336 -1.517221,1.69498 -1.517221,3.15536 0,2.04742 1.576131,4.77697 1.854152,4.71393 -0.495062,-1.5379 -0.79892,-2.50011 -0.566375,-2.94039 0.347266,-0.6594 0.902272,-0.81442 1.564762,-0.73794 1.416968,0.16226 3.150195,1.29191 4.70359,0.95291 2.140437,-0.46716 2.378149,-2.32544 2.378149,-2.32544 -0.886767,0.71417 -1.834515,1.17512 -3.385841,0.74001 -1.130678,-0.3173 -2.246889,-1.12035 -3.693829,-0.98082 -0.996323,0.0961 -1.697056,0.91364 -1.697056,0.91364 0,0 -0.110588,-1.44281 2.018482,-1.87586 1.248503,-0.25425 3.747574,-0.27491 4.36666,-0.0548 0.351398,0.12402 0.772043,0.81132 1.154451,1.21646 0.291454,0.30799 0.610814,0.40618 0.591177,0.24081 -0.173633,-1.45727 0.153995,-2.00814 -0.01138,-3.10575 -0.07752,-0.51987 -0.524,-1.14618 -1.143082,-1.69912 -0.696598,0.70693 -1.347722,0.83819 -1.347722,0.83819 0.447519,-0.32039 0.711068,-0.91157 0.833025,-1.2516 -0.270785,-0.19534 -0.558107,-0.37311 -0.854728,-0.52194 0,0 -0.33383,1.12552 -0.967383,1.55236"
           id="path258" />
        <path
           inkscape:connector-curvature="0"
           style="fill:none;stroke:#000000;stroke-width:0.1984375;stroke-linecap:round;stroke-linejoin:round;stroke-miterlimit:10;stroke-opacity:1"
           d="m 76.23492,179.93873 c -0.898136,0.60461 -3.161564,0.32659 -4.279842,1.16995 -1.118278,0.84336 -1.51722,1.69499 -1.51722,3.15537 0,2.04742 1.576131,4.77697 1.85415,4.71392 -0.49506,-1.53789 -0.798917,-2.50011 -0.566373,-2.94039 0.347265,-0.65939 0.90227,-0.81442 1.564762,-0.73794 1.416968,0.16227 3.150195,1.29191 4.703589,0.95292 2.140438,-0.46716 2.378149,-2.32544 2.378149,-2.32544 -0.886767,0.71416 -1.834513,1.17512 -3.385839,0.74 -1.130681,-0.31729 -2.246892,-1.12034 -3.693832,-0.98082 -0.996322,0.0961 -1.697054,0.91364 -1.697054,0.91364 0,0 -0.110587,-1.4428 2.018482,-1.87585 1.248502,-0.25425 3.747574,-0.27492 4.366658,-0.0548 0.3514,0.12403 0.772046,0.81132 1.154452,1.21646 0.291455,0.308 0.610815,0.40618 0.591178,0.24082 -0.173633,-1.45728 0.153996,-2.00815 -0.01137,-3.10576 -0.07751,-0.51986 -0.523999,-1.14618 -1.143083,-1.69912 -0.696598,0.70694 -1.347721,0.83819 -1.347721,0.83819 0.447518,-0.32039 0.711067,-0.91157 0.833024,-1.2516 -0.270785,-0.19534 -0.558106,-0.3731 -0.854728,-0.52193 0,0 -0.33383,1.12551 -0.967383,1.55236 z m 0,0"
           id="path260" />
        <path
           inkscape:connector-curvature="0"
           style="fill:#000000;fill-opacity:1;fill-rule:nonzero;stroke:none;stroke-width:0.26458332"
           d="m 71.653286,185.21385 c 0,0 0.04858,-0.0775 0.150898,-0.18396 0.102317,-0.10956 0.26975,-0.24805 0.504362,-0.35657 0.117821,-0.0506 0.249078,-0.10025 0.394806,-0.12402 0.144695,-0.0258 0.299725,-0.0382 0.459919,-0.0217 0.307994,0.0238 0.642856,0.11782 0.946714,0.23874 0.61495,0.24702 1.173054,0.59428 1.616437,0.80306 0.221176,0.10438 0.410314,0.1819 0.549839,0.216 0.06718,0.0238 0.124023,0.0258 0.161229,0.0351 0.03824,0.006 0.05788,0.0104 0.05788,0.0104 0,0 -0.01963,-0.003 -0.05788,-0.007 -0.03721,-0.007 -0.09508,-0.007 -0.16433,-0.0269 -0.141594,-0.0269 -0.336931,-0.094 -0.564306,-0.18913 -0.454752,-0.19017 -1.026295,-0.51987 -1.637109,-0.73898 -0.309026,-0.10852 -0.613916,-0.18396 -0.91984,-0.1974 -0.14573,-0.0103 -0.289388,-0.001 -0.420648,0.0248 -0.133323,0.0217 -0.25218,0.0682 -0.358635,0.11576 -0.212905,0.0992 -0.363802,0.22841 -0.461986,0.32246 -0.09922,0.0971 -0.14056,0.15916 -0.14056,0.15916 -0.02066,0.032 -0.06511,0.0413 -0.09818,0.0196 -0.03101,-0.0207 -0.04031,-0.0641 -0.02066,-0.0961 z m 0,0"
           id="path262" />
        <path
           inkscape:connector-curvature="0"
           style="fill:#ffffff;fill-opacity:1;fill-rule:nonzero;stroke:none;stroke-width:0.26458332"
           d="m 76.619391,178.65508 c 0,0 -0.365868,-0.32349 -0.962213,-0.41238 -1.008724,-0.15089 -1.850017,0.25425 -2.721282,0.90227 -0.197403,0.14677 -0.274918,0.26872 -0.235645,0.34004 0.05168,0.0951 0.179834,0.0403 0.399976,-0.0827 0.220141,-0.12402 0.549838,-0.30385 0.549838,-0.30385 0,0 0.553971,0.73587 1.322917,0.82578 1.026292,0.11886 1.646409,-0.50642 1.646409,-1.26917"
           id="path264" />
        <path
           inkscape:connector-curvature="0"
           style="fill:#000000;fill-opacity:1;fill-rule:nonzero;stroke:none;stroke-width:0.26458332"
           d="m 75.994107,178.80288 c 0,0.26355 -0.21394,0.47749 -0.477489,0.47749 -0.264583,0 -0.47749,-0.21394 -0.47749,-0.47749 0,-0.26355 0.212907,-0.47749 0.47749,-0.47749 0.263549,0 0.477489,0.21394 0.477489,0.47749"
           id="path266" />
        <path
           inkscape:connector-curvature="0"
           style="fill:none;stroke:#000000;stroke-width:0.1984375;stroke-linecap:round;stroke-linejoin:round;stroke-miterlimit:10;stroke-opacity:1"
           d="m 78.932429,225.44085 c 0.606682,3.77342 2.287199,9.61285 6.924642,14.16761"
           id="path268" />
        <path
           inkscape:connector-curvature="0"
           style="fill:#000000;fill-opacity:1;fill-rule:nonzero;stroke:none;stroke-width:0.26458332"
           d="m 87.467308,239.87305 c 0,0 -0.02687,0.003 -0.07234,0.007 -0.04548,0.003 -0.126093,0 -0.209807,-0.0155 -0.08578,-0.0176 -0.186036,-0.0496 -0.280088,-0.10852 -0.09612,-0.0558 -0.180866,-0.1385 -0.25218,-0.22531 -0.142626,-0.17673 -0.228409,-0.37621 -0.285255,-0.52503 -0.05684,-0.14883 -0.08371,-0.25012 -0.08371,-0.25012 -0.0041,-0.0134 0.0031,-0.0269 0.01551,-0.031 0.01138,-0.003 0.02479,0.003 0.02997,0.0124 0,0 0.04444,0.0951 0.124023,0.22841 0.07855,0.13126 0.196371,0.30283 0.342098,0.42995 0.145728,0.13023 0.31006,0.20257 0.442352,0.23875 0.06925,0.0176 0.119888,0.0279 0.16433,0.0362 0.04548,0.007 0.07131,0.0114 0.07131,0.0114 0.05271,0.008 0.08888,0.0579 0.08062,0.11058 -0.0072,0.0445 -0.04444,0.0775 -0.08682,0.0806"
           id="path270" />
        <path
           inkscape:connector-curvature="0"
           style="fill:none;stroke:#000000;stroke-width:0.1984375;stroke-linecap:round;stroke-linejoin:round;stroke-miterlimit:10;stroke-opacity:1"
           d="m 81.293009,225.92972 c -0.503328,0.59118 -1.549259,0.7152 -2.006079,1.34772"
           id="path272" />
        <path
           inkscape:connector-curvature="0"
           style="fill:none;stroke:#000000;stroke-width:0.1984375;stroke-linecap:round;stroke-linejoin:round;stroke-miterlimit:10;stroke-opacity:1"
           d="m 82.109497,228.25309 c -0.743107,0.69763 -1.754932,0.57774 -2.183846,1.39423"
           id="path274" />
        <path
           inkscape:connector-curvature="0"
           style="fill:none;stroke:#000000;stroke-width:0.1984375;stroke-linecap:round;stroke-linejoin:round;stroke-miterlimit:10;stroke-opacity:1"
           d="m 82.723413,230.21472 c -0.522966,0.55397 -1.828313,0.79272 -2.128036,1.31878"
           id="path276" />
        <path
           inkscape:connector-curvature="0"
           style="fill:none;stroke:#000000;stroke-width:0.1984375;stroke-linecap:round;stroke-linejoin:round;stroke-miterlimit:10;stroke-opacity:1"
           d="m 83.300122,232.25388 c -0.43925,0.55914 -1.497583,0.61391 -1.796273,1.31258"
           id="path278" />
        <path
           inkscape:connector-curvature="0"
           style="fill:none;stroke:#000000;stroke-width:0.1984375;stroke-linecap:round;stroke-linejoin:round;stroke-miterlimit:10;stroke-opacity:1"
           d="m 83.687695,234.01087 c -0.304891,0.37827 -0.977718,0.44235 -1.347722,1.09037"
           id="path280" />
        <path
           inkscape:connector-curvature="0"
           style="fill:none;stroke:#000000;stroke-width:0.1984375;stroke-linecap:round;stroke-linejoin:round;stroke-miterlimit:10;stroke-opacity:1"
           d="m 84.303677,235.63042 c -0.28422,0.11989 -0.892968,0.5178 -1.104842,0.80925"
           id="path282" />
        <path
           inkscape:connector-curvature="0"
           style="fill:none;stroke:#000000;stroke-width:0.1984375;stroke-linecap:round;stroke-linejoin:round;stroke-miterlimit:10;stroke-opacity:1"
           d="m 85.128434,236.78073 c -0.21084,0.1695 -0.480591,0.53847 -0.625285,0.80409"
           id="path284" />
        <path
           inkscape:connector-curvature="0"
           style="fill:none;stroke:#000000;stroke-width:0.1984375;stroke-linecap:round;stroke-linejoin:round;stroke-miterlimit:10;stroke-opacity:1"
           d="m 89.963281,236.98744 c -0.359668,-0.0393 -0.772046,0.03 -1.072803,0.48576 -0.204639,0.31109 -0.211873,0.63458 -0.21084,1.09967 0.532267,0.0734 0.756543,0.63666 0.522966,1.14515 0.390673,-0.0444 0.853694,0.0413 1.209228,0.38551 0.568441,0.5488 0.696599,1.08417 0.587044,1.51205 0.425814,-0.0899 1.065568,-1.0387 0.109555,-2.32337"
           id="path286" />
        <path
           inkscape:connector-curvature="0"
           style="fill:none;stroke:#000000;stroke-width:0.1984375;stroke-linecap:round;stroke-linejoin:round;stroke-miterlimit:10;stroke-opacity:1"
           d="m 87.699853,242.01349 c 0,0 -0.749309,0.47336 -0.94878,1.19579 -0.233577,0.84646 0.13746,1.19476 0.563274,1.2237 0.49506,0.0341 0.829923,-0.37 0.563273,-1.20923 -0.306958,-0.96738 -0.177767,-1.21026 -0.177767,-1.21026 z m 0,0"
           id="path288" />
        <path
           inkscape:connector-curvature="0"
           style="fill:none;stroke:#000000;stroke-width:0.1984375;stroke-linecap:round;stroke-linejoin:round;stroke-miterlimit:10;stroke-opacity:1"
           d="m 88.835701,241.77991 c 0,0 -0.338997,0.80408 -0.156063,1.84175 0.151929,0.86093 1.006657,1.36839 1.500684,0.96324 0.437183,-0.3576 0.223242,-0.84542 -0.465088,-1.34462 -0.74414,-0.5395 -0.879533,-1.46037 -0.879533,-1.46037 z m 0,0"
           id="path290" />
        <path
           inkscape:connector-curvature="0"
           style="fill:none;stroke:#000000;stroke-width:0.1984375;stroke-linecap:round;stroke-linejoin:round;stroke-miterlimit:10;stroke-opacity:1"
           d="m 89.569506,241.15669 c 0,0 -0.03101,1.08934 0.804085,1.85415 0.586011,0.53744 1.175122,0.50127 1.374594,0.0961 0.163297,-0.33279 -0.02067,-0.80202 -0.850594,-0.96945 -1.122413,-0.22634 -1.328085,-0.98082 -1.328085,-0.98082 z m 0,0"
           id="path292" />
        <path
           inkscape:connector-curvature="0"
           style="fill:#000000;fill-opacity:1;fill-rule:nonzero;stroke:none;stroke-width:0.26458332"
           d="m 46.337004,239.5971 c 0,0 0.02585,-0.004 0.07131,-0.0114 0.04444,-0.008 0.09509,-0.0186 0.163298,-0.0362 0.133323,-0.0362 0.297656,-0.10852 0.443383,-0.23875 0.145728,-0.12712 0.262517,-0.29765 0.342099,-0.42994 0.07958,-0.13333 0.124023,-0.22738 0.124023,-0.22738 0.0062,-0.0124 0.02066,-0.0176 0.03307,-0.0124 0.01035,0.005 0.01551,0.0186 0.01241,0.03 0,0 -0.02687,0.10129 -0.08371,0.25011 -0.05685,0.14883 -0.143661,0.3483 -0.285255,0.52504 -0.07235,0.0868 -0.156062,0.1695 -0.25218,0.22531 -0.09405,0.0589 -0.194305,0.0909 -0.280088,0.10852 -0.08371,0.0155 -0.16433,0.0196 -0.209807,0.0155 -0.04547,-0.004 -0.07234,-0.007 -0.07234,-0.007 -0.05271,-0.004 -0.09199,-0.0517 -0.08785,-0.10439 0.0041,-0.0444 0.03824,-0.0796 0.08165,-0.0868"
           id="path294" />
        <path
           inkscape:connector-curvature="0"
           style="fill:#f5c72e;fill-opacity:1;fill-rule:nonzero;stroke:none;stroke-width:0.26458332"
           d="m 58.739347,179.93872 c 0.898136,0.60462 3.161565,0.3266 4.279842,1.16996 1.118277,0.84336 1.517221,1.69498 1.517221,3.15536 0,2.04742 -1.576133,4.77697 -1.854152,4.71393 0.495062,-1.5379 0.798917,-2.50011 0.566375,-2.94039 -0.347266,-0.6594 -0.902272,-0.81442 -1.564762,-0.73794 -1.416968,0.16226 -3.150195,1.29191 -4.70359,0.95291 -2.140437,-0.46716 -2.378149,-2.32544 -2.378149,-2.32544 0.886767,0.71417 1.834512,1.17512 3.385841,0.74001 1.130678,-0.3173 2.246889,-1.12035 3.693829,-0.98082 0.996323,0.0961 1.697056,0.91364 1.697056,0.91364 0,0 0.110585,-1.44281 -2.018482,-1.87586 -1.248503,-0.25425 -3.747574,-0.27491 -4.36666,-0.0548 -0.351398,0.12402 -0.772046,0.81132 -1.154451,1.21646 -0.291454,0.30799 -0.610814,0.40618 -0.591177,0.24081 0.173633,-1.45727 -0.153995,-2.00814 0.01138,-3.10575 0.07751,-0.51987 0.523997,-1.14618 1.143082,-1.69912 0.696598,0.70693 1.347722,0.83819 1.347722,0.83819 -0.447519,-0.32039 -0.711068,-0.91157 -0.833025,-1.2516 0.270785,-0.19534 0.558107,-0.37311 0.854728,-0.52194 0,0 0.33383,1.12552 0.967383,1.55236"
           id="path296" />
        <path
           inkscape:connector-curvature="0"
           style="fill:none;stroke:#000000;stroke-width:0.1984375;stroke-linecap:round;stroke-linejoin:round;stroke-miterlimit:10;stroke-opacity:1"
           d="m 58.739347,179.93873 c 0.898136,0.60461 3.161564,0.32659 4.279842,1.16995 1.118278,0.84336 1.51722,1.69499 1.51722,3.15537 0,2.04742 -1.576131,4.77697 -1.85415,4.71392 0.49506,-1.53789 0.798917,-2.50011 0.566373,-2.94039 -0.347265,-0.65939 -0.90227,-0.81442 -1.564762,-0.73794 -1.416968,0.16227 -3.150195,1.29191 -4.703589,0.95292 -2.140438,-0.46716 -2.378149,-2.32544 -2.378149,-2.32544 0.886767,0.71416 1.834513,1.17512 3.385839,0.74 1.130681,-0.31729 2.246892,-1.12034 3.693832,-0.98082 0.996322,0.0961 1.697054,0.91364 1.697054,0.91364 0,0 0.110587,-1.4428 -2.018482,-1.87585 -1.248502,-0.25425 -3.747574,-0.27492 -4.366658,-0.0548 -0.3514,0.12403 -0.772046,0.81132 -1.154451,1.21646 -0.291456,0.308 -0.610816,0.40618 -0.591179,0.24082 0.173633,-1.45728 -0.153996,-2.00815 0.01137,-3.10576 0.07751,-0.51986 0.524,-1.14618 1.143083,-1.69912 0.696598,0.70694 1.347722,0.83819 1.347722,0.83819 -0.447518,-0.32039 -0.711068,-0.91157 -0.833025,-1.2516 0.270785,-0.19534 0.558106,-0.3731 0.854729,-0.52193 0,0 0.333829,1.12551 0.967382,1.55236 z m 0,0"
           id="path298" />
        <path
           inkscape:connector-curvature="0"
           style="fill:#000000;fill-opacity:1;fill-rule:nonzero;stroke:none;stroke-width:0.26458332"
           d="m 63.203156,185.29344 c 0,0 -0.04031,-0.062 -0.139525,-0.15917 -0.09818,-0.094 -0.249081,-0.22324 -0.461986,-0.32246 -0.106455,-0.0475 -0.225312,-0.0941 -0.358635,-0.11575 -0.13126,-0.0258 -0.274921,-0.0351 -0.420648,-0.0248 -0.305924,0.0134 -0.610814,0.0889 -0.91984,0.19843 -0.610814,0.21808 -1.182357,0.54777 -1.637109,0.73794 -0.227375,0.0951 -0.422714,0.16227 -0.564306,0.18914 -0.06925,0.0196 -0.127124,0.0196 -0.164333,0.0269 -0.03824,0.004 -0.05788,0.007 -0.05788,0.007 0,0 0.01963,-0.004 0.05788,-0.0103 0.03721,-0.009 0.09405,-0.0114 0.162267,-0.0351 0.13849,-0.0341 0.32866,-0.11059 0.548801,-0.21601 0.443386,-0.20877 1.00149,-0.55604 1.61644,-0.80305 0.303858,-0.12092 0.63872,-0.21498 0.946711,-0.23875 0.160197,-0.0165 0.315227,-0.004 0.459922,0.0217 0.145728,0.0238 0.276985,0.0734 0.394806,0.12402 0.234612,0.10852 0.402043,0.24702 0.503331,0.35657 0.103351,0.10645 0.151929,0.18397 0.151929,0.18397 l 0.0021,0.003 c 0.02066,0.0331 0.01035,0.0765 -0.02273,0.0971 -0.03307,0.0207 -0.07545,0.0114 -0.09715,-0.0207"
           id="path300" />
        <path
           inkscape:connector-curvature="0"
           style="fill:#ffffff;fill-opacity:1;fill-rule:nonzero;stroke:none;stroke-width:0.26458332"
           d="m 58.354873,178.65508 c 0,0 0.365871,-0.32349 0.962216,-0.41238 1.008724,-0.15089 1.850017,0.25425 2.721282,0.90227 0.197403,0.14677 0.274918,0.26872 0.235643,0.34004 -0.05168,0.0951 -0.179832,0.0403 -0.399974,-0.0827 -0.220143,-0.12402 -0.549838,-0.30385 -0.549838,-0.30385 0,0 -0.553971,0.73587 -1.322917,0.82578 -1.026295,0.11886 -1.646412,-0.50642 -1.646412,-1.26917"
           id="path302" />
        <path
           inkscape:connector-curvature="0"
           style="fill:#000000;fill-opacity:1;fill-rule:nonzero;stroke:none;stroke-width:0.26458332"
           d="m 58.98016,178.80288 c 0,0.26355 0.21394,0.47749 0.477489,0.47749 0.264583,0 0.47749,-0.21394 0.47749,-0.47749 0,-0.26355 -0.212907,-0.47749 -0.47749,-0.47749 -0.263549,0 -0.477489,0.21394 -0.477489,0.47749"
           id="path304" />
        <path
           inkscape:connector-curvature="0"
           style="fill:none;stroke:#000000;stroke-width:0.1984375;stroke-linecap:round;stroke-linejoin:round;stroke-miterlimit:10;stroke-opacity:1"
           d="m 56.041838,225.44085 c -0.606682,3.77342 -2.287199,9.61285 -6.924642,14.16761"
           id="path306" />
        <path
           inkscape:connector-curvature="0"
           style="fill:#000000;fill-opacity:1;fill-rule:nonzero;stroke:none;stroke-width:0.26458332"
           d="m 47.500757,239.68185 c 0,0 0.02582,-0.004 0.07131,-0.0114 0.04444,-0.008 0.09508,-0.0186 0.16433,-0.0362 0.132291,-0.0362 0.296624,-0.10852 0.442351,-0.23875 0.145727,-0.12712 0.263549,-0.29765 0.342099,-0.42995 0.07958,-0.13332 0.124023,-0.22737 0.124023,-0.22737 0.0062,-0.0124 0.02066,-0.0176 0.03307,-0.0124 0.01034,0.005 0.0155,0.0186 0.01241,0.03 0,0 -0.02687,0.10128 -0.08372,0.25011 -0.05684,0.14883 -0.142626,0.3483 -0.285253,0.52504 -0.07131,0.0868 -0.156061,0.16949 -0.252182,0.22531 -0.09405,0.0589 -0.194302,0.0909 -0.280085,0.10852 -0.08372,0.0155 -0.163298,0.0196 -0.209807,0.0155 -0.04547,-0.004 -0.07235,-0.007 -0.07235,-0.007 -0.05271,-0.004 -0.09198,-0.0517 -0.08785,-0.10439 0.0041,-0.0444 0.03928,-0.0796 0.08165,-0.0868"
           id="path308" />
        <path
           inkscape:connector-curvature="0"
           style="fill:none;stroke:#000000;stroke-width:0.1984375;stroke-linecap:round;stroke-linejoin:miter;stroke-miterlimit:10;stroke-opacity:1"
           d="m 53.681258,225.92972 c 0.503328,0.59118 1.549259,0.7152 2.006079,1.34772"
           id="path310" />
        <path
           inkscape:connector-curvature="0"
           style="fill:none;stroke:#000000;stroke-width:0.1984375;stroke-linecap:round;stroke-linejoin:miter;stroke-miterlimit:10;stroke-opacity:1"
           d="m 52.86477,228.25309 c 0.743107,0.69763 1.754932,0.57774 2.183846,1.39423"
           id="path312" />
        <path
           inkscape:connector-curvature="0"
           style="fill:none;stroke:#000000;stroke-width:0.1984375;stroke-linecap:round;stroke-linejoin:miter;stroke-miterlimit:10;stroke-opacity:1"
           d="m 52.250854,230.21472 c 0.522966,0.55397 1.828313,0.79272 2.128036,1.31878"
           id="path314" />
        <path
           inkscape:connector-curvature="0"
           style="fill:none;stroke:#000000;stroke-width:0.1984375;stroke-linecap:round;stroke-linejoin:miter;stroke-miterlimit:10;stroke-opacity:1"
           d="m 51.674145,232.25388 c 0.43925,0.55914 1.497583,0.61391 1.796273,1.31258"
           id="path316" />
        <path
           inkscape:connector-curvature="0"
           style="fill:none;stroke:#000000;stroke-width:0.1984375;stroke-linecap:round;stroke-linejoin:miter;stroke-miterlimit:10;stroke-opacity:1"
           d="m 51.286572,234.01087 c 0.304891,0.37827 0.977718,0.44235 1.347722,1.09037"
           id="path318" />
        <path
           inkscape:connector-curvature="0"
           style="fill:none;stroke:#000000;stroke-width:0.1984375;stroke-linecap:round;stroke-linejoin:miter;stroke-miterlimit:10;stroke-opacity:1"
           d="m 50.67059,235.63042 c 0.28422,0.11989 0.892968,0.5178 1.104842,0.80925"
           id="path320" />
        <path
           inkscape:connector-curvature="0"
           style="fill:none;stroke:#000000;stroke-width:0.1984375;stroke-linecap:round;stroke-linejoin:miter;stroke-miterlimit:10;stroke-opacity:1"
           d="m 49.845833,236.78073 c 0.21084,0.1695 0.480591,0.53847 0.625285,0.80409"
           id="path322" />
        <path
           inkscape:connector-curvature="0"
           style="fill:none;stroke:#000000;stroke-width:0.1984375;stroke-linecap:round;stroke-linejoin:round;stroke-miterlimit:10;stroke-opacity:1"
           d="m 45.010986,236.98744 c 0.359668,-0.0393 0.772046,0.03 1.072803,0.48576 0.204639,0.31109 0.211873,0.63458 0.21084,1.09967 -0.532267,0.0734 -0.756543,0.63666 -0.522966,1.14515 -0.390673,-0.0444 -0.853694,0.0413 -1.209228,0.38551 -0.568441,0.5488 -0.696599,1.08417 -0.587044,1.51205 -0.425814,-0.0899 -1.065568,-1.0387 -0.109555,-2.32337"
           id="path324" />
        <path
           inkscape:connector-curvature="0"
           style="fill:none;stroke:#000000;stroke-width:0.1984375;stroke-linecap:round;stroke-linejoin:round;stroke-miterlimit:10;stroke-opacity:1"
           d="m 47.274414,242.01349 c 0,0 0.749309,0.47336 0.94878,1.19579 0.233577,0.84646 -0.13746,1.19476 -0.563274,1.2237 -0.49506,0.0341 -0.829923,-0.37 -0.563273,-1.20923 0.306958,-0.96738 0.177767,-1.21026 0.177767,-1.21026 z m 0,0"
           id="path326" />
        <path
           inkscape:connector-curvature="0"
           style="fill:none;stroke:#000000;stroke-width:0.1984375;stroke-linecap:round;stroke-linejoin:round;stroke-miterlimit:10;stroke-opacity:1"
           d="m 46.138566,241.77991 c 0,0 0.338997,0.80408 0.156063,1.84175 -0.151929,0.86093 -1.006657,1.36839 -1.500684,0.96324 -0.437183,-0.3576 -0.223242,-0.84542 0.465088,-1.34462 0.74414,-0.5395 0.879533,-1.46037 0.879533,-1.46037 z m 0,0"
           id="path328" />
        <path
           inkscape:connector-curvature="0"
           style="fill:none;stroke:#000000;stroke-width:0.1984375;stroke-linecap:round;stroke-linejoin:round;stroke-miterlimit:10;stroke-opacity:1"
           d="m 45.404761,241.15669 c 0,0 0.03101,1.08934 -0.804085,1.85415 -0.586011,0.53744 -1.175122,0.50127 -1.374594,0.0961 -0.163297,-0.33279 0.02067,-0.80202 0.850594,-0.96945 1.122413,-0.22634 1.328085,-0.98082 1.328085,-0.98082 z m 0,0"
           id="path330" />
      </g>
    </g>
  </g>
</svg>
