<?xml version="1.0" encoding="utf-8"?>
<!-- Generator: Adobe Illustrator 12.0.0, SVG Export Plug-In . SVG Version: 6.00 Build 51448)  -->
<!DOCTYPE svg PUBLIC "-//W3C//DTD SVG 1.1//EN" "http://www.w3.org/Graphics/SVG/1.1/DTD/svg11.dtd" [
	<!ENTITY ns_svg "http://www.w3.org/2000/svg">
	<!ENTITY ns_xlink "http://www.w3.org/1999/xlink">
]>
<svg  version="1.1" id="Layer_1" xmlns="&ns_svg;" xmlns:xlink="&ns_xlink;" width="945.818" height="981.375"
	 viewBox="0 0 945.818 981.375" overflow="visible" enable-background="new 0 0 945.818 981.375" xml:space="preserve">
<g>
	<path fill-rule="evenodd" clip-rule="evenodd" d="M412.462,0c9.482,0,18.964,0,28.446,0c-2.724,43.236,38.776,71.438,78.226,92.448
		c38.98-17.911,62.612-51.17,85.337-85.337c25.003,8.184,45.138,21.235,42.668,56.892c-32.971,1.559-81.135,26.707-99.56,64.002
		c20.614,38.647,71.514,47.01,85.337,92.448c-11.334,47.928-61.896,56.627-85.337,92.449c18.563,11.525,74.57-13.504,99.56,7.111
		c3.441,27.146-2.018,45.392-14.223,56.891c-15.41-22.306-78.717-27.354-99.56-21.334c-8.689,26.879-10.921,90.097-7.111,106.671
		c90.091-2.384,173.889,1.526,256.011,7.111c15.057-38.007,7.641-97.938-14.223-120.894c23.442-18.25,56.866,1.042,85.337,0
		c-2.788,52.568,68.189,31.371,71.114,78.226c7.959,34.035-17.539,34.612-21.335,56.892c14.941,8.764,27.728,19.682,42.669,28.445
		c0,21.334,0,42.669,0,64.003c-32.318,34.853-130.254,52.69-177.785,28.445c7.345-28.212,17.107-54.006,21.334-85.337
		c-98.003-14.869-181.271-3.964-270.233-21.334c1.826,105.782-12.298,165.131-21.335,248.899
		c58.024-8.251,95.744-50.633,106.672-85.337c41.076-0.778,43.085,37.511,56.891,64.003
		c-45.521,14.363-113.662,27.989-142.228,78.226c49.763,33.203,77.977,87.956,128.005,120.894
		c-27.679,3.138-18.596,43.037-56.891,35.558c-12.698-11.007-4.725-42.686-21.335-49.78
		c-47.789,13.843-62.918,60.346-113.782,71.114c-16.772-40.119-46.226-67.557-78.226-92.448
		c-28.632,14.036-28.262,57.074-64.003,64.002c-17.516-16.598-28.512-24.844-42.668-71.113
		c83.366,13.829,131.362-54.324,177.785-99.561c-37.96-35.523-84.517-62.452-128.005-92.448
		c11.752-23.804,33.37-37.743,64.002-42.668c6.376,38.646,36.086,71.318,78.226,92.448c9.634-71.552,15.395-182.928,14.223-241.788
		c-131.775,17.08-297.126-4.001-405.35,7.111c-11.375,44.831,17.965,77.946,7.111,99.56c-26.133-2.313-62.958,6.066-78.226-7.111
		c0-4.741,0-9.481,0-14.223c44.542-67.046,38.497-201.574,21.334-277.345c69.418-8.264,149.954,16.013,163.562,85.337
		c-10.647,20.169-17.549,44.083-21.334,71.114c135.719,4.75,217.471-10.023,320.013,0c-2.292-55.601,8.515-53.936,7.111-106.671
		c-39.722-18.499-103.149-5.24-128.005,14.223c-19.307-3.972-23.353-67.816,0-71.114c28.332,16.708,74.314,15.764,120.894,14.223
		c-26.747-41.997-73.241-64.246-106.671-99.56c25.56-39.312,101.146-63.607,99.56-106.671
		c-35.676-38.983-69.534-40.386-106.671-49.78C363.975,17.887,405.892,26.616,412.462,0z M433.796,220.454
		c35.717,11.693,46.598,48.221,78.226,64.003c28.822-18.586,56.709-38.109,71.114-71.114C552.59,194.108,541,155.919,497.798,149.34
		C484.928,181.508,446.127,187.746,433.796,220.454z M71.114,448.019c51.693,28.662,101.525-98.242,14.223-92.449
		C72.772,394.383,74.184,403.88,71.114,448.019z M839.147,476.464c4.133-21.941,25.711-26.439,42.668-35.557
		c0.502-28.948-26.279-30.612-56.892-28.446C827.986,435.475,815.566,473.97,839.147,476.464z M824.923,568.913
		c33.332-6.967,79.672-0.925,92.449-28.446C891.896,503.511,792.418,500.66,824.923,568.913z M419.573,874.704
		c11.627,21.56,40.667,25.706,49.78,49.779c30.798-7.13,50.081-25.774,64.003-49.779
		C516.666,805.164,441.85,814.581,419.573,874.704z"/>
</g>
</svg>
