<svg xmlns="http://www.w3.org/2000/svg" version="1" width="700" height="500"><path fill="none" d="M-731.445-345.405h700v500h-700z"/><path fill="#ad0000" d="M0 0h700v500H0z"/><path d="M395.414 110.512a3.392 3.392 0 1 0 6.784 0 3.392 3.392 0 0 0-6.784 0zm-90.88 0a3.392 3.392 0 1 1-6.783 0 3.392 3.392 0 0 1 6.784 0zm22.277-23.758c-2.272.287-3.043 5.967-3.53 8.642-9.366-3.472-32.046 3.718-33.775 18.148-4.412 3.637-12.616 9.08-13.539 14.62-1.046 4.007-.264 8.154 1.584 11.234.183 3.284-4.825 1.628-4.825 3.889 0 5.153 7.703 2.823 9.002-.936.457-1.321.649-3.745.649-3.745 6.638 0 12.79.88 17.788-2.377 5.457-3.556 12.719-9.363 17.428-6.41 9.446 5.927 14.123 56.59-1.44 57.11-4.545.152-10.292-1.52-20.453-12.027-10.162-10.506-11.82-24.13-20.597-28.518-2.261-1.13-21.77-5.224-34.64 17.067-12.87 22.292-10.214 45.193-9.074 48.756 4.184 13.076 2.224 22.473-2.305 29.67-4.528 7.198-9.578 9.101-9.578 18.653 5.96-3.159 9.708-9.723 16.564-9.723-4.562 26.202 3.393 67.931-26.07 76.77 20.534 5.77 44.073-4.36 52.932-20.237 13.159-23.584 21.805-62.278 52.932-61.214 6.928.237 12.608 21.737 8.21 24.414 0 0-7.682 6.18-13.107 7.634-5.004 1.34-21.389 1.152-21.389 1.152.336 9.336 7.506 14.267 14.403 17.716-2.672 8.258-11.018 21.317-11.018 21.317H271.43c-8.25-3.708-9.23 1.838-5.545 6.05-3.922 2.015-1.792 9.757 2.376 10.874 0 0-.108-3.985.36-5.546 3.592.3 7.145.509 9.65-1.44 1.103-1.296 2.982-1.136 4.394-1.008 0 3.356-.633 7.822 2.448 9.362 0 0-2.225 2.615-6.481 2.88-4.257.267-5.113 1.051-5.113 2.45 0 1.134.413 2.232 2.376 2.232-.035 1.491 0 4.393 0 4.393 0 2.44-3.141 3.724-5.113 3.889 2.884 2.569 7.156 1.76 9.146-1.225 2.378 1.64 4.947 2.122 6.553-.288 1.752-1.748 1.848-8.666 5.69-7.13 2.108 1.482.272 4.388-1.152 6.986-1.425 2.599-1.353 5.635 3.096 5.978 1.37 1.784.669 4.532.432 5.833 4.108-.764 5.5-2.958 6.194-6.77 7.944-3.362.822-10.798-.648-15.7-.542-4.879-.847-9.416-3.025-11.594 5.508-5.507 9.199-10.089 12.89-15.627l8.643 7.705c3.572-4.215 8.184-9.287 11.594-14.403v11.307c-4.322 5.544-11.81 10.566-11.81 18.796.628 9.323 7.588 13.635 14.763 17.284-12.017 6.312-14.232 11.614-13.035 28.879 3.189-3.76 10.124-7.675 13.611-4.105 3.67 3.756 7.826 22.681 16.276 34.856 8.45-12.175 12.534-31.1 16.204-34.856 3.487-3.57 10.494.345 13.683 4.105 1.197-17.265-1.018-22.567-13.035-28.88 7.175-3.648 14.135-7.96 14.763-17.283 0-8.23-7.56-13.252-11.882-18.796V306.26c3.41 5.116 8.022 10.188 11.594 14.403l8.642-7.705c3.692 5.538 7.383 10.12 12.891 15.627-2.178 2.178-2.483 6.715-3.025 11.595-1.47 4.9-8.592 12.337-.648 15.7.693 3.811 2.086 6.005 6.194 6.769-.237-1.301-.866-4.049.504-5.833 4.45-.343 4.52-3.38 3.096-5.978-1.424-2.598-3.332-5.504-1.224-6.985 3.842-1.537 3.938 5.38 5.69 7.13 1.606 2.41 4.175 1.926 6.553.287 1.99 2.986 6.262 3.794 9.146 1.225-1.972-.165-5.041-1.448-5.041-3.89 0 0 .035-2.9 0-4.392 1.963 0 2.304-1.098 2.304-2.233 0-1.398-.784-2.182-5.04-2.448-4.257-.266-6.482-2.881-6.482-2.881 3.08-1.54 2.376-6.006 2.376-9.362 1.412-.128 3.363-.288 4.465 1.008 2.506 1.949 5.987 1.74 9.579 1.44.468 1.56.36 5.546.36 5.546 4.168-1.117 6.37-8.86 2.448-10.875 3.685-4.211 2.632-9.757-5.617-6.05h-21.461s-8.346-13.058-11.018-21.316c6.897-3.449 13.995-8.38 14.33-17.716 0 0-16.384.189-21.388-1.152-5.425-1.454-13.035-7.634-13.035-7.634-4.398-2.677 1.21-24.177 8.138-24.414 31.127-1.064 39.773 37.63 52.932 61.214 8.859 15.878 32.47 26.007 53.004 20.237-29.463-8.839-21.58-50.568-26.142-76.77 6.856 0 10.676 6.564 16.636 9.723 0-9.552-5.122-11.455-9.65-18.653-4.53-7.197-6.49-16.594-2.305-29.67 1.14-3.563 3.796-26.464-9.074-48.756-12.87-22.291-32.307-18.198-34.568-17.067-8.778 4.389-10.507 18.012-20.669 28.518-10.161 10.507-15.908 12.179-20.452 12.027-15.564-.52-10.887-51.183-1.44-57.11 4.708-2.953 12.042 2.854 17.5 6.41 4.998 3.257 11.077 2.377 17.715 2.377 0 0 .192 2.424.649 3.745 1.299 3.759 9.002 6.089 9.002.936 0-2.261-5.008-.605-4.825-3.89 1.848-3.08 2.702-7.226 1.656-11.234-.923-5.539-9.127-10.982-13.54-14.619-1.728-14.43-24.48-21.62-33.847-18.148-.556-3.057-1.5-10.071-4.609-8.426-5.884 3.113-3.944 14.953-1.656 17.86-9.327 6.218-19.658 18.07-20.381 34.208-.723-16.138-11.054-27.99-20.38-34.208 2.287-2.907 4.155-14.747-1.73-17.86a1.798 1.798 0 0 0-1.08-.216zm-18.94 13.755c1.155.08 2.06.71 2.448 2.16.519 1.937-2.039 3.02-3.169 3.817 3.396 6.793-4.143 11-8.642 9.795-3.298-.884-6.436-7.71-1.08-10.803 1.198-.691 6.974-5.207 10.442-4.969zm84.187 0c3.468-.238 9.244 4.278 10.442 4.97 5.355 3.091 2.218 9.918-1.08 10.802-4.499 1.205-12.038-3.002-8.642-9.795-1.13-.798-3.688-1.88-3.169-3.816.389-1.451 1.293-2.081 2.449-2.16z"/></svg>