<svg xmlns="http://www.w3.org/2000/svg" width="800" height="515.931" id="svg2"><defs id="defs4"><style id="style6"></style><style id="style6-9"></style><style id="style6-5"></style><style id="style6-9-1"></style></defs><g id="layer1" transform="translate(212 83.569)"><g id="g4179"><path id="rect3035" d="M-212-83.569h800v515.931h-800z" fill="#ec2b1d"/><path d="M252.313 39.213c-1.551.281-3.112 1.075-4.657 2.344 1.553 1.275 3.13 2.035 4.688 2.312-.61-.501-1-1.36-1-2.343 0-.97.373-1.808.969-2.313zm2.5 0c.595.505 1 1.343 1 2.313 0 .997-.407 1.876-1.032 2.375 1.497-.262 2.93-1.03 4.25-2.344-1.305-1.3-2.74-2.074-4.219-2.344zm-131.125 0c1.55.281 3.11 1.075 4.656 2.344-1.553 1.275-3.13 2.035-4.688 2.312.61-.501 1-1.36 1-2.343 0-.97-.373-1.808-.969-2.313zm-2.5 0c-.596.505-1 1.343-1 2.313 0 .997.406 1.876 1.03 2.375-1.496-.262-2.93-1.03-4.25-2.344 1.306-1.3 2.74-2.074 4.22-2.344zm82.48 249.597c-.233-1.47-1.018-2.193-.33-2.737.623-.493 1.736.72 2.113 1.907.99 3.123 3.552 8.272 4.396 8.272 1.167 0 5.335-17.378 2.375-26.776-1.662-5.274-9.503-4.716-7.72-6.328 1.689-1.528 10.78 1.356 11.992 5.288.656 2.13-.24 8.743-.117 13.791.057 2.306.015 4.652.988 5.404.793.613 3.16.645 4.374.1 2.123-.953 3.77-3.065 4.874-5.031 2.981-5.308 3.77-13.048 5.225-15.01 5.027-6.779 12.083-13.547 5.89-19.034-.53-.47-1.838-.511-2.355-.049-1.501 1.343-3.989 2.737-6.283 4.147-3.724 2.288-7.39 2.935-10.442 3.271-3.657.402-7.568-.47-7.568-2.038 0-1.034 2.216.41 6.453-1.038 6.508-2.224 11.284-6.055 10.399-10.61-.35-1.798-14.363 1.89-14.805-1.67-.149-1.196 1.16.216 10.13-2.945 1.897-.668 4.425-1.292 5.081-2.57.858-1.67 1.957-2.784 2.014-3.839.157-2.881-4.21-1.28-6.321-.762-3.098.761-5.5 1.388-5.274.237.225-1.146 3.574-.47 8.558-5.945 2.91-3.198 4.598-7.803 2.34-7.376-11.386 2.151-20.999 1.69-19.728-9.438 1.383-12.107 15.88-11.871 21.747-1.708 2.347 4.065 1.548 14.208 1.548 18.54 0 2.126.332 2.113 2.234.351 1.728-1.599 3.835-4.195 4.784-3.941 1.057.283 1.022 2.847.776 4.405-.229 1.454.171 1.927 1.691.257 1.588-1.744 3.613-4.38 4.464-4.264.568.077.721 1.371.566 2.397-.132.868.326 1.127 1.33.06 1.183-1.261 2.466-3.525 3.139-3.32.98.299.795 2.603-.75 4.402-3.276 3.811-10.747 8.229-12.702 10.692-4.91 6.184 2.94 18.311 9.875 19.28 14.071 1.967 27.665-3.553 34.579-3.42 9.451.182 17.914 6.183 32.595 6.183 15.613 0 16.92-14.748 14.909-15.398-1.146 1.116-2.603 3.487-3.837 4.526-.95.8-2.74 1.099-2.99.267-.466-1.542 1.255-1.317 2.227-2.685 3.441-4.837 1.315-10.337.324-10.669-1.902.51-2.993 5.982-4.576 6.206-.96.136-1.562-.632-1.23-1.774.533-1.827.629-4.772-.962-5.69-3.185.212-2.355 4.12-3.526 5.566-1.27 1.57-2.523 1.77-4.525 2.23-4.605 1.058-8.036.08-7.422-2.54.762-3.25 8.03-6.241 12.51-6.406 2.17-.08 2.014-1.284 2.014-1.284s-.183-.673-1.065-1.65c-2.943-3.262-9.046-5.04-11.708-3.503-8.01 4.625-14.822 14.061-20.69 14.061-6.895 0-20.964-3.188-24.232-4.67 7.644-4.145 26.429-8.896 27.077-24.313.362-8.617-2.372-9.68-12.814-12.478-6.375-1.708-16.359-.694-18.312-12.37-.93-5.559 2.932-3.758 7.374-2.193 4.38 1.543 9.596 2.353 7.91-.067-1.403-2.016-2.794-7.017-3.117-8.624-.666-3.319.954-3.967 3.45-1.073 2.432 2.821 4.525 6.512 7.664 7.957 3.14 1.445 7.216.957 7.438.036.31-1.283-2.096-4.034-4.156-6.916-1.723-2.41-3.501-5.071-4.072-6.286-1.219-2.592.509-3.12 1.687-.885 1.569 2.894 4.874 5.166 5.666 5.166.78 0 .96-3.71 1.711-6.912 1.113-4.744 2.854-7.664 3.81-9.408.916-1.67 2.678-1.443 2.225.471-4.206 17.763-3.58 28.732.817 38.237 4.327 9.354 11.994 14.447 17.001 12.036 4.855-2.338.893-10.895-1.964-14.276-5.932-7.245-8.502-16.936-8.724-26.105-.056-2.31.025-8.46 1.938-8.767 1.3-.208 1.032 2.375 1.093 3.549-.026 6.398.458 12.739 3.107 18.867 1.744 4.035 8.565 13.738 12.028 11.295 2.66-1.876 1.545-6.576-.183-10.555-2.2-5.068-5.513-10.03-6.756-20.56-.774-6.555 4.405-8.036 4.817-1.933.374 5.537 3.864 16.327 10.55 23.605 7.903 8.603 18.154 16.608 23.088 9.927 4.287-5.804.516-10.144-4.241-13.74-7.653-5.785-22.17-20.9-23.476-25.775-.562-2.097 1.827-4.02 4.148-1.895 4.901 4.486 16.652 17.11 27.311 20.65 7.075 1.895 16.091-.163 15.937-4.461-.246-6.845-8.945-7.699-12.42-8.593-14.122-3.634-25.717-11.577-25.865-14.335-.096-1.8 1.083-2.073 3.962.805 8.648 8.648 26.08 13.306 31.429 12.483 3.175-.489 7.556-2.873 6.976-6.662-.38-2.483-5.103-3.026-5.876-3.094-15.52-1.375-23.815-3.904-31.996-11.017-1.784-1.55-1.657-5.037 3.088-1.734 9.59 6.675 27.553 10.921 38.405 7.96 11.798-3.219 11.621-10.075 7.048-12.72-2.765-1.599-4.157-1.736-8.294-.475-8.532 2.601-20.344 2.366-31.344.133-5.537-1.124-9.18-2.493-8.42-3.581.657-.94 2.216.158 7.262 1.339 9.741 2.28 23.858 3.86 29.908.168 4.714-2.876 6.167-5.612 2.884-6.882-2.506-.969-7.148-.513-10.606.345-4.7 1.167-24.156.027-23.374-2.319.37-1.111 3.485-.42 9.282-.032 9.562.64 25.062-.361 29.404-1.827 5.355-1.808 9.313-5.874 8.625-9.709-.516-2.87-7.049-1.309-11.987-.158-22.135 5.412-36.007 4.424-34.734 2.22.59-1.024 2.295-1.217 10.54-1.443 14.542-.399 28.291-1.967 36.898-6.65 5.674-3.087 9.872-8.698 7.63-11.282-2.201-2.539-8.441-.507-11.673.666-11.95 4.833-24.883 8.919-35.086 10.987-6.566 1.33-9.166-.057-5.063-1.072.828-.205 6.367-1.332 9.76-2.137 14.302-3.396 38.022-10.738 43.814-14.081 5.235-3.023 5.994-8.785 1.102-10.385-3.187-1.042-11.174-1.274-17.384 2.509-13.631 8.304-30.349 14.73-42.76 16.77-8.743 1.438-10.373-.451-.764-2.421 23.076-4.732 46.17-20.148 49.923-23.15 5.773-4.619 11.816-12.346 12.79-21.404 1.092-10.16-13.319-9.927-16.912-7.402-8.41 5.91-25.496 31.232-56.34 41.46-11.576 3.84-19.748 3.31-30.318 1.284-15.333-2.94-22.181-.59-22.416 5.66-.156 4.157 3.62 8.798 9 11.872 4.46 2.548 1.902 6.285-2.148 5.708-6.227-.886-14.563-3.753-21.25-3.793-4.876-.029-7.974.839-10.594 3.572-1.992 2.078-3.572 5.171-4.9 5.171-1.327 0-2.44-4.547-3.573-9.128-2.238-9.049-2.174-19.843 9.124-25.7 1.851-.96 2.794-2.279 2.102-3.206-.707-.949-3.131.053-4.19-1.048-.941-.98 1.35-1.533 3.37-1.028 1.25.313 3.9 1.532 6.703.781 2.294-.614 2.465-4.293-.684-3.904-1.79.222-2.828-.462-2.515-1.024.557-1.003 3.075-.672 5.198-.43 3.248.371 9.998.304 12.355-3.435 1.236-1.963.149-3.092-2.394-2.53-1.742.384-3.23.094-4.503-.32-.47-.154-2.6-1.063-1.817-1.846 1.066-1.066 10.2 1.418 13.293 1.851 5.279.739 10.456.627 17.526-2.334 2.385-.999 4.752-2.378 5.19-4.013.355-1.327-.8-5.748-6.112-4.949-4.562.687-9.868 2.703-15.579 4.263-4.035 1.102-14.27 2.185-15.039-.688-.228-.853.953-.93 1.537-1.192.93-.419 1.663-1.343 1.664-2.436 0-2.13 4.46-.988 6.707 1.073 1.465 1.344 2.245 2.57 2.972 2.353 1.082-.324 2.804-4.749 1.37-8.402-1.371-3.493-5.48-7.269-12.4-8-.64-2.447-2.392-4.756-4.58-5.716-11.176-4.904-18.939 1.895-24.171 1.895-4.476 0-9.546-6.903-13.97-9.433-2.04-1.166-3.253 10.364.387 12.466 1.007.581 2.18 2.377 1.184 3.244-.746.649-5.318.975-10.66 5-1.198.903-5.93 4.902-5.616 6.074.146.545 1.479-.135 2.868-.21 1.374-.073 1.666.385.856.876-2.144 1.298-6.399 4.448-7.176 5.794-1.247 2.16 1.717 1.7 4.034 1.7 1.945 0 1.792.6.006 1.199-6.546 2.192-12.414 10.845-9.985 12.248 1.246.719 6.755-.22 7.96-.22 1.548 0 2.04.809-.381 2.074-7.696 4.02-17.273 17.625-21.323 28.19-4.05-10.565-13.627-24.17-21.323-28.19-2.421-1.265-1.93-2.075-.382-2.075 1.206 0 6.715.94 7.961.22 2.43-1.402-3.439-10.055-9.985-12.247-1.786-.598-1.939-1.199.006-1.199 2.317 0 5.281.46 4.034-1.7-.777-1.346-5.032-4.496-7.176-5.794-.81-.49-.518-.95.856-.875 1.39.074 2.722.754 2.868.209.314-1.172-4.418-5.17-5.615-6.073-5.343-4.026-9.915-4.352-10.66-5.001-.997-.867.176-2.663 1.183-3.244 3.64-2.102 2.426-13.632.387-12.466-4.424 2.53-9.494 9.433-13.97 9.433-5.232 0-12.995-6.799-24.17-1.895-2.19.96-3.942 3.269-4.582 5.715-6.92.732-11.028 4.508-12.4 8.001-1.433 3.653.29 8.078 1.37 8.402.728.218 1.508-1.01 2.973-2.353 2.246-2.06 6.707-3.203 6.707-1.073.001 1.093.734 2.017 1.664 2.436.584.262 1.765.34 1.537 1.192-.77 2.873-11.004 1.79-15.04.688-5.71-1.56-11.016-3.576-15.578-4.263-5.312-.8-6.467 3.622-6.112 4.949.438 1.635 2.805 3.014 5.19 4.013 7.07 2.961 12.247 3.073 17.526 2.334 3.093-.433 12.227-2.917 13.293-1.851.783.783-1.347 1.692-1.817 1.845-1.273.415-2.76.705-4.503.32-2.543-.56-3.63.568-2.394 2.53 2.357 3.74 9.107 3.807 12.355 3.436 2.123-.242 4.641-.573 5.198.43.313.562-.725 1.246-2.515 1.024-3.149-.39-2.978 3.29-.684 3.904 2.803.751 5.452-.468 6.704-.78 2.02-.506 4.31.048 3.369 1.027-1.059 1.101-3.483.1-4.19 1.048-.692.927.25 2.247 2.102 3.206 11.298 5.857 11.362 16.651 9.124 25.7-1.133 4.581-2.246 9.128-3.574 9.128-1.327 0-2.907-3.093-4.899-5.17-2.62-2.734-5.718-3.602-10.593-3.573-6.688.04-15.024 2.907-21.252 3.793-4.05.577-6.607-3.16-2.148-5.708 5.381-3.074 9.157-7.715 9-11.871-.234-6.25-7.082-8.601-22.415-5.66-10.57 2.026-18.742 2.554-30.318-1.284-30.844-10.23-47.93-35.551-56.34-41.461-3.593-2.525-18.004-2.759-16.912 7.402.974 9.058 7.017 16.785 12.79 21.404 3.752 3.002 26.847 18.418 49.923 23.15 9.61 1.97 7.98 3.86-.763 2.422-12.412-2.041-29.13-8.467-42.76-16.771-6.211-3.783-14.198-3.55-17.385-2.509-4.892 1.6-4.133 7.362 1.102 10.385 5.792 3.343 29.512 10.685 43.814 14.08 3.393.806 8.932 1.933 9.76 2.138 4.103 1.015 1.503 2.402-5.063 1.072C13.075 99.26.142 95.175-11.808 90.342c-3.232-1.173-9.472-3.205-11.674-.666-2.24 2.584 1.957 8.195 7.63 11.282 8.608 4.683 22.357 6.251 36.9 6.65 8.244.226 9.948.419 10.54 1.442 1.272 2.205-12.6 3.193-34.735-2.22-4.938-1.15-11.471-2.71-11.987.16-.688 3.834 3.27 7.9 8.625 9.708 4.342 1.466 19.842 2.467 29.404 1.827 5.797-.387 8.911-1.08 9.282.032.782 2.346-18.675 3.486-23.374 2.319-3.458-.858-8.1-1.314-10.606-.345-3.283 1.27-1.83 4.006 2.884 6.882 6.05 3.691 20.167 2.112 29.908-.168 5.046-1.181 6.605-2.279 7.262-1.34.76 1.089-2.883 2.458-8.42 3.582-11 2.233-22.812 2.468-31.344-.133-4.137-1.261-5.529-1.124-8.294.475-4.573 2.645-4.75 9.501 7.048 12.72 10.852 2.961 28.815-1.285 38.405-7.96 4.745-3.303 4.872.183 3.088 1.734-8.181 7.113-16.477 9.642-31.996 11.017-.773.068-5.495.611-5.876 3.094-.58 3.789 3.801 6.173 6.976 6.662 5.349.823 22.781-3.835 31.429-12.483 2.879-2.878 4.058-2.605 3.962-.805-.148 2.758-11.743 10.7-25.866 14.335-3.474.894-12.173 1.748-12.419 8.593-.154 4.298 8.862 6.356 15.937 4.46 10.659-3.54 22.41-16.163 27.31-20.65 2.322-2.124 4.71-.201 4.149 1.896-1.307 4.875-15.823 19.99-23.476 25.775-4.757 3.596-8.528 7.936-4.241 13.74 4.934 6.68 15.185-1.324 23.089-9.927 6.685-7.278 10.175-18.068 10.549-23.605.412-6.103 5.59-4.622 4.817 1.932-1.243 10.531-4.555 15.493-6.756 20.56-1.728 3.98-2.843 8.68-.183 10.556 3.463 2.443 10.284-7.26 12.028-11.295 2.649-6.128 3.133-12.469 3.107-18.867.061-1.174-.208-3.757 1.093-3.549 1.913.306 1.994 6.456 1.938 8.767-.222 9.17-2.792 18.86-8.724 26.105-2.857 3.381-6.819 11.938-1.964 14.276 5.007 2.411 12.674-2.682 17-12.036 4.397-9.505 5.024-20.474.818-38.237-.453-1.914 1.309-2.141 2.225-.471.956 1.744 2.697 4.664 3.81 9.408.75 3.202.931 6.912 1.71 6.912.793 0 4.098-2.272 5.667-5.166 1.178-2.235 2.906-1.707 1.687.885-.57 1.215-2.35 3.877-4.072 6.286-2.06 2.882-4.466 5.633-4.156 6.916.222.92 4.298 1.409 7.438-.036 3.14-1.445 5.232-5.136 7.664-7.957 2.496-2.894 4.116-2.246 3.45 1.073-.323 1.607-1.714 6.608-3.118 8.624-1.685 2.42 3.531 1.61 7.911.067 4.442-1.565 8.303-3.366 7.374 2.194-1.953 11.675-11.937 10.661-18.312 12.37-10.442 2.797-13.176 3.86-12.814 12.477.648 15.417 19.433 20.168 27.077 24.313-3.268 1.482-17.337 4.67-24.233 4.67-5.867 0-12.679-9.436-20.689-14.06-2.662-1.538-8.765.24-11.708 3.501-.882.978-1.065 1.651-1.065 1.651s-.156 1.204 2.014 1.284c4.48.165 11.748 3.156 12.51 6.407.614 2.62-2.817 3.597-7.422 2.538-2.002-.46-3.255-.658-4.525-2.229-1.17-1.446-.341-5.354-3.526-5.567-1.59.919-1.495 3.864-.963 5.691.333 1.142-.27 1.91-1.229 1.774-1.583-.224-2.674-5.696-4.576-6.206-.99.332-3.117 5.832.324 10.67.972 1.367 2.693 1.142 2.227 2.684-.25.832-2.04.533-2.99-.267-1.234-1.039-2.691-3.41-3.837-4.526-2.01.65-.704 15.398 14.909 15.398 14.68 0 23.144-6 32.595-6.183 6.914-.133 20.508 5.387 34.579 3.42 6.936-.969 14.785-13.096 9.875-19.28-1.955-2.463-9.426-6.881-12.701-10.692-1.546-1.8-1.73-4.103-.75-4.402.672-.205 1.955 2.059 3.139 3.32 1.003 1.067 1.461.808 1.33-.06-.156-1.026-.003-2.32.565-2.397.851-.116 2.876 2.52 4.464 4.264 1.52 1.67 1.92 1.197 1.69-.257-.245-1.558-.28-4.122.777-4.405.949-.254 3.056 2.342 4.784 3.941 1.902 1.762 2.234 1.775 2.234-.35 0-4.333-.799-14.476 1.548-18.541 5.868-10.163 20.364-10.399 21.747 1.708 1.271 11.128-8.342 11.59-19.729 9.438-2.257-.427-.57 4.178 2.34 7.376 4.985 5.474 8.334 4.8 8.56 5.945.226 1.15-2.177.524-5.275-.237-2.111-.519-6.478-2.12-6.321.762.057 1.055 1.156 2.169 2.014 3.84.656 1.277 3.184 1.9 5.082 2.57 8.97 3.16 10.278 1.748 10.129 2.945-.442 3.56-14.455-.129-14.805 1.669-.885 4.555 3.891 8.386 10.399 10.61 4.237 1.448 6.453.004 6.453 1.038 0 1.569-3.911 2.44-7.568 2.038-3.052-.336-6.718-.983-10.442-3.271-2.294-1.41-4.782-2.804-6.283-4.147-.517-.462-1.825-.42-2.355.049-6.193 5.487.863 12.255 5.89 19.034 1.455 1.962 2.244 9.702 5.225 15.01 1.104 1.966 2.75 4.078 4.874 5.032 1.214.544 3.581.512 4.374-.101.973-.752.931-3.098.988-5.404.123-5.048-.773-11.662-.117-13.791 1.212-3.932 10.303-6.816 11.993-5.288 1.782 1.612-6.06 1.054-7.72 6.328-2.96 9.398 1.207 26.776 2.374 26.776.844 0 3.405-5.149 4.396-8.272.377-1.187 1.49-2.4 2.114-1.907.687.544-.098 1.268-.331 2.737-.901 5.684 2.79 26.651 15.668 39.122 12.878-12.47 16.57-33.438 15.668-39.122z" id="path3369" fill="#1b1a15" fill-rule="evenodd"/></g></g></svg>