<?xml version="1.0" encoding="UTF-8" standalone="no"?><svg xmlns:xlink="http://www.w3.org/1999/xlink" xmlns="http://www.w3.org/2000/svg" height="800" width="1200" version="1.1">
	
 <path d="m0-0,1200,0,0,800-1200,0z" fill="#02069b"/>
 <path d="m1200-0-1200,0,0,533.33,1200,0z" fill="#fcc502"/>
 <path d="m0-0,1200,0,0,266.67-1200,0z" fill="#dc001f"/>
  <circle id="c" cx="235" cy="400" r="100" fill="#02069b"/>
 <circle cx="600" cy="400" r="100" fill="#018b0b"/>
 <use xlink:href="#c" x="730"/>
 
<g id="tower" stroke-linejoin="round"  stroke="#000" stroke-linecap="round" stroke-width="1.5">
 <path d="m200.25,359.45,0,35.514c0,20.714-8.6837,47.345-17.369,53.262v26.623l42.958-0v-24.386c0-5.0492,4.0987-9.1471,9.1483-9.1471,5.0495,0,9.1483,4.0979,9.1483,9.1471v24.386h42.975v-26.623c-8.686-5.9142-17.388-32.547-17.388-53.259v-35.514zm17.314,20.167c2.6828,0,4.8559,2.1468,4.8559,4.8v16.094h-9.73v-16.094c0-2.6539,2.1913-4.8,4.8741-4.8zm34.864,0c2.6828,0,4.8559,2.1468,4.8559,4.8v16.094h-9.712v-16.094c0-2.6539,2.1732-4.8,4.8559-4.8z"  fill="#fff"/>
 <path d="m191.58,353.53,8.6851,5.9183,69.48,0,8.6851-5.9183,0-17.755-17.37,0,0,8.88-17.37,0,0-8.88-17.37,0,0,8.88-17.37,0,0-8.88-17.37,0,0,17.755z"  fill="#FFF"/>
 <path d="m191.58 353.53l86.851 0M182.89 465.98l38.324 0M248.79 465.98l38.324 0M182.89 457.1l38.324 0M248.79 457.1l38.324 0M182.89 448.22l38.516 0M248.6 448.22l38.507 0M189.84 439.35l35.665 0M244.42 439.35l35.746 0M193.68 430.47l82.627 0M196.49 421.59l76.956 0M198.52 412.71l72.956 0M199.85 403.84l70.29 0M200.26 394.96l12.45 0M222.43 394.96l25.14 0M257.26 394.96l12.483 0M200.26 386.08l12.419 0M222.45 386.08l25.14 0M257.29 386.08l12.451 0M200.26 377.21l69.48 0M200.26 368.33l69.48 0M217.63 377.21l0 2.4169M252.37 377.21l0 2.3532M235 377.21l0 8.88M226.31 368.33l0 8.88M208.95 368.33l0 8.88M243.69 368.33l0 8.88M261.06 368.33l0 8.88M252.37 359.45l0 8.88M235 359.45l0 8.88M217.63 359.45l0 8.88M208.95 386.08l0 8.88M226.31 386.08l0 8.88M243.69 386.08l0 8.88M261.06 386.08l0 8.88M217.63 400.53l0 3.3069M252.37 400.51l0 3.3299M235 394.96l0 8.88M208.95 403.84l0 8.88M226.31 403.84l0 8.88M243.69 403.84l0 8.88M261.06 403.84l0 8.88M235 412.71l0 8.88M235 430.47l0 4.7456M217.63 412.71l0 8.88M201.42 412.71l-1.1587 8.88M252.37 412.71l0 8.88M268.58 412.71l1.1587 8.88M208.95 421.59l-1.7371 8.88M226.31 421.59l-1.1587 8.88M243.69 421.59l1.1587 8.88M261.06 421.59l1.7371 8.88M217.63 430.47l-1.7371 8.88M252.37 430.47l1.7371 8.88M200.26 430.47l-2.8951 8.88M269.74 430.47l2.8951 8.88M206.05 439.35l-2.8951 8.88M263.95 439.35l2.8951 8.88M194.47 448.22l0 8.88M211.84 448.22l0 8.88M203.15 457.1l0 8.88M194.47 465.98l0 8.8709M211.84 465.98l0 8.8709M266.85 457.1l0 8.88M258.16 465.98l0 8.8709M275.53 465.98l0 8.8709M258.16 448.22l0 8.88M275.53 448.22l0 8.88"/>
 <path d="m234.99,435.23c-8.4157,0-15.241,6.8232-15.241,15.238v24.385h6.0927v-24.385c0-5.0489,4.0987-9.1464,9.1481-9.1464,5.0495,0,9.1481,4.0975,9.1481,9.1464v24.385h6.1111v-24.385c0-8.4148-6.8435-15.238-15.259-15.238z"  fill="#FFF"/>
 <path d="m219.75 468.76l6.1 0M219.75 462.66l6.1 0M219.75 456.56l6.1 0M219.75 450.46l6.1 0M244.15 468.76l6.1 0M244.15 462.66l6.1 0M244.15 456.56l6.1 0M244.15 450.46l6.1 0M240.19 436.14l-2.0772 5.726M247.5 441.67l-5.0292 3.534M227.55 445.22l-4.9984-3.5122M231.88 441.86l-2.0723-5.7126"/>

 <path d="m217.56,379.62c-2.6828,0-4.86,2.1537-4.86,4.8077v16.085h9.7201v-16.085c0-2.6537-2.1773-4.8077-4.8603-4.8077zM252.44,379.62c-2.6828,0-4.86,2.1537-4.86,4.8077v16.085h9.7201v-16.085c0-2.6537-2.1773-4.8077-4.8603-4.8077z"/>
 <path d="m225.85,474.85,18.295,0,0-24.391c0-5.0489-4.0981-9.1464-9.1473-9.1464s-9.1473,4.0977-9.1473,9.1464z"/>
 <path d="m235,406.71c-3.9643,0-7.1815,2.1537-7.1815,4.8076v16.085h14.363v-16.087c0-2.6537-3.2175-4.8076-7.1817-4.8076z" fill="#fff"/>
</g>

 <use xlink:href="#tower" x="365"/> 	<use xlink:href="#tower" x="730"/>
</svg>
