<svg xmlns="http://www.w3.org/2000/svg" xmlns:xlink="http://www.w3.org/1999/xlink" width="1200" height="800">
  <path d="M0 0h1200v800H0z" fill="#fff"/>
  <g transform="translate(-4.4531751 -.24480184)" id="j">
    <g stroke-width="1.39870107" id="a">
      <path d="M63.1198752 27.83947811c-1.87306635 2.73238932-6.37841771 4.58755764-9.20943711 5.93184268-3.72318998 1.7679288-5.0154675 4.39551232-4.94655356 7.23885887.1255665 5.18119553 3.69685126 7.29047031 6.93723617 12.38649183 3.24039206 5.09601508 5.7831726 15.68212228 4.90633768 22.54100218-1.21030146 9.46739072-5.05573343 10.6028799-4.22266767 15.1814921.68514994 3.76560075 4.01237971 4.63775992 6.53508449 8.1437198 2.52269763-3.50595988 5.84993454-4.37811905 6.53507734-8.1437198.8330729-4.5786122-3.01236621-5.71410138-4.22266767-15.1814921-.87683493-6.8588799 1.64584125-17.4449871 4.8862333-22.54100218 3.24039207-5.09602152 6.83177405-7.2052963 6.9573477-12.38649183.06892108-2.84334655-1.24346795-5.47093006-4.96666508-7.23885887-2.83101225-1.34428504-7.3162664-3.19945336-9.1893256-5.93184268zm-19.70578318 23.0839166c-5.3721863.21130819-10.17584085 5.4625051-9.85289123 10.75774859.62122922 10.18612968 11.70282255 10.73764064 11.70282255 10.73764064s-2.80234637-9.31572286 4.48406733-9.75235152c4.41329453-.26445964 6.44793935 6.38939004 5.85141449 11.90390124-.89814756 8.3027745-3.81238703 9.61991794-6.09270979 9.99364325-3.72890957.61115272-5.39454776-2.17727716-6.19324305-2.97597531-.13712651 4.63755973 2.20536464 7.79250823 6.43453835 7.6008018 6.38811957-.28955435 8.8525846-10.21354369 9.37030064-15.80483827.87057912-9.40209371-3.67578172-21.44519982-14.63858126-22.42035454-.36191434-.03219415-.70757218-.05430038-1.06571803-.04021588zm38.86864765 0c-.18018145.0042897-.3619501.02411523-.54291084.04021588-10.96279954.97515472-15.50915323 13.01826083-14.63858126 22.42035454.51771604 5.59129458 2.98218107 15.51528392 9.37030064 15.80483827 4.22918086.19170643 6.57166844-2.96324207 6.43454121-7.6008018-.798691.79869815-2.46433634 3.58712803-6.19324591 2.9759753-2.28031561-.3737253-5.19456223-1.69086873-6.09270979-9.99364324-.59652486-5.5145112 1.43811996-12.16836088 5.8514145-11.90390124 7.28641726.43662866 4.48406732 9.75235152 4.48406732 9.75235152s11.101707-.55151096 11.72293335-10.73764064c.33371675-5.47175154-4.81011269-10.8923306-10.39580922-10.75774859z" fill="#ffdb43" stroke="#ba9509" stroke-opacity=".99913863" stroke-width="1.0000013299965"/>
      <path d="M666.2406 305.75725c3.11947 3.49247 4.81627 8.12898 3.4875 11.86875-1.74396 4.90833-7.06707 9.15071-9.28125 13.86563-2.71309 5.77731-3.91523 11.80532-4.89375 18.1125-.59238 3.81826-.45 11.39062-.45 11.39062.15232 2.2572-.37391 4.34772-.14063 6.66563.6099 6.05991 3.66845 10.53763 3.7125 15.60937.0402 4.63136-1.99755 5.59254-3.90937 10.20938 1.60957-1.87682 2.44253-2.55877 3.79687-3.79688 1.65498-1.51292 2.79102-2.80849 3.20625-5.09062.51538-2.83253-.3541-4.38895-1.77187-7.25625-1.41777-2.8673-2.95719-6.96485-3.825-13.75313-1.28862-10.07998 1.94143-24.69716 6.75-32.25937 2.33948-3.6792 4.76165-6.2582 6.525-8.69063 1.76335-2.43242 2.87251-4.63352 2.95312-7.95937.0862-3.55919-1.30138-6.60884-6.15937-8.91563zm-28.40625 16.67813c-.49537.2923 4.7305 5.49854 6.77812 8.71875 4.80989 7.56429 8.1508 22.51939 6.8625 32.59687-.8678 6.78828-2.32286 10.43583-3.74062 13.30313s-2.28725 4.42372-1.77188 7.25625c.41524 2.28213 1.66379 3.85895 3.31875 5.37187 0 0-1.69275-2.97981-1.60312-5.48437.13571-3.79206 2.90137-7.08941 4.10625-12.9375.96412-4.67954 1.77187-10.8 1.77187-10.8-.22268-16.72699-2.74525-31.11799-15.13125-37.82813-.33068-.17915-.51985-.23863-.59062-.19687zM632.3781 338.326c-2.65659-.0873-5.17779.89743-7.11563 2.95313-6.55259 6.95114-2.52506 15.77849 2.025 15.80625-.25634-1.34041-.46142-3.10398-.28125-5.14688.16137-1.82959.64642-3.78411 1.94063-5.37187 1.29421-1.58776 3.38747-2.69928 6.21562-2.86875 1.87383-.11228 3.58907.54139 4.92188 1.65937 1.33281 1.11799 2.31853 2.65754 3.06562 4.41563 1.49419 3.51618 2.01518 7.94027 1.575 12.00937-.10674.98671.62405 1.37826.47813 2.33438-.73377 4.80803-2.80221 9.61831-4.30313 11.50312-1.79937 2.25963-4.04581 3.03228-5.79375 3.31875-2.94944.4834-5.61982-1.85719-6.83437-3.6-.12801-.18368-.17173-.19961-.3375-.3375.32255 1.38546.79327 2.59515 1.51875 3.4875 1.28192 1.5768 3.11473 2.45327 5.7375 2.33438 3.80449-.17245 6.54917-3.22071 8.52187-7.50938 1.97271-4.28866 2.99575-9.62352 3.34688-13.41562-.30476-14.12466-7.89217-21.3489-14.68125-21.57188zm43.05937 0c-6.78907.22298-14.34836 7.44722-14.65312 21.57188.35113 3.7921 1.37417 9.12696 3.34687 13.41562 1.97271 4.28867 4.71739 7.33693 8.52188 7.50938 2.62277.11889 4.45558-.75758 5.7375-2.33438.72548-.89235 1.1962-2.10204 1.51875-3.4875-.16577.13789-.20949.15382-.3375.3375-1.21455 1.74281-3.88493 4.0834-6.83438 3.6-1.74793-.28647-3.99437-1.05912-5.79375-3.31875-1.50091-1.88481-3.59748-6.69509-4.33125-11.50312-.14591-.95612.61299-1.34767.50625-2.33438-.44017-4.0691.0808-8.49319 1.575-12.00937.7471-1.75809 1.73282-3.29764 3.06563-4.41563 1.33281-1.11798 3.04805-1.77165 4.92187-1.65937 2.82816.16947 4.92142 1.28099 6.21563 2.86875 1.29421 1.58776 1.77926 3.54228 1.94062 5.37187.18018 2.0429-.0249 3.80647-.28125 5.14688 4.55007-.0278 8.5776-8.85511 2.025-15.80625-1.93783-2.0557-4.48715-3.04038-7.14375-2.95313z" fill="#ecc21e" transform="matrix(.71495 0 0 .71495 -404.4009129 -183.98499656)"/>
      <path d="M63.11459887 28.0429526v70.85949856" fill="#ba9509" stroke="#ba9509" stroke-width="1.0000013299965"/>
      <path d="M652.45935 300.04788c-2.39476 4.88879-11.10747 6.41873-10.8 11.98125.49248 8.90959 6.57068 7.90555 10.40625 14.45625l.39375-26.4375zm2.75625 1.60312l.50625 24.6375c2.04754-6.55069 7.01689-3.09978 7.50937-12.00937.30747-5.56252-5.62086-7.69483-8.01562-12.62813zm-27.70313 29.05313c-3.40784.0498-6.51808 1.24589-8.4375 3.06562-2.58786 2.45346-6.10734 7.35147-2.64375 15.21563-.023-7.17093 1.74976-10.06518 4.55625-12.12188 4.15186-3.04263 11.40284-3.50515 19.2375.53438-3.46677-4.89785-8.33099-6.75774-12.7125-6.69375zm52.81875 0c-4.3815-.064-9.27385 1.7959-12.74062 6.69375 7.83466-4.03953 15.11377-3.57701 19.26562-.53438 2.8065 2.0567 4.5792 4.95095 4.55625 12.12188 3.4636-7.86416-.0559-12.76217-2.64375-15.21563-1.91941-1.81973-5.02965-3.01585-8.4375-3.06562zm-27.7875 46.6875s-3.25377 5.74231-2.95312 8.83125c.33714 3.46386 3.20625 5.54062 3.20625 5.54062l-.25313-14.37187z" fill="#ffec93" transform="matrix(.71495 0 0 .71495 -404.4009129 -183.98499656)"/>
      <g>
        <path d="M51.95348677 72.02738153h22.3222242l2.5738165 2.73164148-2.5738165 2.73163433h-22.3222242l-2.57381648-2.73163433z" fill="#ffdb43" stroke="#ba9509" stroke-linecap="round" stroke-opacity=".99913863" stroke-width="1.0000013299965"/>
        <path d="M638.74843 358.84022l-1.74375 1.82812h33.80625l-1.74375-1.82812z" fill="#ffec93" transform="matrix(.71495 0 0 .71495 -404.4009129 -183.98499656)"/>
        <path d="M636.87087 363.13061l1.77188 1.85625h30.31875l1.77187-1.85625z" fill="#ecc21e" transform="matrix(.71495 0 0 .71495 -404.4009129 -183.98499656)"/>
      </g>
    </g>
    <use xlink:href="#a" id="b" transform="translate(120.29629)" width="1200" height="800"/>
    <use xlink:href="#b" id="c" transform="translate(120.29629)" width="1200" height="800"/>
    <use xlink:href="#c" id="d" transform="translate(120.29629)" width="1200" height="800"/>
    <use xlink:href="#d" id="e" transform="translate(120.29629)" width="1200" height="800"/>
    <use xlink:href="#e" id="f" transform="translate(120.29629)" width="1200" height="800"/>
    <use xlink:href="#f" id="g" transform="translate(120.29629)" width="1200" height="800"/>
    <use xlink:href="#g" id="h" transform="translate(120.29629)" width="1200" height="800"/>
    <use xlink:href="#h" id="i" transform="translate(120.29629)" width="1200" height="800"/>
    <use xlink:href="#i" transform="translate(120.29629)" width="1200" height="800"/>
  </g>
  <use height="800" width="1200" transform="translate(4e-8 168.84681)" id="k" xlink:href="#j"/>
  <use height="800" width="1200" transform="translate(0 166.84681)" id="l" xlink:href="#k"/>
  <use height="800" width="1200" transform="translate(0 168.84681)" id="m" xlink:href="#l"/>
  <use height="800" width="1200" transform="translate(0 168.84681)" xlink:href="#m"/>
  <g transform="translate(60.148147 84.423405)" id="n">
    <g stroke-width="1.39870107">
      <path d="M58.6667002 27.59467631c-1.87306635 2.73238932-6.37841771 4.58755764-9.20943711 5.93184268-3.72318998 1.7679288-5.0154675 4.39551232-4.94655356 7.23885887.1255665 5.18119553 3.69685126 7.29047031 6.93723617 12.38649183 3.24039206 5.09601508 5.7831726 15.68212228 4.90633768 22.54100218-1.21030146 9.46739072-5.05573343 10.6028799-4.22266767 15.1814921.68514994 3.76560075 4.01237971 4.63775992 6.53508449 8.1437198 2.52269763-3.50595988 5.84993454-4.37811905 6.53507734-8.1437198.8330729-4.5786122-3.01236621-5.71410138-4.22266767-15.1814921-.87683493-6.8588799 1.64584125-17.4449871 4.8862333-22.54100218 3.24039207-5.09602152 6.83177405-7.2052963 6.9573477-12.38649183.06892108-2.84334655-1.24346795-5.47093006-4.96666508-7.23885887-2.83101225-1.34428504-7.3162664-3.19945336-9.1893256-5.93184268zm-19.70578318 23.0839166c-5.3721863.21130819-10.17584085 5.4625051-9.85289123 10.75774859.62122922 10.18612968 11.70282255 10.73764064 11.70282255 10.73764064s-2.80234637-9.31572286 4.48406733-9.75235152c4.41329453-.26445964 6.44793935 6.38939004 5.85141449 11.90390124-.89814756 8.3027745-3.81238703 9.61991794-6.09270979 9.99364325-3.72890957.61115272-5.39454776-2.17727716-6.19324305-2.97597531-.13712651 4.63755973 2.20536464 7.79250823 6.43453835 7.6008018 6.38811957-.28955435 8.8525846-10.21354369 9.37030064-15.80483827.87057912-9.40209371-3.67578172-21.44519982-14.63858126-22.42035454-.36191434-.03219415-.70757218-.05430038-1.06571803-.04021588zm38.86864765 0c-.18018145.0042897-.3619501.02411523-.54291084.04021588-10.96279954.97515472-15.50915323 13.01826083-14.63858126 22.42035454.51771604 5.59129458 2.98218107 15.51528392 9.37030064 15.80483827 4.22918086.19170643 6.57166844-2.96324207 6.43454121-7.6008018-.798691.79869815-2.46433634 3.58712803-6.19324591 2.9759753-2.28031561-.3737253-5.19456223-1.69086873-6.09270979-9.99364324-.59652486-5.5145112 1.43811996-12.16836088 5.8514145-11.90390124 7.28641726.43662866 4.48406732 9.75235152 4.48406732 9.75235152s11.101707-.55151096 11.72293335-10.73764064c.33371675-5.47175154-4.81011269-10.8923306-10.39580922-10.75774859z" fill="#ffdb43" stroke="#ba9509" stroke-opacity=".99913863" stroke-width="1.0000013299965"/>
      <path d="M666.2406 305.75725c3.11947 3.49247 4.81627 8.12898 3.4875 11.86875-1.74396 4.90833-7.06707 9.15071-9.28125 13.86563-2.71309 5.77731-3.91523 11.80532-4.89375 18.1125-.59238 3.81826-.45 11.39062-.45 11.39062.15232 2.2572-.37391 4.34772-.14063 6.66563.6099 6.05991 3.66845 10.53763 3.7125 15.60937.0402 4.63136-1.99755 5.59254-3.90937 10.20938 1.60957-1.87682 2.44253-2.55877 3.79687-3.79688 1.65498-1.51292 2.79102-2.80849 3.20625-5.09062.51538-2.83253-.3541-4.38895-1.77187-7.25625-1.41777-2.8673-2.95719-6.96485-3.825-13.75313-1.28862-10.07998 1.94143-24.69716 6.75-32.25937 2.33948-3.6792 4.76165-6.2582 6.525-8.69063 1.76335-2.43242 2.87251-4.63352 2.95312-7.95937.0862-3.55919-1.30138-6.60884-6.15937-8.91563zm-28.40625 16.67813c-.49537.2923 4.7305 5.49854 6.77812 8.71875 4.80989 7.56429 8.1508 22.51939 6.8625 32.59687-.8678 6.78828-2.32286 10.43583-3.74062 13.30313s-2.28725 4.42372-1.77188 7.25625c.41524 2.28213 1.66379 3.85895 3.31875 5.37187 0 0-1.69275-2.97981-1.60312-5.48437.13571-3.79206 2.90137-7.08941 4.10625-12.9375.96412-4.67954 1.77187-10.8 1.77187-10.8-.22268-16.72699-2.74525-31.11799-15.13125-37.82813-.33068-.17915-.51985-.23863-.59062-.19687zM632.3781 338.326c-2.65659-.0873-5.17779.89743-7.11563 2.95313-6.55259 6.95114-2.52506 15.77849 2.025 15.80625-.25634-1.34041-.46142-3.10398-.28125-5.14688.16137-1.82959.64642-3.78411 1.94063-5.37187 1.29421-1.58776 3.38747-2.69928 6.21562-2.86875 1.87383-.11228 3.58907.54139 4.92188 1.65937 1.33281 1.11799 2.31853 2.65754 3.06562 4.41563 1.49419 3.51618 2.01518 7.94027 1.575 12.00937-.10674.98671.62405 1.37826.47813 2.33438-.73377 4.80803-2.80221 9.61831-4.30313 11.50312-1.79937 2.25963-4.04581 3.03228-5.79375 3.31875-2.94944.4834-5.61982-1.85719-6.83437-3.6-.12801-.18368-.17173-.19961-.3375-.3375.32255 1.38546.79327 2.59515 1.51875 3.4875 1.28192 1.5768 3.11473 2.45327 5.7375 2.33438 3.80449-.17245 6.54917-3.22071 8.52187-7.50938 1.97271-4.28866 2.99575-9.62352 3.34688-13.41562-.30476-14.12466-7.89217-21.3489-14.68125-21.57188zm43.05937 0c-6.78907.22298-14.34836 7.44722-14.65312 21.57188.35113 3.7921 1.37417 9.12696 3.34687 13.41562 1.97271 4.28867 4.71739 7.33693 8.52188 7.50938 2.62277.11889 4.45558-.75758 5.7375-2.33438.72548-.89235 1.1962-2.10204 1.51875-3.4875-.16577.13789-.20949.15382-.3375.3375-1.21455 1.74281-3.88493 4.0834-6.83438 3.6-1.74793-.28647-3.99437-1.05912-5.79375-3.31875-1.50091-1.88481-3.59748-6.69509-4.33125-11.50312-.14591-.95612.61299-1.34767.50625-2.33438-.44017-4.0691.0808-8.49319 1.575-12.00937.7471-1.75809 1.73282-3.29764 3.06563-4.41563 1.33281-1.11798 3.04805-1.77165 4.92187-1.65937 2.82816.16947 4.92142 1.28099 6.21563 2.86875 1.29421 1.58776 1.77926 3.54228 1.94062 5.37187.18018 2.0429-.0249 3.80647-.28125 5.14688 4.55007-.0278 8.5776-8.85511 2.025-15.80625-1.93783-2.0557-4.48715-3.04038-7.14375-2.95313z" fill="#ecc21e" transform="matrix(.71495 0 0 .71495 -408.8540879 -184.22979836)"/>
      <path d="M58.66142387 27.7981508v70.85949856" fill="#ba9509" stroke="#ba9509" stroke-width="1.0000013299965"/>
      <path d="M652.45935 300.04788c-2.39476 4.88879-11.10747 6.41873-10.8 11.98125.49248 8.90959 6.57068 7.90555 10.40625 14.45625l.39375-26.4375zm2.75625 1.60312l.50625 24.6375c2.04754-6.55069 7.01689-3.09978 7.50937-12.00937.30747-5.56252-5.62086-7.69483-8.01562-12.62813zm-27.70313 29.05313c-3.40784.0498-6.51808 1.24589-8.4375 3.06562-2.58786 2.45346-6.10734 7.35147-2.64375 15.21563-.023-7.17093 1.74976-10.06518 4.55625-12.12188 4.15186-3.04263 11.40284-3.50515 19.2375.53438-3.46677-4.89785-8.33099-6.75774-12.7125-6.69375zm52.81875 0c-4.3815-.064-9.27385 1.7959-12.74062 6.69375 7.83466-4.03953 15.11377-3.57701 19.26562-.53438 2.8065 2.0567 4.5792 4.95095 4.55625 12.12188 3.4636-7.86416-.0559-12.76217-2.64375-15.21563-1.91941-1.81973-5.02965-3.01585-8.4375-3.06562zm-27.7875 46.6875s-3.25377 5.74231-2.95312 8.83125c.33714 3.46386 3.20625 5.54062 3.20625 5.54062l-.25313-14.37187z" fill="#ffec93" transform="matrix(.71495 0 0 .71495 -408.8540879 -184.22979836)"/>
      <g>
        <path d="M47.50031177 71.78257973h22.3222242l2.5738165 2.73164148-2.5738165 2.73163433h-22.3222242l-2.57381648-2.73163433z" fill="#ffdb43" stroke="#ba9509" stroke-linecap="round" stroke-opacity=".99913863" stroke-width="1.0000013299965"/>
        <path d="M638.74843 358.84022l-1.74375 1.82812h33.80625l-1.74375-1.82812z" fill="#ffec93" transform="matrix(.71495 0 0 .71495 -408.8540879 -184.22979836)"/>
        <path d="M636.87087 363.13061l1.77188 1.85625h30.31875l1.77187-1.85625z" fill="#ecc21e" transform="matrix(.71495 0 0 .71495 -408.8540879 -184.22979836)"/>
      </g>
    </g>
    <use height="800" width="1200" transform="translate(115.84311 -.24480184)" xlink:href="#a"/>
    <use height="800" width="1200" transform="translate(115.84311 -.24480184)" xlink:href="#b"/>
    <use height="800" width="1200" transform="translate(115.84311 -.24480184)" xlink:href="#c"/>
    <use height="800" width="1200" transform="translate(115.84311 -.24480184)" xlink:href="#d"/>
    <use height="800" width="1200" transform="translate(115.84311 -.24480184)" xlink:href="#e"/>
    <use height="800" width="1200" transform="translate(115.84311 -.24480184)" xlink:href="#f"/>
    <use height="800" width="1200" transform="translate(115.84311 -.24480184)" xlink:href="#g"/>
    <use height="800" width="1200" transform="translate(115.84311 -.24480184)" xlink:href="#h"/>
  </g>
  <use height="800" width="1200" transform="translate(4.4e-7 167.84681)" id="o" xlink:href="#n"/>
  <use height="800" width="1200" transform="translate(0 167.84681)" id="p" xlink:href="#o"/>
  <use height="800" width="1200" transform="translate(0 168.84681)" xlink:href="#p"/>
</svg>
