<?xml version="1.0" encoding="UTF-8" standalone="no"?>
<!-- Creator: CorelDRAW -->

<svg
   xmlns:dc="http://purl.org/dc/elements/1.1/"
   xmlns:cc="http://creativecommons.org/ns#"
   xmlns:rdf="http://www.w3.org/1999/02/22-rdf-syntax-ns#"
   xmlns:svg="http://www.w3.org/2000/svg"
   xmlns="http://www.w3.org/2000/svg"
   xmlns:sodipodi="http://sodipodi.sourceforge.net/DTD/sodipodi-0.dtd"
   xmlns:inkscape="http://www.inkscape.org/namespaces/inkscape"
   xml:space="preserve"
   width="829.60065"
   height="534.63153"
   style="fill-rule:evenodd"
   viewBox="0 0 234.13175 150.8849"
   id="svg2907"
   version="1.1"
   inkscape:version="0.47 r22583"
   sodipodi:docname="Artaxiad.svg"><metadata
   id="metadata2952"><rdf:RDF><cc:Work
       rdf:about=""><dc:format>image/svg+xml</dc:format><dc:type
         rdf:resource="http://purl.org/dc/dcmitype/StillImage" /></cc:Work></rdf:RDF></metadata><sodipodi:namedview
   pagecolor="#ffffff"
   bordercolor="#666666"
   borderopacity="1"
   objecttolerance="10"
   gridtolerance="10"
   guidetolerance="10"
   inkscape:pageopacity="0"
   inkscape:pageshadow="2"
   inkscape:window-width="1663"
   inkscape:window-height="1037"
   id="namedview2950"
   showgrid="false"
   inkscape:zoom="1.2475882"
   inkscape:cx="503.50063"
   inkscape:cy="241.19403"
   inkscape:window-x="0"
   inkscape:window-y="0"
   inkscape:window-maximized="0"
   inkscape:current-layer="svg2907" />
 <defs
   id="defs2909"><inkscape:perspective
   sodipodi:type="inkscape:persp3d"
   inkscape:vp_x="0 : 267.51968 : 1"
   inkscape:vp_y="0 : 1000 : 0"
   inkscape:vp_z="1048.8188 : 267.51968 : 1"
   inkscape:persp3d-origin="524.40942 : 178.34646 : 1"
   id="perspective2954" />
  <style
   type="text/css"
   id="style2911">
   
    .str2 {stroke:#0A0B0C;stroke-width:1.3}
    .str1 {stroke:#0A0B0C;stroke-width:1.7}
    .str0 {stroke:#0A0B0C;stroke-width:2}
    .fil4 {fill:none}
    .fil3 {fill:#0A0B0C}
    .fil1 {fill:#7B0633}
    .fil2 {fill:#BB9B69}
    .fil0 {fill:#FB630C}
   
  </style>
   <clipPath
   id="id0">
    <path
   d="m 30.7439,0.0178 234.046,0 c 0,50.32 0,100.64 0,150.96 l -234.046,0 c 0,-50.32 0,-100.64 0,-150.96 z"
   id="path2914" />
   </clipPath>
 </defs>
 <g
   id="Layer_x0020_1"
   transform="translate(-30.538928,0.11111624)">
  <metadata
   id="CorelCorpID_0Corel-Layer" />
  <path
   class="fil0"
   d="m 30.7439,0.0178 234.046,0 c 0,50.32 0,100.64 0,150.96 l -234.046,0 c 0,-50.32 0,-100.64 0,-150.96 z"
   id="path2918"
   style="fill:#fb630c" />
  <g
   id="g2920"
   clip-path="url(#id0)">
   <g
   id="_66102568">
    <path
   id="_653449521"
   class="fil1"
   d="m 28.6056,-3.895 238.121,0 c 0,52.4832 0,104.967 0,157.45 l -238.121,0 c 0,-52.4832 0,-104.967 0,-157.45 z"
   style="fill:#7b0633" />
    <g
   id="g2924">
     <circle
   id="_65344880"
   class="fil2 str0"
   cx="148.554"
   cy="67.663399"
   r="7.8396001"
   sodipodi:cx="148.554"
   sodipodi:cy="67.663399"
   sodipodi:rx="7.8396001"
   sodipodi:ry="7.8396001"
   style="fill:#bb9b69;stroke:#0a0b0c;stroke-width:2"
   d="m 156.3936,67.663399 c 0,4.329691 -3.50991,7.8396 -7.8396,7.8396 -4.32969,0 -7.8396,-3.509909 -7.8396,-7.8396 0,-4.329692 3.50991,-7.8396 7.8396,-7.8396 4.32969,0 7.8396,3.509908 7.8396,7.8396 z" />
     <path
   id="_65344808"
   class="fil2 str1"
   d="m 148.172,59.4408 c 2.5067,-2.2565 4.9159,-8.2936 4.9159,-16.3 0,-5.9214 -3.2526,-12.7602 -4.9159,-14.8452 -1.6633,2.085 -4.9159,8.9238 -4.9159,14.8452 0,9.4242 2.4092,14.0435 4.9159,16.3 z m 5.9264,2.1375 c 3.3681,0.1769 9.3406,-2.3884 15.0019,-8.0498 4.1871,-4.187 6.7229,-11.3227 7.0211,-13.9732 -2.6504,0.2982 -9.7861,2.8341 -13.9732,7.0211 -6.6639,6.6639 -8.2267,11.6338 -8.0498,15.0019 z m -11.0868,12.1702 c -3.3681,-0.1769 -9.3406,2.3884 -15.0019,8.0498 -4.1871,4.187 -6.7229,11.3227 -7.0211,13.9732 2.6504,-0.2982 9.7861,-2.8341 13.9732,-7.0211 6.6639,-6.6639 8.2267,-11.6338 8.0498,-15.0019 z M 142.4699,62.12 c 0.1769,-3.3681 -2.3884,-9.3406 -8.0498,-15.0019 -4.187,-4.1871 -11.3227,-6.7229 -13.9732,-7.0211 0.2982,2.6504 2.8341,9.7861 7.0211,13.9732 6.6639,6.6639 11.6338,8.2267 15.0019,8.0498 z m 12.1702,11.0868 c -0.1769,3.3681 2.3884,9.3406 8.0498,15.0019 4.187,4.1871 11.3227,6.7229 13.9732,7.0211 -0.2982,-2.6504 -2.8341,-9.7861 -7.0211,-13.9732 -6.6639,-6.6639 -11.6338,-8.2267 -15.0019,-8.0498 z m -14.3077,-5.1604 c -2.2565,-2.5067 -8.2936,-4.9159 -16.3,-4.9159 -5.9214,0 -12.7602,3.2526 -14.8452,4.9159 2.085,1.6633 8.9238,4.9159 14.8452,4.9159 9.4242,0 14.0435,-2.4092 16.3,-4.9159 z m 16.4452,-0.766 c 2.2565,2.5067 8.2936,4.9159 16.3,4.9159 5.9214,0 12.7602,-3.2526 14.8452,-4.9159 -2.085,-1.6633 -8.9238,-4.9159 -14.8452,-4.9159 -9.4242,0 -14.0435,2.4092 -16.3,4.9159 z m -7.8396,8.6056 c -2.5067,2.2565 -4.9159,8.2936 -4.9159,16.3 0,5.9214 3.2526,12.7602 4.9159,14.8452 1.6633,-2.085 4.9159,-8.9238 4.9159,-14.8452 0,-9.4242 -2.4092,-14.0435 -4.9159,-16.3 z"
   style="fill:#bb9b69;stroke:#0a0b0c;stroke-width:1.70000005" />
    </g>
    <g
   id="g2928">
     <path
   id="_65344712"
   class="fil2 str2"
   d="m 56.6138,65.2536 c 1.3539,-0.4308 3.7877,-0.6738 7.5754,4.1957 1.3451,1.7292 2.7266,4.0338 4.3261,7.3802 6.0549,12.6673 13.5829,18.9103 22.5919,29.5066 -5.4421,-0.5685 -6.0528,-2.5086 -11.9139,-5.1701 -1.167,-0.5299 -2.5578,-1.1664 -3.9758,-1.8628 -4.4587,-2.19 -9.1963,-5.1407 -10.9085,-6.4248 -3.0023,-2.2517 -7.5794,-6.7653 -9.6227,-11.0604 -2.6688,-5.0457 -2.7943,-8.1732 -2.2939,-11.1339 0.5004,-2.9607 2.9704,-4.8467 4.2214,-5.4305 z"
   style="fill:#bb9b69;stroke:#0a0b0c;stroke-width:1.29999995" />
     <g
   id="g2931">
      <path
   id="_65344640"
   class="fil2 str2"
   d="m 88.2654,105.732 c -0.0963,0.8823 -1.5259,1.2071 -2.6003,1.2109 -3.0084,0.0108 -3.6936,-1.3774 -5.2813,-0.5046 -0.7052,0.3876 -1.0972,1.0098 -1.0385,2.2676 0.3042,-0.8271 0.5265,-0.6108 0.7192,-0.8469 0.1219,0.3229 5e-4,0.8839 2.2769,0.8649 1.2927,-0.0107 2.38,-0.1304 2.9677,-0.1788 -0.6382,0.3917 -1.9727,1.108 -2.501,1.5054 -0.9742,0.7328 -0.7454,2.0741 0.0641,2.8177 -0.0157,-0.2519 -0.1219,-0.8522 0.4643,-1.3456 1.1685,0.8957 2.4224,0.1863 3.8027,-0.4429 0.537,-0.2447 1.6685,-0.4868 2.3355,-0.6736 1.4677,-0.4111 2.6066,-0.5561 3.7792,0.1183 0.6445,0.3706 1.4601,0.6145 2.4284,0.7967 0.8516,0.1602 2.1159,0.0725 2.4717,-0.6711 0.4505,-0.0343 0.787,0.208 1.1597,1.1064 0.0754,-1.3418 -0.5087,-2.2459 -1.7166,-2.7641 -1.6559,-0.7104 -3.5969,0.5335 -4.2681,-2.656 -0.0702,-0.9781 0.5342,-1.5404 1.0693,-2.0279 0.8151,-0.7425 1.2045,-1.4814 1.5184,-3.2878 0.4689,-2.6989 2.5613,-9.8454 0.0417,-11.9262 -1.6808,-1.3881 -3.12,-1.8348 -5.421,-1.8348 -2.4437,0 -3.3985,5.7699 -3.0956,10.8018 0.2178,3.6196 1.1146,5.0073 0.8236,7.6706 z"
   style="fill:#bb9b69;stroke:#0a0b0c;stroke-width:1.29999995" />
      <path
   id="_65344568"
   class="fil2 str2"
   d="m 80.7372,110.152 c -0.0964,0.8824 -1.6086,1.0405 -2.6835,1.0445 -3.0086,0.0113 -4.9228,-1.9271 -6.7398,-0.6587 -0.6603,0.461 -1.4385,1.423 -1.2733,2.9017 0.2957,-0.7773 0.6643,-1.0592 1.1693,-1.171 0.1683,-0.0373 1.2049,1.2813 3.4815,1.2619 1.293,-0.011 1.3889,0.0343 1.9766,-0.0141 -0.1108,0.068 -0.2583,0.1612 -0.4267,0.2806 -0.0765,0.0543 -0.1575,0.1142 -0.2412,0.1795 -0.7547,0.589 -1.743,1.6322 -1.8925,3.2236 -0.1053,1.1204 0.4914,1.8655 1.07,2.397 -0.0157,-0.2519 0.1276,-1.9753 0.7138,-2.4687 1.1685,0.8957 2.2504,0.407 3.3139,-0.4533 0.9914,-0.8021 1.9522,-1.8385 2.9921,-1.977 1.2574,-0.1676 3.1634,0.907 5.1558,1.2823 0.8519,0.1604 2.0848,-0.1667 2.4406,-0.9103 0.4505,-0.0343 0.8701,0.3952 1.2428,1.2936 0.0754,-1.3418 -0.4098,-2.3836 -1.6438,-2.8369 -1.6182,-0.5942 -4.4379,-0.0139 -5.1104,-3.2072 -0.0702,-0.9781 1.4908,-1.1037 2.0261,-1.5911 0.815,-0.7427 1.2045,-1.4814 1.5184,-3.2878 0.4689,-2.6989 2.5613,-9.8454 0.0417,-11.9262 -1.6808,-1.3881 -3.12,-1.8348 -5.421,-1.8348 -2.4437,0 -3.3985,5.7698 -3.0956,10.8018 0.2179,3.6196 1.6763,5.0072 1.3852,7.6706 z"
   style="fill:#bb9b69;stroke:#0a0b0c;stroke-width:1.29999995" />
     </g>
     <path
   id="_66103288"
   class="fil2 str2"
   d="m 64.0162,44.3501 c 2.0433,-0.7923 5.7891,-1.012 6.1719,-0.187 1.0822,-2e-4 3.2538,-0.1435 4.4087,0.6153 1.1549,0.7588 2.7456,1.2741 2.704,5.9957 -0.9014,-0.439 -1.818,-1.0821 -3.7648,-1.0453 -1.9468,0.0368 -4.3023,0.2711 -4.368,2.9536 -0.0533,2.1749 0.4271,2.9058 1.2199,4.2315 0.6166,1.0312 1.4025,2.0386 2.6489,2.9029 1.7141,1.1885 3.4326,1.3525 5.9242,2.55 1.6502,0.7932 3.6633,2.0171 6.1554,4.3762 6.2548,5.9213 6.9732,7.8418 8.3668,10.0258 1.3936,2.184 8.9804,14.9108 10.8986,17.1626 1.9182,2.2518 14.7618,16.0545 16.263,17.5974 -3.2473,0.4965 -6.5469,0.7088 -8.4651,0.4586 -3.0254,-3.103 -2.1183,-3.9599 -6.5264,-4.2148 -2.1108,-0.1221 -4.6701,-0.2802 -6.3703,-0.4609 -0.9597,-0.102 -1.6463,-0.3563 -1.8234,-0.4116 -0.2917,-0.0911 -1.2764,-0.1841 -2.4494,-0.1631 -1.5081,0.027 -3.3284,0.1814 -4.3894,0.1214 -1.5402,-0.0872 -5.8441,-2.7458 -10.7155,-6.6943 C 76.4638,97.3746 72.3925,94.2884 68.9368,90.5954 67.4814,89.0402 65.7716,86.9506 64.1369,84.4189 63.5956,83.5806 63.0557,82.7734 62.5446,81.8393 62.0335,80.9052 61.551,79.844 61.1246,78.7907 60.3611,76.9048 59.8383,74.8574 59.4091,72.7453 58.8094,69.794 58.3917,66.7154 57.7535,63.7715 56.9863,60.232 56.8461,51.7196 59.7153,47.503 c 0.9599,-1.4109 2.2493,-2.6168 4.3009,-3.1529 z"
   style="fill:#bb9b69;stroke:#0a0b0c;stroke-width:1.29999995" />
     <path
   id="_66103216"
   class="fil3"
   d="m 64.921,48.7049 c 0.6705,-0.4978 1.156,-1.7316 2.1868,-1.8573 0.8729,-0.1065 1.4752,0.4461 2.2394,0.4857 1.1284,0.0586 0.9071,-1.7216 -0.6346,-1.7216 0.2253,-0.0835 0.62,-0.1285 0.8553,-0.2484 0.3849,-0.1962 0.2845,-0.8044 -0.3786,-1.0111 0.6597,-0.3579 4.6544,-0.59 6.3462,1.3224 0.6669,0.7538 1.7627,2.703 1.4379,4.6689 -2.3611,-1.0608 -4.5626,-1.0208 -6.6512,-0.2012 -0.4099,0.1608 -0.6808,0.4441 -1.0287,0.6065 -0.0415,-0.3333 0.0752,-0.6925 0.3758,-0.839 1.4868,-0.7247 1.1699,-1.7776 0.6019,-2.0986 -0.2412,-0.1362 -0.6189,-0.1123 -0.99,0.0339 -0.6617,0.2606 -1.3837,0.7064 -1.8456,0.8838 -0.7696,0.2957 -2.2711,0.0121 -2.5146,-0.024 z"
   style="fill:#0a0b0c" />
     <path
   id="_66103144"
   class="fil2 str2"
   d="m 74.2432,63.2925 c 1.3539,-0.4308 4.2868,-0.9858 8.0746,3.8837 1.3451,1.7293 2.7266,4.0338 4.3261,7.3802 1.5259,3.1923 2.5231,6.457 3.9091,8.8758 1.8191,3.1747 3.4723,5.5628 5.3523,7.5187 2.1671,2.2544 3.4155,3.8966 4.2597,4.8464 2.0014,2.2515 14.5193,14.7251 15.5118,15.4579 0.9925,0.7328 1.3104,1.456 1.3104,1.456 0,0 -4.0146,0.3952 -6.1984,-0.936 -0.8288,-0.5051 -2.5055,-2.0434 -4.2558,-3.8079 -2.2222,-2.2405 -4.3616,-5.1284 -6.9884,-6.9052 C 98.1269,100.1031 85.6168,92.6804 82.6144,90.4286 79.612,88.1768 74.9416,83.84 73.1902,79.5449 71.4388,75.2498 69.8542,71.3717 70.3546,68.411 c 0.5004,-2.9607 2.6376,-4.5347 3.8886,-5.1185 z"
   style="fill:#bb9b69;stroke:#0a0b0c;stroke-width:1.29999995" />
    </g>
    <g
   id="g2938">
     <path
   id="_66103048"
   class="fil2 str2"
   d="m 240.546,65.2536 c -1.3539,-0.4308 -3.7877,-0.6738 -7.5754,4.1957 -1.3451,1.7292 -2.7266,4.0338 -4.3261,7.3802 -6.0549,12.6673 -13.5829,18.9103 -22.5919,29.5066 5.4421,-0.5685 6.0528,-2.5086 11.9139,-5.1701 1.167,-0.5299 2.5578,-1.1664 3.9758,-1.8628 4.4587,-2.19 9.1963,-5.1407 10.9085,-6.4248 3.0023,-2.2517 7.5794,-6.7653 9.6227,-11.0604 2.6688,-5.0457 2.7943,-8.1732 2.2939,-11.1339 -0.5004,-2.9607 -2.9704,-4.8467 -4.2214,-5.4305 z"
   style="fill:#bb9b69;stroke:#0a0b0c;stroke-width:1.29999995" />
     <g
   id="g2941">
      <path
   id="_66102976"
   class="fil2 str2"
   d="m 208.894,105.732 c 0.0963,0.8823 1.5259,1.2071 2.6003,1.2109 3.0084,0.0108 3.6936,-1.3774 5.2813,-0.5046 0.7052,0.3876 1.0972,1.0098 1.0385,2.2676 -0.3042,-0.8271 -0.5265,-0.6108 -0.7192,-0.8469 -0.1219,0.3229 -5e-4,0.8839 -2.2769,0.8649 -1.2927,-0.0107 -2.38,-0.1304 -2.9677,-0.1788 0.6382,0.3917 1.9727,1.108 2.501,1.5054 0.9742,0.7328 0.7454,2.0741 -0.0641,2.8177 0.0157,-0.2519 0.1219,-0.8522 -0.4643,-1.3456 -1.1685,0.8957 -2.4224,0.1863 -3.8027,-0.4429 -0.537,-0.2447 -1.6685,-0.4868 -2.3355,-0.6736 -1.4677,-0.4111 -2.6066,-0.5561 -3.7792,0.1183 -0.6445,0.3706 -1.4601,0.6145 -2.4284,0.7967 -0.8516,0.1602 -2.1159,0.0725 -2.4717,-0.6711 -0.4505,-0.0343 -0.787,0.208 -1.1597,1.1064 -0.0754,-1.3418 0.5087,-2.2459 1.7166,-2.7641 1.6559,-0.7104 3.5969,0.5335 4.2681,-2.656 0.0702,-0.9781 -0.5342,-1.5404 -1.0693,-2.0279 -0.8151,-0.7425 -1.2045,-1.4814 -1.5184,-3.2878 -0.4689,-2.6989 -2.5613,-9.8454 -0.0417,-11.9262 1.6808,-1.3881 3.12,-1.8348 5.421,-1.8348 2.4437,0 3.3985,5.7699 3.0956,10.8018 -0.2178,3.6196 -1.1146,5.0073 -0.8236,7.6706 z"
   style="fill:#bb9b69;stroke:#0a0b0c;stroke-width:1.29999995" />
      <path
   id="_66102904"
   class="fil2 str2"
   d="m 216.423,110.152 c 0.0964,0.8824 1.6086,1.0405 2.6835,1.0445 3.0086,0.0113 4.9228,-1.9271 6.7398,-0.6587 0.6603,0.461 1.4385,1.423 1.2733,2.9017 -0.2957,-0.7773 -0.6643,-1.0592 -1.1693,-1.171 -0.1683,-0.0373 -1.2049,1.2813 -3.4815,1.2619 -1.293,-0.011 -1.3889,0.0343 -1.9766,-0.0141 0.1108,0.068 0.2583,0.1612 0.4267,0.2806 0.0765,0.0543 0.1575,0.1142 0.2412,0.1795 0.7547,0.589 1.743,1.6322 1.8925,3.2236 0.1053,1.1204 -0.4914,1.8655 -1.07,2.397 0.0157,-0.2519 -0.1276,-1.9753 -0.7138,-2.4687 -1.1685,0.8957 -2.2504,0.407 -3.3139,-0.4533 -0.9914,-0.8021 -1.9522,-1.8385 -2.9921,-1.977 -1.2574,-0.1676 -3.1634,0.907 -5.1558,1.2823 -0.8519,0.1604 -2.0848,-0.1667 -2.4406,-0.9103 -0.4505,-0.0343 -0.8701,0.3952 -1.2428,1.2936 -0.0754,-1.3418 0.4098,-2.3836 1.6438,-2.8369 1.6182,-0.5942 4.4379,-0.0139 5.1104,-3.2072 0.0702,-0.9781 -1.4908,-1.1037 -2.0261,-1.5911 -0.815,-0.7427 -1.2045,-1.4814 -1.5184,-3.2878 -0.4689,-2.6989 -2.5613,-9.8454 -0.0417,-11.9262 1.6808,-1.3881 3.12,-1.8348 5.421,-1.8348 2.4437,0 3.3985,5.7698 3.0956,10.8018 -0.2179,3.6196 -1.6763,5.0072 -1.3852,7.6706 z"
   style="fill:#bb9b69;stroke:#0a0b0c;stroke-width:1.29999995" />
     </g>
     <path
   id="_66102808"
   class="fil2 str2"
   d="m 233.144,44.3501 c -2.0433,-0.7923 -5.7891,-1.012 -6.1719,-0.187 -1.0822,-2e-4 -3.2538,-0.1435 -4.4087,0.6153 -1.1549,0.7588 -2.7456,1.2741 -2.704,5.9957 0.9014,-0.439 1.818,-1.0821 3.7648,-1.0453 1.9468,0.0368 4.3023,0.2711 4.368,2.9536 0.0533,2.1749 -0.4271,2.9058 -1.2199,4.2315 -0.6166,1.0312 -1.4025,2.0386 -2.6489,2.9029 -1.7141,1.1885 -3.4326,1.3525 -5.9242,2.55 -1.6502,0.7932 -3.6633,2.0171 -6.1554,4.3762 -6.2548,5.9213 -6.9732,7.8418 -8.3668,10.0258 -1.3936,2.184 -8.9804,14.9108 -10.8986,17.1626 -1.9182,2.2518 -14.7618,16.0545 -16.263,17.5974 3.2473,0.4965 6.5469,0.7088 8.4651,0.4586 3.0254,-3.103 2.1183,-3.9599 6.5264,-4.2148 2.1108,-0.1221 4.6701,-0.2802 6.3703,-0.4609 0.9597,-0.102 1.6463,-0.3563 1.8234,-0.4116 0.2917,-0.0911 1.2764,-0.1841 2.4494,-0.1631 1.5081,0.027 3.3284,0.1814 4.3894,0.1214 1.5402,-0.0872 5.8441,-2.7458 10.7155,-6.6943 3.4415,-2.7895 7.5128,-5.8757 10.9685,-9.5687 1.4554,-1.5552 3.1652,-3.6448 4.7999,-6.1765 0.5413,-0.8383 1.0812,-1.6455 1.5923,-2.5796 0.5111,-0.9341 0.9936,-1.9953 1.42,-3.0486 0.7635,-1.8859 1.2863,-3.9333 1.7155,-6.0454 0.5997,-2.9513 1.0174,-6.0299 1.6556,-8.9738 0.7672,-3.5395 0.9074,-12.0519 -1.9618,-16.2685 -0.9599,-1.4109 -2.2493,-2.6168 -4.3009,-3.1529 z"
   style="fill:#bb9b69;stroke:#0a0b0c;stroke-width:1.29999995" />
     <path
   id="_66102736"
   class="fil3"
   d="m 232.239,48.7049 c -0.6705,-0.4978 -1.156,-1.7316 -2.1868,-1.8573 -0.8729,-0.1065 -1.4752,0.4461 -2.2394,0.4857 -1.1284,0.0586 -0.9071,-1.7216 0.6346,-1.7216 -0.2253,-0.0835 -0.62,-0.1285 -0.8553,-0.2484 -0.3849,-0.1962 -0.2845,-0.8044 0.3786,-1.0111 -0.6597,-0.3579 -4.6544,-0.59 -6.3462,1.3224 -0.6669,0.7538 -1.7627,2.703 -1.4379,4.6689 2.3611,-1.0608 4.5626,-1.0208 6.6512,-0.2012 0.4099,0.1608 0.6808,0.4441 1.0287,0.6065 0.0415,-0.3333 -0.0752,-0.6925 -0.3758,-0.839 -1.4868,-0.7247 -1.1699,-1.7776 -0.6019,-2.0986 0.2412,-0.1362 0.6189,-0.1123 0.99,0.0339 0.6617,0.2606 1.3837,0.7064 1.8456,0.8838 0.7696,0.2957 2.2711,0.0121 2.5146,-0.024 z"
   style="fill:#0a0b0c" />
     <path
   id="_66102664"
   class="fil2 str2"
   d="m 222.917,63.2925 c -1.3539,-0.4308 -4.2868,-0.9858 -8.0746,3.8837 -1.3451,1.7293 -2.7266,4.0338 -4.3261,7.3802 -1.5259,3.1923 -2.5231,6.457 -3.9091,8.8758 -1.8191,3.1747 -3.4723,5.5628 -5.3523,7.5187 -2.1671,2.2544 -3.4155,3.8966 -4.2597,4.8464 -2.0014,2.2515 -14.5193,14.7251 -15.5118,15.4579 -0.9925,0.7328 -1.3104,1.456 -1.3104,1.456 0,0 4.0146,0.3952 6.1984,-0.936 0.8288,-0.5051 2.5055,-2.0434 4.2558,-3.8079 2.2222,-2.2405 4.3616,-5.1284 6.9884,-6.9052 1.4177,-0.959 13.9278,-8.3817 16.9302,-10.6335 3.0024,-2.2518 7.6728,-6.5886 9.4242,-10.8837 1.7514,-4.2951 3.336,-8.1732 2.8356,-11.1339 -0.5004,-2.9607 -2.6376,-4.5347 -3.8886,-5.1185 z"
   style="fill:#bb9b69;stroke:#0a0b0c;stroke-width:1.29999995" />
    </g>
   </g>
  </g>
  <path
   class="fil4"
   d="m 30.7439,0.0178 234.046,0 c 0,50.32 0,100.64 0,150.96 l -234.046,0 c 0,-50.32 0,-100.64 0,-150.96 z"
   id="path2948"
   style="fill:none" />
 </g>
</svg>