<?xml version="1.0" encoding="UTF-8"?>
<svg version="1.0" xmlns="http://www.w3.org/2000/svg" width="360" height="216">
	<rect width="360" height="216" fill="#593eb6"/>
	<rect y="103" width="105.488" height="10" fill="#fff"/>
	<rect x="24" y="85" width="40" height="45" fill="#593eb6" stroke="#fff" stroke-width="10"/>
	<rect x="254.51199" y="103" width="105.488" height="10" fill="#fff"/>
	<rect x="296" y="85" width="40" height="45" fill="#593eb6" stroke="#fff" stroke-width="10"/>
	<rect x="101" y="80" width="40" height="56" fill="#593eb6" stroke="#fff" stroke-width="10"/>
	<rect x="220" y="80" width="40" height="56" fill="#593eb6" stroke="#fff" stroke-width="10"/>
	<rect x="137.8" y="121" width="83.788025" height="10" fill="#fff"/>
	<path d="M 179.21687,67.519005 179.09474,72.11616 176.81574,72.11616 176.81574,77.784016 174.84894,77.784016 174.97382,83.21571 172.69481,83.21571 172.69481,88.613668 170.66558,88.681142 170.88411,94.045362 168.6051,94.045362 168.6051,99.004735 166.66952,98.970998 166.54464,104.87501 164.54662,104.87501 164.51541,109.80065 163.14176,109.80065 163.14176,115.46851 160.61301,115.46851 160.9252,137.22902 163.14176,137.16154 163.17298,142.79567 164.51541,142.79567 164.54662,148.22736 166.54464,148.22736 166.54464,154.0639 176.59721,154.0639 177.50256,173.59776 182.71616,173.59776 183.18445,173.59776 183.62151,154.0639 193.64286,154.0639 193.64286,148.22736 195.64088,148.22736 195.70332,142.79567 197.01452,142.79567 197.04574,137.16154 199.2623,137.22902 199.57449,115.46851 197.04574,115.46851 197.04574,109.80065 195.70332,109.80065 195.67209,104.87501 193.64286,104.87501 193.51798,98.970998 191.5824,99.004735 191.5824,94.045362 189.30339,94.045362 189.55315,88.681142 187.49269,88.613668 187.49269,83.21571 185.21368,83.21571 185.33856,77.784016 183.37176,77.784016 183.37176,72.11616 181.09276,72.11616 181.09276,67.595371 181.06155,67.595371 z" fill="#fff" stroke="#fff" stroke-width="1"/>
</svg>