<svg xmlns="http://www.w3.org/2000/svg" height="600" width="1200"><path d="M0 0h1200v600H0z" fill="#dc171c"/><path d="M400 0h400v600H400z" fill="#17a6e0"/><path d="M200 40l33.992 104.616L145 79.96h110l-88.992 64.656z" fill="#fbea0f"/><g transform="matrix(9.56554 0 0 9.56554 -153.785 70.047)" fill="#fbea0f"><path d="M36.985 34.222c-2.76 0-5 2.24-5 5a5 5 0 0 0 3.051 4.604 2.77 2.77 0 0 1-.85-2 2.8 2.8 0 0 1 2.787-2.799 2.41 2.41 0 0 0 2.406-2.406 2.41 2.41 0 0 0-2.004-2.373l-.4-.015zm1.955.396a2.79 2.79 0 0 1 .832 1.992 2.8 2.8 0 0 1-2.787 2.799 2.41 2.41 0 0 0-2.406 2.406 2.41 2.41 0 0 0 2.225 2.4l.18.003a5 5 0 0 0 5-4.997 5.005 5.005 0 0 0-3.045-4.604zm-1.955 1a.982.982 0 1 1 0 1.965.982.982 0 0 1 0-1.965zm0 5.206a.982.982 0 1 1 0 1.965.982.982 0 0 1 0-1.965zm-5.497-20.2l-.003.097c0 3.036 2.464 5.5 5.5 5.5s5.5-2.464 5.5-5.5l-.003-.097c-.927 2.116-3.04 3.597-5.497 3.597s-4.57-1.48-5.497-3.597z"/><circle cx="36.985" cy="19.221" r="4"/><path d="M36.888 6.268c-.76.552-.2 1.44-.247 1.915-.06.5-.315.615-.43 1.032-.146.53-.074 1.078.034 1.296a2.5 2.5 0 0 1 .206.522c.003.012.01.023.01.034.001.02.005.025.006.03l.006.023.01.097a.51.51 0 0 1-.505.505.503.503 0 0 1-.5-.505v-.023c.006-.02.005-.026.006-.03v-.023c.001-.008.004-.015.006-.023.001-.02.005-.02.006-.023a.083.083 0 0 1 .006-.023c.007-.02.005-.03.006-.034.08-.26.316-.492.315-.83-.001-.45-.304-.674-.373-.814a.85.85 0 0 1-.011-.654c-.212.26-.45.46-.447.745.001.214.12.428.1.74-.013.36-.598.592-.62 1.497a2.5 2.5 0 1 0 5 0c-.02-.904-.606-1.135-.62-1.497-.01-.3.108-.526.1-.74.001-.286-.236-.485-.447-.745a.85.85 0 0 1-.011.654c-.068.14-.372.365-.373.814-.001.34.235.572.315.83.001.02.005.025.006.03l.006.023.006.03c.007.027.005.036.006.046 0 .022.005.024.006.03v.023a.503.503 0 0 1-.5.505c-.216 0-.4-.14-.47-.333a.56.56 0 0 1-.034-.172c0-.03.006-.057.01-.086.001-.018.004-.022.006-.03.007-.02.005-.03.006-.034l.01-.03c.048-.185.15-.35.195-.47.08-.218.25-.576.247-1.032-.002-.345-.082-1.117-.504-1.715-.337-.478-.556-.684-.67-.992-.06-.157-.012-.36.103-.562zm6.097 20.952h3.66v24h-3.66zm-11 0h10l-5 3m-5 1h10v2h-10zM31.985 45.22h10v2h-10zm0 3h10l-5 3m-9.66-24h3.66v24h-3.66z"/></g><g fill="#dc171c" transform="matrix(.47826 0 0 .47826 8.694 72.17)"><circle cx="400" cy="727" r="20"/><circle cx="400" cy="833" r="20"/></g></svg>