<?xml version="1.0" encoding="UTF-8" standalone="no"?>
<!-- Created with Inkscape (http://www.inkscape.org/) -->

<svg
   xmlns:dc="http://purl.org/dc/elements/1.1/"
   xmlns:cc="http://creativecommons.org/ns#"
   xmlns:rdf="http://www.w3.org/1999/02/22-rdf-syntax-ns#"
   xmlns:svg="http://www.w3.org/2000/svg"
   xmlns="http://www.w3.org/2000/svg"
   version="1.0"
   width="899.99994"
   height="600"
   id="svg7580">
  <metadata
     id="metadata49">
    <rdf:RDF>
      <cc:Work
         rdf:about="">
        <dc:format>image/svg+xml</dc:format>
        <dc:type
           rdf:resource="http://purl.org/dc/dcmitype/StillImage" />
        <dc:title></dc:title>
      </cc:Work>
    </rdf:RDF>
  </metadata>
  <defs />
  <rect
     width="899.99994"
     height="600"
     x="0"
     y="-6.9488522e-007"
     id="rect16674"
     style="fill:#ffffff;fill-opacity:1;fill-rule:evenodd;stroke:none" />
  <rect
     width="899.99994"
     height="299.99997"
     x="0"
     y="5.6525569e-005"
     id="rect16672"
     style="fill:#007934;fill-opacity:1;fill-rule:evenodd;stroke:none" />
  <g
     transform="matrix(-1.875,0,0,1.875,299.99997,2.8124998e-5)"
     id="g4675">
    <path
       d="m 90.011831,96.787957 -1.725475,-7.141225 -7.141223,-1.725478 6.258506,-3.847785 -0.565732,-7.324909 5.593445,4.763163 6.791582,-2.801565 -2.801568,6.791582 4.763164,5.593447 -7.324911,-0.565736 -3.847788,6.258506 z"
       id="path3692"
       style="fill:#ffd700;fill-opacity:1;fill-rule:evenodd;stroke:none" />
    <path
       d="m 109.0554,102.97558 0.56573,-7.32491 -6.25851,-3.847788 7.14123,-1.725478 1.72548,-7.141227 3.84778,6.258509 7.32492,-0.565734 -4.76317,5.59345 2.80157,6.791588 -6.79158,-2.80157 -5.59345,4.76316 z"
       id="path3708"
       style="fill:#ffd700;fill-opacity:1;fill-rule:evenodd;stroke:none" />
    <path
       d="m 50.94463,102.97558 -0.56574,-7.32491 6.25851,-3.847788 -7.14123,-1.725478 -1.72547,-7.141227 -3.84779,6.258509 -7.32491,-0.565734 4.76316,5.59345 -2.80157,6.791588 6.79159,-2.80157 5.59345,4.76316 z"
       id="path3660"
       style="fill:#ffd700;fill-opacity:1;fill-rule:evenodd;stroke:none" />
    <path
       d="m 69.988196,96.787957 1.725475,-7.141225 7.141223,-1.725478 -6.258506,-3.847785 0.565732,-7.324909 -5.593445,4.763163 -6.791589,-2.801565 2.801575,6.791582 -4.763161,5.593447 7.324908,-0.565736 3.847788,6.258506 z"
       id="path3676"
       style="fill:#ffd700;fill-opacity:1;fill-rule:evenodd;stroke:none" />
  </g>
  <rect
     width="299.99997"
     height="599.99994"
     ry="0"
     x="-299.99997"
     y="4.2220458e-005"
     transform="scale(-1,1)"
     id="rect16670"
     style="fill:#d91023;fill-opacity:1;fill-rule:evenodd;stroke:none" />
  <g
     transform="matrix(-1.875,0,0,1.875,299.99997,2.8124998e-5)"
     id="g4839">
    <path
       d="m -206.5,110.66018 12.88246,31.23878 31.19843,-12.97988 -12.97988,31.19843 31.23878,12.88246 -31.23878,12.88246 12.97988,31.19843 -31.19843,-12.97988 -12.88246,31.23878 -12.88246,-31.23878 -31.19843,12.97988 12.97988,-31.19843 -31.23878,-12.88246 31.23878,-12.88246 -12.97988,-31.19843 31.19843,12.97988 12.88246,-31.23878 z"
       transform="matrix(-1.026632,0,0,1.026632,-131.99951,-17.607309)"
       id="path4279"
       style="fill:#e7ca00;fill-opacity:1;fill-rule:nonzero;stroke:none" />
    <path
       d="m 91.125003,96.949966 7.475003,18.150004 18.125014,-7.55 -36.725021,52.45002 11.125004,-63.050024 z m -11.125004,63.050024 -36.725023,-52.45002 18.125016,7.55 7.475003,-18.150004 11.125004,63.050024 z m 0,0 -63.050033,-11.125 18.15001,-7.47501 -7.55,-18.125 52.450023,36.72501 z m 0,0 -52.450023,36.72501 7.55,-18.125 -18.15001,-7.475 63.050033,-11.12501 z m 0,0 -11.125004,63.05002 -7.475003,-18.15 -18.125016,7.55 36.725023,-52.45002 z m 0,0 36.725021,52.45002 -18.125014,-7.55 -7.475003,18.15 -11.125004,-63.05002 z m 0,0 63.050031,11.12501 -18.15001,7.475 7.55,18.125 -52.450021,-36.72501 z m 0,0 52.450021,-36.72501 -7.55,18.125 18.15001,7.47501 -63.050031,11.125 z"
       id="path4255"
       style="fill:#e7ca00;fill-opacity:1;fill-rule:nonzero;stroke:#da121a;stroke-width:0.60000002;stroke-linecap:round;stroke-linejoin:round;stroke-miterlimit:4;stroke-opacity:1;stroke-dasharray:none;stroke-dashoffset:0" />
    <path
       d="m 80.199999,95.999966 0.175,51.050024 L 83.4,96.074966 c 0.134145,0.007 0.266073,0.01716 0.400001,0.025 L 81.1,147.07499 86.975002,96.374966 c 0.125896,0.01365 0.24932,0.03562 0.375,0.05 L 81.8,147.17499 90.500003,96.874966 c 0.141416,0.02337 0.283896,0.0257 0.425,0.05 L 82.525,147.29999 94.050004,97.574967 c 0.124185,0.02785 0.251097,0.04643 0.375001,0.075 L 83.225,147.44999 97.525006,98.449967 c 0.125,0.03555 0.250312,0.0637 0.375,0.1 L 83.925001,147.64999 100.95001,99.524967 c 0.12442,0.04314 0.25093,0.08111 0.375,0.125 L 84.625001,147.89999 104.30001,100.79997 c 0.13169,0.0542 0.26875,0.095 0.4,0.15 l -19.400009,47.22502 22.275009,-45.92502 c 0.12445,0.0595 0.251,0.11468 0.375,0.175 l -22.000009,46.05002 24.825009,-44.57502 c 0.11788,0.0648 0.23259,0.13444 0.35,0.2 l -24.550008,44.72502 27.300018,-43.12502 c 0.11785,0.0737 0.23265,0.15053 0.35,0.225 l -27.025018,43.30002 29.650018,-41.52502 c 0.11709,0.0827 0.23349,0.16654 0.35,0.25 l -29.400018,41.70002 31.925018,-39.80002 c 0.10688,0.0848 0.21867,0.16453 0.325,0.25 l -31.700018,40.00002 34.125018,-37.95002 c 0.10628,0.0944 0.21935,0.17987 0.325,0.275 l -33.900017,38.15002 36.200017,-35.97502 c 0.10014,0.0995 0.20052,0.19987 0.3,0.3 l -35.975017,36.20002 38.150017,-33.90002 c 0.0951,0.10565 0.18057,0.21872 0.275,0.32501 l -37.950017,34.12501 40.000017,-31.70001 c 0.0855,0.10632 0.1652,0.21811 0.25,0.325 l -39.800017,31.92501 41.700017,-29.40001 c 0.0835,0.1165 0.16731,0.23291 0.25,0.35 l -41.525017,29.65001 43.300017,-27.02501 c 0.0745,0.11734 0.15128,0.23214 0.225,0.35 l -43.125017,27.30001 44.725017,-24.55001 c 0.0656,0.11742 0.13516,0.23213 0.2,0.35 l -44.575016,24.82501 46.050026,-22.00001 c 0.0603,0.124 0.11546,0.25056 0.17499,0.375 l -45.925016,22.27501 47.225026,-19.40001 c 0.055,0.13125 0.0958,0.26831 0.15,0.4 l -47.100026,19.67501 48.250026,-16.70001 c 0.0439,0.12407 0.0819,0.25058 0.125,0.375 l -48.125026,17.02501 49.100026,-13.97501 c 0.0363,0.12469 0.0644,0.25001 0.1,0.375 l -49.000026,14.30001 49.800026,-11.2 c 0.0286,0.1239 0.0471,0.25081 0.075,0.375 l -49.725026,11.525 50.375026,-8.4 c 0.0243,0.1411 0.0266,0.28358 0.05,0.425 l -50.300026,8.7 50.750026,-5.55 c 0.0144,0.12568 0.0363,0.2491 0.05,0.375 l -50.700026,5.875 50.975026,-2.7 c 0.008,0.13393 0.018,0.26585 0.025,0.4 l -50.975026,3.025 51.050026,0.175 c 2.1e-4,0.0668 0,0.13311 0,0.2 0,0.0669 2.1e-4,0.13316 0,0.2 l -51.050026,0.175 50.975026,3.025 c -0.007,0.13415 -0.0172,0.26607 -0.025,0.4 l -50.975026,-2.7 50.700026,5.875 c -0.0137,0.1259 -0.0356,0.24933 -0.05,0.375 l -50.750026,-5.55 50.300026,8.7 c -0.0234,0.14142 -0.0257,0.2839 -0.05,0.42501 L 92.700004,162.52499 142.42503,174.05 c -0.0279,0.12418 -0.0464,0.25109 -0.075,0.375 L 92.550004,163.22499 141.55003,177.525 c -0.0356,0.125 -0.0637,0.25031 -0.1,0.375 L 92.350004,163.92499 140.47503,180.95 c -0.0431,0.12442 -0.0811,0.25093 -0.125,0.375 L 92.100004,164.62499 139.20003,184.3 c -0.0542,0.13169 -0.095,0.26875 -0.15,0.4 L 91.825004,165.29999 137.75002,187.575 c -0.0595,0.12445 -0.11467,0.251 -0.17499,0.375 L 91.525004,165.94999 136.10002,190.775 c -0.0648,0.11787 -0.13444,0.23258 -0.2,0.35 L 91.175003,166.57499 134.30002,193.875 c -0.0737,0.11786 -0.15053,0.23266 -0.225,0.35 L 90.775003,167.19999 132.30002,196.85 c -0.0827,0.11709 -0.16654,0.2335 -0.25,0.35 l -41.700017,-29.40001 39.800017,31.92502 c -0.0848,0.10688 -0.16453,0.21867 -0.25,0.325 l -40.000017,-31.70002 37.950017,34.12502 c -0.0944,0.10628 -0.17987,0.21935 -0.275,0.325 l -38.150017,-33.90002 35.975017,36.20002 c -0.0995,0.10013 -0.19986,0.20052 -0.3,0.3 l -36.200017,-35.97502 33.900017,38.15002 c -0.10565,0.0951 -0.21872,0.18056 -0.325,0.275 l -34.125018,-37.95002 31.700018,40.00002 c -0.10633,0.0855 -0.21812,0.1652 -0.325,0.25 l -31.925018,-39.80002 29.400018,41.70002 c -0.11651,0.0835 -0.23291,0.16731 -0.35,0.25 L 87.200002,170.775 114.22502,214.07501 c -0.11735,0.0745 -0.23215,0.15128 -0.35,0.225 L 86.575002,171.175 111.12501,215.90001 c -0.11741,0.0656 -0.23212,0.13516 -0.35,0.2 L 85.950001,171.525 107.95001,217.57501 c -0.124,0.0603 -0.25055,0.11546 -0.375,0.175 L 85.300001,171.825 104.70001,219.05001 c -0.13125,0.055 -0.26831,0.0958 -0.4,0.15 L 84.625001,172.1 101.32501,220.35001 c -0.12407,0.0439 -0.25058,0.0819 -0.375,0.125 L 83.925001,172.35 97.900006,221.45001 c -0.124688,0.0363 -0.25,0.0645 -0.375,0.1 L 83.225,172.55 94.425005,222.35001 c -0.123904,0.0286 -0.250816,0.0472 -0.375001,0.075 L 82.525,172.7 l 8.400003,50.37501 c -0.141104,0.0243 -0.283584,0.0266 -0.425,0.05 L 81.8,172.825 l 5.550002,50.75001 c -0.12568,0.0144 -0.249104,0.0363 -0.375,0.05 L 81.1,172.925 l 2.700001,50.97501 c -0.133928,0.008 -0.265856,0.018 -0.400001,0.025 L 80.374999,172.95 l -0.175,51.05001 c -0.06685,2.1e-4 -0.133104,0 -0.2,0 -0.0669,0 -0.133152,2.1e-4 -0.2,0 l -0.175,-51.05001 -3.025001,50.97501 c -0.134144,-0.007 -0.266072,-0.0171 -0.4,-0.025 l 2.700001,-50.97501 -5.875002,50.70001 c -0.125896,-0.0137 -0.249321,-0.0356 -0.375001,-0.05 l 5.550003,-50.75001 -8.700004,50.30001 c -0.141416,-0.0234 -0.283896,-0.0257 -0.425,-0.05 L 77.474998,172.7 65.949994,222.42501 c -0.124184,-0.0278 -0.251096,-0.0464 -0.375,-0.075 L 76.774998,172.55 62.474993,221.55001 c -0.125,-0.0355 -0.250312,-0.0637 -0.375001,-0.1 L 76.074998,172.35 59.049986,220.47501 c -0.12442,-0.0431 -0.25093,-0.0811 -0.375,-0.125 L 75.374997,172.1 55.699986,219.20001 c -0.13169,-0.0542 -0.26875,-0.095 -0.4,-0.15 L 74.699997,171.825 52.424986,217.75001 c -0.12445,-0.0595 -0.251,-0.11468 -0.375,-0.175 L 74.049997,171.525 49.224986,216.10001 c -0.11788,-0.0648 -0.23259,-0.13444 -0.35,-0.2 L 73.424997,171.175 46.124986,214.30001 c -0.11786,-0.0737 -0.23266,-0.15053 -0.35,-0.225 L 72.799997,170.775 43.149976,212.30001 c -0.11708,-0.0827 -0.23349,-0.16654 -0.35,-0.25 l 29.40002,-41.70002 -31.92502,39.80002 c -0.10688,-0.0848 -0.21867,-0.16453 -0.325,-0.25 l 31.70002,-40.00002 -34.12502,37.95002 c -0.10628,-0.0944 -0.21935,-0.17987 -0.325,-0.275 l 33.90002,-38.15002 -36.20002,35.97502 c -0.10013,-0.0995 -0.20052,-0.19987 -0.3,-0.3 l 35.97502,-36.20002 -38.15002,33.90002 c -0.09513,-0.10565 -0.18057,-0.21872 -0.275,-0.325 l 37.950019,-34.12502 -40.000019,31.70002 c -0.08547,-0.10633 -0.1652,-0.21812 -0.25,-0.325 L 69.649995,167.79999 27.949976,197.2 c -0.08346,-0.1165 -0.16731,-0.23291 -0.25,-0.35 L 69.224995,167.19999 25.924976,194.225 c -0.07447,-0.11734 -0.15128,-0.23214 -0.225,-0.35 L 68.824995,166.57499 24.099976,191.125 c -0.06556,-0.11742 -0.13516,-0.23213 -0.2,-0.35 L 68.474995,165.94999 22.424976,187.95 c -0.06032,-0.124 -0.11547,-0.25055 -0.175,-0.375 L 68.174995,165.29999 20.949976,184.7 c -0.05503,-0.13125 -0.09583,-0.26831 -0.15,-0.4 L 67.899995,164.62499 19.649976,181.325 c -0.04389,-0.12407 -0.08186,-0.25058 -0.125,-0.375 L 67.649995,163.92499 18.549976,177.9 c -0.0363,-0.12469 -0.06445,-0.25 -0.1,-0.375 L 67.449994,163.22499 17.649966,174.425 c -0.02856,-0.12391 -0.04715,-0.25082 -0.075,-0.375 L 67.299994,162.52499 16.924966,170.925 c -0.02429,-0.14111 -0.02663,-0.28359 -0.05,-0.42501 l 50.300028,-8.7 -50.750028,5.55 c -0.01438,-0.12567 -0.03635,-0.2491 -0.05,-0.375 l 50.700028,-5.875 -50.975028,2.7 c -0.0078,-0.13393 -0.01798,-0.26585 -0.025,-0.4 l 50.975028,-3.025 -51.050028,-0.175 c -2e-4,-0.0668 0,-0.13311 0,-0.2 0,-0.0669 -2e-4,-0.13315 0,-0.2 l 51.050028,-0.175 -50.975028,-3.025 c 0.007,-0.13415 0.01716,-0.26607 0.025,-0.4 l 50.975028,2.7 -50.700028,-5.875 c 0.01365,-0.1259 0.03562,-0.24932 0.05,-0.375 l 50.750028,5.55 -50.300028,-8.7 c 0.02337,-0.14142 0.02571,-0.2839 0.05,-0.425 l 50.375028,8.4 -49.725028,-11.525 c 0.02785,-0.12419 0.04644,-0.2511 0.075,-0.375 l 49.800028,11.2 -49.000018,-14.30001 c 0.03555,-0.12499 0.0637,-0.25031 0.1,-0.375 l 49.100019,13.97501 -48.125019,-17.02501 c 0.04314,-0.12442 0.08111,-0.25093 0.125,-0.375 l 48.250019,16.70001 -47.100019,-19.67501 c 0.05417,-0.13169 0.09497,-0.26875 0.15,-0.4 l 47.225019,19.40001 -45.925019,-22.27501 c 0.05953,-0.12444 0.11468,-0.251 0.175,-0.375 l 46.050019,22.00001 -44.575019,-24.82501 c 0.06484,-0.11787 0.13444,-0.23258 0.2,-0.35 l 44.725019,24.55001 -43.125019,-27.30001 c 0.07372,-0.11786 0.15053,-0.23266 0.225,-0.35 l 43.300019,27.02501 -41.525019,-29.65001 c 0.08269,-0.11709 0.16654,-0.2335 0.25,-0.35 l 41.700019,29.40001 -39.800019,-31.92501 c 0.0848,-0.10689 0.16453,-0.21868 0.25,-0.325 l 40.000019,31.70001 -37.950019,-34.12501 c 0.09443,-0.10629 0.17987,-0.21936 0.275,-0.32501 l 38.15002,33.90002 -35.97502,-36.20002 c 0.09948,-0.10013 0.19987,-0.20052 0.3,-0.3 l 36.20002,35.97502 -33.90002,-38.15002 c 0.10565,-0.0951 0.21872,-0.18056 0.325,-0.275 l 34.12502,37.95002 -31.70002,-40.00002 c 0.10633,-0.0855 0.21812,-0.1652 0.325,-0.25 l 31.92502,39.80002 -29.40002,-41.70002 c 0.11651,-0.0835 0.23292,-0.1673 0.35,-0.25 l 29.650021,41.52502 -27.025011,-43.30002 c 0.11734,-0.0745 0.23214,-0.15128 0.35,-0.225 l 27.300011,43.12502 -24.550011,-44.72502 c 0.11741,-0.0656 0.23212,-0.13516 0.35,-0.2 l 24.825011,44.57502 -22.000011,-46.05002 c 0.124,-0.0603 0.25055,-0.11546 0.375,-0.175 l 22.275011,45.92502 -19.400011,-47.22502 c 0.13125,-0.055 0.26831,-0.0958 0.4,-0.15 L 75.374997,147.89999 58.674986,99.649967 c 0.12407,-0.04389 0.25058,-0.08186 0.375,-0.125 L 76.074998,147.64999 62.099992,98.549967 c 0.124689,-0.0363 0.250001,-0.06445 0.375001,-0.1 L 76.774998,147.44999 65.574994,97.649967 c 0.123904,-0.02857 0.250816,-0.04715 0.375,-0.075 L 77.474998,147.29999 69.074995,96.924966 c 0.141104,-0.0243 0.283584,-0.02663 0.425,-0.05 l 8.700004,50.300024 -5.550003,-50.750024 c 0.12568,-0.01438 0.249105,-0.03635 0.375001,-0.05 l 5.875002,50.700024 -2.700001,-50.975024 c 0.133928,-0.0078 0.265856,-0.01798 0.4,-0.025 l 3.025001,50.975024 0.175,-51.050024 c 0.06685,-2.08e-4 0.133104,0 0.2,0 0.0669,0 0.133152,-2.08e-4 0.2,0 z"
       id="path4376"
       style="fill:#d91023;fill-opacity:1;fill-rule:nonzero;stroke:none" />
    <path
       d="m 56.400026,159.99998 c 0,-13.03393 10.566088,-23.60002 23.600005,-23.60002 13.033925,0 23.600019,10.56609 23.600019,23.60002 0,13.03391 -10.566094,23.59999 -23.600019,23.59999 -13.033917,0 -23.600005,-10.56608 -23.600005,-23.59999 z"
       id="path4281"
       style="fill:#e7ca00;fill-opacity:1;fill-rule:evenodd;stroke:#da121a;stroke-width:0.60000002;stroke-linecap:square;stroke-linejoin:miter;stroke-miterlimit:4;stroke-opacity:1;stroke-dasharray:none;stroke-dashoffset:0" />
    <g
       transform="matrix(-0.4266722,0,0,0.4101272,53.486496,163.61218)"
       id="g4283"
       style="fill:#d91023;fill-opacity:1;stroke:none">
      <g
         transform="translate(-30.709165,2.1386886)"
         id="g4285"
         style="fill:#d91023;fill-opacity:1;stroke:none">
        <path
           d="m 9.571429,-21.857143 c -11.5,-10 -26,-11.5 -34,-4 -5.806373,7.76306 -5.288976,16.9037284 1.5,26.5 -0.5,0 -1.5,0.5 -2,1 -5.042555,-9.6028165 -5.909949,-19.491103 -2.5,-28.5 11,-9 26,-10 37,5"
           id="path4287"
           style="fill:#d91023;fill-opacity:1;stroke:none" />
        <path
           d="m -8.428571,-24.857143 c -6.5,0 -8,1.5 -11,4 -3,2.5 -4.5,2 -5,2.5 -0.5,0.5 0,2 1,1.5 1,-0.5 3,-1.5 6,-4 3,-2.5 6,-2.5 9,-2.5 9,0 14,7.5 15,7 1,-0.5 -5,-8.5 -15,-8.5"
           id="path4289"
           style="fill:#d91023;fill-opacity:1;stroke:none" />
        <path
           d="m 3.071429,-16.357143 c -6.5,-7 -18.5,-7.5 -23.5,0.5 l 2,0 c 5,-8 17,-4.5 18,-1 l 0,1"
           id="path4291"
           style="fill:#d91023;fill-opacity:1;stroke:none" />
        <circle
           cx="22"
           cy="-9"
           r="4.5"
           transform="translate(-31.428571,-7.857143)"
           id="circle4293"
           style="fill:#d91023;fill-opacity:1;stroke:none" />
        <path
           d="m -20.428571,-15.857143 c 5,4.5 16,5 23.5,-0.5 l -3.5,-0.5 c -5,5.5 -13,5 -18,1 l 0,-1"
           id="path4295"
           style="fill:#d91023;fill-opacity:1;stroke:none" />
        <path
           d="m 3.571429,-13.857143 c -8.5,6.5 -17,6 -22,3 -5,-3 -5,-4 -4,-4 1,0 2,1 6,3 4,2 10,2 20,-2"
           id="path4297"
           style="fill:#d91023;fill-opacity:1;stroke:none" />
        <path
           d="m -20.928571,1.142857 c 1.41609,0.5034893 2.241084,1.977139 1.930035,3.447534 -0.311049,1.470394 -1.66214,2.483712 -3.160813,2.370609 -1.498672,-0.113103 -2.682377,-1.31772 -2.769222,-2.818143 -0.5,1 -2.5,4 -6.5,4 l -1,0 1,1.5 c 1,0 4,0 6,-1.5 1.163388,1.669092 3.301964,2.349966 5.216194,1.660715 1.91423,-0.68925 3.127878,-2.577147 2.960205,-4.604763 -0.167673,-2.027616 -1.674951,-3.6905072 -3.676399,-4.055952"
           id="path4299"
           style="fill:#d91023;fill-opacity:1;stroke:none" />
        <path
           d="m -14.928571,22.142857 c -4.5,-3 -6.5,-7.5 -11.5,-7.5 -1,0 -3,0.5 -5,1.5 l -1,0 1,1.5 c 2,0 5,-2.5 8.5,-0.5 3.5,2 5.5,4 8,5"
           id="path4301"
           style="fill:#d91023;fill-opacity:1;stroke:none" />
        <path
           d="m -16.428571,22.142857 c -10,-3 -12,-1 -15,-1 l -1,0 1,2 c 4,0 6,-3 15,-1"
           id="path4303"
           style="fill:#d91023;fill-opacity:1;stroke:none" />
        <path
           d="m -14.928571,22.142857 c -11,-1 -7.5,5.5 -16.5,5.5 l -1,0 1,1.5 c 11,0 6,-6 16.5,-7"
           id="path4305"
           style="fill:#d91023;fill-opacity:1;stroke:none" />
      </g>
      <g
         transform="matrix(-1,0,0,1,-93.571428,2.1386886)"
         id="g4307"
         style="fill:#d91023;fill-opacity:1;stroke:none">
        <path
           d="m 9.571429,-21.857143 c -11.5,-10 -26,-11.5 -34,-4 -5.806373,7.76306 -5.288976,16.9037284 1.5,26.5 -0.5,0 -1.5,0.5 -2,1 -5.042555,-9.6028165 -5.909949,-19.491103 -2.5,-28.5 11,-9 26,-10 37,5"
           id="path4309"
           style="fill:#d91023;fill-opacity:1;stroke:none" />
        <path
           d="m -8.428571,-24.857143 c -6.5,0 -8,1.5 -11,4 -3,2.5 -4.5,2 -5,2.5 -0.5,0.5 0,2 1,1.5 1,-0.5 3,-1.5 6,-4 3,-2.5 6,-2.5 9,-2.5 9,0 14,7.5 15,7 1,-0.5 -5,-8.5 -15,-8.5"
           id="path4311"
           style="fill:#d91023;fill-opacity:1;stroke:none" />
        <path
           d="m 3.071429,-16.357143 c -6.5,-7 -18.5,-7.5 -23.5,0.5 l 2,0 c 5,-8 17,-4.5 18,-1 l 0,1"
           id="path4313"
           style="fill:#d91023;fill-opacity:1;stroke:none" />
        <circle
           cx="22"
           cy="-9"
           r="4.5"
           transform="translate(-31.428571,-7.857143)"
           id="circle4315"
           style="fill:#d91023;fill-opacity:1;stroke:none" />
        <path
           d="m -20.428571,-15.857143 c 5,4.5 16,5 23.5,-0.5 l -3.5,-0.5 c -5,5.5 -13,5 -18,1 l 0,-1"
           id="path4317"
           style="fill:#d91023;fill-opacity:1;stroke:none" />
        <path
           d="m 3.571429,-13.857143 c -8.5,6.5 -17,6 -22,3 -5,-3 -5,-4 -4,-4 1,0 2,1 6,3 4,2 10,2 20,-2"
           id="path4319"
           style="fill:#d91023;fill-opacity:1;stroke:none" />
        <path
           d="m -20.928571,1.142857 c 1.41609,0.5034893 2.241084,1.977139 1.930035,3.447534 -0.311049,1.470394 -1.66214,2.483712 -3.160813,2.370609 -1.498672,-0.113103 -2.682377,-1.31772 -2.769222,-2.818143 -0.5,1 -2.5,4 -6.5,4 l -1,0 1,1.5 c 1,0 4,0 6,-1.5 1.163388,1.669092 3.301964,2.349966 5.216194,1.660715 1.91423,-0.68925 3.127878,-2.577147 2.960205,-4.604763 -0.167673,-2.027616 -1.674951,-3.6905072 -3.676399,-4.055952"
           id="path4321"
           style="fill:#d91023;fill-opacity:1;stroke:none" />
        <path
           d="m -14.928571,22.142857 c -4.5,-3 -6.5,-7.5 -11.5,-7.5 -1,0 -3,0.5 -5,1.5 l -1,0 1,1.5 c 2,0 5,-2.5 8.5,-0.5 3.5,2 5.5,4 8,5"
           id="path4323"
           style="fill:#d91023;fill-opacity:1;stroke:none" />
        <path
           d="m -16.428571,22.142857 c -10,-3 -12,-1 -15,-1 l -1,0 1,2 c 4,0 6,-3 15,-1"
           id="path4325"
           style="fill:#d91023;fill-opacity:1;stroke:none" />
        <path
           d="m -14.928571,22.142857 c -11,-1 -7.5,5.5 -16.5,5.5 l -1,0 1,1.5 c 11,0 6,-6 16.5,-7"
           id="path4327"
           style="fill:#d91023;fill-opacity:1;stroke:none" />
      </g>
    </g>
  </g>
  <g
     transform="matrix(1.4999999,0,0,1.4999999,0,0.35218348)"
     id="g3911"
     style="fill:#e7ca00;fill-opacity:1">
    <path
       d="m 43.5,85.952457 2.368275,7.287862 7.663005,2.9e-4 -6.199331,4.504436 2.367723,7.288045 -6.199672,-4.50397 -6.199672,4.50397 2.367723,-7.288045 -6.199331,-4.504436 7.663005,-2.9e-4 L 43.5,85.952457 z"
       transform="matrix(1.0112712,-0.7347316,-0.7347316,-1.0112712,69.419564,247.38831)"
       id="path2917"
       style="fill:#e7ca00;fill-opacity:1;fill-rule:nonzero;stroke:none" />
    <path
       d="m 43.5,85.952457 2.368275,7.287862 7.663005,2.9e-4 -6.199331,4.504436 2.367723,7.288045 -6.199672,-4.50397 -6.199672,4.50397 2.367723,-7.288045 -6.199331,-4.504436 7.663005,-2.9e-4 L 43.5,85.952457 z"
       transform="matrix(-1.0112712,-0.7347316,0.7347316,-1.0112712,130.5931,247.38831)"
       id="path2923"
       style="fill:#e7ca00;fill-opacity:1;fill-rule:nonzero;stroke:none" />
    <path
       d="m 43.5,85.952457 2.368275,7.287862 7.663005,2.9e-4 -6.199331,4.504436 2.367723,7.288045 -6.199672,-4.50397 -6.199672,4.50397 2.367723,-7.288045 -6.199331,-4.504436 7.663005,-2.9e-4 L 43.5,85.952457 z"
       transform="matrix(1.2226845,-0.2598896,-0.2598896,-1.2226845,51.583578,230.56652)"
       id="path2929"
       style="fill:#e7ca00;fill-opacity:1;fill-rule:nonzero;stroke:none" />
    <path
       d="m 43.5,85.952457 2.368275,7.287862 7.663005,2.9e-4 -6.199331,4.504436 2.367723,7.288045 -6.199672,-4.50397 -6.199672,4.50397 2.367723,-7.288045 -6.199331,-4.504436 7.663005,-2.9e-4 L 43.5,85.952457 z"
       transform="matrix(-1.2226845,-0.2598896,0.2598896,-1.2226845,148.47492,230.56652)"
       id="path2935"
       style="fill:#e7ca00;fill-opacity:1;fill-rule:nonzero;stroke:none" />
  </g>
</svg>
