<?xml version="1.0" encoding="UTF-8" standalone="no"?>
<!-- Created with Inkscape (http://www.inkscape.org/) -->

<svg
   xmlns:dc="http://purl.org/dc/elements/1.1/"
   xmlns:cc="http://creativecommons.org/ns#"
   xmlns:rdf="http://www.w3.org/1999/02/22-rdf-syntax-ns#"
   xmlns:svg="http://www.w3.org/2000/svg"
   xmlns="http://www.w3.org/2000/svg"
   xmlns:sodipodi="http://sodipodi.sourceforge.net/DTD/sodipodi-0.dtd"
   xmlns:inkscape="http://www.inkscape.org/namespaces/inkscape"
   width="591.4939"
   height="397.17191"
   id="svg3973"
   version="1.1"
   inkscape:version="0.92.0 r15299"
   sodipodi:docname="Flag_of_the_Free_City_of_Danzig.svg"
   viewBox="0 0 554.52551 372.34866">
  <defs
     id="defs3975">
    <inkscape:perspective
       sodipodi:type="inkscape:persp3d"
       inkscape:vp_x="0 : 526.18109 : 1"
       inkscape:vp_y="0 : 1000 : 0"
       inkscape:vp_z="744.09445 : 526.18109 : 1"
       inkscape:persp3d-origin="372.04723 : 350.78739 : 1"
       id="perspective3981" />
    <inkscape:perspective
       id="perspective3951"
       inkscape:persp3d-origin="0.49999998 : 0.33333333 : 1"
       inkscape:vp_z="0.99999997 : 0.5 : 1"
       inkscape:vp_y="0 : 1000 : 0"
       inkscape:vp_x="0 : 0.5 : 1"
       sodipodi:type="inkscape:persp3d" />
  </defs>
  <sodipodi:namedview
     id="base"
     pagecolor="#ffffff"
     bordercolor="#666666"
     borderopacity="1.0"
     inkscape:pageopacity="0.0"
     inkscape:pageshadow="2"
     inkscape:zoom="1.4142136"
     inkscape:cx="295.50253"
     inkscape:cy="180.20108"
     inkscape:document-units="px"
     inkscape:current-layer="layer1"
     showgrid="false"
     inkscape:window-width="1408"
     inkscape:window-height="972"
     inkscape:window-x="0"
     inkscape:window-y="0"
     inkscape:window-maximized="0"
     inkscape:snap-intersection-paths="true"
     inkscape:object-nodes="true"
     inkscape:object-paths="true"
     inkscape:snap-bbox="true"
     inkscape:bbox-nodes="false"
     inkscape:snap-bbox-edge-midpoints="false"
     inkscape:bbox-paths="true" />
  <metadata
     id="metadata3978">
    <rdf:RDF>
      <cc:Work
         rdf:about="">
        <dc:format>image/svg+xml</dc:format>
        <dc:type
           rdf:resource="http://purl.org/dc/dcmitype/StillImage" />
      </cc:Work>
    </rdf:RDF>
  </metadata>
  <g
     inkscape:label="Ebene 1"
     inkscape:groupmode="layer"
     id="layer1"
     transform="translate(29.38373,-414.75929)">
    <g
       transform="matrix(0.73082406,0,0,0.73082406,-545.39882,873.95624)"
       id="g3924">
      <rect
         y="-628.32764"
         x="706.07294"
         height="509.49152"
         width="758.76746"
         id="rect3868"
         style="fill:#bf0000;fill-opacity:1;fill-rule:nonzero;stroke:none" />
      <path
         style="fill:#f3c547;fill-opacity:1;stroke:#000000;stroke-width:2;stroke-linecap:butt;stroke-linejoin:miter;stroke-miterlimit:4;stroke-dasharray:none;stroke-opacity:1"
         d="m 916.00498,-425.88584 c 0,0 14.83251,-1.04498 26.28125,-3.21875 13.14717,-2.49625 23.5,-6.5 23.5,-6.5 0,0 3.24507,-23.58762 15.4375,-42.71875 13.81887,-21.68316 39.53127,-39 39.53127,-39 0,0 -7.8757,-2.11206 -11.4375,-1.6875 -7.4896,0.89275 -9.93752,6.59375 -9.93752,6.59375 0,0 0.41775,-2.59599 0.40625,-3.90625 -0.0131,-1.49392 -0.53125,-4.46875 -0.53125,-4.46875 0,0 -5.3344,2.1773 -7.28125,4.1875 -2.19604,2.2675 -4.4375,8.375 -4.4375,8.375 0,0 1.18615,-3.45879 1.21875,-6.34375 0.0372,-3.2877 -4.34375,-5.9375 -4.34375,-5.9375 0,0 -2.29092,2.48934 -2.9375,4.03125 -0.31012,0.73956 -0.57858,5.36323 -0.72366,6.41182 0.006,-0.57464 0.0353,-4.65224 -0.0888,-5.06807 -0.47096,-1.57698 -2.84375,-4.03125 -2.84375,-4.03125 0,0 -5.04716,5.08521 -5.25,9.5625 -0.0912,2.01316 -0.0213,13.65031 0.0408,16.33686 -0.45924,-3.26822 -1.75632,-15.59007 -2.88453,-17.80561 -1.68731,-3.31348 -7.8125,-7.96875 -7.8125,-7.96875 0,0 -2.198,3.31866 -2.1875,6.40625 0.0127,3.73919 2.1875,10.71875 2.1875,10.71875 0,0 -1.5349,-2.81013 -2.5625,-4.03125 -1.2497,-1.48504 -4.3125,-3.90625 -4.3125,-3.90625 0,0 -1.15842,6.50786 -0.53125,9.6875 1.22585,6.21479 7.8125,12.40625 7.8125,12.40625 l -7.5625,-2.6875 c 0,0 -2.77522,8.06225 -1.59375,11.875 3.56008,11.4888 17.5,5.375 17.5,5.375 0,0 -3.92382,14.19132 -17.78125,10 -10.3571,-3.13261 -7.15625,-16.0625 -7.15625,-16.0625 l 0.71875,-3.28125 c 1.5611,-0.52247 2.82469,-1.97538 3.15625,-3.875 0.46093,-2.64079 -1.05888,-5.12154 -3.40625,-5.53125 -2.34737,-0.40971 -4.63282,1.42171 -5.09375,4.0625 -0.31022,1.77736 0.30202,3.45257 1.4375,4.5 l -1.125,2.78125 c 0,0 -6.22742,12.832 -16.1875,12.8125 -19.26801,-0.0371 -14.96875,-22.25 -14.96875,-22.25 0,0 7.02814,10.93252 13.90625,10.125 9.83069,-1.16208 10.70584,-11.18976 18.46875,-16.3125 l -8.21875,-0.28125 c 0,0 5.79987,-1.63519 8.5,-3.375 2.29991,-1.48193 6.1875,-5.65625 6.1875,-5.65625 h -7.9375 c 0,0 4.69287,-2.76395 6.3125,-4.875 1.36156,-1.77467 2.5625,-6.1875 2.5625,-6.1875 l -5.78125,0.71875 c 0,0 3.37353,-4.52616 4.1875,-7.375 0.85721,-3.00018 0.375,-9.21875 0.375,-9.21875 0,0 -3.42993,3.69834 -5.71875,3.8125 -2.30024,0.11473 -3.80016,-3.45905 -6.09375,-3.25 -4.28039,0.39014 -10.125,8.03125 -10.125,8.03125 0,0 6.69736,-8.8123 8.03125,-14.3125 1.51705,-6.25541 -0.21875,-13.34375 -0.21875,-13.34375 0,0 -2.08442,1.56298 -3.03125,2.46875 -1.1061,1.05813 -3.0625,3.4375 -3.0625,3.4375 0,0 1.35051,-3.62774 1.53125,-5.53125 0.15068,-1.58692 -0.375,-4.78125 -0.375,-4.78125 0,0 -4.23179,1.46526 -5.90625,2.875 -2.22067,1.86959 -5.09375,7.0625 -5.09375,7.0625 0,0 3.4027,-7.91583 3.5,-12.125 0.0758,-3.28028 -2.28125,-9.5625 -2.28125,-9.5625 0,0 -2.41738,1.74446 -3.21875,2.96875 -0.91072,1.39134 -1.625,4.71875 -1.625,4.71875 0,0 0.33517,-7.30999 -1.09375,-10.53125 -0.98071,-2.21084 -4.84375,-5.375 -4.84375,-5.375 l -0.6875,6.46875 -2.5625,-5.53125 -2.5625,-5 h -2e-5 -4e-5 c 0,0 -1.95835,4.72302 -3.53125,6.5625 -1.2573,1.4704 -3.5625,3.53125 -3.5625,3.53125 -3.13096,1.86165 -0.64812,9.64306 -2.34375,10.40625 -1.5479,0.6967 -4.15625,-6.59375 -4.15625,-6.59375 0,0 -3.76456,4.73927 -3.65625,7.53125 0.1975,5.09143 7.6875,13.21875 7.6875,13.21875 l -15.5,-9.3125 -1.34375,5.9375 -5.40625,-0.53125 c 0,0 1.53509,9.179 3.90625,13.0625 2.43495,3.98799 10.125,9.71875 10.125,9.71875 0,0 -8.51161,-4.69626 -13.34375,-4.59375 -5.60416,0.11603 -10,3.90625 -10,3.90625 0,0 0.46559,3.0535 1.21875,4.34375 1.75424,3.00521 5.0625,5.5625 5.0625,5.5625 l -8.96875,0.5625 c 0,0 2.71086,4.52897 4.59375,6.3125 4.67156,4.42503 9.40625,5.96875 9.40625,5.96875 l -11.6875,-1.96875 c 0,0 3.58622,4.94232 5.90625,6.875 2.99846,2.49785 10.09375,5.90625 10.09375,5.90625 l -7.375,-1.28125 c 0,0 4.11916,13.46722 13.09375,14.03125 7.57602,0.4834 13.15625,-8.9375 13.15625,-8.9375 0,0 6.26073,18.74072 -10.875,22.6875 -12.61933,2.90654 -16.1875,-12.03125 -16.1875,-12.03125 l -1.09375,-3.6875 c 0.89368,-1.00117 1.37054,-2.46064 1.1875,-4 -0.31652,-2.66197 -2.47756,-4.5626 -4.84375,-4.28125 -2.36619,0.28135 -4.03527,2.65053 -3.71875,5.3125 0.23606,1.98532 1.51317,3.56772 3.125,4.125 l 0.5625,3.1875 c 0,0 0.0682,13.76649 -9.625,15.53125 -17.61911,3.20777 -18.375,-10.53125 -18.375,-10.53125 0,0 12.59526,1.66106 16.71875,-2.15625 5.40043,-4.99944 4.3125,-17.8125 4.3125,-17.8125 l -4.96875,-1.46875 3.09375,-3.65625 c 0,0 -3.51397,-2.42027 -3.78125,-4.3125 -0.44618,-3.15874 2.90625,-7.3125 2.90625,-7.3125 0,0 -3.1499,0.22358 -4.375,1.03125 -1.6856,1.11126 -2.875,4.6875 -2.875,4.6875 0,0 0.3474,-4.88559 -0.5625,-7.0625 -1.16448,-2.786 -5.90625,-6.875 -5.90625,-6.875 0,0 -4.65122,4.98713 -5.34375,11.84375 -0.1864,1.84552 2.2322,12.98267 2.59905,15.3946 -0.49421,-2.11788 -3.21388,-12.8941 -3.7553,-14.4571 -2.2728,-6.56131 -9.34375,-15.25 -9.34375,-15.25 0,0 -1.80946,3.06869 -2.09375,4.78125 -0.36563,2.20259 0.5625,6.65625 0.5625,6.65625 0,0 -1.42109,-3.89358 -1.90625,-5.90625 -0.69055,-2.86472 -3.21875,-5.71875 -3.21875,-5.71875 0,0 -2.11727,2.43678 -2.5,5.71875 -0.19156,1.64264 0.1875,4.96875 0.1875,4.96875 0,0 -4.52373,-5.55154 -7.40625,-7.625 -5.36747,-3.86094 -12.21875,-5.34375 -12.21875,-5.34375 l 0.75,6.84375 c 0,0 -2.96454,-3.86871 -8.75,-4 -2.43212,-0.0552 -6.875,2.5 -6.875,2.5 0,0 23.08702,13.2315 38.90625,36.59375 19.31794,28.52923 21.53125,45.78125 21.53125,45.78125 0,0 10.35283,4.00375 23.5,6.5 11.44874,2.17377 26.28125,3.21875 26.28125,3.21875 z"
         id="path4512" />
      <path
         id="path2912"
         d="m 904.25498,-449.82334 c -23.49406,0 -45.05961,4.76987 -62,12.75 l 0.34375,1.46875 1.1875,0.46875 c 16.45793,-7.69108 37.5189,-12.34375 60.46875,-12.34375 22.92276,0 43.9569,4.63766 60.40625,12.3125 l 1.125,-0.4375 0.25,-1.59375 c -16.91059,-7.90942 -38.40273,-12.625 -61.78125,-12.625 z"
         style="color:#000000;font-style:normal;font-variant:normal;font-weight:normal;font-stretch:normal;font-size:medium;line-height:normal;font-family:'Bitstream Vera Sans';-inkscape-font-specification:'Bitstream Vera Sans';text-indent:0;text-align:start;text-decoration:none;text-decoration-line:none;letter-spacing:normal;word-spacing:normal;text-transform:none;writing-mode:lr-tb;direction:ltr;text-anchor:start;display:inline;overflow:visible;visibility:visible;fill:#000000;fill-opacity:1;stroke:none;stroke-width:2.05374193;marker:none;enable-background:accumulate"
         inkscape:connector-curvature="0" />
      <path
         id="path3709"
         d="m 904.03623,-464.41709 c -2.63056,0 -5.23436,0.0526 -7.8125,0.15625 0,0 -0.48897,0.21056 -0.47745,1.24269 0.0101,0.90475 0.57115,1.19481 0.57115,1.19481 2.5501,-0.10294 5.11583,-0.15625 7.71875,-0.15625 24.96462,0 47.70606,4.83063 64.78125,12.71875 l 0.625,-2.40625 c -17.45176,-7.94776 -40.34562,-12.75 -65.40625,-12.75 z m -34.40625,3.15625 c -11.96694,2.29128 -22.84497,5.76025 -32.125,10.125 l 0.90625,2.28125 c 9.09172,-4.30615 19.84784,-7.72927 31.71875,-10 0,0 0.54476,-0.49647 0.36024,-1.35082 -0.2051,-0.94966 -0.86024,-1.05543 -0.86024,-1.05543 z"
         style="color:#000000;font-style:normal;font-variant:normal;font-weight:normal;font-stretch:normal;font-size:medium;line-height:normal;font-family:'Bitstream Vera Sans';-inkscape-font-specification:'Bitstream Vera Sans';text-indent:0;text-align:start;text-decoration:none;text-decoration-line:none;letter-spacing:normal;word-spacing:normal;text-transform:none;writing-mode:lr-tb;direction:ltr;text-anchor:start;display:inline;overflow:visible;visibility:visible;fill:#000000;fill-opacity:1;stroke:none;stroke-width:1.97800004;marker:none;enable-background:accumulate"
         sodipodi:nodetypes="ccscsccccccccsc"
         inkscape:connector-curvature="0" />
      <ellipse
         transform="translate(435.12998,-727.35459)"
         id="path3721"
         style="fill:none;stroke:#000000;stroke-width:2;stroke-linecap:round;stroke-linejoin:miter;stroke-miterlimit:4;stroke-dasharray:none;stroke-dashoffset:0;stroke-opacity:1"
         cx="469.07248"
         cy="214.93039"
         rx="9.3032484"
         ry="9.0335884" />
      <path
         sodipodi:nodetypes="ccc"
         id="path3723"
         d="m 904.33727,-556.78317 -0.1395,28.31423 -17.65801,-11.59535"
         style="fill:none;stroke:#000000;stroke-width:2;stroke-linecap:round;stroke-linejoin:round;stroke-miterlimit:4;stroke-dasharray:none;stroke-opacity:1"
         inkscape:connector-curvature="0" />
      <path
         sodipodi:nodetypes="cc"
         id="path3725"
         d="m 904.19777,-528.46894 16.875,-11.35387"
         style="fill:none;stroke:#000000;stroke-width:2;stroke-linecap:round;stroke-linejoin:miter;stroke-miterlimit:4;stroke-dasharray:none;stroke-opacity:1"
         inkscape:connector-curvature="0" />
      <path
         d="m 894.22505,-500.28953 -9.84257,8.08978 m 41.7972,1.21346 -10.78637,-10.38188 m 22.38173,-23.73003 c 0,0 -3.68993,5.4223 -8.62911,8.89876 -3.17561,2.23517 -9.70773,4.9887 -9.70773,4.9887 m -45.03312,-11.73018 14.02229,11.86501"
         style="fill:none;stroke:#000000;stroke-width:2;stroke-linecap:round;stroke-linejoin:miter;stroke-miterlimit:4;stroke-dasharray:none;stroke-opacity:1"
         id="path3733"
         inkscape:connector-curvature="0" />
      <path
         sodipodi:nodetypes="csc"
         id="path3736"
         d="m 805.91161,-511.34557 c 0,0 4.49387,4.33841 5.66284,7.61788 1.11667,3.13273 0.94381,10.4493 0.94381,10.4493"
         style="fill:none;stroke:#000000;stroke-width:2;stroke-linecap:round;stroke-linejoin:miter;stroke-miterlimit:4;stroke-dasharray:none;stroke-opacity:1"
         inkscape:connector-curvature="0" />
      <path
         sodipodi:nodetypes="csc"
         id="path3738"
         d="m 817.10247,-487.8852 c 0,0 5.06661,-2.58224 8.35944,1.41571 3.35135,4.06901 -0.9438,9.70773 -0.9438,9.70773"
         style="fill:none;stroke:#000000;stroke-width:2;stroke-linecap:butt;stroke-linejoin:miter;stroke-miterlimit:4;stroke-dasharray:none;stroke-opacity:1"
         inkscape:connector-curvature="0" />
      <path
         sodipodi:nodetypes="csc"
         id="path3740"
         d="m 825.35244,-500.54315 c 0,0 1.4271,4.06456 1.66843,7.77013 0.17674,2.67895 -0.61971,7.72245 -0.61971,7.72245"
         style="fill:none;stroke:#000000;stroke-width:2;stroke-linecap:round;stroke-linejoin:miter;stroke-miterlimit:4;stroke-dasharray:none;stroke-opacity:1"
         inkscape:connector-curvature="0" />
      <path
         style="fill:none;stroke:#000000;stroke-width:2;stroke-linecap:butt;stroke-linejoin:miter;stroke-miterlimit:4;stroke-dasharray:none;stroke-opacity:1"
         d="m 986.21692,-486.80854 c 0,0 -5.06661,-2.58224 -8.35944,1.41571 -3.35135,4.06901 0.9438,9.70773 0.9438,9.70773"
         id="path3742"
         sodipodi:nodetypes="csc"
         inkscape:connector-curvature="0" />
      <path
         sodipodi:nodetypes="csccsc"
         d="m 994.57913,-509.50501 c 0,0 -3.79613,4.27973 -5.14831,9.10487 -1.0457,3.73151 0,10.10593 0,10.10593 m -9.72457,-13.5858 c 0,0 -0.82038,2.61693 -0.71504,5.05296 0.0989,2.28695 1.38241,4.95763 1.38241,4.95763"
         style="fill:none;stroke:#000000;stroke-width:2;stroke-linecap:round;stroke-linejoin:miter;stroke-miterlimit:4;stroke-dasharray:none;stroke-opacity:1"
         id="path3746"
         inkscape:connector-curvature="0" />
      <path
         d="m 964.92871,-452.0156 -0.4767,14.2055 m -3.14618,-15.44491 -0.38136,15.1589 m -2.86017,-16.01695 -0.57203,14.49152 m -2.86352,-15.90454 -0.80898,14.02229 m -3.23591,-15.23576 -0.26966,8.49427 m -3.64041,-9.43807 -0.53931,14.02228 m -2.83143,-14.96609 -0.26966,8.49427 m -4.31455,-9.16842 -0.13483,7.82012"
         style="fill:none;stroke:#000000;stroke-width:2.0999999;stroke-linecap:round;stroke-linejoin:miter;stroke-miterlimit:4;stroke-dasharray:none;stroke-opacity:1"
         id="path3763"
         inkscape:connector-curvature="0" />
      <path
         d="m 849.75922,-438.38213 v 5.24364 m 3.71822,-6.67372 v 6.95974 m 3.90889,-8.19915 0.0953,9.43856 m 3.52759,-10.67797 v 11.34534 m 3.90889,-12.29873 -0.0953,8.10382 m 5.52963,-9.24789 -0.0953,8.48517 m 5.33894,-9.81991 0.0953,6.67373 m 7.34114,-8.10382 0.0953,4.19492"
         style="fill:none;stroke:#000000;stroke-width:2.0999999;stroke-linecap:round;stroke-linejoin:miter;stroke-miterlimit:4;stroke-dasharray:none;stroke-opacity:1"
         id="path3780"
         inkscape:connector-curvature="0" />
      <path
         d="m 846.69226,-367.66684 c 0,0 2.52179,-4.27911 2.52179,-11.8125 0,-7.46598 -3.22332,-11.8125 -3.22332,-11.8125 l 46.38944,-3.9e-4 -1.9e-4,-45.68734 c 0,0 4.27911,2.52179 11.8125,2.52179 7.46598,0 11.8125,-2.52179 11.8125,-2.52179 l 4.9e-4,45.68753 45.68725,1.9e-4 c 0,0 -2.52179,4.27911 -2.52179,11.8125 0,7.46598 2.52179,11.8125 2.52179,11.8125 h -45.68725 l -4.8e-4,45.68774 c 0,0 -4.27911,-2.52179 -11.8125,-2.52179 -7.46598,0 -11.8125,2.52179 -11.8125,2.52179 l 1.8e-4,-45.68773 z"
         style="fill:#ffffff;fill-opacity:1;stroke:#000000;stroke-width:2;stroke-linecap:butt;stroke-linejoin:miter;stroke-miterlimit:4;stroke-dasharray:none;stroke-opacity:1"
         id="path4583"
         inkscape:connector-curvature="0"
         sodipodi:nodetypes="cscccscccscccsccc" />
      <path
         sodipodi:nodetypes="cscccscccscccsccc"
         inkscape:connector-curvature="0"
         id="path4598"
         style="fill:#ffffff;fill-opacity:1;stroke:#000000;stroke-width:2;stroke-linecap:butt;stroke-linejoin:miter;stroke-miterlimit:4;stroke-dasharray:none;stroke-opacity:1"
         d="m 846.69226,-229.94817 c 0,0 2.52179,-4.27911 2.52179,-11.8125 0,-7.46598 -3.22332,-11.8125 -3.22332,-11.8125 l 46.38944,-3.9e-4 -1.9e-4,-45.68734 c 0,0 4.27911,2.52179 11.8125,2.52179 7.46598,0 11.8125,-2.52179 11.8125,-2.52179 l 4.9e-4,45.68753 45.68725,1.9e-4 c 0,0 -2.52179,4.27911 -2.52179,11.8125 0,7.46598 2.52179,11.8125 2.52179,11.8125 h -45.68725 l -4.8e-4,45.68774 c 0,0 -4.27911,-2.52179 -11.8125,-2.52179 -7.46598,0 -11.8125,2.52179 -11.8125,2.52179 l 1.8e-4,-45.68773 z" />
    </g>
  </g>
</svg>
