<?xml version="1.0" encoding="utf-8"?>
<!-- Generator: Adobe Illustrator 16.0.0, SVG Export Plug-In . SVG Version: 6.00 Build 0)  -->
<!DOCTYPE svg PUBLIC "-//W3C//DTD SVG 1.1//EN" "http://www.w3.org/Graphics/SVG/1.1/DTD/svg11.dtd">
<svg version="1.1" id="Layer_1" xmlns="http://www.w3.org/2000/svg" xmlns:xlink="http://www.w3.org/1999/xlink" x="0px" y="0px"
	 width="480px" height="380px" viewBox="0 0 480 380" enable-background="new 0 0 480 380" xml:space="preserve">
<polygon fill="#FFFFFF" stroke="#000000" stroke-width="0.9987" stroke-miterlimit="10" points="478.434,0 297.465,0 280.754,0 0,0 
	0,380 297.465,380 297.465,69.667 "/>
<g>
	<path fill="#D80000" d="M148.104,350.97c0,0,0.723,9.628,2.722,9.758c2,0.131,1.148-8.247,1.156-10.996
		C151.983,349.732,148.609,349.222,148.104,350.97z"/>
	<path fill="#D80000" stroke="#000000" stroke-width="0.6845" stroke-miterlimit="10" d="M141.292,87.892
		c0,0-4.752-0.527-6.48-4.104c-1.729-3.577-6.192-11.929-12.241-9.481l2.592,6.571l4.032,6.221l7.506,5.497
		C136.701,92.596,141.292,92.691,141.292,87.892z"/>
	<g>
		<path fill="#FFE300" stroke="#000000" stroke-width="0.6845" stroke-miterlimit="10" d="M102.269,271.178
			c0,0-1.179,6.178,2.505,7.281c1.64,0.137-0.464-3.999,0.83-6.237C105.604,272.222,104.959,269.265,102.269,271.178z"/>
		<path fill="#FFE300" stroke="#000000" stroke-width="0.6845" stroke-miterlimit="10" d="M127.571,255.848
			c0,0,6.27-0.483,6.957,3.3c-0.045,1.646-3.921-0.905-6.292,0.132C128.236,259.28,125.371,258.31,127.571,255.848z"/>
		<path fill="#FFE300" stroke="#000000" stroke-width="0.6845" stroke-miterlimit="10" d="M101.428,239.898
			c0,0-3.342-5.327-6.792-3.628c-1.295,1.016,3.062,2.612,3.637,5.135C98.273,241.405,100.759,243.129,101.428,239.898z"/>
		<path fill="#FFE300" stroke="#000000" stroke-width="0.6845" stroke-miterlimit="10" d="M92.745,259.956
			c0,0-5.233,3.488-3.438,6.891c1.051,1.266,2.527-3.133,5.032-3.777C94.338,263.07,95.995,260.536,92.745,259.956z"/>
		<path fill="#FFE300" stroke="#000000" stroke-width="0.6845" stroke-miterlimit="10" d="M122.396,239.036
			c0,0-4.523,6.981-3.247,11.92c1.276,4.939,2.708,5.75,5.861,5.063c3.151-0.689,4.728-1.033,4.051,2.218
			c-0.677,3.253-7.121,5.782-9.241,3.422c-2.12-2.362-6.025-2.574-7.772,1.691c-1.747,4.267-4.129,9.227-7.028,10.248
			c-2.899,1.021-4.986-2.485-2.572-7.01c2.415-4.522,4.928-7.681,0.072-5.267s-11.389,3.806-10.778-0.356s13.665-3.974,14.831-6.802
			c1.166-2.831-9.859-7.083-8.98-13.314c0.878-6.23,5.859-1.214,7.058,1.1c1.199,2.314,5.653,6.909,7.248,3.703
			c1.596-3.204,2.984-9.254,2.818-11.529c-0.167-2.276,4.093-1.901,4.093-1.901L122.396,239.036z"/>
	</g>
	<path fill="#D80000" d="M137.259,295.789c0,0-6.295-6.335-8.044-9.504c0,0-4.34,2.303,6.028,14.544L137.259,295.789z"/>
	<path fill="#D80000" d="M91.341,87.099c0,0,10.429-5.551,14.989-6.497c0,0-0.687-6.65-19.995,1.729L91.341,87.099z"/>
	<path fill="#D80000" d="M84.794,96.295c0,0,10.276-1.12,14.233-0.407c0,0,1.859-5.622-16.479-5.09L84.794,96.295z"/>
	<path fill="#D80000" d="M80.625,104.564c0,0,10.193,1.715,13.808,3.477c0,0,3.316-4.905-14.475-9.377L80.625,104.564z"/>
	<path fill="#D80000" d="M125.877,120.756c0,0-8.431-7.91-10.516-11.461c0,0-7.031,0.958,6.525,15.721L125.877,120.756z"/>
	<path fill="#D80000" d="M132.711,101.857c0,0-6.286-3.534-8.036-5.308c0,0-4.315,1.315,6.041,8.151L132.711,101.857z"/>
	<path fill="#D80000" d="M115.319,134.826c0,0-6.731-8.349-8.184-11.841c0,0-6.622-0.199,3.928,15.056L115.319,134.826z"/>
	<path fill="#D80000" d="M116.068,169.402c0,0-7.21-7.002-8.9-9.821c0,0-6.447-0.688,5.028,11.966L116.068,169.402z"/>
	<path fill="#D80000" d="M168.394,120.756c0,0,8.432-7.91,10.516-11.461c0,0,7.031,0.958-6.525,15.721L168.394,120.756z"/>
	<path fill="#D80000" d="M162.953,75.417c0,0,7.081-6.483,8.825-9.4c0,0,5.935,0.816-5.443,12.924L162.953,75.417z"/>
	<path fill="#D80000" d="M167.205,85.034c0,0,8.709-4.04,11.254-6.293c0,0,5.41,2.572-9.095,10.675L167.205,85.034z"/>
	<path fill="#D80000" d="M155.696,66.77c0,0,5.165-8.093,6.096-11.362c0,0,5.944-0.745-1.917,13.892L155.696,66.77z"/>
	<path fill="#D80000" d="M148.126,64.219c0,0,0.788-9.568,0.085-12.893c0,0,4.907-3.435,4.791,13.179L148.126,64.219z"/>
	<path fill="#D80000" d="M133.816,61.441c0,0,2.583-9.246,2.522-12.645c0,0,5.469-2.444,2.211,13.847L133.816,61.441z"/>
	<path fill="#D80000" d="M124.98,59.468c0,0-1.53-9.478-3.009-12.538c0,0,3.941-4.512,7.811,11.646L124.98,59.468z"/>
	<path fill="#D80000" d="M116.801,60.398c0,0-5.144-8.106-7.71-10.334c0,0,1.843-5.7,11.771,7.621L116.801,60.398z"/>
	<path fill="#D80000" d="M110.015,65.17c0,0-6.933-5.656-9.854-6.868c0,0-0.062-5.603,12.634,3.252L110.015,65.17z"/>
	<path fill="#D80000" d="M178.952,134.826c0,0,6.732-8.349,8.184-11.841c0,0,6.623-0.199-3.928,15.056L178.952,134.826z"/>
	<path fill="#D80000" d="M180.733,167.45c0,0,7.21-7.002,8.9-9.822c0,0,6.447-0.688-5.027,11.966L180.733,167.45z"/>
	<path fill="#D80000" d="M68.748,147.081c0,0,8.921-5.219,12.825-6.185c0,0-0.6-5.891-17.12,2.086L68.748,147.081z"/>
	<path fill="#D80000" d="M125.042,78.099c0,0-6.727,3.535-9.723,4.156c0,0,0.703,4.151,13.227-1.209L125.042,78.099z"/>
	<path fill="#D80000" d="M130.028,88.194c0,0-7.015,2.923-10.055,3.274c0,0,0.331,4.197,13.282-0.027L130.028,88.194z"/>
	<path fill="#D80000" d="M81.63,158.303c0,0,6.646-7.917,9.997-10.139c0,0-2.546-5.345-15.421,7.723L81.63,158.303z"/>
	<path fill="#D80000" d="M100.132,165.036c0,0,1.961-10.149,3.81-13.72c0,0-4.823-3.434-9.724,14.244L100.132,165.036z"/>
	<path fill="#D80000" d="M62.335,123.232c0,0,16.958-4.028,23.161-3.695c0,0,4.617-9.644-25.225-4.87L62.335,123.232z"/>
	<path fill="#D80000" d="M62.062,135.856c0,0,13.699-4.638,18.907-4.837c0,0,2.801-8.35-21.558-2.106L62.062,135.856z"/>
	<path fill="#D80000" d="M94.283,293.4c0,0-2.406-6.488-2.622-9.283c0,0-3.8,0.231-0.417,12.189L94.283,293.4z"/>
	<path fill="#D80000" d="M95.05,318.597c0,0-7.018,5.173-10.271,6.368c0,0,1.34,4.702,14.568-3.505L95.05,318.597z"/>
	<path fill="#D80000" d="M29.898,174.719c0,0-9.095-2.961-12.304-5.124c0,0-3.032,4.309,12.822,10.903L29.898,174.719z"/>
	<path fill="#D80000" d="M29.008,161.758c0,0-9.095-2.96-12.305-5.124c0,0-3.031,4.309,12.822,10.903L29.008,161.758z"/>
	<path fill="#D80000" d="M26.677,148.065c0,0-9.095-2.961-12.304-5.124c0,0-3.032,4.309,12.822,10.903L26.677,148.065z"/>
	<path fill="#D80000" d="M26.575,131.098c0,0-10.587-4.754-14.441-7.866c0,0-2.972,5.207,15.634,15.332L26.575,131.098z"/>
	<path fill="#D80000" d="M27.791,115.508c0,0-11.427-5.021-15.577-8.331c0,0-3.254,5.604,16.815,16.328L27.791,115.508z"/>
	<path fill="#D80000" d="M31.438,96.461c0,0-12.722-5.106-17.298-8.569c0,0-3.83,6.168,18.458,17.199L31.438,96.461z"/>
	<path fill="#D80000" d="M86.331,299.294c0,0-5.555-4.126-7.26-6.351c0,0-3.059,2.266,6.297,10.443L86.331,299.294z"/>
	<path fill="#D80000" d="M83.131,305.972c0,0-6.9,0.519-9.645-0.046c0,0-0.829,3.715,11.598,3.77L83.131,305.972z"/>
	<path fill="#D80000" d="M86.313,314.365c0,0-6.9,0.519-9.645-0.046c0,0-0.829,3.715,11.598,3.77L86.313,314.365z"/>
	<path fill="#D80000" d="M128.605,304.002c0,0-4.725-7.58-5.723-11.059c0,0-4.745,1.278,2.634,15.522L128.605,304.002z"/>
	<path fill="#D80000" d="M120.026,310.67c0,0-3.024-9.438-3.152-13.454c0,0-5.452,0.088-1.383,17.421L120.026,310.67z"/>
	<path fill="#D80000" d="M73.678,58.385c0,0,3.024-9.438,3.153-13.455c0,0,5.452,0.089,1.383,17.421L73.678,58.385z"/>
	<path fill="#D80000" d="M81.895,63.072c0,0,6.842-11.555,8.311-16.722c0,0,6.759,1.294-3.955,22.835L81.895,63.072z"/>
	<path fill="#D80000" d="M63.931,55.304c0,0,0.598-9.893-0.271-13.815c0,0,5.305-1.262,5.646,16.539L63.931,55.304z"/>
	<path fill="#D80000" d="M56.694,56.954c0,0-2.229-9.658-4.173-13.174c0,0,4.73-2.712,10.099,14.262L56.694,56.954z"/>
	<path fill="#D80000" d="M48.659,60.373c0,0-4.41-8.877-7.117-11.846c0,0,3.971-3.736,13.134,11.528L48.659,60.373z"/>
	<path fill="#D80000" d="M42.441,67.424c0,0-6.837-7.175-10.302-9.211c0,0,2.688-4.743,15.956,7.128L42.441,67.424z"/>
	<path fill="#D80000" d="M36.647,82.6c0,0-7.759-6.168-11.47-7.709c0,0,2.012-5.067,16.784,4.87L36.647,82.6z"/>
	<path fill="#D80000" d="M45.282,236.712c0,0-4.206,8.975-4.846,12.941c0,0-5.396-0.784,0.854-17.455L45.282,236.712z"/>
	<path fill="#D80000" d="M51.94,240.684c0,0-1.009,9.859-0.304,13.815c0,0-5.353,1.04-4.953-16.76L51.94,240.684z"/>
	<path fill="#D80000" d="M68.056,263.384c0,0-1.385,11.952-0.697,16.721c0,0-6.029,1.396-5.123-20.148L68.056,263.384z"/>
	<path fill="#D80000" d="M57.797,237.298c0,0-0.639,7.721,0.067,10.846c0,0-4.62,0.687-4.701-13.285L57.797,237.298z"/>
	<path fill="#D80000" d="M62.065,231.072c0,0,3.207,7.053,5.347,9.437c0,0-3.699,2.854-10.582-9.307L62.065,231.072z"/>
	<path fill="#D80000" d="M34.573,215.488c0,0-5.926,4.99-7.645,7.694c0,0-3.745-2.791,6.107-12.699L34.573,215.488z"/>
	<path fill="#D80000" d="M76.74,264.957c0,0,1.888,10.599,3.792,14.52c0,0-5.234,2.688-10.112-16.02L76.74,264.957z"/>
	<path fill="#D80000" d="M96.393,293.348c0,0,2.213-10.536,1.913-14.885c0,0,5.859-0.536,3.388,18.639L96.393,293.348z"/>
	<path fill="#D80000" d="M134.182,325.821c0,0-7.136,7.785-9.166,11.424c0,0-4.701-1.617,7.112-16.331L134.182,325.821z"/>
	<path fill="#D80000" d="M129.255,321.41c0,0-10.292,2.366-14.027,4.213c0,0-2.956-3.997,15.117-9.42L129.255,321.41z"/>
	<path fill="#D80000" d="M116.296,332.355c0,0-10.292,2.367-14.027,4.213c0,0-2.957-3.996,15.117-9.42L116.296,332.355z"/>
	<path fill="#D80000" d="M132.787,340.065c0,0-7.136,7.785-9.166,11.424c0,0-4.701-1.616,7.111-16.33L132.787,340.065z"/>
	<path fill="#D80000" d="M146.427,328.858c0,0-2.371,10.291-2.342,14.459c0,0-4.887,0.911-1.864-17.715L146.427,328.858z"/>
	<g>
		<path fill="#FFE300" stroke="#000000" stroke-width="0.6845" stroke-miterlimit="10" d="M196.731,271.178
			c0,0,1.179,6.178-2.505,7.281c-1.64,0.137,0.464-3.999-0.831-6.237C193.396,272.222,194.041,269.265,196.731,271.178z"/>
		<path fill="#FFE300" stroke="#000000" stroke-width="0.6845" stroke-miterlimit="10" d="M171.429,255.848
			c0,0-6.27-0.483-6.957,3.3c0.045,1.646,3.921-0.905,6.291,0.132C170.763,259.28,173.629,258.31,171.429,255.848z"/>
		<path fill="#FFE300" stroke="#000000" stroke-width="0.6845" stroke-miterlimit="10" d="M197.572,239.898
			c0,0,3.342-5.327,6.792-3.628c1.294,1.016-3.062,2.612-3.637,5.135C200.727,241.405,198.241,243.129,197.572,239.898z"/>
		<path fill="#FFE300" stroke="#000000" stroke-width="0.6845" stroke-miterlimit="10" d="M206.255,259.956
			c0,0,5.233,3.488,3.438,6.891c-1.051,1.266-2.527-3.133-5.032-3.777C204.662,263.07,203.004,260.536,206.255,259.956z"/>
		<path fill="#FFE300" stroke="#000000" stroke-width="0.6845" stroke-miterlimit="10" d="M176.604,239.036
			c0,0,4.523,6.981,3.247,11.92c-1.276,4.939-2.708,5.75-5.861,5.063c-3.151-0.689-4.728-1.033-4.051,2.218
			c0.677,3.253,7.121,5.782,9.24,3.422c2.121-2.362,6.025-2.574,7.772,1.691c1.747,4.267,4.129,9.227,7.028,10.248
			c2.899,1.021,4.986-2.485,2.572-7.01c-2.415-4.522-4.929-7.681-0.072-5.267c4.856,2.414,11.389,3.806,10.778-0.356
			s-13.665-3.974-14.831-6.802c-1.166-2.831,9.859-7.083,8.98-13.314c-0.878-6.23-5.859-1.214-7.058,1.1
			c-1.199,2.314-5.653,6.909-7.248,3.703c-1.596-3.204-2.984-9.254-2.818-11.529c0.166-2.276-4.093-1.901-4.093-1.901
			L176.604,239.036z"/>
	</g>
	<path fill="#D80000" d="M161.741,295.789c0,0,6.295-6.335,8.044-9.504c0,0,4.34,2.303-6.028,14.544L161.741,295.789z"/>
	<path fill="#D80000" d="M207.658,87.099c0,0-10.429-5.551-14.989-6.497c0,0,0.686-6.65,19.995,1.729L207.658,87.099z"/>
	<path fill="#D80000" d="M214.206,96.295c0,0-10.276-1.12-14.233-0.407c0,0-1.859-5.622,16.479-5.09L214.206,96.295z"/>
	<path fill="#D80000" d="M218.375,104.564c0,0-10.193,1.715-13.808,3.477c0,0-3.316-4.905,14.475-9.377L218.375,104.564z"/>
	<path fill="#D80000" d="M230.252,147.081c0,0-8.921-5.219-12.825-6.185c0,0,0.6-5.891,17.12,2.086L230.252,147.081z"/>
	<path fill="#D80000" d="M217.37,158.303c0,0-6.646-7.917-9.997-10.139c0,0,2.546-5.345,15.421,7.723L217.37,158.303z"/>
	<path fill="#D80000" d="M198.868,165.036c0,0-1.961-10.149-3.81-13.72c0,0,4.823-3.434,9.724,14.244L198.868,165.036z"/>
	<path fill="#D80000" d="M236.665,123.232c0,0-16.958-4.028-23.161-3.695c0,0-4.617-9.644,25.224-4.87L236.665,123.232z"/>
	<path fill="#D80000" d="M236.938,135.856c0,0-13.699-4.638-18.907-4.837c0,0-2.801-8.35,21.558-2.106L236.938,135.856z"/>
	<path fill="#D80000" d="M204.717,293.4c0,0,2.406-6.488,2.622-9.283c0,0,3.8,0.231,0.417,12.189L204.717,293.4z"/>
	<path fill="#D80000" d="M203.95,318.597c0,0,7.018,5.173,10.271,6.368c0,0-1.34,4.702-14.568-3.505L203.95,318.597z"/>
	<path fill="#D80000" d="M269.103,174.719c0,0,9.095-2.961,12.304-5.124c0,0,3.031,4.309-12.822,10.903L269.103,174.719z"/>
	<path fill="#D80000" d="M269.992,161.758c0,0,9.095-2.96,12.303-5.124c0,0,3.033,4.309-12.822,10.903L269.992,161.758z"/>
	<path fill="#D80000" d="M272.323,148.065c0,0,9.095-2.961,12.305-5.124c0,0,3.031,4.309-12.822,10.903L272.323,148.065z"/>
	<path fill="#D80000" d="M272.425,131.098c0,0,10.588-4.754,14.44-7.866c0,0,2.973,5.207-15.633,15.332L272.425,131.098z"/>
	<path fill="#D80000" d="M271.21,115.508c0,0,11.427-5.021,15.576-8.331c0,0,3.255,5.604-16.814,16.328L271.21,115.508z"/>
	<path fill="#D80000" d="M267.562,96.461c0,0,12.723-5.106,17.299-8.569c0,0,3.829,6.168-18.459,17.199L267.562,96.461z"/>
	<path fill="#D80000" d="M212.669,299.294c0,0,5.555-4.126,7.259-6.351c0,0,3.059,2.266-6.297,10.443L212.669,299.294z"/>
	<path fill="#D80000" d="M215.869,305.972c0,0,6.9,0.519,9.645-0.046c0,0,0.829,3.715-11.598,3.77L215.869,305.972z"/>
	<path fill="#D80000" d="M212.687,314.365c0,0,6.9,0.519,9.645-0.046c0,0,0.829,3.715-11.598,3.77L212.687,314.365z"/>
	<path fill="#D80000" d="M170.395,304.002c0,0,4.725-7.58,5.723-11.059c0,0,4.745,1.278-2.634,15.522L170.395,304.002z"/>
	<path fill="#D80000" d="M178.974,310.67c0,0,3.024-9.438,3.152-13.454c0,0,5.452,0.088,1.383,17.421L178.974,310.67z"/>
	<path fill="#D80000" d="M225.322,58.385c0,0-3.024-9.438-3.153-13.455c0,0-5.452,0.089-1.383,17.421L225.322,58.385z"/>
	<path fill="#D80000" d="M217.104,63.072c0,0-6.841-11.555-8.31-16.722c0,0-6.759,1.294,3.955,22.835L217.104,63.072z"/>
	<path fill="#D80000" d="M235.068,55.304c0,0-0.597-9.893,0.27-13.815c0,0-5.304-1.262-5.645,16.539L235.068,55.304z"/>
	<path fill="#D80000" d="M242.306,56.954c0,0,2.229-9.658,4.173-13.174c0,0-4.73-2.712-10.099,14.262L242.306,56.954z"/>
	<path fill="#D80000" d="M250.341,60.373c0,0,4.41-8.877,7.117-11.846c0,0-3.972-3.736-13.135,11.528L250.341,60.373z"/>
	<path fill="#D80000" d="M256.558,67.424c0,0,6.839-7.175,10.302-9.211c0,0-2.688-4.743-15.955,7.128L256.558,67.424z"/>
	<path fill="#D80000" d="M262.353,82.6c0,0,7.759-6.168,11.47-7.709c0,0-2.012-5.067-16.784,4.87L262.353,82.6z"/>
	<path fill="#D80000" d="M253.719,236.712c0,0,4.205,8.975,4.846,12.941c0,0,5.396-0.784-0.855-17.455L253.719,236.712z"/>
	<path fill="#D80000" d="M247.059,240.684c0,0,1.009,9.859,0.306,13.815c0,0,5.352,1.04,4.953-16.76L247.059,240.684z"/>
	<path fill="#D80000" d="M230.944,263.384c0,0,1.384,11.952,0.697,16.721c0,0,6.029,1.396,5.123-20.148L230.944,263.384z"/>
	<path fill="#D80000" d="M241.203,237.298c0,0,0.638,7.721-0.068,10.846c0,0,4.621,0.687,4.701-13.285L241.203,237.298z"/>
	<path fill="#D80000" d="M236.935,231.072c0,0-3.207,7.053-5.347,9.437c0,0,3.698,2.854,10.581-9.307L236.935,231.072z"/>
	<path fill="#D80000" d="M264.427,215.488c0,0,5.926,4.99,7.645,7.694c0,0,3.746-2.791-6.107-12.699L264.427,215.488z"/>
	<path fill="#D80000" d="M222.26,264.957c0,0-1.888,10.599-3.792,14.52c0,0,5.234,2.688,10.112-16.02L222.26,264.957z"/>
	<path fill="#D80000" d="M202.607,293.348c0,0-2.213-10.536-1.913-14.885c0,0-5.859-0.536-3.388,18.639L202.607,293.348z"/>
	<path fill="#D80000" d="M164.818,325.821c0,0,7.136,7.785,9.166,11.424c0,0,4.701-1.617-7.112-16.331L164.818,325.821z"/>
	<path fill="#D80000" d="M169.744,321.41c0,0,10.292,2.366,14.027,4.213c0,0,2.956-3.997-15.117-9.42L169.744,321.41z"/>
	<path fill="#D80000" d="M182.704,332.355c0,0,10.292,2.367,14.027,4.213c0,0,2.957-3.996-15.117-9.42L182.704,332.355z"/>
	<path fill="#D80000" d="M166.213,340.065c0,0,7.136,7.785,9.166,11.424c0,0,4.701-1.616-7.111-16.33L166.213,340.065z"/>
	<path fill="#D80000" d="M152.157,328.858c0,0,2.371,10.291,2.342,14.459c0,0,4.887,0.911,1.864-17.715L152.157,328.858z"/>
	<path d="M277.378,199.737c-2.881-5.472-7.776,2.017-7.776-12.096c0-14.113,7.776-54.146-0.288-92.164
		c-8.063-38.018-29.377-46.082-43.202-38.882c-13.824,7.2-25.345,19.297-18.145,37.441c7.201,18.146,27.649,14.978,27.649,23.618
		c0.289,3.456-4.031,1.152,0.289,8.641c4.32,7.488-4.32-2.432-2.592,9.44c1.729,11.872-6.912-0.225-7.488,13.6
		c-0.577,13.825-8.641-6.791-14.689,8.846c-6.048,15.636-7.776-8.269-15.552,9.875c-2.017,5.76-7.201,2.466-9.793-3.375
		c-2.199-4.956-8.136-22.07-25.711-25.48c-1.69-2.619-3.742-5.404-5.106-10.314c-0.47-1.692-0.667-3.41-0.659-5.123
		c4.084,4.918,12.184,11.869,14.742,14.801c3.168,3.629,10.369,9.763,12.385,12.483c2.016,2.72,4.32,6.064,4.176,3.472
		c-0.288-5.329-13.104-18.433-16.272-21.313s-9.216-14.688-8.353-16.273s3.024,2.736,10.513,11.809s15.265,14.257,14.688,12.96
		c-0.719-3.312-10.944-14.4-13.249-18.197c-2.304-3.797-9.043-16.076-8.898-20.153c0.021-0.61,8.414-5.835,8.208-11.188
		c-0.288-7.488-9.937-30.673-17.713-31.792c-7.777-1.119-11.377,7.051-11.377,7.051l2.736,19.675l-2.592,3.663l-8.496,0.97
		c-2.993,3.22-6.551,9.622-6.48,11.62c0.145,4.077-5.185,16.355-7.488,20.153c-2.304,3.797-12.529,14.885-13.249,18.197
		c-0.576,1.296,7.2-3.888,14.688-12.96c7.489-9.072,9.649-13.393,10.513-11.809s-5.185,13.393-8.353,16.273
		s-15.984,15.984-16.272,21.313c-0.145,2.592,2.159-0.752,4.176-3.472c2.016-2.72,9.217-8.854,12.385-12.483
		c2.268-2.599,8.891-8.355,13.21-13.056c-0.162,1.679-0.474,3.115-0.97,3.953c-1.223,2.07-2.507,7.64-3.251,11.255
		c-13.586,5.386-18.544,19.533-20.51,23.964c-2.592,5.841-7.776,9.135-9.793,3.375c-7.776-18.145-9.504,5.76-15.552-9.875
		c-6.048-15.636-14.112,4.979-14.689-8.846c-0.576-13.825-9.216-1.728-7.488-13.6c1.728-11.872-6.913-1.952-2.592-9.44
		c4.32-7.489,0-5.185,0.288-8.641c0-8.64,20.449-5.472,27.65-23.618c7.2-18.145-4.32-30.241-18.146-37.441
		c-13.824-7.2-35.138,0.865-43.202,38.882s-0.289,78.051-0.289,92.164c0,14.112-4.896,6.624-7.776,12.096
		c-2.88,5.474,0.864,13.537,9.792,16.262s12.385-10.501,16.417-22.885c4.032-12.385,8.064,24.769,3.744,32.083
		s-10.656-8.178-11.232,5.358c-0.576,13.535,16.417,14.113,22.177,7.117c13.825-17.364-1.152-41.391,6.625-40.526
		c7.776,0.864,7.488,37.441,5.76,47.81s-6.625,2.881-10.081,6.049c-3.456,3.168-8.352,9.216,2.016,14.112
		c10.369,4.896,20.449-3.167,24.194-12.097c3.744-8.93,2.592-36.001,3.167-44.066c1.152-25.346,3.456,23.905,6.913,16.243
		c3.456-7.663-0.288-12.21,2.592-21.715c2.88-9.505,7.488,10.08,7.488,23.904c0,13.825,7.488,3.745,10.657,13.537
		c3.167,9.792,9.792,7.109,9.792,7.109c3.745-45.596,9.216-7.974,9.216,4.123s-4.32,2.881-8.064,12.385
		c-3.744,9.505,7.777,4.32,7.777,14.688c-0.577,22.753-23.617,34.562-33.698,34.274c-10.081-0.288-12.672-9.505-7.776-13.249
		c4.896-3.743,5.76-11.232-4.32-8.641c-10.081,2.593-17.281,11.521-8.928,25.922c8.353,14.4,40.61-3.457,40.322,1.728
		s-21.889,8.641-17.281,18.145c4.608,9.505,19.585-11.809,22.753-12.402c3.168-0.596-2.592,8.947-4.896,16.146
		c-2.304,7.2,2.88,13.248,8.353,10.67c5.473-2.578,4.032-15.566,6.048-20.174c2.016-4.608,3.527-0.846,3.527,3.187
		c-5.759,27.211,16.814,27.211,9.146-0.372c0-4.032,2.016-7.423,4.032-2.814c2.016,4.607,0.576,17.596,6.048,20.174
		s10.657-3.47,8.353-10.67c-2.304-7.199-8.065-16.742-4.896-16.146c3.168,0.594,18.145,21.907,22.753,12.402
		c4.608-9.504-16.993-12.96-17.281-18.145c-0.289-5.185,31.969,12.673,40.322-1.728c8.353-14.401,1.153-23.329-8.928-25.922
		c-10.081-2.592-9.216,4.897-4.32,8.641c4.896,3.744,2.305,12.961-7.776,13.249c-10.081,0.287-33.122-11.521-33.698-34.274
		c0-10.368,11.521-5.184,7.777-14.688c-3.745-9.504-8.064-0.288-8.064-12.385s5.472-49.719,9.216-4.123c0,0,6.625,2.683,9.792-7.109
		c3.168-9.792,10.657,0.288,10.657-13.537c0-13.824,4.608-33.409,7.488-23.904s-0.864,14.052,2.592,21.715
		c3.456,7.662,5.761-41.589,6.913-16.243c0.575,8.065-0.577,35.137,3.167,44.066c3.745,8.93,13.825,16.992,24.193,12.097
		c10.368-4.896,5.472-10.944,2.016-14.112s-8.353,4.319-10.081-6.049s-2.016-46.945,5.761-47.81
		c7.776-0.864-7.201,23.162,6.624,40.526c5.76,6.996,22.753,6.418,22.177-7.117c-0.575-13.536-6.912,1.956-11.232-5.358
		s-0.288-44.468,3.744-32.083c4.033,12.384,7.488,25.609,16.417,22.885S280.259,205.21,277.378,199.737z"/>
	<path fill="#FFFFFF" d="M61.512,82.948c0,0-2.017-8.064-7.92-6.912c-5.904,1.152-6.624,7.056-4.176,9.504s4.752,2.88,7.488,2.592
		s3.024,1.583,3.024,3.456s-4.896,4.608-0.72,7.776c4.176,3.168,9.216-0.145,9.072-4.32c-0.144-4.176-3.888-5.045-1.583-6.771
		c2.304-1.726,9.792-1.294,10.368-5.326c0.576-4.032-1.584-9.297-6.048-7.025C66.552,78.196,63.384,85.252,61.512,82.948z"/>
	<path fill="#FFFFFF" d="M29.614,122.55c0,0-1.296,30.241,6.048,38.666c7.345,8.424,27.865,18.577,34.994,19.009
		C70.656,180.224,34.15,169.64,29.614,122.55z"/>
	<path fill="#FFFFFF" d="M237.488,82.948c0,0,2.017-8.064,7.92-6.912c5.904,1.152,6.624,7.056,4.176,9.504s-4.752,2.88-7.488,2.592
		c-2.735-0.288-3.024,1.583-3.024,3.456s4.898,4.608,0.721,7.776s-9.216-0.145-9.073-4.32c0.144-4.176,3.888-5.045,1.583-6.771
		c-2.304-1.726-9.792-1.294-10.368-5.326c-0.576-4.032,1.584-9.297,6.048-7.025C232.448,78.196,235.615,85.252,237.488,82.948z"/>
	<path fill="#FFFFFF" d="M269.386,122.55c0,0,1.296,30.241-6.049,38.666c-7.344,8.424-27.865,18.577-34.993,19.009
		C228.344,180.224,264.85,169.64,269.386,122.55z"/>
	<path fill="#FFFFFF" d="M159.437,78.1c0,0-5.617,4.775,0.288,8.16c0,0,0.216,3.389,0,4.502c-0.216,1.114-5.833-0.902-6.48-7.454
		c-0.648-6.553-0.288-8.979,2.664-9.71C158.86,72.867,159.508,77.428,159.437,78.1z"/>
	<path fill="#FFE300" stroke="#000000" stroke-width="0.6845" stroke-miterlimit="10" d="M107.995,70.595
		c0,0,2.304-7.263,11.376-6.11c9.073,1.152,19.297,13.21,20.305,20.449c1.008,7.239-4.464,5.423-6.048,3.576
		c-1.584-1.847-6.048-12.208-8.208-13.58c-2.16-1.372-3.024-3.676-7.632-3.676s-5.184,2.183-1.44,3.755
		c3.744,1.573,7.345,5.317,9.073,9.925s8.208,13.3,13.68,12.771c5.473-0.53,10.225-12.099,8.785-18.195
		c-1.44-6.096-4.177-25.825-25.633-25.249c-13.536,0.576-17.568,8.411-17.136,14.574C105.547,74.997,107.453,71.782,107.995,70.595z
		"/>
</g>
</svg>
