<?xml version="1.0" encoding="utf-8"?>
<!-- Generator: Adobe Illustrator 22.0.1, SVG Export Plug-In . SVG Version: 6.00 Build 0)  -->
<svg version="1.1" id="레이어_1" xmlns="http://www.w3.org/2000/svg" xmlns:xlink="http://www.w3.org/1999/xlink" x="0px"
	 y="0px" viewBox="0 0 517 600" style="enable-background:new 0 0 517 600;" xml:space="preserve">
<style type="text/css">
	.st0{fill:#EB0026;}
	.st1{fill:#574601;}
	.st2{fill:#FFDF56;}
	.st3{fill:#DBBD3F;}
	.st4{fill:none;stroke:#574601;stroke-width:2;stroke-miterlimit:10;}
	.st5{fill:#7F7F7F;}
	.st6{fill:#FFFFFF;}
	.st7{fill:#DDDDDD;}
</style>
<g>
	<rect class="st0" width="517" height="600"/>
	<path class="st1" d="M219,361c-23,5-24,11-30,16s-8,5-10,2s-2,6,5,7c0,0-2,33,2,42s-2,19-15,19c-6,0,6,7,16,5c0,0,3,8,0,13
		s-21,22-26,21s-10-8-11-9s-7-14-19-8c-2.6,1.3-4.2,3.9-5,7c-2.7,0.6-5.6,2.7-7.3,8.3c-1,2.9,1.5-0.5,6.9-0.3
		c1.4,10.2,9.4,19.9,22.4,10c3-1,7,4,7,7s-2,5-7,5s-17,7-14,18c0.1,0.2,0.1,0.4,0.2,0.6c-1.9,2.5-5.2,8.9,3.6,14.8
		c2.5,1.9-0.2-1.8,1.9-7c4,2.4,9,1.9,13.3,0.7c7-2,9-10,7-17c1-2,6-5,7-3s5,12,1,17c-3.8,4.8,1.5,22.3,11.6,18.6
		c1.4,2.3,4.1,4.3,9.4,4.6c3.5,0.4-2.1-1.8-2.1-9c5.8-4.5,6.8-8.7,6.1-14.2c-1-7-4.5-12.5-10.5-10.5c0,0-3-12-1-14s17-16,21-15
		s9,8,25-1c7-5-13,5-15-11c0,0,6-4,7-8s-10-20-5-36s37-15,37-15L267,367C267,367,242,356,219,361z"/>
	<path class="st2" d="M264.6,368.2L250,417.5c-4.8,0-15.4,0.5-24.2,4c-6.1,2.4-11.3,6.3-13.2,12.4c-3.6,11.5,0.5,22.7,3.2,30.1
		c0.9,2.4,1.9,5.3,1.8,6c-0.6,2.4-4.1,5.4-6.2,6.8l-1,0.7l0.2,1.2c0.6,4.8,3.1,10.5,11.4,11.3c-3.2,1.3-6,2-8.5,2
		c-3.3,0-5.5-1.1-7.4-2.2c-1-0.6-2-1.1-3.1-1.3c-0.3-0.1-0.6-0.1-0.9-0.1c-6.1,0-21.8,15.5-22,15.6c-2.3,2.3-1,9.9,0.5,15.9l0.5,2.1
		l2-0.7c0.6-0.2,1.2-0.3,1.8-0.3c3.5,0,5.5,4.8,6.1,9.2c0.6,4.6,0,8.2-5.3,12.3l-0.8,0.6v1c0,2.9,0.8,5.1,1.6,6.7
		c-2.5-0.5-4.3-1.6-5.3-3.3l-0.8-1.4l-1.5,0.6c-0.7,0.3-1.4,0.4-2,0.4c-3.5,0-5.6-3.7-6.4-5.3c-2.1-4.3-2.1-9-0.9-10.6
		c5.3-6.6-0.7-19-0.8-19.1c-0.6-1.1-1.7-1.8-3-1.8c-2.7,0-6.5,2.7-7.5,4.8l-0.4,0.7l0.2,0.8c0.9,3.2,0.9,6.5-0.1,9.2
		c-0.7,1.9-2.2,4.4-5.5,5.4c-2.2,0.6-4.2,0.9-6,0.9c-2.2,0-4.1-0.5-5.7-1.4l-2-1.2l-0.9,2.2c-0.7,1.7-0.9,3.3-1,4.5
		c-1.6-1.4-2.5-3-2.8-4.5c-0.4-2.5,0.9-4.7,1.7-5.8l0.6-0.8c0,0-0.4-1.4-0.5-1.5c-0.9-3.4-0.3-6.6,1.9-9.5c3-3.9,7.9-6,10.1-6
		c8.1,0,9-4.9,9-7c0-3.8-4.1-9.1-8.2-9.1c-0.5,0-1,0.1-1.5,0.2l-0.3,0.1l-0.3,0.2c-3.3,2.5-6.3,3.7-9,3.7c-5.9,0-9.4-6.2-10.2-12.4
		l-0.2-1.7l-1.7-0.1c-0.3,0-0.5,0-0.7,0c-1.3,0-2.5,0.2-3.4,0.4c1.2-2.5,2.8-4,4.9-4.5l1.2-0.3l0.3-1.2c0.5-2,1.6-4.5,4-5.7
		c1.8-0.9,3.6-1.4,5.2-1.4c5.6,0,9.1,5.4,10.6,7.7c0.4,0.6,0.6,1,0.9,1.3c0.1,0.2,0.4,0.4,0.7,0.8c2.1,2.5,6.5,7.8,11.3,8.7
		c0.3,0.1,0.5,0.1,0.9,0.1c3.5,0,9.6-4.3,15.2-9.3c5.6-4.9,10.7-10.4,12.1-12.8c3.5-5.8,0.3-14.4,0.2-14.7l-0.6-1.6l-1.7,0.3
		c-1.1,0.2-2.2,0.3-3.4,0.3c-3.3,0-6.3-0.8-8.6-1.6c5.3-0.8,9.7-3.3,12.3-7.3c2.7-4.2,3.1-9.4,0.9-14.3c-3.1-7-2.4-32-1.8-41.1
		l0.1-1.8l-1.8-0.3c-0.9-0.1-1.7-0.5-2.4-1h0.1c2.1,0,4.4-1.3,8.3-4.5c1.3-1.1,2.4-2.3,3.5-3.4c3.9-4.1,8-8.4,25.7-12.2
		c3.8-0.8,8-1.3,12.4-1.3c0.5,0,1.1,0,1.6,0C247.5,362,260.2,366.5,264.6,368.2z"/>
	<path class="st3" d="M264.6,368.2L250,417.5c-4.8,0-15.4,0.5-24.2,4c-4-3.9-7.6-7.9-8.8-10.5c-3-7,5-6,13-9s-3-8,7-19
		c6-6.6,1.2-15.3-3.6-21.3C247.5,362,260.2,366.5,264.6,368.2z"/>
	<path class="st1" d="M104,58v387c0,2.2,3.4,4,7.5,4s7.5-1.8,7.5-4V58H104z"/>
	<path class="st2" d="M111.5,447c-3.6,0-5.5-1.5-5.5-2V60h11v385C117,445.5,115.1,447,111.5,447z"/>
	<path class="st3" d="M113.5,447c-1.6,0-2.5-1.5-2.5-2V60h5v385C116,445.5,115.1,447,113.5,447z"/>
	<path class="st1" d="M118,185v44c0,0,8-5,12,2s-2,16,1,15s10-16,13-15s17,3,16,22s-10,11-8,15s24,8.5,33.5-8.8
		C195,242,191,211,191,211s-53-13-56-21s1-15-4-21s-13-15-16-15s-6-8-14,0c-4,5,1,0,5,3.5s1,16.5,7,18.5S118,185,118,185z"/>
	<path class="st2" d="M183.8,258.3c-3.5,6.3-8.6,9.2-13.2,10.5c-2.6,0.7-5,0.9-6.8,0.9c-3.9,0-6.8-0.8-8.5-1.6
		c3.1-1.1,6.2-4.5,6.7-15c1-18.9-12.1-22.5-16.5-23.7c-0.4-0.1-0.7-0.2-0.9-0.3c-0.3-0.1-0.6-0.1-0.9-0.1c-2.7,0-4.9,3.2-8.7,9
		c-0.6,0.9-1.3,1.9-2,2.9c0.5-3.1,0.8-7.1-1.3-10.8c-1.8-3.1-4.5-4.7-7.8-4.7h-0.1c-1.4,0-3.7,0.4-4.9,0.7v-41
		c0.1-1.2,0.3-2.7,0-4.3c-0.4-2.6-1.7-5.4-5.4-6.6c-2.2-0.7-2.6-4.6-3.1-8.4c-0.5-3.9-0.9-7.6-3.3-9.7c-1.1-0.9-2.3-1.5-3.7-1.7
		c1.5-1.2,2.7-1.8,3.9-1.8c1.3,0,2.4,0.8,3.6,1.7s2.4,1.8,3.9,1.8c1,0.1,5.3,3.3,14.5,14.3c2.3,2.8,2.3,5.9,2.3,9.8
		c0,3.2-0.1,6.8,1.4,10.7c1.9,5.1,18.5,11.2,33.8,15.8c8.7,2.6,17.1,4.8,22.2,6.1C189.8,218.7,191.7,243.8,183.8,258.3z"/>
	<path class="st3" d="M183.8,258.3c-3.5,6.3-8.6,9.2-13.2,10.5c5.9-11.4,5.7-28.1,1.4-33.8c-4-5.3-4.9-19.6-5-28.5
		c8.7,2.6,17.1,4.8,22.2,6.1C189.8,218.7,191.7,243.8,183.8,258.3z"/>
	<path class="st3" d="M260,343c0,0-14,1-13,5s15,11,17,17s9-8,9-8L260,343z"/>
	<path class="st4" d="M260,343c0,0-14,1-13,5s15,11,17,17s9-8,9-8L260,343z"/>
	<path class="st2" d="M226,154c0,0,6-3,4-9s-6-7-8-7s-15,7-19-7s7-17,8-16s-7.5,11.5,1.5,15.5s10-4,19,1s5,21,0,26L226,154z"/>
	<g>
		<path class="st1" d="M231.6,158.8l-7.7-4.9l1.6-0.8c0.2-0.1,5.2-2.7,3.5-7.8c-1.9-5.7-5.6-6.3-7.1-6.3c-0.2,0-0.9,0.2-1.5,0.4
			c-2.9,0.9-8.2,2.5-12.6,0.1c-2.7-1.5-4.7-4.2-5.8-8.2c-3-10.5,2.1-14.9,4.5-16.2c1.8-1.1,4.2-1.7,5.2-0.7c0.7,0.7,0.3,1.8-0.5,3.6
			c-2,4.6-3.5,9.3,1.7,11.6c4,1.8,6.2,1,8.5,0.2c2.7-1,5.5-1.9,10.6,0.9c3.1,1.7,5.1,4.9,5.7,9c1,6.9-2,15.1-5.5,18.5L231.6,158.8z
			 M227.9,154l3.5,2.2c2.8-3.3,5.2-10.5,4.4-16.3c-0.5-3.6-2.1-6.1-4.7-7.6c-4.3-2.4-6.4-1.6-8.9-0.7c-2.5,0.9-5.3,1.9-10-0.2
			c-7.5-3.3-4.3-10.7-2.7-14.3c0.2-0.4,0.4-0.9,0.5-1.3c-0.9,0.1-2.6,0.8-4.1,2.3c-1.9,1.9-3.8,5.7-1.8,12.6c1,3.4,2.6,5.8,4.8,7
			c3.7,2,8.5,0.6,11.1-0.2c1-0.3,1.6-0.5,2.1-0.5c1.5,0,6.6,0.6,8.9,7.7C232.4,149.1,230.1,152.3,227.9,154z"/>
	</g>
	<path class="st1" d="M468.5,86.5c-4,2-11,8-12,12c0,0-3-4-5-8s-9-17-30-23c-10-2-10-14-11-12s-4,9-3,13c0,0-24,6-28,28s-1,43-8,48
		s-18,7-20-10c0-4-8,15-3,25s19,8,29,1c0,0-5,9-3,18c0,0-27-2-26,27c0,6,1-5,13-9c0,0-31,54,8,72c3,0-6-7-2-32s37-34,32-72
		c0,0,35-2,27-39c-1-2-6,16-18,10s-17-11-13-33s24-21,34-18s24,17,15,59s-35,54-53,92s-13,43-19,50s2,75,5,80s20,3,35,45s3,45-2,45
		s-11,0-19-23s-27-64-76-80c0,0-7-25-14-34s-18-28-14-47c0,0,7,5,11,4s-5-8-3-10s8,3,14-1c2-2-10-5-14-17s-6-20-10-21c0,0,8-4,13,3
		s4-10-5-14c0,0,4,1,3-6c0,0-21,12-26-27c0,0,9,6,20,1c0,0-16-2-14-16s4-19,13-17s-3,14,3,17s10-25,8-31s-3-7,1-11s14-18,14-24
		c0,0-9-3-14.5-0.5c0,0,0-8-3-10s-48-12-61-8c-3,1-1,4-4,6s-15,5-15,8s2,23,5,26c0,0,22-4,31,6s-5,26-15,30c0,0-19-10-21-16
		c0,0-11,6-7,15s12,11,12,11v6c0,0-30-3-39,35s0,53,5,59s7,18-3,25s-22-1-24,1s0,14,0,14s-26,0-30-7s-10-15-15-15v68c0,0,19-2,28-20
		c0,0,6,11,4,18s9-6,10-14s8,4,7,11s16-23,34-35c0,0,9,4,11,7s4-7,4-10s-8.5-7.5-4.5-10.5s12-12,12-12s1,22,16,35s25,30,26,33
		s-19,14-22,33s-9,22-17,19s0,7,8,6s12-5,13,2s4,22,19,28c0,0-10,23,6,31c7,3-6-2,4-25c0,0,20,4,23,12s-3,11,0,12s10-8,10-14
		c0,0,19,8,21,12s2,31-2,37s-10-11-22-7c-3.5,1.2-5.6,3.5-6.6,6.2c-1.9,0.6-4.3,1.9-5.9,4.3c-2,3-2.3,6.9-0.9,11.6
		c0.2,0.7,0.7,2.5,2.4,2.5l0,0c1.3,0,1.9-0.9,2.5-1.8c0.5-0.8,1.3-1.8,2.5-2.8c0.6,1.5,1.4,2.6,2,3.1c3,2,12,7,20-3c0,0,2,0,3,3
		s2,5-2,8c-3.9,2.9-13.6,13.6-3.5,22.5c0.1,1.9,0.7,4.4,2.4,6.5c2.3,2.8,5.9,4.2,10.8,4.2c0.2,0,0.3,0,0.4,0c1.3,0,2.1-0.4,2.5-1.3
		c0.6-1.3-0.2-2.4-0.9-3.2c-0.5-0.6-1.1-1.4-1.7-2.6c4.7-1.6,8.3-5.8,9.9-9.2c3-6-2-12-4-15l5-10c0,0,8,3,10,7s5,10,10,10
		c0.1,0,0.1,0,0.2,0c1.3,2.4,4.2,6.2,9.6,6.2c2.4,0,5.1-0.8,7.9-2.5c0.7-0.4,2-1.1,1.9-2.6s-1.4-2-2.4-2.4c-1.4-0.5-3.6-1.4-5.4-4.1
		c1.1-2,1.9-4.8,2.2-8.7c1-14-10-14-13-13s-11,0-13-5c0,0,3-25,2-31s15-4,3-36c-2-6-3,10-8,11s-28-16-30-20s7-17,0-43
		c0,0,20-3,31,14s31,35,34,51s16,23,24,22s28-3,29-29s-20-74-17-92s16-29,25-18s0,20,5,18s17-15,6-30c0,0,11-9,12-16c0-4-7,8-22,9
		s-15-8-29,2c0,0,0-4,7-8s37-19,38-43c0-6-10,11-18,15s-31,15-35,20c0,0,0-11,7-18s35-20,39-44c1-8-3,11-19,15s-30,6-35,16
		c0,0-1-9,9-26s47-86,51-131c0-22,17-29,19-31S472.5,84.5,468.5,86.5z"/>
	<path class="st2" d="M311,65c-6,4-12.2,26.8-12.2,26.8c-1.4-0.5-2.8-0.9-4.2-1.3c-5.9-1.8-12-3.2-17.9-4.3c-17.4-3.3-32.4-4-32.4-4
		c-0.1-8.4-2.9-26.6-2.9-26.6c11-5,9,5,9,5c4-1,6-1,5,4c-1,4.9-5.7,3.1-6,3c2,4,9,6,16,6s6-6,6-6s-8,0-7-5s8-4,8-4
		c-1-3.6,0.3-5.6,2.2-6.3c1.9-0.7,4.3-0.2,5.8,1.3c3,3,0,7,0,7s6-2,6,4s-7,4-7,4c-1,3,1,7,8,9c2.6,0.7,5.5,0.9,7.8,0.8
		c4-0.3,6.3-1.5,3.2-2.8c-0.3-0.1-0.7-0.3-1-0.4c-3.9-1.7-3-2.9-2-6.6c0.4-1.5,1.3-1.7,2.4-1.5c1.7,0.3,3.6,1.8,3.6,0.5c0-2-2-3,2-5
		S311,65,311,65z"/>
	<path class="st2" d="M407.8,249.5c-10.2,17.4-9.3,26.8-9.3,27.2l0.8,6.7l3-6.1c2.1-4.2,6-6.8,11.2-8.9c4.6-1.8,10.2-3.1,16.3-4.6
		c2-0.5,4.1-1,6.2-1.5c6.3-1.6,10.8-5.2,14-8.9c-5.8,12.8-18.6,21.8-27.6,28.2c-3.6,2.5-6.5,4.5-8.3,6.3c-7.5,7.5-7.6,18.9-7.6,19.4
		v5.7l3.6-4.5c2.1-2.7,11-7.6,19.3-11.9c4.6-2.4,8.9-4.5,11.9-6c1.2-0.6,2.2-1.1,3.1-1.5c4.2-2.1,8.6-7.2,12.2-11.3
		c0.9-1,1.8-2.1,2.7-3c-2.7,19.8-26.9,33.3-35.1,37.8c-0.7,0.4-1.2,0.7-1.7,0.9c-7.8,4.4-8,9.2-8,9.7v3.9l0.1-0.1l3.1-2.2
		c5.5-3.9,8.2-4.4,10-4.4c1.6,0,3.1,0.5,4.9,1c0.7,0.2,1.5,0.5,2.3,0.7c2.2,0.6,4.8,1.1,8.3,1.1c0.8,0,1.6,0,2.4-0.1
		c8.4-0.6,14.5-4.4,18.2-7.2c-2.6,4.3-7.5,8.9-9.6,10.6l-1.5,1.2l1.1,1.5c3.8,5.2,5,10.6,3.5,15.9c-1.4,4.9-4.7,8.5-7.1,10.2
		c0.7-3.5,1.3-9.8-4.3-16.5c-2.8-3.3-6.1-5.1-9.6-5.1c-8.1,0-15.5,8.9-18.4,21.4c-0.2,0.9-0.4,1.8-0.5,2.7c-1.6,9.4,2.9,26,7.7,43.6
		c4.8,17.7,9.8,35.9,9.3,48.7c-0.5,11.7-4.9,18.1-10.2,21.8c-5.6,3.8-12.3,4.7-16.6,5.2l-0.5,0.1c-0.4,0.1-0.8,0.1-1.3,0.1
		c-6.9,0-17.8-6.3-20.5-20.5c-2.1-10.9-11.6-22.6-20.8-33.9c-4.8-5.9-9.8-12-13.5-17.8c-8.5-13.1-21.9-15.1-29.1-15.1
		c-2.3,0-3.8,0.2-3.9,0.2l-2.2,0.3l0.6,2.2c4.6,17.2,2.1,28.5,0.6,35.2c-0.8,3.7-1.4,6.2-0.4,8.1c2.3,4.6,24.7,21.1,31.3,21.1
		c0.3,0,0.6,0,0.9-0.1c3.7-0.7,5.3-5.6,6.7-9.6c1.8,5.3,2.8,9.4,3.2,12.8c1.1,9-2.1,12.1-4.4,14.3c-1.5,1.5-3.3,3.2-2.8,5.9
		c0.8,4.7-1.2,23.3-2,30.3v0.1l-0.1,0.5l0.2,0.5c1.8,4.6,7.5,6.6,12.2,6.6c1.3,0,2.4-0.2,3.3-0.5c0.4-0.1,1.2-0.3,2.2-0.3
		c1.4,0,4.1,0.3,6,2.3c1.8,1.9,2.5,4.9,2.2,8.9c-0.9,12.1-7,12.1-12,12.1c-3.8,0-6.4-5.4-8.2-8.9c-2.3-4.6-10.2-7.7-11.1-8l-1.7-0.6
		l-6.3,12.6l0.7,1c0.2,0.3,0.4,0.7,0.7,1c2.1,3,5.3,7.6,3.2,12c-1.6,3.2-5.9,8.7-11.9,8.7c-2.6,0-5.4-1.1-8.1-3.4
		c-2.9-2.4-4.3-5-4.3-7.9c0.1-4.9,4.4-9.8,7.2-11.9c4.9-3.7,3.8-6.9,2.9-9.7l-0.2-0.5c-1.2-3.5-3.6-4.4-4.9-4.4h-1l-0.6,0.8
		c-2.8,3.5-6,5.3-9.5,5.3c-2.5,0-5.2-0.9-7.9-2.7c-1-0.8-3.4-6.5-2.6-12c0.6-3.8,2.7-6.3,6.1-7.4c1-0.3,2-0.5,3-0.5
		c4,0,7.3,2.8,10.1,5.3c2.2,1.9,4.1,3.6,6.3,3.6c1,0,2.5-0.4,3.6-2.2c4.3-6.5,4.6-34,2.1-39c-2.2-4.3-17.4-11-22-13l-2.8-1.2v3
		c0,4-3.8,9.3-6.1,11.3c0.8-2.1,1.7-5.4,0-10c-3.3-8.8-22.3-12.8-24.5-13.3l-1.6-0.3l-0.6,1.5c-4.9,11.2-4.5,18.4-3.5,22.7
		c-11-8.1-3-26.9-2.9-27.1l0.8-1.9L266,443c-10-4-15.8-12.6-17.8-26.4c-0.2-1.4-0.8-5.8-5.2-5.8c-1.3,0-2.8,0.4-4.4,0.8
		c-1.6,0.5-3.5,1-5.6,1.2c-0.3,0-0.6,0.1-0.9,0.1c-1.8,0-3.6-0.6-5-1.4c1,0.2,2,0.3,3,0.3c9.6,0,12.7-12.4,14.2-21.7
		c1.9-12,11.3-20.9,16.9-26.3c3.9-3.7,5.8-5.5,5.1-7.7c-1.2-3.7-11.6-20.9-26.6-33.9c-2.1-1.8-4-3.9-5.5-6
		c-9-12.1-9.8-27.4-9.8-27.5l-0.2-4.9l-0.4,0.5l-2.8,3.2c-0.1,0.1-7.9,8.9-11.7,11.7c-1.4,1.1-1.8,2.3-1.8,3.1
		c-0.2,2.4,1.6,4.4,3.5,6.3c0.8,0.8,2,2.2,2.1,2.7c0,1.8-0.7,5.5-1.5,7.6c-3.1-2.9-9.3-5.8-10.7-6.4l-1-0.4l-0.9,0.6
		c-10.8,7.2-20.9,20.3-27.6,28.9c-1.2,1.5-2.3,3-3.3,4.2c-0.5-3.9-2.3-8.2-4.2-10.4c-1-1.2-2.1-1.8-3.2-1.8c-1.1,0-3,0.6-3.5,4.4
		c-0.5,3.7-3.3,8.5-5.6,11.5c0.2-7.3-4.4-15.8-4.6-16.2l-1.8-3.4l-1.7,3.4c-6.6,13.3-19.2,17.4-24.2,18.5v-63
		c3.1,1.6,7.3,6.5,11.3,13.4c4.4,7.6,27.2,8,31.7,8h2.4l-0.4-2.3c-0.8-5-1.1-10.3-0.6-12c0.7,0.1,1.9,0.4,3.2,0.7
		c2.5,0.6,6,1.5,9.8,1.5c4.1,0,7.8-1.1,10.9-3.3c4.4-3.1,7.1-7.4,7.8-12.5c0.7-5.4-1-11.3-4.4-15.4c-9.4-11.3-10.9-30.5-4.6-57.3
		c7.4-31.1,29-33.5,35.5-33.5c0.8,0,1.3,0,1.3,0l2.2,0.2v-9.8l-1.5-0.4c-0.3-0.1-7.1-1.9-10.6-9.9c-2.4-5.4,1.9-9.5,4.5-11.4
		c4.4,6.1,17.8,13.4,20.8,14.9l0.8,0.4l0.8-0.3c7.4-3,16.6-11.7,18.7-20.8c1.1-4.8,0.1-9-3-12.4c-1.1-1.2-2.4-2.3-3.8-3.1
		c-1.5-0.9-3.1-1.7-4.8-2.3c-4.6-1.6-9.7-2-14-2c-4,0-7.3,0.4-9,0.6c-0.6-1.3-1.2-3.5-1.7-6.2c-0.1-0.5-0.2-1.1-0.3-1.7
		c-1.1-5.9-1.9-13.1-1.9-15.7c0.9-1.1,5.6-2.9,8.2-3.9c2.5-1,4.7-1.8,5.9-2.6c2.1-1.4,2.5-3.3,2.8-4.5c0.2-1.1,0.3-1.1,0.7-1.2
		c1.8-0.5,4.5-0.8,8-0.8c10.7,0,26.3,2.6,37.5,5c7.3,1.6,12.8,3,13.8,3.6c1.4,0.9,2.1,5.4,2.1,8.3v3.1l2.8-1.3
		c1.2-0.5,2.7-0.8,4.6-0.8c2.6,0,5.3,0.5,6.9,0.9c-1.3,5.7-9.2,17.1-13.2,21.1c-4.3,4.3-3.8,6.4-2.1,11.3c0.2,0.5,0.4,1.1,0.6,1.8
		c1.3,3.8-0.4,20.1-3.8,26.7c-0.9,1.7-1.5,1.9-1.5,1.9c-1-0.5-0.7-2.1,0.4-5.6c1-3,2-6.2,0.5-8.7c-0.8-1.4-2.3-2.4-4.3-2.8
		c-1.4-0.3-2.7-0.5-3.8-0.5c-8.2,0-10,7.9-11.6,19.1c-0.6,4.4,0.3,8.2,2.6,11.2c1.8,2.3,4.1,3.9,6.3,4.9c-0.7,0.1-1.3,0.1-2,0.1
		c-5.8,0-9.8-2.6-9.9-2.7l-3.6-2.4l0.6,4.4c3.2,25.2,13.1,30.5,20.9,30.5c2,0,3.8-0.4,5.2-0.8c-0.1,0.7-0.3,1-0.3,1
		s-0.1,0.1-0.3,0.1l-3,2.5c4.1,1.8,7.8,8.2,8.4,11.4c-2.3-2.6-5.2-4-8.7-4c-3.3,0-5.9,1.3-6,1.3l-4.8,2.4l5.2,1.3
		c2.4,0.6,4.5,7.2,7,14.9c0.5,1.5,1,3.1,1.6,4.8c2.7,8.1,8.6,12.3,12.2,14.8c0.3,0.2,0.6,0.5,1,0.7c-0.8,0.3-1.7,0.4-2.6,0.4
		c-1.4,0-2.8-0.3-4.1-0.6c-1.1-0.3-2.2-0.5-3.1-0.5c-1.2,0-2.1,0.4-2.8,1.1c-2.1,2.1,0,5.1,1.7,7.4c0.4,0.6,1,1.4,1.4,2.1
		c-2.8-0.1-7.1-2.7-8.5-3.8l-2.5-1.8l-0.1,0.3l-0.6,2.7c-4.6,22,9.8,42.8,14.4,48.6c2.2,2.9,4.5,7.5,6.5,12.5
		c4,9.8,7.1,20.7,7.1,20.8l0.3,1l1,0.3c35.4,11.6,60.6,38.1,74.7,78.8c7.8,22.5,14.1,24.3,20.9,24.3c4.6,0,7.2-2.3,8.6-4.2
		c4.8-6.8,3.2-21.4-4.7-43.5c-11.7-32.6-24.6-39.4-31.6-43c-1.8-0.9-3.1-1.6-3.6-2.4c-2.9-5-10.1-71.9-5.2-77.7
		c2.8-3.2,3.5-6.1,4.6-10.9c1.5-6.5,4.2-17.4,14.7-39.6c7.3-15.5,16-26.5,24.3-37.3c12-15.4,23.4-30,28.8-55.2
		c10.5-49.2-9.9-59.4-16.4-61.3c-3.6-1.1-7.6-1.7-11.3-1.7c-8,0-21.8,2.8-25.2,21.2c-4,22.2,0.8,28.5,14.1,35.1
		c1.9,1,3.8,1.4,5.7,1.4c5.9,0,9.7-4.8,12-8.4c1.2,8.8-0.3,16-4.5,21.4c-7.5,9.9-21.3,10.8-21.4,10.8l-2.2,0.1l0.3,2.1
		c2.9,21.7-7.2,33.5-16.9,45c-6.9,8.1-13.4,15.8-15.1,26.5c-2.5,15.3-0.1,24.2,1.5,28.8c-6.7-3.9-11.3-9.5-13.5-16.5
		c-6.9-21.6,9.6-50.7,9.7-51l2.6-4.6l-5,1.7c-5,1.7-8.2,4.4-10.3,6.8c0.4-6.1,2.3-11,5.7-14.4c5.8-6,14.6-6.5,17.1-6.5h1l2.7,0.2
		l-0.6-2.6c-1.8-8.1,2.8-16.5,2.8-16.6l-0.7-2l-2.7,0.9c-4.9,3.5-10.8,5.5-15.7,5.5c-3.4,0-8-1-10.4-5.8c-2.5-5-1.2-13.2,0.3-18.4
		c2.6,8.4,8,9.8,11.3,9.8c4.5,0,8.7-2.5,10.7-3.9c5.1-3.6,5.6-12.7,6.4-25.2c0.4-7.3,0.9-15.6,2.5-24c3.7-20.5,26.3-26.4,26.5-26.4
		l1.9-0.5l-0.5-1.9c-0.5-1.8,0.2-4.9,1.2-7.6c1.5,3.4,4.3,7.8,10.4,9c13.5,3.9,23.4,11.5,28.7,22c2.1,4.1,5.1,8.1,5.2,8.3l2.5,3.4
		l1-4.1c0.8-3,6.9-8.7,11-10.7c0.8-0.4,2-0.6,3.5-0.6c1.4,0,2.7,0.2,3.7,0.5c-4.9,3.2-18,11.6-18.1,31.3c-1.4,15.5-6.8,34-13.7,52.4
		C432.7,204,415.9,235.6,407.8,249.5z"/>
	<path class="st2" d="M302,511c0,0-12,1-8,14c1,4,1-5,12-6L302,511z"/>
	<path class="st2" d="M321.1,554c0,0-2.5,11.8,11.1,11.7c4.1,0.2-4.5-2.4-2.2-13.2L321.1,554z"/>
	<path class="st2" d="M364.7,540.9c0,0,3.7,11.4,15.5,4.5c3.7-1.9-5.1,0.2-8.6-10.3L364.7,540.9z"/>
	<path class="st1" d="M117,355c0,0-19,0-22-15c-1-5,5,5,16-1c0,0-21-3-16-22c0-3,7,5,11,4s-15-4-7-21c2-2,3,1,8,0s6,10,11,9L117,355
		z"/>
	<path class="st2" d="M114.5,352.8c-4.3-0.4-14-2.2-17-11.2c1.6,0.7,3.7,1.4,6.3,1.4c2.7,0,5.4-0.8,8.1-2.2c0.8-0.4,1.2-1.3,1-2.1
		c-0.2-0.8-0.8-1.5-1.7-1.6c-0.1,0-9-1.4-13.1-7.5c-1.9-2.9-2.4-6.4-1.6-10.5c0.3,0.2,0.7,0.4,1,0.6c2.3,1.5,5.1,3.4,7.7,3.4
		c0.4,0,0.8,0,1.2-0.1c1.6-0.4,2-1.4,2-2c0.2-1.6-1-2.4-2.5-3.3c-3.5-2.2-10-6.2-5.4-16.4c0.2,0,0.4,0.1,0.6,0.2
		c0.9,0.3,2.1,0.7,3.8,0.7c0.8,0,1.6-0.1,2.4-0.2c0.1,0,0.2,0,0.2,0c1,0,2.1,1.9,3.2,3.6c1.3,2.2,2.8,4.6,5.2,5.3l5,0.1L114.5,352.8
		z"/>
	<path class="st2" d="M119.7,351.7c0,0-4.7,1.7-6.2,1C112,352,118,319,118,319l5.4-1.7L119.7,351.7z"/>
	<path class="st5" d="M104,118.7c0,0,7,3.7,15,0v-5.2c0,0,15-3.5,24-0.5c4,0-5-18-14-20s-10-6.2-10-6.2s-6-3.5-15-0.7
		c0,0-16,2.8-17-14.2c-1-9-13-3-19-17s-2-14-6-19c0,0-13,18-16,49c-3,30.9-2,60,28,85C74,170,61,118.3,104,118.7z"/>
	<path class="st6" d="M71,164.6c-25.8-24.3-25.6-52.5-23-79.4c2.3-23.3,10.4-39.3,13.9-45.3c0.2,0.6,0.2,1.2,0.3,2
		c0.2,2.5,0.6,6.2,3.9,13.9c3.6,8.4,9.3,10.4,13.5,11.8c3.6,1.2,5.1,1.9,5.4,4.6c0.9,15,12.8,16.2,16.5,16.2c1.6,0,2.7-0.2,2.9-0.2
		c0.1,0,0.2,0,0.3-0.1c2.1-0.7,4.3-1,6.4-1c3.2,0,5.5,0.8,6.5,1.2c0.9,1.7,3.5,5,11.1,6.6c6.1,1.4,12.3,11.7,13.3,15.6
		c-2.3-0.5-5-0.8-8-0.8c-7.6,0-15,1.7-15.3,1.8c-0.9,0.2-1.5,1-1.5,1.9v3.8c-1.7,0.6-3.6,1-5.4,1c-3.9,0-6.6-1.4-6.6-1.4
		c-0.3-0.1-0.6-0.2-0.9-0.2h-0.4c-11.6,0-20.4,3.7-26.1,11C68.7,138.9,69.7,155.8,71,164.6z"/>
	<path class="st1" d="M100,189c0,0-10,2-6,9s0,8,7,9s10,3,12,3s4-4.3,4-11.6S103,188,100,189z"/>
	<path class="st2" d="M112.9,208c-0.5,0-1.4-0.3-2.4-0.7c-2.1-0.7-4.9-1.7-9.2-2.3c-2.3-0.3-2.8-0.6-3-0.7c-0.1-0.1-0.1-0.6-0.2-1
		c-0.3-1.3-0.7-3.4-2.4-6.3c-1-1.8-0.6-2.7-0.5-3c0.8-1.8,4.1-2.8,5.2-3.1c0.1,0,0.2,0,0.2-0.1c0,0,0.3-0.1,0.9-0.1
		c4.1,0,13.4,2.9,13.4,7.6C115,204.6,113.5,207.5,112.9,208z"/>
	<path class="st1" d="M99,172c0,0-10,2-6,9s0,8,7,9s10,3,12,3s4-4.3,4-11.6S102,171,99,172z"/>
	<path class="st2" d="M111.9,191c-0.5,0-1.4-0.3-2.4-0.7c-2.1-0.7-4.9-1.7-9.2-2.3c-2.3-0.3-2.8-0.6-3-0.7c-0.1-0.1-0.1-0.6-0.2-1
		c-0.3-1.3-0.7-3.4-2.4-6.3c-1-1.8-0.6-2.7-0.5-3c0.8-1.8,4.1-2.8,5.2-3.1c0.1,0,0.2,0,0.2-0.1c0,0,0.3-0.1,0.9-0.1
		c4.1,0,13.4,2.9,13.4,7.6C114,187.6,112.5,190.5,111.9,191z"/>
	<path class="st1" d="M100.4,206c0,0-9.2,1.8-5.5,8.2c3.7,6.3,0,7.2,6.4,8.2c6.4,0.9,9.2,2.7,11,2.7s3.7-3.8,3.7-10.5
		C116,207.8,103.1,205.1,100.4,206z"/>
	<path class="st2" d="M112.2,223.2c-0.5,0-1.3-0.3-2.2-0.6c-1.9-0.6-4.5-1.5-8.4-2.1c-2.1-0.3-2.6-0.5-2.7-0.6
		c0-0.1-0.1-0.5-0.2-0.9c-0.2-1.2-0.6-3.1-2.2-5.7c-0.9-1.6-0.6-2.4-0.5-2.7c0.7-1.6,3.7-2.6,4.7-2.8c0.1,0,0.1,0,0.2-0.1
		c0,0,0.2-0.1,0.9-0.1c3.8,0,12.3,2.6,12.3,6.8C114.2,220.1,112.8,222.8,112.2,223.2z"/>
	<path class="st1" d="M263,362l2.2-6.1c0.4-1,0.8-2,1.2-3c0.4-1,0.9-2,1.6-3c0.4,1.2,0.5,2.4,0.5,3.5c-0.1,1.2-0.3,2.3-0.7,3.3
		c-0.4,1.1-1,2.1-1.8,3C265.2,360.8,264.3,361.6,263,362z"/>
	<path class="st7" d="M116,91c0,0-3,2-5,2v20c0,0,3,2,4,1S116,91,116,91z"/>
	<path class="st3" d="M294.6,90.4c-5.9-1.8-12-3.2-17.9-4.3c1.5-3.6,3.1-8.5,1.2-9.1c-3-1-4-13-2-19c1-3,0-4.8-1.3-5.8
		c1.9-0.7,4.3-0.2,5.8,1.3c3,3,0,7,0,7s6-2,6,4s-7,4-7,4c-1,3,1,7,8,9c2.6,0.7,5.5,0.9,7.8,0.8C294.2,81.5,294.3,86.9,294.6,90.4z"
		/>
	<path class="st3" d="M297.5,75.1c-3.9-1.7-3-2.9-2-6.6c0.4-1.5,1.3-1.7,2.4-1.5C298.3,70.5,298.3,73.5,297.5,75.1z"/>
	<g>
		<path class="st1" d="M299.5,93l-1-0.3c-23.8-8.1-53.8-9.6-54.1-9.6h-0.9v-0.9c-0.1-8.3-2.8-26.3-2.9-26.4l-0.1-0.7l0.7-0.3
			c3.9-1.8,6.9-2,8.7-0.5c1.7,1.3,1.9,3.6,1.9,5.1c1.7-0.3,3.2-0.4,4.2,0.5c0.9,0.9,1.1,2.4,0.6,5c-0.3,1.7-1.2,3-2.4,3.6
			c-0.7,0.4-1.5,0.5-2.2,0.6c2.6,2.2,7.7,3.6,13.6,3.6c1.9,0,3.3-0.5,4.1-1.5c0.7-0.8,0.9-1.9,0.9-2.6c-1.6-0.1-4.7-0.6-6.2-2.5
			c-0.8-1-1.1-2.3-0.8-3.6c0.8-4,4.8-5,7.7-4.9c-0.5-3.6,1.4-5.2,2.3-5.7c2.3-1.4,5.7-0.9,7.7,1.1s1.8,4.5,1.1,6.4
			c1,0,2.3,0.1,3.3,0.9c1.2,0.9,1.9,2.4,1.9,4.5c0,1.9-0.6,3.3-1.8,4.3c-1.7,1.3-4,1.1-5.4,0.9c-0.1,0.8,0.1,1.5,0.5,2.3
			c1,2,3.5,3.6,7,4.6c4.5,1.3,9.3,0.8,10.9,0.1c-0.1-0.1-0.3-0.1-0.5-0.2c-4.8-1.9-4.9-3.3-3.9-6.9c0.1-0.4,0.2-0.8,0.3-1.3
			c0.3-1,0.7-1.7,1.5-2.1c1.3-0.7,2.8,0,4,0.4c0.1,0,0.2,0.1,0.4,0.1c0-0.1-0.1-0.3-0.1-0.4c-0.6-1.9-0.3-3.2,2.8-4.8
			c3.7-1.9,7.4,1,8.7,2.8l0.7,0.8l-0.9,0.6c-4.7,3.1-10.1,20-11.8,26.2L299.5,93z M245.4,81.1c5.2,0.3,31.3,2.2,52.8,9.3
			c1.2-4.3,6.2-20.7,11.4-25.6c-1.1-1-3.3-2.7-5.6-1.5c-2.2,1.1-2.1,1.4-1.8,2.4c0.1,0.5,0.3,1,0.3,1.7s-0.4,1.1-0.6,1.3
			c-0.7,0.5-1.6,0.1-2.6-0.3c-0.7-0.3-1.9-0.8-2.4-0.5c-0.2,0.1-0.4,0.5-0.4,0.8c-0.1,0.5-0.2,0.9-0.3,1.3c-0.8,2.8-0.8,3.1,2.7,4.5
			c2.1,0.8,2.2,1.9,2,2.6c-0.8,2.4-8.5,2.8-13.6,1.3s-7.3-3.8-8.2-5.6c-0.8-1.5-1-3.2-0.5-4.7l0.3-0.9l0.9,0.3
			c0.8,0.2,3.3,0.6,4.7-0.4c0.7-0.5,1-1.4,1-2.7c0-1.4-0.4-2.3-1-2.8c-1.3-1-3.6-0.2-3.6-0.2l-3,1l1.9-2.6c0.1-0.1,2.4-3.4,0.1-5.7
			c-1.3-1.3-3.7-1.7-5.2-0.8c-1.4,0.8-1.8,2.5-1.1,4.8l0.4,1.5l-1.5-0.2c-0.2,0-6.1-0.8-6.9,3.2c-0.2,0.8,0,1.5,0.4,2
			c1.2,1.5,4.5,1.8,5.6,1.8h0.8l0.1,0.8c0,0.1,0.5,2.9-1.3,5c-1.2,1.4-3.1,2.2-5.7,2.2c-6.3,0-14.5-1.7-16.9-6.6l-1.2-2.4l2.4,1
			c0,0,1.9,0.7,3.3,0c0.7-0.4,1.2-1.1,1.4-2.3c0.5-2.3,0.1-3,0-3.1c-0.5-0.5-2.8,0-3.7,0.3l-1.5,0.4l0.3-1.5c0.2-0.9,0.4-3.6-1-4.7
			c-1.1-0.9-3.1-0.7-5.9,0.5C243.1,59.5,245.1,73.4,245.4,81.1z"/>
	</g>
	<path class="st3" d="M299,101v2l-4,3c2-8.6-6.1-14.2-11.8-16.9c7.3,1.6,12.8,3,13.8,3.6C298.3,93.6,299,98.1,299,101z"/>
	<path class="st1" d="M301.2,102.4l-2.8,1.5c-0.8,0.5-1.6,1.4-2.4,1.9c-0.8,0.6-1.3,1.3-2,1.9c-0.7,0.7-1.4,1.4-2,2.2
		c0.1-1.1,0.6-2.1,1.1-3c0.6-0.9,1.3-1.7,2.1-2.5c0.8-0.7,1.6-1.4,2.6-1.9c0.9-0.6,1.9-1,2.9-1.3L301.2,102.4z"/>
	<path class="st3" d="M219.4,158.7c0,0,0.2,3.2,7,5.5c0,0,1.3,3.6,0.7,5.5s3.4,1.1,3.5-3c0.1-4.2-3-6.3-5.2-7
		C223.1,158.9,219.4,158.7,219.4,158.7z"/>
	<path class="st3" d="M247.3,121.2c-4.6-1.6-9.7-2-14-2c-4,0-7.3,0.4-9,0.6c-0.6-1.3-1.2-3.5-1.7-6.2c2.2,2,5.1,3.4,8.4,3.4
		C235.9,117,242.3,118.5,247.3,121.2z"/>
	<path class="st3" d="M241,98c0,0,15-8,24,4l-4-7c0,0,0-4-12-2C249,93,243,93,241,98z"/>
	<path class="st1" d="M265.3,99.9l-0.2-0.6c-1-3-2.2-6.7-7-7.6c-1-0.2-2.1-0.3-3.3-0.3c-1.7,0-3.3,0.2-4.8,0.3
		c-1.2,0.1-2.3,0.2-3.2,0.2c-0.7,0-1.3-0.1-1.6-0.3c-0.6-0.3-1.1-0.7-1.6-1.1c-0.8-0.6-1.5-1.2-2.5-1.2c-0.4,0-0.8,0.1-1.2,0.3
		c-0.1,0-0.1,0.1-0.2,0.2c0,0.1,0,0.2,0,0.2c0.1,0.1,2,3,3,4c0.1,0.1,0.1,0.1,0.1,0.1c0,0.1-0.4,0.3-0.7,0.5c-1,0.5-2.5,1.3-2.5,3.2
		c0,0.4,0,0.8,0,1.3c-0.1,3.4-0.3,9,4.3,10c0.7,0.1,1.5,0.2,2.3,0.2c1.5,0,2.8-0.2,4.2-0.5c1.2-0.2,2.4-0.4,3.5-0.4s2.1,0.2,3,0.7
		c1.8,0.9,3.1,1.9,4.2,2.8c1.1,0.8,1.8,1.4,2.5,1.4c0.3,0,0.5-0.1,0.7-0.3C265.3,112.1,266.3,102.9,265.3,99.9z M244.3,107.1
		c-1.9-1-3-3.2-3-6.1c0-4.7,4.8-6.7,4.8-6.7c0.2-0.1,0.3-0.2,0.6-0.2c-3.9,5-2.9,11.2-1.9,12.2c0.1,0.1,0.1,0.2,0.1,0.2
		C244.9,106.5,244.8,106.7,244.3,107.1z M253.9,106.5c-0.9,0.1-1.9,0.3-2.9,0.6c-0.7,0.2-1.4,0.3-2,0.5c-1.5-0.4-2.4-1.1-2.9-2.3
		c-1.5-3.6,2.1-10,3-11.6c1.3-0.2,2.9-0.2,4.8-0.3C254.3,94.3,256.3,99.6,253.9,106.5z M258.8,108.6c-0.9-0.7-1.7-1.3-2.4-1.7
		c0.2-2.9,0.7-9.6-0.1-12c-0.4-1.1,0-1.5,0.4-1.6h0.3c2.6,0,4.7,4.2,6,6.7c0.8,1.7,0.7,7.6,0.1,9.9
		C261.9,109.8,259.9,109.4,258.8,108.6z"/>
	<path class="st3" d="M234.3,317c-9-12.1-9.8-27.4-9.8-27.5l-0.2-4.9l-0.4,0.5l12.2-20l1,1C237,266,230.3,291.4,234.3,317z"/>
	<path class="st1" d="M224.2,283.8l3.4-5.2c1.7-3,3.5-6,5.1-9c1.7-3,3.3-6.1,4.8-9.2c1.6-3.1,3-6.3,4.7-9.4c-0.9,3.4-1.9,6.8-3.2,10
		c-0.6,1.7-1.3,3.3-2,4.9c-0.8,1.6-1.5,3.2-2.3,4.8c-1.6,3.1-3.4,6.2-5.3,9.1c-1.9,3-4,5.8-6.3,8.6L224.2,283.8z"/>
	<path class="st3" d="M306.4,332.2c-4-5-9.2-10.5-15.4-16.2c-20-18-18-57-15-55s10,7,10,7l0.1,0.4l-0.6,2.7
		c-4.6,22,9.8,42.8,14.4,48.6C302.2,322.6,304.4,327.3,306.4,332.2z"/>
	<path class="st3" d="M307.5,388c0,0,6.2-1,5.5,17s0.7,27-2.8,27s-9-19-11.7-28S304.1,386,307.5,388z"/>
	<path class="st3" d="M354.4,474.9c-1.5,1.5-3.3,3.2-2.8,5.9c0.8,4.7-1.2,23.3-2,30.3c-2.9-6.8-6.5-39.1-6.5-39.1
		c7.3,1.3,12.9-6.2,15.8-11.4C359.9,469.6,356.7,472.6,354.4,474.9z"/>
	<path class="st3" d="M198,479c0,0-10,9-14,10s-13,12-11,15s23-18,28-20S207,472,198,479z"/>
	<path class="st3" d="M132,331c0,0-3,8-8,10s2,9,8,2S136,327,132,331z"/>
	<path class="st3" d="M123.9,225.3L123.9,225.3c-1.5,0-3.8,0.4-4.9,0.7v-41c0.1-1.2,0.3-2.7,0-4.3c1,1.4,2,3.2,2,5.3
		C121,190,124.3,212.9,123.9,225.3z"/>
	<path class="st3" d="M119,298v12h4C123,310,120,305,119,298z"/>
	<path class="st1" d="M115,309c0.6,0.1,1.2,0.2,1.8,0.2c0.6,0.1,1.2,0.2,1.7,0.2c1.2,0.1,2.3,0.2,3.5,0.3c1.2,0.1,2.3,0.1,3.5,0.2
		c1.2,0,2.3,0,3.5,0.1c-1.1,0.4-2.3,0.8-3.5,0.9c-1.2,0.2-2.4,0.3-3.6,0.3s-2.4-0.1-3.6-0.4c-1.2-0.2-2.4-0.6-3.5-1.2L115,309z"/>
	<path class="st3" d="M183.9,527c0,0-6,9-0.9,10s7.7-2,6-9C187.4,521,183.9,527,183.9,527z"/>
	<path class="st3" d="M151.3,519.8c0,0-8.7,6.4-4.2,9.1c4.5,2.7,7.9,0.7,8.7-6.4C156.6,515.3,151.3,519.8,151.3,519.8z"/>
	<path class="st3" d="M141.6,485.5c0,0-10.8,0.5-8.6,5.2s6.2,5,10.8-0.5C148.5,484.7,141.6,485.5,141.6,485.5z"/>
	<path class="st3" d="M365.8,525.3c0,0-0.6,10.8,4.3,9s5.6-5.6,0.6-10.8C365.7,518.3,365.8,525.3,365.8,525.3z"/>
	<path class="st3" d="M333,544.6c0,0-4.2,10,1,10s7.2-3.4,4.2-10S333,544.6,333,544.6z"/>
	<path class="st3" d="M313.7,517c0,0-10.8-0.7-9.1,4.2s5.6,5.7,10.8,0.7C320.6,517,313.7,517,313.7,517z"/>
	<path class="st3" d="M413.5,268.5C404,282,400.1,294.4,395,288c-8-10,8-52,19-65c6-7,19.6-30.9,30.8-51.2
		c-12.1,32.1-28.9,63.8-37,77.7c-10.2,17.4-9.3,26.8-9.3,27.2l0.8,6.7l3-6.1C404.4,273.2,408.3,270.6,413.5,268.5z"/>
	<path class="st3" d="M429.4,296.8c-10.3,9.5-22.8,21-23.4,19.2c-0.3-0.8,0-2.3,0.5-3.9v1.1l3.6-4.5
		C412.2,306.1,421.1,301.1,429.4,296.8z"/>
	<path class="st3" d="M434.9,322.5c-10,5.5-21.9,12.1-21.9,9.5c0-1.4,0.7-3,1.6-4.7l3.1-2.2c5.5-3.9,8.2-4.4,10-4.4
		c1.6,0,3.1,0.5,4.9,1C433.3,322,434.1,322.2,434.9,322.5z"/>
	<path class="st3" d="M413.2,485.1c-0.8,0.5-1.5,0.8-2.2,0.9C409.4,486.4,410.5,486,413.2,485.1z"/>
	<path class="st3" d="M434.5,450.4c-0.5,11.7-4.9,18.1-10.2,21.8c6.6-12.8,10.5-35.1-0.3-69.3c-8.3-26.1-8.3-40.1-6-47.5
		c-0.2,0.9-0.4,1.8-0.5,2.7c-1.6,9.4,2.9,26,7.7,43.6C430,419.4,435,437.7,434.5,450.4z"/>
</g>
</svg>
