<?xml version="1.0" encoding="UTF-8" standalone="no"?>
<!-- Created with Inkscape (http://www.inkscape.org/) -->

<svg
   xmlns:dc="http://purl.org/dc/elements/1.1/"
   xmlns:cc="http://creativecommons.org/ns#"
   xmlns:rdf="http://www.w3.org/1999/02/22-rdf-syntax-ns#"
   xmlns:svg="http://www.w3.org/2000/svg"
   xmlns="http://www.w3.org/2000/svg"
   xmlns:sodipodi="http://sodipodi.sourceforge.net/DTD/sodipodi-0.dtd"
   xmlns:inkscape="http://www.inkscape.org/namespaces/inkscape"
   width="800"
   height="900"
   id="svg2"
   version="1.1"
   inkscape:version="0.48.0 r9654"
   sodipodi:docname="New document 1">
  <defs
     id="defs4" />
  <sodipodi:namedview
     id="base"
     pagecolor="#ffffff"
     bordercolor="#666666"
     borderopacity="1.0"
     inkscape:pageopacity="0.0"
     inkscape:pageshadow="2"
     inkscape:zoom="0.24748737"
     inkscape:cx="510.34613"
     inkscape:cy="309.94031"
     inkscape:document-units="px"
     inkscape:current-layer="layer1"
     showgrid="false"
     fit-margin-top="0"
     fit-margin-left="0"
     fit-margin-right="0"
     fit-margin-bottom="0"
     inkscape:window-width="1280"
     inkscape:window-height="748"
     inkscape:window-x="-8"
     inkscape:window-y="-8"
     inkscape:window-maximized="1" />
  <metadata
     id="metadata7">
    <rdf:RDF>
      <cc:Work
         rdf:about="">
        <dc:format>image/svg+xml</dc:format>
        <dc:type
           rdf:resource="http://purl.org/dc/dcmitype/StillImage" />
        <dc:title></dc:title>
      </cc:Work>
    </rdf:RDF>
  </metadata>
  <g
     inkscape:label="Layer 1"
     inkscape:groupmode="layer"
     id="layer1"
     transform="translate(31.000015,-139.5051)">
    <rect
       ry="0"
       y="139.5051"
       x="-31.000015"
       height="900"
       width="800"
       id="rect3843"
       style="fill:#f7f7d9;fill-opacity:1;fill-rule:nonzero;stroke:none" />
    <g
       id="g3892">
      <g
         style="fill:#e9ef34;fill-opacity:1"
         id="g3831">
        <path
           sodipodi:nodetypes="ccccccccccccccccccccccccc"
           inkscape:connector-curvature="0"
           id="path4788"
           d="m 259.46875,388.875 c -7.83626,4.62389 -5.93519,15.09529 -5.27771,22.71236 2.07542,10.47968 -3.73304,19.94318 -9.50354,28.10014 -3.73874,0.13336 -8.38773,0.38982 -10.04911,-3.47321 -3.54427,-4.10952 1.82065,-12.56293 -3.04464,-15.62054 -4.6255,1.87001 -3.75075,8.58198 -4.5,12.71875 -0.17824,9.03323 6.46827,16.47152 4.84375,25.65625 0.17622,5.46067 0.65946,12.15352 -2.4375,16.71875 -5.20593,3.32713 -8.31775,-1.43547 -11.0625,-4.66846 -2.36581,-2.46276 -2.85187,-7.90433 -5.4375,-10.08154 -4.13759,3.31752 -1.55439,9.51619 -1.34375,14.03125 0.98302,5.67076 5.0269,9.73058 8.75,13.5625 2.44502,5.77141 2.88968,12.96261 0.84375,18.875 -1.62867,2.62247 -10.13789,5.76594 -3.84375,7.125 2.63032,0.92865 4.87384,2.59689 6.5,4.875 2.04866,-2.57639 4.06646,-5.57347 7.65625,-3.59375 3.05713,-0.40117 7.39081,4.44061 7.79849,-0.74507 2.34107,-3.42779 0.79698,-7.00334 -3.04849,-8.34868 -3.86738,-1.07392 -1.61138,-7.75282 -2.39656,-10.59846 2.51256,-31.92609 17.47085,-59.15156 38.54502,-73.32563 10.4733,-7.4927 22.19201,-16.13339 31.25779,-25.57591 1.52902,-4.2306 -4.41546,-3.91109 -6.09375,-1.3125 -8.83219,6.71844 -18.12254,13.17478 -28.65625,16.75 -6.99653,-3.33032 -10.21761,-11.50429 -7.59375,-18.8125 0.99097,-1.95093 1.39063,-5.44491 -1.90625,-4.96875 z"
           style="fill:#e9ef34;fill-opacity:1;stroke:#000000;stroke-width:3;stroke-miterlimit:4;stroke-opacity:1;stroke-dasharray:none;display:inline" />
        <path
           sodipodi:nodetypes="ccccccccccccccccccccccccccccc"
           inkscape:connector-curvature="0"
           id="path4792"
           d="m 367.42411,390.28125 c -3.69217,15.27244 -1.08536,32.11452 -7.3125,46.6875 -11.24212,18.21243 -25.29629,35.98296 -42.03562,49.16998 -13.71687,11.51277 -28.69643,21.61804 -46.37063,26.14252 -5.82631,1.64169 -12.49195,-1.35478 -17.8125,1.90625 -2.99412,4.91499 7.83542,3.35668 4.25,8.375 -1.33088,4.60301 5.82692,2.50785 6.75,4.9375 -1.71772,5.78838 2.19514,5.43095 6.39497,4.41269 4.69144,-0.95632 0.0564,-7.62968 4.84339,-8.9948 3.33609,-2.89188 7.98038,-4.23632 12.04289,-5.91789 9.59455,2.04353 19.01198,5.35833 28.9995,4.03077 5.60911,0.32498 10.86509,-0.54994 15.73276,-3.01559 8.07815,-3.32549 -4.24391,-2.25067 -7.34465,-2.55304 -8.43192,-0.83893 -16.78338,-2.69664 -24.57511,-5.43089 5.95609,-5.37082 12.83746,-9.8657 19.9375,-13.84375 9.27352,0.9279 18.60253,0.43331 27.25,-3.25 7.19561,-3.0448 14.793,-6.18807 19.625,-12.53125 -3.64441,-5.13444 -9.31674,1.60301 -14.64184,3.43811 -7.10967,2.90925 -17.43729,4.72202 -21.63941,1.74939 7.51292,-8.02892 15.03646,-16.95838 24.9375,-22.34375 8.14001,-3.42926 18.5734,-2.97292 24.8125,-9.71875 2.89396,-4.85112 5.496,-9.59263 -1.71875,-4.53125 -4.73947,2.12329 -11.28838,2.08766 -15.75,1.90625 3.70843,-7.14821 9.25847,-14.67409 17.4375,-16.625 6.47885,-0.43252 13.07959,-1.29764 18.15625,-5.875 3.83196,-2.55465 6.37242,-5.83634 -0.375,-4.46875 -5.58905,0.26595 -12.16114,1.31751 -17.125,-1.4375 -12.68851,-6.57325 -7.58028,-20.47127 -10.15625,-30.96875 -0.1447,-2.40837 -3.63194,-4.10005 -4.3125,-1.25 z"
           style="fill:#e9ef34;fill-opacity:1;stroke:#000000;stroke-width:3;stroke-miterlimit:4;stroke-opacity:1;stroke-dasharray:none;display:inline" />
      </g>
      <g
         id="g3853">
        <path
           sodipodi:nodetypes="ccccccccccccccccccccccccc"
           style="fill:#e9ef34;fill-opacity:1;fill-rule:evenodd;stroke:#000000;stroke-width:3;stroke-miterlimit:4;stroke-opacity:1;stroke-dasharray:none;display:inline"
           d="m 510.91977,815.72967 c 0.98432,9.30964 -0.15505,22.24866 3.2386,31.80922 0.73067,4.38638 6.02301,8.61994 1.6269,15.37683 l -17.4751,27.67517 -14.85321,24.45658 -11.74223,23.60563 c -2.07048,8.78394 -6.58658,14.11235 -4.39157,26.72333 1.58435,6.75126 -1.18637,6.02932 -4.35511,6.36857 -6.44985,-0.43879 -5.55362,4.2546 -5.90451,7.20125 -0.97221,7.76483 -0.89474,12.96146 -4.91868,19.26975 -2.43806,5.7391 -27.23042,3.9364 -24.74375,-0.98551 3.35256,-5.17559 5.15111,-7.43115 6.73546,-13.51517 2.55656,-0.87613 8.60386,-1.13409 3.60166,-8.45449 l 7.19724,-17.04221 9.64897,-19.59216 14.04511,-30.93869 c 4.50852,-11.93249 8.40184,-24.98223 11.09053,-37.59881 2.43807,-9.68113 2.46844,-13.26284 0.878,-22.71967 -2.07197,-9.90543 -4.16063,-19.02862 -10.14113,-28.26118 -5.45944,-7.79143 -7.66051,-27.19331 -17.20922,-27.15544 18.83332,-3.49968 40.72646,15.2057 57.67204,23.76579 l 0,0.0106 z m -6.72331,35.47366 c 0.39801,8.18115 -0.72459,10.29932 -4.49789,19.89354 3.56066,-2.74342 9.36339,-12.33201 4.49789,-19.89354 z"
           id="path3142"
           inkscape:connector-curvature="0" />
        <path
           style="fill:#e9ef34;fill-opacity:1;fill-rule:evenodd;stroke:#000000;stroke-width:3;stroke-linecap:butt;stroke-linejoin:miter;stroke-miterlimit:4;stroke-opacity:1;stroke-dasharray:none"
           d="m 474.15159,791.32644 c -3.01584,0.2632 -16.48271,13.00757 -26.18316,13.35707 -7.65187,0.27567 -12.57767,-0.23782 -21.94707,4.52226 -5.70677,2.89928 2.78589,4.11801 -5.29954,13.48679 21.18569,-2.76138 44.65366,-11.0211 57.33222,-24.98064 4.03896,-5.28703 4.36858,-6.38548 -3.90245,-6.38548 z"
           id="path3144"
           sodipodi:nodetypes="cssccc"
           inkscape:connector-curvature="0" />
        <path
           sodipodi:nodetypes="ccccccccccccccccccccc"
           style="fill:#e9ef34;fill-opacity:1;fill-rule:evenodd;stroke:#000000;stroke-width:3;stroke-miterlimit:4;stroke-opacity:1;stroke-dasharray:none;display:inline"
           d="m 240.12036,805.60401 c -12.40758,3.19201 -28.15097,5.44337 -40.88966,6.02372 -20.86411,1.91073 -35.24185,4.76347 -46.22457,11.29045 -11.95639,12.38668 -11.64805,27.53922 -8.83477,41.16371 1.9459,7.19988 4.46145,15.80859 13.49216,19.97628 5.68578,0.71073 4.34448,0.52568 2.55199,6.44427 -1.3413,8.4447 3.28115,12.20586 6.94204,13.66797 1.09828,0.55934 2.61732,0.6855 3.47103,2.82613 0.56509,9.69793 0.48762,16.30763 -3.16722,23.73738 -1.90487,2.09296 -3.38899,0.10518 -5.14499,-0.45419 l -8.95478,-7.92322 c -0.47393,-3.94759 -0.10624,-5.11392 0.56356,-7.91759 -1.86234,0.0589 -2.65225,1.93734 -2.84213,5.72231 -7.28079,-7.91902 -13.90229,-19.4015 -18.76782,-29.50459 -2.57022,-8.78394 -0.44507,-16.2866 -1.6679,-25.40839 -0.60457,-6.19337 -3.18542,-12.33764 -3.31153,-19.99309 l -0.39646,-25.92288 c 1.8274,-8.89329 6.33747,-12.31521 17.80627,-18.3936 13.42227,-7.20688 33.81697,-13.7016 46.75317,-21.69632 1.06156,-0.8186 7.22836,-3.05706 13.41622,-11.53716 l 35.20539,37.89881 z"
           id="path3140"
           inkscape:connector-curvature="0" />
        <path
           sodipodi:nodetypes="cccccccsccccccsccccccccccccccccccccccccccccccccccccccccccccccccccccccccccc"
           style="fill:#e9ef34;fill-opacity:1;fill-rule:evenodd;stroke:#000000;stroke-width:3;stroke-miterlimit:4;stroke-opacity:1;stroke-dasharray:none;display:inline"
           d="m 202.98799,767.13267 c -1.12714,-6.70362 -5.81491,-19.55993 -8.04638,-29.26349 13.92715,-3.67594 23.0199,-134.946 112.91976,-79.81253 8.7816,10.69468 20.90966,14.42357 36.16542,16.89922 21.96085,2.02565 42.94949,5.16299 66.01316,6.40083 19.64128,0 39.41317,0.20876 59.17746,0.32382 20.73953,0.67289 36.06671,5.30037 51.80858,14.08992 7.80941,4.61488 14.6679,9.15542 21.26055,16.47586 6.58658,7.31622 11.49311,14.90019 14.54941,24.47198 1.70285,7.20688 -0.57572,11.69698 -2.89528,17.78097 -1.29424,2.60183 -3.06847,4.27704 -5.04932,5.27935 0.70027,-8.93676 -2.39249,-12.84088 -6.20074,-14.64367 3.19759,6.20458 3.95103,10.77739 2.92416,15.77076 0,7.3162 1.68005,16.35107 3.13988,23.78225 1.95196,10.47038 5.01435,19.24309 10.26569,28.47565 7.68334,13.50814 13.49824,20.56783 22.64897,29.12608 5.00222,4.05273 9.3163,5.90316 8.4611,12.7694 -1.4598,7.20685 -1.96413,12.87451 -2.08869,21.7678 -1.09219,12.37548 -0.59394,24.5589 -0.71853,36.94558 l 0.60612,31.51484 c 0.11858,8.55264 -0.33269,17.35341 1.85626,26.021 2.07198,6.75269 -1.13928,7.05267 -4.43105,9.64329 -5.36527,5.8541 -2.92568,17.51181 -10.00443,25.28222 -2.01274,2.5023 -12.2359,4.7593 -19.65948,4.9177 -1.04359,-1.8995 0.54077,-5.5093 1.1818,-6.7905 -2.65831,-0.4262 -4.03002,3.3405 -5.12222,6.6321 -3.45278,-0.4164 -5.2331,-1.671 -3.15656,-4.1131 l 9.55327,-10.58525 c 2.18439,0.42196 7.0028,0.0658 8.3441,-1.8883 -1.37776,-0.005 -3.75051,0.1752 -4.43863,-1.1551 1.56612,-2.20791 3.87357,-5.2527 4.40826,-7.99612 2.07045,-7.09053 2.57479,-15.17354 2.69328,-22.49397 l -0.49824,-47.63042 c -0.97221,-12.04744 -1.47654,-23.85937 -4.28373,-35.57178 -3.53635,-11.03389 -8.15879,-21.2197 -14.62688,-29.88729 -7.44029,-8.44469 -16.82192,-15.58569 -24.88045,-21.10474 -25.84199,-15.02635 -54.93321,-16.45712 -78.21871,-51.88502 22.2971,26.61991 22.43423,23.20709 -22.57147,31.67884 -14.0284,2.69998 -24.53716,2.78689 -36.98574,4.13965 -9.39377,0.4486 -19.01236,0.14296 -28.28614,0.0322 -16.47252,0 -31.79361,1.70887 -48.26615,0.80608 -2.55656,-0.73457 -5.67818,-1.4355 -8.34867,-1.85746 1.46589,-6.05596 1.64968,-13.99038 0.3919,-15.92915 -0.70636,3.98126 -3.03807,10.60216 -4.07103,15.51982 l -9.44543,40.24691 c -4.02396,13.96377 -1.40662,27.12846 -2.26185,40.19364 -1.91552,10.91897 -5.0964,12.60117 -6.60329,19.24311 -0.85523,7.98909 -0.71244,17.44593 -0.10193,26.90276 0.2386,12.49603 3.41331,22.61592 5.97592,34.21479 0.48611,2.135 -0.035,4.22093 2.64617,6.81156 -3.23402,2.08033 -5.34551,1.17193 -8.0342,2.30042 l -2.43809,20.95052 c -2.43959,4.7257 -7.48282,5.2626 -13.09568,7.0639 -5.1921,1.6262 -9.6019,2.8149 -14.24106,2.3005 0.34331,-0.9098 2.50947,-3.9322 1.79097,-5.9747 -1.82741,2.3818 -4.18347,5.9691 -5.21491,4.8518 -1.62687,-0.1374 -2.48058,-0.3673 -4.1242,-1.8729 5.98049,-5.8765 10.05152,-8.94236 14.32459,-18.06555 4.06954,-0.38271 9.2495,-6.29708 8.22412,-6.44567 -2.72973,1.64294 -5.46551,3.8116 -6.93748,3.36861 l 2.11301,-5.80502 c 2.55656,-13.84882 6.18251,-24.88271 5.8149,-41.21138 0.36152,-16.32447 -6.46811,-18.0165 -5.00223,-46.95615 l -0.64712,-15.39364 c -0.72912,-12.27173 -0.919,-24.54346 -1.52512,-36.81939 -0.72912,-7.65548 -0.6228,-11.36334 -8.43675,-32.98819 -1.74541,-3.69105 -4.75309,-7.3863 -4.94906,-11.86097 -1.92313,3.18778 -0.3266,7.67788 0.55748,11.1222 -2.43958,-0.0211 -4.68171,0.4486 -6.94204,-1.4453 -13.0729,-6.64754 -33.54357,-20.22859 -36.98571,-38.69926 l 0.0172,0.028 z m 371.08003,87.87172 c 4.56928,1.70884 5.81491,6.3195 7.48282,16.31884 0.6456,-4.04711 0.98432,-21.01643 -7.48282,-16.31884 z"
           id="path3156"
           inkscape:connector-curvature="0" />
        <path
           sodipodi:nodetypes="ccccccccccccccccccccccccccccccccccccccscscsccccccccccccccccccccccc"
           style="fill:#e9ef34;fill-opacity:1;fill-rule:evenodd;stroke:#000000;stroke-width:3;stroke-miterlimit:4;stroke-opacity:1;stroke-dasharray:none;display:inline"
           d="m 192.45427,742.55538 c 0.0867,-13.87128 -5.00774,-25.59595 11.24768,-48.34993 -12.15844,14.03388 -24.91691,9.92787 -27.28965,15.07963 -3.43926,-28.11468 4.88838,-24.82933 25.47287,-52.39386 -15.51096,9.92784 -27.14078,10.14793 -31.75717,17.9618 7.81008,-32.38029 2.70182,-40.16401 27.77512,-52.72824 -5.1693,0.36168 -26.24391,7.0534 -33.20419,14.77475 -6.8319,-4.9226 0.16166,-15.01031 4.02851,-20.1459 5.36374,-6.41904 9.412,-9.36992 16.36619,-15.67258 7.5117,-8.2849 15.19048,-18.1693 20.75019,-29.06583 8.91829,1.64156 11.77865,-0.97007 11.51737,-4.54617 -4.76523,2.63967 -7.17444,2.96348 -9.93302,1.70324 -4.23055,-2.03689 -8.46716,-4.07375 -12.7053,-6.11624 -9.75988,-3.82843 -20.40534,-7.30502 -32.85392,-7.19007 -7.56028,-0.67287 -16.97685,1.221 -22.2221,0.54814 -3.84015,0 -4.62248,-4.08078 -5.73288,-7.92462 4.09535,3.25366 14.78181,4.30504 16.84621,0.31261 -7.72587,0.84389 -11.54172,0.29578 -16.38291,-2.93548 -1.9459,-0.67286 -5.29236,-0.0491 -5.29236,-2.41397 -1.21675,-3.60414 -0.51648,-4.69336 0.45572,-8.5218 3.05024,-5.4041 4.9202,-8.65636 17.1971,-9.76804 20.61955,-0.22013 34.2545,-4.23917 49.0181,-8.40546 10.61052,-2.5906 16.74595,-8.24547 33.5861,-7.34268 4.95052,-3.11519 19.52537,-1.1546 28.11278,2.65072 -0.10365,2.18595 -1.28531,6.803 0.37699,7.8496 -0.26185,0.45438 -0.90513,1.03539 -2.25131,1.83573 4.81235,1.57709 6.87672,-1.12286 14.03293,-7.11854 0.86132,-0.34487 3.25229,-2.21211 3.86295,-2.66211 5.12069,-3.03779 8.96693,-6.97558 21.16637,-8.44331 6.46203,-1.12287 13.50433,-1.28689 24.36396,2.08595 -10.12289,8.4447 -12.75844,16.71839 -27.40206,22.23324 -4.23052,2.23874 -9.19172,3.806 -14.64511,4.91206 -4.96576,0.77661 -9.01855,1.55465 -9.65959,3.89851 7.47673,-1.4565 9.44086,-1.56025 10.61509,0.35608 3.34644,13.78852 7.33394,29.15412 8.88338,43.34218 1.8274,14.52169 1.58435,28.85274 4.02241,43.26507 1.58439,6.75129 8.5266,28.3329 15.9745,35.19914 0.64695,17.07552 8.92117,29.5256 -8.37804,51.32363 -2.61025,-22.70756 -10.33893,-34.22089 -14.20196,-32.45111 -3.86303,1.76975 2.29797,30.33818 -16.58903,45.50342 1.95672,-22.76546 -7.87041,-35.82689 -13.39144,-33.60748 -5.52104,2.21935 -1.52509,28.00324 -27.82144,48.92145 -0.24175,-36.1959 2.21368,-32.25592 -4.57814,-26.28257 -9.31467,8.19223 -21.12299,22.2622 -29.3809,30.32904 z M 293.08714,519.205 c -0.0821,-0.0716 2.55199,-2.06492 4.3384,-2.17427 10.02266,-4.53357 9.93911,-8.44469 0.45116,-6.08959 -4.80018,0.63502 -21.8135,12.65022 -25.57466,13.72263 -3.06847,2.59621 4.09383,1.94435 5.3516,1.41867 -1.56615,0.73877 -3.09733,1.69201 -5.10855,1.94434 -5.36375,1.46214 -4.39157,-3.48919 -1.9459,-4.5013 7.92639,-1.68643 16.83406,-9.90683 26.59544,-14.07311 7.44029,-2.36071 11.4688,-0.10941 9.14923,3.48779 -1.9459,3.37284 -6.46203,4.39198 -10.00443,5.28914 -2.23756,1.07942 -2.80113,1.64857 -3.06695,2.97892 -0.60612,-0.73877 -0.89626,-0.65046 -0.17917,-2.00322 l -0.006,0 z m -146.86589,14.53289 c 2.15401,-2.21771 2.10087,-3.65881 0.13668,-3.25786 -3.31762,2.02565 -6.38457,3.91955 -9.29354,6.00128 -2.04008,-0.60842 -1.70891,2.28359 -1.00864,3.11067 -1.8502,0.36589 -2.12363,-1.32052 -1.02535,-4.02047 4.147,-1.57145 7.07268,-4.05133 10.73358,-6.07839 5.73135,-1.00654 3.16874,3.37424 0.45722,4.24477 z"
           id="path3136"
           inkscape:connector-curvature="0" />
        <path
           sodipodi:type="arc"
           style="fill:#e9ef34;fill-opacity:1;stroke:#000000;stroke-width:1.08912158;stroke-miterlimit:4;stroke-opacity:1;stroke-dasharray:none"
           id="path5098"
           sodipodi:cx="26.195337"
           sodipodi:cy="57.273537"
           sodipodi:rx="1.1976256"
           sodipodi:ry="1.2484339"
           d="m 27.392963,57.273537 a 1.1976256,1.2484339 0 1 1 -2.395251,0 1.1976256,1.2484339 0 1 1 2.395251,0 z"
           transform="matrix(2.8712469,0,0,2.6425258,138.05655,373.65061)" />
        <path
           sodipodi:nodetypes="cszsc"
           id="path5096"
           d="m 201.0074,531.5179 c 3.30791,-10.53733 3.01323,-10.71113 10.91496,-10.70606 7.90176,0.005 23.99995,0.18894 23.99995,0.18894 0,0 -11.72991,3.38513 -17.4318,6.71287 -5.70189,3.32773 -4.33093,4.03386 -17.48311,3.80423 z"
           style="fill:none;stroke:#000000;stroke-width:3;stroke-linecap:butt;stroke-linejoin:miter;stroke-miterlimit:4;stroke-opacity:1;stroke-dasharray:none;display:inline"
           inkscape:connector-curvature="0" />
      </g>
    </g>
    <path
       sodipodi:type="arc"
       style="fill:#f0121c;fill-opacity:1;fill-rule:nonzero;stroke:none"
       id="path3862"
       sodipodi:cx="400"
       sodipodi:cy="135"
       sodipodi:rx="67.85714"
       sodipodi:ry="67.85714"
       d="m 467.85714,135 a 67.85714,67.85714 0 1 1 -135.71428,0 67.85714,67.85714 0 1 1 135.71428,0 z"
       transform="matrix(0.99473689,0,0,0.99473689,-28.894771,138.4299)" />
  </g>
</svg>
