<?xml version="1.0" encoding="UTF-8" standalone="no"?>
<svg
   xmlns:dc="http://purl.org/dc/elements/1.1/"
   xmlns:cc="http://creativecommons.org/ns#"
   xmlns:rdf="http://www.w3.org/1999/02/22-rdf-syntax-ns#"
   xmlns:svg="http://www.w3.org/2000/svg"
   xmlns="http://www.w3.org/2000/svg"
   xmlns:xlink="http://www.w3.org/1999/xlink"
   xmlns:sodipodi="http://sodipodi.sourceforge.net/DTD/sodipodi-0.dtd"
   xmlns:inkscape="http://www.inkscape.org/namespaces/inkscape"
   version="1.0"
   width="900"
   height="600"
   id="Flag_of_the_Holy_Roman_Empire_between_1200_and_1350"
   inkscape:version="0.48.2 r9819"
   sodipodi:docname="Merchant Ensign of Poland (1815–1830).svg">
  <metadata
     id="metadata10">
    <rdf:RDF>
      <cc:Work
         rdf:about="">
        <dc:format>image/svg+xml</dc:format>
        <dc:type
           rdf:resource="http://purl.org/dc/dcmitype/StillImage" />
      </cc:Work>
    </rdf:RDF>
  </metadata>
  <defs
     id="defs8" />
  <sodipodi:namedview
     pagecolor="#ffffff"
     bordercolor="#666666"
     borderopacity="1"
     objecttolerance="10"
     gridtolerance="10"
     guidetolerance="10"
     inkscape:pageopacity="0"
     inkscape:pageshadow="2"
     inkscape:window-width="939"
     inkscape:window-height="760"
     id="namedview6"
     showgrid="false"
     inkscape:zoom="0.65"
     inkscape:cx="450"
     inkscape:cy="300"
     inkscape:window-x="162"
     inkscape:window-y="108"
     inkscape:window-maximized="0"
     inkscape:current-layer="Flag_of_the_Holy_Roman_Empire_between_1200_and_1350">
    <inkscape:grid
       type="xygrid"
       id="grid2826" />
  </sodipodi:namedview>
  <rect
     style="fill:#ffffff"
     y="-1.5184754e-06"
     x="2.3352045e-06"
     width="900"
     height="600"
     id="rect4" />
  <polygon
     style="fill:#0039a6;fill-opacity:1;fill-rule:evenodd"
     id="polygon2558"
     points="599.998,0 599.998,33.3343 55.389,399.999 0,399.999 0.0023622,365.203 0.0023622,365.203 544.178,0 "
     class="fil1"
     transform="matrix(1.500005,0,0,1.5000037,6.8023739e-7,2.6864876e-5)" />
  <polygon
     style="fill:#0039a6;fill-opacity:1;fill-rule:evenodd"
     id="polygon2556"
     points="0,0 0,33.3343 544.609,399.999 599.998,399.999 599.995,365.203 599.995,365.203 55.8201,0 "
     class="fil1"
     transform="matrix(1.500005,0,0,1.5000037,6.8023739e-7,2.6864876e-5)" />
  <rect
     y="0"
     x="0"
     height="260"
     width="400"
     id="rect2952"
     style="fill:#d4293d;fill-opacity:1;fill-rule:nonzero;" />
  <g
     transform="matrix(1.0947375,0,0,1.1190456,71.181698,58.3258)"
     id="g4707">
    <g
       id="g7749"
       transform="matrix(0.995148,0,0,0.995148,-11.985,-349.683)">
      <path
         style="fill:#fffafe;fill-opacity:1;fill-rule:evenodd;stroke:#000000;stroke-width:1.00487995px;stroke-linecap:butt;stroke-linejoin:miter;stroke-opacity:1"
         d="m 115,485.5 c -5.15445,4.18735 -7.64937,1.99181 -9.5,-1.75 -2.7112,3.1531 -4.67349,7.38965 4.25,8.25 -5.56917,-0.36165 -19.246868,2.37671 -19.5,9.5 -0.38126,10.7289 19.5,13.04457 23.75,5.25 -10.29835,0.66559 -14.735301,-1.64318 -14.591129,-4.23677 0.158256,-2.84696 3.586409,-6.28712 15.341129,-6.01323 l 8.5,-3 -0.5,-10.75"
         id="path7737"
         sodipodi:nodetypes="cccscsc"
         inkscape:connector-curvature="0" />
      <path
         style="fill:#f6d155;fill-opacity:1;fill-rule:evenodd;stroke:#000000;stroke-width:1.00487995px;stroke-linecap:butt;stroke-linejoin:miter;stroke-opacity:1;display:inline"
         d="m 86.090251,468.84521 c -1.221707,2.66339 -5.635285,4.64934 -9.369165,9.72272 -1.646156,2.02603 -3.724572,1.4585 -5.833631,0.70711 -3.703124,-0.90393 -5.875671,-5.29324 -9.002711,-8.32636 -4.875264,-4.72883 -9.360657,-4.41902 -11.149832,2.13917 -0.496878,2.91064 -0.895286,5.75973 2.298097,6.36396 0.331762,-4.94485 2.73325,-5.41191 4.419417,-3.0052 1.093878,4.64118 4.305703,1.77526 6.894291,3.88909 -1.998188,2.75773 -5.515951,1.24809 -8.847969,0.76832 -4.200367,-0.60481 -7.575233,0.25983 -7.76904,5.41886 0.145856,2.88794 0.509614,4.23914 3.005204,6.18718 0.416604,-3.14906 0.803437,-6.85849 4.419417,-4.06586 2.234657,2.23015 5.895257,-0.64278 8.485281,-1.41421 -3.869939,5.21796 -9.98243,8.65973 -8.028767,12.76359 0.787414,1.65404 3.415467,4.47629 7.498437,4.7373 -3.17393,-2.41595 -3.205796,-6.42429 -1.414213,-6.0104 7.380134,1.70492 4.231963,-6.4847 6.894291,-8.48529 2.153101,-3.85223 4.946063,-4.70096 11.667262,-2.2981 2.760995,1.461 3.377385,6.32043 6.717514,4.77297 0.556977,1.07014 -0.272559,3.18016 -1.59099,5.65686 4.418702,-2.72287 10.880019,-10.4551 -0.176777,-13.25825 -5.267989,-0.52797 -4.18974,-1.69056 -5.126524,-2.65165 7.721663,-2.71058 10.02514,-6.65859 15.733126,-8.13173 l -0.353553,-4.5962 -9.369165,-0.88388 z"
         id="path6723"
         sodipodi:nodetypes="cccsccccsccccscsccccccccc"
         inkscape:connector-curvature="0" />
      <path
         style="fill:#fffafe;fill-opacity:1;fill-rule:evenodd;stroke:#000000;stroke-width:1.00487995px;stroke-linecap:butt;stroke-linejoin:miter;stroke-opacity:1"
         d="m 120.25,486.75 c -2.30163,9.26179 -6.61846,12.47796 -12.25,11.75 3.46171,10.93691 13.62408,9.65364 18,-3 l 4,-10.75 -4.25,-8.75"
         id="path7739"
         sodipodi:nodetypes="ccc"
         inkscape:connector-curvature="0" />
      <path
         style="fill:#fffafe;fill-opacity:1;fill-rule:evenodd;stroke:#000000;stroke-width:1.00487995px;stroke-linecap:butt;stroke-linejoin:miter;stroke-opacity:1;display:inline"
         d="m 96.873629,472.91108 c -10.546351,1.20991 -16.901567,-4.76498 -20.85965,-14.84925 5.899387,3.59076 10.005714,2.9977 13.081476,0 l 16.617005,3.53554 -8.838831,11.31371 z"
         id="path6721"
         sodipodi:nodetypes="ccccc"
         inkscape:connector-curvature="0" />
      <path
         style="fill:#fffafe;fill-opacity:1;fill-rule:evenodd;stroke:#000000;stroke-width:1.00487995px;stroke-linecap:butt;stroke-linejoin:miter;stroke-opacity:1"
         d="m 121.75,457.75 c -0.89648,11.21968 1.64569,25.38678 -12.5,25.25 3.66731,6.0795 13.58269,7.6705 17.25,-0.25 l 4,-8"
         id="path7735"
         sodipodi:nodetypes="cccc"
         inkscape:connector-curvature="0" />
      <path
         style="fill:#fffafe;fill-opacity:1;fill-rule:evenodd;stroke:#000000;stroke-width:1.00487995px;stroke-linecap:butt;stroke-linejoin:miter;stroke-opacity:1;display:inline"
         d="m 100.05561,450.63721 c -5.114157,5.21309 -10.918559,5.59448 -16.970563,4.24264 5.329922,6.38669 11.051993,9.63618 17.324113,8.48528 -10.363637,10.39042 -6.087412,18.19733 -0.707104,25.8094 1.375324,-7.69922 3.507854,-14.64122 9.545944,-17.67767 l 16.26345,-25.45584 -25.45584,4.59619 z"
         id="path6717"
         sodipodi:nodetypes="ccccccc"
         inkscape:connector-curvature="0" />
      <path
         style="fill:#fffafe;fill-opacity:1;fill-rule:evenodd;stroke:#000000;stroke-width:1.00487995px;stroke-linecap:butt;stroke-linejoin:miter;stroke-opacity:1;display:inline"
         d="m 107.12668,451.34432 c -5.99558,4.18742 -9.431351,9.01479 -11.667264,14.14213 5.067594,2.27119 10.135194,1.46204 15.202794,0 l 9.19239,-12.37436 -2.82843,-4.5962 -9.89949,2.82843 z"
         id="path6719"
         sodipodi:nodetypes="cccccc"
         inkscape:connector-curvature="0" />
      <path
         style="color:#000000;fill:#fffafe;fill-opacity:1;fill-rule:evenodd;stroke:#1c1117;stroke-width:1.00487995px;stroke-linecap:butt;stroke-linejoin:miter;stroke-miterlimit:4;stroke-opacity:1;stroke-dasharray:none;stroke-dashoffset:0;marker:none;visibility:visible;display:inline;overflow:visible"
         d="M 89.802561,353.41003 C 71.477672,340.41678 66.702719,324.60319 66.114484,309.21586 c -0.302119,-7.90297 -4.571612,-4.93848 -6.363961,-1.06066 -7.420073,16.05362 -1.175671,38.21823 3.535534,42.07285 -4.949747,-4.36915 -9.899495,-10.48374 -14.849242,-17.67767 0.257346,6.95322 3.633111,13.90643 9.545941,20.85965 -4.666405,-5.32837 -9.648443,-9.70984 -13.435029,-17.67767 -2.357021,-3.53552 -5.303302,-2.35704 -5.656854,3.53553 -0.818281,8.48528 2.168826,16.26346 10.606602,24.39519 -4.577046,-3.41768 -7.891039,-6.83537 -14.142136,-10.25305 0.67452,2.82843 1.700001,5.65685 4.242641,8.48528 C 23.568168,351.093 29.404549,371.63043 41.7193,378.86587 38.312867,378.18018 34.906433,377.76949 31.5,377.75 c 2.865989,2.16959 4.31946,3.99168 10.25,7.5 -6.955311,-1.76077 -16.604694,-1.75632 -8.25,5 5.199381,6.08385 14.98623,8.34481 24,11.25 -11.805281,2.03465 -17.271178,0.17196 -23,3 5.34146,3.32521 15.69377,3.13956 23.5,4 -6.437399,2.08374 -14.626721,2.73691 -21.75,2.5 -4.493584,-0.14945 -8.915306,2.76506 -1.75,6.25 9.927236,4.82824 19,4.46133 27.75,3.75 -4.931293,3.67143 -10.480754,5.40602 -16.5,5.75 -3.374217,0.19283 -10.401858,2.92264 1.75,4 5.561287,0.49305 10.644731,-1.10527 19.75,-4 -10.240896,8.6423 -34.61806,8.76708 -22,13.5 9.530556,3.57483 25.916667,-0.95183 37.75,-8.25 -2.384432,4.457 -5.310182,9.07639 -14.25,15.5 3.487328,3.16345 13.924973,-5.96982 26,-18 C 90,443.08442 80.585721,445.61725 77,449 c -3.390538,3.19861 -1.507581,3.44554 7.25,2.75 8.952293,-0.711 20.25,-11.77009 24.5,-22 0.69333,2.08333 1.04663,4.16667 3,6.25 1.5,-3.52026 3,-4.83127 4.5,-9 l -5.25,-26 -14.75,-4.25 -2,-23.25 9.5,-8"
         id="path4040"
         sodipodi:nodetypes="csscccccccccccccccsscsscscccssccc"
         inkscape:connector-curvature="0" />
      <path
         style="fill:#fffafe;fill-opacity:1;fill-rule:evenodd;stroke:#1c1117;stroke-width:1.00487995px;stroke-linecap:butt;stroke-linejoin:miter;stroke-opacity:1;display:inline"
         d="m 112.07642,398.31131 c -1.10802,2.95472 -18.843139,-2.90535 -11.3137,-9.19239 3.80185,-3.17452 1.29941,-5.96537 -1.414217,-7.77817 -6.146421,-4.10603 -3.846229,-7.34568 2.121317,-10.25305 5.09081,-2.48023 5.38963,-5.54954 4.28736,-8.34422 -2.98226,-7.56116 -12.368747,-7.23652 -17.722386,-13.57609 1.673036,8.50423 -2.685836,14.46717 5.303301,18.03122 -8.071366,-1.87297 -13.254055,-2.01273 -16.617011,-1.06066 0.241196,3.73678 0.719549,7.43968 7.424623,10.25305 -3.827288,0.13255 -7.654575,0.26252 -11.481863,1.31504 1.842873,6.25059 6.982429,7.55615 12.542523,8.2309 -3.306319,0.81428 -6.612637,2.44436 -9.918956,6.07528 3.777723,2.56677 7.555447,3.26091 11.33317,2.05645 -3.959408,1.85743 -7.69286,3.94082 -9.792492,7.65802 3.971271,1.35156 7.942541,1.93674 11.913812,0.47371 -7.269538,3.79984 -6.020541,7.59967 -6.077555,11.39951 5.261007,0.41979 9.888413,-1.69481 14.209283,-5.03555 -1.783021,5.14764 -1.741822,9.07914 -0.70206,12.34493 3.459468,-4.61523 6.907951,-2.67437 13.076431,-10.22361 l 4.24264,-1.41422"
         id="path3164"
         sodipodi:nodetypes="cssssccccccccccccccc"
         inkscape:connector-curvature="0" />
      <path
         style="fill:none;stroke:#000000;stroke-width:1.00487995px;stroke-linecap:butt;stroke-linejoin:miter;stroke-opacity:1;display:inline"
         d="m 62.5,349.75 c 6.89032,5.88159 14.122901,11.67761 26.25,16.25"
         id="path4042"
         sodipodi:nodetypes="cc"
         inkscape:connector-curvature="0" />
      <path
         style="fill:none;stroke:#000000;stroke-width:1.00487995px;stroke-linecap:butt;stroke-linejoin:miter;stroke-opacity:1;display:inline"
         d="m 48.5,362.5 c 8.416667,7.66401 16.833333,15.47467 25.25,17.25"
         id="path4044"
         sodipodi:nodetypes="cc"
         inkscape:connector-curvature="0" />
      <path
         style="fill:none;stroke:#000000;stroke-width:1.00487995px;stroke-linecap:butt;stroke-linejoin:miter;stroke-opacity:1;display:inline"
         d="m 38.75,361.5 c 11.416667,9.64304 22.833333,15.01101 34.25,18"
         id="path4046"
         sodipodi:nodetypes="cc"
         inkscape:connector-curvature="0" />
      <path
         style="fill:none;stroke:#000000;stroke-width:1.00487995px;stroke-linecap:butt;stroke-linejoin:miter;stroke-opacity:1;display:inline"
         d="m 41.25,378.5 c 9.47751,6.43916 21.274868,10.55846 34.75,13"
         id="path4048"
         sodipodi:nodetypes="cc"
         inkscape:connector-curvature="0" />
      <path
         style="fill:none;stroke:#000000;stroke-width:1.00487995px;stroke-linecap:butt;stroke-linejoin:miter;stroke-opacity:1;display:inline"
         d="m 41,385 c 11.333333,5.46556 22.666667,6.33482 34,7.25"
         id="path4050"
         sodipodi:nodetypes="cc"
         inkscape:connector-curvature="0" />
      <path
         style="fill:none;stroke:#000000;stroke-width:1.00487995px;stroke-linecap:butt;stroke-linejoin:miter;stroke-opacity:1;display:inline"
         d="m 56.25,401.25 c 7.083333,1.0934 14.166667,0.64191 21.25,-0.25"
         id="path4052"
         sodipodi:nodetypes="cc"
         inkscape:connector-curvature="0" />
      <path
         style="fill:none;stroke:#000000;stroke-width:1.00487995px;stroke-linecap:butt;stroke-linejoin:miter;stroke-opacity:1;display:inline"
         d="m 57.25,408.5 c 8.423797,-0.36723 15.730411,-1.33108 20.5,-6.25"
         id="path4054"
         sodipodi:nodetypes="cc"
         inkscape:connector-curvature="0" />
      <path
         style="fill:none;stroke:#000000;stroke-width:1.00487995px;stroke-linecap:butt;stroke-linejoin:miter;stroke-opacity:1;display:inline"
         d="M 62.25,421.25 C 68.793039,420.11814 75.792537,417.45398 83,413"
         id="path4056"
         sodipodi:nodetypes="cc"
         inkscape:connector-curvature="0" />
      <path
         style="fill:none;stroke:#000000;stroke-width:1.00487995px;stroke-linecap:butt;stroke-linejoin:miter;stroke-opacity:1;display:inline"
         d="m 66.5,426.75 c 9.074301,-2.90863 12.593312,-8.1981 17.25,-13"
         id="path4058"
         sodipodi:nodetypes="cc"
         inkscape:connector-curvature="0" />
      <path
         style="fill:none;stroke:#000000;stroke-width:1.00487995px;stroke-linecap:butt;stroke-linejoin:miter;stroke-opacity:1;display:inline"
         d="m 82.75,432.25 c 6.747251,-4 10.739005,-8 13.5,-12"
         id="path4933"
         sodipodi:nodetypes="cc"
         inkscape:connector-curvature="0" />
      <path
         style="fill:none;stroke:#000000;stroke-width:1.00487995px;stroke-linecap:butt;stroke-linejoin:miter;stroke-opacity:1;display:inline"
         d="m 94.5,429.75 c 4.784796,-4.25 4.822038,-8.5 6.5,-12.75"
         id="path4935"
         sodipodi:nodetypes="cc"
         inkscape:connector-curvature="0" />
      <path
         style="fill:none;stroke:#000000;stroke-width:0.50243801;stroke-linecap:butt;stroke-linejoin:miter;stroke-miterlimit:4;stroke-opacity:1;stroke-dasharray:none;display:inline"
         d="m 60.5,324.75 c 4.591573,17.79011 13.660918,30.2069 28.25,36"
         id="path4939"
         sodipodi:nodetypes="cc"
         inkscape:connector-curvature="0" />
      <path
         style="color:#000000;fill:none;stroke:#000000;stroke-width:0.50243801;stroke-linecap:butt;stroke-linejoin:miter;stroke-miterlimit:4;stroke-opacity:1;stroke-dasharray:none;stroke-dashoffset:0;marker:none;visibility:visible;display:inline;overflow:visible"
         d="m 43.5,344.75 c 9.310156,15.07245 21.876224,26.65643 40.5,31.75"
         id="path5814"
         sodipodi:nodetypes="cc"
         inkscape:connector-curvature="0" />
      <path
         style="color:#000000;fill:none;stroke:#000000;stroke-width:0.50243801;stroke-linecap:butt;stroke-linejoin:miter;stroke-miterlimit:4;stroke-opacity:1;stroke-dasharray:none;stroke-dashoffset:0;marker:none;visibility:visible;display:inline;overflow:visible"
         d="m 38.5,368.5 c 10.050056,8.20474 23.874444,14.7919 43.25,19"
         id="path5816"
         sodipodi:nodetypes="cc"
         inkscape:connector-curvature="0" />
      <path
         style="color:#000000;fill:none;stroke:#000000;stroke-width:0.50243801;stroke-linecap:butt;stroke-linejoin:miter;stroke-miterlimit:4;stroke-opacity:1;stroke-dasharray:none;stroke-dashoffset:0;marker:none;visibility:visible;display:inline;overflow:visible"
         d="m 44,391.5 c 11.062574,4.06238 23.704106,5.49316 36.75,6.25"
         id="path5818"
         sodipodi:nodetypes="cc"
         inkscape:connector-curvature="0" />
      <path
         style="color:#000000;fill:none;stroke:#000000;stroke-width:0.50243801;stroke-linecap:butt;stroke-linejoin:miter;stroke-miterlimit:4;stroke-opacity:1;stroke-dasharray:none;stroke-dashoffset:0;marker:none;visibility:visible;display:inline;overflow:visible"
         d="m 50.75,415.5 c 11.445107,-1.88425 22.949312,-3.35481 33.75,-9.75"
         id="path5820"
         sodipodi:nodetypes="cc"
         inkscape:connector-curvature="0" />
      <path
         style="color:#000000;fill:none;stroke:#000000;stroke-width:0.50243801;stroke-linecap:butt;stroke-linejoin:miter;stroke-miterlimit:4;stroke-opacity:1;stroke-dasharray:none;stroke-dashoffset:0;marker:none;visibility:visible;display:inline;overflow:visible"
         d="m 66.75,432.75 c 12.261373,-3.19568 22.23673,-11.72541 30.5,-24.25"
         id="path5822"
         sodipodi:nodetypes="cc"
         inkscape:connector-curvature="0" />
      <path
         style="color:#000000;fill:none;stroke:#000000;stroke-width:0.50243801;stroke-linecap:butt;stroke-linejoin:miter;stroke-miterlimit:4;stroke-opacity:1;stroke-dasharray:none;stroke-dashoffset:0;marker:none;visibility:visible;display:inline;overflow:visible"
         d="m 88.75,444.5 c 19.67819,-14.97484 17.85931,-23.27818 19,-32.5"
         id="path5824"
         sodipodi:nodetypes="cc"
         inkscape:connector-curvature="0" />
      <path
         style="color:#000000;fill:none;stroke:#000000;stroke-width:0.50243801;stroke-linecap:butt;stroke-linejoin:miter;stroke-miterlimit:4;stroke-opacity:1;stroke-dasharray:none;stroke-dashoffset:0;marker:none;visibility:visible;display:inline;overflow:visible"
         d="m 92.25,356.75 c 3.578689,2.75774 7.574389,4.82046 9.25,10.75"
         id="path5826"
         sodipodi:nodetypes="cc"
         inkscape:connector-curvature="0" />
      <path
         style="color:#000000;fill:none;stroke:#000000;stroke-width:0.50243801;stroke-linecap:butt;stroke-linejoin:miter;stroke-miterlimit:4;stroke-opacity:1;stroke-dasharray:none;stroke-dashoffset:0;marker:none;visibility:visible;display:inline;overflow:visible"
         d="m 81.5,368 c 3.925268,3.38226 8.158156,5.53404 12.75,6.25"
         id="path5828"
         sodipodi:nodetypes="cc"
         inkscape:connector-curvature="0" />
      <path
         style="color:#000000;fill:none;stroke:#000000;stroke-width:0.50243801;stroke-linecap:butt;stroke-linejoin:miter;stroke-miterlimit:4;stroke-opacity:1;stroke-dasharray:none;stroke-dashoffset:0;marker:none;visibility:visible;display:inline;overflow:visible"
         d="m 79,380.25 c 4.939897,1.76364 10.39855,1.97102 16,1.75"
         id="path5830"
         sodipodi:nodetypes="cc"
         inkscape:connector-curvature="0" />
      <path
         style="color:#000000;fill:none;stroke:#000000;stroke-width:0.50243801;stroke-linecap:butt;stroke-linejoin:miter;stroke-miterlimit:4;stroke-opacity:1;stroke-dasharray:none;stroke-dashoffset:0;marker:none;visibility:visible;display:inline;overflow:visible"
         d="m 82.75,391.25 c 5.112914,0.35486 9.629508,-0.28415 12.75,-3.25"
         id="path5832"
         sodipodi:nodetypes="cc"
         inkscape:connector-curvature="0" />
      <path
         style="color:#000000;fill:none;stroke:#000000;stroke-width:0.50243801;stroke-linecap:butt;stroke-linejoin:miter;stroke-miterlimit:4;stroke-opacity:1;stroke-dasharray:none;stroke-dashoffset:0;marker:none;visibility:visible;display:inline;overflow:visible"
         d="m 86.75,398.75 c 3.166667,-0.43882 6.333333,-0.99904 9.5,-2.75"
         id="path5834"
         sodipodi:nodetypes="cc"
         inkscape:connector-curvature="0" />
      <path
         style="color:#000000;fill:none;stroke:#000000;stroke-width:0.50243801;stroke-linecap:butt;stroke-linejoin:miter;stroke-miterlimit:4;stroke-opacity:1;stroke-dasharray:none;stroke-dashoffset:0;marker:none;visibility:visible;display:inline;overflow:visible"
         d="m 91.25,407.25 c 3.333333,-3.25398 6.666667,-5.30729 10,-7.25"
         id="path5836"
         sodipodi:nodetypes="cc"
         inkscape:connector-curvature="0" />
      <path
         style="color:#000000;fill:none;stroke:#000000;stroke-width:0.50243801;stroke-linecap:butt;stroke-linejoin:miter;stroke-miterlimit:4;stroke-opacity:1;stroke-dasharray:none;stroke-dashoffset:0;marker:none;visibility:visible;display:inline;overflow:visible"
         d="m 98.75,413 c 4.55326,-2.6787 4.79121,-7.08352 6.25,-11"
         id="path5838"
         sodipodi:nodetypes="cc"
         inkscape:connector-curvature="0" />
      <path
         style="fill:none;stroke:#000000;stroke-width:1.00487995px;stroke-linecap:butt;stroke-linejoin:miter;stroke-opacity:1;display:inline"
         d="m 57.5,352.75 c 6.076741,8.21941 12.769008,11.51461 19.5,14.5"
         id="path6713"
         sodipodi:nodetypes="cc"
         inkscape:connector-curvature="0" />
      <path
         style="fill:#fffafe;fill-opacity:1;fill-rule:evenodd;stroke:#000000;stroke-width:1.00487995px;stroke-linecap:butt;stroke-linejoin:miter;stroke-opacity:1;display:inline"
         d="m 118.44039,436.84863 c -11.7242,-2.84242 -11.9239,9.51604 -19.798994,13.43503 8.437044,3.64235 16.545404,3.99799 24.041634,-1.76777 -10.01764,6.06919 -16.23729,14.10902 -14.84925,25.8094 10.15613,-5.35351 8.60313,-11.41254 14.49569,-15.55635 l 3.53554,-13.08148 -7.42462,-8.83883 z"
         id="path6715"
         sodipodi:nodetypes="ccccccc"
         inkscape:connector-curvature="0" />
      <path
         style="fill:none;stroke:#000000;stroke-width:1.00487995px;stroke-linecap:butt;stroke-linejoin:miter;stroke-opacity:1;display:inline"
         d="M 108.75,430.25 C 111.65987,426 113.43919,421 114.25,416"
         id="path4937"
         sodipodi:nodetypes="cc"
         inkscape:connector-curvature="0" />
      <path
         style="fill:#f9fbf6;fill-opacity:1;fill-rule:evenodd;stroke:#000000;stroke-width:1.00487995px;stroke-linecap:butt;stroke-linejoin:miter;stroke-opacity:1;display:inline"
         d="m 118.25,431 c -1.13736,5.66667 0.92318,11.33333 3.75,17 3.35109,-5.60519 7.1328,-7.98351 8.75,-14.25 l -3.25,-6.5"
         id="path6783"
         sodipodi:nodetypes="cccc"
         inkscape:connector-curvature="0" />
      <path
         style="fill:#f9fbf6;fill-opacity:1;fill-rule:evenodd;stroke:#000000;stroke-width:1.00487995px;stroke-linecap:butt;stroke-linejoin:miter;stroke-opacity:1;display:inline"
         d="m 113,414.25 c 0.55161,5.65215 3.31273,12.08364 3,18.75 2.58333,-0.2129 5.16667,-0.47724 7.75,-5.25 l 4.25,-5.25 -3.5,-7.75"
         id="path6779"
         sodipodi:nodetypes="ccccc"
         inkscape:connector-curvature="0" />
      <path
         style="fill:#f9fbf6;fill-opacity:1;fill-rule:evenodd;stroke:#000000;stroke-width:1.00487995px;stroke-linecap:butt;stroke-linejoin:miter;stroke-opacity:1;display:inline"
         d="m 116.5,414.25 c 0.12171,4.09832 3.17389,7.05315 4.25,11 4.12187,-1.96146 6.60782,-5.55885 8.75,-9.5 l -1.5,-10.25 -7.25,-1"
         id="path6781"
         sodipodi:nodetypes="ccccc"
         inkscape:connector-curvature="0" />
      <path
         style="fill:#f9fbf6;fill-opacity:1;fill-rule:evenodd;stroke:#000000;stroke-width:1.00487995px;stroke-linecap:butt;stroke-linejoin:miter;stroke-opacity:1;display:inline"
         d="m 113.5,395.5 c -0.64218,5.32619 -7.6257,8.29879 -3,21.5 11.22762,-1.35489 12.51276,-7.3496 14,-13.25 l -3.96859,-6.8738"
         id="path6775"
         sodipodi:nodetypes="ccc"
         inkscape:connector-curvature="0" />
      <path
         style="fill:#f5f5f5;fill-opacity:1;fill-rule:evenodd;stroke:#000000;stroke-width:1.00487995px;stroke-linecap:butt;stroke-linejoin:miter;stroke-opacity:1;display:inline"
         d="m 116.25,395.5 c -0.79202,5.9169 -1.38096,11.69841 1.75,15 2.7448,-4.0026 9.19429,-4.40285 10.75,-10.75 l -1.5,-12 -6.75,1"
         id="path6777"
         sodipodi:nodetypes="ccccc"
         inkscape:connector-curvature="0" />
    </g>
    <use
       height="830"
       width="500"
       transform="matrix(-1,0,0,1,235.341,0)"
       id="use7793"
       xlink:href="#g7749"
       y="0"
       x="0" />
    <path
       sodipodi:nodetypes="cccccccccc"
       id="rect6855"
       d="m 113.65247,142.16852 8.70755,0 1.49272,4.72695 c 0.24474,6.55341 0.37759,16.02383 10.69784,14.67844 -1.01789,3.41746 -3.8992,4.14389 -12.19056,1.49272 -0.34218,4.06351 0.14883,8.12704 -3.9806,12.19056 -4.51148,-4.06352 -3.92,-8.12705 -4.72695,-12.19056 -10.60592,3.27973 -11.727,0.33989 -12.19056,-1.49272 9.89904,1.03118 9.71473,-6.98196 10.69784,-14.67844 l 1.49272,-4.72695 z"
       style="color:#000000;fill:#f5f5f5;fill-opacity:1;fill-rule:evenodd;stroke:#000000;stroke-width:1px;stroke-linecap:butt;stroke-linejoin:miter;stroke-miterlimit:4;stroke-opacity:1;stroke-dashoffset:0;marker:none;visibility:visible;display:inline;overflow:visible"
       inkscape:connector-curvature="0" />
    <path
       sodipodi:nodetypes="ccc"
       id="path7731"
       d="m 114.59725,134.9537 c -0.69832,6.63432 -3.80903,13.26863 3.35863,19.90296 7.37213,-6.63433 4.1227,-13.26864 3.35862,-19.90296"
       style="fill:#f5f5f5;fill-opacity:1;fill-rule:evenodd;stroke:#000000;stroke-width:1px;stroke-linecap:butt;stroke-linejoin:miter;stroke-opacity:1;display:inline"
       inkscape:connector-curvature="0" />
    <path
       sodipodi:nodetypes="ccc"
       id="path7733"
       d="m 116.19368,119.76005 c -0.69832,6.39738 -7.04327,10.80447 1.8659,19.19215 8.61606,-7.89011 2.62998,-12.79477 1.86591,-19.19215"
       style="fill:#f5f5f5;fill-opacity:1;fill-rule:evenodd;stroke:#000000;stroke-width:1px;stroke-linecap:butt;stroke-linejoin:miter;stroke-opacity:1;display:inline"
       inkscape:connector-curvature="0" />
    <path
       sodipodi:nodetypes="ccc"
       id="path6727"
       d="m 109.87078,95.952632 c -3.44517,12.151408 6.29759,20.859948 8.09227,30.609908 2.85476,-9.85147 11.60218,-18.64741 8.09228,-30.609908"
       style="fill:#f5f5f5;fill-opacity:1;fill-rule:evenodd;stroke:#000000;stroke-width:1px;stroke-linecap:butt;stroke-linejoin:miter;stroke-opacity:1;display:inline"
       inkscape:connector-curvature="0" />
    <path
       sodipodi:nodetypes="ccc"
       id="path6729"
       d="m 109.434,94.545284 c -0.93223,5.337207 5.17337,10.264116 8.79594,16.536386 3.06587,-5.86634 9.40452,-11.948903 8.09228,-16.536386 l 0.35184,-0.70368 -8.09227,-18.999246 -9.14779,19.702926 z"
       style="fill:#f5f5f5;fill-opacity:1;fill-rule:evenodd;stroke:#000000;stroke-width:1px;stroke-linecap:butt;stroke-linejoin:miter;stroke-opacity:1;display:inline"
       inkscape:connector-curvature="0" />
    <path
       sodipodi:nodetypes="ccccc"
       id="path6733"
       d="m 110.08989,73.083165 c 1.43685,3.987499 1.0422,7.974997 7.74043,11.962495 6.56262,-3.987498 6.52866,-7.974996 8.09228,-11.962495 l -7.50768,-16.522054 -8.32503,16.522054 z"
       style="fill:#f5f5f5;fill-opacity:1;fill-rule:evenodd;stroke:#000000;stroke-width:1px;stroke-linecap:butt;stroke-linejoin:miter;stroke-opacity:1;display:inline"
       inkscape:connector-curvature="0" />
    <path
       sodipodi:nodetypes="ccccc"
       id="path6735"
       d="m 110.79356,54.435754 c 1.62475,4.573889 1.73014,9.147788 7.74045,13.721678 4.59054,-4.57389 5.78361,-9.147789 6.68492,-13.721678 l -7.3886,-16.18454 -7.03677,16.18454 z"
       style="fill:#f5f5f5;fill-opacity:1;fill-rule:evenodd;stroke:#000000;stroke-width:1px;stroke-linecap:butt;stroke-linejoin:miter;stroke-opacity:1;display:inline"
       inkscape:connector-curvature="0" />
    <path
       sodipodi:nodetypes="ccccccccc"
       id="path7743"
       d="m 98.476464,47.131885 c 5.342096,-1.277601 10.380396,-3.314639 14.404766,-7.886548 0.81281,4.867936 -1.16796,9.735861 5.74698,14.603797 6.29509,-4.693785 5.83096,-9.387559 6.41871,-14.081344 2.98677,4.045595 7.43022,6.634532 13.73304,7.364095 -0.53945,-3.889456 -2.86106,-8.135335 -6.71725,-12.688137 L 117.88185,22.501972 102.20827,34.443748 c -3.116038,4.229379 -5.224856,8.458758 -3.731806,12.688137 z"
       style="fill:#ffffff;fill-opacity:1;fill-rule:evenodd;stroke:#000000;stroke-width:1px;stroke-linecap:butt;stroke-linejoin:miter;stroke-opacity:1;display:inline"
       inkscape:connector-curvature="0" />
    <path
       sodipodi:nodetypes="ccccccccc"
       id="path7745"
       d="m 94.744659,29.219221 c 3.168113,0.351148 6.336231,0.981037 9.504341,-1.876033 l 13.13528,-16.782992 12.10996,13.476971 c 3.59281,6.275672 7.18563,5.283141 10.77844,5.182054 -3.63162,5.735018 -8.71262,8.208936 -17.62621,2.059538 -0.87857,3.211154 -1.5217,6.422297 -5.01341,9.633451 -2.67561,-2.73595 -3.56132,-6.916229 -4.42333,-9.580071 -8.68601,5.643773 -14.406559,3.481506 -18.465071,-2.112918 z"
       style="fill:#ffffff;fill-opacity:1;fill-rule:evenodd;stroke:#000000;stroke-width:1px;stroke-linecap:butt;stroke-linejoin:miter;stroke-opacity:1;display:inline"
       inkscape:connector-curvature="0" />
    <path
       sodipodi:nodetypes="cccccccccc"
       id="path7804"
       d="m 106.93522,11.05777 c -0.56327,5.314837 -0.84816,10.748992 -10.449052,12.190563 8.556412,8.268854 16.974992,1.059226 17.912662,-6.219675 0.82347,3.278097 0.67678,6.798732 3.96409,9.460862 3.74691,-2.987763 3.05397,-5.975525 3.74831,-8.963288 3.83818,8.303664 8.95464,7.020222 14.08969,5.597349 -3.45586,-2.29713 -6.76872,-4.772998 -7.62123,-10.324302 L 118.877,1.10629 l -8.10393,9.033824 -3.83785,0.917656 z"
       style="fill:#f5f5f5;fill-opacity:1;fill-rule:evenodd;stroke:#000000;stroke-width:1px;stroke-linecap:butt;stroke-linejoin:miter;stroke-opacity:1;display:inline"
       inkscape:connector-curvature="0" />
    <path
       sodipodi:nodetypes="ccccccccccsccscc"
       id="path7807"
       d="m 108.67673,2.599012 c 1.3869,4.0193033 0.95057,7.0568532 -6.21967,6.468462 4.39524,4.465368 8.79047,5.971137 13.18571,-2.736657 0.40942,2.3313332 0.2403,4.662666 2.52025,6.99401 2.45046,-0.837079 3.53047,-3.729835 4.69457,-6.496436 1.72057,5.250898 4.5832,7.932165 8.95633,7.214823 -4.11006,-3.268325 -4.47063,-7.6079264 -3.98059,-12.190563 1.9903,1.0274306 3.98059,1.8314306 5.97089,0.248787 -5.88087,-4.6302744 -1.50765,-14.755388 -8.20997,-17.663877 8.41078,-1.380897 6.80587,-8.602328 6.71725,-12.688137 -1.93399,0.546336 -2.44518,3.452149 -2.64597,3.450566 l -27.45726,-0.216335 c -2.363647,0.359248 -3.088741,1.810861 -3.483019,3.483018 -0.66649,5.25259 9.897689,10.393346 11.656069,14.1760027 l 3.25962,7.01216109 -4.96421,2.94417521 z"
       style="fill:#f5f5f5;fill-opacity:1;fill-rule:evenodd;stroke:#000000;stroke-width:1px;stroke-linecap:butt;stroke-linejoin:miter;stroke-opacity:1;display:inline"
       inkscape:connector-curvature="0" />
    <path
       sodipodi:nodetypes="cccc"
       id="path7812"
       d="m 110.45464,-4.6730221 c -9.64527,-9.0566129 -14.804536,3.70049769 -27.09152,-7.2126739 0.302026,4.6968502 1.289946,12.01084968 19.35109,8.7959445 l 10.20329,2.99062868"
       style="fill:none;stroke:#000000;stroke-width:0.5;stroke-linecap:butt;stroke-linejoin:miter;stroke-miterlimit:4;stroke-opacity:1;stroke-dasharray:none;display:inline"
       inkscape:connector-curvature="0" />
    <path
       sodipodi:nodetypes="ccccccc"
       id="path7810"
       d="m 100.95502,-5.2007789 c 3.97452,7.0813836 8.41002,6.3262952 12.84209,5.62941292 2.40508,-6.43246752 -2.52945,-11.61562602 -6.55451,-14.24339402 -1.00653,-2.73395 -4.51409,-5.67516 -8.57453,-7.922403 -10.256702,-1.97927 -9.924631,8.498265 -5.101646,12.6661739 8.738216,-8.3473409 15.852356,1.9207153 18.471486,7.0367512 -3.37785,1.15960619 -6.72394,-2.3842153 -11.08289,-3.166541 z"
       style="fill:#f6d155;fill-opacity:1;fill-rule:evenodd;stroke:#000000;stroke-width:1px;stroke-linecap:butt;stroke-linejoin:miter;stroke-opacity:1;display:inline"
       inkscape:connector-curvature="0" />
    <path
       sodipodi:nodetypes="ccc"
       id="path7814"
       d="m 102.36237,-19.274291 c 6.9555,-2.719103 13.37028,2.105733 19.87885,3.694298 -5.18037,1.310142 -9.8321,0.332469 -15.12904,0.879591"
       style="fill:none;stroke:#000000;stroke-width:1px;stroke-linecap:butt;stroke-linejoin:miter;stroke-opacity:1;display:inline"
       inkscape:connector-curvature="0" />
    <path
       sodipodi:nodetypes="cc"
       id="path7816"
       d="m 108.80112,-19.791818 c -1.60401,3.995788 5.00453,6.071279 7.21483,1.990296"
       style="fill:none;stroke:#000000;stroke-width:1px;stroke-linecap:butt;stroke-linejoin:miter;stroke-opacity:1;display:inline"
       inkscape:connector-curvature="0" />
    <path
       sodipodi:nodetypes="cccccccccccc"
       id="path7822"
       d="m 115.0208,-47.158388 c -1.37654,1.617116 -2.95406,4.104986 -2.36348,5.722101 -6.89749,-1.477486 -6.55356,3.246541 -2.86105,5.100134 1.5,-1.634969 4.46556,-1.552242 2.23909,4.97574 1.09484,-4.528461 -7.23946,-4.315281 -5.13811,0.402597 -4.06422,0.195248 -4.88023,-3.501528 -3.13033,-4.314534 0.78729,-1.55269 2.65554,0.733892 4.19102,-0.186491 -3.24251,-4.809739 -5.07839,-5.236698 -7.85233,-2.080844 -1.582911,-3.990723 -3.79004,-2.363547 -5.805334,-2.462862 3.194206,3.577338 5.201947,4.829403 6.466324,10.057562 l 0,5.177427 14.62738,0"
       style="fill:#f6d155;fill-opacity:1;fill-rule:evenodd;stroke:#000000;stroke-width:1px;stroke-linecap:butt;stroke-linejoin:miter;stroke-opacity:1;display:inline"
       inkscape:connector-curvature="0" />
    <use
       height="830"
       width="500"
       transform="matrix(-1,0,0,1,230.095,0)"
       id="use8698"
       xlink:href="#path7822"
       y="0"
       x="0" />
    <path
       id="path8700"
       d="m 100.9852,-28.42208 27.7952,0"
       style="fill:none;stroke:#000000;stroke-width:0.5;stroke-linecap:butt;stroke-linejoin:miter;stroke-miterlimit:4;stroke-opacity:1;stroke-dasharray:none"
       inkscape:connector-curvature="0" />
  </g>
</svg>
