<?xml version="1.0" encoding="UTF-8"?>
<!DOCTYPE svg PUBLIC "-//W3C//DTD SVG 1.1//EN" "http://www.w3.org/Graphics/SVG/1.1/DTD/svg11.dtd">
<!-- Creator: CorelDRAW -->
<svg xmlns="http://www.w3.org/2000/svg" xml:space="preserve" width="450mm" height="300mm" style="shape-rendering:geometricPrecision; text-rendering:geometricPrecision; image-rendering:optimizeQuality; fill-rule:evenodd; clip-rule:evenodd"
viewBox="0 0 450 300"
 xmlns:xlink="http://www.w3.org/1999/xlink"
 xmlns:svg="http://www.w3.org/2000/svg"
 version="1.0">
 <defs>
  <style type="text/css">
   <![CDATA[
    .fil0 {fill:#CC0000}
    .fil1 {fill:white;fill-rule:nonzero}
   ]]>
  </style>
 </defs>
 <g id="Layer_x0020_1">
  <metadata id="CorelCorpID_0Corel-Layer"/>
  <rect id="rect1948" class="fil0" width="450" height="300"/>
  <path class="fil1" d="M87.3965 156.878l-8.1784 0 0 -0.5154c1.0692,-0.0189 1.7894,-0.167 2.1567,-0.4341 0.3672,-0.2719 0.5633,-0.8305 0.5822,-1.6799 -3.1495,0 -5.4204,-0.6581 -6.8136,-1.985 -1.3938,-1.3214 -2.0904,-2.977 -2.0904,-4.9619 0,-1.4892 0.4105,-2.7633 1.2362,-3.8177 0.8251,-1.0496 1.8416,-1.7793 3.0535,-2.1851 1.2119,-0.4057 2.7484,-0.6106 4.6143,-0.6106 -0.0189,-0.7825 -0.1386,-1.2978 -0.3625,-1.5508 -0.2245,-0.2529 -0.4727,-0.4247 -0.7493,-0.5248 -0.2766,-0.096 -0.8156,-0.1528 -1.6271,-0.1718l0 -0.5207 8.1784 0 0 0.5207c-1.1024,0.0379 -1.8226,0.2002 -2.1709,0.4958 -0.3436,0.2914 -0.539,0.8785 -0.5871,1.7516 2.014,0 3.5979,0.2191 4.7523,0.658 1.1599,0.4389 2.1425,1.1646 2.9541,2.181 0.8109,1.0165 1.2166,2.2757 1.2166,3.7744 0,1.9274 -0.6776,3.5688 -2.0282,4.9193 -1.3498,1.3553 -3.6499,2.0276 -6.8948,2.0276 0.0284,0.8399 0.2246,1.3985 0.5823,1.6704 0.3578,0.2766 1.0834,0.4247 2.1757,0.4436l0 0.5154zm-2.758 -3.6648c1.3695,0 2.4624,-0.1766 3.278,-0.5343 0.8163,-0.3625 1.494,-1.007 2.0282,-1.9369 0.5343,-0.9306 0.8062,-2.0857 0.8062,-3.4552 0,-1.2829 -0.2719,-2.3711 -0.8109,-3.2638 -0.5444,-0.8873 -1.2214,-1.4932 -2.0377,-1.8178 -0.8108,-0.3192 -1.899,-0.4815 -3.2638,-0.4815l0 11.4895zm-2.6815 0l0 -11.4895c-1.4459,0 -2.5577,0.1765 -3.3402,0.5248 -0.7824,0.3482 -1.4411,0.9447 -1.9659,1.7847 -0.5249,0.8345 -0.7873,1.9227 -0.7873,3.2536 0,1.4649 0.3057,2.6822 0.9259,3.6506 0.6202,0.9685 1.3505,1.5886 2.1898,1.8659 0.84,0.2766 1.8328,0.4099 2.9777,0.4099zm15.6981 -4.3182c-0.0094,1.9038 0.4491,3.393 1.3844,4.4757 0.9299,1.0787 2.0275,1.6177 3.2827,1.6177 0.84,0 1.5697,-0.2292 2.1899,-0.6918 0.6201,-0.4579 1.1355,-1.2505 1.5554,-2.367l0.4342 0.2772c-0.1954,1.2789 -0.7635,2.4428 -1.7029,3.4877 -0.9448,1.0496 -2.1235,1.575 -3.5363,1.575 -1.5413,0 -2.858,-0.5964 -3.9509,-1.7942 -1.097,-1.1977 -1.6414,-2.8106 -1.6414,-4.8341 0,-2.1898 0.5586,-3.8981 1.6847,-5.1195 1.1213,-1.2261 2.5286,-1.8422 4.2275,-1.8422 1.4364,0 2.6152,0.4727 3.5356,1.4222 0.9211,0.9448 1.3837,2.2095 1.3837,3.7933l-8.8466 0zm0 -0.8108l5.9264 0c-0.0474,-0.821 -0.1427,-1.3986 -0.2956,-1.732 -0.2292,-0.5201 -0.5775,-0.9306 -1.0401,-1.2315 -0.4633,-0.2956 -0.9448,-0.4484 -1.4459,-0.4484 -0.773,0 -1.4649,0.3009 -2.0755,0.9022 -0.6107,0.6012 -0.9685,1.4405 -1.0693,2.5097zm11.9251 -4.0131l11.2941 0 0 0.5342c-0.6344,0 -1.0544,0.0622 -1.2647,0.186 -0.2096,0.1292 -0.3767,0.282 -0.4957,0.468 -0.1244,0.186 -0.1813,0.7919 -0.1813,1.8179l0 6.3321c0,1.3357 0.1143,2.1519 0.3382,2.4569 0.2293,0.301 0.7635,0.468 1.6035,0.4964l0 4.0652 -0.5296 0c-0.0378,-0.7635 -0.2292,-1.431 -0.568,-1.9991 -0.3389,-0.5681 -0.8109,-0.9684 -1.4169,-1.2024 -0.6059,-0.234 -1.5034,-0.3483 -2.6862,-0.3483l-3.2976 0c-1.0259,0 -1.8274,0.0906 -2.4049,0.2718 -0.5769,0.1813 -1.0591,0.5634 -1.4459,1.1403 -0.3909,0.5775 -0.6249,1.2883 -0.7061,2.1377l-0.52 0 0 -4.0652c0.7635,-0.0284 1.4601,-0.334 2.085,-0.9116 0.6255,-0.5769 1.174,-1.7076 1.6467,-3.397 0.4768,-1.6846 0.7156,-3.3449 0.7156,-4.9768 0,-1.6035 -0.725,-2.4286 -2.1662,-2.4719l0 -0.5342zm3.0873 0.9116l0 0.7683c0,4.5757 -0.8305,7.9822 -2.4861,10.2201l4.7523 0c0.8542,0 1.3506,-0.0758 1.4791,-0.2191 0.1339,-0.1434 0.1954,-0.6777 0.1954,-1.5988l0 -9.1705 -3.9407 0zm11.8851 3.9123c-0.0094,1.9038 0.4491,3.393 1.3844,4.4757 0.9299,1.0787 2.0275,1.6177 3.2827,1.6177 0.84,0 1.5697,-0.2292 2.1899,-0.6918 0.6201,-0.4579 1.1355,-1.2505 1.5554,-2.367l0.4342 0.2772c-0.1954,1.2789 -0.7635,2.4428 -1.7029,3.4877 -0.9448,1.0496 -2.1235,1.575 -3.5363,1.575 -1.5413,0 -2.858,-0.5964 -3.9509,-1.7942 -1.097,-1.1977 -1.6414,-2.8106 -1.6414,-4.8341 0,-2.1898 0.5586,-3.8981 1.6847,-5.1195 1.1213,-1.2261 2.5286,-1.8422 4.2275,-1.8422 1.4364,0 2.6152,0.4727 3.5356,1.4222 0.9211,0.9448 1.3837,2.2095 1.3837,3.7933l-8.8466 0zm0 -0.8108l5.9264 0c-0.0474,-0.821 -0.1427,-1.3986 -0.2956,-1.732 -0.2292,-0.5201 -0.5775,-0.9306 -1.0401,-1.2315 -0.4633,-0.2956 -0.9448,-0.4484 -1.4459,-0.4484 -0.773,0 -1.4649,0.3009 -2.0755,0.9022 -0.6107,0.6012 -0.9685,1.4405 -1.0693,2.5097zm9.6298 -2.739l3.9414 -1.594 0.5343 0 0 2.9919c0.658,-1.126 1.3214,-1.918 1.9896,-2.3711 0.6682,-0.449 1.3695,-0.6776 2.104,-0.6776 1.2883,0 2.3575,0.5058 3.2164,1.5122 1.0543,1.2315 1.5791,2.8296 1.5791,4.8097 0,2.2047 -0.6343,4.0321 -1.9037,5.478 -1.0402,1.1835 -2.3569,1.7752 -3.9414,1.7752 -0.6872,0 -1.2836,-0.096 -1.7895,-0.2914 -0.372,-0.1427 -0.792,-0.42 -1.2545,-0.84l0 3.8988c0,0.8779 0.052,1.4311 0.1575,1.6698 0.1096,0.2387 0.2956,0.4294 0.5627,0.5681 0.2624,0.1379 0.7446,0.2096 1.4459,0.2096l0 0.5154 -6.7135 0 0 -0.5154 0.353 0c0.5106,0.0095 0.9495,-0.0906 1.312,-0.2955 0.1765,-0.1001 0.3152,-0.2671 0.4152,-0.4964 0.0954,-0.2293 0.1434,-0.8062 0.1434,-1.7367l0 -12.1104c0,-0.8257 -0.0338,-1.3553 -0.1102,-1.5791 -0.0758,-0.2245 -0.1955,-0.3916 -0.3578,-0.5011 -0.1623,-0.115 -0.3814,-0.1671 -0.6627,-0.1671 -0.2246,0 -0.5059,0.0622 -0.8542,0.1955l-0.167 -0.4484zm4.4757 2.2236l0 4.7807c0,1.0354 0.0378,1.7131 0.1237,2.0424 0.1292,0.539 0.4484,1.0118 0.959,1.4223 0.5059,0.4098 1.1456,0.6154 1.9234,0.6154 0.9306,0 1.684,-0.3625 2.2615,-1.0882 0.7541,-0.9495 1.1308,-2.2906 1.1308,-4.0131 0,-1.9558 -0.4247,-3.4639 -1.2836,-4.5135 -0.5965,-0.7304 -1.3073,-1.0929 -2.1229,-1.0929 -0.4491,0 -0.8927,0.115 -1.3316,0.3341 -0.3341,0.1717 -0.8873,0.6729 -1.6603,1.5128zm18.0177 7.4629c-1.312,1.0158 -2.1377,1.6028 -2.4765,1.7604 -0.5012,0.234 -1.0354,0.353 -1.6035,0.353 -0.8873,0 -1.617,-0.305 -2.1899,-0.911 -0.5728,-0.6066 -0.8589,-1.4033 -0.8589,-2.3906 0,-0.6256 0.138,-1.1646 0.42,-1.6225 0.3815,-0.6296 1.0449,-1.2261 1.9897,-1.7894 0.9448,-0.558 2.5192,-1.2356 4.7191,-2.0377l0 -0.5059c0,-1.2734 -0.2008,-2.1519 -0.6059,-2.6287 -0.4058,-0.4727 -0.9975,-0.7108 -1.7705,-0.7108 -0.5871,0 -1.0544,0.1569 -1.3979,0.4768 -0.3531,0.3152 -0.5296,0.6776 -0.5296,1.0882l0.0284 0.8108c0,0.4295 -0.1095,0.7588 -0.3293,0.9928 -0.2192,0.2333 -0.5059,0.3483 -0.8589,0.3483 -0.3483,0 -0.6297,-0.1197 -0.8494,-0.3625 -0.2192,-0.2434 -0.3287,-0.5728 -0.3287,-0.9928 0,-0.8014 0.4098,-1.5365 1.2308,-2.2094 0.8204,-0.6675 1.9707,-1.0063 3.4545,-1.0063 1.1355,0 2.0661,0.1907 2.7965,0.5721 0.5485,0.2915 0.9542,0.7446 1.2166,1.36 0.1671,0.4011 0.2482,1.2167 0.2482,2.4577l0 4.3465c0,1.2214 0.0237,1.9707 0.0711,2.2473 0.048,0.2725 0.1244,0.4585 0.2292,0.5491 0.1096,0.0954 0.234,0.1427 0.372,0.1427 0.1481,0 0.282,-0.0331 0.3916,-0.1 0.1954,-0.1191 0.5728,-0.4626 1.1307,-1.0212l0 0.7831c-1.0401,1.3979 -2.0377,2.0992 -2.9919,2.0992 -0.4531,0 -0.8156,-0.1576 -1.0875,-0.4775 -0.2718,-0.3144 -0.4105,-0.8588 -0.42,-1.6217zm0 -0.9069l0 -4.8815c-1.408,0.5634 -2.3142,0.959 -2.7247,1.1883 -0.7392,0.4105 -1.2647,0.8399 -1.5792,1.2883 -0.3199,0.4484 -0.4774,0.9353 -0.4774,1.4696 0,0.6682 0.2008,1.2261 0.6012,1.6704 0.401,0.4389 0.8636,0.6628 1.3837,0.6628 0.7114,0 1.6413,-0.4673 2.7964,-1.3979zm4.5136 -10.0537l11.075 0 0.5579 3.4687 -0.6296 0c-0.1096,-0.7014 -0.2955,-1.2404 -0.5579,-1.6218 -0.2624,-0.3821 -0.5587,-0.635 -0.8975,-0.7541 -0.3341,-0.1197 -0.9062,-0.1812 -1.7178,-0.1812l-1.1165 0 0 8.8892c0,0.9495 0.0575,1.5554 0.1717,1.8131 0.1198,0.2529 0.3057,0.4247 0.5681,0.5059 0.2624,0.0859 0.8589,0.1433 1.7895,0.1717l0 0.5154 -6.9617 0 0 -0.5154c0.8967,-0.0189 1.4695,-0.167 1.7272,-0.4341 0.2577,-0.2719 0.3814,-0.9543 0.3814,-2.0566l0 -8.8892 -1.1449 0c-0.8014,0 -1.3459,0.0473 -1.6367,0.1474 -0.2867,0.0954 -0.5633,0.3294 -0.8304,0.6966 -0.2672,0.3679 -0.4917,0.9401 -0.6777,1.7131l-0.6296 0 0.5295 -3.4687zm16.7058 8.8655l5.5395 -6.4032c-0.0189,-0.7162 -0.1576,-1.2166 -0.4051,-1.4939 -0.2529,-0.2813 -0.6871,-0.4247 -1.3032,-0.4342l0 -0.5342 5.9554 0 0 0.5342c-0.6256,0 -1.0449,0.0622 -1.2552,0.186 -0.2144,0.1292 -0.3861,0.282 -0.5058,0.468 -0.1191,0.186 -0.1813,0.7919 -0.1813,1.8179l0 6.7947c0,0.988 0.0528,1.5791 0.1528,1.7705 0.1049,0.1907 0.2624,0.3577 0.4822,0.5004 0.2192,0.1434 0.6533,0.2198 1.3073,0.2198l0 0.5154 -6.1935 0 0 -0.5154c0.773,0 1.2931,-0.1433 1.5555,-0.4294 0.2577,-0.2813 0.3909,-0.9685 0.3909,-2.0613l0 -6.0265 -5.5395 6.418c0.0189,0.792 0.1332,1.3357 0.3388,1.6367 0.2049,0.2955 0.6438,0.4531 1.3262,0.4625l0 0.5154 -5.9121 0 0 -0.5154c0.8305,0 1.36,-0.1528 1.594,-0.4578 0.234,-0.301 0.3483,-0.9786 0.3483,-2.0329l0 -6.7947c0,-0.9976 -0.0528,-1.5839 -0.1529,-1.7658 -0.1048,-0.1813 -0.2624,-0.3483 -0.4767,-0.491 -0.2151,-0.1434 -0.654,-0.2151 -1.3127,-0.2151l0 -0.5342 6.1941 0 0 0.5342c-0.6255,0 -1.0455,0.0622 -1.2599,0.186 -0.2151,0.1292 -0.3821,0.282 -0.5059,0.468 -0.119,0.186 -0.1812,0.7919 -0.1812,1.8179l0 5.8594zm19.4488 -2.8249c2.3379,0.4869 3.5073,1.5798 3.5073,3.2827 0,1.1693 -0.487,2.0377 -1.4602,2.6152 -0.9738,0.5776 -2.3332,0.8684 -4.0753,0.8684l-6.3172 0 0 -0.5154c0.825,0 1.3505,-0.1575 1.5696,-0.472 0.2198,-0.3104 0.3294,-0.9833 0.3294,-2.0187l0 -6.7947c0,-1.007 -0.048,-1.5988 -0.1481,-1.7753 -0.0954,-0.1765 -0.2482,-0.3388 -0.4579,-0.4815 -0.2103,-0.1434 -0.6445,-0.2151 -1.293,-0.2151l0 -0.5342 5.8972 0c1.1362,0 2.0566,0.0906 2.7634,0.2671 0.7013,0.1765 1.2781,0.5248 1.7319,1.0496 0.4532,0.5201 0.6777,1.1551 0.6777,1.899 0,1.4554 -0.9069,2.3954 -2.7248,2.8249zm-4.1274 -0.3192c0.4105,0.0094 0.6587,0.0142 0.7446,0.0142 1.2734,0 2.1993,-0.2482 2.7674,-0.7351 0.5674,-0.4917 0.8494,-1.0828 0.8494,-1.7848 0,-0.8109 -0.2867,-1.3979 -0.8636,-1.7604 -0.5776,-0.3625 -1.5034,-0.5437 -2.7681,-0.5437l-0.7297 0 0 4.8098zm0 5.9547c0.4673,0.1481 1.0212,0.2239 1.665,0.2239 1.1071,0 1.9329,-0.2428 2.4766,-0.7297 0.539,-0.4822 0.8109,-1.1071 0.8109,-1.8707 0,-0.8589 -0.353,-1.5169 -1.0496,-1.9707 -0.7013,-0.4578 -1.6698,-0.6871 -2.9108,-0.6871 -0.305,0 -0.6343,0.0095 -0.9921,0.0291l0 5.0052zm13.5177 -5.9547l5.5395 0 0 -2.7153c0,-0.8109 -0.0331,-1.3364 -0.1001,-1.5839 -0.0669,-0.2482 -0.2238,-0.4585 -0.4815,-0.6303 -0.2576,-0.1718 -0.7114,-0.2577 -1.3647,-0.2577l0 -0.5342 6.1934 0 0 0.5342c-0.5775,0 -0.9975,0.0622 -1.2646,0.1962 -0.2672,0.1284 -0.4437,0.3192 -0.539,0.5626 -0.0906,0.2482 -0.1387,0.821 -0.1387,1.7131l0 6.7947c0,0.8108 0.0339,1.3458 0.1049,1.6082 0.0716,0.2624 0.2387,0.472 0.5106,0.6343 0.2671,0.1671 0.7114,0.2482 1.3268,0.2482l0 0.5154 -6.1934 0 0 -0.5154c0.773,0 1.293,-0.1433 1.5554,-0.4294 0.2577,-0.2813 0.3909,-0.9685 0.3909,-2.0613l0 -3.1732 -5.5395 0 0 3.1732c0,0.8108 0.0379,1.3458 0.1048,1.6082 0.0717,0.2624 0.2435,0.472 0.5106,0.6343 0.2719,0.1671 0.7156,0.2482 1.3317,0.2482l0 0.5154 -6.1942 0 0 -0.5154c0.8305,0 1.36,-0.1528 1.594,-0.4578 0.234,-0.301 0.3483,-0.9786 0.3483,-2.0329l0 -6.7947c0,-0.8109 -0.0331,-1.3458 -0.1048,-1.6082 -0.0717,-0.2577 -0.2387,-0.4674 -0.5106,-0.6249 -0.2719,-0.1624 -0.7108,-0.2388 -1.3269,-0.2388l0 -0.5342 6.1942 0 0 0.5342c-0.5776,0 -1.0023,0.0622 -1.2694,0.1962 -0.2624,0.1284 -0.4437,0.3192 -0.5343,0.5626 -0.096,0.2482 -0.1434,0.821 -0.1434,1.7131l0 2.7153zm18.5805 5.2392c-1.312,1.0158 -2.1378,1.6028 -2.4766,1.7604 -0.5011,0.234 -1.0354,0.353 -1.6035,0.353 -0.8873,0 -1.617,-0.305 -2.1898,-0.911 -0.5728,-0.6066 -0.8589,-1.4033 -0.8589,-2.3906 0,-0.6256 0.1379,-1.1646 0.42,-1.6225 0.3814,-0.6296 1.0448,-1.2261 1.9896,-1.7894 0.9448,-0.558 2.5192,-1.2356 4.7192,-2.0377l0 -0.5059c0,-1.2734 -0.2009,-2.1519 -0.606,-2.6287 -0.4058,-0.4727 -0.9975,-0.7108 -1.7705,-0.7108 -0.587,0 -1.0544,0.1569 -1.3979,0.4768 -0.353,0.3152 -0.5295,0.6776 -0.5295,1.0882l0.0284 0.8108c0,0.4295 -0.1096,0.7588 -0.3294,0.9928 -0.2191,0.2333 -0.5059,0.3483 -0.8589,0.3483 -0.3483,0 -0.6296,-0.1197 -0.8494,-0.3625 -0.2191,-0.2434 -0.3287,-0.5728 -0.3287,-0.9928 0,-0.8014 0.4098,-1.5365 1.2309,-2.2094 0.8203,-0.6675 1.9707,-1.0063 3.4545,-1.0063 1.1355,0 2.066,0.1907 2.7964,0.5721 0.5485,0.2915 0.9543,0.7446 1.2167,1.36 0.167,0.4011 0.2482,1.2167 0.2482,2.4577l0 4.3465c0,1.2214 0.0237,1.9707 0.071,2.2473 0.048,0.2725 0.1244,0.4585 0.2293,0.5491 0.1095,0.0954 0.234,0.1427 0.3719,0.1427 0.1481,0 0.282,-0.0331 0.3916,-0.1 0.1954,-0.1191 0.5728,-0.4626 1.1308,-1.0212l0 0.7831c-1.0402,1.3979 -2.0377,2.0992 -2.992,2.0992 -0.4531,0 -0.8156,-0.1576 -1.0874,-0.4775 -0.2719,-0.3144 -0.4106,-0.8588 -0.42,-1.6217zm0 -0.9069l0 -4.8815c-1.4081,0.5634 -2.3143,0.959 -2.7248,1.1883 -0.7392,0.4105 -1.2647,0.8399 -1.5791,1.2883 -0.3199,0.4484 -0.4775,0.9353 -0.4775,1.4696 0,0.6682 0.2008,1.2261 0.6012,1.6704 0.4011,0.4389 0.8636,0.6628 1.3837,0.6628 0.7115,0 1.6414,-0.4673 2.7965,-1.3979zm17.0824 -10.0537l0 0.5342c-0.5775,0 -1.0022,0.0764 -1.2788,0.2388 -0.2766,0.1575 -0.4531,0.3577 -0.539,0.6012 -0.0812,0.2387 -0.1245,0.7872 -0.1245,1.6319l0 6.7947c0,0.8108 0.0386,1.3458 0.1096,1.6034 0.0764,0.253 0.2529,0.4674 0.5397,0.6344 0.286,0.1671 0.7155,0.2529 1.293,0.2529l0 0.5154 -6.1934 0 0 -0.5154c0.773,0 1.293,-0.1433 1.5507,-0.4294 0.2624,-0.2813 0.3909,-0.9685 0.3909,-2.0613l0 -2.7816 -0.5721 0.0142c-0.0812,0 -0.234,-0.0048 -0.4444,-0.0142l-4.0841 5.7877 -3.1874 0 0 -0.5154c0.4674,0 0.792,-0.0669 0.9732,-0.1907 0.1813,-0.1244 0.5201,-0.539 1.0118,-1.2362l2.9919 -4.2228c-2.1425,-0.7439 -3.2165,-1.8895 -3.2165,-3.4261 0,-0.8636 0.3869,-1.617 1.1551,-2.2568 0.7683,-0.6391 2.0803,-0.9589 3.9367,-0.9589l5.6876 0zm-4.2518 1.0638c-0.3625,-0.1001 -0.7061,-0.1522 -1.0307,-0.1522 -0.9448,0 -1.6461,0.2333 -2.1134,0.6966 -0.4632,0.4673 -0.6966,1.0212 -0.6966,1.665 0,0.821 0.3287,1.4987 0.9922,2.0424 0.6587,0.539 1.4932,0.8109 2.5002,0.8109 0.1048,0 0.2198,-0.0095 0.3483,-0.0284l0 -5.0343zm29.2875 -7.6435l0.4349 6.441 -0.4349 0c-0.5769,-1.9274 -1.4026,-3.3158 -2.4712,-4.1653 -1.0739,-0.8494 -2.3575,-1.2741 -3.8602,-1.2741 -1.26,0 -2.3955,0.3199 -3.4119,0.959 -1.0165,0.6398 -1.8132,1.6562 -2.3955,3.0541 -0.5816,1.3979 -0.8731,3.1394 -0.8731,5.2149 0,1.713 0.2719,3.2022 0.8258,4.4615 0.5485,1.2552 1.3742,2.2189 2.4813,2.8918 1.1017,0.6729 2.3616,1.007 3.7791,1.007 1.2309,0 2.3136,-0.2624 3.2584,-0.7919 0.9401,-0.5255 1.9755,-1.5704 3.1022,-3.1353l0.4341 0.2766c-0.9495,1.6894 -2.0613,2.9249 -3.326,3.7074 -1.2694,0.7825 -2.7721,1.1741 -4.5189,1.1741 -3.1394,0 -5.5727,-1.1639 -7.2959,-3.4978 -1.2829,-1.732 -1.9274,-3.7744 -1.9274,-6.1218 0,-1.8896 0.4247,-3.631 1.2694,-5.2149 0.8494,-1.5845 2.018,-2.8106 3.5025,-3.6837 1.4885,-0.8684 3.1109,-1.3026 4.8713,-1.3026 1.3695,0 2.7248,0.3334 4.0558,1.0016 0.3915,0.2056 0.6729,0.3104 0.8399,0.3104 0.2482,0 0.468,-0.0906 0.654,-0.2671 0.2435,-0.2482 0.4152,-0.6012 0.5201,-1.0449l0.4862 0zm9.0184 6.203c1.9375,0 3.493,0.7391 4.6718,2.2087 0.9968,1.26 1.4932,2.7059 1.4932,4.333 0,1.1497 -0.2766,2.3096 -0.8257,3.4829 -0.5485,1.1741 -1.3073,2.0614 -2.271,2.6578 -0.9637,0.5965 -2.0377,0.8927 -3.2212,0.8927 -1.9321,0 -3.4639,-0.7682 -4.5994,-2.3048 -0.959,-1.2978 -1.4412,-2.7531 -1.4412,-4.3614 0,-1.1787 0.2915,-2.3426 0.8731,-3.5025 0.5823,-1.1591 1.3505,-2.018 2.3,-2.5719 0.9496,-0.5579 1.9566,-0.8345 3.0204,-0.8345zm-0.4342 0.9109c-0.4917,0 -0.9874,0.1434 -1.4885,0.4389 -0.4964,0.2963 -0.9022,0.8069 -1.2072,1.546 -0.3104,0.7352 -0.4633,1.6799 -0.4633,2.8344 0,1.8659 0.3727,3.4741 1.1119,4.824 0.7398,1.3505 1.7177,2.0282 2.9296,2.0282 0.9022,0 1.6468,-0.372 2.2379,-1.1166 0.587,-0.7493 0.8785,-2.0282 0.8785,-3.8461 0,-2.2757 -0.4869,-4.0652 -1.4696,-5.3677 -0.6587,-0.8974 -1.5034,-1.3411 -2.5293,-1.3411zm16.6104 5.5064c2.3379,0.4869 3.5073,1.5798 3.5073,3.2827 0,1.1693 -0.487,2.0377 -1.4602,2.6152 -0.9738,0.5776 -2.3332,0.8684 -4.0753,0.8684l-6.3172 0 0 -0.5154c0.825,0 1.3505,-0.1575 1.5696,-0.472 0.2198,-0.3104 0.3294,-0.9833 0.3294,-2.0187l0 -6.7947c0,-1.007 -0.048,-1.5988 -0.1481,-1.7753 -0.0954,-0.1765 -0.2482,-0.3388 -0.4579,-0.4815 -0.2103,-0.1434 -0.6445,-0.2151 -1.293,-0.2151l0 -0.5342 5.8972 0c1.1362,0 2.0566,0.0906 2.7634,0.2671 0.7013,0.1765 1.2781,0.5248 1.7319,1.0496 0.4532,0.5201 0.6777,1.1551 0.6777,1.899 0,1.4554 -0.9069,2.3954 -2.7248,2.8249zm-4.1274 -0.3192c0.4105,0.0094 0.6587,0.0142 0.7446,0.0142 1.2734,0 2.1993,-0.2482 2.7674,-0.7351 0.5674,-0.4917 0.8494,-1.0828 0.8494,-1.7848 0,-0.8109 -0.2867,-1.3979 -0.8636,-1.7604 -0.5776,-0.3625 -1.5034,-0.5437 -2.7681,-0.5437l-0.7297 0 0 4.8098zm0 5.9547c0.4673,0.1481 1.0212,0.2239 1.665,0.2239 1.1071,0 1.9329,-0.2428 2.4766,-0.7297 0.539,-0.4822 0.8109,-1.1071 0.8109,-1.8707 0,-0.8589 -0.353,-1.5169 -1.0496,-1.9707 -0.7013,-0.4578 -1.6698,-0.6871 -2.9108,-0.6871 -0.305,0 -0.6343,0.0095 -0.9921,0.0291l0 5.0052zm23.3043 -2.4766c0,1.2978 -0.6106,2.2568 -1.8327,2.8824 -0.9401,0.4815 -2.1276,0.725 -3.5641,0.725l-6.1508 0 0 -0.5154c0.8785,0 1.4364,-0.2001 1.6799,-0.6012 0.1765,-0.2908 0.2624,-0.9211 0.2624,-1.8895l0 -10.0105 -0.6966 0c-1.145,0 -1.9038,0.1522 -2.2717,0.4484 -0.3672,0.3003 -0.725,1.0117 -1.0685,2.1377l-0.6154 0 0.5153 -3.493 4.1369 0 0 -0.5579c0,-2.0235 -0.1434,-3.1495 -0.4295,-3.3835 -0.1528,-0.1238 -0.3388,-0.1813 -0.5633,-0.1813 -0.2577,0 -0.5864,0.0717 -0.9779,0.2246l-0.1955 -0.4917 3.8461 -1.5649 0.6296 0 0 5.9547 4.3323 0 0.5154 3.493 -0.6107 0c-0.3483,-1.1361 -0.7013,-1.8516 -1.0638,-2.1424 -0.3625,-0.2963 -1.1213,-0.4437 -2.2812,-0.4437l-0.892 0 0 5.9162 1.5934 -0.0284c3.8034,-0.067 5.7024,1.1071 5.7024,3.5214zm-2.6672 0.0859c0,-1.7894 -1.2458,-2.6862 -3.7366,-2.6862 -0.2143,0 -0.5106,0.0047 -0.892,0.0142l0 5.0911c0.4917,0.1292 0.9874,0.1955 1.4791,0.1955 0.8588,0 1.5791,-0.2144 2.1709,-0.6439 0.6492,-0.4869 0.9786,-1.1402 0.9786,-1.9707zm4.2322 -9.2854l11.075 0 0.5579 3.4687 -0.6296 0c-0.1096,-0.7014 -0.2956,-1.2404 -0.558,-1.6218 -0.2624,-0.3821 -0.5586,-0.635 -0.8974,-0.7541 -0.3341,-0.1197 -0.9062,-0.1812 -1.7178,-0.1812l-1.1166 0 0 8.8892c0,0.9495 0.0575,1.5554 0.1718,1.8131 0.1197,0.2529 0.3057,0.4247 0.5681,0.5059 0.2624,0.0859 0.8589,0.1433 1.7895,0.1717l0 0.5154 -6.9618 0 0 -0.5154c0.8968,-0.0189 1.4696,-0.167 1.7273,-0.4341 0.2576,-0.2719 0.3814,-0.9543 0.3814,-2.0566l0 -8.8892 -1.145 0c-0.8014,0 -1.3458,0.0473 -1.6366,0.1474 -0.2867,0.0954 -0.5633,0.3294 -0.8305,0.6966 -0.2671,0.3679 -0.4916,0.9401 -0.6776,1.7131l-0.6296 0 0.5295 -3.4687zm23.9346 7.9396c-0.3435,1.6894 -1.0212,2.9872 -2.0282,3.8941 -1.0063,0.911 -2.1181,1.3647 -3.3402,1.3647 -1.4547,0 -2.7241,-0.6113 -3.8028,-1.8327 -1.0827,-1.2214 -1.6224,-2.8675 -1.6224,-4.9477 0,-2.014 0.6012,-3.6507 1.799,-4.9052 1.1977,-1.2599 2.6341,-1.8895 4.3086,-1.8895 1.26,0 2.2954,0.3341 3.1069,1.0016 0.8109,0.6634 1.2167,1.3552 1.2167,2.0755 0,0.3537 -0.115,0.6398 -0.3436,0.8589 -0.2293,0.2198 -0.5491,0.3293 -0.959,0.3293 -0.5491,0 -0.9644,-0.1765 -1.2457,-0.5295 -0.1576,-0.1955 -0.2624,-0.5728 -0.3104,-1.1213 -0.0521,-0.5485 -0.2428,-0.9684 -0.5674,-1.2599 -0.3294,-0.2766 -0.7778,-0.4146 -1.3553,-0.4146 -0.9353,0 -1.6847,0.3436 -2.2521,1.0307 -0.754,0.9157 -1.1307,2.1229 -1.1307,3.6215 0,1.5264 0.3719,2.877 1.126,4.0463 0.7493,1.1686 1.7604,1.7556 3.0392,1.7556 0.9117,0 1.732,-0.3097 2.4577,-0.9353 0.5153,-0.4294 1.0117,-1.2072 1.498,-2.3379l0.4057 0.1954zm14.6776 4.8673l-3.7744 0c-1.174,-1.7036 -2.2378,-3.4545 -3.1873,-5.244 -0.2246,-0.4105 -0.4247,-0.7155 -0.6107,-0.9164 -0.1813,-0.2001 -0.4295,-0.3002 -0.7446,-0.3002 -0.1143,0 -0.2908,0.0094 -0.5343,0.0284l0 3.4261c0,0.9211 0.0575,1.5128 0.1623,1.7705 0.1096,0.2529 0.3003,0.4389 0.5823,0.5485 0.2766,0.1143 0.7487,0.1717 1.4121,0.1717l0 0.5154 -6.4038 0 0 -0.5154c0.8305,0 1.36,-0.1528 1.594,-0.4578 0.234,-0.301 0.3483,-0.9786 0.3483,-2.0329l0 -6.7947c0,-0.9976 -0.0527,-1.5839 -0.1528,-1.7658 -0.1049,-0.1813 -0.2624,-0.3483 -0.4768,-0.491 -0.2151,-0.1434 -0.654,-0.2151 -1.3127,-0.2151l0 -0.5342 6.4038 0 0 0.5342c-0.7777,0 -1.2552,0.0528 -1.4364,0.1671 -0.1813,0.1095 -0.3436,0.2482 -0.4964,0.4105 -0.1475,0.1623 -0.2239,0.7967 -0.2239,1.8943l0 2.5192c0.2144,0.0196 0.3625,0.0243 0.4342,0.0243 0.5681,0 1.1023,-0.1576 1.6035,-0.4822 0.4957,-0.3199 0.94,-1.0023 1.3309,-2.0471 0.3672,-0.9874 0.6682,-1.6509 0.9022,-1.9991 0.238,-0.3436 0.5721,-0.6249 0.9921,-0.8447 0.4247,-0.2191 0.8731,-0.3294 1.3364,-0.3294 0.5058,0 0.9062,0.1245 1.2024,0.3625 0.3003,0.2435 0.4484,0.5634 0.4484,0.9549 0,0.324 -0.1096,0.6013 -0.3199,0.8298 -0.2144,0.2293 -0.5153,0.3436 -0.8968,0.3436 -0.2055,0 -0.4632,-0.0568 -0.7682,-0.1718 -0.3916,-0.1379 -0.6919,-0.2049 -0.8975,-0.2049 -0.4247,0 -0.7824,0.3672 -1.059,1.1024 -0.3199,0.8494 -0.5485,1.3931 -0.7013,1.6413 -0.1482,0.2482 -0.4342,0.5769 -0.8495,0.9874 0.2861,0.0812 0.6013,0.2962 0.9401,0.6445 0.3435,0.3436 0.9732,1.3262 1.8943,2.9486 0.7398,1.2931 1.2883,2.1141 1.6555,2.4577 0.3727,0.3483 0.9022,0.5295 1.6035,0.5484l0 0.5154zm7.8829 -1.8463c-1.312,1.0158 -2.1378,1.6028 -2.4766,1.7604 -0.5011,0.234 -1.0354,0.353 -1.6035,0.353 -0.8873,0 -1.617,-0.305 -2.1898,-0.911 -0.5728,-0.6066 -0.8589,-1.4033 -0.8589,-2.3906 0,-0.6256 0.138,-1.1646 0.42,-1.6225 0.3814,-0.6296 1.0448,-1.2261 1.9896,-1.7894 0.9448,-0.558 2.5192,-1.2356 4.7192,-2.0377l0 -0.5059c0,-1.2734 -0.2009,-2.1519 -0.606,-2.6287 -0.4057,-0.4727 -0.9975,-0.7108 -1.7705,-0.7108 -0.587,0 -1.0543,0.1569 -1.3979,0.4768 -0.353,0.3152 -0.5295,0.6776 -0.5295,1.0882l0.0284 0.8108c0,0.4295 -0.1096,0.7588 -0.3294,0.9928 -0.2191,0.2333 -0.5059,0.3483 -0.8589,0.3483 -0.3483,0 -0.6296,-0.1197 -0.8494,-0.3625 -0.2191,-0.2434 -0.3287,-0.5728 -0.3287,-0.9928 0,-0.8014 0.4099,-1.5365 1.2309,-2.2094 0.8203,-0.6675 1.9707,-1.0063 3.4545,-1.0063 1.1355,0 2.066,0.1907 2.7964,0.5721 0.5485,0.2915 0.9543,0.7446 1.2167,1.36 0.167,0.4011 0.2482,1.2167 0.2482,2.4577l0 4.3465c0,1.2214 0.0237,1.9707 0.071,2.2473 0.048,0.2725 0.1244,0.4585 0.2293,0.5491 0.1095,0.0954 0.234,0.1427 0.3719,0.1427 0.1481,0 0.282,-0.0331 0.3916,-0.1 0.1954,-0.1191 0.5728,-0.4626 1.1308,-1.0212l0 0.7831c-1.0402,1.3979 -2.0377,2.0992 -2.992,2.0992 -0.4531,0 -0.8156,-0.1576 -1.0874,-0.4775 -0.2719,-0.3144 -0.4105,-0.8588 -0.42,-1.6217zm0 -0.9069l0 -4.8815c-1.4081,0.5634 -2.3143,0.959 -2.7248,1.1883 -0.7392,0.4105 -1.2647,0.8399 -1.5791,1.2883 -0.3199,0.4484 -0.4775,0.9353 -0.4775,1.4696 0,0.6682 0.2009,1.2261 0.6012,1.6704 0.4011,0.4389 0.8636,0.6628 1.3837,0.6628 0.7115,0 1.6414,-0.4673 2.7965,-1.3979zm17.0825 -10.0537l0 0.5342c-0.5776,0 -1.0023,0.0764 -1.2789,0.2388 -0.2766,0.1575 -0.4531,0.3577 -0.539,0.6012 -0.0812,0.2387 -0.1245,0.7872 -0.1245,1.6319l0 6.7947c0,0.8108 0.0386,1.3458 0.1096,1.6034 0.0764,0.253 0.2529,0.4674 0.5397,0.6344 0.2861,0.1671 0.7155,0.2529 1.2931,0.2529l0 0.5154 -6.1935 0 0 -0.5154c0.773,0 1.293,-0.1433 1.5507,-0.4294 0.2624,-0.2813 0.3909,-0.9685 0.3909,-2.0613l0 -2.7816 -0.5721 0.0142c-0.0812,0 -0.234,-0.0048 -0.4444,-0.0142l-4.0841 5.7877 -3.1874 0 0 -0.5154c0.4674,0 0.792,-0.0669 0.9732,-0.1907 0.1813,-0.1244 0.5201,-0.539 1.0118,-1.2362l2.9919 -4.2228c-2.1425,-0.7439 -3.2165,-1.8895 -3.2165,-3.4261 0,-0.8636 0.3869,-1.617 1.1551,-2.2568 0.7683,-0.6391 2.0803,-0.9589 3.9367,-0.9589l5.6877 0zm-4.2519 1.0638c-0.3625,-0.1001 -0.706,-0.1522 -1.0307,-0.1522 -0.9447,0 -1.6461,0.2333 -2.1134,0.6966 -0.4632,0.4673 -0.6966,1.0212 -0.6966,1.665 0,0.821 0.3287,1.4987 0.9922,2.0424 0.6587,0.539 1.4932,0.8109 2.5002,0.8109 0.1048,0 0.2198,-0.0095 0.3483,-0.0284l0 -5.0343z"/>
  <path class="fil1" d="M160.514 197.979l0 5.5084c0,1.1903 0.1336,1.9279 0.3954,2.2187 0.3523,0.4096 0.8853,0.6141 1.6,0.6141l0.7281 0 0 0.5142 -8.103 0 0 -0.5142 0.7092 0c0.7997,0 1.3712,-0.2618 1.714,-0.7808 0.1856,-0.2901 0.2807,-0.9757 0.2807,-2.052l0 -12.2213c0,-1.1904 -0.1235,-1.9286 -0.3758,-2.214 -0.3624,-0.4096 -0.9049,-0.6141 -1.6189,-0.6141l-0.7092 0 0 -0.5196 6.9315 0c1.6904,0 3.0238,0.1768 3.9995,0.5243 0.9805,0.3475 1.7997,0.938 2.4711,1.766 0.6714,0.8286 1.0041,1.8091 1.0041,2.9421 0,1.5426 -0.5088,2.7997 -1.5277,3.7661 -1.019,0.9669 -2.457,1.4521 -4.3187,1.4521 -0.4521,0 -0.9474,-0.033 -1.4758,-0.0998 -0.5284,-0.0669 -1.0999,-0.162 -1.7045,-0.2902zm0 -0.7949c0.4953,0.0904 0.9332,0.1613 1.3145,0.2092 0.3806,0.0425 0.7045,0.0668 0.9757,0.0668 0.9663,0 1.7997,-0.3718 2.5042,-1.1236 0.6998,-0.7477 1.052,-1.714 1.052,-2.9043 0,-0.8192 -0.1667,-1.5811 -0.4993,-2.2808 -0.3381,-0.7045 -0.8098,-1.2282 -1.4239,-1.5757 -0.614,-0.3522 -1.3138,-0.5236 -2.0945,-0.5236 -0.4717,0 -1.081,0.0857 -1.8287,0.2618l0 7.8702zm12.6976 1.6849c-0.0095,1.8996 0.4481,3.3855 1.3813,4.4659 0.9278,1.0763 2.023,1.6141 3.2754,1.6141 0.8381,0 1.5662,-0.2288 2.185,-0.6903 0.6188,-0.4569 1.133,-1.2477 1.5521,-2.3618l0.4332 0.2766c-0.195,1.2761 -0.7619,2.4374 -1.6992,3.48 -0.9426,1.0473 -2.1188,1.5716 -3.5285,1.5716 -1.5378,0 -2.8516,-0.5952 -3.9421,-1.7903 -1.0945,-1.195 -1.6377,-2.8044 -1.6377,-4.8234 0,-2.185 0.5573,-3.8896 1.6809,-5.1083 1.1188,-1.2234 2.523,-1.8381 4.2181,-1.8381 1.4333,0 2.6094,0.4717 3.5278,1.4191 0.9191,0.9427 1.3807,2.2046 1.3807,3.7849l-8.827 0zm0 -0.809l5.9132 0c-0.0472,-0.8192 -0.1424,-1.3955 -0.2949,-1.7282 -0.2287,-0.5189 -0.5762,-0.9285 -1.0378,-1.2288 -0.4622,-0.2949 -0.9427,-0.4474 -1.4427,-0.4474 -0.7713,0 -1.4616,0.3003 -2.071,0.9002 -0.6093,0.5999 -0.9663,1.4373 -1.0668,2.5042zm22.0914 3.9178c-0.3428,1.6857 -1.0189,2.9806 -2.0237,3.8855 -1.0041,0.909 -2.1135,1.3618 -3.3328,1.3618 -1.4515,0 -2.7181,-0.61 -3.7944,-1.8287 -1.0803,-1.2187 -1.6188,-2.8612 -1.6188,-4.9369 0,-2.0095 0.5999,-3.6425 1.7949,-4.8943 1.1951,-1.2571 2.6284,-1.8854 4.2992,-1.8854 1.2571,0 2.2902,0.3334 3.1,0.9994 0.809,0.662 1.2139,1.3523 1.2139,2.071 0,0.3529 -0.1147,0.6383 -0.3428,0.857 -0.2287,0.2193 -0.5479,0.3286 -0.9568,0.3286 -0.548,0 -0.9623,-0.1761 -1.243,-0.5284 -0.1572,-0.195 -0.2618,-0.5715 -0.3097,-1.1188 -0.052,-0.5472 -0.2423,-0.9663 -0.5662,-1.2571 -0.3286,-0.276 -0.776,-0.4137 -1.3523,-0.4137 -0.9332,0 -1.6809,0.3428 -2.247,1.0284 -0.7524,0.9137 -1.1283,2.1182 -1.1283,3.6136 0,1.523 0.3711,2.8706 1.1235,4.0373 0.7477,1.166 1.7565,1.7518 3.0326,1.7518 0.9096,0 1.7281,-0.3091 2.4522,-0.9333 0.5142,-0.4285 1.0095,-1.2045 1.4946,-2.3328l0.4049 0.195zm11.3406 -7.0125l-5.5272 0 0 8.8696c0,0.9859 0.0519,1.5757 0.1572,1.7666 0.0999,0.1903 0.2618,0.357 0.4804,0.4994 0.2193,0.143 0.6526,0.2193 1.3051,0.2193l0 0.5142 -6.1804 0 0 -0.5142c0.8286,0 1.357,-0.1525 1.5904,-0.4569 0.2335,-0.3002 0.3476,-0.9764 0.3476,-2.0284l0 -6.7797c0,-0.9953 -0.0527,-1.5804 -0.1525,-1.7619 -0.1046,-0.1809 -0.2619,-0.3475 -0.4758,-0.4899 -0.2146,-0.1431 -0.6525,-0.2146 -1.3097,-0.2146l0 -0.5331 14.0026 0 0 0.5331c-0.6242,0 -1.0425,0.0621 -1.2524,0.1856 -0.2139,0.1289 -0.3853,0.2814 -0.5048,0.4669 -0.1187,0.1856 -0.1808,0.7902 -0.1808,1.8139l0 6.7797c0,0.9859 0.0526,1.5757 0.1525,1.7666 0.1046,0.1903 0.2618,0.357 0.4811,0.4994 0.2187,0.143 0.6519,0.2193 1.3044,0.2193l0 0.5142 -6.1798 0 0 -0.5142c0.7713,0 1.2902,-0.1431 1.5521,-0.4285 0.2571,-0.2807 0.39,-0.9663 0.39,-2.0568l0 -8.8696zm5.0468 -0.9096l5.9557 0 0 0.5189 -0.2901 0c-0.4191,0 -0.7335,0.0904 -0.9427,0.2713 -0.2092,0.1808 -0.3145,0.4049 -0.3145,0.6761 0,0.3617 0.1525,0.8665 0.4623,1.5048l3.1087 6.4464 2.8612 -7.0557c0.1572,-0.386 0.2334,-0.7618 0.2334,-1.1337 0,-0.1666 -0.033,-0.2901 -0.0951,-0.3758 -0.0763,-0.0999 -0.1903,-0.1809 -0.3475,-0.243 -0.162,-0.062 -0.438,-0.0904 -0.8381,-0.0904l0 -0.5189 4.1567 0 0 0.5189c-0.3428,0.0385 -0.61,0.1093 -0.7956,0.2241 -0.1855,0.1093 -0.39,0.3185 -0.614,0.6282 -0.0857,0.1289 -0.243,0.4859 -0.4758,1.0716l-5.1993 12.7496c-0.5047,1.2383 -1.162,2.1709 -1.9758,2.8045 -0.8144,0.633 -1.5952,0.9474 -2.3516,0.9474 -0.5479,0 -1.0001,-0.1572 -1.3523,-0.4764 -0.3522,-0.3138 -0.5284,-0.6761 -0.5284,-1.0851 0,-0.3907 0.1282,-0.7051 0.3806,-0.9427 0.2571,-0.2382 0.6094,-0.3569 1.0567,-0.3569 0.3051,0 0.7241,0.1046 1.2525,0.309 0.3711,0.1384 0.6046,0.2099 0.6997,0.2099 0.276,0 0.581,-0.1478 0.9144,-0.4332 0.3286,-0.2909 0.6613,-0.8476 0.9946,-1.6762l0.9096 -2.214 -4.5899 -9.6409c-0.1424,-0.2861 -0.3617,-0.6478 -0.6708,-1.0716 -0.2334,-0.3286 -0.4237,-0.5472 -0.5715,-0.6566 -0.2146,-0.1477 -0.5574,-0.2814 -1.0331,-0.3907l0 -0.5189zm15.8307 3.6567c1.0715,-2.6857 2.8759,-4.0326 5.4132,-4.0326 1.776,0 3.2282,0.6661 4.3612,1.9947 1.1282,1.3328 1.695,2.8517 1.695,4.561 0,1.7666 -0.5715,3.3754 -1.7187,4.8181 -1.1424,1.4474 -2.6897,2.1715 -4.6419,2.1715 -1.9899,0 -3.5089,-0.8239 -4.5467,-2.4759 -1.0426,-1.6525 -1.5615,-3.6614 -1.5615,-6.0327 0,-1.8422 0.2665,-3.5609 0.8043,-5.1561 0.5426,-1.5946 1.1094,-2.7849 1.7046,-3.5751 0.5951,-0.7909 1.2807,-1.3665 2.0615,-1.7288 0.7854,-0.3664 2.1661,-0.5567 4.1466,-0.5709 1.4191,-0.0189 2.2808,-0.0621 2.5804,-0.1289 0.2956,-0.0661 0.581,-0.2524 0.8475,-0.5567l0.548 0c-0.3098,0.909 -0.6809,1.5615 -1.1188,1.9522 -0.438,0.39 -0.9049,0.6519 -1.4097,0.7902 -0.5,0.1329 -1.3995,0.2186 -2.6897,0.2571 -1.3948,0.0378 -2.3618,0.1424 -2.8949,0.3138 -0.5331,0.1714 -1.0904,0.5904 -1.666,1.2524 -0.5763,0.6667 -1.0284,1.5379 -1.3476,2.6189 -0.3192,1.0756 -0.5095,2.2518 -0.5668,3.5278zm4.9422 -3.0804c-0.9333,0 -1.6951,0.3853 -2.2903,1.1566 -0.5952,0.7713 -0.8901,1.9852 -0.8901,3.6378 0,2.2424 0.4002,3.9375 1.1998,5.0941 0.7997,1.1519 1.7235,1.7282 2.7755,1.7282 0.9669,0 1.7234,-0.4049 2.2808,-1.2046 0.5519,-0.8043 0.8279,-2.0898 0.8279,-3.8612 0,-1.8759 -0.3616,-3.4374 -1.0898,-4.6844 -0.724,-1.2477 -1.662,-1.8665 -2.8138,-1.8665zm8.9983 -0.5763l11.4216 0 0 0.5331c-0.6282,0 -1.052,0.0621 -1.2619,0.1856 -0.2091,0.1289 -0.3711,0.2814 -0.4953,0.4669 -0.1187,0.1856 -0.1808,0.7902 -0.1808,1.8139l0 6.7797c0,0.9859 0.0526,1.5757 0.1525,1.7666 0.1046,0.1903 0.2618,0.357 0.4811,0.4994 0.2187,0.143 0.6566,0.2193 1.3044,0.2193l0 0.5142 -6.6083 0 0 -0.5142c0.714,0 1.2093,-0.0378 1.4853,-0.1141 0.2712,-0.0715 0.4905,-0.2523 0.6478,-0.5384 0.1572,-0.2808 0.2375,-0.8948 0.2375,-1.8328l0 -8.8696 -4.2559 0 0 5.3843c0,2.0331 -0.0905,3.4664 -0.2713,4.2897 -0.1808,0.8192 -0.5385,1.4285 -1.0763,1.8239 -0.5331,0.3948 -1.1424,0.5952 -1.8327,0.5952 -1.1904,0 -1.7855,-0.4953 -1.7855,-1.4812 0,-0.3333 0.0951,-0.6093 0.2854,-0.8232 0.1903,-0.2099 0.4427,-0.3192 0.7477,-0.3192 0.3239,0 0.6282,0.1336 0.9049,0.4049 0.3664,0.3522 0.6376,0.5283 0.8232,0.5283 0.4191,0 0.7241,-0.3475 0.9144,-1.052 0.1903,-0.7004 0.2854,-1.9333 0.2854,-3.6898l0 -2.8186c0,-1.4475 -0.1046,-2.3328 -0.3145,-2.6473 -0.2091,-0.3191 -0.7422,-0.5094 -1.6087,-0.5715l0 -0.5331zm16.93 8.8459l5.5272 -6.389c-0.0189,-0.7146 -0.1572,-1.2139 -0.4042,-1.4906 -0.2524,-0.2807 -0.6856,-0.4238 -1.3003,-0.4332l0 -0.5331 5.9422 0 0 0.5331c-0.6242,0 -1.0426,0.0621 -1.2524,0.1856 -0.2139,0.1289 -0.3853,0.2814 -0.5048,0.4669 -0.1187,0.1856 -0.1808,0.7902 -0.1808,1.8139l0 6.7797c0,0.9859 0.0526,1.5757 0.1525,1.7666 0.1046,0.1903 0.2618,0.357 0.4811,0.4994 0.2187,0.143 0.6519,0.2193 1.3044,0.2193l0 0.5142 -6.1798 0 0 -0.5142c0.7713,0 1.2902,-0.1431 1.5521,-0.4285 0.2571,-0.2807 0.39,-0.9663 0.39,-2.0568l0 -6.0131 -5.5272 6.4038c0.0188,0.7902 0.1329,1.3327 0.338,1.633 0.2045,0.2949 0.6424,0.4521 1.3233,0.4616l0 0.5142 -5.8991 0 0 -0.5142c0.8287,0 1.3571,-0.1525 1.5905,-0.4569 0.2335,-0.3002 0.3476,-0.9764 0.3476,-2.0284l0 -6.7797c0,-0.9953 -0.0527,-1.5804 -0.1526,-1.7619 -0.1045,-0.1809 -0.2618,-0.3475 -0.4757,-0.4899 -0.2146,-0.1431 -0.6525,-0.2146 -1.3098,-0.2146l0 -0.5331 6.1805 0 0 0.5331c-0.6242,0 -1.0432,0.0621 -1.2572,0.1856 -0.2145,0.1289 -0.3812,0.2814 -0.5047,0.4669 -0.1188,0.1856 -0.1808,0.7902 -0.1808,1.8139l0 5.8464zm24.1191 3.9328l-3.766 0c-1.1714,-1.6998 -2.2329,-3.4469 -3.1803,-5.2324 -0.224,-0.4096 -0.4238,-0.714 -0.6093,-0.9144 -0.1809,-0.1997 -0.4285,-0.2996 -0.743,-0.2996 -0.114,0 -0.2902,0.0095 -0.5331,0.0284l0 3.4185c0,0.9191 0.0574,1.5095 0.162,1.7666 0.1093,0.2524 0.2996,0.438 0.581,0.5473 0.276,0.114 0.747,0.1714 1.4089,0.1714l0 0.5142 -6.3896 0 0 -0.5142c0.8287,0 1.357,-0.1525 1.5905,-0.4569 0.2335,-0.3002 0.3475,-0.9764 0.3475,-2.0284l0 -6.7797c0,-0.9953 -0.0526,-1.5804 -0.1525,-1.7619 -0.1046,-0.1809 -0.2618,-0.3475 -0.4757,-0.4899 -0.2146,-0.1431 -0.6525,-0.2146 -1.3098,-0.2146l0 -0.5331 6.3896 0 0 0.5331c-0.776,0 -1.2524,0.0526 -1.4332,0.1667 -0.1809,0.1093 -0.3428,0.2476 -0.4953,0.4096 -0.1471,0.1619 -0.2234,0.7949 -0.2234,1.8901l0 2.5136c0.2139,0.0196 0.3617,0.0243 0.4332,0.0243 0.5669,0 1.1,-0.1572 1.6,-0.4811 0.4946,-0.3192 0.9379,-1.0001 1.328,-2.0426 0.3664,-0.9853 0.6667,-1.6472 0.9001,-1.9947 0.2376,-0.3428 0.5709,-0.6236 0.99,-0.8429 0.4237,-0.2186 0.8711,-0.3286 1.3334,-0.3286 0.5047,0 0.9042,0.1242 1.1997,0.3617 0.2997,0.2429 0.4474,0.5621 0.4474,0.9528 0,0.3232 -0.1093,0.5999 -0.3191,0.828 -0.214,0.2287 -0.5142,0.3428 -0.8948,0.3428 -0.2052,0 -0.4623,-0.0567 -0.7666,-0.1714 -0.3907,-0.1377 -0.6903,-0.2045 -0.8954,-0.2045 -0.4238,0 -0.7808,0.3664 -1.0568,1.0999 -0.3191,0.8476 -0.5472,1.3901 -0.6997,1.6378 -0.1478,0.2476 -0.4332,0.5756 -0.8476,0.9852 0.2855,0.081 0.5999,0.2956 0.938,0.6431 0.3428,0.3428 0.971,1.3233 1.8901,2.9421 0.7382,1.2902 1.2855,2.1094 1.6519,2.4522 0.3718,0.3475 0.9002,0.5284 1.5999,0.5473l0 0.5142zm7.8654 -1.8422c-1.3091,1.0135 -2.133,1.5993 -2.4711,1.7565 -0.5,0.2335 -1.0331,0.3522 -1.5999,0.3522 -0.8853,0 -1.6134,-0.3043 -2.185,-0.9089 -0.5715,-0.6053 -0.857,-1.4002 -0.857,-2.3854 0,-0.6242 0.1377,-1.1621 0.4191,-1.6189 0.3806,-0.6282 1.0425,-1.2234 1.9852,-1.7855 0.9427,-0.5567 2.5136,-1.2329 4.7087,-2.0332l0 -0.5047c0,-1.2707 -0.2004,-2.1472 -0.6046,-2.623 -0.4049,-0.4717 -0.9953,-0.7092 -1.7666,-0.7092 -0.5857,0 -1.052,0.1566 -1.3948,0.4757 -0.3522,0.3145 -0.5284,0.6762 -0.5284,1.0858l0.0284 0.8091c0,0.4285 -0.1093,0.7571 -0.3286,0.9906 -0.2187,0.2328 -0.5048,0.3475 -0.857,0.3475 -0.3476,0 -0.6283,-0.1194 -0.8476,-0.3617 -0.2186,-0.2429 -0.3279,-0.5715 -0.3279,-0.9906 0,-0.7996 0.4089,-1.5331 1.2281,-2.2046 0.8185,-0.666 1.9664,-1.0041 3.4468,-1.0041 1.133,0 2.0615,0.1903 2.7903,0.5709 0.5473,0.2909 0.9522,0.743 1.214,1.357 0.1667,0.4002 0.2476,1.214 0.2476,2.4523l0 4.3369c0,1.2187 0.0236,1.9664 0.0709,2.2424 0.0479,0.2719 0.1241,0.4575 0.2287,0.5479 0.1094,0.0951 0.2335,0.1424 0.3712,0.1424 0.1478,0 0.2814,-0.0331 0.3907,-0.0999 0.195,-0.1188 0.5715,-0.4616 1.1282,-1.0189l0 0.7814c-1.0378,1.3948 -2.0331,2.0946 -2.9853,2.0946 -0.4521,0 -0.8138,-0.1573 -1.085,-0.4765 -0.2713,-0.3137 -0.4096,-0.8569 -0.4191,-1.6181zm0 -0.9049l0 -4.8707c-1.4049,0.5621 -2.3091,0.9568 -2.7187,1.1856 -0.7376,0.4096 -1.2619,0.8381 -1.5757,1.2855 -0.3191,0.4474 -0.4764,0.9332 -0.4764,1.4663 0,0.6667 0.2004,1.2234 0.5999,1.6668 0.4002,0.4379 0.8617,0.6613 1.3807,0.6613 0.7098,0 1.6377,-0.4663 2.7902,-1.3948z"/>
 </g>
 <g id="Слой_x0020_Интернета">
  <metadata id="CorelCorpID_1Corel-Layer"/>
  <g id="_65016632">
   <path id="_133481928" class="fil1" d="M33.055 99.2113l0 6.1266c0,1.3239 0.1486,2.1443 0.4398,2.4678 0.3918,0.4555 0.9847,0.683 1.7795,0.683l0.8099 0 0 0.5719 -9.0126 0 0 -0.5719 0.7888 0c0.8894,0 1.5251,-0.2913 1.9064,-0.8684 0.2064,-0.3228 0.3122,-1.0853 0.3122,-2.2824l0 -13.593c0,-1.3239 -0.1373,-2.145 -0.418,-2.4625 -0.4031,-0.4556 -1.0065,-0.683 -1.8006,-0.683l-0.7888 0 0 -0.5779 7.7096 0c1.8802,0 3.3632,0.1966 4.4485,0.5831 1.0906,0.3866 2.0018,1.0433 2.7486,1.9642 0.7468,0.9217 1.1168,2.0122 1.1168,3.2724 0,1.7157 -0.5659,3.1139 -1.6993,4.1887 -1.1333,1.0755 -2.7327,1.6152 -4.8035,1.6152 -0.5029,0 -1.0538,-0.0368 -1.6414,-0.1111 -0.5877,-0.0743 -1.2234,-0.1801 -1.8959,-0.3227zm0 -0.8842c0.5509,0.1006 1.038,0.1794 1.462,0.2327 0.4233,0.0473 0.7836,0.0743 1.0853,0.0743 1.0748,0 2.0017,-0.4136 2.7853,-1.2497 0.7783,-0.8316 1.1701,-1.9063 1.1701,-3.2303 0,-0.9111 -0.1854,-1.7585 -0.5554,-2.5368 -0.376,-0.7836 -0.9006,-1.366 -1.5836,-1.7525 -0.683,-0.3918 -1.4614,-0.5824 -2.3297,-0.5824 -0.5247,0 -1.2024,0.0953 -2.034,0.2912l0 8.7535zm18.3119 -3.8975c2.1503,0 3.8766,0.8203 5.1848,2.4512 1.1063,1.3983 1.6572,3.0029 1.6572,4.8087 0,1.2759 -0.307,2.5631 -0.9164,3.8653 -0.6087,1.3029 -1.4508,2.2876 -2.5204,2.9496 -1.0695,0.662 -2.2614,0.9907 -3.5748,0.9907 -2.1444,0 -3.8443,-0.8526 -5.1045,-2.5578 -1.0643,-1.4403 -1.5994,-3.0555 -1.5994,-4.8402 0,-1.3082 0.3234,-2.5999 0.9689,-3.8871 0.6462,-1.2864 1.4989,-2.2396 2.5526,-2.8543 1.0538,-0.6192 2.1714,-0.9261 3.352,-0.9261zm-0.4819 1.0109c-0.5456,0 -1.0958,0.1592 -1.6519,0.4871 -0.5509,0.3288 -1.0013,0.8954 -1.3398,1.7158 -0.3445,0.8158 -0.5141,1.8643 -0.5141,3.1455 0,2.0707 0.4136,3.8555 1.2339,5.3536 0.8211,1.4988 1.9064,2.2508 3.2514,2.2508 1.0012,0 1.8276,-0.4128 2.4836,-1.2391 0.6515,-0.8316 0.975,-2.2509 0.975,-4.2683 0,-2.5256 -0.5404,-4.5115 -1.631,-5.957 -0.731,-0.996 -1.6685,-1.4884 -2.8071,-1.4884zm22.2786 8.2184c-0.3812,1.8749 -1.1333,3.3152 -2.2509,4.3216 -1.1168,1.011 -2.3507,1.5146 -3.7069,1.5146 -1.6145,0 -3.0232,-0.6785 -4.2204,-2.0339 -1.2016,-1.3555 -1.8005,-3.1823 -1.8005,-5.491 0,-2.2351 0.6672,-4.0514 1.9964,-5.4436 1.3292,-1.3983 2.9234,-2.097 4.7818,-2.097 1.3983,0 2.5473,0.3707 3.448,1.1115 0.8999,0.7363 1.3502,1.5041 1.3502,2.3034 0,0.3926 -0.1275,0.71 -0.3812,0.9532 -0.2545,0.2439 -0.6095,0.3655 -1.0643,0.3655 -0.6095,0 -1.0703,-0.1959 -1.3825,-0.5877 -0.1749,-0.2169 -0.2912,-0.6357 -0.3445,-1.2443 -0.0578,-0.6087 -0.2695,-1.0748 -0.6297,-1.3983 -0.3656,-0.307 -0.8632,-0.4601 -1.5041,-0.4601 -1.0381,0 -1.8697,0.3813 -2.4994,1.1438 -0.8368,1.0163 -1.2549,2.356 -1.2549,4.0192 0,1.6939 0.4128,3.1928 1.2497,4.4904 0.8316,1.297 1.9536,1.9484 3.3729,1.9484 1.0118,0 1.9222,-0.3437 2.7275,-1.038 0.572,-0.4765 1.1229,-1.3397 1.6625,-2.5946l0.4503 0.2169zm14.1021 0c-0.3812,1.8749 -1.1333,3.3152 -2.2509,4.3216 -1.1168,1.011 -2.3507,1.5146 -3.7069,1.5146 -1.6145,0 -3.0233,-0.6785 -4.2204,-2.0339 -1.2016,-1.3555 -1.8005,-3.1823 -1.8005,-5.491 0,-2.2351 0.6672,-4.0514 1.9964,-5.4436 1.3292,-1.3983 2.9234,-2.097 4.7818,-2.097 1.3982,0 2.5473,0.3707 3.448,1.1115 0.8999,0.7363 1.3502,1.5041 1.3502,2.3034 0,0.3926 -0.1275,0.71 -0.3812,0.9532 -0.2545,0.2439 -0.6095,0.3655 -1.0643,0.3655 -0.6095,0 -1.0703,-0.1959 -1.3825,-0.5877 -0.1749,-0.2169 -0.2912,-0.6357 -0.3445,-1.2443 -0.0578,-0.6087 -0.2695,-1.0748 -0.6297,-1.3983 -0.3656,-0.307 -0.8632,-0.4601 -1.5041,-0.4601 -1.0381,0 -1.8697,0.3813 -2.4994,1.1438 -0.8368,1.0163 -1.2549,2.356 -1.2549,4.0192 0,1.6939 0.4128,3.1928 1.2497,4.4904 0.8316,1.297 1.9536,1.9484 3.3729,1.9484 1.0118,0 1.9222,-0.3437 2.7275,-1.038 0.572,-0.4765 1.1229,-1.3397 1.6625,-2.5946l0.4503 0.2169zm5.6449 -16.6589c0.4346,0 0.8054,0.1531 1.1123,0.4556 0.3018,0.3069 0.4556,0.6777 0.4556,1.1115 0,0.4346 -0.1538,0.8053 -0.4556,1.1176 -0.3069,0.3069 -0.6777,0.4661 -1.1123,0.4661 -0.4338,0 -0.8046,-0.1592 -1.1168,-0.4661 -0.3077,-0.3123 -0.4661,-0.683 -0.4661,-1.1176 0,-0.4338 0.1531,-0.8046 0.4609,-1.1115 0.3017,-0.3025 0.6777,-0.4556 1.122,-0.4556zm1.2872 7.4296l0 11.4217c0,0.8901 0.0631,1.4778 0.1959,1.7742 0.1269,0.2965 0.3175,0.5134 0.5719,0.662 0.2537,0.1426 0.7198,0.2169 1.3923,0.2169l0 0.5562 -6.9051 0 0 -0.5562c0.6936,0 1.1596,-0.069 1.3931,-0.2064 0.2379,-0.1321 0.4285,-0.355 0.5666,-0.6672 0.1426,-0.307 0.2117,-0.8999 0.2117,-1.7795l0 -5.4805c0,-1.5408 -0.048,-2.5368 -0.1381,-2.9916 -0.0736,-0.334 -0.1907,-0.5614 -0.3438,-0.689 -0.1538,-0.1321 -0.3655,-0.1959 -0.6357,-0.1959 -0.2912,0 -0.641,0.0796 -1.0538,0.2334l-0.2169 -0.5614 4.2789 -1.7367 0.683 0zm6.3497 -5.2748c0,-0.3595 0.1006,-0.6507 0.3017,-0.8736 0.2012,-0.2222 0.4556,-0.3333 0.7678,-0.3333 0.683,0 1.2865,0.6402 1.8111,1.9222 0.3017,0.725 0.6462,1.1753 1.0328,1.3554 0.3917,0.1854 0.7678,0.2755 1.1438,0.2755 0.6515,0 1.1386,-0.1434 1.4718,-0.4233 0.3288,-0.2755 0.641,-0.7791 0.9322,-1.5041 0.4346,-1.0755 0.9637,-1.6099 1.5942,-1.6099 0.3122,0 0.5772,0.1111 0.7941,0.3332 0.2169,0.2229 0.3227,0.4984 0.3227,0.8264 0,0.7993 -0.5186,1.5356 -1.5619,2.2186 -1.0485,0.683 -2.2186,1.0274 -3.5268,1.0274 -1.7053,0 -2.9812,-0.3122 -3.8233,-0.9321 -0.8422,-0.6192 -1.2602,-1.3818 -1.2602,-2.2824zm2.0122 15.5316l6.1478 -7.1061c-0.021,-0.7948 -0.1749,-1.3502 -0.4496,-1.6579 -0.2807,-0.3122 -0.7626,-0.4713 -1.4463,-0.4819l0 -0.5929 6.6093 0 0 0.5929c-0.6942,0 -1.1596,0.0691 -1.393,0.2064 -0.2379,0.1434 -0.4286,0.313 -0.5614,0.5194 -0.1321,0.2064 -0.2011,0.8789 -0.2011,2.0175l0 7.5406c0,1.0966 0.0585,1.7525 0.1696,1.9649 0.1163,0.2117 0.2912,0.3971 0.5351,0.5554 0.2432,0.1591 0.7251,0.244 1.4508,0.244l0 0.5719 -6.8735 0 0 -0.5719c0.8579,0 1.435,-0.1592 1.7263,-0.4766 0.2859,-0.3123 0.4338,-1.0748 0.4338,-2.2877l0 -6.688 -6.1478 7.1226c0.021,0.8789 0.1479,1.4823 0.376,1.8163 0.2275,0.328 0.7146,0.5028 1.4719,0.5134l0 0.5719 -6.5613 0 0 -0.5719c0.9216,0 1.5093,-0.1697 1.769,-0.5082 0.2597,-0.334 0.3865,-1.086 0.3865,-2.2561l0 -7.5406c0,-1.1071 -0.0585,-1.7578 -0.1696,-1.9597 -0.1163,-0.2011 -0.2912,-0.3865 -0.5291,-0.5449 -0.2387,-0.1591 -0.7258,-0.2387 -1.4568,-0.2387l0 -0.5929 6.8742 0 0 0.5929c-0.6942,0 -1.1603,0.0691 -1.3982,0.2064 -0.2387,0.1434 -0.4241,0.313 -0.5614,0.5194 -0.1321,0.2064 -0.2012,0.8789 -0.2012,2.0175l0 6.5026zm24.6398 -1.0275c-0.3812,1.8749 -1.1333,3.3152 -2.2509,4.3216 -1.1168,1.011 -2.3507,1.5146 -3.7069,1.5146 -1.6145,0 -3.0232,-0.6785 -4.2204,-2.0339 -1.2016,-1.3555 -1.8005,-3.1823 -1.8005,-5.491 0,-2.2351 0.6672,-4.0514 1.9964,-5.4436 1.3292,-1.3983 2.9234,-2.097 4.7818,-2.097 1.3983,0 2.5473,0.3707 3.448,1.1115 0.8999,0.7363 1.3502,1.5041 1.3502,2.3034 0,0.3926 -0.1275,0.71 -0.3812,0.9532 -0.2545,0.2439 -0.6095,0.3655 -1.0643,0.3655 -0.6095,0 -1.0703,-0.1959 -1.3825,-0.5877 -0.1749,-0.2169 -0.2912,-0.6357 -0.3445,-1.2443 -0.0578,-0.6087 -0.2695,-1.0748 -0.6297,-1.3983 -0.3656,-0.307 -0.8632,-0.4601 -1.5041,-0.4601 -1.0381,0 -1.8697,0.3813 -2.4994,1.1438 -0.8368,1.0163 -1.2549,2.356 -1.2549,4.0192 0,1.6939 0.4128,3.1928 1.2497,4.4904 0.8316,1.297 1.9536,1.9484 3.3729,1.9484 1.0118,0 1.9222,-0.3437 2.7275,-1.038 0.572,-0.4765 1.1229,-1.3397 1.6625,-2.5946l0.4503 0.2169zm16.2892 5.4017l-4.1888 0c-1.3029,-1.8906 -2.4836,-3.8338 -3.5373,-5.8197 -0.2492,-0.4556 -0.4714,-0.7941 -0.6778,-1.017 -0.2011,-0.2221 -0.4766,-0.3332 -0.8263,-0.3332 -0.1269,0 -0.3228,0.0105 -0.593,0.0315l0 3.8022c0,1.0223 0.0638,1.679 0.1802,1.9649 0.1216,0.2807 0.3332,0.4871 0.6462,0.6087 0.307,0.1269 0.8309,0.1907 1.5671,0.1907l0 0.5719 -7.1069 0 0 -0.5719c0.9217,0 1.5093,-0.1697 1.769,-0.5082 0.2597,-0.334 0.3866,-1.086 0.3866,-2.2561l0 -7.5406c0,-1.1071 -0.0586,-1.7578 -0.1697,-1.9597 -0.1163,-0.2011 -0.2912,-0.3865 -0.5291,-0.5449 -0.2387,-0.1591 -0.7258,-0.2387 -1.4568,-0.2387l0 -0.5929 7.1069 0 0 0.5929c-0.8631,0 -1.393,0.0586 -1.5941,0.1854 -0.2012,0.1216 -0.3813,0.2755 -0.5509,0.4556 -0.1636,0.1801 -0.2485,0.8841 -0.2485,2.1023l0 2.7957c0.238,0.0218 0.4023,0.027 0.4819,0.027 0.6305,0 1.2234,-0.1748 1.7795,-0.5351 0.5502,-0.355 1.0433,-1.1123 1.4771,-2.2719 0.4076,-1.0958 0.7416,-1.832 1.0013,-2.2186 0.2642,-0.3812 0.6349,-0.6935 1.101,-0.9374 0.4714,-0.2432 0.969,-0.3655 1.4831,-0.3655 0.5614,0 1.0058,0.1381 1.3345,0.4023 0.3332,0.2702 0.4976,0.6252 0.4976,1.0598 0,0.3595 -0.1216,0.6672 -0.355,0.9209 -0.2379,0.2544 -0.5719,0.3812 -0.9952,0.3812 -0.2282,0 -0.5142,-0.063 -0.8527,-0.1906 -0.4345,-0.1531 -0.7678,-0.2274 -0.9959,-0.2274 -0.4714,0 -0.8684,0.4075 -1.1754,1.2234 -0.355,0.9426 -0.6087,1.5461 -0.7783,1.8215 -0.1644,0.2755 -0.4819,0.6402 -0.9427,1.0958 0.3175,0.0901 0.6672,0.3287 1.0432,0.7153 0.3813,0.3812 1.0801,1.4718 2.1023,3.2723 0.8211,1.435 1.4298,2.3462 1.8374,2.7275 0.4135,0.3865 1.0012,0.5876 1.7795,0.6087l0 0.5719zm8.7485 -2.049c-1.4561,1.1273 -2.3725,1.7788 -2.7486,1.9536 -0.5561,0.2597 -1.149,0.3918 -1.7795,0.3918 -0.9847,0 -1.7946,-0.3385 -2.4303,-1.011 -0.6357,-0.6732 -0.9532,-1.5573 -0.9532,-2.6531 0,-0.6943 0.1531,-1.2924 0.4661,-1.8005 0.4233,-0.6988 1.1596,-1.3608 2.2081,-1.986 1.0485,-0.6192 2.7958,-1.3712 5.2374,-2.2613l0 -0.5614c0,-1.4133 -0.2229,-2.3883 -0.6725,-2.9174 -0.4504,-0.5246 -1.1071,-0.7888 -1.965,-0.7888 -0.6514,0 -1.1701,0.1741 -1.5514,0.5291 -0.3917,0.3498 -0.5876,0.7521 -0.5876,1.2076l0.0315 0.8999c0,0.4766 -0.1216,0.8421 -0.3655,1.1018 -0.2432,0.259 -0.5614,0.3866 -0.9532,0.3866 -0.3866,0 -0.6988,-0.1329 -0.9427,-0.4023 -0.2432,-0.2702 -0.3648,-0.6357 -0.3648,-1.1018 0,-0.8894 0.4548,-1.7052 1.366,-2.452 0.9104,-0.7408 2.1871,-1.1168 3.8338,-1.1168 1.2602,0 2.293,0.2116 3.1035,0.6349 0.6087,0.3235 1.0591,0.8264 1.3503,1.5094 0.1854,0.445 0.2754,1.3502 0.2754,2.7274l0 4.8237c0,1.3555 0.0263,2.1871 0.0789,2.4941 0.0532,0.3024 0.1381,0.5088 0.2544,0.6094 0.1216,0.1058 0.2597,0.1584 0.4128,0.1584 0.1644,0 0.313,-0.0368 0.4346,-0.1111 0.2169,-0.1321 0.6357,-0.5134 1.2549,-1.1333l0 0.8691c-1.1544,1.5514 -2.2614,2.3297 -3.3205,2.3297 -0.5028,0 -0.9051,-0.1749 -1.2068,-0.5299 -0.3018,-0.349 -0.4556,-0.9532 -0.4661,-1.7998zm0 -1.0065l0 -5.4174c-1.5627,0.6252 -2.5684,1.0643 -3.024,1.3187 -0.8204,0.4556 -1.4035,0.9322 -1.7525,1.4298 -0.355,0.4976 -0.5299,1.038 -0.5299,1.6309 0,0.7416 0.2229,1.3608 0.6672,1.8539 0.4451,0.4871 0.9585,0.7355 1.5356,0.7355 0.7896,0 1.8216,-0.5186 3.1036,-1.5514zm18.9581 -11.1575l0 0.5929c-0.6409,0 -1.1123,0.0849 -1.4193,0.265 -0.3069,0.1749 -0.5028,0.397 -0.5982,0.6672 -0.09,0.265 -0.1381,0.8736 -0.1381,1.8111l0 7.5406c0,0.8999 0.0428,1.4936 0.1216,1.7795 0.0848,0.2807 0.2807,0.5187 0.599,0.704 0.3175,0.1854 0.7941,0.2808 1.435,0.2808l0 0.5719 -6.8735 0 0 -0.5719c0.8579,0 1.435,-0.1592 1.721,-0.4766 0.2912,-0.3123 0.4338,-1.0748 0.4338,-2.2877l0 -3.0869 -0.635 0.0157c-0.09,0 -0.2596,-0.0052 -0.4931,-0.0157l-4.5325 6.4231 -3.5374 0 0 -0.5719c0.5186,0 0.8789,-0.0744 1.0801,-0.2117 0.2011,-0.1381 0.5771,-0.5982 1.1228,-1.372l3.3204 -4.6863c-2.3777,-0.8256 -3.5696,-2.097 -3.5696,-3.8023 0,-0.9584 0.4293,-1.7945 1.2819,-2.5045 0.8527,-0.7093 2.3087,-1.0643 4.369,-1.0643l6.3121 0zm-4.7187 1.1806c-0.4023,-0.1111 -0.7836,-0.1689 -1.1438,-0.1689 -1.0485,0 -1.8269,0.259 -2.3455,0.7731 -0.5141,0.5186 -0.7731,1.1333 -0.7731,1.8478 0,0.9112 0.3648,1.6632 1.1011,2.2667 0.731,0.5981 1.6572,0.8998 2.7748,0.8998 0.1163,0 0.2439,-0.0105 0.3865,-0.0315l0 -5.587zm32.5034 -8.4826l0.4826 7.1482 -0.4826 0c-0.6403,-2.1391 -1.5567,-3.6799 -2.7425,-4.6226 -1.1919,-0.9427 -2.6165,-1.414 -4.2842,-1.414 -1.3983,0 -2.6584,0.355 -3.7865,1.0642 -1.1281,0.7101 -2.0122,1.8381 -2.6585,3.3895 -0.6454,1.5513 -0.9689,3.484 -0.9689,5.7874 0,1.9011 0.3017,3.5538 0.9164,4.9513 0.6087,1.393 1.5251,2.4625 2.7538,3.2093 1.2226,0.7468 2.6209,1.1175 4.194,1.1175 1.366,0 2.5677,-0.2912 3.6162,-0.8789 1.0433,-0.5831 2.1924,-1.7427 3.4428,-3.4794l0.4818 0.3069c-1.0538,1.8749 -2.2877,3.2461 -3.6912,4.1145 -1.4088,0.8683 -3.0765,1.3029 -5.0152,1.3029 -3.484,0 -6.1845,-1.2917 -8.0969,-3.8818 -1.4238,-1.9221 -2.1391,-4.1887 -2.1391,-6.7938 0,-2.097 0.4714,-4.0297 1.4088,-5.7874 0.9427,-1.7586 2.2397,-3.1193 3.8871,-4.0882 1.652,-0.9637 3.4525,-1.4456 5.4062,-1.4456 1.5199,0 3.024,0.3701 4.5011,1.1116 0.4345,0.2282 0.7468,0.3445 0.9322,0.3445 0.2754,0 0.5193,-0.1006 0.7257,-0.2965 0.2702,-0.2754 0.4609,-0.6672 0.5772,-1.1596l0.5397 0zm10.0086 6.884c2.1503,0 3.8766,0.8203 5.1848,2.4512 1.1063,1.3983 1.6572,3.0029 1.6572,4.8087 0,1.2759 -0.307,2.5631 -0.9164,3.8653 -0.6087,1.3029 -1.4509,2.2876 -2.5204,2.9496 -1.0695,0.662 -2.2614,0.9907 -3.5749,0.9907 -2.1443,0 -3.8443,-0.8526 -5.1045,-2.5578 -1.0642,-1.4403 -1.5994,-3.0555 -1.5994,-4.8402 0,-1.3082 0.3235,-2.5999 0.969,-3.8871 0.6462,-1.2864 1.4988,-2.2396 2.5526,-2.8543 1.0538,-0.6192 2.1713,-0.9261 3.352,-0.9261zm-0.4819 1.0109c-0.5456,0 -1.0958,0.1592 -1.652,0.4871 -0.5509,0.3288 -1.0012,0.8954 -1.3397,1.7158 -0.3445,0.8158 -0.5141,1.8643 -0.5141,3.1455 0,2.0707 0.4135,3.8555 1.2339,5.3536 0.8211,1.4988 1.9064,2.2508 3.2514,2.2508 1.0012,0 1.8276,-0.4128 2.4835,-1.2391 0.6515,-0.8316 0.975,-2.2509 0.975,-4.2683 0,-2.5256 -0.5404,-4.5115 -1.6309,-5.957 -0.7311,-0.996 -1.6685,-1.4884 -2.8071,-1.4884zm24.7149 13.0482l0 4.5114 -0.5719 0c-0.0323,-1.2068 -0.4293,-2.1705 -1.1866,-2.8753 -0.7626,-0.7092 -2.1391,-1.0642 -4.1356,-1.0642l-9.6806 0 0 -0.5719c0.9217,0 1.5094,-0.1697 1.7691,-0.5082 0.2597,-0.334 0.3865,-1.086 0.3865,-2.2561l0 -7.5406c0,-1.1071 -0.0585,-1.7578 -0.1696,-1.9597 -0.1164,-0.2011 -0.2912,-0.3865 -0.5292,-0.5449 -0.2386,-0.1591 -0.7258,-0.2387 -1.4568,-0.2387l0 -0.5929 6.8743 0 0 0.5929c-0.6943,0 -1.1603,0.0691 -1.3983,0.2064 -0.2386,0.1434 -0.424,0.313 -0.5614,0.5194 -0.1321,0.2064 -0.2011,0.8789 -0.2011,2.0175l0 8.0225c0,0.9006 0.0848,1.4297 0.2432,1.5994 0.1591,0.1643 0.6724,0.2484 1.5416,0.2484l2.5151 0c0.9637,0 1.5093,-0.0893 1.6414,-0.2642 0.1381,-0.1749 0.2064,-0.7468 0.2064,-1.7105l0 -7.8956c0,-0.9795 -0.0525,-1.6152 -0.1583,-1.9011 -0.1006,-0.2807 -0.3025,-0.4924 -0.6042,-0.6358 -0.3017,-0.1373 -0.7678,-0.2064 -1.3976,-0.2064l0 -0.5929 6.8736 0 0 0.5929c-0.6943,0 -1.1596,0.0691 -1.393,0.2064 -0.238,0.1434 -0.4286,0.313 -0.5614,0.5194 -0.1321,0.2064 -0.2012,0.8789 -0.2012,2.0175l0 7.308c0,1.3344 0.1163,2.1547 0.355,2.467 0.2379,0.3129 0.8421,0.4878 1.8006,0.5299zm5.3214 -21.4887c0.4346,0 0.8053,0.1531 1.1123,0.4556 0.3017,0.3069 0.4556,0.6777 0.4556,1.1115 0,0.4346 -0.1539,0.8053 -0.4556,1.1176 -0.307,0.3069 -0.6777,0.4661 -1.1123,0.4661 -0.4338,0 -0.8046,-0.1592 -1.1168,-0.4661 -0.3077,-0.3123 -0.4661,-0.683 -0.4661,-1.1176 0,-0.4338 0.1531,-0.8046 0.4608,-1.1115 0.3017,-0.3025 0.6778,-0.4556 1.1221,-0.4556zm1.2872 7.4296l0 11.4217c0,0.8901 0.063,1.4778 0.1959,1.7742 0.1268,0.2965 0.3175,0.5134 0.5719,0.662 0.2537,0.1426 0.7198,0.2169 1.3923,0.2169l0 0.5562 -6.9051 0 0 -0.5562c0.6935,0 1.1596,-0.069 1.393,-0.2064 0.238,-0.1321 0.4286,-0.355 0.5667,-0.6672 0.1426,-0.307 0.2117,-0.8999 0.2117,-1.7795l0 -5.4805c0,-1.5408 -0.0481,-2.5368 -0.1381,-2.9916 -0.0736,-0.334 -0.1907,-0.5614 -0.3438,-0.689 -0.1539,-0.1321 -0.3655,-0.1959 -0.6357,-0.1959 -0.2912,0 -0.641,0.0796 -1.0538,0.2334l-0.2169 -0.5614 4.2789 -1.7367 0.683 0zm11.9788 12.582c-1.4561,1.1273 -2.3725,1.7788 -2.7485,1.9536 -0.5562,0.2597 -1.1491,0.3918 -1.7796,0.3918 -0.9847,0 -1.7946,-0.3385 -2.4303,-1.011 -0.6357,-0.6732 -0.9532,-1.5573 -0.9532,-2.6531 0,-0.6943 0.1531,-1.2924 0.4661,-1.8005 0.4233,-0.6988 1.1596,-1.3608 2.2081,-1.986 1.0486,-0.6192 2.7958,-1.3712 5.2374,-2.2613l0 -0.5614c0,-1.4133 -0.2229,-2.3883 -0.6725,-2.9174 -0.4503,-0.5246 -1.1071,-0.7888 -1.965,-0.7888 -0.6514,0 -1.1701,0.1741 -1.5513,0.5291 -0.3918,0.3498 -0.5877,0.7521 -0.5877,1.2076l0.0315 0.8999c0,0.4766 -0.1216,0.8421 -0.3655,1.1018 -0.2432,0.259 -0.5614,0.3866 -0.9532,0.3866 -0.3866,0 -0.6988,-0.1329 -0.9427,-0.4023 -0.2432,-0.2702 -0.3648,-0.6357 -0.3648,-1.1018 0,-0.8894 0.4549,-1.7052 1.366,-2.452 0.9104,-0.7408 2.1871,-1.1168 3.8338,-1.1168 1.2602,0 2.293,0.2116 3.1036,0.6349 0.6087,0.3235 1.059,0.8264 1.3502,1.5094 0.1854,0.445 0.2755,1.3502 0.2755,2.7274l0 4.8237c0,1.3555 0.0262,2.1871 0.0788,2.4941 0.0533,0.3024 0.1381,0.5088 0.2544,0.6094 0.1216,0.1058 0.2597,0.1584 0.4128,0.1584 0.1644,0 0.313,-0.0368 0.4346,-0.1111 0.2169,-0.1321 0.6357,-0.5134 1.2549,-1.1333l0 0.8691c-1.1544,1.5514 -2.2614,2.3297 -3.3204,2.3297 -0.5029,0 -0.9052,-0.1749 -1.2069,-0.5299 -0.3017,-0.349 -0.4556,-0.9532 -0.4661,-1.7998zm0 -1.0065l0 -5.4174c-1.5627,0.6252 -2.5684,1.0643 -3.024,1.3187 -0.8203,0.4556 -1.4035,0.9322 -1.7525,1.4298 -0.355,0.4976 -0.5299,1.038 -0.5299,1.6309 0,0.7416 0.2229,1.3608 0.6672,1.8539 0.4451,0.4871 0.9585,0.7355 1.5357,0.7355 0.7895,0 1.8215,-0.5186 3.1035,-1.5514zm7.7899 -11.1575l12.7039 0 0 0.5929c-0.6988,0 -1.1701,0.0691 -1.4036,0.2064 -0.2326,0.1434 -0.4128,0.313 -0.5509,0.5194 -0.1321,0.2064 -0.2011,0.8789 -0.2011,2.0175l0 7.5406c0,1.0966 0.0585,1.7525 0.1696,1.9649 0.1163,0.2117 0.2912,0.3971 0.5352,0.5554 0.2431,0.1591 0.7302,0.244 1.4508,0.244l0 0.5719 -7.3502 0 0 -0.5719c0.7941,0 1.345,-0.0421 1.652,-0.1269 0.3017,-0.0795 0.5456,-0.2807 0.7205,-0.5989 0.1749,-0.3122 0.2642,-0.9952 0.2642,-2.0385l0 -9.8651 -4.7337 0 0 5.9886c0,2.2614 -0.1006,3.8555 -0.3017,4.7712 -0.2012,0.9111 -0.599,1.5888 -1.1972,2.0287 -0.5929,0.439 -1.2706,0.6619 -2.0385,0.6619 -1.3239,0 -1.9859,-0.5509 -1.9859,-1.6474 0,-0.3708 0.1058,-0.6777 0.3175,-0.9156 0.2116,-0.2335 0.4923,-0.3551 0.8316,-0.3551 0.3602,0 0.6987,0.1487 1.0065,0.4504 0.4075,0.3918 0.7092,0.5876 0.9156,0.5876 0.4661,0 0.8054,-0.3865 1.017,-1.17 0.2117,-0.7791 0.3175,-2.1503 0.3175,-4.104l0 -3.135c0,-1.6099 -0.1163,-2.5946 -0.3497,-2.9443 -0.2327,-0.3551 -0.8256,-0.5667 -1.7894,-0.6358l0 -0.5929zm18.8306 9.8388l6.1478 -7.1061c-0.021,-0.7948 -0.1749,-1.3502 -0.4496,-1.6579 -0.2807,-0.3122 -0.7626,-0.4713 -1.4463,-0.4819l0 -0.5929 6.6093 0 0 0.5929c-0.6942,0 -1.1596,0.0691 -1.393,0.2064 -0.2379,0.1434 -0.4286,0.313 -0.5614,0.5194 -0.1321,0.2064 -0.2011,0.8789 -0.2011,2.0175l0 7.5406c0,1.0966 0.0585,1.7525 0.1696,1.9649 0.1163,0.2117 0.2912,0.3971 0.5351,0.5554 0.2432,0.1591 0.7251,0.244 1.4508,0.244l0 0.5719 -6.8735 0 0 -0.5719c0.8579,0 1.435,-0.1592 1.7263,-0.4766 0.2859,-0.3123 0.4338,-1.0748 0.4338,-2.2877l0 -6.688 -6.1478 7.1226c0.021,0.8789 0.1479,1.4823 0.376,1.8163 0.2275,0.328 0.7146,0.5028 1.4719,0.5134l0 0.5719 -6.5613 0 0 -0.5719c0.9216,0 1.5093,-0.1697 1.769,-0.5082 0.2597,-0.334 0.3865,-1.086 0.3865,-2.2561l0 -7.5406c0,-1.1071 -0.0585,-1.7578 -0.1696,-1.9597 -0.1163,-0.2011 -0.2912,-0.3865 -0.5291,-0.5449 -0.2387,-0.1591 -0.7258,-0.2387 -1.4568,-0.2387l0 -0.5929 6.8743 0 0 0.5929c-0.6943,0 -1.1604,0.0691 -1.3983,0.2064 -0.2387,0.1434 -0.4241,0.313 -0.5614,0.5194 -0.1321,0.2064 -0.2012,0.8789 -0.2012,2.0175l0 6.5026zm24.6398 -1.0275c-0.3812,1.8749 -1.1333,3.3152 -2.2509,4.3216 -1.1168,1.011 -2.3507,1.5146 -3.7069,1.5146 -1.6145,0 -3.0232,-0.6785 -4.2204,-2.0339 -1.2016,-1.3555 -1.8005,-3.1823 -1.8005,-5.491 0,-2.2351 0.6672,-4.0514 1.9964,-5.4436 1.3292,-1.3983 2.9234,-2.097 4.7818,-2.097 1.3983,0 2.5473,0.3707 3.448,1.1115 0.8999,0.7363 1.3503,1.5041 1.3503,2.3034 0,0.3926 -0.1276,0.71 -0.3813,0.9532 -0.2545,0.2439 -0.6095,0.3655 -1.0643,0.3655 -0.6095,0 -1.0703,-0.1959 -1.3825,-0.5877 -0.1749,-0.2169 -0.2912,-0.6357 -0.3445,-1.2443 -0.0578,-0.6087 -0.2695,-1.0748 -0.6297,-1.3983 -0.3656,-0.307 -0.8632,-0.4601 -1.5041,-0.4601 -1.0381,0 -1.8697,0.3813 -2.4994,1.1438 -0.8368,1.0163 -1.2549,2.356 -1.2549,4.0192 0,1.6939 0.4128,3.1928 1.2497,4.4904 0.8316,1.297 1.9537,1.9484 3.3729,1.9484 1.0118,0 1.9222,-0.3437 2.7275,-1.038 0.572,-0.4765 1.1229,-1.3397 1.6625,-2.5946l0.4503 0.2169zm1.8111 -8.8113l12.291 0 0.6192 3.8495 -0.6987 0c-0.1216,-0.7783 -0.328,-1.3765 -0.6192,-1.7998 -0.2912,-0.424 -0.62,-0.7047 -0.996,-0.8368 -0.3708,-0.1329 -1.0057,-0.2012 -1.9064,-0.2012l-1.2392 0 0 9.8651c0,1.0538 0.0638,1.7263 0.1907,2.0122 0.1328,0.2807 0.3392,0.4713 0.6304,0.5614 0.2913,0.0953 0.9532,0.1591 1.986,0.1907l0 0.5719 -7.7262 0 0 -0.5719c0.9953,-0.0211 1.631,-0.1854 1.9169,-0.4819 0.286,-0.3017 0.4233,-1.059 0.4233,-2.2824l0 -9.8651 -1.2706 0c-0.8894,0 -1.4936,0.0526 -1.8164,0.1637 -0.3182,0.1058 -0.6252,0.3655 -0.9216,0.773 -0.2965,0.4083 -0.5457,1.0433 -0.7521,1.9011l-0.6988 0 0.5877 -3.8495zm18.5401 9.8388l6.1478 -7.1061c-0.021,-0.7948 -0.1749,-1.3502 -0.4496,-1.6579 -0.2807,-0.3122 -0.7625,-0.4713 -1.4463,-0.4819l0 -0.5929 6.6093 0 0 0.5929c-0.6942,0 -1.1596,0.0691 -1.393,0.2064 -0.2379,0.1434 -0.4285,0.313 -0.5614,0.5194 -0.1321,0.2064 -0.2011,0.8789 -0.2011,2.0175l0 7.5406c0,1.0966 0.0585,1.7525 0.1696,1.9649 0.1163,0.2117 0.2912,0.3971 0.5351,0.5554 0.2432,0.1591 0.7251,0.244 1.4508,0.244l0 0.5719 -6.8735 0 0 -0.5719c0.8579,0 1.4351,-0.1592 1.7263,-0.4766 0.2859,-0.3123 0.4338,-1.0748 0.4338,-2.2877l0 -6.688 -6.1478 7.1226c0.021,0.8789 0.1479,1.4823 0.3761,1.8163 0.2274,0.328 0.7145,0.5028 1.4718,0.5134l0 0.5719 -6.5613 0 0 -0.5719c0.9216,0 1.5093,-0.1697 1.769,-0.5082 0.2597,-0.334 0.3866,-1.086 0.3866,-2.2561l0 -7.5406c0,-1.1071 -0.0586,-1.7578 -0.1697,-1.9597 -0.1163,-0.2011 -0.2912,-0.3865 -0.5291,-0.5449 -0.2387,-0.1591 -0.7258,-0.2387 -1.4568,-0.2387l0 -0.5929 6.8743 0 0 0.5929c-0.6943,0 -1.1604,0.0691 -1.3983,0.2064 -0.2387,0.1434 -0.4241,0.313 -0.5614,0.5194 -0.1321,0.2064 -0.2012,0.8789 -0.2012,2.0175l0 6.5026zm22.1248 -3.463l0 -3.0396c0,-0.9795 -0.0481,-1.6152 -0.1486,-1.9011 -0.0954,-0.2807 -0.2965,-0.4924 -0.6035,-0.6358 -0.3077,-0.1373 -0.7678,-0.2064 -1.3878,-0.2064l0 -0.5929 6.8736 0 0 0.5929c-0.704,0 -1.1701,0.0691 -1.4035,0.2064 -0.2327,0.1434 -0.4181,0.313 -0.5502,0.5194 -0.1381,0.2064 -0.2011,0.8789 -0.2011,2.0175l0 7.5406c0,0.9847 0.0472,1.6152 0.1426,1.9011 0.1005,0.286 0.3017,0.4976 0.6087,0.6462 0.3024,0.1426 0.7738,0.217 1.4035,0.217l0 0.5719 -7.2173 0 0 -0.5719c0.8309,-0.0316 1.3712,-0.0901 1.6257,-0.1644 0.2484,-0.0796 0.4601,-0.2755 0.6192,-0.5982 0.1591,-0.3227 0.2387,-0.9847 0.2387,-2.0017l0 -3.4735c-1.5199,0.7731 -3.1246,1.1649 -4.8088,1.1649 -0.9209,0 -1.6362,-0.1164 -2.1391,-0.3498 -0.5089,-0.2327 -0.8316,-0.5028 -0.9637,-0.8098 -0.1328,-0.3017 -0.2011,-0.8001 -0.2011,-1.4778l0 -2.5946c0,-0.9217 -0.0428,-1.5251 -0.1224,-1.8111 -0.0848,-0.2912 -0.2702,-0.5186 -0.5614,-0.683 -0.2912,-0.1696 -0.7198,-0.2492 -1.2864,-0.2492l0 -0.5929 6.6881 0 0 0.5929c-0.6935,0 -1.1596,0.0691 -1.3983,0.2064 -0.2379,0.1434 -0.4233,0.313 -0.5614,0.5194 -0.1321,0.2064 -0.2011,0.8789 -0.2011,2.0175l0 1.7525c0,0.6837 0.0533,1.1438 0.1486,1.3825 0.1006,0.2379 0.328,0.439 0.683,0.5981 0.355,0.1592 0.8631,0.2387 1.5146,0.2387 1.1281,0 2.1976,-0.3077 3.2094,-0.9322zm8.8159 -1.0222c-0.0105,2.1128 0.4984,3.7655 1.5364,4.9671 1.032,1.1971 2.2502,1.7953 3.6432,1.7953 0.9322,0 1.742,-0.2545 2.4303,-0.7678 0.6882,-0.5082 1.2601,-1.3878 1.7262,-2.6269l0.4819 0.3077c-0.2169,1.4193 -0.8474,2.7109 -1.8899,3.8705 -1.0485,1.1649 -2.3567,1.748 -3.9246,1.748 -1.7105,0 -3.1719,-0.662 -4.3847,-1.9912 -1.2174,-1.3292 -1.8216,-3.1192 -1.8216,-5.3648 0,-2.4302 0.6199,-4.3261 1.8696,-5.6816 1.2444,-1.3607 2.8063,-2.0444 4.6917,-2.0444 1.5942,0 2.9024,0.5246 3.9239,1.5783 1.0222,1.0485 1.5356,2.4521 1.5356,4.2098l-9.818 0zm0 -0.8999l6.5771 0c-0.0525,-0.9111 -0.1584,-1.5521 -0.328,-1.9221 -0.2544,-0.5772 -0.641,-1.0328 -1.1543,-1.3667 -0.5142,-0.328 -1.0485,-0.4976 -1.6047,-0.4976 -0.8579,0 -1.6257,0.3339 -2.3034,1.0012 -0.6778,0.6672 -1.0748,1.5986 -1.1867,2.7852z"/>
   <path id="_65148384" class="fil1" d="M378.933 103.659c-0.3813,1.8749 -1.1334,3.3152 -2.2509,4.3216 -1.1169,1.011 -2.3508,1.5146 -3.707,1.5146 -1.6144,0 -3.0232,-0.6785 -4.2204,-2.0339 -1.2016,-1.3555 -1.8005,-3.1823 -1.8005,-5.491 0,-2.2351 0.6672,-4.0514 1.9964,-5.4436 1.3293,-1.3983 2.9234,-2.097 4.7818,-2.097 1.3983,0 2.5474,0.3707 3.448,1.1115 0.8999,0.7363 1.3503,1.5041 1.3503,2.3034 0,0.3926 -0.1276,0.71 -0.3813,0.9532 -0.2544,0.2439 -0.6095,0.3655 -1.0643,0.3655 -0.6094,0 -1.0703,-0.1959 -1.3825,-0.5877 -0.1749,-0.2169 -0.2912,-0.6357 -0.3445,-1.2443 -0.0578,-0.6087 -0.2695,-1.0748 -0.6297,-1.3983 -0.3655,-0.307 -0.8632,-0.4601 -1.5041,-0.4601 -1.038,0 -1.8696,0.3813 -2.4994,1.1438 -0.8368,1.0163 -1.2549,2.356 -1.2549,4.0192 0,1.6939 0.4128,3.1928 1.2497,4.4904 0.8316,1.297 1.9537,1.9484 3.373,1.9484 1.0117,0 1.9221,-0.3437 2.7275,-1.038 0.5719,-0.4765 1.1228,-1.3397 1.6624,-2.5946l0.4504 0.2169zm16.2892 5.4017l-4.1889 0c-1.3029,-1.8906 -2.4835,-3.8338 -3.5373,-5.8197 -0.2492,-0.4556 -0.4713,-0.7941 -0.6778,-1.017 -0.2011,-0.2221 -0.4766,-0.3332 -0.8263,-0.3332 -0.1268,0 -0.3227,0.0105 -0.5929,0.0315l0 3.8022c0,1.0223 0.0638,1.679 0.1801,1.9649 0.1216,0.2807 0.3332,0.4871 0.6462,0.6087 0.307,0.1269 0.8309,0.1907 1.5672,0.1907l0 0.5719 -7.107 0 0 -0.5719c0.9217,0 1.5094,-0.1697 1.769,-0.5082 0.2597,-0.334 0.3866,-1.086 0.3866,-2.2561l0 -7.5406c0,-1.1071 -0.0586,-1.7578 -0.1696,-1.9597 -0.1164,-0.2011 -0.2913,-0.3865 -0.5292,-0.5449 -0.2387,-0.1591 -0.7258,-0.2387 -1.4568,-0.2387l0 -0.5929 7.107 0 0 0.5929c-0.8632,0 -1.3931,0.0586 -1.5942,0.1854 -0.2012,0.1216 -0.3813,0.2755 -0.5509,0.4556 -0.1636,0.1801 -0.2484,0.8841 -0.2484,2.1023l0 2.7957c0.2379,0.0218 0.4023,0.027 0.4818,0.027 0.6305,0 1.2234,-0.1748 1.7796,-0.5351 0.5501,-0.355 1.0432,-1.1123 1.4771,-2.2719 0.4075,-1.0958 0.7415,-1.832 1.0012,-2.2186 0.2642,-0.3812 0.635,-0.6935 1.101,-0.9374 0.4714,-0.2432 0.969,-0.3655 1.4831,-0.3655 0.5614,0 1.0058,0.1381 1.3345,0.4023 0.3333,0.2702 0.4976,0.6252 0.4976,1.0598 0,0.3595 -0.1216,0.6672 -0.355,0.9209 -0.2379,0.2544 -0.5719,0.3812 -0.9952,0.3812 -0.2282,0 -0.5141,-0.063 -0.8526,-0.1906 -0.4346,-0.1531 -0.7679,-0.2274 -0.996,-0.2274 -0.4714,0 -0.8684,0.4075 -1.1754,1.2234 -0.355,0.9426 -0.6087,1.5461 -0.7783,1.8215 -0.1644,0.2755 -0.4819,0.6402 -0.9427,1.0958 0.3175,0.0901 0.6672,0.3287 1.0433,0.7153 0.3812,0.3812 1.08,1.4718 2.1023,3.2723 0.8211,1.435 1.4298,2.3462 1.8373,2.7275 0.4136,0.3865 1.0012,0.5876 1.7796,0.6087l0 0.5719zm8.7484 -2.049c-1.4561,1.1273 -2.3725,1.7788 -2.7485,1.9536 -0.5562,0.2597 -1.1491,0.3918 -1.7796,0.3918 -0.9847,0 -1.7946,-0.3385 -2.4303,-1.011 -0.6357,-0.6732 -0.9532,-1.5573 -0.9532,-2.6531 0,-0.6943 0.1531,-1.2924 0.4661,-1.8005 0.4233,-0.6988 1.1596,-1.3608 2.2081,-1.986 1.0486,-0.6192 2.7958,-1.3712 5.2374,-2.2613l0 -0.5614c0,-1.4133 -0.2229,-2.3883 -0.6725,-2.9174 -0.4503,-0.5246 -1.1071,-0.7888 -1.9649,-0.7888 -0.6515,0 -1.1702,0.1741 -1.5514,0.5291 -0.3918,0.3498 -0.5877,0.7521 -0.5877,1.2076l0.0315 0.8999c0,0.4766 -0.1216,0.8421 -0.3655,1.1018 -0.2432,0.259 -0.5614,0.3866 -0.9532,0.3866 -0.3865,0 -0.6988,-0.1329 -0.9427,-0.4023 -0.2432,-0.2702 -0.3648,-0.6357 -0.3648,-1.1018 0,-0.8894 0.4549,-1.7052 1.366,-2.452 0.9104,-0.7408 2.1871,-1.1168 3.8338,-1.1168 1.2602,0 2.293,0.2116 3.1036,0.6349 0.6087,0.3235 1.059,0.8264 1.3502,1.5094 0.1854,0.445 0.2755,1.3502 0.2755,2.7274l0 4.8237c0,1.3555 0.0262,2.1871 0.0788,2.4941 0.0533,0.3024 0.1381,0.5088 0.2544,0.6094 0.1216,0.1058 0.2597,0.1584 0.4128,0.1584 0.1644,0 0.313,-0.0368 0.4346,-0.1111 0.2169,-0.1321 0.6357,-0.5134 1.2549,-1.1333l0 0.8691c-1.1543,1.5514 -2.2614,2.3297 -3.3204,2.3297 -0.5029,0 -0.9052,-0.1749 -1.2069,-0.5299 -0.3017,-0.349 -0.4556,-0.9532 -0.4661,-1.7998zm0 -1.0065l0 -5.4174c-1.5627,0.6252 -2.5684,1.0643 -3.024,1.3187 -0.8203,0.4556 -1.4035,0.9322 -1.7525,1.4298 -0.355,0.4976 -0.5299,1.038 -0.5299,1.6309 0,0.7416 0.2229,1.3608 0.6672,1.8539 0.4451,0.4871 0.9585,0.7355 1.5357,0.7355 0.7895,0 1.8215,-0.5186 3.1035,-1.5514zm18.9581 -11.1575l0 0.5929c-0.6409,0 -1.1123,0.0849 -1.4192,0.265 -0.307,0.1749 -0.5029,0.397 -0.5982,0.6672 -0.0901,0.265 -0.1381,0.8736 -0.1381,1.8111l0 7.5406c0,0.8999 0.0427,1.4936 0.1216,1.7795 0.0848,0.2807 0.2807,0.5187 0.5989,0.704 0.3175,0.1854 0.7941,0.2808 1.435,0.2808l0 0.5719 -6.8735 0 0 -0.5719c0.8579,0 1.4351,-0.1592 1.721,-0.4766 0.2912,-0.3123 0.4338,-1.0748 0.4338,-2.2877l0 -3.0869 -0.6349 0.0157c-0.0901,0 -0.2597,-0.0052 -0.4931,-0.0157l-4.5326 6.4231 -3.5374 0 0 -0.5719c0.5187,0 0.8789,-0.0744 1.0801,-0.2117 0.2011,-0.1381 0.5772,-0.5982 1.1228,-1.372l3.3204 -4.6863c-2.3777,-0.8256 -3.5696,-2.097 -3.5696,-3.8023 0,-0.9584 0.4293,-1.7945 1.282,-2.5045 0.8526,-0.7093 2.3087,-1.0643 4.3689,-1.0643l6.3121 0zm-4.7187 1.1806c-0.4023,-0.1111 -0.7835,-0.1689 -1.1438,-0.1689 -1.0485,0 -1.8268,0.259 -2.3455,0.7731 -0.5141,0.5186 -0.773,1.1333 -0.773,1.8478 0,0.9112 0.3647,1.6632 1.101,2.2667 0.7311,0.5981 1.6572,0.8998 2.7748,0.8998 0.1163,0 0.2439,-0.0105 0.3865,-0.0315l0 -5.587z"/>
  </g>
 </g>
</svg>
