<?xml version="1.0" encoding="UTF-8" standalone="no"?>
<svg
   xmlns:dc="http://purl.org/dc/elements/1.1/"
   xmlns:cc="http://web.resource.org/cc/"
   xmlns:rdf="http://www.w3.org/1999/02/22-rdf-syntax-ns#"
   xmlns:svg="http://www.w3.org/2000/svg"
   xmlns="http://www.w3.org/2000/svg"
   xmlns:sodipodi="http://sodipodi.sourceforge.net/DTD/sodipodi-0.dtd"
   xmlns:inkscape="http://www.inkscape.org/namespaces/inkscape"
   width="1000"
   height="500"
   viewBox="0 0 1000 500"
   id="svg2"
   sodipodi:version="0.32"
   inkscape:version="0.45.1"
   sodipodi:docname="Flag_of_Latvian_SSR_1919.svg"
   inkscape:output_extension="org.inkscape.output.svg.inkscape"
   sodipodi:docbase="C:\flags"
   version="1.0">
  <metadata
     id="metadata21">
    <rdf:RDF>
      <cc:Work
         rdf:about="">
        <dc:format>image/svg+xml</dc:format>
        <dc:type
           rdf:resource="http://purl.org/dc/dcmitype/StillImage" />
      </cc:Work>
    </rdf:RDF>
  </metadata>
  <defs
     id="defs19" />
  <sodipodi:namedview
     inkscape:window-height="577"
     inkscape:window-width="742"
     inkscape:pageshadow="2"
     inkscape:pageopacity="0.0"
     guidetolerance="10.0"
     gridtolerance="10.0"
     objecttolerance="10.0"
     borderopacity="1.0"
     bordercolor="#666666"
     pagecolor="#ffffff"
     id="base"
     inkscape:zoom="0.657"
     inkscape:cx="500"
     inkscape:cy="250"
     inkscape:window-x="53"
     inkscape:window-y="127"
     inkscape:current-layer="svg2"
     width="1000px"
     height="500px" />
  <rect
     x="0"
     y="0"
     width="1000"
     height="500"
     id="rect4"
     style="fill:#d91c1d" />
  <path
     d="M 116.26249,149.92392 L 66.538853,149.92392 L 66.538853,64.131927 L 77.947056,64.131927 L 77.947056,139.78329 L 116.26249,139.78329 L 116.26249,149.92392 z M 149.21952,151.47958 C 142.99683,151.47958 137.70566,150.83619 133.34598,149.54941 C 128.98627,148.26263 124.88585,146.67815 121.04471,144.79599 L 121.04471,130.50693 L 121.85135,130.50693 C 125.61567,134.0408 129.87933,136.77761 134.64237,138.71738 C 139.40537,140.65716 143.99553,141.62705 148.41288,141.62704 C 154.71232,141.62705 159.47533,140.31146 162.70194,137.68027 C 165.92845,135.0491 167.54173,131.58247 167.54178,127.28036 C 167.54173,123.86177 166.69668,121.07694 165.00663,118.92587 C 163.31648,116.77486 160.62768,115.18079 156.94022,114.14365 C 154.28979,113.37545 151.86987,112.74167 149.68045,112.24228 C 147.49097,111.74297 144.74455,111.07077 141.4412,110.22568 C 138.48349,109.45749 135.8331,108.478 133.49002,107.2872 C 131.14691,106.09649 129.07269,104.54083 127.26737,102.62021 C 125.50043,100.7381 124.12722,98.519837 123.14774,95.965424 C 122.16824,93.411118 121.6785,90.463042 121.6785,87.121185 C 121.6785,80.168781 124.3865,74.339848 129.80252,69.634369 C 135.21852,64.92905 142.13258,62.576351 150.54471,62.576263 C 155.34611,62.576351 159.88826,63.056494 164.17118,64.016693 C 168.454,64.977065 172.41998,66.34067 176.06913,68.107513 L 176.06913,81.762787 L 175.20487,81.762787 C 172.4776,79.266113 168.98216,77.086265 164.71854,75.223236 C 160.45482,73.360357 155.97989,72.42888 151.29374,72.428802 C 145.99292,72.42888 141.71005,73.667648 138.4451,76.145111 C 135.18011,78.622721 133.54762,81.878089 133.54764,85.911224 C 133.54762,89.560373 134.50791,92.460435 136.4285,94.61142 C 138.34905,96.762515 141.13388,98.337383 144.78299,99.336029 C 147.20288,99.989074 150.16056,100.72849 153.65604,101.55429 C 157.15144,102.38018 160.0515,103.13881 162.35624,103.83017 C 168.27155,105.63555 172.59283,108.36276 175.3201,112.01181 C 178.04725,115.66093 179.41086,120.15507 179.41092,125.49423 C 179.41086,128.83605 178.72906,132.13943 177.36551,135.40439 C 176.00185,138.66937 174.09088,141.435 171.6326,143.70126 C 168.86693,146.19801 165.746,148.11858 162.26981,149.46298 C 158.79353,150.80738 154.44344,151.47958 149.21952,151.47958 L 149.21952,151.47958 z M 245.15213,90.002045 C 245.15207,93.728012 244.48947,97.25226 243.16434,100.5748 C 241.83909,103.89744 240.00494,106.73028 237.6619,109.07333 C 234.70416,111.99264 231.22793,114.2013 227.23319,115.69931 C 223.23836,117.19739 218.18725,117.94641 212.07987,117.94638 L 202.40018,117.94638 L 202.40018,149.92392 L 190.99198,149.92392 L 190.99198,64.131927 L 212.54081,64.131927 C 217.61108,64.132013 221.93237,64.554539 225.50467,65.399506 C 229.07689,66.244641 232.22663,67.608247 234.95389,69.490326 C 238.14199,71.679857 240.63873,74.455082 242.44413,77.81601 C 244.2494,81.177081 245.15207,85.239089 245.15213,90.002045 L 245.15213,90.002045 z M 233.28299,90.290131 C 233.28294,87.332511 232.77399,84.758946 231.75614,82.569427 C 230.73819,80.380044 229.19213,78.593913 227.11795,77.211029 C 225.31257,76.020348 223.20955,75.175297 220.80887,74.675873 C 218.40812,74.1766 215.42163,73.926925 211.8494,73.926849 L 202.40018,73.926849 L 202.40018,108.20908 L 210.1785,108.20908 C 214.78784,108.20912 218.51375,107.83461 221.35624,107.08554 C 224.19864,106.33656 226.56094,105.00176 228.44315,103.08115 C 230.13321,101.35268 231.36237,99.47052 232.13065,97.434662 C 232.89883,95.398909 233.28294,93.017401 233.28299,90.290131 L 233.28299,90.290131 z M 322.41678,149.92392 L 307.60917,149.92392 L 280.41385,115.81454 L 267.39237,115.81454 L 267.39237,149.92392 L 255.98417,149.92392 L 255.98417,64.131927 L 278.10917,64.131927 C 283.0258,64.132013 287.14542,64.400893 290.46805,64.938568 C 293.7906,65.476413 296.94994,66.724784 299.94608,68.683685 C 302.94212,70.604338 305.31402,73.081874 307.0618,76.116302 C 308.80946,79.150878 309.68332,82.915198 309.68338,87.409271 C 309.68332,93.708807 308.08925,98.971171 304.90116,103.19638 C 301.71295,107.42168 297.37246,110.55221 291.87967,112.58798 L 322.41678,149.92392 z M 297.75663,88.273529 C 297.75658,85.776848 297.31484,83.558589 296.43143,81.618744 C 295.54792,79.679035 294.18431,78.094564 292.34061,76.865326 C 290.72729,75.789879 288.84513,75.031254 286.69413,74.589447 C 284.54305,74.147791 281.87345,73.926925 278.68534,73.926849 L 267.39237,73.926849 L 267.39237,106.30771 L 277.41776,106.30771 C 280.6827,106.30775 283.62117,106.01967 286.23319,105.44345 C 288.84513,104.86732 291.07299,103.67657 292.91678,101.87119 C 294.56843,100.25795 295.78799,98.337383 296.57547,96.109467 C 297.36286,93.881658 297.75658,91.269681 297.75663,88.273529 L 297.75663,88.273529 z "
     id="text2158"
     style="fill:#fddc00;fill-opacity:1" />
</svg>
