<svg xmlns="http://www.w3.org/2000/svg" width="1200" height="600" viewBox="0 0 317.5 158.75"><path fill="#af0c0d" fill-rule="evenodd" d="M-157.238 60.387H160.262V219.137H-157.238z" transform="translate(157.2381,-60.386906)"/><path fill="#fff" fill-rule="evenodd" d="M-157.238 60.387H-51.405V219.137H-157.238z" transform="translate(157.2381,-60.386906)"/><path fill="#fff" fill-rule="evenodd" d="M54.429 60.387H160.262V219.137H54.429z" transform="translate(157.2381,-60.386906)"/><path class="fil9" d="M 25.84347,181.60051 C 9.6220155,184.05262 -7.2521598,176.89678 -16.452175,162.07706 -28.774573,142.22768 -22.670486,116.1375 -2.8210989,103.81513 6.0653505,98.298456 16.20216,96.477557 25.79483,97.927176 c -4.914908,0.745479 -9.780566,2.372654 -14.370718,4.951774 -20.3679795,11.44462 -27.604271,37.24415 -16.1592561,57.61186 6.6447806,11.82594 18.1286961,19.2231 30.5786141,21.1097 z" clip-rule="evenodd" fill="#fff" fill-rule="evenodd" image-rendering="optimizeQuality" shape-rendering="geometricPrecision" text-rendering="geometricPrecision" transform="translate(157.2381,-60.386906)"/><path class="fil9" d="m -79.989858,181.60051 c -16.22146,2.45211 -33.095622,-4.70373 -42.295642,-19.52345 -12.3224,-19.84938 -6.21831,-45.93956 13.63108,-58.26193 8.886446,-5.516673 19.023252,-7.337572 28.615922,-5.887953 -4.91491,0.745479 -9.78057,2.372663 -14.37072,4.951773 -20.367972,11.44462 -27.604262,37.24415 -16.159252,57.61186 6.64478,11.82594 18.128692,19.2231 30.578612,21.1097 z" clip-rule="evenodd" fill="#af0c0d" fill-rule="evenodd" image-rendering="optimizeQuality" shape-rendering="geometricPrecision" text-rendering="geometricPrecision" transform="translate(157.2381,-60.386906)"/><path class="fil9" d="m 131.6768,181.60051 c -16.22147,2.45211 -33.095628,-4.70373 -42.295651,-19.52345 -12.3224,-19.84938 -6.21831,-45.93956 13.631081,-58.26193 8.88645,-5.516669 19.02325,-7.337568 28.61592,-5.887949 -4.91491,0.745479 -9.78057,2.372659 -14.37072,4.951769 -20.367968,11.44462 -27.604261,37.24415 -16.15925,57.61186 6.64478,11.82594 18.12869,19.2231 30.57862,21.1097 z" clip-rule="evenodd" fill="#af0c0d" fill-rule="evenodd" image-rendering="optimizeQuality" shape-rendering="geometricPrecision" text-rendering="geometricPrecision" transform="translate(157.2381,-60.386906)"/></svg>