<?xml version="1.0" encoding="UTF-8" standalone="no"?>
<!-- Created with Inkscape (http://www.inkscape.org/) -->

<svg
   xmlns:dc="http://purl.org/dc/elements/1.1/"
   xmlns:cc="http://creativecommons.org/ns#"
   xmlns:rdf="http://www.w3.org/1999/02/22-rdf-syntax-ns#"
   xmlns:svg="http://www.w3.org/2000/svg"
   xmlns="http://www.w3.org/2000/svg"
   xmlns:sodipodi="http://sodipodi.sourceforge.net/DTD/sodipodi-0.dtd"
   xmlns:inkscape="http://www.inkscape.org/namespaces/inkscape"
   id="svg4884"
   sodipodi:version="0.32"
   inkscape:version="0.48.1 "
   width="1284.6847"
   height="557.6781"
   version="1.0"
   sodipodi:docname="Royal_Standard_of_Nasrid_Dynasty_Kingdom_of_Grenade.svg"
   inkscape:output_extension="org.inkscape.output.svg.inkscape">
  <title
     id="title3061">Standard of the Nasrid Dynasty of Granada</title>
  <sodipodi:namedview
     inkscape:window-height="753"
     inkscape:window-width="1280"
     inkscape:pageshadow="2"
     inkscape:pageopacity="0.0"
     guidetolerance="10.0"
     gridtolerance="10.0"
     objecttolerance="10.0"
     borderopacity="1.0"
     bordercolor="#666666"
     pagecolor="#ffffff"
     id="base"
     showgrid="false"
     inkscape:zoom="0.5381933"
     inkscape:cx="-95.232166"
     inkscape:cy="322.36446"
     inkscape:window-x="-4"
     inkscape:window-y="-4"
     inkscape:current-layer="svg4884"
     inkscape:window-maximized="0"
     fit-margin-top="0.2"
     fit-margin-left="0.2"
     fit-margin-right="0.2"
     fit-margin-bottom="0.2" />
  <metadata
     id="metadata4889">
    <rdf:RDF>
      <cc:Work
         rdf:about="">
        <dc:format>image/svg+xml</dc:format>
        <dc:type
           rdf:resource="http://purl.org/dc/dcmitype/StillImage" />
        <dc:title>Standard of the Nasrid Dynasty of Granada</dc:title>
        <dc:date>23 Apr 2011</dc:date>
        <dc:creator>
          <cc:Agent>
            <dc:title>Mohamed Chaara</dc:title>
          </cc:Agent>
        </dc:creator>
        <cc:license
           rdf:resource="http://creativecommons.org/licenses/by-nc-sa/3.0/" />
      </cc:Work>
      <cc:License
         rdf:about="http://creativecommons.org/licenses/by-nc-sa/3.0/">
        <cc:permits
           rdf:resource="http://creativecommons.org/ns#Reproduction" />
        <cc:permits
           rdf:resource="http://creativecommons.org/ns#Distribution" />
        <cc:requires
           rdf:resource="http://creativecommons.org/ns#Notice" />
        <cc:requires
           rdf:resource="http://creativecommons.org/ns#Attribution" />
        <cc:prohibits
           rdf:resource="http://creativecommons.org/ns#CommercialUse" />
        <cc:permits
           rdf:resource="http://creativecommons.org/ns#DerivativeWorks" />
        <cc:requires
           rdf:resource="http://creativecommons.org/ns#ShareAlike" />
      </cc:License>
    </rdf:RDF>
  </metadata>
  <defs
     id="defs4887">
    <inkscape:perspective
       id="perspective4891"
       inkscape:persp3d-origin="372.04724 : 350.78739 : 1"
       inkscape:vp_z="744.09448 : 526.18109 : 1"
       inkscape:vp_y="0 : 1000 : 0"
       inkscape:vp_x="0 : 526.18109 : 1"
       sodipodi:type="inkscape:persp3d" />
  </defs>
  <path
     style="fill:#e71800;fill-opacity:1;stroke:#aa8800;stroke-width:10"
     d="M 5.4847,552.00791 C 12.0925,506.55435 15.1555,461.02455 15.5972,415.42319 22.6502,365.51738 1.2246,313.36982 7.7881,263.91396 16.094,207.08039 15.291,103.51702 5.8515,14.124567 L 5.2,7.9551666 l 415.45496,0 c 233.24503,3.1822704 492.51326,-27.5836496 690.70014,59.6461604 11.6646,5.96595 21.3794,12.69389 35.2757,24.42998 7.1011,5.99724 16.9842,14.261383 21.9625,18.364753 27.5789,22.73223 43.7193,41.02298 55.2008,62.55496 6.3846,11.97352 6.9297,13.33472 13.1019,32.71921 5.878,18.4604 10.9481,29.59217 19.917,43.72909 5.4403,8.57512 15.5949,22.509 20.2881,27.83869 1.311,1.48882 2.3836,2.84466 2.3836,3.01298 0,0.1683 -1.3135,0.30603 -2.9188,0.30603 -2.834,0 -3.0939,0.25422 -8.9453,8.75195 -17.022,24.71987 -23.3343,37.72154 -32.112,66.14213 -8.6483,28.00155 -15.4961,39.86116 -36.5279,63.26182 -18.1157,20.15609 -56.5969,55.0996 -70.07,63.62813 -12.5175,7.92367 -33.1069,17.89778 -52.8771,25.61523 -59.9776,23.41271 -125.54889,36.8398 -210.04893,43.01196 l -18,1.31478 -421.25,0.15889 C 137.37586,552.55108 5.4847,552.41519 5.4847,552.00791 z m 16.25,-2.72049 c -8.6797,-0.15754 -10.25,-0.32946 -10.25,-1.12242 0,-0.51505 -0.2806,-0.77539 -0.6236,-0.57858 -0.3429,0.19681 -0.357,0.75636 -0.0314,1.24344 0.4882,0.73015 2.3971,0.86436 10.8736,0.76458 l 10.2814,-0.12103 -10.25,-0.18599 z"
     id="path2384"
     sodipodi:nodetypes="cccccccssssssssssssscccccsssccc"
     inkscape:connector-curvature="0" />
  <g
     id="g3042"
     transform="matrix(1.1722899,0.00773685,-0.00773685,1.1722899,1589.6558,-483.14134)">
    <path
       sodipodi:nodetypes="zzzzzzzzszzzzzzz"
       inkscape:connector-curvature="0"
       id="path3002"
       d="m -596.70646,798.22215 c 4.47235,-0.26174 64.48888,1.91741 88.16811,-0.32295 23.67923,-2.24037 44.04035,-1.3569 62.97722,-10.01177 18.93688,-8.65487 23.24372,-13.6238 29.71233,-29.71233 6.46861,-16.08852 4.38032,-47.05979 -1.29184,-62.00834 -5.67216,-14.94854 -11.59479,-18.03359 -21.96128,-25.83681 -10.36649,-7.80321 -33.02728,-11.62509 -40.04706,-18.08576 -7.01978,-6.46067 -4.94535,-6.98222 -5.49032,-10.33473 -0.54498,-3.3525 0.0628,-8.19825 11.62657,-9.04288 46.39209,-3.3885 60.36154,0.2763 69.43642,6.78216 9.07489,6.50587 12.30012,7.28605 15.82504,22.60721 3.52492,15.32116 -0.56871,107.17912 -6.45924,116.91157 -5.89053,9.73244 -15.48944,17.60747 -26.15972,22.28424 -10.67029,4.67676 -59.1073,16.92418 -88.16812,17.11688 -29.06082,0.1927 -89.85337,-9.96302 -93.01251,-15.50209 -3.15913,-5.53905 0.37205,-4.58265 4.8444,-4.8444 z"
       style="fill:#ffcc00;fill-opacity:1;fill-rule:nonzero;stroke:#ff0000;stroke-width:1.70602548;stroke-linecap:butt;stroke-linejoin:miter;stroke-miterlimit:4;stroke-opacity:1;stroke-dasharray:none" />
    <path
       sodipodi:nodetypes="zzzzz"
       inkscape:connector-curvature="0"
       id="path3772"
       d="m -442.33152,652.56714 c -17.38345,-8.20468 1.87959,-7.6395 11.62656,-4.52144 9.74697,3.11806 13.6411,7.05414 17.43985,13.24137 3.79874,6.18723 12.03376,30.82412 -1.93777,11.62656 -13.97152,-19.19755 -9.7452,-12.1418 -27.12864,-20.34649 z"
       style="fill:#e71800;fill-opacity:1;fill-rule:nonzero;stroke:#ff0000;stroke-width:1.70602548;stroke-linecap:butt;stroke-linejoin:miter;stroke-miterlimit:4;stroke-opacity:1;stroke-dasharray:none" />
    <path
       sodipodi:nodetypes="czczzzzzzczzzzzzzzzczzzzczszzzzzzc"
       inkscape:connector-curvature="0"
       id="path3774"
       d="m -382.90691,519.83054 c 0,0 0.46879,-0.32795 -11.62652,-3.2296 -12.09529,-2.90164 -26.48273,21.96129 -26.48273,21.96129 0,0 -14.30835,-0.91555 -29.71233,11.62657 -15.40398,12.54211 -25.36801,28.29451 -36.17153,57.48689 -10.80353,29.19238 -9.91937,88.69692 -17.43985,117.55748 -7.52047,28.86056 -11.84133,46.38805 -21.31536,56.19506 -9.47404,9.807 -12.0603,7.19414 -20.02353,8.39697 -7.96324,1.20282 -18.63349,2.42092 -26.48273,-2.58369 -7.84924,-5.00461 -12.9184,-27.12865 -12.9184,-27.12865 0,0 9.38144,11.46623 15.50208,12.27248 6.12064,0.80626 9.03379,1.61776 16.14801,-4.52144 7.11422,-6.13919 13.82285,-22.75127 16.148,-36.17153 2.32516,-13.42026 -0.83055,-28.35916 -3.2296,-41.98481 -2.39905,-13.62566 -2.58663,-19.47107 -10.98064,-39.40114 -8.39402,-19.93006 -16.3358,-40.78961 -29.71233,-59.42466 -13.37652,-18.63504 -39.35662,-40.10172 -45.86033,-56.19505 -6.50373,-16.09334 -6.22135,-21.77102 -3.2296,-29.71233 2.99174,-7.94131 12.49955,-19.63792 20.02352,-6.4592 7.52396,13.1787 12.04256,22.49192 27.77457,32.296 4.75136,14.97144 42.37816,87.96033 51.02769,116.91157 8.64954,28.95123 8.56936,36.32512 9.04289,52.96545 0.47353,16.64034 -1.89538,34.33825 -5.16737,45.86033 -3.27198,11.52208 -6.52317,17.96776 -10.98064,23.25314 -4.45746,5.28537 -12.9184,9.04288 -12.9184,9.04288 0,0 9.88722,-1.92438 15.50208,-7.75104 5.61486,-5.82667 10.12778,-18.39541 12.9184,-28.42049 4.47613,-16.08011 3.92917,-30.35982 5.81329,-49.73586 1.88412,-19.37604 0.57571,-43.19075 5.16736,-66.52978 4.59165,-23.33903 13.91578,-54.16336 23.25313,-72.34307 9.33736,-18.1797 16.26143,-27.47979 27.77457,-37.46337 11.51313,-9.98358 31.80406,-20.68104 39.40113,-21.31537 7.59707,-0.63433 9.92894,-3.39735 21.96129,0.64593 12.03235,4.04328 16.79388,23.89904 16.79388,23.89904 z"
       style="fill:#ffcc00;fill-opacity:1;fill-rule:nonzero;stroke:#ff0000;stroke-width:1.70602548;stroke-linecap:butt;stroke-linejoin:miter;stroke-miterlimit:4;stroke-opacity:1;stroke-dasharray:none" />
    <path
       sodipodi:nodetypes="zczszzzzzzzzzzczzzzzzzzzz"
       inkscape:connector-curvature="0"
       id="path3776"
       d="m -590.89318,674.20547 c 13.01023,1.60617 11.62657,-10.33472 11.62657,-10.33472 0,0 -10.10162,-6.50667 -20.02353,-7.10512 -9.9219,-0.59845 -26.80634,1.31127 -37.46337,8.39696 -8.35785,5.55699 -13.99355,15.16924 -17.43985,24.54497 -3.4463,9.37572 -5.86271,20.26825 -2.58368,29.71233 3.27903,9.44407 11.17516,17.08162 20.66945,21.96129 9.49428,4.87966 26.51539,-0.59593 33.58785,4.52144 7.07246,5.11737 -32.29912,25.23794 -44.56849,29.06641 -12.26938,3.82848 -18.11536,3.28044 -23.89905,0.64592 -5.78368,-2.63453 -3.18155,1.21387 -9.04288,-10.98065 -5.86134,-12.19452 8.11231,-206.9927 7.75103,-238.99047 -0.36127,-31.99778 1.09092,-19.04243 -1.29184,-26.48274 -2.38275,-7.44031 -18.25641,-21.41605 -24.54497,-11.62656 -6.28855,9.78949 -3.22959,43.27665 -3.22959,43.27665 0,0 6.16571,225.92945 8.39696,240.92825 2.23125,14.9988 2.39674,14.38218 12.91841,20.02352 10.52166,5.64134 22.34185,8.16023 47.79809,-0.64592 25.45624,-8.80614 90.04333,-62.7193 90.42883,-69.11346 0.38551,-6.39416 -4.20488,-9.81398 -14.21025,-10.33473 -10.00537,-0.52075 -24.44608,19.14903 -36.81744,21.31537 -12.37136,2.16634 -24.17921,-0.20966 -32.29602,-5.81328 -8.11681,-5.60362 -13.79813,-12.78184 -13.56432,-22.60721 0.23381,-9.82536 8.21556,-22.34092 18.08576,-27.12865 9.87021,-4.78772 16.7021,-4.83576 29.71233,-3.2296 z"
       style="fill:#ffcc00;fill-opacity:1;fill-rule:nonzero;stroke:#ff0000;stroke-width:1.70602548;stroke-linecap:butt;stroke-linejoin:miter;stroke-miterlimit:4;stroke-opacity:1;stroke-dasharray:none" />
    <path
       sodipodi:nodetypes="zzzzz"
       inkscape:connector-curvature="0"
       id="path3778"
       d="m -644.21025,625.10534 c -5.97713,0.68141 -17.38423,9.98851 -15.66012,16.66029 1.72412,6.67176 11.91417,7.62318 17.50249,5.55343 5.5883,-2.06974 10.28774,-9.78882 9.21181,-14.80916 -1.07593,-5.02033 -5.07704,-8.08597 -11.05418,-7.40456 z"
       style="fill:#ffcc00;fill-opacity:1;fill-rule:nonzero;stroke:#ff0000;stroke-width:1.70602548;stroke-linecap:butt;stroke-linejoin:miter;stroke-miterlimit:4;stroke-opacity:1;stroke-dasharray:none" />
    <path
       sodipodi:nodetypes="zzzzzzzzzzzzzzczzzzzz"
       inkscape:connector-curvature="0"
       id="path3780"
       d="m -718.13946,489.47229 c 1.19397,3.35823 5.04517,1.70995 5.16736,47.79809 0.12219,46.08815 -3.27315,198.59669 -5.16736,229.9476 -1.8942,31.35092 -3.18627,26.38646 -10.33472,33.58785 -7.14844,7.20139 -15.92458,5.20835 -25.19089,3.2296 -9.26631,-1.97874 -18.35857,-7.87668 -22.60721,-16.148 -4.24865,-8.27133 1.0462,-23.7776 -2.58368,-24.54497 -3.62988,-0.76737 -9.9761,5.19566 -76.21858,10.33472 -66.24248,5.13906 -239.12596,14.31825 -303.58246,4.52144 -64.4566,-9.7968 -71.1614,-16.18994 -85.2615,-29.0664 -14.1002,-12.87646 -14.4572,-25.29935 -16.7939,-32.29602 -2.3368,-6.99666 -4.0366,-11.93459 2.5836,-7.10512 6.6202,4.82947 32.9227,24.88945 49.7359,31.65009 16.8132,6.76064 16.5001,8.58279 89.7829,14.21025 73.2829,5.62747 350.08876,-1.29185 350.08876,-1.29185 0,0 1.09544,21.94899 6.45921,27.77458 5.36376,5.82559 12.42438,6.89343 18.08576,5.81328 5.66139,-1.08016 5.16289,5.65046 9.04288,-23.89905 3.87998,-29.54951 -6.49598,-229.77711 -5.16736,-248.67928 1.32863,-18.90218 0.66757,-16.2786 5.16737,-21.31537 4.49979,-5.03677 15.59995,-7.87967 16.79392,-4.52144 z"
       style="fill:#ffcc00;fill-rule:nonzero;stroke:#ff0000;stroke-width:1.70602548;stroke-linecap:butt;stroke-linejoin:miter;stroke-miterlimit:4;stroke-opacity:1;stroke-dasharray:none" />
    <path
       sodipodi:nodetypes="zzzzz"
       inkscape:connector-curvature="0"
       id="path3778-3"
       d="m -797.212,784.61309 c -5.97713,0.68141 -17.38423,9.98851 -15.66012,16.66029 1.72411,6.67176 11.91417,7.62318 17.50249,5.55343 5.5883,-2.06974 10.28774,-9.78882 9.21181,-14.80916 -1.07594,-5.02033 -5.07706,-8.08597 -11.05418,-7.40456 z"
       style="fill:#ffcc00;fill-rule:nonzero;stroke:#ff0000;stroke-width:1.70602548;stroke-linecap:butt;stroke-linejoin:miter;stroke-miterlimit:4;stroke-opacity:1;stroke-dasharray:none" />
    <path
       sodipodi:nodetypes="ccccccccc"
       inkscape:connector-curvature="0"
       id="path3802"
       d="m -836.98877,682.60244 4.03699,3.71404 -8.8814,9.52733 12.111,8.88139 -18.73169,17.60132 -5.32883,-2.90663 14.04876,-13.24136 c -3.4449,-2.36838 -3.75178,-3.59433 -10.65768,-8.55845 z"
       style="fill:#ffcc00;fill-opacity:1;fill-rule:nonzero;stroke:#ff0000;stroke-width:0.85301274px;stroke-linecap:butt;stroke-linejoin:miter;stroke-opacity:1" />
    <path
       sodipodi:nodetypes="ccccc"
       inkscape:connector-curvature="0"
       id="path3804"
       d="m -830.07743,709.44042 -18.73169,16.47096 4.68292,4.037 17.92428,-16.79392 z"
       style="fill:#ffcc00;fill-opacity:1;fill-rule:nonzero;stroke:#ff0000;stroke-width:0.85301274px;stroke-linecap:butt;stroke-linejoin:miter;stroke-opacity:1" />
    <path
       sodipodi:nodetypes="ccczzzzczzzzzzcc"
       inkscape:connector-curvature="0"
       id="path3806"
       d="m -887.07795,677.91423 6.96429,12.23844 -23.4049,31.20498 c 0,0 14.77593,6.18565 21.31537,3.2296 6.53944,-2.95605 11.36493,-11.32844 11.62656,-18.08576 0.26163,-6.75733 -4.2385,-9.51231 -16.148,-34.23377 -11.9095,-24.72146 -52.70355,-125.18253 -62.65427,-158.89638 -9.9507,-33.71385 19.37761,-25.19089 19.37761,-25.19089 0,0 6.57937,9.5748 7.75104,16.79393 1.17168,7.21912 11.15915,30.05637 14.21024,38.75521 3.0511,8.69884 8.54142,40.02596 22.95777,80.80495 14.41636,40.77898 27.09065,59.12132 29.36178,77.4455 2.27112,18.32419 2.41986,20.38953 -3.22961,27.77458 -5.64947,7.38504 -14.67013,9.89013 -25.83681,10.33472 -11.16667,0.44459 -38.10929,-10.33473 -38.10929,-10.33473 z"
       style="fill:#ffcc00;fill-rule:nonzero;stroke:#ff0000;stroke-width:1.70602548;stroke-linecap:butt;stroke-linejoin:miter;stroke-miterlimit:4;stroke-opacity:1;stroke-dasharray:none" />
    <path
       sodipodi:nodetypes="zzzzzczczzczzzzzzzzzzz"
       inkscape:connector-curvature="0"
       id="path3810"
       d="m -837.79618,481.07533 c 2.89263,-0.0412 5.97443,3.71103 7.91253,7.75104 1.93809,4.04001 1.19997,11.12816 -0.64593,14.85616 -1.8459,3.728 -3.83246,6.30223 -7.75104,6.45921 -3.91858,0.15697 -7.20349,-7.67318 -10.98064,-7.75105 -3.77715,-0.0779 -7.75104,5.00588 -7.75104,5.00588 0,0 -7.26636,2.6685 -10.33473,0.16149 -3.06836,-2.50701 -3.71404,-13.56433 -3.71404,-13.56433 0,0 -13.17307,8.1582 -19.53909,8.39696 -6.36602,0.23876 -11.97506,-0.16407 -15.50209,-4.52144 -3.52702,-4.35737 -1.29183,-17.43984 -1.29183,-17.43984 0,0 2.52594,12.51632 7.75104,15.50209 5.22509,2.98577 12.79548,1.49003 18.73169,-1.29185 5.93621,-2.78188 9.37655,-12.79078 14.21024,-14.85616 4.83369,-2.06539 5.11606,-1.58502 6.78216,2.26072 1.6661,3.84574 -4.77125,3.89429 -5.49032,8.074 -0.71907,4.17971 0.71657,8.95717 4.52144,10.33473 3.80487,1.37756 8.07489,-6.48592 11.62657,-5.81329 3.55168,0.67263 2.96926,5.53737 5.81328,6.4592 2.84402,0.92184 7.3516,1.84666 9.04288,-1.93776 1.69129,-3.78442 -8.2027,-9.94173 -7.75104,-13.56432 0.45166,-3.6226 1.46733,-4.48024 4.35996,-4.52144 z"
       style="fill:#ffcc00;fill-opacity:1;fill-rule:nonzero;stroke:#ff0000;stroke-width:0.85301274px;stroke-linecap:butt;stroke-linejoin:miter;stroke-opacity:1" />
    <path
       sodipodi:nodetypes="zzzzzzzzzz"
       inkscape:connector-curvature="0"
       id="path3812"
       d="m -966.17282,510.14174 c 1.50962,8.28983 -9.16486,48.06515 -12.9184,75.57266 -3.75356,27.50752 -2.4954,79.14518 -10.98065,103.34724 -8.48525,24.20207 -9.83511,37.40089 -20.02353,44.56849 -10.1884,7.16761 -55.8096,19.84109 -40.0471,9.04289 15.7626,-10.79821 7.1749,-4.40187 31.0042,-14.85617 23.82929,-10.4543 15.7971,-135.74173 20.02355,-173.75254 4.22643,-38.01081 0.44653,-40.60518 8.39696,-50.38178 7.95043,-9.77658 12.65527,-11.62274 17.43985,-10.33472 4.78459,1.28803 5.5955,8.50411 7.10512,16.79393 z"
       style="fill:#ffcc00;fill-opacity:1;fill-rule:nonzero;stroke:#ff0000;stroke-width:1.70602548;stroke-linecap:butt;stroke-linejoin:miter;stroke-miterlimit:4;stroke-opacity:1;stroke-dasharray:none" />
    <path
       sodipodi:nodetypes="zzzzzzzzczzzzzczzzzzczzzzzzzzzzzzzzzzzzzzzzzzzz"
       inkscape:connector-curvature="0"
       id="path3814"
       d="m -1038.5159,531.45711 c 5.4352,7.80012 4.0857,22.82185 2.5837,36.17153 -1.502,13.34967 -2.5486,26.10584 -3.0245,38.85421 -0.476,12.74837 -0.4786,24.40987 -0.851,37.36437 -0.3725,12.9545 -0.5484,34.49468 -4.5215,45.86034 -3.973,11.36566 -6.6624,16.35496 -14.2102,21.96128 -7.5478,5.60632 -21.3057,9.03819 -29.0664,8.39697 -7.7607,-0.64122 -9.4084,-2.12846 -14.8562,-7.10512 -5.4478,-4.97666 -14.2102,-23.89906 -14.2102,-23.89906 0,0 -5.6332,8.99897 -9.6888,14.21025 -4.0557,5.21129 -8.5044,13.93243 -14.8562,16.79393 -6.3518,2.8615 -13.9824,3.57291 -20.8062,2.85714 -6.8238,-0.71577 -13.0899,-1.4607 -19.8868,-7.37858 -6.7968,-5.91788 -9.9274,-20.80276 -10.9806,-30.35825 -1.0532,-9.5555 3.2296,-25.19089 3.2296,-25.19089 0,0 -8.2736,9.20787 -14.2103,11.62656 -5.9366,2.41869 -15.7103,6.08584 -22.6072,4.52144 -6.8969,-1.5644 -12.7097,-6.04184 -15.5021,-11.62656 -2.7923,-5.58471 -2.8431,-11.2219 0,-18.08576 2.8431,-6.86387 10.3218,-14.47869 18.7317,-18.73169 8.41,-4.25301 32.942,-5.16737 32.942,-5.16737 0,0 -27.8191,12.91741 -32.2961,19.37761 -4.4769,6.46021 -5.7952,7.44468 -3.8755,11.62657 1.9198,4.18188 8.4688,6.54984 14.2103,5.81328 5.7414,-0.73656 11.5336,-6.71768 15.5021,-11.62656 3.9684,-4.90889 5.478,-8.38937 7.751,-16.79393 2.273,-8.40457 -1.5131,-26.94248 3.2296,-33.58786 4.7427,-6.64537 9.704,-15.82656 17.4398,-10.33472 7.7359,5.49185 1.7686,21.10865 10e-5,32.29602 -1.7687,11.18736 -4.9748,17.0578 -6.4593,31.00416 -1.4844,13.94637 -3.7628,35.97422 2.5837,45.21442 6.3466,9.2402 10.5803,10.76713 20.0236,9.04288 9.4432,-1.72425 20.254,-13.07585 25.1908,-25.19088 4.9369,-12.11503 1.5174,-26.31435 2.5837,-41.98482 1.0664,-15.67047 -0.2276,-26.40201 0,-44.5685 0.2276,-18.16649 0.5048,-36.86679 5.8133,-40.69297 5.3085,-3.82618 5.1317,-8.55592 16.7939,0 11.6623,8.55593 2.7744,27.09861 0,40.04706 -2.7744,12.94845 -5.4043,19.17503 -4.3694,30.78376 1.035,11.60873 -0.6027,34.85124 0.4939,46.08074 1.0966,11.22951 1.0477,14.37304 4.5215,20.02352 3.4737,5.65049 8.2578,11.00896 14.8561,12.27249 6.5983,1.26353 11.6431,4.31106 20.0235,-6.4592 8.3805,-10.77025 3.292,-36.58695 3.8756,-60.7165 0.5835,-24.12955 -2.7519,-78.27431 -1.2919,-83.96962 1.46,-5.69531 3.6081,-7.30612 5.8286,-12.2878 2.2206,-4.98169 13.9271,-14.24401 19.3623,-6.44389 z"
       style="fill:#ffcc00;fill-rule:nonzero;stroke:#ff0000;stroke-width:1.70602548;stroke-linecap:butt;stroke-linejoin:miter;stroke-miterlimit:4;stroke-opacity:1;stroke-dasharray:none" />
    <path
       sodipodi:nodetypes="zzzzzzcczzzzzz"
       inkscape:connector-curvature="0"
       id="path3816"
       d="m -1271.3718,481.34209 c 6.7993,-1.5707 9.5552,7.307 14.6155,10.04816 5.0603,2.74115 11.2239,3.10064 18.2694,8.22122 7.0455,5.1206 15.656,24.29399 18.2694,35.6253 2.6134,11.33131 4.5661,21.42975 0,30.14448 -4.5661,8.71472 -13.8796,13.50888 -23.7502,16.44244 -9.8706,2.93357 -30.1445,-0.22837 -30.1445,-0.22837 l 5.7092,-16.21407 c 0,0 9.2969,-0.29339 15.3006,-0.91347 6.0038,-0.62008 15.9858,-5.72434 18.2694,-12.78857 2.2837,-7.06423 -2.0141,-14.1716 -7.3077,-21.00979 -5.2937,-6.8382 -17.8282,-11.698 -24.6637,-16.44244 -6.8356,-4.74444 -14.86,-4.64358 -16.4425,-11.87511 -1.5824,-7.23153 5.0759,-19.43908 11.8751,-21.00978 z"
       style="fill:#ffd42a;fill-rule:nonzero;stroke:#ff0000;stroke-width:1.70602548;stroke-linecap:butt;stroke-linejoin:miter;stroke-miterlimit:4;stroke-opacity:1;stroke-dasharray:none" />
    <path
       sodipodi:nodetypes="czcczzzzzzczzzzzzzzzzccc"
       inkscape:connector-curvature="0"
       id="path3818"
       d="m -1282.3334,563.78268 c 0,0 -15.7233,-1.49774 -15.529,-9.36306 0.1944,-7.86532 25.5772,-12.78857 25.5772,-12.78857 l -25.3488,66.91161 c 0,0 -24.3999,59.21624 -26.4906,84.4959 -2.0907,25.27965 -1.4386,45.1588 7.9929,63.25773 9.4314,18.09893 24.0354,30.94704 39.7359,40.19264 15.7004,9.24562 20.7602,15.9309 68.9669,21.92327 48.2066,5.99236 154.9532,-0.61329 216.49217,-5.25245 61.53891,-4.63916 142.67675,-18.07388 152.32098,-18.49775 9.64421,-0.42388 3.88224,-4.56734 3.88224,-4.56734 0,0 -32.95163,-0.82092 -81.52712,-0.22837 -48.57548,0.59254 -160.34417,7.7399 -209.86957,5.70918 -49.5253,-2.03073 -64.2175,-3.74718 -87.693,-9.13469 -23.4755,-5.38752 -39.1499,-9.24817 -52.9812,-19.18286 -13.8313,-9.93469 -22.5273,-22.76021 -28.5459,-35.85366 -6.0186,-13.09345 -9.2189,-19.88746 -9.1347,-37.68059 0.084,-17.79315 4.2862,-41.74535 11.8751,-67.13999 7.5888,-25.39464 26.6694,-64.55653 31.5147,-84.95263 4.8452,-20.39611 -24.7295,-8.92101 -32.1998,-5.48081 -7.4704,3.44019 -20.9977,9.28131 -25.5771,14.6155 -4.5795,5.33419 -2.0554,13.47367 -2.0554,13.47367 l 32.8849,14.61551 z"
       style="fill:#ffcc00;fill-rule:nonzero;stroke:#ff0000;stroke-width:1.70602548;stroke-linecap:butt;stroke-linejoin:miter;stroke-miterlimit:4;stroke-opacity:1;stroke-dasharray:none" />
    <path
       sodipodi:nodetypes="ccccc"
       inkscape:connector-curvature="0"
       id="path4065"
       d="m -869.03903,658.40985 5.80838,13.38451 128.54191,-194.20182 -12.12183,-7.07107 z"
       style="fill:#ffcc00;fill-opacity:1;stroke:#ff0000;stroke-width:1.70602548;stroke-linecap:butt;stroke-linejoin:miter;stroke-miterlimit:4;stroke-opacity:1;stroke-dasharray:none" />
    <path
       sodipodi:nodetypes="zzzzzzzzzzz"
       inkscape:connector-curvature="0"
       id="path3800"
       d="m -782.10715,482.64607 c 3.38848,9.09901 -3.59572,23.19468 -5.81328,61.36243 -2.21756,38.16775 1.03396,99.62364 -7.75105,141.45652 -8.78501,41.83289 -7.61703,38.03598 -15.50207,42.63073 -7.88505,4.59475 -25.04164,11.1785 -27.77459,8.39697 -2.73295,-2.78153 -1.79196,-1.98789 0.64592,-5.16737 2.43788,-3.17947 6.42444,2.31343 12.91842,-3.2296 6.49396,-5.54301 5.40721,-5.50769 12.9184,-43.27665 7.51119,-37.76897 -3.19554,-162.90354 0,-184.73319 3.19554,-21.82964 5.90903,-15.90385 11.62656,-20.02352 5.71752,-4.11966 15.34321,-6.51533 18.73169,2.58368 z"
       style="fill:#ffcc00;fill-opacity:1;fill-rule:nonzero;stroke:#ff0000;stroke-width:1.70602548;stroke-linecap:butt;stroke-linejoin:miter;stroke-miterlimit:4;stroke-opacity:1;stroke-dasharray:none" />
  </g>
</svg>
