<?xml version="1.0" encoding="UTF-8" standalone="no"?>
<svg xmlns="http://www.w3.org/2000/svg" xmlns:xlink="http://www.w3.org/1999/xlink" width="720" height="504" viewBox="-2100 -1470 4200 2940" version="1.1">
    <defs>
        <path id="b" d="M 0,0 a 31.5,35 0 0,0 0,-70 a 31.5,35 0 0,0 0,70 M 0,-13 a 18.5,22 0 0,0 0,-44 a 18.5,22 0 0,0 0,44" fill-rule="evenodd"/>
        <g id="i">
            <use xlink:href="#a"/>
            <path d="M 28,0 c 0,-10 0,-32 -15,-32 h -19 c 22,0 22,22 22,32"/>
        </g>
        <path id="j" d="M -31.5,0 h 33 a 30,30 0 0,0 30,-30 v -10 a 30,30 0 0,0 -30,-30 H -31.5 z M -18.5,-13 h 19 a 19,19 0 0,0 19,-19 v -6 a 19,19 0 0,0 -19,-19 H -18.5 z" fill-rule="evenodd"/>
        <path id="k" d="M 0,0 h 63 v -13 H 12 v -18 h 40 v -12 h -40 v -14 H 60 v -13 H 0 z" transform="translate(-31.5)"/>
        <path id="l" d="M -31.5,0 h 12 v -48 l 14,48 h 11 l 14,-48 V 0 h 12 V -70 h -17.5 l -14,48 l -14,-48 H -31.5 z"/>
        <path id="m" d="M -26.25,0 h 52.5 v -12 h -40.5 v -16 h 33 v -12 h -33 v -11 H 25 v -12 H -26.25 z"/>
        <path id="a" d="M -31.5,0 h 13 v -26 h 28 a 22,22 0 0,0 0,-44 h -40 z M -18.5,-39 h 27 a 9,9 0 0,0 0,-18 h -27 z" fill-rule="evenodd"/>
        <g id="n">
            <clipPath id="c">
                <path d="M -31.5,0 v -70 h 63 v 70 z M 0,-47 v 12 h 31.5 v -12 z"/>
            </clipPath>
            <use xlink:href="#b" clip-path="url(#c)"/>
            <rect x="5" y="-35" width="26.5" height="10"/>
            <rect x="21.5" y="-35" width="10" height="35"/>
        </g>
        <path id="o" d="M -15.75,-22 C -15.75,-15 -9,-11.5 1,-11.5 C 11,-11.5 15.74,-14.75 15.75,-19.25 C 15.75,-33.5 -31,-24.5 -30.75,-49.5 C -30.5,-71 -6,-70 3,-70 C 12,-70 29,-66 28.75,-48.75 L 13.5,-48.75 C 13.5,-56.25 6.5,-59 -1.5,-59 C -9.25,-59 -14.75,-57.75 -14.75,-50.5 C -15,-38.75 31.5,-46.5 31.5,-21.75 C 31.5,-3.5 13.5,0 0,0 C -11.5,0 -31.55,-4.5 -31.5,-22 z"/>
        <g id="f">
            <g id="e">
                <polygon id="d" points="0 0 0 1 .5 1" transform="rotate(18 3.157 -.5)"/>
                <use xlink:href="#d" transform="scale(-1 1)"/>
            </g>
            <use xlink:href="#e" transform="rotate(72)"/>
            <use xlink:href="#e" transform="rotate(-72)"/>
            <use xlink:href="#e" transform="rotate(144)"/>
            <use xlink:href="#e" transform="rotate(-144)"/>
        </g>
        <use id="p" xlink:href="#f" transform="scale(31.5)"/>
        <use id="r" xlink:href="#f" transform="scale(26.25)"/>
        <use id="q" xlink:href="#f" transform="scale(21)"/>
        <use id="s" xlink:href="#f" transform="scale(15)"/>
        <use id="t" xlink:href="#f" transform="scale(10.5)"/>
    </defs>
    <rect fill="#009b3a" x="-50%" y="-50%" width="100%" height="100%" fill-opacity="1"/>
    <path fill="#fedf00" d="M -1743,0 L 0,1113 L 1743,0 L 0,-1113 z" fill-opacity="1"/>
    <circle id="g" fill="#002776" r="735" fill-opacity="1"/>
    <clipPath id="h">
        <use xlink:href="#g"/>
    </clipPath>
    <path d="M -2205,1470 a 1785,1785 0 0,1 3570,0 h -105 a 1680,1680 0 1,0 -3360,0 z" clip-path="url(#h)" fill="#fff"/>
    <g fill="#009b3a" transform="translate(-420 1470)" fill-opacity="1">
        <g transform="rotate(-7)">
            <use xlink:href="#b" transform="translate(0 -1697.5)"/>
            <use xlink:href="#i" transform="rotate(3 32412.455 848.75)"/>
            <use xlink:href="#j" transform="rotate(6 16195.115 848.75)"/>
            <use xlink:href="#k" transform="rotate(9 10784.391 848.75)"/>
            <use xlink:href="#l" transform="rotate(12 8075.317 848.75)"/>
        </g>
        <use xlink:href="#m" transform="rotate(9.75 9951.259 848.75)"/>
        <g transform="rotate(14.5)">
            <use xlink:href="#a" transform="translate(0 -1697.5)"/>
            <use xlink:href="#i" transform="rotate(3 32412.455 848.75)"/>
            <use xlink:href="#b" transform="rotate(6 16195.115 848.75)"/>
            <use xlink:href="#n" transform="rotate(9 10784.391 848.75)"/>
            <use xlink:href="#i" transform="rotate(12 8075.317 848.75)"/>
            <use xlink:href="#k" transform="rotate(15 6446.896 848.75)"/>
            <use xlink:href="#o" transform="rotate(18 5358.797 848.75)"/>
            <use xlink:href="#o" transform="rotate(21 4579.445 848.75)"/>
            <use xlink:href="#b" transform="rotate(24 3993.055 848.75)"/>
        </g>
    </g>
    <g fill="#fff">
        <use xlink:href="#p" transform="translate(-600 -132)"/>
        <use xlink:href="#p" transform="translate(-535 177)"/>
        <use xlink:href="#p" transform="translate(228 -228)"/>
        <g>
            <use xlink:href="#p" transform="translate(515 258)"/>
            <use xlink:href="#q" transform="translate(617 265)"/>
            <use xlink:href="#r" transform="translate(545 323)"/>
            <use xlink:href="#r" transform="translate(368 477)"/>
            <use xlink:href="#q" transform="translate(367 551)"/>
            <use xlink:href="#q" transform="translate(441 419)"/>
            <use xlink:href="#r" transform="translate(500 382)"/>
            <use xlink:href="#q" transform="translate(365 405)"/>
        </g>
        <g>
            <use xlink:href="#p" transform="translate(0 330)"/>
            <use xlink:href="#r" transform="translate(85 184)"/>
            <use xlink:href="#r" transform="translate(0 118)"/>
            <use xlink:href="#q" transform="translate(-74 184)"/>
            <use xlink:href="#s" transform="translate(-37 235)"/>
        </g>
        <g>
            <use xlink:href="#r" transform="translate(220 495)"/>
            <use xlink:href="#q" transform="translate(283 430)"/>
            <use xlink:href="#q" transform="translate(162 412)"/>
        </g>
        <use xlink:href="#p" transform="translate(-295 390)"/>
        <use xlink:href="#t" transform="translate(0 575)"/>
    </g>
</svg>
