<?xml version="1.0" encoding="UTF-8" standalone="no"?>
<svg
   xmlns:dc="http://purl.org/dc/elements/1.1/"
   xmlns:cc="http://web.resource.org/cc/"
   xmlns:rdf="http://www.w3.org/1999/02/22-rdf-syntax-ns#"
   xmlns:svg="http://www.w3.org/2000/svg"
   xmlns="http://www.w3.org/2000/svg"
   xmlns:sodipodi="http://sodipodi.sourceforge.net/DTD/sodipodi-0.dtd"
   xmlns:inkscape="http://www.inkscape.org/namespaces/inkscape"
   version="1.1"
   baseProfile="full"
   preserveAspectRatio="xMidYMid meet"
   zoomAndPan="magnify"
   id="Civil Ensign of the United Kingdom"
   viewBox="-15 -7.5 30 15"
   width="1200"
   height="600"
   sodipodi:version="0.32"
   inkscape:version="0.45"
   sodipodi:docname="Flag_of_Rarotonga_1888-1893.svg"
   inkscape:output_extension="org.inkscape.output.svg.inkscape"
   sodipodi:docbase="C:\Documents and Settings\Owner\Desktop\ITALIA\raratonga"
   sodipodi:modified="true">
  <metadata
     id="metadata2244">
    <rdf:RDF>
      <cc:Work
         rdf:about="">
        <dc:format>image/svg+xml</dc:format>
        <dc:type
           rdf:resource="http://purl.org/dc/dcmitype/StillImage" />
      </cc:Work>
    </rdf:RDF>
  </metadata>
  <sodipodi:namedview
     inkscape:window-height="598"
     inkscape:window-width="744"
     inkscape:pageshadow="2"
     inkscape:pageopacity="0.0"
     guidetolerance="10.0"
     gridtolerance="10.0"
     objecttolerance="10.0"
     borderopacity="1.0"
     bordercolor="#666666"
     pagecolor="#ffffff"
     id="base"
     showguides="true"
     inkscape:guide-bbox="true"
     inkscape:zoom="0.14083333"
     inkscape:cx="848.73641"
     inkscape:cy="237.76684"
     inkscape:window-x="404"
     inkscape:window-y="61"
     inkscape:current-layer="Civil Ensign of the United Kingdom" />
  <defs
     id="defs2222">
    <clipPath
       id="border">
      <rect
         x="-15"
         y="-7.5"
         width="30"
         height="15"
         id="rect2225" />
    </clipPath>
  </defs>
  <rect
     x="-15"
     y="-7.5"
     width="30"
     height="15"
     id="rect2227"
     fill="#CF142B" />
  <rect
     x="-15"
     y="-2.5000501"
     width="30"
     height="5.0001001"
     id="rect2246"
     style="fill:#ffffff" />
  <comment
     id="comment2229">The above line is the ensign field color: #CF142B red and #00247D blue</comment>
  <g
     id="canton"
     transform="matrix(0.5,0,0,0.5,-7.5,-3.75)">
    <g
       clip-path="url(#border)"
       id="g2232">
      <circle
         r="20"
         id="circle2234"
         fill="#00247D" />
      <path
         d="M -20,-10 L 20,10 M -20,10 L 20,-10"
         id="diags_white"
         stroke-width="3"
         stroke="white" />
      <path
         d="M -20,-10 L 20,10 M -20,10 L 20,-10"
         id="diags_red"
         stroke-width="2"
         stroke="#CF142B" />
      <path
         d="M 0,0 l 20,10 h -3 l -20,-10 M 0,0 l 20,-10 h 3 l -20,10 M 0,0 l -20,10 h -3 l 20,-10 M 0,0 l -20,-10 h 3 l 20,10"
         id="eraser_white"
         stroke="none"
         fill="white" />
      <comment
         id="comment2239">I think the above two lines give the simplest way to make the diagonals</comment>
      <path
         d="M -20,0 H 20 M 0,-10 V 10"
         id="cross_white"
         stroke-width="5"
         stroke="white" />
      <path
         d="M -20,0 H 20 M 0,-10 V 10"
         id="cross_red"
         stroke-width="3"
         stroke="#CF142B" />
    </g>
  </g>
  <polygon
     id="_69740224"
     points="6242210,7384890 6328250,7651460 6608360,7650920 6381430,7815130 6468500,8081360 6242210,7916280 6015910,8081360 6102980,7815130 5876050,7650920 6156160,7651460 6242210,7384890 "
     transform="matrix(5.4859154e-6,0,0,5.4859154e-6,-30.698345,-42.42327)"
     style="fill:#1b83b7;fill-opacity:1" />
  <polygon
     id="polygon5095"
     points="6242210,7384890 6328250,7651460 6608360,7650920 6381430,7815130 6468500,8081360 6242210,7916280 6015910,8081360 6102980,7815130 5876050,7650920 6156160,7651460 6242210,7384890 "
     transform="matrix(5.4859155e-6,0,0,5.4859155e-6,-26.461981,-42.42327)"
     style="fill:#1b83b7;fill-opacity:1" />
  <polygon
     id="polygon5097"
     points="6242210,7384890 6328250,7651460 6608360,7650920 6381430,7815130 6468500,8081360 6242210,7916280 6015910,8081360 6102980,7815130 5876050,7650920 6156160,7651460 6242210,7384890 "
     transform="matrix(5.4859155e-6,0,0,5.4859155e-6,-22.225617,-42.42327)"
     style="fill:#1b83b7;fill-opacity:1" />
</svg>
