<?xml version="1.0" encoding="UTF-8" standalone="no"?><!-- Created with Inkscape (http://www.inkscape.org/) --><svg xmlns:rdf="http://www.w3.org/1999/02/22-rdf-syntax-ns#" xmlns="http://www.w3.org/2000/svg" height="195" width="391.49" version="1.1" xmlns:cc="http://creativecommons.org/ns#" xmlns:dc="http://purl.org/dc/elements/1.1/"><title>Flag of the Nawab of Oudh</title><metadata><rdf:RDF><cc:Work rdf:about=""><dc:format>image/svg+xml</dc:format><dc:type rdf:resource="http://purl.org/dc/dcmitype/StillImage"/><dc:title>Flag of the Nawab of Oudh</dc:title><dc:creator><cc:Agent><dc:title>Utkarshraj Atmaram</dc:title></cc:Agent></dc:creator><dc:subject><rdf:Bag><rdf:li>oudh</rdf:li><rdf:li>awadh</rdf:li><rdf:li>flag</rdf:li><rdf:li>nawab</rdf:li></rdf:Bag></dc:subject><cc:license rdf:resource="http://creativecommons.org/licenses/publicdomain/"/></cc:Work><cc:License rdf:about="http://creativecommons.org/licenses/publicdomain/"><cc:permits rdf:resource="http://creativecommons.org/ns#Reproduction"/><cc:permits rdf:resource="http://creativecommons.org/ns#Distribution"/><cc:permits rdf:resource="http://creativecommons.org/ns#DerivativeWorks"/></cc:License></rdf:RDF></metadata><g transform="translate(-288.53954,-857.36218)"><path d="m288.54,954.86,0-97.5,195.75,0,195.75,0-48.992,49-48.992,49,48.492,48.5,48.492,48.5-195.25,0-195.25,0,0-97.5z" fill="#F00"/><path d="m374.92,882.93c-0.3141,0.004-2.2216,3.0412-4.25,6.75-6.3356,11.584-5.8518,11.395-10.375,4.375-2.1627-3.3564-4.1625-6.1221-4.4375-6.125-0.275-0.003-1.838,2.4769-3.4688,5.5-2.9232,5.4191-4.2271,6.3853-6.0938,4.5625-1.5673-1.5305-13.689-8.1552-14.125-7.7188-0.47612,0.47612,13.152,23.329,15.469,25.938,0.87215,0.9819,2.24,1.5536,3.0312,1.25,0.79121-0.30361,5.2595-1.2467,9.9375-2.0625,10.929-1.9059,17.867-1.8565,28.875,0.15625,4.8845,0.89307,9.6862,1.6806,10.688,1.75,1.319,0.0914,4.1455-3.663,10.219-13.625,4.6104-7.5625,8.1425-13.75,7.875-13.75-0.84089,0-9.771,4.801-12.906,6.9375-1.65,1.1244-3.4583,2.0589-4.0312,2.0625-0.57293,0.004-2.284-2.5098-3.7812-5.5625s-3.132-5.2615-3.6562-4.9375c-0.52425,0.32401-2.4221,3.0275-4.2188,6.0312-1.7966,3.0037-3.5979,5.4688-3.9688,5.4688-0.3708,0-2.8134-3.825-5.4375-8.5s-5.0297-8.5037-5.3438-8.5zm-2.7188,25.344c7.0159-0.13489,14.039,0.20756,19.625,1.0625,9.7558,1.493,13.371,2.7212,11.375,3.8438-0.46042,0.25898-2.055,0.13338-3.5312-0.28125-1.4762-0.41462-7.4024-1.2836-13.156-1.9375-10.078-1.1453-19.325-0.74755-36.062,1.5938-6.9389,0.97061-5.1868-1.0669,2.125-2.4688,5.5786-1.0696,12.609-1.6776,19.625-1.8125zm-28.562,22.375c-8.1694,0.0738-12.987,2.0554-15.594,6.3125l-1.3125,2.125-2.5-2.5c-2.8667-2.8667-8.2946-4.0182-13.375-2.8125l-3.5,0.84375,2.75,1.3125c3.6125,1.728,7.691,10.142,8.4375,17.375l0.59375,5.5938,9.2188-0.25,9.25-0.21875,0.59375-5.75c0.77014-7.2447,4.4791-14.646,9.3438-18.656l3.7812-3.0938-4-0.1875c-1.3081-0.0659-2.5204-0.1043-3.6875-0.0937zm72.875,6.3438-2.3438,3.4375c-1.2852,1.8914-2.7818,4.573-3.3125,5.9688-1.1516,3.0291-2.5571,3.2314-3.9688,0.59375-1.356-2.5336-5.931-5.7449-9.4375-6.625-2.5144-0.63106-2.7158-0.50761-1.8125,1.1875,1.9615,3.6807,3.2702,16.622,2.2812,22.562-1.3486,8.1009-3.2035,10.331-12.25,14.656l-7.9375,3.8125,4.125,1.2188c7.2166,2.1621,6.3165,5.6708-2.5,9.7812-8.5967,4.008-18.388,2.9437-27.188-2.9375-7.7898-5.206-12.625-13.987-14.75-26.781l-0.59375-3.5312-8.2188,0.84375c-4.5212,0.47679-8.3652,1.0215-8.5625,1.2188-1.1156,1.1156-1.2505,13.164-0.21875,19.281,3.2269,19.131,16.664,34.096,37.781,42.031,5.8252,2.189,8.4491,2.5477,19.25,2.625,12.562,0.09,14.631-0.2795,25.656-4.5625l5.125-2,5.0312,3.625c5.353,3.8458,13.974,7.3488,18.375,7.4688l2.6562,0.062-2.375-4.2813c-4.697-8.4037-3.9954-20.732,2.0938-36.219,6.4535-16.413,1.62-35.315-12.594-49.219l-4.3125-4.2188zm-5.9688,18.094c1.8131-0.1616,3.8328,0.70218,4.9375,2.375,2.6985,4.0863-3.9264,8.7924-7.4375,5.2812-1.6422-1.6422-1.5046-5.3251,0.25-6.7812,0.63077-0.5235,1.4259-0.80155,2.25-0.875z" fill="#FF0"/></g></svg>