<?xml version="1.0" encoding="utf-8"?>
<!-- Generator: Adobe Illustrator 22.1.0, SVG Export Plug-In . SVG Version: 6.00 Build 0)  -->
<svg version="1.1" id="레이어_1" xmlns="http://www.w3.org/2000/svg" xmlns:xlink="http://www.w3.org/1999/xlink" x="0px"
	 y="0px" viewBox="0 0 740 560" style="enable-background:new 0 0 740 560;" xml:space="preserve">
<style type="text/css">
	.st0{fill:#C60C31;}
	.st1{fill:#FFFFFF;}
	.st2{fill:#999999;}
	.st3{fill:#7F7F7F;}
	.st4{fill:none;stroke:#7F7F7F;stroke-miterlimit:10;}
	.st5{fill:#E25C56;stroke:#A36D41;stroke-width:0.5;stroke-miterlimit:10;}
	.st6{fill:#FFFFFF;stroke:#A36D41;stroke-miterlimit:10;}
	.st7{fill:#D69F5F;}
	.st8{fill:#B7804F;}
	.st9{fill:none;stroke:#A36D41;stroke-miterlimit:10;}
	.st10{fill:#E25C56;stroke:#A36D41;stroke-miterlimit:10;}
	.st11{fill:#FFFFFF;stroke:#A36D41;stroke-width:0.5;stroke-miterlimit:10;}
	.st12{fill:#474747;}
	.st13{fill:#D6B363;stroke:#A36D41;stroke-miterlimit:10;}
	.st14{fill:#5C7DC4;stroke:#A36D41;stroke-width:0.5;stroke-miterlimit:10;}
	.st15{fill:#999999;stroke:#7F7F7F;stroke-miterlimit:10;}
	.st16{fill:#D69F5F;stroke:#A36D41;stroke-miterlimit:10;}
	.st17{fill:none;stroke:#B7804F;stroke-width:0.25;stroke-miterlimit:10;}
</style>
<g>
	<rect class="st0" width="740" height="560"/>
	<rect x="240" class="st1" width="81" height="560"/>
	<g>
		<path class="st2" d="M13,195v9c0,0,32,35,124,10s96-112,74-155l-12,4c0,0,27,32,4,83c0,0-11.5,50.5-84.5,61.5
			C118.5,207.5,49.5,225.5,13,195z"/>
		<path class="st3" d="M210,136c0,0-7,20-14,29C196,165,209,154,210,136z"/>
		<path class="st3" d="M97,215c16.7-1.1,32.5-6.7,45.7-13.2c-7.2,2.4-15.2,4.3-24.2,5.7c0,0-69,18-105.5-12.5v9
			c0,0,19.8,21.6,73,18.7C77,220,72.8,216.6,97,215z"/>
		<path class="st4" d="M13,195v9c0,0,32,35,124,10s96-112,74-155l-12,4c0,0,27,32,4,83c0,0-11.5,50.5-84.5,61.5
			C118.5,207.5,49.5,225.5,13,195z"/>
		<path class="st1" d="M216.5,95.5c0,0,2,25-4,38C212.5,133.5,222,121,216.5,95.5z"/>
		<path class="st1" d="M185,181c0,0-15,14-31,20C154,201,171,197,185,181z"/>
		
			<ellipse transform="matrix(0.9957 -9.267278e-02 9.267278e-02 0.9957 -1.9307 11.2155)" class="st5" cx="119.8" cy="26.4" rx="15" ry="6"/>
		<path class="st6" d="M215.7,76c0,0-4.5,5.6-6.3,3.5C207.6,77.3,207.9,73.3,215.7,76z"/>
		<path class="st6" d="M213,93.3c0,0,5.7-4.4,7-1.9S220,97.7,213,93.3z"/>
		<path class="st6" d="M212,88.3c0,0,5.7-4.4,7-1.9S219,92.7,212,88.3z"/>
		<path class="st6" d="M213,81.3c0,0,5.7-4.4,7-1.9S220,85.7,213,81.3z"/>
		<path class="st7" d="M175,116.1c0,0,15-9,24-18c0,0,8-1,12-3c0,0,0-10-2-11c0,0,8-8-1-9s-21.4,29-46.2,13.9l-2.8,14l11,13
			L175,116.1z"/>
		<path class="st8" d="M165,101.1c0,0,11,3,20-3c0,0-4,10-16,12L165,101.1z"/>
		<path class="st9" d="M175,116.1c0,0,15-9,24-18c0,0,8-1,12-3c0,0,0-10-2-11c0,0,8-8-1-9s-21.4,29-46.2,13.9l-2.8,14l11,13
			L175,116.1z"/>
		<path class="st7" d="M40.9,169.9c0,0-26-12-20.9-38s35-30,47.1-46s4.1-38-5.9-41s-18,6-13,15c0,0,6.5,29.5-23.5,20.5c0,0,7-6,6-10
			c0,0-7,1-2-5s-8-3,3-14s23-22,38-9.9s11.9,44,3.9,54s-29,19-38.1,31.9s13,14,13,14L40.9,169.9z"/>
		<path class="st8" d="M40.9,169.9l1.7-6.3c-8.3-5.8-22.4-19.4-13.6-39.8c8.7-20.3,20.1-19,26-27.5c-13.7,9-31.3,16.1-35.1,35.5
			C14.9,157.8,40.9,169.9,40.9,169.9z"/>
		<g>
			<path class="st8" d="M24.8,80.2c11.1-2.4,10.5-9.9,7.3-12.3c-4-3,5-3-1-7c-5-3.4,1.7-10.6,3.9-12.8c-1.2,1.1-2.3,2.2-3.4,3.4
				c-11,11,2,8-3,14s2,5,2,5C31.5,74,25.9,79.1,24.8,80.2z"/>
			<path class="st8" d="M35.7,47.3L35.7,47.3C35.7,47.3,35.7,47.4,35.7,47.3L35.7,47.3z"/>
		</g>
		<path class="st8" d="M39.1,67.9c0,0,2,7-4,10C35.1,77.9,44.1,75.9,39.1,67.9z"/>
		<path class="st8" d="M41.1,63.9c0,0,4,2,3,7C44.1,70.9,49.1,63.9,41.1,63.9z"/>
		<path class="st8" d="M35.1,58.9c0,0,3,2,1,5C36.1,63.9,42.1,59.9,35.1,58.9z"/>
		<path class="st8" d="M35.5,137.4c-3.6,3.7-8.2,9.7-10.7,18.5c6.4,9.4,16.1,14,16.1,14l7.5-28.5C48.5,141.4,39.7,141,35.5,137.4z"
			/>
		<path class="st9" d="M40.9,169.9c0,0-26-12-20.9-38s35-30,47.1-46s4.1-38-5.9-41s-18,6-13,15c0,0,6.5,29.5-23.5,20.5c0,0,7-6,6-10
			c0,0-7,1-2-5s-8-3,3-14s23-22,38-9.9s11.9,44,3.9,54s-29,19-38.1,31.9s13,14,13,14L40.9,169.9z"/>
		<path class="st7" d="M100,113c0,0-19,16-37,15.9c-18,0-28,12-29,22s5.9,34,3.9,39s-12,13-3,21s14.5,9.5,18.5,9.5s15-3,14-9
			s-18,0-17-10s20-21,25.1-30c0,0,6-5,8,12s0,16,9,18s18,16,27,8c0,0,5,1,7-4c0,0,5,1,5-4s-9-5-14-6s-18-1-19-9s0-26,0-26
			s63-2.9,70.1-40.9L100,113z"/>
		<path class="st8" d="M58,219.7c-16.2-2.5-16.2-11.8-16.2-11.8c-4,0-7-1-6-7s13-3,5-22c-6.3-15.1-4.5-31.4-3.4-37.5
			c-2,3.1-3.2,6.4-3.5,9.5c-1,10,5.9,34,3.9,39s-12,13-3,21s14.5,9.5,18.5,9.5C54.5,220.4,56.2,220.2,58,219.7z"/>
		<path class="st8" d="M83,144.9c3,15-7,26-7,26v0.2c1-0.5,3.3-1,5.2,3c7.2-2.2,14.1-7.8,17.1-10.6c0.1-1.9,0.1-3,0.1-3
			s4.4-0.2,10.9-1.2l4.6-8.3C94.9,157,83,144.9,83,144.9z"/>
		<path class="st8" d="M147,118.1c0,0-3,25-27.1,31c0,0,12-3,21-6c4.1-1.3,7.7-0.3,11.6,0.5c7.9-5.8,14-13.6,16-24l-16.1-1.6
			L147,118.1z"/>
		<path class="st8" d="M87.9,188c0,0-1,9,3,11s6,0,9,3c0,0,1-4-6-4S90.9,188,87.9,188z"/>
		<path class="st9" d="M100,113c0,0-19,16-37,15.9c-18,0-28,12-29,22s5.9,34,3.9,39s-12,13-3,21s14.5,9.5,18.5,9.5s15-3,14-9
			s-18,0-17-10s20-21,25.1-30c0,0,6-5,8,12s0,16,9,18s18,16,27,8c0,0,5,1,7-4c0,0,5,1,5-4s-9-5-14-6s-18-1-19-9s0-26,0-26
			s63-2.9,70.1-40.9L100,113z"/>
		<path class="st6" d="M68.8,219.9c0,0-6-4-4-6C66.9,211.9,70.9,211.9,68.8,219.9z"/>
		<path class="st6" d="M116.8,215c0,0-6-4-4-6S118.9,207,116.8,215z"/>
		<path class="st6" d="M124.9,212c0,0-6-4-4-6S126.9,204,124.9,212z"/>
		<path class="st6" d="M131.9,208c0,0-6-4-4-6S133.9,200,131.9,208z"/>
		<path class="st6" d="M207.4,158.8c0,0-7.2-0.6-6.4-3.3C201.8,152.7,205.3,150.8,207.4,158.8z"/>
		<path class="st6" d="M211.4,153.8c0,0-7.2-0.6-6.4-3.3C205.8,147.7,209.3,145.8,211.4,153.8z"/>
		<path class="st6" d="M213.4,147.8c0,0-7.2-0.6-6.4-3.3C207.8,141.7,211.3,139.8,213.4,147.8z"/>
		<path class="st8" d="M54.8,214.9c0,0,3-1,4,1C58.8,215.9,57.9,211.9,54.8,214.9z"/>
		<path class="st8" d="M58.9,211.9c0,0,3-1,4,1C62.8,212.9,61.9,208.9,58.9,211.9z"/>
		<path class="st8" d="M112.9,205c0,0,3-1,4,1C116.9,206,115.9,202,112.9,205z"/>
		<path class="st8" d="M120.9,201c0,0,3-1,4,1C124.9,202,123.9,198,120.9,201z"/>
		<path class="st7" d="M156,118.1c0,0-14,15,9,23s26,9,30,13.1c4,4,10,5,11,0c0,0,5-2,4-6c0,0,2-3,1-6s-12-4-21-9
			S164,108.1,156,118.1z"/>
		<path class="st8" d="M165.4,116c-2.5-0.9-4.8-1-6.8-0.1C146.1,131.6,178,139,178,139C151.8,127.6,161.1,118.8,165.4,116z"/>
		<path class="st9" d="M156,118.1c0,0-14,15,9,23s26,9,30,13.1c4,4,10,5,11,0c0,0,5-2,4-6c0,0,2-3,1-6s-12-4-21-9
			S164,108.1,156,118.1z"/>
		<path class="st8" d="M199,151.1c0,0,3-1,4,1C203,152.1,202,148.1,199,151.1z"/>
		<path class="st8" d="M203,145.1c0,0,3-1,4,1C207,146.2,206,142.2,203,145.1z"/>
		<path class="st10" d="M149.1,55.5c0,0,3,1.9,11,0s7-9.5,11-9.5s1,19.9-24,18.9l-20-1.9l3-9.5h18L149.1,55.5z"/>
		<polygon class="st11" points="137.1,63 140.1,59 141.1,64 		"/>
		<polygon class="st11" points="141.1,63 144.1,59 145.1,64 		"/>
		<polygon class="st11" points="145.1,64 148.1,60.1 149.1,65.1 		"/>
		<polygon class="st11" points="139.9,55.9 142.5,60.1 144,55.2 		"/>
		<polygon class="st11" points="144.9,55.9 147.5,60.1 149,55.3 		"/>
		<path class="st7" d="M118.2,31c0,0-21,6-25,15s0,13-3,17s-6,9-4,14c0,0,1,5-1,8s1,6,1,6s-3,7,4,9c0,0-1,6,1,8s-1,4-4,5
			c0,0,3,2,6,1c0,0-3.1,5.5-6.1,7.7c0,0,10.1,1.3,16.1-1.7c0,0,6,1,14,0c0,0-1,8,4,8s7.5-3.5,12.5-6.5c0,0-1.5,10.5,9.2,13.8
			c0,0,8.8-5.8,5.8-14.8c0,0,6,0,11-2c0,0,11,4,20-1c0,0-9-16-14-16c0,0,3-3,2-6c0,0,4-5-8-12s-19-1-21-8c0,0,9,5,11-10c0,0-3-3-7-3
			s-9,0-10-1s5-5,8-5s18,5,18-7c0,0,2-1,1-3s-12-7-14-9C143.6,35.5,134.7,31.5,118.2,31z"/>
		<path class="st8" d="M109.1,45c0,0-11,6,0,7C109.1,52,104.1,50,109.1,45z"/>
		<path class="st8" d="M108.1,42c9-8,24-7,24-7l-1.4-2.8c-3.6-0.6-7.8-1.1-12.6-1.2c0,0-21,6-25,15s0,13-3,17s-6,9-4,14c0,0,1,5-1,8
			s1,6,1,6s-3,7,4,9c0,0-1,6,1,8s-1,4-4,5c0,0,3,2,6,1c0,0-3.1,5.5-6.1,7.7c0,0,10.1,1.3,16.1-1.7c0,0,3.9,0.6,9.5,0.4
			c15.3-8-6.7-29.2-1.5-34.4c6-6,0-15-3-20s2-10-2-11C102.1,54,99.1,50,108.1,42z"/>
		<path class="st8" d="M127,106c0,0,4,9-5,12C122,118,135,117,127,106z"/>
		<path class="st8" d="M137,112c0,0,0,5-7,6C130,118,138,119,137,112z"/>
		<path class="st8" d="M139,112c0,0,6,7,17,5C156,117.1,144,123,139,112z"/>
		<path class="st8" d="M162,101.1c0,0-6-6-13-5C149,96.1,157.1,93.1,162,101.1z"/>
		<path class="st8" d="M146,99c0,0,0,10,8,13C154,112.1,148,107.1,146,99z"/>
		<path class="st8" d="M114.1,71c0,0,7,9,0,15C114.1,86,124.1,82,114.1,71z"/>
		<path class="st8" d="M126.1,83c0,0,3,5,10,7C136.1,90,127.1,90,126.1,83z"/>
		<path class="st8" d="M122,98c0,0-5-8-8-9c0,0,7-5,8-9c0,0,1,3-2,7C117.1,91,123.1,92,122,98z"/>
		<path class="st1" d="M140.7,43.9c-1.6-0.1-4.3-0.1-6.4,1.2c0,0.5,0,0.9,0.1,1.4c0.6,1.9,2.5,2.9,4.3,2.3s2.8-2.5,2.3-4.4
			C140.9,44.3,140.8,44.1,140.7,43.9z"/>
		<path class="st8" d="M131.1,42c0,0,4-3,7-1s3-1,1-1S135.1,38,131.1,42z"/>
		<path class="st12" d="M139,44.7c-0.1-0.3-0.2-0.5-0.3-0.7c-1,0.1-2,0.3-3,0.6c0,0.4,0,0.7,0.1,1.1c0.4,1.3,1.4,2.1,2.3,1.8
			C139,47.2,139.4,45.9,139,44.7z"/>
		<path class="st8" d="M142.1,44c0,0-7-1-10,3C132.1,47,135.1,42,142.1,44z"/>
		<circle class="st1" cx="136.6" cy="45.5" r="0.5"/>
		<path class="st8" d="M158.6,50.4c-1.8,1.1-7.7,4.8-14.4,6.6C149.5,57.9,158,58.8,158.6,50.4z"/>
		<path class="st8" d="M156.1,48.1c0,0,0,1,1,1c0.6,0,1.1,0.3,1.5,0.6v-0.1c0,0,2-1,1-3c-0.2-0.3-0.6-0.8-1.3-1.2
			C156.1,46,156.1,48.1,156.1,48.1z"/>
		<path class="st8" d="M138.6,75.5c0,0,7.1,3.9,10.1-5.7c-2-1.4-3.3-0.4-6.6,1.2c-4,2-6-1-6-1C136.1,72.4,137.5,74.4,138.6,75.5
			C138.6,75.6,138.6,75.6,138.6,75.5z"/>
		<path class="st8" d="M155.1,47.1c0,0-7-1-9-2C146.1,45,152.1,48.1,155.1,47.1z"/>
		<path class="st8" d="M132.1,49c0,0,1,2,3,2C135.1,51,131.1,53,132.1,49z"/>
		<path class="st8" d="M132.1,59c0,0-3,3,0,5C132.1,64,127.1,62,132.1,59z"/>
		<path class="st8" d="M136.1,78c0,0-5-2-9,0C127.1,78,132.1,73,136.1,78z"/>
		<path class="st8" d="M127.3,125.8c-8.8-1.3-6.3-8.8-6.3-8.8c-1,1.5-2.9,2.4-4.6,3.1c0.2,0,0.4,0,0.6-0.1c0,0-1,8,4,8
			C123.5,128,125.4,127.1,127.3,125.8z"/>
		<path class="st8" d="M158,114.1c-5,2-17,1-17,1c6.2,11.6-1.4,14.8-5.1,15.7c1.4,1.9,3.5,3.6,6.9,4.6c0,0,8.8-5.8,5.8-14.8
			c0,0,6,0,11-2c0,0,11,4,20-1c0,0-4.4-7.9-8.8-12.6C169,112.1,162.6,112.2,158,114.1z"/>
		<path class="st8" d="M167.7,95.4c0.2-0.4,0.6-1.2,0.5-2.4c-11.6-11.4-18.1-8.9-18.1-8.9C158.7,84.7,164.7,91.1,167.7,95.4z"/>
		<path class="st7" d="M107,100c0,0,5,7-2,12C105,112,109,107,107,100z"/>
		<path class="st7" d="M89.1,91c0,0-2,4,4,7C93,98,85,96.9,89.1,91z"/>
		<path class="st7" d="M93,105c0,0,2,4-2,7C91,112,98,109,93,105z"/>
		<path class="st7" d="M97,113c0,0-3,5-6,7C91,120,97,120,97,113z"/>
		<path class="st7" d="M88.1,88c0,0-2-3,1-5s7-4,7-9c0,0,4,4-3,8C86.1,85.9,89.1,86,88.1,88z"/>
		<path class="st7" d="M105.1,86c0,0-1,6,1,10C106,96,101.1,92,105.1,86z"/>
		<path class="st9" d="M118.2,31c0,0-21,6-25,15s0,13-3,17s-6,9-4,14c0,0,1,5-1,8s1,6,1,6s-3,7,4,9c0,0-1,6,1,8s-1,4-4,5
			c0,0,3,2,6,1c0,0-3.1,5.5-6.1,7.7c0,0,10.1,1.3,16.1-1.7c0,0,6,1,14,0c0,0-1,8,4,8s7.5-3.5,12.5-6.5c0,0-1.5,10.5,9.2,13.8
			c0,0,8.8-5.8,5.8-14.8c0,0,6,0,11-2c0,0,11,4,20-1c0,0-9-16-14-16c0,0,3-3,2-6c0,0,4-5-8-12s-19-1-21-8c0,0,9,5,11-10c0,0-3-3-7-3
			s-9,0-10-1s5-5,8-5s18,5,18-7c0,0,2-1,1-3s-12-7-14-9C143.6,35.5,134.7,31.5,118.2,31z"/>
		<path class="st8" d="M128.1,62c0,0,0,2,4,3C132.1,65,127.1,66,128.1,62z"/>
		<path class="st8" d="M142.1,47c0,0-1,3-4,3C138.1,50,141.1,51,142.1,47z"/>
		<path class="st8" d="M74.6,75.4c0,0-1,12-14,20C60.5,95.4,76.1,89.9,74.6,75.4z"/>
		<path class="st8" d="M38.1,49.9c0,0,6-8,12-8C50.1,41.9,44.1,37.9,38.1,49.9z"/>
		<path class="st8" d="M72,131.9c0,0,7,1,9,8C81,139.9,83,127.9,72,131.9z"/>
		<path class="st8" d="M206,85c0,0-1,2-5,0C201,85,204,90,206,85z"/>
		
			<rect x="117.7" y="18" transform="matrix(0.9957 -9.267278e-02 9.267278e-02 0.9957 -1.3891 11.0884)" class="st13" width="2" height="5"/>
		<polygon class="st13" points="121.5,12.3 118.8,12.6 118.6,10.8 117,11 117.2,12.7 114.4,13 114.6,14.6 117.3,14.3 117.7,18.1 
			119.3,18 118.9,14.2 121.7,13.9 		"/>
		<path class="st13" d="M103.4,28.5c0,0-2.6-6.5,6.5-6l-0.2-1.6c0,0-14,0.3-7.2,8.7L103.4,28.5z"/>
		<path class="st13" d="M135.2,25.5c0,0,1.4-6.9-7.5-4.7l-0.2-1.6c0,0,13.8-2.3,8.7,7.2L135.2,25.5z"/>
		<path class="st13" d="M111.2,25.7c0,0-2.6-6.5,6.5-6l-0.2-1.6c0,0-14,0.3-7.2,8.7L111.2,25.7z"/>
		<path class="st13" d="M127.1,24.3c0,0,1.4-6.9-7.5-4.7l-0.2-1.6c0,0,13.8-2.3,8.7,7.2L127.1,24.3z"/>
		
			<ellipse transform="matrix(0.9957 -9.267278e-02 9.267278e-02 0.9957 -1.2327 11.063)" class="st13" cx="118.5" cy="18.8" rx="2" ry="1.8"/>
		<path class="st13" d="M137,25.3c-1.3-2.9-2,1.2-3.2-0.7c-1.2-1.9-1.9,2.2-1.8,3.2c0,0.4-0.1,0.9-0.3,1.2c-1-0.4-2.3-0.8-3.9-1
			l-0.1-0.8c2.1-0.2,1.9-2.2,0.7-4.1s-2.1,0.2-3,1.3c-0.9,1.1,0.2,2,0.2,2l0.1,1.4c-1.3-0.1-2.7-0.1-4.2,0l-0.1-1l0.8-3.1l-3.3-1.7
			l-2.9,2.3l1.3,2.9l0.1,1c-1.5,0.2-2.9,0.5-4.1,0.8l-0.1-1.4c0,0,0.9-1.1-0.2-2s-2.4-2.8-3.2-0.7c-0.9,2.1-0.7,4.1,1.4,3.9l0.1,0.8
			c-1.5,0.5-2.8,1.1-3.6,1.7c-0.3-0.3-0.5-0.7-0.5-1.2c-0.1-1-1.5-4.9-2.4-2.8s-2.3-1.8-3,1.3c-0.8,3.1,2.2,0.8,3.5,3.7
			s1.4,3.9,1.4,3.9c0,0.5,0.5,1,1.1,1.4c1.9-1.6,6.6-3.1,12.3-3.7c5.7-0.5,10.6,0,12.8,1.3c0.6-0.5,0.9-1.1,0.9-1.6
			c0,0-0.1-1,0.7-4.1C135,26.5,138.3,28.2,137,25.3z"/>
		<path class="st14" d="M107.3,35.4L107.3,35.4c-0.5,0.2-1.1-0.1-1.3-0.6l0,0c-0.2-0.5,0.1-1.1,0.6-1.3l0,0c0.5-0.2,1.1,0.1,1.3,0.6
			l0,0C108.1,34.6,107.9,35.2,107.3,35.4z"/>
		<path class="st5" d="M113,33.6l-0.9,0.2c-0.5,0.1-1.1-0.2-1.2-0.7V33c-0.1-0.5,0.2-1.1,0.7-1.2l0.9-0.2c0.5-0.1,1.1,0.2,1.2,0.7
			v0.1C113.9,32.9,113.5,33.5,113,33.6z"/>
		<path class="st14" d="M132.6,33L132.6,33c0.5,0.1,1.1-0.3,1.2-0.8l0,0c0.1-0.5-0.3-1.1-0.8-1.2l0,0c-0.5-0.1-1.1,0.3-1.2,0.8l0,0
			C131.7,32.4,132.1,32.9,132.6,33z"/>
		<path class="st5" d="M126.7,32.3l1,0.1c0.5,0,1-0.4,1.1-0.9v-0.1c0-0.5-0.4-1-0.9-1.1l-1-0.1c-0.5,0-1,0.4-1.1,0.9v0.1
			C125.7,31.8,126.2,32.3,126.7,32.3z"/>
		<path class="st14" d="M120.8,31.9l-2,0.2c-0.5,0.1-1-0.4-1.1-0.9l0,0c-0.1-0.5,0.4-1,0.9-1.1l2-0.2c0.5-0.1,1,0.4,1.1,0.9l0,0
			C121.7,31.3,121.3,31.8,120.8,31.9z"/>
		<path class="st2" d="M210,61c0,0,7.5-4,15,5c0,0-2.1-26-10.7-32c0,0,1.9,15.3-13,18.1L210,61z"/>
		<path class="st3" d="M210,61c0,0,7.5-4,15,5c0,0-0.2-2.4-0.7-5.8c-3.6-3.4-9.5-6.2-18.7-3.7L210,61z"/>
		<path class="st3" d="M216.4,40c0,0,0,6-5.3,10h7.5C218.6,50,219.7,47,216.4,40z"/>
		<path class="st4" d="M210,61c0,0,7.5-4,15,5c0,0-2.1-26-10.7-32c0,0,1.9,15.3-13,18.1L210,61z"/>
		<path class="st15" d="M195.6,55c0,0-13.4,6-9.1,18c0,0,9.6-9,16-9L195.6,55z"/>
		<path class="st2" d="M195.6,54.5l5.3,10c0,0,7.5,3,10.7-4l-6-10.9L195.6,54.5z"/>
		<path class="st3" d="M211.6,60.5l-0.1-0.1l-15.9-5.9h-0.1l5.3,10C200.9,64.5,208.4,67.5,211.6,60.5z"/>
		<polygon class="st1" points="203.6,54 205.8,53 207.9,57 		"/>
		<path class="st4" d="M195.6,54.5l5.3,10c0,0,7.5,3,10.7-4l-6-10.9L195.6,54.5z"/>
		<path class="st2" d="M205.8,50c0,0-5.3,5-10.7,5l-12.8-8c0,0-9.6-24-19.2-32c0,0,20.3-2,38.5,20L205.8,50z"/>
		<path class="st3" d="M187.6,46l5.3-5l6.4,10C199.3,51,191.9,43,187.6,46z"/>
		<polygon class="st3" points="199.3,39 195.1,41 198.3,46 		"/>
		<path class="st3" d="M191.9,39c0,0-11.8-14-17.1-18c0,0,17.1,16,13.9,21L191.9,39z"/>
		<path class="st1" d="M192.9,38c0,0-9.6-13-15-16c0,0,9.6,6,15,14V38z"/>
		<path class="st4" d="M205.8,50c0,0-5.3,5-10.7,5l-12.8-8c0,0-9.6-24-19.2-32c0,0,20.3-2,38.5,20L205.8,50z"/>
		<path class="st3" d="M197.2,63c0,0-4.3,1-7.5,5c0,0,1.1-5,6.4-7L197.2,63z"/>
		<path class="st1" d="M215.4,37c0,0,0,2-1.1,5l2.1-3L215.4,37z"/>
		<path class="st16" d="M217,83c0,0-4,6,0,7c0,0-2,6,3,6s3-5,3-5s3-7-1-8c0,0,2-7-2-7S214,80,217,83z"/>
		<path class="st3" d="M167,198c0,0-19,10-29,12C138,210,155,209,167,198z"/>
		<path class="st3" d="M212,65c0,0-2,4-7,3l3,5C208,73,213,69,212,65z"/>
		<path class="st3" d="M200,168c0,0-11,16-19,21C181,189,196,181,200,168z"/>
		<path class="st9" d="M75.5,171.5c0,0,5.7-6.7,6.9-12.8"/>
		<path class="st17" d="M140.7,43.9c-1.6-0.1-4.3-0.1-6.4,1.2c0,0.5,0,0.9,0.1,1.4c0.6,1.9,2.5,2.9,4.3,2.3s2.8-2.5,2.3-4.4
			C140.9,44.3,140.8,44.1,140.7,43.9z"/>
		<path class="st6" d="M64.8,222.9c0,0-6-4-4-6C62.8,214.9,66.8,214.9,64.8,222.9z"/>
		<path class="st6" d="M60.8,224.9c0,0-6-4-4-6S62.8,216.9,60.8,224.9z"/>
	</g>
	<rect y="239.5" class="st1" width="740" height="81"/>
</g>
</svg>
