<?xml version="1.0" encoding="UTF-8" standalone="no"?>
<!-- Created with Inkscape (http://www.inkscape.org/) -->

<svg
   xmlns:dc="http://purl.org/dc/elements/1.1/"
   xmlns:cc="http://creativecommons.org/ns#"
   xmlns:rdf="http://www.w3.org/1999/02/22-rdf-syntax-ns#"
   xmlns:svg="http://www.w3.org/2000/svg"
   xmlns="http://www.w3.org/2000/svg"
   xmlns:sodipodi="http://sodipodi.sourceforge.net/DTD/sodipodi-0.dtd"
   xmlns:inkscape="http://www.inkscape.org/namespaces/inkscape"
   width="700"
   height="412"
   id="svg2"
   version="1.1"
   inkscape:version="0.48.0 r9654"
   sodipodi:docname="New document 1">
  <defs
     id="defs4" />
  <sodipodi:namedview
     id="base"
     pagecolor="#ffffff"
     bordercolor="#666666"
     borderopacity="1.0"
     inkscape:pageopacity="0.0"
     inkscape:pageshadow="2"
     inkscape:zoom="0.35"
     inkscape:cx="-771.2701"
     inkscape:cy="-74.206774"
     inkscape:document-units="px"
     inkscape:current-layer="layer1"
     showgrid="false"
     inkscape:window-width="1280"
     inkscape:window-height="968"
     inkscape:window-x="-4"
     inkscape:window-y="-4"
     inkscape:window-maximized="1" />
  <metadata
     id="metadata7">
    <rdf:RDF>
      <cc:Work
         rdf:about="">
        <dc:format>image/svg+xml</dc:format>
        <dc:type
           rdf:resource="http://purl.org/dc/dcmitype/StillImage" />
        <dc:title></dc:title>
      </cc:Work>
    </rdf:RDF>
  </metadata>
  <g
     inkscape:label="Layer 1"
     inkscape:groupmode="layer"
     id="layer1"
     transform="translate(0,-640.36218)"
     sodipodi:insensitive="true">
    <path
       style="fill:#960105;fill-opacity:1"
       d="m 0,640.36218 700,0 0,412.00002 -700,0 z"
       id="path2996"
       inkscape:connector-curvature="0"
       sodipodi:nodetypes="ccccc" />
    <path
       id="path3042"
       transform="matrix(1.1961722,0,0,1.1961722,-90.334069,603.99239)"
       style="fill:#ffffff;fill-opacity:1;stroke:none"
       d="m 397.90178,180.50447 c 0,2.57651 -2.08867,4.66518 -4.66518,4.66518 -2.5765,0 -4.66518,-2.08867 -4.66518,-4.66518 0,-2.57651 2.08868,-4.66518 4.66518,-4.66518 2.57651,0 4.66518,2.08867 4.66518,4.66518 z m -99.24886,-58.97532 c -2.47295,3.09414 -4.52236,9.67251 -3.97273,14.61569 0.29299,2.63504 1.02595,5.55185 3.12556,6.48212 0.43681,2.78204 -0.0958,4.68416 -1.42568,6.93432 -3.12044,4.98899 -6.78148,7.91994 -11.36438,12.55493 -4.58291,4.63498 -10.4959,9.53797 -13.23418,15.13383 -2.73827,5.59587 -3.8232,13.7929 -0.53743,20.15357 2.11472,3.98254 8.03658,8.01023 15.01442,7.19558 2.45561,0.0652 13.84897,-2.67125 13.59619,-1.56004 -2.12558,3.33242 -5.10176,6.31246 -7.28887,9.35275 -4.09411,5.09128 -8.56967,10.38042 -14.49938,13.2715 -1.13375,0.54551 -2.32906,0.90607 -3.762,1.12338 -3.75439,0.63854 -7.48558,-0.25077 -10.99863,0.627 -4.39745,1.47112 -7.59599,3.77391 -11.45135,5.95144 -6.13511,3.462 -12.43669,6.77391 -17.05102,12.10093 -2.59312,3.26792 -4.30862,7.17879 -5.78091,10.76554 -0.99219,4.32908 -4.50652,7.05236 -5.32222,11.12722 -0.36077,2.35195 1.22415,3.19316 3.16113,3.50075 3.73866,-0.33486 7.73359,0.5532 10.64985,-0.79715 4.56551,-1.80249 3.71627,-4.06125 4.2527,-6.98256 0.4916,-2.67713 1.19317,-5.2629 3.08264,-7.20485 0.90595,-0.99434 1.96865,-1.54091 2.91481,-2.4147 6.34535,-4.51841 14.18766,-9.68888 21.109,-11.65175 1.50338,-0.37605 2.95018,-0.53716 4.54575,-0.5225 10.5984,0.70303 20.55357,2.76388 30.17438,-0.1045 12.67509,-4.28543 25.18606,-19.46684 38.61275,-18.392 -5.67821,1.06753 -18.08282,6.94636 -22.70263,11.25988 7.69226,-1.53496 15.89041,-3.86111 22.80713,-3.97096 4.20631,-0.068 8.40844,0.36804 12.09587,1.51525 11.39842,4.39886 21.54003,11.43391 32.15988,16.511 8.74855,4.37981 18.11488,6.20624 27.14388,7.88975 5.06584,0.9396 9.25566,1.58621 9.48337,1.3585 -3.61892,-6.07962 -9.81422,-8.99903 -13.2715,-15.59662 5.60525,4.21655 9.86212,9.12912 14.44713,13.82012 1.20858,1.23043 2.32972,2.22411 3.57912,3.10888 9.93676,5.77599 22.05012,10.11492 31.71575,14.18587 6.47764,2.58921 12.77612,5.56485 19.20188,7.07988 2.31501,0.5375 4.46716,0.82469 6.84475,0.9405 5.98405,0.13481 11.49884,-0.1005 17.26862,-0.60088 3.23781,-0.50463 7.25599,-0.12339 9.85616,-2.45575 0.0504,-4.67961 -0.95598,-7.24785 -4.07511,-9.65989 -3.11911,-2.41202 -5.73663,-2.97584 -8.68092,-2.80173 -5.7379,1.45517 -12.37012,1.24677 -16.72531,-0.91225 -5.2608,-1.61549 -9.45462,-5.16002 -13.29232,-8.10088 -4.62749,-3.41092 -9.60448,-6.60369 -14.58731,-9.27909 -3.54322,-7.46672 -11.90457,-19.30432 -12.76556,-26.22478 1.92749,2.87433 3.89388,6.80167 6.29612,10.63287 2.40225,3.8312 5.68535,9.70601 7.41559,13.27871 2.4051,2.73019 5.29466,4.13077 8.46841,6.28892 8.75524,-5.16393 14.72082,-11.31623 18.62713,-21.26575 3.90631,-9.94953 3.73394,-13.94392 4.51313,-20.70176 0.5046,-3.86453 2.76639,-6.92008 5.30987,-6.59887 3.84541,0.19518 6.36549,6.03696 9.16987,8.36 2.62227,1.84518 5.10249,0.29542 7.05375,-1.43688 1.57362,-1.36517 2.32517,-2.20621 1.17563,-3.73587 -0.0732,-0.0882 0.17541,-0.54737 0.39187,-1.01888 0.21647,-0.4715 0.40079,-0.95532 0.209,-1.09725 -0.15639,-0.11573 -0.58175,0.0823 -1.01887,0.3135 -0.43712,0.23119 -0.88599,0.49554 -1.045,0.5225 -0.93766,-0.71915 -1.76537,-1.64494 -2.926,-2.32512 -0.99541,-0.58334 -1.83408,-0.73155 -2.45575,-1.01888 -0.82904,-0.38782 -1.50423,-0.44873 -1.17563,-1.85487 0.3286,-1.40614 2.8376,-1.31424 4.31063,-1.09725 0.71904,0.1671 1.41226,0.46147 2.01162,0.88825 0.31252,0.22253 2.58158,2.16358 2.926,2.717 -0.0467,0.52941 -0.61991,1.29891 -0.5225,1.5675 3.56044,-0.30622 7.40353,-2.48866 9.01313,-4.44125 0.71195,-0.88955 1.34224,-1.78925 2.01162,-2.76925 1.08149,-0.70962 1.9022,-1.42502 2.14225,-2.58638 -0.47445,-1.3512 -1.70035,-2.49834 -2.4035,-3.42237 -2.87267,-4.55901 -6.42757,-8.79989 -9.405,-12.749 2.94133,-5.31822 -15.24033,-14.12519 -22.88545,-17.50375 -1.25453,-1.61614 -2.86141,-3.68714 -4.60895,-4.97034 -1.99335,-1.2794 -4.11929,-1.81217 -6.12842,-0.72499 -1.27727,1.331 -1.18545,2.46869 -1.17563,3.84037 -11.34139,-1.29406 -23.25758,5.08786 -30.5051,13.13961 -7.24751,8.05176 -13.68616,15.86059 -20.62152,18.21039 -6.93536,2.3498 -13.09314,0.70466 -19.1235,0.47025 -15.62651,-0.21906 -29.23062,-3.283 -44.02063,-5.3295 -12.80645,-2.28542 -25.41138,-1.10683 -37.829,1.38468 -10.85515,1.38496 -19.14328,6.34411 -28.50238,9.823 -3.72448,1.28393 -7.14872,2.31649 -10.89412,2.58637 -3.7454,0.26988 -7.58524,-0.90319 -10.05813,-3.31785 -2.47289,-2.41466 -2.95257,-5.17039 -2.97825,-8.0465 -0.0257,-2.87611 0.0924,-4.98564 1.7765,-8.07263 1.68409,-3.08699 5.41811,-7.23383 7.96813,-9.823 4.35659,-4.5873 6.32757,-7.8321 11.93833,-13.95347 5.61076,-6.12136 8.50626,-12.78539 8.30473,-18.48258 -0.20152,-5.69719 -1.64401,-11.88456 -4.80326,-15.00699 z m 90.26188,9.196 0.33962,13.794 -15.28312,-0.60087 0,9.614 15.70112,-1.1495 -0.88825,21.81437 9.58788,0 -1.20175,-21.78825 16.093,1.12338 0,-9.69238 -15.96238,1.045 1.1495,-14.15975 z m -35.23977,101.76682 c 0.36324,1.45511 0.12595,3.03784 -0.23798,4.27456 -2.63265,9.92182 -16.5569,13.34801 -17.08575,19.46312 2.17135,3.44011 5.33704,6.02177 8.36,8.33388 2.24972,1.98247 5.21938,2.85485 7.68075,3.31788 1.98129,0.36769 4.2627,1.19701 6.6656,1.38462 3.14204,0.24532 5.75936,-0.97872 7.39711,-0.6046 3.02547,0.29129 3.98789,2.77049 5.58329,4.39273 0.58298,0.60619 1.0035,1.196 1.254,1.75037 0.2574,2.79473 -1.36249,3.75911 -3.52688,4.0755 -6.43374,-0.16867 -12.97767,1.77193 -19.61987,-0.18287 -1.3794,-0.4311 -9.2796,-3.74603 -17.556,-7.34113 l -13.87313,-6.02132 c -1.49639,-0.35968 -1.31142,-1.67571 -1.32513,-2.82406 2.0167,-10.52213 -1.02192,-14.37937 -3.61175,-23.1055 3.18001,-2.67391 11.52492,-5.50239 19.92845,-7.06764 6.62098,-0.8672 13.74755,-1.22412 19.96729,0.15446 z m 56.21814,24.67818 c -0.27799,0.0146 -0.4679,0.12851 -0.60087,0.33963 -0.13298,0.21112 -0.209,0.51934 -0.209,0.9405 0,0.3816 -0.0939,0.77775 -0.28738,1.17563 -0.19345,0.39787 -0.49292,0.79781 -0.86212,1.20175 -0.73842,0.80785 -1.79971,1.60661 -3.135,2.37737 -1.33529,0.77076 -2.93799,1.51646 -4.72863,2.16838 -1.79063,0.65191 -3.77367,1.22067 -5.87812,1.672 -1.11128,0.23832 -2.20657,0.56639 -3.21338,0.96662 -1.00681,0.40024 -1.93022,0.86848 -2.717,1.3585 -0.78677,0.49002 -1.42983,1.00755 -1.881,1.51525 -0.45117,0.5077 -0.70537,1.00973 -0.70537,1.463 0,0.47657 0.26052,1.02848 0.70537,1.59363 0.44485,0.56514 1.06663,1.1375 1.82875,1.69812 0.76213,0.56062 1.66068,1.10451 2.6125,1.5675 0.95182,0.46299 1.96431,0.85111 2.97825,1.12338 1.20109,0.32252 2.28337,0.53239 3.37013,0.627 1.08676,0.0946 2.18565,0.0664 3.42237,-0.1045 1.23672,-0.17089 2.60738,-0.46655 4.25838,-0.9405 1.651,-0.47396 3.57468,-1.11865 5.90425,-1.93325 3.9083,-1.36666 8.13576,-3.03042 9.405,-3.68363 0.69602,-0.35821 1.60027,-1.16799 2.53412,-2.1945 0.93386,-1.02651 1.89172,-2.26897 2.74313,-3.50075 0.85141,-1.23178 1.58908,-2.44838 2.03775,-3.42237 0.22434,-0.48701 0.38052,-0.91827 0.44412,-1.254 0.0636,-0.33574 0.0327,-0.57878 -0.1045,-0.70538 -0.42066,-0.38823 -4.14342,-1.33789 -8.28162,-2.11612 -4.1382,-0.77824 -8.18235,-1.60097 -8.987,-1.82876 -0.25693,-0.0727 -0.46779,-0.11418 -0.65313,-0.1045 z"
       inkscape:connector-curvature="0"
       sodipodi:nodetypes="ssssscscczzcccccccccccccsccccccccccccccccccccscccccsccsccccccsccsczcsccccccccccczzcccczzzzczzccccccccccccccccccccscccccccccccccsccsssssssssssssssssssscscc" />
  </g>
</svg>
