<?xml version="1.0" encoding="utf-8"?>
<!-- Generator: Adobe Illustrator 16.0.0, SVG Export Plug-In . SVG Version: 6.00 Build 0)  -->
<!DOCTYPE svg PUBLIC "-//W3C//DTD SVG 1.1//EN" "http://www.w3.org/Graphics/SVG/1.1/DTD/svg11.dtd">
<svg version="1.1" id="Layer_1" xmlns="http://www.w3.org/2000/svg" xmlns:xlink="http://www.w3.org/1999/xlink" x="0px" y="0px"
	 width="500px" height="333px" viewBox="0 0 500 333" enable-background="new 0 0 500 333" xml:space="preserve">
<g>
	<rect fill="#FFFFFF" width="500" height="333"/>
	<rect y="119.37" fill="#C8271D" width="500.32" height="91.097"/>
	<rect x="204.611" y="0.001" fill="#C8271D" width="91.097" height="332.999"/>
	<path d="M236.917,205.167c0,0-11.583,12.166-10.75,21.5c0,0,9.916,1.334,8.333,7.417c0,0-0.709,2.416-2.979,3.333
		c0,0,1.493-1.387,1.313-4.833s-8.167-5.75-10.75-1.5c0,0-2.833,3.499-3.917,6.333s0.75,6.834,2.583,2.334c0,0,1,2.749-2.083,3.416
		s-4.667-7,3.417-15.083c0,0-5.167-10.588-10.667,4.912c0,0-1.083-2.25,0.917-5.5s4.5-5.788,9.167-3.309
		c0,0-2.25-12.691-11.667-1.441c0,0,0.167-3.167,2.417-4.75s9.333-4.416,11.125,5.834c0,0,0.625,0.334,1.958-3.5
		s7-14.167,11.583-16.167V205.167z"/>
	<path d="M263.403,205.167c0,0,11.583,12.166,10.75,21.5c0,0-9.916,1.334-8.333,7.417c0,0,0.709,2.416,2.979,3.333
		c0,0-1.493-1.387-1.313-4.833c0.181-3.446,8.167-5.75,10.75-1.5c0,0,2.834,3.499,3.917,6.333s-0.749,6.834-2.583,2.334
		c0,0-1,2.749,2.083,3.416s4.667-7-3.417-15.083c0,0,5.167-10.588,10.667,4.912c0,0,1.083-2.25-0.917-5.5s-4.499-5.788-9.166-3.309
		c0,0,2.25-12.691,11.666-1.441c0,0-0.166-3.167-2.416-4.75s-9.333-4.416-11.125,5.834c0,0-0.625,0.334-1.959-3.5
		c-1.333-3.834-7-14.167-11.583-16.167V205.167z"/>
	<path fill="#FFFFFF" stroke="#000000" stroke-miterlimit="10" d="M244.489,97.125c0,0-2.739,0.375-5.864-2.25
		s-10-11.625-18.625-1.5c0,0,13.375-2.75,16.125,10.375c0,0-10.125-9-16.125-6.875c0,0,12.125,2.875,18.75,25.375
		C238.75,122.25,241.229,117.75,244.489,97.125z"/>
	<path fill="#FFFFFF" stroke="#000000" stroke-miterlimit="10" d="M315.654,196.508c0,0-14.834-18.383-17.084-39.258
		c0,0,1-11.625-5.5-20.625s-18.25-22.25-27.5-11.5c0,0-1.375,3,0.125,4.875s3.25,4.25,7.625-1c0,0,3.625,3.125,1.25,7.75
		s-15.25,13-21.75-0.25c0,0,4.25,0.583,4.334-4.417c0.041-2.53-1.365-3.436-2.959-3.608c2.61-27.08-4.896-32.712-9.862-32.142
		c-5.083,0.583-9.583,10.083-4.667,15.667c3.73,4.236,6.212,12.638,7.193,16.448c-1.869-0.036-3.742,0.72-3.693,3.635
		c0.083,5,4.333,4.417,4.333,4.417c-6.5,13.25-19.375,4.875-21.75,0.25S227,129,227,129c4.375,5.25,6.125,2.875,7.625,1
		s0.125-4.875,0.125-4.875c-9.25-10.75-21,2.5-27.5,11.5s-5.5,20.625-5.5,20.625c-2.25,20.875-17.083,39.258-17.083,39.258
		c23.917-9.5,29.417-38.242,29.417-38.242c-2.333,26.417-13,38.333-13,38.333c17.75-3.833,23.583-37.083,23.583-37.083
		c-0.083,17.167-8.917,37-8.917,37c19.25-11.5,18.417-37.333,18.417-37.333c1.417,14.833-4.5,27.75-4.5,27.75
		c4.333,1.083,9.5-7.507,9.5-7.507c0.75,6.832,3.25,10.247,3.25,10.247c-2.5,8.25-16.5,14.083-16.5,14.083
		c4,2.75,10.167,1.5,10.167,1.5c-0.833,9.833,2.25,14.418,2.25,14.418c5.833-5.833,8-20.007,8-20.007
		c2.333,58.5-14.708,52.833-14.708,52.833c2.25-2.5,0.125-4.375,0.125-4.375c-9.125-3-11.375,7.625-4.125,12.375
		s15.875-0.75,15.875-0.75c0.375,10.375,6.66,15,6.66,15s6.285-4.625,6.66-15c0,0,8.625,5.5,15.875,0.75s5-15.375-4.125-12.375
		c0,0-2.125,1.875,0.125,4.375c0,0-17.042,5.667-14.709-52.833c0,0,2.167,14.174,8,20.007c0,0,3.084-4.585,2.25-14.418
		c0,0,6.168,1.25,10.168-1.5c0,0-14-5.833-16.5-14.083c0,0,2.5-3.415,3.25-10.247c0,0,5.166,8.59,9.5,7.507
		c0,0-5.917-12.917-4.5-27.75c0,0-0.834,25.833,18.416,37.333c0,0-8.833-19.833-8.916-37c0,0,5.832,33.25,23.582,37.083
		c0,0-10.666-11.916-12.999-38.333C286.237,158.266,291.737,187.008,315.654,196.508z"/>
	<path fill="#FFFFFF" stroke="#000000" stroke-miterlimit="10" d="M245.438,100.5c0,0-2.625-0.313-3.188,2.563
		c0,0,1.688,3.188,4.063,2.813C246.313,105.875,247.688,102.563,245.438,100.5z"/>
	<path fill="#00579E" d="M119.952,39.72c-2.298-6.894-14.05-18.962-32.016-15.202c0,0-5.588,2.04-6.633,5.174
		c-1.045,3.134-4.597,17.548,11.072,14.206c0,0,6.894-1.879,1.045-8.565c0,0,2.881-4.388,7.812,1.671s-1.963,16.92-10.319,20.682
		c8.356,3.761,15.25,14.623,10.319,20.682c-4.931,6.059-7.812,1.671-7.812,1.671c5.849-6.685-1.045-8.565-1.045-8.565
		c-15.668-3.342-12.117,11.072-11.072,14.206c1.044,3.134,8.199,4.647,8.199,4.647c17.966,3.76,28.151-7.781,30.449-14.675
		c2.297-6.894,2.298-17.965,2.298-17.965S122.25,46.614,119.952,39.72z"/>
	<path fill="#00579E" d="M119.952,249.393c-2.298-6.894-14.05-18.961-32.016-15.2c0,0-5.588,2.039-6.633,5.173
		c-1.045,3.134-4.597,17.549,11.072,14.207c0,0,6.894-1.881,1.045-8.566c0,0,2.881-4.387,7.812,1.672s-1.963,16.92-10.319,20.682
		c8.356,3.762,15.25,14.623,10.319,20.681c-4.931,6.06-7.812,1.673-7.812,1.673c5.849-6.687-1.045-8.566-1.045-8.566
		c-15.668-3.342-12.117,11.073-11.072,14.207c1.044,3.133,8.199,4.646,8.199,4.646c17.966,3.76,28.151-7.78,30.449-14.675
		c2.297-6.895,2.298-17.966,2.298-17.966S122.25,256.287,119.952,249.393z"/>
	<path fill="#00579E" d="M381.513,39.72c2.298-6.894,14.05-18.962,32.016-15.202c0,0,5.589,2.04,6.633,5.174
		c1.045,3.134,4.597,17.548-11.071,14.206c0,0-6.895-1.879-1.045-8.565c0,0-2.881-4.388-7.813,1.671s1.963,16.92,10.318,20.682
		c-8.355,3.761-15.25,14.623-10.318,20.682c4.932,6.059,7.813,1.671,7.813,1.671c-5.85-6.685,1.045-8.565,1.045-8.565
		c15.668-3.342,12.116,11.072,11.071,14.206c-1.044,3.134-8.199,4.647-8.199,4.647c-17.966,3.76-28.151-7.781-30.449-14.675
		c-2.298-6.894-2.298-17.965-2.298-17.965S379.215,46.614,381.513,39.72z"/>
	<path fill="#00579E" d="M381.513,249.393c2.298-6.894,14.05-18.961,32.016-15.2c0,0,5.589,2.039,6.633,5.173
		c1.045,3.134,4.597,17.549-11.071,14.207c0,0-6.895-1.881-1.045-8.566c0,0-2.881-4.387-7.813,1.672s1.963,16.92,10.318,20.682
		c-8.355,3.762-15.25,14.623-10.318,20.681c4.932,6.06,7.813,1.673,7.813,1.673c-5.85-6.687,1.045-8.566,1.045-8.566
		c15.668-3.342,12.116,11.073,11.071,14.207c-1.044,3.133-8.199,4.646-8.199,4.646c-17.966,3.76-28.151-7.78-30.449-14.675
		s-2.298-17.966-2.298-17.966S379.215,256.287,381.513,249.393z"/>
</g>
</svg>
