<svg height="800" width="1100" xmlns="http://www.w3.org/2000/svg"><g transform="translate(-773.05035 -108.99442)"><path d="m773.05035 108.99442h1100v800h-1100z" fill="#fff"/><g transform="matrix(.95957522 0 0 .87049281 897.0594 222.91633)"><path d="m365.77802 51.2953h.766022v.875454h-.766022z"/><path d="m278.76 77.842c-2.50224-.480295-2.22318-1.09939 1.18113-2.61914.75344-.336828 1.78959-.779434 2.30263-.984414 3.84767-1.53735 6.58122-2.86155 10.4287-5.05139 4.03057-2.29461 7.40845-4.47045 10.8272-6.97502 5.07439-3.71702 8.23209-5.78934 12.576-8.25297 12.8785-7.30448 26.8353-12.2243 41.6269-14.6735 5.00454-.828628 11.5603-1.40478 16.1609-1.42041.69595-.0042 15.8686-.677561 15.9375-.709301.0466-.0098.10783.166653.17079.399852.45299 1.63373.58443 4.18524.33936 6.57226-.20399 1.98212-.53805 3.23077-1.22814 4.58074-.12681.24134-.16333.274052-.24177.188576-.095-.106723-.92326-.300527-2.31131-.539058-1.53204-.264734-3.75011 5.46323-5.87851 5.36488-13.5617-.493351-16.4254-6.02351-29.165-3.58914-2.85853.550648-5.34715.703305-8.20397 1.48792-2.85683.784619-5.728 1.6904-8.64392 2.72568-2.91592 1.03529-5.8766 2.20008-8.91242 3.50273-6.04588 2.59424-12.0085 5.57152-19.6772 9.82545-4.1009 2.27474-4.49889 2.48734-7.01618 3.75014-7.07689 3.54986-13.3279 5.96769-16.9947 6.57328-.72519.120324-2.22107.05051-3.28117-.154256z" fill="#800000" stroke="#000" stroke-linecap="square" stroke-width=".630381"/><g fill-rule="evenodd" stroke="#646464" stroke-width=".4444" transform="matrix(3.83783 0 0 3.74193 -962.708 -15.542)"><path d="m332.043 112.598c-.234-2.0603 2.8486-6.5557 3.5814-8.3968 3.5547-8.876 3.5224-39.0651 2.7107-47.8267 1.7001-.4238 4.4414-.6755 6.4859-.5589 1.7264 7.2573.8734 37.1427-3.8473 45.7814 4.6958-8.0782 5.6622-38.0875 3.8473-45.7814 2.7091-.881 3.7771-1.148 6.2387-1.8008.419 9.1172.8686 38.7875-4.9582 47.8919-2.1925 3.2019-5.8073 6.1762-9.814 9.3462-1.3213 1.1374-3.4399 2.3434-4.2445 1.3451z"/><path d="m312.149 118.805c-.1806-2.9441 4.4703-9.1815 5.6315-11.7635 5.6285-12.4467 7.8709-28.4757 7.3599-40.9855 2.611-1.3913 5.2634-2.2517 7.8042-3.1608 1.9035 10.4165-.2172 28.6686-7.4659 40.7173 7.1735-11.2525 9.4622-29.6748 7.4659-40.7173 3.8673-1.1136 5.3861-1.4381 8.8895-2.2398-.0658 12.9956-.3418 31.0089-9.1771 43.6632-3.3085 4.4427-8.5977 8.4882-14.4515 12.792-1.9368 1.55-4.9983 3.1566-6.0565 1.6944z"/><path d="m287.411 119.229c.5811-3.2355 6.8596-9.1104 8.6925-11.6912 8.8663-12.4344 15.2648-29.4222 17.9914-43.1205 2.9783-1.0041 5.8606-1.423 8.6437-1.9167-1.0805 11.6275-7.8889 31.0652-18.0282 42.8085 9.7428-10.8715 16.7274-30.4602 18.0282-42.8085 4.1662-.4576 4.3943-.4451 8.1147-.6345-1.8621 14.337-6.9923 33.5721-19.1279 45.6078-4.4678 4.1856-10.8188 7.5535-17.8027 11.0923-2.3435 1.3079-5.8293 2.4583-6.5117.6628z"/><path d="m280.758 103.872c1.2777-2.2737 2.6096-4.5374 4.0375-6.8084 2.6965-4.3413 5.5976-8.6695 8.644-12.8937 2.9787-3.9292 5.0978-7.8914 6.316-11.8693.8331-2.7161 1.9419-5.4831 3.3263-8.3009.6528-1.442 3.3679-4.4388 4.2951-4.7006.6469.5579 3.5658.679 4.0458.7035-2.2793 11.1868-10.2547 26.0718-18.8161 32.645 8.943-6.9483 16.5515-21.9398 18.8161-32.645 4.1109-.949 4.6805-1.4599 7.4536-1.3958-3.4976 10.269-7.7172 22.7346-16.0075 31.2572-5.5835 5.3381-12.4505 10.3583-20.5051 15.0529-1.5167.6132-2.0618.28-1.6057-1.0449z"/><path d="m265.185 87.3177c1.6326-2.2767 8.0037-4.9516 10.199-6.3851 10.6001-6.8968 20.0407-17.9591 27.1263-27.5238 2.3315.075 3.987.1134 5.9934.5186-5.0449 8.5953-15.3403 21.8215-26.643 27.7294 10.7895-5.3451 21.2825-18.6269 26.643-27.7294 2.8944.8189 4.0494.7229 6.5492 1.6195-5.9923 8.952-10.6027 15.1458-19.3985 23.0669-1.9229 2.1071-6.5646 5.0565-10.0574 6.6346-4.5355 1.9072-9.9824 2.6719-15.9082 3.3887-2.0352.3313-4.7543.2248-4.5038-1.3194z"/><path d="m259.76 74.346c1.8145-2.0065 8.029-3.916 10.2419-5.0619 10.6812-5.5094 20.8807-15.107 28.7119-23.5139 2.1271.3062 3.6397.5093 5.4226 1.0976-5.8249 7.6877-17.1099 19.2627-28.2973 23.7585 10.6382-4.0108 22.1122-15.6188 28.2973-23.7585 2.5395 1.072 3.6119 1.0967 5.7787 2.203-6.7433 7.9327-11.8347 13.3744-21.0046 20.0419-2.057 1.8156-6.7244 4.1607-10.1471 5.3141-4.4245 1.362-9.5252 1.5432-15.0584 1.6303-1.9121.1111-4.3903-.264-3.945-1.7111z"/><path d="m255.095 55.3199c2.2392-1.5356 8.369-1.6986 10.6961-2.2352 11.2264-2.5676 20.7963-7.7231 30.3814-14.0904.6994 1.349 1.6964 3.7784 3.5557 3.8061-8.0996 5.8115-18.4126 11.4983-29.1517 13.351 10.3309-1.7243 20.762-7.3983 29.1516-13.3511 2.4145-.4532 3.8924-1.2398 5.8953-2.6714.3704 1.4192 1.0441 2.6818 2.0019 3.7453-9.9002 7.2423-22.7988 16.2947-35.6213 17.0256-4.365.1188-8.9664-1.1707-13.924-2.6817-1.7384-.439-3.8305-1.5411-2.985-2.8982z"/><path d="m257.776 34.5136c2.7709-.6547 5.3559-.7959 7.7289-.4497 11.4372 1.69 23.9835-.7755 34.9347-2.2531 1.0642 2.5931 1.1891 4.0603 4.1336 5.3219-10.2346 1.7331-20.7511 3.0673-31.2825 2.0673 10.5314 1 21.0478-.3343 31.2825-2.0674.9844.3371 3.7649 1.7091 4.9528 2.2942-13.2998 3.5558-27.4258 8.4575-40.0629 4.52-4.0262-1.5094-7.4032-3.6644-11.7583-6.3241-1.3706-1.0724-1.3469-2.1086.0712-3.1091z"/><path d="m265.116 22.4808c2.4058-.2959 4.5715-.1822 6.4801.3172 9.1954 2.4252 19.9273 3.458 29.6912 3.3483.0609.3048.0406.6772.2147.9847.6341.9779 1.601 1.9499 2.2245 2.3165-8.7712.5243-16.8296 1.34-26.7233-1.8006 9.5308 3.1581 17.9521 2.3249 26.7233 1.8006.4728.4803 2.5666 2.5111 3.4356 3.4591-13.1375 1.4647-23.4976 2.3626-33.2793-2.0213-3.0841-1.6129-6.1815-3.2323-9.3457-5.8296-.9565-1.0128-.7637-1.871.5789-2.5749z"/><path d="m270.493 11.8736c1.7245.7639 3.0256 1.3098 5.6213 1.9297 3.6952 1.141 6.2107 1.5772 10.0649 3.2172 4.5339 2.1001 15.9986 7.6999 21.0217 9.0212-.6078.4495-2.7189 1.3162-2.8232 1.6258-8.6632-1.4409-17.8573-4.6901-24.8518-9.1138 7.0944 4.5257 16.2595 7.7367 24.8519 9.1139.4432.6272.9743.5563.6494 1.4018-8.5379-1.612-17.2731-1.6137-25.0774-6.1643-4.8228-3.1818-7.7959-5.4225-10.384-10.0839-.3736-.6639.0121-1.2963.9272-.9476z"/><path d="m274.078 4.4873c1.6543.8542 2.9045 1.4679 5.4305 2.2197 3.5786 1.3308 6.0378 1.8936 9.7396 3.7347 4.3432 2.338 15.3053 8.5414 20.1855 10.119-.6319.4229-2.7797 1.1923-2.904 1.499-8.4737-1.8766-17.3494-5.6008-23.9688-10.4002 6.7113 4.907 15.561 8.5913 23.9689 10.4003.3958.6536-.8584 2.2058-1.2373 3.0415-8.338-2.0428-15.1965-4.0709-22.6084-9.0378-4.5553-3.4417-7.3445-5.8447-9.5879-10.6672-.3244-.6871.1002-1.3052.9819-.909z"/><path d="m278.627-3.484c1.3842 1.0644 2.4363 1.8375 4.654 2.9195 3.0916 1.794 5.2824 2.6811 8.3931 4.9937 3.6161 2.8882 12.6866 10.4753 16.9474 12.6887-.6698.3301-2.8204.7952-2.9942 1.08-7.5606-2.995-15.1489-7.8612-20.4278-13.4785 5.3444 5.7356 12.916 10.559 20.4278 13.4786.2467.6963.7102 2.0284.199 2.7988-7.4025-3.14-13.8191-4.977-21.3404-11.9303-3.6067-4.0022-5.7593-6.7435-6.9469-11.7899-.1738-.7196.3391-1.2698 1.088-.7606z"/><path d="m286.262-12.8437c.8984 1.484 1.5947 2.5747 3.27 4.3045 2.2273 2.7084 3.951 4.2283 6 7.4809 2.3062 3.9888 7.9613 14.3501 11.129 17.8135-.7545.1603-2.3169-.7424-2.588-.4939-5.969-5.1055-11.7458-11.4838-14.7374-18.7849 3.0313 7.3016 8.7752 13.6949 14.7375 18.7849-.0316.7911-.2041 1.7564-.9762 2.4175-5.7705-5.2838-12.6782-9.1233-16.0775-16.8789-1.8757-5.1441-2.8617-8.5808-2.0681-14.15.109-.7954.7994-1.2273 1.3107-.4936z"/><path d="m301.58-21.7602c-2.9401 4.6969-3.1492 10.6368-1.8654 15.2317.9368 3.3527 3.2801 6.2945 5.1387 9.2105 1.0818 1.6974 2.0989 3.4127 3.0134 5.1694.2716.7096.7745 3.165.3044 3.7391-.386.8615-.7447.8017-1.5807.9163-.5882.3125-1.957-.2964-2.5343-.8216-4.5214-6.4645-9.5897-13.766-8.5927-20.6721-.9416 6.7784 4.0713 14.2076 8.5927 20.6721.5773.5252 1.9461 1.1341 2.5343.8216-.091.2714-1.1553 1.8039-1.2236 1.9114-3.213-1.6669-11.0516-10.6809-12.7919-17.7396-.7901-2.8488-1.4468-12.9925 9.0051-18.4388z"/><path d="m310.336 9.2729c-2.4265-1.5422-4.9055-3.4622-6.454-5.3506-1.3612-1.5844-4.9808-7.5937-.7742-12.6644-.1706 3.3363 1.611 6.9565 3.812 9.5103 1.6061 1.8634 3.8812 3.2387 5.8722 4.6812.2897.2099.5776.4212.8632.6343l-2.3978 2.1882z"/><path d="m303.714.0102c1.9321 3.6113 5.196 5.7346 8.1761 7.6848" fill="none"/><path d="m315.022 62.3282c-2.9515 9.3825 6.0696 13.65 11.6416 7.7107 1.8117 9.2562 13.1571 7.4757 13.8691 1.2399l-2.3291-5.8959c4.2436-4.2952 5.9802-9.5479 8.8336-11.5825l-1.8152-3.8067c-3.4135 1.4704-6.736 3.5305-11.5047 4.0324-2.856-.1622-5.9573-1.9579-7.9316-4.9561-7.848-11.9178-4.768-22.0952-3.4042-27.8019 3.2324-13.5254-14.4332-16.2833-12.8601-25.0333-.9616 1.6749-1.8913 3.363-1.5915 5.1689-4.128 1.4004-7.1931 4.6394-5.8138 8.6072-2.6969-.3121-5.2318-.0425-7.6145 1.9356-3.3661 2.7946-1.9034 8.647 2.7957 12.012-1.5169.208-2.9781.7802-4.3866 1.9495-3.8197 3.1713-.6509 10.7321 7.0372 12.2641-8.4686 6.5057-1.5114 13.2544 7.0898 12.2033-7.1319 9.358.0624 15.8804 7.9843 11.9528z"/><g fill="none" stroke-linecap="round" stroke-linejoin="round"><path d="m326.663 70.0357c1.8099 9.2594 13.1575 7.4791 13.8697 1.2427"/><path d="m307.02 15.7328c-8.8355-6.3876-5.0827-12.2961.9104-14.3293-.2997-1.8059.63-3.4939 1.5915-5.1689-1.5731 8.7501 16.0926 11.5079 12.8601 25.0334-1.3637 5.7066-4.4437 15.884 3.4042 27.8019 5.4357 8.4334 12.4307 4.0466 19.2423.9836"/><path d="m315.64 10.6739c6.7677 6.9001.4059 15.6169 1.1354 23.9954 1.8746 19.2532 13.5717 28.3508 28.0923 19.7846"/><path d="m312.996 8.4668c-6.202-.0448-7.6334 5.0274-5.0446 9.3972 1.5533 2.6218 7.0232 5.5634 10.1546 6.2532"/><path d="m307.951 17.864c-4.0008 1.0022-7.6636 5.2892-5.2208 9.1613 1.4963 2.3718 4.7117 4.4979 8.7364 4.658"/><path d="m308.113 31.0634c-3.3881 2.0441-5.5114 5.3477-4.3718 8.2326 1.0814 2.7375 4.2059 3.5055 5.8081 3.8507"/><path d="m311.84 39.838c-1.3098 1.5108-2.0414 2.4344-2.6541 4.2539-1.6685 4.9551.7068 10.0471 4.9452 8.3707 1.7048-.6742 4.7324-3.5455 5.946-5.1124"/><path d="m316.114 51.2219c-1.0526 3.3344-.1123 7.54 2.2856 8.7807 3.092 1.5998 6.7053-2.3863 7.3645-4.9094"/><path d="m324.084 58.0408c-.1484 2.8334.0936 8.4484 3.9769 9.1619 4.1622.7647 6.0893-3.4565 5.8414-5.3449"/><path d="m333.84 62.9864c.0775.9449 2.4515 2.7314 4.3638 2.3965"/><path d="m302.116 10.0107c-2.6969-.3121-5.2318-.0425-7.6145 1.9356-4.3628 3.6222-.6137 12.381 7.7801 14.2029"/><path d="m297.297 23.9583c-1.5168.208-2.978.7802-4.3865 1.9496-4.3628 3.6221.3911 12.9705 10.583 12.5218"/><path d="m299.948 38.1719c-9.1346 7.0175-.3214 14.3176 9.1434 11.8067"/><path d="m307.038 50.375c-8.1439 10.686 2.3929 17.6744 11.3621 9.6275"/><path d="m315.022 62.3282c-3.3261 10.5729 8.5517 14.6506 13.5645 4.9466"/><path d="m297.278 14.4839c1.1856 2.8156 3.2706 4.47 6.3684 5.961"/><path d="m305.324 5.1461c-.1983 1.7721 1.4549 3.6134 2.9839 4.8087"/><path d="m310.533 13.2471c1.7961 3.6101 5.4494 5.3478 8.2499 5.7828"/><path d="m305.798 23.3405c2.2605 2.5896 6.0968 5.0675 11.4796 4.822"/><path d="m306.953 39.2415c1.7098-3.4029 5.7999-4.6794 9.7636-5.8678"/><path d="m312.535 49.0912c.8284-2.7929 2.5444-5.5343 5.4604-7.5312"/><path d="m319.773 57.7801c-1.0053-2.1526.3098-5.5933 2.1479-7.069"/><path d="m328.472 56.7852c1.4517 2.5323 2.5535 6.5369.7134 8.3605"/><path d="m322.506 59.4584c-.9982 2.4686-1.0168 7.4185-.7084 9.1994"/><path d="m312.859 52.7752c-1.4152 2.2541-2.5733 5.0053-1.9841 6.9652"/><path d="m308.32 42.8444c-2.0587 1.8488-6.4609 3.3239-8.9455 3.4415"/><path d="m294.635 28.936c3.9736 2.9759 7.2572 3.2989 13.4773 2.1274"/><path d="m332.672 65.4892c.1911 2.5376 1.6267 6.1656 2.4594 7.548"/></g></g><g stroke="#000" stroke-width="1.53857"><g stroke-linecap="round" stroke-linejoin="round"><path d="m204.896 512.605c-5.68921 1.52297-13.8104.62602-19.0859-1.48854-7.68526-3.08036-14.436-14.8375-22.1574-17.8393-5.59096-2.17368-11.9272-.99872-13.9943 3.56606-2.49459 5.5085-.16042 10.4815 4.64493 12.3495 2.95782 1.14952 7.10191-.75399 10.6653.63127 2.41861.94034 3.06528 4.57526 5.47813 6.30328 1.82335 1.30593 4.80727 2.52767 7.08541 2.75443 8.90569 1.72017 18.2055-3.53013 27.3638-6.27671z" fill="#eac102"/><path d="m171.33 529.395c-11.5381 1.63896-23.9558 2.34956-27.9932 7.16542-3.15316 3.76214-1.88092 9.5539.49086 14.6886 1.81837 3.93726 8.02875 7.67021 13.3277 4.74178 6.598-3.64651 8.43633-15.0388 15.8483-17.1231 7.56974-2.12878 12.2853.24024 19.5753 1.45898 6.22113 1.04026 12.8157-.43593 19.8527-5.46209 3.37308.0797 8.056 1.14016 10.3245 4.01359 2.33301 2.95538 2.71219 8.9623 7.48147 10.8164 4.86484 1.89118 12.4112.98301 14.8225-4.3425 3.32011-7.33157 2.1653-16.7313-4.97461-19.5067-4.55973-1.77255-16.378-.68252-22.5814.44717 17.7492-8.03692 46.4251-13.8384 66.9568-22.736 4.63764-2.00979 19.7606 3.46802 28.2357-1.10499l35.9866-22.3221-36.7542-19.4517-23.3889 16.7287c-22.2046 13.9649-54.4792 24.4127-85.203 35.402-16.2191 6.25015-23.1091 5.54891-31.3248 5.83554-8.5695-3.01338-19.1673-10.9395-25.2683-7.97517l-5.40444 10.4112c1.65449 5.17434 7.22357 12.5025 18.143 3.39917.0269-.10627.81094-.80714 1.53821-.007 1.68289 1.85301 6.55847 4.95132 10.3092 4.92251z" fill="#eac102"/><path d="m149.531 487.239c-8.45207-2.91871-18.7663 3.34416-12.6721 13.5252 1.03238-5.66977 8.84122-6.92257 13.3833.15043 3.16084.004 7.17598-4.04353 6.4798-7.47526-1.72319-3.20683-4.3736-5.22785-7.19095-6.20037zm103.448 44.9376c-2.58478-.80713-5.37642-1.17609-8.13352-.96504-6.05879 2.11082-7.50412 9.96962-2.59706 14.1471 7.85259-4.07197 15.7132 2.49288 12.2765 9.16549 9.44184-3.8411 10.9774-10.3509 8.21834-15.257-1.81491-3.22741-5.45586-5.74535-9.76422-7.09058zm-111.259-23.4826c-.64936-.26792-1.32521-.45801-1.96536-.65408-4.26959-1.30631-8.35765-.92725-11.7303.93136-5.12658 2.82516-8.0679 11.4709-.86121 16.3597-.28937-6.9207 8.25633-10.7356 15.4795-3.42798 3.72194-.71471 6.61758-5.8535 4.88787-9.74212-1.91546-1.48704-3.86201-2.66238-5.81048-3.4669zm4.54208 29.663c-7.36327-.461-14.0139 2.98269-16.8009 8.18622-2.64773 4.94309-.92108 13.0346 7.61196 15.26-3.58684-6.62434 4.10802-13.2266 12.0512-9.26353 4.81226-4.24447 3.24374-12.1553-2.86225-14.1827z" fill="#fc0"/></g><path d="m170.551 529.537c4.18938-.0112 10.8173-2.29492 17.7507-4.86301" fill="none"/><path d="m300.366 495.351c2.12731-1.04662 5.46584-.82809 9.20581.174.5112.16203.67316-.17999 1.00475-.37831 2.44892-4.61455 4.63303-8.81411 6.95837-13.0006" fill-rule="evenodd" stroke-linecap="round" stroke-linejoin="round"/></g><g stroke-width="1.50408"><g stroke="#646464"><path d="m452.248 138.642c-3.28217 10.2282-5.19148 10.2282-8.47354 0-3.28217-10.2286-.733-16.8585-9.87862-26.4042 2.27087-2.44461 4.54131-.98787 6.81218-1.52372-5.05868-4.38367-8.77671-9.15575-11.1858-14.3252 7.81724 4.65047 12.6875 2.23954 14.6767-7.24924-2.50272 2.91871-5.58603 4.06112-9.56307 3.25249-3.94648-2.90785-5.66744-7.03333-5.13812-12.3008.99124-7.5108.4536-11.1102-2.38483-18.6891 3.25752-.912652 3.72493-.798145 6.91573.104-1.86745-2.68671-10.1826-6.89413-12.9454-9.34734-.44024-6.19963-4.09801-12.8468-7.04546-18.7108 5.37183-.310951 5.73143 2.84948 8.19295 3.10656-5.10394-10.0344-14.7714-18.8799-26.8207-25.7359 4.97619-1.94917 7.41667-3.79507 8.52154-7.08909-3.6513 1.55589-12.2964 3.9859-16.5591 3.88001-13.87046.98073-16.20146-.14522-30.14546-1.96267-13.292-.52836-20.702.88646-29.965 9.7979l7.65881 7.56393 12.3095 18.4563c4.43536 1.4399 24.5352.02579 19.3296 12.0419l-5.38059 6.96187c21.5306-.05168 7.76235 36.708-10.7153 26.1022 4.74511 9.57111 10.4811 13.004 17.2829 10.2768-2.0375 2.64629-2.92016 6.06455-2.4831 10.2768-3.36271 2.8405-5.34225 6.04621-5.80199 9.49814-.42753 1.35196-2.43128 1.91026-6.12137 1.59182 3.58765 3.24014 7.17716 4.09891 10.7924 2.45658 1.86132-.89058 3.48323-1.79576 4.84295-2.69868-4.93663 4.0222-21.6339 25.514-20.0811 32.9903.36464 3.64277.27523 6.96223-.22099 9.9307-.88694 5.20129-3.24986 9.25754-7.00678 12.1452 4.658.45614 8.37997-.33116 11.0634-2.42215 2.46842-1.8126 4.08606-4.69426 4.86749-8.56379-.0307 3.68955-.96638 7.2107-2.67956 10.8303-.25025.39103-.44977.87225-.66397 1.34934-1.67637 4.3021-8.34075 9.21263-6.36078 14.7406 1.46677-1.04251 2.86911-2.24628 4.2285-3.5466 1.00133-.96879 1.89737-2.00792 2.82693-3.14884-.82054 1.9952-1.29223 4.06449-1.64722 5.98597-.92025 6.50646.63482 12.9871 4.62195 19.36.96638-.65745 1.80226-1.45748 2.40937-2.57781 1.03628-1.67788 1.7627-3.84858 2.18793-6.59179-.60251 4.7444-.38217 9.09701.59034 12.9931-11.1951 17.1201-1.88246 26.928 4.55819 50.0333 6.04073 21.6691 18.0105 52.3489 22.2303 92.8231-19.9465 6.41442-17.1625 22.0003-28.752 41.1201-11.9614 8.6925-21.9293 26.3241-30.0667 35.0484-6.73735 7.45205-13.0241 15.3168-21.1426 21.5745-3.90046 3.10467-7.7068 5.69484-11.5546 7.8719-9.35939 2.73497-19.2587 5.41083-33.994-1.91961 6.10559 7.96282 14.2806 14.5105 25.0695 14.6182-3.46438 3.28505-5.18074 6.39534-5.16234 9.13518 7.4021-.13583 14.6541-2.5258 21.708-6.76465-6.80485 4.51313-10.1476 9.63172-14.6029 14.2291 9.41801 1.6513 17.532-2.50934 28.8862-11.2187-2.09009 3.26709-8.73223 18.3658-8.29363 22.272 2.92411-2.09399 9.02126-11.5064 14.6211-13.0167-3.16702 6.61835-4.96314 17.5882-3.60682 24.2066 11.3888-24.3858 49.3687-34.6821 68.1319-58.1503-.23754 3.81864-1.54007 7.72933-3.83505 11.609 5.92744-3.22404 10.635-8.21054 14.2096-14.9483 10.3621-.63463 8.24904-3.63117 16.029-9.41956-4.89861 43.4524-5.94519 57.9543-48.3344 83.1734-6.30675-6.9424-15.3468-4.51762-24.3706-2.14786 6.68969.3233 13.3556-.37757 17.4076 5.37004l-18.4519 9.66578c-8.33582-7.9168-20.4334-8.09754-32.3783-8.59185 8.70769 3.81453 20.7252 4.22577 22.6299 15.0358-34.3019 19.1587-71.1381 35.2153-86.6902 77.3266-10.2865 9.387-19.7909-6.91285-25.0668-12.888 5.63478 14.3926 10.3258 29.9639 28.5485 28.6396 17.491 24.2066 43.3261 18.3276 56.7831-4.99061 7.68149-4.6587 16.4214-1.69921 24.6846-2.1692-6.58988-2.54863-12.7151-4.54345-21.1349-3.95597 7.82074-5.38538 13.0333-12.3035 16.2609-20.3879-8.01336 4.50004-13.8108 7.24138-21.8242 15.4194.83402-5.77455-4.45037-10.9998-6.72421-16.1352-.84399 6.4335 1.95533 13.5323.54192 19.8573-26.5978 47.6527-67.6031-13.676 2.24315-42.0529l3.82979 17.1837c5.62898-13.6895 11.9752-26.1415 32.3783-35.0832-1.41659 11.7665 2.01328 21.0412 8.00755 28.9973-1.08142-10.3816-3.67124-22.5534 3.13328-32.9353l48.7416-27.5653c4.11488 4.85066 1.48485 10.6918-.69662 16.4675 7.26546-5.12533 13.0674-12.0861 13.0763-21.875 7.43617-5.59606 10.9263-6.12255 14.776-11.7186-2.76864 23.3235-1.47685 33.4843-18.8004 40.0375-6.4986-2.88428-12.9975-1.83879-19.4961 0 4.03161.82173 8.82043.47597 11.1408 3.938-13.8999 8.42084-52.7665 25.2535-37.6005 47.6131 8.71536 7.35477 14.4187 3.71461 19.4963 2.14786-6.85327-.015-17.9737-2.9389-14.6222-13.7826 4.88448-10.6226 16.4758-16.3403 27.1557-20.5847l29.9414-6.93754c-13.7993 19.0801-18.878 37.56-44.2153 52.4027-23.7266 12.8423-54.9605 20.1671-61.5213 40.0701-6.82249 19.128 6.10526 35.7822 19.0464 36.5403 24.33-1.79426 18.7598-12.2993 26.7443-18.847 5.60784-4.78143 15.0339-6.58504 21.997-10.8662-8.72116.84193-17.1386-.50367-26.4597 4.65383.60032-10.4669-4.21042-13.9791-8.70374-17.8995 1.46644 7.51753 4.24844 15.0354 1.3927 22.5534-2.79548 6.36503-6.59295 8.61617-11.345 7.60472-15.3498-1.62287-12.9101-19.5898-11.9814-20.4923 8.67241-18.4312 27.7464-16.5008 41.7784-25.7467 1.80566 7.67582-2.08516 14.8192-3.48136 22.1956 8.4548-7.85281 15.7827-17.8801 18.9866-27.7573-2.1039 7.21406-.22681 13.6094 2.25093 19.8812 1.56001-9.71442 3.20493-23.0757 12.0232-24.4247 9.773-1.80211 22.7181-6.78674 26.5259-12.8356l-1.74934 18.9738c-.79019 30.7647-21.2581 48.5811-47.0706 62.6489-7.57083 3.74455-12.0765 1.58022-16.8853.35773 1.28566 3.32507 7.44045 7.89322 13.404 5.90701-2.27471 6.53939-2.65622 12.9598 2.43698 18.0788 6.64871 8.76173 23.9458 1.53831 23.1522-10.0239-10.5011 15.883-24.1181 4.16814-16.3634-9.12881 7.73561-7.38245 20.1107-7.66422 26.46-13.7826 5.45006 5.56351.64206 13.5615.69619 20.4055 5.70227-8.5548 8.99398-16.9794 5.91867-25.0593 8.80904-7.16205 11.1655-10.684 16.0149-16.9326 3.42833 33.4278-16.8039 47.8361-16.079 59.2336 2.93518-2.80832 13.4163-12.6481 20.0336-12.6167-14.4406 28.0301-13.4298 40.9206 12.9347 59.814h-.0668c26.3643-18.8934 27.3238-31.784 12.8828-59.814 6.61759-.03 17.0983 9.80835 20.0335 12.6167.72533-11.3975-19.5073-25.8058-16.079-59.2336 4.84985 6.24864 7.2063 9.77055 16.0153 16.9326-3.07565 8.07996.21606 16.5045 5.91823 25.0593.0548-6.84399-4.75354-14.842.69662-20.4055 6.34894 6.11843 18.7244 6.4002 26.4596 13.7826 7.75479 13.297-5.86192 25.0118-16.3633 9.12881-.7937 11.5622 16.5038 18.7856 23.1525 10.0239 5.09276-5.11895 4.71125-11.5394 2.43697-18.0788 5.96327 1.98621 12.118-2.58194 13.404-5.90701-4.80876 1.22249-9.3148 3.38682-16.8857-.35773-25.8124-14.0678-46.28-31.8842-47.0702-62.6489l-1.74934-18.9738c3.80788 6.04882 16.7529 11.0335 26.5259 12.8356 8.81781 1.34897 10.4627 14.7103 12.0232 24.4247 2.47774-6.27184 4.3544-12.6672 2.2505-19.8812 3.20427 9.8772 10.5322 19.9044 18.987 27.7573-1.39665-7.37646-5.28702-14.5198-3.4817-22.1956 14.0319 9.24593 33.1059 7.31547 41.7783 25.7467.92912.90255 3.36851 18.8694-11.9813 20.4923-4.75201 1.01145-8.54914-1.23969-11.3446-7.60472-2.85574-7.51791-.0734-15.0358 1.39237-22.5534-4.493 3.92042-9.30406 7.4326-8.70386 17.8995-9.32093-5.1575-17.7381-3.8119-26.4595-4.65383 6.96328 4.28114 16.3891 6.08475 21.9969 10.8662 7.98499 6.54764 2.41474 17.0527 26.7447 18.847 12.9408-.75812 25.8689-17.4123 19.0464-36.5403-6.56084-19.903-37.7946-27.2278-61.5213-40.0701-25.3378-14.8427-30.4164-33.3226-44.2153-52.4027l29.9409 6.93754c10.6803 4.24446 22.2717 9.96213 27.1562 20.5847 3.3512 10.8437-7.76936 13.7666-14.6225 13.7826 5.07775 1.56675 10.7808 5.20691 19.4965-2.14786 15.166-22.3595-23.7006-39.1922-37.6004-47.6131 2.31996-3.46203 7.10879-3.11627 11.1408-3.938-6.49893-1.83879-12.9975-2.88428-19.4966 0-17.3232-6.55324-16.0313-16.7141-18.8004-40.0375 3.85016 5.59605 7.34029 6.12254 14.776 11.7186.011 9.78889 5.8113 16.7496 13.0763 21.875-2.18147-5.77567-4.81151-11.6168-.69619-16.4675l48.7413 27.5653c6.80441 10.382 4.21469 22.5537 3.1336 32.9353 5.99427-7.9561 9.4237-17.2308 8.00723-28.9973 20.403 8.94172 26.7497 21.3937 32.3782 35.0832l3.82979-17.1837c69.8463 28.3769 28.841 89.7057 2.2436 42.0529-1.41385-6.32499 1.38546-13.4238.54158-19.8573-2.27394 5.13542-7.55822 10.3607-6.72387 16.1352-8.01348-8.17799-13.8113-10.9193-21.8247-15.4194 3.22761 8.08444 8.44057 15.0025 16.2613 20.3879-8.41986-.58748-14.5454 1.40734-21.1354 3.95597 8.26329.46999 17.0035-2.4895 24.685 2.1692 13.4565 23.3182 39.2918 29.1972 56.7831 4.99061 18.2224 1.32426 22.9134-14.247 28.5484-28.6396-5.27585 5.97511-14.7806 22.275-25.0672 12.888-15.5517-42.1113-52.388-58.1679-86.6901-77.3266 1.9047-10.8101 13.9221-11.2213 22.6302-15.0358-11.9453.49431-24.0425.67505-32.3783 8.59185l-18.4523-9.66578c4.05232-5.74761 10.7179-5.04674 17.4076-5.37004-9.0239-2.36976-18.0635-4.79454-24.3706 2.14786-42.3893-25.2191-43.4359-39.721-48.3345-83.1734 3.7899 7.20995 10.7217 6.46568 16.0291 9.41956 3.57449 6.73772 8.28202 11.7242 14.2099 14.9483-2.29497-3.87963-3.59794-7.79032-3.83515-11.609 18.7633 23.4683 56.7429 33.7645 68.1316 58.1503 1.35621-6.61836-.43991-17.5882-3.60649-24.2066 5.59939 1.51025 11.6966 10.9227 14.621 13.0167.43837-3.9062-6.20377-19.0049-8.29386-22.272 11.3542 8.70935 19.4685 12.87 28.8862 11.2187-4.45497-4.59734-7.79817-9.71593-14.6026-14.2291 7.05389 4.23885 14.3059 6.62882 21.7079 6.76465.0197-2.73984-1.69784-5.85013-5.16255-9.13518 10.7892-.10776 18.9639-6.65539 25.0695-14.6182-14.7354 7.33044-24.6347 4.65458-33.9937 1.91961-3.84776-2.17706-7.65454-4.76723-11.5546-7.8719-8.11855-6.25763-14.4057-14.1224-21.1426-21.5745-8.13772-8.72432-18.1054-26.3559-30.0671-35.0484-11.5892-19.1198-8.80553-34.7057-28.7519-41.1201 4.22006-40.4742 16.1899-71.1539 22.2303-92.8231 6.44097-23.1053 15.7531-32.9133 4.55851-50.0333.97218-3.8961 1.19285-8.24871.58991-12.9931.42522 2.74321 1.15209 4.91391 2.18793 6.59179.60722 1.12033 1.44343 1.92036 2.40937 2.57781 3.98756-6.37288 5.54231-12.8535 4.62195-19.36-.355-1.92148-.82668-3.99077-1.64722-5.98597.92956 1.14092 1.8257 2.18005 2.82736 3.14884 1.35895 1.30032 2.7613 2.50409 4.2285 3.5466 1.97954-5.52796-4.68484-10.4385-6.36121-14.7406-.21409-.47709-.41329-.95831-.66354-1.34934-1.71362-3.61957-2.65008-7.14072-2.67955-10.8303.78131 3.86953 2.39863 6.75119 4.86749 8.56379 2.68306 2.09099 6.40536 2.87829 11.0629 2.42215-3.75649-2.88765-6.11984-6.9439-7.00634-12.1452-.49656-2.96847-.58564-6.28793-.22144-9.9307 1.55322-7.47638-15.1441-28.9681-20.0811-32.9903 1.35983.90292 2.98164 1.8081 4.84306 2.69868 3.61559 1.64233 7.20477.78356 10.7927-2.45658-3.69053.31844-5.69384-.23986-6.12137-1.59182-.46018-3.45193-2.43972-6.65764-5.80209-9.49814.43717-4.21229-.4455-7.63054-2.483-10.2768 6.80178 2.72712 12.5378-.705729 17.2829-10.2768-18.47816 10.6057-32.40016-26.4487-10.86916-26.3967l-5.13428-6.96186c-5.20562-12.0161 14.8013-10.3075 19.2367-11.7474l13.6037-19.8588 4.94813-6.53827c-9.26325-8.91142-11.74525-9.9775-25.03725-9.44951-15.402 1.97835-24.844 1.3789-33.657 1.99109-4.262.10592-10.895-.64138-14.546-2.19727 1.10487 3.29402 4.12025 3.45717 9.09643 5.40634-12.0492 6.85595-23.4212 14.8603-28.5251 24.8943 2.46152-.257068 3.97102-2.97259 9.34285-2.66164-2.94745 5.86398-10.2029 13.0043-10.6431 19.2036-2.76294 2.45321-9.51322 6.56447-11.3804 9.25117 3.19036-.902177 3.65777-1.01668 6.9154-.104-2.83854 7.57891-3.37618 11.1783-2.38449 18.6891.52888 5.26752-1.19198 9.39299-5.13812 12.3008-3.97716.808632-7.0608-.33378-9.56352-3.25249 1.98918 9.48879 6.85942 11.8997 14.6771 7.24924-2.40903 5.16948-6.1275 9.94156-11.1862 14.3252 2.27088.53585 4.54175-.92089 6.81263 1.52372-9.14563 9.54566-6.59689 16.1756-9.87863 26.4042z" fill-rule="evenodd"/><g fill="none"><path d="m442.696 603.152c-2.05985 19.192-13.4293 33.6231-21.2962 48.1403"/><path d="m441.065 539.843c-3.12089 29.083-9.15789 44.935-19.5702 62.778"/><path d="m439.975 417.478c-3.12089 29.083-7.5271 67.2795-23.6475 90.4424"/></g><g fill-rule="evenodd"><path d="m369.171 39.095c5.92678.462885 10.067 1.9301 12.2304 4.4065 2.26047 2.61037 3.88315 5.27126 4.8664 7.98304 1.11648 3.83735 1.32718 7.2193.46478 10.0471.8624-2.82778.6517-6.20973-.46478-10.0471-.98325-2.71178-2.60516-5.37304-4.8664-7.98304-2.16339-2.4764-6.30358-3.94362-12.2304-4.4065z"/><path d="m392.842 215.903c-3.73041 3.96794-4.67103 8.5765-2.87907 14.0289-1.79196-5.45237-.85134-10.0609 2.87907-14.0289z"/><path d="m395.149 197.594c-2.53953.77645-4.35637 2.51046-5.55765 5.12083 1.20128-2.61037 3.01812-4.34438 5.55765-5.12083z"/><path d="m448.403 317.306c-.41098 6.56596-2.71287 12.3536-6.74228 17.2406 4.02941-4.88697 6.3313-10.6746 6.74228-17.2406z"/><path d="m423.192 268.675c4.2308 1.48817 5.31003 3.94362 3.38341 7.15008 1.92662-3.20646.84739-5.66191-3.38341-7.15008-1.00747 4.23063-3.61296 7.24999-7.90632 9.07156 1.91664-3.78721 2.41824-7.74654 1.50478-11.8776-1.9768.30272-3.72109-.69226-5.08662-3.20122-5.54834.46063-9.04691-2.1097-10.4066-7.72559-1.08273-3.52266-.44758-6.72575 1.742-9.48729-2.18958 2.76154-2.82473 5.96463-1.742 9.48729 1.35972 5.61589 4.85829 8.18622 10.4066 7.72559-1.06882-1.87471-2.00145-4.54682-2.72448-8.12448.72303 3.57766 1.65566 6.24977 2.72448 8.12448 1.36553 2.50896 3.10982 3.50394 5.08662 3.20122.91346 4.13109.41186 8.09042-1.50478 11.8776 4.29336-1.82157 6.89885-4.84093 7.90632-9.07156.58837-2.41953.55462-5.22897.0778-8.45601.47705 3.22704.5108 6.03648-.0778 8.45601z"/><path d="m399.9 298.184c-3.03116 5.31653-3.03346 9.49066.0668 12.4135-3.09986-2.92282-3.09756-7.09695-.0668-12.4135z"/><path d="m409.483 315.487c-6.9372 4.27702-10.1338 9.32039-9.78604 15.1971 2.07432-1.81784 4.43186-2.62197 7.30645-2.18192-3.95141 3.56904-5.60597 7.19835-5.03754 10.7794-.56843-3.58103 1.0869-7.21034 5.03754-10.7794-2.87459-.44005-5.23213.36408-7.30645 2.18192-.34776-5.87671 2.84884-10.9201 9.78604-15.1971z"/><path d="m437.807 300.448c3.10326 8.04552 1.82067 12.7023-4.09428 14.3211 5.91495-1.61876 7.19754-6.27559 4.09428-14.3211z"/><path d="m427.134 301.713c5.34652 9.45623 4.22708 14.235-3.23561 14.161 7.46269.074 8.58213-4.70473 3.23561-14.161z"/><path d="m390.663 420.329c-.36431 5.55601-2.73182 10.1533-7.28541 13.8878 4.55359-3.7352 6.9211-8.33252 7.28541-13.8878z"/><path d="m408.148 419.562c1.0926 3.25622-1.18398 6.896-6.55734 10.727 5.37336-3.83098 7.64994-7.47076 6.55734-10.727z"/><path d="m407.683 361.386c-1.45724-1.43654-2.36796-2.96885-2.91327-4.69313-.45557-1.53232-.63746-3.16044-.45557-4.88435-.18189 1.72391 0 3.35203.45557 4.88435-3.00661 8.62028-7.19479 14.1763-12.6588 16.5707 5.46397-2.39445 9.65335-7.95047 12.6588-16.5707.54531 1.72428 1.45603 3.25659 2.91327 4.69313z"/><path d="m407.104 435.697c-.0778 3.70601-.86733 7.14971-3.84589 9.78552 5.31737-1.63484 8.83314-5.14552 11.827-9.19916 9.85441-3.74156 30.5339-35.2464.29287-25.2502"/></g><path d="m443.794 387.086c-8.55912-2.60213-4.55238-23.689-7.90818-28.4948-2.49155-6.71152 5.50341-11.1135 4.78652-16.6703" fill="none"/><g fill-rule="evenodd"><path d="m427.506 362.367c-1.18398 8.14131-.3642 14.9411 2.64077 20.4964-3.00497-5.55527-3.82475-12.3551-2.64077-20.4964z"/><path d="m366.296 221.569c-1.38623 9.93332-7.66034 16.9233-17.3386 21.8641 12.5393 3.45792 19.8221 3.12975 22.9407-9.73126-1.84521 4.63475-.37647 4.80277-5.43132 10.0954-8.5967 7.17852-7.76049 12.9508-8.49929 18.9577 3.34276-1.61314 6.0565-3.71349 10.4911-4.48171-4.72056 6.34145-8.7387 13.2693-5.6876 26.0925l8.83161-9.29421c-6.08072 10.6705-4.36787 19.8921-.11516 28.6411.87084-5.28173 10.8527-9.66167 9.40388-18.4283"/><path d="m392.036 318.671c-3.26596 3.04293-4.80876 7.51641-4.73469 13.3321-8.37724-9.22535-7.3437-16.9296-.97405-23.7717"/><path d="m380.665 290.967c-.92912 3.72808-5.51075 12.128 3.1862 19.5359.48012-2.665-.82022-3.3857 5.28932-12.1994"/></g><g fill="none"><path d="m454.056 603.149c2.05974 19.1924 13.4293 33.6235 21.2961 48.1407"/><path d="m455.687 539.839c3.12089 29.083 9.15779 44.935 19.5702 62.778"/><path d="m456.777 417.478c3.121 29.083 7.52722 67.2795 23.6476 90.4424"/><path d="m448.74799 425.01801-.042 86.07498"/></g><g fill-rule="evenodd"><path d="m502.743 215.901c3.72998 3.96794 4.67104 8.5765 2.87875 14.0289 1.79229-5.45237.85123-10.0609-2.87875-14.0289z"/><path d="m448.349 317.304c.4111 6.56598 2.71298 12.3536 6.74272 17.2406-4.02974-4.88696-6.33162-10.6746-6.74272-17.2406z"/><path d="m472.397 268.673c-4.2308 1.48816-5.31003 3.94362-3.38342 7.15008-1.92661-3.20646-.84738-5.66192 3.38342-7.15008 1.00746 4.23062 3.61295 7.24999 7.90599 9.07156-1.91632-3.78758-2.41792-7.74654-1.5049-11.8776 1.97724.30234 3.72154-.69226 5.08674-3.20123 5.54833.46064 9.04723-2.11007 10.4066-7.72558 1.08263-3.52266.44791-6.72575-1.74156-9.48729 2.18947 2.76154 2.82419 5.96463 1.74156 9.48729-1.35939 5.61551-4.85829 8.18622-10.4066 7.72558 1.06915-1.8747 2.00178-4.54682 2.7248-8.12447-.72302 3.57765-1.65565 6.24977-2.7248 8.12447-1.3652 2.50897-3.1095 3.50357-5.08674 3.20123-.91302 4.13109-.41142 8.09005 1.5049 11.8776-4.29304-1.82157-6.89853-4.84094-7.90599-9.07156-.5887-2.41953-.55452-5.22897-.0778-8.45601-.47661 3.22704-.51079 6.03648.0778 8.45601z"/><path d="m495.685 298.182c3.03105 5.31653 3.03335 9.49066-.0668 12.4135 3.09975-2.92282 3.09745-7.09695.0668-12.4135z"/><path d="m486.102 315.486c6.93764 4.27703 10.1342 9.3204 9.78615 15.1971-2.07398-1.81784-4.43163-2.62198-7.30655-2.1823 3.95185 3.56906 5.6063 7.19835 5.03798 10.7798.56832-3.58141-1.0869-7.21033-5.03798-10.7798 2.87492-.43968 5.23257.36446 7.30655 2.1823.3481-5.87671-2.84851-10.9201-9.78615-15.1971z"/><path d="m458.945 300.446c-3.10325 8.04552-1.82067 12.7024 4.09461 14.3207-5.91528-1.61837-7.19786-6.27521-4.09461-14.3207z"/><path d="m469.622 301.71c-5.34652 9.4566-4.22664 14.2354 3.23571 14.1613-7.46235.074-8.58223-4.70473-3.23571-14.1613z"/><path d="m506.093 420.329c.3642 5.55601 2.73182 10.1533 7.2854 13.8878-4.55358-3.7352-6.9212-8.33252-7.2854-13.8878z"/><path d="m488.608 419.562c-1.09304 3.2566 1.18354 6.896 6.5569 10.7274-5.37336-3.83136-7.64994-7.47076-6.5569-10.7274z"/><path d="m487.902 361.383c1.45724-1.43652 2.36795-2.96922 2.91327-4.69313.45557-1.53232.63745-3.16043.45557-4.88472.18188 1.72429 0 3.3524-.45557 4.88472 3.00617 8.61991 7.19446 14.1759 12.6588 16.5704-5.4643-2.39447-9.65336-7.95049-12.6588-16.5704-.54532 1.72391-1.45603 3.25661-2.91327 4.69313z"/><path d="m489.652 435.697c.0778 3.70601.867 7.14971 3.84556 9.78552-5.31737-1.63522-8.83314-5.14552-11.827-9.19916-9.85441-3.74193-30.5334-35.2464-.29287-25.2505"/></g><path d="m452.962 387.082c8.55879-2.60215 4.55249-23.689 7.90785-28.4948 2.49155-6.71153-5.50341-11.1135-4.78619-16.6703" fill="none"/><g fill-rule="evenodd"><path d="m469.246 362.363c1.18387 8.14095.3642 14.9412-2.64088 20.4964 3.00508-5.55526 3.82475-12.3555 2.64088-20.4964z"/><path d="m529.289 221.567c1.38624 9.93332 7.66067 16.9233 17.3386 21.8641-12.539 3.45792-19.8217 3.12938-22.9407-9.73126 1.84565 4.63475.37691 4.80277 5.43176 10.0954 8.59669 7.17815 7.76048 12.9504 8.49918 18.9577-3.34265-1.61314-6.0564-3.71349-10.4911-4.48171 4.72056 6.34145 8.73836 13.2689 5.6877 26.0925l-8.8316-9.29421c6.08061 10.6705 4.36787 19.8917.11471 28.6411-.87039-5.28211-10.8522-9.66204-9.40343-18.4283"/><path d="m503.553 318.669c3.26596 3.04293 4.80876 7.51641 4.7347 13.3321 8.37723-9.22536 7.34369-16.9296.97404-23.7717"/><path d="m514.924 290.965c.92912 3.72808 5.51076 12.128-3.18652 19.5359-.4798-2.665.8201-3.38569-5.28889-12.1998"/></g><g fill="none"><path d="m429.279 420.509 14.5998-22.3023c4.60968-6.61685 8.2268-2.77501 9.34394 0l13.7238 22.0302"/><path d="m447.98801 712.23297-.01502 30.25403"/><path d="m447.98801 604.50299-.01502 63.20899"/><path d="m447.98801 534.79498-.01502 30.25299"/></g><g fill-rule="evenodd"><path d="m432.414 187.83c-2.7636-2.32972-4.0086-4.89369-3.85357-7.66085-.15503 2.76716 1.08997 5.33113 3.85357 7.66085.28169-1.60079 1.19855-2.87754 2.75023-3.82949-1.55168.95195-2.46854 2.2287-2.75023 3.82949z"/><path d="m463.512 187.953c2.76359-2.32935 4.0086-4.89369 3.85356-7.66085.15504 2.76716-1.08997 5.3315-3.85356 7.66085-.28181-1.60079-1.19866-2.87754-2.75067-3.82949 1.55201.95195 2.46886 2.2287 2.75067 3.82949z"/><path d="m417.059 209.107c-6.93764 4.27665-10.1341 9.3204-9.78604 15.1971 2.07398-1.8182 4.43196-2.62197 7.30644-2.18229-3.95184 3.56905-5.60597 7.19835-5.03754 10.7794-.56843-3.58103 1.0869-7.21033 5.03754-10.7794-2.87448-.43968-5.23246.36409-7.30644 2.18229-.34809-5.8767 2.8484-10.9205 9.78604-15.1971z"/><path d="m478.265 208.57c6.93764 4.27703 10.1341 9.3204 9.78604 15.1971-2.07387-1.81783-4.43153-2.62197-7.30644-2.18229 3.95184 3.56905 5.60597 7.19835 5.03798 10.7797.56799-3.5814-1.0869-7.21033-5.03798-10.7797 2.87491-.43968 5.23257.36446 7.30644 2.18229.34809-5.8767-2.8484-10.9201-9.78604-15.1971z"/><path d="m495.911 51.3764c-2.35524 1.62474-3.79746 3.37298-4.32864 5.24356-2.00956-2.89476-2.21445-6.0638-.58487-9.36343-1.62958 3.29963-1.42546 6.4683.58487 9.36343.53118-1.87058 1.9734-3.61882 4.32864-5.24356z"/><path d="m486.589 62.8559c-3.16318 2.48054-5.12431 5.35358-5.95176 8.71796-2.26397-4.11949-2.88992-8.288-1.65796-12.2473-1.23196 3.95933-.60601 8.12784 1.65796 12.2473.82745-3.36437 2.78858-6.23742 5.95176-8.71796z"/><path d="m495.52 79.5793c-2.35634-2.15423-3.40412-4.5195-3.24525-7.06701-.15887 2.54751.88891 4.91278 3.24525 7.06701.25715-1.4732 1.05732-2.64555 2.40104-3.51704-1.34372.871495-2.14389 2.04384-2.40104 3.51704z"/><g fill="#ed1c24"><path d="m480.714 147.258c-4.27923 1.8227-7.14538 4.14045-8.59987 6.95251-2.25707-5.27874-1.55125-10.4041 2.11814-15.1369-3.66939 4.7328-4.37631 9.85737-2.11814 15.1369 1.45449-2.81206 4.32064-5.12981 8.59987-6.95251z"/><path d="m475.145 162.234c1.93922 1.56038 3.12517 3.35913 3.59904 5.45835 1.46031-2.55461 1.90175-5.1474 1.18288-7.61894.71887 2.47154.27743 5.06433-1.18288 7.61894-.47387-2.09922-1.65982-3.89797-3.59904-5.45835z"/></g></g><path d="m494.848 119.66c.76565 3.43584 4.63072 11.1858-2.91907 17.9781-.38842-2.45545.73639-3.11478-4.43887-11.2516" fill="none"/><path d="m494.073 102.131c-3.76876.98038-4.94123 3.13162-3.61986 6.24228-1.32137-3.11066-.1489-5.2619 3.61986-6.24228.43136 3.96532 2.35217 6.9656 5.83814 9.02142-1.25388-3.64128-1.27996-7.31211-.0789-11.0125 1.65949.45539 3.25215-.298236 4.67443-2.4723 4.69756.923134 7.95048-1.11472 9.6836-6.13452 1.28379-3.12788 1.06663-6.11843-.5246-8.84517 1.59123 2.72674 1.80839 5.7173.5246 8.84517-1.73312 5.0198-4.98604 7.05765-9.6836 6.13452 1.10498-1.61988 2.1738-3.98254 3.15585-7.19386-.98205 3.21132-2.05087 5.57398-3.15585 7.19386-1.42228 2.17406-3.01494 2.92769-4.67443 2.4723-1.20052 3.70039-1.17444 7.37122.0789 11.0125-3.48597-2.05582-5.40678-5.0561-5.83814-9.02142-.25749-2.26873.0581-4.83869.79326-7.75066-.73574 2.91197-1.05075 5.48193-.79326 7.75066z" fill="#ed1c24" fill-rule="evenodd"/><path d="m478.181 110.389c-6.36658 3.28991-9.61259 7.62007-9.91226 13.0328 1.95806-1.47731 4.05583-2.00043 6.46903-1.33811-3.74148 2.91122-5.525 6.0855-5.40327 9.41619-.12173-3.33069 1.66212-6.5046 5.40327-9.41619-2.4132-.66232-4.51097-.1392-6.46903 1.33811.29967-5.4127 3.54568-9.74286 9.91226-13.0328z" fill="#ed1c24" fill-rule="evenodd"/><path d="m480.345 80.2226c-1.50172 3.19673-6.97796 9.95952-1.0938 18.1712.91806-2.31738-.034-3.19636 6.80528-10.0632" fill="none"/><path d="m484.248 31.4151c-1.12755 2.40082-5.24024 7.47975-.82175 13.6464.68972-1.74037-.0263-2.40007 5.11084-7.55758" fill="none"/><g fill-rule="evenodd"><path d="m400.94 51.3764c2.35491 1.62474 3.79757 3.37298 4.32831 5.24356 2.00945-2.89476 2.21478-6.0638.5853-9.36343 1.62948 3.29963 1.42535 6.4683-.5853 9.36343-.53074-1.87058-1.9734-3.61882-4.32831-5.24356z"/><path d="m410.262 62.8559c3.16275 2.48054 5.12421 5.35358 5.95165 8.71796 2.26354-4.11949 2.88949-8.288 1.65764-12.2473 1.23185 3.95933.6059 8.12784-1.65764 12.2473-.82744-3.36437-2.7889-6.23742-5.95165-8.71796z"/><path d="m401.336 79.5793c2.35645-2.15423 3.40412-4.5195 3.24569-7.06701.15843 2.54751-.88924 4.91278-3.24569 7.06701-.25671-1.4732-1.05699-2.64555-2.40093-3.51704 1.34394.871495 2.14422 2.04384 2.40093 3.51704z"/><g fill="#ed1c24"><path d="m416.138 147.258c4.27912 1.8227 7.14527 4.14045 8.59944 6.95251 2.2574-5.27874 1.55124-10.4041-2.11814-15.1369 3.66938 4.7328 4.37631 9.85737 2.11814 15.1369-1.45417-2.81206-4.32032-5.12981-8.59944-6.95251z"/><path d="m421.711 162.234c-1.93933 1.56038-3.12517 3.35913-3.59915 5.45835-1.46031-2.55461-1.90164-5.1474-1.18321-7.61894-.71843 2.47154-.2771 5.06433 1.18321 7.61894.47398-2.09922 1.65982-3.89797 3.59915-5.45835z"/></g></g><path d="m399.877 154.859c-2.782 2.81318-4.06842 6.93753-3.95173 12.2926-7.29078-8.46686-6.47177-15.5646-1.05425-21.8862" fill="none"/><path d="m402.007 119.66c-.76532 3.43584-4.63039 11.1858 2.91907 17.9781.38831-2.45545-.7365-3.11478 4.43876-11.2516" fill="none"/><g fill-rule="evenodd"><path d="m402.779 102.131c3.7692.98038 4.94167 3.13162 3.6203 6.24228 1.32137-3.11066.1489-5.2619-3.6203-6.24228-.43092 3.96532-2.35184 6.9656-5.8377 9.02142 1.25344-3.64128 1.27995-7.31211.0789-11.0125-1.65983.45539-3.25259-.298236-4.67488-2.4723-4.69755.923134-7.95047-1.11472-9.68359-6.13452-1.28379-3.12788-1.0662-6.11843.52504-8.84517-1.59124 2.72674-1.80883 5.7173-.52504 8.84517 1.73312 5.0198 4.98604 7.05765 9.68359 6.13452-1.10454-1.61988-2.17369-3.98254-3.15551-7.19386.98182 3.21132 2.05097 5.57398 3.15551 7.19386 1.42229 2.17406 3.01505 2.92769 4.67488 2.4723 1.20052 3.70039 1.174 7.37122-.0789 11.0125 3.48586-2.05582 5.40678-5.0561 5.8377-9.02142.25759-2.26873-.057-4.83869-.79282-7.75066.73563 2.91197 1.05041 5.48193.79282 7.75066z" fill="#ed1c24"/><path d="m418.675 110.389c6.36658 3.28991 9.6126 7.62007 9.91237 13.0328-1.9585-1.47731-4.05582-2.00043-6.46946-1.33811 3.74191 2.91122 5.52533 6.0855 5.40371 9.41619.12162-3.33069-1.66257-6.5046-5.40371-9.41619 2.41364-.66232 4.51096-.1392 6.46946 1.33811-.29977-5.4127-3.54579-9.74286-9.91237-13.0328z" fill="#ed1c24"/><path d="m401.435 20.657c3.47128 7.08759 2.84796 11.4679-2.04528 13.4844 4.89324-2.01653 5.51656-6.39683 2.04528-13.4844z"/><g fill="#ed1c24"><path d="m390.916 20.5886c5.53267 8.17687 5.06142 12.6541-1.32707 13.2607 6.38849-.606569 6.85974-5.08378 1.32707-13.2607z"/><path d="m382.569 127.822c-5.49739 4.54307-7.71797 9.45024-6.82259 14.8008 1.58849-1.85226 3.52278-2.80159 6.02539-2.65827-3.01615 3.62518-4.06152 7.09807-3.21151 10.3262-.85001-3.22816.19613-6.70105 3.21151-10.3262-2.50261-.14332-4.4369.80601-6.02539 2.65827-.89538-5.35059 1.3252-10.2578 6.82259-14.8008z"/></g></g><g fill="none"><path d="m416.51 80.2226c1.50139 3.19673 6.97764 9.95952 1.0938 18.1712-.91838-2.31738.0351-3.19636-6.80517-10.0632"/><path d="m384.296 106.378c-.60525 2.71739-3.66204 8.84667 2.30846 14.2182.30744-1.94206-.58224-2.46331 3.51084-8.89831"/><path d="m384.875 65.1505c-.60525 2.71739-3.66204 8.84705 2.30845 14.2186.30745-1.94244-.58223-2.46369 3.51084-8.89868"/><path d="m412.603 31.4151c1.12766 2.40082 5.24024 7.47975.82131 13.6464-.68961-1.74037.0274-2.40007-5.11084-7.55758"/></g></g><path d="m328.705 14.9951c-13.1173 1.17609-34.9078 13.45-16.7767 24.3195.0307-2.09323.47169-3.73556 1.19406-4.98874 1.15625-1.71418 2.93277-2.75331 5.46277-3.05678 4.70664-1.16112 10.0187 1.85226 15.8337 6.06268 5.48698 4.3717 16.2595 4.13707 23.8184 5.90439 3.88227-7.59761-21.936-17.315-29.5322-28.2411z" fill="#eac102" fill-rule="evenodd" stroke="#000"/><g stroke="#646464"><path d="m345.265 18.6031c5.21525-1.21239 14.6121 3.16792 21.2151.86812-2.08549 3.28804-3.58414 8.45003-14.7944 7.61071-5.79705-.487194-9.43302-4.53671-6.4207-8.47883z" fill="#e6e6e6" fill-rule="evenodd"/><path d="m346.09 18.4635c-2.20218.05799-3.83713.377556-5.02187.903675" fill="none"/></g></g><path d="m350.227 19.2138c-1.9849.0075-3.57833 1.51399-3.55883 3.3655.0197 1.85113 1.6446 3.34603 3.6295 3.33892 1.98491-.0075 3.57801-1.51398 3.55883-3.36548-.0186-1.85113-1.64492-3.34603-3.6295-3.33893z" fill-rule="evenodd"/><path d="m348.961 20.7959c-1.02466.0043-1.84707.781315-1.8371 1.73738.011.955686.84892 1.72765 1.87403 1.7239 1.02466-.0032 1.84707-.781689 1.8371-1.73738-.011-.95606-.84892-1.72765-1.87403-1.7239z" fill="#e3e4e5" fill-rule="evenodd"/><path d="m360.007 50.971c-7.62077.437123-12.8045 5.34383-18.875 7.9312-5.33016 2.42562-11.5602 2.75317-16.6105 2.1685.8992 3.1238 2.4764 5.5593 5.0339 7.0036 3.5797 1.268 7.1687.4586 10.4325-.5836l8.8275-2.9912c3.2835-1.1737 6.6009-2.1468 9.9948-2.9181l6.63881-9.08283c.26458-1.4164-.51011-1.23809-1.75896-1.44196-1.25097-.204222-2.8834-.07918-3.68305-.08561z" fill="#eac102" stroke="#000" stroke-width="1.504"/></g><path d="m1322.9381 108.99442h550v799.99994h-550z" fill="#0c1c8d"/><g transform="matrix(.90878985 .04454909 -.05073562 .98603117 -363.00119 -752.04326)"><g transform="translate(-1.1308 -1.13079)"><path d="m2229.58 1170.13 24.8939-23.7289-270.321-314.786-39.8728-22.4136 15.6437 40.9701z" fill="#f5f5f5" stroke="#000" stroke-width="1.50462"/><path d="m2238.98 1155.26-286.799-336.961 288.031 335.694-1.2328 1.2678z"/></g><g stroke="#000"><path d="m1911.39 1026.78c48.0159-9.5734 65.9654 15.2637 76.3072 52.043 1.3882 4.8512 2.7895 12.5208 4.3368 17.2676l-29.118 73.7844c-10.0147 15.2405-19.2692 30.7199-31.9449 43.8183-1.9796-17.8669-6.1895-25.7797-12.0593-42.6121z" fill="#fff" stroke-width="2.3"/><g fill="#f5f5f5"><path d="m2236.6 1153.24 24.6525-17.485c2.4182 4.2016-.6663 6.125-2.0369 11.3685-3.6984 14.1437 33.8313 61.6379 54.7075 92.8543 4.3159 7.8306 8.159 8.3958-.4963 16.0053-7.6435 8.3652-19.2328 7.1868-25.801-2.5313-22.3704-28.0292-45.5107-75.7416-59.2353-72.7818-4.2953.9286-6.2649 4.4646-9.1774.8008z" stroke-width="2.12188"/><path d="m2187.34 1180.54c6.8733-7.4596 16.8256-6.9766 22.2717 1.083.5277.7793.9482 1.6269 1.3532 2.4821l19.6447-21.3151 1.4775-16.649 13.2112.7123 32.0103-34.7332c6.8697-7.3201 16.795-6.8576 22.2079 1.1509 5.4442 8.0574 4.2274 20.6584-2.6476 28.1181-6.8734 7.4574-16.8256 6.9744-22.2715-1.0807-.5278-.7816-.9484-1.627-1.3534-2.4866l-19.5828 21.2473-1.5396 16.7146-13.2731-.6423-31.8208 34.5274c-6.8752 7.4575-16.8894 7.0423-22.3336-1.013-5.4442-8.0552-4.2276-20.6606 2.6459-28.1158z" stroke-width="2.58245"/><path d="m2287.58 1110.83c3.6954-.2717 7.2264 1.4128 9.6235 4.9572 4.2853 6.3414 3.3941 16.4946-2.3395 22.715-5.7271 6.2133-13.6874 5.651-17.9947-.7223-.3102-.4587-.6571-1.1141-1.0643-1.9802-.8538-1.8094-2.7034-2.4014-4.1313-1.3195-.1509.1129-.2926.2451-.4249.39l-19.5967 21.2438c-.5696.6306-.9308 1.5073-1.014 2.4602l-1.1529 13.2887-10.5523-.5377c-.7585-.048-1.5035.2711-2.0837.8914l-31.8106 34.5268c-5.7303 6.2157-13.7524 5.7255-18.0453-.6287-4.2908-6.35-3.3922-16.4041 2.3516-22.634 5.737-6.2249 13.6809-5.7257 17.9828.6413.3102.4609.6571 1.1141 1.0644 1.9824.8539 1.8093 2.7032 2.3992 4.1314 1.3195.1509-.115.2924-.2473.4246-.3922l19.6473-21.3374c.5792-.6511.9377-1.5608 1.0024-2.5391l1.1877-13.0522 10.4263.5695c.7585.048 1.5034-.2732 2.0838-.8913l31.9134-34.7141.062-.017c1.4093-1.4896 2.973-2.5752 4.6032-3.2847 1.2268-.5333 2.4742-.8443 3.7056-.9357z" stroke-width="1.1529"/></g></g><path d="m2268.51 1144.11 15.7353-1.1798c.2898-.042.6135-.053.8412-.029.7631.074 1.4987.1623 2.1916.3218l-.053.096c.6929.1575 1.3395.2867 1.9643.5365.3011.1255.5511.2367.8355.3853.5709.2951 1.4087 1.1598 1.9111 1.5385 1.2521.9415 1.6453 2.0846 2.4622 3.556.2771.5137.8212 1.4997 1.0136 2.0738.1923.574.3158 1.0858.4403 1.7125.053.3173.117.7045.1491 1.0385l.075.064c.092.9556.062 1.9716-.019 3.0548.019.03-.034.055-.051.096 0 .1112 0 .2032-.019.3326l10.2702 4.4787-.3034 1.9648 2.4223.1026c.4155 4.3169 1.5121 8.8958-.2654 12.6744l-.1453 5.8044 3.5094 1.3345.9893 2.8243c.1987.2776.3792.6292.5271.9495.2956.632.5232 1.2172.6135 2.0028.049.4279.098 1.0724.091 1.5435-.019.9466-.239 1.8703-.4813 2.9984-.1226.5641-.2228 1.1314-.4007 1.7408-.5312 1.8392-1.3202 3.8816-2.3725 6.1497 1.0633.5971-1.251.3598-1.4021.6539l-.6067 3.9339c.5677-.489 1.4598-1.3953 1.6888-1.3781.5349.034 1.0967.1798 1.5391.3057.2218.062.3396.039.538.1224.3987.1661.8273.3924 1.1331.6437.4622.3767.7952.8451 1.0482 1.4089.1.2259 1.2258 2.9051 1.2983 3.1637.132.5269.1094 1.1337.1264 1.7867.043 1.6258-.7031 3.9662-1.4206 6.4264-.3456.6945-.6625 1.3123-1.0202 1.9656-.021.026-.055 0-.062.017-.3479.6328-.748 1.2224-1.1057 1.8205l-.041.1747c-.7305 1.2192-1.3457 2.3055-2.1186 3.3726 0 0-.1189.021-.1264.032-1.1627 1.6008-3.415 3.4413-4.6605 4.6979-.025.017-.055.012-.064.019-.4101.4134-.8412.8214-1.2598 1.1956-.1604.1245-.2583.2254-.4056.3424l-.1896.9504-1.2242-.3775c-2.438 4.3484-10.5387 7.2745-12.7112 1.1934l-.2119-.1157c.2292-.2147-.1964-.4523.034-.6694-.038.055-.087-.01-.1264.029-.3619-1.008-.9165-3.5844-.8645-4.6658.096-1.4618.7052-3.3985 1.6161-5.0703l-.2002-.034.3107-2.3784-4.4549 1.601c-2.9045.7173-7.9235-.3259-9.0581-2.366-.2362-.4897-.4467-.9477-.5956-1.4293-.2658-.9563-.3203-2.0468-.1947-3.1701l.2238-1.6198c.3305-1.2858-.5698-1.5369.2173-3.018l-.166-2.5178-2.914-2.6274c-.5216-.5676-.7561-1.4816-.8297-2.6129-.079-1.4867.266-3.3921.9859-5.8326.4275.01.7354-.152 1.1459-.1812l-1.9816-.2041-2.2199-1.8779-1.2948-3.5772c-.064-.3387-.2014-.7304-.2224-1.1025-.094-1.9013-.4607-4.8821.4717-7.6114.068-.2008.1622-.4251.2345-.6305l2.8245-7.0805-3.0913-.6901c-2.4889 1.0128-4.9147 1.5269-6.9397 1.5132-2.2303 0-4.0206-.8289-5.2391-2.5038-.9992 6.7879 5.8762-1.4629 1.7288 9.3314-.7774 2.0197-1.38 4.009-1.8271 5.863l-.053.094-.1849 9.6071.019.079c.4902.7529 1.0078 1.7737 1.6383 3.2517.9203 2.1899 1.8019 4.3202 2.4199 6.4486.599 2.0368 1.8673 3.2689 2.1859 5.2672l.6624 4.6292c2.3048 4.6215 15.9946 21.6471 16.7766 26.7243-6.3372 14.0827-12.3277 18.7894-24.5145 24.6026-2.0001.7515-17.5525 11.1519-18.4388 12.0733-7.5333 4.6266-12.7251 9.4778-20.6119-3.9928-8.0822-8.7968-12.2303-36.1262-.5126-56.6843 0-.021 4.1797-1.6884 5.0909-5.7864-.8289-14.6683 9.373-28.8254 12.7231-38.7875.256-.8042.4285-1.5149.7211-2.2262l.064-.019c.5933-1.4386 1.2532-2.6801 1.9996-3.7566.3807-.5486.7301-1.0446 1.1508-1.5006.2499-.2668.5989-.5418.8657-.7743.2585-.2276.4877-.3915.761-.5891.5401-.388 1.1487-.7138 1.7457-.9794.026-.014.028-.083.051-.096.8237-.3586 1.7481-.7255 2.6742-.8626l.074.066.1773-.1233c1.1325-1.431 2.1016-2.7971 2.9319-4.0532.8444-1.2061 1.4794-2.3223 2.0563-3.36.3847-.4848.809-.9388 1.2365-1.3554.4537-.4095.1996-.5379.7276-.8258l4.593-1.5518 1.391.1752.5699-.6152.1358.093 1.6149-.092 9.0176-10.468z" fill="#ec8e78"/><path d="m2290.12 1144.46 4.3676 5.5079 1.5094 9.6274-4.433 11.7372-3.2886 9.7419-3.1564 7.487-3.9452 7.4193-3.5158 2.7071-1.6135-1.2779-2.7599.7153-1.071 3.8755c.9565 3.4869 3.6573.3889 6.1774-.022 6.451-.9603 6.1216-2.5934 8.4063-3.9939 4.33-3.4562 7.2026-7.1368 9.0486-11.3172 7.4625-8.076 10.687-17.2419 9.4273-24.0957l3.3717 4.0053.382 8.568-2.974 9.6701-7.1708 10.8006-12.7917 9.7027-4.7411 3.2356-5.0554 1.4911-.5384 4.4115 4.4383-.3626 6.0347 1.2498c4.6301-1.0193 6.9393-4.4254 9.9808-7.0798 12.1407-6.5373 14.3681-14.1035 16.515-20.0408l.6115 6.5368-2.4009 7.3115-5.6464 7.8127-8.7844 9.5227-5.8526 2.7496-1.736 2.8724-1.1518 5.1288.7332 3.2948 2.0742-2.7844 5.8334-2.417c10.41-3.3824 16.3798-10.3328 18.1249-18.3496l.572 5.8056-2.3946 7.806-6.3798 8.3979c.3351.1944.5624 1.2435.9077 1.0085.6972-.4726-.3148-.2624 2.2198-.1909-2.0677 7.7798-5.2395 7.8353-12.5485 9.9186-4.64 1.221-7.4613-.3691-9.9727-4.2182-3.2198-3.9967-1.8158-7.4569-2.1809-11.1228-3.1669-1.0855-12.6387 3.7477-10.7905-11.284-1.7966-3.6643-3.2392-4.2409-3.0724-10.9988l-3.349-4.7536c-2.7167 2.1092-6.0589 2.8305-9.7456 2.819l3.6624 10.1239.2273 14.2933-3.3801 11.8244c-3.0083-2.1643-3.8933-2.7036-7.8326-2.8944 1.5751-3.8262-.2506-6.8678-1.378-10.0727 7.5928-8.6494 3.001-19.1442 2.0781-29.0828l-.068-2.2917 4.4392-11.2448 1.7473-8.2335c3.1062.059 5.947-.7291 8.7365-1.6803 7.633-3.7333 11.8951-8.7322 16.7378-13.4984l2.9316-2.2413-.4079 4.8744c-4.1487 6.2184-10.2293 9.4456-16.0778 13.0987l1.7743 3.301-2.9089 8.7493.3083 3.9698.07-.4283c2.4665 2.3183 3.8872.6181 5.0277.5742l3.8719-6.5796c1.1925-2.3958 2.7142-4.7494 4.7826-7.0363 5.794-12.14 11.6044-25.429 7.9837-34.1545zm-24.6602 77.148 13.9203 20.8697 1.0642 1.9802-1.5809 5.3091-3.7233 7.6181-8.904 8.2306-9.5224 4.8318-4.3349 1.079-4.3581 3.6391-7.1297 4.2777-2.578 1.9948-1.2821.1295-8.4034-6.8883-4.2763-5.7741c10.8102-1.5768 24.9403-8.7767 25.9224-15.6917 4.1542.061 7.7252 5.2983 12.8552-3.2767 4.9923-9.2207 4.6414-18.5925 2.331-28.3288z" fill-opacity=".2941"/><path d="m2269.03 1143.41c2.1231-.96 4.9935-1.3305 9.985-1.5915 4.5698-.5318 8.7496.034 12.5046 2.8117 4.2329 3.112 5.5633 7.9266 5.7395 13.2698 4.6384.465 9.9064 2.8588 11.9428 7.0611 2.5578 5.2781.9023 10.1785-.4609 15.8525 7.2498 4.0076 6.7635 15.1065 2.2859 23.2161 3.1996 1.2095 5.2354 4.2253 5.3758 7.9974.2633 6.8803-3.0595 12.6118-6.7018 16.7914-1.9381 2.226-4.3261 3.8427-6.7224 5.7536-4.3287 6.2513-13.9671 4.9275-14.4102-.2297-2.1365-2.4927-.9003-7.969.6374-11.4394-.5001.2884-.8836-.038-1.3966.2381-3.88 2.0969-9.4533 1.3896-11.8683-1.5549-1.3481-1.6429-1.2177-4.0392-.5143-6.3129-.3924-1.5476-.199-3.846.5496-5.2364-.2571-.071-.6161.1231-.6761-.174l-.1019-.7187c-3.7527-1.9232-4.1968-6.2628-2.8661-10.4676-.9227-.3801-1.8616-.9647-2.5013-1.5672-4.172-5.4048-2.5739-15.0721 1.7271-21.0897-2.7817 1.1629-7.3089 2.7417-9.8835 2.7675-.2043 1.4927-.3901 2.8207-1.1868 4.89-.7105 1.85-.6741 5.1202-1.0591 6.6744-.2851 2.3636-1.9007 4.8709-2.8695 6.7605 2.3682 3.4224 4.4768 7.4591 5.7184 11.298.9059 2.8315.6376 6.1177.9317 8.7692 3.3868 4.8773 7.0142 10.1334 9.7656 14.5713 1.7956 2.8888 3.6088 5.5025 5.1524 7.8009 1.5417 2.2986.7751 2.4129 1.1909 2.8587.9422.9976 3.0246 2.3159 2.4839 3.7137-3.9216 13.2047-15.0989 23.0429-28.8316 26.255-5.3101 4.9091-9.0144 6.2531-12.763 9.4514l-3.8357-1.3438c6.0621-1.9911 9.4043-5.9892 15.466-10.5653 12.4982-5.0828 21.9006-8.0337 27.4529-25.4413-4.9441-8.1138-12.6029-19.6801-16.1015-25.6444.492 8.0598-1.7464 15.8454-5.814 21.6192 3.5482-7.3093 4.7343-17.3675 3.6122-24.7378-.3187-2.0004-.7852-3.9943-1.3861-6.0309-1.1832-3.9617-2.6298-7.3574-4.4979-10.507-.4445-.696-1.1765-.9659-1.6873-1.3419-1.7919-.2111-3.1149-1.4157-4.4719-2.5984 1.6782.8675 3.6359.4742 5.0954.1461 1.5083-1.4093 2.134-3.8463 2.6817-5.8125.4471-1.8518 1.0612-3.7622 1.8388-5.7797 4.1491-10.7943-2.6738-2.6374-1.6764-9.4251 1.2186 1.6749 2.9972 2.4236 5.2275 2.4228 3.0024-.01 6.9087-1.3081 10.5939-3.2608 1.5804-.7817 2.8455-1.7876 4.2831-2.7972 2.2919-1.3391 4.3998-3.4096 6.1671-5.5414.4328-.5982.8831-1.1466 1.1795-1.7565.7553-1.5388.7959-3.0217.8936-4.6582-3.7206 3.9435-7.9942 4.3294-12.3895 2.522-.5145-.2322-.622-.966-.9725-1.3427-.935-1.6476-.8784-3.0762-.8977-4.9046-1.6879.5164-3.3856 1.0974-5.0571 1.4934-.6606.1456-1.3043.092-1.9869.2118-3.2884.1989-7.46-1.0762-10.4958-.1412-.4328.1341-.8941.3871-1.2776.6244-1.0531.6153-1.9709 1.8126-2.6512 2.8365-1.7486 2.6323-3.125 4.816-4.8333 7.1299-3.0059.3368-5.405 1.9805-7.4091 4.5905-.7884 1.0238-1.7616 3.1258-2.337 4.5766-.3157.7944-.1811 1.8801-.4136 2.5657-3.3571 9.9626-12.0794 22.9308-12.3163 37.5413-.032 1.8778-.9754 2.8358-2.2737 3.6558l-.864-1.9436c.7893-.5752 1.3594-1.3739 1.3404-2.451-.2936-16.0238 9.1507-29.1302 11.9566-37.7871.8615-2.661 2.0569-5.216 3.2635-7.1796 2.0124-3.2756 4.9588-4.6958 8.0007-5.4699.9019-1.1588 1.7996-2.3858 2.445-3.3656.9074-1.1038 1.5007-2.5424 2.1474-3.6262.952-1.407 2.2665-2.5395 3.533-3.0395 2.6704-1.1541 7.7416-.863 11.7951-.3233 1.467-.2225 2.982-.6004 4.2302-.8916 1.649-.4388 2.4633-.4389 4.0085-1.086 2.9368-1.7753 6.5219-3.5077 9.6716-2.8852 3.0059.5958 6.1517 3.4524 5.5241 6.3137.09.4476.1396 1.2512.1773 1.6907.1151 1.3145-.3066 3.1913-.6663 4.4391-1.4366 4.4542-4.8021 7.0794-7.7142 9.2776-1.5524.9214-2.8432 1.8029-4.3469 2.812-2.5097 3.3606-3.819 7.4426-4.817 10.4256-2.1712 6.6856.9478 14.1574 5.7634 11.6156-1.4013-1.0607-1.5883-2.7576-2.3753-4.319 1.9543-8.1089 9.6799-13.0056 12.1171-5.3428.8837-1.7917 1.4891-3.0918 2.0162-4.9971 1.7767-8.1512 6.5722-14.9805 7.905-22.9241.7769-5.6874-.6446-9.7233-4.1034-12.7401-3.4117-2.9755-8.4322-2.9779-12.2928-2.6962-3.1523.2967-9.8846.958-12.4782 2.578l2.6317-2.7491c.077 0 .1604-.062.2436-.061zm9.1945 8.3215c-.529.1224-1.0972.3153-1.6156.5363-1.5551.6653-2.9831 1.6544-4.3631 2.2408-.3062 2.2698-.098 3.9852.7092 4.9489 4.2615 2.0983 8.927 1.5166 12.442-2.6156-.259-3.1155-2.6552-4.6625-5.0258-5.1084l-.1264.029c-.6809-.1157-1.3445-.1886-2.0205-.031zm18.7031 9.2972c-2.1661 7.9492-6.0889 14.1032-8.425 21.5588-.5712 2.5-3.0417 7.3785-3.0417 7.3785-1.2464 3.3358-5.2961 9.3561-7.7086 8.864-.3111-.063-.7161-.4079-.9446-.6882-1.1267.3679-1.8639.5645-2.9094.5873-1.2612 3.9664-1.7647 7.5341 1.2877 9.4329-.043-1.6104-.2833-3.4874.3907-4.5419 2.2375-3.5034 7.6479-2.7178 10.9582.1996 6.1338-4.048 12.8111-8.1108 16.75-15.2314 2.4808-4.1345 4.3496-9.3459 5.0412-13.855.7243-3.2118.3958-6.0403-1.0462-8.6629-2.5424-4.6272-6.8139-5.1274-10.3523-5.0417zm-17.2905 24.1771c-2.1838.8222-4.3707 3.905-5.5381 7.2074.8718 2.2922 2.1518 4.4495 3.7654 5.4003 2.7817-1.2999 5.1204-4.9397 6.4031-8.8942-.8867-2.8768-2.2654-3.9389-3.7388-3.8398-.3043.022-.5786.01-.8916.1262zm28.0684-2.092-.062.017c-.5618 1.4875-1.7747 4.0856-2.5887 5.5418-3.9635 8.4787-11.2561 13.3384-18.3471 17.2492-1.48 2.539-7.4021 4.1725-9.3619 4.1306-1.372 2.2099-1.1987 3.4921-.8242 4.2298 6.0174-2.8678 13.3806.4835 12.0168 7.1274 14.9951-3.4067 33.0333-32.9248 19.1674-38.2955zm-28.5162 19.8372c-.2806.054-.5656.08-.8195.1884-.6764.2902-1.1995.9003-1.5917 1.6021-.476.8482-.5832 2.5582-.3328 4.0325 3.3422.032 6.8838-1.0437 9.1777-3.5959-1.9013-1.7005-4.4702-2.6008-6.4337-2.2271zm30.5787 3.1846c-3.3986 4.9626-9.5206 11.6194-13.8874 14.3222-2.3058 1.1565-3.7254 1.5264-5.0847 3.5632-1.7749 2.9079-2.4261 5.9761-1.8846 9.0901 1.5328-4.303 5.922-5.2351 8.9681-5.5255 2.5753-.2424 4.742 1.1437 5.3631 4.2884 6.3884-4.936 11.6345-10.3893 11.4608-19.4535-.081-4.1889-2.1349-6.1917-4.9353-6.2849zm-30.9243 8.929c-.6656.1083-1.321.258-1.9521.4482-.6491 1.4861-1.2147 3.1572-.8883 4.2425 1.2064 4.0177 8.5015 4.4188 11.4961 2.1362 1.0508-6.1502-3.9971-7.5894-8.6557-6.8269zm16.8246 14.3479c-.8037.1939-1.7277.384-2.4974.7394-2.3056 1.0681-4.0312 2.7732-3.3377 4.3956 2.657 6.2134 11.4397 1.47 12.1377-1.559-.4729-2.2586-1.8613-3.6737-3.3481-3.8432-.8114-.1062-1.8846.01-2.9545.2672z"/><path d="m2304.44 1247.79c1.25 1.8189 3.4282 2.0112 4.8635.4251 1.4187-1.5653 1.5842-4.2841.3724-6.1052-1.25-1.8189-3.4263-2.0091-4.8635-.425-1.4187 1.5652-1.5843 4.2818-.3724 6.1051z" fill="#fee79b" stroke="#000" stroke-width="2.12188"/><path d="m2001.91 1097.68c18.0362 11.5776 18.1018 57.4352 39.1056 78.078-1.9106 1.4709-3.7888 2.9598-5.6486 4.4807 3.5624 7.3458 7.1669 14.603 10.7787 21.7779.4122.815.8244 1.6278 1.2347 2.4406-.292-1.0519-.7274-1.9296-1.2347-2.4406 2.6336-.5 4.7663-.1238 6.2337 1.3506 2.8532 2.8697 2.8191 7.4743.9312 13.0161 2.4267 4.8485 4.8198 9.6437 7.1429 14.4254 5.5262-1.6739 10.2713-1.1534 13.2522 2.8488 6.3204 6.7654 9.5009 29.5126 11.8201 48.4203.7768-1.3346.9455-1.9523 1.4339-1.7606.5098.1994.1604.7659.1792 2.5392l.2555.069c3.801-10.588 10.8852-21.3767 16.5492-27.9686 1.361-2.039 2.9749-3.6027 4.91-4.6001.2965-.1879.5457-.3309.8266-.4648.1453-.059.3023-.1262.4504-.1771.4141-.164.8078-.3135 1.1798-.3468 5.4829-1.2957 10.5879 4.3007 15.0343 12.8641 33.8563-14.1599 71.5325-21.0777 88.3594-39.6258 1.3472-2.8757 3.1867-4.6561 5.621-4.5653-9.9001 15.6149-1.2286 50.531 13.1347 61.2942l3.4888 2.0451c2.1363.9416 1.5083 1.1714 3.7933.9043-2.6657.9063-2.284 1.3674-4.6443 1.1064-4.6332 2.4359-16.6845 8.8905-24.0494 14.1545-16.2927 11.6378-30.5575 27.3923-46.5522 39.6795-5.8063 4.4615-13.9267 9.8016-21.6209 14.5638-.4956 14.5465-3.0609 26.5233-8.9156 28.6985-10.0818 4.8388-28.3376 1.2752-38.0026-2.219-7.5254 7.0876-20.2662 7.6265-34.8978 9.6506-1.0944 2.2662-2.0344 3.5244-2.6749 3.2733-.5256-.203-.7658-1.4545-.7707-3.3169-10.596-8.5933-18.0066-21.9687-26.3104-34.0002-.019-.017-.038-.012-.045-.024-9.4626-4.4232-33.6384-20.393-38.6096-31.9477-2.3446-3.8657-1.8292-9.8779.4801-16.8369-4.3755-5.2997-8.5855-10.8812-12.7289-16.6942-3.7999.8349-6.8788.387-8.6456-1.9642-1.6914-2.2476-1.9348-5.1276.2476-10.2517-6.4117-9.6413-12.6465-19.6798-18.8925-29.7398-.4198 3.2887-1.7659 6.3366-3.8384 8.5066-.038.044-.068.11-.1057.1521-.1949.1996-.432.3859-.6397.5685-.2903.2582-.596.4798-.9101.7062-.3213.2269-.6542.4634-1.0029.6544-.019 0 .0004.055-.021.059-5.5631 3.0262-12.0291-.2505-14.4156-7.2999-2.3864-7.0494.1774-15.1815 5.7423-18.2078 1.1776-.6405 2.4524-1.0106 3.666-1.1075.3335-5.5593-5.2341-1.6667-14.871-13.3423 33.5109-35.4655 43.9084-80.2786 62.0678-121.946 4.8153-.5885 8.7902.3757 12.1311 2.5203z" fill="#f5f5f5"/><path d="m2221.87 1264.59 1.2532 1.0629c2.8346 5.783 6.3366 10.7152 10.3261 13.7026l3.4901 2.0361c2.1365.9439 1.5051 1.1275 3.7916.8581-2.6657.9063-2.302 1.3994-4.6606 1.1405-4.633 2.4359-16.6631 8.898-24.0298 14.1621-16.2928 11.6378-30.5555 27.3966-46.5503 39.6839-5.8062 4.4615-13.9354 9.7579-21.6312 14.5202-.4956 14.5465-3.0477 26.5468-8.9026 28.7221-10.0818 4.8365-28.34 1.2553-38.0067-2.2365-7.5255 7.0876-20.2635 7.6506-34.8969 9.6726-1.0925 2.2683-2.0158 3.5101-2.6582 3.259-.5254-.2029-.8031-1.4323-.8063-3.2948-10.5962-8.5933-17.9962-21.9671-26.2998-33.9965-.019-.014-.036-.012-.045-.026-9.4626-4.4232-33.638-20.4284-38.611-31.983-2.3429-3.8658-1.785-9.8628.5241-16.8262-4.3774-5.2997-8.6064-10.8866-12.7501-16.6996-3.7999.8349-6.9017.3774-8.6702-1.9738-1.6915-2.2476-1.9056-5.0917.277-10.2137-6.4121-9.6434-12.6792-19.7132-18.9252-29.7687-.4197 3.2886-1.7537 6.3292-3.8248 8.4991-.038.044-.068.11-.1056.1499-.1966.1996-.4394.3776-.6469.5602-.2904.2582-.576.5515-.8884.7778-.3228.2271-.6614.4506-1.0103.6394-.019.001 0 .055-.019.058-5.565 3.0263-12.0236-.2884-14.4101-7.34-2.3882-7.047.1585-15.198 5.7242-18.2243 1.1793-.6428 2.4633-.956 3.6767-1.0551.3319-5.557-5.2361-1.6754-14.8766-13.353 1.743-1.8454-.303.2435 1.3196-1.6522l.6873-.039c1.1138 3.8288 24.9021 18.8009 31.5436 14.9015l2.8722-2.6619c2.318 1.1871 5.11 2.6419 8.8868 4.6499l12.2326-3.6019c4.2278 1.4728 10.0986-.3676 12.6275 5.827-.3471-.099-2.404 1.0917-2.7227.8721-5.7521-4.011-15.3503 2.7167-14.8496 3.9396 5.0929 12.3871 12.0524 18.4272 21.4931 27.3238-2.5282 5.9049-.7391 8.7565 5.1956 8.68 9.0449 18.0679 15.4403 23.6225 22.3375 31.5488-3.0862 6.7492.9674 7.4304 6.3479 6.987 3.16 17.514 12.0964 23.4027 15.7644 26.0005 3.1302 6.8878 4.9505 15.0272 13.1074 17.1179 1.6954 1.9358 2.8238 5.777 6.34 1.5829 6.098 2.8126 11.4625.7219 16.6173-2.7837 8.7651 5.0372 16.6081 4.7891 23.3747-1.6036 6.4468.05 3.3387-7.8315 1.8485-14.3689 20.9304 15.7264 71.4024-27.4666 102.362-58.9552 3.4305-2.3727 3.5618-6.9477 4.0686-11.2734 4.5047 3.3367 4.4435-1.9073 2.7083-5.0051z" fill="#c3c7c8"/><path d="m2095.93 1377.49 2.0364 1.3939-.4172.4095c-7.9886 7.5241-21.0141 8.239-35.7345 10.2685-.1584.024-.2298-.3177-.3877-.2972l.9301-2.7447c.21-.029.1585 1.018.3664.9879 13.9784-1.9099 26.2025-3.7768 33.2065-10.0179zm-62.4036-24.5588c8.1348 11.7986 14.7617 25.4374 24.7763 33.8181.085.072.4594-.3081.5441-.2357l-.6148 1.9392c-10.9617-8.8985-18.629-22.2409-27.0258-34.3331z"/><path d="m2105.36 1251.77-2.3902 6.0469c-.8762 1.1506-1.7751 2.4395-2.674 3.7704-4.3167 6.3919-10.1503 15.4575-12.9433 23.2387-.25.121 0-.9658.098-.6886l-.03-.2523-.4414-.6652.3897-1.3313c2.8889-8.0676 6.9744-15.3737 11.4282-21.9683 2.2276-3.2973 4.4606-6.0801 6.5631-8.1503zm-19.3715 45.4051c-2.2176 25.7083.6588 68.753 12.1273 80.2152 7.5981 4.4618 22.8015 5.5721 32.6416 3.1363l4.5252 1.128c-10.6246 5.1032-30.4834 2.6032-38.6211-2.2041l-.4645-.1136-.1896-.5941c-11.8715-15.307-14.1857-53.4647-11.0931-78.6243z"/><path d="m2117.88 1249.55c1.2905.8442 2.523 2.0056 3.7089 3.3665 2.0311 2.3311 3.9425 5.3322 5.7314 8.7893l-1.836.9892c-1.6596-3.1731-3.3983-5.8863-5.1888-7.9402-1.4447-1.6591-2.9004-2.8691-4.3602-3.5794s-2.933-.9338-4.4317-.5812c-4.1623.9826-7.0391 4.3165-9.0521 9.4062-2.0142 5.092-3.0452 11.9171-3.3892 19.4899-.6859 15.15 1.4953 33.2109 4.1099 46.334 2.2673 11.3872 6.8889 26.2418 12.6539 37.4309 2.8815 5.5924 6.0234 10.2655 9.2443 13.1685 3.2207 2.903 6.4312 4.0366 9.627 2.849 2.506-.9321 4.415-4.08 5.7889-8.9945 1.2619-4.5122 2.0226-10.3998 2.3233-16.9316.026-.5805.6596 1.1316.728-.6313l1.318-1.0422c-.2447 7.3858-1.0131 14.1863-2.495 19.4851s-3.7737 9.265-7.143 10.5183c-3.8716 1.438-8.7974.1351-12.3288-3.052-3.5311-3.1849-6.7862-8.039-9.7543-13.8008-5.9341-11.517-10.6388-26.4949-12.9636-38.1637-2.6519-13.3285-4.8734-31.5814-4.1678-47.1435.3535-7.7812 2.498-15.0463 4.7004-20.6158 2.2025-5.565 5.6523-9.6226 10.4594-10.7586 1.8686-.4388 3.6456-.1607 5.3999.6868.4388.2147.8865.4397 1.3172.7211z"/><path d="m2217.17 1218.15-.3522 1.3601-.4715-.2547c-2.5849 3.9595-3.4222 8.8728-4.6169 13.591l-.04-.3754 1.7781-7.367c-10.21 10.1052-25.0928 17.2749-43.1958 23.5656-19.4306 6.7501-42.1173 12.7339-60.8215 22.9206-1.2118.6625-2.5776 1.2546-3.7603 1.9462l-1.1499-1.9375c1.5393-.9008 2.5463-1.4891 4.1399-2.3357 18.9317-10.3064 40.655-16.8291 60.0373-23.5631 19.3822-6.734 36.3899-13.7811 45.834-24.6006l2.6191-2.9495zm21.252 63.3983 2.3561.7097-2.1069 1.1137s-18.035 8.9625-27.078 15.4227c-16.1755 11.5557-29.9996 26.0818-45.5618 39.4922-12.3743 10.6589-36.1245 25.1666-42.6959 27.0157l-.6048.01.1735-2.5955c12.0336-4.7809 28.1538-15.6638 42.0641-26.5626 15.8131-12.3891 28.7113-28.1767 45.1211-39.8989 6.9268-4.9483 18.1382-10.312 23.3947-12.8625.9901-.479 1.3806.6422 1.8785.3848l2.0369-.6032 1.0225-1.6233z"/><path d="m2212.7 1249.92c-32.8779 10.7893-61.0994 35.7726-91.9966 53.5339-.4743.278-1.1061-.017-1.3237-.6146-.2194-.599 2.3852-1.506 2.8614-1.7842 30.7331-17.6674 56.7547-42.7291 90.1657-53.6232z"/><path d="m2200.41 1263.84c1.3153.6726 2.4163 1.9524 2.9881 3.6792 1.1863 3.4312-.1075 7.6537-2.823 9.133-2.7159 1.4772-6.0198-.2431-7.1652-3.6967-1.1562-3.4219.1208-7.6589 2.8231-9.1308 1.3588-.7397 2.8615-.655 4.177.014zm-.7424 2.3534c-.8623-.4456-1.8577-.481-2.6627-.042-1.6133.8787-2.5291 3.8214-1.8235 5.8606.6814 2.0517 2.9911 3.2481 4.6045 2.3694 1.6136-.8787 2.5291-3.8214 1.8237-5.8606-.3433-1.0245-1.0798-1.8864-1.942-2.3276z"/><path d="m2158.51 1288.53c1.312.6706 2.4595 1.9852 3.0346 3.7074 1.1757 3.4274-.1604 7.6303-2.8693 9.1048-2.7108 1.4746-6.0134-.2568-7.1651-3.6967-1.1759-3.4296.1603-7.6303 2.8692-9.1048 1.3555-.7373 2.8172-.6789 4.1306-.01zm-.744 2.3535c-.8622-.4411-1.8113-.4529-2.6163-.017-1.6098.8784-2.5478 3.7385-1.8513 5.7738 0 .019-.019.04-.021.059.6846 2.0426 3.0134 3.1849 4.6251 2.3107 1.6099-.8762 2.5015-3.7644 1.8033-5.7996 0-.019.019-.04.021-.059-.3415-1.0203-1.0989-1.8323-1.9609-2.269l.0002.0008z"/><path d="m2114.52 1256.34c1.8689.739 3.0398 2.726 3.5205 4.2086-3.1339-3.1932-5.184-3.6009-7.9031-.663-.6771.7321-1.3131 1.8705-2.0352 3.6923-1.4044 3.5398-2.4561 9.4757-2.7716 16.3641-.6367 13.8036 1.4283 31.5069 3.9101 43.9662 2.0829 10.4658 6.6054 24.8116 11.83 34.9304 2.6104 5.054 5.5621 8.9276 7.6796 11.0459 3.588 3.588 6.5311 1.0986 7.2553-4.3648.4394 2.95-.6105 7.3457-2.5329 8.3556-2.1242 1.1147-4.3149-.5374-5.8681-1.9315-2.5599-2.2929-5.4646-6.4963-8.1708-11.7346-5.405-10.466-9.9761-24.9524-12.1195-35.724-2.5247-12.6777-4.5973-30.449-3.9421-44.689.3271-7.1344 1.3721-13.2533 2.9821-17.3113.7808-1.9756 1.5287-3.4809 2.527-4.4863 1.8524-1.8608 3.7414-2.409 5.6387-1.6586z"/><path d="m2074.39 1234.74-.06-2.0932c3.5399 3.792 5.686 11.5054 7.5126 20.5636 1.7717 8.7985 4.5436 20.1114 4.1127 28.1071.042.3377-.4675.4212-.4253.7568l-.1894.3935.1245-.1245c-.032.075-.051.1602-.081.2369l-.4111 1.1846c.019-.04-.019.04 0 0 .273-10.0897-3.269-21.1908-5.0097-29.9559-.9816-5.0078-2.1676-9.4134-3.5146-12.8527-.8999-2.2971-.5971-3.5791-1.63-4.9027l-.4268-1.3135zm6.5635 61.7425c-10.253 24.4919-30.9611 51.4299-48.1231 58.4532l-.3952.3462-.4717-.2569c-4.825-2.2457-13.2415-7.3325-21.162-13.3814-7.9205-6.0467-15.3058-12.8435-18.026-19.1614l-.3615-.9042 2.5691.4827c2.5793 5.1597 9.3658 11.7515 16.8234 17.448 7.6135 5.8132 15.6848 10.7085 20.3612 12.9455 15.4393-7.0661 37.2814-32.5384 48.1814-56.1433l.6044.1717z"/><path d="m2087.25 1279.14c1.5849 6.0809-1.1517 18.0945-2.9056 25.4976l-15.9601 67.3761c-1.3683 5.7715-4.7831 18.0709-9.3056 20.3388-3.0811-6.0334.1509-18.0655 1.5694-23.3583l18.1341-67.6211c1.7838-6.6514 4.4534-18.8223 8.4678-22.2331zm-.3809 1.1011c-3.5782 7.2558-4.7292 16.4745-6.1777 21.8729l-18.1343 67.6211c-1.7177 6.4088-4.0823 14.9245-3.2305 21.595 3.3381-5.18 5.8508-14.3585 7.198-20.0448l15.9617-67.3762c1.5702-6.6254 4.6538-17.1439 4.3828-23.668z"/><path d="m2070.99 1229.84c1.2781.6571 2.4348 1.6066 3.4131 2.9202l.7594 1.0505-.089.092c2.73 4.3331 4.037 10.3069 3.292 15.9593-.8121 6.1426-3.2577 12.6767-6.5882 19.2284-6.6686 13.0994-16.9041 26.1227-25.2483 34.9121-7.3042 7.6908-18.0283 16.3551-28.1821 21.2269-5.0759 2.4358-10.014 3.8934-14.3497 3.8323-4.3355-.063-8.707-2.3516-11.1667-6.4048-2.1384-3.5268-2.0957-8.4191-.8299-13.8066.3404-1.4411.7698-2.9295 1.278-4.4514l1.606 1.5921c-.3922 1.2188-.7267 2.3989-.9948 3.5373-1.1757 4.9977-1.0678 8.9684.5243 11.5932 2.0288 3.3454 5.1001 4.8101 9.0536 4.8675 3.95.058 8.7121-1.3541 13.6424-3.7194 9.8627-4.7328 20.5034-13.2441 27.6293-20.7542 8.2154-8.6512 18.3916-21.5804 24.8829-34.3311 3.2449-6.3764 5.544-12.7184 6.285-18.3352.743-5.6148-.019-10.4814-2.9194-14.382-1.0446-1.4047-2.3312-2.2911-3.8431-2.8039-1.51-.5151-3.2418-.6126-5.1799-.353-.9421.1271-1.9245.3427-2.9442.6357l-1.1611-2.2418c1.3389-.4292 2.6421-.7391 3.9017-.9095 2.1203-.2859 4.1061-.1549 5.9185.4724.4521.1539.885.3513 1.3101.5734z"/><path d="m2036.22 1179.7c4.1104 8.4797 7.972 16.8837 12.1392 25.1589l-.5812 2.6995c-4.3517-8.6398-8.7757-17.3947-13.0935-26.2928zm17.5823 35.2426c6.7333 11.5333 12.7369 23.276 17.0501 35.6589l.2271.4791-.1622.4759c-.9576 3.787-2.6185 8.1177-4.893 12.5933-6.0956 11.9979-16.0866 24.7525-24.0199 33.1085-6.7403 7.0981-17.146 15.4584-26.3839 19.8776-3.2003 1.5282-6.2248 2.5355-8.8364 3.0231l-.4092.06-.3365-.3245c-9.2332-9.2251-17.7038-19.9253-25.8515-31.416-.2688-.3817.8222.3993.5517.017l1.4381.3603.305-.8932c7.7241 10.7957 15.7707 20.8783 24.4141 29.573 2.3606-.4792 5.0745-1.353 8.0195-2.7599 8.9278-4.2704 19.2791-12.5014 25.8332-19.4028 7.7956-8.213 17.7009-20.9249 23.6079-32.5536 2.13-4.1929 3.6473-8.1659 4.5472-11.5804-4.2691-12.1315-9.7588-23.2796-16.0557-33.4934l.954-2.8026zm-99.4902 29.8801c7.1302 11.4676 14.2742 22.8372 21.6191 33.6976l-2.9173-1.591-.2658.776c-6.4807-9.7145-12.8129-19.7936-19.1054-29.9281z"/><path d="m2067.89 1236.84c.8608.2645 1.4883.817 1.9216 1.4031.9214 1.2375 1.5883 2.5653 1.8839 4.1363.294 1.5733.2577 3.3144-.028 5.4969-.588 4.4808-2.5904 10.2747-5.6449 16.2818-6.094 11.9978-16.0831 24.7523-24.0181 33.1084-6.742 7.0982-17.1274 15.3976-26.3634 19.8168-4.6206 2.2119-8.9417 3.4271-12.0772 3.376-1.5302-.026-2.6934-.219-3.611-.6988-.9178-.4798-1.567-1.2916-2.0705-2.1189-.1491-.2606-.2225-.4971-.2875-.7915-.07-.3272-.1359-.6989-.1472-1.2131-.019-1.0219.1132-2.4859.5979-4.5499l1.9373.7039c-.4409 1.878-.5781 3.1125-.5632 3.7922 0 .3377.051.5028.072.6033.3528.5755.6841.9512 1.248 1.2467.5814.3055 1.4373.5305 2.8243.5514 2.6959.044 6.8899-1.0728 11.3493-3.2066 8.9278-4.2703 19.2791-12.5014 25.8315-19.4005 7.799-8.2131 17.7009-20.9226 23.6098-32.5536 2.9487-5.8064 4.8075-11.4215 5.3193-15.3299.2653-2.0111.3008-3.445.093-4.544-.2047-1.097-.6037-1.9746-1.3746-3.0089-.2569-.3448-.4746-.5263-.9949-.6852-.5205-.1589-1.3465-.1912-2.731 0l-.2038-2.5156c1.5149-.2032 2.5663-.1599 3.4289.1045z"/><path d="m2221.63 1217.97-.5124.8503c-5.6557 8.9203-4.9467 25.2396-.1924 38.9727 2.3778 6.8665 5.7049 13.0421 9.6154 17.329 3.9106 4.2869 6.888 6.2255 11.5182 5.679 1.4917 3.3887-5.1139 3.9936-7.2589 3.6138-3.3596-.6365-6.4275-2.3378-9.156-4.899-5.0196-4.711-8.958-12.2222-11.9032-21.2621-2.4358-7.4795-3.2932-17.6253-2.4143-26.0477.4394-4.2134 1.5083-8.5197 3.2168-11.1054 2.0103-3.048 4.1902-5.1515 7.0868-3.1306zm-3.0837 1.8504c-1.0052-.1143-2.5454 1.2327-3.3402 2.7872-1.2011 2.3455-2.1608 6.073-2.5763 10.0441-.8289 7.9377.03 17.847 2.2884 24.7781 2.8551 8.7647 6.7548 15.7103 11.2588 20.2025 2.867 2.8622 7.9356 6.6379 11.1624 4.6906-8.3756-2.862-15.9484-14.597-19.0299-23.315-4.5902-13.2612-4.7252-28.9145.2368-39.1875z"/><path d="m2055.54 1207.84c.2609 2.1365.6077 5.6864-.047 8.134-1.3067 4.9016-4.1452 10.434-7.7628 16.1168-7.2353 11.3635-17.6744 23.4157-25.8079 31.64-7.1117 7.1911-17.3955 15.7341-26.8436 21.3922-4.7265 2.8281-9.2473 4.9567-13.1177 5.7738-3.8667.819-7.8311-.8375-9.9114-3.6009-.9706-1.2942-1.6191-2.9679-1.62-4.9144 0-1.9466.5546-4.1165 1.69-6.7806.2341-.5973.8889-.8531 1.3524-.5339 6.0713 4.0118 12.1793.6747 17.5972-2.5528 8.3829-4.9912 18.2892-13.2288 24.7171-19.7271 7.6377-7.7241 18.6237-20.2663 24.7948-30.141 3.089-4.9419 5.1942-9.5621 5.9296-12.5227.3428-1.3794.3569-2.9645.1245-4.3139-.2279-1.3453-.719-2.403-1.1119-2.7949-.6015-.6026-.2851-2.0842.4737-2.2158 3.3348-1.3396 8.6928.797 9.5427 7.0412zm-7.8488-4.6369c.2919.7184.7512 1.2543.8984 2.1161.295 1.7412.3033 3.6983-.1623 5.5645-.8765 3.5281-3.1239 8.2142-6.3048 13.3075-6.3705 10.1937-17.369 22.7235-25.1008 30.5415-6.559 6.6321-16.516 14.9567-25.1123 20.0756-5.191 3.0901-11.7219 6.4504-18.3162 2.8654-.7008 1.8758-1.1913 3.5491-1.1902 4.6516 0 1.3234.3662 2.2495 1.0871 3.2051 1.4017 1.865 4.0081 2.414 7.5777 1.6613 3.5691-.7548 7.9507-2.7337 12.5767-5.5049 9.2535-5.5383 19.4351-14.0663 26.4208-21.1305 8.041-8.1305 18.4471-20.1785 25.5243-31.2961 3.5384-5.5609 6.2598-10.914 7.4319-15.3082.5859-2.1982.7872-4.095.592-5.6852-.8997-3.9787-2.8891-5.1876-5.9221-5.0637z"/><path d="m2008.02 1101.86c4.4681 5.6831 7.6047 13.6708 10.5368 22.495 5.8607 17.6485 10.9669 38.4886 23.0816 50.396l1.1276 1.1103-1.2642.9351c-18.9329 14.582-35.5187 31.083-43.0581 56.1462l-.5194 1.6926-1.0697-1.286c-12.8549-7.9567-31.9042 4.0669-41.9705 13.0676-.5769 5.017-2.9955 9.6029-6.9485 11.755-6.0506 3.2896-13.0629-.2417-15.6626-7.9102-2.5961-7.6644.213-16.611 6.2615-19.9027.9163-.4967 1.8892-.5924 2.834-.7859-.062-.2813-.026-.6967-.2468-.9133-5.9489-3.1618-10.9716-6.9225-14.9104-11.5944l.8567-.8754c36.2422-34.3676 45.6329-85.1415 62.5636-123.231 6.8934-.4631 13.9143 3.293 18.3884 8.9007zm-16.5869-4.6401c-17.7874 41.0724-30.7424 92.1324-62.1946 119.799 4.2523 4.8476 7.6237 6.8312 9.971 7.9149 1.2598.5809 2.258.8835 3.1043 1.6946.8463.8112 1.33 2.2825 1.2325 3.9234l-.089 1.0814-.848.034c-1.104.088-2.2278.4404-3.3028 1.024-5.0778 2.7607-7.3724 10.1652-5.1919 16.5994 2.177 6.4322 8.0206 9.3418 13.0985 6.581 3.478-1.8939 5.6613-6.0105 5.9917-10.4848l.2756-.6042.019-.3233.378-.2899c8.3809-7.3421 26.046-23.3772 43.1912-13.3925 7.7942-24.6321 24.055-40.9656 42.3455-55.1932-12.0054-12.674-17.045-33.2707-22.689-50.2494-2.9009-8.7354-5.9309-16.4887-10.0659-21.7432-4.6066-5.6294-9.5778-6.8876-15.2188-6.3712z"/><path d="m2031.62 1173.38c-16.5467 14.2271-29.3591 29.6959-36.7581 48.2767-17.7697-.2519-31.4345 5.5789-40.8933 18.1072-.2792.2752-.6779.3389-1.002.1595-.6565-.3518-.7491-1.714-.1471-2.1986.03-.035.057-.065.089-.094 3.9029-9.2131 24.7312-20.7554 41.0578-18.8904.6984-5.5017 22.9198-42.4202 37.6532-45.3607z"/><path d="m1953.8 1237.62c.2026.1449.3615.3871.4416.6652.7094 2.0986 1.0177 4.2853.9665 6.4228l-2.0173.8056c.1679-2.0826-.07-4.2492-.7668-6.3088-.316-.9467.6621-2.0724 1.376-1.5848z"/><path d="m1944.72 1240.23c.7302.3673 1.3464 1.1326 1.6796 2.1158.6659 1.9642-.019 4.2407-1.5614 5.0848-1.5501.8439-3.3929-.038-4.0591-2.0044-.6661-1.9664.077-4.2757 1.6245-5.1195.7777-.4199 1.5876-.4484 2.3164-.077zm-.1114 3.1177c-.1958-.576-1.0049-1.0446-1.4577-.7966-.453.248-.7765 1.297-.5807 1.8731.1959.576 1.0237.9839 1.4783.7379.4545-.2481.7543-1.2383.5601-1.8144z"/><path d="m2114.01 1257.09 3.329 2.0171c1.1527 2.0146 1.8253 4.2944 1.9632 6.2196l-6.3707 3.2998-7.5326 3.5705.079-5.4955 2.5553-6.1607 2.8859-3.2748 3.0905-.1759zm-45.6423-18.3294 1.9769 3.3132-.019 6.5965s-.4164 1.5075-.5977 1.2245c-.183-.2807-2.9117-6.3993-2.9117-6.3993l-1.9609-5.4376 3.5084.7027z" fill-opacity=".2941"/><path d="m2076.74 1191.33c6.9808 14.4815 2.8251 33.054-4.313 46.0467-3.0981-2.7026-6.2902-4.0407-9.8427-.1648 6.684-14.225 13.107-29.2364 14.1557-45.8819zm74.2502 48.7939c5.8744 8.6482 6.9961 21.0651 5.8547 30.5439-3.0747-1.1816-4.2841-3.6414-8.0467-2.3205 2.3105-7.7236 3.1611-19.3879 2.192-28.2234zm-19.9158-7.0284c-.07 6.5688-1.1038 13.1997-3.002 19.5419-2.235 7.4562-6.0895 14.4104-11.7538 19.5882-.2277.2103-.4337.4347-.6492.6464-1.8816-2.6759-4.296-4.4317-8.0501-3.8625 1.6528-1.6963 3.4737-3.1332 5.5059-4.2424 4.739-2.5837 9.0498-7.592 12.1771-13.8399 2.6882-5.3598 4.6843-11.4075 5.7721-17.8317zm-99.4788-31.6567c-1.8534 14.7072-3.0199 30.2041-7.7291 43.9376-1.7726-1.5203-2.4714-5.1132-6.2163-2.8498 6.7446-12.2709 9.9877-27.1629 13.9454-41.0878zm18.9968 14.8919c-.6782 13.815-8.6055 24.3448-11.6365 37.1626-.2675 1.2931-.435 2.5957-.5869 3.9018-3.0756-2.4697-5.9805-.3582-8.7977 4.1587.8614-5.7146 2.5261-11.2055 5.3478-16.1624 5.321-9.6205 12.9823-17.3658 15.6733-29.0607zm44.4975 37.2653c-3.1022 10.3429-5.7096 16.6502-6.5838 22.9512-1.5583-2.0412-3.0444-4.2967-6.1553-1.4901 2.5669-8.7509 7.0103-16.4673 12.7391-21.4611zm66.3907 52.1033c-4.2942 7.513-5.8491 18.8085-8.0467 27.1706-2.2722-4.0733-2.5161-8.7453-7.9619-8.7908 4.5729-7.5672 8.7489-15.25 16.0086-18.3798zm-171.319-52.4517c2.7396 8.5242 3.4075 15.588 3.3158 21.7404-5.1394-.994-10.0927 1.0368-14.8278 6.5876 1.8787-9.861 5.9621-19.7035 11.512-28.328zm-32.7817 12.7589c5.7894 6.278 6.8891 13.327 6.3641 20.1572-3.0928-3.3061-5.5893-2.0697-7.7121 1.9837 2.0488-7.0716 2.6459-14.7281 1.348-22.1409zm-31.0966 14.7461c6.7819 7.7366 8.9298 14.8864 10.2602 21.1107-5.6267-.6445-7.6255 3.1341-9.0672 7.593-1.3607-3.6218-2.2125-7.2962-2.2286-10.8151-.028-6.5496-1.3162-11.601 1.0356-17.8886zm-9.7892 27.2549c.526 7.1894 2.7682 13.6905 5.8176 19.1072-3.4854 4.9722-2.1831 9.1301-1.4734 13.3918-7.7152-10.836-11.8019-23.8754-4.3442-32.499z" fill="none"/><g fill="#ececec" stroke="#000" stroke-width="1.13209" transform="matrix(1.76142 0 0 2.20421 -1867.63 -1565.97)"><path d="m2386.5 1276.27c-4.942-5.5003-14.0778-6.4748-20.4027-2.1762-6.3248 4.2985-7.4422 12.2413-2.4955 17.7384 4.9419 5.5003 14.0778 6.4747 20.4027 2.1761 6.3248-4.2985 7.4422-12.2413 2.4955-17.7383z"/><path d="m2379.89 1280.76c-2.0859-2.3215-5.9418-2.7328-8.6112-.9185-2.6694 1.8142-3.1411 5.1666-1.0532 7.4867 2.0859 2.3214 5.9416 2.7327 8.6112.9185 2.6694-1.8143 3.141-5.1667 1.0532-7.4867z"/></g></g></g></svg>