<?xml version="1.0" encoding="utf-8"?>
<!-- Generator: Adobe Illustrator 22.1.0, SVG Export Plug-In . SVG Version: 6.00 Build 0)  -->
<svg version="1.1" id="레이어_1" xmlns="http://www.w3.org/2000/svg" xmlns:xlink="http://www.w3.org/1999/xlink" x="0px"
	 y="0px" viewBox="0 0 1024 683" style="enable-background:new 0 0 1024 683;" xml:space="preserve">
<style type="text/css">
	.st0{fill:#FFFFFF;}
	.st1{fill:#2B89CD;}
	.st2{fill:#4B9161;}
	.st3{fill:#494844;}
	.st4{fill:#EBEDEC;stroke:#1E1D17;stroke-miterlimit:10;}
	.st5{fill:#B1BEB9;stroke:#1E1D17;stroke-miterlimit:10;}
	.st6{fill:#935441;stroke:#1E1D17;stroke-miterlimit:10;}
	.st7{fill:#5F6361;stroke:#1E1D17;stroke-miterlimit:10;}
	.st8{fill:#B1BEB9;stroke:#99261A;stroke-miterlimit:10;}
	.st9{fill:#B1BEB9;}
	.st10{fill:none;stroke:#1E1D17;stroke-miterlimit:10;}
	.st11{fill:#AA9F59;stroke:#1E1D17;stroke-miterlimit:10;}
	.st12{fill:#915759;}
	.st13{fill:#8B3623;stroke:#1E1D17;stroke-miterlimit:10;}
	.st14{fill:#6F6A30;stroke:#1E1D17;stroke-miterlimit:10;}
	.st15{fill:#915759;stroke:#1E1D17;stroke-miterlimit:10;}
	.st16{fill:#6E3E3C;}
	.st17{fill:#2B89CD;stroke:#1E1D17;stroke-miterlimit:10;}
	.st18{fill:#935441;}
	.st19{fill:#1E1D17;}
	.st20{fill:#4B9161;stroke:#1E1D17;stroke-miterlimit:10;}
	.st21{fill:#AA9F59;}
</style>
<g>
	<rect class="st0" width="1024" height="683"/>
	<rect class="st1" width="1024" height="226"/>
	<rect y="457" class="st2" width="1024" height="226"/>
	<path class="st3" d="M732.1,458.3L718.5,396l-27.4-139.4c1.4-0.6,2.5-1.5,3.2-2.7c2.3-3.9-0.5-9.6-6.2-12.8l-1.7-8.4
		c0.3-0.5,0.5-1.1,0.6-1.6c5.6,0.2,11.9-1.2,18.5-4.5c19.7-10.1,10.3-24.1,10.3-24.1s-2.3-6.1-5.6-4.7c0.1-2.5-0.8-8.3-10.5-9.9
		c0,0-1-15.1-17.6-10.1c0,0-5.2-10.1-20.7-3c0,0-19.7-7-20.7,5c-0.6,6.7-3,15.2,0.6,22.8c0,0,0,0,0,0c-0.4,0.4-0.6,0.9-0.7,1.5
		c-1.3-0.1-2.7-0.1-4.1-0.1c-4.5,0-13.4-0.4-24.5-1.1c-47-25.1-53.6-37.2-54.2-41.1c0,0,0,0,0,0c1.4-0.7,2.6-1.5,3.6-2.3
		c0,0,0,0,0,0c1.4,0.8,3.4,0.3,4.2-1.1c0.8-1.4,0.3-3.3-1.1-4.1c0,0,0,0,0,0c0,0,0-0.1,0-0.1c0-1.3-0.5-2.6-1.6-3.8
		c1.8-2.4,5.7-7.5,10.1-12.6c0,0,0.1,0.1,0.1,0.1c0.8,0.6,2.5-0.4,3.9-2.2c1.2-1.6,1.8-3.3,1.3-4c1.9-2,3.7-3.8,5.3-5.2
		c0,0-0.8-2.9-4.2-0.6c0.3-1.4,0.6-2.7,0.8-4c0.4,1.2,1.6,2.1,3,2.1c1.7,0,3.1-1.4,3.1-3s-1.4-3-3.1-3c-1.1,0-2.1,0.6-2.6,1.4
		c0.1-0.9,0.2-1.8,0.2-2.6c0.6,0.7,1.5,1.2,2.5,1.2c1.7,0,3.1-1.4,3.1-3c0-1.7-1.4-3-3.1-3c-1,0-2,0.5-2.5,1.3
		c0-0.6-0.1-1.2-0.2-1.8c0.5,0.3,1.1,0.5,1.7,0.5c1.7,0,3.1-1.4,3.1-3s-1.4-3-3.1-3c-0.3,0-0.7,0.1-1,0.2c0.6-0.5,1-1.3,1-2.2
		c0-1.7-1.4-3-3.1-3c-0.3,0-0.6,0.1-0.9,0.2c0.2-0.3,0.3-0.7,0.3-1.2c0-1.3-1.1-2.4-2.5-2.4c-0.9,0-1.7,0.5-2.1,1.1
		c-0.2-0.1-0.3-0.3-0.5-0.4c0.3-0.4,0.5-0.8,0.5-1.3c0-1.1-0.9-2-2.1-2c-0.8,0-1.5,0.4-1.8,1.1c-0.3-0.2-0.7-0.4-1-0.5
		c0.4-0.4,0.7-0.9,0.7-1.5c0-1.1-0.9-2-2.1-2c-1.1,0-2.1,0.9-2.1,2c0,0,0,0.1,0,0.1c-0.4-0.1-0.7-0.2-1.1-0.4c0.6-0.3,1.1-1,1.1-1.7
		c0-1.1-0.9-2-2.1-2c-1.1,0-2.1,0.9-2.1,2c0,0.4,0.1,0.7,0.3,1c-0.4-0.1-0.9-0.2-1.3-0.3c0.6-0.4,1-1,1-1.7c0-1.1-0.9-2-2.1-2
		c-1.1,0-2.1,0.9-2.1,2c0,0.5,0.2,0.9,0.5,1.3c-0.3,0-0.6-0.1-0.8-0.1c0.2-0.3,0.4-0.7,0.4-1.2c0-1.1-0.9-2-2.1-2
		c-1.1,0-2.1,0.9-2.1,2c0,0.3,0.1,0.6,0.2,0.8c-0.1,0-0.2,0-0.4,0c0.1-0.2,0.2-0.5,0.2-0.8c0-1.1-0.9-2-2.1-2c-1.1,0-2.1,0.9-2.1,2
		c0,0.2,0.1,0.5,0.1,0.7c-0.1,0-0.2,0-0.3,0c0.1-0.2,0.1-0.5,0.1-0.7c0-1.1-0.9-2-2.1-2s-2.1,0.9-2.1,2c0,0.3,0.1,0.6,0.2,0.8
		c-0.1,0-0.2,0-0.4,0c0.1-0.3,0.2-0.5,0.2-0.8c0-1.1-0.9-2-2.1-2s-2.1,0.9-2.1,2c0,0.4,0.1,0.8,0.3,1.1c-0.3,0-0.5,0.1-0.8,0.1
		c0.3-0.3,0.4-0.7,0.4-1.2c0-1.1-0.9-2-2.1-2c-0.7,0-1.3,0.4-1.7,0.9c-0.3-0.5-0.9-0.9-1.6-0.9c-0.7,0-1.4,0.4-1.7,1
		c-0.2-0.1-0.4-0.1-0.6-0.1c-0.4,0-0.8,0.1-1.1,0.4c0-0.1,0.1-0.3,0.1-0.5c0-1-0.8-1.8-1.9-1.8c-1,0-1.9,0.8-1.9,1.8
		c0,0.1,0,0.3,0,0.4c-2.4-1.2-3.4-2.6-2.2-5.2c0,0,2.6-6-2.2-4.1c0.2-0.8,0.3-1.6,0.3-2.4c0-0.2,0-0.5,0-0.7h1.5v-6H522
		c-1.5-1.9-3.5-3.2-5.9-3.9v0c4.9-3.1,7-8.5,4.7-12.5c-1.4-2.4-4.1-3.6-7.2-3.7c1,0.5,2,1.2,2.6,2.1c1.8,3,0,7.2-4,9.5
		c-4,2.2-8.7,1.6-10.5-1.4c-0.5-0.8-0.7-1.7-0.7-2.6c-1,2.4-1.1,4.9,0.1,7c1.1,1.8,3,3,5.2,3.4c-0.8,0.6-1.6,1.3-2.2,2.1h-4v6h1.7
		c0,0.2,0,0.5,0,0.7c0,0.9,0.1,1.8,0.3,2.6c-5.7-2.5-2.8,3.9-2.8,3.9c1.1,2.6,0.1,4-2.2,5.2c0-0.1,0-0.3,0-0.4c0-1-0.8-1.8-1.9-1.8
		c-1,0-1.9,0.8-1.9,1.8c0,0.2,0,0.3,0.1,0.5c-0.3-0.2-0.7-0.4-1.1-0.4c-0.2,0-0.4,0-0.6,0.1c-0.3-0.6-0.9-1-1.7-1
		c-0.7,0-1.3,0.4-1.6,0.9c-0.4-0.5-1-0.9-1.7-0.9c-1.1,0-2.1,0.9-2.1,2c0,0.4,0.2,0.9,0.4,1.2c-0.3,0-0.5-0.1-0.8-0.1
		c0.2-0.3,0.3-0.7,0.3-1.1c0-1.1-0.9-2-2.1-2s-2.1,0.9-2.1,2c0,0.3,0.1,0.6,0.2,0.8c-0.1,0-0.2,0-0.4,0c0.1-0.2,0.2-0.5,0.2-0.8
		c0-1.1-0.9-2-2.1-2s-2.1,0.9-2.1,2c0,0.2,0.1,0.5,0.1,0.7c-0.1,0-0.2,0-0.3,0c0.1-0.2,0.1-0.5,0.1-0.7c0-1.1-0.9-2-2.1-2
		s-2.1,0.9-2.1,2c0,0.3,0.1,0.6,0.2,0.8c-0.1,0-0.2,0-0.4,0c0.1-0.3,0.2-0.5,0.2-0.8c0-1.1-0.9-2-2.1-2s-2.1,0.9-2.1,2
		c0,0.4,0.1,0.8,0.4,1.1c-0.3,0-0.6,0.1-0.8,0.1c0.3-0.3,0.5-0.8,0.5-1.3c0-1.1-0.9-2-2.1-2c-1.1,0-2.1,0.9-2.1,2
		c0,0.7,0.4,1.4,1,1.7c-0.4,0.1-0.9,0.2-1.3,0.3c0.2-0.3,0.3-0.6,0.3-1c0-1.1-0.9-2-2.1-2s-2.1,0.9-2.1,2c0,0.8,0.4,1.4,1.1,1.7
		c-0.4,0.1-0.7,0.2-1.1,0.4c0,0,0-0.1,0-0.1c0-1.1-0.9-2-2.1-2s-2.1,0.9-2.1,2c0,0.6,0.3,1.2,0.7,1.5c-0.3,0.2-0.7,0.3-1,0.5
		c-0.4-0.6-1-1.1-1.8-1.1c-1.1,0-2.1,0.9-2.1,2c0,0.5,0.2,1,0.5,1.3c-0.2,0.1-0.3,0.3-0.5,0.4c-0.4-0.7-1.2-1.1-2.1-1.1
		c-1.4,0-2.5,1.1-2.5,2.4c0,0.4,0.1,0.8,0.3,1.2c-0.3-0.1-0.6-0.2-0.9-0.2c-1.7,0-3.1,1.4-3.1,3c0,0.9,0.4,1.6,1,2.2
		c-0.3-0.1-0.6-0.2-1-0.2c-1.7,0-3.1,1.4-3.1,3s1.4,3,3.1,3c0.6,0,1.2-0.2,1.7-0.5c-0.1,0.6-0.1,1.2-0.2,1.8
		c-0.6-0.8-1.5-1.3-2.5-1.3c-1.7,0-3.1,1.4-3.1,3c0,1.7,1.4,3,3.1,3c1,0,1.9-0.5,2.5-1.2c0,0.8,0.1,1.7,0.2,2.6
		c-0.5-0.9-1.5-1.4-2.6-1.4c-1.7,0-3.1,1.4-3.1,3s1.4,3,3.1,3c1.4,0,2.6-0.9,3-2.1c0.2,1.3,0.5,2.6,0.8,4c-3.5-2.3-4.2,0.6-4.2,0.6
		c1.6,1.4,3.4,3.2,5.3,5.2c-0.5,0.7,0,2.4,1.3,4c1.4,1.8,3.1,2.7,3.9,2.2c0.1,0,0.1-0.1,0.1-0.2c4.2,4.9,8,9.8,9.8,12.3
		c-1.2,1.3-1.8,2.7-1.8,4.1c0,0.1,0,0.3,0,0.4c-1.1,0.9-1.4,2.6-0.7,3.8c0.8,1.3,2.5,1.8,3.9,1.2c1,0.8,2.1,1.5,3.4,2.2c0,0,0,0,0,0
		c-0.7,3.9-7.1,16-53.7,41.1c-10.1,0.7-18.2,1.1-22.4,1.1c-1.4,0-2.7,0.1-4.1,0.1c-0.1-0.5-0.3-1-0.6-1.4c0,0-0.1-0.1-0.1-0.1
		c3.6-7.6,1.2-16.1,0.6-22.7c-1-12.1-20.7-5-20.7-5c-15.5-7-20.7,3-20.7,3c-16.6-5-17.6,10.1-17.6,10.1c-9.6,1.6-10.5,7.4-10.5,9.9
		c-3.3-1.4-5.6,4.7-5.6,4.7s-9.3,14.1,10.3,24.1c6.6,3.4,13,4.7,18.6,4.5c0,0.5,0.2,1,0.5,1.5l-1.7,8.6c-5.7,3.1-8.5,8.8-6.2,12.8
		c0.7,1.2,1.8,2.1,3.2,2.7L309.1,396l-13.6,62.3c-0.7,1.4-1.4,3.7-0.1,5.5c0.6,0.9,4.8,4.1,10.6,8.3c-1.7,14.4-6.6,53-6.6,53
		s-2.1,3,6.2,6c8.3,3,53.8,23.1,78.7,49.3c24.8,26.1,111.8,49.3,164.5,40.2c52.8-9,84.9-27.1,108.7-49.3
		c23.8-22.1,38.3-32.2,45.5-33.2c7.1-1,26-7.7,22-14.6c2.1,1,3.4,1.6,3.4,1.6s-4.9-38.6-6.6-53c5.7-4.2,10-7.5,10.6-8.3
		C733.5,462,732.9,459.8,732.1,458.3z M483.1,95.4c-0.1,0-0.1,0.1-0.2,0.1c-0.1,0-0.3,0-0.5,0c-1,0-1.9,0.6-2.3,1.4
		c-1.4,0.7-2.8,1.6-4.2,2.5c-5,3.4-7.2,8-8.1,12.3c-10.2-1.3-16.7,5.7-19.3,9.3C448.2,109.9,452.3,92.5,483.1,95.4z M534.9,92.3
		c0.1,0,0.3,0.1,0.4,0.1c0,0-0.1,0.1-0.1,0.1c-0.1,0-0.2-0.1-0.3-0.1C534.9,92.4,534.9,92.4,534.9,92.3z M576.5,125.2
		c-0.3-0.1-0.6-0.1-1,0.2c-1.2-14.3-10.5-16-18.2-14.8c-1-4-3.3-8.1-7.9-11.2c-1.4-0.9-2.8-1.8-4.2-2.5c-0.4-0.8-1.3-1.4-2.3-1.4
		c-0.2,0-0.3,0-0.5,0c-0.1,0-0.1-0.1-0.2-0.1C577.5,92.1,577.9,115.3,576.5,125.2z M536.9,91.9c0,0,0.1-0.1,0.1-0.1
		c0,0,0,0.1,0.1,0.1C537,91.9,537,91.9,536.9,91.9z M490.6,92.5c-0.1,0-0.2,0.1-0.3,0.1c0,0-0.1-0.1-0.1-0.1c0.1,0,0.3,0,0.4-0.1
		C490.5,92.4,490.5,92.4,490.6,92.5z M488.5,91.9c-0.1,0-0.1,0-0.2,0c0,0,0.1-0.1,0.1-0.1C488.5,91.8,488.5,91.8,488.5,91.9z
		 M692.1,252.7c-0.4,0.6-0.9,1.1-1.4,1.5l-2.1-10.8C692.1,246,693.7,249.9,692.1,252.7z M579.7,107.3c0-0.1-0.1-0.3-0.2-0.4
		c0.2,0,0.4-0.1,0.6-0.1C580,106.9,579.8,107.1,579.7,107.3z M531.5,91.1c0,0.1,0,0.1,0,0.2c0,0-0.1,0-0.1-0.1
		C531.3,91.2,531.4,91.1,531.5,91.1z M539.3,106.8c-6.9-3.7-8.6,6.9-13.4,2.2c-1.6-1.5-3.2-2.2-4.7-2.2V91
		C524.5,93.7,534.4,96.5,539.3,106.8z M504.7,90.5v16.2c-8-3.1-13.8-2.8-17.9-1.2C492.2,95.7,502.3,93.2,504.7,90.5z M494,91.2
		c0-0.1,0-0.1,0-0.2c0.1,0,0.1,0.1,0.2,0.1C494.1,91.2,494,91.2,494,91.2z M445.3,106.8c0.2,0.1,0.4,0.1,0.6,0.1
		c0,0.1-0.1,0.3-0.2,0.4C445.6,107.1,445.4,106.9,445.3,106.8z M335.5,252.7c-1.6-2.8,0-6.7,3.6-9.2l-2.1,10.8
		C336.3,253.8,335.9,253.3,335.5,252.7z"/>
	<g>
		<path class="st4" d="M306.5,519.5c0,0-2,3,6,6s52,23,76,49s108,49,159,40s82-27,105-49s37-32,44-33s26-8,21-15l-26-73l-20-116
			v-130l-59,20L494,173.6l-95.5,47.9l-36-18l-34,170l-14.4,126.6L306.5,519.5z"/>
		<path class="st5" d="M446.5,259.5c0,0-32.5,20.5-50.5-6.5c0,0-5,52,61,27L446.5,259.5z"/>
		<path class="st6" d="M475.9,312.8L475.9,312.8c-0.7,0.4-1.5,0.1-1.9-0.5l-34.4-62.1c-0.4-0.7-0.1-1.5,0.5-1.9l0,0
			c0.7-0.4,1.5-0.1,1.9,0.5l34.4,62.1C476.8,311.5,476.6,312.4,475.9,312.8z"/>
		<polygon class="st7" points="433.1,235.5 437.1,252 443.3,253.9 444.9,247.6 		"/>
		<polygon class="st8" points="423.5,271.4 425.7,275 429.8,274 427.1,277.3 429.3,280.9 425.4,279.3 422.7,282.5 423,278.2 
			419.2,276.6 423.2,275.6 		"/>
		<path class="st9" d="M580.8,259.5c0,0,32.5,20.5,50.5-6.5c0,0,5,52-61,27L580.8,259.5z"/>
		<path class="st1" d="M631.3,253.1c0-0.1,0-0.1,0-0.1c-18,27-50.5,6.5-50.5,6.5l-3.1,6.1l0,0C577.7,265.6,622.4,287.7,631.3,253.1z
			"/>
		<path class="st2" d="M572.8,275.1l-2.5,4.9c66,25,61-27,61-27c-0.1,0.2-0.2,0.3-0.3,0.5C628.6,296.8,572.8,275.1,572.8,275.1z"/>
		<path class="st10" d="M580.8,259.5c0,0,32.5,20.5,50.5-6.5c0,0,5,52-61,27L580.8,259.5z"/>
		<path class="st6" d="M551.4,312.8L551.4,312.8c0.7,0.4,1.5,0.1,1.9-0.5l34.4-62.1c0.4-0.7,0.1-1.5-0.5-1.9l0,0
			c-0.7-0.4-1.5-0.1-1.9,0.5l-34.4,62.1C550.5,311.5,550.7,312.4,551.4,312.8z"/>
		<polygon class="st7" points="594.2,235.5 590.2,252 584,253.9 582.4,247.6 		"/>
		<rect x="458" y="313" class="st2" width="109" height="172"/>
		<path class="st11" d="M503.5,443.5c0.1-0.1,0.3-0.2,0.4-0.3c0.9-0.8,1.1-2,0.5-2.6c-0.6-0.7-1.8-0.6-2.7,0.2
			c-0.1,0.1-0.2,0.2-0.3,0.4l-1.2-1.4c0.1-0.1,0.2-0.2,0.3-0.4c1.9-1.6,4.4-1.8,5.7-0.4c1.3,1.4,0.8,4-1.1,5.6
			c-0.1,0.1-0.3,0.2-0.4,0.3L503.5,443.5z"/>
		<path class="st11" d="M505.8,434.7c-1.9,1.6-2.3,4.2-1.1,5.6c1.3,1.4,3.8,1.3,5.7-0.4c1.9-1.6,2.3-4.2,1.1-5.6
			S507.6,433.1,505.8,434.7z M507,436.1c0.9-0.8,2.1-0.9,2.7-0.2c0.6,0.7,0.4,1.9-0.5,2.6c-0.9,0.8-2.1,0.9-2.7,0.2
			S506.1,436.9,507,436.1z"/>
		<path class="st11" d="M511,430.1c-1.9,1.6-2.3,4.2-1.1,5.6c1.3,1.4,3.8,1.3,5.7-0.4c1.9-1.6,2.3-4.2,1.1-5.6
			C515.4,428.3,512.9,428.4,511,430.1z M512.2,431.5c0.9-0.8,2.1-0.9,2.7-0.2c0.6,0.7,0.4,1.9-0.5,2.6c-0.9,0.8-2.1,0.9-2.7,0.2
			C511.1,433.4,511.3,432.2,512.2,431.5z"/>
		<rect x="461" y="313" class="st12" width="53" height="86"/>
		<path class="st11" d="M479.5,351.5v-6c0-0.1,0-0.2,0-0.3l4-8.7c-7-8-13,0-13,0l5,9.3v5.7c0,0.7,0.3,1.3,0.8,1.6l-1.3,3.2
			c2.6,3.6,4.9,0.1,4.9,0.1l-1.4-3.2C479.1,352.8,479.5,352.2,479.5,351.5z"/>
		<line class="st10" x1="473" y1="334.2" x2="476" y2="342"/>
		<line class="st10" x1="477" y1="332.9" x2="477.5" y2="341.5"/>
		<line class="st10" x1="481.4" y1="334.5" x2="478.5" y2="342.5"/>
		<line class="st10" x1="477" y1="357.9" x2="477.5" y2="354.5"/>
		<rect x="514" y="399" class="st12" width="53" height="86"/>
		<path class="st11" d="M481.1,443.5c-0.1-0.1-0.3-0.2-0.4-0.3c-0.9-0.8-1.1-2-0.5-2.6c0.6-0.7,1.8-0.6,2.7,0.2
			c0.1,0.1,0.2,0.2,0.3,0.4l1.2-1.4c-0.1-0.1-0.2-0.2-0.3-0.4c-1.9-1.6-4.4-1.8-5.7-0.4c-1.3,1.4-0.8,4,1.1,5.6
			c0.1,0.1,0.3,0.2,0.4,0.3L481.1,443.5z"/>
		<path class="st11" d="M473.1,434.3c-1.3,1.4-0.8,4,1.1,5.6c1.9,1.6,4.4,1.8,5.7,0.4c1.3-1.4,0.8-4-1.1-5.6
			C477,433.1,474.4,432.9,473.1,434.3z M478.1,438.7c-0.6,0.7-1.8,0.6-2.7-0.2c-0.9-0.8-1.1-2-0.5-2.6c0.6-0.6,1.8-0.6,2.7,0.2
			C478.5,436.9,478.7,438,478.1,438.7z"/>
		<path class="st11" d="M467.9,429.7c-1.3,1.4-0.8,4,1.1,5.6c1.9,1.6,4.4,1.8,5.7,0.4c1.3-1.4,0.8-4-1.1-5.6
			C471.7,428.4,469.2,428.3,467.9,429.7z M472.8,434.1c-0.6,0.7-1.8,0.6-2.7-0.2c-0.9-0.8-1.1-2-0.5-2.6s1.8-0.6,2.7,0.2
			C473.2,432.2,473.4,433.4,472.8,434.1z"/>
		<path class="st11" d="M548,428.8l-0.5-6.6h10l-0.5,6.6c1.8,1,3,2.9,3,5.1c0,3.2-2.6,5.8-5.8,5.8h-3.3c-3.2,0-5.8-2.6-5.8-5.8
			C545,431.7,546.2,429.8,548,428.8z"/>
		<line class="st10" x1="559.5" y1="431.6" x2="545.5" y2="431.6"/>
		<line class="st10" x1="559.3" y1="436.7" x2="545.7" y2="436.7"/>
		<path class="st13" d="M513.9,560.5c-43.8,0-81.6-38.3-99-93.5H409c17.8,59.8,58,101.5,104.9,101.5c46.9,0,87.1-41.7,104.8-101.5
			h-5.9C595.5,522.2,557.7,560.5,513.9,560.5z"/>
		<path class="st6" d="M410,432l-20,19c0,0,18,17,20,29s8,17,8,17l11-4c0,0-8.5-11.5-8.5-17.5s-4-35-4-35s11-4,19-12c0,0,5-2,2,8
			s1,18,6,19s9,2,10-5s-9-6-9-6s-2-3,1-8s7-20-6-18s-23-2-23-2L410,432z"/>
		<path class="st11" d="M617.3,432l20,19c0,0-18,17-20,29s-8,17-8,17l-11-4c0,0,8.5-11.5,8.5-17.5s4-35,4-35s-11-4-19-12
			c0,0-5-2-2,8s-1,18-6,19s-9,2-10-5s9-6,9-6s2-3-1-8s-7-20,6-18s23-2,23-2L617.3,432z"/>
		<path class="st11" d="M601.8,355.5c0,0-7-12-13-9s-16-18-16-18v13c0,0,12,19,24,22C596.8,363.5,605.8,364.5,601.8,355.5z"/>
		<path class="st6" d="M425.5,355.5c0,0,7-12,13-9s16-18,16-18v13c0,0-12,19-24,22C430.5,363.5,421.5,364.5,425.5,355.5z"/>
		<path class="st14" d="M481.5,151c0,0,25,69,90,52L517,153.5l-9-7C508,146.5,488,146.5,481.5,151z"/>
		<path class="st15" d="M556.5,156.5c0,0-5,11,53.5,43l1,10c0,0-63.6,15-106-61l28.3-1L556.5,156.5z"/>
		<path class="st10" d="M561,205.1c0,0-38-12.6-60-55.6"/>
		<line class="st10" x1="524.8" y1="181.6" x2="515.8" y2="194.9"/>
		<line class="st10" x1="529.5" y1="185.8" x2="524" y2="199.5"/>
		<line class="st10" x1="535.6" y1="190.8" x2="533" y2="203"/>
		<path class="st16" d="M584,202c0,0-31-16-37-31C547,171,541,198,584,202z"/>
		<path class="st14" d="M714.1,461.5c0,1,7,58,7,58s-46-21-43-26s29-32,29-32H714.1z"/>
		<line class="st10" x1="708.1" y1="466.5" x2="714.7" y2="516.5"/>
		<line class="st10" x1="701.1" y1="470.5" x2="704.7" y2="511.6"/>
		<line class="st10" x1="694.1" y1="478.5" x2="695" y2="506.5"/>
		<line class="st10" x1="686.1" y1="484.5" x2="686.1" y2="501.3"/>
		<path class="st4" d="M723.9,451.5c0,0,3,4,1,7s-46.8,35-46.8,35v-83L723.9,451.5z"/>
		<polygon class="st14" points="711.6,391 725.1,454.5 650.6,389 672.6,342 		"/>
		<polygon class="st15" points="678.6,218 711.6,391 667.6,355 665.6,211 		"/>
		<line class="st10" x1="713.5" y1="399.7" x2="665.1" y2="357.9"/>
		<line class="st10" x1="698.3" y1="386.6" x2="709.1" y2="440.5"/>
		<line class="st10" x1="688.1" y1="377.8" x2="692.1" y2="425.5"/>
		<line class="st10" x1="678.7" y1="369.7" x2="677.1" y2="412.5"/>
		<line class="st10" x1="671.7" y1="363.6" x2="663.8" y2="400.8"/>
		<polygon class="st4" points="651.1,388.5 691.6,364 668.6,209 663.6,214 		"/>
		<path class="st14" d="M674.2,251.2c5.5,3.1,11.8,2.4,14-1.5s-0.5-9.6-6-12.7c-5.5-3.1-11.8-2.4-14,1.5S668.7,248.1,674.2,251.2z
			 M675.1,249.7c-4.3-2.4-6.4-6.9-4.7-10c1.7-3.1,6.7-3.6,11-1.2c4.3,2.4,6.4,6.9,4.7,10C684.3,251.6,679.4,252.1,675.1,249.7z"/>
		<path class="st15" d="M705.6,202c0,0,2-3-2-7c0,0,2-9-10-11c0,0-1-15-17-10c0,0-5-10-20-3c0,0-19-7-20,5s-8,30,25,38
			S705.6,202,705.6,202z"/>
		<path class="st4" d="M511,191.5c0,0,102.6,8.5,121.6,8.5s31,9,24,24S576.5,242.3,511,191.5z"/>
		<path class="st4" d="M709.1,198.5c0,0-4-11-9,0s-39,2-38,14s18,20,37,10S709.1,198.5,709.1,198.5z"/>
		<path class="st14" d="M665.1,260.4v-41.9h3v41.7c2.5,2,8.4,8.9,6,27.3c0,0-7,4-14,0C660.1,287.5,656.6,265.7,665.1,260.4z"/>
		<path class="st10" d="M674.1,272.3c0,0-4.9-4.2-14.4,0"/>
		<path class="st10" d="M666.5,270.6c0,0,0.7,7.5,1.1,18.2"/>
		<line class="st10" x1="662.6" y1="270.6" x2="662.6" y2="289.2"/>
		<line class="st10" x1="659" y1="271.4" x2="659" y2="288.4"/>
		<line class="st10" x1="669.4" y1="271.4" x2="669.4" y2="288.2"/>
		<path class="st14" d="M638,203.5l23.4,16.2c-5.2,1.1-9.2,6.8-9.2,13.8c0,7.7,4.9,14,11,14c6.1,0,11-6.3,11-14c0-2-0.3-3.9-0.9-5.6
			l2.4,1.7c1.6,1.1,3.8,0.7,4.9-0.9s0.7-3.8-0.9-4.9l-37.6-26c-1.6-1.1-3.8-0.7-4.9,0.9C636,200.2,636.4,202.4,638,203.5z
			 M663.1,222.5c4.8,0,8.6,4.9,8.6,11s-3.9,11-8.6,11c-4.7,0-8.6-4.9-8.6-11S658.3,222.5,663.1,222.5z"/>
		<path class="st10" d="M637.7,197.9c0,0,34.4,26.6,42.4,31.6"/>
		<path class="st14" d="M666.7,215.7c0,0,6-6.3,8.3,5c2.4,11.3-2.4,8.8-7.1,6.3C663.1,224.5,657.1,218.3,666.7,215.7z"/>
		<path class="st10" d="M664,217.5c0,0,6.1,1.2,3,6.6"/>
		<path class="st16" d="M659.6,176c0,0-8,16,21,19C680.6,195,639.6,203,659.6,176z"/>
		<path class="st16" d="M684.6,186c0,0,5,4,4,9C688.6,195,695.6,189,684.6,186z"/>
		<line class="st10" x1="504.1" y1="155.2" x2="486.9" y2="162.3"/>
		<line class="st10" x1="507.3" y1="160.3" x2="491.5" y2="170"/>
		<line class="st10" x1="511" y1="165.8" x2="495.9" y2="176.1"/>
		<line class="st10" x1="515" y1="171" x2="501.4" y2="182.6"/>
		<line class="st10" x1="519.5" y1="176.1" x2="508.2" y2="189.2"/>
		<line class="st10" x1="476.5" y1="198.9" x2="475.8" y2="205.7"/>
		<path class="st14" d="M543,151c0,0-25,69-90,52l54.5-49.5l9-7C516.5,146.5,536.5,146.5,543,151z"/>
		<path class="st15" d="M468.5,156.5c0,0,5,11-53,43l-1,10c0,0,63,15,105-61l-28-1L468.5,156.5z"/>
		<path class="st10" d="M463.5,205.1c0,0,38-12.6,60-55.6"/>
		<line class="st10" x1="520.4" y1="155.2" x2="537.6" y2="162.3"/>
		<line class="st10" x1="517.3" y1="160.3" x2="533" y2="170"/>
		<line class="st10" x1="513.5" y1="165.8" x2="528.6" y2="176.1"/>
		<line class="st10" x1="509.5" y1="171" x2="523.1" y2="182.6"/>
		<line class="st10" x1="505" y1="176.1" x2="516.3" y2="189.2"/>
		<line class="st10" x1="499.7" y1="181.6" x2="508.8" y2="194.9"/>
		<line class="st10" x1="495" y1="185.8" x2="500.5" y2="199.5"/>
		<line class="st10" x1="488.9" y1="190.8" x2="491.5" y2="203"/>
		<line class="st10" x1="482.7" y1="195.1" x2="482.7" y2="205"/>
		<path class="st17" d="M514,306h-62c0,0,0,147,0,168s16,23,31,23s31,4,31,4s16-4,31-4s31-2,31-23s0-168,0-168H514z M559,334
			c0,2.8-2.2,5-5,5c2.8,0,5,2.2,5,5s-2.2,5-5,5c2.8,0,5,2.2,5,5s-2.2,5-5,5c2.8,0,5,2.2,5,5s-2.2,5-5,5c2.8,0,5,2.2,5,5s-2.2,5-5,5
			c2.8,0,5,2.2,5,5s-2.2,5-5,5c2.8,0,5,2.2,5,5s-2.2,5-5,5c2.8,0,5,2.2,5,5s-2.2,5-5,5c2.8,0,5,2.2,5,5s-2.2,5-5,5c2.8,0,5,2.2,5,5
			s-2.2,5-5,5c2.8,0,5,2.2,5,5s-2.2,5-5,5c2.8,0,5,2.2,5,5s-2.2,5-5,5c2.8,0,5,2.2,5,5s-2.2,5-5,5c2.8,0,5,2.2,5,5s-2.2,5-5,5
			c2.8,0,5,2.2,5,5s-2.2,5-5,5s-5-2.2-5-5c0,2.8-2.2,5-5,5s-5-2.2-5-5c0,2.8-2.2,5-5,5s-5-2.2-5-5c0,2.8-2.2,5-5,5s-5-2.2-5-5
			c0,2.8-2.2,5-5,5s-5-2.2-5-5c0,2.8-2.2,5-5,5s-5-2.2-5-5c0,2.8-2.2,5-5,5s-5-2.2-5-5c0,2.8-2.2,5-5,5s-5-2.2-5-5c0,2.8-2.2,5-5,5
			s-5-2.2-5-5s2.2-5,5-5c-2.8,0-5-2.2-5-5s2.2-5,5-5c-2.8,0-5-2.2-5-5s2.2-5,5-5c-2.8,0-5-2.2-5-5s2.2-5,5-5c-2.8,0-5-2.2-5-5
			s2.2-5,5-5c-2.8,0-5-2.2-5-5s2.2-5,5-5c-2.8,0-5-2.2-5-5s2.2-5,5-5c-2.8,0-5-2.2-5-5s2.2-5,5-5c-2.8,0-5-2.2-5-5s2.2-5,5-5
			c-2.8,0-5-2.2-5-5s2.2-5,5-5c-2.8,0-5-2.2-5-5s2.2-5,5-5c-2.8,0-5-2.2-5-5s2.2-5,5-5c-2.8,0-5-2.2-5-5s2.2-5,5-5c-2.8,0-5-2.2-5-5
			s2.2-5,5-5c-2.8,0-5-2.2-5-5s2.2-5,5-5c-2.8,0-5-2.2-5-5s2.2-5,5-5s5,2.2,5,5c0-2.8,2.2-5,5-5s5,2.2,5,5c0-2.8,2.2-5,5-5
			s5,2.2,5,5c0-2.8,2.2-5,5-5s5,2.2,5,5c0-2.8,2.2-5,5-5s5,2.2,5,5c0-2.8,2.2-5,5-5s5,2.2,5,5c0-2.8,2.2-5,5-5s5,2.2,5,5
			c0-2.8,2.2-5,5-5s5,2.2,5,5c0-2.8,2.2-5,5-5s5,2.2,5,5s-2.2,5-5,5C556.8,329,559,331.2,559,334z"/>
		<path class="st16" d="M487.7,147.3c0,0,3.8,18.6-20.8,39.5c0,0,26.9-8,32.4-42.5C499.3,144.3,494,143.6,487.7,147.3z"/>
		<g>
			<path class="st15" d="M560,155.7L560,155.7c1.4,0.8,3.3,0.3,4.1-1.1l0,0c0.8-1.4,0.3-3.3-1.1-4.1l0,0c-1.4-0.8-3.3-0.3-4.1,1.1
				l0,0C558.1,153,558.6,154.9,560,155.7z"/>
			<path class="st15" d="M465.5,155.7L465.5,155.7c-1.4,0.8-3.3,0.3-4.1-1.1l0,0c-0.8-1.4-0.3-3.3,1.1-4.1l0,0
				c1.4-0.8,3.3-0.3,4.1,1.1l0,0C467.4,153,466.9,154.9,465.5,155.7z"/>
			<path class="st15" d="M449.5,119.5c0,0,10-19,29-8c0,0,7-21,35-4c0,0,6-8,12-2s7-13,20,5c0,0,29-15,28,16l-16,24c0,0-52-21-89,0
				C468.5,150.5,451.5,129.5,449.5,119.5z"/>
			<circle class="st5" cx="490.7" cy="87.3" r="1.8"/>
			<path class="st14" d="M452,126c0,0-12-42,39-33l3-3c0,0-59-14-45,36H452z"/>
			<rect x="505" y="83" class="st14" width="16" height="57"/>
			<path class="st14" d="M503.1,78c0,0,5,5,2,9s-21.8,7-20.8,32l-13.9,3c0,0-5.9-17,6.9-26c12.9-9,25.3-7.5,22.3-14.5
				C499.6,81.5,496.6,74.5,503.1,78z"/>
			<path class="st14" d="M465,148c0,0-13-18-21-25c0,0,1-4,6,1c0,0,1-6,4,1c0,0,2-7,7-4s-3,4-1,10s8,2,8,7S472,145,465,148z"/>
			<path class="st14" d="M471.6,112c0,0-4.3,3-3.2,7c0,0-4.3,0-3.2,4s5.4,1,5.4,1s4.3,6,1.1,9s-3.2,9,5.4,8c0,0,15,0,16.1-6
				s-6.4-2-8.6-5c-2.1-3-1.1-8-1.1-8s4.3-1,3.2-4c-1.1-3-5.4-4-7.5-2C479.1,116,476.9,111,471.6,112z"/>
			<path class="st10" d="M476.5,140.5c2-5,1-13,1-13s3.8,8.3,11.4,11.6"/>
			<path class="st10" d="M479.3,115.9c0,0-1.8,1.6-1.8,9.6"/>
			<path class="st10" d="M468.2,119c0,0,3.3,0.5,8.3,6.5"/>
			<ellipse transform="matrix(0.9721 -0.2346 0.2346 0.9721 -16.1302 115.4061)" class="st5" cx="477" cy="125.5" rx="2.5" ry="4"/>
			<path class="st10" d="M453.3,132.6c0,0,5.4,8.4,14.8,6.7"/>
			<path class="st10" d="M450,123.8c0,0-0.5,2.7,1.5,7.7"/>
			<ellipse transform="matrix(0.7947 -0.607 0.607 0.7947 13.1507 301.1063)" class="st5" cx="451.7" cy="131.1" rx="1.7" ry="4"/>
			<circle class="st5" cx="475.5" cy="87.5" r="2"/>
			<circle class="st5" cx="479.5" cy="87.5" r="2"/>
			<circle class="st5" cx="483.5" cy="87.5" r="2"/>
			<circle class="st5" cx="487.5" cy="87.5" r="2"/>
			<circle class="st5" cx="471.5" cy="87.5" r="2"/>
			<circle class="st5" cx="467.5" cy="87.5" r="2"/>
			<circle class="st5" cx="463.5" cy="88.5" r="2"/>
			<circle class="st5" cx="459.5" cy="90.5" r="2"/>
			<circle class="st5" cx="455.5" cy="93.5" r="2"/>
			<circle class="st5" cx="451.5" cy="96.5" r="2.4"/>
			<circle class="st5" cx="448.5" cy="100.5" r="3"/>
			<circle class="st5" cx="445.5" cy="105.5" r="3"/>
			<circle class="st5" cx="444.5" cy="111.5" r="3"/>
			<circle class="st5" cx="444.5" cy="117.5" r="3"/>
			<circle class="st5" cx="495.7" cy="86.3" r="1.8"/>
			<circle class="st5" cx="492.9" cy="88.2" r="1.8"/>
			<circle class="st5" cx="489.5" cy="90.5" r="2"/>
			<circle class="st5" cx="486.5" cy="92.5" r="2"/>
			<circle class="st5" cx="483.5" cy="94.5" r="2.4"/>
			<circle class="st5" cx="480.5" cy="97.5" r="2.4"/>
			<circle class="st5" cx="477.5" cy="100.5" r="2.4"/>
			<circle class="st5" cx="475.5" cy="103.5" r="2.4"/>
			<circle class="st5" cx="473.5" cy="107.5" r="3"/>
			<circle class="st5" cx="513" cy="88" r="2.5"/>
			<circle class="st5" cx="513" cy="92" r="2.8"/>
			<circle class="st5" cx="513" cy="96" r="3"/>
			<circle class="st5" cx="513" cy="100" r="3.5"/>
			<circle class="st5" cx="513" cy="106" r="5.5"/>
			<circle class="st5" cx="534.8" cy="87.3" r="1.8"/>
			<path class="st14" d="M573.5,126c0,0,12-42-39-33l-3-3c0,0,59-14,45,36H573.5z"/>
			<path class="st14" d="M522.4,78c0,0-5,5-2,9s21.8,7,20.8,32l13.9,3c0,0,5.9-17-6.9-26c-12.9-9-25.3-7.5-22.3-14.5
				C525.9,81.5,528.9,74.5,522.4,78z"/>
			<path class="st14" d="M560.5,148c0,0,13-18,21-25c0,0-1-4-6,1c0,0-1-6-4,1c0,0-2-7-7-4s3,4,1,10s-8,2-8,7S553.5,145,560.5,148z"
				/>
			<path class="st14" d="M553.9,112c0,0,4.3,3,3.2,7c0,0,4.3,0,3.2,4c-1.1,4-5.4,1-5.4,1s-4.3,6-1.1,9c3.2,3,3.2,9-5.4,8
				c0,0-15,0-16.1-6c-1.1-6,6.4-2,8.6-5c2.1-3,1.1-8,1.1-8s-4.3-1-3.2-4c1.1-3,5.4-4,7.5-2C546.4,116,548.6,111,553.9,112z"/>
			<path class="st10" d="M549,140.5c-2-5-1-13-1-13s-3.8,8.3-11.4,11.6"/>
			<path class="st10" d="M546.2,115.9c0,0,1.8,1.6,1.8,9.6"/>
			<path class="st10" d="M557.3,119c0,0-3.3,0.5-8.3,6.5"/>
			
				<ellipse transform="matrix(0.2346 -0.9721 0.9721 0.2346 297.8514 629.2591)" class="st5" cx="548.5" cy="125.5" rx="4" ry="2.5"/>
			<path class="st10" d="M572.3,132.6c0,0-5.4,8.4-14.8,6.7"/>
			<path class="st10" d="M575.5,123.8c0,0,0.5,2.7-1.5,7.7"/>
			<ellipse transform="matrix(0.607 -0.7947 0.7947 0.607 121.2986 507.4845)" class="st5" cx="573.8" cy="131.1" rx="4" ry="1.7"/>
			<circle class="st5" cx="550" cy="87.5" r="2"/>
			<circle class="st5" cx="546" cy="87.5" r="2"/>
			<circle class="st5" cx="542" cy="87.5" r="2"/>
			<circle class="st5" cx="538" cy="87.5" r="2"/>
			<circle class="st5" cx="554" cy="87.5" r="2"/>
			<circle class="st5" cx="558" cy="87.5" r="2"/>
			<circle class="st5" cx="562" cy="88.5" r="2"/>
			<circle class="st5" cx="566" cy="90.5" r="2"/>
			<circle class="st5" cx="570" cy="93.5" r="2"/>
			<circle class="st5" cx="574" cy="96.5" r="2.4"/>
			<circle class="st5" cx="577" cy="100.5" r="3"/>
			<circle class="st5" cx="580" cy="105.5" r="3"/>
			<circle class="st5" cx="581" cy="111.5" r="3"/>
			<circle class="st5" cx="581" cy="117.5" r="3"/>
			<circle class="st5" cx="529.8" cy="86.3" r="1.8"/>
			<circle class="st5" cx="532.6" cy="88.2" r="1.8"/>
			<circle class="st5" cx="536" cy="90.5" r="2"/>
			<circle class="st5" cx="539" cy="92.5" r="2"/>
			<circle class="st5" cx="542" cy="94.5" r="2.4"/>
			<circle class="st5" cx="545" cy="97.5" r="2.4"/>
			<circle class="st5" cx="548" cy="100.5" r="2.4"/>
			<circle class="st5" cx="550" cy="103.5" r="2.4"/>
			<circle class="st5" cx="552" cy="107.5" r="3"/>
			<path class="st14" d="M529,130c-3-1-3,3-6,0s-1-10-1-10s8,2,6-3s-7-1.3-7-1.3c-2-5.3-5-1.7-5-1.7c-2-4-3-4-3-4s-1,0-3,4
				c0,0-3-3.7-5,1.7c0,0-5-3.7-7,1.3s6,3,6,3s2,7-1,10s-3-1-6,0s-2,12,16,10C531,142,532,131,529,130z"/>
			<path class="st10" d="M512.5,123.5c0,0-1,10-7.5,16.5"/>
			<path class="st10" d="M509.5,113.5c0,0,3,5,3,9"/>
			<path class="st10" d="M513.5,123.5c0,0,1,10,7.5,16.5"/>
			<path class="st10" d="M516.5,113.5c0,0-3,5-3,9"/>
			<ellipse class="st5" cx="513" cy="123" rx="3.5" ry="4.5"/>
			<path class="st14" d="M468.5,158c8.7-4.7,25.1-7.9,44-7.9c18.9,0,35.3,3.2,44,7.9c4.1-2.2,6.5-4.8,6.5-7.6
				c0-8.5-22.6-15.4-50.5-15.4c-27.9,0-50.5,6.9-50.5,15.4C462,153.2,464.4,155.8,468.5,158z"/>
			<path class="st15" d="M515.5,145.5h-5c-1.6,0-3-1.3-3-3l0,0c0-1.7,1.4-3,3-3h5c1.6,0,3,1.3,3,3l0,0
				C518.5,144.2,517.1,145.5,515.5,145.5z"/>
			<path class="st17" d="M486.1,147.8l-4,1c-1.6,0.4-3.2-0.6-3.6-2.2l0,0c-0.4-1.6,0.6-3.2,2.2-3.6l4-1c1.6-0.4,3.2,0.6,3.6,2.2l0,0
				C488.7,145.8,487.7,147.4,486.1,147.8z"/>
			
				<rect x="496.5" y="139.5" transform="matrix(0.9951 -9.879049e-02 9.879049e-02 0.9951 -11.6933 49.8476)" class="st5" width="2" height="7"/>
			
				<rect x="470.5" y="145.5" transform="matrix(0.9213 -0.3889 0.3889 0.9213 -20.8308 195.0934)" class="st5" width="2" height="7"/>
			<path class="st17" d="M539.4,147.8l4,1c1.6,0.4,3.2-0.6,3.6-2.2l0,0c0.4-1.6-0.6-3.2-2.2-3.6l-4-1c-1.6-0.4-3.2,0.6-3.6,2.2l0,0
				C536.8,145.8,537.8,147.4,539.4,147.8z"/>
			
				<rect x="524.5" y="142" transform="matrix(9.879049e-02 -0.9951 0.9951 9.879049e-02 333.527 654.2906)" class="st5" width="7" height="2"/>
			<rect x="550.5" y="148" transform="matrix(0.3889 -0.9213 0.9213 0.3889 201.2915 601.4632)" class="st5" width="7" height="2"/>
			<circle class="st17" cx="513" cy="75" r="11"/>
			<path class="st14" d="M516,68.5v-4.1c4.7-3.1,6.8-8.5,4.5-12.4c-1.4-2.4-4-3.6-7-3.7c1,0.5,1.9,1.2,2.5,2.1c1.7,3,0,7.2-3.9,9.4
				c-3.9,2.2-8.4,1.6-10.1-1.4c-0.5-0.8-0.7-1.7-0.7-2.6c-1,2.4-1.1,4.9,0.1,7c1.6,2.7,4.9,4,8.5,3.6v1.9h-9.5v6h25v-6H516V68.5z"/>
		</g>
		<path class="st16" d="M414,209c0,0,22-12,35-23C449,186,453,209,414,209z"/>
		<path class="st14" d="M313.5,461.5c0,1-7,58-7,58s46-21,43-26s-29-32-29-32H313.5z"/>
		<line class="st10" x1="319.5" y1="466.5" x2="312.9" y2="516.5"/>
		<line class="st10" x1="326.5" y1="470.5" x2="322.9" y2="511.6"/>
		<line class="st10" x1="333.5" y1="478.5" x2="332.6" y2="506.5"/>
		<line class="st10" x1="341.5" y1="484.5" x2="341.5" y2="501.3"/>
		<path class="st4" d="M303.7,451.5c0,0-3,4-1,7s46.8,35,46.8,35v-83L303.7,451.5z"/>
		<polygon class="st14" points="316,391 302.5,454.5 377,389 355,342 		"/>
		<polygon class="st15" points="349,218 316,391 360,355 362,211 		"/>
		<line class="st10" x1="314.1" y1="399.7" x2="362.5" y2="357.9"/>
		<line class="st10" x1="329.3" y1="386.6" x2="318.5" y2="440.5"/>
		<line class="st10" x1="339.5" y1="377.8" x2="335.5" y2="425.5"/>
		<line class="st10" x1="348.9" y1="369.7" x2="350.5" y2="412.5"/>
		<line class="st10" x1="355.9" y1="363.6" x2="363.8" y2="400.8"/>
		<polygon class="st4" points="376.5,388.5 336,364 359,209 364,214 		"/>
		<path class="st14" d="M359.4,238.5c-2.2-3.9-8.5-4.6-14-1.5s-8.2,8.8-6,12.7c2.2,3.9,8.5,4.6,14,1.5S361.6,242.4,359.4,238.5z
			 M341.5,248.5c-1.7-3.1,0.4-7.6,4.7-10c4.3-2.4,9.2-1.9,11,1.2c1.7,3.1-0.4,7.6-4.7,10S343.3,251.6,341.5,248.5z"/>
		<path class="st15" d="M322,202c0,0-2-3,2-7c0,0-2-9,10-11c0,0,1-15,17-10c0,0,5-10,20-3c0,0,19-7,20,5s8,30-25,38S322,202,322,202
			z"/>
		<path class="st4" d="M514.5,190.5c0,0-100.5,9.5-119.5,9.5s-31,9-24,24S449,241.3,514.5,190.5z"/>
		<path class="st4" d="M318.5,198.5c0,0,4-11,9,0s39,2,38,14s-18,20-37,10S318.5,198.5,318.5,198.5z"/>
		<path class="st14" d="M362.5,260.4v-41.9h-3v41.7c-2.5,2-8.4,8.9-6,27.3c0,0,7,4,14,0C367.5,287.5,371,265.7,362.5,260.4z"/>
		<path class="st10" d="M353.5,272.3c0,0,4.9-4.2,14.4,0"/>
		<path class="st10" d="M358,270.6c0,0-0.7,7.5-1.1,18.2"/>
		<line class="st10" x1="361.9" y1="270.6" x2="361.9" y2="289.2"/>
		<line class="st10" x1="365.5" y1="271.4" x2="365.5" y2="288.4"/>
		<line class="st10" x1="355.1" y1="271.4" x2="355.1" y2="288.2"/>
		<path class="st14" d="M390.5,198.7c-1.1-1.6-3.3-2-4.9-0.9l-37.6,26c-1.6,1.1-2,3.3-0.9,4.9s3.3,2,4.9,0.9l2.4-1.7
			c-0.6,1.7-0.9,3.6-0.9,5.6c0,7.7,4.9,14,11,14s11-6.3,11-14c0-7-4-12.7-9.2-13.8l23.4-16.2C391.2,202.4,391.6,200.2,390.5,198.7z
			 M373.1,233.5c0,6.1-3.9,11-8.6,11s-8.6-4.9-8.6-11s3.9-11,8.6-11S373.1,227.4,373.1,233.5z"/>
		<path class="st10" d="M389.9,197.9c0,0-34.4,26.6-42.4,31.6"/>
		<path class="st14" d="M360.9,215.7c0,0-6-6.3-8.3,5c-2.4,11.3,2.4,8.8,7.1,6.3C364.5,224.5,370.5,218.3,360.9,215.7z"/>
		<path class="st10" d="M360.5,217.5c0,0-6.1,1.2-3,6.6"/>
		<path class="st16" d="M368,176c0,0,8,16-21,19C347,195,388,203,368,176z"/>
		<path class="st16" d="M343,186c0,0-5,4-4,9C339,195,332,189,343,186z"/>
		<path class="st5" d="M428.5,320.5c0,0-4,7,0,15s24.4,41.1-13.8,78l-2.2-8l7-70l2-15l7.1-2.6L428.5,320.5z"/>
		<path class="st18" d="M410,315c0,0-3-3-7-3c0,0,2,5,1,9c0,0-7,9,7,25l12-7c0,0-3-7,1-12s10-6,10-10s1-7-3-6s-5.5,3.5-10.5,3.5
			S415.5,310.5,410,315z"/>
		<path class="st9" d="M430,314c-2,2-7,1-7,3s5,0,7-1c1.1-0.6,2.5-1.4,4.1-1.4c0-0.7,0-1.3,0-1.8C433,312.7,431.3,312.7,430,314z"/>
		<path class="st9" d="M407,315c0,0,2,5,1,8s2,5,3,3S411,316,407,315z"/>
		<path class="st10" d="M410,315c0,0-3-3-7-3c0,0,2,5,1,9c0,0-7,9,7,25l12-7c0,0-3-7,1-12s10-6,10-10s1-7-3-6s-5.5,3.5-10.5,3.5
			S415.5,310.5,410,315z"/>
		<path class="st9" d="M417.5,316c0,0-2.3,1.8-1.2,6.2C417.5,326.6,423.2,316.9,417.5,316z"/>
		<path class="st19" d="M418,317c0,0,1,0,1,1.3s-1,2.7-1,2.7S417,318.3,418,317z"/>
		<path class="st9" d="M415,364c0,0-5,10-6,18s-16,35-15,40S413,391,415,364z"/>
		<path class="st5" d="M386.5,492.5c0,0,37,0,49-8s24,16,12,30l-8,5c0,0,7-24-4-20s-42,18-51,7s-13,0-7,5c0,0-14-8-12-19
			S383.5,472.5,386.5,492.5z"/>
		<path class="st5" d="M640.8,492.5c0,0-37,0-49-8s-24,16-12,30l8,5c0,0-7-24,4-20s42,18,51,7s13,0,7,5c0,0,14-8,12-19
			S643.8,472.5,640.8,492.5z"/>
		<path class="st5" d="M598.8,320.5c0,0,4,7,0,15s-24.4,41.1,13.8,78l2.2-8l-7-70l-2-15l-7.1-2.6L598.8,320.5z"/>
		<path class="st11" d="M617.3,315c0,0,1.7-1,5.7-1c0,0-0.7,3,0.3,7c0,0,7,9-7,25l-12-7c0,0,3-7-1-12s-10-6-10-10s0.7-6,4.7-5
			s2.5,1.5,7.5,1.5S611.8,310.5,617.3,315z"/>
		<path class="st9" d="M606.9,316.2c0,0,2.4-1.9,6.3,0.5C617.1,319.1,606,322.5,606.9,316.2z"/>
		<path class="st19" d="M607.8,316.9c0,0-0.3,1,1,1.3c1.3,0.4,2.8-0.2,2.8-0.2S609.3,316.3,607.8,316.9z"/>
		<path class="st19" d="M596,312c0,0-3,0-2,2.3S599,312.8,596,312z"/>
		<path class="st9" d="M620.7,315.9c0,0-3,2.3-1.1,6.1C621.5,325.8,621.6,316.9,620.7,315.9z"/>
		<rect x="511.8" y="558.5" class="st14" width="5.1" height="20"/>
		<polygon class="st14" points="478.8,562.2 474.2,560 479.1,550.4 483.6,552.7 		"/>
		<polygon class="st14" points="549,562.2 553.5,560 548.7,550.4 544.1,552.7 		"/>
		<rect x="511.5" y="511.5" class="st14" width="5" height="20"/>
		<path class="st14" d="M527.3,590l5.3-4.9l-11.4,2.1c-0.8-1.8-2.2-3.2-4.1-4l2.1-11.2l-5,5.2l-5-5.2l2.1,11.2
			c-1.8,0.7-3.3,2.2-4.1,4l-11.4-2.1l5.3,4.9l-5.3,4.9l11.4-2.1c0.8,1.8,2.2,3.2,4.1,4l-2.1,11.2l5-5.2l5,5.2l-2.1-11.2
			c1.8-0.7,3.3-2.2,4.1-4l11.4,2.1L527.3,590z"/>
		<path class="st20" d="M522.5,590l4-2.1l-7.4,0.8c-0.5-1.6-1.8-2.9-3.5-3.4l0.8-7.3l-2.1,4l-2.1-4l0.8,7.3c-1.7,0.5-3,1.8-3.5,3.4
			l-7.4-0.8l4,2.1l-4,2.1l7.4-0.8c0.5,1.6,1.8,2.9,3.5,3.4l-0.8,7.3l2.1-4l2.1,4l-0.8-7.3c1.7-0.5,3-1.8,3.5-3.4l7.4,0.8L522.5,590z
			"/>
		<ellipse class="st5" cx="514.4" cy="590" rx="3.3" ry="3.3"/>
		<polygon class="st5" points="518.3,588.1 515.3,588.1 515.3,584.2 513.5,584.2 513.5,588.1 510.5,588.1 510.5,589.9 513.5,589.9 
			513.5,597.3 515.3,597.3 515.3,589.9 518.3,589.9 		"/>
		<path class="st15" d="M513.9,588.7c0,0-2.6-1-1.3,1.2c0,0,0.2,1.4,3.4,0.1C516,590,517.4,587.9,513.9,588.7z"/>
		<ellipse class="st20" cx="514" cy="539.5" rx="14" ry="16.2"/>
		<ellipse class="st5" cx="514" cy="539.5" rx="9.8" ry="11.3"/>
		<polygon class="st14" points="514,545.4 515.5,541.4 520.3,541.4 516.4,539 517.9,535 514,537.4 510.1,535 511.6,539 507.7,541.4 
			512.5,541.4 		"/>
		<polygon class="st14" points="514,533.9 515.2,537.7 519.1,537.7 516,540.1 517.2,544 514,541.6 510.8,544 512,540.1 508.9,537.7 
			512.8,537.7 		"/>
		<path class="st5" d="M440.2,515.7c0,0-4,12.3,4.2,13.1c8.2,0.8,68.3-23.8,139.7,0c0,0,6.4,4.2,4.9-6.5c0,0-1.5-3.7-2.5-7.7
			c0,0-62-21-146,0L440.2,515.7z"/>
		<g>
			<path class="st19" d="M450.2,524.9l-1.6-7l5.2-1.2l0.2,0.8l-4.2,1l0.5,2.1l4-0.9l0.2,0.8l-4,0.9l0.5,2.4l4.4-1l0.2,0.8
				L450.2,524.9z"/>
			<path class="st19" d="M456.1,523.5l1.9-4.3l-3.2-2.8l1.1-0.3l1.7,1.5c0.4,0.3,0.6,0.5,0.8,0.7c0.1-0.3,0.2-0.6,0.4-0.9l1-2.2
				l1-0.2l-1.7,3.9l3.6,3.1l-1.2,0.3l-2.4-2.1c-0.1-0.1-0.3-0.2-0.4-0.4c-0.1,0.3-0.2,0.5-0.2,0.6l-1.2,2.8L456.1,523.5z"/>
			<path class="st19" d="M463.5,521.8l-1.5-7l2.7-0.6c0.6-0.1,1.1-0.2,1.4-0.2c0.4,0,0.8,0.2,1.1,0.5c0.3,0.3,0.5,0.7,0.6,1.1
				c0.1,0.6,0,1.2-0.3,1.7s-1,0.8-2,1l-1.8,0.4l0.6,2.8L463.5,521.8z M463.6,517.9l1.9-0.4c0.6-0.1,1-0.3,1.2-0.6
				c0.2-0.3,0.3-0.6,0.2-1c-0.1-0.3-0.2-0.5-0.4-0.7c-0.2-0.2-0.4-0.3-0.6-0.3c-0.2,0-0.6,0-1,0.1l-1.8,0.4L463.6,517.9z"/>
			<path class="st19" d="M470.2,520.4l-1.3-7l5.2-1l0.2,0.8L470,514l0.4,2.1l4-0.8l0.2,0.8l-4,0.8l0.5,2.4l4.4-0.8l0.2,0.8
				L470.2,520.4z"/>
			<path class="st19" d="M481.5,515.8l1,0.1c-0.1,0.8-0.4,1.5-0.8,2c-0.5,0.5-1.1,0.8-1.8,0.9s-1.3,0.1-1.8-0.1
				c-0.5-0.2-1-0.5-1.4-1.1c-0.4-0.5-0.7-1.2-0.8-2s-0.1-1.5,0.1-2c0.2-0.6,0.6-1.1,1-1.4c0.5-0.4,1-0.6,1.7-0.7
				c0.7-0.1,1.3,0,1.9,0.2c0.6,0.3,1,0.7,1.3,1.4l-0.9,0.4c-0.5-0.9-1.2-1.3-2.2-1.1c-0.5,0.1-0.9,0.2-1.2,0.5s-0.6,0.6-0.7,1.1
				c-0.1,0.5-0.2,1-0.1,1.6c0.2,1,0.5,1.7,1,2.1c0.5,0.4,1.1,0.6,1.8,0.4c0.5-0.1,0.9-0.3,1.3-0.7
				C481.3,517,481.5,516.4,481.5,515.8z"/>
			<path class="st19" d="M485.9,517.7l-0.9-6.3l-2.4,0.3l-0.1-0.8l5.8-0.8l0.1,0.8l-2.4,0.3l0.9,6.3L485.9,517.7z"/>
			<path class="st19" d="M488.7,517.3l2-7.4l1-0.1l3.8,6.8l-1.1,0.1l-1.1-2.1l-3.1,0.4l-0.5,2.2L488.7,517.3z M490.4,514.1l2.5-0.3
				l-1-1.9c-0.3-0.6-0.5-1-0.7-1.4c0,0.5-0.1,0.9-0.2,1.4L490.4,514.1z"/>
			<path class="st19" d="M504.1,515.8l-0.4-7.1l2.5-0.1c0.6,0,1.1,0,1.4,0.1c0.4,0.1,0.8,0.3,1.1,0.6c0.3,0.3,0.6,0.7,0.8,1.1
				c0.2,0.5,0.3,1,0.3,1.6c0,0.8-0.1,1.5-0.3,2.1c-0.3,0.6-0.6,1-1.1,1.3c-0.5,0.3-1.1,0.4-1.8,0.4H504.1z M505,514.9l1.6-0.1
				c0.6,0,1.1-0.1,1.4-0.3c0.3-0.2,0.6-0.5,0.7-0.8c0.2-0.5,0.3-1.1,0.3-1.8c0-0.7-0.2-1.3-0.5-1.7c-0.3-0.4-0.6-0.7-1-0.8
				c-0.3-0.1-0.7-0.1-1.2-0.1l-1.5,0.1L505,514.9z"/>
			<path class="st19" d="M516.1,508.2h1l0.1,4.1c0,0.7-0.1,1.3-0.2,1.7c-0.2,0.4-0.5,0.8-0.9,1.1c-0.4,0.3-1,0.4-1.7,0.4
				c-1,0-1.7-0.2-2.2-0.6c-0.5-0.5-0.7-1.3-0.8-2.4l-0.1-4.1h1l0.1,4.1c0,0.6,0.1,1.1,0.2,1.4c0.1,0.3,0.3,0.5,0.6,0.6
				c0.3,0.1,0.6,0.2,1.1,0.2c0.7,0,1.2-0.2,1.5-0.5c0.3-0.3,0.4-0.9,0.4-1.8L516.1,508.2z"/>
			<path class="st19" d="M518.7,515.3l0.1-7.2h1.5l1.7,5.1l0.3,1.1c0.1-0.3,0.2-0.6,0.4-1.1l1.8-5h1.3l-0.1,7.2h-0.9l0.1-6l-2.2,6
				h-0.9l-2-6.1l-0.1,6.1L518.7,515.3z"/>
			<path class="st19" d="M535.7,516l0.7-7.1l3.2,0.3c0.7,0.1,1.2,0.2,1.5,0.3c0.3,0.2,0.6,0.4,0.7,0.7c0.2,0.3,0.2,0.7,0.2,1.1
				c0,0.5-0.3,1-0.6,1.3c-0.4,0.3-0.9,0.5-1.6,0.5c0.3,0.2,0.5,0.3,0.6,0.5c0.3,0.3,0.5,0.6,0.7,1l1.1,2.1l-1.2-0.1l-0.8-1.6
				c-0.3-0.6-0.6-1-0.7-1.3c-0.2-0.2-0.3-0.4-0.5-0.5c-0.2-0.1-0.4-0.1-0.7-0.2l-1.1-0.1l-0.3,3.2L535.7,516z M537,512.1l2.1,0.2
				c0.5,0,0.8,0,1,0c0.2,0,0.4-0.2,0.6-0.4c0.2-0.2,0.2-0.4,0.3-0.6c0-0.4-0.1-0.7-0.3-0.9c-0.2-0.2-0.6-0.4-1.1-0.4l-2.3-0.2
				L537,512.1z"/>
			<path class="st19" d="M543,516.7l0.9-7.1l5.3,0.7l-0.1,0.8l-4.3-0.5l-0.3,2.2l4,0.5l-0.1,0.8l-4-0.5l-0.3,2.4l4.5,0.6l-0.1,0.8
				L543,516.7z"/>
			<path class="st19" d="M550,514c0.2-1.2,0.7-2.1,1.4-2.6c0.8-0.5,1.6-0.7,2.6-0.6c0.6,0.1,1.2,0.3,1.7,0.7c0.5,0.4,0.8,0.9,1,1.5
				s0.3,1.3,0.1,2c-0.2,1-0.6,1.9-1.3,2.4c-0.8,0.6-1.7,0.8-2.8,0.7c-1.1-0.2-1.9-0.7-2.4-1.5C550,515.9,549.9,515,550,514z
				 M551,514.2c-0.1,0.9,0,1.6,0.4,2.1c0.4,0.6,0.9,0.9,1.6,1c0.7,0.1,1.3,0,1.9-0.4c0.6-0.4,0.9-1.1,1.1-2c0.1-0.6,0.1-1.2-0.1-1.7
				c-0.1-0.4-0.4-0.7-0.7-1c-0.3-0.3-0.7-0.5-1.2-0.5c-0.7-0.1-1.4,0-1.9,0.4C551.5,512.5,551.2,513.2,551,514.2z"/>
			<path class="st19" d="M557.7,518.9l1.3-7l1,0.2l-1.3,7L557.7,518.9z"/>
			<path class="st19" d="M560.3,519.4l1.5-7l5.2,1.1l-0.2,0.8l-4.2-0.9l-0.5,2.1l4,0.9l-0.2,0.8l-4-0.9l-0.5,2.4l4.4,0.9l-0.2,0.8
				L560.3,519.4z"/>
			<path class="st19" d="M566.9,520.8l1.7-6.9l3.2,0.8c0.7,0.2,1.1,0.4,1.4,0.6s0.5,0.5,0.6,0.8c0.1,0.4,0.1,0.7,0,1.1
				c-0.1,0.5-0.4,0.9-0.8,1.1c-0.4,0.2-1,0.3-1.6,0.2c0.2,0.2,0.4,0.4,0.5,0.5c0.2,0.3,0.4,0.7,0.5,1.1l0.8,2.2L572,522l-0.6-1.7
				c-0.2-0.7-0.4-1.1-0.5-1.4c-0.1-0.3-0.3-0.4-0.4-0.5c-0.1-0.1-0.4-0.2-0.7-0.3l-1.1-0.3l-0.8,3.1L566.9,520.8z M568.8,517.2
				l2,0.5c0.4,0.1,0.8,0.2,1,0.1c0.2-0.1,0.5-0.1,0.6-0.3c0.2-0.1,0.3-0.3,0.4-0.6c0.1-0.4,0-0.7-0.2-0.9c-0.2-0.3-0.6-0.5-1.1-0.6
				l-2.2-0.6L568.8,517.2z"/>
			<path class="st19" d="M574.7,519.2c0.3-1.2,0.9-2,1.8-2.4c0.8-0.4,1.7-0.5,2.7-0.2c0.6,0.2,1.1,0.5,1.6,0.9
				c0.4,0.4,0.7,1,0.9,1.6c0.1,0.6,0.1,1.3-0.1,2c-0.3,1-0.8,1.8-1.6,2.2c-0.8,0.5-1.8,0.6-2.8,0.3c-1-0.3-1.8-0.9-2.2-1.8
				C574.5,521,574.5,520.1,574.7,519.2z M575.7,519.5c-0.2,0.8-0.2,1.6,0.1,2.2c0.3,0.6,0.8,1,1.5,1.2c0.7,0.2,1.3,0.1,1.9-0.2
				s1-1,1.3-1.9c0.2-0.6,0.2-1.2,0.1-1.7c-0.1-0.4-0.3-0.8-0.6-1.1c-0.3-0.3-0.7-0.5-1.1-0.7c-0.7-0.2-1.4-0.1-1.9,0.2
				C576.4,517.9,576,518.5,575.7,519.5z"/>
		</g>
		<path class="st5" d="M524.5,353.5l-1,7l-6,8c0,0,20,9,31,11l7-17C555.5,362.5,537.5,353.5,524.5,353.5z"/>
		<line class="st10" x1="539.7" y1="356.3" x2="532" y2="374.5"/>
		<polygon class="st5" points="540.8,368.7 533.5,362.9 526.9,359.5 531.7,365.2 538.9,371.1 		"/>
		<rect x="542" y="368.4" transform="matrix(0.627 -0.779 0.779 0.627 -87.5525 561.894)" class="st14" width="2" height="8"/>
		<rect x="535.9" y="368.9" transform="matrix(0.627 -0.779 0.779 0.627 -86.77 558.5628)" class="st14" width="8" height="2"/>
		<path class="st11" d="M544,453.8l0.5-6.6h-10l0.5,6.6c-1.8,1-3,2.9-3,5.1c0,3.2,2.6,5.8,5.8,5.8h3.3c3.2,0,5.8-2.6,5.8-5.8
			C547,456.7,545.8,454.8,544,453.8z"/>
		<line class="st10" x1="532.5" y1="456.6" x2="546.5" y2="456.6"/>
		<line class="st10" x1="532.7" y1="461.7" x2="546.3" y2="461.7"/>
		<path class="st11" d="M531,428.8l0.5-6.6h-10l0.5,6.6c-1.8,1-3,2.9-3,5.1c0,3.2,2.6,5.8,5.8,5.8h3.3c3.2,0,5.8-2.6,5.8-5.8
			C534,431.7,532.8,429.8,531,428.8z"/>
		<line class="st10" x1="519.5" y1="431.6" x2="533.5" y2="431.6"/>
		<line class="st10" x1="519.7" y1="436.7" x2="533.3" y2="436.7"/>
		<g>
			<path class="st1" d="M514,379.9h-18c0,0,0,35.6,0,40.6c0,5.1,4.6,5.6,9,5.6s9,1,9,1s4.6-1,9-1s9-0.5,9-5.6s0-40.6,0-40.6H514z"/>
			<path class="st21" d="M514,400.8l11.7,25.2c3.4-0.3,6.3-1.4,6.3-5.5c0-1,0-3.1,0-5.8L514,380l-18,34.7c0,2.7,0,4.8,0,5.8
				c0,4,2.9,5.2,6.3,5.5L514,400.8z"/>
			<path class="st10" d="M514,379.9h-18c0,0,0,35.6,0,40.6c0,5.1,4.6,5.6,9,5.6s9,1,9,1s4.6-1,9-1s9-0.5,9-5.6s0-40.6,0-40.6H514z"
				/>
			<polygon class="st21" points="513.8,411 515,414.7 518.6,414.7 515.7,417 516.8,420.8 513.8,418.5 510.8,420.8 512,417 
				509,414.7 512.7,414.7 			"/>
			<polygon class="st21" points="502.8,383.3 504,387 507.6,387 504.7,389.3 505.8,393 502.8,390.7 499.8,393 501,389.3 498,387 
				501.7,387 			"/>
			<polygon class="st21" points="524.8,383.3 523.7,387 520,387 523,389.3 521.8,393 524.8,390.7 527.8,393 526.7,389.3 529.6,387 
				526,387 			"/>
		</g>
		<path class="st11" d="M493.5,383.5v-6c0-0.1,0-0.2,0-0.3l4-8.7c-7-8-13,0-13,0l5,9.3v5.7c0,0.7,0.3,1.3,0.8,1.6l-1.3,3.2
			c2.6,3.6,4.9,0.1,4.9,0.1l-1.4-3.2C493.1,384.8,493.5,384.2,493.5,383.5z"/>
		<line class="st10" x1="487" y1="366.2" x2="490" y2="374"/>
		<line class="st10" x1="491" y1="364.9" x2="491.5" y2="373.5"/>
		<line class="st10" x1="495.4" y1="366.5" x2="492.5" y2="374.5"/>
		<line class="st10" x1="491" y1="389.9" x2="491.5" y2="386.5"/>
		<path class="st11" d="M505.5,351.5v-6c0-0.1,0-0.2,0-0.3l4-8.7c-7-8-13,0-13,0l5,9.3v5.7c0,0.7,0.3,1.3,0.8,1.6l-1.3,3.2
			c2.6,3.6,4.9,0.1,4.9,0.1l-1.4-3.2C505.1,352.8,505.5,352.2,505.5,351.5z"/>
		<line class="st10" x1="499" y1="334.2" x2="502" y2="342"/>
		<line class="st10" x1="503" y1="332.9" x2="503.5" y2="341.5"/>
		<line class="st10" x1="507.4" y1="334.5" x2="504.5" y2="342.5"/>
		<line class="st10" x1="503" y1="357.9" x2="503.5" y2="354.5"/>
		<polygon class="st11" points="514,310 514.9,312.8 517.8,312.8 515.5,314.5 516.4,317.2 514,315.5 511.6,317.2 512.5,314.5 
			510.2,312.8 513.1,312.8 		"/>
		<polygon class="st11" points="461,309.7 461.9,312.5 464.8,312.5 462.5,314.2 463.4,317 461,315.3 458.6,317 459.5,314.2 
			457.2,312.5 460.1,312.5 		"/>
		<polygon class="st11" points="461,394.7 461.9,397.5 464.8,397.5 462.5,399.2 463.4,402 461,400.3 458.6,402 459.5,399.2 
			457.2,397.5 460.1,397.5 		"/>
		<polygon class="st11" points="461,479.7 461.9,482.5 464.8,482.5 462.5,484.2 463.4,487 461,485.3 458.6,487 459.5,484.2 
			457.2,482.5 460.1,482.5 		"/>
		<polygon class="st11" points="567,309.7 566.1,312.5 563.2,312.5 565.5,314.2 564.6,317 567,315.3 569.4,317 568.5,314.2 
			570.8,312.5 567.9,312.5 		"/>
		<polygon class="st11" points="567,394.7 566.1,397.5 563.2,397.5 565.5,399.2 564.6,402 567,400.3 569.4,402 568.5,399.2 
			570.8,397.5 567.9,397.5 		"/>
		<polygon class="st11" points="567,479.7 566.1,482.5 563.2,482.5 565.5,484.2 564.6,487 567,485.3 569.4,487 568.5,484.2 
			570.8,482.5 567.9,482.5 		"/>
		<polygon class="st11" points="514,484.7 514.9,487.5 517.8,487.5 515.5,489.2 516.4,492 514,490.3 511.6,492 512.5,489.2 
			510.2,487.5 513.1,487.5 		"/>
		<path class="st19" d="M454,574c0,0-3,7,2,14c0,0,5-9,6-14C462,574,456,585,454,574z"/>
		<path class="st19" d="M558,574c0,0-3,7,2,14c0,0,5-9,6-14C566,574,560,585,558,574z"/>
		<path class="st19" d="M376,524c0,0-3,7,2,14c0,0,5-9,6-14C384,524,378,535,376,524z"/>
		<path class="st19" d="M648,524c0,0-3,7,2,14c0,0,5-9,6-14C656,524,650,535,648,524z"/>
		<path class="st19" d="M362,438c0,0-3,7,2,14c0,0,5-9,6-14C370,438,364,449,362,438z"/>
		<path class="st19" d="M657,438c0,0-3,7,2,14c0,0,5-9,6-14C665,438,659,449,657,438z"/>
		<path class="st19" d="M386,292c0,0-3,7,2,14c0,0,5-9,6-14C394,292,388,303,386,292z"/>
		<path class="st19" d="M636,292c0,0-3,7,2,14c0,0,5-9,6-14C644,292,638,303,636,292z"/>
		<path class="st19" d="M333,207c0,0-3,7,2,14c0,0,5-9,6-14C341,207,335,218,333,207z"/>
		<path class="st19" d="M685.1,207c0,0-3,7,2,14c0,0,5-9,6-14C693.1,207,687.1,218,685.1,207z"/>
		<path class="st19" d="M409,210c0,0-3,7,2,14c0,0,5-9,6-14C417,210,411,221,409,210z"/>
		<path class="st19" d="M613.1,210c0,0-3,7,2,14c0,0,5-9,6-14C621.1,210,615.1,221,613.1,210z"/>
		<path class="st19" d="M457,200c0,0-3,7,2,14c0,0,5-9,6-14C465,200,459,211,457,200z"/>
		<path class="st19" d="M565.1,200c0,0-3,7,2,14c0,0,5-9,6-14C573.1,200,567.1,211,565.1,200z"/>
		<path class="st19" d="M455,228c0,0-3,7,2,14c0,0,5-9,6-14C463,228,457,239,455,228z"/>
		<path class="st19" d="M566,229c0,0-3,7,2,14c0,0,5-9,6-14C574,229,568,240,566,229z"/>
		<path class="st19" d="M330,448c0,0-3,7,2,14c0,0,5-9,6-14C338,448,332,459,330,448z"/>
		<path class="st19" d="M695.1,448c0,0-3,7,2,14c0,0,5-9,6-14C703.1,448,697.1,459,695.1,448z"/>
		<path class="st19" d="M353,328c0,0-3,7,2,14c0,0,5-9,6-14C361,328,355,339,353,328z"/>
		<path class="st19" d="M668.1,328c0,0-3,7,2,14c0,0,5-9,6-14C676.1,328,670.1,339,668.1,328z"/>
		<path class="st19" d="M479,532c0,0-3,7,2,14c0,0,5-9,6-14C487,532,481,543,479,532z"/>
		<path class="st19" d="M539,532c0,0-3,7,2,14c0,0,5-9,6-14C547,532,541,543,539,532z"/>
		<path class="st6" d="M505.5,230.5h15c0,0-1-9-4-14c0,0,5-8,2-13s-1-5-4-4c0,0-5-1-6,1s-5,0-2,3s5,3,0,7s-3-5-5-6s-2,2-1,3s2,7-1,7
			s-3,2-5,1s-3,2,0,2S511.5,215.5,505.5,230.5z"/>
		<g>
			<path class="st15" d="M548.1,289.4L548.1,289.4c1.1,0.6,2.4,0.2,3.1-0.8l0,0c0.6-1.1,0.2-2.4-0.8-3.1l0,0
				c-1.1-0.6-2.4-0.2-3.1,0.8l0,0C546.7,287.4,547,288.8,548.1,289.4z"/>
			<ellipse class="st13" cx="512.5" cy="287.5" rx="36" ry="9"/>
			<path class="st15" d="M477.4,289.4L477.4,289.4c-1.1,0.6-2.4,0.2-3.1-0.8l0,0c-0.6-1.1-0.2-2.4,0.8-3.1l0,0
				c1.1-0.6,2.4-0.2,3.1,0.8l0,0C478.8,287.4,478.5,288.8,477.4,289.4z"/>
			<path class="st15" d="M465.5,262.4c0,0,7.5-14.2,21.7-6c0,0,5.2-15.7,26.2-3c0,0,4.5-6,9-1.5s5.2-9.7,14.9,3.7
				c0,0,21.7-11.2,20.9,12l-12,17.9c0,0-38.9-15.7-66.5,0C479.7,285.5,467,269.8,465.5,262.4z"/>
			<circle class="st5" cx="496.2" cy="238.3" r="1.4"/>
			<path class="st14" d="M467.3,267.2c0,0-9-31.4,29.1-24.7l2.2-2.2c0,0-44.1-10.5-33.6,26.9H467.3z"/>
			<rect x="507" y="235.1" class="st14" width="12" height="42.6"/>
			<path class="st14" d="M505.5,231.4c0,0,3.7,3.7,1.5,6.7s-16.3,5.2-15.6,23.9l-10.4,2.2c0,0-4.4-12.7,5.2-19.4
				c9.6-6.7,18.9-5.6,16.7-10.8C502.9,234,500.7,228.7,505.5,231.4z"/>
			<path class="st14" d="M477.1,283.7c0,0-9.7-13.5-15.7-18.7c0,0,0.7-3,4.5,0.7c0,0,0.7-4.5,3,0.7c0,0,1.5-5.2,5.2-3
				s-2.2,3-0.7,7.5s6,1.5,6,5.2C479.4,279.8,482.3,281.4,477.1,283.7z"/>
			<path class="st14" d="M482,256.8c0,0-3.2,2.2-2.4,5.2c0,0-3.2,0-2.4,3s4,0.7,4,0.7s3.2,4.5,0.8,6.7c-2.4,2.2-2.4,6.7,4,6
				c0,0,11.2,0,12-4.5c0.8-4.5-4.8-1.5-6.4-3.7c-1.6-2.2-0.8-6-0.8-6s3.2-0.7,2.4-3c-0.8-2.2-4-3-5.6-1.5
				C487.6,259.8,486,256,482,256.8z"/>
			<path class="st10" d="M485.7,278.1c1.5-3.7,0.7-9.7,0.7-9.7s2.8,6.2,8.5,8.7"/>
			<path class="st10" d="M487.7,259.6c0,0-1.3,1.2-1.3,7.2"/>
			<path class="st10" d="M479.5,262c0,0,2.5,0.4,6.2,4.9"/>
			<ellipse transform="matrix(0.9721 -0.2346 0.2346 0.9721 -49.0514 121.4635)" class="st5" cx="486" cy="266.9" rx="1.9" ry="3"/>
			<path class="st10" d="M468.3,272.2c0,0,4.1,6.3,11.1,5"/>
			<path class="st10" d="M465.9,265.6c0,0-0.4,2,1.1,5.8"/>
			<ellipse transform="matrix(0.7947 -0.607 0.607 0.7947 -68.6003 339.172)" class="st5" cx="467.1" cy="271" rx="1.3" ry="3"/>
			<circle class="st5" cx="484.9" cy="238.5" r="1.5"/>
			<circle class="st5" cx="487.9" cy="238.5" r="1.5"/>
			<circle class="st5" cx="490.9" cy="238.5" r="1.5"/>
			<circle class="st5" cx="493.9" cy="238.5" r="1.5"/>
			<circle class="st5" cx="481.9" cy="238.5" r="1.5"/>
			<circle class="st5" cx="478.9" cy="238.5" r="1.5"/>
			<circle class="st5" cx="475.9" cy="239.2" r="1.5"/>
			<circle class="st5" cx="473" cy="240.7" r="1.5"/>
			<circle class="st5" cx="470" cy="242.9" r="1.5"/>
			<circle class="st5" cx="467" cy="245.2" r="1.8"/>
			<circle class="st5" cx="464.7" cy="248.2" r="2.2"/>
			<circle class="st5" cx="462.5" cy="251.9" r="2.2"/>
			<circle class="st5" cx="461.7" cy="256.4" r="2.2"/>
			<circle class="st5" cx="461.7" cy="260.9" r="2.2"/>
			<circle class="st5" cx="500" cy="237.6" r="1.4"/>
			<circle class="st5" cx="497.9" cy="239" r="1.4"/>
			<circle class="st5" cx="495.4" cy="240.7" r="1.5"/>
			<circle class="st5" cx="493.1" cy="242.2" r="1.5"/>
			<circle class="st5" cx="490.9" cy="243.7" r="1.8"/>
			<circle class="st5" cx="488.6" cy="245.9" r="1.8"/>
			<circle class="st5" cx="486.4" cy="248.2" r="1.8"/>
			<circle class="st5" cx="484.9" cy="250.4" r="1.8"/>
			<circle class="st5" cx="483.4" cy="253.4" r="2.2"/>
			<circle class="st5" cx="512.9" cy="238.8" r="1.9"/>
			<circle class="st5" cx="512.9" cy="241.8" r="2.1"/>
			<circle class="st5" cx="512.9" cy="244.8" r="2.2"/>
			<circle class="st5" cx="512.9" cy="247.8" r="2.6"/>
			<circle class="st5" cx="512.9" cy="252.3" r="4.1"/>
			<circle class="st5" cx="529.3" cy="238.3" r="1.4"/>
			<path class="st14" d="M558.2,267.2c0,0,9-31.4-29.1-24.7l-2.2-2.2c0,0,44.1-10.5,33.6,26.9H558.2z"/>
			<path class="st14" d="M520,231.4c0,0-3.7,3.7-1.5,6.7s16.3,5.2,15.6,23.9l10.4,2.2c0,0,4.4-12.7-5.2-19.4
				c-9.6-6.7-18.9-5.6-16.7-10.8C522.6,234,524.8,228.7,520,231.4z"/>
			<path class="st14" d="M548.4,283.7c0,0,9.7-13.5,15.7-18.7c0,0-0.7-3-4.5,0.7c0,0-0.7-4.5-3,0.7c0,0-1.5-5.2-5.2-3
				c-3.7,2.2,2.2,3,0.7,7.5s-6,1.5-6,5.2C546.1,279.8,543.2,281.4,548.4,283.7z"/>
			<path class="st14" d="M543.5,256.8c0,0,3.2,2.2,2.4,5.2c0,0,3.2,0,2.4,3s-4,0.7-4,0.7s-3.2,4.5-0.8,6.7c2.4,2.2,2.4,6.7-4,6
				c0,0-11.2,0-12-4.5c-0.8-4.5,4.8-1.5,6.4-3.7c1.6-2.2,0.8-6,0.8-6s-3.2-0.7-2.4-3c0.8-2.2,4-3,5.6-1.5
				C537.9,259.8,539.5,256,543.5,256.8z"/>
			<path class="st10" d="M539.8,278.1c-1.5-3.7-0.7-9.7-0.7-9.7s-2.8,6.2-8.5,8.7"/>
			<path class="st10" d="M537.8,259.6c0,0,1.3,1.2,1.3,7.2"/>
			<path class="st10" d="M546,262c0,0-2.5,0.4-6.2,4.9"/>
			
				<ellipse transform="matrix(0.2346 -0.9721 0.9721 0.2346 153.5455 728.6287)" class="st5" cx="539.5" cy="266.8" rx="3" ry="1.9"/>
			<path class="st10" d="M557.2,272.2c0,0-4.1,6.3-11.1,5"/>
			<path class="st10" d="M559.6,265.6c0,0,0.4,2-1.1,5.8"/>
			<ellipse transform="matrix(0.607 -0.7947 0.7947 0.607 4.1048 550.2369)" class="st5" cx="558.4" cy="271" rx="3" ry="1.3"/>
			<circle class="st5" cx="540.6" cy="238.5" r="1.5"/>
			<circle class="st5" cx="537.6" cy="238.5" r="1.5"/>
			<circle class="st5" cx="534.6" cy="238.5" r="1.5"/>
			<circle class="st5" cx="531.6" cy="238.5" r="1.5"/>
			<circle class="st5" cx="543.6" cy="238.5" r="1.5"/>
			<circle class="st5" cx="546.6" cy="238.5" r="1.5"/>
			<circle class="st5" cx="549.6" cy="239.2" r="1.5"/>
			<circle class="st5" cx="552.5" cy="240.7" r="1.5"/>
			<circle class="st5" cx="555.5" cy="242.9" r="1.5"/>
			<circle class="st5" cx="558.5" cy="245.2" r="1.8"/>
			<circle class="st5" cx="560.8" cy="248.2" r="2.2"/>
			<circle class="st5" cx="563" cy="251.9" r="2.2"/>
			<circle class="st5" cx="563.8" cy="256.4" r="2.2"/>
			<circle class="st5" cx="563.8" cy="260.9" r="2.2"/>
			<circle class="st5" cx="525.5" cy="237.6" r="1.4"/>
			<circle class="st5" cx="527.6" cy="239" r="1.4"/>
			<circle class="st5" cx="530.1" cy="240.7" r="1.5"/>
			<circle class="st5" cx="532.4" cy="242.2" r="1.5"/>
			<circle class="st5" cx="534.6" cy="243.7" r="1.8"/>
			<circle class="st5" cx="536.9" cy="245.9" r="1.8"/>
			<circle class="st5" cx="539.1" cy="248.2" r="1.8"/>
			<circle class="st5" cx="540.6" cy="250.4" r="1.8"/>
			<circle class="st5" cx="542.1" cy="253.4" r="2.2"/>
			<path class="st14" d="M524.9,270.2c-2.2-0.7-2.2,2.2-4.5,0c-2.2-2.2-0.7-7.5-0.7-7.5s6,1.5,4.5-2.2s-5.2-1-5.2-1
				c-1.5-4-3.7-1.2-3.7-1.2c-1.5-3-2.2-3-2.2-3s-0.7,0-2.2,3c0,0-2.2-2.7-3.7,1.2c0,0-3.7-2.7-5.2,1s4.5,2.2,4.5,2.2
				s1.5,5.2-0.7,7.5c-2.2,2.2-2.2-0.7-4.5,0c-2.2,0.7-1.5,9,12,7.5C526.4,279.2,527.1,271,524.9,270.2z"/>
			<path class="st10" d="M512.6,265.4c0,0-0.7,7.5-5.6,12.3"/>
			<path class="st10" d="M510.3,257.9c0,0,2.2,3.7,2.2,6.7"/>
			<path class="st10" d="M513.3,265.4c0,0,0.7,7.5,5.6,12.3"/>
			<path class="st10" d="M515.6,257.9c0,0-2.2,3.7-2.2,6.7"/>
			<ellipse class="st5" cx="512.9" cy="265" rx="2.6" ry="3.4"/>
			<path class="st14" d="M479.7,291.1c6.5-3.5,18.8-5.9,32.9-5.9c14.1,0,26.4,2.4,32.9,5.9c3.1-1.7,4.9-3.6,4.9-5.7
				c0-6.4-16.9-11.5-37.7-11.5c-20.8,0-37.7,5.2-37.7,11.5C474.8,287.5,476.6,289.5,479.7,291.1z"/>
			<path class="st15" d="M514.8,281.8h-3.7c-1.2,0-2.2-1-2.2-2.2l0,0c0-1.2,1-2.2,2.2-2.2h3.7c1.2,0,2.2,1,2.2,2.2l0,0
				C517,280.8,516,281.8,514.8,281.8z"/>
			<path class="st17" d="M492.9,283.5l-3,0.7c-1.2,0.3-2.4-0.5-2.7-1.7l0,0c-0.3-1.2,0.5-2.4,1.7-2.7l3-0.7c1.2-0.3,2.4,0.5,2.7,1.7
				l0,0C494.8,282,494.1,283.2,492.9,283.5z"/>
			
				<rect x="500.6" y="277.3" transform="matrix(0.9951 -9.879049e-02 9.879049e-02 0.9951 -25.1988 50.8976)" class="st5" width="1.5" height="5.2"/>
			
				<rect x="481.2" y="281.8" transform="matrix(0.9213 -0.3889 0.3889 0.9213 -72.6656 209.8166)" class="st5" width="1.5" height="5.2"/>
			<path class="st17" d="M532.6,283.5l3,0.7c1.2,0.3,2.4-0.5,2.7-1.7l0,0c0.3-1.2-0.5-2.4-1.7-2.7l-3-0.7c-1.2-0.3-2.4,0.5-2.7,1.7
				l0,0C530.7,282,531.4,283.2,532.6,283.5z"/>
			
				<rect x="521.5" y="279.3" transform="matrix(9.879049e-02 -0.9951 0.9951 9.879049e-02 193.7005 773.9528)" class="st5" width="5.2" height="1.5"/>
			
				<rect x="541" y="283.7" transform="matrix(0.3889 -0.9213 0.9213 0.3889 70.1445 674.6644)" class="st5" width="5.2" height="1.5"/>
			<circle class="st17" cx="512.9" cy="229.1" r="8.2"/>
			<path class="st14" d="M515.2,224.3v-3.1c3.5-2.3,5.1-6.4,3.4-9.3c-1-1.8-3-2.7-5.3-2.7c0.8,0.3,1.4,0.9,1.9,1.6
				c1.3,2.2,0,5.4-2.9,7c-2.9,1.7-6.3,1.2-7.5-1c-0.3-0.6-0.5-1.2-0.5-1.9c-0.8,1.8-0.8,3.7,0.1,5.3c1.2,2.1,3.7,3,6.4,2.7v1.4h-7.1
				v4.5h18.7v-4.5H515.2z"/>
		</g>
		<path class="st6" d="M427,349c0,0,2,5,1,11c0,0,13-2,16,4s6,21,15,25s3,10-2,10s-4-9-8-10s-4-16-12-18s-10,6-12,14s-12,39-23,48
			l-15,15c0,0-5-7-5-20c0,0-12-5-8-18s7-17,7-23s-1-16,2-20s0-7,0-7s5.5-1.5,7.5,7.5s8,13,2,23s-13,21-10,34c0,0,22-31,25-57
			S427,349,427,349z"/>
		<path class="st5" d="M433.5,387.5l-2,5c0,0,9,2,8,11s-46,14-58,40s34,18,40,16s0,4,3,7s10,3,11-4s1-14-9-16s-30,1-22-4
			s44-23,43-38S433.5,387.5,433.5,387.5z"/>
		<path class="st5" d="M398.5,357.5c0,0-3,13,7,19c0,0,14-25,21-28s14-10,17-16s8.5-9.2,8.5-9.2V317c0,0-7.5,0.5-16.5,9.5
			s-13,10-22,12S399.5,347.5,398.5,357.5z"/>
		<path class="st11" d="M653.3,410c-4-13-7-17-7-23s1-16-2-20s0-7,0-7s-5.5-1.5-7.5,7.5s-8,13-2,23s13,21,10,34c0,0-22-31-25-57
			s-19.3-21-19.3-21s-2.2,7.5-1.2,13.5c0,0-15.8,0.5-18.8,6.5s-2,17-11,21c-7.4,3.3-5.9,5.4-2,7c3.8,5.6,7,1,7,1c5.6-1.4,4-2.5,3-5
			c3-3.1,5.6-17.7,12.8-19.5c8-2,10,6,12,14s12,39,23,48l15,15c0,0,5-7,5-20C645.3,428,657.3,423,653.3,410z"/>
		<path class="st9" d="M612.3,364c0,0,5,10,6,18s16,35,15,40S614.3,391,612.3,364z"/>
		<path class="st5" d="M593.8,387.5l2,5c0,0-9,2-8,11s46,14,58,40s-34,18-40,16s0,4-3,7s-10,3-11-4s-1-14,9-16s30,1,22-4
			s-44-23-43-38S593.8,387.5,593.8,387.5z"/>
		<path class="st5" d="M630,357.5c0,0,1.6,12-8.5,18c0,0-12.7-24-19.8-27s-14.1-10-17.2-16s-8.6-9.2-8.6-9.2V317
			c0,0,7.6,0.5,16.7,9.5c9.1,9,13.1,10,22.2,12C623.9,340.5,629,347.5,630,357.5z"/>
	</g>
</g>
</svg>
