<?xml version="1.0" encoding="UTF-8" standalone="no"?>
<!-- Created with Inkscape (http://www.inkscape.org/) -->

<svg
   xmlns:dc="http://purl.org/dc/elements/1.1/"
   xmlns:cc="http://creativecommons.org/ns#"
   xmlns:rdf="http://www.w3.org/1999/02/22-rdf-syntax-ns#"
   xmlns:svg="http://www.w3.org/2000/svg"
   xmlns="http://www.w3.org/2000/svg"
   xmlns:sodipodi="http://sodipodi.sourceforge.net/DTD/sodipodi-0.dtd"
   xmlns:inkscape="http://www.inkscape.org/namespaces/inkscape"
   id="svg2"
   sodipodi:version="0.32"
   inkscape:version="0.48.1 "
   width="1771.6536"
   height="1062.9922"
   version="1.0"
   sodipodi:docname="ZZ1.svg">
  <metadata
     id="metadata7">
    <rdf:RDF>
      <cc:Work
         rdf:about="">
        <dc:format>image/svg+xml</dc:format>
        <dc:type
           rdf:resource="http://purl.org/dc/dcmitype/StillImage" />
      </cc:Work>
    </rdf:RDF>
  </metadata>
  <defs
     id="defs5" />
  <sodipodi:namedview
     inkscape:window-height="1004"
     inkscape:window-width="1280"
     inkscape:pageshadow="2"
     inkscape:pageopacity="1"
     borderopacity="1.0"
     bordercolor="#666666"
     pagecolor="#ffffff"
     id="base"
     showgrid="false"
     inkscape:grid-points="true"
     gridtolerance="0.5cm"
     inkscape:zoom="0.19031205"
     inkscape:cx="1141.1626"
     inkscape:cy="721.36165"
     inkscape:window-x="-8"
     inkscape:window-y="-8"
     inkscape:current-layer="svg2"
     inkscape:document-units="cm"
     showguides="true"
     inkscape:guide-bbox="true"
     guidetolerance="0.5cm"
     units="cm"
     fit-margin-top="0"
     fit-margin-left="0"
     fit-margin-right="0"
     fit-margin-bottom="0"
     inkscape:window-maximized="1">
    <inkscape:grid
       id="GridFromPre046Settings"
       type="xygrid"
       originx="0px"
       originy="0cm"
       spacingx="0.5cm"
       spacingy="0.5cm"
       color="#0000ff"
       empcolor="#0000ff"
       opacity="0.2"
       empopacity="0.4"
       empspacing="5"
       units="cm"
       visible="true"
       enabled="true"
       snapvisiblegridlinesonly="true" />
  </sodipodi:namedview>
  <rect
     y="354.33069"
     x="2.1146039e-005"
     height="354.33072"
     width="1771.6536"
     id="rect14364"
     style="fill:#ffffff;fill-opacity:1;stroke:none" />
  <g
     id="g14258"
     transform="translate(2.1146039e-5,6.0554565e-5)">
    <g
       transform="matrix(0.486787,5.005351e-4,-5.005351e-4,0.486787,670.43,281.3988)"
       id="g12737">
      <g
         id="g12664"
         transform="matrix(0.999995,0.00324947,-0.00324947,0.999995,-39.91858,-39.52968)">
        <g
           transform="translate(-450.0342,30.38205)"
           id="g12589">
          <g
             id="g12464"
             transform="translate(-657.0119,377.8768)">
            <g
               id="g11351">
              <g
                 id="g9599"
                 transform="translate(20.88766,-18.98878)">
                <path
                   transform="matrix(0.653497,0,0,0.653497,606.4761,105.1924)"
                   d="m 1614.0467,385.09246 -65.2721,-60.74456 48.8218,74.61081 -58.5649,-67.23459 40.7554,79.30536 -51.2162,-72.98798 32.2425,83.13102 -43.3063,-77.94169 23.3763,86.04588 -34.922,-82.04147 14.2541,88.01801 -26.155,-85.24238 4.9755,89.02579 -17.1014,-87.50935 -4.3575,89.05818 -7.8605,-88.81756 -13.6427,88.11484 1.4665,-89.15266 -22.7785,86.20609 10.7774,-88.51099 -31.6646,83.35285 19.9703,-86.89956 -40.204,79.58637 28.9444,-84.33606 -48.3027,74.94794 37.6013,-80.84854 -55.8723,69.48835 45.8463,-76.47524 -62.8297,63.26744 53.589,-71.26405 -69.0988,56.35336 60.7445,-65.27208 -74.6108,48.82185 67.2346,-58.56498 -79.3053,40.75545 72.9879,-51.21622 -83.131,32.24252 77.9417,-43.30634 -86.0459,23.37634 82.0415,-34.92198 -88.018,14.25403 85.2424,-26.15499 -89.0258,4.97556 87.5093,-17.10147 -89.0582,-4.35742 88.8176,-7.86057 -88.1148,-13.64267 89.1526,1.46647 -86.2061,-22.77845 88.511,10.77742 -83.3528,-31.66465 86.8995,19.9703 -79.5863,-40.20393 84.336,28.94437 -74.9479,-48.30273 80.8485,37.60133 -69.4883,-55.87232 76.4752,45.84632 -63.2674,-62.82975 71.264,53.58901 -56.3533,-69.098813 65.272,60.744563 -48.8218,-74.610811 58.565,67.234591 -40.7555,-79.305361 51.2162,72.987981 -32.2425,-83.131024 43.3064,77.941694 -23.3764,-86.045879 34.922,82.041469 -14.254,-88.018007 26.155,85.242377 -4.9756,-89.025786 17.1015,87.509346 4.3574,-89.058176 7.8606,88.817556 13.6426,-88.114836 -1.4664,89.152656 22.7784,-86.206085 -10.7774,88.510985 31.6646,-83.352848 -19.9703,86.899558 40.204,-79.586367 -28.9444,84.336057 48.3027,-74.947938 -37.6013,80.848538 55.8723,-69.488348 -45.8463,76.475238 62.8298,-63.267443 -53.5891,71.264053 69.0989,-56.35336 -60.7446,65.27208 74.6108,-48.82185 -67.2346,58.56497 79.3054,-40.75544 -72.988,51.21622 83.131,-32.24252 -77.9417,43.30634 86.0459,-23.37634 -82.0415,34.92198 88.018,-14.25404 -85.2423,26.155 89.0257,-4.97556 -87.5093,17.10147 89.0582,4.35742 -88.8176,7.86057 88.1149,13.64267 -89.1527,-1.46647 86.2061,22.77845 -88.511,-10.77742 83.3529,31.66465 -86.8996,-19.9703 79.5864,40.20393 -84.3361,-28.94437 74.9479,48.30273 -80.8485,-37.60133 69.4884,55.87232 -76.4753,-45.84632 63.2675,62.82975 -71.2641,-53.58901 z"
                   inkscape:randomized="0"
                   inkscape:rounded="0"
                   inkscape:flatsided="false"
                   sodipodi:arg2="0.87042615"
                   sodipodi:arg1="0.81806628"
                   sodipodi:r2="116.74915"
                   sodipodi:r1="205.54427"
                   sodipodi:cy="235.08107"
                   sodipodi:cx="1473.5297"
                   sodipodi:sides="60"
                   id="path6088"
                   style="fill:#ffd220;fill-opacity:1;stroke:none"
                   sodipodi:type="star" />
                <path
                   id="path7836"
                   d="m 1566.7861,123.04948 c -71.5454,0.90726 -129.3437,59.27182 -129.3437,131.03125 0,72.32447 58.7068,131.00001 131.0312,131 72.3245,0 131.0313,-58.67552 131.0313,-131 0,-72.32447 -58.7068,-131.03125 -131.0313,-131.03125 -0.565,0 -1.1241,-0.007 -1.6875,0 z m 0.6563,8.15625 c 2.9942,-0.0465 5.9793,0.0815 8.9687,0.25 46.4756,2.00916 88.8453,33.91506 106.0626,76.625 19.1755,44.31902 6.9222,98.99003 -26.9063,132.65625 -32.7795,34.74 -87.0775,45.08492 -131.25,28.03125 -48.8551,-17.40002 -81.3902,-69.26994 -78.6563,-120.84375 1.49,-62.57143 58.3581,-117.1625 120.8438,-116.6875 0.3097,-0.008 0.6277,-0.0264 0.9375,-0.0312 z"
                   style="fill:#ffd220;fill-opacity:1;stroke:none"
                   inkscape:connector-curvature="0" />
              </g>
              <path
                 sodipodi:type="arc"
                 style="fill:#ffffff;fill-opacity:1;stroke:none"
                 id="path9603"
                 sodipodi:cx="953.23694"
                 sodipodi:cy="620.55341"
                 sodipodi:rx="58.865231"
                 sodipodi:ry="58.865231"
                 d="m 1012.1022,620.55341 c 0,32.51036 -26.35489,58.86523 -58.86526,58.86523 -32.51037,0 -58.86523,-26.35487 -58.86523,-58.86523 0,-32.51037 26.35486,-58.86523 58.86523,-58.86523 32.51037,0 58.86526,26.35486 58.86526,58.86523 z"
                 transform="translate(636.1243,-381.6746)" />
            </g>
            <g
               transform="translate(658.4361,-287.6801)"
               id="g12457">
              <g
                 id="g12453">
                <path
                   id="path12444"
                   d="m 967.8125,545.25 c -2.22745,-1.00261 -4.42536,-2.14352 -6.6875,-3 -2.22346,-0.84183 -4.44472,-1.59132 -6.71875,-2.25 -2.27403,-0.65868 -4.59597,-1.22232 -6.9375,-1.65625 -2.34153,-0.43393 -4.73031,-0.73868 -7.15625,-0.90625 -2.42594,-0.16757 -4.87899,-0.2029 -7.40625,-0.0625 -2.52726,0.1404 -5.1045,0.44753 -7.75,0.9375 -2.6455,0.48997 -5.3756,1.18134 -8.15625,2.0625 -2.78065,0.88116 -5.62979,1.9673 -8.5625,3.28125 -2.33488,1.0461 -4.74661,2.34338 -7.1875,3.6875 0.19564,0.51647 0.27912,1.07581 0.625,1.53125 2.47769,3.78969 5.1277,8.63587 10.0625,9.3125 11.30702,0.41307 22.6288,0.56604 33.9375,0.84375 3.96862,0.0187 11.3478,-1.76926 13.875,-4.9375 3.57772,-3.08887 6.26625,-4.85781 8.0625,-8.84375 z"
                   style="fill:#6e1e00;fill-opacity:1;fill-rule:evenodd;stroke:#000000;stroke-width:1px;stroke-linecap:butt;stroke-linejoin:miter;stroke-opacity:1"
                   inkscape:connector-curvature="0" />
                <path
                   id="path12390"
                   d="m 924.6875,484.78125 c -5.20951,0.26814 -9.84985,1.52059 -14.96875,2.625 -3.85972,0.87672 -8.3699,3.48341 -8.25,7.96875 -0.32639,4.42835 -0.13515,8.95914 1.21875,13.21875 2.47062,4.03051 8.14975,3.54253 12.09375,2.46875 3.75918,-2.00497 3.49065,-7.03843 6.53125,-9.6875 1.89228,5.13031 -3.64605,8.29716 -7.40625,10.21875 -3.75471,3.34376 -2.8373,8.65474 -2.3125,13.0625 0.4555,3.34262 -0.8797,7.65575 -4.8125,7.875 -4.27591,1.22236 -7.4965,5.7167 -6.4375,10.1875 0.10485,1.55327 0.34949,3.15517 0.90625,4.625 2.44089,-1.34412 4.85262,-2.6414 7.1875,-3.6875 2.93271,-1.31395 5.78185,-2.40009 8.5625,-3.28125 2.78065,-0.88116 5.51075,-1.57253 8.15625,-2.0625 2.6455,-0.48997 5.22274,-0.7971 7.75,-0.9375 2.52726,-0.1404 4.98031,-0.10507 7.40625,0.0625 2.42594,0.16757 4.81472,0.47232 7.15625,0.90625 2.34153,0.43393 4.66347,0.99757 6.9375,1.65625 2.27403,0.65868 4.49529,1.40817 6.71875,2.25 2.26214,0.85648 4.46005,1.99739 6.6875,3 0.29617,-0.6572 0.63109,-1.22802 0.875,-2.03125 1.16599,-4.20922 0.5398,-9.36266 0.25,-13.6875 C 968.2221,524.8337 965.8,520.65403 964,516.3125 c -3.0248,-6.237 -8.31285,-10.96466 -11.90625,-16.84375 -3.53409,-4.42561 -5.18725,-6.46315 -9.15625,-10.4375 -4.49702,-2.40389 -13.4194,-3.84175 -18.25,-4.25 z"
                   style="fill:#e60000;fill-opacity:1;fill-rule:evenodd;stroke:#000000;stroke-width:1px;stroke-linecap:butt;stroke-linejoin:miter;stroke-opacity:1"
                   inkscape:connector-curvature="0" />
              </g>
              <path
                 style="fill:none;stroke:#000000;stroke-width:1.01561296px;stroke-linecap:butt;stroke-linejoin:miter;stroke-opacity:1"
                 d="m 907.2049,532.73027 c 28.16851,-14.26689 46.08022,-5.23047 61.20736,0"
                 id="path12412"
                 sodipodi:nodetypes="cc"
                 inkscape:connector-curvature="0" />
              <path
                 sodipodi:nodetypes="cc"
                 id="path12415"
                 d="m 902.02724,547.82357 c 21.09196,-16.58317 50.82481,-10.6773 65.39132,-2.26433"
                 style="fill:none;stroke:#000000;stroke-width:1.15531886px;stroke-linecap:butt;stroke-linejoin:miter;stroke-opacity:1"
                 inkscape:connector-curvature="0" />
            </g>
          </g>
          <g
             id="g6044"
             transform="translate(115.8316,-32.28093)">
            <path
               id="path4175"
               d="m 544.1097,766.12106 537.0839,-6.71355 46.9949,79.21988 -628.38823,6.71355 44.30943,-79.21988 z"
               style="fill:#165aff;fill-opacity:1;fill-rule:evenodd;stroke:none"
               inkscape:connector-curvature="0" />
            <path
               id="path1551"
               d="m 816.56133,283.90073 -343.6875,577.25 679.81247,-5.6875 -336.12497,-571.5625 z m -0.5313,42.40625 286.71877,502.625 -579.93747,5 293.2187,-507.625 z"
               style="fill:#ffd220;fill-opacity:1;fill-rule:evenodd;stroke:none"
               inkscape:connector-curvature="0" />
            <g
               transform="matrix(0.877695,0,0,0.825231,219.9277,192.732)"
               id="g5098">
              <path
                 style="fill:#1c7c2f;fill-opacity:1;fill-rule:evenodd;stroke:#000000;stroke-width:1px;stroke-linecap:butt;stroke-linejoin:miter;stroke-opacity:1"
                 d="m 789.51336,716.57295 c 7.08867,-6.28688 11.15228,-14.9704 15.91742,-22.94347 3.93366,-5.61906 10.7418,-7.70497 16.86917,-9.85025 4.89167,-5.36444 7.18113,-12.72509 9.45326,-19.52464 1.12982,-6.87416 5.11558,-12.71438 9.937,-17.54451 3.50787,-5.74163 5.49798,-13.06359 12.06472,-16.22694 6.2654,-1.89185 13.42834,-0.14336 18.3721,-5.26816 8.37197,0.75925 11.90017,9.73418 15.40415,16.1662 3.82004,6.17925 11.43537,8.53704 15.61323,14.48032 5.11465,5.42104 9.3161,12.09971 16.29306,15.30318 5.8988,6.6032 7.51897,16.21327 14.54875,22.02708 4.45892,4.8504 10.74682,7.15832 16.01827,10.83838 5.05425,6.3482 -3.57702,11.14696 -9.41367,9.0634 -19.36065,-1.11462 -38.77712,-0.0838 -58.13665,-0.79657 -8.05928,-1.67806 -16.19399,-2.98412 -24.46262,-2.4376 -13.40136,0.2298 -26.84306,-0.47029 -40.21881,0.37774 -7.13814,0.70615 -12.91349,5.95337 -20.22458,5.96228 -2.6685,0.27672 -5.35304,0.3721 -8.0348,0.37356 z"
                 id="path5050"
                 inkscape:connector-curvature="0" />
              <path
                 style="fill:#000000;fill-opacity:1;fill-rule:nonzero;stroke:none"
                 id="path5086"
                 d="m 879.27006,650.36101 c 2.55116,3.91428 4.58693,8.13376 6.90654,12.17843 4.15735,3.4787 8.61099,6.02195 12.12959,10.17099 2.92091,4.50472 6.49041,8.40163 10.60966,11.82543 5.93666,5.67974 10.47721,12.07611 17.97289,15.69812 5.1091,0.89271 8.80632,4.3926 13.05109,7.04233 l -2.12434,1.37059 c -4.22353,-2.6538 -7.91741,-6.10603 -13.00539,-7.00922 -7.47251,-3.70145 -12.07097,-10.0771 -18.02357,-15.76784 -4.13542,-3.44738 -7.73757,-7.36215 -10.67128,-11.89357 -3.51993,-4.13197 -8.00915,-6.62863 -12.1099,-10.15346 -2.34211,-4.09397 -4.39913,-8.36024 -7.01098,-12.30228 l 2.27569,-1.15952 z"
                 inkscape:connector-curvature="0" />
              <path
                 style="fill:#000000;fill-opacity:1;fill-rule:nonzero;stroke:none"
                 id="path5088"
                 d="m 873.95513,664.79934 c 5.5475,3.33969 9.71982,7.93819 13.2171,13.28517 3.02249,4.18675 7.75411,6.55332 11.65801,9.86355 2.40691,4.10072 5.21986,7.71577 8.48253,11.16326 4.59275,3.14993 10.0093,4.13223 14.76595,6.86863 0.48579,0.49351 1.05032,0.89446 1.57548,1.34169 l -2.14096,1.34166 c -0.52062,-0.44139 -1.06975,-0.84915 -1.56185,-1.32417 -4.77271,-2.70053 -10.2305,-3.68146 -14.78561,-6.90028 -3.26161,-3.45252 -6.08085,-7.06861 -8.49019,-11.16944 -3.92194,-3.3174 -8.69037,-5.68284 -11.68788,-9.92083 -3.43804,-5.28108 -7.53234,-9.90924 -13.09887,-13.048 l 2.06629,-1.50124 z"
                 inkscape:connector-curvature="0" />
              <path
                 style="fill:#000000;fill-opacity:1;fill-rule:nonzero;stroke:none"
                 id="path5090"
                 d="m 867.18567,677.2152 c 3.85248,5.61273 9.77309,8.91663 15.75032,11.87677 5.39588,2.35869 9.53008,6.43835 13.34667,10.79332 1.94702,2.69228 4.50642,4.56466 7.11595,6.44772 l -2.10536,1.39735 c -2.62399,-1.92986 -5.20865,-3.83495 -7.17864,-6.54733 -3.78796,-4.3293 -7.89832,-8.37071 -13.2676,-10.69586 -6.05411,-3.0267 -12.03023,-6.41967 -15.93703,-12.11245 l 2.27569,-1.15952 z"
                 inkscape:connector-curvature="0" />
              <path
                 style="fill:#000000;fill-opacity:1;fill-rule:nonzero;stroke:none"
                 id="path5092"
                 d="m 867.24158,694.33896 c 4.25306,1.9074 8.40864,4.14129 12.42286,6.4343 2.43949,2.31313 5.44104,3.16348 8.55993,4.06233 l -2.07733,1.44546 c -3.13973,-0.94631 -6.18291,-1.83179 -8.64163,-4.17373 -3.97851,-2.25056 -8.06909,-4.51862 -12.33011,-6.26712 l 2.06628,-1.50124 z"
                 inkscape:connector-curvature="0" />
              <path
                 style="fill:#000000;fill-opacity:1;fill-rule:nonzero;stroke:none"
                 id="path5094"
                 d="m 867.24158,705.08064 c 4.77308,0.0154 9.54623,0.0111 14.31934,0.0112 l -2.03544,1.47883 c -4.78339,1.3e-4 -9.56681,-0.004 -14.35018,0.0112 l 2.06628,-1.50124 z"
                 inkscape:connector-curvature="0" />
              <path
                 style="fill:#000000;fill-opacity:1;fill-rule:nonzero;stroke:none"
                 id="path5096"
                 d="m 892.80786,651.61678 c 1.62207,4.62918 4.57225,7.12284 8.40099,9.75467 4.991,1.99972 7.04314,6.52617 9.41997,11.00553 3.41237,4.97169 6.70747,9.9631 9.58932,15.24915 2.13847,4.72665 6.68352,6.12238 10.87369,8.51615 3.38749,4.95261 6.34144,9.08789 11.56327,12.21994 1.13542,0.33011 1.62979,1.45153 2.42376,2.15866 l -2.18845,1.30014 c -0.77075,-0.68488 -1.24983,-1.78643 -2.3624,-2.09918 -5.2021,-3.14524 -8.16897,-7.28871 -11.5611,-12.21655 -4.24107,-2.39574 -8.79093,-3.84358 -10.9365,-8.62399 -2.88079,-5.282 -6.15889,-10.28293 -9.58628,-15.24055 -2.35758,-4.43678 -4.36783,-8.91733 -9.33552,-10.86578 -3.82247,-2.6711 -6.82594,-5.19869 -8.47663,-9.8248 l 2.17588,-1.33339 z"
                 inkscape:connector-curvature="0" />
            </g>
            <g
               id="g5107"
               transform="matrix(0.941748,0,0,0.815,90.58604,206.7173)">
              <path
                 id="path5109"
                 d="m 789.51336,716.57295 c 7.08867,-6.28688 11.15228,-14.9704 15.91742,-22.94347 3.93366,-5.61906 10.7418,-7.70497 16.86917,-9.85025 4.89167,-5.36444 7.18113,-12.72509 9.45326,-19.52464 1.12982,-6.87416 5.11558,-12.71438 9.937,-17.54451 3.50787,-5.74163 5.49798,-13.06359 12.06472,-16.22694 6.2654,-1.89185 13.42834,-0.14336 18.3721,-5.26816 8.37197,0.75925 11.90017,9.73418 15.40415,16.1662 3.82004,6.17925 11.43537,8.53704 15.61323,14.48032 5.11465,5.42104 9.3161,12.09971 16.29306,15.30318 5.8988,6.6032 7.51897,16.21327 14.54875,22.02708 4.45892,4.8504 10.74682,7.15832 16.01827,10.83838 5.05425,6.3482 -3.57702,11.14696 -9.41367,9.0634 -19.36065,-1.11462 -38.77712,-0.0838 -58.13665,-0.79657 -8.05928,-1.67806 -16.19399,-2.98412 -24.46262,-2.4376 -13.40136,0.2298 -26.84306,-0.47029 -40.21881,0.37774 -7.13814,0.70615 -12.91349,5.95337 -20.22458,5.96228 -2.6685,0.27672 -5.35304,0.3721 -8.0348,0.37356 z"
                 style="fill:#1c7c2f;fill-opacity:1;fill-rule:evenodd;stroke:#000000;stroke-width:1px;stroke-linecap:butt;stroke-linejoin:miter;stroke-opacity:1"
                 inkscape:connector-curvature="0" />
              <path
                 d="m 879.27006,650.36101 c 2.55116,3.91428 4.58693,8.13376 6.90654,12.17843 4.15735,3.4787 8.61099,6.02195 12.12959,10.17099 2.92091,4.50472 6.49041,8.40163 10.60966,11.82543 5.93666,5.67974 10.47721,12.07611 17.97289,15.69812 5.1091,0.89271 8.80632,4.3926 13.05109,7.04233 l -2.12434,1.37059 c -4.22353,-2.6538 -7.91741,-6.10603 -13.00539,-7.00922 -7.47251,-3.70145 -12.07097,-10.0771 -18.02357,-15.76784 -4.13542,-3.44738 -7.73757,-7.36215 -10.67128,-11.89357 -3.51993,-4.13197 -8.00915,-6.62863 -12.1099,-10.15346 -2.34211,-4.09397 -4.39913,-8.36024 -7.01098,-12.30228 l 2.27569,-1.15952 z"
                 id="path5111"
                 style="fill:#000000;fill-opacity:1;fill-rule:nonzero;stroke:none"
                 inkscape:connector-curvature="0" />
              <path
                 d="m 873.95513,664.79934 c 5.5475,3.33969 9.71982,7.93819 13.2171,13.28517 3.02249,4.18675 7.75411,6.55332 11.65801,9.86355 2.40691,4.10072 5.21986,7.71577 8.48253,11.16326 4.59275,3.14993 10.0093,4.13223 14.76595,6.86863 0.48579,0.49351 1.05032,0.89446 1.57548,1.34169 l -2.14096,1.34166 c -0.52062,-0.44139 -1.06975,-0.84915 -1.56185,-1.32417 -4.77271,-2.70053 -10.2305,-3.68146 -14.78561,-6.90028 -3.26161,-3.45252 -6.08085,-7.06861 -8.49019,-11.16944 -3.92194,-3.3174 -8.69037,-5.68284 -11.68788,-9.92083 -3.43804,-5.28108 -7.53234,-9.90924 -13.09887,-13.048 l 2.06629,-1.50124 z"
                 id="path5113"
                 style="fill:#000000;fill-opacity:1;fill-rule:nonzero;stroke:none"
                 inkscape:connector-curvature="0" />
              <path
                 d="m 867.18567,677.2152 c 3.85248,5.61273 9.77309,8.91663 15.75032,11.87677 5.39588,2.35869 9.53008,6.43835 13.34667,10.79332 1.94702,2.69228 4.50642,4.56466 7.11595,6.44772 l -2.10536,1.39735 c -2.62399,-1.92986 -5.20865,-3.83495 -7.17864,-6.54733 -3.78796,-4.3293 -7.89832,-8.37071 -13.2676,-10.69586 -6.05411,-3.0267 -12.03023,-6.41967 -15.93703,-12.11245 l 2.27569,-1.15952 z"
                 id="path5115"
                 style="fill:#000000;fill-opacity:1;fill-rule:nonzero;stroke:none"
                 inkscape:connector-curvature="0" />
              <path
                 d="m 867.24158,694.33896 c 4.25306,1.9074 8.40864,4.14129 12.42286,6.4343 2.43949,2.31313 5.44104,3.16348 8.55993,4.06233 l -2.07733,1.44546 c -3.13973,-0.94631 -6.18291,-1.83179 -8.64163,-4.17373 -3.97851,-2.25056 -8.06909,-4.51862 -12.33011,-6.26712 l 2.06628,-1.50124 z"
                 id="path5117"
                 style="fill:#000000;fill-opacity:1;fill-rule:nonzero;stroke:none"
                 inkscape:connector-curvature="0" />
              <path
                 d="m 867.24158,705.08064 c 4.77308,0.0154 9.54623,0.0111 14.31934,0.0112 l -2.03544,1.47883 c -4.78339,1.3e-4 -9.56681,-0.004 -14.35018,0.0112 l 2.06628,-1.50124 z"
                 id="path5119"
                 style="fill:#000000;fill-opacity:1;fill-rule:nonzero;stroke:none"
                 inkscape:connector-curvature="0" />
              <path
                 d="m 892.80786,651.61678 c 1.62207,4.62918 4.57225,7.12284 8.40099,9.75467 4.991,1.99972 7.04314,6.52617 9.41997,11.00553 3.41237,4.97169 6.70747,9.9631 9.58932,15.24915 2.13847,4.72665 6.68352,6.12238 10.87369,8.51615 3.38749,4.95261 6.34144,9.08789 11.56327,12.21994 1.13542,0.33011 1.62979,1.45153 2.42376,2.15866 l -2.18845,1.30014 c -0.77075,-0.68488 -1.24983,-1.78643 -2.3624,-2.09918 -5.2021,-3.14524 -8.16897,-7.28871 -11.5611,-12.21655 -4.24107,-2.39574 -8.79093,-3.84358 -10.9365,-8.62399 -2.88079,-5.282 -6.15889,-10.28293 -9.58628,-15.24055 -2.35758,-4.43678 -4.36783,-8.91733 -9.33552,-10.86578 -3.82247,-2.6711 -6.82594,-5.19869 -8.47663,-9.8248 l 2.17588,-1.33339 z"
                 id="path5121"
                 style="fill:#000000;fill-opacity:1;fill-rule:nonzero;stroke:none"
                 inkscape:connector-curvature="0" />
            </g>
            <g
               transform="matrix(0.906815,0,0,0.907473,39.34428,146.1009)"
               id="g5123">
              <path
                 style="fill:#1c7c2f;fill-opacity:1;fill-rule:evenodd;stroke:#000000;stroke-width:1px;stroke-linecap:butt;stroke-linejoin:miter;stroke-opacity:1"
                 d="m 789.51336,716.57295 c 7.08867,-6.28688 11.15228,-14.9704 15.91742,-22.94347 3.93366,-5.61906 10.7418,-7.70497 16.86917,-9.85025 4.89167,-5.36444 7.18113,-12.72509 9.45326,-19.52464 1.12982,-6.87416 5.11558,-12.71438 9.937,-17.54451 3.50787,-5.74163 5.49798,-13.06359 12.06472,-16.22694 6.2654,-1.89185 13.42834,-0.14336 18.3721,-5.26816 8.37197,0.75925 11.90017,9.73418 15.40415,16.1662 3.82004,6.17925 11.43537,8.53704 15.61323,14.48032 5.11465,5.42104 9.3161,12.09971 16.29306,15.30318 5.8988,6.6032 7.51897,16.21327 14.54875,22.02708 4.45892,4.8504 10.74682,7.15832 16.01827,10.83838 5.05425,6.3482 -3.57702,11.14696 -9.41367,9.0634 -19.36065,-1.11462 -38.77712,-0.0838 -58.13665,-0.79657 -8.05928,-1.67806 -16.19399,-2.98412 -24.46262,-2.4376 -13.40136,0.2298 -26.84306,-0.47029 -40.21881,0.37774 -7.13814,0.70615 -12.91349,5.95337 -20.22458,5.96228 -2.6685,0.27672 -5.35304,0.3721 -8.0348,0.37356 z"
                 id="path5125"
                 inkscape:connector-curvature="0" />
              <path
                 style="fill:#000000;fill-opacity:1;fill-rule:nonzero;stroke:none"
                 id="path5127"
                 d="m 879.27006,650.36101 c 2.55116,3.91428 4.58693,8.13376 6.90654,12.17843 4.15735,3.4787 8.61099,6.02195 12.12959,10.17099 2.92091,4.50472 6.49041,8.40163 10.60966,11.82543 5.93666,5.67974 10.47721,12.07611 17.97289,15.69812 5.1091,0.89271 8.80632,4.3926 13.05109,7.04233 l -2.12434,1.37059 c -4.22353,-2.6538 -7.91741,-6.10603 -13.00539,-7.00922 -7.47251,-3.70145 -12.07097,-10.0771 -18.02357,-15.76784 -4.13542,-3.44738 -7.73757,-7.36215 -10.67128,-11.89357 -3.51993,-4.13197 -8.00915,-6.62863 -12.1099,-10.15346 -2.34211,-4.09397 -4.39913,-8.36024 -7.01098,-12.30228 l 2.27569,-1.15952 z"
                 inkscape:connector-curvature="0" />
              <path
                 style="fill:#000000;fill-opacity:1;fill-rule:nonzero;stroke:none"
                 id="path5129"
                 d="m 873.95513,664.79934 c 5.5475,3.33969 9.71982,7.93819 13.2171,13.28517 3.02249,4.18675 7.75411,6.55332 11.65801,9.86355 2.40691,4.10072 5.21986,7.71577 8.48253,11.16326 4.59275,3.14993 10.0093,4.13223 14.76595,6.86863 0.48579,0.49351 1.05032,0.89446 1.57548,1.34169 l -2.14096,1.34166 c -0.52062,-0.44139 -1.06975,-0.84915 -1.56185,-1.32417 -4.77271,-2.70053 -10.2305,-3.68146 -14.78561,-6.90028 -3.26161,-3.45252 -6.08085,-7.06861 -8.49019,-11.16944 -3.92194,-3.3174 -8.69037,-5.68284 -11.68788,-9.92083 -3.43804,-5.28108 -7.53234,-9.90924 -13.09887,-13.048 l 2.06629,-1.50124 z"
                 inkscape:connector-curvature="0" />
              <path
                 style="fill:#000000;fill-opacity:1;fill-rule:nonzero;stroke:none"
                 id="path5131"
                 d="m 867.18567,677.2152 c 3.85248,5.61273 9.77309,8.91663 15.75032,11.87677 5.39588,2.35869 9.53008,6.43835 13.34667,10.79332 1.94702,2.69228 4.50642,4.56466 7.11595,6.44772 l -2.10536,1.39735 c -2.62399,-1.92986 -5.20865,-3.83495 -7.17864,-6.54733 -3.78796,-4.3293 -7.89832,-8.37071 -13.2676,-10.69586 -6.05411,-3.0267 -12.03023,-6.41967 -15.93703,-12.11245 l 2.27569,-1.15952 z"
                 inkscape:connector-curvature="0" />
              <path
                 style="fill:#000000;fill-opacity:1;fill-rule:nonzero;stroke:none"
                 id="path5133"
                 d="m 867.24158,694.33896 c 4.25306,1.9074 8.40864,4.14129 12.42286,6.4343 2.43949,2.31313 5.44104,3.16348 8.55993,4.06233 l -2.07733,1.44546 c -3.13973,-0.94631 -6.18291,-1.83179 -8.64163,-4.17373 -3.97851,-2.25056 -8.06909,-4.51862 -12.33011,-6.26712 l 2.06628,-1.50124 z"
                 inkscape:connector-curvature="0" />
              <path
                 style="fill:#000000;fill-opacity:1;fill-rule:nonzero;stroke:none"
                 id="path5135"
                 d="m 867.24158,705.08064 c 4.77308,0.0154 9.54623,0.0111 14.31934,0.0112 l -2.03544,1.47883 c -4.78339,1.3e-4 -9.56681,-0.004 -14.35018,0.0112 l 2.06628,-1.50124 z"
                 inkscape:connector-curvature="0" />
              <path
                 style="fill:#000000;fill-opacity:1;fill-rule:nonzero;stroke:none"
                 id="path5137"
                 d="m 892.80786,651.61678 c 1.62207,4.62918 4.57225,7.12284 8.40099,9.75467 4.991,1.99972 7.04314,6.52617 9.41997,11.00553 3.41237,4.97169 6.70747,9.9631 9.58932,15.24915 2.13847,4.72665 6.68352,6.12238 10.87369,8.51615 3.38749,4.95261 6.34144,9.08789 11.56327,12.21994 1.13542,0.33011 1.62979,1.45153 2.42376,2.15866 l -2.18845,1.30014 c -0.77075,-0.68488 -1.24983,-1.78643 -2.3624,-2.09918 -5.2021,-3.14524 -8.16897,-7.28871 -11.5611,-12.21655 -4.24107,-2.39574 -8.79093,-3.84358 -10.9365,-8.62399 -2.88079,-5.282 -6.15889,-10.28293 -9.58628,-15.24055 -2.35758,-4.43678 -4.36783,-8.91733 -9.33552,-10.86578 -3.82247,-2.6711 -6.82594,-5.19869 -8.47663,-9.8248 l 2.17588,-1.33339 z"
                 inkscape:connector-curvature="0" />
            </g>
            <g
               id="g5139"
               transform="matrix(0.994176,0,0,0.93832,-109.3374,128.7291)">
              <path
                 id="path5141"
                 d="m 789.51336,716.57295 c 7.08867,-6.28688 11.15228,-14.9704 15.91742,-22.94347 3.93366,-5.61906 10.7418,-7.70497 16.86917,-9.85025 4.89167,-5.36444 7.18113,-12.72509 9.45326,-19.52464 1.12982,-6.87416 5.11558,-12.71438 9.937,-17.54451 3.50787,-5.74163 5.49798,-13.06359 12.06472,-16.22694 6.2654,-1.89185 13.42834,-0.14336 18.3721,-5.26816 8.37197,0.75925 11.90017,9.73418 15.40415,16.1662 3.82004,6.17925 11.43537,8.53704 15.61323,14.48032 5.11465,5.42104 9.3161,12.09971 16.29306,15.30318 5.8988,6.6032 7.51897,16.21327 14.54875,22.02708 4.45892,4.8504 10.74682,7.15832 16.01827,10.83838 5.05425,6.3482 -3.57702,11.14696 -9.41367,9.0634 -19.36065,-1.11462 -38.77712,-0.0838 -58.13665,-0.79657 -8.05928,-1.67806 -16.19399,-2.98412 -24.46262,-2.4376 -13.40136,0.2298 -26.84306,-0.47029 -40.21881,0.37774 -7.13814,0.70615 -12.91349,5.95337 -20.22458,5.96228 -2.6685,0.27672 -5.35304,0.3721 -8.0348,0.37356 z"
                 style="fill:#1c7c2f;fill-opacity:1;fill-rule:evenodd;stroke:#000000;stroke-width:1px;stroke-linecap:butt;stroke-linejoin:miter;stroke-opacity:1"
                 inkscape:connector-curvature="0" />
              <path
                 d="m 879.27006,650.36101 c 2.55116,3.91428 4.58693,8.13376 6.90654,12.17843 4.15735,3.4787 8.61099,6.02195 12.12959,10.17099 2.92091,4.50472 6.49041,8.40163 10.60966,11.82543 5.93666,5.67974 10.47721,12.07611 17.97289,15.69812 5.1091,0.89271 8.80632,4.3926 13.05109,7.04233 l -2.12434,1.37059 c -4.22353,-2.6538 -7.91741,-6.10603 -13.00539,-7.00922 -7.47251,-3.70145 -12.07097,-10.0771 -18.02357,-15.76784 -4.13542,-3.44738 -7.73757,-7.36215 -10.67128,-11.89357 -3.51993,-4.13197 -8.00915,-6.62863 -12.1099,-10.15346 -2.34211,-4.09397 -4.39913,-8.36024 -7.01098,-12.30228 l 2.27569,-1.15952 z"
                 id="path5143"
                 style="fill:#000000;fill-opacity:1;fill-rule:nonzero;stroke:none"
                 inkscape:connector-curvature="0" />
              <path
                 d="m 873.95513,664.79934 c 5.5475,3.33969 9.71982,7.93819 13.2171,13.28517 3.02249,4.18675 7.75411,6.55332 11.65801,9.86355 2.40691,4.10072 5.21986,7.71577 8.48253,11.16326 4.59275,3.14993 10.0093,4.13223 14.76595,6.86863 0.48579,0.49351 1.05032,0.89446 1.57548,1.34169 l -2.14096,1.34166 c -0.52062,-0.44139 -1.06975,-0.84915 -1.56185,-1.32417 -4.77271,-2.70053 -10.2305,-3.68146 -14.78561,-6.90028 -3.26161,-3.45252 -6.08085,-7.06861 -8.49019,-11.16944 -3.92194,-3.3174 -8.69037,-5.68284 -11.68788,-9.92083 -3.43804,-5.28108 -7.53234,-9.90924 -13.09887,-13.048 l 2.06629,-1.50124 z"
                 id="path5145"
                 style="fill:#000000;fill-opacity:1;fill-rule:nonzero;stroke:none"
                 inkscape:connector-curvature="0" />
              <path
                 d="m 867.18567,677.2152 c 3.85248,5.61273 9.77309,8.91663 15.75032,11.87677 5.39588,2.35869 9.53008,6.43835 13.34667,10.79332 1.94702,2.69228 4.50642,4.56466 7.11595,6.44772 l -2.10536,1.39735 c -2.62399,-1.92986 -5.20865,-3.83495 -7.17864,-6.54733 -3.78796,-4.3293 -7.89832,-8.37071 -13.2676,-10.69586 -6.05411,-3.0267 -12.03023,-6.41967 -15.93703,-12.11245 l 2.27569,-1.15952 z"
                 id="path5147"
                 style="fill:#000000;fill-opacity:1;fill-rule:nonzero;stroke:none"
                 inkscape:connector-curvature="0" />
              <path
                 d="m 867.24158,694.33896 c 4.25306,1.9074 8.40864,4.14129 12.42286,6.4343 2.43949,2.31313 5.44104,3.16348 8.55993,4.06233 l -2.07733,1.44546 c -3.13973,-0.94631 -6.18291,-1.83179 -8.64163,-4.17373 -3.97851,-2.25056 -8.06909,-4.51862 -12.33011,-6.26712 l 2.06628,-1.50124 z"
                 id="path5149"
                 style="fill:#000000;fill-opacity:1;fill-rule:nonzero;stroke:none"
                 inkscape:connector-curvature="0" />
              <path
                 d="m 867.24158,705.08064 c 4.77308,0.0154 9.54623,0.0111 14.31934,0.0112 l -2.03544,1.47883 c -4.78339,1.3e-4 -9.56681,-0.004 -14.35018,0.0112 l 2.06628,-1.50124 z"
                 id="path5151"
                 style="fill:#000000;fill-opacity:1;fill-rule:nonzero;stroke:none"
                 inkscape:connector-curvature="0" />
              <path
                 d="m 892.80786,651.61678 c 1.62207,4.62918 4.57225,7.12284 8.40099,9.75467 4.991,1.99972 7.04314,6.52617 9.41997,11.00553 3.41237,4.97169 6.70747,9.9631 9.58932,15.24915 2.13847,4.72665 6.68352,6.12238 10.87369,8.51615 3.38749,4.95261 6.34144,9.08789 11.56327,12.21994 1.13542,0.33011 1.62979,1.45153 2.42376,2.15866 l -2.18845,1.30014 c -0.77075,-0.68488 -1.24983,-1.78643 -2.3624,-2.09918 -5.2021,-3.14524 -8.16897,-7.28871 -11.5611,-12.21655 -4.24107,-2.39574 -8.79093,-3.84358 -10.9365,-8.62399 -2.88079,-5.282 -6.15889,-10.28293 -9.58628,-15.24055 -2.35758,-4.43678 -4.36783,-8.91733 -9.33552,-10.86578 -3.82247,-2.6711 -6.82594,-5.19869 -8.47663,-9.8248 l 2.17588,-1.33339 z"
                 id="path5153"
                 style="fill:#000000;fill-opacity:1;fill-rule:nonzero;stroke:none"
                 inkscape:connector-curvature="0" />
            </g>
            <g
               transform="translate(-202.2306,91.14616)"
               id="g5155">
              <path
                 style="fill:#1c7c2f;fill-opacity:1;fill-rule:evenodd;stroke:#000000;stroke-width:1px;stroke-linecap:butt;stroke-linejoin:miter;stroke-opacity:1"
                 d="m 789.51336,716.57295 c 7.08867,-6.28688 11.15228,-14.9704 15.91742,-22.94347 3.93366,-5.61906 10.7418,-7.70497 16.86917,-9.85025 4.89167,-5.36444 7.18113,-12.72509 9.45326,-19.52464 1.12982,-6.87416 5.11558,-12.71438 9.937,-17.54451 3.50787,-5.74163 5.49798,-13.06359 12.06472,-16.22694 6.2654,-1.89185 13.42834,-0.14336 18.3721,-5.26816 8.37197,0.75925 11.90017,9.73418 15.40415,16.1662 3.82004,6.17925 11.43537,8.53704 15.61323,14.48032 5.11465,5.42104 9.3161,12.09971 16.29306,15.30318 5.8988,6.6032 7.51897,16.21327 14.54875,22.02708 4.45892,4.8504 10.74682,7.15832 16.01827,10.83838 5.05425,6.3482 -3.57702,11.14696 -9.41367,9.0634 -19.36065,-1.11462 -38.77712,-0.0838 -58.13665,-0.79657 -8.05928,-1.67806 -16.19399,-2.98412 -24.46262,-2.4376 -13.40136,0.2298 -26.84306,-0.47029 -40.21881,0.37774 -7.13814,0.70615 -12.91349,5.95337 -20.22458,5.96228 -2.6685,0.27672 -5.35304,0.3721 -8.0348,0.37356 z"
                 id="path5157"
                 inkscape:connector-curvature="0" />
              <path
                 style="fill:#000000;fill-opacity:1;fill-rule:nonzero;stroke:none"
                 id="path5159"
                 d="m 879.27006,650.36101 c 2.55116,3.91428 4.58693,8.13376 6.90654,12.17843 4.15735,3.4787 8.61099,6.02195 12.12959,10.17099 2.92091,4.50472 6.49041,8.40163 10.60966,11.82543 5.93666,5.67974 10.47721,12.07611 17.97289,15.69812 5.1091,0.89271 8.80632,4.3926 13.05109,7.04233 l -2.12434,1.37059 c -4.22353,-2.6538 -7.91741,-6.10603 -13.00539,-7.00922 -7.47251,-3.70145 -12.07097,-10.0771 -18.02357,-15.76784 -4.13542,-3.44738 -7.73757,-7.36215 -10.67128,-11.89357 -3.51993,-4.13197 -8.00915,-6.62863 -12.1099,-10.15346 -2.34211,-4.09397 -4.39913,-8.36024 -7.01098,-12.30228 l 2.27569,-1.15952 z"
                 inkscape:connector-curvature="0" />
              <path
                 style="fill:#000000;fill-opacity:1;fill-rule:nonzero;stroke:none"
                 id="path5161"
                 d="m 873.95513,664.79934 c 5.5475,3.33969 9.71982,7.93819 13.2171,13.28517 3.02249,4.18675 7.75411,6.55332 11.65801,9.86355 2.40691,4.10072 5.21986,7.71577 8.48253,11.16326 4.59275,3.14993 10.0093,4.13223 14.76595,6.86863 0.48579,0.49351 1.05032,0.89446 1.57548,1.34169 l -2.14096,1.34166 c -0.52062,-0.44139 -1.06975,-0.84915 -1.56185,-1.32417 -4.77271,-2.70053 -10.2305,-3.68146 -14.78561,-6.90028 -3.26161,-3.45252 -6.08085,-7.06861 -8.49019,-11.16944 -3.92194,-3.3174 -8.69037,-5.68284 -11.68788,-9.92083 -3.43804,-5.28108 -7.53234,-9.90924 -13.09887,-13.048 l 2.06629,-1.50124 z"
                 inkscape:connector-curvature="0" />
              <path
                 style="fill:#000000;fill-opacity:1;fill-rule:nonzero;stroke:none"
                 id="path5163"
                 d="m 867.18567,677.2152 c 3.85248,5.61273 9.77309,8.91663 15.75032,11.87677 5.39588,2.35869 9.53008,6.43835 13.34667,10.79332 1.94702,2.69228 4.50642,4.56466 7.11595,6.44772 l -2.10536,1.39735 c -2.62399,-1.92986 -5.20865,-3.83495 -7.17864,-6.54733 -3.78796,-4.3293 -7.89832,-8.37071 -13.2676,-10.69586 -6.05411,-3.0267 -12.03023,-6.41967 -15.93703,-12.11245 l 2.27569,-1.15952 z"
                 inkscape:connector-curvature="0" />
              <path
                 style="fill:#000000;fill-opacity:1;fill-rule:nonzero;stroke:none"
                 id="path5165"
                 d="m 867.24158,694.33896 c 4.25306,1.9074 8.40864,4.14129 12.42286,6.4343 2.43949,2.31313 5.44104,3.16348 8.55993,4.06233 l -2.07733,1.44546 c -3.13973,-0.94631 -6.18291,-1.83179 -8.64163,-4.17373 -3.97851,-2.25056 -8.06909,-4.51862 -12.33011,-6.26712 l 2.06628,-1.50124 z"
                 inkscape:connector-curvature="0" />
              <path
                 style="fill:#000000;fill-opacity:1;fill-rule:nonzero;stroke:none"
                 id="path5167"
                 d="m 867.24158,705.08064 c 4.77308,0.0154 9.54623,0.0111 14.31934,0.0112 l -2.03544,1.47883 c -4.78339,1.3e-4 -9.56681,-0.004 -14.35018,0.0112 l 2.06628,-1.50124 z"
                 inkscape:connector-curvature="0" />
              <path
                 style="fill:#000000;fill-opacity:1;fill-rule:nonzero;stroke:none"
                 id="path5169"
                 d="m 892.80786,651.61678 c 1.62207,4.62918 4.57225,7.12284 8.40099,9.75467 4.991,1.99972 7.04314,6.52617 9.41997,11.00553 3.41237,4.97169 6.70747,9.9631 9.58932,15.24915 2.13847,4.72665 6.68352,6.12238 10.87369,8.51615 3.38749,4.95261 6.34144,9.08789 11.56327,12.21994 1.13542,0.33011 1.62979,1.45153 2.42376,2.15866 l -2.18845,1.30014 c -0.77075,-0.68488 -1.24983,-1.78643 -2.3624,-2.09918 -5.2021,-3.14524 -8.16897,-7.28871 -11.5611,-12.21655 -4.24107,-2.39574 -8.79093,-3.84358 -10.9365,-8.62399 -2.88079,-5.282 -6.15889,-10.28293 -9.58628,-15.24055 -2.35758,-4.43678 -4.36783,-8.91733 -9.33552,-10.86578 -3.82247,-2.6711 -6.82594,-5.19869 -8.47663,-9.8248 l 2.17588,-1.33339 z"
                 inkscape:connector-curvature="0" />
            </g>
          </g>
        </g>
        <path
           d="m 227.65475,792.28979 c 5.49737,-1.58602 10.81635,-1.1229 16.4757,-0.46708 l -2.90078,2.06199 c -5.67779,-0.63871 -10.96103,-0.95589 -16.49708,0.52817 l 2.92216,-2.12308 z"
           id="path12646"
           style="fill:#000000;fill-opacity:1;fill-rule:nonzero;stroke:none"
           inkscape:connector-curvature="0" />
        <path
           d="m 227.65475,815.07633 c 7.43116,-0.52705 14.2783,0.18411 21.33892,2.29837 7.90285,2.46721 15.11244,1.33857 22.681,-1.3444 8.45486,-0.0632 16.55484,0.96867 24.52825,3.70378 8.12226,0.787 4.95618,0.52437 10.36788,-2.1558 l 3.32393,-1.28531 c -5.42424,3.25762 -10.01845,7.39483 -16.63394,5.455 -7.92517,-2.70018 -16.019,-3.76382 -24.41554,-3.54094 -7.62355,2.66431 -14.88213,3.69695 -22.80428,1.16598 -7.04703,-2.06444 -13.90624,-2.71406 -21.30838,-2.1736 l 2.92216,-2.12308 z"
           id="path12648"
           style="fill:#000000;fill-opacity:1;fill-rule:nonzero;stroke:none"
           inkscape:connector-curvature="0" />
        <path
           d="m 345.38521,818.87409 c 7.16744,-0.68218 13.70334,-1.84086 20.85111,-0.73504 8.81175,3.31939 16.34543,2.51179 24.85723,-0.4281 8.67496,-1.76486 17.22799,0.15171 25.85969,0.96935 0.63294,0.0299 1.26588,0.0599 1.89882,0.0898 l -2.88895,2.07747 c -0.63438,-0.032 -1.26875,-0.064 -1.90313,-0.096 -8.61092,-0.84895 -17.15827,-2.72039 -25.80365,-0.87584 -8.52567,3.01776 -16.14785,3.52794 -24.9433,0.27177 -7.13365,-0.98864 -13.69595,0.24995 -20.84998,0.84964 l 2.92216,-2.12308 z"
           id="path12650"
           style="fill:#000000;fill-opacity:1;fill-rule:nonzero;stroke:none"
           inkscape:connector-curvature="0" />
        <path
           d="m 437.03176,812.93288 c 7.29981,-5.05473 15.34686,-3.72199 23.57579,-1.27201 7.67597,2.74798 14.05808,0.16259 21.35931,-1.80848 l -2.85,2.14398 c -7.32025,2.0877 -13.75522,4.43595 -21.44347,1.67266 -5.44297,-1.59156 -19.81946,-2.19503 -17.42332,-2.37596 l -3.21831,1.63981 z"
           id="path12652"
           style="fill:#000000;fill-opacity:1;fill-rule:nonzero;stroke:none"
           inkscape:connector-curvature="0" />
        <path
           d="m 509.3583,820.39904 c 7.13466,-3.78553 8.36218,-7.27688 21.61308,-9.01356 8.29404,2.5754 15.86335,5.10033 24.62605,5.60846 1.61864,-0.13832 3.18641,-0.57557 4.7795,-0.86334 l -2.84401,2.15432 c -1.60581,0.26469 -3.18148,0.74299 -4.82026,0.79452 -8.74,-0.54978 -16.30253,-3.1739 -24.60911,-5.58198 -12.04217,1.72888 -10.73581,2.98728 -15.41098,5.52048 l -3.33427,1.3811 z"
           id="path12654"
           style="fill:#000000;fill-opacity:1;fill-rule:nonzero;stroke:none"
           inkscape:connector-curvature="0" />
        <path
           d="m 552.36296,805.58194 c 6.79943,0.43416 13.11456,-2.05136 19.6892,-3.15059 7.05163,3.78955 12.88377,6.39661 21.23049,6.72406 1.58696,-0.32412 3.1839,-0.59377 4.77575,-0.89063 l -2.84866,2.14617 c -1.59685,0.29015 -3.19028,0.5967 -4.79006,0.87037 -8.26661,-0.4258 -14.23987,-3.08137 -21.24939,-6.75321 -6.55972,1.21321 -12.91873,3.63498 -19.72949,3.17691 l 2.92216,-2.12308 z"
           id="path12656"
           style="fill:#000000;fill-opacity:1;fill-rule:nonzero;stroke:none"
           inkscape:connector-curvature="0" />
        <path
           d="m 615.69549,818.50016 c 4.84911,-6.87331 11.42271,-9.83897 19.49156,-10.68151 7.80922,4.02939 13.9464,6.72677 22.88258,6.38991 8.33516,-1.6919 15.93904,-0.9287 23.82813,1.84235 4.03093,1.42355 7.2641,0.14717 11.10221,-0.78602 l -2.80996,2.19409 c -3.87847,0.84968 -7.19875,2.08737 -11.23664,0.61058 -7.86577,-2.74102 -15.43903,-3.4218 -23.734,-1.73129 -8.98973,0.73529 -15.07174,-2.88168 -22.93436,-6.44213 -8.70179,1.08829 -6.80735,-0.23842 -13.25525,7.22292 l -3.33427,1.3811 z"
           id="path12658"
           style="fill:#000000;fill-opacity:1;fill-rule:nonzero;stroke:none"
           inkscape:connector-curvature="0" />
        <path
           d="m 664.39679,805.58194 c 11.2513,-4.7207 8.12714,-3.84198 17.83348,-9.62241 6.18761,1.96426 12.44337,3.6272 19.52226,3.9521 4.24149,0.49212 8.28955,-0.33284 12.43517,-0.89157 l -2.84339,2.1546 c -4.155,0.51851 -8.23365,1.30037 -12.47496,0.82396 -7.01248,-0.35037 -13.2663,-2.20424 -19.41703,-3.79987 -1.38678,0.85719 -8.03209,5.99669 -17.9777,9.50627 l 2.92217,-2.12308 z"
           id="path12660"
           style="fill:#000000;fill-opacity:1;fill-rule:nonzero;stroke:none"
           inkscape:connector-curvature="0" />
        <path
           d="m 717.56538,816.97521 c -7.1085,2.47109 7.28602,-6.11426 16.31151,-7.22094 4.03029,1.21716 7.9139,3.0365 11.87277,4.55315 l -2.93286,2.02276 c -3.92291,-1.53641 -7.79899,-3.39602 -11.83766,-4.49438 -9.57001,1.35963 -11.72696,4.14096 -16.33592,7.26249 l 2.92216,-2.12308 z"
           id="path12662"
           style="fill:#000000;fill-opacity:1;fill-rule:nonzero;stroke:none"
           inkscape:connector-curvature="0" />
      </g>
      <path
         style="fill:#ffffff;fill-opacity:1;fill-rule:nonzero;stroke:none"
         id="path12731"
         d="m 250.44129,767.60437 c 6.19728,-1.0145 12.48354,-2.01468 18.62304,-3.54297 6.41233,-0.76213 12.02578,2.78895 18.80758,3.49516 6.53446,0.64795 12.86281,-0.51961 19.27647,-1.50364 l -2.86112,2.12484 c -6.41922,1.01521 -12.76569,2.1095 -19.30664,1.45772 -6.71831,-0.75163 -12.35204,-4.36829 -18.73739,-3.38505 -6.17691,1.49671 -12.48068,2.51991 -18.7241,3.47702 l 2.92216,-2.12308 z"
         inkscape:connector-curvature="0" />
      <path
         style="fill:#ffffff;fill-opacity:1;fill-rule:nonzero;stroke:none"
         id="path12733"
         d="m 406.14932,761.90774 c 7.24174,-0.14094 14.469,0.0116 21.6448,0.58201 8.82008,1.3428 17.69514,1.60408 26.5571,2.73668 11.85416,1.60122 9.19312,-1.82121 21.08841,-5.60083 8.00365,-2.05826 16.39869,-1.52088 24.60295,-1.51569 l -2.89106,2.09942 c -8.18343,-0.0128 -16.56833,-0.56 -24.52979,1.61056 -5.80598,1.89714 -10.36831,6.71706 -21.16535,5.46254 -8.8709,-1.14873 -17.7659,-1.33865 -26.58825,-2.75227 -7.17801,-0.52235 -14.40591,-0.66849 -21.64097,-0.49935 l 2.92216,-2.12307 z"
         inkscape:connector-curvature="0" />
      <path
         style="fill:#ffffff;fill-opacity:1;fill-rule:nonzero;stroke:none"
         id="path12735"
         d="m 556.16072,752.41334 c 7.38722,0.0227 14.77451,0.0158 22.16176,0.0158 8.8764,0.7758 17.66576,1.76046 26.61939,1.90753 12.23902,-0.19869 13.38236,2.35073 16.36974,-5.35998 6.78678,-7.47987 15.92069,-6.12402 25.37244,-6.07386 6.34043,0.0339 12.68098,0.0311 19.02148,0.0322 l -2.87889,2.09161 c -6.3408,-0.001 -12.68164,10e-4 -19.02236,-0.034 -8.85613,-0.0448 -17.14899,-1.10996 -19.26512,2.4571 -3.8045,10.60973 -12.54143,9.26091 -22.47742,8.97681 -8.956,-0.11685 -17.73201,-1.23154 -26.61783,-1.90605 -7.40178,6e-5 -14.80361,-0.007 -22.20536,0.0158 l 2.92217,-2.12308 z"
         inkscape:connector-curvature="0" />
    </g>
    <g
       transform="matrix(0.486633,-0.01225809,0.01225809,0.486633,370.8275,253.6393)"
       id="g13136">
      <g
         id="g12911"
         style="fill:#000000;fill-opacity:1;stroke:none">
        <path
           id="flowRoot12808"
           d="m 645.5222,846.1396 8.05826,14.73212 -15.58405,32.79277 c 0.81116,1.354 1.45415,2.46509 1.929,3.33328 0.19297,0.35272 0.40073,0.73255 0.62329,1.1395 0.19552,0.42181 0.39841,0.85718 0.60869,1.30611 l 16.0344,-8.77058 c 3.47279,-1.89955 5.42194,-3.45918 5.84745,-4.67891 0.62985,-1.68392 0.38084,-3.55688 -0.74703,-5.61885 l -1.1798,-2.15692 1.50577,-0.82363 12.93328,23.64465 -1.50577,0.82363 -1.13528,-2.07552 c -1.27626,-2.33326 -2.9486,-3.58628 -5.01703,-3.75907 -1.1527,-0.10971 -3.30264,0.69618 -6.44986,2.41764 l -35.6501,19.50009 c -3.47271,1.89955 -5.42186,3.45918 -5.84745,4.67891 -0.61494,1.71106 -0.35108,3.61113 0.79156,5.70024 l 1.13528,2.07552 -1.50577,0.82364 -10.99663,-20.10405 c -3.20543,-5.8603 -5.13093,-10.41157 -5.77652,-13.65382 -0.68741,-3.25453 -0.40491,-6.47566 0.84749,-9.66339 1.21057,-3.19999 3.40299,-5.66815 6.57724,-7.40448 3.39144,-1.85501 6.9436,-2.35281 10.65649,-1.49339 3.69816,0.83232 7.33154,3.28622 10.90015,7.36166 l 9.59803,-20.05431 c 2.21091,-4.59312 3.40125,-8.15221 3.57101,-10.67726 0.16981,-2.52496 -0.40614,-5.38227 -1.72787,-8.57195 l 1.50577,-0.82363 m -6.9287,54.70619 c -0.28191,-0.51549 -0.51322,-0.97057 -0.69389,-1.36524 -0.20773,-0.37983 -0.37839,-0.69184 -0.51199,-0.93602 -2.87897,-5.26341 -6.18514,-8.60124 -9.91853,-10.01351 -3.74814,-1.43936 -7.38574,-1.19444 -10.91282,0.73478 -3.44558,1.88472 -5.64646,4.49851 -6.60265,7.84136 -0.99804,3.33057 -0.52504,6.77292 1.41897,10.32709 0.86079,1.57358 2.2835,3.56238 4.2681,5.9664 l 22.95281,-12.55486"
           style="font-size:95px;font-style:normal;font-variant:normal;font-weight:normal;font-stretch:normal;text-align:start;line-height:100%;writing-mode:lr-tb;text-anchor:start;fill:#000000;fill-opacity:1;stroke:none;font-family:Times New Roman"
           inkscape:connector-curvature="0" />
        <path
           id="flowRoot12816"
           d="m 605.88948,784.1121 17.98998,-3.47617 c 3.88646,-0.75096 6.21816,-1.64246 6.99512,-2.67452 1.11303,-1.41191 1.44366,-3.28684 0.9919,-5.62481 l -0.45762,-2.3683 1.68514,-0.32561 5.11306,26.46121 -1.68514,0.32561 -0.44882,-2.32275 c -0.50456,-2.6112 -1.71553,-4.31423 -3.63294,-5.10912 -1.05858,-0.42537 -3.34892,-0.29778 -6.87102,0.38278 l -39.89676,7.7092 c -3.88639,0.75097 -6.22103,1.62729 -7.00393,2.62897 -1.1071,1.44229 -1.43479,3.3324 -0.98309,5.67035 l 0.44882,2.32275 -1.68514,0.32562 -4.37382,-22.6355 c -1.06773,-5.52601 -1.33275,-9.99455 -0.79506,-13.40562 0.50747,-3.40515 1.9011,-6.46187 4.1809,-9.17019 2.27994,-2.70824 5.272,-4.42027 8.97621,-5.13608 5.04028,-0.97387 9.46194,-0.096 13.265,2.63375 3.79728,2.69942 6.28259,7.08539 7.45594,13.15793 0.28752,1.4878 0.4922,3.11756 0.61404,4.8893 0.12191,1.77176 0.16098,3.6855 0.11723,5.7412 m -2.59602,0.50163 c -0.007,-1.66789 -0.0553,-3.13894 -0.14408,-4.41317 -0.0887,-1.27419 -0.21814,-2.35156 -0.38832,-3.2321 -0.61013,-3.15771 -2.34973,-5.64051 -5.21882,-7.44839 -2.90523,-1.83232 -6.3011,-2.37301 -10.18758,-1.62207 -2.67188,0.51633 -5.04084,1.54101 -7.1069,3.07407 -2.0963,1.53898 -3.51259,3.41897 -4.24885,5.63997 -0.76651,2.22691 -0.90338,4.61559 -0.41062,7.16606 0.29928,1.54851 0.97201,3.48154 2.0182,5.79909 l 25.68697,-4.96346"
           style="font-size:95px;font-style:normal;font-variant:normal;font-weight:normal;font-stretch:normal;text-align:start;line-height:100%;writing-mode:lr-tb;text-anchor:start;fill:#000000;fill-opacity:1;stroke:none;font-family:Times New Roman"
           inkscape:connector-curvature="0" />
        <path
           id="flowRoot12824"
           d="m 589.49254,848.41314 23.81975,-7.12756 -3.9627,-13.24307 c -1.02831,-3.43665 -2.23382,-5.57756 -3.61653,-6.42276 -1.82376,-1.13275 -4.4806,-1.27385 -7.97052,-0.42328 l -0.49202,-1.64428 20.97561,-6.2765 0.49201,1.64428 c -2.80888,1.29245 -4.56605,2.27015 -5.27152,2.93312 -0.87732,0.84358 -1.43053,1.96135 -1.65963,3.35332 -0.22902,1.39202 0.0332,3.34714 0.7867,5.86537 l 3.96271,13.24307 19.86462,-5.94406 c 2.6664,-0.79784 4.2604,-1.40392 4.78199,-1.81826 0.492,-0.40542 0.82709,-0.95761 1.0053,-1.65654 0.14861,-0.69003 -0.0253,-1.86459 -0.52178,-3.52371 l -3.05846,-10.22116 c -1.01948,-3.40702 -1.99673,-5.80991 -2.93176,-7.20869 -0.93499,-1.39869 -2.31148,-2.60078 -4.12947,-3.60623 -2.38646,-1.28717 -5.71948,-2.33956 -9.99906,-3.15719 l -0.5319,-1.7776 16.66537,0.67826 13.89607,46.43963 -1.64427,0.49201 -0.63829,-2.13311 c -0.42552,-1.42207 -1.16959,-2.66813 -2.23221,-3.73818 -0.7577,-0.8062 -1.65933,-1.23041 -2.70491,-1.27263 -1.05442,-0.0718 -3.04815,0.33109 -5.98119,1.20872 l -39.1515,11.71525 c -3.82177,1.1436 -6.06184,2.23352 -6.7202,3.26977 -0.86586,1.42116 -0.92648,3.37605 -0.18187,5.8647 l 0.63829,2.13311 -1.64428,0.49201 -13.89607,-46.43963 12.99917,-4.61601 0.51861,1.73315 c -2.98381,1.57076 -4.95302,2.91857 -5.90767,4.04343 -0.96336,1.09529 -1.53453,2.47668 -1.7135,4.14415 -0.0897,1.31806 0.31307,3.47322 1.20837,6.46547 l 4.94674,16.53163"
           style="font-size:95px;font-style:normal;font-variant:normal;font-weight:normal;font-stretch:normal;text-align:start;line-height:100%;writing-mode:lr-tb;text-anchor:start;fill:#000000;fill-opacity:1;stroke:none;font-family:Times New Roman"
           inkscape:connector-curvature="0" />
        <path
           id="flowRoot12832"
           d="m 625.11004,587.39838 0.62716,-1.43365 15.63187,8.71747 -9.83655,47.70242 -1.68095,-0.34662 0.47778,-2.31697 c 0.5371,-2.6047 0.0732,-4.64223 -1.39186,-6.11261 -0.83803,-0.83588 -3.01371,-1.61605 -6.52703,-2.34054 l -39.75203,-8.19713 c -3.84644,-0.79314 -6.3417,-0.86563 -7.48582,-0.21747 -1.57616,0.90643 -2.60471,2.52568 -3.08567,4.85778 l -0.47777,2.31698 -1.68095,-0.34662 5.75204,-27.89456 1.68095,0.34662 c -0.70474,3.26481 -0.87652,5.6291 -0.51534,7.09286 0.36753,1.43354 0.98591,2.49252 1.85511,3.17693 0.86932,0.68448 3.13633,1.40455 6.80104,2.16022 l 38.70712,7.98166 c 2.51385,0.51839 4.29018,0.63209 5.32901,0.34108 0.71098,-0.23228 1.29597,-0.69579 1.75498,-1.39053 0.45901,-0.69471 1.09759,-3.02589 1.91574,-6.99354 l 0.92745,-4.49766 c 0.97428,-4.72477 1.30985,-8.11305 1.00671,-10.16484 -0.30315,-2.05168 -1.17067,-4.04614 -2.60256,-5.98336 -1.4622,-1.94337 -3.939,-4.09601 -7.43043,-6.45792"
           style="font-size:95px;font-style:normal;font-variant:normal;font-weight:normal;font-stretch:normal;text-align:start;line-height:100%;writing-mode:lr-tb;text-anchor:start;fill:#000000;fill-opacity:1;stroke:none;font-family:Times New Roman"
           inkscape:connector-curvature="0" />
        <path
           id="flowRoot12840"
           d="m 594.76574,652.52073 c 1.41465,-4.22749 3.25825,-7.30135 5.53084,-9.22155 3.16587,-2.65883 6.7921,-3.75585 10.87869,-3.29104 3.10337,0.35308 5.97197,1.67537 8.60581,3.96685 2.60313,2.2881 4.36957,5.22795 5.29933,8.81954 0.90253,3.55747 0.95359,8.85433 0.15318,15.89062 l -3.35545,29.49726 -1.70531,-0.19398 0.26739,-2.35056 c 0.2971,-2.61174 -0.31929,-4.58041 -1.8492,-5.90604 -0.99502,-0.82902 -3.24394,-1.44277 -6.74674,-1.84125 l -40.37439,-4.59277 c -3.87145,-0.44037 -6.36488,-0.27272 -7.48026,0.50299 -1.48822,1.04454 -2.36692,2.74977 -2.63612,5.11569 l -0.26738,2.35056 -1.70532,-0.19399 3.07233,-27.00843 c 0.57328,-5.03908 1.40163,-9.03764 2.48503,-11.9957 1.63049,-4.48307 3.99718,-7.77753 7.10007,-9.8834 3.07227,-2.10925 6.43659,-2.95594 10.09298,-2.54006 3.13412,0.35657 5.83723,1.6289 8.10932,3.81699 2.24143,2.1847 3.74982,5.20413 4.5252,9.05827 m -5.2361,23.86777 c 0.34444,-1.11237 0.66023,-2.38366 0.94738,-3.81384 0.25998,-1.46435 0.48958,-3.07223 0.68877,-4.82367 0.51034,-4.486 0.41681,-7.9047 -0.28058,-10.25612 -0.72456,-2.38555 -2.01731,-4.29111 -3.87824,-5.71667 -1.86086,-1.42547 -3.97426,-2.27279 -6.34023,-2.54198 -3.65638,-0.41588 -6.94462,0.71957 -9.86472,3.40637 -2.92,2.68691 -4.70508,6.88787 -5.35525,12.60293 -0.34947,3.07266 -0.32606,5.87647 0.0702,8.41144 l 24.01262,2.73154 m 29.86597,3.39739 c 1.23507,-3.46985 2.05008,-6.94082 2.44505,-10.41292 0.63263,-5.56143 -0.12944,-9.94322 -2.28622,-13.14538 -2.18751,-3.20556 -5.12484,-5.01808 -8.812,-5.43756 -2.42736,-0.27607 -4.83771,0.11891 -7.23105,1.18493 -2.39329,1.06613 -4.40472,3.01599 -6.03429,5.84959 -1.62952,2.83369 -2.6942,6.44745 -3.19405,10.84128 -0.21667,1.90506 -0.3712,3.53704 -0.46357,4.89597 -0.0923,1.35898 -0.10884,2.46199 -0.0496,3.30905 l 25.62574,2.91504"
           style="font-size:95px;font-style:normal;font-variant:normal;font-weight:normal;font-stretch:normal;text-align:start;line-height:100%;writing-mode:lr-tb;text-anchor:start;fill:#000000;fill-opacity:1;stroke:none;font-family:Times New Roman"
           inkscape:connector-curvature="0" />
        <path
           id="flowRoot12848"
           d="m 565.56256,715.0257 -1.71628,0.01 -0.12924,-22.26526 1.71628,-0.01 0.0137,2.36568 c 0.0144,2.47398 1.06141,4.36979 3.14098,5.68743 0.96247,0.6439 3.19088,0.95568 6.68523,0.93533 l 25.51226,-0.14809 c 6.30851,-0.0366 11.21363,0.56893 14.71538,1.81648 3.47067,1.2169 6.4691,3.65803 8.9953,7.32339 2.4951,3.63472 3.76095,8.60629 3.79758,14.91474 0.0398,6.86514 -1.12049,12.08273 -3.48098,15.65279 -2.3605,3.57009 -5.5465,6.10897 -9.558,7.61664 -2.74648,1.00555 -7.9079,1.53031 -15.4843,1.57428 l -24.58454,0.1427 c -3.86544,0.0224 -6.39806,0.57834 -7.59787,1.66767 -1.19987,1.05843 -1.79292,2.7782 -1.77916,5.15934 l 0.0137,2.36569 -1.71628,0.01 -0.15778,-27.18216 1.71628,-0.01 0.014,2.41207 c 0.0151,2.59763 0.84539,4.4483 2.49077,5.55203 1.1178,0.76667 3.43934,1.13975 6.96461,1.11926 l 27.41409,-0.15913 c 2.44302,-0.0142 5.24038,-0.24687 8.39209,-0.69813 3.15156,-0.48215 5.60526,-1.31591 7.36109,-2.50127 1.75585,-1.18532 3.1995,-2.87911 4.33093,-5.08137 1.13127,-2.23314 1.68756,-4.95776 1.6689,-8.17389 -0.0239,-4.11285 -0.94203,-7.78759 -2.75447,-11.02424 -1.81243,-3.23655 -4.11363,-5.43433 -6.90363,-6.59333 -2.82106,-1.18965 -7.57138,-1.76512 -14.25098,-1.72639 l -25.46588,0.14782 c -3.92728,0.0228 -6.38322,0.47005 -7.36783,1.34161 -1.35358,1.21398 -2.0235,3.01152 -2.00974,5.39261 l 0.0137,2.36569"
           style="font-size:95px;font-style:normal;font-variant:normal;font-weight:normal;font-stretch:normal;text-align:start;line-height:100%;writing-mode:lr-tb;text-anchor:start;fill:#000000;fill-opacity:1;stroke:none;font-family:Times New Roman"
           inkscape:connector-curvature="0" />
        <path
           id="flowRoot12856"
           d="m 620.74594,494.07462 18.50514,10.81272 -0.80713,1.19011 c -6.37405,-2.00616 -11.72365,-2.32742 -16.04882,-0.96377 -4.32514,1.3638 -7.885,4.10594 -10.67961,8.22645 -2.34325,3.45521 -3.57791,7.17646 -3.70396,11.16379 -0.15159,3.97008 1.14537,8.06312 3.89085,12.27912 2.76289,4.1905 6.99802,8.22109 12.70538,12.09182 4.70924,3.19384 9.30348,5.20737 13.78272,6.04061 4.47923,0.83328 8.66432,0.36476 12.55528,-1.40555 3.90829,-1.79588 7.18162,-4.63894 9.82001,-8.5292 2.29119,-3.37833 3.59673,-6.84599 3.91664,-10.40302 0.29426,-3.5743 -0.65832,-8.36793 -2.85776,-14.3809 l 1.57494,-0.66937 c 2.86195,5.75234 4.18754,11.09787 3.97679,16.0366 -0.2108,4.93882 -1.93913,9.80121 -5.18499,14.58719 -5.84955,8.62507 -13.57909,13.13531 -23.18867,13.5307 -7.15576,0.30342 -13.95845,-1.73195 -20.40806,-6.1061 -5.19549,-3.52358 -9.17892,-7.92529 -11.95033,-13.20515 -2.77133,-5.27978 -3.96719,-10.76151 -3.58757,-16.44521 0.37146,-5.72655 2.19747,-11.00845 5.47804,-15.8457 2.5516,-3.7622 5.98983,-6.84841 10.31469,-9.25862 1.29211,-0.69299 2.09437,-1.26986 2.40678,-1.73062 0.46868,-0.69095 0.63345,-1.4573 0.4943,-2.29905 -0.23971,-1.13401 -0.87836,-2.2584 -1.91593,-3.37318 l 0.91127,-1.34367"
           style="font-size:95px;font-style:normal;font-variant:normal;font-weight:normal;font-stretch:normal;text-align:start;line-height:100%;writing-mode:lr-tb;text-anchor:start;fill:#000000;fill-opacity:1;stroke:none;font-family:Times New Roman"
           inkscape:connector-curvature="0" />
        <path
           id="flowRoot12864"
           d="m 650.25063,570.16648 1.6269,0.54673 -8.58514,25.54672 -1.6269,-0.54673 0.70928,-2.11058 c 0.82748,-2.46231 0.71021,-4.49179 -0.35182,-6.08841 -0.7016,-1.01874 -2.84053,-2.12903 -6.41678,-3.33087 l -38.51795,-12.94419 c -3.01924,-1.01461 -5.07658,-1.49395 -6.17204,-1.43798 -0.8313,0.0469 -1.66349,0.43602 -2.49656,1.16739 -1.13692,1.05339 -1.94182,2.28361 -2.41472,3.69062 l -0.70927,2.11058 -1.6269,-0.54673 8.58513,-25.54672 1.6269,0.54673 -0.72405,2.15454 c -0.81758,2.43307 -0.69539,4.44788 0.36659,6.04446 0.6918,1.0481 2.8258,2.17304 6.40201,3.37482 l 38.51794,12.94419 c 3.0193,1.01468 5.07664,1.49401 6.17205,1.438 0.83135,-0.0468 1.66845,-0.45063 2.51133,-1.21137 1.12711,-1.02403 1.9271,-2.23959 2.39995,-3.64666 l 0.72405,-2.15454"
           style="font-size:95px;font-style:normal;font-variant:normal;font-weight:normal;font-stretch:normal;text-align:start;line-height:100%;writing-mode:lr-tb;text-anchor:start;fill:#000000;fill-opacity:1;stroke:none;font-family:Times New Roman"
           inkscape:connector-curvature="0" />
        <path
           id="flowRoot12872"
           d="m 674.83953,474.33115 -10.7315,21.86104 7.03041,8.20525 c 1.72972,2.02041 3.1359,3.29634 4.21854,3.82779 0.86056,0.42246 1.82156,0.39469 2.88299,-0.0833 1.04729,-0.51937 2.33584,-2.09159 3.86564,-4.71671 l 1.54069,0.75632 -8.72828,17.78031 -1.54069,-0.75631 c 0.74192,-2.564 0.9501,-4.35654 0.62455,-5.37761 -0.63749,-2.06986 -2.57416,-4.96696 -5.80999,-8.69131 l -36.72,-42.67439 0.71543,-1.45741 56.61813,3.40326 c 4.5521,0.27105 7.71066,0.0474 9.47571,-0.67088 1.75085,-0.75958 3.26123,-2.25737 4.53112,-4.49337 l 1.54068,0.75632 -10.9359,22.27743 -1.54068,-0.75631 c 0.99275,-2.30304 1.36067,-3.99992 1.10378,-5.09067 -0.24331,-1.11842 -0.82299,-1.90251 -1.73906,-2.35226 -1.22146,-0.59955 -3.42333,-0.99145 -6.6056,-1.17569 l -9.79597,-0.57149 m -3.65372,-0.34671 -27.52018,-1.62441 17.9947,21.02868 9.52548,-19.40427"
           style="font-size:95px;font-style:normal;font-variant:normal;font-weight:normal;font-stretch:normal;text-align:start;line-height:100%;writing-mode:lr-tb;text-anchor:start;fill:#000000;fill-opacity:1;stroke:none;font-family:Times New Roman"
           inkscape:connector-curvature="0" />
      </g>
      <g
         id="g12975"
         style="fill:#000000;fill-opacity:1;stroke:none">
        <path
           id="flowRoot12922"
           d="m 766.33537,412.15616 -50.87003,-28.361 24.81671,33.91676 c 2.28262,3.11965 4.0439,4.81978 5.28384,5.1004 1.69037,0.37256 3.53384,-0.17161 5.53043,-1.63251 l 1.79691,-1.31479 1.01349,1.38512 -17.66966,12.9288 -1.01349,-1.38512 1.79692,-1.3148 c 2.14631,-1.57044 3.1939,-3.33325 3.14279,-5.28842 -0.0353,-1.20036 -1.09382,-3.2231 -3.17557,-6.06823 l -24.26888,-33.16804 c -1.64346,-2.24609 -3.08,-3.68569 -4.30962,-4.31881 -0.87894,-0.46805 -1.96608,-0.59223 -3.26144,-0.37255 -1.28861,0.17656 -2.96864,1.02265 -5.04011,2.53826 l -1.01349,-1.38512 14.37531,-10.51834 47.48076,26.24266 -10.9435,-52.97678 14.37532,-10.51834 1.01349,1.38512 -1.75949,1.28741 c -2.1713,1.5888 -3.23138,3.36073 -3.18023,5.31581 0.0353,1.20046 1.09379,3.2232 3.17558,6.06822 l 24.26888,33.16805 c 2.28256,3.11969 4.05631,4.81069 5.32127,5.07301 1.69031,0.37259 3.53378,-0.17158 5.53042,-1.63251 l 1.75948,-1.2874 1.01349,1.38512 -21.56297,15.77751 -1.01349,-1.38512 1.79691,-1.31479 c 2.17123,-1.58868 3.21882,-3.35148 3.1428,-5.28843 -0.0353,-1.20032 -1.09387,-3.22306 -3.17557,-6.06822 l -24.81671,-33.91676 11.67483,57.03991 -1.23538,0.90392"
           style="font-size:95px;font-style:normal;font-variant:normal;font-weight:normal;font-stretch:normal;text-align:start;line-height:125%;writing-mode:lr-tb;text-anchor:start;fill:#000000;fill-opacity:1;stroke:none;font-family:Times New Roman"
           inkscape:connector-curvature="0" />
        <path
           id="flowRoot12930"
           d="m 848.89851,289.30604 19.17797,-10.65877 0.83377,1.50018 -1.05418,0.58589 c -0.70281,0.39068 -1.5572,1.2724 -2.56316,2.64516 -1.00601,1.37292 -1.74013,2.94846 -2.20236,4.72662 -0.46228,1.77832 -0.77571,4.42909 -0.94027,7.95233 l -1.65313,28.24962 7.66169,13.78544 c 1.87783,3.3788 3.42805,5.27684 4.65064,5.69412 1.65808,0.56442 3.59538,0.23068 5.8119,-1.00122 l 1.78399,-0.99152 0.83377,1.50018 -23.35414,12.97982 -0.83378,-1.50018 1.94619,-1.08166 c 2.32458,-1.29196 3.58282,-2.91115 3.77475,-4.85756 0.1139,-1.19545 -0.68544,-3.3339 -2.39803,-6.41537 l -7.23354,-13.01508 -27.88242,-14.64698 c -3.28627,-1.71147 -5.44157,-2.72483 -6.46588,-3.04008 -0.99725,-0.33018 -2.75891,-0.41247 -5.28497,-0.24689 -0.69082,0.0302 -1.5498,0.33073 -2.57698,0.90154 l -0.83377,-1.50018 23.51632,-13.06994 0.83377,1.50018 -1.21636,0.67603 c -1.27041,0.70614 -2.28097,1.65697 -3.03169,2.85248 -0.72367,1.18063 -0.75499,2.36557 -0.094,3.55484 0.54083,0.97315 2.34174,2.27191 5.40274,3.8963 l 21.32187,11.34111 1.36569,-22.94212 c 0.20964,-3.44215 -0.0311,-5.78496 -0.72208,-7.02842 -0.42066,-0.75678 -0.99897,-1.31986 -1.73491,-1.68926 -0.70895,-0.38427 -1.51845,-0.53581 -2.42853,-0.45463 -0.92513,0.0543 -2.1175,0.48704 -3.57712,1.2982 l -0.83377,-1.50018"
           style="font-size:95px;font-style:normal;font-variant:normal;font-weight:normal;font-stretch:normal;text-align:start;line-height:125%;writing-mode:lr-tb;text-anchor:start;fill:#000000;fill-opacity:1;stroke:none;font-family:Times New Roman"
           inkscape:connector-curvature="0" />
        <path
           id="flowRoot12938"
           d="m 822.34787,349.71063 -21.47004,11.49379 0.92271,10.76575 c 0.22606,2.65008 0.62371,4.50674 1.19293,5.57001 0.45245,0.84518 1.24914,1.38329 2.39008,1.61435 1.15359,0.1892 3.11738,-0.33594 5.89139,-1.57544 l 0.81004,1.51312 -17.4623,9.34829 -0.81004,-1.51312 c 2.09846,-1.64956 3.31336,-2.98393 3.64466,-4.00314 0.68987,-2.05301 0.80721,-5.53584 0.35205,-10.44849 l -4.92547,-56.08211 1.43134,-0.76625 43.99783,35.79644 c 3.53893,2.87594 6.23468,4.53711 8.08727,4.9835 1.86514,0.40459 3.96567,0.0693 6.30157,-1.0058 l 0.81004,1.51313 -21.87899,11.71272 -0.81004,-1.51312 c 2.14993,-1.29126 3.43875,-2.45476 3.86648,-3.49051 0.45491,-1.05029 0.44156,-2.02531 -0.04,-2.92503 -0.64224,-1.19957 -2.20188,-2.80248 -4.67893,-4.80873 l -7.62254,-6.17936 m -2.76515,-2.41326 -21.40326,-17.37524 2.34604,27.57736 19.05722,-10.20212"
           style="font-size:95px;font-style:normal;font-variant:normal;font-weight:normal;font-stretch:normal;text-align:start;line-height:125%;writing-mode:lr-tb;text-anchor:start;fill:#000000;fill-opacity:1;stroke:none;font-family:Times New Roman"
           inkscape:connector-curvature="0" />
        <path
           id="flowRoot12946"
           d="m 893.94509,271.88655 c 7.74052,-2.59527 15.4282,-1.89493 23.06304,2.10102 7.65425,3.95694 12.95601,10.33341 15.90532,19.12943 3.03766,9.06001 2.70055,17.53916 -1.01136,25.43746 -3.71201,7.89837 -9.62885,13.20911 -17.75052,15.93224 -8.2097,2.75263 -16.09279,2.15043 -23.64928,-1.80662 -7.52719,-3.96687 -12.84404,-10.58289 -15.95059,-19.84812 -3.17535,-9.47042 -2.54053,-18.27769 1.90442,-26.42185 3.86012,-7.06731 9.68976,-11.9085 17.48897,-14.52356 m 0.24084,3.49074 c -5.3363,1.78928 -8.95347,5.20369 -10.85154,10.24326 -2.3653,6.27268 -1.95535,14.15886 1.22984,23.65859 3.26383,9.73435 7.85734,16.52769 13.78055,20.38002 4.53287,2.91602 9.42349,3.49415 14.67184,1.73443 5.60014,-1.87768 9.48568,-5.61039 11.65665,-11.19815 2.20019,-5.59755 1.72246,-13.10222 -1.43318,-22.51408 -3.42118,-10.20339 -7.98071,-17.13858 -13.67862,-20.8056 -4.56226,-2.90609 -9.68743,-3.40558 -15.37554,-1.49847"
           style="font-size:95px;font-style:normal;font-variant:normal;font-weight:normal;font-stretch:normal;text-align:start;line-height:125%;writing-mode:lr-tb;text-anchor:start;fill:#000000;fill-opacity:1;stroke:none;font-family:Times New Roman"
           inkscape:connector-curvature="0" />
        <path
           id="flowRoot12954"
           d="m 1000.105,312.9308 -16.4799,3.22241 -26.5394,-24.77671 c -1.53603,0.3634 -2.7896,0.64002 -3.76078,0.82989 -0.39457,0.0772 -0.81946,0.16027 -1.27469,0.24925 -0.46119,0.0587 -0.93755,0.12033 -1.42906,0.1849 l 3.50726,17.93668 c 0.75959,3.88478 1.65628,6.2145 2.69007,6.98917 1.4144,1.10988 3.2749,1.43931 5.5815,0.98829 l 2.4128,-0.47179 0.3294,1.68441 -26.44985,5.17188 -0.32936,-1.68441 2.32175,-0.45398 c 2.61007,-0.51037 4.31041,-1.72512 5.10102,-3.64429 0.45338,-1.06546 0.33586,-3.35847 -0.35252,-6.87905 l -7.79788,-39.87953 c -0.75962,-3.88471 -1.6563,-6.21443 -2.69006,-6.98917 -1.44476,-1.10388 -3.33559,-1.42737 -5.67253,-0.97049 l -2.32175,0.45399 -0.32936,-1.6844 22.48913,-4.39743 c 6.55554,-1.28179 11.47611,-1.73977 14.76171,-1.37396 3.3099,0.32966 6.2945,1.57365 8.9538,3.73196 2.6837,2.12216 4.3727,4.95866 5.067,8.50952 0.7418,3.79376 0.1414,7.33002 -1.8013,10.60878 -1.9124,3.27289 -5.3507,5.99337 -10.315,8.16141 l 16.2097,15.21659 c 3.7088,3.49716 6.7407,5.70871 9.0961,6.63459 2.3551,0.92593 5.2528,1.24162 8.6929,0.94708 l 0.3293,1.68441 m -50.04464,-23.15831 c 0.57663,-0.11271 1.08037,-0.19546 1.51121,-0.24823 0.42488,-0.0831 0.7739,-0.15129 1.04706,-0.20474 5.88787,-1.15126 10.06967,-3.29236 12.54547,-6.42336 2.506,-3.13683 3.3734,-6.67801 2.6019,-10.62352 -0.7537,-3.85436 -2.5789,-6.743 -5.4757,-8.66594 -2.8724,-1.95908 -6.29643,-2.54996 -10.27225,-1.7726 -1.76031,0.34426 -4.08639,1.09844 -6.97825,2.26252 l 5.02056,25.67587"
           style="font-size:95px;font-style:normal;font-variant:normal;font-weight:normal;font-stretch:normal;text-align:start;line-height:125%;writing-mode:lr-tb;text-anchor:start;fill:#000000;fill-opacity:1;stroke:none;font-family:Times New Roman"
           inkscape:connector-curvature="0" />
      </g>
      <g
         id="g13054"
         style="fill:#000000;fill-opacity:1;stroke:none">
        <path
           id="flowRoot12982"
           d="m 1123.3389,268.28726 -5.094,24.33584 13.53,2.8321 c 3.5111,0.73499 5.9677,0.69631 7.37,-0.11602 1.8654,-1.06284 3.2564,-3.33085 4.173,-6.804 l 1.6799,0.35164 -4.4857,21.43007 -1.6799,-0.35164 c 0.2034,-3.08527 0.1819,-5.09602 -0.064,-6.03226 -0.323,-1.1734 -1.0417,-2.1927 -2.156,-3.05786 -1.1143,-0.86511 -2.9579,-1.56696 -5.5307,-2.10552 l -13.5299,-2.8321 -4.2482,20.29501 c -0.5703,2.72415 -0.7977,4.41426 -0.6822,5.07034 0.1217,0.62577 0.4473,1.18364 0.9766,1.67358 0.5356,0.45965 1.6511,0.8669 3.3461,1.22171 l 10.4426,2.18585 c 3.4809,0.72861 6.059,1.01551 7.7343,0.86068 1.6753,-0.15484 3.3884,-0.79149 5.1391,-1.90999 2.2693,-1.48384 4.7838,-3.91163 7.5433,-7.28334 l 1.8161,0.38015 -8.5434,14.32498 -47.4458,-9.93138 0.3516,-1.6799 2.1793,0.45616 c 1.4529,0.30413 2.903,0.24433 4.3502,-0.17943 1.07,-0.28153 1.8729,-0.87175 2.4086,-1.77065 0.566,-0.89256 1.1625,-2.83713 1.7898,-5.83372 l 8.3728,-39.99979 c 0.8173,-3.90458 0.9275,-6.39328 0.3306,-7.46611 -0.8362,-1.43878 -2.5257,-2.4243 -5.0682,-2.95658 l -2.1793,-0.45617 0.3516,-1.6799 47.4458,9.93139 -2.1415,13.62716 -1.7707,-0.37064 c 0.042,-3.37173 -0.2034,-5.74537 -0.7368,-7.12087 -0.5034,-1.36909 -1.4453,-2.52988 -2.8256,-3.48236 -1.1158,-0.70741 -3.2021,-1.38108 -6.2592,-2.02106 l -16.8898,-3.53537"
           style="font-size:95px;font-style:normal;font-variant:normal;font-weight:normal;font-stretch:normal;text-align:start;line-height:125%;writing-mode:lr-tb;text-anchor:start;fill:#000000;fill-opacity:1;stroke:none;font-family:Times New Roman"
           inkscape:connector-curvature="0" />
        <path
           id="flowRoot12990"
           d="m 1033.5736,316.2503 0.1688,-1.70798 2.3543,0.23272 c 2.6466,0.26162 4.6075,-0.3991 5.8827,-1.98218 0.7774,-0.94863 1.3411,-3.19247 1.6909,-6.73155 l 3.9974,-40.43767 c 0.3863,-3.9083 0.1974,-6.39746 -0.567,-7.46748 -1.0664,-1.47267 -2.7843,-2.32614 -5.154,-2.56046 l -2.3542,-0.23272 0.1688,-1.70797 25.4813,2.5189 c 9.3554,0.92487 16.3593,2.68931 21.0118,5.29335 4.6833,2.60721 8.2571,6.53413 10.7218,11.78083 2.4953,5.24982 3.422,11.12141 2.7802,17.61479 -0.8611,8.7092 -4.2271,15.72573 -10.0982,21.04962 -6.5845,5.93706 -15.9547,8.30476 -28.1105,7.10312 l -27.9741,-2.76532 m 18.3118,-2.75788 c 3.8232,1.24804 7.058,2.00287 9.7046,2.26449 7.1397,0.70578 13.3117,-1.21673 18.5161,-5.76752 5.2043,-4.55078 8.2309,-11.11922 9.0797,-19.70531 0.8548,-8.6476 -0.8256,-15.69686 -5.0412,-21.14782 -4.2158,-5.45086 -10.0165,-8.54136 -17.4024,-9.27154 -2.7697,-0.27373 -5.9681,-0.13932 -9.5954,0.40323 l -5.2614,53.22447"
           style="font-size:95px;font-style:normal;font-variant:normal;font-weight:normal;font-stretch:normal;text-align:start;line-height:125%;writing-mode:lr-tb;text-anchor:start;fill:#000000;fill-opacity:1;stroke:none;font-family:Times New Roman"
           inkscape:connector-curvature="0" />
        <path
           id="flowRoot13000"
           d="m 1312.2876,350.16832 12.756,11.34376 -2.6139,60.80652 24.1055,-27.10642 c 2.5687,-2.8886 3.8481,-4.97875 3.8381,-6.27058 0.01,-1.73087 -0.9122,-3.41836 -2.7608,-5.06239 l -1.6292,-1.44881 1.1406,-1.28253 16.3608,14.5496 -1.1405,1.28253 -1.6638,-1.47958 c -1.9874,-1.76735 -3.9314,-2.4201 -5.8318,-1.95825 -1.1661,0.28737 -2.9205,1.74823 -5.2631,4.38263 l -35.2335,39.61973 -1.2478,-1.1097 2.6726,-65.40993 -25.7392,28.94356 c -2.5688,2.88858 -3.8598,4.96849 -3.8729,6.23974 0.015,1.75146 0.9354,3.43894 2.7609,5.06239 l 1.6639,1.47965 -1.1406,1.28253 -16.3609,-14.5496 1.1406,-1.28253 1.6291,1.44875 c 2.0105,1.78792 3.9659,2.4509 5.8665,1.98908 1.1659,-0.28739 2.9203,-1.74824 5.2631,-4.38263 l 29.0684,-32.68715 c 0.055,-2.80689 -0.05,-4.7831 -0.3146,-5.92861 -0.2411,-1.12484 -0.8482,-2.51309 -1.8211,-4.16464 -0.4852,-0.80389 -1.4096,-1.8121 -2.7729,-3.02459 l 1.1405,-1.28253"
           style="font-size:95px;font-style:normal;font-variant:normal;font-weight:normal;font-stretch:normal;text-align:start;line-height:125%;writing-mode:lr-tb;text-anchor:start;fill:#000000;fill-opacity:1;stroke:none;font-family:Times New Roman"
           inkscape:connector-curvature="0" />
        <path
           id="flowRoot13008"
           d="m 1282.8394,333.87081 -13.981,20.56006 11.4308,7.77295 c 2.9663,2.01716 5.2525,2.91734 6.8585,2.70048 2.1296,-0.27209 4.2797,-1.83916 6.4503,-4.7012 l 1.4193,0.9651 -12.3116,18.10513 -1.4192,-0.9651 c 1.3635,-2.77511 2.1097,-4.64237 2.2386,-5.60183 0.1483,-1.20805 -0.1279,-2.42428 -0.8285,-3.64865 -0.7008,-1.22443 -2.1379,-2.57564 -4.3115,-4.05376 l -11.4308,-7.77295 -11.6594,17.14618 c -1.5651,2.3015 -2.4192,3.77753 -2.5624,4.42809 -0.1258,0.62499 -0.037,1.26479 0.2654,1.91944 0.3202,0.62908 1.1963,1.4305 2.6283,2.40431 l 8.8225,5.99931 c 2.9407,1.99969 5.2151,3.24712 6.8231,3.74221 1.608,0.49511 3.4344,0.55903 5.4792,0.19183 2.6636,-0.50736 5.9133,-1.79415 9.7491,-3.86038 l 1.5344,1.04337 -13.3565,9.99 -40.0844,-27.25756 0.9651,-1.41926 1.8412,1.25204 c 1.2275,0.8347 2.591,1.33179 4.0906,1.49139 1.0965,0.14732 2.0636,-0.0926 2.9014,-0.71961 0.8633,-0.60964 2.1557,-2.18031 3.8773,-4.71191 l 22.9798,-33.79369 c 2.2431,-3.29884 3.2931,-5.55788 3.15,-6.77719 -0.2251,-1.64886 -1.4117,-3.20367 -3.5597,-4.66438 l -1.8412,-1.25205 0.9651,-1.41926 40.0845,27.25757 -7.1716,11.78369 -1.4959,-1.01723 c 1.3236,-3.10141 2.0007,-5.3896 2.0315,-6.86463 0.056,-1.45762 -0.3724,-2.88963 -1.2858,-4.29614 -0.7621,-1.07912 -2.4345,-2.49686 -5.0172,-4.25318 l -14.2693,-9.70319"
           style="font-size:95px;font-style:normal;font-variant:normal;font-weight:normal;font-stretch:normal;text-align:start;line-height:125%;writing-mode:lr-tb;text-anchor:start;fill:#000000;fill-opacity:1;stroke:none;font-family:Times New Roman"
           inkscape:connector-curvature="0" />
        <path
           id="flowRoot13016"
           d="m 1264.9489,318.69399 -9.849,19.03557 -1.23,-0.74501 c 1.6765,-6.46855 1.7229,-11.82758 0.1391,-16.0771 -1.584,-4.24948 -4.5051,-7.66392 -8.7636,-10.24343 -3.5709,-2.16291 -7.3506,-3.20501 -11.3391,-3.12629 -3.9727,0.0523 -7.9938,1.55756 -12.0633,4.51576 -4.0432,2.9743 -7.8512,7.41062 -11.424,13.30907 -2.948,4.86692 -4.7231,9.55843 -5.3255,14.07449 -0.6023,4.51614 0.08,8.67167 2.048,12.46666 1.994,3.81101 5.0012,6.93412 9.0218,9.36943 3.4914,2.11485 7.0215,3.24074 10.5903,3.37771 3.5846,0.11046 8.3231,-1.08683 14.2152,-3.5919 l 0.7493,1.53852 c -5.5978,3.15336 -10.8683,4.75149 -15.8114,4.79441 -4.9431,0.0429 -9.8878,-1.43369 -14.834,-4.42968 -8.9138,-5.39932 -13.8147,-12.88727 -14.7027,-22.46389 -0.6702,-7.13078 1.0135,-14.02895 5.0509,-20.69451 3.2524,-5.36943 7.4439,-9.57345 12.5746,-12.61213 5.1307,-3.03854 10.5438,-4.51412 16.2395,-4.42663 5.7381,0.0771 11.1067,1.62973 16.106,4.65779 3.8881,2.35519 7.1467,5.63056 9.7756,9.82604 0.7584,1.25485 1.3756,2.02643 1.8518,2.3148 0.7141,0.43261 1.4879,0.55787 2.3214,0.3757 1.1202,-0.29757 2.2104,-0.99307 3.2704,-2.0865 l 1.3887,0.84112"
           style="font-size:95px;font-style:normal;font-variant:normal;font-weight:normal;font-stretch:normal;text-align:start;line-height:125%;writing-mode:lr-tb;text-anchor:start;fill:#000000;fill-opacity:1;stroke:none;font-family:Times New Roman"
           inkscape:connector-curvature="0" />
        <path
           id="flowRoot13024"
           d="m 1445.437,511.63951 c 4.0246,7.10315 4.8041,14.78317 2.3385,23.04024 -2.4237,8.26868 -7.6713,14.68972 -15.7429,19.26331 -8.3139,4.71064 -16.7016,5.99773 -25.1631,3.86118 -8.4615,-2.13663 -14.8037,-6.93138 -19.0266,-14.38416 -4.2686,-7.53361 -5.1817,-15.38675 -2.7393,-23.55951 2.4577,-8.14578 7.9375,-14.62747 16.4397,-19.44492 8.6905,-4.92413 17.4571,-5.98157 26.2998,-3.17235 7.674,2.44065 13.5387,7.23936 17.5939,14.39621 m -3.3806,0.90257 c -2.7747,-4.89683 -6.8166,-7.79603 -12.1257,-8.69752 -6.6088,-1.12491 -14.2719,0.78236 -22.9892,5.72173 -8.9327,5.06137 -14.7247,10.86674 -17.376,17.41621 -1.9975,5.00608 -1.6318,9.91712 1.0971,14.73324 2.9118,5.13891 7.3173,8.24078 13.2167,9.30562 5.9145,1.09164 13.1902,-0.80932 21.8269,-5.70299 9.3631,-5.30526 15.3008,-11.10436 17.8132,-17.39731 1.9821,-5.03301 1.4944,-10.15931 -1.463,-15.37898"
           style="font-size:95px;font-style:normal;font-variant:normal;font-weight:normal;font-stretch:normal;text-align:start;line-height:125%;writing-mode:lr-tb;text-anchor:start;fill:#000000;fill-opacity:1;stroke:none;font-family:Times New Roman"
           inkscape:connector-curvature="0" />
        <path
           id="flowRoot13032"
           d="m 1381.8681,521.78874 -9.9348,-13.53773 11.1128,-34.56493 c -0.9831,-1.23493 -1.7673,-2.25131 -2.3527,-3.04906 -0.2379,-0.32416 -0.4941,-0.67316 -0.7685,-1.04718 -0.2495,-0.39227 -0.5082,-0.79698 -0.776,-1.2142 l -14.7344,10.81306 c -3.1912,2.34192 -4.9171,4.14555 -5.1776,5.41082 -0.4018,1.7524 0.093,3.57601 1.4831,5.47082 l 1.4546,1.98205 -1.3837,1.01544 -15.9452,-21.72768 1.3837,-1.01544 1.3997,1.90723 c 1.5735,2.14409 3.3967,3.16503 5.4699,3.06297 1.1571,-0.0436 3.1816,-1.12663 6.0737,-3.24899 l 32.7598,-24.04123 c 3.1911,-2.34188 4.917,-4.14551 5.1777,-5.41074 0.3833,-1.77736 -0.1294,-3.62587 -1.5381,-5.54563 l -1.3997,-1.90723 1.3837,-1.01544 13.5575,18.47409 c 3.9519,5.38522 6.4621,9.64205 7.5306,12.77049 1.1116,3.13513 1.2573,6.36531 0.4372,9.69063 -0.7769,3.33192 -2.6239,6.06823 -5.5408,8.20886 -3.1164,2.28705 -6.5716,3.25001 -10.3656,2.88887 -3.7757,-0.33618 -7.7016,-2.28829 -11.7775,-5.85624 l -6.8631,21.14694 c -1.5844,4.84506 -2.2938,8.53029 -2.1284,11.05559 0.1655,2.5253 1.1141,5.28142 2.8458,8.26842 l -1.3837,1.01544 m -0.3632,-55.1421 c 0.3477,0.47375 0.637,0.89422 0.8683,1.26158 0.2561,0.34902 0.4666,0.63579 0.6312,0.86014 3.5495,4.83666 7.2678,7.70822 11.1551,8.61459 3.9055,0.93132 7.4789,0.20776 10.72,-2.17077 3.1662,-2.32359 5.0023,-5.20537 5.5082,-8.64527 0.5491,-3.43329 -0.3748,-6.78295 -2.7715,-10.0489 -1.0613,-1.44605 -2.7344,-3.22937 -5.0194,-5.34996 l -21.0919,15.47859"
           style="font-size:95px;font-style:normal;font-variant:normal;font-weight:normal;font-stretch:normal;text-align:start;line-height:125%;writing-mode:lr-tb;text-anchor:start;fill:#000000;fill-opacity:1;stroke:none;font-family:Times New Roman"
           inkscape:connector-curvature="0" />
        <path
           id="flowRoot13040"
           d="m 1396.9482,432.68275 -10.6428,10.23746 -1.1607,-1.32653 c 1.7307,-1.96668 2.8217,-3.53759 3.2726,-4.71287 0.7185,-1.90257 0.8624,-3.73391 0.4319,-5.4939 -0.387,-1.75711 -1.4358,-3.6131 -3.1463,-5.56799 l -5.8344,-6.66764 -36.1657,31.64633 c -2.9091,2.54555 -4.4494,4.4481 -4.621,5.70779 -0.2036,1.73964 0.499,3.52875 2.1078,5.36733 l 1.4357,1.64074 -1.2916,1.13023 -17.5644,-20.07264 1.2917,-1.13022 1.4662,1.67565 c 1.7513,2.00136 3.5986,2.89151 5.5419,2.6704 1.1927,-0.1397 3.1156,-1.37027 5.7688,-3.69183 l 36.1655,-31.64632 -4.979,-5.69011 c -1.9346,-2.21084 -3.4722,-3.63919 -4.6125,-4.28505 -1.5013,-0.82323 -3.2569,-1.11554 -5.2671,-0.87697 -2.0102,0.23863 -4.1571,1.21318 -6.4406,2.92382 l -1.1608,-1.32653 11.5898,-9.15528 33.815,38.64413"
           style="font-size:95px;font-style:normal;font-variant:normal;font-weight:normal;font-stretch:normal;text-align:start;line-height:125%;writing-mode:lr-tb;text-anchor:start;fill:#000000;fill-opacity:1;stroke:none;font-family:Times New Roman"
           inkscape:connector-curvature="0" />
      </g>
      <g
         id="g13127"
         style="fill:#000000;fill-opacity:1;stroke:none">
        <path
           id="flowRoot13064"
           d="m 1428.8857,674.96193 50.6779,-28.70302 -41.8753,3.56024 c -3.8517,0.32747 -6.2198,0.94781 -7.1042,1.86102 -1.1973,1.25001 -1.6911,3.10762 -1.4815,5.57273 l 0.1886,2.2186 -1.7101,0.14539 -1.8548,-21.81589 1.7101,-0.1454 0.1886,2.2186 c 0.2253,2.64994 1.1863,4.46144 2.8829,5.43451 1.0437,0.59403 3.3218,0.74176 6.8346,0.44311 l 40.9509,-3.48164 c 2.7731,-0.23577 4.7498,-0.71425 5.93,-1.43532 0.8568,-0.50731 1.5282,-1.37129 2.0142,-2.59205 0.5193,-1.19248 0.6702,-3.0674 0.4528,-5.62498 l 1.7102,-0.1454 1.5089,17.74847 -47.106,26.90959 50.9413,18.20117 1.509,17.74847 -1.7101,0.14539 -0.1847,-2.17236 c -0.228,-2.68083 -1.1903,-4.50778 -2.8868,-5.48075 -1.0437,-0.59412 -3.3219,-0.74185 -6.8346,-0.44311 l -40.9509,3.48165 c -3.8516,0.32736 -6.2184,0.96315 -7.1002,1.90715 -1.1973,1.25011 -1.6911,3.10773 -1.4815,5.57283 l 0.1847,2.17236 -1.7102,0.1454 -2.2634,-26.62275 1.7101,-0.1454 0.1886,2.2186 c 0.228,2.68073 1.1889,4.49213 2.8829,5.43451 1.0436,0.59393 3.3218,0.74166 6.8346,0.44311 l 41.8753,-3.56024 -54.7922,-19.68939 -0.1297,-1.5252"
           style="font-size:95px;font-style:normal;font-variant:normal;font-weight:normal;font-stretch:normal;text-align:start;line-height:125%;writing-mode:lr-tb;text-anchor:start;fill:#000000;fill-opacity:1;stroke:none;font-family:Times New Roman"
           inkscape:connector-curvature="0" />
        <path
           id="flowRoot13072"
           d="m 1441.4475,613.16329 -8.1311,-22.95546 -10.782,-0.7083 c -2.6539,-0.17536 -4.5493,-0.0617 -5.6861,0.34098 -0.9037,0.32009 -1.5556,1.0267 -1.9557,2.11984 -0.3607,1.11194 -0.1372,3.13244 0.6707,6.0614 l -1.6179,0.57306 -6.6133,-18.67044 1.6178,-0.57305 c 1.3149,2.32278 2.4512,3.72473 3.409,4.20565 1.9258,0.99108 5.3512,1.6313 10.2764,1.92076 l 56.1846,3.57225 0.542,1.53033 -42.0112,38.10839 c -3.3758,3.06578 -5.4239,5.48077 -6.144,7.24507 -0.6807,1.78301 -0.6655,3.91007 0.046,6.3811 l -1.6178,0.57305 -8.286,-23.39264 1.6178,-0.57306 c 0.9529,2.31976 1.9092,3.76905 2.8687,4.34778 0.9699,0.60785 1.9358,0.74141 2.8978,0.40068 1.2825,-0.45431 3.1019,-1.75492 5.4582,-3.90174 l 7.2563,-6.60565 m 2.802,-2.37037 20.3989,-18.54402 -27.6163,-1.8317 7.2174,20.37572"
           style="font-size:95px;font-style:normal;font-variant:normal;font-weight:normal;font-stretch:normal;text-align:start;line-height:125%;writing-mode:lr-tb;text-anchor:start;fill:#000000;fill-opacity:1;stroke:none;font-family:Times New Roman"
           inkscape:connector-curvature="0" />
        <path
           id="flowRoot13080"
           d="m 1420.0371,821.78615 3.1513,-16.49365 32.8825,-15.39398 c 0.2352,-1.56069 0.4457,-2.82709 0.6314,-3.79911 0.075,-0.39486 0.1567,-0.82006 0.2437,-1.27572 0.1175,-0.44986 0.2378,-0.91484 0.3611,-1.39504 l -17.9517,-3.42992 c -3.888,-0.74285 -6.3841,-0.77903 -7.4882,-0.10832 -1.5571,0.89885 -2.5561,2.50256 -2.9972,4.811 l -0.4614,2.41481 -1.6858,-0.3221 5.0579,-26.47174 1.6858,0.3221 -0.444,2.32367 c -0.4991,2.61225 -0.01,4.64276 1.4808,6.09163 0.8197,0.81777 2.9914,1.56326 6.5148,2.23657 l 39.9128,7.62591 c 3.888,0.74275 6.3841,0.77893 7.4882,0.10832 1.5627,-0.92923 2.5676,-2.56327 3.0146,-4.90215 l 0.444,-2.32366 1.6857,0.32209 -4.3004,22.50786 c -1.2536,6.5609 -2.6624,11.29768 -4.2263,14.21033 -1.5394,2.94859 -3.8062,5.25467 -6.8,6.91807 -2.9694,1.69943 -6.231,2.20959 -9.7849,1.53068 -3.7968,-0.72555 -6.8546,-2.60062 -9.1732,-5.62518 -2.3244,-2.99433 -3.5676,-7.19884 -3.7294,-12.61351 l -20.1612,9.37115 c -4.6275,2.13826 -7.8097,4.12771 -9.5466,5.96825 -1.7369,1.84053 -3.1098,4.41177 -4.1185,7.71374 l -1.6858,-0.3221 m 40.1404,-37.80907 c -0.1104,0.57716 -0.2212,1.07539 -0.3329,1.4949 -0.081,0.42521 -0.148,0.77449 -0.2002,1.04795 -1.1259,5.8927 -0.6975,10.57123 1.2853,14.03549 1.9769,3.49459 4.9397,5.61908 8.8885,6.37365 3.8576,0.73694 7.2184,0.11979 10.0824,-1.85176 2.8884,-1.93531 4.7128,-4.89258 5.4731,-8.87169 0.3365,-1.76174 0.5035,-4.20135 0.501,-7.31871 l -25.6972,-4.90983"
           style="font-size:95px;font-style:normal;font-variant:normal;font-weight:normal;font-stretch:normal;text-align:start;line-height:125%;writing-mode:lr-tb;text-anchor:start;fill:#000000;fill-opacity:1;stroke:none;font-family:Times New Roman"
           inkscape:connector-curvature="0" />
        <path
           id="flowRoot13088"
           d="m 1491.3297,733.77802 -24.7409,-2.46392 -1.3699,13.75525 c -0.3555,3.56954 -0.055,6.00797 0.9031,7.3154 1.2561,1.74115 3.6598,2.88177 7.211,3.42195 l -0.1701,1.70785 -21.7867,-2.16973 0.17,-1.70785 c 3.0894,-0.12747 5.0863,-0.36374 5.9909,-0.7087 1.1322,-0.4467 2.0688,-1.27014 2.8099,-2.4705 0.7411,-1.20037 1.2419,-3.10843 1.5024,-5.72399 l 1.3699,-13.75526 -20.6328,-2.05481 c -2.7696,-0.27581 -4.4743,-0.32127 -5.1142,-0.13638 -0.6092,0.18795 -1.1291,0.57132 -1.5597,1.15 -0.3998,0.58165 -0.6855,1.73421 -0.8571,3.45748 l -1.0573,10.61639 c -0.3524,3.53879 -0.3621,6.1328 -0.029,7.78202 0.333,1.64911 1.1491,3.28424 2.4483,4.90546 1.7179,2.09777 4.4005,4.33834 8.0478,6.72172 l -0.1839,1.84627 -15.156,-6.96343 4.8038,-48.23548 1.7078,0.17008 -0.2206,2.21554 c -0.1471,1.47709 0.067,2.91251 0.6433,4.30615 0.3943,1.03376 1.0669,1.76894 2.0179,2.20553 0.948,0.46724 2.9452,0.85266 5.9916,1.15605 l 40.6655,4.04986 c 3.9696,0.39533 6.4558,0.23894 7.4588,-0.46926 1.3411,-0.98524 2.1404,-2.77022 2.3979,-5.35512 l 0.2207,-2.21554 1.7078,0.17008 -4.8037,48.23549 -13.778,-0.6729 0.1793,-1.80019 c 3.3569,-0.3184 5.6907,-0.81628 7.0013,-1.49373 1.3074,-0.64672 2.3609,-1.70724 3.1604,-3.18147 0.5841,-1.18494 1.031,-3.33143 1.3406,-6.43935 l 1.71,-17.17096"
           style="font-size:95px;font-style:normal;font-variant:normal;font-weight:normal;font-stretch:normal;text-align:start;line-height:125%;writing-mode:lr-tb;text-anchor:start;fill:#000000;fill-opacity:1;stroke:none;font-family:Times New Roman"
           inkscape:connector-curvature="0" />
        <path
           id="flowRoot13096"
           d="m 1453.6615,904.7423 -20.9158,-4.67846 0.4074,-1.3791 c 6.6822,-0.0256 11.8765,-1.34501 15.5828,-3.95847 3.7062,-2.61348 6.2645,-6.3077 7.6749,-11.08255 1.1826,-4.00382 1.2281,-7.9243 0.1366,-11.76146 -1.0619,-3.82833 -3.5413,-7.33374 -7.438,-10.51622 -3.9056,-3.15279 -9.1652,-5.70596 -15.7789,-7.65934 -5.457,-1.61194 -10.4458,-2.13423 -14.9665,-1.56696 -4.5206,0.56716 -8.3655,2.2852 -11.5345,5.15411 -3.1778,2.89854 -5.4325,6.60185 -6.764,11.10982 -1.1563,3.9148 -1.3464,7.61521 -0.5704,11.10124 0.8058,3.49468 3.1699,7.77228 7.0924,12.8326 l -1.297,1.1163 c -4.4745,-4.61076 -7.3618,-9.30073 -8.6617,-14.07 -1.2999,-4.76928 -1.1307,-9.92693 0.5074,-15.47297 2.9521,-9.99472 8.9457,-16.64033 17.9808,-19.93708 6.7252,-2.46335 13.8247,-2.5913 21.2984,-0.38377 6.0205,1.77827 11.1531,4.76138 15.3978,8.94953 4.2447,4.18802 7.0497,9.04713 8.415,14.57752 1.3862,5.56856 1.2515,11.15564 -0.4041,16.76096 -1.2878,4.35968 -3.6256,8.34466 -7.0136,11.95511 -1.0205,1.05277 -1.6095,1.84621 -1.7671,2.38012 -0.2366,0.80069 -0.1607,1.58084 0.2276,2.34047 0.573,1.00757 1.5231,1.88474 2.8503,2.6316 l -0.4598,1.557"
           style="font-size:95px;font-style:normal;font-variant:normal;font-weight:normal;font-stretch:normal;text-align:start;line-height:125%;writing-mode:lr-tb;text-anchor:start;fill:#000000;fill-opacity:1;stroke:none;font-family:Times New Roman"
           inkscape:connector-curvature="0" />
        <path
           id="flowRoot13104"
           d="m 1411.6931,840.85342 -1.6656,-0.41391 6.4994,-26.15526 1.6656,0.4139 -0.537,2.16088 c -0.6264,2.52094 -0.346,4.53438 0.8412,6.04022 0.7814,0.95894 3.0028,1.89333 6.6642,2.80318 l 39.4355,9.79944 c 3.0911,0.76813 5.1804,1.08019 6.2678,0.93617 0.8248,-0.11374 1.6229,-0.56859 2.3944,-1.36474 1.0484,-1.14157 1.7516,-2.43259 2.1096,-3.87307 l 0.5369,-2.16088 1.6657,0.4139 -6.4994,26.15527 -1.6657,-0.41391 0.5482,-2.20591 c 0.6189,-2.49096 0.3348,-4.48945 -0.8523,-5.99528 -0.774,-0.98895 -2.9917,-1.93838 -6.6531,-2.84811 l -39.4354,-9.79945 c -3.0912,-0.76824 -5.1805,-1.0803 -6.2678,-0.93617 -0.8249,0.11363 -1.6268,0.58352 -2.4056,1.40968 -1.041,1.11156 -1.7405,2.38754 -2.0984,3.82813 l -0.5482,2.20592"
           style="font-size:95px;font-style:normal;font-variant:normal;font-weight:normal;font-stretch:normal;text-align:start;line-height:125%;writing-mode:lr-tb;text-anchor:start;fill:#000000;fill-opacity:1;stroke:none;font-family:Times New Roman"
           inkscape:connector-curvature="0" />
        <path
           id="flowRoot13112"
           d="m 1399.0775,937.87059 8.4302,-22.84744 -7.8357,-7.43995 c -1.928,-1.83219 -3.4578,-2.95698 -4.5893,-3.37447 -0.8994,-0.33186 -1.8524,-0.20557 -2.8592,0.37887 -0.9884,0.62422 -2.1087,2.32039 -3.3609,5.08868 l -1.6102,-0.59413 6.8565,-18.58249 1.6102,0.59412 c -0.4747,2.62666 -0.4977,4.43105 -0.069,5.41327 0.8466,1.99353 3.0705,4.67644 6.6716,8.04884 l 40.9076,38.67864 -0.562,1.52313 -56.6684,2.42809 c -4.5558,0.19775 -7.6748,0.74449 -9.3567,1.64023 -1.6636,0.93534 -3.0122,2.5803 -4.0458,4.93488 l -1.6102,-0.59412 8.5907,-23.28256 1.6102,0.59413 c -0.751,2.39275 -0.9428,4.11847 -0.5752,5.17705 0.3568,1.08756 1.0139,1.80798 1.9713,2.16134 1.2766,0.47092 3.5071,0.63466 6.6914,0.49121 l 9.8029,-0.43732 m 3.67,-0.0303 27.5415,-1.20978 -20.0587,-19.06997 -7.4828,20.27975"
           style="font-size:95px;font-style:normal;font-variant:normal;font-weight:normal;font-stretch:normal;text-align:start;line-height:125%;writing-mode:lr-tb;text-anchor:start;fill:#000000;fill-opacity:1;stroke:none;font-family:Times New Roman"
           inkscape:connector-curvature="0" />
      </g>
    </g>
  </g>
  <rect
     style="fill:#0f47af;fill-opacity:1;stroke:none"
     id="rect13277"
     width="1771.6536"
     height="354.33072"
     x="0"
     y="0" />
  <rect
     y="708.66144"
     x="0"
     height="354.33072"
     width="1771.6536"
     id="rect14152"
     style="fill:#0f47af;fill-opacity:1;stroke:none" />
  <path
     sodipodi:type="star"
     style="fill:#ffd220;fill-opacity:1;stroke:none"
     id="path15241"
     sodipodi:sides="5"
     sodipodi:cx="1133.8583"
     sodipodi:cy="177.16528"
     sodipodi:r1="177.16541"
     sodipodi:r2="65.551201"
     sodipodi:arg1="0.92729542"
     sodipodi:arg2="1.555614"
     inkscape:flatsided="false"
     inkscape:rounded="0"
     inkscape:randomized="0"
     d="m 1240.1575,318.89763 -105.304,-76.1887 -102.9424,79.35062 39.919,-123.69369 -107.27788,-73.38334 129.97538,-0.25821 36.641,-124.70401375 40.4101,123.53411375 129.9233,-3.68798 -105.0005,76.60648 z"
     transform="matrix(0.165765,0.00234987,-0.00234987,0.165765,696.79842,771.18846)" />
  <path
     transform="matrix(0.156962,-0.05335266,0.05335266,0.156962,779.49982,818.65196)"
     d="m 1240.1575,318.89763 -105.304,-76.1887 -102.9424,79.35062 39.919,-123.69369 -107.27788,-73.38334 129.97538,-0.25821 36.641,-124.70401375 40.4101,123.53411375 129.9233,-3.68798 -105.0005,76.60648 z"
     inkscape:randomized="0"
     inkscape:rounded="0"
     inkscape:flatsided="false"
     sodipodi:arg2="1.555614"
     sodipodi:arg1="0.92729542"
     sodipodi:r2="65.551201"
     sodipodi:r1="177.16541"
     sodipodi:cy="177.16528"
     sodipodi:cx="1133.8583"
     sodipodi:sides="5"
     id="path16118"
     style="fill:#ffd220;fill-opacity:1;stroke:none"
     sodipodi:type="star" />
  <path
     sodipodi:type="star"
     style="fill:#ffd220;fill-opacity:1;stroke:none"
     id="path16120"
     sodipodi:sides="5"
     sodipodi:cx="1133.8583"
     sodipodi:cy="177.16528"
     sodipodi:r1="177.16541"
     sodipodi:r2="65.551201"
     sodipodi:arg1="0.92729542"
     sodipodi:arg2="1.555614"
     inkscape:flatsided="false"
     inkscape:rounded="0"
     inkscape:randomized="0"
     d="m 1240.1575,318.89763 -105.304,-76.1887 -102.9424,79.35062 39.919,-123.69369 -107.27788,-73.38334 129.97538,-0.25821 36.641,-124.70401375 40.4101,123.53411375 129.9233,-3.68798 -105.0005,76.60648 z"
     transform="matrix(0.136532,-0.09403425,0.09403425,0.136532,856.90062,826.26676)" />
  <path
     sodipodi:type="star"
     style="fill:#ffd220;fill-opacity:1;stroke:none"
     id="path16122"
     sodipodi:sides="5"
     sodipodi:cx="1133.8583"
     sodipodi:cy="177.16528"
     sodipodi:r1="177.16541"
     sodipodi:r2="65.551201"
     sodipodi:arg1="0.92729542"
     sodipodi:arg2="1.555614"
     inkscape:flatsided="false"
     inkscape:rounded="0"
     inkscape:randomized="0"
     d="m 1240.1575,318.89763 -105.304,-76.1887 -102.9424,79.35062 39.919,-123.69369 -107.27788,-73.38334 129.97538,-0.25821 36.641,-124.70401375 40.4101,123.53411375 129.9233,-3.68798 -105.0005,76.60648 z"
     transform="matrix(0.138495,0.09111842,-0.09111842,0.138495,598.45982,616.06966)" />
  <path
     transform="matrix(0.154243,0.0607683,-0.0607683,0.154243,635.67382,687.82556)"
     d="m 1240.1575,318.89763 -105.304,-76.1887 -102.9424,79.35062 39.919,-123.69369 -107.27788,-73.38334 129.97538,-0.25821 36.641,-124.70401375 40.4101,123.53411375 129.9233,-3.68798 -105.0005,76.60648 z"
     inkscape:randomized="0"
     inkscape:rounded="0"
     inkscape:flatsided="false"
     sodipodi:arg2="1.555614"
     sodipodi:arg1="0.92729542"
     sodipodi:r2="65.551201"
     sodipodi:r1="177.16541"
     sodipodi:cy="177.16528"
     sodipodi:cx="1133.8583"
     sodipodi:sides="5"
     id="path16124"
     style="fill:#ffd220;fill-opacity:1;stroke:none"
     sodipodi:type="star" />
</svg>
