<?xml version="1.0" encoding="utf-8"?>
<!-- Generator: Adobe Illustrator 16.0.0, SVG Export Plug-In . SVG Version: 6.00 Build 0)  -->
<!DOCTYPE svg PUBLIC "-//W3C//DTD SVG 1.1//EN" "http://www.w3.org/Graphics/SVG/1.1/DTD/svg11.dtd">
<svg version="1.1" id="Layer_1" xmlns="http://www.w3.org/2000/svg" xmlns:xlink="http://www.w3.org/1999/xlink" x="0px" y="0px"
	 width="750px" height="500px" viewBox="0 0 750 500" enable-background="new 0 0 750 500" xml:space="preserve">
<g>
	<polygon fill="#FEDC89" points="189,0 189,0.163 94.501,31.395 0,62.627 94.501,93.857 189,125.088 189,125.163 94.501,156.395 
		0,187.627 94.501,218.857 189,250.088 189,250.163 94.501,281.395 0,312.627 94.501,343.857 189,375.088 189,375.163 
		94.501,406.395 0,437.627 94.501,468.857 189,500.088 189,500 750,500 750,0 	"/>
	<g>
		<g>
			<path fill="#B6D692" stroke="#232323" stroke-miterlimit="10" d="M547.501,328.252c0,0,13.5,22.585,43.333,26.25
				s36.499-4.333,34.833,26.667c0,0,8.5-5.666,9.167-16s-6.499-15.342-25.333-21.421l-27.55-2.079l-26.284-20.334L547.501,328.252z"
				/>
			<path fill="#B6D692" stroke="#232323" stroke-miterlimit="10" d="M552.93,323.653c0,0,5.738,15.683,27.071,22.016
				s46.167-3.333,51.5,3s15,7.166,20.5,5.166c0,0-8.334-2.833-9.334-5.833s-15.833-10.053-29.333-8.776
				c0,0-0.834-5.289,10.333-4.923s32.001,5.136,35.334-13.999s19.667-14.638,11.5-38.805c0,0-2.166,11.205-5.5,15.853
				s-13.333,15.971-13.5,22.226s-6.334,6.897-13.334,4.076s-23.5,1.563-34.833,7.538s-38.718-3.036-39.775-11.614L552.93,323.653z"
				/>
			<path fill="#B6D692" stroke="#232323" stroke-miterlimit="10" d="M561.387,320.41c0,0,8.989,21.256,29.802,17.256
				s25.313-11.384,25.646-21.525l-23.171,9.77l-26.162-8.341L561.387,320.41z"/>
			<path fill="#B6D692" stroke="#232323" stroke-miterlimit="10" d="M568.834,309.557c0,0,14.167,4.266,25.667-3.813
				s6.166-24.451-1.667-28.015c0,0,8.334-6.313,17.667,4.979l2.345,11.847l-12.345,18.611l-33.167,1.666L568.834,309.557z"/>
			<path fill="#B6D692" stroke="#232323" stroke-miterlimit="10" d="M568.001,307.019c0,0,12.999,6.958,28.666,4.386
				s17.668-36.572,0.834-42.572c0,0,18.499-4.857,20.166,21.571l-4.821,21.571L596.667,322.5l-18.917,1.153l-11.535-8.821
				l-1.881-6.141L568.001,307.019z"/>
			<path fill="#B6D692" stroke="#232323" stroke-miterlimit="10" d="M574.472,317.161c0,0,44.863,17.509,37.029-35.662
				c0,0,9.5,8.103,11.5,19.716s-3,27.507-23.667,29.977s-31.833-8.056-32-13.043L574.472,317.161z"/>
		</g>
		<g>
			<path fill="#F6594B" stroke="#232323" stroke-miterlimit="10" d="M505,169.25c0,0,51.836-40,64.418-51.5c0,0,2.418,3.5,0,7.75
				l24.245-16.75c0,0,0.724,4.25-1.72,9.25l15.557-10.75c0,0,6.5,1.5,0,11.25c0,0,3.943,9.75-12.403,19.75
				c0,0-0.097,9.5-9.847,15.25c0,0,5,5.25-7.5,15.75c0,0,3.699,10.646-45.775,39.698l-38.725-1.831L505,169.25z"/>
			<line fill="none" stroke="#232323" stroke-miterlimit="10" x1="503.901" y1="172.791" x2="569.418" y2="125.5"/>
			<line fill="none" stroke="#232323" stroke-miterlimit="10" x1="501.824" y1="179.486" x2="591.943" y2="118"/>
			<line fill="none" stroke="#232323" stroke-miterlimit="10" x1="498.597" y1="189.885" x2="607.5" y2="118.5"/>
			<line fill="none" stroke="#232323" stroke-miterlimit="10" x1="494.878" y1="201.871" x2="595.097" y2="138.25"/>
			<line fill="none" stroke="#232323" stroke-miterlimit="10" x1="500.51" y1="207.461" x2="585.25" y2="153.5"/>
			<line fill="none" stroke="#232323" stroke-miterlimit="10" x1="515.168" y1="208.154" x2="577.75" y2="169.25"/>
		</g>
		<g>
			<path fill="#3F6864" stroke="#232323" stroke-miterlimit="10" d="M529.667,205.67c0,0,42-39,53-6.5L538,217.504L529.667,205.67z"
				/>
			<path fill="#3F6864" stroke="#232323" stroke-miterlimit="10" d="M534.667,217.504c0,0,54.332-46.333,57.166-2l-20.166-0.333
				l-30,10.588L534.667,217.504z"/>
			<path fill="#3F6864" stroke="#232323" stroke-miterlimit="10" d="M537.333,224.504c0,0,60.5-35.823,57.667,1.255l-23.833-0.921
				l-28.334,4.667L537.333,224.504z"/>
			<path fill="#3F6864" stroke="#232323" stroke-miterlimit="10" d="M542.833,229.504c0,0,55.167-31.833,55.667,5.833
				c0,0-31.834-8-54.167,4.833L542.833,229.504z"/>
			<path fill="#3F6864" stroke="#232323" stroke-miterlimit="10" d="M542.833,237.332c0,0,53.667-26,53.167,8.167
				c0,0-30.999-10.834-49.833-1.833L542.833,237.332z"/>
			<path fill="#3F6864" stroke="#232323" stroke-miterlimit="10" d="M545.85,243.063c0,0,63.483-22.565,44.15,21.435L547.333,250
				L545.85,243.063z"/>
			<path fill="#3F6864" stroke="#232323" stroke-miterlimit="10" d="M546.929,248.108c0,0,53.905-8.789,43.738,25.717
				c0,0-25.834-12.328-41.334-14.828L546.929,248.108z"/>
			<path fill="#3F6864" stroke="#232323" stroke-miterlimit="10" d="M546.5,259.329c0,0,58.785-4.167,33.785,28.833l-17.356-17.166
				l-16.429-7.167V259.329z"/>
			<path fill="#3F6864" stroke="#232323" stroke-miterlimit="10" d="M546.5,262.162c0,0,49.833,6.41,31.333,34.122l-32.666-22.459
				L546.5,262.162z"/>
			<path fill="#3F6864" stroke="#232323" stroke-miterlimit="10" d="M545.338,272.33c0,0,47.996,9.137,29.829,32.734L543.5,287.329
				L545.338,272.33z"/>
		</g>
		<g>
			<path fill="#B6D692" stroke="#232323" stroke-miterlimit="10" d="M452.75,259.16c0,0,15.867-3.16,25.184-26.16
				S449.917,198.762,505,169.25c0,0,5.314,15.75-3.176,29.75c0,0,21.842-13.667,27.843,3.833c0,0,6.152,3.205,6.993,10.608
				c0,0,6.766,2.057,6.22,10.391c0,0,8.621,5.391,5.621,13.445c0,0,3.268,3.053,0.634,11.886c0,0,6.365,6.331,0.199,12.999
				c0,0,1.334,3.738-1.833,7.536c0,0,2.416,3.431-1.042,8.031c0,0,2.458,4.441,0,7.688l-76.958-13.921l-12.51-0.666L452.75,259.16z"
				/>
			<path fill="none" stroke="#232323" stroke-miterlimit="10" d="M479.325,273.273c0,0,6.175-5.842,6.55-12.808
				c0,0,6-1.116,6.625-4.854s1.5-8.739-2.5-10.113c0,0,15.5-17.422-6.5-26.273c0,0,6.992-17.103-9.004-22.102"/>
			<path fill="none" stroke="#232323" stroke-miterlimit="10" d="M482.035,201.871c0,0,8.465-7.396,3.84-20.383"/>
			<path fill="none" stroke="#232323" stroke-miterlimit="10" d="M484.391,206.371c0,0,18.305-8.632,11.77-32.064"/>
			<path fill="none" stroke="#232323" stroke-miterlimit="10" d="M492.451,275.647c0,0,22.229-19.163,0.576-24.28"/>
			<path fill="none" stroke="#232323" stroke-miterlimit="10" d="M501.093,255.612c0,0,8.29-12.271-7.651-15.442"/>
			<path fill="none" stroke="#232323" stroke-miterlimit="10" d="M499.59,242.447c0,0,6.326-14.345-5.382-14.583"/>
			<path fill="none" stroke="#232323" stroke-miterlimit="10" d="M496.26,228.08c0,0,4.656-13.516-11.239-17.048"/>
			<path fill="none" stroke="#232323" stroke-miterlimit="10" d="M503.247,198.188c0,0-11.282,8.334-14.452,14.011"/>
			<path fill="none" stroke="#232323" stroke-miterlimit="10" d="M495.303,217.518c0,0,17.906-17.351,34.364-14.685"/>
			<path fill="none" stroke="#232323" stroke-miterlimit="10" d="M496.685,226.259c0,0,26.511-19.875,39.976-12.817"/>
			<path fill="none" stroke="#232323" stroke-miterlimit="10" d="M500.932,232.144c0,0,25.578-14.479,41.948-8.312"/>
			<path fill="none" stroke="#232323" stroke-miterlimit="10" d="M500.932,238.097c0,0,35.894-14.388,47.569-0.819"/>
			<path fill="none" stroke="#232323" stroke-miterlimit="10" d="M503.242,249.145c0,0,40.676-5.57,46.092,13.018"/>
			<path fill="none" stroke="#232323" stroke-miterlimit="10" d="M501.732,263.508c0,0,34.811-0.424,44.727,14.222"/>
			<path fill="none" stroke="#232323" stroke-miterlimit="10" d="M549.135,249.163c0,0-14.301-13.581-47.093-4.372"/>
			<path fill="none" stroke="#232323" stroke-miterlimit="10" d="M547.501,269.698c0,0-16.042-17.011-45.459-12.448"/>
			<path fill="none" stroke="#232323" stroke-miterlimit="10" d="M490,245.499c0,0-2.75-0.348-5.938,1.608s-4.875,5.831,0,7.643"/>
		</g>
		<g>
			<path fill="#F6594B" stroke="#232323" stroke-miterlimit="10" d="M380.875,388.419c0,0,76.438,52.79,131.688,40.29
				c0,0,24.418,1.521,33.318-0.979c0,0-26.365-2.489-33.365-3.239c0,0,12.492-2.745,15.742-5.495c0,0-22.504-0.998-33.504-4.248
				c0,0,17.748-0.748,22.998-2.748c0,0-23.501-2.25-34.001-7.75c0,0,12.249,2.17,17.249-0.08c0,0-51.25-16.669-87-34.669h-33
				L380.875,388.419z"/>
			<path fill="none" stroke="#232323" stroke-miterlimit="10" d="M511.84,428.865c0,0-69.756-4.324-130.965-49.928"/>
			<path fill="none" stroke="#232323" stroke-miterlimit="10" d="M512.516,424.49c0,0-92.683-10.824-126.683-54.99"/>
			<path fill="none" stroke="#232323" stroke-miterlimit="10" d="M495.595,414.984c0,0-85.761-20.151-98.928-45.484"/>
			<path fill="none" stroke="#232323" stroke-miterlimit="10" d="M484.652,404.696c0,0-53.485-12.697-77.152-35.196"/>
		</g>
		<g>
			<path fill="#3F6864" stroke="#232323" stroke-miterlimit="10" d="M416.583,371.835c0,0,23.614,20.334,44.516,13.834l-32.933-20.5
				L416.583,371.835z"/>
			<path fill="#3F6864" stroke="#232323" stroke-miterlimit="10" d="M424.403,367.334c0,0,28.763,29.167,52.263,13.501
				l-34.333-15.666L424.403,367.334z"/>
			<path fill="#3F6864" stroke="#232323" stroke-miterlimit="10" d="M443,369.002c0,0,36.833,28.333,47.833,7.833l-35-15.666
				L443,369.002z"/>
			<path fill="#3F6864" stroke="#232323" stroke-miterlimit="10" d="M453.833,363.502c0,0,38.501,29,50.167,7.5l-40.334-13.833
				L453.833,363.502z"/>
			<path fill="#3F6864" stroke="#232323" stroke-miterlimit="10" d="M462.666,359.502c0,0,35.001,26.5,49.834,7l-41.334-12
				L462.666,359.502z"/>
			<path fill="#3F6864" stroke="#232323" stroke-miterlimit="10" d="M469.44,355.518c0,0,42.226,29.483,53.893,3.317l-46.667-13.166
				L469.44,355.518z"/>
			<path fill="#3F6864" stroke="#232323" stroke-miterlimit="10" d="M480.5,349.002c0,0,53.333,29.833,57.333-1.667l-51-5.666
				L480.5,349.002z"/>
			<path fill="#3F6864" stroke="#232323" stroke-miterlimit="10" d="M485.875,342.778c0,0,61.125,24.725,59.958-5.609l-57-0.667
				L485.875,342.778z"/>
			<path fill="#3F6864" stroke="#232323" stroke-miterlimit="10" d="M490.583,337.023c0,0,63.583,23.477,59.75-8.523H495
				L490.583,337.023z"/>
			<path fill="#3F6864" stroke="#232323" stroke-miterlimit="10" d="M497.916,328.165c0,0,50.251,21.335,57.084-5.665h-50
				L497.916,328.165z"/>
		</g>
		<g>
			<path fill="#B6D692" stroke="#232323" stroke-miterlimit="10" d="M413.5,301c0,0,3.834,15.75-16.833,25
				S344,318.803,350.75,352.276s30.125,36.143,30.125,36.143s12.209,0.659,5.292-14.755c0,0,10.583,4.035,17.583-0.939
				c0,0,8.111,1.828,13.819-1.457c0,0,8.147,1.954,13.931-1.768c0,0,14.25,5.338,20.75-4.331c0,0,9.981,0.192,14-5.294
				c0,0,6.75-0.572,11-7.599c0,0,12.791-2.651,13.583-12.526c0,0,5.917-1.625,8.042-9.25c0,0,10.75-1.75,6.375-10.75l-69.875-23.466
				L413.5,301z"/>
			<path fill="none" stroke="#232323" stroke-miterlimit="10" d="M447.294,300.287C446.754,326.907,433,317,433,317
				s-1.833,12.833-9.42,13.833s-8.955-3.666-8.955-3.666s-9.125-2-9.125,3.833s7.667,4.5,7.667,4.5c-13.333,12-22-1.167-22-1.167
				c-10.333,17.833-16.714,0-16.714,0s-2.453,7.334-11.119,6.334s-13.044,9.007-13.044,9.007"/>
			<path fill="none" stroke="#232323" stroke-miterlimit="10" d="M414.625,327.167c0,0-2.125-2.83,0.875-7.33
				s9.497-5.776,7.334,2.663"/>
			<path fill="none" stroke="#232323" stroke-miterlimit="10" d="M438.841,318.784c0,0,4.493,11.88,11.993,10.55
				s9.904-10.049,7.202-25.439"/>
			<path fill="none" stroke="#232323" stroke-miterlimit="10" d="M429.642,326.422c0,0,10.13,21.413,18.911,2.912"/>
			<path fill="none" stroke="#232323" stroke-miterlimit="10" d="M417.496,330.151c0,0,10.436,21.353,19.22,5.351"/>
			<path fill="none" stroke="#232323" stroke-miterlimit="10" d="M408,339.092c0,0,10.665,18.023,17.916,1.299"/>
			<path fill="none" stroke="#232323" stroke-miterlimit="10" d="M396.521,339.092c0,0,10.275,21.127,18.877,7.601"/>
			<path fill="none" stroke="#232323" stroke-miterlimit="10" d="M384.611,341.669c0,0,7.422,18.513,20.155,8.005"/>
			<path fill="none" stroke="#232323" stroke-miterlimit="10" d="M371.363,338.579c0,0,5.381,29.385,20.536,12.636"/>
			<path fill="none" stroke="#232323" stroke-miterlimit="10" d="M358.831,341.157c0,0,4.479,20.646,18.324,11.744"/>
			<path fill="none" stroke="#232323" stroke-miterlimit="10" d="M433,317c0,0-0.118-6.834-6.476-7.834"/>
			<path fill="none" stroke="#232323" stroke-miterlimit="10" d="M367.993,354.674c0,0-11.461,10.609-16.894-6.53"/>
			<path fill="none" stroke="#232323" stroke-miterlimit="10" d="M386.574,374.61c0,0-4.592-12.943-7.916-20.108"/>
			<path fill="none" stroke="#232323" stroke-miterlimit="10" d="M370.403,384.28c0,0,0.974-20.285-7.965-26.614"/>
			<path fill="none" stroke="#232323" stroke-miterlimit="10" d="M383.245,388.162c0,0-5.094-25.635-13.586-33.096"/>
			<path fill="none" stroke="#232323" stroke-miterlimit="10" d="M403.75,372.725c0,0-11.194-0.961-19.139-16.508"/>
			<path fill="none" stroke="#232323" stroke-miterlimit="10" d="M417.569,371.268c0,0-14.729-3.866-19.732-18.398"/>
			<path fill="none" stroke="#232323" stroke-miterlimit="10" d="M431.5,369.5c0,0-16.686-7.295-20.093-18.852"/>
			<path fill="none" stroke="#232323" stroke-miterlimit="10" d="M452.25,365.169c0,0-18.144,4.146-29.363-19.843"/>
			<path fill="none" stroke="#232323" stroke-miterlimit="10" d="M466.25,359.875c0,0-20.584,0.436-33.25-19.718"/>
			<path fill="none" stroke="#232323" stroke-miterlimit="10" d="M477.25,352.276c0,0-10.312,1.455-32.729-17.084"/>
			<path fill="none" stroke="#232323" stroke-miterlimit="10" d="M490.833,339.75c0,0-16.167,4.584-37-11.498"/>
			<path fill="none" stroke="#232323" stroke-miterlimit="10" d="M498.875,330.5c0,0-9.875,2.496-18.375-2s-23.509-3.52-23.509-3.52
				"/>
		</g>
		<g>
			<path fill="#F6594B" stroke="#232323" stroke-miterlimit="10" d="M540.5,320.304c0,0,18.169,11.335,34.335-2.734
				c0,0-7.835-9.79-25.501-8.013L540.5,320.304z"/>
			<path fill="#F6594B" stroke="#232323" stroke-miterlimit="10" d="M544.168,284.667c0,0,25.498,2.628,30.999,20.397
				c0,0-4.729,4.397-13.78,0l-22.172-9.897L544.168,284.667z"/>
			<path fill="#F6594B" stroke="#232323" stroke-miterlimit="10" d="M540.171,293.141c0,0,25.997,3.334,32.997,18.264
				c0,0-10.085,4.371-26.709,1.65L540.171,293.141z"/>
			<path fill="#F6594B" stroke="#232323" stroke-miterlimit="10" d="M536.66,298.669c0,0,15.341,4.473,21.008,12.735
				c0,0-2.335,5.257-17.497,5.576l-8.671-13.437L536.66,298.669z"/>
			<path fill="#FACB57" stroke="#232323" stroke-miterlimit="10" d="M528.833,276.441c0,0,15.26-0.178,24.88,16.607
				c0,0-2.88,2.621-14.213,0.87l-14.783-9.729L528.833,276.441z"/>
			<path fill="#B6D692" stroke="#232323" stroke-miterlimit="10" d="M505.667,270.618c0,0,21.832-3.95,31.666,11.383
				c0,0-7,4.514-14,5.507l-14.167-8.837L505.667,270.618z"/>
			<path fill="#B6D692" stroke="#232323" stroke-miterlimit="10" d="M506.297,320.304c0,0,7.87,12.363,25.203,3.03
				c0,0-3.457-6.824-6.729-8.995l-14.604-2.005L506.297,320.304z"/>
			<path fill="#FACB57" stroke="#232323" stroke-miterlimit="10" d="M528,285.066c0,0,15.502,3.602,19.501,13.435
				c0,0-4.334,2.095-12.834,2.714l-12.761-12.518L528,285.066z"/>
			<path fill="#B6D692" stroke="#232323" stroke-miterlimit="10" d="M497.752,276.441c0,0,25.364-5.203,35.723,13.512
				c0,0-9.974,6.051-22.308,3.966L497.752,276.441z"/>
			<path fill="#FACB57" stroke="#232323" stroke-miterlimit="10" d="M531.5,323.334c0,0,7.668,1.772,17.834-3.03
				c0,0-4.835-9.469-12.001-9.636l-17.666,1.666L531.5,323.334z"/>
			<path fill="#FACB57" stroke="#232323" stroke-miterlimit="10" d="M520.541,315.994c0,0,12.958,1.292,22.292-3.351
				c0,0-3.333-6.968-11.333-10.139l-15.887,3.216L520.541,315.994z"/>
			<path fill="#FACB57" stroke="#232323" stroke-miterlimit="10" d="M511.167,289.834c0,0,21.124-1.257,29.333,14.061
				c0,0-10.055,6.726-28,4.797L511.167,289.834z"/>
			<path fill="#B6D692" stroke="#232323" stroke-miterlimit="10" d="M490.958,266.79c0,0,16.386-1.741,25.714,9.651l-18.327,3.493
				L490.958,266.79z"/>
			<path fill="#B6D692" stroke="#232323" stroke-miterlimit="10" d="M503.242,282.708c0,0,13.506,5.041,17.299,16.419
				c0,0-11.778,4.697-24.946,0l-6.867-13.115L503.242,282.708z"/>
			<path fill="#B6D692" stroke="#232323" stroke-miterlimit="10" d="M495.303,293.919c0,0,23.406,7.24,29.469,22.24
				c0,0-7.111,2.502-21.524,0.841l-9.806-13.105L495.303,293.919z"/>
			<path fill="#B6D692" stroke="#232323" stroke-miterlimit="10" d="M489.585,309.557c0,0,10.842-0.454,16.712-3.836
				c0,0-8.964-14.831-16.297-17.023l-15.504,5.222L489.585,309.557z"/>
			<path fill="#B6D692" stroke="#232323" stroke-miterlimit="10" d="M480.5,318.172c0,0,13.5,13.331,30.667,4.998
				c0,0-6.969-18.537-22.333-16.666L480.5,318.172z"/>
			<path fill="#B6D692" stroke="#232323" stroke-miterlimit="10" d="M480.5,318.172c0,0,10.124,1.496,16.396-3.337
				c0,0-3.396-8.215-9.313-12.94l-22.95-1.172L474.496,317L480.5,318.172z"/>
			<path fill="#B6D692" stroke="#232323" stroke-miterlimit="10" d="M490,287.508c0,0,12.831-0.6,19.166-4.8
				c0,0-8.917-10.227-18.208-9.047l-10.458,2.68L490,287.508z"/>
			<path fill="#B6D692" stroke="#232323" stroke-miterlimit="10" d="M477.25,293.675c0,0,11.707,2.833,19.646-1.667
				c0,0-4.382-15.8-16.396-18.183l-15.867,5.397L477.25,293.675z"/>
			<path fill="#B6D692" stroke="#232323" stroke-miterlimit="10" d="M443,303.172c0,0,7.499,24.334,37.5,15
				c0,0-6.169-13.667-17.834-15.667L443,303.172z"/>
			<path fill="#B6D692" stroke="#232323" stroke-miterlimit="10" d="M466.916,304.877c0,0,12.583,3.24,20.667-2.982
				c0,0-5.582-12.39-16.749-13.89l-11.726,2.667L466.916,304.877z"/>
			<path fill="#B6D692" stroke="#232323" stroke-miterlimit="10" d="M481.007,273.941c0,0,10.813,6.581,21.497-1.611
				c0,0-8.992-8.505-17.081-9.08c0,0-5.442-1.098-8.757,1.247L481.007,273.941z"/>
			<path fill="#B6D692" stroke="#232323" stroke-miterlimit="10" d="M455.129,277.729c0,0,15.307,6.325,29.506-2.448
				c0,0-3.47-6.462-7.969-10.784c0,0-7.351,7.742-19.675,2.293L455.129,277.729z"/>
			<path fill="#B6D692" stroke="#232323" stroke-miterlimit="10" d="M448.336,288.17c0,0,10.347,11.065,29.598,2.492
				c0,0-7.843-16.007-22.805-18.332L448.336,288.17z"/>
			<path fill="#B6D692" stroke="#232323" stroke-miterlimit="10" d="M435.834,297.172c0,0,6.333,18,35,9c0,0-8-18.653-19.5-20.16
				L435.834,297.172z"/>
		</g>
		<g>
			<path fill="#B6D692" stroke="#232323" stroke-miterlimit="10" d="M388.417,280.834c0,0,9.083,29.167,32.75,23.5
				s36.166-12.606,37.333-34.636s15.501-58.363-4.166-72.029c0,0,4.832,28-3.334,35.833s-8.167,15.666-8.5,21.5
				s-4.666,21.334-21.666,19.834C420.834,274.836,401.167,271.832,388.417,280.834z"/>
			<path fill="none" stroke="#232323" stroke-miterlimit="10" d="M392.03,283.25c0,0,9.888,4.5,13.304,8.75
				s19.333,6.166,26.333,1.833s25.166-10.265,23.333-42.466"/>
			<path fill="none" stroke="#232323" stroke-miterlimit="10" d="M412.333,280.336c0,0,8.001,9.744,24.334,2.372
				s5.667-25.538,17-38.706C465,230.835,460,225.759,460,225.759"/>
		</g>
		<g>
			<path fill="#B6D692" stroke="#232323" stroke-miterlimit="10" d="M376.333,257.334c0,0-11.75,28.75,23.5,28.083
				c0,0,11.166,2.5,16.75-2.75c0,0,8.333-1.5,9.25-11.75s-6-13.749-8.5-13.583s8.501,10-1.166,13.083s-7.608-9.249-5.763-13.583
				C410.404,256.834,392.166,248.751,376.333,257.334z"/>
			<path fill="none" stroke="#232323" stroke-miterlimit="10" d="M416.583,282.667c0,0-13.033,1.247-17.166-9.917"/>
			<path fill="none" stroke="#232323" stroke-miterlimit="10" d="M399.833,285.417c0,0-11.885-4.597-13.666-12.167"/>
		</g>
		<g>
			<path fill="#B6D692" stroke="#232323" stroke-miterlimit="10" d="M373.875,237.375c0,0-5.25,20.625,7.125,26.875s20-1,20-1
				s11.75,0.501,13.625-13.25L373.875,237.375z"/>
			<path fill="none" stroke="#232323" stroke-miterlimit="10" d="M401,263.25c0,0-16.629-2.125-17.939-17.875"/>
		</g>
		<g>
			<path fill="#B6D692" stroke="#232323" stroke-miterlimit="10" d="M375.573,219.668c0,0-13.906,33.167,17.177,28.5
				c0,0,21.584,14.333,34.417-2.5s-1.834-21.435,13.666-38.551s1.473-29.28,5.736-40.613c0,0-5.404-5.637-3.569,14.837
				s-11.834,20.367-16.167,32.1s3.001,32.4-18.666,29.733c0,0,4.625-4.259,1.813-9.259s-6.062-6.75-11.646-3.833
				c0,0,6.917,2,5.333,6.083s-7.166-0.75-7.833-4.667s3.333-7.5-1.417-9.083L375.573,219.668z"/>
			<path fill="none" stroke="#232323" stroke-miterlimit="10" d="M381,222.333c0,0-4.499,11.666,5.167,19.333"/>
		</g>
		<g>
			<path fill="#B6D692" stroke="#232323" stroke-miterlimit="10" d="M366.25,205.16c0,0,2.375,24.84,26.5,19.965
				c0,0,6.875,0.375,12.75-4c0,0,8.875-4.5,9.125-8.875c0,0,3.5-2.883,3.5-8.379c0,0,3.625-5.731,4.5-12.864
				s1.375-12.757,8.625-19.382s15.125-15.25,14.5-22.375c0,0,1.82-3.625,0.035-7.25c0,0-7.91,12.5-13.535,13
				s-15,11.625-16.375,15.375s-5.531,27.512-24,26.374L366.25,205.16z"/>
			<path fill="none" stroke="#232323" stroke-miterlimit="10" d="M392.75,225.125c0,0-8.333-1.458-12.333-7.792"/>
			<path fill="none" stroke="#232323" stroke-miterlimit="10" d="M405.918,220.903c0,0-11.501,2.18-17.501-4.403"/>
			<path fill="none" stroke="#232323" stroke-miterlimit="10" d="M414.625,212.25c0,0-8.291,4.334-16.291,3.417"/>
			<path fill="none" stroke="#232323" stroke-miterlimit="10" d="M418.125,203.871c0,0-7.541,7.474-16.291,6.385"/>
			<path fill="none" stroke="#232323" stroke-miterlimit="10" d="M445.75,149.25c0,0-3.167,6.501-7.417,9.001
				s-12.332,8.75-13.666,12.5"/>
		</g>
		<g>
			<path fill="#F6594B" stroke="#232323" stroke-miterlimit="10" d="M364.75,180.875c0,0-1.215-7.873,7.143-10.124
				s17.607,5.501,18.107,0S386.584,162,386.584,162s8.959,1,9.25,10.375S387.5,183.634,381,183.879L364.75,180.875z"/>
			<path fill="#F6594B" stroke="#232323" stroke-miterlimit="10" d="M387.615,189c0,0,5.052-11,15.552-10.833
				c0,0,1.774,15.56-14.75,12.259L387.615,189z"/>
			<path fill="#F6594B" stroke="#232323" stroke-miterlimit="10" d="M352,184.5c0,0,1.375-5.875,3.125-8.375
				s2.852-9.125,0.988-11.25s-5.863,1.25-6.363,4.125s-4.375,4.375-4-1s4-10.75,9.75-10.125c0,0-0.625-4.5,3.625-8.375
				s9.5-5,14.25,0c0,0-8.625,0.375-7.125,7.75s5.25,10,0,13.75s-2.75,8.25-5.375,10.625L352,184.5z"/>
			<path fill="#B6D692" stroke="#232323" stroke-miterlimit="10" d="M347.5,191.333c0,0-1.5-8.167,6.167-9.167
				c0,0,4.001,0.333,6.667-2.5c0,0,6,0.833,11.333-1.667c0,0,6.5,4,10.5,3.167s9.499,8,7.833,11.5c0,0,8.668-1.5,5.834,11.5
				c0,0,0.833,5-3.167,7.333s-8.666,2.833-11.333,0s-10.834-5.166-14.834-2.833L360.667,207l8-7L347.5,191.333z"/>
			<path fill="#F6594B" stroke="#232323" stroke-miterlimit="10" d="M363.625,183.875c0,0-3.125,1.5-1.25,5.25
				s11.25,1.25,12.625-1.875c0,0-1.84,0-3.107-1.125S367.25,182.75,363.625,183.875z"/>
			<circle fill="#F6594B" stroke="#232323" stroke-miterlimit="10" cx="366.25" cy="187.288" r="2.138"/>
			<path fill="#F6594B" stroke="#232323" stroke-miterlimit="10" d="M349.5,191.007c0,0-9.25,2.493-11.625,6.868s-0.875,7.5,1,9
				s4.5,5.25,5.125,2.25s-1.863-4.375,3.381-5.625s12.722-0.409,15.722-1.784c0,0-0.728,0.909-6.978,5.159
				c0,0,1.625,3.209,10.375,1.792s12.394-9.093,5.393-14.417c0,0-10.643-2.398-14.268-4.824
				C357.625,189.426,352.648,189.95,349.5,191.007z"/>
			<path fill="none" stroke="#232323" stroke-miterlimit="10" d="M390,192.667c0,0-5.125,0.958-4.75,4.958s4.75,3.125,4.75,3.125"/>
			<path fill="none" stroke="#232323" stroke-miterlimit="10" d="M395.834,204.167c0,0-0.959,3.083-5.834,2.083s-5.75-3.166-9-2.083
				"/>
		</g>
		<path fill="#B6D692" stroke="#232323" stroke-miterlimit="10" d="M357.5,130c0,0-4.125,7.82-8.625,9.16s-5.113,3.765-3.088,7.302
			c0,0-11.131-1.13-4.881-10.046S357.5,125.5,357.5,125.5V130z"/>
		<path fill="#B6D692" stroke="#232323" stroke-miterlimit="10" d="M412.333,102.049c0,0-12.833-4.299-19.583,5.201
			s-6.25,20.25-15,24s-21.15-3.418-18.2,5.166c0,0-8.05-1.441-7.05-8.929s5.877-8.18,12.188-6.458c0,0-1.903-6.658,7.204-8.968
			c0,0-3.246,9.185,3.681,6.687S376,103.999,390,100s26.631-15.818,51.5-10.5l11.25,3l-2,10.629L432.493,100L412.333,102.049z"/>
		<g>
			<path fill="#FACB57" stroke="#232323" stroke-miterlimit="10" d="M411.333,142c0,0,12,9.16,17-2.84c0,0,7.666-5.679,2.333-11.673
				c0,0-5.666,5.839-11.333,5.673L411.333,142z"/>
			<path fill="none" stroke="#232323" stroke-miterlimit="10" d="M428.333,139.16c0,0-7.192,1.833-14.43,0"/>
			<path fill="#FACB57" stroke="#232323" stroke-miterlimit="10" d="M396.403,133.994c0,0-2.567,11,0.765,14s0,3.667,0,3.667
				s16.141,7.167,13.236-8.833L396.403,133.994z"/>
			<path fill="#F6594B" stroke="#232323" stroke-miterlimit="10" d="M416.334,125.355c0,0,4.249,1.912,1.749,5.995
				s-14.126-3.7-4.959-15.583s28.043-7.934,38.376-4.934V106l-13-6l-24.666,0.667l-16.334,15.05V135l12.904,6.065l5.762-1.066
				c0,0,7-4.167,7-10S420.668,123.211,416.334,125.355z"/>
			<path fill="#FACB57" stroke="#232323" stroke-miterlimit="10" d="M451.5,105.933c0,0-21.501-9.252-37.167-0.759
				s-15.583,29.66,3.417,33.076c0,0,0.219,10.068-14.828,7.909s-16.289-29.4,0.488-43.03s39.09-5.704,48.09,0V105.933z"/>
		</g>
		<g>
			<path fill="#BDC5EE" stroke="#232323" stroke-miterlimit="10" d="M479.25,125.5c0,0,15.5,23.5,52.75,12.75
				c0,0-12.416-17-2.333-27.5c0,0,2.085,12,17.834,7.25S557.25,91.5,541,93.5c0,0-6.25-12.75-21-7.5c0,0,2.469-12.25-7.516-17
				s-20.318,1.5-18.276,11.75c0,0,6.292-8.5,10.792-4.5s-2,18,2.25,24s-1.166,5.5-5.208,1.5s-8.528-29-32.16-20.75
				c0,0-12.632-12-37.382-4.25c0,0-0.828,18.75,15.836,17.75c0,0-3.586,7.25,1.414,12.75c0,0-4,12.5,3,17S470.5,134,479.25,125.5z"
				/>
			<path fill="#3E4385" stroke="#232323" stroke-miterlimit="10" d="M509.625,113.5c0,0-0.125,10.5,6.75,17.75
				c0,0-10.352-2.5-14.551-8s-12.949-27-26.199-23.125s-11.625-12.125,0-12.5s18,3.875,21.25,14S504.375,114.125,509.625,113.5z"/>
			<path fill="none" stroke="#232323" stroke-miterlimit="10" d="M469.882,81c0,0-9.632,3.25-10.132,13.375
				s9.146,17.087,15.261,5.918"/>
			<path fill="none" stroke="#232323" stroke-miterlimit="10" d="M448.336,94.5c0,0,3.768-15.103,20.149-14.604"/>
			<path fill="none" stroke="#232323" stroke-miterlimit="10" d="M457.702,82.358c0,0-18.577,10.267-25.202-5.608"/>
			<path fill="none" stroke="#232323" stroke-miterlimit="10" d="M449.75,107.25c0,0,8.924,12.098,14.899-2.076"/>
			<path fill="none" stroke="#232323" stroke-miterlimit="10" d="M468.485,105.933c0,0-0.964,7.317,6.525,8.692
				s7.739-8.62,7.739-8.62s7.375,11.37-3.5,19.495"/>
			<path fill="none" stroke="#232323" stroke-miterlimit="10" d="M476.819,127.487c0,0-15.671-2.741-19.62-15.427"/>
			<path fill="none" stroke="#232323" stroke-miterlimit="10" d="M509.625,113.5c0,0,0-4.016,0.625-4.883s-0.448-3.219-1.518-5.488"
				/>
			<path fill="none" stroke="#232323" stroke-miterlimit="10" d="M517.125,112.061c0,0-0.375,17.064,14.875,26.189
				c0,0-10.875-4.5-15.625-7"/>
		</g>
		<path fill="#FACB57" stroke="#232323" stroke-miterlimit="10" d="M491.331,148.743c0,0,13.755,0.695,23.837-3.399
			c0,0-11.756,11.854-23.837,12.755s-7.661,10.559-1.746,7.23c0,0-0.218,7.921-11.651,1.921s4.102-11.25,4.102-11.25
			s-5.068-9.25-8.302-0.75c0,0-4.733,0.25-1.483-4.75c0,0-4.529-1.75-1.14-6s10.925,1.962,10.925,1.962s1.635-6.936,7.55-3.449
			C489.585,143.013,481.662,147.236,491.331,148.743z"/>
		<path fill="#B6D692" stroke="#232323" stroke-miterlimit="10" d="M361.775,296.862c0,0,7.148-11.903,0.062-19.133
			s9.513-20.153-2.287-28.566c0,0-4.206-0.413-0.003-3.788s2.892,2.987,2.892,2.987s8.562-9.169-4.938-10.266
			c0,0-7.309-5.597-13.779-4.847c0,0-0.271,3.894,2.004,9.197c0,0-7.311,7.734,4.107,16.303l-1.581,8.04l2.039,10.939l8.541,8.282
			L361.775,296.862z"/>
		<path fill="#B6D692" stroke="#232323" stroke-miterlimit="10" d="M345.725,260.5c0,0,4.275-7.75,8.775-1.75s-8.5,10.209,0,18.979
			s7.275,19.133,7.275,19.133s-5.195-10.839-11.485-10.851S341.699,266.75,345.725,260.5z"/>
		<path fill="#FACB57" stroke="#232323" stroke-miterlimit="10" d="M317.667,220.507c0,0,5.333-6.333,2-12.5
			c0,0-9.333,3.235-9,10.868L317.667,220.507z"/>
		<path fill="#FACB57" stroke="#232323" stroke-miterlimit="10" d="M303.667,258.337c0,0-7.167-9.667,0-14.833s11.833-8.667,9-14
			s-10.283-1.147-7.5,4.833c0,0-6.5-1.007-3.167-13.087s28.196-6.913,19.931,13.754s0,12.333,0,12.333l2.07,4.747L303.667,258.337z"
			/>
		<path fill="#F6594B" stroke="#232323" stroke-miterlimit="10" d="M314.333,251.367c0,0-20.767,1.014-11,21.883
			s30.167,11.919,36.5,21.753l2.167-1.166l-9.584-7.825l-10.485-9.345L314.333,251.367z"/>
		<path fill="#FACB57" stroke="#232323" stroke-miterlimit="10" d="M347.381,302.489c0,0-1.575-15.486-10.728-18.319
			s-13.957-8.167-14.722-16.5s7.895-12.499,9.315-8.333s-1.35,6.5-1.35,6.5s8.438-1.269,8.104-8.135
			c-0.333-6.866-5.167-22.866-18.833-14.866s-9.591,25.811-4.212,30.989s21.207,15.179,19.876,20.512L347.381,302.489z"/>
		<g>
			<path fill="none" stroke="#232323" stroke-miterlimit="10" d="M327.362,319.291c0,0-4.862,4.191-10.862,1.013"/>
			<path fill="#BDC5EE" stroke="#232323" stroke-miterlimit="10" d="M324.893,329.334c0,0-4.4,11.167,6.354,15
				c0,0,3.379-7.167-1.35-13.667L324.893,329.334z"/>
			<path fill="#BDC5EE" stroke="#232323" stroke-miterlimit="10" d="M338.333,314c0,0,8.331-6.364,11.499,7.734
				c0,0,7.001-11.225-1.332-19.229s-21.333-19.004-32-11.338s-14,22.94,0,29.137c0,0,1.834,18.814,19.167,11.339
				c0,0,10.167-2.341,9-9.908C344.667,321.734,332.333,322.833,338.333,314z"/>
			<path fill="#3E4385" stroke="#232323" stroke-miterlimit="10" d="M332.875,308.691c0,0,1-5.807-4.125-6.187s-7.125,6.245-1,7.87
				S332.875,308.691,332.875,308.691z"/>
			<path fill="none" stroke="#232323" stroke-miterlimit="10" d="M332.954,309.875c0,0-5.704,3.875-5.329,7.125
				s-5.041,10.285,8.042,14.643"/>
			<path fill="none" stroke="#232323" stroke-miterlimit="10" d="M327.677,316.043c0,0-9.302,1.707-12.177-8.418
				s5.911-19.037,19.331-15.894"/>
		</g>
		<g>
			<path fill="#B6D692" stroke="#232323" stroke-miterlimit="10" d="M567.334,374.61c0,0-16.916-12.485-18,4.327L533.475,390.5
				c0,0-8.928-9.555-14.576-3.402s0.769,6.902,0.769,6.902s8.101-2.598,3.666-4.75c0,0,3.612-2.25,5.89,4.75s-11.51,17.25-20.116,2
				c0,0-5.856,0.484-7.606-3.758c0,0-0.5-3.146,5.75-3.819c0,0,5.25-16.923,24.25-6.423c0,0-2.834-12.395,11.333-13.947
				c0,0,4.753-9.992,14.835-6.272S567.334,374.61,567.334,374.61z"/>
			<path fill="#F6594B" stroke="#232323" stroke-miterlimit="10" d="M551.334,412.334c0,0-4,2.801-6.75,2.65
				c0,0,25.108,14.332,34.846-21.159L551.334,412.334z"/>
			<path fill="#FACB57" stroke="#232323" stroke-miterlimit="10" d="M556.67,404.696c0,0-6.338,7.138-13.837,8.138
				c0,0,24.359,7.815,36.597-19.009L556.67,404.696z"/>
			<path fill="#FACB57" stroke="#232323" stroke-miterlimit="10" d="M552.93,376.06c0,0-22.431-3.227-21.43,19.107
				s40.501,14.833,47.334,0s2.833-24,2.833-24s-2,19-14.333,24.167s-24.502,4.909-24.501-5.129s11.002-5.222,11.168,2.037
				c0,0,5.667-2.183,5.5-7.962S552.93,376.06,552.93,376.06z"/>
			<path fill="#BDC5EE" stroke="#232323" stroke-miterlimit="10" d="M584.625,373.664c0,0,1.617,6.924,10.746,7.505
				S606,377.25,605.875,374.5s-2.25-6.625-6.5-5.625c0,0,3.125,6.127-2.25,6.438S584.625,373.664,584.625,373.664z"/>
		</g>
		<path fill="#FACB57" stroke="#232323" stroke-miterlimit="10" d="M607.5,184.333c0,0,14-16.156,22.667,6.005l-13.166,1.779
			L607.5,184.333z"/>
		<path fill="#BDC5EE" stroke="#232323" stroke-miterlimit="10" d="M623.407,221.668c0,0-15.407-6.227-20.74-19.113
			s-0.724-20.887,7.722-19.053s8.945,6.837,8.945,6.837s7-6.403,13-0.454s2.167,11.833,1.5,15.308s-3.467,10.941,10.267,21.875
			l-6.434,5.076L623.407,221.668z"/>
		<path fill="none" stroke="#232323" stroke-miterlimit="10" d="M619.334,190.339c0,0,0.166,5.869-4.667,7.849
			c0,0-9.336,5.365,12.499,20.922"/>
		<path fill="none" stroke="#232323" stroke-miterlimit="10" d="M634.092,204.172c0,0-13.425,2.702-19.425-5.984"/>
		<path fill="#FACB57" stroke="#232323" stroke-miterlimit="10" d="M624.057,251.305c0,0-11.89,2.256-14.39-8.858
			c-2.5-11.113,5.5-26.168,22.5-22.891s20.394,17.721,20.394,17.721L624.057,251.305z"/>
		<path fill="#F6594B" stroke="#232323" stroke-miterlimit="10" d="M627.262,233.783c0,0-0.095,11.58,11.405,3.898
			c0,0,2.501,21.145-17.666,12.482s1.324-37.978,21.162-22.904s12.838,25.108,12.838,25.108l-10.9-17.867L627.262,233.783z"/>
		<path fill="#B6D692" stroke="#232323" stroke-miterlimit="10" d="M643,263.508c0,0-14,7.764-18.5-10.122s8-34.481,22.75-21.934
			s21,43.851,0,63.949C647.25,295.401,657.836,265.697,643,263.508z"/>
		<path fill="#3F6864" stroke="#232323" stroke-miterlimit="10" d="M648.5,250.112c0,0-4,5.122-8,1.255
			S648.75,241.725,648.5,250.112z"/>
		<path fill="none" stroke="#232323" stroke-miterlimit="10" d="M648.5,250.112c0,0,5,9.153-5.5,13.396"/>
	</g>
	<rect x="267.5" y="18.5" fill="#F6594B" stroke="#232323" stroke-miterlimit="10" width="109" height="14"/>
	<rect x="376.5" y="18.5" fill="#FACB57" stroke="#232323" stroke-miterlimit="10" width="109" height="14"/>
	<rect x="485.5" y="18.5" fill="#3F6864" stroke="#232323" stroke-miterlimit="10" width="109" height="14"/>
	<rect x="594.5" y="18.5" fill="#FACB57" stroke="#232323" stroke-miterlimit="10" width="109" height="14"/>
	<rect x="267.5" y="464.5" fill="#FACB57" stroke="#232323" stroke-miterlimit="10" width="109" height="14"/>
	<rect x="376.5" y="464.5" fill="#3F6864" stroke="#232323" stroke-miterlimit="10" width="109" height="14"/>
	<rect x="485.5" y="464.5" fill="#FACB57" stroke="#232323" stroke-miterlimit="10" width="109" height="14"/>
	<rect x="594.5" y="464.5" fill="#F6594B" stroke="#232323" stroke-miterlimit="10" width="109" height="14"/>
	<rect x="232.5" y="316.5" fill="#F6594B" stroke="#232323" stroke-miterlimit="10" width="14" height="61"/>
	<rect x="232.5" y="254.5" fill="#FACB57" stroke="#232323" stroke-miterlimit="10" width="14" height="62"/>
	<rect x="232.5" y="192.5" fill="#3F6864" stroke="#232323" stroke-miterlimit="10" width="14" height="62"/>
	<rect x="232.5" y="131.5" fill="#FACB57" stroke="#232323" stroke-miterlimit="10" width="14" height="61"/>
</g>
</svg>
