<?xml version="1.0" encoding="UTF-8" standalone="no"?>
<svg
   xmlns:dc="http://purl.org/dc/elements/1.1/"
   xmlns:cc="http://creativecommons.org/ns#"
   xmlns:rdf="http://www.w3.org/1999/02/22-rdf-syntax-ns#"
   xmlns:svg="http://www.w3.org/2000/svg"
   xmlns="http://www.w3.org/2000/svg"
   xmlns:sodipodi="http://sodipodi.sourceforge.net/DTD/sodipodi-0.dtd"
   xmlns:inkscape="http://www.inkscape.org/namespaces/inkscape"
   width="1200" height="600"
   version="1.1"
   inkscape:version="0.48.4 r9939"
   sodipodi:docname="NakhichevanASSRFlag1937.svg">
  <metadata>
    <rdf:RDF>
      <cc:Work rdf:about="">
        <dc:format>image/svg+xml</dc:format>
        <dc:type rdf:resource="http://purl.org/dc/dcmitype/StillImage"/>
      </cc:Work>
    </rdf:RDF>
  </metadata>
  <rect style="fill:#de0000" width="1200" height="600"/>
  <path style="fill:#fcd115" d="M263 23 c7.543 2.643 15.43 5.504 22.25 9.75 c7.507 3.513 14.71 7.513 21 13 c42.43 27.69 56.84 91.92 23.75 131.3 c3.776 7.788 13.3 12.64 17.75 20.25 c-0.9245 5.628 -5.837 10.25 -11 12.5 c-9.03 -3.255 -14.63 -14.19 -22.75 -19.75 c-36.63 16.46 -78.78 1.157 -107.3 -24.75 l-2.75 -0.25 c-3.889 1.519 -0.9861 6.721 -2.25 9.75 l-3 2 c-2.306 0.2902 -4.487 0.213 -6.5 1.5 l-3 3 c-4.235 11.92 -11.78 25.9 -25.25 28.75 c-1.167 -0.7673 -2.356 -1.053 -3.75 -1.25 l-2.25 -4.75 c0.9516 -16.04 18.49 -21.9 28.75 -31.25 c1.076 -2.423 -0.4812 -4.53 -0.75 -6.75 l2.25 -3.75 c3.02 -0.1266 5.716 -0.569 8.5 -1.5 c1.076 -2.815 3.879 -5.05 6.25 -6.75 l2.75 0.25 c21.62 12.85 45.39 20.7 71.25 19.75 l2 -1 c4.505 -0.7044 10.44 -0.5901 13 -5 l-0.25 -1.75 c-22.89 -24.24 -46.3 -48.67 -69.75 -72.25 c-8.998 1.945 -13 15.05 -22 17 c-5.172 -4.545 -10.89 -9.574 -14.75 -15.25 l1 -2.5 l38 -38 c9.4 -0.2003 18.33 2.567 27.5 4 c0.3922 0.7697 0.3922 1.73 0 2.5 l-20.5 20.5 l-0.25 1.75 l1.25 2.75 l74.75 70.25 c2.678 0.772 4.078 -1.719 5.75 -3.25 c9.849 -15.21 11.13 -33.29 10.25 -51.75 c-6.022 -28.12 -26.22 -52.16 -49.75 -69.25 c-2.704 -4.123 -9.008 -5.158 -10.25 -9.75 z" id="path6"/>
  <path style="fill:#fcd115" d="M145 301 l0 -2 c2.386 -1.822 6.11 0.01682 7.75 -3.25 c1.137 -7.868 -4.355 -14.2 -6 -21.5 l-1 -1 c-10.74 -0.4167 -21.76 -0.4166 -32.5 0 l-4.25 9.75 l-1 1 c0.1373 2.579 -2.733 4.247 -2 7 c-1.25 1.533 -1.25 3.467 0 5 l1 1 c2.123 1.945 7.999 -0.08951 7.75 3.75 l-25.75 0.25 l0 -2 c0.6634 0.01862 2.155 0.1814 2 -1 c2.819 -0.06311 4.877 -2.275 6.75 -4.25 l35.5 -78.5 l1.75 -0.25 c0.8546 -0.02225 1.177 0.8173 1.75 1.25 l29.5 73.5 l3 5 c2.187 3.872 7.461 2.258 9.75 5.25 l-1 1 l-33 0 z" id="path8"/>
  <path style="fill:#fcd015" d="M285 219 l1 1 c1.853 0.3257 3.327 -1.544 4 -3 c1.181 0.1547 1.019 -1.337 1 -2 l1.75 0.25 l0.25 27.75 l-1 1 c-0.8546 0.02225 -1.177 -0.8173 -1.75 -1.25 c-0.7374 -5.593 -1.665 -11.23 -5.25 -15.75 l-1 -1 c-0.1798 -0.951 -1.049 -1.82 -2 -2 l-1 -1 c-3.77 -2.134 -7.701 -3.695 -12 -4 l-2 1 c-4.75 -0.1262 -9.267 4.537 -10 9 c-1.181 -0.1547 -1.019 1.337 -1 2 c0.09427 3.721 1.806 7.067 4 10 l1 1 l8 6 l1 1 l10 6 l1 1 c2.989 1.53 5.9 3.186 8.25 5.75 c2.573 0.9992 5.001 3.427 6 6 c4.58 4.476 3.742 11.2 3.75 17.25 c-1.562 3.065 -2.903 6.266 -5 9 l-1 1 c-0.1798 0.951 -1.049 1.82 -2 2 l-1 1 c-1.955 1.028 -3.574 3.111 -6 3 l-1 1 c-5.232 1.834 -11.33 0.6858 -17 1 l-2 -1 l-14 -4 l-1 1 c-1.663 0.5209 -0.767 4.994 -3.75 3.75 l-0.25 -27.75 l1 -1 c0.8546 -0.02225 1.177 0.8173 1.75 1.25 c0.9605 6.888 2.832 14.7 9.25 18.75 l1 1 l8 3 c0.05585 1.592 2.053 0.8102 3 1 c1.809 0.14 3.552 0.08466 5 -1 c2.696 0.5588 4.793 -0.8828 7 -2 l1 -1 l1 -1 l1 -1 c0.7723 -1.673 2.782 -2.758 2 -5 c1.362 -1.757 1.362 -4.243 0 -6 c0.3284 -1.544 -0.2883 -2.767 -1 -4 l-1 -1 c-4.666 -7.128 -13.09 -9.519 -19.25 -14.75 l-2.75 -1.25 l-1 -1 l-2 -1 l-1 -1 l-2 -1 l-1 -1 l-4 -3 l-1 -1 l-1 -1 l-2 -3 l-1 -1 c-2.889 -5.537 -2.613 -12.88 -0.75 -18.75 l1.5 -1.5 l2.25 -3.75 l1 -1 l1 -1 c8.447 -8.109 22.64 -7.717 32.25 -2.25 l1.75 0.25 z" id="path10"/>
  <path style="fill:#ee6f0b" d="M291 215 c0.01862 0.6634 0.1814 2.155 -1 2 c-0.01862 -0.6634 -0.1814 -2.155 1 -2 z" id="path12"/>
  <path style="fill:#fcd015" d="M356 219 l1 1 c1.853 0.3257 3.327 -1.544 4 -3 c1.181 0.1547 1.019 -1.337 1 -2 l1.75 0.25 l0.25 27.75 l-1 1 c-0.8546 0.02225 -1.177 -0.8173 -1.75 -1.25 c-0.7374 -5.593 -1.665 -11.23 -5.25 -15.75 l-1 -1 c-0.1798 -0.951 -1.049 -1.82 -2 -2 l-1 -1 c-3.77 -2.134 -7.701 -3.695 -12 -4 l-2 1 c-4.75 -0.1262 -9.267 4.537 -10 9 c-1.181 -0.1547 -1.019 1.337 -1 2 c0.09427 3.721 1.806 7.067 4 10 l1 1 l8 6 l1 1 l10 6 l1 1 c2.989 1.53 5.9 3.186 8.25 5.75 c2.573 0.9992 5.001 3.427 6 6 c4.58 4.476 3.742 11.2 3.75 17.25 c-1.562 3.065 -2.903 6.266 -5 9 l-1 1 c-0.1798 0.951 -1.049 1.82 -2 2 l-1 1 c-1.955 1.028 -3.574 3.111 -6 3 l-1 1 c-5.232 1.834 -11.33 0.6858 -17 1 l-2 -1 l-14 -4 l-1 1 c-1.663 0.5209 -0.767 4.994 -3.75 3.75 l-0.25 -27.75 l1 -1 c0.8546 -0.02225 1.177 0.8173 1.75 1.25 c0.9605 6.888 2.832 14.7 9.25 18.75 l1 1 l8 3 c0.05585 1.592 2.053 0.8102 3 1 c1.809 0.14 3.552 0.08466 5 -1 c2.696 0.5588 4.793 -0.8828 7 -2 l1 -1 l1 -1 l1 -1 c0.7723 -1.673 2.782 -2.758 2 -5 c1.362 -1.757 1.362 -4.243 0 -6 c0.3284 -1.544 -0.2883 -2.767 -1 -4 l-1 -1 c-4.666 -7.128 -13.09 -9.519 -19.25 -14.75 l-2.75 -1.25 l-1 -1 l-2 -1 l-1 -1 l-2 -1 l-1 -1 l-4 -3 l-1 -1 l-1 -1 l-2 -3 l-1 -1 c-2.889 -5.537 -2.613 -12.88 -0.75 -18.75 l1.5 -1.5 l2.25 -3.75 l1 -1 l1 -1 c8.447 -8.109 22.64 -7.717 32.25 -2.25 l1.75 0.25 z" id="path14"/>
  <path style="fill:#ee6f0b" d="M362 215 c0.01862 0.6634 0.1814 2.155 -1 2 c-0.01862 -0.6634 -0.1814 -2.155 1 -2 z" id="path16"/>
  <path style="fill:#fcd115" d="M439 223 l1 1 l1 1 l1 1 c5.067 5.496 4.921 14.03 2.75 20.75 l-1.5 1.5 c-2.594 5.881 -9.039 8.088 -14.25 10.75 l-2.75 0.25 l0.75 1.75 l1 1 l7 10 l1 1 l2 3 l1 1 c6.223 8.134 12.09 20.97 24 21 c0.951 0.1798 1.82 1.049 2 2 l-1 1 l-22.75 -0.25 l-29.5 -38.5 c-2.74 -0.4159 -5.76 -0.4159 -8.5 0 l-0.25 15.75 l1 13 c-0.7908 3.905 1.851 7.233 5.75 7.25 c1.17 1.94 4.636 -0.5919 5.25 1.75 l-1 1 l-34 0 l-1 -1 l0.25 -0.75 c3.145 -0.1842 6.016 -0.834 8.75 -2.25 l1 -1 c1.76 -2.008 0.2401 -4.992 2 -7 l0 -60 l-2.25 -7.75 c-3.087 -1.377 -6.044 -2.394 -9.5 -2.5 l0 -1.5 l45.75 -0.25 c4.775 1.608 9.95 2.555 14 6 z" id="path18"/>
  <path style="fill:#de0000" d="M424 224 l1 1 c3.728 2.215 6.284 6.647 6 11 c1.085 1.448 1.14 3.191 1 5 c-1.181 -0.1547 -1.019 1.337 -1 2 c-0.3749 2.59 -1.378 4.926 -3 7 l-1 1 l-1 1 l-1 1 c-4.135 2.026 -8.12 4.548 -13 4 c-2.475 1.651 -5.905 1.026 -8.75 0.75 c-0.4167 -11.41 -0.4167 -23.09 0 -34.5 c3.929 -0.9375 7.64 -2.122 11.75 -2.25 l9 3 z" id="path28"/>
  <path style="fill:#ec640a" d="M257 229 c0.01862 0.6634 0.1814 2.155 -1 2 c-0.01862 -0.6634 -0.1814 -2.155 1 -2 z" id="path50"/>
  <path style="fill:#ec640a" d="M328 229 c0.01862 0.6634 0.1814 2.155 -1 2 c-0.01862 -0.6634 -0.1814 -2.155 1 -2 z" id="path52"/>
  <path style="fill:#de0000" d="M139 257 l1 1 l3.75 10.75 c-9.405 0.4167 -19.09 0.4166 -28.5 0 l9.5 -20 l0.25 -1.75 l1 -1 l4.25 -9.75 l0.5 0 l8.25 20.75 z" id="path54"/>
  <path style="fill:#ec640a" d="M432 241 c0.01862 0.6634 0.1814 2.155 -1 2 c-0.01862 -0.6634 -0.1814 -2.155 1 -2 z" id="path60"/>
  <path style="fill:#fcd115" d="M228 255 l-1 1 l-2 3 l-1 1 l-10 14 l-1 1 l-10 14 l-1 1 l-2 3 l-1 1 l-1.75 2.75 l21.75 0.25 l3 -1 c6.603 1.625 9.389 -5.56 9.25 -10.75 c0.6138 -0.6541 1.491 -1.768 2.5 -1 l0.25 4.75 l-0.25 11.75 c-16.74 0.4167 -33.76 0.4167 -50.5 0 c-0.7894 -4.425 4.247 -7.009 5.75 -10.75 l1 -1 l2 -3 l1 -1 l7 -10 l1 -1 l2 -3 l1 -1 l7 -10 l1 -1 l2 -3 l1 -1 l4.75 -6.75 l-21.75 -0.25 c-0.9471 0.1898 -2.944 -0.592 -3 1 c-2.989 -0.08061 -4.733 3.503 -5 6 c-1.592 0.05586 -0.8102 2.053 -1 3 c0.1667 1 -1.167 1.25 -1.75 0.75 c-0.4165 -4.739 -0.4165 -9.761 0 -14.5 c15.41 -0.4167 31.09 -0.4167 46.5 0 c0.7894 4.425 -4.247 7.009 -5.75 10.75 z" id="path62"/>
  <path style="fill:#ef760b" d="M198 248 c-0.05586 1.592 -2.053 0.8102 -3 1 c0.05586 -1.592 2.053 -0.8102 3 -1 z" id="path70"/>
  <path style="fill:#ef760b" d="M190 255 c-0.1898 0.9471 0.592 2.944 -1 3 c0.1898 -0.9471 -0.592 -2.944 1 -3 z" id="path90"/>
  <path style="fill:#ee6f0b" d="M91 298 c0.1547 1.181 -1.337 1.019 -2 1 c-0.1547 -1.181 1.337 -1.019 2 -1 z" id="path168"/>
  <path style="fill:#ee700b" d="M269 299 c-0.9471 -0.1898 -2.944 0.592 -3 -1 c0.9471 0.1898 2.944 -0.592 3 1 z" id="path172"/>
  <path style="fill:#ee700b" d="M340 299 c-0.9471 -0.1898 -2.944 0.592 -3 -1 c0.9471 0.1898 2.944 -0.592 3 1 z" id="path176"/>
  <path style="fill:#ee730b" d="M89 299 l0 2 c-1.333 0.2222 -1.333 -2.222 0 -2 z" id="path178"/>
  <path style="fill:#ee730b" d="M145 299 l0 2 c-1.333 0.2222 -1.333 -2.222 0 -2 z" id="path180"/>
  <path style="fill:#fccf15" d="M150 337 l1 -1 c2.49 -2.619 6.37 -2.251 9.75 -1.75 c1.866 1.639 3.44 3.458 4.25 5.75 l0 19 l1.25 2.75 c0.6138 0.8551 1.491 1.285 2.5 1.5 l0 0.5 c-4.073 0.4164 -8.427 0.4164 -12.5 0 l3.5 -3 l0.25 -16.75 c-0.1898 -0.9471 0.592 -2.944 -1 -3 c-0.6794 -1.966 -3.148 -2.801 -5 -3 c-0.6634 -0.01862 -2.155 -0.1814 -2 1 c-7.149 1.538 -4.609 9.617 -5 15 c-0.1471 3.484 -0.7302 8.402 3.75 9.25 c0.4326 1.042 -1.386 0.674 -1.75 0.75 l-10.75 -0.25 l3.5 -4 c0.4167 -11.41 0.4167 -23.09 0 -34.5 l-0.5 -0.5 c0.4675 -2.793 -4.297 -0.7067 -3 -3.5 c3.081 0.05148 5.269 -3.382 8.5 -2 l0.25 11.75 l0.25 7.75 l2.75 -1.75 z" id="path186"/>
  <path style="fill:#fcd015" d="M419 330 l-1 -1 c-0.3068 -2.666 -3.334 -5.693 -6 -6 c0.1547 -1.181 -1.337 -1.019 -2 -1 c-2.564 0.6161 -5.917 1.042 -7 4 c-1.181 -0.1547 -1.019 1.337 -1 2 c1.532 8.089 11.03 9.796 16.25 14.75 l1.5 0.5 l4 5 c-0.08194 3.524 1.699 8.447 -1.5 11 c-0.2517 1.195 -0.9243 2.521 -2.25 2.75 l-1 1 c-5.592 3.538 -13.3 2.218 -19 0 l-2.75 1.75 c-0.4165 -4.739 -0.4165 -9.761 0 -14.5 c1.76 0.09109 1.95 2.371 1.75 3.75 l4 6 l1 1 c1.233 0.7117 2.456 1.328 4 1 c2.823 2.216 5.872 -0.4406 8.75 -1.25 l0.25 -0.75 l1 -1 l1 -4 c0.01862 -0.6634 0.1814 -2.155 -1 -2 l-2 -3 l-1 -1 l-13 -8 l-1 -1 l-1 -1 l-1 -1 c-5.761 -7.146 0.5582 -19.57 10 -18 l5.25 0.75 c1.394 0.1971 2.583 0.4827 3.75 1.25 l2.75 -1.75 l0.25 11.75 c0.7202 5.297 -3.372 0.8438 -2 -2 z" id="path188"/>
  <path style="fill:#fcd015" d="M455 330 l-1 -1 c-0.3068 -2.666 -3.334 -5.693 -6 -6 c0.1547 -1.181 -1.337 -1.019 -2 -1 c-2.564 0.6161 -5.917 1.042 -7 4 c-1.181 -0.1547 -1.019 1.337 -1 2 c1.532 8.089 11.03 9.796 16.25 14.75 l1.5 0.5 l4 5 c-0.08194 3.524 1.699 8.447 -1.5 11 c-0.2517 1.195 -0.9243 2.521 -2.25 2.75 l-1 1 c-5.592 3.538 -13.3 2.218 -19 0 l-2.75 1.75 c-0.4165 -4.739 -0.4165 -9.761 0 -14.5 c1.76 0.09109 1.95 2.371 1.75 3.75 l4 6 l1 1 c1.233 0.7117 2.456 1.328 4 1 c2.823 2.216 5.872 -0.4406 8.75 -1.25 l0.25 -0.75 l1 -1 l1 -4 c0.01862 -0.6634 0.1814 -2.155 -1 -2 l-2 -3 l-1 -1 l-13 -8 l-1 -1 l-1 -1 l-1 -1 c-5.761 -7.146 0.5582 -19.57 10 -18 l5.25 0.75 c1.394 0.1971 2.583 0.4827 3.75 1.25 l2.75 -1.75 l0.25 11.75 c0.7202 5.297 -3.372 0.8438 -2 -2 z" id="path190"/>
  <path style="fill:#fcd015" d="M76 324 l1 1 l3 4 l1 1 l3 4 l1 1 l3 4 l1 1 l3 4 l1 1 l5.75 6.75 l0.25 -24.75 c-0.7673 -1.167 -1.053 -2.356 -1.25 -3.75 l-4.5 -2 c4.739 -0.4165 9.761 -0.4165 14.5 0 l-4.5 2 c-0.1971 1.394 -0.4827 2.583 -1.25 3.75 l-0.25 37.75 c-0.5833 0.5 -1.917 0.25 -1.75 -0.75 l-1 -1 l-3 -4 l-1 -1 l-3 -4 l-1 -1 l-3 -4 l-1 -1 l-3 -4 l-1 -1 l-9.25 -11.75 l-0.75 0.75 l0 22 c-0.5279 2.875 0.6984 5.138 1.25 7.75 c1.576 0.542 2.775 1.456 4.5 1.5 l-3.75 0.75 l-10.75 -0.25 l4.5 -2 c0.1971 -1.394 0.4827 -2.583 1.25 -3.75 l-0.25 -31.75 l-8.5 -5 c4.718 0.3813 12.16 -2.579 14.75 2.75 z" id="path192"/>
  <path style="fill:#fcd015" d="M369 354 l-1 1 l-3.25 8.75 c-0.7697 0.3922 -1.73 0.3922 -2.5 0 l-0.5 -2.5 l-15.5 -31 l-0.25 27.75 c0.7673 1.167 1.053 2.356 1.25 3.75 l4.5 2 c-4.739 0.4165 -9.761 0.4165 -14.5 0 l4.5 -2 c0.1971 -1.394 0.4827 -2.583 1.25 -3.75 l0 -31 c0.01862 -0.6634 0.1814 -2.155 -1 -2 l0 -1 l-1 -1 c-1.309 0.07635 -3.279 -0.807 -3.75 -1.75 c4.073 -0.4164 8.427 -0.4164 12.5 0 l1.5 3.5 c4.767 9.246 9.051 18.36 13 28 l0.75 0.25 l0.75 -0.25 l13.5 -31.5 c4.073 -0.4164 8.427 -0.4164 12.5 0 l-4.5 2 l-1.25 22.75 c0.186 5.328 -0.7174 10.88 1.25 15.75 l3.75 1.25 l0.75 0.75 l-12.75 0.25 l-4.75 -0.25 l4.5 -2 c0.1971 -1.394 0.4827 -2.583 1.25 -3.75 l-0.25 -27.75 c-2.058 2.169 -3.191 6.13 -4.5 9 c-2.197 4.949 -4.607 9.694 -6.25 14.75 z" id="path194"/>
  <path style="fill:#fcd015" d="M499 337 l-1 1 l-1 1 l-1 1 l-6 4 l5 7 l1 1 l4 6 l1 1 l1 1 l1 1 c1.555 1.744 5.254 -0.04041 5.75 2.75 c-4.073 0.4164 -8.427 0.4164 -12.5 0 l-2.25 -3.75 l-1 -1 l-7 -10 l-1 -1 l-2.25 -3.75 c-1.414 -0.4118 -3.086 -0.4118 -4.5 0 c-0.293 5.803 -0.964 12.11 1 17.5 l2 1 l2.5 0.5 l-7.75 0.75 l-9.75 -0.25 l4.5 -2 c0.1971 -1.394 0.4827 -2.583 1.25 -3.75 l0 -31 c-0.7673 -1.167 -1.053 -2.356 -1.25 -3.75 l-4.5 -2 l24.75 -0.25 c6.808 1.697 11.7 9.393 8 16 z" id="path196"/>
  <path style="fill:#ee6f0b" d="M412 323 c-0.6634 0.01862 -2.155 0.1814 -2 -1 c0.6634 -0.01862 2.155 -0.1814 2 1 z" id="path198"/>
  <path style="fill:#ee6f0b" d="M448 323 c-0.6634 0.01862 -2.155 0.1814 -2 -1 c0.6634 -0.01862 2.155 -0.1814 2 1 z" id="path200"/>
  <path style="fill:#ec650a" d="M342 324 l-1 -1 l1 1 z" id="path202"/>
  <path style="fill:#de0000" d="M491 327 l1 1 l0 1 c-0.01862 0.6634 -0.1814 2.155 1 2 c0.2152 4.892 -3.665 10.31 -9 10 c-1.621 1.165 -3.81 1.325 -5.75 0.75 c-0.4166 -5.739 -0.4166 -11.76 0 -17.5 l2.75 -0.25 c1.533 -1.25 3.467 -1.25 5 0 c1.852 0.1989 4.321 1.034 5 3 z" id="path204"/>
  <path style="fill:#ec650a" d="M77 325 l-1 -1 l1 1 z" id="path206"/>
  <path style="fill:#ed6a0a" d="M343 327 c-1.181 0.1547 -1.019 -1.337 -1 -2 c1.181 -0.1547 1.019 1.337 1 2 z" id="path208"/>
  <path style="fill:#f8b813" d="M206 326 l4.75 0.25 c0.4118 1.414 0.4118 3.086 0 4.5 c-1.414 0.4118 -3.086 0.4118 -4.5 0 l-0.25 -4.75 z" id="path210"/>
  <path style="fill:#f8b813" d="M216 326 l4.75 0.25 c0.4118 1.414 0.4118 3.086 0 4.5 c-1.414 0.4118 -3.086 0.4118 -4.5 0 l-0.25 -4.75 z" id="path212"/>
  <path style="fill:#ee6f0b" d="M403 326 c0.01862 0.6634 0.1814 2.155 -1 2 c-0.01862 -0.6634 -0.1814 -2.155 1 -2 z" id="path214"/>
  <path style="fill:#ee6f0b" d="M439 326 c0.01862 0.6634 0.1814 2.155 -1 2 c-0.01862 -0.6634 -0.1814 -2.155 1 -2 z" id="path216"/>
  <path style="fill:#ee6f0b" d="M493 331 c-1.181 0.1547 -1.019 -1.337 -1 -2 c1.181 -0.1547 1.019 1.337 1 2 z" id="path226"/>
  <path style="fill:#fccf15" d="M131 336 l1 1 c2.945 7.292 -1.074 16.51 2.25 23.75 l3.5 -1.5 l0.25 1.75 l-1 1 l-1 1 l-1 1 c-2.513 1.999 -7.774 1.428 -7.25 -2.75 l-0.75 -0.25 c-3.633 3.994 -10.48 6.017 -14.75 1.75 c-4.289 -6.855 1.553 -14.47 8.5 -16 l7 -3 c0.1678 -2.261 -0.3439 -5.73 -2.75 -6.75 c0.1547 -1.181 -1.337 -1.019 -2 -1 l-2 0 c-0.6634 -0.01862 -2.155 -0.1814 -2 1 c-2.79 0.6343 -1.871 3.923 -2 6 l-1 1 l-2.75 -0.25 l-1 -1 c-1.756 -4.232 2.309 -7.479 5.75 -8.75 l10.75 0.25 l2.25 1.75 z" id="path230"/>
  <path style="fill:#fccb15" d="M187 338 l-1 -1 l-3 -1 c-3.368 1.086 -6.389 4.234 -6 8 c-1.362 1.757 -1.362 4.243 0 6 c-0.01132 3.333 1.881 6.439 4.25 8.75 l1.75 0.25 l1 1 c3.945 -0.01559 8.983 -2.171 9.25 -6.75 c3.768 -0.3289 0.743 5.048 -0.25 6.75 l-1 1 l-4.25 3.75 l-4.5 1.5 l0 0.5 c7.036 1.462 3.072 12.16 -3.25 10.25 l-2.75 -0.25 c0.7539 -1.66 4.333 -1.342 4.75 -3.75 c-0.02724 -1.954 -2.698 -1.495 -3 -3 l1.75 -4.75 c-4.837 -1.382 -8.01 -5.836 -9.75 -10.25 l0 -11 l3 -5 l1 -1 l1 -1 l1 -1 c5.043 -3.287 13.02 -3.163 16.75 2.25 l0.25 1.75 c1.609 4.479 -5.973 5.698 -6.25 1.25 c-1.137 -0.7068 -0.6472 -2.173 -0.75 -3.25 z" id="path232"/>
  <path style="fill:#fccf15" d="M282 336 l1 1 c2.945 7.292 -1.074 16.51 2.25 23.75 l3.5 -1.5 l0.25 1.75 l-1 1 l-1 1 l-1 1 c-2.513 1.999 -7.774 1.428 -7.25 -2.75 l-0.75 -0.25 c-3.633 3.994 -10.48 6.017 -14.75 1.75 c-4.289 -6.855 1.553 -14.47 8.5 -16 l7 -3 c0.1678 -2.261 -0.3439 -5.73 -2.75 -6.75 c0.1547 -1.181 -1.337 -1.019 -2 -1 l-2 0 c-0.6634 -0.01862 -2.155 -0.1814 -2 1 c-2.79 0.6343 -1.871 3.923 -2 6 l-1 1 l-2.75 -0.25 l-1 -1 c-1.756 -4.232 2.309 -7.479 5.75 -8.75 l10.75 0.25 l2.25 1.75 z" id="path234"/>
  <path style="fill:#fccf15" d="M301 337 l1 -1 c4.366 -4.203 12.62 -2.217 14 4 c1.257 7.69 -3.195 18.94 3.75 23.75 c-4.073 0.4164 -8.427 0.4164 -12.5 0 l3.5 -3 l0.25 -16.75 c-0.9212 -2.694 -1.74 -5.361 -5 -6 c-2.621 1.337 -5.862 1.51 -7.75 4.25 c-0.4166 6.072 -0.4166 12.43 0 18.5 l3.5 3 c-4.073 0.4164 -8.427 0.4164 -12.5 0 c6.81 -4.529 2.58 -15.36 3.75 -22.75 l-1.25 -2.75 l-2.75 -1.25 l0.25 -0.75 c3.081 0.05148 5.269 -3.382 8.5 -2 l0.5 4.5 l2.75 -1.75 z" id="path236"/>
  <path style="fill:#fcd015" d="M207 356 c-0.01862 0.6634 -0.1814 2.155 1 2 c0.4057 1.93 2.654 2.088 4 3 c2.621 -1.337 5.862 -1.51 7.75 -4.25 l0.25 -17.75 c0.01862 -0.6634 0.1814 -2.155 -1 -2 c0.1547 -1.181 -1.337 -1.019 -2 -1 l-0.75 -0.75 c2.74 -0.4159 5.76 -0.4159 8.5 0 l0.25 22.75 l1.25 2.75 l2.75 1.25 l-1 1 l-7.75 1.75 l-0.5 -4.5 l-2.75 1.75 l-1 1 l-2 1 l-1 1 l-6.75 -0.25 c-1.866 -1.639 -3.44 -3.458 -4.25 -5.75 l-0.25 -20.75 l-3.5 -3 c2.74 -0.4159 5.76 -0.4159 8.5 0 l0.25 20.75 z" id="path238"/>
  <path style="fill:#fcc915" d="M256 340 l-1 1 l-1 4 l-1 1 l-1 4 l-1 1 c-1.105 4.782 -3.321 9.153 -5.25 13.75 l-0.75 0.25 l-1 -1 l-1 -1 l-6 -16 l-1 -1 c-1.328 -3.245 -1.62 -8.131 -5.75 -9.25 l-1 -1.5 c4.406 -0.4165 9.094 -0.4164 13.5 0 l-2.5 2 l-0.25 2.75 l6.25 15.75 l0.5 0 c1.215 -6.565 5.567 -12.08 6.25 -18.75 c0.1779 -1.93 -2.92 -0.1066 -2.75 -1.75 l5.75 -0.25 l3.75 0.75 c-1.828 0.4749 -4.008 2.146 -3.75 4.25 z" id="path240"/>
  <path style="fill:#ee6f0b" d="M121 336 c0.1547 1.181 -1.337 1.019 -2 1 c-0.1547 -1.181 1.337 -1.019 2 -1 z" id="path242"/>
  <path style="fill:#ee6f0b" d="M125 337 c-0.6634 0.01862 -2.155 0.1814 -2 -1 c0.6634 -0.01862 2.155 -0.1814 2 1 z" id="path244"/>
  <path style="fill:#ee6f0b" d="M219 337 c-0.6634 0.01862 -2.155 0.1814 -2 -1 c0.6634 -0.01862 2.155 -0.1814 2 1 z" id="path252"/>
  <path style="fill:#ee6f0b" d="M272 336 c0.1547 1.181 -1.337 1.019 -2 1 c-0.1547 -1.181 1.337 -1.019 2 -1 z" id="path254"/>
  <path style="fill:#ee6f0b" d="M276 337 c-0.6634 0.01862 -2.155 0.1814 -2 -1 c0.6634 -0.01862 2.155 -0.1814 2 1 z" id="path256"/>
  <path style="fill:#ee6f0b" d="M220 339 c-1.181 0.1547 -1.019 -1.337 -1 -2 c1.181 -0.1547 1.019 1.337 1 2 z" id="path264"/>
  <path style="fill:#ec650a" d="M499 337 l-1 1 l1 -1 z" id="path266"/>
  <path style="fill:#ee6f0b" d="M154 338 c0.1547 1.181 -1.337 1.019 -2 1 c-0.1547 -1.181 1.337 -1.019 2 -1 z" id="path268"/>
  <path style="fill:#ef740b" d="M160 344 c-1.592 -0.05585 -0.8102 -2.053 -1 -3 c1.592 0.05585 0.8102 2.053 1 3 z" id="path286"/>
  <path style="fill:#ec650a" d="M128 347 l-1 0 c-0.4316 -1.061 1.432 -1.061 1 0 z" id="path298"/>
  <path style="fill:#ec650a" d="M237 347 l-1 -1 l1 1 z" id="path300"/>
  <path style="fill:#ec650a" d="M279 347 l-1 0 c-0.4316 -1.061 1.432 -1.061 1 0 z" id="path302"/>
  <path style="fill:#de0000" d="M127 347 l1 0 l-0.25 10.75 l-6.75 3.25 c-2.723 -0.798 -4.958 -3.052 -5 -6 c0.9114 -2.864 3.136 -5.089 6 -6 l1 -1 l4 -1 z" id="path304"/>
  <path style="fill:#de0000" d="M278 347 l1 0 l-0.25 10.75 l-6.75 3.25 c-2.723 -0.798 -4.958 -3.052 -5 -6 c0.9114 -2.864 3.136 -5.089 6 -6 l1 -1 l4 -1 z" id="path306"/>
  <path style="fill:#ee6f0b" d="M419 355 c-1.181 0.1547 -1.019 -1.337 -1 -2 c1.181 -0.1547 1.019 1.337 1 2 z" id="path326"/>
  <path style="fill:#ee6f0b" d="M455 355 c-1.181 0.1547 -1.019 -1.337 -1 -2 c1.181 -0.1547 1.019 1.337 1 2 z" id="path328"/>
  <path style="fill:#ec650a" d="M369 354 l-1 1 l1 -1 z" id="path330"/>
  <path style="fill:#ed6a0a" d="M208 358 c-1.181 0.1547 -1.019 -1.337 -1 -2 c1.181 -0.1547 1.019 1.337 1 2 z" id="path332"/>
  <path style="fill:#fcd115" d="M146 383 c6.557 -0.3185 4.412 8.463 5.25 12.75 l1.5 0 c9.56 -3.808 11.27 9.421 10.25 16.25 c0.2625 1.915 3.712 2.58 2.75 4.75 c-9.766 4.527 -10.47 -9.958 -10 -16.5 c-1.172 -1.217 -2.571 -3.105 -4.5 -2 l-0.25 26.75 l1 2 l-0.25 2.75 c-2.74 0.4159 -5.76 0.4159 -8.5 0 c-0.4327 -0.5734 -1.272 -0.8954 -1.25 -1.75 l2 -3 l0 -35 l-2 -3 l4 -4 z" id="path382"/>
  <path style="fill:#fcd115" d="M183 383 c1.159 -0.3185 2.087 0.416 2.75 1.25 c0.1971 1.394 0.4827 2.583 1.25 3.75 l0 37 l1 2 l-0.25 2.75 c-2.74 0.4159 -5.76 0.4159 -8.5 0 c-0.4327 -0.5734 -1.272 -0.8954 -1.25 -1.75 l2 -3 l0 -35 c-0.08658 -1.497 -2.812 -2.04 -1.75 -3.75 l4.75 -3.25 z" id="path384"/>
  <path style="fill:#fcd115" d="M231 383 c5.182 0.4388 3.605 7.136 4.25 10.75 c4.43 0.8645 10.8 -1.063 13.5 3 c-3.645 3.144 -9.6 -0.5073 -13.5 2.5 c0.02116 5.648 -2.04 12.66 2.75 16.75 l-3 2 c-2.276 -0.08081 -4.245 -1.543 -5.75 -3.25 c-2.486 -7.717 -0.7226 -16.52 -1.25 -24.75 l-1.75 -3.75 l4.75 -3.25 z" id="path386"/>
  <path style="fill:#fcd115" d="M269 383 c1.398 -0.1306 2.944 -0.1062 3.75 1.25 l0.5 40.5 l3.5 2.5 c0.3922 0.7697 0.3922 1.73 0 2.5 c-3.001 0.001953 -7.164 1.395 -9.5 -1 l-0.5 -11.5 l-1.5 -1 c-3.309 3.418 -7.584 0.6327 -10 -2.5 c-0.9012 -4.933 1.072 -10.57 -2.25 -14.75 l0.25 -1.75 c2.345 -0.3779 4.711 -3.695 7 -1.5 l0.75 14.25 c-0.0246 2.535 1.702 4.306 4 5 l0.75 -0.25 l1.25 -23.75 c-0.581 -1.9 -2.735 -3.577 -1.75 -5.75 c1.267 -0.655 3.217 -0.9056 3.75 -2.25 z" id="path388"/>
  <path style="fill:#fcd115" d="M321 383 c4.168 -1.207 2.834 3.557 3 6 l3 4 l-1 18 l1.25 2.75 c1.009 0.2151 1.886 0.6449 2.5 1.5 l-2 2.5 c-10.65 0.121 -7.308 -13.56 -7.75 -20.75 l1 -2 l-3 -5 l0 -4 c0.02725 -1.954 2.698 -1.495 3 -3 z" id="path390"/>
  <path style="fill:#fcd115" d="M472 384 l1.75 0.25 c0.9053 5.781 9.739 3.277 10.25 8.75 c-4.678 5.66 -10.14 10.83 -14 17 l3 2 l11.75 0.25 c2.518 1.507 3.377 5.546 1 7.5 l-1.5 0 l-1.5 -1.5 l-18.5 -0.5 l-1 -1 l1 -4.5 c5.877 -2.846 7.351 -9.615 12.5 -13.5 l1.25 -2.75 c-0.8357 -2.292 -3.662 -2.803 -5.75 -3.25 l-2.25 -2.75 c-1.126 -2.698 2.402 -3.564 2 -6 z" id="path392"/>
  <path style="fill:#fcd115" d="M71 385 c4.175 -1.357 4.73 2.292 6.25 4.75 l5.5 1.5 l0.5 18.5 c1.194 4.191 5.665 5.103 9.5 4 c2.316 -1.924 3.721 -4.694 3.25 -7.75 l0.25 -2.75 c1.287 -2.035 5.22 -1.782 5.75 0.75 c1.675 8.367 -7.233 15.2 -15 14 c-2.648 -1.969 -7.263 -2.088 -8.25 -5.75 l-1.5 -1.5 l-0.25 -8.75 l-0.25 -6.75 l-1 -1 c-4.089 -0.6729 -7.541 -5.517 -4.75 -9.25 z" id="path394"/>
  <path style="fill:#fcd115" d="M357 385 l8.75 0.25 l0.25 2.75 c-2.255 6.777 -0.3912 14.75 -1 22 l2.25 3.75 l4.75 0.25 l4.75 -0.25 l3.25 -4.75 l0 -19 l-2 -3 c-0.02225 -0.8546 0.8173 -1.177 1.25 -1.75 c2.74 -0.4159 5.76 -0.4159 8.5 0 l0.25 1.75 l-2 4 c0.9887 7.09 -2.763 16.22 3.75 21.25 l1 2 c0.3922 0.7697 0.3922 1.73 0 2.5 c-2.517 3.29 -5.61 -0.1765 -7.75 -1.75 c-6.973 4.18 -17.1 4.368 -22.75 -2.25 c-3.973 -7.001 -1.394 -15.67 -2.5 -23.5 l-1.75 -2.25 l1 -2 z" id="path396"/>
  <path style="fill:#fcd115" d="M393 385 c3.16 0.584 7.325 -1.316 9.75 1.25 c-1.192 2.34 -2.275 4.857 -1.75 7.75 l0.75 17.25 c0.2151 1.009 0.6449 1.886 1.5 2.5 c3.073 0.4161 6.427 0.4161 9.5 0 l3.25 -4.75 l0 -19 c-0.08658 -1.497 -2.812 -2.04 -1.75 -3.75 l7.75 -1.25 l1.75 0.25 l0.25 1.75 c-2.41 3.161 -2.103 7.111 -2 11 l0 6 c0.938 4.256 -1.226 7.459 -3.25 10.75 c-1.576 0.542 -2.775 1.456 -4.5 1.5 c-3.439 2.578 -9.061 2.578 -12.5 0 c-3.867 -0.2712 -6.981 -4.507 -6.75 -8.25 c-1.356 -1.699 -0.9847 -3.908 -1 -6 l0 -7 c1.475 -3.773 -2.447 -7.022 -1 -10 z" id="path398"/>
  <path style="fill:#fcd115" d="M429 385 c3.16 0.584 7.325 -1.316 9.75 1.25 c1.062 1.71 -1.663 2.253 -1.75 3.75 l0.25 20.75 l2.75 3.25 c3.64 -0.4842 8.401 1.5 10.75 -2.25 c2.679 -6.661 0.5881 -14.56 1.25 -21.75 l-0.75 -1.25 c-3.854 -4.822 5.738 -4.024 8.5 -3.5 c1.386 3.724 -3.325 5.751 -1.75 9.75 l0 8 c0.4917 4.337 -0.3476 8.55 -3.25 11.75 c-5.063 2.551 -11.79 5.327 -17 1.5 c-3.867 -0.2712 -6.981 -4.507 -6.75 -8.25 c-1.356 -1.699 -0.9847 -3.908 -1 -6 l0 -7 l-1 -10 z" id="path400"/>
  <path style="fill:#fcd115" d="M108 395 l2.75 0.25 l1 1 l0.5 16.5 c0.6139 0.8551 1.491 1.285 2.5 1.5 l0.25 0.75 c0.3185 1.159 -0.416 2.087 -1.25 2.75 c-3.189 0.7909 -6.235 -2.166 -7.75 -4.75 c-0.4829 -4.391 1.433 -9.653 -2 -13 l0.25 -2.75 c1.267 -0.655 3.217 -0.9056 3.75 -2.25 z" id="path402"/>
  <path style="fill:#fcd115" d="M120 395 l2.75 0.25 l1 1 l0.5 16.5 l3.5 2.5 l-2 2.5 c-3.167 0.8246 -5.524 -2.346 -8.5 -3 c-0.3634 -4.69 2.879 -10.75 -1.25 -14.75 l0.25 -2.75 c1.267 -0.655 3.217 -0.9056 3.75 -2.25 z" id="path404"/>
  <path style="fill:#fcd115" d="M132 395 l2.75 0.25 l1 1 c1.268 6.494 -1.652 14.07 2.25 19.75 c0.02225 0.8546 -0.8173 1.177 -1.25 1.75 c-2.852 0.7735 -6.69 0.5196 -7.75 -2.75 c0.1129 -4.868 3.043 -10.9 -1 -15 l0.25 -2.75 c1.267 -0.655 3.217 -0.9056 3.75 -2.25 z" id="path406"/>
  <path style="fill:#fcd115" d="M170 395 l3.75 0.25 c3.062 6.312 -0.3683 14.36 2.25 20.75 c0.02225 0.8546 -0.8173 1.177 -1.25 1.75 c-2.852 0.7735 -6.69 0.5196 -7.75 -2.75 c1.09 -4.883 2.533 -11.77 -1 -16 l4 -4 z" id="path408"/>
  <path style="fill:#fcd115" d="M190 395 c9.3 -0.3473 9.66 11.08 9 18 l1 2 l-0.25 2.75 c-3.029 -0.1228 -8.231 1.842 -9.75 -1.75 l1.75 -2.25 c-0.3502 -5.211 2.454 -12.38 -2.5 -16 l0.75 -2.75 z" id="path410"/>
  <path style="fill:#fcd115" d="M210 395 c2.789 0.3575 6.447 -1.135 8.25 1.75 l1.5 0.5 l3.25 6.75 l-3.25 7.75 c-3.753 2.11 -6.683 5.557 -8.75 9.25 c0.0683 1.658 -0.4892 3.738 1.25 4.75 c2.849 1.216 9.777 -1.802 9.5 3 c-0.5734 0.4327 -0.8954 1.272 -1.75 1.25 c-4.827 -0.8898 -11.29 2.13 -14.75 -2.25 c-0.4118 -1.414 -0.4118 -3.086 0 -4.5 c1.98 -2.711 4.419 -5.138 5.75 -8.25 c-2.009 -3.287 -6.256 -5.443 -6.25 -9.75 l-0.75 -1.25 c1.429 -2.912 1.793 -7.352 5.75 -8.25 l0.25 -0.75 z" id="path412"/>
  <path style="fill:#fcd115" d="M283 395 l3.75 0.25 c2.707 5.27 0.3523 11.78 1.5 17.5 l2.5 2.5 l0 1.5 c-2.921 2.281 -6.392 0.6513 -8.5 -2 c-1.612 -3.968 -1.28 -8.36 -1.25 -12.75 l-2 -3 c0.3079 -2.337 3.692 -1.663 4 -4 z" id="path414"/>
  <path style="fill:#fcd115" d="M296 395 l2.75 0.25 c2.707 5.27 0.3523 11.78 1.5 17.5 l2.5 2.5 l0 1.5 c-3.213 2.513 -6.785 0.04108 -9.5 -2 c-1.459 -4.781 1.845 -11.22 -2 -15 l0 -1.5 l4.75 -3.25 z" id="path416"/>
  <path style="fill:#fcd115" d="M308 395 l2.75 0.25 c3.6 6.23 -1.526 15.12 3.25 20.75 c0.02225 0.8546 -0.8173 1.177 -1.25 1.75 c-3.208 0.6296 -7.596 0.9442 -8.5 -3 c1.437 -4.027 0.6896 -9.137 0.5 -13.5 l-1.5 -1.5 l0 -1.5 l4.75 -3.25 z" id="path418"/>
  <path style="fill:#fcd115" d="M334 395 l2.75 0.25 l1 1 c1.268 6.494 -1.651 14.07 2.25 19.75 c0.02225 0.8546 -0.8173 1.177 -1.25 1.75 c-2.852 0.7735 -6.69 0.5196 -7.75 -2.75 c0.6982 -4.797 2.552 -10.9 -0.75 -15.25 c-0.3922 -0.7697 -0.3922 -1.73 0 -2.5 c1.267 -0.655 3.217 -0.9056 3.75 -2.25 z" id="path420"/>
  <path style="fill:#de0000" d="M211 399 c1.658 0.0683 3.738 -0.4892 4.75 1.25 c0.5166 4.25 0.7362 9.158 -2 12.5 c-3.535 -3.157 -2.742 -9.032 -2.75 -13.75 z" id="path422"/>
  <path style="fill:#fcd115" d="M242 404 c2.224 -0.5831 4.226 1.074 5 3 c0.3575 2.789 -1.135 6.447 1.75 8.25 l0.25 0.75 c0.02225 0.8546 -0.8173 1.177 -1.25 1.75 c-2.99 0.7488 -6.355 0.2822 -8.5 -2 l-0.25 -1.75 c2.372 -2.627 -0.701 -7.193 2.75 -9.25 l0.25 -0.75 z" id="path424"/>
</svg>