<?xml version="1.0" encoding="UTF-8" standalone="no"?>
<!-- Created with Inkscape (http://www.inkscape.org/) -->

<svg
   xmlns:dc="http://purl.org/dc/elements/1.1/"
   xmlns:cc="http://creativecommons.org/ns#"
   xmlns:rdf="http://www.w3.org/1999/02/22-rdf-syntax-ns#"
   xmlns:svg="http://www.w3.org/2000/svg"
   xmlns="http://www.w3.org/2000/svg"
   version="1.1"
   width="450"
   height="300"
   id="svg548">
  <rect
     width="450"
     height="300"
     style="fill:#000080" />
  <rect
     width="450"
     height="150"
     style="fill:#ce1022" />
  <path
     d="M 225,50 C 169.77153,50 125,94.771525 125,150 125,205.22847 169.77153,250 225,250 242.73986,250 259.39889,245.38264 273.84375,237.28125 271.74473,237.43193 269.63742,237.5 267.5,237.5 219.17509,237.5 180,198.32491 180,150 180,101.67509 219.17509,62.5 267.5,62.5 269.63742,62.5 271.74473,62.568071 273.84375,62.71875 259.39889,54.617358 242.73986,50 225,50 z"
     id="path614"
     style="fill:#ffffff" />
  <path
     d="M 524.84848,179.57565 490.09279,154.09398 455.22859,179.42699 468.72299,138.49809 433.85624,113.1686 476.95193,113.35482 490.26729,72.367319 503.40749,113.41131 546.50359,113.40913 511.52899,138.5895 z"
     transform="matrix(0,0.88772612,-0.88612517,0,419.1265,-285.1455)"
     id="path2994"
     style="fill:#ffffff" />
</svg>
