<?xml version="1.0" encoding="UTF-8" standalone="no"?>
<!-- Created with Inkscape (http://www.inkscape.org/) -->
<svg
   xmlns:svg="http://www.w3.org/2000/svg"
   xmlns="http://www.w3.org/2000/svg"
   version="1.0"
   width="800"
   height="400"
   id="svg2">
  <defs
     id="defs4" />
  <rect
     width="800"
     height="400"
     x="3.5205079e-007"
     y="-3.0957031e-006"
     style="fill:#d40000;fill-opacity:1;stroke:none;stroke-width:2.5;stroke-miterlimit:4;stroke-dasharray:none;stroke-opacity:1"
     id="rect2170" />
  <path
     d="M 125.67408,120 C 117.01214,120 110.13431,117.38204 105.0406,112.1461 C 99.946857,106.91017 97.399997,99.54754 97.399997,90.05818 C 97.399997,80.90502 99.953327,73.60703 105.05999,68.1642 C 110.16663,62.72146 117.05092,60.00007 125.71287,60 C 128.01406,60.00007 130.08257,60.12935 131.91842,60.38785 C 133.7542,60.64647 135.51244,61.00847 137.19315,61.47382 C 138.51178,61.86173 139.94682,62.39179 141.49826,63.064 C 143.0496,63.73633 144.30364,64.31809 145.26038,64.80931 L 145.26038,78.5779 L 143.78656,78.5779 C 143.08838,77.95739 142.20926,77.21401 141.14919,76.34778 C 140.08904,75.48163 138.88671,74.63483 137.54221,73.80737 C 136.19763,72.98001 134.71736,72.27543 133.10137,71.69361 C 131.48529,71.11189 129.79816,70.821 128.03995,70.82095 C 125.94554,70.821 124.0257,71.15067 122.28042,71.80996 C 120.53507,72.46935 118.87379,73.6135 117.29658,75.24241 C 115.8486,76.71628 114.66566,78.70722 113.74778,81.21526 C 112.82985,83.72338 112.3709,86.68394 112.37091,90.09697 C 112.3709,93.69105 112.84924,96.70979 113.80595,99.15321 C 114.76262,101.59666 116.01666,103.56822 117.56807,105.06788 C 119.06772,106.51586 120.74193,107.56304 122.5907,108.20944 C 124.4394,108.85587 126.28168,109.17907 128.11752,109.17906 C 130.03087,109.17907 131.85375,108.86233 133.58617,108.22884 C 135.31851,107.59536 136.7794,106.89077 137.96884,106.11506 C 139.26162,105.31353 140.39931,104.49905 141.3819,103.67163 C 142.3644,102.84424 143.21767,102.10733 143.9417,101.4609 L 145.26038,101.4609 L 145.26038,115.03556 C 144.20021,115.52684 142.97203,116.08921 141.57583,116.7227 C 140.17953,117.35619 138.74449,117.89271 137.27072,118.33226 C 135.46072,118.87524 133.76712,119.28896 132.18992,119.57337 C 130.61264,119.8578 128.44069,120 125.67408,120 L 125.67408,120 z "
     style="font-size:64px;font-style:normal;font-variant:normal;font-weight:bold;font-stretch:normal;text-align:start;line-height:125%;writing-mode:lr-tb;text-anchor:start;fill:#ffcc00;font-family:Tahoma"
     id="path2170" />
  <path
     d="M 178.73161,120 C 170.06967,120 163.19184,117.38204 158.09813,112.1461 C 153.00439,106.91017 150.45753,99.54754 150.45753,90.05818 C 150.45753,80.90502 153.01086,73.60703 158.11753,68.1642 C 163.22417,62.72146 170.10845,60.00007 178.7704,60 C 181.07159,60.00007 183.1401,60.12935 184.97595,60.38785 C 186.81173,60.64647 188.56997,61.00847 190.25068,61.47382 C 191.56931,61.86173 193.00435,62.39179 194.55579,63.064 C 196.10713,63.73633 197.36117,64.31809 198.31791,64.80931 L 198.31791,78.5779 L 196.84409,78.5779 C 196.14591,77.95739 195.26679,77.21401 194.20672,76.34778 C 193.14657,75.48163 191.94424,74.63483 190.59974,73.80737 C 189.25516,72.98001 187.77488,72.27543 186.1589,71.69361 C 184.54282,71.11189 182.85569,70.821 181.09748,70.82095 C 179.00307,70.821 177.08323,71.15067 175.33795,71.80996 C 173.5926,72.46935 171.93132,73.6135 170.35411,75.24241 C 168.90613,76.71628 167.72318,78.70722 166.80531,81.21526 C 165.88738,83.72338 165.42843,86.68394 165.42844,90.09697 C 165.42843,93.69105 165.90677,96.70979 166.86348,99.15321 C 167.82015,101.59666 169.07418,103.56822 170.6256,105.06788 C 172.12525,106.51586 173.79946,107.56304 175.64823,108.20944 C 177.49693,108.85587 179.33921,109.17907 181.17505,109.17906 C 183.0884,109.17907 184.91128,108.86233 186.6437,108.22884 C 188.37604,107.59536 189.83693,106.89077 191.02637,106.11506 C 192.31915,105.31353 193.45684,104.49905 194.43943,103.67163 C 195.42193,102.84424 196.2752,102.10733 196.99922,101.4609 L 198.31791,101.4609 L 198.31791,115.03556 C 197.25774,115.52684 196.02956,116.08921 194.63336,116.7227 C 193.23706,117.35619 191.80202,117.89271 190.32825,118.33226 C 188.51825,118.87524 186.82465,119.28896 185.24745,119.57337 C 183.67017,119.8578 181.49822,120 178.73161,120 L 178.73161,120 z "
     style="font-size:64px;font-style:normal;font-variant:normal;font-weight:bold;font-stretch:normal;text-align:start;line-height:125%;writing-mode:lr-tb;text-anchor:start;fill:#ffcc00;font-family:Tahoma"
     id="path2168" />
  <path
     d="M 251.33665,79.35359 C 251.3366,82.04271 250.90997,84.6025 250.05675,87.03297 C 249.20344,89.46351 247.97526,91.49325 246.3722,93.12218 C 245.38962,94.1306 244.31011,95.06144 243.13368,95.91468 C 241.95717,96.76797 240.65788,97.49194 239.23581,98.08662 C 237.81367,98.68135 236.26875,99.14677 234.60104,99.48287 C 232.93326,99.81903 231.06513,99.9871 228.99664,99.98707 L 221.39483,99.98707 L 221.39483,118.87524 L 206.88933,118.87524 L 206.88933,61.12476 L 229.30692,61.12476 C 232.64237,61.12482 235.5189,61.42864 237.93653,62.03621 C 240.35406,62.64389 242.5454,63.60705 244.51054,64.92567 C 246.68243,66.37368 248.36311,68.30645 249.55255,70.72399 C 250.7419,73.14162 251.3366,76.01815 251.33665,79.35359 L 251.33665,79.35359 z "
     style="font-size:64px;font-style:normal;font-variant:normal;font-weight:bold;font-stretch:normal;text-align:start;line-height:125%;writing-mode:lr-tb;text-anchor:start;fill:#ffcc00;font-family:Tahoma"
     id="path2166" />
  <path
     d="M 236.44331,79.70265 C 236.44327,78.07374 236.05542,76.67103 235.27977,75.49452 C 234.50403,74.31809 233.5732,73.51008 232.48727,73.07046 C 231.11684,72.47582 229.80463,72.13321 228.55062,72.04267 C 227.29655,71.95222 225.59649,71.90697 223.45042,71.90692 L 221.39483,71.90692 L 221.39483,89.20492 L 222.40323,89.20492 C 223.77361,89.20495 225.06642,89.19202 226.28171,89.16613 C 227.49694,89.1403 228.55705,89.04981 229.46206,88.89464 C 230.23773,88.76539 231.05866,88.51329 231.92489,88.13834 C 232.79105,87.76345 233.45685,87.34329 233.9223,86.87783 C 234.90481,85.92118 235.57062,84.9257 235.91972,83.89141 C 236.26875,82.85719 236.44327,81.46094 236.44331,79.70265 L 236.44331,79.70265 z "
     style="font-size:64px;font-style:normal;font-variant:normal;font-weight:bold;font-stretch:normal;text-align:start;line-height:125%;writing-mode:lr-tb;text-anchor:start;fill:#d40000;fill-opacity:1;font-family:Tahoma"
     id="path2164" />
  <path
     d="M 91.74777,100.41371 C 91.74772,103.23209 91.2112,105.8242 90.13821,108.19005 C 89.0651,110.55594 87.59775,112.48871 85.73613,113.98837 C 83.51243,115.77248 81.11424,117.03298 78.54157,117.76989 C 75.96881,118.5068 72.83371,118.87524 69.13626,118.87524 L 45.4,118.87524 L 45.4,61.12476 L 87.36509,61.12476 L 87.36509,72.13963 L 59.82792,72.13963 L 59.82792,82.80543 L 69.36897,82.80543 C 72.83371,82.80547 75.93649,83.05758 78.67731,83.56174 C 81.41806,84.06598 83.87442,85.17134 86.04641,86.87783 C 88.03732,88.42926 89.48527,90.37496 90.3903,92.71494 C 91.29522,95.05498 91.74772,97.62123 91.74777,100.41371 L 91.74777,100.41371 z "
     style="font-size:64px;font-style:normal;font-variant:normal;font-weight:bold;font-stretch:normal;text-align:start;line-height:125%;writing-mode:lr-tb;text-anchor:start;fill:#ffcc00;font-family:Tahoma"
     id="path2162" />
  <path
     d="M 76.77686,100.84034 C 76.77682,99.88368 76.6734,98.9787 76.46658,98.12541 C 76.25969,97.27217 75.8072,96.48355 75.10911,95.75954 C 74.41095,95.06144 73.45426,94.50553 72.23904,94.09179 C 71.02376,93.67812 69.34308,93.47126 67.19703,93.47124 L 59.82792,93.47124 L 59.82792,108.17066 L 67.19703,108.17066 C 70.17049,108.17067 72.5105,107.53719 74.21706,106.2702 C 75.92356,105.00325 76.77682,103.1933 76.77686,100.84034 L 76.77686,100.84034 z "
     style="font-size:64px;font-style:normal;font-variant:normal;font-weight:bold;font-stretch:normal;text-align:start;line-height:125%;writing-mode:lr-tb;text-anchor:start;fill:#d40000;fill-opacity:1;font-family:Tahoma"
     id="flowRoot2160" />
  <rect
     width="412.7854"
     height="271.53729"
     x="-120.54795"
     y="-79.75647"
     style="fill:none;fill-opacity:1;stroke:#ffcc00;stroke-width:5;stroke-miterlimit:4;stroke-dasharray:none;stroke-opacity:1"
     id="rect5122" />
</svg>
