<?xml version="1.0" encoding="UTF-8"?>
<!DOCTYPE svg PUBLIC "-//W3C//DTD SVG 1.1//EN" "http://www.w3.org/Graphics/SVG/1.1/DTD/svg11.dtd">
<!-- Creator: CorelDRAW -->
<svg xmlns="http://www.w3.org/2000/svg" xml:space="preserve" width="420.757mm" height="252.454mm" style="shape-rendering:geometricPrecision; text-rendering:geometricPrecision; image-rendering:optimizeQuality; fill-rule:evenodd; clip-rule:evenodd"
viewBox="0 0 420.757 252.454"
 xmlns:xlink="http://www.w3.org/1999/xlink">
 <defs>
  <style type="text/css">
   <![CDATA[
    .str2 {stroke:#1F1A17;stroke-width:0.0762}
    .str0 {stroke:#E7C900;stroke-width:0.0762}
    .str1 {stroke:#1F1A17;stroke-width:0.7}
    .fil2 {fill:none}
    .fil0 {fill:#006CB1}
    .fil3 {fill:#616F85}
    .fil1 {fill:#E7C900}
   ]]>
  </style>
 </defs>
 <g id="Capa_x0020_1">
  <metadata id="CorelCorpID_0Corel-Layer"/>
  <rect class="fil0" x="0.1108" y="0.3443" width="420.757" height="252.454"/>
  <path class="fil1 str0" d="M245.222 164.885l0 0.4751 -0.0001 3.2314 0.0001 3.1091c-0.0002,0.9659 1.9005,2.4101 1.9005,2.4101 0,0 1.8983,-1.2018 1.8981,-2.3697l-0.0001 -3.1495 3.1496 -0.0001c1.1679,0.0002 2.3698,-1.898 2.3698,-1.898 0,0 -1.4442,-1.9004 -2.4105,-1.9005l-3.1089 0 0.0002 -4.2293c-0.0003,-0.0179 -0.0004,-0.0357 -0.0001,-0.0538l0.0001 -0.9979 -0.0001 -1.4977 1.4974 0 0.9979 0c0.0181,-0.0003 0.036,-0.0003 0.0538,0l4.2293 0 0 3.1089c0,0.9661 1.9005,2.4104 1.9005,2.4104 0,0 1.8981,-1.2019 1.8981,-2.3698l0 -3.1495 3.1495 0c1.1679,0.0002 2.3698,-1.8981 2.3698,-1.8981 0,0 -1.4443,-1.9007 -2.4104,-1.9005l-3.1089 0 -3.2314 0 -0.475 0 -4.3212 0c-0.0179,0.0003 -0.0359,0.0003 -0.0541,0l-0.9979 0 -1.4987 0 -0.0012 0 0 3.7964 0.0012 -3.7964 0 -1.4999 0 -0.9979c-0.0003,-0.0181 -0.0003,-0.036 0,-0.0538l0 -4.2293 3.1089 0c0.9661,0 2.4104,-1.9005 2.4104,-1.9005 0,0 -1.2019,-1.8981 -2.3698,-1.8981l-3.1495 0 0 -3.1495c0.0002,-1.1679 -1.8981,-2.3698 -1.8981,-2.3698 0,0 -1.9007,1.4443 -1.9005,2.4104l0 3.1089 0 3.2314 0 0.475 0 4.3212c0.0003,0.0179 0.0003,0.0359 0,0.0541l0 0.9979 0 1.4987 -1.4987 0 -0.9979 0c-0.0182,0.0003 -0.0362,0.0003 -0.0541,0l-4.3212 0 -0.475 0 -3.2314 0 -3.1089 0c-0.9661,-0.0002 -2.4104,1.9005 -2.4104,1.9005 0,0 1.2019,1.8983 2.3698,1.8981l3.1495 0 0 3.1495c0,1.1679 1.8981,2.3698 1.8981,2.3698 0,0 1.9005,-1.4443 1.9005,-2.4104l0 -3.1089 4.2293 0c0.0178,-0.0003 0.0357,-0.0003 0.0538,0l0.9979 0 1.4987 0 0 0.0012 0.0012 0 0.0002 1.4977 -0.0001 0.9979c0.0003,0.0182 0.0003,0.0363 0,0.0542l0 4.321zm-10.5796 -10.6706l3.7984 -0.0001 0.0001 -3.1087c-0.0001,-0.9662 -1.9005,-2.4104 -1.9005,-2.4104 0,0 -1.8982,1.2021 -1.8982,2.3698l0.0002 3.1494zm24.9552 0.0012l-3.7984 -0.0001 -0.0001 -3.1087c0.0001,-0.9662 1.9005,-2.4104 1.9005,-2.4104 0,0 1.8982,1.2021 1.8982,2.3698l-0.0002 3.1494zm-14.3769 -10.5795l-0.0001 3.7984 -3.1087 0.0001c-0.9662,-0.0001 -2.4104,-1.9005 -2.4104,-1.9005 0,0 1.2021,-1.8982 2.3698,-1.8982l3.1494 0.0002zm0.0012 24.9554l0 -3.7984 -3.1087 -0.0001c-0.9663,0.0001 -2.4105,1.9004 -2.4105,1.9004 0,0 1.2022,1.8983 2.37,1.8984l3.1492 -0.0003z"/>
  <path class="fil1 str0" d="M169.272 164.796l0 0.4751 -0.0001 3.2314 0.0001 3.1091c-0.0002,0.9659 1.9005,2.4101 1.9005,2.4101 0,0 1.8983,-1.2018 1.8981,-2.3697l-0.0001 -3.1495 3.1496 -0.0001c1.1679,0.0002 2.3698,-1.898 2.3698,-1.898 0,0 -1.4442,-1.9004 -2.4105,-1.9005l-3.1089 0 0.0002 -4.2293c-0.0003,-0.0179 -0.0004,-0.0357 -0.0001,-0.0538l0.0001 -0.9979 -0.0001 -1.4977 1.4974 0 0.9979 0c0.0181,-0.0003 0.036,-0.0003 0.0538,0l4.2293 0 0 3.1089c0,0.9661 1.9005,2.4104 1.9005,2.4104 0,0 1.8981,-1.2019 1.8981,-2.3698l0 -3.1495 3.1495 0c1.1679,0.0002 2.3698,-1.8981 2.3698,-1.8981 0,0 -1.4443,-1.9007 -2.4104,-1.9005l-3.1089 0 -3.2314 0 -0.475 0 -4.3212 0c-0.0179,0.0003 -0.0359,0.0003 -0.0541,0l-0.9979 0 -1.4987 0 -0.0012 0 0 3.7964 0.0012 -3.7964 0 -1.4999 0 -0.9979c-0.0003,-0.0181 -0.0003,-0.036 0,-0.0538l0 -4.2293 3.1089 0c0.9661,0 2.4104,-1.9005 2.4104,-1.9005 0,0 -1.2019,-1.8981 -2.3698,-1.8981l-3.1495 0 0 -3.1495c0.0002,-1.1679 -1.8981,-2.3698 -1.8981,-2.3698 0,0 -1.9007,1.4443 -1.9005,2.4104l0 3.1089 0 3.2314 0 0.475 0 4.3212c0.0003,0.0179 0.0003,0.0359 0,0.0541l0 0.9979 0 1.4987 -1.4987 0 -0.9979 0c-0.0182,0.0003 -0.0362,0.0003 -0.0541,0l-4.3212 0 -0.475 0 -3.2314 0 -3.1089 0c-0.9661,-0.0002 -2.4104,1.9005 -2.4104,1.9005 0,0 1.2019,1.8983 2.3698,1.8981l3.1495 0 0 3.1495c0,1.1679 1.8981,2.3698 1.8981,2.3698 0,0 1.9005,-1.4443 1.9005,-2.4104l0 -3.1089 4.2293 0c0.0178,-0.0003 0.0357,-0.0003 0.0538,0l0.9979 0 1.4987 0 0 0.0012 0.0012 0 0.0002 1.4977 -0.0001 0.9979c0.0003,0.0182 0.0003,0.0363 0,0.0542l0 4.321zm-10.5796 -10.6706l3.7984 -0.0001 0.0001 -3.1087c-0.0001,-0.9662 -1.9005,-2.4104 -1.9005,-2.4104 0,0 -1.8982,1.2021 -1.8982,2.3698l0.0002 3.1494zm24.9552 0.0012l-3.7984 -0.0001 -0.0001 -3.1087c0.0001,-0.9662 1.9005,-2.4104 1.9005,-2.4104 0,0 1.8982,1.2021 1.8982,2.3698l-0.0002 3.1494zm-14.3769 -10.5795l-0.0001 3.7984 -3.1087 0.0001c-0.9662,-0.0001 -2.4104,-1.9005 -2.4104,-1.9005 0,0 1.2021,-1.8982 2.3698,-1.8982l3.1494 0.0002zm0.0012 24.9554l0 -3.7984 -3.1087 -0.0001c-0.9663,0.0001 -2.4105,1.9004 -2.4105,1.9004 0,0 1.2022,1.8983 2.37,1.8984l3.1492 -0.0003z"/>
  <path class="fil1 str0" d="M93.4315 164.807l0 0.4751 -0.0001 3.2314 0.0001 3.1091c-0.0002,0.9659 1.9005,2.4101 1.9005,2.4101 0,0 1.8983,-1.2018 1.8981,-2.3697l-0.0001 -3.1495 3.1496 -0.0001c1.1679,0.0002 2.3698,-1.898 2.3698,-1.898 0,0 -1.4442,-1.9004 -2.4105,-1.9005l-3.1089 0 0.0002 -4.2293c-0.0003,-0.0179 -0.0004,-0.0357 -0.0001,-0.0538l0.0001 -0.9979 -0.0001 -1.4977 1.4974 0 0.9979 0c0.0181,-0.0003 0.036,-0.0003 0.0538,0l4.2293 0 0 3.1089c0,0.9661 1.9005,2.4104 1.9005,2.4104 0,0 1.8981,-1.2019 1.8981,-2.3698l0 -3.1495 3.1495 0c1.1679,0.0002 2.3698,-1.8981 2.3698,-1.8981 0,0 -1.4443,-1.9007 -2.4104,-1.9005l-3.1089 0 -3.2314 0 -0.475 0 -4.3212 0c-0.0179,0.0003 -0.0359,0.0003 -0.0541,0l-0.9979 0 -1.4987 0 -0.0012 0 0 3.7964 0.0012 -3.7964 0 -1.4999 0 -0.9979c-0.0003,-0.0181 -0.0003,-0.036 0,-0.0538l0 -4.2293 3.1089 0c0.9661,0 2.4104,-1.9005 2.4104,-1.9005 0,0 -1.2019,-1.8981 -2.3698,-1.8981l-3.1495 0 0 -3.1495c0.0002,-1.1679 -1.8981,-2.3698 -1.8981,-2.3698 0,0 -1.9007,1.4443 -1.9005,2.4104l0 3.1089 0 3.2314 0 0.475 0 4.3212c0.0003,0.0179 0.0003,0.0359 0,0.0541l0 0.9979 0 1.4987 -1.4987 0 -0.9979 0c-0.0182,0.0003 -0.0362,0.0003 -0.0541,0l-4.3212 0 -0.475 0 -3.2314 0 -3.1089 0c-0.9661,-0.0002 -2.4104,1.9005 -2.4104,1.9005 0,0 1.2019,1.8983 2.3698,1.8981l3.1495 0 0 3.1495c0,1.1679 1.8981,2.3698 1.8981,2.3698 0,0 1.9005,-1.4443 1.9005,-2.4104l0 -3.1089 4.2293 0c0.0178,-0.0003 0.0357,-0.0003 0.0538,0l0.9979 0 1.4987 0 0 0.0012 0.0012 0 0.0002 1.4977 -0.0001 0.9979c0.0003,0.0182 0.0003,0.0363 0,0.0542l0 4.321zm-10.5796 -10.6706l3.7984 -0.0001 0.0001 -3.1087c-0.0001,-0.9662 -1.9005,-2.4104 -1.9005,-2.4104 0,0 -1.8982,1.2021 -1.8982,2.3698l0.0002 3.1494zm24.9552 0.0012l-3.7984 -0.0001 -0.0001 -3.1087c0.0001,-0.9662 1.9005,-2.4104 1.9005,-2.4104 0,0 1.8982,1.2021 1.8982,2.3698l-0.0002 3.1494zm-14.3769 -10.5795l-0.0001 3.7984 -3.1087 0.0001c-0.9662,-0.0001 -2.4104,-1.9005 -2.4104,-1.9005 0,0 1.2021,-1.8982 2.3698,-1.8982l3.1494 0.0002zm0.0012 24.9554l0 -3.7984 -3.1087 -0.0001c-0.9663,0.0001 -2.4105,1.9004 -2.4105,1.9004 0,0 1.2022,1.8983 2.37,1.8984l3.1492 -0.0003z"/>
  <path class="fil1 str0" d="M55.5837 223.842l0 0.4751 -0.0001 3.2314 0.0001 3.1091c-0.0002,0.9659 1.9005,2.4101 1.9005,2.4101 0,0 1.8983,-1.2018 1.8981,-2.3697l-0.0001 -3.1495 3.1496 -0.0001c1.1679,0.0002 2.3698,-1.898 2.3698,-1.898 0,0 -1.4442,-1.9004 -2.4105,-1.9005l-3.1089 0 0.0002 -4.2293c-0.0003,-0.0179 -0.0004,-0.0357 -0.0001,-0.0538l0.0001 -0.9979 -0.0001 -1.4977 1.4974 0 0.9979 0c0.0181,-0.0003 0.036,-0.0003 0.0538,0l4.2293 0 0 3.1089c0,0.9661 1.9005,2.4104 1.9005,2.4104 0,0 1.8981,-1.2019 1.8981,-2.3698l0 -3.1495 3.1495 0c1.1679,0.0002 2.3698,-1.8981 2.3698,-1.8981 0,0 -1.4443,-1.9007 -2.4104,-1.9005l-3.1089 0 -3.2314 0 -0.475 0 -4.3212 0c-0.0179,0.0003 -0.0359,0.0003 -0.0541,0l-0.9979 0 -1.4987 0 -0.0012 0 0 3.7964 0.0012 -3.7964 0 -1.4999 0 -0.9979c-0.0003,-0.0181 -0.0003,-0.036 0,-0.0538l0 -4.2293 3.1089 0c0.9661,0 2.4104,-1.9005 2.4104,-1.9005 0,0 -1.2019,-1.8981 -2.3698,-1.8981l-3.1495 0 0 -3.1495c0.0002,-1.1679 -1.8981,-2.3698 -1.8981,-2.3698 0,0 -1.9007,1.4443 -1.9005,2.4104l0 3.1089 0 3.2314 0 0.475 0 4.3212c0.0003,0.0179 0.0003,0.0359 0,0.0541l0 0.9979 0 1.4987 -1.4987 0 -0.9979 0c-0.0182,0.0003 -0.0362,0.0003 -0.0541,0l-4.3212 0 -0.475 0 -3.2314 0 -3.1089 0c-0.9661,-0.0002 -2.4104,1.9005 -2.4104,1.9005 0,0 1.2019,1.8983 2.3698,1.8981l3.1495 0 0 3.1495c0,1.1679 1.8981,2.3698 1.8981,2.3698 0,0 1.9005,-1.4443 1.9005,-2.4104l0 -3.1089 4.2293 0c0.0178,-0.0003 0.0357,-0.0003 0.0538,0l0.9979 0 1.4987 0 0 0.0012 0.0012 0 0.0002 1.4977 -0.0001 0.9979c0.0003,0.0182 0.0003,0.0363 0,0.0542l0 4.321zm-10.5796 -10.6706l3.7984 -0.0001 0.0001 -3.1087c-0.0001,-0.9662 -1.9005,-2.4104 -1.9005,-2.4104 0,0 -1.8982,1.2021 -1.8982,2.3698l0.0002 3.1494zm24.9552 0.0012l-3.7984 -0.0001 -0.0001 -3.1087c0.0001,-0.9662 1.9005,-2.4104 1.9005,-2.4104 0,0 1.8982,1.2021 1.8982,2.3698l-0.0002 3.1494zm-14.3769 -10.5795l-0.0001 3.7984 -3.1087 0.0001c-0.9662,-0.0001 -2.4104,-1.9005 -2.4104,-1.9005 0,0 1.2021,-1.8982 2.3698,-1.8982l3.1494 0.0002zm0.0012 24.9554l0 -3.7984 -3.1087 -0.0001c-0.9663,0.0001 -2.4105,1.9004 -2.4105,1.9004 0,0 1.2022,1.8983 2.37,1.8984l3.1492 -0.0003z"/>
  <path class="fil1 str0" d="M131.393 223.857l0 0.4751 -0.0001 3.2314 0.0001 3.1091c-0.0002,0.9659 1.9005,2.4101 1.9005,2.4101 0,0 1.8983,-1.2018 1.8981,-2.3697l-0.0001 -3.1495 3.1496 -0.0001c1.1679,0.0002 2.3698,-1.898 2.3698,-1.898 0,0 -1.4442,-1.9004 -2.4105,-1.9005l-3.1089 0 0.0002 -4.2293c-0.0003,-0.0179 -0.0004,-0.0357 -0.0001,-0.0538l0.0001 -0.9979 -0.0001 -1.4977 1.4974 0 0.9979 0c0.0181,-0.0003 0.036,-0.0003 0.0538,0l4.2293 0 0 3.1089c0,0.9661 1.9005,2.4104 1.9005,2.4104 0,0 1.8981,-1.2019 1.8981,-2.3698l0 -3.1495 3.1495 0c1.1679,0.0002 2.3698,-1.8981 2.3698,-1.8981 0,0 -1.4443,-1.9007 -2.4104,-1.9005l-3.1089 0 -3.2314 0 -0.475 0 -4.3212 0c-0.0179,0.0003 -0.0359,0.0003 -0.0541,0l-0.9979 0 -1.4987 0 -0.0012 0 0 3.7964 0.0012 -3.7964 0 -1.4999 0 -0.9979c-0.0003,-0.0181 -0.0003,-0.036 0,-0.0538l0 -4.2293 3.1089 0c0.9661,0 2.4104,-1.9005 2.4104,-1.9005 0,0 -1.2019,-1.8981 -2.3698,-1.8981l-3.1495 0 0 -3.1495c0.0002,-1.1679 -1.8981,-2.3698 -1.8981,-2.3698 0,0 -1.9007,1.4443 -1.9005,2.4104l0 3.1089 0 3.2314 0 0.475 0 4.3212c0.0003,0.0179 0.0003,0.0359 0,0.0541l0 0.9979 0 1.4987 -1.4987 0 -0.9979 0c-0.0182,0.0003 -0.0362,0.0003 -0.0541,0l-4.3212 0 -0.475 0 -3.2314 0 -3.1089 0c-0.9661,-0.0002 -2.4104,1.9005 -2.4104,1.9005 0,0 1.2019,1.8983 2.3698,1.8981l3.1495 0 0 3.1495c0,1.1679 1.8981,2.3698 1.8981,2.3698 0,0 1.9005,-1.4443 1.9005,-2.4104l0 -3.1089 4.2293 0c0.0178,-0.0003 0.0357,-0.0003 0.0538,0l0.9979 0 1.4987 0 0 0.0012 0.0012 0 0.0002 1.4977 -0.0001 0.9979c0.0003,0.0182 0.0003,0.0363 0,0.0542l0 4.321zm-10.5796 -10.6706l3.7984 -0.0001 0.0001 -3.1087c-0.0001,-0.9662 -1.9005,-2.4104 -1.9005,-2.4104 0,0 -1.8982,1.2021 -1.8982,2.3698l0.0002 3.1494zm24.9552 0.0012l-3.7984 -0.0001 -0.0001 -3.1087c0.0001,-0.9662 1.9005,-2.4104 1.9005,-2.4104 0,0 1.8982,1.2021 1.8982,2.3698l-0.0002 3.1494zm-14.3769 -10.5795l-0.0001 3.7984 -3.1087 0.0001c-0.9662,-0.0001 -2.4104,-1.9005 -2.4104,-1.9005 0,0 1.2021,-1.8982 2.3698,-1.8982l3.1494 0.0002zm0.0012 24.9554l0 -3.7984 -3.1087 -0.0001c-0.9663,0.0001 -2.4105,1.9004 -2.4105,1.9004 0,0 1.2022,1.8983 2.37,1.8984l3.1492 -0.0003z"/>
  <path class="fil1 str0" d="M55.5168 109.11l0 0.4751 -0.0001 3.2314 0.0001 3.1091c-0.0002,0.9659 1.9005,2.4101 1.9005,2.4101 0,0 1.8983,-1.2018 1.8981,-2.3697l-0.0001 -3.1495 3.1496 -0.0001c1.1679,0.0002 2.3698,-1.898 2.3698,-1.898 0,0 -1.4442,-1.9004 -2.4105,-1.9005l-3.1089 0 0.0002 -4.2293c-0.0003,-0.0179 -0.0004,-0.0357 -0.0001,-0.0538l0.0001 -0.9979 -0.0001 -1.4977 1.4974 0 0.9979 0c0.0181,-0.0003 0.036,-0.0003 0.0538,0l4.2293 0 0 3.1089c0,0.9661 1.9005,2.4104 1.9005,2.4104 0,0 1.8981,-1.2019 1.8981,-2.3698l0 -3.1495 3.1495 0c1.1679,0.0002 2.3698,-1.8981 2.3698,-1.8981 0,0 -1.4443,-1.9007 -2.4104,-1.9005l-3.1089 0 -3.2314 0 -0.475 0 -4.3212 0c-0.0179,0.0003 -0.0359,0.0003 -0.0541,0l-0.9979 0 -1.4987 0 -0.0012 0 0 3.7964 0.0012 -3.7964 0 -1.4999 0 -0.9979c-0.0003,-0.0181 -0.0003,-0.036 0,-0.0538l0 -4.2293 3.1089 0c0.9661,0 2.4104,-1.9005 2.4104,-1.9005 0,0 -1.2019,-1.8981 -2.3698,-1.8981l-3.1495 0 0 -3.1495c0.0002,-1.1679 -1.8981,-2.3698 -1.8981,-2.3698 0,0 -1.9007,1.4443 -1.9005,2.4104l0 3.1089 0 3.2314 0 0.475 0 4.3212c0.0003,0.0179 0.0003,0.0359 0,0.0541l0 0.9979 0 1.4987 -1.4987 0 -0.9979 0c-0.0182,0.0003 -0.0362,0.0003 -0.0541,0l-4.3212 0 -0.475 0 -3.2314 0 -3.1089 0c-0.9661,-0.0002 -2.4104,1.9005 -2.4104,1.9005 0,0 1.2019,1.8983 2.3698,1.8981l3.1495 0 0 3.1495c0,1.1679 1.8981,2.3698 1.8981,2.3698 0,0 1.9005,-1.4443 1.9005,-2.4104l0 -3.1089 4.2293 0c0.0178,-0.0003 0.0357,-0.0003 0.0538,0l0.9979 0 1.4987 0 0 0.0012 0.0012 0 0.0002 1.4977 -0.0001 0.9979c0.0003,0.0182 0.0003,0.0363 0,0.0542l0 4.321zm-10.5796 -10.6706l3.7984 -0.0001 0.0001 -3.1087c-0.0001,-0.9662 -1.9005,-2.4104 -1.9005,-2.4104 0,0 -1.8982,1.2021 -1.8982,2.3698l0.0002 3.1494zm24.9552 0.0012l-3.7984 -0.0001 -0.0001 -3.1087c0.0001,-0.9662 1.9005,-2.4104 1.9005,-2.4104 0,0 1.8982,1.2021 1.8982,2.3698l-0.0002 3.1494zm-14.3769 -10.5795l-0.0001 3.7984 -3.1087 0.0001c-0.9662,-0.0001 -2.4104,-1.9005 -2.4104,-1.9005 0,0 1.2021,-1.8982 2.3698,-1.8982l3.1494 0.0002zm0.0012 24.9554l0 -3.7984 -3.1087 -0.0001c-0.9663,0.0001 -2.4105,1.9004 -2.4105,1.9004 0,0 1.2022,1.8983 2.37,1.8984l3.1492 -0.0003z"/>
  <path class="fil1 str0" d="M131.37 109.033l0 0.4751 -0.0001 3.2314 0.0001 3.1091c-0.0002,0.9659 1.9005,2.4101 1.9005,2.4101 0,0 1.8983,-1.2018 1.8981,-2.3697l-0.0001 -3.1495 3.1496 -0.0001c1.1679,0.0002 2.3698,-1.898 2.3698,-1.898 0,0 -1.4442,-1.9004 -2.4105,-1.9005l-3.1089 0 0.0002 -4.2293c-0.0003,-0.0179 -0.0004,-0.0357 -0.0001,-0.0538l0.0001 -0.9979 -0.0001 -1.4977 1.4974 0 0.9979 0c0.0181,-0.0003 0.036,-0.0003 0.0538,0l4.2293 0 0 3.1089c0,0.9661 1.9005,2.4104 1.9005,2.4104 0,0 1.8981,-1.2019 1.8981,-2.3698l0 -3.1495 3.1495 0c1.1679,0.0002 2.3698,-1.8981 2.3698,-1.8981 0,0 -1.4443,-1.9007 -2.4104,-1.9005l-3.1089 0 -3.2314 0 -0.475 0 -4.3212 0c-0.0179,0.0003 -0.0359,0.0003 -0.0541,0l-0.9979 0 -1.4987 0 -0.0012 0 0 3.7964 0.0012 -3.7964 0 -1.4999 0 -0.9979c-0.0003,-0.0181 -0.0003,-0.036 0,-0.0538l0 -4.2293 3.1089 0c0.9661,0 2.4104,-1.9005 2.4104,-1.9005 0,0 -1.2019,-1.8981 -2.3698,-1.8981l-3.1495 0 0 -3.1495c0.0002,-1.1679 -1.8981,-2.3698 -1.8981,-2.3698 0,0 -1.9007,1.4443 -1.9005,2.4104l0 3.1089 0 3.2314 0 0.475 0 4.3212c0.0003,0.0179 0.0003,0.0359 0,0.0541l0 0.9979 0 1.4987 -1.4987 0 -0.9979 0c-0.0182,0.0003 -0.0362,0.0003 -0.0541,0l-4.3212 0 -0.475 0 -3.2314 0 -3.1089 0c-0.9661,-0.0002 -2.4104,1.9005 -2.4104,1.9005 0,0 1.2019,1.8983 2.3698,1.8981l3.1495 0 0 3.1495c0,1.1679 1.8981,2.3698 1.8981,2.3698 0,0 1.9005,-1.4443 1.9005,-2.4104l0 -3.1089 4.2293 0c0.0178,-0.0003 0.0357,-0.0003 0.0538,0l0.9979 0 1.4987 0 0 0.0012 0.0012 0 0.0002 1.4977 -0.0001 0.9979c0.0003,0.0182 0.0003,0.0363 0,0.0542l0 4.321zm-10.5796 -10.6706l3.7984 -0.0001 0.0001 -3.1087c-0.0001,-0.9662 -1.9005,-2.4104 -1.9005,-2.4104 0,0 -1.8982,1.2021 -1.8982,2.3698l0.0002 3.1494zm24.9552 0.0012l-3.7984 -0.0001 -0.0001 -3.1087c0.0001,-0.9662 1.9005,-2.4104 1.9005,-2.4104 0,0 1.8982,1.2021 1.8982,2.3698l-0.0002 3.1494zm-14.3769 -10.5795l-0.0001 3.7984 -3.1087 0.0001c-0.9662,-0.0001 -2.4104,-1.9005 -2.4104,-1.9005 0,0 1.2021,-1.8982 2.3698,-1.8982l3.1494 0.0002zm0.0012 24.9554l0 -3.7984 -3.1087 -0.0001c-0.9663,0.0001 -2.4105,1.9004 -2.4105,1.9004 0,0 1.2022,1.8983 2.37,1.8984l3.1492 -0.0003z"/>
  <path class="fil1 str0" d="M17.5282 51.7063l0 0.4751 -0.0001 3.2314 0.0001 3.1091c-0.0002,0.9659 1.9005,2.4101 1.9005,2.4101 0,0 1.8983,-1.2018 1.8981,-2.3697l-0.0001 -3.1495 3.1496 -0.0001c1.1679,0.0002 2.3698,-1.898 2.3698,-1.898 0,0 -1.4442,-1.9004 -2.4105,-1.9005l-3.1089 0 0.0002 -4.2293c-0.0003,-0.0179 -0.0004,-0.0357 -0.0001,-0.0538l0.0001 -0.9979 -0.0001 -1.4977 1.4974 0 0.9979 0c0.0181,-0.0003 0.036,-0.0003 0.0538,0l4.2293 0 0 3.1089c0,0.9661 1.9005,2.4104 1.9005,2.4104 0,0 1.8981,-1.2019 1.8981,-2.3698l0 -3.1495 3.1495 0c1.1679,0.0002 2.3698,-1.8981 2.3698,-1.8981 0,0 -1.4443,-1.9007 -2.4104,-1.9005l-3.1089 0 -3.2314 0 -0.475 0 -4.3212 0c-0.0179,0.0003 -0.0359,0.0003 -0.0541,0l-0.9979 0 -1.4987 0 -0.0012 0 0 3.7964 0.0012 -3.7964 0 -1.4999 0 -0.9979c-0.0003,-0.0181 -0.0003,-0.036 0,-0.0538l0 -4.2293 3.1089 0c0.9661,0 2.4104,-1.9005 2.4104,-1.9005 0,0 -1.2019,-1.8981 -2.3698,-1.8981l-3.1495 0 0 -3.1495c0.0002,-1.1679 -1.8981,-2.3698 -1.8981,-2.3698 0,0 -1.9007,1.4443 -1.9005,2.4104l0 3.1089 0 3.2314 0 0.475 0 4.3212c0.0003,0.0179 0.0003,0.0359 0,0.0541l0 0.9979 0 1.4987 -1.4987 0 -0.9979 0c-0.0182,0.0003 -0.0362,0.0003 -0.0541,0l-4.3212 0 -0.475 0 -3.2314 0 -3.1089 0c-0.9661,-0.0002 -2.4104,1.9005 -2.4104,1.9005 0,0 1.2019,1.8983 2.3698,1.8981l3.1495 0 0 3.1495c0,1.1679 1.8981,2.3698 1.8981,2.3698 0,0 1.9005,-1.4443 1.9005,-2.4104l0 -3.1089 4.2293 0c0.0178,-0.0003 0.0357,-0.0003 0.0538,0l0.9979 0 1.4987 0 0 0.0012 0.0012 0 0.0002 1.4977 -0.0001 0.9979c0.0003,0.0182 0.0003,0.0363 0,0.0542l0 4.321zm-10.5796 -10.6706l3.7984 -0.0001 0.0001 -3.1087c-0.0001,-0.9662 -1.9005,-2.4104 -1.9005,-2.4104 0,0 -1.8982,1.2021 -1.8982,2.3698l0.0002 3.1494zm24.9552 0.0012l-3.7984 -0.0001 -0.0001 -3.1087c0.0001,-0.9662 1.9005,-2.4104 1.9005,-2.4104 0,0 1.8982,1.2021 1.8982,2.3698l-0.0002 3.1494zm-14.3769 -10.5795l-0.0001 3.7984 -3.1087 0.0001c-0.9662,-0.0001 -2.4104,-1.9005 -2.4104,-1.9005 0,0 1.2021,-1.8982 2.3698,-1.8982l3.1494 0.0002zm0.0012 24.9554l0 -3.7984 -3.1087 -0.0001c-0.9663,0.0001 -2.4105,1.9004 -2.4105,1.9004 0,0 1.2022,1.8983 2.37,1.8984l3.1492 -0.0003z"/>
  <path class="fil1 str0" d="M93.4357 51.7142l0 0.4751 -0.0001 3.2314 0.0001 3.1091c-0.0002,0.9659 1.9005,2.4101 1.9005,2.4101 0,0 1.8983,-1.2018 1.8981,-2.3697l-0.0001 -3.1495 3.1496 -0.0001c1.1679,0.0002 2.3698,-1.898 2.3698,-1.898 0,0 -1.4442,-1.9004 -2.4105,-1.9005l-3.1089 0 0.0002 -4.2293c-0.0003,-0.0179 -0.0004,-0.0357 -0.0001,-0.0538l0.0001 -0.9979 -0.0001 -1.4977 1.4974 0 0.9979 0c0.0181,-0.0003 0.036,-0.0003 0.0538,0l4.2293 0 0 3.1089c0,0.9661 1.9005,2.4104 1.9005,2.4104 0,0 1.8981,-1.2019 1.8981,-2.3698l0 -3.1495 3.1495 0c1.1679,0.0002 2.3698,-1.8981 2.3698,-1.8981 0,0 -1.4443,-1.9007 -2.4104,-1.9005l-3.1089 0 -3.2314 0 -0.475 0 -4.3212 0c-0.0179,0.0003 -0.0359,0.0003 -0.0541,0l-0.9979 0 -1.4987 0 -0.0012 0 0 3.7964 0.0012 -3.7964 0 -1.4999 0 -0.9979c-0.0003,-0.0181 -0.0003,-0.036 0,-0.0538l0 -4.2293 3.1089 0c0.9661,0 2.4104,-1.9005 2.4104,-1.9005 0,0 -1.2019,-1.8981 -2.3698,-1.8981l-3.1495 0 0 -3.1495c0.0002,-1.1679 -1.8981,-2.3698 -1.8981,-2.3698 0,0 -1.9007,1.4443 -1.9005,2.4104l0 3.1089 0 3.2314 0 0.475 0 4.3212c0.0003,0.0179 0.0003,0.0359 0,0.0541l0 0.9979 0 1.4987 -1.4987 0 -0.9979 0c-0.0182,0.0003 -0.0362,0.0003 -0.0541,0l-4.3212 0 -0.475 0 -3.2314 0 -3.1089 0c-0.9661,-0.0002 -2.4104,1.9005 -2.4104,1.9005 0,0 1.2019,1.8983 2.3698,1.8981l3.1495 0 0 3.1495c0,1.1679 1.8981,2.3698 1.8981,2.3698 0,0 1.9005,-1.4443 1.9005,-2.4104l0 -3.1089 4.2293 0c0.0178,-0.0003 0.0357,-0.0003 0.0538,0l0.9979 0 1.4987 0 0 0.0012 0.0012 0 0.0002 1.4977 -0.0001 0.9979c0.0003,0.0182 0.0003,0.0363 0,0.0542l0 4.321zm-10.5796 -10.6706l3.7984 -0.0001 0.0001 -3.1087c-0.0001,-0.9662 -1.9005,-2.4104 -1.9005,-2.4104 0,0 -1.8982,1.2021 -1.8982,2.3698l0.0002 3.1494zm24.9552 0.0012l-3.7984 -0.0001 -0.0001 -3.1087c0.0001,-0.9662 1.9005,-2.4104 1.9005,-2.4104 0,0 1.8982,1.2021 1.8982,2.3698l-0.0002 3.1494zm-14.3769 -10.5795l-0.0001 3.7984 -3.1087 0.0001c-0.9662,-0.0001 -2.4104,-1.9005 -2.4104,-1.9005 0,0 1.2021,-1.8982 2.3698,-1.8982l3.1494 0.0002zm0.0012 24.9554l0 -3.7984 -3.1087 -0.0001c-0.9663,0.0001 -2.4105,1.9004 -2.4105,1.9004 0,0 1.2022,1.8983 2.37,1.8984l3.1492 -0.0003z"/>
  <path class="fil1 str0" d="M169.339 51.6717l0 0.4751 -0.0001 3.2314 0.0001 3.1091c-0.0002,0.9659 1.9005,2.4101 1.9005,2.4101 0,0 1.8983,-1.2018 1.8981,-2.3697l-0.0001 -3.1495 3.1496 -0.0001c1.1679,0.0002 2.3698,-1.898 2.3698,-1.898 0,0 -1.4442,-1.9004 -2.4105,-1.9005l-3.1089 0 0.0002 -4.2293c-0.0003,-0.0179 -0.0004,-0.0357 -0.0001,-0.0538l0.0001 -0.9979 -0.0001 -1.4977 1.4974 0 0.9979 0c0.0181,-0.0003 0.036,-0.0003 0.0538,0l4.2293 0 0 3.1089c0,0.9661 1.9005,2.4104 1.9005,2.4104 0,0 1.8981,-1.2019 1.8981,-2.3698l0 -3.1495 3.1495 0c1.1679,0.0002 2.3698,-1.8981 2.3698,-1.8981 0,0 -1.4443,-1.9007 -2.4104,-1.9005l-3.1089 0 -3.2314 0 -0.475 0 -4.3212 0c-0.0179,0.0003 -0.0359,0.0003 -0.0541,0l-0.9979 0 -1.4987 0 -0.0012 0 0 3.7964 0.0012 -3.7964 0 -1.4999 0 -0.9979c-0.0003,-0.0181 -0.0003,-0.036 0,-0.0538l0 -4.2293 3.1089 0c0.9661,0 2.4104,-1.9005 2.4104,-1.9005 0,0 -1.2019,-1.8981 -2.3698,-1.8981l-3.1495 0 0 -3.1495c0.0002,-1.1679 -1.8981,-2.3698 -1.8981,-2.3698 0,0 -1.9007,1.4443 -1.9005,2.4104l0 3.1089 0 3.2314 0 0.475 0 4.3212c0.0003,0.0179 0.0003,0.0359 0,0.0541l0 0.9979 0 1.4987 -1.4987 0 -0.9979 0c-0.0182,0.0003 -0.0362,0.0003 -0.0541,0l-4.3212 0 -0.475 0 -3.2314 0 -3.1089 0c-0.9661,-0.0002 -2.4104,1.9005 -2.4104,1.9005 0,0 1.2019,1.8983 2.3698,1.8981l3.1495 0 0 3.1495c0,1.1679 1.8981,2.3698 1.8981,2.3698 0,0 1.9005,-1.4443 1.9005,-2.4104l0 -3.1089 4.2293 0c0.0178,-0.0003 0.0357,-0.0003 0.0538,0l0.9979 0 1.4987 0 0 0.0012 0.0012 0 0.0002 1.4977 -0.0001 0.9979c0.0003,0.0182 0.0003,0.0363 0,0.0542l0 4.321zm-10.5796 -10.6706l3.7984 -0.0001 0.0001 -3.1087c-0.0001,-0.9662 -1.9005,-2.4104 -1.9005,-2.4104 0,0 -1.8982,1.2021 -1.8982,2.3698l0.0002 3.1494zm24.9552 0.0012l-3.7984 -0.0001 -0.0001 -3.1087c0.0001,-0.9662 1.9005,-2.4104 1.9005,-2.4104 0,0 1.8982,1.2021 1.8982,2.3698l-0.0002 3.1494zm-14.3769 -10.5795l-0.0001 3.7984 -3.1087 0.0001c-0.9662,-0.0001 -2.4104,-1.9005 -2.4104,-1.9005 0,0 1.2021,-1.8982 2.3698,-1.8982l3.1494 0.0002zm0.0012 24.9554l0 -3.7984 -3.1087 -0.0001c-0.9663,0.0001 -2.4105,1.9004 -2.4105,1.9004 0,0 1.2022,1.8983 2.37,1.8984l3.1492 -0.0003z"/>
  <path class="fil1 str0" d="M245.222 51.7331l0 0.4751 -0.0001 3.2314 0.0001 3.1091c-0.0002,0.9659 1.9005,2.4101 1.9005,2.4101 0,0 1.8983,-1.2018 1.8981,-2.3697l-0.0001 -3.1495 3.1496 -0.0001c1.1679,0.0002 2.3698,-1.898 2.3698,-1.898 0,0 -1.4442,-1.9004 -2.4105,-1.9005l-3.1089 0 0.0002 -4.2293c-0.0003,-0.0179 -0.0004,-0.0357 -0.0001,-0.0538l0.0001 -0.9979 -0.0001 -1.4977 1.4974 0 0.9979 0c0.0181,-0.0003 0.036,-0.0003 0.0538,0l4.2293 0 0 3.1089c0,0.9661 1.9005,2.4104 1.9005,2.4104 0,0 1.8981,-1.2019 1.8981,-2.3698l0 -3.1495 3.1495 0c1.1679,0.0002 2.3698,-1.8981 2.3698,-1.8981 0,0 -1.4443,-1.9007 -2.4104,-1.9005l-3.1089 0 -3.2314 0 -0.475 0 -4.3212 0c-0.0179,0.0003 -0.0359,0.0003 -0.0541,0l-0.9979 0 -1.4987 0 -0.0012 0 0 3.7964 0.0012 -3.7964 0 -1.4999 0 -0.9979c-0.0003,-0.0181 -0.0003,-0.036 0,-0.0538l0 -4.2293 3.1089 0c0.9661,0 2.4104,-1.9005 2.4104,-1.9005 0,0 -1.2019,-1.8981 -2.3698,-1.8981l-3.1495 0 0 -3.1495c0.0002,-1.1679 -1.8981,-2.3698 -1.8981,-2.3698 0,0 -1.9007,1.4443 -1.9005,2.4104l0 3.1089 0 3.2314 0 0.475 0 4.3212c0.0003,0.0179 0.0003,0.0359 0,0.0541l0 0.9979 0 1.4987 -1.4987 0 -0.9979 0c-0.0182,0.0003 -0.0362,0.0003 -0.0541,0l-4.3212 0 -0.475 0 -3.2314 0 -3.1089 0c-0.9661,-0.0002 -2.4104,1.9005 -2.4104,1.9005 0,0 1.2019,1.8983 2.3698,1.8981l3.1495 0 0 3.1495c0,1.1679 1.8981,2.3698 1.8981,2.3698 0,0 1.9005,-1.4443 1.9005,-2.4104l0 -3.1089 4.2293 0c0.0178,-0.0003 0.0357,-0.0003 0.0538,0l0.9979 0 1.4987 0 0 0.0012 0.0012 0 0.0002 1.4977 -0.0001 0.9979c0.0003,0.0182 0.0003,0.0363 0,0.0542l0 4.321zm-10.5796 -10.6706l3.7984 -0.0001 0.0001 -3.1087c-0.0001,-0.9662 -1.9005,-2.4104 -1.9005,-2.4104 0,0 -1.8982,1.2021 -1.8982,2.3698l0.0002 3.1494zm24.9552 0.0012l-3.7984 -0.0001 -0.0001 -3.1087c0.0001,-0.9662 1.9005,-2.4104 1.9005,-2.4104 0,0 1.8982,1.2021 1.8982,2.3698l-0.0002 3.1494zm-14.3769 -10.5795l-0.0001 3.7984 -3.1087 0.0001c-0.9662,-0.0001 -2.4104,-1.9005 -2.4104,-1.9005 0,0 1.2021,-1.8982 2.3698,-1.8982l3.1494 0.0002zm0.0012 24.9554l0 -3.7984 -3.1087 -0.0001c-0.9663,0.0001 -2.4105,1.9004 -2.4105,1.9004 0,0 1.2022,1.8983 2.37,1.8984l3.1492 -0.0003z"/>
  <path class="fil1 str0" d="M17.5087 164.785l0 0.4751 -0.0001 3.2314 0.0001 3.1091c-0.0002,0.9659 1.9005,2.4101 1.9005,2.4101 0,0 1.8983,-1.2018 1.8981,-2.3697l-0.0001 -3.1495 3.1496 -0.0001c1.1679,0.0002 2.3698,-1.898 2.3698,-1.898 0,0 -1.4442,-1.9004 -2.4105,-1.9005l-3.1089 0 0.0002 -4.2293c-0.0003,-0.0179 -0.0004,-0.0357 -0.0001,-0.0538l0.0001 -0.9979 -0.0001 -1.4977 1.4974 0 0.9979 0c0.0181,-0.0003 0.036,-0.0003 0.0538,0l4.2293 0 0 3.1089c0,0.9661 1.9005,2.4104 1.9005,2.4104 0,0 1.8981,-1.2019 1.8981,-2.3698l0 -3.1495 3.1495 0c1.1679,0.0002 2.3698,-1.8981 2.3698,-1.8981 0,0 -1.4443,-1.9007 -2.4104,-1.9005l-3.1089 0 -3.2314 0 -0.475 0 -4.3212 0c-0.0179,0.0003 -0.0359,0.0003 -0.0541,0l-0.9979 0 -1.4987 0 -0.0012 0 0 3.7964 0.0012 -3.7964 0 -1.4999 0 -0.9979c-0.0003,-0.0181 -0.0003,-0.036 0,-0.0538l0 -4.2293 3.1089 0c0.9661,0 2.4104,-1.9005 2.4104,-1.9005 0,0 -1.2019,-1.8981 -2.3698,-1.8981l-3.1495 0 0 -3.1495c0.0002,-1.1679 -1.8981,-2.3698 -1.8981,-2.3698 0,0 -1.9007,1.4443 -1.9005,2.4104l0 3.1089 0 3.2314 0 0.475 0 4.3212c0.0003,0.0179 0.0003,0.0359 0,0.0541l0 0.9979 0 1.4987 -1.4987 0 -0.9979 0c-0.0182,0.0003 -0.0362,0.0003 -0.0541,0l-4.3212 0 -0.475 0 -3.2314 0 -3.1089 0c-0.9661,-0.0002 -2.4104,1.9005 -2.4104,1.9005 0,0 1.2019,1.8983 2.3698,1.8981l3.1495 0 0 3.1495c0,1.1679 1.8981,2.3698 1.8981,2.3698 0,0 1.9005,-1.4443 1.9005,-2.4104l0 -3.1089 4.2293 0c0.0178,-0.0003 0.0357,-0.0003 0.0538,0l0.9979 0 1.4987 0 0 0.0012 0.0012 0 0.0002 1.4977 -0.0001 0.9979c0.0003,0.0182 0.0003,0.0363 0,0.0542l0 4.321zm-10.5796 -10.6706l3.7984 -0.0001 0.0001 -3.1087c-0.0001,-0.9662 -1.9005,-2.4104 -1.9005,-2.4104 0,0 -1.8982,1.2021 -1.8982,2.3698l0.0002 3.1494zm24.9552 0.0012l-3.7984 -0.0001 -0.0001 -3.1087c0.0001,-0.9662 1.9005,-2.4104 1.9005,-2.4104 0,0 1.8982,1.2021 1.8982,2.3698l-0.0002 3.1494zm-14.3769 -10.5795l-0.0001 3.7984 -3.1087 0.0001c-0.9662,-0.0001 -2.4104,-1.9005 -2.4104,-1.9005 0,0 1.2021,-1.8982 2.3698,-1.8982l3.1494 0.0002zm0.0012 24.9554l0 -3.7984 -3.1087 -0.0001c-0.9663,0.0001 -2.4105,1.9004 -2.4105,1.9004 0,0 1.2022,1.8983 2.37,1.8984l3.1492 -0.0003z"/>
  <path class="fil1 str0" d="M321.085 51.7687l0 0.4751 -0.0001 3.2314 0.0001 3.1091c-0.0002,0.9659 1.9005,2.4101 1.9005,2.4101 0,0 1.8983,-1.2018 1.8981,-2.3697l-0.0001 -3.1495 3.1496 -0.0001c1.1679,0.0002 2.3698,-1.898 2.3698,-1.898 0,0 -1.4442,-1.9004 -2.4105,-1.9005l-3.1089 0 0.0002 -4.2293c-0.0003,-0.0179 -0.0004,-0.0357 -0.0001,-0.0538l0.0001 -0.9979 -0.0001 -1.4977 1.4974 0 0.9979 0c0.0181,-0.0003 0.036,-0.0003 0.0538,0l4.2293 0 0 3.1089c0,0.9661 1.9005,2.4104 1.9005,2.4104 0,0 1.8981,-1.2019 1.8981,-2.3698l0 -3.1495 3.1495 0c1.1679,0.0002 2.3698,-1.8981 2.3698,-1.8981 0,0 -1.4443,-1.9007 -2.4104,-1.9005l-3.1089 0 -3.2314 0 -0.475 0 -4.3212 0c-0.0179,0.0003 -0.0359,0.0003 -0.0541,0l-0.9979 0 -1.4987 0 -0.0012 0 0 3.7964 0.0012 -3.7964 0 -1.4999 0 -0.9979c-0.0003,-0.0181 -0.0003,-0.036 0,-0.0538l0 -4.2293 3.1089 0c0.9661,0 2.4104,-1.9005 2.4104,-1.9005 0,0 -1.2019,-1.8981 -2.3698,-1.8981l-3.1495 0 0 -3.1495c0.0002,-1.1679 -1.8981,-2.3698 -1.8981,-2.3698 0,0 -1.9007,1.4443 -1.9005,2.4104l0 3.1089 0 3.2314 0 0.475 0 4.3212c0.0003,0.0179 0.0003,0.0359 0,0.0541l0 0.9979 0 1.4987 -1.4987 0 -0.9979 0c-0.0182,0.0003 -0.0362,0.0003 -0.0541,0l-4.3212 0 -0.475 0 -3.2314 0 -3.1089 0c-0.9661,-0.0002 -2.4104,1.9005 -2.4104,1.9005 0,0 1.2019,1.8983 2.3698,1.8981l3.1495 0 0 3.1495c0,1.1679 1.8981,2.3698 1.8981,2.3698 0,0 1.9005,-1.4443 1.9005,-2.4104l0 -3.1089 4.2293 0c0.0178,-0.0003 0.0357,-0.0003 0.0538,0l0.9979 0 1.4987 0 0 0.0012 0.0012 0 0.0002 1.4977 -0.0001 0.9979c0.0003,0.0182 0.0003,0.0363 0,0.0542l0 4.321zm-10.5796 -10.6706l3.7984 -0.0001 0.0001 -3.1087c-0.0001,-0.9662 -1.9005,-2.4104 -1.9005,-2.4104 0,0 -1.8982,1.2021 -1.8982,2.3698l0.0002 3.1494zm24.9552 0.0012l-3.7984 -0.0001 -0.0001 -3.1087c0.0001,-0.9662 1.9005,-2.4104 1.9005,-2.4104 0,0 1.8982,1.2021 1.8982,2.3698l-0.0002 3.1494zm-14.3769 -10.5795l-0.0001 3.7984 -3.1087 0.0001c-0.9662,-0.0001 -2.4104,-1.9005 -2.4104,-1.9005 0,0 1.2021,-1.8982 2.3698,-1.8982l3.1494 0.0002zm0.0012 24.9554l0 -3.7984 -3.1087 -0.0001c-0.9663,0.0001 -2.4105,1.9004 -2.4105,1.9004 0,0 1.2022,1.8983 2.37,1.8984l3.1492 -0.0003z"/>
  <path class="fil1 str0" d="M283.156 109.068l0 0.4751 -0.0001 3.2314 0.0001 3.1091c-0.0002,0.9659 1.9005,2.4101 1.9005,2.4101 0,0 1.8983,-1.2018 1.8981,-2.3697l-0.0001 -3.1495 3.1496 -0.0001c1.1679,0.0002 2.3698,-1.898 2.3698,-1.898 0,0 -1.4442,-1.9004 -2.4105,-1.9005l-3.1089 0 0.0002 -4.2293c-0.0003,-0.0179 -0.0004,-0.0357 -0.0001,-0.0538l0.0001 -0.9979 -0.0001 -1.4977 1.4974 0 0.9979 0c0.0181,-0.0003 0.036,-0.0003 0.0538,0l4.2293 0 0 3.1089c0,0.9661 1.9005,2.4104 1.9005,2.4104 0,0 1.8981,-1.2019 1.8981,-2.3698l0 -3.1495 3.1495 0c1.1679,0.0002 2.3698,-1.8981 2.3698,-1.8981 0,0 -1.4443,-1.9007 -2.4104,-1.9005l-3.1089 0 -3.2314 0 -0.475 0 -4.3212 0c-0.0179,0.0003 -0.0359,0.0003 -0.0541,0l-0.9979 0 -1.4987 0 -0.0012 0 0 3.7964 0.0012 -3.7964 0 -1.4999 0 -0.9979c-0.0003,-0.0181 -0.0003,-0.036 0,-0.0538l0 -4.2293 3.1089 0c0.9661,0 2.4104,-1.9005 2.4104,-1.9005 0,0 -1.2019,-1.8981 -2.3698,-1.8981l-3.1495 0 0 -3.1495c0.0002,-1.1679 -1.8981,-2.3698 -1.8981,-2.3698 0,0 -1.9007,1.4443 -1.9005,2.4104l0 3.1089 0 3.2314 0 0.475 0 4.3212c0.0003,0.0179 0.0003,0.0359 0,0.0541l0 0.9979 0 1.4987 -1.4987 0 -0.9979 0c-0.0182,0.0003 -0.0362,0.0003 -0.0541,0l-4.3212 0 -0.475 0 -3.2314 0 -3.1089 0c-0.9661,-0.0002 -2.4104,1.9005 -2.4104,1.9005 0,0 1.2019,1.8983 2.3698,1.8981l3.1495 0 0 3.1495c0,1.1679 1.8981,2.3698 1.8981,2.3698 0,0 1.9005,-1.4443 1.9005,-2.4104l0 -3.1089 4.2293 0c0.0178,-0.0003 0.0357,-0.0003 0.0538,0l0.9979 0 1.4987 0 0 0.0012 0.0012 0 0.0002 1.4977 -0.0001 0.9979c0.0003,0.0182 0.0003,0.0363 0,0.0542l0 4.321zm-10.5796 -10.6706l3.7984 -0.0001 0.0001 -3.1087c-0.0001,-0.9662 -1.9005,-2.4104 -1.9005,-2.4104 0,0 -1.8982,1.2021 -1.8982,2.3698l0.0002 3.1494zm24.9552 0.0012l-3.7984 -0.0001 -0.0001 -3.1087c0.0001,-0.9662 1.9005,-2.4104 1.9005,-2.4104 0,0 1.8982,1.2021 1.8982,2.3698l-0.0002 3.1494zm-14.3769 -10.5795l-0.0001 3.7984 -3.1087 0.0001c-0.9662,-0.0001 -2.4104,-1.9005 -2.4104,-1.9005 0,0 1.2021,-1.8982 2.3698,-1.8982l3.1494 0.0002zm0.0012 24.9554l0 -3.7984 -3.1087 -0.0001c-0.9663,0.0001 -2.4105,1.9004 -2.4105,1.9004 0,0 1.2022,1.8983 2.37,1.8984l3.1492 -0.0003z"/>
  <path class="fil1 str0" d="M358.92 109.068l0 0.4751 -0.0001 3.2314 0.0001 3.1091c-0.0002,0.9659 1.9005,2.4101 1.9005,2.4101 0,0 1.8983,-1.2018 1.8981,-2.3697l-0.0001 -3.1495 3.1496 -0.0001c1.1679,0.0002 2.3698,-1.898 2.3698,-1.898 0,0 -1.4442,-1.9004 -2.4105,-1.9005l-3.1089 0 0.0002 -4.2293c-0.0003,-0.0179 -0.0004,-0.0357 -0.0001,-0.0538l0.0001 -0.9979 -0.0001 -1.4977 1.4974 0 0.9979 0c0.0181,-0.0003 0.036,-0.0003 0.0538,0l4.2293 0 0 3.1089c0,0.9661 1.9005,2.4104 1.9005,2.4104 0,0 1.8981,-1.2019 1.8981,-2.3698l0 -3.1495 3.1495 0c1.1679,0.0002 2.3698,-1.8981 2.3698,-1.8981 0,0 -1.4443,-1.9007 -2.4104,-1.9005l-3.1089 0 -3.2314 0 -0.475 0 -4.3212 0c-0.0179,0.0003 -0.0359,0.0003 -0.0541,0l-0.9979 0 -1.4987 0 -0.0012 0 0 3.7964 0.0012 -3.7964 0 -1.4999 0 -0.9979c-0.0003,-0.0181 -0.0003,-0.036 0,-0.0538l0 -4.2293 3.1089 0c0.9661,0 2.4104,-1.9005 2.4104,-1.9005 0,0 -1.2019,-1.8981 -2.3698,-1.8981l-3.1495 0 0 -3.1495c0.0002,-1.1679 -1.8981,-2.3698 -1.8981,-2.3698 0,0 -1.9007,1.4443 -1.9005,2.4104l0 3.1089 0 3.2314 0 0.475 0 4.3212c0.0003,0.0179 0.0003,0.0359 0,0.0541l0 0.9979 0 1.4987 -1.4987 0 -0.9979 0c-0.0182,0.0003 -0.0362,0.0003 -0.0541,0l-4.3212 0 -0.475 0 -3.2314 0 -3.1089 0c-0.9661,-0.0002 -2.4104,1.9005 -2.4104,1.9005 0,0 1.2019,1.8983 2.3698,1.8981l3.1495 0 0 3.1495c0,1.1679 1.8981,2.3698 1.8981,2.3698 0,0 1.9005,-1.4443 1.9005,-2.4104l0 -3.1089 4.2293 0c0.0178,-0.0003 0.0357,-0.0003 0.0538,0l0.9979 0 1.4987 0 0 0.0012 0.0012 0 0.0002 1.4977 -0.0001 0.9979c0.0003,0.0182 0.0003,0.0363 0,0.0542l0 4.321zm-10.5796 -10.6706l3.7984 -0.0001 0.0001 -3.1087c-0.0001,-0.9662 -1.9005,-2.4104 -1.9005,-2.4104 0,0 -1.8982,1.2021 -1.8982,2.3698l0.0002 3.1494zm24.9552 0.0012l-3.7984 -0.0001 -0.0001 -3.1087c0.0001,-0.9662 1.9005,-2.4104 1.9005,-2.4104 0,0 1.8982,1.2021 1.8982,2.3698l-0.0002 3.1494zm-14.3769 -10.5795l-0.0001 3.7984 -3.1087 0.0001c-0.9662,-0.0001 -2.4104,-1.9005 -2.4104,-1.9005 0,0 1.2021,-1.8982 2.3698,-1.8982l3.1494 0.0002zm0.0012 24.9554l0 -3.7984 -3.1087 -0.0001c-0.9663,0.0001 -2.4105,1.9004 -2.4105,1.9004 0,0 1.2022,1.8983 2.37,1.8984l3.1492 -0.0003z"/>
  <path class="fil1 str0" d="M396.927 51.7046l0 0.4751 -0.0001 3.2314 0.0001 3.1091c-0.0002,0.9659 1.9005,2.4101 1.9005,2.4101 0,0 1.8983,-1.2018 1.8981,-2.3697l-0.0001 -3.1495 3.1496 -0.0001c1.1679,0.0002 2.3698,-1.898 2.3698,-1.898 0,0 -1.4442,-1.9004 -2.4105,-1.9005l-3.1089 0 0.0002 -4.2293c-0.0003,-0.0179 -0.0004,-0.0357 -0.0001,-0.0538l0.0001 -0.9979 -0.0001 -1.4977 1.4974 0 0.9979 0c0.0181,-0.0003 0.036,-0.0003 0.0538,0l4.2293 0 0 3.1089c0,0.9661 1.9005,2.4104 1.9005,2.4104 0,0 1.8981,-1.2019 1.8981,-2.3698l0 -3.1495 3.1495 0c1.1679,0.0002 2.3698,-1.8981 2.3698,-1.8981 0,0 -1.4443,-1.9007 -2.4104,-1.9005l-3.1089 0 -3.2314 0 -0.475 0 -4.3212 0c-0.0179,0.0003 -0.0359,0.0003 -0.0541,0l-0.9979 0 -1.4987 0 -0.0012 0 0 3.7964 0.0012 -3.7964 0 -1.4999 0 -0.9979c-0.0003,-0.0181 -0.0003,-0.036 0,-0.0538l0 -4.2293 3.1089 0c0.9661,0 2.4104,-1.9005 2.4104,-1.9005 0,0 -1.2019,-1.8981 -2.3698,-1.8981l-3.1495 0 0 -3.1495c0.0002,-1.1679 -1.8981,-2.3698 -1.8981,-2.3698 0,0 -1.9007,1.4443 -1.9005,2.4104l0 3.1089 0 3.2314 0 0.475 0 4.3212c0.0003,0.0179 0.0003,0.0359 0,0.0541l0 0.9979 0 1.4987 -1.4987 0 -0.9979 0c-0.0182,0.0003 -0.0362,0.0003 -0.0541,0l-4.3212 0 -0.475 0 -3.2314 0 -3.1089 0c-0.9661,-0.0002 -2.4104,1.9005 -2.4104,1.9005 0,0 1.2019,1.8983 2.3698,1.8981l3.1495 0 0 3.1495c0,1.1679 1.8981,2.3698 1.8981,2.3698 0,0 1.9005,-1.4443 1.9005,-2.4104l0 -3.1089 4.2293 0c0.0178,-0.0003 0.0357,-0.0003 0.0538,0l0.9979 0 1.4987 0 0 0.0012 0.0012 0 0.0002 1.4977 -0.0001 0.9979c0.0003,0.0182 0.0003,0.0363 0,0.0542l0 4.321zm-10.5796 -10.6706l3.7984 -0.0001 0.0001 -3.1087c-0.0001,-0.9662 -1.9005,-2.4104 -1.9005,-2.4104 0,0 -1.8982,1.2021 -1.8982,2.3698l0.0002 3.1494zm24.9552 0.0012l-3.7984 -0.0001 -0.0001 -3.1087c0.0001,-0.9662 1.9005,-2.4104 1.9005,-2.4104 0,0 1.8982,1.2021 1.8982,2.3698l-0.0002 3.1494zm-14.3769 -10.5795l-0.0001 3.7984 -3.1087 0.0001c-0.9662,-0.0001 -2.4104,-1.9005 -2.4104,-1.9005 0,0 1.2021,-1.8982 2.3698,-1.8982l3.1494 0.0002zm0.0012 24.9554l0 -3.7984 -3.1087 -0.0001c-0.9663,0.0001 -2.4105,1.9004 -2.4105,1.9004 0,0 1.2022,1.8983 2.37,1.8984l3.1492 -0.0003z"/>
  <path class="fil1 str0" d="M321.055 164.737l0 0.4751 -0.0001 3.2314 0.0001 3.1091c-0.0002,0.9659 1.9005,2.4101 1.9005,2.4101 0,0 1.8983,-1.2018 1.8981,-2.3697l-0.0001 -3.1495 3.1496 -0.0001c1.1679,0.0002 2.3698,-1.898 2.3698,-1.898 0,0 -1.4442,-1.9004 -2.4105,-1.9005l-3.1089 0 0.0002 -4.2293c-0.0003,-0.0179 -0.0004,-0.0357 -0.0001,-0.0538l0.0001 -0.9979 -0.0001 -1.4977 1.4974 0 0.9979 0c0.0181,-0.0003 0.036,-0.0003 0.0538,0l4.2293 0 0 3.1089c0,0.9661 1.9005,2.4104 1.9005,2.4104 0,0 1.8981,-1.2019 1.8981,-2.3698l0 -3.1495 3.1495 0c1.1679,0.0002 2.3698,-1.8981 2.3698,-1.8981 0,0 -1.4443,-1.9007 -2.4104,-1.9005l-3.1089 0 -3.2314 0 -0.475 0 -4.3212 0c-0.0179,0.0003 -0.0359,0.0003 -0.0541,0l-0.9979 0 -1.4987 0 -0.0012 0 0 3.7964 0.0012 -3.7964 0 -1.4999 0 -0.9979c-0.0003,-0.0181 -0.0003,-0.036 0,-0.0538l0 -4.2293 3.1089 0c0.9661,0 2.4104,-1.9005 2.4104,-1.9005 0,0 -1.2019,-1.8981 -2.3698,-1.8981l-3.1495 0 0 -3.1495c0.0002,-1.1679 -1.8981,-2.3698 -1.8981,-2.3698 0,0 -1.9007,1.4443 -1.9005,2.4104l0 3.1089 0 3.2314 0 0.475 0 4.3212c0.0003,0.0179 0.0003,0.0359 0,0.0541l0 0.9979 0 1.4987 -1.4987 0 -0.9979 0c-0.0182,0.0003 -0.0362,0.0003 -0.0541,0l-4.3212 0 -0.475 0 -3.2314 0 -3.1089 0c-0.9661,-0.0002 -2.4104,1.9005 -2.4104,1.9005 0,0 1.2019,1.8983 2.3698,1.8981l3.1495 0 0 3.1495c0,1.1679 1.8981,2.3698 1.8981,2.3698 0,0 1.9005,-1.4443 1.9005,-2.4104l0 -3.1089 4.2293 0c0.0178,-0.0003 0.0357,-0.0003 0.0538,0l0.9979 0 1.4987 0 0 0.0012 0.0012 0 0.0002 1.4977 -0.0001 0.9979c0.0003,0.0182 0.0003,0.0363 0,0.0542l0 4.321zm-10.5796 -10.6706l3.7984 -0.0001 0.0001 -3.1087c-0.0001,-0.9662 -1.9005,-2.4104 -1.9005,-2.4104 0,0 -1.8982,1.2021 -1.8982,2.3698l0.0002 3.1494zm24.9552 0.0012l-3.7984 -0.0001 -0.0001 -3.1087c0.0001,-0.9662 1.9005,-2.4104 1.9005,-2.4104 0,0 1.8982,1.2021 1.8982,2.3698l-0.0002 3.1494zm-14.3769 -10.5795l-0.0001 3.7984 -3.1087 0.0001c-0.9662,-0.0001 -2.4104,-1.9005 -2.4104,-1.9005 0,0 1.2021,-1.8982 2.3698,-1.8982l3.1494 0.0002zm0.0012 24.9554l0 -3.7984 -3.1087 -0.0001c-0.9663,0.0001 -2.4105,1.9004 -2.4105,1.9004 0,0 1.2022,1.8983 2.37,1.8984l3.1492 -0.0003z"/>
  <path class="fil1 str0" d="M396.984 164.836l0 0.4751 -0.0001 3.2314 0.0001 3.1091c-0.0002,0.9659 1.9005,2.4101 1.9005,2.4101 0,0 1.8983,-1.2018 1.8981,-2.3697l-0.0001 -3.1495 3.1496 -0.0001c1.1679,0.0002 2.3698,-1.898 2.3698,-1.898 0,0 -1.4442,-1.9004 -2.4105,-1.9005l-3.1089 0 0.0002 -4.2293c-0.0003,-0.0179 -0.0004,-0.0357 -0.0001,-0.0538l0.0001 -0.9979 -0.0001 -1.4977 1.4974 0 0.9979 0c0.0181,-0.0003 0.036,-0.0003 0.0538,0l4.2293 0 0 3.1089c0,0.9661 1.9005,2.4104 1.9005,2.4104 0,0 1.8981,-1.2019 1.8981,-2.3698l0 -3.1495 3.1495 0c1.1679,0.0002 2.3698,-1.8981 2.3698,-1.8981 0,0 -1.4443,-1.9007 -2.4104,-1.9005l-3.1089 0 -3.2314 0 -0.475 0 -4.3212 0c-0.0179,0.0003 -0.0359,0.0003 -0.0541,0l-0.9979 0 -1.4987 0 -0.0012 0 0 3.7964 0.0012 -3.7964 0 -1.4999 0 -0.9979c-0.0003,-0.0181 -0.0003,-0.036 0,-0.0538l0 -4.2293 3.1089 0c0.9661,0 2.4104,-1.9005 2.4104,-1.9005 0,0 -1.2019,-1.8981 -2.3698,-1.8981l-3.1495 0 0 -3.1495c0.0002,-1.1679 -1.8981,-2.3698 -1.8981,-2.3698 0,0 -1.9007,1.4443 -1.9005,2.4104l0 3.1089 0 3.2314 0 0.475 0 4.3212c0.0003,0.0179 0.0003,0.0359 0,0.0541l0 0.9979 0 1.4987 -1.4987 0 -0.9979 0c-0.0182,0.0003 -0.0362,0.0003 -0.0541,0l-4.3212 0 -0.475 0 -3.2314 0 -3.1089 0c-0.9661,-0.0002 -2.4104,1.9005 -2.4104,1.9005 0,0 1.2019,1.8983 2.3698,1.8981l3.1495 0 0 3.1495c0,1.1679 1.8981,2.3698 1.8981,2.3698 0,0 1.9005,-1.4443 1.9005,-2.4104l0 -3.1089 4.2293 0c0.0178,-0.0003 0.0357,-0.0003 0.0538,0l0.9979 0 1.4987 0 0 0.0012 0.0012 0 0.0002 1.4977 -0.0001 0.9979c0.0003,0.0182 0.0003,0.0363 0,0.0542l0 4.321zm-10.5796 -10.6706l3.7984 -0.0001 0.0001 -3.1087c-0.0001,-0.9662 -1.9005,-2.4104 -1.9005,-2.4104 0,0 -1.8982,1.2021 -1.8982,2.3698l0.0002 3.1494zm24.9552 0.0012l-3.7984 -0.0001 -0.0001 -3.1087c0.0001,-0.9662 1.9005,-2.4104 1.9005,-2.4104 0,0 1.8982,1.2021 1.8982,2.3698l-0.0002 3.1494zm-14.3769 -10.5795l-0.0001 3.7984 -3.1087 0.0001c-0.9662,-0.0001 -2.4104,-1.9005 -2.4104,-1.9005 0,0 1.2021,-1.8982 2.3698,-1.8982l3.1494 0.0002zm0.0012 24.9554l0 -3.7984 -3.1087 -0.0001c-0.9663,0.0001 -2.4105,1.9004 -2.4105,1.9004 0,0 1.2022,1.8983 2.37,1.8984l3.1492 -0.0003z"/>
  <path class="fil1 str0" d="M283.199 223.767l0 0.4751 -0.0001 3.2314 0.0001 3.1091c-0.0002,0.9659 1.9005,2.4101 1.9005,2.4101 0,0 1.8983,-1.2018 1.8981,-2.3697l-0.0001 -3.1495 3.1496 -0.0001c1.1679,0.0002 2.3698,-1.898 2.3698,-1.898 0,0 -1.4442,-1.9004 -2.4105,-1.9005l-3.1089 0 0.0002 -4.2293c-0.0003,-0.0179 -0.0004,-0.0357 -0.0001,-0.0538l0.0001 -0.9979 -0.0001 -1.4977 1.4974 0 0.9979 0c0.0181,-0.0003 0.036,-0.0003 0.0538,0l4.2293 0 0 3.1089c0,0.9661 1.9005,2.4104 1.9005,2.4104 0,0 1.8981,-1.2019 1.8981,-2.3698l0 -3.1495 3.1495 0c1.1679,0.0002 2.3698,-1.8981 2.3698,-1.8981 0,0 -1.4443,-1.9007 -2.4104,-1.9005l-3.1089 0 -3.2314 0 -0.475 0 -4.3212 0c-0.0179,0.0003 -0.0359,0.0003 -0.0541,0l-0.9979 0 -1.4987 0 -0.0012 0 0 3.7964 0.0012 -3.7964 0 -1.4999 0 -0.9979c-0.0003,-0.0181 -0.0003,-0.036 0,-0.0538l0 -4.2293 3.1089 0c0.9661,0 2.4104,-1.9005 2.4104,-1.9005 0,0 -1.2019,-1.8981 -2.3698,-1.8981l-3.1495 0 0 -3.1495c0.0002,-1.1679 -1.8981,-2.3698 -1.8981,-2.3698 0,0 -1.9007,1.4443 -1.9005,2.4104l0 3.1089 0 3.2314 0 0.475 0 4.3212c0.0003,0.0179 0.0003,0.0359 0,0.0541l0 0.9979 0 1.4987 -1.4987 0 -0.9979 0c-0.0182,0.0003 -0.0362,0.0003 -0.0541,0l-4.3212 0 -0.475 0 -3.2314 0 -3.1089 0c-0.9661,-0.0002 -2.4104,1.9005 -2.4104,1.9005 0,0 1.2019,1.8983 2.3698,1.8981l3.1495 0 0 3.1495c0,1.1679 1.8981,2.3698 1.8981,2.3698 0,0 1.9005,-1.4443 1.9005,-2.4104l0 -3.1089 4.2293 0c0.0178,-0.0003 0.0357,-0.0003 0.0538,0l0.9979 0 1.4987 0 0 0.0012 0.0012 0 0.0002 1.4977 -0.0001 0.9979c0.0003,0.0182 0.0003,0.0363 0,0.0542l0 4.321zm-10.5796 -10.6706l3.7984 -0.0001 0.0001 -3.1087c-0.0001,-0.9662 -1.9005,-2.4104 -1.9005,-2.4104 0,0 -1.8982,1.2021 -1.8982,2.3698l0.0002 3.1494zm24.9552 0.0012l-3.7984 -0.0001 -0.0001 -3.1087c0.0001,-0.9662 1.9005,-2.4104 1.9005,-2.4104 0,0 1.8982,1.2021 1.8982,2.3698l-0.0002 3.1494zm-14.3769 -10.5795l-0.0001 3.7984 -3.1087 0.0001c-0.9662,-0.0001 -2.4104,-1.9005 -2.4104,-1.9005 0,0 1.2021,-1.8982 2.3698,-1.8982l3.1494 0.0002zm0.0012 24.9554l0 -3.7984 -3.1087 -0.0001c-0.9663,0.0001 -2.4105,1.9004 -2.4105,1.9004 0,0 1.2022,1.8983 2.37,1.8984l3.1492 -0.0003z"/>
  <path class="fil1 str0" d="M358.975 223.769l0 0.4751 -0.0001 3.2314 0.0001 3.1091c-0.0002,0.9659 1.9005,2.4101 1.9005,2.4101 0,0 1.8983,-1.2018 1.8981,-2.3697l-0.0001 -3.1495 3.1496 -0.0001c1.1679,0.0002 2.3698,-1.898 2.3698,-1.898 0,0 -1.4442,-1.9004 -2.4105,-1.9005l-3.1089 0 0.0002 -4.2293c-0.0003,-0.0179 -0.0004,-0.0357 -0.0001,-0.0538l0.0001 -0.9979 -0.0001 -1.4977 1.4974 0 0.9979 0c0.0181,-0.0003 0.036,-0.0003 0.0538,0l4.2293 0 0 3.1089c0,0.9661 1.9005,2.4104 1.9005,2.4104 0,0 1.8981,-1.2019 1.8981,-2.3698l0 -3.1495 3.1495 0c1.1679,0.0002 2.3698,-1.8981 2.3698,-1.8981 0,0 -1.4443,-1.9007 -2.4104,-1.9005l-3.1089 0 -3.2314 0 -0.475 0 -4.3212 0c-0.0179,0.0003 -0.0359,0.0003 -0.0541,0l-0.9979 0 -1.4987 0 -0.0012 0 0 3.7964 0.0012 -3.7964 0 -1.4999 0 -0.9979c-0.0003,-0.0181 -0.0003,-0.036 0,-0.0538l0 -4.2293 3.1089 0c0.9661,0 2.4104,-1.9005 2.4104,-1.9005 0,0 -1.2019,-1.8981 -2.3698,-1.8981l-3.1495 0 0 -3.1495c0.0002,-1.1679 -1.8981,-2.3698 -1.8981,-2.3698 0,0 -1.9007,1.4443 -1.9005,2.4104l0 3.1089 0 3.2314 0 0.475 0 4.3212c0.0003,0.0179 0.0003,0.0359 0,0.0541l0 0.9979 0 1.4987 -1.4987 0 -0.9979 0c-0.0182,0.0003 -0.0362,0.0003 -0.0541,0l-4.3212 0 -0.475 0 -3.2314 0 -3.1089 0c-0.9661,-0.0002 -2.4104,1.9005 -2.4104,1.9005 0,0 1.2019,1.8983 2.3698,1.8981l3.1495 0 0 3.1495c0,1.1679 1.8981,2.3698 1.8981,2.3698 0,0 1.9005,-1.4443 1.9005,-2.4104l0 -3.1089 4.2293 0c0.0178,-0.0003 0.0357,-0.0003 0.0538,0l0.9979 0 1.4987 0 0 0.0012 0.0012 0 0.0002 1.4977 -0.0001 0.9979c0.0003,0.0182 0.0003,0.0363 0,0.0542l0 4.321zm-10.5796 -10.6706l3.7984 -0.0001 0.0001 -3.1087c-0.0001,-0.9662 -1.9005,-2.4104 -1.9005,-2.4104 0,0 -1.8982,1.2021 -1.8982,2.3698l0.0002 3.1494zm24.9552 0.0012l-3.7984 -0.0001 -0.0001 -3.1087c0.0001,-0.9662 1.9005,-2.4104 1.9005,-2.4104 0,0 1.8982,1.2021 1.8982,2.3698l-0.0002 3.1494zm-14.3769 -10.5795l-0.0001 3.7984 -3.1087 0.0001c-0.9662,-0.0001 -2.4104,-1.9005 -2.4104,-1.9005 0,0 1.2021,-1.8982 2.3698,-1.8982l3.1494 0.0002zm0.0012 24.9554l0 -3.7984 -3.1087 -0.0001c-0.9663,0.0001 -2.4105,1.9004 -2.4105,1.9004 0,0 1.2022,1.8983 2.37,1.8984l3.1492 -0.0003z"/>
  <path class="fil1 str0" d="M21.3269 55.4129l-3.7987 0 0 9.514c-0.0002,5.9116 1.9005,14.7505 1.9005,14.7505 0,0 1.8983,-7.3554 1.8981,-14.5033l0.0001 -9.7612z"/>
  <path class="fil1 str0" d="M97.2343 55.4207l-3.7987 0 0 9.514c-0.0002,5.9116 1.9005,14.7505 1.9005,14.7505 0,0 1.8983,-7.3554 1.8981,-14.5033l0.0001 -9.7612z"/>
  <path class="fil1 str0" d="M59.3154 112.816l-3.7987 0 0 9.514c-0.0002,5.9116 1.9005,14.7505 1.9005,14.7505 0,0 1.8983,-7.3554 1.8981,-14.5033l0.0001 -9.7612z"/>
  <path class="fil1 str0" d="M135.169 112.739l-3.7987 0 0 9.514c-0.0002,5.9116 1.9005,14.7505 1.9005,14.7505 0,0 1.8983,-7.3554 1.8981,-14.5033l0.0001 -9.7612z"/>
  <path class="fil1 str0" d="M97.2301 168.514l-3.7987 0 0 9.514c-0.0002,5.9116 1.9005,14.7505 1.9005,14.7505 0,0 1.8983,-7.3554 1.8981,-14.5033l0.0001 -9.7612z"/>
  <path class="fil1 str0" d="M21.3073 168.492l-3.7987 0 0 9.514c-0.0002,5.9116 1.9005,14.7505 1.9005,14.7505 0,0 1.8983,-7.3554 1.8981,-14.5033l0.0001 -9.7612z"/>
  <path class="fil1 str0" d="M59.3823 227.549l-3.7987 0 0 9.514c-0.0002,5.9116 1.9005,14.7505 1.9005,14.7505 0,0 1.8983,-7.3554 1.8981,-14.5033l0.0001 -9.7612z"/>
  <path class="fil1 str0" d="M135.192 227.564l-3.7987 0 0 9.514c-0.0002,5.9116 1.9005,14.7505 1.9005,14.7505 0,0 1.8983,-7.3554 1.8981,-14.5033l0.0001 -9.7612z"/>
  <path class="fil1 str0" d="M173.071 168.503l-3.7987 0 0 9.514c-0.0002,5.9116 1.9005,14.7505 1.9005,14.7505 0,0 1.8983,-7.3554 1.8981,-14.5033l0.0001 -9.7612z"/>
  <path class="fil1 str0" d="M249.02 168.592l-3.7987 0 0 9.514c-0.0002,5.9116 1.9005,14.7505 1.9005,14.7505 0,0 1.8983,-7.3554 1.8981,-14.5033l0.0001 -9.7612z"/>
  <path class="fil1 str0" d="M286.997 227.474l-3.7987 0 0 9.514c-0.0002,5.9116 1.9005,14.7505 1.9005,14.7505 0,0 1.8983,-7.3554 1.8981,-14.5033l0.0001 -9.7612z"/>
  <path class="fil1 str0" d="M362.773 227.475l-3.7987 0 0 9.514c-0.0002,5.9116 1.9005,14.7505 1.9005,14.7505 0,0 1.8983,-7.3554 1.8981,-14.5033l0.0001 -9.7612z"/>
  <path class="fil1 str0" d="M324.853 168.444l-3.7987 0 0 9.514c-0.0002,5.9116 1.9005,14.7505 1.9005,14.7505 0,0 1.8983,-7.3554 1.8981,-14.5033l0.0001 -9.7612z"/>
  <path class="fil1 str0" d="M400.782 168.542l-3.7987 0 0 9.514c-0.0002,5.9116 1.9005,14.7505 1.9005,14.7505 0,0 1.8983,-7.3554 1.8981,-14.5033l0.0001 -9.7612z"/>
  <path class="fil1 str0" d="M362.718 112.774l-3.7987 0 0 9.514c-0.0002,5.9116 1.9005,14.7505 1.9005,14.7505 0,0 1.8983,-7.3554 1.8981,-14.5033l0.0001 -9.7612z"/>
  <path class="fil1 str0" d="M286.955 112.774l-3.7987 0 0 9.514c-0.0002,5.9116 1.9005,14.7505 1.9005,14.7505 0,0 1.8983,-7.3554 1.8981,-14.5033l0.0001 -9.7612z"/>
  <path class="fil1 str0" d="M400.725 55.4111l-3.7987 0 0 9.514c-0.0002,5.9116 1.9005,14.7505 1.9005,14.7505 0,0 1.8983,-7.3554 1.8981,-14.5033l0.0001 -9.7612z"/>
  <path class="fil1 str0" d="M324.883 55.4752l-3.7987 0 0 9.514c-0.0002,5.9116 1.9005,14.7505 1.9005,14.7505 0,0 1.8983,-7.3554 1.8981,-14.5033l0.0001 -9.7612z"/>
  <path class="fil1 str0" d="M249.02 55.4396l-3.7987 0 0 9.514c-0.0002,5.9116 1.9005,14.7505 1.9005,14.7505 0,0 1.8983,-7.3554 1.8981,-14.5033l0.0001 -9.7612z"/>
  <path class="fil1 str0" d="M173.138 55.3782l-3.7987 0 0 9.514c-0.0002,5.9116 1.9005,14.7505 1.9005,14.7505 0,0 1.8983,-7.3554 1.8981,-14.5033l0.0001 -9.7612z"/>
  <g id="_86998032">
   <path id="_84849888" class="fil2 str1" d="M209.362 62.3065c-10.351,19.636 -10.9673,42.189 -10.2612,48.9695 0.2605,2.5032 4.5693,4.1232 10.2609,4.1232"/>
   <path id="_84849192" class="fil2 str2" d="M152.95 110.454l49.2379 -8.6014 63.7913 9.2427m-113.029 -0.6413z"/>
   <path id="_84848400" class="fil1 str2" d="M210.966 116.298c19.8501,0 38.4944,-1.865 54.6527,-5.135 0.0737,-0.2358 0.144,-0.4721 0.211,-0.7092 0.0333,-0.1183 0.0658,-0.2365 0.0975,-0.355 -1.3388,0.0486 -2.6642,-1.2335 -2.7145,-2.0836 -0.1986,1.233 -1.46,2.3658 -3.4235,2.4986 -1.9636,0.1328 -3.8428,-0.5696 -3.9163,-1.8165 0.0373,1.6827 -1.9673,3.1886 -4.6141,3.3676 -2.5887,0.1752 -5.1617,-0.8464 -5.3659,-2.4635 0.1397,2.0508 -2.5326,3.889 -5.7909,4.1094 -3.3161,0.2244 -6.5938,-1.0922 -6.7181,-3.1974 -0.0805,2.1078 -2.641,3.9947 -6.1944,4.219 -3.5533,0.2243 -7.4336,-1.3514 -7.5666,-3.4566 -0.2605,2.5032 -4.5693,4.1232 -10.2609,4.1232 -5.6923,0 -10.0011,-1.62 -10.2616,-4.1232 -0.133,2.1052 -4.0133,3.6809 -7.5667,3.4566 -3.5533,-0.2243 -6.1138,-2.1112 -6.1943,-4.219 -0.1243,2.1052 -3.4021,3.4218 -6.7181,3.1974 -3.2583,-0.2204 -5.9306,-2.0586 -5.7909,-4.1094 -0.2042,1.6171 -2.7772,2.6387 -5.366,2.4635 -2.6467,-0.179 -4.6513,-1.6849 -4.614,-3.3676 -0.0735,1.2469 -1.9527,1.9493 -3.9163,1.8165 -1.9635,-0.1328 -3.2249,-1.2656 -3.4237,-2.4986 -0.0495,0.8408 -1.3463,2.1039 -2.67,2.0848 0.0354,0.1171 0.072,0.2353 0.1099,0.3549 16.9124,3.7079 36.7736,5.8431 58.0157,5.8431z"/>
   <path id="_84847360" class="fil1" d="M202.188 101.853l-49.2376 8.6019c-2.9967,-0.0938 -4.1437,5.0536 -0.3745,5.6294l62.3423 17.6727 51.4365 -17.0322c3.7692,-0.5758 2.6222,-5.7233 -0.3745,-5.6294l-63.7921 -9.2424 -0.0001 0z"/>
   <path id="_84846568" class="fil2 str1" d="M265.979 111.096c2.9967,-0.0939 4.1437,5.0536 0.3745,5.6294"/>
   <path id="_84845776" class="fil2 str1" d="M152.95 110.454c-2.9967,-0.0938 -4.1437,5.0536 -0.3745,5.6294"/>
   <path id="_84845080" class="fil2 str2" d="M152.575 116.084l62.3423 17.6732 51.4363 -17.032m-113.779 -0.6412z"/>
   <path id="_84844000" class="fil1 str2" d="M217.702 62.8765c34.4022,4.22 47.8913,30.366 45.5113,45.1389 0.0501,0.8501 1.3755,2.1322 2.7143,2.0836 0.6554,-2.449 0.9571,-4.968 0.9571,-7.555 0,-20.0592 -20.9953,-36.6951 -48.4494,-39.7395 -0.2452,0.0249 -0.4895,0.0489 -0.7334,0.072l0.0001 0z"/>
   <path id="_84842920" class="fil1 str2" d="M215.274 63.07c37.5923,6.3082 40.3916,36.3456 40.5983,45.6275 0.0735,1.2469 1.9527,1.9493 3.9163,1.8165 1.9635,-0.1328 3.2249,-1.2656 3.4235,-2.4986 2.3801,-14.7729 -11.109,-40.9189 -45.5111,-45.1389 -0.8158,0.0766 -1.6243,0.1411 -2.4269,0.1935l-0.0001 0z"/>
   <path id="_84841808" class="fil1 str2" d="M213.477 63.1682c30.3849,7.6043 31.3189,37.0128 32.4067,46.3238 0.0042,0.0366 0.0075,0.0732 0.0101,0.1096 0.2042,1.6171 2.7772,2.6387 5.3659,2.4635 2.6468,-0.179 4.6514,-1.6849 4.6141,-3.3676 -0.2067,-9.2819 -3.006,-39.3193 -40.5983,-45.6275 -0.6025,0.0395 -1.2018,0.072 -1.7985,0.0982z"/>
   <path id="_84840696" class="fil1 str2" d="M211.476 63.2311c13.1056,6.5849 22.6647,27.4918 21.9081,47.2825 0.1243,2.1052 3.402,3.4218 6.7181,3.1974 3.2583,-0.2204 5.9306,-2.0586 5.7909,-4.1094 -0.0045,-0.0362 -0.008,-0.0728 -0.0101,-0.1096 -1.0878,-9.3109 -2.0218,-38.7195 -32.4067,-46.3238 -0.6697,0.0292 -1.336,0.0501 -2.0003,0.0629z"/>
   <path id="_84839632" class="fil1 str2" d="M209.849 63.246c9.8837,19.4101 10.4693,41.3573 9.7745,48.03 0.133,2.1052 4.0133,3.6809 7.5666,3.4566 3.5534,-0.2243 6.1139,-2.1112 6.1944,-4.219 0.7566,-19.7907 -8.8025,-40.6976 -21.9081,-47.2825 -0.5439,0.0104 -1.086,0.0153 -1.6274,0.0149z"/>
   <path id="_89640344" class="fil1 str2" d="M208.878 63.2392c-9.8869,19.4119 -10.4728,41.3634 -9.7779,48.0368 0.2605,2.5032 4.5693,4.1232 10.2616,4.1232 5.6916,0 10.0004,-1.62 10.2609,-4.1232 0.6948,-6.6726 0.1092,-28.6199 -9.7745,-48.03 -0.3236,-0.0004 -0.647,-0.0025 -0.9701,-0.0068z"/>
   <path id="_89642544" class="fil1 str2" d="M207.302 63.204c-13.1333,6.5543 -22.7199,27.4916 -21.9623,47.3096 0.0805,2.1078 2.641,3.9947 6.1943,4.219 3.5534,0.2243 7.4337,-1.3514 7.5667,-3.4566 -0.6949,-6.6734 -0.109,-28.6249 9.7779,-48.0368 -0.526,-0.0068 -1.0513,-0.0186 -1.5766,-0.0352z"/>
   <path id="_89642480" class="fil1 str2" d="M205.428 63.1231c-30.5631,7.5324 -31.4987,37.0394 -32.5886,46.3689 -0.0021,0.0368 -0.0056,0.0734 -0.0101,0.1096 -0.1397,2.0508 2.5326,3.889 5.7909,4.1094 3.316,0.2244 6.5938,-1.0922 6.7181,-3.1974 -0.7576,-19.818 8.829,-40.7553 21.9623,-47.3096 -0.6242,-0.0202 -1.248,-0.0471 -1.8726,-0.0809z"/>
   <path id="_58433728" class="fil1 str2" d="M155.51 108.015c-2.3909,-14.8399 11.2319,-41.157 45.9816,-45.1952 -0.2303,-0.0227 -0.4611,-0.0463 -0.692,-0.0709 -27.7049,2.893 -48.9619,19.6109 -48.9619,39.7947 0,2.8723 0.2032,4.9183 1.002,7.5562 1.3237,0.0191 2.6205,-1.244 2.6702,-2.0848l0.0001 0z"/>
   <path id="_86987920" class="fil1 str2" d="M162.85 108.697c0.2075,-9.3082 3.0219,-39.4902 40.9198,-45.6807 -0.7568,-0.0557 -1.5155,-0.1213 -2.2779,-0.1966 -34.7498,4.0382 -48.3726,30.3552 -45.9816,45.1952 0.1986,1.233 1.46,2.3658 3.4235,2.4986 1.9636,0.1328 3.8428,-0.5696 3.9163,-1.8165l-0.0001 0z"/>
   <path id="_86991360" class="fil1 str2" d="M203.77 63.0168c-37.8979,6.1905 -40.7123,36.3725 -40.9198,45.6807 -0.0373,1.6827 1.9673,3.1886 4.614,3.3676 2.589,0.1752 5.1618,-0.8466 5.366,-2.4635 0.0025,-0.0364 0.0058,-0.073 0.0101,-0.1096 1.0899,-9.3295 2.0255,-38.8365 32.5886,-46.3689 -0.5522,-0.03 -1.105,-0.0655 -1.6589,-0.1063z"/>
   <path id="_85258072" class="fil1" d="M200.434 193.391l17.8539 0c2.9882,-0.7687 2.3874,-5.8252 -1.0307,-5.6139 -0.0015,0.0002 -0.0031,0.0002 -0.0046,0.0004 -4.8411,1.1961 -10.9422,1.1961 -15.7833,0 -0.0017,-0.0002 -0.0034,-0.0002 -0.005,-0.0004 -3.4177,-0.211 -4.0183,4.8452 -1.0303,5.6139z"/>
   <path id="_88369704" class="fil1 str2" d="M197.728 168.943c5.3498,1.3028 17.9164,1.3032 23.2663,0.0002 0.5892,-0.1434 1.0906,-0.3027 1.4855,-0.4776 3.3552,-1.4877 4.1954,-4.5984 2.6563,-7.0426 -5.0168,0.9297 -10.3079,1.4271 -15.7749,1.4271 -5.4669,0 -10.7577,-0.4974 -15.7746,-1.4271 -1.5391,2.4442 -0.6987,5.5549 2.6563,7.0426 0.3947,0.1749 0.8962,0.334 1.4851,0.4774z"/>
   <path id="_86986784" class="fil1 str2" d="M217.597 181.432c-3.9527,1.1241 -12.5192,1.1241 -16.4719,0 0.524,1.6585 0.6643,3.9358 0.3395,6.3447 0.0017,0.0002 0.0033,0.0002 0.005,0.0004 4.8411,1.1961 10.9422,1.1961 15.7833,0 0.0015,-0.0002 0.0031,-0.0002 0.0046,-0.0004 -0.3248,-2.4089 -0.1844,-4.6862 0.3395,-6.3447z"/>
   <path id="_87030048" class="fil1 str2" d="M218.739 176.558c-3.432,1.6837 -15.3218,1.6837 -18.7539,0 -1.4947,1.2881 -1.6916,3.2855 0,4.4553 0.314,0.1541 0.6986,0.2938 1.141,0.4197 3.9527,1.1241 12.5192,1.1241 16.4719,0 0.4425,-0.1259 0.827,-0.2656 1.141,-0.4197 1.6916,-1.1698 1.4948,-3.1672 0,-4.4553z"/>
   <path id="_85730696" class="fil1 str2" d="M199.983 176.558c3.4321,1.6837 15.3219,1.6837 18.7539,0 0.0437,-1.8287 -0.0695,-4.8395 2.2562,-7.6141 -5.3499,1.3032 -17.9165,1.3028 -23.2663,0 2.3257,2.7746 2.2125,5.7854 2.2562,7.6141z"/>
   <path id="_88830136" class="fil1 str2" d="M219.624 126.061c-0.5722,-3.8985 -19.9516,-3.8979 -20.5237,0 -0.0371,0.2535 -0.0708,0.5392 -0.0995,0.8554 -0.5138,5.6765 0.5559,21.158 10.3619,35.9334 9.8049,-14.7754 10.8748,-30.2569 10.3608,-35.9334 -0.0287,-0.3162 -0.0624,-0.6019 -0.0995,-0.8554z"/>
   <path id="_85466384" class="fil2 str1" d="M209.362 162.85c-14.4753,-4.5047 -23.3156,-19.738 -23.9535,-35.7653 -0.2613,-6.5691 13.7736,-5.2963 13.5928,-0.1681"/>
   <path id="_87030096" class="fil1 str2" d="M245.882 123.831c-0.1516,8.0225 -2.6356,32.7791 -36.5204,39.0199 42.7469,-4.8376 46.2763,-33.4009 46.4935,-40.4753 0.2912,-3.3697 -8.9364,-3.414 -9.9731,1.4555l0 -0.0001z"/>
   <path id="_85356240" class="fil1 str2" d="M233.316 127.086c-0.638,16.0271 -9.4784,31.2606 -23.9535,35.7653 33.8848,-6.2408 36.3688,-30.9974 36.5204,-39.0199 0.0002,-0.0149 0.0006,-0.0296 0.0008,-0.0443 0.0753,-4.1898 -12.2486,-3.4313 -12.5676,3.2989l-0.0001 0z"/>
   <path id="_85730720" class="fil1 str2" d="M219.724 126.917c0.514,5.6765 -0.5559,21.158 -10.3608,35.9334 14.4752,-4.5047 23.3155,-19.7381 23.9535,-35.7653 0.2613,-6.5691 -13.7736,-5.2964 -13.5928,-0.1681l0.0001 0z"/>
   <path id="_85653288" class="fil1 str2" d="M209.363 162.85c-9.806,-14.7754 -10.8757,-30.2569 -10.3619,-35.9334 0.1808,-5.1283 -13.8541,-6.401 -13.5928,0.1681 0.6379,16.0271 9.4783,31.2606 23.9547,35.7653z"/>
   <path id="_85654024" class="fil1 str2" d="M209.363 162.85c-14.4763,-4.5047 -23.3168,-19.7381 -23.9547,-35.7653 -0.319,-6.7302 -12.6429,-7.4887 -12.5676,-3.2989 0.0002,0.0147 0.0006,0.0294 0.0008,0.0443 0.1515,8.0225 2.6356,32.7791 36.5215,39.0199z"/>
   <path id="_85730216" class="fil1 str2" d="M209.363 162.85c-33.8858,-6.2408 -36.37,-30.9974 -36.5215,-39.0199 -1.0367,-4.8695 -10.2644,-4.8252 -9.9731,-1.4555 0.2172,7.0745 3.7466,35.6378 46.4946,40.4753l0 0.0001z"/>
   <path id="_85730600" class="fil1 str2" d="M209.363 162.85c-42.7479,-4.8376 -46.2774,-33.4009 -46.4946,-40.4753 -0.2913,-3.3697 8.9364,-3.414 9.9731,1.4555 -0.0002,-0.0149 -0.0006,-0.0296 -0.0008,-0.0443 -0.0753,-4.1898 12.2486,-3.4313 12.5676,3.2989 -0.2613,-6.5691 13.7736,-5.2964 13.5928,-0.1681 0.0287,-0.3162 0.0624,-0.6019 0.0995,-0.8554 0.5721,-3.8979 19.9515,-3.8985 20.5237,0 0.0371,0.2535 0.0708,0.5392 0.0995,0.8554 -0.1808,-5.1283 13.8541,-6.401 13.5928,0.1681 0.319,-6.7302 12.6429,-7.4887 12.5676,-3.2989 -0.0002,0.0147 -0.0006,0.0294 -0.0008,0.0443 1.0367,-4.8695 10.2643,-4.8252 9.9731,-1.4555 -0.2172,7.0745 -3.7466,35.6378 -46.4935,40.4753zm-0.0011 0c5.467,0 10.7581,-0.4974 15.7749,-1.4271 24.4678,-4.5348 42.4112,-19.3561 42.4112,-36.9351 0,-2.7778 -0.2996,-5.0259 -1.1454,-7.6201 -0.0155,-0.0476 -0.0314,-0.0954 -0.0472,-0.1434 -16.3273,3.3625 -35.2362,5.2853 -55.3886,5.2853 -21.3995,0 -41.3967,-2.1674 -58.3901,-5.9258 -0.0917,0.2621 -0.1786,0.5232 -0.2607,0.7833 -0.7889,2.4999 -1.1398,4.9259 -1.1398,7.6207 0,17.579 17.9436,32.4003 42.4112,36.9351 5.0169,0.9297 10.3077,1.4271 15.7746,1.4271l-0.0001 0z"/>
   <path id="_86987592" class="fil2 str1" d="M266.354 116.725c0.882,2.6551 1.1926,4.9346 1.1926,7.7635 0,21.1833 -26.056,38.3622 -58.1861,38.3622 -32.1297,0 -58.1858,-17.1789 -58.1858,-38.3622 0,-2.9753 0.4277,-5.6228 1.4005,-8.404 16.9935,3.7584 36.9907,5.9258 58.3901,5.9258 20.1524,0 39.0613,-1.9228 55.3886,-5.2853l0.0001 0z"/>
   <path id="_85316032" class="fil2 str1" d="M193.586 161.423c-1.5391,2.4442 -0.6987,5.5549 2.6563,7.0426 4.3754,1.9393 21.8614,1.9399 26.2369,0 3.3552,-1.4877 4.1954,-4.5984 2.6563,-7.0426"/>
   <path id="_122171960" class="fil2 str1" d="M217.261 187.795c-0.3317,-2.4426 -0.185,-4.7511 0.3548,-6.4181"/>
   <path id="_85730552" class="fil2 str1" d="M218.739 176.558c1.4948,1.2881 1.6916,3.2855 0,4.4553 -3.432,1.6837 -15.3218,1.6837 -18.7539,0 -1.6916,-1.1698 -1.4947,-3.1672 0,-4.4553"/>
   <path id="_85653976" class="fil2 str1" d="M218.739 176.558c0.0437,-1.8287 -0.0695,-4.8395 2.2562,-7.6141"/>
   <path id="_86986832" class="fil2 str1" d="M201.461 187.795c0.3317,-2.4426 0.185,-4.7511 -0.3548,-6.4181"/>
   <path id="_58933328" class="fil2 str1" d="M199.983 176.558c3.4321,1.6837 15.3219,1.6837 18.7539,0"/>
   <path id="_89300744" class="fil2 str1" d="M199.983 176.558c-0.0437,-1.8287 0.0695,-4.8395 -2.2562,-7.6141"/>
   <path id="_89363496" class="fil2 str1" d="M185.339 110.514c-0.1243,2.1052 -3.4021,3.4218 -6.7181,3.1974 -3.3161,-0.2243 -6.0255,-2.1244 -5.7808,-4.219 1.1348,-9.714 2.1023,-41.3035 36.5211,-47.1855"/>
   <path id="_89363400" class="fil2 str1" d="M172.841 109.492c-0.0991,1.6802 -2.7293,2.7521 -5.3761,2.5731 -2.6467,-0.179 -4.6513,-1.6849 -4.614,-3.3676 0.2172,-9.7466 3.2929,-42.3794 46.5112,-46.3909"/>
   <path id="_86142360" class="fil2 str1" d="M152.733 110.095c1.3598,0.092 2.7261,-1.2168 2.777,-2.0803"/>
   <path id="_85291672" class="fil2 str1" d="M209.362 62.3065c-10.351,19.636 -10.9673,42.189 -10.2612,48.9695 0.2605,2.5032 4.5693,4.1232 10.2609,4.1232"/>
   <path id="_86987168" class="fil2 str1" d="M209.362 62.3065c-14.1767,5.2887 -24.8189,27.3668 -24.0222,48.2071 0.0805,2.1078 2.641,3.9947 6.1943,4.219 3.5534,0.2243 7.4337,-1.3514 7.5667,-3.4566"/>
   <path id="_85295568" class="fil2 str1" d="M209.362 62.3065c-40.5657,0.6871 -56.4147,29.796 -53.851,45.7089 0.1986,1.233 1.46,2.3658 3.4235,2.4986 1.9636,0.1328 3.8428,-0.5696 3.9163,-1.8165"/>
   <path id="_86987096" class="fil2 str1" d="M185.407 127.086c-0.319,-6.7301 -12.6429,-7.4888 -12.5676,-3.299 0.1432,7.9754 2.5738,32.8121 36.5212,39.0642"/>
   <path id="_85352712" class="fil2 str1" d="M172.898 124.171c-0.6699,-5.2098 -10.3288,-5.2418 -10.031,-1.7953 0.2172,7.0744 3.7466,35.6378 46.4935,40.4752"/>
   <path id="_88830160" class="fil2 str1" d="M152.207 117.413c1.3599,0.1181 2.6073,1.8591 2.6582,2.4901"/>
   <path id="_86987568" class="fil2 str1" d="M209.362 162.85c-14.4753,-4.5047 -23.3156,-19.738 -23.9535,-35.7653 -0.2613,-6.5691 13.7736,-5.2963 13.5928,-0.1681"/>
   <path id="_86987288" class="fil2 str1" d="M209.362 162.85c-41.5088,-2.546 -55.1601,-26.122 -54.496,-42.9476 0.1049,-2.656 7.5951,-1.8727 7.9847,2.0013"/>
   <path id="_84878360" class="fil2 str1" d="M217.261 187.795c-0.3317,-2.4426 -0.185,-4.7511 0.3548,-6.4181"/>
   <path id="_86989320" class="fil2 str1" d="M218.739 176.558c1.4948,1.2881 1.6916,3.2855 0,4.4553 -3.432,1.6837 -15.3218,1.6837 -18.7539,0 -1.6916,-1.1698 -1.4947,-3.1672 0,-4.4553"/>
   <path id="_86988760" class="fil2 str1" d="M218.739 176.558c0.0437,-1.8287 -0.0695,-4.8395 2.2562,-7.6141"/>
   <path id="_86988872" class="fil2 str1" d="M201.461 187.795c0.3317,-2.4426 0.185,-4.7511 -0.3548,-6.4181"/>
   <path id="_88339296" class="fil2 str1" d="M199.983 176.558c3.4321,1.6837 15.3219,1.6837 18.7539,0"/>
   <path id="_86989544" class="fil2 str1" d="M199.983 176.558c-0.0437,-1.8287 0.0695,-4.8395 -2.2562,-7.6141"/>
   <path id="_86991384" class="fil2 str1" d="M185.339 110.514c-0.1243,2.1052 -3.4021,3.4218 -6.7181,3.1974 -3.3161,-0.2243 -6.0255,-2.1244 -5.7808,-4.219 1.1348,-9.714 2.1023,-41.3035 36.5211,-47.1855"/>
   <path id="_86988016" class="fil2 str1" d="M209.362 62.3065c-14.1767,5.2887 -24.8189,27.3668 -24.0222,48.2071 0.0805,2.1078 2.641,3.9947 6.1943,4.219 3.5534,0.2243 7.4337,-1.3514 7.5667,-3.4566"/>
   <path id="_86991160" class="fil2 str1" d="M185.407 127.086c-0.319,-6.7301 -12.6429,-7.4888 -12.5676,-3.299 0.1432,7.9754 2.5738,32.8121 36.5212,39.0642"/>
   <path id="_86991440" class="fil2 str1" d="M209.362 162.85c-10.3511,-15.5984 -10.9668,-31.9838 -10.2613,-36.7888 0.5721,-3.8979 19.9515,-3.8985 20.5237,0 0.7057,4.805 0.0898,21.1903 -10.2613,36.7888"/>
   <path id="_85261208" class="fil2 str1" d="M265.979 111.096c2.9967,-0.0939 4.1437,5.0536 0.3745,5.6294"/>
   <path id="_85998216" class="fil2 str1" d="M233.384 110.514c0.1243,2.1052 3.402,3.4218 6.7181,3.1974 3.3161,-0.2243 6.0254,-2.1244 5.7808,-4.219 -1.1348,-9.714 -2.1023,-41.3035 -36.5212,-47.1855"/>
   <path id="_86987192" class="fil2 str1" d="M265.99 110.095c-1.3599,0.092 -2.7261,-1.2168 -2.777,-2.0803"/>
   <path id="_86987000" class="fil2 str1" d="M209.362 62.3065c10.3511,19.636 10.9674,42.189 10.2613,48.9695 -0.2605,2.5032 -4.5693,4.1232 -10.2609,4.1232"/>
   <path id="_90173872" class="fil2 str1" d="M209.362 62.3065c14.1768,5.2887 24.819,27.3668 24.0222,48.2071 -0.0805,2.1078 -2.641,3.9947 -6.1944,4.219 -3.5533,0.2243 -7.4336,-1.3514 -7.5666,-3.4566"/>
   <path id="_89388472" class="fil2 str1" d="M233.316 127.086c0.319,-6.7301 12.6429,-7.4888 12.5676,-3.299 -0.1433,7.9754 -2.5739,32.8121 -36.5212,39.0642"/>
   <path id="_85291648" class="fil2 str1" d="M245.824 124.171c0.6699,-5.2098 10.3288,-5.2418 10.031,-1.7953 -0.2172,7.0744 -3.7466,35.6378 -46.4935,40.4752"/>
   <path id="_85316008" class="fil2 str1" d="M266.517 117.413c-1.3599,0.1181 -2.6073,1.8591 -2.6582,2.4901"/>
   <path id="_59882792" class="fil2 str1" d="M209.363 162.85c14.4752,-4.5047 23.3155,-19.738 23.9535,-35.7653 0.2613,-6.5691 -13.7736,-5.2963 -13.5928,-0.1681"/>
   <path id="_88830184" class="fil2 str1" d="M209.363 162.85c41.5088,-2.546 55.16,-26.122 54.496,-42.9476 -0.1049,-2.656 -7.5951,-1.8727 -7.9847,2.0013"/>
   <path id="_89363472" class="fil2 str1" d="M209.362 62.3065c10.3511,19.636 10.9674,42.189 10.2613,48.9695 -0.2605,2.5032 -4.5693,4.1232 -10.2609,4.1232"/>
   <path id="_85644256" class="fil2 str1" d="M233.316 127.086c0.319,-6.7301 12.6429,-7.4888 12.5676,-3.299 -0.1433,7.9754 -2.5739,32.8121 -36.5212,39.0642"/>
   <path id="_89385680" class="fil2 str1" d="M209.363 162.85c14.4752,-4.5047 23.3155,-19.738 23.9535,-35.7653 0.2613,-6.5691 -13.7736,-5.2963 -13.5928,-0.1681"/>
   <path id="_86987048" class="fil2 str1" d="M152.95 110.454c-2.9967,-0.0938 -4.1437,5.0536 -0.3745,5.6294"/>
   <path id="_59882744" class="fil2 str1" d="M152.95 110.454c-0.8903,-2.8126 -1.1119,-4.9113 -1.1119,-7.9111 0,-22.2188 25.7594,-40.2375 57.5231,-40.2375 31.7632,0 57.5227,18.0187 57.5227,40.2375 0,2.9632 -0.396,5.8374 -1.2656,8.6192 -16.1583,3.27 -34.8026,5.135 -54.6527,5.135 -21.2421,0 -41.1032,-2.1352 -58.0157,-5.8431l0.0001 0z"/>
   <path id="_89300672" class="fil2 str1" d="M209.362 62.3065c40.5658,0.6871 56.4147,29.796 53.8511,45.7089 -0.1986,1.233 -1.46,2.3658 -3.4235,2.4986 -1.9636,0.1328 -3.8428,-0.5696 -3.9163,-1.8165"/>
   <path id="_85730528" class="fil2 str1" d="M245.884 109.492c0.0991,1.6802 2.7292,2.7521 5.376,2.5731 2.6468,-0.179 4.6514,-1.6849 4.6141,-3.3676 -0.2172,-9.7466 -3.2929,-42.3794 -46.5113,-46.3909"/>
   <path id="_89362352" class="fil2 str1" d="M233.384 110.514c0.1243,2.1052 3.402,3.4218 6.7181,3.1974 3.3161,-0.2243 6.0254,-2.1244 5.7808,-4.219 -1.1348,-9.714 -2.1023,-41.3035 -36.5212,-47.1855"/>
   <path id="_85657560" class="fil2 str1" d="M209.362 62.3065c14.1768,5.2887 24.819,27.3668 24.0222,48.2071 -0.0805,2.1078 -2.641,3.9947 -6.1944,4.219 -3.5533,0.2243 -7.4336,-1.3514 -7.5666,-3.4566"/>
   <path id="_85322976" class="fil2" d="M199.787 193.13l0.433 1.4177 17.8991 0.355 0.7162 -1.7176m-19.0483 -0.0551z"/>
   <path id="_85291624" class="fil1" d="M199.787 193.13l0.4334 1.4176 17.8985 0.3548 0.7165 -1.7178c-0.1666,0.086 -0.3489,0.1558 -0.5471,0.2067l-17.8539 0c-0.2386,-0.0613 -0.4542,-0.15 -0.6474,-0.2613z"/>
   <g>
    <path id="_84751088" class="fil1 str2" d="M225.227 223.802l-0.0157 3.9651c6.5745,0.5764 11.9705,-0.0262 17.1307,-3.9291l0.0157 -3.9651c-5.1602,3.903 -10.5562,4.5055 -17.1307,3.9291z"/>
    <path id="_85730888" class="fil1 str2" d="M225.235 223.802c-7.3878,4.9727 -24.3277,4.9727 -31.7155,0l-0.0157 3.9651c7.3878,4.9727 24.3277,4.9727 31.7155,0l0.0157 -3.9651z"/>
    <path id="_59378592" class="fil1 str2" d="M193.519 223.802c-6.5745,0.5764 -11.9705,-0.0261 -17.1307,-3.9291l-0.0157 3.9651c5.1602,3.9029 10.5562,4.5055 17.1307,3.9291l0.0157 -3.9651z"/>
    <path id="_122172008" class="fil1 str2" d="M200.434 193.391c-8.0559,19.4495 -30.3966,11.1853 -32.7285,20.6696 -0.0424,0.1725 -0.0646,0.3461 -0.0679,0.5201l0 0.0917 0 5.908c1.9887,1.86 3.7103,3.0927 8.7349,3.2576l0.0157 -3.9651c3.929,-5.8413 22.3956,-9.1678 24.0458,-26.4819z"/>
    <path id="_86986976" class="fil2 str1" d="M193.519 223.802c8.4604,-9.5869 11.5963,-15.1631 12.5132,-29.5437"/>
    <line id="_86987616" class="fil2 str1" x1="193.503" y1="227.767" x2="193.519" y2= "223.802" />
    <line id="_89385632" class="fil2 str1" x1="225.211" y1="227.767" x2="225.227" y2= "223.802" />
    <line id="_89362920" class="fil2 str1" x1="176.373" y1="223.838" x2="176.388" y2= "219.872" />
    <path id="_88369728" class="fil2 str1" d="M242.382 223.838c5.0245,-0.1649 6.7462,-1.3976 8.7349,-3.2576l0 -5.9997m-57.6125 13.1865c7.3878,4.9727 24.3277,4.9727 31.7155,0m-31.7155 0c-6.5745,0.5764 -11.9705,-0.0262 -17.1307,-3.9291m48.8463 3.9291c6.5745,0.5764 11.9705,-0.0262 17.1307,-3.9291m-74.7118 -9.2573l0 5.9997c1.9887,1.86 3.7103,3.0927 8.7349,3.2576"/>
    <line id="_59882840" class="fil2 str1" x1="193.503" y1="227.767" x2="193.519" y2= "223.802" />
    <line id="_85730192" class="fil2 str1" x1="176.373" y1="223.838" x2="176.388" y2= "219.872" />
    <path id="_89362376" class="fil1 str2" d="M225.204 223.802c-8.4604,-9.5869 -11.5963,-15.1631 -12.5132,-29.5437 2.017,-0.1229 3.8679,-0.412 5.5981,-0.8673 1.6502,17.3141 20.1168,20.6406 24.0459,26.4819 -5.1603,3.903 -10.5563,4.5055 -17.1308,3.9291z"/>
    <path id="_85653192" class="fil3 str2" d="M212.691 194.258c0.9169,14.3806 4.0528,19.9568 12.5132,29.5437 -3.6908,2.4842 -9.7657,3.7274 -15.8424,3.7295l-0.0039 -33.217c1.1617,0.0274 2.2705,0.0087 3.3331,-0.0562z"/>
    <path id="_59882720" class="fil1 str2" d="M242.335 219.872c-3.9291,-5.8413 -22.3957,-9.1678 -24.0459,-26.4819 8.0559,19.4495 30.3966,11.1853 32.7285,20.6696 0.0424,0.1725 0.0647,0.3461 0.0679,0.5201l0 0.0917 0 5.908c-1.9887,1.86 -3.7103,3.0927 -8.7349,3.2576l-0.0156 -3.9651z"/>
    <path id="_89362448" class="fil1 str2" d="M225.204 223.802c6.5745,0.5764 11.9705,-0.0261 17.1308,-3.9291l0.0156 3.9651c-5.1602,3.9029 -10.5562,4.5055 -17.1307,3.9291l-0.0157 -3.9651z"/>
    <path id="_85730312" class="fil1 str2" d="M200.434 193.391c-1.6502,17.3141 -20.1168,20.6406 -24.0458,26.4819 5.1602,3.903 10.5562,4.5055 17.1307,3.9291 7.3878,4.9727 24.3277,4.9727 31.7155,0 -8.4605,-9.5869 -11.6821,-15.2928 -12.599,-29.6733 -4.7938,0.4192 -8.7391,0.1732 -12.2014,-0.7377z"/>
    <path id="_122171912" class="fil2 str1" d="M242.382 223.838c5.0245,-0.1649 6.7462,-1.3976 8.7349,-3.2576l0 -5.9997m-57.6125 13.1865c7.3878,4.9727 24.3277,4.9727 31.7155,0m-31.7155 0c-6.5745,0.5764 -11.9705,-0.0262 -17.1307,-3.9291m48.8463 3.9291c6.5745,0.5764 11.9705,-0.0262 17.1307,-3.9291m-74.7118 -9.2573l0 5.9997c1.9887,1.86 3.7103,3.0927 8.7349,3.2576"/>
    <path id="_85434800" class="fil2 str1" d="M242.365 219.872c-3.9291,-5.8413 -22.3957,-9.1678 -24.0459,-26.4819 -7.4944,1.2479 -13.1428,1.2477 -17.8852,0 -1.6502,17.3141 -20.1168,20.6406 -24.0458,26.4819m65.9769 0c4.9199,-0.0259 9.3585,-3.0635 8.6827,-5.8123 -2.3319,-9.4843 -24.6726,-1.2201 -32.7286,-20.6696m-24.8003 30.411c-6.5745,0.5764 -11.9705,-0.0261 -17.1307,-3.9291m17.1307 3.9291c7.3878,4.9727 24.3277,4.9727 31.7155,0m-48.8463 -3.9291c-4.9199,-0.0259 -9.3586,-3.0635 -8.6827,-5.8123 2.3319,-9.4843 24.6726,-1.2201 32.7285,-20.6696m24.8004 30.411c6.5745,0.5764 11.9705,-0.0261 17.1307,-3.9291"/>
    <path id="_86995784" class="fil2 str1" d="M225.227 223.802c-8.4605,-9.5869 -11.6821,-15.2928 -12.599,-29.6733"/>
    <line id="_86987944" class="fil2 str1" x1="242.341" y1="223.838" x2="242.357" y2= "219.872" />
    <line id="_86997072" class="fil2 str1" x1="242.341" y1="223.838" x2="242.357" y2= "219.872" />
    <line id="_85260168" class="fil2 str1" x1="225.211" y1="227.767" x2="225.227" y2= "223.802" />
    <path id="_86995392" class="fil2 str1" d="M193.519 223.802c8.4604,-9.5869 11.6821,-15.2928 12.5989,-29.6733"/>
   </g>
   <path id="_85259936" class="fil2 str1" d="M200.434 193.391c-2.9895,-0.7691 -2.3868,-5.8299 1.0353,-5.6135 4.8411,1.1961 10.9422,1.1961 15.7833,0 3.4221,-0.2164 4.0248,4.8444 1.0353,5.6135"/>
   <path id="_85260568" class="fil1 str1" d="M198.668 62.5c-2.3115,0 -4.1354,-1.5882 -4.1456,-3.8998 -0.0165,-3.6504 4.4087,-4.4864 6.7466,-3.6952 -0.5655,-0.6719 -1.8181,-2.3073 -0.646,-3.891 0.989,-1.3362 2.3355,-1.1192 3.7773,-0.7769 -0.4103,-0.4444 -1.0926,-1.7352 -0.404,-3.1723 0.4463,-0.9314 1.6245,-1.5226 3.4823,-1.2434 -0.2299,-0.2515 -1.8113,-2.1564 -1.8219,-3.5758 -0.0331,-4.435 8.3062,-4.7 8.3724,0 0.0201,1.4193 -1.592,3.3243 -1.8219,3.5758 1.8578,-0.2792 3.0359,0.312 3.4822,1.2434 0.6887,1.4371 0.0064,2.7279 -0.4039,3.1723 1.4418,-0.3423 2.7883,-0.5593 3.7773,0.7769 1.1721,1.5837 -0.0806,3.2191 -0.646,3.891 2.3379,-0.7912 6.7631,0.0448 6.7466,3.6952 -0.0102,2.3116 -1.8233,3.9015 -4.1348,3.9015 -7.8512,1.0284 -14.8576,0.9565 -22.3606,-0.0017z"/>
  </g>
 </g>
</svg>
