<?xml version="1.0" encoding="utf-8"?>
<!-- Generator: Adobe Illustrator 16.0.0, SVG Export Plug-In . SVG Version: 6.00 Build 0)  -->
<!DOCTYPE svg PUBLIC "-//W3C//DTD SVG 1.1//EN" "http://www.w3.org/Graphics/SVG/1.1/DTD/svg11.dtd">
<svg version="1.1" id="Layer_1" xmlns="http://www.w3.org/2000/svg" xmlns:xlink="http://www.w3.org/1999/xlink" x="0px" y="0px"
	 width="500px" height="333px" viewBox="0 0 500 333" enable-background="new 0 0 500 333" xml:space="preserve">
<g>
	<rect x="0" fill="#FFFFFF" width="500" height="333"/>
	<g>
		<circle fill="#EDD25F" cx="317.353" cy="103.365" r="13.063"/>
		<polygon fill="#CE4920" stroke="#A33128" stroke-miterlimit="10" points="329.018,122.087 333.538,133.357 325.308,136.268 
			320,122.668 		"/>
		<path fill="#E5C645" stroke="#9B862F" stroke-miterlimit="10" d="M325.937,116.688c0,0,3.146,1.479,3.396,5.229
			c0,0-2.245,3.597-5.412,3.84c0,0-2.925-3.09-1.548-8.132L325.937,116.688z"/>
		<path fill="#E0E0E0" stroke="#6D6761" stroke-miterlimit="10" d="M300.125,117.625c0,0-21.375-8.917-28.75,0.542
			s-19.625,21.73-1.25,12.532c0,0-1.672,12.503,9.352,3.59c0,0,2.82,9.163,10.547,0c0,0,0.199,9.39,7.588,0.801
			c7.393-8.589,7.268-11.6,7.268-11.6S305.49,119.458,300.125,117.625z"/>
		<path fill="#CE4920" stroke="#A33128" stroke-miterlimit="10" d="M302.084,119.212c0,0-13.208,2.978-13.125-3.522s0-8.252,0-8.252
			l4.508,0.122c0,0-0.3,5.948,1.283,7.031s7.334,0,7.334,0S304.501,117.083,302.084,119.212z"/>
		<path fill="#CE4920" stroke="#A33128" stroke-miterlimit="10" d="M303.156,117.625c0,0-6.852,27.449,5.687,40.1l10.892-8.132
			l-8.54-26.925L303.156,117.625z"/>
		<path fill="#E0E0E0" stroke="#6D6761" stroke-miterlimit="10" d="M312,190.333c0,0,2.245,6.917,0.829,9.667
			c0,0-1.861,2.333-0.183,3.083s12.602,4.584,14.767,16.584c0,0,5.75,0.378,7.085-2.896c0,0-1.753-6.938-4.919-7.021
			c0,0-2.25-2.5-4-2.25c0,0-6.415-4.751-8.915-6.167c0,0-0.165-1.333,1-2.333s7.331-9.751,5.165-16.417
			C322.829,182.583,313.413,177.083,312,190.333z"/>
		<path fill="#E0E0E0" stroke="#6D6761" stroke-miterlimit="10" d="M290,166.654c0,0-12.133,20.846,8.992,24.596
			c0,0,2.633,0,1.758,4.625s0.875,10.75,0.875,10.75s1.25,1.125,2.25,0.875s17.25-0.875,13.25,15.25c0,0,5,2.875,9.25,0
			c0,0,0.125-5.875-4-8.375c0,0,0.011-3.788-2.875-3.625c0,0-5.85-5.773-12.375-7.875c0,0-2.5-6.701,4.375-10.288
			c0,0,7.75-0.462,7.75-7.587c0,0,21.125,3,31.375-11.875L344.875,162L321,148.75c0,0-12.387,0.875-22.008,9.25
			c0,0-10.617-2.25-15.742,6.875s-8.625,11.75-14.25,11.25c0,0-4.75-1.875-6.125,1.125c0,0-3.375,1.75-2.875,5.25l-0.051,5.125
			l6.051-3.5c0,0,3.125,0.033,3-2.171c0,0,7.625,1.331,11.5-5.312C284.375,169.999,290,166.654,290,166.654z"/>
		<path fill="none" stroke="#6D6761" stroke-miterlimit="10" d="M319.25,185c0,0,0.163-6.832-4.337-10.666"/>
		<path fill="#E0E0E0" stroke="#6D6761" stroke-miterlimit="10" d="M348.531,98.597c0,0-12.044-1.097-17.268,17.028
			c-5.228,18.125-5.613,24.75-12.013,23.25c0,0,2.868,5.125,11.882,1.125c0,0,8.097-34.125,18.805-36.125L348.531,98.597z"/>
		<path fill="#E0E0E0" stroke="#6D6761" stroke-miterlimit="10" d="M364.116,157.25c0,0,5.646-2.25,7.892-7.875
			s16.492-13.625,24.492,3.75v4.375h8.5c0,0-2.25-8.625-5.5-8.75c0,0-6.875-7.25-9.375-8.625s-7.125-6.5-11-2.125
			s-15.662,1.75-19.396,9.875C359.731,147.875,355.801,160.272,364.116,157.25z"/>
		<path fill="#E0E0E0" stroke="#6D6761" stroke-miterlimit="10" d="M353.004,170.338c0,0,2.279-3.337,2.612-7.837
			c0,0,12.158,3.833,20.845-1.667c8.683-5.5,12.856,0.667,13.356,3l-1.16,5.5l7.503,3.5c0,0,3.002-9.439-4.998-14.219
			c0,0-3.834-1.947-4.167-4.947c-0.329-3-4.161-3-8.329-0.833c-4.166,2.167-14,2.667-14,2.667s0.597-12.667-4.701-18.167
			c-5.299-5.5-12.652-7-12.063-14.667c0,0,2.804,4.166,6.781,2.333c3.977-1.833,8.396,2.755,8.396,4.088s5.306,3.5,6.678-1.5
			s-4.594-8.333-4.594-8.333s-7.12-3.319-7.354-7.819s0.938-7.833-4.063-7.5L354.5,95c0,0-3.625,3.313-4.25,6.313
			c0,0-1.688-1.708-0.313-5.875c0,0-2.708,2.167-4.375,8c0,0-7.063,1.564-9.729,7.73S328.656,147.186,321,148.75
			C321,148.75,333.008,170.509,353.004,170.338z"/>
		<path fill="#EAC481" stroke="#997E65" stroke-miterlimit="10" d="M348.646,175.639c0,0,4.729-4.264,6.041-8.639
			c0,0-6.62-5.258-11.25-6.813l-3.646,3.063C339.793,163.25,344.043,170.713,348.646,175.639z"/>
		<path fill="#E0E0E0" stroke="#6D6761" stroke-miterlimit="10" d="M350.076,101.092c0,0,1.424,1.533,0.924,3.221"/>
		<path fill="#E0E0E0" stroke="#6D6761" stroke-miterlimit="10" d="M348.938,111.875c0,0,1.151,3.313,4.75,1.25
			C353.688,113.125,351.769,111.188,348.938,111.875z"/>
		<path fill="none" stroke="#6D6761" stroke-miterlimit="10" d="M347.906,122.668c0,0-0.823-1.585-0.902-4.501"/>
		<path fill="none" stroke="#6D6761" stroke-miterlimit="10" d="M347.449,111.728c0,0,5.051-1.478,7.426,2.46"/>
		<path fill="none" stroke="#6D6761" stroke-miterlimit="10" d="M365.745,130.698c0,0-1.312-1.261-1.187-2.011
			s-2.063-3.938-3.125-3.75"/>
		<path fill="none" stroke="#6D6761" stroke-miterlimit="10" d="M366.079,124.93c0,0,1.505,0.654,1.085,1.654"/>
		<path fill="#CE4920" stroke="#A33128" stroke-miterlimit="10" d="M311,151.5c0,0,15.918,13.138,16.668,24.139
			c0,0,18.207-4.346,22.957-16.472c0,0-15.063-16.799-23.688-18.799c0,0-3.687,7.624-4.937,7.628S311.06,147.062,311,151.5z"/>
		<path fill="none" stroke="#6B7067" stroke-miterlimit="10" d="M315.869,149.627c0,0,9.521,5.372,12.268,16.851
			c0,0,12.45-2.428,15.365-9.713c0,0-11.054-12.268-17.516-13.098"/>
		<path fill="#CE4920" stroke="#A33128" stroke-miterlimit="10" d="M327,154.25c0,0,5.413,1.417,5.413,4.667
			S333.5,169.5,333.5,169.5l5.079-0.754c0,0,2.578-16.996-6.169-19.996C332.41,148.75,326.25,145.5,327,154.25z"/>
		<path fill="#4E69A8" stroke="#365587" stroke-miterlimit="10" d="M311.192,145.391c0,0,3.225,6.604,8.809,8.104
			c5.582,1.5,5.582,3.583,4.5,5.833c0,0-1.584,2.302,2.166,0.859s1.588-11.609,6.25-10.276c0,0,5.082,1.927,2.416-1.162
			s-6.651-9.338-6.651-9.338S316.385,135.121,311.192,145.391z"/>
		<g>
			<path fill="#E5C645" d="M299.5,112.822c0,0-4.25,3.387,0,7.595l5.783,0.708c0,0,1.217,3.503,2.842,6.689s2.5,5.436,1.375,7.686
				s-1.875,8.617,1.5,11.496c0,0,12.934,1.254,18.775-6.996c0,0-1.4-5.75-5.275-8.375c0,0-2.932-6.764-1.276-11.569
				c1.652-4.805-2.224-5.868-2.224-5.868s-7.25-2.919-12.875-1.366C302.5,114.375,299.5,112.822,299.5,112.822z"/>
			<path fill="#4E69A8" d="M323.369,128.171c-0.271-1.085-0.511-2.333-0.604-3.622c-6.585,2.139-13.301,1.599-15.572,1.321
				c0.289,0.64,0.604,1.298,0.933,1.944c0.142,0.276,0.269,0.536,0.396,0.798C312.974,129.386,319.795,128.659,323.369,128.171z"/>
			<path fill="#4E69A8" d="M305.365,113.38l-0.017,0.029c1.912,3.642,0.063,7.75,0.063,7.75l-0.068,0.115
				c0.111,0.322,0.415,1.147,0.843,2.214c3.084-5.474,2.951-8.834,2.228-10.731c-0.095,0.023-0.188,0.038-0.283,0.064
				C307.115,113.1,306.198,113.274,305.365,113.38z"/>
			<path fill="none" stroke="#9B862F" stroke-miterlimit="10" d="M299.5,112.822c0,0-4.25,3.387,0,7.595l5.783,0.708
				c0,0,1.217,3.503,2.842,6.689s2.5,5.436,1.375,7.686s-1.875,8.617,1.5,11.496c0,0,12.934,1.254,18.775-6.996
				c0,0-1.4-5.75-5.275-8.375c0,0-2.932-6.764-1.276-11.569c1.652-4.805-2.224-5.521-2.224-5.521s-7.25-3.267-12.875-1.713
				C302.5,114.376,299.5,112.822,299.5,112.822z"/>
			<path fill="none" stroke="#9B862F" stroke-miterlimit="10" d="M309.684,135.088c0,0,11.485,0.143,14.816-3.463"/>
			<path fill="none" stroke="#9B862F" stroke-miterlimit="10" d="M308.595,141.527c0,0,13.491,1.154,19.073-6.438"/>
			<path fill="none" stroke="#9B862F" stroke-miterlimit="10" d="M312.48,135.009c0,0-3.59,6.623,1.215,12.055"/>
			<path fill="none" stroke="#9B862F" stroke-miterlimit="10" d="M322.535,132.995c0,0,4.771,4.135,5.612,8.901"/>
			<path fill="none" stroke="#9B862F" stroke-miterlimit="10" d="M315.281,134.774c0,0-2.268,7.599,1.812,11.995"/>
			<path fill="none" stroke="#9B862F" stroke-miterlimit="10" d="M320,133.917c0,0,5.604,6.156,5.346,10.118"/>
			<path fill="none" stroke="#9B862F" stroke-miterlimit="10" d="M317.44,134.471c0,0-1.559,6.813,2.292,11.794"/>
			<path fill="none" stroke="#9B862F" stroke-miterlimit="10" d="M318.431,134.288c0,0,2.396,6.497,4.104,11.103"/>
		</g>
		<path fill="#CE4920" stroke="#A33128" stroke-miterlimit="10" d="M304.068,113.494c0,0,4.197,6.131,9.627,5.568
			c0,0-0.133,1.75,1.242,1.625c0,0,2.318,0.688,2.19-1.563c0,0,6.965,1,9.216-2.438c-1.857-0.866-0.896-1.183-7.354-2.915
			c0,0,0.827,2.853-1.859,2.978c-2.69,0.125-7.284-1.313-6.101-4.575C311.031,112.175,307.262,111.488,304.068,113.494z"/>
		<path fill="#995314" stroke="#6D3B18" stroke-miterlimit="10" d="M339.793,165.126L333.5,169.5l1,12.625
			c0,0,4.688,3.438,9.688,2.25s-1.188-4.979-3.625-4.708L339.793,165.126z"/>
		<path fill="#B2967B" stroke="#564A40" stroke-miterlimit="10" d="M373.087,184.842c0.518,0.555,0.387,1.234-0.117,1.706
			l-0.364,0.343c-0.505,0.471-1.193,0.553-1.71,0l-88.08-94.229c-0.518-0.554-0.523-1.385-0.021-1.856l0.364-0.342
			c0.505-0.472,1.333-0.404,1.851,0.149L373.087,184.842z"/>
		
			<ellipse transform="matrix(0.7307 -0.6827 0.6827 0.7307 14.1623 217.5361)" fill="#4E69A8" stroke="#365587" stroke-miterlimit="10" cx="282.796" cy="90.818" rx="3.5" ry="3.09"/>
		<path fill="#FFFFFF" stroke="#303133" stroke-miterlimit="10" d="M363.448,171.43l-1.216,2.581l2.652-0.81l-0.661,2.652
			l2.495-0.938l-0.652,2.408l2.367-0.896l-0.818,2.148l2.05-0.581C369.662,178,371.005,170.396,363.448,171.43z"/>
		<path fill="#FFFFFF" stroke="#303133" stroke-miterlimit="10" d="M361.731,177.6l1.11-0.957l1.088,1.857h0.516l0.998,3.281
			C365.443,181.781,362.335,183.254,361.731,177.6z"/>
		<path fill="#045F2D" stroke="#303133" stroke-miterlimit="10" d="M373.883,217.977c0,0,4.321,1.965,6.095-1.574
			c0,0,4.522,1.183,4.719-3.731c0,0,1.965-2.161,0.982-5.504c0,0,1.377-3.539-0.59-7.272c0,0,1.568-2.754,0-5.508
			c0,0,1.965-1.967-0.197-5.309c0,0,3.146-4.325-1.771-8.26c-4.914-3.933-2.751-5.504-10.812-5.698c0,0-10.028-14.745-9.831-5.312
			c0,0,0.983,2.164,3.343,4.325c2.36,2.162,4.915,3.537,4.129,6.685c-0.787,3.146-3.539,1.97-3.539,1.97s-4.13-3.735-5.108-6.291
			c0,0-2.162,0.59-0.982,4.128c1.179,3.539,9.159,9.83,12.738,11.01c3.579,1.184,6.725,18.284-3.302,16.518
			C369.754,208.146,365.822,214.438,373.883,217.977z"/>
		<path fill="#045F2D" stroke="#303133" stroke-miterlimit="10" d="M280.875,221.875c0,0-2.438-1.563-4.125-0.438
			c0,0-1.813-1.688-3.438-1.313c0,0-0.688-2.313-2.313-3.375c0,0,0.375-2.313-0.5-4.688c0,0,0.875-2.063,0-3.5l3.063,1.188
			c0,0-1.688-11.688-0.375-16.188c0,0-5.625,4.188-8.875,17.125l2.875-2.25c0,0-3,26,19.188,21.438
			C286.375,229.875,291.5,221.563,280.875,221.875z"/>
		<path fill="#045F2D" stroke="#303133" stroke-miterlimit="10" d="M316.75,212.917c-10.334,9.834-16,7.333-16,7.333
			c5.75-13.5-7.416-18.25-15.833-14s-4.833,16.583-4.833,16.583c0,4.333,3.75,6.167,3.75,6.167c1.75,4,7.833,2.417,7.833,2.417
			c3.25,2.25,7.246-0.319,7.246-0.319c3.421,1.846,7.171-0.015,7.171-0.015c4.5,0.25,6.75-2.916,6.75-2.916l5.829-14.834
			L316.75,212.917z M291.084,220.934c0,0-0.584,0.9-1.834,0.483c0,0-4.917-5.333,0-8S293.084,216.783,291.084,220.934z"/>
		<path fill="none" stroke="#303133" stroke-miterlimit="10" d="M290.784,221.232c0,0,7.274-1.732,9.966-0.982"/>
		<path fill="#045F2D" stroke="#303133" stroke-miterlimit="10" d="M369.759,203.723c-7.663-6.783-16.077,0-16.077,0
			c-6.046,5.455-0.295,8.994-0.147,14.799c0.148,5.807-4.719,2.309-6.341-3.888c-1.622-6.192-8.847-8.553-15.04-8.553
			c-6.188,0-16.81,1.327-20.349,12.438c-3.538,11.108,0.59,19.854,16.072,22.356c15.479,2.511,16.363-12.683,16.363-12.683
			c3.101,5.75,16.813,14.305,27.869,1.771C383.172,217.436,369.759,203.723,369.759,203.723z M321.288,227.512
			c-4.027-4.521,0.594-8.99,0.594-8.99c5.308-3.291,11.104,0.537,11.104,0.537C338.003,228.594,325.322,232.034,321.288,227.512z"/>
		<path fill="none" stroke="#303133" stroke-miterlimit="10" d="M352.079,221.475c0,0,6.551,2.276,9.648-1.558
			c3.102-3.834-4.457-13.246-9.178-5.623"/>
		<path fill="none" stroke="#303133" stroke-miterlimit="10" d="M344.24,228.199c0,0-1.933-7.758-11.254-9.143"/>
		<path fill="#DBBF95" stroke="#8C6E4B" stroke-miterlimit="10" d="M292.5,106.625c0,0,4.499-2.875,2.833-5.958
			s-4.417-1.417-5,1.083s-0.164,4.75-0.164,4.75L292.5,106.625z"/>
		<path fill="#DBBF95" stroke="#8C6E4B" stroke-miterlimit="10" d="M312.085,112.415c0,0,2.717,4.051,5.712,0.985
			c0,0-0.521-1.982,0.634-2.691c0,0-2.207-9.093-4.735-4.593L312.085,112.415z"/>
		
			<ellipse transform="matrix(0.9806 0.1958 -0.1958 0.9806 26.5763 -60.175)" fill="#DBBF95" stroke="#8C6E4B" stroke-miterlimit="10" cx="317.619" cy="104.32" rx="5.613" ry="7.248"/>
		<path fill="#995314" stroke="#6D3B18" stroke-miterlimit="10" d="M311.722,106.903c0,0,3.813-11.399,11.546-2.984
			c0,0,1.188,0.54,1.104-1.585c0,0,0.46-1.833-0.708-2.5c0,0-0.209-2.167-1.459-2.375c0,0-1.452-1.917-2.957-1.292
			c0,0-1.292-1.251-2.959-0.125c0,0-2.125-0.214-2.25,0.997c0,0-2.164-0.328-1.957,1.546c0,0-1.252-0.084-1.252,2.083
			c0,0-0.979,0.452-0.318,2.143c0,0-0.822,0.732,0,1.732C310.511,104.542,309.526,106.765,311.722,106.903z"/>
		<path fill="#DBBF95" d="M314.102,103.792c0,0-2.233-1.385-2.102,0.833c0.133,2.218,1.55,2,1.55,2L314.102,103.792z"/>
		
			<line fill="none" stroke="#89654A" stroke-width="0.5" stroke-miterlimit="10" x1="316.538" y1="103.592" x2="318.875" y2="104.509"/>
		<path fill="#DBBF95" stroke="#8C6E4B" stroke-width="0.5" stroke-miterlimit="10" d="M314.102,103.792
			c0,0-2.233-1.385-2.102,0.833c0.133,2.218,1.55,2,1.55,2"/>
		<path fill="#594A40" d="M316.663,104.771c0,0,0.337,0.729,1.375,0.438C318.038,105.208,317.751,104.354,316.663,104.771z"/>
		<path fill="#594A40" d="M319.663,105.771c0,0,0.337,0.729,1.375,0.438C321.038,106.208,320.751,105.354,319.663,105.771z"/>
		<polyline fill="none" stroke="#89654A" stroke-width="0.5" stroke-miterlimit="10" points="321.5,105.55 320,104.865 
			319.038,108.259 317.875,107.842 		"/>
		
			<line fill="none" stroke="#89654A" stroke-width="0.5" stroke-miterlimit="10" x1="317.128" y1="109.208" x2="318.579" y2="109.706"/>
		<path fill="none" stroke="#8C6E4B" stroke-width="0.5" stroke-miterlimit="10" d="M293.004,99.22c0,0-1.477,1.374-1.566,2.342"/>
		<path fill="none" stroke="#8C6E4B" stroke-width="0.5" stroke-miterlimit="10" d="M295.174,100.392c0,0-0.896,1.202-1.236,2.015"
			/>
		<path fill="none" stroke="#8C6E4B" stroke-width="0.5" stroke-miterlimit="10" d="M294.2,99.339c0,0-1.009,1.192-1.341,2.349"/>
		<path fill="none" stroke="#365587" stroke-width="0.5" stroke-miterlimit="10" d="M316.813,148.16c0,0,2.486,3.528,6.837,2.903"/>
		<path fill="none" stroke="#365587" stroke-width="0.5" stroke-miterlimit="10" d="M332.41,148.75c0,0-2.889-2.438-6.741-1.438"/>
		<path fill="none" stroke="#365587" stroke-width="0.5" stroke-miterlimit="10" d="M325.346,153.75c0,0,2.467,2.813,1.092,4.625"/>
		<path fill="none" stroke="#365587" stroke-width="0.5" stroke-miterlimit="10" d="M328.438,146.266c0,0-2.563-1.672-3.938,0"/>
		<path fill="none" stroke="#6D6761" stroke-miterlimit="10" d="M269.636,130.941c0,0,3.948-1.94,6.531-6.024"/>
		<path fill="none" stroke="#6D6761" stroke-miterlimit="10" d="M279.477,134.288c0,0,2.023-1.681,4.273-6.359"/>
		<path fill="none" stroke="#6D6761" stroke-miterlimit="10" d="M290.023,134.288c0,0,1.313-1.405,1.813-4.555"/>
		<path fill="none" stroke="#6D6761" stroke-width="0.5" stroke-miterlimit="10" d="M283.75,115.75c0,0-8.999-0.882-11.416,4.143
			s-13.083,13.906-7,11.048"/>
		<path fill="none" stroke="#6D6761" stroke-width="0.5" stroke-miterlimit="10" d="M277.334,126.263c0,0-2.875,3.283-5.084,4.845
			s-0.5,4.986,2.542,3.98"/>
		<path fill="none" stroke="#6D6761" stroke-width="0.5" stroke-miterlimit="10" d="M284.75,129.177c0,0-2.023,3.907-3.141,4.74
			c-1.11,0.833,1.141,4.25,4.141,1.833"/>
		<path fill="none" stroke="#6D6761" stroke-width="0.5" stroke-miterlimit="10" d="M293.004,130.767c0,0-0.088,2.476-1.171,3.521
			s0.431,4.253,3.341,0.982"/>
		<path fill="none" stroke="#6D6761" stroke-width="0.5" stroke-miterlimit="10" d="M271.248,127.167c0,0,2.667-1.438,3.043-3.678
			c0.376-2.24,2.626-0.594,2.709,0"/>
		<path fill="none" stroke="#6D6761" stroke-width="0.5" stroke-miterlimit="10" d="M295.768,171.332c0,0-5.045,8.168,1.844,11.168"
			/>
		<path fill="none" stroke="#6D6761" stroke-width="0.5" stroke-miterlimit="10" d="M298.992,172.834c0,0-3.492,3.705,0.633,7.123"
			/>
		<path fill="none" stroke="#6D6761" stroke-width="0.5" stroke-miterlimit="10" d="M259.949,187.625c0,0,1.801-7.029,4.926-8.327"
			/>
		<path fill="none" stroke="#6D6761" stroke-width="0.5" stroke-miterlimit="10" d="M260.494,187.273c0,0,1.381-2.99,5.506-5.319"/>
		<path fill="none" stroke="#6D6761" stroke-width="0.5" stroke-miterlimit="10" d="M352.125,118.124c0,0,1.75,0.251,2.125-1.436"/>
		<path fill="none" stroke="#6D6761" stroke-width="0.5" stroke-miterlimit="10" d="M353.188,118.875c0,0,1.188-0.125,1.688-1.25"/>
		<path fill="none" stroke="#6D6761" stroke-width="0.5" stroke-miterlimit="10" d="M365.991,155.411c0,0,0.897-8.442-0.552-10.223"
			/>
		<path fill="none" stroke="#6D6761" stroke-width="0.5" stroke-miterlimit="10" d="M367.24,155.303c0,0,1.258-6.771,0-9.781"/>
		<path fill="none" stroke="#6D6761" stroke-width="0.5" stroke-miterlimit="10" d="M368.655,154.216c0,0,0.53-4.56,0-7.951"/>
		<path fill="none" stroke="#6D6761" stroke-width="0.5" stroke-miterlimit="10" d="M319.251,186.75c0,0,1.471,0.658,2.749,0"/>
		<path fill="none" stroke="#6D6761" stroke-width="0.5" stroke-miterlimit="10" d="M318.663,188.052c0,0,0.837,0.718,2.337,0"/>
		<path fill="none" stroke="#6D6761" stroke-width="0.5" stroke-miterlimit="10" d="M317.717,189.614c0,0,1.827,0.614,2.514,0"/>
		<path fill="none" stroke="#6D6761" stroke-width="0.5" stroke-miterlimit="10" d="M315.869,191.182c0,0,3.425,0.686,4.357,0"/>
		<path fill="none" stroke="#6D6761" stroke-width="0.5" stroke-miterlimit="10" d="M313.536,192.189c0,0,4.679,0.688,6.192,0"/>
		<path fill="none" stroke="#6D6761" stroke-width="0.5" stroke-miterlimit="10" d="M312.835,193.563c0,0,4.328,1.271,5.828,0.354"
			/>
		<path fill="none" stroke="#6D6761" stroke-width="0.5" stroke-miterlimit="10" d="M348.938,103.592c0,0,0.15-1.989-0.521-3.675
			l-0.964,3.448"/>
		<path fill="none" stroke="#6D6761" stroke-width="0.5" stroke-miterlimit="10" d="M350.974,102.702c0,0,1.026-2.535,1.776-3.285
			l-0.337,3.948"/>
		<line fill="none" stroke="#6D6761" stroke-miterlimit="10" x1="342.645" y1="99.917" x2="343.688" y2="104.051"/>
		<line fill="none" stroke="#6D6761" stroke-miterlimit="10" x1="339.656" y1="101.755" x2="341.198" y2="105.277"/>
		<line fill="none" stroke="#6D6761" stroke-miterlimit="10" x1="336.693" y1="104.656" x2="338.401" y2="107.438"/>
		<line fill="none" stroke="#6D6761" stroke-miterlimit="10" x1="334.729" y1="107.438" x2="336.693" y2="109.706"/>
		<line fill="none" stroke="#6D6761" stroke-miterlimit="10" x1="333.197" y1="110.347" x2="335.386" y2="112.366"/>
		<line fill="none" stroke="#6D6761" stroke-miterlimit="10" x1="331.835" y1="113.801" x2="334.507" y2="115.358"/>
		<line fill="none" stroke="#6D6761" stroke-miterlimit="10" x1="331.031" y1="116.424" x2="333.972" y2="117.412"/>
		<line fill="none" stroke="#6D6761" stroke-miterlimit="10" x1="330.343" y1="118.875" x2="333.171" y2="120.056"/>
		<line fill="none" stroke="#6D6761" stroke-miterlimit="10" x1="326.771" y1="131.625" x2="329.779" y2="133.917"/>
		<line fill="none" stroke="#6D6761" stroke-miterlimit="10" x1="327.346" y1="129.715" x2="330.343" y2="131.494"/>
		<line fill="none" stroke="#6D6761" stroke-miterlimit="10" x1="327.919" y1="127.705" x2="331.031" y2="129"/>
		<line fill="none" stroke="#6D6761" stroke-miterlimit="10" x1="328.452" y1="125.757" x2="331.672" y2="126.583"/>
		<line fill="none" stroke="#6D6761" stroke-miterlimit="10" x1="329.037" y1="122.146" x2="332.503" y2="123.31"/>
		<path fill="none" stroke="#6D6761" stroke-miterlimit="10" d="M364.663,155.501c0,0-2.288,0.27-3.788-0.428"/>
		<path fill="none" stroke="#6D6761" stroke-width="0.5" stroke-miterlimit="10" d="M381.413,154.216c0,0,2.837-2.117,3.587,0"/>
		<path fill="none" stroke="#6D6761" stroke-width="0.5" stroke-miterlimit="10" d="M381,138.522c0,0,1.084-1.427,3.413-0.183"/>
		<path fill="none" stroke="#6D6761" stroke-width="0.5" stroke-miterlimit="10" d="M302.913,204c0,0-0.843,2.25,2.37,1.5"/>
		<path fill="none" stroke="#6D6761" stroke-width="0.5" stroke-miterlimit="10" d="M313.536,200.564c0,0-0.786,1.603,0.964,1.603"
			/>
		<path fill="none" stroke="#6D6761" stroke-width="0.5" stroke-miterlimit="10" d="M320.625,185.136c0,0,0.461-3.29-0.396-5.838"/>
		<path fill="none" stroke="#6D6761" stroke-width="0.5" stroke-miterlimit="10" d="M322,185.214c0,0,0.688-3.089,0-4.464"/>
		<path fill="none" stroke="#6D6761" stroke-width="0.5" stroke-miterlimit="10" d="M323.224,185.244c0,0,0.888-2.273,0.426-3.29"/>
		<path fill="none" stroke="#6D6761" stroke-width="0.5" stroke-miterlimit="10" d="M324.75,185.136c0,0,0.625-1.233,0-2.153"/>
		<path fill="none" stroke="#A33128" stroke-width="0.5" stroke-miterlimit="10" d="M304.068,126.263c0,0-1.688,11.951,0.828,15.633
			"/>
		<path fill="none" stroke="#A33128" stroke-width="0.5" stroke-miterlimit="10" d="M305.34,128.951c0,0-1.677,7.066,0.994,9.388"/>
		<path fill="none" stroke="#A33128" stroke-width="0.5" stroke-miterlimit="10" d="M321.5,115.69c0,0,0.897,2.148-6.22,1.935"/>
		<path fill="none" stroke="#A33128" stroke-width="0.5" stroke-miterlimit="10" d="M323.281,116.269c0,0,1.302,0.767-2.277,1.371"
			/>
		<path fill="none" stroke="#A33128" stroke-width="0.5" stroke-miterlimit="10" d="M309.684,113.665c0,0-0.081,2.619,2.76,3.29"/>
		<path fill="none" stroke="#A33128" stroke-width="0.5" stroke-miterlimit="10" d="M332.41,154.216c0,0,2.167,1.876,1.878,4.159"/>
		<path fill="none" stroke="#A33128" stroke-width="0.5" stroke-miterlimit="10" d="M290.928,115.31c0,0-0.438,2.274,2.4,2.103"/>
		
			<line fill="none" stroke="#6D3B18" stroke-width="0.5" stroke-miterlimit="10" x1="333.764" y1="172.834" x2="336.106" y2="171.938"/>
		
			<line fill="none" stroke="#6D3B18" stroke-width="0.5" stroke-miterlimit="10" x1="333.883" y1="174.334" x2="336.106" y2="173.938"/>
		
			<line fill="none" stroke="#6D3B18" stroke-width="0.5" stroke-miterlimit="10" x1="334.024" y1="176.123" x2="336.5" y2="175.639"/>
		
			<line fill="none" stroke="#6D3B18" stroke-width="0.5" stroke-miterlimit="10" x1="334.184" y1="178.13" x2="336.5" y2="177.438"/>
		
			<line fill="none" stroke="#6D3B18" stroke-width="0.5" stroke-miterlimit="10" x1="334.317" y1="179.823" x2="336.5" y2="179.298"/>
		<line fill="none" stroke="#6D3B18" stroke-width="0.5" stroke-miterlimit="10" x1="333.608" y1="170.871" x2="335.342" y2="170"/>
		
			<line fill="none" stroke="#997E65" stroke-width="0.5" stroke-miterlimit="10" x1="349.736" y1="174.334" x2="347.913" y2="171.332"/>
		
			<line fill="none" stroke="#997E65" stroke-width="0.5" stroke-miterlimit="10" x1="351.277" y1="172.833" x2="349.736" y2="170.436"/>
		
			<line fill="none" stroke="#997E65" stroke-width="0.5" stroke-miterlimit="10" x1="352.752" y1="170.871" x2="350.625" y2="168.834"/>
		
			<line fill="none" stroke="#9B862F" stroke-width="0.5" stroke-miterlimit="10" x1="300.375" y1="118.167" x2="299.5" y2="120.417"/>
		
			<line fill="none" stroke="#9B862F" stroke-width="0.5" stroke-miterlimit="10" x1="301.587" y1="118.25" x2="300.745" y2="120.57"/>
		
			<line fill="none" stroke="#9B862F" stroke-width="0.5" stroke-miterlimit="10" x1="303.156" y1="118.875" x2="302.549" y2="120.57"/>
		
			<line fill="none" stroke="#9B862F" stroke-width="0.5" stroke-miterlimit="10" x1="304.2" y1="119.292" x2="303.513" y2="120.908"/>
		
			<line fill="none" stroke="#9B862F" stroke-width="0.5" stroke-miterlimit="10" x1="322.783" y1="122.087" x2="324.464" y2="120.1"/>
		
			<line fill="none" stroke="#9B862F" stroke-width="0.5" stroke-miterlimit="10" x1="322.678" y1="123.697" x2="324.5" y2="121.563"/>
		
			<line fill="none" stroke="#9B862F" stroke-width="0.5" stroke-miterlimit="10" x1="323.369" y1="125.027" x2="324.75" y2="122.729"/>
		
			<line fill="none" stroke="#9B862F" stroke-width="0.5" stroke-miterlimit="10" x1="324.062" y1="125.738" x2="324.75" y2="123.878"/>
		
			<line fill="none" stroke="#9B862F" stroke-width="0.5" stroke-miterlimit="10" x1="325.669" y1="123.31" x2="325.346" y2="125.413"/>
		
			<line fill="none" stroke="#9B862F" stroke-width="0.5" stroke-miterlimit="10" x1="306.781" y1="124.93" x2="308.595" y2="123.697"/>
		
			<line fill="none" stroke="#9B862F" stroke-width="0.5" stroke-miterlimit="10" x1="307.09" y1="125.636" x2="309.125" y2="124.549"/>
		
			<line fill="none" stroke="#9B862F" stroke-width="0.5" stroke-miterlimit="10" x1="306.334" y1="123.863" x2="307.688" y2="122.729"/>
		
			<line fill="none" stroke="#9B862F" stroke-width="0.5" stroke-miterlimit="10" x1="309.271" y1="130.255" x2="311.192" y2="129.733"/>
		
			<line fill="none" stroke="#9B862F" stroke-width="0.5" stroke-miterlimit="10" x1="311.192" y1="131.188" x2="309.742" y2="131.625"/>
		
			<line fill="none" stroke="#9B862F" stroke-width="0.5" stroke-miterlimit="10" x1="311.438" y1="132.771" x2="309.99" y2="132.995"/>
		
			<line fill="none" stroke="#9B862F" stroke-width="0.5" stroke-miterlimit="10" x1="311.438" y1="133.735" x2="309.948" y2="134.08"/>
		
			<line fill="none" stroke="#9B862F" stroke-width="0.5" stroke-miterlimit="10" x1="310.715" y1="137.125" x2="308.841" y2="136.703"/>
		
			<line fill="none" stroke="#9B862F" stroke-width="0.5" stroke-miterlimit="10" x1="310.469" y1="138.522" x2="308.757" y2="138.012"/>
		
			<line fill="none" stroke="#9B862F" stroke-width="0.5" stroke-miterlimit="10" x1="310.231" y1="139.84" x2="308.595" y2="139.314"/>
		
			<line fill="none" stroke="#9B862F" stroke-width="0.5" stroke-miterlimit="10" x1="310.231" y1="143.25" x2="308.841" y2="143.134"/>
		
			<line fill="none" stroke="#9B862F" stroke-width="0.5" stroke-miterlimit="10" x1="310.693" y1="144.035" x2="309.125" y2="144.135"/>
		
			<line fill="none" stroke="#9B862F" stroke-width="0.5" stroke-miterlimit="10" x1="311.192" y1="145.391" x2="309.684" y2="145.369"/>
		<path fill="none" stroke="#6D6761" stroke-width="0.5" stroke-miterlimit="10" d="M348.198,139.314c0,0,6.177,3.561,6.485,9.436"
			/>
		<path fill="none" stroke="#6D6761" stroke-width="0.5" stroke-miterlimit="10" d="M356,145.522c0,0,4.305,2.478,3.965,7.103"/>
		<line fill="none" stroke="#6D6761" stroke-miterlimit="10" x1="389.227" y1="166.654" x2="396.618" y2="170.436"/>
		<line fill="none" stroke="#6D6761" stroke-miterlimit="10" x1="396" y1="155.5" x2="404" y2="155.5"/>
		<path fill="#FFFFFF" stroke="#303133" stroke-miterlimit="10" d="M374.5,179.298c0,0,0.25,2.202,2.875,1.827
			C377.375,181.125,376.25,179.096,374.5,179.298z"/>
	</g>
	<g>
		<polygon points="75,0 43.5,0 69.5,75 75,75 80.5,75 106.5,0 		"/>
		<polygon points="0,75 0,106.5 75,80.5 75,75 75,69.5 0,43.5 		"/>
		<polygon points="75,150 106.5,150 80.5,75 75,75 69.5,75 43.5,150 		"/>
		<polygon points="150,75 150,43.5 75,69.5 75,75 75,80.5 150,106.5 		"/>
		<circle cx="75" cy="75" r="23.5"/>
	</g>
</g>
</svg>
