<?xml version="1.0" encoding="utf-8"?>
<!-- Generator: Adobe Illustrator 16.0.0, SVG Export Plug-In . SVG Version: 6.00 Build 0)  -->
<!DOCTYPE svg PUBLIC "-//W3C//DTD SVG 1.1//EN" "http://www.w3.org/Graphics/SVG/1.1/DTD/svg11.dtd">
<svg version="1.1" id="Layer_1" xmlns="http://www.w3.org/2000/svg" xmlns:xlink="http://www.w3.org/1999/xlink" x="0px" y="0px"
	 width="800px" height="533px" viewBox="0 0 800 533" enable-background="new 0 0 800 533" xml:space="preserve">
<g>
	<g>
		<rect x="0.063" y="-0.375" fill="#D8B764" width="799.875" height="533.375"/>
		<rect x="0.063" y="177.75" fill="#F16147" width="799.875" height="355.25"/>
		<rect x="0.063" y="355.875" fill="#7FAFB1" width="799.875" height="177.125"/>
	</g>
	<g>
		<path fill="#E8E8E6" d="M526,160.021l-21.777-45.5h-5.563c-31.07,6.915-64.225,10.668-98.661,10.668
			c-34.435,0-67.588-3.753-98.66-10.668h-5.563L274,160.021c19.703,26,15.037,66,10.371,123c-4.668,57,29.036,91.5,50.814,98
			c21.777,6.5,64.814,32.5,64.814,32.5s43.038-26,64.815-32.5s55.482-41,50.814-98C510.963,226.021,506.297,186.021,526,160.021z"/>
		<path fill="#F16147" d="M400,341.521v-35H284.645c1.449,13.336,5.064,25.041,9.938,35H400z"/>
		<path fill="#D8B764" d="M400,246.521H287.28c-0.775,11.303-1.84,23.452-2.908,36.5c-1.034,12.625-0.18,24.143,2.006,34.5H400
			V246.521z"/>
		<path fill="#E8E8E6" d="M295.778,114.521L274,160.021c16.367,21.597,15.916,52.865,12.62,95.5H400V125.189
			c-34.437,0-67.588-3.753-98.66-10.668H295.778z"/>
		<path fill="#7FAFB1" d="M504.223,114.521l21.777,45.5c-16.367,21.597-15.916,52.865-12.619,95.5H400V125.189
			c34.438,0,67.59-3.753,98.661-10.668H504.223z"/>
		<path fill="#F16147" d="M341.541,121.509l-57.807,57.807c2.731,8.716,4.092,18.494,4.539,29.401l84.336-84.334
			C362.1,123.769,351.735,122.805,341.541,121.509z"/>
		<path fill="#F16147" d="M400,127.051L287.737,239.313c-0.301,5.211-0.684,10.608-1.116,16.208h18.851L400,160.992V127.051z"/>
		<polygon fill="#F16147" points="400,255.521 400,200.293 391.091,200.158 335.987,255.521 		"/>
		<path fill="#7FAFB1" d="M301.34,114.521h-5.563l-3.98,8.317L400,255.521V125.189C365.563,125.189,332.411,121.436,301.34,114.521z
			"/>
		<g>
			<path fill="#B6C0C2" stroke="#51504C" stroke-width="0.5" stroke-miterlimit="10" d="M328.043,148.594
				c0,0-2.402-0.292-2.846,0.68c-0.444,0.972,2.123,0.105,2.744,0.775C328.563,150.718,328.707,148.979,328.043,148.594z"/>
			<path fill="#B6C0C2" stroke="#51504C" stroke-width="0.5" stroke-miterlimit="10" d="M342.326,130.539
				c0,0-2.402-0.292-2.846,0.679c-0.443,0.972,2.123,0.104,2.744,0.775C342.848,132.663,342.99,130.925,342.326,130.539z"/>
			<path fill="#B6C0C2" stroke="#51504C" stroke-width="0.5" stroke-miterlimit="10" d="M332.668,157.698c0,0-1.99,1.375-2.836,0.72
				c-0.844-0.655,1.832-1.079,2.072-1.961C332.145,155.576,333.078,157.048,332.668,157.698z"/>
			<path fill="#B6C0C2" stroke="#51504C" stroke-width="0.5" stroke-miterlimit="10" d="M352.817,185.159
				c0,0-1.992,1.374-2.836,0.719c-0.844-0.655,1.832-1.079,2.07-1.961C352.292,183.036,353.227,184.508,352.817,185.159z"/>
			<path fill="#B6C0C2" stroke="#51504C" stroke-width="0.5" stroke-miterlimit="10" d="M393.573,235.099
				c0,0,1.785,1.636,2.711,1.104c0.926-0.531-1.665-1.321-1.781-2.228C394.387,233.068,393.258,234.399,393.573,235.099z"/>
			<path fill="#B6C0C2" stroke="#51504C" stroke-width="0.5" stroke-miterlimit="10" d="M340.932,136.96
				c0,0-2.416,0.128-2.793-0.871s2.125,0.039,2.791-0.586S341.621,136.621,340.932,136.96z"/>
			<path fill="#B6C0C2" stroke="#51504C" stroke-width="0.5" stroke-miterlimit="10" d="M333.373,146.245
				c0,0-1.141-2.135-2.189-1.939c-1.051,0.194,1.133,1.798,0.94,2.691C331.934,147.892,333.44,147.011,333.373,146.245z"/>
			<path fill="#B6C0C2" stroke="#51504C" stroke-width="0.5" stroke-miterlimit="10" d="M345.662,128.052
				c0,0-1.141-2.135-2.191-1.939c-1.05,0.194,1.135,1.798,0.941,2.692C344.223,129.698,345.729,128.818,345.662,128.052z"/>
			<path fill="#B6C0C2" stroke="#51504C" stroke-width="0.5" stroke-miterlimit="10" d="M336.194,150.299
				c0,0,0.998-2.205,0.203-2.917c-0.795-0.715-0.736,1.994-1.562,2.386C334.01,150.161,335.626,150.819,336.194,150.299z"/>
			<path fill="#B6C0C2" stroke="#51504C" stroke-width="0.5" stroke-miterlimit="10" d="M346.749,177.462
				c0,0-1.698-0.214-2.017,0.538c-0.316,0.75,1.502,0.072,1.938,0.584C347.108,179.098,347.217,177.757,346.749,177.462z"/>
			<path fill="#B6C0C2" stroke="#51504C" stroke-width="0.5" stroke-miterlimit="10" d="M350.086,174.666
				c0,0-0.725-1.55-1.529-1.418c-0.805,0.131,0.739,1.308,0.539,1.951C348.895,175.842,350.086,175.219,350.086,174.666z"/>
			<path fill="#B6C0C2" stroke="#51504C" stroke-width="0.5" stroke-miterlimit="10" d="M354.899,177.662
				c0,0,1.229-1.188,0.845-1.907c-0.386-0.719-0.997,1.124-1.671,1.143S354.375,177.841,354.899,177.662z"/>
			<path fill="#B6C0C2" stroke="#51504C" stroke-width="0.5" stroke-miterlimit="10" d="M393.223,220.782
				c0,0,1.709,0.023,1.92,0.811c0.213,0.787-1.496-0.136-1.998,0.312C392.641,222.352,392.717,221.01,393.223,220.782z"/>
			<path fill="#B6C0C2" stroke="#51504C" stroke-width="0.5" stroke-miterlimit="10" d="M395.569,227.816
				c0,0,1.479,0.86,2.063,0.293c0.586-0.566-1.354-0.653-1.555-1.295C395.877,226.17,395.254,227.361,395.569,227.816z"/>
			<path fill="#B6C0C2" stroke="#51504C" stroke-width="0.5" stroke-miterlimit="10" d="M387.901,228.091
				c0,0-1.555,0.709-1.433,1.516c0.123,0.807,1.315-0.728,1.957-0.521S388.455,228.096,387.901,228.091z"/>
			<path fill="#B6C0C2" stroke="#51504C" stroke-width="0.5" stroke-miterlimit="10" d="M350.686,129.252
				c0,0,0.998-2.205,0.203-2.918c-0.795-0.715-0.736,1.994-1.562,2.386C348.501,129.113,350.117,129.771,350.686,129.252z"/>
			<path fill="#D8B764" stroke="#51504C" stroke-width="0.5" stroke-miterlimit="10" d="M349.383,147.417c0,0-1.168-3.94-0.92-4.8
				c0.248-0.86,1.277-3.545,0.391-5.862c-0.888-2.317,1.201-1.733,1.453-2.656s1.789-3.196,0.828-4.704
				c-0.961-1.507-2.744-0.19-2.77,0.184c-0.026,0.374-1.523-2.424-2.605-2.186c-1.08,0.238-1.923,2.435-1.347,3.164
				c0.575,0.729-1.729-0.68-2.485,0.456c-0.758,1.136-0.471,2.409,0.652,2.487c1.122,0.078-0.514,1.844-1.288,1.79
				s-1.632,1.328-0.147,2.12c1.485,0.792,1.379,2.922,0.117,3.207c-1.263,0.285-3.143,2.096-1.722,2.383s-1.897,1.811-0.687,2.083
				s-1.217,3.674-0.066,4.255s1.646,6.066,3.158,6.86c1.511,0.795,6.348,3.323,6.348,3.323l4.271-3.776L349.383,147.417z"/>
			<path fill="#D8B764" stroke="#51504C" stroke-width="0.5" stroke-miterlimit="10" d="M379.131,188.224
				c0,0-5.927-0.662-6.947-1.609c-1.021-0.948-5.422-2.506-6.295-2.567s1.5-1.775,0.182-2.619c-1.319-0.844-1.235,1.543-2.092,1.233
				c-0.855-0.31-1.566-4.494-4.424-3.063c-2.854,1.431,1.027,1.45,1.127,1.833c0.098,0.383,1.254,3.595,2.334,4.297
				c1.078,0.701-3.719-0.133-4.754-1.708c-1.033-1.576-4.99-2.351-4.512-3.822c0.479-1.47,2.105-3.989,0.217-3.493
				s-2.809,1.119-2.711-0.283c0.098-1.402-2.07-2.68-2.621-1.966s1.663,3.123,0.523,3.294c-1.141,0.171-3.912-1.399-3.41,0.39
				s3.082,0.725,3.24,2.047c0.16,1.322-0.551,2.525,0.877,3.627c1.428,1.101,2.854,2.203,3.451,2.62
				c0.599,0.417,1.883,5.393,3.762,5.398s1.393,3.229,4.248,2.801c2.854-0.428,3.834,3.524,6.049,2.299s7.227,2.381,8.764,0.106
				c1.535-2.274,4.367-6.964,4.367-6.964L379.131,188.224z"/>
			<path fill="#D8B764" stroke="#51504C" stroke-width="0.5" stroke-miterlimit="10" d="M361.807,161.586
				c0,0-0.557,6.227,2.539,8.571c3.096,2.345,19.514,13.132,20.524,20.219c0,0,2.263-0.094,1.812-2.631
				c-0.451-2.537-3.683-6.521-5.227-7.755c-1.543-1.235-8.564-5.982-8.199-8.838c0.365-2.857-4.229-1.672-3.139-4.729
				s0.88-5.453-0.75-5.44c-1.631,0.012-0.145-1.524,2.869,0.194c3.013,1.718,1.154-2.421,3.244-3.529
				c2.088-1.108,3.518-3.64,2.873-5.188c-0.646-1.548-3.371-0.165-2.918-1.296c0.455-1.13,2.287-2.256,3.787-0.398
				s1.897,5.144,2.629,5.445c0.732,0.301-1.683,4.394-3.516,5.52c-1.832,1.125,2.967,0.582,3.836-1.112
				c0.87-1.694,1.118,1.957,0.077,2.511c-1.041,0.554-0.165,2.369-0.688,2.709c-0.525,0.339-1.322,2.798-3.662,4.01
				s-1.114,3.427,0.154,5.019c1.268,1.591,2.256,1.785,3.365,0.233c1.109-1.552,1.393,1.6,1.956,2.517
				c0.563,0.916,10.401,10.37,3.069,15.124c0,0,2.125,3.906,0.438,6.546s1.658,5.002,2.88,5.462c1.221,0.46,0.502,1.789-0.189,2.744
				c-0.693,0.954,0.416,3.036,1.387,3.479c0.973,0.443,4.381,3.687,3.378,5.497c-1.003,1.81,0.208,4.525-0.263,5.746
				c-0.471,1.221,2.551,2.808,2.777,4.954c0.228,2.146-2.377-0.04-2.979,1.422c-0.603,1.461,2.815,4.581,1.106,5.715
				c-1.707,1.135-5.66,2.113-5.408-1.503c0.25-3.616-2.713-2.443-1.941-4.52c0.77-2.077,1.951-8.26-0.895-10.587
				c-2.846-2.327-4.844,1.168-6.375,1.563c-1.529,0.395-4.398,0.196-3.911-1.399c0.485-1.595-1.952-0.762-1.351-2.224
				c0.603-1.462-2.359-3.922-1.24-5.599c1.119-1.677-3.979,1.979-3.283-0.228s3.375-2.898,2.67-3.574
				c-0.704-0.675-5.585-0.763-4.35-2.307c1.233-1.543,4.295,1.301,5.436-2.504c1.143-3.805-0.822-6.197,0.902-7.581
				c1.724-1.384,3.947-2.733,3.176-6.044c-0.773-3.312-7.424-6.78-11.418-8.812c-3.994-2.032-15.404-7.333-16.396-9.282
				c-0.992-1.949-2.154,0.352-4.855-0.462c-2.698-0.813-5.493-0.256-4.358-2.182c1.138-1.926-2.579-1.056-1.778-2.504
				c0.801-1.448,2.403-1.086,1.991-2.368c-0.411-1.282-3.86,1.486-3.646-1.631s-5.702-0.896-6.02-3.55
				c-0.316-2.653-5.971-6.053-5.209-8.005c0.762-1.952,3.285-0.398,3.857,0.393c0.57,0.792-0.236-2.008,1.07-2.801
				c1.309-0.793,2.268-0.157,2.389,1.697c0.123,1.854,2.273-0.252,2.01,1.734c-0.263,1.986,2.982,5.177,5.417,5.012
				s5.038,3.231,7.374,0.261L361.807,161.586z"/>
			<path fill="#F16147" stroke="#51504C" stroke-width="0.5" stroke-miterlimit="10" d="M361.218,145.09
				c0,0-1.841-3.407-2.925-4.108s-4.086-2.602-3.811-5.652c0.272-3.051,4.303-3.335,5.871-2.475c1.569,0.86-5.232-0.426-3.694,4.505
				c1.536,4.931,5.478,3.231,7.224,2.443l1.471,3.172l-0.598,2.214L361.218,145.09z"/>
			<path fill="#B6C0C2" stroke="#51504C" stroke-width="0.5" stroke-miterlimit="10" d="M360.035,140.163
				c0,0-0.771,1.168-0.291,1.483s0.988-1.138,0.988-1.138S360.406,140.016,360.035,140.163z"/>
			<path fill="#B6C0C2" stroke="#51504C" stroke-width="0.5" stroke-miterlimit="10" d="M360.1,143.681c0,0,0.834-1.125,0.371-1.465
				c-0.463-0.342-1.047,1.082-1.047,1.082S359.723,143.808,360.1,143.681z"/>
			<path fill="#B6C0C2" stroke="#51504C" stroke-width="0.5" stroke-miterlimit="10" d="M357.563,142.322
				c0,0,0.125-1.393-0.445-1.443c-0.573-0.051-0.33,1.47-0.33,1.47S357.307,142.627,357.563,142.322z"/>
			<path fill="#D8B764" stroke="#51504C" stroke-width="0.5" stroke-miterlimit="10" d="M369.762,136.034l4.605,4.663l0.882,1.732
				c0,0-1.31,4.42-2.411,5.847c-1.102,1.427-1.431,2.574-0.373,2.981c1.057,0.407-0.994,1.1-1.785,0.46
				c-0.793-0.639-1.975,1.952-1.367,2.829s-0.498,3.557-1.756,3.637c-1.259,0.08-0.177-2.268-1.57-1.445
				c-1.395,0.822-2.522,2.666-1.834,3.548c0.691,0.883,1.339,3.601,0.349,4.618c-0.987,1.017-0.521-1.122-0.812-1.643
				c-0.291-0.521-2.071-0.144-2.594,0.154c-0.521,0.298-1.133,0.674-2.641,0.736s-2.852-1.033-4.604-1.071
				c-1.752-0.039-2.617-2.02-2.863-3.29s-0.396-1.531-1.975-1.641c-1.58-0.109-3.453-1.994-3.336-2.487
				c0.118-0.493-2.31,0.76-1.783-0.792c0.525-1.551-1.543-0.608-2.074-1.397c-0.529-0.789,0.734-0.951,0.798-1.866
				s-2.423-0.001-1.979-1.558c0.441-1.556,1.986-0.949,2.442-1.501c0.456-0.552,4.619-2.77,6.198-2.661
				c1.58,0.11-0.229-1.518,1.242-2.252c1.472-0.734,1.078,1.328,2.088,1.229c1.009-0.097,2.791,0.694,3.787-0.406
				c0.994-1.1-1.006-1.155-0.022-2.089c0.983-0.935,2.854-0.219,3.313,0.397c0.459,0.616,1.543,3.031,3.272,0.979
				c1.729-2.052-0.153-2.601-1.329-2.515c-1.175,0.086-3.843-1.186-2.386-2.922c1.456-1.736,3.229-2.031,5.476-1.875
				C366.966,136.591,367.956,135.575,369.762,136.034z"/>
			<path fill="#D8B764" stroke="#51504C" stroke-width="0.5" stroke-miterlimit="10" d="M368.194,135.968
				c0,0,3.801,5.721,6.89,6.997l5.158-1.463c0,0-0.122-0.948-1.373-0.972c-1.251-0.024-0.897-1.503-1.81-1.003
				s-1.627,1.767-2.377,0.838c-0.75-0.929-0.541-1.226,0.104-1.496c0.646-0.27,0.98,0.317,1.479-0.525
				c0.496-0.843-0.625-0.92-0.287-1.273c0.336-0.353,0.474-1.408-0.926-1.129c-1.396,0.279-1.313-0.939-2.052-0.222
				c-0.739,0.717,0.411,1.298-0.679,1.661c-1.09,0.363-1.26-1.705-1.049-2.041c0.211-0.335,1.541-0.557,1.606-1.492
				c0.063-0.935-0.826-0.747-0.924-1.129c-0.101-0.382-0.088-1.447-0.957-1.57L368.194,135.968z"/>
			<path fill="#B6C0C2" d="M366.256,138.478c0,0-0.885,0.293-0.637,0.968c0.248,0.673,0.438,1.243,1.808,1.4
				c1.368,0.155,1.275-0.083,1.308-0.596c0.031-0.513,0.352-1.334-0.885-1.642C366.612,138.301,366.544,138.335,366.256,138.478z"/>
			<path fill="#51504C" d="M366.563,138.375c-0.154,0.096-0.291,0.227-0.369,0.409c-0.2,0.462-0.004,0.989,0.437,1.179
				s0.959-0.029,1.158-0.49c0.137-0.316,0.077-0.657-0.108-0.906C367.037,138.412,366.744,138.359,366.563,138.375z"/>
			<path fill="none" stroke="#51504C" stroke-width="0.5" stroke-miterlimit="10" d="M366.256,138.478c0,0-0.885,0.293-0.637,0.968
				c0.248,0.673,0.438,1.243,1.808,1.4c1.368,0.155,1.275-0.083,1.308-0.596c0.031-0.513,0.352-1.334-0.885-1.642
				C366.612,138.301,366.544,138.335,366.256,138.478z"/>
			<path fill="none" stroke="#51504C" stroke-width="0.5" stroke-miterlimit="10" d="M368.932,134.701c0,0,1.432,4.553,7.576,7.859"
				/>
			<path fill="none" stroke="#51504C" stroke-width="0.5" stroke-miterlimit="10" d="M370.956,142.9c0,0,1.126-0.582,1.792,0.642
				c0.668,1.224-0.869,2.913-2.051,3.082"/>
			<path fill="none" stroke="#51504C" stroke-width="0.5" stroke-miterlimit="10" d="M371.483,143.719c0,0,0.863,0.806-0.328,1.726"
				/>
			<path fill="none" stroke="#51504C" stroke-width="0.5" stroke-miterlimit="10" d="M367.391,147.564c0,0-0.459,1.875-1.191,2.959
				c-0.733,1.084-1.592,4.117-0.348,4.996"/>
			<path fill="none" stroke="#51504C" stroke-width="0.5" stroke-miterlimit="10" d="M362.178,150.836c0,0-2.146,0.227-2.599,1.323
				c-0.453,1.096-2.183,3.565-3.835,3.702c-1.651,0.136,1.063-1.847,0.66-3.17c-0.404-1.323-0.981-2.03-1.736-1.979
				c-0.756,0.051-2.334,0.527-4.365,0.302c-2.031-0.225,1.629-0.598,1.932-1.955"/>
			<path fill="none" stroke="#51504C" stroke-width="0.5" stroke-miterlimit="10" d="M349.977,145.479c0,0-0.018,1.46,1.063,1.535
				c1.081,0.075,3.416-0.473,4.155-0.296"/>
			<path fill="none" stroke="#51504C" stroke-width="0.5" stroke-miterlimit="10" d="M347.912,148.76c0,0-1.43,1.321-3.25,1.696"/>
			<path fill="none" stroke="#51504C" stroke-width="0.5" stroke-miterlimit="10" d="M354.494,150.733c0,0-4.73,3.252-4.619,5.849"
				/>
			<path fill="none" stroke="#51504C" stroke-width="0.5" stroke-miterlimit="10" d="M361.331,155.205c0,0-2.235,3.729-5.875,4.813"
				/>
			<path fill="none" stroke="#51504C" stroke-width="0.5" stroke-miterlimit="10" d="M357.625,146.01c0,0,1.997,0.723,2.578,0.179
				c0.58-0.544,0.609,2.046,2.186,1.613c1.574-0.433,3.139,0.217,4.063-0.929"/>
			<path fill="none" stroke="#51504C" stroke-width="0.5" stroke-miterlimit="10" d="M351.243,165.448c0,0-3.009,1.545-5.37,1.256"
				/>
			<path fill="none" stroke="#51504C" stroke-width="0.5" stroke-miterlimit="10" d="M348.21,162.522c0,0-4.851,0.082-4.946,2.08"/>
			<path fill="none" stroke="#51504C" stroke-width="0.5" stroke-miterlimit="10" d="M378.559,189.314c0,0-1.545,6.906-3.934,10.751
				"/>
			<path fill="none" stroke="#51504C" stroke-width="0.5" stroke-miterlimit="10" d="M375.272,190.755c0,0-6.062-0.42-8.371-2.627"
				/>
			<path fill="none" stroke="#51504C" stroke-width="0.5" stroke-miterlimit="10" d="M368.834,192.146c0,0-4.066-0.992-5.484-2.218
				c-1.418-1.226-3.317,0.27-3.822-1.477"/>
			<path fill="none" stroke="#51504C" stroke-width="0.5" stroke-miterlimit="10" d="M374.774,194.359c0,0-2.836,1.092-4.082,0.755
				c-1.246-0.337-1.697-1.663-2.701-1.022"/>
			<path fill="none" stroke="#51504C" stroke-width="0.5" stroke-miterlimit="10" d="M380.463,199.719c0,0-1.355,3.289-3.438,4.398"
				/>
			<path fill="none" stroke="#51504C" stroke-width="0.5" stroke-miterlimit="10" d="M378.36,207.467c0,0-1.928,3.5-1.402,4.915
				s1.363-1.66,2.078-1.109c0.713,0.551-1.748,3.512,0.355,3.909c2.103,0.396,2.426-2.463,3.539-2.26"/>
			<path fill="none" stroke="#51504C" stroke-width="0.5" stroke-miterlimit="10" d="M386.196,207.384c0,0-0.521,2.094,1.147,3.337
				c1.669,1.244,4.982,2.226,2.312,2.792"/>
			<path fill="none" stroke="#51504C" stroke-width="0.5" stroke-miterlimit="10" d="M377.264,158.481c0,0-2.229,3.146-2.174,4.528
				c0.055,1.382-1.561,4.052-0.33,4.751"/>
			<path fill="none" stroke="#51504C" stroke-width="0.5" stroke-miterlimit="10" d="M379.852,163.387c0,0-1.633,2.319-3.113,2.668
				c-1.481,0.349,2.863,0.926,0.791,1.897"/>
			<path fill="none" stroke="#51504C" stroke-width="0.5" stroke-miterlimit="10" d="M346.086,146.822c0,0-0.947-3.233-0.582-4.905
				c0.367-1.672,0.995-3.355,0.76-4.544"/>
			<path fill="none" stroke="#51504C" stroke-width="0.5" stroke-miterlimit="10" d="M342.787,143.151c0,0-1.451,1.063-0.633,1.891
				c0.82,0.829-1.289,1.998-0.477,2.18"/>
			<path fill="none" stroke="#51504C" stroke-width="0.5" stroke-miterlimit="10" d="M342.323,157.541c0,0-3.277,0.337-1.125,1.113
				c2.152,0.775,1.357,2.445,3.431,2.291"/>
			<path fill="none" stroke="#51504C" stroke-width="0.5" stroke-miterlimit="10" d="M334.438,152.426c0,0-1.158,2.839,0.744,3.576"
				/>
		</g>
		<path fill="#F16147" d="M400,413.521v-46h-86.511c7.395,6.967,15.093,11.529,21.697,13.5C356.963,387.521,400,413.521,400,413.521
			z"/>
		<path fill="#51504C" d="M376.875,285.355c2.461,0.332,4.461,4.166,8.307,4.166s8.155-0.332,7.309-2.666
			c-0.848-2.334-12.539,0.166-14.23-4.334s5.076-0.668,10.459-0.5c5.385,0.166,4.922-2.334,3.076-4.5s-10.921,0.5-10.305-2.666
			c0.615-3.168,11.229-3,9.383-6.5c-1.846-3.5-11.689,3.666-12.307,2.332c-0.615-1.332,11.383-6.5,9.998-9
			c-1.383-2.5-15.229,5.167-18.15,3.167s-4.307,2.167-2.613,3.5c1.691,1.332,1.571,7.832-3.215,7.832
			c-4.785,0-3.246,4.666-6.322,3.834c-3.076-0.834-7.383-2.5-5.998-5.5c1.383-3,5.422,0.5,6.498-0.334
			c1.077-0.832-3.152-3.957-1.615-4.957c1.539-1,1.775-0.139,3.313,0.529c1.538,0.666,0.69-1.738,0.229-2.072
			c-0.34-0.244-0.814-0.582-0.926-1.207c5.313,3.339,6.442,1.832,6.442,1.832c-2.696-0.061-4.597-1.95-5.478-3.022
			c1.33,0.039,3.932,1.112,4.146,1.731c0.29,0.834,0.121-3.833-1.879-5v-0.309l3.414-2.444c0,0-0.943-0.372-1.768,0
			c-0.821,0.373-0.699,1.011-1.386,1.011c-0.684,0-1.514-1.328-2.403-1.595c-0.891-0.267-0.928,1.382-1.889,1.382
			c-0.96,0-1.971-0.001-2.382-0.691c-0.41-0.69-1.019-0.425-1.635-0.425c-0.617,0,2.478,2.096,2.478,2.096l0.137,0.872
			c-1.24,0.466-2.391,1.319-3.41,2.645c-2.307,3-2.567,4.958-4.413,4.125c-1.847-0.834-0.979,2.832-3.749,2.832
			c-2.615,0-2-3.666-3.846-2.834c-1.847,0.834-2.153-1.125-4.461-4.125c-1.021-1.325-2.191-2.179-3.433-2.645l0.125-0.872
			c0,0,3.09-2.096,2.474-2.096c-0.617,0-1.224-0.266-1.636,0.425c-0.409,0.69-1.418,0.691-2.377,0.691
			c-0.961,0-0.985-1.648-1.877-1.382c-0.89,0.267-1.694,1.595-2.379,1.595c-0.687,0-0.515-0.638-1.336-1.011
			c-0.824-0.372-1.765,0-1.765,0l3.518,2.445v0.309c-3,1.166-2.271,5.833-1.98,5c0.217-0.619,2.666-1.692,3.996-1.731
			c-0.879,1.072-2.754,2.963-5.451,3.022c0,0,1.141,1.508,6.453-1.832c-0.109,0.625-0.58,0.962-0.92,1.207
			c-0.461,0.334-1.305,2.738,0.234,2.072c1.537-0.668,1.775-1.529,3.313-0.529c1.539,1-2.688,4.125-1.612,4.957
			c1.077,0.834,5.114-2.666,6.5,0.334c1.384,3-2.923,4.666-5.999,5.5c-3.077,0.832-1.538-3.834-6.323-3.834s-4.903-6.5-3.213-7.832
			c1.69-1.334,0.308-5.5-2.615-3.5c-2.922,2-16.766-5.667-18.149-3.167c-1.385,2.5,10.613,7.667,9.998,9
			c-0.615,1.334-10.461-5.833-12.307-2.332c-1.846,3.5,8.768,3.332,9.385,6.5c0.614,3.166-8.461,0.5-10.308,2.666
			s-2.308,4.666,3.076,4.5c5.385-0.168,12.151-4,10.46,0.5s-13.383,2-14.229,4.334c-0.848,2.334,3.461,2.666,7.305,2.666
			c3.848,0,5.846-3.834,8.308-4.166c2.462-0.334,0.769,3-3.077,6c-3.845,3-10.767,0.5-12.238,3.5c-1.473,3,2.701,2.666,8.395,2
			c5.691-0.666,11.997-9.834,15.843-11c3.847-1.166-5.383,8.832-10.768,13.332c-5.384,4.5-11.997,0.168-13.074,2.334
			s-0.461,4.666,8.406,3.5c8.868-1.168,17.743-14.166,19.741-15c2-0.834-1.075,4,0.925,4.666c1.999,0.668,2.922-2.166,5.229-2.832
			c2.307-0.666,3.383,4,0.922,4.166s-4.922,1.166-6.307,2.5c-1.385,1.332-2.461-1.166-4.613,0.834c-2.154,2,2.152,1.5,0.461,4.5
			c-1.693,3-4.127,4.338-6.588,3.672c-2.462-0.666-4.795-0.299-6.795,1.869c-2,2.166,1.479,2.463,1.939,1.297
			c0.46-1.166,3.443-1.506,2.213,0.328c-1.23,1.832,0.154,5,1.076,2.834c0.924-2.166,1.578-2.168,2.963-2.834
			c1.384-0.668,2.146,4.168,3.376,2.336c1.231-1.834-0.185-2.002-0.185-3.17c0-1.166,4.922-5,6.151-5.332
			c1.229-0.334,2.153,3,4,1.666s-1.077-3.834,0-3.834c1.076,0,1.537-2.5,4.769-4c3.23-1.5,2.77,3.168,2,4.668
			c-0.771,1.5-1.076,2,0.614,2.832c1.692,0.834,2.153,1.668-0.846,3c-12.536,2.334-6.537,7.168-6.537,5.668s3.383-1.168,3.845-1.334
			c0.463-0.168,4-2.834,4.77-1.834c0.769,1,4.461,1.834,4.461,1.834s3.598-0.834,4.367-1.834c0.768-1,4.211,1.666,4.674,1.834
			c0.461,0.166,3.846-0.166,3.846,1.334s5.998-3.334-6.538-5.668c-2.999-1.332-2.538-2.166-0.846-3
			c1.692-0.832,1.385-1.332,0.614-2.832c-0.769-1.5-1.229-6.168,2-4.668s3.69,4,4.77,4c1.076,0-1.848,2.5,0,3.834
			c1.846,1.334,2.768-2,3.999-1.666c1.229,0.332,6.151,4.166,6.151,5.332c0,1.168-1.414,1.336-0.184,3.17
			c1.229,1.832,1.991-3.004,3.377-2.336c1.383,0.666,2.037,0.668,2.961,2.834c0.922,2.166,2.307-1.002,1.075-2.834
			c-1.231-1.834,1.752-1.494,2.214-0.328c0.463,1.166,3.938,0.869,1.939-1.297c-1.999-2.168-4.333-2.535-6.794-1.869
			c-2.462,0.666-4.896-0.672-6.589-3.672c-1.691-3,2.615-2.5,0.462-4.5s-3.23,0.498-4.614-0.834c-1.385-1.334-3.848-2.334-6.309-2.5
			s-1.383-4.832,0.925-4.166c2.307,0.666,3.229,3.5,5.229,2.832c2-0.666-1.076-5.5,0.922-4.666c2,0.834,10.875,13.832,19.742,15
			c8.868,1.166,9.484-1.334,8.406-3.5c-1.076-2.166-7.689,2.166-13.074-2.334c-5.383-4.5-14.611-14.498-10.768-13.332
			c3.846,1.166,10.152,10.334,15.844,11s9.866,1,8.395-2c-1.473-3-8.395-0.5-12.239-3.5S374.414,285.021,376.875,285.355z"/>
		<path fill="#D8B764" stroke="#897452" stroke-miterlimit="10" d="M343.5,384.193c3,1.166,6,2.502,9,3.945v-19.117h-9V384.193z"/>
		<path fill="#D8B764" stroke="#897452" stroke-miterlimit="10" d="M348,318.383c0,0-11.5,9.766-8.5,29.625l1.667,26.014H348h6.977
			l1.596-26.014C359.571,328.148,348,318.383,348,318.383z"/>
		<path fill="#D8B764" stroke="#897452" stroke-miterlimit="10" d="M339,375.021h5c0,0-1.666-26.084-5.833-33.25
			s-18-9.041-21.833-3.541c-3.834,5.5-6.5,20.229,6,27.729c0,0-4.167-11.541-2-16.875c2.166-5.332,7.833-4.363,11.5,0.137
			C335.5,353.721,339.333,370.021,339,375.021z"/>
		<path fill="#D8B764" stroke="#897452" stroke-miterlimit="10" d="M357.143,375.021h-5c0,0,1.666-26.084,5.834-33.25
			c4.166-7.166,18-9.041,21.832-3.541c3.834,5.5,6.5,20.229-6,27.729c0,0,4.168-11.541,2-16.875
			c-2.166-5.332-7.832-4.363-11.5,0.137C360.643,353.721,356.811,370.021,357.143,375.021z"/>
		<polygon fill="#897452" points="348,334.521 345.899,376.521 348,376.521 350,376.521 		"/>
		<path fill="#D8B764" stroke="#897452" stroke-miterlimit="10" d="M358.5,377.186c0,1.566-1.27,2.836-2.834,2.836h-15.332
			c-1.564,0-2.834-1.27-2.834-2.836v-2.33c0-1.564,1.27-2.834,2.834-2.834h15.332c1.564,0,2.834,1.27,2.834,2.834V377.186z"/>
		<path fill="#D8B764" d="M498.66,114.521c-31.07,6.915-64.225,10.668-98.661,10.668v66.332h113.399
			c2.023-12.197,5.902-22.66,12.602-31.5l-21.777-45.5H498.66z"/>
		<path fill="#E8E8E6" stroke="#9B9B9B" stroke-miterlimit="10" d="M490.069,192.615c0.08-0.347,0.133-0.704,0.133-1.076
			c0-0.347-0.041-0.684-0.113-1.01c2.436-2.414,4.547-8.457,1.113-11.341c-4.166-3.5-5.166-0.083-6.5,2.583s-6.166,3.25-6.166,3.25
			H457.5V158.95c0,0,0.518-5.671,3.184-7.237c2.668-1.565,5.867-2.738,2.367-7.628c-2.893-4.042-8.754-1.538-11.271,1.33
			c-0.346-0.094-0.672-0.156-1.043-0.156c-0.348,0-0.67,0.049-0.994,0.133c-2.414-2.858-8.449-5.336-11.334-1.307
			c-3.5,4.891-0.453,6.063,2.213,7.628c2.666,1.566,2.879,7.237,2.879,7.237v26.071H423c0,0-4.832-0.583-6.166-3.25
			s-2.332-5.958-6.5-2.458c-3.434,2.884-1.322,8.864,1.113,11.278c-0.07,0.326-0.113,0.632-0.113,0.979
			c0,0.372,0.053,0.713,0.133,1.06c-2.443,2.517-4.576,8.369-1.133,11.261c4.168,3.5,5.166,0.609,6.5-2.057s6.166-2.813,6.166-2.813
			h20.5v25.108c0,0-0.209,5.671-2.875,7.237c-2.666,1.566-5.771,2.738-2.271,7.629c2.885,4.029,8.959,1.552,11.373-1.307
			c0.326,0.084,0.678,0.133,1.025,0.133c0.371,0,0.736-0.062,1.084-0.156c2.516,2.868,8.381,5.371,11.271,1.33
			c3.5-4.892,0.242-6.063-2.426-7.629c-2.666-1.565-3.182-7.237-3.182-7.237v-25.108h21.035c0,0,4.832,0.143,6.166,2.81
			s2.332,5.678,6.5,2.178C494.645,201.117,492.512,195.131,490.069,192.615z"/>
		<path fill="#7FAFB1" d="M400,413.521c0,0,43.038-26,64.815-32.5s55.482-41,50.814-98c-0.791-9.652-1.578-18.809-2.25-27.5H400
			V413.521z"/>
		<g>
			<path fill="#D8B764" stroke="#51504C" stroke-width="0.5" stroke-miterlimit="10" d="M428.867,330.854
				c0,0-3.395,8.539-3.395,10.398c0,1.861,1.203,1.533,0,3.285c-1.205,1.752-1.861,6.678-1.533,8.758s-0.875,3.393-1.203,3.939
				s-1.424,5.035-3.723,5.693c-2.299,0.656-6.021,0.328-5.912-0.658c0.109-0.982,3.504-2.846,4.16-4.707
				c0.656-1.859,1.314-1.641,2.408-2.955c1.096-1.313,0.766-10.619,1.313-13.137c0.551-2.518-0.436-11.604,2.191-17.188l6.459,1.533
				L428.867,330.854z"/>
			<path fill="#D8B764" stroke="#51504C" stroke-width="0.5" stroke-miterlimit="10" d="M429.828,278.965
				c0,0,6.061-8.082,17.748-6.275c11.688,1.805,18.803,8.1,26.215,6.426c7.412-1.672,5.842-0.242,5.449,0.4
				c-0.393,0.645-4.068,1.646-9.494,2.504c-5.428,0.857-9.84-1.678-13.953-2.547c-4.111-0.869-15.592-4.344-19.451,1.865
				C436.342,281.338,431.108,282.639,429.828,278.965z"/>
			<path fill="#D8B764" stroke="#51504C" stroke-width="0.5" stroke-miterlimit="10" d="M430.838,281.482
				c0,0,8.1-6.678,20.359-2.957c12.262,3.723,18.721,10.947,27.041,10.619c8.318-0.328,6.35,0.768,5.803,1.314
				c-0.549,0.547-4.707,0.875-10.73,0.766c-6.02-0.109-10.289-3.285-14.559-4.816c-4.271-1.531-15.982-6.814-21.348-1.547
				C437.405,284.861,431.508,285.207,430.838,281.482z"/>
			<path fill="#D8B764" stroke="#51504C" stroke-width="0.5" stroke-miterlimit="10" d="M466.379,331.838c0,0-1.533,5.182,0,8.686
				s0.875,6.422,0,7.883c-0.875,1.459-1.168,5.838-4.232,7.662s-1.605,5.107-3.211,5.107s-3.939,2.117-6.859,2.117
				c-2.922,0-2.992-2.627-2.189-3.502c0.803-0.877,5.473-1.898,7.297-4.453s3.869-5.473,3.941-7.771
				c0.072-2.301-0.512-4.195-0.512-6.094s-9.27-10-8.686-12.699c0.586-2.701,4.891-3.355,4.891-3.355L466.379,331.838z"/>
			<path fill="#D8B764" d="M436.02,282.723c0,0,4.672,0.146,6.715-0.729s3.648-0.291,3.648,2.188c0,2.482-5.984,3.504-5.984,6.422
				c0,2.92-1.168,5.84,0.805,7.445c1.969,1.604,2.262,4.086,1.094,5.107s-1.605,2.629,1.459,3.797
				c3.064,1.166,12.699,3.063,17.225,2.334s12.846-2.773,16.348-0.584c3.504,2.189,3.211,3.211,7.15,3.648
				c3.941,0.438,8.904-0.438,10.219,1.168c1.314,1.607-4.232,1.021-4.379,2.336c-0.146,1.313,1.021,2.918-1.752,3.357
				c-2.771,0.438-5.838-0.148-5.982,1.02c-0.146,1.17,0.875,9.928-4.234,13.283c-5.107,3.357,0.146,1.461,1.605,3.066
				c1.459,1.604,1.459,4.086,1.168,4.67c-0.293,0.584,0.438,1.168-1.168,2.627c-1.605,1.461-1.021,2.92-1.021,5.547
				s-0.729,7.152-1.752,7.736c-1.02,0.584-1.895,4.523-3.502,5.107c-1.605,0.584-1.605,1.021-3.795,1.459
				c-2.189,0.439-3.795-0.291-2.92-1.604c0.875-1.314,3.648-1.605,4.523-3.648c0.877-2.045,0-3.648,1.459-3.941
				c1.461-0.291,2.338-5.547,1.898-8.758c-0.438-3.211-7.736-5.547-8.027-9.195c-0.293-3.648-4.088-4.232-7.152-4.672
				c-3.064-0.438-18.977,0.293-22.332-2.043c-3.357-2.336,0.439,3.213-1.313,4.816c-1.752,1.605-3.357,5.547-3.064,7.883
				c0.291,2.334-3.213,7.734-1.314,10.217c1.898,2.48,1.35,4.67-0.564,5.254c-1.916,0.586-0.895,4.232-2.5,4.816
				s-6.131,2.336-6.275-0.145c-0.146-2.482,1.898-4.234,3.502-4.672c1.605-0.439-1.166-3.795-0.438-5.254
				c0.729-1.461,2.189-7.008,2.627-10.363c0.438-3.357-0.146-7.006,0.146-9.635c0.293-2.627-5.854-0.438-5.846-5.547
				c0.008-5.107-2.184-0.293-3.934,0.73c-1.752,1.02-1.17-2.447-1.461-5.164c-0.291-2.719-4.232-3.887-1.896-6.66
				c2.336-2.771,3.795-5.398,3.795-7.588s-1.313-6.131,0.877-7.883c2.188-1.752,2.771-3.65,2.043-5.547
				c-0.73-1.896-2.627-2.627-4.379-2.043s-5.256-1.023-5.256-1.898s-2.043-2.771-1.75-3.939c0.291-1.168,10.947-5.547,13.281-7.445
				c2.336-1.896,5.838-1.75,7.59-0.729C432.953,280.096,433.698,282.748,436.02,282.723z"/>
			<path fill="#B6C0C2" d="M427.006,284.322c0,0,1.459,0.955,2.227,0.955s0.109,1.424-1.111,1.787
				c-1.225,0.365-4.145-0.225-4.473-1.371S424.744,282.928,427.006,284.322z"/>
			<path fill="#51504C" d="M424.672,283.904c-0.207,0.248-0.338,0.563-0.338,0.908c0,0.783,0.635,1.418,1.418,1.418
				c0.781,0,1.416-0.635,1.416-1.418c0-0.152-0.029-0.297-0.076-0.436c-0.051-0.033-0.086-0.057-0.086-0.057
				C426.057,283.736,425.258,283.688,424.672,283.904z"/>
			<path fill="none" stroke="#51504C" stroke-width="0.5" stroke-miterlimit="10" d="M427.006,284.322c0,0,1.459,0.955,2.227,0.955
				s0.109,1.424-1.111,1.787c-1.225,0.365-4.145-0.225-4.473-1.371S424.744,282.928,427.006,284.322z"/>
			<path fill="none" stroke="#51504C" stroke-width="0.5" stroke-miterlimit="10" d="M420.301,293.389c0,0,3.137,1.945,4.762,1.383"
				/>
			<path fill="none" stroke="#51504C" stroke-width="0.5" stroke-miterlimit="10" d="M437.938,285.479c0,0,0.875,0.895,2.439,0
				c1.563-0.895,2.438-1.871,3.438-1.695"/>
			<path fill="none" stroke="#51504C" stroke-width="0.5" stroke-miterlimit="10" d="M421.188,284.322c0,0-2.688,1.055-4.563,1.908"
				/>
			<path fill="none" stroke="#51504C" stroke-width="0.5" stroke-miterlimit="10" d="M422.063,304.021c0,0-2.375,5.5,0,4.188"/>
			<path fill="none" stroke="#51504C" stroke-width="0.5" stroke-miterlimit="10" d="M421.188,315.834c0,0,0.25,1.625-0.438,2.875
				s-0.18,2.625,0.785,1.688c0.965-0.936,1.965,1.314,3.527-1.375c1.563-2.688,2.125-0.625,3.75-5.125"/>
			<path fill="none" stroke="#51504C" stroke-width="0.5" stroke-miterlimit="10" d="M428,307.459c0,0-0.359,4.438,1.633,2.125
				s2.242,0.625,3.742-2.125s2.813-0.188,3.375-4.25"/>
			<path fill="none" stroke="#51504C" stroke-width="0.5" stroke-miterlimit="10" d="M436.75,317.301c0,0-1.5,8.033-3.063,5.783
				s-1.576,5.188-2.852,1.75"/>
			<path fill="none" stroke="#51504C" stroke-width="0.5" stroke-miterlimit="10" d="M427.168,301.084c0,0,0.77,3.25,1.645,2.125
				s1.611-0.813,2.025-3"/>
			<path fill="none" stroke="#51504C" stroke-width="0.5" stroke-miterlimit="10" d="M440.875,309.834c0,0,0.188,3.75-0.625,5.625"
				/>
			<path fill="none" stroke="#51504C" stroke-width="0.5" stroke-miterlimit="10" d="M436.125,289.521c0,0-0.125,1.813-2.063,3.25"
				/>
			<path fill="#51504C" d="M410.33,287.248c-0.125,0.498,0.18,1.127,0.564,1.756c0.895-0.959,0.82-2.031,0.609-2.738
				C410.821,286.682,410.385,287.023,410.33,287.248z"/>
			<path fill="none" stroke="#51504C" stroke-width="0.5" stroke-miterlimit="10" d="M436.02,282.723c0,0,4.672,0.146,6.715-0.729
				s3.648-0.291,3.648,2.188c0,2.482-5.984,3.504-5.984,6.422c0,2.92-1.168,5.84,0.805,7.445c1.969,1.604,2.262,4.086,1.094,5.107
				s-1.605,2.629,1.459,3.797c3.064,1.166,12.699,3.063,17.225,2.334s12.846-2.773,16.348-0.584c3.504,2.189,3.211,3.211,7.15,3.648
				c3.941,0.438,8.904-0.438,10.219,1.168c1.314,1.607-4.232,1.021-4.379,2.336c-0.146,1.313,1.021,2.918-1.752,3.357
				c-2.771,0.438-5.838-0.148-5.982,1.02c-0.146,1.17,0.875,9.928-4.234,13.283c-5.107,3.357,0.146,1.461,1.605,3.066
				c1.459,1.604,1.459,4.086,1.168,4.67c-0.293,0.584,0.438,1.168-1.168,2.627c-1.605,1.461-1.021,2.92-1.021,5.547
				s-0.729,7.152-1.752,7.736c-1.02,0.584-1.895,4.523-3.502,5.107c-1.605,0.584-1.605,1.021-3.795,1.459
				c-2.189,0.439-3.795-0.291-2.92-1.604c0.875-1.314,3.648-1.605,4.523-3.648c0.877-2.045,0-3.648,1.459-3.941
				c1.461-0.291,2.338-5.547,1.898-8.758c-0.438-3.211-7.736-5.547-8.027-9.195c-0.293-3.648-4.088-4.232-7.152-4.672
				c-3.064-0.438-18.977,0.293-22.332-2.043c-3.357-2.336,0.439,3.213-1.313,4.816c-1.752,1.605-3.357,5.547-3.064,7.883
				c0.291,2.334-3.213,7.734-1.314,10.217c1.898,2.48,1.35,4.67-0.564,5.254c-1.916,0.586-0.895,4.232-2.5,4.816
				s-6.131,2.336-6.275-0.145c-0.146-2.482,1.898-4.234,3.502-4.672c1.605-0.439-1.166-3.795-0.438-5.254
				c0.729-1.461,2.189-7.008,2.627-10.363c0.438-3.357-0.146-7.006,0.146-9.635c0.293-2.627-5.854-0.438-5.846-5.547
				c0.008-5.107-2.184-0.293-3.934,0.73c-1.752,1.02-1.17-2.447-1.461-5.164c-0.291-2.719-4.232-3.887-1.896-6.66
				c2.336-2.771,3.795-5.398,3.795-7.588s-1.313-6.131,0.877-7.883c2.188-1.752,2.771-3.65,2.043-5.547
				c-0.73-1.896-2.627-2.627-4.379-2.043s-5.256-1.023-5.256-1.898s-2.043-2.771-1.75-3.939c0.291-1.168,10.947-5.547,13.281-7.445
				c2.336-1.896,5.838-1.75,7.59-0.729C432.953,280.096,433.698,282.748,436.02,282.723z"/>
			<path fill="none" stroke="#51504C" stroke-width="0.5" stroke-miterlimit="10" d="M412.08,291.188c0,0,3.232-0.666,5.42-0.041"/>
			<path fill="none" stroke="#51504C" stroke-width="0.5" stroke-miterlimit="10" d="M469.25,360.561c0,0,2.689,1.529,5.346,0.963"
				/>
			<path fill="none" stroke="#51504C" stroke-width="0.5" stroke-miterlimit="10" d="M467.922,363.793c0,0-0.086-1.814,1.578-2.143"
				/>
			<path fill="none" stroke="#51504C" stroke-width="0.5" stroke-miterlimit="10" d="M449.512,360.561c0,0,5.381,1.043,8.029,0.971"
				/>
			<path fill="none" stroke="#51504C" stroke-width="0.5" stroke-miterlimit="10" d="M451.039,363.156c0,0,0.086-1.502,1.023-1.506"
				/>
			<path fill="none" stroke="#51504C" stroke-width="0.5" stroke-miterlimit="10" d="M423.129,359.941c0,0,3.949,1.359,6.504,0"/>
			<path fill="none" stroke="#51504C" stroke-width="0.5" stroke-miterlimit="10" d="M424.188,363.994c0,0-0.465-1.389,0.438-2.459"
				/>
			<path fill="none" stroke="#51504C" stroke-width="0.5" stroke-miterlimit="10" d="M415.766,359.537c0,0,2.803,0.951,5.895,0.404"
				/>
			<path fill="none" stroke="#51504C" stroke-width="0.5" stroke-miterlimit="10" d="M415.438,363.156c0,0-0.563-1.457,1.25-2.107"
				/>
			<path fill="none" stroke="#51504C" stroke-width="0.5" stroke-miterlimit="10" d="M462.168,336.188c0,0,2,1.834,1.334,4.834"/>
			<path fill="none" stroke="#51504C" stroke-width="0.5" stroke-miterlimit="10" d="M479.649,312.646c0,0,1.352,1.207,1.686,3.875"
				/>
			<path fill="none" stroke="#51504C" stroke-width="0.5" stroke-miterlimit="10" d="M482.502,313.896c0,0,1.166,2.018,1,3.404"/>
			<path fill="none" stroke="#51504C" stroke-width="0.5" stroke-miterlimit="10" d="M485.834,314.584c0,0,3.666,0.258,2,1.016"/>
			<path fill="none" stroke="#51504C" stroke-width="0.5" stroke-miterlimit="10" d="M452.063,314.584c0,0,5.186,0.973,5.479,6.123"
				/>
			<path fill="none" stroke="#51504C" stroke-width="0.5" stroke-miterlimit="10" d="M460.334,315.598c0,0,2.137,1.881,2.568,5.568"
				/>
			<path fill="none" stroke="#51504C" stroke-width="0.5" stroke-miterlimit="10" d="M476.168,337.855c0,0,4.297,0.998,3.48,3.166"
				/>
			<path fill="none" stroke="#51504C" stroke-width="0.5" stroke-miterlimit="10" d="M433.793,329.855c0,0-0.068,4.666-1.432,4.832
				c-1.361,0.168-0.688-3.166-1.523-1.832"/>
			<path fill="none" stroke="#51504C" stroke-width="0.5" stroke-miterlimit="10" d="M425.752,332.275c0,0-1.418,3.58-1.418,3.912"
				/>
			<path fill="none" stroke="#51504C" stroke-width="0.5" stroke-miterlimit="10" d="M438.668,325.756c0,0,1.619,5.1,2.227-2.9"/>
			<path fill="none" stroke="#51504C" stroke-width="0.5" stroke-miterlimit="10" d="M429.633,352.854c0,0,2.541,2.666,1.205,3.5"/>
			<path fill="none" stroke="#51504C" stroke-width="0.5" stroke-miterlimit="10" d="M460.334,354.604c0,0-2.258,2.584-1.961,3.25"
				/>
			<path fill="none" stroke="#51504C" stroke-width="0.5" stroke-miterlimit="10" d="M473.002,356.354c0,0-0.668,3.865,0,3.184"/>
			<path fill="none" stroke="#51504C" stroke-width="0.5" stroke-miterlimit="10" d="M421.535,355.521c0,0-3.225,1.666-2.629,2.332"
				/>
			<path fill="none" stroke="#51504C" stroke-width="0.5" stroke-miterlimit="10" d="M437.299,278.332c0,0,0.514,1.127,0.639,2.314"
				/>
			<path fill="none" stroke="#51504C" stroke-width="0.5" stroke-miterlimit="10" d="M443.25,277.311c0,0,0.25,1.648,0,2.461"/>
			<path fill="none" stroke="#51504C" stroke-width="0.5" stroke-miterlimit="10" d="M449.813,278.209c0,0,0,1.25-1.063,2.438"/>
			<path fill="none" stroke="#51504C" stroke-width="0.5" stroke-miterlimit="10" d="M456.112,280.301c0,0-0.236,1.441-0.736,1.893"
				/>
			<path fill="none" stroke="#51504C" stroke-width="0.5" stroke-miterlimit="10" d="M461.842,283.023c0,0-0.342,1.094-0.842,1.795"
				/>
			<path fill="none" stroke="#51504C" stroke-width="0.5" stroke-miterlimit="10" d="M467.867,286.225c0,0,0.008,0.922-0.617,1.484"
				/>
			<path fill="none" stroke="#51504C" stroke-width="0.5" stroke-miterlimit="10" d="M474.844,288.869c0,0,0.094,0.84-0.281,1.465"
				/>
			<path fill="none" stroke="#51504C" stroke-width="0.5" stroke-miterlimit="10" d="M435.094,274.709c0,0,0.656,1.063,0.656,1.75"
				/>
			<path fill="none" stroke="#51504C" stroke-width="0.5" stroke-miterlimit="10" d="M441.873,272.564c0,0,0.877,1.52,0.877,2.52"/>
			<path fill="none" stroke="#51504C" stroke-width="0.5" stroke-miterlimit="10" d="M449.281,272.99c0,0,0.469,0.969,0,2.594"/>
			<path fill="none" stroke="#51504C" stroke-width="0.5" stroke-miterlimit="10" d="M456.391,274.977c0,0,0.271,1.174-0.277,2.422"
				/>
			<path fill="none" stroke="#51504C" stroke-width="0.5" stroke-miterlimit="10" d="M462.795,277.398c0,0,0.143,1.248-0.232,2.029"
				/>
			<path fill="none" stroke="#51504C" stroke-width="0.5" stroke-miterlimit="10" d="M469.803,279.316c0,0,0.551,0.955,0,1.643"/>
			<path fill="none" stroke="#51504C" stroke-width="0.5" stroke-miterlimit="10" d="M474.563,278.945c0,0,0.209,0.621,0.293,1.191"
				/>
		</g>
		<path fill="none" stroke="#51504C" stroke-miterlimit="10" d="M526,160.271l-21.777-45.25h-5.563
			c-31.07,6-64.225,10.668-98.661,10.668c-34.435,0-67.588-4.668-98.66-10.668h-5.563L274,160.271
			c19.703,26,15.037,65.875,10.371,122.875c-4.668,57,29.036,91.438,50.814,97.938c21.776,6.5,64.814,32.469,64.814,32.469
			s43.038-26.016,64.813-32.516c21.779-6.5,55.482-40.883,50.814-97.883C510.963,226.154,506.297,186.271,526,160.271z"/>
		<line fill="none" stroke="#51504C" stroke-miterlimit="10" x1="399.5" y1="413.521" x2="399.5" y2="125.521"/>
		<line fill="none" stroke="#51504C" stroke-miterlimit="10" x1="399.592" y1="255.021" x2="291.797" y2="122.838"/>
		<line fill="none" stroke="#51504C" stroke-miterlimit="10" x1="286" y1="317.021" x2="400" y2="317.021"/>
		<line fill="none" stroke="#51504C" stroke-miterlimit="10" x1="287" y1="255.021" x2="513" y2="255.021"/>
	</g>
</g>
</svg>
