<?xml version="1.0" encoding="UTF-8" standalone="no"?>
<svg
   xmlns:dc="http://purl.org/dc/elements/1.1/"
   xmlns:cc="http://creativecommons.org/ns#"
   xmlns:rdf="http://www.w3.org/1999/02/22-rdf-syntax-ns#"
   xmlns:svg="http://www.w3.org/2000/svg"
   xmlns="http://www.w3.org/2000/svg"
   xmlns:sodipodi="http://sodipodi.sourceforge.net/DTD/sodipodi-0.dtd"
   xmlns:inkscape="http://www.inkscape.org/namespaces/inkscape"
   version="1.0"
   width="652"
   height="434"
   viewBox="0 0 6520 4340"
   preserveAspectRatio="xMidYMid meet"
   id="svg8"
   sodipodi:docname="6cf82c56-3f34-40db-c0e8-b0b4023f1af5.svg"
   inkscape:version="0.92.4 (5da689c313, 2019-01-14)">
  <metadata
     id="metadata14">
    <rdf:RDF>
      <cc:Work
         rdf:about="">
        <dc:format>image/svg+xml</dc:format>
        <dc:type
           rdf:resource="http://purl.org/dc/dcmitype/StillImage" />
        <dc:title></dc:title>
      </cc:Work>
    </rdf:RDF>
  </metadata>
  <defs
     id="defs12" />
  <sodipodi:namedview
     pagecolor="#ffffff"
     bordercolor="#666666"
     borderopacity="1"
     objecttolerance="10"
     gridtolerance="10"
     guidetolerance="10"
     inkscape:pageopacity="0"
     inkscape:pageshadow="2"
     inkscape:window-width="1920"
     inkscape:window-height="1001"
     id="namedview10"
     showgrid="false"
     inkscape:zoom="2.0797546"
     inkscape:cx="201.33972"
     inkscape:cy="202.93694"
     inkscape:window-x="-9"
     inkscape:window-y="-9"
     inkscape:window-maximized="1"
     inkscape:current-layer="svg8"
     fit-margin-top="0"
     fit-margin-left="0"
     fit-margin-right="0"
     fit-margin-bottom="0" />
  <rect
     style="opacity:1;fill:#ffffff;fill-opacity:1;stroke:none;stroke-width:0;stroke-miterlimit:4;stroke-dasharray:none;stroke-opacity:1"
     id="rect821"
     width="6520"
     height="4340"
     x="0"
     y="0" />
  <g
     id="layer101"
     style="display:inline;fill:#003199;stroke:none">
    <path
       d="M 0,2170 V 0 H 3260 6520 V 2170 4340 H 3260 0 Z m 3500,1050 c 181.231,-31.188 361.8595,-106.2745 505,-215 l 30,-25 c -489.8736,9.4657 -1064.1746,-180.1947 -1259,-495 -146.4542,-193.7567 -209.4258,-426.993 -188,-663 9,-94 19,-136 49,-212 77.638,-203.6447 242.5172,-385.5325 414,-503 113,-74 210,-122 342,-168 59.4284,-20.40975 84.2415,-33.34284 84.2415,-33.34284 C 3421.7069,888.47245 3348.5528,889.89957 3295,889 c -259,-2 -469,60 -696,207 -141.9867,96.143 -238.0784,209.3438 -327,338 -259.1043,443.5305 -236.991,940.7805 54,1339 272.3918,378.7087 836.8257,530.4237 1174,447 z"
       id="path2"
       inkscape:connector-curvature="0"
       sodipodi:nodetypes="ccccccccccccccccccccccc" />
  </g>
</svg>
