<?xml version="1.0" encoding="utf-8"?>
<!-- Generator: Adobe Illustrator 14.0.0, SVG Export Plug-In . SVG Version: 6.00 Build 43363)  -->
<!DOCTYPE svg PUBLIC "-//W3C//DTD SVG 1.1//EN" "http://www.w3.org/Graphics/SVG/1.1/DTD/svg11.dtd">
<svg version="1.1" id="Ebene_1" xmlns="http://www.w3.org/2000/svg" xmlns:xlink="http://www.w3.org/1999/xlink" x="0px" y="0px"
	 width="477.912px" height="494.262px" viewBox="0 0 477.912 494.262" enable-background="new 0 0 477.912 494.262"
	 xml:space="preserve">
<g id="Schild" xmlns:svg="http://www.w3.org/2000/svg">
	<g id="Ebene_1_1_">
	</g>
	<g id="Background">
	</g>
	<g id="Guides">
	</g>
</g>
<g>
	<path fill="#FF0000" d="M441.553,317.906C424.36,416.361,339.023,490.91,235.905,490.91c-103.117,0-188.89-74.55-206.084-173.004
		L3.679,3.352h470.552L441.553,317.906z"/>
	<path fill="none" stroke="#1A171B" stroke-width="6.7036" stroke-miterlimit="3.8637" d="M441.553,317.906
		C424.36,416.361,339.023,490.91,235.905,490.91c-103.117,0-188.89-74.55-206.084-173.004L3.679,3.352h470.552L441.553,317.906z"/>
	<g>
		<path fill="#FFFFFF" stroke="#1A171B" stroke-width="3.0989" stroke-miterlimit="3.8637" d="M221.015,247.042h29.407v243.373
			c-4.796,0.328-9.637,0.495-14.518,0.495c-5.006,0-9.971-0.176-14.89-0.521V247.042z"/>
		<path fill="#FFFFFF" d="M309.382,97.317l-2.15,2.224C306.198,98.427,308.406,96.461,309.382,97.317z M304.164,91.889
			c0.995,0.934,4.247,4.369,5.331,5.539l-2.15,2.223C306.279,98.716,304.164,91.889,304.164,91.889z M133.347,148.928
			c1.581,0,4.095-0.779,5.619-3.255c0,0,2.719-4.718,2.614-4.613c-0.138,2.121-0.493,8.996-0.493,11.15
			c0,47.867,34.283,87.745,79.8,96.379c4.383-1.569,8.82-2.723,15.119-2.729c4.669-0.255,10.536,0.689,14.694,2.762
			c5.994-0.508,13.767-14.945-11.339-15.946c-33.172-1.322-63.626-21.04-75.596-52.727c-1.816-7.33,3.942-9.646,8.758-12.985
			c6.592-4.57,0.318-6.93-5.014-4.518l3.373-2.711c5.775-4.208-0.509-17.552-9.241-3.953l-2.668,4.154
			c-0.095-2.631-0.231-5.271-0.231-7.906c0-44.57,36.249-80.686,80.945-80.686c0.175,0,4.656,0.178,6.546,0.587
			c8.942,1.938,22.985,11.782,21.779,26.498c3.159-0.68,6.157-5.775,4.263-9.552l-2.329-4.643l4.485,2.604
			c22.712,13.182,34.902,49.364,25.417,73.144c-21.902,54.907-84.598,28.415-74.781,8.421c6.522-13.286,20.002,1.602,31.059-8.853
			c2.784-19.685-17.714-25.055-34.426-11.986l-6.096,4.713c9.194-12.114,27.394-35.646,4.4-44.449l0.629-1.41
			c4.279-9.596-3.429-20.64-11.816-9.134c-4.267,5.852-6.424,10.331-13.797,13.542c5.832,3.288,15.009,3.251,20.918,0.08
			c25.269,30.138-44.993,16.181-16.647,69.604l2.389,4.502l-4.483-2.406c-4.452-2.39-13.752,3.854-8.185,12.871
			c5.748-8.977,10.56-9.036,14.086-5.583c32.163,26.967,83.604,29.902,105.085-7.775c4.646,1.839,6.396,3.57,6.412,8.539
			c0.017,4.882-0.755,8.552,2.807,12.857c-0.557-5.823,1.264-11.16,6.507-16.384c11.515-11.473,5.916-19.745-7.38-18.339
			c4.831-20.89,6.071-39.038-3.349-58.348c-1.996-4.092-4.165-7.726-6.156-11.186l2.357-1.942
			c7.393,6.484,14.341,5.845,19.118-2.236l-0.41,0.049c-3.811,0.339-4.588-2.674-4.718-5.731
			c-0.283-6.735-12.574-14.109-12.574-14.109c29.157,6.004,32.004-16.551,23.72-24.163c-2.333,11.704-15.738,6.23-23.209,5.029
			c-6.548-1.053-20.572,1.445-20.572,1.445c9.188-8.94,2.464-17.202-2.109-18.012c-1.24,14.567-20.078,16.824-35.886,15.397
			c-4.44-0.575-8.744-0.875-13.216-0.875c-43.51,0-80.422,28.13-93.432,67.13l-1.481,5.666c0.148-1.774,0.941-13.524-2.24-17.462
			c-4.12-5.099-10.619-0.466-13.307,5.709l-2.227,5.986c1.045-28.831-9.736-35.021-20.697-28.366
			c17.322,12.528-7.718,50.815,8.832,51.243c4.146,0.107,10.996-6.725,13.744-9.463l-1.121,5.141
			C126.471,144.853,130.36,148.928,133.347,148.928z"/>
		<path fill="#FFFFFF" stroke="#1A171B" stroke-width="3.0989" stroke-miterlimit="3.8637" d="M250.248,353.136
			c7.521-5.17,6.354-12.149-0.129-16.544c-5.897-4.265-22.366-4.265-28.98,0c-6.483,4.395-7.65,11.317-0.129,16.487
			c2.818-1.641,8.423-2.758,14.877-2.758C242.023,350.322,247.312,351.626,250.248,353.136z"/>
		<path fill="#1A171B" d="M309.382,97.317l-2.15,2.224C306.198,98.427,308.406,96.461,309.382,97.317z M304.164,91.889
			c0.995,0.934,4.247,4.369,5.331,5.539l-2.15,2.223C306.279,98.716,304.164,91.889,304.164,91.889z M161.85,150.507
			c8.771-9.042,18.193-0.042,13.351,8.61c4.143,1.049,5.695,6.648-1.149,10.547c-3.622,2.063-8.574,4.129-7.326,9.364
			c10.984,28.988,39.316,49.218,72.76,50.551c29.758,1.186,21.086,22.021,10.508,22.169c-4.015-2.109-9.354-3.065-13.892-2.785
			c-5.669,0-9.706,0.923-14.954,2.831c-47.985-8.893-83.152-50.323-83.152-99.583l0.021-2.096c-1.354,1.128-2.94,1.915-4.669,1.915
			c-4.306,0-8.359-4.115-8.959-9.259c-2.863,2.094-6.882,4.415-9.495,4.347c-22.396-0.579,6.774-43.258-12.326-52.897l-2.268-1.144
			c17.232-12.551,27.7-4.088,28.812,16.438c6.229-7.156,16.133-7.484,17.172,2.584c15.583-35.941,51.468-61.089,93.242-61.089
			c4.605,0,9.008,0.306,13.583,0.898c17.339,1.556,32.49-1.695,32.49-13.871V36.72c9.541-1.585,15.177,8.688,11.607,17.032
			c6.896-2.45,14.203-0.811,21.11,0.599c9.708,1.981,12.917,2.206,13.604-8.481c20.721,11.12,7.385,32.888-12.117,33.386
			c7.586,5.099,6.409,11.791,7.423,12.742c1.317,0.352,6.37-1.917,7.171-2.233c-3.818,8.822-9.793,19.003-21.426,13.642
			c11.417,20.418,12.634,38.384,7.514,61.95c12.755-0.108,17.834,11.79,5.604,23.975c-7.603,7.575-6.107,13.469-3.519,22.502
			c-10.21-7.583-11.026-9.277-11.067-21.165c-0.006-1.841-0.208-3.452-1.92-4.537c-10.896,18.971-55.549,47.615-108.527,6.091
			c-4.655-4.64-9.574,5.058-11.71,8.788l-1.421-1.744c-8.233-10.108-0.762-20.719,7.059-20.406
			c-12.325-25.441-2.463-36.296,8.379-43.515c3.792-2.524,10.608-5.994,13.439-9.386c2.075-2.486,2.707-5.577-1.692-11.193
			c-9.259,3.558-19.064,1.295-26.572-4.98c11.089-3.5,11.732-6.03,17.784-14.332c9.527-13.066,22.099-3.448,17.668,10.812
			c12.91,6.573,13.021,18.41,2.434,34.724c15.722-7.628,36.348-3.402,32.604,20.055c-13.152,13.108-25.86-2.111-31.184,8.73
			c-3.399,6.925,6.79,17.449,23.572,19.489c15.787,1.918,35.255-4.594,45.563-30.433c8.494-21.294-1.66-53.656-21.126-67.4
			c-0.118,6.57-4.688,11.26-11.335,9.683c2.486-15.417-10.979-26.666-24.828-26.666C197.194,74.448,162.667,108.37,161.85,150.507z
			 M133.347,148.928c1.581,0,4.095-0.779,5.619-3.255c0,0,2.719-4.718,2.614-4.613c-0.138,2.121-0.493,8.996-0.493,11.15
			c0,47.867,34.283,87.745,79.8,96.379c4.383-1.569,8.82-2.723,15.119-2.729c4.669-0.255,10.536,0.689,14.694,2.762
			c5.994-0.508,13.767-14.945-11.339-15.946c-33.172-1.322-63.626-21.04-75.596-52.727c-1.816-7.33,3.942-9.646,8.758-12.985
			c6.592-4.57,0.318-6.93-5.014-4.518l3.373-2.711c5.775-4.208-0.509-17.552-9.241-3.953l-2.668,4.154
			c-0.095-2.631-0.231-5.271-0.231-7.906c0-44.57,36.249-80.686,80.945-80.686c0.175,0,4.656,0.178,6.546,0.587
			c8.942,1.938,22.985,11.782,21.779,26.498c3.159-0.68,6.157-5.775,4.263-9.552l-2.329-4.643l4.485,2.604
			c22.712,13.182,34.902,49.364,25.417,73.144c-21.902,54.907-84.598,28.415-74.781,8.421c6.522-13.286,20.002,1.602,31.059-8.853
			c2.784-19.685-17.714-25.055-34.426-11.986l-6.096,4.713c9.194-12.114,27.394-35.646,4.4-44.449l0.629-1.41
			c4.279-9.596-3.429-20.64-11.816-9.134c-4.267,5.852-6.424,10.331-13.797,13.542c5.832,3.288,15.009,3.251,20.918,0.08
			c25.269,30.138-44.993,16.181-16.647,69.604l2.389,4.502l-4.483-2.406c-4.452-2.39-13.752,3.854-8.185,12.871
			c5.748-8.977,10.56-9.036,14.086-5.583c32.163,26.967,83.604,29.902,105.085-7.775c4.646,1.839,6.396,3.57,6.412,8.539
			c0.017,4.882-0.755,8.552,2.807,12.857c-0.557-5.823,1.264-11.16,6.507-16.384c11.515-11.473,5.916-19.745-7.38-18.339
			c4.831-20.89,6.071-39.038-3.349-58.348c-1.996-4.092-4.165-7.726-6.156-11.186l2.357-1.942
			c7.393,6.484,14.341,5.845,19.118-2.236l-0.41,0.049c-3.811,0.339-4.588-2.674-4.718-5.731
			c-0.283-6.735-12.574-14.109-12.574-14.109c29.157,6.004,32.004-16.551,23.72-24.163c-2.333,11.704-15.738,6.23-23.209,5.029
			c-6.548-1.053-20.572,1.445-20.572,1.445c9.188-8.94,2.464-17.202-2.109-18.012c-1.24,14.567-20.078,16.824-35.886,15.397
			c-4.44-0.575-8.744-0.875-13.216-0.875c-43.51,0-80.422,28.13-93.432,67.13l-1.481,5.666c0.148-1.774,0.941-13.524-2.24-17.462
			c-4.12-5.099-10.619-0.466-13.307,5.709l-2.227,5.986c1.045-28.831-9.736-35.021-20.697-28.366
			c17.322,12.528-7.718,50.815,8.832,51.243c4.146,0.107,10.996-6.725,13.744-9.463l-1.121,5.141
			C126.471,144.853,130.36,148.928,133.347,148.928z"/>
		<path fill="#1A171B" d="M309.382,97.317l-2.15,2.224C306.198,98.427,308.406,96.461,309.382,97.317z M304.164,91.889
			c0.995,0.934,4.247,4.369,5.331,5.539l-2.15,2.223C306.279,98.716,304.164,91.889,304.164,91.889z M161.85,150.507
			c8.771-9.042,18.193-0.042,13.351,8.61c4.143,1.049,5.695,6.648-1.149,10.547c-3.622,2.063-8.574,4.129-7.326,9.364
			c10.984,28.988,39.316,49.218,72.76,50.551c29.758,1.186,21.086,22.021,10.508,22.169c-4.015-2.109-9.354-3.065-13.892-2.785
			c-5.669,0-9.706,0.923-14.954,2.831c-47.985-8.893-83.152-50.323-83.152-99.583l0.021-2.096c-1.354,1.128-2.94,1.915-4.669,1.915
			c-4.306,0-8.359-4.115-8.959-9.259c-2.863,2.094-6.882,4.415-9.495,4.347c-22.396-0.579,6.774-43.258-12.326-52.897l-2.268-1.144
			c17.232-12.551,27.7-4.088,28.812,16.438c6.229-7.156,16.133-7.484,17.172,2.584c15.583-35.941,51.468-61.089,93.242-61.089
			c4.605,0,9.008,0.306,13.583,0.898c17.339,1.556,32.49-1.695,32.49-13.871V36.72c9.541-1.585,15.177,8.688,11.607,17.032
			c6.896-2.45,14.203-0.811,21.11,0.599c9.708,1.981,12.917,2.206,13.604-8.481c20.721,11.12,7.385,32.888-12.117,33.386
			c7.586,5.099,6.409,11.791,7.423,12.742c1.317,0.352,6.37-1.917,7.171-2.233c-3.818,8.822-9.793,19.003-21.426,13.642
			c11.417,20.418,12.634,38.384,7.514,61.95c12.755-0.108,17.834,11.79,5.604,23.975c-7.603,7.575-6.107,13.469-3.519,22.502
			c-10.21-7.583-11.026-9.277-11.067-21.165c-0.006-1.841-0.208-3.452-1.92-4.537c-10.896,18.971-55.549,47.615-108.527,6.091
			c-4.655-4.64-9.574,5.058-11.71,8.788l-1.421-1.744c-8.233-10.108-0.762-20.719,7.059-20.406
			c-12.325-25.441-2.463-36.296,8.379-43.515c3.792-2.524,10.608-5.994,13.439-9.386c2.075-2.486,2.707-5.577-1.692-11.193
			c-9.259,3.558-19.064,1.295-26.572-4.98c11.089-3.5,11.732-6.03,17.784-14.332c9.527-13.066,22.099-3.448,17.668,10.812
			c12.91,6.573,13.021,18.41,2.434,34.724c15.722-7.628,36.348-3.402,32.604,20.055c-13.152,13.108-25.86-2.111-31.184,8.73
			c-3.399,6.925,6.79,17.449,23.572,19.489c15.787,1.918,35.255-4.594,45.563-30.433c8.494-21.294-1.66-53.656-21.126-67.4
			c-0.118,6.57-4.688,11.26-11.335,9.683c2.486-15.417-10.979-26.666-24.828-26.666C197.194,74.448,162.667,108.37,161.85,150.507z
			 M133.347,148.928c1.581,0,4.095-0.779,5.619-3.255c0,0,2.719-4.718,2.614-4.613c-0.138,2.121-0.493,8.996-0.493,11.15
			c0,47.867,34.283,87.745,79.8,96.379c4.383-1.569,8.82-2.723,15.119-2.729c4.669-0.255,10.536,0.689,14.694,2.762
			c5.994-0.508,13.767-14.945-11.339-15.946c-33.172-1.322-63.626-21.04-75.596-52.727c-1.816-7.33,3.942-9.646,8.758-12.985
			c6.592-4.57,0.318-6.93-5.014-4.518l3.373-2.711c5.775-4.208-0.509-17.552-9.241-3.953l-2.668,4.154
			c-0.095-2.631-0.231-5.271-0.231-7.906c0-44.57,36.249-80.686,80.945-80.686c0.175,0,4.656,0.178,6.546,0.587
			c8.942,1.938,22.985,11.782,21.779,26.498c3.159-0.68,6.157-5.775,4.263-9.552l-2.329-4.643l4.485,2.604
			c22.712,13.182,34.902,49.364,25.417,73.144c-21.902,54.907-84.598,28.415-74.781,8.421c6.522-13.286,20.002,1.602,31.059-8.853
			c2.784-19.685-17.714-25.055-34.426-11.986l-6.096,4.713c9.194-12.114,27.394-35.646,4.4-44.449l0.629-1.41
			c4.279-9.596-3.429-20.64-11.816-9.134c-4.267,5.852-6.424,10.331-13.797,13.542c5.832,3.288,15.009,3.251,20.918,0.08
			c25.269,30.138-44.993,16.181-16.647,69.604l2.389,4.502l-4.483-2.406c-4.452-2.39-13.752,3.854-8.185,12.871
			c5.748-8.977,10.56-9.036,14.086-5.583c32.163,26.967,83.604,29.902,105.085-7.775c4.646,1.839,6.396,3.57,6.412,8.539
			c0.017,4.882-0.755,8.552,2.807,12.857c-0.557-5.823,1.264-11.16,6.507-16.384c11.515-11.473,5.916-19.745-7.38-18.339
			c4.831-20.89,6.071-39.038-3.349-58.348c-1.996-4.092-4.165-7.726-6.156-11.186l2.357-1.942
			c7.393,6.484,14.341,5.845,19.118-2.236l-0.41,0.049c-3.811,0.339-4.588-2.674-4.718-5.731
			c-0.283-6.735-12.574-14.109-12.574-14.109c29.157,6.004,32.004-16.551,23.72-24.163c-2.333,11.704-15.738,6.23-23.209,5.029
			c-6.548-1.053-20.572,1.445-20.572,1.445c9.188-8.94,2.464-17.202-2.109-18.012c-1.24,14.567-20.078,16.824-35.886,15.397
			c-4.44-0.575-8.744-0.875-13.216-0.875c-43.51,0-80.422,28.13-93.432,67.13l-1.481,5.666c0.148-1.774,0.941-13.524-2.24-17.462
			c-4.12-5.099-10.619-0.466-13.307,5.709l-2.227,5.986c1.045-28.831-9.736-35.021-20.697-28.366
			c17.322,12.528-7.718,50.815,8.832,51.243c4.146,0.107,10.996-6.725,13.744-9.463l-1.121,5.141
			C126.471,144.853,130.36,148.928,133.347,148.928z"/>
		
			<path fill-rule="evenodd" clip-rule="evenodd" fill="none" stroke="#1A171B" stroke-width="1.6759" stroke-miterlimit="3.8637" d="
			M215.971,111.914c2.457-1.704,3.947-2.464,5.489-5.138"/>
		<path fill="#1A171B" d="M275.115,75.936c11.966-19.713,43.639-2.415,50.239-10.98c0,0-0.175,4.182-8.543,4.234
			c-12.887,0.081-31.814-6.308-40.268,7.618L275.115,75.936z"/>
		<path fill="#1A171B" d="M239.773,61.703c109.012,15.892,83.745,176.443-12.383,133.277
			c-26.414-11.961-29.611-44.197-10.604-58.058l3.272-2.617l-2.288,3.973c-17.796,12.979-15.139,43.648,10.307,55.172
			c96.254,43.223,115.319-114.945,11.456-130.087l-6.676-0.883L239.773,61.703z"/>
	</g>
</g>
</svg>
