<?xml version="1.0" standalone="no"?>
<!DOCTYPE svg PUBLIC "-//W3C//DTD SVG 20010904//EN"
 "http://www.w3.org/TR/2001/REC-SVG-20010904/DTD/svg10.dtd">
<svg version="1.0" xmlns="http://www.w3.org/2000/svg"
 width="469pt" height="407pt" viewBox="0 0 469 407"
 preserveAspectRatio="xMidYMid meet">
<g transform="translate(0,407) scale(0.257143,-0.257143)"
fill="#000000" stroke="none">
<path d="M998 1563 c-27 -4 -37 -18 -19 -25 11 -3 13 -75 11 -333 l-1 -170
-57 -60 c-31 -33 -76 -75 -98 -93 l-42 -32 -211 0 c-192 0 -233 5 -202 24 12
7 115 165 124 189 4 11 17 17 37 17 16 0 30 5 30 10 0 6 -25 10 -55 10 -30 0
-55 -4 -55 -10 0 -5 5 -10 11 -10 6 0 8 -7 5 -16 -9 -25 -128 -205 -132 -201
-2 2 -6 50 -7 106 -4 91 -2 103 15 112 33 18 19 26 -54 32 -40 4 -105 9 -144
13 -87 8 -144 -1 -144 -22 0 -12 7 -14 32 -9 45 10 103 8 174 -6 l61 -12 7
-211 c9 -296 -2 -326 -118 -326 -70 0 -92 -14 -60 -37 22 -17 86 -13 129 8 16
8 43 36 59 63 27 43 31 59 34 147 3 55 7 99 11 99 9 -1 62 -75 101 -141 32
-54 36 -57 79 -62 25 -3 49 -3 54 0 13 8 -3 23 -26 23 -17 0 -32 15 -59 63
-20 34 -47 74 -61 89 l-24 26 47 4 c26 1 113 2 193 0 l146 -3 83 -112 c46 -62
85 -116 87 -120 2 -5 -7 -19 -20 -33 -21 -22 -21 -24 -3 -24 18 0 19 -6 12
-157 -3 -87 -6 -179 -7 -204 -1 -39 -5 -48 -23 -53 -22 -6 -22 -7 -4 -18 11
-6 40 -11 65 -10 59 1 173 -16 185 -28 6 -6 2 -18 -10 -31 -19 -21 -19 -21 1
-18 13 3 21 14 23 31 4 34 -15 45 -113 60 l-77 12 7 230 c6 168 11 233 20 241
18 14 152 172 163 192 8 14 37 15 243 14 215 -2 236 -4 266 -22 54 -34 69 -81
35 -112 -23 -21 -71 -22 -99 -2 -25 18 -38 6 -28 -26 6 -19 13 -21 77 -17 64
3 73 7 94 33 26 33 32 91 12 118 -7 9 -36 27 -64 41 -62 31 -74 54 -44 78 27
22 68 23 97 3 20 -14 23 -14 33 4 22 42 14 48 -52 40 -91 -10 -101 -16 -122
-81 -4 -15 -24 -17 -153 -20 -81 -2 -177 -1 -213 0 l-65 4 -40 56 c-22 30 -57
80 -78 110 l-38 55 3 150 c2 103 7 152 15 154 25 9 67 -70 100 -185 31 -109
32 -118 16 -129 -9 -7 -15 -13 -12 -14 32 -7 99 -7 104 1 3 5 0 10 -8 10 -16
0 -24 18 -61 142 -14 47 -41 109 -60 137 l-34 50 49 16 c54 18 79 45 79 86 0
41 -10 58 -40 74 -30 16 -146 26 -192 18z m161 -39 c39 -50 18 -106 -47 -124
-72 -19 -72 -19 -72 70 l0 80 49 0 c42 0 53 -4 70 -26z m-128 -532 c8 -10 19
-23 23 -30 8 -14 -40 -82 -59 -82 -6 0 -20 16 -31 35 l-18 34 29 31 c34 35 36
36 56 12z m-76 -114 c22 -34 26 -45 16 -60 -9 -14 -8 -18 1 -18 7 0 29 22 48
47 61 81 58 80 97 22 29 -42 33 -55 25 -73 -15 -33 -62 -86 -77 -86 -7 0 -28
-20 -48 -45 l-35 -46 -29 38 c-15 21 -49 65 -75 97 -27 33 -48 64 -48 68 0 11
80 98 90 98 4 0 20 -19 35 -42z"/>
</g>
</svg>
