<?xml version="1.0" encoding="UTF-8" standalone="no"?>
<svg
   xmlns:dc="http://purl.org/dc/elements/1.1/"
   xmlns:cc="http://creativecommons.org/ns#"
   xmlns:rdf="http://www.w3.org/1999/02/22-rdf-syntax-ns#"
   xmlns:svg="http://www.w3.org/2000/svg"
   xmlns="http://www.w3.org/2000/svg"
   xmlns:sodipodi="http://sodipodi.sourceforge.net/DTD/sodipodi-0.dtd"
   xmlns:inkscape="http://www.inkscape.org/namespaces/inkscape"
   version="1.1"
   width="846"
   height="432"
   viewBox="0 0 846 432"
   preserveAspectRatio="none"
   id="svg26"
   sodipodi:docname="Flag_of_Lanfang_Republic.svg"
   inkscape:version="0.92.4 (5da689c313, 2019-01-14)">
  <metadata
     id="metadata32">
    <rdf:RDF>
      <cc:Work
         rdf:about="">
        <dc:format>image/svg+xml</dc:format>
        <dc:type
           rdf:resource="http://purl.org/dc/dcmitype/StillImage" />
        <dc:title></dc:title>
      </cc:Work>
    </rdf:RDF>
  </metadata>
  <defs
     id="defs30" />
  <sodipodi:namedview
     pagecolor="#ffffff"
     bordercolor="#666666"
     borderopacity="1"
     objecttolerance="10"
     gridtolerance="10"
     guidetolerance="10"
     inkscape:pageopacity="0"
     inkscape:pageshadow="2"
     inkscape:window-width="1427"
     inkscape:window-height="854"
     id="namedview28"
     showgrid="true"
     inkscape:zoom="0.63480804"
     inkscape:cx="389.51205"
     inkscape:cy="141.95266"
     inkscape:window-x="377"
     inkscape:window-y="128"
     inkscape:window-maximized="0"
     inkscape:current-layer="svg26">
    <inkscape:grid
       type="xygrid"
       id="grid34"
       spacingx="0.5"
       spacingy="0.5" />
  </sodipodi:namedview>
  <rect
     style="opacity:1;fill:#f4c604;fill-opacity:1;fill-rule:evenodd;stroke:none;stroke-width:124.30558777;stroke-linecap:butt;stroke-linejoin:round;stroke-miterlimit:4;stroke-dasharray:none;stroke-opacity:1"
     id="rect37"
     width="846"
     height="432"
     x="0"
     y="0" />
  <path
     style="opacity:1;fill:#000000;fill-opacity:1;fill-rule:evenodd;stroke:none;stroke-width:1.38846481;stroke-linecap:butt;stroke-linejoin:round;stroke-miterlimit:4;stroke-dasharray:none;stroke-opacity:1"
     d="m 629.44356,167.36992 c -6.46252,6.49822 -12.88635,13.42205 -21.53407,17.01853 -4.74953,2.15831 -9.16886,5.28759 -14.34757,6.22958 -2.98765,1.60111 -6.51732,1.70337 -9.52246,3.26227 -2.88672,0.31387 -6.5262,0.86959 -8.31611,3.33079 0.78152,2.26843 2.1876,4.30726 3.04906,6.56152 2.53665,4.88106 6.59251,8.63877 11.38712,11.27046 1.92779,1.61169 4.80414,2.20036 6.50475,3.88454 -2.47156,1.58409 -5.63974,2.46947 -8.40966,3.46894 -3.33631,0.50586 -1.95542,5.05872 -3.41129,7.13913 -1.02849,3.08848 -1.14212,6.43929 -2.84782,9.28206 -0.97464,5.63677 -4.69732,10.42161 -6.46035,15.83922 -3.87226,5.9712 -7.29499,12.2877 -12.1071,17.61658 -11.2662,13.73732 -25.05195,25.03252 -38.0223,37.07611 -1.72968,0.44763 -2.73605,3.10683 -0.22738,2.96747 2.9653,-0.39824 5.47728,-2.37216 8.54781,-2.55847 2.49099,-1.39275 5.53302,-1.47185 7.94082,-3.12955 8.71912,-3.17664 17.02908,-7.84218 24.13793,-13.8464 4.99985,-4.92658 9.83381,-10.04603 13.96932,-15.68041 4.69838,-6.4754 9.02716,-13.27995 12.92178,-20.27955 2.73657,-4.52444 4.29134,-9.98902 8.0409,-13.81377 4.44732,-1.33896 9.28486,0.13855 13.84096,0.48624 12.07344,1.85265 25.14797,6.27526 32.14076,16.92592 2.21791,3.95111 4.22658,8.75528 1.98847,13.14913 -1.07199,2.58389 -2.39593,5.16644 -4.0259,7.4437 -4.65414,4.18905 -11.48143,3.95253 -17.31317,4.81998 -1.62694,0.45817 -4.55967,-0.62892 -5.57597,0.87022 4.34558,4.47259 10.60227,6.45598 15.00706,10.93658 2.58635,1.70999 4.95952,3.60058 6.39617,6.38747 3.72561,4.54364 6.01751,11.23944 2.63897,16.62025 -4.19208,7.50807 -12.19121,11.73397 -19.2482,16.13498 -11.25353,6.49861 -23.33867,11.47743 -34.61342,17.88437 -1.77498,1.22975 0.50527,2.46138 1.82095,1.90254 13.53992,-2.34751 27.65193,-1.58048 40.88762,-5.70761 7.13165,-2.62821 13.79629,-6.65164 18.55802,-12.68102 3.0481,-3.37294 5.02383,-7.53109 7.18439,-11.5102 0.90871,-1.80023 1.45008,-4.00953 2.59109,-5.58469 4.5393,3.13188 8.68894,6.83906 13.31298,9.89287 16.52031,12.19847 33.75848,23.51527 52.49383,32.04478 3.61259,1.4539 7.2289,3.78497 11.12889,4.09084 17.25016,-5.07443 33.67732,-12.89894 48.76922,-22.62144 7.17118,-5.12286 14.64458,-9.81499 21.37921,-15.53597 4.07644,-3.42999 8.92885,-6.26799 12.35997,-10.31967 -1.03579,-2.23386 -4.56788,-1.25626 -6.50691,-2.11845 -8.05483,-1.23433 -16.15441,-1.93518 -24.21972,-3.12467 -14.54235,-0.9181 -29.05533,-3.09104 -43.66996,-3.5661 -17.17912,-1.16 -34.46072,-1.12514 -51.59053,-2.65059 -5.74022,-0.52169 -8.6839,-6.26163 -12.69118,-9.63776 -4.8553,-4.71242 -8.80055,-11.22464 -7.66887,-18.25084 0.66553,-4.43121 3.02185,-9.1287 7.59114,-10.54573 4.44311,-2.02079 8.59523,-4.67596 12.50054,-7.49389 3.66084,-3.42532 7.27774,-6.99106 9.70706,-11.37515 2.03332,-2.27165 2.99007,-5.13459 4.5328,-7.69607 0.44209,-2.55953 2.70703,-4.46698 3.39213,-7.05658 1.77462,-4.48454 3.84337,-8.89251 5.15459,-13.49601 1.86816,-2.87741 2.07933,-6.41904 4.00631,-9.31904 1.17879,-1.27196 0.4151,-4.87756 -1.68498,-3.46351 -5.08348,6.18063 -8.45325,13.6313 -13.4174,19.93125 -6.57009,8.84996 -13.41021,17.9972 -23.27364,23.41112 -3.70399,2.26554 -7.61035,4.18829 -11.6392,5.80371 -5.33417,-5.14126 -10.6954,-10.40387 -16.4821,-14.94724 -0.9418,-0.85373 -2.50947,-0.9867 -3.29381,-2.2615 -4.54352,-2.19331 -8.57229,-5.56945 -13.38871,-7.39618 -4.2627,-2.1987 -8.75054,-3.94034 -13.29137,-5.3842 -2.52333,-0.76581 -5.00042,-1.76937 -7.56118,-2.44642 -1.57732,-0.85327 -2.7278,-2.7123 -1.59143,-4.35331 0.80168,-3.14483 -0.15015,-8.48806 4.30001,-9.03949 5.94239,-0.75273 12.40425,-0.97744 17.65147,-4.14336 3.54608,-0.72245 5.18313,-4.70464 7.69933,-6.95638 3.33694,-5.62892 2.50366,-12.65994 2.15382,-18.92527 -0.76534,-6.00598 -5.62472,-10.80136 -10.76689,-13.50701 -2.83238,-1.07699 -6.01304,-1.14109 -8.9666,-1.25965 z"
     id="path53"
     inkscape:connector-curvature="0" />
  <path
     style="opacity:1;fill:#000000;fill-opacity:1;fill-rule:evenodd;stroke:none;stroke-width:1.38846481;stroke-linecap:butt;stroke-linejoin:round;stroke-miterlimit:4;stroke-dasharray:none;stroke-opacity:1"
     d="m 594.80961,278.11393 c -1.15993,0.80278 -0.59409,2.72113 -1.86446,3.63646 -1.12152,3.05886 -2.07571,6.20569 -3.30034,9.22332 -3.47066,9.73536 -8.35887,19.0248 -13.36125,28.05721 -4.63204,8.42942 -10.73236,15.99094 -17.6122,22.76289 -4.87783,5.33282 -11.18404,9.00395 -16.75198,13.4712 -0.28505,0.78801 -1.83579,2.00622 0.003,1.79375 15.60103,-2.05488 31.46663,-8.125 41.76873,-20.50799 4.54715,-5.4603 8.25517,-11.93156 9.88904,-18.86435 1.66168,-5.88647 2.46831,-12.03856 2.54541,-18.19971 0.0904,-7.06842 0.34835,-14.29887 -0.96812,-21.24986 -0.081,-0.10464 -0.22174,-0.14525 -0.34809,-0.12292 z"
     id="path55"
     inkscape:connector-curvature="0" />
  <path
     style="opacity:1;fill:#000000;fill-opacity:1;fill-rule:evenodd;stroke:none;stroke-width:1.38846481;stroke-linecap:butt;stroke-linejoin:round;stroke-miterlimit:4;stroke-dasharray:none;stroke-opacity:1"
     d="m 628.93991,52.55759 c -7.90239,0.78701 -16.05431,2.41499 -23.03708,6.31785 -1.98119,1.72108 1.46534,3.67195 2.28108,5.01577 5.52111,6.66826 11.44922,13.21255 16.05243,20.49602 1.50083,2.61403 3.60119,4.92626 4.41422,7.84619 1.6286,1.725057 1.92411,4.319347 3.1437,6.365707 0.34857,3.397493 3.85268,6.966683 1.62515,10.287173 -5.30194,1.2553 -10.90312,2.23358 -16.24384,3.67788 -7.5382,1.58863 -14.85935,4.15206 -22.37793,5.68033 -3.48712,1.51948 -7.39489,1.62906 -10.92645,3.20504 -10.4317,3.00902 -20.9006,5.84597 -31.13194,9.49973 -6.93881,2.10645 -13.7983,4.4981 -20.67737,6.80355 -9.31769,2.71105 -18.48143,6.07996 -27.69171,9.06341 -2.73342,1.25894 -5.86154,1.21581 -8.53149,2.75318 -3.04597,1.60465 -6.85316,1.23262 -9.71391,3.09148 -2.48881,3.63282 -1.26093,8.51786 -1.3184,12.65746 0.66238,10.64284 10.02158,18.14749 19.28315,21.73283 2.80361,0.99698 6.99382,2.75882 8.84151,-0.71141 2.83375,-6.1999 8.57497,-10.42788 13.38899,-15.06415 12.88071,-11.05238 28.67604,-17.84843 44.0988,-24.52822 41.24518,-16.23683 85.2786,-24.17578 129.26991,-28.21945 6.87581,-0.29101 13.81504,-1.55299 20.6544,-1.12322 2.25357,1.37781 0.77979,4.67514 0.84304,6.83563 -1.33502,9.42424 -6.9709,17.49949 -12.73143,24.73404 -0.77685,1.44491 0.43814,3.00584 2.0309,1.95039 16.74539,-3.46183 33.74429,-6.74655 49.23646,-14.28853 6.28171,-3.11295 13.26366,-5.32936 18.75547,-9.7689 1.99835,-3.62308 0.87819,-8.15054 0.86713,-12.11036 -0.88766,-6.73186 -3.68849,-13.44216 -8.22164,-18.518373 -3.33449,-2.32945 -7.90041,-1.48035 -11.72699,-2.2065 -19.23617,-1.291827 -38.62,-1.239087 -57.74879,1.29428 -7.14493,0.77016 -14.17078,2.02086 -21.25524,3.31728 -6.64235,1.21014 -13.14718,3.158283 -19.70733,4.612233 -3.76177,-0.0869 -4.72256,-4.621553 -5.12672,-7.598173 -2.03867,-4.381797 -1.53715,-9.385747 -2.92723,-13.946477 -1.16296,-7.4651 -0.10244,-15.5299 -3.20352,-22.59 -4.52087,-4.03031 -10.88251,-5.39985 -16.73012,-6.37986 -1.24578,-0.14949 -2.50226,-0.23254 -3.75721,-0.18383 z"
     id="path57"
     inkscape:connector-curvature="0" />
  <path
     style="opacity:1;fill:#000000;fill-opacity:1;fill-rule:evenodd;stroke:none;stroke-width:1.38846481;stroke-linecap:butt;stroke-linejoin:round;stroke-miterlimit:4;stroke-dasharray:none;stroke-opacity:1"
     d="m 225.08964,295.54349 c -1.85515,0.63178 -0.29942,3.639 -0.84629,5.04515 0.16355,8.89397 -0.18519,17.88507 1.75677,26.61372 0.28899,3.60347 2.14266,6.78661 2.6444,10.30784 1.63919,1.92569 1.73196,4.70689 3.72131,6.51582 4.39032,5.49988 9.93675,10.61386 17.16414,11.73937 9.78273,1.72293 20.50271,1.06859 29.40715,-3.61362 5.13638,-3.5211 11.80283,-8.1929 11.16284,-15.26487 -0.60516,-7.86441 -8.02428,-12.58913 -13.79133,-16.82088 -10.43016,-6.63807 -21.70438,-11.91225 -32.99643,-16.88519 -6.08288,-2.39572 -11.92357,-5.84916 -18.22256,-7.63734 z"
     id="path59"
     inkscape:connector-curvature="0" />
  <path
     style="opacity:1;fill:#000000;fill-opacity:1;fill-rule:evenodd;stroke:none;stroke-width:1.38846481;stroke-linecap:butt;stroke-linejoin:round;stroke-miterlimit:4;stroke-dasharray:none;stroke-opacity:1"
     d="m 152.59646,79.23114 c -8.59061,-0.12342 -17.23404,0.5542 -25.70433,1.3891 -0.68567,1.86024 2.3292,3.059 3.33908,4.25059 6.59978,4.9869 13.29365,9.932437 19.39016,15.50356 1.73347,2.52888 4.69317,3.93336 6.33526,6.61482 5.92085,6.72837 10.62921,14.53726 13.8018,22.89894 -0.2688,1.82408 3.16227,4.39702 0.56782,5.44979 -9.62212,1.77664 -19.44188,2.03601 -29.11127,3.47112 -5.50809,1.00318 -11.15242,1.15448 -16.55934,2.71837 -5.80486,0.24452 -11.31335,2.25494 -17.06624,2.83694 -7.0617,2.07272 -14.38719,3.14442 -21.48361,5.09116 -3.62981,0.64249 -6.91683,2.30792 -10.57385,2.69733 -5.21534,1.83828 -10.66724,2.94418 -15.84636,4.82981 -3.43872,1.23342 -7.11653,1.79881 -10.47971,3.37431 -3.70764,0.98759 -7.27596,2.44829 -10.90286,3.57336 -2.80218,0.68649 -5.36688,2.24248 -8.12031,3.17742 -3.29684,1.0573 -2.3941,3.40362 -0.005,5.19417 6.21762,7.01935 13.78499,13.20685 22.93484,15.8588 3.83014,1.1878 7.68344,2.24419 11.4632,3.52331 2.82348,0.27776 6.34645,1.8188 8.0594,-1.35554 4.76226,-4.68721 9.30494,-9.624 14.97973,-13.2066 12.76416,-9.48378 27.86418,-15.3034 42.91639,-20.07065 7.67265,-2.27946 15.36032,-4.82725 23.11861,-6.63662 2.0177,0.37951 -0.10079,2.9187 -0.0185,4.16186 -1.83683,3.49289 -2.53341,7.50775 -4.6394,10.96813 -3.48427,7.09862 -6.99491,14.22841 -11.79157,20.53736 -5.02049,7.62064 -11.25853,14.37496 -17.81249,20.71723 -6.20105,6.25402 -12.74172,12.3135 -19.25484,18.1395 0.89792,2.32504 4.09614,3.09199 5.95544,4.59881 2.52845,1.22915 4.94215,2.86824 7.40581,4.04472 3.07137,0.72763 5.83755,2.51415 9.02317,2.98161 2.64784,1.63017 5.81477,1.54946 8.5837,2.93158 4.46014,0.70554 8.58093,2.48257 13.10671,2.85325 6.05783,2.37457 13.1179,1.13281 18.92744,4.00088 0.86553,6.19339 -3.07506,11.83587 -5.47192,17.31962 -5.99096,10.49782 -13.62176,19.98022 -22.31027,28.35739 -12.48812,13.14596 -26.56943,24.55334 -39.56849,37.16355 -2.087,2.44957 -5.44856,3.64613 -7.33656,6.16844 1.14106,1.46852 3.92297,0.49747 5.59556,0.92135 11.91449,0.50423 24.3102,-1.29492 35.63815,3.3928 4.77297,2.04003 10.34475,3.60514 13.69068,7.80485 1.02236,4.81715 -1.14198,9.91807 0.2894,14.81307 1.11052,7.63831 8.82971,11.91277 15.47367,14.17202 3.46992,0.96893 7.06232,1.7666 10.46448,2.79126 2.60361,-1.3632 1.58824,-5.29361 2.20306,-7.69185 0.50714,-4.44907 1.94947,-8.77712 2.46519,-13.2209 1.01858,-4.30972 2.79029,-8.40057 3.98507,-12.62037 1.85614,-3.56153 2.81404,-7.49002 5.24312,-10.83106 5.51726,-9.91135 12.9955,-18.66745 21.73718,-25.83161 -0.46465,-2.48597 -4.03725,-1.2928 -5.63036,-0.76253 -10.27554,2.82789 -20.3041,6.5379 -29.55834,11.87145 -5.96247,3.33639 -11.82745,6.96581 -17.32515,10.98397 -2.7658,2.98965 -7.15769,0.34041 -10.57978,0.68966 -8.18363,-0.51788 -16.22941,-2.25575 -24.4077,-2.8946 -2.06313,-1.01303 0.83909,-2.61273 2.00587,-2.73686 9.75211,-3.54951 19.14086,-8.19112 27.96584,-13.53094 12.85185,-7.70921 24.58753,-17.24774 34.80881,-28.2195 7.06479,-6.86434 12.8019,-14.92043 18.7689,-22.68335 1.51747,-1.93671 2.27503,-4.60929 4.40443,-6.20472 2.30983,-1.59255 5.12721,0.78368 7.68379,0.46555 5.46874,0.37431 10.70036,2.35599 16.23767,2.33875 5.51656,1.64981 11.31176,1.75198 16.82258,3.39825 5.36319,0.24155 10.38543,2.42406 15.70434,2.9109 3.79965,1.64894 8.07824,1.63121 11.87533,3.30469 3.83101,0.11868 7.13176,2.50022 10.97357,2.59436 4.44393,2.25332 9.53696,3.0461 14.02806,5.28228 10.6016,3.64347 20.61452,9.00755 30.30674,14.64375 9.35119,-0.65853 19.31501,0.97324 27.99959,-3.44745 7.50016,-2.86309 13.81762,-8.48628 18.57171,-14.81209 1.63701,-2.5473 3.46915,-4.95824 4.71554,-7.70369 1.68382,-1.41307 2.07899,-4.45975 -0.41553,-5.24203 -2.93171,-0.98025 -5.34792,-3.09557 -8.48254,-3.35255 -3.9441,-1.15434 -7.5081,-3.35457 -11.59469,-3.93995 -2.85393,-1.7282 -6.2474,-1.50736 -9.09387,-3.16763 -3.90515,-0.65082 -7.42613,-2.53268 -11.39019,-2.93919 -6.07912,-2.1195 -12.46666,-3.12933 -18.70144,-4.45414 -3.7502,-1.69734 -7.99555,-1.11728 -11.85658,-2.49898 -7.48143,-0.92539 -14.80032,-2.86552 -22.38116,-3.08386 -10.33229,-2.15752 -21.0928,-1.55 -31.5131,-2.99576 -8.26687,-0.69726 -16.6833,0.031 -24.87109,-1.15087 -0.99776,-1.99581 2.29332,-3.33705 2.97087,-5.01918 5.92915,-7.43483 12.46842,-15.16706 14.6621,-24.6436 0.84543,-5.82602 1.09677,-12.72306 -3.59512,-17.06951 -3.02933,-2.96016 -6.14993,-6.20664 -10.01849,-7.87446 -2.01586,-1.60199 -4.8812,-1.85823 -7.13874,-3.17349 -4.42252,-1.57388 -8.98932,-2.5959 -13.47912,-3.89928 -5.79928,-0.61893 -11.60602,-3.41103 -17.46763,-1.96237 -1.15264,7.05555 0.40987,14.48993 -1.3327,21.55527 -0.57805,4.07194 -1.08092,8.21651 -2.80414,11.95935 -0.2227,2.78043 -1.93083,5.19643 -2.73251,7.78201 -1.6935,1.48084 -1.01868,4.18085 -2.91853,5.61514 -2.68254,5.15168 -5.97482,10.03256 -10.16311,14.11971 -2.01029,2.68847 -6.08624,0.58187 -9.00364,1.16474 -9.64302,0.0316 -19.20778,-2.01867 -28.34439,-4.95159 -2.48235,-1.48145 -5.46595,-1.66662 -7.94082,-3.26226 -1.71356,-0.26559 -2.7468,-1.86159 -3.91493,-2.97618 9.56892,-7.57396 17.31464,-17.1135 25.6097,-25.99586 3.51554,-6.1814 8.64583,-11.44627 12.18643,-17.69824 1.87532,-3.09795 4.11442,-6.01784 5.61624,-9.2614 5.74549,-9.63654 11.25552,-19.55423 15.25182,-30.06417 0.13349,-3.12677 4.3749,-2.78467 6.5172,-3.49575 16.18219,-2.4309 32.70773,-1.79835 49.04851,-1.48432 9.33041,0.39579 18.76456,1.40462 27.82162,3.61925 3.08951,1.18086 0.0593,4.67372 -0.47221,6.60244 -0.85681,2.73663 -3.60017,5.51166 -2.9369,8.48187 4.08189,1.76336 8.92411,0.36443 13.259,0.56346 18.43026,-0.68505 36.72859,-2.72553 55.00997,-4.99316 6.27446,-0.67999 14.11876,-0.32149 18.11739,-6.24038 4.1321,-4.32607 1.83462,-10.60184 0.0424,-15.43565 -2.353,-4.39823 -3.7369,-9.69409 -7.38932,-13.197 -6.37581,-1.12824 -12.86601,-1.67436 -19.207,-3.10236 -13.04789,-2.5604 -26.77702,-2.72564 -39.64319,0.74187 -2.02599,2.68615 -2.37806,7.99052 -6.39182,8.54563 -21.36474,0.37967 -42.78528,0.40613 -64.09445,2.10925 -6.39164,0.64733 -12.75564,1.61123 -19.16671,1.97429 0.1989,-12.634 0.54324,-25.518573 -2.36593,-37.89404 -0.79055,-3.03918 -4.94962,-1.9434 -7.24677,-2.74363 -11.30779,-1.04895 -22.70699,-0.83053 -34.05313,-0.8863 z"
     id="path61"
     inkscape:connector-curvature="0" />
</svg>
