<svg xmlns="http://www.w3.org/2000/svg" width="875" height="700"><defs><clipPath clipPathUnits="userSpaceOnUse" id="d"><path d="M -88.446429,91.683332 H 54.42857 V 205.98333 H -88.446429 Z" fill="navy" stroke-width=".265"/></clipPath><clipPath clipPathUnits="userSpaceOnUse" id="c"><path d="M -88.446429,91.683332 H 54.42857 V 205.98333 H -88.446429 Z" fill="navy" stroke-width=".265"/></clipPath><clipPath clipPathUnits="userSpaceOnUse" id="b"><path d="M -88.446429,91.683332 H 54.42857 V 205.98333 H -88.446429 Z" fill="navy" stroke-width=".265"/></clipPath><clipPath clipPathUnits="userSpaceOnUse" id="a"><path d="M -88.446429,91.683332 H 54.42857 V 205.98333 H -88.446429 Z" fill="navy" stroke-width=".265"/></clipPath></defs><path transform="matrix(6.1242346,0,0,6.1242346,541.66668,-561.49023)" d="M -88.44643,91.683332 H 54.428572 V 205.98333 H -88.44643 Z" clip-path="url(#a)" fill="#fff"/><path transform="matrix(6.1242346,0,0,6.1242346,541.66668,-561.49023)" d="M -88.44643,120.25833 H 18.709822 v 85.725 M -52.72768,91.683332 V 177.40833 H 54.428572" clip-path="url(#b)" fill="none" stroke="#ce1124" stroke-width="11.906"/><path transform="matrix(6.1242346,0,0,6.1242346,541.66668,-561.49023)" d="M -17.00893,91.683332 H 54.428572 V 148.83333 H -88.44643 v 57.15 h 71.4375 z" clip-path="url(#c)" fill="#06c"/><path transform="matrix(6.1242346,0,0,6.1242346,541.66668,-561.49023)" d="M -88.44643,205.98333 54.428572,91.683332 m -142.875002,57.149998 71.4375,57.15 m 0,-114.299998 71.437502,57.149998" clip-path="url(#d)" fill="none" stroke="#fff" stroke-width="10.583"/></svg>