<?xml version="1.0" encoding="UTF-8" standalone="no"?>
<!-- Created with Inkscape (http://www.inkscape.org/) -->
<svg
   xmlns:svg="http://www.w3.org/2000/svg"
   xmlns="http://www.w3.org/2000/svg"
   xmlns:xlink="http://www.w3.org/1999/xlink"
   version="1.0"
   width="600"
   height="660"
   id="svg2">
  <desc
     id="desc4">Flag of Canton of Valais (Wallis)</desc>
  <defs
     id="defs6">
    <linearGradient
       id="linearGradient2893">
      <stop
         id="stop2895"
         style="stop-color:#ffffff;stop-opacity:0.3137255"
         offset="0" />
      <stop
         id="stop2897"
         style="stop-color:#ffffff;stop-opacity:0.25098041"
         offset="0.19" />
      <stop
         id="stop2901"
         style="stop-color:#6b6b6b;stop-opacity:0.1254902"
         offset="0.60000002" />
      <stop
         id="stop2899"
         style="stop-color:#000000;stop-opacity:0.1254902"
         offset="1" />
    </linearGradient>
    <linearGradient
       id="linearGradient2885">
      <stop
         id="stop2887"
         style="stop-color:#ffffff;stop-opacity:1"
         offset="0" />
      <stop
         id="stop2891"
         style="stop-color:#ffffff;stop-opacity:1"
         offset="0.22857143" />
      <stop
         id="stop2889"
         style="stop-color:#000000;stop-opacity:1"
         offset="1" />
    </linearGradient>
    <linearGradient
       id="linearGradient2955">
      <stop
         id="stop2867"
         style="stop-color:#fd0000;stop-opacity:1"
         offset="0" />
      <stop
         id="stop2873"
         style="stop-color:#e77275;stop-opacity:0.65882355"
         offset="0.5" />
      <stop
         id="stop2959"
         style="stop-color:#000000;stop-opacity:0.32291666"
         offset="1" />
    </linearGradient>
    <radialGradient
       cx="225.52438"
       cy="218.90099"
       r="300"
       fx="225.52438"
       fy="218.90099"
       id="radialGradient2961"
       xlink:href="#linearGradient2955"
       gradientUnits="userSpaceOnUse"
       gradientTransform="matrix(-4.167939e-4,2.182867,-1.884232,-3.599562e-4,615.5972,-289.1214)" />
    <polygon
       points="0,-1 0.58778525,0.80901699 -0.95105652,-0.30901699 0.95105652,-0.30901699 -0.58778525,0.80901699 0,-1 "
       transform="scale(53,53)"
       id="star" />
    <clipPath
       id="clip">
      <path
         d="M 0,-200 L 0,600 L 300,600 L 300,-200 L 0,-200 z"
         id="path10" />
    </clipPath>
    <radialGradient
       cx="225.52438"
       cy="218.90099"
       r="300"
       fx="225.52438"
       fy="218.90099"
       id="radialGradient1911"
       xlink:href="#linearGradient2955"
       gradientUnits="userSpaceOnUse"
       gradientTransform="matrix(-4.167939e-4,2.182867,-1.884232,-3.599562e-4,615.5972,-289.1214)" />
    <radialGradient
       cx="225.52438"
       cy="218.90099"
       r="300"
       fx="225.52438"
       fy="218.90099"
       id="radialGradient2865"
       xlink:href="#linearGradient2955"
       gradientUnits="userSpaceOnUse"
       gradientTransform="matrix(0,1.748721,-1.593162,-1.049767e-7,551.7876,-191.2898)" />
    <radialGradient
       cx="225.52438"
       cy="218.90099"
       r="300"
       fx="225.52438"
       fy="218.90099"
       id="radialGradient2871"
       xlink:href="#linearGradient2955"
       gradientUnits="userSpaceOnUse"
       gradientTransform="matrix(0,1.386237,-1.323286,-5.741131e-8,-158.0823,-109.5408)" />
    <radialGradient
       cx="221.44487"
       cy="226.33101"
       r="300"
       fx="221.44487"
       fy="226.33101"
       id="radialGradient3163"
       xlink:href="#linearGradient2893"
       gradientUnits="userSpaceOnUse"
       gradientTransform="matrix(1.353218,0,0,1.348928,-77.62935,-85.74693)" />
  </defs>
  <g
     id="layer3"
     style="display:inline">
    <path
       d="M 300,658.5 C 300,658.5 598.50001,546.17969 598.50001,260.72817 C 598.50001,-24.723354 598.50001,2.1764765 598.50001,2.1764765 L 1.5,2.1764765 L 1.5,260.72817 C 1.5,546.17969 300,658.5 300,658.5 z"
       id="path2855"
       style="fill:#e20909;fill-opacity:1;fill-rule:evenodd;stroke:none;stroke-width:1px;stroke-linecap:butt;stroke-linejoin:miter;stroke-opacity:1" />
    <g
       transform="matrix(0.175,0,0,0.175,-51.443803,-51.410135)"
       id="g10"
       style="fill:#fcef3c;stroke:#000000;stroke-width:17.1428566;stroke-miterlimit:4;stroke-dasharray:none;stroke-opacity:1">
      <path
         d="M 1778.9,3200 C 1778.9,3322.11 1679.9,3421.1 1557.79,3421.1 C 1603.4,3500.1 1687.68,3548.76 1778.89,3548.76 C 1870.11,3548.76 1954.39,3500.1 2000,3421.1 C 2045.61,3500.1 2129.89,3548.76 2221.1,3548.76 C 2312.32,3548.76 2396.6,3500.1 2442.21,3421.1 C 2320.1,3421.1 2221.1,3322.11 2221.1,3200 L 2221.1,2221.1 L 3200,2221.1 C 3322.11,2221.1 3421.1,2320.1 3421.1,2442.21 C 3500.1,2396.6 3548.76,2312.32 3548.76,2221.11 C 3548.76,2129.89 3500.1,2045.61 3421.1,2000 C 3500.1,1954.39 3548.76,1870.11 3548.76,1778.9 C 3548.76,1687.68 3500.1,1603.4 3421.1,1557.79 C 3421.1,1679.9 3322.11,1778.9 3200,1778.9 L 2221.1,1778.9 L 2221.1,800 C 2221.1,677.887 2320.1,578.895 2442.21,578.895 C 2396.6,499.902 2312.32,451.24 2221.1,451.24 C 2129.89,451.24 2045.61,499.902 2000,578.895 C 1954.39,499.902 1870.11,451.24 1778.89,451.24 C 1687.68,451.24 1603.4,499.902 1557.79,578.895 C 1679.9,578.895 1778.9,677.887 1778.9,800 L 1778.9,1778.9 L 800,1778.9 C 677.887,1778.9 578.895,1679.9 578.895,1557.79 C 499.902,1603.4 451.24,1687.68 451.24,1778.9 C 451.24,1870.11 499.902,1954.39 578.895,2000 C 499.902,2045.61 451.24,2129.89 451.24,2221.11 C 451.24,2312.32 499.902,2396.6 578.895,2442.21 C 578.895,2320.1 677.887,2221.1 800,2221.1 L 1778.9,2221.1 L 1778.9,3200 z"
         id="path12"
         style="fill:#fcef3c;stroke:#000000;stroke-width:17.1428566;stroke-miterlimit:4;stroke-dasharray:none;stroke-opacity:1" />
    </g>
  </g>
  <g
     id="layer4" />
  <g
     id="layer2">
    <path
       d="M 300.00001,658.5 C 300.00001,658.5 598.50001,546.17969 598.50001,260.72817 C 598.50001,-24.723334 598.50001,2.1764865 598.50001,2.1764865 L 1.5,2.1764865 L 1.5,260.72817 C 1.5,546.17969 300.00001,658.5 300.00001,658.5 z"
       id="path2875"
       style="opacity:1;fill:url(#radialGradient3163);fill-opacity:1;fill-rule:evenodd;stroke:none;stroke-width:1px;stroke-linecap:butt;stroke-linejoin:miter;stroke-opacity:1" />
  </g>
  <g
     id="layer1">
    <path
       d="M 299.99999,658.50028 C 299.99999,658.50028 1.5,546.17992 1.5,260.72828 C 1.5,-24.723336 1.5,2.1764957 1.5,2.1764957 L 598.49999,2.1764957 L 598.49999,260.72828 C 598.49999,546.17992 299.99999,658.50028 299.99999,658.50028 z"
       id="path1411"
       style="opacity:1;fill:none;fill-opacity:1;fill-rule:evenodd;stroke:#000000;stroke-width:3.00000048;stroke-linecap:butt;stroke-linejoin:miter;stroke-miterlimit:4;stroke-dasharray:none;stroke-opacity:1" />
  </g>
</svg>
