<?xml version="1.0" encoding="UTF-8"?>
<!-- Generator: Adobe Illustrator 14.0.0, SVG Export Plug-In . SVG Version: 6.00 Build 43363)  -->
<svg width="900" height="600" enable-background="new 0 0 800 600" version="1.1" viewBox="0 0 900 600" xml:space="preserve" xmlns="http://www.w3.org/2000/svg" xmlns:cc="http://creativecommons.org/ns#" xmlns:dc="http://purl.org/dc/elements/1.1/" xmlns:rdf="http://www.w3.org/1999/02/22-rdf-syntax-ns#"><metadata><rdf:RDF><cc:Work rdf:about=""><dc:format>image/svg+xml</dc:format><dc:type rdf:resource="http://purl.org/dc/dcmitype/StillImage"/><dc:title/></cc:Work></rdf:RDF></metadata>
<g transform="scale(1.125,1)">
	<rect width="800" height="200" fill="#dc2429" stroke-width=".57735"/>
	<rect y="200" width="800" height="200" fill="#fff" stroke-width=".7071"/>
	<rect y="400" width="800" height="200" fill="#146d37"/>
</g><g fill="#ff0">
<polygon transform="matrix(1.0845 0 0 1.0845 16.186 -22.537)" points="398.51 389.98 398.12 390.14 397.32 388.12 396.56 387.31 398.14 390.18"/><polygon transform="matrix(1.0845 0 0 1.0845 16.186 -22.537)" points="398.51 389.98 398.12 389.83 398.36 389.23 397.7 388.52 398.1 390.08"/><polygon transform="matrix(1.0845 0 0 1.0845 16.186 -22.537)" points="398.51 389.98 398.87 390.18 400.45 387.31 399.69 388.12 398.89 390.14"/><polygon transform="matrix(1.0845 0 0 1.0845 16.186 -22.537)" points="398.4 389.13 398.45 389.01 397.29 386.91 397.56 387.98"/><polygon transform="matrix(1.0845 0 0 1.0845 16.186 -22.537)" points="398.51 389.12 398.57 389.01 398.51 388.86 398.45 389.01"/><polygon transform="matrix(1.0845 0 0 1.0845 16.186 -22.537)" points="398.62 389.13 398.69 389.03 398.65 388.87 398.57 389.01"/><polygon transform="matrix(1.0845 0 0 1.0845 16.186 -22.537)" points="398.72 389.15 399.69 388.12 400.1 387.09 398.69 389.03"/><polygon transform="matrix(1.0845 0 0 1.0845 16.186 -22.537)" points="397.7 388.52 397.56 387.98 396.92 387.09 397.32 388.12"/><polygon transform="matrix(1.0845 0 0 1.0845 16.186 -22.537)" points="398.72 389.69 399.13 389.31 399.6 388.3 398.9 389.16"/><polygon transform="matrix(1.0845 0 0 1.0845 16.186 -22.537)" points="399.93 388.55 399.13 389.31 398.21 391.27 397.83 391.1 398.18 391.32"/><polygon transform="matrix(1.0845 0 0 1.0845 16.186 -22.537)" points="397.62 389.99 397.66 389.76 396.81 387.95 397.02 389.04"/><polygon transform="matrix(1.0845 0 0 1.0845 16.186 -22.537)" points="397.12 389.59 397.02 389.04 396.42 388.1 396.77 389.16"/><polygon transform="matrix(1.0845 0 0 1.0845 16.186 -22.537)" points="398.54 389.59 398.9 389.16 399.24 388.1 398.64 389.04"/><polygon transform="matrix(1.0845 0 0 1.0845 16.186 -22.537)" points="398.04 389.99 398.64 389.04 398.85 387.95 398 389.76"/></g><path d="m485.21 202.28-37.187 194.96-2.9473-11.48-34.926-183.07c-0.26897 0.18654-0.53985 0.37162-0.80664 0.5625l32.166 168.62-25.992-101.24c-0.24835 0.24619-0.48731 0.50707-0.73242 0.75976l29.402 114.52 0.99609 5.2246-2.6582-6.7168-52.615-161.93c-0.21907 0.29391-0.43934 0.5876-0.65625 0.88477l48.008 147.75-33.49-84.582c-0.18654 0.34379-0.37639 0.68311-0.55859 1.0312l38.467 97.152 2.0488 6.3066-3.9785-7.2383-63.938-135.87c-0.15184 0.38067-0.3065 0.75974-0.45508 1.1426l57.502 122.2-36.354-66.127c-0.10954 0.42406-0.22098 0.84613-0.32618 1.2734l42.785 77.826 3.2969 7.0078-5.3613-7.3789-68.664-108.2c-0.0716 0.449-0.13783 0.89844-0.20507 1.3496l60.484 95.309-34.887-48.014c-0.0217 0.48153-0.0376 0.9653-0.0527 1.4512l42.604 58.641 4.6543 7.334-6.6445-7.0742-67.592-81.707c0.0184 0.49672 0.0417 0.99244 0.0645 1.4902l57.73 69.783-29.889-31.828c0.0748 0.52384 0.15087 1.0452 0.23438 1.5625l38.762 41.273 13.797 16.678 0.34766-0.28516-0.38086 0.24024-3.8242-6.0274-0.14844-0.17969 0.10742 0.11328 0.041 0.0664 2.2832 2.7598-0.33008-0.70313 2.6562 2.8301 0.32618-0.30664-0.36329 0.26367-2.0762-2.8574-0.32617-1.0039 0.54297 0.58008 0.38477 0.81445-0.28321-1.4824 0.39649 0.54688-0.56641-1.4297-0.15625-0.81836 0.11133 0.20117 1.4922 4.5898 0.11328-0.59571-0.68946-3.6172 0.92969 2.3535-0.24023 1.2637 0.11133 0.59571 0.39062-1.1992 0.22852 0.57812 0.0918-0.23242-0.1914-0.74414 1.1484-3.5312 36.596-191.85c-0.27005-0.18762-0.53746-0.37618-0.8086-0.56055zm-35.787 192.41-0.67187 3.5215 0.084-0.17968-0.36914 0.93359 0.0625 0.24023 0.90625-1.6484-0.26562 0.81836 1.3242-2.0859-0.39063 0.98633 0.23047-0.31836-0.76953 1.6367 0.97656-1.1797-0.0566 0.10351 0.91016-0.96874-1.4707 2.3144 0.42383-0.39649-1.6094 2.2109-0.36328-0.26367 0.33007 0.30664 2.2266-2.3711-2.9414 3.5566-0.34375-0.28516 0.30469 0.32617 78.068-73.311c0.11713-0.5195 0.23595-1.0378 0.34765-1.5606l-71.988 67.604 48.426-51.57c0.0781-0.50648 0.13871-1.0215 0.20703-1.5312l-42.98 45.771 69.289-83.752c0.0206-0.48804 0.0336-0.97854 0.0488-1.4688l-74.139 89.617 48.582-66.863c-0.0195-0.47611-0.0551-0.94294-0.0801-1.418l-47.086 64.805 71.135-112.14c-0.0683-0.44575-0.14609-0.88564-0.21875-1.3281l-72.084 113.64 45.543-82.84c-0.10954-0.42623-0.21208-0.85156-0.32812-1.2734l-46.975 85.443 66.566-141.46c-0.15075-0.38175-0.30107-0.76016-0.45508-1.1387l-64.883 137.88 38.871-98.174c-0.18654-0.34597-0.36989-0.69266-0.5586-1.0332l-41.937 105.92 54.914-169c-0.22016-0.29608-0.43695-0.59606-0.6582-0.88672zm-4.3848 0.36914 0.0371 0.0508 0.78906 1.6777-0.65039-1.1856zm-0.92774 0.16211 0.0508 0.0527 0.0371 0.0801 0.38282 0.60352-0.28711-0.39649-0.0977-0.20507z" fill="#fc0"/><polygon transform="matrix(1.0845 0 0 1.0845 16.186 -22.537)" points="397.83 391.1 397.44 391.22 396.77 389.16 396.06 388.3 397.46 391.27" fill="#ff0"/><path d="m387.2 397.08c0-32.749 26.548-59.299 59.299-59.299 32.749 0 59.299 26.549 59.299 59.299" fill="#fc0" stroke="#000" stroke-width="1.0845"/><g transform="matrix(1.0845 0 0 1.0845 16.186 -22.537)">
			
				
				<path transform="matrix(.92205 0 0 .92205 -14.924 20.781)" d="m439.91 266.85-2.0566 34.957h11.174 7.7441v-34.957h-7.7441-9.1172z" fill="#888" stroke-width="1.0845"/>
			
			
				<path d="m406.66 299.48h-18.297l1.943-33.062h16.354zm-17.418-0.829h16.591v-31.404h-14.745z"/>
			
		</g><g transform="matrix(1.0845 0 0 1.0845 16.186 -22.537)">
			
				
				<path d="m396.77 225.88s3.312 5.386 5.688 10.239l-3.763 29.577-3.631-26.734c-1e-3 1e-3 2.463-10.806 1.706-13.082z" fill="#888"/>
			
			
				<path d="m398.28 265.75-3.643-26.808 0.018-0.073c0.678-2.975 2.309-11.083 1.717-12.859l0.747-0.348c0.033 0.054 3.349 5.458 5.706 10.273l0.055 0.112-0.017 0.123-3.762 29.577zm-2.801-26.771 3.197 23.539 3.35-26.329c-1.58-3.213-3.574-6.67-4.711-8.589-0.105 3.6-1.572 10.216-1.836 11.379z"/>
			
		</g><g transform="matrix(1.0845 0 0 1.0845 16.186 -22.537)">
			
				
				<path d="m398.69 275.36c17.73 0.358 7.556-29.388 7.556-29.388-1.896-6.256-3.602-13.841-3.602-13.841s-3.794 5.309-3.035 9.29c0.759 3.982-1.327 13.651-2.275 14.979 0 0 5.878-17.822-3.033-24.269 0 0-1.835 8.785-4.413 15.983 1e-3 0-9.941 26.866 8.802 27.246z" fill="#888"/>
			
			
				<path d="m399.01 275.78-0.324-3e-3c-4.364-0.088-7.574-1.6-9.546-4.492-5.293-7.77 0.129-22.681 0.364-23.313 2.537-7.085 4.377-15.835 4.396-15.923l0.131-0.626 0.518 0.375c2.558 1.85 3.944 4.57 4.61 7.538 0.429-3.59 3.021-7.258 3.151-7.443l0.538-0.752 0.204 0.903c0.018 0.076 1.725 7.642 3.595 13.811 0.249 0.729 6.151 18.266 0.493 26.18-1.777 2.485-4.512 3.745-8.13 3.745zm-4.44-42.915c-0.476 2.165-2.131 9.371-4.288 15.392-0.057 0.154-5.511 15.146-0.456 22.563 1.81 2.657 4.797 4.046 8.876 4.128l0.308 3e-3c3.335 0 5.843-1.144 7.455-3.4 5.413-7.568-0.547-25.266-0.606-25.443-1.49-4.915-2.874-10.693-3.396-12.932-0.988 1.604-2.99 5.296-2.443 8.17 0.763 4-1.262 13.782-2.345 15.297l-0.731-0.371c0.057-0.171 5.452-16.901-2.374-23.407z"/>
			
		</g><g transform="matrix(1.0845 0 0 1.0845 16.186 -22.537)">
			
				
				<polygon points="398.69 329.59 407.76 329.59 416.29 284.84 398.69 297.93" fill="#888"/>
			
			
				<path d="m408.1 330h-9.829v-32.285l18.623-13.842zm-9.001-0.829h8.315l8.269-43.364-16.583 12.324v31.04z"/>
			
		</g><g transform="matrix(1.0845 0 0 1.0845 16.186 -22.537)">
			
				
				<polygon points="398.69 329.59 389.62 329.59 381.08 284.84 398.69 297.93" fill="#888"/>
			
			
				<path d="m399.1 330h-9.829l-8.796-46.125 18.625 13.84zm-9.143-0.829h8.315v-31.04l-16.585-12.324z"/>
			
		</g><g transform="matrix(1.0845 0 0 1.0845 16.186 -22.537)">
			
				
					
						<path d="m457.81 208.36c-0.052-1.564-0.149-3.128-0.295-4.693 2.028 0.747 4.047 1.53 6.057 2.348 5.773 6.651 10.686 13.809 14.734 21.321-2.102 0.568-4.203 1.136-6.303 1.705-3.897-7.284-8.627-14.226-14.193-20.681z" fill="#f39a34"/>
					
					
						<path d="m472.01 229.45c-0.148 0-0.292-0.082-0.365-0.218-3.934-7.353-8.692-14.286-14.144-20.606-0.062-0.071-0.097-0.162-0.1-0.256-0.051-1.553-0.149-3.124-0.294-4.669-0.012-0.142 0.049-0.28 0.161-0.367 0.113-0.088 0.264-0.111 0.395-0.06 2.01 0.74 4.052 1.531 6.07 2.353 0.06 0.024 0.114 0.063 0.157 0.111 5.694 6.561 10.67 13.759 14.786 21.396 0.06 0.111 0.066 0.244 0.016 0.359-0.051 0.117-0.15 0.203-0.272 0.236l-6.301 1.705c-0.037 0.011-0.074 0.016-0.109 0.016zm-13.785-21.254c5.379 6.252 10.085 13.098 13.995 20.354l5.479-1.482c-4.022-7.384-8.855-14.35-14.368-20.712-1.775-0.721-3.567-1.418-5.338-2.078 0.109 1.301 0.188 2.615 0.232 3.918z"/>
					
				
				
					
						<path d="m447.77 190.86c-0.436-1.505-0.924-3.005-1.461-4.497 2.229 0.532 4.451 1.103 6.669 1.708 13.467 10.692 24.013 23.521 31.637 37.559-2.102 0.568-4.201 1.138-6.303 1.706-7.344-13.624-17.527-26.081-30.542-36.476z" fill="#f39a34"/>
					
					
						<path d="m478.31 227.75c-0.15 0-0.292-0.081-0.366-0.217-7.563-14.032-17.804-26.262-30.435-36.349-0.066-0.053-0.116-0.126-0.14-0.208-0.432-1.495-0.921-2.999-1.453-4.472-0.051-0.143-0.021-0.304 0.08-0.417 0.103-0.113 0.258-0.16 0.406-0.127 2.201 0.526 4.45 1.102 6.682 1.712 0.055 0.015 0.104 0.041 0.149 0.075 13.153 10.444 23.834 23.123 31.743 37.686 0.061 0.11 0.065 0.244 0.017 0.36-0.051 0.117-0.151 0.203-0.273 0.236l-6.303 1.706c-0.036 0.01-0.073 0.015-0.107 0.015zm-30.182-37.133c12.585 10.072 22.808 22.261 30.39 36.233l5.479-1.483c-7.815-14.247-18.315-26.666-31.211-36.919-1.947-0.531-3.905-1.037-5.834-1.504 0.424 1.215 0.819 2.448 1.176 3.673z"/>
					
				
				
					
						<path d="m469.34 203.67c-0.126-1.634-0.3-3.27-0.524-4.905 2.105 0.817 4.202 1.67 6.286 2.561 6.186 7.046 11.458 14.634 15.814 22.602-2.102 0.569-4.202 1.137-6.302 1.705-4.203-7.741-9.294-15.112-15.274-21.963z" fill="#f39a34"/>
					
					
						<path d="m484.65 226.03c-0.161 0-0.333-0.069-0.405-0.201-4.243-7.811-9.364-15.175-15.222-21.886-0.061-0.067-0.095-0.152-0.101-0.241-0.127-1.634-0.303-3.276-0.522-4.881-0.02-0.145 0.038-0.291 0.154-0.381 0.115-0.091 0.271-0.115 0.405-0.062 2.135 0.829 4.253 1.692 6.3 2.566 0.058 0.024 0.106 0.062 0.148 0.107 6.102 6.951 11.44 14.58 15.866 22.676 0.062 0.112 0.067 0.245 0.018 0.362s-0.15 0.204-0.272 0.237l-6.24 1.688c-0.04 0.012-0.084 0.016-0.129 0.016zm-14.913-22.529c5.788 6.647 10.86 13.928 15.078 21.645l5.479-1.481c-4.331-7.844-9.525-15.241-15.447-21.996-1.802-0.769-3.66-1.528-5.533-2.264 0.173 1.353 0.315 2.727 0.423 4.096z"/>
					
				
				
					
						<path d="m479.49 222.99c0.239-1.666 0.435-3.34 0.587-5.02 1.896 1.037 3.776 2.107 5.643 3.21 4.558 7.736 8.214 15.869 10.968 24.243-2.213 0.367-4.425 0.733-6.636 1.1-2.646-8.127-6.167-16.022-10.562-23.533z" fill="#f39a34"/>
					
					
						<path d="m490.05 246.93c-0.178 0-0.338-0.113-0.394-0.287-2.661-8.172-6.202-16.063-10.525-23.451-0.048-0.081-0.065-0.176-0.053-0.269 0.238-1.655 0.435-3.336 0.584-4.998 0.014-0.139 0.095-0.262 0.219-0.328 0.122-0.066 0.271-0.065 0.393 2e-3 1.918 1.049 3.82 2.131 5.655 3.217 0.061 0.035 0.111 0.086 0.146 0.146 4.517 7.665 8.219 15.848 11.004 24.323 0.038 0.115 0.023 0.24-0.039 0.344s-0.166 0.175-0.287 0.195l-6.635 1.099c-0.023 5e-3 -0.047 7e-3 -0.068 7e-3zm-10.131-24.031c4.262 7.3 7.763 15.088 10.414 23.15l5.806-0.962c-2.736-8.222-6.344-16.163-10.723-23.611-1.624-0.959-3.299-1.914-4.986-2.846-0.139 1.422-0.309 2.854-0.511 4.269z"/>
					
				
				
					
						<path d="m473.26 224.8c0.27-1.625 0.496-3.258 0.678-4.898 1.865 0.997 3.716 2.026 5.553 3.089 4.396 7.51 7.915 15.406 10.561 23.533-2.211 0.366-4.424 0.733-6.636 1.1-2.536-7.88-5.922-15.537-10.156-22.824z" fill="#f39a34"/>
					
					
						<path d="m483.42 248.03c-0.177 0-0.338-0.114-0.395-0.287-2.55-7.923-5.954-15.575-10.12-22.743-0.048-0.083-0.065-0.18-0.05-0.276 0.27-1.617 0.496-3.258 0.677-4.875 0.014-0.137 0.096-0.258 0.217-0.321 0.123-0.064 0.269-0.063 0.388 1e-3 1.88 1.004 3.752 2.046 5.566 3.096 0.062 0.036 0.113 0.087 0.149 0.149 4.354 7.438 7.919 15.383 10.598 23.614 0.037 0.114 0.022 0.24-0.04 0.343-0.063 0.103-0.167 0.174-0.286 0.193l-6.636 1.1c-0.022 4e-3 -0.047 6e-3 -0.068 6e-3zm-9.722-23.318c4.102 7.08 7.467 14.625 10.006 22.436l5.809-0.962c-2.633-7.977-6.103-15.678-10.32-22.899-1.603-0.926-3.25-1.846-4.907-2.738-0.165 1.384-0.361 2.782-0.588 4.163z"/>
					
				
				
					
						<path d="m467.03 226.61c0.299-1.585 0.556-3.178 0.77-4.778 1.831 0.956 3.652 1.946 5.46 2.968 4.234 7.287 7.62 14.944 10.155 22.823-2.211 0.367-4.423 0.732-6.635 1.1-2.429-7.632-5.677-15.051-9.75-22.113z" fill="#f39a34"/>
					
					
						<path d="m476.78 249.13c-0.179 0-0.34-0.114-0.396-0.289-2.441-7.675-5.709-15.088-9.714-22.031-0.049-0.086-0.066-0.187-0.047-0.284 0.297-1.576 0.554-3.176 0.764-4.756 0.02-0.134 0.101-0.251 0.22-0.312 0.12-0.063 0.264-0.063 0.384 0 1.835 0.958 3.677 1.959 5.473 2.974 0.063 0.036 0.117 0.089 0.154 0.153 4.194 7.219 7.624 14.926 10.19 22.904 0.038 0.115 0.023 0.24-0.039 0.343s-0.167 0.173-0.286 0.193l-6.637 1.1c-0.021 4e-3 -0.044 5e-3 -0.066 5e-3zm-9.314-22.602c3.939 6.855 7.168 14.159 9.6 21.721l5.808-0.963c-2.521-7.724-5.856-15.186-9.915-22.188-1.586-0.896-3.207-1.779-4.828-2.632-0.192 1.352-0.414 2.716-0.665 4.062z"/>
					
				
				
					
						<path d="m485.72 221.18c0.211-1.708 0.376-3.421 0.495-5.141 1.927 1.076 3.839 2.187 5.735 3.332 4.719 7.958 8.511 16.33 11.373 24.952-2.212 0.367-4.424 0.733-6.636 1.1-2.753-8.374-6.41-16.507-10.967-24.243z" fill="#f39a34"/>
					
					
						<path d="m496.69 245.83c-0.177 0-0.337-0.112-0.394-0.284-2.768-8.419-6.446-16.548-10.931-24.162-0.046-0.078-0.065-0.17-0.055-0.261 0.207-1.687 0.374-3.409 0.494-5.12 0.01-0.142 0.091-0.268 0.216-0.334 0.125-0.068 0.274-0.067 0.399 2e-3 1.922 1.075 3.856 2.198 5.747 3.339 0.058 0.035 0.106 0.084 0.142 0.143 4.672 7.88 8.512 16.302 11.41 25.033 0.038 0.115 0.023 0.241-0.039 0.345-0.063 0.103-0.167 0.174-0.286 0.194l-6.638 1.1c-0.019 4e-3 -0.043 5e-3 -0.065 5e-3zm-10.54-24.745c4.424 7.528 8.063 15.554 10.822 23.864l5.807-0.962c-2.849-8.476-6.592-16.656-11.129-24.321-1.669-1.006-3.37-1.998-5.065-2.954-0.113 1.463-0.259 2.93-0.435 4.373z"/>
					
				
				
					
						<path d="m485.68 243.96c0.588-1.642 1.135-3.298 1.643-4.967 1.668 1.226 3.319 2.482 4.951 3.77 17.568 49.075 3.214 107.36-43.112 141.35-1.904-1.08-3.809-2.161-5.713-3.243 45.017-32.847 59.109-89.307 42.231-136.91z" fill="#f39a34"/>
					
					
						<path d="m449.16 384.52c-0.069 0-0.141-0.018-0.204-0.054l-5.713-3.242c-0.123-0.069-0.201-0.196-0.21-0.336-7e-3 -0.142 0.056-0.276 0.169-0.36 42.985-31.363 59.898-86.195 42.086-136.44-0.032-0.09-0.032-0.188 1e-3 -0.278 0.582-1.628 1.132-3.292 1.636-4.947 0.039-0.129 0.138-0.23 0.266-0.273 0.126-0.042 0.268-0.02 0.376 0.059 1.688 1.241 3.357 2.513 4.962 3.78 0.061 0.048 0.107 0.113 0.133 0.185 8.743 24.421 9.6 51.62 2.412 76.588-7.574 26.313-23.365 48.872-45.668 65.237-0.074 0.054-0.16 0.081-0.246 0.081zm-4.952-3.7 4.923 2.793c44.051-32.47 61.239-88.927 42.789-140.61-1.417-1.119-2.887-2.241-4.375-3.342-0.444 1.436-0.923 2.875-1.427 4.287 8.354 23.657 9.083 49.969 2.052 74.108-7.365 25.288-22.563 46.977-43.962 62.762z"/>
					
				
				
					
						<path d="m479.09 245.15c0.609-1.597 1.179-3.209 1.71-4.835 1.645 1.183 3.272 2.396 4.883 3.639 16.878 47.606 2.787 104.06-42.232 136.91-1.903-1.081-3.81-2.16-5.713-3.241 43.711-31.7 57.536-86.339 41.352-132.48z" fill="#f39a34"/>
					
					
						<path d="m443.45 381.28c-0.07 0-0.14-0.018-0.204-0.053l-5.715-3.242c-0.122-0.069-0.201-0.197-0.208-0.338-9e-3 -0.139 0.056-0.275 0.17-0.357 41.728-30.262 58.288-83.309 41.207-132-0.033-0.093-0.031-0.193 3e-3 -0.285 0.603-1.582 1.176-3.202 1.702-4.815 0.041-0.125 0.141-0.225 0.266-0.266 0.126-0.042 0.262-0.02 0.369 0.058 1.632 1.171 3.277 2.398 4.896 3.647 0.063 0.048 0.11 0.114 0.138 0.189 8.399 23.693 9.146 50.061 2.102 74.247-7.425 25.49-22.805 47.325-44.479 63.14-0.075 0.055-0.161 0.079-0.247 0.079zm-4.951-3.699 4.923 2.794c42.797-31.367 59.631-86.037 41.911-136.17-1.428-1.101-2.878-2.183-4.317-3.225-0.466 1.399-0.963 2.8-1.484 4.173 8.01 22.93 8.628 48.409 1.742 71.765-7.217 24.467-22.001 45.43-42.775 60.662z"/>
					
				
				
					
						<path d="m472.5 246.35c0.629-1.554 1.221-3.122 1.774-4.703 1.621 1.139 3.229 2.307 4.816 3.507 16.185 46.137 2.359 100.78-41.353 132.48-1.905-1.081-3.81-2.161-5.715-3.242 42.409-30.556 55.97-83.37 40.478-128.04z" fill="#f39a34"/>
					
					
						<path d="m437.74 378.04c-0.071 0-0.143-0.018-0.206-0.054l-5.669-3.218c-0.122-0.07-0.224-0.212-0.231-0.352-8e-3 -0.142 0.035-0.288 0.15-0.37 40.47-29.159 56.675-80.423 40.327-127.56-0.032-0.095-0.03-0.198 7e-3 -0.292 0.631-1.557 1.225-3.132 1.768-4.684 0.043-0.123 0.141-0.217 0.264-0.257 0.125-0.041 0.259-0.019 0.366 0.055 1.635 1.15 3.26 2.332 4.826 3.515 0.067 0.05 0.115 0.117 0.142 0.194 8.058 22.966 8.692 48.503 1.793 71.907-7.276 24.671-22.247 45.779-43.294 61.042-0.073 0.054-0.158 0.079-0.243 0.079zm-4.949-3.7 4.921 2.794c41.537-30.263 58.017-83.149 41.032-131.73-1.387-1.044-2.816-2.088-4.259-3.109-0.479 1.349-0.997 2.712-1.54 4.06 7.664 22.201 8.171 46.848 1.429 69.42-7.067 23.644-21.438 43.882-41.583 58.564z"/>
					
				
				
					
						<path d="m492.27 242.76c0.564-1.686 1.09-3.386 1.575-5.099 1.691 1.271 3.363 2.572 5.016 3.903 18.263 50.544 3.641 110.65-43.988 145.79-1.905-1.082-3.81-2.163-5.715-3.243 46.326-33.995 60.681-92.278 43.112-141.35z" fill="#f39a34"/>
					
					
						<path d="m454.88 387.77c-0.07 0-0.141-0.019-0.205-0.054l-5.714-3.244c-0.122-0.068-0.201-0.196-0.21-0.335-8e-3 -0.142 0.055-0.276 0.168-0.36 44.245-32.465 61.512-89.081 42.967-140.88-0.03-0.088-0.032-0.184-2e-3 -0.272 0.562-1.677 1.09-3.386 1.569-5.081 0.037-0.131 0.138-0.236 0.268-0.279 0.13-0.044 0.271-0.021 0.381 0.062 1.688 1.267 3.378 2.583 5.025 3.911 0.06 0.047 0.105 0.11 0.131 0.182 9.086 25.147 10.054 53.177 2.724 78.926-7.724 27.136-23.927 50.423-46.856 67.34-0.072 0.052-0.159 0.081-0.246 0.081zm-4.955-3.704 4.925 2.794c45.311-33.575 62.852-91.815 43.667-145.05-1.454-1.171-2.943-2.334-4.432-3.459-0.427 1.471-0.885 2.947-1.369 4.401 8.698 24.386 9.537 51.529 2.362 76.453-7.516 26.108-23.122 48.523-45.153 64.858z"/>
					
				
				
					
						<path d="m498.86 241.56c0.545-1.729 1.049-3.474 1.512-5.231 1.713 1.314 3.406 2.659 5.078 4.037 18.958 52.011 4.07 113.94-44.865 150.23-1.903-1.08-3.809-2.162-5.713-3.243 47.629-35.144 62.251-95.25 43.988-145.79z" fill="#f39a34"/>
					
					
						<path d="m460.59 391.01c-0.07 0-0.14-0.018-0.203-0.055l-5.715-3.241c-0.121-0.07-0.2-0.196-0.208-0.335-9e-3 -0.142 0.055-0.276 0.168-0.359 45.5-33.573 63.12-91.972 43.843-145.32-0.03-0.085-0.032-0.178-4e-3 -0.265 0.536-1.702 1.042-3.456 1.505-5.212 0.035-0.135 0.136-0.242 0.267-0.287 0.129-0.046 0.276-0.022 0.387 0.063 1.702 1.304 3.413 2.665 5.09 4.045 0.057 0.047 0.102 0.109 0.127 0.178 9.431 25.873 10.508 54.733 3.036 81.264-7.875 27.959-24.488 51.971-48.044 69.439-0.075 0.055-0.161 0.083-0.249 0.083zm-4.955-3.703 4.925 2.795c46.57-34.678 64.461-94.704 44.546-149.49-1.479-1.217-2.986-2.418-4.489-3.578-0.409 1.521-0.85 3.037-1.314 4.515 9.042 25.112 9.995 53.089 2.677 78.793-7.667 26.934-23.686 50.076-46.345 66.962z"/>
					
				
			
			
				
					<path d="m474.96 306.1s-0.561-7.471 9.431-6.305c0 0 24.823 0.919 29.021-12.689 0 0 3.037 26.045-3.574 29.038 0 0-6.213 4.426-27.215 5.639-7.941 0.457-12.348 3.567-13.738 6.023-1e-3 0 6.304-17.33 6.075-21.706z" fill="#e91e29"/>
				
				
					<path d="m469.24 328.01-0.749-0.347c0.063-0.171 6.274-17.297 6.053-21.541-8e-3 -0.1-0.178-2.664 1.668-4.652 1.684-1.813 4.468-2.522 8.222-2.087 1e-3 -1e-3 0.343 0.012 0.932 0.012 3.978 0 24.005-0.599 27.648-12.41l0.807 0.075c0.125 1.075 2.992 26.379-3.815 29.463-0.188 0.144-6.48 4.468-27.361 5.673-7.713 0.446-12.041 3.41-13.405 5.814zm13.141-27.923c-2.493 0-4.363 0.653-5.562 1.946-1.602 1.726-1.451 4.014-1.448 4.036 0.184 3.515-3.619 14.828-5.314 19.668 2.247-2.058 6.37-4.013 12.538-4.368 20.645-1.192 26.938-5.518 26.999-5.561 5.36-2.437 4.104-21.103 3.575-26.926-4.868 10.491-22.346 11.34-27.804 11.34-0.637 0-0.993-0.013-0.993-0.013-0.719-0.083-1.378-0.122-1.991-0.122z"/>
				
			
			
				
					<path d="m457.78 347.02s2.535-3.399 12.097-0.304c0 0 13.191 3.831 31.288-5.608 0 0-9.528 26.313-17.963 28.222 0 0-6.364 2.895-25.731-5.313-7.325-3.104-12.369 0.024-14.705 1.608 0 0 13.282-14.577 15.014-18.605z" fill="#e91e29"/>
				
				
					<path d="m479.46 370.23c-3.821 0-10.765-1.013-22.157-5.84-2.018-0.856-4.021-1.291-5.951-1.291-4.146 0-7.099 2.004-8.357 2.861l-0.54-0.622c0.132-0.146 13.255-14.572 14.94-18.491l0.048-0.084c0.054-0.07 1.368-1.771 5.381-1.771 2.053 0 4.468 0.444 7.176 1.321 0.014 3e-3 2.645 0.749 7.07 0.749 5.365 0 13.867-1.098 23.897-6.332l0.943-0.492-0.362 1c-0.393 1.081-9.677 26.479-18.224 28.479-0.239 0.096-1.417 0.513-3.864 0.513zm-28.108-7.958c2.043 0 4.153 0.456 6.275 1.355 11.264 4.772 18.09 5.774 21.833 5.774 2.496 0 3.558-0.455 3.568-0.458 7.269-1.654 15.526-22.188 17.365-26.99-9.764 4.893-18.038 5.938-23.324 5.938-4.556 0-7.202-0.754-7.313-0.787-2.639-0.854-4.966-1.285-6.933-1.285-3.266 0-4.506 1.208-4.693 1.413-1.437 3.224-9.519 12.469-13.225 16.62 1.739-0.878 3.866-1.58 6.447-1.58z"/>
				
			
			
				
					<path d="m477.21 268.72s4.452-4.055 10.885-6.567c0 0 9.98-2.896 18.94-17.2 0 0 5.849 10.241 4.252 15.372 0 0-3.19 11.996-23.162 18.604-7.553 2.5-9.075 6.715-9.783 9.446 0-1e-3 0.224-15.487-1.132-19.655z" fill="#e91e29"/>
				
				
					<path d="m478.74 288.48-0.815-0.11c1e-3 -0.155 0.207-15.465-1.112-19.521l-0.082-0.254 0.198-0.18c0.046-0.041 4.582-4.136 11.013-6.646 0.134-0.04 9.982-3.051 18.739-17.035l0.367-0.586 0.345 0.601c0.242 0.425 5.918 10.458 4.288 15.701-0.128 0.483-3.474 12.272-23.428 18.875-6.878 2.275-8.67 5.905-9.513 9.155zm-1.058-19.623c0.962 3.415 1.087 12.474 1.086 16.957 1.069-2.343 3.416-5.354 9.225-7.277 19.533-6.464 22.859-18.2 22.893-18.318 1.31-4.214-2.675-12.188-3.879-14.45-8.837 13.761-18.391 16.664-18.797 16.783-5.51 2.154-9.608 5.514-10.528 6.305z"/>
				
			
		</g><g transform="matrix(1.0845 0 0 1.0845 16.186 -22.537)">
			
				
					
						<path d="m342.2 208.46c0.051-1.564 0.149-3.129 0.295-4.695-2.029 0.749-4.047 1.531-6.057 2.349-5.774 6.652-10.686 13.81-14.735 21.32 2.101 0.568 4.202 1.137 6.302 1.706 3.897-7.284 8.628-14.225 14.195-20.68z" fill="#f39a34"/>
					
					
						<path d="m328 229.56c-0.037 0-0.072-5e-3 -0.108-0.014l-6.302-1.706c-0.122-0.034-0.222-0.121-0.272-0.237-0.049-0.116-0.044-0.249 0.016-0.36 4.117-7.636 9.092-14.834 14.787-21.395 0.042-0.049 0.096-0.088 0.156-0.112 1.99-0.811 4.032-1.602 6.069-2.354 0.134-0.05 0.283-0.027 0.396 0.06s0.173 0.226 0.161 0.367c-0.145 1.545-0.243 3.117-0.294 4.67-2e-3 0.095-0.039 0.186-0.1 0.257-5.451 6.322-10.209 13.254-14.143 20.605-0.074 0.138-0.216 0.219-0.366 0.219zm-5.688-2.383 5.479 1.483c3.909-7.254 8.615-14.099 13.995-20.354 0.045-1.303 0.123-2.618 0.233-3.918-1.793 0.668-3.585 1.367-5.338 2.079-5.514 6.363-10.346 13.328-14.369 20.71z"/>
					
				
				
					
						<path d="m352.24 190.96c0.435-1.507 0.922-3.006 1.461-4.499-2.23 0.534-4.454 1.104-6.671 1.71-13.467 10.69-24.012 23.521-31.635 37.559 2.101 0.568 4.201 1.136 6.302 1.705 7.344-13.624 17.526-26.083 30.543-36.475z" fill="#f39a34"/>
					
					
						<path d="m321.7 227.85c-0.036 0-0.072-5e-3 -0.107-0.014l-6.303-1.705c-0.123-0.033-0.223-0.12-0.273-0.236s-0.043-0.25 0.017-0.361c7.909-14.564 18.589-27.244 31.743-37.686 0.043-0.035 0.094-0.061 0.148-0.075 2.203-0.603 4.452-1.178 6.684-1.713 0.145-0.033 0.303 0.014 0.405 0.127 0.101 0.113 0.132 0.273 0.081 0.417-0.534 1.478-1.022 2.983-1.453 4.473-0.024 0.083-0.073 0.155-0.14 0.208-12.629 10.084-22.87 22.313-30.436 36.348-0.075 0.136-0.216 0.217-0.366 0.217zm-5.687-2.382 5.479 1.481c7.583-13.973 17.806-26.161 30.389-36.23 0.356-1.223 0.751-2.456 1.176-3.675-1.95 0.475-3.908 0.98-5.833 1.505-12.896 10.252-23.394 22.671-31.211 36.919z"/>
					
				
				
					
						<path d="m330.67 203.77c0.126-1.636 0.3-3.271 0.524-4.907-2.106 0.817-4.203 1.672-6.286 2.56-6.186 7.046-11.458 14.634-15.814 22.603 2.101 0.568 4.202 1.137 6.303 1.706 4.203-7.741 9.294-15.114 15.273-21.962z" fill="#f39a34"/>
					
					
						<path d="m315.4 226.15c-0.037 0-0.073-5e-3 -0.109-0.015l-6.302-1.706c-0.123-0.034-0.223-0.121-0.273-0.237s-0.043-0.25 0.018-0.361c4.427-8.097 9.765-15.727 15.866-22.677 0.042-0.046 0.092-0.083 0.149-0.107 2.095-0.893 4.214-1.756 6.299-2.565 0.137-0.054 0.291-0.03 0.406 0.061 0.115 0.092 0.174 0.236 0.154 0.382-0.221 1.606-0.396 3.249-0.521 4.882-7e-3 0.088-0.042 0.173-0.102 0.241-5.856 6.707-10.978 14.07-15.222 21.886-0.073 0.135-0.215 0.216-0.363 0.216zm-5.686-2.382 5.478 1.482c4.221-7.722 9.293-15.002 15.079-21.645 0.108-1.368 0.25-2.743 0.424-4.097-1.836 0.72-3.695 1.48-5.535 2.263-5.919 6.754-11.113 14.151-15.446 21.997z"/>
					
				
				
					
						<path d="m320.52 223.09c-0.24-1.666-0.435-3.339-0.586-5.019-1.895 1.036-3.777 2.106-5.643 3.21-4.557 7.734-8.213 15.868-10.967 24.243 2.212 0.366 4.424 0.733 6.635 1.099 2.645-8.126 6.166-16.021 10.561-23.533z" fill="#f39a34"/>
					
					
						<path d="m309.96 247.04c-0.022 0-0.045-2e-3 -0.068-6e-3l-6.636-1.1c-0.119-0.02-0.224-0.09-0.287-0.194s-0.077-0.229-0.04-0.344c2.789-8.479 6.491-16.663 11.004-24.323 0.036-0.06 0.086-0.111 0.146-0.146 1.86-1.1 3.763-2.182 5.655-3.216 0.122-0.067 0.271-0.068 0.394-2e-3s0.205 0.189 0.217 0.329c0.15 1.66 0.346 3.341 0.584 4.997 0.013 0.093-5e-3 0.188-0.053 0.269-4.323 7.388-7.864 15.277-10.524 23.452-0.055 0.17-0.216 0.284-0.392 0.284zm-6.091-1.844 5.807 0.962c2.651-8.063 6.154-15.85 10.414-23.15-0.202-1.415-0.373-2.846-0.51-4.269-1.67 0.92-3.345 1.876-4.986 2.846-4.378 7.446-7.985 15.386-10.725 23.611z"/>
					
				
				
					
						<path d="m326.74 224.9c-0.269-1.626-0.496-3.259-0.678-4.899-1.865 0.996-3.716 2.027-5.553 3.089-4.395 7.512-7.916 15.406-10.561 23.532 2.211 0.368 4.424 0.734 6.636 1.101 2.536-7.88 5.921-15.537 10.156-22.823z" fill="#f39a34"/>
					
					
						<path d="m316.59 248.14c-0.023 0-0.045-1e-3 -0.068-6e-3l-6.636-1.1c-0.119-0.02-0.223-0.091-0.286-0.193-0.063-0.104-0.078-0.229-0.04-0.343 2.679-8.23 6.244-16.174 10.597-23.614 0.037-0.062 0.088-0.113 0.15-0.149 1.851-1.07 3.722-2.112 5.565-3.096 0.121-0.065 0.267-0.064 0.388-1e-3 0.122 0.064 0.204 0.185 0.219 0.322 0.179 1.616 0.406 3.257 0.674 4.876 0.017 0.096-2e-3 0.192-0.05 0.275-4.164 7.166-7.569 14.816-10.12 22.742-0.055 0.172-0.216 0.287-0.393 0.287zm-6.092-1.844 5.807 0.963c2.541-7.813 5.906-15.359 10.007-22.436-0.227-1.383-0.424-2.782-0.587-4.166-1.628 0.877-3.276 1.797-4.908 2.739-4.218 7.224-7.688 14.925-10.319 22.9z"/>
					
				
				
					
						<path d="m332.97 226.71c-0.299-1.584-0.555-3.178-0.769-4.779-1.833 0.958-3.655 1.947-5.461 2.97-4.234 7.286-7.62 14.943-10.155 22.822 2.211 0.367 4.423 0.733 6.635 1.099 2.428-7.631 5.678-15.05 9.75-22.112z" fill="#f39a34"/>
					
					
						<path d="m323.23 249.24c-0.023 0-0.045-1e-3 -0.068-5e-3l-6.636-1.099c-0.119-0.019-0.223-0.089-0.286-0.193s-0.078-0.228-0.041-0.343c2.569-7.981 5.998-15.688 10.192-22.903 0.037-0.064 0.089-0.117 0.154-0.153 1.764-0.999 3.606-2 5.473-2.976 0.119-0.063 0.262-0.063 0.382 0 0.121 0.062 0.203 0.179 0.22 0.313 0.212 1.585 0.47 3.186 0.765 4.757 0.019 0.098 1e-3 0.199-0.048 0.285-4.004 6.944-7.272 14.356-9.712 22.03-0.057 0.172-0.218 0.287-0.395 0.287zm-6.094-1.843 5.807 0.962c2.431-7.561 5.66-14.865 9.6-21.719-0.251-1.344-0.474-2.708-0.664-4.063-1.646 0.867-3.267 1.75-4.829 2.633-4.058 6.999-7.392 14.461-9.914 22.187z"/>
					
				
				
					
						<path d="m314.29 221.28c-0.21-1.707-0.375-3.421-0.496-5.141-1.926 1.076-3.838 2.186-5.734 3.33-4.719 7.96-8.51 16.332-11.373 24.953 2.212 0.366 4.423 0.733 6.636 1.1 2.753-8.374 6.41-16.507 10.967-24.242z" fill="#f39a34"/>
					
					
						<path d="m303.32 245.94c-0.023 0-0.046-1e-3 -0.068-5e-3l-6.636-1.1c-0.12-0.019-0.225-0.09-0.287-0.194s-0.077-0.229-0.039-0.344c2.899-8.731 6.738-17.153 11.41-25.034 0.034-0.059 0.083-0.108 0.142-0.143 1.881-1.135 3.814-2.259 5.745-3.338 0.125-0.069 0.274-0.07 0.399-2e-3s0.207 0.194 0.216 0.335c0.121 1.709 0.287 3.432 0.494 5.119 0.012 0.091-7e-3 0.183-0.054 0.261-4.483 7.609-8.161 15.739-10.93 24.162-0.055 0.17-0.216 0.283-0.392 0.283zm-6.09-1.843 5.807 0.962c2.76-8.313 6.399-16.339 10.82-23.865-0.175-1.442-0.321-2.909-0.433-4.371-1.704 0.959-3.404 1.95-5.065 2.951-4.535 7.666-8.278 15.845-11.129 24.323z"/>
					
				
				
					
						<path d="m314.33 244.06c-0.587-1.643-1.135-3.298-1.642-4.968-1.668 1.227-3.318 2.484-4.949 3.772-17.57 49.074-3.214 107.36 43.111 141.35 1.903-1.079 3.808-2.16 5.712-3.243-45.017-32.847-59.108-89.307-42.232-136.91z" fill="#f39a34"/>
					
					
						<path d="m350.85 384.63c-0.086 0-0.172-0.027-0.245-0.081-22.302-16.365-38.094-38.926-45.669-65.238-7.187-24.968-6.331-52.166 2.413-76.586 0.026-0.073 0.072-0.137 0.133-0.185 1.616-1.276 3.286-2.548 4.961-3.781 0.108-0.081 0.248-0.101 0.376-0.059 0.127 0.042 0.226 0.144 0.266 0.272 0.5 1.647 1.05 3.313 1.636 4.95 0.032 0.09 0.032 0.188 0 0.278-17.813 50.245-0.9 105.08 42.085 136.44 0.113 0.085 0.178 0.219 0.169 0.359-8e-3 0.141-0.087 0.268-0.209 0.336l-5.712 3.242c-0.064 0.036-0.134 0.054-0.204 0.054zm-42.761-141.51c-18.448 51.68-1.259 108.14 42.79 140.61l4.923-2.793c-21.4-15.785-36.597-37.475-43.963-62.763-7.031-24.138-6.301-50.45 2.052-74.106-0.505-1.419-0.984-2.859-1.428-4.289-1.477 1.095-2.946 2.218-4.374 3.344z"/>
					
				
				
					
						<path d="m320.92 245.25c-0.609-1.597-1.179-3.209-1.709-4.834-1.645 1.182-3.273 2.395-4.883 3.638-16.877 47.606-2.787 104.07 42.232 136.91 1.905-1.08 3.809-2.16 5.714-3.24-43.713-31.701-57.539-86.341-41.354-132.48z" fill="#f39a34"/>
					
					
						<path d="m356.56 381.39c-0.085 0-0.171-0.026-0.244-0.079-21.674-15.813-37.056-37.649-44.48-63.141-7.044-24.185-6.298-50.553 2.102-74.246 0.027-0.075 0.074-0.141 0.138-0.189 1.587-1.227 3.234-2.453 4.894-3.647 0.107-0.077 0.245-0.099 0.371-0.058 0.125 0.042 0.224 0.14 0.265 0.266 0.529 1.618 1.102 3.239 1.702 4.816 0.035 0.091 0.036 0.192 4e-3 0.284-17.082 48.696-0.521 101.74 41.208 132.01 0.114 0.082 0.178 0.218 0.169 0.355-7e-3 0.142-0.086 0.27-0.208 0.339l-5.714 3.241c-0.066 0.035-0.137 0.053-0.207 0.053zm-41.882-137.07c-17.719 50.133-0.887 104.8 41.911 136.17l4.923-2.794c-20.774-15.232-35.558-36.195-42.773-60.661-6.888-23.357-6.269-48.836 1.741-71.766-0.52-1.37-1.018-2.771-1.484-4.173-1.465 1.059-2.914 2.142-4.318 3.225z"/>
					
				
				
					
						<path d="m327.51 246.45c-0.629-1.553-1.221-3.121-1.775-4.701-1.621 1.137-3.228 2.308-4.816 3.505-16.185 46.137-2.359 100.78 41.354 132.48 1.903-1.081 3.808-2.163 5.712-3.244-42.405-30.554-55.966-83.37-40.475-128.04z" fill="#f39a34"/>
					
					
						<path d="m362.27 378.14c-0.086 0-0.171-0.026-0.244-0.079-21.047-15.261-36.017-36.371-43.292-61.04-6.902-23.405-6.266-48.942 1.791-71.908 0.027-0.078 0.076-0.146 0.141-0.194 1.604-1.209 3.229-2.392 4.828-3.514 0.106-0.075 0.241-0.095 0.365-0.055 0.123 0.04 0.221 0.134 0.264 0.257 0.545 1.559 1.141 3.134 1.767 4.684 0.038 0.092 0.041 0.196 8e-3 0.292-16.349 47.143-0.143 98.407 40.326 127.56 0.115 0.082 0.18 0.218 0.172 0.358-7e-3 0.142-0.087 0.268-0.209 0.337l-5.712 3.244c-0.063 0.036-0.134 0.053-0.205 0.053zm-41.005-132.64c-16.985 48.58-0.505 101.47 41.033 131.73l4.92-2.793c-20.145-14.683-34.517-34.921-41.582-58.564-6.744-22.571-6.236-47.218 1.429-69.419-0.542-1.344-1.059-2.707-1.542-4.06-1.413 0.998-2.843 2.041-4.258 3.107z"/>
					
				
				
					
						<path d="m307.74 242.86c-0.566-1.687-1.092-3.387-1.577-5.1-1.69 1.269-3.362 2.571-5.015 3.904-18.264 50.542-3.641 110.65 43.987 145.79 1.905-1.08 3.81-2.161 5.716-3.242-46.325-33.994-60.681-92.278-43.111-141.35z" fill="#f39a34"/>
					
					
						<path d="m345.13 387.87c-0.086 0-0.173-0.026-0.246-0.08-22.928-16.917-39.131-40.205-46.855-67.339-7.329-25.75-6.361-53.78 2.726-78.926 0.026-0.071 0.07-0.134 0.129-0.182 1.654-1.333 3.345-2.65 5.025-3.912 0.11-0.083 0.252-0.105 0.381-0.061 0.129 0.043 0.229 0.147 0.266 0.279 0.48 1.693 1.009 3.402 1.572 5.081 0.029 0.088 0.028 0.184-3e-3 0.272-18.544 51.796-1.278 108.41 42.966 140.88 0.113 0.085 0.176 0.219 0.168 0.36-8e-3 0.139-0.086 0.267-0.209 0.335l-5.715 3.244c-0.065 0.036-0.135 0.053-0.205 0.053zm-43.636-145.95c-19.184 53.232-1.643 111.47 43.667 145.05l4.926-2.795c-22.031-16.335-37.638-38.75-45.154-64.86-7.174-24.921-6.333-52.066 2.365-76.451-0.486-1.455-0.945-2.932-1.371-4.402-1.486 1.123-2.973 2.285-4.433 3.461z"/>
					
				
				
					
						<path d="m301.14 241.67c-0.545-1.732-1.049-3.477-1.512-5.232-1.713 1.314-3.407 2.659-5.08 4.036-18.958 52.011-4.069 113.94 44.865 150.23 1.905-1.079 3.81-2.162 5.713-3.243-47.627-35.141-62.25-95.247-43.986-145.79z" fill="#f39a34"/>
					
					
						<path d="m339.42 391.12c-0.087 0-0.174-0.027-0.247-0.083-23.557-17.467-40.17-41.479-48.044-69.438-7.472-26.531-6.395-55.391 3.036-81.264 0.025-0.07 0.069-0.131 0.126-0.178 1.666-1.371 3.378-2.732 5.091-4.045 0.11-0.086 0.255-0.11 0.386-0.063 0.131 0.044 0.231 0.152 0.267 0.286 0.459 1.744 0.966 3.497 1.506 5.213 0.028 0.086 0.025 0.18-5e-3 0.266-19.277 53.345-1.658 111.74 43.843 145.32 0.112 0.085 0.176 0.219 0.167 0.359-8e-3 0.139-0.086 0.267-0.208 0.335l-5.714 3.242c-0.063 0.037-0.134 0.054-0.204 0.054zm-44.515-150.4c-19.915 54.783-2.023 114.81 44.545 149.49l4.924-2.795c-22.658-16.887-38.676-40.029-46.343-66.961-7.316-25.704-6.364-53.683 2.678-78.794-0.466-1.488-0.908-3.004-1.315-4.516-1.511 1.168-3.018 2.369-4.489 3.578z"/>
					
				
			
			
				
					<path d="m325.04 306.2s0.561-7.471-9.431-6.306c0 0-24.823 0.919-29.021-12.688 0 0-3.036 26.044 3.575 29.038 0 0 6.213 4.427 27.214 5.638 7.942 0.459 12.348 3.568 13.739 6.023 1e-3 0-6.306-17.328-6.076-21.705z" fill="#e91e29"/>
				
				
					<path d="m330.76 328.11c-1.363-2.401-5.691-5.366-13.402-5.813-20.88-1.204-27.173-5.53-27.431-5.712-6.739-3.044-3.872-28.35-3.746-29.425l0.808-0.074c3.644 11.811 23.669 12.41 27.647 12.41 0.613 0 0.958-0.013 0.963-0.013 0.685-0.081 1.376-0.123 2.022-0.123 2.731 0 4.807 0.745 6.169 2.212 1.844 1.988 1.675 4.553 1.667 4.661-0.222 4.234 5.99 21.361 6.053 21.533zm-43.929-39.127c-0.53 5.822-1.795 24.483 3.507 26.886 0.13 0.082 6.493 4.413 27.067 5.602 6.169 0.355 10.292 2.31 12.541 4.369-1.695-4.84-5.499-16.15-5.315-19.659 2e-3 -0.032 0.145-2.338-1.455-4.054-1.495-1.604-4.044-2.222-7.514-1.819-0.033 4e-3 -0.39 0.017-1.026 0.017-5.458-1e-3 -22.936-0.85-27.805-11.342z"/>
				
			
			
				
					<path d="m342.23 347.12s-2.535-3.4-12.096-0.304c0 0-13.191 3.831-31.287-5.609 0 0 9.527 26.313 17.961 28.223 0 0 6.364 2.895 25.732-5.313 7.326-3.104 12.37 0.024 14.705 1.607 0 1e-3 -13.282-14.576-15.015-18.604z" fill="#e91e29"/>
				
				
					<path d="m320.54 370.34c-2.448 0-3.626-0.417-3.864-0.512-8.546-2.001-17.832-27.398-18.224-28.479l-0.362-1 0.944 0.492c10.03 5.232 18.531 6.332 23.896 6.332 4.427 0 7.058-0.746 7.083-0.754 2.696-0.872 5.11-1.317 7.164-1.317 4.012 0 5.326 1.701 5.38 1.772l0.049 0.084c1.685 3.917 14.808 18.345 14.94 18.49l-0.539 0.621c-1.26-0.855-4.211-2.859-8.358-2.859-1.931 0-3.933 0.434-5.952 1.29-11.391 4.827-18.336 5.84-22.157 5.84zm-20.933-28.275c1.837 4.801 10.087 25.333 17.288 26.964l0.08 0.024c8e-3 4e-3 1.069 0.46 3.565 0.46 3.744 0 10.571-1.002 21.833-5.774 2.122-0.899 4.233-1.356 6.275-1.356 2.581 0 4.707 0.702 6.448 1.582-3.707-4.152-11.792-13.399-13.227-16.62-0.18-0.199-1.417-1.413-4.692-1.413-1.967 0-4.295 0.431-6.921 1.281-0.122 0.036-2.77 0.789-7.326 0.789-5.286-1e-3 -13.559-1.046-23.323-5.937z"/>
				
			
			
				
					<path d="m322.8 268.82s-4.452-4.056-10.884-6.566c0 0-9.981-2.896-18.939-17.201 0 0-5.849 10.241-4.253 15.372 0 0 3.192 11.996 23.162 18.604 7.553 2.499 9.075 6.715 9.785 9.446-2e-3 0-0.227-15.486 1.129-19.655z" fill="#e91e29"/>
				
				
					<path d="m321.27 288.58c-0.845-3.25-2.636-6.881-9.515-9.157-19.953-6.604-23.3-18.393-23.433-18.891-1.625-5.226 4.052-15.259 4.294-15.684l0.344-0.601 0.367 0.586c8.773 14.008 18.605 16.993 18.704 17.021 6.465 2.523 11.003 6.618 11.048 6.66l0.197 0.179-0.083 0.254c-1.319 4.058-1.113 19.367-1.11 19.521zm-28.266-42.71c-1.204 2.26-5.19 10.234-3.885 14.433 0.036 0.134 3.403 11.883 22.897 18.334 5.81 1.923 8.156 4.934 9.225 7.277-1e-3 -4.483 0.123-13.542 1.086-16.957-0.921-0.791-5.022-4.154-10.562-6.317-0.372-0.107-9.925-3.01-18.761-16.77z"/>
				
			
		</g><g transform="matrix(1.0845 0 0 1.0845 16.186 -22.537)">
			
				<path d="m446.32 395.56c6.197 8.96 10.129 18.499 11.88 27.883-31.212-30.197-85.172-30.197-116.38 0 1.753-9.384 5.685-18.923 11.88-27.883-11.72-0.253-24.446 1.629-37.304 6.38 44.849-43.389 122.38-43.389 167.23 0-12.857-4.752-25.582-6.633-37.304-6.38z" fill="#e91e29"/>
			
			
				<path d="m341.16 424.64 0.238-1.278c1.784-9.551 5.656-18.768 11.511-27.403-12.224-0.167-24.511 1.979-36.383 6.366l-0.432-0.686c21.453-20.757 52.035-32.659 83.904-32.659s62.452 11.902 83.905 32.659l-0.432 0.686c-11.451-4.229-23.252-6.376-35.074-6.376-0.438 0-0.874 3e-3 -1.311 0.01 5.857 8.636 9.729 17.852 11.511 27.403l0.238 1.277-0.933-0.902c-14.801-14.319-35.906-22.53-57.905-22.53s-43.104 8.211-57.904 22.53zm58.838-24.262c21.749 0 42.637 7.952 57.535 21.864-1.907-9.218-5.794-18.11-11.563-26.449l-0.438-0.633 0.769-0.019c0.696-0.014 1.394-0.021 2.096-0.021 11.283 0 22.544 1.937 33.504 5.761-21.219-19.771-50.947-31.073-81.903-31.073-30.957 0-60.685 11.303-81.902 31.073 10.959-3.824 22.22-5.761 33.504-5.761 0.702 0 1.4 8e-3 2.095 0.021l0.769 0.019-0.438 0.633c-5.767 8.339-9.653 17.231-11.562 26.449 14.899-13.912 35.786-21.864 57.534-21.864z"/>
			
		</g><g transform="matrix(1.0845 0 0 1.0845 16.186 -22.537)">
			<path d="m369.02 418.67c-1.086-5.278-5.433-1.55-5.433-1.55 0.156-17.85 21.264-35.7 21.264-35.7h26.586s21.109 17.851 21.265 35.7c0 0-4.347-3.729-5.432 1.55 0 0-6.562-31.042-29.126-31.042-22.607 0-29.124 31.042-29.124 31.042z" fill="#e91e29"/>
			<path d="m426.86 418.76c-0.065-0.308-6.757-30.715-28.722-30.715-22.007 0-28.654 30.407-28.719 30.714l-0.811-2e-3c-0.341-1.656-1.042-2.498-2.083-2.498-1.279 0-2.66 1.167-2.674 1.18l-0.691 0.59 7e-3 -0.908c0.157-17.834 21.199-35.834 21.411-36.014l0.117-0.097h26.888l0.117 0.097c0.211 0.18 21.255 18.18 21.41 36.014l8e-3 0.908-0.692-0.59c-0.013-0.013-1.393-1.18-2.673-1.18-1.041 0-1.74 0.842-2.082 2.498zm-28.721-31.542c19.817 0 27.519 23.8 29.175 29.941 0.649-1.393 1.64-1.728 2.439-1.728 0.951 0 1.891 0.475 2.506 0.865-0.753-16.506-19.342-33.036-20.979-34.459h-26.28c-1.639 1.423-20.228 17.953-20.981 34.459 0.616-0.391 1.556-0.865 2.507-0.865 0.799 0 1.789 0.335 2.439 1.726 1.649-6.144 9.321-29.939 29.174-29.939z"/>
		</g><g transform="matrix(1.0845 0 0 1.0845 16.186 -22.537)">
			
				<path d="m438.79 374.42 4.751 4.056s3.233 10.135-32.835 17.863c0 0 8.915-25.115 28.084-21.919z" fill="#7f0000"/>
			
			
				<path d="m410.06 396.9 0.249-0.699c0.079-0.225 8.175-22.477 25.145-22.477 1.114 0 2.258 0.098 3.398 0.287l0.113 0.02 4.928 4.206 0.035 0.112c0.021 0.063 0.474 1.558-0.819 3.789-2.319 4-9.811 9.783-32.323 14.607zm25.394-22.347c-14.693 0-22.565 17.458-24.089 21.218 22.776-4.978 29.217-10.926 31.026-14.048 0.916-1.579 0.826-2.693 0.77-3.021l-4.558-3.89c-1.058-0.171-2.117-0.259-3.149-0.259z"/>
			
		</g><g transform="matrix(1.0845 0 0 1.0845 16.186 -22.537)">
			
				<path d="m355.84 374.42-4.752 4.056s-3.233 10.135 32.836 17.863c0 0-8.915-25.115-28.084-21.919z" fill="#7f0000"/>
			
			
				<path d="m384.57 396.9-0.725-0.154c-22.513-4.824-30.004-10.607-32.324-14.607-1.293-2.231-0.839-3.726-0.82-3.789l0.036-0.112 4.93-4.206 0.113-0.02c1.141-0.189 2.284-0.287 3.397-0.287 16.97 0 25.065 22.252 25.145 22.477zm-33.101-18.199c-0.057 0.333-0.148 1.477 0.81 3.093 1.844 3.105 8.325 9.023 30.988 13.977-1.524-3.76-9.396-21.218-24.09-21.218-1.032 0-2.09 0.088-3.148 0.259z"/>
			
		</g><g transform="matrix(1.0845 0 0 1.0845 16.186 -22.537)">
			<path d="m410.7 376.6s13.196-14.906 24.79-19.165c0 0 3.075 15.585 8.045 21.043 0 0-5.808-5.223-32.835 17.863z" fill="#e91e29"/>
			<path d="m410.29 397.24v-20.797l0.104-0.117c0.132-0.15 13.398-15.034 24.957-19.282l0.455-0.165 0.095 0.475c0.03 0.155 3.11 15.538 7.944 20.845l-0.583 0.587c-1e-3 0-0.512-0.401-1.88-0.401-3.369 0-11.799 2.375-30.409 18.272zm0.829-20.481v18.686c18.339-15.546 26.824-17.889 30.264-17.889 0.357 0 0.667 0.024 0.936 0.063-4.031-5.607-6.601-17.094-7.132-19.625-10.716 4.18-22.823 17.385-24.068 18.765z"/>
		</g><g transform="matrix(1.0845 0 0 1.0845 16.186 -22.537)">
			<path d="m385.01 375.18s-19.557-19.165-26.183-17.746c0 0-2.366 16.768-7.809 21.043 0 0 7.867-3.567 31.027 17.863 0 0 7.166-17.241 2.965-21.16z" fill="#e91e29"/>
			<path d="m382.2 397.05-0.436-0.403c-17.533-16.223-26.232-17.977-29.158-17.977-0.97 0-1.417 0.187-1.422 0.188l-0.422-0.706c5.25-4.122 7.631-20.607 7.655-20.774l0.041-0.287 0.283-0.062c0.26-0.055 0.544-0.084 0.844-0.084 7.325 0 24.968 17.207 25.715 17.94 4.354 4.062-2.575 20.9-2.872 21.615zm-29.594-19.207c3.723 0 12.458 2.322 29.281 17.791 2.047-5.104 5.994-17.207 2.84-20.15-0.188-0.183-18.154-17.709-25.143-17.709-0.136 0-0.267 8e-3 -0.392 0.021-0.333 2.208-2.437 15.043-6.912 20.054 0.103-4e-3 0.212-7e-3 0.326-7e-3z"/>
		</g><g transform="matrix(1.0845 0 0 1.0845 16.186 -22.537)">
			<path d="m372.66 421.75c-0.952-4.618-4.754-1.357-4.754-1.357 0.137-15.614 18.604-31.232 18.604-31.232h23.257s18.468 15.618 18.608 31.232c0 0-3.805-3.261-4.755 1.357 0 0-5.741-27.159-25.481-27.159-19.778 0-25.479 27.159-25.479 27.159z" fill="#e91e29"/>
			<path d="m423.22 421.83c-0.056-0.269-5.901-26.829-25.075-26.829-19.21 0-25.017 26.561-25.074 26.829l-0.811-2e-3c-0.442-2.145-1.445-2.145-1.773-2.145-1.1 0-2.293 1.009-2.305 1.019l-0.691 0.591 7e-3 -0.909c0.137-15.624 18.565-31.387 18.751-31.544l0.117-0.1h23.559l0.116 0.1c0.188 0.157 18.615 15.92 18.755 31.544l8e-3 0.909-0.692-0.591c-0.012-8e-3 -1.206-1.019-2.306-1.019-0.33 0-1.332 0-1.773 2.145zm-25.075-27.658c17.232 0 24.012 20.517 25.538 26.101 0.579-1.14 1.428-1.418 2.122-1.418 0.8 0 1.593 0.38 2.137 0.715-0.727-14.346-16.805-28.678-18.322-30h-22.949c-1.518 1.322-17.595 15.658-18.32 30 0.544-0.335 1.335-0.715 2.136-0.715 0.691 0 1.541 0.278 2.122 1.416 1.517-5.587 8.273-26.099 25.536-26.099z"/>
		</g><g transform="matrix(1.0845 0 0 1.0845 16.186 -22.537)">
			<path d="m376.02 424.39c-0.825-4.01-4.126-1.178-4.126-1.178 0.118-13.562 16.155-27.123 16.155-27.123h20.197s16.037 13.562 16.154 27.123c0 0-3.304-2.832-4.127 1.178 0 0-4.984-23.584-22.126-23.584-17.175 0-22.127 23.584-22.127 23.584z" fill="#e91e29"/>
			<path d="m419.87 424.48c-0.049-0.233-5.116-23.256-21.721-23.256-16.646 0-21.673 23.022-21.721 23.254l-0.811-1e-3c-0.375-1.817-1.211-1.817-1.486-1.817-0.78 0-1.684 0.628-1.966 0.87l-0.692 0.595 8e-3 -0.911c0.118-13.595 15.642-26.876 16.301-27.436l0.117-0.099h20.5l0.116 0.099c0.66 0.56 16.184 13.841 16.3 27.436l8e-3 0.907-0.691-0.591c-9e-3 -8e-3 -1.032-0.87-1.966-0.87-0.275 0-1.11 0-1.483 1.817zm-21.72-24.085c14.867 0 20.794 17.531 22.19 22.572 0.513-0.91 1.233-1.136 1.826-1.136 0.664 0 1.32 0.292 1.795 0.573-0.695-12.351-14.468-24.675-15.868-25.896h-19.887c-1.4 1.222-15.173 13.546-15.869 25.895 0.474-0.279 1.13-0.571 1.795-0.571 0.592 0 1.313 0.226 1.824 1.135 1.391-5.046 7.299-22.572 22.194-22.572z"/>
		</g><g transform="matrix(1.0845 0 0 1.0845 16.186 -22.537)">
			<path d="m390.54 396.34 14.177-0.101c12.281 1.657 9.958-17.512 7.828-22.242-2.129-4.732-15.662-4.496-15.662-4.496s-13.257 1.421-13.823 6.625c0 0-5.064 20.305 7.48 20.214z" fill="#e91e29"/>
			<path d="m390.45 396.76c-2.762 0-4.917-0.967-6.407-2.872-4.379-5.606-1.516-17.357-1.393-17.855 0.586-5.419 13.626-6.878 14.181-6.938l0.361-4e-3c2.27 0 13.692 0.229 15.724 4.741 1.501 3.336 3.179 14.003-0.394 19.529-1.712 2.646-4.381 3.764-7.868 3.293zm6.742-26.841-0.309 2e-3c-0.092 0.012-12.895 1.44-13.419 6.256-0.039 0.174-2.9 11.912 1.233 17.201 1.323 1.695 3.26 2.553 5.752 2.553v0.415l0.08-0.415 14.176-0.1c0.538 0.068 1.006 0.1 1.448 0.1 2.468 0 4.376-1.016 5.671-3.02 3.358-5.193 1.738-15.621 0.336-18.738-1.859-4.136-13.631-4.254-14.968-4.254z"/>
		</g>
</svg>
