<?xml version="1.0" encoding="UTF-8" standalone="no"?>
<!-- Created with Inkscape (http://www.inkscape.org/) -->

<svg
   xmlns:dc="http://purl.org/dc/elements/1.1/"
   xmlns:cc="http://creativecommons.org/ns#"
   xmlns:rdf="http://www.w3.org/1999/02/22-rdf-syntax-ns#"
   xmlns:svg="http://www.w3.org/2000/svg"
   xmlns="http://www.w3.org/2000/svg"
   xmlns:xlink="http://www.w3.org/1999/xlink"
   xmlns:sodipodi="http://sodipodi.sourceforge.net/DTD/sodipodi-0.dtd"
   xmlns:inkscape="http://www.inkscape.org/namespaces/inkscape"
   id="svg2"
   version="1.1"
   inkscape:version="0.48.2 r9819"
   width="1200"
   height="600"
   sodipodi:docname="Flag of Montenegro (19th century).svg">
  <metadata
     id="metadata8">
    <rdf:RDF>
      <cc:Work
         rdf:about="">
        <dc:format>image/svg+xml</dc:format>
        <dc:type
           rdf:resource="http://purl.org/dc/dcmitype/StillImage" />
        <dc:title />
      </cc:Work>
    </rdf:RDF>
  </metadata>
  <defs
     id="defs6">
    <style
       id="style2994"
       type="text/css">
   
    .fil0 {fill:red}
    .fil1 {fill:white}
   
  </style>
  </defs>
  <sodipodi:namedview
     pagecolor="#ffffff"
     bordercolor="#666666"
     borderopacity="1"
     objecttolerance="10"
     gridtolerance="10"
     guidetolerance="10"
     inkscape:pageopacity="0"
     inkscape:pageshadow="2"
     inkscape:window-width="913"
     inkscape:window-height="761"
     id="namedview4"
     showgrid="false"
     inkscape:zoom="0.55"
     inkscape:cx="600"
     inkscape:cy="300"
     inkscape:window-x="200"
     inkscape:window-y="99"
     inkscape:window-maximized="0"
     inkscape:current-layer="svg2">
    <inkscape:grid
       type="xygrid"
       id="grid2828" />
  </sodipodi:namedview>
  <use
     height="1052.3622"
     width="744.09448"
     y="0"
     x="0"
     style="fill:#f5bf22"
     xlink:href="#star"
     transform="matrix(200,0,0,200,599.99999,300)"
     id="use25" />
  <use
     height="1052.3622"
     width="744.09448"
     y="0"
     x="0"
     style="fill:#dd0000"
     xlink:href="#star"
     transform="matrix(180,0,0,180,599.99999,300)"
     id="use27" />
  <use
     xlink:href="#star"
     transform="matrix(200,0,0,200,600,300)"
     id="use25-1"
     style="fill:#f5bf22"
     x="0"
     y="0"
     width="1"
     height="1" />
  <use
     xlink:href="#star"
     transform="matrix(180,0,0,180,600,300)"
     id="use27-7"
     style="fill:#dd0000"
     x="0"
     y="0"
     width="1"
     height="1" />
  <rect
     style="fill:#ffffff;fill-rule:evenodd"
     y="1.6689301e-005"
     id="rect2422"
     class="fil0"
     x="0"
     width="1200"
     height="600" />
  <rect
     style="fill:#d80514;fill-opacity:1;fill-rule:evenodd"
     id="rect2420"
     class="fil1"
     x="40"
     y="40"
     width="1120"
     height="520" />
  <g
     id="g3040"
     style="fill:#ffffff">
    <path
       style="fill:#ffffff;fill-rule:evenodd"
       inkscape:connector-curvature="0"
       id="path12"
       class="fil0"
       d="m 450,250 c 47.55563,20.21864 98.52612,30.62592 150,30.62592 51.47388,0 102.44438,-10.40726 150,-30.62592 l 0,100 c -47.55562,-20.21864 -98.52612,-30.62437 -150,-30.62437 -51.47388,0 -102.44437,10.40574 -150,30.62437 l 0,-100 z" />
    <path
       style="fill:#ffffff;fill-rule:evenodd"
       inkscape:connector-curvature="0"
       id="path14"
       class="fil0"
       d="m 650,150 c -20.21826,47.55555 -30.62435,98.52501 -30.62435,150 0,51.47462 10.40612,102.44545 30.62435,150 l -100,0 c 20.21826,-47.55405 30.62435,-98.52501 30.62435,-150 0,-51.47461 -10.40613,-102.44395 -30.62435,-150 l 100,0 z" />
  </g>
</svg>
