<?xml version="1.0" encoding="utf-8"?>
<!-- Generator: Adobe Illustrator 22.0.1, SVG Export Plug-In . SVG Version: 6.00 Build 0)  -->
<svg version="1.1" id="레이어_1" xmlns="http://www.w3.org/2000/svg" xmlns:xlink="http://www.w3.org/1999/xlink" x="0px"
	 y="0px" viewBox="0 0 512 382" enable-background="new 0 0 512 382" xml:space="preserve">
<g>
	<polygon fill="#005BBB" points="512,0 314,0 289,0 0,0 0,382 314,382 314,67.4798 	"/>
	<g>
		<g>
			<path fill="#FFFFFF" d="M78.87245,47.4393c0,0,2.14607-7.86893,4.29214-7.86893s1.10703,9.04737,1.10703,9.04737
				L78.87245,47.4393z"/>
			<g>
				<path fill="#917F44" d="M84.89186,49.48547l-6.90767-1.50791l0.19805-0.72654c0.53722-1.96968,2.48419-8.39602,4.98235-8.39602
					c0.42404,0,0.80827,0.17954,1.11146,0.51975c1.49847,1.68046,0.85123,8.06244,0.70628,9.32479L84.89186,49.48547z
					 M79.7691,46.90278l3.87438,0.84565c0.38213-4.01585,0.08348-7.19898-0.48342-7.46445
					C82.3661,40.28572,80.83689,43.30224,79.7691,46.90278z"/>
			</g>
		</g>
		<g>
			<path fill="#FFFFFF" d="M62.94005,59.167c0,0-3.28151-7.46708-1.6132-8.81704c1.66831-1.34995,6.55167,6.33688,6.55167,6.33688
				L62.94005,59.167z"/>
			<g>
				<path fill="#917F44" d="M68.90652,56.97125l-6.31839,3.17294l-0.30305-0.68937c-0.82137-1.86911-3.35022-8.08952-1.4082-9.66095
					c0.32964-0.26674,0.74127-0.36886,1.19097-0.2951c2.22195,0.36376,5.73327,5.73211,6.41465,6.80462L68.90652,56.97125z
					 M63.29959,58.18591l3.5438-1.77973c-2.22904-3.36221-4.4635-5.64884-5.07119-5.49861
					C61.15611,51.40835,61.86481,54.71525,63.29959,58.18591z"/>
			</g>
		</g>
		<g>
			<path fill="#FFFFFF" d="M56.06532,77.77736c0,0-6.92786-4.3047-6.31475-6.36133s8.98656,1.52386,8.98656,1.52386
				L56.06532,77.77736z"/>
			<g>
				<path fill="#917F44" d="M59.7459,72.5934l-3.41851,6.18897l-0.63968-0.39735c-1.73411-1.07755-7.33638-4.77931-6.62268-7.17336
					c0.12114-0.40637,0.40297-0.72329,0.81562-0.91665c2.03852-0.95593,7.9696,1.4876,9.13793,1.98716L59.7459,72.5934z
					 M55.80732,76.76481l1.91727-3.47131c-3.73931-1.51349-6.87509-2.13668-7.29145-1.66924
					C50.20799,72.38561,52.66191,74.71288,55.80732,76.76481z"/>
			</g>
		</g>
		<g>
			<path fill="#FFFFFF" d="M60.12511,98.35167c0,0-7.2522,3.73246-8.70174,2.14992
				c-1.44955-1.58253,5.92392-6.92731,5.92392-6.92731L60.12511,98.35167z"/>
			<g>
				<path fill="#917F44" d="M57.56823,92.53081l3.55378,6.1123l-0.66953,0.34469c-1.81532,0.93425-7.86926,3.83915-9.55662,1.99697
					c-0.28642-0.3127-0.41355-0.71729-0.36745-1.17066c0.22706-2.24005,5.37039-6.07343,6.39917-6.81918L57.56823,92.53081z
					 M59.12385,98.05286l-1.99334-3.4282c-3.21944,2.43069-5.36501,4.80093-5.17785,5.39828
					C52.49022,100.60722,55.74753,99.69741,59.12385,98.05286z"/>
			</g>
		</g>
		<g>
			<path fill="#FFFFFF" d="M32.6462,105.70403c0,0-3.69007-7.27386-2.09909-8.71414
				c1.59097-1.44028,6.89261,5.96426,6.89261,5.96426L32.6462,105.70403z"/>
			<g>
				<path fill="#917F44" d="M38.48189,103.18117l-6.13295,3.51804l-0.34077-0.67153
					c-0.92364-1.82075-3.79315-7.89153-1.94115-9.56812c0.31436-0.28458,0.7197-0.40935,1.17279-0.36061
					c2.23869,0.24013,6.04197,5.40575,6.7817,6.43887L38.48189,103.18117z M32.95085,104.70454l3.43979-1.97329
					c-2.41185-3.23358-4.76954-5.39294-5.36797-5.20928C30.43525,98.0561,31.32604,101.31867,32.95085,104.70454z"/>
			</g>
		</g>
		<g>
			<path fill="#FFFFFF" d="M28.70559,125.09094c0,0-7.44408-3.33337-7.11328-5.45379s9.10988,0.3008,9.10988,0.3008
				L28.70559,125.09094z"/>
			<g>
				<path fill="#917F44" d="M31.65516,119.45889l-2.55466,6.59267l-0.68732-0.30768c-1.86333-0.8344-7.91275-3.74869-7.52767-6.217
					c0.06536-0.41898,0.30198-0.77094,0.68486-1.01806c1.89136-1.22153,8.09729,0.40172,9.32221,0.73952L31.65516,119.45889z
					 M28.3137,124.12232l1.43275-3.69773c-3.90895-0.99658-7.10007-1.19216-7.44975-0.67295
					C22.17604,120.53637,24.92079,122.51228,28.3137,124.12232z"/>
			</g>
		</g>
		<g>
			<path fill="#FFFFFF" d="M36.09895,143.50142c0,0-8.02492,1.45821-8.95065-0.47794s7.68482-4.90141,7.68482-4.90141
				L36.09895,143.50142z"/>
			<g>
				<path fill="#917F44" d="M35.34843,137.18819l1.61929,6.88242l-0.74089,0.13472c-2.00874,0.36497-8.6463,1.38052-9.7239-0.87326
					c-0.18292-0.38257-0.18668-0.80666-0.01053-1.22694c0.86969-2.07678,6.90658-4.24577,8.10798-4.65953L35.34843,137.18819z
					 M35.22814,142.92392l-0.90833-3.86017c-3.78786,1.38753-6.53078,3.03004-6.52574,3.65601
					C28.13812,143.43529,31.5192,143.5137,35.22814,142.92392z"/>
			</g>
		</g>
		<g>
			<path fill="#FFFFFF" d="M52.91661,156.0294c0,0-2.87141,7.63419-5.00811,7.43381s-0.25744-9.11122-0.25744-9.11122
				L52.91661,156.0294z"/>
			<g>
				<path fill="#917F44" d="M47.11454,153.43015l6.7367,2.14629l-0.26502,0.70486c-0.71878,1.91092-3.25727,8.1274-5.74451,7.89413
					c-0.42219-0.03958-0.78798-0.25421-1.05807-0.62125c-1.33503-1.81303-0.09473-8.1067,0.16746-9.35001L47.11454,153.43015z
					 M51.97379,156.47986l-3.7785-1.20369c-0.75542,3.96262-0.75528,7.15973-0.21564,7.47696
					C48.77029,162.82553,50.57448,159.96497,51.97379,156.47986z"/>
			</g>
		</g>
		<g>
			<path fill="#FFFFFF" d="M64.50005,210.42259c0,0-2.48333-7.76909-0.6831-8.93733s5.85369,6.98676,5.85369,6.98676
				L64.50005,210.42259z"/>
			<g>
				<path fill="#917F44" d="M70.66329,208.86227l-6.61534,2.49538l-0.22937-0.71727c-0.62158-1.9447-2.48663-8.39529-0.39105-9.7552
					c0.35571-0.23083,0.77575-0.28938,1.21528-0.16904c2.17178,0.59393,5.10296,6.29979,5.66854,7.43762L70.66329,208.86227z
					 M64.96014,209.48444l3.71037-1.39972c-1.86553-3.57671-3.84884-6.08429-4.46889-5.99838
					C63.53656,202.52,63.89585,205.88286,64.96014,209.48444z"/>
			</g>
		</g>
		<g>
			<path fill="#FFFFFF" d="M138.63734,345.55255c0,0-7.80624,2.36395-8.94676,0.54602
				c-1.1405-1.81793,7.07567-5.74591,7.07567-5.74591L138.63734,345.55255z"/>
			<g>
				<path fill="#917F44" d="M137.17168,339.36612l2.39368,6.6528l-0.72069,0.21835
					c-1.95401,0.59171-8.43242,2.35767-9.76006,0.24149c-0.22536-0.35922-0.27747-0.78009-0.15039-1.21774
					c0.62715-2.16241,6.37726-5.0058,7.52364-5.55386L137.17168,339.36612z M137.70634,345.07813l-1.34267-3.73138
					c-3.60489,1.81052-6.14258,3.75513-6.06618,4.37643C130.72092,346.39481,134.08888,346.0871,137.70634,345.07813z"/>
			</g>
		</g>
		<g>
			<path fill="#FFFFFF" d="M145.07556,352.70612c0,0-7.80624,2.36395-8.94676,0.54602
				c-1.1405-1.8179,7.07567-5.74591,7.07567-5.74591L145.07556,352.70612z"/>
			<g>
				<path fill="#917F44" d="M143.60989,346.51968l2.39368,6.65283l-0.72069,0.21832
					c-1.95401,0.59171-8.43242,2.35767-9.76006,0.24149c-0.22536-0.35922-0.27747-0.78009-0.15039-1.21774
					c0.62715-2.16241,6.37726-5.0058,7.52364-5.55386L143.60989,346.51968z M144.14456,352.23172l-1.34267-3.73138
					c-3.60489,1.81049-6.14259,3.75513-6.06618,4.3764C137.15913,353.54837,140.5271,353.24066,144.14456,352.23172z"/>
			</g>
		</g>
		<g>
			<path fill="#FFFFFF" d="M153.65117,355.76715c0,0-6.8064,4.49426-8.41847,3.07764
				c-1.61206-1.41663,5.14067-7.52689,5.14067-7.52689L153.65117,355.76715z"/>
			<g>
				<path fill="#917F44" d="M150.48026,350.25665l4.19347,5.6925l-0.62836,0.41501
					c-1.70375,1.12497-7.40833,4.66702-9.28488,3.01797c-0.31853-0.27991-0.48863-0.6684-0.49179-1.12411
					c-0.01634-2.25146,4.68265-6.61816,5.62482-7.47073L150.48026,350.25665z M152.62349,355.57828l-2.35211-3.19272
					c-2.93794,2.76434-4.81482,5.35254-4.56421,5.92618C146.30472,358.8345,149.44464,357.57803,152.62349,355.57828z"/>
			</g>
		</g>
		<g>
			<path fill="#FFFFFF" d="M167.99719,351.06937c0,0-2.349,7.81076-4.49435,7.75522c-2.14534-0.05554-0.8725-9.073-0.8725-9.073
				L167.99719,351.06937z"/>
			<g>
				<path fill="#917F44" d="M162.03276,348.8681l6.86632,1.68619l-0.21678,0.72116
					c-0.58801,1.95511-2.70064,8.32892-5.19797,8.26425c-0.4239-0.01096-0.80334-0.20038-1.09764-0.54834
					c-1.45448-1.71869-0.64229-8.08176-0.46471-9.33994L162.03276,348.8681z M167.08698,351.58252l-3.85121-0.94565
					c-0.48593,4.00464-0.26976,7.19443,0.29008,7.47446C164.31958,358.13013,165.92635,355.15421,167.08698,351.58252z"/>
			</g>
		</g>
		<g>
			<path fill="#FFFFFF" d="M57.51931,228.9334c0,0-6.8175-4.47743-6.15291-6.51799c0.6646-2.04057,8.94543,1.74918,8.94543,1.74918
				L57.51931,228.9334z"/>
			<g>
				<path fill="#917F44" d="M61.32899,223.84355l-3.57295,6.10112l-0.62949-0.4133
					c-1.70648-1.12079-7.21397-4.96216-6.44034-7.33751c0.13132-0.4032,0.42102-0.71294,0.8384-0.89586
					c2.0619-0.9044,7.92971,1.68739,9.08511,2.21614L61.32899,223.84355z M57.28684,227.91469l2.00389-3.42206
					c-3.7001-1.60696-6.81923-2.30875-7.2472-1.85193C51.79932,223.39616,54.19398,225.78436,57.28684,227.91469z"/>
			</g>
		</g>
		<g>
			<path fill="#FFFFFF" d="M61.88326,248.28703c0,0-8.15475,0.16028-8.76-1.89868c-0.60525-2.05894,8.3679-3.61368,8.3679-3.61368
				L61.88326,248.28703z"/>
			<g>
				<path fill="#917F44" d="M62.14874,241.93489l0.50144,7.05254l-0.7529,0.01489c-2.04123,0.04008-8.7558-0.01546-9.46034-2.41222
					c-0.11959-0.40683-0.05571-0.8261,0.18519-1.21292c1.18964-1.91159,7.49509-3.0905,8.74708-3.30743L62.14874,241.93489z
					 M61.11564,247.57809l-0.28136-3.9556c-3.96061,0.76595-6.93029,1.9502-7.0251,2.56895
					C54.03477,246.95268,57.36012,247.56909,61.11564,247.57809z"/>
			</g>
		</g>
		<g>
			<path fill="#FFFFFF" d="M76.48873,263.33575c0,0-4.05168,7.07883-6.12911,6.54037
				c-2.07743-0.53842,1.1983-9.03574,1.1983-9.03574L76.48873,263.33575z"/>
			<g>
				<path fill="#917F44" d="M71.17522,259.84482l6.3084,3.19275l-0.37399,0.65363c-1.01421,1.77188-4.51123,7.50418-6.92949,6.87741
					c-0.41048-0.10638-0.73737-0.37659-0.9455-0.78198c-1.02894-2.00266,1.19879-8.01813,1.65583-9.20374L71.17522,259.84482z
					 M75.48616,263.63016l-3.5383-1.79065c-1.37746,3.79153-1.88698,6.94778-1.40481,7.34698
					C71.31204,269.384,73.54917,266.84763,75.48616,263.63016z"/>
			</g>
		</g>
		<g>
			<path fill="#FFD500" d="M170.43817,264.1925c-5.72285,5.00751-27.89893,7.86893-40.06,10.01501
				c-12.16108,2.14606-33.62179-7.86893-42.10592-12.21115c-8.49129-4.3494-12.26123,3.62686-17.26873,4.34222
				c-3.69122,0.52936-2.71835-5.15775-2.52518-9.61441c0.07152-1.59528,0.04292-3.03311-0.33624-3.97739
				c-1.43072-3.57678-9.29964-3.57678-10.83764-7.21797c-1.53804-3.63403,6.54549-3.51239,5.83014-7.08917
				c-0.71536-3.57678-5.72286-4.29214-7.19649-9.62157c-1.4808-5.32225,4.33506-5.40092,7.64001-7.01048
				c3.30495-1.60956-3.30495-12.69759,1.80272-14.5289c5.10766-1.83847,12.77627,11.84631,14.80074,15.92386
				c2.02447,4.0775,17.29017,15.23709,30.90343,20.90271c13.61322,5.67278,17.14709,2.20331,17.14709-7.09633
				c0-9.29965,11.44571-14.30714,12.87642-25.03751c1.43073-10.73035,11.44572-3.57678,15.73785-3.57678
				c4.29214,0,7.86894-6.43822,7.86894-6.43822l2.95442,6.1163l7.77592,16.05977
				C175.44566,224.13251,176.16103,259.185,170.43817,264.1925z"/>
		</g>
		<g>
			<path fill="#F2C406" d="M170.43817,264.1925c-5.72285,5.00751-27.89893,7.86893-40.06,10.01501
				c-12.16108,2.14606-33.62179-7.86893-42.10592-12.21115c-8.49129-4.3494-12.26123,3.62686-17.26873,4.34222
				c-3.69122,0.52936-2.71835-5.15775-2.52518-9.61441c11.02363-0.744,37.871,6.35953,39.72375,3.89154
				c2.14607-2.86142-30.76035-14.30714-29.32964-17.16856c1.43072-2.86143,40.77536,10.73035,50.79036,10.73035
				s11.44571-17.16856,17.16856-21.46071c5.72287-4.29214,0.71536-16.45322,6.43822-15.73785
				c5.39383,0.67244,13.49162-7.91901,14.40015-8.9062l7.77592,16.05977C175.44566,224.13251,176.16103,259.185,170.43817,264.1925z
				"/>
		</g>
		<g>
			<g>
				<path fill="#917F44" d="M126.66201,275.22256c-12.6424,0-30.90531-8.59198-38.71556-12.58929
					c-5.20345-2.66724-8.44981-0.3996-11.58927,1.79187c-1.73355,1.20996-3.3707,2.35284-5.25236,2.62183
					c-0.97314,0.13971-1.77232-0.07126-2.37312-0.62805c-1.50022-1.38879-1.29623-4.50381-1.08002-7.80255
					c0.04261-0.65179,0.08523-1.29938,0.11212-1.92322c0.05553-1.2442,0.07335-2.786-0.28538-3.67949
					c-0.59869-1.49638-2.81532-2.35216-4.95929-3.17929c-2.45066-0.94519-4.98515-1.92322-5.87375-4.02737
					c-1.05208-2.48558,1.34374-3.68297,3.09266-4.5576c1.82647-0.91306,2.91941-1.54808,2.69516-2.66933
					c-0.28014-1.40067-1.40661-2.34656-2.71123-3.44196c-1.69618-1.42442-3.6187-3.03886-4.47343-6.12943
					c-1.31615-4.73016,2.45589-5.93942,5.48673-6.91116c0.92424-0.2962,1.79747-0.57634,2.5296-0.93332
					c0.98885-0.48134,0.47713-3.10384,0.02585-5.41827c-0.68881-3.52998-1.54564-7.92342,1.84882-9.14037
					c6.26322-2.25365,14.73748,14.37561,15.68267,16.27927c1.85126,3.72768,16.88983,14.87999,30.53786,20.56023
					c6.73582,2.80695,11.15405,3.40703,13.50865,1.8373c1.80656-1.20436,2.64801-3.83316,2.64801-8.27341
					c0-4.94603,2.98508-8.63249,6.14516-12.53622c2.97705-3.67738,6.05539-7.47911,6.73756-12.59558
					c0.37619-2.82231,1.3371-4.68546,2.93758-5.69632c2.64766-1.67242,6.27335-0.50647,9.47218,0.52255
					c1.55995,0.50159,3.03363,0.97592,4.03716,0.97592c3.82689,0,7.20981-6.00928,7.2437-6.07005l0.6696-1.20576l11.39786,23.55788
					l0.00349,0.15649c0.02934,1.44469,0.65424,35.44511-5.25166,40.61327c-4.95615,4.33618-20.9944,6.96985-33.88095,9.08517
					c-2.3609,0.38773-4.57263,0.75101-6.52589,1.0954C129.30025,275.12405,128.01239,275.22256,126.66201,275.22256z
					 M83.46534,259.99887c1.53096,0,3.22819,0.38492,5.13325,1.36084c6.6436,3.40005,29.28353,14.3295,41.65523,12.14362
					c1.95816-0.34579,4.17583-0.70978,6.54266-1.09888c12.03671-1.97562,28.52171-4.68265,33.17049-8.75055
					c4.46436-3.90582,4.95511-29.57275,4.76649-39.35094l-10.09779-20.86621c-1.30217,1.93999-4.26595,5.67326-7.78929,5.67326
					c-1.22812,0-2.80553-0.50789-4.47551-1.0451c-2.90021-0.93262-6.18672-1.99098-8.26958-0.67484
					c-1.22009,0.77055-1.96689,2.30046-2.28369,4.67567c-0.73528,5.51538-3.9425,9.47638-7.0439,13.30746
					c-2.99625,3.70042-5.82625,7.19618-5.82625,11.63573c0,4.96278-1.04404,7.97021-3.28512,9.46381
					c-2.82301,1.882-7.54164,1.3385-14.85239-1.70735c-13.20512-5.49582-29.06767-16.8102-31.26893-21.24486
					c-3.35114-6.74979-10.08975-16.94432-13.91768-15.56879c-2.07831,0.74539-1.69548,3.58727-0.92843,7.52032
					c0.60358,3.09406,1.17363,6.01556-0.80338,6.97893c-0.82434,0.40099-1.7877,0.70976-2.71962,1.00876
					c-3.40528,1.0919-5.44656,1.92532-4.54469,5.16678c0.73632,2.66304,2.40315,4.06232,4.0148,5.41618
					c1.44783,1.21555,2.81567,2.36403,3.19396,4.25652c0.45478,2.27391-1.71469,3.35883-3.45803,4.22997
					c-2.2086,1.10378-2.86702,1.65216-2.41468,2.72101c0.65248,1.54459,2.8988,2.41154,5.07107,3.24915
					c2.4297,0.93752,4.94218,1.90715,5.77211,3.98198c0.45792,1.14079,0.45234,2.80064,0.38667,4.27467
					c-0.02759,0.63293-0.07056,1.29169-0.11387,1.95395c-0.17604,2.6875-0.37549,5.73334,0.62419,6.65897
					c0.17395,0.16138,0.48762,0.36469,1.19843,0.26129c1.54529-0.22076,3.04655-1.26865,4.6362-2.37802
					C77.68939,261.75095,80.19873,259.99887,83.46534,259.99887z"/>
			</g>
		</g>
		<g>
			<path fill="#FFD500" d="M145.40067,130.42073l-35.76785,20.03c0,0-3.88438-5.15059-9.23524-12.1754
				c-11.2168-14.7149-28.88612-37.64925-30.82476-38.61496c-2.86143-1.43072-16.45321,2.86143-15.0225-3.57679
				c1.43071-6.43821,6.07337-8.50561,6.25221-11.04511c0.186-2.54667-8.39828-6.12346-6.25221-10.4156
				c2.14607-4.29214,7.86893-1.43072,8.58429-4.29214c0.71535-2.86143-4.29214-14.30714,0.71535-15.73786s5.0075,2.86143,9.29964,0
				c4.29214-2.86143,2.86143-14.30714,9.29964-10.015c3.44802,2.29627,3.10467,7.49693,2.62539,12.97659
				c-0.42924,4.74994-0.9586,9.71452,0.77972,13.17686C89.60281,78.19965,90.31817,99.66037,145.40067,130.42073z"/>
		</g>
		<g>
			<path fill="#F2C406" d="M145.40067,130.42073l-35.76785,20.03c0,0-3.88438-5.15059-9.23524-12.1754
				c1.44499-5.73718,2.29627-13.19835-0.77975-18.58496c-5.72286-10.015-22.17607-19.31464-18.59929-24.32214
				c3.57679-5.0075-6.43822-18.59929-5.72285-28.61429c0.50792-7.08921,6.38101-8.79888,9.77896-9.19948
				c-0.42924,4.74994-0.9586,9.71452,0.77972,13.17686C89.60281,78.19965,90.31817,99.66037,145.40067,130.42073z"/>
		</g>
		<g>
			<g>
				<path fill="#917F44" d="M109.43755,151.37985l-0.37584-0.49809c-0.00035-0.0007-3.88417-5.15002-9.23328-12.17226
					c-25.57612-33.55367-29.90424-38.03932-30.57767-38.41027c-0.78801-0.39401-3.03748-0.21936-5.21324-0.04995
					c-3.90722,0.30563-7.94856,0.6193-9.60527-1.2903c-0.66261-0.76286-0.85752-1.78246-0.58018-3.03049
					c0.88092-3.96486,2.94701-6.36906,4.45561-8.12462c0.96336-1.12158,1.72447-2.0074,1.78141-2.81567
					c0.04855-0.66436-1.29414-1.86594-2.4786-2.92605c-2.33295-2.08774-5.23664-4.68615-3.70009-7.75925
					c1.35317-2.70634,3.98616-2.94701,5.90833-3.1227c1.72063-0.15719,2.43948-0.29376,2.62181-1.02309
					c0.1977-0.79081-0.21272-2.77131-0.60987-4.6865c-0.96301-4.64563-2.16179-10.42717,1.82262-11.56552
					c2.604-0.744,4.04065-0.06951,5.19542,0.4726c1.17921,0.55328,1.95779,0.9183,3.90408-0.38003
					c1.49288-0.99514,2.24248-3.31272,2.96726-5.5538c0.7915-2.44646,1.53899-4.7574,3.32879-5.38055
					c1.06919-0.37061,2.31129-0.07091,3.79719,0.91935c3.90617,2.6012,3.3934,8.46273,2.94107,13.63405l-0.04716,0.52115
					c-0.40797,4.48286-0.82993,9.11836,0.75343,12.2725c0.52883,1.05313,0.99584,2.36473,1.5369,3.88347
					c3.35883,9.42854,10.34788,29.04811,57.71934,55.50236l1.1167,0.62384L109.43755,151.37985z M67.40264,98.63134
					c1.04649,0,1.90855,0.0985,2.49013,0.38912c0.59031,0.29411,2.38918,1.19039,31.07367,38.8214
					c4.37179,5.73962,7.76484,10.22807,8.86128,11.67973l34.10975-19.10156C97.09939,104.01748,90.07331,84.29207,86.6827,74.77411
					c-0.52534-1.47437-0.97873-2.74755-1.46774-3.72174c-1.76673-3.51915-1.32592-8.36143-0.89978-13.04409l0.04681-0.51801
					c0.50473-5.77036,0.65527-10.34264-2.3092-12.31686c-1.07269-0.71571-1.92602-0.97174-2.53379-0.75867
					c-1.11774,0.38877-1.7587,2.37102-2.43738,4.46959c-0.76321,2.3588-1.62807,5.0323-3.53522,6.30374
					c-2.61727,1.74508-3.98302,1.10517-5.3051,0.48482c-1.03671-0.48552-2.1087-0.98711-4.19469-0.39226
					c-2.70704,0.77334-1.65776,5.83358-0.81491,9.89973c0.48832,2.35529,0.87394,4.21564,0.59695,5.32396
					c-0.44675,1.78699-2.27077,1.95361-3.87997,2.10066c-1.84917,0.16906-3.76156,0.3437-4.75845,2.33784
					c-0.97069,1.94138,0.8687,3.81081,3.37454,6.05329c1.63715,1.46529,3.0511,2.73044,2.95155,4.09444
					c-0.09012,1.27912-0.98746,2.32352-2.12372,3.6456c-1.48835,1.73215-3.34066,3.88801-4.14404,7.50252
					c-0.17605,0.7922-0.08977,1.37518,0.26406,1.78246c1.18481,1.36469,5.19368,1.05312,8.41418,0.80198
					C65.19998,98.72391,66.38793,98.63134,67.40264,98.63134z"/>
			</g>
		</g>
		<g>
			<path fill="#FFD500" d="M236.01498,176.98329c-0.04295,2.42508,0.02144,4.3923,0.23604,5.65851
				c0.17885,1.05154,0.651,3.3121,1.30196,6.4883c0.00716,0.05008,0.02148,0.10011,0.02859,0.15019
				c0.50076-0.59372,0.9872-1.18747,1.48796-1.77408c3.74135-4.40657,7.55417-8.74879,11.38136-13.07674
				c3.85573-4.31358,7.72583-8.61288,11.67462-12.84779c3.92731-4.25638,7.94046-8.44121,12.03943-12.56168
				c-3.05453,4.9431-6.19498,9.81468-9.42123,14.6219c-3.20477,4.82866-6.48828,9.58577-9.78609,14.33575
				c-2.2319,3.18333-4.47098,6.35237-6.7458,9.49995c-1.10168,1.53799-2.21048,3.07603-3.33359,4.6069
				c-1.74548,2.40359-3.51955,4.79286-5.30794,7.16069c0.63667,3.33359,1.31627,7.02481,1.98871,10.93784
				c0.35052,2.06023,0.70103,4.18483,1.04439,6.35954c0.64384-0.79408,1.2948-1.58812,1.95291-2.36787
				c1.35921-1.65959,2.78276-3.26204,4.17055-4.89302l4.27786-4.80006l4.37798-4.72134
				c1.50226-1.53802,2.96155-3.11183,4.4996-4.62839c3.02594-3.06171,6.12344-6.06621,9.42123-8.91331
				c-2.05307,3.84146-4.30643,7.51842-6.63135,11.14523c-1.14459,1.83136-2.36069,3.59827-3.54102,5.40099l-3.65546,5.30077
				l-3.76279,5.22211c-1.28769,1.70972-2.54668,3.44803-3.87727,5.12914c-1.30191,1.70256-2.64679,3.36931-4.00598,5.02895
				c-0.62952,0.75111-1.25188,1.50227-1.88855,2.24623c0.63667,4.77858,1.18752,9.65016,1.58095,14.44305
				c1.78839-2.45366,3.61971-4.87158,5.52971-7.24657c2.12462-2.64684,4.33505-5.24358,6.61705-7.79025
				c2.28198-2.54666,4.63553-5.04326,7.19647-7.40393c-1.25903,3.24771-2.71832,6.35239-4.24921,9.40692
				c-1.53799,3.0546-3.14038,6.06627-4.82866,9.01353c-1.68108,2.96158-3.44087,5.85878-5.27934,8.71304
				c-1.39491,2.17467-2.83995,4.32074-4.37798,6.39529c0.41492,17.57632-2.28915,31.88348-12.02516,32.99942
				c-21.55371,2.46085-24.02165-23.17758-24.2935-30.35258v-0.00717c-0.04291-1.15887-0.02864-1.83131-0.02864-1.83131
				s-3.57678,8.58429-7.86893,17.88394c-4.29214,9.29962,4.29214,22.17606,5.72285,27.18356
				c1.43073,5.00751-6.4382,15.73785-10.015,20.03c-3.57678,4.29214,1.43073,21.46072-5.00749,24.32214
				s-27.18358,14.30713-35.76787,15.02249c-8.58427,0.71536-5.00749-2.86142-11.44571-3.57678
				c-4.96458-0.55084-5.2507-3.64835-5.12193-5.04324c0.03575-0.41492,0.11444-0.6796,0.11444-0.6796
				s-6.43822-0.71536-7.15358-5.72287c-0.71535-5.00751,42.92143-15.73785,44.35214-22.17606
				c1.15172-5.18634,3.23343-15.95248,4.37082-22.93436c0.27901-1.68112,0.50076-3.14044,0.63669-4.24924
				c0.651-5.20065-11.11664-12.76913-17.56201-17.32596c-0.64384-0.45779-1.23039-0.88705-1.75264-1.27332
				c-5.72285-4.29214,4.29214-52.93643,0-65.0975s-17.16856-13.59178-21.46071-13.59178s-4.29214-7.86893-10.015-9.29965
				c-5.72286-1.43071-5.72286-7.86893-10.73036-7.86893s-2.86143-5.00749-6.43821-8.58429
				c-0.36484-0.36484-1.16604-0.80835-2.30343-1.30911c-9.97208-4.37798-46.2121-13.21979-51.34836-15.14409
				c-1.11596-0.41493-2.09599-0.42924-2.99735-0.17885c-3.69838,1.05156-5.98754,6.61705-10.59444,6.61705
				c-5.72286,0-1.43071-6.4382-2.86143-11.44571c-1.43071-5.00749-12.16107-2.14607-14.30714-5.00749
				c-2.14607-2.86143,10.015-10.015,5.0075-10.015s-10.015-7.86893-9.29964-12.16108s9.29964-4.29214,7.86893-5.0075
				s-3.57679-7.86893,0-13.59178c3.57679-5.72286,6.43821,5.72285,12.16107,10.015
				c5.72285,4.29214,12.16107,12.16107,15.73785,16.45322c3.57679,4.29214,47.92893,10.015,53.65179,6.4382
				c5.72285-3.57678,20.03-13.59178,23.60678-15.73785c3.5768-2.14607,9.29965-16.45322,5.72287-19.31464
				c-0.92996-0.744-1.61671-1.92432-2.1246-3.26203c-0.77975-2.03163-1.13744-4.43522-1.30911-6.23077
				c-1.07303-1.07304-2.07455-2.00299-3.0045-2.66827c-5.00751-3.57679-8.58429-11.44572-5.00751-12.87643
				c3.57678-1.43072,21.46072,15.0225,25.03751,14.30714c3.57678-0.71535,1.43071-7.86893-4.29214-7.86893
				s-17.88393-7.15357-25.03751-10.015c-5.98037-2.38931-4.46381-13.78495-3.79854-19.12864
				c0.12875-1.0516,0.22176-1.85995,0.22176-2.33207c0-0.75828,0.35052-1.72404,0.96576-2.71123
				c1.69539-2.73263,5.3723-5.67994,9.04924-5.1577c5.00751,0.71536,15.02251,10.73036,22.17607,9.29964
				c4.0847-2.0388,7.81174-3.10467,11.15244-3.49811c0.44353-0.05008,0.87271-0.093,1.30196-0.1216
				c12.24692-0.85128,19.02133,7.19649,19.02133,7.19649c8.22659-6.08054,13.2341-6.08054,16.09554-4.64982
				c2.86142,1.43071,3.57678,8.58429,0.71535,10.73036c-2.3535,1.76691-3.25487,4.97886-3.49811,6.06621
				c-0.02859,0.11449-0.04292,0.20033-0.06435,0.26468c-0.00717,0.07156-0.01433,0.10732-0.01433,0.10732
				c4.29214,0,5.36517,1.78839,11.08803,4.64982c5.72287,2.86143,3.5768,17.88393-0.71535,20.74536
				c-1.00148,0.67244-2.47511,0.86555-4.18483,0.82263c-0.15024,0-0.30043-0.00712-0.45067-0.01427
				c2.8185,26.94033-8.05493,39.33032-10.74469,46.04753c-2.86142,7.15358,5.00751,35.05251,2.14607,50.075
				c-2.86142,15.02251,7.15358,27.18358,15.02251,37.19858c6.99622,8.9062,5.50826,26.29654,6.10202,34.56607
				c0.07152,1.03012,0.17883,1.91714,0.3362,2.63251c1.43071,6.4382,10.015,11.44571,14.30714,4.29214
				c4.29214-7.15359-6.43822-46.49823-12.87643-88.7043s31.47571-85.84285,35.05251-104.44214
				c3.57678-18.59929-10.015-22.89143-13.5918-20.03c-3.57678,2.86143,0.71536,9.29964,1.43073,18.59929
				c0.71535,9.29964-2.86143,25.0375-8.58429,28.61428c-5.72285,3.57679-1.43071-9.29964-5.00751-12.87643
				c-0.05008-0.05008-0.10016-0.10016-0.13591-0.15024c-3.44803-3.70555-3.79855-13.79922-3.79855-13.79922
				s-6.4382-25.0375,10.015-30.045s24.32214,9.29964,27.18356,22.17607c2.86145,12.87643-16.4532,56.51321-20.74535,61.52071
				c-0.06435,0.07869-0.12875,0.15736-0.19312,0.25037c-2.5753,3.61253-5.35806,19.32179-6.84598,33.02803l3.59824-3.79855
				c4.80006-5.10762,9.6144-10.20811,14.3143-15.40878c4.74998-5.15773,9.3998-10.40128,13.92802-15.74501
				c2.2605-2.67543,4.47809-5.38662,6.59558-8.16936c2.12457-2.78275,4.17053-5.62986,5.80151-8.75597
				c-1.07303,3.36931-2.73267,6.54549-4.41373,9.65733c-1.73114,3.09746-3.57678,6.11629-5.4725,9.11363
				c-3.81281,5.97322-7.87604,11.76048-11.98935,17.5191c-3.19766,4.37798-6.43822,8.73451-9.73604,13.04094
				c-0.99432,1.30911-1.99583,2.61107-3.00452,3.90587c-2.17467,2.78275-4.35649,5.55118-6.56697,8.31244
				C238.76193,173.62115,237.39561,175.30223,236.01498,176.98329z"/>
		</g>
		<g>
			<path fill="#F2C406" d="M220.53465,261.20233c-3.25487-2.9902-6.22362-16.63922-7.89041-17.75517
				c-1.02296-0.67961-2.04591,4.64981-2.83279,10.41559c-0.04291-1.15887-0.02864-1.83131-0.02864-1.83131
				s-3.57678,8.58429-7.86893,17.88394c-4.29214,9.29962,4.29214,22.17606,5.72285,27.18356
				c1.43073,5.00751-6.4382,15.73785-10.015,20.03c-3.57678,4.29214,1.43073,21.46072-5.00749,24.32214
				s-27.18358,14.30713-35.76787,15.02249c-8.58427,0.71536-5.00749-2.86142-11.44571-3.57678
				c-4.96458-0.55084-5.2507-3.64835-5.12193-5.04324c8.46268-4.90024,25.6241-14.27139,33.02086-14.27139
				c10.015,0,10.015-16.45322,15.73787-21.46072c5.72285-5.00748,9.29964-17.88391-1.43073-15.73785
				c-1.80983,0.36484-3.71986,0.31476-5.64418-0.04291c0.27901-1.68112,0.50076-3.14044,0.63669-4.24924
				c0.651-5.20065-11.11664-12.76913-17.56201-17.32596c6.08769-6.1449,21.14595-12.56885,18.27736-14.86511
				c-3.57678-2.86142,0-13.59178,3.5768-19.31464c3.57678-5.72285,2.14607-16.45322-7.15358-26.46822
				c-9.29964-10.015-10.015-14.30714-2.86142-16.45322c7.15356-2.14607-2.14607-8.58427-7.15358-12.87642
				c-5.00749-4.29214-2.86142,4.29214-7.15356,3.57678s0-5.72285-5.72287-9.29964c-5.72285-3.5768-2.86142,5.72285-6.4382,5.72285
				c-3.5768,0-0.71536-6.43822-3.5768-9.29965c-2.86142-2.86142-0.71535,4.29214-3.57678,6.43822
				c-2.86142,2.14607,0-12.87643-7.15356-11.44571c-7.15358,1.43071-9.29964-5.00751-16.45322-9.29965
				c-3.56247-2.1389-5.88022,1.93147-7.31093,6.55981c-9.97208-4.37798-46.2121-13.21979-51.34836-15.14409
				c-1.11596-0.41493-2.09599-0.42924-2.99735-0.17885c-3.18335-3.18335-5.76578-5.36517-7.01765-5.54402
				c-5.0075-0.71535-7.15357-7.86893-5.72286-11.44571s-5.72286-5.72285-8.58429-7.86893s-0.71536-10.015,1.43071-5.0075
				s15.73786,4.29214,18.59929,7.86893c2.86143,3.57678-2.86143,6.4382-2.86143,10.73035s5.0075,2.14607,7.15357,0.71536
				s17.16857,5.72285,20.74535,3.57678c3.57679-2.14607,29.32964,2.14607,32.90643-1.43071
				c3.57678-3.57678,12.87643,3.57678,18.59928,0s15.02251-2.86143,20.03,3.57678c5.00751,6.43822,7.15358,20.03,7.15358,20.03
				s5.72285-7.86893,2.14607-17.88393c-3.5768-10.015,4.29214-31.47572,6.4382-40.77536
				c2.14607-9.29964-0.71535-2.86143-4.29213-4.29214c-3.5768-1.43072,0-8.58429-7.15358-9.29964
				c-7.15356-0.71535,3.57678,7.86893,0,7.86893s-7.86893-7.86893-10.73036-7.15357
				c-0.92279,0.22892-2.52518,0.3076-4.27066,0.31476c-0.77975-2.03163-1.13744-4.43522-1.30911-6.23077
				c-1.07303-1.07304-2.07455-2.00299-3.0045-2.66827c-5.00751-3.57679-8.58429-11.44572-5.00751-12.87643
				c3.57678-1.43072,21.46072,15.0225,25.03751,14.30714c3.57678-0.71535,1.43071-7.86893-4.29214-7.86893
				s-17.88393-7.15357-25.03751-10.015c-5.98037-2.38931-4.46381-13.78495-3.79854-19.12864
				c0.84412,1.28048,1.47363,2.66827,1.65247,4.10614c0.71535,5.72286,14.30714,8.58428,14.30714,10.73035
				s5.00751,5.72286,7.86893,4.29214c2.86143-1.43072,23.6068,0,27.18358-0.71535c3.57678-0.71536,2.86142-10.015,2.14607-15.73786
				c-0.37912-3.02599-5.16486-5.45818-9.59293-7.07489c0.44353-0.05008,0.87271-0.093,1.30196-0.1216
				c12.24692-0.85128,19.02133,7.19649,19.02133,7.19649c8.22659-6.08054,13.2341-6.08054,16.09554-4.64982
				c2.86142,1.43071,3.57678,8.58429,0.71535,10.73036c-2.3535,1.76691-3.25487,4.97886-3.49811,6.06621
				c-0.02859,0.11449-0.04292,0.20033-0.06435,0.26468c-5.15775,0.27184-8.24094-0.92279-8.24094,1.89571
				c0,4.29214,15.02251,0.71535,17.88393,7.86893c2.86143,7.15357-5.00749,7.86893-10.73035,8.58429
				c-5.72287,0.71535-12.16107-4.29214-12.16107,0.71535s19.31464,7.15357,19.31464,7.15357l0.10732,0.10728
				c-0.15024,0-0.30043-0.00712-0.45067-0.01427c2.8185,26.94033-8.05493,39.33032-10.74469,46.04753
				c-2.86142,7.15358,5.00751,35.05251,2.14607,50.075c-2.86142,15.02251,7.15358,27.18358,15.02251,37.19858
				C221.42885,235.54247,219.94089,252.9328,220.53465,261.20233z"/>
		</g>
		<g>
			<path fill="#F2C406" d="M244.11995,128.99001c-0.06435,0.07869-0.12875,0.15736-0.19312,0.25037
				c4.69986-18.82104,18.07704-56.51321,18.07704-60.34036c0-5.0075-3.57678-20.03-17.88393-20.74536
				c-14.30714-0.71535-11.44571,16.45321-11.44571,29.32965c0,5.02894-0.54369,8.85612-1.20895,11.65315
				c-3.44803-3.70555-3.79855-13.79922-3.79855-13.79922s-6.4382-25.0375,10.015-30.045s24.32214,9.29964,27.18356,22.17607
				C267.72675,80.34573,248.41209,123.98251,244.11995,128.99001z"/>
		</g>
		<g>
			<path fill="#F2C406" d="M249.70689,159.72173c-0.99432,1.30911-1.99583,2.61107-3.00452,3.90587
				c-2.17467,2.78275-4.35649,5.55118-6.56697,8.31244c-1.37347,1.68112-2.73979,3.3622-4.12042,5.04326
				c-0.04295,2.42508,0.02144,4.3923,0.23604,5.65851c0.17885,1.05154,0.651,3.3121,1.30196,6.4883l-3.44803,1.38063
				c0,0-8.58429-17.88393-1.43071-17.88393C235.77174,172.6268,242.77509,166.57486,249.70689,159.72173z"/>
		</g>
		<g>
			<path fill="#F2C406" d="M244.87823,192.08452c-1.74548,2.40359-3.51955,4.79286-5.30794,7.16069
				c0.63667,3.33359,1.31627,7.02481,1.98871,10.93784c-2.52524-2.53951-6.73869-7.15356-6.73869-9.65732
				c0-2.13892,7.42542-8.37685,13.39151-13.04811C247.11014,189.01561,246.00134,190.55365,244.87823,192.08452z"/>
		</g>
		<g>
			<g>
				<path fill="#917F44" d="M154.76773,357.28534c-3.0766,0-4.14684-0.77264-5.30022-1.88409
					c-0.80408-0.77475-1.5638-1.50687-4.14578-1.79327c-5.77875-0.64133-5.86642-4.617-5.75534-5.81998
					c0.00069-0.00906,0.00139-0.01746,0.00209-0.02655c-1.82961-0.37024-6.39804-1.73669-7.03691-6.20908
					c-0.40938-2.86353,7.27827-5.88422,20.90149-10.97626c10.16206-3.79825,22.80901-8.5256,23.46043-11.45618
					c1.12509-5.06689,3.19362-15.71481,4.36305-22.89423c0.29271-1.76395,0.50543-3.1835,0.63257-4.22159
					c0.53268-4.25513-8.93147-10.84494-15.194-15.20554c-0.73141-0.50928-1.42757-0.99411-2.07062-1.44888
					c-0.65004-0.46246-1.24001-0.89349-1.76534-1.28259c-3.0553-2.29138-2.3036-13.47025-0.70244-31.60916
					c1.21869-13.80835,2.47859-28.08615,0.45338-33.82507c-4.40567-12.48242-18.08827-13.11465-20.78622-13.11465
					c-2.48734,0-3.74829-2.16562-4.96733-4.25931c-1.25816-2.16144-2.5593-4.39622-5.22127-5.06198
					c-3.05495-0.76357-4.59708-2.82091-5.95793-4.63655c-1.34444-1.79398-2.40665-3.21072-4.59883-3.21072
					c-3.46082,0-4.09269-2.21243-4.70431-4.35292c-0.43278-1.51524-0.88058-3.08148-2.23969-4.44095
					c-0.16137-0.16138-0.6469-0.52673-2.08564-1.16035c-6.32365-2.7762-23.60923-7.44629-36.23032-10.8568
					c-7.37258-1.99239-13.19569-3.56561-15.08118-4.2719c-0.89944-0.33531-1.736-0.38632-2.55475-0.15927
					c-1.4115,0.40099-2.65674,1.60466-3.97498,2.87889c-1.82472,1.76465-3.89325,3.76401-6.81091,3.76401
					c-1.39124,0-2.37451-0.34929-3.00604-1.06885c-1.07862-1.22812-0.82993-3.13527-0.54211-5.34282
					c0.23263-1.7863,0.4967-3.81081-0.00105-5.5531c-0.68357-2.39267-4.21704-2.64975-7.63385-2.89775
					c-2.8017-0.20399-5.44761-0.3968-6.55767-1.87712c-1.44538-1.92671,1.25781-4.63026,3.64315-7.01524
					c0.85542-0.85507,2.10345-2.10345,2.38534-2.68259c-0.09501-0.01607-0.23822-0.03075-0.44884-0.03075
					c-2.19847,0-4.52896-1.32138-6.56186-3.72104c-2.4545-2.89741-3.87054-6.71067-3.44336-9.2731
					c0.55189-3.31097,4.82656-4.35361,7.12318-4.91354c0.10863-0.02655,0.22355-0.05449,0.33742-0.08279
					c-0.53477-0.75727-0.87638-1.8097-1.02623-2.34237c-0.85053-3.02316-0.8942-7.63735,1.53341-11.52187
					c0.7957-1.27283,1.64693-1.89632,2.6026-1.90611c0.00734,0,0.01502,0,0.02235,0c1.82821,0,3.30608,2.26099,5.17551,5.12067
					c1.53865,2.35355,3.28233,5.02147,5.39661,6.60727c5.51363,4.13531,11.65285,11.51383,15.32115,15.92229l0.53687,0.64515
					c1.47927,1.77477,12.22849,4.26385,25.5597,5.91811c13.63615,1.6913,24.80557,1.84428,27.16367,0.37166
					c2.91487-1.82228,7.99537-5.27296,12.90821-8.61048c4.59988-3.12445,8.9444-6.07529,10.7094-7.13436
					c2.31512-1.3888,6.12663-9.32375,6.48222-14.61068c0.11771-1.75102-0.17989-3.00534-0.83797-3.53208
					c-0.94589-0.75657-1.73529-1.95675-2.34656-3.56665c-0.63083-1.64344-1.07722-3.71511-1.32698-6.15913
					c-1.13905-1.12962-1.98819-1.87817-2.73428-2.41189c-3.97812-2.84187-7.11864-8.23779-6.71974-11.54701
					c0.15125-1.25816,0.79568-2.14851,1.86279-2.5757c0.14845-0.05939,0.30981-0.0985,0.48376-0.11877
					c-1.73564-0.82224-3.35637-1.5617-4.77591-2.1293c-6.40434-2.55859-4.96454-14.09617-4.27258-19.64053l0.03004-0.24102
					c0.11806-0.96475,0.21622-1.80062,0.21622-2.24352c0-0.8935,0.3713-1.96199,1.07408-3.08952
					c1.94733-3.13842,5.9251-6.02954,9.75687-5.48778c2.10275,0.30039,4.81433,1.99203,7.9545,3.95088
					c4.60371,2.87191,9.81555,6.1242,13.88974,5.37321c3.8447-1.9082,7.64607-3.09406,11.29971-3.52474
					c0.45862-0.0517,0.89838-0.09536,1.3385-0.1247c10.82571-0.75692,17.42494,5.16224,19.16304,6.95587
					c8.44876-6.08158,13.53136-5.72984,16.32118-4.33545c1.84184,0.92109,2.69901,3.47968,2.88728,5.56707
					c0.19699,2.18659-0.24136,5.00925-2.06259,6.37534c-1.89807,1.42513-2.77831,3.93936-3.11223,5.17726
					c2.56732,0.15928,4.03471,1.02728,6.31631,2.3773c1.14044,0.67449,2.4325,1.43875,4.19783,2.32142
					c2.22186,1.11111,3.58133,3.90443,3.82793,7.86578c0.3217,5.16399-1.39648,12.06816-4.46643,14.11469
					c-0.97559,0.65493-2.33888,0.97593-4.23976,0.94798c2.05595,21.52219-4.62082,33.77583-8.63004,41.13303
					c-0.93681,1.71924-1.74612,3.20444-2.24318,4.44583c-1.27632,3.19118-0.2211,11.35699,0.89595,20.00276
					c1.32452,10.25113,2.82579,21.87009,1.28889,29.94022c-2.71648,14.26173,6.65443,26.16852,14.18454,35.73572l0.69754,0.88651
					c5.70749,7.26535,5.91183,19.76663,6.06097,28.89442c0.03842,2.35147,0.07161,4.38297,0.19246,6.06308
					c0.07266,1.04929,0.17744,1.8764,0.32101,2.5296c0.77544,3.48874,3.90965,6.63312,7.13506,7.15634
					c1.66928,0.27106,4.03925-0.04401,5.86012-3.07867c2.62706-4.37808-0.89244-22.58475-5.34805-45.63477
					c-2.50026-12.93301-5.33374-27.59224-7.62233-42.59378c-4.40706-28.89023,11.81981-58.49058,23.66826-80.10358
					c5.5063-10.04399,10.26161-18.7184,11.38914-24.58132c2.37518-12.35144-3.078-17.13084-5.5325-18.61256
					c-2.78844-1.68256-5.70261-1.68954-6.91011-0.72374c-1.76465,1.41185-1.20717,4.01725-0.07022,8.5008
					c0.69824,2.7521,1.4894,5.87166,1.76744,9.48512c0.70033,9.10648-2.73569,25.41159-8.91856,29.27585
					c-1.21135,0.75762-2.16946,0.92423-2.92953,0.51102c-1.40836-0.7653-1.44818-3.11572-1.49847-6.09136
					c-0.04752-2.82859-0.10165-6.03443-1.46425-7.39703c-0.06392-0.06393-0.12645-0.12994-0.1778-0.19456
					c-3.4458-3.74375-3.92154-13.14713-3.9631-14.16079c-0.38004-1.57358-5.92615-25.82412,10.51903-30.82917
					c5.71971-1.74054,10.84074-1.32523,15.22369,1.23266c8.09282,4.72352,11.53477,15.48078,12.86629,21.47259
					c2.9086,13.08915-16.14023,56.58797-20.90044,62.14142c-0.04539,0.05553-0.09676,0.11736-0.1474,0.1907
					c-2.3333,3.27325-4.9572,17.48399-6.48466,30.57838l3.43672-3.63826c4.29039-4.5632,8.72714-9.28218,12.99518-14.00536
					c4.86464-5.28204,9.54414-10.57213,13.9128-15.72738c2.59457-3.07101,4.68301-5.65754,6.57199-8.13998
					c2.00494-2.62601,4.08676-5.49127,5.73648-8.65379L282,110.60799c-1.08456,3.40528-2.73114,6.5692-4.46573,9.77992
					c-1.52051,2.72066-3.26556,5.62715-5.49722,9.15643c-3.87857,6.0753-8.06525,12.0266-12.01193,17.55244
					c-3.49329,4.78256-6.68132,9.05234-9.75023,13.06017c-0.99445,1.30916-1.99762,2.61342-3.00848,3.91
					c-2.42166,3.09895-4.57123,5.81996-6.57234,8.32022l-1.45027,1.77652c-0.83762,1.02693-1.67487,2.05386-2.51773,3.08078
					c-0.03528,2.39198,0.04192,4.1671,0.23019,5.27786c0.14531,0.85368,0.49146,2.54007,0.97104,4.87337l0.05833,0.28572
					c0.17918-0.21376,0.35838-0.42683,0.53966-0.63991c3.84331-4.52687,7.74564-8.96501,11.38983-13.086
					c3.68332-4.1203,7.64607-8.52771,11.68709-12.86176c3.89044-4.216,7.94751-8.44876,12.05557-12.57814l4.38123-4.40392
					l-3.26556,5.28415c-3.02176,4.89082-6.1965,9.81799-9.43552,14.64525c-3.32739,5.01309-6.79941,10.03317-9.79286,14.34488
					c-2.7025,3.85481-4.78465,6.7868-6.75328,9.5106c-1.10133,1.5376-2.21208,3.0773-3.33647,4.6114
					c-1.61829,2.22781-3.34135,4.55411-5.12277,6.91466c0.69859,3.6669,1.34795,7.24438,1.93126,10.63954
					c0.26616,1.56274,0.53198,3.16252,0.79465,4.79233c0.31541-0.38283,0.63258-0.76357,0.95114-1.14079
					c0.8893-1.08632,1.82541-2.16983,2.73044-3.21841c0.48238-0.55817,0.9644-1.11565,1.44189-1.67732l4.28865-4.81189
					l4.3875-4.73225c0.56445-0.57843,1.11005-1.14778,1.65601-1.71713c0.92773-0.96756,1.8869-1.96863,2.86597-2.93408
					c3.63443-3.67738,6.5528-6.43892,9.45615-8.94547l2.91171-2.51422l-1.81354,3.39305
					c-1.78806,3.34485-3.84192,6.79729-6.66003,11.19423c-0.75482,1.20715-1.55576,2.41013-2.33047,3.57329
					c-0.40588,0.60986-0.81213,1.21904-1.21417,1.8331l-3.66516,5.31488l-3.77098,5.23454
					c-0.39925,0.53023-0.78661,1.05067-1.17433,1.57114c-0.87953,1.18201-1.78909,2.40454-2.72241,3.58377
					c-1.39717,1.82611-2.81322,3.5719-4.0134,5.03824l-0.51836,0.61894c-0.38982,0.46666-0.77893,0.93193-1.17294,1.3951
					c0.57005,4.3089,1.03287,8.4236,1.37938,12.26656c1.53131-2.06573,2.98752-3.95473,4.42278-5.73962
					c2.08075-2.59177,4.31555-5.22336,6.64186-7.81934c2.76013-3.08078,4.99457-5.37915,7.24438-7.45256l2.26517-2.08809
					l-1.11319,2.8726c-1.10693,2.85583-2.42587,5.77596-4.27679,9.46941c-1.64029,3.25752-3.22574,6.21675-4.8475,9.04814
					c-1.64728,2.90195-3.43044,5.84511-5.29846,8.74496c-1.52223,2.37242-2.91733,4.41579-4.25897,6.23633
					c0.46597,21.20012-3.79439,32.46492-12.6644,33.48137c-6.01068,0.68671-11.09119-0.70978-15.09795-4.15173
					c-7.74109-6.6485-9.52528-19.12463-9.92035-25.46364c-1.42023,3.3239-3.87787,8.98946-6.60483,14.89745
					c-3.12199,6.76517,1.00108,15.79376,3.72943,21.7681c0.89769,1.96585,1.67313,3.66342,2.03186,4.91949
					c1.758,6.15247-8.9287,19.21472-10.15332,20.68457c-1.36226,1.6347-1.32034,5.88214-1.27948,9.98914
					c0.06148,6.24402,0.1254,12.70041-3.98686,14.52859c-1.51593,0.67346-3.88626,1.85477-6.63101,3.22192
					c-9.03418,4.50101-22.6871,11.30319-29.36807,11.85928C156.09924,357.25391,155.39192,357.28534,154.76773,357.28534z
					 M141.07884,347.37723c0,0-0.05939,0.21167-0.08768,0.5379c-0.15718,1.70596,0.49425,3.82761,4.48845,4.27051
					c3.06645,0.34091,4.08325,1.32101,4.98059,2.18518c0.98222,0.94659,1.83171,1.76465,6.3268,1.3902
					c6.40747-0.53442,19.91229-7.26254,28.84901-11.71466c2.75978-1.37485,5.14337-2.56244,6.68761-3.24915
					c3.25369-1.44611,3.19186-7.6936,3.13737-13.20618c-0.04541-4.56738-0.08803-8.8812,1.6113-10.92038
					c3.96974-4.76367,11.14288-14.94354,9.87668-19.3754c-0.32939-1.15198-1.08386-2.80487-1.95779-4.71829
					c-2.83699-6.21188-7.12424-15.60025-3.72664-22.9613c4.2366-9.18018,7.82213-17.77354,7.85809-17.85947l1.45412-3.49016
					l-0.07858,3.78078c-0.00035,0.00629-0.01328,0.66994,0.02829,1.78908c0.20818,5.50771,1.55052,19.03731,9.49385,25.85976
					c3.6924,3.1709,8.39986,4.45282,14.0036,3.81641c8.04219-0.92215,11.875-11.77966,11.39124-32.27213l-0.00594-0.24519
					l0.14635-0.19771c1.36679-1.84358,2.78983-3.92259,4.35048-6.35577c1.8544-2.8782,3.62358-5.79831,5.25934-8.67999
					c1.61026-2.81114,3.18384-5.74802,4.81189-8.9818c1.16351-2.32141,2.11359-4.33266,2.93164-6.21257
					c-1.44888,1.44958-2.97217,3.0724-4.70746,5.00821c-2.30884,2.5778-4.52687,5.18843-6.5919,7.76134
					c-1.76953,2.19987-3.57155,4.56111-5.50943,7.21994l-1.13347,1.55507l-0.15753-1.91763
					c-0.36467-4.44165-0.89525-9.28917-1.57707-14.40775l-0.04227-0.31645l0.20784-0.24312
					c0.46141-0.53931,0.91515-1.08142,1.36958-1.62563l0.51451-0.61475c1.18726-1.45029,2.59422-3.18489,3.98581-5.00401
					c0.92738-1.17154,1.83066-2.38499,2.7039-3.55933c0.38947-0.52254,0.77858-1.04509,1.17014-1.56554l3.75352-5.2101
					l3.64734-5.28833c0.39438-0.60289,0.8027-1.21555,1.21066-1.82822c0.7688-1.15477,1.56415-2.34866,2.31235-3.54604
					c1.77896-2.77551,3.24948-5.16818,4.53909-7.39319c-1.89948,1.75555-3.91,3.71231-6.21329,6.0435
					c-0.97137,0.95776-1.92355,1.95117-2.8443,2.91173c-0.5491,0.57285-1.09784,1.14569-1.65253,1.71364l-4.36513,4.70781
					l-4.2684,4.78954c-0.46945,0.5519-0.95357,1.11217-1.43805,1.67313c-0.89908,1.04091-1.8289,2.11743-2.71297,3.19745
					c-0.66228,0.78453-1.30986,1.57463-1.95117,2.36473l-1.01157,1.24699l-0.25044-1.5858
					c-0.343-2.17192-0.69264-4.29355-1.04298-6.35089c-0.59801-3.48108-1.26656-7.15637-1.9861-10.92387l-0.05939-0.31157
					l0.19142-0.25359c1.84393-2.44087,3.62708-4.84683,5.29985-7.15009c1.12334-1.53131,2.23061-3.0668,3.33089-4.60301
					c1.96619-2.72031,4.04485-5.6481,6.74141-9.49385c2.98717-4.30263,6.45427-9.3157,9.77608-14.32042
					c1.99344-2.9711,3.9617-5.97853,5.88458-8.99156c-2.50549,2.59038-4.97501,5.20381-7.38132,7.81094
					c-4.03436,4.32777-7.99153,8.7282-11.66681,12.8394c-3.63652,4.11331-7.53326,8.54448-11.36957,13.06366
					c-0.28957,0.33951-0.57355,0.68042-0.85858,1.02203l-1.66264,1.97702l-0.22075-1.58929
					c-0.01398-0.06567-0.02165-0.1048-0.0276-0.14392l-0.3196-1.55156c-0.48203-2.34727-0.83028-4.04346-0.97978-4.92159
					c-0.21237-1.25397-0.29306-3.14854-0.24625-5.79131l0.00453-0.2494l0.15823-0.19211
					c0.8949-1.08981,1.78386-2.17961,2.67282-3.26941l1.44643-1.77232c1.99307-2.49048,4.1395-5.20731,6.55698-8.30066
					c1.00632-1.291,2.006-2.59108,2.9987-3.89745c3.06401-4.00153,6.24574-8.26292,9.72787-13.03011
					c3.93134-5.50421,8.10504-11.43665,11.96442-17.48224c2.21594-3.50414,3.94843-6.38967,5.45074-9.07785
					c0.233-0.43137,0.46457-0.86171,0.69302-1.29204c-0.29657,0.39645-0.59277,0.78766-0.88757,1.17398
					c-1.90366,2.5013-4.00677,5.106-6.6181,8.19691c-4.3819,5.17097-9.07434,10.47537-13.94771,15.7679
					c-4.27293,4.72806-8.71457,9.45193-13.00986,14.02072l-6.36942,6.73442l0.22914-2.11044
					c1.45482-13.39828,4.25757-29.5546,6.97438-33.3654c0.06812-0.09851,0.14217-0.19037,0.21692-0.28154
					c4.60826-5.37705,23.35493-48.54753,20.606-60.91923c-1.28088-5.76372-4.56812-16.09763-12.19113-20.54731
					c-4.02493-2.34866-8.76347-2.71857-14.08603-1.09958c-15.61736,4.75322-9.59305,28.93878-9.53053,29.18259l0.02235,0.15334
					c0.00349,0.09815,0.38177,9.87039,3.60718,13.3368l0.05869,0.07196c0.01328,0.01537,0.03702,0.03703,0.05937,0.05972
					c1.77164,1.77163,1.83101,5.28484,1.88341,8.38449c0.03387,2.00111,0.07579,4.49159,0.75098,4.85835
					c0.25114,0.13657,0.79431-0.03319,1.48836-0.46736c5.25096-3.28197,8.98737-18.36526,8.25-27.95272
					c-0.2686-3.49085-1.04369-6.54684-1.72762-9.24305c-1.12123-4.42139-2.00705-7.91329,0.56342-9.9696
					c1.87433-1.49987,5.46753-1.24,8.54272,0.61581c2.71158,1.6368,8.74356,6.87204,6.19824,20.10789
					c-1.1698,6.08333-5.97504,14.8489-11.53932,24.99873c-11.75031,21.43382-27.84235,50.78826-23.50829,79.20066
					c2.28404,14.9729,5.11473,29.61746,7.61255,42.5379c4.68999,24.26346,8.07886,41.7939,5.16992,46.64211
					c-1.74228,2.90405-4.34209,4.23349-7.31635,3.75494c-3.82478-0.62106-7.39389-4.172-8.3024-8.26013
					c-0.15929-0.72375-0.27385-1.61935-0.35139-2.73779c-0.12331-1.71783-0.15683-3.76749-0.1956-6.14061
					c-0.14601-8.9245-0.34581-21.14705-5.75534-28.03305l-0.6972-0.88652c-7.70929-9.79494-17.30409-21.98605-14.46571-36.8884
					c1.49428-7.84517,0.00873-19.34328-1.30217-29.48822c-1.19145-9.2193-2.22012-17.18115-0.80548-20.71811
					c0.52884-1.32034,1.35666-2.83978,2.31512-4.59883c3.97987-7.30272,10.64024-19.52561,8.3824-41.10893l-0.08662-0.82957
					l0.83307,0.04052c0.13867,0.00698,0.27699,0.01362,0.41566,0.01362c1.78314,0.04156,3.01721-0.18478,3.78601-0.70103
					c2.32945-1.55297,4.15591-7.67088,3.83421-12.83696c-0.12366-1.98679-0.68323-5.49616-3.03992-6.67468
					c-1.81039-0.90538-3.18314-1.71749-4.28621-2.36997c-2.4028-1.42129-3.72629-2.20441-6.48187-2.20441h-0.8694l0.25394-1.26096
					c0.29167-1.30357,1.25082-4.57891,3.76262-6.46476c1.11356-0.83482,1.70071-2.83768,1.49673-5.10251
					c-0.19037-2.10765-1.03497-3.88207-2.10242-4.41579c-2.48978-1.24559-7.17278-1.45935-15.35049,4.5852l-0.5386,0.3982
					l-0.43314-0.51207c-0.06601-0.07755-6.71484-7.75576-18.42499-6.94434c-0.42055,0.02794-0.839,0.07021-1.27177,0.11876
					c-3.51357,0.41392-7.1864,1.56729-10.91269,3.42729l-0.1792,0.06148c-4.64214,0.92808-10.15471-2.51039-15.01865-5.54472
					c-2.8775-1.79503-5.59572-3.49051-7.39912-3.74829c-3.18593-0.45059-6.67819,2.14886-8.34013,4.82692
					c-0.5456,0.87568-0.85822,1.72587-0.85822,2.33399c0,0.52464-0.0985,1.36924-0.22704,2.41887l-0.0304,0.24276
					c-0.64724,5.18879-1.99482,15.98586,3.38433,18.13472c2.28824,0.9155,5.05466,2.25121,7.98314,3.66586
					c6.11302,2.95225,13.04166,6.29815,16.78889,6.29815c3.80592,0,6.45847,2.99556,6.73337,5.77071
					c0.17989,1.81983-0.72304,3.19955-2.30081,3.51496c-1.90994,0.38248-5.91078-2.40105-12.28368-6.97368
					c-4.69104-3.36546-11.11563-7.97617-12.62842-7.37048c-0.56796,0.22704-0.88652,0.6909-0.9742,1.41779
					c-0.299,2.48349,2.31409,7.4854,6.13153,10.21236c0.85194,0.60917,1.80621,1.45551,3.09477,2.74441l0.18198,0.18164
					l0.02444,0.25603c0.23158,2.42725,0.65738,4.46016,1.2648,6.04247c0.52011,1.37029,1.16037,2.36508,1.90367,2.95993
					c1.06465,0.85193,1.52606,2.44821,1.37167,4.74483c-0.36711,5.45809-4.25546,13.99104-7.17348,15.7417
					c-1.73041,1.03846-6.05888,3.97848-10.64163,7.0914c-4.92437,3.34486-10.01605,6.80358-12.95433,8.63947
					c-3.26905,2.04338-16.65755,1.25537-28.09767-0.16487c-10.87218-1.34897-24.33158-3.8405-26.48254-6.4218l-0.53792-0.64584
					c-3.62778-4.36025-9.69993-11.65843-15.07978-15.69315c-2.31548-1.73669-4.13251-4.51639-5.73578-6.9688
					c-1.43735-2.19917-2.9236-4.47272-3.97813-4.47272c-0.0028,0-0.00489,0-0.00769,0
					c-0.52604,0.00523-1.05382,0.67379-1.40347,1.23336c-2.17017,3.47234-2.13559,7.61884-1.37937,10.34124
					c0.40553,1.4604,0.92004,2.14397,1.0926,2.23165c0.55573,0.27804,0.5704,0.70942,0.55084,0.88197
					c-0.07405,0.65877-0.67239,0.80443-1.98295,1.12403c-1.97632,0.48203-5.6544,1.37902-6.0512,3.75912
					c-0.35698,2.14258,0.95672,5.5545,3.1241,8.11273c1.73076,2.04338,3.72454,3.21527,5.46997,3.21527
					c0.37025,0,1.49708,0,1.84707,0.84529c0.45059,1.08771-0.83132,2.36963-2.77201,4.3103
					c-1.57497,1.57533-4.21111,4.21111-3.51042,5.14583c0.7192,0.95847,3.15833,1.13591,5.51712,1.30775
					c3.72523,0.27106,7.94752,0.57845,8.90564,3.93237c0.57913,2.02661,0.29481,4.20691,0.04401,6.13014
					c-0.23263,1.78629-0.45234,3.47269,0.19875,4.2146c0.34406,0.3912,0.97558,0.58192,1.9309,0.58192
					c2.33888,0,4.02842-1.63332,5.81682-3.36162c1.3867-1.34129,2.82091-2.72731,4.58206-3.2282
					c1.12438-0.31227,2.24876-0.2466,3.44231,0.1963c1.82367,0.68323,7.9084,2.32771,14.95404,4.23137
					c12.66475,3.42169,30.01007,8.10854,36.43256,10.92805c1.29659,0.57144,2.09752,1.03461,2.52156,1.45866
					c1.62143,1.62143,2.16634,3.52788,2.604,5.05989c0.61057,2.13699,0.94694,3.31482,3.32843,3.31482
					c2.90789,0,4.34943,1.92322,5.74382,3.78357c1.27737,1.70386,2.59805,3.4664,5.16014,4.10701
					c3.24741,0.81177,4.76859,3.4245,6.11058,5.72914c1.28085,2.20056,2.14641,3.54884,3.73082,3.54884
					c2.86702,0,17.40924,0.67833,22.13521,14.06892c2.12895,6.03163,0.85472,20.46732-0.37724,34.42726
					c-1.17328,13.29349-2.50305,28.36,0.13203,30.33632c0.51521,0.38074,1.09819,0.80756,1.7381,1.26303
					c0.63885,0.45129,1.33221,0.93402,2.06049,1.44122c6.93666,4.83005,16.43645,11.44501,15.79654,16.55588
					c-0.12924,1.05627-0.34511,2.49609-0.64096,4.2782c-1.17293,7.20038-3.24879,17.88602-4.37807,22.97174
					c-0.76251,3.43219-10.13864,7.17245-24.35602,12.48663c-8.06488,3.0144-20.2525,7.56992-19.98634,9.43307
					c0.62978,4.40811,6.46581,5.10669,6.52449,5.11298l0.85019,0.0943L141.07884,347.37723L141.07884,347.37723z M141.6398,77.74837
					c1.58057,1.07059,3.35568,2.33189,5.32816,3.74689c4.35432,3.1241,9.78201,7.01456,11.16872,6.73337
					c1.15443-0.23088,1.22079-1.33395,1.15793-1.97107c-0.1792-1.80726-1.9903-4.48112-5.30965-4.48112
					C150.96075,81.77644,146.44681,79.97303,141.6398,77.74837z"/>
			</g>
		</g>
		<g>
			<path fill="#917F44" d="M108.5302,135.08923c3.38689-0.15201,6.79072-0.39261,10.17838-0.69073
				c3.39028-0.29617,6.77325-0.66661,10.14433-1.11006c0.26797-0.03526,0.51379,0.1534,0.54903,0.42137
				c0.03476,0.26419-0.14812,0.50685-0.4101,0.54741l-0.00957,0.00148c-3.37797,0.52034-6.7686,0.96735-10.1679,1.33994
				c-3.4015,0.37469-6.80072,0.69099-10.22855,0.92023c-0.39422,0.02637-0.7352-0.27185-0.76157-0.66609
				c-0.02635-0.39424,0.27186-0.73521,0.6661-0.76158c0.00404-0.00026,0.00808-0.0005,0.01212-0.0007L108.5302,135.08923z"/>
		</g>
		<g>
			<path fill="#917F44" d="M210.06686,94.02467c-1.78543-0.08803-3.51366-0.2818-5.25542-0.53716
				c-1.73605-0.25903-3.46112-0.59579-5.17081-1.00864c-1.71056-0.41053-3.3956-0.93877-5.05531-1.5447
				c-1.65669-0.6197-3.26486-1.38189-4.81731-2.26006c-0.17554-0.0993-0.23735-0.32209-0.13805-0.49763
				c0.09712-0.17171,0.31242-0.23458,0.48607-0.1443l0.02258,0.01178c1.53911,0.80263,3.12762,1.49182,4.76535,2.04214
				c1.64142,0.53674,3.30455,0.99763,4.99371,1.34291c1.68793,0.3475,3.38937,0.62029,5.09828,0.81633
				c1.70343,0.19202,3.43683,0.32484,5.11995,0.34945c0.39511,0.00578,0.71072,0.33077,0.70494,0.72589
				c-0.00577,0.39511-0.33076,0.71073-0.72588,0.70495C210.08772,94.02552,210.07407,94.025,210.06686,94.02467z"/>
		</g>
		<g>
			<path fill="#917F44" d="M158.61331,58.99374c1.43384-1.25643,3.10776-2.2078,5.24327-2.42971
				c1.04913-0.08035,2.25902,0.0456,3.33357,0.64726c1.07813,0.60886,1.85922,1.53543,2.36534,2.55555
				c0.52248,1.03277,0.75739,2.27817,0.50333,3.48473c-0.06567,0.29945-0.166,0.59697-0.25902,0.88891
				c-0.12532,0.28692-0.27785,0.5682-0.42972,0.84125c-0.20322,0.25401-0.39711,0.51192-0.62984,0.73684
				c-0.26115,0.20489-0.49695,0.43524-0.79619,0.58375c-0.57793,0.32475-1.24825,0.5076-1.87816,0.48148
				c-0.31543-0.01275-0.63342-0.01563-0.91124-0.11216c-0.27895-0.08431-0.58615-0.13629-0.81451-0.2887
				c-0.24202-0.13303-0.48433-0.26338-0.70935-0.40459l-0.59479-0.4887c-0.39859-0.31464-0.66518-0.72708-0.9726-1.09128
				l-0.01015-0.01202c-0.25531-0.30245-0.21712-0.75461,0.08536-1.00992c0.27519-0.23232,0.67442-0.22143,0.93643,0.01027
				c0.58533,0.51648,1.19308,1.06089,1.8761,1.2693c0.66798,0.23793,1.34514,0.21407,1.87695-0.12107
				c0.53983-0.32335,0.91118-0.95668,1.01752-1.64829c0.11957-0.69239-0.01614-1.43737-0.3573-2.0862
				c-0.34639-0.65079-0.83046-1.23933-1.44299-1.59592c-0.62112-0.34773-1.36124-0.4896-2.13034-0.46622
				c-1.53708,0.05047-3.16965,0.67579-4.5434,1.46872c-0.34103,0.19683-0.77704,0.07995-0.97386-0.26107
				c-0.17303-0.29976-0.10365-0.6729,0.14728-0.8925L158.61331,58.99374z"/>
		</g>
		<g>
			<path fill="#917F44" d="M127.17094,51.7737c-0.28642,0-0.55853-0.05065-0.81665-0.1516
				c-1.3392-0.52429-1.62388-2.13769-1.65182-2.32002c-0.06008-0.39016,0.20782-0.75553,0.59834-0.81561
				c0.38422-0.05903,0.75378,0.20609,0.81525,0.59485c0.00419,0.02375,0.18163,0.98571,0.76321,1.20996
				c0.474,0.18303,1.24733-0.12575,2.18065-0.8687c0.30878-0.24625,0.75937-0.19491,1.00528,0.11457
				c0.2459,0.30947,0.19455,0.75937-0.11458,1.00527C128.92021,51.36189,127.98898,51.7737,127.17094,51.7737z"/>
		</g>
		<g>
			<path fill="#917F44" d="M164.71565,147.41046c-0.16731,0-0.33217-0.07825-0.43697-0.22495
				c-3.7413-5.23734-2.96062-21.95428,1.28506-27.5182c3.98196-5.21882,4.33475-22.70176,4.33791-22.87781
				c0.00523-0.29305,0.24451-0.52708,0.53616-0.52708c0.00349,0,0.00664,0,0.00978,0
				c0.2962,0.00524,0.53232,0.24975,0.52708,0.54595c-0.01292,0.73282-0.36327,18.01247-4.55795,23.51003
				c-3.96031,5.18983-4.74065,21.37759-1.2648,26.24397c0.1722,0.24101,0.11632,0.57564-0.12469,0.7482
				C164.93257,147.37833,164.82359,147.41046,164.71565,147.41046z"/>
		</g>
		<g>
			<path fill="#917F44" d="M170.43887,163.14832c-0.02934,0-0.05904-0.00209-0.08908-0.00699
				c-0.29201-0.0489-0.48972-0.32555-0.44081-0.61755c0.73108-4.38715,0.64969-15.69244-2.11497-22.60431
				c-2.91418-7.28525,1.94942-17.86332,2.15794-18.31007c0.1254-0.26826,0.44325-0.38493,0.71291-0.25918
				c0.26862,0.1254,0.38458,0.44431,0.25954,0.71291c-0.0489,0.10548-4.87512,10.60566-2.1342,17.45814
				c2.83908,7.09698,2.92604,18.68521,2.17715,23.17854C170.92369,162.96249,170.6963,163.14832,170.43887,163.14832z"/>
		</g>
		<g>
			<path fill="#917F44" d="M176.16103,151.70261c-0.2962,0-0.53651-0.24033-0.53651-0.53653
				c0-0.06357-0.01747-6.45708-1.4178-12.75977c-1.37796-6.19998,0.51521-14.39341,4.40358-19.0593
				c3.42763-4.11295,4.87057-22.40485,4.88489-22.58929c0.02235-0.2955,0.27875-0.52639,0.57599-0.49355
				c0.2955,0.02271,0.51662,0.28049,0.49356,0.57599c-0.05869,0.76636-1.48555,18.82039-5.13011,23.19357
				c-3.69589,4.43501-5.49301,12.23338-4.18071,18.13927c1.42722,6.42145,1.44363,12.92813,1.44363,12.99309
				C176.69754,151.46228,176.45723,151.70261,176.16103,151.70261z"/>
		</g>
		<g>
			<path fill="#917F44" d="M182.59959,181.7476c-0.15125,0-0.30145-0.06358-0.40764-0.18723
				c-4.83424-5.63972-2.58269-14.41054-0.81036-19.13721c2.07622-5.53633-0.00908-23.17645-0.03038-23.3539
				c-0.03528-0.2948,0.17464-0.56166,0.46875-0.59729c0.29655-0.02515,0.56131,0.17465,0.5966,0.46875
				c0.08836,0.73563,2.13663,18.08023-0.0304,23.85968c-1.68919,4.50452-3.85483,12.84081,0.62035,18.06137
				c0.19281,0.22495,0.16696,0.56377-0.05798,0.75658C182.84724,181.70499,182.72289,181.7476,182.59959,181.7476z"/>
		</g>
		<g>
			<path fill="#917F44" d="M169.00815,230.39189c-0.02235,0-0.04471-0.0014-0.06741-0.0042
				c-0.29375-0.03703-0.50229-0.30458-0.46561-0.59869c2.78214-22.25781-3.93167-25.88768-3.99979-25.92192
				c-0.26511-0.13272-0.37234-0.45477-0.23996-0.71954c0.13274-0.26547,0.45512-0.37234,0.71989-0.24031
				c0.30598,0.15298,7.4599,4.01131,4.5845,27.01451C169.50591,230.19348,169.27466,230.39189,169.00815,230.39189z"/>
		</g>
		<g>
			<path fill="#917F44" d="M171.86923,247.56046c-0.05135,0-0.10304-0.00699-0.15439-0.02235
				c-0.28398-0.08522-0.44501-0.38423-0.35977-0.66855c2.09856-6.995,2.12337-21.16382,2.12337-21.30634
				c0-0.29619,0.24031-0.53651,0.53651-0.53651l0,0c0.2962,0,0.53651,0.24033,0.53651,0.53651
				c0,0.58752-0.0248,14.46782-2.16878,21.61511C172.31319,247.41026,172.09976,247.56046,171.86923,247.56046z"/>
		</g>
		<g>
			<path fill="#917F44" d="M101.76389,158.14081c-10.01501,0-23.95399-6.22095-24.54221-6.48572
				c-0.27035-0.12155-0.39086-0.43871-0.2693-0.70906c0.12155-0.27106,0.44046-0.39052,0.70942-0.26897
				c0.14216,0.06358,14.31902,6.39072,24.10209,6.39072c0.2962,0,0.53651,0.24031,0.53651,0.53651
				S102.06008,158.14081,101.76389,158.14081z"/>
		</g>
		<g>
			<path fill="#917F44" d="M110.34887,155.99474c-0.01223,0-0.0241-0.00069-0.03633-0.00139
				c-10.68635-0.71187-16.36938-2.80554-16.60586-2.89426c-0.27734-0.1041-0.41776-0.41287-0.31401-0.69022
				c0.10409-0.27805,0.41216-0.41776,0.69055-0.31436c0.05659,0.02095,5.79028,2.1279,16.30058,2.8286
				c0.29585,0.01955,0.5194,0.27524,0.49984,0.57074C110.86443,155.77748,110.62865,155.99474,110.34887,155.99474z"/>
		</g>
		<g>
			<path fill="#917F44" d="M119.64746,121.6576c-0.08069,0-0.16242-0.01817-0.23962-0.05659
				c-8.58743-4.29389-18.36176-16.09204-18.77358-16.59223c-0.18827-0.22844-0.15544-0.56656,0.07335-0.75518
				c0.22844-0.18792,0.56656-0.15508,0.75518,0.07301c0.0992,0.12086,10.04259,12.12334,18.42499,16.31454
				c0.26511,0.13273,0.37234,0.45478,0.23996,0.71989C120.03378,121.54897,119.84412,121.6576,119.64746,121.6576z"/>
		</g>
		<g>
			<path fill="#917F44" d="M127.39449,269.71417c-3.8908,0-8.17841-0.72443-12.28996-2.90125
				c-0.26162-0.13901-0.36152-0.46317-0.22285-0.72513c0.13902-0.2627,0.46456-0.35977,0.72514-0.22357
				c11.7744,6.23492,25.13844,0.0531,25.27223-0.01047c0.26825-0.12573,0.58821-0.01257,0.71431,0.25568
				c0.12679,0.26758,0.01257,0.58752-0.25499,0.71396C141.24615,266.86673,135.10204,269.71417,127.39449,269.71417z"/>
		</g>
		<g>
			<path fill="#917F44" d="M191.89853,321.24225c-0.23332,0-0.44814-0.15369-0.51556-0.38913
				c-1.50441-5.26596,6.94644-13.08881,7.30692-13.41922c0.21936-0.1998,0.55818-0.18445,0.75798,0.03284
				c0.20013,0.21866,0.18547,0.55746-0.03284,0.75797c-0.08348,0.07684-8.32336,7.70197-7.00023,12.33362
				c0.08138,0.28503-0.08348,0.58194-0.36852,0.66296C191.99704,321.23596,191.94743,321.24225,191.89853,321.24225z"/>
		</g>
		<g>
			<path fill="#917F44" d="M226.23532,186.7551c-0.25882,0-0.48691-0.18791-0.52917-0.45198
				c-2.84641-17.79033-0.01747-28.72887,0.01152-28.83714c0.07616-0.28642,0.37166-0.45897,0.65633-0.38004
				c0.28642,0.07616,0.45653,0.37025,0.38039,0.65668c-0.02829,0.10619-2.79576,10.84703,0.01152,28.39143
				c0.04681,0.29201-0.15263,0.56726-0.44499,0.61406C226.29227,186.75301,226.26363,186.7551,226.23532,186.7551z"/>
		</g>
		<g>
			<path fill="#917F44" d="M233.38994,72.29796c-0.17883,0-0.35349-0.08942-0.45547-0.25219
				c-3.67319-5.87725-0.27559-15.38891-0.12924-15.79095c0.10165-0.27769,0.40938-0.4216,0.68742-0.3203
				c0.27838,0.1013,0.42194,0.40902,0.32065,0.68741c-0.03389,0.09361-3.36337,9.42365,0.03143,14.85519
				c0.15683,0.25114,0.08034,0.58228-0.17081,0.73946C233.58556,72.27176,233.48705,72.29796,233.38994,72.29796z"/>
		</g>
		<g>
			<path fill="#917F44" d="M236.96603,78.02081c-0.09396,0-0.18932-0.02445-0.27559-0.07649
				c-0.25429-0.1523-0.33673-0.48203-0.18408-0.73597c1.95535-3.25893-2.10486-10.10966-2.14607-10.17847
				c-0.1523-0.25429-0.06985-0.58367,0.18408-0.73597c0.25497-0.15194,0.58366-0.06985,0.73596,0.18408
				c0.18198,0.30318,4.4315,7.47318,2.14607,11.28224C237.32581,77.9279,237.14801,78.02081,236.96603,78.02081z"/>
		</g>
	</g>
</g>
</svg>
