<?xml version="1.0" encoding="utf-8"?>
<!-- Generator: Adobe Illustrator 16.0.0, SVG Export Plug-In . SVG Version: 6.00 Build 0)  -->
<!DOCTYPE svg PUBLIC "-//W3C//DTD SVG 1.1//EN" "http://www.w3.org/Graphics/SVG/1.1/DTD/svg11.dtd">
<svg version="1.1" id="Layer_1" xmlns="http://www.w3.org/2000/svg" xmlns:xlink="http://www.w3.org/1999/xlink" x="0px" y="0px"
	 width="1280px" height="853px" viewBox="0 0 1280 853" enable-background="new 0 0 1280 853" xml:space="preserve">
<rect fill="#FEDE00" width="1280" height="853"/>
<path fill="#467749" d="M608.67,716.955c0,0-23.461,19.781-21.621,25.761l21.621-7.358l-10.862,26.221l14.081-13.341l-5.979,34.501
	l14.26-25.3l-2.759,54.741l11.5-51.522c0,0,7.82,48.301,5.521,61.183c0,0,7.82-50.142,2.761-59.343l27.141,40.023l-20.701-46.003
	l20.701,20.239l-17.021-29.44l17.021,5.061l-16.561-17.021h13.801l-18.4-9.201l13.342,1.84l-23.462-11.04H608.67L608.67,716.955z"/>
<path stroke="#000000" stroke-width="3" stroke-miterlimit="10" d="M773.816,323.345c-57.502-16.395-118.685,14.261-118.685,14.261
	c-28.808,4.221-30.482-13.431-27.939-26.726c0.165,0.004,0.329,0.009,0.512-0.01c3.809,0.377,3.424-4.545,3.424-4.545
	c5.564,10.121,11.557,0,11.557,0c5.137,7.36,12.84,2.76,12.84,2.76c10.273,0,9.846-18.399,9.846-18.399
	c2.998-20.242,35.521-37.263,35.521-37.263c11.127-2.759,4.709-6.44,4.709-6.44c11.554-1.84,9.844-17.941,9.844-17.941
	c0.855-11.043-12.84-8.744-12.84-8.744c-6.419-10.58-18.83-5.519-18.83-5.519c34.664-34.961-7.28-20.701-7.28-20.701
	c28.241-15.181,34.243-43.242,34.243-43.242c0.855-7.361,12.84-20.701,12.84-20.701c5.99-8.74-2.569-4.735-2.569-4.735
	c-6.848,3.544-9.417,2.435-9.417,2.435c-2.996-1.839-9.416-6.9-11.557,6.901c-2.14,13.8-22.679,22.541-22.679,22.541
	c-0.859-5.059-5.566-8.74-5.566-8.74c2.142,13.34-9.415,23.921-9.415,23.921c-18.143-12.861-32.104-7.764-34.669-6.64
	c-2.563-1.125-16.525-6.221-34.668,6.64c0,0-11.556-10.581-9.416-23.921c0,0-4.708,3.681-5.564,8.74c0,0-20.546-8.74-22.685-22.541
	c-2.142-13.801-8.56-8.74-11.558-6.901c0,0-2.567,1.109-9.416-2.435c0,0-8.56-4.005-2.566,4.735c0,0,11.981,13.34,12.838,20.701
	c0,0,6.002,28.061,34.245,43.242c0,0-41.948-14.26-7.282,20.701c0,0-12.409-5.06-18.832,5.519c0,0-13.696-2.3-12.839,8.744
	c0,0-1.712,16.101,9.844,17.941c0,0-6.42,3.68,4.708,6.44c0,0,32.531,17.02,35.524,37.263c0,0-0.05,2.172,0.3,5.023l-16.087-0.602
	c-24.363,23.669-23.357,44.567-16.494,59.392c-6.623,4.763-22.999,14.188-44.491,10.014c-28.272-5.492-25.181-31.809-46.826-19.313
	c0,0,4.859,1.726,10.161,3.798c0,0-30.038,0.796-21.645,8.281c0,0,5.298,3.901,11.485,4.146c0,0-8.834-6.599,7.068-6.711
	c0,0-3.093,6.77,5.301,10.84c0,0-1.76-5.259,3.095-4.129c0,0,17.667,11.851,34.011,12.453c13.448,0.497,50.372,16.722,75.645,14.217
	c31.359,11.82,96.862,7.034,118.059-2.354c25.971-11.5,39.813-3.68,39.813-3.68c74.063,45.542-51.521,91.544-61.643,94.303
	c-0.474,0.13-1.027,0.288-1.649,0.474c-12.635,3.778-53.84,19.159-50.333,44.149c3.681,26.22-39.102,38.642-39.102,38.642
	c-61.182,47.382-8.74,74.522-8.74,74.522c7.819-2.299,33.121,8.281,24.381,27.602c-8.741,19.321-1.84,32.661-1.84,32.661
	c1.648,3.132,3.295,5.858,4.891,8.235c-9.024,10.538-32.881,45.059,17.649,68.588c0,0,45.594-28.026-6.418-66.129
	c-0.604-9.535-0.021-20.814-0.021-20.814c1.381-13.802,5.061-13.802,11.041-31.279c5.979-17.481-5.98-22.082-5.98-22.082
	c-27.966-8.106-36.499-18.835-35.962-29.249l22.888,0.439c16.812,10.997,54.72-6.729,66.865-7.179
	c12.14-0.447,25.264-9.252,25.264-9.252c3.604-0.839,2.295,3.068,2.295,3.068c6.24-3.024,3.939-8.053,3.939-8.053
	c11.813,0.083,5.251,4.984,5.251,4.984c4.597-0.182,8.531-3.078,8.531-3.078c6.237-5.562-16.078-6.152-16.078-6.152
	c3.939-1.539,7.547-2.82,7.547-2.82c-16.075-9.283-13.779,10.267-34.782,14.345c-21.001,4.079-35.439-9.328-35.439-9.328
	l-10.004-18.883c10.24-7.408,13.608-20.229,13.608-31.427c0-15.642,25.761-25.302,25.761-25.302
	c22.081-6.44,63.943-22.541,63.943-22.541C908.143,388.962,773.816,323.345,773.816,323.345z"/>
<path fill="#961E1E" d="M605.45,654.239l-9.814,13.188l8.28,3.372c0,0-6.748,5.52-6.44,15.641c0,0,4.6-0.305,7.974,7.054
	l-2.147,10.21l18.03-1.009c0,0-11.283-39.257-3.003-41.71l-4.917-11.729L605.45,654.239z"/>
<path fill="#961E1E" d="M645.896,491.692l-12.165-4.935l3.92,12.493c0,0-13.522,6.249-13.354,9.623l7.449,6.746l-10.413,8.281
	c0,0,5.891-0.307,7.118,4.906c0,0-8.461,3.986-9.903,5.213c0,0,3.641,4.906,2.786,8.28l-12.156-1.841l2.137,8.281l-14.145,2.454
	l2.454,10.483c0,0,28.365-7.418,32.122-14.472c0,0,12.726-19.934,7.937-31.279c0,0,7.645-20.067,15.055-20.452L645.896,491.692z"/>
<path fill="#961E1E" d="M680.587,502.738l4.906,8.362c0,0-5.83-1.614-10.274,2.372v8.587c0,0-7.264-4.271-9.688,2.158
	c0,0,1.655,3.975,3.756,9.189c0,0-11.395-4.293-11.087,0c0,0,7.302,3.681,7.331,8.281c0,0-6.73-1.512-7.338,2.311l3.422,7.808
	h-6.878v6.442l-6.657,1.84l4.906,5.465l-8.07,5.006l-11.184-12.618c0,0,21.566-12.573,17.189-31.894c0,0,4.52-20.55,22.306-23.31
	H680.587z"/>
<path fill="#961E1E" d="M621.333,693.807l15.091,5.667l-4.679-13.333h13.326c0,0-1.594-19.32-7.42-16.561
	c0,0,8.445-6.672,13.27-0.269c0,0-8.698-14.762-10.37-12.307c0,0,14.71-7.667,14.187-4.6c0,0-8.499-10.733-11.258-8.894
	c0,0-1.841-11.345,4.601-9.813c0,0-17.025-8.563-16.334-0.141c0,0-1.935,14.248,1.984,19.154
	C633.731,652.712,621.269,681.846,621.333,693.807z"/>
<path fill="#FFFFFF" stroke="#000000" stroke-miterlimit="10" d="M618.33,699.474c0,0-45.541,43.701,14.72,71.763
	C633.05,771.236,683.192,740.416,618.33,699.474z"/>
<path fill="#961E1E" d="M620.625,703.705c0,0-27.326,26.223,8.833,43.058C629.458,746.763,659.543,728.272,620.625,703.705z"/>
<path fill="#FFFFFF" stroke="#000000" stroke-miterlimit="10" d="M773.816,323.345c-57.502-16.395-118.685,14.261-118.685,14.261
	c-45.083,6.606-23.718-40.359-23.718-40.359l-57.162-2.139c-24.363,23.669-23.357,44.567-16.494,59.392
	c-6.623,4.763-22.999,14.188-44.491,10.014c-28.272-5.492-25.181-31.809-46.826-19.313c0,0,4.859,1.726,10.161,3.798
	c0,0-30.039,0.796-21.645,8.281c0,0,5.298,3.901,11.485,4.146c0,0-8.834-6.599,7.068-6.711c0,0-3.093,6.77,5.301,10.84
	c0,0-1.76-5.259,3.095-4.129c0,0,17.667,11.851,34.011,12.453c13.448,0.497,50.371,16.722,75.645,14.217
	c31.359,11.82,96.861,7.034,118.059-2.354c25.971-11.5,39.813-3.68,39.813-3.68c74.063,45.542-51.521,91.544-61.643,94.303
	c-0.474,0.13-1.028,0.288-1.649,0.474c-12.635,3.778-53.84,19.159-50.333,44.149c3.681,26.22-39.102,38.642-39.102,38.642
	c-61.182,47.382-8.74,74.522-8.74,74.522c7.819-2.299,33.121,8.281,24.38,27.602c-8.74,19.321-1.839,32.661-1.839,32.661
	c9.2,17.479,18.4,22.541,18.4,22.541c-3.68-5.98-2.3-32.662-2.3-32.662c1.38-13.801,5.06-13.801,11.041-31.279
	c5.979-17.481-5.981-22.082-5.981-22.082c-27.965-8.106-36.499-18.835-35.962-29.248l22.888,0.438
	c16.811,10.997,54.721-6.729,66.864-7.179c12.141-0.447,25.265-9.252,25.265-9.252c3.603-0.839,2.295,3.069,2.295,3.069
	c6.241-3.025,3.94-8.054,3.94-8.054c11.813,0.083,5.25,4.984,5.25,4.984c4.598-0.182,8.531-3.078,8.531-3.078
	c6.237-5.562-16.078-6.152-16.078-6.152c3.939-1.539,7.547-2.819,7.547-2.819c-16.075-9.284-13.779,10.267-34.781,14.345
	s-35.439-9.329-35.439-9.329l-10.005-18.882c10.24-7.409,13.608-20.229,13.608-31.428c0-15.642,25.761-25.302,25.761-25.302
	c22.081-6.44,63.942-22.541,63.942-22.541C908.143,388.962,773.816,323.345,773.816,323.345z"/>
<g>
	<path fill="none" stroke="#961E1E" stroke-width="2" stroke-miterlimit="10" d="M566.99,317.289c0,0,29.927,15.845,54.169,9.721"/>
	<path fill="none" stroke="#961E1E" stroke-width="2" stroke-miterlimit="10" d="M563.017,334.983c0,0,34.33,9.906,60.98,2.622"/>
	<path fill="none" stroke="#961E1E" stroke-width="2" stroke-miterlimit="10" d="M568.036,355.532c0,0,46.326,7.053,62.417-11.348"
		/>
	<path fill="none" stroke="#961E1E" stroke-width="2" stroke-miterlimit="10" d="M585.835,374.373c0,0,46.973-0.44,51.541-26.815"/>
	<path fill="none" stroke="#961E1E" stroke-width="2" stroke-miterlimit="10" d="M618.553,387.585c0,0,28.467-16.412,27.31-40.027"
		/>
	<path fill="none" stroke="#961E1E" stroke-width="2" stroke-miterlimit="10" d="M657.451,348.784c0,0,5.554,29.172-13.36,41.133"/>
	<path fill="none" stroke="#961E1E" stroke-width="2" stroke-miterlimit="10" d="M667.181,389.283c0,0,8.777-24.125,0.985-43.414"/>
	<path fill="none" stroke="#961E1E" stroke-width="2" stroke-miterlimit="10" d="M686.031,386.224c0,0,3.449-27.78-7.593-43.42"/>
	<path fill="none" stroke="#961E1E" stroke-width="2" stroke-miterlimit="10" d="M701.707,381.726c0,0,0.628-31.665-10.694-44.902"
		/>
	<path fill="none" stroke="#961E1E" stroke-width="2" stroke-miterlimit="10" d="M716.745,376.757c0,0-4.914-36.251-15.034-44.228"
		/>
	<path fill="none" stroke="#961E1E" stroke-width="2" stroke-miterlimit="10" d="M730.83,372.815c0,0-7.34-28.479-14.085-43.506"/>
	<path fill="none" stroke="#961E1E" stroke-width="2" stroke-miterlimit="10" d="M741.458,374.422c0,0,2.303-29.166-1.068-46.646"/>
	<path fill="none" stroke="#961E1E" stroke-width="2" stroke-miterlimit="10" d="M748.839,376.019c0,0,13.521-29.845,12.404-43.489"
		/>
	<path fill="none" stroke="#961E1E" stroke-width="2" stroke-miterlimit="10" d="M577.236,299.408c0,0-48.502,58.273,33.405,86.792
		c0,0,42.493,9.198,79.067-0.922c36.573-10.121,31.647-16.945,60.168-8.972"/>
	<path fill="none" stroke="#961E1E" stroke-width="2" stroke-miterlimit="10" d="M591.955,297.246c0,0-45.836,59.35,22.771,77.176
		c0,0,45.926,19.469,109.407-9.219c0,0,12.288-9.765,28.928,2.809"/>
	<path fill="none" stroke="#961E1E" stroke-width="2" stroke-miterlimit="10" d="M602.996,304.624c0,0-31.798,48.802,27.458,64.728
		c0,0,40.318,11.838,91.534-12.491c0,0,18.947-9.238,33.975,2.722"/>
	<path fill="none" stroke="#961E1E" stroke-width="2" stroke-miterlimit="10" d="M616.791,304.624c0,0-36.116,73.704,60.455,56.326
		c0,0,59.651-28.396,81.06-9.188"/>
</g>
<path fill="#961E1E" d="M620.335,318.429c0,0-7.921,55.271,63.145,22.989c0,0,42.982-19.486,80.267-8.054v-3.807
	c0,0-32.201-16.499-98.049,13.927c0,0-41.691,16.436-39.905-25.056H620.335L620.335,318.429z"/>
<path fill="#FFFFFF" stroke="#000000" stroke-miterlimit="10" d="M742.457,475.272c0,0-46.907-19.171-36.737,7.854
	c0,0,9.105,25.39,26.188,22.972C731.908,506.098,769.143,499.062,742.457,475.272z"/>
<path fill="#FFFFFF" stroke="#000000" stroke-miterlimit="10" d="M675.219,390.94c0,0-17.634,3.849-10.887,9.368
	c0,0-24.382,17.762,25.377,17.315c0,0,47.544-11.796,12.003-23.142C701.712,394.482,690.089,380.652,675.219,390.94z"/>
<path fill="#1D187C" d="M671.391,400.616c0,0-18.763,11.074,12.85,12.438c0,0,34.653-3.317,17.472-14.563
	c0,0-10.571-8.137-19.222-5.308c0,0-4.229,4.671,4.14,6.818c0,0,12.993-1.238-0.453,5.258c0,0-12.954,1.652-10.958-2.876
	C675.219,402.384,675.005,397.77,671.391,400.616z"/>
<path fill="none" stroke="#961E1E" stroke-width="2" stroke-miterlimit="10" d="M588.228,382.829c0,0-18.354,3.644-61.902-10.6
	v-2.878c25.761,3.391,34.987-8.386,34.987-8.386S569.166,377.155,588.228,382.829z"/>
<path fill="none" stroke="#961E1E" stroke-width="2" stroke-miterlimit="10" d="M540.87,369.688c0,0-1.025,4.465,1.877,7.423"/>
<path fill="none" stroke="#961E1E" stroke-width="2" stroke-miterlimit="10" d="M554.345,366.02c0,0-1.177,10.751,16.156,16.54"/>
<path fill="none" stroke="#961E1E" stroke-width="2" stroke-miterlimit="10" d="M525.751,370.676c0,0,41.808,5.998,44.538,1.792"/>
<path fill="none" stroke="#961E1E" stroke-width="2" stroke-miterlimit="10" d="M631.745,601.591c0,0,13.635,2.709,45.981-7.872
	v-2.139c-19.136,2.52-25.989-6.228-25.989-6.228S645.907,597.377,631.745,601.591z"/>
<path fill="none" stroke="#961E1E" stroke-miterlimit="10" d="M666.925,591.829c0,0,0.76,3.316-1.395,5.513"/>
<path fill="none" stroke="#961E1E" stroke-width="2" stroke-miterlimit="10" d="M656.915,589.105c0,0,0.875,7.985-12,12.287"/>
<path fill="none" stroke="#961E1E" stroke-miterlimit="10" d="M678.153,592.563c0,0-31.055,4.455-33.082,1.332"/>
<path fill="#467749" d="M690.833,203.739c0,0,15.196-14.49,24.611-20.701c0,0,5.971-5.98,10.261-13.34c0,0-0.632,16.101-2.559,23.46
	c0,0,5.995-13.341,12.63-12.881c0,0,13.053,0.92,13.696-2.99c0,0,1.426,5.981-7.202,12.766c-8.637,6.785-4.356,9.085-9.276,15.525
	c0,0,9.201,7.591,23.752,2.3c0,0,1.927,8.956-9.628,15.749c0,0-13.912,6.334-20.118,5.645c0,0,13.912,8.175,16.478,12.941
	c2.57,4.769,5.165,2.238,13.392,4.08c0,0-9.538,9.221-21.308,8.865c0,0-10.915,1.485-16.906-1.736c0,0,12.198,9.201,12.626,13.57
	c0.428,4.371,2.142,4.802,5.994,5.392c0,0-12.84,5.739-14.768-1.208c-1.927-6.943-11.13-1.193-12.413-5.564
	c0,0-0.855,16.561,3.853,19.782c0,0-15.622-1.381-21.401-6.902c0,0,0,13.801,4.707,17.71c0,0-11.631,0.118-14.547-7.129
	c0,0,5.775,13.685,9.413,12.477c0,0-25.892,5.922-29.743-9.715c0,0,3.852-34.503,34.666-44.623c0,0,28.676-25.087-14.548-28.185
	h-5.998L690.833,203.739z"/>
<path fill="#467749" d="M634.696,302.651h-6.601h-0.78h-6.6c-44.229-5.513-30.46,4.823-30.46,4.823
	c-2.14,10.12,4.923,25.301,4.923,25.301c3.423-13.57,7.275-9.431,7.275-9.431c0.214,5.291,5.817,12.421,5.817,12.421
	c3.677-10.81,8.523-13.801,8.523-13.801c1.924-0.229,3.278,15.642,3.278,15.642c4.715-5.852,6.829-13.136,7.635-16.694
	c0.807,3.558,2.921,10.843,7.637,16.694c0,0,1.353-15.871,3.276-15.642c0,0,4.849,2.991,8.521,13.801c0,0,5.604-7.13,5.82-12.421
	c0,0,3.849-4.14,7.276,9.431c0,0,7.061-15.181,4.92-25.301C665.155,307.475,678.923,297.138,634.696,302.651z"/>
<path fill="#467749" d="M564.574,203.739c0,0-15.194-14.49-24.61-20.701c0,0-5.968-5.98-10.26-13.34c0,0,0.631,16.101,2.557,23.46
	c0,0-5.993-13.341-12.627-12.881c0,0-13.056,0.92-13.697-2.99c0,0-1.429,5.981,7.205,12.766c8.632,6.785,4.352,9.085,9.276,15.525
	c0,0-9.204,7.591-23.756,2.3c0,0-1.927,8.956,9.629,15.749c0,0,13.91,6.334,20.117,5.645c0,0-13.911,8.175-16.478,12.941
	c-2.57,4.769-5.164,2.238-13.389,4.08c0,0,9.536,9.221,21.306,8.865c0,0,10.915,1.485,16.906-1.736c0,0-12.198,9.201-12.625,13.57
	c-0.428,4.371-2.14,4.802-5.991,5.392c0,0,12.839,5.739,14.766-1.208c1.925-6.943,11.129-1.193,12.412-5.564
	c0,0,0.856,16.561-3.854,19.782c0,0,15.624-1.381,21.402-6.902c0,0,0,13.801-4.708,17.71c0,0,11.634,0.118,14.552-7.129
	c0,0-5.779,13.685-9.416,12.477c0,0,25.894,5.922,29.747-9.715c0,0-3.853-34.503-34.668-44.623c0,0-28.677-25.087,14.551-28.185
	h5.996L564.574,203.739z"/>
<path fill="#1D187C" d="M688.225,213.715c0,0,6.816-1.235,12.812-8.135c0,0,1.711,6.753-2.426,12.116c0,0,7.562,0.611,11.415-5.216
	c0,0,0.854,5.14-2.286,10.313c0,0,7.563-1.505,12.129-3.764c0,0,0,8.167-7.849,14.762c0,0,8.396,2.134,13.685,1.523
	c0,0-7.837,7.515-17.395,8.586c0,0,4.424,10.577,8.705,16.407c0,0-12.949-1.534-22.314-6.44c0,0,1.768,12.413,6.764,19.468
	c0,0-13.129-4.294-21.824-8.741c0,0,4.848,17.224,8.982,22.718c0,0-11.697-5.701-17.117-13.672c0,0,3.569,17.784,12.13,23.608
	c0,0-13.295-1.823-17.55-14.261c0,0,3.104-20.155,21.11-25.603c0,0,19.418-7.978,20.115-22.542
	C707.312,234.842,699.526,214.977,688.225,213.715z"/>
<path fill="#1D187C" d="M627.705,303.133c-4.066-2.634-34.668-1.179-34.668-1.179c0,8.51,2.354,18.494,2.354,18.494
	c6.419-5.197,10.196-13.664,10.196-13.664c-0.716,7.36,2.386,15.641,2.386,15.641c7.232-4.601,9.924-14.261,9.924-14.261
	c0.039,6.901,3.922,15.181,3.922,15.181c2.428-3.964,4.918-9.379,5.886-11.553c0.969,2.174,3.46,7.589,5.887,11.553
	c0,0,3.884-8.28,3.922-15.181c0,0,2.689,9.661,9.924,14.261c0,0,3.105-8.28,2.386-15.641c0,0,3.776,8.467,10.195,13.664
	c0,0,2.355-9.983,2.355-18.494C662.374,301.955,631.772,300.499,627.705,303.133z"/>
<path fill="#1D187C" d="M567.182,213.715c0,0-6.817-1.235-12.808-8.135c0,0-1.714,6.753,2.424,12.116c0,0-7.56,0.611-11.412-5.216
	c0,0-0.855,5.14,2.282,10.313c0,0-7.56-1.505-12.126-3.764c0,0,0,8.167,7.845,14.762c0,0-8.393,2.134-13.683,1.523
	c0,0,7.836,7.515,17.394,8.586c0,0-4.424,10.577-8.702,16.407c0,0,12.948-1.534,22.311-6.44c0,0-1.766,12.413-6.76,19.468
	c0,0,13.125-4.294,21.829-8.741c0,0-4.852,17.224-8.989,22.718c0,0,11.699-5.701,17.12-13.672c0,0-3.567,17.784-12.128,23.608
	c0,0,13.294-1.823,17.549-14.261c0,0-3.109-20.155-21.116-25.603c0,0-19.42-7.978-20.117-22.542
	C548.096,234.842,555.879,214.977,567.182,213.715z"/>
<path fill="#FFFFFF" d="M710.737,150.837c0.855-7.36,12.84-20.701,12.84-20.701c5.99-8.74-2.569-4.735-2.569-4.735
	c-6.848,3.544-9.417,2.435-9.417,2.435c-2.996-1.839-9.416-6.899-11.557,6.901c-2.14,13.8-22.679,22.541-22.679,22.541
	c-0.859-5.059-5.566-8.74-5.566-8.74c2.142,13.341-9.415,23.921-9.415,23.921c-18.143-12.861-32.104-7.764-34.669-6.64
	c-2.563-1.124-16.525-6.221-34.668,6.64c0,0-11.556-10.581-9.416-23.921c0,0-4.708,3.681-5.564,8.74c0,0-20.546-8.74-22.685-22.541
	c-2.142-13.8-8.56-8.74-11.558-6.901c0,0-2.567,1.109-9.416-2.435c0,0-8.56-4.005-2.566,4.735c0,0,11.981,13.341,12.838,20.701
	c0,0,6.002,28.062,34.245,43.242c0,0-41.948-14.26-7.282,20.701c0,0-12.409-5.06-18.832,5.519c0,0-13.696-2.3-12.839,8.744
	c0,0-1.712,16.101,9.844,17.941c0,0-6.42,3.68,4.708,6.44c0,0,32.531,17.021,35.524,37.263c0,0-0.428,18.399,9.846,18.399
	c0,0,7.703,4.6,12.839-2.76c0,0,5.993,10.121,11.558,0c0,0-0.385,4.924,3.423,4.545c3.809,0.378,3.424-4.545,3.424-4.545
	c5.564,10.121,11.557,0,11.557,0c5.137,7.36,12.84,2.76,12.84,2.76c10.273,0,9.846-18.399,9.846-18.399
	c2.998-20.242,35.521-37.263,35.521-37.263c11.127-2.759,4.709-6.44,4.709-6.44c11.554-1.84,9.844-17.941,9.844-17.941
	c0.855-11.043-12.84-8.744-12.84-8.744c-6.419-10.58-18.83-5.519-18.83-5.519c34.664-34.961-7.28-20.701-7.28-20.701
	C704.735,178.898,710.737,150.837,710.737,150.837z"/>
<path fill="none" stroke="#000000" stroke-miterlimit="10" d="M710.737,150.837c0.855-7.36,12.84-20.701,12.84-20.701
	c5.99-8.74-2.569-4.735-2.569-4.735c-6.848,3.544-9.417,2.435-9.417,2.435c-2.996-1.839-9.416-6.899-11.557,6.901
	c-2.14,13.8-22.679,22.541-22.679,22.541c-0.859-5.059-5.566-8.74-5.566-8.74c2.142,13.341-9.415,23.921-9.415,23.921
	c-18.143-12.861-32.104-7.764-34.669-6.64c-2.563-1.124-16.525-6.221-34.668,6.64c0,0-11.556-10.581-9.416-23.921
	c0,0-4.708,3.681-5.564,8.74c0,0-20.546-8.74-22.685-22.541c-2.142-13.8-8.56-8.74-11.558-6.901c0,0-2.567,1.109-9.416-2.435
	c0,0-8.56-4.005-2.566,4.735c0,0,11.981,13.341,12.838,20.701c0,0,6.002,28.062,34.245,43.242c0,0-41.948-14.26-7.282,20.701
	c0,0-12.409-5.06-18.832,5.519c0,0-13.696-2.3-12.839,8.744c0,0-1.712,16.101,9.844,17.941c0,0-6.42,3.68,4.708,6.44
	c0,0,32.531,17.021,35.524,37.263c0,0-0.428,18.399,9.846,18.399c0,0,7.703,4.6,12.839-2.76c0,0,5.993,10.121,11.558,0
	c0,0-0.385,4.924,3.423,4.545c3.809,0.378,3.424-4.545,3.424-4.545c5.564,10.121,11.557,0,11.557,0
	c5.137,7.36,12.84,2.76,12.84,2.76c10.273,0,9.846-18.399,9.846-18.399c2.998-20.242,35.521-37.263,35.521-37.263
	c11.127-2.759,4.709-6.44,4.709-6.44c11.554-1.84,9.844-17.941,9.844-17.941c0.855-11.043-12.84-8.744-12.84-8.744
	c-6.419-10.58-18.83-5.519-18.83-5.519c34.664-34.961-7.28-20.701-7.28-20.701C704.735,178.898,710.737,150.837,710.737,150.837z"/>
<path fill="none" stroke="#961E1E" stroke-width="2" stroke-miterlimit="10" d="M660.391,222.095c0,0,11.98,3.066,18.259-1.687
	c6.275-4.753,33.951,3.674,32.813,11.574"/>
<path fill="#1D187C" d="M635.126,213.974c0,0,2.354-8.28,12.837-12.995c0,0,4.814-4.831,3.21-10.925c0,0,4.923,2.76,3.746,9.085
	c0,0,0,3.105,2.569,0.806c2.566-2.3,3.89-6.095,2.53-7.476c0,0,5.603,0.92,1.859,11.5c0,0,1.817,2.99,5.564-4.025
	c0,0,3.424,21.276-24.401,21.16C643.041,221.104,634.481,219.955,635.126,213.974z"/>
<ellipse fill="#FFFFFF" stroke="#000000" stroke-miterlimit="10" cx="643.255" cy="219.028" rx="8.56" ry="9.202"/>
<ellipse cx="643.255" cy="219.028" rx="4.28" ry="4.6"/>
<path fill="none" stroke="#961E1E" stroke-width="2" stroke-miterlimit="10" d="M671.505,235.943c0,0-11.697,13.491-11.697,16.56
	c0,0-10.27,6.13-10.27,15.025c0,0,4.85,20.547-4.854,20.547h-17.406"/>
<path fill="none" stroke="#000000" stroke-miterlimit="10" d="M628.134,287.311c0,0,1.072-10.427,3.175-10.886
	c0,0,3.388,0.457,3.388,10.886H628.134z"/>
<path fill="none" stroke="#000000" stroke-miterlimit="10" d="M635.342,287.311c0,0,1.071-10.427,3.172-10.886
	c0,0,3.388,0.457,3.388,10.886H635.342z"/>
<path fill="none" stroke="#000000" stroke-miterlimit="10" d="M628.096,255.839c0,0-0.071,5.365,3.174,6.9c0,0,3.104-1.84,3.104-6.9
	C634.373,255.839,629.095,255.685,628.096,255.839z"/>
<path fill="none" stroke="#000000" stroke-miterlimit="10" d="M634.34,256.456c0,0,0.89,5.279,4.348,6.113
	c0,0,2.719-2.444,1.813-7.41C640.501,255.159,635.293,256.101,634.34,256.456z"/>
<path fill="none" stroke="#77305C" stroke-miterlimit="10" d="M647.181,276.744c0,0,4.035-10.901-19.865-11.13"/>
<path fill="none" stroke="#000000" stroke-miterlimit="10" d="M641.901,287.309c0,0,3.498-8.282,2.783-12.115
	c0,0,4.145,1.397,5.14,8.982C649.824,284.174,647.396,289.3,641.901,287.309z"/>
<path fill="none" stroke="#961E1E" stroke-width="2" stroke-miterlimit="10" d="M595.024,222.095c0,0-11.984,3.066-18.26-1.687
	c-6.278-4.753-33.959,3.674-32.816,11.574"/>
<path fill="#1D187C" d="M620.286,213.974c0,0-2.354-8.28-12.839-12.995c0,0-4.814-4.831-3.21-10.925c0,0-4.922,2.76-3.747,9.085
	c0,0,0,3.105-2.565,0.806c-2.57-2.3-3.889-6.095-2.534-7.476c0,0-5.599,0.92-1.854,11.5c0,0-1.818,2.99-5.563-4.025
	c0,0-3.424,21.276,24.396,21.16C612.369,221.104,620.93,219.955,620.286,213.974z"/>
<ellipse fill="#FFFFFF" stroke="#000000" stroke-miterlimit="10" cx="612.156" cy="219.028" rx="8.559" ry="9.202"/>
<ellipse cx="612.156" cy="219.028" rx="4.279" ry="4.6"/>
<path fill="none" stroke="#961E1E" stroke-width="2" stroke-miterlimit="10" d="M583.907,235.943c0,0,11.699,13.491,11.699,16.56
	c0,0,10.273,6.13,10.273,15.025c0,0-4.851,20.547,4.848,20.547h17.407"/>
<path fill="none" stroke="#000000" stroke-miterlimit="10" d="M627.278,287.311c0,0-1.072-10.427-3.176-10.886
	c0,0-3.387,0.457-3.387,10.886H627.278z"/>
<path fill="none" stroke="#000000" stroke-miterlimit="10" d="M620.071,287.311c0,0-1.071-10.427-3.173-10.886
	c0,0-3.387,0.457-3.387,10.886H620.071z"/>
<path fill="none" stroke="#000000" stroke-miterlimit="10" d="M627.349,255.839c0,0,0.071,5.365-3.174,6.9c0,0-3.103-1.84-3.103-6.9
	C621.071,255.839,626.349,255.685,627.349,255.839z"/>
<path fill="none" stroke="#000000" stroke-miterlimit="10" d="M621.071,256.456c0,0-0.89,5.279-4.349,6.113
	c0,0-2.717-2.444-1.813-7.41C614.909,255.159,620.118,256.101,621.071,256.456z"/>
<path fill="none" stroke="#77305C" stroke-miterlimit="10" d="M608.232,276.744c0,0-4.032-10.901,19.863-11.13"/>
<path fill="none" stroke="#000000" stroke-miterlimit="10" d="M613.51,287.309c0,0-3.495-8.282-2.783-12.115
	c0,0-4.145,1.397-5.14,8.982C605.588,284.174,608.017,289.3,613.51,287.309z"/>
<path fill="none" stroke="#961E1E" stroke-width="2" stroke-miterlimit="10" d="M627.315,251.634c0,0,6.596,0.294,7.024-5.11
	c0,0,7.919,1.839,7.813-5.061c-0.109-6.9-3.21-8.511-9.525-8.511c0,0-2.354-3.335-4.922-3.68"/>
<path fill="none" stroke="#961E1E" stroke-width="2" stroke-miterlimit="10" d="M598.441,230.652c0,0,10.743,8.144,6.122,8.154
	c0,0-6.871-4.014-4.945,1.276c1.927,5.291,6.39,6.437,9.134,7.932c0,0,1.375,9.757,18.473,7.144h1.444
	c17.099,2.612,18.471-7.144,18.471-7.144c2.745-1.496,7.212-2.641,9.138-7.932c1.922-5.291-4.947-1.276-4.947-1.276
	c-4.622-0.01,6.123-8.154,6.123-8.154"/>
<path fill="none" stroke="#961E1E" stroke-width="2" stroke-miterlimit="10" d="M628.577,251.634c0,0-6.594,0.294-7.023-5.11
	c0,0-7.919,1.839-7.812-5.061c0.108-6.9,3.21-8.511,9.523-8.511c0,0,2.353-3.335,4.921-3.68"/>
<path fill="#FFFFFF" d="M877.884,450.905c0-9.93-10.492-18.397-25.229-21.684c3.126-3.711,4.908-7.975,4.908-12.514
	c0-14.32-17.708-25.929-39.551-25.929c-1.526,0-3.032,0.063-4.514,0.172c-2.519-15.462-14.154-27.162-28.143-27.162
	c-15.833,0-28.665,14.971-28.665,33.44c0,0.008,0.001,0.017,0.001,0.026c-2.968,0.102-5.72,1.43-8.012,3.664
	c-3.709-2.341-7.881-3.69-12.309-3.69c-15.23,0-27.578,15.568-27.578,34.775c0,11.564,4.495,21.783,11.384,28.106
	c-9.014,2.228-15.737,10.859-15.737,21.19c0,12.021,9.098,21.768,20.319,21.768c0.007,0,0.015-0.005,0.021-0.005
	c0.222,6.842,7.347,12.336,16.125,12.336c7.023,0,12.985-3.528,15.206-8.438c9.462,6.634,21.216,10.568,33.96,10.568
	c27.969,0,51.183-18.947,55.769-43.837C864.047,471.778,877.884,462.307,877.884,450.905z"/>
<path fill="#CCCCCC" d="M877.884,450.905c0-1.791-0.354-3.533-0.999-5.207c-4.638,17.85-46.535,7.814-46.535,7.814
	c-1.814,24.205-21.771,15.311-21.771,15.311c-1.452,29.641-24.675,8.854-24.675,8.854c-9.798,6.387-30.115-11.815-30.115-11.815
	c-2.18,15.313-17.057,11.36-17.057,11.36c-18.865-2.469,8.348-21.191,8.348-21.191c-41.726-7.358-5.069-58.477-5.067-58.483
	c-1.19-0.203-2.405-0.318-3.641-0.318c-15.23,0-27.578,15.568-27.578,34.775c0,11.565,4.495,21.783,11.384,28.106
	c-9.014,2.229-15.737,10.859-15.737,21.191c0,12.021,9.098,21.768,20.319,21.768c0.007,0,0.015-0.005,0.021-0.005
	c0.222,6.841,7.347,12.335,16.125,12.335c7.023,0,12.985-3.528,15.206-8.438c9.462,6.634,21.216,10.568,33.96,10.568
	c27.969,0,51.183-18.947,55.769-43.837C864.047,471.778,877.884,462.307,877.884,450.905z"/>
<path fill="#B2ADAD" d="M876.888,456.031c-6.335,12.685-40.731,7.359-40.731,7.359c-1.089,21.238-22.135,26.18-22.135,26.18
	c-3.993,23.711-27.576,5.927-27.576,5.927c-20.686,4.939-29.029-12.844-29.029-12.844c-7.982,18.771-32.294,5.433-32.294,5.433
	c-16.684,1.484-15.023-21.822-15.021-21.837c-3.504,3.908-5.66,9.202-5.66,15.053c0,12.021,9.098,21.768,20.318,21.768
	c0.008,0,0.016-0.005,0.022-0.005c0.222,6.841,7.347,12.335,16.125,12.335c7.023,0,12.984-3.528,15.206-8.438
	c9.462,6.634,21.216,10.568,33.96,10.568c27.969,0,51.183-18.947,55.769-43.837C861.229,472.074,873.459,465.05,876.888,456.031z"/>
<path fill="#B2ADAD" d="M720.178,460.112c1.943-0.602,11.112-4.08,11.112-4.08c-13.422-4.889-22.495-24.026-22.495-24.026
	C708.794,443.57,713.29,453.788,720.178,460.112z"/>
<path fill="#CCCCCC" d="M812.569,397.23c0,0-14.754,43.519-45.475,21.758c0,0,0.964,38.313-12.099,29.75
	c0,0-2.418,12.675,23.708,8.642c0,0,17.899-21.714,20.804-1.348c0,0,13.668-17.427,22.253-9.974c0,0-1.45-11.723,11.129-15.389
	C832.89,430.668,815.955,433.975,812.569,397.23z"/>
<path fill="#FFFFFF" d="M644.132,619.452c0-7.964-9.334-14.759-22.441-17.395c2.779-2.977,4.365-6.398,4.365-10.042
	c0-11.487-15.753-20.803-35.183-20.803c-1.357,0-2.697,0.051-4.015,0.139c-2.239-12.406-12.59-21.794-25.034-21.794
	c-14.083,0-25.499,12.014-25.499,26.833c0,0.005,0.001,0.012,0.001,0.021c-2.641,0.083-5.088,1.146-7.127,2.938
	c-3.299-1.879-7.011-2.96-10.95-2.96c-13.549,0-24.531,12.49-24.531,27.899c0,9.28,4,17.477,10.126,22.55
	c-8.018,1.787-14,8.714-14,17.003c0,9.645,8.093,17.464,18.076,17.464c0.006,0,0.012-0.005,0.019-0.005
	c0.198,5.49,6.536,9.896,14.345,9.896c6.248,0,11.55-2.83,13.525-6.769c8.417,5.323,18.874,8.479,30.209,8.479
	c24.878,0,45.529-15.203,49.606-35.172C631.823,636.201,644.132,628.601,644.132,619.452z"/>
<path fill="#CCCCCC" d="M644.132,619.452c0-1.438-0.313-2.831-0.889-4.175c-4.124,14.32-41.396,6.27-41.396,6.27
	c-1.614,19.42-19.365,12.285-19.365,12.285c-1.291,23.78-21.948,7.104-21.948,7.104c-8.717,5.122-26.79-9.484-26.79-9.484
	c-1.939,12.288-15.173,9.116-15.173,9.116c-16.782-1.979,7.425-17.001,7.425-17.001c-37.117-5.902-4.509-46.917-4.505-46.923
	c-1.061-0.162-2.141-0.254-3.241-0.254c-13.549,0-24.531,12.49-24.531,27.899c0,9.28,3.999,17.477,10.126,22.549
	c-8.018,1.787-14,8.715-14,17.003c0,9.646,8.093,17.465,18.075,17.465c0.006,0,0.012-0.005,0.019-0.005
	c0.198,5.49,6.536,9.896,14.345,9.896c6.248,0,11.55-2.83,13.525-6.769c8.417,5.323,18.874,8.478,30.21,8.478
	c24.878,0,45.529-15.203,49.606-35.171C631.823,636.201,644.132,628.601,644.132,619.452z"/>
<path fill="#B2ADAD" d="M643.245,623.566c-5.633,10.178-36.232,5.905-36.232,5.905c-0.968,17.039-19.689,21.004-19.689,21.004
	c-3.552,19.025-24.53,4.755-24.53,4.755c-18.4,3.962-25.823-10.304-25.823-10.304c-7.099,15.061-28.728,4.358-28.728,4.358
	c-14.84,1.19-13.363-17.509-13.361-17.519c-3.117,3.131-5.035,7.382-5.035,12.075c0,9.646,8.093,17.465,18.075,17.465
	c0.006,0,0.012-0.005,0.019-0.005c0.198,5.49,6.536,9.896,14.345,9.896c6.248,0,11.55-2.83,13.525-6.769
	c8.416,5.323,18.873,8.478,30.209,8.478c24.878,0,45.529-15.203,49.606-35.171C629.317,636.438,640.196,630.802,643.245,623.566z"/>
<path fill="#B2ADAD" d="M503.846,626.839c1.728-0.48,9.884-3.272,9.884-3.272c-11.941-3.922-20.011-19.276-20.011-19.276
	C493.72,613.57,497.719,621.767,503.846,626.839z"/>
<path fill="#CCCCCC" d="M586.033,576.391c0,0-13.125,34.915-40.453,17.455c0,0,0.859,30.738-10.76,23.87
	c0,0-2.151,10.169,21.088,6.932c0,0,15.921-17.422,18.506-1.081c0,0,12.158-13.983,19.795-8.001c0,0-1.29-9.406,9.899-12.349
	C604.108,603.218,589.044,605.872,586.033,576.391z"/>
<g>
	<path fill="#FFFFFF" stroke="#000000" stroke-miterlimit="10" d="M812.963,432.962c0,0-19.067,17.034,11.291,15.258
		c0,0,48.854-7.613,29.3-24.955c0,0-19.121-6.305-28.397,2.053C825.157,425.316,812.49,426.452,812.963,432.962z"/>
	<path fill="#1D187C" d="M817.569,431.706c0,0-11.528,12.605,0.864,11.973c0,0,60.942-7.524,18.716-19.537
		c0,0-5.185-0.857-7.104,2.973c0,0-3.615,5.644,4.11,6.238c0,0,6.087,2.234-1.581,2.95c0,0-4.895,3.59-10.638-4.911
		C821.938,431.391,819.585,429.196,817.569,431.706z"/>
	<path fill="#FFFFFF" stroke="#000000" stroke-miterlimit="10" d="M763.747,323.03c0,0-17.011,15.614,8.537,16.032
		c0,0,41.399-4.071,26.066-22.779c0,0-15.642-7.667-23.921,0C774.43,316.283,763.747,316.502,763.747,323.03z"/>
	<path fill="#961E1E" d="M767.684,322.109c0,0-10.426,11.74,0,12.003c0,0,51.521-3.11,16.866-18.138c0,0-4.293-1.227-6.134,2.454
		c0,0-3.372,5.366,3.068,6.517c0,0,4.963,2.669-1.505,2.83c0,0-4.321,3.228-8.616-5.666
		C771.363,322.109,769.523,319.752,767.684,322.109z"/>
	<path fill="#FFFFFF" stroke="#000000" stroke-miterlimit="10" d="M763.747,411.043c0,0-9.984-15.642,8.093-15.642
		c0,0,45.607-35.421,33.912,19.781c0,0,37.109,8.193,6.707,24.841c0,0-26.387,9.502-43.095-14.34L763.747,411.043z"/>
	<path fill="#1D187C" d="M767.522,405.26c0,0,5.374,28.094,39.646,31.774c0,0,17.021-2.53,4.6-14.031c0,0-5.75-3.713-11.729-1.856
		c0,0,2.76-9.641,0.69-17.348c0,0-1.689-12.078-12.229-10.468c0,0-9.37,6.214-4.435,10.468c0,0,6.773,9.773-1.506,7.703
		c0,0-5.061-0.686-8.512-7.703C774.047,403.799,767.896,399.247,767.522,405.26z"/>
	<path fill="#FFFFFF" stroke="#000000" stroke-miterlimit="10" d="M754.485,408.589c0,0-21.752,7.745,1.61,18.092
		c0,0,39.707,12.396,32.885-10.811c0,0-11.414-13.158-22.028-9.328C766.952,406.542,757.029,402.577,754.485,408.589z"/>
	<path fill="#961E1E" d="M758.469,409.276c0,0-14.178,6.745-4.681,11.054c0,0,48.654,17.228,22.604-10.124
		c0,0-3.474-2.806-6.604-0.133c0,0-5.198,3.626,0.282,7.196c0,0,3.532,4.394-2.488,2.019c0,0-5.237,1.288-5.723-8.577
		C761.858,410.712,761.083,407.823,758.469,409.276z"/>
	<path fill="#FFFFFF" stroke="#000000" stroke-miterlimit="10" d="M770.826,358.692c0,0-10.688,26.189,25.707,31.334
		c0,0,13.592,21.016,36.15,11.125c0,0,21.33-17.851-0.071-26.729c0,0-19.465-33.99-38.325-26.631
		C794.287,347.791,767.836,346.592,770.826,358.692z"/>
	<path fill="#467749" d="M775.887,359.98c0,0-2.867,20.24,20.646,21.851c0,0,19.146,20.932,32.025,15.871c0,0,16.613-13.448,0-23.28
		c-16.612-9.832-13.569,4.189-11.271,8.1c0,0,0.229,7.521-6.441-1.645c0,0,0.232-19.326-11.271-20.896
		C799.577,359.98,777.268,346.869,775.887,359.98z"/>
	<path fill="#FFFFFF" stroke="#000000" stroke-miterlimit="10" d="M758.305,354.643c0,0-48.583,14.394-23.742,29.114
		c0,0,22.988,14.106,34.801,1.532C769.363,385.289,794.009,356.505,758.305,354.643z"/>
	<path fill="#961E1E" d="M733.642,375.273c0,0,27.163,18.334,37.043-0.852c0,0,6.468-10.732-11.21-15.729
		c0,0-10.765,4.516-1.276,9.73c0,0,7.903,2.49,0.106,5.999c0,0-13.314,3.762-14.542-2.192
		C743.763,372.229,732.723,366.79,733.642,375.273z"/>
	<path fill="#FFFFFF" stroke="#000000" stroke-miterlimit="10" d="M820.739,356.529c0,0-24.612,17.452-2.761,20.228
		c0,0,63.948,1.835,26.91-23.447C844.889,353.31,831.188,350.416,820.739,356.529z"/>
	<path fill="#1D187C" d="M822.4,361.13c0,0-12.472,9.319-4.192,11.1c0,0,48.981,0.473,25.071-13.537c0,0-2.53-1.52-4.37,0
		c0,0,6.671,7.498-3.45,8.188c0,0-12.019,2.628-9.574-2.366C825.885,364.515,825.926,358.072,822.4,361.13z"/>
	<path fill="#FFFFFF" stroke="#000000" stroke-miterlimit="10" d="M771.978,334.983c0,0-33.23-1.598-18.916,19.29
		c0,0,2.049,4.634,16.462,7.088c0,0,94.765,14.099,42.015-32.053c0,0-15.417-6.319-23.04-1.533
		C788.498,327.775,773.816,331.606,771.978,334.983z"/>
	<path fill="#1D187C" d="M756.869,342.806c0,0-2.376,13.648,14.341,14.107c0,0,78.048,10.255,41.4-18.487
		c0,0-4.293-4.515-7.972,1.927c0,0-10.889,14.243-1.842,11.184c0,0,5.102-2.116,8.433-6.821c0,0,6.904-2.541,4.755,6.821
		c0,0-1.227,6.69-30.82,2.736c0,0-24.405-0.439-23.857-9.557C761.308,344.717,759.089,338.512,756.869,342.806z"/>
</g>
<path fill="none" stroke="#961E1E" stroke-width="2" stroke-miterlimit="10" d="M654.736,495.475c0,0-16.025,14.952-14.102,28.743
	c1.923,13.789-21.49,33.245-34.457,38.368"/>
<path fill="none" stroke="#961E1E" stroke-width="2" stroke-miterlimit="10" d="M661.614,499.251c0,0-14.855,7.818-16.389,23.766
	c-1.534,15.948-15.84,36.451-28.215,42.9"/>
<path fill="none" stroke="#961E1E" stroke-width="2" stroke-miterlimit="10" d="M666.292,500.003c0,0-14.368,12.552-15.371,27.271
	c-1.002,14.721-18.568,39.578-29.588,45.451"/>
<path fill="none" stroke="#961E1E" stroke-width="2" stroke-miterlimit="10" d="M648.36,502.738c0,0-1.938,11.472,10.006,6.233"/>
<path fill="none" stroke="#961E1E" stroke-width="2" stroke-miterlimit="10" d="M641.29,516.211c0,0,2.561,9.952,11.518,2.833"/>
<path fill="none" stroke="#961E1E" stroke-width="2" stroke-miterlimit="10" d="M639.682,531.397c0,0-3.239,7.982,9.419,4.063"/>
<path fill="none" stroke="#961E1E" stroke-width="2" stroke-miterlimit="10" d="M633.731,541.394c0,0,0.168,10.332,10.081,5.556"/>
<path fill="none" stroke="#961E1E" stroke-width="2" stroke-miterlimit="10" d="M625.915,549.558c0,0-4.853,10.966,11.984,6.608"/>
<path fill="none" stroke="#961E1E" stroke-width="2" stroke-miterlimit="10" d="M615.082,557.849c0,0,0.007,10.074,16.501,6.159"/>
<g>
	<path fill="#961E1E" d="M710.309,475.933c0,0,9.72,31.299,29.429,22.515c0,0,11.762-4.328,1.1-19.286c0,0-11.223-3.21-7.086,6.793
		c0,0,4.607,6.887-3.67,4.745c0,0-12.741-5.396-9.973-10.809C720.108,479.891,714.898,468.74,710.309,475.933z"/>
	<path fill="#FFFFFF" stroke="#000000" stroke-miterlimit="10" d="M660.042,437.742c0,0-27.621,12.141-6.777,19.258
		c0,0,62.272,14.669,31.08-17.552C684.345,439.448,671.505,433.856,660.042,437.742z"/>
	<path fill="#1D187C" d="M660.741,442.583c0,0-14.09,6.617-6.34,10.028c0,0,47.885,10.32,27.283-8.215c0,0-2.172-1.996-4.279-0.879
		c0,0,5.023,8.688-5.029,7.325c0,0-12.299,0.154-8.9-4.244C663.476,446.599,664.812,440.297,660.741,442.583z"/>
	<path fill="#FFFFFF" stroke="#000000" stroke-miterlimit="10" d="M701.712,492.006c0,0,4.324,20.547,39.595,19.014
		c0,0,53.262-11.346-10.476-28.827C730.83,482.192,698.304,475.138,701.712,492.006z"/>
	<path fill="#467749" d="M714.901,484.951c0,0-16.585,3.986,1.845,16.868c0,0,26.602,12.571,36.316-4.602
		c0,0-2.746-10.364-16.047-1.613c0,0-10.735,11.121-15.028-3.908C721.986,491.697,723.457,483.11,714.901,484.951z"/>
	<path fill="#FFFFFF" stroke="#000000" stroke-miterlimit="10" d="M656.214,462.42c0,0-47.699-1.89-30.034,11.736
		c0,0,0.912,16.013,14.462,18.731c0,0,40.299,26.441,59.479,6.506c0,0,56.979-15.144,8.555-40.378
		C708.673,459.016,676.913,447.153,656.214,462.42z"/>
	<path fill="#467749" d="M640.104,472.991c0,0-5.508,11.347,11.046,15.947c0,0,30.05,21.468,42.931,2.454
		c0,0,47.844-14.723,0-29.442c0,0-22.824-3.066-26.9,4.295c0,0-3.768,8.894,16.778,7.974c0,0,20.244-10.641,0,10.472
		c0,0-14.585,8.375-27.532-3.963c0,0-8.032-1.296-5.276-8.35C651.15,472.379,645.933,465.017,640.104,472.991z"/>
</g>
<path fill="none" stroke="#961E1E" stroke-width="2" stroke-miterlimit="10" d="M615.082,646.264c0,0,7.469,4.22,0.183,20.55
	c-7.287,16.328-1.212,24.108,5.192,32.661c0,0-0.167-25.3,7.748-36.954c7.914-11.655,7.799-26.681-4.871-29.441L615.082,646.264z"/>
<path fill="none" stroke="#961E1E" stroke-width="2" stroke-miterlimit="10" d="M617.753,641.995c0,0,10.158,3.964,0,27.886
	c0,0-5.504,11.732,2.257,27.874"/>
<path fill="none" stroke="#961E1E" stroke-width="2" stroke-miterlimit="10" d="M618.547,655.772c0,0,11.136,3.755,13.396-16.484"/>
<path fill="none" stroke="#961E1E" stroke-width="2" stroke-miterlimit="10" d="M617.011,662.314c0,0,1.248,12.587,13.75-4.241"/>
<path fill="none" stroke="#961E1E" stroke-width="2" stroke-miterlimit="10" d="M611.946,675.323c0,0,3.082,5.692,11.499-1.306"/>
<g>
	<path fill="#FFFFFF" stroke="#000000" stroke-miterlimit="10" d="M559.036,628.091c0,0,15.185,41.568,52.387,29.021
		c0,0,51.551-37.731-26.058-57.158C585.365,599.954,546.719,593.92,559.036,628.091z"/>
	<path fill="#467749" d="M569.625,609.918c0,0-15.819,12.697,10.631,34.586c0,0,35.095,19.076,36.755-19.209
		c0,0-8.269-20.819-18.11,0.909c0,0-5.861,25.969-18.188-4.139C580.712,622.065,577.895,603.82,569.625,609.918z"/>
	<path fill="#FFFFFF" stroke="#000000" stroke-miterlimit="10" d="M536.753,573.806c0,0-24.533,31.667,2.454,33.507
		c0,0,40.659,5.358,39.501-8.281c0,0,20.481-37.729-26.071-31.438C552.637,567.593,537.06,566.368,536.753,573.806z"/>
	<path fill="#467749" d="M541.661,576.927c0,0-19.32,21.184,0,22.411c0,0,33.426,7.053,31.895-10.887c0,0,2.463-9.11-9.656-13.983
		c0,0-17.323-2.412-6.887,10.885c0,0,11.043,13.346-7.675,5.76c0,0-6.144-0.641-2.771-10.928
		C546.567,580.184,549.329,570.768,541.661,576.927z"/>
	<path fill="#FFFFFF" stroke="#000000" stroke-miterlimit="10" d="M524.027,543.999c0,0-24.946,26.998,10.58,32.675
		c0,0,71.364,5.955,35.682-40.045C570.289,536.629,554.387,516.408,524.027,543.999z"/>
	<path fill="#961E1E" d="M525.867,550.657c0,0-8.742,13.544,4.37,19.902c13.112,6.358,59.573-1.27,41.171-23.121
		c0,0-4.975-10.093-17.48-12.652c0,0-12.401-2.529-4.591,7.132c0,0,12.871,10.785,10.341,14.247c0,0-10.783,14.386-17.941-2.96
		C541.737,553.205,532.537,539.848,525.867,550.657z"/>
	<path fill="#FFFFFF" stroke="#000000" stroke-miterlimit="10" d="M558.072,572.664c0,0,9.115,18.912,42.993,8.983
		c0,0,48.999-23.762-17.071-25.482C583.993,556.165,550.725,557.102,558.072,572.664z"/>
	<path fill="#467749" d="M569.188,562.656c0,0-15.149,7.844,5.828,15.938c0,0,28.838,5.841,34.161-13.159
		c0,0-5.147-9.405-15.968,2.275c0,0-7.761,13.365-15.526-0.197C577.683,567.511,577.056,558.822,569.188,562.656z"/>
	<path fill="#FFFFFF" stroke="#000000" stroke-miterlimit="10" d="M594.569,581.035c0,0-12.829,19.199,12.092,13.554
		c0,0,39.259-13.755,19.931-28.302c0,0-17.012-3.743-23.241,5.667C603.351,571.954,593.024,574.695,594.569,581.035z"/>
	<path fill="#961E1E" d="M598.178,579.211c0,0-7.349,13.874,2.841,11.661c0,0,49.32-15.221,12.092-21.616
		c0,0-4.46-0.175-5.377,3.836c0,0-2.005,6.014,4.524,5.607c0,0,5.453,1.416-0.793,3.104c0,0-3.432,4.158-9.711-3.465
		C601.753,578.339,599.406,576.484,598.178,579.211z"/>
	<path fill="#FFFFFF" stroke="#000000" stroke-miterlimit="10" d="M628.007,571.028c0,0-28.116,17.831-4.195,22.133
		c0,0,70.366,5.662,30.99-24.307C654.802,568.854,639.867,564.888,628.007,571.028z"/>
	<path fill="#1D187C" d="M629.575,576.191c0,0-14.274,9.563-5.252,11.995c0,0,53.949,3.307,28.398-13.494
		c0,0-2.701-1.814-4.814-0.248c0,0,6.922,8.645-4.268,8.826c0,0-13.396,2.213-10.417-3.152
		C633.223,580.118,633.635,573.021,629.575,576.191z"/>
	<path fill="#FFFFFF" stroke="#000000" stroke-miterlimit="10" d="M589.205,580.943c0,0-19.785,4.319-12.215,10.514
		c0,0-27.357,19.929,28.474,19.428c0,0,53.347-13.235,13.47-25.966C618.934,584.919,605.892,569.401,589.205,580.943z"/>
	<path fill="#1D187C" d="M584.911,591.8c0,0-21.054,12.43,14.418,13.956c0,0,38.88-3.722,19.605-16.34c0,0-11.862-9.13-21.567-5.953
		c0,0-4.747,5.239,4.645,7.649c0,0,14.578-1.389-0.507,5.899c0,0-14.535,1.853-12.297-3.23
		C589.205,593.782,588.967,588.606,584.911,591.8z"/>
</g>
<circle fill="#961E1E" cx="628.578" cy="99.254" r="36.434"/>
<path fill="#1D187C" d="M647.822,231.267c0,0-3.281,7.665,4.565,3.525c0,0,13.698-9.966,17.264,2.149
	c3.569,12.111-26.396,59.337,0,78.044c0,0,36.094,23.306,60.916-26.375c0,0,1.998-9.202,11.702-4.29c0,0-8.421-13.187-18.053,3.144
	c-9.627,16.329-16.05,28.29-42.368,25.529c0,0-28.889-2.508-10.486-56.685c0,0,16.046-38.77-12.842-30.948
	C658.521,225.362,650.819,227.744,647.822,231.267z"/>
<path fill="#1D187C" d="M607.589,231.267c0,0,3.281,7.665-4.564,3.525c0,0-13.696-9.966-17.264,2.149
	c-3.567,12.111,26.394,59.337,0,78.044c0,0-36.095,23.306-60.918-26.375c0,0-2.001-9.202-11.702-4.29c0,0,8.419-13.187,18.048,3.144
	c9.632,16.329,16.051,28.29,42.372,25.529c0,0,28.891-2.508,10.487-56.685c0,0-16.05-38.77,12.842-30.948
	C596.89,225.362,604.594,227.744,607.589,231.267z"/>
</svg>
