<?xml version="1.0" encoding="utf-8"?>
<!-- Generator: Adobe Illustrator 15.1.0, SVG Export Plug-In . SVG Version: 6.00 Build 0)  -->
<!DOCTYPE svg PUBLIC "-//W3C//DTD SVG 1.0//EN" "http://www.w3.org/TR/2001/REC-SVG-20010904/DTD/svg10.dtd">
<svg version="1.0" id="Layer_1" xmlns="http://www.w3.org/2000/svg" xmlns:xlink="http://www.w3.org/1999/xlink" x="0px" y="0px"
	 width="234.186px" height="144px" viewBox="0 0 234.186 144" enable-background="new 0 0 234.186 144" xml:space="preserve">
<path fill="#010080" d="M0.305-0.266c-0.34,0.049-0.318,0.463-0.292,0.878c0,47.809,0,95.621,0,143.431
	c78.062,0,156.113,0,234.172,0c0-2.536,0-5.072,0-7.607V8.901c0-3.056,0-6.112,0-9.167C156.223-0.266,78.267-0.266,0.305-0.266z"/>
<path fill="#F5F5F5" d="M32.504,9.101c-2.716,0.314-6.08,1.159-8.196,2.342c-5.663,3.166-9.489,9.582-10.245,16.392
	c-1.894,17.05,11.663,29.274,28.395,24.88c7.607-1.998,14.256-9.188,15.514-17.27C60.558,18.823,48.803,7.217,32.504,9.101z"/>
<path fill="#FFFFFF" d="M225.697,21.688c-3.9,7.32-8.528,13.912-12.294,21.369c-25.302,8.779-50.451,19.166-75.521,28.393
	c23.949,9.262,50.483,19.493,75.228,28.686c3.919,7.304,8.51,13.935,12.293,21.369c-3.771-0.511-8.688,0.671-12.879,0
	c-3.915-0.628-8.653-3.333-12.88-4.978c-28.896-11.241-56.078-23.178-84.594-34.247c-0.096,4.62,0.066,15.698,0,23.124
	c-5.757,0-11.514,0-17.271,0c0-7.707,0-15.418,0-23.124c-7.985-0.712-20.084-0.06-26.637-0.294c0-7.121,0-14.244,0-21.367
	c8.781,0,17.563,0,26.344,0c0.684-7.025,0.099-15.318,0.293-22.832c5.757,0,11.515,0,17.271,0
	c-0.203,5.147,0.362,18.155-0.293,22.832c31.827-12.293,64.367-25.683,96.597-38.638C214.574,20.687,221.841,22.352,225.697,21.688z
	"/>
<path fill="#F5F5F5" d="M45.677,86.379c-9.438-3.501-20.369-0.207-25.173,4.684c-7.574,7.707-8.008,25.406,0.292,33.076
	c3.333,3.079,8.666,5.105,13.172,5.563C60.627,132.398,67.181,96.389,45.677,86.379z"/>
<path fill="#010080" d="M33.968,18.175c9.959-2.123,13.292,9.171,12.001,16.685c-1.68,9.783-13.642,13.127-18.734,4.098
	C22.764,31.028,26.826,19.698,33.968,18.175z"/>
<path fill="#010080" d="M34.553,94.574c13.772-2.801,16.176,20.508,6.147,25.175C25.892,126.639,20.297,97.473,34.553,94.574z"/>
</svg>
