<?xml version="1.0" encoding="utf-8"?>
<!-- Generator: Adobe Illustrator 16.0.0, SVG Export Plug-In . SVG Version: 6.00 Build 0)  -->
<!DOCTYPE svg PUBLIC "-//W3C//DTD SVG 1.1//EN" "http://www.w3.org/Graphics/SVG/1.1/DTD/svg11.dtd">
<svg version="1.1" id="Layer_1" xmlns="http://www.w3.org/2000/svg" xmlns:xlink="http://www.w3.org/1999/xlink" x="0px" y="0px"
	 width="500px" height="333px" viewBox="0 0 500 333" enable-background="new 0 0 500 333" xml:space="preserve">
<rect y="0" fill="#FFFFFF" width="500" height="333"/>
<path fill="#00579E" d="M222.93,266.977c0,0,21.697,28.21-12.43,36.75c0,0-52-11.26-78.5-63.255S90.915,113.477,171.457,45.977
	c0,0,4.514-3.167,11.361-15.167c6.847-12,11.119,2,6.484,16c-4.637,14-69.97,53.997-45.637,142.664
	C143.666,189.474,155.525,237.148,222.93,266.977z"/>
<path fill="#F3E0A3" d="M222.93,266.977c0,0,3.59,20.94-12.43,36.75l9.5,3c0,0,21.997,1.5,15.498-35.75L222.93,266.977z"/>
<path fill="#00579E" d="M277.566,266.977c0,0-21.697,28.21,12.43,36.75c0,0,52-11.26,78.5-63.255s41.085-126.995-39.457-194.495
	c0,0-4.514-3.167-11.361-15.167c-6.847-12-11.119,2-6.484,16c4.638,14,69.971,53.997,45.638,142.664
	C356.83,189.474,344.971,237.148,277.566,266.977z"/>
<path fill="#F3E0A3" d="M277.566,266.977c0,0-3.59,20.94,12.43,36.75l-9.5,3c0,0-21.997,1.5-15.498-35.75L277.566,266.977z"/>
<path fill="#FFFFFF" stroke="#000000" stroke-miterlimit="10" d="M206.298,95.172c0,0,6.453-9.449,1.989-14.659
	c0,0-1.282,8.272-5.551,12.13L206.298,95.172z"/>
<path fill="#FFFFFF" stroke="#000000" stroke-miterlimit="10" d="M198.841,82.719c0,0-6.525-9.398-12.985-7.086
	c0,0,7.271,4.147,9.353,9.512L198.841,82.719z"/>
<path fill="#FFFFFF" stroke="#000000" stroke-miterlimit="10" d="M206.016,189.386c0,0-3.389-10.928-10.245-10.67
	c0,0,5.683,6.146,6.051,11.889L206.016,189.386z"/>
<path fill="#FFFFFF" stroke="#000000" stroke-miterlimit="10" d="M242.898,239.386c0,0-3.389-10.928-10.245-10.67
	c0,0,5.683,6.146,6.051,11.889L242.898,239.386z"/>
<path fill="#FFFFFF" stroke="#000000" stroke-miterlimit="10" d="M196.623,200.668c0,0-11.42,0.685-12.805,7.405
	c0,0,7.325-4.054,12.988-3.041L196.623,200.668z"/>
<path fill="#FFFFFF" stroke="#000000" stroke-miterlimit="10" d="M182.878,96.238c0,0-11.42,0.685-12.805,7.405
	c0,0,7.325-4.054,12.988-3.041L182.878,96.238z"/>
<path fill="#FFFFFF" stroke="#000000" stroke-miterlimit="10" d="M239.904,245.575c0,0-11.42,0.685-12.805,7.405
	c0,0,7.325-4.054,12.988-3.041L239.904,245.575z"/>
<path fill="#FFFFFF" stroke="#000000" stroke-miterlimit="10" d="M187.945,111.496c0,0-5.811,0.875-8.172-3.838
	c0,0-1.454,6.708,7.895,7.25L187.945,111.496z"/>
<path fill="#C8271D" stroke="#000000" stroke-miterlimit="10" d="M238.186,123.849c0,0-22.763-1.942-32.761-22.035
	c0,0,6.632-8.896-1.917-12.32c0,0,1.607-9.249-6.133-7.119c-7.74,2.129-6.056,5.354-3.566,9.044c0,0-18.954-3.625-12.018,11.164
	c0,0,2.917,5.258,7.479-1.391c0,0,3.05,1.271-0.119,5.518c-3.17,4.247-5.638,14.538,6.382,6.688l4.197,4.625l-4.666,3.266
	l7.055,5.628l-4.879,4.979l6.305,1.564l-3.226,2.726l7.466-1.64l-2.903,6.391l8.356,2.267
	C213.24,143.204,242.196,145.869,238.186,123.849z"/>
<path fill="#FFFFFF" stroke="#000000" stroke-miterlimit="10" d="M182.642,146.18c0,0,0.471-11.432-6.075-13.487
	c0,0,3.294,7.696,1.715,13.229L182.642,146.18z"/>
<path fill="#FFFFFF" stroke="#000000" stroke-miterlimit="10" d="M171.224,143.178c0,0-8.571-7.579-14.296-3.798
	c0,0,8.049,2.302,11.344,7.018L171.224,143.178z"/>
<path fill="#FFFFFF" stroke="#000000" stroke-miterlimit="10" d="M164.488,154.344c0,0-9.705,6.06-7.709,12.625
	c0,0,4.497-7.063,9.955-8.879L164.488,154.344z"/>
<path fill="#FFFFFF" stroke="#000000" stroke-miterlimit="10" d="M175.3,168.068c0,0-3.008,5.048-8.148,3.887
	c0,0,4.265,5.378,10.612-1.508L175.3,168.068z"/>
<path fill="#FFFFFF" stroke="#000000" stroke-miterlimit="10" d="M208.175,212.523c0,0-1.878,5.568-7.147,5.515
	c0,0,5.301,4.359,10.058-3.708L208.175,212.523z"/>
<path fill="#FFFFFF" stroke="#000000" stroke-miterlimit="10" d="M239.818,252.981c0,0-1.878,5.568-7.147,5.515
	c0,0,5.301,4.359,10.058-3.708L239.818,252.981z"/>
<path fill="#FFFFFF" stroke="#000000" stroke-miterlimit="10" d="M219.359,211.956c0,0,0.436,5.86-4.44,7.86
	c0,0,6.58,1.954,7.824-7.327L219.359,211.956z"/>
<path fill="#FFFFFF" stroke="#000000" stroke-miterlimit="10" d="M244.527,256.326c0,0,0.436,5.86-4.44,7.86
	c0,0,6.58,1.954,7.824-7.327L244.527,256.326z"/>
<path fill="#C8271D" stroke="#000000" stroke-miterlimit="10" d="M220.322,134.457c0,0-18.017,13.933-34.214,16.513
	c0,0-1.984-12.203-10.269-6.026c0,0-13.015-8.898-7.271,6.652c0,0-19.63,4.252,4.622,13.401c0,0-0.351,16.438,11.004,0.652
	l3.918,4.191l12.624-5.293l-0.197,3.321l11.482-4.163l1.095,2.617l4.009-4.346l1.348,3.622l8.798-7.812
	C227.271,157.789,245.37,128.443,220.322,134.457z"/>
<path fill="#C8271D" stroke="#000000" stroke-miterlimit="10" d="M268.286,181.164c0,0-14.601,9.029-27.18,6.824
	c0,0,9.17,7.004,5.77,15.138c0,0-3.063-6.329-5.537-5.019c0,0,2.072,19.501-6.969,24.382l-2.391-5.351l-6.715,6.061l0.493-8.306
	c0,0-5.767,2.367-9.428-2.644c0,0-8.365,9.297-11.583-3.188c0,0-16.569,1.828-8.384-13.208c0,0-2.314-11.91,9.166-10.5
	c0,0,4.354,0.363,6.239,5.477c1.884,5.111,13.087,11.193,11.182-0.588c0,0-2.384-7.226-9.583-10.569c0,0-2.129-4.501,5.926-3.294
	c0,0-0.919-5.577-6.148-3.49c0,0,4.2-7.564,13.576,1.222c9.375,8.787,22.369,0.495,23.137-7.169
	C249.856,166.943,268.919,161.719,268.286,181.164z"/>
<path fill="#C8271D" stroke="#000000" stroke-miterlimit="10" d="M233.916,157.905c0,0-0.891,3.003,3.971,8.85
	c4.862,5.844,46.068-0.323,15.944,36.783c0,0-4.408,6.405-2.511,21.242c0,0,0.52,2.949-3.276,6.059c0,0,7.793-0.231,8.822-8.229
	c0,0,4.517,5.825,2.672,13.494c0,0,7.192-5.685,2.87-13.998l6.212,8.425l3.789-5.331c0,0,5.976,2.3-2.489,11.521
	c-8.465,9.221-15.509,8.525-19.886,2.709c0,0-5.322-6.289-10.977,0.043c-5.654,6.332,1.134,25.35,12.382,20.737
	c0,0,10.412,4.786,21.772,0.599c11.361-4.188,21.584-10.249,8.127-15.215c0,0-2.44-3.34,4.431-2.098c0,0,4.478,1.794,5.519,5.327
	c0,0,5.329-7.88,0.805-13.564c0,0,6.287-0.601,6.806,4.709c0,0,1.404-7.278-2.168-10.27c0,0,10.351-3.554,14.68,3.096
	c0,0,3.572-13.401-17.713-10.498c0,0,3.977-6.153,2.84-12.749c0,0-14.174,9.438-13.902-9.16l4.492,3.878l1.252-9.371
	c0,0,7.838,6.028,8.926,11.094c1.088,5.066,10.92,14.956,22.176,10.207c11.256-4.75,13.441-13.51,11.217-25.172
	c0,0,5.271-6.906,3.707-17.974c0,0-3.352,7.302-6.95,7.089c0,0,21.726-28.992,10.922-50.608c0,0,1.644,19.128-11.354,36.832
	c0,0,12.472-22.875,3.604-37.292s-9.152-14.295-8.247-17.853c0,0-8.121,4.765,1.422,20.504c0,0,7.476,16.835-9.729,30.538
	c0,0-5.312,2.88-4.28-5.116c0,0,10.008-0.101,10.952-16.019c0,0-5.125,6.78-11.51,6.679l8.197-14.042l-10.351,5.857
	c0,0,15.151-25.905,8.297-46.178l-2.312,3.845c0,0-2.657-6.709-7.553-8.492c-4.896-1.784-8.537-12.975-6.426-20.489
	c2.114-7.515-6.747-5.678-8.266,1.177c0,0,5.793-3.995,3.718,2.913c-2.077,6.908,1.558,20.563,8.469,21.13
	c0,0-8.37-1.729-9.362,12.658c0,0,6.813-11.82,12.51-4.814c5.695,7.007,1.256,25.634-7.819,35.79c0,0-5.716-4.328-5.163-15.983
	c0,0-6.322,10.578-1.695,21.549c0,0-8.211,4.928-6.354,18.095c0,0,4.818-13.327,10.322-10.083c0,0,1.888,17.337,9.775,22.528
	c0,0,13.397,8.295-8.121,3.406c0,0,8.943,10.81,19.871,11.597c0,0,4.444,2.349,3.107,6.159c0,0-1.199,3.815-5.188,0.803
	c0,0-0.027,5.138,4.631,3.887c0,0-2.018,12.938-12.582,6.061c-10.566-6.879-0.559-11.701-16.651-19.046
	c0,0-0.995-13.673-9.035-20.956c-8.041-7.285-8.94-15.533-8.17-23.822C273.081,141.35,247.858,129.273,233.916,157.905z"/>
<g>
	<path fill="#FFFFFF" stroke="#000000" stroke-miterlimit="10" d="M237.78,92.818c0,0-0.307,3.693,4.125,6.248l0.355-5.981
		L237.78,92.818z"/>
	<path fill="#FFFFFF" stroke="#000000" stroke-miterlimit="10" d="M230.353,93.588c0,0-6.798,12.724,3.87,15.544
		c10.667,2.82,10.317-10.118,18.5-3.381l0.563-3.927c0,0-3.578-2.087-6.509-1.22C243.846,101.473,232.581,108.722,230.353,93.588z"
		/>
	<path fill="#C8271D" stroke="#000000" stroke-miterlimit="10" d="M262.693,75.296c0,0-16.245-0.131-21.721,7.878
		c0,0-14.217,0.823-4.181,7.253c0,0-2.273,3.199,1.781,5.105c4.054,1.907,19.032-5.955,7.638,14.622c0,0-13.652-4.561-7.061,3.748
		c0,0-0.197,2.072,6.815,0.405c0,0-22.092,18.275-32.231,20.59l4.42,2.763l-2.298,3.614l10.382,0.617l-9.119,13.21l5.814,0.345
		l-0.202,10.408l7.088-7.081l2.611,5.156l14.394-10.814l2.561,5.986l5.966-9.229l2.514,6.815l8.457-9.083l2.121,6.377
		c0,0,8.918-2.805,7.996-15.36l7.035,0.834c0,0-7.007-8.333-6.662-14.147l4.313-2.453l-5.699-9.298l4.593-0.144l-3.513-11.044
		l5.324,1.566l-2.828-8.502l2.983-8.157l-6.961-2.08c0,0,5.525-8.84-1.801-11.774c0,0-4.519-1.103-4.863,4.712
		C268.359,78.133,262.993,63.229,262.693,75.296z"/>
	<path fill="none" stroke="#000000" stroke-miterlimit="10" d="M245.964,114.309c0,0,2.787-4.21,8.195-0.555l1.884-3.64l3.322,0.197
		l0.246-4.152"/>
	<path fill="none" stroke="#000000" stroke-miterlimit="10" d="M236.048,121.994l7.18,0.427l1.984,4.553l4.113-1.974l5.118,5.021
		l5.683-4.455l2.621,1.48l2.53-7.529c0,0,2.768-0.982,2.523-3.914"/>
	<path fill="none" stroke="#000000" stroke-miterlimit="10" d="M256.646,99.941c0,0,9.332,21.808,8.023,1.728"/>
	<path fill="none" stroke="#000000" stroke-miterlimit="10" d="M269.275,91.522c0,0,7.673,8.374-0.357,6.021"/>
	<path fill="#FFFFFF" stroke="#000000" stroke-miterlimit="10" d="M250.012,81.836c0,0-4.044,0.177-2.311,3.196
		C247.701,85.032,257.18,87.47,250.012,81.836z"/>
</g>
</svg>
