<svg xmlns="http://www.w3.org/2000/svg" xmlns:xlink="http://www.w3.org/1999/xlink" width="900" height="600" version="1.0"><g transform="translate(1.7652719e-4,42.030285)"><g transform="translate(0,-186.12871)"><g transform="matrix(1.0843373,0,0,1.0843357,3.481913e-6,-62.75482)"><a transform="matrix(1.0024494,0,0,0.99168807,-1.0166497,7.1945623)" fill="#fff"><path d="M 1.014,185.109 H 828.986 V 743.081 H 1.014 Z"/></a><path d="m 339.06006,191.94745 c 20.25369,12.88962 36.13515,131.37022 36.13515,275.48458 0,144.11436 -15.88146,262.59499 -36.13515,275.48459 h 151.87959 c -20.2537,-12.8896 -36.13516,-131.37022 -36.13516,-275.48459 0,-144.11437 15.88146,-262.59497 36.13516,-275.48458 z" fill="#d40000" stroke="#d40000" stroke-width="2.365"/><path d="m -1.495521e-4,387.43204 v 160 c 0,-22.08 185.9199895521,-40 414.9999995521,-40 229.08002,0 415,17.92 415,40 v -160 c 3e-5,22.08 -185.91999,40 -415,40 -229.07999,0 -414.9999995521,-17.92 -414.9999995521,-40 z" fill="#d40000"/></g><path d="m 435.17186,741.37661 c 0.29182,-0.34905 0.57818,-0.7084 0.85581,-1.07221 -0.28096,0.36828 -0.56043,0.71892 -0.85581,1.07221 z" fill="#d40000"/><path d="m 436.02767,740.3044 c 1.41047,-1.8483 2.63237,-3.86791 3.63719,-6.0528 -1.00393,2.17335 -2.2324,4.21134 -3.63719,6.0528 z" fill="#d40000"/><path d="m 441.22365,730.20488 c -0.12778,0.40867 -0.25522,0.8098 -0.39733,1.21055 0.13972,-0.39536 0.27151,-0.8075 0.39733,-1.21055 z" fill="#d40000"/><g id="a" transform="matrix(0.51483716,0,0,0.58259825,-167.67536,240.53673)" stroke-linecap="round" stroke-linejoin="round"><path d="m 737.21706,-66.415987 c -12.1075,8.49093 -31.71616,5.03145 -48.44752,17.05551 13.84181,-16.24669 28.69295,-11.36219 45.23417,-20.76323 z" fill="#f80e06" stroke-width=".7"/><path d="m 754.26964,-96.335451 c -4.21229,4.756598 -10.49804,9.050157 -20.28125,9.906247 -19.52907,1.708899 -45.49056,0.07556 -42,14.312497 -25.44074,0 -20.96126,20.17651 -9.40625,19.0625 -4.54884,-1.7758 -4.03669,-6.41258 -1.03125,-8.9375 2.16286,-1.81705 5.60791,-1.9375 9.4375,-1.9375 10.42126,0 25.23202,-5.6875 31.90625,-5.6875 6.96219,0 14.3125,2.81565 14.3125,6.65625 -3e-5,5.07882 -12.2715,4.31249 -22.8125,6.4375 -10.541,2.12501 -16.21875,7.18782 -16.21875,12.59375 5.0546,-4.10346 26.88727,-9.29151 39.28125,-8.65625 3e-5,9.26842 -14.34097,17.5625 -32.125,17.5625 -7.80328,10e-7 -14.62763,1.485371 -19.8125,3.90625 -4.80461,-0.618279 -8.66966,-2.248571 -13.0625,-5.4375 0.56561,3.787409 3.66263,6.94664 7.53125,8.84375 -3.0748,2.58678 -4.8125,5.69766 -4.8125,9 0,0.15125 -0.005,0.29027 0,0.4375 -3.3805,-0.07071 -6.6191,-0.7983 -10.34375,-2.3125 1.70418,4.14539 6.57891,6.66723 11.625,7.15625 0.78583,1.452209 1.87841,2.629639 3.09375,3.6874989 -3.36581,1.24469 -6.78907,1.70584 -11.03125,1.5625 3.50797,3.8234599 10.22119,4.1234899 15.625,1.9374999 2.27569,1.69514 4.26741,3.50041 4.90625,6.18749986 -16.65804,2.79349984 -39.92252,-2.97303986 -52.71875,-11.74999966 -12.74439,-8.741399 -19.25001,-21.387912 -19.25,-35.093749 0,-15.96928 14.7307,-33.197069 5.4375,-38.562497 -0.56306,-0.32509 -1.17064,-0.49651 -1.8125,-0.53125 -4.49309,-0.24317 -10.53973,6.143578 -12.6875,12.062497 -4.1259,11.37035 -8.36843,25.27082 -22.0625,28.78125 3.38689,0.86429 8.69347,0.66389 12.5625,-1.5 -3.78755,19.862633 -16.36594,41.7060888 -27.6875,52.1562485 6.89889,-0.7675199 14.21641,-4.71831984 21.5,-13.5937496 -2.23593,23.6763301 -14.95414,53.1400891 -23.6875,63.7812491 7.64496,-1.65522 16.15135,-6.62459 24.09375,-16.90625 -1.71372,13.77248 -3.88849,27.162223 -6.46875,39.156244 -5.94783,27.647805 -13.37128,48.000105 -20.25,49.187505 1.60877,1.46409 3.7622,2.0625 6.125,2.0625 10.11482,0 19.09252,-18.73343 25.5,-47.812505 5.25961,-23.869765 8.20287,-45.189814 9.6875,-70.531243 1.66697,2.05229 4.0689,4.50693 7.15625,6.624999 -0.68314,13.674389 -1.86266,26.97169 -3.53125,38.96875 -3.89585,28.010714 -9.85235,48.840579 -16.625,50.531249 1.7122,1.34167 3.8936,1.79899 6.25,1.625 10.08736,-0.74481 17.68867,-20.090555 21.9375,-49.5625 1.84664,-12.809189 3.10206,-24.835989 3.8125,-37.093749 0.76756,0.07542 1.56872,0.125 2.375,0.125 0.94337,0 1.77624,-0.02668 2.6875,-0.03125 -0.11984,7.001099 -0.35598,13.79974 -0.75,20.21875 -1.73219,28.219163 -5.61337,49.442764 -11.3125,51.624994 1.54197,1.21254 3.43092,1.47115 5.4375,1.125 8.5899,-1.48181 13.98676,-21.297737 15.9375,-50.999994 0.49827,-7.58674 0.82592,-14.894941 1,-22.125 2.56873,-0.06775 5.03336,-0.14747 7.34375,-0.25 0.0602,25.94225 -2.02484,45.232243 -6.65625,47.687493 1.44628,1.09444 3.12016,1.21325 4.875,0.71875 7.24134,-2.0405 10.71845,-20.891983 10.75,-48.906243 2.36307,-0.16322 4.63334,-0.34376 6.78125,-0.53125 -0.19986,16.60634 -1.38975,28.12897 -3.90625,30.03125 1.08324,1.07171 2.28677,1.17792 3.5625,0.65625 4.05575,-1.65843 6.26354,-13.26836 6.8125,-31.3125 2.43509,-0.24587 4.86167,-0.47238 7.1875,-0.71875 -0.37235,8.70564 -1.17515,14.49053 -2.5,15.78125 0.86406,1.07025 1.81601,1.17935 2.8125,0.65625 2.21388,-1.16217 3.65203,-7.26514 4.40625,-16.9375 2.02707,-0.20558 4.09629,-0.38139 6.1875,-0.5625 -0.31998,3.58731 -0.83101,5.95835 -1.59375,6.75 0.89748,1.04239 1.83305,1.11687 2.8125,0.5625 1.35076,-0.76451 2.32754,-3.45227 3,-7.65625 3.47006,-0.2512 7.17108,-0.43669 11.1875,-0.5625 1.64435,2.23573 3.28125,4.53125 3.28125,4.53125 10e-6,0 -1.54116,4.23097 -3.96875,4.9375 -12.83115,3.734419 -21.31102,16.0323 -33.59375,21.28125 3.20902,0.25153 6.68105,0.20216 11.84375,-1.5 -1.78535,5.27319 -12.79386,11.775209 -15.3125,15.812496 1.93584,0.28793 4.8321,0.55964 7.65625,0.5 -9.80485,10.223647 -19.60139,15.867608 -29.40625,19.281248 4.09076,1.08558 10.77735,0.33352 15.5625,-0.84375 -0.7643,4.77884 -11.03705,11.76252 -17.53125,14.6875 3.62164,0.55402 7.85433,-0.01231 13.09375,-3.46875 0.45596,4.21748 -2.34641,9.250465 -5.8125,11.500005 -4.55135,2.95389 -11.9054,7.7646 -11.75,14.21875 2.10414,-3.45516 7.44668,-7.48676 15.59375,-7.9375 -3.48965,6.11913 -9.17527,14.24941 -12.625,18.3125 -6.43978,0.54336 -8.88616,3.55894 -11.125,6.6875 -1.94896,-1.88548 -3.85249,-3.82996 -7.40625,-3.46875 -0.88321,-2.10014 -2.47815,-4.46919 -6.4375,-4.1875 -1.34723,-1.25856 -3.6797,-1.0515 -4.90625,0.0938 -3.03746,0.16643 -5.22625,1.777 -6.71875,3.59375 1.64595,-0.57127 3.97752,-0.79966 6.125,-0.5625 0.64323,1.58373 2.6722,2.51187 4.78125,2.5625 1.12846,2.08489 2.88153,3.49887 5.65625,3.9375 1.01102,1.37842 2.8353,1.96278 4.46875,2.71875 -2.73125,-0.2193 -5.36571,-1.3143 -8.40625,1.25 -3.08976,-1.19434 -6.9288,-1.10357 -8.90625,1.21875 -2.93894,1.09642 -4.2272,3.14803 -3.78125,5.34375 -1.81601,2.3415 -2.03642,4.99707 -1.6875,7.28125 0.70476,-1.67899 2.13699,-3.69734 3.84375,-5.15625 1.01961,0.28196 2.28398,0.30601 3.59375,0.1875 3.26353,-0.43434 4.03487,-1.78578 4.71875,-3.1875 3.351,0.90727 6.17883,0.30721 8.875,-0.75 2.84649,-3.25455 7.41039,-2.80136 9.90625,-4.46875 2.66433,-1.77993 4.79082,-4.6875 7.90625,-4.6875 3.66138,-1e-5 4.9291,4.00252 7.65625,4.6875 2.40705,0.60457 5.86066,-1.32645 7.40625,-3.9375 2.0668,1.52275 4.90012,2.56716 6.75,1.46875 1.70544,1.2295 3.1969,2.9052 4.03125,4.375 0.0737,-2.25217 -0.41999,-4.79456 -2.375,-6.875 0.31027,-1.95403 -1.38012,-3.47199 -5.6875,-3.65625 -2.85019,-1.08948 -5.50774,-2.7117 -9.625,0 -0.0824,-1.40068 -0.98848,-2.30678 -2.71875,-2.71875 3.50511,-5.13574 7.38252,-12.82682 10.9375,-19.28125 2.82834,4.09253 1.53004,10.88063 5.875,17.03125 -1.34202,-11.90647 8.22828,-27.27378 16.5625,-35.218755 0.63433,11.040765 -3.98725,24.587385 -11.25,35.593755 -0.85663,1.29823 0.24793,2.21726 1.46875,0.75 7.45599,-8.9611 14.66777,-23.15314 19.90625,-35.218755 -3.34892,17.575005 -9.77928,33.807205 -19.53125,50.906255 -1.21606,2.13227 0.71764,2.68019 1.96875,1.09375 16.12908,-20.45214 20.27194,-44.18367 29,-64.656255 -3.1815,29.281795 -8.46648,54.320535 -22.34375,72.718755 -12.30286,16.31091 -40.18641,17.2807 -67.6875,17.53125 13.90688,0.77369 24.10279,1.5 38.5,1.5 13.99261,-1e-5 39.63577,-1.64831 47.5625,-16.375 6.77605,-12.58889 9.74517,-34.50833 10.71875,-70.000005 l 3.21875,4.1875 c -2.4034,42.648645 -2.58198,72.106775 -10.125,80.687505 -4.95727,5.63924 -17.73019,7.52602 -24.3125,12.5 -4.64514,3.51015 -7.9416,12.04635 0.1875,17.5625 -1.48415,-8.11055 6.39151,-13.625 14,-13.625 7.11488,-1e-5 10.39958,3.04093 12.875,5.59375 -1.49901,-4.77215 1.2994,-8.1173 3.875,-11.53125 2.96163,5.01047 5.9375,9.67078 5.9375,15.03125 0,-5.36047 2.97587,-10.02078 5.9375,-15.03125 2.5756,3.41395 5.37405,6.7591 3.875,11.53125 2.47542,-2.55282 5.82258,-5.59376 12.9375,-5.59375 7.60848,0 15.42164,5.51445 13.9375,13.625 8.1291,-5.51615 4.83262,-14.05235 0.1875,-17.5625 -6.58231,-4.97398 -19.35523,-6.86076 -24.3125,-12.5 -7.54673,-8.58494 -7.70238,-38.06746 -10.09375,-80.750005 l 3.1875,-4.09375 c 0.99105,35.473195 4.0072,57.383575 10.78125,69.968755 7.92673,14.72669 33.56991,16.37499 47.5625,16.375 14.3972,0 24.53062,-0.72631 38.4375,-1.5 -27.50108,-0.25055 -55.32213,-1.22034 -67.625,-17.53125 -13.87214,-18.39142 -19.17652,-43.41969 -22.375,-72.687505 8.71851,20.465155 12.8795,44.183775 29,64.625005 1.25112,1.58644 3.1848,1.03852 1.96875,-1.09375 -9.75197,-17.09905 -16.18236,-33.33125 -19.53125,-50.906255 5.23848,12.065615 12.45025,26.257655 19.90625,35.218755 1.22082,1.46726 2.32542,0.54823 1.46875,-0.75 -7.26274,-11.00637 -11.8843,-24.55299 -11.25,-35.593755 8.33422,7.944975 17.90455,23.312285 16.5625,35.218755 4.34476,-6.15032 3.01598,-12.93866 5.84375,-17.03125 3.55498,6.45443 7.43239,14.14551 10.9375,19.28125 -1.73027,0.41197 -2.63636,1.31807 -2.71875,2.71875 -4.11726,-2.7117 -6.77481,-1.08948 -9.625,0 -4.30738,0.18426 -5.99777,1.70222 -5.6875,3.65625 -1.95501,2.08044 -2.44867,4.62283 -2.375,6.875 0.83435,-1.4698 2.32581,-3.1455 4.03125,-4.375 1.84988,1.09841 4.6832,0.054 6.75,-1.46875 1.54559,2.61105 4.9992,4.54207 7.40625,3.9375 2.72715,-0.68498 3.99487,-4.68751 7.65625,-4.6875 3.11543,0 5.24192,2.90757 7.90625,4.6875 2.49586,1.66739 7.05976,1.2142 9.90625,4.46875 2.69617,1.05721 5.524,1.65727 8.875,0.75 0.68388,1.40172 1.45522,2.75316 4.71875,3.1875 1.30977,0.11851 2.57414,0.0945 3.59375,-0.1875 1.70676,1.45891 3.13899,3.47726 3.84375,5.15625 0.34892,-2.28418 0.12851,-4.93975 -1.6875,-7.28125 0.44595,-2.19572 -0.84231,-4.24733 -3.78125,-5.34375 -1.97745,-2.32232 -5.81649,-2.41309 -8.90625,-1.21875 -3.04054,-2.5643 -5.675,-1.4693 -8.40625,-1.25 1.63345,-0.75597 3.45773,-1.34033 4.46875,-2.71875 2.77472,-0.43863 4.52779,-1.85261 5.65625,-3.9375 2.10905,-0.0506 4.13802,-0.97877 4.78125,-2.5625 2.14748,-0.23716 4.47905,-0.009 6.125,0.5625 -1.4925,-1.81675 -3.68129,-3.42732 -6.71875,-3.59375 -1.22655,-1.14525 -3.55902,-1.35231 -4.90625,-0.0938 -3.95935,-0.28169 -5.55429,2.08736 -6.4375,4.1875 -3.55376,-0.36121 -5.45729,1.58327 -7.40625,3.46875 -2.23884,-3.12856 -4.68522,-6.14414 -11.125,-6.6875 -3.44973,-4.06309 -9.13535,-12.19337 -12.625,-18.3125 8.14708,0.45074 13.52086,4.48234 15.625,7.9375 0.1554,-6.45415 -7.2299,-11.26486 -11.78125,-14.21875 -3.46609,-2.24954 -6.23718,-7.282525 -5.78125,-11.500005 5.23942,3.45644 9.47209,4.02277 13.09375,3.46875 -6.49419,-2.92498 -16.76692,-9.90866 -17.53125,-14.6875 4.78516,1.17727 11.47175,1.92933 15.5625,0.84375 -9.80485,-3.41364 -19.60142,-9.057601 -29.40625,-19.281248 2.82416,0.05964 5.72044,-0.21207 7.65625,-0.5 -2.51864,-4.037287 -13.55836,-10.539306 -15.34375,-15.812496 5.1627,1.70216 8.66596,1.75153 11.875,1.5 -12.28273,-5.24895 -20.79381,-17.546831 -33.625,-21.28125 -2.42759,-0.70653 -3.93748,-4.9375 -3.9375,-4.9375 0,0 1.60566,-2.29552 3.25,-4.53125 4.01642,0.12581 7.71744,0.3113 11.1875,0.5625 0.67246,4.20398 1.64924,6.89174 3,7.65625 0.97946,0.55437 1.91502,0.47989 2.8125,-0.5625 -0.76275,-0.79165 -1.27377,-3.16269 -1.59375,-6.75 2.09121,0.18111 4.16043,0.35692 6.1875,0.5625 0.75422,9.67236 2.19236,15.77533 4.40625,16.9375 0.99649,0.5231 1.94844,0.414 2.8125,-0.65625 -1.32485,-1.29072 -2.12765,-7.07561 -2.5,-15.78125 2.32583,0.24637 4.75241,0.47288 7.1875,0.71875 0.54895,18.04414 2.75675,29.65407 6.8125,31.3125 1.27572,0.52167 2.47926,0.41546 3.5625,-0.65625 -2.51651,-1.90228 -3.70639,-13.42491 -3.90625,-30.03125 2.14791,0.18749 4.41818,0.36803 6.78125,0.53125 0.0316,28.01426 3.50867,46.865743 10.75,48.906243 1.75486,0.4945 3.42872,0.37569 4.875,-0.71875 -4.63139,-2.45525 -6.7164,-21.745243 -6.65625,-47.687493 2.31039,0.10253 4.77502,0.18225 7.34375,0.25 0.17408,7.230059 0.50174,14.53826 1,22.125 1.95074,29.702257 7.34762,49.518184 15.9375,50.999994 2.00657,0.34615 3.89554,0.08754 5.4375,-1.125 -5.69912,-2.18223 -9.58031,-23.405831 -11.3125,-51.624994 -0.39403,-6.41901 -0.63016,-13.217651 -0.75,-20.21875 0.91126,0.0046 1.74413,0.03125 2.6875,0.03125 0.80628,0 1.60744,-0.04958 2.375,-0.125 0.71044,12.25776 1.96585,24.28456 3.8125,37.093749 4.24883,29.471945 11.85014,48.81769 21.9375,49.5625 2.3564,0.17399 4.53779,-0.28333 6.25,-1.625 -6.77265,-1.69067 -12.72915,-22.520535 -16.625,-50.531249 -1.6686,-11.99706 -2.84811,-25.294361 -3.53125,-38.96875 3.08735,-2.118069 5.48928,-4.572709 7.15625,-6.624999 1.48461,25.341429 4.42787,46.661478 9.6875,70.531243 6.40747,29.079075 15.38518,47.812505 25.5,47.812505 2.3628,0 4.51624,-0.59841 6.125,-2.0625 -6.87873,-1.1874 -14.30216,-21.5397 -20.25,-49.187505 -2.58026,-11.994021 -4.75503,-25.383764 -6.46875,-39.156244 7.9424,10.28166 16.4488,15.25103 24.09375,16.90625 -8.73335,-10.64116 -21.45157,-40.104919 -23.6875,-63.7812491 7.28355,8.87542976 14.6011,12.8262297 21.5,13.5937496 -11.32159,-10.4501597 -23.89995,-32.2936155 -27.6875,-52.1562485 3.86902,2.16389 9.17562,2.36429 12.5625,1.5 -13.69412,-3.51043 -17.9366,-17.4109 -22.0625,-28.78125 -2.14778,-5.918919 -8.1944,-12.305667 -12.6875,-12.062497 -0.64188,0.03474 -1.24942,0.20616 -1.8125,0.53125 -9.29319,5.365428 5.4375,22.593217 5.4375,38.562497 -10e-6,13.705837 -6.50562,26.35235 -19.25,35.093749 -13.08828,8.9772798 -37.12309,14.7905595 -53.84375,11.53124966 -8.43998,-6.49970976 -7.39448,-13.17350866 -2.5,-19.78124866 2.29295,2.1569 4.1156,4.72477 5.84375,8.062499 1.2231,-3.729849 -0.20064,-8.087779 -2.9375,-11.562499 0.67632,-0.73179 1.38583,-1.4588 2.125,-2.1875 1.26905,-1.251082 2.55823,-2.581229 3.84375,-3.96875 2.18754,1.622543 4.10074,3.65166 6.0625,6.25 0.4831,-3.241834 -0.92327,-6.597471 -3.3125,-9.34375 1.13267,-1.338003 2.25673,-2.711442 3.3125,-4.15625 2.51161,2.084083 4.51443,4.605426 6.46875,7.96875 1.08699,-3.954606 -0.7265,-8.447528 -3.875,-11.84375 1.06376,-1.71822 2.02487,-3.49707 2.875,-5.34375 2.93668,1.70327 5.40472,3.95185 7.9375,7.09375 0.49869,-4.27389 -2.27023,-8.64537 -6.1875,-11.53125 0.22795,-0.69732 0.40609,-1.41175 0.59375,-2.125 5.58121,1.8976 9.33746,4.58402 13.25,9.4375 0.73459,-6.2954 -5.60836,-12.77795 -12.28125,-14.4375 0.13692,-1.22006 0.21875,-2.45779 0.21875,-3.71875 0,-1.09611 -0.1009,-2.18773 -0.25,-3.25 5.52396,0.6575 9.62662,2.4577 14.34375,6.15625 -0.71831,-6.43214 -8.67295,-11.37483 -15.65625,-11.28125 -0.77357,-1.9917 -1.82991,-3.83604 -3.09375,-5.46875 6.23145,-0.96095 12.43214,-5.480719 13.0625,-11.124997 -5.76686,4.521599 -10.64261,6.173268 -18.28125,6.406248 -1.45314,-0.88141 -3.01686,-1.548939 -4.6875,-1.968749 4.67602,-3.04857 7.38297,-8.823368 7.40625,-14.343746 z" stroke="#000" stroke-width="1.9"/><path d="m 702.36451,-77.291957 c 0,8.20848 7.85966,6.23966 11.61752,-2.471809 -4.11969,0.25947 -7.74501,3.900429 -11.61752,2.471809 z" fill="#fff" stroke-width=".7"/><path d="m 636.61339,-105.71045 c -15.02101,0 -9.88195,14.317647 -16.5625,20.249996 -4.69645,-5.932349 -8.12955,-13.093747 -20.03125,-13.093747 -9.07756,0 -17.53124,6.413038 -17.53125,15.562496 0,6.891288 1.23951,15.098898 -3.71875,21.031248 5.94905,-2.64899 8.3545,-11.63054 11.1875,-18.999999 2.40023,-6.243678 7.84606,-10.187497 14.53125,-10.187497 6.83399,0 9.42761,3.081609 13.34375,5.687499 l 6.0625,2.718749 c 5.19055,-1.33833 13.71875,3.401069 13.71875,10.624998 0,4.61446 -6.1875,5.75162 -6.1875,12.75 0,6.14103 6.35978,11.37831 13.71875,8.375 -3.25917,1.10595 -8.28125,-0.52726 -8.28125,-4.78125 0,-5.35158 9.40626,-6.08406 9.40625,-14.71875 0,-13.846738 -15.76087,-20.085956 -24.5,-13.968748 6.22819,-4.623048 7.42999,-13.843746 15.84375,-13.843746 5.81862,0 9.11355,5.937498 16.75,5.937498 4.39792,0 8.03842,-0.646219 10.9375,-2.468749 -16.31396,0.74154 -17.51011,-10.874998 -28.6875,-10.874998 z m 8.53125,54.718743 c 0.30191,-0.10245 0.60892,-0.19331 0.875,-0.34375 -0.29165,0.1439 -0.58612,0.22585 -0.875,0.34375 z m 153.5,-49.781243 c -4.00848,0 -8.19678,3.584389 -11.1875,6.312498 -2.88297,2.629839 -7.0955,2.676299 -11.6875,0.84375 2.89907,1.822529 3.44583,3.468749 7.84375,3.468749 6.02978,0 8.46263,-6.656248 14.28125,-6.656248 3.29975,0 6.02927,1.222579 6.75,4.156249 0.65028,2.646839 1.68148,6.260038 3.03125,8.187497 -5.60786,-3.925379 -9.62844,-2.800339 -11.78125,-0.0625 v -0.09375 c -1.71181,2.21392 -2.95021,4.598569 -5.59375,6.812499 0.14528,0.145279 2.13903,-0.37568 3.78125,-1.125 0.008,1.939619 0.25066,3.645379 0.625,5.187499 -1.06085,3.12688 -2.93965,5.97712 -5.8125,8.5 2.48233,-1.0824 5.06406,-1.89596 7.03125,-4.78125 1.31582,3.31182 2.84375,5.95541 2.84375,9.03125 2e-5,4.34499 -6.10783,7.52305 -9.46875,6.46875 7.44923,3.19495 13.90625,-2.11209 13.90625,-8.3125 10e-6,-6.99838 -4.1875,-9.46636 -4.1875,-15.687499 10e-6,-4.628529 2.32943,-6.792988 6.53125,-4.218749 l 6.0625,-2.718749 c 2.43304,-3.10025 6.7684,-4.437499 12.125,-4.437499 6.68517,0 9.94316,7.952368 11.8125,14.374996 3.08019,10.58282 15.34629,16.08435 22.53125,14.53125 -9.16037,-1.2359 -13.46166,-14.9924 -14.8125,-21.749998 -1.48312,-7.419188 -6.51619,-13.593746 -15.59375,-13.593746 -8.19397,0 -13.5848,4.942648 -18.28125,10.874997 -1.29623,-2.13654 -2.28089,-6.041189 -2.59375,-9.374998 -0.34101,-3.633759 -4.01066,-5.937498 -8.15625,-5.937498 z" stroke="#000" stroke-width="1.9"/></g><use height="508.5" width="420" transform="translate(499.04858,2.50727e-6)" xlink:href="#a"/><use height="508.5" width="420" transform="translate(-5.25879e-6,351.22074)" xlink:href="#a"/><use height="508.5" width="420" transform="translate(499.04857,351.22073)" xlink:href="#a"/></g></g></svg>