<?xml version="1.0" encoding="UTF-8" standalone="no"?>
<svg
   xmlns:dc="http://purl.org/dc/elements/1.1/"
   xmlns:cc="http://creativecommons.org/ns#"
   xmlns:rdf="http://www.w3.org/1999/02/22-rdf-syntax-ns#"
   xmlns:svg="http://www.w3.org/2000/svg"
   xmlns="http://www.w3.org/2000/svg"
   xmlns:xlink="http://www.w3.org/1999/xlink"
   xmlns:sodipodi="http://sodipodi.sourceforge.net/DTD/sodipodi-0.dtd"
   xmlns:inkscape="http://www.inkscape.org/namespaces/inkscape"
   width="1200"
   height="600"
   version="1.1"
   id="svg17"
   sodipodi:docname="Dominion_of_Newfoundland_Blue_Ensign.svg"
   inkscape:version="0.92.2 (5c3e80d, 2017-08-06)">
  <metadata
     id="metadata23">
    <rdf:RDF>
      <cc:Work
         rdf:about="">
        <dc:format>image/svg+xml</dc:format>
        <dc:type
           rdf:resource="http://purl.org/dc/dcmitype/StillImage" />
        <dc:title />
      </cc:Work>
    </rdf:RDF>
  </metadata>
  <defs
     id="defs21">
    <clipPath
       id="SVGID_2_">
      <use
         xlink:href="#SVGID_1_"
         overflow="visible"
         id="use97"
         style="overflow:visible"
         x="0"
         y="0"
         width="100%"
         height="100%" />
    </clipPath>
    <path
       id="SVGID_1_"
       d="m 301.829,162.235 c 5.599,-1.763 12.548,4.468 15.519,13.91 2.977,9.442 0.85,18.527 -4.749,20.286 -5.599,1.763 -12.548,-4.468 -15.521,-13.909 -2.974,-9.442 -0.848,-18.527 4.751,-20.287 z"
       inkscape:connector-curvature="0" />
    <clipPath
       id="SVGID_2_-1">
      <use
         height="100%"
         width="100%"
         y="0"
         x="0"
         style="overflow:visible"
         xlink:href="#SVGID_1_-7"
         overflow="visible"
         id="use97-6" />
    </clipPath>
    <path
       inkscape:connector-curvature="0"
       id="SVGID_1_-7"
       d="m 301.829,162.235 c 5.599,-1.763 12.548,4.468 15.519,13.91 2.977,9.442 0.85,18.527 -4.749,20.286 -5.599,1.763 -12.548,-4.468 -15.521,-13.909 -2.974,-9.442 -0.848,-18.527 4.751,-20.287 z" />
  </defs>
  <sodipodi:namedview
     pagecolor="#ffffff"
     bordercolor="#666666"
     borderopacity="1"
     objecttolerance="10"
     gridtolerance="10"
     guidetolerance="10"
     inkscape:pageopacity="0"
     inkscape:pageshadow="2"
     inkscape:window-width="1920"
     inkscape:window-height="1057"
     id="namedview19"
     showgrid="false"
     inkscape:zoom="0.75306872"
     inkscape:cx="678.65896"
     inkscape:cy="29.611179"
     inkscape:window-x="-8"
     inkscape:window-y="-8"
     inkscape:window-maximized="1"
     inkscape:current-layer="svg17" />
  <clipPath
     id="c">
    <path
       d="M0,0V150H700V300H600zM0,300V350H300V0H600z"
       id="path2" />
  </clipPath>
  <rect
     width="1200"
     height="600"
     fill="#012169"
     id="rect5" />
  <path
     d="M0,0 600,300M600,0 0,300"
     stroke="#fff"
     stroke-width="60"
     id="path7" />
  <path
     d="M0,0 600,300M600,0 0,300"
     stroke="#c8102e"
     stroke-width="40"
     clip-path="url(#c)"
     id="path9" />
  <path
     d="M0,150H700M300,0V350"
     stroke="#fff"
     stroke-width="100"
     id="path11" />
  <path
     d="M0,150H700M300,0V350"
     stroke="#c8102e"
     stroke-width="60"
     id="path13" />
  <path
     d="M0,300H600V0H1200V600H0z"
     id="path15"
     style="stroke:none;fill:#c8102e;fill-opacity:1" />
  <g
     transform="matrix(1.6228498,0,0,1.6228498,-186.10877,213.07545)"
     id="g346">
    <circle
       style="fill:#fde88a;stroke:none;stroke-width:1.00032473"
       cx="669.26019"
       cy="53.562904"
       id="ellipse4"
       r="86.267998" />
    <path
       style="fill:#fef1b9"
       inkscape:connector-curvature="0"
       d="m 669.26016,-29.817094 c -35.452,0 -65.745,22.0869999 -77.851,53.243 2.496,0.384 4.945,1.064 7.318,2.074 9.665,3.796 18.633,10.691 29.678,9.31 12.765,-2.068 23.118,-9.654 34.852,-14.139 12.765,-4.828 25.878,-2.414 37.951,3.795 2.077,1.034 4.148,1.034 6.214,2.068 13.749,8.772 28.494,12.089 43.813,11.213 -7.418,-38.48500014 -41.294,-67.564 -81.975,-67.564 z"
       id="path6" />
    <path
       style="fill:#fddc50"
       inkscape:connector-curvature="0"
       d="m 669.26016,89.302906 c -30.732,0 -59.147,-8.496 -82.181,-22.884 1.922,12.432 6.598,23.947 13.395,33.913004 h 137.572 c 6.791,-9.963004 11.47,-21.481004 13.395,-33.913004 -23.04,14.388 -51.446,22.884 -82.181,22.884 z"
       id="path8" />
    <g
       id="g34"
       transform="translate(418.41316,-99.663094)">
      <rect
         style="fill:#f7941e"
         x="163.996"
         y="134.379"
         transform="matrix(-0.4263,-0.9046,0.9046,-0.4263,142.9671,359.7846)"
         width="43.169998"
         height="0.34999999"
         id="rect10" />
      <path
         style="fill:#f7941e"
         inkscape:connector-curvature="0"
         d="m 194.312,153.882 h -25.57 c 0,0 -3.103,18.202 9.709,38.492 4.987,-3.637 15.861,-14.344 15.861,-38.492 z"
         id="path12" />
      <path
         style="fill:#f8a440"
         inkscape:connector-curvature="0"
         d="m 186.936,153.882 c 0,22.863 -5.766,33.673 -8.877,37.854 0.129,0.211 0.264,0.425 0.398,0.639 4.986,-3.637 15.861,-14.344 15.861,-38.492 h -7.382 z"
         id="path14" />
      <rect
         style="fill:#f7941e"
         x="165.30499"
         y="132.80299"
         transform="matrix(-0.4135,-0.9105,0.9105,-0.4135,145.0263,359.3825)"
         width="45.911999"
         height="0.35800001"
         id="rect16" />
      <rect
         style="fill:#f7941e"
         x="168.298"
         y="121.081"
         transform="matrix(-0.0782,-0.9969,0.9969,-0.0782,95.0358,330.3764)"
         width="63.917"
         height="0.34099999"
         id="rect18" />
      <rect
         style="fill:#f7941e"
         x="169.36"
         y="129.533"
         transform="matrix(-0.5489,-0.8359,0.8359,-0.5489,197.1689,365.8194)"
         width="55.873001"
         height="0.347"
         id="rect20" />
      <rect
         style="fill:#f7941e"
         x="173.577"
         y="121.232"
         transform="matrix(-0.2343,-0.9722,0.9722,-0.2343,135.3655,349.432)"
         width="63.443001"
         height="0.34599999"
         id="rect22" />
      <rect
         style="fill:#f7941e"
         x="175.131"
         y="120.088"
         transform="matrix(-0.2538,-0.9672,0.9672,-0.2538,144.7392,352.1765)"
         width="66.153999"
         height="0.345"
         id="rect24" />
      <rect
         style="fill:#f7941e"
         x="204.23599"
         y="147.27499"
         transform="matrix(-0.3685,-0.9296,0.9296,-0.3685,134.5102,403.8137)"
         width="0.34999999"
         height="17.889"
         id="rect26" />
      <rect
         style="fill:#f7941e"
         x="206.174"
         y="146.423"
         transform="matrix(-0.5282,-0.8491,0.8491,-0.5282,180.6383,417.6447)"
         width="0.34400001"
         height="24.431999"
         id="rect28" />
      <path
         style="fill:#f7941e"
         inkscape:connector-curvature="0"
         d="m 194.312,153.882 c 0,24.148 -10.875,34.855 -15.861,38.492 0.322,0.521 0.656,1.033 1.002,1.546 0,0 18.311,-8.701 18.311,-40.035 h -3.451 v -0.003 z"
         id="path30" />
      <polygon
         style="fill:#f7941e"
         points="194.312,153.882 219.15,151.678 196.103,156.889 "
         id="polygon32" />
    </g>
    <g
       id="g126"
       transform="translate(418.41316,-99.663094)">
      <g
         id="g124">
        <path
           style="fill:#c49a6c"
           inkscape:connector-curvature="0"
           d="m 295.149,195.126 c 0,0 0.267,2.381 0.738,3.001 0,0 2.142,0.079 3.155,-0.582 1.014,-0.665 1.324,-1.906 1.324,-1.906 l -2.221,-1.719 z"
           id="path38" />
        <path
           style="fill:#c49a6c"
           inkscape:connector-curvature="0"
           d="m 280.574,194.506 c 0,0 -1.828,0.948 -2.104,1.2 -0.27,0.234 -0.973,0.743 -1.21,0.708 0,0 -0.073,0.853 1.058,0.773 1.131,-0.073 1.752,-0.038 2.73,-0.155 0.967,-0.114 1.752,-0.683 2.766,-0.401 1.008,0.287 2.282,0.316 2.502,-0.535 0.217,-0.855 0,-2.023 0,-2.023 z"
           id="path40" />
        <path
           style="fill:#c49a6c"
           inkscape:connector-curvature="0"
           d="m 301.278,137.759 c -0.164,-0.319 -0.325,-0.618 -0.478,-0.866 -1.312,-2.202 -0.732,-3.796 -0.732,-3.796 h -2.323 l 0.026,6.46 c 0,0 -0.416,4.462 2.575,7.681 0,0 -0.032,0.111 -0.067,0.295 0.258,-0.1 0.521,-0.195 0.814,-0.295 -1.534,-3.373 -2.519,-7.015 0.185,-9.479 z"
           id="path42" />
        <path
           style="fill:#c49a6c"
           inkscape:connector-curvature="0"
           d="m 300.08,148.516 c -0.141,0.761 -0.287,1.754 -0.316,2.664 -0.053,1.575 0.489,5.932 0.39,7.858 2.024,-3.057 1.895,-7.53 -0.074,-10.522 z"
           id="path44" />
        <path
           style="fill:#e8ba8b"
           inkscape:connector-curvature="0"
           d="m 265.076,149.694 c -1.298,0.344 -3.97,0.086 -4.752,0.862 -0.773,0.777 0.744,0.426 1.014,0.438 0.27,0.016 0.861,0.223 0.861,0.223 0,0 -0.976,0.654 -1.43,0.643 -0.445,-0.018 -2.021,-0.328 -2.291,-0.064 -0.27,0.267 -1.099,1.101 0.117,1.355 0,0 -0.354,1.057 1.301,0.963 0,0 0.727,1.253 1.96,0.973 1.239,-0.287 2.502,-2.132 3.724,-2.709 0.504,-0.242 1.383,-0.491 2.232,-0.699 -0.287,-0.936 -0.68,-1.808 -1.137,-2.641 -0.632,0.305 -1.23,0.554 -1.599,0.656 z"
           id="path46" />
        <path
           style="fill:#c49a6c"
           inkscape:connector-curvature="0"
           d="m 271.211,150.109 -1.093,-2.872 c 0,0 -1.881,1.059 -3.437,1.8 0.454,0.833 0.847,1.708 1.137,2.641 1.178,-0.287 2.3,-0.498 2.3,-0.498 z"
           id="path48" />
        <path
           style="fill:#ffffff"
           inkscape:connector-curvature="0"
           d="m 292.814,128.614 c 0,0.689 -0.352,1.724 0.337,2.414 1.04,0.344 1.729,-0.688 2.417,-0.346 0.691,0.346 -1.037,2.068 0,2.068 1.869,0.111 3.105,0.849 3.923,1.937 0.167,-0.428 0.319,-0.827 0.437,-1.159 0.554,-1.581 -0.665,-2.24 -1.102,-2.681 -0.439,-0.44 -1.805,-0.223 -1.805,-0.223 0,0 0.404,-0.186 0.331,-0.602 -0.111,-1.152 -1.983,-1.676 -1.983,-1.676 0,0 0.293,-0.402 -0.328,-0.735 -0.621,-0.329 -1.43,-1.763 -1.852,-2.203 -0.419,-0.44 -1.342,-0.426 -1.342,-0.426 l -8.156,4.978 c -0.316,0.215 -0.609,0.449 -0.885,0.698 3.247,1.242 7.685,0.274 10.008,-2.044 z"
           id="path50" />
        <path
           style="fill:#e6e7e8"
           inkscape:connector-curvature="0"
           d="m 294.531,137.923 c 1.031,0.255 2.256,0.704 3.237,1.631 0.021,-0.111 0.038,-0.218 0.062,-0.335 0.205,-0.927 1.046,-2.941 1.661,-4.531 -0.817,-1.088 -2.054,-1.828 -3.923,-1.937 -1.037,0 0.691,-1.726 0,-2.068 -0.686,-0.345 -1.377,0.689 -2.417,0.346 -0.688,-0.688 -0.337,-1.725 -0.337,-2.414 -2.32,2.317 -6.762,3.286 -10.008,2.054 -0.592,0.549 -1.081,1.156 -1.482,1.777 -0.498,1.563 -0.99,3.154 -0.94,4.722 2.944,4.817 9.501,-0.237 14.147,0.755 z"
           id="path52" />
        <path
           style="fill:#e6e7e8"
           inkscape:connector-curvature="0"
           d="m 277.627,161.377 c 2.068,-1.727 2.414,-6.9 2.76,-10.35 0.252,-2.797 -1.74,-5.031 -2.394,-7.672 -0.548,0.726 -0.999,1.328 -1.403,1.464 -4.731,0.836 -5.194,5.485 -6.472,9.06 v 2.853 c 1.605,-0.313 3.243,-0.668 4.743,-0.879 -0.34,3.109 0.692,7.594 2.766,5.524 z"
           id="path54" />
        <path
           style="fill:#bcbec0"
           inkscape:connector-curvature="0"
           d="m 298.879,152.535 c -0.141,-2.641 -0.976,-3.145 -0.976,-3.145 0,0 0.445,-0.294 0.592,-1.028 0.146,-0.733 -0.258,-1.434 -0.407,-2.458 -0.152,-1.028 -0.557,-1.137 -0.516,-2.24 0.035,-1.104 -0.331,-1.909 -0.331,-1.909 0.366,-0.465 0.343,-1.197 0.527,-2.198 -0.981,-0.926 -2.206,-1.376 -3.237,-1.631 -4.646,-0.995 -11.203,4.062 -14.15,-0.759 0.029,1.076 0.316,2.141 1.037,3.176 -1.477,0.423 -2.561,1.874 -3.425,3.019 0.653,2.64 2.646,4.875 2.394,7.672 -0.346,3.449 -0.686,8.62 -2.76,10.35 -2.074,2.064 -3.105,-2.415 -2.766,-5.524 -1.5,0.217 -3.138,0.565 -4.743,0.879 v 4.081 c 0,0 0.264,2.026 0.604,2.195 0.349,0.17 1.125,-0.427 1.125,-0.427 v 15.26 c 0,0 2.417,0.518 2.241,1.979 -0.176,1.464 1.556,5.604 1.436,6.556 -0.105,0.945 0.287,4.392 0.029,5.516 -0.258,1.122 1.641,1.643 1.641,1.643 -0.085,1.719 2.675,1.552 4.137,1.116 1.465,-0.428 2.678,-0.085 4.406,0.603 0.407,0.167 0.814,0.313 1.219,0.448 1.678,-14.765 -7.217,-40.617 11.923,-43.174 z"
           id="path56" />
        <path
           style="fill:#d1d3d4"
           inkscape:connector-curvature="0"
           d="m 299.263,163.488 c -0.255,-1.473 -0.366,-6.903 -0.366,-10.206 0,-0.267 -0.006,-0.51 -0.018,-0.747 -19.14,2.557 -10.245,28.409 -11.924,43.171 1.307,0.416 2.631,0.591 4.213,0.064 2.065,-0.686 2.587,0.433 3.275,0.433 0.691,0 1.21,-1.554 2.76,-1.554 1.559,0 3.885,1.981 6.217,1.981 2.323,0 3.19,-1.981 3.19,-1.981 -3.105,-3.616 -7.089,-29.691 -7.347,-31.161 z"
           id="path58" />
        <path
           style="fill:#e8ba8b"
           inkscape:connector-curvature="0"
           d="m 284.787,124.497 c 0,0 1.4,1.691 1.254,2.755 -0.146,1.062 -0.363,1.21 -0.363,1.21 0,0 -1.069,0.258 -1.986,1.505 0,0 2.569,0.218 3.56,-0.184 0.996,-0.405 4.673,-2.093 5.587,-3.086 0,0 -1.805,-1.588 -2.241,-4.131 l -3.056,-4.68 -1.219,-0.195 z"
           id="path60" />
        <path
           style="fill:#c49a6c"
           inkscape:connector-curvature="0"
           d="m 288.098,122.938 c 0.372,-0.213 0.396,-0.701 0.615,-1.1 0.223,-0.399 0.738,-1.397 -0.108,-1.898 0,0 -0.208,-1.305 -1.351,-1.562 -0.226,-0.054 -0.598,-0.129 -1.037,-0.221 l -1.43,6.34 c 0,0 0.158,0.195 0.366,0.495 0.882,-0.438 1.778,-1.176 2.399,-2.023 10e-4,-0.003 0.179,0.186 0.546,-0.031 z"
           id="path62" />
        <path
           style="fill:#e8ba8b"
           inkscape:connector-curvature="0"
           d="m 281.312,117.691 c 0,0 0.337,1.842 0,2.3 -0.352,0.458 -0.645,1.056 -0.645,1.373 0,0.315 0.598,0.381 1.099,0.381 0,0 0.308,0.489 0.067,0.792 0,0 0.044,0.519 0.381,0.396 0,0 -0.223,0.264 0,0.558 0,0 0.548,-0.08 0.58,0.317 0.047,0.396 -0.129,1.361 0.94,1.361 1.075,0 2.593,-1.241 3.39,-2.709 0,0 0.17,0.158 0.475,-0.079 0.305,-0.239 0.281,-0.701 0.439,-1.097 0.152,-0.396 0.51,-1.388 -0.284,-1.772 0,0 -0.308,-1.202 -1.321,-1.334 -1.007,-0.129 -5.121,-0.487 -5.121,-0.487 z"
           id="path64" />
        <path
           style="fill:#603913"
           inkscape:connector-curvature="0"
           d="m 286.68,117.752 c 0,0 0.615,3.262 1.254,3.904 0.639,0.638 1.189,1.885 1.119,2.4 -0.073,0.513 -0.697,0.507 0.185,1.115 0.885,0.609 1.359,-0.309 1.652,0.204 0.296,0.514 0.36,0.282 0.861,0.016 0.501,-0.271 0.536,-0.346 0.536,-0.822 0,-0.476 -0.158,-0.812 -0.812,-1.58 -0.659,-0.767 -1.315,-3.081 -1.315,-3.081 z"
           id="path66" />
        <g
           id="g76">
          <path
             style="fill:#fcd116"
             inkscape:connector-curvature="0"
             d="m 291.959,120.028 h -1.808 v -1.725 h 0.671 c 0.768,-1.948 0.838,-3.616 0.229,-4.961 -0.899,-1.974 -3.029,-2.657 -3.047,-2.666 l 0.507,-1.648 c 0.114,0.035 2.868,0.898 4.102,3.576 0.885,1.937 0.744,4.257 -0.431,6.91 z"
             id="path68" />
          <path
             style="fill:#c67f17"
             inkscape:connector-curvature="0"
             d="m 288.262,112.407 0.709,-1.37 c 0,0 3.352,1.514 2.631,5.594 z"
             id="path70" />
          <path
             style="fill:#fcd116"
             inkscape:connector-curvature="0"
             d="m 291.555,117.694 c 0.029,-0.206 0.05,-0.418 0.05,-0.632 0,-2.716 -2.203,-4.913 -4.925,-4.913 -1.91,0 -3.562,1.088 -4.377,2.679 -0.34,0.672 -0.536,1.431 -0.536,2.237 0,0.231 0.021,0.453 0.05,0.678 1.137,0.1 3.82,0.446 4.623,0.44 2.423,-0.012 2.402,4.077 5.036,4.809 0,0 -0.322,-2.617 0.085,-5.298 z"
             id="path72" />
          <path
             style="fill:#c67f17"
             inkscape:connector-curvature="0"
             d="m 282.303,114.825 -2.648,2.774 6.668,0.563 c -10e-4,0.004 -0.595,-1.924 -4.02,-3.337 z"
             id="path74" />
        </g>
        <path
           style="fill:#c49a6c"
           inkscape:connector-curvature="0"
           d="m 281.459,119.213 v 0 c 1.187,0.146 1.163,1.064 1.529,0.953 0.36,-0.111 0.182,-0.663 0.182,-0.663 l 0.521,-0.293 v -0.111 c -0.609,-0.495 -1.591,-0.618 -2.273,-0.639 0.023,0.242 0.041,0.507 0.041,0.753 z"
           id="path78" />
        <path
           style="fill:#ffffff"
           inkscape:connector-curvature="0"
           d="m 299.263,163.488 c -0.255,-1.473 -0.366,-6.903 -0.366,-10.206 0,-3.296 -0.984,-3.889 -0.993,-3.892 v 0 l -0.466,-0.091 -0.615,-0.148 -0.996,-0.354 -0.914,-0.516 -0.803,-0.978 -2.215,0.306 -1.38,-0.719 -0.729,0.106 -0.786,-0.108 -1.195,0.848 -0.806,-0.158 -0.214,0.061 c -0.363,2.347 1.207,5.586 3.606,7.185 1.729,1.036 3.448,2.758 3.8,4.485 2.965,10.684 1.078,27.762 11.288,33.184 -2.865,-7.298 -5.991,-27.714 -6.216,-29.005 z"
           id="path80" />
        <path
           style="fill:#ffffff"
           inkscape:connector-curvature="0"
           d="m 281.418,140.34 c -1.775,-2.537 -0.938,-5.259 -0.094,-7.895 -1.351,2.096 -1.67,4.272 -1.67,4.272 -0.908,0.258 -1.119,2.546 -1.119,2.546 -1.427,0.473 -1.471,2.412 -1.471,2.412 -0.949,1.725 -3.062,2.804 -3.062,2.804 -2.153,-0.473 -2.194,1.467 -2.194,1.467 -1.336,-0.217 -1.688,1.294 -1.688,1.294 v 6.645 c 1.078,-3.031 1.582,-6.833 4.588,-8.431 v 8.431 c 0,0 1.729,-8.29 2.947,-10.08 v 0 c 0.909,-1.177 2.084,-2.99 3.763,-3.465 z"
           id="path82" />
        <g
           id="g90">
          <path
             style="fill:#6d6e71"
             inkscape:connector-curvature="0"
             d="m 295.826,148.65 c -0.331,-0.169 -0.645,-0.363 -0.908,-0.606 -0.067,-0.057 -0.138,-0.12 -0.19,-0.186 -0.056,-0.066 -0.123,-0.129 -0.167,-0.203 l -0.07,-0.108 c -0.029,-0.041 -0.047,-0.058 -0.07,-0.138 -0.067,-0.135 -0.129,-0.278 -0.196,-0.415 -0.58,0.237 -0.75,0.243 -1.069,0.301 -0.299,0.042 -0.592,0.054 -0.879,0.021 -0.287,-0.033 -0.554,-0.117 -0.8,-0.246 l -0.173,-0.107 c -0.062,-0.04 -0.105,-0.087 -0.158,-0.129 l -0.076,-0.069 -0.135,-0.153 -0.278,-0.312 c -0.114,0.072 -0.237,0.157 -0.349,0.214 -0.129,0.069 -0.158,0.075 -0.211,0.099 -0.108,0.042 -0.214,0.068 -0.311,0.077 -0.1,0.011 -0.185,0 -0.246,-0.023 -0.021,-0.006 -0.032,-0.015 -0.05,-0.021 l -0.006,-0.003 -0.006,-0.003 v 0 l -0.032,-0.027 -0.018,-0.021 -0.085,-0.084 c -0.108,-0.117 -0.202,-0.229 -0.308,-0.339 -0.135,0.191 -0.275,0.408 -0.422,0.585 l -0.07,0.078 -0.059,0.054 c -0.035,0.038 -0.07,0.074 -0.108,0.106 -0.152,0.137 -0.319,0.249 -0.478,0.312 -0.141,0.06 -0.267,0.076 -0.39,0.057 -0.062,-0.003 -0.123,-0.026 -0.185,-0.051 -0.012,0.007 -0.117,-0.063 -0.179,-0.099 l -0.214,-0.132 c -0.094,0.058 -0.193,0.117 -0.293,0.164 l -0.094,0.055 -0.067,0.033 c -0.094,0.049 -0.19,0.084 -0.284,0.126 -0.193,0.075 -0.393,0.146 -0.583,0.198 -0.401,0.107 -0.806,0.168 -1.21,0.168 -0.401,0.003 -0.8,-0.061 -1.172,-0.191 -0.196,-0.055 -0.366,-0.154 -0.551,-0.234 -0.161,-0.111 -0.334,-0.195 -0.469,-0.337 -0.604,-0.501 -0.855,-1.312 -0.896,-2.112 -0.018,-0.807 0.105,-1.636 0.448,-2.369 -0.437,0.689 -0.671,1.514 -0.738,2.369 -0.023,0.429 0.015,0.872 0.144,1.304 0.117,0.434 0.357,0.848 0.686,1.178 0,0.003 0.006,0.003 0.006,0.006 -0.738,3.629 -1.348,7.398 -1.793,11.292 -0.246,1.991 -0.398,4.023 -0.521,6.078 -0.038,1.031 -0.064,2.067 -0.1,3.104 0.006,0.527 0.012,1.054 0.023,1.575 0.012,0.524 0.053,1.042 0.07,1.569 0.27,4.198 0.938,8.274 1.708,12.215 0.372,1.971 0.8,3.911 1.128,5.826 0.082,0.475 0.164,0.961 0.182,1.429 0.029,0.469 -0.059,0.946 -0.202,1.394 -0.296,0.902 -0.847,1.713 -1.567,2.328 0.756,-0.565 1.371,-1.361 1.726,-2.27 0.173,-0.456 0.296,-0.945 0.29,-1.452 0.006,-0.5 -0.05,-0.978 -0.105,-1.47 -0.246,-1.95 -0.595,-3.899 -0.911,-5.879 -0.639,-3.952 -1.251,-8.014 -1.506,-12.168 -0.026,-0.519 -0.067,-1.036 -0.079,-1.552 -0.006,-0.516 -0.018,-1.039 -0.029,-1.552 0.018,-1.03 0.041,-2.055 0.062,-3.074 0.091,-2.043 0.196,-4.061 0.378,-6.058 0.322,-3.879 0.759,-7.663 1.271,-11.326 0.146,0.167 0.34,0.287 0.519,0.422 0.208,0.108 0.401,0.237 0.621,0.312 0.431,0.181 0.899,0.277 1.368,0.294 0.472,0.018 0.938,-0.031 1.4,-0.143 0.223,-0.055 0.448,-0.129 0.668,-0.211 0.111,-0.044 0.223,-0.087 0.325,-0.138 l 0.138,-0.063 v 0 l 0.035,0.022 c 0.018,0.009 -0.006,0.003 0.076,0.035 0.117,0.051 0.24,0.097 0.372,0.111 0.267,0.039 0.548,-0.003 0.771,-0.103 0.275,-0.11 0.498,-0.275 0.697,-0.452 0.047,-0.046 0.088,-0.09 0.138,-0.138 l 0.067,-0.069 c 0.018,-0.019 0.056,-0.062 0.05,-0.051 -0.006,0 0,-0.003 0,-0.006 v 0 l 0.018,0.012 c 0.05,0.021 0.1,0.045 0.149,0.062 0.193,0.069 0.393,0.072 0.565,0.052 0.179,-0.018 0.337,-0.069 0.489,-0.129 0.064,-0.031 0.17,-0.075 0.158,-0.075 0.012,-0.007 0.006,-0.007 0.012,-0.013 0.018,0.013 0.041,0.033 0.059,0.054 l 0.023,0.028 0.111,0.086 c 0.07,0.055 0.146,0.117 0.223,0.169 l 0.246,0.135 c 0.334,0.16 0.688,0.245 1.043,0.266 0.346,0.018 0.688,-0.018 1.022,-0.086 0.308,-0.063 0.738,-0.208 0.744,-0.234 0.023,0.021 0.041,0.063 0.067,0.097 0,0.006 0.041,0.062 0.07,0.101 l 0.103,0.126 c 0.062,0.088 0.141,0.151 0.214,0.223 0.07,0.075 0.152,0.138 0.234,0.195 0.325,0.242 0.683,0.414 1.037,0.552 0.715,0.278 1.459,0.429 2.186,0.5 -0.709,-0.169 -1.415,-0.404 -2.074,-0.739 z"
             id="path84" />
          <path
             style="fill:#6d6e71"
             inkscape:connector-curvature="0"
             d="m 276.613,164.92 c -0.158,-0.041 -0.316,-0.114 -0.475,-0.185 -0.076,-0.047 -0.152,-0.085 -0.229,-0.129 -0.132,-0.073 -0.24,-0.251 -0.322,-0.38 -0.105,-0.193 -0.217,-0.398 -0.287,-0.615 -0.082,-0.252 -0.17,-0.521 -0.164,-0.778 0.006,-0.305 0.018,-0.604 0.023,-0.908 0.018,-0.603 0.029,-1.212 0.035,-1.821 0.006,-1.587 -0.012,-3.215 -0.041,-4.865 -0.029,-1.651 -0.117,-3.273 -0.182,-4.86 -0.064,-1.584 -0.146,-3.132 -0.264,-4.637 -0.123,1.499 -0.22,3.047 -0.287,4.64 -0.064,1.59 -0.032,3.212 -0.006,4.872 0.029,1.656 0.117,3.278 0.223,4.865 0.006,0.056 0.006,0.108 0.012,0.167 0.047,0.604 0.094,1.206 0.146,1.81 0.047,0.475 0.135,1.229 -0.363,1.505 -0.141,0.076 -0.34,-0.006 -0.463,-0.085 -0.19,-0.123 -0.36,-0.264 -0.557,-0.372 -0.498,-0.293 -1.567,-0.556 -1.567,-0.556 v 1.59 c 0.091,-0.067 0.185,-0.135 0.281,-0.202 0.114,-0.07 0.226,-0.158 0.36,-0.185 0.451,-0.091 0.902,0.126 1.219,0.431 0.094,0.082 0.179,0.169 0.264,0.251 0.275,0.278 0.609,0.56 1.014,0.592 0.188,0.018 0.293,0.047 0.396,0.226 0.275,0.478 0.196,0.966 0.185,1.49 -0.012,0.451 -0.018,0.901 -0.032,1.353 -0.018,1.188 -0.029,2.368 -0.035,3.561 0,1.212 0.006,2.433 0.018,3.653 0.032,1.833 0.05,3.631 0.1,5.382 0.006,0.878 0.023,1.745 0.041,2.605 0.009,0.854 -0.029,1.692 -0.035,2.532 0.12,-0.822 0.267,-1.66 0.354,-2.521 0.064,-0.852 0.132,-1.725 0.188,-2.605 0.07,-1.763 0.123,-3.569 0.088,-5.399 -0.018,-1.212 -0.047,-2.436 -0.103,-3.647 -0.056,-1.181 -0.129,-2.354 -0.22,-3.534 -0.032,-0.437 -0.064,-0.872 -0.111,-1.314 -0.018,-0.211 -0.035,-0.428 -0.059,-0.645 -0.015,-0.161 0.103,-0.406 0.188,-0.547 0.135,-0.237 0.357,-0.313 0.615,-0.319 0.205,-0.006 0.422,-0.053 0.604,-0.141 0.19,-0.1 0.316,-0.258 0.398,-0.425 -0.146,0.117 -0.308,0.19 -0.463,0.208 -0.164,0.009 -0.329,-0.014 -0.487,-0.058 z"
             id="path86" />
          <path
             style="fill:#6d6e71"
             inkscape:connector-curvature="0"
             d="m 293.688,192.096 c -0.035,-0.36 -0.067,-0.726 -0.1,-1.092 -0.035,-0.369 -0.073,-0.741 -0.103,-1.106 -0.05,-0.366 -0.117,-0.732 -0.179,-1.102 -0.123,-0.731 -0.246,-1.476 -0.375,-2.219 -0.521,-2.98 -1.383,-5.961 -2.062,-9.006 -0.176,-0.756 -0.299,-1.528 -0.451,-2.284 -0.117,-0.764 -0.258,-1.52 -0.346,-2.277 -0.196,-1.517 -0.349,-3.033 -0.445,-4.526 -0.088,-1.493 -0.158,-2.978 -0.164,-4.441 -0.023,-1.461 0.006,-2.91 0.076,-4.33 -0.193,1.411 -0.322,2.857 -0.398,4.324 -0.076,1.47 -0.094,2.96 -0.064,4.474 0.041,1.511 0.144,3.042 0.313,4.576 0.073,0.778 0.208,1.549 0.313,2.318 0.146,0.773 0.27,1.552 0.448,2.319 0.688,3.086 1.605,6.028 2.247,8.953 0.158,0.737 0.311,1.464 0.469,2.189 0.07,0.36 0.17,0.721 0.234,1.078 0.053,0.368 0.105,0.726 0.17,1.092 0.059,0.36 0.108,0.72 0.164,1.08 0.064,0.36 0.123,0.715 0.155,1.071 0.067,0.721 0.173,1.436 0.196,2.144 0.029,-0.708 -0.015,-1.429 -0.026,-2.155 -0.002,-0.357 -0.04,-0.714 -0.072,-1.08 z"
             id="path88" />
        </g>
        <path
           style="fill:#ffffff"
           inkscape:connector-curvature="0"
           d="m 292.12,190.688 c -2.766,-11.377 -6.214,-22.418 -2.766,-33.796 -9.313,8.623 -2.76,23.106 -4.828,34.832 -0.22,0.99 -0.577,1.944 -1.087,2.812 0.703,0.117 1.438,0.38 2.3,0.72 1.72,0.686 3.363,1.206 5.435,0.519 0.475,-0.158 0.861,-0.22 1.187,-0.22 -0.009,-1.623 0.301,-3.245 -0.241,-4.867 z"
           id="path92" />
        <g
           id="g120">
          <g
             id="g118">
            <defs
               id="defs95">
              <path
                 inkscape:connector-curvature="0"
                 id="path1405"
                 d="m 301.829,162.235 c 5.599,-1.763 12.548,4.468 15.519,13.91 2.977,9.442 0.85,18.527 -4.749,20.286 -5.599,1.763 -12.548,-4.468 -15.521,-13.909 -2.974,-9.442 -0.848,-18.527 4.751,-20.287 z" />
            </defs>
            <clipPath
               id="clipPath1239">
              <use
                 height="100%"
                 width="100%"
                 y="0"
                 x="0"
                 style="overflow:visible"
                 xlink:href="#SVGID_1_-7"
                 overflow="visible"
                 id="use1237" />
            </clipPath>
            <g
               clip-path="url(#SVGID_2_-1)"
               id="g116">
              <polygon
                 style="fill:#012169"
                 points="291.672,165.415 311.945,159.038 322.715,193.234 302.441,199.611 "
                 id="polygon100" />
              <polygon
                 style="fill:#ffffff"
                 points="304.715,198.892 308.412,183.14 320.459,193.938 322.724,193.229 321.522,189.405 309.47,178.596 313.158,162.85 311.951,159.026 309.689,159.741 305.998,175.495 293.951,164.688 291.684,165.403 292.885,169.227 304.938,180.027 301.246,195.779 302.447,199.6 "
                 id="polygon102" />
              <polygon
                 style="fill:#c8102e"
                 points="307.199,179.316 311.951,159.026 310.439,159.501 305.688,179.79 "
                 id="polygon104" />
              <polygon
                 style="fill:#c8102e"
                 points="308.711,178.836 307.199,179.316 322.724,193.229 321.918,190.682 "
                 id="polygon106" />
              <polygon
                 style="fill:#c8102e"
                 points="307.199,179.316 302.447,199.6 303.965,199.129 308.711,178.836 "
                 id="polygon108" />
              <polygon
                 style="fill:#c8102e"
                 points="305.688,179.79 307.199,179.316 291.684,165.403 292.486,167.956 "
                 id="polygon110" />
              <polygon
                 style="fill:#ffffff"
                 points="298.439,163.274 305.195,161.149 309.684,175.401 316.439,173.279 318.238,178.977 311.479,181.102 315.965,195.352 309.209,197.475 304.721,183.222 297.959,185.354 296.172,179.655 302.928,177.524 "
                 id="polygon112" />
              <polygon
                 style="fill:#c8102e"
                 points="299.787,162.85 303.848,161.579 308.688,176.962 316.803,174.415 317.878,177.835 309.769,180.388 314.611,195.779 310.562,197.053 305.717,181.661 297.607,184.211 296.529,180.789 304.636,178.238 "
                 id="polygon114" />
            </g>
          </g>
        </g>
        <path
           style="fill:#e8ba8b"
           inkscape:connector-curvature="0"
           d="m 304.111,162.757 c -0.366,-0.478 -0.146,-1.143 -0.973,-1.78 -0.82,-0.633 -0.949,-2.009 -0.762,-3.725 0.193,-1.713 1.849,-5.103 1.764,-9.126 -0.076,-3.562 -1.605,-7.895 -2.862,-10.367 -2.704,2.464 -1.72,6.106 -0.19,9.479 -0.293,0.097 -0.551,0.195 -0.812,0.295 -0.05,0.225 -0.123,0.572 -0.196,0.983 1.969,2.992 2.098,7.466 0.073,10.522 -0.012,0.281 -0.041,0.51 -0.085,0.674 -0.357,1.265 -0.814,3.311 -0.656,4.11 0.158,0.796 0.416,0.492 0.662,-0.176 0.258,-0.668 0.756,-1.054 0.756,-1.054 0,0 1.705,2.371 2.024,3.115 0.325,0.743 0.911,0.521 0.483,-0.51 -0.437,-1.03 -1.037,-1.921 -1.037,-1.921 0,0 1.591,0.938 1.84,1.221 0.258,0.284 0.398,-0.359 -0.346,-0.983 l 0.557,0.097 c -0.002,0.003 0.127,-0.381 -0.24,-0.854 z"
           id="path122" />
      </g>
    </g>
    <g
       id="g162"
       transform="matrix(0.9998888,0,0,0.99907635,418.44106,-99.592351)">
      <path
         style="fill:#630b57"
         inkscape:connector-curvature="0"
         d="m 311.066,103.484 c 0.431,-4.731 -3.879,-6.65 -3.879,-6.65 l -10.43,9.463 c 0,0 3.888,2.054 3.987,6.757 l 10.26,-8.499 c 0.018,-0.352 0.039,-0.707 0.062,-1.071 z"
         id="path128" />
      <path
         style="fill:#c8102e"
         inkscape:connector-curvature="0"
         d="m 315.203,113.584 c -2.912,-1.494 -4.327,-4.808 -4.195,-9.029 l -10.26,8.499 c 0.006,0.021 0.006,0.04 0.006,0.063 0.047,3.379 1.301,6.562 3.199,8.011 2.812,2.153 3.812,3.621 5.262,5.804 l 1.937,-8.763 8.487,0.872 c -0.126,-2.518 -1.281,-3.838 -4.436,-5.457 z"
         id="path130" />
      <polygon
         style="fill:#f26522"
         points="296.761,106.297 307.188,96.834 307.768,100.527 295.961,111.472 "
         id="polygon132" />
      <path
         style="fill:#630b57"
         inkscape:connector-curvature="0"
         d="m 190.627,103.484 c -0.428,-4.731 3.876,-6.65 3.876,-6.65 l 10.433,9.463 c 0,0 -3.885,2.054 -3.99,6.757 l -10.254,-8.499 c -0.012,-0.352 -0.036,-0.707 -0.065,-1.071 z"
         id="path134" />
      <path
         style="fill:#c8102e"
         inkscape:connector-curvature="0"
         d="m 186.487,113.584 c 2.912,-1.494 4.333,-4.808 4.198,-9.029 l 10.26,8.499 c 0,0.021 0,0.04 0,0.063 -0.053,3.379 -1.31,6.562 -3.199,8.011 -2.812,2.153 -3.814,3.621 -5.265,5.804 l -1.942,-8.763 -8.484,0.872 c 0.123,-2.518 1.277,-3.838 4.432,-5.457 z"
         id="path136" />
      <polygon
         style="fill:#f26522"
         points="204.936,106.297 194.503,96.834 193.932,100.527 205.735,111.472 "
         id="polygon138" />
      <path
         style="fill:#c8102e"
         inkscape:connector-curvature="0"
         d="m 250.847,91.792 c 17.821,0 33.876,7.576 45.114,19.68 l 11.807,-10.944 c -14.18,-15.271 -34.436,-24.829 -56.921,-24.829 -22.491,0 -42.741,9.558 -56.921,24.829 l 11.81,10.944 c 11.235,-12.104 27.289,-19.68 45.111,-19.68 z"
         id="path140" />
      <g
         id="g160">
        <path
           style="fill:#fcd116"
           inkscape:connector-curvature="0"
           d="m 208.404,103.859 -4.28,-5.221 -1.635,1.342 -1.532,-1.874 5.104,-4.183 1.529,1.874 -1.62,1.327 4.283,5.224 z"
           id="path142" />
        <path
           style="fill:#fcd116"
           inkscape:connector-curvature="0"
           d="m 214.504,99.2 -4.743,-7.855 5.121,-3.082 1.251,2.071 -3.076,1.854 0.469,0.776 3.006,-1.812 1.254,2.073 -3.006,1.811 0.521,0.856 3.067,-1.849 1.251,2.071 z"
           id="path144" />
        <path
           style="fill:#fcd116"
           inkscape:connector-curvature="0"
           d="m 226.65,92.914 -2.104,-2.259 -0.794,0.33 1.099,2.668 -2.203,0.912 -3.498,-8.482 3.885,-1.604 c 1.699,-0.701 3.164,0.243 3.817,1.83 0.606,1.463 0.196,2.538 -0.249,3.112 l 2.561,2.452 z m -2.039,-5.692 c -0.188,-0.455 -0.621,-0.515 -0.993,-0.361 l -1.345,0.555 0.557,1.334 1.336,-0.555 c 0.375,-0.15 0.645,-0.502 0.445,-0.973 z"
           id="path146" />
        <path
           style="fill:#fcd116"
           inkscape:connector-curvature="0"
           d="m 236.529,89.894 -1.729,-2.561 -0.832,0.198 0.665,2.812 -2.317,0.552 -2.121,-8.925 4.09,-0.968 c 1.793,-0.423 3.091,0.738 3.486,2.409 0.36,1.542 -0.211,2.537 -0.738,3.032 l 2.139,2.827 z m -1.119,-5.939 c -0.111,-0.483 -0.536,-0.609 -0.926,-0.516 l -1.418,0.332 0.334,1.407 1.418,-0.337 c 0.393,-0.091 0.709,-0.392 0.592,-0.886 z"
           id="path148" />
        <path
           style="fill:#fcd116"
           inkscape:connector-curvature="0"
           d="m 247.674,88.395 -0.363,-1.05 -2.824,0.205 -0.208,1.091 -2.692,0.197 2.232,-9.356 2.988,-0.222 3.565,8.938 z m -2.171,-6.305 -0.56,3.004 1.556,-0.114 z"
           id="path150" />
        <path
           style="fill:#fcd116"
           inkscape:connector-curvature="0"
           d="m 263.693,89.576 -2.065,-5.078 -0.794,4.577 -2.353,-0.407 1.567,-9.036 2.42,0.42 1.957,4.752 0.744,-4.282 2.353,0.409 -1.573,9.035 z"
           id="path152" />
        <path
           style="fill:#fcd116"
           inkscape:connector-curvature="0"
           d="m 270.607,86.429 c 0.949,-2.654 3.369,-3.833 5.66,-3.01 2.297,0.821 3.404,3.265 2.452,5.92 -0.952,2.654 -3.375,3.833 -5.669,3.01 -2.284,-0.822 -3.395,-3.268 -2.443,-5.92 z m 5.836,2.092 c 0.434,-1.202 0.07,-2.409 -1.002,-2.801 -1.081,-0.386 -2.127,0.322 -2.561,1.524 -0.434,1.202 -0.076,2.412 1.002,2.801 1.079,0.386 2.128,-0.319 2.561,-1.524 z"
           id="path154" />
        <path
           style="fill:#fcd116"
           inkscape:connector-curvature="0"
           d="m 281.62,95.938 1.954,-9.424 2.361,1.322 -1.541,6.219 4.506,-4.558 2.355,1.322 -7.02,6.583 z"
           id="path156" />
        <path
           style="fill:#fcd116"
           inkscape:connector-curvature="0"
           d="m 292.768,103.41 0.445,-1.018 -2.227,-1.754 -0.888,0.666 -2.124,-1.676 7.975,-5.396 2.35,1.855 -3.416,8.997 z m 2.671,-6.116 -2.449,1.834 1.225,0.965 z"
           id="path158" />
      </g>
    </g>
    <g
       id="g200"
       transform="matrix(1.0000133,0,0,0.99979067,418.23245,-99.615725)">
      <path
         inkscape:connector-curvature="0"
         d="m 203.682,206.857 1.658,1.4 0.463,-0.565 c 0.325,-0.375 0.768,-0.916 0.984,-1.206 l 0.873,0.731 c -0.258,0.287 -0.727,0.8 -1.031,1.165 l -2.027,2.407 c -0.287,0.346 -0.63,0.784 -0.779,0.98 l -0.873,-0.729 c 0.176,-0.182 0.542,-0.592 0.838,-0.946 l 0.885,-1.051 -1.661,-1.399 -0.891,1.06 c -0.296,0.34 -0.642,0.776 -0.788,0.973 l -0.861,-0.727 c 0.164,-0.179 0.539,-0.592 0.832,-0.945 l 2.016,-2.398 c 0.401,-0.468 0.838,-1.019 0.979,-1.206 l 0.861,0.727 c -0.161,0.169 -0.615,0.696 -1.014,1.171 z"
         id="path164" />
      <path
         inkscape:connector-curvature="0"
         d="m 207.769,214.654 c 0.094,-0.176 0.208,-0.374 0.343,-0.652 l 0.293,-0.595 -1.225,-0.86 -0.68,0.409 c -0.316,0.193 -0.489,0.311 -0.604,0.396 l -0.979,-0.682 c 0.375,-0.167 0.768,-0.404 1.277,-0.721 l 4.421,-2.559 1.333,0.925 c 0.396,0.281 0.744,0.498 0.967,0.633 l -0.627,0.91 c -0.173,-0.155 -0.398,-0.319 -0.797,-0.597 l -0.712,-0.501 -0.653,1.379 0.604,0.425 c 0.396,0.278 0.647,0.436 0.844,0.559 l -0.621,0.885 c -0.158,-0.126 -0.363,-0.278 -0.694,-0.513 l -0.571,-0.401 -0.577,1.233 0.577,0.395 c 0.404,0.281 0.686,0.472 0.861,0.571 l -0.615,0.907 c -0.167,-0.135 -0.419,-0.324 -0.823,-0.611 z m 0.313,-2.734 0.768,0.533 0.703,-1.455 z"
         id="path166" />
      <path
         inkscape:connector-curvature="0"
         d="m 214.463,217.682 c 0.419,0.229 0.882,0.319 1.33,0.176 l -0.683,1.188 c -0.419,-0.134 -0.721,-0.157 -1.269,-0.474 -1.383,-0.791 -1.676,-2.548 -0.826,-4.029 0.844,-1.47 2.505,-2.107 3.885,-1.32 0.562,0.319 0.721,0.571 1.02,0.806 l -0.7,1.227 c -0.097,-0.46 -0.384,-0.812 -0.788,-1.039 -0.844,-0.48 -1.937,-0.091 -2.479,0.86 -0.548,0.959 -0.343,2.113 0.51,2.605 z"
         id="path168" />
      <path
         inkscape:connector-curvature="0"
         d="m 220.094,217.992 c 0.486,0.226 0.662,0.885 0.393,1.446 -0.27,0.571 -0.873,0.855 -1.368,0.621 -0.495,-0.231 -0.671,-0.879 -0.401,-1.449 0.26,-0.565 0.884,-0.849 1.376,-0.618 z"
         id="path170" />
      <path
         inkscape:connector-curvature="0"
         d="m 227.23,218.057 c 0.48,0.182 1.046,0.369 1.26,0.431 l -0.387,1.039 c -0.205,-0.1 -0.75,-0.316 -1.23,-0.504 l -0.311,-0.11 c -0.117,0.298 -0.27,0.705 -0.393,1.036 l -0.791,2.107 c -0.205,0.554 -0.439,1.21 -0.513,1.464 l -1.075,-0.4 c 0.111,-0.246 0.366,-0.894 0.574,-1.443 l 0.788,-2.108 c 0.123,-0.328 0.272,-0.734 0.366,-1.042 l -0.305,-0.117 c -0.478,-0.176 -1.025,-0.363 -1.239,-0.428 l 0.384,-1.03 c 0.199,0.088 0.738,0.311 1.213,0.485 z"
         id="path172" />
      <path
         inkscape:connector-curvature="0"
         d="m 230.453,223.704 c -0.164,0.565 -0.346,1.239 -0.41,1.499 l -1.084,-0.321 c 0.088,-0.252 0.305,-0.917 0.469,-1.473 l 0.803,-2.729 c 0.164,-0.567 0.346,-1.247 0.407,-1.499 l 1.087,0.319 c -0.091,0.243 -0.305,0.917 -0.469,1.481 z"
         id="path174" />
      <path
         inkscape:connector-curvature="0"
         d="m 233.471,224.51 0.562,-2.559 c 0.129,-0.58 0.313,-1.479 0.349,-1.733 l 1.477,0.315 c 1.175,0.258 1.438,1.072 1.295,1.757 -0.114,0.545 -0.46,0.896 -0.847,1.002 0.416,0.292 0.768,0.901 0.595,1.687 -0.208,0.948 -1.02,1.647 -2.271,1.373 l -1.521,-0.325 c 0.074,-0.258 0.238,-0.938 0.361,-1.517 z m 1.705,-0.838 -0.404,-0.085 -0.366,1.701 0.349,0.07 c 0.545,0.123 0.976,-0.097 1.093,-0.644 0.119,-0.544 -0.174,-0.931 -0.672,-1.042 z m -0.211,-0.978 0.352,0.076 c 0.357,0.076 0.683,-0.1 0.779,-0.533 0.088,-0.415 -0.146,-0.731 -0.551,-0.825 l -0.287,-0.062 z"
         id="path176" />
      <path
         inkscape:connector-curvature="0"
         d="m 240.678,225.851 c -0.088,0.58 -0.173,1.271 -0.196,1.537 l -1.116,-0.158 c 0.053,-0.27 0.164,-0.951 0.249,-1.537 l 0.404,-2.811 c 0.085,-0.586 0.173,-1.279 0.196,-1.543 l 1.119,0.167 c -0.056,0.255 -0.17,0.951 -0.258,1.54 z"
         id="path178" />
      <path
         inkscape:connector-curvature="0"
         d="m 244.926,224.583 c 0.545,0.041 0.935,0.594 0.879,1.221 -0.05,0.627 -0.521,1.101 -1.063,1.06 -0.548,-0.041 -0.94,-0.585 -0.891,-1.218 0.052,-0.622 0.53,-1.107 1.075,-1.063 z"
         id="path180" />
      <path
         inkscape:connector-curvature="0"
         d="m 248.84,228.107 c 0.021,-0.266 0.026,-0.963 0.026,-1.549 l -0.032,-2.837 c 0,-0.591 -0.023,-1.297 -0.047,-1.555 l 1.781,-0.023 c 1.412,-0.012 2.575,1.31 2.587,2.948 0.021,1.64 -1.128,2.989 -2.531,3.001 z m 1.107,-1.03 0.583,-0.009 c 0.873,-0.006 1.562,-0.907 1.55,-1.962 -0.012,-1.048 -0.709,-1.938 -1.588,-1.938 l -0.574,0.006 z"
         id="path182" />
      <path
         inkscape:connector-curvature="0"
         d="m 258.068,221.67 c 1.544,-0.161 2.848,1.089 3.018,2.781 0.182,1.692 -0.838,3.191 -2.385,3.35 -1.529,0.152 -2.839,-1.099 -3.018,-2.791 -0.166,-1.7 0.862,-3.194 2.385,-3.34 z m 0.522,5.07 c 0.92,-0.088 1.535,-1.065 1.418,-2.178 -0.114,-1.118 -0.914,-1.938 -1.828,-1.848 -0.911,0.097 -1.523,1.068 -1.406,2.182 0.108,1.113 0.908,1.938 1.816,1.844 z"
         id="path184" />
      <path
         inkscape:connector-curvature="0"
         d="m 265.422,226.699 -1.069,0.223 c -0.032,-0.24 -0.138,-0.787 -0.226,-1.235 l -0.642,-3.039 c -0.108,-0.516 -0.272,-1.206 -0.378,-1.663 l 0.223,-0.047 c 0.404,0.325 0.633,0.492 0.92,0.715 l 2.789,2.216 -0.404,-1.915 c -0.094,-0.488 -0.249,-1.168 -0.334,-1.52 l 1.063,-0.219 c 0.062,0.371 0.185,1.062 0.281,1.525 l 0.647,3.092 c 0.079,0.351 0.188,0.813 0.316,1.3 l -0.22,0.047 c -0.281,-0.24 -0.513,-0.437 -0.8,-0.656 l -2.924,-2.31 0.469,2.269 c 0.09,0.439 0.219,0.981 0.289,1.217 z"
         id="path186" />
      <path
         inkscape:connector-curvature="0"
         d="m 274.82,224.234 c -0.117,-0.176 -0.296,-0.41 -0.466,-0.63 l -0.413,-0.541 -1.693,0.529 -0.035,0.659 c -0.012,0.325 -0.018,0.562 -0.012,0.808 l -1.087,0.34 c 0.067,-0.421 0.129,-0.896 0.152,-1.435 l 0.343,-5.059 0.287,-0.094 3.229,3.94 c 0.34,0.416 0.691,0.796 0.976,1.077 z m -2.472,-3.291 -0.064,1.572 1.008,-0.313 z"
         id="path188" />
      <path
         inkscape:connector-curvature="0"
         d="m 278.289,219.444 c 0.504,-0.208 1.102,0.111 1.342,0.688 0.237,0.585 0.029,1.218 -0.469,1.426 -0.504,0.211 -1.107,-0.094 -1.342,-0.683 -0.24,-0.575 -0.035,-1.22 0.469,-1.431 z"
         id="path190" />
      <path
         inkscape:connector-curvature="0"
         d="m 282.73,219.371 -1.271,-2.538 c -0.27,-0.539 -0.589,-1.153 -0.718,-1.382 l 1.444,-0.724 c 0.451,-0.226 0.902,-0.468 1.107,-0.585 l 0.492,0.983 c -0.217,0.085 -0.686,0.308 -1.143,0.53 l -0.451,0.226 0.68,1.361 0.393,-0.193 c 0.439,-0.22 0.785,-0.41 0.976,-0.527 l 0.495,0.983 c -0.214,0.079 -0.568,0.249 -1.014,0.469 l -0.387,0.188 0.363,0.727 c 0.258,0.526 0.583,1.142 0.715,1.37 l -1.02,0.515 c -0.098,-0.247 -0.397,-0.878 -0.661,-1.403 z"
         id="path192" />
      <path
         inkscape:connector-curvature="0"
         d="m 286.943,213.302 0.665,1.106 0.366,-0.216 c 0.434,-0.258 0.85,-0.527 1.037,-0.662 l 0.568,0.945 c -0.208,0.103 -0.645,0.343 -1.072,0.595 l -0.366,0.223 0.8,1.32 0.463,-0.278 c 0.439,-0.264 0.896,-0.544 1.081,-0.679 l 0.565,0.942 c -0.199,0.105 -0.674,0.36 -1.113,0.63 l -1.415,0.846 c -0.231,-0.416 -0.571,-1.013 -0.776,-1.347 l -1.465,-2.441 c -0.311,-0.51 -0.677,-1.09 -0.82,-1.304 l 1.365,-0.822 c 0.434,-0.258 0.885,-0.557 1.066,-0.688 l 0.574,0.952 c -0.208,0.094 -0.68,0.363 -1.11,0.626 z"
         id="path194" />
      <path
         inkscape:connector-curvature="0"
         d="m 293.523,213.067 c 0.343,0.475 0.747,1.022 0.92,1.225 l -0.926,0.67 c -0.141,-0.234 -0.524,-0.787 -0.867,-1.273 l -1.664,-2.316 c -0.349,-0.474 -0.773,-1.036 -0.938,-1.238 l 1.236,-0.89 c 0.993,-0.715 1.995,-0.469 2.625,0.404 0.545,0.761 0.439,1.423 0.12,1.896 0.923,0.281 1.972,0.788 2.897,0.97 l -1.146,0.822 c -0.542,-0.188 -1.69,-0.685 -2.379,-1.098 -0.038,0.038 -0.073,0.067 -0.108,0.091 l -0.193,0.141 z m -0.955,-1.323 0.337,-0.237 c 0.39,-0.28 0.445,-0.781 0.144,-1.197 -0.278,-0.381 -0.768,-0.564 -1.23,-0.234 l -0.299,0.211 z"
         id="path196" />
      <path
         inkscape:connector-curvature="0"
         d="m 296.649,204.858 c 1.169,-1.02 2.962,-0.75 4.078,0.529 1.125,1.286 1.148,3.095 -0.021,4.114 -1.154,1.004 -2.953,0.743 -4.069,-0.539 -1.121,-1.281 -1.142,-3.091 0.012,-4.104 z m 3.367,3.841 c 0.686,-0.603 0.633,-1.751 -0.105,-2.597 -0.738,-0.843 -1.869,-1.051 -2.561,-0.442 -0.691,0.601 -0.633,1.745 0.105,2.589 0.738,0.843 1.869,1.054 2.561,0.45 z"
         id="path198" />
    </g>
    <g
       id="g244"
       transform="translate(418.41316,-99.663094)">
      <path
         style="fill:#c49a6c"
         inkscape:connector-curvature="0"
         d="m 221.799,192.567 c 0,0 0.58,1.722 1.453,1.675 0.873,-0.047 2.936,0.529 3.009,0.896 0.073,0.36 -0.407,1.338 -2.235,1.411 -1.816,0.073 -2.689,-1.312 -4.632,-1.265 -1.942,0.053 -1.263,-1.569 -1.263,-1.569 z"
         id="path202" />
      <path
         style="fill:#e8ba8b"
         inkscape:connector-curvature="0"
         d="m 202.445,192.567 c 0,0 -1.025,-2.688 -2.766,-2.056 -1.74,0.633 -1.453,3.795 -1.857,4.192 -0.404,0.407 -2.417,0.346 -2.76,0.979 -0.346,0.632 -1.154,1.669 -0.694,1.953 0.466,0.289 1.327,0 2.188,-0.404 0.867,-0.401 3.105,-1.034 3.744,-0.457 0.628,0.58 2.145,-4.207 2.145,-4.207 z"
         id="path204" />
      <path
         style="fill:#002b7f"
         inkscape:connector-curvature="0"
         d="m 214.1,192.415 c -3.164,0.287 -6.325,0.088 -9.293,-0.978 l -2.335,0.421 c 3.539,2.32 7.585,2.422 11.628,0.557 z"
         id="path206" />
      <path
         style="fill:#002b7f"
         inkscape:connector-curvature="0"
         d="m 204.783,182.068 c -1.629,0 -3.138,0.357 -4.67,0.799 -0.012,0.349 -0.006,1.154 0.164,2.146 1.049,-1.539 2.508,-2.699 4.506,-2.945 z"
         id="path208" />
      <path
         style="fill:#002b7f"
         inkscape:connector-curvature="0"
         d="m 200.301,180.687 c 3.097,1.036 3.797,-1.722 6.205,-2.416 -2.76,-1.034 -3.445,2.064 -6.205,2.416 z"
         id="path210" />
      <path
         style="fill:#4080bb"
         inkscape:connector-curvature="0"
         d="m 211.34,184.132 c 3.1,3.106 4.14,7.244 5.865,11.387 0.167,0.328 0.574,0.498 1.063,0.627 0.653,-0.604 1.093,-1.447 1.181,-2.612 l 0.393,-0.141 c -2.104,-3.595 -3.355,-9.574 -8.502,-9.261 z"
         id="path212" />
      <path
         style="fill:#0055a4"
         inkscape:connector-curvature="0"
         d="m 216.174,172.67 c 0,0 2.842,1.725 4.91,1.294 2.08,-0.434 5.18,-2.242 5.18,-2.242 v -4.056 c 0,0 -0.334,-0.073 -0.809,-0.097 -0.8,0.706 -0.791,2.278 -2.039,2.771 -0.346,0 0,-1.031 -0.686,-1.031 -0.691,0 -0.349,1.031 -1.043,1.031 0,-1.031 -0.686,-1.377 -1.377,-1.377 -3.19,0.319 -6.674,-1.136 -7.998,-3.814 l -7.187,-3.077 c 0,0 -3.12,2.945 -5.379,6.228 -0.829,2.117 -1.187,4.277 0.202,6.526 0.346,0 1.037,0 1.377,0 -1.031,0.69 -2.068,1.042 -2.408,2.418 -0.554,1.912 0.844,2.951 2.476,3.139 1.913,-0.86 2.76,-2.983 5.109,-2.105 -1.702,0.486 -2.546,2 -3.987,2.489 -0.322,0.646 -0.721,1.238 -1.172,1.774 1.113,-0.275 2.238,-0.466 3.439,-0.466 -2.004,0.246 -3.457,1.408 -4.509,2.942 0.369,2.081 1.491,5.004 4.849,6.365 l -0.316,0.062 c 2.965,1.065 6.129,1.265 9.293,0.978 -4.049,1.868 -8.089,1.763 -11.628,-0.56 l -0.19,0.038 c 0,0 -1.556,3.965 -2.332,5.177 -0.773,1.203 1.465,0.948 3.023,0.519 1.553,-0.437 5.602,-0.267 7.767,-0.085 1.623,0.129 5.552,0.5 7.532,-1.355 -0.486,-0.129 -0.896,-0.299 -1.061,-0.627 -1.729,-4.143 -2.766,-8.28 -5.868,-11.387 5.147,-0.315 6.398,5.663 8.499,9.261 l 2.367,-0.811 c 0,0 -1.898,-3.883 -1.898,-4.655 0,-0.776 3.448,-8.368 0.949,-11.898 -1.377,-2.067 -7.245,-0.17 -7.245,-0.17 0,0 2.16,-1.911 2.16,-3.199 z"
         id="path214" />
      <path
         style="fill:#4080bb"
         inkscape:connector-curvature="0"
         d="m 200.301,180.687 c 0.404,-0.05 0.768,-0.164 1.096,-0.311 -1.632,-0.188 -3.029,-1.227 -2.479,-3.139 0.34,-1.376 1.383,-1.725 2.414,-2.418 -0.343,0 -1.031,0 -1.383,0 -1.383,-2.249 -1.031,-4.409 -0.199,-6.526 -1.33,1.924 -2.361,3.952 -2.297,5.58 0,1.985 0.776,1.031 0.776,1.031 0,0 -1.471,2.588 -1.38,3.539 0.088,0.946 1.38,0.431 1.38,0.431 0,0 -1.38,3.106 1.898,3.797 0,0 -0.006,0.07 -0.012,0.193 0.41,-0.117 0.817,-0.231 1.233,-0.33 0.451,-0.536 0.85,-1.128 1.172,-1.774 -0.602,0.208 -1.311,0.231 -2.219,-0.073 z"
         id="path216" />
      <path
         style="fill:#4080bb"
         inkscape:connector-curvature="0"
         d="m 223.064,168.354 c 0,0 -2.496,-0.17 -3.1,0.179 0,0 -2.502,-0.688 -3.19,-1.467 l -4.462,-1.921 c 1.324,2.682 4.808,4.137 7.998,3.812 0.688,0 1.377,0.352 1.377,1.383 0.691,0 0.352,-1.031 1.043,-1.031 0.686,0 0.34,1.031 0.686,1.031 1.248,-0.498 1.239,-2.064 2.039,-2.771 -0.738,-0.044 -1.802,0.047 -2.391,0.785 z"
         id="path218" />
      <path
         style="fill:#002b7f"
         inkscape:connector-curvature="0"
         d="m 217.551,178.271 c -1.04,3.452 -4.137,4.144 -6.557,5.861 3.996,1.713 6.58,5.561 8.528,9.378 l 0.765,-0.264 c -2.092,-4.713 -3.665,-9.705 -2.736,-14.975 z"
         id="path220" />
      <path
         style="fill:#002b7f"
         inkscape:connector-curvature="0"
         d="m 220.656,172.412 c -1.729,-0.346 -2.417,-2.764 -4.482,-1.728 -0.352,0.343 -0.352,1.037 -0.691,1.728 0.34,-0.69 -0.349,-1.385 -0.686,-1.728 -1.729,-0.345 -5.18,-1.376 -4.148,1.382 0.349,1.707 2.045,2.741 3.753,3.432 0.618,-0.611 1.772,-1.88 1.772,-2.825 0,0 2.845,1.725 4.916,1.291 2.074,-0.431 5.177,-2.242 5.177,-2.242 v -1.786 c -2.168,0.225 -3.493,3.08 -5.611,2.476 z"
         id="path222" />
      <path
         style="fill:#ffffff"
         inkscape:connector-curvature="0"
         d="m 198.654,165.685 c 0,1.382 9.75,-1.207 13.547,5.521 0.604,1.552 2.244,0.085 2.42,-0.948 0.176,-1.037 0.905,-2.945 1.828,-3.326 0,0 1.014,-0.984 -1.746,-2.963 -2.754,-1.985 -8.971,-4.57 -12.164,-0.688 0,-0.007 -3.885,0.248 -3.885,2.404 z"
         id="path224" />
      <path
         style="fill:#e8ba8b"
         inkscape:connector-curvature="0"
         d="m 205.902,163.096 c 0,0 5.865,1.037 7.33,5.522 0.949,-3.543 -1.116,-5.861 -0.598,-6.986 0,0 1.031,-0.17 1.723,-1.121 0,0 1.811,0.519 1.38,-1.812 0,0 0.601,-0.685 0.437,-1.634 0,0 0.855,-0.433 0.855,-0.69 0,-0.257 -1.898,-1.64 -1.898,-2.413 0,-0.778 -0.17,-1.899 -0.17,-1.899 0,0 -2.068,-1.895 -3.018,0 -0.949,1.899 -6.044,6.122 -6.044,6.122 0,0 1.21,2.153 0.003,4.911 z"
         id="path226" />
      <path
         style="fill:#002b7f"
         inkscape:connector-curvature="0"
         d="m 208.574,176.892 c -3.319,-0.605 -5.057,-3.844 -7.061,-6.73 -0.278,2.488 3.847,7.188 7.638,8.859 3.911,1.722 7.761,3.502 8.798,3.68 1.04,0.173 5.637,0.404 6.211,0.34 0.141,-0.012 0.281,-0.305 0.404,-0.731 -1.529,-0.24 -3.029,-0.281 -4.26,-0.586 -4.13,-1.729 -6.89,-4.147 -11.73,-4.832 z"
         id="path228" />
      <path
         style="fill:#0055a4"
         inkscape:connector-curvature="0"
         d="m 221.664,177.812 c -1.939,0.477 -3.99,0.547 -5.842,0.808 0.352,-0.685 0.688,-1.725 0,-2.418 -3.46,-1.569 -4.916,-4.579 -6.188,-7.709 -2.092,-0.812 -7.143,-2.325 -8.068,1.438 -0.018,0.073 -0.029,0.152 -0.047,0.231 2.004,2.887 3.738,6.125 7.061,6.73 4.834,0.686 7.594,3.104 11.73,4.831 1.23,0.305 2.73,0.34 4.26,0.586 0.393,-1.335 0.686,-4.041 0.686,-4.041 z"
         id="path230" />
      <path
         style="fill:#4080bb"
         inkscape:connector-curvature="0"
         d="m 215.822,176.201 c 0.686,0.69 0.346,1.728 0,2.418 1.846,-0.261 3.899,-0.328 5.842,-0.808 l -0.899,-0.111 c 0,0 -6.208,-3.968 -6.668,-4.193 -0.463,-0.23 -2.3,-4.143 -4.14,-4.886 -0.097,-0.044 -0.205,-0.085 -0.328,-0.129 1.277,3.127 2.73,6.137 6.193,7.709 z"
         id="path232" />
      <path
         style="fill:#754c29"
         inkscape:connector-curvature="0"
         d="m 204.895,156.204 c 0.023,0.117 0.07,0.234 0.158,0.343 0.478,0.632 -0.176,1.555 -0.176,1.555 0,0 -0.85,1.449 1.482,1.534 0,0 2.411,-1.651 4.096,-0.384 0,0 0.076,-0.806 -0.498,-1.268 0,0 0.92,-1.093 1.383,-1.663 0.457,-0.577 -0.521,-1.669 0,-2.305 0.076,-0.097 0.135,-0.196 0.185,-0.295 -2.482,0.908 -4.41,3.54 -6.63,2.483 z"
         id="path234" />
      <path
         style="fill:#8b5e3c"
         inkscape:connector-curvature="0"
         d="m 211.469,150.799 c 0,0 -1.91,-0.4 -2.314,-0.057 0,0 -1.611,-0.057 -2.648,0.865 -1.031,0.916 -1.834,2.132 -1.263,3.423 0,0 -0.46,0.605 -0.349,1.174 2.221,1.062 4.148,-1.569 6.63,-2.477 0.237,-0.521 0.038,-1.002 0.208,-1.307 0.211,-0.356 0.647,-0.468 1.307,-0.239 0.662,0.228 1.922,-0.117 1.922,-0.117 0,0 -1.753,-2.589 -3.493,-1.265 z"
         id="path236" />
      <path
         style="fill:#c49a6c"
         inkscape:connector-curvature="0"
         d="m 211.756,155.186 c 0,0 0.908,-0.176 1.201,-0.562 0.296,-0.393 0.911,-0.624 1.283,-0.311 0,0 -0.255,0.627 -0.987,0.823 l 0.108,0.157 c 0,0 1.424,-0.471 1.245,-1.227 -0.179,-0.755 -0.905,-0.802 -1.415,-0.506 -0.515,0.295 -0.351,1.119 -1.435,1.626 z"
         id="path238" />
      <path
         style="fill:#c49a6c"
         inkscape:connector-curvature="0"
         d="m 215.737,158.704 c 0,0 0.249,-0.296 0.384,-0.755 -0.428,-0.094 -1.154,-0.167 -1.351,0.43 0,0 0.565,0.138 0.973,0.343 -0.006,-0.006 -0.006,-0.012 -0.006,-0.018 z"
         id="path240" />
      <path
         style="fill:#c49a6c"
         inkscape:connector-curvature="0"
         d="m 211.826,160.754 c 0,0 0.094,0.635 0.773,0.995 0.012,-0.047 0.018,-0.079 0.035,-0.117 0,0 0.457,-0.079 0.97,-0.409 -0.609,-0.053 -1.438,-0.182 -1.778,-0.469 z"
         id="path242" />
    </g>
    <g
       id="g344"
       transform="translate(418.41316,-99.663094)">
      <path
         style="fill:#d94040"
         inkscape:connector-curvature="0"
         d="m 223.445,149.995 c 5.666,4.769 12.621,8.253 15.521,14.901 l -2.66,-8.78 -0.715,-1.452 c -5.379,-4.051 -10.389,-9.378 -12.779,-15.589 l -0.867,3.416 c 0,0 -0.621,1.836 -0.785,4.514 0.566,1.117 1.316,2.141 2.285,2.99 z"
         id="path246" />
      <path
         style="fill:#c8102e"
         inkscape:connector-curvature="0"
         d="m 223.445,149.995 c -0.97,-0.85 -1.72,-1.873 -2.285,-2.99 -0.223,3.794 0.466,9.284 5.145,13.679 0,0 -0.229,1.446 -0.346,3.455 1.146,-0.636 2.344,-0.838 3.316,-0.354 2.824,1.285 6.609,2.187 9.785,1.42 l -0.094,-0.311 c -2.9,-6.646 -9.855,-10.13 -15.521,-14.899 z"
         id="path248" />
      <path
         style="fill:#b20808"
         inkscape:connector-curvature="0"
         d="m 235.595,154.664 -5.971,-12.173 -1.04,-7.842 h -4.658 l -1.113,4.426 c 2.39,6.208 7.4,11.538 12.782,15.589 z"
         id="path250" />
      <path
         style="fill:#c8102e"
         inkscape:connector-curvature="0"
         d="m 240.382,185.792 c 0.896,2.966 1.321,6.037 0.63,9.381 -0.346,0.346 -1.38,0.686 -1.729,0.346 -3.791,-3.798 -1.38,-10.007 -5.171,-13.45 -0.694,1.376 -0.694,2.415 -0.349,3.794 1.037,3.795 3.108,7.935 0.691,11.378 -0.343,0.346 -1.723,0.346 -2.071,-0.343 -2.654,-6.181 -1.787,-15.897 -7.503,-19.883 -0.885,0.668 -4.749,4.266 1.031,12.9 0,0 -1.031,3.882 -0.855,4.312 0.17,0.428 1.811,1.549 1.811,1.549 0,0 -0.34,1.183 -0.231,2.26 0.671,0.094 1.339,0.176 1.992,0.24 5.575,0.618 10.872,-1.537 16.392,-0.983 l -0.24,-4.693 c -1.931,-1.848 -3.37,-4.24 -4.398,-6.808 z"
         id="path252" />
      <path
         style="fill:#d94040"
         inkscape:connector-curvature="0"
         d="m 245.017,197.287 c -5.52,-0.551 -10.813,1.604 -16.392,0.986 -0.653,-0.067 -1.318,-0.146 -1.992,-0.243 0.064,0.65 0.287,1.244 0.832,1.54 0.428,0.223 0.832,0.565 1.248,0.929 5.294,-1.848 11.244,-1.733 16.559,-0.448 0.053,-0.516 -0.012,-1.106 -0.205,-1.786 z"
         id="path254" />
      <path
         style="fill:#c8102e"
         inkscape:connector-curvature="0"
         d="m 228.713,200.496 c 1.011,0.884 2.016,1.902 3.234,1.663 1.729,-0.352 3.193,-1.225 6.387,0.035 2.725,1.071 6.668,0.834 6.938,-2.149 -5.315,-1.282 -11.265,-1.397 -16.559,0.451 z"
         id="path256" />
      <path
         style="fill:#b20808"
         inkscape:connector-curvature="0"
         d="m 232.384,196.895 c 0.349,0.691 1.729,0.691 2.071,0.343 2.417,-3.446 0.346,-7.583 -0.691,-11.378 -0.346,-1.379 -0.346,-2.415 0.349,-3.797 3.791,3.446 1.38,9.658 5.171,13.453 0.349,0.34 1.383,0 1.729,-0.349 1.726,-8.273 -3.451,-14.832 -5.52,-22.415 -0.58,-2.887 -0.434,-5.624 4.377,-4.887 l -0.809,-2.661 c -3.176,0.761 -6.958,-0.135 -9.785,-1.423 -0.973,-0.483 -2.174,-0.281 -3.316,0.354 -0.105,2.005 -0.105,4.559 0.346,6.801 0,0 -1.942,2.419 -1.254,5.949 0,0 -0.064,0.041 -0.173,0.12 5.718,3.992 4.85,13.706 7.505,19.89 z"
         id="path258" />
      <path
         style="fill:#c49a6c"
         inkscape:connector-curvature="0"
         d="m 220.311,142.062 c 0,-0.808 -0.129,-1.496 -0.437,-2.065 0,0.058 0,0.111 0,0.171 0,0 -0.384,0.237 -0.987,0.612 0.551,0.264 1.037,0.672 1.424,1.282 z"
         id="path260" />
      <path
         style="fill:#e8ba8b"
         inkscape:connector-curvature="0"
         d="m 239.632,156.889 c 0.688,0.346 1.38,-0.342 1.72,-0.342 2.766,-1.379 2.417,-4.828 0.697,-7.244 0.686,0 1.377,-0.689 1.377,-1.033 0,-5.744 -2.657,-14.14 3.51,-16.181 0.208,-0.479 0.419,-0.804 0.633,-0.933 l -4.066,-2.285 -13.62,-0.863 -4.825,1.381 c 0,0 -1.986,2.583 -1.986,4.568 0,0 -3.17,2.749 -3.193,6.037 0.311,0.572 0.434,1.256 0.434,2.065 -0.381,-0.613 -0.873,-1.019 -1.421,-1.285 -1.837,1.145 -5.716,3.585 -6.946,4.563 -1.641,1.292 -3.363,0.429 -3.967,0.689 -0.604,0.257 -4.57,2.154 -4.57,2.154 0,0 1.811,1.982 3.275,1.206 0,0 1.641,0.689 3.111,-0.174 1.462,-0.86 3.533,-1.725 4.436,-1.811 0.908,-0.084 7.38,-2.846 8.326,-3.016 0.943,-0.172 3.275,-3.032 3.19,-5.315 0,0 1.122,-1.41 1.38,-3.305 0,0 0.604,0.947 0.732,2.845 0.129,1.896 -0.39,8.622 -0.39,8.622 l 0.19,0.882 c 0.381,0.435 0.803,0.831 1.277,1.184 5.602,5.004 9.428,12.017 7.427,18.896 0.343,1.282 2.446,8.859 4.151,11.176 1.263,0.441 2.613,0.62 3.606,0.62 1.014,-0.173 1.611,-0.998 2.124,-2.011 -0.108,-1.856 -0.176,-4.287 -0.255,-6.852 -1.351,-1.619 -2.259,-3.684 -2.909,-5.621 -1.031,-3.098 -2.068,-5.856 -3.448,-8.617 z"
         id="path262" />
      <path
         style="fill:#c49a6c"
         inkscape:connector-curvature="0"
         d="m 246.936,132.089 c -6.167,2.041 -3.51,10.437 -3.51,16.181 0,0.344 -0.688,1.033 -1.377,1.033 1.717,2.416 2.065,5.865 -0.697,7.244 -0.34,0 -1.031,0.688 -1.72,0.342 1.38,2.762 2.417,5.52 3.448,8.623 0.647,1.935 1.556,4.002 2.906,5.621 -0.158,-5.234 -0.384,-11.059 -1.178,-13.898 -1.242,-4.41 0.305,-20.923 2.128,-25.146 z"
         id="path264" />
      <path
         style="fill:#c49a6c"
         inkscape:connector-curvature="0"
         d="m 246.174,189.435 c 0.088,-1.868 0.797,-5.521 0.27,-9.179 -0.076,-0.583 -0.146,-1.361 -0.199,-2.269 -0.513,1.013 -1.11,1.838 -2.124,2.011 -0.993,0 -2.344,-0.179 -3.606,-0.62 0.006,0.006 0.012,0.012 0.012,0.018 0,0 0.902,6.467 2.979,9.57 0,0 -0.302,1.241 -0.22,2.138 0.308,-0.656 0.656,-1.271 1.178,-1.798 0.632,-0.317 1.191,-0.194 1.71,0.129 z"
         id="path266" />
      <path
         style="fill:#e8ba8b"
         inkscape:connector-curvature="0"
         d="m 246.186,190.166 c -0.023,-0.192 -0.023,-0.441 -0.012,-0.731 -0.521,-0.319 -1.078,-0.442 -1.717,-0.129 -0.521,0.527 -0.873,1.142 -1.178,1.798 0.029,0.287 0.097,0.541 0.22,0.708 0.53,0.686 0,5.689 0,5.689 0,0 0.185,1.981 5.704,-0.437 0.006,0 -2.845,-5.427 -3.017,-6.898 z"
         id="path268" />
      <path
         style="fill:#c8102e"
         inkscape:connector-curvature="0"
         d="m 244.275,127.937 c -5.385,2.162 -11.338,3.784 -14.982,-1.392 -2.988,-0.021 -4.236,2.85 -4.236,2.85 6.855,-0.521 11.391,2.238 11.391,2.238 5.698,-2.155 11.121,-0.474 11.121,-0.474 -0.557,-1.928 -2.145,-2.817 -3.294,-3.222 z"
         id="path270" />
      <path
         style="fill:#d94040"
         inkscape:connector-curvature="0"
         d="m 244.275,127.937 c -0.732,-0.252 -1.28,-0.312 -1.28,-0.312 -0.688,-1.121 -0.861,-1.424 -2.716,-1.379 -1.857,0.046 -3.536,-0.3 -6.258,-0.884 -2.719,-0.584 -4.195,1.221 -4.195,1.221 -0.182,-0.022 -0.363,-0.031 -0.533,-0.034 3.645,5.172 9.598,3.55 14.982,1.388 z"
         id="path272" />
      <path
         style="fill:#c49a6c"
         inkscape:connector-curvature="0"
         d="m 240.49,124.531 c 0.229,-1.287 -0.756,-2.194 -0.756,-2.194 l -4.324,-2.097 -1.512,1.364 c 0,0 0.035,0.713 -0.076,1.604 2.039,1.12 4.318,1.801 6.647,2.149 -0.026,-0.259 -0.026,-0.542 0.021,-0.826 z"
         id="path274" />
      <path
         style="fill:#fcd116"
         inkscape:connector-curvature="0"
         d="m 240.522,115.449 c 0,0 -5.464,-0.347 -9.103,2.648 0,0 0.483,2.151 2.402,3.556 0,0 -0.111,0.438 -0.932,0.581 0,0 0.281,0.66 0.958,0.74 l 4.28,-3.765 z"
         id="path276" />
      <path
         style="fill:#e8ba8b"
         inkscape:connector-curvature="0"
         d="m 233.816,123.205 c -0.111,0.857 -0.363,1.881 -0.929,2.588 l 2.968,4.154 5.133,-3.004 c 0,0 -0.434,-0.679 -0.527,-1.585 -2.32,-0.351 -4.603,-1.032 -6.645,-2.153 z"
         id="path278" />
      <path
         style="fill:#e8ba8b"
         inkscape:connector-curvature="0"
         d="m 243.314,115.854 c 0,0 -0.24,2.608 0.938,3.304 0,0 0.164,0.856 -0.721,0.993 0,0 -0.082,1.099 -0.029,1.499 0,0 -0.27,0.374 -0.483,0.4 0,0 -0.079,0.295 -0.313,0.456 0,0 0.158,0.831 0,1.26 -0.164,0.428 -1.154,1.1 -2.016,0.83 -0.855,-0.268 -2.332,-0.966 -3.056,-1.901 0,0 -1.257,-1.311 -1.661,-1.499 -0.404,-0.186 -2.227,-1.766 -1.444,-2.704 0.776,-0.936 2.042,-0.509 2.042,-0.509 0,0 0.56,-1.814 1.629,-2.126 1.071,-0.311 3.31,-0.737 5.114,-0.003 z"
         id="path280" />
      <path
         style="fill:#c49a6c"
         inkscape:connector-curvature="0"
         d="m 242.699,122.507 c 0.24,-0.161 0.316,-0.456 0.316,-0.456 0.214,-0.026 0.483,-0.4 0.483,-0.4 h -1.992 c 0.004,-10e-4 0.185,0.634 1.193,0.856 z"
         id="path282" />
      <path
         style="fill:#c49a6c"
         inkscape:connector-curvature="0"
         d="m 239.717,118.146 c 0,0 -0.58,-0.565 1.084,-1.25 0,0 1.207,-0.202 1.617,0.904 0,0 0,1.017 -1.515,0.498 0,0 0.261,-0.352 0.604,-0.779 0,0 -0.806,-0.792 -1.512,0.677 z"
         id="path284" />
      <g
         id="g296">
        <path
           style="fill:#bcbec0"
           inkscape:connector-curvature="0"
           d="m 239.295,112.023 c 0,0 0.302,-3.578 -3.021,-3.578 -3.319,0 -5.563,1.554 -5.563,1.554 0,0 5.563,2.024 8.584,2.024 z"
           id="path286" />
        <path
           style="fill:#231f20"
           inkscape:connector-curvature="0"
           d="m 243.314,114.954 c -0.659,-2.707 -3.091,-4.721 -6.012,-4.721 -3.419,0 -6.193,2.772 -6.193,6.193 0,0.297 0.029,0.587 0.07,0.87 2.479,-1.719 5.496,-2.727 8.742,-2.727 1.167,10e-4 2.304,0.139 3.393,0.385 z"
           id="path288" />
        <path
           style="fill:#58595b"
           inkscape:connector-curvature="0"
           d="m 236.518,110.293 c -1.6,0.201 -3.003,1.02 -3.987,2.197 -0.185,1.331 -0.141,2.652 0.044,3.954 1.875,-1.019 3.979,-1.669 6.223,-1.831 -0.482,-1.571 -1.164,-3.061 -2.28,-4.32 z"
           id="path290" />
        <path
           style="fill:#414042"
           inkscape:connector-curvature="0"
           d="m 230.863,118.556 c -0.316,0 -0.633,-0.146 -0.835,-0.426 -0.337,-0.462 -0.237,-1.108 0.226,-1.445 2.818,-2.06 6.17,-3.145 9.674,-3.145 1.315,0 2.643,0.158 3.908,0.47 0.56,0.137 0.902,0.695 0.768,1.25 -0.135,0.556 -0.697,0.897 -1.251,0.76 -1.119,-0.273 -2.276,-0.411 -3.425,-0.411 -3.064,0 -5.994,0.95 -8.449,2.746 -0.188,0.134 -0.405,0.201 -0.616,0.201 z"
           id="path292" />
        <path
           style="fill:#ffffff"
           inkscape:connector-curvature="0"
           d="m 236.436,112.577 c 0,0 0.308,-3.576 -3.023,-3.576 -3.316,0 -5.561,1.553 -5.561,1.553 0,0 5.566,2.023 8.584,2.023 z"
           id="path294" />
      </g>
      <path
         style="fill:#b20808"
         inkscape:connector-curvature="0"
         d="m 244.457,172.755 c 1.729,0.343 1.04,2.758 2.42,3.446 1.031,0.345 1.38,-1.382 1.38,-1.722 -3.712,-9.114 -5.774,-18.56 -3.595,-28.335 l -1.16,-1.487 c 0,0 -1.805,27.059 -1.541,32.059 0,0 0.05,0.094 0.161,0.229 1.398,-0.873 2.335,-2.175 2.335,-4.19 z"
         id="path298" />
      <path
         style="fill:#c8102e"
         inkscape:connector-curvature="0"
         d="m 244.776,146.29 -0.114,-0.146 c -2.18,9.775 -0.117,19.221 3.595,28.338 0,0.337 -0.349,2.063 -1.38,1.719 -1.38,-0.688 -0.686,-3.104 -2.42,-3.446 0,2.015 -0.938,3.317 -2.335,4.189 0.29,0.363 0.987,1.046 2.142,0.984 0,0 0.451,3.829 2.309,3.513 0,0 0.656,-2.137 1.857,-3.344 0.885,-0.878 1.307,-3.457 1.33,-5.36 -4.301,-8.072 -5.449,-17.478 -4.984,-26.447 z"
         id="path300" />
      <path
         style="fill:#d94040"
         inkscape:connector-curvature="0"
         d="m 249.76,172.737 c 0.012,-0.703 -0.032,-1.314 -0.123,-1.71 -0.34,-1.461 -4.301,-9.548 -3.785,-23.36 l -1.075,-1.377 c -0.466,8.969 0.682,18.375 4.983,26.447 z"
         id="path302" />
      <path
         style="fill:#c49a6c"
         inkscape:connector-curvature="0"
         d="m 227.898,136.46 c 0.498,0.624 1.271,1.103 2.168,1.251 0.917,0.171 1.828,-0.214 2.405,-0.735 -0.812,0.093 -1.521,0.149 -2.294,0.012 -0.761,-0.13 -1.511,-0.3 -2.279,-0.528 z"
         id="path304" />
      <path
         style="fill:#c49a6c"
         inkscape:connector-curvature="0"
         d="m 237.18,137.407 c 0.724,0.546 1.646,0.918 2.654,0.976 1.014,0.053 2.054,-0.31 2.675,-0.976 -0.905,0.189 -1.72,0.178 -2.628,0.146 -0.586,-0.032 -1.324,-0.074 -2.701,-0.146 z"
         id="path306" />
      <path
         style="fill:#c49a6c"
         inkscape:connector-curvature="0"
         d="m 231.08,135.854 c 0.188,0 0.34,0.136 0.34,0.303 0,0.167 -0.152,0.303 -0.34,0.303 -0.185,0 -0.337,-0.136 -0.337,-0.303 0,-0.167 0.153,-0.303 0.337,-0.303 z"
         id="path308" />
      <ellipse
         style="fill:#c49a6c"
         cx="239.91"
         cy="136.931"
         rx="0.61199999"
         ry="0.47400001"
         id="ellipse310" />
      <path
         style="fill:#c49a6c"
         inkscape:connector-curvature="0"
         d="m 235.938,159.167 c 0.677,-1.317 1.646,-3.074 2.312,-3.742 0,0 -1.679,0.809 -3.492,1.119 0.465,0.854 0.857,1.733 1.18,2.623 z"
         id="path312" />
      <g
         id="g342">
        <path
           style="fill:#c49a6c"
           inkscape:connector-curvature="0"
           d="m 242.57,135.585 c 0.026,0.191 0.059,0.384 0.1,0.572 0.463,2.135 2.25,4.432 3.158,5.487 -0.085,-2.723 -0.697,-6.027 -3.258,-6.059 z"
           id="path314" />
        <path
           style="fill:#e8ba8b"
           inkscape:connector-curvature="0"
           d="m 249.728,144.348 c 0.05,-0.062 0.079,-0.103 0.079,-0.103 0.75,-10.228 -2.933,-13.677 -2.933,-13.677 -3.331,-0.645 -4.652,2.273 -4.304,5.017 2.558,0.035 3.17,3.339 3.252,6.06 0.322,0.371 0.533,0.593 0.533,0.593 -1.318,0.402 -4.43,3.91 -4.43,3.91 0,0 -0.023,-0.006 -0.062,-0.012 0.287,0.646 0.501,1.333 0.694,1.957 0.012,0 0.018,-0.003 0.029,-0.003 1.578,-2.156 4.332,-3.152 7.142,-3.742 z"
           id="path316" />
        <path
           style="fill:#c49a6c"
           inkscape:connector-curvature="0"
           d="m 242.597,148.084 c 1.603,-0.258 3.419,-0.483 4.28,-1.021 1.189,-0.742 2.511,-2.302 2.851,-2.713 -2.81,0.588 -5.564,1.584 -7.131,3.734 z"
           id="path318" />
        <path
           style="fill:#c49a6c"
           inkscape:connector-curvature="0"
           d="m 242.564,148.09 c 0,0 -1.254,0.258 -1.951,0.638 -0.703,0.381 -4.324,2.423 -5.854,1.571 0,0 -1.418,-1.34 0.237,-1.934 1.661,-0.597 3.202,-1.017 3.202,-1.017 l -0.393,-0.512 4.099,-0.621 z"
           id="path320" />
        <g
           id="g338">
          <path
             style="fill:#f7941e"
             inkscape:connector-curvature="0"
             d="m 238.533,142.614 c -0.938,1.202 -1.181,2.698 -0.63,3.997 l 0.952,-0.401 c -0.398,-0.947 -0.214,-2.054 0.486,-2.956 0.05,-0.057 0.105,-0.107 0.155,-0.165 -0.275,-0.209 -0.56,-0.423 -0.829,-0.636 -0.049,0.058 -0.093,0.108 -0.134,0.161 z"
             id="path322" />
          <path
             style="fill:#f7941e"
             inkscape:connector-curvature="0"
             d="m 251.772,137.686 c 1.052,-2.095 1.028,-4.28 -0.067,-5.315 l -0.709,0.75 c 0.744,0.701 0.68,2.465 -0.146,4.102 -0.188,0.366 -0.562,1.013 -1.184,1.667 0.252,0.236 0.504,0.474 0.756,0.71 0.557,-0.594 1.014,-1.251 1.35,-1.914 z"
             id="path324" />
          <path
             style="fill:#f9af56"
             inkscape:connector-curvature="0"
             d="m 242.166,146.06 c -1.154,1.004 -2.631,1.317 -3.961,0.837 l 0.352,-0.972 c 0.97,0.351 2.065,0.111 2.933,-0.642 0.056,-0.051 0.105,-0.108 0.152,-0.155 0.226,0.261 0.448,0.524 0.683,0.794 -0.056,0.045 -0.106,0.094 -0.159,0.138 z"
             id="path326" />
          <path
             style="fill:#f7941e"
             inkscape:connector-curvature="0"
             d="m 242.688,141.493 c 0.334,-0.104 0.668,-0.209 1.002,-0.312 0,0.019 0.006,0.033 0.006,0.054 0.381,1.773 -0.141,3.505 -1.377,4.684 -0.229,-0.267 -0.454,-0.53 -0.683,-0.795 0.94,-0.92 1.342,-2.258 1.052,-3.631 z"
             id="path328" />
          <path
             style="fill:#f9af56"
             inkscape:connector-curvature="0"
             d="m 246.396,132.587 c 2.033,-1.164 4.216,-1.25 5.309,-0.22 l -0.709,0.75 c -0.741,-0.698 -2.499,-0.544 -4.084,0.365 -0.357,0.204 -0.99,0.615 -1.605,1.263 -0.252,-0.236 -0.498,-0.474 -0.75,-0.71 0.556,-0.592 1.192,-1.079 1.839,-1.448 z"
             id="path330" />
          <path
             style="fill:#f7941e"
             inkscape:connector-curvature="0"
             d="m 245.301,134.748 c -1.172,1.221 -2.32,3.289 -1.611,6.434 -0.331,0.103 -0.665,0.208 -0.996,0.312 0,-0.012 0,-0.023 0,-0.035 -0.756,-3.244 0.278,-5.756 1.857,-7.42 0.252,0.238 0.504,0.473 0.75,0.709 z"
             id="path332" />
          <polygon
             style="fill:#fcd116"
             points="253.58,131.9 233.014,152.567 232.513,152.094 252.08,130.479 "
             id="polygon334" />
          <path
             style="fill:#f9af56"
             inkscape:connector-curvature="0"
             d="m 249.666,138.889 c -1.16,1.234 -3.161,2.492 -6.34,1.949 -0.018,-0.003 -0.035,-0.003 -0.05,-0.006 -1.796,-0.286 -3.498,0.323 -4.608,1.621 0.275,0.213 0.557,0.427 0.829,0.636 0.867,-0.986 2.188,-1.448 3.571,-1.241 0.012,0 0.023,0 0.035,0.003 3.278,0.575 5.736,-0.587 7.312,-2.252 -0.245,-0.237 -0.497,-0.474 -0.749,-0.71 z"
             id="path336" />
        </g>
        <path
           style="fill:#e8ba8b"
           inkscape:connector-curvature="0"
           d="m 238.996,146.145 c -1.834,0.286 -2.991,1.436 -2.991,1.436 l 3.062,0.107 c 0.079,-0.003 0.146,-0.003 0.214,0.007 l -0.214,-0.007 c -0.604,0.048 -1.333,0.643 -1.333,0.643 l -2.306,1.61 c 1.271,0.172 3.223,-0.577 4.72,-1.267 0.554,-0.258 1.444,-0.429 2.417,-0.584 -0.193,-0.624 -0.41,-1.311 -0.694,-1.957 -0.244,-0.055 -1.281,-0.237 -2.875,0.012 z"
           id="path340" />
      </g>
    </g>
    <path
       style="fill:#f7941e;fill-opacity:1;stroke:none;stroke-width:0.97631693"
       d="m 669.26016,-30.634889 a 84.197561,84.197561 0 0 0 -84.19779,84.19779 84.197561,84.197561 0 0 0 84.19779,84.197789 84.197561,84.197561 0 0 0 84.19779,-84.197789 84.197561,84.197561 0 0 0 -84.19779,-84.19779 z m 0,2.070207 a 82.127135,82.127135 0 0 1 82.12758,82.127583 82.127135,82.127135 0 0 1 -82.12758,82.127579 82.127135,82.127135 0 0 1 -82.12758,-82.127579 82.127135,82.127135 0 0 1 82.12758,-82.127583 z"
       id="circle1534"
       inkscape:connector-curvature="0" />
  </g>
</svg>
