<?xml version="1.0" encoding="UTF-8"?>
<!DOCTYPE svg PUBLIC "-//W3C//DTD SVG 1.1//EN" "http://www.w3.org/Graphics/SVG/1.1/DTD/svg11.dtd">
<!-- Creator: CorelDRAW -->
<svg xmlns="http://www.w3.org/2000/svg" xml:space="preserve" width="600px" height="400px" style="shape-rendering:geometricPrecision; text-rendering:geometricPrecision; image-rendering:optimizeQuality; fill-rule:evenodd; clip-rule:evenodd"
viewBox="0 0 600 400">
 <defs>
  <style type="text/css">
   <![CDATA[
    .str0 {stroke:white;stroke-width:0.1524}
    .str2 {stroke:white;stroke-width:0.3528}
    .str1 {stroke:black;stroke-width:0.3528}
    .fil3 {fill:none}
    .fil0 {fill:white}
    .fil5 {fill:black}
    .fil4 {fill:#AF0000}
    .fil2 {fill:#2B8838}
    .fil1 {fill:#462B28}
   ]]>
  </style>
 </defs>
 <g id="Layer_x0020_1">
  <metadata id="CorelCorpID_0Corel-Layer"/>
  <g id="_129339064">
   <rect id="_20582544" class="fil0 str0" width="600" height="400"/>
   <g>
    <path id="_129682728" class="fil1 str1" d="M300.529 316.77c2.4816,13.2542 -3.1582,19.4016 -16.92,18.4428 1.3534,5.1324 5.8656,6.3168 13.536,3.5532 -0.1128,2.3124 0.9024,4.9632 3.0456,7.9524 1.6354,-1.0154 2.7072,-2.4816 3.2148,-4.3992 5.1322,5.4708 9.2494,7.6704 12.3516,6.5988 6.1476,0.564 9.7008,2.4816 10.6596,5.7528 3.3276,-4.1734 0.2256,-8.1216 -9.3058,-11.844 -6.0348,-5.64 -6.0914,-13.987 -0.1694,-25.0416 -4.6812,-3.0456 -10.152,-3.384 -16.4124,-1.0152z"/>
    <path id="_129714496" class="fil2 str1" d="M268.478 296.842c0.7052,-0.4678 1.5902,-0.356 2.6546,0.3348 -2.924,3.5834 -3.784,6.9948 -2.58,10.234 1.72,0.0572 3.096,-0.9174 4.128,-2.924 -0.9172,2.8664 -0.1146,6.4214 2.408,10.664 2.6584,-1.3774 4.2426,-3.2106 4.7524,-5.4996 -0.4132,2.7546 0.5508,5.234 2.8924,7.4376 1.8592,-0.7574 3.3052,-2.479 4.3386,-5.165 0.2754,2.8922 1.9282,5.7848 4.9584,8.6772 2.8924,-1.1706 4.683,-3.03 5.3716,-5.5782 0.5508,2.066 1.6528,4.1322 3.3056,6.198 1.3084,-0.0688 2.4792,-1.3774 3.5122,-3.9254 0.2756,3.0302 1.102,5.234 2.4792,6.6112 2.8236,-0.8264 4.9584,-2.4792 6.4046,-4.9584 2.3414,3.3744 4.683,6.0604 7.0244,8.0574 2.9614,-2.8236 4.9586,-5.7848 5.9914,-8.8838 1.584,3.168 3.8566,5.5096 6.8178,7.0242 1.7906,-2.8232 2.4792,-5.2336 2.066,-7.2308 1.7476,1.9656 3.3046,3.022 4.6714,3.1696 2.322,-2.4938 3.44,-5.16 3.354,-7.998 2.236,1.462 3.44,3.784 3.612,6.966 3.096,-4.2138 3.956,-8.944 2.58,-14.19 1.978,3.4832 3.44,4.9882 4.386,4.515 1.032,-2.838 0.516,-6.364 -1.548,-10.578 4.644,-1.8918 2.064,-10.32 -7.74,-25.284 -6.836,-13.5532 -21.5108,-18.1628 -44.0242,-13.8288 -21.8996,2.548 -32.505,14.5998 -31.8164,36.155z"/>
    <path id="_129476688" class="fil3 str1" d="M286.376 281.21c-1.0702,2.447 -0.9176,4.894 0.4588,7.3408 3.8478,-2.6684 5.4364,-4.7812 4.7654,-6.338"/>
    <path id="_129359008" class="fil3 str1" d="M291.6 291.673c-0.917,4.2428 -0.4584,7.568 1.376,9.9762 3.4972,-3.3254 4.816,-5.963 3.956,-7.9122"/>
    <path id="_20581368" class="fil3 str1" d="M283.172 300.617c-1.605,4.0706 -0.9172,5.2746 2.064,3.612"/>
    <path id="_20449960" class="fil3 str1" d="M299.34 305.261c-0.401,3.268 0,5.0452 1.204,5.3322 2.0066,-1.4908 2.9814,-3.4402 2.924,-5.848"/>
    <path id="_129695232" class="fil3 str1" d="M308.628 293.909c-0.6306,3.784 0.2294,6.421 2.58,7.912 1.892,-1.9492 2.7518,-4.3574 2.58,-7.224"/>
    <path id="_129683296" class="fil3 str1" d="M316.54 303.369c-0.344,3.6118 0.4586,6.6504 2.408,9.116 2.752,-2.752 3.8986,-5.504 3.44,-8.256"/>
    <path id="_129339600" class="fil3 str1" d="M330.816 300.273c-0.2866,2.236 0.9172,4.816 3.612,7.7398 1.4332,-2.2928 2.064,-4.8156 1.892,-7.5678"/>
    <path id="_20547512" class="fil3 str1" d="M335.976 286.169c-0.1718,1.9492 0.2292,3.8984 1.204,5.848 1.7772,-1.7772 2.5226,-3.6694 2.236,-5.676"/>
    <path id="_20538832" class="fil3 str1" d="M322.904 289.093c0.4012,2.408 1.376,4.357 2.924,5.848 2.1212,-2.58 2.9812,-5.0454 2.58,-7.396"/>
    <path id="_129478312" class="fil3 str1" d="M316.368 278.601c0.2866,3.0958 0.9172,5.045 1.892,5.848 2.6372,-2.8666 3.6694,-4.816 3.096,-5.848"/>
    <polygon id="_129337552" class="fil4 str1" points="274.134,45.3294 281.289,46.0126 282.088,55.4826 289.381,56.1046 289.794,62.3842 282.577,61.7944 283.07,68.5076 296.642,69.6164 297.234,78.1944 283.714,77.0436 284.72,90.3894 277.707,90.2176 276.632,76.465 263.707,75.3502 263.073,66.9412 275.959,67.8628 275.463,61.2132 269.439,60.729 268.924,54.4112 274.947,54.918 "/>
    <path id="_20612504" class="fil5 str1" d="M285.924 240.417c-0.745,5.9054 -2.9812,10.3202 -6.708,13.244 2.8092,1.6626 5.9628,6.8798 9.46,15.652 0,1.0892 -2.752,1.1466 -8.256,0.172 -2.9812,2.752 -4.128,5.504 -3.44,8.256 0.697,-1.3312 2.04,-1.1958 4.0278,0.4062 0.8324,-4.706 3.6198,-6.2264 8.3622,-4.5612 6.8778,0.5792 9.5568,3.0406 8.0364,7.3848 1.5928,-1.2668 3.0408,-1.4478 4.344,-0.543 1.484,-3.9096 -0.2898,-6.8056 -5.3214,-8.688 2.751,-3.9456 5.3576,-4.0544 7.8192,-0.3256 -0.1812,-2.2808 0.1446,-3.7652 0.9774,-4.4528 -2.4616,-3.5474 -6.516,-3.0408 -12.1632,1.5204 -3.0408,-5.2128 -4.9232,-9.1224 -5.6472,-11.7288 2.3168,-2.3528 4.7784,-7.819 7.3848,-16.3986 -3.702,-1.4686 -6.6606,-1.4478 -8.876,0.0626z"/>
    <path id="_129361120" class="fil5 str1" d="M310.314 237.39c-1.9262,6.6392 -4.5406,10.7328 -7.8432,12.2808 -0.4816,2.0296 3.7152,7.2928 12.5904,15.7896 -6.4328,1.7544 -8.944,4.5408 -7.5338,8.3592 1.1696,-0.9632 2.7522,-0.8256 4.7474,0.4128 -0.2408,-3.3024 1.6512,-5.2288 5.676,-5.779 2.8552,0.0342 5.7792,2.7518 8.772,8.1526 0.8944,-1.6856 2.2016,-2.2016 3.9216,-1.548 0.0688,-2.752 -2.064,-4.6786 -6.3984,-5.7792 2.7864,-4.0248 6.88,-3.44 12.2808,1.7544 0.4816,-1.1352 1.1008,-1.5136 1.8576,-1.1352 -4.7816,-6.9144 -10.7328,-8.6688 -17.8536,-5.2632 -5.4352,-2.9238 -9.632,-7.4304 -12.5904,-13.5192 4.1968,-2.3048 7.7054,-6.6048 10.5264,-12.9 -3.612,-1.651 -6.3296,-1.9264 -8.1528,-0.8256z"/>
    <path id="_129345456" class="fil5 str1" d="M291.073 90.897c4.9334,-3.4418 10.0968,-3.6714 15.4892,-0.6884 10.0964,2.524 16.0624,9.1788 17.8982,19.9636 4.2452,18.2424 10.0966,35.3378 17.5542,51.2858 0.2294,1.606 5.0482,3.2124 14.4564,4.8188 4.0158,1.0324 5.5074,-0.9178 4.4746,-5.8514 -5.2776,-22.2582 0,-35.3378 15.8332,-39.2388 13.6532,-1.3768 26.1592,12.3912 37.5178,41.304 10.4408,76.4124 20.6522,123.912 30.6338,142.499 -8.0312,4.1304 -17.8984,-20.193 -29.6012,-72.9704 1.0328,23.9792 6.4252,44.9754 16.1774,62.9886 -14.3414,-4.5892 -27.077,-40.8452 -38.2062,-108.767 -3.786,8.4904 -0.459,31.6664 9.9818,69.5284 -4.3598,2.5242 -11.4734,-20.652 -21.3404,-69.5284 -2.1796,9.4082 0.9178,27.536 9.2934,54.3836 -5.3922,3.3274 -11.9322,-11.4732 -19.6194,-44.4018 -0.4588,8.8344 1.8358,19.2752 6.884,31.3222 -5.7366,3.3274 -10.5556,-7.8018 -14.4564,-33.3874 -1.1588,3.6208 -3.0274,6.2394 -5.6054,7.8554 -1.8524,-2.2232 -2.7524,-4.87 -2.6996,-7.94 -0.9528,2.8584 -2.5408,4.658 -4.764,5.3992 -1.588,-1.482 -2.1174,-3.8112 -1.588,-6.9872 -0.8468,2.329 -2.3292,4.0228 -4.4464,5.0816 -1.7466,-1.3762 -2.7524,-3.176 -3.0172,-5.3992 -1.8586,5.4322 -7.6796,15.0448 -17.4624,28.8378 -3.0976,3.5568 -2.7534,10.5556 1.0326,20.9962 -2.0438,0.8232 -4.3486,0.2506 -6.9138,-1.7176 -1.1644,0.4764 -1.9056,2.1174 -2.2232,4.9228 -1.2704,-2.7524 -2.7526,-4.6582 -4.4464,-5.7168 -1.641,0.5292 -3.176,1.482 -4.6052,2.8584 2.4876,-5.7168 2.7524,-9.9516 0.794,-12.704 5.1506,-9.6752 8.0474,-16.8338 8.6906,-21.4754 -1.282,-1.9348 -2.3646,-1.7936 -3.2474,0.4236 -0.737,6.5348 -5.1098,16.1158 -13.1186,28.743 -0.567,3.8276 -0.068,7.0912 1.497,9.7904 -2.1786,0.86 -4.816,-0.4588 -7.912,-3.956 -1.204,2.8666 -2.752,4.5866 -4.644,5.16 -1.376,-0.745 -2.064,-2.752 -2.064,-6.02 -1.6626,2.0066 -4.5866,3.2106 -8.772,3.612 0.516,-2.752 1.8348,-4.5866 3.956,-5.504 2.236,-3.3252 2.9814,-6.192 2.236,-8.6 -6.8412,2.4964 -17.6884,9.9066 -32.5416,22.2306 -6.6546,7.2284 -15.1448,11.0146 -25.4708,11.3586 0.3298,-2.0124 1.2556,-4.3148 2.777,-6.9066 10.2464,-2.2174 17.4344,-5.8114 21.5636,-10.7818 -6.8056,2.3706 -16.211,6.7292 -28.2162,13.0758 0,1.0704 0,0 0,-3.2116 18.046,-8.7934 27.834,-14.3756 29.3632,-16.7462 -18.8874,9.176 -30.8926,14.3756 -36.0158,15.5992 -0.306,-0.9938 0.3058,-3.0586 1.8352,-6.1938 20.187,-8.564 30.5866,-14.0698 31.1984,-16.5168 -12.8464,5.8116 -23.8576,10.7054 -33.0336,14.6816 -4.2822,1.2236 -7.3408,0.9176 -9.176,-0.9176 -0.7646,1.3 0,0.0002 2.294,-3.8998 19.4224,-6.1172 31.1984,-11.0112 35.3276,-14.6816 -8.335,2.5234 -21.105,7.3408 -38.3098,14.4522 -4.1292,0.0766 -7.035,-0.6116 -8.7172,-2.0646 10.1698,-6.6524 26.6102,-13.764 49.321,-21.3342 2.1408,-5.4288 7.9524,-11.6228 17.4344,-18.5814 0.9044,-17.3186 2.5828,-30.7404 5.035,-40.2654 -0.2122,2.8468 -1.0716,4.5168 -2.578,5.0098 -1.482,-0.053 -3.176,-1.4822 -5.0816,-4.2876 0.4762,3.6522 -0.2118,6.1402 -2.0644,7.4636 -2.2232,-1.482 -3.5994,-3.8112 -4.1288,-6.9872 -1.1116,3.176 -2.5408,5.0816 -4.2876,5.7168 -2.0644,-0.6882 -3.3878,-2.5408 -3.97,-5.558 -3.6532,2.49 -6.7708,7.8406 -9.3526,16.051 -2.948,6.6822 -6.6822,9.6302 -11.2024,8.844 9.8756,-15.8702 14.1502,-27.9078 12.8238,-36.113 -9.3266,29.3076 -20.3536,46.1918 -33.081,50.6524 17.127,-22.033 25.4756,-39.5906 25.0454,-52.6728 -17.6436,39.8488 -31.3282,59.558 -41.0538,59.1278 23.41,-30.898 34.0824,-51.2958 32.0168,-61.1934 -19.5788,45.9608 -36.5384,68.2922 -50.8788,66.9944 16.9644,-14.2104 30.799,-36.809 41.5038,-67.7958 -19.9696,43.82 -39.313,67.3576 -58.0302,70.6128 16.798,-10.0812 33.414,-39.032 49.8476,-86.8526 9.5144,-23.74 19.876,-33.9478 31.0844,-30.624 8.7196,0 16.9804,11.4734 24.7824,34.42 5.0992,-0.8276 10.2656,-0.5938 15.4988,0.7018 4.6644,-8.182 10.7054,-11.317 18.1226,-9.4054 7.0348,-2.6 8.5644,-6.7292 4.588,-12.3876 -4.8128,-3.4202 -7.5636,-5.7834 -8.2528,-7.0896 -8.7076,2.1794 -14.5938,0.152 -17.6586,-6.0828 9.0368,2.4956 14.8034,2.4098 17.2994,-0.2582 -9.2092,-5.4222 -14.8036,-6.8854 -16.783,-4.3894 -0.3168,-7.5796 5.5082,-8.951 17.4752,-4.1138z"/>
    <path id="_20537752" class="fil4 str1" d="M278 93.9602c0.3566,7.3402 1.1136,15.3728 1.87,24.0276 0.8256,0.9168 3.3024,2.5682 7.4304,4.9534 -0.5882,-6.4506 -1.5724,-15.4944 -2.113,-26.3616 -3.4378,-1.6988 -5.5306,-2.3826 -7.1874,-2.6194z"/>
    <polygon id="_20548576" class="fil4 str1" points="257.607,73.7824 263.09,83.6878 274.747,81.2356 268.325,90.7502 276.302,99.005 264.396,98.6142 260.716,109.321 255.233,99.416 243.576,101.868 249.998,92.3536 242.022,84.0988 253.927,84.4894 "/>
    <path id="_129358792" class="fil0 str1" d="M280.446 282.174c-3.2076,-1.1786 -4.1896,-3.1426 -2.946,-5.8922 1.571,-0.6216 2.6188,-0.3926 3.1424,0.6874 0.327,1.4074 0.262,3.1424 -0.1964,5.2048z"/>
    <path id="_129340376" class="fil0 str1" d="M300.423 285.535c-2.0788,-1.5578 -2.948,-3.7342 -2.6082,-6.5284 2.1658,-0.7432 3.281,-0.7292 3.3452,0.0428 1.0328,-0.323 0.7872,1.8388 -0.737,6.4856z"/>
    <path id="_20544800" class="fil0 str1" d="M304.221 271.006c1.4374,0.3584 2.0514,1.421 1.8416,3.1884 1.2632,-4.1436 0.7074,-6.6706 -1.6676,-7.5802 -1.0538,2.2756 -1.1118,3.7394 -0.174,4.3918z"/>
    <path id="_20547536" class="fil0 str1" d="M310.29 278.717c-2.6312,-1.5824 -3.3554,-3.8132 -2.1736,-6.6922 1.6776,-0.1714 2.8218,0.0764 3.432,0.7436 -0.4956,0.6104 -0.9152,2.5932 -1.2584,5.9486z"/>
    <path id="_129752176" class="fil0 str1" d="M328.995 282.492c-0.0762,-3.928 -0.9916,-6.4064 -2.7456,-7.436 0.9532,-1.0484 2.2116,-1.3728 3.7752,-0.9724 1.716,3.2224 1.3728,6.0252 -1.0296,8.4084z"/>
    <path id="_20387896" class="fil0 str1" d="M337.918 274.598c-0.515,-2.698 -1.144,-4.042 -1.886,-4.0314 0.4178,-1.0592 0.913,-1.4886 1.4856,-1.288 1.5444,2.0402 1.678,3.8134 0.4004,5.3194z"/>
    <ellipse id="_130009904" class="fil0 str1" cx="300.455" cy="95.1791" rx="2.46438" ry="2.5464"/>
    <path id="_20583080" class="fil3 str2" d="M284.912 244.22c0.5306,-0.1906 1.3266,-0.8274 2.388,-1.911 0.0054,3.2842 0.6936,5.2908 2.064,6.02 2.0168,-0.7146 3.565,-2.4348 4.644,-5.16"/>
    <path id="_130006624" class="fil3 str2" d="M308.782 241.103c0.7342,-0.586 1.7772,-1.1242 3.1282,-1.614 1.7004,1.2338 2.9548,2.6858 3.7634,4.3558"/>
   </g>
  </g>
 </g>
</svg>
