<svg xmlns="http://www.w3.org/2000/svg" xmlns:xlink="http://www.w3.org/1999/xlink" width="500" height="500"><path d="M0 0h500v500H0z" fill="#ab0e09"/><g fill="#ffd800"><path d="M43 32.9h25.2L55.6 2.6zm35.4 0h25.2L91 2.6zm35.3 0h25.2L126.3 2.6zm35.4 0h25.2L161.7 2.6zm35.3 0h25.2L197 2.6zm35.4 0H245L232.4 2.6zm35.3 0h25.2L267.7 2.6zm35.4 0h25.2L303.1 2.6zm35.3 0H351L338.4 2.6zm35.4 0h25.2L373.8 2.6zm35.3 0h25.2L409.1 2.6zm35.4 0h25.2L444.5 2.6zm-399 424v-25.2L2.6 444.3zm0-35.4v-25.2L2.6 408.9zm0-35.4v-25.2L2.6 373.5zm0-35.4v-25.2L2.6 338.1zm0-35.3v-25.2L2.6 302.8zm0-35.4v-25.2L2.6 267.4zm0-35.3v-25.2L2.6 232.1zm0-35.4v-25.2L2.6 196.7zm0-35.3v-25.2L2.6 161.4zm0-35.4v-25.2L2.6 126zm0-35.3V78.1L2.6 90.7zm0-35.4V42.7L2.6 55.3zm434 389v-25.2l30.3 12.6zm0-35.4v-25.2l30.3 12.6zm0-35.4v-25.2l30.3 12.6zm0-35.4v-25.2l30.3 12.6zm0-35.3v-25.2l30.3 12.6zm0-35.4v-25.2l30.3 12.6zm0-35.3v-25.2l30.3 12.6zm0-35.4v-25.2l30.3 12.6zm0-35.3v-25.2l30.3 12.6zm0-35.4v-25.2l30.3 12.6zm0-35.3V78.1l30.3 12.6zm0-35.4V42.7l30.3 12.6zM1.9 2.3L12 27.6l20.2 5.05-5.05-20.2zm495 0l-10.1 25.3-20.2 5.05 5.05-20.2zm0 495l-10.1-25.2-20.2-5.05 5.05 20.2zm-495 0L12 472.1l20.2-5.05-5.05 20.2zM241 131c-6.2 3.12-11.4 9.4-13.8 15.9-3.43 9.23-2.98 22.4-3.02 34.2v3.34c-.072 3.43-.128 6.75-.477 9.7-1.92 16.2-5.4 37.4-5.4 53.6 3 28.4-3.48 45.6 10.5 71.9 4.63 9.3 12.9 17 21.9 17 15 0 25.4-20.8 28.3-32.6 2.74-11.3 3.5-37.9 3.5-54.2 0-7.18-.345-17-1.27-25.6-1.2-11-2.82-21-3.5-30.4-.598-8.3-3.83-19.5-2.2-27.7.495-2.84.6-5.7 1.2-8.56l-9-2.1-1.43-.16.795-1.27s2.14-4.12 6.04-7.95l3.02-3.02s-2-4-4.6-6.84c-1.98-2.15-5.6-4.67-6.36-5.08-7.87-3.97-17.1-3.65-24.2-.162zm11.9-.318s1.73.453 1.75 1.1c.013.5-1.27 1.27-1.27 1.27s-4.78 1.04-7.02 4.1c-1.7 2.08-2.53 3.76-2.96 6.38 0 1.35 1.27 3.83 2.8 4.9 4.65 3.27 9.26 3.84 14.4 3.16 1.7-.38 3.16-.355 4.3.636.146.607-.97 1.34-1.43 1.43-2.93.534-6.17 1.14-9.06.795-1.55-.204-3.5-.5-5.32-1.32-3.1-1.63-7.4-3.8-7.93-7.72-4.97 1.95-7.14 8.52-6.34 12.3.8 2.87 3 5.13 3.82 5.72.9.65 4.77 2.23 4.77 2.23s3.02.772 2.86 1.75c-.15.95-3.18.795-3.18.795s-4.45-1.65-5.93-2.7c-.9-.648-3.83-3.5-4.88-7.3-1.04-3.76.852-8.13 1.25-8.95 1.9-3.35 4.32-5.46 7.63-6.68.464-2.58 1.8-5.1 3.18-7 3.13-4.26 8.6-4.88 8.6-4.88zm10.6 8.6c1.74 0 4.5 1.35 5.17 3.1-.818 1.67-3.53 2.88-5.27 2.88s-4.3-1.32-5.16-2.9c.86-1.66 3.53-3.06 5.27-3.06zm14.5 4.77c-2.9 2.88-5.77 5.37-7.94 9.06 3.07-1.08 7.07-1.63 10.2-1.62 1.52.012 3.7.463 5.22 1.25 1.95 1 2.7 1.67 2.9 1.7.108-2.93-.436-5.55-3.02-7.34-3-2-6.87-2.82-7.38-3.04zm-5.4 10.3c-.2.06-.125.103-.318.16l6.84 1.9c.878-.56 4.44-2.1 5.1-2.77-4.02-.964-8.02-.312-11.6.703zm-41 12.7s2.65 2.6 5.1 3.66c1.3.573 7.04 2.76 12.1 3.02 6.25.318 13.2-1.6 13.2-1.6 2.25.33 2.85 1.05.636 2.38 0 0-6.98 2.1-13.8 1.75-5.66-.288-11.6-2.66-13.2-3.34-3.22-1.4-5.56-3.97-5.56-3.97s-.736-1.6-.318-2.07c.6-.334 1.26-.038 1.9.16zm-1.75 11.4c4.86 1.97 8.22 3.7 12.7 4.77 8.77 2.06 18.2 1.66 26.7-3.82 2.17-.25 2.5.33 1.27 2.23-9.25 5.96-19.5 6.36-28.8 4.13-4.64-1.1-8.03-2.96-12.9-4.93-1.33-1.48-1-1.95.954-2.38zm-.22 11.6c5.06 1.97 8.5 3.7 13.2 4.77 9.13 2.06 19.1 1.66 28-3.82 2.16-.252 2.5.334 1.27 2.23-9.63 5.96-20.4 6.36-30 4.13-4.83-1.1-8.46-2.96-13.5-4.93-1.18-1.53-.763-1.96 1.1-2.38zm44.1 11.6c1.95.304 2.3.76.954 2.38-5.45 1.97-9.26 3.66-14.5 4.77-10.4 2.23-22 1.98-32.4-3.97-1.17-1.9-.953-2.52 1.43-2.23 9.54 5.47 20.4 5.88 30.2 3.82 5.05-1.06 8.85-2.8 14.3-4.77zm.996 11.4c1.83.45 2.65.768 1.1 2.38-5.78 1.97-9.9 3.82-15.4 4.93-11.1 2.23-23.3 1.82-34.3-4.13-1.4-1.93-1.06-2.56 1.43-2.23 10.1 5.47 21.5 5.88 32 3.82 5.36-1.06 9.47-2.8 15.3-4.77zm-49 12.9c5.98 1.97 10.1 3.7 15.6 4.77 10.8 2.06 22.6 1.66 33.1-3.82 2.34-.23 3.3.2 1.43 2.23-11.4 5.96-23.9 6.2-35.3 3.97-5.7-1.1-10.1-2.8-16.1-4.77-1.42-1.7-.905-2.17 1.27-2.38zm-.795 12.2c6.13 2.22 10.4 4.2 16.1 5.4 11.1 2.33 23.1 1.88 33.9-4.3 2.5-.3 3.2.28 1.6 2.54-11.7 6.72-24.7 6.96-36.4 4.45-5.84-1.25-10.3-3.2-16.4-5.4-1.34-1.78-1.02-2.36 1.27-2.7zm.7 14.1c6.13 2.22 10.4 4.2 16.1 5.4 11.1 2.33 23 1.88 33.7-4.3 2.6-.287 3.4.24 1.6 2.54-11.7 6.72-24.5 6.96-36.2 4.45-5.84-1.25-10.3-3.2-16.4-5.4-1.34-1.78-1.02-2.36 1.27-2.7zm-.155 14.6c6.13 2.22 10.4 4.2 16.1 5.4 8.27 1.74 17.1 1.93 25.5-.663 2.84-.876 5.63-2.07 8.34-3.63 2.5-.3 3.2.28 1.6 2.54-11.7 6.72-24.7 6.96-36.4 4.45-5.84-1.25-10.1-3.2-16.2-5.4-1.7-1.92-1.67-2.67 1.1-2.7zm-.163 13.2c5.98 1.97 10.1 3.7 15.6 4.77 10.8 2.06 22.6 1.66 33.1-3.82 2.34-.23 3.3.2 1.43 2.23-11.4 5.96-23.9 6.2-35.3 3.97-5.7-1.1-10.1-2.8-16.1-4.77-1.42-1.7-.905-2.17 1.27-2.38zm49 12.9c1.98.307 2.56.662 1.1 2.38-5.78 1.97-9.9 3.66-15.4 4.77-11.1 2.23-23.3 1.98-34.3-3.97-1.4-1.93-1.06-2.56 1.43-2.23 10.1 5.47 21.5 5.72 32 3.66 5.36-1.06 9.47-2.64 15.3-4.6zm-.795 12.4c1.95.304 2.3.76.954 2.38-5.45 1.97-9.26 3.66-14.5 4.77-10.4 2.23-22 1.98-32.4-3.97-1.17-1.9-.953-2.52 1.43-2.23 9.54 5.47 20.4 5.88 30.2 3.82 5.05-1.06 8.85-2.8 14.3-4.77zm-39.8 13.2c4.1 1.87 5.58 2.65 9.38 3.66 7.42 1.96 17.1 1.7 24.3-3.5 2.03-.254 2 .5 1.1 2.23-7.82 5.66-18.2 5.77-26.1 3.66-3.92-1.05-5.44-1.95-9.54-3.82-.987-1.36-1-1.9.795-2.23zm.713 13.8s-2.98 9.9-6.35 19.9c-.714 4.76 10.2 9.13 11.9 6.03l3.4-20.1c-3.3-1.36-6.3-3.34-8.97-5.82zm32 0c-2.73 2.72-5.12 4.23-8.65 5.68l3.44 20.1c1.7 1.24 10.2.2 11.2-5.7.025-.14.212-.15.323-.235-3.37-10-6.35-19.9-6.35-19.9zm-10.9 6.47c-3.4 1.3-6.8 1.1-9.88.147l-3.32 19.7c4.52 4.14 10.4 4.9 16.6-.06l-3.35-19.8zm-28.6 16.7c-1.66 4.8-3.35 9.4-4.76 12.6-.983 2.23-2.45 5.1-4.06 8.2-2 4.48 11.4 10.6 14.4 6.62l3.53-21.3c-.916.768-8.34-1.94-9.06-6.18zm46.9 0c-2.08 3.25-5.43 5.87-8.85 5.74l3.7 21.6c3.17 3.16 16-3.18 14-6.53-1.6-3.1-3.08-5.97-4.06-8.2-1.42-3.22-3.1-7.82-4.76-12.6zm-11.1 6.24c-.652.154-.962-.45-2.1-1.12-2.95.955-6.14 3.84-9.35 3.9l-.206 20.1c4.97 2.7 10.3 2.43 15.2-1.3zm-24.4-.178l-3.65 21.8c4.02 4.67 8.9 4.85 14 1.2l.206-20c-2.88-.064-6.6-2.58-8.3-3.62-1.42.484-1.56.773-2.28.612zm-21.8 17.7c-5.86 11-10.5 20.9-10.5 20.9-.465.698 1.37 9.96 13.6 8.47l5.8-22c-4.9.104-9.97-6.13-8.86-7.45zm67.6 0c.535 1.46-5.26 6.87-9.72 6.55l6 23.4c14-.08 14.7-9.04 14.4-9.2 0 0-4.8-9.75-10.7-20.8zm-56.4 7.72l-5.92 22.4c.3 3.55 11 6.8 16.2 3.23l3.26-22.5c-1.9-.15-5.86-1.58-8.1-4.2-2.74 1.46-4.93 1.3-5.45 1.1zm44.6-.6c-.298.102-2.36-.236-4.2-1.28-3.05 2.38-6.92 3.85-9.25 4.04l3.93 23.9c7.2 2.12 11.3-.78 15.4-3.18zm-28.7 3.3l-3.3 23.3c4.94 4.5 16.3 3.65 20.2.382l-3.9-23.9c-2.02.114-4.4-1.65-6.43-2.5-2.4 1.4-4.58 2.83-6.52 2.72z"/><path id="A" d="M103 141c-5.58.356-6.86 4.57-8.8 8.9-3.5 7.8-4.2 15.7-1.26 23.7-.212-7.58 5.97-8.06 9.1-5.9-.02-.628-.043-1.28 0-1.9.254-3.7 1.78-7.13 3.34-9.86 1.58-3.42 4.65-5.87 7.15-8.1 3.17-2.86-2.72-7.4-9.54-6.84zm-14.3.795c-5.65-.08-11.8 4.27-11.8 7.3-.608 5.02-.707 10.9.477 17 2.46 8.2 4.73 16.2 9.22 21.6-2.74-7.7 3.02-12.6 5.08-10.4-3.66-8.7-4.67-19.2-.636-28.2.88-1.97 1.85-3.8 2.86-5.56-1.52-1.24-3.36-1.72-5.25-1.75zm27.7 6.98c-3.47 2.25-6.9 5.03-8.7 8.12-1.6 3.42-3.4 6.22-3.37 9.5 1.9-2.3 3.73-3.52 5.58-3.97 2.86-.695 5.2.736 5.05 2.23 1.98-4.4 10.3-7.6 10.3-7.6 2.22-1.25 4.22-2.13 2.54-4.77-.28-.462-2-2.03-5.1-2.86-2.5-.67-4.15-.81-6.35-.652zm-42.4 1.08c-6.83.337-10.9 3.96-11.7 14 .142 1.12.115 2.06.318 3.34.815 5.14 2.2 11.3 3.82 14.3 3.52 6.58 9.98 14.6 15.6 19.6 2.64 2.32 4.13 3.77 7.5 5.62-7.9-5.23-6.5-14.8-2.96-15.3-1.72-1.9-3.2-4.1-4.6-6.22-4.7-7.2-6.52-15.3-7.15-18.6-1.12-5.78-1.27-11.9-.8-16.7zm37 15.5c-2.04.123-4.6 1.3-6.68 4.13.306 2.43 1 4.84 1.9 7 1.34 3.2 3.13 5.84 4.45 7.15 2.78 2.76 5.75 4.13 9.54 5.35-1.65-2.16-.9-3.13.477-3.82-2.06-1.27-2.8-2.52-4.3-4.72-2.16-3.17-2.84-8.54-2.07-12.7.197-1.57-1.3-2.5-3.34-2.38zm-51.4 1.8c-7.16 3-9.33 11.3-4.83 24.7 3.23 4.46 7.1 9.6 11.6 13.8 5.48 5.08 13.4 10.8 20.3 13.7 5.45 2.34 8.87 3.52 15.6 4.25-6.38-1.76-7.65-3.18-9.2-5.7-1.44-2.35-2.15-4.36-1.16-6.97-4.46-2.14-8.08-4.5-11.6-7.58-5.84-5.15-12-13-15.7-19.8-2.4-5.3-4.2-11.5-5.02-16.4zm40.8 2.18c-2.6-.14-6.16 2.73-5.88 9.06 1.17 2.54 2.43 4.87 3.97 6.68 5.9 6.86 13.4 11 23.4 12-2.14-1.16-3.1-2.96-1.3-5.5-4.17-1.28-7.88-3.18-11.3-6.52-1.63-1.6-3.5-4.38-4.93-7.8-.876-2.08-1.53-4.44-1.9-6.84-.48-.703-1.2-1.07-2.07-1.1zm-9.06 10.5c-.647.118-1.24.642-1.6 1.43-1.12 2.52-.777 7.63.795 10 2.17 2.32 3.82 4.22 5.4 5.4 4.4 3.3 15.6 6.42 21.1 7.3 4 .654 6.15 1.2 10 .687-4.28.13-5.66-3.84-4.15-5.46-11.2-.708-19.4-5.02-26-12.7-1.4-1.62-2.55-3.6-3.66-5.72-.598-.808-1.26-1.07-1.9-.954zm96.8 6.52c-6.87.176-13.7.64-19.9.954-5.42.277-13.2 1.2-20.8 1.75 1.7 2.82 5.14 4.8 7.95 5.56 1.9.504 4.1.605 7.63.954 8.32.824 22.2-.046 32.4-.636 5.8-.333 12.1.905 17.2 2.07 2.67.592 5.33 1.3 7.8 1.9.006-.047-.005-.112 0-.16.347-2.94 1.24-6.15 1.27-9.7-3.55-.695-10.4-1.93-13.7-2.23-6.13-.54-13-.653-19.9-.477zm-63.9.318c-2.78 1.78-.033 4.02 2.07 4.3 7.12 1.64 15.2.153 18.9-.636-.223-.36-.416-.726-.636-1.1-5.06.27-9.9.337-13.5-.318-2.5-.452-4.7-1.26-6.84-2.23zm22.3 5.4c-8.95 2.03-14.5 2.55-22.4.318-2.2 1.56-.435 3.27 1.75 4.77 6.98.262 14.5-.9 22.3-3.66-.614-.4-1.12-.928-1.6-1.43zm-57.4 1.75c-2.06.208-2.03 3.74-.795 6.68 2.26 3.98 6.52 8.9 10.7 10.5 12.7 3.55 27.8 3.8 39.1-.808-2.74.31-5.35-.398-6.37-1.37-1.18-1.13-.513-2.6-.507-2.9-4.7.825-9.32.966-14.4.142-5.8-.945-16.8-3.92-21.9-7.8-2.18-1.25-3.46-4.14-5.72-4.45zm61.2 1.1c-7.86 3-15.6 4.5-22.9 4.45-2.7.643-1.73 4.6 5.25 3.97 9.02-1.85 16.5-5.63 19.6-7.3-.616-.28-1.25-.717-1.9-1.1zm-96.3 1.6c-6.03 5.5.798 27.4 21.4 35.6 13 4.77 35.4 7.8 47.4 4.54 3-.89 5.23-.87 8.4-2.32-4.4 1.7-8.37 1.04-12.9-.124-5.1-1.3-6.12-4.4-5.44-7.34-3.02-.195-7.73-.1-11.5-.586-5.88-.782-11.7-3-15.9-4.8-14.3-4.97-23.9-13.6-31.6-25zm101 .477c-1.08.668-8.96 5.4-19.2 7.95-3.7 2.13-.614 2.92 3.02 3.02 1.6.043 2.7.04 4.13-.477 6.12-2.27 11.8-7.3 14.6-10 0 0-1.72-.257-2.54-.477zm35.5.795l-6.52 12.7c.976 5.66 4.67 2.37 8.27-.318l5.25-12.7c-2.34-.035-4.85.195-7 .318zm9.06-.318l-5.1 12.7c.87 4.04 2.92 3.97 5.1 2.54.923-.607 1.74-1.56 2.7-2.38l3.66-12.1c-2.14-.343-4.2-.702-6.36-.795zm-39.1.318c-4.74 4-9.32 7.44-14.6 10.7-1.7 2.74-.032 3.4 2.23 3.02 1.35-.227 2.67-1 4.3-1.43 3.54-3.17 9.1-9.6 11.1-11.9-1.03-.001-2.14-.204-3.02-.318zm27.7 0l-7 .318c-.33.594-3.47 6.23-7.95 13.4-.497 4.3 1.8 4.72 8.27-.795l6.68-12.9zm-22.1.477c-.747.89-6.9 8.05-11.3 12.2-1.18 4.65 4.44 2.06 5.88.954l10-13-4.6-.16zm12.7 0l-5.56.16c-3.96 5.3-6.44 8.74-10.2 13.2-1.26 3.3 2.56 4.63 7.63 0 4.18-6.55 7.3-11.9 8.1-13.4zm29.1.318c-.223.75-2.56 7-3.66 11.9-.674 3 3.26 7.33 6.84 1.27l2.7-12.1c-1.92-.482-4.06-.78-5.88-1.1zm7.8 1.6l-2.7 12.2c1.36 5.02 3.3 5.07 4.6 4.13.557-.396.64-1 1.1-1.43l1.75-13.7-4.77-1.27zm-73.9 10.5c-13.2 5.88-29.3 6.97-43.3 2.17-.26-.094-2.6-.855-2.86-.954-2.28 6.65 7.73 10.4 16.1 12.2 5.65 1.27 16.1-.16 21.5-2.23 5.54-2.13 11.3-5.12 16.2-9.03-5.1 2.7-8.74-.614-7.58-2.2zm10.1 2.86c-5.3 4.47-11.7 7.84-18.1 10.3-4.57 1.76-11.1 2.78-16.7 3.02-4.5 6.02 12.2 6.32 21.3 4.45 3.47-1.86 6.67-3.98 9.38-6.2 2.93-2.4 6.8-5.8 10.7-10.4-5.12 2.27-5.98.5-6.68-1.1zm41.3-.03l-6.9 16.5c-1.03 5.77 5.02 7.98 10.2-1.1l4.6-14.6c-4 3.3-5.9 1.63-7.86-.844zm-2.35.346c-3.45 2.95-6.64 4.23-8.58.318-3.14 6.04-5.48 10-9.32 16.8.628 4.5 2.8 5.1 5.1 3.97 2-.978 4.08-3.32 6.04-4.77l6.78-16.3zm12.4.408l-4.52 14.2c-.898 6.75 4.07 9 8.43.795l3.1-13.7c-2.7 4.2-7.33 1.8-7-1.27zm-23.5.442c-6.2 5.72-7.94 3.8-8.74.795-3.43 5.32-6.78 9.7-11 15-.32.4-.764.713-1.1 1.1-2.83 6.24 5.5 5.4 11.9-.477l8.98-16.4zm-18.9.383c-4.2 5-8.3 8.84-11.7 11.6-2.08 1.7-4.5 3.28-7 4.77-1.7 5.28 5.82 3.93 14 .318a44.71 44.71 0 0 0 2.23-2.54c3.95-4.9 7.24-8.97 10.4-13.8-1.37 1.77-7.54 4.23-7.95-.318zm51.3 1.2l-3.03 13.3c1.35 11.4 5.1 5.86 7.63 3.18.52-5.1.612-8.68 1.26-13.7-3.15 2.1-4.56.356-5.87-2.72zm-5.85 18.7c-1.18 1.85-4.08 3.25-5.84 2.9-2.24-.453-3.23-3.1-3.18-3.96-2.68 8.34-5.54 15.9-8.5 23.6 1.43 4.65 3.86 7.2 10.8.16 2.13-7.76 5.28-16.7 6.72-22.7zm-11.9.14c-1.08 2.03-3.78 3.3-6.15 2.97-2.2-.313-3.96-1.66-4.02-3-3.2 8.23-6.4 15.1-10.2 22.3 2.18 6.65 6.05 5.53 11.8.292 1.7-4.36 6.92-17.4 8.56-22.5zm-13.3.962c-1.57 3.25-9 6.45-10.3-1.26-2.97 5.16-4.98 8.74-7.4 12.2-1.82 2.58-4.7 6.06-7.47 9.38 1.2 6.28 4.5 8.2 14.9.976 3.88-7.12 7.87-15.6 10.3-21.3zm-42.2-2.2a85.91 85.91 0 0 1-5.28 2.47c-3.23 1.4-5.67 1.77-8.27 2.54-9.4 2.8-23.3 1.25-32.7-.117-2.12-.307-6.9-1.24-9.75-2.1-1.7 5.15 12.9 20.7 41.9 16.2 7.72-2.83 15.2-7.33 21.2-12.5 1.63-1.43 3.14-2.22 5.55-4.54-4.62 2.35-9 2.38-10.9.908-1.54-1.17-1.27-2.56-1.65-2.8zm69.7 1.88c-1.43 6-5.04 19.5-6.1 22.9 2.42 4.08 7.53 5.34 13-1.2-.067-7.2.222-15 .772-21-1.38 1.14-3.44 3.42-5.1 2.84-1.1-.43-1.86-.54-2.6-3.58zm-41.3.49c-2.3 3.04-12 5.36-11.2-1.65-2.95 2.97-5.72 5.47-7.65 7.17-6.22 5.05-11.3 8.53-17.6 11.4-1.06 5.84 9.32 11.9 21 3.02 5.84-6.2 12.1-14.1 15.5-20z"/><use transform="matrix(-1 0 0 1 500 .0134)" xlink:href="#A"/><g fill="#ffd800"><path id="B" d="M215 264c-3.65.436-7.66 1.1-9.54 2.07-22.7 13.7-43 29.8-62.8 49.6 12.1 12 8.83 32.8 5.72 49.8 0 0 13.7-4.27 28.3-11.1 13.2-6.2 28.2-17.8 32-20.5 4.7-3.36 10.1-12.1 14.7-17.2-8.38-16.5-7.82-35.1-8.32-52.6zm-7.8 8.58c2.36 19.2 1.5 37.2.636 55-1.04 1.77-1.66 2.26-2.7.16-2.87-10.9-7.53-22.2-17.3-35 3.05 15.6 3.44 31.5 1.43 46.4-.527 2.8-1 5.3-2.7 1.6-3-10.8-7.67-24-15.6-33.5 3.7 13.9 3.46 30 1.75 43.4-1.2 1.9-1.77 1.8-2.7-.318-3.54-11.1-6.17-23.1-16.9-30.5-1.13-2.25-1.16-3.84 1.6-2.23 9.57 6.62 12.9 16.5 15.7 25.9 1.37-14.2 1.2-28.2-3.5-40.9-.07-2.26 1.03-1.9 2.7-.795 9.26 9.33 13.7 19.7 17 30.2 1.47-14.6 1.24-28.6-2.54-43.7.463-2.4.977-2.84 3.02-1.27 10.5 12.3 15.1 22.8 18.3 33.1.235-5.33.415-10.7.466-16 .098-10.2-.264-20.5-1.58-31.2.137-2.98 1.3-2.62 2.86-.318zm-66.4 45.1c3.7 4.36 6.04 8.1 6.87 14.1-9.54 3.26-14.4 8.18-20.4 15.7-1.9 2.37-6.18 8.54-6.3 11.6 1.35 7.08 10.1 10.8 13.4 13.9 3.66 4.2 2.34 8.42 1.1 10.8-3.33-1.52-6.9-1.1-9.86.664-1.23-1.53-3.32-2-5.23-4.35-3.7-4.46-8.4-7.36-14.2-8.53-8.12-1.32-17.3 2.76-21.2 8.33-3.08-2.07-6.6-2.25-9.54-.443.024-.468-.24-.904-.34-1.25-.398-1.33-1.87-5.68 3.2-9.18 2.65-1.83 6.9-2.24 10.6-3.7 5.9-2.33 11.1-5.3 12-5.6.654-.222 3.48-1.42 4.84-2.8 4.07-4.1 9.06-12.2 15.6-19.5 9.5-10.6 19.5-19.7 19.5-19.7zm-57.4 64.4c-2.34 4.75-2.84 9.9-2.84 9.9s-1.17-2.9-3.72-8.77c-.135-.31-.16-1.05-.138-1.53 2.14-2.38 4.46-1.8 6.7.388zm50.3 3.82c-.296 1.65.477 3.67-1.14 5.6-2.5 3-8.67 5.6-8.67 5.6 3.06-5.2 3.8-5.98 3.47-11 .367-.222 1.27-1.3 3-1.42 2.02-.15 3 .992 3.35 1.2zm-60.5-5.92c-1.82 2.94-4.26 6.9-4.8 10.3-.238 1.83-.233 3.72.415 5.45 1.02 1.88 2.17 3.3 4.26 3.74.6-.952 1.26-2.2 2.3-3.07 1.56-1.07 2.95-1.66 4.72-1.7-3.5-4.77-6.15-8.64-6.9-14.7zm6.96 16.7c-1.16.324-2.57.675-3.3 1.28-1.1.92-1.57 1.5-2.13 2.5.49.71 1.62 2.23 1.94 2.5 2.3 1.93 8.46 3.76 8.46 3.76s-2.25-2.94-3.35-5.9c-.694-1.87-1.6-3.2-1.62-4.16z"/><use transform="matrix(-1 0 0 1 499 .327)" xlink:href="#B"/><use xlink:href="#D"/><path d="m78.4 467h25.3l-12.6 30.3z"/><path id="D" d="m43 467h25.2l-12.6 30.3z"/><use x="71" xlink:href="#D"/><use x="106" xlink:href="#D"/><use x="141" xlink:href="#D"/><use x="177" xlink:href="#D"/><use x="212" xlink:href="#D"/><use x="247" xlink:href="#D"/><use x="283" xlink:href="#D"/><use x="318" xlink:href="#D"/><use x="354" xlink:href="#D"/><use x="389" xlink:href="#D"/><circle cx="250" cy="104" r="20"/><ellipse cx="103" cy="394" rx="19.6" ry="19.7"/><ellipse cx="397" cy="394" rx="19.6" ry="19.7"/> </g></g></svg>
