<svg xmlns:rdf="http://www.w3.org/1999/02/22-rdf-syntax-ns#" xmlns="http://www.w3.org/2000/svg" width="638" height="424" xmlns:cc="http://creativecommons.org/ns#" xmlns:dc="http://purl.org/dc/elements/1.1/" viewBox="0 0 638 424"><metadata><rdf:RDF><cc:Work rdf:about=""><dc:format>image/svg+xml</dc:format><dc:type rdf:resource="http://purl.org/dc/dcmitype/StillImage"/><dc:title>Flag of Trieste</dc:title></cc:Work></rdf:RDF></metadata>
<rect width="638" height="424" fill="#e31317"/><path fill="#ffffff" d="m2120,465l-0.969,24-0.906-22.1s-92.7,502-92.7,696c31.3,97.4,49.5,68.7,51.8,299-2.43,17.2,0.932,35.4-2.53,52.4-146-180-276-137-346-97.7-71.3,39.6-121,93.6-121,215,47.6-51.3,82.2-159,235-159,136,0,213,92.1,228,114,0.344,0.221-0.64,20.5-0.687,21.6v115c-22.7,9.12-38.9,33.3-38.9,61.5,0,27.8,15.8,51.6,37.9,61v319c12.8,15.2,31.5,23.1,49.3,23.1,17.6,0,35.4-10.3,48.9-23.1v-319c22.1-9.42,37.9-33.3,37.9-61,0-28.3-16.3-52.5-39.1-61.6v-113c-0.261-7.88,0.279-17.2-1.34-24.5,15.9-21.5,92-114,228-114,153,0,187,107,235,159,0-121-49.6-175-121-215-69.7-38.8-199-82.2-346,97.8l-1.88-49.9v-0.719c2.31-233,20.6-203,52.1-301,0-194-92.9-696-92.9-696z" transform="matrix(0.15001278,0,0,0.15001278,0.07496457,-0.61685841)"/></svg>