<?xml version="1.0" encoding="UTF-8" standalone="no"?>
<!-- Generator: Adobe Illustrator 12.0.1, SVG Export Plug-In . SVG Version: 6.00 Build 51448)  -->
<svg
   xmlns:dc="http://purl.org/dc/elements/1.1/"
   xmlns:cc="http://creativecommons.org/ns#"
   xmlns:rdf="http://www.w3.org/1999/02/22-rdf-syntax-ns#"
   xmlns:svg="http://www.w3.org/2000/svg"
   xmlns="http://www.w3.org/2000/svg"
   xmlns:sodipodi="http://sodipodi.sourceforge.net/DTD/sodipodi-0.dtd"
   xmlns:inkscape="http://www.inkscape.org/namespaces/inkscape"
   version="1.0"
   id="Layer_1"
   width="800"
   height="400.25"
   viewBox="0 0 425.697 213.099"
   style="overflow:visible"
   xml:space="preserve"
   sodipodi:version="0.32"
   inkscape:version="0.46"
   sodipodi:docname="Flag_of_the_Sultanate_of_Lahej.svg"
   inkscape:output_extension="org.inkscape.output.svg.inkscape"><metadata
   id="metadata2487"><rdf:RDF><cc:Work
       rdf:about=""><dc:format>image/svg+xml</dc:format><dc:type
         rdf:resource="http://purl.org/dc/dcmitype/StillImage" /></cc:Work></rdf:RDF></metadata><defs
   id="defs2485"><inkscape:perspective
   sodipodi:type="inkscape:persp3d"
   inkscape:vp_x="0 : 106.5495 : 1"
   inkscape:vp_y="0 : 1000 : 0"
   inkscape:vp_z="425.69699 : 106.5495 : 1"
   inkscape:persp3d-origin="212.8485 : 71.033 : 1"
   id="perspective2489" />
	
	
</defs><sodipodi:namedview
   inkscape:window-height="712"
   inkscape:window-width="1024"
   inkscape:pageshadow="2"
   inkscape:pageopacity="0.0"
   guidetolerance="10.0"
   gridtolerance="10.0"
   objecttolerance="10.0"
   borderopacity="1.0"
   bordercolor="#666666"
   pagecolor="#ffffff"
   id="base"
   showgrid="false"
   inkscape:zoom="1"
   inkscape:cx="410.86111"
   inkscape:cy="167.12502"
   inkscape:window-x="-4"
   inkscape:window-y="-4"
   inkscape:current-layer="Layer_1" />




<g
   id="g2565"><rect
     x="-0.11739634"
     y="0.13311182"
     style="fill:#ffffff"
     width="425.93176"
     height="212.96588"
     id="rect2460" /><rect
     x="-0.11739632"
     y="0.13311866"
     style="fill:#ee3224"
     width="212.96588"
     height="212.96588"
     id="rect2462" /><g
     transform="matrix(1.0017257,0,0,1.0017257,-0.234724,-0.2504285)"
     id="g2464">
	<path
   id="path2466"
   d="M 114.16,40.37 C 114.16,32.584 111.257,21.387 106.712,16.824 C 102.168,21.387 99.264,32.585 99.264,40.37 C 99.264,47.849 101.944,50.637 106.182,54.889 C 105.658,54.675 105.151,54.468 104.662,54.265 L 104.662,196.72 C 104.662,196.96 104.856,197.153 105.095,197.153 L 108.327,197.153 C 108.566,197.153 108.761,196.96 108.761,196.72 L 108.761,54.265 C 108.272,54.468 107.765,54.675 107.241,54.889 C 111.48,50.636 114.16,47.848 114.16,40.37 z"
   style="fill:#ffffff;stroke:#ee3224;stroke-width:0.5" />
	<path
   id="path2468"
   d="M 106.712,33.645 C 107.028,35.633 107.231,40.512 107.231,43.904 C 107.231,47.296 107.029,48.473 106.712,50.461 C 106.396,48.473 106.193,47.296 106.193,43.904 C 106.194,40.511 106.396,35.633 106.712,33.645 z"
   style="fill:#ee3224" />
</g><g
     transform="matrix(1.0017257,0,0,1.0017257,-0.234724,-0.2504285)"
     id="g2472">
	<path
   id="path2474"
   d="M 79.373,87.155 L 76.916,85.573 C 75.633,84.747 73.923,85.118 73.097,86.401 L 68.827,93.035 C 69.191,92.18 69.375,90.927 69.818,89.782 C 63.506,86.24 57.471,82.903 51.252,79.203 C 51.156,79.832 51,80.474 50.787,81.12 C 51.154,78.241 49.887,75.272 47.283,73.597 C 43.673,71.273 38.865,72.316 36.542,75.925 C 34.219,79.534 35.261,84.344 38.871,86.667 C 41.475,88.343 44.701,88.267 47.17,86.74 C 46.671,87.202 46.151,87.61 45.619,87.957 C 51.577,92.096 57.127,96.218 62.979,100.506 C 63.767,99.692 64.766,99.078 65.35,98.44 L 61.219,104.859 C 60.393,106.142 60.764,107.852 62.047,108.678 L 64.504,110.259 C 65.788,111.085 67.497,110.715 68.323,109.431 L 72.249,103.331 C 71.751,104.494 71.111,105.977 70.601,107.489 C 102.83,128.164 138.451,139.34 163.094,122.652 C 135.979,125.9 102.973,109.019 79.434,93.886 C 78.196,95.024 77.038,96.302 76.138,97.288 L 80.202,90.974 C 81.027,89.691 80.657,87.981 79.373,87.155 z"
   style="fill:#ffffff;stroke:#ee3224;stroke-width:0.5" />
	<path
   id="path2476"
   d="M 74.021,100.577 L 74.438,99.929 C 102.177,117.746 127.754,125.192 145.658,125.308 C 127.783,126.587 101.771,118.412 74.021,100.577 z"
   style="fill:#ee3224" />
</g><g
     transform="matrix(1.0017257,0,0,1.0017257,-0.234724,-0.2504285)"
     id="g2478">
	<path
   id="path2480"
   d="M 133.224,90.974 L 137.288,97.288 C 136.388,96.301 135.23,95.024 133.992,93.886 C 110.452,109.018 77.447,125.9 50.332,122.652 C 74.976,139.34 110.597,128.164 142.825,107.489 C 142.315,105.977 141.675,104.494 141.177,103.331 L 145.103,109.431 C 145.929,110.714 147.639,111.085 148.922,110.259 L 151.379,108.678 C 152.662,107.852 153.032,106.142 152.207,104.859 L 148.076,98.44 C 148.66,99.078 149.659,99.691 150.447,100.506 C 156.299,96.218 161.849,92.096 167.807,87.957 C 167.274,87.609 166.754,87.202 166.256,86.74 C 168.725,88.267 171.952,88.343 174.555,86.667 C 178.165,84.344 179.207,79.534 176.884,75.925 C 174.561,72.316 169.753,71.273 166.143,73.597 C 163.539,75.272 162.272,78.241 162.639,81.12 C 162.426,80.474 162.269,79.832 162.174,79.203 C 155.954,82.903 149.919,86.24 143.608,89.782 C 144.051,90.927 144.235,92.18 144.599,93.035 L 140.329,86.401 C 139.503,85.118 137.793,84.747 136.51,85.573 L 134.053,87.155 C 132.768,87.981 132.398,89.691 133.224,90.974 z"
   style="fill:#ffffff;stroke:#ee3224;stroke-width:0.5" />
	<path
   id="path2482"
   d="M 67.767,125.309 C 85.671,125.192 111.248,117.747 138.987,99.93 L 139.404,100.578 C 111.654,118.412 85.642,126.587 67.767,125.309 z"
   style="fill:#ee3224" />
</g></g>
</svg>