<?xml version="1.0" encoding="utf-8"?>
<!-- Generator: Adobe Illustrator 15.1.0, SVG Export Plug-In . SVG Version: 6.00 Build 0)  -->
<!DOCTYPE svg PUBLIC "-//W3C//DTD SVG 1.1//EN" "http://www.w3.org/Graphics/SVG/1.1/DTD/svg11.dtd">
<svg version="1.1" id="레이어_1" xmlns="http://www.w3.org/2000/svg" xmlns:xlink="http://www.w3.org/1999/xlink" x="0px"
	 y="0px" width="2834.65px" height="1700.79px" viewBox="0 0 2834.65 1700.79" enable-background="new 0 0 2834.65 1700.79"
	 xml:space="preserve">
<rect fill="#C60D12" width="2834.65" height="1700.79"/>
<path fill="#FFFFFF" d="M1411.621,161.611l97.09,298.802l-254.179-184.671h314.177l-254.172,184.671L1411.621,161.611z"/>
<g transform="scale(0.872) translate(41,201)">
	<path fill="#18269D" d="M1584.373,783.95c-56.991,0-105.952-34.296-127.44-83.363c-0.008,0.744-0.056,1.482-0.056,2.228
		c0,70.416,57.079,127.495,127.496,127.495c70.417,0,127.499-57.08,127.499-127.495c0-0.746-0.048-1.484-0.059-2.228
		C1690.324,749.653,1641.364,783.95,1584.373,783.95z"/>
	<circle fill="#18269D" cx="1584.373" cy="668.044" r="92.724"/>
	<rect x="1293.291" y="856.97" fill="#18269D" width="101.086" height="555.582"/>
	<rect x="1774.368" y="856.97" fill="#18269D" width="101.085" height="555.582"/>
	<rect x="1453.554" y="961.625" fill="#18269D" width="261.638" height="52.321"/>
	<rect x="1453.554" y="1360.224" fill="#18269D" width="261.638" height="52.329"/>
	<polygon fill="#18269D" points="1453.555,856.97 1584.373,935.457 1715.192,856.97 	"/>
	<polygon fill="#18269D" points="1453.555,1438.716 1584.373,1517.207 1715.192,1438.716 	"/>
	<g>
		<path fill="#18269D" stroke="#C60D12" stroke-width="14" d="M1584.373,1044.95c76.584,0,138.67,62.079,138.67,138.667
			c0,76.579-62.086,138.662-138.67,138.662c-76.587,0-138.667-62.082-138.667-138.662
			C1445.706,1107.029,1507.786,1044.95,1584.373,1044.95z"/>
		<path fill="#18269D" stroke="#C60D12" stroke-width="14" d="M1584.373,1044.95c38.289,0,69.333,31.043,69.333,69.334
			s-31.044,69.334-69.333,69.334c-38.287,0-69.333,31.039-69.333,69.335c0,38.291,31.046,69.327,69.333,69.327"/>
	</g>
	<circle fill="#C60D12" cx="1584.373" cy="1114.286" r="26.164"/>
	<circle fill="#C60D12" cx="1584.373" cy="1252.954" r="26.164"/>
	<path fill="#18269D" d="M1694.698,490.62c-53.44,0-98.227-33.19-110.322-77.881c-12.094,44.691-56.883,77.881-110.314,77.881
		c-13.649,0-26.735-2.166-38.857-6.137c5.465,30.887,70.139,55.273,149.171,55.273c79.032,0,143.706-24.386,149.172-55.273
		C1721.427,488.453,1708.344,490.62,1694.698,490.62z"/>
</g>
</svg>
