<?xml version="1.0" encoding="UTF-8" standalone="no"?>
<svg
   xmlns:dc="http://purl.org/dc/elements/1.1/"
   xmlns:cc="http://creativecommons.org/ns#"
   xmlns:rdf="http://www.w3.org/1999/02/22-rdf-syntax-ns#"
   xmlns:svg="http://www.w3.org/2000/svg"
   xmlns="http://www.w3.org/2000/svg"
   version="1.1"
   id="svg2"
   viewBox="0 0 271.24378 150.93244"
   style="clip-rule:evenodd;fill-rule:evenodd;image-rendering:optimizeQuality;shape-rendering:geometricPrecision;text-rendering:geometricPrecision"
   height="534.79999"
   width="961.09998"
   xml:space="preserve"><metadata
   id="metadata46"><rdf:RDF><cc:Work
       rdf:about=""><dc:format>image/svg+xml</dc:format><dc:type
         rdf:resource="http://purl.org/dc/dcmitype/StillImage" /><dc:title></dc:title></cc:Work></rdf:RDF></metadata>
 <defs
   id="defs4">
  <style
   id="style6"
   type="text/css">
   <![CDATA[
    .str1 {stroke:#0A0B0C;stroke-width:0.2}
    .str0 {stroke:#0A0B0C;stroke-width:1.4}
    .str2 {stroke:#0A0B0C;stroke-width:1.4;stroke-linecap:round}
    .fil3 {fill:none}
    .fil2 {fill:#0A0B0C}
    .fil1 {fill:#E44F48}
    .fil0 {fill:#FCFCEC}
   ]]>
  </style>
   <clipPath
   id="id0">
    <path
   id="path9"
   d="m 11.7682,0.0178 271.274,0 c 0,50.32 0,100.64 0,150.96 l -271.274,0 c 0,-50.32 0,-100.64 0,-150.96 z" />
   </clipPath>
 </defs>
 <g
   transform="translate(-11.780754,-0.03441725)"
   id="Layer_x0020_1">
  <metadata
   id="CorelCorpID_0Corel-Layer" />
  <g
   id="g13">
  </g>
  <g
   clip-path="url(#id0)"
   id="g15">
   <g
   id="g17">
    <path
   style="fill:#fcfcec"
   id="path19"
   d="m 283.059,153.624 -271.291,0 c 0,-52.1279 0,-104.256 0,-156.384 l 271.291,0 c 0,52.1278 0,104.256 0,156.384 z"
   class="fil0" />
    <g
   id="_30508392">
     <path
   style="fill:#e44f48;stroke:#0a0b0c;stroke-width:1.39999998"
   d="m 145.154,122.874 c 0,0 2.0925,-4.6872 3.8502,-4.6872 1.7577,0 6.2326,0.9895 7.6167,-0.4185 1.3841,-1.408 4.4538,-4.8101 5.1564,-8.7048 0.7026,-3.8947 -4.7819,-4.9753 -4.7444,-12.2262 0.0375,-7.2509 1.6805,-12.8001 4.9448,-14.223 3.2643,-1.4229 13.4757,0 14.8149,4.0176 0.5859,1.7577 0.3547,3.3072 -0.1117,4.5572 -0.7779,2.0852 -4.508,5.7424 -4.3244,7.5793 0.1674,1.674 2.4699,3.0121 2.5947,6.1938 -0.5022,4.1013 -9.273,15.7778 -12.0528,17.6355 -3.0251,0.0138 -17.7444,0.2763 -17.7444,0.2763 z"
   class="fil1 str0"
   id="_30509376" />
     <path
   style="fill:#e44f48;stroke:#0a0b0c;stroke-width:1.39999998"
   d="m 117.29,100.535 c 0,0 -1.3349,1.0014 -4.3391,3.8387 -3.0042,2.8373 -11.0141,20.1947 -13.5176,20.3616 -2.5035,0.1669 -22.7,-0.0201 -22.7,-0.0201 0,0 3.1285,-6.0974 5.7139,-6.5978 2.5854,-0.5004 6.0882,0.6672 7.1724,0 1.0842,-0.6672 6.8095,-10.1552 9.8125,-16.7484 1.0014,-7.6774 -1.0018,-8.1776 1.3348,-16.3557 2.3366,-8.1781 19.2472,-26.7091 26.4309,-21.7021 7.1837,5.007 9.0227,5.5562 15.4198,5.1377 13.4767,-3.4304 26.9806,-3.4243 37.5254,1.5563 0.6282,0.2967 4.5873,2.987 9.6355,3.9195 3.236,0.5977 7.2148,0.768 10.0809,-1.8469 3.6427,-3.3234 3.7048,-5.7795 -0.276,-9.0708 -1.6344,-1.3514 -3.6368,-2.3315 -6.8814,-3.2696 -6.9221,-2.0014 -15.7626,-2.2518 -19.182,-6.0882 -3.4194,-3.8364 -4.6704,-8.2566 -2.085,-12.927 2.5854,-4.6704 9.174,-5.7546 13.1772,-4.9206 4.0032,0.834 6.7554,1.3343 8.9238,0.9174 2.475,-0.4759 5.4155,-1.4914 9.1327,-1.5748 1.3991,-0.0314 4.727,0.6291 6.3789,-0.4954 0,0.5824 -0.3211,1.9301 -1.4651,2.5333 -1.144,0.6032 -4.2243,-0.7731 -5.7437,0.7245 5.6026,0.0359 2.9395,4.5614 6.3639,5.5386 -3.7093,2.2713 -4.5818,-1.7171 -7.536,0.1126 1.0592,1.04 0.584,1.2538 0.9591,2.1684 0.843,2.0557 2.7765,1.8995 3.4178,4.6089 -1.2418,-0.418 -2.8344,0.1037 -3.9182,-0.5223 -1.4816,-0.8557 -2.0436,-1.8627 -3.7113,-2.2101 0.0915,0.4476 0.0585,2.2509 0.5108,3.164 -1.1584,-0.2495 -1.7149,-0.5934 -2.0954,-1.0373 -0.5004,-0.5838 -0.5421,-0.9174 -0.834,-1.7097 -0.2919,-0.7923 -0.2502,-1.1259 -1.2093,-1.7931 -0.9591,-0.6672 -1.2093,-0.5004 -1.8765,-1.0842 -0.6672,-0.5838 -0.9591,-1.2927 -1.251,-1.6263 -0.2919,-0.3336 -1.1676,-1.251 -1.5846,-1.7931 -0.417,-0.5421 -3.5029,-2.1267 -6.13,-2.085 -2.6271,0.0417 -9.9662,2.1267 -8.6735,7.089 1.2927,4.9623 4.7107,6.0172 9.0072,6.5886 3.6927,0.4911 4.6718,-0.5006 8.3799,0.25 1.2537,-0.747 1.2759,-1.6145 4.0467,-0.7087 0,0 -1.5012,1.668 -0.5838,2.5437 1.4374,-0.7675 3.0019,-0.9385 4.8784,-0.6049 -0.8899,1.2072 -1.4972,1.9199 -1.4972,2.2527 1.714,-0.6161 2.596,-0.2963 3.4573,0.0235 l 0.4173,2.5404 c 0.5803,-0.1568 1.5779,-0.1149 2.2312,0.0523 l -0.2713,1.6574 c 0.4864,-0.2717 1.2755,-0.1359 1.8454,0 l -0.0208,1.4696 c 0,0 4.347,8.2048 -2.7837,12.9586 -7.1307,4.7538 -10.0367,4.5894 -10.0367,4.5894 0,0 -1.1964,5.0904 0.9731,8.4283 0.9491,1.4602 1.6468,1.5156 3.0771,2.9159 3.2053,3.1383 6.931,7.5112 10.6929,9.8526 -0.2451,0.7354 0.9296,11.0422 0.9107,16.829 -0.003,0.9872 0.2601,6.3633 -2.1136,6.2799 -2.0051,0.1508 -19.3495,-0.1061 -19.3495,-0.1061 0,0 0.7506,-5.0874 2.919,-5.6712 2.1684,-0.5838 6.8388,0.0834 8.0898,-0.3336 1.251,-0.417 4.0866,-1.5012 3.5028,-5.3376 -0.5838,-3.8364 -1.3344,-5.5044 -3.2526,-5.9214 -1.9182,-0.417 -8.7318,-3.1518 -12.4036,-6.156 -3.6718,-3.0042 -12.6844,-10.0977 -15.6886,-10.9322 -3.0042,-0.8345 -3.8387,-2.1697 -9.8471,0.5007 -6.0084,2.6704 -12.0145,7.9259 -19.0243,8.5935 -7.0098,0.6676 -17.0261,-2.9189 -24.5366,1.2536 z"
   class="fil1 str0"
   id="_30509304" />
     <path
   style="fill:#e44f48;stroke:#0a0b0c;stroke-width:1.39999998"
   d="m 99.9275,124.493 c 0,0 2.5125,-5.9452 4.8575,-5.9452 2.345,0 8.04,1.1725 9.2125,-0.5025 1.1725,-1.675 3.5175,-9.5336 3.5175,-14.405 0,-4.8714 -1.5075,-9.715 3.685,-15.41 5.1925,-5.695 16.1434,-8.9804 16.1434,-8.9804 0,0 2.1597,0.3723 1.1024,3.8369 -1.0573,3.4646 -11.4173,37.4095 -11.4173,37.4094 0,-1e-4 -1.41,3.5746 -3.5355,4.1207 -2.1255,0.5461 -23.5655,-0.1239 -23.5655,-0.1239 z"
   class="fil1 str0"
   id="_30509232" />
     <path
   style="fill:#e44f48;stroke:#0a0b0c;stroke-width:1.39999998"
   d="m 102.327,40.2115 c -4.4603,4.5278 -2.6254,6.7062 -4.7189,10.4732 -2.0935,3.767 -3.8774,10.2428 -4.0449,12.7553 -0.1675,2.5125 1.11,9.8339 3.7268,15.7027 2.6168,5.8688 3.9792,8.4186 5.4021,9.8415 1.4229,1.4229 8.0395,2.6792 8.7931,6.4474 1.6443,-2.1823 0.9183,-3.786 2.5972,-4.9396 1.1304,2.762 2.7004,3.3895 3.8699,5.3565 2.9512,-3.4276 4.9225,-6.0273 4.9229,-8.6229 2.0932,0.1662 6.0297,-0.754 8.6256,-0.6708 1.066,-1.3856 0.7527,-2.9766 0.9476,-4.7181 1.5662,0.3393 4.6086,0.3532 6.2542,0.409 0.2902,-1.3407 0.6297,-4.6941 0.7551,-5.5732 0.3347,-2.3448 0.5859,-5.695 -0.2516,-7.705 -0.8375,-2.01 -3.2659,-5.5275 -3.6009,-7.705 -0.335,-2.1775 0.1675,-5.5275 -0.8375,-7.2025 -1.005,-1.675 -1.914,-6.7519 -2.7995,-8.8197 -0.8855,-2.0678 -12.8253,-15.5296 -29.6412,-5.0288 z"
   class="fil1 str0"
   id="_30509160" />
     <path
   style="fill:#e44f48;stroke:#0a0b0c;stroke-width:1.39999998"
   d="m 104.953,42.67 -0.335,10.8875 c 0,0 0.1933,3.947 -0.6437,5.0351 -0.837,1.0881 -1.4228,3.7666 -1.2554,5.0221 0.1674,1.2555 1.1717,3.0968 2.0924,3.6827 0.9207,0.5859 1.9251,5.022 1.9251,5.6916 0,0.6696 0.1674,3.1806 0.1674,3.1806 l 3.5991,-3.4317 c 0,0 1.0448,3.723 3.5356,3.5355 2.4908,-0.1875 5.504,0.5658 6.0899,-0.6897 0.5859,-1.2555 2.4273,-2.5947 2.4273,-2.5947 l 1.7678,1.7678 c 0,0 1.7476,-1.6004 1.9987,-3.2744 0.2511,-1.674 0.3348,-5.5242 0.7533,-6.7797 0.4185,-1.2555 2.2599,-3.7665 1.9251,-5.1894 -0.3348,-1.4229 -1.674,-2.4273 -1.0044,-4.2687 0.6696,-1.8414 -0.5911,-6.1279 0.1586,-8.8063 0.7497,-2.6784 -8.7797,-12.9557 -23.2018,-3.7683 z"
   class="fil1 str0"
   id="_30509088" />
     <path
   style="fill:#e44f48;stroke:#0a0b0c;stroke-width:1.39999998"
   d="m 104.45,45.015 c 0,0 13.6543,-5.2765 23.7043,1.4233 3.187,-9.5881 5.2263,-14.5075 7.5214,-17.6878 -2.5074,0.8059 -6.5447,2.4847 -13.9215,3.5336 -1.7889,-0.2904 -4.3518,-2.5384 -6.0817,-6.0291 -1.4117,1.8302 -2.5303,3.9534 -5.03,5.5324 -4.5852,0.3348 -10.0911,-1.0045 -14.6763,-1.1719 L 104.45,45.015 Z"
   class="fil1 str0"
   id="_30509016" />
     <path
   style="fill:#0a0b0c;stroke:#0a0b0c;stroke-width:0.2"
   d="m 122.463,36.7257 c 1.1085,0.1225 2.2084,0.2504 3.2855,0.396 1.0622,0.1436 2.1117,0.301 3.145,0.457 -0.2835,0.5234 -0.5435,1.0446 -0.77,1.5679 -0.2249,0.5195 -0.4339,1.0437 -0.6546,1.5648 -0.8778,-0.2436 -1.7753,-0.4814 -2.7061,-0.6799 -0.9404,-0.2006 -1.9186,-0.3601 -2.9067,-0.5108 0.0752,-0.4651 0.1345,-0.9317 0.2232,-1.3957 0.0892,-0.4663 0.2307,-0.932 0.3837,-1.3993 z m -18.6492,1.4499 c 1.0006,-0.2359 2.0208,-0.4785 3.0672,-0.7023 1.0628,-0.2273 2.1619,-0.4314 3.2754,-0.6234 0.0527,0.4544 0.1047,0.9103 0.2307,1.3603 0.1273,0.4546 0.316,0.9036 0.4766,1.3558 -0.9807,0.1986 -1.9396,0.4132 -2.8692,0.6373 -0.9086,0.2189 -1.8032,0.4332 -2.6835,0.6242 -0.3009,-0.4413 -0.6346,-0.8756 -0.8953,-1.3234 -0.2537,-0.4358 -0.4214,-0.8849 -0.6019,-1.3285 z m 8.9885,-1.6719 c 1.1662,-0.0937 2.3425,-0.1637 3.5187,-0.1565 1.1691,0.0071 2.3399,0.0731 3.4961,0.1439 -0.1078,0.462 -0.2081,0.9217 -0.2533,1.3822 -0.045,0.4586 -0.0476,0.919 -0.0727,1.3783 -1.0383,-0.0789 -2.0884,-0.1486 -3.135,-0.166 -1.0529,-0.0175 -2.1067,0.0363 -3.15,0.1256 -0.1053,-0.4507 -0.2393,-0.8998 -0.316,-1.3517 -0.0763,-0.4494 -0.0828,-0.9033 -0.0878,-1.3558 z"
   class="fil2 str1"
   id="_30508944" />
     <g
   id="g29">
      <polygon
   style="fill:#e44f48;stroke:#0a0b0c;stroke-width:1.39999998"
   points="150.511,37.5002 124.113,124.54 128.132,124.525 153.528,38.1485 "
   class="fil1 str0"
   id="_30508872" />
      <polygon
   style="fill:#e44f48;stroke:#0a0b0c;stroke-width:1.39999998"
   points="144.201,29.0919 144.495,25.5826 146.269,22.5833 154.14,26.9896 154.876,17.9589 158.385,18.2532 161.384,20.0271 156.978,27.8981 166.009,28.6336 165.714,32.143 163.94,35.1422 156.069,30.736 155.334,39.7667 151.825,39.4724 148.825,37.6985 153.232,29.8274 "
   class="fil1 str0"
   id="_30508800" />
      <circle
   style="fill:#e44f48;stroke:#0a0b0c;stroke-width:1.39999998"
   r="2.3429999"
   cy="28.754601"
   cx="155.071"
   class="fil1 str0"
   id="_30508728" />
     </g>
     <path
   style="fill:none;stroke:#0a0b0c;stroke-width:1.39999998;stroke-linecap:round"
   d="m 104.839,67.0686 c 0,0 1.7223,1.4421 4.012,1.4194 1.9231,-0.019 6.3193,-0.3266 6.3193,-3.2055 0,-3.685 0.017,-1.7791 0.0126,-2.0254 -0.298,4.8747 3.0237,5.6394 4.5971,5.7298 0.4815,0.0277 2.0494,-0.0166 3.093,-0.6749"
   class="fil3 str2"
   id="_30508680" />
     <polygon
   style="fill:#0a0b0c"
   points="115.17,65.2825 119.375,62.1917 110.837,62.3591 "
   class="fil2"
   id="_30508608" />
     <path
   style="fill:none;stroke:#0a0b0c;stroke-width:1.39999998;stroke-linecap:round"
   d="m 106.284,52.6354 c 0,0 5.3504,0.0418 5.5176,0.6688 0.1672,0.627 0.0997,3.1789 0.0997,3.1789"
   class="fil3 str2"
   id="_30508584" />
     <path
   style="fill:none;stroke:#0a0b0c;stroke-width:1.39999998;stroke-linecap:round"
   d="m 117.449,49.8839 c 0,0 -0.5434,2.3826 0.3762,3.0932 0.9196,0.7106 1.881,0.2508 7.0642,-0.209"
   class="fil3 str2"
   id="_30508560" />
     <path
   style="fill:#0a0b0c"
   d="m 117.528,55.0324 c 0,0 0.7304,-1.6287 3.0783,-1.4542 2.3479,0.1745 4.174,1.5123 4.174,1.5123 0,0 -2.8696,0.9307 -4.1218,0.9307 -1.2522,0 -3.1305,-0.9888 -3.1305,-0.9888 z"
   class="fil2"
   id="_30508488" />
     <path
   style="fill:#0a0b0c"
   d="m 111.853,54.844 c 0,0 -0.6657,-1.8099 -2.8054,-1.616 -2.1397,0.1939 -3.8039,1.6806 -3.8039,1.6806 0,0 2.6152,1.0343 3.7564,1.0343 1.1411,0 2.8529,-1.0989 2.8529,-1.0989 z"
   class="fil2"
   id="_30508416" />
    </g>
    <line
   style="fill:none;stroke:#0a0b0c;stroke-width:1.39999998;stroke-linecap:round"
   id="line40"
   y2="41.350399"
   x2="190.35201"
   y1="38.002399"
   x1="191.85899"
   class="fil3 str2" />
   </g>
  </g>
  <path
   style="fill:none"
   id="path42"
   d="m 11.7682,0.0178 271.274,0 c 0,50.32 0,100.64 0,150.96 l -271.274,0 c 0,-50.32 0,-100.64 0,-150.96 z"
   class="fil3" />
 </g>
</svg>