<svg xmlns="http://www.w3.org/2000/svg" version="1" width="825.429" height="550.286"><path d="M0 275.143V0h825.429v550.286H0V275.143z" fill="#fff"/><path d="M189.624 399.635c-22.906-6.16-35.453-24.631-35.44-52.172.008-17.525 8.816-51.21 13.39-51.21 1.38 0 .576 3.727-1.787 8.28-2.364 4.554-4.785 16.305-5.38 26.113-1.456 23.971 5.444 37.645 23.706 46.978 10.79 5.514 15.869 6.416 35.52 6.306 14.168-.08 28.767-1.856 38.213-4.652 19.346-5.725 52.227-20.793 52.227-23.932 0-1.31-5.23-2.972-11.623-3.692-26.161-2.949-38.57-31.745-27.579-64.001 5.35-15.704 7.206-13.777 2.332 2.421-6.467 21.488 3.118 41.592 21.592 45.287 11.216 2.243 15.288-.287 15.203-9.445-.09-9.693-7.32-112.135-9.246-131.025-1.468-14.39.72-28.237 3.867-24.476 3.96 4.733 8.275 27.285 5.543 28.974-3.143 1.942 4.56 124.636 8.077 128.663 3.48 3.982 24.105-8.399 35.435-21.27 12.845-14.594 12.31-20.374-2.283-24.665-6-1.764-12.592-4.604-14.65-6.311-5.483-4.552-4.814-23.519 1.089-30.808 4.11-5.075 5.875-5.592 11.86-3.467 4.142 1.47 9.067 6.424 11.981 12.05 5.82 11.236 10.469 11.9 22.283 3.185 11.121-8.206 12.254-8.042 13.213 1.91 1.052 10.907 9.512 12.581 16.794 3.323 5.777-7.344 8.207-8.193 8.207-2.868 0 4.775 6.984 11.646 11.838 11.646 2.593 0 3.682-2.263 3.37-7.006-1.371-20.785 3.544-20.3 7.508.742 2.111 11.208 1.776 13.28-2.97 18.366-6.667 7.145-11.446 7.237-18.762.364-5.345-5.02-6.092-5.103-11.559-1.274-8.744 6.125-11.994 5.067-16.778-5.46-2.388-5.254-4.63-10-4.984-10.545-1.018-1.57-18.876 12.674-19.947 15.91-.53 1.604-2.24 7.892-3.798 13.974-3.22 12.567-17.276 29.16-37.188 43.902-8.684 6.43-13.5 12.034-14.458 16.829-1.58 7.902-25.055 26.24-42.072 32.867l-9.426 3.67 9.94-1.488c5.466-.818 19.366-4.9 30.889-9.069 20.493-7.415 20.978-7.786 22.243-17.008.711-5.186 3.044-13.44 5.185-18.345 3.882-8.89 3.889-8.866 2.48 8.28-1.012 12.297-.56 17.196 1.586 17.196 5.357 0 27.885-12.523 37.13-20.64 10.35-9.088 10.978-13.043 3.906-24.642-4.909-8.051-6.95-20.956-3.314-20.956.974 0 4.986 3.08 8.916 6.846 5.408 5.18 7.146 9.232 7.146 16.66 0 16.66-7.57 27.388-29.107 41.252-12.38 7.969-18.574 13.413-17.025 14.963 7.562 7.562 69.06-34.438 69.06-47.165 0-6.663-11.546-29.589-18.961-37.651-3.222-3.503-6.64-9.674-7.594-13.714l-1.736-7.345 8.414 7.052c10.46 8.766 18.861 22.932 32.97 55.588 8.336 19.296 12.845 26.565 18.691 30.13 10.386 6.334 10.854 6.143 11.905-4.836.898-9.385.758-9.554-7.953-9.554-6.944 0-9.014-1.105-9.542-5.095-.674-5.095-.674-5.095 1.584 0 2.161 4.875 2.373 4.82 4.912-1.274 1.882-4.516 2.701-5.072 2.816-1.91.088 2.452 1.307 4.458 2.709 4.458 1.4 0 2.68-2.006 2.843-4.458.271-4.097.392-4.086 1.488.14 1.468 5.665 5.498 4.57 10.41-2.828l3.713-5.592h-39.472l1.619-8.094c.89-4.452 2.084-8.56 2.653-9.129.569-.569 12.308-6.958 26.086-14.197l25.052-13.164 1.34-11.464c.737-6.305 2.238-12.897 3.335-14.649 4.495-7.175 37.361-.308 37.361 7.807 0 5.409-9.661 16.628-18.058 20.97-4.08 2.11-7.418 5.567-7.418 7.682 0 3.052-1.048 3.285-5.079 1.128-4.037-2.161-9.13-1.004-24.839 5.642l-19.76 8.36 39.784 1.274 39.785 1.274-2.125 5.732c-1.17 3.153-2.803 5.733-3.63 5.733-8.467 0-39.835 6.505-45.79 9.495-11.774 5.913-19.108 13.714-19.108 20.326 0 6.101.958 6.782 13.375 9.502 5.315 1.165 7.006 3.04 7.006 7.766 0 8.288-8.27 12.427-21.385 10.704-8.306-1.091-12.648-3.778-21.086-13.048-5.844-6.42-12.592-16.822-14.995-23.114-2.403-6.293-5.113-11.441-6.021-11.441-.909 0-3.666 3.408-6.126 7.573-2.46 4.165-11.071 12.65-19.135 18.855-8.064 6.205-16.253 13.199-18.197 15.542-4.834 5.824-21.528 14.078-28.475 14.078-3.132 0-8.623-2.781-12.202-6.18l-6.509-6.18-12.995 5.543c-10.612 4.526-16.84 5.39-33.952 4.706-16.844-.673-20.684-1.548-19.567-4.459.765-1.991 1.136-3.62.825-3.62-.311 0-8.583 2.292-18.382 5.094-20.245 5.79-35.336 6.211-52.937 1.477zm319.163-111.063c3.397-2.23 3.397-2.788 0-5.017-2.102-1.38-5.687-2.527-7.968-2.548-4.803-.045-10.616 6.004-8.145 8.475 2.484 2.484 11.74 1.96 16.113-.91zm-157.953-24.928c0-3.627-5.99-8.152-10.79-8.152-3.885 0-4.214.86-1.948 5.095 2.608 4.872 12.738 7.304 12.738 3.057zm30.572 132.666c0-4.053 1.433-9.326 3.184-11.72 2.732-3.731 3.176-2.83 3.125 6.327-.035 6.12-1.394 11.123-3.185 11.72-1.987.662-3.124-1.64-3.124-6.327zm120.099.959c-3.402-3.622-6.763-12.117-8.51-21.512l-2.888-15.528-8.804 3.68c-11.006 4.598-12.116 4.596-8.29-.013 1.684-2.03 6.983-4.985 11.775-6.567 5.265-1.737 8.729-4.562 8.752-7.136.032-3.49.45-3.61 2.317-.663 1.913 3.023 4.361 2.701 15.322-2.014 7.175-3.087 14.004-5.02 15.177-4.295 1.172.724 4.181-.949 6.688-3.718 6.42-7.094 8.05-6.36 10.054 4.518 3.132 17.015 10.72 31.019 18.413 33.978 12.63 4.86 29.718 3.12 47-4.784 22.406-10.248 24.47-13.253 27.548-40.124 3.856-33.661 3.433-53.402-1.227-57.27-2.135-1.772-4.681-2.423-5.658-1.447-.976.977-2.424 14.037-3.217 29.024-2.241 42.36-6.512 42.41-5.462.066 1.02-41.06-.505-45.31-12.224-34.082l-7.55 7.233 6.577 11.223c9.571 16.33 7.43 29.346-6.94 42.172-19.96 17.816-37.018 9.69-33.723-16.064 1.612-12.598 6.015-22.74 12.043-27.743 2.195-1.821 3.99-4.31 3.99-5.531 0-3.06-20.577-17.717-22.877-16.295-1.023.632-2.636 12.414-3.584 26.181-2.894 42.018-6.692 44.702-4.964 3.509 1.232-29.36.85-37.002-1.932-38.722-2.147-1.327-5.067-.696-7.668 1.658-2.31 2.091-8.381 4.48-13.49 5.31-10.457 1.696-17.077-2.647-23.773-15.596l-3.885-7.513-4.527 8.78c-6.502 12.61-16.132 20.824-23.235 19.819-8.26-1.17-19.601-24.511-23.197-47.742-1.538-9.938-3.6-18.07-4.58-18.07-4.343 0-8 8.52-10.58 24.642-1.53 9.567-3.896 18.827-5.259 20.579-7.913 10.17-22.456-5.474-21.907-23.566l.31-10.19 1.775 10.92c.977 6.006 3.642 12.786 5.923 15.067 6.217 6.218 11.202.585 14.714-16.63 3.768-18.464 12.327-38.655 16.386-38.655 2.02 0 3.725 6.145 4.774 17.197 2.208 23.257 5.708 34.683 13.436 43.867 19.08 22.676 40.876-10.028 27.7-41.564-2.102-5.03-3.741-12.908-3.642-17.507l.18-8.362 5.09 11.465c2.8 6.305 6.807 18.845 8.904 27.866 5.054 21.743 6.899 24.685 17.706 28.252 14.055 4.639 16.562-.347 5.193-10.328-5.785-5.08-9.23-10.382-9.23-14.209 0-3.358.947-6.105 2.104-6.105 3.072 0 13.182 11.293 13.182 14.723 0 1.612 2.293 4.158 5.096 5.658 7.696 4.119 6.682-3.664-3.994-30.662-11.132-28.15-10.816-33.068 1.446-22.51 5.61 4.831 7.754 8.156 5.78 8.966-2.429.998-2.3 3.29.569 10.157 2.038 4.878 4.459 14.821 5.38 22.096 3.046 24.053 5.312 20.527 6.74-10.49 1.713-37.165 5.076-46.325 8.715-23.733 1.742 10.817 1.67 15.752-.236 16.388-1.555.518-3.11 10.187-3.614 22.478l-.886 21.57 9.794 6.695c5.386 3.683 14.126 8.727 19.42 11.21l9.626 4.514 6.926-6.925 6.925-6.926-16.907-15.872c-22.137-20.783-27.55-35.484-9.43-25.61 5.159 2.81 8.52 6.6 8.52 9.607 0 4.687 19.151 21.785 24.4 21.785 3.114 0 3.044-17.166-.074-18.258-1.334-.467-3.144-8.874-4.024-18.683-1.159-12.929-.853-16.782 1.112-14.011 1.49 2.101 2.883 7.26 3.095 11.464.211 4.203 1.243-.495 2.292-10.441 2.385-22.614 4.889-31.307 7.568-26.278 3.584 6.727 5.474 22.707 2.686 22.707-2.94 0-3.84 43.83-.959 46.712.938.937 3.804-.196 6.37-2.518 3.915-3.544 4.664-8.223 4.664-29.137 0-24.667 2.975-39.597 7.35-36.893 3.782 2.337 6.097 19.823 2.887 21.807-1.76 1.088-2.571 7.602-2.096 16.825l.776 15.05 5.732-5.733c4.563-4.563 5.732-8.607 5.732-19.826 0-7.751 1.884-18.356 4.187-23.565l4.187-9.472 2.16 11.464c1.37 7.268 1.236 11.775-.365 12.314-1.39.467-2.526 3.82-2.526 7.45v6.6l6.788-6.176c6.63-6.033 6.593-5.83-1.618 8.747l-8.405 14.922 1.829 36.023c1.006 19.813 2.702 37.173 3.77 38.578 1.067 1.405 3.482 8.24 5.365 15.19 3.414 12.6 3.43 12.615 5.694 5.095 1.25-4.147 2.61-38.056 3.026-75.353.461-41.446 1.801-69.677 3.446-72.607 3.018-5.377 4.192-3.46 6.428 10.491.674 4.204 1.918 10.509 2.765 14.012.847 3.503.859 4.936.026 3.184-4.248-8.933-5.504 2.282-7.013 62.629-1.227 49.08-2.636 68.62-5.54 76.851-4.475 12.682-21.262 34.034-37.282 47.418-13.134 10.973-17.003 12.588-35.326 14.741l-14.012 1.647 14.012-7.446c26.566-14.117 56.782-38.769 63.69-51.961 4.353-8.314 5.48-12.749 3.561-14.012-1.544-1.017-4.952-6.41-7.573-11.985l-4.765-10.137-3.377 12.684c-1.857 6.977-4.39 14.977-5.63 17.78-2.073 4.689-2.265 4.587-2.41-1.274-.086-3.503.959-13.184 2.322-21.513 2.095-12.79 1.833-15.859-1.683-19.744-2.29-2.53-4.968-4.6-5.952-4.6-.983 0-2.577 11.454-3.541 25.453-2.999 43.535-10.13 58.278-35.584 73.558-10.9 6.543-18.107 8.878-30.473 9.87-15.33 1.23-16.56.909-23.006-6.023-6.025-6.479-16.913-30.115-16.913-36.716 0-4.423-4.901-2.568-8.755 3.314-2.078 3.17-5.084 12.055-6.681 19.744-3.236 15.578-8.46 25.443-13.476 25.443-1.825 0-5.849-2.694-8.941-5.985zm18.05-29.53c3.82-11.826 6.686-21.718 6.368-21.982-.317-.264-7.169 2.392-15.225 5.904l-14.65 6.383v11.308c0 14.583 3.79 21.708 11 20.681 4.532-.645 6.845-4.767 12.506-22.294zm-15.863 6.425c0-4.932 2.731-11.672 4.73-11.672.901 0 1.639 3.439 1.639 7.643 0 4.415-1.345 7.642-3.185 7.642-1.751 0-3.184-1.625-3.184-3.613zm99.994-56.866c6.238-5.598 5.551-14.025-1.79-21.946-8.137-8.78-14.73-8.522-22.647.888-9.942 11.816-10.994 17.972-4.034 23.608 6.813 5.517 20.886 4.257 28.47-2.55zm55.41-63.524v-29.742l-6.369 5.984c-5.619 5.278-6.369 8.086-6.369 23.845 0 14.833.94 18.862 5.54 23.758 3.046 3.243 5.912 5.897 6.369 5.897.456 0 .83-13.384.83-29.742zm-21.424-7.818c-2.371-2.37-9.147 4.83-9.147 9.721 0 2.561 2.006 5.789 4.458 7.173 3.835 2.164 4.571 1.255 5.265-6.498.443-4.958.184-9.636-.576-10.396zM233.81 366.39c4.42-4.345 40.596-14.668 40.596-11.584 0 2.125-13.956 7.243-34.227 12.552-8.638 2.263-9.518 2.129-6.369-.968zm334.846-.633c1.401-1.419 10.573-5.488 20.38-9.043 28.17-10.21 34.394-11.944 34.394-9.586 0 1.213-11.178 5.908-24.84 10.433-13.661 4.524-26.558 8.8-28.66 9.501-2.564.855-2.983.426-1.274-1.305zm-382.138-11.358c-5.667-8.563-6.593-11.914-4.744-17.171 2.908-8.27 11.108-10.446 11.108-2.947 0 2.905-1.652 5.282-3.671 5.282-6.796 0-6.928 5.148-.333 12.986 5.805 6.898 8.32 12.49 5.616 12.49-.514 0-4.103-4.788-7.976-10.64zm28.282-36.188c-1.74-43.412-2.095-45.71-8.054-52.137-7.45-8.033-10.57-16.836-14.687-41.423-1.699-10.144-4.405-18.882-6.014-19.418-1.78-.594-4.074 4.81-5.862 13.814-6.055 30.495-7.56 34.275-13.308 33.418-9.452-1.41-15.287-12.737-16.694-32.407-.724-10.112-.271-18.066 1.027-18.066 1.276 0 1.924 4.299 1.44 9.553-2.168 23.522 13.531 42.193 19.401 23.074 1.423-4.634 3.364-14.142 4.314-21.13 1.839-13.53 7.467-26.783 11.374-26.783 1.302 0 2.995 4.3 3.763 9.554 5.048 34.541 9.623 48.887 16.284 51.06 2.812.918 3.07-2.994 1.42-21.466-2.458-27.522-2.288-33.82 1.003-37.111 2.98-2.98 11.867 24.583 9.278 28.772-.887 1.436-.822 10.49.145 20.121 1.484 14.78 2.416 17.281 5.975 16.04 15.1-5.266 17.075-25.442 4.854-49.618-5.475-10.833-8.007-19.156-7.476-24.576l.803-8.195 5.788 10.894c3.183 5.992 8.425 18.92 11.649 28.727 8.552 26.021 14.49 36.628 21.49 38.385 10.942 2.746 17.804.272 20.487-7.385 2.187-6.246.912-10.381-9.503-30.802-15.343-30.085-16.3-43.616-2.01-28.404 3.197 3.403 5.277 7.702 4.622 9.554-.654 1.852 1.49 8.723 4.765 15.27 8.302 16.594 11.187 31.113 8.277 41.652-2.574 9.325-10.537 16.504-18.303 16.504-8.396 0-19.298-9.961-22.463-20.525-2.564-8.561-5.736-11.338-6.14-5.376-.846 12.516-5.029 21.644-12.734 27.793l-8.805 7.025-.18 39.488c-.253 56.001-3.75 58.434-5.926 4.124zm169.154 38.85c0-.831 3.412-5.806 7.584-11.055 5.832-7.339 7.02-10.599 5.142-14.108-1.825-3.409-1.401-4.963 1.674-6.143 7.256-2.785 2.198 16.218-6.68 25.097-4.246 4.246-7.72 7.04-7.72 6.209zm-36.405-7.305c-.732-2.8-.264-5.752 1.04-6.558 1.305-.806 2.057-.52 1.672.634-.385 1.155.394 2.673 1.732 3.374 1.338.7 3.23-1.592 4.205-5.095 1.117-4.018 1.865-4.723 2.025-1.91.366 6.418 4.796 5.493 6.1-1.275.791-4.112 1.201-3.374 1.45 2.61.282 6.771-.885 8.812-6.188 10.828-9.143 3.477-10.523 3.178-12.036-2.608zm298.83 3.182c.013-1.05 5.81-4.974 12.885-8.718 14.947-7.91 15.754-3.6.908 4.855-10.62 6.048-13.827 6.946-13.792 3.863zm-395.773-4.905c-2.787-2.787-1.879-20.782 1.144-22.65 1.96-1.212 2.287.683 1.071 6.219-1.382 6.294-.906 7.961 2.275 7.961 2.213 0 4.024 1.006 4.024 2.236 0 3.34-6.585 8.163-8.514 6.234zm87.49-9.755c0-1.96 20.794-11.89 22.12-10.563.685.685-1.069 2.483-3.897 3.997-7.601 4.068-18.223 7.895-18.223 6.566zm82.798-31.743c6.016-6.787 39.903-24.447 38.043-19.825-1.123 2.79-32.355 21.878-40.194 24.565-1.62.555-.651-1.578 2.151-4.74zm37.823-11.276c5.39-4.888 9.128-9.973 8.308-11.3-.82-1.328.215-3.83 2.302-5.562 3.221-2.674 3.793-1.95 3.793 4.807 0 5.058-1.278 7.954-3.51 7.954-1.93 0-4.988 1.783-6.796 3.96-1.808 2.18-5.674 5.101-8.591 6.494-2.918 1.393-.895-1.466 4.494-6.353zm-275.934-2.717c-2.506-3.02-2.629-6.413-.532-14.675 1.5-5.91 2.216-11.259 1.59-11.885-.626-.626-8.165.815-16.754 3.203-21.735 6.043-21.986 3.14-.287-3.322 21.825-6.5 24.604-6.602 22.316-.818-4.08 10.316-4.595 21.548-1.088 23.715 2.541 1.57 2.76 2.964.776 4.948-1.984 1.984-3.68 1.655-6.021-1.166zm351.781-5.63c.166-2.568 1.177-8.11 2.247-12.313 1.935-7.607 1.946-7.598 2.246 1.91.166 5.255.301 10.414.301 11.465 0 1.05-1.146 2.293-2.547 2.76-1.402.467-2.412-1.253-2.247-3.822zm25.175-4.37c0-3.503 1.003-6.989 2.23-7.746 1.225-.758 2.229 1.488 2.229 4.991 0 3.503-1.004 6.99-2.23 7.747-1.226.758-2.229-1.489-2.229-4.992zm-109.964-21.74c-.523-5.488-.197-9.51.725-8.941 2.328 1.439 4.172 18.916 1.995 18.916-.972 0-2.196-4.489-2.72-9.976zm120.774-19.475c-2.28-7.427-2.177-8.566.564-6.291 3.648 3.027 6.848 15.36 3.986 15.36-.972 0-3.02-4.08-4.55-9.07zm102.903-9.192c-2.626-8.128-3.36-14.134-1.908-15.586 1.453-1.453 3.522 3.218 5.371 12.122 3.866 18.62 2.026 20.46-3.463 3.464zm-355.713 1.73c-1.987-2.394-2.536-7.062-1.487-12.649 2.347-12.513 6.358-13.699 4.707-1.392-.897 6.692-.377 10.192 1.516 10.192 1.586 0 2.883 1.72 2.883 3.821 0 4.886-3.577 4.899-7.62.028zm45.834 2.563c0-.677 5.768-4.154 12.818-7.727 10.052-5.094 13.149-8.147 14.349-14.145.841-4.208 3.67-8.796 6.288-10.197 4.005-2.143 4.752-1.624 4.713 3.275-.049 6.204-12.944 18.433-27.215 25.81-8.49 4.389-10.953 5.06-10.953 2.984zm76.677-6.793c-3.837-11.008-3.568-11.478 2.299-4.02 5.402 6.868 6.604 12.043 2.797 12.043-1.265 0-3.557-3.61-5.096-8.023zm-22.174-15.964c-.76-1.983-.896-6.856-.301-10.827 1.047-6.988 1.094-6.954 1.463 1.058.21 4.554 1.529 8.28 2.93 8.28a2.555 2.555 0 0 1 2.547 2.548c0 3.856-5.062 3.049-6.639-1.059zm164.533-10.476c-1.634-1.969-2.38-5.051-1.657-6.85.826-2.055 1.388-1.614 1.515 1.188.314 6.97 7.138 5.228 9.978-2.547 2.321-6.356 2.577-6.474 2.76-1.274.119 3.385 1.813 5.732 4.138 5.732 3.124 0 3.62-1.973 2.401-9.553-1.231-7.66-.97-8.66 1.316-5.04 1.568 2.481 2.494 8.166 2.057 12.632-.723 7.386-1.642 8.173-10.166 8.706-5.577.348-10.574-.864-12.342-2.994zm-74.728-12.059c-4.616-12.087-5.372-18.2-1.991-16.11 2.715 1.678 9.17 24.089 7.438 25.822-.692.691-3.143-3.679-5.447-9.712zm-106.094-.515c10.353-6.435 14.349-10.578 15.302-15.865.924-5.128 3.012-7.401 7.362-8.018 5.258-.745 5.857-.063 4.476 5.095-.877 3.276-1.7 8.822-1.83 12.325-.13 3.503-.814 4.936-1.521 3.185-1.972-4.887-6.421-3.872-19.557 4.458-6.629 4.204-13.445 7.617-15.148 7.586-1.703-.032 3.21-3.977 10.916-8.766zm22.928-17.29c0-2.983-3.71-2.241-4.776.955-.526 1.577.334 2.437 1.91 1.911 1.577-.525 2.866-1.815 2.866-2.866zm-261.45 21.616c-1.744-1.14-2.923-10.635-3.01-24.259l-.146-22.387 10.626 5.862c13.681 7.546 15.124 13.617 3.819 16.07-4.632 1.005-9.264 3.116-10.294 4.692-3.374 5.164-2.038 14.973 2.509 18.425 4.62 3.507 1.56 4.902-3.504 1.597zm14.331-31.17a2.555 2.555 0 0 0-2.547-2.547 2.555 2.555 0 0 0-2.548 2.547 2.555 2.555 0 0 0 2.548 2.548 2.555 2.555 0 0 0 2.547-2.548zm-10.19-2.547a2.555 2.555 0 0 0-2.548-2.548 2.555 2.555 0 0 0-2.547 2.548 2.555 2.555 0 0 0 2.547 2.547 2.555 2.555 0 0 0 2.548-2.547zm291.548 29.589c-.89-3.543-1.022-7.924-.296-9.736.727-1.811 1.412-.141 1.523 3.712.247 8.602 7.702 9.768 8.14 1.274.222-4.313.583-4.629 1.46-1.274 1.812 6.936 5.862 5.246 6.106-2.547l.219-7.006 2.262 7.582c2.634 8.827 1.46 10.38-9.612 12.712-7.278 1.533-8.365 1.01-9.802-4.717zm-217.797-14.561c-8.254-16.35-8.743-20.877-1.376-12.737 4.118 4.55 12.792 28.28 10.337 28.28-.613 0-4.646-6.994-8.961-15.543zm74.01 9.57c0-6.767 7.2-14.408 13.576-14.408 5.532 0 5.702 10.93.255 16.378-6.212 6.212-13.83 5.126-13.83-1.97zm13.826-3.377c1.667-4.342-3.02-9.164-6.698-6.89-1.117.69-2.032 3.48-2.032 6.2 0 6.052 6.477 6.564 8.73.69zm212.952-1.477c.021-3.153 1.26-7.452 2.754-9.554 2.09-2.942 2.363-2.21 1.186 3.185-.929 4.255-.45 7.006 1.218 7.006 1.51 0 2.038 1.146 1.172 2.547-2.79 4.515-6.37 2.714-6.33-3.184zm-343.45-2.562c-1.461-1.76-3.345-6.632-4.187-10.827-1.42-7.074-1.314-7.212 1.458-1.897 4.455 8.542 9.818 7.184 10.062-2.547l.208-8.28 4.127 8.916 4.127 8.917 1.467-10.19 1.467-10.19 1.965 9.596c2.262 11.054.821 14.606-5.926 14.606-2.637 0-5.503 1.146-6.369 2.547-2.128 3.444-5.2 3.206-8.4-.651zm384.173-3.1c7.706-1.777 16.206-4.147 18.888-5.267 3.375-1.41 4.327-1.15 3.092.848-2.29 3.706-18.477 8.214-28.35 7.895-5.648-.183-3.987-1.09 6.37-3.476z"/></svg>