<?xml version="1.0" encoding="UTF-8" standalone="no"?><svg xmlns:dc="http://purl.org/dc/elements/1.1/" xmlns:cc="http://creativecommons.org/ns#" xmlns:rdf="http://www.w3.org/1999/02/22-rdf-syntax-ns#" xmlns="http://www.w3.org/2000/svg" xmlns:xlink="http://www.w3.org/1999/xlink" xmlns:sodipodi="http://sodipodi.sourceforge.net/DTD/sodipodi-0.dtd" xmlns:inkscape="http://www.inkscape.org/namespaces/inkscape" version="1" width="900" height="600" sodipodi:version=".32" inkscape:version="0.92.4 (5da689c313, 2019-01-14)" sodipodi:docname="Flag_of_Cape_Verde_(1975–1992)_resized.svg" inkscape:output_extension="org.inkscape.output.svg.inkscape" viewBox="0 0 900 600"><metadata><rdf:RDF><cc:Work><dc:format>image/svg+xml</dc:format><dc:type rdf:resource="http://purl.org/dc/dcmitype/StillImage"/><dc:title/></cc:Work></rdf:RDF></metadata><sodipodi:namedview inkscape:window-height="548" inkscape:window-width="1024" inkscape:pageshadow="2" inkscape:pageopacity="0" guidetolerance="10" gridtolerance="10" objecttolerance="10" borderopacity="1" bordercolor="#666666" pagecolor="#ffffff" showgrid="false" inkscape:zoom=".517" inkscape:cx="450" inkscape:cy="313.887" inkscape:window-x="-8" inkscape:window-y="-8" inkscape:current-layer="svg2" inkscape:window-maximized="1" fit-margin-top="0" fit-margin-left="0" fit-margin-right="0" fit-margin-bottom="0" scale-x="1.333"/><path style="marker:none" overflow="visible" fill="#fcd116" fill-rule="evenodd" d="M0 0h900v600H0z"/><path style="marker:none" overflow="visible" fill="#009e49" fill-rule="evenodd" d="M0 300h900v300H0z"/><path style="marker:none" overflow="visible" fill="#ce1126" fill-rule="evenodd" d="M0 0h300v600H0z"/><path d="M199.082 343.03L148.572 306l-50.465 37.089 19.609-59.48-50.87-36.536 62.63.27 19.027-59.67L167.6 247.32l62.628-.343-50.826 36.595z" style="marker:none" inkscape:connector-curvature="0" overflow="visible" fill-rule="evenodd"/><g id="a" stroke="#ffce10"><g fill="green" stroke-width=".5"><path d="M62.117 232.574l11.54-32.9 15.713-32.9-28.768 28.828-17.881 33.044-14.36 38.185 6.07 48.418" inkscape:connector-curvature="0" fill="#009e49" fill-rule="evenodd" stroke-width="1.38889"/><path d="M89.33 166.848L66.29 198.2l-16.695 32.41-8.348 41.247" inkscape:connector-curvature="0" fill="none" stroke-width="1.38889"/></g><g stroke-width=".5"><path d="M64.818 384.799l-17.187-6.875L27.5 348.461 14.73 316.052l.06-47.572 14.731-39.978 27.93-35.702-15.713 35.846-11.171 38.916 5.685 44.011L63.345 357.3" inkscape:connector-curvature="0" fill="#009e49" fill-rule="evenodd" stroke-width="1.38889"/><path d="M57.471 192.797L35.355 230.61l-13.258 40.266 3.928 46.158 20.624 29.954" inkscape:connector-curvature="0" fill="none" stroke-width="1.38889"/></g><g stroke-width=".5"><path d="M149.77 426.538c-32.013.243-46.528-19.192-61.382-28.726l-4.05-.246-11.663-6.63-.246-3.927-9.207.122-27.867-45.544-2.946-65.31 16.573-42.966 24.184-27.253 40.02-24.552-33.145 31.427-17.678 30.444-4.42 34.865 25.658 67.519 8.716 11.54-1.473 18.168 3.928 9.33c8.266 12.89 30.047 34.902 54.997 35.355" inkscape:connector-curvature="0" fill="#009e49" fill-rule="evenodd" stroke-width="1.38889"/><path d="M113.11 181.536l-35.525 27.837-22.956 31.181-11.54 32.164 4.542 45.299" inkscape:connector-curvature="0" fill="none" stroke-width="1.38889"/></g><g stroke="#000" stroke-width=".027" stroke-linecap="round"><path d="M52.829 269.707c-5.302 8.836-10.21 18.436-10.849 31.131 4.717 13.443 19.103 22.17 23.585 25.235 4.48-5.66 8.254-17.216 10.377-29.716-4.246-13.915-15.33-21.226-23.113-26.65z" inkscape:connector-curvature="0" fill="orange" fill-rule="evenodd" stroke-width=".07500006"/><path d="M52.834 269.75c-4.27 12.154-7.463 24.197-8.413 36.348M52.822 269.758c.297 15.953.42 32.155 1.145 47.681M52.834 269.728l3.589 49.774M52.823 269.739l6.393 51.907M52.834 269.76c3.276 18.09 6.81 36.18 9.67 54.27M52.834 269.804c4.474 18.692 9.542 37.358 12.734 56.264M52.834 269.739c6.078 15.844 12.449 31.493 17.205 48.219M52.834 269.75c7.382 14.286 13.539 28.656 18.932 43.628M52.823 269.75c8.615 12.876 14.909 25.689 20.19 39.509M52.845 269.771c8.998 11.154 16.057 21.962 21.39 34.883M52.834 269.75c12.048 12.225 17.424 20.166 22.23 31.247M52.856 269.75c10.392 8.792 16.671 14.972 22.755 28.45M52.845 269.75c-2.962 13.844-5.576 25.838-6.421 39.437M52.823 269.75c-.712 15.287-1.733 31.094-1.354 45.32M52.834 269.739c-1.78 14.624-3.788 29.845-4.016 42.5M52.845 269.728c-5.208 10.942-9.064 21.045-10.005 33.338M52.834 269.75c5.26 17.445 11.201 34.774 15.202 52.43" inkscape:connector-curvature="0" fill="none" stroke-width=".07500006"/><path d="M56.955 319.929c2.605.463 5.312.666 7.628.64 2.633-1.384 5.052-3.215 6.598-5.555M43.708 289.846c4.032.672 10.192.756 14.104-.006 2.633-1.384 7.908-5.992 9.454-8.332" inkscape:connector-curvature="0" fill="none" stroke-width=".07500006"/><path d="M43.113 292.479c3.32.521 11.789 1.07 15.394-.122 2.632-1.383 8.738-6.8 10.284-9.14" inkscape:connector-curvature="0" fill="none" stroke-width=".07500006"/><path d="M42.555 295.124c4.2 1.077 14.171 1.131 16.55.492 4.841-1.814 9.961-7.635 11.2-10.528" inkscape:connector-curvature="0" fill="none" stroke-width=".07500006"/><path d="M42.152 298.47c2.605 1.325 15.601 1.545 17.917.745 5.15-2.489 8.972-6.677 12.025-11.383" inkscape:connector-curvature="0" fill="none" stroke-width=".07500006"/><path d="M42.51 302.242c4.164 1.445 16.142 1.092 18.224.236 6.136-2.666 10.437-8.058 12.75-12.153" inkscape:connector-curvature="0" fill="none" stroke-width=".07500006"/><path d="M44.689 306.556c4.621.959 13.302.411 16.683-.223 4.606-2.067 11.683-8.573 13.504-12.947" inkscape:connector-curvature="0" fill="none" stroke-width=".07500006"/><path d="M47.608 310.762c5.673.463 10.5.388 14.718-.436 5.196-2.753 12.52-9.677 13.61-13.958" inkscape:connector-curvature="0" fill="none" stroke-width=".07500006"/><path d="M50.475 314.064c2.604.463 10.219.323 12.72-.44 5.148-2.242 9.97-7.371 11.27-9.895M53.774 317.313c2.604.463 7.799-.103 10.115-.13 2.632-1.383 7.29-4.45 8.836-6.79M60.688 322.761c1.378.246 2.903.384 4.416.239.81-.136 2.795-1.122 3.863-2.572M47.264 280.06c2.359.709 5.51 1.146 8.378.752 2.633-1.383 4.37-2.37 5.915-4.71" inkscape:connector-curvature="0" fill="none" stroke-width=".07500006"/><path d="M46.315 282.23c2.543.77 6.637 1.392 9.935.752 2.632-1.383 5.254-3.273 6.8-5.613" inkscape:connector-curvature="0" fill="none" stroke-width=".07500006"/><path d="M45.371 284.555c2.77.975 8.28 1.512 11.281.67 2.633-1.384 6.323-4.173 7.869-6.513" inkscape:connector-curvature="0" fill="none" stroke-width=".07500006"/><path d="M44.53 287.044c2.726.893 9.13 1.179 12.675.539 2.632-1.384 7.081-5.245 8.626-7.585M48.209 278.056c2.035.623 4.607.9 6.826.76 1.957-.586 4.116-2.374 4.986-3.917" inkscape:connector-curvature="0" fill="none" stroke-width=".07500006"/><path d="M49.122 276.233c1.56.463 3.812.673 5.392.586 1.589-.647 3.026-1.68 4.08-2.977M50.154 274.34c1.193.341 2.755.591 3.905.504 1.343-.463 2.506-1.5 2.947-2.184" inkscape:connector-curvature="0" fill="none" stroke-width=".07500006"/></g><path d="M76.46 383.55l-2.982-8.112 9.066-3.698 3.22 16.104" inkscape:connector-curvature="0" fill="#009e49" fill-rule="evenodd" stroke-width="1.38889"/><path d="M20.695 110.144l-.851-.269 3.687 9.313 6.782 3.25 3.593 2.437-2.84-2.77-1.577-11.429-.356.34 1.496 10.952-6.555-3.128z" inkscape:connector-curvature="0" fill="#ffce10" fill-rule="evenodd" stroke="none" transform="matrix(2.77778 0 0 2.77778 0 48)"/><path d="M67.514 371.502c-.666 1.475.349 4.194 1.67 5.129 2.367 1.674 6.942.765 9.662-.239 2.076-.766 5.095-2.53 5.726-4.652.599-2.017-.23-5.81-2.147-6.68-4.438-2.013-12.906 2-14.91 6.442z" inkscape:connector-curvature="0" fill="#009e49" fill-rule="evenodd" stroke-width="1.38889"/><path d="M66.202 367.327c-.666 1.475.349 4.194 1.67 5.129 2.367 1.675 6.942.765 9.662-.239 2.076-.766 5.095-2.53 5.726-4.652.599-2.017-.23-5.81-2.148-6.68-4.437-2.013-12.905 2-14.91 6.442z" inkscape:connector-curvature="0" fill="#009e49" fill-rule="evenodd" stroke-width="1.38889"/><g fill="#009e49" stroke-width=".467" fill-rule="evenodd"><path d="M14.66 102.359c.531 2.27.71 1.706 1.606 3.168-.048-2.006.53-2.809.708-3.796-.943-2.263-2.547-.363-2.315.628z" inkscape:connector-curvature="0" transform="matrix(-2.64023 1.36808 1.47886 2.57749 -28.079 17.37)"/><path d="M27.342 114.842c.944-1.959.802-4.015-.096-5.372-.846-1.28-2.15-1.502-4.168-2.629-2.027-1.131-5.867-5.003-6.799-6.056 1.469 4.057 4.906 12.475 7.863 14.15 1.611.913 2.698.187 3.2-.093z" inkscape:connector-curvature="0" transform="matrix(-2.64023 1.36808 1.47886 2.57749 -28.079 17.37)"/><path d="M27.44 114.786s.507-.297.601-.515c.43-.995.62-2.788.345-3.894-.315-1.272-1.307-2.832-2.677-3.05-3.708-.586-8.094-6.73-9.337-7.18-1.198-.433-1.502 1.417-1.502 1.417s.53-.601 1.027-.321c.624.352 1.523 1.4 1.99 1.944 1.894 2.207 3.69 3.46 5.28 4.343 1.066.592 1.97.951 2.917 1.724.736.6.91.928 1.333 1.78.327.66.023 3.752.023 3.752z" inkscape:connector-curvature="0" transform="matrix(-2.64023 1.36808 1.47886 2.57749 -28.079 17.37)"/></g><g fill="#009e49" stroke-width=".417" fill-rule="evenodd"><path d="M15.345 102.832c-.075 1.344.992 1.494 1.319 4.515.865-1.507 1.184-2.138.942-4.198-.943-2.263-2.205-1.321-2.26-.317z" inkscape:connector-curvature="0" transform="matrix(2.99704 0 0 3.70579 -9.445 -74.816)"/><path d="M27.342 114.842s1.08-2.966-.307-4.413c-1.34-1.4-3.144-1.88-5.1-3.054-1.91-1.357-3.682-3.515-4.613-4.567.698 8.955 4.54 11.288 6.82 12.126 1.791.66 3.07-.112 3.2-.092z" inkscape:connector-curvature="0" transform="matrix(2.99704 0 0 3.70579 -9.445 -74.816)"/><path d="M27.44 114.786s.507-.297.601-.515c.43-.995.369-2.594-.172-3.607-.653-1.226-1.1-1.7-2.323-2.255-8.372-3.794-7.63-7.764-9.263-7.413-1.212.26-1.015.997-.965 1.707.301-.445.529-.48.833-.392.717.207 1.21 1.197 1.67 1.74.765.9.408 1.406 3.178 3.306 2.048 1.405 3.686 2.044 4.28 2.544.92.78 1.524 1.414 1.946 2.266.328.66.215 2.619.215 2.619z" inkscape:connector-curvature="0" transform="matrix(2.99704 0 0 3.70579 -9.445 -74.816)"/></g><g fill="#009e49" stroke-width=".467" fill-rule="evenodd"><path d="M14.199 102.89c.238 1.217 1.093 1.45 1.304 3.31.853-2.155 1.433-2.636 1.265-3.943-.943-2.262-2.765-.365-2.57.633z" inkscape:connector-curvature="0" transform="matrix(-2.61635 1.41321 1.5229 2.55171 -32.502 35.52)"/><path d="M27.342 114.842c.944-1.959.847-4.045-.096-5.372-1.301-1.83-2.742-1.312-5.165-3.252-1.908-1.357-3.909-3.332-6.002-5.05.738 5.092 5.472 13.94 8.481 14.33 1.631.21 2.28-.376 2.782-.656z" inkscape:connector-curvature="0" transform="matrix(-2.61635 1.41321 1.5229 2.55171 -32.502 35.52)"/><path d="M27.44 114.786s.507-.297.601-.515c.43-.995.62-2.788.345-3.894-.315-1.272-1.313-2.788-2.677-3.05-3.676-.703-8.47-6.766-9.863-6.669-1.25.087-1.503 1.417-1.503 1.417s.694-.592 1.248-.485c.723-.016 1.796 2.208 7.451 5.96.966.75 2.095.931 3.042 1.704.736.6.91.928 1.333 1.78.327.66.023 3.752.023 3.752z" inkscape:connector-curvature="0" transform="matrix(-2.61635 1.41321 1.5229 2.55171 -32.502 35.52)"/></g><g fill="#009e49" stroke-width=".5" fill-rule="evenodd"><path d="M39.751 331.945c-.319 5.612 3.86 3.704 5.1 16.297 2.403-4.186 4.727-7.994 4.055-13.718-2.619-6.285-8.997-5.368-9.155-2.58z" inkscape:connector-curvature="0" stroke-width="1.38889"/><path d="M75.95 367.004s2.03-8.239-1.957-12.169c-4.448-4.383-6.966-3.612-13.065-8.571-5.3-3.771-11.22-10.747-13.806-13.671 2.05 14.146 11.726 30.017 19.938 34.67 4.477 2.536 8.53-.312 8.89-.259z" inkscape:connector-curvature="0" stroke-width="1.38889"/><path d="M76.222 366.85s1.408-.826 1.67-1.432c1.192-2.763 1.023-7.205-.477-10.02-1.815-3.403-4.323-6.073-8.112-6.799-10.209-1.954-21.42-21.262-25.288-20.993-3.473.241-3.817 3.459-3.817 3.459s1.96-1.255 3.34-.477c1.734.976 4.625 4.97 5.964 6.441 2.488 2.733 6.782 7.482 8.827 9.185 5.199 4.326 10.61 6.228 12.883 6.799 2.56.643 3.242 4.195 4.413 6.56.91 1.837.597 7.277.597 7.277z" inkscape:connector-curvature="0" stroke-width="1.38889"/></g></g><use transform="matrix(-1 0 0 1 297.834 0)" width="324" height="216" xlink:href="#a"/><g fill-rule="evenodd"><path d="M149.761 357.126c-3.081.096-6.307.958-8.892 3.776-1.24 1.352-2.198 3.688-3.174 5.599-3.571-4.519-9.155-5.83-13.888-4.254-4.674 1.557-8.411 6.01-8.594 12.5-1.368-.89-4.681-1.862-6.385-2.036-4.149-.423-7.011-.242-9.405 2.505-3.064 3.516-4.236 8.772-2.092 11.77 3.683 5.151 11.613 13.118 22.048 20.14 10.436 7.021 22.221 12.757 31.51 12.413 9.436-.35 19.835-6.05 28.907-12.76 9.073-6.711 14.207-12.538 18.316-17.232 1.72-1.964 3.219-5.849 2.952-7.986-.27-2.154-.684-4.78-2.518-6.206-2.716-2.113-5.097-2.874-8.73-2.552-1.324.117-4.695 1.86-6.027 2.552-.413-2.256-.635-5.301-1.494-7.023-1.564-3.136-4.586-4.731-7.273-5.825-4.2-1.708-8.468-.58-13.281 3.039-.74-1.735-1.764-3.659-2.847-4.879-2.319-2.611-5.999-3.64-9.133-3.541z" inkscape:connector-curvature="0" fill="#ff9c00"/><path d="M149.761 357.126c-3.081.096-6.307.958-8.892 3.776-1.24 1.352-2.198 3.688-3.174 5.599-3.571-4.519-9.155-5.83-13.888-4.254-4.674 1.557-8.411 6.01-8.594 12.5-1.368-.89-4.802-2.345-6.506-2.52-4.148-.422-6.89.242-9.284 2.99-3.064 3.515-4.046 9.262-1.923 12.276 3.627 5.15 10.825 13.567 21.317 20.983 10.271 7.26 22.783 11.407 32.073 11.063 9.435-.35 20.171-5.375 29.244-12.086 9.072-6.71 14.32-12.425 18.203-17.343 1.618-2.05 2.994-6.412 2.727-8.549-.27-2.154-.684-4.78-2.518-6.206-2.716-2.113-5.097-2.874-8.73-2.552-1.324.117-4.634 1.196-6.027 2.552-.051-2.799-.635-5.542-1.494-7.265-1.564-3.135-4.707-4.972-7.394-6.065-4.2-1.71-8.95-.701-13.16 3.52-.74-1.734-1.553-3.567-2.636-4.787-2.318-2.612-6.21-3.73-9.344-3.632zm.087 1.388c2.47-.077 5.53 1.113 7.746 2.968 1.546 1.295 2.739 4.77 2.67 5.973-.595 10.587-2.741 14.976-3.819 22.31 2.04-7.285 4.226-13.54 5.666-21.962.197-1.153 2.448-2.686 3.392-3.342 2.739-1.903 5.834-2.078 8.998-1.134 1.997.596 4.249 2.389 6.02 4.658 1.379 1.766 2.182 6.757 1.055 9.328-2.875 6.57-7.62 12.805-14.106 21.306 7.092-7.629 11.525-14.313 15.842-20.66 1.71-2.515 4.221-3 5.843-3.31 3.503-.673 6.373.162 8.523 1.834 1.596 1.241 1.798 3.56 1.997 5.339.209 1.87-1.078 5.776-2.466 7.507-3.665 4.566-8.898 10.456-17.857 17.083-8.958 6.626-19.634 11.407-28.549 11.738-8.663.32-20.884-3.945-31.205-10.89-10.321-6.944-17.419-15.675-20.588-20.46-2.336-3.526-.998-7.047 1.459-10.488 1.445-2.025 4.078-3.261 8.196-2.736 1.817.232 5.307 2.13 5.644 2.648 3.66 5.617 9.924 16.828 17.57 22.829-7.56-9.283-10.904-13.684-15.032-22.92-.402-.9.083-5.358 1.68-7.86 1.422-2.231 3.76-4.073 5.714-4.724 2.49-.83 4.946-.795 7.618.145 1.993.701 4.773 3.067 5.097 4.535 2.849 12.937 4.01 14.396 6.729 22.404-1.727-7.644-3.931-12.654-4.884-22.555-.103-1.083 1.966-4.879 2.802-6.133 1.857-2.782 6.06-3.59 8.245-3.43z" inkscape:connector-curvature="0"/><path d="M135.5 409.008c9.63 10.98 21.284 9.035 30.72-.704-9.09 7.63-20.398 9.29-30.72.704z" inkscape:connector-curvature="0"/></g></svg>