<svg xmlns="http://www.w3.org/2000/svg" xmlns:xlink="http://www.w3.org/1999/xlink" width="900" height="600"><defs><clipPath id="b"><use height="100%" width="100%" xlink:href="#a" overflow="visible"/></clipPath><path id="a" d="M120.841 128.896c.679-.772 1.033-1.293 1.52-2.164.712-1.356 2.455-.42 3.878-.518-.226-.064-.42.064-.42.227 0 .938-.519 2.067-1.614 2.229-1.002.129-1.938-.228-2.908-.162-.165 0-.294.225-.456.388z"/></defs><path d="M0 0h900v600H0z" fill="#ce1126" fill-rule="evenodd"/><path d="M0 200h900v400H0z" fill="#fff" fill-rule="evenodd"/><path d="M0 400h900v200H0z" fill-rule="evenodd"/><path d="M458.073 213.871c-2.882-.004-6.307.664-9.377 3.047-5.454 4.17-8.567 12.69-13.973 15.9h3.803s-2.842 6.277-5.086 7.603l3.805.642s-3.161 5.087-5.727 6.369l3.208.639s-5.042 10.13-7.608 11.41c0 0 1.42 5.728-2.566 7.011l4.492 9.53h42.563l4.447-8.89c-4.446-1.923-2.517-8.935-2.517-8.935l-2.567-4.448c-5.086-.64-3.806-10.769-3.806-13.928 0-3.21-2.57-7.008-2.57-7.008 2.568-6.37 1.925-8.938 1.925-8.938l-1.924-8.888s-2.813-1.11-6.522-1.116z" fill="#fff" stroke="#efbb22" stroke-width=".887"/><path d="M458.07 215.096c3.461.006 6.071 1.035 6.071 1.035l.275.11.3-.03s1.452-.135 2.917.141c.73.14 1.43.384 1.913.716.479.327.747.675.856 1.292.05.306.004.35.007.344.004-.007-.007.03-.198.108l-1.25.49.32.636c-.147.036-.253.03-.405.079-1.388.432-3.123 1.516-3.551 3.625l-.055.27.068.266s.116.337-.03 1.648c-.148 1.307-.596 3.433-1.845 6.53l-.245.608.367.537s.59.875 1.191 2.145c.604 1.268 1.166 2.905 1.166 4.18 0 1.414-.332 4.854 0 8.04.167 1.59.49 3.152 1.212 4.474.62 1.138 1.661 2.073 2.998 2.454l2.088 3.615a13.253 13.253 0 0 0-.337 3.58c.044 1.109.233 2.324.779 3.46a5.795 5.795 0 0 0 1.775 2.147l-3.603 7.2h-41.03L426.148 267c.639-.43 1.19-.928 1.54-1.517.56-.935.782-1.95.864-2.867a10.292 10.292 0 0 0-.102-2.638c.679-.554 1.291-1.228 1.927-2.091.875-1.188 1.76-2.603 2.564-3.97a97.83 97.83 0 0 0 2.881-5.3l.715-1.432-2.143-.429c.702-.71 1.342-1.501 1.919-2.24a36.971 36.971 0 0 0 1.973-2.805l.967-1.554-3.217-.542c.694-.896 1.298-1.915 1.858-2.889a44.988 44.988 0 0 0 1.752-3.405l.784-1.733h-2.26c1.673-1.659 3.12-3.642 4.531-5.658 2.145-3.065 4.25-6.13 6.746-8.043l.003-.003.005-.003c2.793-2.178 5.922-2.789 8.615-2.784z" fill="#fff"/><path d="M447.34 231.611c.361-1.182.795-2.306 1.271-3.456l.316-.756-.689.442c-1.959 1.254-4.26 2.845-6.02 3.902.573-.814 1.281-1.707 1.96-2.577.939-1.203 1.82-2.345 2.233-3.244l.359-.777c-1.666.975-3.214 2.278-4.44 3.512 1.112-.502 2.14-1.331 3.066-2.002-.434.656-1.015 1.415-1.625 2.197-.936 1.2-1.937 2.452-2.579 3.52l-.487.804.828-.45c1.684-.912 4.132-2.602 6.294-4.008-.485 1.21-.916 2.42-1.26 3.718l-.238.905.667-.654c1.8-1.758 3.553-3.838 4.904-5.913-1.544 1.487-3.03 3.26-4.56 4.837zm10.634-.334c-.169.416-.325.809-.46 1.128-.155-1.215-.351-2.265-.844-3.437.164 1.611.36 2.672.384 4.17 0 .082-.021.136.057.26.035.062.16.147.266.136.106-.012.149-.059.183-.09.125-.122.16-.232.247-.415.166-.366.382-.938.642-1.56.444-1.043.778-2.027 1.384-3.099-1.03.638-1.424 1.833-1.86 2.907zm-5.212-.188c-.367.451-.711.837-.921 1.003.014-1.24.064-3.124.064-3.124s-.577 1.88-.577 3.207c0 .103.008.195.05.288a.388.388 0 0 0 .263.219c.231.052.367-.064.512-.178.292-.226.632-.62 1.01-1.091.759-.93 1.339-1.862 1.905-2.766-.888.65-1.563 1.532-2.306 2.442zm8.34-.849c-.165.787-.262 1.792.331 2.578-.05-.818.019-1.74.172-2.473.153-.737.404-1.478.404-1.478s-.742.585-.906 1.373zm-3.53 2.936c.005.013.002.01 0 0zm4.346 1.632l-.388.727c-.77 1.432-1.54 2.866-2.313 4.293l-1.671-3.95-.207-.486-.258.46c-.674 1.196-2.097 2.916-2.641 3.555-1.048-1.493-2.984-3.91-2.984-3.91l-.22-.28-.198.3a2411.007 2411.007 0 0 0-2.74 4.223c-.766-.598-1.36-1.794-1.552-3.469l-.103-.874-.384.793c-.388.802-1.505 2.004-2.51 2.97a44.159 44.159 0 0 1-1.647 1.49 2110.731 2110.731 0 0 0-1.742-4.122l-.329-.778c-.157 1.287-.94 2.486-1.51 3.445.76-.424 1.299-1.07 1.635-1.83l1.609 3.81.136.32.267-.22s.916-.756 1.94-1.739c.806-.772 1.68-1.67 2.24-2.484.304 1.561.966 2.705 1.89 3.28l.213.134.138-.21c.898-1.382 1.796-2.761 2.689-4.145.583.739 2.156 2.748 2.929 3.872l.187.274.217-.252s1.677-1.902 2.655-3.453c.562 1.327 1.12 2.653 1.682 3.98l.207.497.257-.473 2.207-4.103c.275 1.157.74 2.606 1.738 3.06-.992-1.692-1.252-3.046-1.439-4.705zm-24.863 10.174c.038.366.097.844.172 1.342.082.538.183 1.108.306 1.604.125.5.258.921.46 1.21l.158.227.214-.174s.883-.721 1.805-1.721c.805-.87 1.657-1.944 1.98-3.011a121.222 121.222 0 0 1 1.191 1.21c.799.828 1.688 1.797 1.977 2.222l.149.224.215-.156s2.091-1.514 2.773-4.045c.246.694.51 1.551.757 2.372.359 1.194.674 2.303.842 2.786l.13.377.291-.27s.76-.717 1.54-1.798c.642-.887 1.311-2.03 1.584-3.251.363.764.734 1.691 1.124 2.55.52 1.142 1.045 2.176 1.836 2.542l.172.081.127-.142s2.032-2.225 2.742-5.266c.366.915.637 1.678.922 2.327.363.831.752 1.496 1.383 2.045l.287.25.126-.358c.537-1.507.91-3.146 1.5-4.524.136.936.485 1.884 1.42 2.835-.798-1.742-.974-3.072-.988-4.775l-.473.847c-.842 1.507-1.25 3.387-1.81 5.067-.396-.431-.678-.936-.973-1.592-.349-.798-.695-1.816-1.246-3.126l-.364-.868-.13.932c-.384 2.801-2.136 5.096-2.641 5.703-.454-.334-.963-1.192-1.42-2.19-.508-1.119-.986-2.394-1.508-3.287l-.426-.733-.056.844c-.09 1.36-.85 2.747-1.603 3.788a13.653 13.653 0 0 1-1.188 1.43c-.172-.555-.424-1.441-.703-2.369-.358-1.199-.759-2.47-1.096-3.253l-.383-.886-.11.958c-.266 2.307-1.949 3.927-2.536 4.425-.418-.549-1.168-1.344-1.868-2.071-.803-.834-1.528-1.546-1.528-1.546l-.362-.358-.074.502c-.143.982-1.059 2.237-1.955 3.208a19.715 19.715 0 0 1-1.515 1.466 5.716 5.716 0 0 1-.25-.784 18.229 18.229 0 0 1-.295-1.558c-.159-1.054-.24-1.998-.24-1.998l-.057-.7c-.668.944-1.384 1.952-1.756 2.924.596-.394.983-.94 1.371-1.488zm26.936 9.873c-.621-1.058-1.509-2.976-1.996-4.045l-.25-.537-.224.546c-1.02 2.45-1.97 4.102-2.356 4.744-.39-.54-.917-1.525-1.344-2.414-.512-1.066-.913-2.011-.913-2.011l-.194-.451-.267.415c-1.218 1.928-2.443 3.858-3.663 5.782-.627-.456-1.188-1.326-1.648-2.297-.507-1.079-.911-2.274-1.24-3.16l-.33-.888-.162.935c-.31 1.76-1.512 4.093-2.002 4.99-.359-.64-.737-1.609-1.03-2.46a34.726 34.726 0 0 1-.59-1.912l-.162-.604-.31.544c-1.05 1.86-1.403 2.74-3.286 5.104-.43-.68-1.034-1.91-1.55-3.003a94.451 94.451 0 0 1-1.074-2.393l-.3-.7-.186.738c-.148.592-.78 2.29-1.514 3.584-.367.647-.77 1.201-1.105 1.46-.168.135-.31.185-.41.184-.101-.002-.196-.034-.322-.197-1.221-1.529-1.804-3.69-1.804-3.69s.06 2.332 1.404 4.01c.192.242.448.384.716.385.266.003.507-.117.733-.29.446-.349.856-.94 1.237-1.616a19.566 19.566 0 0 0 1.36-3.04 89.616 89.616 0 0 0 .8 1.77c.598 1.281 1.294 2.703 1.791 3.372l.2.267.207-.258c1.889-2.34 2.384-3.337 3.251-4.91.107.352.255.83.43 1.344.358 1.05.818 2.257 1.318 2.955l.23.324.203-.341s1.449-2.452 2.077-4.68c.266.737.58 1.586.962 2.389.53 1.114 1.176 2.153 2.064 2.66l.21.121.134-.207a7301.87 7301.87 0 0 1 3.541-5.591 54.95 54.95 0 0 0 .73 1.585c.52 1.077 1.127 2.26 1.65 2.805l.22.234.177-.268s1.108-1.675 2.362-4.587c.579 1.256 1.44 3.073 2.025 3.95l.227.34.207-.355c.842-1.449 1.39-2.662 1.334-4.576-.365 1.427-.905 2.713-1.568 3.944z" stroke-width=".301" fill="#efbb22" stroke="#efbb22"/><g stroke-width=".625"><path d="M453.32 223.105c.963-1.095 1.465-1.833 2.156-3.068 1.01-1.923 3.48-.596 5.498-.735-.32-.09-.596.091-.596.322 0 1.33-.735 2.93-2.288 3.16-1.42.183-2.747-.323-4.123-.23-.234 0-.416.32-.646.55z" fill="#fff"/><g transform="translate(282 40.365) scale(1.41773)" clip-path="url(#b)" fill="#efbb22"><path d="M124.43 127.99c.612 0 1.099-.517 1.099-1.13 0-.615-.484-1.102-1.099-1.102s-1.101.484-1.101 1.102c.004.614.487 1.13 1.101 1.13z"/></g><path d="M457.43 218.724c-.364 0-.712.042-1.04.162a2.04 2.04 0 0 0-1.138 1.029c-.822 1.65-1.93 2.624-2.512 4.101.435-.371.833-.822 1.228-1.202h.008l.01-.003c1.3-.086 2.64.426 4.138.23h.008c.856-.128 1.494-.637 1.896-1.276.396-.63.582-1.388.587-2.088.501-.09.875-.413 1.323-.712-1.36.342-2.847-.122-4.064-.221a4.817 4.817 0 0 0-.444-.02zm.007.515c.127 0 .26.005.392.017.698.05 1.486.227 2.274.29-.005.032-.011.064-.011.094 0 .62-.166 1.306-.506 1.847-.336.543-.837.937-1.531 1.042-1.218.156-2.423-.245-3.719-.245.503-.66.897-1.28 1.37-2.127v-.005c.228-.434.507-.657.859-.787.254-.088.546-.125.872-.126z" fill="#efbb22" stroke="#efbb22" stroke-width=".279"/></g><path d="M427.388 264.433s3.344-5.27 0-10.54c-3.345-5.27 2.475-5.543 1.833-9.071-.596-3.48-4.857-16.999-20.435-16.4-15.625.595-26.621 11.727-29.372 13.47-2.747 1.788-5.773 4.401-7.604.917 0 0-1.236 2.929.274 4.672 1.557 1.696 3.392 2.887 6.14 1.696 0 0-6.414 9.392-7.06 12.326-.593 2.929-.915 2.929-3.342 2.058 0 0 .321 2.659 1.833 2.932 1.51.322 3.666 1.466 5.176-.869 0 0-2.748 6.462-1.833 10.262 1.237 4.993-.272 9.669-1.51 10.586 0 0 4.902 1.15 7.332-2.063 0 0-.323 15.859-4.582 20.807 0 0 4.903 2.058 7.01-1.15 0 0-3.665 22.268-21.078 54.57 0 0 5.82 2.016 10.402-7.059 0 0 5.178 1.742 9.164-7.056 0 0 9.76.322 12.83-14.939 0 0 6.415 1.466 9.165-8.2l8.246-9.12s5.52 2.088 8.248-8.2c1.752-6.614 2.841-10.962 3.756-22.697 2.41 6.811 4.39 1.102 4.821-.567 1.701-6.542.586-16.365.586-16.365z" fill="#fff" stroke="#efbb22" stroke-width=".887"/><g fill="none" stroke="#efbb22" stroke-width=".887"><path d="M378.226 249.177c1.51-1.697 15.263-15.167 30.246-15.167m-.642 4.948s-13.063 1.097-21.677 9.942c-7.651 7.928-11.318 16.727-11.318 16.727"/><path d="M406.634 243.676s-8.936 2.016-15.578 7.286c-3.665 2.933-9.806 10.264-10.723 15.859-.916 5.539-1.51 14.66-1.51 17.59"/><path d="M406.64 249.177c-1.56.594-7.794 1.877-13.155 6.184-3.666 2.93-7.927 8.794-8.57 19.058-.594 10.262.322 18.467-3.665 29.645"/><path d="M407.871 253.3c-2.474 1.19-16.22 4.397-17.734 22.31-1.558 17.87-1.835 29.92-6.736 43.118-3.666 9.85-12.83 32.852-12.83 32.852"/><path d="M379.736 344.528s9.12-19.885 12.234-32.533c3.666-14.98 3.804-30.242 3.988-34.32.274-8.244.896-13.792 11.895-17.916"/><path d="M409.086 264.753c-1.833.273-7.54 2.06-7.357 14.664.323 20.848-8.201 47.837-9.165 50.174m19.875-59.291c-1.238.324-5.071-.868-4.89 9.392.322 16.451-3.988 34.644-5.818 41.697m13.745-45.515s0 18.204-5.498 36.396"/></g><path d="M409.173 228.84v.004zm1.69.822c6.23.296 10.207 3.018 12.832 6.197 2.88 3.486 4.057 7.573 4.332 9.124v-.017l.011.061.003.014v.003l.009.044-.009-.025c.095.56-.004.806-.303 1.26-.292.44-.834.964-1.375 1.625-.549.67-1.115 1.557-1.208 2.71-.09 1.153.295 2.43 1.216 3.884 1.652 2.603 1.448 5.133.949 6.914-1.103-1.093-2.405-1.954-3.947-2.274-.601-.126-.969-.27-1.157-.387-.192-.115-.206-.165-.221-.207-.019-.033-.022-.5.158-1.176.183-.68.494-1.606.375-2.68-.09-.777-.538-1.54-1.201-2.22.388-.592.868-1.306 1.397-2.408.924-1.934 1.815-4.486 1.258-7l-.052-.233-.018-.019c-.467-2.038-1.15-4.629-2.794-6.99-1.706-2.452-4.475-4.578-8.76-5.408-1.226-.24-1.507-.529-1.502-.52.01.006.01-.231.007-.272zm-3.443.074a212.564 212.564 0 0 1-.371 3.114c-7.532.233-14.45 3.576-19.722 7.109-5.215 3.486-8.695 7.013-9.749 8.165-1.054.42-1.776.405-2.46.155-.712-.262-1.423-.83-2.13-1.595-.3-.347-.391-.856-.407-1.389.13.07.248.166.384.217.916.339 1.856.228 2.682-.045 1.637-.543 3.103-1.707 4.414-2.562.859-.549 2.006-1.543 3.644-2.821 1.641-1.284 3.724-2.827 6.19-4.332 4.623-2.817 10.6-5.45 17.525-6.016zm-.761 5.543c-.088.462-.169.997-.265 1.328l.001-.004c-.088.29-.194.814-.295 1.309-2.778.375-13.046 2.184-20.806 10.142v.001h-.002l-.001.002-.003.003-.001.001-.004.006c-7.598 7.871-11.261 16.397-11.491 16.942-.562.843-.855.87-1.506.846-.612-.023-1.467-.34-2.379-.536h-.006l-.007-.002-.03-.005c-.006-.001-.043-.044-.059-.055a2.07 2.07 0 0 0 .963-.252c.575-.325.886-.87 1.088-1.396.199-.521.334-1.114.487-1.862l-.003.013c.095-.443.59-1.6 1.259-2.852.672-1.259 1.522-2.688 2.356-4.035a133.091 133.091 0 0 1 3.216-4.945c.716-.798 4.317-4.508 9.488-7.972 4.94-3.304 11.31-6.335 18-6.677zm.509 1.37c-.014.045-.02.128-.03.17v.002l-.03.111v-.22zm-1.497 3.783a60.743 60.743 0 0 0-.319 2.342c-2.406.64-9.358 2.734-15.046 7.242l-.012.013c-1.958 1.565-4.437 4.174-6.605 7.152-2.168 2.983-4.03 6.304-4.544 9.436l.002-.002c-.905 5.464-1.462 13.888-1.507 17.267-1.082 1.21-2.761 1.548-4.07 1.566a12.09 12.09 0 0 0 .78-2.51c.411-2.07.485-4.648-.181-7.344v.005c-.354-1.471.017-3.957.564-5.957.55-2.006 1.207-3.553 1.207-3.553l.02-.044c.042-.102 3.626-8.613 11.052-16.31l.001-.002c.002 0 .002-.003.002-.003 6.536-6.702 15.252-8.725 18.656-9.298zm-.539 4.918a31.963 31.963 0 0 0-.018 2.877c-.766.258-2.274.672-4.385 1.538-2.35.964-5.205 2.413-8.002 4.66l.001-.001c-3.922 3.137-8.357 9.359-9.015 19.925v.004l-.001.021v.03c-.593 10.291.283 18.25-3.54 29.09-.758 1.065-1.889 1.254-3.127 1.156-.37-.03-.6-.118-.92-.187 1.778-3.041 2.666-7.382 3.194-11.34.623-4.66.704-8.681.704-8.681l.025-1.189c.11-3.633.675-11.412 1.47-16.237v-.001h.002c.401-2.452 2.07-5.599 4.114-8.415 2.045-2.807 4.465-5.332 6.173-6.695l-.006.001c4.724-3.748 10.56-5.746 13.331-6.556zm.206 5.344a7.465 7.465 0 0 0 .676 2.071c-.65.248-1.293.48-2.239.908-1.723.776-3.815 1.9-5.886 3.58-4.147 3.355-8.166 9.003-8.947 18.26-1.563 17.901-1.842 29.81-6.665 42.798-3.64 9.788-12.73 32.61-12.792 32.765-2.178 4.293-4.486 5.76-6.183 6.29-.47.147-.863.194-1.232.22 16.57-31.255 20.272-52.753 20.349-53.207 4.029-11.36 3.114-19.757 3.701-29.877v-.008c.623-9.956 4.709-15.461 8.121-18.193l.029-.02c2.557-2.05 5.188-3.392 7.382-4.29 1.644-.68 2.719-.984 3.686-1.297zm1.125 4.484c-.083.728-.168 1.327-.222 2.357-.027.488-.031.99-.038 1.498-5.048 2.047-7.99 4.543-9.54 7.593-1.645 3.241-1.768 6.882-1.906 11.01-.19 4.197-.332 19.282-3.952 34.073-2.954 11.985-11.48 30.822-12.05 32.075a.134.134 0 0 1-.004.012l-.003.005c-.024.05-.103.232-.105.232v.002l-.003.004c-1.9 4.192-3.938 5.65-5.398 6.188-.356.136-.641.17-.922.213 1.134-2.85 8.793-22.107 12.208-31.29 4.982-13.407 5.252-25.597 6.808-43.432v-.004c0-.003 0-.005.002-.005.731-8.657 4.338-13.57 8.064-16.591 1.863-1.507 3.765-2.533 5.362-3.252.687-.31 1.148-.475 1.7-.688zm-.133 6.422c.098.917.29 1.769.642 2.52-1.073.435-2.3 1.13-3.428 2.617-1.769 2.336-3.107 6.225-3.016 12.693v.007c.157 10.252-1.872 22.148-4.071 31.74a219.918 219.918 0 0 1-3.16 12.187 98.137 98.137 0 0 1-1.524 4.815l-.142-.03-.245 1.21c-1.486 7.389-4.493 10.774-7.04 12.42a9.878 9.878 0 0 1-2.602 1.205c2.094-4.676 8.715-19.818 11.393-30.69v-.002c3.71-15.155 3.842-30.577 4.02-34.55v-.029c.14-4.109.32-7.37 1.647-9.986 1.177-2.33 3.364-4.31 7.526-6.127zm2.186 2.06l.017.03-.01-.02-.001-.002c-.004.002-.004-.005-.006-.008zm-.459 2.58c.458.908.923 1.866 1.474 2.807.07.117.148.223.22.34a3.578 3.578 0 0 0-1.662 1.1c-1.21 1.438-1.834 3.977-1.742 9.205v.02c.316 16.206-3.95 34.318-5.774 41.347-1.305 4.578-3.318 6.246-4.933 6.945a5.603 5.603 0 0 1-1.416.397c.357-1.049.753-2.23 1.381-4.373a222.871 222.871 0 0 0 3.198-12.318c2.222-9.7 4.295-21.72 4.131-32.317v.002c-.089-6.125 1.183-9.43 2.527-11.206.933-1.228 1.843-1.689 2.596-1.95zm3.363 5.282c.337.323.719.582 1.138.797.135.99.482 2.924 1.649 5.048.023.04.047.077.07.115v.198s-.015 16.097-5.38 33.998l-4.902 5.419c2.062-8.655 5.029-23.36 4.755-37.412v-.016c-.09-5.014.69-7.051 1.178-7.628.263-.31.397-.35.674-.4.178-.034.513-.078.818-.12zm1.809.25c.01.005.02.013.03.016 0 .008.007.046.008.057l-.031-.011zm3.349 8.585c1.071.974 2.427 1.78 4.078 2.298-.886 10.546-1.92 14.794-3.594 21.105-1.308 4.932-3.154 6.582-4.473 7.168a3.42 3.42 0 0 1-1.07.28c3.99-13.831 4.861-25.92 5.059-30.85zm7.728 2.9c.03 0 .058.005.09.005-.012.013-.03.06-.04.071-.01-.008-.043-.068-.05-.076zm-45.008.177l.315.078z" fill="#fff"/><g fill="#efbb22"><path d="M431.65 271.767s-3.025-10.26-8.523-11.41c-5.497-1.147.916-4.992-3.344-7.65 0 0 3.94-5.227 3.025-9.351-.915-4.079-2.658-10.172-10.675-11.726-2.688-.522-2.637-1.3-2.429-3.15-.22-.052-.146-.074-.915-.06-.33 2.69-.641 6.462-1.237 8.525-.597 2.016-2.747 14.293.322 16.357 0 0-1.236 7.927.274 10.584 1.56 2.613 3.07 7.008 5.498 7.606 0 0 .642 10.585 10.997 10.585l.184-1.65z"/><path d="M409.615 232.04c.588.386 1.357.61 2.282.79 3.732.725 5.832 2.414 7.23 4.417 1.397 2.003 2.037 4.372 2.485 6.375.353 1.594-.265 3.726-1.079 5.425-.812 1.702-1.728 2.92-1.728 2.92l-.807 1.069 1.137.708c.835.52.932.836.977 1.253.047.415-.105 1.039-.305 1.787-.2.743-.5 1.686-.051 2.748.447 1.058 1.565 1.701 3.12 2.026 2.08.437 4.116 2.929 5.494 5.515a30.76 30.76 0 0 1 1.914 4.454l-6.64 8.422-.096.862c-4.02-.323-6.013-2.428-7.217-4.615-1.306-2.379-1.465-4.776-1.465-4.776l-.055-.902-.875-.214c-.595-.146-1.487-1.063-2.31-2.473-.822-1.405-1.579-3.144-2.422-4.555-.423-.758-.657-3.38-.54-5.612a45.73 45.73 0 0 1 .416-4.167l.121-.771-.648-.44c-.247-.16-.702-.975-.902-2.304-.2-1.33-.206-3.057-.093-4.798.223-3.473.945-7.147 1.165-7.89l.002-.005v-.002c.41-1.423.673-3.355.89-5.248z"/></g><path d="M472.616 264.433s-3.341-5.27 0-10.54c3.342-5.27-2.472-5.543-1.833-9.071.596-3.48 4.857-16.999 20.433-16.4 15.624.595 26.622 11.727 29.376 13.47 2.748 1.788 5.77 4.401 7.605.917 0 0 1.235 2.929-.272 4.672-1.562 1.696-3.397 2.887-6.142 1.696 0 0 6.414 9.392 7.058 12.326.595 2.929.916 2.929 3.34 2.058 0 0-.322 2.659-1.833 2.932-1.507.322-3.664 1.466-5.175-.869 0 0 2.748 6.462 1.832 10.262-1.237 4.993.275 9.669 1.513 10.586 0 0-4.904 1.15-7.333-2.063 0 0 .322 15.859 4.58 20.807 0 0-4.903 2.058-7.008-1.15 0 0 3.666 22.268 21.074 54.57 0 0-5.818 2.016-10.4-7.059 0 0-5.175 1.742-9.165-7.056 0 0-9.762.322-12.829-14.939 0 0-6.415 1.466-9.167-8.2l-8.245-9.12s-5.52 2.088-8.243-8.2c-1.755-6.614-2.841-10.962-3.757-22.697-2.409 6.811-4.39 1.102-4.823-.567-1.698-6.542-.586-16.365-.586-16.365z" fill="#fff" stroke="#efbb22" stroke-width=".887"/><g fill="none" stroke="#efbb22" stroke-width=".887"><path d="M521.776 249.177c-1.51-1.697-15.266-15.167-30.245-15.167m1.24 4.948s12.463 1.097 21.077 9.942c7.652 7.928 11.317 16.727 11.317 16.727"/><path d="M493.366 243.676s8.938 2.016 15.578 7.286c3.667 2.933 9.808 10.264 10.723 15.859.915 5.539 1.51 14.662 1.51 17.59"/><path d="M493.36 249.177c1.562.594 7.795 1.877 13.156 6.184 3.666 2.93 7.928 8.794 8.57 19.058.595 10.262-.323 18.467 3.663 29.645"/><path d="M492.131 253.3c2.473 1.19 16.22 4.397 17.735 22.31 1.56 17.87 1.833 29.92 6.736 43.118 3.666 9.85 12.83 32.852 12.83 32.852"/><path d="M520.266 344.528s-9.12-19.885-12.233-32.533c-3.666-14.98-3.807-30.242-3.988-34.32-.271-8.244-.896-13.792-11.894-17.916"/><path d="M490.915 264.753c1.833.273 7.238 2.06 7.059 14.664-.322 20.848 8.505 47.837 9.468 50.174M487.564 270.3c1.238.324 5.068-.868 4.89 9.392-.323 16.451 3.987 34.644 5.818 41.697m-13.747-45.515s0 18.204 5.5 36.396"/></g><path d="M490.827 228.84v.004zm-1.687.822c-6.232.296-10.21 3.018-12.833 6.197-2.877 3.486-4.058 7.573-4.334 9.124v-.017l-.012.061v.017l-.01.044.01-.025c-.096.56.003.806.305 1.26.29.44.83.964 1.374 1.625.548.67 1.113 1.557 1.208 2.71.09 1.153-.295 2.43-1.215 3.884-1.65 2.603-1.448 5.133-.947 6.914 1.099-1.093 2.401-1.954 3.945-2.274.602-.126.967-.27 1.154-.387.193-.115.207-.165.222-.207.018-.033.024-.5-.158-1.176-.183-.68-.493-1.606-.374-2.68.088-.777.537-1.54 1.2-2.22-.385-.592-.868-1.306-1.397-2.408-.92-1.934-1.812-4.486-1.258-7l.051-.233.02-.019c.466-2.038 1.153-4.629 2.797-6.99 1.709-2.452 4.473-4.578 8.756-5.408 1.23-.24 1.507-.529 1.506-.52-.014.006-.014-.231-.01-.272zm3.444.074c.116 1.027.238 2.074.371 3.114 7.533.233 14.448 3.577 19.723 7.109 5.215 3.486 8.693 7.013 9.75 8.165 1.052.42 1.773.405 2.457.155.71-.262 1.422-.83 2.13-1.595.3-.347.39-.856.408-1.389-.132.07-.25.166-.384.217-.916.339-1.857.228-2.685-.045-1.632-.543-3.102-1.707-4.41-2.562-.86-.549-2.007-1.543-3.646-2.821-1.64-1.284-3.724-2.827-6.19-4.332-4.627-2.817-10.6-5.45-17.525-6.016zm.76 5.543c.089.462.168.997.266 1.328l-.003-.004c.088.29.195.814.297 1.309 2.78.375 13.044 2.184 20.803 10.142l.002.001h.001l.002.002.004.003.001.001.003.006c7.596 7.871 11.26 16.397 11.492 16.942.56.843.854.87 1.503.846.614-.023 1.469-.34 2.38-.536h.006l.006-.002.03-.005c.01-.001.044-.044.059-.055a2.076 2.076 0 0 1-.963-.252c-.572-.325-.886-.87-1.087-1.396-.2-.521-.335-1.114-.486-1.862l.003.013c-.095-.443-.589-1.6-1.26-2.852a76.111 76.111 0 0 0-2.355-4.035 144.641 144.641 0 0 0-3.213-4.945c-.718-.798-4.317-4.508-9.493-7.972-4.936-3.304-11.307-6.335-17.999-6.677zm-.512 1.37c.015.045.022.128.031.17v.002l.03.111v-.22zm1.498 3.783c.115.742.224 1.499.322 2.342 2.406.64 9.357 2.734 15.042 7.242l.014.013c1.96 1.565 4.44 4.174 6.606 7.152 2.165 2.983 4.035 6.304 4.544 9.436v-.002c.905 5.464 1.458 13.888 1.507 17.267 1.08 1.21 2.757 1.548 4.07 1.566a12.09 12.09 0 0 1-.784-2.51c-.41-2.07-.483-4.648.183-7.344l-.002.005c.356-1.471-.015-3.957-.561-5.957-.551-2.006-1.21-3.553-1.21-3.553l-.02-.044c-.043-.102-3.626-8.613-11.052-16.31l-.003-.002c-.003 0-.003-.003-.003-.003-6.532-6.702-15.247-8.725-18.653-9.298zm.54 4.918c.054.977.051 1.939.02 2.877.767.258 2.274.672 4.387 1.538 2.348.964 5.203 2.413 8 4.66v-.001c3.922 3.137 8.355 9.359 9.015 19.925v.055c.593 10.291-.283 18.25 3.542 29.09.755 1.065 1.888 1.254 3.126 1.156.369-.03.601-.118.916-.187-1.777-3.041-2.663-7.382-3.193-11.34a87.527 87.527 0 0 1-.703-8.681l-.025-1.189c-.111-3.633-.677-11.412-1.472-16.237v-.001h-.004c-.399-2.452-2.069-5.599-4.112-8.415-2.043-2.807-4.46-5.332-6.173-6.695l.003.001c-4.724-3.748-10.556-5.746-13.328-6.556zm-.205 5.344a7.561 7.561 0 0 1-.678 2.071c.65.248 1.292.48 2.237.908 1.724.776 3.817 1.9 5.888 3.58 4.147 3.355 8.166 9.003 8.947 18.26 1.563 17.901 1.842 29.81 6.667 42.798 3.64 9.788 12.73 32.61 12.793 32.765 2.176 4.293 4.48 5.76 6.179 6.29.47.147.863.194 1.23.22-16.57-31.255-20.269-52.753-20.35-53.207-4.026-11.36-3.111-19.757-3.699-29.877v-.008c-.622-9.956-4.71-15.461-8.122-18.193l-.027-.02c-2.56-2.05-5.193-3.392-7.383-4.29-1.64-.68-2.717-.984-3.682-1.297zm-1.127 4.484c.084.728.169 1.327.22 2.357.027.488.032.99.04 1.498 5.048 2.047 7.99 4.543 9.54 7.593 1.647 3.241 1.768 6.882 1.908 11.01.188 4.197.331 19.282 3.95 34.073 2.955 11.985 11.483 30.822 12.048 32.075a.11.11 0 0 0 .006.012l.003.005c.027.05.105.232.105.232v.002l.003.004c1.9 4.192 3.94 5.65 5.401 6.188.356.136.638.17.92.213-1.135-2.85-8.79-22.107-12.208-31.29-4.982-13.407-5.25-25.597-6.806-43.432v-.004c0-.003-.003-.005-.003-.005-.733-8.657-4.338-13.57-8.064-16.591-1.863-1.507-3.765-2.533-5.363-3.252-.686-.31-1.147-.475-1.7-.688zm.13 6.422c-.095.917-.285 1.769-.64 2.52 1.076.435 2.302 1.13 3.43 2.617 1.77 2.336 3.108 6.225 3.017 12.693v.007c-.154 10.252 1.869 22.148 4.07 31.74a222.48 222.48 0 0 0 3.16 12.187 99.109 99.109 0 0 0 1.522 4.815l.142-.03.244 1.21c1.491 7.389 4.495 10.774 7.043 12.42a9.9 9.9 0 0 0 2.603 1.205c-2.096-4.676-8.714-19.818-11.394-30.69v-.002c-3.707-15.155-3.841-30.577-4.02-34.55l-.001-.019v-.01c-.14-4.109-.318-7.37-1.646-9.986-1.174-2.33-3.364-4.31-7.53-6.127zm-2.18 2.06l-.019.03.012-.02v-.002c0 .002.002-.005.007-.008zm.458 2.58c-.458.908-.925 1.866-1.476 2.807-.07.117-.148.223-.219.34a3.547 3.547 0 0 1 1.66 1.1c1.211 1.438 1.837 3.977 1.743 9.205v.02c-.317 16.206 3.948 34.318 5.772 41.347 1.305 4.578 3.318 6.246 4.932 6.945a5.612 5.612 0 0 0 1.418.397 94.316 94.316 0 0 1-1.383-4.373 226.756 226.756 0 0 1-3.198-12.318c-2.217-9.7-4.292-21.72-4.128-32.317v.002c.089-6.125-1.184-9.43-2.528-11.206-.932-1.228-1.84-1.689-2.593-1.95zm-3.365 5.282a4.74 4.74 0 0 1-1.138.797c-.135.99-.482 2.924-1.65 5.048-.021.04-.044.077-.067.115v.198s.011 16.097 5.378 33.998l4.9 5.419c-2.06-8.655-5.027-23.36-4.754-37.412v-.016c.09-5.014-.69-7.051-1.179-7.628-.262-.31-.396-.35-.674-.4-.172-.034-.513-.078-.816-.12zm-1.807.25c-.01.005-.02.013-.03.016 0 .008-.008.046-.008.057l.03-.011zm-3.347 8.585c-1.072.974-2.43 1.78-4.08 2.298.887 10.546 1.92 14.794 3.593 21.105 1.312 4.932 3.156 6.582 4.473 7.168.404.181.753.247 1.07.28-3.987-13.831-4.86-25.92-5.057-30.85zm-7.729 2.9c-.03 0-.058.005-.089.005.008.013.03.06.038.071.01-.008.046-.068.051-.076zm45.008.177l-.315.078z" fill="#fff"/><g fill="#efbb22"><path d="M468.352 271.767s3.027-10.26 8.523-11.41c5.5-1.147-.916-4.992 3.343-7.65 0 0-3.935-5.227-3.022-9.351.915-4.079 2.655-10.172 10.67-11.726 2.689-.522 2.64-1.3 2.427-3.15.22-.052.147-.074.917-.06.33 2.69.64 6.462 1.236 8.525.596 2.016 2.75 14.293-.322 16.357 0 0 1.238 7.927-.274 10.584-1.559 2.613-3.07 7.008-5.499 7.606 0 0-.64 10.585-10.999 10.585l-.18-1.65z"/><path d="M490.388 232.04c-.59.386-1.357.61-2.282.79-3.73.725-5.83 2.414-7.231 4.417-1.394 2.003-2.038 4.372-2.484 6.375-.353 1.594.265 3.726 1.081 5.425a18.95 18.95 0 0 0 1.726 2.92l.805 1.069-1.136.708c-.836.52-.927.836-.976 1.253-.044.415.105 1.039.304 1.787.202.743.502 1.686.053 2.748-.447 1.058-1.565 1.701-3.12 2.026-2.08.437-4.116 2.929-5.494 5.515a31.03 31.03 0 0 0-1.916 4.454l6.643 8.422.096.862c4.018-.323 6.01-2.428 7.216-4.615 1.307-2.379 1.463-4.776 1.463-4.776l.056-.902.876-.214c.594-.146 1.484-1.063 2.308-2.473.822-1.405 1.58-3.144 2.421-4.555.423-.758.657-3.38.542-5.612-.115-2.24-.418-4.167-.418-4.167l-.12-.771.647-.44c.25-.16.702-.975.903-2.304.2-1.33.207-3.057.094-4.798-.223-3.473-.947-7.147-1.167-7.89l-.002-.005v-.002c-.406-1.423-.673-3.355-.888-5.248z"/></g><g fill="#fff"><path d="M481.028 361.532l17.955-16.44-30.866-27.915-36.752-.292-29.506 27.73 20.852 16.05 28.023 9.416z" stroke="#efbb22" stroke-width=".886"/><path d="M431.847 318.114l-28.098 26.407 19.548 15.046 27.468 9.234 29.648-8.369 16.748-15.33-29.516-26.701zm6.974 14.04l.349.312a69.523 69.523 0 0 0 3.215 2.704l.695.55v.004l.833.625a73.737 73.737 0 0 0 3.224 2.281c.39-2.536.502-4.36.502-4.36l.148-2.43 2.156 1.528 2.097-2.097.181 3s.117 1.918.535 4.562a79.925 79.925 0 0 0 3.337-2.348l.834-.62.703-.555a72.16 72.16 0 0 0 3.22-2.682l.896-.799.62-.582a62.238 62.238 0 0 0 2.995-2.999l.407-.428.558-.62a63.426 63.426 0 0 0 2.797-3.342l1.051-1.35.94 1.433c3.139 4.782 9.074 12.057 18.2 16.607l.015.005v.004c.923.47 1.63.66 2.285 1.456.325.4.51 1.191.317 1.742-.2.556-.53.88-.92 1.231l-.013.008-.014.009c-.596.509-1.305 1.236-2.334 1.727-.95.452-2.215.574-3.547.135.156.147.33.242.472.448.295.425.395 1.231.152 1.753-.244.52-.59.807-.997 1.115l-.014.007-.014.01c-.614.443-1.346 1.093-2.383 1.495-.799.315-1.802.388-2.85.1.198.18.402.328.574.598.27.438.357 1.25.086 1.765-.27.516-.636.782-1.059 1.063-.63.421-1.39 1.045-2.45 1.404-1.054.36-2.428.316-3.773-.443-.648-.358-1.557-1.037-2.803-2.108-.29-.252-.695-.694-1.013-.98.385.416.675.799 1.078 1.22v.01c.646.685 1.157.952 1.647 1.732.244.39.355 1.246.041 1.765-.307.518-.677.722-1.097.967-.777.451-1.913 1.025-3.224 1.316-1.32.285-2.896.28-4.283-.611v-.006c-.741-.485-1.395-1.25-2.302-2.396-.908-1.153-1.95-2.644-3.02-4.386a58.039 58.039 0 0 1-3.076-5.69c.44 1.158.937 2.249 1.507 3.17 2.038 3.241 3.715 6.764 4.034 7.411.03.041.229.35.412.713.198.388.425.909.4 1.605-.029.699-.478 1.538-1.176 1.98-.696.444-1.538.636-2.662.714l-.03.002-7.333.14h-.014s-4.617 0-7.402-.14l-.014-.001-.014-.001c-1.124-.079-1.965-.27-2.661-.713-.698-.444-1.152-1.282-1.176-1.98-.024-.697.206-1.213.4-1.606.183-.363.384-.672.408-.713.239-.48 1.234-2.568 2.57-4.94-1.05 1.693-2.076 3.158-2.96 4.28-.9 1.142-1.538 1.895-2.285 2.377-1.4.914-3.001.92-4.322.622-1.319-.296-2.439-.878-3.195-1.331-.422-.245-.793-.447-1.093-.976-.306-.531-.17-1.388.078-1.763.495-.759 1-1.013 1.618-1.672v-.01c.42-.44.72-.838 1.114-1.269-.324.295-.738.748-1.033 1.004-1.248 1.075-2.162 1.767-2.809 2.131v.004c-1.332.74-2.705.759-3.758.396-1.052-.363-1.825-.984-2.46-1.41l-.014-.006-.014-.006c-.411-.284-.773-.561-1.032-1.08-.258-.518-.16-1.316.107-1.74.176-.277.385-.434.587-.615-1.066.303-2.084.23-2.896-.088-1.034-.402-1.77-1.05-2.382-1.496l-.014-.004-.014-.01c-.394-.296-.742-.577-.98-1.106-.238-.526-.116-1.317.169-1.73.141-.206.306-.301.458-.446-1.346.45-2.625.315-3.573-.156-1.015-.502-1.704-1.23-2.274-1.743-.388-.331-.724-.642-.934-1.186-.21-.548-.039-1.355.287-1.758.657-.805 1.364-.987 2.317-1.463 9.123-4.561 15.054-11.857 18.183-16.64l.362-.559h1.268l.367.48a62.475 62.475 0 0 0 2.755 3.327l.556.621-.015.018.404.404.017.02a69.506 69.506 0 0 0 2.985 3.016l.616.578z"/><g fill="#efbb22"><path d="M450.2 335.134l-1.097-.778s-.642 10.63-4.308 16.54c-2.016 3.209-3.664 6.69-3.986 7.331-.324.597-2.062 2.748 1.922 3.025 2.702.139 7.331.139 7.331.139l7.287-.14c3.989-.274 2.246-2.427 1.923-3.024-.324-.64-1.974-4.123-3.988-7.33-3.666-5.912-4.309-16.54-4.309-16.54zm19.885-10.524c3.215 4.899 9.277 12.345 18.68 17.031 1.877.963 2.7 1.285 1.42 2.43-1.281 1.1-2.567 2.519-4.948 1.56-2.008-.81-13.062-7.805-17.995-17.611a69.606 69.606 0 0 0 2.843-3.41z"/><path d="M466.258 329.085c2.75 4.986 7.986 12.487 16.551 17.689 1.79 1.053 2.518 1.419 1.194 2.427-1.33.963-2.658 2.246-4.904 1.15-1.84-.96-11.824-8.471-15.894-18.208a72.23 72.23 0 0 0 3.053-3.058z"/><path d="M461.658 333.545c2.574 5.108 7.463 12.69 15.647 18.177 1.743 1.147 2.476 1.556 1.099 2.475-1.376.916-2.747 2.152-4.95.916-1.795-.994-11.402-8.94-15.071-18.838a71.506 71.506 0 0 0 3.275-2.73zm-4.837 3.923c1.896 4.252 5.537 10.512 12.423 17.692 1.42 1.51 2.291 1.742.868 2.566-1.42.823-4.168 2.063-6.233.737-1.703-1.113-8.001-9.757-10.46-18.598a81.607 81.607 0 0 0 3.401-2.397zm-26.831-13.034c-3.203 4.897-9.262 12.372-18.659 17.069-1.924.962-2.704 1.283-1.42 2.383 1.236 1.099 2.517 2.569 4.902 1.603 2.009-.808 13.038-7.838 17.988-17.663a62.745 62.745 0 0 1-2.811-3.391z"/><path d="M433.78 328.905c-2.76 4.991-8.004 12.505-16.541 17.686-1.743 1.099-2.474 1.466-1.192 2.427 1.33.963 2.658 2.246 4.902 1.147 1.873-.916 11.793-8.447 15.871-18.181a74.847 74.847 0 0 1-3.042-3.07v-.01z"/><path d="M438.353 333.382c-2.562 5.114-7.431 12.701-15.616 18.16-1.694 1.148-2.429 1.558-1.099 2.474 1.377.915 2.799 2.155 4.95.962 1.831-1.032 11.39-8.966 15.034-18.844a78.114 78.114 0 0 1-3.269-2.752zm4.825 3.945c-1.89 4.258-5.518 10.514-12.377 17.694-1.375 1.464-2.291 1.692-.87 2.516 1.377.827 4.125 2.107 6.233.736 1.667-1.073 7.97-9.686 10.449-18.517a71.632 71.632 0 0 1-3.435-2.429z"/></g></g><g fill="#fff"><path d="M425.817 305.085l-2.729 1.226c-1.501 1.227-1.91 3.136-1.91 3.136s1.773.41 3.546-.134c1.772-.547 2.592-1.365 2.592-1.365zm1.628 3.257l-2.728 1.225c-1.501 1.229-1.91 3.139-1.91 3.139s1.773.41 3.546-.138c1.772-.546 2.592-1.364 2.592-1.364zm1.629 3.401l-2.728 1.226c-1.503 1.23-1.91 3.138-1.91 3.138s1.773.41 3.546-.136c1.771-.549 2.59-1.367 2.59-1.367zm1.765 3.554l-2.73 1.228c-1.5 1.225-1.909 3.136-1.909 3.136s1.772.41 3.546-.136c1.772-.548 2.59-1.364 2.59-1.364zm2.038 3.525l-2.728 1.226c-1.502 1.224-1.91 3.136-1.91 3.136s1.772.41 3.546-.139c1.772-.546 2.59-1.364 2.59-1.364z" stroke-width=".886" stroke="#efbb22"/><path d="M425.36 306.41l.652 1.247c-.346.206-.86.455-1.585.679-.631.198-1.287.244-1.824.234.23-.45.566-.973 1.037-1.386zm1.63 3.256l.652 1.246c-.346.207-.86.458-1.585.679-.634.199-1.287.244-1.823.233.228-.451.563-.973 1.035-1.388zm1.628 3.402l.652 1.245a7.172 7.172 0 0 1-1.585.682c-.631.196-1.288.243-1.827.234.232-.455.567-.972 1.04-1.388zm1.763 3.555l.652 1.246c-.346.207-.859.452-1.585.68-.63.199-1.287.244-1.823.234.23-.455.566-.972 1.036-1.386zm2.039 3.524l.652 1.246c-.346.207-.86.457-1.585.68-.632.196-1.286.242-1.823.234.23-.454.564-.976 1.035-1.389z"/><path d="M474.05 305.085l2.73 1.226c1.5 1.227 1.909 3.136 1.909 3.136s-1.772.41-3.546-.134c-1.772-.548-2.591-1.366-2.591-1.366zm-1.627 3.257l2.727 1.224c1.502 1.23 1.91 3.14 1.91 3.14s-1.772.41-3.546-.138c-1.772-.546-2.591-1.364-2.591-1.364zm-1.63 3.4l2.728 1.227c1.503 1.23 1.912 3.138 1.912 3.138s-1.774.41-3.548-.136c-1.77-.55-2.59-1.367-2.59-1.367zm-1.765 3.555l2.73 1.228c1.501 1.225 1.91 3.136 1.91 3.136s-1.773.41-3.546-.136c-1.773-.548-2.59-1.364-2.59-1.364zm-2.037 3.525l2.728 1.226c1.501 1.223 1.91 3.136 1.91 3.136s-1.773.41-3.546-.139c-1.772-.546-2.59-1.364-2.59-1.364z" stroke-width=".886" stroke="#efbb22"/><path d="M474.508 306.41l-.652 1.247c.346.206.859.455 1.585.679.631.198 1.287.244 1.823.234-.23-.45-.566-.973-1.036-1.387zm-1.63 3.256l-.652 1.246a7.1 7.1 0 0 0 1.585.679c.633.198 1.287.244 1.823.233-.229-.451-.563-.973-1.035-1.389zm-1.628 3.402l-.652 1.245c.347.208.86.458 1.585.682.631.196 1.288.243 1.826.234-.231-.455-.567-.973-1.039-1.388zm-1.763 3.555l-.653 1.246c.346.207.86.452 1.585.679.632.2 1.288.245 1.824.235-.23-.455-.566-.972-1.037-1.386zm-2.04 3.524l-.651 1.246c.346.207.86.457 1.585.68.632.196 1.285.242 1.823.233-.23-.453-.564-.975-1.035-1.388z"/></g><g fill="#fff"><path d="M464.596 260.38l13.484 17.807c3.739 24.3-6.454 45.624-28.015 59.35-21.535-13.735-31.703-35.07-27.97-59.352l13.438-17.81h29.059z" stroke="#efbb22" stroke-width="1.772"/><path d="M477.01 278.636c3.521 23.55-6.189 44.082-26.946 57.566-20.729-13.494-30.42-34.03-26.903-57.566l12.928-17.133h27.944zm-39.944-14.68l-.336.446-11.76 15.513-.04.28c-3.223 21.265 5.708 40.044 24.534 52.067l.604.384.604-.384c18.85-12.013 27.806-30.783 24.581-52.067l-.038-.282-12.145-15.959h-.561z"/></g><g fill="#efbb22"><path d="M450.202 265.08v66.223c18.522-11.816 27.216-30.057 24.05-50.935L462.62 265.08h-.003zm-12.465 0l-11.586 15.289c-3.164 20.867 5.511 39.126 24.027 50.95l.024-.016V265.08z"/><path d="M442.085 265.08v60.106a62.017 62.017 0 0 0 8.094 6.13 61.946 61.946 0 0 0 8.14-6.16v-60.08z" stroke="#bc8810" stroke-width=".408" stroke-dasharray="0,3.17144545"/></g><path d="M462.618 265.08l11.634 15.289c3.167 20.881-5.53 39.134-24.072 50.95-18.518-11.825-27.196-30.084-24.027-50.95l11.585-15.29z" fill="none"/><g fill="#fff"><path d="M418.033 321.847s-7.518-4.216-4.308-6.37c2.888-1.877 4.627 3.345 4.308 6.37z" stroke="#efbb22" stroke-width=".886"/><path d="M414.893 316.13c.105 0 .191.04.299.092.25.12.622.499.936 1.094.357.682.622 1.618.758 2.52a16.479 16.479 0 0 1-1.496-1.17c-.676-.606-1.202-1.272-1.34-1.655-.066-.191-.054-.266-.037-.323.016-.057.055-.152.304-.323.274-.169.439-.234.576-.234z"/><path d="M420.093 325.696s-5.5-6.554-.502-10.631c0 0 4.032 3.62.502 10.631z" stroke="#efbb22" stroke-width=".886"/><path d="M419.495 316.657c.218.348.453.82.645 1.42.398 1.245.578 3.01-.26 5.402-.32-.55-.649-1.21-.898-1.92-.338-.96-.51-1.99-.36-2.942.106-.68.356-1.33.873-1.96z"/><path d="M420.093 325.696s-1.374-6.596-8.797-5.638c0 0 2.382 6.874 8.797 5.638z" stroke="#efbb22" stroke-width=".886"/><path d="M412.95 321.033c2.42.043 3.787 1.07 4.703 2.17a7.128 7.128 0 0 1 .983 1.572c-2.101.03-3.503-.981-4.547-2.154a9.352 9.352 0 0 1-1.14-1.588z"/><path d="M421.514 329.499s-.686-6.282-8.019-5.317c0 0 .872 4.812 8.019 5.317z" stroke="#efbb22" stroke-width=".886"/><path d="M415.049 325.15c2.393 0 3.585.962 4.347 1.974a5.65 5.65 0 0 1 .642 1.109c-2.334-.439-3.63-1.405-4.405-2.289a5.534 5.534 0 0 1-.59-.794z"/><path d="M422.019 329.314s-5.178-6.046-.183-10.125c0 0 4.352 4.49.183 10.125z" stroke="#efbb22" stroke-width=".886"/><path d="M421.71 320.807a7.137 7.137 0 0 1 .754 1.65c.404 1.3.543 2.943-.488 4.922a9.954 9.954 0 0 1-.903-1.93c-.296-.893-.435-1.847-.264-2.751a4.075 4.075 0 0 1 .902-1.891z"/><path d="M423.623 332.659s-.871-5.636-8.201-4.673c0 0 1.74 5.956 8.201 4.673z" stroke="#efbb22" stroke-width=".886"/><path d="M417.089 328.943c2.365-.003 3.602.856 4.375 1.728a5.175 5.175 0 0 1 .732 1.095c-2.144.117-3.417-.739-4.312-1.695a6.735 6.735 0 0 1-.847-1.128z"/><path d="M423.898 333.163s-5.177-6.096-.183-10.175c0 .005 4.03 3.623.183 10.175z" stroke="#efbb22" stroke-width=".886"/><path d="M423.616 324.58a5.954 5.954 0 0 1 .607 1.356c.366 1.2.5 2.87-.46 5.122a9.857 9.857 0 0 1-.81-1.788c-.294-.897-.433-1.861-.261-2.769.12-.652.39-1.288.924-1.922z"/><path d="M426.327 336.646s-5.36-5.774-.369-9.806c0 0 4.126 3.117.369 9.805z" stroke="#efbb22" stroke-width=".886"/><path d="M425.914 328.357a4.887 4.887 0 0 1 .623 1.231c.382 1.102.551 2.707-.401 5.009a9.363 9.363 0 0 1-.858-1.709c-.313-.853-.465-1.76-.31-2.622.113-.638.378-1.27.946-1.909z"/><path d="M426.327 336.646s-1.331-5.774-8.66-4.815c0 .004 2.2 6.099 8.66 4.814z" stroke="#efbb22" stroke-width=".886"/><path d="M423.965 334.618a5.821 5.821 0 0 1 .836 1.136c-2.115.08-3.48-.799-4.468-1.79-2.617-2.526 2.759-.249 3.632.654z"/><path d="M428.387 340.312s-1.144-5.59-9.163-5.317c0 0 2.702 6.554 9.163 5.317z" stroke="#efbb22" stroke-width=".886"/><path d="M421.101 336.118c2.578.248 4.035 1.218 4.933 2.168a6.037 6.037 0 0 1 .83 1.107c-2.132.034-3.616-.934-4.72-2.039a9.232 9.232 0 0 1-1.043-1.236z"/><path d="M428.846 339.991s-5.226-3.16-.825-9.99c0 0 3.163 2.978.825 9.99z" stroke="#efbb22" stroke-width=".886"/><path d="M428.076 332.093c.07.176.14.376.208.59.354 1.157.564 2.884.014 5.32a5.288 5.288 0 0 1-.535-.895c-.509-1.112-.785-2.683.32-5.015z"/><path d="M431.687 343.656s-1.833-5.173-9.118-4.215c0 0 1.512 5.178 9.118 4.215z" stroke="#efbb22" stroke-width=".886"/><path d="M424.36 340.393c2.38 0 3.841.79 4.802 1.61a6.011 6.011 0 0 1 .698.705c-2.492.004-3.954-.791-4.876-1.602a5.785 5.785 0 0 1-.68-.713z"/><path d="M431.687 343.656s-6.277-5.451-1.33-9.482c0-.003 4.489 2.792 1.33 9.482z" stroke="#efbb22" stroke-width=".886"/><path d="M430.394 335.61a4.972 4.972 0 0 1 .843 1.255c.499 1.048.825 2.573.08 4.846-.406-.49-.853-1.097-1.193-1.771-.416-.814-.657-1.68-.576-2.478.06-.61.278-1.216.846-1.853z"/><path d="M435.946 347.002s-3.802-5.087-10.903-3.757c0 0 5.04 5.223 10.903 3.757z" stroke="#efbb22" stroke-width=".886"/><path d="M427.827 344.097a9.915 9.915 0 0 1 5.76 2.078c-2.274-.082-4.334-1.124-5.76-2.078z"/><path d="M435.946 347.002s-6.78-2.247-2.885-9.668c0 0 3.071.732 2.885 9.668z" stroke="#efbb22" stroke-width=".886"/><path d="M433.448 339.044c.061.09.128.192.194.306.518.91 1.113 2.66 1.221 5.851a5.422 5.422 0 0 1-.985-.922c-.862-1.064-1.496-2.565-.43-5.235z"/><g><path d="M438.834 349.843s-3.254-5.362-9.988-3.483c0 0 3.803 5.637 9.988 3.483z" stroke="#efbb22" stroke-width=".886"/><path d="M431.652 347.027c1.76-.002 3.1.585 4.117 1.268a8.168 8.168 0 0 1 1.144.916c-1.993.266-3.573-.385-4.799-1.197a9.618 9.618 0 0 1-1.21-.952 8.553 8.553 0 0 1 .748-.035z"/><path d="M438.834 349.843s-6.873-4.858-2.475-9.577c0 0 4.4 1.97 2.475 9.577z" stroke="#efbb22" stroke-width=".886"/><path d="M436.574 341.711c.25.232.54.567.823 1.04.58.979 1.091 2.538.744 5.065a10.25 10.25 0 0 1-1.293-1.575c-.515-.793-.863-1.663-.883-2.511-.014-.645.13-1.299.61-2.019z"/></g><g><path d="M442.64 353.692s-7.61-4.991-3.623-10.077c0-.003 4.904 2.104 3.622 10.077z" stroke="#efbb22" stroke-width=".886"/><path d="M439.336 345.08c.32.265.706.646 1.093 1.2.745 1.068 1.446 2.724 1.343 5.35a12.221 12.221 0 0 1-1.578-1.712c-.628-.848-1.108-1.796-1.227-2.723a3.432 3.432 0 0 1 .37-2.115z"/><path d="M442.64 353.692s-3.025-6.185-10.587-3.341c0-.005 4.353 6.137 10.586 3.341z" stroke="#efbb22" stroke-width=".886" stroke-linejoin="round"/><path d="M435.868 350.657c1.604 0 2.786.537 3.696 1.175a7.305 7.305 0 0 1 1.415 1.313c-2.193.577-3.977-.087-5.397-.984a10.43 10.43 0 0 1-1.618-1.274 8.383 8.383 0 0 1 1.904-.23z"/></g><g><path d="M447.082 357.495s-7.606-4.45-4.125-9.852c0 0 4.448 1.88 4.125 9.852z" stroke="#efbb22" stroke-width=".886"/><path d="M443.361 349.195c.268.238.584.567.912 1.018.741 1.014 1.504 2.613 1.702 5.144a11.26 11.26 0 0 1-1.432-1.44c-.659-.803-1.176-1.72-1.356-2.653a3.696 3.696 0 0 1 .174-2.069z"/><path d="M446.484 357.174s-3.846-5.727-10.54-2.566c0 0 4.814 5.728 10.54 2.566z" stroke="#efbb22" stroke-width=".886"/><path d="M439.895 354.712c1.324-.002 2.403.41 3.294.924a8.08 8.08 0 0 1 1.526 1.147c-1.982.638-3.707.125-5.136-.651a10.205 10.205 0 0 1-1.668-1.127 7.223 7.223 0 0 1 1.984-.293z"/></g><g><path d="M449.325 360.06s-6.368-3.848-2.84-9.254c0 0 5.086 2.564 2.84 9.253z" stroke="#efbb22" stroke-width=".886"/><path d="M446.847 352.37c.316.273.68.656 1.011 1.15.69 1.033 1.252 2.493.845 4.705-1.792-1.68-2.609-4.04-1.856-5.856z"/><path d="M449.325 360.06s-2.52-5.131-9.206-1.925c0 0 3.48 5.087 9.206 1.924z" stroke="#efbb22" stroke-width=".886"/><path d="M444.229 358.134a4.657 4.657 0 0 1 2.448.682 4.861 4.861 0 0 1 1.025.824c-1.99.755-3.46.336-4.607-.297a6.802 6.802 0 0 1-1.142-.8c.874-.294 1.625-.41 2.276-.41z"/></g><g><path d="M482.074 321.844s7.518-4.216 4.308-6.37c-2.888-1.877-4.627 3.345-4.308 6.37z" stroke="#efbb22" stroke-width=".886"/><path d="M485.214 316.128a.666.666 0 0 0-.299.09c-.25.121-.622.5-.935 1.095-.358.682-.623 1.618-.759 2.52.49-.345 1.022-.746 1.496-1.17.676-.606 1.202-1.272 1.34-1.655.066-.191.055-.266.038-.323-.017-.057-.056-.152-.305-.323-.274-.169-.438-.234-.575-.234z"/><path d="M480.014 325.693s5.5-6.554.502-10.631c0 0-4.032 3.62-.502 10.631z" stroke="#efbb22" stroke-width=".886"/><path d="M480.612 316.654a6.26 6.26 0 0 0-.645 1.42c-.398 1.245-.578 3.01.261 5.402a11.5 11.5 0 0 0 .898-1.92c.337-.96.508-1.99.36-2.941a3.951 3.951 0 0 0-.874-1.961z"/><path d="M480.014 325.693s1.374-6.596 8.797-5.638c0 0-2.382 6.875-8.797 5.638z" stroke="#efbb22" stroke-width=".886"/><path d="M487.158 321.03c-2.42.043-3.788 1.07-4.704 2.17a7.128 7.128 0 0 0-.982 1.572c2.1.031 3.503-.981 4.546-2.154a9.352 9.352 0 0 0 1.14-1.587z"/><path d="M478.593 329.496s.687-6.282 8.02-5.317c0 0-.873 4.812-8.02 5.317z" stroke="#efbb22" stroke-width=".886"/><path d="M485.058 325.148c-2.393 0-3.585.96-4.346 1.973a5.65 5.65 0 0 0-.643 1.109c2.334-.438 3.631-1.405 4.405-2.289a5.51 5.51 0 0 0 .59-.793z"/><path d="M478.089 329.311s5.177-6.046.183-10.125c0 0-4.353 4.49-.183 10.125z" stroke="#efbb22" stroke-width=".886"/><path d="M478.397 320.804a7.137 7.137 0 0 0-.753 1.65c-.404 1.3-.543 2.943.487 4.922.32-.53.66-1.202.903-1.93.297-.893.436-1.847.264-2.751a4.076 4.076 0 0 0-.901-1.891z"/><path d="M476.484 332.656s.872-5.636 8.202-4.673c0 0-1.74 5.956-8.202 4.673z" stroke="#efbb22" stroke-width=".886"/><path d="M483.018 328.94c-2.365-.003-3.602.856-4.375 1.728a5.175 5.175 0 0 0-.732 1.095c2.144.117 3.417-.739 4.312-1.695a6.735 6.735 0 0 0 .848-1.128z"/><path d="M476.209 333.16s5.177-6.096.183-10.174c0 .004-4.03 3.622-.183 10.175z" stroke="#efbb22" stroke-width=".886"/><path d="M476.49 324.576a5.954 5.954 0 0 0-.606 1.357c-.366 1.2-.499 2.87.46 5.122.29-.504.59-1.12.81-1.787.294-.898.433-1.862.261-2.77a4.035 4.035 0 0 0-.924-1.922z"/><path d="M473.78 336.643s5.36-5.773.37-9.806c0 0-4.127 3.117-.37 9.806z" stroke="#efbb22" stroke-width=".886"/><path d="M474.193 328.354a4.887 4.887 0 0 0-.622 1.231c-.383 1.102-.552 2.707.4 5.009a9.366 9.366 0 0 0 .858-1.709c.314-.853.465-1.76.31-2.622-.113-.638-.378-1.27-.946-1.909z"/><path d="M473.78 336.643s1.332-5.773 8.661-4.815c0 .004-2.2 6.099-8.66 4.815z" stroke="#efbb22" stroke-width=".886"/><path d="M476.142 334.615a5.821 5.821 0 0 0-.836 1.136c2.115.08 3.48-.798 4.468-1.79 2.618-2.526-2.758-.249-3.632.654z"/><path d="M471.72 340.309s1.144-5.59 9.163-5.317c0 0-2.702 6.554-9.163 5.317z" stroke="#efbb22" stroke-width=".886"/><path d="M479.006 336.115c-2.577.248-4.035 1.218-4.932 2.168a6.037 6.037 0 0 0-.831 1.107c2.132.034 3.617-.934 4.721-2.039a9.232 9.232 0 0 0 1.042-1.236z"/><path d="M471.26 339.988s5.227-3.16.826-9.989c0 0-3.163 2.977-.825 9.99z" stroke="#efbb22" stroke-width=".886"/><path d="M472.031 332.09c-.07.176-.14.376-.207.59-.354 1.157-.565 2.884-.014 5.32a5.288 5.288 0 0 0 .534-.895c.509-1.112.786-2.683-.319-5.015z"/><path d="M468.42 343.653s1.833-5.173 9.119-4.215c0 0-1.513 5.178-9.12 4.215z" stroke="#efbb22" stroke-width=".886"/><path d="M475.747 340.39c-2.38.001-3.84.79-4.802 1.61a6.011 6.011 0 0 0-.698.705c2.493.004 3.954-.791 4.876-1.602.274-.243.499-.486.68-.714z"/><path d="M468.42 343.653s6.278-5.45 1.331-9.482c-.001-.002-4.49 2.792-1.331 9.482z" stroke="#efbb22" stroke-width=".886"/><path d="M469.713 335.606a4.972 4.972 0 0 0-.842 1.256c-.5 1.048-.825 2.574-.081 4.846.407-.489.853-1.097 1.194-1.77.415-.814.656-1.68.575-2.479-.06-.61-.278-1.216-.846-1.853z"/><path d="M464.161 347s3.802-5.088 10.904-3.758c0 0-5.042 5.223-10.904 3.757z" stroke="#efbb22" stroke-width=".886"/><path d="M472.28 344.094a9.917 9.917 0 0 0-5.76 2.078c2.274-.082 4.334-1.124 5.76-2.078z"/><path d="M464.161 347s6.78-2.248 2.885-9.668c0 0-3.07.731-2.885 9.667z" stroke="#efbb22" stroke-width=".886"/><path d="M466.659 339.041c-.06.09-.128.192-.194.307-.518.91-1.113 2.66-1.22 5.85.33-.243.68-.55.984-.922.862-1.064 1.496-2.565.43-5.235z"/><g><path d="M461.273 349.84s3.254-5.362 9.988-3.483c0 0-3.802 5.637-9.988 3.483z" stroke="#efbb22" stroke-width=".886"/><path d="M468.455 347.025c-1.76-.003-3.099.584-4.117 1.267a8.168 8.168 0 0 0-1.144.916c1.993.267 3.573-.384 4.799-1.197a9.618 9.618 0 0 0 1.21-.952 8.553 8.553 0 0 0-.748-.034z"/><path d="M461.273 349.84s6.873-4.858 2.475-9.577c0 0-4.399 1.97-2.475 9.577z" stroke="#efbb22" stroke-width=".886"/><path d="M463.533 341.708c-.25.233-.54.567-.822 1.04-.582.979-1.092 2.538-.745 5.065.433-.438.903-.976 1.293-1.575.515-.793.864-1.663.884-2.511.013-.645-.13-1.299-.61-2.019z"/></g><g><path d="M457.468 353.69s7.609-4.992 3.622-10.078c0-.003-4.904 2.104-3.622 10.077z" stroke="#efbb22" stroke-width=".886"/><path d="M460.771 345.077a6.03 6.03 0 0 0-1.093 1.2c-.744 1.068-1.446 2.724-1.342 5.35a12.247 12.247 0 0 0 1.578-1.711c.627-.848 1.107-1.797 1.226-2.724a3.426 3.426 0 0 0-.369-2.115z"/><path d="M457.468 353.69s3.024-6.186 10.586-3.342c0-.004-4.352 6.137-10.586 3.341z" stroke="#efbb22" stroke-width=".886"/><path d="M464.239 350.654c-1.603 0-2.786.537-3.696 1.175a7.305 7.305 0 0 0-1.415 1.313c2.193.577 3.977-.087 5.397-.984a10.43 10.43 0 0 0 1.618-1.274 8.385 8.385 0 0 0-1.904-.23z"/></g><g><path d="M453.025 357.492s7.606-4.45 4.125-9.852c0 0-4.447 1.88-4.125 9.852z" stroke="#efbb22" stroke-width=".886"/><path d="M456.746 349.192a6.315 6.315 0 0 0-.911 1.018c-.742 1.014-1.505 2.613-1.703 5.144.47-.397.977-.886 1.432-1.44.66-.803 1.177-1.72 1.357-2.653a3.696 3.696 0 0 0-.175-2.069z"/><path d="M453.623 357.171s3.846-5.727 10.54-2.566c0 0-4.814 5.728-10.54 2.566z" stroke="#efbb22" stroke-width=".886"/><path d="M460.213 354.709c-1.325-.002-2.403.411-3.295.924a8.08 8.08 0 0 0-1.526 1.147c1.982.638 3.708.125 5.137-.65.656-.35 1.217-.758 1.667-1.128a7.223 7.223 0 0 0-1.983-.293z"/></g><g><path d="M450.782 360.057s6.368-3.848 2.84-9.254c0 0-5.086 2.564-2.84 9.254z" stroke="#efbb22" stroke-width=".886"/><path d="M453.26 352.367a5.811 5.811 0 0 0-1.01 1.15c-.69 1.033-1.253 2.493-.846 4.705 1.792-1.68 2.61-4.04 1.856-5.855z"/><path d="M450.782 360.057s2.52-5.131 9.206-1.924c0 0-3.48 5.086-9.206 1.924z" stroke="#efbb22" stroke-width=".886"/><path d="M455.879 358.131a4.66 4.66 0 0 0-2.449.682 4.861 4.861 0 0 0-1.025.824c1.99.756 3.46.336 4.608-.297a6.802 6.802 0 0 0 1.141-.8c-.873-.294-1.625-.41-2.275-.409z"/></g></g></g><g fill="#fff"><path d="M399.683 341.056c-3.628.084-7.37 3.595-8.989 4.978-2.198 1.922-2.838 2.842-2.838 2.842-.642.963-1.603-5.726-8.294 1.283-6.69 7.008-6.368 6.692-6.05 9.895.324 3.16.324 5.085 0 7.926 0 0 7.65-3.16 7.65-4.126 0 0 1.65 8.433 6.371 10.174 3.024 1.1 4.123-1.28 4.123-1.28s6.368-4.765 6.69-6.052c.322-1.282 20.987 19.751 51.825 19.428 30.836.323 51.5-20.711 51.823-19.428.319 1.283 6.687 6.052 6.687 6.052s1.102 2.385 4.126 1.28c4.718-1.74 6.368-10.174 6.368-10.174 0 .963 7.653 4.126 7.653 4.126-.322-2.84-.322-4.763 0-7.926.322-3.207.64-2.887-6.05-9.895-6.688-7.009-7.65-.323-8.295-1.286 0 0-.642-.915-2.84-2.84-2.244-1.922-8.612-7.97-13.06-3.16-19.839 21.214-41.009 21.946-46.413 21.946-5.41 0-26.577-.736-46.417-21.945-1.246-1.356-2.652-1.85-4.07-1.818z" stroke="#efbb22" stroke-width=".886"/><path d="M399.727 343.096c-.72.021-1.567.255-2.453.675-2.022.96-4.037 2.775-5.241 3.808-1.891 1.656-2.406 2.332-2.49 2.448v.02a1.71 1.71 0 0 1-.166.2v.009c-.648.717-1.627 2.071-2.393 3.245.043.02.085.03.114.05 1.725.829 3.16 2.357 5.729 5.113 4.486 4.767 4.834 4.923 6.26 6.025.192.056.32.127.433.18.407.2.668.385 1.016.635.692.49 1.59 1.185 2.758 2.054 2.342 1.738 5.726 4.148 10.076 6.596 8.703 4.901 21.225 9.933 36.803 9.933 15.572 0 28.096-5.034 36.8-9.933 4.35-2.45 7.736-4.862 10.073-6.596 1.17-.87 2.068-1.566 2.76-2.055.346-.25.61-.436 1.017-.633.113-.056.238-.126.432-.18 1.424-1.103 1.778-1.26 6.258-6.026 2.575-2.756 4.004-4.284 5.732-5.114.042-.02.085-.03.113-.05-.761-1.173-1.746-2.527-2.394-3.244v-.009c-.057-.067-.128-.142-.17-.2v-.02c-.084-.116-.6-.792-2.491-2.448-1.203-1.033-3.223-2.851-5.245-3.808-1.013-.48-1.972-.719-2.751-.67-.776.048-1.424.285-2.226 1.152v.014c-20.33 21.741-42.887 22.595-47.907 22.595-5.017 0-27.573-.854-47.907-22.595v-.014c-.8-.865-1.45-1.102-2.225-1.153a3.577 3.577 0 0 0-.301-.004zm-14.942 5.832c-.085-.005-.215.028-.506.133-.578.206-1.697.891-3.24 2.51a191.339 191.339 0 0 0-3.347 3.574 7.9 7.9 0 0 1 .643.278c1.493.76 2.769 2.18 3.71 4.343-.715-2.552-.465-4.551.057-5.897.615-1.572 1.783-3.328 2.929-4.787-.029-.027-.071-.053-.085-.067-.057-.041-.086-.082-.16-.087zm130.775 0c-.085.01-.1.046-.166.087-.028.014-.042.04-.085.065 1.141 1.46 2.31 3.214 2.925 4.788.531 1.347.775 3.344.07 5.898.942-2.162 2.218-3.583 3.714-4.343.21-.105.426-.2.637-.278a227.268 227.268 0 0 0-3.345-3.574c-1.545-1.619-2.664-2.303-3.24-2.51-.292-.11-.426-.138-.504-.132zm-132.834 12.737a20.69 20.69 0 0 1 .443 1.801v.002-.001s.383 1.916 1.285 4.016c.908 2.097 2.359 4.104 3.785 4.633.985.357 1.127.149 1.321.014l.071-.064c-.07-.338-.316-.777-.97-1.641-.908-1.207-2.431-2.92-4.108-5.422a20.978 20.978 0 0 1-1.83-3.338zm134.891 0a20.402 20.402 0 0 1-1.83 3.337c-1.673 2.506-3.196 4.219-4.109 5.421-.65.865-.903 1.303-.97 1.642l.072.064c.19.139.334.343 1.32-.014 1.43-.53 2.88-2.532 3.783-4.633a22.252 22.252 0 0 0 1.285-4.017v.002-.002c.127-.64.276-1.236.442-1.8z"/><path d="M387.856 348.879c-1.284 1.282-3.21 4.167-3.852 5.729-.592 1.603-.914 4.49 2.249 9.252 3.207 4.764 5.406 5.727 5.406 8.89" stroke="#efbb22" stroke-width=".886"/><path d="M373.836 357.176c1.6-.64 5.726-1.282 7.327 6.691" stroke="#efbb22" stroke-width=".886" stroke-linecap="square"/><path d="M383.733 356.207c1.557-1.877 2.52-1.603 7.604 3.85 5.09 5.405 5.223 5.034 7.146 6.59" stroke="#efbb22" stroke-width=".886"/><path d="M385.632 357.424c.664.482 2.11 1.773 4.215 4.025v.01c3.32 3.528 4.599 4.73 5.59 5.541a36.183 36.183 0 0 1-1.862 1.63c-.266.22-.523.43-.78.636a13.521 13.521 0 0 0-.879-1.304c-1.088-1.444-2.455-2.963-3.973-5.232-1.615-2.425-2.192-4.11-2.314-5.306zm-9.998 1.427c.27.009.562.06.845.207.673.342 1.694 1.33 2.431 4.106-.612.37-1.528.838-2.448 1.273-.227.107-.454.214-.676.316.028-1.508-.043-3.03-.241-4.905-.043-.401-.071-.727-.1-.985.057-.007.128-.012.186-.012z"/><path d="M512.486 348.879c1.285 1.282 3.207 4.167 3.85 5.729.598 1.603.916 4.49-2.243 9.252-3.21 4.764-5.41 5.727-5.41 8.89" stroke="#efbb22" stroke-width=".886"/><path d="M526.51 357.176c-1.607-.64-5.73-1.282-7.333 6.691" stroke="#efbb22" stroke-width=".886" stroke-linecap="square"/><path d="M516.61 356.207c-1.558-1.877-2.52-1.603-7.607 3.85-5.084 5.405-5.22 5.034-7.144 6.59" stroke="#efbb22" stroke-width=".886"/><path d="M514.706 357.424c-.659.482-2.11 1.773-4.209 4.025v.01c-3.323 3.528-4.602 4.73-5.593 5.541a41.725 41.725 0 0 0 1.862 1.63c.268.22.526.43.787.636a13.496 13.496 0 0 1 .874-1.304c1.086-1.444 2.453-2.963 3.972-5.232 1.621-2.425 2.193-4.11 2.313-5.306zm10.003 1.427c-.271.009-.562.06-.845.207-.674.342-1.697 1.33-2.429 4.106.61.37 1.523.838 2.443 1.273.227.107.454.214.68.316-.028-1.508.043-3.03.239-4.905.042-.401.07-.727.099-.985a1.415 1.415 0 0 0-.182-.012z"/></g><g fill-rule="evenodd"><path d="M472.049 377.396c-.433-.355-.516-.69-.277-1.12.249-.446.692-.549 1.118-.258.45.306.511.604.228 1.113-.297.534-.64.619-1.07.265zm-20.969 3.976c.017-.154.216-.59 1.072-.854l1.266-.066-.128-.536-.128-.537-2.47.224c-.862-2.69-.458-3.39 1.208-4.962.63-.438 1.8-.813 1.869-.833l.638 3.592 1.6-.388c.28-1.747.53-2.377 1.33-2.992.317-.356.37-.531.315-1.03-.052-.473.014-.719.31-1.164.206-.31.443-.584.526-.607.102-.03.243.289.435.981l.283 1.026.494-.01c.738-.014 1.521.6 1.939 1.52.186.41.376.814.423.9l3.097-1.13.645-1.104c.355-.607.654-1.107.666-1.11.012-.003.498.282 1.081.634l1.06.64 1.739-.473c.956-.26 1.757-.536 1.78-.614.04-.137-1.006-1.065-1.455-1.29-.123-.062-.387-.055-.586.016-.315.113-.38.08-.495-.244-.215-.604-.157-1.028.184-1.352.695-.66 1.272-.45 2.528.918.453.495 1.078 1.037 1.388 1.206.55.3.591.299 1.58-.01l1.017-.318-.752-3.438c-.414-1.89-.73-3.54-.703-3.665.069-.321.757-1.09.925-1.034.085.029.56 1.809 1.208 4.533 1.026 4.306 1.061 4.499.882 4.822-.18.323-.355.382-4.516 1.514-4.252 1.158-4.33 1.184-4.42 1.5-.05.178-.273.496-.495.707-.698.662-1.535.733-2.404.203l-.478-.29s-3.016 1.142-5.761 1.733c-2.813.606-5.109.98-5.109.98l.143.889c.217 2.794-3.503 2.628-3.73 1.513z" fill="#efbb22"/><path d="M467.564 375.198c.269-.484-.059-.902-.594-.757-.236.065-.465.48-.405.734.034.14.52.378.681.334.094-.026.237-.165.318-.31zm-14.784 1.663c-.072-.434-.153-.589-.317-.61-.395-.049-.88 1.114-.59 1.414.059.06.309.035.556-.056.434-.16.446-.186.351-.748zm5.509-.82c-.031-.294-.125-.584-.208-.644-.216-.155-.682.699-.606 1.11.053.29.11.313.466.2.372-.12.4-.173.348-.666zm2.178-.34c-.04-.454-.533-.904-.75-.687-.133.13.008 1.099.177 1.22.06.042.221.035.36-.017.18-.068.24-.214.213-.517z" fill="#fff"/><path d="M407.15 363.716c-.232-.464-.195-1.392.062-1.555.105-.065.398.085.858.441l.7.54.947-1.166c1.056-1.3 1.246-1.4 2.246-1.186.612.131.615.173.089.982l-.333.513.877.794.877.794.154-.363c.822-1.954 1.602-2.14 3.168-.758.625.551 1.004.803 1.305.866.232.049.445.155.473.237.055.162-.698 1.24-1 1.43-.154.097-.366-.03-1.136-.682-1.004-.85-1.163-.893-1.384-.37-.251.595.07 1.038 1.744 2.402l1.52 1.237 2.1-2.723c1.157-1.498 2.192-2.767 2.301-2.82.281-.136 1.27-.017 1.33.16.03.089-1 1.564-2.624 3.754-2.181 2.943-2.729 3.623-2.974 3.695-.285.085-.489-.066-4.079-3.023l-3.778-3.111-.493.52c-.274.29-.65.55-.848.586-.777.146-1.692-.374-2.102-1.194zm12.777 8.148c-.005-.077 1.16-1.607 2.591-3.401l2.601-3.262.828-.071c.54-.046.832-.004.842.12.009.12-1.097 1.564-2.946 3.848l-2.961 3.657-.472-.376c-.26-.207-.477-.439-.483-.515zm59.904.338c-.064-.033-.716-1.88-1.448-4.103l-1.332-4.043.36-.8c.233-.522.414-.772.52-.718.1.052.713 1.8 1.631 4.657l1.47 4.573-.541.248c-.298.135-.595.22-.66.186zm4.957-3.91c-.09-.058-.324-.357-.52-.665l-.355-.558 1.596-1.414 1.597-1.414-.231-.389c-.393-.662-.562-.618-1.906.499-1.355 1.126-1.317 1.12-1.949.246-.526-.73-.52-.944.028-.992.346-.03.643-.207 1.418-.842 1.474-1.21 1.544-1.248 2.12-1.171.53.07.533.074 1.518 1.428.855 1.177.98 1.403.932 1.694-.048.29-.34.572-2.07 2.01-1.617 1.343-2.047 1.652-2.178 1.568zm18.344-15.025c-.072-.003-1.365-1.411-2.873-3.131l-2.742-3.127.026-.887c.018-.579.09-.885.206-.881.112.003 1.332 1.34 3.249 3.559l3.07 3.553-.403.46c-.221.252-.461.456-.533.454zm-57.88 27.73c-.405-.31-.767-1.153-.609-1.422.064-.109.39-.119.951-.027l.854.138.343-1.501c.286-1.253.393-1.542.652-1.747.368-.293 1.297-.597 1.387-.453.124.198-.736 4.456-.963 4.762-.534.722-1.831.846-2.615.249zm-5.5-.686c-.354-.44-.293-.81.188-1.156.467-.335.787-.273 1.067.205.282.48.206.86-.23 1.152-.436.292-.666.246-1.026-.201zm2.204.474a1.083 1.083 0 0 1-.142-.664c.076-.408.573-.797.925-.722.352.074.675.635.6 1.043-.075.407-.573.796-.925.722-.14-.03-.346-.2-.458-.379zm-5.51-4.158c-.062-.39 1.76-9.516 1.904-9.536.08-.01.33.236.56.548l.415.568-.584 3.526-.584 3.526 2.414.509 2.414.508.2-.663c.11-.365.257-.747.328-.848.182-.264 1.156-.752 1.271-.638.054.053-.054.918-.24 1.921-.474 2.578-.077 2.445-4.506 1.512-2.741-.577-3.568-.792-3.591-.933zm-9.54-3.077c-.09-.224-.048-.557.15-1.17.304-.947.59-1.234 1.397-1.405.527-.112.548-.052.305.89l-.155.601 2.06.798c2.282.884 2.254.884 2.532.033.134-.412.283-.568.804-.84 1.088-.567 1.121-.455.466 1.58-.798 2.478-.442 2.4-4.33.969-2.852-1.049-3.115-1.167-3.23-1.456zm3.533-5.03c-.135-.224-.193-.52-.136-.698.103-.32.784-.663 1.092-.55.235.086.583.878.5 1.135-.083.258-.813.653-1.048.567-.095-.035-.278-.24-.408-.454zm2.076.708c-.109-.238-.167-.526-.13-.64.086-.27.817-.651 1.07-.558.252.093.609.874.522 1.143-.087.27-.818.651-1.07.558-.107-.04-.284-.266-.392-.503zm58.986-5.855c-.33-.175-6.143-7.139-6.073-7.275.039-.074.373-.146.744-.158l.674-.023 2.316 2.587 2.317 2.587 1.735-1.657c.955-.91 1.773-1.735 1.818-1.832.106-.23-.17-.332-1.222-.45-.685-.077-.858-.04-1.095.23-.25.287-.312.294-.564.061-.457-.422-.594-.824-.437-1.283.318-.934.918-1.042 2.632-.475.618.205 1.409.365 1.757.356l.632-.015.992-1.03.992-1.03-.419-.597c-.357-.508-.41-.698-.364-1.288.095-1.187.18-1.165 1.528.4 1.067 1.238 1.183 1.413 1.169 1.765-.014.38-.142.516-4.496 4.8-3.508 3.453-4.514 4.392-4.636 4.327zm2.99-11.446c-.248-.011-.53-.114-.629-.228-.24-.28-.201-.94.071-1.207.277-.273.939-.277 1.171-.008.21.244.202 1.103-.012 1.313-.084.083-.354.14-.601.13zm1.62-1.594c-.248-.01-.53-.114-.63-.228-.367-.427-.077-1.35.452-1.438.593-.099 1.13.582.934 1.184-.14.43-.258.504-.757.482zm-92.264 11.468c-.052-.592.422-1.046.958-.918.358.085.412.137.533.506.179.55-.14 1.04-.713 1.096-.521.05-.73-.133-.778-.684zm-4.414-4.38c-.096-.57.133-.856.712-.892.561-.035.807.192.822.756.014.567-.232.852-.746.867-.514.015-.69-.15-.788-.73zm1.674 1.606c-.012-.215.075-.507.194-.65.258-.31.871-.374 1.14-.12.268.256.279.914.02 1.225-.258.31-.87.375-1.14.12-.106-.101-.202-.36-.214-.575zm-4.833-8.424c-.003-.071.307-.506.69-.965.552-.662.833-.897 1.356-1.135 1.083-.492 1.569-.433 2.713.33.544.364 1.14.687 1.326.718.185.03.38.098.434.149.059.056-.327.626-.973 1.437l-1.07 1.344 1.692 1.61 1.694 1.61.487-.463c.268-.255.576-.504.684-.554.218-.1 1.23-.034 1.36.09.045.042-.245.517-.644 1.054l-.727.977 1.016.966 1.016.966.514-.505c.438-.43.61-.506 1.163-.515 1.115-.018 1.103.075-.22 1.664-1.047 1.258-1.198 1.399-1.528 1.42-.356.022-.494-.1-5.67-5.023-2.918-2.774-5.309-5.103-5.313-5.175z" fill="#efbb22"/><path d="M399.974 350.913c.306-.368.356-.507.24-.669a1.017 1.017 0 0 0-1.177-.381c-.685.224-.689.454-.019 1.027l.57.487z" fill="#fff"/><path d="M401.53 345.08c-.033-.582.201-.896.69-.926.725-.046 1.084.78.595 1.367-.252.303-.875.404-1.11.18-.083-.078-.162-.358-.176-.622zm1.644 1.563c-.033-.6.179-.863.707-.878.514-.015.787.236.834.767.045.516-.158.767-.706.872-.533.102-.802-.142-.835-.76z" fill="#efbb22"/></g><path d="M463.175 223.267c.085-.795.05-.52.182-1.122 0 0 5.222-4.585 8.106-1.17 0 0-3.858-.126-4.812 2.6-1.255-.288-2.482-.518-3.476-.308zm.182-1.122c-1.419-1.59-1.189-5.614.322-7.345l.085-.097c.53.163.831.284.831.284s6.364-.655 7.005 3.228c0 0-6.476 1-8.243 3.93z" fill="#fff" fill-rule="evenodd" stroke="#efbb22" stroke-width=".892"/><g fill="#fff"><g stroke="#efbb22" stroke-width=".886"><path d="M512.016 359.1c.594-.823.961-2.701-.964-4.306-1.56-1.282-2.2-1.42-2.518-2.062 0 0-.966 2.2-.184 4.123.364.872 1.74 4.768 3.666 2.246z"/><path d="M509.447 362.587c.686-.736.87-2.29-.552-3.755-1.51-1.468-3.664-1.055-4.075-1.65-.16.938.042 2.884.55 4.169 0 0 2.338 3.163 4.077 1.236zm-3.343 3.198c.778-.687.412-2.887-1.19-4.124-1.651-1.33-3.02-1.2-3.372-1.82-.66 1.283-.68 3.571.3 4.616 1.326 1.42 3.159 2.244 4.262 1.328z"/></g><path d="M509.12 354.617c-.07.588-.062 1.266.174 1.851.217.519.648 1.59 1.093 2.134.222.274.38.322.357.319-.024-.002.09.044.45-.425.14-.199.317-.657.266-1.155-.05-.507-.274-1.101-1.062-1.756a18.118 18.118 0 0 0-1.277-.968zm-3.335 3.98c.116.796.325 1.761.486 2.25.17.206.59.678 1.06 1.001.31.212.616.328.8.338.187.011.292.01.559-.282v-.007l.014-.009c.257-.27.598-1.165-.526-2.336-.547-.522-1.22-.732-1.928-.87a15.53 15.53 0 0 0-.464-.086zm-3.787 2.69c0 .07-.014.14-.014.209-.014.853.292 1.932.595 2.262.572.611 1.262 1.08 1.81 1.272.522.184.8.153 1.019-.008-.037.01.123-.325-.014-.857a3.225 3.225 0 0 0-1.122-1.7l-.014-.011-.014-.005c-.732-.588-1.282-.832-1.771-1.012l-.5-.15z"/><g stroke="#efbb22" stroke-width=".886"><path d="M386.8 359.1c-.594-.823-.96-2.702.964-4.307 1.56-1.28 2.2-1.42 2.518-2.061 0 0 .966 2.2.185 4.123-.365.872-1.74 4.768-3.667 2.246z"/><path d="M389.37 362.587c-.687-.736-.87-2.291.55-3.756 1.51-1.467 3.665-1.054 4.077-1.65.159.939-.043 2.885-.55 4.17 0 0-2.338 3.163-4.078 1.236zm3.342 3.198c-.778-.687-.412-2.888 1.191-4.124 1.65-1.33 3.018-1.2 3.372-1.82.66 1.283.679 3.571-.301 4.616-1.325 1.42-3.159 2.244-4.262 1.328z"/></g><path d="M389.696 354.616c.07.589.062 1.267-.174 1.852-.216.519-.648 1.59-1.093 2.134-.222.274-.38.322-.357.319.024-.002-.09.044-.45-.426-.14-.198-.317-.656-.266-1.154.05-.507.274-1.101 1.062-1.756a18.118 18.118 0 0 1 1.278-.969zm3.335 3.98c-.116.797-.324 1.762-.486 2.25-.17.207-.59.68-1.06 1.002-.31.212-.616.328-.8.338-.187.011-.292.01-.559-.282v-.008l-.014-.008c-.257-.27-.598-1.165.526-2.337.548-.521 1.221-.731 1.928-.869a15.53 15.53 0 0 1 .464-.086zm3.787 2.69c0 .07.014.141.014.21.015.853-.292 1.932-.595 2.262-.571.611-1.262 1.08-1.81 1.272-.522.184-.8.153-1.018-.009.036.01-.124-.324.014-.856a3.224 3.224 0 0 1 1.121-1.7l.014-.011.015-.005c.731-.588 1.281-.832 1.77-1.012l.501-.15z"/></g></svg>