<?xml version="1.0" encoding="UTF-8" standalone="no"?>
<!-- Created with Inkscape (http://www.inkscape.org/) -->
<svg
   xmlns:svg="http://www.w3.org/2000/svg"
   xmlns="http://www.w3.org/2000/svg"
   xmlns:xlink="http://www.w3.org/1999/xlink"
   version="1.0"
   width="10.6299in"
   height="7.0866098in"
   viewBox="0 0 10630 7086"
   id="svg2"
   xml:space="preserve">
 <defs
   id="defs4"><linearGradient
     id="linearGradient8408"><stop
       style="stop-color:#f0ed8c;stop-opacity:1"
       offset="0"
       id="stop8410" /><stop
       style="stop-color:#cb9b26;stop-opacity:1"
       offset="1"
       id="stop9427" /><stop
       style="stop-color:#cb9b26;stop-opacity:0"
       offset="1"
       id="stop8412" /></linearGradient><linearGradient
     x1="6255.7397"
     y1="903.62994"
     x2="6488.9502"
     y2="903.62994"
     id="linearGradient7748"
     xlink:href="#linearGradient8408"
     gradientUnits="userSpaceOnUse"
     gradientTransform="translate(2.0132,919.72907)" /><linearGradient
     x1="5190.6743"
     y1="652.07288"
     x2="5435.2993"
     y2="652.07288"
     id="linearGradient7750"
     xlink:href="#linearGradient8408"
     gradientUnits="userSpaceOnUse"
     gradientTransform="translate(2.0132,919.72907)" /><linearGradient
     x1="3248.1262"
     y1="1074.6855"
     x2="3512.1829"
     y2="1074.6855"
     id="linearGradient7752"
     xlink:href="#linearGradient8408"
     gradientUnits="userSpaceOnUse"
     gradientTransform="translate(2.0132,919.72907)" /><linearGradient
     x1="4136.9131"
     y1="905.7652"
     x2="4370.1235"
     y2="905.7652"
     id="linearGradient7754"
     xlink:href="#linearGradient8408"
     gradientUnits="userSpaceOnUse"
     gradientTransform="translate(2.0132,919.72907)" /><linearGradient
     x1="7113.7905"
     y1="1074.6855"
     x2="7377.8472"
     y2="1074.6855"
     id="linearGradient7756"
     xlink:href="#linearGradient8408"
     gradientUnits="userSpaceOnUse"
     gradientTransform="translate(2.0132,919.72907)" /><linearGradient
     x1="3359.0623"
     y1="1267.5212"
     x2="4316.8271"
     y2="1267.5212"
     id="linearGradient7758"
     xlink:href="#linearGradient8408"
     gradientUnits="userSpaceOnUse"
     gradientTransform="translate(2.0132,919.72907)" /><linearGradient
     x1="4293.8076"
     y1="964.8772"
     x2="5315.4087"
     y2="964.8772"
     id="linearGradient7760"
     xlink:href="#linearGradient8408"
     gradientUnits="userSpaceOnUse"
     gradientTransform="translate(2.0132,919.72907)" /><linearGradient
     x1="6309.1465"
     y1="1267.5212"
     x2="7266.9111"
     y2="1267.5212"
     id="linearGradient7762"
     xlink:href="#linearGradient8408"
     gradientUnits="userSpaceOnUse"
     gradientTransform="translate(2.0132,919.72907)" /><linearGradient
     x1="5311.3574"
     y1="964.87714"
     x2="6332.166"
     y2="964.87714"
     id="linearGradient7764"
     xlink:href="#linearGradient8408"
     gradientUnits="userSpaceOnUse"
     gradientTransform="translate(2.0132,919.72907)" /><linearGradient
     x1="3721.1599"
     y1="1706.1353"
     x2="6904.8135"
     y2="1706.1353"
     id="linearGradient7766"
     xlink:href="#linearGradient8408"
     gradientUnits="userSpaceOnUse"
     gradientTransform="translate(2.0132,919.72907)" /><linearGradient
     x1="3793.6919"
     y1="1998.4652"
     x2="6832.2817"
     y2="1998.4652"
     id="linearGradient7768"
     xlink:href="#linearGradient8408"
     gradientUnits="userSpaceOnUse"
     gradientTransform="translate(2.0132,919.72907)" /><linearGradient
     x1="3549.3459"
     y1="1523.1229"
     x2="7076.6274"
     y2="1523.1229"
     id="linearGradient7770"
     xlink:href="#linearGradient8408"
     gradientUnits="userSpaceOnUse"
     gradientTransform="translate(2.0132,919.72907)" /></defs>
 <rect
   width="10630"
   height="7087"
   x="0"
   y="-0.6618064"
   style="fill:#ffffff"
   id="rect9" />
<g
   id="g7290"><g
     transform="matrix(0.995503,0,0,0.995503,23.901555,-562.89354)"
     style="fill-rule:evenodd"
     id="g4298"><g
       id="g4267"><path
         d="M 6263.3086,1813.0723 C 6275.8263,2002.6828 6333.1254,2094.3115 6469.1473,1873.9931 C 6537.1131,1620.3412 6377.1809,1544.2944 6263.3086,1813.0723 z "
         style="fill:url(#linearGradient7748);fill-opacity:1;fill-rule:evenodd;stroke:#000000;stroke-width:11.11121559;stroke-linecap:butt;stroke-linejoin:miter;stroke-miterlimit:4;stroke-opacity:1;display:inline"
         id="path2443" /><path
         d="M 5198.2432,1580.7545 C 5198.2432,1857.9334 5431.7568,1856.749 5431.7568,1580.7544 C 5431.7568,1450.2373 5373.333,1355.409 5316.7187,1355.409 C 5260.1044,1355.4091 5198.2432,1447.6587 5198.2432,1580.7545 z "
         style="fill:url(#linearGradient7750);fill-opacity:1;fill-rule:evenodd;stroke:#000000;stroke-width:11.11121559;stroke-linecap:butt;stroke-linejoin:miter;stroke-miterlimit:4;stroke-opacity:1;display:inline"
         id="path2441" /><path
         d="M 3397.3851,2169.6562 L 3372.463,2317.3432 C 3341.9969,2295.8126 3112.2227,1752.1453 3395.539,1673.9819 C 3470.2292,1653.3758 3488.8537,1764.8598 3380.7704,1842.8988 C 3486.0553,1762.4806 3529.5323,1808.7031 3499.1692,1871.929 C 3463.1573,1946.9177 3332.3788,2004.6415 3397.3851,2169.6562 z "
         style="fill:url(#linearGradient7752);fill-opacity:1;fill-rule:evenodd;stroke:#000000;stroke-width:11.11121559;stroke-linecap:butt;stroke-linejoin:miter;stroke-miterlimit:4;stroke-opacity:1;display:inline"
         id="path2435" /><path
         d="M 4366.5809,1815.2075 C 4354.0632,2004.818 4296.7641,2096.4467 4160.7422,1876.1284 C 4092.7764,1622.4765 4252.7086,1546.4296 4366.5809,1815.2075 z "
         style="fill:url(#linearGradient7754);fill-opacity:1;fill-rule:evenodd;stroke:#000000;stroke-width:11.11121559;stroke-linecap:butt;stroke-linejoin:miter;stroke-miterlimit:4;stroke-opacity:1;display:inline"
         id="path2431" /><path
         d="M 7232.6149,2169.6562 L 7257.537,2317.3432 C 7288.0031,2295.8126 7517.7773,1752.1453 7234.461,1673.9818 C 7159.7708,1653.3757 7141.1463,1764.8598 7249.2296,1842.8988 C 7143.9447,1762.4806 7100.4677,1808.703 7130.8308,1871.929 C 7166.8427,1946.9177 7297.6212,2004.6415 7232.6149,2169.6562 z "
         style="fill:url(#linearGradient7756);fill-opacity:1;fill-rule:evenodd;stroke:#000000;stroke-width:11.11121559;stroke-linecap:butt;stroke-linejoin:miter;stroke-miterlimit:4;stroke-opacity:1;display:inline"
         id="path2421" /></g><g
       id="g4274"><path
         d="M 3894.945,2353.0282 C 4474.3124,2432.3391 4409.8341,1730.6374 3958.8917,1888.1473 C 3875.6305,1917.2297 3830.4558,2043.7822 3937.2045,2098.2073 C 4001.6462,2131.0623 4078.5115,2072.3185 4077.3501,1993.9935 C 4289.0824,2050.727 4149.547,2311.0053 3843.8381,2229.0909 C 3677.7677,2496.8491 3405.0497,2329.9436 3535.8113,2196.8874 C 3587.7454,2255.5305 3684.1214,2247.1176 3709.581,2179.4125 C 3751.7553,2067.2576 3661.4018,1997.3845 3565.989,2034.5153 C 3099.0887,2216.2142 3553.9496,2780.4199 3894.945,2353.0282 z "
         style="fill:url(#linearGradient7758);fill-opacity:1;fill-rule:evenodd;stroke:#000000;stroke-width:11.11121559;stroke-linecap:butt;stroke-linejoin:miter;stroke-miterlimit:4;stroke-opacity:1;display:inline"
         id="path2437" /><path
         d="M 4774.8241,2079.5263 C 5280.348,2490.2099 5554.3177,1527.8794 5025.2256,1527.8794 C 4811.2706,1527.8794 4805.3239,1836.3571 4928.7719,1842.2433 C 5052.2199,1848.1294 5084.8476,1763.741 5041.2262,1630.0334 C 5368.9821,1631.3387 5168.2875,2342.8069 4757.0124,1902.9756 C 4573.4042,2376.5725 4273.8523,1980.7521 4454.4583,1854.1573 C 4478.7011,1979.2595 4604.6145,1977.3079 4630.0741,1909.6028 C 4672.2484,1797.4479 4586.6265,1700.184 4491.0973,1737.0143 C 4040.8118,1910.4058 4497.5187,2531.8402 4774.8241,2079.5263 z "
         style="fill:url(#linearGradient7760);fill-opacity:1;fill-rule:evenodd;stroke:#000000;stroke-width:11.11121559;stroke-linecap:butt;stroke-linejoin:miter;stroke-miterlimit:4;stroke-opacity:1;display:inline"
         id="path2433" /><path
         d="M 6735.055,2353.0282 C 6155.6876,2432.3391 6220.1659,1730.6374 6671.1083,1888.1473 C 6754.3695,1917.2297 6799.5442,2043.7822 6692.7955,2098.2073 C 6628.3538,2131.0623 6551.4885,2072.3185 6552.6499,1993.9935 C 6340.9176,2050.727 6480.453,2311.0053 6786.1619,2229.0909 C 6952.2323,2496.8491 7224.9503,2329.9436 7094.1887,2196.8874 C 7042.2546,2255.5305 6945.8786,2247.1176 6920.419,2179.4125 C 6878.2447,2067.2576 6968.5982,1997.3845 7064.011,2034.5153 C 7530.9113,2216.2142 7076.0504,2780.4199 6735.055,2353.0282 z "
         style="fill:url(#linearGradient7762);fill-opacity:1;fill-rule:evenodd;stroke:#000000;stroke-width:11.11121559;stroke-linecap:butt;stroke-linejoin:miter;stroke-miterlimit:4;stroke-opacity:1;display:inline"
         id="path2423" /><path
         d="M 5855.1759,2079.5263 C 5349.652,2490.2099 5077.4922,1527.8793 5604.7744,1527.8793 C 5818.7294,1527.8793 5824.6761,1836.3571 5701.2281,1842.2432 C 5577.7801,1848.1294 5545.1524,1763.741 5588.7738,1630.0334 C 5261.0179,1631.3387 5461.7125,2342.8069 5872.9876,1902.9756 C 6056.5958,2376.5725 6356.1477,1980.7521 6175.5417,1854.1573 C 6151.2989,1979.2595 6025.3855,1977.3079 5999.9259,1909.6028 C 5957.7516,1797.4479 6043.3735,1700.184 6138.9027,1737.0143 C 6589.1882,1910.4058 6132.4813,2531.8402 5855.1759,2079.5263 z "
         style="fill:url(#linearGradient7764);fill-opacity:1;fill-rule:evenodd;stroke:#000000;stroke-width:11.11121559;stroke-linecap:butt;stroke-linejoin:miter;stroke-miterlimit:4;stroke-opacity:1;display:inline"
         id="path2419" /></g></g><g
     transform="matrix(0.995503,0,0,0.995503,23.901555,-562.89354)"
     style="fill-rule:evenodd"
     id="g4289"><g
       id="g4280"><path
         d="M 6901.2712,2630.6415 C 6786.1488,2745.7639 6759.0594,2774.5094 6762.0074,2985.9214 C 5638.8326,2707.341 4858.5371,2704.7969 3870.9406,2984.6193 C 3870.9406,2774.5094 3843.8512,2745.7639 3728.7288,2630.6415 C 4205.9855,2162.4818 6543.0237,2126.2466 6901.2712,2630.6415 z "
         style="fill:url(#linearGradient7766);fill-opacity:1;fill-rule:evenodd;stroke:#000000;stroke-width:11.11121559;stroke-linecap:butt;stroke-linejoin:miter;stroke-miterlimit:4;stroke-opacity:1;display:inline"
         id="path2439" /><path
         d="M 5315,2855.5615 C 6017.1706,2855.5615 6514.8705,2987.6784 6767.2554,3133.3929 C 6801.5807,3153.2106 6852.1534,3036.3097 6816.6182,3015.7934 C 6571.4297,2874.2338 6015.1547,2700.7429 5315,2700.7429 C 4614.8453,2700.7429 4058.5703,2874.2338 3813.3818,3015.7934 C 3777.8466,3036.3097 3828.4193,3153.2106 3862.7446,3133.3929 C 4115.1295,2987.6784 4612.8294,2855.5615 5315,2855.5615 z "
         style="fill:url(#linearGradient7768);fill-opacity:1;fill-rule:evenodd;stroke:#000000;stroke-width:11.11121559;stroke-linecap:butt;stroke-linejoin:miter;stroke-miterlimit:4;stroke-opacity:1;display:inline"
         id="path2429" /><path
         d="M 5315,2308.4967 C 6017.1706,2308.4967 6800.4668,2501.4236 7009.5334,2710.4902 C 7057.7044,2722.9236 7094.4314,2613.407 7058.8962,2592.8907 C 6854.339,2388.3335 6018.823,2174.2328 5315,2174.2328 C 4611.177,2174.2328 3775.661,2388.3335 3571.1038,2592.8907 C 3535.5686,2613.407 3572.2956,2722.9236 3620.4666,2710.4902 C 3829.5332,2501.4236 4612.8294,2308.4967 5315,2308.4967 z "
         style="fill:url(#linearGradient7770);fill-opacity:1;fill-rule:evenodd;stroke:#000000;stroke-width:11.11121559;stroke-linecap:butt;stroke-linejoin:miter;stroke-miterlimit:4;stroke-opacity:1;display:inline"
         id="path2427" /></g><g
       id="g4285"><path
         d="M 4959.0492,2512.7507 C 4959.0492,2561.9732 4919.1006,2601.9219 4869.8781,2601.9219 C 4820.6555,2601.9219 4780.7069,2561.9732 4780.7069,2512.7507 C 4780.7069,2463.5282 4820.6555,2423.5795 4869.8781,2423.5795 C 4919.1006,2423.5795 4959.0492,2463.5282 4959.0492,2512.7507 z M 4107.6191,2727.1069 C 4107.6191,2776.3294 4067.6704,2816.278 4018.4479,2816.278 C 3969.2254,2816.278 3929.2767,2776.3294 3929.2767,2727.1069 C 3929.2767,2677.8843 3969.2254,2637.9357 4018.4479,2637.9357 C 4067.6704,2637.9357 4107.6191,2677.8843 4107.6191,2727.1069 z M 5681.43,2513.7795 C 5681.43,2563.002 5721.3786,2602.9507 5770.6011,2602.9507 C 5819.8237,2602.9507 5859.7723,2563.002 5859.7723,2513.7795 C 5859.7723,2464.557 5819.8237,2424.6083 5770.6011,2424.6083 C 5721.3786,2424.6083 5681.43,2464.557 5681.43,2513.7795 z M 6532.8601,2728.1357 C 6532.8601,2777.3582 6572.8088,2817.3068 6622.0313,2817.3068 C 6671.2538,2817.3068 6711.2025,2777.3582 6711.2025,2728.1357 C 6711.2025,2678.9131 6671.2538,2638.9645 6622.0313,2638.9645 C 6572.8088,2638.9645 6532.8601,2678.9131 6532.8601,2728.1357 z "
         style="fill:#00923f;fill-opacity:1;fill-rule:evenodd;stroke:#000000;stroke-width:11.27253914;stroke-linecap:square;stroke-linejoin:round;stroke-miterlimit:4;stroke-opacity:1;display:inline"
         id="path4007" /></g></g><path
     d="M 4494.9393,1945.8747 C 4463.5465,1945.4145 4428.2718,1949.0079 4391.7402,1956.6131 C 4274.8401,1980.9503 4188.1747,2039.4693 4198.1127,2087.5505 C 4208.0506,2135.6318 4311.0802,2154.8405 4427.9807,2130.5035 C 4544.8813,2106.1664 4631.5465,2047.6475 4621.6085,1999.5663 C 4614.776,1966.5103 4564.0036,1946.8872 4494.9393,1945.8747 z M 6155.3575,1945.8747 C 6186.7501,1945.4144 6222.025,1949.0078 6258.5564,1956.6131 C 6375.4567,1980.9501 6462.1218,2039.4692 6452.184,2087.5505 C 6442.2462,2135.6317 6339.2163,2154.8404 6222.3161,2130.5035 C 6105.4154,2106.1664 6018.7503,2047.6475 6028.6882,1999.5662 C 6035.5209,1966.5102 6086.2932,1946.8872 6155.3575,1945.8747 z M 5544.848,1924.9245 C 5544.848,2032.8337 5499.8896,2035.1098 5321.4812,2035.1098 C 5143.0731,2035.1098 5098.1145,2035.1292 5098.1145,1924.9245 C 5098.1145,1812.9639 5148.0386,1814.7394 5321.4812,1814.7394 C 5493.2599,1814.7394 5544.848,1818.6802 5544.848,1924.9245 z "
     style="fill:#d62c26;fill-opacity:1;fill-rule:evenodd;stroke:#000000;stroke-width:11.06466007;stroke-linecap:square;stroke-linejoin:round;stroke-miterlimit:4;stroke-opacity:1;display:inline"
     id="path3390" /></g><g
   transform="matrix(0.8422053,0,0,0.8422125,-5525.7362,5559.7208)"
   id="g6245"><g
     transform="matrix(1.1873245,0,0,1.1873245,6518.4258,-6863.4444)"
     id="g4797">
   <path
   d="M 3908,2807 L 5351,2807 L 6794,2807 L 6794,4720 C 6794,5912 5561,6317 5351,6526 C 5141,6317 3908,5912 3908,4720 L 3908,2807 z "
   style="fill:#d62c26"
   id="path4799" />
   <path
   d="M 4626,3510 L 5351,3510 L 5351,3510 L 6076,3510 C 6076,3837 6076,4417 6076,4743 C 6076,5140 5750,5465 5351,5465 L 5351,5465 C 4952,5465 4626,5140 4626,4743 L 4626,3510 z "
   style="fill:#ffffff"
   id="path4801" />
  </g><g
     transform="matrix(1.1873245,0,0,1.1873245,6518.4258,-6863.4444)"
     id="g4803">
   <path
   d="M 5040,4252 C 5040,4341 5040,4430 5040,4519 C 5040,4616 4960,4695 4863,4695 L 4863,4695 C 4766,4695 4687,4616 4687,4519 C 4687,4430 4687,4341 4687,4252 C 4804,4252 4922,4252 5040,4252 z M 4865,4411 C 4845,4411 4830,4427 4830,4446 C 4830,4465 4845,4481 4865,4481 C 4884,4481 4899,4465 4899,4446 C 4899,4427 4884,4411 4865,4411 z M 4771,4317 C 4752,4317 4736,4333 4736,4352 C 4736,4371 4752,4387 4771,4387 C 4790,4387 4806,4371 4806,4352 C 4806,4333 4790,4317 4771,4317 z M 4772,4509 C 4752,4509 4737,4525 4737,4544 C 4737,4563 4752,4579 4772,4579 C 4791,4579 4807,4563 4807,4544 C 4807,4525 4791,4509 4772,4509 z M 4962,4509 C 4943,4509 4927,4525 4927,4544 C 4927,4563 4943,4579 4962,4579 C 4981,4579 4997,4563 4997,4544 C 4997,4525 4981,4509 4962,4509 z M 4962,4317 C 4943,4317 4928,4333 4928,4352 C 4928,4371 4943,4387 4962,4387 C 4982,4387 4997,4371 4997,4352 C 4997,4333 4982,4317 4962,4317 z M 4686,4509 L 4686,4509 L 4686,4509 z "
   style="fill:#213481"
   id="path4805" />
   <path
   d="M 5528,4252 C 5528,4341 5528,4430 5528,4519 C 5528,4616 5449,4695 5352,4695 L 5352,4695 C 5255,4695 5175,4616 5175,4519 C 5175,4430 5175,4341 5175,4252 C 5293,4252 5411,4252 5528,4252 z M 5353,4411 C 5334,4411 5318,4427 5318,4446 C 5318,4465 5334,4481 5353,4481 C 5372,4481 5388,4465 5388,4446 C 5388,4427 5372,4411 5353,4411 z M 5260,4317 C 5241,4317 5225,4333 5225,4352 C 5225,4371 5241,4387 5260,4387 C 5279,4387 5295,4371 5295,4352 C 5295,4333 5279,4317 5260,4317 z M 5260,4509 C 5241,4509 5225,4525 5225,4544 C 5225,4563 5241,4579 5260,4579 C 5279,4579 5295,4563 5295,4544 C 5295,4525 5279,4509 5260,4509 z M 5451,4509 C 5432,4509 5416,4525 5416,4544 C 5416,4563 5432,4579 5451,4579 C 5470,4579 5486,4563 5486,4544 C 5486,4525 5470,4509 5451,4509 z M 5451,4317 C 5432,4317 5416,4333 5416,4352 C 5416,4371 5432,4387 5451,4387 C 5470,4387 5486,4371 5486,4352 C 5486,4333 5470,4317 5451,4317 z M 5175,4509 L 5175,4509 L 5175,4509 z "
   style="fill:#213481"
   id="path4807" />
   <path
   d="M 6016,4253 C 6016,4342 6016,4431 6016,4520 C 6016,4617 5936,4696 5839,4696 L 5839,4696 C 5742,4696 5663,4617 5663,4520 C 5663,4431 5663,4342 5663,4253 C 5781,4253 5898,4253 6016,4253 z M 5841,4412 C 5821,4412 5806,4428 5806,4447 C 5806,4466 5821,4482 5841,4482 C 5860,4482 5876,4466 5876,4447 C 5876,4428 5860,4412 5841,4412 z M 5747,4318 C 5728,4318 5712,4334 5712,4353 C 5712,4372 5728,4388 5747,4388 C 5767,4388 5782,4372 5782,4353 C 5782,4334 5767,4318 5747,4318 z M 5748,4510 C 5729,4510 5713,4526 5713,4545 C 5713,4564 5729,4580 5748,4580 C 5767,4580 5783,4564 5783,4545 C 5783,4526 5767,4510 5748,4510 z M 5938,4510 C 5919,4510 5904,4526 5904,4545 C 5904,4564 5919,4580 5938,4580 C 5958,4580 5973,4564 5973,4545 C 5973,4526 5958,4510 5938,4510 z M 5939,4318 C 5919,4318 5904,4334 5904,4353 C 5904,4372 5919,4388 5939,4388 C 5958,4388 5974,4372 5974,4353 C 5974,4334 5958,4318 5939,4318 z M 5662,4510 L 5662,4510 L 5662,4510 z "
   style="fill:#213481"
   id="path4809" />
   <path
   d="M 5528,3641 C 5528,3730 5528,3819 5528,3907 C 5528,4004 5449,4084 5352,4084 L 5352,4084 C 5255,4084 5175,4004 5175,3907 C 5175,3819 5175,3730 5175,3641 C 5293,3641 5410,3641 5528,3641 z M 5353,3800 C 5334,3800 5318,3815 5318,3835 C 5318,3854 5334,3869 5353,3869 C 5372,3869 5388,3854 5388,3835 C 5388,3815 5372,3800 5353,3800 z M 5260,3706 C 5240,3706 5225,3721 5225,3741 C 5225,3760 5240,3775 5260,3775 C 5279,3775 5295,3760 5295,3741 C 5295,3721 5279,3706 5260,3706 z M 5260,3898 C 5241,3898 5225,3914 5225,3933 C 5225,3952 5241,3968 5260,3968 C 5279,3968 5295,3952 5295,3933 C 5295,3914 5279,3898 5260,3898 z M 5451,3898 C 5431,3898 5416,3913 5416,3933 C 5416,3952 5431,3967 5451,3967 C 5470,3967 5486,3952 5486,3933 C 5486,3913 5470,3898 5451,3898 z M 5451,3706 C 5432,3706 5416,3721 5416,3741 C 5416,3760 5432,3776 5451,3776 C 5470,3776 5486,3760 5486,3741 C 5486,3721 5470,3706 5451,3706 z M 5175,3897 L 5175,3897 L 5175,3897 z "
   style="fill:#213481"
   id="path4811" />
   <path
   d="M 5526,4858 C 5526,4947 5526,5036 5526,5125 C 5526,5222 5447,5301 5350,5301 L 5350,5301 C 5253,5301 5174,5222 5174,5125 C 5174,5036 5174,4947 5174,4858 C 5291,4858 5409,4858 5526,4858 z M 5351,5017 C 5332,5017 5317,5033 5317,5052 C 5317,5071 5332,5087 5351,5087 C 5371,5087 5386,5071 5386,5052 C 5386,5033 5371,5017 5351,5017 z M 5258,4923 C 5239,4923 5223,4939 5223,4958 C 5223,4977 5239,4993 5258,4993 C 5277,4993 5293,4977 5293,4958 C 5293,4939 5277,4923 5258,4923 z M 5258,5115 C 5239,5115 5224,5131 5224,5150 C 5224,5169 5239,5185 5258,5185 C 5278,5185 5293,5169 5293,5150 C 5293,5131 5278,5115 5258,5115 z M 5449,5115 C 5430,5115 5414,5131 5414,5150 C 5414,5169 5430,5185 5449,5185 C 5468,5185 5484,5169 5484,5150 C 5484,5131 5468,5115 5449,5115 z M 5449,4923 C 5430,4923 5414,4939 5414,4958 C 5414,4977 5430,4993 5449,4993 C 5469,4993 5484,4977 5484,4958 C 5484,4939 5469,4923 5449,4923 z M 5173,5115 L 5173,5115 L 5173,5115 z "
   style="fill:#213481"
   id="path4813" />
  </g><g
     transform="matrix(1.1873245,0,0,1.1873245,6554.0459,-6863.4444)"
     id="g615">
   <g
   id="g4816">
    <g
   id="g4818">
     <g
   id="g4820">
      <path
   d="M 5107,3365 L 5215,3365 L 5428,3365 L 5536,3365 L 5517,3198 L 5125,3199 M 5125,3199 L 5125,3199 L 5125,3199 z "
   style="fill:#f5db00"
   id="path4822" />
      <path
   d="M 5125,3199 L 5107,3365 L 5215,3365 C 5216,3228 5319,3205 5321,3206 C 5323,3206 5425,3236 5428,3365 L 5536,3365 L 5517,3198 L 5125,3199 L 5125,3199 z "
   style="fill:none;stroke:#131516;stroke-width:5"
   id="path4824" />
      <path
   d="M 5260,3365 C 5261,3278 5319,3254 5320,3254 C 5320,3254 5381,3279 5381,3365 L 5260,3365 z "
   style="fill:none;stroke:#131516;stroke-width:5"
   id="path4826" />
     </g>
     <g
   id="g4828">
      <g
   id="g4830">
       <g
   id="g4832">
        <path
   d="M 5109,3130 L 5533,3130 C 5542,3130 5549,3139 5549,3149 C 5549,3159 5542,3167 5533,3167 L 5109,3167 C 5100,3167 5093,3159 5093,3149 C 5093,3139 5100,3130 5109,3130 z "
   style="fill:#f5db00"
   id="path4834" />
        <path
   d="M 5109,3130 L 5533,3130 C 5542,3130 5549,3139 5549,3149 L 5549,3149 C 5549,3159 5542,3167 5533,3167 L 5109,3167 C 5100,3167 5093,3159 5093,3149 L 5093,3149 C 5093,3139 5100,3130 5109,3130 z "
   style="fill:none;stroke:#131516;stroke-width:5"
   id="path4836" />
       </g>
       <g
   id="g4838">
        <path
   d="M 5118,3167 L 5523,3167 C 5532,3167 5539,3176 5539,3186 C 5539,3196 5532,3204 5523,3204 L 5118,3204 C 5109,3204 5102,3196 5102,3186 C 5102,3176 5109,3167 5118,3167 z "
   style="fill:#f5db00"
   id="path4840" />
        <path
   d="M 5118,3167 L 5523,3167 C 5532,3167 5539,3176 5539,3186 L 5539,3186 C 5539,3196 5532,3204 5523,3204 L 5118,3204 C 5109,3204 5102,3196 5102,3186 L 5102,3186 C 5102,3176 5109,3167 5118,3167 z "
   style="fill:none;stroke:#131516;stroke-width:5"
   id="path4842" />
       </g>
      </g>
      <g
   id="g4844">
       <g
   id="g4846">
        <path
   d="M 5388,2974 L 5420,2974 L 5420,2996 L 5442,2996 L 5442,2973 L 5475,2973 L 5475,2996 L 5498,2996 L 5498,2973 L 5530,2973 L 5530,3026 C 5530,3034 5523,3039 5516,3039 L 5510,3039 L 5513,3130 L 5405,3130 L 5408,3039 L 5403,3039 C 5395,3039 5388,3033 5388,3025 L 5388,2974 L 5388,2974 z "
   style="fill:#f5db00"
   id="path4848" />
        <g
   id="g4850">
         <path
   d="M 5388,2974 L 5420,2974 L 5420,2996 L 5442,2996 L 5442,2973 L 5475,2973 L 5475,2996 L 5498,2996 L 5498,2973 L 5530,2973 L 5530,3026 C 5530,3034 5523,3039 5516,3039 L 5403,3039 C 5395,3039 5388,3033 5388,3025 L 5388,2974 L 5388,2974 z "
   style="fill:none;stroke:#131516;stroke-width:5"
   id="path4852" />
         <path
   d="M 5510,3039 L 5513,3130 L 5405,3130 L 5408,3039 L 5509,3039 L 5510,3039 z "
   style="fill:none;stroke:#131516;stroke-width:5"
   id="path4854" />
        </g>
       </g>
       <g
   id="g4856">
        <path
   d="M 5370,2957 L 5377,3130 L 5264,3129 L 5272,2957 M 5249,2891 L 5281,2891 L 5281,2914 L 5304,2914 L 5304,2891 L 5337,2891 L 5337,2914 L 5361,2914 L 5361,2891 L 5393,2891 L 5393,2943 C 5393,2951 5387,2957 5379,2957 L 5370,2957 L 5272,2957 L 5264,2957 C 5256,2957 5249,2951 5249,2943 L 5249,2891 z "
   style="fill:#f5db00"
   id="path4858" />
        <g
   id="g4860">
         <path
   d="M 5249,2891 L 5281,2891 L 5281,2914 L 5304,2914 L 5304,2891 L 5337,2891 L 5337,2914 L 5360,2914 L 5360,2891 L 5393,2891 L 5393,2943 C 5393,2951 5387,2957 5379,2957 L 5264,2957 C 5256,2957 5249,2950 5249,2943 L 5249,2891 L 5249,2891 z "
   style="fill:none;stroke:#131516;stroke-width:5"
   id="path4862" />
         <path
   d="M 5369,2961 L 5377,3130 L 5264,3129 L 5272,2961 L 5369,2961 z "
   style="fill:none;stroke:#131516;stroke-width:5"
   id="path4864" />
        </g>
       </g>
       <g
   id="g4866">
        <path
   d="M 5111,2974 L 5143,2974 L 5143,2996 L 5166,2996 L 5166,2973 L 5198,2973 L 5198,2996 L 5221,2996 L 5221,2973 L 5253,2973 L 5253,3026 C 5253,3034 5246,3039 5239,3039 L 5233,3039 L 5236,3130 L 5128,3130 L 5131,3039 L 5126,3039 C 5118,3039 5111,3033 5111,3025 L 5111,2974 L 5111,2974 z "
   style="fill:#f5db00"
   id="path4868" />
        <g
   id="g4870">
         <path
   d="M 5111,2974 L 5143,2974 L 5143,2996 L 5166,2996 L 5166,2973 L 5198,2973 L 5198,2996 L 5221,2996 L 5221,2973 L 5253,2973 L 5253,3026 C 5253,3034 5246,3039 5239,3039 L 5126,3039 C 5118,3039 5111,3033 5111,3025 L 5111,2974 L 5111,2974 z "
   style="fill:none;stroke:#131516;stroke-width:5"
   id="path4872" />
         <path
   d="M 5233,3039 L 5236,3130 L 5128,3130 L 5131,3039 L 5232,3039 L 5233,3039 z "
   style="fill:none;stroke:#131516;stroke-width:5"
   id="path4874" />
        </g>
       </g>
      </g>
     </g>
     <g
   id="g4876">
      <path
   d="M 5100,3366 L 5542,3366 C 5551,3366 5559,3375 5559,3386 C 5559,3397 5551,3406 5542,3406 L 5100,3406 C 5090,3406 5083,3397 5083,3386 C 5083,3375 5090,3366 5100,3366 z "
   style="fill:#f5db00"
   id="path4878" />
      <path
   d="M 5100,3366 L 5542,3366 C 5551,3366 5559,3375 5559,3386 L 5559,3386 C 5559,3397 5551,3406 5542,3406 L 5100,3406 C 5090,3406 5083,3397 5083,3386 L 5083,3386 C 5083,3375 5090,3366 5100,3366 z "
   style="fill:none;stroke:#131516;stroke-width:5"
   id="path4880" />
     </g>
    </g>
    <path
   d="M 5448,3072 C 5448,3057 5470,3056 5470,3072 L 5470,3103 L 5448,3103 L 5448,3072 z M 5310,3014 C 5309,2998 5332,2998 5332,3014 L 5332,3055 L 5310,3055 L 5310,3014 z M 5170,3073 C 5170,3057 5192,3057 5192,3073 L 5192,3104 L 5170,3104 L 5170,3073 z "
   style="fill:#131516"
   id="path4882" />
   </g>
   <g
   id="g4884">
    <g
   id="g4886">
     <g
   id="g4888">
      <path
   d="M 4017,3365 L 4125,3365 L 4338,3365 L 4446,3365 L 4427,3198 L 4035,3199 M 4035,3199 L 4035,3199 L 4035,3199 z "
   style="fill:#f5db00"
   id="path4890" />
      <path
   d="M 4035,3199 L 4017,3365 L 4125,3365 C 4126,3228 4229,3205 4231,3206 C 4234,3206 4335,3236 4338,3365 L 4446,3365 L 4427,3198 L 4035,3199 L 4035,3199 z "
   style="fill:none;stroke:#131516;stroke-width:5"
   id="path4892" />
      <path
   d="M 4171,3365 C 4171,3278 4230,3254 4230,3254 C 4230,3254 4291,3279 4292,3365 L 4171,3365 z "
   style="fill:none;stroke:#131516;stroke-width:5"
   id="path4894" />
     </g>
     <g
   id="g4896">
      <g
   id="g4898">
       <g
   id="g4900">
        <path
   d="M 4019,3130 L 4443,3130 C 4452,3130 4459,3139 4459,3149 C 4459,3159 4452,3167 4443,3167 L 4019,3167 C 4010,3167 4003,3159 4003,3149 C 4003,3139 4010,3130 4019,3130 z "
   style="fill:#f5db00"
   id="path4902" />
        <path
   d="M 4019,3130 L 4443,3130 C 4452,3130 4459,3139 4459,3149 L 4459,3149 C 4459,3159 4452,3167 4443,3167 L 4019,3167 C 4010,3167 4003,3159 4003,3149 L 4003,3149 C 4003,3139 4010,3130 4019,3130 z "
   style="fill:none;stroke:#131516;stroke-width:5"
   id="path4904" />
       </g>
       <g
   id="g4906">
        <path
   d="M 4028,3167 L 4434,3167 C 4442,3167 4449,3176 4449,3186 C 4449,3196 4442,3204 4434,3204 L 4028,3204 C 4019,3204 4012,3196 4012,3186 C 4012,3176 4019,3167 4028,3167 z "
   style="fill:#f5db00"
   id="path4908" />
        <path
   d="M 4028,3167 L 4434,3167 C 4442,3167 4449,3176 4449,3186 L 4449,3186 C 4449,3196 4442,3204 4434,3204 L 4028,3204 C 4019,3204 4012,3196 4012,3186 L 4012,3186 C 4012,3176 4019,3167 4028,3167 z "
   style="fill:none;stroke:#131516;stroke-width:5"
   id="path4910" />
       </g>
      </g>
      <g
   id="g4912">
       <g
   id="g4914">
        <path
   d="M 4298,2974 L 4330,2974 L 4330,2996 L 4353,2996 L 4353,2973 L 4385,2973 L 4385,2996 L 4408,2996 L 4408,2973 L 4440,2973 L 4440,3026 C 4440,3034 4433,3039 4426,3039 L 4421,3039 L 4423,3130 L 4315,3130 L 4318,3039 L 4313,3039 C 4306,3039 4299,3033 4298,3025 L 4298,2974 L 4298,2974 z "
   style="fill:#f5db00"
   id="path4916" />
        <g
   id="g4918">
         <path
   d="M 4298,2974 L 4330,2974 L 4330,2996 L 4353,2996 L 4353,2973 L 4385,2973 L 4385,2996 L 4408,2996 L 4408,2973 L 4440,2973 L 4440,3026 C 4440,3034 4433,3039 4426,3039 L 4313,3039 C 4306,3039 4299,3033 4298,3025 L 4298,2974 L 4298,2974 z "
   style="fill:none;stroke:#131516;stroke-width:5"
   id="path4920" />
         <path
   d="M 4420,3039 L 4423,3130 L 4315,3130 L 4318,3039 L 4420,3039 L 4420,3039 z "
   style="fill:none;stroke:#131516;stroke-width:5"
   id="path4922" />
        </g>
       </g>
       <g
   id="g4924">
        <path
   d="M 4280,2957 L 4287,3130 L 4175,3129 L 4182,2957 M 4159,2891 L 4191,2891 L 4191,2914 L 4214,2914 L 4214,2891 L 4247,2891 L 4247,2914 L 4271,2914 L 4271,2891 L 4304,2891 L 4303,2943 C 4303,2951 4297,2957 4289,2957 L 4280,2957 L 4182,2957 L 4174,2957 C 4166,2957 4159,2951 4159,2943 L 4159,2891 z "
   style="fill:#f5db00"
   id="path4926" />
        <g
   id="g4928">
         <path
   d="M 4159,2891 L 4191,2891 L 4191,2914 L 4214,2914 L 4214,2891 L 4247,2891 L 4247,2914 L 4271,2914 L 4271,2891 L 4303,2891 L 4303,2943 C 4303,2951 4297,2957 4289,2957 L 4174,2957 C 4166,2957 4159,2950 4159,2943 L 4159,2891 L 4159,2891 z "
   style="fill:none;stroke:#131516;stroke-width:5"
   id="path4930" />
         <path
   d="M 4280,2961 L 4287,3130 L 4175,3129 L 4182,2961 L 4280,2961 z "
   style="fill:none;stroke:#131516;stroke-width:5"
   id="path4932" />
        </g>
       </g>
       <g
   id="g4934">
        <path
   d="M 4022,2974 L 4053,2974 L 4053,2996 L 4076,2996 L 4076,2973 L 4108,2973 L 4108,2996 L 4131,2996 L 4131,2973 L 4163,2973 L 4163,3026 C 4163,3034 4156,3039 4149,3039 L 4144,3039 L 4146,3130 L 4038,3130 L 4041,3039 L 4036,3039 C 4029,3039 4022,3033 4022,3025 L 4021,2974 L 4022,2974 z "
   style="fill:#f5db00"
   id="path4936" />
        <g
   id="g4938">
         <path
   d="M 4022,2974 L 4053,2974 L 4053,2996 L 4076,2996 L 4076,2973 L 4108,2973 L 4108,2996 L 4131,2996 L 4131,2973 L 4163,2973 L 4163,3026 C 4163,3034 4156,3039 4149,3039 L 4036,3039 C 4029,3039 4022,3033 4022,3025 L 4021,2974 L 4022,2974 z "
   style="fill:none;stroke:#131516;stroke-width:5"
   id="path4940" />
         <path
   d="M 4143,3039 L 4146,3130 L 4038,3130 L 4041,3039 L 4143,3039 L 4143,3039 z "
   style="fill:none;stroke:#131516;stroke-width:5"
   id="path4942" />
        </g>
       </g>
      </g>
     </g>
     <g
   id="g4944">
      <path
   d="M 4010,3366 L 4452,3366 C 4461,3366 4469,3375 4469,3386 C 4469,3397 4461,3406 4452,3406 L 4010,3406 C 4000,3406 3993,3397 3993,3386 C 3993,3375 4000,3366 4010,3366 z "
   style="fill:#f5db00"
   id="path4946" />
      <path
   d="M 4010,3366 L 4452,3366 C 4461,3366 4469,3375 4469,3386 L 4469,3386 C 4469,3397 4461,3406 4452,3406 L 4010,3406 C 4000,3406 3993,3397 3993,3386 L 3993,3386 C 3993,3375 4000,3366 4010,3366 z "
   style="fill:none;stroke:#131516;stroke-width:5"
   id="path4948" />
     </g>
    </g>
    <path
   d="M 4358,3072 C 4358,3057 4380,3056 4380,3072 L 4380,3103 L 4358,3103 L 4358,3072 z M 4220,3014 C 4219,2998 4243,2998 4242,3014 L 4242,3055 L 4220,3055 L 4220,3014 z M 4081,3073 C 4081,3057 4102,3057 4102,3073 L 4102,3104 L 4081,3104 L 4081,3073 z "
   style="fill:#131516"
   id="path4950" />
   </g>
   <g
   id="g4952">
    <g
   id="g4954">
     <g
   id="g4956">
      <path
   d="M 6624,3365 L 6516,3365 L 6303,3365 L 6195,3365 L 6215,3198 L 6607,3199 M 6607,3199 L 6607,3199 L 6607,3199 z "
   style="fill:#f5db00"
   id="path4958" />
      <path
   d="M 6607,3199 L 6624,3365 L 6516,3365 C 6515,3228 6413,3205 6410,3206 C 6408,3206 6306,3236 6303,3365 L 6195,3365 L 6215,3198 L 6607,3199 L 6607,3199 z "
   style="fill:none;stroke:#131516;stroke-width:5"
   id="path4960" />
      <path
   d="M 6471,3365 C 6470,3278 6412,3254 6411,3254 C 6411,3254 6350,3279 6350,3365 L 6471,3365 z "
   style="fill:none;stroke:#131516;stroke-width:5"
   id="path4962" />
     </g>
     <g
   id="g4964">
      <g
   id="g4966">
       <g
   id="g4968">
        <path
   d="M 6622,3130 L 6198,3130 C 6189,3130 6182,3139 6182,3149 C 6182,3159 6189,3167 6198,3167 L 6622,3167 C 6631,3167 6639,3159 6639,3149 C 6639,3139 6631,3130 6622,3130 z "
   style="fill:#f5db00"
   id="path4970" />
        <path
   d="M 6622,3130 L 6198,3130 C 6189,3130 6182,3139 6182,3149 L 6182,3149 C 6182,3159 6189,3167 6198,3167 L 6622,3167 C 6631,3167 6639,3159 6639,3149 L 6639,3149 C 6639,3139 6631,3130 6622,3130 z "
   style="fill:none;stroke:#131516;stroke-width:5"
   id="path4972" />
       </g>
       <g
   id="g4974">
        <path
   d="M 6613,3167 L 6208,3167 C 6199,3167 6192,3176 6192,3186 C 6192,3196 6199,3204 6208,3204 L 6613,3204 C 6622,3204 6629,3196 6629,3186 C 6629,3176 6622,3167 6613,3167 z "
   style="fill:#f5db00"
   id="path4976" />
        <path
   d="M 6613,3167 L 6208,3167 C 6199,3167 6192,3176 6192,3186 L 6192,3186 C 6192,3196 6199,3204 6208,3204 L 6613,3204 C 6622,3204 6629,3196 6629,3186 L 6629,3186 C 6629,3176 6622,3167 6613,3167 z "
   style="fill:none;stroke:#131516;stroke-width:5"
   id="path4978" />
       </g>
      </g>
      <g
   id="g4980">
       <g
   id="g4982">
        <path
   d="M 6343,2974 L 6312,2974 L 6312,2996 L 6289,2996 L 6289,2973 L 6257,2973 L 6257,2996 L 6234,2996 L 6234,2973 L 6202,2973 L 6202,3026 C 6202,3034 6208,3039 6216,3039 L 6221,3039 L 6218,3130 L 6326,3130 L 6323,3039 L 6328,3039 C 6336,3039 6343,3033 6343,3025 L 6343,2974 L 6343,2974 z "
   style="fill:#f5db00"
   id="path4984" />
        <g
   id="g4986">
         <path
   d="M 6343,2974 L 6312,2974 L 6312,2996 L 6289,2996 L 6289,2973 L 6257,2973 L 6257,2996 L 6234,2996 L 6234,2973 L 6202,2973 L 6202,3026 C 6202,3034 6208,3039 6216,3039 L 6328,3039 C 6336,3039 6343,3033 6343,3025 L 6343,2974 L 6343,2974 z "
   style="fill:none;stroke:#131516;stroke-width:5"
   id="path4988" />
         <path
   d="M 6221,3039 L 6218,3130 L 6326,3130 L 6323,3039 L 6222,3039 L 6221,3039 z "
   style="fill:none;stroke:#131516;stroke-width:5"
   id="path4990" />
        </g>
       </g>
       <g
   id="g4992">
        <path
   d="M 6361,2957 L 6354,3130 L 6467,3129 L 6460,2957 M 6482,2891 L 6450,2891 L 6450,2914 L 6427,2914 L 6427,2891 L 6394,2891 L 6394,2914 L 6371,2914 L 6371,2891 L 6338,2891 L 6338,2943 C 6338,2951 6345,2957 6352,2957 L 6361,2957 L 6460,2957 L 6467,2957 C 6475,2957 6482,2951 6482,2943 L 6482,2891 z "
   style="fill:#f5db00"
   id="path4994" />
        <g
   id="g4996">
         <path
   d="M 6482,2891 L 6450,2891 L 6450,2914 L 6427,2914 L 6427,2891 L 6394,2891 L 6394,2914 L 6371,2914 L 6371,2891 L 6338,2891 L 6338,2943 C 6338,2951 6345,2957 6352,2957 L 6467,2957 C 6475,2957 6482,2950 6482,2943 L 6482,2891 L 6482,2891 z "
   style="fill:none;stroke:#131516;stroke-width:5"
   id="path4998" />
         <path
   d="M 6362,2961 L 6354,3130 L 6467,3129 L 6459,2961 L 6362,2961 z "
   style="fill:none;stroke:#131516;stroke-width:5"
   id="path5000" />
        </g>
       </g>
       <g
   id="g5002">
        <path
   d="M 6620,2974 L 6589,2974 L 6589,2996 L 6566,2996 L 6566,2973 L 6534,2973 L 6534,2996 L 6511,2996 L 6511,2973 L 6479,2973 L 6479,3026 C 6479,3034 6485,3039 6493,3039 L 6498,3039 L 6495,3130 L 6603,3130 L 6600,3039 L 6605,3039 C 6613,3039 6620,3033 6620,3025 L 6620,2974 L 6620,2974 z "
   style="fill:#f5db00"
   id="path5004" />
        <g
   id="g5006">
         <path
   d="M 6620,2974 L 6589,2974 L 6589,2996 L 6566,2996 L 6566,2973 L 6534,2973 L 6534,2996 L 6511,2996 L 6511,2973 L 6479,2973 L 6479,3026 C 6479,3034 6485,3039 6493,3039 L 6605,3039 C 6613,3039 6620,3033 6620,3025 L 6620,2974 L 6620,2974 z "
   style="fill:none;stroke:#131516;stroke-width:5"
   id="path5008" />
         <path
   d="M 6498,3039 L 6495,3130 L 6603,3130 L 6600,3039 L 6499,3039 L 6498,3039 z "
   style="fill:none;stroke:#131516;stroke-width:5"
   id="path5010" />
        </g>
       </g>
      </g>
     </g>
     <g
   id="g5012">
      <path
   d="M 6632,3366 L 6189,3366 C 6180,3366 6172,3375 6172,3386 C 6172,3397 6180,3406 6189,3406 L 6632,3406 C 6641,3406 6649,3397 6649,3386 C 6649,3375 6641,3366 6632,3366 z "
   style="fill:#f5db00"
   id="path5014" />
      <path
   d="M 6632,3366 L 6189,3366 C 6180,3366 6172,3375 6172,3386 L 6172,3386 C 6172,3397 6180,3406 6189,3406 L 6632,3406 C 6641,3406 6649,3397 6649,3386 L 6649,3386 C 6649,3375 6641,3366 6632,3366 z "
   style="fill:none;stroke:#131516;stroke-width:5"
   id="path5016" />
     </g>
    </g>
    <path
   d="M 6283,3072 C 6283,3057 6261,3056 6261,3072 L 6261,3103 L 6283,3103 L 6283,3072 z M 6422,3014 C 6422,2998 6399,2998 6399,3014 L 6399,3055 L 6422,3055 L 6422,3014 z M 6561,3073 C 6561,3057 6539,3057 6539,3073 L 6539,3104 L 6561,3104 L 6561,3073 z "
   style="fill:#131516"
   id="path5018" />
   </g>
  </g><g
     transform="matrix(1.1873245,0,0,1.1873245,6554.6393,-6863.4444)"
     id="g5020">
   <g
   id="g5022">
    <g
   id="g5024">
     <g
   id="g5026">
      <path
   d="M 4018,4580 L 4126,4580 L 4339,4580 L 4447,4580 L 4427,4413 L 4035,4414 M 4035,4414 L 4035,4414 L 4035,4414 z "
   style="fill:#f5db00"
   id="path5028" />
      <path
   d="M 4035,4414 L 4018,4580 L 4126,4580 C 4127,4443 4229,4420 4232,4421 C 4234,4421 4336,4451 4339,4580 L 4447,4580 L 4427,4413 L 4035,4414 L 4035,4414 z "
   style="fill:none;stroke:#131516;stroke-width:5"
   id="path5030" />
      <path
   d="M 4171,4580 C 4172,4493 4230,4469 4231,4469 C 4231,4469 4292,4494 4292,4580 L 4171,4580 z "
   style="fill:none;stroke:#131516;stroke-width:5"
   id="path5032" />
     </g>
     <g
   id="g5034">
      <g
   id="g5036">
       <g
   id="g5038">
        <path
   d="M 4020,4346 L 4444,4346 C 4453,4346 4460,4354 4460,4364 C 4460,4374 4453,4382 4444,4382 L 4020,4382 C 4011,4382 4003,4374 4003,4364 C 4003,4354 4011,4346 4020,4346 z "
   style="fill:#f5db00"
   id="path5040" />
        <path
   d="M 4020,4346 L 4444,4346 C 4453,4346 4460,4354 4460,4364 L 4460,4364 C 4460,4374 4453,4382 4444,4382 L 4020,4382 C 4011,4382 4003,4374 4003,4364 L 4003,4364 C 4003,4354 4011,4346 4020,4346 z "
   style="fill:none;stroke:#131516;stroke-width:5"
   id="path5042" />
       </g>
       <g
   id="g5044">
        <path
   d="M 4029,4382 L 4434,4382 C 4443,4382 4450,4391 4450,4401 C 4450,4411 4443,4419 4434,4419 L 4029,4419 C 4020,4419 4013,4411 4013,4401 C 4013,4391 4020,4382 4029,4382 z "
   style="fill:#f5db00"
   id="path5046" />
        <path
   d="M 4029,4382 L 4434,4382 C 4443,4382 4450,4391 4450,4401 L 4450,4401 C 4450,4411 4443,4419 4434,4419 L 4029,4419 C 4020,4419 4013,4411 4013,4401 L 4013,4401 C 4013,4391 4020,4382 4029,4382 z "
   style="fill:none;stroke:#131516;stroke-width:5"
   id="path5048" />
       </g>
      </g>
      <g
   id="g5050">
       <g
   id="g5052">
        <path
   d="M 4299,4189 L 4330,4189 L 4330,4211 L 4353,4211 L 4353,4188 L 4385,4188 L 4385,4211 L 4408,4211 L 4408,4188 L 4440,4188 L 4440,4241 C 4440,4249 4434,4254 4426,4254 L 4421,4254 L 4424,4345 L 4316,4345 L 4319,4254 L 4314,4254 C 4306,4254 4299,4248 4299,4241 L 4299,4189 L 4299,4189 z "
   style="fill:#f5db00"
   id="path5054" />
        <g
   id="g5056">
         <path
   d="M 4299,4189 L 4330,4189 L 4330,4211 L 4353,4211 L 4353,4188 L 4385,4188 L 4385,4211 L 4408,4211 L 4408,4188 L 4440,4188 L 4440,4241 C 4440,4249 4434,4254 4426,4254 L 4314,4254 C 4306,4254 4299,4248 4299,4241 L 4299,4189 L 4299,4189 z "
   style="fill:none;stroke:#131516;stroke-width:5"
   id="path5058" />
         <path
   d="M 4421,4254 L 4424,4345 L 4316,4345 L 4319,4254 L 4420,4254 L 4421,4254 z "
   style="fill:none;stroke:#131516;stroke-width:5"
   id="path5060" />
        </g>
       </g>
       <g
   id="g5062">
        <path
   d="M 4281,4172 L 4288,4345 L 4175,4344 L 4182,4172 M 4160,4106 L 4192,4106 L 4192,4129 L 4215,4129 L 4215,4106 L 4248,4106 L 4248,4129 L 4271,4129 L 4271,4106 L 4304,4106 L 4304,4158 C 4304,4166 4297,4172 4290,4172 L 4281,4172 L 4182,4172 L 4175,4172 C 4167,4172 4160,4166 4160,4158 L 4160,4106 z "
   style="fill:#f5db00"
   id="path5064" />
        <g
   id="g5066">
         <path
   d="M 4160,4106 L 4192,4106 L 4192,4129 L 4215,4129 L 4215,4106 L 4248,4106 L 4248,4129 L 4271,4129 L 4271,4106 L 4304,4106 L 4304,4158 C 4304,4166 4297,4172 4290,4172 L 4175,4172 C 4167,4172 4160,4165 4160,4158 L 4160,4106 L 4160,4106 z "
   style="fill:none;stroke:#131516;stroke-width:5"
   id="path5068" />
         <path
   d="M 4280,4176 L 4288,4345 L 4175,4344 L 4183,4176 L 4280,4176 z "
   style="fill:none;stroke:#131516;stroke-width:5"
   id="path5070" />
        </g>
       </g>
       <g
   id="g5072">
        <path
   d="M 4022,4189 L 4053,4189 L 4053,4211 L 4076,4211 L 4076,4188 L 4108,4188 L 4108,4211 L 4131,4211 L 4131,4188 L 4163,4188 L 4163,4241 C 4163,4249 4157,4254 4149,4254 L 4144,4254 L 4147,4345 L 4039,4345 L 4042,4254 L 4037,4254 C 4029,4254 4022,4248 4022,4241 L 4022,4189 L 4022,4189 z "
   style="fill:#f5db00"
   id="path5074" />
        <g
   id="g5076">
         <path
   d="M 4022,4189 L 4053,4189 L 4053,4211 L 4076,4211 L 4076,4188 L 4108,4188 L 4108,4211 L 4131,4211 L 4131,4188 L 4163,4188 L 4163,4241 C 4163,4249 4157,4254 4149,4254 L 4037,4254 C 4029,4254 4022,4248 4022,4241 L 4022,4189 L 4022,4189 z "
   style="fill:none;stroke:#131516;stroke-width:5"
   id="path5078" />
         <path
   d="M 4144,4254 L 4147,4345 L 4039,4345 L 4042,4254 L 4143,4254 L 4144,4254 z "
   style="fill:none;stroke:#131516;stroke-width:5"
   id="path5080" />
        </g>
       </g>
      </g>
     </g>
     <g
   id="g5082">
      <path
   d="M 4010,4581 L 4453,4581 C 4462,4581 4470,4590 4470,4601 C 4470,4612 4462,4621 4453,4621 L 4010,4621 C 4001,4621 3993,4612 3993,4601 C 3993,4590 4001,4581 4010,4581 z "
   style="fill:#f5db00"
   id="path5084" />
      <path
   d="M 4010,4581 L 4453,4581 C 4462,4581 4470,4590 4470,4601 L 4470,4601 C 4470,4612 4462,4621 4453,4621 L 4010,4621 C 4001,4621 3993,4612 3993,4601 L 3993,4601 C 3993,4590 4001,4581 4010,4581 z "
   style="fill:none;stroke:#131516;stroke-width:5"
   id="path5086" />
     </g>
    </g>
    <path
   d="M 4359,4287 C 4359,4272 4381,4271 4381,4287 L 4381,4318 L 4359,4318 L 4359,4287 z M 4220,4229 C 4220,4213 4243,4213 4243,4229 L 4243,4270 L 4220,4270 L 4220,4229 z M 4081,4288 C 4081,4272 4103,4272 4103,4288 L 4103,4319 L 4081,4319 L 4081,4288 z "
   style="fill:#131516"
   id="path5088" />
   </g>
   <g
   id="g5090">
    <g
   id="g5092">
     <g
   id="g5094">
      <path
   d="M 6624,4580 L 6516,4580 L 6303,4580 L 6194,4580 L 6214,4413 L 6606,4414 M 6606,4414 L 6606,4414 L 6606,4414 z "
   style="fill:#f5db00"
   id="path5096" />
      <path
   d="M 6606,4414 L 6624,4580 L 6516,4580 C 6515,4443 6412,4420 6410,4421 C 6407,4421 6305,4451 6303,4580 L 6194,4580 L 6214,4413 L 6606,4414 L 6606,4414 z "
   style="fill:none;stroke:#131516;stroke-width:5"
   id="path5098" />
      <path
   d="M 6470,4580 C 6470,4493 6411,4469 6411,4469 C 6411,4469 6350,4494 6349,4580 L 6470,4580 z "
   style="fill:none;stroke:#131516;stroke-width:5"
   id="path5100" />
     </g>
     <g
   id="g5102">
      <g
   id="g5104">
       <g
   id="g5106">
        <path
   d="M 6622,4346 L 6198,4346 C 6189,4346 6181,4354 6181,4364 C 6181,4374 6189,4382 6198,4382 L 6622,4382 C 6631,4382 6638,4374 6638,4364 C 6638,4354 6631,4346 6622,4346 z "
   style="fill:#f5db00"
   id="path5108" />
        <path
   d="M 6622,4346 L 6198,4346 C 6189,4346 6181,4354 6181,4364 L 6181,4364 C 6181,4374 6189,4382 6198,4382 L 6622,4382 C 6631,4382 6638,4374 6638,4364 L 6638,4364 C 6638,4354 6631,4346 6622,4346 z "
   style="fill:none;stroke:#131516;stroke-width:5"
   id="path5110" />
       </g>
       <g
   id="g5112">
        <path
   d="M 6613,4382 L 6207,4382 C 6199,4382 6192,4391 6192,4401 C 6192,4411 6199,4419 6207,4419 L 6613,4419 C 6621,4419 6628,4411 6628,4401 C 6628,4391 6621,4382 6613,4382 z "
   style="fill:#f5db00"
   id="path5114" />
        <path
   d="M 6613,4382 L 6207,4382 C 6199,4382 6192,4391 6192,4401 L 6192,4401 C 6192,4411 6199,4419 6207,4419 L 6613,4419 C 6621,4419 6628,4411 6628,4401 L 6628,4401 C 6628,4391 6621,4382 6613,4382 z "
   style="fill:none;stroke:#131516;stroke-width:5"
   id="path5116" />
       </g>
      </g>
      <g
   id="g5118">
       <g
   id="g5120">
        <path
   d="M 6342,4189 L 6311,4189 L 6311,4211 L 6288,4211 L 6288,4188 L 6256,4188 L 6256,4211 L 6233,4211 L 6233,4188 L 6201,4188 L 6201,4241 C 6201,4249 6208,4254 6215,4254 L 6220,4254 L 6218,4345 L 6326,4345 L 6323,4254 L 6328,4254 C 6335,4254 6342,4248 6342,4241 L 6342,4189 L 6342,4189 z "
   style="fill:#f5db00"
   id="path5122" />
        <g
   id="g5124">
         <path
   d="M 6342,4189 L 6311,4189 L 6311,4211 L 6288,4211 L 6288,4188 L 6256,4188 L 6256,4211 L 6233,4211 L 6233,4188 L 6201,4188 L 6201,4241 C 6201,4249 6208,4254 6215,4254 L 6328,4254 C 6335,4254 6342,4248 6342,4241 L 6342,4189 L 6342,4189 z "
   style="fill:none;stroke:#131516;stroke-width:5"
   id="path5126" />
         <path
   d="M 6220,4254 L 6218,4345 L 6326,4345 L 6323,4254 L 6221,4254 L 6220,4254 z "
   style="fill:none;stroke:#131516;stroke-width:5"
   id="path5128" />
        </g>
       </g>
       <g
   id="g5130">
        <path
   d="M 6361,4172 L 6354,4345 L 6466,4344 L 6459,4172 M 6482,4106 L 6450,4106 L 6450,4129 L 6426,4129 L 6426,4106 L 6394,4106 L 6394,4129 L 6370,4129 L 6370,4106 L 6337,4106 L 6337,4158 C 6337,4166 6344,4172 6352,4172 L 6361,4172 L 6459,4172 L 6467,4172 C 6474,4172 6482,4166 6482,4158 L 6482,4106 z "
   style="fill:#f5db00"
   id="path5132" />
        <g
   id="g5134">
         <path
   d="M 6482,4106 L 6450,4106 L 6450,4129 L 6426,4129 L 6426,4106 L 6394,4106 L 6394,4129 L 6370,4129 L 6370,4106 L 6337,4106 L 6337,4158 C 6337,4166 6344,4172 6352,4172 L 6467,4172 C 6475,4172 6482,4165 6482,4158 L 6482,4106 L 6482,4106 z "
   style="fill:none;stroke:#131516;stroke-width:5"
   id="path5136" />
         <path
   d="M 6361,4176 L 6354,4345 L 6466,4344 L 6459,4176 L 6361,4176 z "
   style="fill:none;stroke:#131516;stroke-width:5"
   id="path5138" />
        </g>
       </g>
       <g
   id="g5140">
        <path
   d="M 6619,4189 L 6588,4189 L 6588,4211 L 6565,4211 L 6565,4188 L 6533,4188 L 6533,4211 L 6510,4211 L 6510,4188 L 6478,4188 L 6478,4241 C 6478,4249 6484,4254 6492,4254 L 6497,4254 L 6495,4345 L 6602,4345 L 6600,4254 L 6605,4254 C 6612,4254 6619,4248 6619,4241 L 6619,4189 L 6619,4189 z "
   style="fill:#f5db00"
   id="path5142" />
        <g
   id="g5144">
         <path
   d="M 6619,4189 L 6588,4189 L 6588,4211 L 6565,4211 L 6565,4188 L 6533,4188 L 6533,4211 L 6510,4211 L 6510,4188 L 6478,4188 L 6478,4241 C 6478,4249 6484,4254 6492,4254 L 6605,4254 C 6612,4254 6619,4248 6619,4241 L 6619,4189 L 6619,4189 z "
   style="fill:none;stroke:#131516;stroke-width:5"
   id="path5146" />
         <path
   d="M 6497,4254 L 6495,4345 L 6602,4345 L 6599,4254 L 6498,4254 L 6497,4254 z "
   style="fill:none;stroke:#131516;stroke-width:5"
   id="path5148" />
        </g>
       </g>
      </g>
     </g>
     <g
   id="g5150">
      <path
   d="M 6631,4581 L 6189,4581 C 6179,4581 6172,4590 6172,4601 C 6172,4612 6179,4621 6189,4621 L 6631,4621 C 6640,4621 6648,4612 6648,4601 C 6648,4590 6640,4581 6631,4581 z "
   style="fill:#f5db00"
   id="path5152" />
      <path
   d="M 6631,4581 L 6189,4581 C 6179,4581 6172,4590 6172,4601 L 6172,4601 C 6172,4612 6179,4621 6189,4621 L 6631,4621 C 6640,4621 6648,4612 6648,4601 L 6648,4601 C 6648,4590 6640,4581 6631,4581 z "
   style="fill:none;stroke:#131516;stroke-width:5"
   id="path5154" />
     </g>
    </g>
    <path
   d="M 6282,4287 C 6283,4272 6261,4271 6261,4287 L 6261,4318 L 6282,4318 L 6282,4287 z M 6421,4229 C 6422,4213 6398,4213 6398,4229 L 6398,4270 L 6421,4270 L 6421,4229 z M 6560,4288 C 6560,4272 6538,4272 6539,4288 L 6539,4319 L 6560,4319 L 6560,4288 z "
   style="fill:#131516"
   id="path5156" />
   </g>
  </g><g
     transform="matrix(1.1873245,0,0,1.1873245,6554.6396,-6863.4444)"
     id="g959">
   <g
   id="g5159">
    <g
   id="g5161">
     <g
   id="g5163">
      <path
   d="M 4974,5594 L 4898,5671 L 4747,5821 L 4671,5898 L 4566,5766 L 4844,5489 M 4844,5489 L 4844,5489 L 4844,5489 z "
   style="fill:#f5db00"
   id="path5165" />
      <path
   d="M 4844,5489 L 4974,5594 L 4898,5671 C 4800,5574 4712,5631 4710,5633 C 4708,5635 4658,5728 4747,5821 L 4671,5898 L 4566,5766 L 4844,5489 L 4844,5489 z "
   style="fill:none;stroke:#131516;stroke-width:5"
   id="path5167" />
      <path
   d="M 4865,5703 C 4804,5642 4745,5666 4745,5666 C 4745,5666 4720,5727 4780,5788 L 4865,5703 z "
   style="fill:none;stroke:#131516;stroke-width:5"
   id="path5169" />
     </g>
     <g
   id="g5171">
      <g
   id="g5173">
       <g
   id="g5175">
        <path
   d="M 4807,5430 L 4507,5730 C 4501,5736 4502,5747 4509,5754 C 4516,5761 4527,5762 4533,5756 L 4833,5456 C 4839,5450 4839,5439 4832,5431 C 4824,5424 4813,5424 4807,5430 z "
   style="fill:#f5db00"
   id="path5177" />
        <path
   d="M 4807,5430 L 4507,5730 C 4501,5736 4502,5747 4509,5754 L 4509,5754 C 4516,5761 4527,5762 4533,5756 L 4833,5456 C 4839,5449 4839,5438 4831,5431 L 4831,5431 C 4824,5424 4813,5423 4807,5430 z "
   style="fill:none;stroke:#131516;stroke-width:5"
   id="path5179" />
       </g>
       <g
   id="g5181">
        <path
   d="M 4827,5462 L 4540,5749 C 4534,5755 4535,5766 4542,5773 C 4549,5780 4560,5781 4566,5775 L 4853,5488 C 4859,5482 4858,5471 4851,5464 C 4844,5457 4833,5456 4827,5462 z "
   style="fill:#f5db00"
   id="path5183" />
        <path
   d="M 4827,5462 L 4540,5749 C 4534,5755 4535,5766 4542,5773 L 4542,5773 C 4549,5780 4560,5781 4566,5775 L 4853,5488 C 4859,5482 4858,5471 4851,5464 L 4851,5464 C 4844,5457 4833,5456 4827,5462 z "
   style="fill:none;stroke:#131516;stroke-width:5"
   id="path5185" />
       </g>
      </g>
      <g
   id="g5187">
       <g
   id="g5189">
        <path
   d="M 4498,5516 L 4476,5539 L 4492,5555 L 4476,5571 L 4460,5554 L 4437,5577 L 4454,5594 L 4437,5610 L 4421,5593 L 4398,5616 L 4435,5653 C 4441,5659 4450,5658 4455,5653 L 4459,5649 L 4521,5715 L 4597,5639 L 4531,5577 L 4535,5573 C 4540,5568 4540,5559 4535,5553 L 4499,5516 L 4498,5516 z "
   style="fill:#f5db00"
   id="path5191" />
        <g
   id="g5193">
         <path
   d="M 4498,5516 L 4476,5539 L 4492,5555 L 4476,5571 L 4460,5554 L 4437,5577 L 4454,5594 L 4437,5610 L 4421,5593 L 4398,5616 L 4435,5653 C 4441,5659 4450,5658 4455,5653 L 4535,5573 C 4540,5568 4540,5559 4535,5553 L 4499,5516 L 4498,5516 z "
   style="fill:none;stroke:#131516;stroke-width:5"
   id="path5195" />
         <path
   d="M 4459,5649 L 4521,5715 L 4597,5639 L 4531,5577 L 4459,5648 L 4459,5649 z "
   style="fill:none;stroke:#131516;stroke-width:5"
   id="path5197" />
        </g>
       </g>
       <g
   id="g5199">
        <path
   d="M 4500,5491 L 4617,5619 L 4696,5539 L 4569,5422 M 4539,5360 L 4516,5382 L 4532,5398 L 4516,5415 L 4499,5398 L 4476,5422 L 4492,5438 L 4476,5455 L 4459,5438 L 4436,5461 L 4473,5498 C 4479,5504 4488,5503 4493,5498 L 4500,5491 L 4569,5422 L 4575,5417 C 4580,5411 4581,5402 4575,5396 L 4539,5360 z "
   style="fill:#f5db00"
   id="path5201" />
        <g
   id="g5203">
         <path
   d="M 4539,5359 L 4516,5382 L 4532,5398 L 4516,5415 L 4499,5398 L 4476,5422 L 4492,5438 L 4476,5455 L 4459,5438 L 4436,5461 L 4473,5498 C 4479,5504 4488,5503 4493,5498 L 4575,5416 C 4580,5411 4581,5402 4575,5396 L 4539,5359 L 4539,5359 z "
   style="fill:none;stroke:#131516;stroke-width:5"
   id="path5205" />
         <path
   d="M 4503,5494 L 4617,5619 L 4696,5539 L 4572,5425 L 4503,5494 z "
   style="fill:none;stroke:#131516;stroke-width:5"
   id="path5207" />
        </g>
       </g>
       <g
   id="g5209">
        <path
   d="M 4694,5321 L 4672,5343 L 4688,5359 L 4672,5375 L 4656,5359 L 4633,5381 L 4649,5398 L 4633,5414 L 4617,5398 L 4594,5420 L 4631,5457 C 4637,5463 4645,5462 4651,5457 L 4654,5453 L 4717,5519 L 4793,5443 L 4727,5381 L 4730,5377 C 4736,5372 4736,5363 4731,5357 L 4694,5321 L 4694,5321 z "
   style="fill:#f5db00"
   id="path5211" />
        <g
   id="g5213">
         <path
   d="M 4694,5321 L 4672,5343 L 4688,5359 L 4672,5375 L 4656,5359 L 4633,5381 L 4649,5398 L 4633,5414 L 4617,5398 L 4594,5420 L 4631,5457 C 4637,5463 4645,5462 4651,5457 L 4730,5377 C 4736,5372 4736,5363 4731,5357 L 4694,5321 L 4694,5321 z "
   style="fill:none;stroke:#131516;stroke-width:5"
   id="path5215" />
         <path
   d="M 4655,5453 L 4717,5519 L 4793,5443 L 4727,5381 L 4655,5453 L 4655,5453 z "
   style="fill:none;stroke:#131516;stroke-width:5"
   id="path5217" />
        </g>
       </g>
      </g>
     </g>
     <g
   id="g5219">
      <path
   d="M 4980,5589 L 4667,5902 C 4660,5909 4662,5921 4670,5929 C 4677,5937 4689,5938 4696,5931 L 5009,5618 C 5015,5612 5014,5600 5006,5592 C 4998,5584 4986,5583 4980,5589 z "
   style="fill:#f5db00"
   id="path5221" />
      <path
   d="M 4980,5589 L 4667,5902 C 4660,5909 4662,5921 4670,5929 L 4670,5929 C 4677,5937 4689,5938 4696,5931 L 5009,5618 C 5015,5612 5014,5600 5006,5592 L 5006,5592 C 4998,5584 4986,5583 4980,5589 z "
   style="fill:none;stroke:#131516;stroke-width:5"
   id="path5223" />
     </g>
    </g>
    <path
   d="M 4526,5629 C 4515,5618 4499,5633 4511,5644 L 4533,5666 L 4548,5651 L 4526,5629 z M 4583,5490 C 4572,5478 4555,5494 4567,5506 L 4595,5534 L 4611,5518 L 4583,5490 z M 4723,5433 C 4712,5421 4696,5437 4707,5448 L 4729,5470 L 4745,5454 L 4723,5433 z "
   style="fill:#131516"
   id="path5225" />
   </g>
   <g
   id="g5227">
    <g
   id="g5229">
     <g
   id="g5231">
      <path
   d="M 5667,5594 L 5744,5671 L 5894,5821 L 5971,5898 L 6075,5766 L 5797,5489 M 5797,5489 L 5797,5489 L 5797,5489 z "
   style="fill:#f5db00"
   id="path5233" />
      <path
   d="M 5797,5489 L 5667,5594 L 5744,5671 C 5841,5574 5930,5631 5931,5633 C 5933,5635 5983,5728 5894,5821 L 5971,5898 L 6075,5766 L 5797,5489 L 5797,5489 z "
   style="fill:none;stroke:#131516;stroke-width:5"
   id="path5235" />
      <path
   d="M 5776,5703 C 5837,5642 5896,5666 5896,5666 C 5896,5666 5922,5727 5861,5788 L 5776,5703 z "
   style="fill:none;stroke:#131516;stroke-width:5"
   id="path5237" />
     </g>
     <g
   id="g5239">
      <g
   id="g5241">
       <g
   id="g5243">
        <path
   d="M 5834,5430 L 6134,5730 C 6141,5736 6140,5747 6133,5754 C 6126,5761 6115,5762 6108,5756 L 5808,5456 C 5802,5450 5803,5439 5810,5431 C 5817,5424 5828,5424 5834,5430 z "
   style="fill:#f5db00"
   id="path5245" />
        <path
   d="M 5834,5430 L 6134,5730 C 6141,5736 6140,5747 6133,5754 L 6133,5754 C 6126,5761 6115,5762 6108,5756 L 5808,5456 C 5802,5449 5803,5438 5810,5431 L 5810,5431 C 5817,5424 5828,5423 5834,5430 z "
   style="fill:none;stroke:#131516;stroke-width:5"
   id="path5247" />
       </g>
       <g
   id="g5249">
        <path
   d="M 5815,5462 L 6102,5749 C 6108,5755 6107,5766 6100,5773 C 6092,5780 6082,5781 6076,5775 L 5789,5488 C 5783,5482 5784,5471 5791,5464 C 5798,5457 5809,5456 5815,5462 z "
   style="fill:#f5db00"
   id="path5251" />
        <path
   d="M 5815,5462 L 6101,5749 C 6108,5755 6107,5766 6099,5773 L 6099,5773 C 6092,5780 6082,5781 6076,5775 L 5789,5488 C 5783,5482 5784,5471 5791,5464 L 5791,5464 C 5798,5457 5809,5456 5815,5462 z "
   style="fill:none;stroke:#131516;stroke-width:5"
   id="path5253" />
       </g>
      </g>
      <g
   id="g5255">
       <g
   id="g5257">
        <path
   d="M 6143,5516 L 6165,5539 L 6149,5555 L 6165,5571 L 6182,5554 L 6204,5577 L 6188,5594 L 6204,5610 L 6221,5593 L 6243,5616 L 6206,5653 C 6200,5659 6192,5658 6187,5653 L 6183,5649 L 6120,5715 L 6044,5639 L 6110,5577 L 6107,5573 C 6102,5568 6101,5559 6106,5553 L 6143,5516 L 6143,5516 z "
   style="fill:#f5db00"
   id="path5259" />
        <g
   id="g5261">
         <path
   d="M 6143,5516 L 6165,5539 L 6149,5555 L 6165,5571 L 6182,5554 L 6204,5577 L 6188,5594 L 6204,5610 L 6221,5593 L 6243,5616 L 6206,5653 C 6200,5659 6192,5658 6187,5653 L 6107,5573 C 6102,5568 6101,5559 6106,5553 L 6143,5516 L 6143,5516 z "
   style="fill:none;stroke:#131516;stroke-width:5"
   id="path5263" />
         <path
   d="M 6183,5649 L 6120,5715 L 6044,5639 L 6111,5577 L 6182,5648 L 6183,5649 z "
   style="fill:none;stroke:#131516;stroke-width:5"
   id="path5265" />
        </g>
       </g>
       <g
   id="g5267">
        <path
   d="M 6142,5491 L 6024,5619 L 5945,5539 L 6072,5422 M 6103,5360 L 6125,5382 L 6109,5398 L 6126,5415 L 6142,5398 L 6165,5422 L 6149,5438 L 6166,5455 L 6182,5438 L 6205,5461 L 6168,5498 C 6162,5504 6154,5503 6148,5498 L 6142,5491 L 6072,5422 L 6067,5417 C 6061,5411 6061,5402 6066,5396 L 6103,5360 z "
   style="fill:#f5db00"
   id="path5269" />
        <g
   id="g5271">
         <path
   d="M 6103,5359 L 6125,5382 L 6109,5398 L 6126,5415 L 6142,5398 L 6165,5422 L 6149,5438 L 6166,5455 L 6182,5438 L 6205,5461 L 6168,5498 C 6162,5504 6154,5503 6148,5498 L 6067,5416 C 6061,5411 6061,5402 6066,5396 L 6103,5359 L 6103,5359 z "
   style="fill:none;stroke:#131516;stroke-width:5"
   id="path5273" />
         <path
   d="M 6138,5494 L 6024,5619 L 5945,5539 L 6070,5425 L 6138,5494 z "
   style="fill:none;stroke:#131516;stroke-width:5"
   id="path5275" />
        </g>
       </g>
       <g
   id="g5277">
        <path
   d="M 5947,5321 L 5969,5343 L 5953,5359 L 5969,5375 L 5986,5359 L 6008,5381 L 5992,5398 L 6008,5414 L 6025,5398 L 6047,5420 L 6010,5457 C 6004,5463 5996,5462 5991,5457 L 5987,5453 L 5924,5519 L 5848,5443 L 5915,5381 L 5911,5377 C 5906,5372 5905,5363 5910,5357 L 5947,5321 L 5947,5321 z "
   style="fill:#f5db00"
   id="path5279" />
        <g
   id="g5281">
         <path
   d="M 5947,5321 L 5969,5343 L 5953,5359 L 5969,5375 L 5986,5359 L 6008,5381 L 5992,5398 L 6008,5414 L 6025,5398 L 6047,5420 L 6010,5457 C 6004,5463 5996,5462 5991,5457 L 5911,5377 C 5906,5372 5905,5363 5910,5357 L 5947,5321 L 5947,5321 z "
   style="fill:none;stroke:#131516;stroke-width:5"
   id="path5283" />
         <path
   d="M 5987,5453 L 5925,5519 L 5848,5443 L 5915,5381 L 5986,5453 L 5987,5453 z "
   style="fill:none;stroke:#131516;stroke-width:5"
   id="path5285" />
        </g>
       </g>
      </g>
     </g>
     <g
   id="g5287">
      <path
   d="M 5662,5589 L 5974,5902 C 5981,5909 5980,5921 5972,5929 C 5964,5937 5952,5938 5946,5931 L 5633,5618 C 5626,5612 5627,5600 5635,5592 C 5643,5584 5655,5583 5662,5589 z "
   style="fill:#f5db00"
   id="path5289" />
      <path
   d="M 5662,5589 L 5974,5902 C 5981,5909 5980,5921 5972,5929 L 5972,5929 C 5964,5937 5952,5938 5945,5931 L 5633,5618 C 5626,5612 5627,5600 5635,5592 L 5635,5592 C 5643,5584 5655,5583 5662,5589 z "
   style="fill:none;stroke:#131516;stroke-width:5"
   id="path5291" />
     </g>
    </g>
    <path
   d="M 6115,5629 C 6126,5618 6142,5633 6131,5644 L 6109,5666 L 6093,5651 L 6115,5629 z M 6058,5490 C 6069,5478 6086,5494 6074,5506 L 6046,5534 L 6030,5518 L 6058,5490 z M 5919,5433 C 5930,5421 5946,5437 5934,5448 L 5912,5470 L 5897,5454 L 5919,5433 z "
   style="fill:#131516"
   id="path5293" />
   </g>
  </g></g></svg>