<svg xmlns="http://www.w3.org/2000/svg" width="980" height="700"><path style="marker:none" d="M0 0h980v700H0z" color="#000" fill="#c10" fill-rule="evenodd"/><path d="M316.225 186.653c-.367-.024-.741 0-1.138.043-8.97.935-15.74 9.487-12.95 21.962 3.44 15.386 19.135 23.561 34.781 29.05 10.412 3.653 31.86 6.48 34.432 8.838 1.735 1.59 1.224 4.564-4.113 5.994-6.09 1.47-12.786 1.826-19.119 1.05-8.968-1.1-22.96-6.729-25.9-8.269-4.023-2.108-5.888-6.939-6.868-7.919-1.26-1.12-1.969-1.321-4.069-1.181-3.146.21-4.1.558-6.169 4.287-1.885 3.4-4.259 7.503-1.706 15.97 2.427 5.2 5.804 10.714 16.275 14.568 11.788 4.34 29.99 1.458 40.119-.306 0 0 9.402-1.55 10.587-1.444 3.408.304 3.67 4.182.963 5.688-1.04.578-4.844 1.443-5.95 1.793-8.797 2.783-18.761 4.444-28.525 4.288-9.415-.151-17.887-1.269-21.7-3.938-2.1-1.47-3.474-3.018-4.244-3.368-.77-.35-4.376-.44-4.944-.132-4.435 2.403-5.894 9.374-4.768 14.438 4.737 16.683 22.036 14.53 41.3 10.325 3.683-.966 8.339-1.047 11.768-1.97 2.722-.731 13.99-4.451 17.413-3.105 2.976 1.17 1.83 4.66-.132 5.862-8.27 4.625-20.598 10.184-32.944 11.419-14.277 1.427-24.1-.843-25.987-1.881-1.888-1.039-2.91-1.575-3.938-1.575-3.238 0-4.148.9-6.212 5.425-3.147 6.897 1.864 12.307 3.675 15.443 1.02 1.768 7.228 7.585 21.393 5.819 20.353-2.562 33.92-16.8 48.082-16.8 3.753 0-.033 5.137-1.182 6.038-2.84 2.222-11.44 7.461-22.706 13.3-13.974 7.24-34.574 10.677-44.58 5.993-2.157-1.078-4.07 2.323-4.332 3.5-.285 3.129-.466 6.351-.569 7.175-2.692 12.225 9.882 20.51 23.669 17.894 12.84-2.436 17.967-5.52 32.55-15.881 9.996-7.102 15.344-14.905 20.168-14.35 1.021.202 1.756 1.507.657 3.412-1.695 2.936-11.06 12.66-17.85 17.588 0 0-18.539 11.835-23.538 14.612-4.998 2.778-17.033 10.576-26.95 6.519-3.055-1.25-4.698-2.3-6.78-1.05-2.084 1.25-1.962 3.953-2.1 6.869-.14 2.916.13 8.881.13 8.881 1.355 8.568 11.98 13.968 18.77 13.913 16.483-.137 35.567-20.75 46.9-33.207 2.312-2.542 10.788-11.862 11.9-12.556.874-.547 2.694.226 2.624 2.1-.07 1.874-4.302 6.809-8.793 13.781-7.526 13.034-20.687 27.665-37.931 39.375-3.96 2.69-12.005 3.64-22.488.832-3.465-.929-4.291-1.187-5.819 1.312-1.499 2.415-2.736 5.154-3.193 7.306-2.72 12.786 8.28 17.291 17.762 20.082 16.094.306 29.484-9.855 36.662-19.338 10.93-12.227 18.704-28.766 26.382-41.344 2.195-3.66 5.044-6.728 6.125-7.612 3.647-2.984 6.868-.424 7.7 3.894.843 4.377-.81 9.057-2.888 13.956-2.956 6.967-9.608 14.072-12.95 17.369-7.382 7.382-12.792 7.317-13.344 9.012-1.89 5.802.904 9.984 4.944 11.9 4.04 1.916 9.475.82 13.388-.919 5.778-3.328 10.843-8.192 14.875-14.043 4.031-5.852 7.045-12.712 8.706-20.082 1.014-4.497 3.354-8.15 6.3-8.443 2.946-.295 4.015 1.58 4.506 3.543.49 1.964.308 3.995.088 5.557-.743 5.279-3.194 10.637-6.212 13.868-3.793 4.06-8.4 5.666-8.663 6.257-.264.595-.747 1.996-.35 3.85 1.395 6.217 9.076 4.072 13.388 1.706 8.59-4.713 12.523-13.946 15.487-22.838 2.858-9.654 14.298-3.406 8.75 5.47-5.885 10.553-16.176 18.623-27.693 25.287-10.875 6.291-21.298 10.433-31.5 17.325 3.332 3.74 7.488 6.987 11.025 10.018-13.765 6.267-27.01 12.459-40.425 18.725-9.417-3.701-16.238-7.478-27.081-9.887-2.434-4.748-13.913-4.73-13.913 1.881-6.102-.133-6.212 5.908-6.212 11.025 1.896-1.214 3.792-3.631 6.475-3.631 3.653 4.28 9.306 4.527 12.775.35 4.391-.504 9.42.598 12.6 2.187-4.233 1.967-8.025 3.374-12.732 4.42-6.512-2.696-10.716-1.04-12.075 5.074-3.213 1.09-3.22 7.124-2.45 10.588 1.552-1.363 3.1-2.863 4.55-3.588 2.991.188 7.12 1.329 9.625-.175 6.054-3.634 11.238-7.942 18.113-8.706-2.291 4.308-6.752 7.57-9.45 10.719-5.36.686-10.442 3.848-8.575 9.45-2.054 5.547-.499 9.888 3.544 12.162-.26-2.334-.194-4.118.875-6.256 7.305.135 11.72-3.237 10.85-11.069 4.574-4.543 11.826-11.772 17.324-12.994 2.846.393 6.04 1.62 8.925 2.582-.126 6.579 6.61 7.89 11.113 5.075 1.722 1.734 2.327 4.219 1.575 6.475 3.198-1.697 3.928-5.82 2.625-7.875 1.033-6.616-1.296-9.285-9.275-8.794-3.902-1.431-8.015-2.757-9.931-3.456 15.109-5.33 31.316-9.74 44.887-14.263 5.135 4.536 10.37 8.807 15.356 13.081 11.592-7.98 18.866-20.11 25.069-31.325 2.305-4.166 11.068-18.38 13.125-20.343 2.06-1.966 6.37-1.757 7.262 1.093 1.57 5.016 1.168 18.62-3.28 28.088-6.77 14.406-20.103 25.926-40.426 30.494-10.86 1.59-17.686 1.162-21.525.787-1.919-.187-6.444-1.135-7.262 2.625-1.363 6.26 4.967 12.837 7.7 14.744 6.02 4.201 15.49 5.769 23.231 2.931 11.142-4.084 15.385-10.75 21.525-16.012 1.28-1.096 3.103-.091 3.85.656 2.29 2.29-2.115 13.244-9.362 18.069-7.373 4.907-23.52 3.605-25.2 4.068-1.686.466-3.087 2.136-2.713 4.944 1.67 10.55 14.58 17.144 24.806 12.031 5.284-2.61 8.716-5.259 12.075-8.618 2.744-2.743 5.708-6.245 6.738-7.088 1.03-.842 2.838-.754 3.587.744.75 1.498-.334 6.163-.612 6.912-2.559 6.902-9.22 13.03-13.607 14.307-10.326 3.003-16.503-2.12-17.412 3.281-.995 5.906 7.57 14.773 17.5 13.387 12.95-1.807 18.327-12.634 23.844-21.218 2.554-3.975 7.357-2.832 6.65 3.062-1.422 11.85-9.324 22.483-15.444 30.45 7.638 10 16.86 21.218 24.106 30.144 7.247-8.926 16.469-20.144 24.106-30.144-6.12-7.967-14.022-18.6-15.443-30.45-.707-5.894 4.096-7.037 6.65-3.062 5.516 8.584 10.894 19.411 23.843 21.218 9.93 1.386 18.538-7.481 17.544-13.387-.91-5.401-7.086-.278-17.413-3.281-4.386-1.276-11.09-7.405-13.65-14.307-.277-.749-1.361-5.414-.612-6.912.75-1.498 2.558-1.586 3.588-.744 1.03.843 3.994 4.345 6.737 7.088 3.36 3.359 6.791 6.008 12.075 8.618 10.226 5.113 23.136-1.48 24.806-12.03.375-2.81-1.027-4.479-2.712-4.945-1.68-.463-17.827.84-25.2-4.068-7.248-4.825-11.609-15.779-9.319-18.07.747-.746 2.526-1.75 3.806-.655 6.14 5.263 10.384 11.928 21.525 16.012 7.742 2.838 17.212 1.27 23.231-2.931 2.733-1.907 9.063-8.484 7.7-14.744-.818-3.76-5.343-2.812-7.262-2.625-3.838.375-10.665.804-21.525-.787-20.323-4.568-33.656-16.088-40.425-30.494-4.449-9.469-4.85-23.072-3.281-28.088.892-2.85 5.203-3.059 7.262-1.093 2.057 1.962 10.82 16.177 13.125 20.343 6.204 11.214 13.477 23.346 25.069 31.325 4.986-4.274 10.221-8.545 15.356-13.08 13.571 4.523 29.779 8.932 44.887 14.262-1.916.7-6.029 2.025-9.93 3.456-7.98-.491-10.31 2.178-9.276 8.794-1.303 2.055-.573 6.178 2.625 7.875-.752-2.256-.145-4.741 1.575-6.475 4.504 2.814 11.238 1.504 11.113-5.075 2.885-.962 6.08-2.189 8.925-2.582 5.498 1.222 12.75 8.45 17.325 12.994-.87 7.832 3.544 11.204 10.85 11.069 1.068 2.138 1.134 3.922.875 6.256 4.042-2.274 5.597-6.615 3.543-12.162 1.867-5.602-3.214-8.764-8.575-9.45-2.698-3.148-7.158-6.411-9.45-10.72 6.875.765 12.06 5.073 18.113 8.707 2.504 1.504 6.634.363 9.625.175 1.45.725 3.041 2.225 4.594 3.588.77-3.464.763-9.498-2.45-10.588-1.36-6.114-5.607-7.77-12.12-5.075-4.705-1.045-8.498-2.452-12.73-4.419 3.179-1.59 8.208-2.69 12.6-2.187 3.468 4.177 9.121 3.93 12.775-.35 2.682 0 4.578 2.417 6.475 3.631 0-5.117-.111-11.158-6.213-11.025 0-6.61-11.48-6.63-13.912-1.881-10.844 2.41-17.664 6.186-27.082 9.887-13.415-6.266-26.66-12.458-40.424-18.725 3.536-3.031 7.692-6.278 11.025-10.018-10.202-6.892-20.626-11.034-31.5-17.325-11.518-6.664-21.765-14.734-27.65-25.288-5.547-8.875 5.848-15.123 8.706-5.469 2.964 8.892 6.897 18.125 15.487 22.838 4.312 2.366 11.994 4.511 13.388-1.706.397-1.854-.086-3.255-.35-3.85-.262-.591-4.87-2.197-8.663-6.257-3.018-3.23-5.469-8.59-6.212-13.868-.22-1.562-.403-3.593.088-5.557.491-1.964 1.56-3.838 4.506-3.543 2.946.294 5.287 3.946 6.3 8.443 1.661 7.37 4.675 14.23 8.707 20.082 4.031 5.85 9.097 10.715 14.875 14.043 3.912 1.74 9.347 2.835 13.387.92 4.04-1.917 6.834-6.099 4.944-11.9-.552-1.696-5.961-1.631-13.344-9.013-3.341-3.297-9.994-10.402-12.95-17.37-2.078-4.898-3.73-9.578-2.887-13.955.831-4.318 4.052-6.878 7.7-3.894 1.08.884 3.929 3.953 6.125 7.612 7.677 12.578 15.451 29.117 26.38 41.344 7.179 9.483 20.569 19.644 36.663 19.338 9.482-2.79 20.526-7.296 17.806-20.082-.458-2.152-1.694-4.89-3.193-7.306-1.528-2.5-2.398-2.24-5.863-1.312-10.483 2.808-18.527 1.857-22.487-.832-17.245-11.71-30.363-26.34-37.888-39.375-4.491-6.972-8.768-11.907-8.837-13.781-.07-1.874 1.75-2.647 2.625-2.1 1.11.694 9.587 10.014 11.9 12.556 11.332 12.458 30.46 33.071 46.943 33.207 6.79.056 17.371-5.345 18.725-13.913 0 0 .271-5.965.132-8.881-.139-2.916.026-5.62-2.056-6.869-2.083-1.25-3.77-.2-6.825 1.05-9.917 4.057-21.951-3.741-26.95-6.519-5-2.777-23.538-14.612-23.538-14.612-6.789-4.927-16.11-14.652-17.806-17.588-1.1-1.905-.408-3.21.613-3.412 4.824-.555 10.172 7.248 20.168 14.35 14.583 10.36 19.71 13.445 32.55 15.881 13.788 2.616 26.362-5.669 23.669-17.894-.1-.824-.284-4.046-.569-7.175-.261-1.177-2.132-4.578-4.287-3.5-10.008 4.684-30.607 1.248-44.581-5.993-11.267-5.839-19.867-11.078-22.707-13.3-1.15-.901-4.977-6.038-1.225-6.038 14.162 0 27.73 14.238 48.082 16.8 14.165 1.766 20.373-4.051 21.393-5.819 1.811-3.136 6.822-8.546 3.675-15.443-2.064-4.526-2.974-5.425-6.212-5.425-1.028 0-2.05.536-3.938 1.575-1.888 1.038-11.71 3.308-25.987 1.88-12.347-1.234-24.674-6.793-32.944-11.418-1.96-1.203-3.107-4.692-.131-5.862 3.422-1.346 14.69 2.374 17.412 3.106 3.43.922 8.085 1.003 11.769 1.969 19.263 4.206 36.562 6.358 41.3-10.325 1.125-5.064-.334-12.035-4.77-14.438-.566-.307-4.173-.219-4.943.132-.77.35-2.143 1.898-4.244 3.368-3.813 2.67-12.285 3.787-21.7 3.938-9.763.156-19.728-1.505-28.525-4.288-1.106-.35-4.91-1.215-5.95-1.793-2.707-1.506-2.444-5.384.963-5.688 1.186-.106 10.587 1.444 10.587 1.444 10.13 1.764 28.33 4.645 40.12.306 10.47-3.854 13.847-9.369 16.274-14.569 2.553-8.466.18-12.569-1.706-15.969-2.068-3.729-3.023-4.077-6.169-4.287-2.1-.14-2.808.062-4.069 1.181-.98.98-2.845 5.811-6.868 7.919-2.94 1.54-16.932 7.17-25.9 8.269-6.333.776-13.028.42-19.119-1.05-5.337-1.43-5.848-4.404-4.112-5.994 2.572-2.357 24.02-5.185 34.43-8.838 15.648-5.489 31.341-13.664 34.782-29.05 2.79-12.475-3.98-21.027-12.95-21.962-3.173-.33-5.429 1.507-5.994 4.506-3.134 11.695-10.146 18.557-18.856 23.8-8.71 5.244-19.142 8.881-29.181 12.513l.086-3.369c-19.078 6.331-51.123 14.381-56.612 19.381-8.975 8.176.962 20.448-2.1 29.75-2.602 7.905-14.195 14.04-23.1 3.282-4.502-5.44 1.963-26.93 4.506-30.932 7.58-11.925 12.289-13.222 18.507-16.362 10.99-5.551 42.678-1.632 42.83-15.313 6.584 0 13.658-.054 16.45-5.994.698-1.321.724-2.88.394-3.98-.33-1.102-1.044-1.607-1.925-1.313-.88.293-4.045 3.244-7.35 4.418-3.304 1.175-5.424 1.62-5.424 1.62s.486-6.532-.744-8.663c-1.408-2.438-4.734-5.191-7.744-5.338-3.01-.147-13.519.569-13.519.569.132-3.506-2.521-5.859-5.6-7.306-1.558-.733-7.417-.115-14.831.087-10.609.289-19.946 4.25-25.987 6.737-3.408 1.403-9.032 1.064-11.42.525-2.387-.539-5.555-1.969-5.555-1.969 2.012 5.511 6.542 10.433 11.33 14.7-2.458.89-10.679 6.715-11.33 9.144.743.137 1.67.324 2.362.656-3.87 3.75-9.216 9.523-12.6 12.907 1.056.66 1.968 1.486 2.8 2.318-4.462 3.616-10.27 10.417-14.306 17.632-4.036-7.215-9.844-14.016-14.306-17.632.832-.832 1.744-1.659 2.8-2.318-3.384-3.384-8.731-9.156-12.6-12.907.691-.332 1.62-.52 2.362-.656-.651-2.429-8.872-8.253-11.331-9.144 4.789-4.267 9.319-9.189 11.331-14.7 0 0-3.169 1.43-5.556 1.97-2.387.538-7.967.877-11.375-.526-6.042-2.487-15.422-6.448-26.031-6.737-7.414-.202-13.273-.82-14.831-.087-3.08 1.447-5.732 3.8-5.6 7.306 0 0-10.508-.716-13.519-.569-3.01.147-6.336 2.9-7.744 5.338-1.23 2.13-.743 8.662-.743 8.662s-2.12-.444-5.425-1.619c-3.305-1.174-6.47-4.125-7.35-4.418-.882-.294-1.595.21-1.925 1.312-.33 1.102-.304 2.66.393 3.981 2.793 5.94 9.867 5.994 16.45 5.994.15 13.681 31.84 9.762 42.831 15.313 6.218 3.14 10.927 4.437 18.506 16.362 2.544 4.003 9.009 25.492 4.507 30.932-8.905 10.76-20.498 4.623-23.1-3.282-3.062-9.302 6.875-21.574-2.1-29.75-5.49-5-37.534-13.05-56.613-19.381l.087 3.369c-10.04-3.632-20.47-7.27-29.181-12.513-8.71-5.243-15.723-12.105-18.856-23.8-.495-2.624-2.292-4.379-4.857-4.55zm107.143 12.818c3.882-.209 7.592 1.04 10.675 3.982-6.292 4.616-15.101 2.104-17.762-2.057 2.37-1.136 4.758-1.8 7.087-1.925zm132.125 0c2.688-.06 5.46.6 8.225 1.925-2.661 4.161-11.47 6.673-17.763 2.057 2.775-2.648 6.08-3.904 9.538-3.982zm-161.7 6.87c4.393.026 9.11 1.602 10.106 4.593-6.417-.396-12.533-.528-17.85-1.75 1.116-1.935 4.327-2.864 7.744-2.844zm192.412 0c3.417-.022 6.628.908 7.744 2.843-5.316 1.222-11.432 1.354-17.85 1.75.997-2.991 5.713-4.567 10.106-4.594zm-181.65 5.818c-.983 5.178-17.321 6.667-17.587 1.4 6.07.581 12.396-.246 17.588-1.4zm170.931 0c5.192 1.154 11.475 1.981 17.544 1.4-.265 5.267-16.56 3.778-17.544-1.4z"/><path d="M489.999 100.623l-9.063 27.888-29.323.001 23.722 17.237-9.06 27.889 23.724-17.235 23.724 17.235-9.06-27.889 23.722-17.237-29.323-.001z" fill="none" stroke="#ffed00" stroke-width="4.2"/></svg>