<?xml version="1.0" encoding="UTF-8" standalone="no"?>
<!-- Creator: CorelDRAW -->

<svg
   xmlns:dc="http://purl.org/dc/elements/1.1/"
   xmlns:cc="http://creativecommons.org/ns#"
   xmlns:rdf="http://www.w3.org/1999/02/22-rdf-syntax-ns#"
   xmlns:svg="http://www.w3.org/2000/svg"
   xmlns="http://www.w3.org/2000/svg"
   xmlns:sodipodi="http://sodipodi.sourceforge.net/DTD/sodipodi-0.dtd"
   xmlns:inkscape="http://www.inkscape.org/namespaces/inkscape"
   xml:space="preserve"
   width="1023px"
   height="682px"
   style="shape-rendering:geometricPrecision; text-rendering:geometricPrecision; image-rendering:optimizeQuality; fill-rule:evenodd"
   viewBox="0 0 1024 682"
   id="svg2"
   version="1.1"
   inkscape:version="0.48.4 r9939"
   sodipodi:docname="Flag_of_Buganda.svg"><metadata
     id="metadata166"><rdf:RDF><cc:Work
         rdf:about=""><dc:format>image/svg+xml</dc:format><dc:type
           rdf:resource="http://purl.org/dc/dcmitype/StillImage" /></cc:Work></rdf:RDF></metadata><sodipodi:namedview
     pagecolor="#ffffff"
     bordercolor="#666666"
     borderopacity="1"
     objecttolerance="10"
     gridtolerance="10"
     guidetolerance="10"
     inkscape:pageopacity="0"
     inkscape:pageshadow="2"
     inkscape:window-width="1024"
     inkscape:window-height="714"
     id="namedview164"
     showgrid="false"
     showguides="true"
     inkscape:snap-bbox="true"
     inkscape:bbox-paths="true"
     inkscape:bbox-nodes="true"
     inkscape:snap-bbox-edge-midpoints="true"
     inkscape:snap-bbox-midpoints="true"
     inkscape:guide-bbox="true"
     inkscape:showpageshadow="false"
     inkscape:zoom="0.75146699"
     inkscape:cx="511.5"
     inkscape:cy="341"
     inkscape:window-x="0"
     inkscape:window-y="27"
     inkscape:window-maximized="1"
     inkscape:current-layer="svg2"><inkscape:grid
       type="xygrid"
       id="grid3151"
       empspacing="5"
       visible="true"
       enabled="true"
       snapvisiblegridlinesonly="true" /></sodipodi:namedview><defs
     id="defs4"><style
       type="text/css"
       id="style6">
    .str0 {stroke:#000000;stroke-linecap:square}
    .str3 {stroke:#EBA12B;stroke-width:5}
    .str4 {stroke:#84088C;stroke-width:6}
    .str1 {stroke:#F7DA4D;stroke-width:7;stroke-linecap:round}
    .str2 {stroke:#F7DA4E;stroke-width:7;stroke-linecap:round}
    .fil5 {fill:none}
    .fil3 {fill:#000000}
    .fil1 {fill:#003CC8}
    .fil4 {fill:#050000}
    .fil10 {fill:#590019}
    .fil7 {fill:#B5660A}
    .fil8 {fill:#EBA12B}
    .fil6 {fill:#EBB155}
    .fil2 {fill:#F7DA4D}
    .fil11 {fill:#F7DA4E}
    .fil9 {fill:#FFE087}
    .fil0 {fill:#FFFFFF}
   </style><clipPath
       id="clip1"><path
         d="M512 478c74,-64 74,-210 0,-274 -74,64 -74,210 0,274z"
         id="path9" /></clipPath></defs><path
     class="fil0"
     d="M0 0l1024 0 0 682 -1024 0 0 -682z"
     id="path11" /><path
     style="font-size:medium;font-style:normal;font-variant:normal;font-weight:normal;font-stretch:normal;text-indent:0;text-align:start;text-decoration:none;line-height:normal;letter-spacing:normal;word-spacing:normal;text-transform:none;direction:ltr;block-progression:tb;writing-mode:lr-tb;text-anchor:start;baseline-shift:baseline;color:#000000;fill:#f7da4d;fill-opacity:1;stroke:none;stroke-width:7;marker:none;visibility:visible;display:inline;overflow:visible;enable-background:accumulate;font-family:Sans;-inkscape-font-specification:Sans"
     d="m 601.70955,173.23782 c -15.60091,6.06702 -22.94476,19.66757 -25.27469,40.75856 l -154.80742,289.5953 a 3.5126257,3.5126257 0 0 0 6.19355,3.31574 L 581.37719,219.5956 c 14.93802,-12.89747 24.78892,-27.6402 20.33236,-46.35778 z"
     id="path140"
     inkscape:connector-curvature="0" /><path
     style="font-size:medium;font-style:normal;font-variant:normal;font-weight:normal;font-stretch:normal;text-indent:0;text-align:start;text-decoration:none;line-height:normal;letter-spacing:normal;word-spacing:normal;text-transform:none;direction:ltr;block-progression:tb;writing-mode:lr-tb;text-anchor:start;baseline-shift:baseline;color:#000000;fill:#f7da4d;fill-opacity:1;stroke:none;stroke-width:7;marker:none;visibility:visible;display:inline;overflow:visible;enable-background:accumulate;font-family:Sans;-inkscape-font-specification:Sans"
     d="m 422.29045,173.23782 c -4.45656,18.71758 5.39434,33.46031 20.33236,46.35777 l 153.5562,287.31183 a 3.512627,3.512627 0 1 0 6.19355,-3.31574 L 447.56513,213.99637 c -2.32992,-21.09098 -9.67377,-34.69153 -25.27468,-40.75855 z"
     id="path144"
     inkscape:connector-curvature="0" /><rect
     style="fill:#003cc8"
     id="rect14"
     height="682"
     width="341"
     y="0"
     x="0"
     class="fil1" /><rect
     style="fill:#003cc8"
     id="rect16"
     height="682"
     width="341"
     y="0"
     x="683"
     class="fil1" /><path
     style="fill:#f7da4d;stroke:#000000;stroke-linecap:square"
     inkscape:connector-curvature="0"
     id="path18"
     d="m 463,570 c 4,-3 8,-6 13,-7 4,-1 8,2 11,-1 0,1 1,1 1,3 0,-4 6,-2 6,-7 1,3 3,5 3,8 0,3 8,3 11,3 -2,-1 -6,-1 -7,-3 -1,-1 -1,-5 -2,-1 0,0 1,0 1,0 -3,1 -1,-3 -1,-4 0,-3 -4,-5 0,-7 0,2 1,3 1,5 1,-3 -1,-6 0,-8 2,1 3,1 4,2 -1,-2 -4,-4 -5,-6 2,1 4,1 5,2 0,0 1,0 1,-1 0,0 0,1 0,1 1,-1 3,-3 3,-4 0,-2 -6,-3 -7,-5 3,3 6,1 8,2 -1,-2 -2,-3 -3,-6 -1,1 -1,1 -1,1 0,-1 0,-3 1,-4 0,1 1,1 2,2 0,-2 -1,-3 -1,-5 0,0 1,0 1,1 -1,-2 -1,-3 -2,-4 1,0 1,0 2,0 -2,0 -7,-6 -8,-9 4,3 4,4 9,4 5,0 10,1 15,1 4,0 7,0 11,1 4,2 8,4 12,5 7,2 13,11 18,15 3,4 8,9 11,11 2,2 6,3 8,6 -1,0 -1,0 -2,0 4,1 7,1 9,5 2,4 -2,6 -6,7 -14,7 -6,-8 -14,-11 0,4 0,15 -4,17 -1,1 -7,0 -8,-1 -3,-3 0,-3 0,-6 2,-7 -11,-5 -15,-6 -3,0 -5,0 -7,-1 -2,0 -3,-2 -5,-3 -2,-1 -5,1 -8,-1 -2,9 -18,7 -25,7 -3,0 -6,5 -10,5 -3,0 -9,-1 -12,1 -4,2 -4,10 -10,10 -1,0 -2,0 -3,0 -3,0 -2,-1 -5,-2 0,-1 -2,0 -2,0 -1,-1 0,-3 -2,-3 -2,-1 0,-6 2,-6 -2,-1 -3,-1 -4,-2 -5,5 -19,3 -15,-5 3,-5 8,-4 11,-8 0,1 1,2 1,3 0,-2 1,-3 1,-4 1,2 0,4 0,6 1,-1 1,-2 2,-4 1,3 -2,5 -1,8 0,0 0,-1 1,-1 1,7 3,6 10,4 z"
     class="fil2 str0" /><path
     style="fill:#f7da4d;stroke:#000000;stroke-linecap:square"
     inkscape:connector-curvature="0"
     id="path20"
     d="m 567,547 c 5,2 11,4 17,6 4,2 10,6 15,6 2,0 5,-2 6,-5 0,0 -1,-3 -1,-4 0,-2 2,-5 0,-7 2,0 5,2 5,5 1,-1 1,-2 1,-3 1,6 0,8 -4,12 -5,5 -8,4 -15,2 -5,-1 -10,-5 -16,-7 -3,-1 -5,-3 -8,-5 z"
     class="fil2 str0" /><path
     style="fill:#000000"
     inkscape:connector-curvature="0"
     id="path22"
     d="m 473,575 c 4,-1 7,-5 11,-8 -2,2 -4,4 -6,5 4,0 8,-1 11,-2 2,0 6,-2 3,-3 1,-1 5,-2 5,-4 3,14 -15,6 -22,12 -3,3 -2,9 -9,9 -2,0 -5,0 -6,-2 -2,-2 -3,1 -4,-3 -1,-1 -3,-1 -1,-4 0,2 0,4 2,4 1,-1 2,-2 3,-4 0,2 -1,4 -2,5 4,3 5,0 6,-3 0,1 -1,4 0,5 2,0 3,-1 4,0 2,1 4,-5 5,-7 z"
     class="fil3" /><path
     style="fill:#050000"
     inkscape:connector-curvature="0"
     id="path24"
     d="m 453,566 c 0,3 0,6 4,6 -1,1 -3,0 -4,-1 -3,3 -5,2 -8,2 -5,0 -7,0 -8,-5 1,4 5,4 5,0 2,5 4,5 5,0 2,3 2,4 4,2 1,-1 2,-2 2,-4 z"
     class="fil4" /><path
     style="fill:#000000"
     inkscape:connector-curvature="0"
     id="path26"
     d="m 560,578 c 7,2 13,-3 7,-8 1,1 1,2 1,3 -2,0 -2,1 -1,2 -1,0 -2,0 -4,0 1,1 1,1 2,2 -3,1 -3,-2 -5,-3 -2,-1 -2,3 0,4 z"
     class="fil3" /><path
     style="fill:#000000"
     inkscape:connector-curvature="0"
     id="path28"
     d="m 577,574 c 3,3 18,-3 13,-7 1,3 -3,6 -5,2 0,1 -1,3 -1,4 -1,-2 -1,-4 -3,-5 0,2 3,5 0,6 -3,0 -2,-4 -3,-5 -1,1 0,3 1,4 -2,0 -3,-2 -3,-4 -1,2 0,2 0,4 0,1 2,2 1,1 z"
     class="fil3" /><path
     style="fill:#000000"
     inkscape:connector-curvature="0"
     id="path30"
     d="m 607,556 c 5,-1 3,-9 3,-11 0,2 0,2 -1,3 0,-3 -3,-5 -5,-5 4,3 -4,12 3,13 z"
     class="fil3" /><path
     style="fill:#000000"
     inkscape:connector-curvature="0"
     id="path32"
     d="m 557,567 c 0,-2 -2,-3 -3,-4 -1,5 -10,2 -12,0 -1,6 11,4 15,4 z"
     class="fil3" /><path
     style="fill:#050000"
     inkscape:connector-curvature="0"
     id="path34"
     d="m 440,569 c -1,1 -1,2 -1,3 1,-1 1,-2 1,-3 z"
     class="fil4" /><path
     style="fill:#050000"
     inkscape:connector-curvature="0"
     id="path36"
     d="m 445,570 c -1,1 -1,1 0,3 0,-1 0,-2 0,-3 z"
     class="fil4" /><path
     style="fill:none"
     inkscape:connector-curvature="0"
     id="path38"
     d="m 581,573 c -1,-1 -1,-2 -1,-3 0,1 1,2 1,3"
     class="fil5" /><path
     style="fill:#050000"
     inkscape:connector-curvature="0"
     id="path40"
     d="m 588,570 c -1,-1 -2,-1 -2,-3 1,1 1,2 2,3 z"
     class="fil4" /><path
     style="fill:#050000"
     inkscape:connector-curvature="0"
     id="path42"
     d="m 449,569 c 0,1 0,2 0,3 1,-1 0,-2 0,-3 z"
     class="fil4" /><path
     style="fill:#050000"
     inkscape:connector-curvature="0"
     id="path44"
     d="m 566,575 c -1,-1 -2,-1 -3,-2 1,0 2,1 3,2 z"
     class="fil4" /><path
     style="fill:#050000"
     inkscape:connector-curvature="0"
     id="path46"
     d="m 455,578 c 1,-2 1,-3 3,-3 -1,1 -2,2 -3,3 z"
     class="fil4" /><path
     style="fill:#050000"
     inkscape:connector-curvature="0"
     id="path48"
     d="m 460,580 c 0,-1 1,-2 2,-2 -1,0 -1,1 -2,2 z"
     class="fil4" /><path
     style="fill:#050000"
     inkscape:connector-curvature="0"
     id="path50"
     d="m 465,583 c 0,-2 1,-3 2,-4 0,2 -1,3 -2,4 z"
     class="fil4" /><path
     style="fill:#f7da4d;stroke:#000000;stroke-linecap:square"
     inkscape:connector-curvature="0"
     id="path52"
     d="m 479,483 c 1,-1 1,-2 1,-3 -1,1 -1,1 -2,1 1,-1 2,-3 1,-5 -1,2 -1,2 -2,3 0,-4 -3,-1 -4,-4 -2,1 -3,2 -5,3 0,-1 -1,-1 -1,-2 0,4 -5,3 -8,0 2,2 4,3 4,6 -2,-1 -4,-1 -5,-3 1,2 1,3 1,5 -1,-1 -2,-2 -3,-3 0,1 0,1 0,2 -2,-1 -4,-1 -6,0 2,1 2,2 4,2 -3,1 -5,1 -7,3 1,0 1,1 2,1 -2,1 -4,1 -5,3 2,-2 5,-1 7,-1 -2,0 -5,1 -7,3 1,0 1,0 2,0 -3,4 -8,8 -7,14 0,-1 1,-1 2,-2 -1,2 -1,5 -2,7 1,-1 2,-1 2,-1 -1,1 -2,2 -2,3 0,0 0,0 1,0 -2,2 -3,3 -3,5 1,0 2,0 3,0 -1,0 -1,1 -1,2 1,-1 1,-1 2,-2 -1,0 -1,0 -1,0 1,-1 2,-2 3,-2 1,3 -3,5 -4,8 4,-2 2,7 2,9 1,0 2,-1 2,-2 0,3 -2,5 -3,8 2,0 3,-1 4,-2 -1,1 -3,3 -3,5 2,-2 5,6 5,8 0,3 -2,7 -1,10 2,-1 3,-2 4,-4 0,1 0,2 1,3 0,-2 1,-3 1,-4 1,2 0,4 0,6 1,-1 1,-2 2,-4 1,3 -2,5 -1,8 0,0 0,-1 1,-1 0,3 0,6 4,6 1,0 5,-1 6,-2 1,-1 4,-3 5,-3 3,0 6,-3 10,-4 3,0 6,2 9,-1 0,1 1,1 1,3 0,-4 6,-2 6,-7 1,3 3,5 3,8 0,3 8,3 11,3 -3,-1 -5,-1 -7,-3 -1,-1 -1,-5 -2,-1 0,0 1,0 1,0 -4,1 -1,-2 -1,-4 0,-1 -2,-3 -2,-5 2,1 3,1 3,3 1,-3 -1,-6 0,-8 2,1 3,1 4,2 -1,-2 -4,-4 -5,-6 2,1 4,1 5,2 0,0 1,0 1,-1 0,0 0,1 0,1 1,-1 3,-3 3,-4 0,-2 -6,-3 -7,-5 3,3 6,1 8,2 -1,-2 -2,-3 -3,-6 -1,1 -1,1 -1,1 0,-1 0,-3 1,-4 0,1 1,1 2,2 0,-2 -1,-3 -1,-5 0,0 1,0 1,1 -1,-2 -1,-3 -2,-4 1,0 1,0 2,0 -3,0 -4,-7 -8,-9 1,2 2,4 4,4 -1,-5 -5,-8 -8,-12 4,3 8,6 11,9 -1,-1 -3,-6 0,-5 -1,-2 -2,-4 -3,-7 -1,-1 -7,-1 -8,-1 3,-1 7,-2 10,-1 -3,-3 -8,-3 -11,-6 3,-1 6,0 9,1 0,-1 0,-1 2,-2 -3,0 -5,-1 -8,-2 2,-1 3,-3 4,-4 -7,0 -6,-3 -7,-9 -1,0 -2,1 -4,1 0,-1 0,-1 0,-2 -1,0 -2,1 -3,1 1,-1 0,-2 1,-3 -2,2 -5,2 -5,4 0,-2 0,-4 2,-5 -3,0 -4,5 -7,4 z"
     class="fil2 str0" /><path
     style="fill:#ebb155"
     inkscape:connector-curvature="0"
     id="path54"
     d="m 493,498 c -5,1 9,23 11,25 1,2 3,5 3,7 0,2 -4,5 -5,7 -4,6 -8,12 -12,18 -5,6 -13,7 -20,8 -4,1 -6,2 -9,0 -4,-3 -7,-7 -9,-10 -5,-5 -9,-15 -6,-22 3,-6 4,-10 6,-17 0,-2 0,-5 1,-7 2,-3 6,-5 6,-8 -1,0 -2,-1 -1,-2 1,-1 4,-1 5,-1 -2,-1 -4,-1 -6,-2 3,-1 6,-1 4,-4 2,1 6,3 3,0 5,9 -8,16 -6,25 2,9 5,26 17,23 6,-1 6,-5 9,-10 1,-4 5,-6 6,-11 1,-1 0,-3 1,-5 1,-1 2,-3 2,-5 0,-4 -9,-4 -4,-9 1,-1 3,-1 4,0 z"
     class="fil6" /><path
     style="fill:#000000"
     inkscape:connector-curvature="0"
     id="path56"
     d="m 464,492 c -1,0 -2,-1 -3,-1 1,0 1,1 1,1 -2,0 -3,1 -4,1 0,1 1,1 1,1 1,0 3,0 4,0 -1,-1 0,-1 1,-2 z"
     class="fil3" /><path
     style="fill:#000000"
     inkscape:connector-curvature="0"
     id="path58"
     d="m 457,572 c -4,0 -4,-3 -4,-6 -1,0 -1,1 -1,1 -1,-3 2,-5 1,-8 -1,2 -1,3 -2,4 0,-2 1,-4 0,-6 0,1 -1,2 -1,4 -1,-1 -1,-2 -1,-3 -1,2 -2,3 -4,4 -1,-3 1,-6 1,-9 0,-2 -3,-11 -5,-9 0,-2 2,-4 3,-5 -1,1 -2,2 -4,2 1,-3 3,-5 3,-8 0,1 -1,2 -2,2 0,-2 2,-11 -2,-9 1,-3 5,-5 4,-8 -1,0 -2,1 -3,2 0,0 0,0 1,0 -1,1 -1,1 -2,2 0,-1 0,-2 1,-2 -1,0 -2,0 -3,0 0,-2 1,-3 3,-5 -1,0 -1,0 -1,0 0,-1 1,-2 2,-3 0,0 -1,0 -2,1 1,-2 1,-5 2,-7 -1,1 -2,1 -2,2 -1,-6 4,-10 7,-14 -1,0 -1,0 -2,0 2,-2 5,-3 7,-3 0,-1 0,-3 1,-4 -1,4 2,0 3,0 1,1 1,3 2,4 -1,0 -3,0 -4,0 0,2 2,2 4,3 -2,0 -2,0 -4,1 0,1 -1,3 -1,3 1,1 3,-2 5,-2 -1,2 0,2 0,3 1,0 2,0 3,-1 0,0 -1,0 -1,0 1,-1 2,-1 3,-1 0,1 0,1 1,2 -2,1 -4,3 -5,4 -2,2 -3,2 -4,5 1,-1 1,-1 3,-2 0,3 0,6 -3,8 1,0 2,1 3,2 -3,0 -6,3 -8,6 2,-1 5,-3 7,-4 0,3 -5,7 -7,9 2,-3 6,-5 8,-6 -3,4 -8,6 -11,10 3,-2 7,-4 10,-7 -3,4 -8,7 -11,10 3,-2 8,-7 12,-6 -4,1 -9,6 -8,10 1,-4 5,-6 6,-9 0,2 0,3 -1,4 -1,2 0,2 0,4 0,0 -2,4 0,3 1,-1 2,-3 3,-4 -2,5 0,11 -2,16 3,-4 1,-10 4,-13 0,1 1,2 1,4 0,-1 0,-2 0,-3 3,1 2,4 2,7 0,6 4,11 2,17 3,-6 3,-13 2,-19 -1,3 -1,6 -1,9 -2,-5 -1,-9 2,-13 0,6 1,12 3,17 -1,-3 -2,-11 1,-13 1,2 0,4 0,6 1,-3 3,-4 3,-7 0,3 1,7 1,10 0,-3 3,-3 4,-5 1,-2 1,-5 2,-7 2,5 5,13 1,18 2,-2 4,-6 4,-8 0,0 -1,1 -1,1 -1,-3 0,-7 0,-10 2,3 1,8 2,11 0,-4 0,-9 0,-14 0,4 2,8 1,12 0,-3 4,-7 3,-10 0,1 1,1 1,2 -1,-3 -4,-5 -5,-8 2,2 5,4 7,6 0,-3 -3,-6 -2,-10 1,3 6,6 6,8 2,-1 2,-3 1,-5 0,1 0,1 -1,2 -2,-3 -5,-6 -7,-10 3,3 6,4 9,7 -1,-3 -2,-5 -3,-8 1,1 3,2 3,4 1,0 10,0 4,-3 0,1 0,1 0,3 -1,-4 -6,-5 -8,-8 2,2 6,3 8,4 -1,-2 -4,-4 -6,-6 0,0 0,-2 -1,-2 0,-1 -2,-2 -2,-3 1,0 3,0 3,1 0,-2 -1,-4 -2,-6 3,4 7,7 8,12 -2,0 -3,-2 -4,-4 4,2 5,9 8,9 -1,0 -1,0 -2,0 1,1 1,2 2,4 0,-1 -1,-1 -1,-1 0,2 1,3 1,5 -1,-1 -2,-1 -2,-2 -1,1 -1,3 -1,4 0,0 0,0 1,-1 1,3 2,4 3,6 -2,-1 -5,1 -8,-2 1,2 6,3 7,5 0,1 -2,3 -3,4 0,0 0,-1 0,-1 0,1 -1,1 -1,1 -1,-1 -3,-1 -5,-2 1,2 4,4 5,6 -1,-1 -2,-1 -4,-2 -1,2 1,5 0,8 0,-2 -1,-2 -3,-3 0,2 2,4 2,5 0,2 -3,5 1,4 0,0 -1,0 -1,0 1,-4 1,0 2,1 2,2 4,2 7,3 -3,0 -11,0 -11,-3 0,-3 -2,-5 -3,-8 0,5 -6,3 -6,7 0,-2 -1,-2 -1,-3 -2,2 -4,1 -6,1 -3,0 -5,0 -8,2 -6,2 -10,5 -16,7 z"
     class="fil3" /><path
     style="fill:#000000"
     inkscape:connector-curvature="0"
     id="path60"
     d="m 481,533 c 1,-1 2,-2 2,-3 0,0 1,1 1,2 -3,-1 1,7 1,9 0,-3 -2,-5 -4,-6 0,2 0,3 1,4 0,-1 0,-2 -1,-3 2,2 2,4 1,5 0,-1 -1,-2 -2,-3 0,1 0,3 0,5 -1,-1 -2,-3 -2,-4 -1,0 -1,0 -1,1 0,0 -1,-1 -1,-1 0,1 0,2 0,3 0,0 1,-1 1,-1 0,1 -1,3 -2,4 1,-2 -1,-4 -1,-6 -1,3 -1,5 -2,8 0,-2 1,-6 0,-8 0,0 -1,1 -1,1 0,0 0,0 0,-1 -1,1 -1,2 -2,4 1,-1 1,-1 1,-2 0,3 -1,5 -1,8 -1,-3 0,-7 -2,-10 0,0 -1,1 -1,1 0,-1 0,-2 0,-3 -1,2 -2,4 -2,6 -1,-3 1,-6 1,-9 -1,0 -1,0 -1,1 0,-1 0,-2 0,-2 -2,2 -3,3 -4,6 0,-3 2,-5 3,-7 -1,1 -2,1 -2,2 0,-2 1,-5 1,-7 -1,0 -1,0 -2,1 0,0 1,0 1,0 -1,1 -2,2 -3,4 0,-2 3,-5 3,-8 -1,1 -1,1 -1,1 0,0 0,0 1,0 -1,1 -2,2 -3,3 0,-1 1,-3 1,-4 -1,0 -1,0 -1,-2 0,0 0,0 0,0 0,-1 0,-2 1,-3 0,3 3,7 4,9 1,3 2,6 3,8 4,4 14,3 15,-3 z"
     class="fil3" /><path
     style="fill:#000000"
     inkscape:connector-curvature="0"
     id="path62"
     d="m 466,498 c -1,3 -3,5 -5,7 3,1 -3,5 -3,7 0,0 1,0 1,0 -1,2 0,4 0,6 0,0 -1,0 -1,0 0,-2 -1,-3 0,-5 0,0 0,0 -1,0 0,-2 2,-4 2,-7 1,1 1,1 1,1 0,0 1,-1 1,-1 -1,0 -2,-1 -3,0 1,-1 1,-2 2,-3 0,0 0,1 0,1 2,-1 2,-3 2,-3 1,-1 3,-1 4,-3 z"
     class="fil3" /><path
     style="fill:#000000"
     inkscape:connector-curvature="0"
     id="path64"
     d="m 485,526 c 4,2 4,5 4,8 -1,-2 -3,-5 -4,-8 z"
     class="fil3" /><path
     style="fill:none"
     inkscape:connector-curvature="0"
     id="path66"
     d="m 493,523 c 2,0 3,3 3,5 -1,-2 -2,-3 -3,-5"
     class="fil5" /><path
     style="fill:#b5660a"
     inkscape:connector-curvature="0"
     id="path68"
     d="m 453,498 c -4,3 -6,6 -9,9 4,-2 6,-7 9,-9 z"
     class="fil7" /><path
     style="fill:none"
     inkscape:connector-curvature="0"
     id="path70"
     d="m 453,502 c -3,2 -8,5 -9,9 2,-3 6,-7 9,-9"
     class="fil5" /><path
     style="fill:none"
     inkscape:connector-curvature="0"
     id="path72"
     d="m 455,505 c -3,1 -7,3 -8,6 2,-2 6,-5 8,-6"
     class="fil5" /><path
     style="fill:none"
     inkscape:connector-curvature="0"
     id="path74"
     d="m 449,517 c -3,1 -6,4 -7,7 2,-2 5,-6 7,-7"
     class="fil5" /><path
     style="fill:none"
     inkscape:connector-curvature="0"
     id="path76"
     d="m 451,521 c -5,1 -7,8 -9,11 2,-3 5,-10 9,-11"
     class="fil5" /><path
     style="fill:#b5660a"
     inkscape:connector-curvature="0"
     id="path78"
     d="m 454,535 c -4,3 -5,9 -5,13 3,-3 3,-9 5,-13 z"
     class="fil7" /><path
     style="fill:none"
     inkscape:connector-curvature="0"
     id="path80"
     d="m 461,546 c -4,3 -3,12 -3,16 1,-4 0,-14 3,-16"
     class="fil5" /><path
     style="fill:none"
     inkscape:connector-curvature="0"
     id="path82"
     d="m 452,511 c -2,1 -4,2 -6,4 1,-1 4,-3 6,-4"
     class="fil5" /><path
     style="fill:none"
     inkscape:connector-curvature="0"
     id="path84"
     d="m 495,539 c 3,1 3,7 5,9 -1,-3 -2,-7 -5,-9"
     class="fil5" /><path
     style="fill:none"
     inkscape:connector-curvature="0"
     id="path86"
     d="m 489,544 c 3,2 5,6 6,9 -3,-2 -4,-6 -6,-9"
     class="fil5" /><path
     style="fill:#b5660a"
     inkscape:connector-curvature="0"
     id="path88"
     d="m 475,548 c 4,1 3,7 3,10 -2,-3 0,-7 -3,-10 z"
     class="fil7" /><path
     style="fill:#eba12b"
     inkscape:connector-curvature="0"
     id="path90"
     d="m 485,500 c 0,-1 -1,-1 -2,-2 0,1 0,2 0,3 -1,-1 -2,-2 -3,-3 0,1 0,1 0,1 0,0 1,1 1,0 0,1 0,2 0,3 -2,-2 -7,-1 -4,-5 -1,1 -1,1 -2,1 -1,-2 -4,1 -4,3 0,-2 1,-3 2,-4 -2,0 -3,-2 -5,-3 0,-1 -1,-2 -2,-2 2,-2 6,2 7,0 0,-4 -7,-5 -6,-9 1,1 1,1 2,2 0,-3 -3,-4 -5,-5 2,0 4,-1 3,-4 0,1 1,2 2,3 1,-1 2,-2 4,-3 -1,2 4,5 5,1 1,2 -1,4 0,6 0,-1 0,-1 1,-2 -1,3 0,6 2,8 0,-1 0,-4 -1,-5 2,-1 3,-4 5,-4 -2,2 -2,4 -1,7 1,-1 1,-1 2,-2 -1,1 -1,3 -1,4 1,0 1,-1 1,-1 1,1 1,1 1,3 1,-2 3,-3 5,-2 -2,1 -3,1 -4,3 1,-1 3,-1 4,0 1,0 2,0 4,0 -4,2 -7,6 -11,8 z"
     class="fil8" /><path
     style="fill:#000000"
     inkscape:connector-curvature="0"
     id="path92"
     d="m 493,495 c 3,-2 9,3 13,3 -2,1 -2,1 -2,2 -3,-1 -6,-2 -9,-1 0,1 1,1 1,1 -3,1 -6,-3 -9,1 3,-1 4,2 6,2 0,0 0,-1 -1,-1 2,0 3,1 5,3 -1,-1 -1,-2 -1,-3 3,0 7,1 10,3 -3,-1 -7,0 -10,1 1,0 7,0 8,1 1,3 2,5 3,7 -3,-1 -1,4 0,5 -3,-2 -5,-5 -8,-7 1,1 3,2 5,2 -2,-2 -4,-2 -6,-4 1,0 1,0 2,0 0,1 0,1 -1,1 1,0 3,0 4,0 -2,-3 -9,-3 -11,-8 0,1 0,2 0,3 0,0 0,-1 -1,-1 2,3 4,5 5,9 -3,-5 -5,-2 -1,2 -1,0 -1,0 -2,0 1,2 3,3 4,5 -2,-1 -4,-3 -5,-4 0,2 0,4 -1,6 0,-1 0,-2 0,-3 -2,1 -2,2 -2,4 -2,0 -3,0 -4,0 2,-1 3,-2 3,-5 0,1 0,2 0,2 1,-2 4,-8 0,-7 1,-2 1,-3 1,-4 0,1 -1,1 -1,1 0,-2 -1,-3 -1,-5 1,-1 0,0 1,-1 1,0 2,2 3,4 0,-1 0,-2 0,-2 0,0 1,1 1,1 -1,-2 -5,-4 -5,-7 -1,-3 3,-5 6,-6 z"
     class="fil3" /><path
     style="fill:none"
     inkscape:connector-curvature="0"
     id="path94"
     d="m 490,497 c -1,0 -2,0 -3,1 0,-1 0,-2 0,-2 -1,4 -5,-4 -8,-4 1,1 2,1 2,2 0,0 -1,0 -2,0 1,1 2,2 3,3 0,-1 0,-2 0,-2 1,2 4,2 3,5 2,-1 3,-2 5,-3"
     class="fil5" /><path
     style="fill:#000000"
     inkscape:connector-curvature="0"
     id="path96"
     d="m 470,531 c -1,1 -3,2 -4,1 1,2 5,-1 7,-1 1,0 7,3 7,1 -1,1 -6,-1 -6,-3 -1,-3 6,-4 5,-6 -1,2 -3,1 -4,-1 0,1 -1,1 0,2 -2,0 -5,-1 -7,-1 1,4 5,3 5,8 -1,0 -2,0 -3,0 z"
     class="fil3" /><path
     style="fill:#ffe087"
     inkscape:connector-curvature="0"
     id="path98"
     d="m 466,499 c -1,3 -5,6 -4,9 0,3 3,2 5,5 0,-1 0,-1 -1,-2 2,0 1,-1 2,0 0,-4 3,-4 2,-8 0,-1 -1,-8 -4,-4 z"
     class="fil9" /><path
     style="fill:#590019"
     inkscape:connector-curvature="0"
     id="path100"
     d="m 468,522 c -2,0 -2,3 0,3 -3,2 -1,-5 -1,-7 0,1 -1,3 -2,4 1,-2 0,-3 1,-4 0,-1 2,-3 2,-4 0,-3 -3,-3 -5,-4 0,0 0,0 0,0 0,0 -1,-1 -1,-1 1,-1 2,-1 4,-1 -1,-1 -1,-2 0,-3 0,1 1,2 1,3 0,-1 1,-1 2,-2 -3,2 0,5 0,7 0,2 -3,7 -1,9 z"
     class="fil10" /><path
     style="fill:#ffe087"
     inkscape:connector-curvature="0"
     id="path102"
     d="m 476,500 c 0,1 0,2 0,3 0,0 0,0 -1,-1 0,1 0,2 0,4 1,-1 1,-1 2,-3 0,1 0,1 0,2 0,0 1,0 2,0 0,-1 0,-1 -1,-1 1,0 2,0 3,0 -2,2 0,2 -1,4 0,-1 -1,-1 -1,-2 -2,0 -3,2 -4,4 0,-1 1,-1 1,-1 -1,1 -2,2 -3,2 0,0 0,-1 -1,-1 0,1 -1,1 -1,2 -1,-1 -1,-2 -2,-3 1,0 1,0 2,0 2,-1 2,-4 0,-6 1,0 2,-2 3,-4 0,2 1,2 2,1 z"
     class="fil9" /><path
     style="fill:#ffe087"
     inkscape:connector-curvature="0"
     id="path104"
     d="m 487,504 c -2,-1 -3,-2 -3,-3 0,1 -1,1 -1,2 0,-1 -1,-2 -1,-2 -1,2 -2,1 -4,2 1,0 2,1 3,0 -1,2 1,3 0,5 0,2 -2,0 -2,3 0,5 6,-1 8,-1 -2,-2 -2,-3 -3,-4 1,0 1,1 2,1 0,-1 0,-2 1,-3 z"
     class="fil9" /><path
     style="fill:#590019"
     inkscape:connector-curvature="0"
     id="path106"
     d="m 487,510 c -3,0 -6,-2 -8,1 -1,3 2,5 0,8 2,0 3,-2 3,-4 0,1 -1,2 -1,2 -2,-3 1,-7 6,-7 z"
     class="fil10" /><path
     style="fill:none"
     inkscape:connector-curvature="0"
     id="path108"
     d="m 467,511 c 0,-5 -5,1 0,0"
     class="fil5" /><path
     style="fill:none"
     inkscape:connector-curvature="0"
     id="path110"
     d="m 480,512 c 0,-2 1,-2 3,-2 0,1 -1,2 -3,2"
     class="fil5" /><path
     style="fill:none"
     inkscape:connector-curvature="0"
     id="path112"
     d="m 466,510 c 2,-2 -2,-2 0,0"
     class="fil5" /><path
     style="fill:none"
     inkscape:connector-curvature="0"
     id="path114"
     d="m 481,512 c 3,-3 -2,-3 0,0"
     class="fil5" /><path
     style="fill:#000000"
     inkscape:connector-curvature="0"
     id="path116"
     d="m 484,510 c -6,-2 -2,6 -1,0 0,2 -3,2 -4,5 0,-3 0,-7 5,-5 z"
     class="fil3" /><path
     style="fill:#000000"
     inkscape:connector-curvature="0"
     id="path118"
     d="m 464,509 c 1,-1 3,0 4,2 -2,0 -3,0 -4,-2 1,2 3,2 4,4 0,-2 -1,-7 -4,-4 z"
     class="fil3" /><path
     style="fill:#ffe087"
     inkscape:connector-curvature="0"
     id="path120"
     d="m 462,523 c 0,2 1,3 2,4 0,2 -1,4 1,5 2,2 5,-2 7,-2 1,-3 -2,-2 -3,-4 2,1 2,4 -1,4 -3,0 -5,-5 -6,-7 z"
     class="fil9" /><path
     style="fill:#ffe087"
     inkscape:connector-curvature="0"
     id="path122"
     d="m 480,525 c -4,1 -8,3 -4,5 4,3 8,1 8,-5 0,1 -3,5 -5,5 -3,-1 0,-4 1,-5 z"
     class="fil9" /><path
     style="fill:#ffe087"
     inkscape:connector-curvature="0"
     id="path124"
     d="m 480,534 c -2,0 -3,0 -4,-1 0,1 0,1 1,2 -1,-1 -2,-1 -2,-3 0,2 0,2 0,3 -1,-1 -1,-1 -2,-2 0,1 -1,2 -2,3 1,-2 0,-3 0,-4 -1,1 -1,2 -2,3 0,-1 0,-1 1,-2 -1,1 -3,1 -4,1 1,6 12,5 14,0 z"
     class="fil9" /><path
     style="fill:#000000"
     inkscape:connector-curvature="0"
     id="path126"
     d="m 480,491 c -4,-2 -5,-6 -5,-10 -3,2 -1,7 1,9 -2,-1 -3,-3 -4,-5 0,2 1,5 2,7 -1,-2 -2,-4 -3,-5 0,2 0,5 1,7 -1,-1 -2,-2 -4,-2 3,4 4,3 7,2 4,0 5,1 8,3 -1,-1 -2,-2 -2,-4 2,1 3,2 4,3 0,-2 0,-4 2,-4 -3,0 -4,-3 -4,-5 -1,2 0,3 0,5 -2,-1 -4,-5 -4,-6 0,2 0,4 1,5 z"
     class="fil3" /><path
     style="fill:#eba12b"
     inkscape:connector-curvature="0"
     id="path128"
     d="m 536,539 c 2,3 11,9 9,14 -1,3 -9,5 -11,8 -2,2 -7,0 -9,0 2,-2 3,-5 3,-7 -1,3 -5,3 -6,6 -1,2 0,3 -3,5 -2,1 -5,2 -8,3 -4,1 -9,0 -13,-2 -2,-1 0,-5 -1,-7 10,4 23,1 30,-7 1,1 3,3 2,5 3,0 10,-2 11,-6 1,-4 -4,-8 -4,-12 z"
     class="fil8" /><path
     style="fill:#000000"
     inkscape:connector-curvature="0"
     id="path130"
     d="m 542,537 c -2,1 -4,1 -6,0 1,1 1,3 2,4 1,3 3,5 5,8 4,7 -6,8 -10,12 8,-6 16,-4 25,-5 3,-1 5,3 8,3 2,0 5,1 5,3 2,-5 -11,-6 -14,-8 -2,-1 -8,-13 -9,-9 -3,-3 -6,-4 -10,-6 1,0 3,-2 4,-2 z"
     class="fil3" /><path
     style="fill:#000000"
     inkscape:connector-curvature="0"
     id="path132"
     d="m 524,561 c 2,-2 3,-5 4,-8 1,3 -1,6 2,5 -1,2 -7,5 -6,3 z"
     class="fil3" /><path
     style="fill:#ffe087"
     inkscape:connector-curvature="0"
     id="path134"
     d="m 505,522 c 7,2 16,2 22,2 8,0 14,5 21,6 7,2 15,13 20,19 3,3 5,6 8,7 2,1 6,2 5,5 2,0 4,1 5,2 -5,-1 -10,-3 -14,-7 -6,-4 -11,-12 -16,-17 -6,-6 -15,-10 -23,-11 -7,-1 -16,2 -24,1 1,-2 -2,-5 -4,-7 z"
     class="fil9" /><path
     style="fill:#ffe087"
     inkscape:connector-curvature="0"
     id="path136"
     d="m 485,564 c -1,0 -3,0 -4,0 -3,0 -7,2 -9,3 -5,2 -10,6 -14,6 0,0 1,0 1,1 0,0 -1,2 -1,2 1,-1 3,-2 5,-2 -1,1 -1,2 -2,3 2,-1 3,-2 5,-3 0,1 0,1 0,2 3,-4 7,-7 11,-8 3,-2 6,-1 8,-4 z"
     class="fil9" /><path
     style="fill:#ffe087"
     inkscape:connector-curvature="0"
     id="path138"
     d="m 448,561 c -4,2 -8,2 -10,7 2,-1 3,-3 5,-3 0,2 0,2 0,4 1,-3 5,-4 5,-8 z"
     class="fil9" /><path
     style="fill:none;stroke:#eba12b;stroke-width:5"
     inkscape:connector-curvature="0"
     id="path148"
     d="m 512,478 c 74,-64 74,-210 0,-274 -74,64 -74,210 0,274 z"
     class="fil2 str3" /><g
     id="g150"
     clip-path="url(#clip1)"><path
       style="fill:none;stroke:#84088c;stroke-width:6.39257097"
       inkscape:connector-curvature="0"
       id="path152"
       d="m 515.19629,204.19629 0,273.60742"
       class="fil5 str4" /><path
       style="fill:none;stroke:#84088c;stroke-width:6.39257097"
       inkscape:connector-curvature="0"
       id="path154"
       d="m 531.11102,204.19629 0,273.60742"
       class="fil5 str4" /><path
       style="fill:none;stroke:#84088c;stroke-width:6.39257097"
       inkscape:connector-curvature="0"
       id="path156"
       d="m 545.88898,204.19629 0,273.60742"
       class="fil5 str4" /><path
       style="fill:none;stroke:#84088c;stroke-width:6.39257097"
       inkscape:connector-curvature="0"
       id="path158"
       d="m 561.80371,204.19629 0,273.60742"
       class="fil5 str4" /></g><path
     inkscape:connector-curvature="0"
     id="path160"
     d="m 512,478 c 74,-64 74,-210 0,-274 -74,64 -74,210 0,274 z"
     style="fill:none;stroke:#eba12b;stroke-width:5"
     class="str3" /><path
     inkscape:connector-curvature="0"
     id="circle162"
     d="m 529,341 c 0,9.38884 -7.61116,17 -17,17 -9.38884,0 -17,-7.61116 -17,-17 0,-9.38884 7.61116,-17 17,-17 9.38884,0 17,7.61116 17,17 z"
     style="fill:#eba12b" /><path
     style="fill:#f7da4d;stroke:#000000;stroke-linecap:square"
     inkscape:connector-curvature="0"
     class="fil2 str0"
     d="m 463,570 c 4,-3 8,-6 13,-7 4,-1 8,2 11,-1 0,1 1,1 1,3 0,-4 6,-2 6,-7 1,3 3,5 3,8 0,3 8,3 11,3 -2,-1 -6,-1 -7,-3 -1,-1 -1,-5 -2,-1 0,0 1,0 1,0 -3,1 -1,-3 -1,-4 0,-3 -4,-5 0,-7 0,2 1,3 1,5 1,-3 -1,-6 0,-8 2,1 3,1 4,2 -1,-2 -4,-4 -5,-6 2,1 4,1 5,2 0,0 1,0 1,-1 0,0 0,1 0,1 1,-1 3,-3 3,-4 0,-2 -6,-3 -7,-5 3,3 6,1 8,2 -1,-2 -2,-3 -3,-6 -1,1 -1,1 -1,1 0,-1 0,-3 1,-4 0,1 1,1 2,2 0,-2 -1,-3 -1,-5 0,0 1,0 1,1 -1,-2 -1,-3 -2,-4 1,0 1,0 2,0 -2,0 -7,-6 -8,-9 4,3 4,4 9,4 5,0 10,1 15,1 4,0 7,0 11,1 4,2 8,4 12,5 7,2 13,11 18,15 3,4 8,9 11,11 2,2 6,3 8,6 -1,0 -1,0 -2,0 4,1 7,1 9,5 2,4 -2,6 -6,7 -14,7 -6,-8 -14,-11 0,4 0,15 -4,17 -1,1 -7,0 -8,-1 -3,-3 0,-3 0,-6 2,-7 -11,-5 -15,-6 -3,0 -5,0 -7,-1 -2,0 -3,-2 -5,-3 -2,-1 -5,1 -8,-1 -2,9 -18,7 -25,7 -3,0 -6,5 -10,5 -3,0 -9,-1 -12,1 -4,2 -4,10 -10,10 -1,0 -2,0 -3,0 -3,0 -2,-1 -5,-2 0,-1 -2,0 -2,0 -1,-1 0,-3 -2,-3 -2,-1 0,-6 2,-6 -2,-1 -3,-1 -4,-2 -5,5 -19,3 -15,-5 3,-5 8,-4 11,-8 0,1 1,2 1,3 0,-2 1,-3 1,-4 1,2 0,4 0,6 1,-1 1,-2 2,-4 1,3 -2,5 -1,8 0,0 0,-1 1,-1 1,7 3,6 10,4 z"
     id="path3172" /><path
     style="fill:#f7da4d;stroke:#000000;stroke-linecap:square"
     inkscape:connector-curvature="0"
     class="fil2 str0"
     d="m 567,547 c 5,2 11,4 17,6 4,2 10,6 15,6 2,0 5,-2 6,-5 0,0 -1,-3 -1,-4 0,-2 2,-5 0,-7 2,0 5,2 5,5 1,-1 1,-2 1,-3 1,6 0,8 -4,12 -5,5 -8,4 -15,2 -5,-1 -10,-5 -16,-7 -3,-1 -5,-3 -8,-5 z"
     id="path3174" /><path
     style="fill:#000000"
     inkscape:connector-curvature="0"
     class="fil3"
     d="m 473,575 c 4,-1 7,-5 11,-8 -2,2 -4,4 -6,5 4,0 8,-1 11,-2 2,0 6,-2 3,-3 1,-1 5,-2 5,-4 3,14 -15,6 -22,12 -3,3 -2,9 -9,9 -2,0 -5,0 -6,-2 -2,-2 -3,1 -4,-3 -1,-1 -3,-1 -1,-4 0,2 0,4 2,4 1,-1 2,-2 3,-4 0,2 -1,4 -2,5 4,3 5,0 6,-3 0,1 -1,4 0,5 2,0 3,-1 4,0 2,1 4,-5 5,-7 z"
     id="path3176" /><path
     style="fill:#050000"
     inkscape:connector-curvature="0"
     class="fil4"
     d="m 453,566 c 0,3 0,6 4,6 -1,1 -3,0 -4,-1 -3,3 -5,2 -8,2 -5,0 -7,0 -8,-5 1,4 5,4 5,0 2,5 4,5 5,0 2,3 2,4 4,2 1,-1 2,-2 2,-4 z"
     id="path3178" /><path
     style="fill:#000000"
     inkscape:connector-curvature="0"
     class="fil3"
     d="m 560,578 c 7,2 13,-3 7,-8 1,1 1,2 1,3 -2,0 -2,1 -1,2 -1,0 -2,0 -4,0 1,1 1,1 2,2 -3,1 -3,-2 -5,-3 -2,-1 -2,3 0,4 z"
     id="path3180" /><path
     style="fill:#000000"
     inkscape:connector-curvature="0"
     class="fil3"
     d="m 577,574 c 3,3 18,-3 13,-7 1,3 -3,6 -5,2 0,1 -1,3 -1,4 -1,-2 -1,-4 -3,-5 0,2 3,5 0,6 -3,0 -2,-4 -3,-5 -1,1 0,3 1,4 -2,0 -3,-2 -3,-4 -1,2 0,2 0,4 0,1 2,2 1,1 z"
     id="path3182" /><path
     style="fill:#000000"
     inkscape:connector-curvature="0"
     class="fil3"
     d="m 607,556 c 5,-1 3,-9 3,-11 0,2 0,2 -1,3 0,-3 -3,-5 -5,-5 4,3 -4,12 3,13 z"
     id="path3184" /><path
     style="fill:#000000"
     inkscape:connector-curvature="0"
     class="fil3"
     d="m 557,567 c 0,-2 -2,-3 -3,-4 -1,5 -10,2 -12,0 -1,6 11,4 15,4 z"
     id="path3186" /><path
     style="fill:#050000"
     inkscape:connector-curvature="0"
     class="fil4"
     d="m 440,569 c -1,1 -1,2 -1,3 1,-1 1,-2 1,-3 z"
     id="path3188" /><path
     style="fill:#050000"
     inkscape:connector-curvature="0"
     class="fil4"
     d="m 445,570 c -1,1 -1,1 0,3 0,-1 0,-2 0,-3 z"
     id="path3190" /><path
     style="fill:none"
     inkscape:connector-curvature="0"
     class="fil5"
     d="m 581,573 c -1,-1 -1,-2 -1,-3 0,1 1,2 1,3"
     id="path3192" /><path
     style="fill:#050000"
     inkscape:connector-curvature="0"
     class="fil4"
     d="m 588,570 c -1,-1 -2,-1 -2,-3 1,1 1,2 2,3 z"
     id="path3194" /><path
     style="fill:#050000"
     inkscape:connector-curvature="0"
     class="fil4"
     d="m 449,569 c 0,1 0,2 0,3 1,-1 0,-2 0,-3 z"
     id="path3196" /><path
     style="fill:#050000"
     inkscape:connector-curvature="0"
     class="fil4"
     d="m 566,575 c -1,-1 -2,-1 -3,-2 1,0 2,1 3,2 z"
     id="path3198" /><path
     style="fill:#050000"
     inkscape:connector-curvature="0"
     class="fil4"
     d="m 455,578 c 1,-2 1,-3 3,-3 -1,1 -2,2 -3,3 z"
     id="path3200" /><path
     style="fill:#050000"
     inkscape:connector-curvature="0"
     class="fil4"
     d="m 460,580 c 0,-1 1,-2 2,-2 -1,0 -1,1 -2,2 z"
     id="path3202" /><path
     style="fill:#050000"
     inkscape:connector-curvature="0"
     class="fil4"
     d="m 465,583 c 0,-2 1,-3 2,-4 0,2 -1,3 -2,4 z"
     id="path3204" /><path
     style="fill:#f7da4d;stroke:#000000;stroke-linecap:square"
     inkscape:connector-curvature="0"
     class="fil2 str0"
     d="m 479,483 c 1,-1 1,-2 1,-3 -1,1 -1,1 -2,1 1,-1 2,-3 1,-5 -1,2 -1,2 -2,3 0,-4 -3,-1 -4,-4 -2,1 -3,2 -5,3 0,-1 -1,-1 -1,-2 0,4 -5,3 -8,0 2,2 4,3 4,6 -2,-1 -4,-1 -5,-3 1,2 1,3 1,5 -1,-1 -2,-2 -3,-3 0,1 0,1 0,2 -2,-1 -4,-1 -6,0 2,1 2,2 4,2 -3,1 -5,1 -7,3 1,0 1,1 2,1 -2,1 -4,1 -5,3 2,-2 5,-1 7,-1 -2,0 -5,1 -7,3 1,0 1,0 2,0 -3,4 -8,8 -7,14 0,-1 1,-1 2,-2 -1,2 -1,5 -2,7 1,-1 2,-1 2,-1 -1,1 -2,2 -2,3 0,0 0,0 1,0 -2,2 -3,3 -3,5 1,0 2,0 3,0 -1,0 -1,1 -1,2 1,-1 1,-1 2,-2 -1,0 -1,0 -1,0 1,-1 2,-2 3,-2 1,3 -3,5 -4,8 4,-2 2,7 2,9 1,0 2,-1 2,-2 0,3 -2,5 -3,8 2,0 3,-1 4,-2 -1,1 -3,3 -3,5 2,-2 5,6 5,8 0,3 -2,7 -1,10 2,-1 3,-2 4,-4 0,1 0,2 1,3 0,-2 1,-3 1,-4 1,2 0,4 0,6 1,-1 1,-2 2,-4 1,3 -2,5 -1,8 0,0 0,-1 1,-1 0,3 0,6 4,6 1,0 5,-1 6,-2 1,-1 4,-3 5,-3 3,0 6,-3 10,-4 3,0 6,2 9,-1 0,1 1,1 1,3 0,-4 6,-2 6,-7 1,3 3,5 3,8 0,3 8,3 11,3 -3,-1 -5,-1 -7,-3 -1,-1 -1,-5 -2,-1 0,0 1,0 1,0 -4,1 -1,-2 -1,-4 0,-1 -2,-3 -2,-5 2,1 3,1 3,3 1,-3 -1,-6 0,-8 2,1 3,1 4,2 -1,-2 -4,-4 -5,-6 2,1 4,1 5,2 0,0 1,0 1,-1 0,0 0,1 0,1 1,-1 3,-3 3,-4 0,-2 -6,-3 -7,-5 3,3 6,1 8,2 -1,-2 -2,-3 -3,-6 -1,1 -1,1 -1,1 0,-1 0,-3 1,-4 0,1 1,1 2,2 0,-2 -1,-3 -1,-5 0,0 1,0 1,1 -1,-2 -1,-3 -2,-4 1,0 1,0 2,0 -3,0 -4,-7 -8,-9 1,2 2,4 4,4 -1,-5 -5,-8 -8,-12 4,3 8,6 11,9 -1,-1 -3,-6 0,-5 -1,-2 -2,-4 -3,-7 -1,-1 -7,-1 -8,-1 3,-1 7,-2 10,-1 -3,-3 -8,-3 -11,-6 3,-1 6,0 9,1 0,-1 0,-1 2,-2 -3,0 -5,-1 -8,-2 2,-1 3,-3 4,-4 -7,0 -6,-3 -7,-9 -1,0 -2,1 -4,1 0,-1 0,-1 0,-2 -1,0 -2,1 -3,1 1,-1 0,-2 1,-3 -2,2 -5,2 -5,4 0,-2 0,-4 2,-5 -3,0 -4,5 -7,4 z"
     id="path3206" /><path
     style="fill:#ebb155"
     inkscape:connector-curvature="0"
     class="fil6"
     d="m 493,498 c -5,1 9,23 11,25 1,2 3,5 3,7 0,2 -4,5 -5,7 -4,6 -8,12 -12,18 -5,6 -13,7 -20,8 -4,1 -6,2 -9,0 -4,-3 -7,-7 -9,-10 -5,-5 -9,-15 -6,-22 3,-6 4,-10 6,-17 0,-2 0,-5 1,-7 2,-3 6,-5 6,-8 -1,0 -2,-1 -1,-2 1,-1 4,-1 5,-1 -2,-1 -4,-1 -6,-2 3,-1 6,-1 4,-4 2,1 6,3 3,0 5,9 -8,16 -6,25 2,9 5,26 17,23 6,-1 6,-5 9,-10 1,-4 5,-6 6,-11 1,-1 0,-3 1,-5 1,-1 2,-3 2,-5 0,-4 -9,-4 -4,-9 1,-1 3,-1 4,0 z"
     id="path3208" /><path
     style="fill:#000000"
     inkscape:connector-curvature="0"
     class="fil3"
     d="m 464,492 c -1,0 -2,-1 -3,-1 1,0 1,1 1,1 -2,0 -3,1 -4,1 0,1 1,1 1,1 1,0 3,0 4,0 -1,-1 0,-1 1,-2 z"
     id="path3210" /><path
     style="fill:#000000"
     inkscape:connector-curvature="0"
     class="fil3"
     d="m 457,572 c -4,0 -4,-3 -4,-6 -1,0 -1,1 -1,1 -1,-3 2,-5 1,-8 -1,2 -1,3 -2,4 0,-2 1,-4 0,-6 0,1 -1,2 -1,4 -1,-1 -1,-2 -1,-3 -1,2 -2,3 -4,4 -1,-3 1,-6 1,-9 0,-2 -3,-11 -5,-9 0,-2 2,-4 3,-5 -1,1 -2,2 -4,2 1,-3 3,-5 3,-8 0,1 -1,2 -2,2 0,-2 2,-11 -2,-9 1,-3 5,-5 4,-8 -1,0 -2,1 -3,2 0,0 0,0 1,0 -1,1 -1,1 -2,2 0,-1 0,-2 1,-2 -1,0 -2,0 -3,0 0,-2 1,-3 3,-5 -1,0 -1,0 -1,0 0,-1 1,-2 2,-3 0,0 -1,0 -2,1 1,-2 1,-5 2,-7 -1,1 -2,1 -2,2 -1,-6 4,-10 7,-14 -1,0 -1,0 -2,0 2,-2 5,-3 7,-3 0,-1 0,-3 1,-4 -1,4 2,0 3,0 1,1 1,3 2,4 -1,0 -3,0 -4,0 0,2 2,2 4,3 -2,0 -2,0 -4,1 0,1 -1,3 -1,3 1,1 3,-2 5,-2 -1,2 0,2 0,3 1,0 2,0 3,-1 0,0 -1,0 -1,0 1,-1 2,-1 3,-1 0,1 0,1 1,2 -2,1 -4,3 -5,4 -2,2 -3,2 -4,5 1,-1 1,-1 3,-2 0,3 0,6 -3,8 1,0 2,1 3,2 -3,0 -6,3 -8,6 2,-1 5,-3 7,-4 0,3 -5,7 -7,9 2,-3 6,-5 8,-6 -3,4 -8,6 -11,10 3,-2 7,-4 10,-7 -3,4 -8,7 -11,10 3,-2 8,-7 12,-6 -4,1 -9,6 -8,10 1,-4 5,-6 6,-9 0,2 0,3 -1,4 -1,2 0,2 0,4 0,0 -2,4 0,3 1,-1 2,-3 3,-4 -2,5 0,11 -2,16 3,-4 1,-10 4,-13 0,1 1,2 1,4 0,-1 0,-2 0,-3 3,1 2,4 2,7 0,6 4,11 2,17 3,-6 3,-13 2,-19 -1,3 -1,6 -1,9 -2,-5 -1,-9 2,-13 0,6 1,12 3,17 -1,-3 -2,-11 1,-13 1,2 0,4 0,6 1,-3 3,-4 3,-7 0,3 1,7 1,10 0,-3 3,-3 4,-5 1,-2 1,-5 2,-7 2,5 5,13 1,18 2,-2 4,-6 4,-8 0,0 -1,1 -1,1 -1,-3 0,-7 0,-10 2,3 1,8 2,11 0,-4 0,-9 0,-14 0,4 2,8 1,12 0,-3 4,-7 3,-10 0,1 1,1 1,2 -1,-3 -4,-5 -5,-8 2,2 5,4 7,6 0,-3 -3,-6 -2,-10 1,3 6,6 6,8 2,-1 2,-3 1,-5 0,1 0,1 -1,2 -2,-3 -5,-6 -7,-10 3,3 6,4 9,7 -1,-3 -2,-5 -3,-8 1,1 3,2 3,4 1,0 10,0 4,-3 0,1 0,1 0,3 -1,-4 -6,-5 -8,-8 2,2 6,3 8,4 -1,-2 -4,-4 -6,-6 0,0 0,-2 -1,-2 0,-1 -2,-2 -2,-3 1,0 3,0 3,1 0,-2 -1,-4 -2,-6 3,4 7,7 8,12 -2,0 -3,-2 -4,-4 4,2 5,9 8,9 -1,0 -1,0 -2,0 1,1 1,2 2,4 0,-1 -1,-1 -1,-1 0,2 1,3 1,5 -1,-1 -2,-1 -2,-2 -1,1 -1,3 -1,4 0,0 0,0 1,-1 1,3 2,4 3,6 -2,-1 -5,1 -8,-2 1,2 6,3 7,5 0,1 -2,3 -3,4 0,0 0,-1 0,-1 0,1 -1,1 -1,1 -1,-1 -3,-1 -5,-2 1,2 4,4 5,6 -1,-1 -2,-1 -4,-2 -1,2 1,5 0,8 0,-2 -1,-2 -3,-3 0,2 2,4 2,5 0,2 -3,5 1,4 0,0 -1,0 -1,0 1,-4 1,0 2,1 2,2 4,2 7,3 -3,0 -11,0 -11,-3 0,-3 -2,-5 -3,-8 0,5 -6,3 -6,7 0,-2 -1,-2 -1,-3 -2,2 -4,1 -6,1 -3,0 -5,0 -8,2 -6,2 -10,5 -16,7 z"
     id="path3212" /><path
     style="fill:#000000"
     inkscape:connector-curvature="0"
     class="fil3"
     d="m 481,533 c 1,-1 2,-2 2,-3 0,0 1,1 1,2 -3,-1 1,7 1,9 0,-3 -2,-5 -4,-6 0,2 0,3 1,4 0,-1 0,-2 -1,-3 2,2 2,4 1,5 0,-1 -1,-2 -2,-3 0,1 0,3 0,5 -1,-1 -2,-3 -2,-4 -1,0 -1,0 -1,1 0,0 -1,-1 -1,-1 0,1 0,2 0,3 0,0 1,-1 1,-1 0,1 -1,3 -2,4 1,-2 -1,-4 -1,-6 -1,3 -1,5 -2,8 0,-2 1,-6 0,-8 0,0 -1,1 -1,1 0,0 0,0 0,-1 -1,1 -1,2 -2,4 1,-1 1,-1 1,-2 0,3 -1,5 -1,8 -1,-3 0,-7 -2,-10 0,0 -1,1 -1,1 0,-1 0,-2 0,-3 -1,2 -2,4 -2,6 -1,-3 1,-6 1,-9 -1,0 -1,0 -1,1 0,-1 0,-2 0,-2 -2,2 -3,3 -4,6 0,-3 2,-5 3,-7 -1,1 -2,1 -2,2 0,-2 1,-5 1,-7 -1,0 -1,0 -2,1 0,0 1,0 1,0 -1,1 -2,2 -3,4 0,-2 3,-5 3,-8 -1,1 -1,1 -1,1 0,0 0,0 1,0 -1,1 -2,2 -3,3 0,-1 1,-3 1,-4 -1,0 -1,0 -1,-2 0,0 0,0 0,0 0,-1 0,-2 1,-3 0,3 3,7 4,9 1,3 2,6 3,8 4,4 14,3 15,-3 z"
     id="path3214" /><path
     style="fill:#000000"
     inkscape:connector-curvature="0"
     class="fil3"
     d="m 466,498 c -1,3 -3,5 -5,7 3,1 -3,5 -3,7 0,0 1,0 1,0 -1,2 0,4 0,6 0,0 -1,0 -1,0 0,-2 -1,-3 0,-5 0,0 0,0 -1,0 0,-2 2,-4 2,-7 1,1 1,1 1,1 0,0 1,-1 1,-1 -1,0 -2,-1 -3,0 1,-1 1,-2 2,-3 0,0 0,1 0,1 2,-1 2,-3 2,-3 1,-1 3,-1 4,-3 z"
     id="path3216" /><path
     style="fill:#000000"
     inkscape:connector-curvature="0"
     class="fil3"
     d="m 485,526 c 4,2 4,5 4,8 -1,-2 -3,-5 -4,-8 z"
     id="path3218" /><path
     style="fill:none"
     inkscape:connector-curvature="0"
     class="fil5"
     d="m 493,523 c 2,0 3,3 3,5 -1,-2 -2,-3 -3,-5"
     id="path3220" /><path
     style="fill:#b5660a"
     inkscape:connector-curvature="0"
     class="fil7"
     d="m 453,498 c -4,3 -6,6 -9,9 4,-2 6,-7 9,-9 z"
     id="path3222" /><path
     style="fill:none"
     inkscape:connector-curvature="0"
     class="fil5"
     d="m 453,502 c -3,2 -8,5 -9,9 2,-3 6,-7 9,-9"
     id="path3224" /><path
     style="fill:none"
     inkscape:connector-curvature="0"
     class="fil5"
     d="m 455,505 c -3,1 -7,3 -8,6 2,-2 6,-5 8,-6"
     id="path3226" /><path
     style="fill:none"
     inkscape:connector-curvature="0"
     class="fil5"
     d="m 449,517 c -3,1 -6,4 -7,7 2,-2 5,-6 7,-7"
     id="path3228" /><path
     style="fill:none"
     inkscape:connector-curvature="0"
     class="fil5"
     d="m 451,521 c -5,1 -7,8 -9,11 2,-3 5,-10 9,-11"
     id="path3230" /><path
     style="fill:#b5660a"
     inkscape:connector-curvature="0"
     class="fil7"
     d="m 454,535 c -4,3 -5,9 -5,13 3,-3 3,-9 5,-13 z"
     id="path3232" /><path
     style="fill:none"
     inkscape:connector-curvature="0"
     class="fil5"
     d="m 461,546 c -4,3 -3,12 -3,16 1,-4 0,-14 3,-16"
     id="path3234" /><path
     style="fill:none"
     inkscape:connector-curvature="0"
     class="fil5"
     d="m 452,511 c -2,1 -4,2 -6,4 1,-1 4,-3 6,-4"
     id="path3236" /><path
     style="fill:none"
     inkscape:connector-curvature="0"
     class="fil5"
     d="m 495,539 c 3,1 3,7 5,9 -1,-3 -2,-7 -5,-9"
     id="path3238" /><path
     style="fill:none"
     inkscape:connector-curvature="0"
     class="fil5"
     d="m 489,544 c 3,2 5,6 6,9 -3,-2 -4,-6 -6,-9"
     id="path3240" /><path
     style="fill:#b5660a"
     inkscape:connector-curvature="0"
     class="fil7"
     d="m 475,548 c 4,1 3,7 3,10 -2,-3 0,-7 -3,-10 z"
     id="path3242" /><path
     style="fill:#eba12b"
     inkscape:connector-curvature="0"
     class="fil8"
     d="m 485,500 c 0,-1 -1,-1 -2,-2 0,1 0,2 0,3 -1,-1 -2,-2 -3,-3 0,1 0,1 0,1 0,0 1,1 1,0 0,1 0,2 0,3 -2,-2 -7,-1 -4,-5 -1,1 -1,1 -2,1 -1,-2 -4,1 -4,3 0,-2 1,-3 2,-4 -2,0 -3,-2 -5,-3 0,-1 -1,-2 -2,-2 2,-2 6,2 7,0 0,-4 -7,-5 -6,-9 1,1 1,1 2,2 0,-3 -3,-4 -5,-5 2,0 4,-1 3,-4 0,1 1,2 2,3 1,-1 2,-2 4,-3 -1,2 4,5 5,1 1,2 -1,4 0,6 0,-1 0,-1 1,-2 -1,3 0,6 2,8 0,-1 0,-4 -1,-5 2,-1 3,-4 5,-4 -2,2 -2,4 -1,7 1,-1 1,-1 2,-2 -1,1 -1,3 -1,4 1,0 1,-1 1,-1 1,1 1,1 1,3 1,-2 3,-3 5,-2 -2,1 -3,1 -4,3 1,-1 3,-1 4,0 1,0 2,0 4,0 -4,2 -7,6 -11,8 z"
     id="path3244" /><path
     style="fill:#000000"
     inkscape:connector-curvature="0"
     class="fil3"
     d="m 493,495 c 3,-2 9,3 13,3 -2,1 -2,1 -2,2 -3,-1 -6,-2 -9,-1 0,1 1,1 1,1 -3,1 -6,-3 -9,1 3,-1 4,2 6,2 0,0 0,-1 -1,-1 2,0 3,1 5,3 -1,-1 -1,-2 -1,-3 3,0 7,1 10,3 -3,-1 -7,0 -10,1 1,0 7,0 8,1 1,3 2,5 3,7 -3,-1 -1,4 0,5 -3,-2 -5,-5 -8,-7 1,1 3,2 5,2 -2,-2 -4,-2 -6,-4 1,0 1,0 2,0 0,1 0,1 -1,1 1,0 3,0 4,0 -2,-3 -9,-3 -11,-8 0,1 0,2 0,3 0,0 0,-1 -1,-1 2,3 4,5 5,9 -3,-5 -5,-2 -1,2 -1,0 -1,0 -2,0 1,2 3,3 4,5 -2,-1 -4,-3 -5,-4 0,2 0,4 -1,6 0,-1 0,-2 0,-3 -2,1 -2,2 -2,4 -2,0 -3,0 -4,0 2,-1 3,-2 3,-5 0,1 0,2 0,2 1,-2 4,-8 0,-7 1,-2 1,-3 1,-4 0,1 -1,1 -1,1 0,-2 -1,-3 -1,-5 1,-1 0,0 1,-1 1,0 2,2 3,4 0,-1 0,-2 0,-2 0,0 1,1 1,1 -1,-2 -5,-4 -5,-7 -1,-3 3,-5 6,-6 z"
     id="path3246" /><path
     style="fill:none"
     inkscape:connector-curvature="0"
     class="fil5"
     d="m 490,497 c -1,0 -2,0 -3,1 0,-1 0,-2 0,-2 -1,4 -5,-4 -8,-4 1,1 2,1 2,2 0,0 -1,0 -2,0 1,1 2,2 3,3 0,-1 0,-2 0,-2 1,2 4,2 3,5 2,-1 3,-2 5,-3"
     id="path3248" /><path
     style="fill:#000000"
     inkscape:connector-curvature="0"
     class="fil3"
     d="m 470,531 c -1,1 -3,2 -4,1 1,2 5,-1 7,-1 1,0 7,3 7,1 -1,1 -6,-1 -6,-3 -1,-3 6,-4 5,-6 -1,2 -3,1 -4,-1 0,1 -1,1 0,2 -2,0 -5,-1 -7,-1 1,4 5,3 5,8 -1,0 -2,0 -3,0 z"
     id="path3250" /><path
     style="fill:#ffe087"
     inkscape:connector-curvature="0"
     class="fil9"
     d="m 466,499 c -1,3 -5,6 -4,9 0,3 3,2 5,5 0,-1 0,-1 -1,-2 2,0 1,-1 2,0 0,-4 3,-4 2,-8 0,-1 -1,-8 -4,-4 z"
     id="path3252" /><path
     style="fill:#590019"
     inkscape:connector-curvature="0"
     class="fil10"
     d="m 468,522 c -2,0 -2,3 0,3 -3,2 -1,-5 -1,-7 0,1 -1,3 -2,4 1,-2 0,-3 1,-4 0,-1 2,-3 2,-4 0,-3 -3,-3 -5,-4 0,0 0,0 0,0 0,0 -1,-1 -1,-1 1,-1 2,-1 4,-1 -1,-1 -1,-2 0,-3 0,1 1,2 1,3 0,-1 1,-1 2,-2 -3,2 0,5 0,7 0,2 -3,7 -1,9 z"
     id="path3254" /><path
     style="fill:#ffe087"
     inkscape:connector-curvature="0"
     class="fil9"
     d="m 476,500 c 0,1 0,2 0,3 0,0 0,0 -1,-1 0,1 0,2 0,4 1,-1 1,-1 2,-3 0,1 0,1 0,2 0,0 1,0 2,0 0,-1 0,-1 -1,-1 1,0 2,0 3,0 -2,2 0,2 -1,4 0,-1 -1,-1 -1,-2 -2,0 -3,2 -4,4 0,-1 1,-1 1,-1 -1,1 -2,2 -3,2 0,0 0,-1 -1,-1 0,1 -1,1 -1,2 -1,-1 -1,-2 -2,-3 1,0 1,0 2,0 2,-1 2,-4 0,-6 1,0 2,-2 3,-4 0,2 1,2 2,1 z"
     id="path3256" /><path
     style="fill:#ffe087"
     inkscape:connector-curvature="0"
     class="fil9"
     d="m 487,504 c -2,-1 -3,-2 -3,-3 0,1 -1,1 -1,2 0,-1 -1,-2 -1,-2 -1,2 -2,1 -4,2 1,0 2,1 3,0 -1,2 1,3 0,5 0,2 -2,0 -2,3 0,5 6,-1 8,-1 -2,-2 -2,-3 -3,-4 1,0 1,1 2,1 0,-1 0,-2 1,-3 z"
     id="path3258" /><path
     style="fill:#590019"
     inkscape:connector-curvature="0"
     class="fil10"
     d="m 487,510 c -3,0 -6,-2 -8,1 -1,3 2,5 0,8 2,0 3,-2 3,-4 0,1 -1,2 -1,2 -2,-3 1,-7 6,-7 z"
     id="path3260" /><path
     style="fill:none"
     inkscape:connector-curvature="0"
     class="fil5"
     d="m 467,511 c 0,-5 -5,1 0,0"
     id="path3262" /><path
     style="fill:none"
     inkscape:connector-curvature="0"
     class="fil5"
     d="m 480,512 c 0,-2 1,-2 3,-2 0,1 -1,2 -3,2"
     id="path3264" /><path
     style="fill:none"
     inkscape:connector-curvature="0"
     class="fil5"
     d="m 466,510 c 2,-2 -2,-2 0,0"
     id="path3266" /><path
     style="fill:none"
     inkscape:connector-curvature="0"
     class="fil5"
     d="m 481,512 c 3,-3 -2,-3 0,0"
     id="path3268" /><path
     style="fill:#000000"
     inkscape:connector-curvature="0"
     class="fil3"
     d="m 484,510 c -6,-2 -2,6 -1,0 0,2 -3,2 -4,5 0,-3 0,-7 5,-5 z"
     id="path3270" /><path
     style="fill:#000000"
     inkscape:connector-curvature="0"
     class="fil3"
     d="m 464,509 c 1,-1 3,0 4,2 -2,0 -3,0 -4,-2 1,2 3,2 4,4 0,-2 -1,-7 -4,-4 z"
     id="path3272" /><path
     style="fill:#ffe087"
     inkscape:connector-curvature="0"
     class="fil9"
     d="m 462,523 c 0,2 1,3 2,4 0,2 -1,4 1,5 2,2 5,-2 7,-2 1,-3 -2,-2 -3,-4 2,1 2,4 -1,4 -3,0 -5,-5 -6,-7 z"
     id="path3274" /><path
     style="fill:#ffe087"
     inkscape:connector-curvature="0"
     class="fil9"
     d="m 480,525 c -4,1 -8,3 -4,5 4,3 8,1 8,-5 0,1 -3,5 -5,5 -3,-1 0,-4 1,-5 z"
     id="path3276" /><path
     style="fill:#ffe087"
     inkscape:connector-curvature="0"
     class="fil9"
     d="m 480,534 c -2,0 -3,0 -4,-1 0,1 0,1 1,2 -1,-1 -2,-1 -2,-3 0,2 0,2 0,3 -1,-1 -1,-1 -2,-2 0,1 -1,2 -2,3 1,-2 0,-3 0,-4 -1,1 -1,2 -2,3 0,-1 0,-1 1,-2 -1,1 -3,1 -4,1 1,6 12,5 14,0 z"
     id="path3278" /><path
     style="fill:#000000"
     inkscape:connector-curvature="0"
     class="fil3"
     d="m 480,491 c -4,-2 -5,-6 -5,-10 -3,2 -1,7 1,9 -2,-1 -3,-3 -4,-5 0,2 1,5 2,7 -1,-2 -2,-4 -3,-5 0,2 0,5 1,7 -1,-1 -2,-2 -4,-2 3,4 4,3 7,2 4,0 5,1 8,3 -1,-1 -2,-2 -2,-4 2,1 3,2 4,3 0,-2 0,-4 2,-4 -3,0 -4,-3 -4,-5 -1,2 0,3 0,5 -2,-1 -4,-5 -4,-6 0,2 0,4 1,5 z"
     id="path3280" /><path
     style="fill:#eba12b"
     inkscape:connector-curvature="0"
     class="fil8"
     d="m 536,539 c 2,3 11,9 9,14 -1,3 -9,5 -11,8 -2,2 -7,0 -9,0 2,-2 3,-5 3,-7 -1,3 -5,3 -6,6 -1,2 0,3 -3,5 -2,1 -5,2 -8,3 -4,1 -9,0 -13,-2 -2,-1 0,-5 -1,-7 10,4 23,1 30,-7 1,1 3,3 2,5 3,0 10,-2 11,-6 1,-4 -4,-8 -4,-12 z"
     id="path3282" /><path
     style="fill:#000000"
     inkscape:connector-curvature="0"
     class="fil3"
     d="m 542,537 c -2,1 -4,1 -6,0 1,1 1,3 2,4 1,3 3,5 5,8 4,7 -6,8 -10,12 8,-6 16,-4 25,-5 3,-1 5,3 8,3 2,0 5,1 5,3 2,-5 -11,-6 -14,-8 -2,-1 -8,-13 -9,-9 -3,-3 -6,-4 -10,-6 1,0 3,-2 4,-2 z"
     id="path3284" /><path
     style="fill:#000000"
     inkscape:connector-curvature="0"
     class="fil3"
     d="m 524,561 c 2,-2 3,-5 4,-8 1,3 -1,6 2,5 -1,2 -7,5 -6,3 z"
     id="path3286" /><path
     style="fill:#ffe087"
     inkscape:connector-curvature="0"
     class="fil9"
     d="m 505,522 c 7,2 16,2 22,2 8,0 14,5 21,6 7,2 15,13 20,19 3,3 5,6 8,7 2,1 6,2 5,5 2,0 4,1 5,2 -5,-1 -10,-3 -14,-7 -6,-4 -11,-12 -16,-17 -6,-6 -15,-10 -23,-11 -7,-1 -16,2 -24,1 1,-2 -2,-5 -4,-7 z"
     id="path3288" /><path
     style="fill:#ffe087"
     inkscape:connector-curvature="0"
     class="fil9"
     d="m 485,564 c -1,0 -3,0 -4,0 -3,0 -7,2 -9,3 -5,2 -10,6 -14,6 0,0 1,0 1,1 0,0 -1,2 -1,2 1,-1 3,-2 5,-2 -1,1 -1,2 -2,3 2,-1 3,-2 5,-3 0,1 0,1 0,2 3,-4 7,-7 11,-8 3,-2 6,-1 8,-4 z"
     id="path3290" /><path
     style="fill:#ffe087"
     inkscape:connector-curvature="0"
     class="fil9"
     d="m 448,561 c -4,2 -8,2 -10,7 2,-1 3,-3 5,-3 0,2 0,2 0,4 1,-3 5,-4 5,-8 z"
     id="path3292" /><path
     inkscape:connector-curvature="0"
     id="path3522"
     d="m 512,200.6875 -1.625,1.40625 C 472.66357,234.70904 454,287.9127 454,341 c 0,53.0873 18.66357,106.29096 56.375,138.90625 l 1.625,1.40625 1.625,-1.40625 C 551.33643,447.29096 570,394.0873 570,341 570,287.9127 551.33643,234.70904 513.625,202.09375 z"
     style="font-size:medium;font-style:normal;font-variant:normal;font-weight:normal;font-stretch:normal;text-indent:0;text-align:start;text-decoration:none;line-height:normal;letter-spacing:normal;word-spacing:normal;text-transform:none;direction:ltr;block-progression:tb;writing-mode:lr-tb;text-anchor:start;baseline-shift:baseline;color:#000000;fill:#f7da4e;fill-opacity:1;stroke:none;stroke-width:5;marker:none;visibility:visible;display:inline;overflow:visible;enable-background:accumulate;font-family:Sans;-inkscape-font-specification:Sans"
     sodipodi:nodetypes="ccscccscc" /><path
     style="font-size:medium;font-style:normal;font-variant:normal;font-weight:normal;font-stretch:normal;text-indent:0;text-align:start;text-decoration:none;line-height:normal;letter-spacing:normal;word-spacing:normal;text-transform:none;direction:ltr;block-progression:tb;writing-mode:lr-tb;text-anchor:start;baseline-shift:baseline;color:#000000;fill:#eba12b;fill-opacity:1;stroke:none;stroke-width:5;marker:none;visibility:visible;display:inline;overflow:visible;enable-background:accumulate;font-family:Sans;-inkscape-font-specification:Sans"
     d="m 512,200.6875 -1.625,1.40625 C 472.66357,234.70904 454,287.9127 454,341 c 0,53.0873 18.66357,106.29096 56.375,138.90625 l 1.625,1.40625 1.625,-1.40625 C 551.33643,447.29096 570,394.0873 570,341 570,287.9127 551.33643,234.70904 513.625,202.09375 L 512,200.6875 z m 0,6.71875 C 547.18593,238.92231 565,289.88647 565,341 565,392.11353 547.18593,443.07769 512,474.59375 476.81407,443.07769 459,392.11353 459,341 c 0,-51.11353 17.81407,-102.07769 53,-133.59375 z"
     id="path3314"
     inkscape:connector-curvature="0" /><path
     style="fill:#84088c;fill-opacity:1;stroke:none"
     d="M 556.875 284.34375 L 556.875 397.65625 C 556.90158 397.56029 556.94231 397.47102 556.96875 397.375 C 558.62942 391.34494 560.01616 385.19175 561.125 378.96875 C 562.23384 372.74575 563.06972 366.43438 563.625 360.09375 C 564.18028 353.75312 564.4375 347.38295 564.4375 341 C 564.4375 334.61705 564.18028 328.24688 563.625 321.90625 C 563.06972 315.56562 562.23384 309.25425 561.125 303.03125 C 560.01616 296.80825 558.62942 290.65506 556.96875 284.625 C 556.94231 284.52898 556.90158 284.43971 556.875 284.34375 z "
     id="path3573"
     transform="matrix(1.0009775,0,0,1.0009775,0,-0.33333333)" /><path
     style="fill:#84088c;fill-opacity:1;stroke:none"
     d="M 541.75 435.4375 C 542.39375 434.24644 543.07107 433.0855 543.6875 431.875 C 545.76472 427.7959 547.54597 423.49785 549.3125 419.21875 L 549.3125 262.78125 C 547.54597 258.50215 545.76472 254.2041 543.6875 250.125 C 543.07107 248.9145 542.39375 247.75356 541.75 246.5625 L 541.75 435.4375 z "
     id="path3571"
     transform="matrix(1.0009775,0,0,1.0009775,0,-0.33333333)" /><path
     style="fill:#84088c;fill-opacity:1;stroke:none"
     d="M 534.1875 233.90625 C 532.65704 231.61542 531.0833 229.34622 529.4375 227.15625 C 528.53404 225.95407 527.56318 224.82632 526.625 223.65625 L 526.625 458.34375 C 527.56318 457.17368 528.53404 456.04593 529.4375 454.84375 C 531.0833 452.65378 532.65704 450.38458 534.1875 448.09375 L 534.1875 233.90625 z "
     id="path3569"
     transform="matrix(1.0009775,0,0,1.0009775,0,-0.33333333)" /><path
     style="fill:#84088c;fill-opacity:1;stroke:none"
     d="M 519.0625 214.96875 C 518.65758 214.54217 518.2853 214.07723 517.875 213.65625 C 515.81372 211.54134 513.69697 209.49908 511.5 207.53125 L 511.5 474.46875 C 513.69697 472.50092 515.81372 470.45866 517.875 468.34375 C 518.2853 467.92277 518.65758 467.45783 519.0625 467.03125 L 519.0625 214.96875 z "
     id="path3539"
     transform="matrix(1.0009775,0,0,1.0009775,0,-0.33333333)" /><path
     inkscape:connector-curvature="0"
     style="fill:#eba12b"
     d="m 512,324 c 9.38884,0 17,7.61116 17,17 0,9.38884 -7.61116,17 -17,17 -9.38884,0 -17,-7.61116 -17,-17 0,-9.38884 7.61116,-17 17,-17 z"
     id="path3316" /></svg>