<?xml version="1.0" encoding="UTF-8" standalone="no"?>
<svg
   xmlns:dc="http://purl.org/dc/elements/1.1/"
   xmlns:cc="http://creativecommons.org/ns#"
   xmlns:rdf="http://www.w3.org/1999/02/22-rdf-syntax-ns#"
   xmlns:svg="http://www.w3.org/2000/svg"
   xmlns="http://www.w3.org/2000/svg"
   xmlns:sodipodi="http://sodipodi.sourceforge.net/DTD/sodipodi-0.dtd"
   xmlns:inkscape="http://www.inkscape.org/namespaces/inkscape"
   width="600"
   height="600"
   viewBox="-287 -287 574 574"
   id="svg4136"
   version="1.1"
   inkscape:version="0.91 r13725"
   sodipodi:docname="Shamash-sun-symbol.svg">
  <metadata
     id="metadata4163">
    <rdf:RDF>
      <cc:Work
         rdf:about="">
        <dc:format>image/svg+xml</dc:format>
        <dc:type
           rdf:resource="http://purl.org/dc/dcmitype/StillImage" />
      </cc:Work>
    </rdf:RDF>
  </metadata>
  <defs
     id="defs4161" />
  <sodipodi:namedview
     pagecolor="#ffffff"
     bordercolor="#666666"
     borderopacity="1"
     objecttolerance="10"
     gridtolerance="10"
     guidetolerance="10"
     inkscape:pageopacity="0"
     inkscape:pageshadow="2"
     inkscape:window-width="1600"
     inkscape:window-height="838"
     id="namedview4159"
     showgrid="false"
     inkscape:zoom="0.35885669"
     inkscape:cx="343.3623"
     inkscape:cy="223.4512"
     inkscape:window-x="-8"
     inkscape:window-y="-8"
     inkscape:window-maximized="1"
     inkscape:current-layer="g4140" />
  <title
     id="title4138">Ancient Mesopotamian symbol of sun god Shamash (Utu)</title>
  <g
     fill="none"
     stroke="#000000"
     stroke-miterlimit="8"
     id="g4140">
    <defs
       id="defs4142">
      <path
         id="Wavy"
         stroke-width="23.9144"
         d="M112.019,-24.2286 C123.661,-24.2286,134.045,-18.5648,140.339,-15.7327 C146.632,-12.9011,157.016,-7.2369,168.658,-7.2369 C180.3,-7.2369,190.684,-12.9007,196.978,-15.7327 C203.271,-18.5644,213.655,-24.2286,225.297,-24.2286 C236.939,-24.2286,247.323,-18.5648,253.617,-15.7327 C259.91,-12.9011,270.294,-7.2369,281.936,-7.2369 C293.578,-7.2369,303.962,-12.9007,310.256,-15.7327 C316.549,-18.5644,326.933,-24.2286,338.575,-24.2286 C350.217,-24.2286,360.601,-18.5648,366.895,-15.7327 C373.188,-12.9011,383.572,-7.2369,395.214,-7.2369 C406.856,-7.2369,417.24,-12.9007,423.534,-15.7327 C429.827,-18.5644,440.211,-24.2286,451.853,-24.2286 M112.019,24.2286 C123.661,24.2286,134.045,29.8924,140.339,32.7244 C146.632,35.5561,157.016,41.2203,168.658,41.2203 C180.3,41.2203,190.684,35.5565,196.978,32.7244 C203.271,29.8928,213.655,24.2286,225.297,24.2286 C236.939,24.2286,247.323,29.8924,253.617,32.7244 C259.91,35.5561,270.294,41.2203,281.936,41.2203 C293.578,41.2203,303.962,35.5565,310.256,32.7244 C316.549,29.8928,326.933,24.2286,338.575,24.2286 C350.217,24.2286,360.601,29.8924,366.895,32.7244 C373.188,35.5561,383.572,41.2203,395.214,41.2203 C406.856,41.2203,417.24,35.5565,423.534,32.7244 C429.827,29.8928,440.211,24.2286,451.853,24.2286" />
    </defs>
    <g
       id="g4300">
      <circle
         id="circle4145"
         r="280.5"
         stroke-width="5.2" />
      <circle
         id="circle4147"
         r="58.5"
         stroke-width="20.5" />
      <path
         id="path4157"
         d="M42.4258,42.4258L238,0L42.4258,-42.4258 M-42.4258,42.4258L0,238L42.4258,42.4258 M-42.4258,-42.4258L-238,0L-42.4258,42.4258 M42.4258,-42.4258L0,-238L-42.4258,-42.4258"
         stroke-width="18" />
      <g
         id="g4230">
        <g
           id="g4202">
          <g
             id="g4189" />
        </g>
      </g>
      <g
         id="g4250">
        <g
           id="g4237"
           transform="matrix(-1,0,0,1,1.068382,0)">
          <g
             id="g4239">
            <g
               id="g4241">
              <g
                 id="g4278">
                <path
                   transform="matrix(-1,0,0,1,1.0683793,2.7240533e-6)"
                   sodipodi:nodetypes="cccccc"
                   inkscape:connector-curvature="0"
                   id="path4168"
                   d="m -48.217872,-49.546847 c -8.548148,-5.107525 -40.94122,-7.776329 -44.979336,-32.174549 -0.981272,-10.626011 -3.079468,-20.233804 -18.889342,-24.996624 -20.1522,-5.28641 -27.21572,-11.21458 -28.89658,-24.50671 -2.07338,-10.91724 -6.53273,-22.22889 -22.52495,-26.72722 -37.60744,-5.8104 -20.34186,-27.22713 -35.24261,-42.61618"
                   style="opacity:1;fill:none;fill-rule:evenodd;stroke:#000000;stroke-width:18.08099937;stroke-linecap:butt;stroke-linejoin:miter;stroke-miterlimit:8;stroke-dasharray:none;stroke-opacity:1" />
                <path
                   transform="matrix(-1,0,0,1,1.0683793,2.7240533e-6)"
                   style="opacity:1;fill:none;fill-rule:evenodd;stroke:#000000;stroke-width:18.08099937;stroke-linecap:butt;stroke-linejoin:miter;stroke-miterlimit:8;stroke-dasharray:none;stroke-opacity:1"
                   d="m -71.562203,-33.638206 c -8.548148,-5.107525 -42.102637,7.418478 -46.140747,-16.979742 -0.98127,-10.626011 -3.07947,-20.233801 -18.88934,-24.996621 -20.1522,-5.28641 -27.21572,-11.214584 -28.89658,-24.506711 -2.07338,-10.91724 -6.53273,-22.22889 -22.52495,-26.72722 -37.60744,-5.8104 -20.34186,-27.22713 -35.24261,-42.61618"
                   id="path4185"
                   inkscape:connector-curvature="0"
                   sodipodi:nodetypes="cccccc" />
                <path
                   sodipodi:nodetypes="cccccc"
                   inkscape:connector-curvature="0"
                   id="path4187"
                   d="m -31.975998,-82.649699 c -8.548148,-5.107525 -27.964704,-0.121752 -32.00282,-24.519971 -0.981272,-10.62601 -3.079468,-20.23381 -18.889342,-24.99663 -20.1522,-5.28641 -27.21572,-11.21458 -28.89658,-24.50671 -2.07338,-10.91724 -6.53273,-22.22889 -22.52495,-26.72722 -37.60744,-5.8104 -18.92807,-26.2846 -33.82882,-41.67365"
                   style="opacity:1;fill:none;fill-rule:evenodd;stroke:#000000;stroke-width:18.08099937;stroke-linecap:butt;stroke-linejoin:miter;stroke-miterlimit:8;stroke-dasharray:none;stroke-opacity:1"
                   transform="matrix(-1,0,0,1,1.0683793,2.7240533e-6)" />
                <path
                   sodipodi:nodetypes="cccccc"
                   inkscape:connector-curvature="0"
                   id="path4243"
                   d="m -47.884638,-50.879784 c -8.548148,-5.107525 -41.274454,-6.443392 -45.31257,-30.841612 -0.981272,-10.626011 -3.079468,-20.233804 -18.889342,-24.996624 -20.1522,-5.28641 -27.21572,-11.21458 -28.89658,-24.50671 -2.07338,-10.91724 -6.53273,-22.22889 -22.52495,-26.72722 -37.60744,-5.8104 -19.39933,-25.81334 -34.30008,-41.20239"
                   style="opacity:1;fill:none;fill-rule:evenodd;stroke:#000000;stroke-width:18.08099937;stroke-linecap:butt;stroke-linejoin:miter;stroke-miterlimit:8;stroke-dasharray:none;stroke-opacity:1" />
                <path
                   style="opacity:1;fill:none;fill-rule:evenodd;stroke:#000000;stroke-width:18.08099937;stroke-linecap:butt;stroke-linejoin:miter;stroke-miterlimit:8;stroke-dasharray:none;stroke-opacity:1"
                   d="m -71.562203,-33.638206 c -8.548148,-5.107525 -42.102637,7.418478 -46.140747,-16.979742 -0.98127,-10.626011 -3.07947,-20.233801 -18.88934,-24.996621 -20.1522,-5.28641 -27.21572,-11.214584 -28.89658,-24.506711 -2.07338,-10.91724 -6.53273,-22.22889 -22.52495,-26.72722 -37.60744,-5.8104 -20.34186,-27.22713 -35.24261,-42.61618"
                   id="path4245"
                   inkscape:connector-curvature="0"
                   sodipodi:nodetypes="cccccc" />
                <path
                   style="opacity:1;fill:none;fill-rule:evenodd;stroke:#000000;stroke-width:18.08099937;stroke-linecap:butt;stroke-linejoin:miter;stroke-miterlimit:8;stroke-dasharray:none;stroke-opacity:1"
                   d="m -31.975998,-82.649699 c -8.548148,-5.107525 -27.964704,-0.121752 -32.00282,-24.519971 -0.981272,-10.62601 -3.079468,-20.23381 -18.889342,-24.99663 -20.1522,-5.28641 -27.21572,-11.21458 -28.89658,-24.50671 -2.07338,-10.91724 -6.53273,-22.22889 -22.52495,-26.72722 -37.60744,-5.8104 -17.98554,-27.22713 -32.88629,-42.61618"
                   id="path4247"
                   inkscape:connector-curvature="0"
                   sodipodi:nodetypes="cccccc" />
              </g>
              <g
                 transform="matrix(1,0,0,-1,0,-0.61983656)"
                 id="g4286">
                <path
                   style="opacity:1;fill:none;fill-rule:evenodd;stroke:#000000;stroke-width:18.08099937;stroke-linecap:butt;stroke-linejoin:miter;stroke-miterlimit:8;stroke-dasharray:none;stroke-opacity:1"
                   d="m -48.551106,-50.546549 c -8.548148,-5.107525 -40.607986,-6.776627 -44.646102,-31.174847 -0.981272,-10.626011 -3.079468,-20.233804 -18.889342,-24.996624 -20.1522,-5.28641 -27.21572,-11.21458 -28.89658,-24.50671 -2.07338,-10.91724 -6.53273,-22.22889 -22.52495,-26.72722 -37.60744,-5.8104 -20.34186,-27.22713 -35.24261,-42.61618"
                   id="path4288"
                   inkscape:connector-curvature="0"
                   sodipodi:nodetypes="cccccc"
                   transform="matrix(-1,0,0,1,1.0683793,2.7240533e-6)" />
                <path
                   sodipodi:nodetypes="cccccc"
                   inkscape:connector-curvature="0"
                   id="path4290"
                   d="m -71.562203,-33.638206 c -8.548148,-5.107525 -42.102637,7.418478 -46.140747,-16.979742 -0.98127,-10.626011 -3.07947,-20.233801 -18.88934,-24.996621 -20.1522,-5.28641 -27.21572,-11.214584 -28.89658,-24.506711 -2.07338,-10.91724 -6.53273,-22.22889 -22.52495,-26.72722 -37.60744,-5.8104 -20.34186,-27.22713 -35.24261,-42.61618"
                   style="opacity:1;fill:none;fill-rule:evenodd;stroke:#000000;stroke-width:18.08099937;stroke-linecap:butt;stroke-linejoin:miter;stroke-miterlimit:8;stroke-dasharray:none;stroke-opacity:1"
                   transform="matrix(-1,0,0,1,1.0683793,2.7240533e-6)" />
                <path
                   transform="matrix(-1,0,0,1,1.0683793,2.7240533e-6)"
                   style="opacity:1;fill:none;fill-rule:evenodd;stroke:#000000;stroke-width:18.08099937;stroke-linecap:butt;stroke-linejoin:miter;stroke-miterlimit:8;stroke-dasharray:none;stroke-opacity:1"
                   d="m -31.975998,-82.649699 c -8.548148,-5.107525 -27.964704,-0.121752 -32.00282,-24.519971 -0.981272,-10.62601 -3.079468,-20.23381 -18.889342,-24.99663 -20.1522,-5.28641 -27.21572,-11.21458 -28.89658,-24.50671 -2.07338,-10.91724 -6.53273,-22.22889 -22.52495,-26.72722 -37.60744,-5.8104 -18.92807,-26.2846 -33.82882,-41.67365"
                   id="path4292"
                   inkscape:connector-curvature="0"
                   sodipodi:nodetypes="cccccc" />
                <path
                   style="opacity:1;fill:none;fill-rule:evenodd;stroke:#000000;stroke-width:18.08099937;stroke-linecap:butt;stroke-linejoin:miter;stroke-miterlimit:8;stroke-dasharray:none;stroke-opacity:1"
                   d="m -47.884638,-49.880081 c -8.548148,-5.107525 -41.274454,-7.443095 -45.31257,-31.841315 -0.981272,-10.626011 -3.079468,-20.233804 -18.889342,-24.996624 -20.1522,-5.28641 -27.21572,-11.21458 -28.89658,-24.50671 -2.07338,-10.91724 -6.53273,-22.22889 -22.52495,-26.72722 -37.60744,-5.8104 -19.39933,-25.81334 -34.30008,-41.20239"
                   id="path4294"
                   inkscape:connector-curvature="0"
                   sodipodi:nodetypes="cccccc" />
                <path
                   sodipodi:nodetypes="cccccc"
                   inkscape:connector-curvature="0"
                   id="path4296"
                   d="m -71.562203,-33.638206 c -8.548148,-5.107525 -42.102637,7.418478 -46.140747,-16.979742 -0.98127,-10.626011 -3.07947,-20.233801 -18.88934,-24.996621 -20.1522,-5.28641 -27.21572,-11.214584 -28.89658,-24.506711 -2.07338,-10.91724 -6.53273,-22.22889 -22.52495,-26.72722 -37.60744,-5.8104 -20.34186,-27.22713 -35.24261,-42.61618"
                   style="opacity:1;fill:none;fill-rule:evenodd;stroke:#000000;stroke-width:18.08099937;stroke-linecap:butt;stroke-linejoin:miter;stroke-miterlimit:8;stroke-dasharray:none;stroke-opacity:1" />
                <path
                   sodipodi:nodetypes="cccccc"
                   inkscape:connector-curvature="0"
                   id="path4298"
                   d="m -31.975998,-82.649699 c -8.548148,-5.107525 -27.964704,-0.121752 -32.00282,-24.519971 -0.981272,-10.62601 -3.079468,-20.23381 -18.889342,-24.99663 -20.1522,-5.28641 -27.21572,-11.21458 -28.89658,-24.50671 -2.07338,-10.91724 -6.53273,-22.22889 -22.52495,-26.72722 -37.60744,-5.8104 -17.98554,-27.22713 -32.88629,-42.61618"
                   style="opacity:1;fill:none;fill-rule:evenodd;stroke:#000000;stroke-width:18.08099937;stroke-linecap:butt;stroke-linejoin:miter;stroke-miterlimit:8;stroke-dasharray:none;stroke-opacity:1" />
              </g>
            </g>
          </g>
        </g>
      </g>
    </g>
  </g>
</svg>
