<svg xmlns="http://www.w3.org/2000/svg" width="1200" height="600" version="1"><path style="marker:none" overflow="visible" d="M 0,0 H 1200 V 600 H 0 Z" fill-rule="evenodd"/><path style="marker:none" overflow="visible" d="M 0,200 H 1200 V 600 H 0 Z" fill="#bf0000" fill-rule="evenodd"/><path d="m 331.655,187.23667 a 38.75,38.75 0 0 1 -38.75,38.75 38.75,38.75 0 0 1 -38.75,-38.75 38.75,38.75 0 0 1 38.75,-38.75 38.75,38.75 0 0 1 38.75,38.75 z" style="marker:none" overflow="visible" fill="#b9b8ac" fill-rule="evenodd"/><path d="M 307.01333,113.16167 278.795,273.195 M 325.38833,103.93 260.42167,282.42667 M 333.53,122.81167 252.28,263.545 M 355.14667,140.95 230.66333,245.40667 m 155.77334,-68.72 -187.065,32.98333 m 169.885,-44.28167 -152.70334,55.58 M 375.155,145.69 210.65333,240.66667 m 143.3,-120.24334 -122.09833,145.51 m 61.05,-167.73 v 173.28334 m -32.485,-167.555 64.96667,178.495 M 278.795,113.16167 307.01333,273.195 M 231.855,120.42333 l 122.09833,145.51 M 252.27833,122.81167 333.53,263.545 M 210.65333,145.69 375.155,240.66667 M 230.66167,140.95 l 124.485,104.45667 m -138.59334,-80.01834 152.70334,55.58 m -169.885,-44.28166 187.065,32.98333" fill="none" stroke="#fecb00" stroke-width="5"/><path d="M 351.00833,214.32667 A 61.833333,61.833333 0 0 1 271.75667,251.28333 61.833333,61.833333 0 0 1 234.8,172.03 a 61.833333,61.833333 0 0 1 79.25167,-36.955 61.833333,61.833333 0 0 1 36.95666,79.25167 z" style="marker:none" overflow="visible" fill="#fff" fill-rule="evenodd" stroke="#fecb00" stroke-width="5.001"/><path d="m 292.91667,181.95833 c -35.92,0 -69.075,6.615 -95.83334,17.70834 6.10834,47.49166 46.68667,84.21833 95.83334,84.21833 49.14666,0 89.725,-36.72667 95.83333,-84.21833 -26.75833,-11.09334 -59.91167,-17.70834 -95.83333,-17.70834 z" style="marker:none" overflow="visible" fill="#090" fill-rule="evenodd" stroke="#000" stroke-width=".833"/><path d="m 241.51,100.5 c -29.59333,17.58667 -49.42667,49.84333 -49.42667,86.71667 0,6.82666 0.68334,13.49833 1.98,19.94833 l 4.21667,-4.89667 a 96.33,96.33 0 0 1 -1.19667,-15.05166 c 0,-35.70334 19.54,-66.795 48.49,-83.28167 L 241.51,100.49833 Z m 102.81333,0.0517 -4.06333,3.385 c 28.95,16.48666 48.49,47.57833 48.49,83.28166 0,5.12667 -0.42333,10.14334 -1.19833,15.05167 l 4.21833,4.89667 a 101.10833,101.10833 0 0 0 1.98,-19.94834 c 0,-36.85 -19.86667,-69.07166 -49.42667,-86.66666 z m -135.73,132.18666 -2.03166,1.61667 -0.52,4.00833 c 16.45166,27.89331 45.90833,47.22664 80,49.53331 v -5.105 c -33.525,-2.38 -62.27167,-22.00167 -77.44834,-50.05334 z m 168.64667,0 c -15.18333,28.06664 -43.95333,47.68997 -77.5,50.05331 v 5.10333 c 34.08833,-2.28667 63.53333,-21.60333 80,-49.47833 l -0.46833,-4.06334 -2.03334,-1.615 z m 68.75,-63.75 c 0.705,5.98334 1.09333,12.05834 1.09333,18.23 a 154.43333,154.43333 0 0 1 -4.01,35.05167 l 5.83334,-3.28167 a 159.35667,159.35667 0 0 0 3.17666,-31.77 c 0,-5.615 -0.31666,-11.15 -0.885,-16.615 z m -306.19833,0.0533 -5.15667,1.56167 c -0.56667,5.46667 -0.885,11 -0.885,16.615 0,10.88667 1.09,21.49667 3.17667,31.77 l 5.78166,3.23 a 154.30833,154.30833 0 0 1 -4.01,-35 c 0,-6.15333 0.39167,-12.21167 1.09334,-18.17667 z m 8.28166,84.16667 c 12.80834,28.03 33.52,51.70167 59.27,68.17667 l -1.92666,-2.96834 -6.71834,-7.70833 0.99,-0.73 c -18.87666,-14.365 -34.36666,-32.94 -45,-54.375 l -6.61666,-2.395 z m 289.68667,0 -6.66667,2.395 C 420.47,277.03167 405.005,295.615 386.145,309.97833 l 0.99,0.73 -6.71833,7.70834 -1.92667,2.96833 c 25.75,-16.475 46.46167,-40.14667 59.27,-68.17667 z M 240,332.06167 l -5.625,3.17666 c 15.175,6.01834 31.50333,9.72 48.54167,10.78334 v -3.595 H 289.375 V 341.385 A 153.39667,153.39667 0 0 1 240,332.06167 Z m 105.78167,0 a 153.35,153.35 0 0 1 -49.32334,9.32333 v 1.04167 h 5.885 v 3.645 a 158.17333,158.17333 0 0 0 49.06334,-10.83334 z" style="marker:none" overflow="visible" fill="#fecb00" fill-rule="evenodd" stroke="#000" stroke-width=".833"/><path d="m 145.05167,167.375 -5.26,1.66667 A 155.64167,155.64167 0 0 0 138.69833,187.27 c 0,12.02167 1.4,23.71667 4.01,34.94833 l 5.20834,2.91667 0.46833,-0.73 c -3.04,-11.86333 -4.635,-24.32167 -4.635,-37.13333 0,-6.74334 0.435,-13.39167 1.30167,-19.89667 z m 295.67666,0 c 0.86667,6.505 1.30334,13.15333 1.30334,19.895 0,12.795 -1.60667,25.23333 -4.635,37.08333 l 0.52,0.78167 5.15666,-2.865 A 154.29,154.29 0 0 0 445.99,168.98833 l -5.26,-1.61333 z m -286.04,88.22833 c 10.63834,21.41834 26.12167,40.01834 45,54.375 L 203.855,306.905 a 149.89667,149.89667 0 0 1 -42.18833,-48.75 l -6.98,-2.55 z m 276.40667,0 -6.92667,2.55167 A 149.80667,149.80667 0 0 1 381.98,306.905 l 4.16667,3.07333 a 155.03333,155.03333 0 0 0 44.95,-54.375 z m -185.72833,73.02167 0.10333,0.36333 -5.41667,3.07334 a 153.76167,153.76167 0 0 0 49.32334,9.27166 v -5 a 148.715,148.715 0 0 1 -44.01,-7.70833 z m 95.05166,0.0517 c -13.86,4.65 -28.61666,7.3 -43.95833,7.65667 v 4.99999 a 153.715,153.715 0 0 0 49.27167,-9.27166 l -5.41667,-3.07334 z" style="marker:none" overflow="visible" fill="#fecb00" fill-rule="evenodd" stroke="#000" stroke-width=".833"/><path d="m 150.365,165.76 -5.31333,1.615 a 149.75167,149.75167 0 0 0 -1.30167,19.84333 149.01667,149.01667 0 0 0 4.68833,37.18667 l 3.8,-5.67667 a 144.56,144.56 0 0 1 -3.48833,-31.51 c 0,-7.30166 0.56667,-14.44833 1.615,-21.45833 z m 285.10333,0 c 1.05,7.01 1.615,14.15667 1.615,21.45833 0,10.84334 -1.22,21.40334 -3.49,31.56167 l 3.80167,5.625 a 149.01667,149.01667 0 0 0 4.68833,-37.18667 c 0,-6.73833 -0.43333,-13.34166 -1.30166,-19.84333 z m -271.40666,86.19833 -2.395,6.19667 a 149.995,149.995 0 0 0 42.18833,48.75 l 0.67667,-0.52 -0.625,-5.78167 c -16.595,-13.04333 -30.27,-29.63 -39.84334,-48.645 z M 421.71833,252.01 A 144.94,144.94 0 0 1 381.875,300.655 l -0.625,5.73 0.625,0.46833 c 17.36667,-12.945 31.85,-29.535 42.24,-48.69833 z m -177.76,70.83333 1.40667,5.78167 a 148.55833,148.55833 0 0 0 44.01,7.70833 v -5 a 143.70833,143.70833 0 0 1 -45.41667,-8.49 z m 97.865,0.0517 c -14.21666,5.12834 -29.475,8.055 -45.365,8.43834 v 5 a 148.48333,148.48333 0 0 0 43.95834,-7.70834 z" style="marker:none" overflow="visible" fill="#fecb00" fill-rule="evenodd" stroke="#000" stroke-width=".833"/><path d="m 155.67667,164.145 -5.365,1.615 a 144.26167,144.26167 0 0 0 1.875,53.07333 l 3.96,-5.88666 A 139.77333,139.77333 0 0 1 153.75,187.27 c 0,-7.87667 0.67,-15.605 1.92667,-23.125 z m 274.48,0 c 1.25666,7.52 1.875,15.24833 1.875,23.125 0,8.77667 -0.84334,17.35167 -2.39667,25.67667 l 3.95833,5.83333 a 144.34,144.34 0 0 0 3.49,-31.51 c 0,-7.31333 -0.56,-14.48667 -1.615,-21.51 z m -263.59334,81.40667 -2.5,6.45833 c 9.57834,18.97333 23.26667,35.51333 39.84334,48.54167 l -0.73,-7.03167 c -15.43834,-13.06667 -28.02834,-29.39 -36.615,-47.96833 z m 252.655,0.0517 a 139.78167,139.78167 0 0 1 -36.56166,47.96834 L 381.875,300.605 c 16.59,-13.03667 30.26,-29.6 39.84333,-48.595 z M 242.55167,317.01 244.01,322.84333 a 143.63667,143.63667 0 0 0 45.365,8.49 V 330.5 h -5.885 v -4.375 a 138.28667,138.28667 0 0 1 -40.93833,-9.115 z m 100.67666,0.0517 a 138.36333,138.36333 0 0 1 -41.45833,9.115 V 330.5 h -5.31167 v 0.83333 a 143.385,143.385 0 0 0 45.365,-8.49 l 1.40667,-5.78166 z" style="marker:none" overflow="visible" fill="#fecb00" fill-rule="evenodd" stroke="#000" stroke-width=".833"/><g transform="scale(1.6666667)" fill-rule="evenodd" stroke="#000" stroke-width=".5"><path d="m 143.438,192.268 c -6.77,1.513 -13.806,3.405 -19.907,5.5 l 1.313,3.75 c 5.825,-2 12.595,-3.789 19.094,-5.25 z" fill="#090"/><path d="m 142.969,188.393 c -7.031,1.54 -14.261,3.516 -20.594,5.657 l 1.281,3.781 c 6.062,-2.049 13.012,-3.946 19.781,-5.438 z" fill="#bf0000"/><path d="m 142.469,184.393 c -7.468,1.592 -14.69,3.507 -21.406,5.72 l 1.25,3.78 c 6.457,-2.127 13.433,-3.987 20.656,-5.53 z"/></g><path d="m 271.09333,52.32167 c -60.455,9.71666 -107.665,59.13666 -114.06166,120.625 l 4.68666,3.90666 C 166.445,116.17333 212.26,67.045 271.40667,57.32167 Z m 43.64667,0 -0.31333,5 c 59.125,9.725 104.93833,58.82666 109.68833,119.48 l 4.68667,-3.90667 C 422.38167,111.44 375.16167,62.04833 314.74,52.32167 Z" style="marker:none" overflow="visible" fill="#fecb00" fill-rule="evenodd" stroke="#000" stroke-width=".833"/><path d="M 271.40667,57.32167 C 212.295,67.05667 166.44833,116.21333 161.71833,176.855 l 4.375,3.645 0.365,-0.26167 C 169.705,120.65667 214.125,72.06167 271.77167,62.375 L 271.405,57.32167 Z m 43.02,0 -0.365,5.05333 c 57.63,9.7 102.06666,58.29333 105.31333,117.86333 l 0.31333,0.26167 4.42667,-3.69833 C 419.345,116.215 373.49167,67.06833 314.42667,57.32167 Z" style="marker:none" overflow="visible" fill="#fecb00" fill-rule="evenodd" stroke="#000" stroke-width=".833"/><path d="m 271.77167,62.375 c -57.6,9.70833 -102.06334,58.33333 -105.31334,117.86333 l 5.26,-3.75 c 4.82334,-55.21666 46.54334,-99.825 100.365,-109.11333 l -0.31333,-5 z m 42.29166,0 -0.31333,5 c 53.80667,9.3 95.54,53.90667 100.365,109.11333 l 5.26,3.75 c -3.25,-59.53 -47.71333,-108.155 -105.31333,-117.86333 z" style="marker:none" overflow="visible" fill="#fecb00" fill-rule="evenodd" stroke="#000" stroke-width=".833"/><path d="m 272.08333,67.375 c -53.79166,9.295 -95.53666,53.935 -100.365,109.11333 l 5.46834,-3.905 C 183.545,121.82333 222.495,81.21667 272.44833,72.375 Z m 41.66667,0 -0.365,5.05167 c 49.955,8.85666 88.92167,49.44166 95.26,100.20833 l 5.47,3.85333 C 409.28333,121.325 367.51833,76.68833 313.75,67.375 Z m -137.39667,114.47833 -0.05,0.26 h 0.05 c 0.005,-0.085 -0.003,-0.17333 0,-0.26 z" style="marker:none" overflow="visible" fill="#fecb00" fill-rule="evenodd" stroke="#000" stroke-width=".833"/><path d="m 229.48,90.34333 c -31.54333,20.71667 -52.45,56.375 -52.45,96.875 0,6.5 0.58333,12.85 1.61667,19.06167 l 5.46666,2.13667 a 111.385,111.385 0 0 1 -2.03,-21.19834 c 0,-39.34166 20.51167,-73.82666 51.40667,-93.49 z m 126.875,0 -4.01167,3.385 c 30.875,19.66667 51.355,54.165 51.355,93.49 0,7.25 -0.70333,14.33667 -2.03166,21.19834 l 5.46833,-2.08334 c 1.03833,-6.22833 1.615,-12.59666 1.615,-19.115 0,-40.5 -20.85333,-76.16 -52.39667,-96.875 z M 199.42667,246.69667 193.645,246.905 c 20.3,33.65 57.18,56.2 99.27167,56.2 42.09333,0 78.98833,-22.54833 99.27166,-56.2 L 386.355,246.69667 C 367.235,276.7 334.09667,296.90333 296.14667,298 v 0.36333 h -6.45834 V 298 C 251.735,296.90333 218.56,276.7 199.42667,246.69667 Z" style="marker:none" overflow="visible" fill="#fecb00" fill-rule="evenodd" stroke="#000" stroke-width=".833"/><path d="m 233.49,93.72833 c -30.88333,19.695 -51.40667,54.205 -51.40667,93.49 0,7.24334 0.7,14.33834 2.03167,21.19834 l 5.57333,2.135 a 106.25167,106.25167 0 0 1 -2.605,-23.33334 c 0,-38.115 20.17834,-71.48 50.41667,-90.105 L 233.49,93.73 Z m 118.85333,0 -3.95833,3.385 c 30.21667,18.62667 50.365,51.99334 50.365,90.105 0,8.015 -0.91667,15.82834 -2.605,23.33334 l 5.57333,-2.135 A 111.315,111.315 0 0 0 403.75,187.21833 c 0,-39.28333 -20.54167,-73.795 -51.40667,-93.49 z m -147.24,152.55167 -0.05,0.20833 -5.62666,0.20834 c 19.145,30.025 52.335,50.25833 90.26,51.355 V 293 c -35.24167,-1.05 -66.13,-19.34167 -84.58334,-46.72 z M 380.73,246.33333 C 362.27333,273.69167 331.375,291.95 296.14667,293 v 5.05167 c 37.925,-1.09667 71.11666,-21.33 90.26,-51.355 L 380.73,246.48833 Z" style="marker:none" overflow="visible" fill="#fecb00" fill-rule="evenodd" stroke="#000" stroke-width=".833"/><path d="m 237.44833,97.11333 c -30.2,18.66167 -50.365,52.055 -50.365,90.105 0,8.01667 0.91,15.82167 2.605,23.33334 l 1.145,0.41666 3.23,-3.80166 a 101.17667,101.17667 0 0 1 -1.98,-19.94834 c 0,-36.91166 19.825,-69.155 49.42667,-86.71833 z m 110.93667,0 -4.06167,3.38667 c 29.58334,17.56333 49.42667,49.80667 49.42667,86.71833 0,6.83334 -0.68333,13.495 -1.98,19.94834 l 3.23,3.8 1.14667,-0.41667 A 105.91667,105.91667 0 0 0 398.75,187.21667 c 0,-38.05334 -20.17833,-71.445 -50.365,-90.105 z M 206.04167,238.41667 205.10333,246.28 c 18.465,27.395 49.37167,45.71833 84.58334,46.77167 v -3.69834 h -3.645 v -1.51 c -34.1,-2.29833 -63.55334,-21.57833 -80,-49.42666 z m 173.69833,0.0517 c -16.46333,27.83167 -45.90167,47.095 -80,49.375 v 1.51 h -3.59333 v 3.69834 C 331.325,291.985 362.27,273.695 380.73,246.33333 Z" style="marker:none" overflow="visible" fill="#fecb00" fill-rule="evenodd" stroke="#000" stroke-width=".833"/><g transform="scale(1.6666667)" stroke="#fecb00" stroke-width="2"><path style="marker:none" d="m 168.33,122.282 c 1.69,-2.285 7.581,-8.44 7.581,-8.44 0,0 5.89,6.155 7.582,8.44 1.26,1.703 4.757,4.73 4.757,8.95 v 27.432 h -25 v -27.432 c 0,-4.22 3.82,-7.247 5.08,-8.95 z" overflow="visible" fill="#fff" fill-rule="evenodd"/><path style="marker:none" d="m 171.343,131.003 c 1.106,-1.521 4.569,-5.95 4.569,-5.95 0,0 3.452,4.474 4.558,5.995 0.824,1.133 1.808,2.04 1.808,4.85 v 18.795 h -13.056 v -18.796 c 0,-2.81 1.297,-3.76 2.121,-4.894 z" overflow="visible" fill="#fff" fill-rule="evenodd"/><path d="m 169.75,148.831 h 4 v -4 h 4 v -4 h 4" fill="none"/></g><path d="m 174.38,163.255 c -2.50333,0.21333 -5.08333,2.32 -5.76167,4.70167 l -1.22833,4.315 4.53333,-0.38834 c 2.505,-0.21333 5.085,-2.32 5.76334,-4.7 l 1.22666,-4.31666 z m -1.21667,9.17 c -2.50833,0.13833 -5.15333,2.16667 -5.9,4.525 l -1.35833,4.275 4.54333,-0.25 c 2.50834,-0.13833 5.15167,-2.16667 5.9,-4.525 l 1.35834,-4.27667 -4.54334,0.25 z m 3.55834,-17.68833 c -2.51167,-0.07 -5.315,1.73 -6.25667,4.02 l -1.70667,4.14833 4.54834,0.12667 c 2.51166,0.0717 5.31333,-1.73 6.25666,-4.02 l 1.70667,-4.14667 -4.55,-0.12833 z" style="marker:none" overflow="visible" fill="#fecb00" fill-rule="evenodd" stroke="#000" stroke-width=".833"/><path d="m 179.46167,146.65 c -2.50834,-0.14333 -5.36167,1.575 -6.37167,3.83667 l -1.82667,4.09666 4.54334,0.26 c 2.50833,0.14334 5.36166,-1.575 6.37166,-3.83666 L 184.005,146.91 Z m 2.77166,-8.195 c -2.5,-0.25333 -5.42833,1.33833 -6.535,3.55167 l -2.00666,4.01166 4.52833,0.46167 c 2.5,0.25333 5.42667,-1.33833 6.53333,-3.55333 l 2.00667,-4.01167 -4.52833,-0.46 z m 4.65667,-8.10167 c -2.44167,-0.59333 -5.55833,0.58 -6.96,2.62167 l -2.53833,3.69833 4.42166,1.07834 c 2.44,0.59333 5.55834,-0.58 6.96,-2.62167 l 2.53667,-3.69833 z m 4.80833,-7.685 c -2.34666,-0.89666 -5.58666,-0.125 -7.23333,1.72334 l -2.985,3.35 4.25,1.625 c 2.345,0.89833 5.58667,0.12666 7.23333,-1.72167 l 2.98334,-3.35 -4.25,-1.62667 z m 4.725,-7.27166 c -2.35666,-0.87 -5.58833,-0.0617 -7.21333,1.805 l -2.94667,3.38333 4.27,1.57833 c 2.355,0.87 5.58834,0.0617 7.21334,-1.80666 l 2.945,-3.38334 -4.26667,-1.57666 z m 5.28834,-7.09334 c -2.325,-0.95 -5.58334,-0.24666 -7.26834,1.56667 l -3.05666,3.28333 4.215,1.71667 c 2.325,0.95 5.58333,0.24667 7.27,-1.56667 l 3.055,-3.28333 z" style="marker:none" overflow="visible" fill="#fecb00" fill-rule="evenodd" stroke="#000" stroke-width=".833"/><path d="m 199.04333,99.155 c -2.41333,0.69667 -4.53333,3.26667 -4.73666,5.73333 l -0.36334,4.47167 4.37167,-1.26333 c 2.41333,-0.69667 4.535,-3.265 4.73667,-5.73334 l 0.365,-4.47 z" style="marker:none" overflow="visible" fill="#fecb00" fill-rule="evenodd" stroke="#000" stroke-width=".833"/><path d="m 192.95333,101.61 c 1.49334,2.02 1.61834,5.35 0.27834,7.43167 l -2.42667,3.77166 -2.705,-3.66 c -1.49333,-2.02 -1.61833,-5.35 -0.27833,-7.43 L 190.24833,97.95 Z m -6.3,6.82833 c 1.65667,1.88667 2.05834,5.195 0.89834,7.38167 l -2.10334,3.96167 -3.00166,-3.42 c -1.65834,-1.88834 -2.06,-5.195 -0.9,-7.38334 l 2.105,-3.96166 3,3.42166 z m -5.55666,7.65667 c 1.89666,1.65 2.74,4.87167 1.88333,7.195 l -1.55,4.20833 -3.43667,-2.985 c -1.895,-1.65 -2.73833,-4.87166 -1.88333,-7.195 l 1.55333,-4.20833 z m -5.80334,8.62167 c 2.045,1.45833 3.195,4.58333 2.56667,6.98 l -1.13833,4.33833 -3.70667,-2.64 c -2.045,-1.45833 -3.19667,-4.585 -2.56667,-6.98 l 1.13834,-4.33833 z m -3.725,9.24166 c 2.09667,1.38334 3.35834,4.46834 2.815,6.88334 l -0.98333,4.37666 -3.8,-2.50666 c -2.095,-1.38334 -3.355,-4.46667 -2.81333,-6.88334 l 0.98333,-4.37666 3.8,2.50666 z m -4.025,9.745 c 2.33167,0.93334 4.18667,3.70167 4.14,6.17834 l -0.0833,4.48333 -4.225,-1.69167 c -2.33333,-0.93333 -4.18667,-3.70166 -4.14,-6.17833 l 0.0833,-4.48333 z" style="marker:none" overflow="visible" fill="#fecb00" fill-rule="evenodd" stroke="#000" stroke-width=".833"/><path d="m 163.78667,152.44 c 2.16833,0.51833 4.15333,3.01667 4.43333,5.575 l 0.50333,4.63333 -3.92666,-0.94 c -2.16667,-0.52 -4.15334,-3.01666 -4.43334,-5.57666 L 159.86,151.49833 Z m -2.51667,9.51 c 2.21333,0.26833 4.47,2.525 5.03667,5.03333 l 1.02833,4.54834 -4.01,-0.49 c -2.21167,-0.27 -4.46833,-2.525 -5.03667,-5.035 l -1.02666,-4.54667 4.00833,0.48833 z m -1.52,9.77667 c 2.22333,0.17666 4.57333,2.335 5.24667,4.82 l 1.21666,4.5 -4.025,-0.32167 c -2.22166,-0.17667 -4.57166,-2.335 -5.245,-4.81833 l -1.21666,-4.5 4.025,0.32 z" style="marker:none" overflow="visible" fill="#fecb00" fill-rule="evenodd" stroke="#000" stroke-width=".803"/><g transform="scale(1.6666667)" fill-rule="evenodd" stroke="#000" stroke-width=".5"><path d="m 208.048,192.268 c 6.769,1.513 13.805,3.405 19.906,5.5 l -1.313,3.75 c -5.825,-2 -12.594,-3.789 -19.093,-5.25 z" fill="#090"/><path d="m 209.016,184.393 c 7.469,1.592 14.69,3.507 21.407,5.72 l -1.25,3.78 c -6.458,-2.127 -13.434,-3.987 -20.657,-5.53 z"/><path d="m 208.516,188.393 c 7.031,1.54 14.261,3.516 20.594,5.657 l -1.281,3.781 c -6.062,-2.049 -13.012,-3.946 -19.781,-5.438 z" fill="#bf0000"/></g><path d="m 157.91667,182.47833 a 134.94667,134.94667 0 0 0 -0.105,4.74 c 0,3.21834 0.14166,6.42 0.36666,9.58334 l 8.38334,-1.09334 2.13666,16.35334 -8.33333,1.09333 a 133.57,133.57 0 0 0 4.94833,18.38667 l 7.76,-3.17834 6.30167,15.20834 -7.65667,3.17833 a 134.78333,134.78333 0 0 0 9.635,16.45833 l 6.51167,-5 10,13.07167 -6.40667,4.89667 A 136.075,136.075 0 0 0 205,289.51 l 4.84333,-6.30167 13.07334,10.05167 -4.79167,6.25 a 135.18167,135.18167 0 0 0 16.40667,9.32333 L 237.5,301.69667 252.76,308 l -2.91667,7.03 c 5.91167,1.99167 11.985,3.63 18.23,4.79167 l 0.99,-7.44667 16.3,2.18667 -0.93666,7.29166 a 136.71667,136.71667 0 0 0 8.49,0.26 c 3.46166,0 6.91666,-0.16 10.31333,-0.41666 l -0.93833,-7.13334 V 314.51 l 16.355,-2.135 0.93666,7.08333 c 6.17667,-1.24 12.18,-2.95 18.02167,-5 L 334.94833,308 l 15.20834,-6.30333 2.65666,6.40666 a 135.24,135.24 0 0 0 16.145,-9.42666 l -4.16666,-5.46834 13.07333,-10 4.115,5.31167 a 135.825,135.825 0 0 0 13.07167,-13.22833 l -5.26,-4.01167 10.05166,-13.07167 5.26,4.01 A 134.76167,134.76167 0 0 0 414.375,246.125 l -6.09333,-2.55333 6.35333,-15.20834 6.04167,2.5 A 133.74333,133.74333 0 0 0 425.52,212.89667 l -6.56167,-0.88667 2.18834,-16.30167 6.45833,0.83334 c 0.21,-3.08 0.36333,-6.19167 0.36333,-9.32334 0,-1.59333 0.003,-3.15833 -0.0517,-4.74 l -16.82334,1.45834 c 0.03,1.09666 0.105,2.17833 0.105,3.28166 0,65.57167 -53.02166,118.49 -118.28166,118.49 -65.26,0 -118.28167,-52.91833 -118.28167,-118.49 0,-1.10333 0.075,-2.185 0.105,-3.28166 z" style="marker:none" overflow="visible" fill="#0082d6" fill-rule="evenodd" stroke="#000" stroke-width=".833"/><path d="m 392.65333,184.125 c 2.465,0.48333 4.805,2.85333 5.22167,5.295 l 0.75667,4.42 -4.46667,-0.87167 c -2.46667,-0.48333 -4.805,-2.855 -5.22333,-5.295 l -0.755,-4.42166 z m -0.17,8.61833 c 2.40334,0.72834 4.49167,3.325 4.66,5.795 l 0.305,4.475 -4.355,-1.32 c -2.405,-0.72833 -4.49166,-3.325 -4.66,-5.795 l -0.30666,-4.475 4.355,1.32 z M 392.26667,175.515 c 2.50333,0.2 5.09666,2.29167 5.78666,4.67 l 1.25,4.30667 -4.535,-0.36167 c -2.50333,-0.2 -5.09666,-2.29167 -5.78833,-4.67 l -1.25,-4.30667 4.535,0.36167 z m -1.79334,-8.92 c 2.51,0.12667 5.16167,2.14167 5.92167,4.5 l 1.37667,4.26667 -4.545,-0.22834 c -2.50834,-0.12666 -5.16167,-2.14333 -5.92167,-4.5 l -1.37667,-4.26833 z m -2.165,-8.47833 c 2.51167,0.0167 5.25,1.915 6.11334,4.235 l 1.56333,4.205 -4.55,-0.03 c -2.51333,-0.0167 -5.25167,-1.91334 -6.115,-4.23334 l -1.56333,-4.205 4.55,0.03 z m -3.02666,-8.475 c 2.49,-0.32834 5.46333,1.175 6.63666,3.355 l 2.125,3.95 -4.51166,0.595 c -2.49,0.33 -5.46334,-1.17334 -6.63667,-3.35334 l -2.125,-3.95 z m -3.955,-8.15834 c 2.43,-0.63833 5.56833,0.47667 7.00666,2.49167 l 2.60667,3.65 -4.4,1.16 c -2.42833,0.64 -5.56667,-0.475 -7.00667,-2.49 l -2.60666,-3.65 4.4,-1.16 z M 377.41,133.74667 c 2.43667,-0.61167 5.56333,0.54 6.97833,2.57 l 2.565,3.68 -4.41333,1.11 c -2.43667,0.61166 -5.56333,-0.54 -6.97833,-2.57 l -2.565,-3.68 z m -4.49333,-7.62167 c 2.41333,-0.69333 5.57666,0.355 7.05833,2.33833 l 2.68333,3.59334 -4.37333,1.255 c -2.415,0.69166 -5.57667,-0.355 -7.06,-2.33834 l -2.68333,-3.59333 4.37333,-1.255 z" style="marker:none" overflow="visible" fill="#fecb00" fill-rule="evenodd" stroke="#000" stroke-width=".833"/><path d="m 376.55167,117.31667 c 2.325,0.95333 4.15833,3.73333 4.09333,6.21 l -0.11833,4.48333 -4.21167,-1.725 c -2.325,-0.95167 -4.15833,-3.73333 -4.09333,-6.20833 l 0.12,-4.48334 4.21,1.725 z" style="marker:none" overflow="visible" fill="#fecb00" fill-rule="evenodd" stroke="#000" stroke-width=".833"/><path d="M 382.34333,120.41167 C 380.64,122.26 380.16,125.55667 381.26667,127.77 l 2.00833,4.01167 3.08333,-3.34667 c 1.7,-1.84833 2.18334,-5.145 1.075,-7.35833 l -2.00666,-4.01167 z m 5.53,7.46666 c -1.85,1.7 -2.60666,4.94334 -1.68666,7.24334 l 1.665,4.165 3.35166,-3.07834 c 1.85,-1.7 2.60667,-4.94333 1.68667,-7.24333 l -1.665,-4.165 z m 4.7,8.21 c -2.06166,1.435 -3.24833,4.55 -2.64666,6.95 l 1.09,4.35167 3.73666,-2.6 c 2.06167,-1.43333 3.24667,-4.54667 2.645,-6.95 l -1.09,-4.35 -3.735,2.6 z m 4.84334,9.19667 c -2.19,1.23 -3.67,4.21333 -3.30334,6.66333 l 0.66667,4.435 3.96667,-2.22666 c 2.19166,-1.23 3.67166,-4.21334 3.305,-6.66334 l -0.66667,-4.435 -3.96667,2.22667 z m 2.36666,9.99667 c -2.23166,1.15 -3.81666,4.08 -3.53666,6.54166 l 0.50833,4.45667 4.045,-2.085 c 2.23333,-1.15 3.81667,-4.08167 3.53833,-6.54167 L 403.83,153.19667 399.785,155.28 Z m 3.265,10.00666 c -2.42,0.67834 -4.56166,3.23 -4.78166,5.69667 l -0.39834,4.46667 4.38334,-1.22834 c 2.41666,-0.67833 4.56,-3.23 4.78,-5.69666 L 407.43,164.06 l -4.38333,1.22833 z" style="marker:none" overflow="visible" fill="#fecb00" fill-rule="evenodd" stroke="#000" stroke-width=".833"/><path d="m 404.755,174.85 c -2.21167,0.285 -4.455,2.555 -5.00667,5.06667 l -1,4.555 4.005,-0.51334 c 2.21167,-0.28333 4.455,-2.55333 5.00667,-5.06666 l 1,-4.55334 -4.005,0.51334 z m 0.73167,9.79333 c -2.23,0.03 -4.71667,2.03167 -5.55,4.46667 l -1.51167,4.40833 4.03833,-0.055 c 2.23,-0.03 4.71667,-2.03 5.55,-4.465 l 1.51167,-4.41 z m -0.405,9.64334 c -2.22834,-0.0633 -4.79667,1.83 -5.73334,4.22666 l -1.695,4.34334 4.03667,0.115 c 2.22833,0.0633 4.79667,-1.83 5.73333,-4.22834 l 1.695,-4.34166 z" style="marker:none" overflow="visible" fill="#fecb00" fill-rule="evenodd" stroke="#000" stroke-width=".803"/><path d="m 411.43,163.255 c 2.50167,0.21333 5.08333,2.32 5.76,4.70167 l 1.22833,4.315 -4.53333,-0.38834 c -2.505,-0.21333 -5.085,-2.32 -5.76333,-4.7 l -1.22667,-4.31666 4.53333,0.38833 z m 1.21667,9.17 c 2.50833,0.13833 5.15,2.16667 5.9,4.525 l 1.35666,4.275 -4.54333,-0.25 c -2.50833,-0.13833 -5.15167,-2.16667 -5.9,-4.525 l -1.35833,-4.27667 4.545,0.25 z m -3.56,-17.68833 c 2.51166,-0.07 5.315,1.73 6.25666,4.02 l 1.70834,4.14833 -4.55,0.12667 c -2.51,0.0717 -5.31334,-1.73 -6.25667,-4.02 l -1.70667,-4.14667 4.55,-0.12833 z" style="marker:none" overflow="visible" fill="#fecb00" fill-rule="evenodd" stroke="#000" stroke-width=".833"/><path d="m 406.34667,146.65 c 2.50833,-0.14333 5.36166,1.575 6.37166,3.83667 l 1.82667,4.09666 -4.54333,0.26 c -2.50834,0.14334 -5.36167,-1.575 -6.37,-3.83666 L 401.80333,146.91 Z m -2.77,-8.195 c 2.5,-0.25333 5.42666,1.33833 6.53333,3.55167 l 2.00667,4.01166 -4.52834,0.46167 c -2.5,0.25333 -5.425,-1.33833 -6.53333,-3.55333 L 399.05,138.915 Z M 398.92,130.35333 c 2.44,-0.59333 5.55833,0.58 6.95833,2.62167 l 2.53834,3.69833 -4.42167,1.07834 c -2.44,0.59333 -5.55833,-0.58 -6.95833,-2.62167 l -2.53834,-3.69833 z m -4.81,-7.685 c 2.34667,-0.89666 5.58833,-0.125 7.235,1.72334 l 2.98333,3.35 -4.25,1.625 c -2.345,0.89833 -5.58666,0.12666 -7.23333,-1.72167 l -2.98333,-3.35 4.25,-1.62667 z m -4.725,-7.27166 c 2.35667,-0.87 5.58833,-0.0617 7.21333,1.805 l 2.94667,3.38333 -4.26833,1.57833 c -2.35667,0.87 -5.58834,0.0617 -7.215,-1.80666 l -2.945,-3.38334 z m -5.28833,-7.09334 c 2.325,-0.95 5.58333,-0.24666 7.27,1.56667 l 3.055,3.28333 -4.215,1.71667 c -2.325,0.95 -5.58334,0.24667 -7.26834,-1.56667 L 379.88167,110.02 Z" style="marker:none" overflow="visible" fill="#fecb00" fill-rule="evenodd" stroke="#000" stroke-width=".833"/><path d="m 386.765,99.155 c 2.41333,0.69667 4.535,3.26667 4.73667,5.73333 l 0.36333,4.47167 -4.37167,-1.26333 c -2.41333,-0.69667 -4.535,-3.265 -4.73666,-5.73334 l -0.365,-4.47 z" style="marker:none" overflow="visible" fill="#fecb00" fill-rule="evenodd" stroke="#000" stroke-width=".833"/><path d="m 392.855,101.61 c -1.49333,2.02 -1.61833,5.35 -0.27833,7.43167 l 2.42666,3.77166 2.705,-3.66 c 1.49334,-2.02 1.61834,-5.35 0.27834,-7.43 L 395.56,97.95 Z m 6.3,6.82833 c -1.65667,1.88667 -2.05833,5.195 -0.89833,7.38167 l 2.10333,3.96167 3.00167,-3.42 c 1.65833,-1.88834 2.06,-5.195 0.9,-7.38334 l -2.105,-3.96166 -3,3.42166 z m 5.55667,7.65667 c -1.89667,1.65 -2.74,4.87167 -1.88334,7.195 l 1.55167,4.20833 3.43333,-2.985 c 1.89667,-1.65 2.74,-4.87166 1.88334,-7.195 l -1.55,-4.20833 z m 5.805,8.62167 C 408.47,126.175 407.32,129.3 407.95,131.69667 l 1.13667,4.33833 3.70666,-2.64 c 2.04667,-1.45833 3.19667,-4.585 2.56667,-6.98 l -1.13833,-4.33833 z m 3.72333,9.24166 c -2.09667,1.38334 -3.35667,4.46834 -2.815,6.88334 l 0.98333,4.37666 3.8,-2.50666 c 2.095,-1.38334 3.35667,-4.46667 2.81334,-6.88334 l -0.98334,-4.37666 -3.8,2.50666 z m 4.02667,9.745 c -2.33334,0.93334 -4.18834,3.70167 -4.14167,6.17834 l 0.0833,4.48333 4.225,-1.69167 c 2.33334,-0.93333 4.18667,-3.70166 4.14,-6.17833 l -0.0833,-4.48333 -4.225,1.69166 z" style="marker:none" overflow="visible" fill="#fecb00" fill-rule="evenodd" stroke="#000" stroke-width=".833"/><path d="m 422.02167,152.44 c -2.16667,0.51833 -4.15334,3.01667 -4.43334,5.575 l -0.50333,4.63333 3.92667,-0.94 c 2.16833,-0.52 4.15333,-3.01666 4.43333,-5.57666 l 0.505,-4.63334 z m 2.51666,9.51 c -2.21333,0.26833 -4.47,2.525 -5.03666,5.03333 l -1.02834,4.54834 4.01,-0.49 c 2.21167,-0.27 4.46834,-2.525 5.03667,-5.035 l 1.02833,-4.54667 -4.01,0.48833 z m 1.51834,9.77667 c -2.22167,0.17666 -4.57167,2.335 -5.245,4.82 l -1.21667,4.5 4.025,-0.32167 c 2.22167,-0.17667 4.57167,-2.335 5.245,-4.81833 l 1.21833,-4.5 z" style="marker:none" overflow="visible" fill="#fecb00" fill-rule="evenodd" stroke="#000" stroke-width=".803"/><path d="m 209.25667,117.31667 c -2.325,0.95333 -4.15834,3.73333 -4.09334,6.21 l 0.11834,4.48333 4.21166,-1.725 c 2.325,-0.95167 4.15834,-3.73333 4.09334,-6.20833 l -0.11834,-4.48334 -4.21166,1.725 z" style="marker:none" overflow="visible" fill="#fecb00" fill-rule="evenodd" stroke="#000" stroke-width=".833"/><g transform="scale(1.6666667)" fill="#fecb00" fill-rule="evenodd" stroke="#000"><path style="marker:none" d="m 118.761,76.727 c 1.11,1.02 1.564,2.966 1.013,4.346 l -1,2.499 -2.01,-1.847 c -1.111,-1.02 -1.565,-2.966 -1.013,-4.346 l 0.999,-2.499 z" overflow="visible" stroke-width=".5"/><path style="marker:none" d="m 108.194,110.786 c 1.337,0.018 2.829,1.219 3.33,2.68 l 0.906,2.645 -2.423,-0.033 c -1.338,-0.018 -2.83,-1.218 -3.33,-2.679 l -0.906,-2.646 z" overflow="visible" stroke-width=".482"/><path style="marker:none" d="m 115.894,110.475 c -1.48,0.29 -2.883,1.712 -3.134,3.177 l -0.453,2.652 2.68,-0.523 c 1.479,-0.29 2.882,-1.713 3.133,-3.177 l 0.453,-2.653 -2.68,0.524 z m 0.102,5.171 c -1.443,0.437 -2.695,1.995 -2.797,3.477 l -0.183,2.685 2.613,-0.792 c 1.443,-0.437 2.695,-1.995 2.797,-3.477 l 0.183,-2.685 z m 0.13,-10.337 c -1.503,0.12 -3.058,1.375 -3.473,2.802 l -0.75,2.584 2.721,-0.217 c 1.503,-0.12 3.058,-1.375 3.473,-2.802 l 0.75,-2.584 z m 1.074,-5.352 c -1.505,0.076 -3.096,1.285 -3.552,2.7 l -0.826,2.56 2.727,-0.137 c 1.506,-0.076 3.097,-1.286 3.553,-2.7 l 0.826,-2.561 -2.727,0.138 z m 1.3,-5.087 c -1.507,0.01 -3.15,1.149 -3.668,2.541 l -0.938,2.523 2.73,-0.018 c 1.508,-0.01 3.151,-1.148 3.669,-2.54 l 0.938,-2.523 -2.73,0.018 z m 1.816,-5.085 c -1.494,-0.197 -3.278,0.705 -3.982,2.013 l -1.275,2.37 2.707,0.357 c 1.494,0.198 3.278,-0.704 3.982,-2.012 l 1.275,-2.37 z m 2.373,-4.895 c -1.457,-0.383 -3.34,0.286 -4.204,1.495 l -1.564,2.19 2.64,0.696 c 1.457,0.384 3.34,-0.285 4.204,-1.494 l 1.564,-2.19 -2.64,-0.696 z m 2.35,-4.642 c -1.462,-0.367 -3.338,0.324 -4.187,1.542 l -1.539,2.208 2.648,0.666 c 1.462,0.367 3.338,-0.324 4.187,-1.542 l 1.539,-2.208 z m 2.697,-4.573 c -1.449,-0.416 -3.347,0.213 -4.236,1.403 l -1.61,2.156 2.624,0.753 c 1.449,0.415 3.346,-0.213 4.236,-1.403 l 1.61,-2.156 z m -5.656,-3.428 c 1.02,1.109 1.31,3.087 0.645,4.415 l -1.205,2.407 -1.85,-2.008 c -1.02,-1.109 -1.31,-3.087 -0.645,-4.415 l 1.205,-2.407 z m -6.139,9.406 c 1.238,0.861 1.949,2.73 1.588,4.17 l -0.654,2.611 -2.242,-1.56 c -1.237,-0.86 -1.948,-2.728 -1.587,-4.17 l 0.654,-2.61 2.241,1.56 z m -2.906,5.518 c 1.314,0.738 2.202,2.528 1.982,3.998 l -0.4,2.661 -2.38,-1.336 c -1.315,-0.738 -2.203,-2.528 -1.983,-3.998 l 0.4,-2.661 z m -1.421,5.998 c 1.34,0.69 2.291,2.448 2.123,3.925 l -0.304,2.674 -2.428,-1.251 c -1.34,-0.69 -2.29,-2.449 -2.122,-3.925 l 0.304,-2.674 2.427,1.25 z m -1.958,6.004 c 1.452,0.407 2.737,1.938 2.869,3.418 l 0.239,2.68 -2.63,-0.737 c -1.45,-0.407 -2.735,-1.938 -2.867,-3.418 l -0.24,-2.68 2.63,0.737 z" overflow="visible" stroke-width=".5"/><path style="marker:none" d="m 108.633,104.91 c 1.326,0.171 2.672,1.533 3.003,3.04 l 0.6,2.733 -2.403,-0.308 c -1.327,-0.17 -2.673,-1.532 -3.004,-3.04 l -0.6,-2.732 2.404,0.308 z m -0.197,11.662 c 1.338,-0.038 2.878,1.098 3.44,2.536 l 1.017,2.606 -2.422,0.069 c -1.337,0.038 -2.878,-1.098 -3.44,-2.537 l -1.017,-2.605 z" overflow="visible" stroke-width=".482"/><path style="marker:none" d="m 116.639,121.264 c -1.416,0.516 -2.581,2.141 -2.6,3.627 l -0.034,2.69 2.565,-0.935 c 1.416,-0.516 2.58,-2.14 2.6,-3.626 l 0.034,-2.692 z" overflow="visible" stroke-width=".5"/><path style="marker:none" d="m 109.142,122.608 c 1.333,-0.113 2.935,0.937 3.575,2.342 l 1.16,2.545 -2.415,0.203 c -1.333,0.112 -2.934,-0.937 -3.575,-2.342 l -1.16,-2.545 z" overflow="visible" stroke-width=".482"/></g><path d="m 391.41167,201.97167 c 2.36,0.86 4.3,3.56666 4.33166,6.04333 l 0.0567,4.485 -4.275,-1.55833 c -2.36,-0.86167 -4.3,-3.56834 -4.33333,-6.045 l -0.0567,-4.48334 z" style="marker:none" overflow="visible" fill="#fecb00" fill-rule="evenodd" stroke="#000" stroke-width=".833"/><path d="m 403.905,204.21 c -2.22167,-0.18667 -4.89,1.56167 -5.95833,3.90333 l -1.93334,4.24167 4.025,0.33833 c 2.22167,0.18667 4.89,-1.56166 5.95834,-3.90333 l 1.93333,-4.24167 z" style="marker:none" overflow="visible" fill="#fecb00" fill-rule="evenodd" stroke="#000" stroke-width=".803"/><g transform="scale(1.6666667)" fill="#fecb00" fill-rule="evenodd" stroke="#000"><path style="marker:none" d="m 235.597,174.007 c 0.638,1.365 0.316,3.338 -0.719,4.403 l -1.875,1.93 -1.157,-2.473 c -0.638,-1.365 -0.316,-3.338 0.719,-4.403 l 1.875,-1.93 z m -4.277,3.753 c 0.679,1.346 0.417,3.328 -0.586,4.424 l -1.816,1.986 -1.23,-2.437 c -0.68,-1.345 -0.418,-3.327 0.584,-4.423 l 1.816,-1.986 1.231,2.437 z m 8.004,-7.522 c 0.789,1.284 0.692,3.28 -0.216,4.456 l -1.645,2.13 -1.429,-2.326 c -0.789,-1.285 -0.692,-3.281 0.216,-4.457 l 1.645,-2.13 z" overflow="visible" stroke-width=".5"/><path style="marker:none" d="m 242.707,166.39 c 0.826,1.261 0.787,3.26 -0.086,4.462 l -1.582,2.177 -1.496,-2.284 c -0.826,-1.261 -0.788,-3.26 0.086,-4.461 l 1.582,-2.177 1.496,2.284 z m 3.243,-4.27 c 0.88,1.224 0.93,3.222 0.11,4.461 l -1.484,2.245 -1.596,-2.216 c -0.88,-1.223 -0.93,-3.222 -0.11,-4.46 l 1.485,-2.245 1.595,2.216 z m 2.816,-4.597 c 1.04,1.09 1.364,3.063 0.723,4.403 l -1.163,2.427 -1.884,-1.976 c -1.04,-1.09 -1.364,-3.063 -0.723,-4.403 l 1.163,-2.427 z m 2.743,-4.677 c 1.17,0.95 1.739,2.866 1.271,4.277 l -0.847,2.554 -2.118,-1.722 c -1.17,-0.951 -1.74,-2.867 -1.272,-4.277 l 0.847,-2.555 z m 2.365,-4.636 c 1.158,0.965 1.706,2.887 1.222,4.292 l -0.876,2.544 -2.099,-1.746 c -1.159,-0.964 -1.706,-2.887 -1.222,-4.291 l 0.876,-2.545 2.099,1.747 z m 6.545,2.995 c -1.478,-0.295 -3.318,0.486 -4.107,1.745 l -1.43,2.28 2.677,0.536 c 1.478,0.296 3.318,-0.486 4.107,-1.744 l 1.43,-2.28 z m -2.317,5.183 c -1.425,-0.492 -3.353,0.035 -4.305,1.176 l -1.723,2.067 2.581,0.891 c 1.425,0.492 3.353,-0.035 4.304,-1.176 l 1.724,-2.067 z m -2.744,5.6 c -1.37,-0.627 -3.34,-0.288 -4.397,0.756 l -1.915,1.891 2.483,1.136 c 1.371,0.627 3.341,0.288 4.398,-0.756 l 1.914,-1.891 z m -3.689,4.704 c -1.347,-0.675 -3.328,-0.407 -4.422,0.6 l -1.98,1.822 2.441,1.223 c 1.348,0.675 3.328,0.407 4.422,-0.6 l 1.98,-1.821 z" overflow="visible" stroke-width=".5"/><path style="marker:none" d="m 247.809,171.704 c -1.184,-0.932 -3.179,-1.067 -4.452,-0.302 l -2.306,1.387 2.145,1.69 c 1.185,0.932 3.179,1.067 4.452,0.301 l 2.306,-1.387 z" overflow="visible" stroke-width=".5"/><path style="marker:none" d="m 244.393,176.274 c -0.92,-0.972 -2.813,-1.256 -4.227,-0.635 l -2.56,1.126 1.666,1.76 c 0.92,0.971 2.813,1.256 4.226,0.634 l 2.56,-1.126 -1.665,-1.76 z m -4.19,4.156 c -0.803,-1.069 -2.652,-1.566 -4.127,-1.11 l -2.672,0.828 1.456,1.938 c 0.803,1.07 2.652,1.567 4.127,1.11 l 2.671,-0.828 -1.455,-1.937 z m -4.226,3.42 c -0.876,-1.01 -2.756,-1.377 -4.195,-0.817 l -2.606,1.013 1.587,1.83 c 0.877,1.011 2.756,1.377 4.195,0.818 l 2.607,-1.014 z" overflow="visible" stroke-width=".482"/></g><g transform="scale(1.6666667)" fill="#fecb00" fill-rule="evenodd" stroke="#000"><path d="m 231.905,150.14 c -1.375,-0.618 -3.343,-0.266 -4.393,0.785 l -1.902,1.903 2.49,1.12 c 1.375,0.618 3.343,0.267 4.393,-0.784 l 1.902,-1.904 z" style="marker:none" overflow="visible" stroke-width=".5"/><path d="m 204.776,173.286 c -0.545,-1.222 -2.236,-2.119 -3.776,-2.003 l -2.789,0.211 0.987,2.214 c 0.544,1.221 2.235,2.119 3.775,2.002 l 2.789,-0.21 z" style="marker:none" overflow="visible" stroke-width=".482"/><path d="m 202.024,166.088 c 0.318,1.473 -0.436,3.325 -1.683,4.132 l -2.258,1.463 -0.576,-2.669 c -0.318,-1.473 0.436,-3.324 1.683,-4.132 l 2.259,-1.463 z m -4.791,1.946 c 0.167,1.498 -0.77,3.263 -2.092,3.94 l -2.396,1.228 -0.303,-2.713 c -0.167,-1.498 0.77,-3.264 2.092,-3.941 l 2.395,-1.228 z m 9.447,-4.197 c 0.482,1.428 -0.057,3.352 -1.205,4.296 l -2.079,1.71 -0.874,-2.588 c -0.482,-1.427 0.058,-3.352 1.205,-4.296 l 2.079,-1.71 z m 4.494,-3.099 c 0.524,1.413 0.04,3.353 -1.08,4.33 l -2.027,1.768 -0.95,-2.56 c -0.523,-1.413 -0.04,-3.353 1.08,-4.33 l 2.028,-1.769 0.949,2.56 z m 4.161,-3.201 c 0.586,1.39 0.188,3.348 -0.887,4.373 l -1.948,1.857 -1.061,-2.516 c -0.586,-1.389 -0.188,-3.348 0.887,-4.373 l 1.948,-1.857 z m 3.957,-3.675 c 0.77,1.296 0.646,3.29 -0.279,4.454 l -1.674,2.107 -1.397,-2.347 c -0.77,-1.295 -0.646,-3.29 0.279,-4.453 l 1.675,-2.107 z m 3.562,-4.11 c 0.928,1.187 1.055,3.182 0.285,4.452 l -1.396,2.302 -1.68,-2.152 c -0.929,-1.188 -1.056,-3.183 -0.286,-4.453 l 1.396,-2.301 1.68,2.152 z m 3.339,-3.991 c 0.914,1.198 1.02,3.194 0.234,4.456 l -1.422,2.285 -1.656,-2.171 c -0.914,-1.198 -1.019,-3.195 -0.234,-4.456 l 1.422,-2.285 z m 8.519,-0.437 c -1.421,-0.5 -3.353,0.014 -4.311,1.149 l -1.737,2.056 2.575,0.908 c 1.422,0.5 3.353,-0.014 4.312,-1.149 l 1.736,-2.056 z m -6.222,9.351 c -1.279,-0.797 -3.276,-0.714 -4.458,0.186 l -2.14,1.631 2.316,1.445 c 1.28,0.797 3.276,0.714 4.458,-0.187 l 2.141,-1.63 z m -3.924,4.847 c -1.196,-0.917 -3.192,-1.026 -4.455,-0.244 l -2.288,1.417 2.167,1.66 c 1.196,0.918 3.192,1.027 4.455,0.245 l 2.288,-1.417 -2.167,-1.66 z m -4.951,3.672 c -1.163,-0.96 -3.153,-1.14 -4.443,-0.403 l -2.338,1.335 2.107,1.737 c 1.163,0.959 3.154,1.139 4.444,0.402 l 2.337,-1.334 z m -4.745,4.166 c -0.946,-1.172 -2.86,-1.749 -4.272,-1.286 l -2.557,0.837 1.714,2.125 c 0.947,1.173 2.86,1.75 4.273,1.288 l 2.557,-0.838 -1.714,-2.125 z" style="marker:none" overflow="visible" stroke-width=".5"/><path d="m 210.002,170.565 c -0.68,-1.152 -2.462,-1.851 -3.979,-1.56 l -2.747,0.525 1.231,2.088 c 0.68,1.152 2.462,1.851 3.979,1.56 l 2.747,-0.526 z m -10.639,4.78 c -0.492,-1.243 -2.144,-2.211 -3.687,-2.16 l -2.796,0.093 0.892,2.253 c 0.493,1.244 2.145,2.212 3.688,2.16 l 2.795,-0.093 z" style="marker:none" overflow="visible" stroke-width=".482"/><path d="m 191.816,169.66 c 0.084,1.504 -0.95,3.215 -2.307,3.818 l -2.46,1.093 -0.151,-2.726 c -0.084,-1.505 0.95,-3.216 2.307,-3.82 l 2.46,-1.092 0.151,2.726 z" style="marker:none" overflow="visible" stroke-width=".5"/><path d="m 187.695,178.661 c -0.247,-1.314 -1.685,-2.579 -3.21,-2.822 l -2.762,-0.44 0.447,2.382 c 0.247,1.314 1.685,2.578 3.21,2.821 l 2.762,0.44 -0.447,-2.38 z m 5.844,-1.583 c -0.423,-1.27 -2.019,-2.327 -3.562,-2.362 l -2.797,-0.062 0.766,2.3 c 0.423,1.269 2.019,2.326 3.562,2.36 l 2.797,0.063 -0.766,-2.3 z m -11.389,1.735 c -0.34,-1.293 -1.866,-2.45 -3.405,-2.582 l -2.786,-0.238 0.618,2.342 c 0.342,1.294 1.868,2.45 3.406,2.582 l 2.787,0.24 z" style="marker:none" overflow="visible" stroke-width=".482"/><path d="m 186.713,170.943 c -0.04,1.507 -1.21,3.127 -2.612,3.617 l -2.54,0.889 0.071,-2.73 c 0.04,-1.507 1.21,-3.127 2.612,-3.618 l 2.54,-0.888 -0.07,2.73 z" style="marker:none" overflow="visible" stroke-width=".5"/><path d="m 181.456,171.74 c -0.042,1.427 -1.295,2.963 -2.797,3.428 l -2.721,0.841 0.076,-2.587 c 0.042,-1.427 1.295,-2.963 2.798,-3.428 l 2.72,-0.841 -0.076,2.586 z" style="marker:none" overflow="visible" stroke-width=".504"/><path style="marker:none" d="m 228.521,141.277 c 1.146,0.98 1.667,2.91 1.165,4.307 l -0.911,2.533 -2.075,-1.775 c -1.145,-0.98 -1.667,-2.91 -1.164,-4.307 l 0.91,-2.533 z" overflow="visible" stroke-width=".5"/></g><g transform="scale(1.6666667)" fill="#fecb00" fill-rule="evenodd" stroke="#000"><path style="marker:none" d="m 122.964,141.277 c -1.146,0.98 -1.667,2.91 -1.165,4.307 l 0.911,2.533 2.075,-1.775 c 1.145,-0.98 1.667,-2.91 1.164,-4.307 l -0.91,-2.533 z m -3.384,8.863 c 1.375,-0.618 3.343,-0.266 4.393,0.785 l 1.902,1.903 -2.49,1.12 c -1.375,0.618 -3.343,0.267 -4.393,-0.784 l -1.902,-1.904 z" overflow="visible" stroke-width=".5"/><path d="m 146.71,173.286 c 0.544,-1.222 2.235,-2.119 3.775,-2.003 l 2.789,0.211 -0.987,2.214 c -0.544,1.221 -2.235,2.119 -3.775,2.002 l -2.789,-0.21 0.986,-2.214 z" style="marker:none" overflow="visible" stroke-width=".482"/><path d="m 149.46,166.088 c -0.317,1.473 0.437,3.325 1.684,4.132 l 2.258,1.463 0.576,-2.669 c 0.318,-1.473 -0.436,-3.324 -1.683,-4.132 l -2.259,-1.463 -0.575,2.669 z m 4.793,1.946 c -0.168,1.498 0.77,3.263 2.092,3.94 l 2.395,1.228 0.303,-2.713 c 0.167,-1.498 -0.77,-3.264 -2.092,-3.941 l -2.395,-1.228 z m -9.448,-4.197 c -0.482,1.428 0.058,3.352 1.205,4.296 l 2.079,1.71 0.874,-2.588 c 0.482,-1.427 -0.058,-3.352 -1.205,-4.296 l -2.079,-1.71 z m -4.494,-3.099 c -0.524,1.413 -0.04,3.353 1.08,4.33 l 2.027,1.768 0.95,-2.56 c 0.523,-1.413 0.04,-3.353 -1.08,-4.33 l -2.028,-1.769 -0.949,2.56 z m -4.161,-3.201 c -0.586,1.39 -0.188,3.348 0.887,4.373 l 1.949,1.857 1.06,-2.516 c 0.586,-1.389 0.188,-3.348 -0.887,-4.373 l -1.948,-1.857 z m -3.957,-3.675 c -0.77,1.296 -0.646,3.29 0.279,4.454 l 1.674,2.107 1.397,-2.347 c 0.77,-1.295 0.646,-3.29 -0.279,-4.453 l -1.674,-2.107 z m -3.562,-4.11 c -0.927,1.187 -1.055,3.182 -0.285,4.452 l 1.396,2.302 1.68,-2.152 c 0.929,-1.188 1.057,-3.183 0.286,-4.453 l -1.395,-2.301 z m -3.339,-3.991 c -0.914,1.198 -1.02,3.194 -0.234,4.456 l 1.422,2.285 1.656,-2.171 c 0.914,-1.198 1.02,-3.195 0.234,-4.456 l -1.422,-2.285 z m -8.519,-0.437 c 1.421,-0.5 3.353,0.014 4.312,1.149 l 1.736,2.056 -2.575,0.908 c -1.422,0.5 -3.353,-0.014 -4.312,-1.149 l -1.736,-2.056 z m 6.222,9.351 c 1.279,-0.797 3.276,-0.714 4.458,0.186 l 2.141,1.631 -2.317,1.445 c -1.28,0.797 -3.276,0.714 -4.458,-0.187 l -2.141,-1.63 z m 3.924,4.847 c 1.196,-0.917 3.192,-1.026 4.455,-0.244 l 2.288,1.417 -2.167,1.66 c -1.196,0.918 -3.192,1.027 -4.455,0.245 l -2.288,-1.417 2.167,-1.66 z m 4.951,3.672 c 1.163,-0.96 3.154,-1.14 4.444,-0.403 l 2.337,1.335 -2.107,1.737 c -1.163,0.959 -3.154,1.139 -4.444,0.402 l -2.337,-1.334 z m 4.745,4.166 c 0.946,-1.172 2.86,-1.749 4.272,-1.286 l 2.557,0.837 -1.714,2.125 c -0.947,1.173 -2.86,1.75 -4.272,1.288 l -2.558,-0.838 1.715,-2.125 z" style="marker:none" overflow="visible" stroke-width=".5"/><path d="m 141.484,170.565 c 0.68,-1.152 2.462,-1.851 3.978,-1.56 l 2.747,0.525 -1.231,2.088 c -0.68,1.152 -2.462,1.851 -3.979,1.56 l -2.747,-0.526 z m 10.638,4.78 c 0.492,-1.243 2.144,-2.211 3.687,-2.16 l 2.796,0.093 -0.892,2.253 c -0.493,1.244 -2.145,2.212 -3.688,2.16 l -2.795,-0.093 z" style="marker:none" overflow="visible" stroke-width=".482"/><path d="m 159.669,169.66 c -0.084,1.504 0.95,3.215 2.307,3.818 l 2.46,1.093 0.152,-2.726 c 0.084,-1.505 -0.95,-3.216 -2.308,-3.82 l -2.46,-1.092 -0.151,2.726 z" style="marker:none" overflow="visible" stroke-width=".5"/><path d="m 163.79,178.661 c 0.247,-1.314 1.685,-2.579 3.21,-2.822 l 2.762,-0.44 -0.447,2.382 c -0.247,1.314 -1.685,2.578 -3.21,2.821 l -2.762,0.44 0.447,-2.38 z m -5.844,-1.583 c 0.423,-1.27 2.019,-2.327 3.563,-2.362 l 2.796,-0.062 -0.766,2.3 c -0.423,1.269 -2.019,2.326 -3.562,2.36 l -2.797,0.063 0.766,-2.3 z m 11.388,1.735 c 0.342,-1.293 1.868,-2.45 3.406,-2.582 l 2.787,-0.238 -0.62,2.342 c -0.34,1.294 -1.866,2.45 -3.405,2.582 l -2.787,0.24 0.62,-2.344 z" style="marker:none" overflow="visible" stroke-width=".482"/><path d="m 164.772,170.943 c 0.04,1.507 1.21,3.127 2.612,3.617 l 2.54,0.889 -0.07,-2.73 c -0.04,-1.507 -1.21,-3.127 -2.613,-3.618 l -2.54,-0.888 0.07,2.73 z" style="marker:none" overflow="visible" stroke-width=".5"/><path d="m 170.029,171.74 c 0.042,1.427 1.295,2.963 2.797,3.428 l 2.722,0.841 -0.077,-2.587 c -0.042,-1.427 -1.295,-2.963 -2.797,-3.428 l -2.722,-0.841 0.077,2.586 z" style="marker:none" overflow="visible" stroke-width=".504"/></g><g transform="scale(1.6666667)" fill-rule="evenodd" stroke="#000"><g fill="#fecb00" stroke-width=".5"><path d="m 91.126,128.967 c -1.31,0.745 -2.188,2.54 -1.96,4.009 l 0.415,2.659 2.374,-1.35 c 1.31,-0.745 2.188,-2.54 1.959,-4.009 l -0.415,-2.659 z m -1.213,-5.169 c -1.334,0.701 -2.27,2.467 -2.09,3.942 l 0.326,2.671 2.417,-1.27 c 1.334,-0.702 2.27,-2.467 2.09,-3.942 l -0.326,-2.672 -2.417,1.27 z" style="marker:none" overflow="visible"/><path d="m 84.684,121.488 c -0.613,1.377 -0.254,3.343 0.8,4.39 l 1.912,1.894 1.11,-2.494 c 0.613,-1.377 0.254,-3.344 -0.8,-4.39 l -1.912,-1.895 z" style="marker:none" overflow="visible"/><path d="m 83.457,125.231 c 1.504,0.096 3.08,1.325 3.518,2.744 l 0.794,2.572 -2.725,-0.172 c -1.505,-0.095 -3.08,-1.325 -3.519,-2.744 l -0.793,-2.572 z m 0.699,5.531 c 1.507,-0.03 3.18,1.062 3.735,2.44 l 1.006,2.497 -2.73,0.056 c -1.507,0.03 -3.18,-1.063 -3.736,-2.44 l -1.005,-2.497 z" style="marker:none" overflow="visible"/></g><g stroke-width=".48"><path d="m 159.66,216.434 c -12.836,1.43 -24.186,7.179 -34.87,14.282 l 1.93,4.01 c 10.263,-6.823 23.026,-12.758 34.863,-14.076 z" transform="matrix(1.08248,0.06116,-0.08447,0.99905,-33.568,-98.307)"/><path d="m 161.364,220.143 c -12.823,1.428 -24.06,7.404 -34.716,14.488 l 1.644,3.72 c 10.291,-6.844 23.432,-12.86 35.283,-14.18 z" transform="matrix(1.08248,0.06116,-0.08447,0.99905,-33.568,-98.307)" fill="#bf0000"/><path d="m 163.412,224.109 c -12.8,1.426 -24.428,7.114 -35.046,14.174 l 1.8,3.922 c 10.328,-6.868 23.643,-13.11 35.516,-14.433 z" transform="matrix(1.08248,0.06116,-0.08447,0.99905,-33.568,-98.307)" fill="#090"/></g></g><g transform="scale(1.6666667)" fill-rule="evenodd" stroke="#000" stroke-width=".5"><path d="m 175.732,186.384 c -13.599,0 -27.515,1.232 -39.656,3.687 l 0.812,3.907 c 23.648,-4.783 54.384,-4.783 78.032,0 l 0.78,-3.907 c -12.14,-2.455 -26.369,-3.687 -39.968,-3.687 z" fill="#090"/><path d="m 175.732,182.509 c -13.851,0 -28.073,1.343 -40.437,3.781 l 0.78,3.938 c 24.11,-4.754 55.486,-4.754 79.595,0 l 0.75,-3.938 c -12.365,-2.438 -26.836,-3.781 -40.688,-3.781 z" fill="#bf0000"/><path d="m 175.732,178.54 c -14.272,0 -28.544,1.216 -41.281,3.625 l 0.75,3.906 c 24.877,-4.705 56.217,-4.705 81.094,0 l 0.718,-3.906 c -12.737,-2.41 -27.008,-3.625 -41.28,-3.625 z"/></g><g transform="scale(1.6666667)" fill="#fecb00" fill-rule="evenodd" stroke="#000"><path style="marker:none" d="m 115.888,174.007 c -0.638,1.365 -0.316,3.338 0.719,4.403 l 1.875,1.93 1.157,-2.473 c 0.638,-1.365 0.316,-3.338 -0.719,-4.403 l -1.875,-1.93 z m 4.278,3.753 c -0.68,1.346 -0.418,3.328 0.585,4.424 l 1.816,1.986 1.231,-2.437 c 0.68,-1.345 0.417,-3.327 -0.585,-4.423 l -1.816,-1.986 -1.231,2.437 z m -8.005,-7.522 c -0.789,1.284 -0.692,3.28 0.216,4.456 l 1.645,2.13 1.43,-2.326 c 0.788,-1.285 0.691,-3.281 -0.217,-4.457 l -1.645,-2.13 z" overflow="visible" stroke-width=".5"/><path style="marker:none" d="m 108.778,166.39 c -0.826,1.261 -0.787,3.26 0.086,4.462 l 1.582,2.177 1.497,-2.284 c 0.826,-1.261 0.787,-3.26 -0.086,-4.461 l -1.583,-2.177 -1.496,2.284 z m -3.243,-4.27 c -0.88,1.224 -0.93,3.222 -0.11,4.461 l 1.484,2.245 1.596,-2.216 c 0.88,-1.223 0.93,-3.222 0.11,-4.46 l -1.484,-2.245 -1.596,2.216 z m -2.816,-4.597 c -1.04,1.09 -1.364,3.063 -0.722,4.403 l 1.162,2.427 1.885,-1.976 c 1.04,-1.09 1.363,-3.063 0.722,-4.403 l -1.163,-2.427 z m -2.743,-4.677 c -1.17,0.95 -1.739,2.866 -1.271,4.277 l 0.847,2.554 2.119,-1.722 c 1.17,-0.951 1.739,-2.867 1.271,-4.277 l -0.847,-2.555 z m -2.365,-4.636 c -1.158,0.965 -1.706,2.887 -1.222,4.292 l 0.876,2.544 2.1,-1.746 c 1.158,-0.964 1.705,-2.887 1.222,-4.291 l -0.877,-2.545 -2.099,1.747 z m -6.544,2.995 c 1.478,-0.295 3.317,0.486 4.107,1.745 l 1.429,2.28 -2.677,0.536 c -1.478,0.296 -3.318,-0.486 -4.107,-1.744 l -1.43,-2.28 z m 2.317,5.183 c 1.424,-0.492 3.352,0.035 4.304,1.176 l 1.723,2.067 -2.581,0.891 c -1.425,0.492 -3.353,-0.035 -4.304,-1.176 l -1.723,-2.067 2.58,-0.891 z m 2.743,5.6 c 1.37,-0.627 3.34,-0.288 4.397,0.756 l 1.915,1.891 -2.483,1.136 c -1.37,0.627 -3.341,0.288 -4.398,-0.756 l -1.914,-1.891 z m 3.689,4.704 c 1.348,-0.675 3.328,-0.407 4.422,0.6 l 1.98,1.822 -2.441,1.223 c -1.347,0.675 -3.328,0.407 -4.422,-0.6 l -1.98,-1.821 z" overflow="visible" stroke-width=".5"/><path style="marker:none" d="m 103.676,171.704 c 1.185,-0.932 3.179,-1.067 4.452,-0.302 l 2.306,1.387 -2.145,1.69 c -1.184,0.932 -3.179,1.067 -4.452,0.301 l -2.306,-1.387 z" overflow="visible" stroke-width=".5"/><path style="marker:none" d="m 107.092,176.274 c 0.92,-0.972 2.813,-1.256 4.227,-0.635 l 2.56,1.126 -1.666,1.76 c -0.92,0.971 -2.813,1.256 -4.226,0.634 l -2.56,-1.126 1.665,-1.76 z m 4.19,4.156 c 0.803,-1.069 2.652,-1.566 4.127,-1.11 l 2.672,0.828 -1.455,1.938 c -0.804,1.07 -2.653,1.567 -4.127,1.11 l -2.672,-0.828 1.455,-1.937 z m 4.226,3.42 c 0.876,-1.01 2.756,-1.377 4.195,-0.817 l 2.607,1.013 -1.588,1.83 c -0.877,1.011 -2.756,1.377 -4.195,0.818 l -2.607,-1.014 z" overflow="visible" stroke-width=".482"/></g><g transform="scale(1.6666667)" fill-rule="evenodd" stroke="#000" stroke-width=".5"><path d="m 131.656,190.831 c -6.769,1.513 -13.805,3.405 -19.906,5.5 l 1.313,3.75 c 5.825,-2 12.594,-3.79 19.093,-5.25 z" fill="#090"/><path d="m 131.188,186.956 c -7.031,1.54 -14.261,3.516 -20.594,5.656 l 1.281,3.781 c 6.062,-2.048 13.012,-3.945 19.781,-5.437 l -0.469,-4 z" fill="#bf0000"/><path d="m 130.688,182.956 c -7.469,1.591 -14.69,3.506 -21.407,5.719 l 1.25,3.781 c 6.458,-2.127 13.434,-3.988 20.656,-5.531 l -0.5,-3.969 z"/></g><g transform="scale(1.6666667)" fill-rule="evenodd" stroke="#000" stroke-width=".5"><path d="m 219.829,190.831 c 6.769,1.513 13.805,3.405 19.906,5.5 l -1.312,3.75 c -5.826,-2 -12.595,-3.79 -19.094,-5.25 z" fill="#090"/><path d="m 220.298,186.956 c 7.03,1.54 14.26,3.516 20.593,5.656 l -1.28,3.781 c -6.063,-2.048 -13.013,-3.945 -19.782,-5.437 z" fill="#bf0000"/><path d="m 220.798,182.956 c 7.468,1.591 14.69,3.506 21.406,5.719 l -1.25,3.781 c -6.458,-2.127 -13.434,-3.988 -20.656,-5.531 z"/></g><g transform="scale(1.6666667)" fill-rule="evenodd" stroke="#000"><g fill="#fecb00" stroke-width=".5"><path d="m 260.36,128.967 c 1.31,0.745 2.187,2.54 1.959,4.009 l -0.415,2.659 -2.373,-1.35 c -1.31,-0.745 -2.188,-2.54 -1.96,-4.009 l 0.415,-2.659 2.373,1.35 z m 1.212,-5.169 c 1.334,0.701 2.27,2.467 2.09,3.942 l -0.326,2.671 -2.417,-1.27 c -1.334,-0.702 -2.27,-2.467 -2.09,-3.942 l 0.326,-2.672 2.417,1.27 z" style="marker:none" overflow="visible"/><path d="m 266.801,121.488 c 0.613,1.377 0.254,3.343 -0.8,4.39 l -1.912,1.894 -1.11,-2.494 c -0.613,-1.377 -0.254,-3.344 0.801,-4.39 l 1.911,-1.895 z" style="marker:none" overflow="visible"/><path d="m 268.028,125.231 c -1.504,0.095 -3.08,1.325 -3.518,2.744 l -0.793,2.572 2.725,-0.172 c 1.504,-0.095 3.08,-1.325 3.518,-2.744 l 0.793,-2.572 z m -0.698,5.531 c -1.507,-0.03 -3.18,1.062 -3.736,2.44 l -1.006,2.497 2.73,0.056 c 1.507,0.03 3.18,-1.063 3.736,-2.44 l 1.005,-2.497 -2.73,-0.056 z" style="marker:none" overflow="visible"/></g><g stroke-width=".48"><path d="m 159.66,216.434 c -12.836,1.43 -24.186,7.179 -34.87,14.282 l 1.93,4.01 c 10.263,-6.823 23.026,-12.758 34.863,-14.076 z" transform="matrix(-1.08248,0.06116,0.08447,0.99905,385.054,-98.307)"/><path d="m 161.364,220.143 c -12.823,1.428 -24.06,7.404 -34.716,14.488 l 1.644,3.72 c 10.291,-6.844 23.432,-12.86 35.283,-14.18 z" transform="matrix(-1.08248,0.06116,0.08447,0.99905,385.054,-98.307)" fill="#bf0000"/><path d="m 163.412,224.109 c -12.8,1.426 -24.428,7.114 -35.046,14.174 l 1.8,3.922 c 10.328,-6.868 23.643,-13.11 35.516,-14.433 z" transform="matrix(-1.08248,0.06116,0.08447,0.99905,385.054,-98.307)" fill="#090"/></g></g><g transform="scale(1.6666667)" fill="#fecb00" fill-rule="evenodd" stroke="#000"><path style="marker:none" d="m 146.554,201.187 c 0.458,-1.257 2.082,-2.27 3.626,-2.263 l 2.797,0.015 -0.829,2.277 c -0.457,1.257 -2.081,2.27 -3.625,2.263 l -2.797,-0.015 z" overflow="visible" stroke-width=".482"/><path style="marker:none" d="m 148.795,193.813 c -0.214,1.492 0.668,3.286 1.968,4.005 l 2.356,1.301 0.387,-2.703 c 0.214,-1.492 -0.668,-3.286 -1.968,-4.004 l -2.356,-1.302 z m 4.916,1.606 c -0.062,1.506 0.997,3.201 2.363,3.785 l 2.475,1.056 0.113,-2.728 c 0.062,-1.506 -0.997,-3.201 -2.363,-3.785 l -2.476,-1.057 z m -9.718,-3.525 c -0.381,1.458 0.292,3.34 1.503,4.201 l 2.193,1.56 0.69,-2.642 c 0.382,-1.458 -0.291,-3.34 -1.502,-4.201 l -2.193,-1.56 -0.69,2.642 z" overflow="visible" stroke-width=".5"/><path style="marker:none" d="m 141.151,198.838 c 0.597,-1.196 2.326,-2.019 3.86,-1.835 l 2.776,0.332 -1.082,2.168 c -0.597,1.197 -2.326,2.02 -3.859,1.836 l -2.777,-0.332 z m 10.947,4.024 c 0.404,-1.276 1.984,-2.357 3.527,-2.414 l 2.795,-0.103 -0.732,2.31 c -0.404,1.276 -1.984,2.357 -3.527,2.414 l -2.795,0.103 z" overflow="visible" stroke-width=".482"/><path style="marker:none" d="m 159.228,196.66 c 0.022,1.508 1.172,3.142 2.569,3.649 l 2.53,0.918 -0.04,-2.73 c -0.02,-1.507 -1.172,-3.142 -2.568,-3.649 l -2.53,-0.917 0.039,2.73 z" overflow="visible" stroke-width=".5"/><path style="marker:none" d="m 163.97,205.352 c 0.154,-1.329 1.5,-2.69 3.004,-3.04 l 2.725,-0.633 -0.28,2.408 c -0.154,1.328 -1.5,2.69 -3.004,3.04 l -2.724,0.632 0.28,-2.407 z m -5.94,-1.17 c 0.332,-1.296 1.85,-2.463 3.387,-2.605 l 2.786,-0.258 -0.603,2.347 c -0.333,1.296 -1.851,2.463 -3.388,2.605 l -2.785,0.258 0.602,-2.347 z m 11.481,0.933 c 0.25,-1.314 1.691,-2.574 3.216,-2.814 l 2.764,-0.433 -0.454,2.38 c -0.25,1.314 -1.69,2.575 -3.216,2.814 l -2.763,0.434 0.453,-2.38 z" overflow="visible" stroke-width=".482"/><path style="marker:none" d="m 164.409,197.584 c 0.144,1.5 1.425,3.035 2.858,3.426 l 2.597,0.708 -0.262,-2.718 c -0.145,-1.5 -1.426,-3.035 -2.86,-3.426 l -2.596,-0.708 z" overflow="visible" stroke-width=".5"/><path style="marker:none" d="m 169.708,198.01 c 0.142,1.422 1.5,2.866 3.031,3.224 l 2.774,0.649 -0.258,-2.575 c -0.142,-1.421 -1.5,-2.866 -3.03,-3.224 l -2.774,-0.649 z" overflow="visible" stroke-width=".504"/></g><g transform="scale(1.6666667)" fill="#fecb00" fill-rule="evenodd" stroke="#000"><path style="marker:none" d="m 204.93,201.187 c -0.457,-1.257 -2.081,-2.27 -3.625,-2.263 l -2.797,0.015 0.829,2.277 c 0.457,1.257 2.082,2.27 3.625,2.263 l 2.797,-0.015 -0.828,-2.277 z" overflow="visible" stroke-width=".482"/><path style="marker:none" d="m 202.69,193.813 c 0.214,1.492 -0.668,3.286 -1.968,4.005 l -2.356,1.301 -0.387,-2.703 c -0.214,-1.492 0.668,-3.286 1.968,-4.004 l 2.356,-1.302 z m -4.916,1.606 c 0.062,1.506 -0.997,3.201 -2.363,3.785 l -2.475,1.056 -0.112,-2.728 c -0.062,-1.506 0.996,-3.201 2.362,-3.785 l 2.476,-1.057 z m 9.718,-3.525 c 0.381,1.458 -0.292,3.34 -1.503,4.201 l -2.193,1.56 -0.69,-2.642 c -0.382,-1.458 0.291,-3.34 1.502,-4.201 l 2.193,-1.56 z" overflow="visible" stroke-width=".5"/><path style="marker:none" d="m 210.334,198.838 c -0.597,-1.196 -2.326,-2.019 -3.86,-1.835 l -2.776,0.332 1.082,2.168 c 0.597,1.197 2.326,2.02 3.859,1.836 l 2.777,-0.332 z m -10.947,4.024 c -0.404,-1.276 -1.984,-2.357 -3.527,-2.414 l -2.795,-0.103 0.732,2.31 c 0.404,1.276 1.984,2.357 3.527,2.414 l 2.795,0.103 z" overflow="visible" stroke-width=".482"/><path style="marker:none" d="m 192.257,196.66 c -0.021,1.508 -1.172,3.142 -2.569,3.649 l -2.53,0.918 0.04,-2.73 c 0.021,-1.507 1.172,-3.142 2.568,-3.649 l 2.53,-0.917 -0.039,2.73 z" overflow="visible" stroke-width=".5"/><path style="marker:none" d="m 187.515,205.352 c -0.154,-1.329 -1.5,-2.69 -3.004,-3.04 l -2.724,-0.633 0.28,2.408 c 0.153,1.328 1.499,2.69 3.003,3.04 l 2.724,0.632 z m 5.941,-1.17 c -0.333,-1.296 -1.85,-2.463 -3.388,-2.605 l -2.785,-0.258 0.603,2.347 c 0.332,1.296 1.85,2.463 3.388,2.605 l 2.785,0.258 z m -11.482,0.933 c -0.25,-1.314 -1.69,-2.574 -3.216,-2.814 l -2.763,-0.433 0.453,2.38 c 0.25,1.314 1.69,2.575 3.216,2.814 l 2.763,0.434 -0.453,-2.38 z" overflow="visible" stroke-width=".482"/><path style="marker:none" d="m 187.077,197.584 c -0.145,1.5 -1.426,3.035 -2.86,3.426 l -2.596,0.708 0.263,-2.718 c 0.144,-1.5 1.425,-3.035 2.858,-3.426 l 2.597,-0.708 z" overflow="visible" stroke-width=".5"/><path style="marker:none" d="m 181.777,198.01 c -0.142,1.422 -1.5,2.866 -3.031,3.224 l -2.773,0.649 0.257,-2.575 c 0.142,-1.421 1.5,-2.866 3.03,-3.224 l 2.774,-0.649 z" overflow="visible" stroke-width=".504"/></g><g transform="scale(1.6666667)" fill-rule="evenodd" stroke="#000" stroke-width=".5"><path d="m 175.753,186.384 c 13.6,0 27.515,1.232 39.656,3.687 l -0.812,3.907 c -23.648,-4.783 -54.384,-4.783 -78.032,0 l -0.78,-3.907 c 12.14,-2.455 26.369,-3.687 39.968,-3.687 z" fill="#090"/><path d="m 175.753,182.509 c 13.851,0 28.073,1.343 40.437,3.781 l -0.78,3.938 c -24.11,-4.754 -55.486,-4.754 -79.595,0 l -0.75,-3.938 c 12.365,-2.438 26.837,-3.781 40.688,-3.781 z" fill="#bf0000"/><path d="m 175.753,178.54 c 14.273,0 28.544,1.216 41.281,3.625 l -0.75,3.906 c -24.877,-4.705 -56.217,-4.705 -81.094,0 l -0.718,-3.906 c 12.737,-2.41 27.008,-3.625 41.281,-3.625 z"/></g><path style="marker:none" overflow="visible" d="M 0,400 H 1200 V 600 H 0 Z" fill="#090" fill-rule="evenodd"/></svg>