<?xml version="1.0" standalone="no"?>
<!DOCTYPE svg PUBLIC "-//W3C//DTD SVG 20010904//EN"
 "http://www.w3.org/TR/2001/REC-SVG-20010904/DTD/svg10.dtd">
<svg version="1.0" xmlns="http://www.w3.org/2000/svg"
 width="1203.000000pt" height="861.000000pt" viewBox="0 0 1203.000000 861.000000"
 preserveAspectRatio="xMidYMid meet">

<g transform="translate(0.000000,861.000000) scale(0.100000,-0.100000)"
fill="#000000" stroke="none">
<path d="M0 4305 l0 -4305 4510 0 c3000 0 4510 3 4510 10 0 6 77 10 210 10
172 0 210 3 210 14 0 7 3 28 6 45 l6 31 -216 0 -216 0 0 50 0 50 215 0 215 0
0 45 0 45 -211 0 -211 0 6 23 c3 12 6 36 6 52 l0 30 209 -3 209 -3 4 46 3 45
-202 0 c-111 0 -204 3 -206 8 -3 4 -3 27 0 52 l5 45 208 -3 208 -3 4 41 4 40
-203 0 -203 0 0 24 c0 13 3 38 6 55 l7 31 202 0 c202 0 203 0 209 22 16 62 25
59 -197 56 -177 -3 -203 -1 -201 12 2 8 6 32 9 53 l6 37 203 0 204 0 6 27 c4
16 9 36 12 46 5 16 -9 17 -200 17 -225 0 -214 -4 -195 63 l10 37 205 0 c155 0
206 3 208 13 3 6 7 24 10 40 l6 27 -199 0 c-110 0 -202 3 -204 8 -3 4 2 28 10
55 l14 47 204 0 c203 0 204 0 210 23 18 63 36 57 -185 57 -158 0 -201 3 -197
13 2 6 10 29 18 50 l13 37 202 0 202 0 6 28 c4 15 9 35 12 45 5 16 -9 17 -190
17 -108 0 -196 2 -196 5 0 2 10 25 22 50 l22 45 196 0 196 0 14 38 c8 20 16
40 18 45 2 4 -87 7 -197 7 -111 0 -201 2 -201 4 0 2 9 25 20 50 l19 46 204 0
203 0 14 37 c8 21 16 41 18 46 2 4 -87 7 -197 7 -133 0 -201 4 -201 10 0 6 9
29 20 50 l20 40 210 0 c161 0 210 3 210 13 0 6 9 23 20 37 11 14 20 28 20 33
0 4 -95 7 -210 7 l-210 0 25 50 25 50 215 0 214 0 26 37 25 38 -210 3 c-122 1
-210 6 -210 12 0 5 12 30 27 54 l28 46 219 2 220 3 24 35 23 35 -210 3 c-116
1 -211 5 -211 8 0 3 17 29 38 57 l37 52 222 -3 222 -2 21 40 20 40 -215 0
c-118 0 -215 2 -215 5 0 3 15 26 33 50 l32 44 233 1 233 0 34 38 c19 20 35 40
35 45 0 4 -101 7 -225 7 -124 0 -225 3 -225 7 0 4 19 27 42 50 l42 43 239 0
239 0 40 40 40 40 -244 2 -243 3 55 52 55 53 256 0 256 0 26 24 c14 13 36 31
49 40 21 15 2 16 -240 16 -294 0 -288 -2 -198 67 l43 33 281 0 c155 0 282 3
282 8 0 4 25 20 55 37 30 16 55 33 55 37 0 4 -127 9 -282 10 l-281 3 58 48 57
47 319 0 c176 0 319 4 319 8 0 5 27 21 60 37 33 16 60 32 60 37 0 4 -144 9
-320 10 l-320 3 69 48 69 47 366 0 c327 0 369 2 403 17 21 10 40 21 43 24 3 3
25 13 50 22 42 15 23 15 -339 16 -240 1 -381 5 -375 10 5 6 47 30 92 56 l84
46 359 -1 359 0 0 40 0 40 -267 0 c-147 0 -263 4 -257 8 5 5 39 22 77 37 48
20 67 33 67 47 0 17 12 18 190 18 l190 0 0 40 0 40 -186 0 -186 0 5 26 c3 15
1 40 -3 55 l-9 29 190 0 189 0 0 40 0 40 -239 0 c-246 0 -299 7 -337 45 -9 8
-22 15 -30 15 -8 0 -14 4 -14 9 0 5 -9 13 -20 16 -62 20 6 25 310 25 l330 0 0
40 0 40 -419 0 c-393 0 -481 5 -481 28 0 4 -20 18 -45 31 -93 49 -82 51 383
52 401 1 424 2 382 16 -25 9 -47 19 -50 22 -3 3 -22 14 -43 24 -34 15 -78 17
-452 17 -396 0 -465 4 -465 30 0 3 -18 16 -40 29 -22 12 -40 26 -40 32 0 5
145 9 365 9 201 0 365 4 365 8 0 5 -27 21 -60 37 -33 16 -60 32 -60 37 0 4
-168 8 -373 8 l-372 0 -27 25 c-15 14 -30 25 -34 25 -8 0 -33 32 -34 43 0 4
146 7 325 7 179 0 325 4 325 8 0 4 -25 21 -55 37 -30 17 -55 33 -55 38 0 4
-152 7 -338 7 l-338 0 -37 38 c-20 21 -37 43 -37 50 0 9 73 12 302 12 279 0
301 1 280 16 -13 9 -35 27 -49 40 l-26 24 -308 0 -307 0 -41 48 c-23 26 -41
50 -41 55 0 4 127 7 281 7 l281 0 -40 40 -40 40 -280 0 -281 0 -36 48 -37 47
261 3 c144 1 261 6 261 10 -1 4 -14 23 -31 42 l-30 35 -271 5 -271 5 -18 30
c-10 17 -23 38 -29 48 -10 16 4 17 235 17 l245 0 -20 40 -20 40 -255 0 -254 0
-36 53 -35 52 241 5 240 5 -23 35 -24 35 -244 5 -244 5 -23 40 c-12 22 -23 46
-23 52 0 10 56 13 230 15 l230 3 -25 38 -26 37 -229 0 c-227 0 -230 0 -244 23
-8 12 -18 34 -21 50 l-7 27 221 0 c122 0 221 3 221 8 0 4 -9 18 -20 32 -11 14
-20 31 -20 38 0 9 -53 12 -229 12 -253 0 -234 -5 -251 68 l-8 32 215 0 c118 0
213 3 211 8 -2 4 -10 24 -18 45 l-14 37 -223 0 c-250 0 -228 -7 -247 73 l-6
27 216 0 c118 0 214 3 212 8 -2 4 -10 24 -17 44 l-15 38 -219 2 -219 3 -18 48
-18 47 215 0 c199 0 214 1 209 18 -3 9 -8 29 -12 45 l-6 27 -218 0 -217 0 -11
39 c-7 21 -12 43 -12 50 0 8 60 11 211 11 231 0 212 -6 194 58 -6 22 -7 22
-220 22 l-214 0 -11 43 c-6 23 -13 48 -15 55 -3 9 43 12 211 12 l214 0 -6 28
c-3 15 -7 33 -10 40 -2 9 -55 12 -217 12 l-215 0 -6 31 c-3 17 -6 42 -6 55 l0
24 205 0 c195 0 205 1 205 19 0 52 3 51 -220 51 -232 0 -212 -7 -226 73 l-6
37 212 0 213 0 -7 31 c-3 17 -6 36 -6 41 0 5 -90 8 -215 6 -209 -3 -215 -2
-215 17 0 11 -3 37 -6 58 l-7 37 214 0 215 0 -4 40 -4 40 -214 0 -213 0 -6 38
c-14 86 -38 77 202 74 l213 -3 0 41 0 40 -214 0 -213 0 -7 31 c-3 17 -6 42 -6
55 l0 24 215 0 215 0 0 40 0 40 -215 0 -215 0 0 50 0 50 216 0 216 0 -6 31
c-3 17 -6 35 -6 40 0 5 -94 9 -209 9 l-209 0 -6 25 -6 25 -4505 0 -4505 0 0
-4305z m8842 4053 c-9 -216 44 -617 122 -926 9 -34 15 -66 14 -70 0 -4 1 -14
4 -22 16 -44 38 -129 38 -145 0 -33 132 -415 165 -475 7 -14 30 -65 50 -115
21 -49 40 -92 44 -95 6 -4 19 -34 67 -148 8 -18 19 -38 24 -45 6 -7 41 -74 79
-149 38 -76 82 -158 98 -183 75 -121 179 -275 214 -317 22 -26 39 -50 39 -54
0 -5 14 -22 30 -39 17 -17 56 -65 88 -107 193 -257 544 -598 783 -761 84 -57
231 -147 295 -179 60 -31 94 -51 194 -109 41 -25 91 -52 111 -62 42 -19 47
-37 39 -132 -5 -65 2 -58 -120 -114 -19 -9 -37 -18 -40 -21 -3 -3 -23 -14 -45
-25 -195 -95 -500 -303 -650 -443 -22 -21 -67 -60 -99 -87 -277 -234 -647
-682 -878 -1065 -79 -130 -268 -527 -268 -562 0 -6 -18 -47 -39 -91 -56 -117
-87 -196 -131 -327 -53 -162 -92 -304 -110 -405 -12 -70 -33 -179 -48 -250
-11 -50 -37 -237 -47 -330 -8 -76 -24 -267 -24 -292 l-1 -23 -4355 0 -4355 0
0 4125 0 4125 4358 0 4357 0 -3 -82z"/>
</g>
</svg>
