<?xml version="1.0" encoding="UTF-8" standalone="no"?>
<svg xmlns="http://www.w3.org/2000/svg" width="1190" height="850" viewBox="0 0 1400 1000" xmlns:xlink="http://www.w3.org/1999/xlink">
 <defs>
  <style type="text/css">
   <![CDATA[
    .str0 {stroke:#000;stroke-width:2}
    .fil2 {fill:#009831}
    .fil3 {fill:#31009C}
    .fil1 {fill:#f00}
    .fil0 {fill:#ff0}
    .fil5 {fill:#fff}
    .fil4 {fill:#f00}
   ]]>
  </style>
 </defs>
<rect class="fil0" width="1400" height="1000"/>
<rect class="fil1" y="100" width="1400" height="800"/>
<rect class="fil0" y="200" width="1400" height="600"/>
<rect class="fil1" y="300" width="1400" height="400"/>
<rect class="fil2" y="400" width="1400" height="200"/>
<g id="2br-2rb">
<g id="br-rb">
<g id="br">
<circle class="fil3 str0" cx="480" cy="50" r="38"/>
<circle class="fil1 str0" cx="493.434" cy="63.435" r="18"/>
</g>
<g id="rb">
<path class="fil5 str0" d="M480 111l11.2583 19.5 22.5166 0 -11.2583 19.5 11.2583 19.5 -22.5166 0 -11.2583 19.5 -11.2583 -19.5 -22.5166 0 11.2583 -19.5 -11.2583 -19.5 22.5166 0 11.2583 -19.5z"/>
<circle class="fil3 str0" cx="480" cy="150" r="15"/>
</g>
</g>
<use transform="translate(0, 200)" xlink:href="#br-rb"/>
</g>
<use transform="translate(440)" xlink:href="#2br-2rb"/>
<g id="2rb-2br">
<g id="rb-br">
<use transform="translate(0, 500)" xlink:href="#rb"/>
<use transform="translate(0, 700)" xlink:href="#br"/>
</g>
<use transform="translate(0, 200)" xlink:href="#rb-br"/>
</g>
<use transform="translate(440)" xlink:href="#2rb-2br"/>
<g id="2rg-2gy">
<g id="rg-gy">
<g id="rg">
<path class="fil4 str0" d="M260 11l11.2583 19.5 22.5166 0 -11.2583 19.5 11.2583 19.5 -22.5166 0 -11.2583 19.5 -11.2583 -19.5 -22.5166 0 11.2583 -19.5 -11.2583 -19.5 22.5166 0 11.2583 -19.5z"/>
<circle class="fil2 str0" cx="260" cy="50" r="15"/>
</g>
<g id="gy">
<circle class="fil2 str0" cx="260" cy="150" r="38"/>
<circle class="fil0 str0" cx="273.434" cy="163.435" r="18"/>
</g>
</g>
<use transform="translate(0, 200)" xlink:href="#rg-gy"/>
</g>
<use transform="translate(440)" xlink:href="#2rg-2gy"/>
<use transform="translate(880)" xlink:href="#2rg-2gy"/>
<g id="2gy-2rg">
<g id="gy-rg">
<use transform="translate(0, 500)" xlink:href="#gy"/>
<use transform="translate(0, 700)" xlink:href="#rg"/>
</g>
<use transform="translate(0, 200)" xlink:href="#gy-rg"/>
</g>
<use transform="translate(440)" xlink:href="#2gy-2rg"/>
<use transform="translate(880)" xlink:href="#2gy-2rg"/>
<g class="str0">
<polygon class="fil0 str0" points="222,530 370,530 370,470 280,470 250,460 222,460"/>
<rect class="fil1" x="280" y="470" width="10" height="60"/>
<rect class="fil2" x="290" y="470" width="10" height="60"/>
<rect class="fil2" x="300" y="470" width="10" height="60"/>
<rect class="fil0" x="310" y="470" width="10" height="60"/>
<rect class="fil1" x="320" y="470" width="10" height="60"/>
<rect class="fil2" x="330" y="470" width="10" height="60"/>
<rect class="fil2" x="340" y="470" width="10" height="60"/>
<rect class="fil0" x="350" y="470" width="10" height="60"/>
<rect class="fil1" x="360" y="470" width="10" height="60"/>
</g>
<polygon class="fil5" points="426,478 1178,450 882,500 1178,550 426,522"/>
<g class="str0">
<rect class="fil2" x="370" y="440" width="14" height="120"/>
<rect class="fil2" x="384" y="440" width="14" height="120"/>
<rect class="fil0" x="398" y="440" width="14" height="120"/>
<rect class="fil1" x="412" y="440" width="14" height="120"/>
</g>
<use transform="translate(220, 100)" xlink:href="#rb"/>
</svg>