<?xml version="1.0" encoding="UTF-8"?>
<!-- Created with Inkscape (http://www.inkscape.org/) -->
<svg width="900" height="600" version="1.1" viewBox="0 0 238.12 158.75" xmlns="http://www.w3.org/2000/svg" xmlns:cc="http://creativecommons.org/ns#" xmlns:dc="http://purl.org/dc/elements/1.1/" xmlns:rdf="http://www.w3.org/1999/02/22-rdf-syntax-ns#">
 <metadata>
  <rdf:RDF>
   <cc:Work rdf:about="">
    <dc:format>image/svg+xml</dc:format>
    <dc:type rdf:resource="http://purl.org/dc/dcmitype/StillImage"/>
    <dc:title/>
   </cc:Work>
  </rdf:RDF>
 </metadata>
 <rect width="238.12" height="158.75" rx=".33735" ry=".19182" fill="#fff" fill-rule="evenodd" stroke-width="3.3073"/>
 <g transform="matrix(1 0 0 1 134.94 42.423)" shape-rendering="auto">
  <g stroke-width="3.4644">
   <path d="m44.298-27.259-5.5642 5.1066 8.9527 11.094 5.5642-5.0998z"/>
   <path d="m36.416-20.023-5.5642 5.0999 22.689 28.133 5.5709-5.1066z"/>
   <path d="m28.53-12.791-5.5642 5.0999 8.9527 11.101 5.5642-5.0999z"/>
   <path d="m58.043-10.23-5.5709 5.1067 8.9527 11.101 5.5709-5.0999z"/>
   <path d="m42.268 4.2387-5.5642 5.1066 8.9591 11.094 5.5642-5.0999z"/>
   <path d="m-76.048-27.259-22.696 28.133 5.5709 5.1067 22.689-28.133z"/>
   <path d="m-68.166-20.023-22.696 28.126 5.5709 5.1066 22.689-28.133z"/>
   <path d="m-60.28-12.791-22.696 28.133 5.5642 5.0999 22.696-28.133z"/>
   <path d="m-77.414 53.464-5.5642 5.0998 22.696 28.133 5.5642-5.1066z"/>
   <path d="m-85.29 60.694-5.5709 5.0998 8.9591 11.101 5.5642-5.0999z"/>
   <path d="m-93.175 67.925-5.5709 5.1066 22.696 28.133 5.5642-5.1066z"/>
   <path d="m-71.552 77.728-5.5642 5.0999 8.9527 11.101 5.5642-5.0998z"/>
  </g>
  <g stroke-width="3.4649">
   <path d="m45.67 53.463-8.9608 11.095 5.5653 5.1071 8.9608-11.102z"/>
   <path d="m53.547 60.694-8.9544 11.102 5.5653 5.1003 8.9608-11.102z"/>
   <path d="m61.435 67.925-8.9544 11.102 5.572 5.1003 8.9477-11.095z"/>
   <path d="m31.923 70.496-8.9544 11.095 5.5653 5.1071 8.9544-11.102z"/>
   <path d="m39.807 77.729-8.9544 11.102 5.5653 5.1003 8.9544-11.102z"/>
   <path d="m47.694 84.959-8.9544 11.102 5.5653 5.1003 8.9544-11.102z"/>
  </g>
 </g>
 <path d="m126.28 40.352c21.556 3.9906 35.795 24.703 31.802 46.258-3.9935 21.556-21.056 25.278-42.611 21.287-21.556-3.9934-39.446-14.191-35.45-35.746 3.9907-21.556 24.704-35.794 46.259-31.801z" fill="#da251d" stroke-width="2.7502"/>
 <path d="m139.05 63.158a20.118 20.118 0 0 0-11.829 3.5532 20.082 20.082 0 0 0-8.1684 12.668 20.085 20.085 0 0 1-8.1629 12.668 20.082 20.082 0 0 1-14.711 3.2783 20.093 20.093 0 0 1-12.921-8.2123 20.115 20.115 0 0 1-3.4104-13.787 39.696 39.695 0 0 0 31.978 45.085 39.696 39.695 0 0 0 46.256-31.798l0.0109-0.06876a39.696 39.695 0 0 0 0.16779-1.1304 20.118 20.118 0 0 0-3.4104-13.768 20.088 20.088 0 0 0-12.923-8.2094 19.362 19.362 0 0 0-2.8796-0.27502z" fill="#29166f" fill-rule="evenodd" stroke-width="2.7502"/>
</svg>
