<?xml version="1.0" encoding="UTF-8" standalone="no"?>
<svg
   xmlns:dc="http://purl.org/dc/elements/1.1/"
   xmlns:cc="http://creativecommons.org/ns#"
   xmlns:rdf="http://www.w3.org/1999/02/22-rdf-syntax-ns#"
   xmlns:svg="http://www.w3.org/2000/svg"
   xmlns="http://www.w3.org/2000/svg"
   xmlns:sodipodi="http://sodipodi.sourceforge.net/DTD/sodipodi-0.dtd"
   xmlns:inkscape="http://www.inkscape.org/namespaces/inkscape"
   version="1.0"
   width="900"
   height="600"
   id="Flag_of_the_Holy_Roman_Empire_between_1200_and_1350"
   inkscape:version="0.48.2 r9819"
   sodipodi:docname="Flag of Egypt (19th century).svg">
  <metadata
     id="metadata10">
    <rdf:RDF>
      <cc:Work
         rdf:about="">
        <dc:format>image/svg+xml</dc:format>
        <dc:type
           rdf:resource="http://purl.org/dc/dcmitype/StillImage" />
      </cc:Work>
    </rdf:RDF>
  </metadata>
  <defs
     id="defs8" />
  <sodipodi:namedview
     pagecolor="#ffffff"
     bordercolor="#666666"
     borderopacity="1"
     objecttolerance="10"
     gridtolerance="10"
     guidetolerance="10"
     inkscape:pageopacity="0"
     inkscape:pageshadow="2"
     inkscape:window-width="918"
     inkscape:window-height="764"
     id="namedview6"
     showgrid="false"
     inkscape:zoom="0.65"
     inkscape:cx="450"
     inkscape:cy="300"
     inkscape:window-x="169"
     inkscape:window-y="94"
     inkscape:window-maximized="0"
     inkscape:current-layer="Flag_of_the_Holy_Roman_Empire_between_1200_and_1350"
     showguides="false">
    <inkscape:grid
       type="xygrid"
       id="grid2811" />
  </sodipodi:namedview>
  <path
     inkscape:connector-curvature="0"
     style="fill:#E30A17;fill-opacity:1;fill-rule:evenodd"
     d="M 0,0 900,0 900,600 0,600 0,0 z"
     id="path3103" />
  <g
     style="fill-rule:evenodd"
     id="g3157"
     transform="matrix(0.63636363,0,0,0.825,83.636365,57.5)" />
  <path
     sodipodi:type="arc"
     style="fill:#ffffff;fill-opacity:1"
     id="path3951"
     sodipodi:cx="30.928383"
     sodipodi:cy="58.355438"
     sodipodi:rx="30.344828"
     sodipodi:ry="30.053051"
     d="m 61.273211,58.355438 a 30.344828,30.053051 0 1 1 -60.68965578,0 30.344828,30.053051 0 1 1 60.68965578,0 z"
     transform="matrix(5.9318181,0,0,5.9894085,276.53847,-49.514562)" />
  <path
     sodipodi:type="arc"
     style="fill:#E30A17;fill-opacity:1"
     id="path3953"
     sodipodi:cx="67.400528"
     sodipodi:cy="68.567642"
     sodipodi:rx="26.259947"
     sodipodi:ry="24.801062"
     d="m 93.660475,68.567642 a 26.259947,24.801062 0 1 1 -52.519894,0 26.259947,24.801062 0 1 1 52.519894,0 z"
     transform="matrix(6.2833336,0,0,6.81789,91.500004,-167.48664)" />
  <path
     inkscape:connector-curvature="0"
     d="m 547.99291,240 -28.47931,29.99876 -39.36188,-7.26894 18.88562,37.56556 L 480,337.07691 519.77934,330.08692 548.00131,360 554.13145,318.26749 590,299.75941 552.99117,281.28397 z"
     id="path3013"
     style="fill:#ffffff" />
</svg>
