<?xml version="1.0" encoding="UTF-8"?>
<!DOCTYPE svg PUBLIC "-//W3C//DTD SVG 1.1//EN" "http://www.w3.org/Graphics/SVG/1.1/DTD/svg11.dtd">
<!-- Creator: CorelDRAW 2018 (64-Bit) -->
<svg xmlns="http://www.w3.org/2000/svg" xml:space="preserve" width="229mm" height="178mm" version="1.1" style="shape-rendering:geometricPrecision; text-rendering:geometricPrecision; image-rendering:optimizeQuality; fill-rule:evenodd; clip-rule:evenodd"
viewBox="0 0 22900 17800"
 xmlns:xlink="http://www.w3.org/1999/xlink">
 <defs>
  <style type="text/css">
   <![CDATA[
    .str0 {stroke:#6666FF;stroke-width:20;stroke-miterlimit:22.9256}
    .str2 {stroke:black;stroke-width:13.05;stroke-linejoin:round;stroke-miterlimit:22.9256}
    .str1 {stroke:black;stroke-width:52.92;stroke-linejoin:round;stroke-miterlimit:22.9256}
    .fil3 {fill:none}
    .fil4 {fill:black}
    .fil8 {fill:black}
    .fil2 {fill:#9C2B2B}
    .fil1 {fill:#F2CA1B}
    .fil7 {fill:red}
    .fil5 {fill:white}
    .fil6 {fill:black;fill-rule:nonzero}
    .fil0 {fill:black;fill-rule:nonzero}
   ]]>
  </style>
 </defs>
 <g id="Layer_x0020_1">
  <metadata id="CorelCorpID_0Corel-Layer"/>
  <polygon class="fil0" points="277.92,47.74 705.62,47.74 705.62,17752.26 242.64,17752.26 242.64,47.74 "/>
  <polygon class="fil1" points="15653.7,8413.42 22823.6,12231.14 14262.28,16548.86 670.34,16548.86 670.34,277.98 14262.28,277.98 22823.6,4595.7 "/>
  <path class="fil0" d="M15728.46 8413.42l7171.54 3818.6c-2876.52,1450.62 -5754.1,2899.36 -8629.52,4352.12l-13635.42 0 0 -16341.44 13635.42 0c2875.44,1452.78 5753.36,2900.76 8629.52,4352.14l-7171.54 3818.58zm7018.74 3816.84l-7168.24 -3816.84 7168.24 -3816.84 -8493.1 -4283.32 -13548.48 0 0 16200.32 13548.48 0 8493.1 -4283.32z"/>
  <polygon class="fil2" points="670.34,777.98 14143.34,777.98 21713.24,4595.7 14543.34,8413.42 21713.24,12231.14 14143.34,16048.86 670.34,16048.86 "/>
  <path class="fil0" d="M670.34 742.7l13481.2 0c2545.08,1285.86 5092.38,2567.5 7638.1,3852.14l-7171.54 3818.58 7171.54 3818.6c-2546.04,1283.96 -5093.02,2566.26 -7638.1,3852.12l-13516.48 0 0 -15341.44 35.28 0zm13464.82 70.56l-13429.54 0 0 15200.32 13429.54 0 7501.68 -3783.32 -7168.24 -3816.84 7168.24 -3816.84 -7501.68 -3783.32z"/>
  <rect class="fil2" x="277.91" y="777.98" width="392.42" height="15270.88"/>
  <path class="fil0" d="M277.92 742.7l427.7 0 0 15341.44 -462.98 0 0 -15341.44 35.28 0zm357.14 70.56l-321.86 0 0 15200.32 321.86 0 0 -15200.32z"/>
  <g id="_2859078749712">
   <path class="fil3 str0" d="M8343.39 9081.69l433.3 -87.14c12.8,53.24 18.88,88.6 28.6,119.36 7.2,22.72 18.26,42.54 26.14,67.56 9.86,35.18 20.6,60.06 30.46,95.24 8.36,24.2 15.2,47.5 23.54,71.66 4.64,13.48 10.92,27.96 15.6,41.48 10.74,25.06 23.18,49.46 32.22,75.16 11,31.28 18.56,63.68 27.84,95.52 20.82,59.36 41.64,118.74 62.46,178.1 30.12,79.52 60.26,159.04 90.38,238.56 72.32,211.04 144.62,422.06 216.94,633.1 14.84,43.3 29.66,86.6 44.5,129.9 29.32,90.62 58.64,181.22 87.96,271.84l239.6 681.02 -390.12 101c-28.52,-69.7 -61.8,-138.36 -90.3,-208.04 -44.38,-108.52 -88.72,-221.74 -129.18,-331.86 -19.92,-54.3 -39.88,-108.6 -59.82,-162.9 -41.04,-122.64 -82.06,-245.28 -123.1,-367.92 -42.8,-123.9 -83.26,-250.28 -126.06,-374.16 -39.6,-114.68 -81.6,-226.94 -121.22,-341.64 -54.2,-139.86 -108.4,-279.74 -162.6,-419.6 -35.02,-106.62 -64,-218.6 -99.02,-325.22l-58.12 -181.02z"/>
   <path class="fil4" d="M8082.85 4487.57c-47.62,2.54 -104.78,12.98 -120.08,9.84 -1.64,-6.46 -10.52,-63.6 -14.52,-83.98 -4,-20.36 -8.98,-40.84 -15.4,-59.84 -6.42,-18.98 -14.28,-36.46 -25.8,-46.94 -11.52,-10.48 -26.72,-13.96 -44.36,-14.12 -17.62,-0.14 -37.72,3.02 -59.66,10.32 -21.96,7.3 -45.76,18.74 -59.06,45.74 -13.28,27 -16.04,69.58 -18.92,100.96 -2.9,31.38 -5.94,51.58 -14.5,60.24 -8.54,8.66 -22.6,5.78 -41.06,-3.28 -18.44,-9.04 -41.28,-24.28 -60.18,-34.86 -18.92,-10.58 -33.92,-16.5 -47.16,-14.58 -13.24,1.94 -24.7,11.72 -33.8,16.94 -9.1,5.24 -15.84,5.92 -24.08,2.08 -8.24,-3.84 -17.98,-12.22 -27.78,-18.66 -9.78,-6.46 -19.6,-10.96 -30.8,-7.6 -11.2,3.36 -23.76,14.56 -35.08,24.22 -11.32,9.66 -21.38,17.76 -34.42,19.22 -13.06,1.44 -29.08,-3.76 -42.12,-4.42 -13.02,-0.64 -23.04,3.24 -37.52,11.24 -14.46,8.02 -33.4,20.14 -64.26,37.7 -30.88,17.54 -73.72,40.52 -93.88,64.2 -20.16,23.7 -17.64,48.1 -15.88,67.16 1.78,19.08 2.82,32.8 0.96,31.12 -1.86,-1.72 -6.64,-18.84 -12.04,-37.94 -5.38,-19.1 -11.4,-40.16 -21.12,-52.78 -9.74,-12.6 -23.16,-16.76 -35.08,-20.88 -11.92,-4.14 -22.34,-8.22 -36.42,0.38 -14.08,8.6 -31.82,29.88 -47.6,55.08 -15.76,25.2 -29.58,54.32 -33.62,109.46 -4.04,55.12 1.7,136.28 13.02,195.64 11.32,59.36 28.2,96.96 49.92,117.8 21.72,20.88 48.28,25.04 69.06,28.44 20.8,3.4 35.84,6.06 48.9,6.78 13.04,0.72 24.12,-0.5 34.6,-9.34 10.48,-8.82 20.38,-25.26 30.98,-41.4 10.62,-16.14 21.94,-31.96 45.34,-41.76 23.4,-9.8 58.88,-13.56 92.2,-9.2 -19.48,44.44 -39.14,88.8 -57.56,129.56 -18.42,40.76 -35.56,77.88 -53.96,114.74 -18.4,36.86 -38.06,73.42 -40.22,99.36 -2.18,25.94 13.12,41.26 30.98,54.26 17.84,12.98 38.2,23.66 38.08,45.88 -0.1,22.24 -20.7,56.02 -43.42,97.46 -22.72,41.44 -47.56,90.56 -60.34,152.06 -12.78,61.48 -13.5,135.34 -15.78,192.54 -2.28,57.2 -6.14,97.78 -10.88,138.26 -61.68,-2.42 -123.44,-3.28 -167.78,-0.8 -44.36,2.5 -71.28,8.38 -81.08,0.72 -9.8,-7.68 -2.44,-28.88 1.76,-44.02 4.2,-15.12 5.26,-24.14 -8.16,-34.92 -13.42,-10.76 -41.32,-23.26 -66.74,-30.22 -25.42,-6.94 -48.36,-8.32 -82.54,-8.86 -34.16,-0.54 -79.58,-0.22 -106.32,5.16 -26.74,5.4 -34.82,15.86 -42.8,24.42 -7.98,8.54 -15.86,15.2 -33.52,4.46 -17.66,-10.74 -45.08,-38.86 -78.18,-67.14 -33.12,-28.3 -71.88,-56.76 -112.94,-79.92 -41.04,-23.16 -84.38,-41.02 -128.28,-47.56 -43.9,-6.54 -88.38,-1.78 -126.3,6.08 -37.94,7.84 -69.32,18.76 -80.18,35 -10.86,16.26 -1.2,37.84 18.62,66.18 19.8,28.34 49.78,63.42 83,94.48 -65.98,-23.86 -137.08,-35.4 -196.88,-32.34 -59.82,3.06 -108.38,20.74 -146.42,39.1 -38.04,18.38 -65.58,37.44 -94.42,54.7 -28.86,17.26 -59,32.76 -88.3,46.5 -29.3,13.74 -57.74,25.72 -85.84,38.8 -28.12,13.06 -55.88,27.24 -82.14,40.36 -26.24,13.1 -51,25.14 -60.3,38.54 -9.32,13.4 -3.18,28.2 6.56,36.38 9.72,8.18 23.04,9.76 68.86,14.78 45.8,5.02 124.08,13.5 188.86,28.64 64.8,15.16 116.08,37.02 163.12,66 -71.9,14.96 -142.7,35.88 -198.94,56.24 -56.22,20.36 -97.84,40.2 -138.3,87.44 -40.46,47.24 -79.76,121.92 -100.32,165.12 -20.58,43.22 -22.44,54.96 -22.86,65.54 -0.42,10.54 0.58,19.92 -13.2,39.06 -13.8,19.16 -42.38,48.1 -70.7,78.14 -28.3,30.08 -56.34,61.24 -78.62,88.84 -22.26,27.6 -38.78,51.62 -52.8,70.26 -14.02,18.62 -25.56,31.9 -38.98,38.08 -13.42,6.18 -28.72,5.28 -44.58,6.4 -15.86,1.12 -32.24,4.24 -48.34,11.1 -16.08,6.84 -31.86,17.4 -47.22,29.34 -15.36,11.94 -30.32,25.26 -38.14,44.46 -7.82,19.18 -8.52,44.24 -9.94,65.9 -1.4,21.68 -3.5,39.94 -15.42,56.52 -11.92,16.58 -33.64,31.48 -51.48,49.24 -17.84,17.74 -31.84,38.38 -43.44,57.26 -11.62,18.9 -20.84,36.08 -26.84,54.68 -5.96,18.62 -8.68,38.66 -6.2,64 2.48,25.36 10.14,56.02 16.84,84.56 6.72,28.54 12.46,54.98 10.92,78.46 -1.52,23.48 -10.34,44.02 -15.98,63.44 -5.66,19.4 -8.14,37.68 -1.94,62.38 6.2,24.7 21.1,55.84 48.46,74.44 27.36,18.6 67.16,24.66 115.04,8.12 47.88,-16.54 103.84,-55.68 143.96,-91.58 40.1,-35.9 64.38,-68.54 87.78,-96.44 23.42,-27.9 45.98,-51.04 72.42,-60.84 26.44,-9.78 56.78,-6.22 81.16,7.38 -33,43.5 -68.12,85.44 -98.26,117.28 -30.14,31.82 -55.3,53.52 -81.16,75.54 -25.86,22.04 -52.42,44.38 -63.74,65.88 -11.32,21.5 -7.4,42.16 -2.28,61.44 5.14,19.26 11.46,37.12 30.7,53.44 19.22,16.32 51.32,31.1 90.08,29.48 38.74,-1.64 84.14,-19.68 112.02,-32.82 27.88,-13.16 38.24,-21.42 48.94,-24.84 10.7,-3.42 21.74,-2.04 28.36,4.68 6.62,6.7 8.8,18.74 9.5,41.1 0.7,22.36 -0.12,55.04 0.98,85.12 1.08,30.06 4.06,57.52 13.98,79.46 9.9,21.94 26.74,38.34 45.3,53.7 18.54,15.34 38.8,29.62 81.68,41.66 42.88,12.04 108.36,21.84 149.4,23.4 41.04,1.56 57.64,-5.12 71.72,-8.9 14.1,-3.76 25.68,-4.64 24.64,12.92 -1.04,17.58 -14.74,53.58 -38.18,112.62 -23.44,59.04 -56.62,141.12 -74.12,204.64 -17.48,63.5 -19.28,108.46 -23.72,151.28 -4.44,42.8 -11.54,83.48 -25.64,109.1 -14.1,25.64 -35.22,36.22 -56.26,47.62 -21.04,11.4 -42.02,23.6 -56.34,49.88 -14.3,26.26 -21.98,66.58 -22.12,111.44 -0.14,44.88 7.26,94.3 25.78,132.22 18.54,37.92 48.18,64.36 69.62,83.38 21.46,19.04 34.7,30.64 -19.48,41.34 -54.2,10.7 -175.82,20.46 -262.96,18.1 -87.14,-2.36 -139.78,-16.84 -181.64,-28.14 -41.84,-11.3 -72.9,-19.42 -98.28,-30.78 -25.36,-11.36 -45.06,-25.94 -66.94,-37.98 -21.92,-12.04 -46.02,-21.54 -78.9,-30.04 -32.86,-8.48 -74.48,-15.96 -135.02,-26.94 -60.52,-10.98 -139.94,-25.48 -199.68,-25.4 -59.74,0.1 -99.76,14.8 -137.88,32.16 -38.1,17.38 -74.3,37.44 -111.8,55.2 -37.5,17.74 -76.3,33.18 -99.74,51.88 -23.46,18.7 -31.56,40.64 -38.92,64.14 -7.36,23.5 -14,48.56 -15.22,88.84 -1.24,40.26 2.9,95.74 5.72,153.8 2.82,58.06 4.3,118.7 8.96,164.48 4.66,45.76 12.52,76.66 5.8,102.52 -6.72,25.86 -28.02,46.68 -54.74,73.22 -26.74,26.54 -58.88,58.82 -134.1,113.94 -75.22,55.1 -193.5,133.04 -280.58,185.66 -87.06,52.64 -142.9,79.96 -192.08,105.16 -49.18,25.22 -91.7,48.34 -122.6,79.7 -30.9,31.38 -50.18,71.02 -71.02,108.7 -20.84,37.66 -43.26,73.38 -78.76,104.38 -35.48,31 -84.04,57.34 -133.18,91.64 -49.12,34.32 -98.82,76.64 -135.48,118.94 -36.66,42.3 -60.28,84.62 -74.12,142.28 -13.84,57.68 -17.92,130.72 -23.42,191.22 -5.48,60.48 -12.4,108.42 -21.68,139.02 -9.26,30.58 -20.9,43.84 -28.24,56.98 -7.34,13.16 -10.42,26.22 -9.36,42.42 1.06,16.22 6.24,35.58 20.48,48.9 14.24,13.32 37.52,20.6 62.04,25.48 24.5,4.88 50.24,7.36 98.58,0.8 48.34,-6.54 119.28,-22.1 183.86,-36.34 64.6,-14.22 122.86,-27.1 187.96,-44.24 65.1,-17.12 137.04,-38.46 186.1,-61.9 49.06,-23.44 75.24,-48.96 92.02,-79.2 16.78,-30.24 24.18,-65.2 23.58,-94.82 -0.6,-29.64 -9.2,-53.96 -17.36,-77.58 -8.18,-23.62 -15.92,-46.56 -26.3,-70.18 -10.4,-23.62 -23.42,-47.92 -33.18,-65.66 -9.78,-17.72 -16.28,-28.9 -15.3,-43.28 0.96,-14.4 9.42,-32 21.02,-47.08 11.58,-15.08 26.26,-27.64 48.82,-35.06 22.56,-7.4 52.98,-9.7 76.42,-11.3 23.42,-1.6 39.86,-2.52 54.1,3.96 14.24,6.48 26.26,20.36 40.18,32.4 13.92,12.06 29.74,22.26 55.84,21.6 26.1,-0.66 62.48,-12.18 94.18,-35.74 31.72,-23.54 58.74,-59.12 84.3,-94.86 25.54,-35.72 49.62,-71.62 67.26,-80.9 17.62,-9.32 28.8,7.98 36.24,29.8 7.44,21.82 11.14,48.16 9.62,84.64 -1.52,36.5 -8.26,83.12 -14.62,127.68 -6.34,44.58 -12.3,87.08 -10,123.52 2.3,36.46 12.84,66.86 23.86,96.1 11.02,29.26 22.5,57.36 57.76,89.64 35.28,32.26 94.32,68.68 154.72,104.62 60.38,35.92 122.1,71.38 181.26,108.22 59.14,36.84 115.72,75.04 166.84,96.04 51.14,20.98 96.84,24.74 128.86,24.56 32.02,-0.18 50.36,-4.28 63.1,-18.96 12.74,-14.7 19.88,-39.98 21.16,-69.92 1.26,-29.96 -3.36,-64.6 -6.66,-124.4 -3.3,-59.82 -5.28,-144.8 -6.06,-223.52 -0.76,-78.7 -0.28,-151.14 -12.8,-210.84 -12.52,-59.7 -38.04,-106.68 -73.36,-137.38 -35.34,-30.7 -80.5,-45.16 -120.76,-54.06 -40.26,-8.9 -75.64,-12.26 -105.8,-24.14 -30.14,-11.88 -55.06,-32.26 -60.84,-53.86 -5.78,-21.6 7.56,-44.4 30.62,-61.48 23.06,-17.06 55.82,-28.4 86.54,-41.38 30.7,-12.96 59.34,-27.56 79.58,-43.96 20.22,-16.38 32.08,-34.58 42.22,-52.36 10.16,-17.78 18.6,-35.18 17.56,-65.84 -1.02,-30.68 -11.54,-74.62 -23.7,-121.68 -12.14,-47.08 -25.88,-97.26 -41.28,-146.94 48.82,4.2 96.44,18.34 150.72,50.06 54.3,31.72 115.28,81 181.48,128.02 66.22,47.02 137.7,91.74 240.34,151.32 263.8,153.1 497.26,230.88 796.64,284.46 101.62,18.18 142.5,25.62 178.82,28.84 36.34,3.22 68.1,2.22 82.92,8.64 14.8,6.42 12.64,20.3 -0.1,36.5 -12.74,16.24 -36.06,34.8 -46.16,51.46 -10.08,16.66 -6.9,31.38 -3.44,46.58 3.48,15.18 7.24,30.82 24.54,39.98 17.28,9.14 48.08,11.8 87.78,13.68 39.7,1.9 88.3,3.06 127.26,5.04 38.98,1.96 68.3,4.78 88.58,7.44 20.26,2.68 31.48,5.22 43.44,7.2 11.96,1.98 24.7,3.38 29.7,13.04 5,9.66 2.3,27.56 3.04,41.22 0.76,13.68 4.96,23.1 26.48,45.24 21.5,22.16 60.32,57 96.78,80.6 36.48,23.58 70.6,35.9 109.92,49.52 39.32,13.6 83.84,28.5 111.22,36.32 27.36,7.82 37.6,8.58 47.98,8.82 10.38,0.22 20.92,-0.06 31.76,-6.82 10.86,-6.74 22.02,-19.9 36.4,-31.42 14.4,-11.5 32,-21.32 75.68,-14.74 43.66,6.58 113.38,29.56 174.76,47.56 61.38,17.98 114.44,30.98 160.9,38.52 46.44,7.54 86.3,9.64 123.62,1.76 37.3,-7.86 72.06,-25.7 92.62,-39.04 20.56,-13.34 26.92,-22.18 31.16,-33.32 4.24,-11.12 6.32,-24.54 16.12,-28.88 9.78,-4.36 27.26,0.32 55.92,4.54 28.68,4.22 68.54,7.96 98.84,9.84 30.3,1.88 51.02,1.86 71.98,-4.04 20.98,-5.92 42.18,-17.72 59.74,-29.34 17.52,-11.6 31.4,-22.98 80.94,-31.22 49.54,-8.26 134.74,-13.36 212.98,-21 78.24,-7.64 149.5,-17.8 219.22,-30.24 69.7,-12.42 137.88,-27.12 194.42,-41.36 56.54,-14.24 101.46,-28.02 130.94,-36.26 29.48,-8.22 43.52,-10.92 57.7,-12.66 91.68,264.56 192.7,526.22 266.5,699.46 73.82,173.26 120.42,258.06 166.62,323.74 46.2,65.68 92,112.22 131.68,137.38 39.7,25.18 73.3,29.02 95.08,30.02 21.78,1 31.74,-0.82 41.56,-2.4 9.84,-1.58 19.52,-2.94 30.52,-15.68 11,-12.74 23.32,-36.88 35.12,-62.72 11.8,-25.82 23.06,-53.32 18.3,-105 -4.76,-51.68 -25.54,-127.54 -47.68,-200.68 -22.16,-73.14 -45.7,-143.56 -86.2,-257.46 -40.5,-113.92 -97.98,-271.32 -137.16,-382.72 -39.18,-111.38 -60.08,-176.76 -79.36,-242.62 104.2,-12.84 210.2,-13.9 298.18,-3.86 87.96,10.04 157.9,31.16 212.1,52.5 54.18,21.36 92.6,42.88 132.8,74.96 40.2,32.08 82.16,74.7 131.58,141.22 49.42,66.5 106.32,156.92 164.78,246.02 58.46,89.1 118.5,176.9 178.54,245.82 128.04,146.98 272.36,218.96 463.14,257.24 131.22,26.32 317.72,48 470.78,56.48 153.06,8.48 272.66,3.72 343.5,3.32 70.82,-0.38 92.88,3.58 110.34,3.7 17.44,0.12 30.28,-3.62 48.78,9.72 18.5,13.34 42.68,43.72 70.52,80.9 74.66,99.7 135.34,206.68 186.48,320.12 70.08,155.46 29.04,218.06 -16.38,359.16 -45.9,142.64 -100.16,314.76 -110.2,461.7 -5.1,74.32 16.24,178.06 47.24,245.5 60.9,132.42 84.46,128.4 195.92,59.16 124.14,-77.14 251.38,-172.14 365.5,-262.96 57.72,-45.92 100.86,-84.22 118.2,-116.92 17.34,-32.7 8.92,-59.84 -2.2,-81.1 -20.26,-38.84 -60.88,-76.82 -92.62,-106.78 -16.56,-15.62 -30.92,-27.3 -45.52,-36.02 -14.62,-8.7 -29.48,-14.46 -42.56,-22.6 -13.1,-8.14 -24.46,-18.68 -30.18,-30.48 -5.72,-11.78 -5.84,-24.84 -6.08,-38.08 -0.26,-13.26 -0.64,-26.68 9.28,-39.72 9.92,-13.04 30.14,-25.7 50.08,-39.5 19.94,-13.8 39.6,-28.78 54.48,-61.2 14.88,-32.44 24.94,-82.34 21.92,-129.72 -3,-47.38 -19.1,-92.26 -37.68,-142.4 -18.58,-50.16 -39.64,-105.6 -56.06,-143.46 -16.42,-37.84 -28.22,-58.1 -33.8,-74.56 -5.56,-16.48 -4.9,-29.18 2.12,-31.44 7,-2.28 20.34,5.86 57.92,40.96 37.54,35.12 99.32,97.22 146.42,154.22 72.74,87.96 125.5,183.12 149.92,294.9 21.56,98.56 16.02,185.14 7.9,284.46 -7.5,91.76 -21.2,203.44 -6.28,294.08 7.46,45.36 24.58,86.48 43.56,126.8 18.98,40.3 39.84,79.78 64.1,98.44 45.06,34.68 133.76,-2.92 178.78,-22.34 127.68,-55.08 259.98,-159.86 366.24,-247.24 66.28,-54.5 99.76,-92.16 118.42,-128.44 18.66,-36.26 22.52,-71.14 14.2,-104.4 -8.32,-33.26 -28.84,-64.92 -57.24,-91.48 -28.4,-26.56 -64.68,-48.02 -99.42,-54.1 -34.72,-6.06 -67.92,3.26 -100.42,1.3 -32.48,-1.96 -64.28,-15.2 -74.1,-40.52 -9.78,-25.34 2.42,-62.74 20.4,-89.84 17.98,-27.1 41.74,-43.88 62.94,-63.74 21.22,-19.88 39.88,-42.82 46.44,-63.4 6.56,-20.56 0.98,-38.78 -7.86,-58.62 -8.86,-19.86 -20.98,-41.34 -47.84,-70.26 -26.84,-28.92 -68.42,-65.26 -106.88,-102.12 -38.46,-36.86 -73.84,-74.24 -107.16,-109.74 -33.32,-35.5 -64.6,-69.1 -100.68,-133.28 -36.08,-64.2 -76.92,-158.98 -120.98,-258.06 -62.86,-141.36 -148.54,-364.16 -289.42,-445.66 -99.52,-57.56 -234.12,-48.56 -344.4,-37.06 -144.8,15.12 -267.56,15.16 -399.8,-56.88 -125.04,-68.1 -125.2,-171.74 -130.66,-299.62 -3.3,-76.9 -0.52,-161.26 -4.46,-242.18 -10.18,-210.54 -5.42,-411.26 -13.98,-615.78 -2.92,-69.76 -10.12,-148.74 -29.26,-243.42 -19.16,-94.72 -50.26,-205.14 -74.92,-285.56 -24.66,-80.4 -42.9,-130.78 -63.96,-180.02 38.22,-16.5 81.4,-22.28 120.96,-15.26 39.58,7.04 75.56,26.9 104.86,49.16 29.32,22.24 52,46.88 74.8,71.02 22.82,24.14 45.78,47.78 63.4,82.78 17.62,35 29.88,81.32 42.42,129.06 12.54,47.72 25.34,96.86 24.2,170.26 -1.14,73.4 -16.2,171.1 -30.96,251.1 -14.76,80 -29.2,142.3 -30.18,212.82 -0.96,70.54 11.56,149.28 31.18,210.78 19.64,61.48 46.38,105.74 78.6,140.66 32.22,34.94 69.88,60.58 103.02,83.64 33.16,23.08 61.76,43.58 83.56,48.88 21.8,5.3 36.8,-4.64 29.68,-27.36 -7.12,-22.72 -36.34,-58.24 -45.1,-130.42 -8.76,-72.18 2.92,-181.02 18.28,-262.14 15.34,-81.1 34.32,-134.46 51.96,-187.88 17.64,-53.4 33.92,-106.88 43.3,-151.42 9.36,-44.56 11.82,-80.18 15.34,-115.5 3.54,-35.32 8.12,-70.34 17.74,-75.56 9.62,-5.22 24.26,19.36 31.74,50.88 7.46,31.52 7.74,70 5.4,113 -2.34,42.98 -7.3,90.48 -19.38,190.06 -12.1,99.58 -31.3,251.22 -33.18,352.3 -1.88,101.08 13.58,151.62 41.02,209.22 27.44,57.6 66.84,122.28 120.2,172.74 53.36,50.44 120.66,86.68 171.54,101.46 50.9,14.78 85.38,8.1 102.76,-6.52 17.36,-14.64 17.62,-37.24 5.92,-60.54 -11.7,-23.28 -35.34,-47.26 -56.22,-73.38 -80,-100.1 -93.18,-215.3 -89.96,-338.76 1.04,-39.32 1.68,-77.12 9,-93.38 7.3,-16.22 21.28,-10.9 29.14,-1.28 7.9,9.64 9.68,23.56 21.2,61.94 31.66,105.62 76.46,207.94 163.38,280.24 161.88,134.68 459.52,102.28 590.3,-60.98 29.46,-36.78 32.7,-69.38 35.94,-94.26 3.26,-24.9 6.5,-42.12 2.44,-52.08 -4.08,-9.98 -15.48,-12.7 -25.92,-11.56 -10.46,1.14 -19.94,6.16 -33.58,20.48 -13.66,14.36 -31.46,38.02 -63.52,32.12 -102.1,-18.76 -161.62,-174.84 -175.36,-262.3 -65.18,-414.82 208.58,-692.48 10.64,-1177.6 -81.04,-198.64 -219.7,-369.04 -416.02,-457.8 -209,-94.5 -442.68,-139.4 -672.02,-122.94 -326.64,23.46 -585.52,160.28 -825.94,378.62 -39.9,36.24 -54.74,46.18 -70.66,54.26 -88.82,-53.54 -179.94,-103.28 -283.02,-154.16 -193.32,-95.44 -326.58,-147.96 -534.22,-196.9 -26.16,-6.16 -50.44,-9.76 -61.12,-12 -28.26,-11.7 -36.22,-29.4 -48.14,-42.78 -11.92,-13.38 -27.78,-22.44 -50.62,-32.38 -55.04,-23.94 -120.88,-44.28 -179,-59.72 -24.12,-6.42 -33.64,-3.24 -45.78,-0.3 -12.14,2.94 -8.88,15.92 -20.18,19.8 -11.32,3.86 -39.78,-6.54 -52.62,-7.72 -12.84,-1.18 -28.12,-3.46 -60.44,-8.42 -32.32,-4.98 -81.7,-12.64 -130.42,-17.36 -48.72,-4.74 -96.76,-21.72 -124,-36.38 -27.24,-14.64 -33.66,-26.94 -28.98,-54.02 21.36,-35.28 53.4,-91.7 59.14,-131.8 4.38,-30.52 4.44,-86.18 -6.78,-127.18 -6.8,-24.78 -10.66,-37.52 -0.7,-44.26 199.76,-135.08 331.96,-777.94 214.28,-971.88 -393.3,-642.04 -595.94,-1064.74 -972.66,-1192.66 -66.18,42.38 -254,-100.8 -274.02,-160.32 5.48,-1.08 69.76,-11.5 77.5,-13.32 36.36,-8.62 142.98,-33.2 159.28,-70.44 14.6,-33.38 -31.84,-91.04 -54.46,-112.08 -25.04,-23.28 -65.18,-53.62 -103.18,-78.52 -38.02,-24.92 -73.92,-44.4 -93.1,-71.66 -21.08,-29.92 -44.24,-150.3 -70.86,-206.46 -15.9,-33.52 -32.28,-62.74 -50.64,-90.68 158.52,37.74 288.18,120.9 413.1,222.34 93.68,76.06 169.12,146.52 252,218.08 135.42,116.98 144.8,127.86 316.04,159.78 228.76,42.68 705.62,116.5 765.26,3.74 10.68,-28.54 -22.18,-40.08 -41.86,-48.08 -28.1,-11.46 -201.86,-140.16 -285.02,-168.14 119.16,-36.92 251.1,5.06 323.42,34.94 55.22,22.84 107.12,59.88 157.42,88.76 29.26,16.78 60.46,32.68 101.56,36.2 75.66,6.48 340.02,-58.22 412.2,-102.24 26.6,-16.2 28.26,-32.56 16.32,-46.02 -11.92,-13.48 -37.44,-24.02 -71.64,-38.82 -160.16,-69.3 -325.14,-124.02 -488.74,-184.44 -87.1,-32.16 -199.08,-86.36 -291.36,-88.62 -14.66,-0.34 -25,-3.34 -21.96,-7.8 3.04,-4.46 19.48,-10.38 41.22,-13.74 117.78,-18.3 231.76,48.2 355.98,-14.3 37.1,-18.64 54.74,-47.3 60.24,-74.28 5.5,-26.96 -1.12,-52.22 -22.04,-64.58 -46.8,-27.64 -170.08,10.42 -248.26,-10 -169.72,-44.34 -337.08,-123 -516.82,-110.18 -97.38,6.88 -181.94,54.72 -276.84,60.04 -245.4,13.8 -456,-41.9 -691.3,-97.02 -235.42,-55.14 -425.66,-96.16 -659.34,4.8 -42.76,18.48 -189,97.3 -209.1,102.48 -19.7,5.1 -33.78,-3.16 -40.4,-16 -8,-15.56 -7.24,-85.1 -8.6,-107.7 102.46,-23.28 205.88,-42.16 388.16,-67.04l1867.64 -208.98c83.94,-9.14 163.04,-17.9 237.08,-26.34 222.14,-25.32 398.84,-47.76 525.18,-69.32 248.12,-42.32 546.72,-130.26 768.76,-251.26 28.92,-15.74 44.14,-28.76 28.16,-33.52 -86.72,-25.9 -179.58,-44.38 -282.8,-59.54 -122.34,-17.96 -262.52,-30.04 -438.02,-30.2 -175.5,-0.14 -386.28,11.64 -653.38,36 -50.1,4.56 -102.18,9.3 -155.68,14.92l-2190.76 230.4zm110.52 2525.2c-0.82,22.9 -29.38,33.9 -51.68,42.2 -22.34,8.28 -38.42,13.84 -35.32,37.12 3.1,23.28 25.38,64.26 49.12,108.62 23.72,44.36 48.9,92.1 75.12,139.92 26.24,47.82 53.52,95.76 60.2,124.74 6.68,28.98 -7.26,39 -21.02,43.74 -13.78,4.74 -27.38,4.18 -41.14,5.38 -13.76,1.2 -27.68,4.12 -26.84,14.6 0.88,10.46 16.52,28.48 31.58,45.74 15.06,17.24 29.52,33.74 60.72,36.24 31.2,2.52 79.12,-8.92 129.38,-21.82 50.24,-12.92 102.8,-27.3 134.74,-34.52 31.94,-7.24 43.26,-7.3 54.68,-8.18 11.42,-0.86 22.94,-2.54 30.98,4.82 8.04,7.36 12.58,23.72 15.64,38.04 3.04,14.3 4.6,26.54 17.26,31.66 12.68,5.14 36.44,3.16 35.92,-18.76 -0.5,-21.9 -25.3,-63.74 -77.18,-148.12 -51.86,-84.38 -130.82,-211.34 -206.24,-334.44 -75.44,-123.12 -147.34,-242.38 -194.5,-298.58 -47.14,-56.2 -69.54,-49.3 -97.1,-46.76 -27.56,2.56 -60.28,0.76 -92.86,-2.46 32.1,49.26 63.76,98.78 93.08,140.96 29.3,42.16 56.26,76.96 55.46,99.86zm-2452.36 802.38c52.38,3.08 189.66,2.54 195.48,-0.56 10.34,-2.42 21.8,-20.96 32.14,-36.94 28.76,-39.92 57.5,-79.86 86.24,-119.8 15.46,-20.36 29.84,-37.38 26.22,-46.54 -3.64,-9.14 -25.28,-10.42 -43.32,-6.64 -31.38,6.64 -69.72,13.1 -99.92,19.42l-181.48 38.02c-9.48,1.98 -26.4,12.92 -35.82,19.76l-81.14 53.24 0 0.06c-7.72,5.02 -15.6,12.88 -20.4,20.74 -8.44,13.9 -7.26,27.82 4.14,36.9 5.54,4.4 13.46,7.66 21.22,9.22 23.38,4.76 75.04,11.84 96.64,13.12z"/>
   <path class="fil5" d="M7963.21 4536.32c-6.37,14.74 7.19,243.95 15.6,304.01 3.43,24.47 8.59,18.02 43.97,16.14l441.34 -48.17 2057.4 -232.02c324.03,-42.63 681.33,-83.83 995.56,-179.39 73.33,-22.3 136.5,-42.52 153.18,-61.24 16.68,-18.73 -13.13,-29.95 -44.22,-37.52 -31.09,-7.56 -63.47,-11.47 -114.25,-18.87 -50.78,-7.39 -119.96,-18.28 -213.92,-27.75 -93.96,-9.47 -212.7,-17.52 -368.27,-12.82 -155.57,4.7 -347.96,22.16 -592.76,45.82l-2373.63 251.81z"/>
   <path class="fil5" d="M7772.66 4597.5c0.47,59.84 2.59,149.66 5.15,215.13 2.56,65.47 5.56,106.59 13.2,130.54 7.65,23.96 19.95,30.75 32.64,34.2 12.68,3.45 25.74,3.55 30.94,-21.67 5.2,-25.21 2.53,-75.74 0.68,-128.58 -1.85,-52.84 -2.87,-107.99 -6.23,-154.49 -3.35,-46.5 -9.05,-84.34 -10.66,-113.04 -1.61,-28.71 0.85,-48.28 1.71,-71.26 0.86,-22.99 0.12,-49.39 0.43,-73.39 0.31,-24.01 1.69,-45.63 -9.85,-51.6 -11.53,-5.97 -35.98,3.71 -47.48,25.42 -11.51,21.71 -10.09,55.45 -9.97,87.24 0.13,31.8 -1.04,61.66 -0.56,121.5z"/>
   <path class="fil5" d="M7450.59 4820.91c11.55,19.17 30.31,23.5 39.55,11.39 9.23,-12.12 8.95,-40.67 9.86,-78.03 0.92,-37.37 3.04,-83.55 4.31,-120.69 1.28,-37.15 1.71,-65.25 -3.07,-83.75 -4.79,-18.49 -14.78,-27.38 -25.82,-32.97 -11.04,-5.58 -23.13,-7.85 -33.61,-0.63 -10.48,7.21 -19.36,23.91 -23.69,44.52 -4.34,20.6 -4.12,45.11 -1.32,74.58 2.8,29.48 8.19,63.93 13.05,98.16 4.86,34.23 9.2,68.25 20.74,87.42z"/>
   <path class="fil5" d="M7555.7 4778.63c7.57,12.42 20.14,15.79 29.97,8.9 9.85,-6.89 16.97,-24.05 25.99,-60.37 9.02,-36.33 19.95,-91.81 16.82,-129.41 -3.14,-37.6 -20.33,-57.3 -38.53,-58.74 -18.19,-1.43 -37.39,15.42 -43.88,34.89 -6.49,19.46 -0.28,41.55 1.32,66.89 1.59,25.33 -1.43,53.91 -1.64,78.93 -0.22,25.03 2.37,46.49 9.95,58.91z"/>
   <path class="fil5" d="M7330.15 4854.98c16.82,14.64 43.49,14.95 51.77,-1.5 8.28,-16.45 -1.83,-49.66 -7.09,-84.74 -5.26,-35.08 -5.66,-72.05 -4.95,-111.48 0.71,-39.43 2.53,-81.32 -9.28,-100.77 -11.82,-19.45 -37.27,-16.46 -54.7,0.09 -17.43,16.54 -26.84,46.63 -28.97,72.47 -2.13,25.84 3.01,47.42 7.97,72.25 4.95,24.84 9.72,52.94 15.58,81.48 5.88,28.55 12.85,57.55 29.67,72.2z"/>
   <path class="fil5" d="M7504.52 5049.95c-6.63,31.03 3.38,57.83 11.87,82.7 8.48,24.87 15.43,47.82 12.22,59.41 -3.21,11.58 -16.58,11.8 -28.32,9.02 -11.75,-2.77 -21.86,-8.54 -33.65,-26.77 -11.8,-18.23 -25.28,-48.92 -28,-76.12 -2.71,-27.2 5.35,-50.91 13.11,-72.35 7.76,-21.44 15.2,-40.61 10.69,-49.88 -4.51,-9.27 -20.99,-8.64 -37.18,-5.31 -16.19,3.34 -32.11,9.38 -45.93,29.31 -13.81,19.93 -25.53,53.75 -38.23,88.38 -12.71,34.62 -26.39,70.04 -45.37,106.89 -18.99,36.86 -43.27,75.15 -22.87,102.23 20.39,27.09 85.47,42.97 139.57,54.86 54.11,11.88 97.24,19.77 125.03,23.81 27.78,4.05 40.2,4.25 51.11,4.48 10.9,0.23 20.29,0.49 26.43,-8.35 6.15,-8.83 9.06,-26.77 13.87,-42.94 4.8,-16.17 11.5,-30.58 22.41,-42.76 10.91,-12.19 26.03,-22.15 44.14,-29.24 18.11,-7.09 39.22,-11.31 48.38,-24.56 9.15,-13.27 6.35,-35.57 5.53,-64.74 -0.82,-29.15 0.33,-65.17 -2.7,-136.29 -3.04,-71.12 -10.27,-177.34 -15.68,-254.16 -5.42,-76.82 -9.02,-124.24 -15.23,-153.39 -6.2,-29.14 -15.02,-39.99 -27.09,-46.14 -11.42,92.03 -32.75,183.56 -56.21,245.2 -23.47,61.64 -49.08,93.39 -73.52,126.9 -24.45,33.51 -47.75,68.78 -54.38,99.81z"/>
   <path class="fil5" d="M7185.57 4771.64c9.76,10.95 26.32,19.4 37.74,16.46 11.41,-2.94 17.67,-17.26 18.64,-38.33 0.98,-21.07 -3.32,-48.89 -5.96,-72.07 -2.65,-23.17 -3.63,-41.7 -12.6,-50.08 -8.98,-8.37 -25.94,-6.6 -35.39,-0.82 -9.45,5.78 -11.4,15.56 -12.93,26.01 -1.54,10.45 -2.67,21.58 -3.46,35.2 -0.79,13.62 -1.23,29.71 0.02,44.48 1.25,14.78 4.19,28.21 13.94,39.15z"/>
   <path class="fil5" d="M7005.72 4907.41c10.64,30.61 25.41,43.04 36.75,44.73 11.33,1.68 19.21,-7.38 23.26,-19.18 4.06,-11.81 4.29,-26.36 1.72,-46.79 -2.56,-20.43 -7.93,-46.73 -11.72,-73.95 -3.79,-27.21 -6.01,-55.33 -7.78,-82.07 -1.78,-26.75 -3.1,-52.11 -10.75,-57.1 -7.64,-4.99 -21.62,10.4 -31.85,31.49 -10.23,21.09 -16.73,47.89 -16.74,85.68 -0.01,37.79 6.48,86.58 17.11,117.19z"/>
   <path class="fil5" d="M7216.83 4870.47c0,0 -5.8,26.27 -5.8,26.27 0,0 5.8,-26.27 5.8,-26.27z"/>
   <path class="fil5" d="M7284.39 4919.55c0,0 -2.81,13.97 -2.81,13.97 0,0 2.81,-13.97 2.81,-13.97z"/>
   <path class="fil5" d="M8262.97 5016.81c-16.46,10.9 8.56,24.76 48.54,37.22 39.98,12.48 94.9,23.56 174.42,36.46 79.5,12.9 183.6,27.62 274.26,59.24 90.68,31.62 167.92,80.12 256.26,148.06 88.34,67.94 187.78,155.3 271.98,232.06 143.46,130.78 247.82,196.58 450.58,222.78 119.5,15.44 287.78,44.08 417.88,43.84 56.66,-0.12 93.68,7.48 117.74,-6.12 -50.98,-40.92 -108.22,-74.68 -159.02,-93.76 -86.98,-32.66 -157.06,-27.96 -249.34,-45.24 -137.06,-25.66 -274.82,-53.26 -400.04,-116.86 -40.1,-20.34 -92.72,-50.76 -126.06,-81.28 -15,-13.72 -24.32,-28.48 -19.64,-35.98 4.66,-7.5 23.32,-7.76 38.82,-5.1 15.52,2.66 27.88,8.24 50.46,20.86 68.1,38.06 131.26,74.82 208.3,93.24 92.72,22.2 190.12,23 284.34,10.74 62.02,-8.06 113.3,-26.32 172.58,-42.48 53.82,-14.68 111.32,-9.72 165.02,3.1 30.3,7.22 56.62,17.38 122.12,45.44 65.52,28.06 170.24,74.02 247.96,91.4 77.74,17.38 128.5,6.16 166.42,-3.84 37.9,-10.02 63,-18.8 80.5,-25.76 17.52,-6.98 27.46,-12.1 36.72,-18.3 -124.46,-36.32 -247.76,-76.76 -353.48,-118.74 -105.7,-41.98 -193.82,-85.54 -276.5,-106.64 -82.68,-21.12 -159.88,-19.82 -250.36,-19.52 -90.46,0.26 -194.2,-0.48 -280.76,-4.4 -86.56,-3.9 -155.94,-10.96 -214.84,-20.12 -58.9,-9.16 -107.34,-20.42 -132.76,-37.02 -25.44,-16.6 -27.88,-38.52 -7.22,-43.54 20.66,-5.04 64.44,6.86 109.2,19.42 159.28,44.7 276.78,14.66 435.08,-30.02 100.78,-28.44 188.24,-65.6 294.94,-48.36 41.14,6.66 92.18,17.36 140.5,25.66 48.32,8.3 93.94,14.18 124.68,15.08 30.74,0.9 46.6,-3.18 60.58,-7.94 13.96,-4.78 26.04,-10.24 26.08,-16.1 0.04,-5.84 -11.94,-12.06 -31.7,-13.22 -19.78,-1.16 -47.36,2.74 -87.98,0.18 -40.64,-2.58 -94.34,-11.6 -147.56,-31.14 -53.22,-19.52 -105.96,-49.52 -173.6,-70.14 -67.66,-20.62 -150.24,-31.86 -213.26,-29.6 -63.02,2.26 -106.46,18 -151.4,30.98 -95.16,27.48 -174.32,28.96 -271.98,27.14 -166.08,-3.08 -325.5,-30.36 -488.2,-63.6 -90.64,-18.52 -192.44,-44.76 -291.3,-67.62 -130.76,-30.2 -190.58,-43.4 -322.54,-6.64 -56.28,15.68 -108.68,34.46 -126.42,46.18z"/>
   <path class="fil5" d="M7791.78 5034.66c5.19,-4.97 9.78,-18.27 6.88,-19.93 -2.9,-1.67 -13.28,8.28 -15.57,14.93 -2.3,6.64 3.5,9.98 8.69,5z"/>
   <path class="fil5" d="M7826.99 5256.39c0,12.61 12.93,29.23 52.7,67.78 39.76,38.56 106.37,99.04 147,135.51 40.64,36.47 55.29,48.92 68.75,63.24 13.44,14.33 25.68,30.55 37.47,36.74 11.79,6.18 23.14,2.34 38.93,-0.74 15.78,-3.07 36,-5.38 53.38,-6.6 17.37,-1.21 31.9,-1.33 45.33,3.96 13.43,5.3 25.77,15.99 37.97,27 12.2,11.02 24.27,22.35 41.11,27.32 16.85,4.97 38.47,3.59 63.84,1.35 25.37,-2.25 54.48,-5.36 81.77,-8.26 27.29,-2.91 52.76,-5.61 68.2,-13.55 15.45,-7.93 20.86,-21.1 22.93,-33.92 2.08,-12.82 0.81,-25.29 -3.74,-57.1 -4.54,-31.82 -12.35,-82.98 -31.7,-134.44 -19.35,-51.45 -50.23,-103.19 -78.93,-144.39 -28.7,-41.19 -55.2,-71.83 -96.12,-96.26 -40.9,-24.44 -96.22,-42.67 -163.21,-40.38 -67,2.29 -145.69,25.09 -207.6,52.33 -61.92,27.23 -107.07,58.91 -136.11,79.05 -29.04,20.14 -41.97,28.75 -41.97,41.36z"/>
   <path class="fil5" d="M7854.86 5167.61c-2.3,-12.22 -18.79,-25.95 -32.65,-23.15 -13.86,2.78 -25.09,22.1 -29.67,36.48 -4.57,14.37 -2.48,23.82 5.43,26.39 7.92,2.57 21.66,-1.75 34.47,-9.26 12.82,-7.52 24.72,-18.24 22.42,-30.46z"/>
   <path class="fil5" d="M7907.28 5499.73c34.93,24.95 64.47,52.75 92.37,73.29 27.9,20.54 54.15,33.83 63.15,29.82 8.99,-4.02 0.74,-25.33 -18.83,-46.01 -19.57,-20.69 -50.44,-40.74 -81.39,-67.96 -30.94,-27.21 -61.95,-61.59 -92.96,-95.57 -31.02,-33.99 -62.04,-67.56 -92.46,-81.61 -30.42,-14.04 -60.24,-8.56 -76.55,0.92 -16.31,9.48 -19.1,22.95 -1.67,43.28 17.43,20.33 55.08,47.52 94.08,72.16 38.99,24.64 79.32,46.74 114.26,71.68z"/>
   <path class="fil5" d="M7181.15 5815.45c-7.27,75.47 -1.57,137.91 10.59,171.27 12.15,33.37 30.76,37.65 45.88,41.49 15.12,3.84 26.76,7.25 24.53,15.96 -2.24,8.7 -18.33,22.7 -30.83,36.59 -12.49,13.88 -21.38,27.67 -4.71,39.17 16.66,11.5 58.89,20.71 99.14,30.48 40.26,9.76 78.54,20.07 111.62,35.7 33.07,15.65 60.94,36.62 86.81,56.22 25.88,19.59 49.78,37.82 69.17,60.31 19.38,22.49 34.24,49.25 50.51,74.7 16.26,25.45 33.92,49.6 55.44,62.44 21.51,12.85 46.87,14.41 71.21,18.13 24.34,3.72 47.65,9.59 57.31,28.51 9.67,18.93 5.69,50.91 -4.81,70.69 -10.49,19.79 -27.49,27.39 -43.56,33.3 -16.05,5.91 -31.16,10.13 -27.65,15.43 3.52,5.31 25.66,11.71 49.23,22.25 23.57,10.53 48.56,25.21 67.27,37.16 18.72,11.94 31.16,21.15 48.06,27.22 16.9,6.05 38.27,8.96 70.05,13.67 31.79,4.71 73.98,11.23 106.57,11.46 32.59,0.22 55.57,-5.84 63.33,-15.79 7.76,-9.94 0.29,-23.77 -6.95,-35.89 -7.23,-12.11 -14.25,-22.52 1.93,-40.64 16.16,-18.12 55.53,-43.96 95.19,-71.41 39.65,-27.44 79.61,-56.51 119.66,-85.43 -13.09,-15.85 -27.87,-30.25 -48.89,-46.71 -21.02,-16.47 -48.28,-35 -75.31,-50.65 -27.03,-15.65 -53.82,-28.42 -73.24,-36.13 -19.43,-7.7 -31.49,-10.34 -42.04,-12.56 -10.55,-2.21 -19.59,-3.99 -32.06,4.91 -12.48,8.89 -28.39,28.48 -43.37,50.24 -14.96,21.77 -28.99,45.73 -49.89,54.25 -20.91,8.52 -48.69,1.62 -76.84,-2.51 -28.14,-4.13 -56.63,-5.49 -79.44,-16.2 -22.83,-10.7 -39.96,-30.75 -39.66,-57.77 0.31,-27 18.06,-60.96 34.15,-84.18 16.1,-23.21 30.52,-35.69 31.07,-50.77 0.55,-15.08 -12.78,-32.77 -27.05,-45.13 -14.27,-12.37 -29.47,-19.43 -46.33,-18.65 -16.85,0.78 -35.37,9.39 -51.85,14.85 -16.49,5.45 -30.96,7.76 -44.07,0.92 -13.12,-6.83 -24.9,-22.8 -32.96,-41.49 -8.08,-18.7 -12.44,-40.13 -14.5,-63.69 -2.06,-23.56 -1.81,-49.24 -3.12,-70.3 -1.32,-21.06 -4.19,-37.51 -12.12,-47.91 -7.92,-10.4 -20.9,-14.76 -44.4,-10.9 -23.5,3.87 -57.52,15.95 -81.03,21.5 -23.51,5.53 -36.52,4.53 -43.66,-3.19 -7.14,-7.72 -8.4,-22.16 -5.72,-38.71 2.69,-16.55 9.33,-35.21 19.65,-55.61 10.31,-20.39 24.3,-42.53 38.67,-63.64 14.36,-21.11 29.12,-41.19 30.77,-58.28 1.65,-17.09 -9.78,-31.19 -18.15,-47.78 -8.36,-16.59 -13.64,-35.68 -13.26,-62.08 0.37,-26.4 6.41,-60.11 11.57,-83.82 5.16,-23.7 9.45,-37.39 -3.29,-45.97 -12.74,-8.58 -42.5,-12.05 -83.81,-20.32 -41.31,-8.27 -94.17,-21.36 -132.28,-8.35 -38.1,13 -61.45,52.09 -83.24,115.88 -21.79,63.79 -42.02,152.29 -49.29,227.76z"/>
   <path class="fil5" d="M7595.09 5669.66c18.53,21.85 53.3,24.34 83.89,24.1 30.58,-0.24 56.98,-3.19 90.9,-8.06 33.93,-4.86 75.38,-11.64 110.96,-17.24 35.59,-5.59 65.3,-10.02 76.88,-19.79 11.59,-9.78 5.04,-24.92 -9.03,-33.72 -14.08,-8.8 -35.67,-11.27 -53.64,-16.6 -17.97,-5.33 -32.31,-13.53 -51.06,-25.26 -18.76,-11.74 -41.93,-27.01 -65.28,-40.74 -23.36,-13.73 -46.91,-25.92 -69.46,-38.55 -22.54,-12.63 -44.09,-25.69 -63.03,-24.93 -18.93,0.77 -35.26,15.37 -47.2,33.75 -11.94,18.39 -19.48,40.56 -22.11,72.25 -2.63,31.7 -0.35,72.93 18.18,94.79z"/>
   <path class="fil5" d="M8205.54 5706.4c24.21,-6.25 41.09,-32.04 47.73,-52.31 6.64,-20.28 3.04,-35.04 -6.58,-41.71 -9.61,-6.68 -25.24,-5.26 -43.55,-4.89 -18.3,0.38 -39.28,-0.28 -53.87,12.64 -14.6,12.92 -22.82,39.42 -11.16,59.32 11.67,19.89 43.22,33.19 67.43,26.95z"/>
   <path class="fil5" d="M8307.25 5724.56c14.88,7.1 55.01,5.28 99.22,8.04 44.22,2.76 92.52,10.1 135.95,13.31 43.44,3.2 82.01,2.27 116.41,2.8 34.41,0.53 64.64,2.52 82.08,-3.66 17.43,-6.18 22.05,-20.54 15.5,-30.72 -6.55,-10.18 -24.27,-16.17 -41.31,-24.66 -17.03,-8.48 -33.39,-19.45 -49.44,-30.2 -16.04,-10.75 -31.78,-21.3 -54.41,-24.15 -22.64,-2.87 -52.16,1.95 -86.34,6.38 -34.16,4.44 -72.98,8.51 -105.72,13.26 -32.73,4.75 -59.39,10.19 -76.05,15.39 -16.66,5.19 -23.33,10.15 -31.86,20.63 -8.52,10.48 -18.9,26.49 -4.03,33.58z"/>
   <path class="fil5" d="M7567.21 5853.95c51.69,-18.02 103.67,-35.21 173.33,-56.67 69.67,-21.46 157.03,-47.17 212.21,-63.77 55.17,-16.6 78.16,-24.09 86.79,-31.69 8.62,-7.61 2.89,-15.32 -37.26,-13.26 -40.16,2.06 -114.72,13.91 -185.19,23.33 -70.48,9.41 -136.84,16.38 -172.69,28.16 -35.84,11.78 -41.16,28.36 -49.03,48.11 -7.88,19.74 -18.3,42.65 -28.16,65.79z"/>
   <path class="fil5" d="M6304.03 6028.39c28.42,60.08 55.38,125.87 66.35,171.71 10.97,45.84 5.95,71.72 4.09,102.44 -1.86,30.7 -0.56,66.25 -10.74,81.27 -10.18,15.02 -31.83,9.51 -43.57,-7.64 -11.73,-17.15 -13.54,-45.95 -17.77,-82.57 -4.25,-36.62 -10.92,-81.07 -18.46,-117.35 -7.54,-36.28 -15.94,-64.4 -20.79,-63.02 -4.86,1.37 -6.16,32.23 -7.73,71.08 -1.57,38.86 -3.43,85.71 -10.27,115.88 -6.83,30.16 -18.65,43.64 -42.49,47.33 -23.84,3.69 -59.7,-2.41 -104.5,-10.12 -44.79,-7.7 -98.53,-17.01 -157.02,-12.98 -58.48,4.02 -121.72,21.37 -164.6,33.61 -42.89,12.24 -65.43,19.36 -90.42,25.76 -24.98,6.4 -52.41,12.07 -77.11,18.66 -24.68,6.59 -46.65,14.1 -75.03,34.56 -28.37,20.47 -63.18,53.88 -89.42,101.36 -26.24,47.49 -43.91,109.04 -69.48,165.3 -25.58,56.27 -59.04,107.25 -88.16,145.21 -29.12,37.96 -53.88,62.89 -79.24,92.3 -25.37,29.42 -51.32,63.32 -57.23,88.64 -5.9,25.31 8.24,42.03 27.87,63.8 19.62,21.76 44.72,48.56 71.44,75.03 26.73,26.47 55.08,52.6 73.29,73.94 18.21,21.34 26.28,37.86 31.44,53.41 5.15,15.55 7.37,30.11 16.04,35.68 8.67,5.56 23.77,2.15 40,-9.83 16.22,-11.97 33.56,-32.5 73.5,-61.86 39.95,-29.35 102.49,-67.54 156.69,-104.47 54.19,-36.93 100.02,-72.61 153.53,-116.17 53.52,-43.56 114.7,-95.01 177.6,-138.66 62.9,-43.65 127.5,-79.49 180.53,-112.04 53.02,-32.54 94.47,-61.77 120.28,-87.19 25.81,-25.41 35.97,-47.02 47.37,-67.64 11.41,-20.63 24.04,-40.29 45.21,-57.37 21.16,-17.08 50.87,-31.59 80.28,-46.45 29.42,-14.85 58.55,-30.04 78.16,-45.63 19.62,-15.59 29.72,-31.6 37.52,-43.76 7.8,-12.16 13.3,-20.48 8.89,-28.47 -4.41,-7.98 -18.73,-15.63 -26.53,-32.26 -7.81,-16.64 -9.09,-42.27 -19.29,-88.59 -10.2,-46.33 -29.31,-113.35 -46.51,-163.5 -17.19,-50.15 -32.46,-83.43 -46.51,-116.88 -14.05,-33.44 -26.88,-67.07 -49.06,-94.32 -22.17,-27.25 -53.71,-48.13 -85.56,-69.16 -31.86,-21.03 -64.05,-42.2 -106.44,-55.15 -42.4,-12.95 -95,-17.66 -104.76,-13.35 -9.76,4.31 23.33,17.64 52.21,32.59 28.88,14.95 53.54,31.5 80.81,66.96 27.28,35.47 57.16,89.83 85.59,149.91z"/>
   <path class="fil5" d="M7917.74 5880.06c-10.85,10.09 -26.64,17.08 -39.36,20.77 -12.72,3.67 -22.36,4.04 -32.16,-0.7 -9.8,-4.74 -19.76,-14.58 -29.93,-19.89 -10.18,-5.3 -20.58,-6.06 -34.47,-4.56 -13.89,1.5 -31.26,5.25 -48.34,11 -17.08,5.75 -33.86,13.51 -38.68,32.59 -4.82,19.08 2.33,49.49 7.36,75.96 5.04,26.45 7.98,48.96 21.54,55.52 13.57,6.56 37.76,-2.84 59.62,-12.73 21.85,-9.9 41.37,-20.28 58.58,-12.99 17.21,7.28 32.1,32.25 48.28,57.81 16.19,25.56 33.67,51.72 50.42,78.32 45.34,-78.22 88.56,-157.8 112.71,-209.49 24.16,-51.69 29.24,-75.49 38.69,-80.76 9.45,-5.24 23.26,8.05 24.46,29.82 1.2,21.77 -10.2,52.01 -23.61,83.49 -13.41,31.49 -28.83,64.22 -53.16,108.38 -24.33,44.15 -57.57,99.74 -80.62,132.97 -23.04,33.23 -35.88,44.11 -46.54,55.56 -10.67,11.44 -19.16,23.44 -16.86,31.94 2.29,8.48 15.38,13.45 27.86,13.91 12.49,0.47 24.39,-3.59 42.45,-22.87 18.07,-19.29 42.3,-53.81 68.16,-100.52 25.84,-46.71 53.31,-105.62 71.34,-151.98 18.04,-46.37 26.64,-80.19 35.78,-112.06 9.14,-31.87 18.8,-61.78 21.97,-87.12 3.16,-25.34 -0.17,-46.09 -6.64,-44.77 -6.47,1.34 -16.08,24.75 -28.94,30.72 -12.86,5.96 -28.96,-5.52 -36.67,-20.18 -7.71,-14.66 -7.02,-32.48 -16.64,-35.76 -9.62,-3.27 -29.55,8.01 -52.47,14.47 -22.92,6.47 -48.84,8.12 -62.9,15.1 -14.07,6.99 -16.29,19.3 -20.36,32.05 -4.08,12.74 -10.01,25.92 -20.87,36z"/>
   <path class="fil5" d="M8217.61 6049.37c-21.02,54.42 -33.54,89.18 -46.04,123.94 78.54,26.16 154.66,61.12 207.2,94.54 52.56,33.44 81.54,65.34 100,85.88 18.48,20.52 26.4,29.68 56.56,14.96 30.16,-14.74 82.56,-53.34 149.54,-99.66l502.88 -114.2c22.7,-14.34 10.57,-29.59 -14.94,-44.43 -28.12,-16.35 -149.13,-79.81 -184.59,-93.89 -80.63,-32.01 -175.48,-42.57 -193.01,-53.48 -34.78,-19.64 -97.02,-93.4 -100.44,-96.44 -57.6,-1.54 -94.7,0.72 -152.66,-1.8 -66.14,-2.88 -155.4,-9.3 -244.42,-17.94 -29.54,74.06 -59.06,148.12 -80.08,202.52z"/>
   <path class="fil5" d="M6632.56 6152.19c7.08,20.91 8.51,34.1 19.4,39.26 10.9,5.16 31.26,2.28 50.71,2.65 19.45,0.37 37.97,3.99 57.61,10.51 19.64,6.54 40.4,15.97 52.44,26.93 12.04,10.95 15.37,23.42 19.97,35.16 4.6,11.74 10.47,22.74 26.12,28.42 15.65,5.69 41.08,6.05 68.01,10.37 26.94,4.33 55.38,12.62 127.56,54.03 72.18,41.42 188.1,115.96 265.79,174.15 77.7,58.18 117.18,100.01 162.63,171.67 45.46,71.66 96.9,173.16 142.98,279.8 46.09,106.64 86.81,218.42 119.07,304.97 32.25,86.55 56.04,147.87 77.83,177.07 21.78,29.21 41.56,26.29 63.03,28.78 21.46,2.5 44.61,10.42 61.45,20.59 16.82,10.18 27.33,22.62 37.2,30.34 9.87,7.72 19.09,10.71 23.42,4.84 4.32,-5.88 3.74,-20.63 5.57,-40.93 1.84,-20.3 6.09,-46.17 11.87,-63.15 5.78,-16.98 13.09,-25.07 20.85,-33.89 7.75,-8.81 15.95,-18.35 6.87,-41.12 -9.08,-22.78 -35.43,-58.77 -60.5,-99.85 -25.08,-41.07 -48.87,-87.21 -65.7,-132.59 -16.84,-45.37 -26.71,-89.99 -25.15,-119.41 1.55,-29.41 14.54,-43.61 29.61,-54.61 15.07,-11.01 32.23,-18.8 34.12,-32.67 1.89,-13.87 -11.47,-33.83 -27.81,-57.01 -16.34,-23.19 -35.65,-49.6 -55.65,-78.62 -20.01,-29.02 -40.7,-60.64 -66.14,-80.68 -25.44,-20.03 -55.62,-28.48 -81.66,-38.71 -26.05,-10.22 -47.95,-22.21 -59.75,-34.8 -11.8,-12.58 -13.5,-25.76 -18.74,-35.77 -5.25,-10 -14.05,-16.84 -26.41,-26.38 -12.36,-9.55 -28.29,-21.81 -32.76,-34.44 -4.46,-12.63 2.52,-25.63 16.11,-34.29 13.59,-8.67 33.76,-13.01 33.16,-31.47 -0.59,-18.46 -21.96,-51.06 -44.9,-80.57 -22.93,-29.51 -47.43,-55.95 -73.01,-78.11 -25.58,-22.17 -52.24,-40.08 -84.03,-58.84 -31.78,-18.75 -68.7,-38.37 -102.82,-48.89 -34.11,-10.51 -65.43,-11.93 -94.99,-14.72 -29.55,-2.8 -57.33,-6.98 -76.05,-18.27 -18.72,-11.28 -28.38,-29.69 -31.18,-46.53 -2.79,-16.84 1.29,-32.12 -7.97,-42.95 -9.24,-10.83 -31.81,-17.21 -59.07,-20.63 -27.26,-3.41 -59.21,-3.86 -95.64,-0.48 -36.42,3.37 -77.33,10.57 -106.59,13.51 -29.26,2.94 -46.88,1.63 -65.02,-0.05 -18.13,-1.68 -36.77,-3.75 -40.91,-14.83 -4.14,-11.09 6.23,-31.19 15.85,-47.04 9.61,-15.85 18.46,-27.44 12.73,-33.71 -5.73,-6.28 -26.04,-7.24 -46.67,-10.7 -20.64,-3.46 -41.62,-9.43 -65.15,-12.71 -23.53,-3.29 -49.6,-3.92 -70.46,2.48 -20.86,6.4 -36.51,19.83 -37.27,38.62 -0.76,18.79 13.37,42.94 26.8,69.34 13.43,26.38 26.16,55.02 33.24,75.93z"/>
   <path class="fil5" d="M5657.04 6148.24c58.01,4.14 111.88,20.45 155.75,32.05 43.86,11.6 77.72,18.48 117.36,19.19 39.65,0.72 85.08,-4.72 126.59,-10.1 41.52,-5.37 79.11,-10.68 98.04,-23.18 18.92,-12.51 19.18,-32.21 15.28,-49.68 -3.9,-17.47 -11.95,-32.71 -19.47,-48.96 -7.51,-16.25 -14.5,-33.52 -39.74,-45.59 -25.25,-12.08 -68.73,-18.96 -113.01,-26.34 -44.27,-7.38 -89.33,-15.24 -132.11,-14.24 -42.77,1.01 -83.26,10.87 -148.05,42.14 -64.78,31.28 -153.87,83.96 -167.34,106.29 -13.46,22.32 48.69,14.28 106.7,18.42z"/>
   <path class="fil5" d="M6566.31 6544.77c-7.8,26.28 8,43.2 30.37,38.23 22.38,-4.97 51.33,-31.83 79.72,-61.23 28.38,-29.39 56.2,-61.33 79.19,-96.24 22.99,-34.91 41.14,-72.81 45.67,-98.47 4.52,-25.66 -4.57,-39.09 -15.2,-49.77 -10.62,-10.68 -22.78,-18.62 -37.25,-6.27 -14.48,12.33 -31.29,44.95 -50.33,77.7 -19.03,32.75 -40.29,65.64 -66.63,99.9 -26.34,34.26 -57.75,69.88 -65.54,96.15z"/>
   <path class="fil5" d="M6797.59 6559.86c41.71,46.39 80.15,95.66 118.32,152.17 38.16,56.51 76.03,120.26 100.77,169.13 24.73,48.87 36.33,82.85 47.1,131.59 10.78,48.74 20.72,112.23 25.47,179.81 4.74,67.59 4.3,139.27 -4.53,202.97 -8.83,63.7 -26.02,119.43 -44.09,155.62 -18.06,36.19 -36.99,52.85 -59.85,61.39 29.3,-64.13 47.74,-132.9 54.67,-217.66 6.93,-84.76 2.35,-185.52 -5.48,-254.65 -7.82,-69.13 -18.89,-106.63 -26.39,-141.11 -7.5,-34.48 -11.43,-65.93 -27.62,-101.37 -16.19,-35.44 -44.65,-74.87 -72.56,-115.38 -27.91,-40.52 -55.28,-82.11 -74.26,-106.93 -18.99,-24.81 -29.6,-32.84 -40.89,-41.73 -11.28,-8.88 -23.22,-18.61 -41.57,-13.89 -18.35,4.71 -43.1,23.88 -76.59,45.6 -33.49,21.74 -75.72,46.02 -111.19,65.86 -35.47,19.84 -64.19,35.22 -113.28,71.21 -49.1,35.98 -118.58,92.55 -188.47,148.62 -69.88,56.06 -140.2,111.61 -207.97,161.47 -67.78,49.87 -133.02,94.05 -191.83,138.73 -58.79,44.69 -111.14,89.88 -162.08,131.26 -50.94,41.38 -100.46,78.93 -120.11,106.25 -19.65,27.31 -9.42,44.39 -0.65,62.69 8.78,18.31 16.1,37.86 36.81,37.86 20.72,0.01 54.81,-19.51 90.5,-35.59 35.69,-16.08 72.99,-28.71 149.38,-44.36 76.39,-15.64 191.89,-34.29 283.1,-51.21 91.21,-16.91 158.14,-32.09 210.01,-49.56 51.89,-17.47 88.74,-37.22 123.23,-69.49 34.49,-32.27 66.64,-77.05 84.73,-128.75 18.09,-51.7 22.14,-110.3 15.23,-158.61 -6.92,-48.32 -24.79,-86.34 -41.08,-119.09 -16.29,-32.74 -31.01,-60.22 -28.05,-77.32 2.95,-17.11 23.57,-23.84 40.46,-13.96 16.89,9.87 30.04,36.35 43.68,63.01 13.63,26.66 27.75,53.5 37.79,104.83 10.04,51.33 15.99,127.16 13.23,183.5 -2.77,56.33 -14.24,93.2 -33.64,131.29 -19.4,38.1 -46.72,77.44 -93.24,115.1 -46.53,37.65 -112.26,73.62 -157.48,94.34 -45.22,20.72 -69.93,26.19 -95.6,29.8 -25.66,3.61 -52.28,5.35 -77.74,26.66 -25.47,21.3 -49.79,62.17 -76.68,104.44 -26.89,42.26 -56.36,85.93 -85.47,129.83 45.45,6.43 91.34,9.73 139.94,9.27 48.6,-0.45 99.92,-4.65 153.37,-7.95 53.45,-3.31 109.04,-5.71 213.63,-8.79 104.58,-3.07 258.17,-6.82 387.99,-16.78 129.82,-9.96 235.88,-26.14 338.8,-42.79 102.93,-16.66 202.73,-33.79 257.17,-48.31 54.45,-14.52 63.53,-26.41 71.03,-40.4 7.51,-13.99 13.44,-30.08 18.11,-45.41 4.66,-15.33 8.07,-29.94 16.82,-40.6 8.74,-10.67 22.81,-17.4 25.03,-52.92 2.22,-35.52 -7.41,-99.82 -20.11,-160.59 -12.71,-60.75 -28.48,-117.96 -58.24,-209.85 -29.76,-91.9 -73.5,-218.48 -114.16,-306.8 -40.66,-88.31 -78.23,-138.36 -118.87,-182.32 -40.63,-43.97 -84.32,-81.86 -124.09,-116.15 -39.77,-34.3 -75.63,-65.02 -110.42,-94.61 -34.8,-29.58 -68.52,-58.04 -93.6,-74.52 -25.08,-16.49 -41.5,-21 -55.11,-23.96 -13.61,-2.94 -24.41,-4.34 -35.74,10.81 -11.35,15.14 -23.24,46.83 -40.96,81.18 -17.72,34.36 -41.29,71.4 -66.68,107.12z"/>
   <path class="fil5" d="M6400.64 6691.18c12.43,20.67 36.96,26.63 58.62,20.79 21.65,-5.84 40.44,-23.49 45.13,-46.93 4.69,-23.45 -4.7,-52.69 -26.51,-64.54 -21.82,-11.84 -56.05,-6.3 -73.01,14.16 -16.95,20.46 -16.64,55.84 -4.23,76.52z"/>
   <path class="fil5" d="M6035.92 6911.25c-61.19,39.69 -122.09,91.32 -184.17,142.22 -62.09,50.9 -125.39,101.07 -189.88,148.43 -64.5,47.37 -130.19,91.92 -162.55,125.25 -32.37,33.31 -31.4,55.4 19.27,29.99 50.67,-25.41 151.02,-98.31 248.5,-170.15 97.48,-71.85 192.09,-142.64 269.75,-199.43 77.65,-56.8 138.35,-99.59 191.41,-135.02 53.05,-35.42 98.45,-63.49 110.82,-84.04 12.37,-20.55 -8.28,-33.59 -33.61,-24.42 -25.34,9.19 -55.35,40.59 -101.1,70.17 -45.76,29.58 -107.25,57.32 -168.44,97z"/>
   <path class="fil5" d="M5022.04 7179.43c37.03,15.61 86.06,32 123.59,54.68 37.52,22.7 63.56,51.69 85.77,80.32 22.21,28.62 40.59,56.89 55.44,62.38 14.85,5.49 26.15,-11.79 20.8,-35.2 -5.35,-23.41 -27.36,-52.95 -57.81,-90.06 -30.45,-37.11 -69.33,-81.78 -105.33,-110.37 -35.99,-28.6 -69.1,-41.11 -100.13,-46.01 -31.03,-4.91 -59.99,-2.21 -77.89,5.55 -17.9,7.76 -24.73,20.58 -15.63,34.41 9.11,13.83 34.15,28.68 71.19,44.3z"/>
   <path class="fil5" d="M4787 7425.63c1.62,17.28 6.86,44.7 12.55,72.34 5.69,27.65 11.83,55.51 14.92,80.59 3.08,25.08 3.11,47.38 0.2,67.33 -2.93,19.96 -8.79,37.56 -12.72,54.92 -3.92,17.36 -5.9,34.49 6.64,46.46 12.53,11.97 39.59,18.78 69.68,2.59 30.09,-16.19 63.22,-55.39 117.8,-118.4 54.58,-63.01 130.62,-149.83 205.21,-237.85 -39.2,-50.17 -85.2,-96.15 -120.36,-122.12 -35.16,-25.97 -59.48,-31.93 -81.62,-38.55 -22.14,-6.62 -42.1,-13.88 -65.28,-5.31 -23.19,8.58 -49.6,33 -72.52,60.12 -22.92,27.13 -42.36,56.96 -53.79,75.14 -11.44,18.17 -14.87,24.69 -17.59,31.5 -2.73,6.83 -4.74,13.96 -3.12,31.24z"/>
   <path class="fil5" d="M5344.39 7520.21c19.77,3.2 44.4,-6.3 54.76,-23.93 10.35,-17.63 6.44,-43.39 -10.77,-55.11 -17.21,-11.71 -47.71,-9.38 -65.52,0.31 -17.81,9.68 -22.93,26.71 -18.03,43.17 4.89,16.46 19.79,32.35 39.56,35.56z"/>
   <path class="fil5" d="M5505.07 7751.08c11.71,7.63 28.93,-0.22 36.15,-16.8 7.21,-16.58 4.43,-41.89 0.46,-64.42 -3.96,-22.52 -9.1,-42.24 -15.83,-59.19 -6.73,-16.96 -15.05,-31.14 -23.71,-46.27 -8.65,-15.12 -17.65,-31.2 -27.63,-36.99 -9.98,-5.79 -20.96,-1.3 -29.48,6.3 -8.51,7.6 -14.56,18.3 -12.61,35.66 1.95,17.37 11.89,41.39 21.32,63.82 9.43,22.41 18.34,43.22 25.89,65.18 7.55,21.96 13.74,45.07 25.44,52.71z"/>
   <path class="fil5" d="M7680.24 7623.74c4.42,7.98 20.65,13.96 38.62,16.43 17.98,2.47 37.71,1.43 49.7,15.18 11.99,13.75 16.24,42.28 0.33,72.69 -15.9,30.4 -51.95,62.66 -81.12,83.58 -29.18,20.92 -51.48,30.5 -55.57,44.57 -4.09,14.07 10.04,32.63 27.75,47.31 17.7,14.68 38.98,25.48 63.64,39.88 24.65,14.41 52.69,32.42 93.07,44 40.39,11.59 93.13,16.75 137.5,15.99 44.37,-0.76 80.35,-7.44 114.32,-19.97 -3.96,-67.71 -8.7,-135.37 -11.22,-191.22 -2.53,-55.86 -2.84,-99.91 -16.28,-126.57 -13.44,-26.66 -40,-35.95 -70.43,-54.06 -30.44,-18.11 -64.75,-45.04 -107.18,-51.21 -42.43,-6.17 -93,8.43 -123.16,17.81 -30.16,9.37 -39.93,13.51 -48.49,20.57 -8.56,7.06 -15.92,17.03 -11.48,25.02z"/>
   <path class="fil5" d="M5154.38 7841.2c56.26,0.56 113.78,-7.88 150.7,-20.7 36.92,-12.82 53.24,-30.04 69.1,-46.2 15.86,-16.15 31.25,-31.25 34.93,-48.28 3.68,-17.04 -4.36,-36 -11.52,-56.56 -7.17,-20.56 -13.46,-42.7 -27.42,-49.02 -13.96,-6.31 -35.58,3.2 -51.93,16.78 -16.35,13.58 -27.43,31.22 -42.02,47.08 -14.59,15.86 -32.7,29.91 -47.3,46.14 -14.61,16.22 -25.71,34.6 -37.55,53.41 -11.85,18.81 -24.45,38.06 -36.99,57.35z"/>
   <path class="fil5" d="M8230.7 7686.89c-28.64,3.73 -44.68,4.04 -60.41,8.02 -15.75,3.98 -31.19,11.61 -37.45,34.19 -6.25,22.59 -3.31,60.13 -0.03,104.16 3.28,44.04 6.89,94.57 11.81,144.97l447.16 20.74c3.03,-52.44 3.52,-105.02 0.84,-154.94 -2.67,-49.92 -8.53,-97.18 -10.32,-126.97 -1.78,-29.78 0.49,-42.1 1.34,-51.78 0.85,-9.68 0.27,-16.74 -6.88,-22.54 -7.16,-5.8 -20.89,-10.36 -36.75,-11.92 -15.86,-1.56 -33.84,-0.14 -67.22,6.7 -33.38,6.84 -82.16,19.09 -127.18,28.79 -45.01,9.7 -86.27,16.85 -114.91,20.58z"/>
   <path class="fil5" d="M8686.24 8015.73c68.13,-6.36 136.24,-12.74 177.21,-24.74 40.97,-12.01 54.77,-29.65 68.57,-47.3 -23.98,-43.48 -48.99,-86.4 -73.82,-129.18 -24.84,-42.78 -49.5,-85.42 -71.28,-108.47 -21.78,-23.04 -40.68,-26.49 -63.42,-27.06 -22.74,-0.58 -49.32,1.72 -74.92,7.61l37.66 329.14z"/>
   <path class="fil1" d="M6999.21 7836.46c-104.97,13.05 -234.54,29.72 -364.88,38.01 -130.33,8.3 -261.42,8.22 -351.27,10.46 -89.85,2.25 -138.46,6.81 -191.5,6.21 -53.04,-0.61 -110.5,-6.38 -167.85,-9.79 -57.36,-3.4 -114.59,-4.43 -164.51,-8.15 -49.91,-3.72 -92.5,-10.12 -131.22,-14.84 -38.73,-4.73 -73.59,-7.78 -98.91,-12.12 -25.32,-4.35 -41.1,-9.98 -50.07,-2.09 -8.97,7.9 -11.13,29.33 -13.36,59.08 -2.24,29.76 -4.55,67.84 -5.33,96.87 -0.78,29.04 -0.04,49.02 3.24,66.47 3.28,17.46 9.08,32.39 17.26,45.95 170.4,7.11 340.91,11.34 503.85,14.77 162.96,3.42 318.34,6.04 504.24,-14.03 185.91,-20.07 402.35,-62.82 562.63,-101.85 160.27,-39.04 264.39,-74.37 335.91,-103.87 71.53,-29.51 110.46,-53.19 149.44,-76.33 38.99,-23.14 78.03,-45.73 101.31,-61.03 23.29,-15.29 30.84,-23.29 34.71,-31.75 3.86,-8.46 4.05,-17.4 -5.24,-19.73 -9.3,-2.33 -28.08,1.95 -68.34,12.55 -40.26,10.59 -102,27.52 -161.32,40.79 -59.32,13.27 -116.22,22.89 -184.85,32.42 -68.63,9.52 -148.98,18.95 -253.94,32z"/>
   <path class="fil5" d="M7055.17 8100.62c-78.59,22.49 -169.38,46.46 -315.35,72.16 -145.98,25.7 -347.14,53.12 -487.84,64.39 -140.7,11.27 -220.94,6.41 -281.19,3 -60.26,-3.41 -100.54,-5.37 -125.91,2.95 -25.36,8.31 -35.8,26.88 -46.96,50.46 -11.16,23.59 -23.05,52.19 -45.73,106.4 -22.68,54.21 -56.16,134.04 -75.58,204.08 -19.43,70.03 -24.8,130.27 -30.33,168.3 -5.54,38.04 -11.23,53.87 -19.27,68.6 74.33,25.78 149.68,48.7 212.16,64.74 62.48,16.05 112.07,25.21 156.65,32.84 44.58,7.62 84.13,13.68 138.48,21.19 54.36,7.5 123.53,16.45 194.56,24.52 71.02,8.06 143.91,15.24 196.69,20.17 52.77,4.93 85.43,7.61 113.32,6.17 27.9,-1.44 51.02,-6.99 91.07,-39.1 40.07,-32.1 97.06,-90.75 154.5,-148.83 57.44,-58.08 115.35,-115.6 215.5,-185.01 100.17,-69.41 242.59,-150.69 333.31,-195.94 90.72,-45.23 129.74,-54.42 169.23,-62.75 39.5,-8.33 79.48,-15.8 103.23,-27.12 23.75,-11.32 31.27,-26.46 34.7,-46.64 3.42,-20.19 2.76,-45.4 -3.05,-84.84 -5.81,-39.45 -16.76,-93.13 -49.7,-141.56 -32.93,-48.42 -87.87,-91.59 -121.51,-118.13 -33.64,-26.53 -46,-36.44 -71.13,-33.86 -25.14,2.6 -63.06,17.68 -103.27,37.99 -40.21,20.3 -82.7,45.82 -137.15,69.08 -54.44,23.25 -120.84,44.26 -199.43,66.74z"/>
   <path class="fil5" d="M9191.21 8622.77c11.64,-35.18 20.43,-71.29 25.79,-106.63 5.37,-35.34 7.29,-69.91 8.95,-118.36 1.67,-48.46 3.07,-110.8 1.49,-160.07 -1.59,-49.27 -6.16,-85.45 -13.86,-121.03 -66.04,-22.5 -139.52,-29.54 -194.77,-20.68 -55.25,8.86 -98.71,34.2 -114.53,60.33l-1.78 70.29c126.99,126.32 253.82,291.28 288.71,396.15z"/>
   <path class="fil5" d="M7897.14 8212.43c-0.84,21.36 0.68,34.67 0.37,50.16 -0.32,15.49 -2.48,33.18 -5.91,47.95 -3.42,14.77 -8.11,26.63 -2.76,38.64 5.35,12.01 20.75,24.17 31.35,39.42 10.61,15.25 16.42,33.59 28.52,32.79 12.1,-0.79 30.5,-20.74 54.94,-38.92 24.43,-18.17 54.9,-34.58 77.45,-45.13 22.55,-10.55 37.19,-15.24 52.03,-21.02 14.84,-5.78 29.89,-12.64 36.76,-22.22 6.87,-9.58 5.54,-21.87 2.09,-42.51 -3.47,-20.63 -9.06,-49.6 -10.52,-70.24 -1.45,-20.63 1.23,-32.92 7.59,-28.88 6.37,4.04 16.42,24.41 24.78,44.74 8.36,20.33 15.02,40.62 22.79,48.47 7.77,7.86 16.64,3.28 21.95,-4.32 5.3,-7.6 7.03,-18.22 8.46,-29.08 1.42,-10.86 2.54,-21.96 3.89,-31.16 1.34,-9.2 2.89,-16.51 -8.01,-24.43 -10.89,-7.94 -34.24,-16.5 -60.38,-24.5 -26.14,-8 -55.08,-15.46 -101.9,-15.35 -46.82,0.1 -111.53,7.75 -145.49,26.29 -33.96,18.53 -37.17,47.94 -38,69.3z"/>
   <path class="fil5" d="M9343.76 8566.92c-3.82,33.18 -2.1,46.96 2.41,60 64.36,-28.25 125.74,-63.43 178.25,-101.18 52.52,-37.76 96.18,-78.1 124.31,-115.72 28.12,-37.62 40.72,-72.53 44.87,-104.26 4.15,-31.73 -0.14,-60.29 -4.13,-83.73 -4,-23.43 -7.69,-41.73 -28.73,-52.66 -21.02,-10.93 -59.4,-14.48 -107.84,-19.35 -48.46,-4.85 -106.99,-11 -165.63,-15.77 -5.5,98.2 -13.25,196.29 -21.8,271.62 -8.55,75.32 -17.9,127.88 -21.71,161.05z"/>
   <path class="fil5" d="M8351.43 8195.03c1.9,-11.79 -10.21,-29.33 -25.5,-33.06 -15.29,-3.74 -33.76,6.33 -43.85,18.95 -10.1,12.63 -11.81,27.83 -4.48,34.58 7.34,6.76 23.73,5.07 39.88,1.21 16.14,-3.87 32.05,-9.9 33.95,-21.68z"/>
   <path class="fil5" d="M8777.65 8284.44c23.98,7.95 14.71,-51.08 -8.37,-86.46 -23.09,-35.38 -59.98,-47.1 -92.61,-40.79 19.77,44.38 77,119.31 100.98,127.25z"/>
   <path class="fil5" d="M8400.35 8198.88c4.69,-6.1 11,-18.51 9.47,-18.62 -1.53,-0.11 -10.9,12.09 -14.06,18.3 -3.15,6.2 -0.09,6.41 4.59,0.32z"/>
   <path class="fil5" d="M8585.95 8391.9c19.37,27.39 24.52,46.09 30.82,62.99 6.29,16.89 13.74,31.98 27.99,33.39 14.25,1.41 35.3,-10.84 55.38,-18.32 20.07,-7.47 39.17,-10.16 47.4,-24.07 8.24,-13.91 5.6,-39.02 -0.45,-62.53 -6.06,-23.5 -15.55,-45.38 -41.49,-80.57 -25.93,-35.2 -68.31,-83.69 -106.54,-102.96 -38.23,-19.28 -72.31,-9.33 -97.09,-0.16 -24.78,9.18 -40.25,17.6 -39.13,32.92 1.12,15.33 18.84,37.56 44.49,66.72 25.65,29.14 59.25,65.21 78.62,92.59z"/>
   <path class="fil5" d="M8398.91 8483.13c15.79,25.93 23.56,45.94 32.88,65.27 9.32,19.32 20.19,37.96 34.73,43.59 14.53,5.63 32.74,-1.73 51.55,-9.62 18.81,-7.87 38.22,-16.26 41.56,-43.29 3.34,-27.03 -9.4,-72.69 -25.82,-109.45 -16.43,-36.76 -36.56,-64.62 -65.66,-94.74 -29.1,-30.11 -67.18,-62.49 -101.46,-67.99 -34.29,-5.49 -64.78,15.91 -81.23,30.59 -16.46,14.68 -18.86,22.63 -8.18,37.52 10.68,14.88 34.44,36.69 58.23,63.52 23.79,26.82 47.6,58.67 63.4,84.6z"/>
   <path class="fil5" d="M8230.74 8576.24c20.84,21.14 26.91,32.18 34.21,43.76 7.3,11.57 15.83,23.67 27.8,25.3 11.97,1.63 27.38,-7.22 44.95,-13.83 17.58,-6.61 37.31,-10.98 42.08,-27.08 4.78,-16.09 -5.41,-43.91 -17.97,-69.11 -12.55,-25.2 -27.48,-47.78 -50.46,-73.55 -22.98,-25.78 -54.03,-54.75 -86.76,-69.21 -32.74,-14.47 -67.15,-14.44 -98.74,-5.73 -31.58,8.7 -60.34,26.07 -82.43,49.5 32.75,16.9 64.02,36.6 97.45,62.07 33.44,25.47 69.03,56.73 89.87,77.88z"/>
   <path class="fil1" d="M7369.32 8526.79c-75.22,39.28 -150.93,83.46 -207.74,119.49 -56.8,36.03 -94.71,63.9 -118.32,87.86 -23.6,23.97 -32.9,44.01 -46.01,60.45 -13.11,16.45 -30.04,29.29 -48.5,41.11 -18.46,11.82 -38.47,22.62 -54.44,40.44 -15.96,17.81 -27.88,42.64 -42.12,61.07 -14.24,18.42 -30.81,30.44 -56.67,58.68 -25.86,28.25 -61.01,72.72 -74.78,106.93 -13.77,34.21 -6.16,58.16 15.27,50.77 21.42,-7.39 56.65,-46.12 89.57,-84.06 32.93,-37.94 63.56,-75.08 112.16,-121.4 48.62,-46.32 115.21,-101.82 178.69,-154.44 63.49,-52.63 123.88,-102.39 194.75,-150.71 70.88,-48.32 152.24,-95.19 209.06,-125.26 56.82,-30.07 89.11,-43.34 116.48,-53.26 27.37,-9.93 49.82,-16.48 69.65,-18.23 19.81,-1.74 37,1.32 51.29,2.57 14.29,1.24 25.69,0.66 32.97,-5.8 7.28,-6.46 10.44,-18.8 -4.89,-27.74 -15.32,-8.94 -49.14,-14.5 -84.17,-13.35 -35.03,1.15 -71.27,9.01 -126.77,30.12 -55.5,21.12 -130.25,55.48 -205.48,94.76z"/>
   <path class="fil5" d="M7814.61 8606.33c60.52,14.83 120.2,34.48 159.11,51.61 38.91,17.15 57.05,31.78 74.26,46.77 17.21,14.99 33.49,30.34 52.13,31.05 18.63,0.72 39.61,-13.21 64.03,-24.25 24.42,-11.05 52.27,-19.21 80.52,-25.49 -44.64,-53.37 -95.74,-101.97 -138.14,-134.85 -42.42,-32.86 -76.13,-49.99 -116.53,-49.82 -40.4,0.17 -87.48,17.63 -119.38,37.46 -31.9,19.82 -48.61,42.01 -56,67.52z"/>
   <path class="fil5" d="M8699.57 8713.63c14.28,25.03 29.09,52.62 45.68,87.08 13.69,28.45 13.61,13.53 19,-11.14 6.65,-30.42 10.37,-49.71 14.46,-73.39 0.34,-42.32 0.69,-84.66 1.04,-126.98 0.23,-28.62 -33.9,-45.7 -59.25,-50.42 -19.33,-3.6 -30.71,3.59 -42.36,10.69 -11.65,7.1 -23.57,14.11 -27.32,30.33 -3.74,16.23 0.68,41.67 9.57,63.65 8.89,21.99 22.25,40.52 39.18,70.18z"/>
   <path class="fil5" d="M7502.03 8666.72c-35.28,22.87 -68.49,49.13 -99.33,72.46 -30.83,23.32 -59.29,43.7 -61.76,53.77 -2.46,10.06 21.07,9.8 51.77,11.03 30.71,1.25 68.6,3.99 99.49,-8.5 30.88,-12.48 54.78,-40.21 80.88,-67.67 26.1,-27.46 54.4,-54.66 84.6,-79.11 30.19,-24.44 62.27,-46.12 67.01,-57.33 4.75,-11.22 -17.87,-11.96 -41.22,-7.98 -23.34,3.99 -47.42,12.72 -78.14,26.83 -30.7,14.12 -68.03,33.62 -103.3,56.5z"/>
   <path class="fil5" d="M9858.07 9129.98c58.78,253.97 54.74,522.66 15.81,775.25 -8.47,54.9 -13.64,109.62 -9.81,142.83 3.83,33.21 16.74,44.92 31.25,53.31 14.51,8.38 30.64,13.43 44.63,7.19 14,-6.23 25.89,-23.76 35.17,-42.75 9.29,-19 15.97,-39.46 25.18,-75.51 57.89,-226.74 23.61,-613.64 -31.68,-835.99 -30.94,-124.45 -80.48,-268.58 -118.41,-362.88 -37.92,-94.29 -64.25,-138.75 -83.95,-156.8 -19.7,-18.04 -32.79,-9.65 -39.25,1.7 -6.46,11.34 -6.28,25.65 -9.53,43.38 -3.26,17.73 -9.94,38.88 -0.6,79.51 9.35,40.65 38.14,87.08 65.94,147.32 27.8,60.22 54.6,134.25 75.25,223.44z"/>
   <path class="fil5" d="M8539.56 8827.99c6.86,20.29 12.94,34.61 27.96,38.73 15.04,4.11 39.02,-1.98 63.39,-10.18 24.37,-8.22 49.13,-18.55 53.27,-36.7 4.15,-18.15 -12.32,-44.12 -25.77,-72.7 -13.45,-28.57 -23.87,-59.76 -42.11,-82.4 -18.23,-22.66 -44.27,-36.76 -64.7,-39.53 -20.42,-2.77 -35.21,5.81 -46.99,17.57 -11.77,11.76 -20.53,26.7 -17.9,45.97 2.64,19.26 16.67,42.86 27.5,67.78 10.84,24.92 18.49,51.17 25.35,71.46z"/>
   <path class="fil5" d="M10119.45 9816.69c117.18,37.62 264.36,96.38 397.1,152.94 13.9,-134.06 11.94,-269.7 -8.16,-409.72 -20.12,-140.04 -58.4,-284.5 -90.8,-384.72 -32.42,-100.24 -58.96,-156.26 -88.84,-221.08 -29.88,-64.82 -87.58,-190 -119.72,-238.78 -32.12,-48.78 -32.75,-33.21 -76.64,-45.36 -17.63,-4.88 -40.88,-6.55 -59.86,-11.78 -29.47,-8.12 -59.54,-14.44 -84.22,-19.56 -40.6,-8.46 -66.58,-13.76 -87.7,-16.7 -21.1,-2.96 -37.32,-3.54 -39.68,10.7 -2.36,14.24 9.16,43.26 49.54,138.84 180.52,427.22 206.7,569.16 208.98,1045.22z"/>
   <path class="fil1" d="M10569.3 10097.15c-3.19,46.05 -10.59,148.18 60.72,151.29 54.82,2.4 90.77,-83.38 99.12,-125.78 20.53,-104.29 1.19,-242.9 -14.41,-345.32 -52.64,-345.66 -131.36,-654.58 -290.47,-965.77 -22.68,-44.34 -44.12,-89.73 -61.74,-113.41 -17.6,-23.68 -31.37,-25.65 -49.37,-30.72 -18.01,-5.07 -40.25,-13.23 -57.72,-17.22 -17.46,-4 -30.16,-3.82 -31.42,3.32 -1.26,7.14 8.92,21.24 22.55,38.42 33.39,42.07 52.21,75.21 75.82,123.07 224.83,455.73 282.93,761.83 246.92,1282.12z"/>
   <path class="fil5" d="M9007.95 9486.35c103.92,-33.19 201.95,-84.6 295.31,-147.45 136.17,-91.67 214.58,-208.97 280.36,-402.43 48.57,-142.83 96.17,-296.86 104.75,-337.31l-378.79 176.51c-40.84,178.14 -99.75,361.63 -174.43,527.91 -10.66,23.75 -98.6,157.33 -127.2,182.77z"/>
   <path class="fil5" d="M7806.89 8790.23c35.73,19.09 49.57,31.51 61.75,44.51 12.18,13.01 22.71,26.59 36.32,24.07 13.6,-2.53 30.3,-21.16 50.16,-36.35 19.86,-15.19 42.89,-26.95 46.08,-43.07 3.19,-16.13 -13.46,-36.6 -33.58,-52.5 -20.11,-15.89 -43.68,-27.21 -70.84,-37.41 -27.14,-10.19 -57.87,-19.27 -84.37,-24.69 -26.5,-5.42 -48.76,-7.19 -75.36,2.31 -26.59,9.5 -57.52,30.27 -82.18,56.01 58.67,22.28 116.29,48.04 152.02,67.12z"/>
   <path class="fil5" d="M8390.23 8870.35c14.61,16.39 31.4,27.16 46.55,30.33 15.15,3.17 28.67,-1.26 41.16,-7.89 12.5,-6.63 23.98,-15.46 22.26,-33.18 -1.71,-17.71 -16.6,-44.32 -30.68,-70.78 -14.08,-26.46 -27.33,-52.76 -43.98,-72.52 -16.65,-19.76 -36.71,-32.96 -54.13,-31.55 -17.42,1.42 -32.2,17.47 -45.27,33.52 -13.07,16.03 -24.44,32.07 -20.06,47.35 4.38,15.29 24.52,29.81 40.81,48.07 16.28,18.27 28.72,40.27 43.34,56.65z"/>
   <path class="fil5" d="M11767.89 8867.25c-40.98,20.08 -75.34,37.26 -126.56,77.98 -51.2,40.72 -119.28,105.02 -159.52,144.1 -40.28,39.08 -52.7,52.96 -64.92,62.06 -12.24,9.08 -24.28,13.4 -46.4,4.52 -22.16,-8.9 -54.4,-30.98 -86.8,-52.34 -32.42,-21.36 -65.02,-42.02 -120.68,-73.94 -55.66,-31.9 -134.42,-75.06 -221.06,-112 -86.64,-36.94 -181.2,-67.62 -250.98,-88.3 -69.78,-20.66 -114.8,-31.28 -143.48,-36.76 -28.66,-5.48 -52.62,-14.76 -69.84,-16.38 4.68,7.44 18.76,40.66 23.2,54 4.42,13.38 12.14,25 26.4,52.94 14.26,27.96 35.08,72.28 66.92,133.28 31.84,61.02 74.7,138.76 117.64,263.26 60.32,175 148.66,607.32 141.42,797.54l-16.34 56.24c-9.34,40.24 -15.74,77.3 -36.72,112.82 182.06,98.56 566.4,188.82 694.52,214.68 83.42,16.86 166.64,33.22 216.3,40.22 49.66,7 23.64,-11.62 40.26,-12.36 0.68,-148.62 10.98,-319.9 -4.6,-481.48 -5.12,-52.82 -10.78,-99.76 -27.96,-176.76 -17.18,-77 -45.84,-184.1 -68.86,-252.22 -23.04,-68.12 -40.42,-97.28 -43.24,-127.2 -2.8,-29.94 8.94,-60.62 45.34,-85.22 36.42,-24.6 97.5,-43.14 148.58,-49 51.08,-5.88 92.16,0.88 135.42,19.46 43.3,18.6 88.8,49.02 129.86,91.5 41.04,42.46 77.64,97.02 106.14,171.16 28.5,74.14 48.88,167.88 51.42,260.38 2.52,92.46 -12.84,183.68 -24.32,272.38 -11.52,88.7 -19.18,174.9 -19.26,238.98 -0.08,64.08 7.42,106.04 14.12,140.1 6.64,34.08 12.5,60.22 20.12,76.96 7.62,16.74 16.98,24.08 28,26.8 8.66,-84.14 22.5,-167.72 41.9,-246.84 19.4,-79.14 44.38,-153.82 58.58,-204.12 14.18,-50.26 17.6,-76.14 22.92,-98.82 5.34,-22.64 12.56,-42.04 20.8,-78.32 8.22,-36.28 17.46,-89.4 26.7,-135.82 9.28,-46.46 18.58,-86.22 18.68,-119.96 0.06,-33.76 -9.04,-61.46 -17.26,-87.4 -8.24,-25.9 -15.56,-49.98 -9.08,-66.04 6.46,-16.08 26.72,-24.12 39.2,-17.64 12.48,6.48 17.16,27.54 30.46,45.64 13.28,18.1 35.16,33.18 54.16,52.4 18.98,19.22 35.04,42.54 50.48,88.4 15.42,45.88 30.2,114.28 32.4,205.52 2.24,91.22 -8.12,205.3 -19.14,312.28 -11.04,106.96 -22.72,206.82 -23.84,277.96 -1.1,71.16 8.38,113.58 23.22,148.66 14.82,35.12 35,62.9 52.28,85.3 17.32,22.42 31.74,39.38 37.6,38.04 5.84,-1.32 3.1,-20.98 -4,-56.2 -7.08,-35.22 -18.5,-86.02 -13.58,-153.52 4.94,-67.52 26.22,-151.72 60.2,-246.18 33.98,-94.46 80.62,-199.18 104.26,-259.24 23.62,-60.06 24.26,-75.46 27.38,-88.5 3.14,-13.04 8.82,-23.66 15.92,-26.94 7.1,-3.3 15.62,0.74 20.96,8.04 5.36,7.32 7.5,17.92 8.4,43.54 0.92,25.62 0.58,66.26 -2.36,125.68 -2.94,59.38 -8.46,137.5 -5.66,197.78 2.8,60.26 13.96,102.72 22.32,141.04 8.32,38.3 13.84,72.44 30.92,99.82 17.1,27.38 45.76,47.94 73.6,69.86 27.88,21.92 54.96,45.14 89.92,63.18 34.96,18.08 77.82,30.96 117.82,34.16 40,3.2 77.1,-3.26 106.7,-9.2 29.6,-5.9 51.64,-11.28 58.28,-21.34 6.66,-10.06 -2.08,-24.8 -16.64,-41.94 -14.56,-17.12 -34.94,-36.62 -61.84,-68.26 -26.9,-31.68 -60.4,-75.46 -79.22,-125.18 -47.5,-125.56 -49.08,-284.44 -27.38,-414.58 25.82,-154.88 68.72,-314.46 75.78,-470.84 10.88,-243.02 -29.74,-467.34 -207.02,-643.2 -172.9,-171.54 -334.16,-224.14 -567.02,-253.48 -304.76,-38.42 -473.38,17.06 -741.92,148.86z"/>
   <path class="fil5" d="M8138.7 8869.87c4.59,17.34 18.17,38.52 33,60.27 14.83,21.73 30.9,44.04 50.99,48.23 20.08,4.2 44.19,-9.71 68.21,-23.54 24.02,-13.82 47.95,-27.57 52.04,-42.8 4.08,-15.25 -11.67,-31.97 -27.12,-47.87 -15.46,-15.9 -30.6,-30.95 -34.28,-47 -3.68,-16.05 4.1,-33.1 2,-44.03 -2.11,-10.93 -14.09,-15.75 -30.09,-18.61 -16,-2.87 -36.01,-3.78 -53.33,2.79 -17.32,6.57 -31.95,20.63 -41.04,33.24 -9.1,12.61 -12.65,23.79 -16.62,36.12 -3.97,12.34 -8.36,25.85 -3.76,43.2z"/>
   <path class="fil5" d="M7555.47 8888.17c26.29,6.63 55.65,14.23 81.01,24.87 25.38,10.64 46.77,24.32 62.38,42 15.62,17.68 25.46,39.35 38.82,38.82 13.36,-0.52 30.23,-23.25 48.78,-42.66 18.54,-19.42 38.76,-35.54 39.52,-51.59 0.76,-16.04 -17.97,-32.02 -43.18,-50.72 -25.21,-18.69 -56.92,-40.11 -88.04,-50.38 -31.11,-10.26 -61.62,-9.37 -96.86,4.43 -35.24,13.8 -75.21,40.51 -83.58,56.7 -8.37,16.2 14.86,21.88 41.15,28.53z"/>
   <path class="fil5" d="M7983.38 9024.44c22.81,32.41 58.8,72.6 92.9,90.59 34.12,18 66.33,13.8 86.46,9.14 20.13,-4.66 28.17,-9.8 35.09,-16.83 6.92,-7.04 12.72,-15.98 8.1,-28.74 -4.62,-12.76 -19.64,-29.36 -35.65,-48.29 -16,-18.94 -32.98,-40.22 -49.82,-62.87 -16.84,-22.64 -33.55,-46.65 -45.64,-69.22 -12.09,-22.57 -19.58,-43.71 -36.23,-48.65 -16.66,-4.95 -42.48,6.29 -60.21,24.52 -17.73,18.23 -27.38,43.46 -27.39,68.38 -0.02,24.93 9.59,49.55 32.39,81.97z"/>
   <path class="fil5" d="M9413.06 9342.32c-116.59,97.81 -306.38,188.82 -451.98,218.21l6.98 19.21c5.91,16.67 11.43,25.06 18.39,32.96 6.96,7.89 15.35,15.28 70.12,23.29 54.77,8.01 155.93,16.65 262.77,28.3 112.49,12.27 412.68,50.68 507.49,80.64 23.62,-227.68 5.59,-535.48 -74.52,-756.06 -21.02,-57.88 -44.51,-106.05 -72.63,-151.47 -52.05,195.62 -105.54,369.78 -266.62,504.92z"/>
   <path class="fil5" d="M7290.05 9199.2c-18.27,50.34 -40.48,110.61 -60.37,158.39 -19.88,47.78 -37.44,83.06 -35.96,95.21 1.48,12.15 21.99,1.17 44.64,-17.14 22.64,-18.31 47.41,-43.95 69.12,-81.99 21.71,-38.03 40.37,-88.45 59.4,-151.51 19.04,-63.06 38.45,-138.74 46.6,-198.32 8.15,-59.58 5.02,-103.06 -5.07,-120.4 -10.09,-17.35 -27.14,-8.56 -37.33,2.85 -10.19,11.42 -13.51,25.45 -15.65,39.18 -2.15,13.73 -3.13,27.16 -6.01,50.86 -2.89,23.7 -7.68,57.68 -17.24,94.88 -9.55,37.21 -23.86,77.63 -42.13,127.99z"/>
   <path class="fil1" d="M5534.38 9118.38c21.34,30.56 62.39,56.27 106.99,70.19 44.6,13.91 92.73,16.03 150.85,18.15 58.11,2.11 126.2,4.22 200.95,5.2 74.76,0.97 156.18,0.82 213.91,0.09 57.74,-0.72 91.79,-2.02 120.28,-2.12 28.49,-0.11 51.4,0.97 71.38,10.21 19.98,9.24 37.02,26.62 53.95,44.33 16.92,17.71 33.74,35.74 46.01,58.61 12.27,22.86 19.99,50.56 36.24,63.6 16.25,13.03 41.02,11.4 61.99,4.34 20.97,-7.05 38.14,-19.53 53.46,-34.04 15.32,-14.51 28.79,-31.04 36.86,-44.65 8.06,-13.6 10.72,-24.26 13.09,-33.02 2.36,-8.75 4.43,-15.59 -1.7,-27.09 -6.12,-11.5 -20.44,-27.66 -33.98,-45.81 -13.55,-18.15 -26.33,-38.29 -28.75,-58 -2.42,-19.7 5.53,-38.97 12.57,-55.61 7.05,-16.64 13.19,-30.66 -2.51,-34.87 -15.7,-4.21 -53.24,1.39 -95.87,3.47 -42.63,2.07 -90.36,0.63 -156.55,-7.05 -66.2,-7.68 -150.86,-21.58 -232.57,-33.88 -81.71,-12.3 -160.46,-22.99 -232.89,-35.57 -72.42,-12.58 -138.51,-27.05 -188.09,-40.23 -49.57,-13.19 -82.63,-25.1 -105.43,-25.39 -22.8,-0.29 -35.35,11.05 -52.07,16.38 -16.73,5.33 -37.62,4.65 -50.43,17.21 -12.82,12.57 -17.54,38.39 -19.09,68.99 -1.55,30.61 0.07,66.01 21.4,96.56z"/>
   <path class="fil5" d="M8297.06 9049.4c7.01,9.06 26.63,11.7 38.26,22.26 11.63,10.55 15.28,29.03 38.7,31.03 23.41,1.99 66.6,-12.48 109.9,-24.94 43.31,-12.46 86.73,-22.92 128.79,-34 42.06,-11.07 82.77,-22.76 100.89,-37.29 18.14,-14.54 13.7,-31.92 9.76,-49.16 -3.93,-17.25 -7.37,-34.37 -30.48,-38.14 -23.11,-3.77 -65.9,5.81 -108.73,15.98 -42.82,10.18 -85.69,20.94 -128.85,30.15 -43.16,9.22 -86.63,16.87 -112.35,23.96 -25.72,7.08 -33.7,13.59 -40.49,24.59 -6.8,11 -12.4,26.5 -5.4,35.56z"/>
   <path class="fil5" d="M7675.75 9100.84c12.88,0.78 17.37,-15.35 19.71,-28.68 2.34,-13.33 2.55,-23.85 -9.49,-44.19 -12.04,-20.33 -36.35,-50.47 -69.34,-67.67 -33,-17.2 -74.68,-21.48 -97.24,-17.4 -22.57,4.08 -26,16.51 -19.28,29.33 6.71,12.82 23.58,26.04 45.3,41.52 21.73,15.48 48.31,33.2 72.24,50.91 23.93,17.71 45.22,35.4 58.1,36.18z"/>
   <path class="fil5" d="M7780.33 9050.51c-12.11,20.44 -27.53,27.74 -39.38,37.96 -11.85,10.24 -20.15,23.4 -14.85,34.69 5.29,11.29 24.18,20.71 45.75,31.65 21.57,10.94 45.84,23.4 71.46,25.92 25.62,2.52 52.62,-4.89 77.19,-13.06 24.58,-8.17 46.75,-17.12 54.14,-31.44 7.4,-14.32 0.04,-34.03 -11.13,-52.75 -11.17,-18.71 -26.15,-36.44 -41.03,-48.13 -14.88,-11.71 -29.66,-17.38 -32.55,-28.77 -2.89,-11.4 6.11,-28.52 -1.14,-36.85 -7.25,-8.33 -30.74,-7.87 -46.57,-7.54 -15.83,0.33 -24,0.53 -32.48,17.41 -8.49,16.89 -17.3,50.47 -29.41,70.91z"/>
   <path class="fil5" d="M7484.17 9319.31c13.64,2.95 34.53,-5.15 59.68,-8 25.14,-2.85 54.53,-0.45 98.39,3.53 43.87,3.97 102.21,9.51 137.18,-0.26 34.97,-9.77 46.56,-34.85 48.12,-52.72 1.56,-17.86 -6.9,-28.5 -26.47,-36.4 -19.57,-7.9 -50.23,-13.06 -80.94,-24.54 -30.7,-11.49 -61.44,-29.3 -90.59,-51.78 -29.15,-22.49 -56.7,-49.64 -77.36,-67.85 -20.66,-18.2 -34.43,-27.45 -47.02,-25.57 -12.58,1.87 -23.98,14.85 -34.53,48.37 -10.56,33.52 -20.26,87.56 -22.26,121.69 -2.02,34.13 3.67,48.35 9.71,62.46 6.04,14.12 12.44,28.12 26.09,31.07z"/>
   <path class="fil5" d="M8513.97 9464.51c20.65,68.84 32.95,108.03 42.43,133.56 9.48,25.53 16.13,37.4 29.59,43.53 13.47,6.13 33.76,6.52 69.72,-2.1 35.98,-8.61 87.63,-26.22 119.78,-36.86 32.16,-10.65 51.92,-14.32 64.61,-17.81 -35.73,-146.96 -95.86,-345.6 -150.15,-453.7l-253.67 67.34c28.08,98.72 57.05,197.2 77.69,266.04z"/>
   <path class="fil5" d="M4198.61 9346.99c-24.41,27.86 -32.4,61.85 -34.75,97.93 -2.35,36.07 0.95,74.22 4.62,124.34 3.67,50.13 7.71,112.22 10.38,150.14 2.67,37.91 3.98,51.65 11.88,55.83 7.9,4.19 22.39,-1.18 55.45,-30.51 33.06,-29.34 84.7,-82.66 127.35,-131.63 42.65,-48.96 76.31,-93.59 132.12,-118.25 55.8,-24.65 133.76,-29.35 198.78,-41.41 65.01,-12.06 117.1,-31.49 166.04,-39.52 48.95,-8.02 94.76,-4.65 137.47,11.22 42.71,15.87 82.33,44.25 124.64,69.33 42.32,25.08 87.33,46.87 160.18,68.45 72.86,21.58 180.16,40.58 234.22,37.95 55.94,-2.72 55.46,1.07 55.29,-27.73 -0.18,-40.52 -9.43,-144.04 -23.85,-185.98 -96.07,15.98 -194.5,17.93 -291.63,4.03 -97.13,-13.9 -192.97,-43.65 -274,-73.72 -81.03,-30.07 -147.24,-60.47 -194.12,-77.57 -46.87,-17.09 -74.41,-20.88 -120.12,-28.61 -45.71,-7.72 -109.61,-19.38 -157.2,-21.71 -47.58,-2.33 -78.85,4.67 -112.24,20.56 -33.39,15.91 -68.9,40.71 -107.07,63.99 -38.18,23.27 -79.01,45 -103.44,72.87z"/>
   <path class="fil5" d="M6660.35 9509.81c-41.06,12.03 -91.9,13.2 -127.94,4.25 -36.05,-8.95 -57.28,-28.02 -68.86,-48.22 -11.57,-20.18 -13.47,-41.5 -14.29,-63.1 -0.82,-21.61 -0.56,-43.51 -21.73,-55.24 -21.16,-11.73 -63.75,-13.28 -118.65,-13.46 -54.91,-0.17 -122.14,1.04 -219.8,-2.22 -97.66,-3.27 -225.74,-11.01 -306.22,-17.57 -80.48,-6.56 -113.36,-11.94 -145.67,-19.92 1.15,74.7 3.85,149.43 5.35,200.26 1.5,50.83 1.81,77.77 13.19,91.84 11.39,14.07 33.86,15.27 71.38,21 37.53,5.73 68.94,8.97 142.45,35.75 73.5,26.78 189.1,77.09 249.85,108.32 60.75,31.22 87.82,50.37 95.69,68.73 7.87,18.36 -3.48,35.91 -27.05,34.8 -23.57,-1.1 -59.37,-20.88 -104.72,-43.4 -45.36,-22.52 -100.26,-47.8 -141.46,-67.15 -41.18,-19.35 -68.65,-32.78 -96.32,-46.04 -27.68,-13.25 -55.56,-26.34 -91.45,-32.13 -35.9,-5.8 -79.81,-4.3 -127.02,-5.22 -47.22,-0.91 -97.75,-4.23 -161.97,-12.35 -64.24,-8.11 -142.16,-21.02 -202.48,-36.82 -60.32,-15.8 -103.03,-34.5 -149.88,-59.56 -46.85,-25.06 -97.84,-56.49 -137,-72.73 -39.15,-16.25 -66.48,-17.31 -99.34,-9.58 -32.86,7.72 -71.25,24.24 -107.14,39.34 -35.9,15.09 -69.29,28.75 -100.52,35.2 -31.23,6.45 -60.29,5.69 -80.66,5.15 -20.36,-0.55 -32.05,-0.87 -41.46,-1.41 -9.41,-0.54 -16.56,-1.29 -40.58,21.96 -24.02,23.25 -64.92,70.51 -112.19,120.36 -47.27,49.86 -100.9,102.3 -181.91,175.72 -81.01,73.42 -189.39,167.81 -288.34,241 -98.96,73.18 -188.47,125.15 -255.38,161.42 -66.9,36.28 -111.2,56.84 -155.12,77.98 -43.92,21.13 -87.46,42.82 -117.34,64.91 -29.88,22.1 -46.11,44.6 -60.33,69.19 -14.21,24.6 -26.4,51.31 -42.33,78.33 -15.92,27.01 -35.57,54.34 -56.65,78.45 -21.08,24.12 -43.58,45.04 -67.26,61.99 -23.68,16.95 -48.54,29.93 -86.6,56.49 -38.07,26.55 -89.34,66.68 -121.5,93.57 -32.16,26.89 -45.21,40.55 -55.77,64.94 -10.56,24.39 -18.64,59.5 -23.73,97.27 -5.09,37.75 -7.18,78.16 -7.77,119.05 -0.6,40.89 0.31,82.28 -3.03,117.69 -3.35,35.42 -10.93,64.87 -16.59,88.78 -5.65,23.9 -9.36,42.28 -0.25,50.99 9.11,8.72 31.06,7.76 51.66,0.69 20.61,-7.07 39.88,-20.26 76.14,-32.35 36.27,-12.09 89.54,-23.08 145.56,-37.96 56.01,-14.89 114.77,-33.68 170.46,-49.34 55.69,-15.67 108.31,-28.2 141.27,-43.17 32.96,-14.97 46.27,-32.38 58.98,-51.65 12.71,-19.26 24.82,-40.39 25.96,-70.61 1.14,-30.24 -8.69,-69.57 -28.03,-113.19 -19.33,-43.63 -48.17,-91.54 -58.36,-134.62 -10.19,-43.08 -1.73,-81.33 29.89,-107.41 31.61,-26.08 86.38,-39.99 126.26,-42.59 39.86,-2.61 64.83,6.08 87.45,17.87 22.63,11.78 42.92,26.66 65.63,26.42 22.72,-0.23 47.86,-15.58 69.03,-33.31 21.17,-17.72 38.35,-37.84 71.88,-80.18 33.53,-42.34 83.41,-106.91 137.49,-174.2 54.08,-67.3 112.35,-137.32 184.12,-207.25 71.77,-69.95 157.02,-139.82 225.08,-187.2 68.06,-47.39 118.93,-72.29 181.82,-77.06 62.9,-4.78 137.84,10.57 221.81,41.63 83.97,31.07 176.99,77.86 253.67,125.45 76.66,47.58 136.98,95.97 200,136.54 63.02,40.59 128.72,73.36 201.39,107.83 72.66,34.47 152.28,70.64 220.35,93.87 68.07,23.23 124.6,33.52 219.76,54.9 95.16,21.39 228.95,53.85 312.8,48.24 83.86,-5.61 117.78,-49.29 161.36,-108.46 43.58,-59.17 96.83,-133.8 156.59,-211.52 59.77,-77.71 126.04,-158.48 165.01,-210.76 38.96,-52.27 50.62,-76.03 63.51,-99.45 12.9,-23.43 27.04,-46.51 33.78,-75.55 6.73,-29.03 6.05,-64 5.62,-105.65 -0.44,-41.64 -0.63,-89.95 -1.08,-127.87 -0.46,-37.91 -1.19,-65.44 7.69,-79.41 8.88,-13.98 27.37,-14.41 39.09,-2.44 11.71,11.97 16.65,36.35 21.43,61.44 4.79,25.1 9.43,50.92 7.84,104.61 -1.58,53.69 -9.37,135.26 -24.13,206.28 -14.75,71.02 -36.45,131.47 -67.05,189.38 -30.59,57.9 -70.07,113.26 -111.41,174.75 -41.34,61.48 -84.54,129.1 -119.52,182.5 -34.98,53.39 -61.73,92.57 -75.73,116.65 -14,24.09 -15.26,33.08 -13.35,41.82 76.3,-16.34 153.89,-27.96 206.99,-32.05 53.11,-4.09 81.73,-0.65 100.73,4.73 19,5.37 28.37,12.68 47.35,-14.09 18.99,-26.77 47.57,-87.62 81.84,-153.75 34.26,-66.13 74.19,-137.52 111.34,-210.33 37.14,-72.81 71.49,-147.04 98.53,-209.62 27.04,-62.58 46.77,-113.52 55.73,-175.35 8.97,-61.82 7.17,-134.53 4.99,-177.19 -2.19,-42.67 -4.78,-55.3 -7,-68.67 -2.23,-13.37 -4.11,-27.48 -14.07,-36.58 -9.97,-9.11 -28.02,-13.21 -45.17,-19.15 -17.15,-5.94 -33.39,-13.73 -42.14,-24.13 -8.74,-10.4 -9.99,-23.43 -12,-36.51 -2,-13.08 -4.76,-26.21 -16.04,-36.46 -11.28,-10.26 -31.08,-17.64 -47.98,-28.88 -16.9,-11.24 -30.89,-26.34 -41.96,-48.03 -11.06,-21.68 -19.19,-49.95 -26.79,-78.06 -7.59,-28.11 -14.65,-56.05 -27.1,-78.58 -12.46,-22.52 -30.28,-39.62 -51.23,-51.35 -10.15,34.13 -18.88,68.7 -23.69,100.01 -4.81,31.31 -5.71,59.35 -19.06,87.14 -13.36,27.78 -39.19,55.3 -67.73,80.51 -28.55,25.2 -59.82,48.09 -100.87,60.11z"/>
   <path class="fil5" d="M7312.75 9550.91c-24.55,19.3 -42.46,33.73 -59.71,48.94 23.79,111.92 41.28,225.21 51.4,329.77 10.13,104.56 12.88,200.39 8.62,307.41 -4.28,107.01 -15.58,225.19 -26.42,309.53 -10.84,84.33 -21.23,134.81 -35.55,184.25 69.78,52.87 141.46,103.46 188.51,134.29 47.06,30.82 69.49,41.88 92.24,50.98 22.76,9.1 45.83,16.24 61.94,13.85 16.11,-2.39 25.25,-14.3 31.82,-31.64 6.57,-17.34 10.56,-40.12 7.32,-75.32 -3.23,-35.2 -13.69,-82.84 -19.36,-133.29 -5.66,-50.44 -6.54,-103.68 -5.73,-158.3 0.8,-54.63 3.27,-110.63 27.33,-181.55 24.07,-70.92 69.71,-156.77 102.29,-226.97 32.58,-70.2 52.09,-124.76 66.25,-172.04 14.17,-47.27 23,-87.25 25.73,-135.15 2.73,-47.89 -0.63,-103.7 -12.78,-149.27 -12.15,-45.57 -33.1,-80.89 -49.09,-113.06 -15.99,-32.16 -27.02,-61.16 -44.67,-77.07 -17.65,-15.91 -41.91,-18.74 -72.01,-22.53 -30.11,-3.79 -66.05,-8.53 -108.9,-3.77 -42.85,4.77 -92.6,19.06 -133.06,38.28 -40.46,19.22 -71.63,43.37 -96.17,62.66z"/>
   <path class="fil5" d="M8648.01 9776.64c24.61,1.81 67.07,-7.4 102.04,-17.68 34.97,-10.28 62.45,-21.61 91.1,-32.59 28.64,-10.97 58.46,-21.57 76.12,-41.07 17.66,-19.51 23.17,-47.91 16.84,-72.97 -58.76,16.14 -117.36,32.89 -174.03,48.05 -56.67,15.17 -111.4,28.74 -136.11,43.28 -24.71,14.53 -19.4,30.02 -13.37,44.17 6.04,14.17 12.8,27 37.41,28.81z"/>
   <path class="fil5" d="M9062.92 9823.59c68.54,20.73 254.2,47.96 379.53,71 98.57,18.11 285.37,43.67 362.41,51.88 3.33,-25.53 10.58,-105.22 15.34,-146.38 -137.54,-45.3 -606.72,-94.36 -770.71,-115.45 -24.05,-1.41 -30.62,5.51 -33.67,11.59 -3.05,6.07 -2.59,11.32 1.29,23.29 10.68,32.91 26.54,75.71 45.81,104.07z"/>
   <path class="fil5" d="M8717.21 10051.14c23.62,65.68 60.34,168.23 108.36,302.57l376.94 1068.45c17.77,49.58 57.46,164.38 66.02,176.21 37.17,53.55 111.17,106.72 179.11,94.89 38.89,-6.78 104.05,-69.67 97.66,-109.27 -7.42,-45.99 -37.41,-118.87 -50.14,-167.98 -12.79,-49.35 -35.1,-119.44 -58.82,-181.95l-197.29 -570.84c-44.77,-143.59 -95,-303.38 -138.41,-433.42 -43.42,-130.03 -80.02,-230.34 -103.48,-295.78 -23.46,-65.43 -33.79,-95.99 -47.55,-109.65 -13.76,-13.66 -30.94,-10.42 -69.29,-1.36 -38.34,9.05 -97.86,23.92 -135.28,34.73 -37.41,10.8 -52.73,17.55 -61.13,28.57 -8.4,11.01 -9.88,26.29 -5.35,48.33 4.52,22.04 15.03,50.83 38.65,116.5z"/>
   <path class="fil5" d="M7948.37 10025.49c-20,56.18 -45.68,103.44 -70.42,151.24 -24.72,47.82 -48.48,96.18 -63.96,137.76 -15.48,41.58 -22.7,76.36 -33.16,107.96 -10.48,31.62 -24.2,60.06 -26.66,111.2 -2.46,51.16 6.36,125 14.78,187.14 8.42,62.14 16.46,112.56 26.46,131.7 10,19.14 21.94,6.98 32.92,-0.92 10.98,-7.92 20.98,-11.58 43.96,-18.84 22.98,-7.28 58.96,-18.14 86.46,-23.34 27.5,-5.2 46.52,-4.74 64.7,-4.94 18.18,-0.22 35.5,-1.1 51.24,8.6 15.74,9.7 29.9,29.98 44.08,50.28 14.18,20.32 28.38,40.66 38.24,59.58 9.88,18.9 15.42,36.38 34.58,45.48 19.16,9.1 51.92,9.8 96.24,8.02 44.32,-1.78 100.18,-6.06 179.3,-21.26 79.12,-15.18 181.5,-41.28 261,-61.02 79.48,-19.72 136.08,-33.1 168.76,-42.6 32.68,-9.48 41.44,-15.1 48.34,-22.78 -68.52,-208.28 -138.68,-416.04 -189.66,-563.14 -50.98,-147.12 -82.76,-233.58 -101.44,-281.52 -18.68,-47.92 -18.54,-57.24 -25.52,-65.6 -89.3,-5 -184.22,-12.2 -247.94,-19.2 -63.72,-6.98 -101.92,-13.78 -139.5,-20.4 -37.56,-6.6 -74.48,-13.04 -116.22,-19.8 -41.72,-6.76 -88.28,-13.88 -134.9,-20.64 -7.38,65.76 -21.68,130.86 -41.68,187.04z"/>
   <path class="fil5" d="M10508.92 10146.68c-2.64,-34.34 7.39,-85.82 5.94,-120.21 -118.28,-53.22 -287.05,-130.45 -406.59,-167.93l-15.96 143.86c78.67,25.02 141.99,45.78 215.36,71.08 73.37,25.3 165.18,66.32 201.25,73.2z"/>
   <path class="fil5" d="M9375.35 10740.2c76.4,-20.39 156.02,-28.13 243.78,-21.4 87.75,6.73 183.64,27.94 253.36,49.45 69.73,21.51 113.29,43.31 161.82,89.4 48.53,46.1 102.03,116.48 152.41,182.94 50.39,66.45 97.65,128.99 149.3,210.27 51.65,81.3 107.68,181.34 176.85,258.06 69.16,76.72 151.46,130.11 238.22,168.02 86.76,37.89 178,60.31 270.72,79.83 92.72,19.53 186.93,36.16 321.87,47.18 134.93,11.03 310.58,16.45 444.77,18.79 134.19,2.35 226.93,1.63 322.3,4.51 95.38,2.87 193.39,9.35 261.15,27.35 67.75,18.01 105.26,47.53 134.87,69.93 29.61,22.4 51.32,37.67 72.57,55.35 21.24,17.67 42.02,37.75 59.75,59.46 17.72,21.69 32.42,45 48.22,66.73 15.8,21.73 32.72,41.88 56.38,63.23 23.66,21.35 54.06,43.9 82.98,68.15 28.91,24.24 56.33,50.2 88.44,92.24 32.11,42.04 68.91,100.18 98.79,166.95 29.88,66.78 52.85,142.2 59.02,212.8 6.16,70.6 -4.47,136.38 -11.74,200.13 -7.26,63.76 -11.17,125.49 -6.5,187.89 4.67,62.39 17.92,125.44 30.82,164.21 12.9,38.77 25.44,53.26 47.36,54.3 21.92,1.03 53.22,-11.38 80.87,-27.52 27.67,-16.14 51.7,-35.99 89.14,-62.3 37.45,-26.31 88.31,-59.08 141.26,-96.07 52.96,-37 108.02,-78.21 141.27,-106.12 33.26,-27.9 44.71,-42.49 55.09,-56.37 10.38,-13.89 19.67,-27.09 19.81,-41.06 0.14,-13.99 -8.87,-28.74 -18.76,-43.59 -9.88,-14.84 -20.63,-29.78 -34.7,-33.22 -14.08,-3.44 -31.48,4.6 -51.87,12.49 -20.39,7.87 -43.75,15.59 -82.94,13.12 -39.19,-2.48 -94.2,-15.14 -126.35,-37.19 -32.15,-22.06 -41.42,-53.51 -42.32,-87.45 -0.9,-33.93 6.59,-70.37 17.62,-99.87 11.03,-29.5 25.6,-52.05 37.85,-75.57 12.27,-23.51 22.22,-47.97 22.25,-81.64 0.05,-33.66 -9.82,-76.53 -39.12,-126.81 -29.3,-50.26 -78.04,-107.93 -110.87,-143.19 -32.83,-35.26 -49.73,-48.1 -64.33,-64.95 -14.59,-16.86 -26.85,-37.72 -47.83,-70.92 -20.98,-33.19 -50.65,-78.71 -82.53,-127.29 -31.88,-48.58 -65.95,-100.23 -90.76,-149.15 -24.82,-48.94 -40.37,-95.16 -56.65,-140.24 -16.29,-45.09 -33.31,-89.05 -66.36,-137.84 -33.05,-48.78 -82.14,-102.39 -137.45,-130.56 -55.32,-28.17 -116.86,-30.89 -187.2,-25.76 -70.34,5.13 -149.47,18.12 -208.36,21.21 -58.9,3.1 -97.56,-3.71 -150.25,-19.61 -52.68,-15.91 -119.39,-40.93 -166.56,-62.39 -47.18,-21.46 -74.83,-39.36 -102.5,-76.1 -27.66,-36.73 -55.32,-92.3 -74.4,-162.21 -19.08,-69.9 -29.57,-154.13 -35.09,-225.27 -5.52,-71.12 -6.07,-129.14 -7.29,-164.34 -1.21,-35.19 -3.09,-47.54 -15.15,-54.97 -12.05,-7.44 -34.29,-9.95 -92.95,-17.9 -58.66,-7.96 -153.74,-21.34 -228.51,-37.13 -229.77,-48.49 -497.01,-152.08 -653.38,-214.39 -38.44,40.22 -51.64,64.37 -125.64,61.74 -88.45,-3.15 -133.44,-79.37 -136.65,-163.24 -69.76,-40.21 -354.08,-135.41 -432.49,-155.47 -12.9,30.75 -73,166.91 -183.61,141.5 -76.64,-17.6 -102.35,-128.92 -100.9,-195.72 -53.27,-5.33 -106.36,-12.49 -153.71,-20.75 -132.88,-23.15 -277.85,-46.93 -408.75,-72.22 -39.5,-7.63 -64.63,-11.89 -82.81,-15.73 -18.19,-3.83 -29.46,-7.24 -40.41,-11.5l276.78 807.79z"/>
   <path class="fil5" d="M7037.99 10410.31c-31.63,62.87 -53.69,106.17 -79.02,152.54 -25.33,46.35 -53.95,95.76 -92.49,161.52 -38.55,65.78 -87.03,147.91 -92.05,202.83 -5.02,54.91 33.41,82.61 70.46,100.18 37.04,17.56 72.7,24.99 108.8,33.52 36.1,8.54 72.65,18.17 109.29,27.43 23.47,-58.22 42.57,-118.13 58.73,-189.48 16.15,-71.35 29.35,-154.13 44.53,-241.65 15.17,-87.52 32.32,-179.79 48.78,-255.29 16.46,-75.5 32.24,-134.25 37.4,-207.84 5.17,-73.58 -0.27,-162 -15.08,-248.58 -25.89,79.87 -55.58,158.5 -91.04,239.02 -35.45,80.53 -76.67,162.94 -108.31,225.8z"/>
   <path class="fil5" d="M4132.52 10573.35c-2.6,21.86 10.69,39.02 21.87,63.99 11.19,24.96 20.26,57.73 22.8,100.61 2.52,42.89 -1.49,95.88 -6.85,142.7 -5.35,46.81 -12.05,87.45 -15.1,125.69 -3.06,38.25 -2.46,74.1 14.27,102.64 16.74,28.55 49.61,49.79 87.43,70.1 37.82,20.32 80.58,39.7 117.45,51.03 36.87,11.34 67.85,14.61 96.71,20.8 28.86,6.19 55.62,15.29 79.9,27.89 24.29,12.6 46.12,28.71 67.19,40.73 21.08,12.01 41.41,19.93 55.1,18.32 13.69,-1.62 20.74,-12.79 25.25,-26.18 4.51,-13.4 6.48,-29.03 3.86,-58.05 -2.61,-29.03 -9.81,-71.46 -13.66,-112.15 -3.85,-40.69 -4.34,-79.65 -3.15,-119.8 1.19,-40.14 4.06,-81.47 1.92,-114.93 -2.15,-33.47 -9.31,-59.07 -18.87,-77.28 -9.56,-18.22 -21.5,-29.05 -32.89,-41.07 -11.39,-12.01 -22.24,-25.19 -42.59,-34.8 -20.36,-9.61 -50.24,-15.65 -78.41,-23.82 -28.16,-8.17 -54.61,-18.47 -76.33,-46.67 -21.7,-28.2 -38.67,-74.29 -33.84,-115.51 4.83,-41.23 31.47,-77.59 56.99,-98.62 25.53,-21.03 49.94,-26.74 71.77,-35.01 21.84,-8.27 41.09,-19.1 56.62,-35.09 15.53,-15.98 27.34,-37.11 24.12,-68.81 -3.22,-31.7 -21.48,-73.97 -32.58,-99.65 -11.11,-25.68 -15.08,-34.77 -21.97,-41.57 -6.89,-6.8 -16.7,-11.31 -37.4,-3.23 -20.71,8.08 -52.3,28.75 -84.96,47.42 -32.67,18.66 -66.43,35.31 -94.71,62.42 -28.28,27.12 -51.1,64.72 -78.58,100.28 -27.49,35.56 -59.65,69.09 -84.96,99.14 -25.32,30.05 -43.8,56.61 -46.4,78.48z"/>
   <path class="fil5" d="M7678.97 10658.54c1.2,50.73 7.48,71.66 13.76,92.6l-7.21 -304.33c-3.88,80.51 -7.75,161.02 -6.55,211.73z"/>
   <path class="fil5" d="M6426.62 10785.14c35.95,7.18 71.95,14.09 112.09,21.05 40.14,6.95 84.42,13.95 110.94,20.17 26.52,6.21 35.29,11.63 43.55,16.27 8.26,4.64 16.02,8.49 27.04,1.3 11.02,-7.19 25.3,-25.42 42.32,-51.56 17.01,-26.14 36.75,-60.2 32.87,-82.25 -3.88,-22.05 -31.38,-32.08 -63.93,-29.39 -32.55,2.7 -70.15,18.14 -105.59,29.84 -35.43,11.71 -68.71,19.7 -101.78,31.11 -33.08,11.41 -65.95,26.25 -97.51,43.46z"/>
   <path class="fil5" d="M7225.08 11022.45c8.8,11.54 24.31,17.86 44.1,23.47 19.79,5.61 43.86,10.49 61.76,15.08 17.9,4.6 29.64,8.9 40.86,18.48 11.23,9.56 21.96,24.4 33.69,29.22 11.73,4.8 24.49,-0.42 34.8,-1.24 10.31,-0.82 18.19,2.77 27.97,8.42 9.79,5.65 21.48,13.37 42.38,18.75 20.9,5.38 51.01,8.4 74.24,8.1 23.22,-0.31 39.56,-3.95 48.62,-15.44 9.06,-11.51 10.85,-30.88 8.83,-50.79 -2.02,-19.91 -7.84,-40.35 -32.26,-57.99 -24.42,-17.64 -67.43,-32.48 -107.51,-49.69 -40.09,-17.2 -77.23,-36.78 -104.63,-56.44 -27.39,-19.67 -45.03,-39.44 -65,-57.32 -19.97,-17.9 -42.27,-33.91 -59.89,-38.24 -17.62,-4.32 -30.58,3.05 -38.85,16.14 -8.27,13.1 -11.85,31.91 -14.76,56.94 -2.9,25.03 -5.12,56.28 -5.19,80.27 -0.06,24 2.04,40.74 10.84,52.28z"/>
   <path class="fil5" d="M7960.71 11050.51c29.37,1.61 57.95,-23.42 63.47,-51.09 5.52,-27.66 -12.01,-57.96 -37.41,-63.66 -25.4,-5.7 -58.66,13.21 -79.26,26.76 -20.6,13.54 -28.53,21.73 -17.42,39.94 11.1,18.22 41.26,46.45 70.62,48.05z"/>
   <path class="fil5" d="M9392.92 11829.47c-5.31,6.83 2.99,25.33 12.8,40.78 9.81,15.45 21.14,27.86 45.33,35.84 24.2,7.98 61.26,11.54 90.47,6.52 29.2,-5.01 50.53,-18.61 62.42,-35.42 11.89,-16.81 14.32,-36.83 14.6,-53.67 0.28,-16.84 -1.61,-30.51 -11.91,-34.3 -10.3,-3.78 -29.02,2.32 -51.3,11.61 -22.29,9.3 -48.15,21.8 -68.62,27.58 -20.47,5.79 -35.56,4.86 -52.56,1.96 -17,-2.89 -35.92,-7.72 -41.23,-0.9z"/>
   <path class="fil5" d="M12111.22 12012.9c15.68,13.02 28.11,25.56 39.65,45.29 11.55,19.73 22.21,46.64 35.28,74 13.07,27.35 28.55,55.14 49.14,89.72 20.58,34.59 46.28,75.97 67.11,133.86 20.82,57.89 36.78,132.28 35.59,193.96 -1.19,61.68 -19.54,110.65 -39.12,173.15 -19.56,62.51 -40.35,138.54 -57.64,214.75 -17.28,76.22 -31.08,152.6 -35.14,218.88 -4.05,66.27 1.61,122.42 8.38,161.7 6.76,39.28 14.6,61.68 28,69.07 13.4,7.39 32.34,-0.23 52.26,-12.35 19.91,-12.12 40.8,-28.73 67.92,-49.94 27.12,-21.22 60.48,-47.03 98.61,-77.35 38.12,-30.31 81,-65.12 123.53,-96.87 42.54,-31.76 84.72,-60.46 101.47,-83.46 16.74,-23 8.06,-40.31 -0.52,-56.97 -8.57,-16.68 -17.03,-32.71 -33.08,-41.36 -16.04,-8.66 -39.68,-9.94 -59.32,-12.51 -19.65,-2.58 -35.3,-6.45 -54.03,-15.75 -18.73,-9.3 -40.54,-24.03 -53.5,-50.77 -12.97,-26.74 -17.1,-65.49 -8.64,-104.55 8.46,-39.06 29.49,-78.42 51.37,-107.96 21.88,-29.53 44.59,-49.24 69.93,-66.13 25.35,-16.9 53.32,-30.98 64.2,-59.77 10.87,-28.79 4.66,-72.29 -5.32,-112.79 -9.97,-40.51 -23.7,-78.02 -52.2,-149.83 -28.49,-71.81 -71.74,-177.93 -117.2,-234.34 -45.45,-56.41 -93.11,-63.11 -146.95,-70.06 -53.83,-6.95 -113.84,-14.15 -162.08,-16.13 -48.25,-1.98 -84.73,1.27 -93.51,9.63 -8.78,8.37 10.15,21.86 25.81,34.88z"/>
   <path class="fil4" d="M5533.8 6713.99c6.23,10.02 3.43,31.14 -0.32,55.55 -3.75,24.41 -8.46,52.1 -0.89,71.25 7.57,19.16 27.41,29.77 49.35,28.15 21.94,-1.62 45.96,-15.49 63.09,-33.3 17.13,-17.81 27.35,-39.57 40.41,-58.04 13.05,-18.47 28.94,-33.64 45.53,-44.61 16.59,-10.96 33.88,-17.73 39.69,-31.75 5.81,-14.02 0.15,-35.31 -16.08,-44.17 -16.23,-8.87 -43.03,-5.32 -69.61,-6.88 -26.58,-1.56 -52.94,-8.24 -77.64,-13.28 -24.7,-5.04 -47.74,-8.46 -66.86,-10.9 -19.13,-2.43 -34.33,-3.89 -46.82,3.97 -12.5,7.86 -22.29,25.04 -32.54,41.36 -10.25,16.32 -20.97,31.79 -15.06,37.45 5.91,5.67 28.46,1.53 47.36,-1.08 18.9,-2.62 34.16,-3.73 40.39,6.28z"/>
   <path class="fil4" d="M4882.98 7474.71c9.47,16.18 7.92,35.16 3.17,57.91 -4.74,22.76 -12.69,49.29 -17.15,74.71 -4.46,25.41 -5.44,49.71 8.9,49.93 14.34,0.21 43.99,-23.65 62.71,-58.12 18.72,-34.46 26.5,-79.53 25.88,-114.13 -0.63,-34.58 -9.66,-58.7 -26.85,-77.43 -17.19,-18.73 -42.53,-32.07 -61.74,-27.15 -19.2,4.93 -32.28,28.12 -28.57,46.42 3.7,18.29 24.18,31.68 33.65,47.86z"/>
   <path class="fil4" d="M8200.05 6247.81c-13,22.56 -25.8,43.53 -35.5,67.66 -46.92,139.98 -36.95,347.33 2.8,486.86 12.23,40.33 26.2,79.19 41.59,118.48 79.04,196.85 128.84,303.77 222.41,494.25 25.3,50.47 50.71,101.67 78.68,151.27 21.75,38.57 52.97,23.76 78.99,59.34l22.68 85.43 22.09 14.66 26.35 5.55 482.49 -48.17 88.85 -532.71 -876.39 -854.02 -155.04 -48.6z"/>
   <path class="fil5" d="M8211.48 6350.79c-1.28,8.41 -2.64,17.33 -4.02,26.71 -16.31,110.6 -36.03,284.33 18.7,440.44 37.43,106.76 216.53,520.98 336.76,736.1 89.48,7.93 86.09,96.58 90.15,127.48 143.88,-14.37 297.87,-34.79 441.75,-49.16l77.45 -464.32c-210.52,-252.78 -441.7,-549.82 -652.2,-802.6 -80.61,-88.72 -249.2,-217.24 -344.32,-192.37 -26.28,-7.78 55.69,46.99 35.73,177.72z"/>
   <path class="fil5" d="M9017.34 9342.09c-26.54,42.85 -57.13,86.16 -85.45,120.1 4.96,9.14 7.16,25.91 12.11,35.06 25.66,-17.03 70.64,-80.78 105.41,-136.88 172.87,-278.87 248.14,-708.68 273.21,-1030.41 7.25,-92.95 -0.21,-134.87 -5.29,-164.13 -5.08,-29.25 -7.79,-45.83 -14.82,-43.95 -7.02,1.89 -18.36,22.25 -21.13,47.41 -2.78,25.15 3.02,55.09 3.01,96.89 0,20.89 -1.46,44.75 -3.51,70.69 -26.37,335.14 -83.01,713.79 -263.54,1005.22z"/>
   <path class="fil5" d="M8797.67 9070.2c-0.19,39.44 24.18,83.15 33.76,111.27 0.29,-3.42 0.6,-6.86 0.89,-10.29 26.21,-218.89 30.94,-832.77 39.33,-1049.22 -3.4,-3.6 -15.48,4.9 -48.14,9.32 -8.82,264.91 -24.58,690.37 -25.84,938.92z"/>
   <path class="fil5" d="M8850.75 9242.86c19.59,57.8 46.84,150.62 59.15,162.66 160.48,-210.67 250.33,-482.59 251.4,-583.28l-279.2 115.04c-1.33,89.51 -23.74,271.56 -31.35,305.58z"/>
   <path class="fil5" d="M8170.81 9248.07c-21.2,3.7 -37.02,4.52 -56.86,5.28 -19.84,0.76 -43.68,1.42 -62.9,1.94 -19.2,0.52 -33.78,0.88 -42.42,11.92 -8.64,11.04 -11.36,32.76 -18,57.38 -6.64,24.62 -17.16,52.14 -31.8,74.08 -14.64,21.94 -33.4,38.3 -47.92,53.56 -10.06,10.6 -18.1,20.64 -22.22,30.74 122.02,47.02 239.98,69.1 369.92,85.8 68.62,8.84 155.96,19.86 241.9,19.16 -26.34,-86.62 -54.98,-179.14 -75.98,-249.14 -20.98,-70.02 -35.56,-123.72 -54.66,-148.68 -19.08,-24.94 -42.68,-21.14 -64.2,-9.48 -21.54,11.66 -41.04,31.18 -64.06,44.2 -23.04,13.04 -49.6,19.56 -70.8,23.24zm-262.54 306.38c10.48,19.16 18.88,33.38 29.6,56.6 10.72,23.22 20.58,46.74 40.02,64.56 19.42,17.8 48.44,29.92 78.74,40.56 115.52,40.52 257.2,67.58 384.84,79 44.06,3.94 101.88,7.36 140.36,2.56l-53.64 -145.34c-98.04,-3.78 -203.6,-8.98 -304.32,-21.58 -109.12,-13.64 -211.46,-40.62 -315.6,-76.36z"/>
   <path class="fil6" d="M8537.95 6344.03c-3.32,-72.04 9.28,-152.14 42.12,-220.28 21.34,-44.3 51.3,-83.68 91,-112.86 40.1,-29.46 89.62,-48.3 149.58,-51.06 43.94,-2.02 93.56,4.66 149.28,22.18 79.22,24.92 152.8,66.28 218.88,109.46l-45.46 33.24c-43.2,-36.38 -133.26,-78.64 -188.9,-96.06 -49.56,-15.5 -93.32,-21.44 -131.68,-19.68 -49.6,2.28 -90.06,17.5 -122.4,41.26 -32.72,24.06 -57.7,57.12 -75.78,94.64 -29.12,60.44 -40.3,132.16 -37.28,197.06l-47.04 20.92c-1.84,-4.08 -2.08,-13.84 -2.32,-18.82z"/>
   <path class="fil5" d="M7136.49 9313.34c13.84,9.68 11.24,8.56 25.87,17.6 38.92,-83.32 77.85,-166.64 98.65,-234.78 20.8,-68.14 23.46,-121.09 26.13,-174.04 -122.69,107.38 -151.2,217 -150.65,391.22z"/>
   <path class="fil5" d="M6964.31 9122.04c-17,18.22 -9.89,33 -0.86,44.32 9.04,11.31 20.02,19.16 36.79,34.66 16.78,15.49 39.35,38.64 67.1,61.95 3.64,3.04 13.71,6.08 17.51,9.13 5.01,-172.89 50.24,-287.43 196.04,-401.24 8.25,-6.44 11.43,-17.55 18.12,-25.33 10.71,-12.45 16.62,-31.45 7.08,-31.66 -9.55,-0.2 -34.54,18.38 -54.19,33.95 -98.4,78.02 -202.6,183.16 -287.59,274.22z"/>
   <path class="fil5" d="M8890.97 8628.59c-2.55,57.36 -4.13,78.7 -7.91,149.34 -1.06,19.86 -0.79,31.69 22.56,21.64 30.76,-13.26 41.65,-18.79 72.4,-32.01 11.78,-5.07 13.29,-12.99 8.41,-23.47 -24.28,-52.07 -33.68,-75.43 -62.44,-129.91 -15.58,-29.5 -31.57,-18.25 -33.02,14.41z"/>
   <path class="fil5" d="M9123.83 8664.95c-37.09,-100.33 -124.62,-213.06 -190.64,-295.08 -24.39,-30.3 -32.42,-43.5 -32.98,4.4 -0.29,24.41 -1.14,43.6 -2.46,82.81 -0.96,28.71 -0.9,30.42 13.1,55.11 38.15,67.21 73.12,139.56 104.27,206.14 12.29,26.26 23.78,22.31 35.12,17.36 21.61,-9.45 37.6,-14.85 58.9,-24.94 13.61,-6.44 26.27,-14.48 14.69,-45.8z"/>
   <g>
    <path class="fil3 str1" d="M8791.65 9060.49l90.46 -123.2c167.76,-65.08 341,-117.48 503.28,-195.24l332.48 -159.32c7.24,8.72 76.38,67.5 83.26,75.68 119.5,142.04 189.14,211.58 257.7,399.26 65.86,180.28 67.5,284.68 203.98,441.26 21.1,24.2 214.62,201.14 333,308.62 168.34,152.84 244.3,110.7 399.38,215.7 129,87.34 109.2,163.22 179.28,233.3 166.44,166.44 603.52,218.68 682.7,316.38 82.8,102.16 69.8,262.48 29.14,374.64 -158.82,-140.12 -239.34,-178.44 -315.36,-186.08 -237.88,-23.94 -412.52,28.82 -658.74,-109.48 -62.12,-34.88 -164.4,-131.52 -216.46,-133.2 26.38,64.58 144.84,325.98 224.84,384.94 79.54,58.64 208.42,89.36 278.86,156.22 246.12,233.58 100.66,234.96 491.2,303.88 -62.32,140.12 -390.22,66.18 -499.52,16.66 -233.34,-105.72 -257.98,-88.58 -571.78,-76.92 -64.14,2.38 -132.92,-10.82 -210.84,-52.14 -122.92,-65.18 -262.24,-342.52 -378.8,-462.06 -141.98,-145.6 -251.94,-211.7 -437.12,-295.56 -155.28,-70.34 -197.12,-77.04 -331.5,-87.16l-147.16 -429.48c-30.12,-79.52 -60.26,-159.04 -90.38,-238.56 -20.82,-59.36 -41.64,-118.74 -62.46,-178.1 -9.28,-31.84 -16.84,-64.24 -27.84,-95.52 -9.04,-25.7 -21.48,-50.1 -32.22,-75.16 -4.68,-13.52 -10.96,-28 -15.6,-41.48 -8.34,-24.16 -15.18,-47.46 -23.54,-71.66 -9.86,-35.18 -20.6,-60.06 -30.46,-95.24 -7.88,-25.02 -18.94,-44.84 -26.14,-67.56 -5.04,-15.96 -9.1,-33.14 -13.64,-53.42zm484.74 1390.8c29.46,19.2 58.76,38.6 87.26,59.18 89.12,64.38 175.32,117.96 212.3,228.96 41,123 -18.56,330.9 41.62,420.44 108.2,160.98 425.3,208.46 470.4,507.86 -58.28,-26.36 -115.28,-55.72 -174.82,-79.08 -77.46,-30.38 -173,-46.92 -268.58,-61.48l-181.24 -515.14c-29.32,-90.62 -58.64,-181.22 -87.96,-271.84 -14.84,-43.3 -29.66,-86.6 -44.5,-129.9l-54.48 -159zm-274.16 546.46c-217.94,-195.06 -456.66,-317.52 -675.12,-558.04 -108.74,-119.72 -218.02,-236.08 -324.7,-358l-44.72 -83.04c16.9,-50.34 26.42,-108.78 32.36,-160.22 7.52,-64.94 -18.98,-129.72 -35.4,-193.02 -5.86,-22.64 -22.22,-41.3 -31.02,-62.98 -13.2,-32.56 -41.46,-65 -34.94,-99.5 3.24,-17.16 38.3,-45.28 63.56,-75.14 33.06,-39.06 42.18,-134.14 63.3,-146.68 15.28,-9.06 20.12,-5.36 35.5,-5.84 50.7,-1.6 126.82,2.08 174.26,-22.48 17.84,-9.24 29.14,-24.56 48.3,-30.14 29.08,-8.44 60,-8.38 90.14,-11.78l13.52 -3.64 24.24 75.46c35.02,106.62 64,218.6 99.02,325.22 54.2,139.86 108.4,279.74 162.6,419.6 39.62,114.7 81.62,226.96 121.22,341.64 42.8,123.88 83.26,250.26 126.06,374.16l91.82 274.42z"/>
    <path id="1" class="fil1" d="M8791.65 9060.49l90.46 -123.2c167.76,-65.08 341,-117.48 503.28,-195.24l332.48 -159.32c7.24,8.72 76.38,67.5 83.26,75.68 119.5,142.04 189.14,211.58 257.7,399.26 65.86,180.28 67.5,284.68 203.98,441.26 21.1,24.2 214.62,201.14 333,308.62 168.34,152.84 244.3,110.7 399.38,215.7 129,87.34 109.2,163.22 179.28,233.3 166.44,166.44 603.52,218.68 682.7,316.38 82.8,102.16 69.8,262.48 29.14,374.64 -158.82,-140.12 -239.34,-178.44 -315.36,-186.08 -237.88,-23.94 -412.52,28.82 -658.74,-109.48 -62.12,-34.88 -164.4,-131.52 -216.46,-133.2 26.38,64.58 144.84,325.98 224.84,384.94 79.54,58.64 208.42,89.36 278.86,156.22 246.12,233.58 100.66,234.96 491.2,303.88 -62.32,140.12 -390.22,66.18 -499.52,16.66 -233.34,-105.72 -257.98,-88.58 -571.78,-76.92 -64.14,2.38 -132.92,-10.82 -210.84,-52.14 -122.92,-65.18 -262.24,-342.52 -378.8,-462.06 -141.98,-145.6 -251.94,-211.7 -437.12,-295.56 -155.28,-70.34 -197.12,-77.04 -331.5,-87.16l-147.16 -429.48c-30.12,-79.52 -60.26,-159.04 -90.38,-238.56 -20.82,-59.36 -41.64,-118.74 -62.46,-178.1 -9.28,-31.84 -16.84,-64.24 -27.84,-95.52 -9.04,-25.7 -21.48,-50.1 -32.22,-75.16 -4.68,-13.52 -10.96,-28 -15.6,-41.48 -8.34,-24.16 -15.18,-47.46 -23.54,-71.66 -9.86,-35.18 -20.6,-60.06 -30.46,-95.24 -7.88,-25.02 -18.94,-44.84 -26.14,-67.56 -5.04,-15.96 -9.1,-33.14 -13.64,-53.42zm484.74 1390.8c29.46,19.2 58.76,38.6 87.26,59.18 89.12,64.38 175.32,117.96 212.3,228.96 41,123 -18.56,330.9 41.62,420.44 108.2,160.98 425.3,208.46 470.4,507.86 -58.28,-26.36 -115.28,-55.72 -174.82,-79.08 -77.46,-30.38 -173,-46.92 -268.58,-61.48l-181.24 -515.14c-29.32,-90.62 -58.64,-181.22 -87.96,-271.84 -14.84,-43.3 -29.66,-86.6 -44.5,-129.9l-54.48 -159zm-274.16 546.46c-217.94,-195.06 -456.66,-317.52 -675.12,-558.04 -108.74,-119.72 -218.02,-236.08 -324.7,-358l-44.72 -83.04c16.9,-50.34 26.42,-108.78 32.36,-160.22 7.52,-64.94 -18.98,-129.72 -35.4,-193.02 -5.86,-22.64 -22.22,-41.3 -31.02,-62.98 -13.2,-32.56 -41.46,-65 -34.94,-99.5 3.24,-17.16 38.3,-45.28 63.56,-75.14 33.06,-39.06 42.18,-134.14 63.3,-146.68 15.28,-9.06 20.12,-5.36 35.5,-5.84 50.7,-1.6 126.82,2.08 174.26,-22.48 17.84,-9.24 29.14,-24.56 48.3,-30.14 29.08,-8.44 60,-8.38 90.14,-11.78l13.52 -3.64 24.24 75.46c35.02,106.62 64,218.6 99.02,325.22 54.2,139.86 108.4,279.74 162.6,419.6 39.62,114.7 81.62,226.96 121.22,341.64 42.8,123.88 83.26,250.26 126.06,374.16l91.82 274.42z"/>
   </g>
   <path class="fil7 str2" d="M8791.65 9060.49l90.46 -123.2 374.62 -143.76 370.44 -167.32c83.28,116.62 206.26,283.08 210.4,290.22 43.96,75.58 90.68,149.8 130.08,227.84 46.88,92.9 71.64,197.14 127.28,285.08 50.78,80.26 118.84,149.1 188.36,213.82 25.52,23.76 328.62,281.98 351.26,295.26 78.72,46.18 212.88,42.72 315.62,122.18 99.42,76.9 120.1,225.06 299.9,334.74 133.96,81.68 329.88,98.08 478.82,177.18 84.32,44.82 117.08,99.64 129.72,226.3 -65.42,-28.86 -166.38,-80.42 -234.82,-89.28 -158.96,-20.6 -311.8,19.12 -469.06,-29 -134.06,-41 -234.12,-124.74 -377.6,-192.6 -119.98,-56.76 -182.48,-63.04 -286.94,-73.4 -83.2,-8.24 -77.16,-6.02 -29,27.98 34.5,24.36 71.1,47.5 101.84,69.4 72.38,51.56 96.28,94.62 109.22,139.16 41.9,144.34 87.38,279.88 237.18,356.1 138.68,70.54 137.58,-0.6 264.56,146.88 56.3,65.44 123.8,150.46 148.84,183.86 -190.78,-17.9 -214.38,-94.92 -363.2,-137.44 -80.46,-23 -256.64,52.36 -387.56,34.92 -127.8,-17.04 -164.9,-65.52 -234.8,-165.38 -86.62,-123.74 -122.66,-202.22 -231.52,-330.72 -112.12,-132.38 -137.06,-119.28 -284.44,-198.44 -120.1,-64.54 -206.7,-124.16 -340.64,-162.06 -75.82,-21.46 -162.48,-43.28 -248.02,-55.14l-118.72 -346.48c-30.12,-79.52 -60.26,-159.04 -90.38,-238.56 -20.82,-59.36 -41.64,-118.74 -62.46,-178.1 -9.28,-31.84 -16.84,-64.24 -27.84,-95.52 -9.04,-25.7 -21.48,-50.1 -32.22,-75.16 -4.68,-13.52 -10.96,-28 -15.6,-41.48 -8.34,-24.16 -15.18,-47.46 -23.54,-71.66 -9.86,-35.18 -20.6,-60.06 -30.46,-95.24 -7.88,-25.02 -18.94,-44.84 -26.14,-67.56 -5.04,-15.96 -9.12,-33.14 -13.64,-53.42zm515.66 1481.02c77.74,60.82 202.38,164.04 219.66,214.34 37.54,109.22 -7.78,273.1 13.22,360.48 29.2,121.46 128.18,153.54 208.36,241.44l102.54 112.44c-37.5,-6.6 -75.54,-10.62 -112.46,-19.84 -38.26,-9.56 -83.12,-16.56 -129.52,-24l-145.78 -414.34c-29.32,-90.62 -58.64,-181.22 -87.96,-271.84 -14.84,-43.3 -29.66,-86.6 -44.5,-129.9l-23.56 -68.78zm-376.78 241.92c-92.98,-72.84 -168.56,-111.36 -256.84,-183.02 -86.72,-70.38 -246.4,-242.8 -337.36,-330.74 -130.66,-126.36 -177.24,-202.36 -264.58,-353.88 -29.38,-167.18 -97.84,-334.18 -125.28,-501.36l5.78 -6.62c33.06,-39.06 42.18,-134.14 63.3,-146.68 15.28,-9.06 20.12,-5.36 35.5,-5.84 50.7,-1.6 126.82,2.08 174.26,-22.48 17.84,-9.24 29.14,-24.56 48.3,-30.14 29.08,-8.44 60,-8.38 90.14,-11.78l13.52 -3.64 24.24 75.46c35.02,106.62 64,218.6 99.02,325.22 54.2,139.86 108.4,279.74 162.6,419.6 39.62,114.7 81.62,226.96 121.22,341.64 42.8,123.88 83.26,250.26 126.06,374.16l20.12 60.1z"/>
   <g id="_2859078748688">
    <path class="fil0" d="M9940.23 6097.1c-10.83,77.65 -35.76,210.17 -26.35,291.26 25.84,224.73 137.1,538.23 209.7,757.19 103.33,311.43 216.26,653.53 222.49,927.94 6.59,292.55 -172.95,613.69 -467.84,687.39 -354.2,88.4 -726.24,-138.25 -929.77,-420.66 -117.58,-163.2 -181.93,-362.26 -243.77,-552.3 -86.85,-265.03 -153.28,-548.6 -252.34,-806.15 -57.8,-149.86 -162.02,-253.75 -251.21,-383.25l188.63 -368.75c223.34,-21.71 442.75,-49.75 659.82,-108.6 217.31,-58.88 439.35,-158.98 644.75,-250.02l245.89 225.95z"/>
    <path class="fil1" d="M9677.86 5924.29l211.65 191.21c-22.69,83.61 -31.5,232.42 -25.81,281.8 14.23,123.71 53.24,241.18 85.17,359.92 107.75,400.73 334.91,918.8 343.78,1311.59 6.4,283.29 -160.81,562.61 -439.03,632.1 -345.38,86.25 -690.68,-120.64 -884.06,-389.01 -130.98,-181.77 -191.26,-397.86 -262.34,-611.94 -67.63,-203.69 -120.18,-416.76 -187,-615.67 -25.49,-75.85 -51.86,-152.01 -88.55,-221.96 -28.81,-54.81 -150.81,-200.73 -195.7,-265.85l177.61 -333.64c528.83,-51.42 780.17,-123.63 1264.28,-338.55z"/>
    <path class="fil8" d="M9666.98 5983.87l160.68 159.32c-46.15,118.39 -54.59,231.01 -5.55,413.65 121.94,454.19 327.33,935.27 388.82,1393.03 38.63,287.6 -48.16,576.09 -362.3,649.52 -318.18,74.43 -576.16,-47.94 -780.4,-282.57 -125.23,-143.83 -221.01,-371.88 -282.54,-556.78 -86.89,-261.11 -145.49,-530.75 -234.28,-795.42 -51.96,-154.87 -109.4,-224.52 -249.88,-356.63l138.36 -267.71c418.24,-32.96 884.91,-150.93 1227.09,-356.41z"/>
    <path class="fil7" d="M9653.36 6046.41l129.2 136.04c-44.1,113.12 -30.37,193.95 23.84,416.67 106.31,436.6 312.78,893.68 371.54,1331.09 36.91,274.82 -46.02,550.53 -346.21,620.65 -304.02,71.12 -550.58,-45.81 -745.7,-270 -119.65,-137.45 -211.18,-355.35 -269.97,-532.03 -83.03,-249.51 -139.05,-507.16 -223.87,-760.06 -49.62,-147.97 -106.59,-256.8 -240.87,-383.01l119.98 -229.28c296.4,-17.72 839.03,-116.67 1182.06,-330.07z"/>
    <path class="fil0" d="M9368.38 6866.11l278.58 -87.18c32.23,-9.63 37.11,-18.83 42.33,-1.08 19.28,65.28 43.22,132.88 62.5,198.16 4,13.52 6.15,11.24 -6.93,15.16 -106.36,32.05 -212.14,64.2 -318.61,96.2l186.17 544.75 312.08 -101.35c52.9,-16.99 45.73,-8.97 60.21,43.06l39.38 162.69 -348.09 111.93 130.77 369.56 -98.39 46.07 -118.1 26.55 -4.62 -13.66 -28.25 6.36c-15.29,3.47 -21.55,-8.1 -26.1,-22.82l-115.89 -343.07 -258.64 82.49c-18.01,4.94 -31.99,3.51 -43.34,-17.46 -42.71,-75.19 -55.65,-102.54 -70.38,-156.34 -3.46,-15.92 -4.06,-29.96 11.75,-33.64l306.7 -91.02 -159.06 -545.88 -303.31 106.47c-15.52,5.45 -22.66,-5.48 -28.12,-21.01l-46.38 -169.38c-3.93,-15.35 -4.97,-28.16 9.93,-32.9l298.02 -95.29 -110.41 -395.72c-4.43,-15.81 -0.46,-18.62 15.35,-23.06l176.14 -47.64c24.43,-6.62 32.41,-5.71 33.41,0.15l121.3 388.9z"/>
    <path class="fil1" d="M9342.9 6894.76l310.13 -97.03 50.22 171.54 -322.47 96.96 207.99 594.37 342.11 -111.12 40.86 167.18 -337.72 108.59 126.87 358.56 -95.46 44.68 -114.57 25.77 -127.02 -376.05c-97.85,31.34 -195.7,62.68 -293.55,94.01 -25.74,-29.03 -69.76,-138.95 -71.46,-160.32l328.06 -97.51 -178.5 -597.11 -323.82 114.32 -43.72 -174.09 316.43 -101.54 -113.65 -407.62 175.92 -47.58 123.35 393.99z"/>
   </g>
  </g>
 </g>
</svg>
