<svg height="400" width="600" xmlns="http://www.w3.org/2000/svg"><path d="m0 0h600v400h-600z" fill="#fff"/><path d="m269.60532 302.2396c-34.59924-9.94214-63.62662-37.64446-75.32442-71.88594-5.47068-16.01362-6.38707-47.31132-1.85578-63.38088 11.06734-39.24884 41.68332-69.7803 80.27088-80.04932 13.99652-3.72478 41.81928-3.72554 55.8129-.0015 28.7571 7.65296 55.64438 29.03748 69.01234 54.88824 11.88126 22.97584 16.12358 55.1543 10.3047 78.1626-10.31816 40.79888-41.40072 72.80468-80.627 83.02182-15.11622 3.93728-42.51412 3.5781-57.59362-.755z" fill="#d44322" stroke-width="2"/><path d="m259.26002 292.97158c-22.2641-3.17444-40.852-18.43398-52.47478-37.12-17.55297-26.11242-21.52346-59.92918-13.8775-90.0892 12.23788-45.11236 55.03078-80.81392 102.216-81.81998 29.12518-1.61084 57.16696 7.5473 79.93576 28.85218 4.4674 3.7168 11.93294 11.02644 18.1721 21.17102-12.82962-13.08232-25.26868-19.125-36.13804-23.80298-32.47052-13.9747-73.85204-14.15146-102.1653 8.95264-14.83772 13.01734-26.30438 31.1561-28.82232 50.9249-1.0969 17.92322-2.4619 38.09454 9.80266 52.85956 8.29374 11.64874 22.48384 17.59802 36.56122 17.1107 14.15782.64812 30.29832-7.87242 32.04024-23.1298 1.44318-14.56444-12.87352-23.84928-15.42016-37.22618-2.06938-14.24996 10.4796-27.89642 24.80128-27.53994 19.19102-2.1149 38.16218 8.05636 48.4976 24.076 15.6601 22.59068 14.84144 53.7634 1.1082 77.06086-12.80726 23.29618-37.35732 40.09544-64.15994 41.52092-13.3499 1.42524-26.89906.71586-40.07702-1.8007z" fill="#363455" stroke-width="2"/><g transform="matrix(.84256414 -.53859602 .53859602 .84256414 0 0)"><path d="m338.75497 293.12555h6.368549v66.073708h-6.368549z"/><path d="m353.4079 293.35892h6.368549v66.073708h-6.368549z"/><path d="m367.16647 293.02066h6.368548v66.073708h-6.368548z"/></g><path d="m554.28534-44.239407h6.368547v66.073708h-6.368547z" transform="matrix(.84256414 .53859602 .53859602 -.84256414 0 0)"/><path d="m582.69678-44.344242h6.368547v66.073708h-6.368547z" transform="matrix(.84256414 .53859602 .53859602 -.84256414 0 0)"/><path d="m568.67169-15.544745h6.103194v27.331697h-6.103194z" transform="matrix(.8487434 .52880491 -.52880491 .8487434 0 0)"/><path d="m568.74463 24.268997h6.103195v27.331699h-6.103195z" transform="matrix(.8487434 .52880491 -.52880491 .8487434 0 0)"/><g transform="matrix(-.84874341 .5288049 .5288049 .84874341 0 0)"><path d="m50.904072 300.27423h6.103194v27.331697h-6.103194z"/><path d="m50.977005 340.08804h6.103195v27.331699h-6.103195z"/><path d="m66.51503 300.23993h6.103194v27.331697h-6.103194z"/><path d="m66.587967 340.05371h6.103195v27.331699h-6.103195z"/><path d="m81.53521 300.26114h6.103194v27.331697h-6.103194z"/><path d="m81.608124 340.07486h6.103195v27.331699h-6.103195z"/></g><g transform="matrix(.8487434 .52880491 -.52880491 .8487434 0 0)"><path d="m161.28735-26.817707h6.103194v27.331697h-6.103194z"/><path d="m161.36031 12.996057h6.103195v27.331699h-6.103195z"/><path d="m130.15039-27.114677h6.103194v27.331697h-6.103194z"/><path d="m130.22334 12.699087h6.103195v27.331699h-6.103195z"/></g><path d="m-152.60745-28.03265h6.368547v66.073708h-6.368547z" transform="matrix(-.84256414 -.53859602 -.53859602 .84256414 0 0)"/></svg>