<svg height="600" preserveAspectRatio="xMidYMid meet" viewBox="-15 -7.5 30 15" width="1200" xmlns="http://www.w3.org/2000/svg" xmlns:xlink="http://www.w3.org/1999/xlink" zoomAndPan="magnify"><clipPath id="a"><path d="m-15-7.5h30v15h-30z"/></clipPath><path d="m-15-7.5h30v15h-30z" fill="#00247d"/><g clip-path="url(#a)" transform="matrix(.5 0 0 .5 -7.5 -3.75)"><circle fill="#00247d" r="20"/><path d="m-20-10 40 20m-40 0 40-20" stroke="#fff" stroke-width="3"/><path d="m-20-10 40 20m-40 0 40-20" stroke="#cf142b" stroke-width="2"/><path d="m0 0 20 10h-3l-20-10m3 0 20-10h3l-20 10m-3 0-20 10h-3l20-10m3 0-20-10h3l20 10" fill="#fff"/><path d="m-20 0h40m-20-10v20" stroke="#fff" stroke-width="5"/><path d="m-20 0h40m-20-10v20" stroke="#cf142b" stroke-width="3"/></g><g transform="matrix(.01134454 0 0 .01134454 -18.592455 7.941191)"><path d="m2597.4996-699.99998c0 15.89773-1.3988 32.45325-3.8003 47.67602h-587.399c-2.5009-15.52438-3.8006-31.44621-3.8006-47.67602 0-164.30474 133.1953-297.50001 297.5001-297.50001 164.3047 0 297.4998 133.19527 297.4998 297.50001z" fill="#fcc917"/><path d="m2593.6993-652.32396c-22.4181 142.10604-145.2926 249.82394-293.6995 249.82394-148.075 0-270.8827-108.1856-293.6995-249.82394z" fill="#f7e017"/><g fill-rule="evenodd"><path d="m2516.6137-893.94993c-.5025 17.14942-18.5531 11.15127-20.3598 22.5948-1.8071 11.44354 49.8175 2.25676 49.6549 10.54895-.1495 7.6792 15.9883 12.37088 16.4301 26.4935.4672 14.97356-250.9678 154.27951-250.9678 154.27951s-309.7566-69.31644-292.4093-86.75781c17.7833-17.88003 10.349-35.03518 9.407-44.02339-1.8732-17.86834 39.3092-9.73402 40.1609-20.02033.9221-11.13249-16.5172-4.78326-16.8213-22.79411-.3085-18.86264 40.6808-10.94142 41.3692-19.49773 1.0895-13.5411-12.7336-4.60256-12.0563-23.59272.7052-19.78998 436.1209-15.22746 435.5924 2.76935z" fill="#f56600"/><path d="m2197.0777-550.65527s46.3273 7.44341 73.3238 13.33161c26.9965 5.88811 21.2195 7.99899 34.6623 10.2209 13.4427 2.22196 15.7756 1.55539 19.1085-1.33315 3.3329-2.88852-14.7759-7.44339-5.7763-10.22092 8.9988-2.77737 23.2192-2.8885 41.7723-.88861 18.5533 1.99972 20.1085 3.33287 32.4404 8.88776 12.3316 5.55493.8858 11.77628 16.8866 13.33165 15.998 1.55536 32.4404-1.55539 47.1051-7.1102 14.6647-5.55501 17.331-8.33238 11.554-15.10934-5.7763-6.77692-34.6621-11.99846-34.6621-11.99846h-227.082l-9.332.88861z"/><g fill="#cf142b" transform="matrix(89.492483 0 0 89.492483 2300.7888 -698.36073)"><path d="m-.59279823-.76778637c-.10924402-.0322766.57849676-.17379738.84415835-.16883175.2656616.004966.82181298.16138322.66539541.18869425-.15641757.027311-1.40030974.0124142-1.50955376-.0198625z"/><path d="m.97634322-1.3835254c-.10924402-.0471736.36000868-.1737974.62567028-.1688317.2656616.00497.5933937.1464863.4369761.1886942-.1564176.042208-.9534024.027311-1.06264638-.019862z"/><path d="m-2.1966991-1.2295906c-.109244-.032277.3401461-.1042785.6058077-.099313.2656616.00497.7522941.081933.59587652.1092441-.15641762.027311-1.09244022.022346-1.20168422-.00993z"/></g><g fill="#144d29"><path d="m2512.554-758.34875s-43.0636-55.71196-80.1045-51.19477c-37.6344 4.5895-149.82 120.75939-175.2669 158.40261 0 0 254.7692-2.40909 254.7692-2.40909l.5996-104.7987z" stroke="#000" stroke-width="2.513834"/><path d="m2069.4852-779.65663c-36.823.8422-54.8892 11.65524-59.9819 15.28817-4.5723 20.72835-7.0243 42.28663-7.0243 64.38945 0 16.68721 1.4222 33.02504 4.0632 48.96352l371.0484-.27548c-69.4193-20.01661-232.0109-124.40134-289.7182-128.02133-6.5609-.41158-12.722-.47392-18.3872-.34433z"/><path d="m2516.6304-847.90256c-3.3726-.0406-6.8587.12763-10.5366.48207-39.1561 3.77441-131.0122 164.40751-150.8157 195.92293 87.186 0 182.7804-1.70627 238.5509-1.72164 2.4062-15.23748 3.6496-30.8459 3.6496-46.75981 0-46.78126-10.7861-91.05058-30.0254-130.43165 0-.009-.065.009-.069 0 0 0-18.1538-17.10078-50.7541-17.4919z"/></g><path d="m2068.3146-747.42749c-36.7568.41167-62.2927 12.34699-63.8387 13.08449-1.0487 9.1292-1.6558 18.39144-1.8592 27.75288 120.4004-57.51088 318.7156 66.29322 329.9355 50.61629 10.5035-14.67552-201.1051-86.68005-247.2967-90.765-5.8519-.51751-11.5238-.74933-16.9409-.68866z" fill="#337321"/><path d="m2529.164-806.78972c-36.026 2.58179-152.0384 117.99211-208.8697 154.32805h273.4657c2.4848-15.4763 3.7186-31.3405 3.7186-47.51734 0-32.86254-5.3106-64.51382-15.1503-94.07056-.6161-.37743-1.2279-.74203-1.8596-1.10185 0 0-14.3996-10.53424-49.6521-11.6383-.5308-.0178-1.0808-.0411-1.6526 0z" fill="#337321"/><path d="m2539.9756-794.04957c-1.4552.0324-2.8429.11268-4.2693.27546-22.762 2.59967-180.9714 115.36605-237.587 140.21058l295.7097.61979c2.434-15.32305 3.6496-31.0272 3.6496-47.03527 0-28.16394-3.912-55.43988-11.225-81.26154-.071-.007-.1361.004-.2075 0 0 0-24.2398-13.29539-46.0714-12.80902z" fill="#144d29"/><path d="m2562.1508-734.75619c-.7368.0257-1.443.064-2.2038.13768-23.7306 2.29647-219.5439 81.53701-219.5439 81.53701l253.7699-1.92825c2.223-14.6632 3.3056-29.6856 3.3056-44.9693 0-4.60245-.069-9.22181-.2755-13.77316-.353-.11446-.6743-.23223-1.0331-.34433 0 0-11.1825-21.45921-34.0192-20.6597z" fill="#337321"/><g stroke="#000" stroke-width=".005618"><g transform="matrix(118.58989 0 0 118.58989 2275.9815 -722.01117)"><path d="m1.8100145 1.256183c-.1514519-.0806916-.1553891-.34212984-.1553891-.34212984s.1591133.27261094.2323565.28502504c-.103037-.1464863-.060087-.23278253-.060087-.23278253s.037741.12804153.1171916.23852703c.00489-.092327-.042384-.29109218-.042384-.29109218s.09672.16656168.1189258.28406968c-.005-.1507095.01071-.26648322.01071-.26648322s.037029.16940382.047423.26974492c.033518-.1216581.1010471-.2242753.1010471-.2242753s.025966.0947428-.049084.2178552c.1038159-.056928.1894-.1775579.1894-.1775579s-.026386.1657099-.1727992.238953c0 0-.2035233-.014733-.3373104.0001461z" fill="#337321"/><path d="m1.7807765 1.3028844c-.1514519-.0806916-.1589004-.2929726-.1589004-.2929726s.1626246.2234537.2358678.2358678c-.103037-.1464863-.1092441-.2433163-.1092441-.2433163s.086899.1104854.1663489.2209709c-.037242-.1204167-.024828-.28055852-.024828-.28055852s.033518.17007302.094347.28055852c-.02607-.1998669-.01738-.38235408-.01738-.38235408s.033518.26069598.072002.35752588c.033518-.1216581.027311-.34014615.027311-.34014615s.085657.20359105.042208.33021485c.075726-.074485.1191753-.19862546.1191753-.19862546s.029794.15517626-.074485.22841936c.042208.00621.1762801-.081933.1762801-.081933s-.055863.1154512-.2160052.1613833c-.040967-.018621-.191177-.013655-.3326977.00497z" fill="#144d29"/></g><g transform="matrix(119.37348 0 0 119.37348 2305.7874 -768.59505)"><path d="m-1.7162738 1.8913125c-.1514519-.080692-.1448555-.3035063-.1448555-.3035063s.124001.2550548.2183117.2955588c-.064413-.1254189-.088177-.2784287-.088177-.2784287s.051786.1350641.1312365.2455496c-.037242-.1204167-.00727-.3191821-.00727-.3191821s.026496.2157191.087325.3262046c-.00149-.185822-.010357-.4280001-.010357-.4280001s.072142.3238981.064979.4277505c.046849-.05213.08033-.1054958.1641157-.2928263 0 0 .014123.1869547-.117721.3429818-.040966-.018621-.1560646-.034723-.2975853-.016102z" fill="#337321"/><path d="m-1.7748167 1.9253695c-.1514519-.080692-.1553891-.3421298-.1553891-.3421298s.1591133.2726109.2323565.285025c-.103037-.1464863-.060087-.2327825-.060087-.2327825s.037741.1280415.1171916.238527c.00489-.092327-.042384-.2910921-.042384-.2910921s.09672.1665616.1189258.2840696c-.005-.1507095.01071-.2664832.01071-.2664832s.037029.1694038.047423.2697449c.033518-.1216581.1010471-.2242753.1010471-.2242753s.025966.094743-.049084.2178552c.1038159-.056928.1894-.1775579.1894-.1775579s-.026386.1657099-.1727992.238953c0 0-.2035233-.014733-.3373104.0001461z" fill="#144d29"/></g></g></g><g fill="none" stroke="#000" stroke-width="2.514425"><path d="m2593.829-653.2192c-55.7705.0156-151.3649 1.72164-238.5509 1.72164 19.8035-31.51542 111.6596-192.14852 150.8157-195.92293 3.6779-.35446 7.164-.52261 10.5366-.48207h.0004c29.6792.35609 47.3846 14.56138 50.3195 17.10431l.3487-.519"/><path d="m2586.2536-781.24055c-.071-.007-.1361.004-.2075 0 0 0-24.2398-13.29539-46.0714-12.80902h.0007c-1.4553.0324-2.8429.11268-4.2693.27546-22.762 2.59967-180.9715 115.36605-237.587 140.21058l295.7097.61979"/><path d="m2006.5422-651.01549 371.0484-.27548c-69.4193-20.01661-232.0109-124.40134-289.7182-128.02133-6.5609-.41158-12.722-.47392-18.3872-.34433-36.823.8422-54.8892 11.65524-59.9819 15.28817l-.3588-.0178"/></g><g transform="matrix(73.37596 0 0 73.37596 2299.7287 -719.73976)"><path d="m-.137499-2.292237h.275v3.5h-.275z" fill="#5c3021" stroke="#000" stroke-width=".02809"/><g id="b"><path d="m-.01181866-2.1134742c-.30786953-.07945-.49488346 1.17212221-.74484561 1.12223402-.26130223-.0521514.13307351-1.21876202.28800696-1.33079082.16138321-.1166925.44690738-.1787629.45683865.2085568z" fill="#1a472b" fill-rule="evenodd" stroke="#000" stroke-width=".014045"/><path d="m-.01404496-2.1207865c-.40642556-.4722612-.56267556.5143961-.74087078 1.13061798" fill="none" stroke="#337321" stroke-width=".014045"/><path d="m-.63500616-1.0533106-.0620705-.1464863h-.14896912" fill="none" stroke="#337321" stroke-width=".005618"/><path d="m-.55059032-1.1997969-.0943471-.2035911-.18372859.00497" fill="none" stroke="#337321" stroke-width=".005618"/><path d="m-.47114012-1.3984224-.12414094-.1862114-.19117704.014897" fill="none" stroke="#337321" stroke-width=".005618"/><path d="m-.37679301-1.6467043-.15393476-.1415206-.19614268.01738" fill="none" stroke="#337321" stroke-width=".005618"/><path d="m-.28492871-1.8453298-.18869423-.1042784-.19117704-.00745" fill="none" stroke="#337321" stroke-width=".005618"/><path d="m-.21044415-1.9868504-.13903785-.1812458-.22345369.00993" fill="none" stroke="#337321" stroke-width=".005618"/></g><use height="15" transform="matrix(.835168 -.549995 .549995 .835168 1.635061 -.818447)" width="15" xlink:href="#c"/><use height="15" transform="matrix(-.986406 -.164328 -.164328 .986406 -.440888 -.113285)" width="15" xlink:href="#b"/><use height="15" transform="matrix(-1.017232 .403358 .429734 .954797 .858663 -.081013)" width="15" xlink:href="#b"/><use height="15" transform="matrix(.954549 .298054 -.298054 .954549 -.726203 .018471)" width="15" xlink:href="#b"/><g id="c" transform="matrix(.878139 .478405 -.478405 .878139 -1.385779 -.057788)"><path d="m.19347455-2.4412356c-.40985168-.1198548-.70017667 1.49988361-.95013882 1.44999542-.26130223-.0521514.18265871-1.29284452.35924516-1.44957092.17253891-.153134.38643479-.2897637.59089366-.0004245z" fill="#1a472b" fill-rule="evenodd" stroke="#000" stroke-width=".014045"/><path d="m.17219566-2.4541621c-.59487604-.2016576-.74891618.8477717-.9271114 1.46399358" fill="none" stroke="#337321" stroke-width=".014045"/><path d="m-.63385396-1.0876885-.0564184-.1361631-.14661595.00475" fill="none" stroke="#337321" stroke-width=".005409"/><path d="m-.53935987-1.2510058-.10144998-.1708623-.17369384.01841" fill="none" stroke="#337321" stroke-width=".005472"/><path d="m-.4584492-1.4166458-.12414094-.1862114-.19117704.014897" fill="none" stroke="#337321" stroke-width=".005618"/><path d="m-.36865794-1.6681004-.14996489-.1549929-.18485072.022537" fill="none" stroke="#337321" stroke-width=".005618"/><path d="m-.28967988-1.8540509-.18491969-.1232989-.16244299-.011793" fill="none" stroke="#337321" stroke-width=".005618"/><path d="m-.22014182-2.0098408-.14836071-.16203-.19987731.016879" fill="none" stroke="#337321" stroke-width=".005618"/><path d="m-.66479998-2.349342.16386604.1117269.0496564.1837286" fill="none" stroke="#337321" stroke-width=".005618" transform="matrix(.878139 -.478405 .478405 .878139 1.244553 -.612218)"/><path d="m-.39665556-2.4238265.11420967.1688316.002483.124141" fill="none" stroke="#337321" stroke-width=".005618" transform="matrix(.878139 -.478405 .478405 .878139 1.244553 -.612218)"/></g><use height="15" transform="matrix(-.952381 .304911 .304911 .952381 .523696 -.091822)" width="15" xlink:href="#c"/><path d="m.13693819 1.070927s.34410112.2212078.34410112.2773876c0 .03-.29143258-.1123595-.31601124-.1088483-.0245787.00351.0386236.1755618.0210674.2071629-.0175562.031601-.28441011.087781-.28441011.087781s.17556179-.119382.17907303-.1544944c.0035112-.035112-.05266854-.105337-.05266854-.105337s-.15098314.042135-.17205056.08427c-.0210674.042135.0175562.1158708.0175562.1158708s-.16502809-.031601-.17205056-.073736c-.007022-.042135.0983146-.1439607.0983146-.1439607s-.10884832-.010534-.14396068.00351c-.0351124.014045-.12289326.1123596-.12289326.1123596s.0280899-.1580056.059691-.1650281c.0316011-.00702.13693821-.010534.16502809-.021067.0280899-.010534.0912921-.1123596.0912921-.1123596l.08426966.073736.10884832-.042135.07724719.031601.0175562-.066714z" fill="#5c3021" fill-rule="evenodd" stroke="#000" stroke-width=".005618"/><g transform="matrix(.81634 .57757 -.57757 .81634 -1.628 -.644265)"><path d="m.37205826-2.3000437c-.51815705-.1691296-.87876038 1.35869171-1.12872253 1.30880352-.26130223-.0521514.18265871-1.29284452.35924516-1.44957092.17253891-.153134.5650185-.1485718.76947737.1407674z" fill="#1a472b" fill-rule="evenodd" stroke="#000" stroke-width=".014045"/><g fill="none" stroke="#337321"><path d="m.39111404-2.3152778c-.83631782-.4242788-.96783456.7088874-1.14602978 1.32510928" stroke-width=".014045"/><path d="m-.63385396-1.0876885-.0564184-.1361631-.14661595.00475" stroke-width=".005409"/><path d="m-.53935987-1.2510058-.10144998-.1708623-.17369384.01841" stroke-width=".005472"/><g stroke-width=".005618"><path d="m-.4584492-1.4166458-.12414094-.1862114-.19117704.014897"/><path d="m-.36865794-1.6681004-.14996489-.1549929-.18485072.022537"/><path d="m-.28967988-1.8540509-.18491969-.1232989-.16244299-.011793"/><path d="m-.22014182-2.0098408-.14836071-.16203-.19987731.016879"/><g transform="matrix(.878139 -.478405 .478405 .878139 1.244553 -.612218)"><path d="m-.66479998-2.349342.16386604.1117269.0496564.1837286"/><path d="m-.39665556-2.4238265.11420967.1688316.002483.124141"/></g></g></g></g><use height="15" transform="matrix(-.712759 .701408 .701408 .712759 1.402607 -.932092)" width="15" xlink:href="#d"/><g id="d"><path d="m-.05266855-2.1383427c-.10063085-.019211-.13656675-.5478566.09129213-.7970505.234375-.2563202.81285112-.151861.80758427-.014045-.005267.1343049-.41520366.059691-.58637641.1685394-.1696013.107849-.21594101.6609901-.31249999.6425561z" fill="#1a472b" fill-rule="evenodd" stroke="#000" stroke-width=".014045"/><path d="m-.05266855-2.1558989c.01755618-.5152739.09129213-.9383778.8988764-.7830056" fill="none" stroke="#337321" stroke-width=".014045"/><path d="m-.12851113-2.3915499.07448456.1961427.12662376-.2135224" fill="none" stroke="#337321" stroke-width=".005618"/><path d="m-.11609704-2.6050723.06951893.2780757.20110831-.3128352" fill="none" stroke="#337321" stroke-width=".005618"/><path d="m-.06147503-2.7888009.0397251.2954554.21352242-.218488" fill="none" stroke="#337321" stroke-width=".005618"/><path d="m.04280336-2.9501841-.01241409.260696.26317878-.1117269" fill="none" stroke="#337321" stroke-width=".005618"/><path d="m.36060416-3.089222-.18372859.2184881.25573033.029794" fill="none" stroke="#337321" stroke-width=".005618"/><path d="m.64612832-3.0792907-.30538671.1315894.42704483.067036" fill="none" stroke="#337321" stroke-width=".005618"/><path d="m.77771771-3.0346-.10676121.069519" fill="none" stroke="#337321" stroke-width=".005618"/></g><g id="e"><path d="m-.07022473-2.1488764c.08786502.089523.22735253-.3871138.5863764-.372191.35902389.014923.77871393.4051941.93398873.2984551.1496448-.1028689-.5503951-.5750169-.96207862-.5723315-.41519475.00269-.65133427.551264-.55828651.6460674z" fill="#1a472b" fill-rule="evenodd" stroke="#000" stroke-width=".014045"/><path d="m-.05617979-2.1488764c.19926265-.450316.38009132-.8242626 1.50983149-.0877809" fill="none" stroke="#337321" stroke-width=".014045"/><path d="m-.06147503-2.3667217.06455329.091864.09682993.00497" fill="none" stroke="#337321" stroke-width=".005618"/><path d="m-.00188738-2.485897.05958765.1067612.09931275.032277" fill="none" stroke="#337321" stroke-width=".005618"/><path d="m.07259719-2.5876926.04469073.1191753.13903785.034759" fill="none" stroke="#337321" stroke-width=".005618"/><path d="m.17439275-2.6820397.002483.136555.15641758.06207" fill="none" stroke="#337321" stroke-width=".005618"/><path d="m.28860242-2.7540414-.0248282.1514519.1589004.084416" fill="none" stroke="#337321" stroke-width=".005618"/><path d="m.44253718-2.7937665-.0645533.1489691.15641758.1191753" fill="none" stroke="#337321" stroke-width=".005618"/><path d="m.66599087-2.7788696-.14648631.1315894.20110832.1663488" fill="none" stroke="#337321" stroke-width=".005618"/><path d="m.85716791-2.719282-.18124577.09683.18869423.1986255" fill="none" stroke="#337321" stroke-width=".005618"/><path d="m1.0284824-2.6447974-.21103959.059588.20110829.2408335" fill="none" stroke="#337321" stroke-width=".005618"/><path d="m1.1625546-2.5628644-.21103958.037242.22593648.2507647" fill="none" stroke="#337321" stroke-width=".005618"/><path d="m1.3289035-2.4461719-.2433163-.01738.2383506.2482818" fill="none" stroke="#337321" stroke-width=".005618"/><path d="m1.4480788-2.3245138-.1936599-.0347595" fill="none" stroke="#337321" stroke-width=".005618"/></g><use height="15" transform="matrix(-.994733 .422766 .422766 .994733 .806849 .029964)" width="15" xlink:href="#e"/><path d="m.06671347-1.9627808c.00000001.089203-.07231356.1615169-.16151686.1615169s-.16151686-.072314-.16151686-.1615169c0-.089203.0723136-.1615169.16151686-.1615169.0892033 0 .16151687.072314.16151686.1615169z" fill="#5c3021" stroke="#000" stroke-width=".02809" transform="translate(.028765 -.037845)"/></g><g transform="matrix(89.492483 0 0 89.492483 3980.0302 -751.15125)"><g fill="#96877d" fill-rule="evenodd" stroke="#000"><path d="m-19.365927 1.3526621s.213464.408105.240628.81236c0 0-.07037.058606-.04214.077429h.451739c.08385-.3798714-.237848-.9462561-.253248-1.1088136 0 0-.396983.2190249-.396983.2190249z" stroke-width=".019359"/><path d="m-18.1725 2.2406041s.02038-.065203.02038-.065203c.175234-.2383989.06996-1.1245715.06996-1.1245715l.35332.2110033s.02988.634644-.08911.9094932c0 0-.0326.065203-.0326.065203l-.321941.00408z" stroke-width=".023053"/><path d="m-19.834016 2.0752277s-.07385.1694427-.07385.1694427h.432558s.05553-.5424076.163527-.6864011c.102864-.1371522.411457-.1529775.458933-.2373788.142427.031651.625098-.029013.675211-.1002267.02901.1292395.525884.4477396.58026.5380588.05336.088629.06213.2509093.0211.4431072 0 0-.0211.042841-.0211.042841h.327054s.100562-.4771249.09122-.5474388c-.0084-.062976-.111102-.094755-.135873-.1408822-.02634-.049047.224005-1.09793558-.440657-1.33795202-.655336-.23664926-1.392623-.2637543-1.392623-.2637543l-.432557.55915913c.130426.43007021-.194397 1.09857379-.253204 1.56142549z" stroke-width=".01492"/></g><g fill="#fff" transform="matrix(1.032112 .251524 -.251524 1.032112 -2.035657 4.532348)"><path d="m-17.520657-.06514876c-.209177.05834624-.816847-.07448456-.816847-.07448456s.529461.2780757.871469.20855677" fill-rule="evenodd" stroke="#000" stroke-width=".014045"/><path d="m-17.428793.01678426c.000048.02132041-.0113.04104178-.02976.05171582s-.04121.01067404-.05966 0c-.01846-.01067404-.0298-.03039541-.02976-.05171582-.000048-.02132042.0113-.04104179.02976-.05171583s.04121-.01067404.05966 0c.01846.01067404.0298.03039541.02976.05171583z" transform="matrix(1.083334 0 0 1.083334 1.457366 -.018778)"/></g><g stroke="#000" stroke-width=".01492"><g fill="#96877d" fill-rule="evenodd"><path d="m-18.931976-.02953166c-.238697-.0039563-.378488-.24924783-.685761-.29540483-.307275-.046157-.543334.11077681-.543334.11077681l-.100227.21100344.07913.17935293s.175396.0369256.116052.1529775c-.05839.11418364-.538059-.1529775-.543333-.11077681-.0053.0422007.458316.27614055.606634.33760551.146384.0606635.485308.22023485.543334.54333381"/><path d="m-19.500596.15860955c-.09885.41776548.09705.81262824.205151.82807084.104442.0149202.531562-.15290371.593079-.21634278.05968-.0615458.158526-.33570452-.02238-.63037836-.180908-.29467384-.372045-.2483682-.694694-.40503031-.128687.0149203.03796.1498874.05313.24090818.01492.08952112.311459.25923842.395385.34316452"/><path d="m-20.029194-.22470985c-.418051-.0540696-.596085-.33892428-.954791-.38508129-.358706-.046157-.480032.20045327-.480032.20045327s-.02374.063301.0053.0949516c.02901.0316505.110778.0316505.110778.0316505s.09282-.13567155.390355-.0791263c.291448.0553884.503942.41918189.782204.54050887"/></g><g fill="none"><path d="m-21.461595-.40828103c.07693-.0205153.139411.0615458.113767.12682167"/><g stroke-linecap="round"><path d="m-20.404127-.34673522c.02425.0456931.02425.13334926.000002.16785221"/><path d="m-20.488052-.38776576c.02098.0410305.02751.10817142.0019.14920196"/><path d="m-20.573844-.4437165c.02285.0386993.0387.1030426.01679.13987684"/><path d="m-20.316469-.30943472c.05828.0694722.04243.16179087.02425.21820786"/><path d="m-19.988795-.18727562c.05269-.007926.156195.056417.134281.09325122"/><path d="m-20.013041-.15184016c.0079.0517544.09279.10490763.123092.08952117"/></g></g></g><path d="m-17.347261-.26509833c0 .017453-.01415.0316015-.0316.0316015s-.0316-.0141485-.0316-.0316015.01415-.0316015.0316-.0316015.0316.0141485.0316.0316015z" transform="matrix(1.062318 0 0 1.062318 -1.475991 .158686)"/><g fill="#fff" transform="matrix(1.048426 .171236 -.171236 1.048426 -1.705418 3.192659)"><path d="m-17.520657-.06514876c-.209177.05834624-.816847-.07448456-.816847-.07448456s.529461.2780757.871469.20855677" fill-rule="evenodd" stroke="#000" stroke-width=".014045"/><path d="m-17.428793.01678426c.000048.02132041-.0113.04104178-.02976.05171582s-.04121.01067404-.05966 0c-.01846-.01067404-.0298-.03039541-.02976-.05171582-.000048-.02132042.0113-.04104179.02976-.05171583s.04121-.01067404.05966 0c.01846.01067404.0298.03039541.02976.05171583z" transform="matrix(1.083334 0 0 1.083334 1.457366 -.018778)"/></g><g stroke="#000"><g stroke-width=".01492"><path d="m-20.389206.03372979c.148736.15666207.429423.2126128.507287.11749655" fill="#96877d" fill-rule="evenodd"/><g fill="none"><path d="m-18.179151 1.2198855c-.14081-.1809074-.235926-.31891927-.145472-.49982666"/><g stroke-linecap="round"><path d="m-19.485394 1.9843765c-.04257.075181-.03058.1987926-.06057.2499254"/><path d="m-17.838765 2.0183839c.02637.086762-.02441.1654719-.06326.2102416"/><path d="m-17.862943.44804352c.05536.0718252.0357.16340833.0152.21902518"/><path d="m-17.339726 1.6132178c.127487.07461.109294.2101669.09616.2679687"/><path d="m-17.978089.39729966c.07431.0519725.08296.14524089.08003.20444448"/><path d="m-18.780356 1.9423569c.07112.056266.04259.2237342.0098.2879368"/><path d="m-19.737081 1.7609689c.02472-.089623.03733-.2091042.07243-.256867"/><path d="m-17.252892 1.9675588c.0053.076212-.04023.2076726-.0527.2682675"/></g></g></g><path d="m-17.560382.35444761c.769674.52263335.309186 1.23735319.218489 1.23644379-.09088-.0009113.51146-.412148-.178764-1.03285265" fill="#96877d" fill-rule="evenodd" stroke-width=".014045"/></g></g><path d="m590.07636 497.32825c0 39.41879-32.63878 71.37404-72.90076 71.37404s-72.90077-31.95525-72.90077-71.37404c0-39.4188 32.63879-71.37405 72.90077-71.37405s72.90076 31.95525 72.90076 71.37405z" fill="none" stroke="#00247d" stroke-width="1.212271" transform="matrix(4.0808906 0 0 4.1681833 189.46289 -2772.9553)"/></g><g fill="#cf142b" stroke-width=".025"><path d="m6.888658 2.7135334v-.1206055h.3115235v.2851563q-.04541.043945-.131836.077637-.085937.033203-.1743164.033203-.1123046 0-.1958007-.046875-.083496-.047363-.1254883-.1347656-.041992-.087891-.041992-.190918 0-.1118164.046875-.1987304.046875-.086914.137207-.1333008.068848-.035645.1713867-.035645.1333008 0 .2080079.056152.075195.055664.09668.1542969l-.1435552.026856q-.0151368-.0527343-.057129-.0830078-.0415039-.0307617-.1040039-.0307617-.094727 0-.1508789.060059-.055664.060059-.055664.1782227 0 .1274414.056641.1914062.056641.063477.1484375.063477.04541 0 .09082-.017578.045898-.018066.078613-.043457v-.09082z"/><path d="m7.3320174 2.976717v-.137207h.1372071v.137207z"/><path d="m8.0683455 2.7135334.1401368.0444336q-.0322266.1171875-.1074219.1743164-.074707.0566406-.1899414.0566406-.1425781 0-.234375-.097168-.091797-.097656-.091797-.2666016 0-.1787109.092285-.2773438.092285-.099121.2426757-.099121.1313477 0 .213379.077637.048828.045898.073242.1318359l-.1430664.03418q-.012695-.055664-.053223-.087891-.040039-.032227-.097656-.032227-.07959 0-.1293945.057129-.049316.057129-.049316.1850586 0 .1357422.048828.1933594.048828.057617.1269531.057617.057617 0 .099121-.036621.041504-.036621.05957-.1152344z"/><path d="m8.3320174 2.976717v-.137207h.1372071v.137207z"/></g></svg>