<?xml version="1.0" encoding="UTF-8" standalone="no"?>
<svg
   xmlns:dc="http://purl.org/dc/elements/1.1/"
   xmlns:cc="http://creativecommons.org/ns#"
   xmlns:rdf="http://www.w3.org/1999/02/22-rdf-syntax-ns#"
   xmlns:svg="http://www.w3.org/2000/svg"
   xmlns="http://www.w3.org/2000/svg"
   xmlns:sodipodi="http://sodipodi.sourceforge.net/DTD/sodipodi-0.dtd"
   xmlns:inkscape="http://www.inkscape.org/namespaces/inkscape"
   width="1200"
   height="600"
   version="1.1"
   id="svg17"
   sodipodi:docname="Government_Ensign_of_the_United_Kingdom.svg"
   inkscape:version="0.92.2 (5c3e80d, 2017-08-06)">
  <metadata
     id="metadata23">
    <rdf:RDF>
      <cc:Work
         rdf:about="">
        <dc:format>image/svg+xml</dc:format>
        <dc:type
           rdf:resource="http://purl.org/dc/dcmitype/StillImage" />
        <dc:title></dc:title>
      </cc:Work>
    </rdf:RDF>
  </metadata>
  <defs
     id="defs21" />
  <sodipodi:namedview
     pagecolor="#ffffff"
     bordercolor="#666666"
     borderopacity="1"
     objecttolerance="10"
     gridtolerance="10"
     guidetolerance="10"
     inkscape:pageopacity="0"
     inkscape:pageshadow="2"
     inkscape:window-width="1920"
     inkscape:window-height="1057"
     id="namedview19"
     showgrid="false"
     inkscape:zoom="0.66939442"
     inkscape:cx="730.67679"
     inkscape:cy="252.71889"
     inkscape:window-x="-8"
     inkscape:window-y="-8"
     inkscape:window-maximized="1"
     inkscape:current-layer="svg17" />
  <clipPath
     id="c">
    <path
       d="M0,0V150H700V300H600zM0,300V350H300V0H600z"
       id="path2" />
  </clipPath>
  <rect
     width="1200"
     height="600"
     fill="#00247d"
     id="rect5" />
  <path
     d="M0,0 600,300M600,0 0,300"
     stroke="#fff"
     stroke-width="60"
     id="path7" />
  <path
     d="M0,0 600,300M600,0 0,300"
     stroke="#cf142b"
     stroke-width="40"
     clip-path="url(#c)"
     id="path9" />
  <path
     d="M0,150H700M300,0V350"
     stroke="#fff"
     stroke-width="100"
     id="path11" />
  <path
     d="M0,150H700M300,0V350"
     stroke="#cf142b"
     stroke-width="60"
     id="path13" />
  <path
     d="M0,300H600V0H1200V600H0z"
     fill="#00247d"
     id="path15"
     style="stroke:none" />
  <circle
     style="opacity:1;fill:#c80000;fill-opacity:1;fill-rule:nonzero;stroke:none;stroke-width:0.82418853;stroke-linecap:square;stroke-linejoin:miter;stroke-miterlimit:4;stroke-dasharray:none;stroke-opacity:1;paint-order:normal"
     id="path1520"
     cx="900"
     cy="300"
     r="140" />
  <path
     id="path2505"
     style="fill:#007800;fill-opacity:1;fill-rule:evenodd;stroke:#000000;stroke-width:1.67999995;stroke-linecap:round;stroke-linejoin:miter;stroke-miterlimit:4;stroke-dasharray:none;stroke-opacity:1"
     d="m 836.95329,299.9999 63.04681,109.20016 23.44054,-40.60012 16.1658,-2.3e-4 L 900.00005,437.2 828.87042,314.00001 m 118.81878,40.60006 71.1296,-123.20012 h -79.2127 l 8.08299,14.00006 h 46.88097 l -63.04672,109.20017 m 31.52341,-54.60006 8.08281,-14.00011 -71.12951,-123.19983 -39.60639,68.59994 16.16596,-5e-5 23.44048,-40.60012 z m -31.52324,-54.60011 -8.08304,-14.00006 H 781.18138 l 39.60628,68.60023 8.08292,-14.00011 -23.44047,-40.60012 z m -63.04676,-1.1e-4 -16.16591,1.1e-4 -71.12929,123.20009 79.21261,-1.1e-4 -8.08298,-13.99998 h -46.88101 z m -1.7e-4,109.20017 8.08304,14.0002 142.25908,-3.3e-4 -39.60621,-68.60021 -8.08299,14.00028 23.44056,40.60028 z"
     inkscape:connector-curvature="0"
     sodipodi:nodetypes="cccccccccccccccccccccccccccccccccccccccc" />
  <path
     id="path6200"
     style="font-weight:bold;font-size:1.29999995px;fill:#ffffff;stroke:none;stroke-width:43.83092499"
     d="m 872.1569,348.55397 v -9.74764 h 1.91498 l 3.98938,6.5095 v -6.5095 h 1.82852 v 9.74764 h -1.97484 l -3.92952,-6.35656 v 6.35656 z m 9.76092,0 v -9.74764 h 1.96812 v 9.74764 z m 8.37116,-3.58394 v -1.64232 h 4.24216 v 3.88304 c -0.41244,0.39889 -1.00951,0.75029 -1.79188,1.05387 -0.78244,0.30374 -1.57489,0.4555 -2.37709,0.4555 -1.01959,0 -1.90831,-0.21392 -2.66633,-0.64165 -0.75796,-0.42778 -1.32754,-1.03947 -1.70878,-1.83517 -0.38131,-0.79565 -0.57188,-1.66113 -0.57188,-2.59644 0,-1.01506 0.21258,-1.91716 0.63829,-2.70615 0.4256,-0.78904 1.04843,-1.39412 1.8685,-1.81524 0.62496,-0.32345 1.40297,-0.48535 2.3338,-0.48535 1.21016,0 2.15538,0.25379 2.83584,0.76132 0.68051,0.50759 1.11815,1.20904 1.3132,2.10448 l -1.95485,0.36551 c -0.13765,-0.47868 -0.39581,-0.85663 -0.77459,-1.1336 -0.37918,-0.27704 -0.85221,-0.41552 -1.4196,-0.41552 -0.85994,0 -1.5437,0.2726 -2.05128,0.81782 -0.50759,0.54522 -0.76138,1.35419 -0.76138,2.42693 0,1.15696 0.25732,2.02468 0.77135,2.6031 0.51424,0.57848 1.18792,0.86772 2.02137,0.86772 0.41244,0 0.82555,-0.0811 1.24007,-0.24281 0.41468,-0.16173 0.77011,-0.35807 1.06719,-0.5884 v -1.23676 z m 6.05074,3.58394 v -9.74764 h 7.22753 v 1.64898 h -5.25941 v 2.16098 h 4.89373 v 1.64231 h -4.89373 v 2.653 h 5.44555 v 1.64237 z m 9.10258,0 v -9.74764 h 4.14237 c 1.04177,0 1.79861,0.0877 2.27063,0.26258 0.4722,0.17528 0.85003,0.48648 1.13372,0.9342 0.28359,0.44772 0.4256,0.95967 0.4256,1.53591 0,0.73141 -0.2152,1.33537 -0.645,1.81188 -0.42997,0.47656 -1.07263,0.77689 -1.9282,0.90093 0.4256,0.24808 0.77689,0.52085 1.05392,0.81788 0.27698,0.29713 0.65044,0.82448 1.12028,1.58244 l 1.19023,1.90171 h -2.35379 l -1.42291,-2.12111 c -0.50534,-0.75802 -0.8512,-1.23564 -1.03723,-1.43288 -0.18631,-0.19723 -0.38354,-0.33224 -0.59181,-0.40544 -0.20821,-0.0732 -0.53861,-0.10959 -0.99069,-0.10959 h -0.39889 v 4.0693 z m 1.96812,-5.6252 h 1.45616 c 0.94416,0 1.53379,-0.0398 1.76871,-0.11967 0.23492,-0.0797 0.41905,-0.21739 0.55182,-0.41244 0.13283,-0.19505 0.19942,-0.43882 0.19942,-0.73142 0,-0.32782 -0.0876,-0.59281 -0.26253,-0.79453 -0.17489,-0.20165 -0.42207,-0.32916 -0.74138,-0.3822 -0.15955,-0.0224 -0.63829,-0.033 -1.43612,-0.033 h -1.53608 z m 7.80606,5.6252 v -9.74764 h 1.96812 v 9.74764 z m 12.6266,0 h -2.14088 l -0.85114,-2.21418 h -3.89643 l -0.80455,2.21418 h -2.08774 l 3.79664,-9.74764 h 2.08118 z m -3.6237,-3.8565 -1.34311,-3.61709 -1.31656,3.61709 z"
     inkscape:connector-curvature="0" />
  <g
     transform="matrix(0.553999,0,0,0.55394877,276.7574,194.21086)"
     id="g490">
    <g
       transform="matrix(0.91512598,0,0,0.98573972,129.82591,-568.08606)"
       id="g50">
      <path
         style="fill:#ffffff"
         inkscape:connector-curvature="0"
         d="m 1078.8429,808.64283 c -9.0021,0.10633 -18.0042,0.28353 -26.9354,0.85059 -6.5921,0.49618 -14.1057,1.06324 -20.5205,1.98471 l -1.6303,0.28354 c -4.0403,0.77971 -4.6074,5.59972 -2.4809,8.22238 4.3238,5.42252 29.9479,9.64004 60.2148,9.64004 30.2314,0 55.8555,-4.21752 60.1793,-9.64004 2.1265,-2.62266 1.5594,-7.44267 -2.4809,-8.22238 l -1.6303,-0.28354 c -6.3794,-0.92147 -13.9284,-1.48853 -20.5205,-1.98471 -8.9312,-0.56706 -17.9333,-0.74426 -26.9354,-0.85059 h -8.6122 z"
         id="path30" />
      <g
         id="g42">
        <path
           inkscape:connector-curvature="0"
           d="m 1093.4801,813.81727 c -2.2328,-0.35442 -4.2884,-0.81515 -6.2376,-1.31134 -1.7012,-0.46073 -3.2961,-0.95691 -4.8555,-1.48853 0.4608,0.74427 1.1341,1.48853 2.7644,2.0556 -1.3113,-0.0354 -3.0479,0.46073 -3.6859,0.74427 0.638,0.24809 2.4455,0.74426 3.7568,0.70882 -1.5948,0.56706 -2.1973,1.31133 -2.5518,2.0556 1.3823,-0.49618 2.8708,-0.95692 4.4302,-1.38221 1.9847,-0.53162 4.0758,-0.99236 6.3794,-1.38221 z"
           id="path32" />
        <path
           inkscape:connector-curvature="0"
           d="m 1069.9471,813.92358 c -2.2328,-0.28352 -4.2884,-0.67337 -6.2377,-1.13411 -1.7366,-0.38986 -3.3669,-0.8506 -4.8909,-1.34677 0.4253,0.74426 1.1342,1.45309 2.7999,1.98471 -1.3468,0 -3.0479,0.56706 -3.6504,0.8506 0.6379,0.24808 2.4454,0.67337 3.7567,0.6025 -1.5594,0.6025 -2.1619,1.38221 -2.5163,2.12647 1.3822,-0.53161 2.8353,-1.06324 4.3947,-1.52397 1.9847,-0.6025 4.0758,-1.09869 6.344,-1.55943 z"
           id="path34" />
        <path
           inkscape:connector-curvature="0"
           d="m 1046.5913,815.05771 c -2.2328,-0.14177 -4.3593,-0.38985 -6.344,-0.70883 -1.7366,-0.28352 -3.4024,-0.6025 -4.9618,-0.99235 0.4962,0.70883 1.2405,1.38221 2.9416,1.77206 -1.3113,0.10633 -2.977,0.77971 -3.5795,1.09868 0.6734,0.17721 2.4809,0.49618 3.7922,0.35442 -1.524,0.70883 -2.0556,1.52398 -2.3391,2.30368 1.3467,-0.63794 2.7644,-1.27589 4.2884,-1.84294 1.9138,-0.74427 3.9694,-1.41766 6.2022,-1.98472 z"
           id="path36" />
        <path
           inkscape:connector-curvature="0"
           d="m 1117.0132,814.27801 c -2.2328,0.31896 -4.3239,0.67337 -6.2731,1.13411 -1.7367,0.38986 -3.367,0.8506 -4.8909,1.38221 0.4607,-0.74426 1.1341,-1.48854 2.7998,-1.98471 -1.3113,-0.0354 -3.0479,-0.56706 -3.6504,-0.85059 0.6379,-0.24809 2.4454,-0.67339 3.7568,-0.63795 -1.5595,-0.6025 -2.162,-1.34676 -2.4809,-2.12647 1.3822,0.56706 2.8353,1.06324 4.3947,1.55941 1.9493,0.56706 4.0403,1.09869 6.344,1.52399 z"
           id="path38" />
        <path
           inkscape:connector-curvature="0"
           d="m 1140.2981,816.22727 c -2.2328,0.14177 -4.3238,0.35442 -6.3085,0.67339 -1.7367,0.28353 -3.4024,0.63794 -4.9973,1.02779 0.5317,-0.70882 1.2759,-1.38221 2.9771,-1.77206 -1.3468,-0.10632 -3.0125,-0.77971 -3.615,-1.09868 0.6734,-0.21265 2.4809,-0.53162 3.8277,-0.35442 -1.524,-0.70882 -2.0911,-1.52397 -2.3746,-2.30368 1.3468,0.63795 2.7644,1.24045 4.2884,1.84295 1.9138,0.70882 3.9694,1.38221 6.2022,1.98471 z"
           id="path40" />
      </g>
      <path
         style="fill:#cccccc"
         inkscape:connector-curvature="0"
         d="m 1087.4906,818.92082 c -36.0793,0 -57.9466,2.09103 -56.1391,3.68589 12.6526,5.28076 37.5678,6.98194 56.1391,7.01738 18.5358,-0.0354 43.451,-1.73662 56.1036,-7.01738 1.8075,-1.59486 -20.0598,-3.68589 -56.1036,-3.68589 z"
         id="path44" />
      <path
         style="fill:none;stroke:#000000;stroke-width:0.616"
         inkscape:connector-curvature="0"
         d="m 1143.5233,822.71304 c 0.319,-0.8506 -1.0987,-1.09869 -2.5872,-1.27589 -5.777,-0.74427 -12.1918,-1.24045 -17.8979,-1.66575 -8.9312,-0.56706 -17.9333,-0.74426 -26.9354,-0.85058 h -8.6122 -8.6477 c -9.0021,0.10632 -18.0042,0.28352 -26.9354,0.85058 -5.7061,0.4253 -12.1209,0.92148 -17.8979,1.66575 -1.4885,0.1772 -2.9062,0.42529 -2.5872,1.27589"
         id="path46" />
      <path
         style="fill:none;stroke:#000000;stroke-width:0.616"
         inkscape:connector-curvature="0"
         d="m 1078.8429,808.64283 c -9.0021,0.10633 -18.0042,0.28353 -26.9354,0.85059 -6.5921,0.49618 -14.1057,1.06324 -20.5205,1.98471 l -1.6303,0.28354 c -4.0403,0.77971 -4.6074,5.59972 -2.4809,8.22238 4.3238,5.42252 29.9479,9.64004 60.2148,9.64004 30.2314,0 55.8555,-4.21752 60.1793,-9.64004 2.1265,-2.62266 1.5594,-7.44267 -2.4809,-8.22238 l -1.6303,-0.28354 c -6.3794,-0.92147 -13.9284,-1.48853 -20.5205,-1.98471 -8.9312,-0.56706 -17.9333,-0.74426 -26.9354,-0.85059 h -8.6122 z"
         id="path48" />
    </g>
    <g
       style="stroke-width:2.41697264"
       transform="matrix(0.22717916,0,0,0.258213,892.4431,39.855492)"
       id="g56">
      <path
         style="fill:#c80000;fill-opacity:1;fill-rule:evenodd"
         inkscape:connector-curvature="0"
         d="m 1219.6137,702.29723 17.5585,-48.60101 7.0916,-20.12069 17.5754,-10.35243 17.8003,-38.34426 8.3852,-10.02781 1.2943,-35.32891 c 0,0 -12.2982,-25.06064 -31.3301,-34.06025 -27.2247,-12.8737 -64.1791,-11.10313 -64.1791,-11.10313 0,0 -8.5364,-21.39607 -24.1931,-29.7222 -15.6568,-8.32613 -33.0417,-10.33307 -51.2889,-10.33307 -18.2472,0 -50.9949,15.46287 -68.7041,20.00816 -9.2065,2.36299 -29.9982,10.33308 -29.9982,10.33308 0,0 -20.79166,-7.97009 -29.99821,-10.33308 -17.70915,-4.5453 -50.45684,-20.00816 -68.70405,-20.00816 -18.24722,0 -35.06405,1.70487 -51.28889,10.33307 -15.08879,8.02407 -35.80328,29.7222 -35.80328,29.7222 0,0 -23.71708,-3.05098 -40.37855,6.45017 -20.78259,11.85121 -35.42784,36.77819 -35.42784,36.77819 l 1.43492,38.60079 3.27268,14.75485 13.42969,14.63013 17.50734,29.54809 12.54298,29.14172 13.42501,38.03455 z"
         id="path52" />
      <path
         style="fill:none;stroke:#000000;stroke-width:2.41697264"
         inkscape:connector-curvature="0"
         d="m 1219.6137,702.29723 17.5585,-48.60101 7.0916,-20.12069 17.5754,-10.35243 17.8003,-38.34426 8.3852,-10.02781 1.2943,-35.32891 c 0,0 -12.2982,-25.06064 -31.3301,-34.06025 -27.2247,-12.8737 -64.1791,-11.10313 -64.1791,-11.10313 0,0 -8.5364,-21.39607 -24.1931,-29.7222 -15.6568,-8.32613 -33.0417,-10.33307 -51.2889,-10.33307 -18.2472,0 -50.9949,15.46287 -68.7041,20.00816 -9.2065,2.36299 -29.9982,10.33308 -29.9982,10.33308 0,0 -20.79166,-7.97009 -29.99821,-10.33308 -17.70915,-4.5453 -50.45684,-20.00816 -68.70405,-20.00816 -18.24722,0 -35.06405,1.70487 -51.28889,10.33307 -15.08879,8.02407 -35.80328,29.7222 -35.80328,29.7222 0,0 -23.71708,-3.05098 -40.37855,6.45017 -20.78259,11.85121 -35.42784,36.77819 -35.42784,36.77819 l 1.43492,38.60079 3.27268,14.75485 13.42969,14.63013 17.50734,29.54809 12.54298,29.14172 13.42501,38.03455 z"
         id="path54" />
    </g>
    <g
       transform="matrix(0.60403804,0,0,0.65074055,943.77673,-304.0949)"
       id="g488">
      <g
         style="stroke-width:1.16959059"
         transform="matrix(0.79825579,0,0,0.79825579,-314.32464,498.95953)"
         id="g174">
        <g
           transform="matrix(-1,0,0,1,1539.1702,0)"
           id="g114">
          <g
             style="stroke-width:1.16959059"
             id="g62">
            <path
               inkscape:connector-curvature="0"
               style="color:#000000;text-indent:0;text-decoration:none;text-decoration-line:none;text-transform:none;fill:#fed100"
               d="m 771.15782,228.3031 c -39.75952,-1.07381 -94.77425,15.0687 -140.0625,71.53125 l 10.15625,8.125 c 42.84225,-53.41303 93.6015,-67.62747 129.5625,-66.65625 z"
               id="path58" />
            <path
               inkscape:connector-curvature="0"
               style="color:#000000;text-indent:0;text-decoration:none;text-decoration-line:none;text-transform:none;fill:none;stroke:#000000;stroke-width:1.16959059"
               d="m 771.15782,228.3031 c -39.75952,-1.07381 -94.77425,15.0687 -140.0625,71.53125 l 10.15625,8.125 c 42.84225,-53.41303 93.6015,-67.62747 129.5625,-66.65625 z"
               id="path60" />
          </g>
          <g
             style="stroke-width:0.87873077"
             id="g112">
            <g
               transform="matrix(1.331,0,0,1.331,998.5337,-1148.7622)"
               id="g68">
              <g
                 style="stroke-width:1.75746155"
                 transform="matrix(0.5,0,0,0.5,-1617.4954,688.20707)"
                 id="g66">
                <ellipse
                   style="fill:#ffffff;stroke:#000000;stroke-width:1.75746155"
                   rx="10.48851"
                   transform="translate(0,-2.0633135)"
                   ry="10.660453"
                   cy="785.0257"
                   cx="2689.7012"
                   id="ellipse64" />
              </g>
            </g>
            <g
               transform="matrix(1.331,0,0,1.331,1010.5599,-1161.8414)"
               id="g74">
              <g
                 style="stroke-width:1.75746155"
                 transform="matrix(0.5,0,0,0.5,-1617.4954,688.20707)"
                 id="g72">
                <ellipse
                   style="fill:#ffffff;stroke:#000000;stroke-width:1.75746155"
                   rx="10.48851"
                   transform="translate(0,-2.0633135)"
                   ry="10.660453"
                   cy="785.0257"
                   cx="2689.7012"
                   id="ellipse70" />
              </g>
            </g>
            <g
               transform="matrix(1.331,0,0,1.331,1104.2522,-1210.2337)"
               id="g80">
              <g
                 style="stroke-width:1.75746155"
                 transform="matrix(0.5,0,0,0.5,-1617.4954,688.20707)"
                 id="g78">
                <ellipse
                   style="fill:#ffffff;stroke:#000000;stroke-width:1.75746155"
                   rx="10.48851"
                   transform="translate(0,-2.0633135)"
                   ry="10.660453"
                   cy="785.0257"
                   cx="2689.7012"
                   id="ellipse76" />
              </g>
            </g>
            <g
               transform="matrix(1.331,0,0,1.331,1025.3794,-1173.4875)"
               id="g86">
              <g
                 style="stroke-width:1.75746155"
                 transform="matrix(0.5,0,0,0.5,-1617.9475,687.75493)"
                 id="g84">
                <ellipse
                   style="fill:#ffffff;stroke:#000000;stroke-width:1.75746155"
                   rx="10.48851"
                   transform="translate(0,-2.0633135)"
                   ry="10.660453"
                   cy="785.0257"
                   cx="2689.7012"
                   id="ellipse82" />
              </g>
            </g>
            <g
               transform="matrix(1.331,0,0,1.331,1039.3769,-1184.8605)"
               id="g92">
              <g
                 style="stroke-width:1.75746155"
                 transform="matrix(0.5,0,0,0.5,-1617.4954,688.20707)"
                 id="g90">
                <ellipse
                   style="fill:#ffffff;stroke:#000000;stroke-width:1.75746155"
                   rx="10.48851"
                   transform="translate(0,-2.0633135)"
                   ry="10.660453"
                   cy="785.0257"
                   cx="2689.7012"
                   id="ellipse88" />
              </g>
            </g>
            <g
               transform="matrix(1.331,0,0,1.331,1054.9466,-1193.9508)"
               id="g98">
              <g
                 style="stroke-width:1.75746155"
                 transform="matrix(0.5,0,0,0.5,-1617.4954,688.20707)"
                 id="g96">
                <ellipse
                   style="fill:#ffffff;stroke:#000000;stroke-width:1.75746155"
                   rx="10.48851"
                   transform="translate(0,-2.0633135)"
                   ry="10.660453"
                   cy="785.0257"
                   cx="2689.7012"
                   id="ellipse94" />
              </g>
            </g>
            <g
               transform="matrix(1.331,0,0,1.331,1086.5909,-1206.3778)"
               id="g104">
              <g
                 style="stroke-width:1.75746155"
                 transform="matrix(0.5,0,0,0.5,-1617.4954,688.20707)"
                 id="g102">
                <ellipse
                   style="fill:#ffffff;stroke:#000000;stroke-width:1.75746155"
                   rx="10.48851"
                   transform="translate(0,-2.0633135)"
                   ry="10.660453"
                   cy="785.0257"
                   cx="2689.7012"
                   id="ellipse100" />
              </g>
            </g>
            <g
               transform="matrix(1.331,0,0,1.331,1070.5706,-1200.7721)"
               id="g110">
              <g
                 style="stroke-width:1.75746155"
                 transform="matrix(0.5,0,0,0.5,-1617.4954,688.20707)"
                 id="g108">
                <ellipse
                   style="fill:#ffffff;stroke:#000000;stroke-width:1.75746155"
                   rx="10.48851"
                   transform="translate(0,-2.0633135)"
                   ry="10.660453"
                   cy="785.0257"
                   cx="2689.7012"
                   id="ellipse106" />
              </g>
            </g>
          </g>
        </g>
        <g
           id="g172">
          <g
             style="stroke-width:1.16959059"
             id="g120">
            <path
               inkscape:connector-curvature="0"
               style="color:#000000;text-indent:0;text-decoration:none;text-decoration-line:none;text-transform:none;fill:#f6e078"
               d="m 771.15782,228.3031 c -39.75952,-1.07381 -94.77425,15.0687 -140.0625,71.53125 l 10.15625,8.125 c 42.84225,-53.41303 93.6015,-67.62747 129.5625,-66.65625 z"
               id="path116" />
            <path
               inkscape:connector-curvature="0"
               style="color:#000000;text-indent:0;text-decoration:none;text-decoration-line:none;text-transform:none;fill:#fed100;stroke:#000000;stroke-width:1.16959059"
               d="m 771.15782,228.3031 c -39.75952,-1.07381 -94.77425,15.0687 -140.0625,71.53125 l 10.15625,8.125 c 42.84225,-53.41303 93.6015,-67.62747 129.5625,-66.65625 z"
               id="path118" />
          </g>
          <g
             style="stroke-width:0.87873077"
             id="g170">
            <g
               transform="matrix(1.331,0,0,1.331,998.5337,-1148.7622)"
               id="g126">
              <g
                 style="stroke-width:1.75746155"
                 transform="matrix(0.5,0,0,0.5,-1617.4954,688.20707)"
                 id="g124">
                <ellipse
                   style="fill:#ffffff;stroke:#000000;stroke-width:1.75746155"
                   rx="10.48851"
                   transform="translate(0,-2.0633135)"
                   ry="10.660453"
                   cy="785.0257"
                   cx="2689.7012"
                   id="ellipse122" />
              </g>
            </g>
            <g
               transform="matrix(1.331,0,0,1.331,1010.5599,-1161.8414)"
               id="g132">
              <g
                 style="stroke-width:1.75746155"
                 transform="matrix(0.5,0,0,0.5,-1617.4954,688.20707)"
                 id="g130">
                <ellipse
                   style="fill:#ffffff;stroke:#000000;stroke-width:1.75746155"
                   rx="10.48851"
                   transform="translate(0,-2.0633135)"
                   ry="10.660453"
                   cy="785.0257"
                   cx="2689.7012"
                   id="ellipse128" />
              </g>
            </g>
            <g
               transform="matrix(1.331,0,0,1.331,1104.2522,-1210.2337)"
               id="g138">
              <g
                 style="stroke-width:1.75746155"
                 transform="matrix(0.5,0,0,0.5,-1617.4954,688.20707)"
                 id="g136">
                <ellipse
                   style="fill:#ffffff;stroke:#000000;stroke-width:1.75746155"
                   rx="10.48851"
                   transform="translate(0,-2.0633135)"
                   ry="10.660453"
                   cy="785.0257"
                   cx="2689.7012"
                   id="ellipse134" />
              </g>
            </g>
            <g
               transform="matrix(1.331,0,0,1.331,1025.3794,-1173.4875)"
               id="g144">
              <g
                 style="stroke-width:1.75746155"
                 transform="matrix(0.5,0,0,0.5,-1617.9475,687.75493)"
                 id="g142">
                <ellipse
                   style="fill:#ffffff;stroke:#000000;stroke-width:1.75746155"
                   rx="10.48851"
                   transform="translate(0,-2.0633135)"
                   ry="10.660453"
                   cy="785.0257"
                   cx="2689.7012"
                   id="ellipse140" />
              </g>
            </g>
            <g
               transform="matrix(1.331,0,0,1.331,1039.3769,-1184.8605)"
               id="g150">
              <g
                 style="stroke-width:1.75746155"
                 transform="matrix(0.5,0,0,0.5,-1617.4954,688.20707)"
                 id="g148">
                <ellipse
                   style="fill:#ffffff;stroke:#000000;stroke-width:1.75746155"
                   rx="10.48851"
                   transform="translate(0,-2.0633135)"
                   ry="10.660453"
                   cy="785.0257"
                   cx="2689.7012"
                   id="ellipse146" />
              </g>
            </g>
            <g
               transform="matrix(1.331,0,0,1.331,1054.9466,-1193.9508)"
               id="g156">
              <g
                 style="stroke-width:1.75746155"
                 transform="matrix(0.5,0,0,0.5,-1617.4954,688.20707)"
                 id="g154">
                <ellipse
                   style="fill:#ffffff;stroke:#000000;stroke-width:1.75746155"
                   rx="10.48851"
                   transform="translate(0,-2.0633135)"
                   ry="10.660453"
                   cy="785.0257"
                   cx="2689.7012"
                   id="ellipse152" />
              </g>
            </g>
            <g
               transform="matrix(1.331,0,0,1.331,1086.5909,-1206.3778)"
               id="g162">
              <g
                 style="stroke-width:1.75746155"
                 transform="matrix(0.5,0,0,0.5,-1617.4954,688.20707)"
                 id="g160">
                <ellipse
                   style="fill:#ffffff;stroke:#000000;stroke-width:1.75746155"
                   rx="10.48851"
                   transform="translate(0,-2.0633135)"
                   ry="10.660453"
                   cy="785.0257"
                   cx="2689.7012"
                   id="ellipse158" />
              </g>
            </g>
            <g
               transform="matrix(1.331,0,0,1.331,1070.5706,-1200.7721)"
               id="g168">
              <g
                 style="stroke-width:1.75746155"
                 transform="matrix(0.5,0,0,0.5,-1617.4954,688.20707)"
                 id="g166">
                <ellipse
                   style="fill:#ffffff;stroke:#000000;stroke-width:1.75746155"
                   rx="10.48851"
                   transform="translate(0,-2.0633135)"
                   ry="10.660453"
                   cy="785.0257"
                   cx="2689.7012"
                   id="ellipse164" />
              </g>
            </g>
          </g>
        </g>
      </g>
      <g
         style="stroke-width:1.17646122"
         id="g486">
        <g
           transform="matrix(0.79359396,0,0,0.79359396,-61.613202,495.35847)"
           id="g260">
          <g
             transform="matrix(1.21,0,0,1.21,213.62355,155.71916)"
             id="g186">
            <g
               style="stroke-width:0.97228199"
               id="g178">
              <path
                 style="fill:#fed100;stroke:#000000;stroke-width:0.97228199"
                 inkscape:connector-curvature="0"
                 d="m 185.95983,37.046559 c 1.56725,-1.983919 3.43923,-3.457652 4.95647,-5.474907 1.59409,-2.119424 2.81027,-4.797822 3.43535,-7.503048 -2.77102,0.690875 -5.44941,1.907055 -7.56884,3.501145 -2.01725,1.51724 -3.49099,3.38922 -5.47491,4.95647 V 7.1155227 c 1.98392,1.56725 3.45766,3.4392313 5.47491,4.9564713 2.11943,1.59409 4.79782,2.81027 7.56884,3.501145 -0.62508,-2.705226 -1.84126,-5.383624 -3.43535,-7.5030494 -1.51724,-2.0172551 -3.38922,-3.4909877 -4.95647,-5.474907 l 28.15166,9e-7 c -1.56725,1.9839197 -3.43923,3.4576517 -4.95647,5.4749067 -1.59409,2.1194248 -2.81027,4.7978218 -3.43535,7.5030478 2.77102,-0.690875 5.44941,-1.907055 7.56884,-3.501144 2.01725,-1.51724 3.49099,-3.3892208 5.47491,-4.9564708 V 32.526218 c -1.98392,-1.56725 -3.45766,-3.43923 -5.47491,-4.95647 -2.11943,-1.59409 -4.79782,-2.81027 -7.56884,-3.501145 0.62508,2.705226 1.84126,5.383624 3.43535,7.503048 1.51724,2.017255 3.38922,3.490988 4.95647,5.474907 z"
                 id="path176" />
            </g>
            <g
               style="stroke-width:0.73048985"
               transform="matrix(1.331,0,0,1.331,562.92591,-1417.2442)"
               id="g184">
              <g
                 style="stroke-width:1.4609797"
                 transform="matrix(0.5,0,0,0.5,-1617.4954,688.20707)"
                 id="g182">
                <ellipse
                   style="fill:#ffffff;stroke:#000000;stroke-width:1.4609797"
                   rx="10.48851"
                   transform="translate(0,-2.0633135)"
                   ry="10.660453"
                   cy="785.0257"
                   cx="2689.7012"
                   id="ellipse180" />
              </g>
            </g>
          </g>
          <g
             transform="matrix(0.9431125,0,0,0.9431125,266.86737,172.34875)"
             id="g200">
            <g
               style="stroke-width:0.6748721"
               transform="matrix(1.8634686,0,0,1.8334253,97.191875,-1597.6892)"
               id="g192">
              <ellipse
                 style="fill:#fed100"
                 rx="10.48851"
                 transform="matrix(1.039961,0,0,1.039961,-2741.9134,82.47589)"
                 ry="10.660453"
                 cy="785.0257"
                 cx="2689.7012"
                 id="ellipse188" />
              <ellipse
                 style="fill:none;stroke:#000000;stroke-width:0.64893979"
                 rx="10.48851"
                 transform="matrix(1.039961,0,0,1.039961,-2741.9134,82.47589)"
                 ry="10.660453"
                 cy="785.0257"
                 cx="2689.7012"
                 id="ellipse190" />
            </g>
            <g
               style="stroke-width:1.24742401"
               id="g198">
              <path
                 style="fill:#fed100"
                 inkscape:connector-curvature="0"
                 d="M 195.84375,28.4375 V 45.5 h -17.0625 v 8.6875 h 42.8125 V 45.5 H 204.5 V 28.4375 Z"
                 id="path194" />
              <path
                 style="fill:none;stroke:#000000;stroke-width:1.24742401"
                 inkscape:connector-curvature="0"
                 d="m 195.84375,28.437483 v 17.0625 h -17.0625 v 8.6875 h 42.8125 v -8.6875 H 204.5 v -17.0625 z"
                 id="path196" />
            </g>
          </g>
          <g
             transform="translate(299.98421,6.6835864)"
             id="g258">
            <g
               style="stroke-width:1.17646122"
               transform="translate(-39.303969,193.4027)"
               id="g224">
              <g
                 id="g206">
                <rect
                   style="fill:#fed100;fill-rule:evenodd"
                   ry="6.3860378"
                   height="71.720367"
                   width="25.321815"
                   y="34.934082"
                   x="182.32555"
                   id="rect202" />
                <rect
                   style="fill:none;stroke:#000000;stroke-width:1.17646122"
                   ry="6.3860378"
                   height="71.720367"
                   width="25.321815"
                   y="34.934082"
                   x="182.32555"
                   id="rect204" />
              </g>
              <g
                 transform="translate(-303.37355,-281.41881)"
                 id="g222">
                <g
                   style="stroke-width:1.15360391"
                   id="g220">
                  <g
                     transform="matrix(1.146997,0,0,0.9067332,226.83512,-537.15201)"
                     id="g212">
                    <rect
                       style="fill:#fed100;fill-rule:evenodd"
                       ry="3.7999027"
                       height="79.25563"
                       width="7.0406027"
                       y="941.21753"
                       x="221.33458"
                       id="rect208" />
                    <path
                       style="fill:none;stroke:#000000;stroke-width:1.15360391"
                       inkscape:connector-curvature="0"
                       d="m 224.8549,941.21755 c 1.95025,0 3.5203,1.69475 3.5203,3.7999 v 71.65585 c 0,2.1051 -1.57005,3.7999 -3.5203,3.7999 -1.95025,0 -3.5203,-1.6948 -3.5203,-3.7999 v -71.65585 c 0,-2.10515 1.57005,-3.7999 3.5203,-3.7999 z"
                       id="path210" />
                  </g>
                  <g
                     transform="matrix(1.146997,0,0,0.9067332,232.09304,-537.15198)"
                     id="g218">
                    <rect
                       style="fill:#fed100;fill-rule:evenodd"
                       ry="3.7999027"
                       height="79.25563"
                       width="7.0406027"
                       y="941.21753"
                       x="240.49425"
                       id="rect214" />
                    <rect
                       style="fill:none;stroke:#000000;stroke-width:1.15360391"
                       ry="3.7999027"
                       height="79.25563"
                       width="7.0406027"
                       y="941.21753"
                       x="240.49425"
                       id="rect216" />
                  </g>
                </g>
              </g>
            </g>
            <g
               style="stroke-width:0.88389271"
               transform="translate(-25.575185,194.49445)"
               id="g256">
              <g
                 transform="matrix(1.331,0,0,1.331,544.14792,-1401.6952)"
                 id="g230">
                <g
                   style="stroke-width:1.76778543"
                   transform="matrix(0.5,0,0,0.5,-1617.4954,688.20707)"
                   id="g228">
                  <ellipse
                     style="fill:#ffffff;stroke:#000000;stroke-width:1.76778543"
                     rx="10.48851"
                     transform="translate(0,-2.0633135)"
                     ry="10.660453"
                     cy="785.0257"
                     cx="2689.7012"
                     id="ellipse226" />
                </g>
              </g>
              <g
                 transform="matrix(1.331,0,0,1.331,544.14792,-1387.5885)"
                 id="g236">
                <g
                   style="stroke-width:1.76778543"
                   transform="matrix(0.5,0,0,0.5,-1617.4954,688.20707)"
                   id="g234">
                  <ellipse
                     style="fill:#ffffff;stroke:#000000;stroke-width:1.76778543"
                     rx="10.48851"
                     transform="translate(0,-2.0633135)"
                     ry="10.660453"
                     cy="785.0257"
                     cx="2689.7012"
                     id="ellipse232" />
                </g>
              </g>
              <g
                 transform="matrix(1.331,0,0,1.331,544.14792,-1373.4609)"
                 id="g242">
                <g
                   style="stroke-width:1.76778543"
                   transform="matrix(0.5,0,0,0.5,-1617.4954,688.20707)"
                   id="g240">
                  <ellipse
                     style="fill:#ffffff;stroke:#000000;stroke-width:1.76778543"
                     rx="10.48851"
                     transform="translate(0,-2.0633135)"
                     ry="10.660453"
                     cy="785.0257"
                     cx="2689.7012"
                     id="ellipse238" />
                </g>
              </g>
              <g
                 transform="matrix(1.331,0,0,1.331,544.14792,-1359.3334)"
                 id="g248">
                <g
                   style="stroke-width:1.76778543"
                   transform="matrix(0.5,0,0,0.5,-1617.4954,688.20707)"
                   id="g246">
                  <ellipse
                     style="fill:#ffffff;stroke:#000000;stroke-width:1.76778543"
                     rx="10.48851"
                     transform="translate(0,-2.0633135)"
                     ry="10.660453"
                     cy="785.0257"
                     cx="2689.7012"
                     id="ellipse244" />
                </g>
              </g>
              <g
                 transform="matrix(1.331,0,0,1.331,544.14792,-1345.2058)"
                 id="g254">
                <g
                   style="stroke-width:1.76778543"
                   transform="matrix(0.5,0,0,0.5,-1617.4954,688.20707)"
                   id="g252">
                  <ellipse
                     style="fill:#ffffff;stroke:#000000;stroke-width:1.76778543"
                     rx="10.48851"
                     transform="translate(0,-2.0633135)"
                     ry="10.660453"
                     cy="785.0257"
                     cx="2689.7012"
                     id="ellipse250" />
                </g>
              </g>
            </g>
          </g>
        </g>
        <g
           transform="matrix(0.79359396,0,0,0.79359396,145.2848,626.79374)"
           id="g322">
          <g
             style="stroke-width:1.17646122"
             transform="translate(467.60236,-914.68894)"
             id="g286">
            <g
               transform="translate(-4.9999999e-6)"
               id="g268">
              <g
                 id="g264">
                <path
                   style="fill:#fed100"
                   inkscape:connector-curvature="0"
                   d="m -147.29195,1086.9489 c -6.71962,15.0229 -12.10138,29.69 -17.37535,44.7822 H -272.97955 -381.2918 c -5.0982,-14.5891 -10.29711,-30.2821 -16.70789,-44.7822 0,0 13.48179,18.865 23.57833,23.4269 5.60813,2.5339 12.62262,3.2894 18.42111,1.228 7.64153,-2.7166 17.80708,-16.579 17.80708,-16.579 0,0 9.1411,10.6985 15.35092,13.5089 5.82854,2.6378 12.64403,2.745 19.03516,2.4561 5.65536,-0.2556 11.91962,-0.4688 16.579,-3.6842 7.05525,-4.8687 14.12285,-21.4913 14.12285,-21.4913 0,0 6.83785,13.078 12.28074,17.8071 4.49129,3.9023 10.13073,6.8156 15.96497,7.9824 5.83425,1.1668 12.20995,0.7899 17.80708,-1.228 7.58793,-2.7357 19.64918,-14.1229 19.64918,-14.1229 0,0 8.30171,10.2965 14.12286,12.8948 5.63512,2.5153 12.41421,3.2557 18.42111,1.8421 6.35685,-1.496 11.6979,-6.1001 16.579,-10.4386 4.35657,-3.8723 10.98835,-13.6023 10.98835,-13.6023 z"
                   id="path262" />
              </g>
              <path
                 style="fill:none;stroke:#000000"
                 inkscape:connector-curvature="0"
                 d="m -147.29195,1086.9489 c -6.71962,15.0229 -12.10138,29.69 -17.37535,44.7822 h -28.286 -80.02625 -82.60258 -25.70967 c -5.0982,-14.5891 -10.29711,-30.2821 -16.70789,-44.7822 0,0 13.48179,18.865 23.57833,23.4269 5.60813,2.5339 12.62262,3.2894 18.42111,1.228 7.64153,-2.7166 17.80708,-16.579 17.80708,-16.579 0,0 9.1411,10.6985 15.35092,13.5089 5.82854,2.6378 12.64403,2.745 19.03516,2.4561 5.65536,-0.2556 11.91962,-0.4688 16.579,-3.6842 7.05525,-4.8687 14.12285,-21.4913 14.12285,-21.4913 0,0 6.83785,13.078 12.28074,17.8071 4.49129,3.9023 10.13073,6.8156 15.96497,7.9824 5.83425,1.1668 12.20995,0.7899 17.80708,-1.228 7.58793,-2.7357 19.64918,-14.1229 19.64918,-14.1229 0,0 8.30171,10.2965 14.12286,12.8948 5.63512,2.5153 12.41421,3.2557 18.42111,1.8421 6.35685,-1.496 11.6979,-6.1001 16.579,-10.4386 4.35657,-3.8723 10.98835,-13.6023 10.98835,-13.6023 z"
                 id="path266" />
            </g>
            <g
               id="g284">
              <g
                 style="fill:#fed100"
                 id="g278">
                <path
                   inkscape:connector-curvature="0"
                   d="m -272.64583,1095.4601 c 0,0 -4.93945,7.6033 -7.97674,10.2011 -4.21807,3.6078 -6.99242,5.7811 -12.41053,7.4891 -5.40871,1.7051 -12.95316,2.664 -18.61578,2.3538 -5.47684,-0.3001 -11.11184,-1.888 -16.04808,-4.2795 -4.29055,-2.0787 -11.12668,-8.1311 -11.12668,-8.1311 -3.3232,4.3118 -7.5549,7.3405 -11.58256,9.5786 -5.15067,2.8622 -10.23957,3.1201 -15.58588,2.832 -10.86712,-0.5858 -21.00494,-7.3742 -29.13692,-21.1378 -5.27274,-12.4705 -11.3375,-25.0993 -18.91155,-38.3416 8.72948,-3.0896 18.90269,-4.7355 30.18666,-5.2706 -4.58938,12.931 -9.35043,25.5279 -7.66645,35.9365 9.48064,-7.1005 12.54717,-16.7667 15.81207,-26.3535 l 11.02053,38.8115 c -6.6889,-1.1728 -3.13169,-2.555 -20.69798,-5.8849 3.51983,6.6368 11.5779,14.8323 20.46174,15.639 5.97367,0.5425 10.30979,-1.3029 14.10688,-4.5963 2.72766,-2.3659 5.21494,-5.4949 5.18224,-9.0197 -0.0187,-2.0187 -0.0375,-4.0374 -0.0562,-6.0561 -0.012,-1.2969 -1.61251,-3.1325 -2.9094,-3.1507 -1.2358,-0.017 -1.57771,1.9883 -1.90762,3.1793 -0.66009,2.3832 0.66538,5.0369 0,7.4186 -0.73358,2.6258 -2.14082,4.6993 -4.45113,6.1467 -1.9243,1.2057 -6.5707,1.4838 -6.5707,1.4838 l 1.4837,-5.7229 c 1.04674,-4.0374 -2.87235,-7.1709 -3.81525,-11.2338 -0.60694,-2.6153 -0.94144,-5.5401 0,-8.0544 1.01848,-2.7201 3.07931,-5.3675 5.72288,-6.5707 0.96458,-0.439 2.12225,-0.499 3.17937,-0.4239 1.495,0.1062 4.45112,1.0598 4.45112,1.0598 0,0 -0.84834,-4.0909 -0.63587,-6.5707 0.25766,-3.0073 2.80499,-8.578 4.23917,-11.2338 2.38145,-4.41 6.16835,-8.3832 6.60021,-8.8102 0.41467,0.4172 4.51961,4.2377 7.20209,8.4713 1.61547,2.5496 3.27245,6.2339 3.7387,9.216 0.38449,2.459 0.24673,7.6588 0.24673,7.6588 0,0 4.36632,-1.7928 5.8503,-2.0028 1.04934,-0.1485 2.20838,-0.1692 3.20116,0.2017 2.72088,1.0164 4.9609,3.514 6.16615,6.1566 1.11409,2.4428 0.98388,5.3837 0.56036,8.0349 -0.65795,4.1187 -3.07778,7.3053 -1.7527,11.2601 l 1.87825,5.6058 c 0,0 -4.65447,0.046 -6.658,-1.023 -2.40541,-1.2833 -3.95351,-3.2539 -4.86799,-5.8222 -0.82946,-2.3296 -0.34811,-5.1826 -1.78787,-7.1886 -0.63699,-0.8876 -1.52846,-1.8705 -2.76006,-1.7672 -1.29248,0.1083 -2.19993,2.2199 -2.25423,3.5158 l -0.22864,5.4514 c -0.0702,1.6747 0.69287,3.4155 1.58963,4.7706 2.19737,3.3204 5.46752,5.3345 9.15763,6.8299 3.99667,1.6197 7.6011,2.2423 11.9132,2.2927 3.59743,0.042 9.84967,-0.5472 13.2581,-1.6988 4.1991,-1.4186 6.669,-3.2207 9.91749,-6.236 1.83102,-1.6996 3.05459,-4.1683 3.86043,-6.533 0.92812,-2.7236 0.59391,-7.4239 0.59391,-7.4239 -4.17837,1.5837 -7.81123,3.7129 -11.08563,6.2006 -3.70059,2.8115 -6.94333,6.0809 -9.99823,9.538 l -0.29696,-46.919 c 4.35262,4.8016 7.51742,9.1023 11.87005,12.7185 3.66518,3.0451 5.54863,4.2065 9.21381,5.3958 -1.04701,-3.7744 -1.40073,-6.064 -4.10312,-9.8384 -3.74692,-5.2332 -7.39591,-10.8524 -11.93249,-16.0856 8.35344,-1.3911 16.70197,-1.7662 25.16669,-1.7662 8.46471,0 16.81324,0.3751 25.16668,1.7662 -4.53658,5.2332 -8.18557,10.8524 -11.93249,16.0856 -2.70239,3.7744 -3.05611,6.064 -4.10312,9.8384 3.66518,-1.1893 5.54863,-2.3507 9.21381,-5.3958 4.35263,-3.6162 7.51743,-7.9169 11.87005,-12.7185 l -0.29696,46.919 c -3.0549,-3.4571 -6.29764,-6.7265 -9.99823,-9.538 -3.2744,-2.4877 -6.90726,-4.6169 -11.08563,-6.2006 0,0 -0.33421,4.7003 0.59391,7.4239 0.80584,2.3647 2.02941,4.8334 3.86043,6.533 3.24849,3.0153 5.71839,4.8174 9.91749,6.236 3.40843,1.1516 9.66067,1.7408 13.2581,1.6988 4.3121,-0.05 7.91653,-0.673 11.9132,-2.2927 3.69011,-1.4954 6.96026,-3.5095 9.15763,-6.8299 0.89676,-1.3551 1.65983,-3.0959 1.58963,-4.7706 l -0.22864,-5.4514 c -0.0543,-1.2959 -0.96175,-3.4075 -2.25423,-3.5158 -1.2316,-0.1033 -2.12307,0.8796 -2.76006,1.7672 -1.43976,2.006 -0.95841,4.859 -1.78787,7.1886 -0.91448,2.5683 -2.46258,4.5389 -4.86799,5.8222 -2.00353,1.0689 -6.658,1.023 -6.658,1.023 l 1.87825,-5.6058 c 1.32508,-3.9548 -1.09475,-7.1414 -1.7527,-11.2601 -0.42352,-2.6512 -0.55373,-5.5921 0.56036,-8.0349 1.20525,-2.6426 3.44527,-5.1402 6.16615,-6.1566 0.99278,-0.3709 2.15182,-0.3502 3.20116,-0.2017 1.48398,0.21 5.8503,2.0028 5.8503,2.0028 0,0 -0.13776,-5.1998 0.24673,-7.6588 0.46625,-2.9821 2.12323,-6.6664 3.7387,-9.216 2.68248,-4.2336 6.78742,-8.0541 7.20209,-8.4713 0.43186,0.427 4.21876,4.4002 6.60021,8.8102 1.43418,2.6558 3.98151,8.2265 4.23917,11.2338 0.21247,2.4798 -0.63587,6.5707 -0.63587,6.5707 0,0 2.95612,-0.9536 4.45112,-1.0598 1.05712,-0.075 2.21479,-0.015 3.17937,0.4239 2.64357,1.2032 4.7044,3.8506 5.72288,6.5707 0.94144,2.5143 0.60694,5.4391 0,8.0544 -0.9429,4.0629 -4.86199,7.1964 -3.81525,11.2338 l 1.4837,5.7229 c 0,0 -4.6464,-0.2781 -6.5707,-1.4838 -2.31031,-1.4474 -3.71755,-3.5209 -4.45113,-6.1467 -0.66538,-2.3817 0.66009,-5.0354 0,-7.4186 -0.32991,-1.191 -0.67182,-3.1966 -1.90762,-3.1793 -1.29689,0.018 -2.8974,1.8538 -2.9094,3.1507 -0.0187,2.0187 -0.0375,4.0374 -0.0562,6.0561 -0.0327,3.5248 2.45458,6.6538 5.18224,9.0197 3.79709,3.2934 8.13321,5.1388 14.10688,4.5963 8.88384,-0.8067 16.94191,-9.0022 20.46174,-15.639 -17.56629,3.3299 -14.00908,4.7121 -20.69798,5.8849 l 11.02053,-38.8115 c 3.2649,9.5868 6.33143,19.253 15.81207,26.3535 1.68398,-10.4086 -3.07707,-23.0055 -7.66645,-35.9365 11.28397,0.5351 21.45718,2.181 30.18666,5.2706 -7.57405,13.2423 -13.63881,25.8711 -18.91155,38.3416 -8.13198,13.7636 -18.2698,20.552 -29.13692,21.1378 -5.34631,0.2881 -10.43521,0.03 -15.58588,-2.832 -4.02766,-2.2381 -8.25936,-5.2668 -11.58256,-9.5786 0,0 -6.83613,6.0524 -11.12668,8.1311 -4.93624,2.3915 -10.57124,3.9794 -16.04808,4.2795 -5.66262,0.3102 -13.20707,-0.6487 -18.61578,-2.3538 -5.41811,-1.708 -8.19246,-3.8813 -12.41053,-7.4891 -3.03729,-2.5978 -7.97675,-10.2011 -7.97675,-10.2011 z"
                   id="path270" />
                <path
                   inkscape:connector-curvature="0"
                   d="m -365.99208,1115.5041 c -10.86712,-0.5858 -21.00494,-7.3742 -29.13692,-21.1378 -5.27274,-12.4705 -11.3375,-25.0993 -18.91155,-38.3416 8.72948,-3.0896 18.90269,-4.7355 30.18666,-5.2706 -4.58938,12.931 -9.35043,25.5279 -7.66645,35.9365 9.48064,-7.1005 12.54717,-16.7667 15.81207,-26.3535 l 11.02053,38.8115 c -6.6889,-1.1728 -3.13169,-2.555 -20.69798,-5.8849 3.51983,6.6368 11.5779,14.8323 20.46174,15.639 z m 185.62441,-6.6014 c 8.88384,-0.8067 16.94191,-9.0022 20.46174,-15.639 -17.56629,3.3299 -14.00908,4.7121 -20.69798,5.8849 l 11.02053,-38.8115 c 3.2649,9.5868 6.33143,19.253 15.81207,26.3535 1.68398,-10.4086 -3.07707,-23.0055 -7.66645,-35.9365 11.28397,0.5351 21.45718,2.181 30.18666,5.2706 -7.57405,13.2423 -13.63881,25.8711 -18.91155,38.3416 -8.13198,13.7636 -18.2698,20.552 -29.13692,21.1378 l -0.20811,0.3835 z"
                   id="path272" />
                <path
                   inkscape:connector-curvature="0"
                   d="m -311.64888,1115.5041 c -5.47684,-0.3001 -11.11184,-1.888 -16.04808,-4.2795 -4.29055,-2.0787 -11.12668,-8.1311 -11.12668,-8.1311 -3.3232,4.3118 -7.5549,7.3405 -11.58256,9.5786 -5.15067,2.8622 -10.23957,3.1201 -15.58588,2.832 l -0.18752,1.8729 1.25562,-8.4743 c 5.97367,0.5425 10.30979,-1.3029 14.10688,-4.5963 2.72766,-2.3659 5.21494,-5.4949 5.18224,-9.0197 -0.0187,-2.0187 -0.0375,-4.0374 -0.0562,-6.0561 -0.012,-1.2969 -1.61251,-3.1325 -2.9094,-3.1507 -1.2358,-0.017 -1.57771,1.9883 -1.90762,3.1793 -0.66009,2.3832 0.66538,5.0369 0,7.4186 -0.73358,2.6258 -2.14082,4.6993 -4.45113,6.1467 -1.9243,1.2057 -6.5707,1.4838 -6.5707,1.4838 l 1.4837,-5.7229 c 1.04674,-4.0374 -2.87235,-7.1709 -3.81525,-11.2338 -0.60694,-2.6153 -0.94144,-5.5401 0,-8.0544 1.01848,-2.7201 3.07931,-5.3675 5.72288,-6.5707 0.96458,-0.439 2.12225,-0.499 3.17937,-0.4239 1.495,0.1062 4.45112,1.0598 4.45112,1.0598 0,0 -0.84834,-4.0909 -0.63587,-6.5707 0.25766,-3.0073 2.80499,-8.578 4.23917,-11.2338 2.38145,-4.41 6.16835,-8.3832 6.60021,-8.8102 0.41467,0.4172 4.51961,4.2377 7.20209,8.4713 1.61547,2.5496 3.27245,6.2339 3.7387,9.216 0.38449,2.459 0.24673,7.6588 0.24673,7.6588 0,0 4.36632,-1.7928 5.8503,-2.0028 1.04934,-0.1485 2.20838,-0.1692 3.20116,0.2017 2.72088,1.0164 4.9609,3.514 6.16615,6.1566 1.11409,2.4428 0.98388,5.3837 0.56036,8.0349 -0.65795,4.1187 -3.07778,7.3053 -1.7527,11.2601 l 1.87825,5.6058 c 0,0 -4.65447,0.046 -6.658,-1.023 -2.40541,-1.2833 -3.95351,-3.2539 -4.86799,-5.8222 -0.82946,-2.3296 -0.34811,-5.1826 -1.78787,-7.1886 -0.63699,-0.8876 -1.52846,-1.8705 -2.76006,-1.7672 -1.29248,0.1083 -2.19993,2.2199 -2.25423,3.5158 l -0.22864,5.4514 c -0.0702,1.6747 0.69287,3.4155 1.58963,4.7706 2.19737,3.3204 5.46752,5.3345 9.15763,6.8299 3.99667,1.6197 7.6011,2.2423 11.9132,2.2927 z"
                   id="path274" />
                <path
                   inkscape:connector-curvature="0"
                   d="m -272.66542,1079.3207 6.79271,8.052 3.27016,13.1967 9.61811,6.7327 14.04243,3.0778 14.04244,-1.7312 10.77229,-6.9251 1.53889,-7.5021 10.96465,0.3847 2.11598,8.0792 11.15701,7.5022 10.00283,0.577 12.31118,-6.5403 6.73268,-8.8486 7.30976,2.3083 -7.30976,8.4639 -8.07921,6.348 -6.15559,2.116 -4.61669,0.7694 h -5.96323 l -4.80906,-0.5771 -4.61669,-1.1541 -5.5785,-3.4625 -7.30977,-6.7327 -6.73267,4.809 -6.54032,3.8473 -8.46393,2.8854 -8.46394,0.5771 -10.00283,-0.9618 -8.6563,-2.5007 -8.27157,-5.3862 -6.54032,-7.5021 -2.56074,-3.8472 -2.56074,3.8472 -6.54032,7.5021 -8.27157,5.3862 -8.6563,2.5007 -10.00283,0.9618 -8.46394,-0.5771 -8.46393,-2.8854 -6.54032,-3.8473 -6.73267,-4.809 -7.30977,6.7327 -5.5785,3.4625 -4.61669,1.1541 -4.80906,0.5771 h -5.96323 l -4.61669,-0.7694 -6.15559,-2.116 -8.07921,-6.348 -7.30976,-8.4639 7.30976,-2.3083 6.73268,8.8486 12.31118,6.5403 10.00283,-0.577 11.15701,-7.5022 2.11598,-8.0792 10.96465,-0.3847 1.53889,7.5021 10.77229,6.9251 14.04244,1.7312 14.04243,-3.0778 9.61811,-6.7327 3.27016,-14.0153 z"
                   id="path276" />
              </g>
              <path
                 inkscape:connector-curvature="0"
                 style="color:#000000;text-indent:0;text-decoration:none;text-decoration-line:none;text-transform:none"
                 d="m -203.8479,1095.1449 -0.12597,-0.2106 c -0.15092,-2.5694 0.71875,-6.9687 0.71875,-6.9687 0.48416,-2.19 2.36159,-4.533 4.6875,-5.375 1.25378,-0.4542 2.77614,-0.6286 4.125,0.031 0.82261,0.4023 1.48579,0.7143 2.03125,1.2812 0.54546,0.567 0.88412,1.3124 1.25,2.375 0.53493,1.5537 0.30202,3.1738 0.0312,4.5626 -0.44672,2.2906 -0.39733,4.2935 0.25,5.8437 0.45703,1.0945 1.37685,1.9155 2.5625,2.625 -0.22033,-0.7834 -0.37923,-1.1628 -0.5,-2.0313 -0.17901,-1.2874 0.0385,-2.6168 0.53125,-3.7812 0.85831,-2.0281 2.04291,-3.6268 2.84375,-5.4062 0.76379,-1.6972 1.16331,-3.6202 1.03125,-5.4376 -0.10893,-1.4991 -0.55191,-3.0476 -1.40625,-4.125 -0.92643,-1.1682 -2.33985,-2.1368 -3.75,-2.4062 -1.25457,-0.2397 -3.31536,0.1873 -4.96875,0.7188 -1.65339,0.5314 -2.90625,1.125 -2.90625,1.125 l -1.46875,0.6874 0.25,-1.5937 c 0.85923,-5.3602 1.61844,-8.0814 0,-13.0937 -0.66543,-2.0609 -1.77668,-4.334 -3.65625,-6.9688 -0.91278,-1.2796 -1.93205,-2.8073 -3.09375,-4.2188 -3.02799,3.4471 -5.13866,6.9398 -6.34375,10.4688 -1.31925,3.8634 -1.37137,8.9997 -1.0625,13.125 l 0.125,1.6562 -1.40625,-0.8437 c 0,0 -1.59877,-0.9804 -3.53125,-1.9063 -1.93248,-0.9258 -4.2874,-1.7432 -5.28125,-1.6562 -1.87382,0.1642 -3.12453,1.0598 -4.34375,2.625 -1.03485,1.3285 -1.2578,2.4801 -1.46875,4.3125 -0.13326,1.1576 0.15826,3.3345 0.34375,4.75 0.21737,1.6588 1.19398,3.4032 1.46875,5.5 0.0908,0.6926 0.30568,1.237 0.46875,1.9063 0.16307,0.6692 0.24456,1.4547 0.0625,2.375 -0.12584,0.6361 -0.31363,1.0959 -0.5625,1.875 0.4794,-0.2326 0.80884,-0.349 1.0625,-0.5313 0.92721,-0.6662 1.30363,-1.8481 1.90625,-3.2813 0.32438,-0.7714 0.3958,-1.4641 0.4375,-2.2812 0.0417,-0.8171 0.082,-1.7776 0.5,-2.8438 0.71403,-1.8212 1.55431,-3.9841 3.40625,-5.3124 1.51597,-1.0874 3.53837,-1.3901 5.3125,-0.8438 1.05112,0.3237 1.80307,0.9723 2.34375,1.7188 0.54068,0.7464 0.9035,1.5624 1.28125,2.375 0.48369,1.0404 0.77286,2.5972 1,3.9687 0.22714,1.3715 0.34375,2.5313 0.34375,2.5313 l 0.0312,0.125 -0.0312,0.1562 -1.29125,4.2919 -1.64618,-0.371 1.25,-4.1044 c -0.009,-0.08 -0.13324,-1.0727 -0.34375,-2.3437 -0.21876,-1.3209 -0.54916,-2.8976 -0.84375,-3.5313 -0.38681,-0.832 -0.73471,-1.5549 -1.125,-2.0937 -0.39029,-0.5389 -0.78661,-0.8838 -1.46875,-1.0938 -1.22343,-0.3767 -2.81106,-0.1469 -3.84375,0.5938 -1.31092,0.9402 -2.10581,2.7599 -2.8125,4.5624 -0.3069,0.7828 -0.3329,1.4876 -0.375,2.3126 -0.0421,0.8249 -0.0859,1.7845 -0.53125,2.8437 -0.55178,1.3122 -1.00857,2.9284 -2.5,4 -1.099,0.7897 -3.09375,1.5625 -3.09375,1.5625 l -1.75,0.7188 0.625,-1.7813 c 0,0 0.88084,-2.613 1.0625,-3.5313 0.12572,-0.6355 0.0743,-1.0946 -0.0625,-1.6562 -0.13684,-0.5616 -0.3847,-1.2139 -0.5,-2.0938 -0.21737,-1.6587 -1.19398,-3.4031 -1.46875,-5.5 -0.17909,-1.3665 -0.53139,-3.5264 -0.34375,-5.1562 0.21885,-1.901 0.53791,-3.5512 1.8125,-5.1875 1.39608,-1.7922 3.16549,-3.0426 5.53125,-3.25 1.86981,-0.1639 4.16963,0.8457 6.1875,1.8125 1.29793,0.6219 1.6923,0.9079 2.34375,1.2812 -0.21156,-3.9597 -0.14729,-8.5263 1.15625,-12.3437 1.382,-4.0471 3.7495,-8.0364 7.34375,-11.9063 l 0.625,-0.6562 0.625,0.6562 c 1.67052,1.7979 2.81199,3.7724 3.84375,5.2188 1.96677,2.757 3.18452,5.2023 3.90625,7.4375 1.54608,4.7882 0.97906,8.0566 0.25,12.4687 0.56903,-0.2397 0.76782,-0.3717 1.75,-0.6874 1.76745,-0.5682 3.92199,-1.1053 5.78125,-0.75 1.90061,0.3631 3.61332,1.5272 4.78125,3 1.15926,1.4618 1.65532,3.3294 1.78125,5.0624 0.15624,2.1503 -0.31869,4.3508 -1.1875,6.2813 -0.8989,1.9973 -2.08788,3.5889 -2.84375,5.375 -0.3806,0.8994 -0.56713,1.9427 -0.4375,2.875 0.19405,1.3955 0.9375,3.6563 0.9375,3.6563 l 0.53125,1.5937 -1.625,-0.5313 c -2.59386,-0.8801 -4.29205,-2.4739 -5.125,-4.4687 -0.83295,-1.9948 -0.82906,-4.3239 -0.34375,-6.8125 0.25477,-1.3067 0.39044,-2.6129 0.0312,-3.6562 -0.33243,-0.9655 -0.57462,-1.4378 -0.875,-1.75 -0.30038,-0.3123 -0.76208,-0.5461 -1.5625,-0.9376 -0.73896,-0.3616 -1.88098,-0.3063 -2.8125,0.031 -1.5454,0.5595 -3.39488,2.6275 -3.5625,4.0937 -0.29599,2.5891 -1.0311,5.2222 -2.28025,6.8634 z m 48.749,-3.0516 0.4375,-0.875 -0.9375,-0.3126 c -6.97941,-2.2099 -13.42396,-0.5376 -19.5,2.0313 2.45556,-6.7087 4.32572,-13.4096 5.65625,-20.125 6.62462,11.9033 12.24579,15.7967 17.53125,18.2187 l 0.96875,0.4376 0.21875,-1.0626 c 1.57673,-8.1269 1.69907,-18.9549 -4.96875,-35.0624 7.47189,0.388 14.90215,1.2839 22.28125,4.5624 l 0.6875,-1.5624 c -8.1013,-3.5995 -16.19358,-4.4939 -24.1875,-4.8438 l -1.375,-0.062 0.5625,1.25 c 6.84773,15.8963 6.84869,26.2423 5.46875,34.2187 -5.07854,-2.4715 -10.21874,-6.2041 -16.78125,-18.7187 l -1.15625,-2.1875 -0.4375,2.4375 c -1.42536,7.8888 -3.64956,15.7893 -6.65625,23.6875 l -0.75,1.9375 1.875,-0.875 c 6.13665,-2.7847 12.34195,-4.5981 19.03125,-2.8437 l 0.16479,0.1033 z m -233.0626,0.2499 c 6.67982,-1.7432 12.8709,0.062 19,2.8437 l 1.875,0.875 -0.71875,-1.9369 c -3.00669,-7.8982 -5.23089,-15.7987 -6.65625,-23.6875 l -0.4375,-2.4375 -1.15625,2.1875 c -6.56516,12.5197 -11.73196,16.2473 -16.8125,18.7187 -1.37994,-7.9764 -1.34773,-18.3224 5.5,-34.2187 l 0.53125,-1.25 -1.34375,0.062 c -7.99392,0.3499 -16.0862,1.2443 -24.1875,4.8438 l 0.6875,1.5624 c 7.3882,-3.2825 14.79997,-4.1753 22.28125,-4.5624 -6.66832,16.1081 -6.54552,26.9353 -4.96875,35.0624 l 0.1875,1.0626 1,-0.4376 c 5.2817,-2.4203 10.91282,-6.3045 17.53125,-18.1874 1.3302,6.7036 3.205,13.3967 5.65625,20.0937 -6.07604,-2.5689 -12.52059,-4.2412 -19.5,-2.0313 l -0.9375,0.3126 0.4375,0.875 -0.18112,0.091 2.21237,0.1594 z m 54.88334,3.778 -0.97714,-3.6524 c 0.0174,-0.1541 0.11063,-1.0311 0.3125,-2.25 0.21876,-1.3209 0.58041,-2.8976 0.875,-3.5313 0.38681,-0.832 0.73471,-1.5549 1.125,-2.0937 0.39029,-0.5389 0.78661,-0.8838 1.46875,-1.0938 1.22343,-0.3767 2.77981,-0.1469 3.8125,0.5938 1.31092,0.9402 2.13706,2.7599 2.84375,4.5624 0.30688,0.7828 0.33289,1.4876 0.375,2.3126 0.0421,0.8249 0.0859,1.7845 0.53125,2.8437 0.55178,1.3122 1.00857,2.9284 2.5,4 1.099,0.7897 3.09375,1.5625 3.09375,1.5625 l 1.71875,0.7188 -0.59375,-1.7813 c 0,0 -0.88084,-2.613 -1.0625,-3.5313 -0.12572,-0.6355 -0.0743,-1.0946 0.0625,-1.6562 0.13684,-0.5616 0.35345,-1.2139 0.46875,-2.0938 0.21737,-1.6587 1.19398,-3.4031 1.46875,-5.5 0.17909,-1.3665 0.56264,-3.5264 0.375,-5.1562 -0.21885,-1.901 -0.53791,-3.5512 -1.8125,-5.1875 -1.39608,-1.7922 -3.16549,-3.0426 -5.53125,-3.25 -1.86981,-0.1639 -4.16963,0.8457 -6.1875,1.8125 -1.29793,0.6219 -1.6923,0.9079 -2.34375,1.2812 0.21156,-3.9597 0.14729,-8.5263 -1.15625,-12.3437 -1.382,-4.0471 -3.7495,-8.0364 -7.34375,-11.9063 l -0.625,-0.6562 -0.625,0.6562 c -1.67052,1.7979 -2.84324,3.7724 -3.875,5.2188 -1.96677,2.757 -3.15327,5.2023 -3.875,7.4375 -1.54608,4.7882 -0.97906,8.0566 -0.25,12.4687 -0.56888,-0.24 -0.75927,-0.369 -1.75,-0.6874 -1.76745,-0.5682 -3.92199,-1.1053 -5.78125,-0.75 -1.90061,0.3631 -3.61332,1.5272 -4.78125,3 -1.15926,1.4618 -1.65532,3.3294 -1.78125,5.0624 -0.15624,2.1503 0.31869,4.3508 1.1875,6.2813 0.8989,1.9973 2.08788,3.5889 2.84375,5.375 0.38062,0.8994 0.53588,1.9427 0.40625,2.875 -0.19405,1.3955 -0.90625,3.6562 -0.90625,3.6563 l -0.53125,1.5937 1.625,-0.5313 c 2.59386,-0.8801 4.29205,-2.4739 5.125,-4.4687 0.83295,-1.9948 0.82906,-4.3239 0.34375,-6.8125 -0.25482,-1.3067 -0.39049,-2.6129 -0.0312,-3.6562 0.33243,-0.9655 0.57462,-1.4378 0.875,-1.75 0.30038,-0.3123 0.73083,-0.5461 1.53125,-0.9376 0.73896,-0.3613 1.91223,-0.306 2.84375,0.031 1.5454,0.5595 3.23109,2.6503 3.5625,4.0937 0,0 -4e-5,0.031 0,0.031 0.008,0.042 0.80629,4.5089 0.6875,6.5313 l 2.00556,0.3547 c -0.16714,-2.8298 -1.03681,-7.2291 -1.03681,-7.2291 -0.48416,-2.19 -2.33034,-4.533 -4.65625,-5.375 -1.25378,-0.454 -2.80739,-0.6284 -4.15625,0.031 -0.82261,0.4023 -1.45454,0.7143 -2,1.2812 -0.54546,0.567 -0.91537,1.3124 -1.28125,2.375 -0.53498,1.5537 -0.30207,3.1738 -0.0312,4.5626 0.44672,2.2906 0.39733,4.2935 -0.25,5.8437 -0.45703,1.0945 -1.3456,1.9155 -2.53125,2.625 0.22033,-0.7834 0.37923,-1.1628 0.5,-2.0313 0.17901,-1.2874 -0.0385,-2.6168 -0.53125,-3.7812 -0.85831,-2.0281 -2.04291,-3.6268 -2.84375,-5.4062 -0.76379,-1.6972 -1.19456,-3.6202 -1.0625,-5.4376 0.10893,-1.4991 0.55191,-3.0476 1.40625,-4.125 0.92643,-1.1682 2.3711,-2.1368 3.78125,-2.4062 1.25457,-0.2397 3.28411,0.1873 4.9375,0.7188 1.65339,0.5314 2.9375,1.125 2.9375,1.125 l 1.46875,0.6874 -0.28125,-1.5937 c -0.85923,-5.3602 -1.58719,-8.0814 0.0312,-13.0937 0.66543,-2.0609 1.74543,-4.334 3.625,-6.9688 0.91332,-1.2803 1.96234,-2.8066 3.125,-4.2188 3.02688,3.4463 5.13892,6.9405 6.34375,10.4688 1.31925,3.8634 1.34012,8.9997 1.03125,13.125 l -0.0937,1.6562 1.40625,-0.8437 c 0,0 1.56752,-0.9804 3.5,-1.9063 1.93248,-0.9258 4.31865,-1.7433 5.3125,-1.6562 1.87382,0.1642 3.12453,1.0598 4.34375,2.625 1.03485,1.3285 1.2578,2.4801 1.46875,4.3125 0.13326,1.1576 -0.18951,3.3345 -0.375,4.75 -0.21737,1.6588 -1.16273,3.4032 -1.4375,5.5 -0.0908,0.6926 -0.30568,1.237 -0.46875,1.9063 -0.16307,0.6692 -0.27581,1.4547 -0.0937,2.375 0.12584,0.6361 0.31363,1.0959 0.5625,1.875 -0.4794,-0.2326 -0.80884,-0.349 -1.0625,-0.5313 -0.92721,-0.6662 -1.30363,-1.8481 -1.90625,-3.2813 -0.32438,-0.7714 -0.36454,-1.4641 -0.40625,-2.2812 -0.0417,-0.8171 -0.082,-1.7776 -0.5,-2.8438 -0.71403,-1.8212 -1.55431,-3.9841 -3.40625,-5.3124 -1.51597,-1.0874 -3.53837,-1.3901 -5.3125,-0.8438 -1.05112,0.3237 -1.83432,0.9723 -2.375,1.7188 -0.54068,0.7464 -0.87225,1.5624 -1.25,2.375 -0.48369,1.0404 -0.77286,2.5972 -1,3.9687 -0.22714,1.3715 -0.375,2.5312 -0.375,2.5313 v 0.125 l 0.0312,0.1562 1.00839,3.7462 0.49726,0.054 1.15889,-0.4284 z m 64.67926,-13.8402 0.0312,-1.0624 1.03125,0.25 c 4.75501,1.1922 8.39017,2.8033 11.40625,4.5937 3.82684,2.2716 6.65282,4.8219 9.625,7.2813 l 0.5,-28.2188 c -2.53272,2.7962 -4.90974,5.7915 -8.40625,8.1875 -2.85546,1.9568 -8.20954,4.5285 -13.21875,5.0937 l -1.1875,0.125 0.25,-1.1562 c 0.70513,-3.1804 0.68458,-5.3889 2.28125,-9.1562 1.51467,-3.5739 4.70836,-8.7569 11.0625,-17.4376 -5.49538,-0.6072 -10.2832,-1.2812 -17.4375,-1.2812 -7.15212,0 -11.91302,0.6741 -17.40625,1.2812 6.35414,8.6807 9.54783,13.8637 11.0625,17.4376 1.59667,3.7673 1.57612,5.9758 2.28125,9.1562 l 0.25,1.1562 -1.1875,-0.125 c -5.00921,-0.5652 -10.36329,-3.1369 -13.21875,-5.0937 -3.48296,-2.3867 -5.88464,-5.369 -8.40625,-8.1563 l 0.5,28.1563 c 2.95994,-2.451 5.81264,-4.987 9.625,-7.25 3.01608,-1.7904 6.61999,-3.4015 11.375,-4.5937 l 1.0625,-0.25 v 1.0624 l -1.71285,1.1975 c -4.01527,1.1313 -7.22532,2.4949 -9.84975,4.0527 -4.20301,2.4949 -7.24006,5.4082 -10.8125,8.25 l -1.34375,1.0626 -0.0312,-1.7188 -0.53125,-32.1875 -0.0625,-2.125 1.5,1.5 c 3.29806,3.326 5.7705,6.9524 9.625,9.5937 2.37662,1.6287 7.0366,3.8066 11.3125,4.5626 -0.47638,-2.5632 -0.68619,-4.5676 -1.96875,-7.5938 -1.50223,-3.5445 -4.59502,-8.7401 -11.65625,-18.2812 l -0.875,-1.1876 1.46875,-0.1562 c 6.08475,-0.6306 11.10518,-1.4688 19,-1.4688 l 10e-5,6e-4 c 7.89482,0 12.91525,0.8382 19,1.4688 l 1.5,0.1562 -0.875,1.1876 c -7.06123,9.5411 -10.18527,14.7367 -11.6875,18.2812 -1.28707,3.0368 -1.45708,5.0479 -1.9375,7.625 4.27759,-0.7549 8.90349,-2.9643 11.28125,-4.5938 3.8545,-2.6413 6.35819,-6.2677 9.65625,-9.5937 l 1.46875,-1.5 -0.0312,2.125 -0.5625,32.1875 v 1.7188 l -1.375,-1.0626 c -3.57244,-2.8418 -6.57824,-5.7551 -10.78125,-8.25 -2.62443,-1.5578 -5.83448,-2.9214 -9.84375,-4.0312 z"
                 id="path280" />
              <path
                 style="fill:none;stroke:#000000;stroke-width:1.17646122"
                 inkscape:connector-curvature="0"
                 d="m -272.64583,1095.4601 c 0,0 -4.93945,7.6033 -7.97674,10.2011 -4.21807,3.6078 -6.99242,5.7811 -12.41053,7.4891 -5.40871,1.7051 -12.95316,2.664 -18.61578,2.3538 -5.47684,-0.3001 -11.11184,-1.888 -16.04808,-4.2795 -4.29055,-2.0787 -11.12668,-8.1311 -11.12668,-8.1311 -3.3232,4.3118 -7.5549,7.3405 -11.58256,9.5786 -5.15067,2.8622 -10.23957,3.1201 -15.58588,2.832 -10.86712,-0.5858 -21.00494,-7.3742 -29.13692,-21.1378 -5.27274,-12.4705 -11.3375,-25.0993 -18.91155,-38.3416 8.72948,-3.0896 18.90269,-4.7355 30.18666,-5.2706 -4.58938,12.931 -9.35043,25.5279 -7.66645,35.9365 9.48064,-7.1005 12.54717,-16.7667 15.81207,-26.3535 l 11.02053,38.8115 c -6.6889,-1.1728 -3.13169,-2.555 -20.69798,-5.8849 3.51983,6.6368 11.5779,14.8323 20.46174,15.639 5.97367,0.5425 10.30979,-1.3029 14.10688,-4.5963 2.72766,-2.3659 5.21494,-5.4949 5.18224,-9.0197 -0.0187,-2.0187 -0.0375,-4.0374 -0.0562,-6.0561 -0.012,-1.2969 -1.61251,-3.1325 -2.9094,-3.1507 -1.2358,-0.017 -1.57771,1.9883 -1.90762,3.1793 -0.66009,2.3832 0.66538,5.0369 0,7.4186 -0.73358,2.6258 -2.14082,4.6993 -4.45113,6.1467 -1.9243,1.2057 -6.5707,1.4838 -6.5707,1.4838 l 1.4837,-5.7229 c 1.04674,-4.0374 -2.87235,-7.1709 -3.81525,-11.2338 -0.60694,-2.6153 -0.94144,-5.5401 0,-8.0544 1.01848,-2.7201 3.07931,-5.3675 5.72288,-6.5707 0.96458,-0.439 2.12225,-0.499 3.17937,-0.4239 1.495,0.1062 4.45112,1.0598 4.45112,1.0598 0,0 -0.84834,-4.0909 -0.63587,-6.5707 0.25766,-3.0073 2.80499,-8.578 4.23917,-11.2338 2.38145,-4.41 6.16835,-8.3832 6.60021,-8.8102 0.41467,0.4172 4.51961,4.2377 7.20209,8.4713 1.61547,2.5496 3.27245,6.2339 3.7387,9.216 0.38449,2.459 0.24673,7.6588 0.24673,7.6588 0,0 4.36632,-1.7928 5.8503,-2.0028 1.04934,-0.1485 2.20838,-0.1692 3.20116,0.2017 2.72088,1.0164 4.9609,3.514 6.16615,6.1566 1.11409,2.4428 0.98388,5.3837 0.56036,8.0349 -0.65795,4.1187 -3.07778,7.3053 -1.7527,11.2601 l 1.87825,5.6058 c 0,0 -4.65447,0.046 -6.658,-1.023 -2.40541,-1.2833 -3.95351,-3.2539 -4.86799,-5.8222 -0.82946,-2.3296 -0.34811,-5.1826 -1.78787,-7.1886 -0.63699,-0.8876 -1.52846,-1.8705 -2.76006,-1.7672 -1.29248,0.1083 -2.19993,2.2199 -2.25423,3.5158 l -0.22864,5.4514 c -0.0702,1.6747 0.69287,3.4155 1.58963,4.7706 2.19737,3.3204 5.46752,5.3345 9.15763,6.8299 3.99667,1.6197 7.6011,2.2423 11.9132,2.2927 3.59743,0.042 9.84967,-0.5472 13.2581,-1.6988 4.1991,-1.4186 6.669,-3.2207 9.91749,-6.236 1.83102,-1.6996 3.05459,-4.1683 3.86043,-6.533 0.92812,-2.7236 0.59391,-7.4239 0.59391,-7.4239 -4.17837,1.5837 -7.81123,3.7129 -11.08563,6.2006 -3.70059,2.8115 -6.94333,6.0809 -9.99823,9.538 l -0.29696,-46.919 c 4.35262,4.8016 7.51742,9.1023 11.87005,12.7185 3.66518,3.0451 5.54863,4.2065 9.21381,5.3958 -1.04701,-3.7744 -1.40073,-6.064 -4.10312,-9.8384 -3.74692,-5.2332 -7.39591,-10.8524 -11.93249,-16.0856 8.35344,-1.3911 16.70197,-1.7662 25.16669,-1.7662 8.46471,0 16.81324,0.3751 25.16668,1.7662 -4.53658,5.2332 -8.18557,10.8524 -11.93249,16.0856 -2.70239,3.7744 -3.05611,6.064 -4.10312,9.8384 3.66518,-1.1893 5.54863,-2.3507 9.21381,-5.3958 4.35263,-3.6162 7.51743,-7.9169 11.87005,-12.7185 l -0.29696,46.919 c -3.0549,-3.4571 -6.29764,-6.7265 -9.99823,-9.538 -3.2744,-2.4877 -6.90726,-4.6169 -11.08563,-6.2006 0,0 -0.33421,4.7003 0.59391,7.4239 0.80584,2.3647 2.02941,4.8334 3.86043,6.533 3.24849,3.0153 5.71839,4.8174 9.91749,6.236 3.40843,1.1516 9.66067,1.7408 13.2581,1.6988 4.3121,-0.05 7.91653,-0.673 11.9132,-2.2927 3.69011,-1.4954 6.96026,-3.5095 9.15763,-6.8299 0.89676,-1.3551 1.65983,-3.0959 1.58963,-4.7706 l -0.22864,-5.4514 c -0.0543,-1.2959 -0.96175,-3.4075 -2.25423,-3.5158 -1.2316,-0.1033 -2.12307,0.8796 -2.76006,1.7672 -1.43976,2.006 -0.95841,4.859 -1.78787,7.1886 -0.91448,2.5683 -2.46258,4.5389 -4.86799,5.8222 -2.00353,1.0689 -6.658,1.023 -6.658,1.023 l 1.87825,-5.6058 c 1.32508,-3.9548 -1.09475,-7.1414 -1.7527,-11.2601 -0.42352,-2.6512 -0.55373,-5.5921 0.56036,-8.0349 1.20525,-2.6426 3.44527,-5.1402 6.16615,-6.1566 0.99278,-0.3709 2.15182,-0.3502 3.20116,-0.2017 1.48398,0.21 5.8503,2.0028 5.8503,2.0028 0,0 -0.13776,-5.1998 0.24673,-7.6588 0.46625,-2.9821 2.12323,-6.6664 3.7387,-9.216 2.68248,-4.2336 6.78742,-8.0541 7.20209,-8.4713 0.43186,0.427 4.21876,4.4002 6.60021,8.8102 1.43418,2.6558 3.98151,8.2265 4.23917,11.2338 0.21247,2.4798 -0.63587,6.5707 -0.63587,6.5707 0,0 2.95612,-0.9536 4.45112,-1.0598 1.05712,-0.075 2.21479,-0.015 3.17937,0.4239 2.64357,1.2032 4.7044,3.8506 5.72288,6.5707 0.94144,2.5143 0.60694,5.4391 0,8.0544 -0.9429,4.0629 -4.86199,7.1964 -3.81525,11.2338 l 1.4837,5.7229 c 0,0 -4.6464,-0.2781 -6.5707,-1.4838 -2.31031,-1.4474 -3.71755,-3.5209 -4.45113,-6.1467 -0.66538,-2.3817 0.66009,-5.0354 0,-7.4186 -0.32991,-1.191 -0.67182,-3.1966 -1.90762,-3.1793 -1.29689,0.018 -2.8974,1.8538 -2.9094,3.1507 -0.0187,2.0187 -0.0375,4.0374 -0.0562,6.0561 -0.0327,3.5248 2.45458,6.6538 5.18224,9.0197 3.79709,3.2934 8.13321,5.1388 14.10688,4.5963 8.88384,-0.8067 16.94191,-9.0022 20.46174,-15.639 -17.56629,3.3299 -14.00908,4.7121 -20.69798,5.8849 l 11.02053,-38.8115 c 3.2649,9.5868 6.33143,19.253 15.81207,26.3535 1.68398,-10.4086 -3.07707,-23.0055 -7.66645,-35.9365 11.28397,0.5351 21.45718,2.181 30.18666,5.2706 -7.57405,13.2423 -13.63881,25.8711 -18.91155,38.3416 -8.13198,13.7636 -18.2698,20.552 -29.13692,21.1378 -5.34631,0.2881 -10.43521,0.03 -15.58588,-2.832 -4.02766,-2.2381 -8.25936,-5.2668 -11.58256,-9.5786 0,0 -6.83613,6.0524 -11.12668,8.1311 -4.93624,2.3915 -10.57124,3.9794 -16.04808,4.2795 -5.66262,0.3102 -13.20707,-0.6487 -18.61578,-2.3538 -5.41811,-1.708 -8.19246,-3.8813 -12.41053,-7.4891 -3.03729,-2.5978 -7.97675,-10.2011 -7.97675,-10.2011 z"
                 id="path282" />
            </g>
          </g>
          <g
             style="stroke-width:0.80353886"
             transform="translate(9.0000002e-6)"
             id="g306">
            <g
               transform="matrix(1.4641,0,0,1.4641,594.13584,-1415.7723)"
               id="g292">
              <g
                 style="stroke-width:1.60707772"
                 transform="matrix(0.5,0,0,0.5,-1617.4954,688.20707)"
                 id="g290">
                <ellipse
                   style="fill:#ffffff;stroke:#000000;stroke-width:1.60707772"
                   rx="10.48851"
                   transform="translate(0,-2.0633135)"
                   ry="10.660453"
                   cy="785.0257"
                   cx="2689.7012"
                   id="ellipse288" />
              </g>
            </g>
            <g
               transform="matrix(1.4641,0,0,1.4641,472.65182,-1405.0378)"
               id="g298">
              <g
                 style="stroke-width:1.60707772"
                 transform="matrix(0.5,0,0,0.5,-1617.4954,688.20707)"
                 id="g296">
                <ellipse
                   style="fill:#ffffff;stroke:#000000;stroke-width:1.60707772"
                   rx="10.48851"
                   transform="translate(0,-2.0633135)"
                   ry="10.660453"
                   cy="785.0257"
                   cx="2689.7012"
                   id="ellipse294" />
              </g>
            </g>
            <g
               transform="matrix(-1.4641,0,0,1.4641,-82.738768,-1405.0378)"
               id="g304">
              <g
                 style="stroke-width:1.60707772"
                 transform="matrix(0.5,0,0,0.5,-1617.4954,688.20707)"
                 id="g302">
                <ellipse
                   style="fill:#ffffff;stroke:#000000;stroke-width:1.60707772"
                   rx="10.48851"
                   transform="translate(0,-2.0633135)"
                   ry="10.660453"
                   cy="785.0257"
                   cx="2689.7012"
                   id="ellipse300" />
              </g>
            </g>
          </g>
          <g
             style="stroke-width:1.17646122"
             transform="translate(467.60173,-914.68894)"
             id="g320">
            <g
               transform="rotate(-3.1060706,-337.06458,1093.395)"
               id="g312">
              <path
                 style="fill:#fed100"
                 inkscape:connector-curvature="0"
                 d="m -346.45864,1090.7071 h 16.90201 l 2.19927,3.8065 -2.19927,3.8064 h -16.90201 l -2.7068,-3.8064 z"
                 id="path308" />
              <path
                 style="fill:none;stroke:#000000;stroke-width:1.17646122"
                 inkscape:connector-curvature="0"
                 d="m -346.45864,1090.7071 h 16.90201 l 2.19927,3.8065 -2.19927,3.8064 h -16.90201 l -2.7068,-3.8064 z"
                 id="path310" />
            </g>
            <g
               transform="matrix(-0.99853093,-0.05418461,-0.05418461,0.99853093,-485.55003,-16.657439)"
               id="g318">
              <path
                 style="fill:#fed100"
                 inkscape:connector-curvature="0"
                 d="m -346.45864,1090.7071 h 16.90201 l 2.19927,3.8065 -2.19927,3.8064 h -16.90201 l -2.7068,-3.8064 z"
                 id="path314" />
              <path
                 style="fill:none;stroke:#000000;stroke-width:1.17646122"
                 inkscape:connector-curvature="0"
                 d="m -346.45864,1090.7071 h 16.90201 l 2.19927,3.8065 -2.19927,3.8064 h -16.90201 l -2.7068,-3.8064 z"
                 id="path316" />
            </g>
          </g>
        </g>
        <g
           transform="matrix(0.79359396,0,0,0.79359396,145.11832,654.14576)"
           id="g484">
          <g
             style="stroke-width:1.17646122"
             transform="translate(-301.79973,-173.47903)"
             id="g328">
            <path
               style="fill:#fed100;fill-rule:evenodd"
               inkscape:connector-curvature="0"
               d="m 390.38814,381.07914 c 0,0 12.05564,-0.88424 33.29743,-2.08342 21.24179,-1.19917 43.99979,-1.82891 55.6089,-1.82891 h 35.38749 c 11.24508,0 34.53839,0.62974 55.6089,1.82891 21.07057,1.19918 33.05521,2.20453 33.05521,2.20453 l 7.38763,-33.00505 c 0,0 -75.69995,-6.83087 -113.74548,-6.83086 -38.04553,10e-6 -113.74549,6.83091 -113.74549,6.83091 z"
               id="path324" />
            <path
               style="fill:none;stroke:#000000;stroke-width:1.17646122"
               inkscape:connector-curvature="0"
               d="m 496.50058,341.72544 c 38.01199,-0.0193 76.02023,2.041 113.8632,6.23428 l -6.92787,33.31224 c -37.64029,-3.37881 -68.45072,-4.28271 -106.50894,-4.58075 m 0.5045,-34.96577 c -38.01198,-0.0193 -76.02022,2.041 -113.8632,6.23428 l 6.92787,33.31225 c 37.6403,-3.37882 68.45072,-4.28271 106.50894,-4.58076"
               id="path326" />
          </g>
          <g
             style="stroke-width:1.33003557"
             transform="matrix(1.011071,0,0,0.77383264,772.98717,-265.66809)"
             id="g334">
            <path
               inkscape:connector-curvature="0"
               style="color:#000000;text-indent:0;text-decoration:none;text-decoration-line:none;text-transform:none;fill:#f6e078"
               d="m -644.32223,561.76862 -0.0312,0.0312 h -0.0312 c -13.36934,1.25678 -28.84217,2.62778 -42.34375,5.03125 -1.90913,2.98168 -2.06747,5.70075 1.40625,7.875 12.96265,-2.30753 28.24596,-3.71121 41.625,-4.96875 18.14491,-1.37417 36.43964,-2.23317 54.6875,-2.4688 h 35 c 10.91556,0 33.96831,0.8703 54.6875,2.5 20.62477,1.62227 41.6875,4.9375 41.6875,4.9375 3.59435,-2.39802 3.20392,-5.08067 1.25,-7.875 0,0 -21.25757,-3.40639 -42.3125,-5.0625 -20.96041,-1.64868 -43.98416,-2.5 -55.3125,-2.5 h -35 c -18.46448,0.0721 -36.90054,1.20996 -55.3126,2.5001 z"
               id="path330" />
            <path
               inkscape:connector-curvature="0"
               style="color:#000000;text-indent:0;text-decoration:none;text-decoration-line:none;text-transform:none;fill:#fed100;stroke:#000000;stroke-width:1.33003557"
               d="m -644.32223,561.76862 -0.0312,0.0312 h -0.0312 c -13.36934,1.25678 -28.84217,2.62778 -42.34375,5.03125 -1.90913,2.98168 -2.06747,5.70075 1.40625,7.875 12.96265,-2.30753 28.24596,-3.71121 41.625,-4.96875 18.14491,-1.37417 36.43964,-2.23317 54.6875,-2.4688 h 35 c 10.91556,0 33.96831,0.8703 54.6875,2.5 20.62477,1.62227 41.6875,4.9375 41.6875,4.9375 3.59435,-2.39802 3.20392,-5.08067 1.25,-7.875 0,0 -21.25757,-3.40639 -42.3125,-5.0625 -20.96041,-1.64868 -43.98416,-2.5 -55.3125,-2.5 h -35 c -18.46448,0.0721 -36.90054,1.20996 -55.3126,2.5001 z"
               id="path332" />
          </g>
          <g
             style="stroke-width:1.37931645"
             transform="matrix(0.9401137,0,0,0.77383264,732.43551,-231.27994)"
             id="g340">
            <path
               inkscape:connector-curvature="0"
               style="color:#000000;text-indent:0;text-decoration:none;text-decoration-line:none;text-transform:none;fill:#f6e078"
               d="m -644.32223,561.76862 -0.0312,0.0312 h -0.0312 c -13.36934,1.25678 -28.84217,2.62778 -42.34375,5.03125 -1.90913,2.98168 -2.06747,5.70075 1.40625,7.875 12.96265,-2.30753 28.24596,-3.71121 41.625,-4.96875 18.14491,-1.37417 36.43964,-2.23317 54.6875,-2.4688 h 35 c 10.91556,0 33.96831,0.8703 54.6875,2.5 20.62477,1.62227 41.6875,4.9375 41.6875,4.9375 3.59435,-2.39802 3.20392,-5.08067 1.25,-7.875 0,0 -21.25757,-3.40639 -42.3125,-5.0625 -20.96041,-1.64868 -43.98416,-2.5 -55.3125,-2.5 h -35 c -18.46448,0.0721 -36.90054,1.20996 -55.3126,2.5001 z"
               id="path336" />
            <path
               inkscape:connector-curvature="0"
               style="color:#000000;text-indent:0;text-decoration:none;text-decoration-line:none;text-transform:none;fill:#fed100;stroke:#000000;stroke-width:1.37931645"
               d="m -644.32223,561.76862 -0.0312,0.0312 h -0.0312 c -13.36934,1.25678 -28.84217,2.62778 -42.34375,5.03125 -1.90913,2.98168 -2.06747,5.70075 1.40625,7.875 12.96265,-2.30753 28.24596,-3.71121 41.625,-4.96875 18.14491,-1.37417 36.43964,-1.77813 54.6875,-2.01376 h 35 c 10.91556,0 33.96831,0.41526 54.6875,2.04496 20.62477,1.62227 41.6875,4.9375 41.6875,4.9375 3.59435,-2.39802 3.20392,-5.08067 1.25,-7.875 0,0 -21.25757,-3.40639 -42.3125,-5.0625 -20.96041,-1.64868 -43.98416,-2.04496 -55.3125,-2.04496 h -35 c -18.46448,0.0721 -36.90054,0.75492 -55.3126,2.04506 z"
               id="path338" />
          </g>
          <g
             transform="translate(0.20975967,0.68990487)"
             id="g482">
            <g
               style="stroke-width:2.66007113"
               transform="translate(-302.32335,-173.08589)"
               id="g370">
              <g
                 transform="matrix(0.5055355,0,0,0.38691632,-961.10956,29.49087)"
                 id="g346">
                <rect
                   style="fill:#fed100;fill-rule:evenodd"
                   height="59.168652"
                   width="89.492676"
                   y="823.56537"
                   x="2840.0945"
                   id="rect342" />
                <rect
                   style="fill:none;stroke:#000000;stroke-width:2.66007113"
                   ry="3.0061483"
                   height="59.168652"
                   width="89.492676"
                   y="823.56537"
                   x="2840.0945"
                   id="rect344" />
              </g>
              <g
                 transform="matrix(0.5055355,0,0,0.38691632,-961.10957,29.490878)"
                 id="g368">
                <g
                   style="stroke-width:2.66007113"
                   id="g366">
                  <g
                     id="g362">
                    <rect
                       style="fill:#00247d;fill-rule:evenodd;stroke:#a0892c"
                       ry="5.1772556"
                       height="43.636868"
                       width="70.262749"
                       y="831.33124"
                       x="2849.7095"
                       id="rect348" />
                    <path
                       style="fill:#2b96f6;fill-rule:evenodd;stroke:#a0892c"
                       inkscape:connector-curvature="0"
                       d="m 2918.4592,873.45505 c -0.9358,0.93579 -2.2301,1.51306 -3.6642,1.51306 h -59.9083 c -1.4341,0 -2.7284,-0.57727 -3.6642,-1.51306 -0.9357,-0.93579 -1.513,-2.2301 -1.513,-3.6642 v -33.28236 c 0,-1.4341 0.5773,-2.72841 1.513,-3.6642 0.9358,-0.93579 68.1724,39.67497 67.2367,40.61076 z"
                       id="path350" />
                    <g
                       style="fill:#00247d;fill-rule:evenodd;stroke:#000000"
                       id="g358">
                      <path
                         inkscape:connector-curvature="0"
                         d="m 2918.4592,873.45505 c -0.9358,0.93581 -2.2301,1.51306 -3.6642,1.51306 h -59.9083 c -1.4341,0 -2.7284,-0.57727 -3.6642,-1.51306 -0.9357,-0.93579 -1.513,-2.2301 -1.513,-3.6642 v -33.28236 c 0,-1.4341 0.5773,-2.72843 1.513,-3.6642 0.4751,-0.47512 18.0398,9.75875 35.0964,20.07263 16.5393,10.00109 32.601,20.07746 32.1403,20.53813 z"
                         id="path352" />
                      <path
                         inkscape:connector-curvature="0"
                         d="m 2918.4592,832.84429 c 0.9357,0.93579 1.513,2.2301 1.513,3.6642 v 33.28236 c 0,1.4341 -0.5773,2.72841 -1.513,3.6642 -0.9358,0.93579 -2.2301,1.51306 -3.6642,1.51306 h -59.9083 c -1.4341,0 -2.7284,-0.57727 -3.6642,-1.51306 -0.9357,-0.93579 66.3009,-41.54655 67.2367,-40.61076 z"
                         id="path354" />
                      <path
                         inkscape:connector-curvature="0"
                         d="m 2918.4592,873.45505 c -0.9358,0.93579 -2.2301,1.51306 -3.6642,1.51306 h -59.9083 c -1.4341,0 -2.7284,-0.57725 -3.6642,-1.51306 -0.4748,-0.47478 16.6003,-11.16327 33.6609,-21.45655 0,0 34.5115,20.52076 33.5758,21.45655 z"
                         id="path356" />
                    </g>
                    <rect
                       style="fill:none;stroke:#000000"
                       ry="5.1772556"
                       height="43.636868"
                       width="70.262749"
                       y="831.33124"
                       x="2849.7095"
                       id="rect360" />
                  </g>
                  <rect
                     style="fill:#00247d;fill-rule:evenodd;stroke:#000000"
                     ry="0"
                     height="22.303528"
                     width="39.366543"
                     y="841.29156"
                     x="2865.1575"
                     id="rect364" />
                </g>
              </g>
            </g>
            <g
               style="stroke-width:1.17646122"
               transform="translate(-302.2398,-173.08589)"
               id="g480">
              <g
                 id="g424">
                <g
                   style="stroke-width:1.42758012"
                   transform="matrix(0.87076257,-0.01395006,0.01557975,0.77967835,-53.130928,133.63024)"
                   id="g378">
                  <rect
                     style="fill:#fed100;fill-rule:evenodd;stroke:#000000;stroke-width:1.42838442"
                     transform="matrix(0.99582463,-0.09128695,0.13842545,0.99037286,0,0)"
                     ry="10.770632"
                     width="35.828732"
                     height="22.673826"
                     y="340.21054"
                     x="494.62906"
                     id="rect372" />
                  <rect
                     style="fill:#306947;fill-rule:evenodd"
                     ry="8.2709742"
                     transform="matrix(0.99582463,-0.09128695,0.13842545,0.99037286,0,0)"
                     height="16.541948"
                     width="29.954123"
                     y="343.27649"
                     x="497.56638"
                     id="rect374" />
                  <rect
                     style="fill:none;stroke:#000000;stroke-width:1.42838442"
                     ry="8.2709742"
                     transform="matrix(0.99582463,-0.09128695,0.13842545,0.99037286,0,0)"
                     height="16.541948"
                     width="29.954123"
                     y="343.27649"
                     x="497.56638"
                     id="rect376" />
                </g>
                <g
                   style="stroke-width:1.3612119"
                   transform="matrix(-0.81813585,0.14281947,0.15466905,0.88601574,852.10246,11.280044)"
                   id="g392">
                  <g
                     id="g386">
                    <path
                       style="fill:#fed100;stroke:#000000;stroke-width:1.3612119"
                       inkscape:connector-curvature="0"
                       d="m 626.1653,310.88312 -23.70093,-12.77075 23.70093,-12.0817 2.88143,13.14658 z"
                       id="path380" />
                    <path
                       style="fill:#cf142b"
                       inkscape:connector-curvature="0"
                       d="m 626.1653,307.46566 -17.18272,-9.25855 17.18272,-8.75898 5.657,8.57889 z"
                       id="path382" />
                    <path
                       style="fill:#cf142b"
                       inkscape:connector-curvature="0"
                       d="m 626.1653,307.46566 -17.18272,-9.25855 22.65964,-0.18009 z"
                       id="path384" />
                  </g>
                  <path
                     style="fill:none;stroke:#000000;stroke-width:1.3612119"
                     inkscape:connector-curvature="0"
                     d="m 452.4043,250.5605 22.95329,-0.0249"
                     transform="translate(156.53221,47.580051)"
                     id="path388" />
                  <path
                     style="fill:none;stroke:#000000;stroke-width:1.3612119"
                     inkscape:connector-curvature="0"
                     d="m 626.1653,307.46566 -17.18272,-9.25855 17.18272,-8.75898 5.83709,8.3988 z"
                     id="path390" />
                </g>
                <g
                   style="stroke-width:1.45242119"
                   transform="translate(0.77785615,-117.02204)"
                   id="g422">
                  <g
                     transform="matrix(0.9,0,0,0.9,292.51532,-504.07822)"
                     id="g406">
                    <g
                       transform="matrix(0.9,0,0,0.9,18.929622,108.07168)"
                       id="g398">
                      <g
                         style="stroke-width:3.22760272"
                         transform="matrix(0.45,0,0,0.45,-1021.0702,731.00076)"
                         id="g396">
                        <ellipse
                           style="fill:#ffffff;stroke:#000000;stroke-width:3.22760272"
                           rx="10.48851"
                           transform="translate(0,-2.0633135)"
                           ry="10.660453"
                           cy="785.0257"
                           cx="2689.7012"
                           id="ellipse394" />
                      </g>
                    </g>
                    <g
                       transform="matrix(0.9,0,0,0.9,19.798287,121.61464)"
                       id="g404">
                      <g
                         style="stroke-width:3.22760272"
                         transform="matrix(0.45,0,0,0.45,-1021.0702,731.00076)"
                         id="g402">
                        <ellipse
                           style="fill:#ffffff;stroke:#000000;stroke-width:3.22760272"
                           rx="10.48851"
                           transform="translate(0,-2.0633135)"
                           ry="10.660453"
                           cy="785.0257"
                           cx="2689.7012"
                           id="ellipse400" />
                      </g>
                    </g>
                  </g>
                  <g
                     transform="matrix(0.9,0,0,0.9,241.07951,-501.26544)"
                     id="g420">
                    <g
                       transform="matrix(0.9,0,0,0.9,18.929622,108.07168)"
                       id="g412">
                      <g
                         style="stroke-width:3.22760272"
                         transform="matrix(0.45,0,0,0.45,-1021.0702,731.00076)"
                         id="g410">
                        <ellipse
                           style="fill:#ffffff;stroke:#000000;stroke-width:3.22760272"
                           rx="10.48851"
                           transform="translate(0,-2.0633135)"
                           ry="10.660453"
                           cy="785.0257"
                           cx="2689.7012"
                           id="ellipse408" />
                      </g>
                    </g>
                    <g
                       transform="matrix(0.9,0,0,0.9,19.798287,121.61464)"
                       id="g418">
                      <g
                         style="stroke-width:3.22760272"
                         transform="matrix(0.45,0,0,0.45,-1021.0702,731.00076)"
                         id="g416">
                        <ellipse
                           style="fill:#ffffff;stroke:#000000;stroke-width:3.22760272"
                           rx="10.48851"
                           transform="translate(0,-2.0633135)"
                           ry="10.660453"
                           cy="785.0257"
                           cx="2689.7012"
                           id="ellipse414" />
                      </g>
                    </g>
                  </g>
                </g>
              </g>
              <g
                 transform="matrix(-1,0,0,1,994.39268,0)"
                 id="g478">
                <g
                   style="stroke-width:1.42758012"
                   transform="matrix(0.87076257,-0.01395006,0.01557975,0.77967835,-53.130928,133.63024)"
                   id="g432">
                  <rect
                     style="fill:#fed100;fill-rule:evenodd;stroke:#000000;stroke-width:1.42838442"
                     transform="matrix(0.99582463,-0.09128695,0.13842545,0.99037286,0,0)"
                     ry="10.770632"
                     width="35.828732"
                     height="22.673826"
                     y="340.21054"
                     x="494.62906"
                     id="rect426" />
                  <rect
                     style="fill:#306947;fill-rule:evenodd"
                     ry="8.2709742"
                     transform="matrix(0.99582463,-0.09128695,0.13842545,0.99037286,0,0)"
                     height="16.541948"
                     width="29.954123"
                     y="343.27649"
                     x="497.56638"
                     id="rect428" />
                  <rect
                     style="fill:none;stroke:#000000;stroke-width:1.42838442"
                     ry="8.2709742"
                     transform="matrix(0.99582463,-0.09128695,0.13842545,0.99037286,0,0)"
                     height="16.541948"
                     width="29.954123"
                     y="343.27649"
                     x="497.56638"
                     id="rect430" />
                </g>
                <g
                   style="stroke-width:1.3612119"
                   transform="matrix(-0.81813585,0.14281947,0.15466905,0.88601574,852.10246,11.280044)"
                   id="g446">
                  <g
                     id="g440">
                    <path
                       style="fill:#fed100;stroke:#000000;stroke-width:1.3612119"
                       inkscape:connector-curvature="0"
                       d="m 626.1653,310.88312 -23.70093,-12.77075 23.70093,-12.0817 2.88143,13.14658 z"
                       id="path434" />
                    <path
                       style="fill:#cf142b"
                       inkscape:connector-curvature="0"
                       d="m 626.1653,307.46566 -17.18272,-9.25855 17.18272,-8.75898 5.657,8.57889 z"
                       id="path436" />
                    <path
                       style="fill:#cf142b"
                       inkscape:connector-curvature="0"
                       d="m 626.1653,307.46566 -17.18272,-9.25855 22.65964,-0.18009 z"
                       id="path438" />
                  </g>
                  <path
                     style="fill:none;stroke:#000000;stroke-width:1.3612119"
                     inkscape:connector-curvature="0"
                     d="m 452.4043,250.5605 22.95329,-0.0249"
                     transform="translate(156.53221,47.580051)"
                     id="path442" />
                  <path
                     style="fill:none;stroke:#000000;stroke-width:1.3612119"
                     inkscape:connector-curvature="0"
                     d="m 626.1653,307.46566 -17.18272,-9.25855 17.18272,-8.75898 5.83709,8.3988 z"
                     id="path444" />
                </g>
                <g
                   style="stroke-width:1.45242119"
                   transform="translate(0.77785615,-117.02204)"
                   id="g476">
                  <g
                     transform="matrix(0.9,0,0,0.9,292.51532,-504.07822)"
                     id="g460">
                    <g
                       transform="matrix(0.9,0,0,0.9,18.929622,108.07168)"
                       id="g452">
                      <g
                         style="stroke-width:3.22760272"
                         transform="matrix(0.45,0,0,0.45,-1021.0702,731.00076)"
                         id="g450">
                        <ellipse
                           style="fill:#ffffff;stroke:#000000;stroke-width:3.22760272"
                           rx="10.48851"
                           transform="translate(0,-2.0633135)"
                           ry="10.660453"
                           cy="785.0257"
                           cx="2689.7012"
                           id="ellipse448" />
                      </g>
                    </g>
                    <g
                       transform="matrix(0.9,0,0,0.9,19.798287,121.61464)"
                       id="g458">
                      <g
                         style="stroke-width:3.22760272"
                         transform="matrix(0.45,0,0,0.45,-1021.0702,731.00076)"
                         id="g456">
                        <ellipse
                           style="fill:#ffffff;stroke:#000000;stroke-width:3.22760272"
                           rx="10.48851"
                           transform="translate(0,-2.0633135)"
                           ry="10.660453"
                           cy="785.0257"
                           cx="2689.7012"
                           id="ellipse454" />
                      </g>
                    </g>
                  </g>
                  <g
                     transform="matrix(0.9,0,0,0.9,241.07951,-501.26544)"
                     id="g474">
                    <g
                       transform="matrix(0.9,0,0,0.9,18.929622,108.07168)"
                       id="g466">
                      <g
                         style="stroke-width:3.22760272"
                         transform="matrix(0.45,0,0,0.45,-1021.0702,731.00076)"
                         id="g464">
                        <ellipse
                           style="fill:#ffffff;stroke:#000000;stroke-width:3.22760272"
                           rx="10.48851"
                           transform="translate(0,-2.0633135)"
                           ry="10.660453"
                           cy="785.0257"
                           cx="2689.7012"
                           id="ellipse462" />
                      </g>
                    </g>
                    <g
                       transform="matrix(0.9,0,0,0.9,19.798287,121.61464)"
                       id="g472">
                      <g
                         style="stroke-width:3.22760272"
                         transform="matrix(0.45,0,0,0.45,-1021.0702,731.00076)"
                         id="g470">
                        <ellipse
                           style="fill:#ffffff;stroke:#000000;stroke-width:3.22760272"
                           rx="10.48851"
                           transform="translate(0,-2.0633135)"
                           ry="10.660453"
                           cy="785.0257"
                           cx="2689.7012"
                           id="ellipse468" />
                      </g>
                    </g>
                  </g>
                </g>
              </g>
            </g>
          </g>
        </g>
      </g>
    </g>
  </g>
</svg>
