<!-- Generator: Adobe Illustrator 13.0.0, SVG Export Plug-In . SVG Version: 6.00 Build 14948)  -->
<svg xmlns:rdf="http://www.w3.org/1999/02/22-rdf-syntax-ns#" xmlns="http://www.w3.org/2000/svg" enable-background="new 161.5 13.5 273 561" xml:space="preserve" height="600" viewBox="161.5 13.5 327.6 159.45503" width="1200" version="1.0" y="0px" x="0px" xmlns:cc="http://creativecommons.org/ns#" xmlns:dc="http://purl.org/dc/elements/1.1/"><metadata><rdf:RDF><cc:Work rdf:about=""><dc:format>image/svg+xml</dc:format><dc:type rdf:resource="http://purl.org/dc/dcmitype/StillImage"/><dc:title/></cc:Work></rdf:RDF></metadata>
<g fill-rule="nonzero" transform="matrix(0.364,0,0,0.273,161.5,11.327523)"><path d="m0,100,900,0,0,400-900,0z" fill="#FFF"/><path d="m0,0,900,0,0,200-900,0z" fill="#cd2a3e"/><path d="m0,399.99997,900,0,0,200-900,0z" fill="#436f4d"/></g><path stroke-linejoin="miter" d="m19939.343,1102.7645c-6.009,0.01-10.402,6.7193-10.402,11.3034v19.1069h10.402,10.406v-19.1069c0-4.5841-4.393-11.2966-10.402-11.3034z" fill-rule="evenodd" stroke="#d4af34" stroke-linecap="butt" stroke-miterlimit="4" stroke-dasharray="none" stroke-width="1.58967102" fill="#0e6d2b"/><g><path d="m301.92506,66.000565,0,40.521485c0,4.35403,2.06461,7.80312,4.19367,10.69412,2.65802,3.60924,6.08306,5.81326,9.98474,7.62131,3.22451,1.49425,5.70996,2.25338,9.19666,3.5004,3.48671-1.24702,5.97215-2.00615,9.19666-3.5004,3.90168-1.80805,7.32673-4.01207,9.98474-7.62131,2.12907-2.891,4.19369-6.34009,4.19367-10.69412l0.00001-40.521485h-23.37508z" fill="#cd2a3e"/><path stroke-linejoin="round" d="m333.52791,69.709433c-0.3701,0-0.38648,0.526451,0,0.630004,0.48711,0.130521,0.58865,0.308663,0.5887,0.877885v4.054257h-4.06324c-0.56922,0-0.74737-0.10159-0.87789-0.588701-0.10356-0.386474-0.63001-0.370088-0.63001,0,0.00018,2.213186,0.00002,4.335813,0,6.494556,0,0.37009,0.52645,0.386471,0.63001,0,0.13052-0.487111,0.30866-0.588773,0.87789-0.588716h4.06324v5.152707h-5.42243c-0.56922,0-0.74736-0.101591-0.87788-0.588695-0.10356-0.386481-0.63001-0.37009-0.63001,0v6.494549c0,0.37009,0.52645,0.386476,0.63001,0,0.13052-0.487111,0.30866-0.588752,0.87788-0.588711h5.42243v16.188512h5.31715v-16.188512h5.42244c0.56922,0,0.74736,0.1016,0.87788,0.588711,0.10356,0.386476,0.63001,0.37009,0.63001,0v-6.494564c0-0.370091-0.52645-0.386477-0.63001,0-0.13052,0.487104-0.30866,0.58871-0.87788,0.58871h-5.42244v-5.152707h4.06325c0.56923,0,0.74737,0.10159,0.87789,0.588701,0.10355,0.386476,0.63,0.37009,0.63,0v-6.494556c0-0.370088-0.52645-0.386471-0.63,0-0.13052,0.487111-0.30866,0.588706-0.87789,0.588716h-4.06325v-4.054216c0-0.569222,0.10159-0.747359,0.5887-0.877885,0.38648-0.103553,0.37009-0.630002,0-0.630002-2.22192,0.000011-4.38958,0-6.49454,0z" stroke="#000" stroke-linecap="square" stroke-miterlimit="4" stroke-dasharray="none" stroke-width="0.14603738" fill="#FFF"/><path style="enable-background:accumulate;color:#000000;" d="m309.23288,120.6005,16.06729,0,0,7.81042,0,0c-2.48584-0.89404-4.98178-1.74264-7.30292-2.70114-3.41386-1.40974-6.47368-3.02508-8.76437-5.10928z" fill-rule="nonzero" fill="#FFF"/><path style="enable-background:accumulate;color:#000000;" d="m301.89108,89.358807,23.40909,0,0,7.810422-23.40909,0z" fill-rule="nonzero" fill="#FFF"/><path style="enable-background:accumulate;color:#000000;" d="m301.89108,73.737963,23.40909,0,0,7.810422-23.40909,0z" fill-rule="nonzero" fill="#FFF"/><path style="enable-background:accumulate;color:#000000;" d="m301.89108,104.97965,23.40909,0,0,7.81043-21.92511,0c-1.21832-2.82104-1.48398-4.41495-1.48398-7.81043z" fill-rule="nonzero" fill="#FFF"/><path d="m325.30012,109.56429c1.14771-1.69914,3.21183-2.43414,5.44467-1.49781,0,0,1.32308-4.76382,5.99306-4.76382,5.17835,0,5.82683,4.90699,5.82683,4.90699,1.98793-1.48262,4.32236-0.61154,5.81687,1.11189-0.99561,4.66514-4.86755,10.3733-10.36834,13.68177-3.73701,2.24765-7.67569,3.59102-12.71309,5.33458z" fill="#436f4d"/><path stroke-linejoin="miter" d="m325.30012,109.55986c1.14771-1.69914,3.21183-2.43415,5.44467-1.49781,0,0,1.32308-4.76382,5.99306-4.76382,5.11073,0,5.82683,4.90699,5.82683,4.90699,1.98793-1.48262,4.32236-0.61154,5.81687,1.11189" stroke="#000" stroke-linecap="butt" stroke-miterlimit="4" stroke-dasharray="none" stroke-width="0.14607088" fill="none"/><path stroke-linejoin="miter" d="m332.64257,109.90561c-0.50245-0.89215-1.07659-1.5057-1.94289-1.86521" stroke="#000" stroke-linecap="round" stroke-miterlimit="4" stroke-dasharray="none" stroke-width="0.14607088" fill="none"/><path stroke-linejoin="miter" d="m342.53729,109.66766c0.0824-0.52979,0.10159-1.03484,0.0115-1.52847" stroke="#000" stroke-linecap="round" stroke-miterlimit="4" stroke-dasharray="none" stroke-width="0.14607088" fill="none"/><path stroke-linejoin="miter" d="m325.2833,73.737963-23.31918,0" stroke="#000" stroke-linecap="square" stroke-miterlimit="4" stroke-dasharray="none" stroke-width="0.14607088" fill="none"/><path stroke-linejoin="miter" d="m325.2833,81.54838-23.31918,0" stroke="#000" stroke-linecap="square" stroke-miterlimit="4" stroke-dasharray="none" stroke-width="0.14607088" fill="none"/><path stroke-linejoin="miter" d="m325.2833,89.358802-23.31918,0" stroke="#000" stroke-linecap="square" stroke-miterlimit="4" stroke-dasharray="none" stroke-width="0.14607088" fill="none"/><path stroke-linejoin="miter" d="m325.2833,97.169224-23.31918,0" stroke="#000" stroke-linecap="square" stroke-miterlimit="4" stroke-dasharray="none" stroke-width="0.14607088" fill="none"/><path stroke-linejoin="miter" d="m325.2833,104.97965-23.31918,0" stroke="#000" stroke-linecap="square" stroke-miterlimit="4" stroke-dasharray="none" stroke-width="0.14607088" fill="none"/><path stroke-linejoin="miter" d="m325.2833,112.79007-21.85903,0" stroke="#000" stroke-linecap="square" stroke-miterlimit="4" stroke-dasharray="none" stroke-width="0.14607088" fill="none"/><path stroke-linejoin="miter" d="m325.2833,120.60049-15.9635,0" stroke="#000" stroke-linecap="square" stroke-miterlimit="4" stroke-dasharray="none" stroke-width="0.14607088" fill="none"/><path stroke-linejoin="miter" d="m301.92507,66.000565,0,40.521485c0,4.35404,2.0646,7.80313,4.19367,10.69412,2.65801,3.60925,6.08306,5.81327,9.98474,7.62131,3.22451,1.49425,5.70995,2.2534,9.19665,3.50041,3.48671-1.24701,5.97217-2.00616,9.19668-3.50041,3.90168-1.80804,7.32672-4.01206,9.98473-7.62131,2.12908-2.89099,4.19369-6.34008,4.19367-10.69412v-40.521485h-23.37507z" stroke="#000" stroke-linecap="butt" stroke-miterlimit="4" stroke-dasharray="none" stroke-width="0.14607088" fill="none"/><path stroke-linejoin="miter" d="m325.30013,66.01301,0,62.29427" stroke="#000" stroke-linecap="square" stroke-miterlimit="4" stroke-dasharray="none" stroke-width="0.14607088" fill="none"/></g></svg>
