<?xml version="1.0" encoding="UTF-8" standalone="no"?>
<!-- Creator: CorelDRAW -->
<svg
   xmlns:dc="http://purl.org/dc/elements/1.1/"
   xmlns:cc="http://web.resource.org/cc/"
   xmlns:rdf="http://www.w3.org/1999/02/22-rdf-syntax-ns#"
   xmlns:svg="http://www.w3.org/2000/svg"
   xmlns="http://www.w3.org/2000/svg"
   xmlns:sodipodi="http://sodipodi.sourceforge.net/DTD/sodipodi-0.dtd"
   xmlns:inkscape="http://www.inkscape.org/namespaces/inkscape"
   xml:space="preserve"
   width="800"
   height="500.00003"
   style="shape-rendering:geometricPrecision; text-rendering:geometricPrecision; image-rendering:optimizeQuality; fill-rule:evenodd; clip-rule:evenodd"
   viewBox="0 0 212.538 222.201"
   id="svg2"
   sodipodi:version="0.32"
   inkscape:version="0.45.1"
   sodipodi:docname="Flaga Litwy Środkowej.svg"
   inkscape:output_extension="org.inkscape.output.svg.inkscape"
   sodipodi:docbase="C:\Users\Mistrz\Desktop"
   version="1.0"><metadata
   id="metadata134"><rdf:RDF><cc:Work
       rdf:about=""><dc:format>image/svg+xml</dc:format><dc:type
         rdf:resource="http://purl.org/dc/dcmitype/StillImage" /></cc:Work></rdf:RDF></metadata><sodipodi:namedview
   inkscape:window-height="974"
   inkscape:window-width="1280"
   inkscape:pageshadow="2"
   inkscape:pageopacity="0.0"
   guidetolerance="10.0"
   gridtolerance="10.0"
   objecttolerance="10.0"
   borderopacity="1.0"
   bordercolor="#666666"
   pagecolor="#ffffff"
   id="base"
   inkscape:zoom="0.51861181"
   inkscape:cx="363.34134"
   inkscape:cy="379.86023"
   inkscape:window-x="-8"
   inkscape:window-y="-8"
   inkscape:current-layer="svg2" />
 <defs
   id="defs4">
  <style
   type="text/css"
   id="style6">
   
    .str1 {stroke:#0A0B0C;stroke-width:1.09675}
    .str0 {stroke:#0A0B0C;stroke-width:1.46237}
    .fil4 {fill:none}
    .fil5 {fill:#0093DD}
    .fil2 {fill:#0A0B0C}
    .fil1 {fill:#DA251D}
    .fil6 {fill:#F5C491}
    .fil3 {fill:white}
    .fil0 {fill:#FACF00}
   
  </style>
 </defs>
 <rect
   style="opacity:1;fill:#da251d;fill-opacity:1;fill-rule:nonzero;stroke:none;stroke-width:5;stroke-linecap:round;stroke-linejoin:round;stroke-miterlimit:4;stroke-dasharray:none;stroke-opacity:1"
   id="rect2286"
   width="355.52158"
   height="222.20099"
   x="-71.491791"
   y="1.1230469e-005" /><g
   id="Warstwa_x0020_1"
   transform="matrix(0.7318276,0,0,0.7318276,28.49831,29.607951)">
  <metadata
   id="CorelCorpID_0Corel-Layer" />
  <path
   class="fil0 str0"
   d="M 115.961,1.24609 C 127.9729,2.51301 139.8716,5.71673 148.5576,9.91108 C 146.40161,37.06618 182.5276,43.29038 211.6903,43.42668 C 211.75362,60.68838 212.20256,81.83878 210.77356,99.53428 C 206.3906,153.80398 183.05676,192.49098 128.44396,207.98328 C 121.70924,209.89376 110.95776,213.19821 107.09966,220.11148 C 106.77021,220.70177 106.49123,221.3186 106.26904,221.96289 C 106.04208,221.30451 105.75512,220.67504 105.41624,220.07303 C 101.53963,213.18608 90.81644,209.89013 84.09434,207.98323 C 29.48154,192.49043 6.14764,153.80343 1.76474,99.53423 C 0.33574,81.83873 0.78468,60.68833 0.848,43.42663 C 30.0107,43.290249 66.1367,37.06613 63.9807,9.91103 C 72.46578,5.81378 84.0163,2.66167 95.7435,1.33703 C 102.57273,0.565687 109.1291,0.525477 115.9611,1.2460399 L 115.961,1.24609 z "
   id="path10"
   style="fill:#facf00;stroke:#0a0b0c;stroke-width:1.46237004" />
  <path
   class="fil1 str0"
   d="M 106.269,209.772 C 107.60991,208.49928 109.23395,207.39144 110.99354,206.42247 C 115.62719,203.87091 121.20234,202.28398 125.03384,201.19707 C 175.53734,186.86987 198.42974,150.87507 202.48294,100.68907 C 203.80458,84.32497 203.9735,67.76017 203.91495,51.79737 C 177.69735,51.79737 144.33015,43.80455 138.96025,15.69177 C 135.9982,14.43584 132.76432,13.41018 129.39552,12.57987 C 114.02002,8.79052 98.71592,8.78409 83.34432,12.531266 C 79.90307,13.370178 76.59924,14.410756 73.57823,15.691776 C 68.20837,43.804576 34.84113,51.797376 8.62353,51.797376 C 8.5649772,67.760176 8.733899,84.324976 10.05554,100.68908 C 14.10874,150.87528 37.00114,186.87008 87.50464,201.19708 C 91.33949,202.28492 96.92107,203.87362 101.55684,206.42901 C 103.31187,207.39642 104.93114,208.50219 106.26894,209.77201 L 106.269,209.772 z "
   id="path12"
   style="fill:#da251d;stroke:#0a0b0c;stroke-width:1.46237004" />
  <path
   class="fil2"
   d="M 106.269,213.151 C 106.79069,213.151 107.21621,213.57652 107.21621,214.09821 C 107.21621,214.6199 106.79069,215.04542 106.269,215.04542 C 105.74731,215.04542 105.32179,214.6199 105.32179,214.09821 C 105.32179,213.57652 105.74731,213.151 106.269,213.151 z M 92.1639,205.46472 C 92.68559,205.46472 93.111109,205.89024 93.111109,206.41193 C 93.111109,206.93362 92.685591,207.35914 92.1639,207.35914 C 91.64221,207.35914 91.216691,206.93362 91.216691,206.41193 C 91.216691,205.89024 91.642209,205.46472 92.1639,205.46472 z M 76.4755,200.51602 C 76.99719,200.51602 77.422709,200.94154 77.422709,201.46323 C 77.422709,201.98492 76.997191,202.41044 76.4755,202.41044 C 75.95381,202.41044 75.528291,201.98492 75.528291,201.46323 C 75.528291,200.94154 75.953809,200.51602 76.4755,200.51602 z M 58.576,192.51387 C 59.09769,192.51387 59.523209,192.93939 59.523209,193.46108 C 59.523209,193.98277 59.097691,194.40829 58.576,194.40829 C 58.05431,194.40829 57.628791,193.98277 57.628791,193.46108 C 57.628791,192.93939 58.054309,192.51387 58.576,192.51387 z M 42.1505,181.45827 C 42.67219,181.45827 43.097709,181.88379 43.097709,182.40548 C 43.097709,182.92717 42.672191,183.35269 42.1505,183.35269 C 41.62881,183.35269 41.203291,182.92717 41.203291,182.40548 C 41.203291,181.88379 41.628809,181.45827 42.1505,181.45827 z M 28.9891,167.34917 C 29.51079,167.34917 29.936309,167.77469 29.936309,168.29638 C 29.936309,168.81807 29.510791,169.24359 28.9891,169.24359 C 28.46741,169.24359 28.041891,168.81807 28.041891,168.29638 C 28.041891,167.77469 28.467409,167.34917 28.9891,167.34917 z M 20.3552,153.66127 C 20.87689,153.66127 21.302409,154.08679 21.302409,154.60848 C 21.302409,155.13017 20.876891,155.55569 20.3552,155.55569 C 19.83351,155.55569 19.407991,155.13017 19.407991,154.60848 C 19.407991,154.08679 19.833509,153.66127 20.3552,153.66127 z M 13.51126,137.55167 C 14.03295,137.55167 14.458469,137.97719 14.458469,138.49888 C 14.458469,139.02057 14.032951,139.44609 13.51126,139.44609 C 12.98957,139.44609 12.564051,139.02057 12.564051,138.49888 C 12.564051,137.97719 12.989569,137.55167 13.51126,137.55167 z M 9.19431,121.65267 C 9.716,121.65267 10.141519,122.07819 10.141519,122.59988 C 10.141519,123.12157 9.716001,123.54709 9.19431,123.54709 C 8.67262,123.54709 8.247101,123.12157 8.247101,122.59988 C 8.247101,122.07819 8.672619,121.65267 9.19431,121.65267 z M 6.56202,104.17427 C 7.08371,104.17427 7.509229,104.59979 7.509229,105.12148 C 7.509229,105.64317 7.083711,106.06869 6.56202,106.06869 C 6.04033,106.06869 5.614811,105.64317 5.614811,105.12148 C 5.614811,104.59979 6.040329,104.17427 6.56202,104.17427 z M 5.08794,83.85297 C 5.60963,83.85297 6.035149,84.278488 6.035149,84.800179 C 6.035149,85.321869 5.609631,85.747388 5.08794,85.747388 C 4.56625,85.747388 4.140731,85.32187 4.140731,84.800179 C 4.140731,84.278489 4.566249,83.85297 5.08794,83.85297 z M 4.561483,65.63757 C 5.083173,65.63757 5.508692,66.063088 5.508692,66.584779 C 5.508692,67.106469 5.083174,67.531988 4.561483,67.531988 C 4.039793,67.531988 3.614274,67.10647 3.614274,66.584779 C 3.614274,66.063089 4.039792,65.63757 4.561483,65.63757 z M 5.08794,46.68507 C 5.60963,46.68507 6.035149,47.110588 6.035149,47.632279 C 6.035149,48.153969 5.609631,48.579488 5.08794,48.579488 C 4.56625,48.579488 4.140731,48.15397 4.140731,47.632279 C 4.140731,47.110589 4.566249,46.68507 5.08794,46.68507 z M 22.88224,45.31628 C 23.40393,45.31628 23.829449,45.741798 23.829449,46.263489 C 23.829449,46.785179 23.403931,47.210698 22.88224,47.210698 C 22.36055,47.210698 21.935031,46.78518 21.935031,46.263489 C 21.935031,45.741799 22.360549,45.31628 22.88224,45.31628 z M 42.78234,40.99933 C 43.30403,40.99933 43.729549,41.424848 43.729549,41.946539 C 43.729549,42.468229 43.304031,42.893748 42.78234,42.893748 C 42.26065,42.893748 41.835131,42.46823 41.835131,41.946539 C 41.835131,41.424849 42.260649,40.99933 42.78234,40.99933 z M 61.33994,29.46993 C 61.86163,29.46993 62.287149,29.895448 62.287149,30.417139 C 62.287149,30.938829 61.861631,31.364348 61.33994,31.364348 C 60.81825,31.364348 60.392731,30.93883 60.392731,30.417139 C 60.392731,29.895449 60.818249,29.46993 61.33994,29.46993 z M 71.05308,11.07023 C 71.57477,11.07023 72.000289,11.495748 72.000289,12.017439 C 72.000289,12.539129 71.574771,12.964648 71.05308,12.964648 C 70.53139,12.964648 70.105871,12.53913 70.105871,12.017439 C 70.105871,11.495749 70.531389,11.07023 71.05308,11.07023 z M 86.21508,6.22682 C 86.73677,6.22682 87.162289,6.652338 87.162289,7.174029 C 87.162289,7.695719 86.736771,8.121238 86.21508,8.121238 C 85.69339,8.121238 85.267871,7.69572 85.267871,7.174029 C 85.267871,6.652339 85.693389,6.22682 86.21508,6.22682 z M 106.26918,3.92595 C 106.79087,3.92595 107.21639,4.351468 107.21639,4.873159 C 107.21639,5.394849 106.79087,5.820368 106.26918,5.820368 C 105.74749,5.820368 105.32197,5.39485 105.32197,4.873159 C 105.32197,4.351469 105.74749,3.92595 106.26918,3.92595 L 106.26918,3.92595 z M 120.38218,205.46495 C 119.86049,205.46495 119.43497,205.89047 119.43497,206.41216 C 119.43497,206.93385 119.86049,207.35937 120.38218,207.35937 C 120.90387,207.35937 121.32939,206.93385 121.32939,206.41216 C 121.32939,205.89047 120.90387,205.46495 120.38218,205.46495 z M 136.07058,200.51625 C 135.54889,200.51625 135.12337,200.94177 135.12337,201.46346 C 135.12337,201.98515 135.54889,202.41067 136.07058,202.41067 C 136.59227,202.41067 137.01779,201.98515 137.01779,201.46346 C 137.01779,200.94177 136.59227,200.51625 136.07058,200.51625 z M 153.97008,192.5141 C 153.44839,192.5141 153.02287,192.93962 153.02287,193.46131 C 153.02287,193.983 153.44839,194.40852 153.97008,194.40852 C 154.49177,194.40852 154.91729,193.983 154.91729,193.46131 C 154.91729,192.93962 154.49177,192.5141 153.97008,192.5141 z M 170.39558,181.4585 C 169.87389,181.4585 169.44837,181.88402 169.44837,182.40571 C 169.44837,182.9274 169.87389,183.35292 170.39558,183.35292 C 170.91727,183.35292 171.34279,182.9274 171.34279,182.40571 C 171.34279,181.88402 170.91727,181.4585 170.39558,181.4585 z M 183.55698,167.3494 C 183.03529,167.3494 182.60977,167.77492 182.60977,168.29661 C 182.60977,168.8183 183.03529,169.24382 183.55698,169.24382 C 184.07867,169.24382 184.50419,168.8183 184.50419,168.29661 C 184.50419,167.77492 184.07867,167.3494 183.55698,167.3494 z M 192.19088,153.6615 C 191.66919,153.6615 191.24367,154.08702 191.24367,154.60871 C 191.24367,155.1304 191.66919,155.55592 192.19088,155.55592 C 192.71257,155.55592 193.13809,155.1304 193.13809,154.60871 C 193.13809,154.08702 192.71257,153.6615 192.19088,153.6615 z M 199.03482,137.5519 C 198.51313,137.5519 198.08761,137.97742 198.08761,138.49911 C 198.08761,139.0208 198.51313,139.44632 199.03482,139.44632 C 199.55651,139.44632 199.98203,139.0208 199.98203,138.49911 C 199.98203,137.97742 199.55651,137.5519 199.03482,137.5519 z M 203.35177,121.6529 C 202.83008,121.6529 202.40456,122.07842 202.40456,122.60011 C 202.40456,123.1218 202.83008,123.54732 203.35177,123.54732 C 203.87346,123.54732 204.29898,123.1218 204.29898,122.60011 C 204.29898,122.07842 203.87346,121.6529 203.35177,121.6529 z M 205.98406,104.1745 C 205.46237,104.1745 205.03685,104.60002 205.03685,105.12171 C 205.03685,105.6434 205.46237,106.06892 205.98406,106.06892 C 206.50575,106.06892 206.93127,105.6434 206.93127,105.12171 C 206.93127,104.60002 206.50575,104.1745 205.98406,104.1745 z M 207.45814,83.8532 C 206.93645,83.8532 206.51093,84.278718 206.51093,84.800409 C 206.51093,85.322099 206.93645,85.747618 207.45814,85.747618 C 207.97983,85.747618 208.40535,85.3221 208.40535,84.800409 C 208.40535,84.278719 207.97983,83.8532 207.45814,83.8532 z M 207.9846,65.6378 C 207.46291,65.6378 207.03739,66.063318 207.03739,66.585009 C 207.03739,67.106699 207.46291,67.532218 207.9846,67.532218 C 208.50629,67.532218 208.93181,67.1067 208.93181,66.585009 C 208.93181,66.063319 208.50629,65.6378 207.9846,65.6378 z M 207.45814,46.6853 C 206.93645,46.6853 206.51093,47.110818 206.51093,47.632509 C 206.51093,48.154199 206.93645,48.579718 207.45814,48.579718 C 207.97983,48.579718 208.40535,48.1542 208.40535,47.632509 C 208.40535,47.110819 207.97983,46.6853 207.45814,46.6853 z M 189.66384,45.31651 C 189.14215,45.31651 188.71663,45.742028 188.71663,46.263719 C 188.71663,46.785409 189.14215,47.210928 189.66384,47.210928 C 190.18553,47.210928 190.61105,46.78541 190.61105,46.263719 C 190.61105,45.742029 190.18553,45.31651 189.66384,45.31651 z M 169.76374,40.99956 C 169.24205,40.99956 168.81653,41.425078 168.81653,41.946769 C 168.81653,42.468459 169.24205,42.893978 169.76374,42.893978 C 170.28543,42.893978 170.71095,42.46846 170.71095,41.946769 C 170.71095,41.425079 170.28543,40.99956 169.76374,40.99956 z M 151.20614,29.47016 C 150.68445,29.47016 150.25893,29.895678 150.25893,30.417369 C 150.25893,30.939059 150.68445,31.364578 151.20614,31.364578 C 151.72783,31.364578 152.15335,30.93906 152.15335,30.417369 C 152.15335,29.895679 151.72783,29.47016 151.20614,29.47016 z M 141.493,11.07046 C 140.97131,11.07046 140.54579,11.495978 140.54579,12.017669 C 140.54579,12.539359 140.97131,12.964878 141.493,12.964878 C 142.01469,12.964878 142.44021,12.53936 142.44021,12.017669 C 142.44021,11.495979 142.01469,11.07046 141.493,11.07046 z M 126.331,6.22705 C 125.80931,6.22705 125.38379,6.652568 125.38379,7.174259 C 125.38379,7.695949 125.80931,8.121468 126.331,8.121468 C 126.85269,8.121468 127.27821,7.69595 127.27821,7.174259 C 127.27821,6.652569 126.85269,6.22705 126.331,6.22705 z "
   id="path14"
   style="fill:#0a0b0c" />
  <g
   id="_76929808">
   <path
   id="_92691480"
   class="fil3 str1"
   d="M 51.7727,86.8709 C 45.39283,86.078001 41.4722,82.09278 41.87468,77.30389 C 42.134903,74.20702 42.99154,74.36941 44.28073,74.85918 C 46.9353,75.86774 49.08268,75.036704 49.4567,72.12077 C 49.976628,68.07026 47.31149,67.51997 45.16151,65.09588 C 44.02476,63.81425 43.22295,62.15642 43.22295,60.16729 C 40.75689,60.457256 40.57077,62.00036 40.57077,64.12163 C 38.33644,63.845965 35.60217,65.029251 34.36096,65.69199 C 32.73361,66.560852 31.26968,65.468453 31.75489,62.43293 C 30.4004,62.063892 27.4996,66.01636 30.17635,68.49506 C 24.49527,71.00019 23.97991,80.16866 23.62548,81.71366 C 22.839732,85.13905 22.25182,88.29127 19.50429,89.39672 C 23.51407,91.94164 26.72266,86.05372 27.47753,79.54326 C 26.726292,83.79171 25.05241,97.87676 21.3983,102.90946 C 27.46479,105.84456 30.49057,94.41319 30.61835,90.53426 C 31.092162,94.4202 31.099209,111.83266 23.04027,114.15036 C 23.04027,117.45409 26.84216,117.62881 30.22258,114.44768 C 33.86094,111.02384 36.19642,103.19578 35.85961,98.616284 C 35.607056,109.01518 36.709611,114.60158 30.36476,125.07478 C 32.74408,127.4486 36.78536,126.4588 38.95368,122.29585 C 42.57193,123.88351 44.06249,119.03948 44.57382,117.93921 C 47.18258,118.96705 48.67749,115.0325 48.93088,113.58226 C 52.20445,112.48499 53.07746,109.90183 53.41426,109.1622 L 51.77271,86.870904 L 51.7727,86.8709 z "
   style="fill:#ffffff;stroke:#0a0b0c;stroke-width:1.09675002" />
   <path
   id="_92691408"
   class="fil4 str1"
   d="M 41.2635,103.364 C 40.729063,109.80139 39.98207,116.1683 38.81547,122.3954 M 45.84367,104.5485 C 45.580752,109.04961 45.185909,113.55071 44.5012,118.0521 M 49.08138,105.733 C 49.153716,108.39151 49.061586,111.05001 48.923443,113.70883 M 36.628243,75.32043 C 34.527393,75.963993 35.529933,78.57949 37.243825,78.2262 M 37.941899,82.03089 C 36.079189,83.19625 37.724476,85.46312 39.288509,84.6782 M 41.371749,88.10421 C 39.874139,89.71208 42.050029,91.47571 43.357679,90.31284 M 45.959909,91.51198 C 44.929479,93.45262 47.487669,94.593 48.449799,93.13135 M 47.47834,98.92829 C 47.240709,100.62601 49.42053,100.77939 49.73589,99.450809 M 43.7492,97.317209 C 43.135691,98.918029 45.22515,99.557759 45.8313,98.334469 M 40.74477,95.063079 C 39.786887,96.484829 41.678817,97.578159 42.54457,96.522549 M 38.01735,92.268819 C 36.84888,93.523299 38.546502,94.899139 39.56667,93.991929 M 35.88406,89.133809 C 34.53372,90.189939 35.995155,91.814489 37.14476,91.078069 M 34.1824,85.501869 C 32.68345,86.333837 33.872847,88.167009 35.123494,87.619509 M 33.211354,81.384619 C 31.572394,81.886619 32.35441,83.927059 33.691798,83.651499 M 32.524678,75.383529 C 30.823438,75.593283 31.239208,77.738599 32.604165,77.699529 M 32.623648,70.573499 C 30.910588,70.634125 31.137758,72.807519 32.500946,72.887629"
   style="fill:none;stroke:#0a0b0c;stroke-width:1.09675002" />
   <path
   id="_92691336"
   class="fil3 str1"
   d="M 71.6452,88.2347 C 78.59568,87.937065 84.8119,83.63452 84.4635,78.82873 C 84.238823,75.72916 83.576502,75.81673 82.25342,76.20546 C 79.5289,77.006131 77.45209,76.011769 77.30431,73.07563 C 77.098701,68.99704 79.79835,68.65411 82.12906,66.4033 C 83.36126,65.21328 84.60465,63.51711 84.75824,61.53388 C 87.19456,62.013391 87.57686,63.35575 87.41301,65.4706 C 89.66196,65.368314 91.66498,67.07515 92.85138,67.83157 C 94.40671,68.823548 95.95064,67.847426 95.7013,64.78351 C 97.08024,64.520178 99.66724,68.68479 96.80707,70.94938 C 102.27777,73.88573 102.08366,83.06658 102.31777,84.63438 C 102.83666,88.11024 103.17938,91.29842 105.83343,92.61269 C 101.63908,94.8405 98.89466,88.7224 98.6448,82.17309 C 98.551634,86.03872 98.850409,100.15059 103.32281,106.46539 C 97.04781,108.92337 94.49253,94.76549 94.66466,90.88829 C 93.892177,94.72604 92.5407,114.08649 100.39672,117.01949 C 100.14158,120.31337 96.33751,120.19388 93.21286,116.76134 C 89.84986,113.06681 88.33619,102.97604 89.02566,98.436039 C 88.474538,108.82344 86.73329,116.41384 92.25052,127.34574 C 89.69503,129.52878 85.95283,127.80877 84.1124,123.49089 C 80.38233,124.79439 79.05965,120.2708 78.63486,119.13435 C 75.95449,119.95772 74.66249,116.55129 74.52186,115.08581 C 70.80433,116.70031 69.49481,113.88522 69.3403,112.4385 L 71.64521,88.234699 L 71.6452,88.2347 z "
   style="fill:#ffffff;stroke:#0a0b0c;stroke-width:1.09675002" />
   <path
   id="_92691264"
   class="fil4 str1"
   d="M 74.0773,106.025 C 74.097094,109.0741 74.210572,112.1233 74.3882,115.17271 M 78.40285,105.6857 C 78.317352,110.19365 78.363573,114.71216 78.69862,119.2526 M 83.06075,104.8582 C 83.096503,111.31766 83.34968,117.7232 84.032001,124.0219"
   style="fill:none;stroke:#0a0b0c;stroke-width:1.09675002" />
   <path
   id="_76930480"
   class="fil4 str1"
   d="M 94.2495,75.8457 C 95.92971,76.186343 95.34936,78.2931 93.99166,78.14864 M 93.31224,81.8811 C 94.90768,82.508185 93.970312,84.4823 92.658314,84.10424 M 91.289214,87.0694 C 92.719144,88.014432 91.392122,89.7506 90.187484,89.10797 M 89.207009,90.66434 C 90.471749,91.82161 88.889062,93.32865 87.799879,92.50549 M 86.732769,93.62535 C 87.800919,94.96616 86.00205,96.20706 85.054839,95.22369 M 83.481889,95.990058 C 84.327019,97.481548 82.356219,98.425648 81.574519,97.306308 M 79.470039,97.373773 C 79.958152,99.017193 77.825279,99.493693 77.315499,98.227193 M 76.048789,98.586801 C 76.154599,100.29779 73.969389,100.28245 73.757559,98.933662 M 78.240429,91.625852 C 79.1181,93.640272 76.479389,94.579812 75.633019,93.048112 M 83.709889,88.266682 C 85.078889,89.985342 82.773251,91.575802 81.559289,90.315412 M 87.598419,83.423902 C 89.365579,84.729582 87.55023,86.862662 86.051379,85.959392 M 89.005139,77.256062 C 91.050029,78.059842 89.848507,80.590152 88.166953,80.105562"
   style="fill:none;stroke:#0a0b0c;stroke-width:1.09675002" />
   <path
   id="_76930408"
   class="fil0 str1"
   d="M 57.2151,51.0076 C 58.55757,52.35007 59.90003,55.35087 59.90003,57.32509 L 66.87538,57.860045 C 67.386707,55.087235 69.65959,53.094575 71.1059,52.173685 C 69.44756,50.752255 67.11291,50.805105 66.24425,52.621381 C 66.56914,51.804543 66.077815,48.409311 64.55088,48.015091 C 62.8143,48.332002 62.25582,51.010511 61.9188,52.568531 C 60.962057,49.068631 57.41199,50.284351 57.21509,51.007601 L 57.2151,51.0076 z "
   style="fill:#facf00;stroke:#0a0b0c;stroke-width:1.09675002" />
   <path
   id="_76930336"
   class="fil4 str1"
   d="M 90.222,144.191 C 91.81329,144.191 93.14653,145.61026 93.14653,147.20155 C 92.305442,145.2919 90.2821,145.04515 89.53387,145.05116"
   style="fill:none;stroke:#0a0b0c;stroke-width:1.09675002" />
   <path
   id="_76930264"
   class="fil4 str1"
   d="M 87.8549,149.609 C 89.44619,149.609 90.77943,151.02826 90.77943,152.61955 C 89.938342,150.7099 87.915,150.46315 87.16677,150.46916"
   style="fill:none;stroke:#0a0b0c;stroke-width:1.09675002" />
   <path
   id="_76930192"
   class="fil4 str1"
   d="M 28.2686,140.402 C 26.67731,140.402 25.34407,141.82126 25.34407,143.41255 C 26.185158,141.5029 28.2085,141.25615 28.95673,141.26216 M 29.257785,146.25107 C 27.666495,146.25107 26.333255,147.67033 26.333255,149.26162 C 27.174343,147.35197 29.197685,147.10522 29.945915,147.11123 M 44.267515,148.53049 C 45.858805,148.53049 47.192045,149.94975 47.192045,151.54104 C 46.350957,149.63139 44.327615,149.38464 43.579385,149.39065"
   style="fill:none;stroke:#0a0b0c;stroke-width:1.09675002" />
   <path
   id="_76930120"
   class="fil0 str1"
   d="M 44.8565,133.53 L 37.51242,140.75563 C 35.89937,142.34267 34.10506,140.00595 32.19852,139.08174 C 30.57168,138.29309 28.07619,138.28324 27.83411,139.74613 C 27.451807,142.05632 28.557367,142.12306 30.20887,142.31727 C 31.63911,142.48537 33.13537,142.89327 33.84039,143.24313 C 32.41896,143.24313 29.04269,143.84773 28.42265,145.13744 C 27.32538,147.42007 29.48147,148.09016 31.14935,147.51178 C 36.0796,145.80214 36.11929,144.85732 38.2645,146.82905 C 38.865262,147.3811 39.50592,148.24458 40.59221,149.16577 C 41.90234,150.27682 43.33507,150.71322 44.39348,150.39507 C 46.45993,149.77389 47.38071,147.21 42.95349,146.66178 C 39.77651,146.26838 39.41006,143.69859 40.65635,141.97185 C 42.11416,139.95204 46.11565,137.11062 47.14504,135.78929 L 44.85651,133.52998 L 44.8565,133.53 z "
   style="fill:#facf00;stroke:#0a0b0c;stroke-width:1.09675002" />
   <path
   id="_76930048"
   class="fil0 str1"
   d="M 75.4854,132.655 L 81.41457,143.0077 C 82.70252,145.25654 85.63524,143.20989 87.30001,142.42621 C 88.93555,141.65622 91.15434,142.46518 91.10004,143.94693 C 91.014335,146.28687 89.91758,146.13214 88.26049,145.99338 C 86.82548,145.87307 85.27792,145.97463 84.51736,146.17702 C 85.9103,146.46025 89.09847,147.72551 89.44896,149.11285 C 90.069413,151.56834 87.82295,151.88141 86.3039,150.9824 C 81.81326,148.32472 81.9626,147.64935 79.46752,149.15389 C 78.768928,149.57516 77.96867,150.37977 76.72082,151.06603 C 75.21565,151.89354 73.89681,152.03583 72.92307,151.51321 C 71.02192,150.49284 70.45608,148.02781 74.90578,147.71121 C 78.42931,147.46042 79.10873,145.30298 78.09136,143.57303 C 76.82869,141.42595 72.76295,136.34357 72.01751,134.84358 L 75.48539,132.65505 L 75.4854,132.655 z "
   style="fill:#facf00;stroke:#0a0b0c;stroke-width:1.09675002" />
   <path
   id="_76929976"
   class="fil3 str1"
   d="M 58.4211,57.8993 C 64.40789,54.5306 68.9235,57.669959 69.5271,62.56746 C 69.696022,63.93884 69.084689,64.50115 68.587042,66.04374 C 68.21334,67.20195 68.705184,69.83475 68.40216,71.074 C 67.2938,75.60537 66.67781,80.17197 69.132982,84.109 C 71.364312,87.68694 72.210682,88.16086 72.711332,92.94353 C 73.282766,98.40324 72.271512,105.19733 71.504312,109.80543 C 70.730586,114.45421 68.246492,118.5639 71.367827,122.90703 C 72.562197,124.569 74.689167,124.85523 76.186047,126.80706 C 77.529447,128.55867 78.182957,132.17268 78.182957,134.29084 C 75.893387,135.00073 73.663507,131.22402 72.826977,129.6918 C 75.356147,133.8049 75.940637,138.52602 71.982262,132.58213 C 72.882939,133.55317 73.701232,136.4177 73.494682,137.52036 C 68.903312,137.87862 64.303652,129.59148 63.975342,128.03439 C 64.555585,132.85666 68.029272,137.97614 68.941242,138.29159 C 70.297592,138.76063 70.619062,140.45877 68.832634,141.09176 C 67.230674,141.65946 64.347694,138.52248 64.069644,135.70956 C 65.773894,144.61757 67.998794,148.34546 69.896014,147.94046 C 72.766654,147.32768 73.557694,148.79461 73.166784,151.06076 C 72.723855,153.62859 68.485044,153.76518 67.006404,152.40385 C 64.089234,149.71861 64.154204,147.36053 62.995794,143.92727 C 63.080877,146.501 63.236845,149.31019 63.506914,151.8889 C 64.009536,156.68256 66.622854,158.34681 67.007024,159.23205 C 67.827904,161.12357 67.120813,163.76964 64.140734,163.55822 C 64.140734,165.03137 62.610694,166.69676 61.203144,166.69676 C 61.160136,168.07902 60.684563,169.41568 60.453253,170.2205 C 59.917676,172.0831 58.964763,172.32591 58.341823,170.58228 C 57.96439,169.52584 57.471303,167.78294 57.411403,165.15635 C 52.945633,164.79882 53.702473,159.81892 56.313513,155.75308 C 58.293323,152.66999 58.833043,148.82499 58.833043,147.68491 C 57.400723,150.94221 54.361373,153.42744 52.608513,153.64725 C 50.293863,153.93764 48.752523,152.66637 48.573553,150.7877 C 48.45966,149.59136 49.317537,148.54259 51.687323,148.61275 C 56.192263,148.74613 58.466183,141.36961 58.873463,137.24125 C 58.362654,138.94395 55.889133,140.93536 54.593513,141.21735 C 52.283943,141.72018 50.840743,139.1137 52.082163,138.26784 C 55.718243,135.79028 55.701553,131.75728 55.161943,127.66264 C 54.88234,134.89283 53.017563,138.44614 43.243243,137.79404 C 42.754508,134.86111 43.723169,128.81587 45.669503,126.28334 C 46.779313,124.83983 48.326043,124.1915 50.126873,122.9706 C 51.065687,122.33419 51.549963,121.68731 52.295813,120.72487 C 54.098203,118.39934 53.029744,109.61157 53.029744,106.52247 C 52.082121,107.707 52.628579,108.01676 52.628579,109.43819 C 50.660579,106.09405 49.405889,97.293494 50.604619,89.256794 C 51.756089,81.536524 54.708599,80.335104 57.670029,74.553294 C 58.446657,73.036824 58.427485,71.281904 58.816629,70.065144 C 59.875969,66.752604 58.170475,65.058204 55.082929,62.826564 C 56.455349,62.615877 58.899019,63.46536 59.881259,64.061874 C 61.029829,64.75943 61.785319,64.387801 60.452797,63.721542 C 57.136117,62.063202 55.269477,62.070352 51.478977,62.070352 C 51.048484,57.806252 56.353787,57.346952 58.421067,57.899322 L 58.4211,57.8993 z "
   style="fill:#ffffff;stroke:#0a0b0c;stroke-width:1.09675002" />
   <path
   id="_76929904"
   class="fil4 str1"
   d="M 60.8659,73.4206 C 60.865796,74.72866 59.16103,78.55242 57.07707,79.38801 M 61.62367,89.64071 C 61.846689,91.12132 61.855809,92.60203 61.718391,94.08295 M 66.075551,94.476031 C 66.075551,97.033491 66.588432,102.04603 65.647027,104.03776 C 65.357268,104.65065 64.678366,103.44695 64.110147,102.53539 C 63.165529,101.01996 62.946967,98.520641 62.855047,96.816701 M 57.552437,106.26174 C 57.818878,110.32779 57.63866,118.63244 55.412717,121.95844 C 54.939113,120.91651 54.424884,118.52113 54.424884,117.38448 M 65.864584,68.593581 C 65.864584,69.947031 65.526221,71.435831 64.984841,72.518591 M 64.296819,80.097921 C 64.296819,80.673086 64.742753,82.381791 65.195216,83.267031 C 65.639907,84.137344 66.466486,84.125426 66.511256,83.203918 M 70.588186,102.83592 C 70.507663,104.37954 70.289204,106.17747 69.112866,107.03162 M 70.466316,96.204018 C 70.345376,97.030597 70.336049,99.321718 69.112866,99.587648 M 66.135276,87.677248 C 66.135276,90.384148 69.518906,94.038468 69.518906,89.436738 M 68.57149,109.20404 C 68.939077,111.04415 67.736205,113.5697 66.812,114.34021 C 65.93008,115.07549 65.75639,110.69284 65.75639,109.47473 M 50.23219,127.60403 C 48.4727,128.55144 46.64554,131.39369 46.64554,133.55922 M 62.34554,108.11432 C 62.34554,112.03933 60.92442,116.43804 60.92442,119.82172 M 60.992092,138.02562 L 60.992092,145.99896 M 57.405442,165.09466 C 57.155064,162.25231 59.227832,158.86889 59.706312,156.56792 M 60.814562,162.42517 C 61.148572,163.48399 61.273036,165.65117 61.225364,166.58273 M 61.9252,157.35688 C 63.27865,158.43964 64.17985,161.75725 64.17985,163.51674 M 57.52131,91.438638 C 57.744536,92.470308 57.75293,93.502078 57.61541,94.533748 M 58.71548,122.63215 L 58.573399,125.04836 M 61.084539,127.21233 C 61.084539,128.47583 59.978979,129.81829 59.978979,130.68695 M 65.674459,118.62835 C 65.697983,118.94433 65.144893,122.26857 63.611539,123.89562 M 67.402029,121.44759 C 67.118177,123.24438 66.759399,124.06039 65.980599,125.39602 M 69.534189,124.05355 C 69.660414,125.05372 69.723423,126.05388 69.723631,127.05436"
   style="fill:none;stroke:#0a0b0c;stroke-width:1.09675002" />
   <path
   id="_76929832"
   class="fil2"
   d="M 66.0036,61.28 C 64.85213,59.72695 62.98518,59.19034 61.35741,59.46662 C 60.454246,59.619894 60.12946,60.282007 61.399589,60.359007 C 62.221712,60.408855 64.191369,59.849027 66.003599,61.279996 L 66.0036,61.28 z "
   style="fill:#0a0b0c" />
  </g>
  <path
   class="fil0 str1"
   d="M 155.525,54.6294 C 155.20415,52.95054 153.81961,49.89989 152.56482,48.6824 C 151.07001,47.23205 149.83305,48.79163 150.55371,50.21472 C 150.81746,50.73527 151.1437,51.33759 151.48465,51.96851 C 149.53406,52.838304 146.32081,54.91543 144.81916,56.07042 C 142.91966,57.53124 144.31882,58.54695 145.86213,58.0949 C 148.12362,57.432579 151.26443,55.41774 152.78722,54.46359 C 153.02412,54.951807 153.23191,55.415773 153.38736,55.82968 C 154.22741,58.06712 155.75901,55.854137 155.525,54.6294 L 155.525,54.6294 z "
   id="path31"
   style="fill:#facf00;stroke:#0a0b0c;stroke-width:1.09675002" />
  <path
   class="fil3 str1"
   d="M 158.914,79.1189 C 156.95761,74.89522 153.80166,72.39372 152.27183,70.62646 C 152.6276,66.97826 152.57226,63.12465 152.32986,59.17726 C 153.52921,56.6855 153.05727,54.81969 150.62219,53.14217 C 149.24438,52.193096 146.67749,52.483373 146.27529,54.25405 C 145.74262,56.59875 147.03524,56.80063 147.03524,58.85837 C 146.34349,62.24708 144.5211,66.64217 144.71479,70.83017 L 153.67617,87.25637 L 158.91401,79.11887 L 158.914,79.1189 z "
   id="path33"
   style="fill:#ffffff;stroke:#0a0b0c;stroke-width:1.09675002" />
  <path
   class="fil3 str1"
   d="M 145.183,118.769 C 139.39456,119.331 136.73885,114.45827 136.58962,114.25639 C 134.44565,114.58242 129.66184,114.42293 126.72818,111.22035 C 125.61184,111.1363 123.97661,110.50487 122.71643,111.38098 C 122.66254,111.41839 119.92393,114.29929 118.83598,115.74912 C 118.29937,116.46388 118.35978,117.07718 118.37201,117.81422 C 118.38341,118.52701 118.11967,119.60511 118.60457,120.15747 C 119.08657,120.70652 119.4811,121.39008 119.65303,121.76835 L 115.11451,126.34314 C 114.6323,125.54289 114.25404,124.05885 114.75666,122.58892 C 114.93066,122.08008 114.62619,120.88508 114.50794,120.29261 C 114.24171,118.96165 113.80189,117.84635 113.83826,116.62907 C 113.92915,113.58163 114.08719,114.20571 116.13042,112.97195 C 117.59331,112.08837 119.53467,109.5621 120.72728,107.73059 C 121.55003,106.4673 122.99384,105.74321 124.23278,105.8969 C 123.58507,105.42692 122.26572,103.5151 121.43758,101.77582 C 120.74635,100.32392 119.03028,100.0324 118.22256,102.69277 C 117.6532,104.56853 116.00035,107.30114 114.30408,109.56967 C 114.00614,110.7258 113.96551,111.97085 113.96551,112.99434 L 107.80513,115.1238 C 107.0085,111.20708 108.56072,109.26334 110.92429,107.36581 C 110.73102,106.20595 110.96367,104.86099 111.94684,103.91772 C 114.6954,101.28139 116.88445,97.56956 118.3661,95.38041 C 119.95242,93.03674 121.93357,94.10406 122.55548,95.95972 C 122.99333,97.26612 126.58868,101.01526 127.15929,100.75711 C 126.95327,97.07481 130.66282,91.48877 134.59871,90.05531 C 136.94725,89.200128 141.98714,84.7639 141.98714,82.26861 C 140.48601,82.482924 136.95699,83.63844 134.90173,83.92343 C 133.24235,84.153496 132.21037,83.995455 132.02767,82.58117 C 131.92425,81.78081 132.06747,81.16326 132.48729,80.69494 C 130.47038,81.200982 129.84029,80.617733 130.06569,78.40537 C 130.31472,75.9618 131.73844,76.41727 133.7483,75.34684 C 135.64583,74.33642 137.50314,72.57921 139.22408,71.26099 C 137.87239,66.37426 145.18849,66.54319 145.18849,70.80604 C 146.91471,70.099883 148.45335,70.758472 148.45335,72.76067 C 150.10506,72.76067 151.06045,73.70591 150.66271,75.51068 C 152.41753,76.242228 153.15903,77.5819 152.41971,79.80991 C 154.08385,80.86075 154.97458,84.43931 152.2427,84.81094 C 155.98573,84.81094 156.88008,87.70169 156.88008,90.50901 L 154.07286,101.11411 L 146.48286,106.8326 L 145.18299,118.769 L 145.183,118.769 z "
   id="path35"
   style="fill:#ffffff;stroke:#0a0b0c;stroke-width:1.09675002" />
  <path
   class="fil5 str1"
   d="M 130.913,92.5628 C 131.93089,95.00088 134.52162,99.04838 136.52319,101.79705 C 138.06328,101.32656 140.51307,101.64637 144.55944,103.16802 L 143.89028,105.85689 C 142.01721,106.36873 137.87944,105.27561 136.08016,103.1476 C 132.88266,103.12501 130.30768,100.53335 129.31643,94.35245 C 129.78931,93.69614 130.33483,93.11268 130.913,92.56281 L 130.913,92.5628 z "
   id="path37"
   style="fill:#0093dd;stroke:#0a0b0c;stroke-width:1.09675002" />
  <path
   class="fil5 str1"
   d="M 134.994,80.468 C 134.99846,84.4555 139.5235,93.4825 148.4453,93.9401 L 149.264,95.66062 C 139.6773,95.213339 133.4924,86.77665 134.994,80.46802 L 134.994,80.468 z "
   id="path39"
   style="fill:#0093dd;stroke:#0a0b0c;stroke-width:1.09675002" />
  <path
   class="fil3 str1"
   d="M 167.4,101.204 C 172.34486,104.1705 176.86255,109.07827 180.2037,111.7622 C 181.65405,112.92725 182.96594,112.6893 184.02186,111.70686 C 185.77648,110.07412 188.60691,109.29531 191.94494,112.13093 C 194.0031,113.87933 195.17685,117.03165 193.88464,120.17847 C 192.5828,123.34861 192.21272,125.58347 192.85919,127.92247 C 193.46617,130.1195 194.92035,133.74646 196.69601,134.99057 C 193.06149,134.99046 192.60374,133.54084 192.39875,131.66985 C 192.26506,132.87272 192.56228,133.72635 193.3642,134.52826 C 189.88927,134.52826 188.82123,132.82121 188.82123,130.01451 C 188.72962,130.3481 188.7177,132.91531 190.0069,133.7878 C 187.49379,134.04771 186.80318,131.9394 185.50123,130.45091 C 184.53682,129.34825 183.20917,130.84337 183.64682,126.7712 C 183.94963,123.95206 185.78768,120.34314 186.13775,119.63117 C 189.11959,113.56396 182.99631,111.66695 182.4113,116.99028 C 182.04786,120.29774 180.90965,123.7621 179.32676,126.69989 C 178.35613,128.50135 178.64578,130.67298 179.17369,132.55994 C 179.57983,134.01143 180.23179,136.95969 181.62731,137.90939 C 183.19487,138.97609 183.71552,140.36135 183.89439,142.0398 C 184.11648,144.12438 184.01316,146.29664 185.20214,147.82098 C 186.28687,149.21153 188.36337,150.76645 188.9774,152.9557 C 189.37131,154.36024 190.78166,155.54954 192.28558,156.50815 C 190.40059,158.48205 188.37912,160.45617 185.87037,162.43038 C 183.89595,160.79722 184.52065,158.85068 184.74698,156.98393 C 184.94523,155.3487 184.58386,153.7514 183.33104,152.49868 C 182.09086,151.2585 182.58872,149.54202 181.64513,147.87518 C 180.04016,145.04029 177.83733,141.87139 176.19733,138.31511 C 174.76916,135.21792 166.37123,123.52831 166.35755,123.22941 L 163.55095,124.16501 C 160.87794,128.30806 164.57132,134.34411 167.42673,136.59441 L 174.76542,142.37787 C 174.78542,145.06788 174.85869,148.8421 176.06198,149.83221 C 176.96442,150.57485 177.5915,151.45065 177.46486,153.00412 C 177.32983,154.66205 178.46699,155.39898 178.66545,156.38671 C 177.01695,157.85271 175.25529,159.3187 173.38025,160.78491 C 171.97685,159.64671 172.08048,157.54305 172.31759,155.97591 C 172.74042,153.18164 172.76228,152.10935 171.33504,149.44763 C 169.66717,146.3379 167.79752,143.2744 165.53147,140.5675 L 160.1729,134.16669 L 158.13195,128.74459 L 155.93285,111.46829 L 167.39995,101.20399 L 167.4,101.204 z "
   id="path41"
   style="fill:#ffffff;stroke:#0a0b0c;stroke-width:1.09675002" />
  <path
   class="fil4 str1"
   d="M 169.805,117.455 L 169.6881,120.43508 M 173.36947,119.67545 L 173.19412,122.77243 M 176.99228,122.30494 L 176.408,125.10978"
   id="path43"
   style="fill:none;stroke:#0a0b0c;stroke-width:1.09675002" />
  <path
   class="fil5 str1"
   d="M 164.483,110.147 C 167.48018,110.80953 167.56661,110.24721 167.94104,108.84879 C 168.48076,106.83271 168.57693,103.34835 168.81073,101.66596 L 171.26746,103.47944 C 171.04361,105.76383 171.09854,109.42551 170.98827,112.04194 C 170.81821,116.07898 174.9624,114.8132 175.00986,112.48487 L 175.12676,106.75405 L 178.40251,109.91238 C 178.47433,112.90117 178.19379,115.36795 178.25867,117.31864 C 178.31556,119.03025 178.32199,120.35479 181.79474,121.55144 L 180.44958,125.00191 C 173.9156,120.49894 169.65548,116.56087 165.65258,117.16505 L 164.48297,110.147 L 164.483,110.147 z "
   id="path45"
   style="fill:#0093dd;stroke:#0a0b0c;stroke-width:1.09675002" />
  <path
   class="fil5 str1"
   d="M 148.381,114.742 C 148.71045,129.6277 163.508,143.717 169.8318,147.2857 C 169.76237,146.38533 169.2584,144.99323 168.41503,143.57345 C 166.41781,140.21107 162.8608,136.0048 161.14453,132.85155 C 159.77253,130.33088 161.51191,131.00242 162.38139,132.24623 C 166.19427,137.70066 168.91651,142.87743 176.59469,143.95793 C 173.15158,140.61669 168.58549,135.32476 166.36679,130.52643 C 165.76157,129.21733 165.80313,126.96673 167.5736,128.93504 C 169.56004,131.14326 173.21281,138.76207 178.7062,142.52774 C 175.50227,135.79012 172.83061,130.00154 169.05452,124.47014 C 166.71624,121.04485 165.82271,113.95414 164.93997,101.69774 L 151.96977,104.81254 L 147.64722,110.38604 L 148.38105,114.74206 L 148.381,114.742 z "
   id="path47"
   style="fill:#0093dd;stroke:#0a0b0c;stroke-width:1.09675002" />
  <line
   class="fil4 str1"
   x1="184.64101"
   y1="158.61099"
   x2="188.07201"
   y2="155.59599"
   id="line49"
   style="fill:none;stroke:#0a0b0c;stroke-width:1.09675002" />
  <path
   class="fil3 str1"
   d="M 153.999,50.6434 C 165.5648,48.50565 177.6218,49.794125 192.0685,55.91419 C 192.67165,61.00715 192.13327,61.9358 190.1118,60.89159 C 182.84731,57.13851 174.8248,50.95295 154.9677,52.86571 L 153.99904,50.6434 L 153.999,50.6434 z "
   id="path51"
   style="fill:#ffffff;stroke:#0a0b0c;stroke-width:1.09675002" />
  <path
   class="fil5 str1"
   d="M 169.469,99.8414 C 166.84013,105.65616 157.6714,108.49851 153.2796,106.31714 L 165.3408,96.76546 L 169.46903,99.8414 L 169.469,99.8414 z "
   id="path53"
   style="fill:#0093dd;stroke:#0a0b0c;stroke-width:1.09675002" />
  <path
   class="fil6 str1"
   d="M 157.298,59.4473 C 156.07502,60.88615 157.56434,62.60086 156.86885,63.48599 C 156.46862,63.995555 156.02155,64.51932 155.74474,64.90701 C 155.22098,65.640319 154.63711,66.63292 155.89968,66.53892 C 156.20881,66.516017 156.64594,66.797692 156.49101,67.389024 C 156.02341,69.173694 154.81826,70.810584 157.49822,71.345844 C 159.53171,71.751983 159.06764,71.114949 159.23522,73.897094 L 164.76427,73.144405 L 165.69956,63.072605 L 157.29801,59.447305 L 157.298,59.4473 z "
   id="path55"
   style="fill:#f5c491;stroke:#0a0b0c;stroke-width:1.09675002" />
  <path
   class="fil3 str1"
   d="M 164.666,71.3087 C 163.49681,72.94559 161.06495,73.60034 159.10068,73.60034 L 159.14752,75.51776 L 163.12269,75.51776 L 167.93967,73.60034 L 167.51882,71.12164 L 164.666,71.308698 L 164.666,71.3087 z "
   id="path57"
   style="fill:#ffffff;stroke:#0a0b0c;stroke-width:1.09675002" />
  <path
   class="fil3 str1"
   d="M 167.566,72.5481 C 170.97409,73.64122 170.62101,76.89179 171.06217,80.16992 C 171.9044,86.42865 170.22274,87.28621 168.9809,91.37132 C 166.7674,98.65249 161.44365,105.95182 151.6254,106.91182 C 151.22641,109.12128 150.0337,109.89895 148.72729,110.52085 C 149.16856,113.75742 149.18732,118.5858 147.93066,121.65575 C 147.33021,123.12237 146.85318,124.34172 146.78852,125.52034 C 146.64136,128.19802 146.09356,129.03164 144.32619,128.50643 C 141.56913,127.6869 137.52733,124.61386 133.47269,124.12585 C 135.62401,121.13251 138.58596,121.89483 142.35842,122.33165 C 143.39341,119.65097 143.28293,117.10252 143.09173,114.66413 C 142.95732,112.94786 142.77596,111.41429 143.20023,109.70455 C 142.452,108.39504 142.63906,103.1571 144.50974,103.1571 C 146.4395,100.44201 149.6341,99.0468 152.04564,97.26637 C 156.13926,94.24411 154.41511,90.03784 154.62632,85.52097 C 154.86883,80.33754 157.16617,79.43407 159.28775,75.26347 C 165.52637,75.043767 167.06471,72.50682 167.56598,72.54807 L 167.566,72.5481 z "
   id="path59"
   style="fill:#ffffff;stroke:#0a0b0c;stroke-width:1.09675002" />
  <path
   class="fil3 str1"
   d="M 162.65,88.2999 C 160.50697,87.922571 155.18042,87.940811 154.01227,89.75439 C 151.34796,90.441168 148.50022,91.36827 148.22383,93.1346 C 147.71675,96.3748 151.01519,95.98535 152.64649,94.132485 C 153.50623,93.155845 154.90642,93.152217 155.11203,93.212636 C 158.71111,94.270836 162.01453,94.441936 165.19733,94.252286 L 162.65002,88.299896 L 162.65,88.2999 z "
   id="path61"
   style="fill:#ffffff;stroke:#0a0b0c;stroke-width:1.09675002" />
  <path
   class="fil4 str1"
   d="M 154.051,89.7814 C 154.34356,90.327237 154.63943,92.33762 154.57518,93.1955"
   id="path63"
   style="fill:none;stroke:#0a0b0c;stroke-width:1.09675002" />
  <path
   class="fil4 str1"
   d="M 166.237,97.7875 C 161.94813,98.489305 156.95747,97.7875 153.4483,96.07195"
   id="path65"
   style="fill:none;stroke:#0a0b0c;stroke-width:1.09675002" />
  <path
   class="fil4 str1"
   d="M 142.367,122.293 C 142.61655,124.94612 145.24231,126.22848 146.73276,125.81228"
   id="path67"
   style="fill:none;stroke:#0a0b0c;stroke-width:1.09675002" />
  <path
   class="fil4 str1"
   d="M 136.219,122.16 C 137.02092,122.56096 136.68908,124.25671 136.68908,124.92494"
   id="path69"
   style="fill:none;stroke:#0a0b0c;stroke-width:1.09675002" />
  <path
   class="fil4 str1"
   d="M 140.229,122.16 C 140.59213,123.58537 140.52539,125.01106 140.02847,126.43674"
   id="path71"
   style="fill:none;stroke:#0a0b0c;stroke-width:1.09675002" />
  <path
   class="fil4 str1"
   d="M 144.513,103.24 C 145.30953,105.59797 145.09024,107.12159 145.09324,108.13978 C 144.87509,108.79992 144.00146,109.60018 143.29054,109.7261"
   id="path73"
   style="fill:none;stroke:#0a0b0c;stroke-width:1.09675002" />
  <path
   class="fil4 str1"
   d="M 148.745,110.549 C 147.6953,109.26384 145.40697,108.29922 145.09483,108.17673"
   id="path75"
   style="fill:none;stroke:#0a0b0c;stroke-width:1.09675002" />
  <path
   class="fil4 str1"
   d="M 160.079,98.0605 C 157.21489,100.61568 154.72147,102.07411 151.58687,103.83205 C 150.17466,104.62412 148.6584,105.83767 148.01784,106.8028"
   id="path77"
   style="fill:none;stroke:#0a0b0c;stroke-width:1.09675002" />
  <path
   class="fil5 str1"
   d="M 158.518,79.5013 C 163.43063,77.04498 169.0452,76.22618 174.4257,76.22618 C 175.61634,82.7957 176.1429,92.75138 174.18403,98.51178 C 172.68031,102.93371 170.1501,103.79179 166.62419,99.508318 C 162.89111,94.973118 159.41774,84.568718 158.51799,79.501318 L 158.518,79.5013 z "
   id="path79"
   style="fill:#0093dd;stroke:#0a0b0c;stroke-width:1.09675002" />
  <polygon
   class="fil0 str1"
   points="164.954,86.4924 164.306,83.6542 166.643,83.1208 165.844,79.6205 168.682,78.9726 169.481,82.4731 171.684,81.9702 172.331,84.8085 170.129,85.3113 171.005,89.1504 173.367,88.6112 174.015,91.4495 171.653,91.9886 172.661,96.4076 169.823,97.0554 168.815,92.6364 166.637,93.1333 165.99,90.2951 168.167,89.7982 167.291,85.9591 164.954,86.4924 "
   id="polygon81"
   style="fill:#facf00;stroke:#0a0b0c;stroke-width:1.09675002" />
  <polygon
   class="fil3 str1"
   points="163.966,64.4762 156.573,59.1165 158.791,56.3442 163.966,64.4762 "
   id="polygon83"
   style="fill:#ffffff;stroke:#0a0b0c;stroke-width:1.09675002" />
  <path
   class="fil3 str1"
   d="M 159.187,56.8543 C 163.49514,56.8543 169.5569,55.90647 169.516,61.68569 C 169.5016,63.67296 169.3078,64.32658 167.7504,66.6888 C 167.99591,68.69587 168.00295,70.60738 167.77113,72.42335 C 161.8861,72.1538 163.35822,68.08992 163.98116,64.47509 L 159.18698,56.85431 L 159.187,56.8543 z "
   id="path85"
   style="fill:#ffffff;stroke:#0a0b0c;stroke-width:1.09675002" />
  <line
   class="fil4 str1"
   x1="162.33501"
   y1="56.8465"
   x2="163.756"
   y2="64.059898"
   id="line87"
   style="fill:none;stroke:#0a0b0c;stroke-width:1.09675002" />
  <line
   class="fil4 str1"
   x1="169.002"
   y1="59.469601"
   x2="163.592"
   y2="63.2948"
   id="line89"
   style="fill:none;stroke:#0a0b0c;stroke-width:1.09675002" />
  <path
   class="fil4 str1"
   d="M 167.714,66.7542 C 166.49113,66.7542 164.72003,65.35277 163.93729,64.57013"
   id="path91"
   style="fill:none;stroke:#0a0b0c;stroke-width:1.09675002" />
  <path
   class="fil3 str1"
   d="M 169.096,58.9273 C 169.68163,58.516601 170.60791,57.958225 171.65719,57.86734 C 174.7607,57.598515 177.89478,58.024552 179.66991,58.852271 C 180.67163,59.319243 180.78697,60.292571 181.61563,60.907631 C 182.67974,61.697317 182.92462,61.667471 182.82949,63.139171 C 182.76886,64.077363 182.62067,65.039291 182.62067,65.431951 C 178.47326,61.549741 176.22318,60.054941 171.25547,60.096081 C 170.01446,60.106341 170.10431,59.004921 169.09596,58.927301 L 169.096,58.9273 z "
   id="path93"
   style="fill:#ffffff;stroke:#0a0b0c;stroke-width:1.09675002" />
  <line
   class="fil4 str1"
   x1="140.496"
   y1="122.16"
   x2="143.10201"
   y2="116.079"
   id="line95"
   style="fill:none;stroke:#0a0b0c;stroke-width:1.09675002" />
  <ellipse
   class="fil2"
   transform="matrix(1.15018,0.48197,-0.48197,1.15018,159.179,63.3437)"
   rx="0.67568898"
   ry="0.43919799"
   id="ellipse97"
   cx="0"
   cy="0"
   sodipodi:cx="0"
   sodipodi:cy="0"
   sodipodi:rx="0.67568898"
   sodipodi:ry="0.43919799"
   style="fill:#0a0b0c" />
  <line
   class="fil4 str1"
   x1="157.508"
   y1="68.718903"
   x2="156.224"
   y2="68.532303"
   id="line99"
   style="fill:none;stroke:#0a0b0c;stroke-width:1.09675002" />
  <path
   class="fil4 str1"
   d="M 158.506,71.5091 C 159.02696,71.60237 160.92159,71.239032 161.31052,70.935593"
   id="path101"
   style="fill:none;stroke:#0a0b0c;stroke-width:1.09675002" />
  <path
   class="fil4 str1"
   d="M 142.827,111.524 C 141.54848,112.73568 138.80178,113.98664 136.60776,114.28054"
   id="path103"
   style="fill:none;stroke:#0a0b0c;stroke-width:1.09675002" />
  <path
   class="fil4 str1"
   d="M 124.112,105.793 C 124.5112,105.84098 125.73676,105.88378 126.53277,106.50247 C 128.24313,107.83229 131.09968,107.44595 133.19214,107.28335 C 130.38492,107.28335 127.1098,102.97687 127.1098,100.32562 C 126.33296,103.47929 126.44199,105.30582 126.64956,106.55409"
   id="path105"
   style="fill:none;stroke:#0a0b0c;stroke-width:1.09675002" />
  <line
   class="fil4 str1"
   x1="114.321"
   y1="109.626"
   x2="110.925"
   y2="109.626"
   id="line107"
   style="fill:none;stroke:#0a0b0c;stroke-width:1.09675002" />
  <line
   class="fil4 str1"
   x1="125.148"
   y1="99.135201"
   x2="124.68"
   y2="102.69"
   id="line109"
   style="fill:none;stroke:#0a0b0c;stroke-width:1.09675002" />
  <path
   class="fil4 str1"
   d="M 132.628,75.7973 C 133.92383,77.00867 134.91964,78.67188 134.82358,80.61542 C 138.05186,79.22642 141.00624,77.945 144.23473,76.1623 C 142.67515,73.82288 142.06351,72.13221 139.33422,71.27443"
   id="path111"
   style="fill:none;stroke:#0a0b0c;stroke-width:1.09675002" />
  <path
   class="fil0 str1"
   d="M 134.935,79.7551 C 135.37731,79.7551 135.73806,80.115848 135.73806,80.558258 C 135.73806,81.000565 135.37731,81.361313 134.935,81.361313 C 134.49259,81.361313 134.13184,81.000565 134.13184,80.558258 C 134.13184,80.115847 134.49259,79.7551 134.935,79.7551 z "
   id="path113"
   style="fill:#facf00;stroke:#0a0b0c;stroke-width:1.09675002" />
  <path
   class="fil4 str1"
   d="M 144.23,76.1872 C 146.65637,76.905586 149.82371,75.937236 150.50355,75.424355"
   id="path115"
   style="fill:none;stroke:#0a0b0c;stroke-width:1.09675002" />
  <path
   class="fil4 str1"
   d="M 149.16,77.1743 C 149.90056,80.15345 149.95342,83.51573 149.75786,87.01646"
   id="path117"
   style="fill:none;stroke:#0a0b0c;stroke-width:1.09675002" />
  <path
   class="fil0 str1"
   d="M 143.829,74.9984 C 144.44572,74.9984 144.94876,75.501333 144.94876,76.11826 C 144.94876,76.735086 144.44572,77.23802 143.829,77.23802 C 143.21207,77.23802 142.70903,76.735087 142.70903,76.11826 C 142.70903,75.501331 143.21207,74.9984 143.829,74.9984 z "
   id="path119"
   style="fill:#facf00;stroke:#0a0b0c;stroke-width:1.09675002" />
  <path
   class="fil0 str1"
   d="M 136.166,101.118 C 136.91641,101.118 137.52836,101.73006 137.52836,102.48057 C 137.52836,103.23098 136.91641,103.84293 136.166,103.84293 C 135.41549,103.84293 134.80343,103.23098 134.80343,102.48057 C 134.80343,101.73006 135.41549,101.118 136.166,101.118 z "
   id="path121"
   style="fill:#facf00;stroke:#0a0b0c;stroke-width:1.09675002" />
  <ellipse
   class="fil2"
   transform="matrix(1.39117,-0.54976,0.629485,1.59836,139.4,74.6185)"
   rx="0.67568898"
   ry="0.43919799"
   id="ellipse123"
   cx="0"
   cy="0"
   sodipodi:cx="0"
   sodipodi:cy="0"
   sodipodi:rx="0.67568898"
   sodipodi:ry="0.43919799"
   style="fill:#0a0b0c" />
  <circle
   class="fil2"
   cx="132.153"
   cy="78.2267"
   r="0.61012101"
   id="circle125"
   sodipodi:cx="132.153"
   sodipodi:cy="78.2267"
   sodipodi:rx="0.61012101"
   sodipodi:ry="0.61012101"
   style="fill:#0a0b0c" />
  <line
   class="fil4 str1"
   x1="152.175"
   y1="59.163101"
   x2="146.899"
   y2="58.943298"
   id="line127"
   style="fill:none;stroke:#0a0b0c;stroke-width:1.09675002" />
  <path
   class="fil4 str1"
   d="M 152.395,62.4604 C 149.19864,63.221794 146.95249,62.612326 146.18529,62.548281"
   id="path129"
   style="fill:none;stroke:#0a0b0c;stroke-width:1.09675002" />
  <path
   class="fil4 str1"
   d="M 146.716,53.9137 L 147.72176,55.99704 M 148.04499,52.87198 L 148.94298,55.53007 M 149.6255,53.08754 L 150.30793,55.38644 M 152.03208,54.739872 L 151.16995,56.464022"
   id="path131"
   style="fill:none;stroke:#0a0b0c;stroke-width:1.09675002" />
 </g>
</svg>