<?xml version="1.0" encoding="UTF-8" standalone="no"?>
<!-- Created with Inkscape (http://www.inkscape.org/) -->
<svg
   xmlns:dc="http://purl.org/dc/elements/1.1/"
   xmlns:cc="http://web.resource.org/cc/"
   xmlns:rdf="http://www.w3.org/1999/02/22-rdf-syntax-ns#"
   xmlns:svg="http://www.w3.org/2000/svg"
   xmlns="http://www.w3.org/2000/svg"
   xmlns:sodipodi="http://sodipodi.sourceforge.net/DTD/sodipodi-0.dtd"
   xmlns:inkscape="http://www.inkscape.org/namespaces/inkscape"
   width="900"
   height="600"
   id="svg2"
   sodipodi:version="0.32"
   inkscape:version="0.44"
   version="1.0"
   sodipodi:docbase="C:\flags"
   sodipodi:docname="Flag of Ankole.svg">
  <defs
     id="defs4" />
  <sodipodi:namedview
     id="base"
     pagecolor="#ffffff"
     bordercolor="#666666"
     borderopacity="1.0"
     inkscape:pageopacity="0.0"
     inkscape:pageshadow="2"
     inkscape:zoom="0.82166667"
     inkscape:cx="450"
     inkscape:cy="300"
     inkscape:document-units="px"
     inkscape:current-layer="layer1"
     inkscape:window-width="847"
     inkscape:window-height="695"
     inkscape:window-x="374"
     inkscape:window-y="162"
     showguides="true"
     inkscape:guide-bbox="true" />
  <metadata
     id="metadata7">
    <rdf:RDF>
      <cc:Work
         rdf:about="">
        <dc:format>image/svg+xml</dc:format>
        <dc:type
           rdf:resource="http://purl.org/dc/dcmitype/StillImage" />
      </cc:Work>
    </rdf:RDF>
  </metadata>
  <g
     inkscape:label="Layer 1"
     inkscape:groupmode="layer"
     id="layer1">
    <rect
       style="opacity:1;color:#000000;fill:#0c6600;fill-opacity:1;fill-rule:nonzero;stroke:none;stroke-width:3;stroke-linecap:butt;stroke-linejoin:miter;marker:none;marker-start:none;marker-mid:none;marker-end:none;stroke-miterlimit:4;stroke-dasharray:none;stroke-dashoffset:0;stroke-opacity:1;visibility:visible;display:inline;overflow:visible"
       id="rect3251"
       width="900"
       height="600"
       x="0"
       y="2.2888184e-005" />
    <g
       id="g2922"
       transform="matrix(0.461307,0,0,0.461307,191.9162,345.6588)">
      <path
         sodipodi:nodetypes="csccccccccc"
         id="path2926"
         d="M 366.67464,359.24385 C 360.11498,354.57041 353.61077,349.88465 354.92225,343.46206 C 350.14701,345.24484 349.86397,349.72293 349.44493,354.11942 C 339.71158,350.21937 335.61796,341.61954 331.08168,333.38859 L 331.41746,342.7905 C 323.77858,337.57361 317.07925,330.88027 315.63568,315.92789 C 311.89496,333.85677 305.21686,306.3858 303.88329,289.73684 C 302.62048,302.49396 296.80063,297.4725 295.8245,286.04323 C 295.04911,276.96436 290.46812,271.54054 288.1015,261.86688 L 308.92003,232.65379 C 316.3801,251.48212 328.77076,269.5648 344.51299,273.28349 L 365.66729,296.45249 L 384.13534,329.69498 L 366.67464,359.24385 z "
         style="opacity:1;color:black;fill:white;fill-opacity:1;fill-rule:evenodd;stroke:black;stroke-width:2;stroke-linecap:butt;stroke-linejoin:miter;marker:none;marker-start:none;marker-mid:none;marker-end:none;stroke-miterlimit:4;stroke-dasharray:none;stroke-dashoffset:0;stroke-opacity:1;visibility:visible;display:inline;overflow:visible" />
      <path
         sodipodi:nodetypes="cscssscccccssccc"
         id="path2866"
         d="M 641.86261,332.81955 C 591.42386,355.01542 666.52085,383.34928 666.52085,402.62133 C 666.52085,413.1205 653.17104,422.71439 644.08749,436.2406 C 616.50471,428.45731 618.77607,450.77266 628.68632,450.77266 C 633.3468,450.77266 634.06959,450.13059 638.81735,450.13059 C 645.83059,450.13059 649.93355,452.86788 658.42614,452.86788 C 665.41381,452.86788 670.54821,450.88948 668.5755,438.59732 C 679.78246,455.88804 681.94382,451.80556 682.26401,425.14897 C 686.90507,429.87251 686.12012,434.48353 692.59043,439.79807 L 692.35028,412.42105 C 694.76211,418.16395 699.47945,419.29584 705.07819,418.66493 C 690.7955,399.95897 701.7161,392.95678 701.7161,386.48493 C 701.7161,375.73525 683.03126,384.43846 683.03126,360.45113 C 683.03126,351.74986 687.15896,346.00407 693.50218,341.64622 L 674.69727,328.39731 L 641.86261,332.81955 z "
         style="opacity:1;color:black;fill:white;fill-opacity:1;fill-rule:evenodd;stroke:black;stroke-width:2;stroke-linecap:butt;stroke-linejoin:miter;marker:none;marker-start:none;marker-mid:none;marker-end:none;stroke-miterlimit:4;stroke-dasharray:none;stroke-dashoffset:0;stroke-opacity:1;visibility:visible;display:inline;overflow:visible" />
      <path
         sodipodi:nodetypes="cssccccccccccscsscccccccccssccsssssscccsccsssscc"
         id="path2847"
         d="M 405.62933,320.81976 C 363.55103,390.62283 394.41272,425.76344 349.81472,432.92453 C 313.77979,438.71067 315.7666,453.70059 343.03663,459.20592 C 349.86401,460.58424 359.66913,458.25458 362.12512,453.17774 C 366.69636,468.63145 389.5242,463.67247 392.00929,456.9004 C 376.45544,420.9771 406.56643,443.67834 419.60669,444.391 C 410.37707,438.32729 416.77483,420.70975 410.64808,415.13771 C 417.31902,420.57826 426.24156,424.11588 438.33833,424.97074 C 431.12676,412.99662 428.7645,403.94996 425.71484,394.48833 C 432.86709,401.43449 440.82663,403.99461 450.14738,399.15901 C 438.77463,392.61 439.55995,379.53281 439.55995,372.36399 C 444.35272,377.76681 455.4445,378.60649 465.43789,380.24186 C 451.77747,373.0049 453.09137,363.68184 453.1534,354.53319 C 486.05732,360.34224 568.40553,328.82855 594.4223,328.82855 C 611.17982,328.82855 629.4201,334.60634 642.95498,329.52933 C 679.77817,343.71645 683.4939,365.1974 735.1694,376.25657 C 756.49374,380.82023 775.10979,396.99428 757.13851,424.60912 C 743.96637,444.84957 741.26951,438.14783 726.93099,438.14783 C 688.28097,438.14783 714.87016,475.59943 741.76157,451.90236 C 732.05521,471.37777 759.04523,462.33995 760.6402,456.2932 C 775.59545,472.34237 784.26323,465.31486 772.17924,444.27213 C 776.97947,449.08237 785.39336,452.07469 797.78873,453.06404 C 786.80844,445.03977 789.44829,437.01548 789.24376,428.9912 C 798.26344,435.43952 807.28314,435.14413 816.30282,430.13753 C 797.67502,424.44393 812.56672,415.73805 797.31401,406.06468 C 807.24534,409.24416 817.49628,409.46746 824.90082,408.07076 C 788.34497,387.07419 802.97547,382.72173 802.97547,375.74054 C 802.97547,359.43957 765.9829,378.385 762.48823,335.19717 C 759.22619,294.50572 734.139,276.88242 712.51971,267.93664 M 727.72341,275.34257 C 739.71409,270.29632 759.99678,274.58519 774.14431,274.58519 C 883.03895,274.58519 884.99169,204.14754 764.42101,204.14754 C 734.66722,204.14754 740.86138,209.74267 699.25551,209.74267 C 666.10446,209.74267 636.76411,203.92788 636.76411,187.44191 C 636.76411,176.36533 663.26918,172.09982 679.65586,172.09982 C 717.96124,172.09982 694.09303,194.82888 743.77128,194.82888 C 769.03018,194.82888 779.76971,189.04697 791.74457,181.76962 C 775.22641,181.76962 762.01712,173.67465 742.06168,170.96142 C 819.2476,189.96074 815.18888,162.32262 838.29434,155.5597 C 745.67496,168.97991 767.52822,153.66827 706.63584,153.66827 C 599.47824,153.66827 584.98801,209.08703 675.87639,224.42958 C 670.61392,243.33459 706.74775,234.40557 737.20207,224.07607 C 730.28244,242.78231 748.59399,236.33892 764.77135,228.88738 C 773.92709,224.67008 784.99654,221.52843 795.1335,221.52843 C 837.86127,221.52843 860.03042,261.82763 771.34709,261.82763 C 717.92054,261.82763 724.18074,252.5001 650.95351,252.5001 C 614.20256,252.5001 455.60008,249.12098 425.11858,242.97485 L 407.26153,321.19562"
         style="opacity:1;color:black;fill:white;fill-opacity:1;fill-rule:nonzero;stroke:black;stroke-width:2.56961584;stroke-linecap:butt;stroke-linejoin:miter;marker:none;marker-start:none;marker-mid:none;marker-end:none;stroke-miterlimit:4;stroke-dasharray:none;stroke-dashoffset:0;stroke-opacity:1;visibility:visible;display:inline;overflow:visible" />
      <path
         sodipodi:nodetypes="cccscccccccccccccccccc"
         id="path1933"
         d="M 441.3015,162.9726 C 448.85847,156.98072 447.9911,172.52629 441.72891,172.37564 C 450.65887,173.04932 444.15421,187.64574 435.95887,183.27461 C 435.60734,189.46742 441.84707,207.21018 447.92637,199.72992 C 454.22567,191.97896 462.33135,214.42878 449.42231,221.31416 C 455.45649,230.79643 461.47837,240.28869 458.61164,257.00295 C 456.902,255.84956 455.19235,254.57761 453.48271,252.30143 C 457.71899,265.41132 457.65123,279.58118 449.4223,280.93794 C 442.82219,294.40138 441.54288,307.86481 441.72891,321.32825 C 437.40171,321.40336 433.74156,320.31112 431.68476,316.41303 C 429.92683,324.16399 428.0163,331.89315 432.27362,340.50343 C 420.86038,346.4043 411.69374,316.77318 406.12537,350.43315 C 395.1626,349.66 400.40812,333.22452 388.25188,350.43315 C 383.30354,342.99759 371.3816,336.18549 371.70235,324.61589 C 363.83111,323.2383 360.08609,315.67137 357.46976,306.4114 C 347.70387,300.49978 345.69773,289.65012 345.5541,277.61523 C 338.56189,272.25963 337.32257,264.98641 340.92024,256.10085 C 330.49456,244.44533 335.67803,235.01969 343.56816,225.98071 C 333.692,216.60265 333.25958,207.22458 344.56113,197.84652 C 356.73669,217.08424 364.42056,201.25581 364.42056,184.6069 C 350.44372,184.03784 350.48055,160.81226 361.44165,154.81775 C 389.41498,135.8819 413.32817,142.66033 441.3015,162.9726 z "
         style="fill:white;fill-opacity:1;fill-rule:evenodd;stroke:black;stroke-width:2;stroke-linecap:butt;stroke-linejoin:miter;stroke-miterlimit:4;stroke-dasharray:none;stroke-opacity:1" />
      <path
         sodipodi:nodetypes="ccc"
         id="path2824"
         d="M 364.1288,177.1069 C 365.62031,173.45841 365.16846,170.08755 361.76773,167.13795 C 359.96686,169.42578 359.02806,172.05843 364.1288,177.1069 z "
         style="fill:white;fill-opacity:1;fill-rule:evenodd;stroke:black;stroke-width:2;stroke-linecap:butt;stroke-linejoin:miter;stroke-miterlimit:4;stroke-dasharray:none;stroke-opacity:1" />
      <path
         sodipodi:nodetypes="cc"
         id="path2808"
         d="M 436.85109,221.49395 C 436.85109,235.34505 447.55643,245.01104 453.90533,252.81972"
         style="opacity:1;color:black;fill:white;fill-opacity:1;fill-rule:evenodd;stroke:black;stroke-width:2;stroke-linecap:butt;stroke-linejoin:miter;marker:none;marker-start:none;marker-mid:none;marker-end:none;stroke-miterlimit:4;stroke-dasharray:none;stroke-dashoffset:0;stroke-opacity:1;visibility:visible;display:inline;overflow:visible" />
      <path
         sodipodi:nodetypes="cc"
         id="path2810"
         d="M 434.62733,242.00311 C 438.57291,258.56131 443.97268,270.27221 449.76708,280.6677"
         style="opacity:1;color:black;fill:white;fill-opacity:1;fill-rule:evenodd;stroke:black;stroke-width:2;stroke-linecap:butt;stroke-linejoin:miter;marker:none;marker-start:none;marker-mid:none;marker-end:none;stroke-miterlimit:4;stroke-dasharray:none;stroke-dashoffset:0;stroke-opacity:1;visibility:visible;display:inline;overflow:visible" />
      <path
         sodipodi:nodetypes="cc"
         id="path2812"
         d="M 431.8323,317.00311 C 427.601,313.8264 437.42236,294.56522 430.43478,277.40683"
         style="opacity:1;color:black;fill:white;fill-opacity:1;fill-rule:evenodd;stroke:black;stroke-width:2;stroke-linecap:butt;stroke-linejoin:miter;marker:none;marker-start:none;marker-mid:none;marker-end:none;stroke-miterlimit:4;stroke-dasharray:none;stroke-dashoffset:0;stroke-opacity:1;visibility:visible;display:inline;overflow:visible" />
      <path
         sodipodi:nodetypes="cc"
         id="path2814"
         d="M 415.52795,291.38199 C 415.60194,305.81085 417.37703,320.72573 413.43168,334.00621"
         style="opacity:1;color:black;fill:white;fill-opacity:1;fill-rule:evenodd;stroke:black;stroke-width:2;stroke-linecap:butt;stroke-linejoin:miter;marker:none;marker-start:none;marker-mid:none;marker-end:none;stroke-miterlimit:4;stroke-dasharray:none;stroke-dashoffset:0;stroke-opacity:1;visibility:visible;display:inline;overflow:visible" />
      <path
         sodipodi:nodetypes="cc"
         id="path2816"
         d="M 397.02435,291.70072 C 393.78155,300.24763 388.87395,325.48137 395.80337,342.37169"
         style="opacity:1;color:black;fill:white;fill-opacity:1;fill-rule:evenodd;stroke:black;stroke-width:2;stroke-linecap:butt;stroke-linejoin:miter;marker:none;marker-start:none;marker-mid:none;marker-end:none;stroke-miterlimit:4;stroke-dasharray:none;stroke-dashoffset:0;stroke-opacity:1;visibility:visible;display:inline;overflow:visible" />
      <path
         sodipodi:nodetypes="cc"
         id="path2818"
         d="M 382.983,289.05525 C 377.69612,297.66855 371.24776,306.4245 371.58712,324.87087"
         style="opacity:1;color:black;fill:white;fill-opacity:1;fill-rule:evenodd;stroke:black;stroke-width:2;stroke-linecap:butt;stroke-linejoin:miter;marker:none;marker-start:none;marker-mid:none;marker-end:none;stroke-miterlimit:4;stroke-dasharray:none;stroke-dashoffset:0;stroke-opacity:1;visibility:visible;display:inline;overflow:visible" />
      <path
         sodipodi:nodetypes="cc"
         id="path2820"
         d="M 367.11017,279.08385 C 358.55843,285.63423 357.94873,295.8909 357.34227,306.14907"
         style="opacity:1;color:black;fill:white;fill-opacity:1;fill-rule:evenodd;stroke:black;stroke-width:2;stroke-linecap:butt;stroke-linejoin:miter;marker:none;marker-start:none;marker-mid:none;marker-end:none;stroke-miterlimit:4;stroke-dasharray:none;stroke-dashoffset:0;stroke-opacity:1;visibility:visible;display:inline;overflow:visible" />
      <path
         sodipodi:nodetypes="csc"
         id="path2822"
         d="M 369.14515,235.12831 C 369.14515,262.75076 358.55274,251.25942 348.60647,273.44355 C 347.99233,274.81333 347.74077,278.06539 345.53939,278.12642"
         style="opacity:1;color:black;fill:white;fill-opacity:1;fill-rule:evenodd;stroke:black;stroke-width:2;stroke-linecap:butt;stroke-linejoin:miter;marker:none;marker-start:none;marker-mid:none;marker-end:none;stroke-miterlimit:4;stroke-dasharray:none;stroke-dashoffset:0;stroke-opacity:1;visibility:visible;display:inline;overflow:visible" />
      <path
         id="path2826"
         d="M 396.96263,173.88976 L 399.86477,179.82023"
         style="opacity:1;color:black;fill:white;fill-opacity:1;fill-rule:evenodd;stroke:black;stroke-width:2;stroke-linecap:butt;stroke-linejoin:miter;marker:none;marker-start:none;marker-mid:none;marker-end:none;stroke-miterlimit:4;stroke-dasharray:none;stroke-dashoffset:0;stroke-opacity:1;visibility:visible;display:inline;overflow:visible" />
      <path
         sodipodi:nodetypes="cc"
         id="path2828"
         d="M 407.3094,174.2683 C 406.90907,176.53488 406.101,178.55682 404.02872,179.82023"
         style="opacity:1;color:black;fill:white;fill-opacity:1;fill-rule:evenodd;stroke:black;stroke-width:2;stroke-linecap:butt;stroke-linejoin:miter;marker:none;marker-start:none;marker-mid:none;marker-end:none;stroke-miterlimit:4;stroke-dasharray:none;stroke-dashoffset:0;stroke-opacity:1;visibility:visible;display:inline;overflow:visible" />
      <path
         sodipodi:nodetypes="ccc"
         id="path2830"
         d="M 380.55922,181.08203 C 385.97369,184.96911 386.74791,189.76871 395.78369,192.25996 C 399.06224,183.17606 392.68854,182.46199 380.55922,181.08203 z "
         style="opacity:1;color:black;fill:white;fill-opacity:1;fill-rule:evenodd;stroke:black;stroke-width:2;stroke-linecap:butt;stroke-linejoin:miter;marker:none;marker-start:none;marker-mid:none;marker-end:none;stroke-miterlimit:4;stroke-dasharray:none;stroke-dashoffset:0;stroke-opacity:1;visibility:visible;display:inline;overflow:visible" />
      <path
         sodipodi:nodetypes="cc"
         id="path2832"
         d="M 395.55604,192.7853 C 394.89204,198.12444 389.96508,200.62421 394.18667,204.67771"
         style="opacity:1;color:black;fill:white;fill-opacity:1;fill-rule:evenodd;stroke:black;stroke-width:2;stroke-linecap:butt;stroke-linejoin:miter;marker:none;marker-start:none;marker-mid:none;marker-end:none;stroke-miterlimit:4;stroke-dasharray:none;stroke-dashoffset:0;stroke-opacity:1;visibility:visible;display:inline;overflow:visible" />
      <path
         style="opacity:1;color:black;fill:white;fill-opacity:1;fill-rule:evenodd;stroke:black;stroke-width:2;stroke-linecap:butt;stroke-linejoin:miter;marker:none;marker-start:none;marker-mid:none;marker-end:none;stroke-miterlimit:4;stroke-dasharray:none;stroke-dashoffset:0;stroke-opacity:1;visibility:visible;display:inline;overflow:visible"
         d="M 423.78405,181.08203 C 420.92739,185.54462 421.83218,192.03618 406.87592,193.19532 C 403.10382,172.92431 415.35635,192.16846 423.78405,181.08203 z "
         id="path2834"
         sodipodi:nodetypes="ccc" />
      <path
         sodipodi:nodetypes="cc"
         id="path2836"
         d="M 427.41358,179.00256 C 420.86885,179.20145 426.37002,181.34633 421.0797,184.34934"
         style="opacity:1;color:black;fill:white;fill-opacity:1;fill-rule:evenodd;stroke:black;stroke-width:2;stroke-linecap:butt;stroke-linejoin:miter;marker:none;marker-start:none;marker-mid:none;marker-end:none;stroke-miterlimit:4;stroke-dasharray:none;stroke-dashoffset:0;stroke-opacity:1;visibility:visible;display:inline;overflow:visible" />
      <path
         sodipodi:nodetypes="csssccsc"
         id="path2838"
         d="M 370.33049,202.10933 C 373.92563,204.83947 380.91684,208.75891 378.463,212.95268 C 370.37158,226.78144 385.61389,240.47193 395.37634,227.48715 C 398.09042,223.87722 399.42096,217.45953 403.0652,214.11916 C 408.13235,209.47453 416.50736,204.27897 409.03522,195.33224 M 428.01108,204.66957 C 426.82622,206.29638 421.84559,207.39073 422.66607,210.94344 C 427.90621,233.63327 412.12639,243.93145 400.75211,217.01894"
         style="opacity:1;color:black;fill:white;fill-opacity:1;fill-rule:evenodd;stroke:black;stroke-width:2;stroke-linecap:butt;stroke-linejoin:miter;marker:none;marker-start:none;marker-mid:none;marker-end:none;stroke-miterlimit:4;stroke-dasharray:none;stroke-dashoffset:0;stroke-opacity:1;visibility:visible;display:inline;overflow:visible" />
      <path
         sodipodi:nodetypes="csc"
         id="path2845"
         d="M 383.7707,232.07304 C 383.7707,251.32172 363.43454,264.4647 399.61445,264.4647 C 422.42245,264.4647 425.56502,264.76289 418.27486,232.42512"
         style="opacity:1;color:black;fill:white;fill-opacity:1;fill-rule:evenodd;stroke:black;stroke-width:2;stroke-linecap:butt;stroke-linejoin:miter;marker:none;marker-start:none;marker-mid:none;marker-end:none;stroke-miterlimit:4;stroke-dasharray:none;stroke-dashoffset:0;stroke-opacity:1;visibility:visible;display:inline;overflow:visible" />
      <path
         sodipodi:nodetypes="csccscc"
         id="path2840"
         d="M 400.78125,217.125 C 398.68156,220.45771 397.41056,224.79255 395.375,227.5 C 393.23946,230.34042 390.85837,231.90346 388.5,232.46875 C 394.13999,247.04368 400.51887,261.64395 387.40625,275.28125 C 393.72054,279.03318 401.96935,280.14481 409.15625,267.6875 C 412.84933,261.28617 411.95235,247.52469 411.78125,232.03125 C 408.19269,230.09123 404.28135,225.37303 400.78125,217.125 z "
         style="opacity:1;color:black;fill:white;fill-opacity:1;fill-rule:evenodd;stroke:black;stroke-width:2;stroke-linecap:butt;stroke-linejoin:miter;marker:none;marker-start:none;marker-mid:none;marker-end:none;stroke-miterlimit:4;stroke-dasharray:none;stroke-dashoffset:0;stroke-opacity:1;visibility:visible;display:inline;overflow:visible" />
      <path
         sodipodi:nodetypes="ccc"
         id="path2855"
         d="M 713.46908,445.90462 C 698.51084,446.71774 697.65386,453.10818 705.28015,462.85387 C 736.69026,456.88985 710.74216,452.04833 713.46908,445.90462 z "
         style="opacity:1;color:black;fill:white;fill-opacity:1;fill-rule:evenodd;stroke:black;stroke-width:2.56961584;stroke-linecap:butt;stroke-linejoin:miter;marker:none;marker-start:none;marker-mid:none;marker-end:none;stroke-miterlimit:4;stroke-dasharray:none;stroke-dashoffset:0;stroke-opacity:1;visibility:visible;display:inline;overflow:visible" />
      <path
         sodipodi:nodetypes="ccc"
         id="path2849"
         d="M 329.23647,446.38182 C 335.44957,454.18499 343.31673,455.28685 322.73209,465.32105 C 321.29111,457.34223 324.05686,451.30498 329.23647,446.38182 z "
         style="opacity:1;color:black;fill:white;fill-opacity:1;fill-rule:evenodd;stroke:black;stroke-width:2;stroke-linecap:butt;stroke-linejoin:miter;marker:none;marker-start:none;marker-mid:none;marker-end:none;stroke-miterlimit:4;stroke-dasharray:none;stroke-dashoffset:0;stroke-opacity:1;visibility:visible;display:inline;overflow:visible" />
      <path
         sodipodi:nodetypes="ccc"
         id="path2851"
         d="M 340.81248,464.20985 C 342.28654,459.54895 341.96484,454.80729 350.91503,453.06733 C 361.53988,459.25075 357.11925,462.77907 340.81248,464.20985 z "
         style="opacity:1;color:black;fill:white;fill-opacity:1;fill-rule:evenodd;stroke:black;stroke-width:2;stroke-linecap:butt;stroke-linejoin:miter;marker:none;marker-start:none;marker-mid:none;marker-end:none;stroke-miterlimit:4;stroke-dasharray:none;stroke-dashoffset:0;stroke-opacity:1;visibility:visible;display:inline;overflow:visible" />
      <path
         sodipodi:nodetypes="cc"
         id="path2853"
         d="M 364.59709,457.14449 C 365.64274,454.42242 362.99759,453.54575 361.15479,452.2679"
         style="opacity:1;color:black;fill:white;fill-opacity:1;fill-rule:evenodd;stroke:black;stroke-width:2;stroke-linecap:butt;stroke-linejoin:miter;marker:none;marker-start:none;marker-mid:none;marker-end:none;stroke-miterlimit:4;stroke-dasharray:none;stroke-dashoffset:0;stroke-opacity:1;visibility:visible;display:inline;overflow:visible" />
      <path
         sodipodi:nodetypes="cccc"
         id="path2857"
         d="M 739.00652,455.10593 C 734.01809,460.30127 734.80194,467.43776 744.41493,475.14105 C 743.50761,467.05628 748.98153,464.10787 753.75675,460.59704 C 748.9133,457.29825 745.16105,456.03027 739.00652,455.10593 z "
         style="opacity:1;color:black;fill:white;fill-opacity:1;fill-rule:evenodd;stroke:black;stroke-width:2.56961584;stroke-linecap:butt;stroke-linejoin:miter;marker:none;marker-start:none;marker-mid:none;marker-end:none;stroke-miterlimit:4;stroke-dasharray:none;stroke-dashoffset:0;stroke-opacity:1;visibility:visible;display:inline;overflow:visible" />
      <path
         sodipodi:nodetypes="cccc"
         id="path2859"
         d="M 765.80278,460.59704 C 764.94269,468.20701 761.58549,474.89736 771.94873,480.24888 C 771.94873,472.20955 776.86547,470.69307 776.86547,464.01043 C 773.83929,462.63308 771.8908,460.86537 765.80278,460.59704 z "
         style="opacity:1;color:black;fill:white;fill-opacity:1;fill-rule:evenodd;stroke:black;stroke-width:2.56961584;stroke-linecap:butt;stroke-linejoin:miter;marker:none;marker-start:none;marker-mid:none;marker-end:none;stroke-miterlimit:4;stroke-dasharray:none;stroke-dashoffset:0;stroke-opacity:1;visibility:visible;display:inline;overflow:visible" />
      <path
         sodipodi:nodetypes="cc"
         id="path2864"
         d="M 397.31545,364.04733 C 393.96053,383.98073 386.55832,402.02672 377.67344,416.01162"
         style="opacity:1;color:black;fill:white;fill-opacity:1;fill-rule:evenodd;stroke:black;stroke-width:2;stroke-linecap:butt;stroke-linejoin:miter;marker:none;marker-start:none;marker-mid:none;marker-end:none;stroke-miterlimit:4;stroke-dasharray:none;stroke-dashoffset:0;stroke-opacity:1;visibility:visible;display:inline;overflow:visible" />
      <path
         sodipodi:nodetypes="cccc"
         id="path2870"
         d="M 377.35872,458.35555 C 367.9083,465.09146 368.73277,470.28372 369.11843,475.96425 C 375.72472,472.79724 381.20068,468.50829 385.15855,462.71247 C 383.43882,460.61528 380.48733,459.42053 377.35872,458.35555 z "
         style="opacity:1;color:black;fill:white;fill-opacity:1;fill-rule:evenodd;stroke:black;stroke-width:2.2476182;stroke-linecap:butt;stroke-linejoin:miter;marker:none;marker-start:none;marker-mid:none;marker-end:none;stroke-miterlimit:4;stroke-dasharray:none;stroke-dashoffset:0;stroke-opacity:1;visibility:visible;display:inline;overflow:visible" />
      <path
         sodipodi:nodetypes="cc"
         id="path2872"
         d="M 671.45729,428.03075 C 675.58073,425.38911 676.71717,422.74747 677.70117,420.10583"
         style="opacity:1;color:black;fill:white;fill-opacity:1;fill-rule:evenodd;stroke:black;stroke-width:2;stroke-linecap:butt;stroke-linejoin:miter;marker:none;marker-start:none;marker-mid:none;marker-end:none;stroke-miterlimit:4;stroke-dasharray:none;stroke-dashoffset:0;stroke-opacity:1;visibility:visible;display:inline;overflow:visible" />
      <path
         sodipodi:nodetypes="ccc"
         id="path2874"
         d="M 682.98446,412.90135 C 685.70548,411.48624 687.22491,408.46903 688.02759,404.49613 L 692.83057,413.38165"
         style="opacity:1;color:black;fill:white;fill-opacity:1;fill-rule:evenodd;stroke:black;stroke-width:2;stroke-linecap:butt;stroke-linejoin:miter;marker:none;marker-start:none;marker-mid:none;marker-end:none;stroke-miterlimit:4;stroke-dasharray:none;stroke-dashoffset:0;stroke-opacity:1;visibility:visible;display:inline;overflow:visible" />
      <path
         sodipodi:nodetypes="ccsccc"
         id="path2918"
         d="M 268.33625,232.38849 C 264.39257,217.96749 281.43958,211.33834 288.3012,219.01747 C 308.65758,215.52512 316.31951,230.34072 305.70185,242.27938 C 299.60905,249.13022 310.4437,262.91961 291.23184,261.32851 C 285.37966,280.75419 260.51539,264.55073 268.15309,250.88812 C 262.24256,249.27973 261.03492,234.42691 268.33625,232.38849 z "
         style="opacity:1;color:black;fill:white;fill-opacity:1;fill-rule:evenodd;stroke:black;stroke-width:2;stroke-linecap:butt;stroke-linejoin:miter;marker:none;marker-start:none;marker-mid:none;marker-end:none;stroke-miterlimit:4;stroke-dasharray:none;stroke-dashoffset:0;stroke-opacity:1;visibility:visible;display:inline;overflow:visible" />
      <path
         sodipodi:nodetypes="cc"
         id="path2920"
         d="M 280.24196,225.97773 C 282.87201,235.23929 291.46349,233.65986 294.16247,229.64102"
         style="opacity:1;color:black;fill:white;fill-opacity:1;fill-rule:evenodd;stroke:black;stroke-width:2;stroke-linecap:butt;stroke-linejoin:miter;marker:none;marker-start:none;marker-mid:none;marker-end:none;stroke-miterlimit:4;stroke-dasharray:none;stroke-dashoffset:0;stroke-opacity:1;visibility:visible;display:inline;overflow:visible" />
      <path
         sodipodi:nodetypes="cc"
         id="path2922"
         d="M 280.05879,240.6309 C 281.91911,244.84249 289.11747,247.30143 291.9645,242.64571"
         style="opacity:1;color:black;fill:white;fill-opacity:1;fill-rule:evenodd;stroke:black;stroke-width:2;stroke-linecap:butt;stroke-linejoin:miter;marker:none;marker-start:none;marker-mid:none;marker-end:none;stroke-miterlimit:4;stroke-dasharray:none;stroke-dashoffset:0;stroke-opacity:1;visibility:visible;display:inline;overflow:visible" />
      <path
         sodipodi:nodetypes="cc"
         id="path2924"
         d="M 282.43993,256.01673 C 282.90328,260.37672 287.13262,260.97071 291.415,261.51167"
         style="opacity:1;color:black;fill:white;fill-opacity:1;fill-rule:evenodd;stroke:black;stroke-width:2;stroke-linecap:butt;stroke-linejoin:miter;marker:none;marker-start:none;marker-mid:none;marker-end:none;stroke-miterlimit:4;stroke-dasharray:none;stroke-dashoffset:0;stroke-opacity:1;visibility:visible;display:inline;overflow:visible" />
      <path
         sodipodi:nodetypes="cc"
         id="path2928"
         d="M 314.62833,289.40106 C 322.94812,301.04152 325.13226,316.03981 339.14046,329.35919"
         style="opacity:1;color:black;fill:white;fill-opacity:1;fill-rule:evenodd;stroke:black;stroke-width:2;stroke-linecap:butt;stroke-linejoin:miter;marker:none;marker-start:none;marker-mid:none;marker-end:none;stroke-miterlimit:4;stroke-dasharray:none;stroke-dashoffset:0;stroke-opacity:1;visibility:visible;display:inline;overflow:visible" />
    </g>
    <g
       id="g3905"
       transform="translate(11.5166,20)">
      <g
         transform="matrix(0.836984,-0.547228,0.547228,0.836984,-118.1894,236.322)"
         id="g3864">
        <path
           style="fill:white;fill-opacity:1;fill-rule:evenodd;stroke:black;stroke-width:1px;stroke-linecap:butt;stroke-linejoin:miter;stroke-opacity:1"
           d="M 305.05976,289.17671 C 305.05976,289.17671 287.79537,366.4881 340.13244,366.73696 C 392.46712,366.98581 371.43514,288.74463 371.43514,288.74463 C 361.80263,276.9075 354.67403,276.97649 338.21506,276.10707 C 321.75608,275.23764 313.32084,276.1341 305.05976,289.17671 z "
           id="path2961"
           sodipodi:nodetypes="czczc" />
        <path
           style="fill:black;fill-opacity:1;fill-rule:evenodd;stroke:none;stroke-width:1px;stroke-linecap:butt;stroke-linejoin:miter;stroke-opacity:1"
           d="M 375.49696,306.69542 C 350.25859,302.0144 326.51744,302.5828 302.42382,308.48645 L 302.30913,329.93675 C 329.37548,322.41883 351.80696,323.25031 375.09636,328.0232 L 375.49696,306.69542 z "
           id="path3848"
           sodipodi:nodetypes="ccccc" />
        <path
           sodipodi:type="arc"
           style="opacity:1;fill:red;fill-opacity:1;stroke:black;stroke-width:0.73369014;stroke-linejoin:miter;stroke-miterlimit:4;stroke-dasharray:none;stroke-opacity:1"
           id="path3850"
           sodipodi:cx="299.09689"
           sodipodi:cy="300.90311"
           sodipodi:rx="8.3685141"
           sodipodi:ry="5.6785426"
           d="M 299.55359,306.57319 A 8.3685141,5.6785426 0 1 1 298.85073,295.22702 L 299.09689,300.90311 z"
           transform="matrix(0.488555,1.203468,-1.219233,0.799067,532.3939,-316.6578)"
           sodipodi:start="1.5161958"
           sodipodi:end="4.6829692" />
        <path
           sodipodi:type="arc"
           style="opacity:1;fill:white;fill-opacity:1;stroke:black;stroke-width:0.91674489;stroke-linejoin:miter;stroke-miterlimit:4;stroke-dasharray:none;stroke-opacity:1"
           id="path3852"
           sodipodi:cx="315.98889"
           sodipodi:cy="282.15146"
           sodipodi:rx="5.6689882"
           sodipodi:ry="10.383156"
           d="M 310.37281,283.56664 A 5.6689882,10.383156 0 1 1 321.62515,281.03734 L 315.98889,282.15146 z"
           transform="matrix(1.248343,0.107519,0.154736,1.028401,-111.9977,-46.53776)"
           sodipodi:start="3.0048708"
           sodipodi:end="6.175678" />
        <path
           sodipodi:type="arc"
           style="opacity:1;fill:black;fill-opacity:1;stroke:black;stroke-width:0.8785634;stroke-linejoin:miter;stroke-miterlimit:4;stroke-dasharray:none;stroke-opacity:1"
           id="path3854"
           sodipodi:cx="330.86624"
           sodipodi:cy="276.26248"
           sodipodi:rx="4.8041468"
           sodipodi:ry="11.162282"
           d="M 326.20625,273.54858 A 4.8041468,11.162282 0 0 1 335.55036,278.74207"
           sodipodi:start="3.3871851"
           sodipodi:end="6.507194"
           transform="matrix(1.277538,-0.530065,0.11026,0.96835,-113.6042,185.3563)"
           sodipodi:open="true" />
        <path
           sodipodi:type="arc"
           style="opacity:1;fill:white;fill-opacity:1;stroke:black;stroke-width:0.96993899;stroke-linejoin:miter;stroke-miterlimit:4;stroke-dasharray:none;stroke-opacity:1"
           id="path3860"
           sodipodi:cx="315.98889"
           sodipodi:cy="282.15146"
           sodipodi:rx="5.6689882"
           sodipodi:ry="10.383156"
           d="M 310.37281,283.56664 A 5.6689882,10.383156 0 1 1 321.62515,281.03734 L 315.98889,282.15146 z"
           transform="matrix(-1.149106,0.102839,-0.142435,0.983628,755.3641,-32.31215)"
           sodipodi:start="3.0048708"
           sodipodi:end="6.175678" />
        <path
           sodipodi:type="arc"
           style="opacity:1;fill:red;fill-opacity:1;stroke:black;stroke-width:0.73369014;stroke-linejoin:miter;stroke-miterlimit:4;stroke-dasharray:none;stroke-opacity:1"
           id="path3862"
           sodipodi:cx="299.09689"
           sodipodi:cy="300.90311"
           sodipodi:rx="8.3685141"
           sodipodi:ry="5.6785426"
           d="M 299.55359,306.57319 A 8.3685141,5.6785426 0 1 1 298.85073,295.22702 L 299.09689,300.90311 z"
           transform="matrix(-0.488555,1.203468,1.219233,0.799067,144.0594,-317.275)"
           sodipodi:start="1.5161958"
           sodipodi:end="4.6829692" />
      </g>
      <g
         transform="matrix(-0.836984,-0.547228,-0.547228,0.836984,995.1562,236.322)"
         id="g3889">
        <path
           style="fill:white;fill-opacity:1;fill-rule:evenodd;stroke:black;stroke-width:1px;stroke-linecap:butt;stroke-linejoin:miter;stroke-opacity:1"
           d="M 305.05976,289.17671 C 305.05976,289.17671 287.79537,366.4881 340.13244,366.73696 C 392.46712,366.98581 371.43514,288.74463 371.43514,288.74463 C 361.80263,276.9075 354.67403,276.97649 338.21506,276.10707 C 321.75608,275.23764 313.32084,276.1341 305.05976,289.17671 z "
           id="path3891"
           sodipodi:nodetypes="czczc" />
        <path
           style="fill:black;fill-opacity:1;fill-rule:evenodd;stroke:none;stroke-width:1px;stroke-linecap:butt;stroke-linejoin:miter;stroke-opacity:1"
           d="M 375.49696,306.69542 C 350.25859,302.0144 326.51744,302.5828 302.42382,308.48645 L 302.30913,329.93675 C 329.37548,322.41883 351.80696,323.25031 375.09636,328.0232 L 375.49696,306.69542 z "
           id="path3893"
           sodipodi:nodetypes="ccccc" />
        <path
           sodipodi:type="arc"
           style="opacity:1;fill:red;fill-opacity:1;stroke:black;stroke-width:0.73369014;stroke-linejoin:miter;stroke-miterlimit:4;stroke-dasharray:none;stroke-opacity:1"
           id="path3895"
           sodipodi:cx="299.09689"
           sodipodi:cy="300.90311"
           sodipodi:rx="8.3685141"
           sodipodi:ry="5.6785426"
           d="M 299.55359,306.57319 A 8.3685141,5.6785426 0 1 1 298.85073,295.22702 L 299.09689,300.90311 z"
           transform="matrix(0.488555,1.203468,-1.219233,0.799067,532.3939,-316.6578)"
           sodipodi:start="1.5161958"
           sodipodi:end="4.6829692" />
        <path
           sodipodi:type="arc"
           style="opacity:1;fill:white;fill-opacity:1;stroke:black;stroke-width:0.91674489;stroke-linejoin:miter;stroke-miterlimit:4;stroke-dasharray:none;stroke-opacity:1"
           id="path3897"
           sodipodi:cx="315.98889"
           sodipodi:cy="282.15146"
           sodipodi:rx="5.6689882"
           sodipodi:ry="10.383156"
           d="M 310.37281,283.56664 A 5.6689882,10.383156 0 1 1 321.62515,281.03734 L 315.98889,282.15146 z"
           transform="matrix(1.248343,0.107519,0.154736,1.028401,-111.9977,-46.53776)"
           sodipodi:start="3.0048708"
           sodipodi:end="6.175678" />
        <path
           sodipodi:type="arc"
           style="opacity:1;fill:black;fill-opacity:1;stroke:black;stroke-width:0.8785634;stroke-linejoin:miter;stroke-miterlimit:4;stroke-dasharray:none;stroke-opacity:1"
           id="path3899"
           sodipodi:cx="330.86624"
           sodipodi:cy="276.26248"
           sodipodi:rx="4.8041468"
           sodipodi:ry="11.162282"
           d="M 326.20625,273.54858 A 4.8041468,11.162282 0 0 1 335.55036,278.74207"
           sodipodi:start="3.3871851"
           sodipodi:end="6.507194"
           transform="matrix(1.277538,-0.530065,0.11026,0.96835,-113.6042,185.3563)"
           sodipodi:open="true" />
        <path
           sodipodi:type="arc"
           style="opacity:1;fill:white;fill-opacity:1;stroke:black;stroke-width:0.96993899;stroke-linejoin:miter;stroke-miterlimit:4;stroke-dasharray:none;stroke-opacity:1"
           id="path3901"
           sodipodi:cx="315.98889"
           sodipodi:cy="282.15146"
           sodipodi:rx="5.6689882"
           sodipodi:ry="10.383156"
           d="M 310.37281,283.56664 A 5.6689882,10.383156 0 1 1 321.62515,281.03734 L 315.98889,282.15146 z"
           transform="matrix(-1.149106,0.102839,-0.142435,0.983628,755.3641,-32.31215)"
           sodipodi:start="3.0048708"
           sodipodi:end="6.175678" />
        <path
           sodipodi:type="arc"
           style="opacity:1;fill:red;fill-opacity:1;stroke:black;stroke-width:0.73369014;stroke-linejoin:miter;stroke-miterlimit:4;stroke-dasharray:none;stroke-opacity:1"
           id="path3903"
           sodipodi:cx="299.09689"
           sodipodi:cy="300.90311"
           sodipodi:rx="8.3685141"
           sodipodi:ry="5.6785426"
           d="M 299.55359,306.57319 A 8.3685141,5.6785426 0 1 1 298.85073,295.22702 L 299.09689,300.90311 z"
           transform="matrix(-0.488555,1.203468,1.219233,0.799067,144.0594,-317.275)"
           sodipodi:start="1.5161958"
           sodipodi:end="4.6829692" />
      </g>
    </g>
    <path
       style="fill:white;fill-opacity:1;fill-rule:evenodd;stroke:black;stroke-width:1.11726367px;stroke-linecap:butt;stroke-linejoin:miter;stroke-opacity:1"
       d="M 235.44949,312.4927 L 537.61201,75.67156 C 537.61201,75.67156 542.02357,51.740738 556.4097,42.304619 C 570.79583,32.8685 595.15654,37.927095 595.15654,37.927095 C 595.15654,37.927095 593.85833,62.620028 581.64156,74.519691 C 569.42479,86.419367 545.60267,86.06402 545.60267,86.06402 L 243.56257,322.78923 L 235.44949,312.4927 z "
       id="path3927"
       sodipodi:nodetypes="cczczccc" />
    <path
       style="fill:white;fill-opacity:1;fill-rule:evenodd;stroke:black;stroke-width:1.11726367px;stroke-linecap:butt;stroke-linejoin:miter;stroke-opacity:1"
       d="M 649.7902,312.4927 L 347.62768,75.67156 C 347.62768,75.67156 343.21612,51.740738 328.82999,42.304619 C 314.44386,32.8685 290.08315,37.927095 290.08315,37.927095 C 290.08315,37.927095 291.38136,62.620028 303.59813,74.519691 C 315.8149,86.419367 339.63702,86.06402 339.63702,86.06402 L 641.67712,322.78923 L 649.7902,312.4927 z "
       id="path3929"
       sodipodi:nodetypes="cczczccc" />
  </g>
</svg>
