<?xml version="1.0" encoding="UTF-8" standalone="no"?>
<svg
   xmlns:dc="http://purl.org/dc/elements/1.1/"
   xmlns:cc="http://creativecommons.org/ns#"
   xmlns:rdf="http://www.w3.org/1999/02/22-rdf-syntax-ns#"
   xmlns:svg="http://www.w3.org/2000/svg"
   xmlns="http://www.w3.org/2000/svg"
   xmlns:sodipodi="http://sodipodi.sourceforge.net/DTD/sodipodi-0.dtd"
   xmlns:inkscape="http://www.inkscape.org/namespaces/inkscape"
   version="1.1"
   id="Flag_of_the_Tajik_SSR"
   width="1200"
   height="600"
   viewBox="0 0 1200 600"
   style="overflow: visible;"
   xml:space="preserve"
   inkscape:version="0.48.4 r9939"
   sodipodi:docname="Flag_of_Transcaucasian_SFSR.svg"><metadata
   id="metadata31"><rdf:RDF><cc:Work
       rdf:about=""><dc:format>image/svg+xml</dc:format><dc:type
         rdf:resource="http://purl.org/dc/dcmitype/StillImage" /></cc:Work></rdf:RDF></metadata><defs
   id="defs29" /><sodipodi:namedview
   pagecolor="#ffffff"
   bordercolor="#666666"
   borderopacity="1"
   objecttolerance="10"
   gridtolerance="10"
   guidetolerance="10"
   inkscape:pageopacity="0"
   inkscape:pageshadow="2"
   inkscape:window-width="1600"
   inkscape:window-height="848"
   id="namedview27"
   showgrid="false"
   inkscape:zoom="0.61666666"
   inkscape:cx="117.52011"
   inkscape:cy="180.95983"
   inkscape:window-x="-8"
   inkscape:window-y="-8"
   inkscape:window-maximized="1"
   inkscape:current-layer="layer1" />
<path
   style="fill:#de0000"
   d="M1200 0 l0 600 l-1200 0 l0 -600 l1200 0 z"
   id="path3" />











<g
   inkscape:groupmode="layer"
   id="layer1"
   inkscape:label="Taso"
   style="display:inline"><g
     id="g3028"
     transform="matrix(1.2423507,0,0,1.2423507,-734.21713,-125.33701)"
     style="fill:#ffd700;fill-opacity:1;stroke:none"><path
       sodipodi:nodetypes="ccccccccc"
       inkscape:connector-curvature="0"
       id="path3002"
       d="m 777.97298,256.11487 -11.75676,11.24999 7.29729,7.2973 5.87838,-5.27027 29.49325,31.92567 3.85135,-3.44594 -29.89866,-31.52027 6.08109,-5.87838 z"
       style="fill:#ffd700;fill-opacity:1;stroke:none" /><path
       sodipodi:nodetypes="csccccsc"
       inkscape:connector-curvature="0"
       id="path3004"
       d="m 789.52703,241.52027 c 18.75419,15.1876 20.97196,29.55988 16.90862,38.79315 -6.7008,15.22646 -26.16907,19.31462 -38.3951,2.5582 l -11.85091,9.85568 2.83784,3.64864 8.89432,-8.08053 c 14.07834,17.03978 34.23776,11.17326 39.84794,3.71033 10.11008,-13.44891 7.52396,-38.06318 -18.24271,-50.48547 z"
       style="fill:#ffd700;fill-opacity:1;stroke:none" /><path
       sodipodi:nodetypes="ccccccccccccccccccscccc"
       inkscape:connector-curvature="0"
       id="path3006"
       d="m 700.60905,408.22117 8.88661,5.44664 c 1.37507,-3.76387 4.76952,-6.11895 9.17328,-3.43998 l 21.49987,13.47325 c 5.99663,3.67265 1.93112,5.87393 1.14665,8.59995 -3.02449,6.12462 -7.42255,1.96239 -11.17993,0 l -11.75326,-6.87996 c -2.77862,-1.62376 -7.50513,5.24174 -4.4433,7.02329 l 15.9099,10.31994 c 3.53662,2.89026 5.5546,2.68438 3.15331,7.30995 -3.88283,8.76984 -7.77075,3.86507 -13.18658,0.86 l -21.92988,-12.18326 c -1.54334,-0.54859 -2.53947,-2.46148 0.43001,-5.58996 -2.86665,-1.86333 -2.87938,-1.53405 -8.59995,-5.01665 -9.00939,11.49176 -4.32846,14.30889 1.14666,17.6299 l 34.68645,19.49321 c 5.66846,2.74492 8.18953,5.05287 16.33991,-7.30996 5.483,-10.10281 4.82613,-11.73687 -2.43666,-15.4799 1.25001,-2.24664 0.9662,-3.09417 2.14774,-2.26532 7.93557,5.56683 9.79276,-1.99962 12.32885,-5.76129 6.34531,-10.60675 0.28693,-14.09445 -6.87997,-18.20323 l -25.51317,-14.61991 c -10.59056,-5.48371 -16.65595,-2.96133 -20.92654,6.59329 z"
       style="fill:#ffd700;fill-opacity:1;stroke:none" /><path
       sodipodi:nodetypes="ccccccccccccccccccccc"
       inkscape:connector-curvature="0"
       id="path3008"
       d="m 796.41892,421.21622 39.12163,0 c 5.39307,-0.21036 7.97702,1.99651 7.14527,9.42567 l 0,9.22297 -10.79392,0 0,-5.67567 c 0.21323,-3.75746 -1.7955,-4.51527 -4.25676,-4.66216 l -21.89189,0 c -6.21652,-0.36747 -5.46058,2.82548 -5.57433,5.57432 l 0,23.61487 c -0.17377,4.88175 2.89405,4.69627 4.71284,4.71283 l 23.36149,0 c 3.47419,0.3602 3.20597,-1.38894 3.06588,-3.06588 l 0,-6.91722 11.37669,0 0,11.55405 c -0.35753,4.56627 2.46131,10.07911 -7.44933,8.81757 l -35.77703,0 c -8.9326,0.34814 -11.52425,-2.4572 -11.30067,-11.30068 l 0,-32.78716 c -0.77159,-6.75447 2.98641,-8.47606 8.26013,-8.51351 z"
       style="fill:#ffd700;fill-opacity:1;stroke:none" /><path
       inkscape:connector-curvature="0"
       id="path3012"
       d="m 894.86887,372.79078 8.0934,7.67846 -16.51838,17.41101 c -5.51415,5.6119 -7.25597,9.39373 -2.06717,13.8477 l 11.42597,10.84019 c 6.26134,6.96423 9.14239,5.32337 14.78363,-1.00784 l 16.90552,-17.81908 8.11607,7.69998 8.17316,-8.61482 -8.11607,-7.69998 17.74438,-18.70326 c 7.22695,-7.64364 5.25768,-8.59377 -1.63105,-14.94407 l -9.54432,-9.05499 c -5.77265,-5.74136 -7.82997,-5.29293 -14.15004,1.56592 l -16.94854,17.86442 -8.0934,-7.67847 -8.17316,8.61483 z m 2.79066,27.93324 c 0.42872,-0.47339 0.91183,-0.97128 1.41948,-1.49619 l 11.20586,-11.81141 9.90704,9.39913 -11.5069,12.12873 c -4.2548,4.64033 -6.16133,6.07184 -8.51787,3.07563 l -4.60212,-4.36618 c -1.90362,-1.50152 -0.9074,-3.615 2.09451,-6.92971 z m 20.79849,-21.92242 11.52846,-12.15143 c 4.72717,-5.06239 5.95838,-5.7006 8.24574,-3.33367 l 3.87667,3.67792 c 2.81484,2.53227 3.75866,2.74744 -1.61314,8.4201 l -12.13068,12.78621 -9.90705,-9.39913 z"
       style="fill:#ffd700;fill-opacity:1;stroke:none" /><path
       inkscape:connector-curvature="0"
       id="path3021"
       d="m 913.63826,185.53334 c 0.41971,1.70899 1.09381,3.72561 2.02482,6.1365 l 13.01678,36.55087 50.53296,-16.76308 -3.25958,-10.1478 -19.63881,6.71743 -11.00477,-31.14956 c -3.47511,-9.96063 -7.74166,-8.51604 -12.00107,-7.18769 l -14.50394,5.34622 c -4.31434,1.59015 -6.98505,3.09122 -5.16639,10.49711 z m 10.48862,2.40719 c -0.86782,-3.78516 0.43264,-4.61465 5.59597,-6.36028 8.16525,-3.13636 8.22174,-2.44251 10.02693,2.35547 l 9.115,26.81136 -15.35385,5.41819 -8.44855,-25.07414 c -0.41236,-1.23626 -0.73523,-2.27715 -0.9355,-3.1506 z"
       style="fill:#ffd700;fill-opacity:1;stroke:none" /><path
       style="fill:#ffd700;fill-opacity:1;stroke:none"
       d="m 938.25163,312.57624 10e-4,-39.12162 c -0.21016,-5.39308 1.9968,-7.97695 9.42593,-7.14493 l 9.22297,3.4e-4 -4e-4,10.79392 -5.67567,-2.1e-4 c -3.75745,-0.21337 -4.51533,1.79534 -4.66231,4.25659 l -8.1e-4,21.89189 c -0.3677,6.21651 2.82528,5.46068 5.57412,5.57454 l 23.61487,8.6e-4 c 4.88174,0.17395 4.69637,-2.89387 4.713,-4.71266 l 8.6e-4,-23.36149 c 0.36033,-3.47418 -1.38882,-3.20602 -3.06577,-3.066 l -6.91722,-2.5e-4 4.2e-4,-11.37669 11.55405,4.2e-4 c 4.56626,0.3577 10.0792,-2.46093 8.8173,7.44966 l -10e-4,35.77703 c 0.34781,8.93261 -2.45762,11.52416 -11.3011,11.30025 l -32.78716,-0.001 c -6.75449,0.77134 -8.47595,-2.98672 -8.5132,-8.26045 z"
       id="path3026"
       inkscape:connector-curvature="0"
       sodipodi:nodetypes="ccccccccccccccccccccc" /></g><path
     style="fill:none;stroke:#ffd700;stroke-width:12;stroke-linecap:butt;stroke-linejoin:miter;stroke-miterlimit:4;stroke-opacity:1;stroke-dasharray:none"
     d="M 252.16216,358.37838 282.97297,261.48649 390,257.43243 l -92.02703,-64.05405 28.37838,-94.054056 -81.89189,59.999996 -87.56757,-55.13513 36.08108,94.05405 -81.08108,66.08108 103.37838,-1.21621 z"
     id="path3009"
     inkscape:connector-curvature="0"
     sodipodi:nodetypes="ccccccccccc" /></g><g
   inkscape:groupmode="layer"
   id="layer2"
   inkscape:label="Taso#1"
   style="display:inline" /></svg>