<?xml version="1.0" encoding="utf-8"?>
<!DOCTYPE svg PUBLIC "-//W3C//DTD SVG 1.1//EN" "http://www.w3.org/Graphics/SVG/1.1/DTD/svg11.dtd">
<svg version="1.1" xmlns="http://www.w3.org/2000/svg" xmlns:xlink="http://www.w3.org/1999/xlink" x="0px" y="0px" width="800px" height="533px" viewBox="0 0 800 533" enable-background="new 0 0 800 533" xml:space="preserve">
<defs></defs>
<rect fill="#FFFFFF" width="400" height="533.333"/>
<rect x="400" fill="#CF142B" width="400" height="533.333"/>
<rect x="266.667" y="177.778" fill="#00247D" width="266.667" height="177.777"/>
<polygon fill="#FFFFFF" points="418.786,212.817 404.435,212.817 400,199.168 395.565,212.817 381.214,212.817 392.824,221.252 388.39,234.901 400,226.466 411.61,234.901 407.176,221.252 "/>
<polygon fill="#FFFFFF" points="468.232,248.74 453.881,248.74 449.446,235.092 445.012,248.74 430.66,248.74 442.271,257.175 437.836,270.826 449.446,262.39 461.057,270.826 456.622,257.175 "/>
<polygon fill="#FFFFFF" points="369.341,248.742 354.99,248.742 350.555,235.093 346.121,248.742 331.769,248.742 343.379,257.176 338.945,270.827 350.555,262.391 362.166,270.827 357.731,257.176 "/>
<polygon fill="#FFFFFF" points="449.345,306.869 434.993,306.869 430.559,293.22 426.124,306.869 411.772,306.869 423.383,315.304 418.948,328.954 430.559,320.518 442.169,328.954 437.734,315.304 "/>
<polygon fill="#FFFFFF" points="388.228,306.868 373.876,306.868 369.442,293.219 365.007,306.868 350.656,306.868 362.266,315.303 357.832,328.953 369.442,320.517 381.052,328.953 376.618,315.303 "/>
</svg>