<?xml version="1.0" encoding="utf-8"?>
<!-- Generator: Adobe Illustrator 14.0.0, SVG Export Plug-In . SVG Version: 6.00 Build 43363)  -->
<!DOCTYPE svg PUBLIC "-//W3C//DTD SVG 1.1//EN" "http://www.w3.org/Graphics/SVG/1.1/DTD/svg11.dtd">
<svg version="1.1"
	 id="svg2" inkscape:output_extension="org.inkscape.output.svg.inkscape" xmlns:dc="http://purl.org/dc/elements/1.1/" xmlns:cc="http://creativecommons.org/ns#" xmlns:rdf="http://www.w3.org/1999/02/22-rdf-syntax-ns#" xmlns:svg="http://www.w3.org/2000/svg" xmlns:sodipodi="http://sodipodi.sourceforge.net/DTD/sodipodi-0.dtd" xmlns:inkscape="http://www.inkscape.org/namespaces/inkscape" sodipodi:version="0.32" inkscape:version="0.46" sodipodi:docname="Flag_of_New_Spain.svg" sodipodi:docbase="C:\Documents and Settings\Fam. Ventocilla\Mis documentos\70443084"
	 xmlns="http://www.w3.org/2000/svg" xmlns:xlink="http://www.w3.org/1999/xlink" x="0px" y="0px" width="750px" height="500px"
	 viewBox="0 0 750 500" enable-background="new 0 0 750 500" xml:space="preserve">
<defs>
	
	
		<inkscape:perspective  id="perspective9" inkscape:vp_z="1000 : 300 : 1" inkscape:vp_y="0 : 1000 : 0" inkscape:vp_x="0 : 300 : 1" sodipodi:type="inkscape:persp3d" inkscape:persp3d-origin="500 : 200 : 1">
		</inkscape:perspective>
	
		<inkscape:perspective  id="perspective3407" inkscape:vp_z="744.09448 : 526.18109 : 1" inkscape:vp_y="0 : 1000 : 0" inkscape:vp_x="0 : 526.18109 : 1" sodipodi:type="inkscape:persp3d" inkscape:persp3d-origin="372.04724 : 350.78739 : 1">
		</inkscape:perspective>
	
		<inkscape:perspective  id="perspective4331" inkscape:vp_z="744.09448 : 526.18109 : 1" inkscape:vp_y="0 : 1000 : 0" inkscape:vp_x="0 : 526.18109 : 1" sodipodi:type="inkscape:persp3d" inkscape:persp3d-origin="372.04724 : 350.78739 : 1">
		</inkscape:perspective>
	
		<inkscape:perspective  id="perspective3324" inkscape:vp_z="744.09448 : 526.18109 : 1" inkscape:vp_y="0 : 1000 : 0" inkscape:vp_x="0 : 526.18109 : 1" sodipodi:type="inkscape:persp3d" inkscape:persp3d-origin="372.04724 : 350.78739 : 1">
		</inkscape:perspective>
	
		<inkscape:perspective  id="perspective10" inkscape:vp_z="744.09448 : 526.18109 : 1" inkscape:vp_y="0 : 1000 : 0" inkscape:vp_x="0 : 526.18109 : 1" sodipodi:type="inkscape:persp3d" inkscape:persp3d-origin="372.04724 : 350.78739 : 1">
		</inkscape:perspective>
</defs>
<sodipodi:namedview  width="1000px" height="600px" id="base" inkscape:cy="191.61814" inkscape:cx="255.69644" inkscape:zoom="0.40778792" gridtolerance="1px" showgrid="true" pagecolor="#ffffff" bordercolor="#666666" borderopacity="1.0" inkscape:current-layer="svg2" inkscape:window-y="-9" inkscape:window-x="217" inkscape:grid-points="true" inkscape:grid-bbox="true" inkscape:pageopacity="0.0" inkscape:pageshadow="2" inkscape:window-width="1280" inkscape:window-height="778">
	
		<inkscape:grid  type="xygrid" color="#0000ff" visible="true" opacity="0.2" originy="0px" originx="0px" enabled="true" id="GridFromPre046Settings" empspacing="5" empopacity="0.4" empcolor="#0000ff" spacingy="2px" spacingx="2px">
		</inkscape:grid>
</sodipodi:namedview>
<path id="path1308" sodipodi:nodetypes="ccccc" fill="#DA121A" d="M0,0h750v500H0V0z"/>
<path id="path1310" sodipodi:nodetypes="ccccccccccccccccccccccccccccccccccccccccccccccccccccccc" fill="#FFFFFF" d="M23.639,0
	l78.955,47.523l-8.022-28.548l46.617,27.917l7.697,28.495l40.517,24.387l-6.206-27.608l42.73,25.542l7.439,28.529l41.052,24.71
	l-6.893-28.09l44.334,26.67l7.162,28.266l169.442,101.987l26.696-7.994l43.909,26.572l-27.753,7.215l41.223,24.813l27.507-7.354
	l43.449,26.34l-28.108,6.804l41.286,24.85l28.329-6.856l43.533,26.386l-26.691,7.66L750,437.198V500h-34.384l-59.154-35.887
	l8.069,28.532l-46.663-27.82l-7.743-28.479l-40.557-24.304l6.25,27.596l-42.771-25.453l-7.486-28.514l-41.093-24.625l6.938,28.075
	l-44.377-26.578l-7.209-28.252L270.212,232.653l-26.683,8.049l-43.952-26.48l27.74-7.273l-41.263-24.727l-27.494,7.41
	l-43.493-26.251l28.098-6.861l-41.326-24.765L73.52,138.67l-43.576-26.295l26.678-7.715L0,67.633V0H23.639z"/>
<path id="path1346" sodipodi:nodetypes="ccccccccccccccccccccccccccccccccccccccccccccccccccccccc" fill="#FFFFFF" d="M726.361,0
	l-78.955,47.523l8.022-28.548l-46.617,27.917l-7.697,28.495l-40.517,24.387l6.205-27.608l-42.729,25.542l-7.439,28.529
	l-41.053,24.71l6.893-28.09l-44.334,26.67l-7.162,28.266L261.535,279.779l-26.696-7.994l-43.909,26.572l27.752,7.215l-41.223,24.813
	l-27.507-7.354l-43.45,26.34l28.109,6.804l-41.286,24.85l-28.33-6.856l-43.533,26.386l26.69,7.66L0,437.198V500h34.384
	l59.154-35.887l-8.069,28.532l46.662-27.82l7.744-28.479l40.557-24.304l-6.251,27.596l42.772-25.453l7.486-28.514l41.093-24.625
	l-6.938,28.075l44.377-26.578l7.209-28.252l169.608-101.638l26.683,8.049l43.952-26.48l-27.74-7.273l41.263-24.727l27.495,7.41
	l43.492-26.251l-28.098-6.861l41.326-24.765l28.318,6.915l43.576-26.295l-26.679-7.715L750,67.633V0H726.361z"/>
</svg>
