<?xml version="1.0" encoding="UTF-8" standalone="no"?>
<!-- Created with Inkscape (http://www.inkscape.org/) -->

<svg
   xmlns:dc="http://purl.org/dc/elements/1.1/"
   xmlns:cc="http://creativecommons.org/ns#"
   xmlns:rdf="http://www.w3.org/1999/02/22-rdf-syntax-ns#"
   xmlns:svg="http://www.w3.org/2000/svg"
   xmlns="http://www.w3.org/2000/svg"
   xmlns:sodipodi="http://sodipodi.sourceforge.net/DTD/sodipodi-0.dtd"
   xmlns:inkscape="http://www.inkscape.org/namespaces/inkscape"
   version="1.2"
   width="600"
   height="300"
   id="svg2"
   sodipodi:docname="Flag_of_the_Georgian_Soviet_Socialist_Republic_(1922–1937).svg"
   inkscape:version="0.92.4 (5da689c313, 2019-01-14)">
  <sodipodi:namedview
     pagecolor="#ffffff"
     bordercolor="#666666"
     borderopacity="1"
     objecttolerance="10"
     gridtolerance="10"
     guidetolerance="10"
     inkscape:pageopacity="0"
     inkscape:pageshadow="2"
     inkscape:window-width="1920"
     inkscape:window-height="1003"
     id="namedview7"
     showgrid="false"
     inkscape:zoom="0.8650273"
     inkscape:cx="194.03874"
     inkscape:cy="-2.9321193"
     inkscape:window-x="-9"
     inkscape:window-y="-9"
     inkscape:window-maximized="1"
     inkscape:current-layer="svg2" />
  <defs
     id="defs4" />
  <metadata
     id="metadata7">
    <rdf:RDF>
      <cc:Work
         rdf:about="">
        <dc:format>image/svg+xml</dc:format>
        <dc:type
           rdf:resource="http://purl.org/dc/dcmitype/StillImage" />
        <dc:title />
      </cc:Work>
    </rdf:RDF>
  </metadata>
  <rect
     width="600"
     height="300"
     x="0"
     y="3.7969627e-014"
     id="rect3067"
     style="fill:#cc0000;fill-opacity:1;stroke:none" />
  <path
     d="m 172.70932,40.901024 0.27229,-0.450513 c 4.37938,0.355006 6.56908,1.638282 6.5691,3.84983 -3e-5,2.402782 -2.2578,4.204829 -6.77332,5.406143 -9.0084,2.34817 -14.97618,6.498336 -17.90332,12.450513 l 0.0681,0.204777 c 1.63374,-0.819075 3.1654,-1.228631 4.59495,-1.228668 2.49602,3.7e-5 4.53822,0.989797 6.12662,2.969283 1.58836,1.979555 2.38255,4.607539 2.38258,7.883959 0.13613,0.05464 0.29496,0.05464 0.47651,0 -3e-5,-3.604065 1.06646,-6.402698 3.19945,-8.395903 1.76989,-1.63819 3.81209,-2.457302 6.12662,-2.457339 3.31287,3.7e-5 6.12658,1.529046 8.44112,4.587031 2.4733,3.249177 3.70996,7.399343 3.71001,12.450512 -5e-5,7.590461 -3.49448,14.689431 -10.48333,21.296931 l -0.54459,0.12287 -1.53165,-1.35153 0,-0.69625 c 4.24321,-4.28668 6.36484,-10.53924 6.36488,-18.757687 -4e-5,-4.778132 -0.77154,-8.464135 -2.31451,-11.05802 -1.24805,-2.156963 -2.68892,-3.235462 -4.32266,-3.235496 -4.15252,3.4e-5 -6.24011,4.28672 -6.26277,12.86007 -3e-5,1.010258 -3e-5,2.511964 0,4.505119 l -0.57862,0.245734 -4.5269,0 -0.54459,-0.245734 c -1e-5,-0.791792 -1e-5,-2.320801 0,-4.587031 -1e-5,-8.518741 -1.92875,-12.778124 -5.78624,-12.778158 -2.0876,3.4e-5 -3.76675,1.433481 -5.03743,4.300342 -1.22534,2.703099 -1.838,6.047805 -1.838,10.03413 0,8.273051 2.05355,14.457341 6.16066,18.552901 l 0,0.57338 -1.46358,1.80206 -0.54459,0 c -7.07965,-5.32424 -10.60812,-12.75085 -10.58542,-22.279878 0,-7.262769 1.98546,-13.651841 5.95642,-19.167235 1.88336,-2.64842 4.07306,-4.819068 6.5691,-6.511945 1.83797,-1.255925 4.51552,-2.634764 8.03267,-4.136519 1.40683,-0.600631 2.82502,-1.187661 4.25459,-1.761092 1.54298,-0.819059 2.31447,-1.815646 2.31451,-2.989762 -4e-5,-0.600626 -0.19291,-1.269566 -0.57863,-2.006825 z M 119.10143,86.56655 c -10e-6,2.48466 0.65804,4.73722 1.97413,6.75769 1.42953,2.2116 3.21078,3.3174 5.34377,3.3174 3.40366,0 5.82027,-1.24231 7.24982,-3.72696 1.20262,-2.07508 1.80394,-5.22866 1.80395,-9.46075 -10e-6,-3.767904 -0.5673,-6.948789 -1.70183,-9.542666 -0.45385,-1.037517 -1.49764,-2.730349 -3.13138,-5.078499 -1.13458,-1.61089 -1.70186,-3.112595 -1.70184,-4.50512 -2e-5,-2.211568 0.96436,-3.945355 2.89313,-5.201366 1.56566,-1.010197 3.27885,-1.515317 5.13955,-1.515358 l 0.20422,0.737202 c -2.20108,1.064886 -3.30159,3.126317 -3.30157,6.1843 -2e-5,2.375459 1.29904,5.412998 3.89721,9.112628 2.5981,3.69968 3.89718,6.873738 3.89721,9.522185 -3e-5,5.542674 -1.48631,9.802054 -4.45881,12.778164 -2.70028,2.70307 -6.27414,4.0546 -10.72159,4.0546 -4.17518,0 -7.39165,-1.40614 -9.64942,-4.21843 -2.25777,-2.81228 -3.38666,-6.74402 -3.38666,-11.79522 l 0,-30.38908 c 0,-3.03067 -0.28363,-5.474354 -0.85092,-7.331059 -0.43113,-1.392438 -1.05514,-2.525543 -1.87202,-3.399317 -0.61265,-0.546019 -1.22531,-1.078441 -1.83799,-1.59727 0.15885,-0.05455 0.23827,-0.245676 0.23827,-0.573379 1.65645,-0.464106 2.81369,-0.696187 3.47174,-0.696245 1.65646,5.8e-5 3.15407,0.805517 4.49286,2.416381 1.33877,1.610977 2.00816,3.522238 2.00817,5.733789 z m -34.445211,0 c -6e-6,2.48466 0.658043,4.73722 1.974143,6.75769 1.42953,2.2116 3.210787,3.3174 5.343772,3.3174 3.40365,0 5.820251,-1.24231 7.249831,-3.72696 1.202605,-2.07508 1.803915,-5.22866 1.803935,-9.46075 -2e-5,-3.767904 -0.5673,-6.948789 -1.701835,-9.542666 -0.45384,-1.037517 -1.49763,-2.730349 -3.131381,-5.078499 -1.13457,-1.61089 -1.701855,-3.112595 -1.701832,-4.50512 -2.3e-5,-2.211568 0.96435,-3.945355 2.893123,-5.201366 1.56566,-1.010197 3.278845,-1.515317 5.139555,-1.515358 l 0.20422,0.737202 c -2.20107,1.064886 -3.301595,3.126317 -3.301565,6.1843 -3e-5,2.375459 1.299045,5.412998 3.897205,9.112628 2.59812,3.69968 3.89718,6.873738 3.89721,9.522185 -3e-5,5.542674 -1.4863,9.802054 -4.45882,12.778164 C 100.06351,98.64847 96.489651,100 92.042204,100 87.867015,100 84.650541,98.59386 82.392781,95.78157 80.135008,92.96929 79.006127,89.03755 79.006127,83.98635 l 0,-30.38908 c 0,-3.03067 -0.283638,-5.474354 -0.850914,-7.331059 -0.431135,-1.392438 -1.055146,-2.525543 -1.872028,-3.399317 -0.612658,-0.546019 -1.225323,-1.078441 -1.837981,-1.59727 0.158835,-0.05455 0.238255,-0.245676 0.238255,-0.573379 1.656452,-0.464106 2.813707,-0.696187 3.471754,-0.696245 1.656447,5.8e-5 3.154057,0.805517 4.492845,2.416381 1.33877,1.610977 2.008155,3.522238 2.008161,5.733789 z m -34.445191,0 c -10e-6,2.48466 0.658034,4.73722 1.974132,6.75769 1.429531,2.2116 3.210786,3.3174 5.343771,3.3174 3.403655,0 5.820263,-1.24231 7.24983,-3.72696 1.202607,-2.07508 1.803922,-5.22866 1.803949,-9.46075 -2.7e-5,-3.767904 -0.567306,-6.948789 -1.701839,-9.542666 -0.453847,-1.037517 -1.497639,-2.730349 -3.131382,-5.078499 -1.134578,-1.61089 -1.701857,-3.112595 -1.701837,-4.50512 -2e-5,-2.211568 0.964354,-3.945355 2.893124,-5.201366 1.565667,-1.010197 3.27885,-1.515317 5.139551,-1.515358 l 0.20422,0.737202 c -2.201068,1.064886 -3.30159,3.126317 -3.301566,6.1843 -2.4e-5,2.375459 1.299045,5.412998 3.897211,9.112628 2.598106,3.69968 3.897177,6.873738 3.897209,9.522185 C 72.777369,88.70991 71.291097,92.96929 68.318584,95.9454 65.618309,98.64847 62.044453,100 57.597005,100 c -4.175189,0 -7.39166,-1.40614 -9.649422,-4.21843 -2.257776,-2.81228 -3.386662,-6.74402 -3.386658,-11.79522 l 0,-30.38908 c -4e-6,-3.03067 -0.283642,-5.474354 -0.850918,-7.331059 C 43.278872,44.873773 42.654865,43.740668 41.837984,42.866894 41.225322,42.320875 40.612661,41.788453 40,41.269624 40.158839,41.215074 40.238258,41.023948 40.238256,40.696245 41.894711,40.232139 43.05196,40.000058 43.710007,40 c 1.656451,5.8e-5 3.154067,0.805517 4.492852,2.416381 1.33877,1.610977 2.008159,3.522238 2.008169,5.733789 z"
     id="path3065"
     style="font-size:72px;font-style:normal;font-variant:normal;font-weight:normal;font-stretch:normal;text-align:start;line-height:125%;letter-spacing:0px;word-spacing:0px;writing-mode:lr-tb;text-anchor:start;fill:#ffd700;fill-opacity:1;stroke:none;font-family:Sylfaen;-inkscape-font-specification:Sylfaen" />
</svg>
