<?xml version="1.0" encoding="UTF-8" standalone="no"?>
<svg xmlns="http://www.w3.org/2000/svg" xmlns:xlink="http://www.w3.org/1999/xlink" version="1.1" width="600" height="300">
<defs>
	<path id="star" fill="#fff" transform="scale(21)" d="M0,-1 L0.58779,0.80902 L-0.95106,-0.30902 L0.95106,-0.30902 L-0.58779,0.80902z"/>
</defs>
<rect width="600" height="300" fill="#ce1126"/>
<use xlink:href="#star" transform="translate(40,41)"/>
<use xlink:href="#star" transform="translate(560,41)"/>
<use xlink:href="#star" transform="translate(300,70.5)"/>
<use xlink:href="#star" transform="translate(40,263)"/>
<use xlink:href="#star" transform="translate(560,263)"/>
<path fill="#fff" d="M 191.21875,111.38782 C 178.05584,111.83152 173.95041,118.76653 172.75,127.51282 L 143.875,119.70032 C 135.52838,117.34657 123.921,117.06868 118.8125,118.35657 C 99.498237,123.22588 101.32271,136.00205 107.34375,144.48157 C 112.37497,151.56707 130.6714,152.96033 127.46875,131.54407 C 139.45858,133.01279 150.31776,134.39867 165.71875,139.73157 L 172.34375,141.54407 C 172.52885,151.91792 172.49848,161.60586 163.90625,164.32532 C 182.65393,168.46961 184.88033,157.96299 185.28125,145.10657 L 288.65625,173.45032 C 371.30336,194.15707 397.7678,193.38577 433.40625,187.10657 C 468.60304,180.90516 492.9591,159.90482 500.8125,143.85657 C 429.90414,207.48061 295.46874,160.70032 295.46875,160.70032 L 185.65625,131.01282 C 186.29085,122.46083 188.42052,114.78969 196.21875,111.51282 C 194.41812,111.3791 192.76089,111.33584 191.21875,111.38782 z"/>
</svg>
