<?xml version="1.0" encoding="UTF-8"?>
<!DOCTYPE svg PUBLIC "-//W3C//DTD SVG 1.1//EN" "http://www.w3.org/Graphics/SVG/1.1/DTD/svg11.dtd">
<!-- Creator: CorelDRAW X6 -->
<svg xmlns="http://www.w3.org/2000/svg" xml:space="preserve" width="267.67mm" height="201mm" version="1.1" style="shape-rendering:geometricPrecision; text-rendering:geometricPrecision; image-rendering:optimizeQuality; fill-rule:evenodd; clip-rule:evenodd"
viewBox="0 0 26767 20100"
 xmlns:xlink="http://www.w3.org/1999/xlink"
 xmlns:svg="http://www.w3.org/2000/svg">
 <defs>
  <style type="text/css">
   <![CDATA[
    .str0 {stroke:black;stroke-width:20}
    .fil4 {fill:none}
    .fil3 {fill:black}
    .fil2 {fill:#C9CCCF}
    .fil8 {fill:#ECE793}
    .fil7 {fill:#EF0000}
    .fil6 {fill:#FECB00}
    .fil0 {fill:white}
    .fil1 {fill:black;fill-rule:nonzero}
    .fil9 {fill:#C9CCCF;fill-rule:nonzero}
    .fil5 {fill:white;fill-rule:nonzero}
   ]]>
  </style>
 </defs>
 <g id="Слой_x0020_1">
  <metadata id="CorelCorpID_0Corel-Layer"/>
  <g id="_474193448">
   <g id="_475065632">
    <rect id="rect3304" class="fil0 str0" x="50" y="50" width="26667" height="20000"/>
    <g>
     <g>
      <path class="fil1" d="M11173 5098c87,24 160,55 211,100 57,51 85,117 69,206 120,5 207,31 263,77 58,47 83,113 78,196 77,5 142,16 195,35 55,20 96,47 124,83 28,37 42,81 40,133 -1,22 -4,46 -11,71 93,-4 168,5 226,26l0 0c47,17 82,41 107,73 25,32 40,72 43,117 4,54 -7,117 -33,188l-12 15c-145,91 -265,198 -382,302 -153,136 -301,269 -498,360l-17 8 -14 -12c-234,-205 -502,-447 -757,-694 -218,-212 -426,-427 -593,-627 -20,10 -27,18 -50,4 -139,-80 -219,-193 -321,-309 -10,4 -21,8 -31,13 -20,8 -24,1 -38,-12 -36,-36 -51,-101 -52,-172 -2,-103 23,-222 46,-265l7 -14 15 -2c33,-4 66,-7 100,-10 61,-119 117,-227 179,-346 12,-24 19,-30 45,-23 15,4 23,7 38,11 6,-7 12,-15 18,-22 218,-273 436,-546 576,-893 1,-66 0,-132 1,-198 0,-52 10,-51 58,-31l94 40c5,-17 9,-33 11,-49 6,-38 3,-73 -12,-105 -28,-27 -46,-68 -52,-112 -12,14 -27,26 -44,36 -43,27 -101,43 -144,43 -42,0 -101,-17 -144,-44 -40,-25 -70,-59 -70,-99l0 -257c0,-40 30,-75 70,-100 44,-27 102,-44 144,-44 40,0 96,15 139,39 29,16 53,36 66,60 12,-2 24,-3 36,-5l84 -152 0 0c14,-27 40,-48 69,-59 29,-11 61,-12 91,-2l0 0c6,2 11,5 16,7 17,10 30,23 39,39 14,-15 32,-26 51,-33 29,-11 61,-12 91,-1l0 0 18 7 0 0c5,2 10,4 15,7 18,10 33,24 42,41 13,-10 27,-19 42,-24 33,-13 70,-14 104,-2l0 0c6,2 11,4 16,7 27,14 46,36 55,62 1,2 1,4 2,6 8,-5 16,-9 24,-12 31,-12 66,-13 98,-2l0 0c7,3 14,6 21,9l0 0c3,1 5,3 8,5 35,-49 89,-78 175,-67 14,4 28,18 25,31 -3,39 -3,81 1,123 4,0 8,0 12,1 16,-93 22,-194 5,-288 -14,-81 -46,-156 -101,-214 -53,-56 -25,-49 50,-49 145,0 230,0 375,0 60,0 69,-3 37,45 -54,80 -96,224 -102,366 0,11 -1,23 -1,34l4532 0c420,-2 825,11 1199,49 374,38 717,103 1012,205 48,20 48,37 1,54 -280,106 -615,184 -980,235 -387,54 -807,77 -1232,73l-4526 0c12,128 54,256 99,337 26,46 11,43 -42,43 -147,0 -237,0 -383,0 -61,0 -72,-2 -41,-46 57,-79 87,-162 98,-247 9,-70 5,-142 -6,-216 -39,74 -91,142 -142,211 -12,16 -24,31 -40,53l-10 9c-62,31 -141,85 -211,154 -29,29 -57,61 -81,95l201 85c32,14 34,51 1,64l-273 104c-14,5 -15,3 -28,-3 -170,245 -242,552 -310,861 60,48 80,121 77,196 1,2 2,4 2,6l-3 2z"/>
      <path class="fil2" d="M11230 6702c183,-96 335,-236 489,-380 112,-104 226,-210 355,-302 13,-35 19,-66 20,-94 1,-38 -8,-70 -28,-96 -21,-27 -53,-48 -98,-64 -53,-19 -123,-30 -208,-33l-1 0c-119,84 -223,179 -325,272 -162,148 -320,292 -532,391 108,104 219,207 327,305l1 1zm-370 -347l-1 -2c214,-95 374,-241 537,-390 106,-96 213,-194 339,-283 5,-67 -13,-119 -57,-155 -50,-41 -134,-63 -255,-65 -124,75 -232,169 -340,263 -152,131 -304,263 -504,351 85,89 175,178 266,266 5,5 10,9 15,14l0 1zm-323 -325c201,-84 356,-218 509,-350 110,-95 219,-189 346,-267 19,-76 0,-131 -46,-172 -48,-43 -125,-72 -216,-95 -106,68 -211,145 -317,222 -175,127 -353,256 -547,360 82,98 174,199 272,302l-1 0zm1286 19c-30,-4 -58,-16 -79,-33 -30,-24 -48,-57 -46,-95 1,-37 21,-69 52,-91 27,-19 62,-31 101,-31l1 0c39,1 74,14 100,35 30,24 48,57 46,95l0 -2c0,38 -19,70 -50,93 -21,16 -49,26 -79,30 -8,2 -17,2 -25,1 -7,0 -15,0 -21,-2zm-369 -281c-30,-4 -58,-16 -79,-33 -30,-24 -48,-57 -46,-95 1,-37 21,-69 52,-91 27,-19 62,-31 101,-31l1 0c39,1 74,15 100,35 30,24 48,58 47,95 -1,37 -21,69 -51,91 -21,16 -48,26 -77,30 -8,2 -17,2 -26,1 -7,0 -15,0 -21,-2l-1 0zm-333 -313c-30,-4 -58,-16 -79,-33 -30,-24 -48,-57 -46,-95 1,-37 21,-70 52,-92 27,-20 63,-31 102,-30 39,1 74,14 100,35 30,24 48,57 46,95l0 -2c0,37 -19,70 -50,93 -21,16 -48,26 -78,30 -8,2 -17,2 -26,1 -7,0 -15,0 -21,-2zm23 -49c-55,-2 -99,-35 -97,-77 2,-42 47,-75 102,-74 55,2 99,35 97,77 0,40 -45,74 -100,74l-2 0zm333 313c-55,-2 -99,-35 -97,-77 2,-42 47,-74 102,-74 55,2 99,37 97,77 -2,42 -47,74 -100,74l-2 0zm369 281c-55,-2 -99,-35 -97,-77 2,-42 47,-74 102,-74 55,2 99,35 97,77 0,42 -45,74 -100,74l-2 0zm275 58c-131,91 -248,200 -363,306 -152,141 -302,280 -483,379 107,97 212,191 311,278 180,-87 321,-213 466,-343 116,-104 235,-210 381,-303 21,-60 30,-112 27,-156 -2,-34 -13,-63 -31,-86 -18,-23 -45,-42 -82,-55l0 0c-55,-20 -130,-27 -227,-22l1 2zm-2310 -1004c-17,46 -35,139 -33,224 1,52 9,99 29,125 208,-86 421,-161 638,-228 213,-66 429,-125 650,-179l-5 -11c-228,22 -448,29 -660,35 -214,7 -421,13 -619,34zm144 -71c154,-11 311,-16 473,-21 201,-6 407,-13 618,-32l-2 -5 -931 -246 -157 304 -1 0zm1139 71c-215,53 -426,111 -633,175 -191,59 -379,124 -563,198 18,21 34,41 50,60 68,82 126,153 235,217 212,-106 405,-246 594,-384 110,-80 219,-159 330,-230l-14 -36 1 0zm-291 -1505l-1 136 621 294 208 -79 -827 -351 -1 0zm-9 196c-142,350 -362,624 -581,899 -1,1 -1,2 -2,3l831 219c68,-306 140,-609 309,-857l-557 -264z"/>
     </g>
     <path class="fil3" d="M9934 14164c35,-23 37,-82 17,-150 -236,92 -381,55 -386,-182 7,-129 -62,-122 -139,-95 -150,-8 -231,-87 -261,-216 -264,-2 -415,97 -440,306 28,152 -13,226 -102,271 -90,57 -115,127 -55,214 59,415 -114,535 -384,530 -13,45 53,132 90,202 -339,-92 -630,-226 -496,-732 -13,-104 -35,-242 221,-274l311 -391c-165,-38 -339,296 -542,202 -87,-28 -174,-57 -261,90 -133,142 -281,235 -497,104 -33,-20 -35,-52 -48,-88 -66,59 -137,222 -199,177 -175,-125 -287,-274 -40,-552 43,-49 125,-88 191,-145 22,-56 40,-121 98,-153 59,-32 143,-42 280,-7 249,184 451,192 610,45 -150,-65 -381,-64 -396,-237 -65,-170 -164,-110 -259,-79 -294,10 -381,-119 -316,-349l-202 124c33,-344 271,-510 756,-463 142,8 247,53 271,181 82,38 184,38 181,249 493,408 600,491 1207,259 359,-279 906,-446 1240,-779 -162,-25 -446,70 -473,-90 231,-149 488,-247 665,-506 498,-597 1359,-659 1670,-1152 154,-555 -37,-769 -169,-1038 -9,364 16,727 -81,1091 -30,110 -142,105 -123,-9 46,-288 72,-571 12,-832 -191,954 -484,1453 -1111,1532 -81,10 -120,-49 -101,-133 120,-549 242,-900 231,-1230 -267,677 -512,1610 -808,1944 -144,163 -173,91 -91,-54 324,-573 498,-1260 718,-1912 -614,986 -965,2376 -2208,2391 -165,2 -297,-118 -160,-281 532,-547 904,-1322 1229,-2166 -402,423 -836,1128 -1275,1628 -149,170 -207,175 -54,-36 454,-647 908,-1295 1362,-1942 -700,714 -1900,2272 -3006,2016 -254,-59 -260,-235 -44,-393 863,-632 1506,-1394 2249,-2098 -720,419 -1426,977 -2169,1180 -149,41 -124,-65 -18,-95 615,-176 1504,-835 2211,-1298 -836,249 -1670,664 -2504,316 -186,-109 -150,-262 10,-293 655,-97 1240,-371 1839,-610 -583,94 -1170,130 -1725,114 -102,33 -147,-55 -28,-59 646,-21 1293,-43 1911,-292 -811,5 -1580,-17 -2007,-371 -170,-141 -254,-481 90,-475 575,60 1150,187 1725,79 -630,-99 -1247,-217 -1815,-404 -87,-66 -79,-96 22,-90 498,94 1220,386 1489,281 -1000,-277 -1357,-598 -1489,-936 -107,-401 44,-487 249,-373 396,221 804,404 1240,542 -410,-281 -808,-561 -1191,-842 -85,-93 -57,-111 45,-79 491,336 952,733 1529,955 -702,-674 -1091,-1197 -1285,-1658 -64,-406 51,-628 199,-711 154,-86 216,-56 278,76 182,385 917,1379 1034,1313 -246,-445 -522,-888 -654,-1332 8,-90 47,-64 90,-22 136,414 362,806 600,1151 -336,-839 -254,-1981 558,-1970 139,32 262,155 181,277 -242,888 660,2663 929,3121 140,344 -149,572 -416,374 -204,-179 -563,289 -15,471 134,48 236,119 222,277 90,344 279,389 555,181 227,-159 532,-134 869,-35 70,-475 207,-981 1010,-1829 137,-135 289,-251 491,-294 267,-92 750,-124 739,-308 -59,-75 -234,-50 -578,10l-51 6c-63,8 -35,-129 27,-153 17,-7 34,-13 51,-18 214,-71 430,-79 644,-108 -48,-25 -97,-42 -148,-53 -313,-67 -800,143 -1385,58 -702,-124 -630,-635 -199,-824 70,7 134,22 94,125 -103,212 2,364 171,418 111,36 292,34 408,32 288,-5 587,-24 875,-29 -87,-137 -252,-135 -436,-105 -222,-209 -451,-349 -702,-142 -431,-535 53,-694 440,-725 69,-77 159,-89 256,-80 23,-194 570,-160 968,-25 316,109 612,274 884,318 -20,130 -57,264 72,366 72,199 130,394 299,346 42,95 -38,150 -164,189 18,281 -15,527 53,766 -80,74 -137,33 -194,0l-194 336c3,134 -23,257 -152,346 -48,669 99,1031 244,1491 134,94 251,43 363,-42 249,-186 547,-174 884,0 247,266 602,162 582,-110 40,-259 197,-286 321,-378 450,-207 155,-530 -35,-440 -373,259 -632,-40 -488,-488 152,-339 303,-533 455,-792 420,-496 563,-1177 649,-1895 4,-155 33,-284 243,-244 781,149 464,1235 297,1693 276,-336 537,-852 640,-1230 32,-60 60,-82 75,17 -32,562 -719,1325 -674,1432 366,-316 727,-811 1138,-1533 50,-84 124,-94 219,-42 757,635 -441,1765 -1036,2350 588,-194 1140,-573 1583,-1003 85,-55 64,3 60,42 -413,508 -1036,914 -1737,1163 684,-112 1178,-458 1745,-717 177,-79 355,-28 380,159 11,85 -13,259 -77,354 -343,501 -1066,705 -1892,918 249,-1 1096,-91 1740,-351 75,-18 99,0 43,75 -488,209 -1112,303 -1657,392 59,2 535,15 592,16 345,4 648,-14 955,-29 193,-14 426,125 252,336 -432,525 -1239,475 -2039,440 594,172 1204,273 1828,323 146,12 125,100 -15,86 -603,-59 -1314,-155 -1955,-292 627,277 1257,568 1854,657 281,12 379,165 150,388 -737,473 -1730,-132 -2569,-463 676,587 1443,997 2245,1331 206,86 264,185 7,109 -924,-274 -1589,-854 -2344,-1332 719,958 1606,1692 2519,2394 204,120 331,244 -8,396 -1093,327 -2158,-1086 -2821,-1810 -38,-42 -182,-206 -218,-243 182,389 1006,1500 1546,2135 129,153 45,184 -90,64 -324,-287 -1237,-1501 -1658,-2131 628,1560 1014,1966 1379,2397 164,189 105,207 -52,311 -808,124 -1350,-523 -1999,-1826 -16,-31 -280,-567 -296,-599 129,575 340,1170 572,1762 36,141 -71,159 -106,33 -171,-346 -570,-1355 -665,-2098 2,482 55,968 229,1423 107,241 -40,359 -237,277 -580,-257 -740,-757 -876,-1272 11,136 21,272 32,409 13,136 -95,165 -132,35 -86,-300 -100,-632 -135,-1016l-194 699c-22,580 124,595 371,784 473,272 990,511 1330,884 120,131 246,272 446,329 43,47 37,95 0,142l-286 69 426 269c461,299 936,516 1427,550 724,-22 538,-873 1202,-786 435,8 490,216 527,388l-165 10c23,364 -204,351 -473,277 -204,7 43,296 -498,333 18,87 277,84 480,102 445,-226 463,43 638,129 376,351 77,730 -157,759 -142,-62 132,-207 -47,-259 -428,206 -520,-40 -618,-212 -179,67 -358,100 -537,-28 10,179 374,207 314,500 296,279 20,914 -445,739 -57,-77 7,-119 120,-147 -373,17 -440,-254 -396,-628 -84,-107 -179,-196 -167,-445 -2,-316 -399,-468 -508,-45 -90,75 -179,37 -269,18 69,311 -287,418 -498,194 -95,59 -74,147 -75,231 -294,-165 -289,-346 -92,-610 80,-226 374,-227 573,-324 -204,-189 -684,-241 -1026,-359 -77,117 -204,137 -358,102 16,-144 -44,-204 -118,-253 -544,-361 -1064,-762 -1588,-1151 3,314 -291,986 164,1304 130,77 150,-147 328,-104 114,74 110,191 85,314 -299,470 -604,307 -758,256 64,458 575,966 1013,710 145,-110 140,-415 -67,-321 -102,-196 331,-433 615,-159 388,-144 824,28 861,323 -196,-62 -393,-135 -538,154 291,42 430,503 59,654 2,-229 -165,-212 -366,-149 -582,202 -909,7 -1269,-135 294,639 1541,725 2017,316 45,-122 -80,-135 -154,-164 145,-242 837,-323 894,52 -37,140 -84,227 -135,293 852,-257 1524,1262 149,1463 -257,12 -298,130 -234,303 -349,25 -513,-119 -438,-445 137,-189 346,-140 709,-122 299,2 508,-373 309,-587 -289,-187 -635,-201 -928,30 95,582 -341,582 -451,421 109,-127 105,-344 -84,-346 -928,125 -1573,-371 -2079,-1168 60,558 42,1140 821,1484 196,62 274,-130 189,-294 264,-130 709,428 219,747 -428,174 -757,-20 -1086,-219 75,341 553,766 822,610 100,-176 344,-50 97,174 -430,239 -689,120 -939,-17 -99,343 -191,692 -595,792 169,-436 -311,-493 -316,-772 -511,184 -979,289 -1122,-174 583,80 764,-115 852,-374 -298,67 -487,91 -724,35 -554,-132 -436,-665 -35,-842 -38,162 13,266 164,304 391,206 951,-537 923,-1334 -881,849 -1008,971 -1976,1076 -216,43 -306,144 -117,374 -620,100 -625,-174 -538,-503 -518,-319 -989,-137 -995,222 -37,455 567,267 889,363 420,316 122,617 -269,608 97,-197 32,-284 -152,-293 -226,-23 -451,-107 -677,-316 -505,-568 -48,-1295 735,-1252 -97,-172 -30,-421 122,-496 485,-174 625,99 557,333 192,236 436,269 690,257 607,99 1140,-84 1561,-700 -222,150 -568,495 -1528,314 -72,-122 -291,-80 -326,35 -241,-59 -343,-560 80,-488 -25,-277 -346,-344 -478,-120 -386,-313 244,-659 690,-416 234,-164 660,-209 725,125 -232,40 -221,416 40,369 557,-5 914,-481 824,-814 -585,299 -931,-189 -628,-482 196,-105 107,157 264,114 359,-8 303,-816 199,-1175 -149,17 -495,337 -630,455 -105,-32 -924,387 -964,611 -84,162 -257,194 -349,65 -518,33 -734,201 -1041,328l532 306c282,276 -18,667 -279,622l-2 -6z"/>
     <path class="fil4" d="M11144 5407c-55,-2 -99,-35 -97,-77 2,-42 47,-75 102,-74 55,2 99,35 97,77 0,40 -45,74 -100,74"/>
     <path class="fil4" d="M11477 5720c-55,-2 -99,-35 -97,-77 2,-42 47,-74 102,-74 55,2 99,37 97,77 -2,42 -47,74 -100,74"/>
     <path class="fil4" d="M11846 6000c-55,-2 -99,-35 -97,-77 2,-42 47,-74 102,-74 55,2 99,35 97,77 0,42 -45,74 -100,74"/>
     <path class="fil5" d="M14043 14710c149,128 266,243 382,331 576,432 1254,416 1924,235 68,-18 139,-38 214,-59 72,-20 75,-62 -27,-40 -83,18 -140,42 -214,61 -697,179 -1281,204 -1877,-239 -130,-97 -257,-212 -398,-347 -95,-91 -59,11 -5,57l1 1z"/>
     <path class="fil6" d="M8451 13184c-70,28 -123,57 -188,88 -89,42 -182,55 -248,34 -89,-105 -162,-206 -391,-204 -15,-99 -107,-349 -423,-179 -191,53 -216,-169 -122,-246 177,-55 433,35 468,-216 28,-20 80,-23 117,7 2,72 42,127 110,165 64,27 90,75 105,150 55,87 371,281 571,400l1 1zm-1527 -610c22,-192 246,-212 510,-182 130,42 45,222 -102,209 -140,-59 -249,-37 -408,-27zm-152 1432c-170,-204 48,-396 202,-481 120,-75 174,77 85,226 -112,50 -196,90 -287,256l0 -1zm1245 869c-22,-209 25,-301 85,-371 57,-74 -8,-236 -109,-232 -246,100 -254,483 23,603l1 0zm2795 -2531l-394 15 -971 553c-105,50 -172,119 -224,196 -125,3 -262,-7 -339,67 -319,33 -535,85 -677,202 -165,-10 -232,42 -304,79 -149,27 -426,-43 -436,69 -89,-119 -170,-177 -334,-142 -62,-5 -69,32 3,134 80,105 22,242 -37,334 -84,55 0,170 80,165 127,-25 318,20 306,-374 94,-33 43,82 241,77 104,85 237,75 368,-42 134,-162 349,-64 496,-304l-15 189c-159,64 -346,281 -465,518 -27,50 -45,155 30,219 37,67 85,189 5,254 -89,82 -28,162 40,197 247,58 421,-102 277,-488 -48,-57 -40,-150 45,-167 129,-47 216,-112 110,-391 89,-162 267,-319 602,-252 82,160 107,162 296,172 80,-5 127,59 125,125 -15,271 170,247 246,211 -18,-18 -3,-37 -17,-52 -125,-167 42,-232 137,-338 18,-10 15,-35 5,-43 -155,-134 -368,-219 -572,-286 87,-57 127,-122 174,-211 164,2 259,-65 354,-142 206,-2 450,-60 682,-125 40,-145 95,-284 162,-418l1 -1zm-715 1671c33,-150 -181,-214 -167,-212 -88,-9 72,-220 207,-196 187,165 75,376 -40,408z"/>
     <path class="fil6" d="M19775 12609c-22,-192 -246,-212 -511,-182 -129,42 -45,222 104,209 140,-60 249,-37 408,-27l-1 0zm-1529 603c25,45 104,57 150,84 94,54 214,69 288,45 -68,-106 117,-87 202,-125 51,-23 103,-80 189,-79 13,-99 107,-349 421,-179 192,52 217,-169 124,-246 -179,-57 -433,35 -468,-216 -28,-20 -80,-23 -117,7 -3,70 -43,127 -110,165 -64,27 -92,75 -105,150 -57,85 -274,302 -573,393l-1 1zm1682 829c169,-204 -50,-396 -204,-481 -119,-75 -174,75 -84,226 112,50 194,90 287,256l1 -1zm-3350 10c-33,-150 196,-234 184,-234 102,-22 -40,-219 -199,-174 -189,165 -100,374 15,408zm-690 -1671l394 15 971 553c104,50 170,119 222,194 127,5 264,-7 341,69 283,1 497,54 675,202 165,-10 232,42 304,79 150,27 428,-43 438,69 89,-119 170,-177 334,-142 60,-5 69,32 -5,134 -79,105 -20,241 38,333 84,57 0,172 -80,167 -127,-27 -318,20 -306,-376 -95,-32 -43,84 -241,79 -104,85 -237,75 -368,-42 -134,-162 -349,-64 -498,-304l17 189c159,64 346,279 463,518 28,48 45,155 -28,219 -37,67 -85,187 -5,254 89,82 28,162 -40,196 -247,59 -421,-100 -277,-488 48,-55 38,-149 -47,-165 -129,-47 -216,-114 -109,-391 -90,-162 -267,-319 -602,-252 -82,160 -107,160 -296,171 -82,-3 -127,60 -127,127 15,271 -170,247 -244,209 18,-17 3,-35 15,-52 125,-165 -40,-231 -135,-336 8,-8 -15,-37 -5,-45 155,-132 368,-217 572,-284 -87,-57 -129,-122 -174,-211 -164,2 -261,-65 -354,-144 -207,-2 -450,-59 -682,-125 -40,-144 -95,-282 -162,-416l1 -4zm2793 2531c23,-209 -23,-301 -84,-371 -59,-74 7,-236 109,-232 244,100 254,483 -25,603z"/>
     <path class="fil6" d="M12400 4354c340,-148 563,25 767,179 363,20 602,170 747,401 17,27 69,37 85,64 149,-242 -59,-398 -351,-530 -140,-72 -276,-109 -326,-363 -33,-114 -79,-206 -144,-256l-23 149c-92,-50 -182,-57 -274,-60 -23,-13 12,-43 -12,-53 -425,-35 -701,200 -469,470l0 -1zm1599 702c43,55 59,102 7,125 -154,-19 -291,-25 -422,-22 -85,2 -280,24 -364,28 -84,4 -93,6 -4,-22 149,-47 572,-75 783,-110l0 1z"/>
     <path class="fil7" d="M13517 4807c47,20 65,18 18,72 -416,-13 -913,142 -1344,65 -496,-102 -488,-331 -323,-548 42,-28 69,-25 79,25 -34,248 181,385 393,412 374,47 786,-23 1177,-26z"/>
     <path class="fil0" d="M13623 3885c16,0 29,13 29,29 0,16 -13,29 -29,29 -16,0 -29,-13 -29,-29 0,-16 13,-29 29,-29zm-140 60c-7,60 6,105 31,138l0 0c21,27 50,45 83,55 33,11 70,13 106,9l0 0c58,-7 112,-33 140,-74l0 0c33,-48 81,-47 127,-45 6,0 13,0 19,0 0,-12 -3,-25 -9,-37 -7,-14 -18,-26 -33,-34 -14,-8 -33,-12 -54,-8 -25,4 -55,18 -88,46l0 0c-92,76 -197,17 -267,-23 -27,-15 -47,-27 -54,-26l-1 -1z"/>
     <path class="fil8" d="M11119 2733l0 0c-16,-6 -34,-5 -50,1 -16,6 -30,17 -38,32l0 0 -115 211 0 0c-1,3 -3,5 -4,8l0 0c-4,11 -4,22 0,31 4,9 11,18 21,24l0 0c3,1 5,3 8,4l0 0c17,6 35,5 51,-1 17,-6 31,-18 39,-33l0 0 114 -211 0 0c1,-3 3,-5 4,-8l0 0c4,-11 4,-22 0,-31 -4,-9 -11,-18 -21,-24 -3,-2 -5,-3 -8,-4l-1 1zm197 12l0 0c-16,-6 -34,-5 -51,1 -17,6 -31,18 -40,33l0 0 -154 282 0 0c-1,2 -2,5 -3,7 -4,11 -4,23 0,32 4,10 11,18 22,24 2,1 4,2 7,3l0 0c0,0 0,0 0,0l0 0c0,0 0,0 0,0l15 5 1 0c17,6 36,5 52,-1 16,-6 30,-17 38,-33l0 0 154 -281 0 0c1,-2 2,-5 3,-8l0 0c4,-11 4,-22 1,-32l0 0c-4,-9 -11,-18 -21,-23 -2,-1 -5,-2 -7,-3l0 0 -18 -7 1 1zm-218 382c0,0 0,0 0,0l0 0zm440 -353l0 0c-21,-8 -44,-7 -64,1 -21,8 -39,23 -49,42l0 0 -165 302c-2,3 -3,6 -4,9 -5,15 -5,29 0,42 5,13 15,24 29,32 3,1 6,3 9,4 20,7 43,6 64,-1l0 0c21,-8 39,-22 50,-41l0 0 165 -304 0 0c2,-3 3,-6 4,-9 5,-15 5,-29 0,-42 -5,-13 -15,-24 -29,-32 -3,-1 -6,-3 -9,-4l-1 1zm196 62l0 0c-18,-7 -39,-6 -58,1 -19,7 -35,20 -44,37l0 0 -147 267c-2,3 -3,6 -4,8l0 0c-5,13 -5,26 0,38 4,11 13,21 25,28 2,1 5,3 9,4 18,7 39,6 58,-1 19,-7 36,-20 46,-38l0 1 145 -267 0 0c2,-3 4,-7 5,-11 4,-12 4,-24 0,-35 -4,-11 -12,-20 -23,-27l0 0c-4,-2 -7,-4 -11,-5l-1 0zm-784 715l499 212c0,0 0,0 0,-1 33,-48 72,-92 115,-132 67,-63 140,-112 199,-142 88,-118 192,-240 226,-387 -26,-44 -44,-95 -54,-148 -11,-56 -15,-115 -12,-170 -55,1 -88,28 -107,68 -26,51 -33,125 -39,193 9,126 -64,178 -139,231 -51,36 -61,44 -120,57 -86,19 -152,65 -210,128 -28,30 -72,-6 -45,-37 54,-73 103,-90 171,-119 14,-8 29,-16 43,-24l-566 -59c-13,-2 -15,-5 -12,24 4,36 17,69 39,88l6 8c23,45 28,93 20,145 0,0 0,1 0,1 0,0 0,1 0,1 0,0 0,0 0,0 0,0 0,1 0,1 0,0 0,1 0,1 0,0 0,0 0,0 0,0 0,1 0,1 0,1 0,2 -1,3 0,0 0,0 0,0 0,0 0,0 0,1 0,0 0,1 0,1 0,0 0,0 0,0 0,0 0,0 0,1 0,0 0,1 0,1 0,0 0,0 0,0 0,0 0,0 0,1 0,0 0,1 0,1 0,0 0,0 0,0 0,0 0,0 0,0 0,0 0,1 0,1 0,0 0,0 0,0 0,1 0,1 0,2 0,0 0,0 0,1 0,0 0,0 0,0 0,0 0,1 0,1 0,0 0,0 0,0 0,1 -1,3 -1,4 0,0 0,1 0,1 0,0 0,0 0,0 0,0 0,1 0,1 0,0 0,1 0,1 0,0 0,0 0,0 0,0 0,1 0,1 0,0 0,0 0,0 -2,9 -5,18 -7,27 0,0 0,0 0,0 -1,3 -2,5 -2,8l-3 3zm12 -47c0,1 0,1 0,2m0 -2l0 0 0 0z"/>
     <path class="fil6" d="M11980 2389c40,58 64,124 77,195 20,110 11,228 -10,334l-5 24 -25 -1c-9,0 -17,-1 -26,-1 0,1 0,2 1,3 10,51 27,99 52,138l4 21c-5,24 -12,48 -20,71l2 0 5 25c20,100 28,196 16,289 -10,78 -34,154 -78,228l318 0c-44,-95 -81,-227 -87,-355 -5,-108 13,-214 68,-295 -56,-85 -75,-204 -70,-324 6,-129 40,-260 86,-351l-308 0 0 -1zm-782 792c-4,2 -7,3 -11,5 -11,4 -23,7 -36,8 17,1 34,2 52,3 -1,-2 -1,-3 -2,-5 -1,-3 -2,-7 -3,-10l0 -1zm-189 -84c-28,10 -60,11 -89,1l0 0c-6,-2 -11,-5 -16,-7l0 0c-22,-12 -38,-32 -47,-54 -8,-22 -9,-47 0,-71l0 0c1,-4 3,-7 5,-11 -5,1 -11,2 -16,2l-29 4 -3 -30c-2,-15 -21,-31 -46,-45 -35,-19 -80,-31 -111,-31 -33,0 -79,14 -114,36 -25,15 -43,34 -43,51l0 257c0,17 18,35 42,50 35,22 81,35 114,35 34,0 80,-13 114,-35 24,-15 42,-33 42,-50l3 -47 32 5c84,16 172,27 264,33 -5,-1 -10,-2 -15,-4l-16 -5 -1 0c-5,-2 -10,-4 -15,-6 -24,-12 -41,-32 -49,-55 -3,-8 -5,-15 -6,-23z"/>
     <path class="fil2" d="M12263 2833c2,67 19,132 55,195 1971,1 3888,2 5859,3 63,0 63,58 -1,58 -1953,-1 -3905,-2 -5858,-3 -51,88 -59,169 -55,248l4528 0c422,4 840,-19 1223,-72 328,-46 631,-113 890,-203 -272,-86 -583,-142 -921,-177 -371,-38 -774,-50 -1193,-48 -1509,0 -3018,0 -4528,0l1 -1z"/>
     <path class="fil4" d="M11144 5407c-55,-2 -99,-35 -97,-77 2,-42 47,-75 102,-74 55,2 99,35 97,77 0,40 -45,74 -100,74"/>
     <path class="fil4" d="M11477 5720c-55,-2 -99,-35 -97,-77 2,-42 47,-74 102,-74 55,2 99,37 97,77 -2,42 -47,74 -100,74"/>
     <path class="fil4" d="M11846 6000c-55,-2 -99,-35 -97,-77 2,-42 47,-74 102,-74 55,2 99,35 97,77 0,42 -45,74 -100,74"/>
     <g>
      <path class="fil9" d="M13174 13632l-12 -11 -9 -13 -17 -48c-1,36 -10,73 -14,105 -11,81 -19,163 -35,243 -6,30 -11,51 -18,96 -14,84 -21,170 -58,248 -23,49 -57,117 13,145 13,5 21,10 26,15l62 -16 1 7c16,-16 50,-25 51,7 1,17 -5,47 -7,80 -5,88 12,188 26,275 12,72 38,132 61,201 12,34 17,58 26,82 9,24 20,47 29,68 9,21 16,38 32,47 66,38 86,-107 96,-141 13,-45 29,-83 41,-120 12,-37 21,-74 29,-106 24,-98 48,-198 51,-300 1,2 2,5 3,7l-1 -63c-13,-15 -21,-30 -12,-38 5,-4 17,3 30,8 13,4 28,6 49,7 38,3 88,8 113,-27 21,-29 13,-56 -6,-84 -34,-48 -54,-96 -74,-151 -37,-104 -59,-205 -63,-314 0,-12 -1,-22 -2,-30l-1 0 -3 -169c-3,-8 -6,-17 -8,-28 -4,-24 -2,-56 -3,-84 -1,-28 -4,-51 -5,-68 0,-1 0,-2 0,-3l-28 21 -15 27c0,27 0,57 2,85 2,44 5,82 8,125 2,43 3,90 7,134 13,135 36,255 86,381 11,28 19,50 30,70 11,19 23,35 23,50 0,14 -14,27 -37,30 -23,3 -56,-3 -76,-9 -20,-7 -28,-14 -36,-27 -8,-13 -17,-30 -25,-51 -8,-20 -14,-43 -18,-62 -4,-19 -6,-33 -11,-46 -5,-13 -13,-24 -22,-23 -8,1 -17,13 -19,31 -3,18 1,40 11,87 10,47 27,118 37,169 10,51 12,82 8,122 -3,40 -12,90 -20,131 -8,41 -15,75 -23,105 -8,30 -16,57 -27,92 -11,35 -26,77 -35,105 -9,28 -12,42 -18,54 -7,12 -17,23 -25,18 -8,-5 -14,-25 -21,-43 -8,-18 -17,-32 -30,-66 -13,-33 -31,-85 -44,-134 -14,-48 -24,-93 -30,-149 -6,-56 -10,-123 -11,-170 -1,-48 0,-76 9,-109 9,-33 26,-71 38,-97 11,-26 16,-39 22,-52 6,-14 12,-28 9,-40 -2,-12 -14,-20 -24,-16 -10,4 -18,21 -27,37 -8,16 -17,30 -30,46 -13,15 -32,31 -47,41 -15,10 -28,14 -40,16 -13,3 -26,4 -39,5 -12,1 -24,2 -30,-5 -7,-8 -10,-25 -4,-45 5,-21 19,-45 31,-79 12,-34 23,-77 29,-106 6,-29 8,-43 13,-75 5,-31 12,-79 16,-110 4,-31 3,-45 5,-60 2,-16 7,-34 11,-49 4,-15 7,-28 11,-50 4,-23 8,-55 10,-82 2,-23 3,-42 3,-55l2 1zm-315 2241c17,-25 65,-95 101,-150 22,-33 33,-63 50,-65 53,-7 -2,70 -7,79 -145,229 -290,445 -608,538 -162,47 -381,69 -501,-53 -19,-19 -33,-41 -40,-67 -7,-27 -6,-99 33,-114 32,-12 43,6 37,28 -11,39 -9,71 20,105 99,114 304,113 447,64 217,-74 356,-200 468,-365zm-499 1082c-26,5 -104,12 -160,18 -32,3 -56,0 -62,11 -21,36 59,26 68,25 234,-19 486,-79 641,-282 18,-24 38,-50 49,-81 22,-65 -6,-65 -24,-24 -21,49 -57,90 -85,120 -123,132 -263,183 -427,213zm1899 -19c26,7 104,20 160,31 32,6 56,5 62,17 21,38 -59,21 -68,19 -234,-39 -486,-119 -641,-335 -18,-25 -38,-53 -49,-85 -22,-67 6,-64 24,-22 21,51 57,95 85,127 123,142 263,205 427,248zm-364 -1100c-28,-40 -106,-209 -151,-215 -53,-7 2,70 7,79 145,229 290,445 608,538 112,33 310,60 412,8 59,-29 114,-71 129,-128 7,-27 6,-99 -33,-114 -32,-12 -43,6 -37,28 11,39 9,71 -20,105 -99,114 -304,113 -447,64 -217,-74 -356,-200 -468,-365zm-21 -1293c167,185 357,351 552,497 576,432 1254,416 1924,235 68,-18 139,-38 214,-59 72,-20 75,-62 -27,-40 -83,18 -140,42 -214,61 -697,179 -1281,204 -1876,-239 -195,-145 -382,-307 -547,-488 -9,11 -17,21 -26,32l0 1zm-120 -606c-27,-28 -37,-67 -58,-68 -72,-5 2,70 10,79 209,232 381,327 811,412 200,40 593,-9 648,-159 10,-27 9,-100 -46,-112 -45,-11 -59,7 -51,29 15,38 40,66 0,101 -242,210 -832,68 -1052,-71 -147,-93 -154,-99 -263,-211l1 0zm-877 620c-164,179 -349,340 -539,483 -576,432 -1254,416 -1924,235 -68,-18 -139,-38 -214,-59 -72,-20 -75,-62 27,-40 83,18 140,42 214,61 697,179 1281,204 1877,-239 186,-138 364,-291 523,-462 12,7 25,13 37,20l-1 1zm-28 -599c27,-28 37,-67 58,-68 72,-5 -2,70 -10,79 -230,258 -470,343 -785,391 -204,31 -593,-9 -648,-159 -10,-27 -9,-100 46,-112 45,-11 59,7 51,29 -15,38 -40,66 0,101 242,210 832,68 1052,-71 147,-93 128,-78 237,-190l-1 0zm266 -1158c35,-45 59,-92 82,-95 53,-7 -2,70 -7,79 -85,134 -262,353 -565,414 -123,25 -294,17 -349,-120 -13,-33 24,-47 36,-29 80,124 202,122 332,89 299,-76 402,-251 470,-339l1 1zm420 0c-35,-45 -59,-92 -82,-95 -53,-7 2,70 7,79 85,134 262,386 565,446 123,25 293,-15 349,-152 13,-33 -24,-47 -36,-29 -80,124 -202,155 -332,122 -299,-76 -402,-283 -470,-371l-1 0zm-342 275c30,160 33,308 149,423 100,-114 106,-328 147,-477l42 82c-24,170 -82,389 -176,488 -132,-104 -150,-243 -205,-469l44 -46 -1 -1zm615 -926c2,178 -60,388 -1,598 -197,-83 -303,-249 -321,-497 -7,-96 37,-40 42,0 12,117 82,286 208,384 24,-181 -15,-238 20,-403 7,-32 11,-66 17,-98 18,-95 35,-75 35,16zm-942 -5c-8,177 47,390 -19,598 199,-76 311,-239 337,-486 10,-96 -36,-41 -42,-1 -16,116 -92,283 -221,377 -18,-181 23,-237 -6,-403 -6,-32 -9,-67 -14,-99 -15,-96 -32,-77 -36,15l1 -1zm326 -411c30,160 33,308 149,423 100,-114 106,-328 147,-477l42 82c-24,170 -82,389 -176,488 -132,-104 -150,-243 -205,-469l44 -46 -1 -1zm-420 -626c23,179 169,494 113,699 233,-93 351,-265 357,-513 2,-97 -48,-38 -50,2 -7,117 -81,290 -228,395 -17,-74 -31,-149 -45,-224 -25,-132 -70,-250 -104,-377 -32,-117 -58,-95 -43,18zm1172 -32c-10,177 -119,533 -121,723 -233,-93 -329,-258 -334,-506 -2,-96 48,-37 50,3 7,117 81,290 228,395 41,-179 55,-372 108,-535 10,-32 18,-66 27,-97 28,-94 47,-73 42,18l0 -1zm-618 4250c2,-7 31,-60 40,-52 8,8 18,110 18,124 1,26 -2,51 -3,71 -2,36 -6,74 -5,110l33 1257c1,24 6,133 -29,129 -33,-3 -23,-81 -22,-108 3,-125 6,-251 1,-376l-38 -834c-4,-89 5,-173 2,-262 -1,-28 -2,-46 3,-60l0 1z"/>
      <path id="_76178232" class="fil2" d="M15565 11447c86,69 218,139 363,298 128,139 237,251 358,305 37,17 106,54 146,65 -62,32 -101,38 -167,41 -157,8 -318,11 -474,17 -41,2 -80,-80 6,-78 163,4 275,9 464,8 6,0 9,-7 14,-10 -125,-39 -241,-169 -394,-318 -157,-153 -247,-226 -339,-298 -50,-39 11,-42 24,-32l-1 2zm62 784c82,156 243,305 230,480 -13,186 -67,98 -152,-3 -115,-138 -460,-335 -582,-434 -47,-38 -39,-110 32,-51 168,141 546,335 636,475 -15,-183 -137,-291 -218,-440 -33,-62 26,-78 53,-26l1 -1zm-469 -849c169,197 349,398 386,648 -290,44 -537,-156 -737,-242 -10,-4 -27,-87 36,-57 200,96 382,253 607,227 -32,-216 -202,-370 -346,-540 -20,-23 7,-91 54,-36zm-789 -80c111,144 230,258 256,511 -131,-146 -332,-274 -491,-402 -54,-44 -63,6 -30,41 148,154 404,309 559,477 46,-280 -55,-441 -206,-632 -32,-40 -76,-32 -89,6l1 -1zm167 -439l-72 32c159,119 313,190 555,304 -111,92 -621,-126 -822,-198l-38 58c267,81 795,332 984,125 -213,-64 -435,-193 -606,-320l-1 -1zm-3462 582c-86,67 -206,151 -343,301 -128,139 -244,218 -365,273 -37,17 -106,49 -146,60 52,88 208,40 300,57 126,22 249,1 376,7 36,2 49,-71 -2,-69 -175,8 -305,0 -503,-1 -6,0 -9,-7 -14,-10 125,-39 248,-137 401,-285 152,-148 236,-235 324,-305 62,-49 6,-55 -29,-28l1 0zm-46 794c-77,156 -211,300 -199,472 13,186 67,98 152,-3 117,-140 503,-369 643,-469 39,-28 35,-96 -29,-53 -184,124 -608,370 -699,512 15,-177 104,-293 185,-435 46,-80 -26,-76 -52,-24l-1 0zm461 -843c-166,192 -338,391 -375,634 260,24 497,-153 737,-242 11,-4 54,-105 -23,-67 -197,97 -398,263 -620,238 33,-217 209,-342 355,-515 19,-23 -16,-115 -74,-48zm902 -65c-111,144 -282,318 -309,571 134,-149 394,-339 554,-471 48,-40 43,24 20,54 -138,177 -457,386 -611,553 -63,-347 105,-520 256,-712 32,-40 76,-32 89,6l1 -1zm-268 -468l72 32c-159,119 -313,190 -555,304 111,92 635,-40 836,-111l38 58c-267,81 -810,245 -998,38 213,-64 435,-193 606,-320l1 -1z"/>
      <g>
       <path class="fil9" d="M15398 9981c0,-14 -16,-18 -32,-14 -20,5 -42,3 -62,-2 -16,-4 -34,2 -32,17 17,197 58,431 189,592 6,7 31,38 39,35 8,-3 -1,-42 -3,-50 -39,-190 -100,-383 -100,-578l1 0zm2235 -4922c-8,15 9,26 27,24 20,-1 42,3 59,14 14,9 33,11 38,-4 112,-378 298,-776 226,-1168 -3,-18 -40,-15 -40,3 0,352 -139,815 -309,1132l-1 -1zm726 540c-14,11 -5,32 13,32 23,14 19,6 35,36 0,16 24,24 36,12 291,-305 623,-575 780,-962 2,-8 25,-70 18,-74 -9,-5 -49,52 -55,60 -247,344 -480,627 -827,896zm-8 1073c-19,2 -19,23 -5,35 10,8 13,22 13,34 -1,14 8,28 23,25 295,-60 1050,-284 1234,-440 6,-6 81,-60 78,-66 -5,-8 -91,33 -101,37 -371,153 -834,328 -1241,375l-1 0zm-41 797c-18,-4 -24,13 -20,30 4,17 -6,36 -14,52 -7,13 -1,29 15,29 294,17 1055,65 1316,-64 9,-4 55,-26 53,-34 -3,-8 -55,-1 -65,0 -356,34 -935,67 -1284,-13l-1 0zm-126 903c-15,-8 -29,6 -30,22 -1,13 -10,27 -21,35 -13,10 -18,25 -3,33 290,152 1124,468 1430,486 10,0 78,2 80,-6 2,-8 -63,-26 -72,-29 -419,-126 -956,-315 -1384,-541zm-544 968c-8,-9 -23,-7 -33,1 -18,14 -38,27 -60,35 -14,5 -24,18 -15,29 428,525 1177,1271 1700,1582 9,5 71,38 77,31 6,-7 -45,-55 -53,-61 -599,-466 -1124,-1063 -1616,-1618l0 1zm-1087 503c-6,-14 -23,-12 -37,-3 -19,12 -42,19 -65,22 -15,2 -28,10 -24,23 185,567 609,1234 966,1691 7,8 44,45 52,38 6,-5 -14,-53 -19,-59 -355,-523 -639,-1139 -874,-1713l1 1z"/>
       <path class="fil9" d="M17136 8573c145,184 228,360 211,592 -249,14 -483,-121 -720,-306 203,272 608,407 774,390 12,-1 26,-14 27,-25 12,-113 -105,-534 -291,-652l-1 1zm-714 394c10,36 19,72 26,108 34,174 31,357 -43,539 -242,-47 -445,-269 -621,-504 142,307 467,537 636,562 12,2 29,-7 33,-17 40,-92 119,-396 -31,-688zm-875 171c-2,223 -60,443 -203,630 -196,-91 -320,-338 -416,-599 -13,207 270,603 414,659 11,4 30,0 37,-9 60,-55 225,-430 168,-680l0 -1zm2359 -695c9,-6 16,-22 12,-32 -14,-37 -105,-285 -306,-378 96,89 162,202 227,368 -189,97 -381,98 -587,48 193,110 517,76 654,-6zm216 -831c6,-8 5,-26 -2,-33 -40,-49 -216,-188 -374,-200 105,46 196,117 299,220 -101,128 -215,220 -391,241 255,16 419,-162 468,-228zm75 -816c3,-10 -4,-26 -13,-31 -65,-35 -202,-93 -403,-52 120,5 226,36 338,92 -61,164 -186,278 -353,357 284,-101 395,-253 432,-366l-1 0zm104 -1022c-1,-15 -18,-28 -34,-26 -97,9 -530,157 -724,389 203,-163 408,-282 679,-312 0,310 -194,593 -469,756 368,-107 558,-559 547,-808l1 1zm-717 -522c-6,-11 -26,-17 -38,-13 -110,39 -471,260 -534,529 107,-214 278,-366 521,-457 126,237 81,462 -36,690 210,-233 182,-584 86,-749l1 0z"/>
      </g>
      <g>
       <path class="fil9" d="M11199 9981c0,-14 17,-18 32,-14 20,5 42,3 62,-2 16,-4 34,2 32,17 -22,197 -70,431 -204,592 -12,14 -40,2 -36,-15 44,-190 111,-383 115,-578l-1 0zm-2103 -4922c7,15 -10,26 -28,24 -20,-1 -42,3 -59,14 -14,9 -33,11 -37,-4 -102,-378 -277,-776 -195,-1168 4,-18 41,-15 40,3 -10,352 117,815 279,1132l0 -1zm-741 540c13,11 2,26 -14,32 -16,6 -29,21 -36,36 -7,15 -25,24 -36,12 -282,-305 -608,-575 -754,-962 -4,-17 27,-28 37,-14 238,344 463,627 802,896l1 0zm-21 1073c19,2 19,23 4,35 -10,8 -14,22 -13,34 1,14 -9,28 -24,25 -294,-60 -1042,-284 -1222,-440 -13,-13 6,-36 24,-29 367,153 825,328 1231,375zm18 797c18,-4 24,13 20,30 -5,17 5,36 13,52 6,13 0,29 -16,29 -294,17 -1056,65 -1314,-64 -17,-8 -7,-36 13,-34 355,34 934,67 1284,-13zm102 903c16,-8 29,6 29,22 0,13 9,27 21,35 13,10 17,25 3,33 -294,152 -1137,468 -1443,486 -19,0 -25,-28 -7,-35 423,-126 964,-315 1398,-541l-1 0zm519 968c9,-9 23,-7 33,1 17,14 37,27 59,35 14,5 24,18 14,29 -442,525 -1211,1271 -1743,1582 -18,9 -38,-18 -23,-30 612,-466 1152,-1063 1660,-1618l0 1zm1074 503c6,-14 21,-8 37,-3l64 22c14,5 28,10 23,23 -200,567 -642,1234 -1012,1691 -13,14 -44,-5 -33,-21 369,-523 669,-1139 921,-1713l0 1z"/>
       <path class="fil9" d="M9499 8573c-150,184 -238,360 -226,592 249,14 487,-121 728,-306 -210,272 -619,407 -784,390 -12,-1 -25,-14 -26,-25 -9,-113 119,-534 309,-652l-1 1zm704 394c-11,36 -21,72 -29,108 -39,174 -41,357 28,539 244,-47 452,-269 634,-504 -151,307 -481,537 -651,562 -12,2 -29,-7 -33,-17 -38,-92 -109,-396 50,-688l1 0zm870 171c-4,223 48,443 186,630 198,-91 329,-338 432,-599 8,207 -286,603 -432,659 -11,4 -30,0 -37,-9 -59,-55 -213,-430 -150,-680l1 -1zm-2341 -695c-9,-6 -15,-22 -11,-32 15,-37 113,-285 316,-378 -99,89 -167,202 -237,368 187,97 379,98 585,48 -196,110 -519,76 -653,-6zm-194 -831c-6,-8 -4,-26 3,-33 41,-49 221,-188 379,-200 -107,46 -199,117 -305,220 97,128 209,220 384,241 -255,16 -415,-162 -462,-228l1 0zm-54 -816c-3,-10 5,-26 14,-31 66,-35 205,-93 404,-52 -120,5 -227,36 -340,92 56,164 179,278 343,357 -281,-101 -388,-253 -422,-366l1 0zm-76 -1022c1,-15 18,-28 34,-26 97,9 526,157 713,389 -199,-163 -401,-282 -671,-312 -8,310 178,593 448,756 -365,-107 -543,-559 -525,-808l1 1zm731 -522c7,-11 26,-17 39,-13 109,39 464,260 519,529 -101,-214 -268,-366 -509,-457 -133,237 -94,462 17,690 -203,-233 -166,-584 -66,-749z"/>
      </g>
      <g>
       <path class="fil9" d="M15324 8843c1,-8 -9,-14 -17,-11l-18 9 -17 -14c-7,-6 -19,-1 -20,8 -1,65 2,138 15,207 11,55 28,108 55,152 6,9 23,4 22,-6 -2,-24 -5,-50 -8,-78 -10,-90 -21,-191 -13,-267l1 0z"/>
       <path class="fil9" d="M15992 8722c57,123 120,240 187,344 6,9 26,0 21,-10 -54,-111 -103,-227 -147,-346 -20,4 -40,8 -61,12z"/>
       <path class="fil9" d="M16698 8540c86,91 171,170 249,225 9,6 24,-8 16,-16 -66,-67 -138,-149 -212,-238 -17,10 -35,19 -52,28l-1 1z"/>
       <path class="fil9" d="M17152 8137c127,56 239,98 286,102 11,1 16,-15 6,-20 -26,-13 -72,-34 -127,-61 -40,-19 -86,-41 -134,-64 -10,15 -20,29 -31,43z"/>
       <path class="fil9" d="M17361 7593c15,2 30,3 45,5 119,12 223,15 266,1 11,-3 8,-20 -3,-21 -53,-3 -177,-16 -310,-34 1,16 2,32 3,49l-1 0z"/>
       <path class="fil9" d="M17429 7063c21,-3 41,-6 61,-10 122,-21 139,-35 182,-63 9,-6 1,-21 -10,-19 -72,16 -110,29 -248,49 5,14 10,29 14,43l1 0z"/>
       <path class="fil9" d="M17292 6715c9,-6 17,-13 26,-19 183,-132 239,-173 295,-300 4,-10 -12,-19 -20,-11 -126,126 -214,207 -297,272 -11,8 -21,16 -32,24 9,10 18,21 26,32 0,1 1,1 1,2l1 0z"/>
       <path class="fil9" d="M16810 6512c3,-3 6,-7 9,-10 195,-221 234,-265 276,-416 3,-10 -17,-17 -22,-7 -33,69 -108,179 -200,289 -36,44 -75,87 -116,128 18,5 35,11 52,17l1 -1z"/>
      </g>
      <g>
       <path class="fil9" d="M11314 8843c-1,-8 9,-14 17,-11l18 9 17 -14c7,-6 19,-1 20,8 1,65 -2,138 -15,207 -11,55 -28,108 -55,152 -5,9 -23,4 -22,-6 2,-24 5,-50 8,-78 10,-90 21,-191 13,-267l-1 0z"/>
       <path class="fil9" d="M10646 8722c-57,123 -120,240 -187,344 -6,9 -26,0 -21,-10 54,-111 103,-227 147,-346 20,4 40,8 61,12z"/>
       <path class="fil9" d="M9940 8540c-86,91 -171,170 -249,225 -9,6 -24,-8 -16,-16 66,-67 138,-149 212,-238 17,10 35,19 52,28l1 1z"/>
       <path class="fil9" d="M9486 8137c-127,56 -239,98 -286,102 -11,1 -16,-15 -6,-20 26,-13 72,-34 127,-61 40,-19 86,-41 134,-64 10,15 20,29 31,43z"/>
       <path class="fil9" d="M9277 7593c-15,2 -30,3 -45,5 -119,12 -223,15 -266,1 -11,-3 -8,-20 3,-21 53,-3 177,-16 310,-34 -1,16 -2,32 -3,49l1 0z"/>
       <path class="fil9" d="M9267 7052c-21,-3 -41,-6 -61,-10 -122,-21 -196,-46 -239,-75 -9,-6 -1,-21 10,-19 72,16 168,41 305,60 -5,14 -10,29 -14,43l-1 1z"/>
       <path class="fil9" d="M9415 6727c-9,-6 -17,-13 -26,-19 -183,-132 -205,-138 -260,-266 -4,-10 12,-19 20,-11 126,126 179,173 263,238 11,8 21,16 32,24 -9,10 -18,21 -26,32 0,1 -1,1 -1,2l-2 0z"/>
       <path class="fil9" d="M9828 6512c-3,-3 -6,-7 -9,-10 -195,-221 -234,-265 -276,-416 -3,-10 17,-17 22,-7 33,69 108,179 200,289 36,44 75,87 116,128 -18,5 -35,11 -52,17l-1 -1z"/>
      </g>
      <path class="fil2" d="M11637 7827c-9,24 -21,45 -36,65 88,4 162,-36 242,-99 37,-5 77,-9 117,-14 -92,93 -237,187 -456,224 20,-37 34,-91 44,-155 27,-7 57,-15 89,-21zm3089 37c0,14 1,29 1,43 -217,94 -324,21 -443,-111 26,3 51,5 75,8 61,53 126,88 249,36 43,8 82,16 117,24l1 0zm-986 -109c54,106 118,182 188,205 46,-57 74,-119 91,-188 21,2 41,3 62,5 -23,116 -66,223 -140,320 -122,-71 -201,-190 -266,-345 22,1 44,2 65,3zm-732 -19c29,78 72,149 136,207 51,-58 84,-128 109,-205 29,1 59,1 88,2 -43,150 -102,292 -180,373 -123,-97 -174,-215 -218,-378 13,0 25,0 38,0 9,0 18,0 27,0l0 1zm-709 17c43,107 101,183 168,207 60,-66 96,-137 120,-219 20,-1 41,-1 62,-2 -34,131 -89,250 -181,357 -114,-70 -181,-187 -230,-340 21,-1 41,-3 63,-4l-2 1zm-457 295c15,304 113,575 251,624 133,-147 148,-322 177,-575l57 -64c-13,299 -51,563 -234,776 -192,-118 -253,-373 -315,-703l64 -57 0 -1zm765 68c30,221 42,481 218,639 138,-157 147,-410 202,-616l57 113c-34,234 -113,536 -243,673 -182,-143 -207,-336 -283,-648l49 -162 0 1zm794 0c30,221 42,481 218,639 138,-157 147,-410 202,-616l57 113c-34,234 -113,536 -243,673 -182,-143 -207,-336 -283,-648l49 -162 0 1zm878 -68c15,304 113,575 251,624 133,-147 148,-322 177,-575l57 -64c-13,299 -51,563 -234,776 -192,-118 -253,-373 -315,-703l64 -57 0 -1zm-329 867c15,304 113,575 251,624 133,-147 148,-322 177,-575l57 -64c-13,299 -51,563 -234,776 -192,-118 -253,-373 -315,-703l64 -57 0 -1zm-906 -5c30,221 42,481 218,639 138,-157 147,-410 202,-616l57 113c-34,234 -113,536 -243,673 -182,-143 -207,-336 -283,-648l49 -162 0 1zm-828 5c15,304 113,575 251,624 133,-147 148,-322 177,-575l57 -64c-13,299 -51,563 -234,776 -192,-118 -253,-373 -315,-703l64 -57 0 -1zm381 709c30,195 42,425 218,566 138,-139 147,-363 202,-545l57 100c-34,207 -113,475 -243,595 -182,-127 -207,-297 -283,-573l49 -143zm1671 352c142,52 3,585 211,761 -304,71 -521,-2 -654,-215 17,-13 39,-40 47,-45 57,101 234,216 462,211 -64,-243 -83,-491 -66,-712zm-1852 0c-19,278 -8,568 -194,784 290,71 452,-40 592,-251l-66 -32c-106,134 -275,308 -405,220 134,-186 84,-454 121,-665l-49 -56 1 0zm628 326c42,221 57,523 218,681 138,-157 147,-452 202,-658l57 113c-34,234 -113,536 -243,673 -182,-143 -207,-336 -283,-648l49 -162 0 1zm447 -606c30,183 42,398 218,530 138,-130 147,-340 202,-510l57 94c-34,194 -113,444 -243,557 -182,-119 -207,-278 -283,-537l49 -134z"/>
      <path class="fil2" d="M12767 6342c-4,46 -9,89 -15,136 -10,-2 -37,-13 -64,-19 5,-51 6,-71 11,-123 4,-47 75,-68 69,5l-1 1zm669 114c-1,12 -1,24 -2,36 -3,0 -5,1 -8,1 -15,-24 -31,-46 -53,-64 15,-107 74,-152 63,27m291 224c23,-58 44,-117 67,-174 53,-133 95,-20 69,37 -22,67 -49,140 -80,212 0,0 0,0 0,0 -8,-11 -16,-22 -24,-33 -9,-13 -17,-29 -29,-39 0,0 0,0 0,0 -1,-1 -2,-2 -3,-3zm382 -47c-22,-63 -40,-132 -54,-204l-3 -16c-21,-89 -64,8 -53,47 20,66 39,128 59,186l51 -13zm313 159c32,-115 29,-234 28,-398 0,-71 45,-134 52,-10 11,222 1,425 -82,608 -3,-1 -5,-3 -10,-5 26,-45 41,-134 12,-195zm577 -1829c-11,58 -10,70 -13,124 -7,112 9,223 38,329 25,93 53,188 -13,88 -20,-30 -25,-63 -36,-99 -25,-81 -34,-176 -33,-285 1,-68 3,-110 20,-175 13,-46 53,-63 37,18zm-3063 1732c78,-129 160,-227 302,-375 31,-32 145,-45 49,38 -123,107 -201,189 -254,292 -35,9 -69,24 -98,45l1 0zm376 101c68,-32 120,-67 200,-113 -5,5 -10,11 -14,17 -22,33 -45,62 -69,93 0,0 -1,1 -1,1 -42,24 -64,39 -107,58 0,-19 -3,-38 -9,-57l0 1zm866 -1102c-267,18 -661,246 -628,403 145,67 220,11 423,-24 59,-10 119,19 16,42 -221,48 -344,98 -538,14 26,-248 448,-464 729,-484 45,-3 118,41 -1,49l-1 0zm383 -94c-125,118 -296,402 -286,572 151,-19 225,-115 358,-210 110,-79 37,54 10,75 -155,125 -306,237 -457,250 -27,-214 173,-535 320,-699 83,-93 209,-134 56,12l-1 0zm906 28c-19,234 21,443 116,498 122,-102 146,-203 202,-402 16,-58 69,-99 45,4 -51,220 -107,373 -266,513 -131,-121 -146,-333 -149,-606 0,-38 61,-114 53,-6l-1 -1zm-472 62c-46,142 -97,358 -44,495 133,-62 138,-80 232,-208 85,-115 74,7 43,54 -110,166 -186,232 -325,290 -76,-163 -15,-532 61,-700 36,-79 89,-106 33,68l0 1z"/>
     </g>
     <g>
      <path class="fil3" d="M13746 7041c-63,75 -125,104 -228,93 -16,89 8,93 -85,79 146,86 349,77 464,-57 14,-17 43,-46 37,-71 -33,-45 -48,-76 -18,-128 7,-8 15,-17 22,-25 -32,-62 -27,-135 18,-191 116,-145 401,-88 449,91l0 0c18,66 -5,133 -56,178 156,64 262,-46 396,-24l-5 -56c54,3 118,0 169,19 30,-92 130,-126 219,-127 42,-1 83,10 125,6 44,-4 85,-20 125,-38 165,-75 152,62 66,128 -83,64 -155,157 -166,264l12 132c4,134 -107,200 -229,195 -55,49 -86,71 -129,130 -55,75 -25,168 -13,252 -260,-75 -518,-113 -788,-136 -429,-37 -861,-49 -1292,-45 -515,5 -1034,7 -1518,192l20 -146c5,-130 -79,-181 -165,-257 -149,40 -286,-119 -211,-290l-1 -25c-12,-111 -90,-208 -178,-272 -113,-82 -31,-165 93,-113 36,15 71,28 110,31 42,3 84,-7 126,-6 89,2 188,34 219,127 52,-20 116,-17 171,-19l-6 56c108,-17 247,68 386,26 1,-1 3,-3 4,-4 -49,-44 -70,-110 -50,-174 54,-171 329,-215 433,-72 0,0 0,0 0,0 35,47 41,107 17,161 5,2 10,5 15,7 50,60 50,91 4,154 21,178 332,211 460,149 -43,-18 -35,-54 -45,-100 -61,7 -120,-2 -172,-35 -34,-28 -58,-64 -89,-94 -38,-38 -87,-63 -131,-92 31,-24 61,-48 92,-73 41,-38 73,-84 104,-131 43,-37 89,-58 147,-61 -14,-64 -39,-123 -61,-184 74,25 154,40 225,64 8,-31 31,-58 54,-80 56,-43 122,-76 169,-130 18,-24 37,-47 55,-71 32,32 64,64 98,94 44,38 91,71 138,106 25,22 48,48 59,80 76,-21 148,-38 225,-63 -23,60 -54,122 -66,184 60,3 104,23 148,61 33,49 66,99 111,137 27,23 56,44 85,66 -62,40 -117,72 -165,128l-3 0zm608 62c-22,53 -60,65 -113,78 -17,4 -20,2 -21,19 15,187 184,251 351,265 6,-42 10,-71 34,-107 -47,-16 -75,-29 -110,-64 -26,-37 -35,-69 -46,-112 -4,-13 -7,-22 -17,-31l-78 -49 0 1zm-2466 0l-82 53c-9,12 -12,26 -16,40 -24,95 -61,132 -153,162 25,36 29,65 35,107 142,-12 372,-89 350,-277 -58,-28 -106,-14 -133,-84l-1 -1z"/>
      <g>
       <path class="fil6" d="M13122 6351c62,62 118,100 176,143 48,33 102,121 -28,161 38,2 56,10 56,46 20,-28 44,-36 59,-84 49,-39 82,-23 131,-41 -20,39 -3,82 -57,118 -39,7 -66,23 -82,43 56,8 72,26 71,59 8,-20 25,-49 41,-66 49,-26 138,-13 176,25 33,49 77,113 130,153 -69,43 -94,87 -135,130 -38,36 -131,38 -176,18 -23,-34 -53,-80 -75,-115 -3,36 -15,43 -67,38 26,28 53,53 67,62 43,20 51,56 39,105 -84,-10 -97,-33 -105,-72 -11,-31 -39,-100 -61,-84 -7,34 -10,33 -41,26 -2,90 74,194 158,256 169,98 394,94 541,-59 61,-69 77,-103 57,-161 -41,-46 -28,-51 -15,-66 39,-23 62,36 158,49 84,13 158,-21 154,30 -5,33 -23,39 -59,48 -56,13 -103,26 -74,148 61,220 261,271 469,277 130,8 276,-59 264,-121 -11,-39 -71,-16 -121,13 -28,10 -87,16 -128,8 7,-41 44,-80 102,-87 49,-5 110,16 115,-16 8,-118 -169,-28 -241,-43 -144,-39 -61,-151 -164,-205 79,48 238,-107 325,3 51,79 43,66 92,108 59,34 136,-26 74,-62 -82,2 -128,-66 -131,-133 61,2 130,20 149,98 69,44 112,-20 57,-46 -84,-18 -64,-138 46,-154 123,-36 151,51 379,-67 -119,74 -229,210 -237,350 -27,-23 -62,-38 -101,-38 -44,0 -83,19 -111,49 -28,30 -46,71 -46,116 0,45 17,87 45,117l0 0c10,11 21,20 33,27 -120,101 -223,165 -194,340 -563,-182 -2902,-231 -3431,0 29,-177 -77,-241 -200,-344 10,-7 19,-14 27,-23 28,-30 46,-72 46,-117 0,-45 -18,-86 -46,-116 -29,-30 -69,-49 -112,-49 -33,0 -63,10 -88,28 -13,-137 -121,-269 -238,-340 230,118 258,31 381,67 110,16 130,136 46,154 -54,26 -11,90 57,46 20,-79 89,-97 149,-98 -5,67 -51,135 -131,133 -62,36 15,97 74,62 49,-43 39,-30 92,-108 87,-110 246,44 325,-3 -103,54 -20,166 -166,205 -71,15 -248,-75 -241,43 7,33 67,11 116,16 56,7 95,46 102,87 -41,8 -100,2 -128,-8 -51,-30 -112,-53 -121,-13 -11,62 135,130 264,121 208,-7 409,-57 469,-277 30,-121 -18,-135 -74,-148 -36,-8 -56,-15 -59,-48 -3,-51 71,-16 154,-30 95,-13 118,-72 158,-49 11,15 26,20 -15,66 -20,57 -3,92 57,161 148,153 372,158 541,59 84,-62 159,-166 158,-256 -31,7 -34,8 -41,-26 -21,-16 -49,53 -61,84 -10,39 -21,62 -105,72 -13,-49 -3,-85 39,-105 15,-10 41,-34 67,-62 -53,5 -64,-2 -67,-38 -23,34 -54,80 -77,115 -43,20 -136,18 -174,-18 -43,-43 -66,-87 -135,-130 53,-39 97,-103 130,-153 38,-38 126,-51 176,-25 16,16 33,46 41,66 -2,-33 15,-51 71,-59 -16,-20 -43,-36 -82,-43 -54,-36 -39,-79 -57,-118 48,18 82,2 131,41 15,48 39,56 59,84 -2,-36 18,-44 56,-46 -112,-41 -75,-128 -28,-161 57,-43 131,-80 177,-143l-1 0zm153 484c0,45 -18,87 -46,117 -29,30 -69,49 -113,49 -44,0 -84,-19 -113,-49 -29,-30 -46,-72 -46,-117 0,-46 18,-88 46,-118 29,-31 69,-50 114,-50 44,0 85,19 113,50 28,30 46,72 46,118l-1 0z"/>
       <path class="fil0" d="M14212 6987c73,-7 159,-62 133,-147 -31,-100 -159,-141 -253,-116 -64,17 -118,70 -99,141 24,88 136,132 219,122zm-2062 -8c38,-18 71,-50 84,-91 8,-26 7,-53 -6,-77l0 0c-21,-41 -67,-65 -111,-72 -56,-9 -116,4 -162,37 -54,39 -85,108 -42,168l0 0c52,71 166,72 237,36l0 -1z"/>
       <path class="fil7" d="M15235 7311c0,74 -56,135 -126,135 -69,0 -125,-61 -125,-135 0,-72 56,-133 125,-133 71,0 126,61 126,133l0 0zm-1992 -476c0,74 -57,135 -128,135 -71,0 -128,-61 -128,-135 0,-75 57,-136 128,-136 71,0 128,61 128,136l0 0zm-1997 476c0,74 -57,135 -126,135 -71,0 -126,-61 -126,-135 0,-72 56,-133 126,-133 69,0 126,61 126,133l0 0z"/>
      </g>
     </g>
    </g>
   </g>
  </g>
 </g>
</svg>
