<svg id="Слой_1" data-name="Слой 1" xmlns="http://www.w3.org/2000/svg" viewBox="0 0 1500 1000"><defs><style>.cls-1{fill:#cd0000;}.cls-2{fill:#071b54;}</style></defs><title>Флаг ДВР</title><rect class="cls-1" width="1500" height="1000"/><rect class="cls-2" x="125.13" y="-125" width="500" height="750" transform="translate(625.13 -125.13) rotate(90)"/><path id="path17329" class="cls-1" d="M316.73,43c-21.27,2.51-10,19.4,1.25,28.15V209.36L307.35,220v10s115.71-.63,106.33,0c25-8.13,58.17-35-2.5-107.59,33.78-41.28,18.76-75.68.62-78.81H316.73Zm35.65,28.78h38.16c12.51,23.14-18.14,43.16-38.16,44.41Zm32.53,70.05c27.52,25.65,4.38,68.18-31.28,52.55V160.57Z"/><path id="path17269" class="cls-1" d="M149.19,254.67c-1.79-.6-11.9,11.89-8.92,21.41,1.18.59,15.46,6.54,15.46,6.54l-20.82,98.72-18.43,4.16v55.31l28,.6,8.32-15.47h60.66l13.09,15.47,33.3.59,2.38-58.28-23.19-3,.59-98.13s9.52-7.14,11.3-12.49c1.78-4.16.6-13.08.6-13.08l-102.29-2.38ZM198,289.16a14.33,14.33,0,0,1,7.73,2.38l-1.78,88c-10.11,1.78-20.22,1.18-30.93,0-2.37-14.87,3-89.81,25-90.4Z"/><path id="path19478" class="cls-1" d="M501.3,254.87V275.3l13.17,4.61L513.16,408.4,500,422.23V442h67.86V423.55L558.62,413V378.09c38.22-18.45,74.45-37.56,79.07-79.73V254.87Zm59.3,35.59,27,.65c2.64,1.32,5.27,4,5.93,6.59,2,9.23-2,19.11-32.94,32.29Z"/></svg>