<?xml version="1.0" encoding="UTF-8" standalone="no"?>
<!-- Creator: CorelDRAW -->

<svg
   xmlns:dc="http://purl.org/dc/elements/1.1/"
   xmlns:cc="http://creativecommons.org/ns#"
   xmlns:rdf="http://www.w3.org/1999/02/22-rdf-syntax-ns#"
   xmlns:svg="http://www.w3.org/2000/svg"
   xmlns="http://www.w3.org/2000/svg"
   xmlns:sodipodi="http://sodipodi.sourceforge.net/DTD/sodipodi-0.dtd"
   xmlns:inkscape="http://www.inkscape.org/namespaces/inkscape"
   xml:space="preserve"
   width="600px"
   height="300px"
   style="shape-rendering:geometricPrecision; text-rendering:geometricPrecision; image-rendering:optimizeQuality; fill-rule:nonzero"
   viewBox="0 0 600 300"
   id="svg2"
   version="1.1"
   inkscape:version="0.92.1 r15371"
   sodipodi:docname="2 Flag_of_Khiva_1920-1923.svg"><metadata
     id="metadata27"><rdf:RDF><cc:Work
         rdf:about=""><dc:format>image/svg+xml</dc:format><dc:type
           rdf:resource="http://purl.org/dc/dcmitype/StillImage" /><dc:title></dc:title></cc:Work></rdf:RDF></metadata><sodipodi:namedview
     pagecolor="#ffffff"
     bordercolor="#666666"
     borderopacity="1"
     objecttolerance="10"
     gridtolerance="10"
     guidetolerance="10"
     inkscape:pageopacity="0"
     inkscape:pageshadow="2"
     inkscape:window-width="1920"
     inkscape:window-height="1018"
     id="namedview25"
     showgrid="false"
     showguides="false"
     inkscape:guide-bbox="true"
     inkscape:zoom="1.2"
     inkscape:cx="229.69575"
     inkscape:cy="161.04413"
     inkscape:window-x="-8"
     inkscape:window-y="-8"
     inkscape:window-maximized="1"
     inkscape:current-layer="svg2"><inkscape:grid
       type="xygrid"
       id="grid3812" /></sodipodi:namedview><defs
     id="defs4"><style
       type="text/css"
       id="style6">
   
    .fil0 {fill:#009900}
    .fil1 {fill:#FF0000}
    .fil2 {fill:#FFFF00}
   
  </style></defs><path
     inkscape:connector-curvature="0"
     style="fill:#cd0000;fill-opacity:1;fill-rule:nonzero"
     d="M 150,-3e-6 150,150 0,150 0,300 600,300 600,7e-6 z"
     id="path3293"
     sodipodi:nodetypes="ccccccc" /><rect
     style="fill:#009a30;fill-opacity:1;fill-rule:nonzero"
     y="-2.0617676e-006"
     x="9.382324e-007"
     width="150"
     height="150"
     id="rect5" /><g
     style="fill-rule:nonzero"
     id="g9"
     transform="matrix(0.48615137,0,0,0.49223114,1.203615,1.525292)"><line
       style="fill:none;stroke:#ffd700;stroke-width:7;stroke-miterlimit:10;stroke-opacity:1"
       id="line11"
       y2="225.8"
       x2="146.5"
       y1="284"
       x1="199.7"
       stroke-miterlimit="10" /><g
       id="g13"><path
         style="fill:#ffd700;fill-opacity:1"
         inkscape:connector-curvature="0"
         id="path15"
         d="m 128,283 c -0.1,-3 -0.1,-6 -0.1,-9 l 0,-9 c 0,-3 0,-6 0.1,-9 l 0,-4.5 0,-2.3 0,-1.1 c 0,-0.4 0.1,-0.7 0.5,-1.1 l 4.9,-4.3 1.7,2.5 c 3.4,5.2 7.6,9.8 12.6,13.1 2.5,1.6 5.1,2.9 7.9,3.8 2.8,0.9 5.7,1.4 8.6,1.5 5.8,0.3 11.7,-1.2 16.7,-4 2.5,-1.4 4.8,-3.2 6.8,-5.2 2,-2.1 3.5,-4.4 4.7,-7 1.1,-2.6 1.7,-5.3 1.8,-8.1 0.1,-2.8 -0.4,-5.7 -1.2,-8.5 -0.9,-2.8 -2.2,-5.5 -3.8,-8.2 -1.6,-2.6 -3.5,-5.1 -5.6,-7.5 l -1.6,-1.8 -1.7,-1.7 c -0.5,-0.6 -1.1,-1.1 -1.7,-1.7 -0.6,-0.6 -1.1,-1.1 -1.8,-1.7 -1.2,-1.1 -2.4,-2.2 -3.7,-3.2 l -1.9,-1.6 -1.9,-1.5 c -2.6,-2 -5.3,-3.9 -8,-5.8 l -4.1,-2.8 c -1.4,-0.9 -2.8,-1.8 -4.2,-2.8 1.6,0.5 3.2,1.1 4.8,1.6 1.6,0.6 3.1,1.2 4.7,1.9 1.5,0.7 3.1,1.4 4.6,2.1 1.5,0.8 3,1.5 4.5,2.3 3,1.6 5.9,3.4 8.7,5.4 2.8,2 5.5,4.1 8.1,6.6 2.5,2.4 4.9,5.1 7,8 2.1,2.9 3.9,6.2 5.2,9.7 1.3,3.5 2,7.3 2,11.2 0,3.9 -0.8,7.7 -2.2,11.4 -1.5,3.6 -3.6,6.9 -6.2,9.7 -2.6,2.8 -5.6,5.2 -8.9,7 -1.6,1 -3.3,1.7 -5.1,2.4 -1.8,0.6 -3.5,1.2 -5.4,1.6 -3.7,0.9 -7.4,1.2 -11.2,1 -3.7,-0.2 -7.5,-1 -11,-2.2 -3.5,-1.3 -6.8,-3 -9.8,-5.2 -3,-2.2 -5.7,-4.7 -8,-7.5 -2.3,-2.8 -4.2,-5.8 -5.9,-9 l 6.5,-1.7 c 0.4,0.4 0.5,0.7 0.5,1.1 l 0,1.1 0,2.3 0,4.5 c 0,3 0.1,6 0.1,9 l 0,9 c 0,3 0,6 -0.1,9 H 128 z" /></g><path
       style="fill:#ffd700;fill-opacity:1"
       inkscape:connector-curvature="0"
       id="path17"
       d="m 153.5,233.5 c 5.3,-5.3 36.5,-5.5 -25,-26.9 14.8,66 25,26.9 25,26.9 z" /><path
       style="fill:none;stroke:#ffd700;stroke-width:7;stroke-miterlimit:10;stroke-opacity:1"
       inkscape:connector-curvature="0"
       id="path19"
       d="M 178.7,288 V 185.5 c -15.2,-42.5 -42.5,-12 -42.5,-12"
       stroke-miterlimit="10" /><path
       style="fill:#ffd700;fill-opacity:1"
       inkscape:connector-curvature="0"
       id="path21-1"
       d="m 100.7,201.5 c 40,5.2 49.2,-19.5 40.1,-32.5 -6.8,-9.6 -44.3,-7 -40.1,32.5 z" /></g><path
     class="fil2"
     d="m 75.078483,4.999997 4.43038,13.355263 13.29114,0 -10.63292,8.289471 3.98735,13.355266 -11.07595,-8.289476 -10.63291,8.289476 3.98734,-13.355266 -10.63291,-8.289471 13.29114,0 3.98734,-13.355263 z m 2.21519,6.907893 m 8.86076,6.44737 m 1.32911,4.144736 m -3.5443,10.592104 m -3.10127,2.763161 m -11.07595,0 M 66.660753,33.0921 m -3.5443,-10.592104 m 1.32912,-4.144736 m 8.86076,-6.44737"
     id="path3027"
     inkscape:connector-curvature="0"
     style="fill:#ffd700;fill-opacity:1;fill-rule:nonzero" /><path
     style="fill:#ffd700;fill-opacity:1;fill-rule:nonzero"
     inkscape:connector-curvature="0"
     id="path21-7"
     d="m 102.91667,29.999997 c 1.24999,3.29897 2.08332,7.0103 2.08333,10.72165 C 105,56.80412 91.666673,70 75.000003,70 58.333333,70 45,56.80412 45,40.721647 c 0,-3.71134 0.83333,-7.42268 2.08333,-10.72165 -0.41667,1.23711 -0.41666,2.06185 -0.41666,2.8866 -1e-5,11.546393 12.916663,21.030923 28.333333,21.030923 15.41666,10e-6 28.333317,-9.48454 28.333327,-21.030933 0,-0.82473 0,-2.06185 -0.41666,-2.88659 z"
     class="fil2" /></svg>