<?xml version="1.0" encoding="UTF-8" standalone="no"?>
<!-- Created with Inkscape (http://www.inkscape.org/) -->

<svg
   xmlns:dc="http://purl.org/dc/elements/1.1/"
   xmlns:cc="http://creativecommons.org/ns#"
   xmlns:rdf="http://www.w3.org/1999/02/22-rdf-syntax-ns#"
   xmlns:svg="http://www.w3.org/2000/svg"
   xmlns="http://www.w3.org/2000/svg"
   xmlns:sodipodi="http://sodipodi.sourceforge.net/DTD/sodipodi-0.dtd"
   xmlns:inkscape="http://www.inkscape.org/namespaces/inkscape"
   version="1.0"
   width="402"
   height="201"
   id="svg7034"
   sodipodi:docname="2 Flag_of_the_Galician_SSR.svg"
   inkscape:version="0.92.1 r15371">
  <metadata
     id="metadata8">
    <rdf:RDF>
      <cc:Work
         rdf:about="">
        <dc:format>image/svg+xml</dc:format>
        <dc:type
           rdf:resource="http://purl.org/dc/dcmitype/StillImage" />
        <dc:title></dc:title>
      </cc:Work>
    </rdf:RDF>
  </metadata>
  <sodipodi:namedview
     pagecolor="#ffffff"
     bordercolor="#666666"
     borderopacity="1"
     objecttolerance="10"
     gridtolerance="10"
     guidetolerance="10"
     inkscape:pageopacity="0"
     inkscape:pageshadow="2"
     inkscape:window-width="1920"
     inkscape:window-height="1018"
     id="namedview6"
     showgrid="false"
     inkscape:zoom="0.94527363"
     inkscape:cx="69.292105"
     inkscape:cy="100.5"
     inkscape:window-x="-8"
     inkscape:window-y="-8"
     inkscape:window-maximized="1"
     inkscape:current-layer="svg7034" />
  <defs
     id="defs7037" />
  <path
     d="M 0.42861301,100.73818 L 0.42861301,0.23818599 L 201.42861,0.23818599 L 402.42861,0.23818599 L 402.42861,100.73818 L 402.42861,201.23818 L 201.42861,201.23818 L 0.42861301,201.23818 L 0.42861301,100.73818 z "
     style="fill:#cd0000;fill-opacity:1"
     id="path7084" />
  <path
     d="m 25.172697,23.990387 h 18.975586 l 0.332031,8.45019 h -1.162109 c -0.520202,-3.14321 -1.333677,-5.12986 -2.44043,-5.95996 -1.106787,-0.83005 -2.506851,-1.24509 -4.200195,-1.24512 h -3.486328 c -0.730478,3e-5 -1.095712,0.36526 -1.095703,1.09571 v 19.45703 c -9e-6,0.58659 0.138337,0.98503 0.415039,1.19531 0.276683,0.21029 0.730459,0.31543 1.361328,0.31543 h 2.55664 v 1.24512 H 25.172697 v -1.24512 h 1.992188 c 0.94075,0 1.411127,-0.43717 1.411132,-1.31152 v -19.52344 c -5e-6,-0.81899 -0.503585,-1.22849 -1.510742,-1.22852 h -1.892578 z m 24.254883,20.93457 c 0.55338,0 1.023757,0.19922 1.411133,0.59765 0.387363,0.39844 0.581048,0.87435 0.581054,1.42774 -6e-6,0.57552 -0.193691,1.0625 -0.581054,1.46094 -0.387376,0.39843 -0.863287,0.59765 -1.427735,0.59765 -0.553389,0 -1.026533,-0.19922 -1.419433,-0.59765 -0.392907,-0.39844 -0.589359,-0.87989 -0.589356,-1.44434 -3e-6,-0.56445 0.196449,-1.0459 0.589356,-1.44434 0.3929,-0.39843 0.871578,-0.59765 1.436035,-0.59765 z m 24.371094,-19.02539 1.145507,-2.37403 h 1.045899 l 0.43164,9.87793 h -1.112304 c -0.730489,-2.77797 -1.649108,-4.8255 -2.75586,-6.14257 -1.372413,-1.64907 -3.010432,-2.47361 -4.914062,-2.47364 -2.058605,3e-5 -3.735361,0.91864 -5.030274,2.75586 -1.294929,1.83726 -1.942389,4.94728 -1.942382,9.33008 -7e-6,3.68555 0.741529,6.49675 2.224609,8.43359 1.261709,1.63803 3.03254,2.45704 5.3125,2.45703 1.992171,10e-6 3.663394,-0.63915 5.013672,-1.91748 1.35024,-1.27831 2.230122,-3.20686 2.639648,-5.78564 h 1.178711 c -0.343121,2.92188 -1.344748,5.16862 -3.004883,6.74023 -1.660174,1.57162 -3.751969,2.35743 -6.27539,2.35743 -2.047538,0 -3.926279,-0.51465 -5.636231,-1.54395 -1.709967,-1.02929 -3.076827,-2.5096 -4.100586,-4.44092 -1.023765,-1.93131 -1.535646,-4.048 -1.535644,-6.35009 -2e-6,-2.44595 0.52848,-4.7425 1.585449,-6.88965 1.056961,-2.14712 2.409987,-3.76023 4.059082,-4.83936 1.649079,-1.07908 3.425444,-1.61863 5.329102,-1.61865 1.062485,2e-5 2.091781,0.18264 3.08789,0.54785 0.996077,0.36526 2.080711,0.99058 3.253907,1.87598 z m 9.5625,19.02539 c 0.55338,0 1.023757,0.19922 1.411132,0.59765 0.387364,0.39844 0.581048,0.87435 0.581055,1.42774 -7e-6,0.57552 -0.193691,1.0625 -0.581055,1.46094 -0.387375,0.39843 -0.863286,0.59765 -1.427734,0.59765 -0.55339,0 -1.026534,-0.19922 -1.419434,-0.59765 -0.392906,-0.39844 -0.589358,-0.87989 -0.589355,-1.44434 -3e-6,-0.56445 0.196449,-1.0459 0.589355,-1.44434 0.3929,-0.39843 0.871578,-0.59765 1.436036,-0.59765 z m 24.371096,-19.02539 1.14551,-2.37403 h 1.0459 l 0.43164,9.87793 h -1.11231 c -0.73049,-2.77797 -1.64911,-4.8255 -2.75586,-6.14257 -1.37241,-1.64907 -3.01043,-2.47361 -4.91406,-2.47364 -2.058608,3e-5 -3.735364,0.91864 -5.030276,2.75586 -1.294929,1.83726 -1.942389,4.94728 -1.942383,9.33008 -6e-6,3.68555 0.74153,6.49675 2.22461,8.43359 1.261708,1.63803 3.03254,2.45704 5.312499,2.45703 1.99218,10e-6 3.6634,-0.63915 5.01368,-1.91748 1.35024,-1.27831 2.23012,-3.20686 2.63964,-5.78564 h 1.17872 c -0.34313,2.92188 -1.34475,5.16862 -3.00489,6.74023 -1.66017,1.57162 -3.75197,2.35743 -6.27539,2.35743 -2.047539,0 -3.926281,-0.51465 -5.636232,-1.54395 -1.709967,-1.02929 -3.076828,-2.5096 -4.100586,-4.44092 -1.023766,-1.93131 -1.535647,-4.048 -1.535644,-6.35009 -3e-6,-2.44595 0.52848,-4.7425 1.585449,-6.88965 1.056961,-2.14712 2.409987,-3.76023 4.059082,-4.83936 1.649079,-1.07908 3.425444,-1.61863 5.329101,-1.61865 1.06249,2e-5 2.09178,0.18264 3.08789,0.54785 0.99608,0.36526 2.08071,0.99058 3.25391,1.87598 z m 9.5625,19.02539 c 0.55338,0 1.02376,0.19922 1.41113,0.59765 0.38737,0.39844 0.58105,0.87435 0.58106,1.42774 -10e-6,0.57552 -0.19369,1.0625 -0.58106,1.46094 -0.38737,0.39843 -0.86328,0.59765 -1.42773,0.59765 -0.55339,0 -1.02653,-0.19922 -1.41943,-0.59765 -0.39291,-0.39844 -0.58936,-0.87989 -0.58936,-1.44434 0,-0.56445 0.19645,-1.0459 0.58936,-1.44434 0.3929,-0.39843 0.87157,-0.59765 1.43603,-0.59765 z m 6.02637,-20.93457 h 12.10254 c 2.7337,2e-5 4.81997,0.61981 6.25879,1.85937 1.43878,1.23961 2.15818,2.86102 2.1582,4.86426 -2e-5,2.00327 -0.66408,3.53061 -1.99219,4.58203 -1.82619,1.44988 -4.07847,2.17482 -6.75683,2.17481 h -4.38282 v 8.38379 c -1e-5,0.48698 0.1162,0.83561 0.34864,1.04589 0.30988,0.26563 0.72492,0.39844 1.24511,0.39844 h 2.78907 v 1.24512 h -11.77051 v -1.24512 h 2.45703 c 0.48697,0 0.84391,-0.09684 1.0708,-0.29053 0.22688,-0.19368 0.34033,-0.45654 0.34033,-0.78857 v -19.57324 c 0,-0.49803 -0.14388,-0.85773 -0.43164,-1.0791 -0.28776,-0.22134 -0.83008,-0.33201 -1.62695,-0.33204 h -1.80957 z m 7.38769,12.26855 h 3.33692 c 2.11392,10e-6 3.63849,-0.43993 4.57373,-1.31982 0.9352,-0.87987 1.40281,-2.33251 1.40283,-4.35791 -2e-5,-1.41665 -0.2103,-2.50405 -0.63086,-3.26221 -0.42059,-0.75812 -1.03761,-1.3198 -1.85107,-1.68506 -0.8135,-0.36521 -2.14992,-0.54783 -4.00928,-0.54785 -1.22853,2e-5 -2.00603,0.11623 -2.33252,0.34863 -0.32651,0.23245 -0.48976,0.63642 -0.48975,1.21192 z m 18.72657,8.66602 c 0.55338,0 1.02375,0.19922 1.41113,0.59765 0.38736,0.39844 0.58105,0.87435 0.58105,1.42774 0,0.57552 -0.19369,1.0625 -0.58105,1.46094 -0.38738,0.39843 -0.86329,0.59765 -1.42774,0.59765 -0.55339,0 -1.02653,-0.19922 -1.41943,-0.59765 -0.39291,-0.39844 -0.58936,-0.87989 -0.58936,-1.44434 0,-0.56445 0.19645,-1.0459 0.58936,-1.44434 0.3929,-0.39843 0.87158,-0.59765 1.43604,-0.59765 z"
     style="font-style:normal;font-variant:normal;font-weight:normal;font-stretch:normal;font-size:34px;line-height:125%;font-family:Century;text-align:start;writing-mode:lr-tb;text-anchor:start;fill:#ffd700;fill-opacity:1"
     id="flowRoot10674"
     inkscape:connector-curvature="0" />
</svg>
