<svg fill-rule="evenodd" height="614" image-rendering="optimizeQuality" shape-rendering="geometricPrecision" text-rendering="geometricPrecision" viewBox="0 0 10230 6138" width="1023" xmlns="http://www.w3.org/2000/svg"><g image-rendering="optimizeQuality" shape-rendering="geometricPrecision" text-rendering="geometricPrecision"><g fill-rule="evenodd"><path d="m-1983.703-548.15866h12599.207v7307.97856h-12599.207z" fill="#fff" stroke-width="1.21093"/><path d="m0 0 11714 3848-428-3848z" fill="#2e7b43" fill-opacity=".994975"/><path d="m11636 4295-11636-4295 11013 7507z" fill="#ba3303" fill-opacity=".994975"/><path d="m9436 6962-9436-6962 5446 7702z"/><path d="m0 0 4336 7429-4336-214z" fill="#ffba05"/></g><g fill="none" stroke="#fff" stroke-width="10.341248"><path d="m-6772.0125-6252.8415c-118.405 40.5709-177.4904 168.4266-162.5716 287.8583v14291.6035c.401 139.6885 131.4376 252.1465 269.135 238.1114h24136.4711c139.688-.401 252.146-131.4373 238.111-269.1351 0-4774.2092 0-9548.4182 0-14322.6273-.4-139.6888-131.437-252.1468-269.135-238.1113-8045.4903 0-16090.9806 0-24136.4709 0-25.1798 4.1002-50.3597 8.2003-75.5396 12.3005z" opacity="0"/><path d="m-6772.0125-3770.9422c-118.405 40.571-177.4904 168.4266-162.5716 287.8583v14291.6039c.401 139.688 131.4376 252.146 269.135 238.111h24136.4711c139.688-.4 252.146-131.437 238.111-269.135 0-4774.2093 0-9548.4183 0-14322.6274-.4-139.6888-131.437-252.1468-269.135-238.1113-8045.4903 0-16090.9806 0-24136.4709 0-25.1798 4.1002-50.3597 8.2003-75.5396 12.3005z"/><path d="m-6772.0125-3770.9422c-118.405 40.571-177.4904 168.4266-162.5716 287.8583v14291.6039c.401 139.688 131.4376 252.146 269.135 238.111h24136.4711c139.688-.4 252.146-131.437 238.111-269.135 0-4774.2093 0-9548.4183 0-14322.6274-.4-139.6888-131.437-252.1468-269.135-238.1113-8045.4903 0-16090.9806 0-24136.4709 0-25.1798 4.1002-50.3597 8.2003-75.5396 12.3005z"/><path d="m-5090.1683-1781.9787c-118.405 40.571-177.4904 168.4266-162.5716 287.8583v14291.6044c.401 139.688 131.4376 252.146 269.135 238.111h24136.4709c139.688-.4 252.146-131.437 238.111-269.135 0-4774.2098 0-9548.4188 0-14322.6279-.4-139.6888-131.437-252.1468-269.135-238.1113-8045.49 0-16090.9804 0-24136.4707 0-25.1798 4.1002-50.3597 8.2003-75.5396 12.3005z"/></g></g><g transform="matrix(1.1188904 0 0 1.0962941 -525.3499 -274.16676)"><path d="m2111.2729 773.22308c-.9154.91542-9.0397 2.41726-18.0579 3.34698-37.8895 3.8762-39.533-4.40606-32.6745 28.05532 4.3982 20.81848-127.6251 98.98329-131.6443 88.32017-4.0192-10.66313-58.2838-36.76321-60.2648-43.46432-5.1492-17.49296-7.3733-17.4715-49.5967.42195-20.7041 8.77508-9.6116 105.86618-9.9763 108.41932-.4935 3.42564-115.185 36.34072-126.3845 19.40552-40.8574-61.79748-53.008-21.27226-76.5799-4.09398-37.6106 27.41236-37.0027 25.70307-16.8922 47.66586 8.4675 9.2471 22.5849 25.1881 31.3672 35.415 8.7822 10.234-66.3581 125.3579-75.4478 117.0405-9.0969-8.3245-41.4121-17.7501-51.7105-26.5323-10.2912-8.7823-39.7472 14.7428-46.4554 8.1561-17.0138-16.692-15.1115-17.7933-49.3322 28.6209-9.5975 13.0232 15.6318 40.2778 61.0233 70.1002 8.7823 5.7714-28.021-12.3541-20.4975-7.2406 7.5307 5.1134 19.3772 176.1999-51.8247 140.7277-33.1765-16.5347-94.7101-15.9349-96.4551-15.2698-2.9823 1.1443-10.7847 16.1914-14.9613 28.8641-1.037 3.1396-3.912 11.0565-6.3864 17.5931-5.2208 13.767-5.328 13.6096 14.4249 20.9973 7.5307 2.8177 15.469 6.0646 17.6503 7.216 2.1741 1.1586 5.8214 2.1026 8.0956 2.1026 2.2743 0 5.1135.8582 6.3078 1.9095 1.1872 1.0513-1.179 20.3312 17.637 26.2528 39.1267 12.3151 54.2167 24.6938 54.2167 28.055 0 1.3159 10.4476-10.1249 6.6286 1.4465-6.5152 19.7386-13.8027 44.9554-18.2653 63.2422-1.0728 4.3911-2.3969-7.7363-3.7772-2.0937-2.4029 9.8193-38.3763 61.8694-47.8093 60.4605-4.3912-.6508 24.8607-.7742-12.5512-3.1467-2.7271-.173-8.6678-2.5317-13.6883-3.2254-5.0133-.6937-14.2532-2.403-20.5252-3.7904-6.2792-1.3946-12.9088-2.7033-14.7325-2.9107-7.2017-.8153-57.1973 33.2244-58.5705 67.6239l-.4577 11.4069 23.9509 1.6806c75.0209 5.2708 83.4644 30.9255 97.9822 32.5203l45.0473 10.8151-23.8256-3.9512c-.7152 37.5319-.7152 78.1319 0 117.4803l5.7284 13.9906-31.4029 18.4851c-14.4249.9298-41.6298 2.6104-60.4529 3.7475-18.8161 1.13-37.2959 2.7462-41.0577 3.5901-3.7689.8368-9.2543 2.024-12.2007 2.6247-4.9633 1.0227-5.2494 1.8952-3.9549 11.8431 5.9788 45.7135 7.5235 52.9581 11.2853 52.8937 3.9549-.072 166.7744 10.5594 174.5483 47.9554 7.3733 35.4651-6.942 35.3543 3.5209 66.6214 8.7179 26.0535 9.4902 30.3731 5.8143 32.6401-3.6116 2.2314 3.9893 11.0602-37.5976 24.7271-20.6396 6.7869-38.8478 13.6596-40.464 15.2759-2.6533 2.6533 12.6226 45.9566 20.5181 58.1573 3.4113 5.2708 41.3388 38.1731 102.6857 7.9072 71.1805-35.1146 37.2306 48.1581 56.4614 77.344l11.0851 16.8279-6.694 5.5353c-3.6831 3.0466-10.8061 8.1672-15.8266 11.3855-15.1687 9.7262-28.9191 35.0012-39.8683 42.8394-5.6426 4.0407-13.6024 9.4474-17.6789 12.0077-10.1553 6.3793-9.5904 8.582 7.7024 29.9797 8.3102 10.2913 15.5906 19.9532 16.177 21.4765 3.6402 9.4259 21.5551 2.1812 38.6976-15.655 5.2494-5.4567 28.9121-7.0523 39.1818-15.8345 10.2627-8.7823 14.9978-6.3381 22.8003-13.547 19.3881-17.9292 82.9727 64.0088 88.9086 65.8968 2.36.7438 8.5963 6.4723 13.8671 12.7228l9.5832 11.364-5.1063 7.402c-2.8035 4.0693-24.6915 59.2843-31.5714 66.8221l-58.2177 35.6397 55.9363-12.9188c15.8982 14.0029 23.1714 20.0532 33.0121 27.4552l9.0969 6.837 5.328-6.4508c2.9322-3.5472 42.0829-11.5679 48.2906-20.9794 40.793-61.7761 75.1295-17.1503 107.7054-.9375 15.9696 7.9527 29.5149 15.7051 30.1013 17.2355.5936 1.5376-12.73 30.2444-29.6007 63.7928-36.7238 73.0328-35.8799 68.6345-14.7038 77.0878 5.6426 2.2527 14.9469 6.1218 20.6683 8.6034 5.7213 2.4816 13.867 4.6772 18.108 4.8917l7.7023.3791 9.4688-27.3694c5.1992-15.0614 103.9065-86.4064 108.2976-85.4838 4.3911.9225 14.146 3.397 21.6767 5.4996 7.5235 2.0954 82.4885 110.1133 90.3627 111.8865-7.5808 37.6248-5.5783 39.3555 47.0222 40.6643l15.9625.4005 1.6091-30.7951c-4.3847-36.5906 104.5595-126.0937 131.7382-97.1383 14.8203-1.276-1.6659 1.2191 26.6052 42.4151 2.9751 109.7422 2.124 105.959 23.5003 104.0638 54.8532-4.8774 53.6875-3.7618 45.2986-43.6108 5.6734 24.2266 45.4581-39.2103 33.0836-121.8142 6.272-1.2444 17.5645-3.9764 25.088-6.0789 7.5307-2.1026 16.2557-4.3268 19.3953-4.9347 3.1325-.615 20.0461-5.6212 37.5748-11.1351 17.5288-5.5068 32.5186-10.0195 33.3053-10.0195 1.981 0 38.4858 53.449 45.0582 72.2721l11.9433 34.2136 7.6737-.3791c4.2195-.2145 12.3509-2.4101 18.0722-4.8917 5.7214-2.4816 15.0257-6.3507 20.6683-8.6034-8.8254-11.661 45.1091-38.6729 1.5633-136.6319-15.0648-33.8892 33.9424-74.764 90.6761-61.724 2.403-2.1741 5.9073-3.2326 8.017-2.4245-6.4674 8.909 65.7626 106.5137 129.7389 42.002 3.1181-2.832 10.2769-9.1613 15.8981-14.0459l10.2197-8.8966-11.364-12.6513c-6.2434-6.9586-19.0591-21.455-28.4707-32.2182-9.4045-10.7561-23.343-26.454-30.9739-34.8858-7.6236-8.4318 50.8907-62.8348 59.6586-75.6219 16.3058-23.7865 92.472 6.3825 97.142 11.267 26.3468 27.5268 30.2873 27.4553 52.9652-1.0155 22.2703-27.9558 22.256-26.5112.5865-41.1649-10.1751-44.5197-36.5246-130.7213-23.0723-157.7045 7.1016-14.2533 14.3248-26.454 16.0555-27.112 1.7307-.6651 14.6276-15.1491 48.2046 1.3355 63.8643 31.3457 79.6616 17.7808 82.1933 9.2917 1.695-5.6712 10.3914-26.9832 17.3714-42.5523 6.036-13.4595 5.4066-13.9386-35.8298-27.4481-20.3068-19.1071-69.0028-54.3093-71.1393-59.8163 9.7191-35.6296 12.8015-47.6944 14.5894-57.056 7.5593-39.6416 9.8907-46.8576 14.8611-46.0423 12.6728 2.0739 108.9877-40.5874 115.56-40.38 2.8035.086 4.5199-6.4794 7.7453-29.5793 1.1371-8.1529 2.7176-19.145 3.5114-24.4229 1.3159-8.768.9798-9.6834-3.9262-10.6918-2.9465-.6078-8.439-1.7879-12.2079-2.6318-6.2792-1.3945-21.9576-27.3253-99.0024-32.0239 0 0-5.9875-21.9265-6.7026-59.4584l-.5579-29.6579s37.5545-38.8037 54.4896-40.0409c16.9423-1.2301 35.9797-12.6012 47.9015-13.5381l21.6696-1.7021-.3433-11.4069c-.5936-19.5312-4.2624-43.0387-7.8311-50.1832-3.6688-7.3304-89.7904-30.9501-95.7477-29.6271-31.76-.8155-60.8315-35.1539-67.0463-53.3834-3.6902-10.8133-6.7011-20.84-6.7011-22.2775 0-3.5615-19.6311-21.9337 19.1094-34.1844 18.1938-5.7571 25.9885-21.9114 28.4987-23.0557 2.5102-1.1442 3.1825-22.6655 13.2163-26.0411 10.0409-3.3756 20.4824-7.5164 23.2071-9.2114l4.9561-3.0752-6.6939-17.7361c-10.1625-26.9403-16.0912-39.0552-19.8173-40.4855-1.8594-.708-36.942-6.6558-63.446 6.346-62.9132 30.8594-68.6733 7.5141-91.9233-27.9009-19.2237-29.2861-19.2809-27.8987 1.6377-42.1019 8.1601-5.5425 20.9902-14.2532 28.5208-19.3595 23.7707-12.7342 48.9327-132.726 9.7795-115.1491-6.9729 6.5867-10.6073-22.8797-20.9272-14.0974-10.3127 8.7822-70.4204 21.7853-79.3886 30.0097-30.1085 27.6412-20.871 26.7986-46.8744-2.1871-21.6124-24.0796-30.8689-24.9223-43.1554-34.1051-11.3068-8.4461-5.3649-20.8613 10.0756-37.539 7.216-7.7953-.2625-1.9689 8.5198-12.1886 8.7822-10.2126 23.4145-26.8044 32.5114-36.874 18.2582-20.2034 19.6671-24.88775 9.9408-33.06925-10.8705-9.14697-41.4439-30.65916-43.5679-30.65916-2.1169 0-34.9851-36.48995-65.6801 9.73843-43.1386 20.93736-43.369 61.74038-98.0434 33.53428-22.7065-11.70733-76.1932-9.8244-41.3503-80.74741 34.0919-69.39255 33.5126-65.02289 9.8549-74.83497-39.6201-16.43451-66.9878-40.99217-72.6161-22.16185-1.7379 5.80715-36.737 49.08918-40.134 59.45909-7.545 23.03549-9.3122 37.31185-32.9127 28.60828-31.0668-11.45696-98.2708-26.71984-95.9251-38.24117 1.0227-5.01331-9.7714-7.79703-8.3411-13.44685 5.3995-21.3334-1.6453-67.01572-1.4665-76.8421.2074-11.6429 14.2179-5.51641-21.0612-9.74304-9.4116-1.12281-19.238-2.70333-21.8341-3.51147-10.9491-3.40419-65.6445-5.52919-68.0903 90.17432-.5793 22.67792-101.0302 21.54632-101.0302 21.54632-4.1193-6.27916-32.1558 13.41911-36.2251-77.51425-.7294-16.30578-2.3958-30.93808-3.6974-32.50429-2.6032-3.13958-9.2256-3.80468-11.836-1.19433" fill="#fff" fill-rule="evenodd" image-rendering="optimizeQuality" shape-rendering="geometricPrecision" text-rendering="geometricPrecision"/><g fill="#c00" fill-rule="nonzero" image-rendering="optimizeQuality" shape-rendering="geometricPrecision" text-rendering="geometricPrecision" transform="matrix(6.4735245 0 0 6.4735245 -6965.5946 -839.6254)"><path d="m1508.8081 316.07215-45.9797 33.40621 17.9789-23.60006z"/><path d="m1480.3911 295.42598-17.5627 54.05238 18.6873-23.36663z"/><path d="m1497.9538 349.47835-17.5627-54.05237-1.2691 29.98477z"/><path d="m1508.8081 316.07215h-56.834l28.4904 12.37035z"/><path d="m1497.9538 349.47836-45.9797-33.40621 29.7089 7.71556z"/></g><g transform="matrix(.24533394 0 0 -.24316793 921.54922 2964.5962)"><path d="m5585 9321c-50-12-74-30-80-59-12-57-131-430-144-451-12-19-225-26-238-8-5 6-18 39-28 72-120.8994 338.3329-2.5574-1.7278-121 339-32.6169 68.4146-34 70-160 56-59-7-349-72-366-102-7-12-16-63-19-113-7-97-43-360-54-386-7-18-119-59-160-59-18 0-36 15-67 56-108 140-189 252-208 287-35 64-57 67-153 19-45-23-111-52-147-65-36-14-102-44-147-67-73-37-83-45-89-75-6-36 8-165 31-265 8-36 18-99 21-141l7-77-161.6547-107.1531c-108.3453 93.1531-12.3453 9.1531-108.3453 93.1531-126 111-261 212-284 212-10 0-46-24-79-52-32-29-96-82-140-118-45-36-94-75-109-87s-40-40-56-63l-28-41 28-87c16-48 59-150 96-227 68-139 68-140 51-169-24-41-78-68-123-62-67 10-234 64-313 100-118 54-123 53-203-56-143-194-171-234-193-278-12-25-33-59-46-77-13-17-24-39-24-48 0-8 42-59 94-113 103-106 216-246 216-269 0-16-77-160-91-168-4-3-95 0-201 6-228 15-259 14-296-5-41-21-202-459-202-496 0-33 43-71 135-117 28-14 77-41 110-61 210-125 239-148 216-176-6-7-16-37-21-67-6-29-17-60-25-68-9-10-58-19-142-27-321-31-432-51-434-77 0-7-2-79-3-162-2-82-7-195-11-251-7-96-6-102 15-122 12-11 34-23 48-27 15-4 61-19 102-35s124-45 183-66c60-20 115-44 123-51 10-10 14-41 14-108 0-111 4-106-130-155-47-17-125-48-175-69-49-22-104-44-122-51-49-18-53-46-27-195 29-169 63-324 74-346 15-27 59-36 270-54 107-9 206-19 220-23 20-6 28-19 43-72 34-120 38-107-54-185-45-39-119-102-163-141-45-39-96-80-113-93-56-39-48-72 82-333 47-95 93-177 102-182 17-9 120 6 324 50 162 34 172 33 209-18 41-57 47-84 24-113-11-12-41-51-69-86-27-35-86-108-131-163-44-56-83-109-87-118-3-10 3-29 16-47 12-16 42-58 66-93 51-73 95-129 164-211 62-73 77-73 232-7 64 27 121 50 127 50 5 0 43 16 83 36 88 43 109 41 150-15 17-21 42-47 57-57 49-33 54-57 25-107-15-24-36-71-48-103-12-33-46-116-76-186-65-151-67-143 49-230 314-235 310-232 351-205 30 19 71 55 194 167 58 52 120 106 139 119 39 28 24 32 156-42 83-46 82-44 65-123-34-150-67-341-67-385 0-26 6-51 13-56 31-24 354-143 388-143 40 0 70 30 124 122 27 46 63 99 80 118s58 73 90 119c80 112 87 116 176 103 48-7 79-18 94-32 23-22 22-17 55-335 8-78 18-142 36-232 2-13 14-29 27-37 57-37 425-80 460-53 22 16 153 348 174 438 8 38 22 76 30 84 10 11 37 15 88 15 95 0 111-13 130-103 8-37 34-109 59-160 24-50 56-121 69-157 33-88 51-97 166-80 121 18 357 67 381 80 10 6 21 25 24 43 9 56 26 322 26 406 0 74 2 83 28 111 30 34 125 67 164 56 14-3 35-26 53-57 17-27 42-66 58-86 15-20 37-52 49-72 19-31 60-82 153-193 13-16 33-28 47-28 12 0 72 23 132 50 61 28 113 50 117 50 19 0 199 114 199 127 0 35-31 214-46 263-17 58-45 222-48 279-1 32 4 39 53 73 61 43 92 47 121 18 11-11 58-47 103-80s103-77 129-98c82-64 149-103 178-104 32-1 47 9 223 151 65 52 125 107 132 122 21 40 5 91-131 414-19 44-34 91-34 105 0 32 67 100 98 100 18 0 223-100 267-130 6-3 58-26 118-49 102-41 109-42 132-27 14 9 325 444 325 473 0 10-24 49-53 87-59 78-162 220-207 285-16 25-30 53-30 63 0 29 48 116 69 128 40 21 163 9 361-36 79-17 121-18 142-1 8 6 23 37 33 67s38 107 63 170c70 178 84 221 78 246-4 14-31 40-64 63-32 21-64 47-72 56-8 10-51 45-95 79-133 101-155 124-155 161 0 18 6 51 14 73s18 61 21 85c10 67 34 83 145 102 52 9 136 27 185 41 50 13 105 24 123 24 60 0 74 28 87 175 3 39 10 86 14 105 5 19 12 85 16 147l6 112-29 15c-17 9-49 18-73 21-52 7-142 31-184 50-16 7-56 20-87 29-32 9-69 27-84 39-25 22-26 28-25 106 1 46 4 88 8 94 3 5 38 24 77 42 68 31 190 88 287 134 26 12 56 32 68 45 20 21 21 27 11 92-6 38-17 119-25 179-19 142-30 204-38 212-4 3-51 12-105 19-53 7-141 22-195 33-55 12-107 21-117 21-33 0-76 47-109 120-38 81-35 105 16 137 15 9 60 45 99 78s110 88 158 123c88 63 98 80 73 117-7 11-21 45-31 75s-29 79-42 108-24 55-24 59c0 20-85 175-100 183-27 14-71 12-216-9-202-31-271-36-290-20-9 7-32 45-51 83-29 58-34 75-26 96 5 14 61 92 124 174 151 196 159 208 159 228 0 18-49 89-112 165-21 24-43 54-49 66-13 23-97 127-114 139-30 22-106-10-327-135-64-37-128-67-140-67-15 0-43 20-78 55l-54 55 13 52c8 29 30 98 51 153 20 55 50 142 65 194 26 85 28 95 14 120-33 58-375 311-422 311-10 0-42-22-70-49-149-141-294-260-315-261-25 0-163 72-183 96-9 11-10 54-5 177 6 148 19 311 28 346 1 8-8 20-22 27-76 39-251 114-289 124l-60.4587 20.4587c-81.2479 21.7669-80.5413 19.5413-127.5413-45.4587-24-33-55-81-71-107-15-26-40-69-55-95-93-161-91-158-123-156-29 1-95 17-145 35-31 11-49.8991 18.6925-57.0923 91.9072-1.7598 17.9122-.5384.7316-36.9077 336.0928-13 121-34 136-230 169-120 21-224 25-280 12zm254-355c15-13 33.4633-16.7296 37.1846-50.0213 32.6887-292.4407-.092-2.4489 33.8154-299.9787 6-27 12-71 15-99s12-58 20-68c10-10 52-23 113-34 53-9 143-30 200-46 71-19 110-25 125-19 19 7 88 99 187 250 64 98 109 154 127 161 22 8 106-18 148-45 23-15 26-22 21-49-4-18-11-122-16-232s-12-210-16-223c-10-36 14-68 65-88 25-10 67-30 92-46 25-15 49-28 53-28s35-18 70-40c100-63 94-66 308 127 130 118 175 153 193 153 22 0 137-84 148-107 11-24-6-87-104-389-21-67-39-130-39-140 0-11 58-76 132-151 109-109 138-133 161-133 16 0 114 42 221 95 105 52 202 97 215 101 19 5 32-4 77-51 70-74 69.5486-73.6876 37-134-17-14-188-259-218-300s-55-84-55-95c0-12 24-59 53-104 28-45 74-121 102-168 27-48 60-91 72-97 17-8 42-5 100 11 136 36 367 80 394 74 8-1 35-41 59-87 52-102 60-87-115-218-147-109-255-204-255-223 0-8 20-87 45-176 25-90 50-180 56-201 14-52 41-61 219-77 319-27 331-31 341-116 3-27 9-65 13-84 9-46-1-54-124-110-102-46-263-120-320-148l-35-17 4-215c2-118 7-223 12-232 6-10 93-44 244-94 199-65 236-80 241-98 8-31-13-147-29-164-12-12-101-36-298-82-25-6-75-15-110-20-84-12-112-34-123-96-5-27-22-101-38-164-46-179-50-200-44-226 4-16 34-42 89-79 144-96 312-230 315-253 2-11-4-42-13-67-36-107-61-131-129-122-66 9-214 34-314 52-68 13-100 15-116 7-18-8-126-177-126-197 0-3-20-41-45-85s-45-88-45-99 17-40 38-64c20-24 62-78 92-121 30-42 85-112 123-156 40-48 67-89 67-103-1-12-27-56-58-97-76-100-84-101-280-21-81 32-172 71-202 85-85 40-106 36-165-31-27-31-85-93-127-136-48-49-78-88-78-101 0-12 11-37 24-56 13-20 47-85 76-145 28-61 70-145 92-188 45-89 44-104-10-144-20-15-54-42-75-60-23-20-48-33-65-33-29 0-93 50-220 174-41 39-93 90-117 114-25 23-54 42-66 42s-45-17-73-39c-76-57-214-151-222-151-22 0-54-46-54-78 0-15.7903 25.4118-240.5039 41-332 30-185 31-184-68-234-64-32-107-34-131-5-9 12-29 36-44 54s-42 53-60 79c-93 131-185 246-204 251-12 4-65-11-135-39-63-25-138-50-167-56-29-7-58-18-66-25-7-7-18-55-25-107-7-51-16-115-22-143-5-27-16-101-23-164-8-64-20-120-28-127-18-19-174-47-215-39-22 4-37 14-43 28-49 117-161 404-165 418-18 58-22 59-230 59-137 0-196-4-208-12-17-13-23-32-77-233-47-177-69-246-81-261-22-26-213-11-238 19-5 7-15 57-21 112-20 176-30 268-36 337-8 80-20 95-95 108-47 8-135 31-312 81-34 9-53 10-64 3-9-6-46-53-82-105-145-210-214-301-235-311-18-8-35-5-75 12-61 27-77 50-62 88 18 47 36 165 46 307 3 33 10 84 16 112 6 29 8 61 4 70-3 10-58 43-124 75-65 32-145 76-179 99-44 30-66 39-82 34-19-6-138-105-311-257-82-72-106-75-177-18-28 21-53 44-57 50-3 5 3 29 14 53 11 23 40 92 65 152 24 61 60 145 81 188 27 57 35 84 30 106-4 19-62 85-175 200-132 133-175 171-195 171-23 0-363-155-410-187-41-28-71-17-114 44-23 31-41 60-41 64 0 8 12 23 197 251 73 90 133 170 133 179s-14 35-30 58c-28 38-90 141-154 253-14 26-35 50-47 53-11 4-60-2-107-13-48-11-155-30-239-43-126-19-154-20-167-9-19 15-56 95-56 121 0 20 169 175 305 279 44 34 84 70 89 80 6 14-4 61-37 162-25 79-48 159-52 178-3 19-16 55-28 80-25 50-40 57-140 59-31 0-100 8-153 16-53 9-125 17-161 19-40 2-71 9-80 18-16 17-46 146-38 166 6 16 186 102 337 162 59 23 114 50 122 59 14 15 14 41 5 212-6 107-8 208-4 225 4 22 0 38-12 53-18 22-161 79-348 141-129 42-135 48-135 122 0 33 4 68 10 78 14 26 46 34 275 70 110 17 212 36 226 41 31 12 49 47 49 93 0 19 16 96 36 172 20 77 39 149 41 161 4 16-4 31-24 50-34 33-185 146-251 188-103 66-142 98-142 119 0 38 47 150 68 164 17 11 45 11 178-2 167-17 331-21 351-8 6 4 21 29 33 56 25 60 120 227 160 281 16 22 29 46 30 53 0 7-21 37-48 65-54 60-94 111-142 182-18 28-47 66-65 85-52 57-71 95-58 122 22 47 74 108 97 114 16 4 56-10 132-46 60-29 136-62 170-75 33-12 80-33 104-45 41-21 45-21 76-7 18 9 56 44 85 79 28 34 90 98 136 142s86 90 89 102c4 17-13 63-59 156-87 177-147 317-147 342 0 23 84 92 123 101 25 7 118-61 275-198 46-39 95-78 108-85 33-18 63-7 173 62 47 30 118 71 156 91 108 56 111 61 96 142-32 176-53 276-76 357-10 37-13 66-8 78 10 22 135 78 174 78 27 0 77-60 242-289 26-36 55-72 64-78 23-17 62-16 114 3 39 14 182 57 281 84 45 13 38-11 92 308 48 282 44 274 146 270 66-4 58 9 161-258 40-102 80-193 89-203 16-17 32-18 234-11 206 7 217 8 229 28 6 12 32 71 58 131 89 210 129 298 145 323 15 22 21 24 79 20 44-3 70-10 84-22z"/><path d="m6681 8626c-24-25-40-47-157-216-36-52-94-133-130-180-35-47-95-130-134-185-38-55-111-159-162-231s-101-146-110-163-25-31-34-31c-10 0-41 16-71 37l-53 36-39-27c-39-27-41-27-72-12-53 26-75 21-107-26-16-24-39-52-51-62-29-26-27-61 5-83 14-10 35-26 45-36 20-18 19-19-19-65-37-45-67-92-123-191-35-61-63-66-85-14-9 21-30 66-45 100-34 73-35 82-12 121 15 27 16 36 5 79-7 26-21 64-32 85-10 20-22 53-26 73-3 20-22 55-41 77-19 23-43 58-53 77-45 88-99 167-122 178-21 11-34 9-84-8-32-11-71-30-86-41-15-10-71-40-124-64-53-25-119-61-147-80-59-41-64-41-242-4-73 15-148 22-225 23-105 1-119-1-165-24-343-176-539-285-590-329-11-9-60-42-110-74-95-60-139-91-279-196-47-36-118-87-157-115-39-27-75-58-80-67-6-11-4-88 6-210 8-106 20-254 26-328 20-269 23-292 40-303 26-16 67 1 93 40 33 48 246 266 289 295s197 131 263 174c147 95 482 248 667 304 56 18 116 38 133 45 52 22 149 110 203 184 65 90 62 89 239 30 64-21 134-39 154-39s44-3 53-6c9-4 41-55 70-113s77-151 106-207c58-113 59-124 10-191-25-35-37-43-76-48-54-9-74-29-135-142-24-43-58-100-77-127-18-26-33-52-33-57 0-11-76-123-93-137-8-6-259-12-702-16-379-4-708-9-731-12-30-3-86-34-208-112-92-59-197-125-233-147-37-22-82-54-100-72l-34-32 5-633c3-348 9-891 12-1206 6-515 5-575-10-597-20-30-20-58-1-95 24-46 47-53 152-46 115 9 124-1 65-71-22-26-48-64-57-83-10-19-35-58-57-86-54-72-52-101 15-199 28-43 61-92 71-109s36-56 56-86c21-30 63-98 95-150 31-52 73-114 92-138 31-38 39-43 72-40 40 3 54 21 136 168 22 40 76 130 120 201 123 198 207 346 241 429 55 132 63 146 79 160 14 11 121 15 565 18l548 5 18-29c73-115 148-175 262-210 101-31 154-28 271 17 106 40 170 85 207 144 61 98 47 92 255 95 101 1 369 5 594 9 226 3 422 3 437-2 21-7 37-28 69-90 23-45 295-573 302-587 7-13 24-31 38-39 24-13 31-13 70 2 52 20 138 75 152 98 8 12-226 518-241 546-42 84-48 83 299 95 232 8 297 13 309 24 13 13 15 171 18 1282 2 1024 0 1270-10 1284-16 21-219 146-368 226-36 19-76 43-90 52-14 10-45 28-70 40l-45 23-355-7c-900-16-1108-19-1132-13-20 5-178 353-228 451-49 99-90 187-90 196 0 8 23 48 50 88 28 40 64 99 82 130 45 82 56 92 98 92 21 0 47 8 58 18 25 21 79 97 123 172 17 30 50 82 73 115s66 103 95 155c30 52 83 147 119 210s93 165 126 225c32 61 158 282 197 346-1.1201-5.5398 90.7257 164.7589 112.7257 197.7589 44 66 44.2743 76.2411 20.2743 85.2411-21 8-17 9-43-18zm-1311-2261c8-22 119-244 116-250-7-20-133-105-155-105-12 0-11.2033-1.5724-131 75-43 13-36 50 31 184 35 69 68 129 74 134 23 17 50 1 65-38zm2013-454c14-14 25-582 29-1524 3-537 2-570-15-582-27-20-337-16-362 5-18 15-957 1941-970 1960-71 105-63 120 59 120 52 0 1248 32 1259 21zm-2854-45c10-11 6-21-17-48-29-34-110-151-148-214-30-49-44-61-84-71-38-10-22 13-273-374-100-153-121-192-136-254-11-42-34-98-56-132-20-32-55-87-78-123-23-37-58-86-78-110-48-60-50-69-28-116 55-116-9-337-141-489-33-38-77-94-96-123-40-59-59-71-80-51-11 12-14 147-15 834 0 451-4 915-9 1030-6 155-5 213 3 222 9 8 167 14 572 21 308 5 581 9 606 10 30 1 51-3 58-12zm552-18c49-16 129-69 164-108 17-18 38-41 48-51 29-32 59-24 97 29 39 52 162 141 197 142 37 0 55-31 310-530 33-63 746-1464 759-1486 36-61 25-66-159-68-83-2-318-6-522-11l-370-8-74-31c-40-17-95-50-123-73-27-24-56-43-65-43-8 0-27 14-41 31-42 48-105 88-168 104-47 12-128 15-405 15-303 0-350 2-363 16-9 8-16 21-16 27 0 7-14 45-31 86-30 71-30 76-19 135 7 33 14 73 17 88 4 22-4 37-46 81-28 30-51 63-51 75 0 28 101 176 123 180 10 2 55-12 100-32 80-34 262-83 402-108 39-6 148-12 243-12 212-1 202-8 201 143 0 115-11 236-22 247-3 4-73 8-154 9-155 3-249 17-393 60-148 45-166 61-129 117 13 19 36 55 51 79s55 87 89 139 85 145 114 205c58 122 130 351 146 459 8 62 29 106 49 106 4 0 22-5 41-12z"/></g></g></svg>