<?xml version="1.0" encoding="iso-8859-1"?>
<svg xmlns="http://www.w3.org/2000/svg" xmlns:xlink="http://www.w3.org/1999/xlink" width="632" height="316" viewBox="0 0 632 316">
<rect style="fill:#002d82" width="632" height="316"/>
<g style="fill:#FFFFFF">
<path id="Main1" d="M632,75c-14,8-23,19-50.5,19-47.5,0-41-29-88.5-29-47.5,0-41,29-88.5,29-47.5,0-41-29-88.5-29-47.5,0-41,29-88.5,29-47.5,0-41-29-88.5-29-47.5,0-41,29-88.5,29-28,0-37-11-50.5-19v-23
c13,8,22,18,50.5,18c47.5,0,41-28,88.5-28c47.5,0,41,28,88.5,28c47.5,0,41-28,88.5-28c47.5,0,41,28,88.5,28c47.5,0,41-28,88.5-28c47.5,0,41,28,88.5,28c28,0,37-10,50.5-18v23Z"/>
<use y="47" xlink:href="#Main1"/>
<path id="Main2" d="M632,240c-14-8-23-19-50.5-19-47.5,0-41,29-88.5,29-47.5,0-41-29-88.5-29-47.5,0-41,29-88.5,29-47.5,0-41-29-88.5-29-47.5,0-41,29-88.5,29-47.5,0-41-29-88.5-29-28,0-37,11-50.5,19v24
c13-9,22-19,50.5-19c47.5,0,41,29,88.5,29c47.5,0,41-29,88.5-29c47.5,0,41,29,88.5,29c47.5,0,41-29,88.5-29c47.5,0,41,29,88.5,29c47.5,0,41-29,88.5-29c28,0,37,10,50.5,19v-24Z"/>
<use y="-47" xlink:href="#Main2"/></g>
<circle style="fill:#ffa100" cx="316" cy="158" r="80"/></svg>