<svg height="750" width="1500" xmlns="http://www.w3.org/2000/svg" xmlns:xlink="http://www.w3.org/1999/xlink"><path d="m0 0h1500v750h-1500z" fill="#00247d"/><g stroke-width="1.2" transform="matrix(1.6254545 0 0 1.6254545 1641.0818 -247.55067)"><path d="m-225.00003 378.00097v-114.99999l-184.99999.00001v114.99999z" fill="#528ef7"/><g stroke-width="1.215576" transform="matrix(.97453631 0 0 1 -5.691996 0)"><g transform="translate(-2)"><path d="m-330.38449 301.91374s-4.31018-29.23425-4.31018-30.17125l13.49272 28.95316" fill="#fd5" transform="translate(-.000021)"/><path d="m-330.60178 301.46624c.74314-.0929 3.52989-1.30048 3.52989-1.30048l-7.33845-28.05331z" fill="#ffe88d" transform="translate(-.000021)"/><path d="m-330.38451 301.91375s-4.31018-29.23426-4.31018-30.17126l13.49272 28.95317" fill="none" stroke="#000" stroke-width="1.215576"/></g><path d="m-322.23263 301.53894c-.8201-2.53487-1.58624-4.35065-.8433-7.40226s.0361-5.81113-.56704-8.71325c-.60309-2.90212-.27016-5.54112 1.50404-7.87157s1.89382-3.98599 1.09531-6.99676c2.80174 1.85407 4.27501 3.32221 3.62521 6.12115-.64981 2.79895-.0369 5.53084 1.12843 7.58967 1.16529 2.05882 1.95699 4.81916 1.21405 7.87077s-.25548 6.35366 1.12198 8.88853" fill="#fd5" transform="translate(-.000021)"/><path d="m-320.47658 299.7013s.0929-.55735-.0929-1.85784c-.18578-1.30048-.18578-2.41518-.18578-2.41518s.37157-1.20759.46446-1.85784c.0929-.65024.55735-2.69386.55735-2.69386s0 .27868 0-.27867-.0929-2.04362-.46446-2.78676c-.37157-.74313-.65024-2.13651-.65024-2.69386s-.0929-1.57916.0929-2.2294c.18578-.65024-.0929-.65024.46446-1.85783.55735-1.2076.46446-1.2076.74313-1.95073.27868-.74314.65024-1.57916.65024-2.2294 0-.65025.18579-.65025 0-2.41519-.18578-1.76494-.18578-2.2294-.55735-2.69386-.37156-.46446-1.39337-1.20759-1.39337-1.20759l.27867 3.52988s-.74313 2.50808-1.20759 2.97254-2.2294 2.97254-2.2294 3.52989.27867 3.06542.27867 3.06542l.74314 5.38773v3.52988c0 .55735-.74314 2.97254-.74314 3.80857 0 .83602.27868 3.62277.27868 3.62277z" fill="#ffe88d" transform="translate(-.000021)"/><path d="m-322.23266 301.53895c-.8201-2.53487-1.58624-4.35065-.8433-7.40226s.0361-5.81113-.56704-8.71326c-.60309-2.90212-.27016-5.54111 1.50404-7.87157 1.7742-2.33045 1.89382-3.98599 1.09531-6.99676 2.80174 1.85407 4.27501 3.32221 3.62521 6.12115-.64981 2.79896-.0369 5.53084 1.12843 7.58967 1.16529 2.05882 1.95699 4.81917 1.21405 7.87078s-.25548 6.35366 1.12198 8.88853" fill="none" stroke="#000" stroke-width="1.215576"/><g transform="matrix(.93181752 -.36292714 .36292714 .93181752 -149.09625 -91.558971)"><path d="m-330.38449 301.91374s-4.31018-29.23425-4.31018-30.17125l13.49272 28.95316" fill="#fd5" transform="translate(-.000021)"/><path d="m-330.60178 301.46624c.74314-.0929 3.52989-1.30048 3.52989-1.30048l-7.33845-28.05331z" fill="#ffe88d" transform="translate(-.000021)"/><path d="m-330.38451 301.91374s-4.31018-29.23425-4.31018-30.17125l13.49272 28.95316" fill="none" stroke="#000" stroke-width="1.215576"/></g><g transform="matrix(.90134125 -.43310964 .43310964 .90134125 -179.53331 -106.25385)"><path d="m-322.23263 301.53894c-.8201-2.53487-1.58624-4.35065-.8433-7.40226s.0361-5.81113-.56704-8.71325c-.60309-2.90212-.27016-5.54112 1.50404-7.87157s1.89382-3.98599 1.09531-6.99676c2.80174 1.85407 4.27501 3.32221 3.62521 6.12115-.64981 2.79895-.0369 5.53084 1.12843 7.58967 1.16529 2.05882 1.95699 4.81916 1.21405 7.87077s-.25548 6.35366 1.12198 8.88853" fill="#fd5" transform="translate(-.000021)"/><path d="m-320.47658 299.7013s.0929-.55735-.0929-1.85784c-.18578-1.30048-.18578-2.41518-.18578-2.41518s.37157-1.20759.46446-1.85784c.0929-.65024.55735-2.69386.55735-2.69386s0 .27868 0-.27867-.0929-2.04362-.46446-2.78676c-.37157-.74313-.65024-2.13651-.65024-2.69386s-.0929-1.57916.0929-2.2294c.18578-.65024-.0929-.65024.46446-1.85783.55735-1.2076.46446-1.2076.74313-1.95073.27868-.74314.65024-1.57916.65024-2.2294 0-.65025.18579-.65025 0-2.41519-.18578-1.76494-.18578-2.2294-.55735-2.69386-.37156-.46446-1.39337-1.20759-1.39337-1.20759l.27867 3.52988s-.74313 2.50808-1.20759 2.97254-2.2294 2.97254-2.2294 3.52989.27867 3.06542.27867 3.06542l.74314 5.38773v3.52988c0 .55735-.74314 2.97254-.74314 3.80857 0 .83602.27868 3.62277.27868 3.62277z" fill="#ffe88d" transform="translate(-.000021)"/><path d="m-322.23265 301.53894c-.8201-2.53487-1.58624-4.35065-.8433-7.40226s.0361-5.81113-.56704-8.71325c-.60309-2.90212-.27016-5.54112 1.50404-7.87157s1.89382-3.98599 1.09531-6.99676c2.80174 1.85407 4.27501 3.32221 3.62521 6.12115-.64981 2.79895-.0369 5.53084 1.12843 7.58967 1.16529 2.05882 1.95699 4.81916 1.21405 7.87077s-.25548 6.35366 1.12198 8.88853" fill="none" stroke="#000" stroke-width="1.215576"/></g><g transform="matrix(-.21924857 .97566904 .97566904 .21924857 -720.03097 572.84267)"><path d="m-330.38449 301.91374s-4.31018-29.23425-4.31018-30.17125l13.49272 28.95316" fill="#fd5" transform="translate(-.000021)"/><path d="m-330.60178 301.46624c.74314-.0929 3.52989-1.30048 3.52989-1.30048l-7.33845-28.05331z" fill="#ffe88d" transform="translate(-.000021)"/><path d="m-330.38451 301.91374s-4.31018-29.23425-4.31018-30.17125l13.49272 28.95316" fill="none" stroke="#000" stroke-width="1.215576"/></g><g transform="matrix(-.64312235 .76576344 .76576344 .64312235 -785.6184 364.80469)"><path d="m-322.23263 301.53894c-.8201-2.53487-1.58624-4.35065-.8433-7.40226s.0361-5.81113-.56704-8.71325c-.60309-2.90212-.27016-5.54112 1.50404-7.87157s1.89382-3.98599 1.09531-6.99676c2.80174 1.85407 4.27501 3.32221 3.62521 6.12115-.64981 2.79895-.0369 5.53084 1.12843 7.58967 1.16529 2.05882 1.95699 4.81916 1.21405 7.87077s-.25548 6.35366 1.12198 8.88853" fill="#fd5" transform="translate(-.000021)"/><path d="m-320.47658 299.7013s.0929-.55735-.0929-1.85784c-.18578-1.30048-.18578-2.41518-.18578-2.41518s.37157-1.20759.46446-1.85784c.0929-.65024.55735-2.69386.55735-2.69386s0 .27868 0-.27867-.0929-2.04362-.46446-2.78676c-.37157-.74313-.65024-2.13651-.65024-2.69386s-.0929-1.57916.0929-2.2294c.18578-.65024-.0929-.65024.46446-1.85783.55735-1.2076.46446-1.2076.74313-1.95073.27868-.74314.65024-1.57916.65024-2.2294 0-.65025.18579-.65025 0-2.41519-.18578-1.76494-.18578-2.2294-.55735-2.69386-.37156-.46446-1.39337-1.20759-1.39337-1.20759l.27867 3.52988s-.74313 2.50808-1.20759 2.97254-2.2294 2.97254-2.2294 3.52989.27867 3.06542.27867 3.06542l.74314 5.38773v3.52988c0 .55735-.74314 2.97254-.74314 3.80857 0 .83602.27868 3.62277.27868 3.62277z" fill="#ffe88d" transform="translate(-.000021)"/><path d="m-322.23266 301.53894c-.8201-2.53487-1.58624-4.35065-.8433-7.40226s.0361-5.81113-.56704-8.71325c-.60309-2.90212-.27016-5.54112 1.50404-7.87157s1.89382-3.98599 1.09531-6.99676c2.80174 1.85407 4.27501 3.32221 3.62521 6.12115-.64981 2.79895-.0369 5.53084 1.12843 7.58967 1.16529 2.05882 1.95699 4.81916 1.21405 7.87077s-.25548 6.35366 1.12198 8.88853" fill="none" stroke="#000" stroke-width="1.215576"/></g><g transform="matrix(-.32787378 .94472154 .94472154 .32787378 -747.03849 530.88947)"><path d="m-322.23263 301.53894c-.8201-2.53487-1.58624-4.35065-.8433-7.40226s.0361-5.81113-.56704-8.71325c-.60309-2.90212-.27016-5.54112 1.50404-7.87157s1.89382-3.98599 1.09531-6.99676c2.80174 1.85407 4.27501 3.32221 3.62521 6.12115-.64981 2.79895-.0369 5.53084 1.12843 7.58967 1.16529 2.05882 1.95699 4.81916 1.21405 7.87077s-.25548 6.35366 1.12198 8.88853" fill="#fd5" transform="translate(-.000021)"/><path d="m-320.47658 299.7013s.0929-.55735-.0929-1.85784c-.18578-1.30048-.18578-2.41518-.18578-2.41518s.37157-1.20759.46446-1.85784c.0929-.65024.55735-2.69386.55735-2.69386s0 .27868 0-.27867-.0929-2.04362-.46446-2.78676c-.37157-.74313-.65024-2.13651-.65024-2.69386s-.0929-1.57916.0929-2.2294c.18578-.65024-.0929-.65024.46446-1.85783.55735-1.2076.46446-1.2076.74313-1.95073.27868-.74314.65024-1.57916.65024-2.2294 0-.65025.18579-.65025 0-2.41519-.18578-1.76494-.18578-2.2294-.55735-2.69386-.37156-.46446-1.39337-1.20759-1.39337-1.20759l.27867 3.52988s-.74313 2.50808-1.20759 2.97254-2.2294 2.97254-2.2294 3.52989.27867 3.06542.27867 3.06542l.74314 5.38773v3.52988c0 .55735-.74314 2.97254-.74314 3.80857 0 .83602.27868 3.62277.27868 3.62277z" fill="#ffe88d" transform="translate(-.000021)"/><path d="m-322.23266 301.53894c-.8201-2.53487-1.58624-4.35065-.8433-7.40226s.0361-5.81113-.56704-8.71325c-.60309-2.90212-.27016-5.54112 1.50404-7.87157s1.89382-3.98599 1.09531-6.99676c2.80174 1.85407 4.27501 3.32221 3.62521 6.12115-.64981 2.79895-.0369 5.53084 1.12843 7.58967 1.16529 2.05882 1.95699 4.81916 1.21405 7.87077s-.25548 6.35366 1.12198 8.88853" fill="none" stroke="#000" stroke-width="1.215576"/></g><g transform="matrix(.20482847 .97879789 .97879789 -.20482847 -586.99628 715.17848)"><path d="m-330.38449 301.91374s-4.31018-29.23425-4.31018-30.17125l13.49272 28.95316" fill="#fd5" transform="translate(-.000021)"/><path d="m-330.60178 301.46624c.74314-.0929 3.52989-1.30048 3.52989-1.30048l-7.33845-28.05331z" fill="#ffe88d" transform="translate(-.000021)"/><path d="m-330.38451 301.91374s-4.31018-29.23425-4.31018-30.17125l13.49272 28.95316" fill="none" stroke="#000" stroke-width="1.215576"/></g><g transform="matrix(-1 0 0 1 -636.77228 .000005)"><path d="m-330.38449 301.91374s-4.31018-29.23425-4.31018-30.17125l13.49272 28.95316" fill="#fd5" transform="translate(-.000021)"/><path d="m-330.60178 301.46624c.74314-.0929 3.52989-1.30048 3.52989-1.30048l-7.33845-28.05331z" fill="#ffe88d" transform="translate(-.000021)"/><path d="m-330.38451 301.91374s-4.31018-29.23425-4.31018-30.17125l13.49272 28.95316" fill="none" stroke="#000" stroke-width="1.215576"/></g><g transform="matrix(-.93181752 -.36292714 -.36292714 .93181752 -489.67603 -91.558965)"><path d="m-330.38449 301.91374s-4.31018-29.23425-4.31018-30.17125l13.49272 28.95316" fill="#fd5" transform="translate(-.000021)"/><path d="m-330.22726 302.94009c.74314-.0929 3.52989-1.30048 3.52989-1.30048l-7.71297-29.52716z" fill="#ffe88d" transform="translate(-.000021)"/><path d="m-330.38451 301.91374s-4.31018-29.23425-4.31018-30.17125l13.49272 28.95316" fill="none" stroke="#000" stroke-width="1.215576"/></g><g transform="matrix(-.90134125 -.43310964 -.43310964 .90134125 -459.23896 -106.25385)"><path d="m-322.23263 301.53894c-.8201-2.53487-1.58624-4.35065-.8433-7.40226s.0361-5.81113-.56704-8.71325c-.60309-2.90212-.27016-5.54112 1.50404-7.87157s1.89382-3.98599 1.09531-6.99676c2.80174 1.85407 4.27501 3.32221 3.62521 6.12115-.64981 2.79895-.0369 5.53084 1.12843 7.58967 1.16529 2.05882 1.95699 4.81916 1.21405 7.87077s-.25548 6.35366 1.12198 8.88853" fill="#fd5" transform="translate(-.000021)"/><path d="m-320.53452 301.04634s.15084-1.90239-.035-3.20288c-.18578-1.30048-.18578-2.41518-.18578-2.41518s.37157-1.20759.46446-1.85784c.0929-.65024.55735-2.69386.55735-2.69386s0 .27868 0-.27867-.0929-2.04362-.46446-2.78676c-.37157-.74313-.65024-2.13651-.65024-2.69386s-.0929-1.57916.0929-2.2294c.18578-.65024-.0929-.65024.46446-1.85783.55735-1.2076.46446-1.2076.74313-1.95073.27868-.74314.65024-1.57916.65024-2.2294 0-.65025.18579-.65025 0-2.41519-.18578-1.76494-.18578-2.2294-.55735-2.69386-.37156-.46446-1.39337-1.20759-1.39337-1.20759l.27867 3.52988s-.74313 2.50808-1.20759 2.97254-2.2294 2.97254-2.2294 3.52989.27867 3.06542.27867 3.06542l.74314 5.38773v3.52988c0 .55735-.74314 2.97254-.74314 3.80857 0 .83602.22074 4.96781.22074 4.96781z" fill="#ffe88d" transform="translate(-.000021)"/><path d="m-322.23265 301.53894c-.8201-2.53487-1.58624-4.35065-.8433-7.40226s.0361-5.81113-.56704-8.71325c-.60309-2.90212-.27016-5.54112 1.50404-7.87157s1.89382-3.98599 1.09531-6.99676c2.80174 1.85407 4.27501 3.32221 3.62521 6.12115-.64981 2.79895-.0369 5.53084 1.12843 7.58967 1.16529 2.05882 1.95699 4.81916 1.21405 7.87077s-.25548 6.35366 1.12198 8.88853" fill="none" stroke="#000" stroke-width="1.215576"/></g><g transform="matrix(.21924857 .97566904 -.97566904 .21924857 81.258696 572.84267)"><path d="m-330.38449 301.91374s-4.31018-29.23425-4.31018-30.17125l13.49272 28.95316" fill="#fd5" transform="translate(-.000021)"/><path d="m-330.60178 301.46624c.74314-.0929 3.52989-1.30048 3.52989-1.30048l-7.33845-28.05331z" fill="#ffe88d" transform="translate(-.000021)"/><path d="m-330.38451 301.91374s-4.31018-29.23425-4.31018-30.17125l13.49272 28.95316" fill="none" stroke="#000" stroke-width="1.215576"/></g><g transform="matrix(.64312235 .76576344 -.76576344 .64312235 146.84612 364.8047)"><path d="m-322.23263 301.53894c-.8201-2.53487-1.58624-4.35065-.8433-7.40226s.0361-5.81113-.56704-8.71325c-.60309-2.90212-.27016-5.54112 1.50404-7.87157s1.89382-3.98599 1.09531-6.99676c2.80174 1.85407 4.27501 3.32221 3.62521 6.12115-.64981 2.79895-.0369 5.53084 1.12843 7.58967 1.16529 2.05882 1.95699 4.81916 1.21405 7.87077s-.25548 6.35366 1.12198 8.88853" fill="#fd5" transform="translate(-.000021)"/><path d="m-320.52523 300.58384s.14155-1.43989-.0442-2.74038c-.18578-1.30048-.18578-2.41518-.18578-2.41518s.37157-1.20759.46446-1.85784c.0929-.65024.55735-2.69386.55735-2.69386s0 .27868 0-.27867-.0929-2.04362-.46446-2.78676c-.37157-.74313-.65024-2.13651-.65024-2.69386s-.0929-1.57916.0929-2.2294c.18578-.65024-.0929-.65024.46446-1.85783.55735-1.2076.46446-1.2076.74313-1.95073.27868-.74314.65024-1.57916.65024-2.2294 0-.65025.18579-.65025 0-2.41519-.18578-1.76494-.18578-2.2294-.55735-2.69386-.37156-.46446-1.39337-1.20759-1.39337-1.20759l.27867 3.52988s-.74313 2.50808-1.20759 2.97254-2.2294 2.97254-2.2294 3.52989.27867 3.06542.27867 3.06542l.74314 5.38773v3.52988c0 .55735-.74314 2.97254-.74314 3.80857 0 .83602.23003 4.50531.23003 4.50531z" fill="#ffe88d" transform="translate(-.000021)"/><path d="m-323.03529 301.60881c-.8201-2.53487-.78361-4.42052-.0407-7.47213.74294-3.05161.0361-5.81113-.56704-8.71325-.60309-2.90212-.27016-5.54112 1.50404-7.87157s1.89382-3.98599 1.09531-6.99676c2.80174 1.85407 4.27501 3.32221 3.62521 6.12115-.64981 2.79895-.0369 5.53084 1.12843 7.58967 1.16529 2.05882 1.95699 4.81916 1.21405 7.87077s-.25548 6.35366 1.12198 8.88853" fill="none" stroke="#000" stroke-width="1.215576"/></g><g transform="matrix(.32787378 .94472154 -.94472154 .32787378 106.26622 530.88947)"><path d="m-322.23263 301.53894c-.8201-2.53487-1.58624-4.35065-.8433-7.40226s.0361-5.81113-.56704-8.71325c-.60309-2.90212-.27016-5.54112 1.50404-7.87157s1.89382-3.98599 1.09531-6.99676c2.80174 1.85407 4.27501 3.32221 3.62521 6.12115-.64981 2.79895-.0369 5.53084 1.12843 7.58967 1.16529 2.05882 1.95699 4.81916 1.21405 7.87077s-.25548 6.35366 1.12198 8.88853" fill="#fd5" transform="translate(-.000021)"/><path d="m-320.47658 299.7013s.0929-.55735-.0929-1.85784c-.18578-1.30048-.18578-2.41518-.18578-2.41518s.37157-1.20759.46446-1.85784c.0929-.65024.55735-2.69386.55735-2.69386s0 .27868 0-.27867-.0929-2.04362-.46446-2.78676c-.37157-.74313-.65024-2.13651-.65024-2.69386s-.0929-1.57916.0929-2.2294c.18578-.65024-.0929-.65024.46446-1.85783.55735-1.2076.46446-1.2076.74313-1.95073.27868-.74314.65024-1.57916.65024-2.2294 0-.65025.18579-.65025 0-2.41519-.18578-1.76494-.18578-2.2294-.55735-2.69386-.37156-.46446-1.39337-1.20759-1.39337-1.20759l.27867 3.52988s-.74313 2.50808-1.20759 2.97254-2.2294 2.97254-2.2294 3.52989.27867 3.06542.27867 3.06542l.74314 5.38773v3.52988c0 .55735-.74314 2.97254-.74314 3.80857 0 .83602.27868 3.62277.27868 3.62277z" fill="#ffe88d" transform="translate(-.000021)"/><path d="m-322.23266 301.53894c-.8201-2.53487-1.58624-4.35065-.8433-7.40226s.0361-5.81113-.56704-8.71325c-.60309-2.90212-.27016-5.54112 1.50404-7.87157s1.89382-3.98599 1.09531-6.99676c2.80174 1.85407 4.27502 3.32221 3.62521 6.12114-.64981 2.79896-.0369 5.53085 1.12843 7.58968 1.16529 2.05882 1.95699 4.81916 1.21405 7.87077s-.25548 6.35366 1.12198 8.88853" fill="none" stroke="#000" stroke-width="1.215576"/></g><g transform="matrix(-.20482847 .97879789 -.97879789 -.20482847 -53.77599 715.17848)"><path d="m-330.38449 301.91374s-4.31018-29.23425-4.31018-30.17125l13.49272 28.95316" fill="#fd5" transform="translate(-.000021)"/><path d="m-330.60178 301.46624c.74314-.0929 3.52989-1.30048 3.52989-1.30048l-7.33845-28.05331z" fill="#ffe88d" transform="translate(-.000021)"/><path d="m-330.38451 301.91374s-4.31018-29.23425-4.31018-30.17125l13.49272 28.95316" fill="none" stroke="#000" stroke-width="1.215576"/></g><path d="m-280.98415 335.13479c0 19.72148-17.68905 35.70889-39.5096 35.70889-21.82054 0-39.50959-15.98741-39.50959-35.70889s17.68905-35.7089 39.50959-35.7089c21.82055 0 39.5096 15.98742 39.5096 35.7089z" fill="#fd5"/><path d="m-280.98415 335.13479c0 19.72148-17.68905 35.70889-39.5096 35.70889-21.82054 0-39.50959-15.98741-39.50959-35.70889s17.68905-35.7089 39.50959-35.7089c21.82055 0 39.5096 15.98742 39.5096 35.7089z" fill="none" stroke="#000" stroke-width="1.215576"/><path d="m-320.5 302.12598s-30.875-2-36.75 30.25c7.625-21.75 36.75-30.25 36.75-30.25z" fill="#ffe88d" transform="translate(-.000021)"/></g><path d="m-410.00002 378.00098s-.00001 90.00002 92.49999 125.00001c92.50001-34.99999 92.5-125.00002 92.5-125.00002z"/><g stroke="#000"><path d="m-372.40625 394.6875-10.375.3125s-.16702 2.74604-.28125 3.15625c0 0-.15712 6.89978 3.90625 10.59375 3.88908 3.53553 3.34375 11.90625 3.34375 11.90625s.54533 8.40197-3.34375 11.9375c-4.06337 3.69397-3.90625 12.0625-3.90625 12.0625s-.15712 8.39978 3.90625 12.09375c1.53559 1.39599 2.38147 3.56453 2.84375 5.65625l10.3125 10.6875c.31938-2.44444.1875-4.4375.1875-4.4375s.54533-8.37072-3.34375-11.90625c-4.06337-3.69397-3.90625-12.09375-3.90625-12.09375s-.15712-8.36853 3.90625-12.0625c3.88908-3.53553 3.34375-11.9375 3.34375-11.9375s.54533-8.37072-3.34375-11.90625c-4.06337-3.69397-3.90625-10.59375-3.90625-10.59375zm22 0-10.375.3125s-.16702 2.74604-.28125 3.15625c0 0-.15712 6.89978 3.90625 10.59375 3.88908 3.53553 3.34375 11.90625 3.34375 11.90625s.54533 8.40197-3.34375 11.9375c-4.06337 3.69397-3.90625 12.0625-3.90625 12.0625s-.15712 8.39978 3.90625 12.09375c3.88908 3.53553 3.34375 11.90625 3.34375 11.90625s.54533 8.40197-3.34375 11.9375l7.09375 5.0625c.57254-1.8953 1.47495-3.76132 2.90625-5.0625 3.88908-3.53553 3.34375-11.9375 3.34375-11.9375s.54533-8.37072-3.34375-11.90625c-4.06337-3.69397-3.90625-12.09375-3.90625-12.09375s-.15712-8.36853 3.90625-12.0625c3.88908-3.53553 3.34375-11.9375 3.34375-11.9375s.54533-8.37072-3.34375-11.90625c-4.06337-3.69397-3.90625-10.59375-3.90625-10.59375zm22 0-10.375.3125s-.16702 2.74604-.28125 3.15625c0 0-.15712 6.89978 3.90625 10.59375 3.88908 3.53553 3.34375 11.90625 3.34375 11.90625s.54533 8.40197-3.34375 11.9375c-4.06337 3.69397-3.90625 12.0625-3.90625 12.0625s-.15712 8.39978 3.90625 12.09375c3.88908 3.53553 3.34375 11.90625 3.34375 11.90625s.54533 8.40197-3.34375 11.9375c-4.06337 3.69397-3.90625 12.0625-3.90625 12.0625l2.5 1.71875 5.3125 2.6875 2.6875 1.40625.125-.1875c-.67068-2.97421-.625-5.625-.625-5.625s-.15712-8.36853 3.90625-12.0625c3.88908-3.53553 3.34375-11.9375 3.34375-11.9375s.54533-8.37072-3.34375-11.90625c-4.06337-3.69397-3.90625-12.09375-3.90625-12.09375s-.15712-8.36853 3.90625-12.0625c3.88908-3.53553 3.34375-11.9375 3.34375-11.9375s.54533-8.37072-3.34375-11.90625c-4.06337-3.69397-3.90625-10.59375-3.90625-10.59375zm22 0-10.375.3125s-.16702 2.74604-.28125 3.15625c0 0-.15712 6.89978 3.90625 10.59375 3.88908 3.53553 3.34375 11.90625 3.34375 11.90625s.54533 8.40197-3.34375 11.9375c-4.06337 3.69397-3.90625 12.0625-3.90625 12.0625s-.15712 8.39978 3.90625 12.09375c3.88908 3.53553 3.34375 12.65625 3.34375 12.65625s.54533 9.12072-3.34375 12.65625c-4.06337 3.69397-3.90625 12.09375-3.90625 12.09375s-.0935 4.41454 1.40625 8.25l8.9375-4.03125c-.38593-2.36238-.34375-4.21875-.34375-4.21875s-.15712-8.39978 3.90625-12.09375c3.88908-3.53553 3.34375-12.65625 3.34375-12.65625s.54533-9.12072-3.34375-12.65625c-4.06337-3.69397-3.90625-12.09375-3.90625-12.09375s-.15712-8.36853 3.90625-12.0625c3.88908-3.53553 3.34375-11.9375 3.34375-11.9375s.54533-8.37072-3.34375-11.90625c-4.06337-3.69397-3.90625-10.59375-3.90625-10.59375zm22 0-10.375.3125s-.16702 2.74604-.28125 3.15625c0 0-.15712 6.89978 3.90625 10.59375 3.88908 3.53553 3.34375 11.90625 3.34375 11.90625s.54533 8.40197-3.34375 11.9375c-4.06337 3.69397-3.90625 12.0625-3.90625 12.0625s-.15712 8.39978 3.90625 12.09375c3.88908 3.53553 3.34375 11.90625 3.34375 11.90625s.54533 8.40197-3.34375 11.9375c-4.06337 3.69397-3.90625 12.0625-3.90625 12.0625l11.125-7.40625c.57675-1.75301 1.45417-3.44981 2.78125-4.65625 3.88908-3.53553 3.34375-11.9375 3.34375-11.9375s.54533-8.37072-3.34375-11.90625c-4.06337-3.69397-3.90625-12.09375-3.90625-12.09375s-.15712-8.36853 3.90625-12.0625c3.88908-3.53553 3.34375-11.9375 3.34375-11.9375s.54533-8.37072-3.34375-11.90625c-4.06337-3.69397-3.90625-10.59375-3.90625-10.59375zm22 0-10.375.3125s-.16702 2.74604-.28125 3.15625c0 0-.15712 6.89978 3.90625 10.59375 3.88908 3.53553 3.34375 11.90625 3.34375 11.90625s.54533 8.40197-3.34375 11.9375c-4.06337 3.69397-3.90625 12.0625-3.90625 12.0625s-.15712 8.39978 3.90625 12.09375c3.88908 3.53553 3.34375 11.90625 3.34375 11.90625s.0602.68984.0312 1.75l8.84375-10.09375c-.5016-1.36129-1.19444-2.63131-2.21875-3.5625-4.06337-3.69397-3.90625-12.09375-3.90625-12.09375s-.15712-8.36853 3.90625-12.0625c3.88908-3.53553 3.34375-11.9375 3.34375-11.9375s.54533-8.37072-3.34375-11.90625c-4.06337-3.69397-3.90625-10.59375-3.90625-10.59375l.65625-3.46875z" fill="#fff" stroke-width="1.2" transform="translate(-.000021)"/><path d="m-250.00004 397.001 10 15-39.99999-.00001 10-15-37.71733.00001 10 15-39.99999-.00001 10-15h-37.28268l10 15-39.99999-.00001 10-15-22.83029-.0284c-2.16971-11.5014-2.16971-18.9716-2.16971-18.9716v-52.99273l25-.007-10 15 39.99999.00001-10-15h37.28268l-10 15 39.99999.00001-10-15 37.71733-.00001-10 15 39.99999.00001-10-15 25-.007.00001 53.00724s0 7.44491-2.20538 18.94248z" fill="#fff"/><g stroke-width="1.2"><g transform="translate(-.000021)"><path d="m-319.57351 381.0866c.89338.12762 1.53151.76575 2.42488 1.27625.89338.5105 2.80776.63813 3.70113.76575.89338.12763 3.70113-1.021 5.23264-1.021 1.5315 0 6.63651-.89338 6.63651-.89338s.12762-1.14862-1.14863-1.5315c-1.27625-.38287-1.78675-.12762-2.29725-1.14863-.5105-1.021-2.55251-1.65912-1.27625-4.33925 1.27625-2.68013 2.68012-4.97739 8.67851-5.48789 5.99838-.5105 9.69951 0 9.69951.5105 0 .51051.12763 2.29726.12763 2.29726-1.5315 1.14863-2.93538 4.33926-2.80775 4.97738.12762.63813 0 2.16963.76575 2.29725.76575.12763 3.82875 1.14863 3.82875 1.14863s3.06301 1.65913 1.021 2.42488c-2.042.76575-3.70113 1.5315-3.5735 2.042.12762.5105.12762 3.31826-.38288 3.57351s-1.78675 1.40388-2.5525 1.14863-.89338-1.02101-1.65913-.5105c-.76575.5105-.63812 1.65912-2.5525 2.80775s-1.91438.76575-2.16963.25525-2.16963.25525-3.57351.76575c-1.40387.5105-1.78675 1.65913-2.29725 1.021-.5105-.63812-.89338-2.5525-2.5525-1.65912-1.65913.89337-4.33926 2.42487-4.33926 2.42487l-1.14863-.5105s-1.91438-1.40387-3.063-1.021c-1.14863.38288-2.93538.25525-3.57351.76575-.63812.5105-1.78675 2.04201-2.42488 2.29726-.63812.25525-1.91438.5105-2.42488.5105s-2.16962-.38288-2.16962-.38288c-2.00089-.22274-2.39835-1.25709-2.55251-2.80775l1.14863-2.42488s1.78675-.38288.76575-1.021c-1.021-.63813-2.16963-1.27625-2.16963-1.27625-.40478-2.24705-.0953-2.93665.89338-3.82876l1.91438-1.021 1.5315-.38288.88721-1.29188.98846-.91977z" fill="#cf142b"/><path d="m-392.25 390.62598s1.875.875 2.625.625 2-.75 2.625-1.125 3.25-1.125 3.25-1.125.625.125.625.875.125 2 1.5 2.125 3-1.25 2.25-.25-2.875 3.375-1.875 3.5 3.875.625 4.75-.25 4.875-2.875 4.875-2.875 0 .875.125 2 0 2.75 1.25 1.75 2.625-1.5 3.5-2.25 3.125-2.125 3.625-2.125.625 1.375.5 2.375.5 2 1.5 1 1.75-1.25 3-2.25 3.25-1.625 3.25-1.625-.25 3 .25 3 1.75-.125 2.5-1.375 1.25-2.25 2-3 1.625-1.25 1.75-.75.5 2.875.75 3.5 1.25 1 2.375.125 2.5-.5 2.625-2.125-.125-1.75.125-2.75 1.25-2 1.75-2.625-1-.875 2.125-1 5.75-.25 5.75-.25.5-.125 2.25-1.125 2.5-1.625 3.5-1.875 4-1 4.625-1 5.5-.625 5.5-.625 4.875-1.5 5.75-1.75 3.375-1.5 3.375-1.5 4.5-1.125 5.125-1.375 4-1.375 5.5-1.5 6.25-.5 6.875-.625 3-.25 4.375 1 2.25 4.25 2.25 4.25 3.25.875 4.625 1.125 7.75-.125 8.5-.5 6.625-1.75 7.375-1.75 5.625.5 6.75.875 4.375 2.375 4.75 3.25 2 2.25.625 2.75-4.25.5-4.875.625c-2.26209 1.97798-5.07876 4.93391 1.5 6 .75 0 1.5-.5 1-.125s-1.01739 1.90348-1.01739 1.90348l.83043 2.52048 3.18696.076c.875-.25 3-1.25 3-1.25l1.25-1.5.5 1 2.73491 1.3352 2.26509-1.96016c.375-1 .875-1.375.75-2.75s-.125-1.875-.375-3.125 0-2.125-.125-4.375 1.125-2-.625-3.25-1.25-1.125-3.375-2.5-2.25-1.75-3.25-3-1.875-1.5-2.375-2.25-.875-2.125-2.25-2.75-4.5.625-5.5.75-3.875.625-4.875.625-3.75-.5-4.625-.75-4.125-1.375-4.125-1.375-.75-.75-1.375-1.5-1-1.5-1.25-1.875-.25-1.625-.25-1.625 6.25-.625 8 0 6 1.875 6.75 2 3.125.875 5.25.875 4.875.125 6.625-.25 4.5-.875 5.25-1.125.875.5 2.25-1.875 2.125-2.625 2.25-3.75 1.375-2.375-.375-3.875-3-2.5-3.625-3.375 3.125 2.875-.875-2.25-3.125-4.625-4-5.25-2.5-1.5-2.5-1.5 2 2.875.5 2.875-2.875-.25-3.625-.875-3.125-2.375-3.125-2.375c-.62501.37501-1.00001 1.62501-1.62501 1.87501s2 2.5-2.25.125-1.75-1.375-4.75-2.625-2 1.375-2 1.375.875 2 .375 2 0 .375-1.375.125-1.875.375-3.125-.75-2.5-2.5-2.5-2.5-.375 2.25-.25 3.375-1.25 3.25-1.25 3.25-2.375-.125-4 .125-3.25.625-5.125 1.375-3.375.625-5.375 1.5-5.375 2.125-6 2.125-4.625.375-6.125 0-3.75-.25-4.75-1-1.75-1.875-1.125-2.625 2.25-1.75 3-1.625 3.125 1.625 5.75 1.375 9.75-2.5 9.75-2.5 1.625-1.375 1.75-2.5-.25-1.5.5-3.375.75-1.5 1.875-3.25 1.875-2.75 2-3.25-1.875 0-1.875 0 .75-2.375-.875-1.25-3.125 2-3.125 2-1.25-1.875-2.125-.75-1.25 2-1.875 2.5-.875.625-1.875 1.875-1.125 1.375-1.5 2.125 1 .875-1.625 1.75-2.75 1.125-4.5 1.375-3.375.5-4 .625-2.375.625-3.5 1.375-1.625.5-2.75 2.25-1.75 3.25-1.375 3.875.625 1.875 2 3 4.25 2.125 5.375 2.25 6.5 1.125 8.5.25 4.875-.375 8-1.625 5.5-1.75 8.75-2.375 6.125-2.25 12.125-2.25h12.25c2.25 0 5.25-.375 6.75.875s4.875 2.625 4.875 3.375.625 2.75-.125 3.625-.375 1.375-4.125 1.625-5.5.5-10-.25-8.25-1.75-12.125-2.375-9.125-.875-11.125-1-6 .5-8 .75-8 2-12.375 2.375-9.625 2.125-11.125 2.375-15.375.875-18 .5-5 0-8 1.25-7.625 3.25-9.125 4.625-4.875 4.25-5.875 5-4.49999 4.87499-4.49999 4.87499-.75 2.5-2.5 2.875-2.5.375-5.25.75-3.75.625-7.625.75-7.25-.125-7.25-.125-1.125-.625-1.125-1.75-.375-3-.375-3-.375-1.625-1.25-1.75l-2.6313-.21043c-1.41935.58543-1.4937 1.83543-1.4937 1.83543s-1.5-.625-2.875-.5-2-.25-2.375.375-1.25 1.75-1.25 1.75l-.375 2.375 1.125 1.75 1.5 1.125s-.25.5-.375 1.375.625 2.25.125 2.625z" fill="#cf142b"/><path d="m-353.26957 355.23576s-.4826-.48261-1.44782-.48261-1.93044.0965-2.60609.0965-2.12348-.0965-2.12348-.0965.0965 0-.57913 0c-.67565 0-1.44782-.0965-2.02695-.28956-.57913-.19305-1.06174-.38609-1.64087-.77218s-2.02696-2.41304-2.02696-2.41304l-.0965 2.89565s.19304 1.64087.86869 2.12348c.67566.48261 1.83392 1.15826 2.41305 1.15826s2.70261-.77217 2.70261-.77217 1.64087-.38609 2.12347-.38609c.48261 0 2.02696.0965 2.60609.38609.57913.28956 2.31652 1.06173 2.31652 1.06173s.96522-.0965 1.06174-.77217c.0965-.67565-.67565-1.64087-.67565-1.64087z" fill="#528ef7"/><path d="m-393.125 347.87598c-.375.75-1.25 1.83065-1.25 1.83065s-1.25 1.66935.25 2.79435 3.5 1.875 3.5 1.875.875-.25 1.5.375 1.125 2.125.625 2.5-.625 1-2.125.75-3.5-1.25-3.5-.625.5 2.625 1.25 3.5.625 1.375 2.25 1.875 3.875.75 3.875.75-1.75 1.5-2.75 1.5-2.25-.5-1.5.125 1.25 1 3 1.625 1.5.875 3.375.625 3.5-.5 4.25-.5 2.5-.625 2 .375-1.5 2.625-3.125 3-5-.25-4.25.375 4.625 2.125 5.125 2.125 4.375-1.375 4.375-1.375 1 1.125-.25 2.375-3 3.25-3 3.25 1.125.5 2.375.25 3.75-1.5 4.25-1.875 1.25-1.125.75.375.125 2.875-.625 3.75-2.5 2.375-.375 1.875 3.125-.625 3.875-1.25 1.5-2.25 2.25-2 1.125.25 2.625.25 1.375.375 3.5 0 4.375-.75 5-1.75 2.125-2.75 1-4-.75-1.875-2.25-3.125-2-1.875-3.5-2.125-2.75-.75-2.75-.75c-2.75-.25-3.5.375-4.5-.75s-3.125-3.125-4.25-3.875-3.5-2.125-5.125-3.875-2.5-3.875-2.5-3.875 1-.5 1.75-1.5 1.25-1.75 1.625-2.625 1-1.625.75-2.625-.625-1.125-1-1.75l-2.75-1-2.125.875s0 .25-.625-.875-.5-1.375-1-1.625-1.125-.75-1.125-.75l-3.5 1.375s-.875 1-.875 1.625.5 1.5 0 1.25-2.625-.125-2.625-.125z" fill="#cf142b"/><path d="m-335.625 344.62598s1.75-1.875 2-2.375 1.75-2.625.375-2.125-1.625.875-3 1.25-2.75.75-3.75.75-1.25 0-3.625-.125-4-.375-4.75-.375-.875-.125-1.75.5-1.5.75-2.375 1-1.375.5-2.875.625-3.75.75-3.75.75l-1.375.5.125 2s.125.75 0 1.25-.125 2.25-.125 2.25l.75 1.625 1.5 1.25 1.25 1.75.25-1.875 1.625-.375.75.25s1.125 1 1.25 1.75.125 2.5.125 2.5l-1.125.625s-.375.375-.875-.125-1.125-1.75-1.125-1.75l-1.25001 1.62501-.875.25s0 1.25-.375 1.75-.25.375-.875.75-1.25 1.375-1.25 1.375l1.375.375 2.25.125s.375 0 .25.75-1.875 1.875-1.875 1.875-.125.875-1.5 1.125-1.125.25-1.875.25-1.25-.375-1.125.125 1.25 1.625 1.75 1.75 2.125.25.5 1-3 1-3 1-.75.125.125 1 2.375 1.375 2.375 1.375l.375.875s-1.125.875-2.125 1.25-2.625 0-1.375.75 1.625.875 3.25.75 3.5-1.375 3.125-.375-2.75 3.125-2.75 3.125 1.375 1.25 2.75.5 2.875-2.5 2.875-1.5-.375 2.875-.375 2.875.875 1.5 1.75.875 1.625-1 2.375-1.875 1-1.75 1-1.75.375-.125 1.25.25 1.875.75 2.875.75 2.625-.5 2.625-.5-1.625-1-1.625-1.75-.125-1.5.75-1.5 4.625.375 5.125.125 2.375-1.25 2.375-1.25l-2.5-1s-.375-1.75.25-1.75 1.875.125 3 0 2.375 0 3-.75 3-1.125 1-1.875-3.25-1.25-3.25-1.25-1.625-.875-.125-1.5 2.125-.5 2.5-1.125 1-2.375 1-2.375-1.125.875-2.125 0-1.5-1.375-1.625-2.125-.375-1 .5-1.375 1.875-.5 2.375-1.625.875-.875.875-1.875 0-2.5 0-3 .125-1.625-1.25-1.5-2.5.125-2.5.125l1.375-2.25s1.375-.5 2.25-1.375 2.375-1.5 2.5-2.5.125-2.375.125-2.375-1.125.875-2.25 1-2.625.75-3.49999.87499z" fill="#cf142b"/><path d="m-354.46527 347.92989s.37803-.69305.75606-.94507.75606-.44103 1.2601-.44103 1.51211.063 2.01615 0 1.70113 0 2.14217 0h2.01615c.88207 0 2.07916.063 2.07916.063m-15.81422.37804c.31502 0 1.19709.18902 1.19709.18902l1.63812-.12601m20.53958 6.5525c0 .25202-.063.88207-.063.88207-.25202.31502-.44103.63005-.44103.63005m.25202 2.52019 1.26009-.56704c.37803-.25202 1.3231-.94508 1.3231-.94508.18902-.31502.50404-1.26009.50404-1.26009.063-.56705.18902-1.13409.18902-1.13409 0-.56704 0-1.44911 0-1.44911m-23.05978 10.33279.75606 1.00808c.25202.12601 1.38611-.44103 1.38611-.44103.12601-.75606.94507-.94507.94507-.94507l1.3231.063c.31503.25202 1.76414.12601 1.76414.12601.44103-.44103 1.3861-1.38611 1.3861-1.38611.25202 0 1.57513.25202 1.57513.25202l.88206-1.70113c.18902-.37803 1.00808.25202 1.00808.25202.31503.18902 1.70113-.63005 1.70113-.63005 0-.50404.12601-1.3861.12601-1.3861 0-.37803.37803-1.32311.37803-1.32311m-13.08534-3.76714-1.61195.4741-.0948.28447m2.93941 4.74102-1.99123-.56893m-31.10109-10.99916.56892 1.04302c-.0948.4741-.18964 1.32749-.18964 1.32749v1.61194m6.54261-5.02548c0 .4741.0948 1.70677.0948 1.70677l-.94821 1.23266-.18964 1.04303m-6.16331 28.63576.28447.85339c0 1.04302.0948 1.80159.0948 1.80159.18964.37928 1.32748 1.32748 1.32748 1.32748m-5.49956 2.84461 1.4223-.18964c.66375.75857 2.46533.56893 2.46533.56893l1.61195-.37929m61.15917 4.93067c.18964-.37928 1.23267-1.23267 1.23267-1.23267l1.23266-.28446h1.51713c.56892 0 2.56015-.56892 2.56015-.56892m-4.37706-4.83924c.56893.85338 2.19619 1.80498 2.19619 1.80498.9482.18964 2.56015.37929 2.56015.37929m72.72726 6.35296c-.0948-.37928-.0948-1.23266-.0948-1.23266.37928-.85339 1.51713-1.89641 1.51713-1.89641.37928-.9482.66374-2.65497.66374-2.65497v-.4741m-9.76652 4.26692c.56892-.66375 1.89641-1.80159 1.89641-1.80159 2.84461-1.51713 3.31871-1.89641 3.31871-1.89641 0-.56892.66375-2.27569.66375-2.27569" fill="none"/></g><path d="m-345.89493 346.56434c.063.20487.43929 1.38247.33998 1.90227-.0993.5198-.13269 1.34775-1.03811 1.63303-.9054.28528-1.52113.71702-2.38724.38092-.86611-.33611-1.78632-.56725-1.90633-.77043-.12002-.20318-.59122-.70605-.606-1.22246-.0148-.51643.25123-1.19622.35941-1.40617.10819-.20995.89506-.64677.89506-.64677z" fill="#fff"/></g></g><path d="m-348.73518 346.6078c-.17509.81907.11673 3.71729.23346 3.46527.11672-.25202 1.22565-1.38611 1.22565-2.01616 0-.63004.0584-1.19709.0584-1.19709z"/><path d="m-278 375.00098c-.5-.125-1.5-.75-2.625-1.75s-.875-.625-2.25-2-2.625-1.875-3.125-2.5-1-1.875-1-1.875 0-2.375.875-3 3.25-1.625 4-1.625 1.875.625 2.75 1.375 1.5 1.625 2.125 2.375 2.25 2.25 3.25 3.125 1.75 1.5 3.375 1.75 4.75.5 4.75.5 0 .625-1.75 1.375-1.25.75-3.125 1.25-1.875 1-3.25 1-4 0-4 0zm-78.87501-29.99999 1.25 1.25 1.375-.5c.375-.5 2.5-1.125 2.5-1.125.5-.125 3.125 0 3.125 0 .5 0 2.875.5 2.875.5.5.25 2.375.75 2.375.75 1.875-.25 3.25-.625 3.25-.625.75-.375 2.375-1.5 2.375-1.5.5-.5.75-1.375.75-1.375-1.75.625-4.25 1.25-4.25 1.25-1.25 0-3.125-.375-3.125-.375-1.875-.375-4.375-.625-4.375-.625-.5 0-4 1.75-4 1.75l-3.5.5zm-15.5 40.75c-2 1.125-3 3-3 3 .5.5 5.25-1.125 5.25-1.125.5 0 2.625 1.375 2.625 1.375 0 2.125 2.125-.25 2.125-.25 2.25-2.25 4-1.375 4-1.375.625 1.375 2 2.25 2 2.25 1.375-1.75 4.375-3.625 4.375-3.625.625 1.375 2.75 2.5 2.75 2.5.75-1.5 2.625-3.125 2.625-3.125 1 .375 2.875 1 2.875 1 0-1.125-1.5-4.375-1.5-4.375-1.5-.125-3.375 1.875-3.375 1.875-.75.125-8.125.875-8.125.875-1.5.25-5.25.75-5.25.75-2.125.375-6.5.125-7.375.25zm5.875-13.5c-.875.5-3.75 3.375-3.75 3.375-.25-.5-1.5-4.125-1.5-4.125-.5 0-2.375 1.5-2.375 1.5l-.5-4.5-2.75.5c.125-.75.625-5.25.625-5.25-.625 0-3.25.625-3.25.625l-1.625-2.125c-.625-.625-1.25-4.75-1.25-4.75.125-1.25 2-1.375 2-1.375 1 .75 4.125 4.375 4.125 4.375.375.5 4.75 4.125 4.75 4.125 1.125 1.5 3.5 4.25 3.5 4.25.375.5 2.75.375 2.75.375zm34 1.75c-1 0-2.5 1.375-2.5 1.375 1 .375 1.125 2.5 1.125 2.5-.875 1.25-1.375 3.375-1.375 3.375 2.75-1 6.5-4 6.5-4 1.25-1.125 3.125-2.75 3.125-2.75l6.875.125c.75-.375 3.625-2.125 3.625-2.125 1.25-1.125 4.5-3.625 4.5-3.625 2.5-1.125 6.875-3.125 6.875-3.125l5.625-1.375c.75-.625-1.125-2.375-1.125-2.375-2.75 0-16.625 2.25-16.625 2.25-1.875.125-9.875 1-9.875 1-1.875-.125-6.375 0-6.375 0l3.5 2.375c.25 1.25.5 2.625.5 2.625l-1.625 1.5c-1.25.5-4.75 1.125-4.75 1.125zm-22.75-7.25c-.5.375-3 2.875-3 2.875-1 .75-.875 1.5-.875 1.5 1.5-.25 3.625-.375 3.625-.375v2.75c.5.25 1.375 1.625 1.375 1.625-.125 1.75.375 1.75.375 1.75 1.5-2.125 3.375-3.375 3.375-3.375 1.375 1.25 2.375 2.25 2.375 2.25 0-.625.625-3.125.625-3.125 2.125.125 3.75.25 3.75.25 0-.5-.25-2.625-.25-2.625.75 0 5-.875 5-.875l-1.75-2.75c.5 0 3.875-2.5 3.875-2.5-.625-.75-2.25-3.625-2.25-3.625-1 .375-3.25 3.5-3.25 3.5-.875.875-2-.75-2-.75-1.625 1.5-2.5 2.125-2.5 2.125-2 1.25-3.5 1-3.5 1-2.25 1.375-3.25 1.625-3.25 1.625-.5-.125-1.75-1.25-1.75-1.25zm68.5-30.375c-1.375 1.875-2.75 4.625-2.75 4.625 0 1.125-1.625 3.5-1.625 3.5-1.75.625-4.25 1.375-4.25 1.375-2 .125-4.75.125-4.75.125-2-.625-1.25-1.125-1.25-1.125 2.5-.125 6.125-.5 6.125-.5l2-1.125c.5-.875 2-5.25 2-5.25l.875.875c.625-.625 2.5-1.375 2.5-1.375.625-.625 1.125-1.125 1.125-1.125z" fill="#e91630" transform="translate(-.000021)"/><g stroke="#000"><g fill="#528ef7" stroke-width="1.2"><path d="m-377.01391 345.39054-1.06174.48261s-.67565.0965-1.06174.0965-.96522 0-1.25478-.38608c-.28957-.38609-.0965-1.15827-.0965-1.15827s.48261-.67565.57913-1.15826c.0965-.48261.0965-1.54434.0965-1.54434l-.38609-.48261 1.3513.67565 1.44783 1.3513.57913 1.64087z" transform="translate(-.000021)"/><path d="m-384.05239 344.1791-.86801.77894s-.61557.29478-.98387.41063-.92074.28961-1.3128.008c-.39208-.28141-.43959-1.07594-.43959-1.07594s.25764-.78933.20491-1.27866c-.0528-.48933-.37133-1.50214-.37133-1.50214l-.5131-.34453 1.49176.23907 1.78658.85461 1.04478 1.3915z"/><path d="m-391.05386 347.93646-.4531 1.07465s-.43116.52908-.71492.79089c-.28377.26181-.70941.6545-1.18411.56691-.47464-.0874-.85634-.78586-.85634-.78586s-.10345-.82384-.35976-1.244c-.25637-.42012-.97629-1.20049-.97629-1.20049l-.61101-.0929 1.45132-.41971 1.98043.0114 1.5383.8133z"/><path d="m-384.19823 377.49003-1.05624.49451s-.67453.10409-1.06059.10843c-.38607.004-.96516.0109-1.25898-.37213-.2939-.38281-.10952-1.15711-.10952-1.15711s.47498-.68104.56606-1.1647c.091-.48368.0791-1.54533.0791-1.54533l-.39149-.47824 1.35881.66042 1.46294 1.33492.59754 1.63426z"/><path d="m-393.19574 378.8539-.0831 1.1633s-.23795.63969-.42237.97888c-.18472.33904-.461.84802-.93867.91783-.47752.07-1.06369-.46847-1.06369-.46847s-.36307-.74672-.74097-1.06203c-.37794-.31525-1.3107-.82242-1.3107-.82242l-.60841.10867 1.23905-.86444 1.87874-.62655 1.71821.27498z"/><path d="m-392.54736 387.15146.73469.90576s.26371.62951.36102 1.00313c.097.37371.24336.93404-.0575 1.31157-.30062.37755-1.09654.38535-1.09654.38535s-.77549-.2967-1.26684-.26844c-.49134.0283-1.51879.29593-1.51879.29593l-.36971.49527.31322-1.47797.94268-1.74172 1.44191-.97405z"/><path d="m-320.55994 380.77265-.0759 1.16379s-.23397.64116-.41629.98148c-.18261.34018-.45574.85086-.93297.92363-.47707.073-1.06657-.46187-1.06657-.46187s-.3677-.74446-.74754-1.05742c-.37986-.31292-1.31576-.81428-1.31576-.81428l-.60773.11243 1.23367-.87209 1.87482-.63819 1.71989.26433z"/><path d="m-325.93979 384.91426.25459 1.13813s-.0441.68109-.12334 1.05896c-.0795.37781-.19795.94471-.63543 1.1488-.43726.20428-1.15343-.14314-1.15343-.14314s-.5623-.61094-1.01484-.80439c-.45256-.19341-1.49171-.41121-1.49171-.41121l-.55155.27887.93848-1.18395 1.61954-1.13988 1.72479-.23022z"/><path d="m-325.8192 391.83659.80711.84187s.31493.60552.44279.96982c.12761.36438.3198.9107.0512 1.31182-.26831.40117-1.06089.47477-1.06089.47477s-.79739-.23152-1.2847-.16271c-.48732.0689-1.4891.42059-1.4891.42059l-.32746.52415.18985-1.49881.79534-1.81375 1.35638-1.09001z"/><path d="m-256.36114 385.52183.63601.97757s.19652.65362.25423 1.03537c.0574.38179.14441.95436-.19426 1.29837-.33839.34412-1.1308.26867-1.1308.26867s-.74024-.37612-1.23185-.39936c-.49161-.0232-1.5414.13561-1.5414.13561l-.41944.45392.46595-1.43714 1.11952-1.63369 1.53581-.81804z"/><path d="m-253.37392 391.57889 1.09215.4091s.54617.40931.81924.68225c.27284.27316.68277.68226.61446 1.16015-.068.4778-.75047.88751-.75047.88751s-.81898.13678-1.22838.40992c-.40938.27318-1.15988 1.0242-1.15988 1.0242l-.0681.61428-.47821-1.43311-.069-1.97927.75026-1.57004z"/><path d="m-244.70668 391.91998 1.07222-.4588s.67765-.0814 1.06364-.0728c.38597.009.96498.0215 1.24576.41421.28094.39243.0706 1.16013.0706 1.16013s-.49758.66471-.60485 1.14503c-.10723.48034-.13094 1.54181-.13094 1.54181l.3752.49112-1.33585-.70569-1.41731-1.38329-.54232-1.65342z"/></g><path d="m-410.00002 263.00099v114.99999s-.00001 90.00001 92.49999 125c92.50001-34.99999 92.5-125.00001 92.5-125.00001v-114.99999z" fill="none"/></g></g><g transform="scale(.5)"><path d="m0 0h1500v750h-1500z" fill="#00247d"/><g id="a"><path id="b" d="m167.7051 0 457.2949 228.64745v-228.64745h50l75 325-750-25v-50h332.2949l-332.2949-166.147451v-83.852549z" fill="#fff"/><use height="750" transform="matrix(-1 0 0 1 1500 0)" width="1500" xlink:href="#b"/><path d="m0 0 500 250h-111.8034l-388.1966-194.098301zm1500 0-500 250h-111.8034l500-250z" fill="#cf142b"/></g><use height="750" transform="matrix(-1 0 0 -1 1500 750)" width="1500" xlink:href="#a"/><path d="m675 0h150v300h675v150h-675v300h-150v-300h-675v-150h675z" fill="#cf142b"/></g></svg>