<svg xmlns="http://www.w3.org/2000/svg" width="800" height="600"><path d="M0 0h800v600H0z"/><path fill-rule="evenodd" clip-rule="evenodd" fill="#FFF" d="M190 165c17.4 10.4 35.3 20.4 52.2 31.3 2.5 7.7 2.7 17 6.1 24 3.4 6.6 13.8 14.3 20.3 20.8L402.5 375c2.8 2.8 9.1 10.4 9.8 10.4 1.6.1 8.8-8.8 11-11l76.2-76.2c29.9-29.9 59.5-56.8 86-88.4-1.7-2.4-4.8-3.5-6.8-5.5-3.9-.9-3.7 7.3-8 8-27-10.9-59.9-18.7-95.8-22.7-35.2-4-75-8.3-113.6-5-4 .4-5.5.5-8.6 2.5-1-3 4.8-7 8-9.8 5.5-5 9.8-9.4 18.4-10.5 19.1-2.3 42-1 63.9-.6 61 1.2 130.2 7.1 167 30.1-9.3 29.2-32.9 46.4-53.4 67-44.2 44.1-88.6 89.4-132.7 132.6 58.1 60 117.8 118.4 176.9 177.4-3.1 4.7-7 8.6-11.7 11.7-58.4-59.3-117.8-117.5-176.2-176.8-60 58-118.5 117.7-177.5 176.8-.5-1.4-11.5-7.6-11.6-10.4 0-1.2 8-8.7 11-11.7 52.1-52.1 103-102.3 155.4-154.7 3-3.1 11-10.4 11-11 .1-2.7-18.5-18.6-20.8-21-42-41.9-81.8-82.3-124-124.6-6.8-6.8-14.6-16.6-21-20.3-7.4-4.3-16.7-4.9-24-9.2-6.9-19.2-14.6-37.7-21.4-57.1z"/><path fill-rule="evenodd" clip-rule="evenodd" fill="#FFF" d="M402.5 262.6c13-1.3 30.9-.4 39.9 4.3a38.1 38.1 0 0 1 19 40c-2.7 13.2-14.3 21.1-21.5 34.3-5 9.1-6.6 23-14.1 26.4a49.8 49.8 0 0 1-25.2.6c-7.6-2.7-10.5-18.9-15.3-27.6-8-14.5-23.4-22.8-21.5-43.6 1.7-19.3 17-32.2 38.7-34.4zM392 314.2c9-1.3 9-19.6-4.3-15.3-10.2 3.2-3.7 16.5 4.3 15.3zm33.2-8.6c-.6 10.9 15.9 11.8 16 .6 0-5.8-4.4-9.1-10.5-7.3-4.7 1.3-5.4 4.1-5.5 6.7zM407.4 329c3.7-.4 9 .9 11.6-.6-2.3-3-3.4-7.2-6.1-9.8-2 3.4-4.2 6.5-5.5 10.4zm-1.9 29.5c19.2 5.7 28.5-10.4 35-22.7-17.2 2.8-39 1.3-55.2.6 6.6 7.8 10.1 19.1 20.2 22.1z"/><path fill-rule="evenodd" clip-rule="evenodd" d="M387.7 298.9c13.3-4.3 13.2 14 4.3 15.3-8 1.2-14.5-12-4.3-15.3zM430.7 298.9c6.1-1.8 10.5 1.6 10.4 7.3 0 11.2-16.5 10.3-16-.6.2-2.6.9-5.4 5.6-6.7zM412.9 318.5c2.7 2.6 3.8 6.9 6.1 9.8-2.6 1.5-8 .2-11.6.6 1.3-3.9 3.6-7 5.5-10.4z"/><path fill-rule="evenodd" clip-rule="evenodd" fill="#FFF" d="M387.7 337.5c.7-1.4 3.9-.2 5.5-.6.9.8.7 2.7.7 4.3-3.2-.1-4-2.6-6.2-3.7zM432.5 337h6.2c-2 1.4-3.5 3.4-6.2 4.2V337zM394.5 337.5h8v9.9a34 34 0 0 1-8-5v-4.9zM431.3 337.5v5.6c-2.7 1.1-5 2.8-7.4 4.3-1.4-1.9-.2-6.4-.6-9.2 1.7-1.3 5.4-.4 8-.7zM403.7 338.2h8.6v10.4c-3.4.3-5.8-.4-8.6-.6v-9.8zM413.5 338.2h8.6v9.8c-2.8.2-5.2 1-8.6.6v-10.4zM433.2 346.8c-2.7-4 2.4-5.3 3.6-7.4 1.2 2.3-2.7 5-3.6 7.4zM394.5 344.3c3 1 5 3.2 8 4.3v7.4c-3.4-3.2-8.6-4.6-8-11.7zM424 356c-1.5-1.3-.3-5.1-.7-7.4 3-1 5-3.2 8-4.3.9 7.2-4.2 8.5-7.4 11.7zM403.7 349.2h8.6v9.2c-6.1.2-10.3-1.5-8.6-9.2zM413.5 349.2h8.6v7.4c-2.4 1-5.2 1.7-8.6 1.8v-9.2zM324.3 536.8c1.2-4.5 3.8-7.4 8.4-8.2-.3-2.3-1.5-3.7-1-6.8 6.5-12 24.7.6 32.4 5.1 13.4 7.8 33.1 9.2 46.7 14.4-7.5 2.1-15.6 2.5-24.2 3.8-7.8 1.2-16.7 4.6-24.1 3.9-3.5-.4-7.5-3.2-11.5-4.2-9-2.4-20.2-1.5-26.7-8z"/><path fill-rule="evenodd" clip-rule="evenodd" fill="#FFF" d="M323.2 559.8c37-7.9 77.3-14.3 114.3-23.3 6.5-1.6 12.6-2.4 18.4-4.3 8.4-2.8 15.8-11.4 27.6-9.8 2.2 3-1.8 4-1.2 7.3 2.7 2.6 8.1 2.6 11 5-1 4-1.4 5.9-1.8 9.8-42 10-92.3 20.7-139.4 30.7-5.4 1.1-13.6 3.5-16 3-3.7-.7-4.2-5.2-6.7-9.2-2.5-3.8-6.6-5.1-6.2-9.2zM503.2 564.4c-.7 4-4.6 4.6-7.1 8.3-2.2 3-2.8 8.2-6.6 9-4 .7-13-3-18.8-4.6-16.8-4.4-38.9-10.6-54.7-14.1 13.2-2.4 29.5-7.3 44.6-8.5 8.3-.6 16.6 3 24.4 4.8 6.1 1.4 13 1.7 18.2 5.1z"/><path fill-rule="evenodd" clip-rule="evenodd" d="M385.3 336.3c16.3.7 38 2.2 55.2-.6-6.5 12.3-15.8 28.4-35 22.7-10-3-13.6-14.3-20.2-22zm51.5 3c-1.1 2.2-6.3 3.6-3.6 7.5.9-2.4 4.8-5 3.6-7.4zm-5.5 5c-3 1-5 3.2-8 4.3.4 2.3-.8 6.1.6 7.4 3.2-3.2 8.3-4.5 7.4-11.7zm-19 14.1v-9.2h-8.6c-1.7 7.7 2.5 9.4 8.6 9.2zm-9.8-2.4v-7.4c-3-1-5-3.2-8-4.3-.6 7.1 4.6 8.5 8 11.7zm-8.6-9.2c1-4.4-3.5-6.4-5-6.2 2 1.8 2.3 5.2 5 6.2zm0-5.6c0-1.6.2-3.5-.7-4.3-1.6.4-4.8-.7-5.5.6 2.3 1 3 3.6 6.2 3.7zm38.6 0c2.6-.8 4.2-2.8 6.2-4.3h-6.2v4.3zm-38 1.3c2.3 1.9 5 3.6 8 4.9v-9.9h-8v5zm28.8-4.3c.4 2.8-.8 7.3.6 9.2 2.5-1.5 4.7-3.2 7.4-4.3v-5.6c-2.6.3-6.3-.6-8 .7zm-19.6 9.8c2.8.2 5.2 1 8.6.6v-10.4h-8.6v9.8zm9.8.6c3.4.3 5.8-.4 8.6-.6v-9.8h-8.6v10.4zm0 9.8c3.4 0 6.2-.8 8.6-1.8v-7.4h-8.6v9.2z"/><path fill-rule="evenodd" clip-rule="evenodd" fill="#FFF" d="M389 340.6c1.4-.2 6 1.8 4.9 6.2-2.7-1-3-4.4-5-6.2z"/><g fill="#FFF"><path fill-rule="evenodd" clip-rule="evenodd" d="M201.1 60.1c1.2-3.9 8.1 1.1 9-3.2-3.5-7.2-17.3-10.8-20-2.6-1.7 5-1.6 21-1 28.5.7 11.3 5.8 20.7 12 20.5 6.8-.2 6-8.2 11.6-10.5-1.1 10-10.6 17.1-19 10-4.5-3.8-6.7-10.2-7.3-19-1-14-2.4-37 11-36.9 4.3 0 15.5 4 15.3 9.5-.1 5.3-6.3 6.6-11.6 3.7z"/><path d="M200.8 106.2c-2.5 0-5-1-7.4-3-4.4-3.8-6.8-10-7.5-19.3-1-13.4-1.5-28.2 4.4-34.5 1.8-2 4.2-3 7-3h.2c3.4 0 10.6 2.4 13.9 5.9 1.3 1.3 1.9 2.7 1.8 4.1 0 3.5-2.6 5.7-6.5 5.7-2 0-4-.5-5.8-1.6l-.3-.2V60c.6-2 2.5-2 3.1-2l2 .2 1.7.1c1.3 0 2-.4 2.2-1.3-2-3.9-7.3-7-12.2-7-2 0-5.6.6-6.9 4.5-1.6 4.9-1.5 20.7-1 28.2.8 11.3 5.8 20.2 11.4 20.2h.2c3.5-.2 4.8-2.4 6.2-5 1.3-2.2 2.6-4.5 5.3-5.6l.7-.3v.9c-1 7.4-6.4 13.3-12.5 13.3zm-3.5-58.8c-2.6 0-4.6.9-6.3 2.7-6.1 6.5-4.8 24.2-4.1 33.7.6 9.1 3 15 7.2 18.6 2.1 1.9 4.4 2.8 6.7 2.8 5.4 0 10.2-5 11.3-11.5-1.8 1-2.9 2.9-3.9 4.7-1.5 2.6-3 5.3-7 5.4h-.2c-6.3 0-11.7-9-12.5-21a121 121 0 0 1 1.1-28.7c1-3.2 4-5 7.8-5 5.3 0 11.1 3.3 13.2 7.6V57c-.5 2.3-2.5 2.3-3.2 2.3l-1.9-.1-1.8-.2c-1 0-1.6.3-2 .9a11 11 0 0 0 5 1.2c2.6 0 5.4-1.2 5.5-4.7 0-1.1-.4-2.3-1.5-3.4-3.1-3.3-10-5.5-13.3-5.6h-.1z"/><path fill-rule="evenodd" clip-rule="evenodd" d="M616.7 50c-.7 18 1.4 43.3-1 61.3-3-3.3-1.6-11-1.6-17V76a128 128 0 0 0-10 18c-2.8 6.1-4.3 13.8-9.6 17.9 3.3-13 10.8-26.5 17.4-38-17.6 3.6-14-33.1 4.8-23.7zM605 70.2c2.1.7 6.9 1 9 0V52.2c-11.1-4.1-13.2 11.4-9 18z"/><path d="M593.7 113l.4-1.3c3-12.4 9.7-24.7 16.9-37.2-3.7.4-6.7-.9-8.7-3.8a14.9 14.9 0 0 1-2.3-8.3c0-7 3.8-14.4 10.9-14.4 1.9 0 3.9.6 6 1.6l.3.2v.3c-.3 6.7-.1 14.4 0 22.5.2 13.5.5 27.5-1 38.7l-.2 1.1-.7-.8c-2.4-2.7-2.1-7.9-1.9-12.9l.2-4.3V77.6c-2.9 4.5-6.3 10.1-9.1 16.5l-2 5c-1.8 4.9-3.6 10-7.7 13l-1.1 1zm19.2-39.9l-.5 1c-7 12.2-13.6 24.2-17 36.2 3-3 4.6-7.3 6.2-11.6l2-5c3.1-7.1 7-13.4 10-18l1-1.5v20.2l-.2 4.4c-.2 4.1-.4 8.4 1 11 1.2-10.9 1-24.3.8-37.2-.1-8-.3-15.5 0-22.2-1.9-1-3.7-1.4-5.3-1.4-6.4 0-9.9 6.9-9.9 13.4 0 3 .8 5.8 2.1 7.8 2 2.8 5 3.9 8.7 3.1l1.1-.2zm-2.9-1.9c-1.8 0-3.8-.2-5-.6h-.2l-.1-.2a17 17 0 0 1-.5-15.4c2-3.7 5.6-4.9 10-3.3l.4.1v18.6l-.3.2c-1.2.5-3 .6-4.3.6zm-4.6-1.5c1.2.3 3 .5 4.6.5a11 11 0 0 0 3.6-.4V52.5c-1.1-.3-2-.5-3-.5-3 0-4.6 1.9-5.5 3.5-2.1 4-2 10.4.3 14.2z"/><path fill-rule="evenodd" clip-rule="evenodd" d="M324.5 52.2c-1.2 8.1 2.3 16.3-1 21-3 4.6-9.8 2.4-16.4 3.8-.6 10.9 1.4 24.6-1 33.7-3-3.5-1.6-9.3-1.6-14.2 0-14.5-.4-32 .5-45.9 5.5-1.9 15.8-1.6 19.5 1.6zm-17.4.5v21.6c5-.6 11.1-.1 14.3-2.6.8-5 1-15.7-.5-18.5a28.3 28.3 0 0 0-13.8-.5z"/><path d="M306.3 111.8l-.6-.8c-2.3-2.8-2-7-1.8-11l.1-3.5V86c-.1-12.2-.2-24.8.5-35.5v-.4h.4c2.2-.8 5.3-1.2 8.4-1.2 5.1 0 9.4 1 11.6 2.8l.2.2v.3c-.6 3.4-.3 6.7 0 10 .4 4.3.8 8.3-1.2 11.3-2.1 3.1-6 3.2-10 3.3-2 0-4.2 0-6.3.5-.2 4 0 8.5 0 12.8.3 7.3.5 14.9-1 20.7l-.3.9zm-.8-60.8c-.7 10.6-.6 23-.5 35v10.5l-.1 3.6c-.3 3.4-.5 6.9 1 9.4 1.2-5.5 1-12.5.8-19.3-.2-4.5-.3-9 0-13.3v-.3l.3-.1c2.4-.5 4.7-.6 6.9-.6 4 0 7.3-.2 9.2-2.9 1.8-2.6 1.4-6.3 1-10.7-.3-3-.6-6.5 0-9.9-2.1-1.5-6.2-2.4-10.8-2.4-2.9 0-5.7.3-7.8 1zm1.1 24V52.2h.4a24 24 0 0 1 5.8-.7c3.2 0 6.2.5 8.2 1.2h.2v.2a47 47 0 0 1 .7 18.8v.2l-.2.1c-2.4 1.9-6.4 2.1-10.2 2.4l-4.3.3-.6.1zm1-21.9v20.7l3.8-.3c3.6-.2 7.3-.5 9.5-2 .8-5 1-15-.4-17.8a26 26 0 0 0-12.9-.6z"/><path fill-rule="evenodd" clip-rule="evenodd" d="M669 49.6h1.5c1.3 11.7.2 25.8.6 38.5 16-3.1 26.5 4.4 22.1 18.4-4.4 4-18 4.3-24.2 1.6-1-18.3-1-40.3 0-58.5zm2 41v16c6.3.8 15.8 1 20.1-1.7 1.7-6-1.3-11.6-4.7-14.2H671z"/><path d="M679.7 110.4c-4.3 0-8.3-.7-11-1.9h-.2v-.4c-1-18.3-1-40.2 0-58.6v-.4h2.5v.4c.8 7.3.7 15.7.6 23.7 0 4.7-.2 9.6 0 14.3 2.2-.4 4.3-.6 6.3-.6 6.5 0 11.7 2 14.5 5.9 2.6 3.5 3 8.3 1.3 13.9l-.1.2c-2.9 2.6-9 3.5-13.9 3.5zm-10.3-2.6c2.5 1 6.3 1.6 10.3 1.6 5.8 0 10.8-1.2 13-3.2 1.7-5.1 1.3-9.6-1.1-12.8-2.6-3.6-7.5-5.5-13.7-5.5a36 36 0 0 0-6.7.6l-.6.2V88c-.2-4.9 0-10 0-14.9 0-7.9.2-16-.5-23.1h-.7c-.8 18-.8 39.6 0 57.7zm10.2-.2c-2.8 0-5.8-.2-8.6-.6h-.4V90.1h16c3.7 2.8 6.7 8.6 5 14.9v.1l-.2.1c-3 2-8 2.3-11.8 2.3zm-8-1.5c2.6.3 5.4.5 8 .5a24 24 0 0 0 11-2 13.1 13.1 0 0 0-4.4-13.4h-14.6V106z"/><path fill-rule="evenodd" clip-rule="evenodd" d="M227.5 50c6.2 6.2 9.2 15.5 13.7 23.3 5.2-6.3 8.6-17.1 13.7-21.6a393 393 0 0 1 3.2 57c-3.9-2-2.2-10-2.6-15.4-.8-9.9-1.5-22.9-1.6-34.8-5.2 5.4-7.6 13.5-12.1 19.5-5-6.2-8.4-14-12.2-21.6-3 15.8-.6 37-4.2 52.2-3.4-2-1.2-5.5-1-8.4.6-14.7 1.2-33.5 2-48.5.2-.7 1-.9 1.1-1.6z"/><path d="M258.6 109.4l-.7-.3c-3.1-1.6-3-6.4-3-11 .1-1.6.2-3.3 0-4.7-.9-12.8-1.4-24.1-1.5-33.6a50 50 0 0 0-6 9.8c-1.6 3-3.2 6.1-5.3 8.7l-.3.5-.4-.5A94.8 94.8 0 0 1 229.8 58c-1.2 7.1-1.4 15.4-1.6 23.4-.2 9.5-.4 19.3-2.3 27.3l-.2.7-.6-.4c-2.7-1.7-2.1-4.3-1.6-6.5l.3-2.3.8-17.3c.4-10.7.8-21.7 1.4-31.3.1-.5.4-.8.6-1 .3-.3.4-.4.4-.6l.2-1 .7.7c4.2 4.2 7 10 9.7 15.5 1.1 2.4 2.4 4.9 3.7 7.2 2.1-2.7 4-6.2 5.7-9.6 2.4-4.6 4.7-9 7.6-11.5l.7-.6.1.9c2.7 16.1 3.1 37 3.2 57v.8zM227 51.8c-.6 9.5-1 20.5-1.4 31.1l-.8 17.3c0 .8-.2 1.7-.4 2.5-.4 2-.8 3.8.7 5 1.7-7.7 2-17.2 2.2-26.3.2-8.6.4-17.5 1.8-25l.3-1.5.7 1.3L232 60c2.9 6 5.8 12 9.7 17.1 1.8-2.4 3.3-5.3 4.7-8 2-4 4.1-8 7.1-11l.9-.9v1.2c0 9.7.6 21.4 1.6 34.8V98c-.1 3.8-.2 7.8 1.6 9.5 0-19.3-.5-39.3-3-55a46.5 46.5 0 0 0-6.7 10.6c-2 3.7-4 7.5-6.3 10.4l-.4.6-.4-.7c-1.5-2.5-2.8-5.3-4.1-8a58 58 0 0 0-9-14.6l-.4.4c-.2.2-.3.3-.3.5z"/><path fill-rule="evenodd" clip-rule="evenodd" d="M494.3 78.6c-.6 10.9 1.4 24.5-1 33.7-3-3.6-1.6-9.5-1.6-14.2V51c7.1.6 23-4.2 28 1.6 3.1 3.7 2.5 15.7 0 20-3.8 6.6-17.4 4.5-25.4 5.9zm0-24.8v22.1c8.7-.6 18.4-.3 23.2-4.7.4-5.2 2.2-12.4 0-16.9-5.8-3-16.2-1.2-23.2-.5z"/><path d="M493.5 113.4l-.6-.8c-2.3-2.9-2-7-1.8-11l.1-3.5V50.6h.5c2.2.2 5.3-.2 8.6-.5 3.3-.4 6.7-.8 9.8-.8 5 0 8.1 1 10 3.1 3.4 4 2.5 16.3 0 20.6-2.8 4.9-10.8 5.2-17.8 5.5-2.7 0-5.3.2-7.5.5-.2 4 0 8.4 0 12.7.3 7.4.5 15-1 20.7l-.3 1zm-1.3-61.7V98l-.1 3.5c-.3 3.4-.5 7 1 9.5 1.2-5.5 1-12.5.8-19.3-.2-4.5-.3-9.1 0-13.3v-.4h.4c2.3-.4 5-.5 8-.6 6.7-.3 14.4-.6 17-5 2.5-4.4 3-16 0-19.5-1.6-1.8-4.6-2.7-9.2-2.7-3 0-6.4.4-9.6.8-3.2.3-6 .7-8.3.6zm1.6 24.8V53.3h.5l3.5-.4c3.3-.3 7-.8 10.6-.8 4 0 7.1.6 9.4 1.8h.1l.1.2c1.7 3.5 1 8.6.5 13.1l-.5 4v.2l-.1.1c-4.2 3.9-11.9 4.3-19.3 4.7l-4.2.2h-.6zm1-22.3v21.2l3.8-.2c7.1-.4 14.5-.8 18.5-4.3 0-1.2.2-2.4.4-3.8.6-4.3 1.2-9.1-.3-12.4-2.1-1-5-1.6-8.8-1.6-3.5 0-7.2.5-10.5.8l-3 .3z"/><path fill-rule="evenodd" clip-rule="evenodd" d="M598.8 50h1.5c-.2 8.4-4 18.2-6.8 28.6-3.8 14.1-4.6 33.2-20.6 32.1-1.6-1.4-2.7-8.2-.5-10 3.2.1.5 6.2 2.1 8 9.8 0 10-9.6 12.7-18 .5-1.7 2.1-4 2-5.3 0-4.5-5.3-11.9-7.8-17.4-3-6.2-7-11.7-6.9-16.9 4.5 3.2 6 9.3 8.4 14.3 2.5 5 5 10.1 6.9 15.3 4.2-9 5.5-21 9-30.6z"/><path d="M574.2 111.3h-1.5l-.1-.2c-1.2-1-2-4-2-6.4 0-2 .6-3.6 1.5-4.4H572.4a2 2 0 0 1 1.5.5c.8 1 .7 2.6.6 4.1 0 1.3-.1 2.6.3 3.2 7.4-.1 8.9-6 10.6-13l1.3-4.6 1-2.4a8 8 0 0 0 1-2.7c0-3-2.5-7.3-4.8-11.5l-3-5.7-2.6-5a27.4 27.4 0 0 1-4.3-12v-1l.8.5c3.5 2.5 5.3 6.8 7 10.9a79.4 79.4 0 0 0 3 6.5c1.8 3.7 3.6 7.4 5 11.2 2-4.8 3.4-10.4 4.7-15.9 1.1-4.5 2.3-9.3 3.8-13.5l.1-.3h2.5v.5c-.2 6-2.2 12.7-4.4 19.8l-2.5 8.8c-.7 2.4-1.2 5-1.8 7.5-2.6 12.3-5.4 25-18 25zm-1-1h1c11.8 0 14.5-12.4 17-24.3l1.8-7.6 2.6-8.8c2-6.8 4-13.3 4.2-19h-.7c-1.4 4-2.5 8.6-3.6 13-1.4 6-2.9 12.1-5.3 17.3l-.5 1-.4-1c-1.5-4.2-3.5-8.3-5.4-12.3l-1.4-3-1.6-3.6c-1.5-3.7-3-7.4-5.8-9.8.3 3.3 2.1 6.8 4.1 10.5.9 1.6 1.8 3.3 2.6 5.1l3 5.6c2.4 4.3 4.9 8.8 5 12 0 .8-.6 2-1.2 3.2l-1 2.2-1.2 4.6c-1.8 7-3.5 13.7-11.8 13.7h-.3l-.2-.1c-.8-1-.7-2.6-.6-4.1.1-1.4.2-2.8-.3-3.4a1 1 0 0 0-.6-.3c-.6.6-1 1.9-1 3.5 0 2.2.7 4.7 1.5 5.5z"/><path fill-rule="evenodd" clip-rule="evenodd" d="M625.8 50c6.1 6.2 9.2 15.5 13.7 23.3 5.2-6.3 8.6-17.1 13.7-21.6 2.8 16.8 3.1 39.2 3.2 57-4-2-2.3-10-2.7-15.4a567 567 0 0 1-1.5-34.8C646.9 64 644.6 72 640 78c-5-6.2-8.4-14-12.1-21.6-3 15.8-.6 37-4.2 52.2-3.4-2-1.2-5.5-1-8.4.6-14.7 1.2-33.5 2-48.5.2-.7 1-.9 1-1.6z"/><path d="M656.9 109.4l-.8-.3c-3-1.6-3-6.4-2.8-11v-4.7a566 566 0 0 1-1.6-33.6 50 50 0 0 0-6.1 9.8c-1.6 3-3.2 6.1-5.2 8.7l-.4.5-.4-.5A94.7 94.7 0 0 1 628.1 58c-1.2 7.1-1.4 15.4-1.6 23.4-.2 9.5-.4 19.3-2.3 27.3l-.2.7-.6-.4c-2.8-1.7-2.2-4.3-1.7-6.5.2-.8.4-1.6.4-2.3l.7-17.2 1.4-31.4c.2-.5.5-.8.7-1 .2-.3.4-.4.4-.6l.2-1 .6.7a56 56 0 0 1 9.7 15.4c1.2 2.5 2.4 5 3.8 7.3 2-2.7 4-6.2 5.7-9.6 2.4-4.6 4.7-9 7.6-11.5l.7-.6.1.9c2.7 16.1 3.1 37 3.2 57v.8zm-31.7-57.6L623.8 83l-.7 17.2c0 .8-.2 1.7-.4 2.5-.4 2-.8 3.8.7 5 1.7-7.7 1.9-17.2 2.1-26.3.2-8.6.4-17.5 1.9-25l.3-1.5.6 1.3 2 3.9c2.8 6 5.8 12 9.7 17.1 1.8-2.4 3.3-5.3 4.7-8 2-4 4.1-8 7.1-11l.8-.9v1.2c.1 9.7.7 21.4 1.6 34.8V98c0 3.8-.1 7.8 1.7 9.5-.1-19.3-.6-39.3-3-55a46.5 46.5 0 0 0-6.7 10.6c-2 3.7-4 7.5-6.3 10.4l-.5.6-.3-.7c-1.5-2.5-2.9-5.3-4.2-8-2.5-5.1-5.1-10.5-9-14.6 0 .2-.2.3-.3.4l-.4.5z"/><g><path fill-rule="evenodd" clip-rule="evenodd" d="M370.4 52.2c1.2 2.6 2.7 12.8-1 13.7-1.2-2.9-.3-7.8-.6-11.6-2.8-.8-9.6.5-15.3 0-1.9 17 1.3 39.2-1.5 55.4-3-3.2-1.6-8.8-1.6-13.2V53.8c-6.4.5-12-1.5-16.4 1-1.7 3.7.8 9.6-.5 12.7-3.8.5-3-11-1.6-14.2 9-4.8 27.5-1 38.5-1.1z"/><path d="M352.3 110.8l-.7-.8c-2.4-2.6-2.1-6.5-1.9-10.3l.2-3.2V54.3H348l-4.4-.1-3.6-.2c-2.5 0-4.2.4-5.7 1.2-.8 1.8-.5 4.2-.2 6.5.2 2.3.4 4.4-.2 6l-.1.2h-.3l-.3.1c-.6 0-1.3-.2-2-1.1-1.8-2.9-1-11 .2-13.8v-.2h.2c3.2-1.8 7.6-2.6 14-2.6 4.5 0 9.1.4 13.6.8 4 .3 7.8.6 11 .6h.4l.2.3c1 2.1 2.2 9.3.6 12.6-.5 1-1.2 1.6-2 1.8h-.4l-.2-.3c-.8-2-.7-4.7-.6-7.3v-4.1c-1.2-.2-3.7-.2-6.4 0l-5.5.2H354c-.8 7.6-.6 16.5-.5 25 .3 10.4.5 21-1 29.9l-.2 1zm-1.4-57.6v43.3c0 1 0 2.2-.2 3.3-.2 3.1-.4 6.3 1 8.6 1.3-8.4 1-18.6.8-28.4-.1-8.8-.3-17.9.5-25.8l.1-.4h.5l2.8.1c1.9 0 3.7 0 5.4-.2l4.2-.2c1.3 0 2.3.1 3 .3l.3.1v4.9c0 2.3-.1 4.7.4 6.5l.9-1.1c1.4-3 .3-9.2-.5-11.5-3.2 0-7-.3-10.9-.6-4.4-.4-9-.8-13.5-.8-6 0-10.4.8-13.4 2.3-1 2.7-1.7 10.2 0 12.7.2.4.5.7.9.7a14 14 0 0 0 0-5.1c-.3-2.6-.6-5.2.4-7.3v-.1l.2-.1A12 12 0 0 1 340 53c1.2 0 2.4 0 3.7.2l4.3.2 2.2-.1h.6z"/></g><g><path fill-rule="evenodd" clip-rule="evenodd" d="M483.8 51.7h1.6c-.2 8.3-4.1 18.1-6.9 28.4-3.7 14.2-4.5 33.3-20.5 32.2-1.7-1.4-2.7-8.2-.6-10 3.3.1.6 6.1 2.1 7.9 9.8 0 10-9.5 12.7-18 .5-1.7 2.1-4 2.1-5.2-.1-4.6-5.3-11.9-7.9-17.4-3-6.3-6.9-11.7-6.9-16.9C464 56 465.6 62 468 67c2.4 5 5 10 6.8 15.3 4.2-9 5.5-21 9-30.6z"/><path d="M459.2 112.9h-1.3l-.1-.1-.2-.1c-1.2-1-1.9-4.1-1.9-6.5 0-2 .5-3.5 1.4-4.3l.2-.1h.1a2 2 0 0 1 1.5.6c.9 1 .8 2.5.7 4.1-.1 1.3-.2 2.5.2 3.2 7.4-.1 9-6 10.7-13l1.2-4.6 1-2.4a8 8 0 0 0 1.1-2.7c0-3-2.5-7.3-4.9-11.5l-3-5.7-2.5-5c-2.3-4.2-4.4-8.2-4.4-12v-1l.8.5c3.6 2.5 5.4 6.8 7 10.9a78.8 78.8 0 0 0 3 6.5c1.8 3.7 3.6 7.4 5 11.2 2.1-4.8 3.5-10.4 4.8-15.9 1-4.6 2.2-9.3 3.7-13.5l.1-.3h2.5v.5c-.2 6-2.2 12.7-4.3 19.8a172.6 172.6 0 0 0-4.3 16.3c-2.7 12.3-5.5 25-18.1 25zm-1-1h1c11.8 0 14.5-12.4 17-24.3L478 80l2.6-8.8c2-6.8 4-13.3 4.3-19h-.7c-1.5 4-2.6 8.6-3.6 13-1.5 6-3 12.1-5.3 17.3l-.5 1-.4-1a126.6 126.6 0 0 0-6.9-15.3l-1.6-3.6c-1.5-3.7-3-7.4-5.8-9.8.3 3.3 2.2 6.8 4.2 10.5l2.5 5 3 5.7c2.4 4.3 4.9 8.7 5 12 0 .8-.5 2-1.1 3.1a17 17 0 0 0-1 2.3l-1.3 4.6c-1.8 7-3.5 13.7-11.8 13.7h-.2l-.2-.2c-.8-.9-.7-2.5-.6-4 0-1.4.1-2.8-.4-3.4a1 1 0 0 0-.6-.3c-.6.6-.9 1.9-.9 3.4 0 2.5.7 4.8 1.5 5.6z"/></g><g><path fill-rule="evenodd" clip-rule="evenodd" d="M561.8 51.7c-3.2 8.6-9.8 14-14.2 21.6 5.8 13 14.7 22.9 20 36.4-3.8 0-4.3-4.5-5.8-6.9-4.3-7.2-9.9-15-13.7-23.2-1.9 8.8 1.2 22.7-1.5 30.6-3-3.5-1.6-10-1.6-15.8V77c-6.4 9-13.5 17.7-20 26.9-2 2.7-3.2 7.4-7.5 7.9 7.4-14 17.8-25.2 26.4-38-2.5-7.1-9.3-12.8-10-20 5.3 3.5 7.3 10.2 10.5 15.8 1.9-3.4-1-11.6 1.6-14.2 3.4 1.2.8 8.3 1.6 12 5.2-2.6 7.3-13 14.2-15.7z"/><path d="M516.7 112.4l.4-.8c4.7-9 10.7-17 16.5-24.5 3.3-4.3 6.7-8.8 9.8-13.4-1.1-2.8-2.9-5.5-4.6-8.1-2.5-3.7-5-7.5-5.4-11.8l-.1-1 .9.6c4 2.6 6.2 7 8.3 11.4l1.9 3.6c.3-1.5.2-3.5 0-5.5-.1-3.1-.3-6.3 1.3-7.9l.2-.2h.3c2.5 1 2.2 4.4 2 7.7-.2 1.5-.3 3-.2 4.2 1.9-1.3 3.4-3.8 5-6.4 2.3-3.7 4.6-7.6 8.7-9.1l1-.4-.4 1c-2 5.3-5.2 9.4-8.3 13.4-2 2.6-4.1 5.2-5.8 8.1 2.6 6 6 11.3 9.3 16.6 3.8 6 7.8 12.3 10.6 19.6l.3.7h-.8c-3.2 0-4.3-2.8-5.2-5a274 274 0 0 0-5.2-8.9c-3.1-4.9-6.3-9.8-8.8-15-.6 3.7-.4 8.2-.3 12.6.2 6 .5 12-1 16.5l-.4.8-.5-.7c-2.3-2.8-2.1-7.2-1.9-11.9l.2-4.2V78.5c-3 4.1-6.1 8.3-9.2 12.2l-10 13.5-1.3 2.3c-1.4 2.5-3 5.4-6.4 5.8h-1zm17.9-57.5c.6 3.6 2.8 6.8 5 10.1a40 40 0 0 1 4.8 8.6v.5c-3.2 4.7-6.7 9.2-10 13.6-5.6 7.3-11.3 14.9-16 23.4 2.3-.8 3.5-3 4.7-5.1l1.4-2.4 10-13.5c3.4-4.4 6.9-8.9 10-13.4l1-1.3v19l-.2 4.3c-.2 4-.4 7.8 1 10.4 1.2-4.2 1-9.8.8-15.2-.2-5-.3-10.3.5-14.4l.4-1.5.6 1.4c2.6 5.7 6 11 9.4 16.3 1.5 2.4 3 4.6 4.3 6.9.4.6.7 1.3 1 2.1.8 2 1.6 4 3.6 4.4-2.8-6.9-6.6-12.9-10.3-18.7a134 134 0 0 1-9.4-17l-.1-.1V73c1.8-3 4-5.8 6-8.4 3-3.6 5.9-7.4 7.8-12-3 1.7-5 5-7 8.3-1.9 3-3.6 5.7-6 7l-.6.3-.2-.6c-.3-1.4-.1-3.3 0-5.1.3-2.8.5-5.7-1-6.5-1 1.3-.8 4.1-.6 6.8.1 2.6.3 5.3-.6 7l-.4.8-.5-.8-2.4-4.6c-1.9-3.8-3.8-7.8-7-10.3z"/></g><g><path fill-rule="evenodd" clip-rule="evenodd" d="M378.9 52.2h1.5c1.3 11.8.2 25.8.6 38.5 16-3.1 26.5 4.5 22.1 18.4-4.4 4-18 4.4-24.2 1.6-1-18.3-1-40.2 0-58.5zm2 41.1v15.8c6.3 1 15.8 1.2 20.1-1.5 1.7-6.1-1.3-11.6-4.7-14.3H381z"/><path d="M389.6 113c-4.3 0-8.3-.7-11-1.8l-.2-.1v-.3c-1-18.4-1-40.3 0-58.6v-.5h2.5v.4c.8 7.4.7 15.7.6 23.8 0 4.7-.2 9.6 0 14.2 2.2-.4 4.3-.6 6.3-.6 6.5 0 11.7 2.1 14.5 6 2.6 3.5 3 8.3 1.3 13.8v.1l-.1.1c-2.9 2.6-9 3.5-13.9 3.5zm-10.3-2.6c2.5 1 6.3 1.6 10.3 1.6 5.8 0 10.8-1.2 13-3.1 1.7-5.2 1.3-9.6-1.1-12.9-2.6-3.5-7.5-5.5-13.7-5.5a36 36 0 0 0-6.7.7h-.6v-.5c-.2-4.8 0-10 0-14.8 0-7.9.2-16-.5-23.2h-.7c-.8 18.1-.8 39.6 0 57.7zm10.2-.1c-2.8 0-5.8-.2-8.6-.7h-.4V92.8h16v.1c3.7 2.7 6.7 8.5 5 14.8v.2h-.2c-3 2-8 2.4-11.8 2.4zm-8-1.6c2.6.4 5.4.6 8 .6a24 24 0 0 0 11-2 13.1 13.1 0 0 0-4.4-13.5h-14.6v15z"/></g><g><path fill-rule="evenodd" clip-rule="evenodd" d="M293.4 53.8c1.6 3.3 1.9 12.1-.5 14.7-3-1.6 0-7.6-1-12-7-.7-15.4-1.7-22.2-.6-1.2 7.7-.2 17.7-.5 26.4 4.8.6 12.2-1.3 15.3 1-2 3.4-10.2.7-14.8 1.6a63.2 63.2 0 0 0 1 21.6c7.8-.6 17 2.3 22.7-1 2.2-2.2-.8-6.4 1.6-8 4.2 3 1.6 9.5-1 11.1-5.6 3.4-17.4-.6-24.3.5-6-13.2-2-36.3-3.2-54.3 6.1-4 18.8-1.4 27-1z"/><path d="M287.3 110.5c-2.4 0-5-.3-7.5-.5-2.5-.3-5-.6-7-.6l-3 .2-.4.1-.2-.3c-4-8.9-3.5-22.2-3.2-35 .2-6.6.4-13.4 0-19.5v-.3l.3-.2c2.3-1.6 5.7-2.3 10.6-2.3 3.3 0 6.8.4 10.2.7l6.3.5h.4v.3c1.7 3.5 2 12.4-.5 15.3l-.3.3-.3-.2c-2.2-1.1-1.8-3.9-1.4-6.8.2-1.8.4-3.7.1-5.3l-2-.2c-4-.4-8.5-.8-12.8-.8-2.4 0-4.6.2-6.5.4-.7 4.7-.5 10.3-.4 15.8v9.7h5.5l3.8-.2c2.8 0 4.6.4 5.8 1.3l.3.3-.2.4c-1 1.8-3.5 2-5.4 2l-3.8-.2c-2-.2-4.2-.3-5.6 0a64 64 0 0 0 1 20.6h2c2.2 0 4.4.1 6.5.3l6.1.3c3.3 0 5.6-.5 7.4-1.5.9-1 .7-2.3.6-3.7-.2-1.6-.4-3.3 1-4.3l.3-.2.3.2a5.7 5.7 0 0 1 2.4 5.1c0 2.7-1.6 5.7-3.5 6.8a13 13 0 0 1-6.9 1.5zm-14.6-2c2.2 0 4.8.2 7.2.5 2.5.2 5.1.5 7.4.5 2.9 0 5-.4 6.4-1.3 1.4-.9 3-3.4 3-6 0-1.2-.2-2.8-1.7-4-.6.6-.5 1.6-.3 3 .1 1.6.3 3.4-1 4.6-2 1.3-4.5 1.8-8 1.8l-6.2-.3c-2-.2-4.2-.4-6.3-.4l-2.4.1h-.5v-.4c-1-5-2.5-14.6-1-21.8v-.3l.3-.1a13 13 0 0 1 2.4-.2l3.8.2 3.7.2c2.2 0 3.5-.4 4.3-1.2a10 10 0 0 0-4.8-.8l-3.7.1-3.7.2c-1 0-1.8 0-2.5-.2h-.4v-.5-10.1c-.1-5.6-.3-11.4.5-16.3v-.4h.4c2-.3 4.4-.5 7-.5 4.3 0 8.9.4 12.9.8l2.8.2v.4c.5 2 .2 4.1 0 6-.4 2.5-.6 4.6.5 5.6 2-2.8 1.6-10.4.3-13.6l-6.1-.5c-3.4-.4-6.8-.7-10-.7-4.5 0-7.8.7-10 2 .4 6 .2 12.8 0 19.3-.3 12.6-.7 25.6 3 34.2l2.7-.2z"/></g><g><path fill-rule="evenodd" clip-rule="evenodd" d="M446.4 53.8c.5 5.3 1.5 15.5-.6 20-3.5-3-.6-12.3-1.6-18h-15.8c-1.2 10.3-.1 22.8-.5 33.8 7.2.6 17.1-2.6 21.6 1.6 3.7 15.3-9.6 27-23.7 19.5-.9-18-.9-39.5 0-57.5 6.7.4 14.7-.6 20.6.6zm-18.5 38.5V109c12.7 4.5 20.6-3.6 19.5-16.3-5.2-2.6-12.9.1-19.5-.5z"/><path d="M434.6 113.6c-3 0-6-.8-9-2.4l-.3-.2v-.2c-.9-18-.9-39.6 0-57.6v-.5h.5l3.2.1h4.7l4.8-.1c3.4 0 5.9.2 8 .6h.3v.4c.5 4.7 1.7 15.6-.5 20.3l-.3.6-.5-.4c-2.4-2-2-6.6-1.8-11 .2-2.4.4-4.9.1-6.8h-15c-.6 6.2-.5 13.3-.4 20.2v12.6l7.3-.3c2-.2 4-.4 6-.4 3.8 0 6.4.7 8.2 2.3v.1l.1.2c1.5 6.1.3 12.1-3.1 16.5-3 3.8-7.5 6-12.3 6zm-8.3-3.2a18 18 0 0 0 8.3 2.2c4.5 0 8.7-2 11.5-5.6 3.2-4.1 4.3-9.8 3-15.5-1.6-1.4-4-2-7.4-2-1.9 0-4 .2-6 .4l-6 .3H428l-.5-.1v-.5-13c-.1-7.1-.2-14.4.5-20.8v-.4h16.8v.4c.4 2.1.2 4.8 0 7.4-.2 3.8-.5 7.7 1 9.7 1.6-4.7.7-14.2.2-18.7-2-.4-4.2-.5-7.4-.5a194.3 194.3 0 0 0-9.5.1h-2.7c-.9 17.8-.9 38.9 0 56.6zm8.3.5c-2.2 0-4.5-.4-6.9-1.3l-.3-.1V91.7h.5c2.3.3 5.3 0 8-.2 1.8-.2 3.7-.4 5.5-.4 2.6 0 4.6.4 6.2 1.3h.3v.4c.5 5.8-.8 10.8-3.8 14.1-2.4 2.6-5.7 4-9.5 4zm-6.2-2.1c6.1 2 11.6 1.1 15-2.6 2.7-3 4-7.6 3.5-13a13 13 0 0 0-5.5-1l-5.5.3a62 62 0 0 1-7.5.3v16z"/></g><g><path fill-rule="evenodd" clip-rule="evenodd" d="M669.4 49.6h-10.6v1.6l10.6.6"/><path d="M669.4 52.3l-11.1-.6v-2.6h11.1v1h-10.1v.7l10.1.5z"/></g></g></svg>