<?xml version="1.0" encoding="UTF-8" standalone="no"?>
<!-- Created with Inkscape (http://www.inkscape.org/) -->
<svg
   xmlns:svg="http://www.w3.org/2000/svg"
   xmlns="http://www.w3.org/2000/svg"
   version="1.0"
   width="800"
   height="400"
   id="svg2">
  <defs
     id="defs4" />
  <g
     transform="translate(-86.612373,-173.82883)"
     id="layer1">
    <rect
       width="800"
       height="400"
       x="86.612373"
       y="173.82883"
       style="fill:#d40000;fill-opacity:1;stroke:none;stroke-width:2.5;stroke-miterlimit:4;stroke-dasharray:none;stroke-opacity:1"
       id="rect2170" />
    <path
       d="M 110.59375,305.8181 C 103.61457,305.8181 98.072904,303.70873 93.96875,299.48998 C 89.864579,295.27124 87.812498,289.33895 87.8125,281.6931 C 87.812498,274.31813 89.869788,268.43793 93.984375,264.05248 C 98.098946,259.66711 103.64582,257.4744 110.625,257.47435 C 112.47914,257.4744 114.1458,257.57857 115.625,257.78685 C 117.10414,257.99523 118.5208,258.2869 119.875,258.66185 C 120.93746,258.9744 122.09371,259.40148 123.34375,259.9431 C 124.59371,260.48482 125.60413,260.95356 126.375,261.34935 L 126.375,272.4431 L 125.1875,272.4431 C 124.62496,271.94314 123.91663,271.34418 123.0625,270.64623 C 122.2083,269.94835 121.23955,269.26606 120.15625,268.59935 C 119.07288,267.93272 117.88018,267.36502 116.57813,266.89623 C 115.27601,266.42752 113.91664,266.19314 112.5,266.1931 C 110.81247,266.19314 109.2656,266.45877 107.85938,266.98998 C 106.4531,267.52127 105.11456,268.44314 103.84375,269.7556 C 102.67707,270.94314 101.72394,272.5473 100.98438,274.5681 C 100.24478,276.58897 99.874986,278.97438 99.875,281.72435 C 99.874986,284.62021 100.2604,287.0525 101.03125,289.02123 C 101.80207,290.98999 102.81248,292.57853 104.0625,293.78685 C 105.27081,294.95353 106.61977,295.79728 108.10938,296.3181 C 109.59893,296.83895 111.08331,297.09936 112.5625,297.09935 C 114.10414,297.09936 115.57289,296.84415 116.96875,296.33373 C 118.36455,295.82332 119.54163,295.25561 120.5,294.6306 C 121.54163,293.98478 122.4583,293.32853 123.25,292.66185 C 124.04163,291.9952 124.72913,291.40145 125.3125,290.8806 L 126.375,290.8806 L 126.375,301.8181 C 125.52079,302.21394 124.53121,302.66706 123.40625,303.17748 C 122.28121,303.6879 121.12496,304.12019 119.9375,304.47435 C 118.47913,304.91185 117.11455,305.24519 115.84375,305.47435 C 114.57289,305.70352 112.82289,305.8181 110.59375,305.8181 L 110.59375,305.8181 z M 153.34375,305.8181 C 146.36457,305.8181 140.8229,303.70873 136.71875,299.48998 C 132.61458,295.27124 130.5625,289.33895 130.5625,281.6931 C 130.5625,274.31813 132.61979,268.43793 136.73438,264.05248 C 140.84895,259.66711 146.39582,257.4744 153.375,257.47435 C 155.22914,257.4744 156.8958,257.57857 158.375,257.78685 C 159.85414,257.99523 161.2708,258.2869 162.625,258.66185 C 163.68746,258.9744 164.84371,259.40148 166.09375,259.9431 C 167.34371,260.48482 168.35413,260.95356 169.125,261.34935 L 169.125,272.4431 L 167.9375,272.4431 C 167.37496,271.94314 166.66663,271.34418 165.8125,270.64623 C 164.9583,269.94835 163.98955,269.26606 162.90625,268.59935 C 161.82288,267.93272 160.63018,267.36502 159.32813,266.89623 C 158.02601,266.42752 156.66664,266.19314 155.25,266.1931 C 153.56247,266.19314 152.0156,266.45877 150.60938,266.98998 C 149.2031,267.52127 147.86456,268.44314 146.59375,269.7556 C 145.42707,270.94314 144.47394,272.5473 143.73438,274.5681 C 142.99478,276.58897 142.62499,278.97438 142.625,281.72435 C 142.62499,284.62021 143.0104,287.0525 143.78125,289.02123 C 144.55207,290.98999 145.56248,292.57853 146.8125,293.78685 C 148.02081,294.95353 149.36977,295.79728 150.85938,296.3181 C 152.34893,296.83895 153.83331,297.09936 155.3125,297.09935 C 156.85414,297.09936 158.32289,296.84415 159.71875,296.33373 C 161.11455,295.82332 162.29163,295.25561 163.25,294.6306 C 164.29163,293.98478 165.2083,293.32853 166,292.66185 C 166.79163,291.9952 167.47913,291.40145 168.0625,290.8806 L 169.125,290.8806 L 169.125,301.8181 C 168.27079,302.21394 167.28121,302.66706 166.15625,303.17748 C 165.03121,303.6879 163.87496,304.12019 162.6875,304.47435 C 161.22913,304.91185 159.86455,305.24519 158.59375,305.47435 C 157.32289,305.70352 155.57289,305.8181 153.34375,305.8181 L 153.34375,305.8181 z M 211.84375,273.0681 C 211.84371,275.2348 211.49996,277.2973 210.8125,279.2556 C 210.12496,281.21396 209.13538,282.84938 207.84375,284.16185 C 207.05205,284.97437 206.18226,285.72437 205.23438,286.41185 C 204.28643,287.09937 203.23955,287.6827 202.09375,288.16185 C 200.94789,288.64104 199.7031,289.01604 198.35938,289.28685 C 197.0156,289.5577 195.51039,289.69312 193.84375,289.6931 L 187.71875,289.6931 L 187.71875,304.91185 L 176.03125,304.91185 L 176.03125,258.3806 L 194.09375,258.3806 C 196.78122,258.38065 199.09893,258.62544 201.04688,259.11498 C 202.99476,259.60461 204.76038,260.38065 206.34375,261.4431 C 208.09371,262.60981 209.44788,264.1671 210.40625,266.11498 C 211.36454,268.06293 211.84371,270.38064 211.84375,273.0681 L 211.84375,273.0681 z M 199.84375,273.34935 C 199.84372,272.03689 199.53122,270.90668 198.90625,269.95873 C 198.28122,269.01085 197.53122,268.35981 196.65625,268.0056 C 195.55206,267.52648 194.49477,267.25043 193.48438,267.17748 C 192.47394,267.1046 191.10415,267.06814 189.375,267.0681 L 187.71875,267.0681 L 187.71875,281.0056 L 188.53125,281.0056 C 189.6354,281.00563 190.67706,280.99521 191.65625,280.97435 C 192.6354,280.95354 193.48956,280.88063 194.21875,280.7556 C 194.84373,280.65146 195.50518,280.44834 196.20313,280.14623 C 196.90102,279.84417 197.43747,279.50563 197.8125,279.1306 C 198.60414,278.3598 199.1406,277.55771 199.42188,276.72435 C 199.7031,275.89105 199.84372,274.76605 199.84375,273.34935 L 199.84375,273.34935 z M 255.5,290.03685 C 255.49996,292.3077 255.06767,294.39624 254.20313,296.30248 C 253.3385,298.20874 252.15621,299.76603 250.65625,300.97435 C 248.86455,302.41186 246.93226,303.42748 244.85938,304.02123 C 242.78643,304.61498 240.26039,304.91185 237.28125,304.91185 L 218.15625,304.91185 L 218.15625,258.3806 L 251.96875,258.3806 L 251.96875,267.2556 L 229.78125,267.2556 L 229.78125,275.84935 L 237.46875,275.84935 C 240.26039,275.84938 242.76039,276.05251 244.96875,276.45873 C 247.17705,276.86501 249.15621,277.75563 250.90625,279.1306 C 252.51038,280.38063 253.67704,281.94834 254.40625,283.83373 C 255.13537,285.71917 255.49996,287.78687 255.5,290.03685 L 255.5,290.03685 z M 243.4375,290.3806 C 243.43747,289.60979 243.35414,288.88062 243.1875,288.1931 C 243.0208,287.50562 242.65622,286.87021 242.09375,286.28685 C 241.53122,285.72437 240.76039,285.27646 239.78125,284.9431 C 238.80206,284.60979 237.44789,284.44312 235.71875,284.4431 L 229.78125,284.4431 L 229.78125,296.28685 L 235.71875,296.28685 C 238.11456,296.28686 239.99997,295.77645 241.375,294.7556 C 242.74997,293.73478 243.43747,292.27645 243.4375,290.3806 L 243.4375,290.3806 z "
       transform="matrix(1.2411118,0,0,1.2411118,37.627243,-105.72563)"
       style="font-size:64px;font-style:normal;font-variant:normal;font-weight:bold;font-stretch:normal;text-align:start;line-height:125%;writing-mode:lr-tb;text-anchor:start;fill:#ffcc00;font-family:Tahoma"
       id="flowRoot2160" />
  </g>
</svg>
