<svg xmlns="http://www.w3.org/2000/svg" xmlns:xlink="http://www.w3.org/1999/xlink" width="900" height="825"><g transform="translate(120.952 608.887)"><g fill-rule="evenodd"><path d="M-120.952-383.887h900v600h-900z" fill="#fe0000"/><path d="M-120.952-383.887h450v300h-450z" fill="#000095"/></g><g transform="matrix(3.75 0 0 3.75 104.04762 -233.8869)"><path d="M8 0L0 30-8 0l8-30M0 8l30-8L0-8-30 0" id="A" fill="#fff"/><use transform="rotate(30)" xlink:href="#A"/><use transform="rotate(60)" xlink:href="#A"/><circle cy="0" cx="0" r="17" fill="#000095"/><circle cy="0" cx="0" r="15" fill="#fff"/></g><path d="M779.048-383.887l-900-225v225z" fill="#ffca2b"/><path d="M-77.23-517.944c1.1 0 2.545.733 4.3 2.194 1.462 1.054 2.194 1.93 2.194 2.634 0 .878-.76 1.55-2.283 2.018-2.4.47-6.088 1.58-11.06 3.337l2.018 1.054c1.64 1.054 2.458 2.107 2.458 3.16 0 .4-.118.877-.35 1.404-.47 1.288-.85 3.6-1.14 6.935a7.88 7.88 0 0 0-.087 1.14l2.194-.352c3.217-.584 5.06-.877 5.53-.877.994 0 2.107.294 3.337.877.994.586 1.492 1.2 1.492 1.844 0 .47-.585.733-1.755.8-3.395.294-7.082.76-11.062 1.404l-.527 6.848a30.64 30.64 0 0 0 1.23.176c1.756.527 3.48 1.112 5.18 1.756 2.224.995 3.657 1.903 4.3 2.72.584.76.88 1.58.88 2.458 0 .703-.176 1.435-.527 2.194-.35.586-.848.88-1.492.88-.294 0-.732-.176-1.317-.527-.937-.584-2.194-1.756-3.775-3.5-1.93-2.283-3.395-3.833-4.4-4.653-.058 0-.118-.028-.176-.087l-.087 4.828-.176 23.176c0 1.52-.4 3.1-1.23 4.74-.585 1.406-1.23 2.107-1.93 2.107-.35 0-.937-.76-1.755-2.283-1.113-2.458-1.668-4.33-1.668-5.618 0-.643.204-1.668.614-3.072.527-1.52.966-4.565 1.317-9.13.527-4.214.88-9.012 1.054-14.397-3.57 5.2-6.848 9.16-9.832 11.852-2.693 2.517-5.882 4.683-9.57 6.496-1.406.703-2.664 1.054-3.775 1.054-.47 0-.703-.117-.703-.35 4.74-3.277 9.012-7.17 12.817-11.676 3.5-3.862 6.73-8.837 9.656-14.924a285.42 285.42 0 0 0-10.8 2.283c-2.283.703-3.775 1.054-4.477 1.054-.937 0-2.4-.4-4.4-1.228-1.406-.82-2.107-1.55-2.107-2.196 0-.35.584-.584 1.755-.7 4.74-.47 11.9-1.52 21.5-3.16-.058-4.155-.263-7.08-.614-8.78-.234-1.637-.614-2.897-1.14-3.775a4.63 4.63 0 0 1-.263-.614c-.06 0-.087.03-.087.087-4.4 1.462-7.55 2.194-9.482 2.194-1.406 0-2.107-.233-2.107-.703 0-.233.614-.556 1.844-.965 2.926-1.054 6.497-2.78 10.7-5.18 3.57-2.224 6.378-4.33 8.428-6.32.642-.4 1.08-.615 1.314-.615zm12.027 24.406c1.112 0 2.107.147 2.985.44.703.234 1.257.47 1.668.703 2.283-.233 4.798-.614 7.55-1.14 3.453-.76 6.467-1.58 9.042-2.458 1.23-.4 2.02-.614 2.37-.614.88 0 2.224.498 4.038 1.493 2.107 1.462 3.16 2.545 3.16 3.248 0 .4-.294 1.054-.877 1.93-.88.995-1.58 2.4-2.107 4.214-1.054 3.16-2.225 7.756-3.5 13.783-.058.06-.087.118-.087.176a4.09 4.09 0 0 0 .439.263c1.17.7 1.756 1.347 1.756 1.93 0 .35-.234.557-.703.614-2.05 0-3.922.118-5.618.35l-7.813.88c-1.462.175-2.605.263-3.424.263a4.84 4.84 0 0 1-.965-.087v.44c0 .877-.147 1.58-.44 2.107-.294.645-.614.965-.965.965-.47 0-.908-.35-1.317-1.054-.645-.994-.995-2.018-1.054-3.072l-.965-8.78c-.47-4.505-.9-7.638-1.317-9.393-.294-1.93-1.054-3.716-2.283-5.355-.4-.352-.614-.643-.614-.88-.003-.646.35-.97 1.05-.97zm7.725 22.825c3.453-.293 6.673-.73 9.656-1.317a19.51 19.51 0 0 1 1.406-.263c0-.057.028-.116.087-.176.76-2.574 1.433-5.97 2.018-10.183.703-3.804 1.054-6.64 1.054-8.516 0-.936-1.024-1.406-3.072-1.406-.82 0-3.104.44-6.848 1.317l-6.145 1.492a23.01 23.01 0 0 0 .263 3.424c.82 6.733 1.346 11.94 1.58 15.628zm83.176-39c1.112 0 2.516.4 4.214 1.23 1.054.47 1.58 1.083 1.58 1.844 0 .47-.645.85-1.93 1.14-1.64.47-5.24 1.054-10.8 1.756l-5.442.614a20.44 20.44 0 0 1 1.931.703c1.93.76 2.897 1.64 2.897 2.634 0 .294-.205.995-.614 2.107-.47 2.517-.732 5.122-.8 7.813l-.175 14.485a128.07 128.07 0 0 1 4.916-.263c8.193-.703 14.454-1.492 18.786-2.37 1.813-.35 2.897-.527 3.25-.527.4 0 1.988.498 4.74 1.492 2.34 1.23 3.5 2.343 3.5 3.337 0 .937-1.6 1.404-4.828 1.404H32.8c-4.332 0-9.776.205-16.328.614l-.087 15.802c-.118 6.263-.557 11.763-1.317 16.504-.76 2.926-1.463 4.4-2.107 4.4-.585 0-1.024-1.024-1.317-3.072-.234-3.687-.35-8.692-.35-15v-18.26a5.05 5.05 0 0 0-.965.087c-6.44.352-13.52 1.347-21.245 2.985-2 .47-3.278.703-3.862.703-1.054 0-2.605-.4-4.654-1.23-2.167-.936-3.248-1.668-3.248-2.194 0-.76.703-1.2 2.107-1.317 8.134-.117 14.134-.527 17.997-1.23 4.4-.527 9.012-.994 13.87-1.404v-19.665c0-2.574-.234-4.7-.703-6.408-.234-.82-.35-1.317-.35-1.492v-.263c-3.687.4-6.32.614-7.9.614-2.458 0-4.156-.263-5.092-.8-.937-.643-1.404-1.2-1.404-1.668 0-.292 1.054-.527 3.16-.703 4.68-.4 9.802-1.083 15.363-2.018 4.038-.643 7.256-1.317 9.656-2.02.815-.232 1.37-.35 1.664-.35zM-7.574-494c.82 0 1.756.294 2.8.877 2.458 1.113 4.27 2.37 5.442 3.775 1.1 1.522 1.668 3.63 1.668 6.32 0 2.107-.8 3.16-2.37 3.16-.645 0-1.317-.467-2.018-1.404-1.347-1.697-3.248-5.268-5.707-10.7-.35-.584-.527-1.023-.527-1.317.116-.47.352-.703.703-.703zm40.12-5.092c.643 0 1.844.585 3.6 1.756 1.93 1.462 2.897 2.488 2.897 3.072 0 .82-.352 1.522-1.054 2.107-2.926 2.8-7.462 6.468-13.607 10.975-.645.4-1.23.614-1.756.614-.234 0-.35-.116-.35-.352 0-.117.146-.32.44-.614 2.047-2.75 3.744-5.47 5.092-8.163 1.873-3.043 3.13-5.735 3.775-8.077.232-.88.555-1.317.965-1.317zm78.096 3.352c.352 0 1.433.322 3.248.965 2.165 1.23 3.25 2.165 3.25 2.8-.06.877-1.084 1.347-3.073 1.404-5.092.176-11.004.674-17.733 1.493-3.278.4-7.462 1.17-12.554 2.283.117.175.176.4.176.7-.352 1.113-.557 1.874-.614 2.283-.527 4.74-1.14 9.13-1.844 13.17h.087c6.262-.584 11.206-1.26 14.837-2.02 4.33-.936 8-1.93 10.973-2.985 1.17-.352 1.93-.527 2.283-.527.82 0 2.574.556 5.268 1.668 1.286.76 1.93 1.58 1.93 2.458 0 .47-.35 1.113-1.054 1.93-1.406 1.756-2.43 3.424-3.073 5.004-2.692 6.145-5.24 11.06-7.638 14.75 3.1 2.752 5.677 4.828 7.725 6.232 4.74 3.044 12.26 6.645 22.562 10.8 1.346.4 2.018.88 2.018 1.406 0 .4-.674.7-2.018.877-7.375.994-12.524 1.492-15.45 1.492-1.816 0-3.658-.614-5.53-1.844-1.698-1.286-5.912-6.087-12.64-14.397l-1.317 1.317c-3.337 3.395-7.9 6.263-13.694 8.603-4.916 2.165-8.838 3.248-11.763 3.248-1.815 0-2.72-.233-2.72-.703 0-.176.35-.38 1.054-.614 5.5-1.697 10.416-3.92 14.748-6.672 4.623-3.1 8.107-6.203 10.448-9.306a67.37 67.37 0 0 0-1.844-2.283c-2.926-3.862-5.707-7.142-8.34-9.832-2.693-2.8-5.122-4.7-7.286-5.706-.058-.058-.118-.087-.176-.087-.7 3.57-1.492 6.8-2.37 9.656-1.816 5.853-4.127 11.033-6.935 15.54-3.278 4.448-6.644 7.667-10.096 9.656-.877.527-1.58.76-2.107.7l-.176-.7c3.16-3.337 5.735-6.788 7.725-10.36 3.746-6.262 6.378-12.7 7.9-19.314 1.462-6.554 2.194-13.02 2.194-19.402 0-1.17-.234-2.398-.703-3.687a16.75 16.75 0 0 0-.439-.703 6.24 6.24 0 0 0-.878-.439c-1.58-.643-2.37-1.317-2.37-2.02 0-.233.556-.47 1.668-.7 12.583-1.756 22.942-3.453 31.078-5.092 2.864-.7 4.62-1.052 5.265-1.052zm-23.527 28.62c1.406 1.054 2.926 2.37 4.565 3.95 3.5 3.57 6.672 6.672 9.482 9.306 1.462-2.574 2.75-5.47 3.862-8.692 1.23-3.628 1.844-6.115 1.844-7.462 0-.47-.44-.703-1.317-.703-.645 0-1.698.147-3.16.44l-9.92 2.107c-2.283.527-4.07.88-5.355 1.054zm116.145-4.34c1.17 0 2.634.47 4.4 1.406 1.17.527 1.756 1.2 1.756 2.018 0 .527-.937.966-2.8 1.317-1.698.4-4.8.85-9.306 1.317l-2.194 15.187c6.848-.527 12.172-1.17 15.978-1.93 1.755-.293 2.8-.44 3.16-.44.4 0 2 .498 4.74 1.492 2.34 1.23 3.5 2.34 3.5 3.337 0 .937-1.6 1.406-4.828 1.406h-13.783c-5.442 0-12.73.294-21.86.877-6.263.35-13.14 1.23-20.63 2.634-1.874.352-3.13.527-3.775.527-.995 0-2.517-.4-4.565-1.228-2.165-.88-3.248-1.6-3.248-2.196 0-.76.672-1.2 2.018-1.317 7.958-.116 13.812-.47 17.558-1.054a45.75 45.75 0 0 1 2.81-.263l-1.317-14.573-3.95.087c-2.752 0-4.624-.263-5.618-.8-1.054-.76-1.58-1.404-1.58-1.93 0-.4 1.52-.703 4.565-.88l6.145-.44-1.14-12.38c-.058-.936-.4-1.93-1.054-2.985-.4-.47-.614-.848-.614-1.14 0-1.17.672-1.756 2.02-1.756 1.228 0 2.75.35 4.565 1.054 1.286.645 1.93 1.317 1.93 2.018 0 .586-.087 1.2-.263 1.844-.234 1.17-.35 2.167-.35 2.985l.527 9.832 10.7-1.317 5.53-.7c.703-8.252 1.054-13.724 1.054-16.417 0-1.52-.205-2.84-.614-3.95-.294-.703-.44-1.083-.44-1.14 0-1.17.672-1.756 2.02-1.756 1.17 0 2.7.557 4.565 1.668 1.756 1.23 2.634 2.283 2.634 3.16 0 .4-.176 1.024-.527 1.844-.82 1.698-1.464 4.448-1.93 8.252l-1.054 7.373a88.59 88.59 0 0 0 2.897-.527c1.108-.345 1.9-.52 2.368-.52zm-29.848 30.55c.527 0 1.902.38 4.125 1.14 2.047.877 3.073 1.874 3.073 2.985 0 .645-.35 1.14-1.054 1.493-1.58.937-3.337 2.312-5.268 4.125-3.278 3.104-6.76 5.707-10.447 7.813-2.4 1.64-4.477 2.722-6.232 3.25-.995.527-1.785.8-2.37.8-.7 0-1.054-.118-1.054-.35 3.277-2.225 6.3-4.712 9.042-7.462 3.628-3.452 6.262-6.585 7.9-9.393.584-.703.877-1.93.877-3.687-.001-.47.467-.703 1.404-.703zm3.6-8l13.43-.965 1.406-14.924a6.29 6.29 0 0 1-1.054.087l-14.573 1.317.8 14.485zm13.87 9.393c.643 0 1.726.234 3.248.703 2.925 1.17 5.822 2.576 8.7 4.214 3.687 2.458 6.087 4.683 7.2 6.672.994 1.874 1.493 3.833 1.493 5.882 0 .82-.234 1.697-.703 2.634-.4.76-.995 1.14-1.756 1.14-.4 0-1.17-.38-2.283-1.14-1.64-1.228-3.805-3.718-6.496-7.462-3.337-4.74-5.882-7.958-7.638-9.656-1.406-1.17-2.107-2.047-2.107-2.634a.31.31 0 0 1 .353-.352zm103.165-37.627c1.112 0 2.663.674 4.654 2.018.995.585 1.493 1.17 1.493 1.756 0 .294-.262.965-.8 2.018-.586 1.23-1.024 2.458-1.317 3.687l-.352 1.14 2.107-.263 6.234-.8c.292 0 1.17.263 2.632.8 1.873.995 2.8 1.756 2.8 2.283-.06.645-.85.995-2.37 1.054-3.747.06-7.872.234-12.38.527l-1.23 4.917a10.47 10.47 0 0 1-.527 1.317c1.173.76 1.756 1.347 1.756 1.756-.06.645-.85.995-2.37 1.054-3.22.06-6.907.263-11.06.614l-.087 6.232c1.697-.233 3.364-.527 5.003-.878l2.722-.44c.527 0 1.6.147 3.248.44 1.46.47 2.194.878 2.194 1.228 0 .586-.9 1.054-2.72 1.406l-5.268.703c-.877.175-2.605.44-5.18.8l-.086 3.687v2.37l13.782-2.107c1.055-.233 1.695-.35 1.932-.35.7 0 1.902.35 3.6 1.054 1.697.76 2.545 1.347 2.545 1.756 0 .645-.525 1.084-1.58 1.317-.643.234-1.96.352-3.95.352-4.8 0-9.892.323-15.275.965l-1.23.176c-.176 3.63-.498 6.906-.965 9.832-.47 2.167-.9 3.454-1.317 3.862.643.234 1.257.4 1.846.527 6.145 1.464 12.17 2.4 18.082 2.8l12.82.44c1.697 0 2.546.205 2.546.614s-.8.877-2.37 1.404c-3.747 1.52-7.872 3.043-12.38 4.565-3.453 1.286-6.1 1.93-7.903 1.93-2.05 0-5.093-1.054-9.128-3.16-11.824-6.73-21.86-12.143-30.1-16.24l-.965 1.406c-2 2.868-4.684 5.413-8.077 7.638-3.57 2.576-6.116 3.862-7.638 3.862-.4 0-.614-.116-.614-.35 0-.116.263-.292.8-.527 2.34-1.697 5.062-4.36 8.165-8a42.23 42.23 0 0 0 4.214-5.97c-2.283-.994-4.565-1.55-6.848-1.668h-2.896c-.645 0-1.2-.175-1.668-.527-.527-.4-.8-.8-.8-1.14 0-.4.263-.672.8-.8.467 0 1.14-.087 2.018-.263 1.1-.233 2.458-.35 4.038-.35 1.813 0 4.096.557 6.848 1.668.467-.936.877-1.902 1.228-2.897 1.756-4.155 2.634-7.286 2.634-9.393 0-.47-.234-.703-.703-.703-1.112 0-2.634.263-4.565.8-2 .82-3.22 1.23-3.687 1.23s-.88-.322-1.23-.965c-.527-.936-.8-1.756-.8-2.458 0-.47.322-1.14.966-2.02 1.46-1.404 2.78-3.1 3.95-5.092l3.5-7.023c.527-1.17.8-2.048.8-2.634 0-.47-.234-.703-.703-.703-.35 0-1.376.205-3.072.614-4.332.995-6.966 1.492-7.9 1.492-.88 0-1.756-.176-2.634-.527-.527-.293-.8-.584-.8-.877s.614-.496 1.844-.614c4.798-1.054 8.955-2.34 12.466-3.862 1.346-.643 2.283-.966 2.8-.966.936 0 2.312.557 4.127 1.668 1.17.937 1.756 1.6 1.756 2.02 0 .76-.4 1.58-1.23 2.458-2.167 2.107-3.747 3.95-4.74 5.53-3.805 5.853-5.706 9.042-5.706 9.57 0 .234.233.352.7.352.76 0 2.574-.4 5.444-1.23 1.1-.35 1.93-.527 2.458-.527.584 0 1.433.47 2.546 1.404.82.586 1.228 1.14 1.228 1.668 0 .4-.175.9-.527 1.493-.7.877-1.288 1.93-1.755 3.16-1.464 4.508-2.868 8.165-4.214 10.975 10.125 4.74 18.085 8.048 23.88 9.92-.234-.527-.437-1.26-.614-2.194-.176-2.75-.294-6.32-.352-10.7-4.274.585-7.316 1.084-9.13 1.492-.82.176-1.433.263-1.844.263-.527 0-1.464-.352-2.8-1.054-1.113-.527-1.668-.966-1.668-1.317s.47-.584 1.404-.703l14.047-1.756v-6.058h-.44c-2.985.4-5.122.614-6.4.614-1.17 0-2.078-.146-2.722-.44-1.17-.4-1.756-.82-1.756-1.23 0-.584.936-.936 2.8-1.054a197.85 197.85 0 0 0 8.516-1.054v-6.4a156.06 156.06 0 0 0-5.355.703c-.82.176-1.317.263-1.493.263-1.054 0-2.137-.293-3.248-.877-1.288-.527-1.93-1.054-1.93-1.58 0-.116.467-.233 1.404-.352l10.623-1.317v-5.355l-8.516 1.14c-1.522.294-2.458.44-2.8.44-1.112 0-2.254-.293-3.424-.88-1.347-.527-2.018-1.054-2.018-1.58 0-.176.44-.38 1.317-.614l15.45-1.58v-6.935c-4.332.645-7.17.966-8.516.966-1.113 0-2-.176-2.634-.527-.585-.233-.878-.527-.878-.877 0-.643.878-1.023 2.634-1.14 2.164-.116 5.295-.496 9.393-1.14v-2.194c0-2.283-.205-4.214-.614-5.794-.294-.7-.44-1.17-.44-1.404 0-.527.47-.848 1.406-.965.584 0 1.727.322 3.424.965 1.58.703 2.37 1.522 2.37 2.458 0 .294-.176.937-.525 1.93-.234 1.347-.412 2.72-.525 4.127l6.32-1.23c2.04-.705 3.386-1.056 4.03-1.056zm-10.62 15.362l-.086 5.18 4.916-.8 2.722-.527v-.44c0-.117.058-.496.176-1.14.234-.82.47-1.844.7-3.072l-3.948.35-4.48.438zm.087-10.27v.35l-.087 6.848 8.956-.965c0-.176.028-.352.086-.527.352-1.93.525-3.6.525-5.004 0-1.17-.674-1.755-2.018-1.755-1.3 0-3.5.322-6.672.965-.294-.001-.557.03-.8.087zm51.706 5.1c1.46 0 2.663.263 3.6.8a1.33 1.33 0 0 0 .351.263c11.823-.7 23.234-1.668 34.238-2.897 2.458-.233 4.74-.643 6.848-1.228 1.695-.47 2.78-.703 3.248-.703 1.46 0 3.628.937 6.496 2.8 1.637 1.112 2.456 2.018 2.456 2.72 0 .47-.262 1.112-.8 1.93-.82 1.93-1.23 5.736-1.23 11.413 0 12.3.233 21.452.7 27.478.176 4.565.262 9.336.262 14.3 0 2.283-.5 4.33-1.493 6.145-.995 1.637-1.96 2.458-2.896 2.458-.527 0-1.024-.44-1.493-1.317-.877-2.167-2.018-4.36-3.424-6.585-4.624 0-8.84.147-12.644.44l-20.192.965c-3.746.234-6.614.35-8.603.35-.7 0-1.317-.057-1.844-.175 0 .234-.03.4-.087.527-.294 2.515-.8 3.775-1.493 3.775-.76 0-1.52-.703-2.283-2.107-.995-1.64-1.493-3.337-1.493-5.092 0-1.112.144-2.165.44-3.16.525-2.8.994-6.935 1.406-12.38.4-5.208.614-13.987.614-26.337 0-5.384-.524-9.246-1.578-11.587-.353-.76-.527-1.346-.527-1.756.005-.7.47-1.052 1.408-1.052zm3.862 55.482c10.7-.293 20.63-.76 29.76-1.404 5.442-.4 8.983-.614 10.62-.614.88 0 2.253.44 4.127 1.317a5.05 5.05 0 0 1 1.054.79c.293-.176.496-.8.614-1.844.234-2.458.352-9.335.352-20.63 0-8.78-.352-17.264-1.054-25.458-.236-3.102-.76-5.092-1.58-5.97-.584-.4-1.55-.614-2.896-.614-5.385 0-11.033.294-16.944.88-7.843.7-13.58 1.376-17.207 2.018-1.93.35-3.57.527-4.916.527-.237 0-.47-.028-.703-.087l-1.228 51.1zm23.178-16.768c.233 0 .35.234.35.703 0 .175-.175.35-.524.527-1.64.995-4.16 2.34-7.55 4.038-1.815.937-3.95 2.137-6.4 3.6-.412.294-.733.44-.965.44-.878 0-2.05-.584-3.5-1.755-1.054-.994-1.578-1.785-1.578-2.37 0-.057.143-.117.438-.176a13.45 13.45 0 0 0 2.633-.44c3.337-.76 8.283-2.077 14.837-3.95 1.282-.408 2.044-.614 2.28-.614zm-18.524-14.396c.88 0 1.637.147 2.283.44a8.09 8.09 0 0 1 .615.176c1.406-.176 2.632-.38 3.686-.614 1.35-.352 2.664-.88 3.95-1.58.525-.293.907-.44 1.14-.44.758 0 2.047.44 3.862 1.317.88.527 1.317 1.112 1.317 1.756 0 .47-.205.937-.615 1.404-.525.703-.965 1.668-1.316 2.897l-1.055 3.5c.818.527 1.23 1.024 1.23 1.492 0 .294-.118.47-.353.527-1.054 0-2.05.118-2.985.352l-4.127.877c-.76.176-1.347.263-1.754.263h-.8c-.06.294-.146.556-.262.8-.177.4-.412.614-.7.614-.353 0-.674-.233-.966-.703-.47-.7-.7-1.404-.7-2.107l-.7-3.687c-.295-1.873-.585-3.2-.878-3.95-.176-.82-.645-1.58-1.406-2.283-.294-.176-.44-.293-.44-.35-.001-.467.32-.7.964-.7zm24.406-12.292c.47 0 1.46.147 2.986.44 1.406.47 2.107.877 2.107 1.23 0 .645-.8 1.112-2.37 1.404l-5.266.88-.086.087.7 2.897c1.23 4.098 2.634 7.725 4.215 10.886a6.06 6.06 0 0 0 .263-.79c1.054-2.7 1.58-5.18 1.58-7.462l-.352-1.668c0-.703.32-1.054.965-1.054.997 0 2.226.44 3.687 1.317 1.23.703 1.845 1.522 1.845 2.458 0 .35-.118.732-.352 1.14-1.054 1.756-1.755 3.015-2.107 3.775-.997 2.517-2.018 4.828-3.073 6.935 1.173 2 2.634 3.922 4.4 5.793.76.82 1.375 1.23 1.846 1.23.233 0 .524-.82.876-2.458l.7-3.6c.118-.527.263-.8.44-.8.292 0 .47.352.525 1.054.352 4.917 1.054 8.428 2.108 10.535.524.937.8 1.64.8 2.107 0 .877-.44 1.317-1.317 1.317-.937 0-2.312-.527-4.125-1.58a22.51 22.51 0 0 1-5.093-5.179 76.54 76.54 0 0 1-3.248-4.828c-.4.645-.85 1.288-1.317 1.93-2.752 4.038-5.912 7.023-9.48 8.955-1.697.937-2.868 1.404-3.5 1.404-.237 0-.353-.116-.353-.35 3.628-3.337 6.672-6.788 9.13-10.36 1.23-1.58 2.34-3.424 3.337-5.53a33.69 33.69 0 0 1-1.316-2.545c-1.698-3.746-3.484-8.72-5.355-14.924l-6.586 1.054c-2.985.527-5.122.8-6.408.8-1.054 0-1.903-.116-2.546-.35-1.054-.352-1.58-.703-1.58-1.054 0-.527.8-.848 2.37-.966a169.48 169.48 0 0 0 13.87-2.458l-1.317-4.828c-.353-1.52-.85-2.634-1.493-3.337-.47-.47-.7-.936-.7-1.404s.44-.703 1.317-.703c1.406 0 2.867.294 4.387.877.76.234 1.14.966 1.14 2.196 0 2.05.176 4.156.525 6.32l.525-.175 2.726-.618zM348.83-432.9c1.46-.293 2.8-.7 4.038-1.228l1.317-.527c.177-1.17.294-2.224.353-3.16.116-1.054.175-1.96.175-2.72 0-.47-.322-.703-.965-.703-.584 0-1.375.176-2.37.527-1.404.4-2.455.674-3.16.8.058.4.087.8.087 1.14.3 2.458.466 4.42.525 5.882zm22.736-28.882c.7 0 1.493.118 2.37.35 2.165.527 3.744 1.113 4.74 1.756.936.703 1.406 1.698 1.406 2.985 0 1.815-.674 2.72-2.018 2.72-.585 0-1.173-.263-1.755-.8-1.23-.936-2.896-2.925-5.003-5.97-.294-.35-.44-.584-.44-.703.057-.234.3-.35.7-.35z" stroke="#000" stroke-width="1.323"/></g></svg>