<?xml version="1.0" encoding="UTF-8" standalone="no"?>
<!-- Created with Inkscape (http://www.inkscape.org/) -->
<svg
   xmlns:dc="http://purl.org/dc/elements/1.1/"
   xmlns:cc="http://creativecommons.org/ns#"
   xmlns:rdf="http://www.w3.org/1999/02/22-rdf-syntax-ns#"
   xmlns:svg="http://www.w3.org/2000/svg"
   xmlns="http://www.w3.org/2000/svg"
   xmlns:xlink="http://www.w3.org/1999/xlink"
   xmlns:sodipodi="http://sodipodi.sourceforge.net/DTD/sodipodi-0.dtd"
   xmlns:inkscape="http://www.inkscape.org/namespaces/inkscape"
   version="1.0"
   width="944.00568"
   height="600"
   id="svg2"
   sodipodi:version="0.32"
   inkscape:version="0.46"
   sodipodi:docname="Słupsk-szczecin.svg"
   inkscape:output_extension="org.inkscape.output.svg.inkscape">
  <metadata
     id="metadata31">
    <rdf:RDF>
      <cc:Work
         rdf:about="">
        <dc:format>image/svg+xml</dc:format>
        <dc:type
           rdf:resource="http://purl.org/dc/dcmitype/StillImage" />
      </cc:Work>
    </rdf:RDF>
  </metadata>
  <sodipodi:namedview
     inkscape:window-height="808"
     inkscape:window-width="1152"
     inkscape:pageshadow="2"
     inkscape:pageopacity="0.0"
     guidetolerance="10.0"
     gridtolerance="10.0"
     objecttolerance="10.0"
     borderopacity="1.0"
     bordercolor="#666666"
     pagecolor="#ffffff"
     id="base"
     showgrid="false"
     inkscape:zoom="0.616"
     inkscape:cx="769.96397"
     inkscape:cy="375"
     inkscape:window-x="-4"
     inkscape:window-y="-4"
     inkscape:current-layer="g3016" />
  <desc
     id="desc4">Flag of Canton of Valais (Wallis)</desc>
  <defs
     id="defs6">
    <inkscape:perspective
       sodipodi:type="inkscape:persp3d"
       inkscape:vp_x="0 : 375 : 1"
       inkscape:vp_y="0 : 1000 : 0"
       inkscape:vp_z="650 : 375 : 1"
       inkscape:persp3d-origin="325 : 250 : 1"
       id="perspective33" />
    <linearGradient
       id="linearGradient2893">
      <stop
         id="stop2895"
         style="stop-color:#ffffff;stop-opacity:0.3137255"
         offset="0" />
      <stop
         id="stop2897"
         style="stop-color:#ffffff;stop-opacity:0.25098041"
         offset="0.19" />
      <stop
         id="stop2901"
         style="stop-color:#6b6b6b;stop-opacity:0.1254902"
         offset="0.60000002" />
      <stop
         id="stop2899"
         style="stop-color:#000000;stop-opacity:0.1254902"
         offset="1" />
    </linearGradient>
    <radialGradient
       cx="203.19754"
       cy="218.01039"
       r="300"
       fx="203.19754"
       fy="218.01039"
       id="radialGradient2883"
       xlink:href="#linearGradient2893"
       gradientUnits="userSpaceOnUse"
       gradientTransform="matrix(1.360018,0,0,1.355087,-79.5275,-87.64524)" />
    <linearGradient
       id="linearGradient2955">
      <stop
         id="stop2965"
         style="stop-color:#ffffff;stop-opacity:0"
         offset="0" />
      <stop
         id="stop2959"
         style="stop-color:#000000;stop-opacity:0.64583331"
         offset="1" />
    </linearGradient>
    <radialGradient
       cx="225.52438"
       cy="218.90099"
       r="300"
       fx="225.52438"
       fy="218.90099"
       id="radialGradient2961"
       xlink:href="#linearGradient2955"
       gradientUnits="userSpaceOnUse"
       gradientTransform="matrix(-4.167939e-4,2.182867,-1.884232,-3.599562e-4,615.5972,-289.1214)" />
    <polygon
       points="0,-1 0.58778525,0.80901699 -0.95105652,-0.30901699 0.95105652,-0.30901699 -0.58778525,0.80901699 0,-1 "
       transform="scale(53,53)"
       id="star" />
    <clipPath
       id="clip">
      <path
         d="M 0,-200 L 0,600 L 300,600 L 300,-200 L 0,-200 z"
         id="path10" />
    </clipPath>
    <radialGradient
       cx="225.52438"
       cy="218.90099"
       r="300"
       fx="225.52438"
       fy="218.90099"
       id="radialGradient1911"
       xlink:href="#linearGradient2955"
       gradientUnits="userSpaceOnUse"
       gradientTransform="matrix(-4.167939e-4,2.182867,-1.884232,-3.599562e-4,1395.597,-309.1214)" />
    <radialGradient
       cx="-483.50824"
       cy="153.9283"
       r="300.00003"
       fx="-483.50824"
       fy="153.9283"
       id="radialGradient2928"
       xlink:href="#linearGradient2955"
       gradientUnits="userSpaceOnUse"
       gradientTransform="matrix(0,2.342476,-2.291353,0,562.9126,1323.77)" />
    <radialGradient
       cx="285.18573"
       cy="200.44757"
       r="300"
       fx="285.18573"
       fy="200.44757"
       id="radialGradient11919"
       xlink:href="#linearGradient2893"
       gradientUnits="userSpaceOnUse"
       gradientTransform="matrix(1.551284,0,0,1.350335,-227.8943,-51.2635)" />
  </defs>
  <g
     id="g3016"
     transform="translate(-643.44452,-181.88011)">
    <path
       style="opacity:1;fill:#ffffff;fill-opacity:1;fill-rule:nonzero;stroke:#000000;stroke-width:1.50377083;stroke-linecap:square;stroke-linejoin:miter;stroke-miterlimit:4;stroke-dasharray:none;stroke-dashoffset:0;stroke-opacity:1"
       d="M 1586.6926,182.632 C 1588.316,183.35541 1242.6926,296.7801 1242.6926,295.88012 C 1242.6926,395.62949 1242.6926,681.37886 1242.6926,781.12823 C 1043.1939,781.12823 843.69515,781.12823 644.19641,781.12823 C 644.19641,581.62949 644.19641,382.13075 644.19641,182.632 C 843.69515,182.632 1387.1939,182.632 1586.6926,182.632 z"
       id="rect3176"
       sodipodi:nodetypes="cccccc" />
    <path
       d="M 1107.0272,531.39061 C 1120.1445,521.75208 1138.3142,525.944 1137.6271,542.58955 C 1126.8288,535.01746 1117.2408,537.92895 1114.2829,544.00913 C 1126.3593,536.25468 1144.1573,545.10861 1137.6271,562.93691 C 1134.8743,556.50795 1122.5574,556.69915 1122.0117,564.67195 C 1120.6393,573.51302 1149.3811,583.93526 1149.9302,611.67594 C 1149.2225,645.9199 1105.3163,643.80802 1087.784,637.5439 C 1056.2606,624.72917 1045.6864,582.49279 1039.5181,564.67195 C 1036.2877,547.83207 1029.919,534.719 1019.9595,525.87001 C 1022.9478,572.19468 1014.9995,572.53246 995.35335,605.36668 C 994.58412,609.55202 1002.96,612.48123 1011.5997,607.57492 C 1024.389,600.92734 1037.3267,603.90486 1042.3573,618.61612 C 1046.29,630.4089 1045.2579,631.70575 1059.7078,630.91918 C 1055.2264,642.4977 1048.6157,650.93267 1034.944,646.21913 C 1036.5714,662.15001 1050.8367,649.47956 1059.55,649.37376 C 1052.5619,664.14619 1043.9702,681.58376 1024.5337,666.72422 C 1024.1507,678.01867 1023.5512,689.28218 1020.2749,700.1633 C 1018.7755,704.62159 1018.7474,708.61526 1025.1646,710.57357 C 1035.0901,714.11719 1044.7223,727.442 1034.7862,734.23329 C 1035.5268,750.24324 1028.1825,753.02342 1019.8017,754.10746 C 1021.3008,749.05392 1023.2144,743.81614 1021.0635,740.38482 C 1013.7081,742.6403 1011.5261,739.7223 1008.6028,737.54565 C 1005.8981,745.26297 999.56539,747.08485 993.61831,749.53325 C 987.91699,751.46748 983.43967,769.8296 961.28336,760.10125 C 948.36381,758.05879 946.92594,766.40457 942.19784,771.77339 C 941.14921,762.05301 938.47384,751.17813 954.0277,745.11676 C 950.57477,743.48687 949.10177,741.85699 947.24525,740.22709 C 940.23488,736.32416 934.23509,741.17943 928.47519,748.11366 C 928.39546,736.6392 928.77868,725.47752 943.93288,724.29621 L 946.29889,720.98385 C 943.65293,719.24266 943.48636,715.84854 943.30197,712.46635 C 934.41192,709.52537 932.52028,717.78177 927.37106,720.82612 C 924.53615,705.47779 934.15906,697.53998 948.8226,696.37774 C 961.2389,691.77114 969.47504,699.35652 976.89873,709.31172 C 986.52759,710.78738 989.50923,705.83733 986.52041,695.11589 C 984.81502,687.17674 983.02681,679.23758 983.36573,671.29844 C 984.64074,652.40017 970.56566,655.60592 962.38749,650.32015 C 964.79966,672.8547 940.94483,666.9324 929.42163,667.67061 C 940.38786,658.05239 947.88064,657.58136 937.3082,641.01399 C 925.96561,622.87488 936.79785,605.52441 938.88546,586.59663 C 927.05252,586.56241 915.60435,584.21991 904.18457,581.70695 C 894.39424,580.21443 883.27943,578.78161 882.2599,587.54302 C 881.11455,594.33631 902.38825,595.40722 901.73967,610.72954 C 901.69537,624.34681 893.77237,627.16287 893.7743,632.33876 C 892.76835,638.4858 902.5914,642.25623 904.50003,647.79645 C 892.34221,646.87183 878.33583,650.83263 871.69185,635.33566 C 864.96375,648.24535 878.94474,648.36415 885.09905,653.31704 C 871.84607,660.78586 859.20744,665.65541 851.34451,650.32015 C 839.71765,660.86954 827.5009,670.97651 812.54256,679.02728 C 816.80695,689.1736 823.04579,701.47955 809.86112,704.57978 C 807.54862,715.50317 800.9554,719.86281 792.35293,721.14158 C 793.62676,715.92292 796.18624,711.13279 793.93024,704.73751 C 780.85005,703.75907 783.12704,695.10204 783.83543,687.22931 C 767.12778,683.75005 732.69115,690.7416 735.25413,668.30154 C 726.25347,663.14581 723.44659,669.75826 718.21913,671.77163 C 716.85482,660.86926 729.46305,650.64009 740.93247,655.36755 L 742.66751,652.84385 C 741.08964,650.47788 741.9357,648.11191 742.82525,645.74594 C 738.59982,637.93379 730.17004,640.63251 722.79335,640.69852 C 727.56993,629.36568 741.63287,624.11335 751.81594,633.75835 L 755.28603,631.5501 C 755.82626,628.4589 756.78849,625.68418 760.64891,625.08311 C 759.41645,616.25156 748.96279,621.15129 742.50978,619.40478 C 748.1339,607.76212 768.84702,606.66675 775.1602,618.93158 C 783.63682,618.15603 788.74027,624.97013 787.14779,646.85005 C 786.66695,656.53291 801.01845,654.34116 801.02816,647.48098 C 805.62793,631.08076 815.76982,619.52441 827.84252,608.5213 C 832.22609,602.74351 832.85962,597.47779 828.00024,594.64093 C 815.68919,588.73892 813.09825,580.9619 813.33122,571.29668 C 792.84439,576.53612 790.37577,562.33778 789.6715,547.79469 C 798.15688,553.59178 804.64026,558.72476 810.49205,543.69367 C 818.16803,528.57241 838.85959,521.36244 859.862,527.92052 C 868.89098,531.78091 898.67799,532.36546 907.95334,528.28462 C 903.38533,515.37616 860.28882,524.84814 822.90744,485.47156 C 818.28303,501.91708 808.16488,493.1885 804.44341,477.42313 C 791.5529,480.76811 778.66752,480.52595 784.74846,469.75347 C 777.39431,470.00029 775.29716,467.37965 775.84785,463.31473 L 745.16917,465.87129 C 745.2439,478.29026 755.21176,499.85407 741.47636,499.86403 C 735.84085,515.99165 721.44102,515.19605 712.31268,504.69308 C 720.91409,504.77263 728.43319,503.76987 728.50421,495.31903 C 723.5653,491.32512 721.59726,486.6946 726.70515,480.54781 L 726.23171,473.91971 C 717.45745,472.41951 712.02287,468.95479 715.43736,460.28474 L 706.34737,454.03537 C 696.09926,454.48507 690.35059,451.61939 693.75397,442.01009 C 688.35016,438.09494 680.82694,438.77185 673.30151,439.45353 C 676.68759,427.54551 689.00833,425.59777 697.63615,428.75387 C 711.36112,420.85223 708.78215,439.815 716.19486,440.21103 C 714.54905,435.84058 712.31185,431.30117 713.07018,427.61762 C 705.08566,423.16725 704.7198,418.10739 705.68457,412.94109 C 700.62209,403.66544 692.22845,406.60408 685.23211,404.41923 C 692.35611,396.2336 704.08289,392.52429 714.30111,401.86267 C 729.03467,402.76309 727.30105,423.94135 732.76513,436.42354 C 732.83249,432.41556 735.43649,428.73555 737.31012,427.61762 C 735.9995,425.64243 734.85019,423.5382 735.32169,420.13732 C 727.09827,416.63872 725.86095,401.60299 734.37481,398.73799 C 732.56636,389.14797 726.5647,384.5898 721.30797,379.13772 C 730.33587,378.66943 741.74579,380.29175 746.49479,395.61331 C 754.89815,396.29856 755.26396,405.33815 755.08283,417.01551 C 754.94638,425.81333 754.21268,436.62531 748.90932,443.47774 C 755.75591,443.44793 762.94542,441.90824 769.31443,440.68447 C 763.59648,432.9509 766.38533,428.69194 778.59378,428.28043 C 773.32343,424.76036 772.17063,415.06395 770.2613,406.50235 C 776.74452,409.72595 783.12394,413.67614 790.33501,411.80484 C 788.88061,402.52445 789.31016,395.79293 792.14679,392.31805 C 789.53865,383.34718 793.02342,374.7148 794.59594,365.97619 C 786.2754,356.54616 776.42227,350.75604 766.09506,346.09186 C 771.57999,339.80614 779.32229,340.79415 787.02095,341.64156 C 782.90244,335.25874 776.52324,330.71271 776.03723,321.37847 C 779.08316,319.67348 781.6262,319.98003 784.18034,320.24223 L 769.12505,297.3279 C 765.93308,309.06667 772.01703,329.09192 751.6079,325.45003 C 736.52695,333.40851 726.83274,325.4835 724.14859,313.23536 C 730.25845,314.28089 736.76291,320.85075 742.42323,315.60255 C 740.83112,307.01472 745.18867,303.2948 751.89196,301.49414 C 750.64364,297.76694 749.43927,294.03095 751.89196,289.56354 C 748.16843,286.40675 745.77575,282.36271 745.83198,276.68607 C 742.04155,272.75515 735.8038,269.45937 732.29169,264.94484 C 723.56427,265.50958 712.88359,254.68946 719.98235,248.46925 C 716.11224,238.8812 707.6078,242.48315 700.76083,241.36771 C 705.5493,228.4114 719.56043,227.05825 728.50421,237.86428 C 738.6699,237.13175 743.2776,250.54682 750.66103,256.89642 L 750.37697,249.22675 C 742.86448,243.07208 737.54013,236.9174 745.73729,230.76273 C 744.82782,224.58524 737.59652,220.32346 728.40952,216.65432 C 740.09612,210.37412 750.80161,211.28883 759.46695,227.16461 C 767.33201,230.47553 768.05642,239.93521 769.21974,249.32144 C 771.77294,247.63118 770.7442,244.05524 772.62848,242.1252 C 769.6537,234.30461 770.61921,228.9467 779.73003,228.67961 C 778.72402,220.64778 772.06919,216.07575 766.94725,210.97309 C 776.54856,209.10457 794.61857,215.43231 793.08093,232.08835 C 795.20658,233.86836 796.24651,236.1246 796.11093,239.66334 C 794.70548,249.98304 787.00075,252.00936 776.88941,271.9517 C 782.33409,284.12386 793.87956,292.86433 802.92842,303.00913 C 804.45561,299.59486 808.40095,296.87148 811.54496,293.91916 C 812.94478,300.00628 814.22615,306.14078 818.07838,311.24693 C 819.81972,304.74101 824.53368,302.50822 830.29304,301.7782 C 831.48927,311.1708 828.88078,322.0362 837.19788,328.67233 C 862.49308,320.05787 892.14169,317.86399 907.55569,278.95783 C 893.02784,270.58174 876.32038,271.44962 859.76061,276.2809 C 862.82847,270.17068 867.02296,265.18713 873.14532,262.13138 C 866.96028,261.71077 861.61564,266.23154 856.32618,268.0497 C 858.68495,262.95078 864.52642,256.71561 874.00114,251.61669 C 864.16491,243.34369 852.35479,253.13371 850.58255,267.10283 C 839.87166,255.89968 837.86342,243.14128 849.43529,229.24333 C 856.64116,220.68746 864.49964,213.21923 877.73433,214.7114 C 885.03406,187.86053 924.95233,202.85143 941.59835,210.50479 C 949.30323,200.64041 963.3668,207.3046 978.31631,207.03538 C 989.31843,206.83725 991.03541,200.4265 998.57881,199.79705 C 992.9918,206.01228 991.85935,217.28635 980.60506,222.35978 C 987.46762,227.13127 999.59657,213.09173 1010.8162,216.62349 C 999.24237,223.78087 1003.4942,229.30443 994.03002,238.25066 C 985.45751,246.35399 970.62432,245.15926 969.1325,246.4522 C 976.08413,252.16849 975.57525,264.35466 984.04688,265.95558 C 979.69459,271.76721 976.71696,271.37404 972.19186,272.45671 C 976.22314,276.3054 973.76218,281.69846 987.44547,291.64463 C 984.46823,292.91594 980.05968,292.32512 975.49976,292.40946 C 976.95153,298.39177 977.93008,299.54141 985.06024,303.88204 C 981.74415,307.87309 978.36007,311.7054 972.57431,309.93379 C 974.46418,317.63479 974.60913,324.46337 974.86878,331.34927 L 968.75012,330.58443 C 969.07175,342.14397 966.89715,352.03936 958.42475,357.73619 L 955.85358,354.55346 C 954.93601,362.05327 956.1502,371.87861 946.45542,369.80328 C 946.07706,373.64529 946.37631,377.48729 944.85948,381.3293 C 951.80972,381.7728 958.31445,383.66244 960.64134,389.84083 L 967.37956,388.42224 C 967.00475,377.95985 969.77567,369.38495 971.2807,360.05049 C 980.11185,359.14252 986.65742,362.50106 989.19039,373.34975 C 997.7277,359.22298 990.05902,345.72713 989.62339,331.60036 C 1000.7155,332.97335 1012.1938,334.59633 1019.1581,350.82967 C 1023.2722,312.67279 1024.8464,272.2561 1033.5212,237.87461 C 1058.0951,250.3252 1049.3616,321.60205 1049.1257,340.72223 C 1084.3056,302.52283 1092.9915,254.00475 1088.3142,200.28203 C 1143.3504,218.8541 1106.7049,305.89493 1096.8257,330.43747 C 1113.8151,313.26533 1132.8256,281.97799 1159.2436,286.1066 C 1165.8538,299.05518 1124.0927,335.91457 1109.593,361.29175 C 1119.4526,349.44558 1158.199,331.48878 1165.6272,350.65234 C 1166.5505,353.66389 1115.5098,393.81209 1090.4421,407.7505 C 1088.7535,409.04608 1086.8022,410.30413 1087.9595,412.00627 C 1112.4835,400.08258 1165.7588,406.57123 1162.0808,432.22114 C 1123.4778,427.71333 1086.4499,433.18137 1050.367,444.63379 C 1041.849,454.52317 1024.8105,459.54078 1004.2628,460.23825 L 1004.2628,466.26725 C 983.65501,466.79953 972.08959,459.88505 958.15877,454.91854 C 961.27695,461.97506 986.44246,485.77536 1010.6465,496.0576 C 1022.2462,501.96231 1051.6789,515.77142 1056.0413,554.57435 C 1059.7766,576.63797 1074.106,611.25708 1100.7269,619.47474 C 1107.3478,621.86983 1121.2081,623.34505 1122.3603,618.76544 C 1121.2644,612.31671 1111.9253,617.13544 1106.0466,618.05615 C 1109.045,604.4776 1116.4675,598.64117 1131.2264,605.6435 C 1131.1273,592.78364 1112.7017,587.77789 1102.1454,579.39963 C 1083.4616,565.76734 1075.9721,548.40364 1078.7387,527.62118 C 1079.173,503.95742 1061.5448,501.06546 1045.7566,496.0576 C 1057.6423,488.86468 1082.9225,478.7839 1094.2648,499.2896 C 1097.423,495.57528 1100.5388,489.74377 1107.8198,484.82745 C 1118.3402,477.15219 1117.2511,462.18031 1123.4242,455.62784 C 1137.5594,436.83795 1165.4849,448.16822 1157.1157,478.67989 C 1152.8922,486.97965 1140.8291,494.80427 1149.0764,503.85983 C 1154.9722,507.17245 1160.3697,505.34568 1160.885,502.87971 C 1161.4823,499.08696 1158.3674,497.84364 1152.6715,497.92226 C 1155.5292,491.72283 1171.7265,491.01965 1173.0641,503.28379 C 1172.2686,522.10176 1136.571,530.85313 1129.5092,502.84532 C 1127.9463,486.11447 1147.0399,470.80866 1140.9094,465.429 C 1133.7413,462.79598 1132.851,483.85455 1126.8783,492.76046 C 1122.6646,500.26418 1117.4125,505.69117 1112.4087,511.61478 C 1128.7213,509.88014 1136.0773,516.93442 1137.694,530.03062 C 1128.172,521.4859 1110.518,522.10672 1107.0272,531.39061 z"
       id="path3141"
       style="fill:#000000;fill-opacity:1;fill-rule:evenodd;stroke:none;stroke-width:1px;stroke-linecap:butt;stroke-linejoin:miter;stroke-opacity:1" />
    <path
       d="M 909.26448,231.24289 C 909.31897,231.24289 909.37339,231.24289 909.26448,231.24289 z"
       id="path3654"
       style="fill:#feed01;fill-opacity:1;fill-rule:evenodd;stroke:none;stroke-width:1px;stroke-linecap:butt;stroke-linejoin:miter;stroke-opacity:1" />
    <path
       d="M 781.39051,231.61361 C 783.45769,233.80431 787.40276,234.33733 790.04286,232.47751 C 792.55007,218.61334 779.14169,212.8899 771.93267,213.14413 C 776.81462,218.93679 782.97555,220.79692 781.39051,231.61361 z M 734.31334,217.18945 C 744.2845,212.56624 753.31526,219.97444 756.9609,228.44778 C 757.51347,233.15499 749.79245,234.78661 748.18988,231.13145 C 746.44712,223.06752 740.71124,219.73619 734.31334,217.18945 z M 727.96418,241.08066 C 730.14566,243.86315 724.17098,248.53558 722.13864,247.49529 C 717.84094,239.8042 712.74019,238.73796 704.72752,239.50973 C 708.65434,230.07049 722.9999,233.04015 727.96418,241.08066 z M 728.02963,316.35435 C 732.19659,317.3861 739.34605,322.41331 744.52438,316.87799 C 747.08006,316.1417 751.15262,319.31973 750.34991,322.04897 C 743.57306,330.89251 728.72295,323.91814 728.02963,316.35435 z M 725.90303,381.25031 C 736.72661,381.21908 744.19675,390.09408 744.85663,398.48747 C 743.69615,401.71882 737.86054,400.70447 736.06615,399.72784 C 736.74686,391.27029 730.83351,386.62013 725.90303,381.25031 z M 689.13458,403.5013 C 695.61558,403.4278 703.31873,403.98241 707.12197,411.18754 C 708.76854,412.04433 714.58666,407.88601 713.06494,404.21446 C 705.20611,396.16296 694.33099,397.92159 689.13458,403.5013 z M 677.01092,437.33661 C 677.03733,437.33661 677.06375,437.33661 677.01092,437.33661 z M 676.85244,437.33661 C 676.87885,437.33661 676.90526,437.33661 676.85244,437.33661 z M 676.69396,437.25737 C 683.09618,437.41737 689.27468,435.20342 696.10766,441.14011 C 700.61226,439.78399 700.29572,436.26667 698.72257,432.18603 C 688.49641,428.10989 680.19846,432.48608 676.69396,437.25737 z M 717.74007,506.19582 C 724.21974,505.62104 730.02225,504.72848 730.89384,496.05315 C 733.02597,494.32462 737.84765,494.74831 739.68944,497.40023 C 737.88911,511.41038 723.82584,512.0767 717.74007,506.19582 z M 795.01649,718.43512 C 798.95314,711.86375 797.50008,703.90965 795.12887,700.00316 C 797.62725,691.60098 805.0497,693.8666 807.4893,698.51115 C 807.21041,711.30917 802.37778,717.54751 795.01649,718.43512 z M 720.17318,668.98302 C 723.86384,666.21395 731.57518,661.36114 738.76807,667.63211 C 741.96398,666.8938 744.71393,663.88645 742.26455,658.17573 C 730.86648,654.04473 720.55686,661.37838 720.17318,668.98302 z M 726.5304,638.94511 C 734.81976,637.25962 740.83227,639.02187 745.76103,645.69967 C 751.26983,645.95579 753.37937,641.88553 752.27718,637.35581 C 745.51726,628.77716 731.86136,630.20995 726.5304,638.94511 z M 746.79407,617.8868 C 754.85216,617.38288 762.56461,617.59907 765.62737,627.5021 C 769.6882,629.16788 774.72209,626.23109 774.20963,621.14487 C 766.90666,609.88603 753.95594,611.87456 746.79407,617.8868 z M 929.94641,714.0987 C 930.87602,706.02115 937.67297,698.82087 948.29018,699.58796 C 952.63289,704.8006 949.8737,710.40628 947.46886,712.45598 C 941.48605,708.04057 935.32525,709.08521 929.94641,714.0987 z M 930.97736,742.43241 C 930.20984,735.00173 934.62827,725.09153 947.09667,726.62309 C 950.8781,731.45603 950.29906,735.78781 948.64654,738.17009 C 939.92313,734.86527 934.98,737.93772 930.97736,742.43241 z M 944.46174,766.3789 C 947.91506,759.90856 954.25007,757.68317 961.82103,757.38928 C 963.11287,752.13959 959.53505,748.25355 956.55125,746.84973 C 947.00367,748.93505 941.6858,756.65628 944.46174,766.3789 z M 1022.872,751.84954 C 1025.2816,745.2402 1024.8213,740.17384 1020.6196,736.0831 C 1020.6873,730.17055 1024.9865,728.07337 1031.0095,730.99716 C 1034.7119,741.67874 1030.4721,750.91111 1022.872,751.84954 z"
       id="path3707"
       style="fill:#eee211;fill-opacity:1;fill-rule:evenodd;stroke:none;stroke-width:1px;stroke-linecap:butt;stroke-linejoin:miter;stroke-opacity:1" />
    <path
       d="M 908.43366,254.00534 C 906.34319,243.56866 901.12737,233.29922 891.88945,230.7274 C 882.9402,227.7151 880.43502,223.30516 878.43586,218.30713 C 858.28418,216.52395 837.80071,243.9883 849.96154,258.88414 C 853.75566,242.91828 873.40458,239.22224 879.8972,252.10213 C 889.51679,250.37116 899.14094,251.42364 908.43366,254.00534 z M 867.27211,260.32708 C 879.37358,255.44383 892.97559,256.60278 906.32336,257.38598 C 904.53962,250.60673 871.2888,251.32884 867.27211,260.32708 z M 866.29179,272.58166 C 881.35676,267.00127 893.81814,267.21512 905.50644,274.05221 C 911.46764,276.62006 914.7476,266.27743 910.08148,261.14406 C 893.22165,255.06105 874.48571,264.55599 866.29179,272.58166 z"
       id="path3646"
       style="fill:#eee211;fill-opacity:1;fill-rule:evenodd;stroke:none;stroke-width:1px;stroke-linecap:butt;stroke-linejoin:miter;stroke-opacity:1" />
    <path
       d="M 909.75468,231.24289 C 911.00129,241.20127 920.97377,239.78444 916.78064,230.75271 C 920.48511,230.91523 923.02804,232.23928 922.8262,236.30812 C 922.47254,239.96886 919.31893,241.92093 916.29044,242.19032 C 912.09468,243.33633 902.51368,236.73385 902.23852,234.18399 C 902.92531,231.27609 906.07197,231.15485 909.75468,231.24289 z"
       id="path2430"
       style="fill:#ffffff;fill-opacity:1;fill-rule:evenodd;stroke:none;stroke-width:1px;stroke-linecap:butt;stroke-linejoin:miter;marker:none;marker-start:none;marker-mid:none;marker-end:none;stroke-miterlimit:4;stroke-dasharray:none;stroke-dashoffset:0;stroke-opacity:1;visibility:visible;display:inline;overflow:visible;enable-background:accumulate" />
    <path
       d="M 771.00623,434.48712 C 771.06464,434.48712 771.12305,434.48712 771.00623,434.48712 z"
       id="path2408"
       style="fill:#feed01;fill-opacity:1;fill-rule:evenodd;stroke:none;stroke-width:1px;stroke-linecap:butt;stroke-linejoin:miter;marker:none;marker-start:none;marker-mid:none;marker-end:none;stroke-miterlimit:4;stroke-dasharray:none;stroke-dashoffset:0;stroke-opacity:1;visibility:visible;display:inline;overflow:visible;enable-background:accumulate" />
    <path
       d="M 773.77098,269.23791 C 770.8917,265.5143 767.91957,261.8545 768.57696,255.69942 C 769.81407,253.51056 771.12954,251.43923 773.26009,250.59056 C 773.61737,247.56379 774.43081,244.74436 777.26204,242.84212 C 773.15843,237.37717 774.08933,232.48214 780.49765,232.87983 C 783.27353,235.59665 786.58254,235.47011 790.03419,234.58278 C 793.89217,240.04654 790.13473,245.46338 786.1174,249.82423 C 781.21333,255.65489 777.73847,261.70439 773.77098,269.23791 z M 740.62777,446.66165 C 754.64499,444.14339 752.27021,404.00503 748.87637,400.85024 C 745.11745,400.36596 743.11941,401.25126 742.40439,403.13447 C 738.21144,402.49474 734.61731,402.45386 733.7751,405.16488 C 732.66071,408.46432 733.03188,411.76376 734.2827,415.06319 C 736.20369,417.40628 738.80231,414.85606 741.38918,417.60122 C 738.2493,420.3707 739.55741,425.36175 741.64298,428.00714 C 736.16118,433.52116 732.81688,442.83254 740.62777,446.66165 z M 790.8206,323.05237 C 791.54398,316.43513 791.20854,311.41617 791.72688,307.8104 C 794.67304,306.19559 797.44261,309.95397 801.74201,309.94667 C 793.06253,294.54139 777.0464,288.7263 772.49851,270.73695 C 767.50731,267.0019 765.52322,262.35094 765.77413,255.12115 C 764.28583,247.14258 766.70412,238.7739 758.49319,231.31246 C 754.53776,235.70725 751.56784,234.16376 748.22706,234.37045 C 740.83318,238.03415 749.5156,246.64882 756.30891,246.16559 C 752.13946,253.46466 754.27633,260.5427 758.77087,268.41938 C 748.14021,265.25846 737.08506,241.33561 730.31594,242.23388 C 729.19106,245.93202 727.70917,248.1122 723.15594,248.95336 C 716.66791,256.17758 728.01039,263.28956 733.81079,260.58186 C 735.45004,267.37082 744.63901,269.40199 750.19291,275.21656 C 748.74722,281.70316 751.58316,285.46509 756.52734,287.88541 C 754.43957,291.61943 752.92589,295.85578 755.4352,303.61225 C 749.22213,305.57665 743.79155,309.796 746.30934,314.86314 C 749.96944,316.15801 751.51832,318.23929 752.26616,321.86397 C 767.21528,326.5093 764.29158,298.12587 765.39775,285.07174 C 774.26069,296.49936 781.35293,311.01658 790.8206,323.05237 z M 739.89766,463.64895 C 747.19087,460.47501 760.40121,460.76726 771.66308,460.2391 C 782.72194,459.41924 786.37389,449.72533 784.76408,443.90772 C 771.95448,442.77882 756.82726,449.71045 739.7182,447.31757 C 721.61059,444.80372 729.95151,409.31371 714.593,406.57885 C 714.30579,409.82114 712.20817,411.79141 708.85009,412.86016 C 706.44613,419.06662 710.98802,423.00361 717.10552,425.42276 C 717.01103,428.95225 716.74782,432.48174 719.43857,436.01123 C 719.4541,440.5577 721.87662,445.10416 727.1556,449.65062 C 715.97433,446.76286 708.37174,441.88695 705.79918,434.21657 C 703.44492,429.57386 701.58803,431.397 699.69735,432.78085 C 702.18157,436.90149 701.15468,440.14434 697.90269,442.83093 C 695.6866,451.46587 702.97657,449.47638 708.49116,449.47116 C 709.62121,451.4696 710.50671,453.63107 714.41353,453.77833 C 715.67245,456.85745 719.16884,458.17527 720.3359,458.62391 C 715.48484,466.82444 720.06823,469.85126 730.02705,469.93025 C 730.53287,479.10717 729.86894,479.49321 738.103,482.49284 C 724.79822,481.81376 725.647,488.30727 731.28331,492.90186 C 734.70414,492.25423 737.96253,492.33756 740.43606,495.95277 C 744.62241,496.13086 744.84401,491.6834 743.30751,485.18483 C 743.85925,478.00621 741.62052,470.82758 739.89766,463.64895 z M 952.89077,217.83475 C 951.14393,222.64121 946.71731,224.32122 942.43349,226.16786 L 949.62285,226.65804 L 946.68181,231.88666 C 947.27883,230.94233 948.66885,232.68958 949.13334,231.72405 C 955.15668,219.2018 976.14263,234.89901 1002.2358,219.79548 C 993.45375,236.99308 987.27127,239.7973 964.49177,242.34389 C 960.2565,248.13798 953.05177,247.62192 945.37461,246.10196 C 948.99773,253.78425 957.51498,250.69946 965.30869,249.20645 C 973.19241,251.5077 970.91994,263.96507 978.70709,266.36286 C 973.13151,269.5801 968.82337,267.41105 964.98197,263.25837 C 968.5144,271.66302 970.77197,281.08761 976.25617,287.93091 C 960.38346,289.1158 958.70509,277.39672 951.42025,270.7745 C 949.52683,279.43941 949.84012,288.38153 940.47277,294.1399 C 933.65551,289.78939 931.30084,283.12919 929.19856,275.34955 C 922.89636,288.18617 915.50987,294.63591 906.15996,292.66934 C 910.46014,283.23726 917.29577,277.16819 915.14664,260.48066 L 917.76096,260.48066 C 915.20476,254.70618 909.50321,250.5248 908.61088,244.46802 C 915.81606,246.87318 922.80142,248.39933 926.58424,237.11528 C 930.35687,237.19883 934.52175,238.06695 939.16564,239.89298 C 934.63074,234.51532 928.03254,231.20093 921.8458,227.47501 C 916.86408,224.91575 911.63351,225.24085 904.52604,227.8018 C 896.2283,230.81269 885.93689,228.63059 882.46783,218.65172 C 881.93117,206.25362 893.70923,203.52731 903.87244,203.94623 C 921.87359,205.2523 936.06792,215.64269 952.89077,217.83475 z M 989.0009,231.06969 C 981.63849,234.2238 969.73315,236.08681 963.18457,239.56619 C 955.35952,242.9547 952.46625,241.10309 951.58357,237.11528 C 950.89871,231.54422 956.32332,229.84486 964.98197,229.92593 C 972.43538,231.59729 980.24654,232.43379 989.0009,231.06969 z M 806.19597,358.35446 C 798.2257,366.20764 793.03793,376.12262 794.7434,390.89015 C 800.68742,390.08887 805.11001,387.00541 808.27825,382.04044 C 808.58197,388.73843 809.96136,395.00616 817.12796,398.95901 C 826.242,396.99713 832.73445,391.97672 837.69052,385.16387 C 837.80882,390.05014 838.6549,394.57253 842.89623,397.39729 C 857.99325,397.44299 866.07675,388.44946 877.38407,382.56102 C 865.47255,383.55602 866.10832,377.94721 867.10277,372.1496 C 853.97206,382.07407 840.32319,380.70527 842.11537,370.84816 C 824.80164,383.16759 811.73069,376.99394 816.60738,365.38217 C 807.42186,366.44604 805.01859,369.1252 806.19597,358.35446 z M 806.45625,388.80787 C 802.74508,391.78854 798.10231,393.60449 793.70225,392.45187 C 793.85853,399.21929 789.11592,405.72643 796.04483,413.535 C 799.98783,413.94081 803.72523,413.11309 806.97682,409.37043 L 810.62082,417.69957 C 820.5872,415.16466 826.82204,410.49744 831.96424,405.20586 C 838.91183,413.2481 854.97303,402.53538 861.11622,396.09587 C 847.93194,400.33711 840.26223,403.51004 834.82738,392.71216 C 820.53952,404.41746 810.88035,405.81811 806.45625,388.80787 z M 859.83833,632.25083 C 849.87875,645.73038 855.80224,662.99591 876.74783,653.84807 C 857.56635,642.13191 867.65811,634.63055 876.41293,623.87981 C 875.33358,634.47312 874.68276,644.83026 894.99659,643.63543 C 888.43297,636.70818 887.72078,630.24904 892.3179,624.21465 C 904.59126,608.85826 894.68122,601.31262 880.09618,593.91154 C 874.81845,588.27064 879.62589,578.8 887.12785,577.00207 C 901.70378,573.42112 914.72706,583.27871 938.35853,582.69437 C 945.58501,566.77145 921.75704,535.35631 913.58033,531.96597 C 897.98649,538.01182 872.64007,538.26298 857.9967,533.13791 C 838.81033,522.79346 818.06833,534.55206 812.62575,549.37769 C 809.82344,560.10827 799.95816,559.2051 793.87465,555.40483 C 795.64672,572.72437 809.79739,571.76399 818.98773,559.75776 C 820.59497,564.49744 817.46904,569.28768 817.30244,572.89513 C 816.98304,579.8111 818.87748,584.30492 827.36531,588.75798 C 840.1965,596.01491 835.61665,609.67813 825.68455,617.18299 C 814.44537,626.26483 808.08416,638.59865 803.08279,651.83903 C 798.79704,661.5093 784.41522,657.77636 783.15975,650.49967 C 781.38803,640.92727 786.32542,625.31666 776.63034,622.87528 C 774.0141,628.64342 770.09278,630.49632 765.24575,629.57211 C 760.178,628.73144 759.22205,632.76301 762.56703,635.09698 C 772.03438,640.39324 770.79882,653.81225 783.49458,661.21457 C 769.94973,663.06112 766.00884,628.60308 753.3589,637.77571 C 754.62577,641.77568 753.84746,645.26436 748.00144,647.4861 C 746.04372,648.76757 743.41228,652.26826 749.17339,653.1784 C 766.92121,653.51483 761.15267,668.12346 779.57424,668.60992 C 781.18976,668.65258 781.11061,670.50713 779.19029,670.72855 C 771.9375,669.86682 767.34069,668.61188 763.17276,664.48013 C 759.44736,658.58831 753.0017,652.28617 744.98788,657.19649 C 746.07756,662.30588 747.05415,667.37414 740.63494,669.75302 C 736.07169,683.5975 759.08737,678.39936 768.42675,682.6444 C 789.19911,683.0347 787.14384,686.52646 794.71176,674.94306 C 795.53926,678.68554 792.94026,682.42803 789.98751,686.17052 C 788.58549,688.51599 786.88723,691.5471 786.91617,694.42064 C 786.96477,699.24741 789.97857,703.1526 793.52298,699.13392 C 796.31414,690.73864 806.22778,690.25585 808.9743,698.4792 C 810.12127,700.91018 812.89173,701.10327 813.55732,698.34826 C 814.66249,688.0102 808.46008,687.25762 807.66487,677.39731 C 831.56816,662.74261 847.92993,650.12674 859.83833,632.25083 z M 776.71999,413.87233 C 787.10067,419.4974 802.44722,412.9899 811.65911,420.62193 C 803.53875,441.92052 774.95648,427.2739 776.71999,413.87233 z M 771.00623,434.48712 C 771.63931,432.48928 778.4427,432.74276 784.15722,432.90725 C 791.06253,433.10603 797.03695,432.27086 797.46565,434.31189 C 792.98037,442.44063 774.61667,441.88176 771.00623,434.48712 z M 802.37203,435.53848 C 803.1721,453.41239 797.38957,465.29631 779.94285,466.02814 C 779.40858,463.29091 783.23037,460.06853 784.11844,456.38037 C 786.07125,448.27036 791.33196,439.35261 802.37203,435.53848 z M 802.37203,453.76219 C 799.75983,459.53774 797.21742,464.8926 791.43834,469.31092 C 788.92654,470.80418 787.20645,473.13137 787.47765,476.01613 C 802.6609,479.30416 815.91932,469.97749 802.37203,453.76219 z M 810.60775,467.78043 C 816.4472,472.32251 823.46924,485.55418 816.91595,490.38483 C 808.25996,488.96948 806.79375,474.26272 810.60775,467.78043 z M 770.53755,346.03482 C 780.52198,348.65373 790.43444,356.13098 795.42629,362.82484 C 799.17404,361.02928 800.38418,358.59933 802.1423,356.30636 C 794.99394,344.03385 780.51842,339.19201 770.53755,346.03482 z M 779.82145,323.71397 C 779.96998,328.56211 787.65996,340.31995 794.04358,341.09658 C 793.68997,324.59389 793.03449,323.76124 779.82145,323.71397 z M 809.05583,301.59064 C 810.66719,307.16019 813.37715,312.54662 818.1422,317.59054 C 818.07057,321.33782 816.35372,323.43989 814.19161,325.09667 C 806.22486,317.37112 803.46366,308.20864 809.05583,301.59064 z M 827.22857,306.72642 C 826.31295,315.7395 827.25577,324.03778 833.15445,330.42997 C 830.59108,333.25311 828.23384,336.13515 822.09279,337.9361 C 816.48886,328.88634 820.16357,310.14696 827.22857,306.72642 z M 794.04358,309.68936 C 801.69768,314.08074 812.58825,324.69759 820.71009,339.12128 C 821.82943,340.82066 816.62781,345.31952 814.58667,344.65211 C 810.88473,341.49936 807.93606,334.58031 804.71019,329.04727 C 803.00286,328.67059 802.38763,329.308 802.93242,331.02257 C 805.62374,336.31056 807.60245,340.52965 811.22867,347.22 C 812.1878,349.28877 809.8584,353.29491 805.18212,353.11279 C 794.32504,340.30331 792.87024,325.11415 794.04358,309.68936 z M 964.21506,305.67586 C 963.12792,312.89408 956.28465,312.38504 952.08789,309.71825 L 951.39964,323.73297 L 948.95752,315.25732 C 942.29023,330.51717 934.33528,324.96633 930.56967,312.09691 C 928.45165,315.53426 926.16011,321.05335 924.39251,320.28525 C 923.87452,317.86836 926.65741,315.0505 928.12755,310.94767 C 919.83576,316.12382 913.53456,316.72851 912.61282,307.93091 C 904.92284,311.96037 897.25826,316.49823 889.19702,313.1025 C 880.69598,317.22257 872.26078,321.36239 867.50513,326.60607 C 874.13259,335.04815 887.22271,329.52737 898.82194,321.14718 C 889.85548,340.37432 906.52026,329.07761 916.20415,320.85987 C 915.72182,338.69245 920.78058,332.77893 930.13875,324.16393 C 924.54997,332.90669 916.78095,342.62968 912.03818,327.46801 C 907.10547,330.87186 897.39943,339.60983 892.50114,328.32993 C 886.04835,334.6046 861.42162,337.10072 864.20105,325.45683 C 860.98561,325.67113 837.77929,330.17991 835.32638,337.09289 C 837.56357,340.45825 844.07035,339.55401 849.9792,339.24771 C 834.52085,355.64118 861.90292,353.80921 873.68229,343.98833 C 866.46329,362.41618 891.33364,351.24302 897.38538,343.41372 C 890.98322,361.4488 911.94911,353.66669 917.49707,342.26448 C 918.33537,363.69177 942.50573,338.09036 944.36056,328.32993 C 948.95752,342.29134 954.56012,342.14181 958.15144,327.61165 C 960.48851,340.43956 952.64509,348.32224 944.07327,336.08731 C 937.41818,346.19939 922.19838,363.41107 915.19859,349.15992 C 913.15397,353.02458 894.00608,363.2588 892.64478,350.30915 C 883.02734,356.92415 870.70729,360.86683 868.07977,350.30916 C 857.50849,356.79581 833.83772,357.32989 843.37107,341.97716 C 837.81024,343.47393 833.20043,343.06865 831.44769,336.94923 C 819.04666,343.12335 810.24564,352.33582 809.0375,363.52543 C 816.1241,364.96005 822.02508,360.46658 828.43093,358.4975 C 825.0054,362.62303 818.76731,365.82295 820.52991,373.72493 C 831.26158,374.34414 839.09727,368.20606 847.68072,363.81273 C 847.0417,367.88296 844.09331,371.95318 847.24975,376.02341 C 857.16978,378.78652 865.21267,369.66106 874.11321,365.96756 C 870.37269,372.5315 868.28639,379.52489 874.11321,380.47672 C 884.93982,380.82937 891.45953,374.64172 899.10922,367.83508 C 898.82526,371.31653 896.58914,375.19998 899.97114,378.03458 C 907.18921,378.17575 912.28695,371.84702 918.21535,367.83508 C 918.14642,371.60725 916.99452,375.81263 918.64635,378.89651 C 922.67052,378.9463 934.06235,371.27983 933.58643,360.36501 C 935.59184,354.21056 937.95971,351.13727 941.48751,357.92287 C 943.87275,361.81564 945.73907,366.52395 950.68144,366.39852 C 951.7702,359.71635 949.93421,347.51054 954.56012,347.00509 C 957.04384,347.64646 957.89279,349.16986 959.44436,350.59647 C 965.26771,345.88511 964.05545,334.13818 964.47232,324.02028 L 969.9312,326.89338 C 971.00029,318.82938 968.31604,306.9407 964.21506,305.67586 z M 1151.4775,517.6134 C 1167.6544,518.26911 1177.6866,494.43791 1158.5347,496.88948 C 1177.1589,503.95773 1153.43,517.85473 1143.1201,503.38961 C 1137.3098,486.75327 1157.9366,482.25959 1153.7061,463.27449 C 1149.2699,447.94652 1132.6368,446.10483 1124.5484,462.3459 C 1119.6487,470.01775 1122.8016,477.72283 1108.5766,490.57506 C 1102.4653,496.2309 1096.3493,501.29705 1093.5334,511.18977 C 1087.7889,486.25477 1072.0596,489.10299 1055.0898,495.40373 C 1070.3233,497.87973 1086.5768,505.73873 1083.319,532.9188 C 1082.3757,554.29082 1093.1584,568.03567 1108.948,578.04832 C 1120.4163,586.30789 1141.2911,592.63175 1134.7629,613.89192 C 1127.5026,606.94023 1117.0111,602.72894 1112.1053,612.03474 C 1127.6837,606.14951 1134.9261,625.62594 1115.2624,625.9636 C 1078.8075,626.3588 1057.3753,587.57225 1053.0468,558.36219 C 1049.0646,529.79692 1033.3231,512.17509 1014.9746,503.20389 C 982.23775,489.31453 966.62083,473.86042 953.50192,457.70294 C 956.39163,465.37613 960.52108,472.69511 960.1878,481.28915 C 944.99679,482.41831 934.13846,469.68299 921.18695,463.64592 C 924.41613,470.88093 931.48662,477.68913 930.65859,485.37495 C 922.11857,488.647 916.82602,482.17658 910.04389,480.17484 C 910.5046,484.46003 910.82507,488.67513 908.37238,491.50365 C 899.16255,495.46219 891.62625,484.35869 883.30042,480.36056 C 884.42492,484.44636 885.28538,488.53216 883.4862,492.61796 C 873.07917,495.00616 869.06804,489.57726 862.68574,487.04641 C 862.51602,489.47374 862.74069,491.96678 859.71425,493.91799 C 847.97966,494.15657 846.18535,487.04132 840.21384,482.40345 C 838.80621,485.22829 837.32004,488.01385 836.87091,491.31793 C 850.78808,503.64276 860.54895,508.55303 901.87228,517.87563 C 923.12876,525.27178 959.86478,526.34129 946.25891,576.19114 L 939.38732,605.5346 C 935.96928,622.18733 933.52082,623.23973 942.54456,640.44962 C 947.32228,649.10246 949.53331,657.27997 941.05883,663.47868 C 951.63304,663.75017 961.60931,663.46106 956.65915,649.17837 C 954.34053,643.66988 950.28255,637.46563 950.15897,632.83518 C 952.17311,631.75328 956.64565,645.24218 973.37379,649.73553 C 982.32474,652.06605 989.00259,657.3874 988.60262,672.02171 C 988.21655,678.67607 989.00097,684.55006 990.08843,690.22209 C 995.72862,706.29237 990.74728,713.51133 978.57387,714.73689 C 970.43437,715.03332 966.99109,693.9335 950.71617,699.508 C 953.63313,705.17895 952.68762,709.74631 948.67325,713.43686 C 946.20048,719.50015 950.3013,718.98989 954.61623,718.26553 C 966.33293,713.7622 968.3341,726.18254 989.15982,720.30844 C 978.46388,734.59771 957.10196,711.83283 948.67325,725.50854 C 951.51904,728.44 952.29791,733.02425 950.73083,738.89767 C 952.98578,742.6753 956.69628,741.06907 959.94058,737.92093 C 970.76765,728.02249 978.88269,741.54295 993.05988,727.73716 C 984.76609,748.29323 960.94274,728.31843 958.14488,745.38039 C 963.61781,747.36879 964.27118,751.58162 963.34496,756.52348 C 970.21655,761.52844 977.08815,760.18518 983.95974,752.80911 C 987.8351,748.83494 991.57562,744.45619 996.40282,743.33749 C 1010.2714,739.02992 1006.1512,727.39366 1007.7316,718.07982 C 1011.0041,724.9043 1008.7622,741.37911 1019.0604,735.90876 C 1020.1638,727.38929 1024.8342,726.30141 1031.875,730.1515 C 1038.9728,727.01478 1032.2104,715.94305 1024.0748,714.9226 C 1018.0574,714.35901 1013.3074,708.57229 1016.0889,698.95084 C 1022.3749,679.80896 1019.3745,656.15673 1021.2891,652.14987 C 1031.307,671.42184 1041.6784,673.65013 1051.004,656.79282 C 1029.1358,660.27125 1030.2491,646.23996 1028.3464,634.50664 C 1035.837,643.17868 1045.1848,649.35261 1053.604,635.43523 C 1042.8018,636.61625 1041.7163,629.70009 1039.4894,623.73499 C 1033.9798,604.49763 1021.6146,607.54095 1008.2888,613.70621 C 993.19742,618.51735 987.19964,607.09061 993.61708,598.66303 C 1004.0702,583.33295 1009.7784,573.63241 1014.4356,560.27181 C 1019.5973,545.46406 1013.3649,521.86681 1015.9032,518.6185 C 1034.8735,524.62595 1041.0794,551.37545 1048.5897,576.00542 C 1056.5964,603.0211 1071.0471,634.81436 1111.7338,637.84956 C 1136.7233,638.89972 1165.3716,616.60723 1128.077,580.27693 C 1106.6638,563.76138 1125.9667,547.87284 1134.7629,555.93337 C 1137.1284,540.74822 1111.5006,541.21939 1110.0623,559.66222 C 1100.6288,541.74518 1121.729,528.78965 1134.7629,537.37604 C 1130.8498,524.67728 1110.1564,527.18517 1103.1907,543.31902 C 1096.822,520.50797 1121.1794,516.60545 1132.9057,523.81861 C 1125.3522,507.57354 1104.4562,517.52941 1097.805,526.41866 C 1099.401,522.62265 1101.3551,516.49436 1108.9004,509.03334 C 1119.4555,498.77922 1126.6548,489.52198 1129.2245,478.38059 C 1132.0281,465.93909 1135.8612,460.61426 1141.2191,462.38785 C 1150.4747,466.57353 1143.8757,475.73834 1139.22,483.7115 C 1127.1201,497.44705 1134.2748,518.3559 1151.4775,517.6134 z M 970.86413,233.8572 C 965.46021,232.35311 955.97244,231.03663 956.32201,236.30812 C 957.5961,240.56254 968.13303,237.56678 970.86413,233.8572 z M 956.09594,221.44982 C 968.41807,219.96621 981.59851,224.23478 990.91677,207.06439 C 973.0801,216.69868 950.49635,202.13812 945.74378,212.17323 C 949.58441,214.90248 954.71202,213.36724 959.05373,215.26543 C 957.76498,217.37171 956.69049,219.34354 956.09594,221.44982 z M 890.98477,311.40499 C 896.955,306.9537 901.08275,301.51877 904.26708,295.69466 C 908.86497,297.34185 912.4982,295.16492 916.28272,294.77874 C 911.06975,308.97047 901.11787,313.08052 890.98477,311.40499 z M 926.8608,285.36806 C 918.38724,288.17992 913.89895,303.48712 917.58675,312.77111 C 929.33317,311.57944 940.12937,295.18103 928.85718,285.61956 C 927.80361,289.23355 927.49109,292.22245 926.46646,293.13319 C 926.14977,291.563 926.78014,289.77393 926.8608,285.36806 z M 943.59882,296.02376 C 948.97048,302.29143 948.28123,317.44584 940.20841,322.17868 C 930.90789,317.8417 932.59638,297.60448 937.54446,296.10449 C 940.49206,296.67516 939.46157,303.63126 939.88547,307.89035 L 941.25781,308.21325 C 941.83654,303.83993 940.5359,296.57525 943.59882,296.02376 z M 951.10626,282.94631 C 954.3156,282.90023 953.91655,292.51279 954.98108,292.95622 L 955.10218,292.71404 C 956.3721,293.27057 956.57857,290.96901 954.41601,282.30051 C 957.42969,282.11763 961.57357,286.11649 963.45719,288.43561 C 963.68936,296.14054 964.97055,305.69377 958.6137,309.3434 C 952.95352,307.43667 945.08308,302.22234 946.18204,291.50317 C 948.57283,289.04592 949.76765,286.24537 951.10626,282.94631 z M 966.12114,289.48504 C 964.45503,306.15204 967.09783,306.63266 978.22986,305.79149 C 978.81569,304.99352 978.04377,303.01171 977.47168,302.75691 C 969.83441,299.35554 975.97823,289.3251 966.12114,289.48504 z M 912.07353,526.44108 C 924.3411,536.01531 936.05896,549.53315 942.20919,563.44102 C 949.07221,540.42331 926.02272,527.02628 912.07353,526.44108 z M 925.98537,378.64112 C 933.32285,374.27082 936.58907,368.02145 937.75787,360.80405 C 942.48644,359.85135 943.88757,370.33641 940.79015,380.42483 C 938.0044,382.87429 929.18845,381.95719 925.98537,378.64112 z M 970.24272,387.31721 L 973.81853,363.62729 C 982.7924,364.21222 987.56032,372.25447 983.65208,386.42325 L 970.24272,387.31721 z M 993.93261,336.36156 C 997.8055,359.61552 1001.3916,361.38548 987.22789,385.08231 C 987.34637,388.67282 990.08596,388.14446 992.74396,387.74421 C 996.00988,386.16345 997.33738,380.59978 999.59603,379.07431 L 997.63824,385.92632 C 996.86501,387.3599 998.25626,391.23027 1001.274,390.12144 C 1021.9845,369.86626 1020.0963,339.55841 993.93261,336.36156 z M 1035.9536,243.75002 C 1048.1972,247.32693 1047.5267,322.84275 1041.6469,342.95732 C 1039.8821,348.99463 1035.4527,351.03581 1032.3179,353.0646 C 1032.9375,340.60204 1034.7649,329.306 1034.6371,309.29147 C 1030.8999,315.22352 1033.2007,364.90888 1022.2496,363.41255 C 1023.1039,340.33461 1032.7283,250.41393 1035.9536,243.75002 z M 1048.6888,370.39164 L 1052.0769,347.69164 C 1087.5994,296.33909 1095.013,279.09278 1092.7335,207.42599 C 1135.7575,226.11482 1100.5993,317.08126 1082.5694,351.75732 L 1052.7545,370.73045 C 1080.804,327.74955 1082.5957,331.94288 1099.5097,282.3021 C 1099.4547,277.73317 1098.1169,278.80852 1096.4604,281.28569 C 1083.5575,327.19133 1079.6578,327.01185 1048.6888,370.39164 z M 1078.4116,377.17379 C 1080.5778,352.94642 1130.2668,285.92653 1154.6774,289.46802 C 1159.4465,299.33895 1109.5538,342.00662 1094.3003,377.17379 C 1089.7555,378.51822 1083.661,381.55166 1077.9879,384.58853 L 1113.3668,330.56686 C 1116.4847,326.68623 1114.337,326.00539 1110.8246,329.93131 C 1099.8081,343.34942 1088.2697,370.56399 1078.4116,377.17379 z M 1093.9186,400.78586 C 1097.9301,401.93426 1158.801,354.07246 1161.0576,349.6037 C 1141.6737,337.88854 1097.2499,366.59831 1098.5852,382.87211 C 1101.5461,386.28894 1104.2287,376.58415 1127.361,363.28683 C 1129.0427,362.80426 1128.8806,363.26759 1128.078,364.52941 C 1122.3483,366.70154 1093.6297,387.37895 1093.9186,400.78586 z M 962.32103,415.39012 C 966.52427,417.04576 973.58821,416.55593 980.05667,416.51264 C 988.62192,415.00071 1011.4054,404.3673 1024.3062,381.03135 C 1025.6713,379.02428 1026.6509,380.74489 1025.3808,382.56756 C 1017.5817,398.75147 997.7331,410.02338 992.17982,415.39012 C 1019.0066,420.89492 1052.3191,369.31815 1047.4073,345.79453 C 1030.1955,356.94866 1014.5552,380.94877 995.77184,398.55248 C 992.18963,402.18228 988.58341,405.79294 982.07721,407.08355 C 974.14255,409.85241 966.16915,412.62127 962.32103,415.39012 z M 1017.6704,411.53211 L 1029.2113,411.34292 L 1050.9688,391.66659 C 1053.4914,390.40528 1053.4914,391.41434 1050.9688,394.69372 L 1031.2924,412.0997 L 1035.8331,418.53235 C 1050.6992,409.16632 1078.1827,384.45563 1078.5913,357.04382 C 1062.6501,362.18374 1055.1321,373.46845 1046.8065,382.7744 C 1021.202,408.44192 1015.5537,409.73451 1017.6704,411.53211 z M 988.15588,437.83029 C 1015.8926,433.66752 1038.6115,423.81865 1056.2663,406.04544 C 1066.7358,398.34047 1082.3159,381.89957 1095.6189,381.82842 C 1088.5322,416.0746 1058.526,441.25055 1039.2387,436.31672 C 1050.4839,427.55992 1060.243,421.28021 1074.2398,407.9374 C 1074.0049,406.34904 1073.0184,406.6396 1071.7803,407.55901 C 1054.4007,426.93507 1032.0922,440.16016 990.80462,439.53304 L 988.15588,437.83029 z M 1051.158,440.85741 C 1086.1504,427.65255 1122.8831,425.79616 1159.3778,427.61373 C 1148.3102,402.64572 1095.0354,407.09181 1080.2941,419.28913 C 1071.6664,429.74374 1061.4374,433.79339 1051.3472,438.39787 L 1051.158,440.85741 z M 995.5345,442.18178 C 998.6516,446.36216 1001.3717,450.74108 1003.4807,455.42546 C 1020.9387,454.06279 1038.505,452.81435 1046.6173,441.61419 C 1035.9577,434.52564 1013.6052,443.5844 995.5345,442.18178 z M 923.82945,437.2627 C 949.02737,437.84893 1017.803,435.53252 1031.1032,419.28913 C 1025.1863,412.91583 967.70273,419.60257 937.26235,423.07304 C 936.80233,424.64966 936.42991,426.2263 934.6136,427.80292 C 943.25388,429.73596 953.53148,427.30274 962.99292,427.04614 C 965.04032,427.86599 965.14166,428.68584 962.99292,429.50569 C 948.8916,430.84824 928.52505,427.45251 923.82945,437.2627 z M 925.68551,443.01675 C 936.63314,444.48475 953.31436,453.98165 956.25092,477.43992 C 951.23909,477.26096 944.67323,472.66314 938.68046,468.65339 C 928.75529,462.01244 919.30311,460.80732 920.93749,458.44783 C 924.49154,457.50465 925.51331,455.16269 926.967,453.16929 C 932.86468,453.76309 936.50177,461.13572 941.86595,461.9359 C 938.85853,457.12032 926.96314,454.58396 925.68551,443.01675 z M 936.39286,441.42302 C 937.92567,441.91467 937.39897,442.43548 938.8549,442.97633 C 959.406,450.61045 975.53774,460.70556 1000.2303,461.75022 C 998.23526,441.24927 984.90208,436.94557 967.30368,438.73513 C 967.43096,442.02067 976.81267,444.24637 978.89519,447.47078 C 968.5594,445.47199 963.95657,436.7299 936.39286,441.42302 z M 914.21772,460.74226 C 918.72654,466.06206 925.73205,474.74172 926.31325,481.74143 C 907.82691,479.00465 902.90207,468.92208 898.25834,460.40628 L 914.21772,460.74226 z M 871.20443,398.38043 C 859.48603,405.43332 847.46153,410.80281 834.63384,411.75482 C 821.11943,416.71938 807.10261,420.89444 804.95938,443.728 C 807.72509,464.06014 822.92421,475.27445 833.17101,490.12046 C 843.45715,475.15872 831.82566,465.54534 822.30431,456.47548 C 832.05074,460.18277 841.23388,462.13483 848.21721,452.29598 C 845.17154,445.88253 836.13913,444.91159 827.11074,443.93698 C 835.1439,442.36227 844.13266,441.95553 847.38132,434.5331 C 842.99893,426.89665 835.15004,428.2731 828.15561,427.42795 C 835.78761,425.87388 844.31416,427.00346 849.88901,419.27793 C 847.81178,415.45379 844.94868,415.55899 842.36591,414.26253 C 846.49841,413.96808 849.84742,412.78317 853.44159,419.4869 C 851.3502,424.98337 849.10736,426.73939 845.91849,427.8459 C 854.23347,434.20314 848.60289,439.01087 842.15694,443.728 C 857.3842,448.56247 857.79391,460.61128 831.08126,462.53576 C 841.95183,468.30967 843.76796,490.72963 858.87494,491.37431 C 862.72343,478.17848 855.60751,471.6609 847.38131,465.04345 C 860.12873,466.58356 872.95714,468.30364 880.81731,458.98318 C 877.71334,450.94184 858.49442,452.53718 856.99417,449.37033 C 864.93534,447.28191 874.66076,448.1985 880.39936,438.92158 C 875.85905,431.03416 860.32873,431.89964 855.53134,429.93565 C 867.99386,428.51896 879.64195,426.63687 880.60838,418.651 C 880.18162,414.78216 872.08357,413.91346 865.98012,413.6356 C 890.03864,408.37585 887.82923,425.90636 871.20443,430.77155 C 886.07513,433.2678 888.02512,446.32491 867.86087,449.16135 C 891.27575,453.35336 889.71354,468.11009 858.24802,469.64091 C 861.94761,481.6671 868.97225,489.99946 881.23527,489.07559 C 884.64938,479.56744 873.70028,470.439 875.38398,468.59603 C 878.16757,466.93298 894.84801,487.60415 905.89429,486.56788 C 908.65974,473.55832 895.26465,466.60895 889.80323,456.68445 C 901.85738,455.76875 916.44265,460.54812 924.49308,450.62418 C 918.95176,438.59123 901.97771,441.50877 890.01224,437.87671 C 906.00019,434.87679 926.35485,436.7573 933.68801,424.08435 C 925.00644,416.32421 905.6811,420.17542 891.47504,418.44203 C 903.49531,414.82888 920.86301,417.2316 924.91103,404.64968 C 920.30064,398.4993 896.95284,399.20621 882.48913,399.63427 C 885.27596,397.19114 935.1583,391.52998 928.67263,410.50097 L 950.19702,406.53045 L 924.7021,415.09843 C 933.82184,424.43948 950.34422,417.26698 966.4971,410.91893 C 979.26545,405.52669 993.30718,400.51642 995.33567,391.9022 C 965.20009,382.85404 961.57828,403.24237 929.09058,398.79837 C 940.29022,397.34027 949.71995,394.82022 958.13809,391.69322 C 954.47591,382.60134 943.09203,384.44858 933.06104,384.3791 C 895.36098,374.16796 878.05295,381.90185 868.06981,396.0817 C 877.68208,391.96678 887.18319,386.96308 897.32633,387.09577 L 900.043,388.5586 C 889.61381,390.60803 879.43633,393.03494 871.20443,398.38043 z"
       id="path2428"
       style="fill:#ff0000;fill-opacity:1;fill-rule:evenodd;stroke:none;stroke-width:1px;stroke-linecap:butt;stroke-linejoin:miter;marker:none;marker-start:none;marker-mid:none;marker-end:none;stroke-miterlimit:4;stroke-dasharray:none;stroke-dashoffset:0;stroke-opacity:1;visibility:visible;display:inline;overflow:visible;enable-background:accumulate" />
    <g
       transform="matrix(0.7718462,0,0,0.7718462,91.423139,210.94995)"
       id="layer2" />
  </g>
</svg>
