<?xml version="1.0" encoding="UTF-8" standalone="no"?>
<!-- Created with Inkscape (http://www.inkscape.org/) -->

<svg
   xmlns:dc="http://purl.org/dc/elements/1.1/"
   xmlns:cc="http://creativecommons.org/ns#"
   xmlns:rdf="http://www.w3.org/1999/02/22-rdf-syntax-ns#"
   xmlns:svg="http://www.w3.org/2000/svg"
   xmlns="http://www.w3.org/2000/svg"
   xmlns:sodipodi="http://sodipodi.sourceforge.net/DTD/sodipodi-0.dtd"
   xmlns:inkscape="http://www.inkscape.org/namespaces/inkscape"
   version="1.0"
   width="480"
   height="300"
   id="svg2"
   inkscape:version="0.48.3.1 r9886"
   sodipodi:docname="Flag_of_Reformed_Government_of_the_Republic_of_China.svg">
  <metadata
     id="metadata15">
    <rdf:RDF>
      <cc:Work
         rdf:about="">
        <dc:format>image/svg+xml</dc:format>
        <dc:type
           rdf:resource="http://purl.org/dc/dcmitype/StillImage" />
        <dc:title />
      </cc:Work>
    </rdf:RDF>
  </metadata>
  <sodipodi:namedview
     pagecolor="#ffffff"
     bordercolor="#666666"
     borderopacity="1"
     objecttolerance="10"
     gridtolerance="10"
     guidetolerance="10"
     inkscape:pageopacity="0"
     inkscape:pageshadow="2"
     inkscape:window-width="1600"
     inkscape:window-height="848"
     id="namedview13"
     showgrid="false"
     inkscape:zoom="0.78666667"
     inkscape:cx="225"
     inkscape:cy="149.99999"
     inkscape:window-x="-8"
     inkscape:window-y="-8"
     inkscape:window-maximized="1"
     inkscape:current-layer="layer1"
     fit-margin-top="0"
     fit-margin-left="0"
     fit-margin-right="0"
     fit-margin-bottom="0" />
  <defs
     id="defs4" />
  <g
     transform="translate(-95.872857,-389.61071)"
     id="layer1">
    <path
       d="m 95.872857,629.6107 480.000003,0 0,60 -480.000003,0 0,-60 z"
       id="rect3174"
       style="fill:#000000"
       inkscape:connector-curvature="0" />
    <path
       d="m 95.872857,629.61069 480.000003,0 0,-60 -480.000003,0 0,60 z"
       id="rect3170"
       style="fill:#ffffff"
       inkscape:connector-curvature="0" />
    <path
       d="m 95.872857,509.61069 480.000003,0 0,60 -480.000003,0 0,-60 z"
       id="rect3172"
       style="fill:#08639c;fill-opacity:1"
       inkscape:connector-curvature="0" />
    <path
       d="m 95.872857,509.61068 480.000003,0 0,-60 -480.000003,0 0,60 z"
       id="rect3168"
       style="fill:#ffc500;fill-opacity:1"
       inkscape:connector-curvature="0" />
    <path
       d="m 95.872857,389.61071 480.000003,0 0,60.00001 -480.000003,0 0,-60.00001 z"
       id="rect2396"
       style="fill:#de2119;fill-opacity:1"
       inkscape:connector-curvature="0" />
    <g
       id="g2993"
       transform="translate(12.457628,0)">
      <path
         style="fill:#d10d0a;fill-opacity:1;fill-rule:evenodd;stroke:none"
         id="path3200"
         d="m 324.38561,571.48573 c 30.68182,0 47.21591,-17.89773 47.21591,-33.23864 0,-9.03409 -8.69318,-22.1591 -6.30682,-26.42046 -17.04546,15.68182 3.23864,16.70455 -21.13636,29.48864 13.80681,-11.93182 8.18181,-29.82955 13.80681,-36.81819 -8.18181,7.67046 -6.47727,17.89773 -15.51136,19.43182 9.71591,-15.17045 -0.85227,-22.67045 3.92045,-29.31818 -5.45454,2.72727 -3.57954,16.36364 -8.69318,19.77273 -5.11364,3.40909 -10.73864,-2.38636 -9.71591,-6.13637 1.36364,1.02273 12.10228,-2.89772 12.10228,-8.35227 0,-5.45454 -3.75,-14.48864 -0.85228,-17.04545 -7.84091,5.28409 2.55682,17.55682 -10.90909,24.71591 -16.53409,-14.48864 7.5,-16.875 -7.84091,-30.68182 6.13637,16.53409 -10.05682,21.30682 -0.34091,35.11364 -16.02273,-8.52273 -5.28409,-21.64773 -15.68182,-30.17046 2.04546,19.77273 -2.55682,28.97727 9.375,39.71591 -17.55682,-0.51136 -8.86363,-11.42045 -19.09091,-21.64773 5.11364,16.36364 -5.28409,31.19319 21.30682,45.85228 -25.56818,-7.15909 -17.05579,-27.04729 -35.61734,-41.02873 3.93707,8.85839 -0.0612,20.33418 -0.0612,31.27645 0,18.55626 13.02546,35.49092 44.03085,35.49092 z"
         inkscape:connector-curvature="0" />
      <path
         style="fill:#f9c300;fill-opacity:1;fill-rule:evenodd;stroke:none"
         id="path3206"
         d="m 312.7947,552.73573 c 0,-1.70455 -13.12501,-3.57955 -17.38637,-17.21592 -0.68182,6.30682 0.17045,8.18182 -1.53409,6.30682 -1.70455,-1.875 -6.81818,-10.56818 -6.81818,-14.82954 -4.60228,11.59091 3.40909,20.28409 8.18182,22.32954 -5.2841,-0.17045 -4.94319,1.19319 -4.26137,1.36364 0.68182,0.17046 21.81819,9.375 21.81819,2.04546 z m 3.75,16.70454 c 3.40909,0 5.96591,-4.09091 8.01136,-4.09091 2.04546,0 2.55682,-3.23863 -3.06818,-3.06818 -5.625,0.17046 -10.05682,0.17046 -12.10228,-2.04545 -2.04545,-2.21591 -8.86363,-0.17046 -8.86363,-0.17046 0,0 6.47727,7.67046 10.05682,7.67046 3.57954,0 4.60227,1.875 5.96591,1.70454 z m 16.875,-3.75 c 5.45454,-0.68182 22.5,-14.48864 24.71591,-14.48864 2.21591,0 -3.57955,12.44319 -8.18182,13.97728 -4.60227,1.53409 -10.56818,3.40909 -16.53409,0.51136 z m -18.75,-16.875 c 5.79545,0 13.125,0.17046 15.17045,-0.85227 2.04546,-1.02273 -6.13636,5.11363 -9.88636,5.11363 -3.75,0 -5.96591,-2.2159 -5.28409,-4.26136 z m 14.82954,-9.03409 c 1.19318,1.36364 3.57955,4.43182 8.69319,0.17045 5.11363,-4.26136 3.40909,-5.11363 3.40909,-5.11363 0,0 -6.81819,4.60227 -12.10228,4.94318 z m -11.93182,-6.13637 c -2.89772,-2.2159 -12.61363,-6.98863 -14.31818,-13.46591 -3.06818,2.21591 -2.04545,15.85228 14.31818,13.46591 z m 9.54546,-13.46591 c 4.26136,-0.3409 14.14773,-5.28409 16.02273,-12.27272 -1.70455,14.65909 -10.22728,14.31818 -16.02273,12.27272 z m 10.90909,8.69319 c 4.43182,-1.53409 14.14773,-8.35228 14.14773,-10.73864 0.51136,8.35227 -6.13636,12.61364 -14.14773,10.73864 z m -22.84091,-15.34091 c -3.75,-2.89773 -6.64773,-7.32955 -6.30682,-10.56819 -2.55682,5.11364 -2.04545,12.44319 6.30682,10.56819 z m 7.32955,-5.2841 c -3.23864,-3.40909 -2.21591,-7.32954 -1.36364,-9.88636 0.85227,-2.55682 -0.51136,4.77273 1.36364,9.88636 z"
         inkscape:connector-curvature="0" />
      <path
         inkscape:connector-curvature="0"
         d="m 245.28798,578.28976 c 0.64784,0 1.48516,0.41841 2.50912,1.25314 0.85305,0.60103 1.28066,1.1027 1.28066,1.50362 0,0.50098 -0.44405,0.88581 -1.33143,1.15239 -1.40007,0.26798 -3.55166,0.90259 -6.45334,1.90454 0.34108,0.16793 0.73364,0.36804 1.17769,0.60174 0.95531,0.60103 1.43368,1.20276 1.43368,1.80379 0,0.23439 -0.0686,0.50097 -0.20522,0.80184 -0.27387,0.73537 -0.49482,2.05498 -0.66572,3.95952 -0.0343,0.2337 -0.0508,0.4513 -0.0508,0.65141 0.40973,-0.0665 0.8359,-0.13294 1.28066,-0.20081 1.87701,-0.33375 2.95245,-0.50097 3.22632,-0.50097 0.58062,0 1.22917,0.16722 1.94637,0.50097 0.58062,0.33445 0.87093,0.685 0.87093,1.05233 0,0.26798 -0.3418,0.41841 -1.02467,0.4513 -1.98069,0.16792 -4.13157,0.4345 -6.45263,0.80184 -0.13657,1.47074 -0.23954,2.77356 -0.30747,3.90915 0.20522,0.0336 0.44333,0.0672 0.7172,0.10005 1.02467,0.30087 2.03074,0.63532 3.02181,1.00266 1.2971,0.56814 2.133,1.08591 2.50911,1.5533 0.34108,0.4345 0.51198,0.90259 0.51198,1.40357 0,0.40092 -0.10225,0.81863 -0.30747,1.25314 -0.20522,0.33445 -0.49553,0.50097 -0.87094,0.50097 -0.17089,0 -0.4276,-0.10075 -0.76796,-0.30086 -0.5463,-0.33375 -1.28066,-1.00195 -2.20236,-2.0046 -1.12692,-1.30282 -1.98069,-2.18792 -2.56132,-2.65601 -0.0343,0 -0.0686,-0.0168 -0.10225,-0.0504 -0.0343,1.10271 -0.0515,2.02209 -0.0515,2.75607 0,0.10005 -0.0343,4.51017 -0.10225,13.23037 0,0.86831 -0.23955,1.77021 -0.7172,2.70639 -0.3418,0.80184 -0.71648,1.20276 -1.12692,1.20276 -0.20522,0 -0.5463,-0.43451 -1.02467,-1.30282 -0.64927,-1.40357 -0.97319,-2.47199 -0.97319,-3.20736 0,-0.36734 0.11942,-0.95228 0.35824,-1.75412 0.30747,-0.86831 0.56346,-2.60633 0.76797,-5.21196 0.30747,-2.40552 0.51198,-5.1448 0.61494,-8.21852 -2.08294,2.97367 -3.99499,5.22946 -5.73614,6.76527 -1.57097,1.43716 -3.43154,2.6735 -5.58242,3.70834 -0.81945,0.40092 -1.55381,0.60103 -2.20236,0.60103 -0.27387,0 -0.40973,-0.0665 -0.40973,-0.20011 2.76582,-1.87096 5.25779,-4.09247 7.47731,-6.66522 2.04862,-2.20471 3.92635,-5.04404 5.63389,-8.51938 -1.98069,0.36804 -4.0808,0.80184 -6.2996,1.30282 -1.33143,0.40092 -2.20236,0.60173 -2.61209,0.60173 -0.5463,0 -1.40008,-0.233 -2.56061,-0.70179 -0.81945,-0.46739 -1.22917,-0.8851 -1.22917,-1.25314 0,-0.20081 0.34108,-0.33375 1.02467,-0.40092 2.76583,-0.26658 6.94745,-0.86831 12.54774,-1.80379 -0.0343,-2.37194 -0.15374,-4.04209 -0.35824,-5.01185 -0.13658,-0.93479 -0.35825,-1.65406 -0.66572,-2.15504 -0.0694,-0.13294 -0.12013,-0.25049 -0.15373,-0.35054 -0.0343,0 -0.0508,0.0168 -0.0508,0.0497 -2.56132,0.83542 -4.40472,1.25313 -5.53093,1.25313 -0.81945,0 -1.22917,-0.13294 -1.22917,-0.40092 0,-0.13294 0.35824,-0.31695 1.07544,-0.55135 1.70682,-0.60173 3.78977,-1.58689 6.24812,-2.95687 2.08223,-1.26924 3.72113,-2.472 4.91669,-3.60829 0.37612,-0.23369 0.63211,-0.35124 0.7694,-0.35124 z m 7.01609,13.93216 c 0.64784,0 1.22917,0.084 1.74115,0.25049 0.40973,0.13364 0.73364,0.26798 0.97319,0.40092 1.33142,-0.13294 2.79942,-0.35055 4.40472,-0.65141 2.0143,-0.43381 3.77261,-0.9026 5.27493,-1.40357 0.71649,-0.233 1.17769,-0.35055 1.38291,-0.35055 0.51198,0 1.29711,0.28408 2.3561,0.85152 1.22917,0.83543 1.84412,1.45325 1.84412,1.85417 0,0.2337 -0.17161,0.60103 -0.51198,1.10271 -0.51198,0.56814 -0.92242,1.36998 -1.22917,2.40552 -0.61423,1.80449 -1.29782,4.42762 -2.04863,7.86798 -0.0343,0.0336 -0.0515,0.0672 -0.0515,0.10005 0.10297,0.0672 0.18734,0.11755 0.25599,0.15043 0.68287,0.40092 1.02395,0.76896 1.02395,1.10271 0,0.20081 -0.13657,0.31836 -0.40972,0.35054 -1.19557,0 -2.28817,0.0672 -3.2778,0.20081 l -4.55846,0.50098 c -0.85377,0.10005 -1.51948,0.15043 -1.99714,0.15043 -0.20522,0 -0.39256,-0.0168 -0.56346,-0.0504 0,0.10006 0,0.18402 0,0.25049 0,0.50098 -0.0858,0.9026 -0.25598,1.20276 -0.1709,0.36804 -0.35825,0.55136 -0.56347,0.55136 -0.27315,0 -0.52985,-0.20011 -0.76796,-0.60103 -0.37612,-0.56815 -0.58062,-1.15239 -0.61423,-1.75412 l -0.56346,-5.01185 c -0.27315,-2.57205 -0.52986,-4.35975 -0.76797,-5.3624 -0.17089,-1.10271 -0.61423,-2.12145 -1.33142,-3.05693 -0.23883,-0.20081 -0.35825,-0.36734 -0.35825,-0.50098 -0.001,-0.36663 0.20379,-0.55065 0.61352,-0.55065 z m 4.50697,13.02956 c 2.0143,-0.16652 3.89203,-0.41701 5.63389,-0.75146 0.30748,-0.0665 0.57991,-0.11685 0.81945,-0.15043 0,-0.0329 0.0164,-0.0665 0.0508,-0.10076 0.44334,-1.47004 0.8359,-3.40747 1.17769,-5.813 0.40973,-2.17182 0.61423,-3.7916 0.61423,-4.86142 0,-0.53386 -0.59778,-0.80184 -1.79263,-0.80184 -0.47837,0 -1.8098,0.25049 -3.99428,0.75216 -1.6389,0.40093 -2.83447,0.685 -3.58527,0.85152 0,0.63532 0.0508,1.28673 0.15373,1.95423 0.47837,3.84338 0.78513,6.81634 0.92242,8.921 z"
         id="path23"
         style="stroke:#000000;stroke-width:1;stroke-opacity:1" />
      <path
         inkscape:connector-curvature="0"
         d="m 307.71916,577.5383 c 0.64784,0 1.46728,0.23439 2.45835,0.70178 0.61423,0.26798 0.9217,0.61852 0.9217,1.05233 0,0.26798 -0.37612,0.48488 -1.12692,0.65141 -0.95603,0.26798 -3.05613,0.60173 -6.29961,1.00265 -1.16124,0.13364 -2.21952,0.25049 -3.17555,0.35054 0.34108,0.10006 0.7172,0.2337 1.12693,0.40092 1.12692,0.43451 1.69038,0.93548 1.69038,1.50363 0,0.16792 -0.12013,0.56814 -0.35824,1.20276 -0.27387,1.43646 -0.4276,2.92399 -0.46121,4.4605 l -0.10225,8.2689 c 0.9217,-0.0665 1.87701,-0.11685 2.86807,-0.15043 4.78012,-0.40092 8.43261,-0.85222 10.96032,-1.3532 1.05756,-0.20011 1.69038,-0.30086 1.89488,-0.30086 0.23811,0 1.16053,0.28407 2.76582,0.85221 1.36575,0.70179 2.04863,1.33641 2.04863,1.90455 0,0.53456 -0.93958,0.80184 -2.81659,0.80184 h -8.24527 c -2.52699,0 -5.70253,0.11755 -9.52592,0.35055 l -0.0515,9.02035 c -0.0686,3.5754 -0.32463,6.7156 -0.76797,9.42198 -0.44404,1.67016 -0.85377,2.50558 -1.22917,2.50558 -0.34179,0 -0.59778,-0.58494 -0.76797,-1.75411 -0.13657,-2.10466 -0.20522,-4.96148 -0.20522,-8.56976 v -10.42393 c -0.2045,0 -0.39256,0.0168 -0.56346,0.0497 -3.75616,0.20081 -7.88702,0.76896 -12.39399,1.70444 -1.16124,0.26728 -1.91276,0.40092 -2.25384,0.40092 -0.61423,0 -1.51949,-0.233 -2.71434,-0.70179 -1.2635,-0.53386 -1.89489,-0.95227 -1.89489,-1.25313 0,-0.43381 0.40973,-0.6843 1.22918,-0.75147 4.74508,-0.0665 8.24597,-0.30086 10.4991,-0.70178 2.5606,-0.30087 5.25778,-0.56745 8.09153,-0.80184 v -11.22508 c 0,-1.47004 -0.13658,-2.68889 -0.40973,-3.65866 -0.13657,-0.46739 -0.20522,-0.75146 -0.20522,-0.85152 0,-0.0665 0,-0.11684 0,-0.15043 -2.15087,0.2337 -3.68752,0.35055 -4.60922,0.35055 -1.43368,0 -2.42474,-0.15044 -2.97033,-0.4513 -0.54629,-0.36734 -0.81944,-0.6843 -0.81944,-0.95228 0,-0.16652 0.61494,-0.30086 1.84411,-0.40092 2.7315,-0.23299 5.71899,-0.61782 8.96246,-1.15238 2.3561,-0.36734 4.23311,-0.75146 5.6339,-1.15238 0.47694,-0.13364 0.80086,-0.20081 0.97247,-0.20081 z m -19.4108,8.96998 c 0.47766,0 1.02395,0.16792 1.6389,0.50097 1.43368,0.63532 2.49196,1.3532 3.17483,2.15504 0.64855,0.86901 0.97319,2.07177 0.97319,3.60828 0,1.20276 -0.46121,1.80449 -1.38291,1.80449 -0.37612,0 -0.76869,-0.26728 -1.1777,-0.80184 -0.78584,-0.96836 -1.89488,-3.00655 -3.32928,-6.11386 -0.2045,-0.33375 -0.30747,-0.58424 -0.30747,-0.75146 0.0687,-0.26728 0.20594,-0.40162 0.41044,-0.40162 z m 23.40579,-2.9058 c 0.37469,0 1.07544,0.33445 2.10011,1.00195 1.12692,0.83543 1.68967,1.42036 1.68967,1.75411 0,0.4681 -0.20451,0.86902 -0.61423,1.20277 -1.70755,1.60368 -4.35324,3.69154 -7.93851,6.26429 -0.37611,0.2337 -0.71719,0.35054 -1.02467,0.35054 -0.13657,0 -0.20522,-0.0665 -0.20522,-0.20011 0,-0.0665 0.0851,-0.18332 0.25599,-0.35054 1.19485,-1.5701 2.18449,-3.1234 2.97033,-4.66061 1.0926,-1.73662 1.82624,-3.27384 2.20236,-4.61024 0.13657,-0.50237 0.32463,-0.75216 0.56417,-0.75216 z"
         id="path25"
         style="stroke:#000000;stroke-width:1;stroke-opacity:1" />
      <path
         inkscape:connector-curvature="0"
         d="m 363.13353,580.09355 c 0.64855,0 1.5531,0.38483 2.71434,1.15238 0.57991,0.33446 0.87022,0.66891 0.87022,1.00266 0,0.16722 -0.15374,0.55135 -0.46121,1.15238 -0.3418,0.70109 -0.59778,1.40287 -0.76797,2.10466 -0.0686,0.23369 -0.13657,0.45129 -0.20522,0.65141 0.44334,-0.0329 0.85306,-0.0833 1.22918,-0.15044 1.94637,-0.30086 3.15767,-0.4513 3.63604,-0.4513 0.17089,0 0.68287,0.15044 1.53664,0.4513 1.0926,0.56815 1.6389,1.00195 1.6389,1.30282 -0.0343,0.36803 -0.49553,0.56814 -1.38291,0.60173 -2.1852,0.0336 -4.59206,0.13364 -7.22131,0.30086 -0.47837,1.8038 -0.71719,2.73998 -0.71719,2.80645 -0.10226,0.30086 -0.20522,0.55135 -0.30748,0.75146 0.68288,0.43521 1.02467,0.76896 1.02467,1.00265 -0.0343,0.36804 -0.49553,0.56815 -1.38291,0.60103 -1.87772,0.0336 -4.02932,0.15044 -6.45334,0.35055 l -0.0508,3.5579 c 0.98963,-0.13294 1.96282,-0.30086 2.91956,-0.50097 0.98963,-0.16653 1.51877,-0.25049 1.58741,-0.25049 0.30747,0 0.93887,0.084 1.89489,0.25049 0.85306,0.26798 1.28066,0.50097 1.28066,0.70178 0,0.33445 -0.52986,0.60103 -1.58742,0.80184 -1.19556,0.16723 -2.21952,0.30087 -3.07329,0.40092 -0.51198,0.10076 -1.51949,0.25049 -3.02181,0.4513 l -0.0515,2.10466 c 0,0.46809 0,0.91939 0,1.35319 4.09724,-0.60103 6.77726,-1.00265 8.04075,-1.20276 0.61423,-0.13294 0.98964,-0.20011 1.12693,-0.20011 0.40972,0 1.10904,0.20011 2.1001,0.60103 0.98964,0.43451 1.48517,0.76896 1.48517,1.00265 0,0.36804 -0.30748,0.61852 -0.92171,0.75147 -0.37611,0.13364 -1.14479,0.20081 -2.30461,0.20081 -2.80014,0 -5.77047,0.18401 -8.91169,0.55135 -0.23883,0.0336 -0.47837,0.0672 -0.71648,0.10075 -0.10297,2.07178 -0.29031,3.94274 -0.56346,5.61219 -0.27387,1.23635 -0.52985,1.97172 -0.76797,2.20541 0.37541,0.13364 0.73365,0.2337 1.07544,0.30087 3.58527,0.83542 7.10118,1.36998 10.55059,1.60368 l 7.4773,0.25049 c 0.98963,0 1.48516,0.11754 1.48516,0.35054 0,0.23369 -0.46121,0.50097 -1.38291,0.80184 -2.1852,0.86831 -4.59206,1.73662 -7.22131,2.60633 -2.01501,0.73467 -3.55166,1.10271 -4.60922,1.10271 -1.19557,0 -2.97033,-0.60103 -5.32642,-1.80449 -6.89739,-3.84128 -12.75224,-6.9325 -17.56668,-9.27085 -0.20522,0.30086 -0.39328,0.56815 -0.56346,0.80184 -1.16125,1.63727 -2.73222,3.09052 -4.71148,4.35975 -2.08295,1.47074 -3.56811,2.20471 -4.45549,2.20471 -0.23883,0 -0.35824,-0.0665 -0.35824,-0.20081 0,-0.0665 0.15374,-0.16653 0.46121,-0.30087 1.36503,-0.96836 2.95245,-2.48878 4.76296,-4.56055 0.9217,-1.06912 1.74115,-2.20541 2.45835,-3.40818 -1.33143,-0.56814 -2.66357,-0.8851 -3.995,-0.95227 h -1.69038 c -0.37612,0 -0.70004,-0.10005 -0.97319,-0.30086 -0.30747,-0.233 -0.4612,-0.4513 -0.4612,-0.65141 0,-0.233 0.15373,-0.38343 0.4612,-0.4513 0.27315,0 0.66572,-0.0504 1.1777,-0.15043 0.64855,-0.13294 1.43367,-0.20081 2.35609,-0.20081 1.05756,0 2.38899,0.31765 3.99428,0.95227 0.27315,-0.53386 0.51198,-1.08521 0.7172,-1.65406 1.02467,-2.37194 1.53593,-4.15964 1.53593,-5.3624 0,-0.26728 -0.13658,-0.40092 -0.40973,-0.40092 -0.64926,0 -1.53664,0.15044 -2.66356,0.4513 -1.16125,0.46809 -1.87773,0.70179 -2.15088,0.70179 -0.27315,0 -0.51198,-0.18332 -0.71648,-0.55136 -0.30747,-0.53456 -0.46121,-1.00265 -0.46121,-1.40357 0,-0.26658 0.18734,-0.65141 0.56346,-1.15238 0.85306,-0.80184 1.62174,-1.77021 2.30461,-2.9065 l 2.04863,-4.0092 c 0.30747,-0.6682 0.46121,-1.16918 0.46121,-1.50363 0,-0.26658 -0.13658,-0.40092 -0.40973,-0.40092 -0.20522,0 -0.803,0.11685 -1.79263,0.35054 -2.527,0.56815 -4.06364,0.85222 -4.60923,0.85222 -0.51198,0 -1.02395,-0.10005 -1.53593,-0.30086 -0.30747,-0.16653 -0.46121,-0.33376 -0.46121,-0.50098 0,-0.16653 0.35824,-0.28337 1.07544,-0.35054 2.79943,-0.60103 5.22417,-1.33571 7.27279,-2.20472 0.78513,-0.36733 1.33143,-0.55135 1.6389,-0.55135 0.5463,0 1.34859,0.31766 2.40758,0.95227 0.68287,0.53457 1.02395,0.91869 1.02395,1.15239 0,0.4345 -0.23882,0.90259 -0.71648,1.40357 -1.26349,1.20276 -2.18591,2.25509 -2.76582,3.15699 -2.21952,3.341 -3.32928,5.16158 -3.32928,5.46245 0,0.13364 0.13586,0.20011 0.40973,0.20011 0.44333,0 1.50232,-0.233 3.17483,-0.70109 0.64855,-0.20081 1.12692,-0.30086 1.43367,-0.30086 0.34108,0 0.83662,0.26798 1.48517,0.80184 0.47765,0.33445 0.71719,0.65141 0.71719,0.95227 0,0.2337 -0.10225,0.51847 -0.30747,0.85152 -0.40972,0.50098 -0.75152,1.10271 -1.02467,1.80449 -0.85377,2.57345 -1.67322,4.66061 -2.45835,6.2643 5.90633,2.70638 10.55059,4.59414 13.93064,5.66326 -0.13657,-0.30087 -0.25598,-0.71788 -0.35824,-1.25314 -0.10225,-1.5701 -0.17089,-3.60828 -0.20522,-6.11386 -2.49267,0.33445 -4.26814,0.61852 -5.32642,0.85152 -0.47837,0.10075 -0.83661,0.15043 -1.07544,0.15043 -0.30747,0 -0.85377,-0.20011 -1.63889,-0.60103 -0.64927,-0.30087 -0.97319,-0.55135 -0.97319,-0.75146 0,-0.20011 0.27243,-0.33375 0.81945,-0.40092 2.42403,-0.26658 5.15481,-0.60103 8.19378,-1.00196 0,-0.0665 0,-0.11684 0,-0.15043 v -3.30812 c -0.10225,0 -0.18806,0 -0.25599,0 -1.74115,0.2344 -2.9882,0.35055 -3.73901,0.35055 -0.68359,0 -1.21272,-0.0833 -1.58741,-0.25049 -0.68359,-0.233 -1.02467,-0.46739 -1.02467,-0.70179 0,-0.33375 0.54558,-0.53386 1.6389,-0.60103 1.6725,-0.16652 3.32856,-0.36733 4.96746,-0.60103 v -3.65866 c -0.9217,0.10076 -1.96353,0.2344 -3.12406,0.40092 -0.47837,0.10006 -0.76868,0.15043 -0.87093,0.15043 -0.61423,0 -1.24705,-0.16652 -1.89489,-0.50097 -0.75152,-0.30087 -1.12692,-0.60103 -1.12692,-0.9019 0,-0.0665 0.27315,-0.13294 0.81945,-0.20081 2.25384,-0.26728 4.31891,-0.51777 6.19735,-0.75146 v -3.05693 c -1.50304,0.20081 -3.15838,0.41841 -4.96746,0.65141 -0.8881,0.16722 -1.43368,0.25048 -1.6389,0.25048 -0.64927,0 -1.31498,-0.16652 -1.99714,-0.50097 -0.78584,-0.30087 -1.17769,-0.60103 -1.17769,-0.9019 0,-0.10005 0.25599,-0.2169 0.76868,-0.35054 3.24348,-0.30087 6.24812,-0.60103 9.01323,-0.9019 v -3.95952 c -2.52699,0.36803 -4.18305,0.55135 -4.96747,0.55135 -0.64926,0 -1.16124,-0.10005 -1.53664,-0.30086 -0.3418,-0.13295 -0.51198,-0.30087 -0.51198,-0.50098 0,-0.36734 0.51198,-0.58424 1.53665,-0.65141 1.26278,-0.0665 3.08974,-0.28337 5.48015,-0.65141 v -1.25244 c 0,-1.30281 -0.11941,-2.40552 -0.35824,-3.30741 -0.17161,-0.40092 -0.25599,-0.6682 -0.25599,-0.80185 0,-0.30086 0.27315,-0.48418 0.81945,-0.55135 0.34108,0 1.0068,0.18402 1.99714,0.55135 0.92171,0.40093 1.38291,0.86902 1.38291,1.40288 0,0.16722 -0.10225,0.53456 -0.30747,1.1027 -0.13657,0.76896 -0.23883,1.55331 -0.30747,2.35515 1.12692,-0.20011 2.35609,-0.43381 3.68752,-0.70109 1.19628,-0.40092 1.9807,-0.60173 2.35681,-0.60173 z m -6.19664,8.77057 -0.0515,2.95688 c 1.02467,-0.16653 1.97998,-0.31696 2.86807,-0.4513 0.7172,-0.13294 1.24634,-0.233 1.58742,-0.30087 0,-0.0665 0,-0.15043 0,-0.25048 0,-0.0665 0.0336,-0.28338 0.10296,-0.65141 0.13586,-0.46739 0.27244,-1.05233 0.40973,-1.75412 -0.75152,0.0679 -1.51949,0.13364 -2.30461,0.20081 -0.81945,0.0672 -1.69039,0.14974 -2.61209,0.25049 z m 0.0515,-5.86337 c 0,0.0672 0,0.13364 0,0.20081 l -0.0515,3.90915 c 1.84412,-0.20081 3.58527,-0.38343 5.22417,-0.55136 0,-0.10005 0.0164,-0.20081 0.0515,-0.30086 0.20522,-1.10271 0.30747,-2.05498 0.30747,-2.85682 0,-0.6682 -0.39257,-1.00265 -1.17769,-1.00265 -0.75152,0 -2.04863,0.18402 -3.89203,0.55135 -0.17233,0 -0.32606,0.0175 -0.46192,0.0504 z"
         id="path27"
         style="stroke:#000000;stroke-width:1;stroke-opacity:1" />
      <path
         inkscape:connector-curvature="0"
         d="m 387.15355,581.24663 c 0.85306,0 1.5531,0.15044 2.10011,0.4513 0.0679,0.0679 0.13586,0.11755 0.20522,0.15044 6.89668,-0.40093 13.55452,-0.95228 19.97355,-1.65336 1.43439,-0.13294 2.76582,-0.36734 3.99499,-0.70179 0.98963,-0.26658 1.62102,-0.40092 1.89489,-0.40092 0.85305,0 2.11655,0.53456 3.78977,1.60368 0.95531,0.63532 1.43368,1.15239 1.43368,1.55331 0,0.26798 -0.15373,0.63531 -0.46121,1.1027 -0.47837,1.10271 -0.71648,3.27453 -0.71648,6.51478 0,7.01646 0.13586,12.24522 0.40973,15.68558 0.10225,2.60633 0.15373,5.32951 0.15373,8.16884 0,1.30281 -0.29031,2.47199 -0.87093,3.50823 -0.58062,0.93478 -1.14408,1.40357 -1.68967,1.40357 -0.30747,0 -0.59778,-0.25049 -0.87093,-0.75217 -0.51198,-1.23634 -1.17769,-2.48878 -1.99714,-3.75871 -2.69718,0 -5.15553,0.084 -7.37505,0.25049 l -11.77976,0.55135 c -2.1852,0.13364 -3.85842,0.20081 -5.01895,0.20081 -0.40972,0 -0.76797,-0.0329 -1.07544,-0.10146 0,0.13364 -0.0179,0.2337 -0.0515,0.30087 -0.1709,1.43646 -0.46121,2.15503 -0.87094,2.15503 -0.44404,0 -0.88809,-0.40092 -1.33142,-1.20276 -0.58062,-0.93478 -0.87093,-1.90454 -0.87093,-2.90649 0,-0.63392 0.0851,-1.23565 0.25598,-1.8038 0.30748,-1.60368 0.58063,-3.95952 0.81945,-7.06613 0.23812,-2.97367 0.35824,-7.98482 0.35824,-15.03417 0,-3.07372 -0.30747,-5.27843 -0.9217,-6.61553 -0.20522,-0.43381 -0.30747,-0.76826 -0.30747,-1.00265 7.2e-4,-0.40092 0.27315,-0.60104 0.82016,-0.60104 z m 2.25313,31.67202 c 6.24813,-0.16653 12.03576,-0.43381 17.36218,-0.80184 3.17483,-0.233 5.24061,-0.35055 6.19735,-0.35055 0.51198,0 1.31355,0.25049 2.40687,0.75217 0.23811,0.13364 0.44333,0.28407 0.61423,0.45129 0.17018,-0.10005 0.28959,-0.45129 0.35824,-1.05232 0.13586,-1.40358 0.20522,-5.32882 0.20522,-11.77713 0,-5.01185 -0.20522,-9.85508 -0.61423,-14.53319 -0.13658,-1.77021 -0.44405,-2.9065 -0.92242,-3.40817 -0.34179,-0.233 -0.90526,-0.35054 -1.68967,-0.35054 -3.14194,0 -6.43618,0.16792 -9.88487,0.50097 -4.57562,0.40092 -7.92135,0.78575 -10.03862,1.15238 -1.12692,0.20081 -2.08294,0.30087 -2.86807,0.30087 -0.13658,0 -0.27387,-0.0161 -0.40973,-0.0497 -0.17018,14.90053 -0.409,24.62267 -0.71648,29.16574 z m 13.52092,-9.57172 c 0.13586,0 0.20522,0.13365 0.20522,0.40093 0,0.10005 -0.10225,0.20011 -0.30747,0.30086 -0.95603,0.56815 -2.42474,1.3364 -4.40472,2.30477 -1.059,0.53526 -2.30462,1.22025 -3.73901,2.05498 -0.23954,0.16792 -0.4276,0.25049 -0.56346,0.25049 -0.51198,0 -1.19557,-0.33375 -2.04862,-1.00266 -0.61495,-0.56814 -0.92242,-1.01874 -0.92242,-1.35319 0,-0.0329 0.0851,-0.0665 0.25599,-0.10075 0.51197,-0.0329 1.02395,-0.11685 1.53593,-0.25049 1.94637,-0.43381 4.83089,-1.18527 8.65499,-2.25509 0.75295,-0.2323 1.19699,-0.34985 1.33357,-0.34985 z m -10.80658,-8.21851 c 0.51198,0 0.95531,0.084 1.33143,0.25048 0.13586,0.0336 0.25598,0.0672 0.35824,0.10006 0.81945,-0.10006 1.53593,-0.2169 2.15087,-0.35054 0.78513,-0.20011 1.5531,-0.50098 2.30462,-0.9019 0.30747,-0.16652 0.52913,-0.25049 0.66571,-0.25049 0.44333,0 1.19414,0.25049 2.25313,0.75147 0.51197,0.30086 0.76796,0.63531 0.76796,1.00265 0,0.26798 -0.12013,0.53456 -0.35824,0.80184 -0.30747,0.40092 -0.56346,0.95227 -0.76796,1.65336 l -0.61423,2.0046 c 0.47765,0.30086 0.71648,0.58494 0.71648,0.85222 0,0.16722 -0.0686,0.26728 -0.20451,0.30086 -0.61494,0 -1.19556,0.0672 -1.74186,0.20011 l -2.40687,0.50098 c -0.44404,0.10075 -0.78584,0.15043 -1.02467,0.15043 -0.17089,0 -0.32463,0 -0.4612,0 -0.0343,0.16793 -0.0858,0.31836 -0.15374,0.4513 -0.10225,0.23369 -0.23883,0.35054 -0.40973,0.35054 -0.20522,0 -0.39327,-0.13294 -0.56346,-0.40092 -0.27386,-0.40092 -0.40972,-0.80184 -0.40972,-1.20276 l -0.40973,-2.10466 c -0.17161,-1.06842 -0.34179,-1.82058 -0.51197,-2.25509 -0.10226,-0.46739 -0.37612,-0.90259 -0.81945,-1.30281 -0.1709,-0.10076 -0.25599,-0.16653 -0.25599,-0.20081 0.002,-0.26728 0.18877,-0.40092 0.56489,-0.40092 z m 14.23811,-7.01646 c 0.27315,0 0.85306,0.084 1.74115,0.25049 0.81945,0.26798 1.22918,0.50097 1.22918,0.70108 0,0.36804 -0.46121,0.63532 -1.38291,0.80184 -1.19557,0.20081 -2.21952,0.36804 -3.07258,0.50098 l -0.0508,0.0504 c 0.13586,0.53456 0.27244,1.08591 0.40973,1.65406 0.71719,2.33905 1.53664,4.41012 2.45834,6.21391 0.0679,-0.16652 0.11942,-0.31696 0.15374,-0.4513 0.61423,-1.53651 0.9217,-2.95687 0.9217,-4.25969 l -0.2045,-0.95227 c 0,-0.40092 0.18734,-0.60103 0.56346,-0.60103 0.58062,0 1.2971,0.25049 2.15087,0.75146 0.7172,0.40092 1.07544,0.86901 1.07544,1.40287 0,0.20081 -0.0694,0.41842 -0.20522,0.65141 -0.61423,1.00265 -1.02467,1.72123 -1.22917,2.15504 -0.58062,1.43715 -1.17769,2.75606 -1.79264,3.95882 0.68288,1.13629 1.53665,2.239 2.56132,3.30742 0.44333,0.46809 0.80157,0.70179 1.07544,0.70179 0.13586,0 0.30747,-0.46739 0.51197,-1.40287 l 0.40973,-2.05498 c 0.0679,-0.30087 0.15373,-0.4513 0.25599,-0.4513 0.17018,0 0.27243,0.20011 0.30747,0.60103 0.20522,2.80644 0.61423,4.81104 1.22917,6.01381 0.30748,0.53526 0.46121,0.93548 0.46121,1.20276 0,0.50097 -0.25599,0.75146 -0.76868,0.75146 -0.5463,0 -1.3493,-0.30087 -2.40686,-0.9019 -1.16125,-0.83472 -2.15088,-1.82058 -2.97033,-2.95687 -0.64927,-0.86831 -1.28066,-1.787 -1.89489,-2.75607 -0.23954,0.36804 -0.49553,0.73537 -0.76868,1.10271 -1.60529,2.30547 -3.44869,4.0092 -5.53092,5.11191 -0.99035,0.53526 -1.67322,0.80184 -2.04863,0.80184 -0.13657,0 -0.20522,-0.0665 -0.20522,-0.20011 2.11656,-1.90455 3.89203,-3.87556 5.32642,-5.91375 0.7172,-0.9026 1.36575,-1.95423 1.94638,-3.15769 -0.27387,-0.46739 -0.52986,-0.95227 -0.76868,-1.45325 -0.99035,-2.13754 -2.03147,-4.97757 -3.12407,-8.51938 -0.99034,0.16723 -2.271,0.36804 -3.84125,0.60103 -1.74116,0.30087 -2.98821,0.4513 -3.73901,0.4513 -0.61423,0 -1.10976,-0.0665 -1.48516,-0.20081 -0.61423,-0.20011 -0.92242,-0.40092 -0.92242,-0.60103 0,-0.30087 0.46121,-0.48349 1.38291,-0.55135 2.76582,-0.36734 5.46228,-0.83473 8.09224,-1.40358 -0.23954,-0.90189 -0.49553,-1.82058 -0.76868,-2.75606 -0.20522,-0.86831 -0.49553,-1.50363 -0.87022,-1.90455 -0.27386,-0.26728 -0.40972,-0.53456 -0.40972,-0.80184 0,-0.26728 0.25599,-0.40092 0.76796,-0.40092 0.81945,0 1.67251,0.16793 2.56132,0.50098 0.44333,0.13364 0.66571,0.55135 0.66571,1.25313 0,1.16988 0.10226,2.37264 0.30748,3.60829 0.10225,-0.0329 0.2045,-0.0665 0.30747,-0.10076 0.98963,-0.23089 1.51877,-0.34844 1.58741,-0.34844 z m -11.26707,12.57896 c 0.85306,-0.16652 1.6389,-0.40092 2.3561,-0.70178 0.34108,-0.13294 0.59635,-0.233 0.76796,-0.30087 0.10225,-0.6682 0.17018,-1.26923 0.20522,-1.80449 0.0679,-0.60103 0.10225,-1.1188 0.10225,-1.5533 0,-0.26728 -0.18805,-0.40092 -0.56346,-0.40092 -0.34179,0 -0.803,0.10075 -1.38291,0.30086 -0.81945,0.2337 -1.43368,0.38413 -1.84412,0.4513 0.0336,0.2337 0.0515,0.4513 0.0515,0.65141 0.17018,1.40357 0.27315,2.52307 0.30747,3.35779 z m 13.26421,-16.48741 c 0.40973,0 0.87094,0.0672 1.38291,0.20081 1.26278,0.30087 2.1852,0.63462 2.76582,1.00195 0.54559,0.40092 0.81945,0.96977 0.81945,1.70444 0,1.03553 -0.39328,1.5533 -1.17769,1.5533 -0.34179,0 -0.68359,-0.15043 -1.02467,-0.4513 -0.71719,-0.53386 -1.69038,-1.67015 -2.91955,-3.40817 -0.17162,-0.20081 -0.25599,-0.33445 -0.25599,-0.40092 0.0343,-0.13294 0.17089,-0.20011 0.40972,-0.20011 z"
         id="path29"
         style="stroke:#000000;stroke-width:1;stroke-opacity:1" />
    </g>
  </g>
</svg>
