<svg xmlns="http://www.w3.org/2000/svg" width="1750" height="1168.5">
  <path style="opacity:1;fill:#fff;fill-opacity:1;fill-rule:evenodd;stroke:none" d="M-153.79555-717.51233h1750v1168.5h-1750z" transform="translate(153.79555 717.51231)"/>
  <g style="display:inline">
    <path d="M-677.03085 9.87064c4.17511 5.17924-7.50003 7.24031-1.20538 12.14267 2.68457 1.66458 8.9556-1.93881 3.44649-6.36743-.71182-.37916 2.47786-2.99735-2.24111-5.77524zM-670.0662 22.14958c-1.04447.09831-2.05108.74291-3.00147 2.38762-1.19195 2.75738 4.0496 7.53981 7.57704 1.66042.2496-.71754 3.75085 1.58046 5.68784-3.23414-3.32064 3.48835-6.71691-.67575-9.80026-.81385-.15082-.0068-.31395-.01409-.46315-.00005zM-682.97894 22.19914c-3.08341.13753-6.48049 4.31788-9.80042.82889 1.93603 4.81497 5.47482 2.51766 5.72427 3.23524 3.5263 5.88008 8.73172 1.09866 7.54031-1.65895-1.0858-1.87987-2.25763-2.45899-3.46416-2.40518zM-676.03196 25.55305c-2.71644 12.33688-7.76823 21.07047-13.26738 27.34961 2.28573-.62659 4.87078-2.40334 7.35527-3.96221-1.51963 3.23498-3.05724 6.03621-4.57682 8.89072.90717-.30742 3.79757-3.19007 7.7076-7.41702.61237 5.81162 1.4474 8.55797 2.68508 12.49868.98603-3.9342 1.7009-6.62089 2.48373-12.5998 2.35674 2.67392 4.62843 5.36182 7.8173 7.65562l-4.46391-9.19642c2.31172 1.47797 4.88441 3.40979 7.33595 4.23459-5.81218-6.59359-10.73107-15.11508-13.07682-27.45377z" style="fill:#000;fill-opacity:1;fill-rule:evenodd;stroke:none;display:inline" transform="matrix(4.7495 0 0 4.7495 3469.69875 194.75808)"/>
  </g>
  <g style="display:inline">
    <path d="M-677.03085 9.87064c4.17511 5.17924-7.50003 7.24031-1.20538 12.14267 2.68457 1.66458 8.9556-1.93881 3.44649-6.36743-.71182-.37916 2.47786-2.99735-2.24111-5.77524zM-670.0662 22.14958c-1.04447.09831-2.05108.74291-3.00147 2.38762-1.19195 2.75738 4.0496 7.53981 7.57704 1.66042.2496-.71754 3.75085 1.58046 5.68784-3.23414-3.32064 3.48835-6.71691-.67575-9.80026-.81385-.15082-.0068-.31395-.01409-.46315-.00005zM-682.97894 22.19914c-3.08341.13753-6.48049 4.31788-9.80042.82889 1.93603 4.81497 5.47482 2.51766 5.72427 3.23524 3.5263 5.88008 8.73172 1.09866 7.54031-1.65895-1.0858-1.87987-2.25763-2.45899-3.46416-2.40518zM-676.03196 25.55305c-2.71644 12.33688-7.76823 21.07047-13.26738 27.34961 2.28573-.62659 4.87078-2.40334 7.35527-3.96221-1.51963 3.23498-3.05724 6.03621-4.57682 8.89072.90717-.30742 3.79757-3.19007 7.7076-7.41702.61237 5.81162 1.4474 8.55797 2.68508 12.49868.98603-3.9342 1.7009-6.62089 2.48373-12.5998 2.35674 2.67392 4.62843 5.36182 7.8173 7.65562l-4.46391-9.19642c2.31172 1.47797 4.88441 3.40979 7.33595 4.23459-5.81218-6.59359-10.73107-15.11508-13.07682-27.45377z" style="fill:#000;fill-opacity:1;fill-rule:evenodd;stroke:none;display:inline" transform="matrix(4.7495 0 0 4.7495 3469.69875 628.049227)"/>
  </g>
  <g style="display:inline">
    <path d="M-616.4605 22.19914c-3.08341.13753-6.48049 4.31788-9.80042.82889 1.93603 4.81497 5.47482 2.51766 5.72427 3.23524 3.5263 5.88008 8.73172 1.09866 7.54031-1.65895-1.0858-1.87987-2.25763-2.45899-3.46416-2.40518zM-610.51241 9.87064c4.17511 5.17924-7.50003 7.24031-1.20538 12.14267 2.68457 1.66458 8.9556-1.93881 3.44649-6.36743-.71182-.37916 2.47786-2.99735-2.24111-5.77524zM-603.54776 22.14958c-1.04447.09831-2.05108.74291-3.00147 2.38762-1.19195 2.75738 4.0496 7.53981 7.57704 1.66042.2496-.71754 3.75085 1.58046 5.68784-3.23414-3.32064 3.48835-6.71691-.67575-9.80026-.81385-.15082-.0068-.31395-.01409-.46315-.00005zM-609.51352 25.55305c-2.71644 12.33688-7.76823 21.07047-13.26738 27.34961 2.28573-.62659 4.87078-2.40334 7.35527-3.96221-1.51963 3.23498-3.05724 6.03621-4.57682 8.89072.90717-.30742 3.79757-3.19007 7.7076-7.41702.61237 5.81162 1.4474 8.55797 2.68508 12.49868.98603-3.9342 1.7009-6.62089 2.48373-12.5998 2.35674 2.67392 4.62843 5.36182 7.8173 7.65562l-4.46391-9.19642c2.31172 1.47797 4.88441 3.40979 7.33595 4.23459-5.81218-6.59359-10.73107-15.11508-13.07682-27.45377z" style="fill:#000;fill-opacity:1;fill-rule:evenodd;stroke:none;display:inline" transform="matrix(4.7495 0 0 4.7495 3462.44455 194.75808)"/>
  </g>
  <g style="display:inline">
    <path d="M-616.4605 22.19914c-3.08341.13753-6.48049 4.31788-9.80042.82889 1.93603 4.81497 5.47482 2.51766 5.72427 3.23524 3.5263 5.88008 8.73172 1.09866 7.54031-1.65895-1.0858-1.87987-2.25763-2.45899-3.46416-2.40518zM-610.51241 9.87064c4.17511 5.17924-7.50003 7.24031-1.20538 12.14267 2.68457 1.66458 8.9556-1.93881 3.44649-6.36743-.71182-.37916 2.47786-2.99735-2.24111-5.77524zM-603.54776 22.14958c-1.04447.09831-2.05108.74291-3.00147 2.38762-1.19195 2.75738 4.0496 7.53981 7.57704 1.66042.2496-.71754 3.75085 1.58046 5.68784-3.23414-3.32064 3.48835-6.71691-.67575-9.80026-.81385-.15082-.0068-.31395-.01409-.46315-.00005zM-609.51352 25.55305c-2.71644 12.33688-7.76823 21.07047-13.26738 27.34961 2.28573-.62659 4.87078-2.40334 7.35527-3.96221-1.51963 3.23498-3.05724 6.03621-4.57682 8.89072.90717-.30742 3.79757-3.19007 7.7076-7.41702.61237 5.81162 1.4474 8.55797 2.68508 12.49868.98603-3.9342 1.7009-6.62089 2.48373-12.5998 2.35674 2.67392 4.62843 5.36182 7.8173 7.65562l-4.46391-9.19642c2.31172 1.47797 4.88441 3.40979 7.33595 4.23459-5.81218-6.59359-10.73107-15.11508-13.07682-27.45377z" style="fill:#000;fill-opacity:1;fill-rule:evenodd;stroke:none;display:inline" transform="matrix(4.7495 0 0 4.7495 3462.44455 628.049227)"/>
  </g>
  <g style="display:inline">
    <path d="M-549.76978 19.66383c4.17511 5.17924-7.50003 7.24031-1.20538 12.14267 2.68457 1.66458 8.9556-1.93881 3.44649-6.36743-.71182-.37916 2.47786-2.99735-2.24111-5.77524zM-542.80513 31.94277c-1.04447.09831-2.05108.74291-3.00147 2.38762-1.19195 2.75738 4.0496 7.53981 7.57704 1.66042.2496-.71754 3.75085 1.58046 5.68784-3.23414-3.32064 3.48835-6.71691-.67575-9.80026-.81385-.15082-.0068-.31395-.01409-.46315-.00005zM-555.71787 31.99233c-3.08341.13753-6.48049 4.31788-9.80042.82889 1.93603 4.81497 5.47482 2.51766 5.72427 3.23524 3.5263 5.88008 8.73172 1.09866 7.54031-1.65895-1.0858-1.87987-2.25763-2.45899-3.46416-2.40518zM-548.77089 35.34624c-2.71644 12.33688-7.76823 21.07047-13.26738 27.34961 2.28573-.62659 4.87078-2.40334 7.35527-3.96221-1.51963 3.23498-3.05724 6.03621-4.57682 8.89072.90717-.30742 3.79757-3.19007 7.7076-7.41702.61237 5.81162 1.4474 8.55797 2.68508 12.49868.98603-3.9342 1.7009-6.62089 2.48373-12.5998 2.35674 2.67392 4.62843 5.36182 7.8173 7.65562l-4.46391-9.19642c2.31172 1.47797 4.88441 3.40979 7.33595 4.23459-5.81218-6.59359-10.73107-15.11508-13.07682-27.45377z" style="fill:#000;fill-opacity:1;fill-rule:evenodd;stroke:none;display:inline" transform="matrix(4.7495 0 0 4.7495 3482.62245 148.24526)"/>
  </g>
  <g style="display:inline">
    <path d="M-549.76978 19.66383c4.17511 5.17924-7.50003 7.24031-1.20538 12.14267 2.68457 1.66458 8.9556-1.93881 3.44649-6.36743-.71182-.37916 2.47786-2.99735-2.24111-5.77524zM-542.80513 31.94277c-1.04447.09831-2.05108.74291-3.00147 2.38762-1.19195 2.75738 4.0496 7.53981 7.57704 1.66042.2496-.71754 3.75085 1.58046 5.68784-3.23414-3.32064 3.48835-6.71691-.67575-9.80026-.81385-.15082-.0068-.31395-.01409-.46315-.00005zM-555.71787 31.99233c-3.08341.13753-6.48049 4.31788-9.80042.82889 1.93603 4.81497 5.47482 2.51766 5.72427 3.23524 3.5263 5.88008 8.73172 1.09866 7.54031-1.65895-1.0858-1.87987-2.25763-2.45899-3.46416-2.40518zM-548.77089 35.34624c-2.71644 12.33688-7.76823 21.07047-13.26738 27.34961 2.28573-.62659 4.87078-2.40334 7.35527-3.96221-1.51963 3.23498-3.05724 6.03621-4.57682 8.89072.90717-.30742 3.79757-3.19007 7.7076-7.41702.61237 5.81162 1.4474 8.55797 2.68508 12.49868.98603-3.9342 1.7009-6.62089 2.48373-12.5998 2.35674 2.67392 4.62843 5.36182 7.8173 7.65562l-4.46391-9.19642c2.31172 1.47797 4.88441 3.40979 7.33595 4.23459-5.81218-6.59359-10.73107-15.11508-13.07682-27.45377z" style="fill:#000;fill-opacity:1;fill-rule:evenodd;stroke:none;display:inline" transform="matrix(4.7495 0 0 4.7495 3482.62245 581.53639)"/>
  </g>
  <g style="display:inline">
    <path d="M-483.25134 19.66383c4.17511 5.17924-7.50003 7.24031-1.20538 12.14267 2.68457 1.66458 8.9556-1.93881 3.44649-6.36743-.71182-.37916 2.47786-2.99735-2.24111-5.77524zM-476.28669 31.94277c-1.04447.09831-2.05108.74291-3.00147 2.38762-1.19195 2.75738 4.0496 7.53981 7.57704 1.66042.2496-.71754 3.75085 1.58046 5.68784-3.23414-3.32064 3.48835-6.71691-.67575-9.80026-.81385-.15082-.0068-.31395-.01409-.46315-.00005zM-489.19943 31.99233c-3.08341.13753-6.48049 4.31788-9.80042.82889 1.93603 4.81497 5.47482 2.51766 5.72427 3.23524 3.5263 5.88008 8.73172 1.09866 7.54031-1.65895-1.0858-1.87987-2.25763-2.45899-3.46416-2.40518zM-482.25245 35.34624c-2.71644 12.33688-7.76823 21.07047-13.26738 27.34961 2.28573-.62659 4.87078-2.40334 7.35527-3.96221-1.51963 3.23498-3.05724 6.03621-4.57682 8.89072.90717-.30742 3.79757-3.19007 7.7076-7.41702.61237 5.81162 1.4474 8.55797 2.68508 12.49868.98603-3.9342 1.7009-6.62089 2.48373-12.5998 2.35674 2.67392 4.62843 5.36182 7.8173 7.65562l-4.46391-9.19642c2.31172 1.47797 4.88441 3.40979 7.33595 4.23459-5.81218-6.59359-10.73107-15.11508-13.07682-27.45377z" style="fill:#000;fill-opacity:1;fill-rule:evenodd;stroke:none;display:inline" transform="matrix(4.7495 0 0 4.7495 3475.36815 148.24526)"/>
  </g>
  <g style="display:inline">
    <path d="M-483.25134 19.66383c4.17511 5.17924-7.50003 7.24031-1.20538 12.14267 2.68457 1.66458 8.9556-1.93881 3.44649-6.36743-.71182-.37916 2.47786-2.99735-2.24111-5.77524zM-476.28669 31.94277c-1.04447.09831-2.05108.74291-3.00147 2.38762-1.19195 2.75738 4.0496 7.53981 7.57704 1.66042.2496-.71754 3.75085 1.58046 5.68784-3.23414-3.32064 3.48835-6.71691-.67575-9.80026-.81385-.15082-.0068-.31395-.01409-.46315-.00005zM-489.19943 31.99233c-3.08341.13753-6.48049 4.31788-9.80042.82889 1.93603 4.81497 5.47482 2.51766 5.72427 3.23524 3.5263 5.88008 8.73172 1.09866 7.54031-1.65895-1.0858-1.87987-2.25763-2.45899-3.46416-2.40518zM-482.25245 35.34624c-2.71644 12.33688-7.76823 21.07047-13.26738 27.34961 2.28573-.62659 4.87078-2.40334 7.35527-3.96221-1.51963 3.23498-3.05724 6.03621-4.57682 8.89072.90717-.30742 3.79757-3.19007 7.7076-7.41702.61237 5.81162 1.4474 8.55797 2.68508 12.49868.98603-3.9342 1.7009-6.62089 2.48373-12.5998 2.35674 2.67392 4.62843 5.36182 7.8173 7.65562l-4.46391-9.19642c2.31172 1.47797 4.88441 3.40979 7.33595 4.23459-5.81218-6.59359-10.73107-15.11508-13.07682-27.45377z" style="fill:#000;fill-opacity:1;fill-rule:evenodd;stroke:none;display:inline" transform="matrix(4.7495 0 0 4.7495 3475.36815 581.53639)"/>
  </g>
  <path d="M-677.03085 9.87064c4.17511 5.17924-7.50003 7.24031-1.20538 12.14267 2.68457 1.66458 8.9556-1.93881 3.44649-6.36743-.71182-.37916 2.47786-2.99735-2.24111-5.77524zM-670.0662 22.14958c-1.04447.09831-2.05108.74291-3.00147 2.38762-1.19195 2.75738 4.0496 7.53981 7.57704 1.66042.2496-.71754 3.75085 1.58046 5.68784-3.23414-3.32064 3.48835-6.71691-.67575-9.80026-.81385-.15082-.0068-.31395-.01409-.46315-.00005zM-682.97894 22.19914c-3.08341.13753-6.48049 4.31788-9.80042.82889 1.93603 4.81497 5.47482 2.51766 5.72427 3.23524 3.5263 5.88008 8.73172 1.09866 7.54031-1.65895-1.0858-1.87987-2.25763-2.45899-3.46416-2.40518zM-676.03196 25.55305c-2.71644 12.33688-7.76823 21.07047-13.26738 27.34961 2.28573-.62659 4.87078-2.40334 7.35527-3.96221-1.51963 3.23498-3.05724 6.03621-4.57682 8.89072.90717-.30742 3.79757-3.19007 7.7076-7.41702.61237 5.81162 1.4474 8.55797 2.68508 12.49868.98603-3.9342 1.7009-6.62089 2.48373-12.5998 2.35674 2.67392 4.62843 5.36182 7.8173 7.65562l-4.46391-9.19642c2.31172 1.47797 4.88441 3.40979 7.33595 4.23459-5.81218-6.59359-10.73107-15.11508-13.07682-27.45377z" style="fill:#000;fill-opacity:1;fill-rule:evenodd;stroke:none;display:inline" transform="matrix(4.7495 0 0 4.7495 3315.36105 -21.88736)"/>
  <path d="M-677.03085 9.87064c4.17511 5.17924-7.50003 7.24031-1.20538 12.14267 2.68457 1.66458 8.9556-1.93881 3.44649-6.36743-.71182-.37916 2.47786-2.99735-2.24111-5.77524zM-670.0662 22.14958c-1.04447.09831-2.05108.74291-3.00147 2.38762-1.19195 2.75738 4.0496 7.53981 7.57704 1.66042.2496-.71754 3.75085 1.58046 5.68784-3.23414-3.32064 3.48835-6.71691-.67575-9.80026-.81385-.15082-.0068-.31395-.01409-.46315-.00005zM-682.97894 22.19914c-3.08341.13753-6.48049 4.31788-9.80042.82889 1.93603 4.81497 5.47482 2.51766 5.72427 3.23524 3.5263 5.88008 8.73172 1.09866 7.54031-1.65895-1.0858-1.87987-2.25763-2.45899-3.46416-2.40518zM-676.03196 25.55305c-2.71644 12.33688-7.76823 21.07047-13.26738 27.34961 2.28573-.62659 4.87078-2.40334 7.35527-3.96221-1.51963 3.23498-3.05724 6.03621-4.57682 8.89072.90717-.30742 3.79757-3.19007 7.7076-7.41702.61237 5.81162 1.4474 8.55797 2.68508 12.49868.98603-3.9342 1.7009-6.62089 2.48373-12.5998 2.35674 2.67392 4.62843 5.36182 7.8173 7.65562l-4.46391-9.19642c2.31172 1.47797 4.88441 3.40979 7.33595 4.23459-5.81218-6.59359-10.73107-15.11508-13.07682-27.45377z" style="fill:#000;fill-opacity:1;fill-rule:evenodd;stroke:none;display:inline" transform="matrix(4.7495 0 0 4.7495 3315.36105 411.40381)"/>
  <path d="M-677.03085 9.87064c4.17511 5.17924-7.50003 7.24031-1.20538 12.14267 2.68457 1.66458 8.9556-1.93881 3.44649-6.36743-.71182-.37916 2.47786-2.99735-2.24111-5.77524zM-670.0662 22.14958c-1.04447.09831-2.05108.74291-3.00147 2.38762-1.19195 2.75738 4.0496 7.53981 7.57704 1.66042.2496-.71754 3.75085 1.58046 5.68784-3.23414-3.32064 3.48835-6.71691-.67575-9.80026-.81385-.15082-.0068-.31395-.01409-.46315-.00005zM-682.97894 22.19914c-3.08341.13753-6.48049 4.31788-9.80042.82889 1.93603 4.81497 5.47482 2.51766 5.72427 3.23524 3.5263 5.88008 8.73172 1.09866 7.54031-1.65895-1.0858-1.87987-2.25763-2.45899-3.46416-2.40518zM-676.03196 25.55305c-2.71644 12.33688-7.76823 21.07047-13.26738 27.34961 2.28573-.62659 4.87078-2.40334 7.35527-3.96221-1.51963 3.23498-3.05724 6.03621-4.57682 8.89072.90717-.30742 3.79757-3.19007 7.7076-7.41702.61237 5.81162 1.4474 8.55797 2.68508 12.49868.98603-3.9342 1.7009-6.62089 2.48373-12.5998 2.35674 2.67392 4.62843 5.36182 7.8173 7.65562l-4.46391-9.19642c2.31172 1.47797 4.88441 3.40979 7.33595 4.23459-5.81218-6.59359-10.73107-15.11508-13.07682-27.45377z" style="fill:#000;fill-opacity:1;fill-rule:evenodd;stroke:none;display:inline" transform="matrix(4.7495 0 0 4.7495 3315.36105 844.69502)"/>
  <path d="M-616.4605 22.19914c-3.08341.13753-6.48049 4.31788-9.80042.82889 1.93603 4.81497 5.47482 2.51766 5.72427 3.23524 3.5263 5.88008 8.73172 1.09866 7.54031-1.65895-1.0858-1.87987-2.25763-2.45899-3.46416-2.40518zM-610.51241 9.87064c4.17511 5.17924-7.50003 7.24031-1.20538 12.14267 2.68457 1.66458 8.9556-1.93881 3.44649-6.36743-.71182-.37916 2.47786-2.99735-2.24111-5.77524zM-603.54776 22.14958c-1.04447.09831-2.05108.74291-3.00147 2.38762-1.19195 2.75738 4.0496 7.53981 7.57704 1.66042.2496-.71754 3.75085 1.58046 5.68784-3.23414-3.32064 3.48835-6.71691-.67575-9.80026-.81385-.15082-.0068-.31395-.01409-.46315-.00005zM-609.51352 25.55305c-2.71644 12.33688-7.76823 21.07047-13.26738 27.34961 2.28573-.62659 4.87078-2.40334 7.35527-3.96221-1.51963 3.23498-3.05724 6.03621-4.57682 8.89072.90717-.30742 3.79757-3.19007 7.7076-7.41702.61237 5.81162 1.4474 8.55797 2.68508 12.49868.98603-3.9342 1.7009-6.62089 2.48373-12.5998 2.35674 2.67392 4.62843 5.36182 7.8173 7.65562l-4.46391-9.19642c2.31172 1.47797 4.88441 3.40979 7.33595 4.23459-5.81218-6.59359-10.73107-15.11508-13.07682-27.45377z" style="fill:#000;fill-opacity:1;fill-rule:evenodd;stroke:none;display:inline" transform="matrix(4.7495 0 0 4.7495 3308.10685 -21.88736)"/>
  <path d="M-616.4605 22.19914c-3.08341.13753-6.48049 4.31788-9.80042.82889 1.93603 4.81497 5.47482 2.51766 5.72427 3.23524 3.5263 5.88008 8.73172 1.09866 7.54031-1.65895-1.0858-1.87987-2.25763-2.45899-3.46416-2.40518zM-610.51241 9.87064c4.17511 5.17924-7.50003 7.24031-1.20538 12.14267 2.68457 1.66458 8.9556-1.93881 3.44649-6.36743-.71182-.37916 2.47786-2.99735-2.24111-5.77524zM-603.54776 22.14958c-1.04447.09831-2.05108.74291-3.00147 2.38762-1.19195 2.75738 4.0496 7.53981 7.57704 1.66042.2496-.71754 3.75085 1.58046 5.68784-3.23414-3.32064 3.48835-6.71691-.67575-9.80026-.81385-.15082-.0068-.31395-.01409-.46315-.00005zM-609.51352 25.55305c-2.71644 12.33688-7.76823 21.07047-13.26738 27.34961 2.28573-.62659 4.87078-2.40334 7.35527-3.96221-1.51963 3.23498-3.05724 6.03621-4.57682 8.89072.90717-.30742 3.79757-3.19007 7.7076-7.41702.61237 5.81162 1.4474 8.55797 2.68508 12.49868.98603-3.9342 1.7009-6.62089 2.48373-12.5998 2.35674 2.67392 4.62843 5.36182 7.8173 7.65562l-4.46391-9.19642c2.31172 1.47797 4.88441 3.40979 7.33595 4.23459-5.81218-6.59359-10.73107-15.11508-13.07682-27.45377z" style="fill:#000;fill-opacity:1;fill-rule:evenodd;stroke:none;display:inline" transform="matrix(4.7495 0 0 4.7495 3308.10685 411.40381)"/>
  <g>
    <path d="M-616.4605 22.19914c-3.08341.13753-6.48049 4.31788-9.80042.82889 1.93603 4.81497 5.47482 2.51766 5.72427 3.23524 3.5263 5.88008 8.73172 1.09866 7.54031-1.65895-1.0858-1.87987-2.25763-2.45899-3.46416-2.40518zM-610.51241 9.87064c4.17511 5.17924-7.50003 7.24031-1.20538 12.14267 2.68457 1.66458 8.9556-1.93881 3.44649-6.36743-.71182-.37916 2.47786-2.99735-2.24111-5.77524zM-603.54776 22.14958c-1.04447.09831-2.05108.74291-3.00147 2.38762-1.19195 2.75738 4.0496 7.53981 7.57704 1.66042.2496-.71754 3.75085 1.58046 5.68784-3.23414-3.32064 3.48835-6.71691-.67575-9.80026-.81385-.15082-.0068-.31395-.01409-.46315-.00005zM-609.51352 25.55305c-2.71644 12.33688-7.76823 21.07047-13.26738 27.34961 2.28573-.62659 4.87078-2.40334 7.35527-3.96221-1.51963 3.23498-3.05724 6.03621-4.57682 8.89072.90717-.30742 3.79757-3.19007 7.7076-7.41702.61237 5.81162 1.4474 8.55797 2.68508 12.49868.98603-3.9342 1.7009-6.62089 2.48373-12.5998 2.35674 2.67392 4.62843 5.36182 7.8173 7.65562l-4.46391-9.19642c2.31172 1.47797 4.88441 3.40979 7.33595 4.23459-5.81218-6.59359-10.73107-15.11508-13.07682-27.45377z" style="fill:#000;fill-opacity:1;fill-rule:evenodd;stroke:none;display:inline" transform="matrix(4.7495 0 0 4.7495 3308.10685 844.69502)"/>
  </g>
  <g>
    <path d="M-549.76978 19.66383c4.17511 5.17924-7.50003 7.24031-1.20538 12.14267 2.68457 1.66458 8.9556-1.93881 3.44649-6.36743-.71182-.37916 2.47786-2.99735-2.24111-5.77524zM-542.80513 31.94277c-1.04447.09831-2.05108.74291-3.00147 2.38762-1.19195 2.75738 4.0496 7.53981 7.57704 1.66042.2496-.71754 3.75085 1.58046 5.68784-3.23414-3.32064 3.48835-6.71691-.67575-9.80026-.81385-.15082-.0068-.31395-.01409-.46315-.00005zM-555.71787 31.99233c-3.08341.13753-6.48049 4.31788-9.80042.82889 1.93603 4.81497 5.47482 2.51766 5.72427 3.23524 3.5263 5.88008 8.73172 1.09866 7.54031-1.65895-1.0858-1.87987-2.25763-2.45899-3.46416-2.40518zM-548.77089 35.34624c-2.71644 12.33688-7.76823 21.07047-13.26738 27.34961 2.28573-.62659 4.87078-2.40334 7.35527-3.96221-1.51963 3.23498-3.05724 6.03621-4.57682 8.89072.90717-.30742 3.79757-3.19007 7.7076-7.41702.61237 5.81162 1.4474 8.55797 2.68508 12.49868.98603-3.9342 1.7009-6.62089 2.48373-12.5998 2.35674 2.67392 4.62843 5.36182 7.8173 7.65562l-4.46391-9.19642c2.31172 1.47797 4.88441 3.40979 7.33595 4.23459-5.81218-6.59359-10.73107-15.11508-13.07682-27.45377z" style="fill:#000;fill-opacity:1;fill-rule:evenodd;stroke:none;display:inline" transform="matrix(4.7495 0 0 4.7495 3328.28475 -68.4002)"/>
  </g>
  <g>
    <path d="M-549.76978 19.66383c4.17511 5.17924-7.50003 7.24031-1.20538 12.14267 2.68457 1.66458 8.9556-1.93881 3.44649-6.36743-.71182-.37916 2.47786-2.99735-2.24111-5.77524zM-542.80513 31.94277c-1.04447.09831-2.05108.74291-3.00147 2.38762-1.19195 2.75738 4.0496 7.53981 7.57704 1.66042.2496-.71754 3.75085 1.58046 5.68784-3.23414-3.32064 3.48835-6.71691-.67575-9.80026-.81385-.15082-.0068-.31395-.01409-.46315-.00005zM-555.71787 31.99233c-3.08341.13753-6.48049 4.31788-9.80042.82889 1.93603 4.81497 5.47482 2.51766 5.72427 3.23524 3.5263 5.88008 8.73172 1.09866 7.54031-1.65895-1.0858-1.87987-2.25763-2.45899-3.46416-2.40518zM-548.77089 35.34624c-2.71644 12.33688-7.76823 21.07047-13.26738 27.34961 2.28573-.62659 4.87078-2.40334 7.35527-3.96221-1.51963 3.23498-3.05724 6.03621-4.57682 8.89072.90717-.30742 3.79757-3.19007 7.7076-7.41702.61237 5.81162 1.4474 8.55797 2.68508 12.49868.98603-3.9342 1.7009-6.62089 2.48373-12.5998 2.35674 2.67392 4.62843 5.36182 7.8173 7.65562l-4.46391-9.19642c2.31172 1.47797 4.88441 3.40979 7.33595 4.23459-5.81218-6.59359-10.73107-15.11508-13.07682-27.45377z" style="fill:#000;fill-opacity:1;fill-rule:evenodd;stroke:none;display:inline" transform="matrix(4.7495 0 0 4.7495 3328.28475 364.89099)"/>
  </g>
  <g>
    <path d="M-549.76978 19.66383c4.17511 5.17924-7.50003 7.24031-1.20538 12.14267 2.68457 1.66458 8.9556-1.93881 3.44649-6.36743-.71182-.37916 2.47786-2.99735-2.24111-5.77524zM-542.80513 31.94277c-1.04447.09831-2.05108.74291-3.00147 2.38762-1.19195 2.75738 4.0496 7.53981 7.57704 1.66042.2496-.71754 3.75085 1.58046 5.68784-3.23414-3.32064 3.48835-6.71691-.67575-9.80026-.81385-.15082-.0068-.31395-.01409-.46315-.00005zM-555.71787 31.99233c-3.08341.13753-6.48049 4.31788-9.80042.82889 1.93603 4.81497 5.47482 2.51766 5.72427 3.23524 3.5263 5.88008 8.73172 1.09866 7.54031-1.65895-1.0858-1.87987-2.25763-2.45899-3.46416-2.40518zM-548.77089 35.34624c-2.71644 12.33688-7.76823 21.07047-13.26738 27.34961 2.28573-.62659 4.87078-2.40334 7.35527-3.96221-1.51963 3.23498-3.05724 6.03621-4.57682 8.89072.90717-.30742 3.79757-3.19007 7.7076-7.41702.61237 5.81162 1.4474 8.55797 2.68508 12.49868.98603-3.9342 1.7009-6.62089 2.48373-12.5998 2.35674 2.67392 4.62843 5.36182 7.8173 7.65562l-4.46391-9.19642c2.31172 1.47797 4.88441 3.40979 7.33595 4.23459-5.81218-6.59359-10.73107-15.11508-13.07682-27.45377z" style="fill:#000;fill-opacity:1;fill-rule:evenodd;stroke:none;display:inline" transform="matrix(4.7495 0 0 4.7495 3328.28475 798.182154)"/>
  </g>
  <g>
    <path d="M-483.25134 19.66383c4.17511 5.17924-7.50003 7.24031-1.20538 12.14267 2.68457 1.66458 8.9556-1.93881 3.44649-6.36743-.71182-.37916 2.47786-2.99735-2.24111-5.77524zM-476.28669 31.94277c-1.04447.09831-2.05108.74291-3.00147 2.38762-1.19195 2.75738 4.0496 7.53981 7.57704 1.66042.2496-.71754 3.75085 1.58046 5.68784-3.23414-3.32064 3.48835-6.71691-.67575-9.80026-.81385-.15082-.0068-.31395-.01409-.46315-.00005zM-489.19943 31.99233c-3.08341.13753-6.48049 4.31788-9.80042.82889 1.93603 4.81497 5.47482 2.51766 5.72427 3.23524 3.5263 5.88008 8.73172 1.09866 7.54031-1.65895-1.0858-1.87987-2.25763-2.45899-3.46416-2.40518zM-482.25245 35.34624c-2.71644 12.33688-7.76823 21.07047-13.26738 27.34961 2.28573-.62659 4.87078-2.40334 7.35527-3.96221-1.51963 3.23498-3.05724 6.03621-4.57682 8.89072.90717-.30742 3.79757-3.19007 7.7076-7.41702.61237 5.81162 1.4474 8.55797 2.68508 12.49868.98603-3.9342 1.7009-6.62089 2.48373-12.5998 2.35674 2.67392 4.62843 5.36182 7.8173 7.65562l-4.46391-9.19642c2.31172 1.47797 4.88441 3.40979 7.33595 4.23459-5.81218-6.59359-10.73107-15.11508-13.07682-27.45377z" style="fill:#000;fill-opacity:1;fill-rule:evenodd;stroke:none;display:inline" transform="matrix(4.7495 0 0 4.7495 3321.03025 -68.4002)"/>
  </g>
  <g>
    <path d="M-483.25134 19.66383c4.17511 5.17924-7.50003 7.24031-1.20538 12.14267 2.68457 1.66458 8.9556-1.93881 3.44649-6.36743-.71182-.37916 2.47786-2.99735-2.24111-5.77524zM-476.28669 31.94277c-1.04447.09831-2.05108.74291-3.00147 2.38762-1.19195 2.75738 4.0496 7.53981 7.57704 1.66042.2496-.71754 3.75085 1.58046 5.68784-3.23414-3.32064 3.48835-6.71691-.67575-9.80026-.81385-.15082-.0068-.31395-.01409-.46315-.00005zM-489.19943 31.99233c-3.08341.13753-6.48049 4.31788-9.80042.82889 1.93603 4.81497 5.47482 2.51766 5.72427 3.23524 3.5263 5.88008 8.73172 1.09866 7.54031-1.65895-1.0858-1.87987-2.25763-2.45899-3.46416-2.40518zM-482.25245 35.34624c-2.71644 12.33688-7.76823 21.07047-13.26738 27.34961 2.28573-.62659 4.87078-2.40334 7.35527-3.96221-1.51963 3.23498-3.05724 6.03621-4.57682 8.89072.90717-.30742 3.79757-3.19007 7.7076-7.41702.61237 5.81162 1.4474 8.55797 2.68508 12.49868.98603-3.9342 1.7009-6.62089 2.48373-12.5998 2.35674 2.67392 4.62843 5.36182 7.8173 7.65562l-4.46391-9.19642c2.31172 1.47797 4.88441 3.40979 7.33595 4.23459-5.81218-6.59359-10.73107-15.11508-13.07682-27.45377z" style="fill:#000;fill-opacity:1;fill-rule:evenodd;stroke:none;display:inline" transform="matrix(4.7495 0 0 4.7495 3321.03025 364.89099)"/>
  </g>
  <g>
    <path d="M-483.25134 19.66383c4.17511 5.17924-7.50003 7.24031-1.20538 12.14267 2.68457 1.66458 8.9556-1.93881 3.44649-6.36743-.71182-.37916 2.47786-2.99735-2.24111-5.77524zM-476.28669 31.94277c-1.04447.09831-2.05108.74291-3.00147 2.38762-1.19195 2.75738 4.0496 7.53981 7.57704 1.66042.2496-.71754 3.75085 1.58046 5.68784-3.23414-3.32064 3.48835-6.71691-.67575-9.80026-.81385-.15082-.0068-.31395-.01409-.46315-.00005zM-489.19943 31.99233c-3.08341.13753-6.48049 4.31788-9.80042.82889 1.93603 4.81497 5.47482 2.51766 5.72427 3.23524 3.5263 5.88008 8.73172 1.09866 7.54031-1.65895-1.0858-1.87987-2.25763-2.45899-3.46416-2.40518zM-482.25245 35.34624c-2.71644 12.33688-7.76823 21.07047-13.26738 27.34961 2.28573-.62659 4.87078-2.40334 7.35527-3.96221-1.51963 3.23498-3.05724 6.03621-4.57682 8.89072.90717-.30742 3.79757-3.19007 7.7076-7.41702.61237 5.81162 1.4474 8.55797 2.68508 12.49868.98603-3.9342 1.7009-6.62089 2.48373-12.5998 2.35674 2.67392 4.62843 5.36182 7.8173 7.65562l-4.46391-9.19642c2.31172 1.47797 4.88441 3.40979 7.33595 4.23459-5.81218-6.59359-10.73107-15.11508-13.07682-27.45377z" style="fill:#000;fill-opacity:1;fill-rule:evenodd;stroke:none;display:inline" transform="matrix(4.7495 0 0 4.7495 3321.03025 798.182154)"/>
  </g>
  <g>
    <path d="M-483.25134 19.66383c4.17511 5.17924-7.50003 7.24031-1.20538 12.14267 2.68457 1.66458 8.9556-1.93881 3.44649-6.36743-.71182-.37916 2.47786-2.99735-2.24111-5.77524zM-476.28669 31.94277c-1.04447.09831-2.05108.74291-3.00147 2.38762-1.19195 2.75738 4.0496 7.53981 7.57704 1.66042.2496-.71754 3.75085 1.58046 5.68784-3.23414-3.32064 3.48835-6.71691-.67575-9.80026-.81385-.15082-.0068-.31395-.01409-.46315-.00005zM-489.19943 31.99233c-3.08341.13753-6.48049 4.31788-9.80042.82889 1.93603 4.81497 5.47482 2.51766 5.72427 3.23524 3.5263 5.88008 8.73172 1.09866 7.54031-1.65895-1.0858-1.87987-2.25763-2.45899-3.46416-2.40518zM-482.25245 35.34624c-2.71644 12.33688-7.76823 21.07047-13.26738 27.34961 2.28573-.62659 4.87078-2.40334 7.35527-3.96221-1.51963 3.23498-3.05724 6.03621-4.57682 8.89072.90717-.30742 3.79757-3.19007 7.7076-7.41702.61237 5.81162 1.4474 8.55797 2.68508 12.49868.98603-3.9342 1.7009-6.62089 2.48373-12.5998 2.35674 2.67392 4.62843 5.36182 7.8173 7.65562l-4.46391-9.19642c2.31172 1.47797 4.88441 3.40979 7.33595 4.23459-5.81218-6.59359-10.73107-15.11508-13.07682-27.45377z" style="fill:#000;fill-opacity:1;fill-rule:evenodd;stroke:none;display:inline" transform="matrix(4.7495 0 0 4.7495 3629.70585 -68.4002)"/>
  </g>
  <g>
    <path d="M-483.25134 19.66383c4.17511 5.17924-7.50003 7.24031-1.20538 12.14267 2.68457 1.66458 8.9556-1.93881 3.44649-6.36743-.71182-.37916 2.47786-2.99735-2.24111-5.77524zM-476.28669 31.94277c-1.04447.09831-2.05108.74291-3.00147 2.38762-1.19195 2.75738 4.0496 7.53981 7.57704 1.66042.2496-.71754 3.75085 1.58046 5.68784-3.23414-3.32064 3.48835-6.71691-.67575-9.80026-.81385-.15082-.0068-.31395-.01409-.46315-.00005zM-489.19943 31.99233c-3.08341.13753-6.48049 4.31788-9.80042.82889 1.93603 4.81497 5.47482 2.51766 5.72427 3.23524 3.5263 5.88008 8.73172 1.09866 7.54031-1.65895-1.0858-1.87987-2.25763-2.45899-3.46416-2.40518zM-482.25245 35.34624c-2.71644 12.33688-7.76823 21.07047-13.26738 27.34961 2.28573-.62659 4.87078-2.40334 7.35527-3.96221-1.51963 3.23498-3.05724 6.03621-4.57682 8.89072.90717-.30742 3.79757-3.19007 7.7076-7.41702.61237 5.81162 1.4474 8.55797 2.68508 12.49868.98603-3.9342 1.7009-6.62089 2.48373-12.5998 2.35674 2.67392 4.62843 5.36182 7.8173 7.65562l-4.46391-9.19642c2.31172 1.47797 4.88441 3.40979 7.33595 4.23459-5.81218-6.59359-10.73107-15.11508-13.07682-27.45377z" style="fill:#000;fill-opacity:1;fill-rule:evenodd;stroke:none;display:inline" transform="matrix(4.7495 0 0 4.7495 3629.70585 364.89099)"/>
  </g>
  <g>
    <path d="M-483.25134 19.66383c4.17511 5.17924-7.50003 7.24031-1.20538 12.14267 2.68457 1.66458 8.9556-1.93881 3.44649-6.36743-.71182-.37916 2.47786-2.99735-2.24111-5.77524zM-476.28669 31.94277c-1.04447.09831-2.05108.74291-3.00147 2.38762-1.19195 2.75738 4.0496 7.53981 7.57704 1.66042.2496-.71754 3.75085 1.58046 5.68784-3.23414-3.32064 3.48835-6.71691-.67575-9.80026-.81385-.15082-.0068-.31395-.01409-.46315-.00005zM-489.19943 31.99233c-3.08341.13753-6.48049 4.31788-9.80042.82889 1.93603 4.81497 5.47482 2.51766 5.72427 3.23524 3.5263 5.88008 8.73172 1.09866 7.54031-1.65895-1.0858-1.87987-2.25763-2.45899-3.46416-2.40518zM-482.25245 35.34624c-2.71644 12.33688-7.76823 21.07047-13.26738 27.34961 2.28573-.62659 4.87078-2.40334 7.35527-3.96221-1.51963 3.23498-3.05724 6.03621-4.57682 8.89072.90717-.30742 3.79757-3.19007 7.7076-7.41702.61237 5.81162 1.4474 8.55797 2.68508 12.49868.98603-3.9342 1.7009-6.62089 2.48373-12.5998 2.35674 2.67392 4.62843 5.36182 7.8173 7.65562l-4.46391-9.19642c2.31172 1.47797 4.88441 3.40979 7.33595 4.23459-5.81218-6.59359-10.73107-15.11508-13.07682-27.45377z" style="fill:#000;fill-opacity:1;fill-rule:evenodd;stroke:none;display:inline" transform="matrix(4.7495 0 0 4.7495 3629.70585 798.182154)"/>
  </g>
  <g style="display:inline">
    <path d="M-677.03085 9.87064c4.17511 5.17924-7.50003 7.24031-1.20538 12.14267 2.68457 1.66458 8.9556-1.93881 3.44649-6.36743-.71182-.37916 2.47786-2.99735-2.24111-5.77524zM-670.0662 22.14958c-1.04447.09831-2.05108.74291-3.00147 2.38762-1.19195 2.75738 4.0496 7.53981 7.57704 1.66042.2496-.71754 3.75085 1.58046 5.68784-3.23414-3.32064 3.48835-6.71691-.67575-9.80026-.81385-.15082-.0068-.31395-.01409-.46315-.00005zM-682.97894 22.19914c-3.08341.13753-6.48049 4.31788-9.80042.82889 1.93603 4.81497 5.47482 2.51766 5.72427 3.23524 3.5263 5.88008 8.73172 1.09866 7.54031-1.65895-1.0858-1.87987-2.25763-2.45899-3.46416-2.40518zM-676.03196 25.55305c-2.71644 12.33688-7.76823 21.07047-13.26738 27.34961 2.28573-.62659 4.87078-2.40334 7.35527-3.96221-1.51963 3.23498-3.05724 6.03621-4.57682 8.89072.90717-.30742 3.79757-3.19007 7.7076-7.41702.61237 5.81162 1.4474 8.55797 2.68508 12.49868.98603-3.9342 1.7009-6.62089 2.48373-12.5998 2.35674 2.67392 4.62843 5.36182 7.8173 7.65562l-4.46391-9.19642c2.31172 1.47797 4.88441 3.40979 7.33595 4.23459-5.81218-6.59359-10.73107-15.11508-13.07682-27.45377z" style="fill:#000;fill-opacity:1;fill-rule:evenodd;stroke:none;display:inline" transform="matrix(4.7495 0 0 4.7495 4704.40105 194.75805)"/>
  </g>
  <g style="display:inline">
    <path d="M-677.03085 9.87064c4.17511 5.17924-7.50003 7.24031-1.20538 12.14267 2.68457 1.66458 8.9556-1.93881 3.44649-6.36743-.71182-.37916 2.47786-2.99735-2.24111-5.77524zM-670.0662 22.14958c-1.04447.09831-2.05108.74291-3.00147 2.38762-1.19195 2.75738 4.0496 7.53981 7.57704 1.66042.2496-.71754 3.75085 1.58046 5.68784-3.23414-3.32064 3.48835-6.71691-.67575-9.80026-.81385-.15082-.0068-.31395-.01409-.46315-.00005zM-682.97894 22.19914c-3.08341.13753-6.48049 4.31788-9.80042.82889 1.93603 4.81497 5.47482 2.51766 5.72427 3.23524 3.5263 5.88008 8.73172 1.09866 7.54031-1.65895-1.0858-1.87987-2.25763-2.45899-3.46416-2.40518zM-676.03196 25.55305c-2.71644 12.33688-7.76823 21.07047-13.26738 27.34961 2.28573-.62659 4.87078-2.40334 7.35527-3.96221-1.51963 3.23498-3.05724 6.03621-4.57682 8.89072.90717-.30742 3.79757-3.19007 7.7076-7.41702.61237 5.81162 1.4474 8.55797 2.68508 12.49868.98603-3.9342 1.7009-6.62089 2.48373-12.5998 2.35674 2.67392 4.62843 5.36182 7.8173 7.65562l-4.46391-9.19642c2.31172 1.47797 4.88441 3.40979 7.33595 4.23459-5.81218-6.59359-10.73107-15.11508-13.07682-27.45377z" style="fill:#000;fill-opacity:1;fill-rule:evenodd;stroke:none;display:inline" transform="matrix(4.7495 0 0 4.7495 4704.40105 628.049227)"/>
  </g>
  <g>
    <path d="M-616.4605 22.19914c-3.08341.13753-6.48049 4.31788-9.80042.82889 1.93603 4.81497 5.47482 2.51766 5.72427 3.23524 3.5263 5.88008 8.73172 1.09866 7.54031-1.65895-1.0858-1.87987-2.25763-2.45899-3.46416-2.40518zM-610.51241 9.87064c4.17511 5.17924-7.50003 7.24031-1.20538 12.14267 2.68457 1.66458 8.9556-1.93881 3.44649-6.36743-.71182-.37916 2.47786-2.99735-2.24111-5.77524zM-603.54776 22.14958c-1.04447.09831-2.05108.74291-3.00147 2.38762-1.19195 2.75738 4.0496 7.53981 7.57704 1.66042.2496-.71754 3.75085 1.58046 5.68784-3.23414-3.32064 3.48835-6.71691-.67575-9.80026-.81385-.15082-.0068-.31395-.01409-.46315-.00005zM-609.51352 25.55305c-2.71644 12.33688-7.76823 21.07047-13.26738 27.34961 2.28573-.62659 4.87078-2.40334 7.35527-3.96221-1.51963 3.23498-3.05724 6.03621-4.57682 8.89072.90717-.30742 3.79757-3.19007 7.7076-7.41702.61237 5.81162 1.4474 8.55797 2.68508 12.49868.98603-3.9342 1.7009-6.62089 2.48373-12.5998 2.35674 2.67392 4.62843 5.36182 7.8173 7.65562l-4.46391-9.19642c2.31172 1.47797 4.88441 3.40979 7.33595 4.23459-5.81218-6.59359-10.73107-15.11508-13.07682-27.45377z" style="fill:#000;fill-opacity:1;fill-rule:evenodd;stroke:none;display:inline" transform="matrix(4.7495 0 0 4.7495 4542.80875 -21.88738)"/>
  </g>
  <g>
    <path d="M-616.4605 22.19914c-3.08341.13753-6.48049 4.31788-9.80042.82889 1.93603 4.81497 5.47482 2.51766 5.72427 3.23524 3.5263 5.88008 8.73172 1.09866 7.54031-1.65895-1.0858-1.87987-2.25763-2.45899-3.46416-2.40518zM-610.51241 9.87064c4.17511 5.17924-7.50003 7.24031-1.20538 12.14267 2.68457 1.66458 8.9556-1.93881 3.44649-6.36743-.71182-.37916 2.47786-2.99735-2.24111-5.77524zM-603.54776 22.14958c-1.04447.09831-2.05108.74291-3.00147 2.38762-1.19195 2.75738 4.0496 7.53981 7.57704 1.66042.2496-.71754 3.75085 1.58046 5.68784-3.23414-3.32064 3.48835-6.71691-.67575-9.80026-.81385-.15082-.0068-.31395-.01409-.46315-.00005zM-609.51352 25.55305c-2.71644 12.33688-7.76823 21.07047-13.26738 27.34961 2.28573-.62659 4.87078-2.40334 7.35527-3.96221-1.51963 3.23498-3.05724 6.03621-4.57682 8.89072.90717-.30742 3.79757-3.19007 7.7076-7.41702.61237 5.81162 1.4474 8.55797 2.68508 12.49868.98603-3.9342 1.7009-6.62089 2.48373-12.5998 2.35674 2.67392 4.62843 5.36182 7.8173 7.65562l-4.46391-9.19642c2.31172 1.47797 4.88441 3.40979 7.33595 4.23459-5.81218-6.59359-10.73107-15.11508-13.07682-27.45377z" style="fill:#000;fill-opacity:1;fill-rule:evenodd;stroke:none;display:inline" transform="matrix(4.7495 0 0 4.7495 4542.80875 411.40381)"/>
  </g>
  <g>
    <path d="M-616.4605 22.19914c-3.08341.13753-6.48049 4.31788-9.80042.82889 1.93603 4.81497 5.47482 2.51766 5.72427 3.23524 3.5263 5.88008 8.73172 1.09866 7.54031-1.65895-1.0858-1.87987-2.25763-2.45899-3.46416-2.40518zM-610.51241 9.87064c4.17511 5.17924-7.50003 7.24031-1.20538 12.14267 2.68457 1.66458 8.9556-1.93881 3.44649-6.36743-.71182-.37916 2.47786-2.99735-2.24111-5.77524zM-603.54776 22.14958c-1.04447.09831-2.05108.74291-3.00147 2.38762-1.19195 2.75738 4.0496 7.53981 7.57704 1.66042.2496-.71754 3.75085 1.58046 5.68784-3.23414-3.32064 3.48835-6.71691-.67575-9.80026-.81385-.15082-.0068-.31395-.01409-.46315-.00005zM-609.51352 25.55305c-2.71644 12.33688-7.76823 21.07047-13.26738 27.34961 2.28573-.62659 4.87078-2.40334 7.35527-3.96221-1.51963 3.23498-3.05724 6.03621-4.57682 8.89072.90717-.30742 3.79757-3.19007 7.7076-7.41702.61237 5.81162 1.4474 8.55797 2.68508 12.49868.98603-3.9342 1.7009-6.62089 2.48373-12.5998 2.35674 2.67392 4.62843 5.36182 7.8173 7.65562l-4.46391-9.19642c2.31172 1.47797 4.88441 3.40979 7.33595 4.23459-5.81218-6.59359-10.73107-15.11508-13.07682-27.45377z" style="fill:#000;fill-opacity:1;fill-rule:evenodd;stroke:none;display:inline" transform="matrix(4.7495 0 0 4.7495 4542.80875 844.69502)"/>
  </g>
</svg>
