<?xml version="1.0" encoding="utf-8"?>
<!-- Generator: Adobe Illustrator 22.1.0, SVG Export Plug-In . SVG Version: 6.00 Build 0)  -->
<svg version="1.1" id="레이어_1" xmlns="http://www.w3.org/2000/svg" xmlns:xlink="http://www.w3.org/1999/xlink" x="0px"
	 y="0px" viewBox="0 0 800 560" style="enable-background:new 0 0 800 560;" xml:space="preserve">
<style type="text/css">
	.st0{fill:#FFFFFF;}
</style>
<rect x="-0.3" class="st0" width="800" height="560"/>
<g>
	<path d="M419.8,350c2.9-4.5,6.4-8.6,9.3-13c1.4-2.1,2.7-2.7,5.2-1.8c5.2,1.9,10.6,3.3,15.8,5.2c2.2,0.8,3.2,0.5,3.9-1.9
		c1.6-5.5,3.6-11,5.3-16.5c0.6-1.8,1.4-2.5,3.4-2.5c5.6,0.1,11.1-0.2,16.7,0c2.8,0.1,4-0.5,3.9-3.7c-0.2-5.6,0.1-11.1,0-16.7
		c0-2.1,0.6-3,2.6-3.6c5.6-1.7,11.2-3.6,16.8-5.4c1.8-0.6,2.4-1.2,1.7-3.2c-2-5.8-3.6-11.6-5.6-17.4c-0.6-1.6-0.3-2.5,1.1-3.5
		c5-3.5,9.8-7.2,14.8-10.7c1.6-1.1,1.7-1.9,0.5-3.5c-3.7-4.9-7.1-9.9-10.7-14.8c-1-1.4-1-2.3,0-3.6c3.6-4.9,7.1-9.9,10.8-14.8
		c1.2-1.6,1-2.4-0.6-3.5c-5-3.5-9.8-7.2-14.8-10.7c-1.4-1-1.6-1.8-1.1-3.5c1.9-5.8,3.6-11.6,5.6-17.4c0.7-2,0.2-2.6-1.7-3.2
		c-5.7-1.8-11.3-3.8-17.1-5.5c-1.8-0.5-2.3-1.4-2.3-3.2c0-6-0.1-12-0.1-18c0-2-0.6-2.8-2.8-2.7c-5.9,0.1-11.8-0.1-17.7,0
		c-2.1,0.1-3-0.8-3.6-2.7c-1.7-5.5-3.6-10.9-5.3-16.5c-0.6-2.1-1.5-2.5-3.6-1.8c-5.4,1.9-11,3.5-16.4,5.4c-2.1,0.7-3.2,0.3-4.4-1.5
		c-3.2-4.7-6.8-9.1-9.9-13.8c-1.5-2.2-2.5-2.1-4.5-0.6c-4.6,3.5-9.4,6.7-14,10.2c-1.6,1.2-2.6,1.1-4.1-0.1
		c-4.7-3.5-9.6-6.8-14.3-10.4c-1.9-1.4-2.7-1.1-4,0.7c-3,4.4-6.4,8.6-9.4,13c-1.7,2.5-3.2,3.4-6.2,2.1c-3-1.3-6.3-2-9.4-3
		c-2.5-0.8-5.1-1.6-7.3-2.4c-1.9-0.3-1.8,1.1-2.1,2c-1.8,5.4-3.6,10.7-5.3,16.1c-0.7,2.2-1.6,3.3-4.2,3.2c-5.7-0.2-11.3,0.1-17-0.1
		c-2.5-0.1-3.1,0.8-3,3.1c0.1,5.8-0.1,11.6,0,17.3c0,2.1-0.7,3-2.6,3.6c-5.6,1.7-11.2,3.7-16.8,5.4c-1.9,0.6-2.3,1.3-1.6,3.2
		c2,5.8,3.7,11.6,5.6,17.4c0.6,1.6,0.2,2.5-1.1,3.4c-5,3.5-9.8,7.2-14.8,10.7c-1.6,1.1-1.7,2-0.5,3.5c3.7,4.9,7.1,9.9,10.8,14.8
		c1,1.4,1,2.3,0,3.6c-3.6,4.9-7.1,9.9-10.8,14.8c-1.2,1.6-1,2.4,0.6,3.5c4.9,3.4,9.7,7.1,14.6,10.5c1.6,1.1,1.9,2.1,1.2,4
		c-1.9,5.6-3.5,11.2-5.5,16.8c-0.8,2.3-0.1,3,1.9,3.6c5.6,1.7,11.2,3.7,16.8,5.4c1.7,0.5,2.3,1.4,2.3,3.2c-0.1,5.9,0.1,11.8,0,17.7
		c-0.1,2.5,0.8,3.1,3.1,3c5.8-0.1,11.6,0.1,17.3,0c2.1,0,3,0.7,3.6,2.7c1.7,5.5,3.7,10.9,5.3,16.5c0.7,2.2,1.5,2.5,3.6,1.8
		c5.4-1.9,11-3.4,16.4-5.3c2.1-0.7,3.2-0.3,4.4,1.5c3.1,4.6,6.6,8.9,9.7,13.5c1.4,2.1,2.4,2.6,4.6,0.9c4.3-3.4,8.9-6.3,13.2-9.7
		c2-1.5,3.4-1.8,5.5-0.1c4.2,3.3,8.7,6.2,12.9,9.5C416.9,352.3,418.1,352.6,419.8,350z M414.5,347.9c-4.4-3.4-9-6.5-13.5-9.8
		c-1.5-1.1-2.4-1.1-3.9,0c-4.4,3.4-9.1,6.4-13.5,9.9c-2.4,1.9-3.4,1.3-4.9-0.9c-3.1-4.5-6.5-8.8-9.6-13.3c-1.1-1.6-2.1-1.9-4-1.3
		c-5.4,1.8-10.8,3.4-16.1,5.3c-2.1,0.7-3,0.4-3.6-1.8c-1.5-5.1-3.5-10.1-4.9-15.2c-0.7-2.5-1.8-3.6-4.6-3.5c-5.3,0.2-10.7-0.1-16,0
		c-2.2,0-3-0.5-3-2.8c0.1-5.6-0.1-11.1,0-16.7c0-2.1-0.5-3.2-2.7-3.8c-5.4-1.6-10.8-3.5-16.2-5.2c-1.8-0.6-2.3-1.3-1.6-3.2
		c1.9-5.5,3.5-11,5.4-16.5c0.6-1.8,0.4-2.8-1.2-4c-4.8-3.3-9.5-7-14.3-10.3c-1.5-1.1-1.6-1.8-0.5-3.2c3.5-4.6,6.7-9.4,10.2-14
		c1.4-1.8,1.2-3-0.1-4.7c-3.4-4.5-6.6-9.2-10-13.7c-1.2-1.5-1.2-2.3,0.5-3.5c4.7-3.3,9.3-6.9,14-10.1c1.8-1.2,1.9-2.4,1.3-4.2
		c-1.9-5.5-3.5-11-5.4-16.5c-0.6-1.8-0.1-2.5,1.5-3c5.4-1.7,10.7-3.6,16.2-5.2c2.3-0.7,2.9-1.8,2.9-4.1c-0.1-5.5,0.2-10.9,0-16.4
		c-0.1-2.5,0.8-3.1,3.2-3c5.5,0.1,10.9-0.2,16.4,0c2.4,0.1,3.3-0.9,4-3c1.6-5.3,3.5-10.5,5.1-15.9c0.6-1.8,1.3-2.3,3.2-1.7
		c5.4,1.8,10.8,3.4,16.1,5.3c2,0.7,3.2,0.5,4.5-1.4c3.2-4.8,6.8-9.3,10.1-14.1c1-1.4,1.8-1.6,3.3-0.5c4.6,3.5,9.4,6.7,14,10.2
		c1.8,1.4,3,1.2,4.7-0.1c4.4-3.4,9.1-6.5,13.5-9.8c1.7-1.3,2.6-1.4,3.9,0.5c3.2,4.8,6.8,9.3,10.1,14.1c1.1,1.5,2,1.8,3.7,1.2
		c5.5-1.8,11-3.4,16.5-5.3c2-0.7,2.8-0.4,3.5,1.7c1.7,5.4,3.6,10.7,5.2,16.2c0.6,2,1.6,2.6,3.6,2.6c5.6-0.1,11.1,0.2,16.7,0
		c2.5-0.1,3.1,0.8,3,3.1c-0.1,5.3,0.2,10.7,0,16c-0.1,2.7,0.9,3.7,3.4,4.4c5.3,1.5,10.6,3.4,15.8,5.2c0.8,0.3,2.1,0.3,1.9,1.6
		c-0.9,2.8-1.7,5.4-2.6,8.1c-1,3.3-2,6.5-3.2,9.8c-0.7,1.9-0.5,3,1.3,4.2c4.6,3.1,8.9,6.6,13.5,9.7c2.2,1.5,2.1,2.5,0.6,4.4
		c-3.4,4.5-6.6,9.2-10,13.7c-1,1.3-1,2.3,0,3.6c3.4,4.5,6.5,9.3,10,13.7c1.7,2.2,1.3,3.2-0.8,4.6c-4.6,3.1-9,6.6-13.5,9.7
		c-1.5,1-1.8,1.9-1.2,3.7c1.8,5.2,3.3,10.6,5.2,15.8c1,2.7,0.2,3.6-2.4,4.4c-5.1,1.5-10.1,3.4-15.2,4.9c-2.2,0.6-2.8,1.7-2.8,3.8
		c0.1,5.5-0.2,10.9,0,16.4c0.1,2.6-0.9,3.2-3.3,3.1c-5.3-0.1-10.7,0.1-16,0c-2.3-0.1-3.4,0.6-4.1,2.9c-1.5,5.2-3.5,10.3-5,15.6
		c-0.7,2.5-1.8,2.8-4.1,2c-5.3-1.9-10.8-3.4-16.1-5.3c-1.6-0.6-2.5-0.2-3.5,1.1c-3.3,4.6-6.8,9.1-9.9,13.8
		C417.6,349.7,416.5,349.4,414.5,347.9z"/>
	<path d="M415.6,450.3c0.1-2.1-0.7-2.5-2.6-2.5c-9.2,0.1-18.4,0.1-27.6,0c-1.9,0-2.9,0.4-2.8,2.6c0.2,5.9,0.1,11.8,0,17.6
		c0,2,0.7,2.5,2.6,2.5c4.6-0.1,9.2,0,13.8,0c4.6,0,9.2-0.1,13.8,0c2,0.1,2.8-0.4,2.8-2.6C415.4,462.1,415.4,456.2,415.6,450.3z
		 M413.5,452.4c-0.1,4.6-0.1,9.2,0,13.8c0,1.6-0.5,2.3-2.2,2.3c-8.2-0.1-16.4-0.1-24.7,0c-1.6,0-2-0.7-1.9-2.1
		c0.1-4.7,0.1-9.4,0-14.1c-0.1-2,0.8-2.3,2.5-2.2c4.1,0.1,8.1,0,12.2,0c3.8,0,7.7,0.1,11.5,0C412.7,449.9,413.6,450.3,413.5,452.4z"
		/>
	<path d="M207.9,356.6c-1.9-4-3.4-7.2-4.9-10.5c-0.5-1.1-1.3-1.6-2.3-2c-10-3.6-20.1-7.2-31-11.2c1.5,3.3,2.8,5.9,3.8,8.5
		c1,2.5,2.5,3.9,5.1,4.7c7.6,2.5,15.1,5.4,22.6,8.1C203.2,355,205.2,355.7,207.9,356.6z M180.9,344.8c-4.1-1.2-5.7-3.8-6.8-8
		c2.9,1,5.5,1.9,8,2.8c4.8,1.7,9.6,3.8,14.5,5.1c4.1,1.1,5.7,3.9,6.9,8c-2.3-0.8-4.1-1.5-6-2.1C192,348.7,186.5,346.4,180.9,344.8z"
		/>
	<path d="M208.6,187.1c11.1-4,21.3-7.7,31.5-11.3c0.7-0.3,1.3-0.6,1.7-1.4c1.6-3.4,3.2-6.9,4.8-10.4c-0.5-0.1-0.7-0.2-0.9-0.2
		c-10,3.6-20.1,7.2-30.1,10.8c-0.7,0.2-1.4,0.5-1.8,1.3C212.2,179.4,210.6,182.9,208.6,187.1z M219.7,175.3c7.5-2.3,14.9-5.2,22.8-8
		c-1,4.3-2.9,6.9-7,8.1c-6.4,1.9-12.7,4.5-19,6.7c-0.9,0.3-1.9,1.1-3.2,0.6C214.3,179.2,215.7,176.5,219.7,175.3z"/>
	<path d="M213.9,170.1c0.8,0,1.1,0.1,1.4,0c10.1-2.6,20.3-5.3,30.4-8c0.8-0.2,1.6-0.5,2.1-1.4c1.8-3.2,3.7-6.4,6-10.5
		c-11.5,3.1-22,5.9-32.5,8.7c-0.7,0.2-1.2,0.5-1.5,1C217.8,163.3,215.9,166.6,213.9,170.1z M225.9,159.8c7.6-1.6,15.1-3.9,23-5.9
		c-1.4,4.5-3.9,6.6-8.2,7.5c-6.7,1.3-13.2,3.4-19.8,5.2c-0.7,0.2-1.4,0.5-2.3,0.1C219.9,163.1,221.8,160.6,225.9,159.8z"/>
	<path d="M174.9,205.2c1.1-3.9,1.8-7,2.8-10c0.6-1.9,0.3-3.4-0.7-5.1c-4.8-8.2-9.6-16.4-14.3-24.7c-0.5-0.8-0.6-1.9-1.9-2.1
		c-0.3,1-0.5,2.1-0.9,3.1c-2.8,6-1.6,11.2,2,16.6C166.5,189.8,170.3,197.2,174.9,205.2z M161.8,168.1c1.3,2.3,2.4,4.1,3.4,5.9
		c2.7,4.7,5.2,9.6,8.3,14.1c2.5,3.6,2.7,6.9,0.7,10.7c-1.3-0.2-1.4-1.4-1.9-2.3c-3.5-6-6.7-12.2-10.5-18
		C159.4,175,160.3,172.1,161.8,168.1z"/>
	<path d="M206.6,203.2c9.6-4.4,19.2-8.8,28.8-13.3c0.7-0.3,1.3-0.6,1.6-1.4c1.3-3.6,2.6-7.1,4.2-11.6c-10.7,5-20.5,9.5-30.3,14
		c-0.7,0.3-1.3,0.6-1.6,1.4c-1.3,3.6-2.6,7.1-4,11C206,203.3,206.3,203.3,206.6,203.2z M214,191.8c7.6-3.2,15.1-6.9,23.1-10.5
		c-0.6,4.4-2.2,7-6,8.5c-7.2,2.9-14.2,6.4-22,10C210.2,196.3,210.3,193.3,214,191.8z"/>
	<path d="M245.3,402.2c-4.2-6.2-8.1-11.9-16.5-10.7c-0.7,0.1-1.5-0.2-2.2-0.2c-7.7-0.7-15.4-1.3-23.9-2.1c2.3,2.7,4.1,4.7,5.7,7
		c1.6,2.2,3.4,3.5,6.3,3.5c3,0,5.9,0.5,8.9,0.8C230.7,401,237.8,401.6,245.3,402.2z M213.9,397.4c-3.4-0.3-3.9-3.4-6.4-5.7
		c9.8,0.9,18.7,1.6,27.6,2.5c2.7,0.3,3.4,3.1,5.4,5.2c-5,0.3-9.4-0.6-13.8-0.8C222.4,398.3,218.1,397.7,213.9,397.4z"/>
	<path d="M218.6,372.5c-3-6.5-5.7-12.8-14.1-13.1c-1.1,0-2.3-0.6-3.4-0.9c-7.1-1.9-14.2-3.8-22.1-5.9c2,3.5,3.6,6,4.9,8.7
		c1,2,2.4,3,4.5,3.5c6.8,1.7,13.6,3.7,20.4,5.4C212,371,215.1,372.3,218.6,372.5z M187.8,362.4c-2.5-0.7-2.8-3.7-4.4-6.4
		c6.9,1.8,13.1,3.5,19.4,5.1c1.3,0.4,2.7,0.9,4,1c4.1,0.4,6,3.1,7.4,7.3C205.1,367,196.4,364.9,187.8,362.4z"/>
	<path d="M227,144.5c-2.3,3.2-4.5,6.4-7.1,10.1c11.4-2,22.1-3.9,32.8-5.7c0.7-0.1,1.5-0.2,2-0.9c2.3-3.2,4.5-6.4,7.2-10.1
		c-11.6,2-22.4,3.9-33.2,5.8C228,143.8,227.4,144,227,144.5z M232.7,145c7.9-1,15.8-2.6,24-4c-1.7,4.4-4.5,6.2-8.8,6.7
		c-7.5,0.9-14.9,2.5-22.8,3.9C226.8,147.9,228.6,145.5,232.7,145z"/>
	<path d="M171.6,222.8c0.4,0.5,0.5,1.5,1.7,1.1c0.6-3.4,1.2-6.9,1.9-10.4c0.2-1,0.1-1.9-0.5-2.7c-6.3-8.9-12.5-17.8-19.3-27.5
		c-0.8,4.7-1.4,8.5-2,12.2c-0.2,1.1,0.5,1.8,1,2.6C160.1,206.4,165.8,214.6,171.6,222.8z M156.8,189.1c5.4,7.7,10.6,15,15.6,22.3
		c0.9,1.3,0.7,1.9-0.5,7.2c-1.2,0-1.4-1.1-2-1.8c-4.2-5.9-8.1-12-12.6-17.7C154.8,195.7,155.7,192.8,156.8,189.1z"/>
	<path d="M180.2,157.2c1,2.8,2.1,5.7,3.4,9.3c1.7-3.4,2.9-6.3,4.3-8.9c1.1-2,1-3.7,0.3-5.8c-2.8-7.4-5.5-14.8-8.2-22.2
		c-0.8-2.3-1.6-4.5-2.7-7.5c-1.7,3.6-3,6.5-4.4,9.3c-0.9,1.7-1,3.3-0.2,5.2C175.2,143.4,177.7,150.3,180.2,157.2z M177.2,128
		c1,2.8,2,5.4,2.9,8c1.7,4.7,3.1,9.6,5.2,14.1c1.8,4,1.1,7.1-1.6,10.5c-1.5-4.2-3-8.1-4.5-12.1c-1.1-3.1-2-6.4-3.4-9.3
		C173.8,135.2,174.1,131.7,177.2,128z"/>
	<path d="M232,204.4c0.8-0.4,1.4-1,1.6-1.9c0.9-3.6,1.8-7.2,2.8-10.9c-1.5,0.1-2.4,0.9-3.4,1.5c-7.3,4.2-14.6,8.4-22,12.6
		c-2.6,1.5-5.3,2.6-5.6,6.3c-0.2,2.8-1.8,5.5-1.9,8.8C213.3,215.1,222.7,209.7,232,204.4z M211.7,207.6c7.1-3.6,13.9-7.9,21.2-12
		c0,4.7-2,7.4-5.9,9.4c-6.7,3.5-13.2,7.5-20.1,11.5C207.3,212.5,207.9,209.5,211.7,207.6z"/>
	<path d="M190.4,148c1.5-2.6,2.6-4.8,4.1-6.7c2.3-3.1,2.6-6.2,1.3-9.8c-1.3-3.8-2.1-7.8-3.2-11.7c-1.4-5.3-2.9-10.6-4.5-16.6
		c-2.2,3.7-4,6.9-5.9,10c-0.5,0.9-0.6,1.8-0.4,2.8C184.6,126.3,187.4,136.8,190.4,148z M187.3,108.5c2.5,9.4,4.9,17.9,7.1,26.5
		c0.7,2.9-1.8,4.7-3.3,7.4c-2.5-9.3-5-18-7.1-26.8C183.4,113.1,186,111.4,187.3,108.5z"/>
	<path d="M174.1,312.6c5,2.9,10,5.7,15.6,9c-1-3.8-2-6.8-2.6-9.9c-0.4-2.1-1.5-3.3-3.3-4.3c-5-2.8-10-5.7-15-8.6
		c-3.9-2.3-7.9-4.5-12.4-7.1c1.6,6.9,1.8,13.7,9.6,16.4C168.9,309,171.4,311,174.1,312.6z M160,296.1c5.2,3,9.9,5.7,14.7,8.4
		c1.8,1.1,3.6,2.4,5.6,3.1c4.2,1.6,5.5,4.9,5.9,9.4c-7.2-4.2-14.1-8.4-21.2-12C161.2,303.1,160.4,300.1,160,296.1z"/>
	<path d="M262,376.8c2.1-11.6,4-22.3,5.9-33c0.2-1-0.1-1.9-0.7-2.7c-2.1-2.8-4.1-5.7-6.7-9.4c-2,11.7-3.9,22.5-5.8,33.3
		c-0.1,0.5-0.1,1.1,0.2,1.5C257.1,369.8,259.3,373,262,376.8z M257.4,361.3c1.8-7.7,2.8-15.5,4.3-23.8c2.6,2.8,4.6,5,3.7,9.1
		c-1.7,7.4-2.8,14.9-4.1,22.4c-0.1,0.5-0.3,1-0.6,1.7C258,368,256.4,365.4,257.4,361.3z"/>
	<path d="M178.4,185.7c1.3-3.6,2.3-6.6,3.5-9.5c0.8-1.9,0.7-3.5-0.2-5.4c-4.1-8.6-8.1-17.2-12.1-25.8c-0.4-0.8-0.5-1.9-1.8-2.3
		c-1.3,3.5-2.6,7-3.9,10.4c-0.3,0.8-0.2,1.4,0.2,2.1C168.8,165.2,173.4,175.1,178.4,185.7z M168.6,147.7c3.9,8.4,7.6,16.4,11.3,24.4
		c1.3,2.9-1,4.9-1.8,8.2c-2.4-5.2-4.6-9.7-6.7-14.2c-1.2-2.5-2.3-5-3.5-7.5C165.7,153.4,165.7,153.4,168.6,147.7z"/>
	<path d="M231.8,388.1c-2.2-3.2-4.1-5.5-5.6-8c-1.2-2-2.8-2.9-5.1-3.3c-4.4-0.6-8.8-1.5-13.2-2.3c-5.6-1-11.2-2-17.8-3.1
		c2.7,3.9,4.8,7,7,10.1c0.6,0.9,1.7,0.9,2.6,1c5.9,1,11.8,2.1,17.6,3.1C221.9,386.5,226.4,387.2,231.8,388.1z M194.9,374.4
		c6.9,1.2,13,2.2,19.2,3.3c1.4,0.2,2.7,0.7,4.1,0.7c4.3,0,6.8,2.5,8.5,6.6c-9.1-1.6-17.8-3-26.5-4.6
		C197.3,380,196.8,377.1,194.9,374.4z"/>
	<path d="M209.9,288.4c0.7-0.5,1-0.6,1.1-0.8c6.8-8,13.5-16,20.3-24c0.5-0.6,1.1-1.1,1-2c-0.6-3.8-0.3-7.7-1.5-11.9
		c-7.3,8.6-14.2,16.8-21.2,25.1c-0.5,0.6-1,1.1-0.9,2C209.1,280.6,209.5,284.4,209.9,288.4z M214.3,272.6c4.4-4.6,8.3-9.7,12.5-14.6
		c0.7-0.9,1.5-1.7,2.6-2.9c0.8,3.8,1.2,6.7-1.4,9.6c-5.5,6-10.5,12.3-16,18.8C210.5,278.9,211.2,275.7,214.3,272.6z"/>
	<path d="M230.2,336.3c5-10.6,9.5-20.3,14.1-30.1c0.4-0.9,0.6-1.8,0.2-2.8c-1.3-3.4-2.6-6.9-3.9-10.4c-0.4,0.3-0.6,0.4-0.7,0.6
		c-4.5,9.7-9.1,19.3-13.6,29c-0.4,0.8-0.5,1.6-0.2,2.5C227.4,328.6,228.6,332.1,230.2,336.3z M230,319.9c3.3-7,6.6-14,10-21.5
		c2.4,3.9,2.7,7,0.8,10.7c-3.7,6.8-6.7,14-10.1,21.2C227.7,325.1,227.6,324.8,230,319.9z"/>
	<path d="M238.8,292.4c0.5-0.9,0.7-1.7,0.4-2.7c-1-3.5-1.8-7-3-11.3c-5.1,8.8-9.4,17.2-14.7,24.8c-4.5,6.4-0.6,11.5,0.7,17.1
		C228,311,233.4,301.7,238.8,292.4z M223.3,304.4c4.2-6.4,7.8-13.2,11.7-20c2.5,4.8,2.5,5.8,0.1,10c-4,6.8-7.9,13.7-12,20.8
		C220.8,311.2,221,308,223.3,304.4z"/>
	<path d="M250.2,364.3c3-11.3,5.9-21.9,8.8-32.5c0.2-0.8,0.2-1.5-0.2-2.1c-1.9-3.2-3.7-6.4-6-10.3c-3,11.1-5.8,21.4-8.6,31.7
		c-0.3,0.9-0.5,1.9,0.1,2.8C246.2,357.1,248,360.4,250.2,364.3z M247,348.2c2.4-7.4,4.2-15,6.4-23.2c2.5,3.3,4,5.8,2.8,9.7
		c-2.4,7.7-4.3,15.5-6.5,23.6C247,355.1,245.7,352.3,247,348.2z"/>
	<path d="M179.9,300.7c0.9,0.6,1.7,1.6,3.2,1.6c-0.6-3.3-1.4-6.5-1.8-9.8c-0.2-1.9-1.1-3-2.6-4.1c-8-5.5-15.9-11.1-23.9-16.7
		c-0.7-0.5-1.2-1.2-2.4-1c0.6,3.1,1.3,6.1,1.6,9.1c0.2,2.4,1.4,3.8,3.3,5.1C164.8,290.2,172.3,295.5,179.9,300.7z M155.7,275
		c3.3,2.3,6.5,4.5,9.6,6.7c3.2,2.3,6.3,4.8,9.8,6.7c3.6,2.1,4.9,5,4.7,9c-1,0.4-1.5-0.5-2.1-0.9c-5.8-4-11.6-8.1-17.4-12.1
		C155.9,281.4,155.7,281,155.7,275z"/>
	<path d="M194.8,330.3c-0.7-2.2-1.9-3.5-4-4.5c-8.6-3.8-17-7.9-25.5-11.8c-0.8-0.4-1.6-1-2.9-0.7c1.3,3.6,2.6,7.1,3.9,10.6
		c0.3,0.8,0.8,1.2,1.5,1.5c9.8,4.6,19.7,9.2,30.4,14.1C196.7,335.8,195.6,333.1,194.8,330.3z M180.4,329c-2.7-1.3-5.3-2.8-8.1-3.7
		c-3.9-1.3-5.4-4.1-6-8.5c8.5,4,16.6,7.7,24.7,11.5c1.4,0.7,2,2.5,2.9,6.9C189.2,333.1,184.8,331,180.4,329z"/>
	<path d="M177.9,283.8c-0.3-4.1-0.6-7.3-0.7-10.6c-0.1-1.8-0.8-2.9-2.2-4c-6.8-5.7-13.6-11.4-20.4-17.1c-1.3-1.1-2.6-2.1-4.5-3.6
		c0.4,4.6,0.8,8.4,1.1,12.2c0.1,0.8,0.6,1.3,1.2,1.8C160.7,269.4,169,276.3,177.9,283.8z M160.8,260c3.5,2.9,6.8,6.1,10.6,8.8
		c3.4,2.4,4.4,5.5,3.7,9.9c-7.1-6-13.9-11.6-20.6-17.4c-2.2-1.9-1.3-4.7-1.7-7.9C155.8,255.8,158.3,257.9,160.8,260z"/>
	<path d="M239.3,350.1c0.5-0.4,0.7-0.5,0.8-0.6c3.6-9.9,7.3-19.8,10.9-29.8c0.3-0.8,0.5-1.6,0.2-2.5c-1.6-3.4-3.1-6.9-4.8-10.5
		c-0.5,0.6-0.7,0.8-0.8,1.1c-3.6,9.8-7.2,19.6-10.9,29.4c-0.3,0.7-0.6,1.4-0.2,2.2C236,342.9,237.6,346.4,239.3,350.1z M237.8,334.2
		c3.1-7.1,5.5-14.6,8.4-22.3c2.1,3.4,3.5,6.2,1.8,10.2c-3.1,7.3-5.6,15-8.5,22.8C237,341.3,236.1,338.3,237.8,334.2z"/>
	<path d="M215.3,305.3c6.7-9.6,13-18.4,19.2-27.3c0.5-0.7,0.7-1.3,0.5-2.1c-0.6-3.7-1.3-7.5-2-11.3c-0.5,0.2-0.7,0.3-0.8,0.4
		c-6.1,8.7-12.3,17.4-18.4,26.2c-0.4,0.6-0.8,1.3-0.7,2.1C213.8,297.1,214.5,300.8,215.3,305.3z M217.8,289.1
		c4.8-6.1,9-12.7,13.9-19.6c1,3.9,1.9,6.8-0.8,10.2c-4.9,6.3-9.3,13-14.1,19.9C215.1,295.6,215.2,292.4,217.8,289.1z"/>
	<path d="M229.1,234c0.5-0.4,1.1-1,1.1-1.5c0.3-3.9,1.1-7.7,0.9-11.8c-0.6,0.3-0.9,0.3-1.1,0.5c-8,6.6-15.9,13.3-23.9,19.9
		c-0.8,0.6-1.4,1.3-1.5,2.3c-0.3,3.7-0.7,7.4-1.1,11.3c0.6-0.2,1-0.3,1.2-0.5C212.9,247.5,221,240.7,229.1,234z M209.5,240.8
		c6.3-4.9,12.4-10.2,18.9-15.7c0.6,4.2-0.1,7.1-3.4,9.7c-6.3,4.8-12.2,10-18.7,15.4C206.2,246.3,206.3,243.3,209.5,240.8z"/>
	<path d="M230.3,218.8c0.4-0.3,0.8-0.8,0.9-1.3c0.7-3.8,1.4-7.5,2-11.2c-0.9-0.3-1.3,0.1-1.7,0.4c-8.4,5.9-16.8,11.7-25.3,17.6
		c-0.6,0.4-1.3,0.8-1.4,1.6c-0.7,3.8-1.4,7.7-2.2,12.3C212.3,231.4,221.3,225.1,230.3,218.8z M209.8,224.2c6-3.7,11.6-7.9,17.4-12
		c0.8-0.6,1.7-1.1,2.9-1.8c0.1,4-0.7,7-4.3,9.2c-5.9,3.6-11.4,7.9-17.1,11.8c-0.8,0.6-1.5,1.5-3,1.4
		C206.2,229.5,206.3,226.4,209.8,224.2z"/>
	<path d="M266.8,378.5c2.5,3.1,5,6.1,8.1,9.7c1-11.7,1.9-22.4,2.9-33.1c0.1-0.9,0.1-1.7-0.5-2.4c-2.4-2.8-4.8-5.7-7.3-8.8
		c-0.3,0.8-0.5,1.1-0.6,1.5c-0.9,10.3-1.9,20.6-2.8,30.9C266.5,377.1,266.4,378,266.8,378.5z M268.8,373.1
		c1.2-7.8,1.5-15.7,2.2-23.9c3.7,2.8,4.9,5.9,4.3,10c-0.9,6.7-1.3,13.4-1.9,20.1c-0.1,0.9,0.2,1.9-0.8,2.7
		C270,379.7,268.2,377.3,268.8,373.1z"/>
	<path d="M229.5,249c0.7-0.7,1.2-1.4,1.2-2.5c0-3.6,0-7.3,0-10.9c-0.3-0.2-0.6-0.3-0.9-0.5c-6.6,6.7-12.8,13.8-19.9,19.9
		c-5.8,5-3.2,10.8-3.4,16.6C214.5,264.2,222,256.6,229.5,249z M211.5,256.5c5.6-5.2,10.8-10.9,16.7-17c0.5,4.3,0.9,7.2-2.2,10
		c-5.9,5.5-11.4,11.5-17.5,17.7C207.4,262.5,208.4,259.4,211.5,256.5z"/>
	<path d="M173,244.6c0.4-4.1,0.6-7.1,1-10.2c0.3-2.1-0.3-3.6-1.7-5.2c-6.2-7.2-12.3-14.5-18.5-21.8c-0.6-0.7-0.9-1.8-2.2-1.6
		c-0.1,1.5-0.1,3-0.4,4.5c-1.2,5.2,0.2,9.3,4,13.3C161.3,230.1,166.7,237.1,173,244.6z M153.8,210.6c5.9,7,11.6,13.7,17.2,20.4
		c2.1,2.5-0.1,5.1-0.1,7.9c-3.2-3.8-6.4-7.6-9.6-11.4c-1.9-2.2-3.5-4.6-5.6-6.6C152.7,218,152.3,214.8,153.8,210.6z"/>
	<path d="M279.9,389.8c2.7,2.7,5.3,5.4,8.2,8.4c0.3-0.9,0.4-1.2,0.4-1.5c0-10.5,0-21,0-31.4c0-0.9-0.1-1.7-0.7-2.4
		c-2.6-2.7-5.1-5.4-7.6-8.1c-0.3,0.2-0.6,0.4-0.9,0.6c0,10.8,0,21.6,0,32.4C279.4,388.5,279.3,389.2,279.9,389.8z M281.3,383.3
		c0.4-7.6,0.1-15.3,0.1-23.5c3.1,2.4,5.4,4.3,5.2,8.4c-0.3,8.1-0.1,16.1-0.1,24.7C282.7,390.3,281.1,387.6,281.3,383.3z"/>
	<path d="M198,115.8c1,5.3,1.9,10.7,3,16.7c1.8-2.6,3-4.7,4.6-6.5c2.1-2.5,2.7-5,1.9-8.2c-1-4.1-1.5-8.4-2.3-12.6
		c-0.9-5.1-1.8-10.2-2.9-16.1c-2,2.8-3.3,5-5,7.1c-1.7,2.1-2.3,4.3-1.6,7.1C196.8,107.3,197.2,111.6,198,115.8z M201.3,94.9
		c1.6,8.9,3.2,17.4,4.5,25.9c0.3,2.3-1.9,3.8-3.6,6.1c-1.1-6-2.1-11.4-3-16.8c-0.3-1.8-0.4-3.6-1-5.3
		C196.9,100.9,197.9,97.8,201.3,94.9z"/>
	<path d="M254,408.1c-1.6-1.8-3.4-2.6-5.8-2.5c-6.8,0.2-13.7,0.1-20.5,0.1c-3.4,0-6.7,0-10.3,0c0.5,1.6,1.7,2.1,2.3,3
		c3.7,5.3,8.7,6.9,15.2,6.4c8.3-0.6,16.6-0.1,24.9-0.1c0.1-0.3,0.2-0.5,0.3-0.8C258.1,412.2,255.9,410.3,254,408.1z M253.4,412.8
		c-8.1,0-16.3-0.1-24.4,0.1c-3.4,0-4.4-2.8-6.1-5.1c8.8,0,17.5,0,26.3,0c3.1,0,3.9,3,5.9,4.4C254.7,413.2,253.9,412.8,253.4,412.8z"
		/>
	<path d="M151.2,240.8c7.6,7.6,15.3,15.2,23.5,23.4c0-3.7-0.1-6.8,0-9.8c0.1-2.2-0.6-3.8-2.2-5.3c-5.1-5-10.2-10.1-15.2-15.2
		c-2.2-2.3-4.2-4.7-6.3-7.1c-0.3,0.2-0.6,0.4-0.9,0.6c0,3.7,0,7.4,0,11.1C150.1,239.5,150.6,240.2,151.2,240.8z M154.3,233.8
		c5.1,5,9.9,10.3,15.2,15.1c3.1,2.8,3.7,5.9,2.8,10.1c-6.6-6.6-12.8-12.8-19.1-19.1c-2.2-2.2-0.4-4.9-1.2-7.3
		C153.4,232.2,153.8,233.3,154.3,233.8z"/>
	<path d="M234,131.8c-2,2.4-4,4.7-6.6,7.8c8.9-0.7,16.8-2,24.8-1.9c7,0.1,8.5-5.4,11.9-9.1c-9.4,0.4-18.7,1.3-27.9,2.1
		C235.3,130.7,234.6,131.1,234,131.8z M259.5,130.7c-1.6,3.6-3.9,4.6-7.1,4.7c-5.5,0.2-11.1,0.8-16.6,1.3c-0.8,0.1-1.7,0.4-2.5-0.3
		c1.2-2.3,2.7-3.8,5.5-4C245.6,132,252.3,131.3,259.5,130.7z"/>
	<path d="M358,435.5c0.1,0,0.2,0,0.3,0c2,0.2,2.1-0.6,1.4-2.2c-2.9-6.2-5.6-12.4-8.4-18.7c-0.5-1.2-1.1-1.9-2.6-1.9
		c-3.1,0.1-6.2,0-9.7,0c1.9,4.8,3.7,9.4,5.5,13.9C348.1,435.9,348.1,435.9,358,435.5z M347,427.5c-1.3-3.4-2.6-6.8-4.1-10.1
		c-0.9-2.1-0.3-2.4,1.8-2.5c3.3-0.3,5,0.8,6.1,4c1.8,4.8,4.1,9.3,6.4,14.3C349.6,433.9,349.6,433.9,347,427.5z"/>
	<path d="M450.3,412.8c-2.1-0.3-3,0.8-3.8,2.5c-2,4.8-4.3,9.6-6.4,14.3c-2.6,5.8-2.6,5.8,3.8,5.8c0.7,0,1.5-0.1,2.2,0
		c3,0.5,4.6-0.7,5.5-3.7c1.1-3.7,2.9-7.1,4.2-10.7c1-2.6,3.6-5.9,2.5-7.6C457,411.5,453.1,413.2,450.3,412.8z M455.4,416.7
		c-2,5.1-4.1,10.1-6,15.2c-0.9,2.4-2.9,1.2-4.2,1.5c-0.8,0-1.5,0-2.1,0c-2,0.2-2-0.7-1.3-2.3c2.2-4.6,4.2-9.3,6.3-14
		c0.8-1.8,5.4-3.1,7.1-2.1C456.1,415.6,455.6,416.2,455.4,416.7z"/>
	<path d="M431.2,431.8c1.1-3.6,2.8-6.9,4.1-10.4c1-2.7,3.8-6.2,2.6-7.8c-1.4-2-5.5-0.4-8.5-0.7c-1.6-0.2-2.5,0.5-3.1,2
		c-2.1,5-4.5,9.9-6.7,14.9c-2.6,5.8-2.6,5.8,3.9,5.8c0.7,0,1.5-0.1,2.2,0C428.8,436.1,430.3,434.7,431.2,431.8z M424.6,433.4
		c-0.9,0-1.7,0-2.4,0c-1.3,0-1.8-0.3-1.2-1.7c2.3-5.1,4.6-10.3,7-15.5c0.5-1.2,6.3-1.9,7-1c0.5,0.6,0,1.2-0.3,1.8
		c-1.9,4.9-4,9.7-5.8,14.6C428,434.2,426.1,433.2,424.6,433.4z"/>
	<path d="M371.6,414.3c-0.4-1-1-1.5-2.2-1.5c-3.2,0.1-6.3,0-10,0c2,4.9,3.7,9.4,5.6,14c3.6,8.9,3.6,8.9,13.2,8.7c0.2,0,0.4,0,0.6,0
		c1.6,0.1,2.1-0.3,1.3-2C377.4,427.2,374.5,420.7,371.6,414.3z M373.2,433.4c-2.6,0.8-3.8-0.9-4.7-3.6c-1.5-4.3-3.3-8.6-5.1-12.8
		c-0.7-1.6-0.2-1.9,1.4-2.1c3.4-0.4,5.6,0.4,6.7,4c1.2,3.6,3.1,7,4.7,10.5C377.9,433.4,377.9,433.4,373.2,433.4z"/>
	<path d="M212.1,116.5c0.1,0.7-0.1,1.5,1,2c1.1-1.3,2.2-2.8,3.5-4c2.2-2,2.7-4.3,2.4-7.1c-0.8-7.2-1.4-14.4-2.1-22.5
		c-2.3,2.7-4.1,4.8-5.9,6.8c-0.8,0.9-0.9,1.8-0.8,2.9C210.8,101.9,211.4,109.2,212.1,116.5z M215.2,90.4c0.4,4.3,0.8,8.2,1.2,12.2
		c0.2,1.7,0.2,3.4,0.5,5.1c0.5,2.5-0.4,4.3-2.9,5.8c-0.5-6-0.9-11.7-1.5-17.3C212.2,93.8,212.9,92.1,215.2,90.4z"/>
	<path d="M261.3,125.7c1.8-1.7,3.6-3.3,5.5-4.9c-0.2-0.4-0.3-0.7-0.5-1.1c-6,0-12,0.5-17.9-0.1c-5.8-0.6-8.5,2.9-12,7.1
		c8,0,15.4,0,22.7,0C260,126.7,260.7,126.3,261.3,125.7z M241.6,124.5c1-1.6,1.7-2.7,3.2-2.7c5.5,0,11,0,16.7,0
		c-0.9,1.8-1.8,2.7-3.6,2.7C252.7,124.5,247.4,124.5,241.6,124.5z"/>
	<path d="M442.4,463.9c-2.5-1.9-4.8-5.8-7.4-5.4c-2.6,0.4-4.7,4.1-7,6.3c-0.1,0.1-0.2,0.2-0.2,0.2c-1,0.8-1.2,1.5-0.2,2.6
		c2.9,3.3,5.6,6.7,8.3,10.2c0.9,1.1,1.6,1.1,2.6,0.2c3-2.5,6.2-5,9.3-7.4c0.4-0.3,0.9-0.5,2.1-1c-1.3-0.8-1.8-1-2.2-1.4
		C445.8,466.8,444.1,465.2,442.4,463.9z M442.9,471.7c-5.6,4.5-5.6,4.5-10.1-0.9c-0.1-0.1-0.1-0.2-0.2-0.2c-3.4-4.1-2.9-6.4,1.7-9.2
		c0.6-0.4,1.1-0.5,1.7,0c2.9,2.4,5.7,4.8,8.6,7.2c0.3,0.3,0.5,0.6,0.8,1.1C444.5,470.3,443.7,471,442.9,471.7z"/>
	<path d="M365.9,460.4c-0.8-0.9-1.4-1.9-2.1-2.8c-1.1,0.8-1.6,1.1-2.1,1.5c-2.4,2-4.8,4-7.1,5.9c-5.4,4.5-5.4,4.5,0.1,8.8
		c2.2,1.7,4.6,4.8,6.6,4.6c2-0.2,3.7-3.7,5.4-5.9c1.6-2.1,4.7-3.9,4.5-6.3C370.8,463.9,367.6,462.4,365.9,460.4z M366.7,469.1
		c-0.2,0.3-0.4,0.5-0.6,0.7c-5.7,7-6.1,7-12.4,0.5c-0.6-0.6-1.1-1.1-0.2-1.8c2.9-2.5,5.9-4.9,8.8-7.4c0.2-0.2,0.6-0.3,1.2-0.5
		c1.6,1.7,3.5,3.3,4.8,5.3C369.1,467.3,367.2,468.1,366.7,469.1z"/>
	<path d="M227.7,101.4c0.4-5.9,0.1-11.9,0.1-17.8c-2.5,1.6-5.4,3-5.6,5.4c-0.5,6.1-0.2,12.3-0.2,18.4
		C224.2,105.5,227.5,104.3,227.7,101.4z M225.2,88.8c1,4.1,0.6,11.5-0.6,13.4C223.6,98.2,224,90.4,225.2,88.8z"/>
	<path d="M244,116.2c4.9,0.4,9.4,0.4,13.8,1.3c4.7,1,7.3-1.6,10.5-4.9c-4.7-0.4-8.9-0.4-12.9-1.2C250.6,110.3,247.3,112.2,244,116.2
		z M262.6,114.7c-4.2,1.6-8.5-0.2-12.8-0.5C254.1,112.9,258.3,114.1,262.6,114.7z"/>
	<path d="M430.2,313.1c3.9,2.6,8.2,4.7,12.1,7.3c2.1,1.4,3,0.9,4-1.2c1.5-3,3.2-5.8,4.8-8.7c0.7-1.4,1.6-2.3,3.4-2.5
		c3.3-0.5,6.5-1.4,9.8-1.8c2.4-0.4,3.2-1.2,2.5-3.7c-1.2-4.5-2-9.2-3.2-13.7c-0.5-1.9-0.1-2.6,1.8-3.1c6.3-1.6,12.6-3.5,18.9-5.1
		c1.9-0.5,2.3-1.2,1.5-3.1c-1.9-4.6-3.6-9.4-5.5-14c-0.7-1.6-0.3-2.5,1.1-3.4c4.3-2.6,8.4-5.5,12.7-8.1c1.8-1.1,1.9-1.8,0.6-3.4
		c-4.2-5-8.1-10.2-12.3-15.2c-1.3-1.5-1.1-2.3,0.3-3.6c3.1-2.6,6.1-5.3,9.2-8c3.8-3.3,3.8-3.4,0.3-7.1c-7.3-7.8-7.3-7.8-5.7-18.5
		c0.1-0.6,0.2-1.3,0.3-1.9c0.4-1.8-0.2-2.4-2.1-2.6c-5-0.4-10-1-15-1.4c-1.9-0.2-2.8-0.7-2.6-2.9c0.6-6.4,0.8-12.8,1.4-19.2
		c0.2-2.3-0.6-2.7-2.6-2.5c-4.7,0.4-9.4,0.5-14.1,1c-2.2,0.2-3.3-0.2-3.8-2.6c-1-4.7-2.5-9.3-3.6-14c-0.5-1.8-1-2.6-3.1-1.7
		c-5.9,2.6-11.9,4.8-17.7,7.4c-1.9,0.8-2.8,0.5-3.5-1.4c-1.9-4.7-4-9.2-5.9-13.9c-0.8-2-1.7-2.3-3.6-1.3c-3,1.6-6.2,2.8-9.3,4.4
		c-1.5,0.8-2.7,0.7-4.2,0c-3.2-1.6-6.4-2.9-9.6-4.5c-1.8-1-2.6-0.4-3.3,1.3c-1.9,4.5-4,9-5.8,13.6c-0.8,2.2-1.7,2.7-3.9,1.7
		c-5.9-2.6-11.9-4.9-17.7-7.4c-1.7-0.7-2.4-0.5-2.8,1.4c-0.7,3.3-1.7,6.6-2.6,9.9c-1.9,7-1.8,7-9,6.6c-0.9,0-1.7-0.1-2.6-0.1
		c0,0,0,0.1,0,0.1c-2.5-0.2-4.9-0.2-7.4-0.6c-2.3-0.3-3,0.4-2.8,2.7c0.6,6.3,0.8,12.6,1.4,18.9c0.2,2.4-0.7,3-2.7,3.1
		c-4.9,0.4-9.8,1-14.7,1.3c-1.9,0.1-2.4,0.8-2.1,2.6c0.5,3.2,0.7,6.4,1.2,9.5c0.3,2.3,0,4.1-1.8,5.7c-2.4,2.2-4.5,4.9-6.8,7.2
		c-1.2,1.2-1.2,1.9,0.2,3.1c3.8,3.2,7.3,6.6,11.1,9.7c1.8,1.4,1.8,2.4,0.4,4c-4.1,4.8-7.9,9.9-11.9,14.7c-1.5,1.8-1.2,2.7,0.7,3.8
		c4.2,2.5,8.3,5.3,12.5,7.9c1.5,0.9,1.7,1.8,1.1,3.4c-1.9,4.6-3.6,9.4-5.6,14c-0.8,1.9-0.4,2.6,1.5,3.1c6.2,1.6,12.3,3.5,18.6,5
		c2.3,0.6,2.6,1.6,2.1,3.6c-1,4.1-1.7,8.4-2.9,12.5c-0.8,2.9-0.5,4.4,2.9,4.7c3.1,0.3,6.1,1.3,9.1,1.7c1.7,0.2,2.6,1.1,3.4,2.5
		c1.5,2.9,3.4,5.7,4.8,8.7c1.1,2.5,2.3,2.3,4.3,1c4-2.5,8.1-4.8,12.1-7.3c1.5-1,2.3-0.7,3.2,0.8c3.6,5.6,7.4,11,10.9,16.6
		c1,1.5,1.7,1.8,3.2,0.5c3.8-3.3,7.8-6.3,11.6-9.6c1.4-1.2,2.3-1.3,3.7,0c3.8,3.3,7.8,6.3,11.6,9.6c1.4,1.2,2.1,1.1,3.2-0.5
		c3.5-5.5,7.3-10.8,10.8-16.3C427.6,312.3,428.4,311.9,430.2,313.1z M491.4,247.8c1.6,1.9,1.2,2.7-0.7,3.8c-4,2.4-7.9,5.1-11.9,7.6
		c-1.5,0.9-1.8,1.7-1.1,3.3c1.9,4.5,3.6,9.1,5.3,13.7c0.3,0.8,1.3,1.8-0.3,2.3c-6.3,1.8-12.5,3.5-18.8,5.3c-1.2,0.3-1.4-0.5-1.6-1.4
		c-2-9.2-4.1-18.3-6.2-27.5c-0.3-1.3,0.5-1.9,1.3-2.7c6.7-6,13.5-11.9,20.1-17.9c1.3-1.2,2-1.3,3.2,0.2
		C484.2,239.1,487.7,243.5,491.4,247.8z M424.4,157.7c5.2-2,10.3-4.1,15.4-6.3c1.9-0.8,2.6-0.5,3.1,1.5c1,4.4,2.4,8.6,3.3,13
		c0.5,2.5,1.6,3.2,4.1,3c4.1-0.4,8.3-0.3,12.5-0.8c3-0.4,3.9,0.7,3.3,3.2c-0.4,5.7-0.8,11.2-1.2,16.6c-0.1,1.5-0.4,2-2,1.9
		c-8.7-0.9-17.5-1.7-26.2-2.5c-1.9-0.2-3-0.9-3.8-2.8c-3.3-7.8-6.6-15.5-10.1-23.2C421.9,159.1,422.4,158.4,424.4,157.7z M334.3,168
		c1.1,0.1,2.1,0,3.2,0c0,0,0,0.1,0,0.1c3.7,0.2,7.5,0.4,11.2,0.7c1.7,0.1,2.5-0.4,2.9-2.1c1.1-4.7,2.5-9.3,3.6-13.9
		c0.5-1.9,1.1-2.4,3.1-1.5c5.3,2.3,10.6,4.5,16,6.6c1.5,0.6,1.9,1.3,1.2,2.8c-3.6,8.1-7.1,16.2-10.6,24.4c-0.5,1.2-1.2,1.9-2.5,2
		c-9.1,0.9-18.3,1.8-27.4,2.7c-1.4,0.1-1.6-0.5-1.7-1.6c-0.4-6-0.8-11.9-1.2-17.9C331.8,168.3,332.6,167.8,334.3,168z M333.6,283.7
		c-5.9-1.6-11.7-3.3-17.6-4.8c-1.8-0.5-1.4-1.4-0.9-2.6c1.7-4.4,3.3-8.8,5.2-13.1c1-2.2,0.4-3.2-1.5-4.3c-4-2.4-7.9-5.1-11.9-7.6
		c-1.4-0.9-1.7-1.5-0.6-2.9c3.8-4.6,7.6-9.3,11.2-14c0.9-1.2,1.6-1.3,2.7-0.2c6.8,6.2,13.7,12.2,20.6,18.3c0.7,0.6,1.6,1.2,1.1,2.4
		c-2,9.2-4.1,18.3-6.1,27.5C335.6,283.9,334.8,284,333.6,283.7z M356.9,317.4c-2.3,1.4-3.4,1.1-4.2-1.2c-2.6-7.7-8-11.6-16.1-11.7
		c-3,0-3-1.6-2.5-3.9c3.3-14.7,6.5-29.4,9.9-44.1c0.6-2.7,0-4.3-2-6c-11.5-10.1-22.9-20.3-34.4-30.3c-1.6-1.4-1.9-2.4-0.2-3.7
		c7.1-5.1,9-11.9,6.5-20c-0.6-2.1,0.3-2.5,2.2-2.6c15.1-1.4,30.2-3,45.4-4.3c2.9-0.3,4.5-1,5.7-3.9c5.9-14,12.1-27.8,18-41.8
		c1-2.2,1.9-2.8,3.9-1.4c6.8,5,13.7,4.8,20.5-0.1c1.9-1.3,2.8-0.7,3.6,1.4c5.9,14,12.1,27.8,18,41.8c1.2,2.8,2.7,3.8,5.6,4
		c15,1.3,30,2.8,45,4.2c2.1,0.2,3.5,0.5,2.6,2.6c-0.1,0.8,0,1.1-0.1,1.4c-2.5,7.7,0,13.6,6.3,18.3c2.3,1.7,1.6,2.9-0.3,4.6
		c-11.5,10.1-22.9,20.3-34.4,30.4c-1.7,1.5-2.1,2.8-1.6,4.9c3.4,14.8,6.6,29.6,10,44.4c0.6,2.8,0.3,4.3-2.9,4.3
		c-8,0-13,4.1-15.6,11.5c-0.9,2.5-2.1,2.7-4.5,1.3c-12.8-7.7-25.8-15.2-38.6-23c-2.7-1.6-4.5-1.5-7.2,0.1
		C382.6,302.1,369.7,309.6,356.9,317.4z M425.1,312.5c-3.4,4.9-6.7,9.9-10,14.9c-0.3,0.5-0.6,1.1-1.5,1.3c-0.5-0.4-1.1-0.8-1.7-1.3
		c-3.6-2.9-7.2-5.7-10.7-8.8c-1.6-1.4-2.6-1.5-4.3-0.1c-3.5,3.1-7.3,5.9-10.9,9c-1.3,1.1-2.1,1.3-3.2-0.3c-3.2-5-6.4-9.8-9.8-14.7
		c-1-1.4-0.8-2.1,0.7-3c7.9-4.6,15.9-9.3,23.7-14c1.2-0.7,2.1-0.6,3.2,0.1c7.8,4.7,15.6,9.3,23.5,13.9
		C425.6,310.4,426.1,311,425.1,312.5z"/>
	<path d="M403.9,247.6c2-0.9,2.8-0.2,3.9,1.3c8.9,12.4,17.9,24.8,26.9,37.1c1.1,1.5,1.1,2.5,0.1,4.2c-2.3,3.8-1,8.6,2.7,10.9
		c3.1,2,7.1,1.6,9.8-0.8c2.7-2.4,3.5-6.3,2-9.7c-1.6-3.3-5-5.1-8.7-4.5c-1.4,0.2-2.6,1-3.9-0.8c-9.2-12.9-18.5-25.7-27.8-38.5
		c-0.8-1.1-0.8-1.7,0.1-2.7c2.6-2.8,3.7-6.2,3.4-10c-0.2-1.5,0.3-2.2,1.9-2.7c15-4.8,29.9-9.7,44.8-14.6c1.3-0.4,2-0.3,2.9,0.8
		c3,3.5,7,4.3,10.6,2.2c3.4-2,4.9-6,3.7-9.7c-1.3-3.7-4.7-5.9-8.8-5.5c-4,0.4-6.7,3.2-7.1,7.8c-0.1,1.4-0.6,2.1-1.9,2.5
		c-15,4.9-30.1,9.7-45.1,14.7c-1.4,0.5-2.1,0.1-2.8-1.1c-1.9-3.3-4.8-5.5-8.6-6.2c-1.8-0.3-1.8-1.3-1.8-2.7c0-15.6,0-31.3,0-46.9
		c0-1.4,0.3-2.2,1.8-2.8c4.1-1.6,6.1-5.5,5.1-9.6c-0.8-3.6-4.2-6.3-8-6.3c-3.7,0-7.2,2.7-8,6.2c-1,4.1,0.9,7.9,5,9.6
		c1.7,0.7,2,1.5,2,3.1c-0.1,7.7,0,15.4,0,23.1c0,7.5,0,15,0,22.5c0,2.1-0.1,3.5-2.8,4c-3.1,0.5-5.7,2.6-7.3,5.4
		c-1.1,2-2.2,2-4.1,1.4c-14.4-4.8-28.8-9.5-43.3-14.1c-1.8-0.6-3-1.1-2.9-3.4c0.1-2.1-1.1-3.9-2.7-5.2c-3.4-2.9-8.6-2.5-11.5,0.8
		c-2.8,3.3-2.6,8.4,0.5,11.3c3.3,3.1,8.4,3,11.6-0.3c1-1,1.4-2.3,3.6-1.6c14.9,5,29.8,9.8,44.8,14.6c1.4,0.5,2.1,1,1.9,2.7
		c-0.5,3.7,0.6,7.1,3.1,9.8c1.3,1.4,0.9,2.2,0,3.5c-9.1,12.5-18.3,25.1-27.3,37.7c-1,1.3-1.8,1.6-3.4,1.3c-4.3-0.9-7.9,0.9-9.5,4.6
		c-1.5,3.5-0.4,7.8,2.8,10c3.1,2.2,7.2,1.9,10.1-0.5c3-2.6,3.8-6.9,1.5-10.5c-1-1.7-0.6-2.6,0.3-3.9c9-12.4,18-24.7,26.9-37.2
		c1.1-1.5,1.9-2.1,3.9-1.2C397.4,249,400.8,249,403.9,247.6z M441.8,288.1c3.4-0.1,6.2,2.5,6.3,5.9c0.1,3.3-2.7,6.2-6,6.3
		c-3.3,0.1-6.1-2.6-6.2-6C435.8,290.9,438.4,288.2,441.8,288.1z M468.3,206.6c3.4,0,6.2,2.6,6.2,6c0.1,3.3-2.7,6.2-6,6.2
		c-3.3,0.1-6.1-2.6-6.2-6C462.2,209.4,464.9,206.6,468.3,206.6z M329.9,218.8c-3.3,0.1-6.2-2.6-6.3-5.9c-0.1-3.4,2.5-6.2,5.9-6.3
		c3.4-0.1,6.3,2.6,6.3,5.9C335.9,215.9,333.2,218.7,329.9,218.8z M356.3,300.3c-3.3,0.1-6.2-2.8-6.2-6c-0.1-3.3,2.6-6.1,6-6.2
		c3.4-0.1,6.1,2.6,6.2,6C362.3,297.5,359.7,300.2,356.3,300.3z M393,162.1c0.1-3.4,2.9-6.1,6.2-6c3.3,0.1,6.1,3,6,6.3
		c-0.1,3.4-2.7,5.9-6.2,5.8C395.4,168.1,392.9,165.6,393,162.1z M387.9,235.2c0-6.3,4.9-11.2,11.1-11.2c6.2,0,11.3,4.9,11.4,11
		c0.1,6.3-5.1,11.5-11.3,11.5C392.9,246.4,387.9,241.4,387.9,235.2z"/>
	<path d="M386.6,271.1c-0.3-0.1-0.7-0.2-1-0.3c-1.5,4.7-3.1,9.4-4.5,14.1c-0.4,1.5-1.1,2.3-2.7,2.6c-3.1,0.6-4.8,2.7-4.8,5.9
		c0,3,1.5,5,4.4,5.9c2.9,0.9,5.3-0.2,6.9-2.7c1.7-2.7,1.3-5.4-1-7.5c-1.4-1.2-1.4-2.4-1-3.9C384.1,280.5,385.4,275.8,386.6,271.1z
		 M383.7,293.1c0,2.5-1.7,4.3-4,4.3c-2.3,0-4.1-1.8-4-4.1c0.1-2.4,1.4-3.8,3.8-3.9C382,289.4,383.4,290.8,383.7,293.1z"/>
	<path d="M456.1,230.7c-1.7,3.2-4,2.8-6.6,2.8c-4.1,0-8.2,0-12.3,0c4.3,1.7,8.8,1.3,13.2,1.7c2.2,0.2,4,0.4,5.3,3
		c1.6,3.2,6.2,3.6,8.9,1.2c2.7-2.3,2.9-6.3,0.5-8.9C462.5,227.8,457.8,227.5,456.1,230.7z M460.5,238.7c-2.4,0-3.9-1.4-3.9-4
		c0-2.6,1.6-4,4-4c2.4,0,3.8,1.5,4,4.1C464.3,237.2,463,238.7,460.5,238.7z"/>
	<path d="M414.8,186.9c0.9-2.4,1.8-4.1,4.7-4.6c3.6-0.7,5.2-4.8,3.7-8.2c-1.5-3.3-5.4-4.6-8.6-2.9c-3.1,1.7-4.4,6.1-2,8.8
		c1.8,2,1.5,3.6,0.8,5.7c-1.5,4.2-2.9,8.5-4.3,12.8c0.3,0.1,0.6,0.2,0.9,0.3C411.6,194.9,413.3,190.9,414.8,186.9z M413.6,176.6
		c0-2.6,1.5-3.8,3.6-4c2.7,0,4.5,1.9,4.4,4.1c-0.2,2.3-1.5,3.9-3.9,3.8C415.3,180.5,413.6,179.3,413.6,176.6z"/>
	<path d="M434.3,211.8c2.9-2.1,5.7-4.2,8.5-6.3c1.1-0.9,2-1.4,3.6-0.6c2.8,1.4,5.5,0.8,7.4-1.7c1.8-2.4,1.9-5,0.1-7.4
		c-1.8-2.4-4.3-3.2-7.1-2c-3,1.2-4.3,3.6-3.7,6.7c0.3,1.8-0.2,2.7-1.6,3.8c-3.5,2.8-6.9,5.7-10.5,8.6
		C432.6,213.5,433.4,212.5,434.3,211.8z M445,199.1c0.3-2.4,1.8-3.5,4.2-3.5c2.3,0,4,1.9,3.8,4.2c-0.1,2.3-2,3.9-4.3,3.7
		C446.5,203.3,444.8,201.3,445,199.1z"/>
	<path d="M379.6,182.6c2,0.3,2.6,1.3,3.2,2.9c1.7,4.5,3.5,8.9,5.3,13.3c0.3-0.1,0.6-0.2,0.9-0.3c-1.5-4.6-3-9.3-4.6-13.9
		c-0.5-1.5-0.6-2.6,0.7-4c2.1-2.3,2.1-5.3,0.4-7.7c-1.9-2.5-4.4-3.1-7.2-2.1c-2.7,1-4.1,3.1-3.9,6
		C374.6,180.1,376.5,182.2,379.6,182.6z M380.5,172.6c2.3-0.1,4.1,1.7,4.2,4.2c-0.1,2.3-1.6,3.6-4,3.8c-2.2,0.2-4.2-1.7-4.1-3.9
		C376.6,174.3,377.9,172.7,380.5,172.6z"/>
	<path d="M350.1,205.4c3.5-1.4,5.5,0.2,7.8,2c3.1,2.4,6.2,4.6,9.3,6.9c0.2-0.3,0.4-0.5,0.6-0.8c-3.4-2.8-6.7-5.7-10.2-8.4
		c-1.8-1.4-3.1-2.7-2.6-5.5c0.6-3.5-2.7-6.4-6.1-6.3c-3.4,0.1-6.3,3.2-6,6.6C343.2,203.6,346.7,206.7,350.1,205.4z M349.2,195.5
		c2.4,0.1,3.8,1.4,4,3.8c0.2,2.2-1.7,4.2-3.9,4.2c-2.3,0.1-4.2-1.7-4.2-4C345,197.3,346.9,195.4,349.2,195.5z"/>
	<path d="M420,287.6c-2-0.3-2.6-1.5-3.1-3.1c-1.4-4.5-2.8-9.1-4.3-13.6c-0.4,0.1-0.7,0.1-1.1,0.2c1.1,4.5,2.2,9,3.5,13.5
		c0.5,1.9,0.7,3.2-1,4.8c-2.2,2-2.4,4.8-0.7,7.3c1.6,2.5,4,3.5,6.9,2.6c2.9-0.9,4.4-2.9,4.3-6C424.5,290.2,422.9,288.1,420,287.6z
		 M418.6,297.5c-2.7-0.2-4.1-1.7-4.1-4.1c0.1-2.5,1.6-3.9,4.1-3.9c2.6,0,3.9,1.6,3.9,4C422.5,296,420.8,297.2,418.6,297.5z"/>
	<path d="M351.2,277.6c2.9-0.8,4.8-2.9,4.5-5.8c-0.3-2.5,0.8-3.6,2.6-4.8c3.7-2.5,7.4-5.2,11.7-8.3c-2-0.3-2.7,0.5-3.4,0.9
		c-3.2,2-6.3,4-9.4,6c-1.7,1.1-2.9,1.7-5.1,0.5c-2.5-1.4-5.2-0.7-7.1,1.7c-1.8,2.3-1.9,4.8-0.3,7.1
		C346.1,277.3,348.4,278.4,351.2,277.6z M345.6,271.6c0-2.5,1.5-4,4-4c2.6,0,3.8,1.7,4.1,4c0.2,2.1-1.9,4-4.2,4
		C347.2,275.4,345.6,274.1,345.6,271.6z"/>
	<path d="M361,234.1c-0.9-1.1-1.9-0.7-2.8-0.7c-3.8,0-7.7,0-11.5,0.2c-1.9,0.1-3-0.3-4-2.1c-1.4-2.6-4-3.5-6.9-2.6
		c-2.9,0.9-4.4,3-4.4,6c0.1,3,1.7,5.1,4.6,5.8c2.9,0.7,5.5-0.2,6.8-2.9c0.9-1.9,2.1-2.2,3.9-2.4C351.4,234.8,356.2,235.1,361,234.1z
		 M337.7,238.7c-2.5,0.1-3.9-1.5-4.1-3.9c-0.2-2.1,1.8-4.1,3.9-4.2c2.2-0.1,4.1,1.8,4.1,4.4C341.5,237,340.2,238.6,337.7,238.7z"/>
	<path d="M445.5,266.4c-1.5,0.9-2.5,0.5-3.7-0.3c-4.1-2.6-8.2-5.2-12.3-7.8c-0.2,0.3-0.4,0.6-0.7,0.8c3.9,2.8,7.7,5.6,11.6,8.3
		c1.4,1,2.2,1.9,2,3.9c-0.4,3.1,1.3,5.3,4.3,6.3c2.9,0.9,5.3-0.1,6.9-2.6c1.7-2.5,1.4-5.1-0.6-7.4
		C450.9,265.2,448.2,264.8,445.5,266.4z M448.5,275.7c-2.4-0.1-4.3-2-4-4.2c0.3-2.4,1.6-4,4.2-3.8c2.5,0.1,3.9,1.7,3.9,4.1
		C452.4,274.2,450.8,275.6,448.5,275.7z"/>
	<path d="M203.9,178.5c-9.1,35.5-10.4,71.1-1.2,106.9c10.7,41.7,33,76,65.9,103.5c20.7,17.3,43.6,30.7,69.1,39.9
		c0.8,0.3,2.1,1.6,2.7,0c0.7-1.8-1.2-1.6-2.1-2c-18.1-6.5-35-15.4-50.8-26.3c-32.5-22.3-57.7-50.8-73.1-87.4
		c-14.8-35-19.1-71.4-13.4-109c5.6-36.7,18.3-70.4,40.2-100.5c3.7-5,7.8-9.7,11.6-14.6c0.9-1.1,1.8-2.5,0.6-3.7
		c-1.1-1.1-2.4,0-3.4,0.8c-4.1,3.4-8.4,6.7-12.3,10.3c-24,22.6-39.1,50.5-47.6,82.2c-7.8,29.3-8.9,59.1-5.9,89.1
		c3,30,12.5,57.8,29,83c21.2,32.5,50,56.5,83.5,75.3c9.8,5.5,19.9,10.3,30.3,15.2c-0.5,0.1-1,0.3-1.4,0.4
		c-8.9,1.9-17.8,3.8-26.7,5.7c-1.6,0.3-2.7,0.6-2.7,2.7c0.1,6.6,0.1,13.3,0,19.9c0,1.3,0.4,2.1,1.7,2.7c6.5,2.8,12.9,5.6,19.7,7.6
		c2.4,0.7,3.3,0.1,4.3-2.1c4.6-10.6,9.3-21.1,14-31.6c0.6-1.3,0.9-2.8,2.9-1.8c0.5,0.2,1.3,0.5,1.6-0.5c0.3-1-0.2-1.3-1.1-1.6
		c-1.4-0.4-2.9-0.9-4.3-1.4c-28.2-10.2-53.9-24.9-77.1-44c-25.6-21.1-45.8-46.3-58.7-77.1c-10.4-25-14.2-51.2-14.5-78
		c-0.4-30.8,4.1-60.8,16.3-89.2c9.7-22.7,23.5-42.6,42.3-58.9c0.8-0.7,1.5-1.8,2.9-1.6c-0.3,1.7-1.5,2.5-2.3,3.6
		C224.7,120.7,211.6,148.3,203.9,178.5z M331.7,442.8c2.6-0.1,3.2,0.8,2.2,3.2c-4.5,10.1-9.1,20.3-13.5,30.4
		c-0.7,1.7-1.6,2.2-3.4,1.6c-5.8-1.9-11.4-4.2-17-6.6c-1.4-0.6-1.6-1.5-1.5-2.8c0-2.9,0-5.8,0-9.3c0.3-2.8-1.4-7.1,0.7-9.3
		c1.9-2,6.1-1.8,9.3-2.5c6.7-1.4,13.4-2.8,20-4.2C329.6,443.1,330.7,442.8,331.7,442.8z"/>
	<path d="M596.4,346.1c-1.5,3.3-3,6.6-4.9,10.5c2.7-0.9,4.7-1.6,6.7-2.4c7.5-2.7,15-5.6,22.6-8.1c2.6-0.9,4.1-2.2,5.1-4.7
		c1-2.6,2.3-5.2,3.8-8.5c-11,4-21,7.6-31,11.2C597.7,344.5,596.9,345,596.4,346.1z M617.3,339.6c2.6-0.9,5.1-1.8,8-2.8
		c-1,4.1-2.7,6.8-6.8,8c-5.6,1.6-11.1,3.9-16.6,5.9c-1.9,0.7-3.7,1.3-6,2.1c1.2-4.1,2.8-6.9,6.9-8
		C607.8,343.4,612.5,341.4,617.3,339.6z"/>
	<path d="M583.8,174.6c-10-3.6-20.1-7.2-30.1-10.8c-0.2-0.1-0.4,0.1-0.9,0.2c1.6,3.5,3.2,6.9,4.8,10.4c0.3,0.7,1,1.1,1.7,1.4
		c10.2,3.7,20.4,7.3,31.5,11.3c-2-4.2-3.6-7.7-5.3-11.2C585.2,175.1,584.5,174.8,583.8,174.6z M583,182c-6.3-2.2-12.6-4.9-19-6.7
		c-4.1-1.2-5.9-3.7-7-8.1c7.9,2.8,15.2,5.7,22.8,8c4,1.2,5.4,3.9,6.4,7.4C584.9,183.1,583.9,182.4,583,182z"/>
	<path d="M578.1,159c-10.5-2.8-21-5.6-32.5-8.7c2.3,4,4.2,7.3,6,10.5c0.5,0.8,1.2,1.2,2.1,1.4c10.1,2.7,20.3,5.3,30.4,8
		c0.3,0.1,0.6,0,1.4,0c-2-3.5-3.9-6.8-5.9-10C579.3,159.4,578.8,159.2,578.1,159z M578.5,166.5c-6.6-1.8-13.1-3.8-19.8-5.2
		c-4.3-0.9-6.8-3-8.2-7.5c7.9,2.1,15.4,4.3,23,5.9c4.1,0.9,6,3.3,7.4,6.9C579.9,167,579.2,166.7,578.5,166.5z"/>
	<path d="M621.7,195.1c1,3,1.7,6.1,2.8,10c4.6-7.9,8.4-15.4,13-22.2c3.7-5.4,4.9-10.6,2-16.6c-0.4-0.9-0.6-2-0.9-3.1
		c-1.2,0.2-1.4,1.3-1.9,2.1c-4.8,8.2-9.5,16.5-14.3,24.7C621.4,191.7,621.1,193.2,621.7,195.1z M625.9,188.1
		c3.1-4.5,5.5-9.4,8.3-14.1c1-1.8,2.1-3.6,3.4-5.9c1.5,4,2.4,6.9,0,10.4c-3.9,5.8-7,12-10.5,18c-0.5,0.8-0.6,2.1-1.9,2.3
		C623.2,195,623.4,191.7,625.9,188.1z"/>
	<path d="M588.5,190.9c-9.8-4.5-19.6-9-30.3-14c1.6,4.4,2.9,8,4.2,11.6c0.3,0.8,1,1.1,1.6,1.4c9.6,4.4,19.2,8.8,28.8,13.3
		c0.2,0.1,0.6,0.1,1.3,0.1c-1.4-3.8-2.7-7.4-4-11C589.8,191.5,589.2,191.3,588.5,190.9z M568.4,189.7c-3.8-1.5-5.4-4.1-6-8.5
		c7.9,3.7,15.4,7.3,23.1,10.5c3.7,1.5,3.7,4.5,4.9,8C582.6,196.2,575.6,192.7,568.4,189.7z"/>
	<path d="M570.6,391.5c-8.3-1.2-12.2,4.5-16.5,10.7c7.5-0.6,14.6-1.2,21.6-1.8c3-0.3,5.9-0.8,8.9-0.8c2.9,0,4.7-1.2,6.3-3.5
		c1.6-2.2,3.5-4.2,5.7-7c-8.5,0.7-16.2,1.4-23.9,2.1C572.1,391.3,571.3,391.6,570.6,391.5z M585.5,397.4c-4.3,0.3-8.5,0.9-12.8,1.1
		c-4.4,0.2-8.8,1.1-13.8,0.8c2-2.1,2.7-4.9,5.4-5.2c8.9-0.9,17.8-1.7,27.6-2.5C589.4,394,588.9,397.1,585.5,397.4z"/>
	<path d="M594.9,359.4c-8.4,0.3-11.1,6.6-14.1,13.1c3.6-0.2,6.6-1.5,9.8-2.3c6.8-1.7,13.6-3.7,20.4-5.4c2.2-0.5,3.6-1.5,4.5-3.5
		c1.3-2.7,2.9-5.2,4.9-8.7c-7.9,2.1-15,4-22.1,5.9C597.1,358.8,596,359.3,594.9,359.4z M611.6,362.3c-8.6,2.5-17.2,4.7-26.4,7.1
		c1.4-4.2,3.3-6.9,7.4-7.3c1.4-0.1,2.7-0.7,4-1c6.3-1.7,12.5-3.3,19.4-5.1C614.4,358.6,614,361.6,611.6,362.3z"/>
	<path d="M570.7,143.7c-10.8-1.9-21.6-3.7-33.2-5.8c2.6,3.8,4.9,6.9,7.2,10.1c0.5,0.7,1.2,0.8,2,0.9c10.7,1.9,21.4,3.7,32.8,5.7
		c-2.6-3.7-4.9-6.9-7.1-10.1C572,144,571.4,143.8,570.7,143.7z M551.6,147.7c-4.3-0.5-7.1-2.3-8.8-6.7c8.2,1.4,16.1,3,24,4
		c4.1,0.5,5.9,2.9,7.6,6.7C566.5,150.2,559.1,148.7,551.6,147.7z"/>
	<path d="M624.3,213.5c0.7,3.5,1.2,6.9,1.9,10.4c1.1,0.4,1.3-0.6,1.7-1.1c5.8-8.2,11.5-16.4,17.3-24.6c0.5-0.8,1.2-1.5,1-2.6
		c-0.6-3.8-1.3-7.5-2-12.2c-6.8,9.7-13,18.6-19.3,27.5C624.2,211.7,624.1,212.5,624.3,213.5z M627,211.4
		c5.1-7.3,10.2-14.6,15.6-22.3c1.1,3.7,2,6.6-0.6,9.9c-4.5,5.7-8.4,11.8-12.6,17.7c-0.5,0.7-0.7,1.8-2,1.8
		C626.2,213.3,626,212.7,627,211.4z"/>
	<path d="M611.5,157.5c1.5,2.7,2.7,5.5,4.3,8.9c1.3-3.6,2.4-6.4,3.4-9.3c2.5-6.9,5-13.9,7.6-20.7c0.7-1.9,0.7-3.4-0.2-5.2
		c-1.4-2.8-2.7-5.7-4.4-9.3c-1.1,3-1.9,5.3-2.7,7.5c-2.7,7.4-5.4,14.8-8.2,22.2C610.5,153.8,610.4,155.6,611.5,157.5z M614.1,150.1
		c2.1-4.5,3.5-9.4,5.2-14.1c1-2.6,1.9-5.2,2.9-8c3.1,3.7,3.4,7.2,1.4,11.2c-1.5,2.9-2.3,6.2-3.4,9.3c-1.5,4-2.9,8-4.5,12.1
		C613,157.2,612.2,154,614.1,150.1z"/>
	<path d="M588.3,205.6c-7.3-4.2-14.6-8.4-22-12.6c-1-0.6-1.9-1.4-3.4-1.5c1,3.7,1.9,7.3,2.8,10.9c0.2,0.9,0.9,1.4,1.6,1.9
		c9.3,5.4,18.7,10.8,28.4,16.4c0-3.3-1.6-6-1.9-8.8C593.6,208.3,590.9,207.1,588.3,205.6z M572.4,204.9c-3.9-2-5.9-4.6-5.9-9.4
		c7.2,4.1,14,8.4,21.2,12c3.8,1.9,4.4,4.9,4.9,8.8C585.6,212.4,579.2,208.4,572.4,204.9z"/>
	<path d="M604.9,141.3c1.4,1.9,2.5,4.1,4.1,6.7c3-11.1,5.8-21.6,8.6-32.1c0.3-1,0.2-1.8-0.4-2.8c-1.9-3.1-3.7-6.2-5.9-10
		c-1.6,5.9-3.1,11.2-4.5,16.6c-1.1,3.9-1.9,7.9-3.2,11.7C602.4,135,602.6,138.2,604.9,141.3z M605,135c2.1-8.6,4.5-17.1,7.1-26.5
		c1.4,2.9,3.9,4.5,3.3,7.1c-2.1,8.8-4.6,17.5-7.1,26.8C606.8,139.7,604.3,137.9,605,135z"/>
	<path d="M615.6,307.3c-1.8,1-2.9,2.2-3.3,4.3c-0.6,3.1-1.6,6.1-2.6,9.9c5.7-3.3,10.7-6.1,15.6-9c2.7-1.5,5.2-3.6,8.1-4.5
		c7.8-2.7,8-9.5,9.6-16.4c-4.5,2.6-8.4,4.8-12.4,7.1C625.6,301.6,620.6,304.5,615.6,307.3z M634.5,305c-7.1,3.7-14,7.9-21.2,12
		c0.4-4.5,1.7-7.7,5.9-9.4c2-0.8,3.7-2.1,5.6-3.1c4.8-2.7,9.6-5.5,14.7-8.4C639,300.1,638.2,303,634.5,305z"/>
	<path d="M532.2,341.1c-0.6,0.8-0.8,1.7-0.7,2.7c1.9,10.7,3.8,21.4,5.9,33c2.7-3.9,4.9-7,7-10.3c0.3-0.4,0.3-1,0.2-1.5
		c-1.9-10.8-3.8-21.6-5.8-33.3C536.2,335.4,534.2,338.3,532.2,341.1z M538.7,370.7c-0.2-0.7-0.5-1.2-0.6-1.7
		c-1.3-7.5-2.4-15-4.1-22.4c-0.9-4.1,1.1-6.3,3.7-9.1c1.5,8.3,2.5,16.1,4.3,23.8C543,365.4,541.4,367.9,538.7,370.7z"/>
	<path d="M617.5,176.2c1.3,2.9,2.2,5.9,3.5,9.5c4.9-10.6,9.5-20.5,14.2-30.5c0.3-0.7,0.4-1.4,0.2-2.1c-1.3-3.5-2.6-6.9-3.9-10.4
		c-1.3,0.4-1.4,1.5-1.8,2.3c-4,8.6-8,17.2-12.1,25.8C616.8,172.6,616.7,174.3,617.5,176.2z M619.5,172.1c3.7-8,7.5-16,11.3-24.4
		c3,5.7,3,5.7,0.6,10.8c-1.2,2.5-2.3,5-3.5,7.5c-2.1,4.5-4.2,9-6.7,14.2C620.5,177,618.1,174.9,619.5,172.1z"/>
	<path d="M578.3,376.8c-2.3,0.3-3.9,1.2-5.1,3.3c-1.5,2.5-3.4,4.9-5.6,8c5.3-0.9,9.9-1.6,14.4-2.4c5.9-1,11.8-2.1,17.6-3.1
		c0.9-0.2,2-0.2,2.6-1c2.2-3.1,4.4-6.2,7-10.1c-6.5,1.1-12.2,2.1-17.8,3.1C587.2,375.3,582.8,376.1,578.3,376.8z M599.2,380.5
		c-8.7,1.6-17.4,3.1-26.5,4.6c1.7-4.2,4.2-6.6,8.5-6.6c1.4,0,2.7-0.5,4.1-0.7c6.2-1.1,12.3-2.1,19.2-3.3
		C602.6,377,602.1,379.9,599.2,380.5z"/>
	<path d="M589.5,288.4c0.4-4.1,0.8-7.8,1.2-11.6c0.1-0.8-0.4-1.4-0.9-2c-7-8.2-13.9-16.5-21.2-25.1c-1.1,4.1-0.9,8.1-1.5,11.9
		c-0.1,0.8,0.5,1.4,1,2c6.8,8,13.5,16,20.3,24C588.5,287.8,588.8,288,589.5,288.4z M587.6,283.5c-5.5-6.5-10.6-12.9-16-18.8
		c-2.7-2.9-2.3-5.8-1.4-9.6c1.1,1.2,1.8,2,2.6,2.9c4.1,4.9,8,10,12.5,14.6C588.2,275.7,589,278.9,587.6,283.5z"/>
	<path d="M573.3,325.1c0.3-0.8,0.2-1.7-0.2-2.5c-4.5-9.7-9.1-19.3-13.6-29c-0.1-0.2-0.3-0.3-0.7-0.6c-1.3,3.5-2.6,7-3.9,10.4
		c-0.4,1-0.2,1.8,0.2,2.8c4.6,9.8,9.2,19.5,14.1,30.1C570.8,332.1,572,328.6,573.3,325.1z M558.7,309.1c-2-3.7-1.7-6.8,0.8-10.7
		c3.5,7.4,6.8,14.5,10,21.5c2.3,5,2.3,5.2-0.7,10.4C565.4,323.1,562.3,315.9,558.7,309.1z"/>
	<path d="M577.9,303.2c-5.3-7.7-9.6-16.1-14.7-24.8c-1.1,4.3-2,7.8-3,11.3c-0.3,1-0.1,1.9,0.4,2.7c5.4,9.3,10.8,18.6,16.5,27.9
		C578.5,314.7,582.4,309.6,577.9,303.2z M564.3,294.5c-2.5-4.2-2.5-5.3,0.1-10c3.9,6.8,7.5,13.5,11.7,20c2.3,3.6,2.5,6.8,0.2,10.9
		C572.2,308.2,568.3,301.3,564.3,294.5z"/>
	<path d="M555.2,353.8c0.5-0.9,0.3-1.9,0.1-2.8c-2.8-10.3-5.6-20.6-8.6-31.7c-2.3,3.9-4.1,7.1-6,10.3c-0.4,0.7-0.4,1.4-0.2,2.1
		c2.9,10.6,5.7,21.2,8.8,32.5C551.4,360.4,553.3,357.1,555.2,353.8z M546,325c2.2,8.2,3.9,15.8,6.4,23.2c1.4,4.1,0.1,6.9-2.6,10.1
		c-2.2-8.1-4.1-16-6.5-23.6C542,330.9,543.5,328.3,546,325z"/>
	<path d="M644.7,271.8c-8,5.6-15.9,11.2-23.9,16.7c-1.5,1-2.4,2.2-2.6,4.1c-0.4,3.3-1.1,6.5-1.8,9.8c1.5,0,2.3-1,3.2-1.6
		c7.5-5.2,15-10.6,22.6-15.8c1.9-1.3,3-2.7,3.3-5.1c0.3-3.1,1.1-6.1,1.6-9.1C645.9,270.6,645.4,271.3,644.7,271.8z M639.2,284.4
		c-5.8,4.1-11.6,8.1-17.4,12.1c-0.6,0.4-1.1,1.3-2.1,0.9c-0.2-4,1.1-6.9,4.7-9c3.4-2,6.5-4.5,9.8-6.7c3.1-2.2,6.3-4.4,9.6-6.7
		C643.7,281,643.5,281.4,639.2,284.4z"/>
	<path d="M634.2,313.9c-8.5,3.9-17,8-25.5,11.8c-2.2,1-3.4,2.3-4,4.5c-0.8,2.8-2,5.6-3.3,9.2c10.7-5,20.5-9.6,30.4-14.1
		c0.7-0.3,1.2-0.7,1.5-1.5c1.2-3.5,2.5-6.9,3.9-10.6C635.8,312.9,635,313.6,634.2,313.9z M627.1,325.3c-2.8,0.9-5.4,2.5-8.1,3.7
		c-4.4,2-8.8,4.1-13.4,6.2c0.8-4.4,1.5-6.2,2.9-6.9c8.1-3.8,16.2-7.6,24.7-11.5C632.5,321.2,631,324,627.1,325.3z"/>
	<path d="M624.4,269.1c-1.3,1.1-2.1,2.3-2.2,4c-0.1,3.3-0.4,6.5-0.7,10.6c8.9-7.5,17.2-14.4,25.5-21.3c0.6-0.5,1.1-1,1.2-1.8
		c0.3-3.8,0.7-7.6,1.1-12.2c-1.9,1.6-3.2,2.6-4.5,3.6C638,257.8,631.2,263.5,624.4,269.1z M644.9,261.3
		c-6.7,5.8-13.5,11.4-20.6,17.4c-0.7-4.4,0.3-7.4,3.7-9.9c3.7-2.6,7.1-5.8,10.6-8.8c2.5-2.1,5-4.2,8-6.7
		C646.2,256.5,647.1,259.4,644.9,261.3z"/>
	<path d="M560.1,350c1.7-3.6,3.3-7.2,4.9-10.7c0.3-0.7,0-1.5-0.2-2.2c-3.6-9.8-7.2-19.6-10.9-29.4c-0.1-0.3-0.4-0.5-0.8-1.1
		c-1.7,3.7-3.2,7.1-4.8,10.5c-0.4,0.9-0.1,1.7,0.2,2.5c3.6,9.9,7.2,19.9,10.9,29.8C559.4,349.6,559.6,349.7,560.1,350z M553.2,311.9
		c2.9,7.7,5.3,15.2,8.4,22.3c1.7,4,0.8,7.1-1.7,10.6c-2.9-7.8-5.3-15.4-8.5-22.8C549.7,318.1,551.2,315.3,553.2,311.9z"/>
	<path d="M586.2,293.3c0.1-0.8-0.3-1.4-0.7-2.1c-6.1-8.7-12.3-17.5-18.4-26.2c-0.1-0.1-0.4-0.2-0.8-0.4c-0.7,3.8-1.3,7.6-2,11.3
		c-0.1,0.8,0.1,1.4,0.5,2.1c6.3,8.9,12.5,17.8,19.2,27.3C584.9,300.8,585.6,297,586.2,293.3z M582.6,299.6
		c-4.8-6.9-9.2-13.6-14.1-19.9c-2.6-3.4-1.7-6.3-0.8-10.2c4.9,6.9,9.1,13.4,13.9,19.6C584.2,292.4,584.3,295.5,582.6,299.6z"/>
	<path d="M595.9,254.7c-0.4-3.9-0.7-7.6-1.1-11.3c-0.1-1.1-0.7-1.7-1.5-2.3c-8-6.6-15.9-13.3-23.9-19.9c-0.2-0.2-0.5-0.2-1.1-0.5
		c-0.2,4.1,0.6,8,0.9,11.8c0,0.5,0.6,1.1,1.1,1.5c8.1,6.8,16.3,13.5,24.4,20.3C594.9,254.4,595.2,254.4,595.9,254.7z M593.1,250.2
		c-6.5-5.4-12.4-10.6-18.7-15.4c-3.3-2.5-4-5.4-3.4-9.7c6.5,5.5,12.6,10.8,18.9,15.7C593.1,243.3,593.2,246.3,593.1,250.2z"/>
	<path d="M594.6,225.9c-0.1-0.8-0.8-1.2-1.4-1.6c-8.4-5.9-16.8-11.7-25.3-17.6c-0.4-0.3-0.8-0.7-1.7-0.4c0.7,3.7,1.3,7.5,2,11.2
		c0.1,0.5,0.5,1,0.9,1.3c9,6.3,18,12.6,27.7,19.4C596,233.5,595.3,229.7,594.6,225.9z M590.8,231.4c-5.7-3.9-11.2-8.2-17.1-11.8
		c-3.6-2.2-4.3-5.1-4.3-9.2c1.1,0.7,2,1.3,2.9,1.8c5.8,4,11.4,8.3,17.4,12c3.5,2.2,3.6,5.3,4.1,8.6
		C592.3,232.9,591.6,232,590.8,231.4z"/>
	<path d="M524.6,388.2c3-3.6,5.6-6.6,8.1-9.7c0.4-0.5,0.3-1.4,0.3-2.2c-0.9-10.3-1.8-20.6-2.8-30.9c0-0.4-0.3-0.8-0.6-1.5
		c-2.6,3.1-4.9,5.9-7.3,8.8c-0.6,0.7-0.6,1.5-0.5,2.4C522.6,365.8,523.5,376.5,524.6,388.2z M528.3,349.2c0.7,8.3,1.1,16.2,2.2,23.9
		c0.6,4.2-1.1,6.6-3.9,8.9c-1-0.8-0.7-1.8-0.8-2.7c-0.6-6.7-1-13.4-1.9-20.1C523.4,355,524.6,352,528.3,349.2z"/>
	<path d="M589.5,255c-7.1-6.1-13.3-13.2-19.9-19.9c-0.3,0.2-0.6,0.3-0.9,0.5c0,3.6,0,7.3,0,10.9c0,1.1,0.5,1.8,1.2,2.5
		c7.5,7.6,15,15.3,22.9,22.6C592.7,265.8,595.3,260,589.5,255z M590.9,267.2c-6.1-6.2-11.6-12.2-17.5-17.7c-3-2.8-2.7-5.7-2.2-10
		c5.9,6.1,11.1,11.8,16.7,17C591,259.4,592,262.4,590.9,267.2z"/>
	<path d="M627.1,229.2c-1.4,1.6-2,3.1-1.7,5.2c0.4,3,0.6,6.1,1,10.2c6.3-7.5,11.7-14.5,17.8-21c3.7-4,5.2-8,4-13.3
		c-0.3-1.4-0.3-3-0.4-4.5c-1.3-0.2-1.6,0.9-2.2,1.6C639.4,214.7,633.3,222,627.1,229.2z M643.6,220.8c-2.1,2-3.7,4.4-5.6,6.6
		c-3.2,3.8-6.4,7.6-9.6,11.4c0-2.8-2.2-5.3-0.1-7.9c5.7-6.7,11.3-13.4,17.2-20.4C647.1,214.7,646.7,218,643.6,220.8z"/>
	<path d="M510.8,365.3c0,10.5,0,21,0,31.4c0,0.3,0.2,0.6,0.4,1.5c2.9-2.9,5.5-5.7,8.2-8.4c0.6-0.6,0.6-1.3,0.6-2.1
		c0-10.8,0-21.6,0-32.4c-0.3-0.2-0.6-0.4-0.9-0.6c-2.5,2.7-5.1,5.4-7.6,8.1C510.9,363.6,510.8,364.4,510.8,365.3z M518,359.8
		c0,8.2-0.3,15.8,0.1,23.5c0.2,4.3-1.4,7-5.2,9.6c0-8.6,0.2-16.6-0.1-24.7C512.6,364.1,514.9,362.2,518,359.8z"/>
	<path d="M598.4,132.4c1.1-6,2.1-11.4,3-16.7c0.7-4.2,1.2-8.5,2.3-12.6c0.7-2.8,0.1-4.9-1.6-7.1c-1.7-2-3.1-4.3-5-7.1
		c-1.1,5.8-2,11-2.9,16.1c-0.8,4.2-1.3,8.5-2.3,12.6c-0.8,3.2-0.2,5.8,1.9,8.2C595.3,127.8,596.6,129.9,598.4,132.4z M593.6,120.7
		c1.3-8.5,2.9-17,4.5-25.9c3.3,3,4.4,6,3.1,9.8c-0.6,1.7-0.6,3.6-1,5.3c-1,5.4-1.9,10.8-3,16.8C595.5,124.5,593.3,123.1,593.6,120.7
		z"/>
	<path d="M551.2,405.6c-2.5-0.1-4.2,0.7-5.8,2.5c-1.9,2.1-4.1,4-6.1,6c0.1,0.3,0.2,0.5,0.3,0.8c8.3,0,16.7-0.4,24.9,0.1
		c6.5,0.5,11.4-1.1,15.2-6.4c0.7-0.9,1.8-1.4,2.3-3c-3.5,0-6.9,0-10.3,0C564.9,405.7,558,405.8,551.2,405.6z M570.5,412.9
		c-8.1-0.1-16.3,0-24.4-0.1c-0.6,0-1.3,0.3-1.7-0.7c2-1.4,2.8-4.3,5.9-4.4c8.8,0,17.5,0,26.3,0C574.9,410,573.9,412.9,570.5,412.9z"
		/>
	<path d="M648.3,226.8c-2.1,2.4-4.1,4.8-6.3,7.1c-5,5.1-10,10.2-15.2,15.2c-1.6,1.5-2.3,3.1-2.2,5.3c0.2,3,0,6.1,0,9.8
		c8.2-8.2,15.9-15.8,23.5-23.4c0.6-0.6,1.1-1.3,1.1-2.2c0-3.7,0-7.4,0-11.1C649,227.2,648.6,227,648.3,226.8z M646.2,239.9
		c-6.2,6.3-12.5,12.5-19.1,19.1c-0.9-4.2-0.3-7.3,2.8-10.1c5.3-4.8,10.1-10.1,15.2-15.1c0.5-0.5,0.9-1.5,2.2-1.2
		C646.6,235,648.3,237.7,646.2,239.9z"/>
	<path d="M563.2,130.6c-9.2-0.8-18.5-1.6-27.9-2.1c3.4,3.7,5,9.2,11.9,9.1c7.9-0.1,15.9,1.2,24.8,1.9c-2.6-3.1-4.6-5.4-6.6-7.8
		C564.8,131,564.1,130.7,563.2,130.6z M563.6,136.7c-5.5-0.4-11.1-1.1-16.6-1.3c-3.2-0.1-5.5-1.1-7.1-4.7c7.2,0.6,13.9,1.3,20.7,1.7
		c2.8,0.2,4.4,1.7,5.5,4C565.3,137.1,564.4,136.7,563.6,136.7z"/>
	<path d="M582.8,114.5c1.3,1.2,2.4,2.7,3.5,4c1.1-0.5,0.9-1.3,1-2c0.7-7.3,1.3-14.6,1.9-22c0.1-1.1,0-2-0.8-2.9
		c-1.8-2-3.6-4.1-5.9-6.8c-0.7,8.1-1.3,15.3-2.1,22.5C580.1,110.2,580.7,112.5,582.8,114.5z M582.5,107.7c0.3-1.7,0.3-3.4,0.5-5.1
		c0.4-3.9,0.8-7.9,1.2-12.2c2.4,1.7,3,3.4,2.8,5.8c-0.6,5.6-1,11.2-1.5,17.3C582.9,111.9,582,110.2,582.5,107.7z"/>
	<path d="M551.1,119.6c-5.9,0.6-11.9,0.1-17.9,0.1c-0.2,0.4-0.3,0.7-0.5,1.1c1.8,1.6,3.7,3.3,5.5,4.9c0.7,0.6,1.3,1,2.3,1
		c7.4,0,14.7,0,22.7,0C559.5,122.5,556.9,118.9,551.1,119.6z M541.4,124.5c-1.7,0-2.7-0.9-3.6-2.7c5.8,0,11.3,0,16.7,0
		c1.5,0,2.2,1,3.2,2.7C552,124.5,546.7,124.5,541.4,124.5z"/>
	<path d="M577.3,107.5c0-6.1,0.3-12.3-0.2-18.4c-0.2-2.5-3.1-3.8-5.6-5.4c0,5.9-0.3,11.9,0.1,17.8
		C571.9,104.3,575.2,105.4,577.3,107.5z M574.2,88.8c1.3,1.6,1.6,9.4,0.6,13.4C573.6,100.3,573.2,92.9,574.2,88.8z"/>
	<path d="M541.6,117.5c4.4-0.9,8.9-0.9,13.8-1.3c-3.3-4-6.6-5.9-11.5-4.8c-4,0.9-8.2,0.8-12.9,1.2
		C534.4,115.9,536.9,118.5,541.6,117.5z M549.6,114.2c-4.3,0.3-8.5,2.1-12.8,0.5C541.1,114,545.4,112.9,549.6,114.2z"/>
	<path d="M500.5,447.4c-8.9-1.9-17.8-3.8-26.7-5.7c-0.5-0.1-1-0.2-1.4-0.4c10.4-4.9,20.5-9.7,30.3-15.2
		c33.5-18.8,62.4-42.8,83.5-75.3c16.5-25.3,26-53,29-83c3-30.1,1.9-59.8-5.9-89.1c-8.5-31.7-23.6-59.5-47.6-82.2
		c-3.9-3.7-8.1-6.9-12.3-10.3c-1-0.8-2.3-1.9-3.4-0.8c-1.2,1.2-0.2,2.6,0.6,3.7c3.8,4.9,7.9,9.5,11.6,14.6
		c21.9,30.1,34.7,63.8,40.2,100.5c5.7,37.6,1.3,74-13.4,109c-15.4,36.6-40.6,65.1-73.1,87.4c-15.8,10.9-32.7,19.8-50.8,26.3
		c-0.9,0.3-2.9,0.2-2.1,2c0.6,1.5,1.9,0.3,2.7,0c25.4-9.1,48.4-22.6,69.1-39.9c32.9-27.5,55.1-61.9,65.9-103.5
		c9.2-35.8,7.9-71.4-1.2-106.9c-7.7-30.2-20.9-57.8-40.3-82.4c-0.8-1-2-1.9-2.3-3.6c1.4-0.1,2.1,0.9,2.9,1.6
		c18.8,16.2,32.6,36.1,42.3,58.9c12.2,28.5,16.8,58.4,16.3,89.2c-0.4,26.9-4.1,53-14.5,78c-12.9,30.8-33.1,56-58.7,77.1
		c-23.2,19-48.8,33.8-77.1,44c-1.4,0.5-2.8,1-4.3,1.4c-0.8,0.2-1.4,0.6-1.1,1.6c0.3,0.9,1.1,0.7,1.6,0.5c2-0.9,2.4,0.6,2.9,1.8
		c4.7,10.5,9.5,21.1,14,31.6c0.9,2.2,1.8,2.8,4.3,2.1c6.8-2,13.3-4.8,19.7-7.6c1.3-0.6,1.7-1.4,1.7-2.7c0-6.6-0.1-13.3,0-19.9
		C503.2,448.1,502.1,447.8,500.5,447.4z M500.9,459.4c0,3.5,0,6.4,0,9.3c0,1.2-0.2,2.2-1.5,2.8c-5.6,2.4-11.2,4.7-17,6.6
		c-1.8,0.6-2.7,0.1-3.4-1.6c-4.4-10.2-9-20.3-13.5-30.4c-1.1-2.4-0.5-3.3,2.2-3.2c1.1,0,2.1,0.3,3.2,0.5c6.7,1.4,13.4,2.8,20,4.2
		c3.2,0.7,7.4,0.5,9.3,2.5C502.4,452.3,500.6,456.6,500.9,459.4z"/>
</g>
</svg>
