<svg height="600" width="800" xmlns="http://www.w3.org/2000/svg" xmlns:xlink="http://www.w3.org/1999/xlink"><g fill-rule="evenodd"><path d="m0 0h800v600h-800z" fill="#fff"/><g fill="#da121a"><path d="m0 0s400 300 400 300l-400 300z"/><path d="m800 0s-400 300-400 300l400 300z"/></g></g><g stroke="#000" transform="matrix(.375 0 0 .375 278.33919 62.86514)"><g stroke-width=".499086" transform="matrix(2.0036614 0 0 2.004242 -107.360403 211.397125)"><use height="304.20001" stroke="#000" stroke-width=".499086" transform="matrix(-1 0 0 1 431.0002 0)" width="251" xlink:href="#a"/><g id="a" fill="#007820" stroke="#000" stroke-width=".464866" transform="matrix(1.069527 .09357064 -.09357064 1.069527 46.70664 -174.2293)"><path d="m68.363466 194.59061c-13.265698 22.06516-32.941904 61.87716-38.312993 92.37335-9.90796 56.25607 5.578591 118.62776 52.721215 162.7017 38.409652 35.90933 98.691332 47.00617 123.862152 52.37569 25.10688 5.35589 43.27477 13.75214 47.42629 19.51997.20946-4.06255.7795-8.12522-3.40729-12.18788-11.9255-5.46345-31.27482-8.69696-58.25025-14.47636-54.20618-11.61344-111.154724-32.73995-142.179888-94.23077-40.4560248-80.18248-16.35063-143.1993 18.692527-205.74947 0 0-.551763-.32623-.551763-.32623z" fill="#008f4c" stroke="#000" stroke-width=".464866"/><path d="m16.586755 423.2212c8.062086 4.97905 16.051345 6.27621 22.453051 8.4984 4.947592 1.71752 13.462868 4.50627 16.394332 5.65399 2.806359 1.09874 7.1778 3.14849 10.919912 4.90858 5.931269 2.78973 12.350227 10.53255 12.350227 10.53255s-9.024212 9.84208-19.802189 8.44834c-8.451236-1.09278-12.711957-3.5005-16.951545-5.64334-4.407405-2.22772-4.304705-4.75754-10.652768-9.51386-7.019333-5.25934-11.936265-15.64527-14.71102-22.88466z" fill="#008f4c" stroke="#000" stroke-width=".464866"/><path d="m16.696316 423.60203c7.298166 7.3899 20.920427 15.60776 34.587539 21.67798 13.688342 6.07968 29.673907 8.02539 37.376646 7.97548l2.033044 2.23021c-11.082477-1.07211-25.696445-3.15916-38.079741-8.44165-16.145946-6.88754-29.406608-15.73786-36.022734-23.00229z" fill="#008f4c" stroke="#000" stroke-width=".464866"/><path d="m34.474965 459.15439c14.555921-.53264 22.567389 4.17481 36.091584 7.24942 12.641322 2.87395 27.427264-3.95892 35.608891 8.68531-32.943961 22.19238-56.724774 7.2602-71.700475-15.93473z" fill="#008f4c" stroke="#000" stroke-width=".464866"/><path d="m64.10436 490.25121c6.273954-5.59307 60.17645-24.55261 68.78443-3.36227-12.82281 14.74167-50.354372 18.0336-68.78443 3.36227z" fill="#008f4c" stroke="#000" stroke-width=".464866"/><path d="m76.881678 505.17073c5.693189-.93604 12.40226-2.30904 18.960254-3.09736 6.587088-.79204 9.167758-1.97695 14.035738-2.67476 7.96534-1.14167 17.08291-12.76278 45.15843-3.89404-10.86857 26.02822-47.9584 31.49144-78.154422 9.66616z" fill="#008f4c" stroke="#000" stroke-width=".464866"/><path d="m64.743257 490.67146c28.717522 5.96034 62.468453-.01902 75.811883-8.19538l2.12953 1.47101c-30.7659 13.62996-60.657637 11.83619-77.941413 6.72437z" fill="#008f4c" stroke="#000" stroke-width=".464866"/><path d="m34.929553 459.15114c16.91256 11.79072 38.708901 20.58098 85.394927 14.07903l.63886 1.6811c-63.974249 5.70402-70.304798-6.48691-86.033787-15.76013z" fill="#008f4c" stroke="#000" stroke-width=".464866"/><path d="m77.094645 505.38088c22.320084.82406 34.883075 11.16209 76.693005-10.23115 3.41621-1.74801 7.97525-2.96596 10.61849-4.26818l3.83317 1.47096c-2.91015 1.35038-7.60774 1.31372-10.22519 2.51438-52.20883 23.94852-50.74703 12.75224-80.919475 10.51399z" fill="#008f4c" stroke="#000" stroke-width=".464866"/><path d="m53.619904 409.34363c1.046978-16.20965 8.614603 6.25543 23.900929-29.9622 4.442298-10.52507 4.407234-17.2385 7.420067-33.03919-8.322033 13.65814-22.235415 17.34335-27.884696 27.89557-5.558299 10.38231-4.139905 27.07674-3.4363 35.10582z" fill="#008f4c" stroke="#000" stroke-width=".464866"/><path d="m84.639775 347.53094s-7.529113 18.27635-18.37103 31.20352c-10.906286 13.00399-12.950007 28.82611-12.950007 28.82611" fill="#008f4c" stroke="#000" stroke-width=".464866"/><path d="m77.186862 363.05271c-9.590561 13.42524-22.483589 29.33451-23.089086 46.03718l-1.497726.57983c2.233027-21.96714 14.725923-32.11175 22.43161-43.194z" fill="#008f4c" stroke="#000" stroke-width=".464866"/><path d="m-3.9023586 383.78645c7.0200201 6.00324 14.4014736 8.17529 20.1779496 11.14413 4.464429 2.29449 8.211922 5.34047 10.841882 6.83506 2.517746 1.43081 6.615609 2.0948 9.93841 4.30905 5.266658 3.50958 15.57042 15.79167 15.57042 15.79167s-9.76834 8.32045-15.821858 6.95506c-17.604931-3.54677-22.737058-10.80986-31.6221655-17.53337-6.8563863-5.83813-7.3139777-19.69702-9.0846381-27.5016z" fill="#008f4c" stroke="#000" stroke-width=".464866"/><path d="m60.546639 422.41939 1.656402 2.52601c-10.103112-1.03523-26.197635-11.11596-36.925088-16.72943-14.433762-7.55292-22.5218147-13.2972-28.6049281-24.03798 6.8885936 10.73678 15.8939881 16.83127 29.4468041 23.64242 11.380565 5.71947 27.562095 15.3953 34.42681 14.59898z" fill="#008f4c" stroke="#000" stroke-width=".464866"/><path d="m-9.889838 348.28762c5.8850087 7.09229 12.7854766 10.46962 17.9672232 14.36323 4.0047078 3.00921 7.1736138 6.63888 9.5082138 8.55243 2.23494 1.8319 6.159053 3.17287 9.05255 5.91174 4.58624 4.34106 11.392181 17.01474 11.392181 17.01474s-4.878628 5.41777-10.609273 3.05795c-17.7475446-2.28568-22.9631613-11.032-29.5614729-26.77515-3.6933145-8.16317-7.3475374-14.13703-7.7494221-22.12494z" fill="#008f4c" stroke="#000" stroke-width=".464866"/><path d="m46.97512 397.15838 1.197664 2.76687c-21.27191-10.08176-49.1774639-30.41053-58.312833-51.11784 12.9901168 22.33554 34.449323 37.06227 57.115169 48.35097z" fill="#008f4c" stroke="#000" stroke-width=".464866"/><path d="m-14.742226 314.11919c5.0555722 7.38348 11.3273465 11.18897 15.9424669 15.38027 3.5668185 3.23926 6.302277 7.02907 8.3704663 9.07393 1.9799548 1.95762 5.5868788 3.55225 8.1247048 6.44742 4.022392 4.58882 9.55767 17.52075 9.55767 17.52075s-6.49228 6.35098-11.731816 3.62778c-5.239538-2.72321-12.2649536-8.90614-15.74028386-12.13081-3.61858174-3.35763-4.50752614-11.45811-8.75638134-17.63547-4.9434908-7.18732-5.9440818-14.40782-5.7668268-22.28387z" fill="#008f4c" stroke="#000" stroke-width=".464866"/><path d="m.57308967 336.95529c10.31799933 12.21755 23.01613133 23.86767 34.90383133 29.1936l.936691 2.80288c-19.356886-11.40744-27.5165674-21.71947-36.08163766-31.60559z" fill="#008f4c" stroke="#000" stroke-width=".464866"/><path d="m-7.4221514 293.0795c3.5230829 7.16936 8.8033658 11.42095 12.4525322 15.7556 2.8202831 3.35006 4.7614087 7.05128 6.3684352 9.13827 1.538476 1.99791 4.676072 3.92804 6.582384 6.82356 3.021549 4.58937 6.055352 16.64246 6.055352 16.64246s-4.401527 4.87056-8.890215 1.71407c-4.488687-3.15649-10.9152487-9.60128-13.6515611-12.92479-2.8491534-3.46056-4.2875418-10.95099-7.2531727-16.95211-3.4505129-6.98228-3.1693368-13.39485-1.6637546-20.19706z" fill="#008f4c" stroke="#000" stroke-width=".464866"/><path d="m3.1710096 315.20467c7.6748054 12.1596 17.6951854 24.18846 28.0241664 30.61077l.408974 2.57247c-16.354091-12.82911-22.3129968-23.00889-28.7273896-32.88091z" fill="#008f4c" stroke="#000" stroke-width=".464866"/><path d="m.91624615 251.84016c8.45447985 18.53979 28.78554085 31.49163 20.62972185 58.69232-21.00771646 19.72357-22.35536464-35.30015-20.62972185-58.69232z" fill="#008f4c" stroke="#000" stroke-width=".464866"/><path d="m20.190738 211.27557c3.460032 18.94665 19.639614 34.61736 9.034905 59.73245-29.78514361 7.7834-15.589313-33.94427-9.034905-59.73245z" fill="#008f4c" stroke="#000" stroke-width=".464866"/><path d="m37.808784 182.89523c-14.964004 28.93308-18.562024 45.66717-.903463 64.63586 0 0 9.271853-9.05985 11.485906-25.73036 1.872629-14.09978-9.193635-30.98103-10.582443-38.9055z" fill="#008f4c" stroke="#000" stroke-width=".464866"/><path d="m62.654815 166.10476c-3.97071 18.3403 11.30055 26.74744-10.540749 50.3714-15.581879-19.27077-8.143836-24.08462 10.540749-50.3714z" fill="#008f4c" stroke="#000" stroke-width=".464866"/><path d="m68.527483 198.19981c25.173033 2.79442 23.842112-22.29533 31.019867-43.23916-14.825865 11.48759-43.388804 18.51052-31.019867 43.23916z" fill="#008f4c" stroke="#000" stroke-width=".464866"/><path d="m52.114066 232.82086c7.085419-34.12056 29.667112-20.77461 42.162912-35.80975-6.463642 22.00339-15.954853 37.02754-42.162912 35.80975z" fill="#008f4c" stroke="#000" stroke-width=".464866"/><path d="m41.957088 264.56571c19.671082-1.34657 35.619399-11.4176 46.211191-34.04195-20.175346 9.36336-42.545013 10.31145-46.211191 34.04195z" fill="#008f4c" stroke="#000" stroke-width=".464866"/><path d="m38.975697 294.1948c7.760403-9.2626 7.953805-15.23839 10.907525-21.41325 4.890826-10.22451 10.08231-19.27336 22.739351-28.80913-.091747 24.13342-3.392213 50.79713-33.646876 50.22238z" fill="#008f4c" stroke="#000" stroke-width=".464866"/><path d="m34.503662 319.41105c12.075679-17.48886 23.267159-32.35139 41.526195-44.54871-7.576823 17.17262-4.074068 48.93635-41.526195 44.54871z" fill="#008f4c" stroke="#000" stroke-width=".464866"/><path d="m37.910954 354.08339c37.057-1.0802 33.552991-37.42316 33.859797-54.42507-6.692155 10.40571-14.87691 19.44976-20.974118 26.93467-6.657603 8.17277-13.072297 17.39912-12.885679 27.4904z" fill="#008f4c" stroke="#000" stroke-width=".464866"/><path d="m42.382979 375.72735c2.99528-7.87967.695857-11.06444 7.311171-17.98652 7.148243-7.47977 20.860397-20.86499 28.03935-36.22842 1.037537 13.58268 1.202458 34.55439-8.918382 41.56954-7.657678 5.30788-14.334678 6.80163-26.432139 12.6454z" fill="#008f4c" stroke="#000" stroke-width=".464866"/><path d="m74.752147 432.04364c29.080813-23.51619 11.597934-43.35446 9.157026-60.93927-7.389016 19.82858-28.190507 36.92819-9.157026 60.93927z" fill="#008f4c" stroke="#000" stroke-width=".464866"/><path d="m62.826649 205.30752c9.346158-18.23184 24.264584-31.42045 36.734717-50.4325-14.393448 21.62602-29.848945 38.55993-38.118911 53.3744" fill="#008f4c" stroke="#000" stroke-width=".464866"/><path d="m74.326172 437.92743c-1.185109-23.94584 5.090511-44.5788 9.157069-66.19265-3.842573 22.82282-9.298278 45.79035-7.240417 68.08389z" fill="#008f4c" stroke="#000" stroke-width=".464866"/><path d="m39.801678 380.5185c3.033588-14.64179 30.789602-24.36483 37.718856-58.37569-5.683108 33.81527-33.821661 42.33989-36.65407 61.37011z" fill="#008f4c" stroke="#000" stroke-width=".464866"/><path d="m33.592518 360.60672.752896 3.71469c4.104185-22.92452 30.007448-34.20668 37.494873-64.78444-10.942591 33.13486-32.058303 37.50917-38.247769 61.06975z" fill="#008f4c" stroke="#000" stroke-width=".464866"/><path d="m28.472703 326.28284c12.74819-20.20905 30.568139-27.83551 47.43333-51.5601-15.774476 23.30817-35.663817 34.24282-47.734497 54.68045z" fill="#008f4c" stroke="#000" stroke-width=".464866"/><path d="m28.924475 299.68556c14.029447-6.23755 28.585626-23.73701 43.819316-55.72057-9.991634 23.6654-22.65666 45.06967-43.819316 59.28667z" fill="#008f4c" stroke="#000" stroke-width=".464866"/><path d="m35.399481 268.48204c16.369637-13.4549 37.592215-22.38954 52.854223-38.18717-12.682454 15.04033-37.049675 25.55201-53.305956 40.41599z" fill="#008f4c" stroke="#000" stroke-width=".464866"/><path d="m48.048361 235.04969c16.540148-11.68452 32.477829-15.32417 46.228617-37.44421-11.044376 21.64192-28.62334 27.12402-46.830951 39.07868z" fill="#008f4c" stroke="#000" stroke-width=".464866"/><path d="m.91624615 252.28593c5.92631235 23.87782 10.93681985 48.97426 26.65299385 65.08161l-.150604-3.12034c-7.184123-4.18037-18.5393138-29.05791-26.50238985-61.96127z" fill="#008f4c" stroke="#000" stroke-width=".464866"/><path d="m20.040128 212.16711c1.080126 24.67842.668119 50.77841 12.950051 64.78444l.903506-2.82316c-12.523221-10.54175-11.480305-38.43638-13.853557-61.96128z" fill="#008f4c" stroke="#000" stroke-width=".464866"/><path d="m36.905321 184.08394c-4.202042 21.71836-4.509278 41.80608 1.054068 74.29411l1.204625-2.37743c-3.490102-19.13871-7.447315-38.74542-2.258693-71.91668z" fill="#008f4c" stroke="#000" stroke-width=".464866"/><path d="m62.203041 166.84771c-8.395883 18.42342-14.822235 37.06894-9.336075 57.05788l1.505838-2.22883c-6.50409-18.27635 1.099128-36.5527 7.830237-54.82905z" fill="#008f4c" stroke="#000" stroke-width=".464866"/><path d="m94.657126 409.34918c-9.927551 24.8331 3.196994 42.86668 18.709894 53.31515 12.08132-36.08477-13.08331-32.04211-18.709894-53.31515z" fill="#008f4c" stroke="#000" stroke-width=".464866"/><path d="m94.23755 409.27297c-1.70354 15.36062 14.36552 32.55769 19.34334 58.54982l2.23895 2.11324c-7.37744-31.69178-22.94464-43.88845-21.58229-60.66306z" fill="#008f4c" stroke="#000" stroke-width=".464866"/><path d="m120.35829 432.08645c-3.76123 23.95212 9.68022 43.41553 29.95143 49.45205 6.61821-30.87666-20.76481-31.98188-29.95143-49.45205z" fill="#008f4c" stroke="#000" stroke-width=".464866"/><path d="m120.32112 432.27879c7.4417 18.79315 17.50798 36.28528 35.54422 55.56744l3.87937.52157c-20.07415-16.50944-31.09473-37.95587-39.42359-56.08901z" fill="#008f4c" stroke="#000" stroke-width=".464866"/><path d="m151.46072 453.21446c.97028 9.61377 8.25022 18.26909 14.96907 25.02463 6.70897 6.74558 7.45814 9.27617 16.9239 12.19366 9.09793-21.52812-21.32823-25.79574-31.89297-37.21829z" fill="#008f4c" stroke="#000" stroke-width=".464866"/><path d="m151.54784 452.98598c10.15015 19.73778 26.30694 29.44209 35.1142 42.18218l1.25074-.11956c-12.6161-17.28624-23.33815-20.56822-36.36494-42.06262z" fill="#008f4c" stroke="#000" stroke-width=".464866"/><path d="m254.00712 521.45617c.20942-4.0625.83273-7.7574-3.24759-11.82-1.26766 2.648-1.55208 5.8492 3.24759 11.82z" fill="#008f4c" stroke="#000" stroke-width=".464866"/></g></g><path d="m75.979711 333.85949c.203475 120.3443-.409233 240.7128.311268 361.0487.424727 11.9708 1.948785 23.7942 4.233276 35.4446 1.530323 7.8043 3.357288 15.5179 5.665112 23.1106.318935 1.0125.663915 2.0131.996062 3.0212.97873 3.0725 2.136395 6.0958 3.237209 9.1259 28.264712 77.7996 96.059092 141.0816 177.797422 158.7531 56.44726 13.7598 116.72938 5.1206 168.24145-20.8058 23.01629-11.5843 44.21311-26.6463 62.56527-44.7573 6.59297-6.5064 12.8845-13.3459 18.6762-20.619 4.39-5.5127 8.57437-11.1663 12.45082-17.0993 1.51089-2.1595 2.93371-4.3667 4.35776-6.5719 8.89491-13.7743 15.96468-28.485 21.63328-43.6984 4.63748-12.446 8.24618-25.2329 10.89445-38.2789 4.91279-24.2015 6.72164-49.1256 5.54061-73.7857 0-108.2981 0-216.5898 0-324.8878-165.53869 0-331.06144 0-496.600189 0z" fill="#0071bc" fill-rule="evenodd" stroke-width=".999832"/><g stroke-width="1.003471" transform="matrix(.9960637 0 0 .9970184 -2.458014 -78.044607)"><path d="m200.51045 493.62183c-4.87234 19.05527.49825 34.74179 9.81055 49.52259 7.20095 11.4296 11.93227 23.60997 11.70717 36.69681-3.27561 1.84709-6.39917 3.83804-9.41431 5.98055l-75.25773-49.98699 50.52421 74.42746c-.90775 1.25334-1.79218 2.55604-2.6437 3.84498-14.3304-6.45556-27.78276-7.73562-40.60162-5.25593-18.12127 3.50537-33.5061-.28984-49.57122-9.86467 10.02885 16.91938 24.99118 24.20993 42.02754 28.07677 13.20014 2.9961 25.13177 8.25359 34.23728 17.70263-.99077 3.56052-1.80901 7.16179-2.43119 10.81755l-88.58352 17.96332 88.38381 16.90213c.24293 1.5206.53565 3.03673.84614 4.55477-14.70201 5.56253-25.15478 14.14816-32.46731 24.96838-10.33501 15.29233-23.82469 23.4913-41.95485 28.08063 19.05525 4.87238 34.7155-.56169 49.4963-9.87399 11.42962-7.20093 23.60999-11.93227 36.69679-11.70717 1.84709 3.27561 3.83804 6.39917 5.98055 9.41431l-49.9607 75.32119 74.46462-50.61396c1.24367.90012 2.50286 1.82523 3.78154 2.66997-6.45554 14.33042-7.70935 27.84621-5.22966 40.66507 3.50536 18.12131-.31606 33.4428-9.89094 49.50781 16.91943-10.02872 24.20999-24.9911 28.07677-42.02755 2.99611-13.20017 8.2536-25.13179 17.70263-34.2373 3.56771.99361 7.15419 1.80769 10.81755 2.43118l17.96333 88.58357 16.90212-88.38386c1.52061-.24289 3.03675-.5356 4.55481-.84612 5.55935 14.70641 14.15064 25.15647 24.96834 32.46735 15.29235 10.33498 23.49134 23.82472 28.08065 41.95481 4.8724-19.05519-.56168-34.71548-9.87398-49.49625-7.21495-11.45195-11.8934-23.59536-11.64374-36.72314 3.25417-1.83772 6.35405-3.82477 9.35087-5.95426l75.32115 49.96073-50.5505-74.49092c.88821-1.22858 1.77239-2.49258 2.60658-3.75527 14.33447 6.4742 27.83963 7.7106 40.66504 5.22967 18.12124-3.50552 33.44273.3162 49.50777 9.89095-10.02881-16.9194-24.96486-24.14651-42.00126-28.01333-13.1853-2.99271-25.10336-8.35144-34.20009-17.79237.98835-3.55441 1.74665-7.14197 2.36772-10.79126l88.60983-17.89987-88.41012-16.96558c-.24291-1.5206-.53564-3.03673-.84614-4.55481 14.71551-5.55738 25.15375-14.14668 32.46733-24.96832 10.33498-15.29234 23.851-23.4279 41.9811-28.01719-19.05525-4.87238-34.74178.49821-49.52254 9.8105-11.45183 7.21495-23.59528 11.89343-36.72307 11.64375-1.83777-3.25416-3.82482-6.35404-5.95429-9.35085l49.98699-75.25775-74.51718 50.48707c-1.2286-.8882-2.49256-1.77236-3.75525-2.60655 6.4655-14.32627 7.73561-27.78279 5.2559-40.60162-3.50542-18.1213.28989-33.50614 9.8647-49.57122-16.91939 10.02883-24.14653 24.96487-28.01334 42.00124-2.99946 13.21496-8.34866 25.18536-17.8295 34.28984-3.54355-.98412-7.11638-1.83833-10.75411-2.45745l-17.89992-88.60981-16.96558 88.41009c-1.52058.24292-3.03671.53563-4.55477.84615-5.56153-14.70591-14.14651-25.15362-24.96836-32.46732-15.29233-10.33502-23.42787-23.85096-28.01719-41.98114z" fill="#eac102" stroke-width="1.144714" transform="matrix(.8893792 0 0 .8640298 83.599509 34.345273)"/><g fill-rule="evenodd" stroke-width="1.003471"><path d="m400.5 637.03125c-47.51824 0-109.81357 99.65997-122.34375 120.53125h-5.34375c-7.12343-11.81452-28.88012-46.64428-55.09375-76.0625-1.08609-.69677-2.19111-1.34747-3.25-2.125-1.6544-1.21478-3.27219-2.48548-4.90625-3.78125-1.63408-1.29577-3.283-2.62893-4.9375-3.84375-1.65461-1.21473-3.34675-2.34069-5.0625-3.3125-1.71565-.97188-3.49465-1.77684-5.3125-2.34375-.9555-.3262-1.92072-.5503-2.90625-.6875s-1.99138-.1875-3-.1875c-2.01335 0-3.99965.33026-5.9375.875-1.81777.56689-3.59667 1.37186-5.3125 2.34375-1.71576.97183-3.37668 2.09772-5.03125 3.3125-1.65442 1.21487-3.27218 2.54792-4.90625 3.84375s-3.28302 2.56645-4.9375 3.78125c-1.6545 1.21489-3.28435 2.3719-5 3.34375-1.71565.97187-3.5259 1.80811-5.34375 2.375-1.71062.53353-3.44612.81074-5.28125.84375-.21815-.00696-.44014-.01665-.65625-.03125-.11907-.02794-.24745-.05774-.375-.0625-.00111.01165.00109.01957 0 .03125-.02669-.00202-.06708.00207-.09375 0-.04752-.00327-.10876.00366-.15625 0-.43064-.03643-.82708-.09072-1.25-.15625-.93973-.14555-1.84114-.34153-2.75-.625-1.81788-.56687-3.6281-1.40315-5.34375-2.375-1.71577-.97183-3.37676-2.1289-5.03125-3.34375-1.6545-1.21478-3.27218-2.48548-4.90625-3.78125s-3.28301-2.62891-4.9375-3.84375c-1.65449-1.21476-3.34675-2.34067-5.0625-3.3125-1.71564-.97188-3.43216-1.77679-5.25-2.34375-1.81777-.56692-3.72672-.87502-5.6875-.875-1.96079.00002-3.8384.30813-5.65625.875-.915374.28547-1.77153.79037-2.65625 1.1875-9.919434 9.66086-19.51131 20.71125-28.28125 31.8125-18.452874 23.35819-33.225544 46.73723-39.59375 57.21875.38045 1.92635.799112 3.83519 1.21875 5.75h1.375c20.776037 90.67475 95.30078 167.61144 187.0625 187.4375 68.49654 16.68672 142.70524.72585 200.0625-39.28125.33006-.23382.67109-.45208 1-.6875 10.40964-7.45092 20.24315-15.71249 29.375-24.71875 6.61902-6.52798 12.93539-13.39028 18.75-20.6875 4.40732-5.5311 8.60825-11.20347 12.5-17.15625 1.51688-2.16667 2.94532-4.38117 4.375-6.59375 8.93004-13.82015 16.02774-28.57978 21.71875-43.84375 4.65582-12.48746 8.27877-25.3169 10.9375-38.40625.496-2.44191.94191-4.88818 1.375-7.34375-19.14792-30.69555-74.91982-113.75-118.15625-113.75z" fill="#555753" stroke-linecap="square" transform="translate(54.428656 54.809823)"/><path d="m560.77241 851.27944c-.20603.16244-.41828.30482-.625.46875-1.63407 1.2958-3.28302 2.62898-4.9375 3.84375-1.65449 1.21477-3.31539 2.34069-5.03125 3.3125-1.71574.97184-3.49456 1.80816-5.3125 2.375-1.81775.56687-3.69546.87503-5.65625.875-1.96068.00002-3.83851-.30806-5.65625-.875-1.81784-.56695-3.56551-1.40313-5.28125-2.375s-3.34542-2.09768-5-3.3125c-1.65449-1.21483-3.30344-2.54799-4.9375-3.84375-1.63397-1.29577-3.25176-2.53512-4.90625-3.75-1.65449-1.21482-3.34666-2.34064-5.0625-3.3125-1.71575-.97184-3.49465-1.83932-5.3125-2.40625-1.81785-.5669-3.66433-.84374-5.625-.84375-1.96068 0-3.86974.27686-5.6875.84375-1.81794.56692-3.53426 1.43443-5.25 2.40625-1.71564.97185-3.40791 2.09775-5.0625 3.3125-1.65449 1.2148-3.30322 2.45419-4.9375 3.75-1.63407 1.2958-3.25177 2.62898-4.90625 3.84375-1.65449 1.21477-3.34685 2.34069-5.0625 3.3125-1.71565.97184-3.4634 1.80816-5.28125 2.375-1.81784.56687-3.69547.87503-5.65625.875-1.96078.00002-3.86974-.30806-5.6875-.875-1.81784-.56695-3.53437-1.40313-5.25-2.375-1.71575-.97187-3.40802-2.09768-5.0625-3.3125-1.65449-1.21483-3.30344-2.54799-4.9375-3.84375-1.63407-1.29577-3.25177-2.53512-4.90625-3.75-1.65449-1.21482-3.3156-2.34064-5.03125-3.3125-1.71565-.97184-3.52589-1.83932-5.34375-2.40625-.90887-.28344-1.81028-.4795-2.75-.625-.42294-.0655-.81936-.08859-1.25-.125-.04751-.00362-.10873.00326-.15625 0-.02669-.00204-.06706.00199-.09375 0-.12757-.00473-.25593-.03459-.375-.0625-.21613-.01456-.4381-.02432-.65625-.03125-1.83513.03306-3.57065.31029-5.28125.84375-1.81785.56692-3.62812 1.43443-5.34375 2.40625-1.71565.97185-3.34551 2.09775-5 3.3125-1.65449 1.2148-3.30344 2.45419-4.9375 3.75-1.63407 1.2958-3.25185 2.62898-4.90625 3.84375-1.65458 1.21477-3.31551 2.34069-5.03125 3.3125-1.71584.97184-3.49475 1.80816-5.3125 2.375-1.81785.56687-3.69556.87503-5.65625.875-.09522 0-.18654.00159-.28125 0-.09513.00156-.18603.00003-.28125 0-1.96068 0-3.80715-.30808-5.625-.875-1.81785-.56691-3.59687-1.40313-5.3125-2.375-1.71575-.97185-3.40791-2.0977-5.0625-3.3125-1.65449-1.21481-3.30354-2.54799-4.9375-3.84375-1.63406-1.29577-3.25187-2.53512-4.90625-3.75-1.65449-1.21484-3.34675-2.34064-5.0625-3.3125-1.71564-.97184-3.43224-1.83929-5.25-2.40625-1.72949-.53939-3.54726-.81619-5.40625-.84375-1.85181.02939-3.58938.30639-5.3125.84375-1.81784.56692-3.59665 1.43443-5.3125 2.40625-1.71574.97185-3.408 2.09775-5.0625 3.3125-1.65449 1.2148-3.27218 2.45419-4.90625 3.75-1.63407 1.2958-3.25187 2.62898-4.90625 3.84375-1.65459 1.21477-3.31551 2.34069-5.03125 3.3125-1.71575.97184-3.5259 1.80816-5.34375 2.375-1.81784.56687-3.66433.87503-5.625.875-.09522 0-.18633.00159-.28125 0-.09482.00156-.21717.00003-.3125 0-1.96078 0-3.8386-.30808-5.65625-.875-1.81784-.56691-3.5655-1.40313-5.28125-2.375-1.71564-.97185-3.37666-2.0977-5.03125-3.3125-1.65449-1.21481-3.30344-2.54799-4.9375-3.84375-1.63407-1.29577-3.25178-2.53512-4.90625-3.75-1.65449-1.21484-3.34675-2.34064-5.0625-3.3125-1.71574-.97184-3.49466-1.83929-5.3125-2.40625-1.7295-.53939-3.45532-.81619-5.3125-.84375-.18297.00321-.4123.02185-.59375.03125-.13263.02964-.26453.05724-.40625.0625-.50756.03797-.96948.05244-1.46875.125-.9397.14552-1.87237.34159-2.78125.625-1.81774.56689-3.59685 1.43443-5.3125 2.40625-1.71574.97185-3.40801 2.09777-5.0625 3.3125-1.65448 1.2148-3.24103 2.45419-4.875 3.75-1.63417 1.2958-3.28301 2.62896-4.9375 3.84375-1.65449 1.21478-3.34675 2.34066-5.0625 3.3125-1.71585.97184-3.4634 1.8081-5.28125 2.375-1.81774.56689-3.72692.87505-5.6875.875-1.96068 0-3.80725-.30808-5.625-.875-1.81784-.56691-3.56551-1.40313-5.28125-2.375-1.71575-.97185-3.40802-2.0977-5.0625-3.3125-1.65449-1.21481-3.27229-2.54799-4.90625-3.84375-1.63406-1.29577-3.34541-2.53512-5-3.75-1.65449-1.21484-3.2532-2.34064-4.96875-3.3125-1.71575-.97184-3.4634-1.83929-5.28125-2.40625-1.81774-.56692-3.69537-.84374-5.65625-.84375-1.96058 0-3.83851.27689-5.65625.84375-1.81785.56689-3.59686 1.43443-5.3125 2.40625-1.71575.97185-3.40803 2.09777-5.0625 3.3125-1.65449 1.2148-3.27218 2.45419-4.90625 3.75-1.63406 1.2958-3.25187 2.62896-4.90625 3.84375-1.65459 1.21478-3.34685 2.34066-5.0625 3.3125-1.71585.97184-3.43226 1.8081-5.25 2.375-1.81784.56689-3.69547.87505-5.65625.875-1.96068 0-3.86971-.30808-5.6875-.875-1.81785-.56691-3.56554-1.40313-5.28125-2.375-1.71575-.97185-3.40801-2.0977-5.0625-3.3125-1.65449-1.21481-3.27219-2.54799-4.90625-3.84375-1.634073-1.29577-3.251889-2.53512-4.906254-3.75-.920439-.67585-1.84547-1.32772-2.78125-1.9375 28.376404 78.05842 96.438654 141.55101 178.500004 159.28121 56.6703 13.8057 117.19065 5.1377 168.90625-20.87496-.34199-.23227-.69767-.44258-1.03125-.6875-1.65449-1.21482-3.30344-2.54793-4.9375-3.84375-1.63407-1.29578-3.25187-2.56648-4.90625-3.78125-1.65459-1.21481-3.3156-2.30943-5.03125-3.28125-1.71565-.97184-3.52589-1.80815-5.34375-2.375-.90887-.28345-1.81028-.51075-2.75-.65625-.42304-.0655-.81936-.11982-1.25-.15625-.04741-.00364-.10873.00328-.15625 0-.02658-.00206-.06706.00203-.09375 0-.00121.0117.00111.05079 0 .0625-.12767-.00473-.25593-.06578-.375-.09375-.21613-.01457-.4381-.02435-.65625-.03125-1.83492.03305-3.57065.34146-5.28125.875-1.81785.56691-3.62801 1.40314-5.34375 2.375-1.71565.97184-3.34541 2.06638-5 3.28125-1.65439 1.21481-3.30354 2.48549-4.9375 3.78125-1.63407 1.29581-3.25185 2.62896-4.90625 3.84375-1.65458 1.21477-3.31561 2.37192-5.03125 3.34375-1.71594.97185-3.49475 1.77686-5.3125 2.34375-1.81785.56688-3.69566.875-5.65625.875-.09522 0-.18654.00157-.28125 0-.09513.00156-.18603 0-.28125 0-1.96078 0-3.80715-.30811-5.625-.875-1.81785-.5669-3.59687-1.37188-5.3125-2.34375-1.71575-.97185-3.40781-2.12896-5.0625-3.34375-1.65439-1.2148-3.30354-2.54793-4.9375-3.84375-1.63406-1.29578-3.25177-2.56648-4.90625-3.78125-1.65449-1.21483-3.34675-2.30943-5.0625-3.28125-1.71574-.97184-3.43214-1.80813-5.25-2.375-1.72949-.53939-3.54726-.84747-5.40625-.875-1.85181.02938-3.58938.33755-5.3125.875-1.81784.56691-3.59665 1.40314-5.3125 2.375-1.71574.97184-3.4081 2.06638-5.0625 3.28125-1.65449 1.21481-3.27218 2.48549-4.90625 3.78125-1.63407 1.29581-3.25187 2.62896-4.90625 3.84375-1.65449 1.21477-3.31561 2.37192-5.03125 3.34375-1.71575.97185-3.5259 1.77686-5.34375 2.34375-1.81784.56688-3.66433.875-5.625.875-.09522 0-.18633.00157-.28125 0-.09482.00156-.21717 0-.3125 0-1.96078 0-3.8386-.30811-5.65625-.875-1.81784-.5669-3.5655-1.37188-5.28125-2.34375-1.71564-.97185-3.37666-2.12896-5.03125-3.34375-1.65449-1.2148-3.30344-2.54793-4.9375-3.84375-1.63407-1.29578-3.25178-2.56648-4.90625-3.78125-1.65449-1.21483-3.34675-2.30943-5.0625-3.28125-1.71574-.97184-3.49466-1.80813-5.3125-2.375-1.7295-.53939-3.45532-.84747-5.3125-.875-.18297.0032-.4123.02192-.59375.03125-.13263.02963-.26453.08849-.40625.09375-.00111-.01169.00121-.05079 0-.0625-.50756.03796-.96948.08367-1.46875.15625-.9397.14552-1.87237.37276-2.78125.65625-1.81774.56689-3.59675 1.40314-5.3125 2.375-1.71574.97184-3.40801 2.0664-5.0625 3.28125-1.65448 1.21481-3.24103 2.48549-4.875 3.78125-1.63417 1.29581-3.28301 2.62894-4.9375 3.84375-.73652.54082-1.47313 1.02697-2.21875 1.53125-1.54814-.50087-3.06278-1.00938-4.59375-1.53125-5.46185-2.83812-10.83049-5.88634-16.0625-9.125s-10.33115-6.66641-15.3125-10.28125-9.85262-7.40837-14.5625-11.375-9.26991-8.1122-13.6875-12.40625c.97215-.44907 1.96364-.87402 2.96875-1.1875 1.81774-.5669 3.69567-.87502 5.65625-.875 1.96078 0 3.84317.30816 5.6875.875 1.84433.56693 3.64966 1.40318 5.40625 2.375 1.75658.97185 3.42755 2.09766 5.125 3.3125 1.69735 1.21481 3.39578 2.54794 5.0625 3.84375 1.66672 1.2958 3.36645 2.59431 5.03125 3.8125 1.6646 1.21823 3.30883 2.34064 5 3.3125 1.69128.97185 3.40977 1.77686 5.15625 2.34375 1.74628.56692 3.48242.84376 5.3125.84375 1.96078 0 3.86967-.27682 5.6875-.84375 1.81784-.56691 3.5655-1.37191 5.28125-2.34375 1.71575-.97183 3.40811-2.16017 5.0625-3.375.96467-.70825 1.88494-1.47709 2.84375-2.21875-.03053-.03131-.03026.00221-.0625-.03125.65484-.51019 1.314-.9808 1.96875-1.5 1.63407-1.29579 3.25177-2.62899 4.90625-3.84375 1.65459-1.21479 3.34685-2.34063 5.0625-3.3125 1.71584-.97184 3.46341-1.80805 5.28125-2.375 1.36336-.42514 2.77483-.69178 4.21875-.8125.08805-.00737.19361.00667.28125 0 .03508-.00574.05827-.02621.09375-.03125.16881-.02393.38469-.03125.5625-.03125.09523 0 .18644-.00159.28125 0 .08855-.002.16042 0 .25 0 .49017 0 .95805.02228 1.4375.0625.04751.00359.10864-.00394.15625 0 1.44392.1207 2.85529.38738 4.21875.8125 1.81774.56693 3.56551 1.40318 5.28125 2.375 1.71554.97185 3.37666 2.09766 5.03125 3.3125 1.65428 1.21481 3.30343 2.54794 4.9375 3.84375.65464.51922 1.31381.9898 1.96875 1.5-.03266.03377-.06292-.00036-.09375.03125.96447.74623 1.96707 1.50631 2.9375 2.21875 1.65449 1.21481 3.28427 2.40316 5 3.375 1.71575.97185 3.46352 1.77688 5.28125 2.34375 1.76103.5492 3.60472.82569 5.5.84375.06105.00057.12624-.00001.1875 0 .16205-.0048.33917-.02231.5-.03125.13596-.00396.23965.00728.375 0 .055-.00423.10137-.02651.15625-.03125 1.37994-.11836 2.72006-.37231 4.03125-.78125 1.81794-.56691 3.59686-1.37191 5.3125-2.34375 1.71595-.97183 3.34563-2.16017 5-3.375 1.65459-1.21482 3.30343-2.45422 4.9375-3.75 1.63406-1.29579 3.25165-2.62898 4.90625-3.84375 1.65449-1.21481 3.37799-2.34061 5.09375-3.3125 1.71575-.97184 3.46349-1.80802 5.28125-2.375 1.81784-.5669 3.66413-.87502 5.625-.875.09522 0 .18634-.00159.28125 0 .10169-.00182.21061 0 .3125 0 1.96068-.00002 3.8384.30812 5.65625.875 1.81784.56696 3.56531 1.40318 5.28125 2.375 1.71574.97187 3.40781 2.09764 5.0625 3.3125 1.65448 1.21483 3.30343 2.54794 4.9375 3.84375 1.63397 1.2958 3.22052 2.5352 4.875 3.75 1.65449 1.21481 3.37789 2.40316 5.09375 3.375 1.71565.97185 3.43225 1.77688 5.25 2.34375 1.76113.5492 3.57477.82569 5.46875.84375.06106.00057.12625-.00001.1875 0 .18964-.00563.37377-.02002.5625-.03125.10806-.00321.20474.00505.3125 0 .03387-.00258.09113.0028.125 0 1.41431-.11545 2.7934-.39723 4.125-.8125 1.81785-.56691 3.53426-1.37191 5.25-2.34375 1.71585-.97183 3.4082-2.16017 5.0625-3.375.96477-.70825 1.9162-1.47709 2.875-2.21875-.03063-.03131-.06139.00221-.09375-.03125.65494-.51019 1.314-.9808 1.96875-1.5 1.63396-1.29579 3.31427-2.62899 4.96875-3.84375 1.65459-1.21479 3.28426-2.34063 5-3.3125 1.71574-.97184 3.49465-1.80805 5.3125-2.375 1.36335-.42514 2.77471-.69178 4.21875-.8125.48127-.04023.91597-.0625 1.40625-.0625.12252 0 .25259-.00362.375 0 .11504-.00232.25935 0 .375 0 .22967 0 .44043.02558.65625.0625.02669.00218.06728-.0022.09375 0 .04741.00359.10885-.00394.15625 0 1.44402.1207 2.82414.38738 4.1875.8125 1.81784.56693 3.5655 1.40318 5.28125 2.375 1.71585.97185 3.4079 2.09766 5.0625 3.3125 1.65459 1.21481 3.30344 2.54794 4.9375 3.84375.65474.51922 1.28256.9898 1.9375 1.5-.03265.03377-.03146-.00036-.0625.03125.96447.74623 1.90466 1.50631 2.875 2.21875 1.65448 1.21481 3.34674 2.40316 5.0625 3.375 1.71584.97185 3.43207 1.77688 5.25 2.34375 1.81785.5669 3.72672.84374 5.6875.84375 1.82987.00002 3.62884-.2768 5.375-.84375 1.74648-.56692 3.43361-1.37191 5.125-2.34375 1.69119-.97185 3.36657-2.09423 5.03125-3.3125 1.6645-1.21823 3.30203-2.51672 4.96875-3.8125 1.66672-1.29579 3.36494-2.62899 5.0625-3.84375 1.69735-1.21479 3.4309-2.34063 5.1875-3.3125 1.75658-.97184 3.53069-1.80805 5.375-2.375 1.84443-.56686 3.75806-.875 5.71875-.875 1.96068-.00002 3.80716.30812 5.625.875.12748.03976.24796.11346.375.15625 6.61902-6.52798 12.93539-13.39028 18.75-20.6875-1.28443-.9757-2.57043-1.99029-3.84375-3-1.63397-1.29577-3.25176-2.56648-4.90625-3.78125-1.65449-1.21481-3.34676-2.37193-5.0625-3.34375-1.71575-.97184-3.49475-1.80813-5.3125-2.375-1.81785-.56691-3.66433-.84369-5.625-.84375-1.96068 0-3.86974.2768-5.6875.84375-1.81794.56691-3.53426 1.40314-5.25 2.375-1.71564.97184-3.40791 2.12888-5.0625 3.34375-1.65449 1.21481-3.30322 2.48544-4.9375 3.78125-1.63407 1.2958-3.25177 2.6289-4.90625 3.84375-1.65449 1.21477-3.34685 2.34068-5.0625 3.3125-1.71565.97185-3.4635 1.77686-5.28125 2.34375-1.81784.56687-3.69547.87498-5.65625.875s-3.86974-.30809-5.6875-.875c-1.81784-.56695-3.53437-1.37188-5.25-2.34375-1.71575-.97185-3.40802-2.09775-5.0625-3.3125-1.65449-1.21482-3.30344-2.54799-4.9375-3.84375-1.63407-1.29577-3.25177-2.56648-4.90625-3.78125-1.65449-1.21481-3.31549-2.37193-5.03125-3.34375-1.71565-.97184-3.52589-1.80813-5.34375-2.375-.90887-.28345-1.81028-.47945-2.75-.625-.42294-.0655-.81936-.11982-1.25-.15625-.04751-.00363-.10873.00327-.15625 0-.02669-.00204-.06706.00202-.09375 0-.00111.01171.00111.0196 0 .03125-.12757-.00473-.25593-.03456-.375-.0625-.21613-.01457-.4381-.02429-.65625-.03125-1.83513.03304-3.57065.31023-5.28125.84375-1.81785.56691-3.62812 1.40314-5.34375 2.375-1.71565.97184-3.34551 2.12888-5 3.34375-1.65449 1.21481-3.30344 2.48544-4.9375 3.78125-1.63407 1.2958-3.25185 2.6289-4.90625 3.84375-1.65458 1.21477-3.31551 2.34068-5.03125 3.3125-1.71584.97185-3.49475 1.77686-5.3125 2.34375-1.81785.56687-3.69556.87498-5.65625.875-.09522 0-.18654.00153-.28125 0-.09513.00156-.18603-.00002-.28125 0-1.96068 0-3.80715-.30812-5.625-.875-1.81785-.5669-3.59687-1.37188-5.3125-2.34375-1.71575-.97183-3.40791-2.09778-5.0625-3.3125-1.65449-1.2148-3.30344-2.54799-4.9375-3.84375-1.63406-1.29577-3.25187-2.56648-4.90625-3.78125-1.65449-1.21483-3.34675-2.37193-5.0625-3.34375-1.71564-.97184-3.43214-1.80811-5.25-2.375-1.72949-.5394-3.54726-.81615-5.40625-.84375-1.85181.02939-3.58938.30632-5.3125.84375-1.81784.56691-3.59665 1.40314-5.3125 2.375-1.71574.97184-3.408 2.12888-5.0625 3.34375-1.65449 1.21481-3.27218 2.48544-4.90625 3.78125-1.63407 1.2958-3.25187 2.6289-4.90625 3.84375-1.65459 1.21477-3.31561 2.34068-5.03125 3.3125-1.71575.97185-3.5259 1.77686-5.34375 2.34375-1.81784.56687-3.66433.87498-5.625.875-.09522 0-.18633.00153-.28125 0-.09482.00156-.21717-.00002-.3125 0-1.96078 0-3.8386-.30812-5.65625-.875-1.81784-.5669-3.5655-1.37188-5.28125-2.34375-1.71564-.97183-3.37666-2.09778-5.03125-3.3125-1.65449-1.2148-3.30344-2.54799-4.9375-3.84375-1.63407-1.29577-3.25178-2.56648-4.90625-3.78125-1.65449-1.21483-3.34675-2.37193-5.0625-3.34375-1.71574-.97184-3.49466-1.80811-5.3125-2.375-1.7295-.5394-3.45532-.81615-5.3125-.84375-.18297.0032-.4123.02189-.59375.03125-.13263.02963-.26453.0573-.40625.0625-.00111-.01171.00121-.01954 0-.03125-.50756.03797-.96948.08374-1.46875.15625-.9397.14552-1.87237.34153-2.78125.625-1.81774.56689-3.59675 1.40314-5.3125 2.375-1.71574.97184-3.40801 2.1289-5.0625 3.34375-1.65448 1.21481-3.24103 2.48544-4.875 3.78125-1.63417 1.2958-3.28301 2.62888-4.9375 3.84375-1.65449 1.21479-3.34675 2.34066-5.0625 3.3125-1.71585.97185-3.4634 1.77682-5.28125 2.34375-1.81774.5669-3.72692.875-5.6875.875-1.96068 0-3.80715-.30812-5.625-.875-1.81784-.5669-3.56551-1.37188-5.28125-2.34375-1.71575-.97183-3.40802-2.09778-5.0625-3.3125-1.65449-1.2148-3.27229-2.54799-4.90625-3.84375-1.63406-1.29577-3.34541-2.56648-5-3.78125-1.65449-1.21483-3.2532-2.37193-4.96875-3.34375-1.71575-.97184-3.4634-1.80811-5.28125-2.375-1.81774-.56693-3.69537-.84369-5.65625-.84375-1.96058 0-3.83851.27682-5.65625.84375-1.81785.56689-3.59686 1.40314-5.3125 2.375-1.71575.97184-3.40803 2.1289-5.0625 3.34375-1.65449 1.21481-3.27218 2.48544-4.90625 3.78125-1.63406 1.2958-3.25197 2.62888-4.90625 3.84375-.43164.31688-.84699.60265-1.28125.90625-3.44297-4.12459-6.7554-8.35567-9.9375-12.6875s-6.24748-8.7665-9.15625-13.28125c1.42219.33609 2.90177.50002 4.40625.5 1.96078 0 3.8384-.27688 5.65625-.84375 1.81775-.56689 3.53426-1.40315 5.25-2.375 1.71575-.97181 3.40781-2.12891 5.0625-3.34375 1.65449-1.21481 3.27219-2.4854 4.90625-3.78125 1.63407-1.2958 3.25175-2.62895 4.90625-3.84375 1.65448-1.21481 3.34675-2.3094 5.0625-3.28125 1.71564-.97185 3.49465-1.80803 5.3125-2.375 1.81774-.5669 3.69567-.87502 5.65625-.875 1.96078 0 3.84317.30815 5.6875.875 1.84433.56693 3.64966 1.40314 5.40625 2.375 1.75658.97182 3.42755 2.06644 5.125 3.28125 1.69735 1.21481 3.39578 2.548 5.0625 3.84375 1.66672 1.29579 3.36645 2.59431 5.03125 3.8125 1.6646 1.21824 3.30883 2.34065 5 3.3125 1.69128.97186 3.40977 1.80805 5.15625 2.375 1.74628.56693 3.48242.84377 5.3125.84375 1.96078 0 3.86967-.27688 5.6875-.84375 1.81784-.56689 3.5655-1.40315 5.28125-2.375 1.71575-.97181 3.40811-2.12891 5.0625-3.34375.96467-.70825 1.88494-1.44585 2.84375-2.1875-.03053-.0313-.03026-.06025-.0625-.09375.65484-.51021 1.314-.98073 1.96875-1.5 1.63407-1.2958 3.25177-2.62896 4.90625-3.84375 1.65459-1.21479 3.34685-2.30944 5.0625-3.28125 1.71584-.97185 3.46341-1.80807 5.28125-2.375 1.36336-.42513 2.77483-.69181 4.21875-.8125.08805-.00736.19361.00664.28125 0 .03508-.00575.05827-.02616.09375-.03125.16881-.02393.38469-.03123.5625-.03125.09523 0 .18644-.00157.28125 0 .08855-.002.16042.00002.25 0 .49017 0 .95805.02226 1.4375.0625.04751.00359.10864-.00398.15625 0 1.44392.12071 2.85529.38737 4.21875.8125 1.81774.56693 3.56551 1.40314 5.28125 2.375 1.71554.97182 3.37666 2.06644 5.03125 3.28125 1.65428 1.21481 3.30343 2.548 4.9375 3.84375.65464.51922 1.31381.98983 1.96875 1.5-.03266.03376-.06292.06214-.09375.09375.96447.74624 1.96707 1.47507 2.9375 2.1875 1.65449 1.21481 3.28427 2.37192 5 3.34375 1.71575.97186 3.46352 1.80807 5.28125 2.375 1.76103.54921 3.60472.82571 5.5.84375.06105.00058.12624 0 .1875 0 .16205-.00481.33917-.02233.5-.03125.13596-.00396.23965.00724.375 0 .055-.00422.10137-.02656.15625-.03125 1.37994-.11836 2.72006-.37237 4.03125-.78125 1.81794-.56689 3.59686-1.40315 5.3125-2.375 1.71585-.97181 3.34553-2.12891 5-3.34375 1.65449-1.21481 3.30343-2.4854 4.9375-3.78125 1.63406-1.2958 3.25155-2.62895 4.90625-3.84375 1.65449-1.21481 3.37809-2.3094 5.09375-3.28125 1.71575-.97185 3.46349-1.80803 5.28125-2.375 1.81784-.5669 3.66413-.87502 5.625-.875.09522 0 .18634-.00157.28125 0 .10169-.00182.21061.00002.3125 0 1.96078-.00003 3.8384.3081 5.65625.875 1.81784.56697 3.56541 1.40314 5.28125 2.375 1.71574.97186 3.40791 2.06642 5.0625 3.28125 1.65448 1.21482 3.30343 2.548 4.9375 3.84375 1.63397 1.29579 3.22052 2.56647 4.875 3.78125 1.65459 1.21481 3.37789 2.37192 5.09375 3.34375 1.71565.97186 3.43225 1.80807 5.25 2.375 1.76103.54921 3.57477.82571 5.46875.84375.06106.00058.12625 0 .1875 0 .18964-.00563.37377-.02006.5625-.03125.10806-.0032.20474.00502.3125 0 .03387-.00258.09113.00276.125 0 1.41431-.11545 2.7935-.39729 4.125-.8125 1.81785-.56689 3.53426-1.40315 5.25-2.375 1.71575-.97181 3.4081-2.12891 5.0625-3.34375.96467-.70825 1.9161-1.44585 2.875-2.1875-.03063-.0313-.06129-.06025-.09375-.09375.65494-.51021 1.3139-.98073 1.96875-1.5 1.63396-1.2958 3.31427-2.62896 4.96875-3.84375s3.28426-2.30944 5-3.28125c1.71564-.97185 3.49465-1.80807 5.3125-2.375 1.36335-.42513 2.77471-.69181 4.21875-.8125.48127-.04022.91597-.06248 1.40625-.0625.12252 0 .25249-.00361.375 0 .11504-.00232.25935.00002.375 0 .22967 0 .44043.02556.65625.0625.02669.00219.06718-.00224.09375 0 .04741.00359.10875-.00398.15625 0 1.44402.12071 2.82414.38737 4.1875.8125 1.81784.56693 3.5655 1.40314 5.28125 2.375 1.71585.97182 3.408 2.06644 5.0625 3.28125 1.65459 1.21481 3.30344 2.548 4.9375 3.84375.65484.51922 1.28256.98983 1.9375 1.5-.03275.03376-.03146.06214-.0625.09375.96457.74624 1.90466 1.47507 2.875 2.1875 1.65448 1.21481 3.34664 2.37192 5.0625 3.34375 1.71574.97186 3.43207 1.80807 5.25 2.375 1.81785.56691 3.72682.84375 5.6875.84375 1.82997.00002 3.62884-.27686 5.375-.84375 1.74638-.56691 3.43371-1.40315 5.125-2.375 1.69119-.97184 3.36657-2.09421 5.03125-3.3125 1.6646-1.21824 3.30203-2.51665 4.96875-3.8125 1.66682-1.2958 3.36504-2.62896 5.0625-3.84375 1.69745-1.21479 3.4309-2.30944 5.1875-3.28125 1.75648-.97185 3.53059-1.80807 5.375-2.375 1.84443-.56685 3.75795-.87498 5.71875-.875 1.96068-.00003 3.80716.3081 5.625.875 1.81784.56697 3.59685 1.40314 5.3125 2.375 1.71564.97186 3.40802 2.06642 5.0625 3.28125 1.65448 1.21482 3.27217 2.548 4.90625 3.84375 1.63417 1.29579 3.2831 2.56647 4.9375 3.78125 1.65459 1.21481 3.28425 2.37192 5 3.34375 1.71575.97186 3.46341 1.80807 5.28125 2.375 1.76715.55113 3.59845.79703 5.5.8125 8.93004-13.82015 16.02774-28.57978 21.71875-43.84375z" fill="#008084"/><path d="m204.92866 691.85963c-16.96423 0-35.85504 12.82068-53.71875 30.21875.88472-.39713 1.74088-.90203 2.65625-1.1875 1.81785-.56687 3.69546-.87498 5.65625-.875 1.96078-.00002 3.86973.30808 5.6875.875 1.81784.56696 3.53436 1.37187 5.25 2.34375 1.71575.97183 3.40801 2.09774 5.0625 3.3125 1.65449 1.21484 3.30343 2.54798 4.9375 3.84375s3.25175 2.56647 4.90625 3.78125c1.65449 1.21485 3.31548 2.37192 5.03125 3.34375 1.71565.97185 3.52587 1.80813 5.34375 2.375.90886.28347 1.81027.47945 2.75.625.42292.06553.81936.11982 1.25.15625.04749.00366.10873-.00327.15625 0 .02667.00207.06706-.00202.09375 0 .00109-.01168-.00111-.0196 0-.03125.12755.00476.25593.03456.375.0625.21611.0146.4381.02429.65625.03125 1.83513-.03301 3.57063-.31022 5.28125-.84375 1.81785-.56689 3.6281-1.40313 5.34375-2.375 1.71565-.97185 3.3455-2.12886 5-3.34375 1.65448-1.2148 3.30343-2.48542 4.9375-3.78125s3.25183-2.62888 4.90625-3.84375c1.65457-1.21478 3.31549-2.34067 5.03125-3.3125 1.71583-.97189 3.49473-1.77686 5.3125-2.34375 1.93785-.54474 3.92415-.875 5.9375-.875 1.00862 0 2.01447.0503 3 .1875s1.95075.3613 2.90625.6875c1.81785.56691 3.59685 1.37187 5.3125 2.34375 1.71575.97181 3.40789 2.09777 5.0625 3.3125 1.6545 1.21482 3.30342 2.54798 4.9375 3.84375 1.63406 1.29577 3.25185 2.56647 4.90625 3.78125 1.05889.77753 2.16391 1.42823 3.25 2.125-21.54035-24.17363-45.89029-44.4375-67.21875-44.4375z" fill="#e3e4e5"/><path d="m454.64741 691.47193c16.96423 0 35.85504 12.82068 53.71875 30.21875-.88473-.39713-1.74089-.90203-2.65625-1.1875-1.81785-.56687-3.69546-.87498-5.65625-.875-1.96078-.00002-3.86973.30808-5.6875.875-1.81784.56696-3.53436 1.37187-5.25 2.34375-1.71575.97183-3.40801 2.09774-5.0625 3.3125-1.65449 1.21484-3.30343 2.54798-4.9375 3.84375s-3.25175 2.56647-4.90625 3.78125c-1.65449 1.21485-3.31548 2.37192-5.03125 3.34375-1.71565.97185-3.52587 1.80813-5.34375 2.375-.90886.28347-1.81027.47945-2.75.625-.42292.06553-.81936.11982-1.25.15625-.04749.00366-.10873-.00327-.15625 0-.02667.00207-.06706-.00202-.09375 0-.00109-.01168.00111-.0196 0-.03125-.12755.00476-.25593.03456-.375.0625-.21611.0146-.4381.02429-.65625.03125-1.83513-.03301-3.57063-.31022-5.28125-.84375-1.81785-.56689-3.6281-1.40313-5.34375-2.375-1.71565-.97185-3.3455-2.12886-5-3.34375-1.65448-1.2148-3.30343-2.48542-4.9375-3.78125s-3.25183-2.62888-4.90625-3.84375c-1.65457-1.21478-3.31549-2.34067-5.03125-3.3125-1.71583-.97189-3.49473-1.77686-5.3125-2.34375-1.93785-.54474-3.92415-.875-5.9375-.875-1.00862 0-2.01447.0503-3 .1875s-1.95075.3613-2.90625.6875c-1.81785.56691-3.59685 1.37187-5.3125 2.34375-1.71575.97181-3.40789 2.09777-5.0625 3.3125-1.6545 1.21482-3.30342 2.54798-4.9375 3.84375-1.63406 1.29577-3.25185 2.56647-4.90625 3.78125-1.05889.77753-2.16391 1.42823-3.25 2.125 21.54035-24.17363 45.89029-44.4375 67.21875-44.4375z" fill="#e3e4e5"/><path d="m454.92866 821.85963s-54.24514-200-125-200-125 200-125 200" fill="#555753"/><g fill="#e3e4e5"><path d="m329.92866 621.87233c-25.75634 0-49.28314 26.60257-68.84375 60.3125 1.24545.95308 2.48623 1.9289 3.71875 2.90625 1.63405 1.29575 3.25177 2.56648 4.90625 3.78125 1.65447 1.21479 3.31549 2.37193 5.03125 3.34375 1.71563.97182 3.52589 1.80813 5.34375 2.375.90885.28343 1.81028.47945 2.75.625.42292.06548.81936.11982 1.25.15625.04749.00361.10873-.00327.15625 0 .02667.00202.06706-.00202.09375 0 .00109-.01173-.00111-.0196 0-.03125.12755.00471.25593.03456.375.0625.21611.01455.4381.02429.65625.03125 1.83511-.03306 3.57065-.31023 5.28125-.84375 1.81783-.56693 3.62812-1.40314 5.34375-2.375s3.34551-2.12888 5-3.34375c1.65447-1.21483 3.30344-2.48544 4.9375-3.78125 1.63405-1.29582 3.25185-2.6289 4.90625-3.84375 1.65456-1.21479 3.31551-2.34068 5.03125-3.3125 1.71583-.97187 3.49475-1.77686 5.3125-2.34375 1.81784-.56689 3.69556-.87498 5.65625-.875.09521-.00002.18654-.00153.28125 0 .09512-.00158.18603.00002.28125 0 1.96067-.00002 3.80715.30812 5.625.875 1.81784.56688 3.59687 1.37188 5.3125 2.34375 1.71574.97181 3.40791 2.09778 5.0625 3.3125 1.65448 1.21478 3.30344 2.54799 4.9375 3.84375 1.63405 1.29575 3.25187 2.56648 4.90625 3.78125 1.65448 1.21481 3.34675 2.37193 5.0625 3.34375 1.71563.97182 3.43214 1.80811 5.25 2.375 1.72948.53938 3.54726.81615 5.40625.84375 1.8518-.02941 3.58938-.30632 5.3125-.84375 1.81783-.56693 3.59665-1.40314 5.3125-2.375 1.71573-.97186 3.408-2.12888 5.0625-3.34375 1.65448-1.21483 3.27218-2.48544 4.90625-3.78125 1.63406-1.29582 3.25187-2.6289 4.90625-3.84375.87371-.64148 1.77185-1.1677 2.65625-1.75-19.23731-32.38951-42.13609-57.625-67.1875-57.625z"/><path d="m109.21875 755.59375c-1.96058-.00002-3.83851.33934-5.65625.90625-1.81785.56695-3.59686 1.34067-5.3125 2.3125-1.71575.97191-3.40802 2.12893-5.0625 3.34375-1.654494 1.2148-3.27218 2.54794-4.90625 3.84375-1.63406 1.29578-3.25176 2.56645-4.90625 3.78125-1.654591 1.2148-3.34675 2.37194-5.0625 3.34375-1.715736.97189-3.43225 1.77685-5.25 2.34375-1.817844.56692-3.69547.84375-5.65625.84375-1.960679.00002-3.86961-.27682-5.6875-.84375-1.817858-.5669-3.5655-1.37188-5.28125-2.34375-1.715781-.97179-3.40801-2.12894-5.0625-3.34375-1.654491-1.21481-3.27219-2.48546-4.90625-3.78125-1.634067-1.29582-3.251765-2.62894-4.90625-3.84375-1.654508-1.21482-3.346854-2.3719-5.0625-3.34375-1.715737-.9718-3.494656-1.74558-5.3125-2.3125-.767672-.23939-1.552913-.41099-2.34375-.5625 1.536374 7.8303 3.370558 15.56953 5.6875 23.1875.320196 1.01585.666537 2.01981 1 3.03125.982597 3.08273 2.144835 6.11614 3.25 9.15625.934858.60926 1.861702 1.2623 2.78125 1.9375 1.654365 1.21488 3.272181 2.45423 4.90625 3.75 1.634062 1.29576 3.25176 2.62894 4.90625 3.84375 1.654489 1.2148 3.34675 2.34065 5.0625 3.3125 1.715719.97187 3.4634 1.80809 5.28125 2.375 1.817792.56692 3.72682.875 5.6875.875 1.960781.00005 3.83841-.30811 5.65625-.875 1.817746-.5669 3.53415-1.40316 5.25-2.375 1.715654-.97184 3.40791-2.09772 5.0625-3.3125 1.654389-1.21479 3.27219-2.54795 4.90625-3.84375 1.63407-1.29581 3.25176-2.5352 4.90625-3.75 1.654476-1.21473 3.34675-2.34065 5.0625-3.3125 1.71564-.97182 3.49465-1.83936 5.3125-2.40625 1.81774-.56686 3.69567-.84375 5.65625-.84375 1.96088.00001 3.83851.27683 5.65625.84375 1.81785.56696 3.5655 1.43441 5.28125 2.40625 1.71555.97186 3.31426 2.09766 4.96875 3.3125 1.65459 1.21488 3.36594 2.45423 5 3.75 1.63396 1.29576 3.25176 2.62894 4.90625 3.84375 1.65448 1.2148 3.34675 2.34065 5.0625 3.3125 1.71574.97187 3.46341 1.80809 5.28125 2.375 1.81775.56692 3.66432.875 5.625.875 1.96058.00005 3.86976-.30811 5.6875-.875 1.81785-.5669 3.5654-1.40316 5.28125-2.375 1.71575-.97184 3.40801-2.09772 5.0625-3.3125 1.65449-1.21479 3.30333-2.54795 4.9375-3.84375 1.63397-1.29581 3.22052-2.5352 4.875-3.75 1.65449-1.21473 3.34676-2.34065 5.0625-3.3125 1.71565-.97182 3.49476-1.83936 5.3125-2.40625.90888-.28341 1.84155-.47948 2.78125-.625.49927-.07256.96119-.08703 1.46875-.125.14172-.00526.27362-.03286.40625-.0625.18145-.0094.41078-.02804.59375-.03125 1.85718.02756 3.583.30436 5.3125.84375 1.81784.56696 3.59676 1.43441 5.3125 2.40625 1.71575.97186 3.40801 2.09766 5.0625 3.3125 1.65447 1.21488 3.27218 2.45423 4.90625 3.75 1.63406 1.29576 3.28301 2.62894 4.9375 3.84375 1.65459 1.2148 3.31561 2.34065 5.03125 3.3125 1.71575.97187 3.46341 1.80809 5.28125 2.375 1.81765.56692 3.69547.875 5.65625.875.09533.00003.21768.00156.3125 0 .09492.00159.18603 0 .28125 0 1.96067.00003 3.80716-.30813 5.625-.875 1.81785-.56684 3.628-1.40316 5.34375-2.375 1.71574-.97181 3.37666-2.09773 5.03125-3.3125 1.65438-1.21477 3.27218-2.54795 4.90625-3.84375 1.63407-1.29581 3.25176-2.5352 4.90625-3.75 1.6545-1.21475 3.34676-2.34065 5.0625-3.3125 1.71585-.97182 3.49466-1.83933 5.3125-2.40625 1.72312-.53736 3.46069-.81436 5.3125-.84375 1.85899.02756 3.67676.30436 5.40625.84375 1.81776.56696 3.53436 1.43441 5.25 2.40625 1.71575.97186 3.40801 2.09766 5.0625 3.3125 1.65438 1.21488 3.27219 2.45423 4.90625 3.75 1.63396 1.29576 3.28301 2.62894 4.9375 3.84375 1.65459 1.2148 3.34675 2.34065 5.0625 3.3125 1.71563.97187 3.49465 1.80809 5.3125 2.375 1.81785.56692 3.66432.875 5.625.875.09522.00003.18612.00156.28125 0 .09471.00159.18603 0 .28125 0 1.96069.00003 3.8384-.30813 5.65625-.875 1.81775-.56684 3.59666-1.40316 5.3125-2.375 1.71574-.97181 3.37667-2.09773 5.03125-3.3125 1.6544-1.21477 3.27218-2.54795 4.90625-3.84375 1.63406-1.29581 3.28301-2.5352 4.9375-3.75 1.65449-1.21475 3.28435-2.34065 5-3.3125 1.71563-.97182 3.5259-1.83933 5.34375-2.40625 1.7106-.53346 3.44612-.81069 5.28125-.84375.21815.00693.44012.01669.65625.03125.11907.02791.24743.05777.375.0625.02669.00199.06706-.00204.09375 0 .04752.00326.10874-.00362.15625 0 .43064.03641.82706.0595 1.25.125.93972.1455 1.84113.34156 2.75.625 1.81786.56693 3.6281 1.43441 5.34375 2.40625 1.71565.97186 3.37676 2.09768 5.03125 3.3125 1.65448 1.21488 3.27218 2.45423 4.90625 3.75 1.63406 1.29576 3.28301 2.62892 4.9375 3.84375 1.65448 1.21482 3.34675 2.34063 5.0625 3.3125 1.71563.97187 3.43216 1.80805 5.25 2.375 1.81776.56694 3.72672.87502 5.6875.875 1.96078.00003 3.83841-.30813 5.65625-.875 1.81785-.56684 3.5656-1.40316 5.28125-2.375 1.71565-.97181 3.40801-2.09773 5.0625-3.3125 1.65448-1.21477 3.27218-2.54795 4.90625-3.84375 1.63428-1.29581 3.28301-2.5352 4.9375-3.75 1.65459-1.21475 3.34686-2.34065 5.0625-3.3125 1.71574-.97182 3.43206-1.83933 5.25-2.40625 1.81776-.56689 3.72682-.84375 5.6875-.84375 1.96067.00001 3.80715.27685 5.625.84375 1.81785.56693 3.59675 1.43441 5.3125 2.40625 1.71584.97186 3.40801 2.09768 5.0625 3.3125 1.65449 1.21488 3.27228 2.45423 4.90625 3.75 1.63406 1.29576 3.28301 2.62892 4.9375 3.84375 1.65458 1.21482 3.28426 2.34063 5 3.3125s3.46341 1.80805 5.28125 2.375c1.81774.56694 3.69557.87502 5.65625.875 1.96079.00003 3.8385-.30813 5.65625-.875 1.81794-.56684 3.59676-1.40316 5.3125-2.375 1.71586-.97181 3.37676-2.09773 5.03125-3.3125 1.65448-1.21477 3.30343-2.54795 4.9375-3.84375.20624-.16355.41945-.30668.625-.46875.00343-.00921-.00343-.02204 0-.03125 4.65086-12.47875 8.28073-25.29531 10.9375-38.375.01057-.05205.02071-.10419.03125-.15625-.54708.26561-1.08467.5377-1.625.84375-1.71573.97189-3.40801 2.12896-5.0625 3.34375-1.65439 1.21478-3.27218 2.54794-4.90625 3.84375-1.63406 1.29578-3.28302 2.56645-4.9375 3.78125-1.65449 1.2148-3.3154 2.37194-5.03125 3.34375-1.71563.97189-3.49466 1.77683-5.3125 2.34375-1.81775.56695-3.69547.84378-5.65625.84375-1.96067-.00001-3.83851-.27685-5.65625-.84375-1.81794-.56688-3.5655-1.37188-5.28125-2.34375-1.71575-.97179-3.34541-2.12894-5-3.34375-1.6544-1.21481-3.30333-2.48546-4.9375-3.78125-1.63408-1.29582-3.25177-2.62893-4.90625-3.84375-1.65448-1.21485-3.34686-2.37188-5.0625-3.34375-1.71565-.9718-3.49466-1.74555-5.3125-2.3125-1.81784-.56691-3.66432-.90627-5.625-.90625-1.9608 0-3.87432.33938-5.71875.90625-1.84441.56692-3.61852 1.34067-5.375 2.3125-1.7566.97189-3.49005 2.12896-5.1875 3.34375-1.69746 1.21478-3.39568 2.54794-5.0625 3.84375-1.66672 1.29578-3.30415 2.59427-4.96875 3.8125-1.66468 1.21827-3.34006 2.34067-5.03125 3.3125-1.69129.97189-3.37862 1.77683-5.125 2.34375-1.74616.56695-3.54503.84378-5.375.84375-1.96068-.00001-3.86965-.27685-5.6875-.84375-1.81793-.56688-3.53426-1.37188-5.25-2.34375-1.71586-.97179-3.40802-2.12894-5.0625-3.34375-.97034-.71246-1.91043-1.47252-2.875-2.21875.03104-.03161.02975-.02874.0625-.0625-.65494-.51021-1.28266-.98079-1.9375-1.5-1.63406-1.29582-3.28291-2.62894-4.9375-3.84375-1.6546-1.21482-3.34665-2.3719-5.0625-3.34375-1.71575-.9718-3.46341-1.74558-5.28125-2.3125-1.36336-.42513-2.74348-.72305-4.1875-.84375-.0475-.00401-.10884.00358-.15625 0-.02657-.00227-.06706.00217-.09375 0-.21582-.03698-.42658-.0625-.65625-.0625-.11575 0-.25996-.00232-.375 0-.12251-.00362-.25248 0-.375 0-.49028 0-.92498.02225-1.40625.0625-1.44404.12065-2.8554.41862-4.21875.84375-1.81785.56692-3.59686 1.34067-5.3125 2.3125-1.71574.97189-3.34552 2.12896-5 3.34375-1.65448 1.21478-3.33479 2.54794-4.96875 3.84375-.65485.51921-1.31381.98978-1.96875 1.5.03246.03347.06312.03119.09375.0625-.9589.74164-1.91033 1.51051-2.875 2.21875-1.6544 1.2148-3.34675 2.37194-5.0625 3.34375-1.71574.97189-3.43215 1.77685-5.25 2.34375-1.3315.41526-2.71069.69704-4.125.8125-.03377.00279-.09113-.00258-.125 0-.10776.00506-.20444-.00321-.3125 0-.18873.01123-.37286.02563-.5625.03125-.06125-.00001-.12644.00059-.1875 0-1.89398-.01804-3.70772-.29455-5.46875-.84375-1.81775-.56688-3.53435-1.37188-5.25-2.34375-1.71586-.97179-3.43916-2.12894-5.09375-3.34375-1.65448-1.21481-3.24103-2.48546-4.875-3.78125-1.63407-1.29582-3.28302-2.62893-4.9375-3.84375-1.65459-1.21485-3.34676-2.37188-5.0625-3.34375-1.71584-.9718-3.46341-1.74555-5.28125-2.3125-1.81785-.56691-3.69547-.90627-5.65625-.90625-.10189 0-.21081-.00182-.3125 0-.09491-.00159-.18603 0-.28125 0-1.96087-.00002-3.80716.33934-5.625.90625-1.81786.56695-3.5655 1.34067-5.28125 2.3125-1.71566.97191-3.43926 2.12893-5.09375 3.34375-1.6546 1.2148-3.27219 2.54794-4.90625 3.84375-1.63407 1.29578-3.28301 2.56645-4.9375 3.78125-1.65447 1.2148-3.28415 2.37194-5 3.34375-1.71564.97189-3.49456 1.77685-5.3125 2.34375-1.31119.40893-2.65131.66289-4.03125.78125-.05488.00473-.10125.02702-.15625.03125-.13535.00728-.23904-.00397-.375 0-.16083.00894-.33795.02645-.5.03125-.06126-.00001-.12645.00059-.1875 0-1.89528-.01804-3.73897-.29455-5.5-.84375-1.81773-.56688-3.5655-1.37188-5.28125-2.34375-1.71573-.97179-3.34551-2.12894-5-3.34375-.97043-.71246-1.97303-1.47252-2.9375-2.21875.03083-.03161.06109-.02874.09375-.0625-.65494-.51021-1.31411-.98079-1.96875-1.5-1.63407-1.29582-3.28322-2.62894-4.9375-3.84375-1.65459-1.21482-3.31571-2.3719-5.03125-3.34375-1.71574-.9718-3.46351-1.74558-5.28125-2.3125-1.36346-.42513-2.77483-.72305-4.21875-.84375-.04751-.00401-.10874.00358-.15625 0-.47945-.04029-.94733-.0625-1.4375-.0625-.08968 0-.16145-.00199-.25 0-.09481-.00159-.18602 0-.28125 0-.17781 0-.39369.00731-.5625.03125-.03548.00502-.05867.0255-.09375.03125-.08764.00661-.1932-.00738-.28125 0-1.44392.12065-2.85539.41862-4.21875.84375-1.81784.56692-3.56541 1.34067-5.28125 2.3125-1.71565.97189-3.40791 2.12896-5.0625 3.34375-1.65448 1.21478-3.27218 2.54794-4.90625 3.84375-.65475.51921-1.31391.98978-1.96875 1.5.03224.03347.03197.03119.0625.0625-.95881.74164-1.87908 1.51051-2.84375 2.21875-1.65439 1.2148-3.34675 2.37194-5.0625 3.34375-1.71575.97189-3.46341 1.77685-5.28125 2.34375-1.81783.56692-3.72672.84375-5.6875.84375-1.83008.00002-3.56622-.27682-5.3125-.84375-1.74648-.5669-3.46497-1.37188-5.15625-2.34375-1.69117-.97181-3.3354-2.09426-5-3.3125-1.6648-1.21821-3.36453-2.51671-5.03125-3.8125-1.66672-1.29582-3.36515-2.62894-5.0625-3.84375-1.69745-1.21482-3.36842-2.3719-5.125-3.34375-1.75659-.9718-3.56192-1.74558-5.40625-2.3125-1.84433-.56686-3.72672-.90625-5.6875-.90625zm0 64.09375c-1.96058-.00002-3.83851.3081-5.65625.875-1.81785.56697-3.59686 1.40315-5.3125 2.375-1.71575.97185-3.40802 2.06644-5.0625 3.28125-1.654494 1.2148-3.27218 2.54795-4.90625 3.84375-1.63406 1.29585-3.25176 2.56644-4.90625 3.78125-1.654691 1.21484-3.34675 2.37194-5.0625 3.34375-1.715736.97185-3.43225 1.80811-5.25 2.375-1.817844.56687-3.69547.84375-5.65625.84375-1.504479.00002-2.98406-.16391-4.40625-.5 5.817552 9.02949 12.20782 17.71956 19.09375 25.96875.434269-.3036.84961-.58937 1.28125-.90625 1.654289-1.21487 3.27219-2.54795 4.90625-3.84375 1.63407-1.29581 3.25176-2.56644 4.90625-3.78125 1.654476-1.21485 3.34675-2.37191 5.0625-3.34375 1.71564-.97186 3.49465-1.80811 5.3125-2.375 1.81774-.56693 3.69567-.84375 5.65625-.84375 1.96088.00006 3.83851.27682 5.65625.84375 1.81785.56689 3.5655 1.40316 5.28125 2.375 1.71555.97182 3.31426 2.12892 4.96875 3.34375 1.65459 1.21477 3.36594 2.48548 5 3.78125 1.63396 1.29576 3.25176 2.62895 4.90625 3.84375 1.65448 1.21472 3.34675 2.34067 5.0625 3.3125 1.71574.97187 3.46341 1.77685 5.28125 2.34375 1.81785.56688 3.66432.875 5.625.875 1.96058 0 3.86976-.3081 5.6875-.875 1.81785-.56693 3.5654-1.3719 5.28125-2.34375 1.71575-.97184 3.40801-2.09771 5.0625-3.3125 1.65449-1.21487 3.30333-2.54795 4.9375-3.84375 1.63397-1.29581 3.22052-2.56644 4.875-3.78125 1.65449-1.21485 3.34676-2.37191 5.0625-3.34375 1.71575-.97186 3.49476-1.80811 5.3125-2.375.90888-.28347 1.84155-.47948 2.78125-.625.49927-.07251.96119-.11828 1.46875-.15625.00121.01171-.00111.01954 0 .03125.14172-.0052.27362-.03287.40625-.0625.18145-.00936.41078-.02805.59375-.03125 1.85718.0276 3.583.30435 5.3125.84375 1.81784.56689 3.59676 1.40316 5.3125 2.375 1.71575.97182 3.40801 2.12892 5.0625 3.34375 1.65447 1.21477 3.27218 2.48548 4.90625 3.78125 1.63406 1.29576 3.28301 2.62895 4.9375 3.84375 1.65459 1.21472 3.31561 2.34067 5.03125 3.3125 1.71575.97187 3.46341 1.77685 5.28125 2.34375 1.81765.56688 3.69547.875 5.65625.875.09533-.00002.21768.00156.3125 0 .09492.00153.18603 0 .28125 0 1.96067-.00002 3.80716-.30813 5.625-.875 1.81785-.56689 3.628-1.3719 5.34375-2.34375 1.71564-.97182 3.37666-2.09773 5.03125-3.3125 1.65438-1.21485 3.27218-2.54795 4.90625-3.84375 1.63407-1.29581 3.25176-2.56644 4.90625-3.78125 1.6545-1.21487 3.34676-2.37191 5.0625-3.34375 1.71585-.97186 3.49466-1.80809 5.3125-2.375 1.72312-.53743 3.46069-.81436 5.3125-.84375 1.85899.0276 3.67676.30435 5.40625.84375 1.81786.56689 3.53436 1.40316 5.25 2.375 1.71575.97182 3.40801 2.12892 5.0625 3.34375 1.65438 1.21477 3.27219 2.48548 4.90625 3.78125 1.63406 1.29576 3.28301 2.62895 4.9375 3.84375 1.65459 1.21472 3.34675 2.34067 5.0625 3.3125 1.71563.97187 3.49465 1.77685 5.3125 2.34375 1.81785.56688 3.66432.875 5.625.875.09522-.00002.18612.00156.28125 0 .09471.00153.18603 0 .28125 0 1.96069-.00002 3.8384-.30813 5.65625-.875 1.81775-.56689 3.59666-1.3719 5.3125-2.34375 1.71574-.97182 3.37667-2.09773 5.03125-3.3125 1.6544-1.21485 3.27218-2.54795 4.90625-3.84375 1.63406-1.29581 3.28301-2.56644 4.9375-3.78125 1.65449-1.21487 3.28435-2.37191 5-3.34375 1.71563-.97186 3.5259-1.80809 5.34375-2.375 1.7106-.53352 3.44612-.81071 5.28125-.84375.21815.00696.44012.01668.65625.03125.11907.02794.24743.05777.375.0625.00111-.01165-.00111-.01954 0-.03125.02669.00202.06706-.00204.09375 0 .04752.00327.10874-.00363.15625 0 .43064.03643.82706.09075 1.25.15625.93972.14555 1.84113.34155 2.75.625 1.81786.56687 3.6281 1.40316 5.34375 2.375 1.71576.97182 3.37676 2.12894 5.03125 3.34375 1.65448 1.21477 3.27218 2.48548 4.90625 3.78125 1.63406 1.29576 3.28301 2.62893 4.9375 3.84375 1.65448 1.21475 3.34675 2.34065 5.0625 3.3125 1.71563.97187 3.43216 1.7768 5.25 2.34375 1.81776.56691 3.72672.87502 5.6875.875s3.83841-.30813 5.65625-.875c1.81775-.56689 3.5656-1.3719 5.28125-2.34375 1.71565-.97182 3.40801-2.09773 5.0625-3.3125 1.65448-1.21485 3.27218-2.54795 4.90625-3.84375 1.63428-1.29581 3.28301-2.56644 4.9375-3.78125 1.65459-1.21487 3.34686-2.37191 5.0625-3.34375 1.71574-.97186 3.43206-1.80809 5.25-2.375 1.81776-.56695 3.72682-.84375 5.6875-.84375 1.96067.00006 3.80715.27684 5.625.84375 1.81775.56687 3.59675 1.40316 5.3125 2.375 1.71574.97182 3.40801 2.12894 5.0625 3.34375 1.65449 1.21477 3.27228 2.48548 4.90625 3.78125 1.27221 1.00882 2.56046 2.02508 3.84375 3 4.40732-5.5311 8.60825-11.20347 12.5-17.15625 1.51185-2.15949 2.95006-4.35724 4.375-6.5625-1.90304-.01509-3.73156-.29222-5.5-.84375-1.81784-.56693-3.5655-1.40314-5.28125-2.375-1.71575-.97183-3.34541-2.12894-5-3.34375-1.6544-1.21478-3.30333-2.48546-4.9375-3.78125-1.63408-1.29575-3.25177-2.62893-4.90625-3.84375-1.65448-1.21483-3.34686-2.30939-5.0625-3.28125-1.71565-.97186-3.49466-1.80803-5.3125-2.375-1.81784-.5669-3.66432-.87503-5.625-.875-1.9608.00002-3.87432.30815-5.71875.875-1.84441.56693-3.61852 1.40315-5.375 2.375-1.7566.97181-3.49005 2.06646-5.1875 3.28125-1.69746 1.21479-3.39568 2.54795-5.0625 3.84375-1.66672 1.29585-3.30415 2.59426-4.96875 3.8125-1.66468 1.21829-3.34006 2.34066-5.03125 3.3125-1.69129.97185-3.37862 1.80809-5.125 2.375-1.74616.56689-3.54503.84377-5.375.84375-1.96068 0-3.86965-.27684-5.6875-.84375-1.81793-.56693-3.53426-1.40314-5.25-2.375-1.71586-.97183-3.40802-2.12894-5.0625-3.34375-.97034-.71243-1.91043-1.44126-2.875-2.1875.03104-.03161.02975-.05999.0625-.09375-.65494-.51017-1.28266-.98078-1.9375-1.5-1.63406-1.29575-3.28291-2.62894-4.9375-3.84375-1.6545-1.21481-3.34665-2.30943-5.0625-3.28125-1.71575-.97186-3.46341-1.80807-5.28125-2.375-1.36336-.42513-2.74348-.69179-4.1875-.8125-.0475-.00398-.10884.00359-.15625 0-.02657-.00224-.06706.00219-.09375 0-.21582-.03694-.42658-.0625-.65625-.0625-.11565.00002-.25996-.00232-.375 0-.12251-.00361-.25248 0-.375 0-.49028.00002-.92498.02228-1.40625.0625-1.44404.12069-2.8554.38737-4.21875.8125-1.81785.56693-3.59686 1.40315-5.3125 2.375-1.71574.97181-3.34552 2.06646-5 3.28125s-3.33479 2.54795-4.96875 3.84375c-.65485.51927-1.31381.98979-1.96875 1.5.03246.0335.06312.06245.09375.09375-.9589.74165-1.91033 1.47925-2.875 2.1875-1.6544 1.21484-3.34675 2.37194-5.0625 3.34375-1.71574.97185-3.43215 1.80811-5.25 2.375-1.3315.41521-2.71069.69705-4.125.8125-.03387.00276-.09113-.00258-.125 0-.10776.00502-.20444-.0032-.3125 0-.18873.01119-.37286.02562-.5625.03125-.06125 0-.12644.00058-.1875 0-1.89398-.01804-3.70772-.29454-5.46875-.84375-1.81775-.56693-3.53435-1.40314-5.25-2.375-1.71586-.97183-3.43916-2.12894-5.09375-3.34375-1.65448-1.21478-3.24103-2.48546-4.875-3.78125-1.63407-1.29575-3.28302-2.62893-4.9375-3.84375-1.65459-1.21483-3.34676-2.30939-5.0625-3.28125-1.71584-.97186-3.46341-1.80803-5.28125-2.375-1.81785-.5669-3.69547-.87503-5.65625-.875-.10189.00002-.21081-.00182-.3125 0-.09491-.00157-.18603 0-.28125 0-1.96087-.00002-3.80716.3081-5.625.875-1.81776.56697-3.5655 1.40315-5.28125 2.375-1.71566.97185-3.43926 2.06644-5.09375 3.28125-1.6547 1.2148-3.27219 2.54795-4.90625 3.84375-1.63407 1.29585-3.28301 2.56644-4.9375 3.78125-1.65447 1.21484-3.28415 2.37194-5 3.34375-1.71564.97185-3.49456 1.80811-5.3125 2.375-1.31119.40888-2.65131.66289-4.03125.78125-.05488.00469-.10125.02703-.15625.03125-.13535.00724-.23904-.00396-.375 0-.16083.00892-.33795.02644-.5.03125-.06126 0-.12645.00058-.1875 0-1.89528-.01804-3.73897-.29454-5.5-.84375-1.81773-.56693-3.5655-1.40314-5.28125-2.375-1.71573-.97183-3.34551-2.12894-5-3.34375-.97043-.71243-1.97303-1.44126-2.9375-2.1875.03083-.03161.06109-.05999.09375-.09375-.65494-.51017-1.31411-.98078-1.96875-1.5-1.63407-1.29575-3.28322-2.62894-4.9375-3.84375-1.65459-1.21481-3.31571-2.30943-5.03125-3.28125-1.71574-.97186-3.46351-1.80807-5.28125-2.375-1.36346-.42513-2.77483-.69179-4.21875-.8125-.04761-.00398-.10874.00359-.15625 0-.47945-.04024-.94733-.0625-1.4375-.0625-.08958.00002-.16145-.002-.25 0-.09481-.00157-.18602 0-.28125 0-.17781.00002-.39369.00732-.5625.03125-.03548.00509-.05867.0255-.09375.03125-.08764.00664-.1932-.00736-.28125 0-1.44392.12069-2.85539.38737-4.21875.8125-1.81784.56693-3.56541 1.40315-5.28125 2.375-1.71565.97181-3.40791 2.06646-5.0625 3.28125-1.65448 1.21479-3.27218 2.54795-4.90625 3.84375-.65475.51927-1.31391.98979-1.96875 1.5.03224.0335.03197.06245.0625.09375-.95881.74165-1.87908 1.47925-2.84375 2.1875-1.65439 1.21484-3.34675 2.37194-5.0625 3.34375-1.71575.97185-3.46341 1.80811-5.28125 2.375-1.81783.56687-3.72672.84375-5.6875.84375-1.83008.00002-3.56622-.27682-5.3125-.84375-1.74648-.56695-3.46497-1.40314-5.15625-2.375-1.69117-.97185-3.3354-2.09426-5-3.3125-1.6648-1.21819-3.36453-2.51671-5.03125-3.8125-1.66672-1.29575-3.36515-2.62894-5.0625-3.84375-1.69745-1.21481-3.36842-2.30943-5.125-3.28125-1.75659-.97186-3.56192-1.80807-5.40625-2.375-1.84433-.56685-3.72672-.875-5.6875-.875zm0 64.09375c-1.96058-.00002-3.83851.3081-5.65625.875-1.00511.31348-1.9966.73843-2.96875 1.1875 17.67038 17.17622 37.77761 31.83504 59.625 43.1875 1.53097.52187 3.04561 1.03038 4.59375 1.53125.74562-.50428 1.48223-.99043 2.21875-1.53125 1.65449-1.21481 3.30333-2.54794 4.9375-3.84375 1.63397-1.29576 3.22052-2.56644 4.875-3.78125 1.65449-1.21485 3.34676-2.30941 5.0625-3.28125 1.71575-.97186 3.49476-1.80811 5.3125-2.375.90888-.28349 1.84155-.51073 2.78125-.65625.49927-.07258.96119-.11829 1.46875-.15625.00121.01171-.00111.05081 0 .0625.14172-.00526.27362-.06412.40625-.09375.18145-.00933.41078-.02805.59375-.03125 1.85718.02753 3.583.33561 5.3125.875 1.81784.56687 3.59676 1.40316 5.3125 2.375 1.71575.97182 3.40801 2.06642 5.0625 3.28125 1.65447 1.21477 3.27218 2.48547 4.90625 3.78125 1.63406 1.29582 3.28301 2.62895 4.9375 3.84375 1.65459 1.21479 3.31561 2.3719 5.03125 3.34375 1.71575.97187 3.46341 1.77685 5.28125 2.34375 1.81765.56689 3.69547.875 5.65625.875.09533 0 .21768.00156.3125 0 .09492.00157.18603 0 .28125 0 1.96067 0 3.80716-.30812 5.625-.875 1.81785-.56689 3.628-1.3719 5.34375-2.34375 1.71564-.97183 3.37676-2.12898 5.03125-3.34375 1.65438-1.21479 3.27218-2.54794 4.90625-3.84375 1.63407-1.29576 3.25176-2.56644 4.90625-3.78125 1.6544-1.21487 3.34676-2.30941 5.0625-3.28125 1.71585-.97186 3.49466-1.80809 5.3125-2.375 1.72312-.53745 3.46069-.84562 5.3125-.875 1.85899.02753 3.67676.33561 5.40625.875 1.81786.56687 3.53426 1.40316 5.25 2.375 1.71575.97182 3.40801 2.06642 5.0625 3.28125 1.65448 1.21477 3.27219 2.48547 4.90625 3.78125 1.63396 1.29582 3.28311 2.62895 4.9375 3.84375 1.65469 1.21479 3.34675 2.3719 5.0625 3.34375 1.71563.97187 3.49465 1.77685 5.3125 2.34375 1.81785.56689 3.66422.875 5.625.875.09522 0 .18612.00156.28125 0 .09471.00157.18603 0 .28125 0 1.96059 0 3.8384-.30812 5.65625-.875 1.81775-.56689 3.59656-1.3719 5.3125-2.34375 1.71564-.97183 3.37667-2.12898 5.03125-3.34375 1.6544-1.21479 3.27218-2.54794 4.90625-3.84375 1.63396-1.29576 3.28311-2.56644 4.9375-3.78125 1.65459-1.21487 3.28435-2.30941 5-3.28125 1.71574-.97186 3.5259-1.80809 5.34375-2.375 1.7106-.53354 3.44633-.84195 5.28125-.875.21815.0069.44012.01668.65625.03125.11907.02797.24733.08902.375.09375.00111-.01171-.00121-.0508 0-.0625.02669.00203.06717-.00206.09375 0 .04752.00328.10884-.00364.15625 0 .43064.03643.82696.09075 1.25.15625.93972.1455 1.84113.3728 2.75.65625 1.81786.56685 3.6281 1.40316 5.34375 2.375 1.71565.97182 3.37666 2.06644 5.03125 3.28125 1.65438 1.21477 3.27218 2.48547 4.90625 3.78125 1.63406 1.29582 3.28301 2.62893 4.9375 3.84375.33358.24492.68926.45523 1.03125.6875 23.10724-11.62283 44.38781-26.73497 62.8125-44.90625-.12908-.04353-.24547-.11585-.375-.15625-1.81784-.56688-3.66432-.87502-5.625-.875-1.96069 0-3.87432.30814-5.71875.875-1.84431.56695-3.61842 1.40316-5.375 2.375-1.7566.97187-3.49015 2.09771-5.1875 3.3125-1.69756 1.21476-3.39578 2.54796-5.0625 3.84375-1.66672 1.29578-3.30425 2.59427-4.96875 3.8125-1.66468 1.21827-3.34006 2.34065-5.03125 3.3125-1.69139.97184-3.37852 1.77683-5.125 2.34375-1.74616.56695-3.54513.84377-5.375.84375-1.96078-.00001-3.86965-.27685-5.6875-.84375-1.81793-.56687-3.53416-1.3719-5.25-2.34375-1.71576-.97184-3.40802-2.16019-5.0625-3.375-.97034-.71244-1.91053-1.47252-2.875-2.21875.03104-.03161.02985.00252.0625-.03125-.65494-.5102-1.28276-.98078-1.9375-1.5-1.63406-1.29581-3.28291-2.62894-4.9375-3.84375-1.6546-1.21484-3.34665-2.34065-5.0625-3.3125-1.71575-.97182-3.46341-1.80807-5.28125-2.375-1.36336-.42512-2.74348-.6918-4.1875-.8125-.0474-.00394-.10884.00359-.15625 0-.02647-.0022-.06706.00218-.09375 0-.21582-.03692-.42658-.0625-.65625-.0625-.11565 0-.25996-.00232-.375 0-.12241-.00362-.25248 0-.375 0-.49028 0-.92498.02227-1.40625.0625-1.44404.12072-2.8554.38736-4.21875.8125-1.81785.56695-3.59676 1.40316-5.3125 2.375-1.71574.97187-3.34541 2.09771-5 3.3125-1.65448 1.21476-3.33479 2.54796-4.96875 3.84375-.65475.5192-1.31381.98981-1.96875 1.5.03236.03346.06312-.00006.09375.03125-.9588.74166-1.91023 1.5105-2.875 2.21875-1.6543 1.21483-3.34665 2.40317-5.0625 3.375-1.71574.97184-3.43215 1.77684-5.25 2.34375-1.3316.41527-2.71069.69705-4.125.8125-.03387.0028-.09113-.00258-.125 0-.10776.00505-.20444-.00321-.3125 0-.18873.01123-.37286.02562-.5625.03125-.06125-.00001-.12644.00057-.1875 0-1.89398-.01806-3.70762-.29455-5.46875-.84375-1.81775-.56687-3.53435-1.3719-5.25-2.34375-1.71586-.97184-3.43926-2.16019-5.09375-3.375-1.65448-1.2148-3.24103-2.4542-4.875-3.75-1.63407-1.29581-3.28302-2.62892-4.9375-3.84375-1.65469-1.21486-3.34676-2.34063-5.0625-3.3125-1.71594-.97182-3.46341-1.80804-5.28125-2.375-1.81785-.56688-3.69557-.87502-5.65625-.875-.10189 0-.21081-.00182-.3125 0-.09491-.00159-.18603 0-.28125 0-1.96087-.00002-3.80716.3081-5.625.875-1.81776.56698-3.5655 1.40316-5.28125 2.375-1.71576.97189-3.43926 2.09769-5.09375 3.3125-1.6546 1.21477-3.27219 2.54796-4.90625 3.84375-1.63407 1.29578-3.28291 2.53518-4.9375 3.75-1.65437 1.21483-3.28405 2.40317-5 3.375-1.71564.97184-3.49456 1.77684-5.3125 2.34375-1.31119.40894-2.65131.66289-4.03125.78125-.05488.00474-.10125.02702-.15625.03125-.13535.00728-.23904-.00396-.375 0-.16083.00894-.33795.02645-.5.03125-.06126-.00001-.12645.00057-.1875 0-1.89528-.01806-3.73897-.29455-5.5-.84375-1.81773-.56687-3.5655-1.3719-5.28125-2.34375-1.71573-.97184-3.34551-2.16019-5-3.375-.97043-.71244-1.97303-1.47252-2.9375-2.21875.03083-.03161.06109.00252.09375-.03125-.65494-.5102-1.31411-.98078-1.96875-1.5-1.63407-1.29581-3.28322-2.62894-4.9375-3.84375-1.65459-1.21484-3.31571-2.34065-5.03125-3.3125-1.71574-.97182-3.46351-1.80807-5.28125-2.375-1.36346-.42512-2.77483-.6918-4.21875-.8125-.04761-.00394-.10874.00359-.15625 0-.47945-.04022-.94733-.0625-1.4375-.0625-.08958 0-.16145-.002-.25 0-.09481-.00159-.18602 0-.28125 0-.17781 0-.39369.00732-.5625.03125-.03548.00504-.05867.02551-.09375.03125-.08764.00667-.1932-.00737-.28125 0-1.44392.12072-2.85539.38736-4.21875.8125-1.81784.56695-3.56541 1.40316-5.28125 2.375-1.71565.97187-3.40791 2.09771-5.0625 3.3125-1.65448 1.21476-3.27218 2.54796-4.90625 3.84375-.65475.5192-1.31391.98981-1.96875 1.5.03224.03346.03197-.00006.0625.03125-.95881.74166-1.87908 1.5105-2.84375 2.21875-1.65439 1.21483-3.34675 2.40317-5.0625 3.375-1.71575.97184-3.46341 1.77684-5.28125 2.34375-1.81783.56693-3.72672.84375-5.6875.84375-1.83008.00001-3.56622-.27683-5.3125-.84375-1.74648-.56689-3.46497-1.3719-5.15625-2.34375-1.69117-.97186-3.3354-2.09427-5-3.3125-1.6648-1.21819-3.36453-2.5167-5.03125-3.8125-1.66672-1.29581-3.36515-2.62894-5.0625-3.84375-1.69745-1.21484-3.36842-2.34065-5.125-3.3125-1.75659-.97182-3.56192-1.80807-5.40625-2.375-1.84433-.56684-3.72672-.875-5.6875-.875z" transform="translate(54.428656 54.809823)"/></g></g></g><path d="m75.979711 333.85949c.203475 120.3443-.409233 240.7128.311268 361.0487.424727 11.9708 1.948785 23.7942 4.233276 35.4446 1.530323 7.8043 3.357288 15.5179 5.665112 23.1106.318935 1.0125.663915 2.0131.996062 3.0212.97873 3.0725 2.136395 6.0958 3.237209 9.1259 28.264712 77.7996 96.059092 141.0816 177.797422 158.7531 56.44726 13.7598 116.72938 5.1206 168.24145-20.8058 23.01629-11.5843 44.21311-26.6463 62.56527-44.7573 6.59297-6.5064 12.8845-13.3459 18.6762-20.619 4.39-5.5127 8.57437-11.1663 12.45082-17.0993 1.51089-2.1595 2.93371-4.3667 4.35776-6.5719 8.89491-13.7743 15.96468-28.485 21.63328-43.6984 4.63748-12.446 8.24618-25.2329 10.89445-38.2789 4.91279-24.2015 6.72164-49.1256 5.54061-73.7857 0-108.2981 0-216.5898 0-324.8878-165.53869 0-331.06144 0-496.600189 0z" fill="none" stroke-width="3"/><g fill="#eac102" fill-rule="evenodd" stroke-width=".998324" transform="matrix(1.0078437 0 0 .9955511 37.006514 -65.027779)"><path d="m233.18913 996.09276c1.17115 14.34074 19.08935 24.80284 33.85027 32.53804 4.81263 2.6263 10.75396-2.6232 11.24489-6.7302-18.8376-15.1289-25.99427-29.4819-27.29976-36.10505-5.36648 2.31672-21.60662-2.26424-17.7954 10.29721z" stroke-width=".998324"/><path d="m293.42725 1026.1996 10.26577 5.4207c11.59076-10.8708 30.80407-19.7118 32.79995-37.29838l-20.17181-2.44988c2.96451 4.99815-14.96257 24.20776-22.89391 34.32756z" stroke-width=".998324"/><g stroke-width="25754.328125" transform="matrix(.00003543 0 0 .00004241 -93.587719 -167.15927)"><path d="m10704756 28535408c93151 321589 122280 690595 326611 929837 616545 344037 729023 156496 751537-125920-596017-498844-568639-693469-727047-992742z"/><path d="m12073760 29641340c240693 134200 262550 470824 343197 753067 94013-66079 168457-195131 500196-156814-75689-272015-113358-581662-380758-786294z"/><path d="m11742345 29861124c388314-123237 882245-368753 924378-280671 0 0-114027-119879-170477-168985-14980-13033-28912-25408-40498-37047-87956-88352-144620-144723-284314-202161-190774 48690-365503 96885-504641 160006-585733 265722-789964-153683-789964-153683s257816 875402 865516 682541z"/></g><g stroke-width="28431.396484" transform="matrix(.00003166 0 0 .00003894 -46.782182 -66.432014)"><path d="m10227958 28296746 289663 131385c-145266 548870-467098 896807-686580 1106965l-897595.6999999993-108133c228432.09999999963-68834 1016699.9000000004-662945 1294512.6999999993-1130217z"/><path d="m7992906 30398136c194301.2000000002-85716 412502.19999999925 6451 633472.4000000004 119229-16117.80000000075-626464-24758.59999999963-846981 61551.80000000075-1054854l-305670.4000000004-201541c-290380.4000000004 182265-336632.7999999998 786883-389353.7999999998 1137166z"/><path d="m8251078 29396236c213367.40000000037-316625 461633.19999999925-325855 725241.0999999996-197966 224306.40000000037 108822 558295.5 401177 911803.3000000007 282535-161419.80000000075 179010-342783 349839-943831.9000000004 192502-349099.4000000004-91384-601774-286479-693212.5-277071z"/></g><g stroke-width=".998324"><path d="m248.88534 976.30429c25.68425 2.49181 27.93822 6.86394 37.31707 6.86394 8.32519 0 25.74615-7.67581 38.98149-6.50488 14.5121 1.28387 13.28733 11.34522 10.35911 23.67445-28.42792-14.35727-41.25791 3.4584-57.03817-2.3714-21.5566-7.96386-44.80243-4.97255-45.22142.72708-1.69952-11.15127 3.80515-23.53367 15.60192-22.38919z"/><path d="m267.08994 1032.6725c.94407-3.3084 2.70024-6.6065 6.60781-7.9363 6.69149-2.2771 13.06226-1.2748 19.12836-.5018 5.02027.6398 8.66971 4.1584 10.62716 9.2028 1.05078 2.7079.64813 5.935-1.48628 9.6274-5.09082 8.8068-9.05394 7.4131-13.61937 8.3048-3.17715.6205-5.48939-.3688-11.17329-1.042-5.70963-.6762-10.06936-4.5231-10.27226-6.0031-.48113-3.5095-1.00861-7.4588.18787-11.6518z"/></g></g></g></svg>