<?xml version="1.0" encoding="UTF-8" standalone="no"?>
<svg
   xmlns:dc="http://purl.org/dc/elements/1.1/"
   xmlns:cc="http://creativecommons.org/ns#"
   xmlns:rdf="http://www.w3.org/1999/02/22-rdf-syntax-ns#"
   xmlns:svg="http://www.w3.org/2000/svg"
   xmlns="http://www.w3.org/2000/svg"
   xmlns:sodipodi="http://sodipodi.sourceforge.net/DTD/sodipodi-0.dtd"
   xmlns:inkscape="http://www.inkscape.org/namespaces/inkscape"
   version="1.1"
   width="1200"
   height="800"
   id="svg2"
   inkscape:version="0.92.4 (5da689c313, 2019-01-14)"
   sodipodi:docname="Flag_of_the_Autonomous_Republic_of_Northern_Epirus.svg">
  <defs
     id="defs14" />
  <sodipodi:namedview
     pagecolor="#ffffff"
     bordercolor="#666666"
     borderopacity="1"
     objecttolerance="10"
     gridtolerance="10"
     guidetolerance="10"
     inkscape:pageopacity="0"
     inkscape:pageshadow="2"
     inkscape:window-width="1920"
     inkscape:window-height="1003"
     id="namedview12"
     showgrid="false"
     inkscape:zoom="0.3275"
     inkscape:cx="285.7362"
     inkscape:cy="368.72342"
     inkscape:window-x="-9"
     inkscape:window-y="-9"
     inkscape:window-maximized="1"
     inkscape:current-layer="svg2" />
  <metadata
     id="metadata4">
    <rdf:RDF>
      <cc:Work
         rdf:about="">
        <dc:format>image/svg+xml</dc:format>
        <dc:type
           rdf:resource="http://purl.org/dc/dcmitype/StillImage" />
        <dc:title />
      </cc:Work>
    </rdf:RDF>
  </metadata>
  <rect
     width="1200"
     height="800"
     fill="#0d5eaf"
     id="rect6"
     style="fill:#0d5eaf;fill-opacity:1" />
  <rect
     width="1200"
     height="160"
     y="320"
     style="fill:#ffffff"
     id="rect8" />
  <rect
     style="fill:#ffffff"
     x="520"
     width="160"
     height="800"
     id="rect10" />
  <path
     style="fill:#000000"
     d="m 594.7865,247.30033 0,7 0,7 -6.875,0 c -7.50693,0 -7.84443,0.25141 -7.59375,6 l 0.15625,3.5 7.15625,0.3125 7.15625,0.28125 0,6.96875 0,6.9375 5,0 5,0 0,-7 0,-7 7,0 7,0 0,-5 0,-5 -7,0 -7,0 0,-7 0,-7 -5,0 -5,0 z m -23.28125,53.3125 c -0.23041,-0.0493 -0.63215,0.21662 -1.3125,0.78125 -1.1275,0.93612 -3.8669,1.21158 -9.25,0.9375 -21.7843,-1.10916 -25.7194,-0.30543 -28.4375,5.78125 -0.6625,1.48341 -2.4678,3.75948 -4,5.0625 -3.2241,2.74175 -5.71875,7.14727 -5.71875,10.09375 0,2.62252 0.24125,2.57418 5.21875,-0.71875 3.6159,-2.39216 5.0468,-2.71163 11,-2.5625 9.2211,0.231 14.9268,2.99935 19.125,9.34375 3.4992,5.28799 4.60725,4.92425 4.65625,-1.53125 0.0471,-6.14859 0.9801,-6.95725 5.625,-5 2.1424,0.90274 7.025,1.8581 10.875,2.125 6.73094,0.46661 6.9176,0.44054 4.3125,-1.0625 -1.49008,-0.85971 -4.10786,-3.61613 -5.8125,-6.09375 -1.70467,-2.47762 -4.3322,-5.2624 -5.8125,-6.1875 -1.4803,-0.9251 -2.822,-1.75965 -3,-1.875 -0.1781,-0.11535 0.3844,-1.5762 1.25,-3.25 0.8655,-1.6738 1.5625,-3.7991 1.5625,-4.71875 0,-0.71012 -0.0508,-1.07573 -0.28125,-1.125 z m 54.78125,0.0312 c -0.507,-0.0773 -0.39229,0.44095 0.0312,1.8125 0.39672,1.28471 1.35555,3.58125 2.125,5.09375 1.00836,1.98214 1.06669,2.75 0.21875,2.75 -0.64704,0 -4.40191,3.375 -8.34375,7.5 l -7.15625,7.5 4.5625,-0.0312 c 2.51224,-0.0179 7.0375,-0.90466 10.0625,-1.96875 7.0835,-2.49171 7,-2.50215 7,0.875 0,1.58125 0.28125,4.28125 0.625,6 0.77035,3.85177 1.88318,3.96336 3.75,0.375 3.05498,-5.87223 8.01926,-8.94273 16.71875,-10.34375 7.0459,-1.13471 12.35034,0.10733 16.3125,3.78125 l 2.59375,2.40625 0,-3.09375 c 0,-4.106 -2.28942,-8.36209 -5.90625,-10.9375 -1.62153,-1.15463 -3.10698,-3.08287 -3.28125,-4.28125 -0.17885,-1.22985 -1.81833,-3.04415 -3.78125,-4.1875 -3.62208,-2.10977 -7.89428,-2.39109 -24.03125,-1.59375 -4.80258,0.23731 -8.34238,-0.0987 -9.84375,-0.90625 -0.82603,-0.44431 -1.35205,-0.7036 -1.65625,-0.75 z m -82.5,4.75 c 0.43945,0 0.89845,0.36717 1.65625,1.125 0.9002,0.90021 1.36425,2.3511 1.03125,3.21875 -0.3329,0.86765 -1.553,1.5625 -2.6875,1.5625 -2.7428,0 -3.6695,-2.73677 -1.625,-4.78125 0.7578,-0.75783 1.18555,-1.125 1.625,-1.125 z m 110.28125,0.3125 c 1.47639,-0.0377 2.7887,1.16441 2.53125,2.96875 -0.38363,2.68876 -4.28385,3.43629 -5.21875,1 -0.37055,-0.96565 -0.071,-2.33525 0.6875,-3.09375 0.59762,-0.59762 1.32891,-0.85785 2,-0.875 z m -163.0625,20.65625 c -7.8941,-0.0418 -22.01005,2.17527 -25.21875,3.96875 -1.1768,0.65776 -0.8536,1.07389 1.5,1.96875 3.7319,1.41893 2.2216,2.46766 -5,3.4375 -5.5079,0.7397 -38.7018,8.56602 -39.5,9.3125 -0.9469,0.88553 8.2304,8.20311 13.5,10.78125 7.2986,3.57089 14.51955,5.37521 24.65625,6.125 l 8.625,0.625 0.6875,6.875 c 0.6177,6.26883 0.9015,6.99894 3.5625,8.375 1.6025,0.82872 5.76745,1.73383 9.21875,2.03125 12.3506,1.06434 12.7617,1.23008 14.4375,5.25 2.9457,7.06601 4.98545,9.02852 10.09375,9.71875 8.531,1.15272 11.32945,2.4317 12.78125,5.90625 1.7593,4.21059 2.9304,5.0634 9.0625,6.5 3.6102,0.84582 6.33365,2.35272 9.21875,5.125 2.2503,2.16231 4.7285,3.9375 5.5,3.9375 1.7559,0 2.65625,-6.17168 2.65625,-18 0,-6.60872 0.37845,-9.04329 1.53125,-10 0.8383,-0.69572 1.7705,-1.04201 2.0625,-0.75 0.292,0.292 0.7984,7.7168 1.125,16.5 l 0.59375,15.96875 -8.40625,0.71875 c -7.0486,0.59493 -10.09445,1.46472 -18.90625,5.5 -13.3096,6.09508 -19.1252,7.9809 -29.3125,9.46875 l -8.1875,1.1875 7,2.4375 c 5.6103,1.94871 8.8861,2.4363 16.5,2.375 11.4908,-0.0925 15.6316,-1.39756 30.3125,-9.59375 5.939,-3.31568 11.0272,-5.81655 11.3125,-5.53125 0.2853,0.2853 1.1568,3.60764 1.9375,7.375 1.6204,7.81902 4.8476,17.00498 8,22.84375 1.7173,3.18076 1.9516,4.68275 1.25,7.28125 -0.988,3.65997 -6.7564,8.3963 -12.5625,10.3125 l -3.59375,1.1875 2.6875,1.9375 c 3.1118,2.26681 2.86335,2.89064 -2.59375,6.84375 -5.9539,4.31297 -7.4249,3.96824 -8.25,-2.03125 -0.6125,-4.45294 -0.88135,-4.883 -2.53125,-4 -2.2459,1.20198 -2.22535,1.20604 -4.84375,-7.625 -2.5069,-8.4552 -2.6794,-13.16518 -0.5625,-16.1875 1.7418,-2.48676 1.1741,-4.20875 -1.375,-4.21875 -0.93,-0.003 -2.44815,-1.37903 -3.40625,-3.0625 -1.3874,-2.43775 -2.3035,-3.00262 -4.5,-2.75 -2.3292,0.26788 -2.81965,0.84723 -3.09375,3.71875 -0.1852,1.93962 -1.21265,4.12729 -2.40625,5.09375 -2.405,1.94747 -1.8426,4.9893 0.9375,5 2.5489,0.01 5.80645,5.40196 8.21875,13.625 2.5721,8.76821 2.5552,9.375 0.0625,9.375 -2.5324,0 -2.486,0.50131 0.25,4.34375 1.226,1.72179 2.4636,5.14281 2.75,7.625 0.4379,3.79398 0.978,4.7407 3.5,5.9375 1.65,0.78301 3.5938,2.23958 4.3125,3.25 2.1209,2.98185 4.05745,2.20659 4.71875,-1.90625 0.3316,-2.0625 0.78965,-4.71699 1.03125,-5.90625 0.5157,-2.53758 12.75365,-9.81149 15.03125,-8.9375 0.7994,0.30676 1.90985,1.74892 2.46875,3.21875 l 1,2.6875 2.875,-4.53125 c 2.8878,-4.55369 8.75135,-9.78125 10.96875,-9.78125 0.6597,0 3.96736,2.32038 7.375,5.15625 13.99802,11.64927 19.42256,11.63592 34.28125,-0.1875 l 6.71875,-5.34375 3.625,2.0625 c 1.98568,1.13594 5.24871,4.35864 7.25,7.1875 3.45256,4.88027 3.66777,5.03853 4.25,2.71875 0.94247,-3.75509 3.88877,-4.06171 9.3125,-0.96875 7.82941,4.46484 9.28125,6.17575 9.28125,11 0,5.12345 1.40722,6.2908 4.34375,3.625 1.19678,-1.08645 3.50625,-2.6067 5.15625,-3.375 2.57817,-1.2005 3.0132,-1.95249 3.0625,-5.375 0.0365,-2.53771 1.05743,-5.54182 2.78125,-8.25 l 2.6875,-4.25 -2.5625,0 c -1.99581,0 -2.47947,-0.39625 -2.0625,-1.75 0.29647,-0.9625 1.50906,-4.9 2.6875,-8.75 2.50296,-8.17726 5.08728,-12.24465 8.09375,-12.6875 2.96643,-0.43695 3.34426,-2.3545 0.875,-4.46875 -1.13705,-0.97357 -2.0625,-2.92598 -2.0625,-4.34375 0,-5.592 -6.34457,-7.13086 -8.28125,-2 -0.80227,2.12544 -1.82162,3 -3.4375,3 -2.6194,0 -2.93236,1.7598 -0.8125,4.5625 2.12439,2.8087 1.89384,6.58048 -1.0625,16.0625 -2.51256,8.05866 -3.54105,9.58394 -4.90625,7.375 -1.25547,-2.0314 -2.5,0.22411 -2.5,4.5625 0,5.52236 -1.61121,5.7825 -8.3125,1.34375 -5.1489,-3.41049 -5.81467,-5.22604 -2.5,-7 2.07549,-1.11077 1.92159,-1.33753 -3.34375,-4 -5.97892,-3.02328 -10.84375,-7.89047 -10.84375,-10.90625 0,-1.02636 0.89674,-3.41137 2,-5.28125 2.75043,-4.66165 6.57218,-15.88762 8.0625,-23.71875 0.68035,-3.575 1.36143,-6.63919 1.5,-6.8125 0.13857,-0.1733 6.25038,2.80937 13.59375,6.625 16.29059,8.46464 23.66898,10.21433 35.5,8.375 4.14163,-0.64388 9.4044,-2.00441 11.6875,-3 l 4.15625,-1.8125 -8.1875,-1.15625 c -9.78912,-1.38437 -17.65967,-3.92439 -29.15625,-9.4375 -6.75031,-3.23706 -10.41717,-4.33001 -17.34375,-5.125 l -8.8125,-1 0,-16.40625 c 0,-15.0776 0.14087,-16.37028 1.75,-16.0625 2.12095,0.40568 3.0596,6.05724 3.1875,19.5625 0.0803,8.47737 0.24242,9.25 2.03125,9.25 1.07353,0 3.52605,-1.62467 5.46875,-3.625 2.58656,-2.6633 5.22403,-4.09935 9.8125,-5.34375 5.50065,-1.49178 6.49428,-2.14989 8.25,-5.4375 2.46121,-4.60866 3.92068,-5.44172 11.65625,-6.6875 6.8131,-1.09721 8.74305,-2.71551 11.4375,-9.59375 1.80126,-4.59817 1.14985,-4.35544 15.625,-5.75 10.04528,-0.96777 11.71975,-2.5643 11.78125,-11.0625 0.0159,-2.2 0.37717,-4.48943 0.78125,-5.09375 0.40408,-0.60431 4.55761,-1.39783 9.25,-1.75 14.28054,-1.07174 26.89864,-5.9659 34.65625,-13.5 l 3.71875,-3.625 -17.4375,-4.25 c -9.5948,-2.33115 -20.04394,-4.51442 -23.21875,-4.875 -6.75614,-0.76735 -7.83212,-1.74365 -4.0625,-3.71875 2.66934,-1.39861 2.50574,-1.49814 -6.96875,-3.6875 -12.36673,-2.85769 -25.96346,-2.54679 -32.3125,0.75 -8.52877,4.42863 -12.31784,11.52877 -11.0625,20.6875 0.48511,3.53925 -0.008,5.49441 -2.78125,11.28125 -4.0704,8.4935 -9.04011,13.68045 -16.46875,17.15625 -5.21547,2.44027 -6.55674,2.619 -20.09375,2.625 -16.50269,0.007 -19.43206,-0.93206 -27.1875,-8.6875 -3.36104,-3.36104 -4.37878,-3.89662 -5.6875,-2.96875 -0.87991,0.62385 -3.54026,2.31561 -5.875,3.75 l -4.21875,2.59375 -5.59375,-3.84375 -5.59375,-3.84375 -5.25,5.125 c -7.53907,7.33622 -12.4176,8.75558 -27.9375,8.125 -7.7758,-0.31593 -13.83675,-1.0993 -16.84375,-2.1875 -6.5156,-2.35794 -12.83745,-8.28233 -16.84375,-15.75 -3.0007,-5.59333 -3.41,-7.23337 -3.5,-14.3125 -0.1179,-9.22823 -1.66895,-13.02011 -6.96875,-17.0625 -5.2202,-3.98163 -10.07515,-5.3263 -19.28125,-5.375 z m 140.125,0.125 c -0.58138,-0.0318 -1.67135,0.4701 -3.6875,1.3125 -2.03287,0.84939 -6.62327,1.5 -10.59375,1.5 l -7,0 -2.15625,4.25 c -1.183,2.3375 -3.03682,5.51833 -4.125,7.0625 -1.08817,1.54416 -1.80886,2.97239 -1.59375,3.1875 0.21511,0.21511 4.40797,-0.45948 9.3125,-1.53125 4.90453,-1.07178 9.01124,-1.96875 9.125,-1.96875 0.11375,0 0.50756,2.20337 0.875,4.875 0.36745,2.67163 1.52611,6.27566 2.59375,8.03125 1.87495,3.08311 3.90625,3.40959 3.90625,0.625 0,-0.74381 1.51665,-4.90825 3.375,-9.25 2.96737,-6.93283 3.21091,-8.12522 2,-9.78125 -0.75835,-1.0371 -1.375,-3.36762 -1.375,-5.1875 0,-2.16205 0.0912,-3.08412 -0.65625,-3.125 z m -63.8125,0.15625 -1.34375,4.5625 c -1.8143,6.29449 -1.7677,6.48303 2,16.34375 1.8354,4.80345 3.63285,8.741 4.03125,8.75 1.2147,0.0276 3.7304,-5.60042 4.875,-10.9375 0.59567,-2.77748 1.22025,-5.0625 1.40625,-5.0625 0.186,0 4.25542,0.92824 9.03125,2.0625 4.77584,1.13426 8.83537,1.91463 9.03125,1.71875 0.19588,-0.19588 -0.95072,-2.34663 -2.5625,-4.78125 -1.61178,-2.43461 -3.46052,-5.68998 -4.09375,-7.21875 -1.10184,-2.66007 -1.45904,-2.77095 -8.28125,-2.84375 -3.92077,-0.0418 -8.7033,-0.65011 -10.625,-1.34375 l -3.46875,-1.25 z m 14.65625,18.90625 -1.09375,4.34375 c -0.60382,2.39799 -2.47203,5.92556 -4.15625,7.84375 -1.6842,1.91818 -3.5093,5.12141 -4.0625,7.125 -0.5532,2.00359 -2.8342,5.64508 -5.0625,8.0625 -3.8296,4.15468 -3.9347,4.384 -1.6875,4.375 4.1782,-0.0172 12.25192,-4.54656 16.65625,-9.34375 2.34882,-2.55833 4.49398,-4.65625 4.78125,-4.65625 0.28727,0 3.00096,1.86835 6.03125,4.15625 l 5.53125,4.15625 6.03125,-4.25 6.0625,-4.28125 4.15625,4.5 c 4.41186,4.77246 10.23616,8.17871 16.375,9.625 2.07104,0.48793 3.90187,0.9447 4.09375,1 0.19187,0.0553 -1.71334,-1.98949 -4.25,-4.5625 -2.7726,-2.81233 -5.06991,-6.30221 -5.78125,-8.75 -0.65081,-2.23949 -2.2677,-5.10666 -3.5625,-6.34375 -2.64993,-2.53182 -5.25,-8.11945 -5.25,-11.28125 0,-1.72446 -0.40193,-1.96784 -2.25,-1.375 -8.63904,2.77131 -19.32417,3.1519 -27.40625,1 l -5.15625,-1.34375 z m 197.90625,0.53125 -4.875,5 c -2.67337,2.74465 -6.34356,5.76521 -8.1875,6.71875 -2.52198,1.30417 -3.00674,1.93764 -1.9375,2.53125 1.96929,1.09329 26.39557,4.8769 37.90625,5.875 26.06312,2.25995 45.84559,0.67149 54.59375,-4.40625 8.1762,-4.74575 7.73485,-5.11243 -6.84375,-5.875 -16.40465,-0.85808 -39.00595,-3.71004 -57,-7.1875 l -13.65625,-2.65625 z m -361.25,0.0312 -11.15625,2.0625 c -6.1427,1.13168 -14.00725,2.55823 -17.46875,3.15625 -11.0072,1.90166 -30.2953,3.9369 -43.625,4.625 l -12.90625,0.6875 2.40625,1.96875 c 3.781,3.1134 11.99845,6.57277 17.96875,7.5625 15.1884,2.51793 57.42,-0.27942 76.6875,-5.0625 l 4.25,-1.03125 -4.40625,-2.9375 c -2.4291,-1.60899 -6.08115,-4.74109 -8.09375,-6.96875 l -3.65625,-4.0625 z m 333.78125,18.1875 c -0.77471,0.0317 -1.36816,0.10823 -1.75,0.25 -1.29941,0.48246 -6.0875,1.14697 -10.625,1.46875 l -8.25,0.59375 0,5.25 c 0,5.07066 0.12526,5.31539 3.25,6.3125 11.68518,3.72874 39.20956,8.48622 54.75,9.4375 20.98009,1.28426 29.99345,-0.0436 42.5,-6.21875 4.4,-2.17254 9.575,-5.62411 11.5,-7.65625 l 3.5,-3.6875 -5.375,0.6875 c -16.11805,2.03278 -43.91141,0.13642 -77.75,-5.28125 -5.40005,-0.86456 -9.42586,-1.25137 -11.75,-1.15625 z m -308.1875,0.75 c -6.95996,0.0305 -14.07125,0.84502 -25.9375,2.65625 -21.1961,3.23531 -38.5989,4.33848 -54.5,3.46875 -6.325,-0.34598 -11.62905,-0.50647 -11.78125,-0.375 -0.1522,0.13148 1.38965,1.82249 3.40625,3.78125 4.7633,4.6266 13.9759,9.21945 23.375,11.65625 8.6856,2.25183 14.8036,2.47482 32.625,1.0625 15.2617,-1.20947 27.47225,-3.16851 42.71875,-6.84375 l 11.15625,-2.71875 0.3125,-5.5625 0.28125,-5.5625 -8.28125,-0.8125 c -5.05946,-0.49376 -9.19903,-0.7683 -13.375,-0.75 z m 23.875,16.78125 c -1.20821,-0.008 -2.72955,0.29249 -5.21875,0.9375 -22.1011,5.72699 -45.41085,9.37048 -61.84375,9.625 -5.6375,0.0873 -10.25,0.5647 -10.25,1.0625 0,1.43721 8.8086,6.61991 14.375,8.46875 2.7955,0.92853 7.5877,2.0045 10.625,2.375 12.0857,1.4743 41.80845,-2.9597 67.46875,-10.0625 6.0647,-1.67871 11.36675,-3.4065 11.78125,-3.8125 0.4146,-0.406 0.1682,-1.53197 -0.5625,-2.53125 -1.0231,-1.39916 -3.45115,-2.02842 -10.59375,-2.6875 -5.1011,-0.4707 -10.6418,-1.54154 -12.3125,-2.375 -1.34355,-0.67026 -2.26054,-0.99204 -3.46875,-1 z m 261.4375,0.1875 c -1.16209,0.0594 -2.06311,0.34784 -3.25,0.84375 -1.90566,0.79623 -7.57563,1.88384 -12.625,2.40625 -8.4168,0.87079 -10.79435,1.81473 -10.84375,4.3125 -0.0222,1.12341 3.78994,2.41962 18.4375,6.25 15.72299,4.11162 32.69427,7.17834 45.53125,8.21875 11.81873,0.95788 20.86817,0.0571 28,-2.75 5.54975,-2.1844 12,-6.43425 12,-7.90625 0,-0.43851 -6.6375,-1.0494 -14.75,-1.375 -14.96878,-0.60078 -31.96063,-3.25001 -52.09375,-8.125 -5.81685,-1.40848 -8.46944,-1.97395 -10.40625,-1.875 z m -26.90625,12.46875 -3.5625,2.40625 c -2.53825,1.7225 -4.92546,2.40625 -8.375,2.40625 -3.86787,0 -5.04276,0.42192 -5.9375,2.09375 -0.61391,1.1471 -0.96331,2.23562 -0.78125,2.40625 0.18206,0.17062 6.1625,2.4359 13.3125,5.03125 15.44105,5.60487 32.6799,10.11131 43.3125,11.34375 9.01336,1.04476 14.44832,0.56239 22.6875,-2 6.66258,-2.07206 13.75677,-5.83508 13.90625,-7.375 0.0534,-0.55 -1.93125,-1.10458 -4.40625,-1.25 -14.22346,-0.83571 -39.09092,-5.89559 -61.84375,-12.59375 l -8.3125,-2.46875 z M 494.599,394.95658 c -0.85453,0.0915 -1.92575,0.4174 -3.59375,0.9375 -21.4534,6.68945 -53.55945,13.3997 -64.34375,13.4375 -7.0582,0.0247 -7.44975,1.20908 -1.59375,4.71875 4.5968,2.75501 11.64285,5.09196 19.71875,6.5625 9.9616,1.81391 44.27775,-6.17939 65.40625,-15.25 4.6631,-2.00188 4.7925,-2.19534 3.1875,-3.96875 -1.1012,-1.21687 -3.5164,-1.99236 -7,-2.28125 -3.3691,-0.27939 -6.2967,-1.22267 -8,-2.5625 -1.59163,-1.25194 -2.35703,-1.74622 -3.78125,-1.59375 z m 23.28125,13.46875 c -0.61148,0.0708 -1.35005,0.32018 -2.375,0.71875 -19.627,7.63217 -51.40855,16.15625 -60.21875,16.15625 -2.2838,0 -2.52995,0.26533 -1.53125,1.46875 1.7064,2.05608 8.52395,4.43712 15.53125,5.4375 8.5033,1.21398 8.5821,1.21383 19.1875,0.0312 17.0662,-1.903 39.17685,-9.88125 45.21875,-16.3125 l 2.34375,-2.53125 -2.375,-0.46875 c -1.3071,-0.26831 -4.38305,-0.75793 -6.84375,-1.09375 -2.4606,-0.33583 -5.27685,-1.37226 -6.28125,-2.28125 -0.97494,-0.8823 -1.63712,-1.24296 -2.65625,-1.125 z m 162.5625,0.28125 c -0.95027,0.0108 -1.61076,0.33147 -2.53125,0.875 -1.43492,0.84729 -4.425,1.83035 -6.625,2.1875 -10.45503,1.69727 -10.63965,2.09909 -3.25,7 9.32057,6.18152 25.88124,11.71886 40.59375,13.5625 12.72906,1.5951 29.54395,-0.77486 35.0625,-4.9375 l 2.34375,-1.78125 -5.875,-0.6875 c -14.11546,-1.65542 -33.33148,-6.72101 -50.25,-13.25 -5.52225,-2.13108 -7.88497,-2.98682 -9.46875,-2.96875 z m -101.53125,77.5 -1.15625,4.3125 c -1.88361,7.07626 -8.04895,17.77225 -13.84375,24.03125 l -5.4375,5.875 2.0625,2.0625 c 2.636,2.63601 8.4945,2.74393 13.75,0.25 2.1208,-1.00636 7.25543,-5.07009 11.40625,-9.0625 4.15082,-3.99242 7.61117,-7.17377 7.71875,-7.0625 0.10757,0.11127 -0.80855,3.3375 -2.0625,7.1875 -3.27477,10.05448 -4.86348,20.14108 -4.375,27.8125 0.48394,7.60005 2.50479,11.18536 7.84375,13.90625 3.51148,1.78955 6.32619,1.57151 11.125,-0.84375 6.5761,-3.30978 7.63566,-19.42563 2.375,-36.375 -1.451,-4.675 -2.91801,-9.4 -3.25,-10.5 -0.3453,-1.14409 2.84689,1.29323 7.46875,5.6875 4.44374,4.22492 9.37964,8.35087 10.9375,9.15625 4.89642,2.5313 11.09236,2.48146 14.25,-0.0937 l 2.15625,-1.75 -5.375,-5.65625 c -5.54969,-5.8561 -11.59484,-16.1939 -13.78125,-23.59375 -0.69065,-2.3375 -1.46592,-4.25 -1.71875,-4.25 -0.25284,0 -2.03835,1.40265 -4,3.125 -10.22772,8.98006 -21.35723,9.05071 -31.25,0.15625 l -4.84375,-4.375 z m -32.96875,45.65625 -9.46875,24.625 3.4375,0 2.71875,-7.5 10.28125,0 2.90625,7.5 3.6875,0 -10.0625,-24.625 -3.5,0 z m 100.34375,0.375 0,23.875 3.15625,0 0,-11.25 12.40625,0 0,11.25 3.15625,0 0,-23.875 -3.15625,0 0,9.8125 -12.40625,0 0,-9.8125 -3.15625,0 z m -98.71875,2.1875 0.0937,0 c 0.3136,1.20968 0.61738,2.17824 0.875,2.90625 0.2576,0.71685 1.39014,3.73107 3.40625,9.0625 l -8.375,0 2.75,-7.375 c 0.52641,-1.41125 0.93637,-2.93605 1.25,-4.59375 z m 22.53125,37.6875 c -1.28596,2.50364 -3.71081,4.58564 -7.25,6.28125 l 0,2.96875 c 2.57189,-1.01281 4.61993,-2.23083 6.15625,-3.6875 l 0,19.5625 3.09375,0 0,-25.125 -2,0 z m 17.71875,0 c -2.31016,3e-5 -4.21948,0.76195 -5.6875,2.34375 -1.46803,1.58185 -2.1875,3.61291 -2.1875,6.09375 0,2.43535 0.72236,4.42396 2.15625,5.9375 1.44526,1.50218 3.1902,2.25001 5.25,2.25 1.22904,10e-6 2.35927,-0.3031 3.40625,-0.90625 1.05833,-0.60313 1.89684,-1.3963 2.5,-2.375 l 0.0625,0 c -1e-5,3.00435 -0.49857,5.36399 -1.5,7.09375 -1.00146,1.71839 -2.45467,2.59375 -4.34375,2.59375 -2.29878,0 -3.65842,-1.3087 -4.125,-3.9375 l -2.9375,0.21875 c 0.27312,2.09394 1.01806,3.68317 2.28125,4.71875 1.26318,1.02421 2.84103,1.53125 4.71875,1.53125 2.87915,0 5.10855,-1.11326 6.65625,-3.34375 1.54767,-2.23049 2.31248,-5.6071 2.3125,-10.125 -2e-5,-4.44959 -0.83564,-7.5968 -2.53125,-9.40625 -1.69564,-1.80941 -3.70973,-2.68747 -6.03125,-2.6875 z m 21.1875,0 c -1.28596,2.50364 -3.67956,4.58564 -7.21875,6.28125 l 0,2.96875 c 2.57189,-1.01281 4.61993,-2.23083 6.15625,-3.6875 l 0,19.5625 3.0625,0 0,-25.125 -2,0 z m 20.28125,0.0937 -11.40625,16.21875 0,2.84375 10.84375,0 0,5.96875 3.0625,0 0,-5.96875 3.40625,0 0,-2.84375 -3.40625,0 0,-16.21875 -2.5,0 z m -41.125,2.40625 c 1.41112,2e-5 2.56971,0.57228 3.46875,1.6875 0.91039,1.10389 1.34374,2.47491 1.34375,4.125 -1e-5,1.62736 -0.42487,2.99279 -1.3125,4.0625 -0.87628,1.05836 -2.09159,1.56251 -3.59375,1.5625 -1.41114,10e-6 -2.5952,-0.49854 -3.5625,-1.5 -0.95593,-1.01281 -1.4375,-2.29316 -1.4375,-3.875 0,-1.67285 0.49006,-3.10908 1.46875,-4.28125 0.97868,-1.1835 2.20248,-1.78123 3.625,-1.78125 z m 40.5,2.53125 0.0625,0 0,11.28125 -7.84375,0 7.78125,-11.28125 z"
     id="path3029"
     inkscape:connector-curvature="0" />
</svg>
