<?xml version="1.0" encoding="UTF-8" standalone="no"?>
<!-- Created with Inkscape (http://www.inkscape.org/) -->

<svg
   xmlns:dc="http://purl.org/dc/elements/1.1/"
   xmlns:cc="http://creativecommons.org/ns#"
   xmlns:rdf="http://www.w3.org/1999/02/22-rdf-syntax-ns#"
   xmlns:svg="http://www.w3.org/2000/svg"
   xmlns="http://www.w3.org/2000/svg"
   xmlns:sodipodi="http://sodipodi.sourceforge.net/DTD/sodipodi-0.dtd"
   xmlns:inkscape="http://www.inkscape.org/namespaces/inkscape"
   width="1979.8746"
   height="1291.4268"
   id="svg2"
   version="1.1"
   inkscape:version="0.47 r22583"
   sodipodi:docname="Flag of Georgia non official.svg">
  <defs
     id="defs4">
    <inkscape:perspective
       sodipodi:type="inkscape:persp3d"
       inkscape:vp_x="0 : 526.18109 : 1"
       inkscape:vp_y="0 : 1000 : 0"
       inkscape:vp_z="744.09448 : 526.18109 : 1"
       inkscape:persp3d-origin="372.04724 : 350.78739 : 1"
       id="perspective10" />
    <inkscape:perspective
       sodipodi:type="inkscape:persp3d"
       inkscape:vp_x="0 : 0.5 : 1"
       inkscape:vp_y="0 : 1000 : 0"
       inkscape:vp_z="1 : 0.5 : 1"
       inkscape:persp3d-origin="0.5 : 0.33333333 : 1"
       id="perspective3994" />
    <inkscape:perspective
       id="perspective3967"
       inkscape:persp3d-origin="360 : 162 : 1"
       inkscape:vp_z="720 : 243 : 1"
       inkscape:vp_y="0 : 1000 : 0"
       inkscape:vp_x="0 : 243 : 1"
       sodipodi:type="inkscape:persp3d" />
    <inkscape:perspective
       id="perspective2938"
       inkscape:persp3d-origin="0.5 : 0.33333333 : 1"
       inkscape:vp_z="1 : 0.5 : 1"
       inkscape:vp_y="0 : 1000 : 0"
       inkscape:vp_x="0 : 0.5 : 1"
       sodipodi:type="inkscape:persp3d" />
  </defs>
  <sodipodi:namedview
     id="base"
     pagecolor="#ffffff"
     bordercolor="#666666"
     borderopacity="1.0"
     inkscape:pageopacity="0.0"
     inkscape:pageshadow="2"
     inkscape:zoom="0.24748737"
     inkscape:cx="904.09752"
     inkscape:cy="879.15801"
     inkscape:document-units="px"
     inkscape:current-layer="layer1-7"
     showgrid="false"
     showguides="true"
     inkscape:guide-bbox="true"
     inkscape:window-width="1024"
     inkscape:window-height="712"
     inkscape:window-x="-4"
     inkscape:window-y="-4"
     inkscape:window-maximized="1" />
  <metadata
     id="metadata7">
    <rdf:RDF>
      <cc:Work
         rdf:about="">
        <dc:format>image/svg+xml</dc:format>
        <dc:type
           rdf:resource="http://purl.org/dc/dcmitype/StillImage" />
        <dc:title />
      </cc:Work>
    </rdf:RDF>
  </metadata>
  <g
     inkscape:label="Capa 1"
     inkscape:groupmode="layer"
     id="layer1"
     transform="translate(554.09752,-206.64883)">
    <g
       inkscape:label="Layer 1"
       id="layer1-7"
       transform="matrix(1.9647901,0,0,1.8411797,-474.68239,237.18989)">
      <g
         transform="matrix(0.95949812,0,0,1.0793609,0.29767776,0.48203445)"
         id="g3157">
        <rect
           style="fill:#1c1479"
           y="-15.814732"
           x="-42.435539"
           id="left"
           width="1050.213"
           height="649.8407" />
      </g>
      <path
         id="path106"
         style="fill:#fab700;stroke:#002577;stroke-width:0pt;stroke-linejoin:round;stroke-miterlimit:3.86369991"
         d="m 455.75352,279.66501 c 0.0395,-0.0176 0.0606,-0.0264 0.0622,-0.0247 0.0158,0 2.38203,0.98337 2.4022,5.28959 2.09451,-0.45591 2.93996,0.82899 2.53619,3.85384 0,0 -2.4867,-0.78089 -2.8926,0.86599 -0.60965,1.90402 -0.14427,3.45502 1.39473,4.6534 0,0 2.58579,2.38018 4.21312,-2.13134 1.62716,-4.51136 2.21286,-6.0458 2.21286,-6.0458 0.4526,-1.66204 3.1469,-5.55711 5.59357,-6.10308 0.93209,-0.43389 1.82427,-0.34823 2.81961,-0.0722 0,0 2.14095,0.53821 2.20164,2.61598 0.0606,2.07758 -0.66945,2.98201 -1.87676,3.5849 -1.33463,0.6665 -2.98275,-0.76415 -2.98275,-0.76415 -0.57459,-0.12512 -0.75806,0.10577 -1.11098,0.39054 -0.1625,0.1305 -0.83998,0.99465 -1.23266,1.96692 0,0 -1.18836,2.91751 -1.75509,5.14578 -0.44639,1.75474 -1.4305,7.06178 -6.05681,7.85835 l -10.91798,0 c -4.62631,-0.79657 -5.61027,-6.10361 -6.05683,-7.85835 -0.56701,-2.22827 -1.75507,-5.14578 -1.75507,-5.14578 -0.39252,-0.97227 -1.07016,-1.83616 -1.23266,-1.96692 -0.35277,-0.28409 -0.53637,-0.51513 -1.11099,-0.39054 0,0 -1.64825,1.43065 -2.98288,0.76415 -1.20732,-0.60289 -1.93777,-1.50696 -1.87676,-3.5849 0.0606,-2.07777 2.20176,-2.61598 2.20176,-2.61598 0.99538,-0.27598 1.88754,-0.36198 2.81978,0.0722 2.44652,0.54597 5.14082,4.44104 5.59312,6.10308 0,0 0.58584,1.53444 2.21302,6.0458 1.62686,4.51152 4.21296,2.13134 4.21296,2.13134 1.53947,-1.19838 2.00422,-2.74956 1.39473,-4.6534 -0.40558,-1.64706 -2.89262,-0.86599 -2.89262,-0.86599 -0.40345,-3.02485 0.44184,-4.30939 2.53635,-3.85384 0.0197,-4.30622 2.38704,-5.29645 2.40251,-5.28959 0.001,-5.3e-4 0.0227,0 0.0622,0.0247 l -0.13954,0 z" />
      <polygon
         id="polygon108"
         style="fill:#fab700;fill-rule:evenodd;stroke:#002577;stroke-width:8.48910046;stroke-miterlimit:3.86369991"
         transform="matrix(0.23723409,0,0,0.27554017,113.45186,-322.84472)"
         points="1388.75,2712.42 1401.9,2277.75 1487.53,2277.75 1500.16,2712.42 1388.75,2712.42 " />
      <polygon
         id="polygon110"
         style="fill:#fab700;fill-rule:evenodd;stroke:#002577;stroke-width:8.48910046;stroke-miterlimit:3.86369991"
         transform="matrix(0.23723409,0,0,0.27554017,113.45186,-322.84472)"
         points="1381.38,2954.14 1381.37,2756.75 1499.68,2756.71 1499.68,2954.14 1381.38,2954.14 " />
      <path
         id="path114"
         style="fill:#fab700;stroke:#002577;stroke-width:2.17041445;stroke-miterlimit:3.86369991"
         d="m 440.70162,430.54666 28.4504,0 c 1.98192,0 3.58829,1.4028 3.58829,3.13339 0,1.7306 -1.60667,3.1334 -3.58829,3.1334 l -28.4504,0 c -1.98192,0 -3.5883,-1.4028 -3.5883,-3.1334 0,-1.73059 1.60638,-3.13339 3.5883,-3.13339 l 0,0 z" />
      <path
         id="path118"
         style="fill:#fab700;fill-rule:evenodd;stroke:#002577;stroke-width:2.17041445;stroke-miterlimit:3.86369991"
         d="m 442.81099,424.66776 24.83555,0 c 1.76463,0 3.19517,1.31591 3.19517,2.93936 l 0,0 c 0,1.62344 -1.43054,2.93954 -3.19517,2.93954 l -24.83555,0 c -1.76449,0 -3.19502,-1.3161 -3.19502,-2.93954 l 0,0 c 0,-1.62345 1.43053,-2.93936 3.19502,-2.93936 z" />
      <rect
         id="rect120"
         style="fill:none;stroke:#002577;stroke-width:2.17041445;stroke-miterlimit:3.86369991"
         y="446.9368"
         x="447.49478"
         height="35.858246"
         width="14.994142" />
      <path
         id="path124"
         style="fill:#fab700;stroke:#002577;stroke-width:1.25276089;stroke-miterlimit:3.86369991"
         d="m 447.18237,300.58722 17.22411,0 c 1.41549,0 2.56303,0.96856 2.56303,2.1636 0,1.19467 -1.14754,2.16323 -2.56303,2.16323 l -17.22411,0 c -1.41566,0 -2.5632,-0.96856 -2.5632,-2.16323 3e-4,-1.19468 1.14784,-2.1636 2.5632,-2.1636 l 0,0 z" />
      <rect
         id="rect128"
         style="fill:#fab700;fill-rule:evenodd;stroke:#002577;stroke-width:2.55670714;stroke-miterlimit:3.86369991"
         y="497.64664"
         x="314.55896"
         height="11.202638"
         width="286.04239" />
      <rect
         id="rect132"
         style="fill:#fab700;stroke:#002577;stroke-width:1.53404987;stroke-miterlimit:3.86369991"
         y="508.75449"
         x="302.35522"
         height="11.861729"
         width="310.64734" />
      <rect
         id="rect136"
         style="fill:#fab700;fill-rule:evenodd;stroke:#002577;stroke-width:2.44175744;stroke-miterlimit:3.86369991"
         y="254.39023"
         x="323.01718"
         height="6.8631544"
         width="267.07504" />
      <path
         id="path138"
         style="fill:#fab700;fill-rule:evenodd;stroke:#002577;stroke-width:1.25276089;stroke-linejoin:round;stroke-miterlimit:3.86369991"
         d="m 539.78546,254.18 c -13.83717,-38.50148 -45.95127,-65.40338 -83.3593,-65.40338 -37.38544,0 -69.48256,26.93926 -83.33367,65.40338 l -33.19763,0 c 15.35477,-59.17801 61.77124,-102.56215 116.53144,-102.56215 54.79752,0 101.24116,43.30307 116.5803,102.54312 l -33.22114,0.0194 z" />
      <path
         id="path140"
         style="fill:#fab700;fill-rule:evenodd;stroke:#002577;stroke-width:1.53404987;stroke-miterlimit:3.86369991"
         d="m 330.1939,261.33957 c 0,0 4.61628,3.20724 8.46101,12.75671 l 237.59631,-0.0176 c 0,0 3.90739,-10.67733 9.28977,-12.76621 l -255.34709,0.0212 z" />
      <path
         id="path144"
         style="fill:#fab700;fill-rule:evenodd;stroke:#002577;stroke-width:1.25276089;stroke-linejoin:round;stroke-miterlimit:3.86369991"
         d="m 389.13991,276.57673 c 0,0 22.01062,43.87476 66.76852,43.27046 44.21334,-0.59672 66.76883,-41.77849 66.76883,-41.77849 l 11.7903,20.29254 c 0,0 4.35726,6.86334 -4.10083,15.51751 -29.88124,30.57319 -53.55106,36.5818 -74.458,36.4068 -30.8772,-1.96269 -55.78255,-14.0987 -74.71424,-36.4068 -3.40531,-3.28864 -4.10115,-7.60965 -3.07575,-11.19086 l 11.02117,-26.11116 z" />
      <path
         id="path146"
         style="fill:none;stroke:#002577;stroke-width:1.62782967;stroke-miterlimit:3.86369991"
         d="m 377.67007,307.23908 c 0,0 -1.34555,-8.87766 10.70102,-1.71544 l 0.89688,-28.79782" />
      <path
         id="path148"
         style="fill:none;stroke:#002577;stroke-width:1.62782967;stroke-miterlimit:3.86369991"
         d="m 535.30056,301.19628 c -3.84455,-9.62383 -10.8934,2.16324 -10.8934,2.16324 l -1.77465,-25.14137" />
      <path
         id="path152"
         style="fill:#fab700;stroke:#002577;stroke-width:1.27835357;stroke-miterlimit:3.86369991"
         d="m 337.36974,274.6135 238.88148,0 c 0.84925,0 1.53764,0.83393 1.53764,1.86295 l 0,0.62051 c 0,1.02884 -0.68839,1.86295 -1.53764,1.86295 l -238.88148,0 c -0.84924,0 -1.5378,-0.83411 -1.5378,-1.86295 l 0,-0.62051 c -1.5e-4,-1.02902 0.68856,-1.86295 1.5378,-1.86295 l 0,0 z" />
      <path
         id="path162"
         style="fill:#fab700;stroke:#002577;stroke-width:0pt;stroke-linejoin:round;stroke-miterlimit:3.86369991"
         d="m 358.48469,279.32047 c 0.0394,-0.0176 0.0607,-0.0264 0.0622,-0.0247 0.0152,0 2.38204,0.98355 2.40221,5.28959 2.09451,-0.45573 2.93995,0.82917 2.5365,3.854 0,0 -2.48673,-0.78087 -2.89261,0.866 -0.60966,1.90402 -0.14414,3.45503 1.39472,4.65341 0,0 2.5858,2.38001 4.21297,-2.13135 1.62717,-4.51135 2.21301,-6.04597 2.21301,-6.04597 0.45231,-1.66204 3.1466,-5.55711 5.59342,-6.10291 0.93209,-0.43388 1.82442,-0.34823 2.81978,-0.0722 0,0 2.14078,0.5382 2.20147,2.61598 0.0607,2.07777 -0.66959,2.98183 -1.87662,3.58473 -1.33478,0.66651 -2.98288,-0.76397 -2.98288,-0.76397 -0.57446,-0.12513 -0.75805,0.10576 -1.11082,0.39035 -0.16251,0.1305 -0.84014,0.99465 -1.23267,1.96711 0,0 -1.18836,2.9175 -1.75508,5.14578 -0.44655,1.75456 -1.43052,7.06177 -6.05682,7.85833 l -10.91799,0 c -4.62629,-0.79656 -5.61042,-6.10377 -6.05681,-7.85833 -0.56687,-2.22828 -1.75508,-5.14578 -1.75508,-5.14578 -0.39268,-0.97246 -1.07016,-1.83617 -1.23267,-1.96711 -0.35277,-0.28408 -0.53637,-0.51494 -1.11097,-0.39035 0,0 -1.64826,1.43048 -2.98274,0.76397 -1.20733,-0.6029 -1.93777,-1.50696 -1.87707,-3.58473 0.0607,-2.0776 2.20177,-2.61598 2.20177,-2.61598 0.99551,-0.27616 1.88769,-0.36199 2.81978,0.0722 2.44667,0.5458 5.14082,4.44087 5.59328,6.10291 0,0 0.58568,1.53462 2.213,6.04597 1.62717,4.51136 4.21298,2.13135 4.21298,2.13135 1.53946,-1.19838 2.00407,-2.74975 1.39471,-4.65341 -0.40588,-1.64723 -2.89261,-0.866 -2.89261,-0.866 -0.4036,-3.02483 0.442,-4.30938 2.5362,-3.854 0.0213,-4.30604 2.38704,-5.29646 2.40251,-5.28959 0,-5.2e-4 0.0228,0 0.0622,0.0247 l -0.13959,0 z" />
      <polygon
         id="polygon164"
         style="fill:#fab700;fill-rule:evenodd;stroke:#002577;stroke-width:8.48910046;stroke-miterlimit:3.86369991"
         transform="matrix(0.23723409,0,0,0.27554017,113.45186,-322.84472)"
         points="977.464,2712.42 992.28,2277.75 1074.57,2277.75 1088.87,2712.42 977.464,2712.42 " />
      <polygon
         id="polygon166"
         style="fill:#fab700;fill-rule:evenodd;stroke:#002577;stroke-width:8.48910046;stroke-miterlimit:3.86369991"
         transform="matrix(0.23723409,0,0,0.27554017,113.45186,-322.84472)"
         points="974.016,2954.14 974.015,2756.75 1092.32,2756.71 1092.32,2954.14 974.016,2954.14 " />
      <path
         id="path168"
         style="fill:#fab700;fill-rule:evenodd;stroke:#002577;stroke-width:2.17041445;stroke-miterlimit:3.86369991"
         d="m 344.32921,430.54666 28.45056,0 c 1.98191,0 3.58814,1.4028 3.58814,3.13339 l 0,0 c 0,1.7306 -1.60653,3.1334 -3.58814,3.1334 l -28.45056,0 c -1.98161,0 -3.58815,-1.4028 -3.58815,-3.1334 l 0,0 c -3e-4,-1.73059 1.60638,-3.13339 3.58815,-3.13339 z" />
      <path
         id="path170"
         style="fill:#fab700;fill-rule:evenodd;stroke:#002577;stroke-width:2.17041445;stroke-miterlimit:3.86369991"
         d="m 346.13678,424.66776 24.83556,0 c 1.76449,0 3.19501,1.31591 3.19501,2.93936 l 0,0 c 0,1.62344 -1.43052,2.93954 -3.19501,2.93954 l -24.83556,0 c -1.76463,0 -3.19516,-1.3161 -3.19516,-2.93954 l 0,0 c 0,-1.62345 1.43053,-2.93936 3.19516,-2.93936 z" />
      <rect
         id="rect172"
         style="fill:none;stroke:#002577;stroke-width:2.17041445;stroke-miterlimit:3.86369991"
         y="446.9368"
         x="351.0575"
         height="35.858246"
         width="14.994142" />
      <path
         id="path176"
         style="fill:#fab700;stroke:#002577;stroke-width:1.25276089;stroke-miterlimit:3.86369991"
         d="m 349.94236,301.04613 17.22425,0 c 1.41551,0 2.56305,0.96838 2.56305,2.16341 0,1.19486 -1.14754,2.1636 -2.56305,2.1636 l -17.22425,0 c -1.4155,0 -2.56305,-0.96856 -2.56305,-2.1636 0,-1.19467 1.14755,-2.16341 2.56305,-2.16341 l 0,0 z" />
      <rect
         id="rect180"
         style="fill:#fab700;fill-rule:evenodd;stroke:#002577;stroke-width:1.04398024;stroke-miterlimit:3.86369991"
         y="491.27676"
         x="338.56226"
         height="6.2668853"
         width="39.984379" />
      <path
         id="path188"
         style="fill:#fab700;stroke:#002577;stroke-width:0pt;stroke-linejoin:round;stroke-miterlimit:3.86369991"
         d="m 554.46789,279.66501 c 0.0395,-0.0176 0.0606,-0.0264 0.0622,-0.0247 0.0158,0 2.38234,0.98337 2.40251,5.28959 2.09451,-0.45591 2.93995,0.82899 2.53619,3.85384 0,0 -2.48672,-0.78089 -2.8926,0.86599 -0.60966,1.90402 -0.14427,3.45502 1.39472,4.6534 0,0 2.58578,2.38018 4.21312,-2.13134 1.62717,-4.51136 2.21285,-6.0458 2.21285,-6.0458 0.45261,-1.66204 3.1466,-5.55711 5.59359,-6.10308 0.93206,-0.43389 1.82424,-0.34823 2.81961,-0.0722 0,0 2.14093,0.53821 2.20164,2.61598 0.0606,2.07758 -0.66945,2.98201 -1.87708,3.5849 -1.33432,0.6665 -2.98273,-0.76415 -2.98273,-0.76415 -0.57462,-0.12512 -0.75792,0.10577 -1.11099,0.39054 -0.16251,0.1305 -0.83999,0.99465 -1.23266,1.96692 0,0 -1.18822,2.91751 -1.75494,5.14578 -0.44654,1.75474 -1.43051,7.06178 -6.05696,7.85835 l -10.91799,0 c -4.62629,-0.79657 -5.61026,-6.10361 -6.05682,-7.85835 -0.56686,-2.22827 -1.75522,-5.14578 -1.75522,-5.14578 -0.39268,-0.97227 -1.06987,-1.83616 -1.23267,-1.96692 -0.35278,-0.28409 -0.53638,-0.51513 -1.11098,-0.39054 0,0 -1.64825,1.43065 -2.98304,0.76415 -1.20716,-0.60289 -1.93761,-1.50696 -1.87661,-3.5849 0.0606,-2.07777 2.20161,-2.61598 2.20161,-2.61598 0.99552,-0.27598 1.8877,-0.36198 2.81978,0.0722 2.44668,0.54597 5.14098,4.44104 5.59359,6.10308 0,0 0.58568,1.53444 2.21285,6.0458 1.62702,4.51152 4.21312,2.13134 4.21312,2.13134 1.53916,-1.19838 2.00408,-2.74956 1.39442,-4.6534 -0.40574,-1.64706 -2.89261,-0.86599 -2.89261,-0.86599 -0.40345,-3.02485 0.44169,-4.30939 2.53634,-3.85384 0.0197,-4.30622 2.38704,-5.29645 2.40221,-5.28959 10e-4,-5.3e-4 0.0227,0 0.0622,0.0247 l -0.13953,0 z" />
      <polygon
         id="polygon190"
         style="fill:#fab700;fill-rule:evenodd;stroke:#002577;stroke-width:8.48910046;stroke-miterlimit:3.86369991"
         transform="matrix(0.23723409,0,0,0.27554017,113.45186,-322.84472)"
         points="1805.69,2712.42 1820.51,2277.75 1902.81,2277.75 1917.1,2712.42 1805.69,2712.42 " />
      <polygon
         id="polygon192"
         style="fill:#fab700;fill-rule:evenodd;stroke:#002577;stroke-width:8.48910046;stroke-miterlimit:3.86369991"
         transform="matrix(0.23723409,0,0,0.27554017,113.45186,-322.84472)"
         points="1804.95,2954.14 1803.7,2756.75 1923.25,2756.71 1923.25,2954.14 1804.95,2954.14 " />
      <path
         id="path196"
         style="fill:#fab700;stroke:#002577;stroke-width:2.17041445;stroke-miterlimit:3.86369991"
         d="m 541.38805,430.54666 28.45039,0 c 1.98192,0 3.58815,1.4028 3.58815,3.13339 0,1.7306 -1.60653,3.1334 -3.58815,3.1334 l -28.45039,0 c -1.98192,0 -3.58831,-1.4028 -3.58831,-3.1334 0,-1.73059 1.60639,-3.13339 3.58831,-3.13339 l 0,0 z" />
      <path
         id="path200"
         style="fill:#fab700;fill-rule:evenodd;stroke:#002577;stroke-width:2.17041445;stroke-miterlimit:3.86369991"
         d="m 542.83313,424.66776 24.83555,0 c 1.76465,0 3.19516,1.31591 3.19516,2.93936 l 0,0 c 0,1.62344 -1.43051,2.93954 -3.19516,2.93954 l -24.83555,0 c -1.76449,0 -3.19502,-1.3161 -3.19502,-2.93954 l 0,0 c 0,-1.62345 1.43023,-2.93936 3.19502,-2.93936 z" />
      <rect
         id="rect202"
         style="fill:none;stroke:#002577;stroke-width:2.17041445;stroke-miterlimit:3.86369991"
         y="446.9368"
         x="547.92438"
         height="35.858246"
         width="14.994142" />
      <path
         id="path206"
         style="fill:#fab700;stroke:#002577;stroke-width:1.25276089;stroke-miterlimit:3.86369991"
         d="m 546.29442,300.58722 17.22411,0 c 1.41565,0 2.56319,0.96856 2.56319,2.1636 0,1.19467 -1.14754,2.16323 -2.56319,2.16323 l -17.22411,0 c -1.4155,0 -2.56305,-0.96856 -2.56305,-2.16323 0,-1.19468 1.14755,-2.1636 2.56305,-2.1636 l 0,0 z" />
      <rect
         id="rect210"
         style="fill:#fab700;fill-rule:evenodd;stroke:#002577;stroke-width:1.04398024;stroke-miterlimit:3.86369991"
         y="491.27676"
         x="434.54944"
         height="6.2668853"
         width="39.984379" />
      <path
         id="path212"
         style="fill:#fab700;fill-rule:evenodd;stroke:#002577;stroke-width:1.86199653;stroke-miterlimit:3.86369991"
         d="m 290.01114,406.35368 c -6.52696,-5.67209 -13.42324,-4.17922 -13.42324,-4.17922 0,0 4.98361,-8.02388 12.93056,-4.03009 5.04908,2.53757 9.35951,11.94093 22.16688,2.08961 12.8075,-9.85134 17.77828,-14.82884 29.06315,-19.40404 11.5947,-4.70089 20.68899,-5.67191 23.39848,-6.86597 2.7092,-1.19404 6.94848,-3.0654 9.11296,-18.8071 0.49267,-3.58246 12.31482,29.8525 12.31482,29.8525 0,0 -1.72414,11.04537 -13.05391,17.31458 -11.32977,6.26904 -30.96051,10.01918 -41.87066,20.59808 -3.6944,3.5823 -10.7935,9.77625 -15.0857,17.38935 -10.09831,17.91116 -20.62747,19.92639 -20.62747,19.92639 0,0 9.54731,-10.10979 12.19177,-23.73278 0.49268,-2.5374 -0.3126,-13.95053 3.44815,-18.50864 -3.99331,4.84035 -14.10386,-4.69631 -12.80736,-3.43297 0,-3.6e-4 -1.23147,-2.53776 -7.75843,-8.2097 z" />
      <path
         id="path214"
         style="fill:#fab700;fill-rule:evenodd;stroke:#002577;stroke-width:1.89912224;stroke-miterlimit:3.86369991"
         d="m 540.49599,355.46251 c 0,0 2.05036,13.57795 24.99019,20.44163 22.93982,6.86387 26.52827,15.5179 30.24479,17.60677 3.71651,2.08886 13.37316,10.1319 23.70864,6.11751 4.07187,-1.58148 15.45006,-5.22242 16.37895,-4.41317 0.34824,0.67426 -3.25084,7.68632 -3.69162,8.29291 -7.61115,10.47485 -10.50877,12.08596 -13.32809,13.72703 -6.15755,3.5849 -6.63355,4.01984 -11.02116,4.32719 0,0 4.10084,5.96842 4.74159,15.66697 0.64077,9.69837 11.79031,19.54618 11.79031,19.54618 0,0 -14.86605,-4.4761 -21.40188,-14.77171 -6.53598,-10.29562 -17.30072,-19.09874 -21.27367,-21.33706 -3.97277,-2.23814 -24.2212,-10.29544 -28.45026,-12.23504 -4.2292,-1.93978 -17.42922,-9.9969 -19.22331,-22.97812 -1.79468,-12.98121 6.53552,-29.99109 6.53552,-29.99109 z" />
      <path
         id="path216"
         style="fill:#fab700;stroke:#002577;stroke-width:1.89912224;stroke-miterlimit:3.86369991"
         d="m 323.00244,365.90423 c -15.57099,-7.08732 -10.76262,-11.87095 -10.76262,-11.87095 3.83122,-7.9563 8.8505,-17.94987 27.82209,-26.42802 25.37451,-11.33979 51.26202,-6.26644 44.34155,6.86387 -4.20706,7.98206 -11.46968,21.93376 -11.46968,21.93376 0,0 -3.01172,-9.39999 -16.85252,-3.43191 -13.84064,5.96858 -18.11324,8.49751 -18.93426,11.65206 -1.28153,4.9239 -0.76898,8.0573 9.22724,6.26696 -6.53613,2.53651 -13.81757,-0.10935 -21.99256,-4.33476 l -1.37924,-0.65101 z" />
      <path
         id="path218"
         style="fill:#fab700;stroke:#002577;stroke-width:1.62788105;stroke-linejoin:round;stroke-miterlimit:3.86369991"
         d="m 560.29575,352.52299 c 2.87759,0.86106 7.78959,3.63 10.68508,6.04508 14.10677,11.76699 11.50959,22.03211 7.59887,22.30035 -4.35728,0.29835 27.65973,-0.7416 31.5043,-3.12883 3.84473,-2.38723 5.12625,-5.07318 2.81962,-10.74307 -2.30661,-5.66972 -19.73571,-40.28634 -48.18627,-46.85167 -28.45054,-6.56497 -39.72467,7.36771 -37.29302,12.08596 2.30664,4.47611 12.81541,19.39693 13.19974,25.51444 2.91825,-6.40177 9.48275,-8.2256 19.67168,-5.22226 z" />
      <polygon
         id="polygon222"
         style="fill:#002577;fill-rule:evenodd"
         transform="matrix(0.23723409,0,0,0.27554017,113.45186,-322.84472)"
         points="1799.67,2432.24 1789.16,2369.28 1799.12,2367.61 1829.19,2409.7 1844.31,2360.03 1853.13,2358.55 1863.63,2421.5 1863.63,2421.5 1851.34,2423.57 1845.31,2387.44 1833.03,2426.64 1826.08,2427.8 1802.93,2394.55 1808.96,2430.68 " />
      <path
         id="path224"
         style="fill:#002577;fill-rule:evenodd"
         d="m 569.33106,339.46405 c -0.47492,2.7182 -1.36606,4.6682 -2.67169,5.84948 -1.30504,1.1737 -2.82389,1.5549 -4.5571,1.14463 -1.71443,-0.40621 -2.97849,-1.44685 -3.79193,-3.12247 -0.81206,-1.68301 -0.98382,-3.86441 -0.51543,-6.54489 l 0.1716,-0.98231 c 0.43654,-2.4972 1.28638,-4.4169 2.5494,-5.75942 1.26922,-1.34042 2.86059,-1.78435 4.77408,-1.33108 1.86963,0.44304 3.14312,1.57709 3.82044,3.40286 0.68326,1.82716 0.81056,3.96679 0.38236,6.41817 l -0.16173,0.92503 z m -3.14661,-0.98337 0.0819,-0.46824 c 0.37129,-2.12429 0.49752,-3.73576 0.37903,-4.8342 -0.11838,-1.09864 -0.73985,-1.78118 -1.86418,-2.04729 -1.03739,-0.24585 -1.80667,0.0475 -2.30798,0.88028 -0.49511,0.83427 -0.94817,2.42776 -1.35937,4.78063 l -0.0743,0.4226 c -0.41393,2.36802 -0.54608,4.02988 -0.39572,4.98507 0.15011,0.9557 0.77762,1.56406 1.88374,1.82611 0.90659,0.21482 1.64537,-0.10577 2.21544,-0.96188 0.57597,-0.85473 1.05665,-2.3823 1.44128,-4.58308 z" />
      <path
         id="path226"
         style="fill:#002577;fill-rule:evenodd"
         d="m 581.46911,347.07303 c -1.16878,2.50637 -2.44347,4.11008 -3.82318,4.81094 -1.37514,0.70494 -2.85587,0.55532 -4.44375,-0.44851 l -4.62129,-2.92191 7.20816,-15.45693 4.145,2.62075 c 1.89406,1.19749 2.93736,2.71925 3.12976,4.56528 0.2012,1.84285 -0.23322,3.91111 -1.30337,6.20582 l -0.29133,0.62456 z m -2.8102,-1.90947 0.19588,-0.41995 c 0.78976,-1.69342 1.15345,-3.13923 1.09186,-4.33672 -0.0622,-1.19713 -0.50558,-2.05661 -1.32978,-2.57826 l -1.06135,-0.67091 -5.0586,10.84758 1.3037,0.82406 c 0.80765,0.5109 1.5821,0.53626 2.32316,0.0758 0.74423,-0.46649 1.58892,-1.71385 2.53513,-3.7421 z" />
      <polygon
         id="polygon228"
         style="fill:#002577;fill-rule:evenodd"
         transform="matrix(0.23723409,0,0,0.27554017,113.45186,-322.84472)"
         points="1988.78,2453.03 1976.18,2465.88 1993.87,2483.32 1987.22,2490.11 1987.22,2490.11 1959.8,2463.09 2004.43,2417.56 2030.68,2443.42 2024.03,2450.21 2007.5,2433.93 1995.52,2446.15 2008.36,2458.79 2001.61,2465.67 " />
      <path
         id="path230"
         style="fill:#002577;fill-rule:evenodd"
         d="m 591.20907,375.60685 -1.62156,-3.20584 c 2.0857,-1.46501 3.47102,-2.71485 4.15608,-3.75003 0.6934,-1.03272 0.81191,-2.00058 0.35519,-2.90393 l -0.38631,-0.76327 -5.84802,4.01068 -1.64097,-3.2439 13.01567,-8.927 2.86681,5.66742 c 0.69813,1.38007 0.92132,2.54179 0.67066,3.48533 -0.24794,0.94937 -0.76579,1.6943 -1.55329,2.2348 l -0.70736,0.48499 c -0.74182,0.5086 -1.46405,0.66562 -2.16672,0.47089 -0.70268,-0.19508 -1.3486,-0.76714 -1.93717,-1.71685 0.26781,1.34094 0.0181,2.65563 -0.74713,3.94353 -0.75668,1.29054 -2.24212,2.69512 -4.45588,4.21318 z m 7.4233,-9.92326 0.3534,-0.24248 c 0.56352,-0.3863 0.882,-0.82777 0.9565,-1.32421 0.0743,-0.49645 -0.053,-1.06903 -0.381,-1.71773 l -0.5356,-1.05916 -3.44158,2.36063 0.44381,0.8778 c 0.38934,0.76961 0.79386,1.23311 1.21447,1.39029 0.42029,0.15686 0.88337,0.0617 1.39,-0.28514 z" />
      <path
         id="path234"
         style="fill:#002577;fill-rule:evenodd"
         d="m 550.34307,397.31486 -2.67715,-2.26492 1.27576,-4.13598 -3.83106,-3.24107 -3.00686,2.67166 -2.13108,-1.80302 12.78642,-10.92318 2.43877,2.06332 -4.8548,17.63319 z m -0.67232,-8.92542 1.83458,-6.44389 -4.60399,4.10108 2.76941,2.34281 z" />
      <polygon
         id="polygon236"
         style="fill:#002577;fill-rule:evenodd"
         transform="matrix(0.23723409,0,0,0.27554017,113.45186,-322.84472)"
         points="1912.48,2587.12 1912.48,2587.12 1900.66,2581.34 1876.91,2630.16 1864.67,2624.17 1888.42,2575.35 1876.31,2569.43 1880.47,2560.88 1916.64,2578.57 " />
      <polygon
         id="polygon238"
         style="fill:#002577;fill-rule:evenodd"
         transform="matrix(0.23723409,0,0,0.27554017,113.45186,-322.84472)"
         points="1916.84,2647.13 1904.3,2641.79 1929.17,2583.03 1941.72,2588.37 1916.84,2647.13 " />
      <path
         id="path240"
         style="fill:#002577;fill-rule:evenodd"
         d="m 585.54129,406.43167 c -0.96911,2.53438 -2.20132,4.21352 -3.69588,5.0374 -1.49243,0.81719 -3.04586,0.80643 -4.66195,-0.0317 -1.59848,-0.82881 -2.63891,-2.16324 -3.12172,-4.00433 -0.48023,-1.84779 -0.24247,-4.02124 0.71284,-6.52021 l 0.35019,-0.91552 c 0.89005,-2.32836 2.07659,-3.98829 3.55947,-4.98065 1.48848,-0.98919 3.1246,-1.02126 4.90835,-0.097 1.74325,0.90388 2.77563,2.33225 3.0976,4.2856 0.32745,1.95597 0.0546,4.0771 -0.81935,6.36265 l -0.32955,0.86282 z m -2.88972,-1.75334 0.1669,-0.43652 c 0.75729,-1.98049 1.18031,-3.52182 1.26877,-4.62431 0.0879,-1.1025 -0.39163,-1.9255 -1.43978,-2.46882 -0.96714,-0.50155 -1.77314,-0.40885 -2.41723,0.27792 -0.63834,0.68977 -1.37711,2.13133 -2.21574,4.32488 l -0.1501,0.39405 c -0.84425,2.20802 -1.282,3.79692 -1.31279,4.76742 -0.0319,0.97068 0.46854,1.72301 1.4997,2.25753 0.8453,0.43829 1.62613,0.31157 2.342,-0.38049 0.72147,-0.68941 1.47451,-2.05979 2.2588,-4.11166 z" />
      <polygon
         id="polygon242"
         style="fill:#002577;fill-rule:evenodd"
         transform="matrix(0.23723409,0,0,0.27554017,113.45186,-322.84472)"
         points="2016.64,2648.2 1996.64,2682.93 1988.24,2678.07 2020.08,2622.79 2026.39,2626.45 2032.51,2673.61 2051.35,2640.89 2059.75,2645.75 2027.92,2701.04 2027.92,2701.04 2022.85,2698.1 " />
      <polygon
         id="polygon246"
         style="fill:#002577;fill-rule:evenodd"
         transform="matrix(0.23723409,0,0,0.27554017,113.45186,-322.84472)"
         points="901.123,2414.08 930.901,2443.32 920.398,2402.47 928.679,2397.48 959.796,2425.91 947.473,2386.16 956.922,2380.46 956.922,2380.46 975.353,2443.83 966.901,2448.92 934.647,2419.84 944.877,2462.19 936.425,2467.28 889.304,2421.2 " />
      <polygon
         id="polygon248"
         style="fill:#002577;fill-rule:evenodd"
         transform="matrix(0.23723409,0,0,0.27554017,113.45186,-322.84472)"
         points="1010.64,2432.86 997.61,2436.85 978.994,2375.81 992.027,2371.81 1010.64,2432.86 " />
      <path
         id="path250"
         style="fill:#002577;fill-rule:evenodd"
         d="m 366.16397,339.66109 c 0.22305,1.8469 -0.11379,3.29483 -1.01205,4.3441 -0.89885,1.04188 -2.24259,1.70892 -4.0318,2.00164 -1.02343,0.16742 -1.89543,0.23527 -2.61616,0.20442 -0.72088,-0.0317 -1.3237,-0.12155 -1.80894,-0.26892 l -0.36218,-3.00122 c 0.3904,0.21076 0.9823,0.36884 1.77616,0.47441 0.79265,0.097 1.55935,0.0864 2.3004,-0.0353 1.04225,-0.17095 1.73733,-0.45661 2.08586,-0.85912 0.35459,-0.40305 0.48463,-0.99712 0.38964,-1.78242 -0.0607,-0.5079 -0.25688,-0.9349 -0.58659,-1.28103 -0.33002,-0.34629 -1.1964,-0.73399 -2.59886,-1.16382 -1.11795,-0.35052 -2.01469,-0.88239 -2.68959,-1.5963 -0.67611,-0.7208 -1.09869,-1.78189 -1.26756,-3.1824 -0.1616,-1.33884 0.16629,-2.54602 0.98413,-3.62156 0.8236,-1.07642 2.05823,-1.74909 3.70315,-2.01855 0.7972,-0.1305 1.52263,-0.16742 2.17644,-0.10918 0.65897,0.0493 1.12448,0.11455 1.39684,0.19508 l 0.32046,2.65475 c -0.55959,-0.074 -1.11341,-0.12692 -1.66177,-0.16388 -0.54881,-0.0353 -1.12402,0 -1.72685,0.0934 -0.8541,0.13929 -1.44949,0.40199 -1.7874,0.7867 -0.3376,0.38489 -0.47719,0.81965 -0.41862,1.3043 0.0744,0.61592 0.27175,1.05843 0.59235,1.32737 0.32077,0.26945 1.20566,0.59954 2.6547,0.98971 1.34935,0.36022 2.34683,0.93438 2.9929,1.72302 0.65093,0.78106 1.04953,1.77517 1.19534,2.98324 z" />
      <path
         id="path254"
         style="fill:#002577;fill-rule:evenodd"
         d="m 412.91456,327.70325 c -0.46354,1.05933 -1.14421,1.78522 -2.04139,2.17717 -0.889,0.38858 -1.91759,0.23597 -3.08713,-0.45769 -0.6837,-0.4055 -1.21021,-0.78792 -1.57953,-1.14638 -0.36415,-0.35545 -0.63788,-0.7051 -0.82132,-1.04981 l 1.04983,-2.39922 c 0.17176,0.24161 0.41559,0.52129 0.7318,0.83992 0.32455,0.31493 0.67066,0.58104 1.038,0.79903 0.35004,0.20779 0.70358,0.26947 1.06105,0.18488 0.35733,-0.0846 0.65715,-0.40393 0.89962,-0.95783 l 5.13581,-11.73632 2.88108,1.7091 -5.26782,12.03715 z" />
      <path
         id="path256"
         style="fill:#002577;fill-rule:evenodd"
         d="m 429.3269,334.73224 c -0.50966,1.54519 -1.29714,2.58373 -2.36169,3.11525 -1.06258,0.52411 -2.40768,0.42261 -4.03486,-0.30454 -1.74612,-0.77999 -2.84617,-1.8083 -3.30091,-3.08546 -0.45474,-1.27714 -0.37842,-2.83662 0.22942,-4.67947 l 3.64292,-11.04567 3.0184,1.34854 -3.79026,11.49205 c -0.29421,0.89244 -0.35322,1.63613 -0.17585,2.23127 0.18527,0.59072 0.68354,1.06708 1.4944,1.4294 0.75152,0.33591 1.37348,0.38507 1.86629,0.14628 0.49845,-0.23491 0.91737,-0.86758 1.25756,-1.89783 l 3.76871,-11.42668 2.23712,0.99941 -3.85125,11.67657 z" />
      <path
         id="path258"
         style="fill:#002577;fill-rule:evenodd"
         d="m 445.3056,338.52439 c -0.19528,1.85113 -0.84318,3.14802 -1.94323,3.8912 -1.09974,0.73523 -2.54605,0.97491 -4.33952,0.71832 -1.0257,-0.14628 -1.88314,-0.34383 -2.5726,-0.5909 -0.68932,-0.24726 -1.25178,-0.51566 -1.68756,-0.80522 l 0.31711,-3.00809 c 0.33018,0.32127 0.86685,0.65259 1.61018,0.99359 0.74394,0.33344 1.48713,0.55337 2.23001,0.65946 1.04451,0.14986 1.77965,0.0828 2.2057,-0.20143 0.43229,-0.28251 0.68962,-0.81701 0.77293,-1.60423 0.053,-0.50913 -0.0409,-0.98073 -0.28206,-1.41444 -0.24171,-0.43353 -0.99232,-1.06954 -2.25155,-1.90718 -1.00188,-0.67532 -1.74962,-1.45937 -2.24304,-2.35234 -0.49284,-0.90019 -0.6652,-2.05221 -0.51725,-3.45607 0.14111,-1.34218 0.72663,-2.40927 1.75552,-3.20143 1.03512,-0.79163 2.37687,-1.06937 4.02589,-0.83392 0.79903,0.11455 1.50791,0.298 2.12637,0.55089 0.62559,0.24603 1.0606,0.4494 1.30566,0.60942 l -0.28056,2.66092 c -0.52409,-0.23914 -1.04726,-0.45873 -1.5689,-0.65876 -0.52182,-0.19984 -1.08488,-0.34259 -1.68877,-0.4293 -0.85593,-0.12155 -1.48972,-0.0475 -1.90122,0.22118 -0.41164,0.27015 -0.64316,0.64817 -0.69446,1.13386 -0.0652,0.61717 0.0273,1.10409 0.27706,1.46062 0.2499,0.35687 1.03132,0.94248 2.34425,1.75632 1.22342,0.75445 2.0593,1.60969 2.50797,2.56646 0.45566,0.94971 0.61966,2.03019 0.49207,3.24107 z" />
      <polygon
         id="polygon260"
         style="fill:#002577;fill-rule:evenodd"
         transform="matrix(0.23723409,0,0,0.27554017,113.45186,-322.84472)"
         points="1461.62,2368.56 1461.62,2368.56 1448.47,2368.33 1447.53,2422.64 1433.9,2422.4 1434.85,2368.1 1421.38,2367.86 1421.55,2358.34 1461.79,2359.05 " />
      <polygon
         id="polygon262"
         style="fill:#002577;fill-rule:evenodd"
         transform="matrix(0.23723409,0,0,0.27554017,113.45186,-322.84472)"
         points="1506.56,2418.85 1493.03,2420.52 1485.28,2357.16 1498.8,2355.5 1506.56,2418.85 " />
      <path
         id="path264"
         style="fill:#002577;fill-rule:evenodd"
         d="m 487.0967,338.41478 c -0.1675,0.24655 -0.50952,0.54702 -1.02602,0.90159 -0.51498,0.3618 -1.1392,0.67321 -1.87251,0.93456 -1.84916,0.6584 -3.54232,0.49715 -5.07921,-0.48375 -1.53279,-0.99024 -2.6553,-2.84173 -3.36768,-5.55412 l -0.17874,-0.68007 c -0.66353,-2.52663 -0.60511,-4.76566 0.17509,-6.71742 0.78627,-1.95353 2.07372,-3.24849 3.86217,-3.88555 0.7699,-0.27387 1.42704,-0.44693 1.97192,-0.51918 0.54258,-0.0792 0.97973,-0.081 1.31171,0 l 0.70236,2.67519 c -0.30573,-0.0776 -0.70025,-0.10397 -1.18396,-0.0776 -0.47811,0.0247 -1.01675,0.1427 -1.617,0.35599 -1.11568,0.39706 -1.8493,1.23944 -2.20056,2.52611 -0.34565,1.28508 -0.27222,2.86376 0.21972,4.73657 l 0.0606,0.23421 c 0.5268,2.00658 1.20717,3.38559 2.04078,4.13704 0.83984,0.74934 1.766,0.9439 2.77851,0.5835 0.68491,-0.24391 1.24859,-0.53344 1.69073,-0.86987 0.44017,-0.3433 0.78325,-0.64008 1.0292,-0.89034 l 0.68203,2.5973 z" />
      <polygon
         id="polygon266"
         style="fill:#002577;fill-rule:evenodd"
         transform="matrix(0.23723409,0,0,0.27554017,113.45186,-322.84472)"
         points="1606.01,2356.09 1614.17,2372.15 1636.27,2360.86 1640.58,2369.34 1640.58,2369.34 1606.33,2386.83 1577.43,2329.96 1610.21,2313.21 1614.52,2321.69 1593.88,2332.24 1601.64,2347.5 1617.67,2339.31 1622.04,2347.9 " />
      <path
         id="path270"
         style="fill:#002577;fill-rule:evenodd"
         d="m 332.31587,403.52384 c 1.18821,2.49491 1.66525,4.60845 1.43219,6.3401 -0.22775,1.72902 -1.13161,3.10257 -2.71159,4.12206 l -4.59868,2.9674 -7.32696,-15.3859 4.12467,-2.66108 c 1.88496,-1.21635 3.54763,-1.42272 4.98863,-0.61946 1.44311,0.79304 2.70825,2.33135 3.79601,4.61531 l 0.29573,0.62157 z m -2.89246,1.73306 -0.19907,-0.41784 c -0.80266,-1.68547 -1.65478,-2.81988 -2.55546,-3.40304 -0.90083,-0.58244 -1.76145,-0.60922 -2.58217,-0.0792 l -1.05605,0.68149 5.14203,10.79788 1.29745,-0.83709 c 0.80373,-0.51865 1.23813,-1.26534 1.30307,-2.24043 0.0622,-0.98143 -0.38858,-2.48134 -1.3498,-4.50077 z" />
      <path
         id="path272"
         style="fill:#002577;fill-rule:evenodd"
         d="m 345.94818,396.9106 c 0.93087,2.55393 1.14527,4.74872 0.6435,6.58381 -0.50451,1.8284 -1.57088,3.14415 -3.19911,3.94917 -1.61078,0.7964 -3.1589,0.77243 -4.6445,-0.0722 -1.48818,-0.85138 -2.69126,-2.53633 -3.60924,-5.0545 l -0.33639,-0.92276 c -0.85531,-2.34615 -1.08897,-4.48913 -0.70084,-6.42891 0.39374,-1.94224 1.48954,-3.35774 3.28741,-4.24611 1.7566,-0.86812 3.35797,-0.77331 4.80458,0.2846 1.45222,1.05546 2.59794,2.73476 3.43808,5.03812 l 0.31651,0.86899 z m -3.07226,1.26534 -0.16038,-0.44005 c -0.72755,-1.996 -1.40746,-3.40744 -2.03972,-4.23485 -0.63227,-0.82723 -1.4765,-0.97984 -2.5327,-0.45767 -0.97473,0.48163 -1.46603,1.23115 -1.47423,2.24819 0,1.01421 0.39951,2.62637 1.20551,4.83701 l 0.14414,0.39704 c 0.81116,2.22475 1.51079,3.68184 2.09936,4.36985 0.58826,0.68853 1.402,0.77612 2.4409,0.26257 0.85182,-0.42101 1.30474,-1.17246 1.35815,-2.25416 0.0592,-1.08419 -0.28783,-2.6604 -1.04148,-4.72793 z" />
      <polygon
         id="polygon274"
         style="fill:#002577;fill-rule:evenodd"
         transform="matrix(0.23723409,0,0,0.27554017,113.45186,-322.84472)"
         points="1005.04,2637.51 983.259,2577.52 992.751,2574.06 1029.97,2609.95 1035.8,2558.35 1044.2,2555.28 1065.98,2615.27 1065.98,2615.27 1054.27,2619.54 1041.77,2585.12 1036.83,2625.91 1030.2,2628.33 1001.39,2599.85 1013.89,2634.28 " />
      <path
         id="path278"
         style="fill:#002577;fill-rule:evenodd"
         d="m 377.76506,227.28426 c -0.0152,0.36109 -0.14566,0.91851 -0.40998,1.6719 -0.2581,0.75886 -0.64501,1.56529 -1.15984,2.42002 -1.29882,2.15478 -2.93084,3.44866 -4.89622,3.8822 -1.9672,0.42119 -4.06064,-0.2707 -6.28062,-2.07601 l -0.55655,-0.45238 c -2.06764,-1.68162 -3.31275,-3.72061 -3.73517,-6.117 -0.41802,-2.40328 9.1e-4,-4.6467 1.25709,-6.73081 0.54077,-0.89702 1.03754,-1.60864 1.49091,-2.13506 0.44731,-0.53081 0.84363,-0.90336 1.19003,-1.1166 l 2.18949,1.78047 c -0.32289,0.19034 -0.69675,0.50227 -1.12145,0.93545 -0.42045,0.42682 -0.8412,0.9897 -1.26286,1.68899 -0.78354,1.30006 -0.96198,2.67097 -0.53516,4.11253 0.43107,1.43524 1.41293,2.77548 2.94557,4.02197 l 0.19163,0.15507 c 1.64219,1.33547 3.05982,1.98295 4.25319,1.94312 1.19746,-0.0475 2.15185,-0.66051 2.86317,-1.84004 0.48099,-0.79797 0.82527,-1.53408 1.03208,-2.20818 0.20104,-0.67849 0.34048,-1.23361 0.41908,-1.66485 l 2.12561,1.72847 z" />
      <path
         id="path280"
         style="fill:#002577;fill-rule:evenodd"
         d="m 385.96432,203.79719 c 1.90666,2.13839 2.92372,4.29846 3.05087,6.4788 0.12139,2.17505 -0.53698,4.12699 -1.97555,5.85792 -1.42339,1.71192 -3.07529,2.53861 -4.956,2.47904 -1.88587,-0.0652 -3.76871,-1.15237 -5.64912,-3.26098 l -0.68886,-0.77259 c -1.75174,-1.96463 -2.77016,-4.0602 -3.05602,-6.28654 -0.2804,-2.23231 0.37356,-4.30392 1.96219,-6.21445 1.55221,-1.86716 3.28635,-2.64928 5.20227,-2.34688 1.92092,0.29678 3.74124,1.40951 5.46111,3.33802 l 0.64911,0.72766 z m -2.80597,3.00262 -0.32865,-0.3685 c -1.49,-1.67138 -2.71933,-2.76224 -3.68798,-3.27332 -0.96866,-0.51089 -1.91971,-0.20513 -2.85331,0.91782 -0.86139,1.03588 -1.11326,2.08375 -0.75608,3.14379 0.36233,1.05368 1.36862,2.50602 3.01915,4.35715 l 0.29633,0.33254 c 1.66101,1.86295 2.92766,2.99049 3.79966,3.38099 0.87231,0.39089 1.76722,0.0335 2.6855,-1.07005 0.75274,-0.9053 0.96349,-1.93415 0.63105,-3.08618 -0.32683,-1.15819 -1.2621,-2.60311 -2.80567,-4.33424 z" />
      <polygon
         id="polygon282"
         style="fill:#002577;fill-rule:evenodd"
         transform="matrix(0.23723409,0,0,0.27554017,113.45186,-322.84472)"
         points="1177.66,1873.34 1203.82,1909.35 1194.63,1916.03 1152.99,1858.72 1159.9,1853.69 1211.85,1867.77 1187.21,1833.85 1196.4,1827.18 1238.04,1884.49 1238.04,1884.49 1232.49,1888.52 " />
      <path
         id="path284"
         style="fill:#002577;fill-rule:evenodd"
         d="m 421.87567,181.90941 c 0.7532,1.87562 0.77171,3.5544 0.0562,5.03634 -0.71906,1.474 -2.03699,2.73017 -3.95488,3.76906 -1.09702,0.59407 -2.05186,1.02091 -2.86499,1.28051 -0.81359,0.25975 -1.51095,0.40937 -2.09314,0.4485 l -1.22372,-3.0481 c 0.49343,0.0652 1.19762,0 2.11256,-0.21659 0.91176,-0.21783 1.76479,-0.54191 2.55911,-0.97209 1.11689,-0.60483 1.81486,-1.1922 2.09404,-1.76233 0.28587,-0.5731 0.26902,-1.25828 -0.0516,-2.05573 -0.20711,-0.51582 -0.54198,-0.89121 -1.00491,-1.12559 -0.46278,-0.23474 -1.53613,-0.29571 -3.21929,-0.18328 -1.34359,0.081 -2.48992,-0.12155 -3.43839,-0.60676 -0.95181,-0.49293 -1.71305,-1.45074 -2.28417,-2.87328 -0.54608,-1.3598 -0.50951,-2.77829 0.11076,-4.25583 0.62574,-1.4807 1.82033,-2.69862 3.58345,-3.65363 0.8544,-0.4626 1.65448,-0.79604 2.40009,-1.0001 0.7491,-0.21519 1.28668,-0.33503 1.6126,-0.3597 l 1.0826,2.69652 c -0.64485,0.14986 -1.27803,0.31652 -1.90028,0.50086 -0.62225,0.18486 -1.25619,0.45256 -1.90211,0.80184 -0.91525,0.49575 -1.50867,1.01704 -1.78072,1.56406 -0.27206,0.54685 -0.30908,1.06655 -0.11076,1.55894 0.25126,0.62545 0.59236,1.01616 1.02373,1.17247 0.43152,0.15685 1.50973,0.14807 3.23416,-0.0247 1.60486,-0.16566 2.87546,0.0405 3.81195,0.61858 0.94014,0.56658 1.65631,1.46308 2.14913,2.69018 z" />
      <polygon
         id="polygon286"
         style="fill:#002577;fill-rule:evenodd"
         transform="matrix(0.23723409,0,0,0.27554017,113.45186,-322.84472)"
         points="1361.37,1773.19 1361.37,1773.19 1346.5,1777.18 1362.1,1835.4 1346.68,1839.53 1331.08,1781.31 1315.85,1785.39 1313.11,1775.19 1358.64,1762.99 " />
      <rect
         id="rect288"
         style="fill:#002577;fill-rule:evenodd"
         transform="matrix(0.99671421,-0.08099862,0.06013186,0.99819044,0,0)"
         y="197.05421"
         x="435.81491"
         height="19.507164"
         width="3.7898579" />
      <polygon
         id="polygon290"
         style="fill:#002577;fill-rule:evenodd"
         transform="matrix(0.23723409,0,0,0.27554017,113.45186,-322.84472)"
         points="1504,1769.84 1504,1769.84 1488.64,1768.77 1484.43,1828.9 1468.51,1827.79 1472.71,1767.66 1456.98,1766.56 1457.72,1756.02 1504.73,1759.31 " />
      <path
         id="path292"
         style="fill:#002577;fill-rule:evenodd"
         d="m 488.63662,181.52945 c -0.46234,1.7565 -1.29018,2.96826 -2.48263,3.63601 -1.19079,0.65927 -2.76242,0.64219 -4.7149,-0.0511 -2.09467,-0.74387 -3.4595,-1.81026 -4.09554,-3.19914 -0.63575,-1.38905 -0.67824,-3.13074 -0.12596,-5.22561 l 3.30487,-12.55525 3.62092,1.28578 -3.43839,13.06227 c -0.2669,1.01439 -0.27282,1.84672 -0.0167,2.4965 0.26506,0.64448 0.88414,1.13897 1.85689,1.48422 0.90174,0.32021 1.62854,0.33079 2.18129,0.0299 0.55941,-0.29729 0.99307,-1.03113 1.30169,-2.20237 l 3.41882,-12.98825 2.68383,0.95324 -3.49346,13.27303 z" />
      <polygon
         id="polygon294"
         style="fill:#002577;fill-rule:evenodd"
         transform="matrix(0.23723409,0,0,0.27554017,113.45186,-322.84472)"
         points="1670.47,1826.05 1670.47,1826.05 1656.75,1819.06 1629.39,1872.77 1615.17,1865.52 1642.53,1811.81 1628.48,1804.65 1633.27,1795.24 1675.27,1816.64 " />
      <rect
         id="rect296"
         style="fill:#002577;fill-rule:evenodd"
         transform="matrix(0.76423646,0.64493615,-0.53034409,0.84778249,0,0)"
         y="-196.26073"
         x="542.95367"
         height="18.626076"
         width="4.0082784" />
      <path
         id="path298"
         style="fill:#002577;fill-rule:evenodd"
         d="m 533.76899,212.33649 c -1.87419,2.17663 -3.75141,3.32018 -5.6306,3.4298 -1.87435,0.10397 -3.54324,-0.6954 -5.0085,-2.39638 -1.4489,-1.68284 -2.13152,-3.61557 -2.04746,-5.79873 0.0895,-2.1888 1.05756,-4.35645 2.9058,-6.50294 l 0.67718,-0.7867 c 1.72184,-1.99987 3.54353,-3.14609 5.46506,-3.43898 1.92653,-0.28691 3.69845,0.50896 5.31545,2.38724 1.58029,1.83544 2.22319,3.86282 1.92942,6.08227 -0.28888,2.22563 -1.27863,4.31997 -2.96877,6.28372 l -0.63758,0.7407 z m -2.53559,-3.31122 0.32289,-0.37502 c 1.46466,-1.70116 2.42544,-3.10979 2.88215,-4.22568 0.4567,-1.1159 0.20998,-2.22546 -0.74016,-3.32937 -0.87684,-1.01844 -1.7745,-1.32914 -2.69309,-0.93262 -0.91355,0.40251 -2.18143,1.54573 -3.80359,3.42982 l -0.29163,0.33836 c -1.63279,1.89626 -2.62511,3.34752 -2.97651,4.3538 -0.35187,1.00612 -0.0606,2.0517 0.87428,3.13729 0.76624,0.89013 1.64825,1.15236 2.64573,0.78669 1.00234,-0.35987 2.26233,-1.42096 3.77993,-3.18327 z" />
      <polygon
         id="polygon300"
         style="fill:#002577;fill-rule:evenodd"
         transform="matrix(0.23723409,0,0,0.27554017,113.45186,-322.84472)"
         points="1810.12,1969.8 1774.12,1995.95 1767.44,1986.77 1824.75,1945.13 1829.77,1952.04 1815.7,2003.99 1849.61,1979.35 1856.29,1988.54 1798.98,2030.17 1798.98,2030.17 1794.95,2024.63 " />
      <path
         id="path306"
         style="fill:#ff6600;fill-rule:evenodd;stroke:#fab700;stroke-width:0.41758695;stroke-miterlimit:3.86369991"
         d="m 510.36776,372.24592 c 0,0 0.92662,-1.18322 1.22719,-0.31967 0.30058,0.86353 0.36432,1.59982 0.10765,1.9225 -0.25719,0.32251 -0.2267,0.5264 -0.59086,1.06797 -0.36385,0.54139 -0.20256,0.85084 -0.55381,1.11114 -0.35141,0.26047 -0.51271,0.1427 -0.89992,0.11992 l -0.15752,1.34271 -0.25186,1.12241 0.14553,1.07943 0.66048,1.71666 -0.50358,-1.28649 0.70507,1.4037 c 0.5338,1.63524 5.6077,3.27808 7.44608,4.23325 3.82683,1.98842 3.22824,11.43972 3.63124,12.37534 0.40285,0.93577 2.01393,13.45085 2.01393,15.55629 0,2.10526 -2.01393,13.45069 -2.21527,15.78998 -0.10007,1.1656 -0.35095,3.95764 -0.60162,6.78422 -0.05,0.55847 -0.73999,-0.17624 -0.95819,0.32673 -0.28919,0.66616 -0.24717,2.58321 -0.17873,3.21746 -0.1198,1.37989 -0.45822,2.45279 -0.51301,3.15437 -0.2015,2.57331 -2.24306,2.81351 -2.24306,2.81351 0,0 -0.0728,8.80083 -0.47552,10.90592 -0.40283,2.10544 -0.67672,2.50637 -0.0728,8.35461 0.60419,5.84843 -0.80568,13.09999 -0.80568,13.09999 0,0 -2.07979,10.66184 -2.48265,12.29938 -0.40285,1.63754 0.26721,3.14008 0.46856,4.30937 0.20133,1.16965 0.20133,3.04124 0.20133,3.04124 l -17.70874,0 c -0.45033,0 0.31107,-1.85025 0.90615,-3.15808 0.27571,-0.60553 1.10764,-1.52035 2.31619,-1.75438 1.20853,-0.23386 1.30898,-1.75437 2.01408,-3.62576 0.70479,-1.87141 0.40285,-5.84808 -0.20134,-8.30457 -0.60421,-2.45632 -1.40989,-8.42123 -1.40989,-10.52667 0,-2.10543 -0.99947,-6.90087 -2.0065,-10.17596 -1.00704,-3.27473 -1.51049,-10.40964 -1.51049,-11.11139 0,-0.30611 -0.11522,-0.70124 -0.32834,-1.32156 -0.27571,-0.80132 -0.32,-1.97873 -0.88748,-3.8251 -1.00706,-3.27473 -0.91388,-7.25156 -1.01448,-10.6435 -0.10007,-3.39192 -1.20839,-7.13492 -1.71866,-7.96426 l -0.31151,-1.46535 -3.10594,1.12505 -3.00261,2.73088 c -0.66126,0.69418 -1.38213,0.80979 -2.59628,0.9358 -2.35077,0.24391 -4.70124,-2.96016 -5.25294,-7.59117 -0.60935,-5.119 0.26127,-7.31273 5.16584,-7.29511 l 2.17947,0 1.89407,0.074 0.91645,0 c 0,0 0.54987,1.24631 -0.30558,1.68618 -0.85517,0.4397 -1.0996,0.51301 -1.0996,0.51301 l 1.09444,1.45532 c -0.0213,0 0.59283,-0.47882 2.41693,-1.63753 l 0.6796,-1.84215 c 0.05,-1.16965 0.1258,-1.43294 -0.0758,-2.71944 -0.20135,-1.28649 -0.59238,-8.6831 -0.59238,-10.43731 0,-1.75436 0.044,-3.83003 0.19756,-5.85529 0.13953,-1.84231 0.11823,-5.94816 0.88961,-7.69233 0.95666,-2.16375 6.12858,-3.09973 6.12858,-3.09973 0,0 2.2382,-0.2846 2.5403,-0.98672 0.11222,-0.26152 0.67489,-1.38359 0.91402,-1.8217 -1.43947,-0.59337 -1.91182,-2.64876 -2.12256,-3.14908 -0.21911,-0.52042 -0.60421,-2.92421 -0.65457,-3.15789 -0.0743,-0.34525 -0.52515,-2.51801 -0.77762,-3.37854 -0.25217,-0.86036 -0.0379,-2.42847 -0.0379,-2.42847 l -1.63811,-0.20919 -1.98114,-0.17693 c 0,0 -1.10766,-0.18011 -1.39275,-0.30999 -0.28526,-0.1305 -1.24528,-0.35759 -1.24528,-0.35759 0,0 -1.57375,-1.56563 -0.0158,-2.82287 1.56071,-1.25741 3.39542,-2.42283 3.69586,-2.63008 0.30028,-0.20724 0.42061,-0.55161 0.42061,-0.55161 l -0.0273,-0.45256 c -0.35932,-0.64165 -0.70829,-1.50818 -1.15681,-3.39491 -0.44837,-1.88656 3.81454,-2.67397 3.81454,-2.67397 1.23312,-0.12334 5.36779,0.51266 4.9422,0.40356 0.86334,0.22154 1.42793,0.18576 3.07786,0.17448 1.64992,-0.0176 3.80178,0.68219 5.00122,0.98072 1.19944,0.29837 2.42239,1.58786 3.0413,2.92176 0.61892,1.33353 3.12477,3.02078 3.86354,3.85453 1.11765,1.26163 2.4459,3.90547 2.9571,4.87104 0.89417,1.68847 -0.0698,1.28544 -0.37054,1.49251 -1.39728,0.96327 -9.17777,-1.07449 -8.49954,-0.97669 0.55703,0.081 0.42622,-0.14986 -0.17554,-0.5271 l 0,0.63725 -0.45308,1.98825 -0.4913,0.66227 z" />
      <path
         id="path314"
         style="fill:none;stroke:#002577;stroke-width:1.04398024;stroke-miterlimit:3.86369991"
         d="m 502.09868,396.65734 c 0.24701,-4.79103 0.58568,-8.73984 1.20841,-11.8135 0.20149,-0.99412 0,-1.46202 0,-1.46202 -1.0723,-0.0299 -1.79393,-0.12334 -2.90371,-1.61498" />
      <path
         id="path316"
         style="fill:none;stroke:#002577;stroke-width:1.25276089;stroke-miterlimit:3.86369991"
         d="m 495.30475,448.90221 0.23702,-1.98524 c 0,0 0.52969,-1.13493 0.32835,-3.3572 -0.20135,-2.22209 0,-8.42122 0.50358,-11.5793 0.4766,-2.99011 4.51675,-12.28104 4.9196,-14.73754 0.34746,-2.11865 0.40283,-9.24016 0.40283,-9.82489 0,-0.19404 -0.19951,-0.87042 -0.10165,-3.50895" />
      <path
         sodipodi:nodetypes="cccccc"
         id="path3164"
         d="m 509.7144,425.33056 -11.26652,0.14986 c -3.4824,7.77586 -3.02932,22.80223 -2.0335,30.73582 6.42309,1.47277 15.15312,1.05422 20.08332,-0.30999 l 0.27434,-10.09171 c -0.99553,-11.39901 -3.61941,-13.02597 -7.05764,-20.48463 z"
         style="fill:#ffffff;stroke:none" />
      <path
         id="path320"
         style="fill:none"
         d="m 491.92115,424.48394 c 0.51028,0.82934 1.6179,4.57232 1.71865,7.96408 0.10007,3.39194 -0.38782,7.36895 0.61922,10.64368 0.56778,1.84638 1.00735,3.02342 1.28305,3.82509 0.21317,0.61981 1.11902,1.01528 1.11902,1.32138 0,0.70176 0.5033,7.83667 1.51049,11.11141 1.00704,3.27509 1.61122,8.07069 1.61122,10.17595 0,2.10544 0.80571,8.07071 1.40991,10.52685 0.60418,2.45613 0.90627,6.43298 0.20134,8.30455 -0.70494,1.87141 -0.90266,3.02731 -2.0141,3.62578 -0.85455,0.46014 -1.2706,0.65823 -1.94168,1.60811 -0.80783,1.14375 -1.73111,3.30417 -1.28094,3.30417 l 16.91822,0 c 0,0 0,-1.87141 -0.2015,-3.04106 -0.20135,-1.16964 -1.40988,-2.80716 -1.00704,-4.44472 0.40285,-1.63753 3.02113,-12.16439 3.02113,-12.16439 0,0 1.40987,-7.25156 0.8057,-13.09998 -0.6042,-5.84825 -0.8057,-5.84825 -0.40285,-7.95351 0.40285,-2.10526 0.84028,-10.50129 0.84028,-10.50129 0,0 3.15951,-0.98583 3.361,-3.55916 0.20136,-2.57333 1.43811,-11.20373 1.63946,-13.54303 0.20134,-2.33947 2.21529,-13.68474 2.21529,-15.79018 0,-2.10544 -1.61124,-14.6205 -2.01395,-15.55611 -0.40269,-0.93579 0,-8.18738 -3.82681,-10.17579 -1.83853,-0.95518 -6.7167,-4.79772 -7.25049,-6.43298 l -0.70509,-1.40368" />
      <path
         id="path322"
         style="fill:none;stroke:#002577;stroke-width:1.38591433;stroke-linejoin:round;stroke-miterlimit:3.86369991"
         d="m 500.59609,380.56617 -0.91419,1.82064 c 0,0 -7.7122,1.9234 -8.66887,4.08718 -0.77109,1.74416 -1.08731,11.79305 -1.08731,13.54742 0,1.7544 0.39071,9.15101 0.59237,10.4375 0.20151,1.28648 0.12596,1.54959 0.0758,2.71924" />
      <path
         id="path326"
         style="fill:none;stroke:#002577;stroke-width:1.25276089;stroke-miterlimit:3.86369991"
         d="m 505.01922,409.87416 c 0.10007,0.9358 -0.10765,6.92855 2.01423,10.76071 0.90643,1.63754 4.8677,10.55645 5.74001,11.69648 0.52194,0.68185 1.86402,0.94689 2.20223,1.87528 1.74961,4.80267 -0.0986,9.52902 2.37246,10.21791 l 0.69189,2.75536" />
      <path
         id="path328"
         style="fill:none;stroke:#002577;stroke-width:1.04398024;stroke-miterlimit:3.86369991"
         d="m 510.52737,380.47629 c -0.42045,0.67585 -3.23477,2.64048 -4.89287,2.64048 -0.60436,0 -0.24733,1.43506 -0.51469,3.13076 -0.28162,1.78592 -0.30194,11.93034 -0.10007,13.217 0.0819,0.52253 -0.0773,0.78915 -0.10007,2.45613" />
      <path
         id="path330"
         style="fill:none;stroke:#002577;stroke-width:1.25276089;stroke-linecap:round;stroke-linejoin:round;stroke-miterlimit:3.86369991"
         d="m 513.1549,393.01834 1.02829,4.69164 1.40989,8.65524 0.50329,5.26334 0.10165,4.67842 -0.10165,3.97683 -0.40269,2.8072 -0.50345,2.57333 -0.90644,8.42122 c 2.92022,-0.81859 4.8416,-0.0229 6.24344,1.28649" />
      <path
         id="path332"
         style="fill:none;stroke:#002577;stroke-width:1.25276089;stroke-miterlimit:3.86369991"
         d="m 493.87939,384.40768 0.1977,0.80378 c -0.27477,-1.76302 4.59763,23.25938 21.21374,34.95586 l 0.80554,0.58527" />
      <path
         id="path334"
         style="fill:none;stroke:#002577;stroke-width:1.25276089;stroke-miterlimit:3.86369991"
         d="m 497.14147,383.37442 c 1.74506,6.44215 6.97009,22.54352 18.90467,30.94448 l 0.15169,1.16965" />
      <path
         id="path336"
         style="fill:none;stroke:#002577;stroke-width:1.25276089;stroke-miterlimit:3.86369991"
         d="m 499.6543,421.69314 c 3.0642,0.74598 5.04096,0.74546 7.80869,-0.11634" />
      <path
         id="path338"
         style="fill:none;stroke:#002577;stroke-width:1.25276089;stroke-miterlimit:3.86369991"
         d="m 503.8137,438.87449 c 0.6033,4.86028 1.34845,10.66674 1.57666,11.59407 0.40283,1.63755 0.80568,9.82509 0.80568,9.82509 l 0.20135,7.95333 0.2015,10.05894 0,9.12316 0,2.57333 c -1.65401,1.34377 -2.52239,3.34943 -2.60537,6.01652" />
      <path
         id="path340"
         style="fill:none;stroke:#002577;stroke-width:1.15491569;stroke-linejoin:round;stroke-miterlimit:3.86369991"
         d="m 487.88358,414.89254 c -1.02784,1.79527 -6.10309,-1.61269 -6.36028,3.47352 -0.19756,3.90882 0.45381,8.32606 3.70832,8.81159 l 2.39507,-1.84022 0.64123,-0.74634" />
      <path
         id="path342"
         style="fill:#fab700;fill-rule:evenodd"
         d="m 484.86427,412.80807 c -1.39563,-25.39089 -0.74668,-47.63554 2.87864,-64.47851 -9.76194,16.4616 -5.74698,64.49613 -5.74698,64.49613 l 2.86834,-0.0176 z" />
      <path
         id="path344"
         style="fill:none;stroke:#002577;stroke-width:1.38591433;stroke-linejoin:round;stroke-miterlimit:3.86369991"
         d="m 490.61869,412.79821 -0.70479,2.22227 c -1.82413,1.15855 -2.38902,1.21988 -2.36853,1.21846" />
      <path
         id="path346"
         style="fill:none;stroke:#002577;stroke-width:1.15491569;stroke-linejoin:round;stroke-miterlimit:3.86369991"
         d="m 487.30139,415.69033 c 0,0 1.78997,5.52558 0.325,9.64692" />
      <path
         id="path348"
         style="fill:none;stroke:#002577;stroke-width:0.89183056;stroke-linejoin:round;stroke-miterlimit:3.86369991"
         d="m 484.91344,412.95276 1.9778,0.0511 0.91647,0 c 0,0 0.54986,1.2463 -0.3056,1.68601 -0.85515,0.43969 -1.43978,0.43017 -1.43978,0.43017" />
      <path
         id="path350"
         style="fill:none;stroke:#002577;stroke-width:0.89183056;stroke-miterlimit:3.86369991"
         d="m 485.50125,426.8747 c -0.66112,0.69418 -1.38213,0.80979 -2.59628,0.9358 -2.35063,0.24389 -4.70125,-2.96018 -5.25279,-7.59119 -0.60952,-5.119 -0.0227,-7.24911 4.34407,-7.39326" />
      <path
         id="path352"
         style="fill:none;stroke:#002577;stroke-width:0.89183056;stroke-miterlimit:3.86369991"
         d="m 486.26065,415.07247 -3.13401,0 c 0,0 -1.66692,0.5153 -1.74127,2.0894 -0.11838,2.50725 -0.15768,6.05198 0.77094,7.4449 l 0.92876,1.11431" />
      <path
         id="path354"
         style="fill:none;stroke:#002577;stroke-width:1.04398024;stroke-miterlimit:3.86369991"
         d="m 497.01007,366.18269 0.27176,1.89431 -0.38615,0.81278 -1.69441,-0.13049 -1.98509,-0.0758 c 0,0 -1.11312,-0.12334 -1.40306,-0.23916 -0.28982,-0.11634 -1.2571,-0.29412 -1.2571,-0.29412 0,0 -1.43644,-2.20836 0.0744,-3.54349 1.51138,-1.3346 3.06846,-2.27532 3.36101,-2.49738 0.29222,-0.22206 0.43712,-0.16388 0.43712,-0.16388" />
      <line
         style="fill:none;stroke:#002577;stroke-width:0.41758695;stroke-miterlimit:3.86369991"
         id="line356"
         y2="368.73605"
         x2="496.99237"
         y1="366.59515"
         x1="496.99237"
         stroke-miterlimit="3.8637"
         clip-rule="evenodd" />
      <path
         id="path358"
         style="fill:none;stroke:#002577;stroke-width:0.8351739;stroke-miterlimit:3.86369991"
         d="m 497.25981,368.18908 c 0,0 -0.47066,1.8307 -0.21849,2.69124 0.25217,0.86053 0.70345,3.03347 0.77763,3.37835 0.05,0.23403 0.43564,2.63783 0.65457,3.15808 0.21894,0.5204 0.72118,2.72259 2.29994,3.21322 1.57878,0.4908 3.34083,0.14629 4.34635,-0.63708" />
      <path
         id="path360"
         style="fill:none;stroke:#002577;stroke-width:0.62639326;stroke-miterlimit:3.86369991"
         d="m 500.3157,376.34595 c 0,0 0.76835,-0.3255 1.02934,-0.19684 0.26098,0.12871 1.00826,0.23051 1.00826,0.23051 0,0 0.93057,-0.19704 1.24116,-0.0934 0.31075,0.10397 0.80585,0.10576 0.95241,0.0864" />
      <path
         id="path362"
         style="fill:none;stroke:#002577;stroke-width:0.62639326;stroke-miterlimit:3.86369991"
         d="m 500.99105,377.5045 c 0,0 1.83397,0.41556 2.60295,0.0405" />
      <path
         id="path364"
         style="fill:none;stroke:#002577;stroke-width:0.62639326;stroke-miterlimit:3.86369991"
         d="m 503.53331,368.36267 c 0,0 1.65419,-0.78987 3.10169,0.45326" />
      <path
         id="path366"
         style="fill:none;stroke:#002577;stroke-width:0.50106347;stroke-miterlimit:3.86369991"
         d="m 501.42925,368.24564 c 0.12738,0.40217 -0.1198,1.57058 -0.33456,2.03619 -0.21486,0.4656 -0.27737,1.30711 -0.41469,1.66504 -0.13796,0.35792 -0.31045,0.96715 -0.30148,1.30587 0.0158,0.33855 0.0158,0.31053 0.45852,0.59126 0.44837,0.28074 0.76444,0.0387 1.10931,-0.081 0.34519,-0.11992 0.65153,-0.23387 0.96198,-0.1305 0.31074,0.10398 0.76017,-0.17905 0.75258,-0.5458 -0.0158,-0.36672 -0.10465,-0.90793 -0.31346,-1.11782 -0.20878,-0.21008 -0.65442,-0.54703 -0.65442,-0.54703" />
      <path
         id="path368"
         style="fill:none;stroke:#002577;stroke-width:0.62639326;stroke-miterlimit:3.86369991"
         d="m 498.33832,368.48003 c 0.25006,-0.0423 1.83778,-1.07625 3.15631,-0.0176" />
      <ellipse
         sodipodi:ry="1.136"
         sodipodi:rx="4.5739999"
         sodipodi:cy="2513.3931"
         sodipodi:cx="1628.149"
         id="ellipse372"
         style="fill:#002577;stroke:#002577;stroke-width:1.63329995;stroke-miterlimit:3.86369991"
         transform="matrix(-0.23718664,-0.00482196,0.00415161,-0.27548506,875.45719,1069.9832)"
         ry="1.136"
         rx="4.5739999"
         cy="2513.3931"
         cx="1628.149"
         d="m 1632.723,2513.3931 c 0,0.6274 -2.0478,1.136 -4.574,1.136 -2.5261,0 -4.574,-0.5086 -4.574,-1.136 0,-0.6274 2.0479,-1.136 4.574,-1.136 2.5262,0 4.574,0.5086 4.574,1.136 z" />
      <path
         id="path376"
         style="fill:none;stroke:#002577;stroke-width:0.8351739;stroke-miterlimit:3.86369991"
         d="m 500.59609,380.56617 c 0.0576,0.023 0.1168,0.0459 0.17737,0.0635 1.57878,0.49046 3.34083,0.14628 4.34635,-0.63708" />
      <path
         id="path378"
         style="fill:none;stroke:#002577;stroke-width:0.83479047;stroke-miterlimit:3.86369991"
         d="m 496.7101,354.87971 c 0,0 -4.12755,1.42097 -3.6088,3.2825 0.51894,1.86189 0.90009,2.70939 1.28275,3.33201 0.38296,0.62281 1.13951,3.04951 1.37665,3.72713 0.23732,0.67725 0.0941,1.91052 1.05546,1.36085 5.46262,-3.12212 17.22106,2.28079 14.6917,2.04535 -0.68128,-0.0635 7.61191,1.92725 8.97128,0.89455 0.29222,-0.22206 0.87685,-0.66616 -0.0789,-2.30723 -0.54687,-0.93861 -2.21013,-3.3988 -3.37376,-4.60246 -0.76914,-0.79551 -3.00125,-2.4928 -3.66979,-3.79356 -0.66821,-1.30059 -2.27216,-2.38742 -3.48116,-2.62462 -1.20915,-0.23721 -3.38438,-0.82194 -5.03188,-0.72607 -1.64766,0.0952 -2.13046,-0.0775 -3.0011,-0.25537 0.42865,0.0882 -3.90482,-0.51794 -5.13186,-0.33308 z" />
      <path
         id="path380"
         style="fill:none;stroke:#002577;stroke-width:1.25281227;stroke-miterlimit:3.86369991"
         d="m 505.04378,456.22147 c 0,0 4.34925,3.09921 9.48946,-0.11635 4.78894,-2.99487 0.88959,-0.57433 0.88959,-0.57433" />
      <path
         id="path382"
         style="fill:none;stroke:#002577;stroke-width:1.25281227;stroke-miterlimit:3.86369991"
         d="m 496.39176,456.5942 c 0,0 4.81353,2.64382 9.75573,-0.34136" />
      <ellipse
         sodipodi:ry="1.1950001"
         sodipodi:rx="4.8080001"
         sodipodi:cy="2514.073"
         sodipodi:cx="1650.4139"
         id="ellipse386"
         style="fill:#002577;stroke:#002577;stroke-width:1.63329995;stroke-miterlimit:3.86369991"
         transform="matrix(-0.23592928,-0.02882149,0.02481468,-0.27402469,831.9793,1106.382)"
         ry="1.1950001"
         rx="4.8080001"
         cy="2514.073"
         cx="1650.4139"
         d="m 1655.2219,2514.073 c 0,0.66 -2.1526,1.195 -4.808,1.195 -2.6553,0 -4.808,-0.535 -4.808,-1.195 0,-0.66 2.1527,-1.195 4.808,-1.195 2.6554,0 4.808,0.535 4.808,1.195 z" />
      <path
         id="path390"
         style="fill:none;stroke:#002577;stroke-width:1.25276089;stroke-miterlimit:3.86369991"
         d="m 498.66593,424.9076 c 2.91611,1.26253 7.41359,0.91817 10.23047,-0.11455" />
      <rect
         id="rect394"
         style="fill:#fab700;fill-rule:evenodd;stroke:#002577;stroke-width:0.17398392;stroke-miterlimit:3.86369991"
         y="491.27676"
         x="535.68805"
         height="6.2668853"
         width="39.984146" />
      <g
         id="g6296"
         transform="matrix(1.3856544,0,0,0.75319264,817.12187,694.08288)"
         style="fill:#fab700;fill-opacity:1;stroke:#002577;stroke-opacity:1">
        <path
           style="fill:#fab700;fill-opacity:1;stroke:#002577;stroke-width:0.14402907px;stroke-linecap:butt;stroke-linejoin:miter;stroke-opacity:1"
           d="m -341.13311,-226.79958 c 16.6189,23.23253 18.3312,28.08263 18.3312,28.08263 l 123.3954,-0.4076 20.77363,-27.3084 -162.44983,-0.4076 4.6962,6.7849"
           id="path8425"
           sodipodi:nodetypes="cccccc" />
      </g>
    </g>
  </g>
</svg>
