<?xml version="1.0" encoding="UTF-8" standalone="no"?>
<!-- Created with Inkscape (http://www.inkscape.org/) -->
<svg
   xmlns:dc="http://purl.org/dc/elements/1.1/"
   xmlns:cc="http://web.resource.org/cc/"
   xmlns:rdf="http://www.w3.org/1999/02/22-rdf-syntax-ns#"
   xmlns:svg="http://www.w3.org/2000/svg"
   xmlns="http://www.w3.org/2000/svg"
   xmlns:sodipodi="http://sodipodi.sourceforge.net/DTD/sodipodi-0.dtd"
   xmlns:inkscape="http://www.inkscape.org/namespaces/inkscape"
   id="icu_flag"
   sodipodi:version="0.32"
   inkscape:version="0.44.1"
   width="600"
   height="400"
   version="1.0"
   sodipodi:docbase="E:\Documents and Settings\James Dahl\Desktop"
   sodipodi:docname="icu_flag.svg">
  <metadata
     id="icu_flag metadata">
    <rdf:RDF>
      <cc:Work
         rdf:about="">
        <dc:format>image/svg+xml</dc:format>
        <dc:type
           rdf:resource="http://purl.org/dc/dcmitype/StillImage" />
      </cc:Work>
    </rdf:RDF>
  </metadata>
  <defs
     id="icu_flag defs" />
  <sodipodi:namedview
     inkscape:window-height="977"
     inkscape:window-width="1280"
     inkscape:pageshadow="2"
     inkscape:pageopacity="0.0"
     guidetolerance="10.0"
     gridtolerance="10.0"
     objecttolerance="10.0"
     borderopacity="1.0"
     bordercolor="#666666"
     pagecolor="#ffffff"
     id="base"
     inkscape:zoom="1"
     inkscape:cx="272.91406"
     inkscape:cy="203.85075"
     inkscape:window-x="-4"
     inkscape:window-y="-4"
     inkscape:current-layer="icu_flag" />
  <rect
     style="fill:black;fill-opacity:1"
     id="Black Field"
     width="600"
     height="400"
     x="0"
     y="0" />
  <path
     style="fill:white"
     d="M 416.14745,275.75 C 423.32769,270.97936 427.26126,267.71462 427.64977,266.20343 C 428.59104,262.54218 427.26821,262.42418 423.24546,265.81056 C 421.18546,267.5447 418.15,269.6481 416.5,270.4848 C 408.40654,274.58893 400.03555,283 404.04445,283 C 404.69955,283 410.1459,279.7375 416.14745,275.75 z M 286.11842,276.75 C 286.18355,274.4125 286.18803,272.17594 286.12837,271.77986 C 286.06872,271.38378 286.91543,270.58045 288.00995,269.99467 C 290.43037,268.6993 290.58893,265.30824 288.34501,262.82874 C 284.83934,258.95501 281.99604,261.80552 282.00558,269.18426 C 282.01227,274.36152 283.72104,281 285.047,281 C 285.57115,281 286.05329,279.0875 286.11842,276.75 z M 86,276.00608 C 86,271.43917 87.707648,268 89.975249,268 C 92.26478,268 92.568587,266.96859 90.8,265.2 C 88.783192,263.18319 86.948066,263.85053 85.850155,267 C 84.569436,270.67387 83.675274,270.77748 82.149511,267.4288 C 80.612381,264.05516 77.610416,264.56014 77.183029,268.26424 C 76.973541,270.07983 77.411854,271.22081 78.475626,271.62902 C 79.360888,271.96873 80.983279,274.00706 82.08094,276.15865 C 84.290376,280.48951 86,280.42295 86,276.00608 z M 180.76357,279.11667 C 181.71861,278.63084 183.8437,277.61834 185.48601,276.86667 C 189.47785,275.03964 191.20578,273.60837 198.30324,266.25 C 202.22784,262.18113 205.12562,260 206.6068,260 C 207.85814,260 209.17724,259.52224 209.53812,258.93832 C 209.89901,258.35439 211.27557,257.46553 212.59714,256.96307 C 214.50702,256.23693 215,255.32635 215,252.52475 C 215,249.12327 213.78949,247.91355 212.48992,250.01631 C 212.14446,250.57528 211.49212,250.80415 211.04029,250.5249 C 210.58845,250.24565 209.48417,251.13831 208.58633,252.50859 C 207.68849,253.87886 206.21922,255 205.32129,255 C 204.42335,255 199.29544,259.26301 193.92593,264.47336 C 188.55641,269.68371 182.10146,274.94838 179.58159,276.17262 C 177.06171,277.39687 175,278.75886 175,279.19927 C 175,280.27034 178.59703,280.2188 180.76357,279.11667 z M 389.09143,276.82917 C 390.03747,275.06148 389.95114,274.43744 388.62661,273.46892 C 387.71605,272.8031 386.96449,270.78731 386.91933,268.88976 C 386.84484,265.75936 386.72038,265.9013 385.29267,270.74492 C 384.04941,274.96281 383.99127,276.28456 384.99578,277.49492 C 386.7029,279.55186 387.72303,279.38604 389.09143,276.82917 z M 142.42856,275.63191 C 143.25928,274.27582 143.10683,273.59041 141.75,272.58119 C 140.72249,271.81691 139.9667,269.88005 139.91933,267.88976 C 139.84484,264.75936 139.72038,264.9013 138.29267,269.74492 C 137.03234,274.02072 136.98259,275.2741 138.02343,276.52823 C 139.52701,278.33994 140.9466,278.05109 142.42856,275.63191 z M 446.92742,275.36514 C 448.06734,273.91597 449,272.17459 449,271.49541 C 449,269.39117 452.73877,258.43237 454.90594,254.18437 C 456.03923,251.96295 457.8956,249.85052 459.03122,249.49009 C 461.22299,248.79445 464,250.44449 464,252.44245 C 464,253.1011 465.61007,255.521 467.57792,257.82 C 470.90191,261.70334 471.51454,262 476.20989,262 C 481.28875,262 487.00211,259.4798 489.71763,256.04165 C 493.08128,251.78289 494.45827,243.62128 494.27997,229 C 494.18272,221.025 493.69168,211.125 493.18877,207 C 492.68585,202.875 492.40686,199.34328 492.56879,199.15173 C 493.33843,198.24131 498.20818,203.10124 501.93596,208.5 C 504.21458,211.8 506.95926,215.625 508.03526,217 C 509.74231,219.1814 510.07611,221.76704 510.65452,237.28907 C 511.01911,247.07305 511.645,255.2806 512.0454,255.52806 C 513.82869,256.6302 515.20322,252.38171 516.15663,242.82075 C 516.72268,237.14434 517.37365,232.30785 517.60323,232.073 C 518.34152,231.31779 520.54569,235.02787 522.94006,241.05602 C 524.99048,246.21821 525.11802,247.30086 523.9951,250.01182 C 522.78334,252.93729 509.50979,266 507.74888,266 C 505.71918,266 495,274.6727 495,276.3149 C 495,279.07718 514.85752,272.94201 519.71171,268.67998 C 524.34558,264.61138 529.25685,254.30122 530.99172,245 C 532.77495,235.4395 532.54751,214.29607 530.43053,192.83074 C 527.41643,162.26888 527.45998,165 529.9868,165 C 531.50648,165 532.03978,164.54606 531.66562,163.57101 C 531.36403,162.78507 530.83333,160.6285 530.4863,158.77864 C 529.51629,153.60808 524.38623,139.62874 523.3295,139.2765 C 522.81252,139.10417 521.6221,141.55896 520.68412,144.73159 C 519.39525,149.0911 519.21502,151.35486 519.9462,154 C 520.47831,155.925 521.39435,164.925 521.98183,174 C 522.56931,183.075 523.48489,195.45 524.01644,201.5 C 525.17887,214.73053 525.27392,224 524.24716,224 C 523.8331,224 521.79655,221.28397 519.72149,217.96437 C 516.12349,212.20841 515.90458,211.36275 514.99729,199.71437 C 514.47403,192.99647 513.35132,181.95951 512.50237,175.18781 C 511.65343,168.4161 511.20751,162.47326 511.51144,161.98148 C 511.81538,161.48971 512.7475,161.34961 513.58282,161.67016 C 514.80865,162.14055 514.97153,161.69814 514.42729,159.37648 C 512.4194,150.81107 506.86351,136.65171 505.07733,135.54779 C 504.56696,135.23237 503.44078,137.41184 502.57469,140.39105 C 500.76753,146.60747 500.60611,149.20315 501.94291,150.55 C 502.46151,151.0725 503.55995,158.25 504.38389,166.5 C 507.00076,192.70248 507.29536,198 506.13563,198 C 505.54573,198 503.17263,195.4125 500.86207,192.25 C 498.55151,189.0875 495.44486,185.08738 493.9584,183.36085 C 491.74205,180.78653 491.12624,178.83968 490.53602,172.54109 C 489.92485,166.01897 490.07549,164.57407 491.53475,162.9616 C 493.01415,161.32688 493.09649,160.44027 492.12661,156.58854 C 490.73415,151.05858 490.68356,146.71644 491.99629,145.40371 C 493.11167,144.28833 495.40232,133.06899 494.66517,132.33184 C 494.40536,132.07202 492.77779,133.91607 491.04835,136.42972 C 489.31891,138.94338 487.54777,141 487.11247,141 C 486.67718,141 485.77725,139.80654 485.11264,138.34787 C 484.42039,136.82854 483.54258,136.08107 483.05749,136.59787 C 481.49549,138.262 480.09708,147.31288 481.10964,149.20486 C 481.82043,150.53298 481.49571,151.76307 479.84492,153.99588 C 477.27721,157.4689 475.52321,157.93125 476.30856,154.92807 C 476.72234,153.34577 475.31832,151.33161 470.36726,146.40486 C 463.97301,140.04201 462,139.25306 462,143.05902 C 462,147.02303 460.43054,144.74472 458.10824,137.40953 C 455.4451,128.99781 454.66395,128.939 451.58582,136.91849 C 450.19589,140.52163 450.07448,142.18242 450.92787,145.91849 C 451.88834,150.12328 453.08978,161.92074 454.6548,182.51486 L 455.26388,190.52972 L 450.50417,198.01486 C 442.32759,210.87338 441.52787,211.98615 440.45821,211.99317 C 439.27369,212.00094 433.54299,206.13931 426.67106,197.89104 L 421.99803,192.28207 L 420.27706,177.055 C 418.64879,162.64807 418.64884,161.77602 420.27805,160.86427 C 422.39685,159.67853 422.57314,154.12434 420.63395,149.65113 C 419.88262,147.91801 418.19512,143.64068 416.88395,140.14595 C 415.57278,136.65122 414.09412,133.72622 413.59804,133.64595 C 413.10196,133.56568 411.83827,135.15295 410.78985,137.17321 C 409.07628,140.47519 408.99287,141.64432 409.96456,148.74116 C 411.61128,160.76815 413.01233,178.17102 412.41206,179.14229 C 412.11793,179.61821 410.69337,178.60061 409.24638,176.88096 C 406.77402,173.94273 406.72222,173.67628 408.38679,172.45912 C 410.594,170.84517 409.69046,168.93968 404.32916,163.90191 C 398.41538,158.34499 393.19334,154.76248 392.04322,155.47329 C 391.46945,155.8279 391,158.71304 391,161.8847 C 391,166.75255 391.39214,168.01976 393.51587,170.01491 C 394.8996,171.31486 397.22744,174.4308 398.68886,176.93922 C 400.15027,179.44765 402.53884,183.075 403.99678,185 C 415.34789,199.98746 414.66467,198.5256 416.38198,211.5 C 417.25557,218.1 418.27142,231.9375 418.63942,242.25 C 419.15525,256.70506 419.60871,261 420.61907,261 C 422.79312,261 423.90294,257.68439 425.01509,247.86679 C 425.98863,239.27277 425.9019,235.00268 424.42367,218.75 C 423.7613,211.46751 425.34584,211.14472 430.55441,217.5011 C 434.64489,222.49299 434.64759,220.53286 430.52964,235.5 C 427.07058,248.07232 428.70586,256.62033 434.30682,255.24418 C 437.0771,254.56353 443.78273,249.75521 445.62021,247.13184 C 447.73146,244.11761 448.42659,234.06063 447.03386,226.67944 L 445.80364,220.15953 L 449.50968,213.32976 C 453.65266,205.69479 455.598,203.26466 456.6915,204.35817 C 457.09802,204.76469 457.85891,211.3754 458.38236,219.04865 C 459.27181,232.08686 460.30897,236.05172 461.44329,230.75 C 463.11679,222.92824 464.13432,208.41942 463.54115,200.83689 C 462.86089,192.14104 462.87392,192.0725 466.16272,187.0488 C 467.9806,184.27196 469.81266,182 470.23398,182 C 470.65529,182 471.01618,181.4375 471.03596,180.75 C 471.05574,180.0625 472.19912,178.15 473.57681,176.5 L 476.0817,173.5 L 478.55335,176.5 C 483.23048,182.17693 484.76101,186.95251 485.44387,198 C 485.80083,203.775 486.48931,210.075 486.97383,212 C 487.45834,213.925 487.99994,222.25 488.17738,230.5 L 488.5,245.5 L 483.85702,247.95251 C 479.89628,250.04464 478.6474,250.26505 475.35785,249.45251 C 472.12864,248.65487 471.07021,247.68706 468.84796,243.5 C 465.95632,238.05172 463.31047,235 461.47844,235 C 459.73609,235 453.42161,241.4485 451.6121,245.07574 C 450.74372,246.81646 449.08858,251.74157 447.93402,256.02043 C 445.99575,263.20375 443.22539,268 441.0145,268 C 440.51532,268 438.4641,265.525 436.45622,262.5 C 434.44834,259.475 432.3492,257 431.79147,257 C 430.41498,257 431.65209,263.34735 434.12787,268.98754 C 438.05199,277.92728 442.98041,280.38295 446.92742,275.36514 z M 434.45698,240.93039 C 433.59983,239.54349 438.12186,231 439.7131,231 C 441.19541,231 443,234.17295 443,236.77927 C 443,240.58406 436.26539,243.85646 434.45698,240.93039 z M 460.5998,169.75 C 460.22153,165.2125 459.67429,160.55219 459.38369,159.39376 C 459.07136,158.14864 459.54678,156.59608 460.54653,155.59633 C 462.13477,154.00809 462.35167,154.00828 464.10993,155.59948 C 465.13965,156.53137 467.14203,159.273 468.55966,161.69201 L 471.13718,166.09021 L 468.58661,170.29511 C 465.16405,175.93757 463.47685,178 462.28353,178 C 461.73574,178 460.97806,174.2875 460.5998,169.75 z M 263.44625,274.25251 C 265.67581,272.74139 269.67058,269.47889 272.32352,267.00251 C 274.97645,264.52613 277.56395,262.35 278.07352,262.16667 C 278.58308,261.98333 279,261.37309 279,260.81057 C 279,260.24805 280.3215,258.11928 281.93666,256.07997 C 283.55182,254.04066 285.42406,251.16341 286.09718,249.68607 C 287.63699,246.30653 289.59113,246.23479 290.41754,249.52746 C 291.76305,254.88843 296.47106,263.30762 300.8419,268.16905 C 305.95378,273.8547 312.139,277 318.20791,277 C 322.20172,277 322.24253,276.96267 321.625,273.875 C 321.28125,272.15625 321,269.26282 321,267.44515 C 321,264.5587 320.46195,263.86999 316.75,262.00509 C 308.29116,257.75534 307.07046,255.30364 312.22437,252.91557 C 315.36663,251.45961 320.71825,248.4609 322.2381,247.30452 C 324.34762,245.69948 332.89431,242.81665 333.82957,243.39467 C 334.3119,243.69277 334.95782,247.25931 335.26496,251.32034 C 335.62063,256.02317 336.67237,260.48236 338.16169,263.602 C 340.36464,268.21647 340.74602,268.5178 344.75,268.8075 C 347.91848,269.03674 349,268.74981 349,267.67994 C 349,266.89066 349.62605,265.72531 350.39122,265.09028 C 351.81593,263.90787 352.0634,263.05073 354.09834,252.25 C 354.74599,248.8125 355.61303,246 356.0251,246 C 356.43716,246 356.95145,249.13492 357.16795,252.96648 C 357.50586,258.94663 357.95838,260.34712 360.36409,262.85814 C 367.00785,269.79274 376.50953,266.68803 382.11788,255.75 C 384.40936,251.2809 385.47131,251.07884 387.37365,254.75 C 390.319,260.43395 393.62478,263 398.00191,263 C 406.46601,263 410.80073,258.28991 411.72566,248.08785 C 412.24838,242.32217 411.65884,239.41875 408.05288,230 C 406.6156,226.24583 406.13555,223.34904 406.54054,220.87406 C 407.03576,217.84771 406.53896,216.31811 403.53621,211.62406 C 399.77256,205.74053 398.61609,204.9521 397.60699,207.58179 C 396.02599,211.7018 397.28898,218.81467 402.14495,233.13855 C 407.04906,247.60444 407.20395,248.3777 405.45382,249.65743 C 402.91631,251.5129 397.92375,251.30007 395.37502,249.22776 C 391.00098,245.67136 389.83419,242.25763 387.97761,227.58494 C 386.2834,214.19543 383.98525,206 381.9248,206 C 380.92914,206 378,215.37326 378,218.55938 C 378,219.76738 378.70607,222.44561 379.56904,224.51099 C 381.72938,229.68142 381.65421,241.47389 379.43206,246 C 376.6868,251.59157 374.00283,254 370.51682,254 C 366.96638,254 365.14696,252.76714 362.56752,248.61347 C 360.6387,245.50748 360.71694,242.03144 363.01768,228.61536 C 363.87103,223.6393 363.89957,221.07499 363.12061,219.36536 C 360.33657,213.25507 356.48869,219.03839 353.05092,234.5 C 347.92716,257.54444 346.96453,259.96784 343.46758,258.62593 C 339.39738,257.06405 337.32884,242.50409 340.65499,238.82874 C 341.56523,237.82293 343.16319,237 344.20601,237 C 345.46825,237 346.59485,235.74645 347.57625,233.25 C 348.38706,231.1875 349.50434,228.6942 350.0591,227.70932 C 351.70162,224.79333 350.52623,224.37246 342.81773,225.11641 C 338.79298,225.50484 328.6375,226.15238 320.25,226.55539 C 307.16821,227.18396 305,227.07917 305,225.81838 C 305,225.01002 306.0125,223.41127 307.25,222.26561 C 310.77262,219.00441 321.7926,213.7994 323.81533,214.44139 C 324.98093,214.81133 326.81928,213.94695 328.99155,212.00754 C 330.84432,210.35339 332.94261,209 333.65443,209 C 335.31498,209 337.55691,204.54442 338.29,199.78734 C 338.82918,196.28854 338.54466,195.78453 333.35048,191.03734 C 328.77515,186.85574 327.19932,186 324.0744,186 C 319.5995,186 317.69583,187.81428 315.93947,193.75295 C 314.93551,197.14757 314.93242,198.55626 315.92416,200.7329 C 317.33353,203.82611 317.22085,203.9562 306.39434,211.73512 C 303.15245,214.06443 298.78746,217.55193 296.69435,219.48512 C 294.60124,221.4183 292.56052,223 292.15941,223 C 291.49655,223 290.33499,218.47876 288.17726,207.5 C 286.82976,200.64377 279.17601,184.3334 277.5,184.74645 C 276.95,184.88199 275.92867,187.24795 275.23038,190.00414 C 274.07846,194.55079 274.15193,195.40868 276.02287,199.25769 C 278.74694,204.8618 283.82007,223.95111 284.59198,231.50176 C 285.18339,237.28682 285.07202,237.6777 281.45833,242.5 C 273.18841,253.53581 261.15147,264 256.72692,264 C 253.65051,264 251.70892,260.2748 252.25592,255.42181 C 252.67892,251.66901 253.61931,249.91643 257.2324,246.14731 C 262.46559,240.68811 266.71158,232.79384 267.96256,226.19742 C 268.95429,220.96803 267.4356,211.61618 264.76088,206.48204 C 263.89614,204.82217 263.41023,202.30487 263.68107,200.88806 C 264.24822,197.92121 258.5129,187.66237 256.63673,188.28776 C 254.68835,188.93722 253.93015,197.96425 255.55937,201.11481 C 256.35172,202.64704 257,204.72322 257,205.72855 C 257,206.73388 258.60098,210.8971 260.55772,214.98015 C 262.98438,220.04373 263.92273,223.17175 263.50925,224.81918 C 262.60156,228.43571 244.13383,246.11518 233.6788,253.37637 C 228.63046,256.88253 220.03377,262.16969 214.57504,265.12561 C 202.09639,271.88283 201.17954,273.55259 210.42173,272.68954 C 225.29159,271.30097 236.40814,267.00783 242.55268,260.28077 C 245.79747,256.72836 247,256.84816 247,260.72385 C 247,265.24181 249.22812,271.9541 251.56477,274.47538 C 254.62411,277.77646 258.35,277.70657 263.44625,274.25251 z M 300.5,252 C 300.15087,250.9 299.49682,250 299.04655,250 C 298.01601,250 295,243.7384 295,241.59887 C 295,240.26978 296.32175,240 302.83333,240 C 307.14167,240 310.95858,240.29191 311.31536,240.64869 C 311.67214,241.00547 310.37706,243.054 308.4374,245.20097 C 306.49774,247.34794 304.49197,250.20603 303.98012,251.55228 C 302.85263,254.51782 301.36007,254.70984 300.5,252 z M 462.66417,272.43278 C 462.99494,271.57081 462.75581,270.35581 462.13278,269.73278 C 461.50975,269.10975 460.95514,266.7775 460.90032,264.55 C 460.81405,261.04469 460.69296,260.83623 460,263 C 458.98988,266.15411 458.78668,272.45334 459.66667,273.33333 C 460.78771,274.45438 462.03184,274.0806 462.66417,272.43278 z M 488.2101,269.75 C 491.77131,267.4125 495.5434,264.92461 496.59252,264.22135 C 497.64163,263.5181 499.75008,262.1681 501.27795,261.22135 C 503.96726,259.55492 505.89024,255.55691 504.61556,254.28223 C 504.27201,253.93868 502.30547,255.07643 500.24546,256.81056 C 498.18546,258.5447 495.15,260.6481 493.5,261.4848 C 488.46464,264.03819 480.53271,270.47235 480.18325,272.28699 C 479.68748,274.86129 481.10606,274.41293 488.2101,269.75 z M 170.55887,271.5318 C 171.62649,270.7243 173.08889,270.0493 173.80864,270.0318 C 175.33157,269.99479 181.79147,265.05092 186.996,259.93928 C 188.98999,257.98089 191.49411,255.72404 192.56072,254.92407 C 196.26572,252.14524 202,240.94499 202,236.48716 C 202,233.13769 204.86579,229.72421 208.63509,228.58402 C 210.24222,228.09787 211.40083,228.68765 213.32053,230.96908 C 215.3696,233.40426 216.64942,234 219.83185,234 C 223.08182,234 224.32685,233.39177 226.7679,230.61156 C 228.86036,228.22839 230.15196,227.48216 231.1215,228.09625 C 231.87967,228.57647 234.15484,228.97627 236.17742,228.98469 C 240.50765,229.00272 243.37624,226.03018 245.05887,219.78139 C 246.30031,215.17101 245.14771,205.88093 243.25615,205.2514 C 241.69264,204.73105 240,209.05274 240,213.5651 C 240,216.20611 239.58398,217 238.2,217 C 235.47357,217 234,214.97092 234,211.21667 C 234,206.42741 232.22935,207.50668 228.516,214.55936 C 225.78123,219.75345 224.97856,220.53999 222.12876,220.81823 C 218.23252,221.19864 216,219.60253 216,216.43657 C 216,215.16138 215.59948,213.8705 215.10996,213.56796 C 214.31715,213.07797 208.5548,215.97828 203.74633,219.28751 C 202.23089,220.33045 201.27179,219.71363 196.68642,214.7472 C 189.70516,207.18576 186.39498,207.24584 181.4854,215.02312 C 179.5109,218.15093 179,220.26863 179,225.32514 C 179,233.85544 180.69009,235.46253 189.80355,235.59813 C 193.43091,235.65209 196.55501,236.16502 196.74599,236.73797 C 196.93697,237.31091 193.58475,240.95334 189.29661,244.83225 C 172.57237,259.96047 164.89316,263.03505 158.28153,257.25 C 153.45148,253.02381 153.21387,249.35697 157.45531,244.5 C 159.3765,242.3 162.31,237.66729 163.97419,234.2051 C 166.91129,228.09474 166.99904,227.49376 166.96728,213.7051 C 166.9338,199.16901 166.4767,194.32515 163.40915,176 C 161.00414,161.63279 160.96086,156.40947 163.25,156.79384 C 166.35601,157.31536 164.89793,150.52741 159.15932,137.75 C 157.98599,135.1375 156.60208,133 156.08396,133 C 154.48906,133 151.82594,143.71776 152.92115,145.72874 C 153.45172,146.70293 154.35433,153.35 154.92697,160.5 C 156.74825,183.24079 157.98827,195.36569 158.98741,200.2032 C 159.52168,202.78996 160.25754,209.82478 160.62264,215.83614 L 161.28647,226.76588 L 152.71047,235.20777 C 143.10516,244.66289 135.57038,249.20231 126.33256,251.09946 C 121.34506,252.12373 119.33623,252.12205 115.83256,251.09067 C 108.91883,249.05547 104.06123,243.58013 102.66827,236.25227 C 101.99133,232.69113 103.48758,223.11242 104.94909,221.65091 C 105.50824,221.09176 107.53198,222.15547 110.11422,224.36578 C 115.81501,229.24543 120.34337,229.3654 124.61701,224.75 C 126.27215,222.9625 128.16042,220.24133 128.81317,218.70295 C 130.70852,214.23608 130.25521,203.74541 127.86888,196.84992 C 126.69676,193.46299 125.68426,188.80782 125.61888,186.50508 C 125.50754,182.58401 120.49345,171 118.90757,171 C 118.53899,171 117.73484,172.99596 117.12057,175.43547 C 115.82787,180.56923 117.0994,187.79341 121.39685,199.73122 C 124.49902,208.34865 124.67041,212.08331 122.07166,214.43515 C 119.9321,216.37143 116.77749,215.88696 113.65738,213.14291 C 110.56146,210.42015 109.77601,208.02609 108.38007,197.05763 C 107.64106,191.25093 106.60216,184.11737 106.0714,181.20527 C 104.10624,170.4231 102.97083,169.55103 99.909219,176.47232 C 98.03871,180.70092 98.014918,181.26888 99.472638,186.89441 C 102.15106,197.23079 102.49409,204.41772 100.55176,209.50364 C 97.418555,217.70782 89.220111,221.43188 83.860784,217.08535 C 81.621101,215.26892 81.521829,214.69183 81.925546,205.83535 C 83.100564,180.05854 82.412335,177.12669 77.138518,185.44263 C 74.087186,190.25408 70.507209,203.19926 69.37928,213.5 C 68.806143,218.73413 66.723057,225 65.556107,225 C 60.902028,225 57.673112,217.61509 57.577221,206.75135 C 57.521699,200.46105 57.148752,198.00232 56.25,198.00135 C 55.317709,198.00034 55,201.12479 55,210.29424 C 55,222.3824 55.05453,222.67992 58.25316,228.04424 C 61.134129,232.87581 61.921825,233.53472 65.138054,233.8035 C 68.541578,234.08793 68.896743,233.83658 70.790183,229.8035 C 71.901401,227.43658 73.110579,222.9125 73.477246,219.75 C 73.843913,216.5875 74.561532,214 75.071956,214 C 75.58238,214 76,214.68488 76,215.52196 C 76,218.42256 81.801829,229.82357 83.830384,230.90922 C 87.301786,232.76706 91.646033,232.16872 94.96551,229.37557 C 96.680938,227.93213 98.265598,226.93226 98.486976,227.15364 C 98.708355,227.37502 98.475085,229.34352 97.968598,231.52807 C 95.767031,241.02379 97.835504,250.43929 103.70951,257.66017 C 107.83548,262.73219 113.14668,265 120.89939,265 C 127.63116,265 135.71034,261.68687 144.67512,255.25 C 148.44773,252.54119 148.99976,252.47738 149.00081,254.75 C 149.00179,256.85428 151.95314,264.57373 154.01657,267.86907 C 156.90164,272.47659 166.49996,274.60181 170.55887,271.5318 z M 63,260.07515 C 64.375,259.48644 66.175,258.57742 67,258.05509 C 67.825,257.53276 73.303287,254.84407 79.173971,252.08023 C 90.220164,246.87982 91.552079,245.88108 90.633497,243.48729 C 90.189743,242.33089 89.063422,242.52426 84.507821,244.53896 C 75.453857,248.54305 56,258.03839 56,258.4535 C 56,258.66411 55.699473,259.61958 55.332163,260.57678 C 54.765127,262.05445 55.104734,262.22872 57.582163,261.73133 C 59.186973,261.40914 61.625,260.66386 63,260.07515 z M 175,248.00608 C 175,243.84084 176.70239,240 178.54857,240 C 180.72536,240 179.98624,236.62103 177.71372,236.18338 C 176.49411,235.94851 175.61956,236.79289 174.87738,238.9219 C 173.5697,242.67312 172.68268,242.79373 171.14951,239.4288 C 169.61238,236.05516 166.61042,236.56014 166.18303,240.26424 C 165.97354,242.07983 166.41185,243.22081 167.47563,243.62902 C 168.36089,243.96873 169.98328,246.00706 171.08094,248.15865 C 173.29038,252.48951 175,252.42295 175,248.00608 z M 122.42856,243.63191 C 123.25928,242.27582 123.10683,241.59041 121.75,240.58119 C 120.7875,239.86527 119.95697,237.97912 119.90439,236.38976 C 119.82144,233.88269 119.60146,234.12287 118.24328,238.20342 C 116.94564,242.10213 116.90213,243.17714 117.98898,244.48673 C 119.52525,246.33781 120.93754,246.06588 122.42856,243.63191 z M 141.94545,236.75 C 144.95799,228.16989 144.20064,213.63351 138.9627,179.5 C 135.515,157.03277 135.51763,157.0732 137.41174,155.6882 C 138.82702,154.65332 138.9505,153.7835 138.15211,150.47308 C 136.60395,144.05382 132.53903,133.67968 131.42662,133.30887 C 129.72064,132.74021 126.54294,141.03848 127.73546,142.948 C 128.29614,143.8458 129.06078,147.93727 129.43467,152.04018 C 130.37769,162.38843 132.77408,184.18502 134.54261,198.5 C 135.358,205.1 136.47006,214.1 137.01384,218.5 C 137.55763,222.9 138.00198,228.8257 138.00128,231.66821 C 137.99917,240.20636 139.88072,242.63061 141.94545,236.75 z M 504,236.37756 C 504,235.6199 503.4375,235.1125 502.75,235.25 C 501.8833,235.42334 501.55875,234.18975 501.6916,231.22707 C 501.93964,225.69553 500.43347,226.62376 499.54475,232.55013 C 498.75975,237.78493 500.25791,240.86077 502.63268,238.88989 C 503.38471,238.26576 504,237.13521 504,236.37756 z M 473.48859,230.56753 C 475.13232,229.43039 476.93232,227.96933 477.48859,227.32074 C 478.04487,226.67215 479.625,225.99715 481,225.82074 C 484.72027,225.34344 484.96216,220.29692 481.46405,216.13964 C 480.01104,214.41284 478.41825,213 477.92453,213 C 476.44295,213 473.84038,220.3138 474.3661,223 C 474.74572,224.93972 473.9191,226.46517 470.67769,229.80664 C 466.37397,234.24319 467.66881,234.5937 473.48859,230.56753 z M 349.26003,211.16684 C 350.77805,210.16585 354.67172,206.56882 357.91264,203.17343 C 361.15356,199.77804 364.50821,197 365.36742,197 C 369.76971,197 369.10402,188.60863 364.46036,185.56598 C 359.77455,182.49572 358.13703,183.9548 357.80063,191.5 C 357.72707,193.15 357.98173,195.20086 358.36655,196.05748 C 358.86051,197.15704 356.99843,199.69508 352.03311,204.69001 C 348.1649,208.58129 345,212.04292 345,212.38253 C 345,213.45042 346.40498,213.04948 349.26003,211.16684 z M 360,191 C 360,190.45 360.45,190 361,190 C 361.55,190 362,190.45 362,191 C 362,191.55 361.55,192 361,192 C 360.45,192 360,191.55 360,191 z M 474.54533,195.38996 C 474.22389,193.6765 473.13421,191.52644 472.12382,190.61206 C 470.46673,189.11241 470.16037,189.10183 468.99661,190.50409 C 467.92023,191.80104 468.05114,192.4266 469.78661,194.27932 C 472.31754,196.98121 473.9391,201.05421 474.18025,205.3151 C 474.2862,207.18716 474.51905,206.44007 474.74514,203.50267 C 474.95669,200.75414 474.86678,197.10342 474.54533,195.38996 z M 176.01892,203.4772 C 177.5949,201.57826 199.70191,189 201.46342,189 C 202.17385,189 203.31531,188.325 204,187.5 C 204.68469,186.675 205.77643,186 206.4261,186 C 207.07577,186 210.05817,184.835 213.05366,183.41112 C 216.04915,181.98723 220.75,179.78656 223.5,178.52074 C 226.25,177.25493 230.55458,175.26992 233.06572,174.10963 C 235.57687,172.94933 238.0223,172 238.5,172 C 239.32693,172 246.61315,168.85905 250.17289,166.96804 C 251.09298,166.47927 258.06798,163.76792 265.67289,160.94282 C 273.2778,158.11773 280.4,155.40679 281.5,154.91853 C 282.6,154.43026 288.225,152.39265 294,150.39049 C 304.30171,146.81896 310.83168,144.40955 316.19621,142.20062 C 318.17343,141.38646 319.0735,140.12511 319.57151,137.47051 C 320.63915,131.77948 319.36677,131.46708 308.86592,134.84196 C 297.87405,138.37464 266.83264,149.20824 262.5,151.02388 C 260.85,151.71533 258.15,152.84364 256.5,153.53123 C 248.20504,156.98793 237.74295,161.56007 231.16087,164.60493 C 227.12434,166.47222 223.61397,168 223.36005,168 C 222.96318,168 191.54761,183.63571 182.3199,188.42591 C 176.105,191.65214 170.86071,199.58869 172.36077,203.49776 C 173.09703,205.41643 174.41566,205.40901 176.01892,203.4772 z M 153.09143,201.82917 C 154.03747,200.06148 153.95114,199.43744 152.62661,198.46892 C 151.71605,197.8031 150.96449,195.78731 150.91933,193.88976 C 150.84484,190.75936 150.72038,190.9013 149.29267,195.74492 C 148.04941,199.96281 147.99127,201.28456 148.99578,202.49492 C 150.7029,204.55186 151.72303,204.38604 153.09143,201.82917 z M 223,199.59021 C 223,195.36931 225.08431,191 227.09783,191 C 229.27443,191 229.54021,189.94021 227.8,188.2 C 225.78319,186.18319 223.94807,186.85053 222.85016,190 C 221.56944,193.67387 220.67527,193.77748 219.14951,190.4288 C 217.61238,187.05516 214.61042,187.56014 214.18303,191.26424 C 213.97354,193.07983 214.41185,194.22081 215.47563,194.62902 C 216.36089,194.96873 217.98328,197.00706 219.08094,199.15865 C 221.17679,203.26687 223,203.46763 223,199.59021 z M 292.31574,199.88553 C 299.72958,196.1028 313.15128,186.24542 313.66277,184.20751 C 314.58278,180.54188 313.26867,180.42379 309.24546,183.81056 C 307.18546,185.5447 304.15,187.6481 302.5,188.4848 C 297.46464,191.03819 289.53271,197.47235 289.18325,199.28699 C 288.79685,201.29338 289.34952,201.39898 292.31574,199.88553 z M 382.14975,196 C 384.79344,196 386.20005,191.87232 384.8632,188.03742 C 383.66339,184.59565 382,183.99296 382,187 C 382,189.6395 380.38211,189.56921 379.68394,186.89938 C 378.84563,183.6937 376.98224,185.6612 377.65775,189.03877 C 378.1197,191.34852 377.89249,192 376.625,192 C 375.66667,192 375,191.17949 375,190 C 375,188.9 374.55,188 374,188 C 372.84916,188 372.62634,195.293 373.74306,196.40972 C 374.15174,196.8184 375.78299,196.8934 377.36806,196.57639 C 378.95313,196.25938 381.10489,196 382.14975,196 z M 273.78461,183.82121 C 281.53422,173.62586 282.03403,172.45243 280.9844,166.91776 C 279.5566,159.38899 278.413,158.41127 274.82874,161.65499 C 272.59571,163.67586 272.44131,168.29144 274.54826,170.04005 C 276.23497,171.4399 276.15286,175.12876 274.42231,175.69757 C 273.82959,175.89239 272.82673,174.91514 272.19375,173.5259 C 270.91006,170.7085 267.90565,170.20383 266.01057,172.48727 C 264.5035,174.30317 265.37484,177 267.46862,177 C 269.65962,177 269.4257,181.74214 267,186.5 C 264.48895,191.42528 264.4667,191.33342 267.75,189.59689 C 269.2625,188.79693 271.97807,186.19788 273.78461,183.82121 z M 446.23469,186.65196 C 447.4552,184.73825 447.09195,180.5763 445.50691,178.31333 C 444.21629,176.47072 443.67493,176.33884 441.51471,177.34082 C 440.1402,177.97837 439.01209,178.86782 439.0078,179.31739 C 439.00351,179.76695 438.1,179.84913 437,179.5 C 434.78264,178.79624 434.48911,180.19553 435.64341,185.96704 C 436.28274,189.16368 436.31602,189.1797 440.89341,188.494 C 443.42703,188.11445 445.83061,187.28553 446.23469,186.65196 z M 355.2917,177.98636 C 358.70627,176.32885 362.175,174.58567 363,174.11262 C 363.825,173.63956 367.425,171.8747 371,170.1907 C 379.51813,166.17824 381.47025,164.66783 380.70736,162.67979 C 380.16047,161.25461 379.45073,161.35297 374.50782,163.53896 C 365.45386,167.54305 346,177.03839 346,177.4535 C 346,177.66411 345.72686,178.54823 345.39301,179.41821 C 344.42671,181.93636 348.31231,181.37431 355.2917,177.98636 z M 303.14975,179 C 305.79344,179 307.20005,174.87232 305.8632,171.03742 C 304.66339,167.59565 303,166.99296 303,170 C 303,172.6395 301.38211,172.56921 300.68394,169.89938 C 299.84563,166.6937 297.98224,168.6612 298.65775,172.03877 C 299.1197,174.34852 298.89249,175 297.625,175 C 296.66667,175 296,174.17949 296,173 C 296,171.9 295.55,171 295,171 C 293.84916,171 293.62634,178.293 294.74306,179.40972 C 295.15174,179.8184 296.78299,179.8934 298.36806,179.57639 C 299.95313,179.25938 302.10489,179 303.14975,179 z M 499.78306,173.2121 C 499.23398,165.53797 497.48231,161.11769 495.69755,162.90245 C 494.87465,163.72535 495.01475,164.75496 496.2294,166.81119 C 497.13636,168.34656 498.18875,171.94214 498.56804,174.80138 C 499.55726,182.25847 500.35561,181.2142 499.78306,173.2121 z M 64.571077,175.95607 C 66.390007,174.83191 70.200147,171.23191 73.038056,167.95607 C 76.529991,163.92528 78.936321,162 80.482313,162 C 84.958579,162 84.215076,153.68139 79.46036,150.56598 C 74.774547,147.49572 73.137028,148.9548 72.800632,156.5 C 72.727068,158.15 72.981731,160.20086 73.36655,161.05748 C 73.860513,162.15704 71.99843,164.69508 67.033111,169.69001 C 58.41521,178.3593 57.688031,180.21003 64.571077,175.95607 z M 432.2101,173.75 C 435.77131,171.4125 439.5434,168.92461 440.59252,168.22135 C 441.64163,167.5181 443.75008,166.1681 445.27795,165.22135 C 447.96726,163.55492 449.89024,159.55691 448.61556,158.28223 C 448.27201,157.93868 446.30547,159.07643 444.24546,160.81056 C 442.18546,162.5447 439.15,164.6481 437.5,165.4848 C 432.46464,168.03819 424.53271,174.47235 424.18325,176.28699 C 423.68748,178.86129 425.10606,178.41293 432.2101,173.75 z M 178,169.26848 C 180.71938,167.55424 189,156.89109 189,155.10352 C 189,154.49659 189.9,154 191,154 C 192.74885,154 193,153.33333 193,148.69113 C 193,142.76266 191.20607,139.32321 188.6296,140.31189 C 185.80183,141.39701 184.78883,145.69096 186.55491,149.10618 C 187.40639,150.75276 187.8369,152.93853 187.5116,153.96345 C 187.1863,154.98837 183.30557,159.57838 178.88774,164.16347 C 168.55713,174.88522 167.76059,175.92347 172,173.14132 C 173.925,171.87803 176.625,170.13525 178,169.26848 z M 343,165 C 346.2415,161.7585 349.60413,157.73243 350.4725,156.05318 C 351.34087,154.37393 352.7148,153 353.52568,153 C 355.47304,153 355.5669,143.15753 353.64461,140.52865 C 350.3962,136.08619 345.84389,142.86365 348.55491,148.10618 C 349.40639,149.75276 349.8369,151.93853 349.5116,152.96345 C 349.1863,153.98837 345.30557,158.57838 340.88774,163.16347 C 329.96219,174.50269 329.85863,174.64064 333.80318,172.60135 C 335.61993,171.66211 339.7585,168.2415 343,165 z M 206,161 C 209.2415,157.7585 212.60413,153.73243 213.4725,152.05318 C 214.34087,150.37393 215.7148,149 216.52568,149 C 218.47304,149 218.5669,139.15753 216.64461,136.52865 C 213.3962,132.08619 208.84389,138.86365 211.55491,144.10618 C 212.40639,145.75276 212.8369,147.93853 212.5116,148.96345 C 212.1863,149.98837 208.30557,154.57838 203.88774,159.16347 C 192.96219,170.50269 192.85863,170.64064 196.80318,168.60135 C 198.61993,167.66211 202.7585,164.2415 206,161 z M 301.2917,161.98636 C 304.70627,160.32885 308.175,158.58567 309,158.11262 C 309.825,157.63956 313.425,155.8747 317,154.1907 C 325.51813,150.17824 327.47025,148.66783 326.70736,146.67979 C 326.16047,145.25461 325.45073,145.35297 320.50782,147.53896 C 311.45386,151.54305 292,161.03839 292,161.4535 C 292,161.66411 291.72686,162.54823 291.39301,163.41821 C 290.42671,165.93636 294.31231,165.37431 301.2917,161.98636 z M 102.27475,162.01101 C 104.79539,161.99537 106.16577,157.77398 104.8632,154.03742 C 103.66339,150.59565 102,149.99296 102,153 C 102,155.6395 100.38211,155.56921 99.683939,152.89938 C 98.845634,149.6937 96.982241,151.6612 97.657755,155.03877 C 98.119704,157.34852 97.892494,158 96.625,158 C 95.666667,158 95,157.17949 95,156 C 95,154.9 94.55,154 94,154 C 93.45,154 93,156.08388 93,158.63084 L 93,163.26168 L 96.75,162.64185 C 98.8125,162.30094 101.29864,162.01706 102.27475,162.01101 z M 149.09143,158.82917 C 150.03747,157.06148 149.95114,156.43744 148.62661,155.46892 C 147.71605,154.8031 146.96449,152.78731 146.91933,150.88976 C 146.84484,147.75936 146.72038,147.9013 145.29267,152.74492 C 144.04941,156.96281 143.99127,158.28456 144.99578,159.49492 C 146.7029,161.55186 147.72303,161.38604 149.09143,158.82917 z M 374.54307,140.38729 C 374.22287,138.6753 373.13421,136.52644 372.12382,135.61206 C 370.46673,134.11241 370.16037,134.10183 368.99661,135.50409 C 367.91865,136.80295 368.06346,137.43865 369.87711,139.36919 C 372.19337,141.83474 373.88337,146.59111 374.18498,151.4934 C 374.28672,153.14703 374.53991,152.025 374.74761,149 C 374.95532,145.975 374.86328,142.09928 374.54307,140.38729 z M 437.54533,141.38996 C 437.22389,139.6765 436.13421,137.52644 435.12382,136.61206 C 433.46673,135.11241 433.16037,135.10183 431.99661,136.50409 C 430.92023,137.80104 431.05114,138.4266 432.78661,140.27932 C 435.31754,142.98121 436.9391,147.05421 437.18025,151.3151 C 437.2862,153.18716 437.51905,152.44007 437.74514,149.50267 C 437.95669,146.75414 437.86678,143.10342 437.54533,141.38996 z M 248,147.59021 C 248,143.36931 250.08431,139 252.09783,139 C 254.27443,139 254.54021,137.94021 252.8,136.2 C 250.78319,134.18319 248.94807,134.85053 247.85016,138 C 246.56944,141.67387 245.67527,141.77748 244.14951,138.4288 C 242.61238,135.05516 239.61042,135.56014 239.18303,139.26424 C 238.97354,141.07983 239.41185,142.22081 240.47563,142.62902 C 241.36089,142.96873 242.98328,145.00706 244.08094,147.15865 C 246.17679,151.26687 248,151.46763 248,147.59021 z M 65,146.00608 C 65,141.43917 66.707648,138 68.975249,138 C 71.26478,138 71.568587,136.96859 69.8,135.2 C 67.783192,133.18319 65.948066,133.85053 64.850155,137 C 63.569436,140.67387 62.675274,140.77748 61.149511,137.4288 C 59.612381,134.05516 56.610416,134.56014 56.183029,138.26424 C 55.973541,140.07983 56.411854,141.22081 57.475626,141.62902 C 58.360888,141.96873 59.983279,144.00706 61.08094,146.15865 C 63.290376,150.48951 65,150.42295 65,146.00608 z M 94.543074,135.38729 C 94.22287,133.6753 93.134208,131.52644 92.123825,130.61206 C 90.466733,129.11241 90.160374,129.10183 88.996608,130.50409 C 87.920235,131.80104 88.051141,132.4266 89.786614,134.27932 C 92.417812,137.08826 93.948417,141.10264 94.184982,145.8151 C 94.309905,148.30359 94.49258,147.71426 94.747614,144 C 94.955321,140.975 94.863278,137.09928 94.543074,135.38729 z M 395,144.00608 C 395,139.43917 396.70765,136 398.97525,136 C 401.26478,136 401.56859,134.96859 399.8,133.2 C 397.78319,131.18319 395.94807,131.85053 394.85016,135 C 393.56944,138.67387 392.67527,138.77748 391.14951,135.4288 C 389.61238,132.05516 386.61042,132.56014 386.18303,136.26424 C 385.97354,138.07983 386.41185,139.22081 387.47563,139.62902 C 388.36089,139.96873 389.98328,142.00706 391.08094,144.15865 C 393.29038,148.48951 395,148.42295 395,144.00608 z "
     id="Shahadah"
     sodipodi:nodetypes="cssssccsssssccsssssssccsssssssssssssccssssccssssccsssssssssssssssssssssssssssssssssssssssssssssssssssssssssssssscccscccsssssssssssssssssssssssscccssssssscccsscccsssssssssccssccssscccsccsssssssssssssssssssssssssssssssssssssssssssssssssssssssssssssssssssssssssssssssssssssssccssssssccssssccssssssccssssssssssssssssssssssssssssssssssssscccssssssssssssssssssssssssssssssssssssssssssccsssssssccsssssssccssssccsssssssssccssssccssssssccsssssssccsssccsssssccssssssssssssssssssssccssssccsssssssccssssccsssssssssccsssssssssccssssssccssssssccsssssssssccsssccssssssccssssssccssssssssccsssssssccsssssssccssssssccssssssscccccssssccsssssccsssssccsssssssccsssssssccsssssccsssssssc" />
</svg>
