<?xml version="1.0" encoding="UTF-8" standalone="no"?>
<!-- Created with Inkscape (http://www.inkscape.org/) -->
<svg xmlns:dc="http://purl.org/dc/elements/1.1/" xmlns:cc="http://web.resource.org/cc/" xmlns:rdf="http://www.w3.org/1999/02/22-rdf-syntax-ns#" xmlns:svg="http://www.w3.org/2000/svg" xmlns="http://www.w3.org/2000/svg" xmlns:sodipodi="http://sodipodi.sourceforge.net/DTD/sodipodi-0.dtd" xmlns:inkscape="http://www.inkscape.org/namespaces/inkscape" width="400" height="272.15829" id="svg2" sodipodi:version="0.32" inkscape:version="0.45.1" version="1.0" sodipodi:docbase="C:\Documents and Settings\Brendan!\Desktop" sodipodi:docname="Emirate of Bukhara.svg" inkscape:output_extension="org.inkscape.output.svg.inkscape">
  <defs id="defs4"/>
  <sodipodi:namedview id="base" pagecolor="#ffffff" bordercolor="#666666" borderopacity="1.0" gridtolerance="10000" guidetolerance="10" objecttolerance="10" inkscape:pageopacity="0.0" inkscape:pageshadow="2" inkscape:zoom="1" inkscape:cx="162.4164" inkscape:cy="122.34519" inkscape:document-units="px" inkscape:current-layer="layer1" showguides="true" inkscape:guide-bbox="true" inkscape:window-width="748" inkscape:window-height="579" inkscape:window-x="282" inkscape:window-y="151"/>
  <metadata id="metadata7">
    <rdf:RDF>
      <cc:Work rdf:about="">
        <dc:format>image/svg+xml</dc:format>
        <dc:type rdf:resource="http://purl.org/dc/dcmitype/StillImage"/>
      </cc:Work>
    </rdf:RDF>
  </metadata>
  <g inkscape:label="Layer 1" inkscape:groupmode="layer" id="layer1" transform="translate(-113.5, -403.847)">
    <g id="g2375" transform="matrix(1.25263, 0, 0, 1.25263, -230.347, -93.3679)">
      <path style="fill: rgb(254, 153, 48);" d="M 274.8786,505.17271 L 274.8786,400.9918 L 428.15626,400.9918 C 529.80915,400.9918 581.43392,401.26593 581.43392,401.80571 C 581.43392,402.31563 576.48367,402.61962 568.17979,402.61962 C 555.51963,402.61962 554.59842,402.7312 547.62302,405.10954 C 538.01511,408.38546 530.26679,413.41255 523.29942,420.89064 C 516.7205,427.9518 513.93102,433.06875 512.23993,441.17787 C 506.96465,466.47389 517.47762,487.97351 540.78699,499.55825 C 549.03788,503.65894 552.77348,504.35879 566.41071,504.35879 C 574.29733,504.35879 579.03896,504.6644 579.03896,505.17271 C 579.03896,505.68102 574.29733,505.98662 566.41071,505.98662 C 557.19932,505.98662 552.6275,506.33631 549.51384,507.27903 C 530.87502,512.92226 516.67377,527.05606 512.27423,544.34176 C 509.68973,554.49615 511.17897,570.39942 515.53506,579.16365 C 518.4231,584.97422 527.85927,594.8399 534.64928,599.14788 C 537.76839,601.12683 543.60657,603.86644 547.62302,605.23587 C 554.59842,607.61422 555.51963,607.72579 568.17979,607.72579 C 576.48367,607.72579 581.43392,608.02978 581.43392,608.53971 C 581.43392,609.07949 529.80915,609.35362 428.15626,609.35362 L 274.8786,609.35362 L 274.8786,505.17271 z " id="path5180"/>
      <path style="fill: rgb(0, 151, 48);" d="M 290.0801,506.05463 L 290.0801,421.05463 L 395.58771,421.05463 L 501.09533,421.05463 L 497.18726,426.80463 C 490.11784,437.20597 488.93449,440.30877 488.22634,450.30056 C 486.83172,469.97842 493.89395,489.24614 506.87146,501.16959 L 512.73255,506.55463 L 507.08064,512.05463 C 496.25575,522.58856 489.05496,539.00137 489.10154,553.03453 C 489.1324,562.33088 492.48464,576.2744 496.60123,584.22916 L 500.13342,591.05463 L 395.10675,591.05463 L 290.0801,591.05463 L 290.0801,506.05463 z M 287.35006,548.52086 L 287.35006,548.52086 z M 287.35672,505.77575 L 287.35672,505.77575 z M 287.35006,463.52086 L 287.35006,463.52086 z M 287.27312,418.49247 L 287.27312,418.49247 z " id="path2381" sodipodi:nodetypes="cccccscccsccccccccccccc"/>
      <path style="fill: rgb(4, 2, 1);" d="M 573.28658,610.88077 L 570.5133,607.98609 L 573.15731,605.34207 L 575.80132,602.69806 L 583.78501,605.10831 C 588.17604,606.43395 591.62639,607.66088 591.45245,607.83481 C 591.27852,608.00875 587.74403,609.41654 583.59803,610.96325 L 576.05985,613.77545 L 573.28658,610.88077 z M 279.01742,599.22061 L 276.76617,594.41409 L 279.03387,589.22061 C 280.28111,586.3642 281.55475,584.03092 281.86419,584.03554 C 282.17362,584.04017 283.64438,586.34443 285.13254,589.15613 L 287.83828,594.26831 L 285.36569,599.14772 C 284.00577,601.8314 282.52761,604.02713 282.08089,604.02713 C 281.63417,604.02713 280.25561,601.8642 279.01742,599.22061 z M 293.6768,601.45516 C 289.99209,599.45617 290.12875,597.85297 293.87261,599.15809 C 296.21804,599.97571 298.1608,599.73157 303.40483,597.96023 C 309.15418,596.0182 310.33663,595.90387 312.70902,597.06063 L 315.4268,598.38581 L 311.4268,599.05527 C 309.2268,599.42347 306.0768,600.465 304.4268,601.36977 C 300.74325,603.38963 297.29311,603.41703 293.6768,601.45516 z M 328.36793,601.55893 C 327.30031,600.75143 325.67144,600.07643 324.74823,600.05893 C 322.97513,600.02534 319.9268,597.47624 319.9268,596.02713 C 319.9268,594.91624 322.81591,592.02713 323.9268,592.02713 C 325.73248,592.02713 327.97535,595.29879 327.40393,597.09919 C 326.52963,599.85386 330.86526,600.57684 336.58059,598.62943 C 341.88222,596.82298 346.69984,596.58796 348.9268,598.02713 C 350.0536,598.75533 349.55601,599.00195 346.9268,599.01841 C 345.0018,599.03045 342.0768,599.93438 340.4268,601.02713 C 336.88711,603.37137 331.10153,603.62652 328.36793,601.55893 z M 360.21928,600.84515 C 355.82147,598.59349 354.61938,596.99182 355.5355,594.60445 C 356.33271,592.52696 358.77733,591.87677 361.1058,593.12293 C 362.68946,593.97048 363.01113,594.85548 362.55836,597.11934 C 362.01942,599.81401 362.1972,600.02713 364.98392,600.02713 C 366.63783,600.02713 369.60654,599.35213 371.58104,598.52713 C 375.6797,596.8146 381.51126,596.54576 382.4268,598.02713 C 382.7711,598.58422 382.01558,599.02713 380.72101,599.02713 C 379.4429,599.02713 376.71798,599.92713 374.66562,601.02713 C 369.87144,603.59665 365.48544,603.5414 360.21928,600.84515 z M 393.1768,600.46469 C 389.41315,598.74519 387.9268,597.50433 387.9268,596.08181 C 387.9268,593.76793 391.08205,591.76574 393.35436,592.6377 C 394.92411,593.24007 395.13273,593.75774 395.32486,597.52713 C 395.45976,600.17387 400.4053,600.68969 405.44751,598.58292 C 409.65114,596.82654 414.6914,596.5825 416.9268,598.02713 C 418.09284,598.78068 417.80566,598.99991 415.63696,599.01182 C 414.10255,599.02024 411.08298,599.92713 408.9268,601.02713 C 403.88772,603.59788 399.70802,603.44862 393.1768,600.46469 z M 429.4268,602.06292 C 426.99709,601.04556 422.9268,597.28629 422.9268,596.0596 C 422.9268,594.92331 425.79966,592.02713 426.9268,592.02713 C 428.94103,592.02713 430.90727,595.25677 430.31929,597.59946 C 429.78943,599.7106 430.05427,600.02713 432.35051,600.02713 C 433.8028,600.02713 436.60654,599.35213 438.58104,598.52713 C 442.68426,596.8127 446.744,596.61649 448.9268,598.02713 C 450.11425,598.79452 449.90279,598.9997 447.91199,599.01182 C 446.52885,599.02024 443.71798,599.92713 441.66562,601.02713 C 437.80035,603.09879 432.89265,603.51413 429.4268,602.06292 z M 459.19087,600.69514 C 454.7493,598.43837 453.62749,596.97069 454.5355,594.60445 C 456.08607,590.56375 462.24818,592.48097 461.73937,596.8458 C 461.44422,599.37765 461.64979,599.51968 465.4268,599.39352 C 467.6268,599.32004 471.25399,598.68734 473.48722,597.98753 C 476.00696,597.19794 478.66302,597.01873 480.48722,597.51524 L 483.4268,598.31533 L 479.59342,599.17293 C 477.48506,599.6446 474.79744,600.70476 473.62092,601.52883 C 470.63843,603.61784 464.21238,603.24658 459.19087,600.69514 z M 494.1768,600.76808 C 490.76134,599.05234 489.9268,598.1056 489.9268,595.94675 C 489.9268,594.1227 490.55387,593.09641 491.88032,592.74953 C 494.77886,591.99155 497.35616,594.27724 496.64959,596.97917 C 496.09777,599.08934 496.29151,599.18972 499.74386,598.58239 C 509.48367,596.86899 511.53243,596.84702 512.85599,598.44181 C 513.9939,599.81291 513.85111,600.02859 511.79924,600.03795 C 510.4944,600.04391 507.21778,600.71891 504.51787,601.53795 C 498.61648,603.3282 499.38735,603.38559 494.1768,600.76808 z M 519.49823,598.4557 C 517.52465,596.48212 517.52465,595.57214 519.49823,593.59856 C 521.35732,591.73947 521.49098,591.72352 523.99254,593.06231 C 526.48108,594.39414 526.48108,597.66012 523.99254,598.99195 C 521.49098,600.33074 521.35732,600.31479 519.49823,598.4557 z M 513.94211,596.36602 C 513.93369,595.17742 512.5768,593.06897 510.9268,591.68058 C 508.98407,590.04588 507.9268,588.22289 507.9268,586.50784 C 507.9268,583.91682 508.01349,583.95239 511.9268,588.14904 C 516.01403,592.53219 516.63811,594.37907 514.9268,597.02713 C 514.1365,598.25004 513.9546,598.12791 513.94211,596.36602 z M 507.26197,577.45818 C 506.32821,575.02485 508.23977,572.52713 511.03579,572.52713 C 513.0258,572.52713 513.4268,573.03026 513.4268,575.52713 C 513.4268,578.05801 512.99588,578.5767 510.67111,578.8441 C 508.79474,579.05993 507.70692,578.6177 507.26197,577.45818 z M 503.9268,574.30883 C 503.9268,573.29885 502.5768,571.28789 500.9268,569.84004 C 497.62713,566.94463 497.26392,564.81069 499.4268,561.02713 L 500.85593,558.52713 L 500.89136,561.08285 C 500.91085,562.4885 502.0518,565.16342 503.4268,567.02713 C 505.99892,570.51344 506.69125,574.43664 504.9268,575.52713 C 504.3768,575.86705 503.9268,575.31881 503.9268,574.30883 z M 279.00554,552.47035 L 276.72978,547.91357 L 279.07829,542.48742 C 280.36997,539.50303 281.67056,537.05358 281.96848,537.0442 C 282.26641,537.03481 283.7115,539.4766 285.17979,542.4704 L 287.84942,547.91367 L 285.30262,552.4704 C 283.90187,554.9766 282.42405,557.02713 282.01856,557.02713 C 281.61307,557.02713 280.25722,554.97658 279.00554,552.47035 z M 501.00204,553.16772 C 500.45472,552.14504 500.27135,549.67876 500.59456,547.68708 C 500.99743,545.20446 500.67041,543.28478 499.5545,541.58168 C 497.44299,538.35911 497.49155,535.731 499.69953,533.73281 C 501.36653,532.22419 501.47225,532.35199 501.47225,535.87569 C 501.47225,538.37089 502.21829,540.42363 503.70515,542.01959 C 505.06777,543.48219 505.71472,545.11999 505.36504,546.22173 C 505.04988,547.2147 505.24202,548.02713 505.79202,548.02713 C 507.41218,548.02713 508.19586,551.998 506.88697,553.57512 C 505.20908,555.59686 502.19023,555.38787 501.00204,553.16772 z M 506.04678,527.25131 C 504.70525,524.74464 506.48932,522.02713 509.47649,522.02713 C 511.71752,522.02713 511.9268,521.63891 511.9268,517.48168 C 511.9268,513.98897 512.49528,512.36774 514.38135,510.48168 C 515.73135,509.13168 517.49454,508.02713 518.29956,508.02713 C 519.10457,508.02713 520.58753,507.74824 521.59501,507.40737 C 522.61646,507.06178 521.74524,508.3871 519.62562,510.40328 C 516.16274,513.69715 515.86303,514.39756 516.25806,518.27304 C 516.63397,521.96092 516.28193,522.9597 513.61308,525.77713 C 510.18275,529.39842 507.47792,529.92542 506.04678,527.25131 z M 279.03382,510.03226 L 276.64084,505.11509 L 279.03382,499.58818 C 280.34996,496.54837 281.67056,494.05358 281.96848,494.0442 C 282.26641,494.03481 283.70295,496.45918 285.16081,499.43169 L 287.81146,504.83625 L 285.11913,509.92328 C 283.63835,512.72114 282.2018,514.99661 281.9268,514.97987 C 281.6518,514.96313 280.34996,512.7367 279.03382,510.03226 z M 573.57344,508.21922 L 571.0363,505.68209 L 573.04965,502.85461 C 574.15698,501.2995 575.52403,500.02713 576.08752,500.02713 C 577.50117,500.02713 592.05313,505.23413 591.6806,505.60667 C 591.51515,505.77211 587.94421,506.99847 583.74518,508.33191 L 576.11057,510.75635 L 573.57344,508.21922 z M 528.63938,504.40637 C 527.11448,502.88147 527.95951,499.15152 529.97479,498.5119 C 532.6015,497.67821 535.10911,499.75162 534.72506,502.43962 C 534.42487,504.54063 530.15391,505.9209 528.63938,504.40637 z M 523.05436,500.68286 C 522.27248,499.73959 520.22854,499.02713 518.30436,499.02713 C 514.381,499.02713 510.9268,496.11373 510.9268,492.80462 L 510.9268,490.58212 L 512.3876,492.6677 C 513.31325,493.98925 515.37851,494.95851 518.02518,495.3135 C 522.73172,495.94478 525.28635,497.93283 524.77289,500.56466 C 524.45234,502.20768 524.32552,502.2164 523.05436,500.68286 z M 510.68867,485.77713 C 509.79746,485.08963 508.92395,483.40696 508.74754,482.03787 C 508.50885,480.1854 507.21169,478.97277 503.6768,477.29759 C 499.09032,475.12405 498.92832,474.89991 498.971,470.78684 L 499.01519,466.52713 L 500.99264,470.27275 C 502.24602,472.64686 504.24374,474.55054 506.44844,475.47173 C 508.43661,476.30244 509.9268,477.6354 509.9268,478.58309 C 509.9268,479.64604 510.46515,480.03452 511.4268,479.6655 C 512.2518,479.34892 513.6018,479.34892 514.4268,479.6655 C 516.43823,480.43736 516.37522,485.64108 514.34501,486.42014 C 512.33246,487.19243 512.57971,487.23591 510.68867,485.77713 z M 279.00554,467.47035 L 276.72978,462.91357 L 279.07829,457.48742 C 280.36997,454.50303 281.67056,452.05358 281.96848,452.0442 C 282.26641,452.03481 283.7115,454.4766 285.17979,457.4704 L 287.84942,462.91367 L 285.30262,467.4704 C 283.90187,469.9766 282.42405,472.02713 282.01856,472.02713 C 281.61307,472.02713 280.25722,469.97658 279.00554,467.47035 z M 501.44072,460.39819 C 500.48034,459.43781 500.09338,458.10393 500.49789,457.14819 C 502.20002,453.12657 501.98991,451.43505 499.49738,449.09344 C 496.93233,446.6837 496.3858,444.60053 497.53379,441.60892 C 498.48304,439.13521 499.9268,439.75293 499.9268,442.63277 C 499.9268,444.06588 501.07577,446.60389 502.48006,448.27279 C 503.88435,449.9417 504.80111,451.9123 504.5173,452.6519 C 504.23349,453.39149 504.88452,454.46932 505.96404,455.04706 C 508.16893,456.22708 508.53708,459.01685 506.7268,460.82713 C 505.08348,462.47045 503.37429,462.33176 501.44072,460.39819 z M 505.1268,435.82713 C 503.27226,433.97259 503.70393,431.21677 506.04525,429.96374 C 507.83764,429.00448 508.07909,428.19922 507.61402,424.73184 C 507.2553,422.0574 507.62149,419.39929 508.66811,417.08042 L 510.27188,413.52713 L 511.02021,420.02713 C 511.93976,428.01426 511.20196,434.11951 509.11688,435.77713 C 507.16481,437.32901 506.63532,437.33565 505.1268,435.82713 z M 279.01742,422.22061 L 276.76617,417.41409 L 279.03387,412.22061 C 280.28111,409.3642 281.55475,407.03092 281.86419,407.03554 C 282.17362,407.04017 283.64438,409.34443 285.13254,412.15613 L 287.83828,417.26831 L 285.36569,422.14772 C 284.00577,424.83139 282.52761,427.02713 282.08089,427.02713 C 281.63417,427.02713 280.25561,424.8642 279.01742,422.22061 z M 362.74866,414.97296 C 354.69579,412.76462 349.71043,404.52713 356.4268,404.52713 C 359.26056,404.52713 359.42004,404.73994 359.30471,408.36765 L 359.18262,412.20817 L 363.30471,411.71812 C 365.57186,411.44859 369.25399,410.66266 371.48722,409.97161 C 373.99366,409.19602 376.67266,409.02136 378.48722,409.51524 L 381.4268,410.31533 L 377.50511,411.19127 C 375.34818,411.67304 373.02929,412.5271 372.35203,413.08918 C 370.26478,414.82145 365.56088,415.74416 362.74866,414.97296 z M 395.98717,414.62229 C 394.09537,413.94417 392.37037,412.85785 392.15384,412.20824 C 391.9373,411.55863 390.95273,411.02713 389.96591,411.02713 C 387.64431,411.02713 385.6666,408.61677 386.10792,406.32517 C 386.34904,405.07315 387.36106,404.52713 389.4405,404.52713 C 392.17455,404.52713 392.41429,404.80221 392.27864,407.78364 C 392.15464,410.50933 392.5523,411.14602 394.71822,411.68963 C 396.14148,412.04684 399.13315,411.77734 401.36638,411.09074 C 407.63493,409.16348 412.97404,408.67437 414.2135,409.91383 C 415.03123,410.73156 414.67243,411.02713 412.86199,411.02713 C 411.50635,411.02713 408.82885,411.86415 406.91199,412.88716 C 401.69403,415.67197 399.76864,415.97777 395.98717,414.62229 z M 429.38924,414.88946 C 425.54482,413.86504 420.62813,408.8165 421.09813,406.376 C 421.34969,405.06974 422.33061,404.52713 424.4405,404.52713 C 426.95491,404.52713 427.4768,404.96168 427.74322,407.27713 C 427.91725,408.78963 427.57975,410.02713 426.99322,410.02713 C 426.40669,410.02713 425.9268,410.52244 425.9268,411.12782 C 425.9268,412.43683 432.4657,411.83491 438.48722,409.97161 C 440.99366,409.19602 443.67266,409.02136 445.48722,409.51524 L 448.4268,410.31533 L 444.50511,411.19127 C 442.34818,411.67304 440.02929,412.5271 439.35203,413.08918 C 437.19282,414.88117 432.52411,415.72481 429.38924,414.88946 z M 462.61287,414.95997 C 461.0652,414.52323 459.10471,413.58975 458.25621,412.88556 C 457.40772,412.18137 455.74899,411.12435 454.57015,410.53664 C 453.24577,409.87636 452.4268,408.5241 452.4268,406.9976 C 452.4268,405.06124 453.00681,404.46012 455.10954,404.2172 C 458.14636,403.86636 460.37603,406.68223 458.92301,409.03327 C 458.44767,409.80237 458.28063,410.79062 458.5518,411.22938 C 459.35765,412.53327 466.2313,412.06801 468.9268,410.52713 C 471.59647,409.00101 476.65352,408.6013 479.4953,409.69179 C 480.75797,410.17632 480.03487,410.68045 476.82708,411.55199 C 474.40693,412.20954 470.8518,413.424 468.9268,414.25079 C 466.59806,415.25099 464.48513,415.48831 462.61287,414.95997 z M 292.39208,414.07561 C 290.41691,413.27499 287.09981,410.02713 288.2573,410.02713 C 288.57377,410.02713 290.00868,410.56295 291.446,411.21783 C 293.6313,412.21352 295.15395,412.03354 300.74305,410.11889 C 306.54214,408.1323 307.82388,407.99677 310.4268,409.09495 L 313.4268,410.36067 L 309.4268,411.00509 C 307.2268,411.35952 303.98665,412.40947 302.22646,413.33832 C 298.78488,415.15443 295.63602,415.3905 292.39208,414.07561 z M 323.4268,412.16693 C 319.57159,410.01237 318.4268,408.81788 318.4268,406.94985 C 318.4268,404.92461 318.91898,404.52713 321.4268,404.52713 C 324.1548,404.52713 324.4257,404.82548 324.4147,407.81779 C 324.39881,412.14009 327.40833,412.95745 334.4837,410.55245 C 340.48262,408.51336 344.58534,408.28567 346.2018,409.90213 C 347.03513,410.73546 346.61647,411.02713 344.58696,411.02713 C 343.08005,411.02713 340.08298,411.92713 337.9268,413.02713 C 332.68619,415.70069 329.40115,415.50581 323.4268,412.16693 z M 491.1768,411.92775 C 488.8393,410.27214 486.9268,408.52901 486.9268,408.05413 C 486.9268,405.66848 488.38262,404.02713 490.49861,404.02713 C 493.21165,404.02713 495.21076,406.94964 493.92301,409.03327 C 491.80482,412.46056 496.76121,413.11703 501.4268,410.02713 C 504.62698,407.90774 509.40675,407.37665 510.4268,409.02713 C 510.76672,409.57713 510.4307,410.02713 509.6801,410.02713 C 508.92949,410.02713 506.79051,411.15213 504.9268,412.52713 C 500.45402,415.82704 496.43471,415.65184 491.1768,411.92775 z M 516.96667,409.57517 C 516.30391,408.77659 515.9159,407.31409 516.10444,406.32517 C 516.57149,403.87538 520.96803,403.36303 522.58203,405.5703 C 525.27561,409.25399 519.88867,413.09596 516.96667,409.57517 z M 573.40295,405.21799 L 570.96874,402.59279 L 573.47143,399.98054 L 575.97413,397.36829 L 583.92819,399.88665 C 588.30293,401.27174 591.7692,402.51806 591.63102,402.65624 C 591.49284,402.79442 587.8827,404.01801 583.60848,405.37533 L 575.83717,407.84318 L 573.40295,405.21799 z " id="path2377"/>
      <path style="fill: rgb(249, 209, 0); fill-opacity: 1;" d="M 483.81856,586.12033 C 483.23174,584.35987 479.60262,583.56984 471.05937,583.34275 C 466.93437,583.2331 462.43437,582.7831 461.05937,582.34275 L 458.55937,581.54211 L 461.36196,581.44243 C 465.09142,581.30978 477.17739,578.52279 479.03041,577.36813 C 482.26434,575.353 478.79911,575.3587 468.93209,577.38475 C 462.48841,578.70787 456.91898,579.29575 454.22873,578.93677 C 448.51193,578.17394 449.02029,580.0274 455.40432,583.22297 C 458.99875,585.02218 462.64926,585.7793 470.35942,586.32468 C 475.96939,586.7215 481.38437,587.1129 482.3927,587.19446 C 483.43596,587.27884 484.05044,586.81595 483.81856,586.12033 z M 330.0035,581.11155 C 333.37693,580.27353 334.54304,580.29375 334.84361,581.19546 C 335.07814,581.89905 336.06475,581.33434 337.26348,579.8104 C 338.37662,578.39526 339.03238,576.98243 338.72072,576.67077 C 338.40906,576.3591 334.98667,576.88031 331.11543,577.82901 C 325.86263,579.11628 321.04339,579.4637 312.12106,579.19833 C 301.7873,578.89099 300.50506,579.02073 302.66956,580.15466 C 308.71632,583.32243 319.57356,583.70251 330.0035,581.11155 z M 392.31782,577.34275 C 392.80249,575.41775 394.54413,572.14865 396.18811,570.07809 C 399.66297,565.70159 402.79783,557.36881 404.17703,548.84275 C 406.60873,533.81026 406.66744,535.14367 403.59014,535.51258 C 401.5604,535.75592 400.27368,536.89476 398.69772,539.84275 C 397.52163,542.04275 396.44687,544.03025 396.30937,544.25942 C 395.61012,545.42484 395.15762,543.05204 394.60771,535.33626 C 393.52261,520.11126 392.95568,516.50158 391.45378,515.25511 C 388.79234,513.04632 388.02618,515.67178 387.37804,529.22182 C 386.98811,537.37377 386.40667,541.95155 385.8633,541.14759 C 385.03784,539.92624 385.30636,532.71156 386.68726,519.00906 C 387.26081,513.31785 387.21765,513.18352 384.92022,513.50906 C 382.6981,513.82393 382.49659,514.46319 381.34758,524.84275 C 380.67786,530.89275 379.71663,538.31775 379.21154,541.34275 C 378.39026,546.26132 378.28082,546.44014 378.17627,543.0343 C 378.11198,540.93966 378.47956,536.21466 378.99312,532.5343 C 381.02287,517.98846 381.09093,516.34275 379.66268,516.34275 C 376.94081,516.34275 375.95129,519.40426 374.28187,532.99066 C 373.34572,540.60931 372.42687,545.5437 372.23996,543.95596 C 372.05305,542.36823 372.38637,537.45614 372.98066,533.0402 C 373.57495,528.62427 373.79899,524.74903 373.47852,524.42856 C 369.9629,520.91294 365.01515,552.91615 367.90742,560.46379 C 368.45983,561.90536 369.66964,567.20856 370.59589,572.24867 L 372.27997,581.41251 L 381.85828,581.12763 L 391.43659,580.84275 L 392.31782,577.34275 z M 393.39519,565.77551 C 392.44027,563.28702 393.76943,552.13998 395.12066,551.30487 C 395.79469,550.8883 396.09877,549.6014 395.79639,548.44511 C 395.49401,547.28881 395.65448,546.34275 396.15299,546.34275 C 397.41835,546.34275 397.28487,550.05288 395.92831,552.58763 C 395.30623,553.75 394.81607,557.54541 394.83907,561.02189 C 394.88122,567.39544 394.49931,568.6528 393.39519,565.77551 z M 332.43257,574.79653 C 334.01283,574.64715 336.03783,573.75649 336.93257,572.81731 C 338.46206,571.21184 338.17058,571.16153 332.05937,571.97622 C 322.77126,573.21444 308.30104,572.98442 306.89279,571.57617 C 306.00232,570.6857 306.06155,570.30456 307.14215,569.97147 C 312.80382,568.22629 312.75129,568.29006 309.80937,566.7337 C 306.20656,564.82771 306.33784,563.55126 310.30937,561.87212 L 313.55937,560.49805 L 310.80937,559.44515 C 307.38659,558.13466 307.30421,556.64395 310.57228,555.15491 L 313.08519,554.00996 L 309.82228,551.25204 C 306.92241,548.80098 306.72626,548.32743 308.05937,546.99587 C 308.88437,546.17183 311.61016,545.19968 314.11667,544.83554 C 320.14009,543.96046 321.23393,545.38226 321.84339,554.87898 C 322.32879,562.44257 323.49077,564.45643 324.66652,559.77184 C 325.32455,557.15007 324.68021,550.12419 323.49958,547.04754 C 322.93793,545.58389 323.53948,545.34275 327.75238,545.34275 C 330.45123,545.34275 333.16016,545.84354 333.77224,546.45562 C 335.09312,547.7765 337.05937,546.80354 337.05937,544.82905 C 337.05937,543.4024 333.84383,542.56643 326.55937,542.09927 L 322.55937,541.84275 L 321.64688,536.08857 C 321.14501,532.92377 320.92001,530.15027 321.14688,529.92524 C 321.37375,529.7002 324.93437,529.89528 329.05937,530.35875 C 334.9165,531.01683 336.86435,530.90409 337.95165,529.84409 C 339.13273,528.69266 338.82933,528.4002 335.95165,527.91613 C 334.0859,527.60228 330.30937,527.23237 327.55937,527.09412 C 323.89331,526.90981 322.55937,526.44257 322.55937,525.34275 C 322.55937,524.37192 323.50979,523.85512 325.25345,523.87783 C 327.33643,523.90495 327.70561,523.62142 326.881,522.62783 C 325.10055,520.48251 321.24766,521.12575 319.45066,523.86832 C 317.68649,526.56078 317.10888,526.54265 310.14648,523.57626 L 306.55937,522.04794 L 310.03273,520.60134 C 316.75444,517.80184 336.18296,517.71573 334.46648,520.49304 C 334.06787,521.13801 334.65853,521.09245 335.99946,520.37481 C 337.19925,519.7327 338.0015,518.67531 337.78224,518.02505 C 337.50006,517.18821 333.15862,516.84275 322.92418,516.84275 C 311.06873,516.84275 308.00389,517.14513 305.90547,518.52185 C 303.59726,520.0362 303.19454,520.04934 301.80097,518.65578 C 299.28184,516.13665 297.87192,517.43404 299.57178,520.70706 C 300.38995,522.28243 301.05937,524.89227 301.05937,526.50672 C 301.05937,529.77236 303.40437,534.95775 305.14334,535.53741 C 305.76266,535.74385 306.83992,537.57234 307.53724,539.60071 C 308.68814,542.94846 308.63255,543.34344 306.93456,543.88236 C 304.29663,544.71961 303.42704,548.98655 305.44085,551.21179 C 307.43348,553.41362 307.49338,554.34275 305.6427,554.34275 C 303.73846,554.34275 303.10926,556.41563 304.30816,558.73939 C 305.04477,560.16711 304.88774,560.85929 303.67303,561.53908 C 301.55228,562.72591 301.61831,564.99576 303.80937,566.22581 C 305.47604,567.16147 305.47604,567.24036 303.80937,567.88249 C 301.6164,568.72739 301.54407,571.6702 303.67285,573.43693 C 306.80533,576.03666 315.14417,576.43087 332.43257,574.79653 z M 310.28103,540.55829 C 308.82643,538.33829 308.89241,538.05289 311.3972,535.73031 C 314.17923,533.15067 314.66414,531.83455 313.17228,530.91253 C 312.68437,530.61099 312.34687,531.12969 312.42228,532.0652 C 312.61053,534.40084 309.47475,534.84494 306.5102,532.90249 C 304.6637,531.69261 304.05937,530.41292 304.05937,527.71271 C 304.05937,524.8994 304.38988,524.2556 305.59645,524.71861 C 306.44185,525.04302 309.55593,526.01265 312.51662,526.87335 C 317.739,528.39153 317.91862,528.56371 318.53307,532.6405 C 318.88142,534.95174 319.39219,538.03061 319.66813,539.48245 C 320.13696,541.94919 319.89652,542.14821 315.99842,542.51995 C 312.47865,542.85562 311.58551,542.54917 310.28103,540.55829 z M 477.96927,570.42753 C 481.54555,568.45931 478.46356,567.11625 473.5096,568.4841 C 471.38573,569.07053 466.25307,570.15163 462.10369,570.88655 L 454.55937,572.22277 L 465.05937,571.9883 C 471.47804,571.84496 476.4961,571.23829 477.96927,570.42753 z M 480.05937,563.45404 C 480.05937,561.84964 472.85872,561.17114 463.37652,561.88205 C 456.7554,562.37846 454.05937,562.25682 454.05937,561.46167 C 454.05937,560.84626 454.46123,560.34275 454.95238,560.34275 C 457.87204,560.34275 456.65542,554.16919 453.49691,552.95715 C 451.17782,552.06724 449.42057,553.40576 451.43095,554.53082 C 453.55703,555.72063 453.48497,556.93631 451.08892,560.30126 C 450.00516,561.82324 449.40516,563.35521 449.75558,563.70563 C 450.7478,564.69785 480.05937,564.4545 480.05937,563.45404 z M 334.55937,555.34275 C 334.55937,551.5997 332.60145,550.16183 331.78031,553.30186 C 331.05852,556.06202 332.05252,559.5117 333.43669,559.05031 C 334.05417,558.84448 334.55937,557.17608 334.55937,555.34275 z M 477.25796,557.34275 C 478.94961,557.34275 479.91749,556.92219 479.55937,556.34275 C 479.21945,555.79275 477.91789,555.34275 476.66702,555.34275 C 473.22822,555.34275 472.71134,554.1294 475.26432,552.05 L 477.55937,550.18068 L 473.55937,550.75071 C 471.35937,551.06423 468.52031,551.32569 467.25035,551.33174 C 465.9677,551.33786 465.21605,551.78725 465.55937,552.34275 C 465.89929,552.89275 467.27585,553.34275 468.61839,553.34275 C 472.06508,553.34275 471.65789,555.27305 468.05937,555.99275 C 463.10306,556.98401 464.51128,558.68972 469.69894,557.97867 C 472.25071,557.62892 475.65226,557.34275 477.25796,557.34275 z M 481.53817,544.37705 C 481.86643,543.84591 481.23779,541.65265 480.14119,539.50314 L 478.14738,535.59493 L 481.10337,532.96113 C 484.54871,529.89132 484.86926,528.34275 482.05937,528.34275 C 480.95937,528.34275 480.05937,528.741 480.05937,529.22774 C 480.05937,529.71448 478.85734,530.90033 477.38819,531.86296 C 474.86517,533.5161 474.54161,533.51872 471.55483,531.91024 C 464.09607,527.89343 455.67249,528.20161 452.58885,532.60412 C 450.33828,535.81726 450.70598,538.1432 453.98245,541.41967 C 458.34282,545.78005 465.43626,545.17483 472.69809,539.82282 C 474.73599,538.32088 474.94019,538.41384 477.02965,541.79466 C 479.26393,545.40981 480.47218,546.10186 481.53817,544.37705 z M 456.71436,538.51401 C 454.37408,535.92803 454.65393,534.4474 457.70203,533.28851 C 460.95287,532.05254 471.42665,534.73323 470.79788,536.6403 C 469.59942,540.27528 459.52166,541.61605 456.71436,538.51401 z M 472.05937,524.37146 C 475.63437,523.67868 479.45937,522.7614 480.55937,522.33306 C 482.51147,521.57293 482.51336,521.53563 480.63831,520.77588 C 479.51826,520.32205 474.06901,520.90339 467.56928,522.17012 C 461.43789,523.36507 455.34987,524.34275 454.04034,524.34275 C 452.58891,524.34275 452.03025,524.69526 452.60937,525.24569 C 454.74492,527.27543 457.77724,527.13914 472.05937,524.37146 z M 467.49427,519.3675 C 471.39898,517.88293 470.55479,516.46661 466.11977,517.06147 C 458.17047,518.1277 453.32218,514.36915 460.30937,512.55706 L 463.55937,511.71419 L 460.30937,510.58049 C 456.1711,509.13693 456.1711,507.64542 460.30937,506.50174 L 463.55937,505.60355 L 460.80937,504.4979 C 457.08087,502.99884 457.33975,501.34948 461.30937,501.31234 C 464.03498,501.28684 464.27237,501.11487 462.78061,500.24656 C 461.8023,499.6771 460.0023,499.35374 458.78061,499.52798 C 457.04351,499.77573 456.6004,500.44395 456.74763,502.59377 C 456.85118,504.10571 456.56182,505.34275 456.10462,505.34275 C 454.60115,505.34275 454.00013,508.56645 455.22781,510.04571 C 456.17464,511.18657 456.13719,511.67662 455.05192,512.34735 C 453.94286,513.03279 453.90494,513.70839 454.8581,515.80035 C 456.6974,519.83719 462.18464,521.38622 467.49427,519.3675 z M 478.56026,510.33751 C 479.32454,505.81376 480.14106,505.33694 481.57224,508.57863 C 482.67922,511.08598 486.98127,512.97043 489.44236,512.02603 C 491.50446,511.23472 491.69015,505.34275 489.65299,505.34275 C 488.73894,505.34275 488.4297,506.04289 488.76962,507.34275 C 489.16351,508.84899 488.8003,509.34275 487.29845,509.34275 C 484.84176,509.34275 483.67071,507.93151 482.11214,503.09275 C 480.67731,498.63814 479.57442,498.3519 478.25913,502.09275 C 477.36461,504.63685 477.23388,504.69301 476.51307,502.84275 C 476.08454,501.74275 474.91282,499.65625 473.90925,498.20608 C 472.11108,495.60771 472.11707,495.56071 474.32198,494.96974 C 475.55254,494.63992 479.59687,494.36392 483.30937,494.3564 C 490.07905,494.34271 492.31276,492.94642 487.49811,491.73802 C 486.08942,491.38446 481.36103,491.40711 476.99057,491.78835 C 469.1081,492.47595 469.02025,492.45748 466.05183,489.48905 C 464.40598,487.8432 463.05937,486.01198 463.05937,485.41967 C 463.05937,484.09397 465.72356,483.99038 466.52366,485.28497 C 466.84394,485.8032 469.008,486.45963 471.33268,486.74372 C 482.34413,488.08938 488.05937,488.36511 488.05937,487.55069 C 488.05937,486.17752 480.87806,484.34275 475.50346,484.34275 C 471.61954,484.34275 469.34632,483.53717 463.83711,480.20846 C 456.66316,475.87389 454.05468,475.58036 458.38667,479.59512 C 460.16283,481.24121 460.9088,482.93381 460.84512,485.17337 C 460.78592,487.25575 461.5736,489.26122 463.08085,490.86562 L 465.408,493.34275 L 461.7927,493.34275 C 459.80429,493.34275 457.90247,493.7876 457.56645,494.3313 C 457.22563,494.88276 457.59534,495.07431 458.40262,494.76453 C 463.21176,492.91909 472.30154,499.1182 473.65994,505.16982 C 476.19274,516.45333 477.32522,517.64761 478.56026,510.33751 z M 306.05937,511.22356 C 306.05937,509.80934 298.98121,498.08758 298.44875,498.62003 C 298.04835,499.02044 301.45888,509.56213 302.571,511.36157 C 303.40289,512.7076 306.05937,512.6025 306.05937,511.22356 z M 321.62977,508.87565 C 322.79989,507.08982 323.06093,505.31143 322.57505,502.43555 C 321.917,498.54061 321.96983,498.45017 325.26387,497.83221 C 327.1119,497.48552 330.36198,497.34606 332.48628,497.5223 C 334.92536,497.72467 336.5103,497.38213 336.78734,496.59275 C 337.11925,495.64701 334.79968,495.34275 327.25771,495.34275 C 317.71478,495.34275 317.21913,495.23552 315.64294,492.82995 C 314.06296,490.4186 314.0886,490.2827 316.27793,489.46364 C 321.19305,487.62484 332.22458,486.23497 333.50037,487.29379 C 334.40828,488.04728 335.25592,487.78305 336.56257,486.33922 C 338.35269,484.36115 338.30167,484.34275 331.02825,484.34275 C 326.99064,484.34275 320.85856,485.05213 317.40139,485.91916 C 310.23564,487.71626 308.90812,487.23715 304.5007,481.26322 C 299.84387,474.95125 302.43089,467.5832 308.96711,468.54252 C 312.75021,469.09776 312.02896,467.71462 308.08351,466.84805 C 304.18872,465.99261 299.94025,468.13563 298.82465,471.51842 C 297.16584,476.54841 299.47366,481.38938 307.18471,489.05478 L 314.34124,496.16895 L 312.20031,498.89071 C 311.02279,500.38768 310.05937,502.81693 310.05937,504.28905 C 310.05937,510.57639 318.35954,513.86665 321.62977,508.87565 z M 313.4489,506.91548 C 312.54819,504.56825 313.44539,501.11844 315.25083,499.98692 C 317.24402,498.73773 321.05937,501.5693 321.05937,504.29774 C 321.05937,507.90452 314.67158,510.1017 313.4489,506.91548 z M 334.87179,508.07824 C 335.26978,506.01166 332.38298,504.61914 330.85937,506.14275 C 329.33576,507.66636 330.72828,510.55316 332.79486,510.15517 C 333.75271,509.97071 334.68733,509.03609 334.87179,508.07824 z M 399.02397,489.85524 C 404.34975,487.9762 409.9898,483.5156 412.50901,479.19021 L 414.45865,475.84275 L 411.13913,478.62906 C 405.4885,483.37205 402.00203,484.69677 395.05937,484.73878 C 387.16127,484.78657 381.9446,482.36315 376.66284,476.19259 C 370.44337,468.92654 369.27486,459.31648 373.56423,450.70884 C 376.47098,444.87575 379.12756,442.14472 384.61632,439.34701 C 388.15911,437.54119 388.25484,437.40045 385.55937,437.96059 C 373.02583,440.56513 364.44623,449.98484 363.32277,462.37456 C 361.56558,481.75318 380.55621,496.37105 399.02397,489.85524 z M 480.05937,481.34275 C 480.05937,480.79275 478.52117,480.34275 476.64116,480.34275 C 468.79897,480.34275 467.66669,477.59864 475.30937,477.11513 L 480.55937,476.783 L 475.30937,475.93405 C 472.42187,475.46712 470.05937,474.69306 470.05937,474.21392 C 470.05937,473.38709 473.61267,472.92145 477.22078,473.27545 C 478.13456,473.3651 479.17361,472.96692 479.5298,472.3906 C 479.94865,471.71288 478.39043,471.34275 475.11839,471.34275 C 469.70534,471.34275 468.85674,470.5749 472.05937,468.57482 C 476.71705,465.66606 472.35768,460.29811 466.52634,461.76168 C 464.2145,462.34192 463.90682,462.85003 464.2893,465.45602 C 464.70315,468.27572 464.55995,468.43448 462.14607,467.83226 C 458.26096,466.863 456.05937,464.38731 456.05937,460.98776 C 456.05937,458.7322 455.7677,458.23442 454.93437,459.06775 C 451.15635,462.84577 456.17201,469.96906 463.0155,470.54467 C 465.75083,470.77474 466.58263,471.29905 466.66131,472.84275 C 466.71738,473.94275 466.8817,475.29275 467.02646,475.84275 C 467.17123,476.39275 467.22239,477.55458 467.14015,478.4246 C 467.05791,479.29462 468.01859,480.50166 469.275,481.10692 C 472.16567,482.49947 480.05937,482.67209 480.05937,481.34275 z M 466.72604,467.67608 C 466.35937,467.30942 466.05937,466.18442 466.05937,465.17608 C 466.05937,463.14885 470.43518,462.52377 471.58644,464.38656 C 472.91708,466.53957 468.54712,469.49717 466.72604,467.67608 z M 328.80104,479.21806 C 326.42317,477.88733 326.61481,475.76754 329.28188,473.89945 C 331.12507,472.60843 331.20809,472.34275 329.76831,472.34275 C 328.81347,472.34275 327.17168,472.88017 326.11989,473.53702 C 324.65099,474.45437 323.61068,474.45934 321.63346,473.55846 C 320.03262,472.82907 319.05937,472.76372 319.05937,473.38563 C 319.05937,473.93563 320.27548,474.93848 321.76183,475.61419 C 323.24818,476.2899 325.52546,477.90298 326.82244,479.19881 C 328.11942,480.49464 329.48706,481.24839 329.86165,480.87381 C 330.23623,480.49922 329.75896,479.75414 328.80104,479.21806 z M 408.55937,463.34275 L 410.2201,458.34275 L 415.38974,458.29781 L 420.55937,458.25287 L 416.41995,454.75963 L 412.28053,451.26638 L 414.19393,446.23073 C 416.22313,440.89033 416.04889,440.83385 410.46498,445.0219 C 408.76306,446.29837 407.13744,447.34275 406.85248,447.34275 C 406.56753,447.34275 404.62831,445.98694 402.54312,444.32984 C 400.45793,442.67274 398.61633,441.45246 398.45067,441.61812 C 398.28501,441.78377 398.78445,443.70209 399.56053,445.88103 C 401.57719,451.54306 401.50751,451.77299 396.80937,454.95986 L 392.55937,457.84275 L 398.05937,458.34275 L 403.55937,458.84275 L 404.98567,463.59275 C 405.77014,466.20525 406.52148,468.34275 406.65531,468.34275 C 406.78914,468.34275 407.64597,466.09275 408.55937,463.34275 z M 328.91114,464.12191 C 332.19798,463.31538 333.44502,463.3487 334.00704,464.25808 C 334.51981,465.08775 335.29027,464.63929 336.48517,462.81565 C 337.43887,461.36012 337.99461,459.94466 337.72014,459.67018 C 337.44567,459.39571 334.05401,459.94091 330.18312,460.88173 C 324.83573,462.18142 320.23921,462.48871 311.04768,462.161 C 300.19246,461.77397 299.22629,461.87432 301.63859,463.13825 C 307.61165,466.26785 318.55696,466.66263 328.91114,464.12191 z M 477.3709,457.9733 C 477.77367,456.9237 476.17307,456.44768 470.51789,455.93522 C 466.4597,455.56748 461.73923,454.77851 460.02796,454.18196 C 456.39622,452.91592 454.53896,449.18366 456.09441,446.27728 C 457.62298,443.42112 455.45397,443.81088 453.53679,446.73686 C 449.19049,453.37016 457.4272,458.88452 472.20238,459.23318 C 475.29172,459.30609 477.02124,458.8845 477.3709,457.9733 z M 327.05937,455.28373 C 327.05937,454.76619 325.37187,454.33586 323.30937,454.32744 C 321.24687,454.31902 318.93922,453.91933 318.18126,453.43924 C 315.77261,451.91363 318.02362,450.34275 322.61839,450.34275 C 328.28646,450.34275 328.44194,448.55778 322.80937,448.15025 C 319.83493,447.93504 318.55937,447.39255 318.55937,446.34275 C 318.55937,445.29295 319.83493,444.75046 322.80937,444.53525 C 328.46125,444.12632 328.29729,442.24526 322.30937,438.79898 C 319.69687,437.29539 316.77187,435.38288 315.80937,434.54897 C 313.76596,432.77856 313.52418,429.31955 315.30937,427.39557 C 316.33209,426.29334 316.22631,426.16606 314.72758,426.69557 C 313.7201,427.05152 312.7076,427.34275 312.47758,427.34275 C 312.24757,427.34275 312.05937,428.83356 312.05937,430.65566 C 312.05937,434.07445 315.08946,437.82789 319.80937,440.25575 C 322.74859,441.76764 322.68351,443.34275 319.68181,443.34275 C 316.37173,443.34275 314.39335,445.83532 316.08531,447.87401 C 317.13098,449.13397 317.05445,449.62586 315.65333,450.65039 C 313.05212,452.55244 314.69691,455.19806 318.90592,455.88214 C 320.91532,456.20873 323.23437,456.59179 324.05937,456.7334 C 325.93067,457.05461 327.05937,456.5092 327.05937,455.28373 z M 309.53817,454.37705 C 310.09957,453.46869 307.48625,447.66069 305.02323,444.34275 C 304.16823,443.19098 304.05757,443.734 304.54657,446.68182 C 305.66616,453.43101 307.94839,456.94937 309.53817,454.37705 z M 476.05937,451.34275 C 476.05937,450.75193 472.88825,450.39116 468.30937,450.46107 C 462.61592,450.54798 461.35546,450.78195 463.55937,451.34275 C 468.04565,452.48432 476.05937,452.48432 476.05937,451.34275 z M 342.58027,446.05312 C 341.20814,444.20294 335.46737,445.81625 334.79034,446.09017 C 334.11331,446.3641 334.90937,448.16818 336.55937,448.1478 C 338.20937,448.12742 343.55324,446.30666 342.58027,446.05312 z M 473.05937,444.99293 C 473.05937,444.13145 470.61738,443.13656 466.30937,442.24293 C 462.59687,441.47283 459.55937,440.39275 459.55937,439.84275 C 459.55937,439.29275 462.93437,438.61775 467.05937,438.34275 C 475.38854,437.78747 475.3855,436.93451 467.05076,435.92582 C 456.40003,434.63684 456.5617,431.03779 467.24673,431.56313 C 472.83638,431.83795 475.99401,430.15099 471.05937,429.52623 C 469.68437,429.35215 466.7808,428.74778 464.60699,428.18319 L 460.6546,427.15667 L 463.10699,425.27195 C 465.42101,423.49356 465.44321,423.38597 463.5005,423.36499 C 462.36812,423.35276 460.56812,423.99034 459.5005,424.78185 C 457.81559,426.03099 457.73196,426.50334 458.86691,428.36042 C 460.02511,430.25553 459.93944,430.56135 458.11691,431.03795 C 455.62836,431.68872 455.504,433.07159 457.71436,435.51401 C 459.20738,437.16378 459.21315,437.34275 457.77337,437.34275 C 456.89559,437.34275 455.8726,437.83593 455.50006,438.43871 C 454.2737,440.423 457.76643,442.56282 465.21886,444.39291 C 469.25614,445.38434 472.67187,446.22865 472.80937,446.26913 C 472.94687,446.30962 473.05937,445.73533 473.05937,444.99293 z M 337.47758,435.73576 C 338.34757,435.40192 339.05937,434.51604 339.05937,433.76715 C 339.05937,433.01825 338.45647,432.63688 337.71958,432.91964 C 336.9827,433.20241 335.83483,432.77713 335.16876,431.97456 C 334.19098,430.7964 334.40087,430.08512 336.25855,428.28156 C 337.97201,426.61802 338.11573,426.20386 336.82155,426.6592 C 332.79663,428.07532 325.38547,428.44404 322.55937,427.36877 C 319.78738,426.31408 319.68192,426.35155 321.17179,427.86174 C 322.05862,428.76067 324.64612,429.74589 326.92179,430.05112 C 330.35099,430.51107 331.05937,430.98303 331.05937,432.80775 C 331.05937,434.01867 331.35937,435.30942 331.72604,435.67608 C 332.5578,436.50784 335.38902,436.53722 337.47758,435.73576 z M 482.74936,431.54271 C 482.3184,429.38791 482.68611,428.43244 484.34504,427.39642 L 486.50073,426.05017 L 483.41749,426.4024 C 482.16078,425.93751 481.41303,425.5025 482.55414,423.35121 C 482.85968,422.77519 482.47585,422.34275 481.61839,422.34275 C 480.76093,422.34275 480.05937,422.8409 480.05937,423.44974 C 480.05937,424.05858 479.49687,424.34534 478.80937,424.08697 C 478.12187,423.8286 476.43437,423.30353 475.05937,422.92015 C 472.68336,422.25767 472.71598,422.36245 475.71714,425.03292 C 477.45391,426.57833 479.60297,429.30525 480.49282,431.09275 C 482.47989,435.0843 483.49829,435.28737 482.74936,431.54271 z " id="path2391" sodipodi:nodetypes="cscccssssssccssssssccsssssssssssssssssssssccccccsssssccsssssccccccsssssssscccssssssssscccssssssssssssssssssccssssssssssccscccccsssssssccssccsscccssssscccccssssssssccssccsssssccsccccccssssssssccsssssssssssssssssssssscccsssccssccssssssssssssssscccsccssccsscccccssssssccscccsssssssssssssssccssccssssssssccccccccssssscccccsccssssssccsssssccssssssssssssssssssccssccssccssccsssssscccsssssssssccsssssssssscccccsssssssc"/>
    </g>
  </g>
</svg>