<?xml version="1.0" encoding="UTF-8" standalone="no"?>
<svg
   xmlns:dc="http://purl.org/dc/elements/1.1/"
   xmlns:cc="http://creativecommons.org/ns#"
   xmlns:rdf="http://www.w3.org/1999/02/22-rdf-syntax-ns#"
   xmlns:svg="http://www.w3.org/2000/svg"
   xmlns="http://www.w3.org/2000/svg"
   xmlns:sodipodi="http://sodipodi.sourceforge.net/DTD/sodipodi-0.dtd"
   xmlns:inkscape="http://www.inkscape.org/namespaces/inkscape"
   version="1.0"
   preserveAspectRatio="xMidYMid meet"
   zoomAndPan="magnify"
   id="Flag of Morocco"
   viewBox="-60 -40 120 80"
   width="900"
   height="600"
   sodipodi:version="0.32"
   inkscape:version="0.91 r13725"
   sodipodi:docname="20150911194356!Flag_of_Morocco_1073_1147.svg"
   inkscape:output_extension="org.inkscape.output.svg.inkscape">
  <metadata
     id="metadata29">
    <rdf:RDF>
      <cc:Work
         rdf:about="">
        <dc:format>image/svg+xml</dc:format>
        <dc:type
           rdf:resource="http://purl.org/dc/dcmitype/StillImage" />
      </cc:Work>
    </rdf:RDF>
  </metadata>
  <defs
     id="defs27">
    <style
       id="style1593"
       type="text/css">
   
    .str0 {stroke:#000000;stroke-width:3}
    .str1 {stroke:#000000;stroke-width:7}
    .fil2 {fill:none}
    .fil1 {fill:#FFFFFF}
    .fil0 {fill:#00885E}
   
  </style>
  </defs>
  <sodipodi:namedview
     inkscape:window-height="740"
     inkscape:window-width="1292"
     inkscape:pageshadow="2"
     inkscape:pageopacity="0.0"
     guidetolerance="10.0"
     gridtolerance="10.0"
     objecttolerance="10.0"
     borderopacity="1.0"
     bordercolor="#666666"
     pagecolor="#ffffff"
     id="base"
     showgrid="false"
     inkscape:zoom="0.53"
     inkscape:cx="301.41637"
     inkscape:cy="332.04899"
     inkscape:window-x="66"
     inkscape:window-y="-8"
     inkscape:current-layer="Flag of Morocco"
     inkscape:window-maximized="1" />
  <g
     id="g2454"
     transform="translate(-92.122976,-32.965047)">
    <g
       id="g2469"
       transform="translate(-3.52941e-8,0.0735295)">
      <g
         id="g2565">
        <rect
           style="fill:#e9e8e7;fill-opacity:1"
           width="60.133335"
           height="80"
           x="32.122974"
           y="-7.1084824"
           id="rect3-9" />
        <g
           id="g2547"
           transform="translate(-95.6817,5.91182)">
          <g
             id="g2549"
             transform="translate(-3.52941e-8,0.0735295)" />
        </g>
        <path
           style="fill:#e9e8e7;fill-opacity:1;fill-rule:evenodd;stroke:none"
           d="M 91.989709,72.891516 C 118.39132,70.362154 136.60368,60.261485 152.12298,30.833799 136.13032,3.2145818 117.21027,-3.6937622 92.090005,-7.1084832 L 91.989643,72.891516 z"
           id="path12991"
           sodipodi:nodetypes="cccc" />
      </g>
    </g>
  </g>
  <path
     style="fill:#000000;fill-opacity:1;stroke:none;stroke-width:22;stroke-miterlimit:10;stroke-dasharray:none;stroke-opacity:1"
     d="m -30.266348,16.632827 c -1.366357,-0.112533 -2.542369,-0.578473 -3.264729,-1.293494 -0.792354,-0.784308 -1.36553,-1.677171 -1.550666,-2.415555 -0.04221,-0.168356 -0.119118,-0.629289 -0.170902,-1.024296 l -0.09415,-0.718193 -0.134848,0.0916 c -0.07416,0.05037 -0.225005,0.113248 -0.335197,0.139709 -0.245132,0.05886 -0.346236,0.01551 -0.616065,-0.264219 -0.298162,-0.309092 -0.284924,-0.306103 -1.355708,-0.306103 l -0.952019,0 -0.05411,0.149789 c -0.149978,0.415163 -0.634079,1.039906 -0.990318,1.278026 -0.134877,0.09015 -0.263836,0.163921 -0.286572,0.163921 -0.06106,0 -0.01096,-0.25343 0.15463,-0.782012 0.07974,-0.254544 0.155806,-0.541864 0.169043,-0.638488 l 0.02407,-0.175681 -1.93241,0.0127 c -2.227232,0.01464 -2.167019,0.0051 -2.643619,0.418262 -0.14058,0.121861 -0.332504,0.25775 -0.426498,0.301976 -0.215927,0.101596 -0.608509,0.179808 -0.815096,0.162385 l -0.158754,-0.01339 0.352431,-0.386512 c 0.193836,-0.212583 0.352429,-0.410877 0.352429,-0.440655 0,-0.04323 -0.153957,-0.0531 -0.76451,-0.04895 -0.84734,0.0057 -0.988497,-0.01988 -1.483363,-0.269339 -0.477549,-0.240725 -0.644664,-0.527892 -0.734895,-1.2628289 -0.08014,-0.6527165 0.06358,-1.2704382 0.379017,-1.62915 0.306498,-0.3485396 0.413308,-0.3960746 1.575718,-0.7012542 1.215983,-0.3192444 1.16208,-0.2837857 1.070332,-0.7040971 -0.09585,-0.439099 -0.168676,-0.5496451 -0.528286,-0.8018766 -0.181891,-0.1275788 -0.351058,-0.2700175 -0.375925,-0.3165278 -0.06098,-0.1140479 -0.02032,-0.5239799 0.06488,-0.6541329 0.09307,-0.1421763 0.282632,-0.2238658 0.644523,-0.2777435 0.259324,-0.038605 0.341941,-0.035189 0.539472,0.022288 0.307492,0.089481 0.581101,0.343436 0.739237,0.6861418 l 0.117407,0.2544453 0.02588,1.999874 c 0.01423,1.0999312 0.0425,2.0641571 0.06282,2.1427224 l 0.03695,0.1428484 1.716369,0.010648 c 1.693158,0.010498 1.719825,0.00942 1.971992,-0.081627 0.453315,-0.1636284 0.440391,-0.014715 0.181568,-2.0921432 -0.365495,-2.9336276 -0.334862,-2.8036448 -0.825612,-3.5031993 -0.316727,-0.4514868 -0.391062,-0.6603985 -0.394516,-1.1087571 -0.0024,-0.3081797 0.01221,-0.3955257 0.0906,-0.542475 0.203304,-0.3811205 0.6629,-0.7012723 1.00746,-0.7017932 0.216939,-2.675e-4 0.402417,0.1192988 0.552717,0.356482 0.217068,0.3425425 0.244475,0.5090948 0.215908,1.3120192 -0.0286,0.8036957 -0.004,1.0566034 0.211602,2.1746772 0.192664,0.9991897 0.249332,1.4759141 0.326612,2.7476926 0.03683,0.6060841 0.07944,1.1754374 0.09468,1.2652275 l 0.02771,0.1632548 1.018272,0.020404 1.018274,0.020404 0.23857,0.1353207 c 0.131215,0.074425 0.244686,0.1292015 0.252162,0.1217199 0.0075,-0.00751 0.03242,-0.3163204 0.05545,-0.6863081 0.119015,-1.9126792 0.09891,-2.3955019 -0.144017,-3.4592523 -0.153048,-0.6701689 -0.210216,-0.8125285 -0.569141,-1.4172693 -0.351091,-0.5915457 -0.438827,-0.8386646 -0.441956,-1.2448202 -0.0024,-0.3110876 0.0098,-0.3695269 0.11847,-0.5658514 0.275675,-0.4982085 0.902667,-0.7922835 1.251827,-0.5871372 0.18006,0.1057931 0.427603,0.5018206 0.484176,0.7746027 0.03521,0.1698058 0.03716,0.3327621 0.0072,0.6015415 -0.05383,0.482443 -0.0012,1.3027136 0.132317,2.0624152 0.316324,1.7998984 0.362696,2.1874607 0.363818,3.0406257 8e-4,0.6031872 -0.01742,0.9174922 -0.06979,1.2040064 -0.111959,0.612622 -0.265251,1.143971 -0.397911,1.379263 l -0.122257,0.21684 0.14681,0.559005 c 0.209905,0.799252 0.323228,1.116939 0.562608,1.577215 0.339262,0.652332 0.813041,1.095911 1.706879,1.598076 0.750949,0.421891 1.462309,0.659638 2.308521,0.771542 1.271696,0.168172 2.107335,0.01059 3.453493,-0.651223 1.216036,-0.597844 2.257951,-1.406413 2.820981,-2.189196 l 0.246951,-0.343339 -0.07439,-0.448952 c -0.07761,-0.468431 -0.09384,-0.843449 -0.04217,-0.975224 0.02808,-0.07163 0.03674,-0.06916 0.117539,0.03368 0.04797,0.06105 0.145566,0.265731 0.216875,0.454849 0.07131,0.189118 0.141342,0.343852 0.155631,0.343852 0.03248,0 0.326697,-0.479675 0.468544,-0.763901 0.0929,-0.186143 0.106258,-0.263443 0.106258,-0.614763 0,-0.7370246 -0.193187,-2.4443582 -0.448977,-3.9679386 -0.279856,-1.6669256 -0.536281,-2.4914092 -0.97682,-3.1407662 -0.332237,-0.4897192 -0.485589,-0.9917572 -0.430507,-1.4093721 0.07251,-0.5497422 0.60007,-1.04135168 1.117509,-1.04135168 0.20311,0 0.224137,0.0103875 0.412146,0.20359868 0.127773,0.131308 0.229201,0.2867627 0.285668,0.4378279 0.08153,0.2181161 0.08566,0.2806233 0.06005,0.9085772 -0.03709,0.9094107 0.02441,1.3745606 0.532369,4.0271211 0.236133,1.2330924 0.426742,2.5634284 0.455957,3.1823171 0.02468,0.5226216 -0.02164,1.0303206 -0.152572,1.6724176 -0.110939,0.544069 -0.194774,0.730058 -0.58601,1.300074 l -0.352916,0.514185 0.119297,0.173562 c 0.16692,0.242846 0.443215,0.511071 0.618823,0.600747 0.388674,0.198481 1.886102,0.339651 2.408716,0.227082 0.850435,-0.18318 1.872625,-1.095406 2.398317,-2.140308 0.145544,-0.289293 0.288059,-0.796883 0.288059,-1.025969 l 0,-0.149964 -0.417932,-0.04596 c -0.707716,-0.07782 -1.125763,-0.275462 -1.373032,-0.649135 -0.289346,-0.4372592 -0.335868,-1.0225182 -0.130139,-1.6371767 0.305598,-0.9130418 0.730142,-1.5086442 1.182581,-1.6590664 0.428326,-0.1424077 0.946491,0.013533 1.280459,0.3853496 0.311651,0.346968 0.460172,0.6907626 0.656078,1.518668 l 0.176843,0.7473489 0.521017,0.011459 c 0.864918,0.019032 1.187894,-0.1216608 1.424373,-0.6204793 0.219787,-0.4636123 0.462896,-0.6485837 0.640846,-0.4875917 0.04636,0.041941 0.209533,0.2888011 0.362603,0.5485703 0.153072,0.2597682 0.305267,0.4946976 0.33821,0.5220667 0.06875,0.057106 0.124201,-0.00942 0.352621,-0.4229829 0.172254,-0.311882 0.309827,-0.4981835 0.405877,-0.5496381 0.06546,-0.035069 0.09801,-0.00301 0.240222,0.2366132 0.239108,0.4028701 0.511754,0.7515149 0.651736,0.8334007 0.124524,0.072843 0.358894,0.094259 0.439795,0.040188 0.18639,-0.1245776 0.225926,-0.9235965 0.05119,-1.034428 -0.0304,-0.019282 -0.161365,-0.035339 -0.291033,-0.03568 -0.487276,-0.0013 -0.844746,-0.2865302 -0.844746,-0.6740514 0,-0.1896873 0.08983,-0.3648341 0.300044,-0.5849636 0.28507,-0.2985294 0.651834,-0.4322846 0.872351,-0.3181395 0.284979,0.1475133 0.7892009,0.8316358 0.9735449,1.3208952 0.138921,0.3687046 0.171803,0.9015064 0.07975,1.2922861 -0.181423,0.7701789 -0.553486,1.1604629 -1.2878789,1.3509509 -0.326366,0.08465 -0.36669,0.0652 -0.695162,-0.335404 -0.13598,-0.165844 -0.27443,-0.311976 -0.307667,-0.324743 -0.03792,-0.01457 -0.154781,0.06719 -0.313704,0.219469 -0.139299,0.133476 -0.341917,0.294443 -0.450258,0.357705 l -0.196995,0.115022 -0.271914,-0.2646 c -0.603862,-0.587625 -0.617714,-0.587651 -1.128918,-0.0021 l -0.151441,0.173459 -0.691513,0 -0.691512,0 0.08663,0.112238 c 0.04764,0.06173 0.221198,0.2959 0.385674,0.520376 0.332862,0.454287 1.043256,1.166587 1.452603,1.456497 0.597253,0.422992 1.261431,0.692301 2.056747,0.833967 0.605186,0.107798 1.9128979,0.09901 2.5483629,-0.01714 1.558684,-0.284873 2.35038,-0.739538 3.265389,-1.875285 0.699079,-0.867729 0.984035,-1.530272 1.04255,-2.4240245 0.0344,-0.5255235 0.01835,-0.5487156 -0.578838,-0.8361183 -0.638819,-0.3074384 -0.792594,-0.5048056 -0.793156,-1.0180024 -5.34e-4,-0.4508919 0.204158,-0.8146621 0.516342,-0.9177927 0.34487,-0.1139288 0.812497,0.019663 1.12743,0.3220731 0.185945,0.1785535 0.479198,0.6387601 0.593798,0.9318524 0.246686,0.6309108 0.276389,1.6188146 0.06955,2.3133984 -0.255032,0.85644 -1.011019,2.148553 -1.693144,2.893874 -0.525322,0.573993 -2.004974,1.268703 -3.16257,1.48485 -0.323785,0.06046 -0.600828,0.07599 -1.3455369,0.07541 -0.869245,-6.68e-4 -0.970585,-0.0085 -1.386311,-0.107724 -2.169966,-0.517659 -3.921452,-1.963857 -4.224068,-3.487804 -0.05107,-0.257147 -0.05356,-0.260642 -0.186214,-0.260642 -0.131977,0 -0.13963,0.01035 -0.414896,0.56119 -0.578793,1.158235 -1.069382,1.890804 -1.621494,2.42129 -0.789809,0.75887 -1.624028,1.118638 -2.844705,1.226813 -1.105935,0.098 -1.575775,-0.05411 -2.263938,-0.732994 -0.220142,-0.217174 -0.439241,-0.449958 -0.486883,-0.517302 l -0.08662,-0.12244 -0.152703,0.183661 c -0.845782,1.017258 -1.872561,1.720274 -3.366526,2.304998 -1.14278,0.447273 -1.965994,0.566977 -3.200134,0.465334 z m 13.014875,-7.1363936 c 0.09331,-0.03551 0.104589,-0.062145 0.104589,-0.2469085 0,-0.2576036 -0.07918,-0.4156456 -0.274937,-0.5487997 -0.324629,-0.2208067 -0.70395,-0.084873 -0.703365,0.2520612 6.66e-4,0.3885129 0.486701,0.6909319 0.873713,0.543647 z m -27.717272,-0.085153 c 0.267717,-0.1014988 0.300118,-0.2692311 0.203538,-1.0537155 -0.05825,-0.4731724 -0.09927,-0.5358579 -0.350123,-0.5350205 -0.327895,0.0011 -0.899091,0.2207215 -1.151903,0.4429105 -0.162294,0.1426361 -0.255154,0.3381541 -0.298723,0.6289716 -0.05409,0.3610777 0.04483,0.4942709 0.41613,0.560303 0.218361,0.038835 1.044183,0.00841 1.181081,-0.043453 z"
     id="path4268"
     inkscape:connector-curvature="0" />
  <path
     style="fill:#000000;fill-opacity:1;stroke:none;stroke-width:22;stroke-miterlimit:10;stroke-dasharray:none;stroke-opacity:1"
     d="m -34.117748,11.40878 c 0.899329,-1.109549 1.194724,-1.9981149 1.138094,-3.4234659 -0.03407,-0.8577727 -0.305465,-3.6969854 -0.377556,-3.9499401 -0.04262,-0.1495557 -0.132684,-0.2993959 -0.294371,-0.4897654 -0.228332,-0.2688344 -0.232819,-0.2789414 -0.225879,-0.5086941 0.0093,-0.3068014 0.145375,-0.5995982 0.416542,-0.8960762 0.517953,-0.5662991 1.254794,-0.6492888 1.460177,-0.1644568 0.137969,0.3256942 0.136353,0.3965795 -0.021,0.9213948 l -0.148706,0.4959898 0.0016,0.9183096 c 0.0014,0.8284914 0.01693,1.0340754 0.158784,2.1019087 0.124855,0.9398979 0.157951,1.3222575 0.160741,1.8570265 0.0035,0.6733884 0.0035,0.6734455 -0.131824,0.999936 -0.430868,1.0394921 -1.183642,1.9111231 -1.936994,2.2428291 -0.423734,0.186573 -0.432258,0.182088 -0.199568,-0.104996 z"
     id="path4270"
     inkscape:connector-curvature="0" />
  <path
     style="fill:#000000;fill-opacity:1;stroke:none;stroke-width:22;stroke-miterlimit:10;stroke-dasharray:none;stroke-opacity:1"
     d="m 1.5872099,12.168724 c 0.03681,-0.397788 0.08582,-0.569048 0.25613,-0.894872 0.264023,-0.505115 1.037792,-1.237804 1.53044,-1.4491831 0.270877,-0.1162256 0.885801,-0.2754196 1.270363,-0.3288775 0.179405,-0.024942 0.352712,-0.054392 0.385125,-0.06545 0.03436,-0.01173 -0.127126,-0.1266904 -0.387352,-0.2757613 -1.297047,-0.7430176 -1.505104,-0.9891288 -1.506009,-1.7814734 -2.67e-4,-0.2895684 0.01726,-0.3846083 0.106424,-0.5749227 0.117202,-0.250165 0.331298,-0.4876006 0.536014,-0.5944465 0.07558,-0.039456 0.262387,-0.076258 0.437672,-0.086245 0.271107,-0.015436 0.321996,-0.00641 0.448512,0.079614 0.160827,0.109347 0.364572,0.4481983 0.366013,0.6087185 0.0016,0.180001 -0.08428,0.3630831 -0.197145,0.4201952 -0.05924,0.02998 -0.204418,0.07726 -0.32262,0.1050689 -0.594701,0.1399235 -0.186563,0.5210549 0.86826,0.8108066 0.821644,0.2256989 1.286483,0.5336662 1.550833,1.0274653 0.114898,0.2146293 0.129333,0.2259994 0.344185,0.2711063 0.125358,0.026314 0.613955,0.048822 1.107924,0.051016 l 0.883669,0.00391 0.04835,-0.1530526 c 0.07207,-0.228121 0.353539,-0.7414369 0.514613,-0.9384876 0.2918741,-0.357066 0.7331511,-0.5075222 1.2418781,-0.4234256 0.518411,0.085694 0.811259,0.3016226 1.134284,0.8363406 0.110211,0.1824391 0.254834,0.4067917 0.321382,0.4985611 l 0.120997,0.1668538 0.769033,0.025954 c 0.785923,0.026525 1.909235,-0.010428 3.026616,-0.099568 l 0.62663,-0.049994 -0.02437,-0.2059426 C 17.012201,8.8748803 16.86586,8.6044401 16.665758,8.451667 16.574848,8.3822502 16.268639,8.230055 15.985306,8.1134457 L 15.470156,7.9014289 15.197474,8.1265688 C 15.037184,8.2589136 14.86747,8.3624759 14.785721,8.3778257 14.582857,8.4159197 14.242764,8.3655347 14.124633,8.2798807 13.761927,8.016897 13.692965,7.1283575 14.005777,6.7484932 c 0.29451,-0.3576419 1.010869,-0.5390823 1.674851,-0.424208 0.665597,0.1151558 1.139711,0.4346556 1.684945,1.1354621 0.86986,1.1180608 1.194827,1.4363695 1.700911,1.6660641 0.490818,0.222764 1.491376,0.3696181 2.518335,0.3696181 l 0.688133,0 0.02599,-0.2346789 c 0.04447,-0.4015168 0.173809,-0.7744225 0.327751,-0.9449835 0.179635,-0.199031 0.49559,-0.3051637 0.916863,-0.3079864 0.426825,-0.0029 0.741923,0.1531998 1.120587,0.5549981 0.48543,0.5150849 0.695576,1.1415453 0.666557,1.9870602 -0.01289,0.375572 -0.03032,0.466089 -0.127089,0.659767 -0.203719,0.407764 -0.59546,0.59636 -1.169617,0.563091 -0.425254,-0.02464 -0.631231,-0.142698 -1.019691,-0.584438 l -0.30425,-0.345976 -1.020902,-5.35e-4 c -0.561498,-2.66e-4 -1.387867,-0.02772 -1.836379,-0.06089 -0.93027,-0.06881 -3.366113,-0.08082 -4.444347,-0.02192 -0.381236,0.02083 -1.161035,0.05049 -1.732889,0.06589 l -1.039732,0.02803 -0.163095,0.169962 c -0.0897,0.09348 -0.254837,0.297405 -0.366964,0.453168 -0.270606,0.375911 -0.541377,0.522873 -1.002027,0.543856 -0.635137,0.02893 -0.96336,-0.147866 -1.4094251,-0.759183 -0.268194,-0.367551 -0.321024,-0.419438 -0.435145,-0.42737 -0.07144,-0.005 -0.533554,-0.0095 -1.026918,-0.01021 l -0.897023,-0.0012 -0.353508,-0.132646 c -0.19443,-0.07295 -0.383723,-0.132644 -0.420652,-0.132644 -0.03693,0 -0.13325,0.05051 -0.214045,0.112237 -0.131448,0.100433 -0.186751,0.11372 -0.525766,0.126329 -0.260709,0.0097 -0.547847,-0.01425 -0.920693,-0.07678 -0.850948,-0.142712 -1.364572,-0.0764 -1.933948,0.249682 -0.209733,0.120116 -0.381746,0.299482 -1.230068,1.282671 l -0.175761,0.203705 0.02644,-0.285696 z M 11.20051,10.678202 c 0.205689,-0.161954 0.241703,-0.7404969 0.07027,-1.1288635 -0.08075,-0.1829359 -0.247537,-0.2987979 -0.430125,-0.2987979 -0.208678,0 -0.426081,0.3334772 -0.426786,0.6546488 -1.23e-4,0.057016 0.02757,0.2131266 0.06155,0.3469166 0.110293,0.434259 0.456405,0.637649 0.725088,0.426096 z m 12.877866,-0.122471 c 0.188024,-0.05228 0.259751,-0.206643 0.226519,-0.487501 -0.04856,-0.4104821 -0.322413,-0.7546133 -0.600492,-0.7546133 -0.250652,0 -0.345073,0.1201543 -0.345073,0.4391161 0,0.3104312 0.139055,0.6140162 0.344832,0.7528302 0.154842,0.104456 0.17111,0.106637 0.374214,0.05016 z"
     id="path4272"
     inkscape:connector-curvature="0" />
  <path
     style="fill:#000000;fill-opacity:1;stroke:none;stroke-width:22;stroke-miterlimit:10;stroke-dasharray:none;stroke-opacity:1"
     d="m 16.266127,-5.7327928 c -0.220238,-0.1284031 -0.397794,-0.4245255 -0.420759,-0.701729 l -0.01798,-0.2170984 -0.882242,-0.022328 c -1.856326,-0.046979 -2.423446,-0.2788854 -3.442688,-1.407768 -0.552947,-0.6124288 -0.823991,-1.2501652 -0.871355,-2.0501968 -0.02123,-0.358588 -0.0181,-0.381597 0.04155,-0.306104 0.03548,0.0449 0.103259,0.196288 0.150622,0.336429 0.203539,0.6022197 0.993361,1.5081906 1.659392,1.9034188 0.401445,0.2382199 0.988946,0.4465426 1.519078,0.5386506 1.068174,0.1855909 3.190061,-0.1067467 3.575549,-0.4926101 l 0.13487,-0.1350022 0,-0.6071549 c 0,-0.7084955 -0.04609,-1.1372832 -0.184874,-1.7199582 -0.201714,-0.846878 -0.579371,-1.638958 -1.127035,-2.363795 -0.683601,-0.904748 -1.499665,-1.408023 -2.484989,-1.532515 -0.490316,-0.06195 -1.398768,0.03083 -1.670193,0.170582 -0.37696,0.194085 -0.721813,0.634176 -1.218618,1.555163 -0.139252,0.258147 -0.272214,0.487724 -0.295473,0.510173 -0.02913,0.02812 -0.03492,-0.04807 -0.01864,-0.244883 0.026,-0.31417 0.223498,-0.986725 0.383517,-1.306041 0.355291,-0.708975 1.170188,-1.45811 1.799093,-1.653909 0.612721,-0.190758 1.757878,-0.02274 2.545056,0.373408 1.09492,0.551021 2.112914,1.78752 2.593202,3.149813 0.243182,0.689761 0.297292,1.05178 0.319962,2.1406415 0.01134,0.5443542 0.03291,0.9897328 0.04795,0.9897328 0.02968,0 0.30006,-1.2178713 0.380563,-1.7141773 0.03253,-0.200599 0.05001,-0.833623 0.05071,-1.83662 9.34e-4,-1.329627 -0.0084,-1.568015 -0.07089,-1.816212 -0.119788,-0.475674 -0.120864,-0.477083 -0.461865,-0.605319 -0.344023,-0.129371 -0.465031,-0.264046 -0.464596,-0.51706 5.33e-4,-0.325181 0.529722,-1.131973 0.832827,-1.26978 0.616697,-0.280383 0.988746,0.161136 1.121575,1.331 0.04631,0.407908 -0.008,3.001059 -0.08201,3.918122 -0.08631,1.068956 -0.281083,2.0680544 -0.515959,2.6466552 -0.135923,0.3348326 -0.466955,0.8420713 -0.675482,1.0350341 -0.168622,0.1560352 -0.173866,0.1691343 -0.280641,0.7009013 -0.123246,0.613801 -0.211629,0.7828856 -0.514029,0.9833831 -0.293331,0.1944853 -0.606392,0.2963508 -0.967343,0.3147618 -0.284827,0.014524 -0.346689,0.00471 -0.487842,-0.077611 z"
     id="path4274"
     inkscape:connector-curvature="0" />
  <path
     style="fill:#000000;fill-opacity:1;stroke:none;stroke-width:22;stroke-miterlimit:10;stroke-dasharray:none;stroke-opacity:1"
     d="m -2.4266571,-5.9686147 c 0,-0.022288 0.139296,-0.191941 0.309548,-0.3770125 0.395831,-0.4302882 0.417766,-0.4702355 0.277531,-0.5054668 -0.05933,-0.014905 -0.391728,-0.01755 -0.738662,-0.00591 -0.693071,0.023319 -0.888429,-0.00751 -1.336429,-0.2108369 -0.466533,-0.2117424 -0.669209,-0.46643 -0.777262,-0.9767245 -0.07268,-0.3432537 -0.07448,-1.0251775 -0.0034,-1.2915107 0.117595,-0.4406607 0.433559,-0.8652089 0.770798,-1.0356909 0.131915,-0.06668 2.103635,-0.617267 2.210531,-0.617267 0.04369,0 0.01833,-0.394553 -0.03712,-0.577415 -0.10115,-0.333605 -0.178336,-0.435096 -0.492053,-0.646998 -0.364178,-0.245986 -0.44787,-0.378962 -0.407617,-0.647655 0.04319,-0.288264 0.125114,-0.410333 0.339157,-0.505326 0.239472,-0.106281 0.71559,-0.141467 0.965711,-0.07137 0.218428,0.06121 0.51250998,0.307885 0.64946698,0.544755 0.192472,0.332891 0.20045,0.425035 0.203735,2.35296 0.0023,1.3502861 0.01721,1.8868872 0.05811,2.091705 l 0.05502,0.2754926 0.94042,0 0.94042002,0 0.252931,0.1391663 0.252933,0.1391642 0.02514,-0.2922158 c 0.06379,-0.7415682 0.113732,-2.1699643 0.0894,-2.5573813 -0.02688,-0.428139 -0.149182,-1.118462 -0.307306,-1.734585 -0.06021,-0.234623 -0.171225,-0.479384 -0.394462,-0.869728 -0.51593502,-0.902144 -0.62064102,-1.273441 -0.48795202,-1.730321 0.11920602,-0.410455 0.58898702,-0.816442 1.01006602,-0.872905 0.223582,-0.02998 0.403897,0.08111 0.59591,0.367136 0.216046,0.32182 0.27353,0.586465 0.227164,1.045805 -0.05814,0.576015 0.0015,1.362462 0.185711,2.447743 0.300973,1.773426 0.308544,1.840331 0.307155,2.7141172 -0.0013,0.8421795 -0.04223,1.1890062 -0.225652,1.9138808 -0.191823,0.7580729 -0.585862,1.2046606 -1.065396,1.2074743 -0.131333,8.014e-4 -0.192192,-0.035349 -0.43435,-0.2577949 -0.399602,-0.3670738 -0.40035,-0.3672701 -1.23497102,-0.3235435 -0.823306,0.043133 -0.988748,0.096763 -1.39411998,0.4519246 -0.261407,0.2290245 -0.532826,0.3498759 -0.931072,0.4145658 -0.322072,0.052318 -0.399037,0.052649 -0.399037,0.0017 z m 0.761598,-2.3507581 c 0.203599,-0.1509631 0.226394,-0.2479353 0.174054,-0.7404793 -0.06979,-0.6567854 -0.09576,-0.734965 -0.259046,-0.780097 -0.196715,-0.054372 -0.518699,0.014925 -0.900863,0.1938853 -0.507596,0.2376921 -0.672035,0.4790944 -0.67254,0.9873228 -4e-4,0.379683 0.149886,0.4457102 0.985627,0.4330889 0.494083,-0.00751 0.570856,-0.018161 0.672768,-0.093718 z"
     id="path4276"
     inkscape:connector-curvature="0" />
  <path
     style="fill:#000000;fill-opacity:1;stroke:none;stroke-width:22;stroke-miterlimit:10;stroke-dasharray:none;stroke-opacity:1"
     d="m 3.6486419,-6.0889432 c 0,-0.021126 0.02041,-0.051036 0.04536,-0.066462 0.02495,-0.015436 0.182299,-0.2139551 0.349669,-0.4411575 0.704604,-0.9564898 0.947269,-1.7966204 0.897381,-3.1068036 -0.0321,-0.8431797 -0.303235,-3.7090077 -0.374544,-3.9589357 -0.03772,-0.132191 -0.131872,-0.290321 -0.267316,-0.44895 -0.269499,-0.31563 -0.295557,-0.386106 -0.24466,-0.661702 0.05658,-0.306354 0.217619,-0.583942 0.489209,-0.843249 0.273885,-0.261497 0.508523,-0.38912 0.773064,-0.420482 0.363041,-0.04304 0.571124,0.132109 0.692357,0.582773 0.04025,0.149612 0.02908,0.217548 -0.107296,0.652791 l -0.152218,0.485799 0.004,0.938716 c 0.0036,0.835839 0.02062,1.063959 0.15524,2.081503 0.186854,1.4124429 0.228267,2.2624285 0.12719,2.6104663 -0.149593,0.5150819 -0.644006,1.3589158 -1.058786,1.8070731 -0.258639,0.2794503 -0.66439,0.568019 -1.020079,0.725476 -0.248695,0.1100913 -0.308629,0.122355 -0.308629,0.063146 z"
     id="path4278"
     inkscape:connector-curvature="0" />
  <path
     style="fill:#000000;fill-opacity:1;stroke:none;stroke-width:22;stroke-miterlimit:10;stroke-dasharray:none;stroke-opacity:1"
     d="m -15.803184,-5.6873653 c -0.269615,-0.1573368 -0.458907,-0.4503139 -0.496561,-0.7685495 l -0.02316,-0.1957255 -0.881809,-0.022317 c -1.222196,-0.030932 -1.830987,-0.1511765 -2.365813,-0.4672685 -0.29946,-0.1769869 -0.966207,-0.7945489 -1.268827,-1.1752306 -0.385085,-0.4844153 -0.634663,-1.1780788 -0.675221,-1.8766791 l -0.02133,-0.367324 0.08822,0.160291 c 0.04852,0.08816 0.121937,0.258364 0.163138,0.378232 0.08555,0.2489075 0.383034,0.6963707 0.698205,1.0502212 0.505873,0.567953 1.271785,1.0276567 2.052255,1.2317662 0.795661,0.2080838 2.023152,0.1746055 3.178389,-0.086686 0.511729,-0.1157428 0.759304,-0.2242875 0.864078,-0.3788356 0.06615,-0.097574 0.07375,-0.1898996 0.06622,-0.8040663 -0.01412,-1.1497645 -0.216119,-2.0370295 -0.668963,-2.9383145 -0.310604,-0.618191 -0.623937,-1.059518 -1.074935,-1.514037 -0.924791,-0.932015 -1.889103,-1.220208 -3.322385,-0.992922 -0.630025,0.09991 -0.996343,0.488982 -1.677836,1.782068 -0.120827,0.229264 -0.236062,0.417218 -0.256076,0.417677 -0.05809,0.0013 0.0035,-0.436598 0.117659,-0.835849 0.293284,-1.026171 0.945557,-1.84608 1.811925,-2.277594 l 0.343789,-0.171231 0.594008,0.0048 c 0.746271,0.0061 1.199487,0.113421 1.857999,0.440024 1.427022,0.70777 2.550458,2.345432 2.857782,4.16587 0.03422,0.202697 0.07361,0.763414 0.08755,1.246038 0.02894,1.0024241 0.03148,1.0016869 0.25198,-0.072853 0.179989,-0.877149 0.206218,-1.203821 0.212439,-2.645828 0.0057,-1.325473 -0.02244,-1.66649 -0.174687,-2.115999 -0.05019,-0.148176 -0.07784,-0.170298 -0.334922,-0.268011 -0.154119,-0.05858 -0.323267,-0.14798 -0.375883,-0.198671 -0.204362,-0.196885 -0.149258,-0.549647 0.15689,-1.004364 0.3576,-0.531139 0.543039,-0.670396 0.895336,-0.672357 0.338998,-0.0019 0.545755,0.265538 0.714909,0.924684 0.06263,0.244066 0.07023,0.461276 0.06185,1.767953 -0.02394,3.731868 -0.317771,5.2677579 -1.188143,6.2105597 l -0.259904,0.2815295 -0.09754,0.491365 c -0.149502,0.7531105 -0.256285,0.9039895 -0.830121,1.1729241 -0.258782,0.1212801 -0.359097,0.145543 -0.652381,0.1577866 -0.216007,0.00902 -0.377301,-0.00351 -0.428126,-0.033126 z"
     id="path4280"
     inkscape:connector-curvature="0" />
  <path
     style="fill:#000000;fill-opacity:1;stroke:none;stroke-width:22;stroke-miterlimit:10;stroke-dasharray:none;stroke-opacity:1"
     d="m -11.719898,-6.1015544 c 0.01711,-0.028057 0.11319,-0.1520319 0.21352,-0.2754937 0.509821,-0.6273719 0.811559,-1.2183806 0.968938,-1.8978398 0.128144,-0.5532462 0.100256,-1.8253771 -0.08098,-3.6936461 -0.08166,-0.841784 -0.164966,-1.587647 -0.185132,-1.657472 -0.05611,-0.194259 -0.121681,-0.30166 -0.337039,-0.552013 -0.180479,-0.209806 -0.197866,-0.248225 -0.197866,-0.437217 0,-0.615931 0.620766,-1.320129 1.249613,-1.417566 0.3564009,-0.05522 0.6003919,0.134967 0.7112579,0.554422 0.04481,0.169553 0.03678,0.223328 -0.103769,0.693833 -0.24914,0.834067 -0.245126,1.516033 0.02121,3.604074 0.172235,1.3502964 0.218514,2.0130599 0.160203,2.2942251 -0.115525,0.5570165 -0.617611,1.4741367 -1.0772699,1.9677555 -0.314452,0.3376844 -0.637239,0.5736645 -1.026112,0.7501596 -0.282969,0.1284301 -0.364678,0.1456652 -0.316583,0.066782 z"
     id="path4282"
     inkscape:connector-curvature="0" />
  <path
     style="fill:#000000;fill-opacity:1;stroke:none;stroke-width:22;stroke-miterlimit:10;stroke-dasharray:none;stroke-opacity:1"
     d="m -34.325121,-5.2844502 c 0.0015,-0.081126 0.05897,-0.298884 0.212893,-0.806902 0.07822,-0.2581465 0.153092,-0.5408013 0.1664,-0.6281182 l 0.0242,-0.1587612 -1.884152,0.021947 c -2.234577,0.026024 -2.225425,0.024541 -2.701478,0.43787 -0.163924,0.1423265 -0.373255,0.2800073 -0.496137,0.3263182 -0.208108,0.078432 -0.632025,0.1630825 -0.819747,0.1636955 l -0.09452,2.675e-4 0.08886,-0.1249113 c 0.04888,-0.068706 0.217428,-0.2637098 0.374569,-0.4333523 0.220391,-0.2379255 0.272955,-0.3169585 0.229916,-0.3456989 -0.03069,-0.020514 -0.404411,-0.032775 -0.830498,-0.027286 l -0.774702,0.010017 -0.332339,-0.1325841 c -0.586439,-0.2339578 -0.779674,-0.4124712 -0.935702,-0.8644225 -0.06316,-0.182971 -0.07749,-0.3414467 -0.07749,-0.8570896 0,-0.5682284 0.0097,-0.6566412 0.0952,-0.8687031 0.109283,-0.2710231 0.472878,-0.6894518 0.696567,-0.8016148 0.08032,-0.04028 0.618498,-0.197951 1.195958,-0.350391 l 1.049926,-0.277167 0,-0.173209 c 0,-0.234467 -0.141342,-0.676974 -0.255676,-0.800466 -0.05126,-0.05535 -0.206277,-0.177518 -0.344499,-0.271477 -0.138224,-0.09396 -0.279909,-0.211693 -0.314856,-0.261637 -0.08622,-0.12322 -0.07851,-0.382605 0.01769,-0.59478 0.105874,-0.233503 0.342388,-0.342437 0.79735,-0.367243 0.275134,-0.01501 0.362346,-0.0032 0.539911,0.0733 0.25344,0.109135 0.468468,0.335792 0.614682,0.647928 l 0.107446,0.229374 0.02608,1.95906 c 0.01527,1.1471261 0.04411,2.0351808 0.06958,2.1427238 0.02392,0.101014 0.04429,0.1974363 0.04527,0.2142716 9.34e-4,0.016838 0.762178,0.030612 1.691557,0.030612 l 1.689781,0 0.284673,-0.1056218 c 0.473692,-0.1757518 0.454523,0.00441 0.211073,-1.9842116 -0.35883,-2.93118 -0.366027,-2.963572 -0.786123,-3.538374 -0.497458,-0.680655 -0.597818,-1.308772 -0.292454,-1.830349 0.139776,-0.238742 0.46315,-0.485394 0.74323,-0.566895 0.20151,-0.05864 0.250494,-0.05992 0.392341,-0.01033 0.197632,0.06912 0.38827,0.306326 0.511891,0.636959 0.08269,0.221145 0.08646,0.279663 0.05995,0.929832 -0.03265,0.800806 -0.0071,1.063423 0.222792,2.287209 0.174496,0.929002 0.269302,1.681649 0.308262,2.4471879 0.04888,0.9604986 0.108248,1.6331738 0.147686,1.6733644 0.02349,0.02393 0.465012,0.049253 1.067648,0.061223 l 1.027598,0.020404 0.20387,0.1310626 0.203868,0.1310616 0.02727,-0.15147 c 0.015,-0.08331 0.05066,-0.6689068 0.07924,-1.3013322 0.06125,-1.3553443 0.032,-1.7893633 -0.184242,-2.7339763 -0.147918,-0.646152 -0.218504,-0.817259 -0.609978,-1.478634 -0.426198,-0.720047 -0.523435,-1.268736 -0.301421,-1.700897 0.247059,-0.480917 0.876269,-0.824934 1.201191,-0.656746 0.164229,0.08501 0.372177,0.32806 0.475039,0.555229 0.07744,0.171018 0.08447,0.268198 0.08876,1.226486 0.0042,0.947983 0.01453,1.093501 0.115376,1.63255 0.244934,1.309198 0.392961,2.47965 0.392291,3.1018461 -0.0012,1.1527001 -0.247106,2.2966211 -0.590325,2.7465624 -0.164315,0.2154065 -0.49367,0.3960976 -0.721989,0.3960976 -0.135924,0 -0.193993,-0.03573 -0.461431,-0.2839479 -0.202245,-0.1877079 -0.350671,-0.2920405 -0.437916,-0.3078231 -0.07259,-0.013132 -0.523931,-0.018511 -1.002987,-0.01195 l -0.871007,0.01193 -0.06261,0.1632568 c -0.103488,0.2698231 -0.475099,0.8013687 -0.731168,1.0458482 -0.257286,0.2456395 -0.584128,0.4436527 -0.582424,0.3528519 z m -4.961246,-2.9675953 c 0.186221,-0.043253 0.337051,-0.1736583 0.363985,-0.3146876 0.01069,-0.055954 -0.007,-0.3345892 -0.03932,-0.6191862 -0.07155,-0.6302347 -0.102724,-0.6777167 -0.439079,-0.6688577 -0.258774,0.00681 -0.743421,0.1847179 -1.017585,0.3735316 -0.203257,0.1399827 -0.32553,0.3866158 -0.367975,0.7422343 -0.02431,0.2036377 -0.01667,0.2422187 0.06728,0.3399141 0.05209,0.060612 0.158627,0.1252478 0.236763,0.1436388 0.194562,0.045787 1.003543,0.048101 1.19593,0.00341 l 0,1e-6 z"
     id="path4284"
     inkscape:connector-curvature="0" />
  <path
     style="fill:#000000;fill-opacity:1;stroke:none;stroke-width:22;stroke-miterlimit:10;stroke-dasharray:none;stroke-opacity:1"
     d="m -28.469145,-6.1015544 c 0.0171,-0.028057 0.113219,-0.1520319 0.213581,-0.2754937 0.543577,-0.6686835 0.842672,-1.2878562 0.985764,-2.0406873 0.07833,-0.4121577 0.08666,-0.5613778 0.06826,-1.2244138 -0.01955,-0.7046428 -0.224411,-3.1410598 -0.316895,-3.7689888 -0.04967,-0.337218 -0.112186,-0.466424 -0.371069,-0.766881 -0.180869,-0.209915 -0.198189,-0.248127 -0.198189,-0.437217 0,-0.625309 0.631687,-1.33187 1.268247,-1.418571 0.346239,-0.04716 0.581766,0.142151 0.692288,0.556445 0.04503,0.168791 0.03678,0.222381 -0.109868,0.713085 l -0.158554,0.530579 0.0033,0.816275 c 0.0033,0.82089 0.01302,0.936227 0.200029,2.380143 0.150557,1.1624873 0.198111,1.8855923 0.141844,2.1568859 -0.06771,0.3264775 -0.250058,0.7431078 -0.53426,1.2206755 -0.422079,0.7092564 -0.946184,1.2092089 -1.559378,1.4875153 -0.291138,0.1321374 -0.373512,0.1500385 -0.32511,0.070649 z"
     id="path4286"
     inkscape:connector-curvature="0" />
</svg>
