<?xml version="1.0" encoding="UTF-8" standalone="no"?>
<!-- Created with Inkscape (http://www.inkscape.org/) -->

<svg
   xmlns:dc="http://purl.org/dc/elements/1.1/"
   xmlns:cc="http://creativecommons.org/ns#"
   xmlns:rdf="http://www.w3.org/1999/02/22-rdf-syntax-ns#"
   xmlns:svg="http://www.w3.org/2000/svg"
   xmlns="http://www.w3.org/2000/svg"
   xmlns:sodipodi="http://sodipodi.sourceforge.net/DTD/sodipodi-0.dtd"
   xmlns:inkscape="http://www.inkscape.org/namespaces/inkscape"
   id="svg2816"
   version="1.1"
   inkscape:version="0.48.5 r10040"
   width="437"
   height="217"
   sodipodi:docname="Flag_of_Turkestan_ASSR_(1919-1921).svg">
  <metadata
     id="metadata2822">
    <rdf:RDF>
      <cc:Work
         rdf:about="">
        <dc:format>image/svg+xml</dc:format>
        <dc:type
           rdf:resource="http://purl.org/dc/dcmitype/StillImage" />
        <dc:title />
      </cc:Work>
    </rdf:RDF>
  </metadata>
  <defs
     id="defs2820" />
  <sodipodi:namedview
     pagecolor="#ffffff"
     bordercolor="#666666"
     borderopacity="1"
     objecttolerance="10"
     gridtolerance="10"
     guidetolerance="10"
     inkscape:pageopacity="0"
     inkscape:pageshadow="2"
     inkscape:window-width="1360"
     inkscape:window-height="706"
     id="namedview2818"
     showgrid="false"
     showguides="true"
     inkscape:guide-bbox="true"
     inkscape:zoom="2.3317972"
     inkscape:cx="218.5"
     inkscape:cy="108.5"
     inkscape:window-x="-8"
     inkscape:window-y="-8"
     inkscape:window-maximized="1"
     inkscape:current-layer="svg2816" />
  <rect
     style="fill:#D50000;fill-opacity:1;stroke:none"
     id="rect3332"
     width="437"
     height="217"
     x="0"
     y="0" />
  <path
     style="fill:#ffff00"
     d=""
     id="path2856" />
  <path
     style="fill:#ffff00"
     d=""
     id="path2888" />
  <path
     style="fill:#ffff00"
     d=""
     id="path3060" />
  <path
     style="fill:#ffff00"
     d=""
     id="path3066" />
  <path
     style="fill:#ffff00"
     d=""
     id="path3100" />
  <path
     style="fill:#ffff00"
     d=""
     id="path3102" />
  <path
     style="fill:#ffff00"
     d=""
     id="path3106" />
  <path
     style="fill:#ffff00"
     d=""
     id="path3108" />
  <path
     style="fill:#ffff00"
     d=""
     id="path3114" />
  <path
     style="fill:#ffff00"
     d=""
     id="path3118" />
  <path
     style="fill:#ffff00"
     d=""
     id="path3120" />
  <path
     style="fill:#ffff00"
     d=""
     id="path3122" />
  <path
     style="fill:#ffff00"
     d=""
     id="path3184" />
  <path
     style="fill:#ffff00"
     d=""
     id="path3190" />
  <path
     style="fill:#ffff00"
     d=""
     id="path3192" />
  <path
     style="fill:#ffff00"
     d=""
     id="path3194" />
  <path
     style="fill:#ffff00"
     d=""
     id="path3224" />
  <path
     style="fill:#ffff00"
     d=""
     id="path3240" />
  <path
     style="fill:#ffff00"
     d=""
     id="path3242" />
  <path
     style="fill:#ffff00"
     d=""
     id="path3254" />
  <path
     style="fill:#ffff00"
     d=""
     id="path3268" />
  <path
     style="fill:#ffff00"
     d=""
     id="path3270" />
  <path
     style="fill:#ffff00"
     d=""
     id="path3280" />
  <path
     style="fill:#ffff00"
     d=""
     id="path3312" />
  <path
     style="fill:#ffff00"
     d=""
     id="path3316" />
  <path
     style="fill:#ffff00"
     d=""
     id="path3320" />
  <path
     style="fill:#ffff00"
     d=""
     id="path3322" />
  <path
     style="fill:#ffff00"
     d=""
     id="path3326" />
  <path
     style="fill:#ffff00"
     d=""
     id="path3328" />
  <path
     style="fill:#ffff00"
     d=""
     id="path3346" />
  <path
     style="fill:#ffff00"
     d=""
     id="path3356" />
  <path
     style="fill:#ffff00"
     d=""
     id="path3360" />
  <path
     style="fill:#ffff00"
     d=""
     id="path3380" />
  <path
     style="fill:#ffff00"
     d=""
     id="path3382" />
  <path
     style="fill:#ffff00"
     d=""
     id="path3384" />
  <path
     style="fill:#ffff00"
     d=""
     id="path3386" />
  <path
     style="fill:#ffff00"
     d=""
     id="path3396" />
  <path
     style="fill:#ffff00"
     d=""
     id="path3400" />
  <path
     style="fill:#ffff00"
     d=""
     id="path3402" />
  <path
     style="fill:#ffff00"
     d=""
     id="path3406" />
  <path
     style="fill:#ffff00"
     d=""
     id="path3422" />
  <path
     style="fill:#ffff00"
     d=""
     id="path3432" />
  <path
     style="fill:#ffff00"
     d=""
     id="path3434" />
  <path
     style="fill:#ffff00"
     d=""
     id="path3462" />
  <path
     style="fill:#ffff00"
     d=""
     id="path3492" />
  <path
     style="fill:#ffff00"
     d=""
     id="path3496" />
  <path
     style="fill:#ffff00"
     d=""
     id="path3498" />
  <path
     style="fill:#ffff00"
     d=""
     id="path3522" />
  <path
     style="fill:#ffff00"
     d=""
     id="path3524" />
  <path
     style="fill:#ffff00;stroke:#fcdd09;stroke-opacity:1;stroke-width:1.5;stroke-miterlimit:4;stroke-dasharray:none"
     d="m 124.03361,19.796946 c 0,-0.152726 0.0312,-0.160581 0.17241,-0.04339 0.21708,0.180164 0.21708,0.229873 0,0.229873 -0.0948,0 -0.17241,-0.08392 -0.17241,-0.186478 z"
     id="path2886" />
  <path
     style="fill:#ffff00;stroke:#fcdd09;stroke-opacity:1;stroke-width:1.5;stroke-miterlimit:4;stroke-dasharray:none"
     d="m 124.03361,20.053189 c 0,-0.109032 0.34405,-0.163982 0.40538,-0.06474 0.0374,0.06045 -0.0386,0.109917 -0.16872,0.109917 -0.13016,0 -0.23666,-0.02033 -0.23666,-0.04517 z"
     id="path2890" />
  <path
     style="fill:#fcdd09;stroke:#fcdd09;stroke-opacity:1;stroke-width:1.5;stroke-miterlimit:4;stroke-dasharray:none"
     d="m 105.09375,14 c -0.32893,-0.01367 -0.77548,0.02403 -1.03125,0.0625 -0.90779,0.125326 -1.13127,0.945737 -0.85103,1.560552 0.13614,0.424419 0.42416,0.806499 0.85108,1.595698 0.86364,1.522745 1.3097,3.285042 1.53125,4.9375 0.24712,1.926263 0.3398,3.329501 0.375,6.65625 0.0489,4.625389 -0.099,7.008354 -0.53125,8.9375 -0.35632,1.590422 -0.83302,2.624913 -2.46875,5.46875 -0.58767,1.021694 -1.0625,1.85399 -1.0625,1.875 0,0.0814 0.16871,-0.0236 1.25,-0.96875 1.18536,-1.036112 1.87986,-1.814605 2.75,-3.03125 2.8073,-3.92524 3.47875,-6.708177 3.46875,-14.4375 -0.14571,-3.750781 0.0886,-7.442858 -1.24995,-10.71875 -0.22762,-0.449976 -0.46863,-0.804523 -0.78125,-1.09375 -0.16858,-0.155975 -0.35983,-0.294759 -0.5625,-0.40625 -0.27047,-0.148793 -0.57719,-0.275244 -0.90625,-0.34375 C 105.61912,14.04048 105.42129,14.01361 105.09375,14 z"
     id="path3162"
     inkscape:connector-curvature="0"
     sodipodi:nodetypes="scccccsssssccccss" />
  <path
     style="fill:#fcdd09;stroke:#fcdd09;stroke-opacity:1;stroke-width:1.5;stroke-miterlimit:4;stroke-dasharray:none"
     d="m 116.21144,41.900489 c -0.17884,-0.05204 -0.12596,-0.204907 0.15535,-0.44911 1.30902,-1.136329 2.035,-2.083739 3.22163,-4.204247 1.5595,-2.786862 2.7409,-5.696637 3.57565,-8.806805 0.68407,-2.548776 1.36658,-3.872885 2.188,-4.244884 0.42034,-0.190362 1.29296,-0.181762 1.71875,0.01694 0.34124,0.159244 0.70732,0.525423 0.89676,0.897006 0.40015,0.784865 0.85587,2.296785 1.3808,4.580941 0.77772,3.384158 0.90926,3.902534 1.25291,4.9375 0.54147,1.63073 1.26615,3.224932 1.93194,4.25 0.1228,0.189063 0.51629,0.695313 0.87444,1.125 0.91034,1.092196 1.25881,1.669655 1.13168,1.875355 -0.0744,0.120295 -0.54546,0.03686 -1.02847,-0.182149 -0.69583,-0.315507 -1.34284,-0.812091 -2.28579,-1.754373 -2.39783,-2.396109 -4.17926,-5.647586 -4.18444,-7.637435 -0.002,-0.948522 -0.24567,-1.952968 -0.51928,-2.144607 -0.22016,-0.154206 -0.51326,-0.117728 -0.75426,0.09387 -0.43455,0.381542 -0.72095,1.088571 -1.25998,3.110441 -0.46675,1.75074 -2.20157,4.409057 -3.84744,5.895543 -1.16166,1.049162 -2.47173,2.014406 -3.30722,2.436707 -0.39202,0.198149 -0.86881,0.283522 -1.14103,0.204309 l 0,0 z"
     id="path3164"
     inkscape:connector-curvature="0" />
  <path
     style="fill:#fcdd09;stroke:#fcdd09;stroke-width:1.5;stroke-miterlimit:4;stroke-opacity:1;stroke-dasharray:none"
     d="m 114.89537,76.884749 c -1.69576,-0.130558 -2.78956,-0.482148 -3.8558,-1.239409 -0.99537,-0.706923 -3.09236,-2.735319 -4.17378,-4.037244 -1.47767,-1.778968 -1.82419,-3.093349 -1.82567,-6.924788 -0.003,-6.554406 1.52247,-10.514204 4.89185,-12.702083 2.30089,-1.494062 5.4693,-2.096393 10.0451,-1.909621 3.13883,0.128119 3.9755,0.444791 5.56006,2.104432 1.59736,1.673063 2.99784,3.741114 2.92743,4.322876 -0.0807,0.66661 -1.7126,0.453315 -3.30388,-1.900144 -2.04619,-1.867664 -2.89459,-2.301598 -4.82712,-2.468923 -1.69498,-0.146757 -5.83006,0.12666 -7.22639,0.477818 -1.29305,0.325185 -2.13415,0.938671 -3.15828,2.303597 -1.6496,2.198515 -2.45798,4.057598 -2.95091,6.786396 -0.1532,0.848097 -0.15197,3.288416 0.002,4.125 0.26042,1.414221 0.54389,2.316895 1.07021,3.40792 0.64494,1.3369 1.40406,2.351723 2.64656,3.538006 1.48177,1.41473 2.352,1.852591 4.22899,2.127838 0.40191,0.05894 1.36543,0.08212 3.375,0.0812 2.34584,-0.0011 2.93218,-0.01928 3.53378,-0.109729 1.8323,-0.275487 2.50533,-0.639801 3.49394,-1.891265 0.63668,-0.805965 1.17252,-1.280587 1.75222,-1.552037 0.75103,-0.351675 1.38342,-0.218897 1.42724,0.299666 0.0392,0.463678 -0.45019,1.174779 -1.67493,2.433816 -1.67781,1.724805 -2.81855,2.346072 -4.84475,2.638538 -0.79376,0.114574 -5.94114,0.178354 -7.11295,0.08814 l 0,0 z"
     id="path3168"
     inkscape:connector-curvature="0"
     sodipodi:nodetypes="csscsssccsssscssscssscssccc" />
  <path
     style="fill:#fcdd09;stroke:#fcdd09;stroke-width:1.5;stroke-miterlimit:4;stroke-opacity:1;stroke-dasharray:none"
     d="m 84.50832,77.88185 c -1.44858,-0.145228 -4.197164,-1.419916 -5.330544,-2.22865 -1.238096,-0.883451 -2.542734,-2.692858 -3.507039,-4.002774 -0.665217,-0.903634 -1.292865,-3.23031 -1.474345,-4.402805 -0.140317,-0.906553 -0.198144,-3.267455 -0.100097,-4.6817 0.308061,-4.443504 1.45096,-7.488412 3.576662,-9.528927 2.367533,-2.272657 5.600043,-3.177266 10.585363,-2.962279 3.22005,0.138861 4.27153,0.530108 6.16381,2.293508 2.35929,2.198599 3.83078,4.387615 3.49475,5.198855 -0.16993,0.410256 -0.68104,0.496391 -1.14032,0.192175 -0.46717,-0.309439 -1.5859,-1.51725 -2.54635,-2.749097 -1.17205,-1.503239 -1.82625,-2.160565 -2.44521,-2.456889 -0.79463,-0.380427 -1.28944,-0.450139 -3.15168,-0.444031 -2.37644,0.0078 -4.69045,0.185102 -6.09782,0.467236 -1.53656,0.308035 -2.52157,0.906225 -3.492832,2.121184 -1.46033,1.826739 -2.331264,4.053878 -2.664065,6.8125 -0.110697,0.917577 -0.12384,2.959354 -0.02528,3.927243 0.31934,3.136038 1.361848,5.851661 2.955112,7.697757 0.759405,0.879909 1.654635,1.513111 2.793635,1.975951 3.69971,1.503396 7.78423,1.189227 10.58934,-0.8145 0.20867,-0.14906 0.65537,-0.527448 0.99265,-0.84086 1.41582,-1.315623 2.7227,-2.13489 3.40114,-2.132134 0.31221,0.0013 0.4127,0.07437 0.4127,0.300184 0,0.67427 -1.60397,2.602872 -3.41536,4.106605 -1.53599,1.275105 -2.49371,1.752655 -4.08691,2.037865 -0.63389,0.113479 -1.031,0.134657 -2.83106,0.150985 -1.15156,0.01045 -2.34688,-0.0064 -2.65625,-0.0374 z"
     id="path3170"
     inkscape:connector-curvature="0"
     sodipodi:nodetypes="cssssssscsssssssssscscsssscc" />
  <path
     style="fill:#fcdd09;stroke:#fcdd09;stroke-width:1.5;stroke-miterlimit:4;stroke-opacity:1;stroke-dasharray:none"
     d="m 45.320214,76.871249 c -0.05351,-0.0764 -0.09729,-0.232272 -0.09729,-0.346384 0,-1.419729 2.088727,-6.441036 5.608753,-13.483459 3.366405,-6.735079 6.334842,-11.71875 6.980068,-11.71875 0.192187,0 0.741189,0.624602 1.315725,1.496906 1.026212,1.55807 2.076742,3.601758 3.439207,6.690594 3.394369,7.695353 5.238428,11.79941 6.480683,14.423123 0.678523,1.43308 0.690834,1.466951 0.6196,1.704708 -0.08395,0.280209 -0.628895,0.873282 -0.799353,0.869954 -0.457045,-0.0089 -1.349043,-1.079562 -2.141367,-2.570217 -0.176481,-0.332026 -0.838378,-1.808588 -1.470881,-3.28125 l -1.150008,-2.677568 -6.570616,-0.01591 -6.570617,-0.01591 -0.893969,1.831851 c -1.429452,2.929119 -1.893957,3.835222 -2.392932,4.66785 -0.777116,1.296758 -1.515078,2.214303 -1.965889,2.444289 -0.288527,0.147195 -0.273596,0.147952 -0.39111,-0.01982 l 0,0 z M 60.50417,65.947194 c 1.563776,-0.101796 2.409104,-0.227464 2.498038,-0.371362 0.04028,-0.06517 -0.193921,-0.739233 -0.543992,-1.565676 -0.941116,-2.221769 -4.684586,-10.15625 -4.791697,-10.15625 -0.130528,0 -2.264916,4.158207 -3.256218,6.34375 -0.665123,1.46641 -2.437381,5.655523 -2.437381,5.761273 0,0.07229 7.396805,0.06211 8.53125,-0.01173 z"
     id="path3172"
     inkscape:connector-curvature="0" />
  <path
     style="fill:#fcdd09;stroke:#fcdd09;stroke-width:1.5;stroke-miterlimit:4;stroke-opacity:1;stroke-dasharray:none"
     d="m 137.9107,76.858656 c -0.15566,-0.203914 -0.70867,-0.717634 -0.71547,-1.829491 l -0.088,-14.398845 -0.0395,-10.628699 4.35994,0.0039 c 6.01925,0.0054 11.30665,0.133741 12.36366,0.300085 1.69914,0.267399 2.46419,0.620112 3.55537,1.639154 1.27925,1.194679 2.05048,2.45615 2.32256,3.798929 0.19675,0.971011 0.13733,2.690347 -0.12306,3.560733 -0.76061,2.542481 -2.9886,4.19415 -6.75497,5.007654 -2.32424,0.502014 -4.21594,0.626354 -9.53607,0.626799 l -4.30023,3.59e-4 -0.0409,4.485709 c -0.0421,4.616673 0.18938,5.511592 -0.17356,6.764831 -0.16554,0.571679 -0.69825,0.841194 -0.82979,0.668865 l 0,0 z m 10.74955,-13.950014 c 2.9545,-0.296891 5.142,-0.680596 6.81779,-1.671786 0.73662,-0.43569 1.82763,-1.258397 2.24629,-2.347257 0.29157,-0.758326 0.41043,-1.867911 0.13368,-2.686688 -0.37609,-1.112722 -1.39679,-2.502454 -2.25782,-3.074149 -1.47786,-0.981242 -3.45723,-1.18139 -11.69082,-1.182143 l -4.97184,-4.55e-4 0,5.581348 0,5.581348 4.39732,-0.05348 c 2.41852,-0.02941 4.81495,-0.09545 5.3254,-0.146738 z"
     id="path3174"
     inkscape:connector-curvature="0"
     sodipodi:nodetypes="csccssssssscscccccsscsscccsc" />
  <path
     style="fill:#fcdd09;stroke:#fcdd09;stroke-opacity:1;stroke-width:1.5;stroke-miterlimit:4;stroke-dasharray:none"
     d="m 36.620587,42.856264 -0.839689,-0.0321 1.687065,-0.819838 c 2.469295,-1.199966 3.521259,-1.928198 3.847793,-2.663673 0.178394,-0.40181 0.391038,-2.203833 0.520952,-4.414751 0.0457,-0.777818 0.123554,-3.920024 0.172999,-6.98268 0.118237,-7.323694 0.252355,-9.369963 0.672109,-10.25453 0.180702,-0.3808 0.251764,-0.428222 0.535123,-0.357104 0.474291,0.11904 0.881027,1.534716 1.132566,3.941988 0.155418,1.487375 0.259561,3.52114 0.445632,8.702578 0.261675,7.286797 0.492145,8.631333 1.589775,9.274588 0.564564,0.330856 1.388039,0.515209 2.300685,0.515059 1.116354,-1.77e-4 1.375294,-0.12254 1.563884,-0.738976 0.433923,-1.418345 0.675966,-4.784412 0.781095,-10.862632 0.08833,-5.107007 0.192457,-7.476146 0.398234,-9.060766 0.275112,-2.118551 0.663817,-2.56339 1.093911,-1.251884 0.279551,0.852443 0.357622,1.559769 0.44776,4.056657 0.09532,2.640403 0.363979,6.793665 0.624807,9.658944 0.440855,4.842941 0.872556,6.627767 1.782603,7.370005 0.291127,0.237444 1.337287,0.540752 1.865143,0.540752 1.601978,0 2.348532,-1.386177 2.629013,-4.881468 0.107231,-1.336289 0.104576,-1.814327 -0.06175,-11.116822 -0.07435,-4.158515 0.08644,-5.86735 0.595387,-6.327368 0.18595,-0.168074 0.188823,-0.167196 0.44122,0.134924 1.325675,1.586841 2.15891,12.871197 1.355796,18.361346 -0.178057,1.217217 -0.580787,2.542421 -1.098627,3.615089 -1.226714,2.541048 -2.951611,3.372854 -5.745155,2.770517 -1.108864,-0.239091 -2.708476,-0.316812 -3.50067,-0.170089 -0.335163,0.06208 -0.894381,0.22501 -1.242704,0.362076 -1.468374,0.577811 -2.359816,0.539425 -4.319264,-0.185991 -1.969116,-0.728995 -2.801329,-0.739227 -4.405094,-0.05416 -1.138132,0.486168 -2.146282,0.743161 -3.335916,0.850381 -0.505019,0.04552 -0.957991,0.07584 -1.006604,0.06739 -0.04861,-0.0084 -0.466249,-0.02981 -0.928078,-0.04746 l 0,0 z"
     id="path3178"
     inkscape:connector-curvature="0" />
  <path
     style="fill:#fcdd09;stroke:#fcdd09;stroke-opacity:1;stroke-width:1.5;stroke-miterlimit:4;stroke-dasharray:none"
     d="m 18.613101,42.671581 c -1.703265,-0.502799 -3.078381,-1.598177 -4.286681,-3.414647 -0.582344,-0.875453 -1.500755,-2.702289 -1.656184,-3.294358 -0.187515,-0.714295 0.187363,-1.084239 1.534984,-1.51478 1.047507,-0.334659 1.55091,-0.406047 1.94535,-0.275871 0.525603,0.173465 0.662662,0.469648 0.802891,1.735039 0.146858,1.32521 0.371295,1.873792 0.989092,2.417599 1.089023,0.958596 2.662421,1.201858 4.58808,0.709357 1.515021,-0.387477 2.614646,-1.16705 3.2387,-2.296054 0.525067,-0.949925 1.087007,-2.754409 1.520942,-4.884013 0.492527,-2.417148 0.699124,-6.38049 0.457844,-8.783253 -0.372768,-3.712184 -0.174374,-4.059048 2.901561,-5.072973 1.614893,-0.53232 1.988576,-0.511792 1.992078,0.109434 7.07e-4,0.132059 -0.218544,1.325302 -0.487308,2.65165 -0.268764,1.326349 -0.867029,4.400281 -1.329479,6.830961 -1.642115,8.631119 -2.142433,9.96971 -4.612434,12.340477 -1.376924,1.321603 -2.774618,2.203091 -4.197255,2.647093 -0.896667,0.279848 -2.612576,0.327428 -3.402181,0.09434 z"
     id="path3180"
     inkscape:connector-curvature="0" />
  <path
     style="fill:#fcdd09;stroke:#fcdd09;stroke-opacity:1;stroke-width:1.5;stroke-miterlimit:4;stroke-dasharray:none"
     d="m 123.19361,20.962611 c -0.40063,-0.06335 -0.737,-0.225262 -0.96079,-0.4625 -0.18983,-0.201226 -0.25282,-0.400988 -0.20854,-0.661293 0.0748,-0.43995 0.39354,-0.761872 0.81315,-0.821384 0.41899,-0.05942 1.0681,0.272164 1.48118,0.756637 0.19323,0.226623 0.28234,0.411399 0.28401,0.588931 0.003,0.301835 -0.26864,0.528439 -0.72107,0.601885 -0.16521,0.02682 -0.51116,0.02567 -0.68794,-0.0023 z"
     id="path3342" />
  <path
     style="fill:#fcdd09;stroke:#fcdd09;stroke-opacity:1;stroke-width:1.5;stroke-miterlimit:4;stroke-dasharray:none"
     d="m 128.44939,20.995751 c -0.0569,-0.0026 -0.16997,-0.01377 -0.23242,-0.02285 -0.61474,-0.08943 -1.09315,-0.414908 -1.19342,-0.811932 -0.0157,-0.06238 -0.0198,-0.09734 -0.0197,-0.170343 4.2e-4,-0.275689 0.10896,-0.533246 0.30544,-0.724804 0.0767,-0.07475 0.14792,-0.125171 0.24291,-0.17191 0.29071,-0.143047 0.61497,-0.117974 1.01252,0.07829 0.31828,0.157135 0.61772,0.402862 0.83071,0.681706 0.12852,0.168265 0.1924,0.298877 0.21426,0.438106 0.008,0.049 0.003,0.145562 -0.009,0.190801 -0.0192,0.0711 -0.0451,0.122873 -0.0907,0.18164 -0.13175,0.169628 -0.38371,0.283384 -0.70889,0.320049 -0.10515,0.01186 -0.24341,0.01628 -0.35156,0.01125 l 0,0 z"
     id="path3350"
     inkscape:connector-curvature="0" />
  <path
     style="fill:#fcdd09;stroke:#fcdd09;stroke-opacity:1;stroke-width:1.5;stroke-miterlimit:4;stroke-dasharray:none"
     d="m 66.074292,43.497206 c 0.08965,-0.145056 1.294826,-0.993815 2.309026,-1.626158 0.584375,-0.364351 1.885156,-1.147773 2.890625,-1.740936 l 1.828125,-1.078478 -6.2e-5,-1.790029 c -3.4e-5,-0.984515 -0.06054,-3.505653 -0.13446,-5.602528 -0.161891,-4.592343 -0.193193,-10.27106 -0.06305,-11.4375 0.175452,-1.572484 0.44045,-2.274285 0.821167,-2.174725 0.373822,0.09776 0.835834,0.842023 1.117201,1.799725 0.653612,2.224733 1.013368,5.99423 1.103511,11.5625 0.04268,2.636282 0.114564,3.926998 0.284426,5.106862 0.329343,2.287621 0.942005,3.664579 1.836804,4.128216 0.956205,0.495455 2.713452,-0.412535 3.345494,-1.728655 0.13376,-0.278532 0.287178,-0.722871 0.340928,-0.98742 0.28116,-1.383805 0.281278,-4.193768 4.38e-4,-9.956503 -0.185219,-3.799897 -0.228992,-7.465842 -0.09943,-8.325694 0.169773,-1.126751 0.438511,-1.580556 0.935986,-1.580556 0.872736,0 1.188828,1.337074 1.322398,5.59375 0.03452,1.1 0.06296,3.170082 0.0632,4.600182 0.001,5.927108 0.238832,8.511361 0.912785,9.918791 0.401217,0.83787 1.721336,2.005781 2.595302,2.296065 1.086823,0.360985 1.795733,-0.44071 2.211487,-2.500938 0.386897,-1.917225 0.520297,-4.137507 0.657247,-10.9391 0.07877,-3.912175 0.182279,-5.699941 0.410713,-7.09375 0.205157,-1.251779 0.512452,-1.875 0.924518,-1.875 0.768718,0 1.089434,1.702299 1.224612,6.5 0.08026,2.848547 0.08015,8.043955 -2.5e-4,10.84375 -0.132258,4.606643 -0.39431,5.400216 -2.10229,6.366392 -1.343655,0.760084 -2.208525,1.01866 -3.203205,0.957683 -0.668658,-0.04099 -0.993667,-0.13156 -2.135805,-0.595181 -1.709635,-0.69398 -2.345362,-0.685221 -3.313329,0.04565 -0.613881,0.463517 -0.937639,0.569367 -1.73957,0.568733 -0.755728,-6.25e-4 -1.146921,-0.0635 -2.504281,-0.402704 -1.590088,-0.397359 -1.884323,-0.437227 -3.21875,-0.436132 -1.626301,0.0013 -2.523921,0.15053 -4.836536,0.803896 -1.33616,0.377495 -2.174648,0.587139 -2.91334,0.728409 -0.717384,0.137195 -0.932523,0.149877 -0.87165,0.05138 l 1.1e-5,0 z"
     id="path3160"
     inkscape:connector-curvature="0" />
</svg>
