<?xml version="1.0" encoding="utf-8"?>
<!-- Generator: Adobe Illustrator 13.0.0, SVG Export Plug-In . SVG Version: 6.00 Build 14948)  -->
<!DOCTYPE svg PUBLIC "-//W3C//DTD SVG 1.1//EN" "http://www.w3.org/Graphics/SVG/1.1/DTD/svg11.dtd">
<svg version="1.1" id="Layer_1" xmlns="http://www.w3.org/2000/svg" xmlns:xlink="http://www.w3.org/1999/xlink" x="0px" y="0px"
	 width="598.47px" height="853.457px" viewBox="0 0 598.47 853.457" enable-background="new 0 0 598.47 853.457"
	 xml:space="preserve">
<rect width="598.47" height="853.457"/>
<g id="XMLID_1_">
	<g>
		<path fill="#D6D6D6" d="M293.925,181.739c-0.16-0.05-0.33-0.06-0.511-0.04c0.24-2.42,3.521-1.9,5.29-1.79
			c-0.27,1.36-0.27,3.16-1.31,4.3c-1-0.57-1.93-1.5-2.93-2.16C294.325,181.889,294.145,181.779,293.925,181.739z"/>
		<path fill="#FFFFFF" d="M476.875,246.418c-0.23,0.85-0.341,1.77-0.561,2.54c-0.75,2.59-2,5.04-3.39,7.34
			c-1.87,3.1-4.04,6.87-6.61,9.39c-1.5,1.47-3.09,2.71-4.479,4.51c-1.521,1.97-2.53,6.02-5.44,5.94c-2.77-0.07-4.51-5.56-5.69-7.77
			c-1.819-3.39-2.909-5.64-6.54-7.2c-3.97-1.71-8.399-0.99-12.56-1.8c-1.83-0.35-3.78-0.57-3.05-2.58c0.42-1.16,2.26-3.19,3.07-4.22
			c1.739-2.23,4.93-3.73,6.84-5.78c1.26-1.35,2.26-2.94,3.43-4.45c1.7-2.22,3.63-4.72,5.57-6.6c1.01-0.98,2.609-1.61,3.64-2.61
			c0.59-0.57,0.86-1.08,0.88-1.53l0.66,0.04c1.97,0.9,4.39-0.03,6.49,0.75c1.899,0.71,3.649,2.09,5.37,3.16
			c3.5,2.17,6.239,4.99,9.13,7.91C474.615,244.438,476.085,245.249,476.875,246.418z"/>
		<path fill="#D2450E" d="M134.915,86.269l-0.07,0.22c-0.92-0.3-1.67-0.02-1.95-1.27c-0.29-1.3,0.54-2.28,1.48-2.83
			c2.46-1.44,4.59-0.98,7,0.04c1.22,0.52,1.36,0.91,1.35,2.13c-0.01,1.32-0.16,1.24-1.16,1.66c-0.93,0.39-2.26,0.46-3.36,0.34
			C137.435,86.479,135.845,86.499,134.915,86.269z"/>
		<path fill="#D2450E" d="M173.075,102.829c0.89,0.51,1.19,2.62,0.58,3.28c-0.29,0.32-1.2,0.3-1.59,0.57
			c-0.49,0.32-0.59,0.89-1.17,1.23c-0.06-0.05-0.12-0.11-0.18-0.18l0.01-0.01C169.905,106.339,170.115,101.159,173.075,102.829z"/>
		<path fill="#FFAE00" d="M515.835,492.009c-0.351-2.47-2.33-5.22-3.551-7.23c-1.18-1.92-3.239-5.189-5.399-6.33
			c-2.07-1.09-5.351-1.01-7.681-1.739c-3.529-1.101-6.39-1.431-10.05,0.09c-4.59,1.91-8.89,6.189-9.189,11.03
			c-0.141,2.409-0.88,5.56-0.38,7.779c0.38,1.721,1.76,3.71,2.55,5.46c1.29-3.609,0.64-6.319,3.899-8.68
			c3.351-2.42,7.341-4.28,11.7-4.68c3.69-0.33,7.79-0.2,11.48-0.011c1.46,0.08,3.93,0.061,4.939,1.19
			c0.891,0.98,0.53,2.27,1.41,3.16L515.835,492.009z M522.895,464.749v-0.03c1.79-0.08,2.24-1.28,1.95-2.65l2.26-0.09
			c0.15,0.67,0.36,1.34,0.46,2.08c0.14,1.16-0.53,3.32-0.02,4.34c1.39,2.82,5.27,1.57,7.159,0.41c1.46-0.9,2.75-2.66,4.33-3.35
			c1.86-0.811,3.301-0.75,5.19-1.07c2.86-0.49,5.39,0.01,8.33,0c16.229-0.06,20.88,17.4,18.93,31c-0.35,2.43-1.399,4.88-2.359,7.28
			c-0.19,0.479-0.381,0.96-0.561,1.43c-1.67,3.1-2.68,6.21-3.55,9.46c-0.17,0.65-0.34,1.311-0.5,1.97
			c-2.62,4.53-2.62,11.53-5.24,16.42c-0.1,0.421-0.2,0.811-0.31,1.2c-0.23,0.771-0.5,1.5-0.971,2.32c-1.43,2.5-1.97,3.91-4.819,4.34
			c-3.75,0.561-8.03,0-11.82,0c-7.66,0-15.31,0-22.97,0c-6.271,0-12.53,0-18.8,0c-2.131,0-4.271,0-6.4,0c-0.61,0-1.48,0.16-2.07,0
			c-1.989-0.54-2.66-3.06-3.17-5.08c-0.46-1.859-1.02-3.66-1.66-5.45c-2.05-5.729-3.979-11.739-6.35-17.34
			c-1.521-3.59-3.33-6.649-4.2-10.49c-0.8-3.579-1.189-7.229-1.66-10.859c-0.069-0.521-0.13-1.04-0.21-1.561
			c-0.479-3.489-0.979-6.979-0.81-10.319c0.04-0.67,0.1-1.33,0.189-1.99c0.62-1.75,1.29-3.54,2.25-5.15
			c0.32-0.529,0.67-1.04,1.07-1.52c5.33-4.99,13.33-6.99,20.8-4.811c0.521,0.141,1.05,0.28,1.58,0.431
			c0.54,0.14,1.08,0.279,1.63,0.41c4.021,0.949,7.29,3.46,11,4.319c3.61,0.83,4.721,0.141,4.65-3.68c-0.01-0.59-0.03-1.14-0.08-1.66
			l1.47-0.06C519.445,465.119,521.145,464.908,522.895,464.749z M526.465,492.679l0.279,0.04c0.881-0.89,0.521-2.18,1.4-3.16
			c1.01-1.13,3.48-1.11,4.95-1.189c3.689-0.19,7.79-0.32,11.47,0.01c4.37,0.399,8.35,2.25,11.7,4.67
			c3.27,2.359,2.61,5.08,3.899,8.689c0.79-1.75,2.171-3.739,2.561-5.46c0.5-2.22-0.24-5.37-0.39-7.79
			c-0.29-4.83-4.591-9.119-9.19-11.029c-3.66-1.521-6.52-1.19-10.04-0.08c-2.34,0.729-5.62,0.64-7.69,1.729
			c-2.159,1.15-4.22,4.41-5.399,6.34C528.805,487.448,526.825,490.209,526.465,492.679z M548.335,536.039
			c1.1-0.08,2.59-0.471,3.85-0.381c-0.35-1.229-1.7-2.189-3.51-2.97c-0.601-0.26-1.25-0.5-1.931-0.729
			c-0.489-0.19-0.979-0.37-1.489-0.54c-6.36-2.36-11.36-3.36-17.521-4.761c-0.56-0.13-1.13-0.239-1.689-0.34
			c-3.931-0.689-7.811-0.75-12.021,0.061c-0.49,0.069-0.97,0.16-1.46,0.27c-0.479,0.12-0.96,0.26-1.45,0.431
			c-0.56,0.13-1.12,0.27-1.68,0.399c-1.13,0.271-2.28,0.55-3.46,0.79c-0.64,0.26-1.271,0.521-1.9,0.8
			c-2.52,1.08-5.01,2.21-7.56,3.021c-0.69,0.25-1.36,0.51-1.96,0.79c-1.811,0.84-3.03,1.859-2.61,3.12c0.57,0.109,1.101,0,1.62-0.28
			v-0.33c1.38,0,2.75,0,4.13,0c0.75,0,1.5,0,2.24,0c3.96-0.33,6.96-0.33,11.2,0.01c0.74,0,1.49,0,2.24,0
			c3.729,0,7.449,0,11.159-0.01c2.811-0.01,5.591,0.07,8.37,0.19c0.69,0.029,1.38,0.069,2.08,0.1c1.91,0.38,3.91,0.38,6.23,0.37
			c0.58,0.04,1.17,0.07,1.77,0.09C544.765,536.188,546.605,536.148,548.335,536.039z"/>
		<path fill="#D8370B" d="M538.915,241.719c-1.359,1.5-2.27,3.31-4.18,4.26c-0.899,0.45-1.99,0.61-2.78,1.14
			c-1.01,0.69-1.819,2.25-3,2.87c-1.609,0.85-2.649,0.74-3.72,2.08c-1.2,1.5-1.07,3.04-0.96,4.93c4.14,1.69,8.46-1.78,10.69-4.67
			c1.979-2.57,5.699-7.06,5.21-10.56C539.805,241.708,539.305,241.639,538.915,241.719z M510.035,209.168
			c0.301-1.08,0.5-2.19,0.311-3.1c0.85-1.78,2.53-3.53,3.58-4.45c5.62-4.87,13.939-6.03,18.35-12.53c2-2.96,5.92-4.6,8.64-7.17
			c2.12-1.99,4.211-4,6.25-6.05c3.271-3.3,4.811-6.18,5.221-10.69c0.22-2.5,0.93-4.53,1.7-6.55c0.75-1.95,0.649-4.56,0.56-6.74
			c-0.09-2.2-0.44-4.23-1.43-6.23c-0.71-1.46-1.67-3.42-2.9-4.5c-1.22-1.06-1.1-0.7-2.56-1.06c-4.94-1.21-10.08-0.73-14.971,0.22
			c-3.89,0.76-5.38,3.54-7.199,6.57c-0.86,1.44-2.03,3.22-3.66,3.98c-0.04-0.7-0.12-1.49-0.03-2.3c0.54-4.56,4.47-8.09,7.5-11.38
			c0.95-1.02,1.55-2.25,2.7-3.04c1.81-1.26,4.31-2.59,6.38-3.33c2.83-1.01,5.96-1.11,8.95-1.19c3.35-0.08,4.77,0.97,7.899,2.03
			c2.86,0.96,7.29,0.37,8.811,3.21c1.16,2.17,0.93,4.44,2.06,6.64c1.03,1.99,1.48,3.25,1.391,5.58c-0.301,7.82-2.051,15.8-2.99,23.6
			c-0.32,2.69-1.67,4.37-1.94,7.11c-0.58,5.83-1.2,11.63-2.149,17.3c-0.99,5.84,0.609,12.38,0.37,18.35
			c-0.2,5.05-1.29,10.11-1.931,15.12c-0.56,4.48-1.899,9.15-3.49,13.42c-1.01,2.71-2.369,5.41-3.859,7.9
			c-1.53,2.55-3.641,4.47-5.4,6.64c-1.229,1.53-1.26,2.05-3.28,2.8c-1.579,0.58-3.18,1.03-4.779,1.5
			c-2.891,0.84-5.92,1.43-8.95,1.57c-3.54,0.16-7.24,0.19-10.75-0.05c-0.89-3.56-0.34-6.52,0.78-9.96c1.029-3.18,2.72-5.69,5.66-7.5
			c2.399-1.48,4.25-3.56,6.5-5.07c3.189-2.14,6.689-3.17,9.489-6.02c4.08-4.15,6.82-8.98,8.4-14.68c0.84-3.07,2.189-8.75,0.46-11.79
			c-1.61-2.82-2.96,0.34-4.62,1.75c-4.37,3.72-8.32,6.14-13.86,8.08c-2.14,0.75-3.67,1.97-5.899,2.28
			c-1.74,0.25-3.57,0.57-5.32,0.71c-2.66,0.22-5.62,0.23-8.12-0.77c-3.63-1.46-3.52-3.37-2.81-7.05
			C509.245,211.549,509.695,210.379,510.035,209.168z"/>
		<path fill="#160403" d="M554.645,151.889c0.09,2.18,0.19,4.79-0.56,6.74c-0.771,2.02-1.48,4.05-1.7,6.55
			c-0.41,4.51-1.95,7.39-5.221,10.69c-2.039,2.05-4.13,4.06-6.25,6.05c-2.72,2.57-6.64,4.21-8.64,7.17
			c-4.41,6.5-12.729,7.66-18.35,12.53c-1.05,0.92-2.73,2.67-3.58,4.45c-0.12-0.59-0.41-1.1-0.95-1.45
			c-1.38-0.89-2.15,0.09-2.87,1.06c-1.18,1.62-1.76,3.85-3.28,5.31c-1.06,1.02-1.819,0.81-2.72,2.2c-1.59,2.44-1.149,5.93-3.26,7.95
			c-1.22,1.17-2.771,1.31-4.17,2.2c-1.75,1.11-1.61,1.88-2.01,4.17c-0.271,1.58-0.891,4.3-2.171,5.39
			c-1.52,1.29-3.489,0.54-4.479,2.75c-0.37,0.83-0.4,1.73-0.22,2.57l-1.82,0.17c-1.29-1.96-2.8-3.15-4.73-4.18
			c-2.39-1.26-4.279-3.97-6.979-4.11c-0.35-1.62-4.21-2.8-5.49-3.82c-0.55-0.43-1.069-0.98-1.609-1.49
			c0.869,0.1,1.779,0.13,2.77,0.06c0.21-3.04-0.28-5.57,1.74-7.95c0.74-0.88-0.181-0.77,1.229-1.27c0.59-0.2,1.431,0.1,2.061,0.01
			c1.479-0.22,2.42-0.97,3.58-2.18c0.84-0.88,1.83-1.62,2.76-2.51c1.14-1.07,1.34-2.16,1.68-3.83c0.25-1.21,0.33-3.42,1.05-4.48
			c0.94-1.39,1.73-0.74,3.19-1c2.8-0.49,2.4-3.4,4.44-5.05c2.14-1.75,3.989-1.58,5.319-4.71c0.91-2.16,1.25-4.29,2.54-6.29
			c1.34-2.07,1.87-1.32,3.7-2.38c1.52-0.88,2.35-2.87,3.41-4.26c1.689-2.25,3.31-4.38,4.42-6.95c1.41-3.28,3.54-4.41,6.21-6.39
			c1.42-1.06,3.53-3.51,3.71-5.28c0.17-1.66-1.06-1.59-1.51-2.93c-1.03-3.06,1.99-3.37,4.22-3.76c1.83-0.32,1.9-1.39,1.82-2.77
			c1.63-0.76,2.8-2.54,3.66-3.98c1.819-3.03,3.31-5.81,7.199-6.57c4.891-0.95,10.03-1.43,14.971-0.22c1.46,0.36,1.34,0,2.56,1.06
			c1.23,1.08,2.19,3.04,2.9,4.5C554.205,147.659,554.555,149.688,554.645,151.889z"/>
		<rect x="490.015" y="542.429" fill="#FFAE00" width="64.63" height="13.13"/>
		<path fill="#6B0901" d="M538.565,743.009c4.86,7.38-5.34,18.439-11.34,21.7c-1.23,0.67-4.061,1.91-4.771,3.02
			c-0.56,0.88-0.59,2.59-1.109,3.641c-0.891,1.77-2.58,3.189-3.73,4.77c-1.38,1.91-2.51,3.77-3.779,5.54
			c-1.131,1.59-1.99,4.3-3.95,5.31c-7.67,3.94-15.24-7.109-19.03-11.88c-6.11-7.7-13.18-12.93-18.27-21.63
			c-3.44-5.859-7.4-11-12.28-15.649c-2.92-2.79-5.55-5.23-7.5-8.79c-0.18-0.33-0.98-1.311-1-1.631c-0.11-1.52,0.859-0.68,1.06-1.67
			c0.7-3.56-1.13-6.38-4.31-7.949c-3.271-1.62-6.91-2.74-10.03-4.82c-2.439-1.63-4.41-4.03-6.83-5.94c-3.13-2.46-6.2-5.68-9.89-4.05
			c-2.82,1.24-4.29,2.86-7.59,3.08c-2.16,0.13-7.79,0.98-8.75-1.34c-0.851-2.04,3.899-4.51,5.43-5.58c1.08-0.76,3-1.69,4.35-1.43
			c1.78,0.33,1.551,1.569,3.311,1.33c6.87-0.931-3.9-16.471-6.26-17.36c-0.521-2.16-2.7-3.69-3.021-5.91l0.29-0.05
			c1-2.91,4.66-3.62,7.88-4.12l0.12,0.79c2.89,3.95,6.46,8.39,10.41,11.67c3.16,2.61,6.53,6.38,8.61,10c1.59,2.76,0.329,6.13,1.38,9
			c2.069,5.7,11.72,8.021,12.939,0.97c0.44-2.55,0.95-6.409,0.36-8.97c-0.78-3.34-5.37-6.92-6.21-1.87
			c-0.46,2.75,1.77,8.29-0.63,10.48c-3.521,3.189-3.53-6.03-3.53-7.61c0-2.39,0.7-5.68-0.05-7.91c-1.08-3.189-5.57-5.71-7.851-8.029
			c-0.859-0.881-1.6-1.5-2.689-2.391c-1.311-1.08-1.351-2.14-2.311-3.38c-0.77-1.01-2.63-2.76-3.739-3.61
			c1.819,0.08,3.58,0.4,5.64,0.32c3.56-0.16,6.13-2.35,9.83-2.34c3.979,0.02,6.86-0.16,9.51,2.76c4.351,4.79,8.67,9.75,12.96,14.54
			c1.61,1.79,10.15,13.94,12.98,8.61c0.59-1.11,0.05-3.7-0.17-4.851c-0.83-4.37-3.42-8.739-4.771-13.01
			c-2.96-9.38-10.54-19.75-18.979-24.3c2.72-0.59,4.09,1.06,6.06,2.689c5.48,4.561,10.66,8.521,14.17,15.07
			c3.36,6.26,7.54,13.48,9.17,20.47c0.601,2.561,0.04,5.32,0.24,7.96c0.16,2.11,0.87,2.801,1.68,4.051
			c3.561,5.41,9.561,9.029,14.931,13.33c3.37,2.71,6.899,3.89,10.71,5.989c3.91,2.17,7.66,5.16,11.069,7.53
			C525.345,733.769,534.395,736.688,538.565,743.009z"/>
		<path fill="#FFAE00" d="M524.895,440.528c-1.75-0.159-3.45-0.37-5.28-0.25c-0.17,2.66-0.319,8.021,3.95,6.95
			c2.6-0.649,5.35-6.49,1.33-6.67V440.528z M535.895,453.698c0,1.57,0.27,3.46,0,5.021c-0.39,2.25,0.08,1.64-2.01,2.33
			c-1.891,0.62-5.26,0.56-6.92-0.63c-0.04,0.54,0.029,1.05,0.14,1.56l-2.26,0.09c-0.351-1.699-1.84-3.66-3.28-4.02
			c-4.27-1.07-4.12,4.29-3.95,6.95l-1.47,0.06c-0.28-2.86-1.34-4.47-4.92-3.33c-0.8,0.26-3.28,1.68-4.35,1.01
			c-1.421-0.909-0.65-4.439-0.65-6.069c0-3.511-1.21-8.86,2.93-10.221c2.57-0.84,7.351-0.01,8.95,1.9
			c-1.96-2.37-3.55-6.08-3.54-9.29c0-4.64,4.17-3.12,7.66-3.34c2.57-0.16,6.85-0.85,7.34,2.67c0.25,1.86-2.12,6.85-2.97,8.6
			c2.66,0.681,5.34-2.699,8.05-1.02C536.765,447.289,535.895,451.369,535.895,453.698z M531.815,457.688
			c-0.1-2.42,2.34-10.2-2.939-7.62c-1.16,0.58-6.24,5.54-2.971,6.24l-0.02,0.08C527.805,457.519,529.905,456.858,531.815,457.688z
			 M516.205,456.639c3.29-0.68-1.8-5.66-2.97-6.24c-5.27-2.569-2.84,5.2-2.939,7.62c1.92-0.82,4.01-0.17,5.93-1.3L516.205,456.639z"
			/>
		<path fill="#D99E38" d="M508.395,248.329c1.75,2.54,0.19,4.95-0.28,7.52c-2.33,1.02-4.04,0.01-5.989-0.92
			c-1.771-0.85-3.631-1.06-5.4-2.08c-2.29-1.33-4.41-2.82-6.54-4.26c-1.99-1.35-4.44-2.12-6.53-3.34c-1.359-0.79-3.35-1.97-4.99-1.3
			c-1.079,0.44-1.529,1.4-1.789,2.47c-0.79-1.17-2.261-1.98-3.24-2.96c-2.891-2.92-5.63-5.74-9.13-7.91
			c-1.721-1.07-3.471-2.45-5.37-3.16c-2.101-0.78-4.521,0.15-6.49-0.75l-0.66-0.04c0.11-1.52-2.45-2.39-4.33-3.03
			c-3.95-1.34-8.55,0.66-12.45-0.48c-3.899-1.14-1.29-3.27,0.83-4.31c2.88-1.43,6.021-1.76,9.37-2.21c4.2-0.57,7.54,0.17,11.55,1.46
			c2.4,0.77,4.381,1.51,6.631,1.76c0.54,0.51,1.06,1.06,1.609,1.49c1.28,1.02,5.141,2.2,5.49,3.82c2.7,0.14,4.59,2.85,6.979,4.11
			c1.931,1.03,3.44,2.22,4.73,4.18l1.82-0.17c0.12,0.54,0.319,1.05,0.569,1.5c1.49,2.68,5.82,3.98,8.601,4.67
			C497.695,245.469,505.455,244.079,508.395,248.329z"/>
		<path fill="#8E1908" d="M476.315,71.969c1.48,5.19-4.86,4.91-7.33,7.52c-2.25,2.37-2.96,6.91-5.09,9.54
			c-2.04,2.51-4.64,5.28-7.5,6.37c-2.87,1.09-5.92,2.01-8.05,4.87c-2.46,3.3-0.72,7.59-4.311,9.76c-3.64,2.18-8.76-0.85-12.149,0.85
			c-0.94,0.47-1.431,1.1-1.66,1.83c0-0.1-0.01-0.2-0.021-0.3c-0.189,0.02-0.449-0.08-0.63-0.05c0.79-1.24,1.98-3.04,3.49-3.48
			c0.73-0.21,1.73,0.08,2.5,0.01c1.12-0.1,1.51-0.21,2.51-0.72c0.74-0.38,1.91-0.44,2.521-0.9c0.979-0.73,0.79-2.12,0.8-3.23
			c0.01-1.37,0.29-1.5,0.89-2.6c0.42-0.79,1.49-2.53,1.471-3.36c1.55,0.06,3.529-1.81,4.649-2.66c1.36-1.04,2.971-1.82,3.87-3.16
			c0.51-0.76,1.37-2.16,1.55-3.01c0.221-1.04-0.029-1.21-0.81-2.07c-1.45-1.57-2-1.75-4.12-1.5c-3.07,0.37-6.32,2.14-8.47,4.21
			c-1.271,1.22-2.391,2.69-4.011,3.41c-0.64,0.29-1.31,0.48-1.89,1.01c-1.09,0.98-1.14,1.9-2.479,2.81
			c-2.03,1.39-4.011,2.69-5.94,4.13c-2.09,1.55-5.15,1.41-7.36,2.39c-0.319,0.14-0.609,0.31-0.89,0.5
			c-1.17,0.83-2.15,2.04-3.34,2.95c-1.17,0.9-3.021,1.49-4.45,2.13c-1.05,0.47-1.06,0.35-1.62,1.36c-0.56,1.02-0.689,2.06-1.18,3.02
			c-0.86,1.68-2.16,0.81-3.47,0.18c-0.631-0.3-1.36,0.12-1.08-1.03c0.109-0.46,0.439-0.64,0.84-0.86
			c1.149-0.65,1.67-0.59,2.689-1.64c1.391-1.43,2.66-2.21,4.33-3.14c0.98-0.56,2.19-1.04,3.301-1.69
			c0.819-0.49,1.92-0.68,2.649-1.18c1.15-0.78,2.26-1.86,3.41-2.71c1.45-1.07,2.69-2.02,4.43-2.65c2.24-0.81,3.21-1.49,3.521-4
			c0.069-0.53,0.5-1.81,0.189-2.33c-0.35-0.59-2.05-0.84-2.71-0.99c-0.08-0.02-0.17-0.04-0.26-0.05c-3.2-0.71-7.13-0.5-8.78,2.69
			c-2.08,0.52-1.029-5.19-0.649-6.18c0.52-1.33,2.189-2.22,2.66-3.47c1.529-0.38,3.069-0.77,4.609-1.16
			c10.24-2.61,21.76-4.66,32.7-7.12C462.655,74.688,469.225,71.668,476.315,71.969z"/>
		<path fill="#D2450E" d="M453.015,87.179c0.78,0.86,1.03,1.03,0.81,2.07c-0.18,0.85-1.04,2.25-1.55,3.01
			c-0.899,1.34-2.51,2.12-3.87,3.16c-1.12,0.85-3.1,2.72-4.649,2.66c0.02,0.83-1.051,2.57-1.471,3.36c-0.6,1.1-0.88,1.23-0.89,2.6
			c-0.01,1.11,0.18,2.5-0.8,3.23c-0.61,0.46-1.78,0.52-2.521,0.9c-1,0.51-1.39,0.62-2.51,0.72c-0.77,0.07-1.77-0.22-2.5-0.01
			c-1.51,0.44-2.7,2.24-3.49,3.48c0.181-0.03,0.44,0.07,0.63,0.05c0.011,0.1,0.021,0.2,0.021,0.3c-0.55,1.74,0.38,4.03,0.229,6.05
			l-0.39-0.04c-1.62,0-3.06,0.12-4.47-0.58c-0.771-0.38-1.19-0.83-2.03-1.08c-1.06-0.31-2.22-0.67-3.34-0.67
			c-1.26-0.01-1.74,0.44-1.91,1.15l-0.77-0.17c0.05-0.21,0.109-0.43,0.18-0.65c0.91-3,4.2-3.62,6.51-1.46
			c1.45,1.37,1.49,2.23,3.811,2.1c0.109-2.53,0.119-5.12,1.39-7.43c2.06-3.78,6.11-2.16,9.05-4.23c1.17-0.82,1.59-2.13,1.8-3.49
			c0.181-1.12,0.03-2.11,0.69-3.08c0.58-0.87,1.6-1.42,2.29-2.2c1.479-1.68,3.07-2.59,4.76-3.83c1.57-1.15,3.51-2.43,4.15-4.35
			c-3.42-1.48-8.79,2.18-10.84,4.5c-1.311,1.47-1.521,2.65-3.65,2.8c-0.54,0.04-1.26-0.14-1.78,0.01
			c-0.939,0.26-1.01,0.81-1.67,1.71c-2.5,3.39-6.609,5.07-10.5,6.12c-1.66,0.45-3.109,0.56-4.939,0.68l-0.051-0.93
			c2.21-0.98,5.271-0.84,7.36-2.39c1.93-1.44,3.91-2.74,5.94-4.13c1.34-0.91,1.39-1.83,2.479-2.81c0.58-0.53,1.25-0.72,1.89-1.01
			c1.62-0.72,2.74-2.19,4.011-3.41c2.149-2.07,5.399-3.84,8.47-4.21C451.015,85.429,451.565,85.609,453.015,87.179z"/>
		<path fill="#782414" d="M453.455,283.119c0.591,5.18-0.119,9.72-0.31,14.78c-0.16,4.31-1.59,8.53-2.44,12.79
			c-0.81,4.1-1,8.5-0.55,12.68c0.561,5.3,2.49,10.02,2.49,15.47c0,3.23,0.17,6.51,0.01,9.74c-0.21,4.06-1.6,7.84-2.52,11.79
			c-1.431,6.14-4.021,12.51-3.99,18.87c0.02,4.71-0.12,9.42,0.65,14.08c0.819,4.95,0.39,9.82,1.02,14.73
			c0.55,4.29,2.8,8.2,2.83,12.81c0.03,4.76,1.26,9.5,0.89,14.27c-0.409,5.18-0.21,10.59-0.649,15.859
			c-0.9,10.971-3.66,21.511-5.271,32.48c-0.8,5.479-2.14,12.07-0.47,17.5c0.68,2.189,1.64,4.1,2.02,6.42
			c0.45,2.83,0.421,5.71,0.891,8.54c0.35,2.14,0.49,4.31,0.77,6.47c1.061,8.24,1.851,17.86-0.489,25.95
			c-0.811,2.771-2.021,4.76-2.48,7.5c-0.63,3.69-1.66,7.33-1.46,11.11c0.25,4.68,0.8,8.62,2.08,13.14
			c0.82,2.87,1.229,5.49,1.13,8.49c-0.36,9.819-2.18,19.51-3.21,29.26c-0.52,4.98-1.07,9.98-0.91,14.99
			c0.16,4.729,1.44,9.229,2,13.899c0.771,6.471-2.21,16.91-8.99,19.15c-4.06,1.34-7.71,2.25-12.05,1.57
			c-3.88-0.61-6.97-2.101-10.79-1.82c-3.77,0.27-6.93-1.33-10.55-1.52c-4.47-0.24-9.42,1.8-13.69,2.52
			c-4.3,0.72-8.189,2.51-12.689,2.5c-7.34-0.02-13.75-1.19-20.94-2.62c-3.489-0.689-6.189-1.78-9.729-1.939
			c-3.26-0.141-7.66-1.25-10.83-0.171c-2.271,0.771-3.86,1.971-6.29,2.53c-2.36,0.55-4.8,1.061-7.16,1.391
			c-4.29,0.6-8.78,0.52-13.13,0.81c-4.78,0.32-9.89,0.67-14.65,0.03c-3.609-0.48-7.669-0.471-11.189-1.3
			c-2.91-0.681-5.47-2.421-8.48-2.971c-3.3-0.6-6.44-1.899-9.77-2.31c-3.37-0.42-7.21,0.06-10.57,0.45
			c-5.83,0.67-11.87,2.189-17.59,3.47c-3.82,0.86-8.01,0.88-11.99,0.88c-3.13,0-6.94,0.53-10.01-0.29
			c-3.57-0.95-7.12-2.65-10.67-3.67c-2.91-0.84-6.75-0.29-9.79-0.29c-2.43,0-4.86,0.01-7.29,0c-1.85-0.01-3.57-0.08-5.33,0.54
			c-1.75,0.62-3.4,2.02-5.2,2.43c-2.92,0.66-7.02,0.21-9.97,0.29c-3.44,0.101-6.85,0.07-10.26,0.25c-5.62,0.28-13-3.43-15.36-8.47
			c-3.42-7.33-2.85-15.01-0.37-22.53c0.99-2.99,1.09-6.17,1.68-9.34c0.68-3.6,0.67-6.57-0.45-9.96c-1.16-3.51-1.37-7.24-2.28-10.81
			c-0.84-3.28-1.98-6.46-2.67-9.771c-1.28-6.149-0.91-12.11-0.23-18.29c0.44-3.99,0.2-8.04,1.25-11.93
			c2.9-10.68,3.83-21.28,3.13-32.48c-0.49-7.93,0.79-16.06-0.16-23.949c-0.39-3.261-1.24-6.53-1.6-9.841
			c-0.23-2.13-1.25-3.76-1.68-5.89c-1.77-8.78,0.24-17.58,2.47-26.05c1.9-7.2,2.98-14.01,3.27-21.45c0.17-4.41,0.47-8.84,0-13.21
			c-0.42-3.93-2.6-7.53-3-11.47c-1.15-11.32-3.2-24.26,0.27-35.44c0.89-2.87,0.54-5.52,0.99-8.4c0.21-1.31,1.11-2.29,1.42-3.53
			c0.34-1.39,0.12-3.07,0.14-4.5c0.05-3.63,0.09-7.27-0.37-10.88c-0.47-3.75-1.54-7.4-2.15-11.17c-0.62-3.86-1.75-7.78-1.56-11.69
			c0.22-4.46,2.17-8.38,2.77-12.7c0.61-4.49,3.35-10.05,2.57-14.27c-0.42-2.24-0.48-5.25-1.31-7.31c-0.45-1.12-1.45-1.83-1.97-2.89
			c-1.22-2.48-0.79-6.03-0.79-8.66c0.01-3.02-0.3-6.25,0.24-9.17c0.8-4.37,3.28-7.85,5.53-11.55c2.16-3.54,8.34-8.38,12.69-8.36
			c2.63,0.02,5.6,1.1,8.38,1.21c2.71,0.11,5.04,0.34,7.73,0.8c6.24,1.07,12.02,1.33,18.23-0.41c3.91-1.1,8.24-1.11,12.24-2
			c5.48-1.21,12.04-1.6,17.71-0.4c4.36,0.93,8.63,2.17,12.99,3.02c5.47,1.08,9.74,2.96,15.47,2.24c4.15-0.52,8.01-0.4,12.03-1.5
			c4.31-1.18,8.68-2.44,13.16-2.7c5.55-0.31,10.99-0.81,16.55-0.81c2.59,0,5.2-0.34,7.78-0.04c2.67,0.31,4.439,1.93,6.92,2.66
			c1.71,0.51,3.51,0.48,5.229,1.03c2.62,0.84,5,2.57,7.84,2.6c4.24,0.05,8.36-0.04,12.48-0.75c2.42-0.42,4.81-1.04,7.26-1.46
			c3.271-0.55,6.63-0.05,9.82-1.14c7.439-2.53,15.689-0.24,23.41,0.42c3.369,0.29,6.569-0.04,9.77,1.18
			c3.06,1.16,5.96,2.25,8.98,3.49c6.079,2.5,12.52,0.46,18.329-1.76c6.891-2.63,14.69-3.13,21.971-2.74
			c3.16,0.18,6.47,0.75,9.3,2.22c2,1.05,3.44,3.01,5.24,4.62C450.705,273.629,452.905,278.208,453.455,283.119z M440.395,345.369
			c0.25-4.62,1.15-11.53-0.67-15.84c-1.64-3.89-3.23-7.05-3.33-11.32c-0.08-3.54-1.69-6.79-1.76-10.46
			c-0.101-5.58-0.181-11.23,0.01-16.8c0.1-2.99,0.5-5.92,0.93-8.89c0.181-1.2,0.94-4.58,0.271-5.88
			c-1.75-3.37-11.48,1.54-13.97,2.22c-6.24,1.7-12.73,2.31-19.16,1.29c-5.65-0.9-11.88-0.9-17.24-2.68
			c-4.22-1.39-8.16-2.15-12.67-1.68c-4.19,0.43-8.25,0.56-12.46,0.39c-2.851-0.12-5.75-0.26-8.51,0.56
			c-3.04,0.92-5.78,2.68-8.86,3.5c-3.92,1.04-8.08,0.61-12.07,1.17c-8.51,1.2-16.27-1.23-24.58-2.82
			c-4.02-0.77-7.58-2.11-11.739-2.56c-2.87-0.32-5.46,0.23-8.291,0.33c-4.14,0.13-8.04,0.29-12.1,0.98
			c-4.2,0.72-8.42,2.59-12.61,2.76c-6.06,0.24-12.12,1.57-18.16,1.02c-3.01-0.27-6.3-0.61-9.17-1.5c-3.42-1.07-5.72-3.38-9.36-4.09
			c-6.96-1.36-14.83-0.17-21.39,1.96c-2.19,0.7-4.78,0.85-7.18,1.1c-3.14,0.32-5.89,1.73-8.95,2.05c-2.8,0.28-5.9,0.08-8.6-0.66
			c-2.56-0.69-5.01-0.34-7.57-0.88c-2.12-0.45-4.18-1.58-6.37-2c-1.96-0.38-4.05-0.63-5.7,0.56c-1.08,0.78-3.83,3.32-4.2,4.7
			c-0.41,1.51,0.94,3.49,1.23,4.76c0.62,2.73,0.6,5.86,0.98,8.66c1.18,8.82-0.54,17.4-1.24,26.29c-0.52,6.47,0.54,12.14,1.82,18.29
			c1.32,6.39,1.9,14.22,1.11,20.69c-0.74,6.05-0.73,13.32-3.12,19c-1.92,4.55-1.33,9.6-2.07,14.37c-0.71,4.62-0.49,9.61-0.5,14.28
			c-0.01,5.66,1.93,10.33,3.55,15.58c0.81,2.63,0.99,5.42,0.95,8.16c-0.04,2.96,0.36,6.79-0.18,9.641
			c-0.11,0.6-0.22,1.199-0.32,1.789c-0.29,1.801-0.51,3.601-0.5,5.421c0.02,4.64-1.56,9.119-2.01,13.779
			c-0.53,5.37-1.25,10.78-2.29,16.03c-0.58,2.94-0.96,6.04-1.64,9.05c-0.74,3.28-0.45,6.84-0.25,10.42
			c0.4,7.05,1.96,13.83,1.94,20.96c-0.01,3.25,0.3,6.41,0.99,9.58c0.77,3.53,0.56,7.21,1.01,10.74c0.63,4.97,1.05,10.8,0.24,15.79
			c-0.33,2.04-1.16,3.77-1.31,5.88c-0.11,1.4-0.12,2.8-0.34,4.19c-0.61,3.83-2.29,7.399-2.91,11.229c-0.8,4.88,0.31,9.97,0.51,14.84
			c0.19,4.45,1.06,8.87,1.06,13.7c0,4.97,0.25,9.91,0.25,14.88c0,8.12-0.82,16.37-0.26,24.471c0.25,3.529-0.01,7.81,3.3,9.949
			c3.01,1.95,6.01,1.71,9.15,0.431c9.38-3.801,19.97-4.08,30-3.17c4.08,0.38,8.05,0.579,12.15,1.079
			c3.87,0.471,7.71,0.891,11.58,1.4c8.83,1.17,18.36,0.37,26.94-1.88c2.79-0.74,5.09-2.48,7.87-3.53c2.6-0.979,5.08-1.27,7.82-1.26
			c7.42,0.02,15.07,1.74,21.98,4.54c2.43,0.99,4.88,2.38,7.48,2.72c2.05,0.271,4.4,0.05,6.46,0c3.79-0.1,7.59-0.529,11.41-0.74
			c9.82-0.539,19.42-2.979,29.19-3.72c7.689-0.59,15.6,3.36,23.01,4.72c6.39,1.19,12.31-0.35,18.13-2.479
			c2.83-1.04,5.26-1.14,8.26-1.34c4.04-0.271,8.04-1.181,12.07-1.46c6.49-0.44,12.97,3.21,19.35,3.52
			c0.54,0.021,1.08,0.04,1.61,0.061c3.17,0.729,6.28,0.66,8.85-0.12c0.65-0.2,1.261-0.44,1.82-0.72c5.83-1.98,3.83-8.98,3.12-14
			c-0.021-0.66-0.06-1.311-0.09-1.94c-0.22-4.44-0.3-8.46-0.641-13.11c0-0.649,0.011-1.29,0.03-1.93c0.09-3.2,0.271-6.4,1.13-9.8
			c0.101-0.62,0.23-1.23,0.38-1.851c0.45-1.84,1.11-3.68,2.061-5.54c0.1-0.6,0.18-1.199,0.27-1.81c0.24-1.81,0.45-3.62,0.58-5.37
			c0.11-1.41,0.53-3.25,0.46-4.63c-0.08-1.77-1.17-3.18-1.75-4.84c-0.95-2.72-1.1-5.561-1.22-8.4c-0.13-3.029-0.46-6.08-0.74-9.13
			c-0.06-0.61-0.109-1.22-0.16-1.83c-0.6-5.8,1.4-12.8,2.61-19.16c0.22-0.649,0.43-1.3,0.62-1.949c0.2-0.65,0.38-1.301,0.55-1.96
			c0.14-0.58,0.28-1.171,0.39-1.771c1.23-6.96,1.23-12.96-1.09-19.87c-0.06-0.49-0.12-0.99-0.18-1.479c-0.16-1.49-0.3-2.98-0.5-4.4
			c-2.44-17.04-3.2-35.38-1.26-52.479c0.8-7.101,1.93-14.15,2.76-21.2c0.83-7,0.21-14.03,0.44-21.06
			c0.109-3.54,0.399-7.11,0.31-10.66c-0.08-2.72-0.59-5.37-1.13-8.02c-0.11-0.53-0.22-1.06-0.33-1.59
			c-0.28-0.62-0.521-1.24-0.73-1.86c-0.21-0.61-0.38-1.23-0.54-1.84c-2.52-6.5-0.52-12.5-1.439-18.69c0.03-0.59,0.05-1.17,0.09-1.74
			c0.17-2.3,0.5-4.53,1.17-6.99c0.141-0.52,0.271-1.05,0.4-1.58c0.13-0.54,0.26-1.07,0.39-1.62c0.13-0.54,0.25-1.08,0.36-1.63
			c0.56-2.74,0.92-5.55,1.5-8.22C438.825,354.109,440.155,349.759,440.395,345.369z"/>
		<path fill="#D9A63D" d="M451.265,695.059c0.59,2.561,0.08,6.42-0.36,8.97c-1.22,7.051-10.87,4.73-12.939-0.97
			c-1.051-2.87,0.21-6.24-1.38-9c-2.08-3.62-5.45-7.39-8.61-10c-3.95-3.28-7.521-7.72-10.41-11.67l-0.12-0.79
			c1.141-0.18,2.23-0.33,3.12-0.55c1.32-0.32,2.521-0.37,3.69-0.311c1.109,0.851,2.97,2.601,3.739,3.61c0.96,1.24,1,2.3,2.311,3.38
			c1.09,0.891,1.83,1.51,2.689,2.391c2.28,2.319,6.771,4.84,7.851,8.029c0.75,2.23,0.05,5.521,0.05,7.91c0,1.58,0.01,10.8,3.53,7.61
			c2.399-2.19,0.17-7.73,0.63-10.48C445.895,688.139,450.485,691.719,451.265,695.059z"/>
		<path fill="#FFAE00" d="M359.075,133.979h0.15c0,1.92,3.54,1.18,4.52,0.9c2.28-0.64,3.99-2.44,6.16-3.13
			c1.971-0.63,4.98,0.06,6.63-1.4c0.521-0.47,0.931-1.17,1.03-1.77c0.13-0.68,0.38-3.48-0.16-3.99c-0.51-0.49-2.37-0.26-3.02-0.17
			c-1.811,0.26-1.05,0.63-1.771,1.69c-0.399,0.59-2.31,1.76-2.939,2.13c-0.94,0.56-2.05,0.54-3.11,0.65
			C363.425,129.208,359.225,130.208,359.075,133.979z M385.445,140.129l0.12,0.09c-0.28,0.74-0.04,1.4-0.66,2.05
			c-0.35,0.37-1.75,1.05-2.18,1.12c-0.7,0.13-3.42,0.09-4.01-0.15c-0.38-0.16-0.551-0.81-0.851-0.95c-0.38-0.18-0.89-0.11-1.29-0.22
			c-1.79-0.48-3.81-1.83-5.56-0.47c-0.91,0.71-1.13,1.54-1.18,2.45c-0.051,0.73,0.01,1.52-0.11,2.34c-0.07,0.5-0.38,2.31-0.69,2.6
			c-0.51,0.5-1.76,0.2-2.43,0.23c-2.11,0.11-2.81,0.17-3.84,1.89c-0.311,0.52-0.64,0.89-0.87,1.4c-0.16,0.35-0.07,0.6-0.29,0.96
			c-0.51,0.82-1.13,0.83-2.01,0.92c-2.431,0.25-5.03-0.17-7.48-0.17c-1.399,0-2.819-0.05-4.21,0.04c-1.18,0.08-3.08-0.21-4.08,0.44
			c-1.239,0.8-1.01,2.59-1.88,3.54c-0.06,0.07-0.13,0.12-0.21,0.18c-0.55,0.37-1.51,0.48-2.13,0.51c-2.229,0.09-3.11-2.96-5.51-2.08
			c-2.58,0.94-2.5,4.52-2.24,6.84c0.25,2.19-0.22,3.8-2.63,4.2c-1.78,0.3-3.73-0.17-5.5,0.17c-1.38,0.26-1.61,1.28-2.5,2.36
			c-0.75,0.9-1.63,1.33-2.16,2.33c-0.85,1.59-1.35,6.53,0.7,7.14c0.85,0.26,2.01-0.28,2.64,0.65c0.34,0.49,0.24,1.78,0.16,2.39
			c-0.189,1.36-0.82,1.02-1.51,1.95c-0.43,0.59-0.54,1.77,0.51,1.68l0.1,0.31c-0.3,0.24-0.569,0.54-0.779,1
			c-0.73,1.57,0.39,4.16-0.09,5.88c-1.12,4.01-4.36,4.9-4.92,9.16c-0.391,2.97-0.61,6.47-4.91,7.05
			c-0.021,0.26-0.03,0.52-0.051,0.79l-0.52-0.03c-0.52-1.43-0.23-2.11-1.43-3.21c-0.87-0.8-2.59-1.73-3.87-2.05
			c-1.32-0.34-4.45-0.23-5.42,0.89c-0.811,0.94-0.45,2.81-0.45,4.04l-0.66,0.02c-0.97-1-2.45-1.42-5.1-1.94
			c0,0.14-0.011,0.29-0.011,0.43l-0.39-0.01c-0.86-2.91-3.979-4.01-6.67-4c-3.38,0.01-5.73-0.23-8.14,2.66l-0.16,0.26
			c-0.64-0.39-1.46-0.58-2.51-0.5c-0.4-3.44-0.16-7.47-1.19-10.79c-0.93-2.99-2.62-6.19-3.48-9.63c-0.17-0.68-0.34-1.38-0.53-2.09
			l0.34-0.08c-0.18-0.78,0.49-1.2,0.8-1.83c0.31-0.64,0.41-1.46,0.54-2.17c0.24-1.34,1.06-2.3,0.49-3.83
			c-0.39-1.06-1.67-1.66-2.18-2.65c-0.56-1.1-0.58-2.84-1.06-4.07c-0.72-1.84-1.42-3.74-2.82-5.06c-0.9-0.85-1.45-1.3-1.89-2.4
			c-0.43-1.04-0.47-1.83-1.26-2.62c-1.04-1.03-2.59-2.18-4.08-2.75c-2.55-0.99-4.99,0.66-7.03-1.48c-0.73-0.75-1.37-1.76-2.02-2.61
			c-0.31-0.4-0.84-1.58-1.18-1.83c-0.68-0.49-2.88-0.88-3.77-1.08c-2.46-0.57-4.15,1.12-6.46,1.4c-1.86,0.23-2.72-0.07-3.57-1.69
			c-1.18-2.23-1.55-4.84-2.52-7.15c-0.33-0.8-0.19-1.31-1.49-1.01c-1.07,0.24-1.46,1.12-1.63,2.17c-0.2,1.22,0.56,2.23,0.47,3.33
			c-0.05,0.78-1.2,2.21-2.02,2.55c-1.07,0.45-1.25-0.41-2.02-1.41c-0.7-0.91-1.19-1.75-1.67-2.79c-0.22-0.46-0.41-1.5-0.62-1.82
			c-0.69-1.06-3.64-1.43-4.75-0.71c-0.85,0.55-0.72,2.02-1.45,2.59c-1.11,0.88-3.2,0.48-4.14-0.43c-1.91-1.86-1.25-4.71-4.65-4.48
			c-1.98,0.12-3.17,2.14-4.52,3.21c-1.1,0.86-2.44,2.09-3.6,2.53c-0.08,0.03-0.15,0.06-0.23,0.08c-2.19,0.63-3.18-1.87-3.17-3.68
			c0.01-1.06,0.08-1.85-0.46-2.78c-0.28-0.48-1.23-2.19-1.6-2.45c-0.77-0.55-3.49-0.55-4.4-0.37c-1.13,0.22-2.5,0.51-3.71,0.79
			c-1.52,0.36-3.02,0.85-3.53-0.91c-0.53-1.83,0.06-3.88-1.38-5.4c-0.48-0.5-1.8-1.36-2.44-1.76c-1.21-0.76-2.15-0.76-3.51-0.76
			c-0.66,0-1.53,0.09-2.43,0.15c-1.34,0.11-2.76,0.18-3.72-0.14c-2.09-0.7-3.12-2.81-4.31-4.34c-0.71-0.92-1.24-1.57-1.55-2.66
			c-0.35-1.25-0.14-2.09-1.12-2.97c-0.77-0.7-2.64-1.4-3.67-1.06c-0.79,0.26-1.55,1.21-2.51,1.53c-1.3,0.42-4.52,0.86-5.46-0.35
			c-2.29-2.97,4.26-5.23,2.19-8.41c-0.71-1.1-2.03-0.98-3.17-1.28c-0.39-0.1-0.78-0.22-1.16-0.35c-1.5-0.5-2.96-1.12-4.59-1.12
			c-2.42,0-7.67,0.39-7.98-3c-0.13-1.46,1.4-2.41,1.85-3.66c0.68-1.92-0.37-3.11-1.17-4.75c-1.62-3.32-5.43-4.31-8.34-6.17
			c-1.32-0.84-2.59-1.73-3.95-2.5c-0.96-0.55-2.08-0.95-2.93-1.66c-0.72-0.61-1.18-1.47-1.87-2.12c-1.03-0.96-1.28-0.97-1.91-2.15
			c-0.64-1.2-1.3-1.81-2.58-2.62c-3.26-2.05-5.89-4.82-9.29-6.85c-1.06-0.64-2.21-0.93-3.31-1.62c-0.81-0.51-1.21-1.12-1.98-1.61
			c-0.46-0.3-1.45-0.17-1.72-0.75c-0.52-1.12,1.28-1.29,2.08-1.38c3.35-0.36,5.3,1.93,8.3,2.68c2,0.5,3.21-0.47,5-0.68
			c1.45-0.18,3.24-0.38,4.67-0.33c0.57,0.15,0.63,0.56,1.03,0.92c1.8,1.62,3.22,2.41,5.69,2.58c2.02,0.14,4.1-0.02,6.11,0.2
			c1.73,0.19,3.36,0.95,5.01,1.39c3.79,1.02,8.01,2.36,11.96,2.41c1.72,0.02,3.47-0.04,5.18,0.16c2.27,0.28,3.95,1.26,6.06,2.02
			c2.42,0.86,5.16,0.84,7.67,1.35c1.62,0.33,3.84,1.71,5.32,2.66c3.92,2.52,7.71,5.69,11.95,7.59c1.68,0.76,3.32,1.51,4.95,2.27
			c1.95,0.9,3.89,1.82,5.9,2.76c2.94,1.38,6.83,4.4,10.15,4.38c0.25,2.18,5.92,3.52,7.52,4.36c2.57,1.36,4.4,4.39,7.33,4.92
			c2.19,0.4,3.62,1.09,5.37,2.33c0.72,0.5,1.26,1.01,2.14,1.24c1.9,0.49,4.03,0.09,5.96,0.29c1.25,0.13,2.11,0.58,3.47,0.8
			c1.58,0.26,3.15,0.03,4.73,0.21c2.04,0.22,3.93,1,5.99,1.33c2.73,0.43,5.01,0.32,7.8,0.16c1.9-0.11,4.68,0.48,5.71,1.84
			c0.71,0.95,1.33,2.48,2.38,3.26c0.75,0.56,1.64,0.79,2.46,1.4c0.75,0.57,1.42,1.11,2.14,1.87c1.9,2,3.59,3.89,5.67,5.81
			c0.6,0.56,1.02,1.69,1.64,2.33c0.54,0.56,1.5,0.89,2.16,1.54c1.01,0.98,1.03,2.12,1.79,3.29c0.38,0.59,0.72,0.87,1.12,1.07
			c0.4,0.21,0.85,0.34,1.48,0.62c0.62,0.43,1.21,0.88,1.77,1.36c0.94,0.79,1.81,1.63,2.66,2.49c0.46,0.45,0.9,0.91,1.35,1.36
			c3.71,8.6,13.71,8.6,19.229,1.6c0.29-0.41,0.54-0.83,0.721-1.24c0.79-1.77-0.07-4.36,1.92-5.43c1.05-0.57,2.66-0.53,3.59-1.36
			c0.97-0.87,1.53-2.72,0.39-3.8c0.21-0.68,0.87-0.56,1.391-0.84c0.689-0.36,1.06-0.92,1.66-1.42c1.3-1.08,1.689-1.36,2.479-2.91
			c0.39-0.75,1.18-1.61,1.54-2.5c0.35-0.89,0.09-1.91,0.48-2.81c1.47-0.2,2.01-1.05,3.68-0.74c1.939,0.37,3.93,0.86,5.97,0.39
			c2.91-0.67,5.351-3.09,7.851-4.51c1.739-0.99,5.71-1.62,7.609-1.1c0.5,2.2,3.51,1.53,4.53,0.52c0.49-0.49,1.1-0.96,1-1.72
			c-0.12-0.96-0.58-0.33-1-0.89c-2.7-3.61,4.7-3.31,6.64-3.31c2.36,0,4.59,0.07,6.84-0.67c0.62-0.21,1.11-0.82,1.561-0.97
			c0.84-0.27,2.07-0.01,2.95-0.06c2.37-0.14,3.649-0.35,5.819-1.43c1.051-0.53,2.13-0.99,2.99-1.69c0.53-0.44,0.811-1.21,1.67-1.35
			c1.061-0.18,2.22,0.43,3.28,0.51c1.75,0.13,3.75,0,5.27-0.92c1.82-1.1,1.12-1.56,1.471-3.25c0.38-1.82,1.699-2.11,3.14-2.69
			c1.47-0.59,2.04-0.55,3.71,0.03c0.98,0.33,2.03,0.71,3.12,0.95c2.85,0.62,5.05-0.23,3.729-3.45c-0.489-1.17-1.26-1.87-0.649-3.18
			c0.43-0.91,1.49-1.63,2.27-2.18c0.971-0.69,2.91-2.21,4.061-2.32c0.51-0.05,2.87,0.21,3.26,0.54c0.73,0.6,0.25,1.45-0.37,2.1
			c-0.31,0.33-0.74,0.19-1.05,0.56c-0.36,0.41-0.521,1.29-0.54,1.82c-0.11,2.2,1.86,2.12,2.37,3.97c1.21,0,2.07-0.88,3.1-1.48
			c0.99-0.57,1.561-0.85,2.271-1.66c0.64-0.73,0.979-1.39,1.85-1.9c1.01-0.58,2.67-0.87,3.93-0.58c1.211,0.27,2.07,1.06,1.681,2.63
			c-0.53,2.18-2.87,3.1-4.891,3.55c-2.85,0.64-3.76,3.08-6.14,4.04c-2.6,1.04-5.37,2.31-7.43,4.21c-1.11,1.03-2.01,1.45-3.29,2.25
			c-0.87,0.54-1.141,0.96-2.28,1.13c-1.729,0.24-1.92,0.13-2.97,1.66c-0.66,0.97-1.41,1.69-2.28,2.38c-0.64,0.5-1.5,0.61-2.05,1.03
			c-0.5,0.37-0.69,0.96-1.07,1.45c-1.33,1.72-2.08,3.02-1.939,5.28c1.97,0.19,4.04-0.75,5.609-1.9c0.92-0.67,0.92-1.49,1.681-2.09
			c0.409-0.32,1.46-0.44,2.01-0.8c0.68-0.45,1.13-1.02,1.95-1.34c0.89,1.82,4.359,0.99,5.609-0.13c0.971-0.87,1.34-2.27,1.57-3.52
			c0.14-0.7-0.04-1.82,0.54-2.25c0.53-0.39,1.86-0.19,2.51-0.28c1.101-0.15,1.68-0.27,2.55-0.92c1.13-0.84,2.16-2.88,2.311-4.22
			c0.069,0,0.13-0.01,0.2-0.01c1.83-0.12,3.279-0.23,4.939-0.68c3.891-1.05,8-2.73,10.5-6.12c0.66-0.9,0.73-1.45,1.67-1.71
			c0.521-0.15,1.24,0.03,1.78-0.01c2.13-0.15,2.34-1.33,3.65-2.8c2.05-2.32,7.42-5.98,10.84-4.5c-0.641,1.92-2.58,3.2-4.15,4.35
			c-1.689,1.24-3.28,2.15-4.76,3.83c-0.69,0.78-1.71,1.33-2.29,2.2c-0.66,0.97-0.51,1.96-0.69,3.08c-0.21,1.36-0.63,2.67-1.8,3.49
			c-2.939,2.07-6.99,0.45-9.05,4.23c-1.271,2.31-1.28,4.9-1.39,7.43c-2.32,0.13-2.36-0.73-3.811-2.1c-2.31-2.16-5.6-1.54-6.51,1.46
			c-0.07,0.22-0.13,0.44-0.18,0.65c-0.62,2.53-0.311,4.94-0.32,7.51c0,1.8-0.4,3.8-2.2,4.17c-2.27,0.48-4.33-1.37-5.47-3.16
			c-0.561-0.89-0.63-1.68-1.86-2.06c-1.01-0.3-1.66-0.03-2.54,0.43c-2.8,1.45-2.5,4.14-2.27,7.05c0.13,1.6,0.689,3.18,1.22,4.67
			c0.23,0.67,0.78,1.6,0.6,2.35c-1.359,0.26-3.859-0.43-5.17-0.87c-1.84-0.63-2.979-2.28-4.979-2.24c-0.87,0.02-1.18,0.23-1.95,0.46
			c-1.62,0.48-3.86,0.54-5.05,1.74c-0.59,0.6-1.05,1.5-1.62,2.13C385.795,139.699,385.615,139.898,385.445,140.129z
			 M186.825,118.349c-0.07,0.1-0.11,0.18-0.08,0.34c2.28-0.19,4.12,1.63,6.37,1.83c1.52,0.13,4.83,0.68,4.21-1.72
			C196.305,114.879,189.055,117.449,186.825,118.349z M222.405,130.708c-0.69-0.01-0.79,0.69-0.65,1.32
			c1.21,0.08,2.61,0.05,3.8-0.17c1.18-0.22,2.06-1.4,3.34-0.94c1.08,0.4,1.86,1.57,3.16,0.77c0.93-0.57,0.92-1.76,0.71-2.67
			c-0.21-0.92-0.59-2.27-1.53-2.64c-0.81-0.32-2.49,0-3.4,0.05c-1.11,0.06-2.68,0.01-3.28,0.95c-0.21,0.33-0.2,1.19-0.44,1.63
			c-0.33,0.62-1.12,1.42-1.7,1.83C222.405,130.799,222.395,130.749,222.405,130.708z M242.935,135.269l0.13,0.12
			c0,1.31-0.11,2.32,0.78,3.33c1.86,2.14,4.08,1.65,6.55,1.84c1.25,0.09,2.05,0.35,2.91,1.23c1.08,1.12,0.97,2.18,2.47,2.98
			c1.4,0.74,2.92,0.57,4.24,1.45c0.87,0.56,1.66,1.32,2.55,1.83c3.89,2.25,2.57-3.26,0.18-4.78c-1.49-0.95-3.64-0.71-4.35-2.76
			c-0.3-0.84,0.01-1.9-0.82-2.51c-0.72-0.52-1.69-0.05-2.38-0.42c-0.89-0.49-1.24-1.81-2.17-2.33c-0.93-0.51-2.88-1.34-3.96-1.37
			c-1.21-0.03-2.91,0.35-4.17,0.5C243.975,134.499,243.405,134.708,242.935,135.269z M170.715,107.729
			c0.06,0.07,0.12,0.13,0.18,0.18c0.58-0.34,0.68-0.91,1.17-1.23c0.39-0.27,1.3-0.25,1.59-0.57c0.61-0.66,0.31-2.77-0.58-3.28
			c-2.96-1.67-3.17,3.51-2.35,4.89L170.715,107.729z M134.845,86.489l0.07-0.22c0.93,0.23,2.52,0.21,3.29,0.29
			c1.1,0.12,2.43,0.05,3.36-0.34c1-0.42,1.15-0.34,1.16-1.66c0.01-1.22-0.13-1.61-1.35-2.13c-2.41-1.02-4.54-1.48-7-0.04
			c-0.94,0.55-1.77,1.53-1.48,2.83C133.175,86.469,133.925,86.188,134.845,86.489z M360.385,149.019c2.02-0.28,4.1-1.81,3.18-4.14
			c-0.77-1.95-5.54-0.9-7.34-1.78c-2.061-1.01-1.4-3.42-1.33-5.39c0.09-2.32,0.44-3.03,1.28-4.98c0.47-1.09,0.899-2.1,0.319-3.3
			c-0.449-0.91-1.149-0.99-0.899-2.17c0.27-1.32,2.43-2.51,1.45-3.74c-1.28-1.61-10.08-0.15-10.471,2.17
			c1.96,0.43,1.86,0.82,1.65,2.56c-0.19,1.53-0.57,6.08,0.43,7.54l-0.43,0.27c1.29,1.51,1.11,4.62,1.18,6.49
			c0.061,1.53-0.31,3.13,0.49,4.48c0.32,0.53,0.97,0.94,1.28,1.51C353.925,147.349,357.435,149.429,360.385,149.019z
			 M344.115,144.819c1.03-0.77,1.08-2.51,0.92-3.74c-2.05-0.13-3.989-0.87-6.02-1.02c-1.07-0.09-1.94-0.03-2.67,0.42
			c-0.78,0.48,0.05,1.39-1.45,0.45c-1.13-0.7-1.18-1.76-1.53-3.03c-0.37-1.31-1.21-3.08-0.8-4.51c0.6-2.15,3.061-2.56,3-5.5
			c-0.07-3.37-4.689-0.93-5.87,0.68c-1.33,1.81-1.42,3.43-1.17,5.61c0.23,2.11,1.64,3.51,2.061,5.51c0.739,3.59-1.7,5.52-3.5,8.08
			c-0.561,0.81-1.24,1.95-0.69,2.95c0.3,0.55,1.05,0.97,1.64,0.84l0.03,0.16c0.98,0.25,1.12-0.52,1.021-1.31
			c0.979-0.15,2.09-0.06,3.01-0.55c0.84-0.44,1.47-1.31,2.3-1.8c0.85-0.52,1.59-0.65,2.54-0.88c1.18-0.28,2.33-0.57,3.46-1
			C341.375,145.819,343.325,145.409,344.115,144.819z M306.895,193.389c7.5-7.5,9.44-24.03,2.94-32.22
			c-0.431-0.55-0.9-1.06-1.41-1.52c-5.53-3.26-12.53-3.26-18.67-2.28c-0.65,0.2-1.291,0.44-1.92,0.7c-3.14,1.34-5.83,3.35-7.72,6.38
			c-0.25,0.71-0.48,1.43-0.68,2.17c-2.08,7.36-2.19,16.04,1.81,21.84c0.4,0.58,0.84,1.13,1.33,1.65c3.21,3.17,6.11,6.07,9.95,5.8
			c3.601,1.4,6.51,0.48,9.92,0.36c0.59-0.15,1.16-0.35,1.69-0.61C305.205,195.139,306.145,194.389,306.895,193.389z"/>
		<path fill="#8E1908" d="M430.065,118.719l0.39,0.04c-0.05,0.73-0.239,1.41-0.689,2.03c-3.46,4.72-7.32-1.52-10.311-0.96
			c-0.06,1.12,0.11,2.8,0.19,4.54l-0.42,0.02c-0.19-0.71-0.66-1.25-0.87-1.92c-0.27-0.81-0.13-1.86-0.13-2.72
			c0-0.86-0.061-1.62,0.09-2.21c0.17-0.71,0.65-1.16,1.91-1.15c1.12,0,2.28,0.36,3.34,0.67c0.84,0.25,1.26,0.7,2.03,1.08
			C427.005,118.839,428.445,118.719,430.065,118.719z"/>
		<path fill="#FFC574" d="M430.145,505.408c0.09,2.101,0.54,4.841-0.94,6.29c-3.89,3.82-9.09,2.45-13.869,1.94
			c-3.381-0.36-6.83-0.32-10.171-0.69c-2.81-0.319-6.449-0.399-9.26-0.09c-0.45,0.05-0.859,0.13-1.26,0.23v-0.2
			c0.95-4.13,1.13-8.91,1.25-13.29c0.06-2.31,0.2-5.12,0.98-7.229c0.64-1.7,1.43-2.07,3.079-2.23c3.82-0.37,8.051-0.08,11.431-1.18
			c3.42-1.11,6.96-0.761,10.49-0.851c2.439-0.069,5.409,0.57,7.779,0.08c-0.14,1.15-0.26,2.19-0.26,3
			C429.405,496.009,429.935,500.619,430.145,505.408z"/>
		<path fill="#FFC574" d="M324.635,500.398c-2.42,0.021-4.99,0.33-6.181-2.029c-1.5-2.98,0.881-3.561,3.74-3.24
			c3.63,0.41,7.11,1.319,10.96,1.02c2.26-0.18,7.45-0.54,8.48-2.26c3.689-6.17-11.03-3.59-13.59-3.74
			c-2.69-0.149-7.7-0.43-9.591-2.76c-1.88-2.32-0.439-4.17,2.19-4.5c3.06-0.38,6.42,0,9.5,0c1.66,0,3.34,0.1,5,0
			c2.15-0.13,4.07-1.2,6.21-1.69c2.31-0.52,4.41-0.979,6.81-0.81c1.86,0.14,3.19,0.96,4.721,1.39c2,0.561,8.189,1.351,8.51-1.449
			c0.46-3.95-15.35-6.091-10.95-10.881c1.29-1.39,2.41,0,3.72,0.4c1.2,0.37,2.391,0.25,3.69,0.29c3.68,0.12,7.35,0.44,11.01,0
			c4.38-0.52,8.2-0.57,11.78,2c3.19,2.3,4.81,4.86,7.3,7.92c1.95,2.4,3.67,3.04,6.21,4.521c3.25,1.89,7.09,0.689,10.721,0.5
			c2.289-0.11,3.949-0.83,6.14-1.44c2.51-0.7,6.11-0.92,8.33-2.31c1.34-0.841,1.83-1.98,3.51-2.65c1.13-0.44,2.28-0.771,3.55-0.79
			c4.67-0.09,3.8,5.88,3.25,10.3c-2.37,0.49-5.34-0.149-7.779-0.08c-3.53,0.09-7.07-0.26-10.49,0.851
			c-3.38,1.1-7.61,0.81-11.431,1.18c-1.649,0.16-2.439,0.53-3.079,2.23c-0.78,2.109-0.921,4.92-0.98,7.229
			c-0.12,4.38-0.3,9.16-1.25,13.29v0.2c-2.8,0.68-4.6,2.39-7.33,3.68c-3.43,1.62-6.979,1.95-10.689,2.63
			c-3.021,0.561-6.271,0.24-9.33,0.24c-2.41,0-4.32,0.64-6.601,1.13c-4.7,1-11.37,0.79-16.12,0.37c-2.43-0.21-4.699-0.97-7.069-1.64
			c-1.24-0.351-5.38-0.41-3.301-2.37c1.561-1.471,7.141-0.431,9.11-0.55c2.5-0.15,6.17-2.061,4.07-4.86
			c-1.75-2.35-9.19-1.11-11.99-1.08c-2.51,0.02-16.99,2.13-16-2.51c1.21-5.721,16.21,2.74,18.76-3.99
			c1.971-5.21-10.47-3.5-13.51-3.5L324.635,500.398z M355.595,513.339c0.649-0.76,0.66-1.72,0.55-2.7
			c-0.25-2.18-1.51-3.89-1.51-6.25c0-2.74,0.41-3.86-0.891-6.12c-0.96-1.68-1.609-3.61-0.35-5.38h0.25c0,0.31,0,0.63,0,0.94
			c0-1.24,0.49-3.801,0.01-4.95c-0.63-1.46-2.12-1.03-3.729-0.971c-0.24,2.75,0.649,5.48,0.72,8.23c0.03,1.11-0.36,2.2-0.25,3.25
			c0.14,1.3,0.91,1.86,1.45,3.01c1.05,2.24,1.54,4.41,1.55,6.931c0.01,2-0.29,2.25-1.19,3.569c-0.46,0.681-1.55,2.16,0.7,2.01
			C352.905,514.879,355.535,513.339,355.595,513.339z"/>
		<path fill="#D2450E" d="M428.075,92.549c0.311,0.52-0.12,1.8-0.189,2.33c-0.311,2.51-1.28,3.19-3.521,4
			c-1.739,0.63-2.979,1.58-4.43,2.65c-1.15,0.85-2.26,1.93-3.41,2.71c-0.729,0.5-1.83,0.69-2.649,1.18
			c-1.11,0.65-2.32,1.13-3.301,1.69c-1.67,0.93-2.939,1.71-4.33,3.14c-1.02,1.05-1.54,0.99-2.689,1.64c-0.4,0.22-0.73,0.4-0.84,0.86
			c-0.28,1.15,0.449,0.73,1.08,1.03c1.31,0.63,2.609,1.5,3.47-0.18c0.49-0.96,0.62-2,1.18-3.02c0.561-1.01,0.57-0.89,1.62-1.36
			c1.43-0.64,3.28-1.23,4.45-2.13c1.189-0.91,2.17-2.12,3.34-2.95c0.28-0.19,0.57-0.36,0.89-0.5l0.051,0.93
			c-0.07,0-0.131,0.01-0.2,0.01c-0.15,1.34-1.181,3.38-2.311,4.22c-0.87,0.65-1.449,0.77-2.55,0.92
			c-0.649,0.09-1.979-0.11-2.51,0.28c-0.58,0.43-0.4,1.55-0.54,2.25c-0.23,1.25-0.6,2.65-1.57,3.52c-1.25,1.12-4.72,1.95-5.609,0.13
			c-0.82,0.32-1.271,0.89-1.95,1.34c-0.55,0.36-1.601,0.48-2.01,0.8c-0.761,0.6-0.761,1.42-1.681,2.09
			c-1.569,1.15-3.64,2.09-5.609,1.9c-0.141-2.26,0.609-3.56,1.939-5.28c0.38-0.49,0.57-1.08,1.07-1.45
			c0.55-0.42,1.41-0.53,2.05-1.03c0.87-0.69,1.62-1.41,2.28-2.38c1.05-1.53,1.24-1.42,2.97-1.66c1.14-0.17,1.41-0.59,2.28-1.13
			c1.28-0.8,2.18-1.22,3.29-2.25c2.06-1.9,4.83-3.17,7.43-4.21c2.38-0.96,3.29-3.4,6.14-4.04c2.021-0.45,4.36-1.37,4.891-3.55
			c0.39-1.57-0.47-2.36-1.681-2.63l0.19-0.91c0.09,0.01,0.18,0.03,0.26,0.05C426.025,91.708,427.725,91.958,428.075,92.549z"/>
		<path fill="#8E1908" d="M425.105,91.509l-0.19,0.91c-1.26-0.29-2.92,0-3.93,0.58c-0.87,0.51-1.21,1.17-1.85,1.9
			c-0.71,0.81-1.28,1.09-2.271,1.66c-1.029,0.6-1.89,1.48-3.1,1.48c-0.51-1.85-2.48-1.77-2.37-3.97c0.02-0.53,0.18-1.41,0.54-1.82
			c0.31-0.37,0.74-0.23,1.05-0.56c0.62-0.65,1.101-1.5,0.37-2.1c-0.39-0.33-2.75-0.59-3.26-0.54c-1.15,0.11-3.09,1.63-4.061,2.32
			c-0.779,0.55-1.84,1.27-2.27,2.18c-0.61,1.31,0.16,2.01,0.649,3.18c1.32,3.22-0.88,4.07-3.729,3.45
			c-1.09-0.24-2.14-0.62-3.12-0.95c-1.67-0.58-2.24-0.62-3.71-0.03c-1.44,0.58-2.76,0.87-3.14,2.69
			c-0.351,1.69,0.35,2.15-1.471,3.25c-1.52,0.92-3.52,1.05-5.27,0.92c-1.061-0.08-2.22-0.69-3.28-0.51
			c-0.859,0.14-1.14,0.91-1.67,1.35c-0.86,0.7-1.939,1.16-2.99,1.69c-2.17,1.08-3.449,1.29-5.819,1.43
			c-0.88,0.05-2.11-0.21-2.95,0.06c-0.45,0.15-0.94,0.76-1.561,0.97c-2.25,0.74-4.479,0.67-6.84,0.67c-1.939,0-9.34-0.3-6.64,3.31
			c0.42,0.56,0.88-0.07,1,0.89c0.1,0.76-0.51,1.23-1,1.72c-1.021,1.01-4.03,1.68-4.53-0.52c-1.899-0.52-5.87,0.11-7.609,1.1
			c-2.5,1.42-4.94,3.84-7.851,4.51c-2.04,0.47-4.03-0.02-5.97-0.39c-1.67-0.31-2.21,0.54-3.68,0.74l-0.171-0.31
			c0.65-0.36,1.311-0.66,1.98-0.89c9.46-3.29,17.58-6.33,26.39-11.1c4.44-2.41,9.23-1.91,13.601-3.61c0.6-0.24,1.63-1.43,2.47-1.79
			c0.91-0.39,2.53-0.13,3.54-0.48c2.69-0.91,3.83-2.87,6.11-4.39c5.42-3.59,11.76-5.74,17.8-8.4c7.95-3.49,15.91-5.53,24.03-7.56
			c-0.471,1.25-2.141,2.14-2.66,3.47c-0.38,0.99-1.431,6.7,0.649,6.18C417.975,91.009,421.905,90.799,425.105,91.509z"/>
		<path fill="#8E1908" d="M419.645,124.369c0.14,2.56,0.07,5.24-1.24,6.42c-3.22,2.89-8.29-1.83-11.439-2.35
			c-0.74,1.24-1.66,3.82-1.601,5.42c0.09,2,2.271,4.39,2.04,6.02c-0.72,5.06-9.649,0.48-12.88-0.1c-1.59-0.29-5.17-1.96-6.55-0.43
			c-1.3,1.44,1,4.89-0.66,6.43c-4.11,3.8-11.979-1.18-15.29-3.34c-0.42,0.62-0.62,1.18-0.66,1.71l-1.529-0.1
			c0.05-0.91,0.27-1.74,1.18-2.45c1.75-1.36,3.77-0.01,5.56,0.47c0.4,0.11,0.91,0.04,1.29,0.22c0.3,0.14,0.471,0.79,0.851,0.95
			c0.59,0.24,3.31,0.28,4.01,0.15c0.43-0.07,1.83-0.75,2.18-1.12c0.62-0.65,0.38-1.31,0.66-2.05l-0.12-0.09
			c0.17-0.23,0.351-0.43,0.49-0.58c0.57-0.63,1.03-1.53,1.62-2.13c1.189-1.2,3.43-1.26,5.05-1.74c0.771-0.23,1.08-0.44,1.95-0.46
			c2-0.04,3.14,1.61,4.979,2.24c1.311,0.44,3.811,1.13,5.17,0.87c0.181-0.75-0.369-1.68-0.6-2.35c-0.53-1.49-1.09-3.07-1.22-4.67
			c-0.23-2.91-0.53-5.6,2.27-7.05c0.88-0.46,1.53-0.73,2.54-0.43c1.23,0.38,1.3,1.17,1.86,2.06c1.14,1.79,3.2,3.64,5.47,3.16
			c1.8-0.37,2.2-2.37,2.2-4.17c0.01-2.57-0.3-4.98,0.32-7.51l0.77,0.17c-0.15,0.59-0.09,1.35-0.09,2.21c0,0.86-0.14,1.91,0.13,2.72
			c0.21,0.67,0.68,1.21,0.87,1.92L419.645,124.369z"/>
		<path fill="#D2450E" d="M359.225,133.979h-0.15c0.15-3.77,4.351-4.77,7.49-5.09c1.061-0.11,2.17-0.09,3.11-0.65
			c0.63-0.37,2.54-1.54,2.939-2.13c0.721-1.06-0.04-1.43,1.771-1.69c0.649-0.09,2.51-0.32,3.02,0.17c0.54,0.51,0.29,3.31,0.16,3.99
			c-0.1,0.6-0.51,1.3-1.03,1.77c-1.649,1.46-4.659,0.77-6.63,1.4c-2.17,0.69-3.88,2.49-6.16,3.13
			C362.765,135.159,359.225,135.898,359.225,133.979z"/>
		<path fill="#8E1908" d="M371.365,144.148c-0.229,2.75,3.78,4.55,2.95,8.16c-3.5,0.23-6.2,0.05-9.36-1.37
			c0.33,8.03-4.56,6.88-10.06,5.53c-5.46-1.33-8.99-0.56-13.01,2.18l-0.15-0.23c0.08-0.06,0.15-0.11,0.21-0.18
			c0.87-0.95,0.641-2.74,1.88-3.54c1-0.65,2.9-0.36,4.08-0.44c1.391-0.09,2.811-0.04,4.21-0.04c2.45,0,5.05,0.42,7.48,0.17
			c0.88-0.09,1.5-0.1,2.01-0.92c0.22-0.36,0.13-0.61,0.29-0.96c0.23-0.51,0.56-0.88,0.87-1.4c1.03-1.72,1.729-1.78,3.84-1.89
			c0.67-0.03,1.92,0.27,2.43-0.23c0.311-0.29,0.62-2.1,0.69-2.6c0.12-0.82,0.06-1.61,0.11-2.34L371.365,144.148z"/>
		<path fill="#D2450E" d="M348.655,135.789c-1-1.46-0.62-6.01-0.43-7.54c0.21-1.74,0.31-2.13-1.65-2.56
			c0.391-2.32,9.19-3.78,10.471-2.17c0.979,1.23-1.181,2.42-1.45,3.74c-0.25,1.18,0.45,1.26,0.899,2.17
			c0.58,1.2,0.15,2.21-0.319,3.3c-0.84,1.95-1.19,2.66-1.28,4.98c-0.07,1.97-0.73,4.38,1.33,5.39c1.8,0.88,6.57-0.17,7.34,1.78
			c0.92,2.33-1.16,3.86-3.18,4.14c-2.95,0.41-6.46-1.67-9.21-0.48c-0.311-0.57-0.96-0.98-1.28-1.51c-0.8-1.35-0.43-2.95-0.49-4.48
			c-0.069-1.87,0.11-4.98-1.18-6.49L348.655,135.789z"/>
		<path fill="#FFC574" d="M356.145,510.639c0.11,0.98,0.1,1.94-0.55,2.7c-0.061,0-2.69,1.54-2.69,1.569
			c-2.25,0.15-1.16-1.329-0.7-2.01c0.9-1.319,1.2-1.569,1.19-3.569c-0.01-2.521-0.5-4.69-1.55-6.931
			c-0.54-1.149-1.311-1.71-1.45-3.01c-0.11-1.05,0.28-2.14,0.25-3.25c-0.07-2.75-0.96-5.48-0.72-8.23
			c1.609-0.06,3.1-0.489,3.729,0.971c0.48,1.149-0.01,3.71-0.01,4.95c0-0.311,0-0.631,0-0.94h-0.25c-1.26,1.77-0.61,3.7,0.35,5.38
			c1.301,2.26,0.891,3.38,0.891,6.12C354.635,506.749,355.895,508.459,356.145,510.639z"/>
		<path fill="#D2450E" d="M332.585,143.398c-1.021,1.36-2.431,3.78-2.5,5.46c1.909,0.12,3.21-0.41,3.77-2.31
			c0.15-0.52,0.45-1.61,0.21-2.16C333.735,143.659,333.325,143.779,332.585,143.398z M328.035,151.559
			c-0.59,0.13-1.34-0.29-1.64-0.84c-0.55-1,0.13-2.14,0.69-2.95c1.8-2.56,4.239-4.49,3.5-8.08c-0.421-2-1.83-3.4-2.061-5.51
			c-0.25-2.18-0.16-3.8,1.17-5.61c1.181-1.61,5.8-4.05,5.87-0.68c0.061,2.94-2.4,3.35-3,5.5c-0.41,1.43,0.43,3.2,0.8,4.51
			c0.351,1.27,0.4,2.33,1.53,3.03c1.5,0.94,0.67,0.03,1.45-0.45c0.729-0.45,1.6-0.51,2.67-0.42c2.03,0.15,3.97,0.89,6.02,1.02
			c0.16,1.23,0.11,2.97-0.92,3.74c-0.79,0.59-2.739,1-3.72,1.36c-1.13,0.43-2.28,0.72-3.46,1c-0.95,0.23-1.69,0.36-2.54,0.88
			c-0.83,0.49-1.46,1.36-2.3,1.8c-0.92,0.49-2.03,0.4-3.01,0.55c0.1,0.79-0.04,1.56-1.021,1.31L328.035,151.559z"/>
		<path fill="#8E1908" d="M341.735,158.418l0.15,0.23c-0.5,0.33-1,0.7-1.521,1.1c-1.88,1.46-3.729,1.99-5.22,3.63
			c-2.1,2.32-1.1,4.14-4.25,5.54c-1.59,0.7-4.8-0.25-6.15,1.3c-1.76,2.01,0.29,5.09-2.79,6.29c1.4,1.46,3.74,6.05,2.48,8.4
			c-0.68,1.25-1.86,1.27-2.771,1.96l-0.1-0.31c-1.05,0.09-0.939-1.09-0.51-1.68c0.689-0.93,1.32-0.59,1.51-1.95
			c0.08-0.61,0.18-1.9-0.16-2.39c-0.63-0.93-1.79-0.39-2.64-0.65c-2.05-0.61-1.55-5.55-0.7-7.14c0.53-1,1.41-1.43,2.16-2.33
			c0.89-1.08,1.12-2.1,2.5-2.36c1.77-0.34,3.72,0.13,5.5-0.17c2.41-0.4,2.88-2.01,2.63-4.2c-0.26-2.32-0.34-5.9,2.24-6.84
			c2.399-0.88,3.28,2.17,5.51,2.08C340.225,158.898,341.185,158.789,341.735,158.418z"/>
		<path fill="#D6D6D6" d="M299.495,327.438l0.15-0.3c2.68,0.11,2.84-7.72-0.5-7.69C295.725,319.479,297.125,326.109,299.495,327.438
			z M289.715,433.269c0.949-1.31,0.59-3.51,0.68-5.13c0.18-3.25,0.41-6.2,0.24-9.5c-0.101-1.79-0.431-3.34-0.51-5.1
			c-0.101-2.45,0.989-4.53,1.279-6.89c0.61-5.09-0.34-10.34,0.79-15.37c0.601-2.69,1.66-5.52,2.17-8.15
			c0.471-2.45,0.41-5.12,0.851-7.62c0.88-5.09,0.58-10.19,1.18-15.38c0.41-3.58,1.26-7.66,1.76-11.27
			c0.42-3.03,1.221-6.29,0.311-9.27c-0.37-1.22-0.54-2.68-0.99-3.77c-0.521-1.27-1.91-2.41-2.57-3.68
			c-1.02-1.94-1.279-4.48-1.95-6.65c-0.56-1.84-0.89-6.04-2.75-7.12c-2.68-1.54-3.74,5.88-4.069,7.35
			c-0.64,2.79-1.56,5.29-2.03,7.98c-0.65,3.68-0.33,7.23-0.7,10.88c-0.49,4.8-1.52,9.37-1.51,14.33c0.01,4.26-0.07,8.53-0.01,12.79
			c0.11,8.84,0.54,17.68,0.77,26.51c0.12,5.01-0.08,9.75,1.31,14.67c0.87,3.1,1.04,6.17,1.62,9.32c0.5,2.75,0.35,6.31,1.31,8.85
			c0.37,0.96,1.27,1.45,1.54,2.56c0.49-0.02,0.85-0.189,1.06-0.479L289.715,433.269z M293.005,442.438l0.14-0.05
			c3.38-1.66,2.96-9.94,3.24-13.09c0.33-3.82,1.77-7.37,2.21-11.18c0.359-3.08,0.05-6.36,0.05-9.48c0-2.32-0.09-4.5,0.11-6.65
			c0.12-1.14,0.31-2.28,0.649-3.42c0.65-2.2,0.9-4.36,0.99-6.74c0.12-3.03,0.03-6.21,0.69-9.18c0.689-3.12,0.5-6.36,1.479-9.31
			c1.38-4.14,2.94-7.84,3.4-12.32c0.35-3.43,0.47-7.13,1.55-10.4c0.79-2.4,0.71-5.25,1.62-7.72c1.34-3.6,1.91-7.64,3.2-11.31
			c2.43-6.91,6.319-12.95,5.38-20.61c-0.17-1.35-1.261-9.95-3.641-6.79c-1.38,1.83-0.84,4.71-1.21,6.85
			c-0.34,1.93-1.05,3.8-1.62,5.67c-1.8,5.85-3.89,11.61-5.59,17.5c-1.63,5.69-2.76,10.82-3.069,16.64
			c-0.061,1.24,0.09,2.9-0.16,4.12c-0.2,0.95-0.931,1.78-1.05,2.99c-0.271,2.69,0.34,5.45-0.221,8.09
			c-1.229,5.9-2.16,12.01-2.83,18.08c-0.31,2.81-1.06,5.5-1.359,8.33c-0.32,3.13-0.271,6.24-0.5,9.35
			c-0.021,0.25-0.04,0.49-0.061,0.74c-0.319,3.55-1.04,7.12-1.27,10.65c-0.271,4.28,0.229,8.3-0.75,12.46
			C294.095,426.918,291.645,440.619,293.005,442.438z M283.855,442.278c0.08-0.59,0.02-1.46-0.02-2.08
			c-0.15-2.6-0.14-5.489-0.69-8.079c-0.92-4.291-2.02-8.201-2.76-12.49c-1.6-9.33-2.49-18.72-2.49-28.27
			c0-4.24-1.01-8.22-1.25-12.41c-0.13-2.28-0.12-4.56-0.06-6.84c0.1-3.48,0.31-6.96,0.31-10.44c0-4.51-0.13-9.11,0.5-13.53
			c0.49-3.43,1.57-6.92,1.81-10.36c0.24-3.69,1.03-7.71,1.8-11.3c0.66-3.13,1.57-9.23,3.53-11.15c2.24-2.2,3.11-0.36,5.169,0.5
			c1.04,0.43,5.931,1.34,6.641,0.26c0.899-1.37-2.11-4.85-3.13-5.27c-1.83-0.76-5.1-0.29-6.64,0.69
			c-6.15,3.91-8.23,11.99-9.18,18.89c-0.66,4.82-1.28,9.66-1.75,14.48c-0.25,2.61-0.81,5.55-0.76,8.17
			c0.04,2.62,0.77,5.12,0.76,7.82c-0.01,3.76-0.04,7.49-0.15,11.22c-0.06,2.24-0.16,4.48-0.29,6.72
			c-0.32,5.17,0.52,10.48,0.89,15.61c0.66,9.35,0.86,19.12,2.54,28.27c0.56,3.09,1.5,6.5,2.21,9.63
			C281.275,434.259,282.055,441.269,283.855,442.278z M322.655,313.809c0.13,2.26-0.399,3.98-1.029,6.09
			c-0.561,1.86-0.341,4.2-1.07,5.95c-0.29,0.69-1.51,1.87-1.92,2.93c-0.53,1.36-1.08,2.79-1.45,4.2c-0.521,1.97-1.2,3.85-1.8,5.85
			c-0.7,2.34-0.42,5.09-1.28,7.31c-0.86,2.21-1.71,4.1-2.22,6.53c-1.49,7-2.971,14.14-4.601,21.19c-1.17,5.02-1.6,10.12-2.96,15.11
			c-0.899,3.34-1.199,6.54-1.189,9.98c0.02,4.74-0.65,9.42-0.76,14.15c-0.131,5.77,0.5,11.52,0.52,17.28
			c0.01,3.56-1.03,7.279-2.31,10.439c-0.62,1.53-1.54,2.54-0.681,4.08c0.601,1.09,1.83,1.2,2.62,2.08c2.08,2.3,2.8,6,2.61,9.101
			c-0.061,0.96-0.15,2.449,0.24,3.3c0.569,1.24,1.979,1.76,2.64,3.05c1.31,2.55,0.52,6.03,0.38,8.78c-0.14,2.96-0.85,8.17-4.5,8.18
			c-1.18,0-2.03-0.72-3.24-0.75c-0.01-0.08-0.01-0.17-0.01-0.25l-0.84-0.15c0.359-0.189,0.649-0.38,0.85-0.569
			c1.45-1.36,1.62-4.101,1.75-6.03c0.13-2.13,0.67-4.4,0.45-6.46c-1.82-0.34-1.93,1.42-2.64,2.54c-0.891,1.4-1.73,2.71-3.08,3.6
			c-2.63,1.74-7.25,1.5-10.15,1.86c-0.19,1.24,0.02,3.57,0.94,4.93l-2.63,1.37c-1.27-1.899-2.39-3.82-2.9-6.34
			c-1-4.93-0.36-10.21-1.8-15.03c-0.17-0.55-0.39-1.13-0.63-1.71c-2.07-6.01-2.07-12.01-4.45-18.27c-0.13-0.62-0.22-1.24-0.3-1.86
			c-0.74-5.58-2.56-10.99-2.82-16.64c-0.17-3.63-0.46-7.25-0.5-10.83c-0.03-2.42-0.35-4.8-0.79-7.17c-0.09-0.47-0.18-0.94-0.28-1.41
			c0.04-4.1,0.42-8.26,0.15-12.19c-0.29-4.29-1.8-8.48-1.39-12.8c0.45-4.64,1.29-9.18,0.51-13.86c-0.83-5.04,0.16-9.14,0.99-14.18
			c0.66-3.99,0.79-8.04,1.55-12.04c0.82-4.28,0.39-8.91,1.76-13c0.87-2.6,1.11-6.25,2.74-8.25c0.71-0.87,3.17-3.35,4.23-3.55
			c-0.2-1.77,3.4-3.54,4.85-4.15c1.4-0.58,3.53-0.96,5.18-0.56c1.69,0.41,4.27,1.38,5.81,2.48c1.79,1.28,6.21,5.3,6.23,7.73
			c2.99,0.75,3.09-3.98,3.76-5.7c2.061-5.27,3.53-10.48,6.021-15.52c1.33-2.68,3.41-6.63,5.18-1.74c1.28,3.51,0.78,7.76,1.79,11.25
			C321.165,307.509,322.455,310.349,322.655,313.809z M295.885,458.889c1.64-0.13,4.3-0.92,4.279-3.01
			c-0.01-0.641-1.319-3.5-1.75-3.99c-2.369-2.67-7.43-3.99-10.51-1.95c-2.07,1.37-5.31,9.811-1.76,10.7l0.11-0.12
			c0.31,0.311,0.64,0.59,0.89,0.9C289.595,459.068,292.645,459.148,295.885,458.889z"/>
		<path fill="#8E1908" d="M322.415,122.769l0.171,0.31c-0.391,0.9-0.131,1.92-0.48,2.81c-0.36,0.89-1.15,1.75-1.54,2.5
			c-0.79,1.55-1.18,1.83-2.479,2.91c-0.601,0.5-0.971,1.06-1.66,1.42c-0.521,0.28-1.181,0.16-1.391,0.84
			c1.141,1.08,0.58,2.93-0.39,3.8c-0.93,0.83-2.54,0.79-3.59,1.36c-1.99,1.07-1.13,3.66-1.92,5.43
			c-0.181,0.41-0.431,0.83-0.721,1.24c-5.52,7-15.52,7-19.229-1.6c-0.45-0.45-0.89-0.91-1.35-1.36c-0.85-0.86-1.72-1.7-2.66-2.49
			l2.07-0.35c1.86,1.67,3.8,2.97,6.66,4.15c5.5,2.26,6.19,2.03,10.21-2.37c2.96-3.23,6.29-6.61,9.28-10.38
			C315.715,128.069,318.965,124.639,322.415,122.769z"/>
		<path fill="#010000" d="M317.715,310.979c0.939,7.66-2.95,13.7-5.38,20.61c-1.29,3.67-1.86,7.71-3.2,11.31
			c-0.91,2.47-0.83,5.32-1.62,7.72c-1.08,3.27-1.2,6.97-1.55,10.4c-0.46,4.48-2.021,8.18-3.4,12.32
			c-0.979,2.95-0.79,6.19-1.479,9.31c-0.66,2.97-0.57,6.15-0.69,9.18c-0.09,2.38-0.34,4.54-0.99,6.74
			c-0.34,1.14-0.529,2.28-0.649,3.42l-2.29-0.18c0.229-3.11,0.18-6.22,0.5-9.35c0.3-2.83,1.05-5.52,1.359-8.33
			c0.67-6.07,1.601-12.18,2.83-18.08c0.561-2.64-0.05-5.4,0.221-8.09c0.119-1.21,0.85-2.04,1.05-2.99c0.25-1.22,0.1-2.88,0.16-4.12
			c0.31-5.82,1.439-10.95,3.069-16.64c1.7-5.89,3.79-11.65,5.59-17.5c0.57-1.87,1.28-3.74,1.62-5.67c0.37-2.14-0.17-5.02,1.21-6.85
			C316.455,301.029,317.545,309.629,317.715,310.979z"/>
		<path fill="#FFFFFF" d="M311.785,231.989c0.95,2.62,6.7,21.54,1.7,20.82c-0.92-2.59-1.229-6.87-2.08-8.49
			c-0.59,3.32-2.01,5.41-2.09,8.99c-0.72,0.24-2.12,0.24-2.84,0c-0.37-5.11,0.21-9.03-5.99-8.33c-0.52,1.73-0.27,3.9-2,4.34
			c0.101-5.12-0.229-7.6,1.38-11.96c1.221-3.27,3.71-6.66,2.94-10.38c-2.09-1.01-1.87-8.84-2.311-11.19
			c-0.54-2.82-0.97-4.39-1.93-5.38l0.66-0.02c0-1.23-0.36-3.1,0.45-4.04c0.97-1.12,4.1-1.23,5.42-0.89c1.28,0.32,3,1.25,3.87,2.05
			c1.199,1.1,0.91,1.78,1.43,3.21l0.52,0.03C310.445,217.579,309.635,226.099,311.785,231.989z"/>
		<path fill="#D6D6D6" d="M300.655,478.639c0.05,4.89,1.21,9.95,1.71,14.93c0.061,0.63,0.11,1.271,0.181,1.891
			c-0.19,1.779-0.15,3.66,0.01,5.56c0.06,0.64,0.13,1.271,0.2,1.91c2.14,6.46,2.14,13.46,3.979,19.26
			c0.11,0.561,0.21,1.13,0.29,1.71c0.08,0.59,0.14,1.181,0.17,1.79c0.271,5.08,1.46,10.021,1.45,15.23
			c-0.01,4.989,1.26,9.56,1.25,14.569c-0.02,4.7-0.6,10.021,0.09,14.69c0.66,4.37,1.851,8.18,2.16,12.64
			c0.34,4.891,0.44,9.891,0.19,14.79c-0.181,3.761,0.199,7.971-0.49,11.67c-0.931,4.99-3.021,10.061-4.63,14.591
			c-0.801,2.25-0.7,4.34-2.38,6.239c-0.801,0.91-2.24,1.71-3.2,2.271c-4.7,2.76-15.51,1.7-18.44-3.79
			c-0.81-1.51-1.08-3.83-1.62-5.46c-0.72-2.15-0.91-3.931-1.11-6.221c-0.51-6.079-1.05-11.989-0.79-18.109c0-0.01,0.01-0.01,0-0.021
			c1.39-3.979,1.8-8.449,1.98-13.08c0.04-0.96,0.08-1.92,0.12-2.88l1.48,0.07c-0.12,2.93,0.13,5.97,0.14,8.73
			c0,2.649-0.25,5.189-0.25,7.88c0,6.609,0.13,13.87,2.69,20.06c0.91,2.19,3.43,4.51,5.01,6.29c1.34,1.51,2.74,2.73,4.79,3.05
			c4.95,0.771,6.8-4.24,7.05-8.24c2.24-0.689,2.85-8.77,3.32-10.829c0.71-3.101,1.729-6.25,1.899-9.431
			c0.19-3.779-0.01-7.63-0.01-11.41c0-5.47-0.24-10.369-1.3-15.659c-0.601-2.99-1.46-5.851-1.45-8.9c0.01-3.4,0.2-6.89-0.19-10.25
			c-0.579-5.11-1.149-10.4-1.569-15.56c-0.59-7.351-1.92-14.49-3.01-21.87c-0.69-4.63-1.95-9.601-1.98-14.36
			c-0.03-4.19-0.06-8.33-0.25-12.5c-0.06-1.41-0.91-5.39-2.45-5.82c-2.689-0.76-1.31,8.561-1.3,10.061
			c0.03,4.399,1.62,8.399,2.26,12.75c0.46,3.189,0.181,6.62,0.73,9.76c0.39,2.25,1.13,4.33,1.51,6.72
			c0.83,5.141,1.17,10.011,1.24,15.24c0.04,2.39,0.069,4.91,0.25,7.3c0.029,0.4,0.08,0.8,0.149,1.19l-2.67,0.46
			c-0.41-2.101-0.96-4.18-1.18-6.3c-0.19-1.9,0.31-3.96-0.021-5.83c-0.34-1.971-1.25-3.761-1.47-5.78
			c-0.7-6.5-1.06-12.82-2.05-19.26c-0.75-4.92-1.07-9.931-2.38-14.75c-1.11-4.08-0.87-8.96-3.11-12.61
			c-0.77-1.25-1.59-2.39-2.36-3.54l2.63-1.37c0.51,0.761,1.23,1.221,2.22,1.03l0.03-0.03c1.89,1.59,7.25,0.4,9.63-0.87l0.84,0.15
			C300.645,478.469,300.645,478.559,300.655,478.639z"/>
		<path fill="#8E1908" d="M289.665,189.849c0.271,0.35,0.7,1.06,1.021,1.25c0.479,0.29,1.29,0.15,1.84,0.32
			c1.94,0.62,3.311,0.91,5.44,0.81c4.33-0.21,8.27-2.55,8.26-7.17c0-1.98,0-3.84,0.71-5.69c0.6-1.56,1.13-3.8,0.5-5.53
			c-0.521-1.45-1.81-2.63-2.34-3.98c-0.66-1.68-1.32-4.25-3.01-5.25c-1.561-0.91-2.83-1.83-4.87-1.57
			c-1.78,0.23-3.561,0.51-5.33,0.85c-1.09,0.21-2.7-0.13-3.68,0.46c-0.66,0.4-0.84,0.99-1.43,1.58c-0.53,0.53-1.21,0.86-1.68,1.49
			c-1.17,1.57-2.28,3.11-2.37,5.14c-0.07,1.71-0.32,2.77,0.04,4.33c0.55,2.36,1.76,3.52,3.13,5.5c0.86,1.26,2.31,2.43,3.05,3.83
			c0.51,0.96,0.28,2.58,0.891,3.5L289.665,189.849z M292.525,195.909c-3.84,0.27-6.74-2.63-9.95-5.8c-0.49-0.52-0.93-1.07-1.33-1.65
			c-4-5.8-3.89-14.48-1.81-21.84c0.2-0.74,0.43-1.46,0.68-2.17c1.89-3.03,4.58-5.04,7.72-6.38c0.63-0.26,1.27-0.5,1.92-0.7
			c6.14-0.98,13.14-0.98,18.67,2.28c0.51,0.46,0.979,0.97,1.41,1.52c6.5,8.19,4.56,24.72-2.94,32.22c-0.75,1-1.69,1.75-2.76,2.27
			c-0.53,0.26-1.101,0.46-1.69,0.61C299.035,196.389,296.125,197.309,292.525,195.909z"/>
		<path fill="#010000" d="M307.895,588.988c0,3.78,0.2,7.631,0.01,11.41c-0.17,3.181-1.189,6.33-1.899,9.431
			c-0.471,2.06-1.08,10.14-3.32,10.829l-0.94-0.3c1.131-3.479,1.811-9.16,2.17-10.989c0.021-0.08,0.03-0.16,0.051-0.23
			c1.76-7.62,2.359-16.45,1.46-24.37c-0.54-4.71-1.351-9.479-2.221-14.21c-0.97-5.25-0.109-10.15-0.55-15.439
			c-0.24-2.771-1.62-5.29-2.12-8.03c-0.069-0.391-0.12-0.79-0.149-1.19c-0.181-2.39-0.21-4.91-0.25-7.3
			c-0.07-5.229-0.41-10.1-1.24-15.24c-0.38-2.39-1.12-4.47-1.51-6.72c-0.55-3.14-0.271-6.57-0.73-9.76
			c-0.64-4.351-2.229-8.351-2.26-12.75c-0.01-1.5-1.39-10.82,1.3-10.061c1.54,0.431,2.391,4.41,2.45,5.82
			c0.19,4.17,0.22,8.31,0.25,12.5c0.03,4.76,1.29,9.73,1.98,14.36c1.09,7.38,2.42,14.52,3.01,21.87
			c0.42,5.159,0.99,10.449,1.569,15.56c0.391,3.36,0.2,6.85,0.19,10.25c-0.01,3.05,0.85,5.91,1.45,8.9
			C307.655,578.619,307.895,583.519,307.895,588.988z"/>
		<path fill="#D6A442" d="M297.375,174.398c0,1.69,3.659,0.57,4.369,0.03c1.061-0.81,1.08-1.51,1.33-2.75
			c0.19-0.9,1.061-1.59,0.82-2.6c-0.25-0.01-0.72,0.05-0.95,0.17c-1.189,1.82-4.609,2.78-5.2,5.14L297.375,174.398z
			 M289.835,189.719c-0.61-0.92-0.381-2.54-0.891-3.5c-0.74-1.4-2.19-2.57-3.05-3.83c-1.37-1.98-2.58-3.14-3.13-5.5
			c-0.36-1.56-0.11-2.62-0.04-4.33c0.09-2.03,1.2-3.57,2.37-5.14c0.47-0.63,1.15-0.96,1.68-1.49c0.59-0.59,0.77-1.18,1.43-1.58
			c0.98-0.59,2.59-0.25,3.68-0.46c1.77-0.34,3.55-0.62,5.33-0.85c2.04-0.26,3.31,0.66,4.87,1.57c1.689,1,2.35,3.57,3.01,5.25
			c0.53,1.35,1.819,2.53,2.34,3.98c0.63,1.73,0.1,3.97-0.5,5.53c-0.71,1.85-0.71,3.71-0.71,5.69c0.01,4.62-3.93,6.96-8.26,7.17
			c-2.13,0.1-3.5-0.19-5.44-0.81c-0.55-0.17-1.36-0.03-1.84-0.32c-0.32-0.19-0.75-0.9-1.021-1.25L289.835,189.719z M294.465,182.049
			c1,0.66,1.93,1.59,2.93,2.16c1.04-1.14,1.04-2.94,1.31-4.3c-1.77-0.11-5.05-0.63-5.29,1.79c0.181-0.02,0.351-0.01,0.511,0.04
			C294.105,181.829,294.285,181.938,294.465,182.049z"/>
		<path fill="#D6D6D6" d="M305.425,584.769c0.899,7.92,0.3,16.75-1.46,24.37c-0.021,0.07-0.03,0.15-0.051,0.23l-1.979-0.351
			c0.43-2.34,0.46-4.649,0.46-7.07c0-3.26,0.48-6.46-0.29-9.6c-2-8.07-1.24-15.34-1.94-23.38c-0.3-3.37-1.06-6.771-1.529-10.12
			c-0.41-3.02-0.061-6.13-0.431-9.19c-0.09-0.71-0.199-1.409-0.34-2.109l2.67-0.46c0.5,2.74,1.88,5.26,2.12,8.03
			c0.44,5.289-0.42,10.189,0.55,15.439C304.075,575.289,304.885,580.059,305.425,584.769z"/>
		<path fill="#D6D6D6" d="M283.635,579.289c-0.22,1.159-0.33,2.38-0.38,3.6l-1.48-0.07c0.19-4.6,0.38-9.229,0.37-13.79
			c-0.01-5.659-0.42-11.38-0.26-17.029c0.09-3.601,0.23-7.101-0.16-10.63l2.81-0.341c0.95,8.91,1.88,17.88,1.86,26.86
			c-0.02,6.76,1.4,13.31,2.25,19.94c0.31,2.409,0,5.079,0.44,7.369c0.29,1.511,1.119,2.95,1.319,4.5c0.53,3.96,0.55,8.171,1.5,11.99
			c0.431,1.74,2,5.62,3.98,6.21c3.37,1.01,5.21-5.439,5.72-7.38c0.13-0.5,0.24-1,0.33-1.5l1.979,0.351
			c-0.359,1.829-1.039,7.51-2.17,10.989c-0.569,1.74-1.25,2.931-2.06,2.8c0.11,2.36-1.88,3.7-4.04,3.48
			c-1.83-0.18-3.75-2.02-4.74-3.67c-0.899-1.5-0.91-4.87-1.27-6.59c-0.83-3.9-2.35-7.771-2.49-11.9c-0.16-4.74-2.38-8.89-2.5-13.33
			c-0.1-3.779,0.58-8.18-0.5-11.76L283.635,579.289z"/>
		<path fill="#010000" d="M290.175,479.108l-0.03,0.03c-0.99,0.19-1.71-0.27-2.22-1.03c-0.92-1.359-1.13-3.689-0.94-4.93
			c2.9-0.36,7.521-0.12,10.15-1.86c1.35-0.89,2.189-2.199,3.08-3.6c0.71-1.12,0.819-2.88,2.64-2.54c0.22,2.06-0.32,4.33-0.45,6.46
			c-0.13,1.93-0.3,4.67-1.75,6.03c-0.2,0.189-0.49,0.38-0.85,0.569C297.425,479.509,292.065,480.698,290.175,479.108z"/>
		<path fill="#010000" d="M301.745,620.358l0.94,0.3c-0.25,4-2.1,9.011-7.05,8.24c-2.05-0.319-3.45-1.54-4.79-3.05
			c-1.58-1.78-4.1-4.1-5.01-6.29c-2.56-6.189-2.69-13.45-2.69-20.06c0-2.69,0.25-5.23,0.25-7.88c-0.01-2.761-0.26-5.801-0.14-8.73
			c0.05-1.22,0.16-2.44,0.38-3.6l0.51,0.1c1.08,3.58,0.4,7.98,0.5,11.76c0.12,4.44,2.34,8.59,2.5,13.33c0.14,4.13,1.66,8,2.49,11.9
			c0.359,1.72,0.37,5.09,1.27,6.59c0.99,1.65,2.91,3.49,4.74,3.67c2.16,0.22,4.15-1.12,4.04-3.48
			C300.495,623.289,301.175,622.099,301.745,620.358z"/>
		<path fill="#010000" d="M286.255,460.519l-0.11,0.12c-3.55-0.89-0.31-9.33,1.76-10.7c3.08-2.04,8.141-0.72,10.51,1.95
			c0.431,0.49,1.74,3.35,1.75,3.99c0.021,2.09-2.64,2.88-4.279,3.01c-3.24,0.26-6.29,0.18-8.74,2.53
			C286.895,461.108,286.565,460.829,286.255,460.519z"/>
		<path fill="#010000" d="M296.465,401.809l2.29,0.18c-0.2,2.15-0.11,4.33-0.11,6.65c0,3.12,0.31,6.4-0.05,9.48
			c-0.44,3.81-1.88,7.36-2.21,11.18c-0.28,3.149,0.14,11.43-3.24,13.09l-0.14,0.05c-1.36-1.819,1.09-15.52,1.38-16.78
			c0.979-4.16,0.479-8.18,0.75-12.46c0.229-3.53,0.95-7.1,1.27-10.65C296.425,402.299,296.445,402.059,296.465,401.809z"/>
		<path fill="#010000" d="M293.215,310.819c1.02,0.42,4.029,3.9,3.13,5.27c-0.71,1.08-5.601,0.17-6.641-0.26
			c-2.06-0.86-2.93-2.7-5.169-0.5c-1.96,1.92-2.87,8.02-3.53,11.15c-0.77,3.59-1.56,7.61-1.8,11.3c-0.24,3.44-1.32,6.93-1.81,10.36
			c-0.63,4.42-0.5,9.02-0.5,13.53c0,3.48-0.21,6.96-0.31,10.44l-1.09-0.02c0.11-3.73,0.14-7.46,0.15-11.22
			c0.01-2.7-0.72-5.2-0.76-7.82c-0.05-2.62,0.51-5.56,0.76-8.17c0.47-4.82,1.09-9.66,1.75-14.48c0.95-6.9,3.03-14.98,9.18-18.89
			C288.115,310.529,291.385,310.059,293.215,310.819z"/>
		<path fill="#FFFFFF" d="M275.765,247.289c-4.02-4.63,5.34-15.59,6.51-20.02c1.07-4.11-0.63-7.27-1.35-11.39
			c-0.47-2.69-0.47-6.67-2.83-8.07l0.16-0.26c2.41-2.89,4.76-2.65,8.14-2.66c2.69-0.01,5.81,1.09,6.67,4l0.39,0.01
			c-0.279,7.39-4.47,13.99-3.67,21.1c0.521,4.62,3.641,7.31,3.62,11.91c-0.01,2.48-0.77,9.98-3.93,9.4
			c-0.12-1.58-0.04-3.25-0.16-4.83c-1.13-0.72-1.54-2.17-2.33-3.44c0.3,3.34-1.1,8.54-5.02,8.27c-0.11-1.72-0.02-3.5-0.43-5.06
			c-0.45-1.66-2.12-1.93-1.75-4.35c-0.58,2.41-2.55,4.69-2.46,7.42C276.105,249.199,275.675,248.418,275.765,247.289z"/>
		<path fill="#8E1908" d="M287.245,139.589l-2.07,0.35c-0.56-0.48-1.15-0.93-1.77-1.36c-0.63-0.28-1.08-0.41-1.48-0.62
			c-0.4-0.2-0.74-0.48-1.12-1.07c-0.76-1.17-0.78-2.31-1.79-3.29c-0.66-0.65-1.62-0.98-2.16-1.54c-0.62-0.64-1.04-1.77-1.64-2.33
			c-2.08-1.92-3.77-3.81-5.67-5.81c-0.72-0.76-1.39-1.3-2.14-1.87c-0.82-0.61-1.71-0.84-2.46-1.4c-1.05-0.78-1.67-2.31-2.38-3.26
			c-1.03-1.36-3.81-1.95-5.71-1.84c-2.79,0.16-5.07,0.27-7.8-0.16c-2.06-0.33-3.95-1.11-5.99-1.33c-1.58-0.18-3.15,0.05-4.73-0.21
			c-1.36-0.22-2.22-0.67-3.47-0.8c-1.93-0.2-4.06,0.2-5.96-0.29c-0.88-0.23-1.42-0.74-2.14-1.24c-1.75-1.24-3.18-1.93-5.37-2.33
			c-2.93-0.53-4.76-3.56-7.33-4.92c-1.6-0.84-7.27-2.18-7.52-4.36c-3.32,0.02-7.21-3-10.15-4.38c-2.01-0.94-3.95-1.86-5.9-2.76
			l0.31-0.68c0.36,0.15,0.72,0.29,1.09,0.42c3.41,1.22,7.17,1.31,10.43,2.88c2.77,1.34,5.44,3.33,8.46,4.62
			c2.75,1.19,5.6,2,8.39,3.13c3.48,1.41,6.05,4,9.57,5.39c4.46,1.75,10.43,2.08,15.13,2.36c4.77,0.28,10.84-0.26,15.42,0.95
			c4.47,1.17,9.92,7.75,13.66,10.69c4.53,3.54,6.84,9.36,10.83,13.59C285.035,137.449,286.125,138.579,287.245,139.589z"/>
		<path fill="#D6D6D6" d="M284.535,541.028l-2.81,0.341c-0.12-1.08-0.28-2.16-0.51-3.24c-0.26-1.21-0.58-2.9-1.08-3.99
			c-0.55-1.21-1.42-1.47-2.19-2.49c-0.44,8.83-1.74,17.74-3.76,26.21c-2.69,11.271-2.42,22.61-2.54,34.181
			c-0.04,4.029-1.27,7.609-1.5,11.38c-0.29,4.729-0.2,9.279-0.25,14.02c-0.04,3.92-1.31,7.62-1.48,11.49l-2.52-0.05
			c0-6.36,0.26-12.71,0.25-19.04c-0.01-6.92,0.16-14.13,0.74-21.03c0.33-3.99,1.01-8.09,1.2-12.229c0.16-3.271-0.01-6.33,0.62-9.53
			c1.18-5.96,0.81-11.641,1.95-17.65c1.15-6.069,0.54-14.58,4.38-19.819c1.56-2.12,3.73-2.37,5.99-1.04
			c2.52,1.47,2.6,3.76,2.87,6.409C284.105,536.969,284.315,538.999,284.535,541.028z"/>
		<path fill="#010000" d="M283.835,440.198c0.04,0.62,0.1,1.49,0.02,2.08c-1.8-1.01-2.58-8.02-3.01-9.96
			c-0.71-3.13-1.65-6.54-2.21-9.63c-1.68-9.15-1.88-18.92-2.54-28.27c-0.37-5.13-1.21-10.44-0.89-15.61
			c0.13-2.24,0.23-4.48,0.29-6.72l1.09,0.02c-0.06,2.28-0.07,4.56,0.06,6.84c0.24,4.19,1.25,8.17,1.25,12.41
			c0,9.55,0.89,18.94,2.49,28.27c0.74,4.29,1.84,8.2,2.76,12.49C283.695,434.709,283.685,437.599,283.835,440.198z"/>
		<path fill="#FFC574" d="M282.965,500.389c0.46,0.59,0.81,2.6,0.39,3.26c-1.09,1.721-6.67,1.3-8.53,1.681
			c-2.43,0.51-7.16,0.949-8.87,3.06c-4.12,5.07,9.38,2.35,11.18,2.5c1.6,0.13,7.31,0.76,5.67,3.76c-0.89,1.62-7.16,2.79-8.97,3
			c-1.74,0.21-7.18,0.42-6.86,3.2c2.63,0.33,4.54-0.09,7.12-0.52c1.34-0.23,2.49-0.21,3.75,0.369c0.57,0.261,2.52,1.301,2.69,2
			c0.53,2.131-2.09,2.21-3.67,2.45c-4.01,0.601-8.33,0.61-12.23,2.03c-4.98,1.82-9.4,5.03-14.48,6.77
			c-4.91,1.681-8.58,4.771-13.73,5.62c-5.09,0.84-13.3,2.38-18.22,0.83c-0.99-0.319-1.6-0.75-2.74-1.01c-1.53-0.34-3.13-1-4.38-1.4
			c-4.48-1.399-8.81,1.521-12.93,2.98c-1.75,0.62-2.87,0.59-4.71,0.67c-2.51,0.12-4.65,0.92-7.01,1.69
			c-2.83,0.93-5.66,1.619-8.61,2.319c-5.34,1.26-10.43,2.181-15.93,2.24v-0.5c-1.61-0.11-2.89-0.49-4.21-1.04
			c-0.19-2.85,0.43-5.32,0.71-7.96c0.52-4.94-1.19-9.21-1.51-14.01c-0.2-3.13-1-8.29,0.12-11.181c0.24-0.6,1.74-2.609,2.15-3.069
			c0.85-0.971,1.32-1.2,3.16-1c4.28,0.47,8.76-0.061,13.12,0.7c4.27,0.739,8.28,1.529,12.52,2.369c4.62,0.91,9.55,1.391,14.2,1.95
			c5.83,0.71,10.12-1.49,15.16-4.04c2.86-1.439,5.94-1.76,8.87-2.899c2.33-0.891,4.36-2.45,6.42-3.84
			c1.38-0.931,2.45-2.24,3.77-3.23c1.44-1.07,3.02-1.77,4.29-3.06c2.62-2.66,4.5-3.551,8.01-5.011c2.58-1.069,5.3-1.859,8.13-2.14
			c5.3-0.51,10.41-0.79,15.77-0.79c2.02,0,7.28-0.53,7.83,2.25c0.63,3.13-3.81,3.54-5.96,3.75c-1.67,0.16-2.56,0.41-3.98,1.37
			c-0.76,0.51-1.36,1.25-2.27,1.59c-0.67,0.25-1.4-0.14-2.06,0.3c-2.81,1.86,1.9,2.811,3.64,2.45c1.79-0.38,3.16-1.1,5.06-1.21
			c1.61-0.09,3.26,0,4.88,0C281.025,499.639,282.145,499.318,282.965,500.389z"/>
		<path fill="#010000" d="M282.145,569.028c0.01,4.561-0.18,9.19-0.37,13.79c-0.04,0.96-0.08,1.92-0.12,2.88
			c-0.18,4.631-0.59,9.101-1.98,13.08c-0.16,0.21-0.3,0.431-0.43,0.67l-0.1-0.06c0-6.5-0.22-12.75,0.25-19.21
			c0.54-7.41,1.14-14.47-0.25-21.79c-0.85-4.5-2.45-0.08-2.5,2.46c-0.09,4.49,0,8.99,0,13.48c0,10.27-2.42,20.26-2.99,30.46
			c-0.25,4.529-0.26,9.14-0.26,13.72c0,2.91-0.13,5.75-0.26,8.64c-0.08,1.83,0.48,4.101-0.54,5.71c-3,0.16-4.21,0.261-4.2-3.16
			c0-0.26,0.01-0.52,0.02-0.77c0.17-3.87,1.44-7.57,1.48-11.49c0.05-4.74-0.04-9.29,0.25-14.02c0.23-3.771,1.46-7.351,1.5-11.38
			c0.12-11.57-0.15-22.91,2.54-34.181c2.02-8.47,3.32-17.38,3.76-26.21c0.77,1.021,1.64,1.28,2.19,2.49
			c0.5,1.09,0.82,2.78,1.08,3.99c0.23,1.08,0.39,2.16,0.51,3.24c0.39,3.529,0.25,7.029,0.16,10.63
			C281.725,557.648,282.135,563.369,282.145,569.028z"/>
		<path fill="#D6D6D6" d="M279.145,558.389c1.39,7.32,0.79,14.38,0.25,21.79c-0.47,6.46-0.25,12.71-0.25,19.21l0.1,0.06
			c-1.95,3.57-0.56,9.69-1.11,13.61c-0.36,2.5-0.55,4.97-0.68,7.61c-0.2,4.069,0.14,9.89-1.5,13.75c-0.23,0.55-0.64,0.93-0.81,1.479
			c-0.05,0.16-0.12,1.26-0.25,1.49c-0.7,1.27-0.5,1.2-2.25,1.31c-1.4,0.08-5.21,0.271-6.26-0.81c-1.59-1.63-0.49-6.78-0.49-9.01
			l2.52,0.05c-0.01,0.25-0.02,0.51-0.02,0.77c-0.01,3.421,1.2,3.32,4.2,3.16c1.02-1.609,0.46-3.88,0.54-5.71
			c0.13-2.89,0.26-5.729,0.26-8.64c0-4.58,0.01-9.19,0.26-13.72c0.57-10.2,2.99-20.19,2.99-30.46c0-4.49-0.09-8.99,0-13.48
			C276.695,558.309,278.295,553.889,279.145,558.389z"/>
		<path fill="#8E1908" d="M272.555,176.889c0.57,1.53-0.25,2.49-0.49,3.83c-0.13,0.71-0.23,1.53-0.54,2.17
			c-0.31,0.63-0.98,1.05-0.8,1.83l-0.34,0.08c-1.7-6.71-4.18-14.63-10.47-17.78c-2.09-1.05-4.81-0.96-6.63-2.01
			c-2.27-1.31-1.12-2.44-2.44-3.66c-1.36-1.25-3.88-0.91-5.45-1.57c-2.01-0.85-3.45-1.89-5.51-2.39c-3.29-0.78-7.21,0.88-10.47,0.02
			c-4.32-1.13-6.2-6.26-10.45-7.47c-1.29,3.15-2.88,12.22-7.81,8.31c-2.64-2.1-3.02-8.06-4.33-11.27c-2.29-0.9-4.25-0.28-5.99,0.31
			l-0.21-0.66c1.16-0.44,2.5-1.67,3.6-2.53c1.35-1.07,2.54-3.09,4.52-3.21c3.4-0.23,2.74,2.62,4.65,4.48
			c0.94,0.91,3.03,1.31,4.14,0.43c0.73-0.57,0.6-2.04,1.45-2.59c1.11-0.72,4.06-0.35,4.75,0.71c0.21,0.32,0.4,1.36,0.62,1.82
			c0.48,1.04,0.97,1.88,1.67,2.79c0.77,1,0.95,1.86,2.02,1.41c0.82-0.34,1.97-1.77,2.02-2.55c0.09-1.1-0.67-2.11-0.47-3.33
			c0.17-1.05,0.56-1.93,1.63-2.17c1.3-0.3,1.16,0.21,1.49,1.01c0.97,2.31,1.34,4.92,2.52,7.15c0.85,1.62,1.71,1.92,3.57,1.69
			c2.31-0.28,4-1.97,6.46-1.4c0.89,0.2,3.09,0.59,3.77,1.08c0.34,0.25,0.87,1.43,1.18,1.83c0.65,0.85,1.29,1.86,2.02,2.61
			c2.04,2.14,4.48,0.49,7.03,1.48c1.49,0.57,3.04,1.72,4.08,2.75c0.79,0.79,0.83,1.58,1.26,2.62c0.44,1.1,0.99,1.55,1.89,2.4
			c1.4,1.32,2.1,3.22,2.82,5.06c0.48,1.23,0.5,2.97,1.06,4.07C270.885,175.229,272.165,175.829,272.555,176.889z"/>
		<path fill="#D2450E" d="M262.745,143.269c2.39,1.52,3.71,7.03-0.18,4.78c-0.89-0.51-1.68-1.27-2.55-1.83
			c-1.32-0.88-2.84-0.71-4.24-1.45c-1.5-0.8-1.39-1.86-2.47-2.98c-0.86-0.88-1.66-1.14-2.91-1.23c-2.47-0.19-4.69,0.3-6.55-1.84
			c-0.89-1.01-0.78-2.02-0.78-3.33l-0.13-0.12c0.47-0.56,1.04-0.77,1.96-0.89c1.26-0.15,2.96-0.53,4.17-0.5
			c1.08,0.03,3.03,0.86,3.96,1.37c0.93,0.52,1.28,1.84,2.17,2.33c0.69,0.37,1.66-0.1,2.38,0.42c0.83,0.61,0.52,1.67,0.82,2.51
			C259.105,142.559,261.255,142.319,262.745,143.269z"/>
		<path fill="#D2450E" d="M232.765,129.019c0.21,0.91,0.22,2.1-0.71,2.67c-1.3,0.8-2.08-0.37-3.16-0.77
			c-1.28-0.46-2.16,0.72-3.34,0.94c-1.19,0.22-2.59,0.25-3.8,0.17c-0.14-0.63-0.04-1.33,0.65-1.32c-0.01,0.04,0,0.09,0.01,0.13
			c0.58-0.41,1.37-1.21,1.7-1.83c0.24-0.44,0.23-1.3,0.44-1.63c0.6-0.94,2.17-0.89,3.28-0.95c0.91-0.05,2.59-0.37,3.4-0.05
			C232.175,126.749,232.555,128.099,232.765,129.019z"/>
		<path fill="#8E1908" d="M200.625,146.629l0.21,0.66c-2.71,0.9-4.89,1.72-6.95-3.4c-1.02-2.53-0.24-6.23-4.35-4.81
			c-2.99,1.03-3.72,7.42-7.03,2.08c-1.46-2.36-0.04-5.51-1.49-7.78c-1.45-2.3-4.48-2.78-7.16-2.59l-0.09-1.25
			c0.9-0.06,1.77-0.15,2.43-0.15c1.36,0,2.3,0,3.51,0.76c0.64,0.4,1.96,1.26,2.44,1.76c1.44,1.52,0.85,3.57,1.38,5.4
			c0.51,1.76,2.01,1.27,3.53,0.91c1.21-0.28,2.58-0.57,3.71-0.79c0.91-0.18,3.63-0.18,4.4,0.37c0.37,0.26,1.32,1.97,1.6,2.45
			c0.54,0.93,0.47,1.72,0.46,2.78c-0.01,1.81,0.98,4.31,3.17,3.68C200.475,146.688,200.545,146.659,200.625,146.629z"/>
		<path fill="#D2450E" d="M197.325,118.799c0.62,2.4-2.69,1.85-4.21,1.72c-2.25-0.2-4.09-2.02-6.37-1.83
			c-0.03-0.16,0.01-0.24,0.08-0.34C189.055,117.449,196.305,114.879,197.325,118.799z"/>
		<path fill="#8E1908" d="M190.805,92.089l-0.31,0.68c-1.63-0.76-3.27-1.51-4.95-2.27c-4.24-1.9-8.03-5.07-11.95-7.59
			c-1.48-0.95-3.7-2.33-5.32-2.66c-2.51-0.51-5.25-0.49-7.67-1.35c-2.11-0.76-3.79-1.74-6.06-2.02c-1.71-0.2-3.46-0.14-5.18-0.16
			c-3.95-0.05-8.17-1.39-11.96-2.41c-1.65-0.44-3.28-1.2-5.01-1.39c-2.01-0.22-4.09-0.06-6.11-0.2c-2.47-0.17-3.89-0.96-5.69-2.58
			c-0.4-0.36-0.46-0.77-1.03-0.92c0.11,0,0.22,0,0.33,0l0.06-0.13c1.96,0.95,3.91,1.95,5.95,2.34c3.34,0.63,6.53,0.22,9.95,1.08
			c6.98,1.77,14.16,0.74,21.03,2.34c7.06,1.64,13.26,4.36,19.39,8.04C181.165,85.819,185.425,89.859,190.805,92.089z"/>
		<path fill="#8E1908" d="M173.765,129.539l0.09,1.25c-0.33,0.02-0.66,0.05-0.97,0.09c-2.44,0.31-4.95,2.04-7.38,0.3
			c-2.07-1.48-2.13-5.18-4.11-6.84c-1.63,1.71-4.49,1.23-4.57-1.38c-3.13-0.19-8.24,0.77-9.45-3.08c-1.04-3.3,6.42-5.76,3.2-9.14
			c-0.38-0.39-0.86-0.65-1.43-0.81l0.14-0.42c0.38,0.13,0.77,0.25,1.16,0.35c1.14,0.3,2.46,0.18,3.17,1.28
			c2.07,3.18-4.48,5.44-2.19,8.41c0.94,1.21,4.16,0.77,5.46,0.35c0.96-0.32,1.72-1.27,2.51-1.53c1.03-0.34,2.9,0.36,3.67,1.06
			c0.98,0.88,0.77,1.72,1.12,2.97c0.31,1.09,0.84,1.74,1.55,2.66c1.19,1.53,2.22,3.64,4.31,4.34
			C171.005,129.719,172.425,129.648,173.765,129.539z"/>
		<path fill="#D6D6D6" d="M138.905,670.339c3.1,1.14,18.65-2.55,14,5.3c-2.34,3.93-5.64,8-8.46,11.7
			c-2.56,3.359-5.55,6.59-7.96,10.03c-1.77,2.529-2.07,5.189-4.01,7.479c-5.07,5.97-9.09,12.56-14.12,18.42
			c-5.61,6.521-10.7,11.17-17.68,16.19c-2.23,1.6-3.8,3.89-6.02,5.43c-0.53,0.38-1.28,0.49-1.75,0.96c-0.81,0.8-1.02,1.99-1.9,2.83
			c-1.9,1.81-4.49,3.18-6.62,4.729c-4.64,3.391-8.58,6.87-14.53,8.5c-3.87,1.051-7.96,2.301-11.9,3.24
			c-1.21,0.29-3.52,1.021-4.31,0.99l-0.25-0.5c1.41-3.57,5.36-6.81,7.66-10.17c1.73-2.521,3.7-4.83,5.6-7.28
			c2.68-3.43,4.21-7.229,7.25-10.52c3.33-3.58,6.29-5.92,8.52-10.15c2.07-3.92,5.12-7.72,7.96-11.08c2.76-3.25,5.43-6.33,7.47-10.17
			c1.85-3.49,4.79-6.31,7.18-9.45c2.43-3.189,3.82-6.729,6.49-9.67c2.5-2.76,4.58-5.79,6.7-8.72c2.55-3.51,5.9-6.45,8.14-10.26
			c1.28-2.181,2.83-4.08,4.46-6.021c0.83-0.99,1.81-2.31,3.32-1.77c1.61,0.58,0.95,2.1,1,3.75
			C135.225,666.738,136.065,669.299,138.905,670.339z"/>
		<path fill="#8E1908" d="M149.285,109.509l-0.14,0.42c-3.39-0.96-9.62,1.69-12.65-0.77c-2.53-2.04-4.1-7.96-0.14-9.37
			c-1.68-3.09-5.8-5.19-8.71-6.98c-5.3-3.25-11.34-6.8-15.29-11.42c-0.51-0.59-0.28-1.5-1.09-2.35c-1.11-1.17-1.65-1.06-2.89-1.76
			c-3.1-1.77-5.6-4.43-8.36-6.01c-3.45-1.98-8.26-4.23-0.62-4.88c5.21-0.44,11.67-0.45,16.5,0.99c1.37,0.41,2.72,1.05,4.06,1.71
			l-0.06,0.13c-0.11,0-0.22,0-0.33,0c-1.43-0.05-3.22,0.15-4.67,0.33c-1.79,0.21-3,1.18-5,0.68c-3-0.75-4.95-3.04-8.3-2.68
			c-0.8,0.09-2.6,0.26-2.08,1.38c0.27,0.58,1.26,0.45,1.72,0.75c0.77,0.49,1.17,1.1,1.98,1.61c1.1,0.69,2.25,0.98,3.31,1.62
			c3.4,2.03,6.03,4.8,9.29,6.85c1.28,0.81,1.94,1.42,2.58,2.62c0.63,1.18,0.88,1.19,1.91,2.15c0.69,0.65,1.15,1.51,1.87,2.12
			c0.85,0.71,1.97,1.11,2.93,1.66c1.36,0.77,2.63,1.66,3.95,2.5c2.91,1.86,6.72,2.85,8.34,6.17c0.8,1.64,1.85,2.83,1.17,4.75
			c-0.45,1.25-1.98,2.2-1.85,3.66c0.31,3.39,5.56,3,7.98,3C146.325,108.389,147.785,109.009,149.285,109.509z"/>
		<path fill="#D7C477" d="M143.585,255.229c0.78,1.97-0.11,3.57-1.62,4.88c-0.33,0.29-1.04,0.73-1.77,1.22
			c-1.21-1.62-3.43-2.77-5-3.75c-2.59-1.62-5.22-3.3-7.24-5.65c-1.04-1.21-1.76-2.63-2.97-3.72c-1.08-0.98-2.3-1.82-3.39-2.82
			c-1.88-1.72-3.33-3.87-5.14-5.63c-2.45-2.36-5.13-4.68-7.65-7.08c-2.13-2.02-3.17-4.45-5.2-6.59c-2.42-2.56-5.09-4.86-7.68-7.19
			c-2.13-1.92-4.07-4.19-6.19-6.17c-2.14-2-3.8-4.44-5.92-6.52c-5.18-5.09-9.76-11.26-13.9-17.13c-1.19-1.68-2.46-3.22-3.76-4.72
			c1.34-0.42,2.37-1.5,3.58-2.18c1.37-0.79,2.45-1.27,3.7-2.28c1-0.81,2.01-1.48,3.4-0.83c2.52,1.19,4.51,4.6,6.56,6.41
			c1.22,1.08,2.27,2.21,3.33,3.45c2.95,3.44,5.4,7.42,9.7,9.26c1.57,0.67,1.04,0.55,1.93,2.12c0.86,1.55,2.54,2.93,3.6,4.33
			c4.05,5.29,7.7,10.46,12.47,15.11c2.53,2.46,4.14,5.81,6.47,8.5c2.95,3.44,6.98,6.24,9.69,9.85c1.12,1.48,1.92,3.32,3.01,4.84
			c1.57,2.2,3.36,4.23,5.14,6.25C140.315,250.989,142.675,252.969,143.585,255.229z"/>
		<path fill="#D1D7D7" d="M66.155,184.359c1.3,1.5,2.57,3.04,3.76,4.72c4.14,5.87,8.72,12.04,13.9,17.13
			c2.12,2.08,3.78,4.52,5.92,6.52c2.12,1.98,4.06,4.25,6.19,6.17c2.59,2.33,5.26,4.63,7.68,7.19c2.03,2.14,3.07,4.57,5.2,6.59
			c2.52,2.4,5.2,4.72,7.65,7.08c1.81,1.76,3.26,3.91,5.14,5.63c1.09,1,2.31,1.84,3.39,2.82c1.21,1.09,1.93,2.51,2.97,3.72
			c2.02,2.35,4.65,4.03,7.24,5.65c1.57,0.98,3.79,2.13,5,3.75c0.24,0.3,0.43,0.63,0.58,0.97c0.43,0.98,0.34,1.85-0.23,2.75
			c-0.61,0.99-1.44,2.11-2.13,3.03c-1.15,1.54-3.75,4.05-5.87,3.32c-2.29-0.79-4.77-5.13-6.27-6.96c-2.57-3.12-5.13-6.24-7.69-9.36
			c-6.93-8.42-13.85-16.85-20.77-25.27c-7.56-9.2-15.12-18.4-22.68-27.6c-6.08-7.4-12.17-14.8-18.25-22.2
			c-1.86-2.27-3.73-4.54-5.59-6.81c-0.47-0.57-2.26-1.95-2.42-2.57c-0.33-1.26,1.23-1.2,1.32-1.77c0.04-0.23,0.18-0.37,0.23-0.61
			c0.5-0.17,1.48,0.24,1.8,0.48c0.7,0.52,1.18,1.57,2,2.41c2.39,2.47,4.78,5.01,6.99,7.61
			C62.865,180.688,64.535,182.489,66.155,184.359z"/>
		<path fill="#FFAE00" d="M60.835,492.349c-0.34-2.47-2.33-5.229-3.55-7.229c-1.18-1.931-3.24-5.2-5.4-6.341
			c-2.07-1.09-5.35-1.01-7.68-1.739c-3.53-1.101-6.39-1.431-10.05,0.09c-4.59,1.91-8.89,6.189-9.19,11.029
			c-0.14,2.421-0.88,5.561-0.38,7.78c0.38,1.73,1.76,3.71,2.55,5.46c1.29-3.6,0.64-6.319,3.9-8.68c3.35-2.42,7.34-4.28,11.7-4.67
			c3.69-0.34,7.79-0.21,11.48-0.01c1.46,0.069,3.93,0.06,4.94,1.18c0.89,0.979,0.53,2.27,1.41,3.17L60.835,492.349z M67.895,465.079
			v-0.03c1.79-0.08,2.24-1.28,1.95-2.641l2.26-0.1c0.15,0.67,0.36,1.34,0.46,2.08c0.14,1.16-0.53,3.32-0.02,4.35
			c1.39,2.811,5.27,1.561,7.16,0.4c1.46-0.89,2.75-2.66,4.33-3.34c1.86-0.811,3.3-0.76,5.19-1.08c2.86-0.49,5.39,0.01,8.33,0
			c16.23-0.05,20.88,17.4,18.93,31c-0.35,2.439-1.4,4.89-2.36,7.28c-0.19,0.479-0.38,0.96-0.56,1.43c-1.67,3.1-2.68,6.22-3.55,9.47
			c-0.17,0.65-0.34,1.3-0.5,1.96c-2.62,4.53-2.62,11.53-5.24,16.431c-0.1,0.409-0.2,0.81-0.31,1.189c-0.23,0.771-0.5,1.51-0.97,2.32
			c-1.43,2.51-1.97,3.92-4.82,4.34c-3.75,0.56-8.03,0-11.82,0c-7.66,0-15.31,0-22.97,0c-6.27,0-12.53,0-18.8,0c-2.13,0-4.27,0-6.4,0
			c-0.61,0-1.48,0.16-2.07,0c-1.99-0.53-2.66-3.06-3.17-5.07c-0.46-1.87-1.02-3.67-1.66-5.46c-2.05-5.72-3.98-11.729-6.35-17.34
			c-1.52-3.58-3.33-6.649-4.2-10.49c-0.8-3.569-1.19-7.22-1.66-10.85c-0.07-0.53-0.13-1.05-0.21-1.57
			c-0.48-3.479-0.98-6.979-0.81-10.319c0.04-0.67,0.1-1.33,0.19-1.98c0.62-1.75,1.29-3.55,2.25-5.15
			c0.32-0.539,0.67-1.05,1.07-1.529c5.33-4.99,13.33-6.99,20.8-4.811c0.52,0.141,1.05,0.29,1.58,0.431
			c0.54,0.14,1.08,0.279,1.63,0.409c4.02,0.95,7.3,3.461,11,4.32c3.61,0.83,4.72,0.141,4.65-3.68c-0.01-0.58-0.03-1.141-0.08-1.65
			l1.47-0.06C64.445,465.448,66.145,465.249,67.895,465.079z M71.465,493.009l0.28,0.04c0.88-0.891,0.52-2.18,1.4-3.16
			c1.01-1.13,3.48-1.11,4.95-1.19c3.69-0.189,7.79-0.319,11.47,0.011c4.37,0.399,8.35,2.26,11.7,4.68c3.27,2.36,2.61,5.07,3.9,8.68
			c0.79-1.75,2.17-3.739,2.56-5.46c0.5-2.22-0.24-5.37-0.39-7.779c-0.29-4.841-4.59-9.12-9.19-11.03
			c-3.66-1.521-6.52-1.19-10.04-0.09c-2.34,0.729-5.62,0.649-7.69,1.739c-2.16,1.141-4.22,4.41-5.4,6.33
			C73.795,487.789,71.825,490.539,71.465,493.009z M93.335,536.369c1.1-0.07,2.59-0.471,3.85-0.37c-0.35-1.23-1.7-2.19-3.51-2.971
			c-0.6-0.26-1.25-0.5-1.93-0.729c-0.49-0.19-0.98-0.38-1.49-0.55c-6.36-2.36-11.36-3.36-17.52-4.761
			c-0.56-0.119-1.13-0.239-1.69-0.33c-3.93-0.699-7.81-0.76-12.02,0.051c-0.49,0.069-0.97,0.16-1.46,0.279
			c-0.48,0.11-0.96,0.25-1.45,0.42c-0.56,0.131-1.12,0.271-1.68,0.4c-1.13,0.28-2.28,0.55-3.46,0.79c-0.64,0.26-1.27,0.53-1.9,0.8
			c-2.52,1.08-5.01,2.21-7.56,3.021c-0.69,0.25-1.36,0.51-1.96,0.79c-1.81,0.85-3.03,1.859-2.61,3.13c0.57,0.109,1.1-0.01,1.62-0.29
			v-0.33c1.38,0,2.75,0,4.14,0c0.74,0,1.49,0,2.23,0c3.96-0.33,6.96-0.33,11.2,0.01c0.74,0,1.49,0,2.24,0c3.73,0,7.45,0,11.16-0.01
			c2.81-0.01,5.59,0.07,8.37,0.189c0.69,0.03,1.38,0.07,2.08,0.101c1.91,0.38,3.91,0.38,6.23,0.38c0.58,0.03,1.17,0.06,1.77,0.08
			C89.765,536.519,91.605,536.479,93.335,536.369z"/>
		<rect x="35.015" y="542.769" fill="#FFAE00" width="64.63" height="13.12"/>
		<path fill="#FFAE00" d="M69.895,440.858c-1.75-0.16-3.45-0.37-5.28-0.25c-0.17,2.66-0.32,8.021,3.95,6.96
			c2.6-0.66,5.35-6.489,1.33-6.68V440.858z M80.895,454.028c0,1.57,0.27,3.46,0,5.021c-0.39,2.25,0.08,1.64-2.01,2.33
			c-1.89,0.63-5.26,0.56-6.92-0.63c-0.04,0.54,0.03,1.05,0.14,1.56l-2.26,0.1c-0.35-1.699-1.84-3.67-3.28-4.029
			c-4.27-1.07-4.12,4.29-3.95,6.96l-1.47,0.06c-0.28-2.859-1.34-4.479-4.92-3.34c-0.8,0.26-3.28,1.68-4.35,1.01
			c-1.42-0.899-0.65-4.439-0.65-6.06c0-3.521-1.21-8.87,2.93-10.22c2.57-0.841,7.35-0.021,8.95,1.899c-1.96-2.38-3.55-6.09-3.54-9.3
			c0-4.64,4.17-3.12,7.66-3.34c2.57-0.16,6.85-0.84,7.34,2.67c0.25,1.86-2.11,6.85-2.97,8.6c2.66,0.69,5.34-2.689,8.05-1.01
			C81.765,447.619,80.895,451.698,80.895,454.028z M76.815,458.019c-0.1-2.42,2.34-10.189-2.94-7.62c-1.16,0.58-6.24,5.55-2.97,6.24
			l-0.02,0.08C72.805,457.849,74.905,457.198,76.815,458.019z M61.205,456.969c3.29-0.68-1.8-5.66-2.97-6.23
			c-5.27-2.58-2.84,5.2-2.94,7.61c1.92-0.82,4.01-0.17,5.93-1.3L61.205,456.969z"/>
	</g>
	<g>
		<path fill="none" stroke="#000000" d="M276.395,247.889c-0.24-0.19-0.46-0.39-0.63-0.6c-4.02-4.63,5.34-15.59,6.51-20.02
			c1.07-4.11-0.63-7.27-1.35-11.39c-0.47-2.69-0.47-6.67-2.83-8.07c-0.64-0.39-1.46-0.58-2.51-0.5c-0.4-3.44-0.16-7.47-1.19-10.79
			c-0.93-2.99-2.62-6.19-3.48-9.63c-0.17-0.68-0.34-1.38-0.53-2.09c-1.7-6.71-4.18-14.63-10.47-17.78
			c-2.09-1.05-4.81-0.96-6.63-2.01c-2.27-1.31-1.12-2.44-2.44-3.66c-1.36-1.25-3.88-0.91-5.45-1.57c-2.01-0.85-3.45-1.89-5.51-2.39
			c-3.29-0.78-7.21,0.88-10.47,0.02c-4.32-1.13-6.2-6.26-10.45-7.47c-1.29,3.15-2.88,12.22-7.81,8.31
			c-2.64-2.1-3.02-8.06-4.33-11.27c-2.29-0.9-4.25-0.28-5.99,0.31c-2.71,0.9-4.89,1.72-6.95-3.4c-1.02-2.53-0.24-6.23-4.35-4.81
			c-2.99,1.03-3.72,7.42-7.03,2.08c-1.46-2.36-0.04-5.51-1.49-7.78c-1.45-2.3-4.48-2.78-7.16-2.59c-0.33,0.02-0.66,0.05-0.97,0.09
			c-2.44,0.31-4.95,2.04-7.38,0.3c-2.07-1.48-2.13-5.18-4.11-6.84c-1.63,1.71-4.49,1.23-4.57-1.38c-3.13-0.19-8.24,0.77-9.45-3.08
			c-1.04-3.3,6.42-5.76,3.2-9.14c-0.38-0.39-0.86-0.65-1.43-0.81c-3.39-0.96-9.62,1.69-12.65-0.77c-2.53-2.04-4.1-7.96-0.14-9.37
			c-1.68-3.09-5.8-5.19-8.71-6.98c-5.3-3.25-11.34-6.8-15.29-11.42c-0.51-0.59-0.28-1.5-1.09-2.35c-1.11-1.17-1.65-1.06-2.89-1.76
			c-3.1-1.77-5.6-4.43-8.36-6.01c-3.45-1.98-8.26-4.23-0.62-4.88c5.21-0.44,11.67-0.45,16.5,0.99c1.37,0.41,2.72,1.05,4.06,1.71
			c1.96,0.95,3.91,1.95,5.95,2.34c3.34,0.63,6.53,0.22,9.95,1.08c6.98,1.77,14.16,0.74,21.03,2.34c7.06,1.64,13.26,4.36,19.39,8.04
			c4.89,2.93,9.15,6.97,14.53,9.2c0.36,0.15,0.72,0.29,1.09,0.42c3.41,1.22,7.17,1.31,10.43,2.88c2.77,1.34,5.44,3.33,8.46,4.62
			c2.75,1.19,5.6,2,8.39,3.13c3.48,1.41,6.05,4,9.57,5.39c4.46,1.75,10.43,2.08,15.13,2.36c4.77,0.28,10.84-0.26,15.42,0.95
			c4.47,1.17,9.92,7.75,13.66,10.69c4.53,3.54,6.84,9.36,10.83,13.59c1.25,1.33,2.34,2.46,3.46,3.47c1.86,1.67,3.8,2.97,6.66,4.15
			c5.5,2.26,6.19,2.03,10.21-2.37c2.96-3.23,6.29-6.61,9.28-10.38c2.32-2.92,5.57-6.35,9.02-8.22c0.65-0.36,1.311-0.66,1.98-0.89
			c9.46-3.29,17.58-6.33,26.39-11.1c4.44-2.41,9.23-1.91,13.601-3.61c0.6-0.24,1.63-1.43,2.47-1.79c0.91-0.39,2.53-0.13,3.54-0.48
			c2.69-0.91,3.83-2.87,6.11-4.39c5.42-3.59,11.76-5.74,17.8-8.4c7.95-3.49,15.91-5.53,24.03-7.56c1.529-0.38,3.069-0.77,4.609-1.16
			c10.24-2.61,21.76-4.66,32.7-7.12c7.01-1.58,13.58-4.6,20.67-4.3c1.48,5.19-4.86,4.91-7.33,7.52c-2.25,2.37-2.96,6.91-5.09,9.54
			c-2.04,2.51-4.64,5.28-7.5,6.37c-2.87,1.09-5.92,2.01-8.05,4.87c-2.46,3.3-0.72,7.59-4.311,9.76c-3.64,2.18-8.76-0.85-12.149,0.85
			c-0.94,0.47-1.431,1.1-1.66,1.83c-0.55,1.74,0.38,4.03,0.229,6.05c-0.05,0.73-0.239,1.41-0.689,2.03
			c-3.46,4.72-7.32-1.52-10.311-0.96c-0.06,1.12,0.11,2.8,0.19,4.54c0.14,2.56,0.07,5.24-1.24,6.42
			c-3.22,2.89-8.29-1.83-11.439-2.35c-0.74,1.24-1.66,3.82-1.601,5.42c0.09,2,2.271,4.39,2.04,6.02c-0.72,5.06-9.649,0.48-12.88-0.1
			c-1.59-0.29-5.17-1.96-6.55-0.43c-1.3,1.44,1,4.89-0.66,6.43c-4.11,3.8-11.979-1.18-15.29-3.34c-0.42,0.62-0.62,1.18-0.66,1.71
			c-0.229,2.75,3.78,4.55,2.95,8.16c-3.5,0.23-6.2,0.05-9.36-1.37c0.33,8.03-4.56,6.88-10.06,5.53c-5.46-1.33-8.99-0.56-13.01,2.18
			c-0.5,0.33-1,0.7-1.521,1.1c-1.88,1.46-3.729,1.99-5.22,3.63c-2.1,2.32-1.1,4.14-4.25,5.54c-1.59,0.7-4.8-0.25-6.15,1.3
			c-1.76,2.01,0.29,5.09-2.79,6.29c1.4,1.46,3.74,6.05,2.48,8.4c-0.68,1.25-1.86,1.27-2.771,1.96c-0.3,0.24-0.569,0.54-0.779,1
			c-0.73,1.57,0.39,4.16-0.09,5.88c-1.12,4.01-4.36,4.9-4.92,9.16c-0.391,2.97-0.61,6.47-4.91,7.05
			c-0.021,0.26-0.03,0.52-0.051,0.79c-0.47,6.83-1.279,15.35,0.87,21.24c0.95,2.62,6.7,21.54,1.7,20.82
			c-0.92-2.59-1.229-6.87-2.08-8.49c-0.59,3.32-2.01,5.41-2.09,8.99c-0.72,0.24-2.12,0.24-2.84,0c-0.37-5.11,0.21-9.03-5.99-8.33
			c-0.52,1.73-0.27,3.9-2,4.34c0.101-5.12-0.229-7.6,1.38-11.96c1.221-3.27,3.71-6.66,2.94-10.38c-2.09-1.01-1.87-8.84-2.311-11.19
			c-0.54-2.82-0.97-4.39-1.93-5.38c-0.97-1-2.45-1.42-5.1-1.94c0,0.14-0.011,0.29-0.011,0.43c-0.279,7.39-4.47,13.99-3.67,21.1
			c0.521,4.62,3.641,7.31,3.62,11.91c-0.01,2.48-0.77,9.98-3.93,9.4c-0.12-1.58-0.04-3.25-0.16-4.83c-1.13-0.72-1.54-2.17-2.33-3.44
			c0.3,3.34-1.1,8.54-5.02,8.27c-0.11-1.72-0.02-3.5-0.43-5.06c-0.45-1.66-2.12-1.93-1.75-4.35c-0.58,2.41-2.55,4.69-2.46,7.42
			c-1.22-0.12-1.65-0.9-1.56-2.03c0.01-0.28,0.05-0.58,0.13-0.9"/>
		<path fill="none" stroke="#000000" d="M293.065,208.889c-0.86-2.91-3.979-4.01-6.67-4c-3.38,0.01-5.73-0.23-8.14,2.66"/>
		<path fill="none" stroke="#000000" d="M299.225,210.389c0-1.23-0.36-3.1,0.45-4.04c0.97-1.12,4.1-1.23,5.42-0.89
			c1.28,0.32,3,1.25,3.87,2.05c1.199,1.1,0.91,1.78,1.43,3.21"/>
		<path fill="none" stroke="#000000" d="M292.525,195.909c-0.14-0.06-0.28-0.12-0.43-0.18"/>
		<path fill="none" stroke="#000000" d="M292.525,195.909c-3.84,0.27-6.74-2.63-9.95-5.8c-0.49-0.52-0.93-1.07-1.33-1.65
			c-4-5.8-3.89-14.48-1.81-21.84c0.2-0.74,0.43-1.46,0.68-2.17c1.89-3.03,4.58-5.04,7.72-6.38c0.63-0.26,1.27-0.5,1.92-0.7
			c6.14-0.98,13.14-0.98,18.67,2.28c0.51,0.46,0.979,0.97,1.41,1.52c6.5,8.19,4.56,24.72-2.94,32.22c-0.75,1-1.69,1.75-2.76,2.27
			c-0.53,0.26-1.101,0.46-1.69,0.61C299.035,196.389,296.125,197.309,292.525,195.909z"/>
		<path fill="none" stroke="#000000" d="M292.935,195.869c-0.14,0.02-0.271,0.03-0.41,0.04"/>
		<path fill="none" stroke="#000000" d="M290.395,190.219c-0.24-0.12-0.42-0.29-0.56-0.5c-0.61-0.92-0.381-2.54-0.891-3.5
			c-0.74-1.4-2.19-2.57-3.05-3.83c-1.37-1.98-2.58-3.14-3.13-5.5c-0.36-1.56-0.11-2.62-0.04-4.33c0.09-2.03,1.2-3.57,2.37-5.14
			c0.47-0.63,1.15-0.96,1.68-1.49c0.59-0.59,0.77-1.18,1.43-1.58c0.98-0.59,2.59-0.25,3.68-0.46c1.77-0.34,3.55-0.62,5.33-0.85
			c2.04-0.26,3.31,0.66,4.87,1.57c1.689,1,2.35,3.57,3.01,5.25c0.53,1.35,1.819,2.53,2.34,3.98c0.63,1.73,0.1,3.97-0.5,5.53
			c-0.71,1.85-0.71,3.71-0.71,5.69c0.01,4.62-3.93,6.96-8.26,7.17c-2.13,0.1-3.5-0.19-5.44-0.81c-0.55-0.17-1.36-0.03-1.84-0.32
			c-0.32-0.19-0.75-0.9-1.021-1.25c-0.029-0.05-0.069-0.1-0.1-0.13"/>
		<path fill="none" stroke="#000000" d="M270.725,184.719c-0.18-0.78,0.49-1.2,0.8-1.83c0.31-0.64,0.41-1.46,0.54-2.17
			c0.24-1.34,1.06-2.3,0.49-3.83c-0.39-1.06-1.67-1.66-2.18-2.65c-0.56-1.1-0.58-2.84-1.06-4.07c-0.72-1.84-1.42-3.74-2.82-5.06
			c-0.9-0.85-1.45-1.3-1.89-2.4c-0.43-1.04-0.47-1.83-1.26-2.62c-1.04-1.03-2.59-2.18-4.08-2.75c-2.55-0.99-4.99,0.66-7.03-1.48
			c-0.73-0.75-1.37-1.76-2.02-2.61c-0.31-0.4-0.84-1.58-1.18-1.83c-0.68-0.49-2.88-0.88-3.77-1.08c-2.46-0.57-4.15,1.12-6.46,1.4
			c-1.86,0.23-2.72-0.07-3.57-1.69c-1.18-2.23-1.55-4.84-2.52-7.15c-0.33-0.8-0.19-1.31-1.49-1.01c-1.07,0.24-1.46,1.12-1.63,2.17
			c-0.2,1.22,0.56,2.23,0.47,3.33c-0.05,0.78-1.2,2.21-2.02,2.55c-1.07,0.45-1.25-0.41-2.02-1.41c-0.7-0.91-1.19-1.75-1.67-2.79
			c-0.22-0.46-0.41-1.5-0.62-1.82c-0.69-1.06-3.64-1.43-4.75-0.71c-0.85,0.55-0.72,2.02-1.45,2.59c-1.11,0.88-3.2,0.48-4.14-0.43
			c-1.91-1.86-1.25-4.71-4.65-4.48c-1.98,0.12-3.17,2.14-4.52,3.21c-1.1,0.86-2.44,2.09-3.6,2.53c-0.08,0.03-0.15,0.06-0.23,0.08
			c-2.19,0.63-3.18-1.87-3.17-3.68c0.01-1.06,0.08-1.85-0.46-2.78c-0.28-0.48-1.23-2.19-1.6-2.45c-0.77-0.55-3.49-0.55-4.4-0.37
			c-1.13,0.22-2.5,0.51-3.71,0.79c-1.52,0.36-3.02,0.85-3.53-0.91c-0.53-1.83,0.06-3.88-1.38-5.4c-0.48-0.5-1.8-1.36-2.44-1.76
			c-1.21-0.76-2.15-0.76-3.51-0.76c-0.66,0-1.53,0.09-2.43,0.15c-1.34,0.11-2.76,0.18-3.72-0.14c-2.09-0.7-3.12-2.81-4.31-4.34
			c-0.71-0.92-1.24-1.57-1.55-2.66c-0.35-1.25-0.14-2.09-1.12-2.97c-0.77-0.7-2.64-1.4-3.67-1.06c-0.79,0.26-1.55,1.21-2.51,1.53
			c-1.3,0.42-4.52,0.86-5.46-0.35c-2.29-2.97,4.26-5.23,2.19-8.41c-0.71-1.1-2.03-0.98-3.17-1.28c-0.39-0.1-0.78-0.22-1.16-0.35
			c-1.5-0.5-2.96-1.12-4.59-1.12c-2.42,0-7.67,0.39-7.98-3c-0.13-1.46,1.4-2.41,1.85-3.66c0.68-1.92-0.37-3.11-1.17-4.75
			c-1.62-3.32-5.43-4.31-8.34-6.17c-1.32-0.84-2.59-1.73-3.95-2.5c-0.96-0.55-2.08-0.95-2.93-1.66c-0.72-0.61-1.18-1.47-1.87-2.12
			c-1.03-0.96-1.28-0.97-1.91-2.15c-0.64-1.2-1.3-1.81-2.58-2.62c-3.26-2.05-5.89-4.82-9.29-6.85c-1.06-0.64-2.21-0.93-3.31-1.62
			c-0.81-0.51-1.21-1.12-1.98-1.61c-0.46-0.3-1.45-0.17-1.72-0.75c-0.52-1.12,1.28-1.29,2.08-1.38c3.35-0.36,5.3,1.93,8.3,2.68
			c2,0.5,3.21-0.47,5-0.68c1.45-0.18,3.24-0.38,4.67-0.33c0.11,0,0.22,0,0.33,0"/>
		<path fill="none" stroke="#000000" d="M119.565,69.219c0.57,0.15,0.63,0.56,1.03,0.92c1.8,1.62,3.22,2.41,5.69,2.58
			c2.02,0.14,4.1-0.02,6.11,0.2c1.73,0.19,3.36,0.95,5.01,1.39c3.79,1.02,8.01,2.36,11.96,2.41c1.72,0.02,3.47-0.04,5.18,0.16
			c2.27,0.28,3.95,1.26,6.06,2.02c2.42,0.86,5.16,0.84,7.67,1.35c1.62,0.33,3.84,1.71,5.32,2.66c3.92,2.52,7.71,5.69,11.95,7.59
			c1.68,0.76,3.32,1.51,4.95,2.27c1.95,0.9,3.89,1.82,5.9,2.76c2.94,1.38,6.83,4.4,10.15,4.38c0.25,2.18,5.92,3.52,7.52,4.36
			c2.57,1.36,4.4,4.39,7.33,4.92c2.19,0.4,3.62,1.09,5.37,2.33c0.72,0.5,1.26,1.01,2.14,1.24c1.9,0.49,4.03,0.09,5.96,0.29
			c1.25,0.13,2.11,0.58,3.47,0.8c1.58,0.26,3.15,0.03,4.73,0.21c2.04,0.22,3.93,1,5.99,1.33c2.73,0.43,5.01,0.32,7.8,0.16
			c1.9-0.11,4.68,0.48,5.71,1.84c0.71,0.95,1.33,2.48,2.38,3.26c0.75,0.56,1.64,0.79,2.46,1.4c0.75,0.57,1.42,1.11,2.14,1.87
			c1.9,2,3.59,3.89,5.67,5.81c0.6,0.56,1.02,1.69,1.64,2.33c0.54,0.56,1.5,0.89,2.16,1.54c1.01,0.98,1.03,2.12,1.79,3.29
			c0.38,0.59,0.72,0.87,1.12,1.07c0.4,0.21,0.85,0.34,1.48,0.62c0.62,0.43,1.21,0.88,1.77,1.36c0.94,0.79,1.81,1.63,2.66,2.49
			c0.46,0.45,0.9,0.91,1.35,1.36c3.71,8.6,13.71,8.6,19.229,1.6c0.29-0.41,0.54-0.83,0.721-1.24c0.79-1.77-0.07-4.36,1.92-5.43
			c1.05-0.57,2.66-0.53,3.59-1.36c0.97-0.87,1.53-2.72,0.39-3.8c0.21-0.68,0.87-0.56,1.391-0.84c0.689-0.36,1.06-0.92,1.66-1.42
			c1.3-1.08,1.689-1.36,2.479-2.91c0.39-0.75,1.18-1.61,1.54-2.5c0.35-0.89,0.09-1.91,0.48-2.81c1.47-0.2,2.01-1.05,3.68-0.74
			c1.939,0.37,3.93,0.86,5.97,0.39c2.91-0.67,5.351-3.09,7.851-4.51c1.739-0.99,5.71-1.62,7.609-1.1c0.5,2.2,3.51,1.53,4.53,0.52
			c0.49-0.49,1.1-0.96,1-1.72c-0.12-0.96-0.58-0.33-1-0.89c-2.7-3.61,4.7-3.31,6.64-3.31c2.36,0,4.59,0.07,6.84-0.67
			c0.62-0.21,1.11-0.82,1.561-0.97c0.84-0.27,2.07-0.01,2.95-0.06c2.37-0.14,3.649-0.35,5.819-1.43c1.051-0.53,2.13-0.99,2.99-1.69
			c0.53-0.44,0.811-1.21,1.67-1.35c1.061-0.18,2.22,0.43,3.28,0.51c1.75,0.13,3.75,0,5.27-0.92c1.82-1.1,1.12-1.56,1.471-3.25
			c0.38-1.82,1.699-2.11,3.14-2.69c1.47-0.59,2.04-0.55,3.71,0.03c0.98,0.33,2.03,0.71,3.12,0.95c2.85,0.62,5.05-0.23,3.729-3.45
			c-0.489-1.17-1.26-1.87-0.649-3.18c0.43-0.91,1.49-1.63,2.27-2.18c0.971-0.69,2.91-2.21,4.061-2.32c0.51-0.05,2.87,0.21,3.26,0.54
			c0.73,0.6,0.25,1.45-0.37,2.1c-0.31,0.33-0.74,0.19-1.05,0.56c-0.36,0.41-0.521,1.29-0.54,1.82c-0.11,2.2,1.86,2.12,2.37,3.97
			c1.21,0,2.07-0.88,3.1-1.48c0.99-0.57,1.561-0.85,2.271-1.66c0.64-0.73,0.979-1.39,1.85-1.9c1.01-0.58,2.67-0.87,3.93-0.58
			c1.211,0.27,2.07,1.06,1.681,2.63c-0.53,2.18-2.87,3.1-4.891,3.55c-2.85,0.64-3.76,3.08-6.14,4.04c-2.6,1.04-5.37,2.31-7.43,4.21
			c-1.11,1.03-2.01,1.45-3.29,2.25c-0.87,0.54-1.141,0.96-2.28,1.13c-1.729,0.24-1.92,0.13-2.97,1.66
			c-0.66,0.97-1.41,1.69-2.28,2.38c-0.64,0.5-1.5,0.61-2.05,1.03c-0.5,0.37-0.69,0.96-1.07,1.45c-1.33,1.72-2.08,3.02-1.939,5.28
			c1.97,0.19,4.04-0.75,5.609-1.9c0.92-0.67,0.92-1.49,1.681-2.09c0.409-0.32,1.46-0.44,2.01-0.8c0.68-0.45,1.13-1.02,1.95-1.34
			c0.89,1.82,4.359,0.99,5.609-0.13c0.971-0.87,1.34-2.27,1.57-3.52c0.14-0.7-0.04-1.82,0.54-2.25c0.53-0.39,1.86-0.19,2.51-0.28
			c1.101-0.15,1.68-0.27,2.55-0.92c1.13-0.84,2.16-2.88,2.311-4.22c0.069,0,0.13-0.01,0.2-0.01c1.83-0.12,3.279-0.23,4.939-0.68
			c3.891-1.05,8-2.73,10.5-6.12c0.66-0.9,0.73-1.45,1.67-1.71c0.521-0.15,1.24,0.03,1.78-0.01c2.13-0.15,2.34-1.33,3.65-2.8
			c2.05-2.32,7.42-5.98,10.84-4.5c-0.641,1.92-2.58,3.2-4.15,4.35c-1.689,1.24-3.28,2.15-4.76,3.83c-0.69,0.78-1.71,1.33-2.29,2.2
			c-0.66,0.97-0.51,1.96-0.69,3.08c-0.21,1.36-0.63,2.67-1.8,3.49c-2.939,2.07-6.99,0.45-9.05,4.23c-1.271,2.31-1.28,4.9-1.39,7.43
			c-2.32,0.13-2.36-0.73-3.811-2.1c-2.31-2.16-5.6-1.54-6.51,1.46c-0.07,0.22-0.13,0.44-0.18,0.65c-0.62,2.53-0.311,4.94-0.32,7.51
			c0,1.8-0.4,3.8-2.2,4.17c-2.27,0.48-4.33-1.37-5.47-3.16c-0.561-0.89-0.63-1.68-1.86-2.06c-1.01-0.3-1.66-0.03-2.54,0.43
			c-2.8,1.45-2.5,4.14-2.27,7.05c0.13,1.6,0.689,3.18,1.22,4.67c0.23,0.67,0.78,1.6,0.6,2.35c-1.359,0.26-3.859-0.43-5.17-0.87
			c-1.84-0.63-2.979-2.28-4.979-2.24c-0.87,0.02-1.18,0.23-1.95,0.46c-1.62,0.48-3.86,0.54-5.05,1.74c-0.59,0.6-1.05,1.5-1.62,2.13
			c-0.14,0.15-0.32,0.35-0.49,0.58c-0.25,0.34-0.49,0.72-0.56,1.04c0.01-0.14-0.021-0.31,0.01-0.45"/>
		<path fill="none" stroke="#000000" d="M134.395,86.059c0.13,0.09,0.31,0.15,0.52,0.21c0.93,0.23,2.52,0.21,3.29,0.29
			c1.1,0.12,2.43,0.05,3.36-0.34c1-0.42,1.15-0.34,1.16-1.66c0.01-1.22-0.13-1.61-1.35-2.13c-2.41-1.02-4.54-1.48-7-0.04
			c-0.94,0.55-1.77,1.53-1.48,2.83c0.28,1.25,1.03,0.97,1.95,1.27c0.07,0.01,0.14,0.04,0.22,0.07"/>
		<path fill="none" stroke="#000000" d="M183.065,116.559c1.19,0.15,3.26-0.26,3.88-1.34c0.67-1.17,0.48-3.01-0.68-3.5
			c-3.99-1.71-3.7,2.38-3.7,5"/>
		<path fill="none" stroke="#000000" d="M186.825,118.349c0.02-0.04,0.05-0.08,0.07-0.13"/>
		<path fill="none" stroke="#000000" d="M186.825,118.349c2.23-0.9,9.48-3.47,10.5,0.45c0.62,2.4-2.69,1.85-4.21,1.72
			c-2.25-0.2-4.09-2.02-6.37-1.83C186.715,118.529,186.755,118.449,186.825,118.349z"/>
		<path fill="none" stroke="#000000" d="M186.725,118.389c0.03-0.01,0.07-0.03,0.1-0.04"/>
		<path fill="none" stroke="#000000" d="M170.725,107.719c-0.82-1.38-0.61-6.56,2.35-4.89c0.89,0.51,1.19,2.62,0.58,3.28
			c-0.29,0.32-1.2,0.3-1.59,0.57c-0.49,0.32-0.59,0.89-1.17,1.23c-0.06-0.05-0.12-0.11-0.18-0.18c-0.13-0.15-0.26-0.33-0.32-0.51"/>
		<path fill="none" stroke="#000000" d="M222.405,130.708c0.06,0,0.1,0,0.16,0.01"/>
		<path fill="none" stroke="#000000" d="M222.405,130.708c-0.01,0.04,0,0.09,0.01,0.13c0.58-0.41,1.37-1.21,1.7-1.83
			c0.24-0.44,0.23-1.3,0.44-1.63c0.6-0.94,2.17-0.89,3.28-0.95c0.91-0.05,2.59-0.37,3.4-0.05c0.94,0.37,1.32,1.72,1.53,2.64
			c0.21,0.91,0.22,2.1-0.71,2.67c-1.3,0.8-2.08-0.37-3.16-0.77c-1.28-0.46-2.16,0.72-3.34,0.94c-1.19,0.22-2.59,0.25-3.8,0.17
			C221.615,131.398,221.715,130.699,222.405,130.708z"/>
		<path fill="none" stroke="#000000" d="M222.395,130.389c0.01,0.11-0.01,0.21,0.01,0.32"/>
		<path fill="none" stroke="#000000" d="M242.395,136.059c0.18-0.32,0.35-0.58,0.54-0.79c0.47-0.56,1.04-0.77,1.96-0.89
			c1.26-0.15,2.96-0.53,4.17-0.5c1.08,0.03,3.03,0.86,3.96,1.37c0.93,0.52,1.28,1.84,2.17,2.33c0.69,0.37,1.66-0.1,2.38,0.42
			c0.83,0.61,0.52,1.67,0.82,2.51c0.71,2.05,2.86,1.81,4.35,2.76c2.39,1.52,3.71,7.03-0.18,4.78c-0.89-0.51-1.68-1.27-2.55-1.83
			c-1.32-0.88-2.84-0.71-4.24-1.45c-1.5-0.8-1.39-1.86-2.47-2.98c-0.86-0.88-1.66-1.14-2.91-1.23c-2.47-0.19-4.69,0.3-6.55-1.84
			c-0.89-1.01-0.78-2.02-0.78-3.33"/>
		<path fill="none" stroke="#000000" d="M328.395,151.389c-0.11,0.09-0.23,0.14-0.36,0.17c-0.59,0.13-1.34-0.29-1.64-0.84
			c-0.55-1,0.13-2.14,0.69-2.95c1.8-2.56,4.239-4.49,3.5-8.08c-0.421-2-1.83-3.4-2.061-5.51c-0.25-2.18-0.16-3.8,1.17-5.61
			c1.181-1.61,5.8-4.05,5.87-0.68c0.061,2.94-2.4,3.35-3,5.5c-0.41,1.43,0.43,3.2,0.8,4.51c0.351,1.27,0.4,2.33,1.53,3.03
			c1.5,0.94,0.67,0.03,1.45-0.45c0.729-0.45,1.6-0.51,2.67-0.42c2.03,0.15,3.97,0.89,6.02,1.02c0.16,1.23,0.11,2.97-0.92,3.74
			c-0.79,0.59-2.739,1-3.72,1.36c-1.13,0.43-2.28,0.72-3.46,1c-0.95,0.23-1.69,0.36-2.54,0.88c-0.83,0.49-1.46,1.36-2.3,1.8
			c-0.92,0.49-2.03,0.4-3.01,0.55c0.1,0.79-0.04,1.56-1.021,1.31"/>
		<path fill="none" stroke="#000000" d="M348.895,136.059c-0.09-0.07-0.17-0.16-0.24-0.27c-1-1.46-0.62-6.01-0.43-7.54
			c0.21-1.74,0.31-2.13-1.65-2.56c0.391-2.32,9.19-3.78,10.471-2.17c0.979,1.23-1.181,2.42-1.45,3.74
			c-0.25,1.18,0.45,1.26,0.899,2.17c0.58,1.2,0.15,2.21-0.319,3.3c-0.84,1.95-1.19,2.66-1.28,4.98c-0.07,1.97-0.73,4.38,1.33,5.39
			c1.8,0.88,6.57-0.17,7.34,1.78c0.92,2.33-1.16,3.86-3.18,4.14c-2.95,0.41-6.46-1.67-9.21-0.48c-0.311-0.57-0.96-0.98-1.28-1.51
			c-0.8-1.35-0.43-2.95-0.49-4.48c-0.069-1.87,0.11-4.98-1.18-6.49"/>
		<path fill="none" stroke="#000000" d="M359.065,134.389c-0.01-0.14,0-0.28,0.01-0.41c0.15-3.77,4.351-4.77,7.49-5.09
			c1.061-0.11,2.17-0.09,3.11-0.65c0.63-0.37,2.54-1.54,2.939-2.13c0.721-1.06-0.04-1.43,1.771-1.69c0.649-0.09,2.51-0.32,3.02,0.17
			c0.54,0.51,0.29,3.31,0.16,3.99c-0.1,0.6-0.51,1.3-1.03,1.77c-1.649,1.46-4.659,0.77-6.63,1.4c-2.17,0.69-3.88,2.49-6.16,3.13
			c-0.979,0.28-4.52,1.02-4.52-0.9c0-0.03,0-0.06,0-0.09"/>
		<path fill="none" stroke="#000000" d="M350.895,136.559c-0.69-1.84-0.85-3.86-0.67-5.83c0.09-0.94,1.24-5.49,2.34-3.01
			c0.23,0.53-0.04,1.54,0.03,2.13c0.12,1.04,0.3,1.95,0.3,3.05c0,1.59-0.39,2.36-1.67,3.32"/>
		<path fill="none" stroke="#000000" d="M332.585,143.398c-0.011,0-0.011-0.01-0.021-0.01"/>
		<path fill="none" stroke="#000000" d="M332.585,143.398c-1.021,1.36-2.431,3.78-2.5,5.46c1.909,0.12,3.21-0.41,3.77-2.31
			c0.15-0.52,0.45-1.61,0.21-2.16C333.735,143.659,333.325,143.779,332.585,143.398z"/>
		<path fill="none" stroke="#000000" d="M332.725,143.219c-0.04,0.06-0.09,0.12-0.14,0.18"/>
		<path fill="none" stroke="#000000" d="M430.225,113.059c0.01-0.12,0.01-0.24,0-0.35c0-0.1-0.01-0.2-0.021-0.3
			c-0.189,0.02-0.449-0.08-0.63-0.05c0.79-1.24,1.98-3.04,3.49-3.48c0.73-0.21,1.73,0.08,2.5,0.01c1.12-0.1,1.51-0.21,2.51-0.72
			c0.74-0.38,1.91-0.44,2.521-0.9c0.979-0.73,0.79-2.12,0.8-3.23c0.01-1.37,0.29-1.5,0.89-2.6c0.42-0.79,1.49-2.53,1.471-3.36
			c1.55,0.06,3.529-1.81,4.649-2.66c1.36-1.04,2.971-1.82,3.87-3.16c0.51-0.76,1.37-2.16,1.55-3.01c0.221-1.04-0.029-1.21-0.81-2.07
			c-1.45-1.57-2-1.75-4.12-1.5c-3.07,0.37-6.32,2.14-8.47,4.21c-1.271,1.22-2.391,2.69-4.011,3.41c-0.64,0.29-1.31,0.48-1.89,1.01
			c-1.09,0.98-1.14,1.9-2.479,2.81c-2.03,1.39-4.011,2.69-5.94,4.13c-2.09,1.55-5.15,1.41-7.36,2.39
			c-0.319,0.14-0.609,0.31-0.89,0.5c-1.17,0.83-2.15,2.04-3.34,2.95c-1.17,0.9-3.021,1.49-4.45,2.13c-1.05,0.47-1.06,0.35-1.62,1.36
			c-0.56,1.02-0.689,2.06-1.18,3.02c-0.86,1.68-2.16,0.81-3.47,0.18c-0.631-0.3-1.36,0.12-1.08-1.03
			c0.109-0.46,0.439-0.64,0.84-0.86c1.149-0.65,1.67-0.59,2.689-1.64c1.391-1.43,2.66-2.21,4.33-3.14
			c0.98-0.56,2.19-1.04,3.301-1.69c0.819-0.49,1.92-0.68,2.649-1.18c1.15-0.78,2.26-1.86,3.41-2.71c1.45-1.07,2.69-2.02,4.43-2.65
			c2.24-0.81,3.21-1.49,3.521-4c0.069-0.53,0.5-1.81,0.189-2.33c-0.35-0.59-2.05-0.84-2.71-0.99c-0.08-0.02-0.17-0.04-0.26-0.05
			c-3.2-0.71-7.13-0.5-8.78,2.69c-2.08,0.52-1.029-5.19-0.649-6.18c0.52-1.33,2.189-2.22,2.66-3.47c0.029-0.05,0.04-0.1,0.06-0.16"
			/>
		<path fill="none" stroke="#000000" d="M430.065,118.719c-1.62,0-3.06,0.12-4.47-0.58c-0.771-0.38-1.19-0.83-2.03-1.08
			c-1.06-0.31-2.22-0.67-3.34-0.67c-1.26-0.01-1.74,0.44-1.91,1.15c-0.15,0.59-0.09,1.35-0.09,2.21c0,0.86-0.14,1.91,0.13,2.72
			c0.21,0.67,0.68,1.21,0.87,1.92"/>
		<path fill="none" stroke="#000000" d="M321.565,186.559c-1.05,0.09-0.939-1.09-0.51-1.68c0.689-0.93,1.32-0.59,1.51-1.95
			c0.08-0.61,0.18-1.9-0.16-2.39c-0.63-0.93-1.79-0.39-2.64-0.65c-2.05-0.61-1.55-5.55-0.7-7.14c0.53-1,1.41-1.43,2.16-2.33
			c0.89-1.08,1.12-2.1,2.5-2.36c1.77-0.34,3.72,0.13,5.5-0.17c2.41-0.4,2.88-2.01,2.63-4.2c-0.26-2.32-0.34-5.9,2.24-6.84
			c2.399-0.88,3.28,2.17,5.51,2.08c0.62-0.03,1.58-0.14,2.13-0.51c0.08-0.06,0.15-0.11,0.21-0.18c0.87-0.95,0.641-2.74,1.88-3.54
			c1-0.65,2.9-0.36,4.08-0.44c1.391-0.09,2.811-0.04,4.21-0.04c2.45,0,5.05,0.42,7.48,0.17c0.88-0.09,1.5-0.1,2.01-0.92
			c0.22-0.36,0.13-0.61,0.29-0.96c0.23-0.51,0.56-0.88,0.87-1.4c1.03-1.72,1.729-1.78,3.84-1.89c0.67-0.03,1.92,0.27,2.43-0.23
			c0.311-0.29,0.62-2.1,0.69-2.6c0.12-0.82,0.06-1.61,0.11-2.34c0.05-0.91,0.27-1.74,1.18-2.45c1.75-1.36,3.77-0.01,5.56,0.47
			c0.4,0.11,0.91,0.04,1.29,0.22c0.3,0.14,0.471,0.79,0.851,0.95c0.59,0.24,3.31,0.28,4.01,0.15c0.43-0.07,1.83-0.75,2.18-1.12
			c0.62-0.65,0.38-1.31,0.66-2.05"/>
		<path fill="none" stroke="#000000" d="M292.225,174.389c-0.58-2.36-4-3.32-5.19-5.14c-0.24-0.12-0.7-0.18-0.95-0.17
			c-0.25,1.01,0.63,1.7,0.81,2.6c0.26,1.24,0.28,1.94,1.34,2.75c0.75,0.57,4.82,1.8,4.33-0.37"/>
		<path fill="none" stroke="#000000" d="M297.745,174.389c0.591-2.36,4.011-3.32,5.2-5.14c0.23-0.12,0.7-0.18,0.95-0.17
			c0.24,1.01-0.63,1.7-0.82,2.6c-0.25,1.24-0.27,1.94-1.33,2.75c-0.71,0.54-4.369,1.66-4.369-0.03c0-0.11,0.01-0.22,0.039-0.34"/>
		<path fill="none" stroke="#000000" d="M293.895,181.719c0.01,0.01,0.02,0.01,0.03,0.02c0.18,0.09,0.359,0.2,0.54,0.31
			c1,0.66,1.93,1.59,2.93,2.16c1.04-1.14,1.04-2.94,1.31-4.3c-1.77-0.11-5.05-0.63-5.29,1.79c0.181-0.02,0.351-0.01,0.511,0.04
			c0.22,0.04,0.399,0.15,0.54,0.31c0.149,0.17,0.25,0.39,0.26,0.67"/>
	</g>
</g>
<text transform="matrix(1 0 0 1 232.9893 80.9956)" fill="#FFFFFF" font-family="'Arial-Black'" font-size="48">OMU</text>
<text transform="matrix(1 0 0 1 126.4937 778.4629)" fill="#FFFFFF" font-family="'Arial-Black'" font-size="48">AROCHUKU</text>
<g id="XMLID_2_">
	<g>
		<path fill="#FF6633" d="M28.895,136.989c2.63,2.16,5.41,6.48,4.91,10.31c-1.23,0.29-1.9,1.03-1.97,2.1
			c-6.81,1.4-12.41-13.65-13.88-18.43C20.955,131.599,26.505,135.019,28.895,136.989z"/>
	</g>
	<g>
	</g>
</g>
</svg>
