<svg xmlns="http://www.w3.org/2000/svg" width="900" height="600" version="1.0"><path d="M 0,0 H 900 V 600 H 0 Z" fill="#fff"/><path d="m 586.2,335.76 32.04,-9.6 52.68,31.92 -33.36,8.64 49.44,29.76 33,-8.88 52.08,31.56 -33.72,8.16 49.56,29.88 33.96,-8.28 52.2,31.68 -32.04,9.24 57.96,34.8 V 600 h -41.28 l -71.04,-43.08 9.72,34.2 -56.04,-33.36 -9.24,-34.2 -48.72,-29.16 7.56,33.12 -51.36,-30.6 -9,-34.2 -49.32,-29.52 8.28,33.72 L 536.28,435 527.64,401.04 449.88,354.48 372,401.04 363.36,435 l -53.28,31.92 8.28,-33.72 -49.32,29.52 -9,34.2 -51.36,30.6 7.56,-33.12 -48.72,29.16 -9.24,34.2 -56.04,33.36 9.72,-34.2 L 41.28,600 H 0 V 524.64 L 57.84,489.84 25.8,480.6 78,448.92 l 33.96,8.28 49.56,-29.88 -33.72,-8.16 52.2,-31.56 33,8.88 49.44,-29.76 -33.36,-8.64 52.68,-31.92 32.04,9.6 52.32,-31.44 -41.88,-25.08 -32.04,9.6 -52.8,-31.8 33.24,-8.76 -49.56,-29.64 -33,8.88 -52.2,-31.56 33.72,-8.28 L 122.04,157.92 88.2,166.44 35.88,134.88 67.92,125.64 0,81.12 V 0 h 28.32 l 94.8,57 -9.6,-34.2 55.92,33.48 9.24,34.2 48.6,29.28 -7.44,-33.12 51.24,30.6 8.88,34.2 49.32,29.64 -8.28,-33.72 53.16,32.04 8.64,33.96 67.2,40.44 67.2,-40.44 8.64,-33.96 53.16,-32.04 -8.28,33.72 49.32,-29.64 8.88,-34.2 51.24,-30.6 -7.44,33.12 48.6,-29.28 9.24,-34.2 55.92,-33.48 -9.6,34.2 94.8,-57 H 900 v 81.12 l -67.92,44.4 32.04,9.24 -52.32,31.56 -33.96,-8.28 -49.56,29.76 33.72,8.28 -52.2,31.56 -33,-8.88 -49.56,29.64 33.24,8.76 -52.8,31.8 -32.04,-9.6 -41.88,25.08 z" fill="#d9171a"/></svg>