<?xml version="1.0" encoding="UTF-8" standalone="no"?>
<!-- Created with Inkscape (http://www.inkscape.org/) -->

<svg
   xmlns:dc="http://purl.org/dc/elements/1.1/"
   xmlns:cc="http://creativecommons.org/ns#"
   xmlns:rdf="http://www.w3.org/1999/02/22-rdf-syntax-ns#"
   xmlns:svg="http://www.w3.org/2000/svg"
   xmlns="http://www.w3.org/2000/svg"
   xmlns:sodipodi="http://sodipodi.sourceforge.net/DTD/sodipodi-0.dtd"
   xmlns:inkscape="http://www.inkscape.org/namespaces/inkscape"
   id="svg2"
   version="1.1"
   inkscape:version="0.91 r13725"
   width="900"
   height="600"
   sodipodi:docname="Flag_of_the_Dutch_West_India_Company.svg">
  <metadata
     id="metadata8">
    <rdf:RDF>
      <cc:Work
         rdf:about="">
        <dc:format>image/svg+xml</dc:format>
        <dc:type
           rdf:resource="http://purl.org/dc/dcmitype/StillImage" />
      </cc:Work>
    </rdf:RDF>
  </metadata>
  <defs
     id="defs6" />
  <sodipodi:namedview
     pagecolor="#ffffff"
     bordercolor="#666666"
     borderopacity="1"
     objecttolerance="10"
     gridtolerance="10"
     guidetolerance="10"
     inkscape:pageopacity="0"
     inkscape:pageshadow="2"
     inkscape:window-width="1366"
     inkscape:window-height="656"
     id="namedview4"
     showgrid="false"
     inkscape:zoom="0.75666667"
     inkscape:cx="450"
     inkscape:cy="300"
     inkscape:window-x="0"
     inkscape:window-y="1"
     inkscape:window-maximized="1"
     inkscape:current-layer="svg2" />
  <rect
     style="fill:#ffffff;fill-opacity:1;stroke:none"
     id="rect2818"
     width="900"
     height="600"
     x="0"
     y="6.0434486e-14" />
  <rect
     y="400"
     x="0"
     height="200"
     width="900"
     id="rect2822"
     style="fill:#21468b;fill-opacity:1;stroke:none" />
  <rect
     style="fill:#ae1c28;fill-opacity:1;stroke:none"
     id="rect2824"
     width="900"
     height="200"
     x="0"
     y="0" />
  <path
     style="fill:#000000"
     d="m 411.63065,356.24535 c -2.34194,-7.6153 -5.35691,-16.79734 -6.6999,-20.40449 l -2.44182,-6.55851 -12.9531,-0.84887 c -20.50081,-1.3435 -29.39295,-6.55121 -35.89857,-21.02413 -6.02956,-13.41386 -4.41616,-32.69276 3.75299,-44.84547 4.61113,-6.85967 10.89873,-12.15905 16.53087,-13.93275 6.02669,-1.89793 2.25988,-10.13101 -5.97729,-13.0645 -16.41949,-5.84741 -17.28466,-5.53679 15.62076,-5.60817 18.43703,-0.0399 30.53765,0.41688 30.53765,1.153 0,0.6706 -3.47164,2.19337 -7.71477,3.38393 -7.79207,2.18634 -8.29235,2.75529 -6.92066,7.87103 0.587,2.18913 2.34039,3.18462 7.73584,4.39207 6.5248,1.46018 7.23081,1.37358 10.89669,-1.33671 2.1559,-1.59394 4.24628,-2.57164 4.64525,-2.17265 0.52782,0.52781 4.05391,20.76223 5.45866,31.32447 0.0233,0.17679 -0.40712,0.32145 -0.95692,0.32145 -0.54983,0 -2.64438,-3.77528 -4.65455,-8.38951 -2.40849,-5.52853 -5.45405,-9.92956 -8.93077,-12.90549 -4.9612,-4.2466 -10.49512,-6.77111 -11.85714,-5.40909 -0.33356,0.33354 1.54429,8.39493 4.17295,17.91418 l 4.77942,17.30772 17.74545,-0.56634 c 17.84274,-0.56942 22.24096,0.51619 13.88807,3.42803 -3.68264,1.28377 -3.85879,1.68267 -3.88807,8.80491 -0.0593,14.39974 -3.12062,21.45946 -11.78009,27.16518 l -4.53725,2.98959 1.79087,5.36807 c 0.985,2.95244 2.09321,6.22633 2.46271,7.27535 0.664,1.885 4.58967,-6.41549 9.46272,-20.00805 1.28731,-3.59072 4.78813,-12.67348 7.77958,-20.18395 l 5.43903,-13.65536 -7.30412,-22.59283 c -7.95371,-24.60216 -8.62042,-25.58484 -18.41937,-27.14888 -3.02124,-0.48223 -5.81662,-1.40019 -6.21198,-2.03989 -0.42441,-0.68671 14.86055,-1.01252 37.31869,-0.79545 23.16932,0.22394 38.04876,0.85026 38.06628,1.6023 0.0157,0.67907 -1.86558,1.42159 -4.18094,1.65007 -8.34881,0.82385 -17.53692,3.07366 -18.70153,4.57927 -0.65371,0.84511 -2.48021,4.71893 -4.05886,8.60846 l -2.87031,7.07187 7.26905,25.07303 c 9.50391,32.78178 17.26491,56.57502 18.45391,56.57502 0.52337,0 1.98819,-3.0496 3.25513,-6.77689 l 2.30353,-6.77691 -4.82131,-5.11205 c -8.14774,-8.63916 -10.18249,-14.67281 -10.18249,-30.19441 0,-15.37356 1.23457,-18.80161 10.10474,-28.05819 6.77918,-7.07451 14.23747,-10.48559 24.334,-11.12933 6.46128,-0.41193 8.35091,-1.04859 9.86323,-3.32302 1.70226,-2.56014 1.61186,-3.02303 -1.00382,-5.14109 -1.58099,-1.28021 -6.03911,-3.03584 -9.90693,-3.90142 -13.20599,-2.95536 -7.9459,-4.12165 14.98749,-3.32305 12.11093,0.42173 22.26795,1.01485 22.57115,1.31806 0.30317,0.30319 -3.96435,1.54728 -9.48338,2.76464 -11.39572,2.5136 -12.53735,3.18452 -14.37152,8.44613 -1.25251,3.59291 -1.08068,3.89286 3.27174,5.71142 6.44237,2.69182 8.86077,2.41329 12.42538,-1.43102 1.70868,-1.8427 3.37231,-2.85525 3.69699,-2.25013 0.32469,0.60514 0.15331,6.01842 -0.38079,12.02951 -0.53412,6.01108 -1.0171,13.09904 -1.07334,15.75098 -0.11906,5.61546 -2.26997,6.42738 -3.40635,1.28581 -2.27768,-10.30542 -5.14825,-16.72745 -9.19574,-20.57273 -2.41923,-2.29838 -5.13722,-4.17884 -6.04,-4.17884 -0.92475,0 -4.05358,6.59636 -7.16615,15.10809 -3.03864,8.30947 -8.13284,22.20977 -11.32052,30.8896 l -5.79574,15.78146 3.08855,3.30915 c 12.24405,13.11862 30.51216,9.95305 40.04562,-6.93923 2.22243,-3.93796 4.26229,-6.4955 4.53296,-5.68343 0.90566,2.71694 -6.42705,14.25146 -11.12769,17.50411 -10.15983,7.03026 -20.69048,8.70766 -33.61637,5.35473 -3.8659,-1.00281 -7.12052,-1.72604 -7.23252,-1.60725 -0.39965,0.42402 -9.10448,22.27126 -13.27812,33.3253 -2.33634,6.18788 -4.67379,11.2507 -5.19433,11.2507 -0.52051,0 -3.71886,-8.38747 -7.10738,-18.63884 -3.38855,-10.25137 -6.27482,-18.49654 -6.41392,-18.32259 -0.31629,0.39549 -9.64271,22.64044 -12.93379,30.84907 -1.34571,3.35651 -2.8461,6.1049 -3.33417,6.10751 -0.48808,0.002 -4.64741,-7.06965 -9.24299,-15.71625 -7.76632,-14.61242 -8.44756,-15.49653 -9.65977,-12.53653 -0.71728,1.75154 -3.52452,8.64093 -6.23827,15.30977 -2.71376,6.66883 -5.52145,12.3209 -6.23929,12.56021 -0.71785,0.23928 -3.2213,-5.79564 -5.56325,-13.41096 z m 45.99398,-13.4464 5.59138,-14.30833 -2.74114,-9.11809 c -1.50764,-5.01494 -4.33577,-13.97365 -6.28469,-19.90826 l -3.54355,-10.79017 -7.34292,18.25234 c -4.03862,10.03878 -7.36899,18.94462 -7.40083,19.79073 -0.0671,1.78303 14.526,30.43521 15.48744,30.40818 0.3536,-0.008 3.15904,-6.45683 6.23431,-14.3264 z m -56.38034,-17.67413 c 0,-0.66118 -0.64071,-2.83095 -1.42378,-4.82176 -0.7831,-1.9908 -3.0394,-9.1164 -5.01405,-15.8347 -1.97464,-6.71828 -5.63016,-18.86906 -8.12339,-27.00172 -2.49322,-8.13265 -5.22377,-17.53503 -6.06788,-20.89418 -1.74921,-6.96109 -3.81547,-7.68166 -7.3742,-2.57159 -3.98613,5.72381 -5.42741,11.6424 -5.42741,22.2878 0,25.19037 8.8472,43.86054 22.90309,48.33216 5.879,1.8703 10.52762,2.09283 10.52762,0.50399 z m 22.60191,-8.52484 c 0.84316,-4.49449 -0.2999,-23.62355 -1.6167,-27.05509 -0.60986,-1.58923 -9.34396,-4.86115 -10.3339,-3.87122 -0.80568,0.80567 9.01809,35.51005 10.05186,35.51005 0.57135,0 1.42579,-2.06269 1.89874,-4.58374 z m 85.97687,-35.27595 c 5.43294,-14.49736 10.19806,-27.37137 10.58913,-28.60897 0.57807,-1.82932 -0.0756,-2.25013 -3.4954,-2.25013 -13.32253,0 -26.22836,34.45564 -20.30772,54.21699 0.82592,2.75668 1.91436,4.55963 2.41878,4.00655 0.50441,-0.55309 5.36226,-12.86709 10.79521,-27.36444 z m -43.44292,-42.48284 c 0.67106,-3.35515 0.36452,-3.7034 -3.97682,-4.51784 -2.58717,-0.48534 -5.02522,-0.56116 -5.41788,-0.1685 -0.65563,0.65563 2.80029,12.74475 4.46562,15.62108 0.79668,1.37602 3.79905,-5.28445 4.92908,-10.93474 z"
     id="path4221"
     inkscape:connector-curvature="0"
     sodipodi:nodetypes="sscsssssssssssscssssscsssscsssscsssscssscssscsssssssscsssssssssssscssssscssscscsssssscsscsccssssssssssssssssssssssssss" />
</svg>
