<?xml version="1.0" encoding="UTF-8" standalone="no"?>
<svg
   xmlns:dc="http://purl.org/dc/elements/1.1/"
   xmlns:cc="http://creativecommons.org/ns#"
   xmlns:rdf="http://www.w3.org/1999/02/22-rdf-syntax-ns#"
   xmlns:svg="http://www.w3.org/2000/svg"
   xmlns="http://www.w3.org/2000/svg"
   xmlns:sodipodi="http://sodipodi.sourceforge.net/DTD/sodipodi-0.dtd"
   xmlns:inkscape="http://www.inkscape.org/namespaces/inkscape"
   width="1000"
   height="500"
   viewBox="-350 -250 700 500"
   version="1"
   id="svg6"
   sodipodi:docname="Flag_of_Albania_(1943–1944).svg"
   inkscape:version="0.92.3 (2405546, 2018-03-11)">
  <metadata
     id="metadata12">
    <rdf:RDF>
      <cc:Work
         rdf:about="">
        <dc:format>image/svg+xml</dc:format>
        <dc:type
           rdf:resource="http://purl.org/dc/dcmitype/StillImage" />
      </cc:Work>
    </rdf:RDF>
  </metadata>
  <defs
     id="defs10" />
  <sodipodi:namedview
     pagecolor="#ffffff"
     bordercolor="#666666"
     borderopacity="1"
     objecttolerance="10"
     gridtolerance="10"
     guidetolerance="10"
     inkscape:pageopacity="0"
     inkscape:pageshadow="2"
     inkscape:window-width="1920"
     inkscape:window-height="1017"
     id="namedview8"
     showgrid="false"
     inkscape:zoom="0.58"
     inkscape:cx="1296.0042"
     inkscape:cy="35.79387"
     inkscape:window-x="-4"
     inkscape:window-y="-4"
     inkscape:window-maximized="1"
     inkscape:current-layer="svg6" />
  <path
     d="M-500-250H500v500H-500z"
     id="path2"
     fill="#c10" />
  <g
     id="g1509"
     transform="matrix(1.1198891,0,0,1.1198891,-567.13147,-252.23934)">
    <path
       id="path4-5"
       d="m 399.102,88.892 c 0.632,2.106 -0.149,4.516 1.87,5.878 0.124,1.645 0.044,3.703 0.044,5.22 -1.183,0.533 -3.399,1.611 -6.191,1.895 -2.792,0.283 -5.779,0.448 -7.357,0.448 -5.469,0 -10.907,-0.788 -15.936,-0.883 -5.395,-0.102 -15.141,1.498 -16.367,-0.625 -0.683,-1.48 -0.209,-3.58 -0.09,-5.372 -0.47,-0.543 -0.37,-1.742 -0.329,-2.582 0.213,-4.299 1.114,-8.998 2.847,-12.464 -0.038,-2.433 0.922,-4.134 2.388,-5.111 -0.09,-1.566 0.579,-2.586 1.721,-2.695 1.355,-2.307 3.566,-1.959 5.289,-2.585 0.684,-0.248 2.355,-2.478 3.437,-3.408 0.643,-0.554 -0.023,-3.806 0.698,-5.054 0.154,-0.266 0.185,-0.773 0.074,-0.97 -0.487,-0.859 -1.58,-0.643 -2.532,-0.996 -1.904,-0.705 -4.749,-1.448 -6.152,-2.532 -0.96,-0.74 -1.627,-1.697 -2.143,-2.887 -0.517,-1.19 -0.866,-3.15 -1.534,-3.636 2.639,0.322 4.251,0.605 5.625,2.046 0.71,0.746 2.383,1.7 3.614,2.306 -2.688,-4.903 -5.957,-7.233 -9.799,-10.18 -4.965,-3.812 -10.424,-5.89 -10.535,-6.492 -0.136,-0.741 1.08,-0.745 1.612,-0.676 2.81,0.363 10.126,3.064 15.176,6.432 4.746,3.165 8.95,7.333 12.276,11.134 -0.016,-1.77 -2.6,-5.256 -4.196,-6.616 -1.538,-1.31 -2.462,-3.567 -2.327,-5.807 3.923,1.852 6.581,6.503 10.844,10.761 1.339,0.808 2.271,1.704 2.41,2.958 0.768,0.767 2.037,2.106 2.636,2.423 -0.196,0.734 0.55,1.46 0.065,2.43 -0.133,0.267 -0.342,0.405 -0.312,0.738 1.454,0.84 2.246,4.19 3.273,5.88 0.697,1.147 2.39,2.273 2.482,3.001 0.18,1.431 -1.07,2.223 -1.189,3.537 0.39,0.72 1.005,0.989 1.48,1.179 1.208,0.903 2.192,1.907 2.192,3.384 l 0.412,0.005 c 2.455,1.713 3.04,4.334 3.04,7.991 1.108,0 1.884,1.124 1.484,1.925 z"
       inkscape:connector-curvature="0" />
    <path
       id="path6"
       d="m 348.864,37.51 c -0.56,0.007 -1.22,0.15 -1.117,0.705 0.11,0.602 5.567,2.675 10.533,6.486 3.841,2.948 7.11,5.284 9.798,10.187 -1.23,-0.605 -2.903,-1.56 -3.614,-2.306 -1.374,-1.441 -2.987,-1.728 -5.626,-2.05 0.668,0.487 1.018,2.446 1.535,3.636 0.516,1.19 1.185,2.146 2.145,2.887 1.403,1.083 4.242,1.829 6.147,2.534 0.952,0.352 2.047,0.14 2.534,0.999 0.112,0.196 0.08,0.703 -0.073,0.97 -0.721,1.247 -0.055,4.5 -0.698,5.053 -1.082,0.93 -2.753,3.16 -3.437,3.408 -1.723,0.626 -3.934,0.278 -5.289,2.585 -1.131,0.108 -1.794,1.11 -1.718,2.651 1.536,-0.318 2.383,-2.39 3.753,-2.857 -0.284,0.702 -1.62,1.908 -0.823,2.314 0.65,0.33 2.683,-1.86 2.99,-2.21 0.185,0.52 -0.99,1.984 -0.573,2.225 0.901,0.52 2.55,-1.786 2.908,-2.336 0.887,3.138 3.115,2.386 2.909,-0.75 0.357,1.074 1.276,3.75 2.63,2.968 1.392,-0.804 -0.385,-2.341 -0.625,-3.136 1.221,1.216 1.669,2.824 3.085,3.768 0.233,0.155 0.761,0.16 1.057,0.044 0.517,-0.204 0.19,-0.875 -0.022,-1.139 -0.243,-0.303 -0.69,-0.874 -0.69,-0.874 0.523,0.257 0.848,0.765 2.012,1.814 1.165,1.05 1.672,1.126 2.116,0.904 0.39,-0.195 -0.482,-1.283 -0.816,-1.616 0.39,0.204 1.108,0.92 1.859,1.462 0.75,0.542 1.716,0.73 1.917,0.382 0.159,-0.276 -0.34,-0.623 -0.845,-1.014 -0.506,-0.39 -0.852,-0.683 -0.992,-0.823 0,0 0.443,0.095 1.293,0.61 0.85,0.515 2.11,1.45 2.556,1.564 0.893,0.229 1.324,0.104 1.308,-0.176 -0.016,-0.272 -0.381,-0.504 -0.742,-0.778 -0.361,-0.275 -0.713,-0.595 -0.713,-0.595 0,0 2.605,1.348 3.643,1.41 0.783,0.047 1.178,-0.007 1.22,-0.309 0.034,-0.253 -0.64,-0.866 -0.64,-0.866 0.93,0.536 1.926,0.899 2.527,0.595 -0.104,-0.084 -0.207,-0.169 -0.316,-0.25 -0.434,-0.174 -0.984,-0.415 -1.373,-1.006 -1.39,0.213 -5.615,0.332 -9.078,-1.668 -5.513,-3.183 -7.074,-3.606 -7.86,-3.606 -3.25,-0.008 -4.96,2.709 -8.314,2.152 3.5,0 5.722,-3.397 9.255,-2.438 4.055,1.1 8.284,5.255 13.72,5.134 0.097,-1.073 -1.326,-1.282 -1.249,-2.431 0.061,-0.909 0.722,-1.358 1.08,-0.83 0.265,0.39 -0.597,1.15 -0.228,1.52 0.251,0.251 0.86,0.037 0.86,0.037 0,0 -0.069,0.842 0.125,1.101 0.193,0.26 0.69,0.395 1.292,0.441 0,-1.238 0.688,-0.714 0.272,-2.578 -0.117,-0.523 0.136,-0.433 0.39,-0.448 0.234,-0.014 0.477,-0.266 0.19,-1.043 -0.476,-0.503 -1.118,-1.078 -1.579,-1.667 -1.184,-0.166 -1.855,-1.265 -1.528,-3.122 -0.489,-1.16 -1.013,-2.293 -1.682,-2.894 -0.046,0.003 -0.166,0.052 -0.213,0.066 -0.329,0.1 -0.718,-0.402 -0.418,-0.683 0.105,-0.098 0.16,-0.741 0.154,-0.976 -0.04,-1.551 -0.81,-2.689 -1.58,-3.57 -0.24,-0.244 -0.472,-0.48 -0.668,-0.676 -0.139,-1.253 -1.07,-2.153 -2.409,-2.96 -4.263,-4.258 -6.918,-8.908 -10.84,-10.76 -0.136,2.24 0.782,4.493 2.32,5.803 1.039,0.884 2.49,2.67 3.386,4.296 l 0.008,0.008 c 0.015,0.018 1.289,1.92 0.932,3.106 -1.553,-1.813 -2.474,-3.128 -3.562,-4.487 -0.002,-0.003 -0.013,-0.012 -0.014,-0.015 -2.622,-2.65 -5.6,-5.272 -8.829,-7.426 -5.05,-3.368 -12.364,-6.063 -15.174,-6.426 a 3.565,3.565 0 0 0 -0.492,-0.03 z m 11.054,13.654 c 0.363,0.243 1.14,2.071 2.159,3.423 1.42,1.886 4.393,3.18 5.861,3.548 0.79,0.197 2.063,0.416 2.563,0.705 -1.114,0.298 -5.18,-0.923 -7.234,-2.057 -1.696,-1.13 -3.176,-3.587 -3.35,-5.619 z m 17.436,9.857 c 0.706,0 0.556,0.302 1.087,0.44 0.531,0.14 1.094,-0.033 1.66,0.14 0.19,0.059 0.455,0.304 0.566,0.515 0.12,0.228 0.328,0.298 0.426,0.47 0.198,0.348 0.169,0.717 0.169,1.035 h -0.47 v -0.536 c 0,-0.087 -0.019,-0.19 -0.25,-0.19 -0.238,0 -0.227,0.2 -0.22,0.308 0.006,0.107 0.012,0.19 -0.037,0.286 a 0.234,0.234 0 0 1 -0.125,0.11 0.927,0.927 0 0 1 -0.22,0.022 c -0.39,0 -0.752,0.022 -0.963,-0.103 -0.212,-0.126 -0.263,-0.378 -0.271,-0.653 a 0.249,0.249 0 0 0 -0.06,-0.162 0.522,0.522 0 0 0 -0.146,-0.117 c -0.129,-0.075 -0.424,-0.123 -0.595,-0.294 a 0.573,0.573 0 0 1 -0.169,-0.412 c 0,-0.05 0.003,-0.254 -0.03,-0.286 -0.115,-0.116 -0.254,-0.043 -0.477,-0.088 a 0.78,0.78 0 0 1 -0.3,-0.11 0.346,0.346 0 0 1 -0.14,-0.294 v -0.074 a 22.5,22.5 0 0 1 0.565,-0.007 z m -5.986,12.332 c 0,0 -0.31,1.493 -1.204,1.498 -1.236,0 -1.543,-0.627 -2.02,-1.373 0,0 -1.175,1.76 -2.123,1.763 -1.08,0.002 -1.388,-0.5 -1.388,-0.5 0,0 -0.643,0.462 -1.366,0.426 -0.739,-0.037 -1.197,-0.507 -1.197,-0.507 0,0 -1.631,1.261 -2.13,0.676 -1.44,0.982 -2.381,2.662 -2.343,5.068 -1.734,3.467 -2.637,8.165 -2.85,12.464 -0.042,0.84 -0.14,2.043 0.33,2.586 -0.119,1.791 -0.594,3.889 0.088,5.369 1.227,2.123 10.97,0.522 16.365,0.624 5.03,0.095 10.469,0.889 15.938,0.889 1.578,0 4.567,-0.165 7.36,-0.448 2.792,-0.284 5.008,-1.362 6.191,-1.895 0,-1.517 0.08,-3.578 -0.044,-5.222 -2.018,-1.363 -1.241,-3.77 -1.873,-5.876 0.4,-0.802 -0.376,-1.925 -1.483,-1.925 0,-3.657 -0.586,-6.278 -3.041,-7.99 l -0.412,-0.008 c 0,-1.324 -0.794,-2.268 -1.828,-3.1 0.014,0.377 -0.917,0.473 -1.425,0.272 0,1.285 -2.72,0.629 -3.32,0.066 0.438,1.462 -2.393,0.979 -3.4,-0.03 0.106,1.18 -2.165,0.779 -2.887,-0.22 0.14,0.77 -0.6,0.85 -1.425,0.522 -0.825,-0.329 -1.737,-1.065 -1.932,-1.403 -0.035,0.385 -0.165,0.78 -0.529,0.874 -1.463,0.392 -2.754,-1.696 -2.754,-1.696 0,0 -0.253,0.781 -1.263,0.844 -1.617,0.1 -2.035,-1.748 -2.035,-1.748 z"
       inkscape:connector-curvature="0"
       style="fill:#d9a005" />
    <path
       id="path8"
       d="m 358.838,50.533 c 0.034,0.027 0.103,0.088 0.103,0.088 0.607,0.594 0.94,2.415 1.432,3.547 0.516,1.19 1.185,2.146 2.145,2.887 1.403,1.083 4.242,1.829 6.147,2.534 0.952,0.352 2.047,0.14 2.534,0.999 0.112,0.196 0.08,0.703 -0.073,0.97 -0.721,1.247 -0.055,4.5 -0.698,5.053 -1.082,0.93 -2.753,3.16 -3.437,3.408 -1.723,0.626 -3.934,0.278 -5.289,2.585 -1.131,0.108 -1.794,1.11 -1.718,2.651 1.536,-0.318 2.383,-2.39 3.753,-2.857 -0.284,0.702 -1.62,1.908 -0.823,2.314 0.65,0.33 2.683,-1.86 2.99,-2.21 0.185,0.52 -0.99,1.984 -0.573,2.225 0.901,0.52 2.55,-1.786 2.908,-2.336 0.887,3.138 3.115,2.386 2.909,-0.75 0.357,1.074 1.276,3.75 2.63,2.968 1.392,-0.804 -0.385,-2.341 -0.625,-3.136 1.221,1.216 1.669,2.824 3.085,3.768 0.233,0.155 0.761,0.16 1.057,0.044 0.517,-0.204 0.19,-0.875 -0.022,-1.139 -0.243,-0.303 -0.69,-0.874 -0.69,-0.874 0.523,0.257 0.848,0.765 2.012,1.814 1.165,1.05 1.672,1.126 2.116,0.904 0.39,-0.195 -0.482,-1.283 -0.816,-1.616 0.39,0.204 1.108,0.92 1.859,1.462 0.75,0.542 1.716,0.73 1.917,0.382 0.159,-0.276 -0.34,-0.623 -0.845,-1.014 -0.506,-0.39 -0.852,-0.683 -0.992,-0.823 0,0 0.443,0.095 1.293,0.61 0.85,0.515 2.11,1.45 2.556,1.564 0.893,0.229 1.324,0.104 1.308,-0.176 -0.016,-0.272 -0.381,-0.504 -0.742,-0.778 -0.361,-0.275 -0.713,-0.595 -0.713,-0.595 0,0 2.605,1.348 3.643,1.41 0.783,0.047 1.178,-0.007 1.22,-0.309 -1.988,0.05 -3.72,-1.02 -5.656,-1.44 -1.936,-0.418 -3.709,-0.814 -4.679,-1.3 -2.026,-1.012 -5,-2.526 -7.741,-2.526 -0.583,-0.157 -0.408,-0.887 -0.176,-1.234 -1.365,0.38 -2.15,0.66 -3.298,1.477 -1.035,0.736 -2.54,0.712 -5.105,0.712 0.764,-0.786 1.619,-0.128 3.24,-0.83 1.553,-0.673 3.738,-3.364 4.083,-4.245 0.341,-0.872 0.402,-1.898 0.213,-2.622 -0.132,-0.506 -0.128,-1.308 0.103,-1.594 0.664,0.426 1.154,0.305 1.579,0.088 0.425,-0.217 0.712,-0.624 1.205,-0.492 -0.136,1.575 1.145,1.2 1.145,2.85 0.385,1.135 1.568,1.443 5.171,4.392 3.604,2.949 5.46,3.118 5.986,2.96 0.106,-0.878 0.582,-1.457 0.683,-2.013 -1.13,-0.312 -2.279,-1.096 -3.07,-1.755 -0.985,-0.821 -2.12,-1.257 -2.306,-1.88 -0.082,-0.294 0.053,-1.078 -0.096,-1.227 -0.031,-0.032 -0.294,-0.088 -0.338,0.03 -0.285,0.762 -2.23,-0.036 -2.967,-0.588 -0.736,-0.553 -0.643,-1.738 -1.146,-2.24 -0.414,-0.415 -1.003,-0.552 -1.116,-1.176 0.195,-0.19 0.431,-0.254 0.69,-0.242 a 0.428,0.428 0 0 1 -0.014,-0.11 v -0.074 a 22.5,22.5 0 0 1 0.565,-0.007 c 0.706,0 0.556,0.302 1.087,0.44 0.531,0.14 1.094,-0.033 1.66,0.14 0.19,0.059 0.455,0.304 0.566,0.515 0.12,0.228 0.328,0.298 0.426,0.47 0.197,0.345 0.169,0.711 0.169,1.028 0.806,-0.05 0.86,-1.106 0.91,-1.66 0.012,-0.386 -0.119,-0.98 -0.433,-1.19 -1.963,-1.308 -6.76,-1.151 -9.592,-1.484 -0.3,-0.347 -0.873,-0.396 -1.653,-0.44 -0.44,0.114 -1.33,-0.005 -2.372,-0.257 l -0.074,-0.015 c -0.262,-0.054 -0.532,-0.13 -0.815,-0.213 -0.036,-0.01 -0.074,-0.019 -0.11,-0.03 l -0.184,-0.058 c -1.328,-0.404 -2.717,-0.956 -3.672,-1.484 -1.692,-1.128 -3.17,-3.575 -3.35,-5.604 -10e-4,-0.004 0.002,-0.01 0,-0.015 a 1.763,1.763 0 0 0 -0.403,-0.543 z m 20.91,11.575 a 0.373,0.373 0 0 0 -0.374,0.375 0.38,0.38 0 0 0 0.375,0.382 0.386,0.386 0 0 0 0.381,-0.382 0.38,0.38 0 0 0 -0.381,-0.375 z m 0.794,0.786 c -0.174,0 -0.213,0.107 -0.22,0.206 v 0.007 c 0.006,0.244 0.175,0.4 0.47,0.47 v -0.492 c 0,-0.087 -0.019,-0.191 -0.25,-0.191 z"
       inkscape:connector-curvature="0"
       style="fill:#ffe100" />
    <path
       id="path10"
       d="M 398.074,88.572 398,88.586 c 0.257,1.898 -2.595,2.533 -4.098,2.909 1.127,0.327 4.871,1.387 2.776,2.644 -0.699,1.394 -0.442,2.998 -0.44,4.51 0.436,0.1 0.874,0.206 1.322,0.323 1.196,-0.035 1.63,-1.208 1.63,-2.718 0.492,0.952 0.506,2.13 0.412,3.29 0.465,0.14 0.937,0.292 1.417,0.449 0,-1.517 0.08,-3.578 -0.044,-5.222 -2.018,-1.363 -1.241,-3.77 -1.873,-5.876 -0.471,-0.008 -0.777,-0.144 -1.028,-0.323 z"
       inkscape:connector-curvature="0"
       style="fill:#a37508" />
    <path
       id="path12"
       d="m 378.026,99.229 c 7.718,-2.184 13.985,-2.179 22.99,0.76 -1.183,0.534 -3.399,1.612 -6.191,1.896 -2.792,0.283 -5.779,0.448 -7.357,0.448 -5.469,0 -10.907,-0.788 -15.936,-0.883 -5.395,-0.102 -15.141,1.498 -16.367,-0.625 2.977,-2.076 17.277,-0.016 22.86,-1.596 z"
       inkscape:connector-curvature="0"
       style="fill:#714f07" />
    <path
       id="path14"
       d="m 392.426,99.376 c -5.21,0.07 -12.34,1.563 -13.787,2.431 l -0.014,0.059 c 2.899,0.228 5.865,0.47 8.843,0.47 1.578,0 4.567,-0.165 7.36,-0.448 a 15.471,15.471 0 0 0 3.246,-0.713 c -0.147,-1.385 -2.557,-1.841 -5.648,-1.8 z"
       inkscape:connector-curvature="0"
       style="fill:#a37508" />
    <path
       id="path16"
       d="m 396.487,98.22 c -1.146,-0.052 -1.725,-0.795 -1.762,-2.028 -0.043,-1.39 0.702,-2.304 2.144,-2.085 0.718,0.108 1.337,1.323 1.337,2.276 0,1.007 -0.77,1.88 -1.719,1.837 z"
       inkscape:connector-curvature="0"
       style="fill:#d9a005" />
    <path
       id="path18"
       d="m 395.9,94.154 c -0.778,0.23 -1.182,0.964 -1.175,1.953 0.883,0.662 1.664,0.562 1.902,0.037 0.273,-0.6 0.04,-1.478 -0.727,-1.99 z"
       inkscape:connector-curvature="0"
       style="fill:#ffe100" />
    <path
       id="path20"
       d="m 396.487,98.22 c -1.146,-0.052 -1.725,-0.795 -1.762,-2.028 -0.043,-1.39 0.702,-2.304 2.144,-2.085 0.718,0.108 1.337,1.323 1.337,2.276 0,1.007 -0.77,1.88 -1.719,1.837 z"
       inkscape:connector-curvature="0"
       style="fill:none;stroke:#000000;stroke-width:0.23503" />
    <path
       id="path22"
       d="m 368.613,55.185 c 0.452,-0.261 2.031,-0.68 3.269,-0.704 1.237,-0.023 2.46,0.11 2.951,0.595 1.028,1.013 0.617,2.708 -1.526,2.708 -1.9,0 -4.43,-1.948 -4.694,-2.6 z"
       inkscape:connector-curvature="0"
       style="fill:#ffe100" />
    <path
       id="path24"
       d="m 369.958,56.472 c -0.667,-0.646 -1.24,-1.07 -1.88,-1.587 m 31.024,34.007 c 0.632,2.106 -0.149,4.516 1.87,5.878 0.124,1.645 0.044,3.703 0.044,5.22 -1.183,0.533 -3.399,1.611 -6.191,1.895 -2.792,0.283 -5.779,0.448 -7.357,0.448 -5.469,0 -10.907,-0.788 -15.936,-0.883 -5.395,-0.102 -15.141,1.498 -16.367,-0.625 -0.683,-1.48 -0.209,-3.58 -0.09,-5.372 -0.47,-0.543 -0.37,-1.742 -0.329,-2.582 0.213,-4.299 1.114,-8.998 2.847,-12.464 -0.038,-2.433 0.922,-4.134 2.388,-5.111 -0.09,-1.566 0.579,-2.586 1.721,-2.695 1.355,-2.307 3.566,-1.959 5.289,-2.585 0.684,-0.248 2.355,-2.478 3.437,-3.408 0.643,-0.554 -0.023,-3.806 0.698,-5.054 0.154,-0.266 0.185,-0.773 0.074,-0.97 -0.487,-0.859 -1.58,-0.643 -2.532,-0.996 -1.904,-0.705 -4.749,-1.448 -6.152,-2.532 -0.96,-0.74 -1.627,-1.697 -2.143,-2.887 -0.517,-1.19 -0.866,-3.15 -1.534,-3.636 2.639,0.322 4.251,0.605 5.625,2.046 0.71,0.746 2.383,1.7 3.614,2.306 -2.688,-4.903 -5.957,-7.233 -9.799,-10.18 -4.965,-3.812 -10.424,-5.89 -10.535,-6.492 -0.136,-0.741 1.08,-0.745 1.612,-0.676 2.81,0.363 10.126,3.064 15.176,6.432 4.746,3.165 8.95,7.333 12.276,11.134 -0.016,-1.77 -2.6,-5.256 -4.196,-6.616 -1.538,-1.31 -2.462,-3.567 -2.327,-5.807 3.923,1.852 6.581,6.503 10.844,10.761 1.339,0.808 2.271,1.704 2.41,2.958 0.768,0.767 2.037,2.106 2.636,2.423 -0.196,0.734 0.55,1.46 0.065,2.43 -0.133,0.267 -0.342,0.405 -0.312,0.738 1.267,1.027 2.246,4.19 3.273,5.88 0.697,1.147 2.39,2.273 2.482,3.001 0.18,1.431 -1.07,2.223 -1.189,3.537 0.39,0.72 1.005,0.989 1.48,1.179 1.208,0.903 2.192,1.907 2.192,3.384 l 0.412,0.005 c 2.455,1.713 3.04,4.334 3.04,7.991 1.108,0 1.884,1.124 1.484,1.925 z"
       inkscape:connector-curvature="0"
       style="fill:none;stroke:#000000;stroke-width:0.23503" />
    <path
       id="path26"
       d="m 372.903,68.322 c -0.464,0 -0.704,0.034 -1.05,0.147 -0.415,0.136 -0.723,0.313 -1.41,0.808 -1.08,0.776 -1.584,1.093 -2.27,1.44 a 4.48,4.48 0 0 0 -0.367,0.198 c 0.004,0 0.032,-0.007 0.044,-0.008 2.231,-0.918 4.132,-2.598 6.75,-1.887 4.055,1.1 8.284,5.255 13.72,5.134 0.006,-0.062 0.004,-0.12 0,-0.177 l -0.184,-0.014 c -1.36,-0.07 -3.36,-0.734 -5.702,-1.741 -1.26,-0.542 -1.973,-0.896 -3.65,-1.814 -1.878,-1.027 -2.617,-1.391 -3.364,-1.667 -0.818,-0.302 -1.715,-0.419 -2.517,-0.42 z"
       inkscape:connector-curvature="0"
       style="fill:#a37508" />
    <path
       id="path28"
       d="m 370.795,58.278 c -0.86,-0.724 -1.808,-1.676 -3.378,-2.886 -1.57,-1.21 -3.307,-2.872 -4.613,-2.813 0.136,0.656 0.11,1.103 0.793,1.454 1.244,0.64 5.598,4.725 7.198,4.245 z"
       inkscape:connector-curvature="0"
       style="fill:#ffe100" />
    <g
       id="g34"
       font-weight="400"
       style="color:#000000;font-weight:400;font-family:Sans">
      <path
         id="path30"
         overflow="visible"
         style="line-height:normal;-inkscape-font-specification:Sans;text-indent:0;text-align:start;text-transform:none;overflow:visible;fill:#d9a005;marker:none"
         d="m 382.922,88.278 c -1.111,0.017 -2.267,0.114 -3.475,0.316 -4.335,0.722 -6.63,1.312 -11.663,0.903 -3.663,-0.298 -5.376,0.231 -7.72,1.33 -0.52,0.243 -1.825,0.308 -2.915,0.36 -1.09,0.05 -1.866,0.014 -1.866,0.014 -0.462,-0.02 -0.9,0.383 -0.918,0.845 -0.02,0.461 0.383,0.899 0.844,0.918 0,0 0.844,0.04 2.02,-0.015 1.176,-0.055 2.534,-0.307 3.585,-0.799 2.268,-1.063 3.346,-1.298 6.823,-1.015 5.188,0.422 7.781,-0.206 12.097,-0.925 4.467,-0.745 8.183,0.198 11.678,0.947 3.004,0.644 7.573,0.661 7.573,0.661 0.464,0.01 0.895,-0.41 0.898,-0.874 0.004,-0.465 -0.419,-0.89 -0.884,-0.889 0,0 -4.575,-0.059 -7.212,-0.624 -2.614,-0.56 -5.533,-1.206 -8.865,-1.153 z"
         inkscape:connector-curvature="0" />
      <path
         id="path32"
         overflow="visible"
         d="m 398.368,90.04 -0.015,0.03 c 0.781,0.582 0.595,1.233 0.308,1.74 l 0.324,0.008 c 0.464,0.01 0.892,-0.41 0.896,-0.874 0.004,-0.465 -0.417,-0.89 -0.882,-0.889 0,0 -0.292,-0.005 -0.631,-0.014 z"
         style="line-height:normal;-inkscape-font-specification:Sans;text-indent:0;text-align:start;text-transform:none;overflow:visible;fill:#a37508;stroke-width:0;marker:none"
         inkscape:connector-curvature="0" />
    </g>
    <path
       id="path36"
       d="m 372.073,75.55 c -1.282,-0.01 -2.583,0.07 -3.863,0.036 -0.913,0.999 0.106,1.52 1.241,1.623 0.251,0.093 0.36,0.23 0.338,0.478 -1.19,0.837 -1.639,0.896 -3.298,1.065 -1.659,0.168 -4.09,1.073 -5.597,1.322 1.228,1.456 2.457,1.378 3.034,1.895 0.564,0.505 -0.696,0.87 -0.757,1.542 -0.011,1.388 -1.078,1.858 -2.07,2.255 0.666,0.67 2.268,0.96 3.165,0.889 -0.623,0.196 -0.99,0.602 -1.11,1.02 -0.842,-0.747 -1.922,-0.236 -2.511,0.706 -0.26,0.13 -0.633,-0.22 -0.911,0.058 -0.106,0.106 0.537,1.666 0.492,2.314 l -0.162,0.073 c -0.52,0.244 -1.825,0.309 -2.915,0.36 -1.09,0.052 -1.866,0.015 -1.866,0.015 -0.462,-0.02 -0.899,0.383 -0.918,0.845 -0.02,0.461 0.383,0.899 0.845,0.918 0,0 0.843,0.04 2.02,-0.015 1.175,-0.055 2.533,-0.308 3.584,-0.8 2.268,-1.063 3.346,-1.297 6.823,-1.014 2.608,0.212 4.56,0.16 6.405,-0.037 l -0.008,0.015 c -0.32,0.523 -1.335,0.847 -1.983,0.977 -0.728,0.145 -2.13,0.067 -2.13,0.778 0,0.711 1.56,0.549 1.653,0.867 0.04,0.134 -0.213,0.271 -0.514,0.301 -0.402,0.04 -0.35,0.582 -0.316,0.955 0.005,0.036 0.022,0.103 0.022,0.103 -4.247,0.076 -9.245,-0.173 -13.603,0.154 1.285,1.331 0.966,3.213 0.661,4.804 5.274,-0.67 15.64,0.467 20.199,-0.823 a 44.817,44.817 0 0 1 4.546,-1.05 c -0.336,-1.354 -0.382,-3.055 -0.36,-4.65 -0.122,0.02 -0.245,0.046 -0.367,0.066 0.205,-0.27 0.23,-0.533 0.015,-0.778 -0.918,-0.415 -2.513,0.22 -2.556,-0.837 -0.033,-0.78 -0.028,-1.168 -0.676,-1.543 -0.02,-0.01 -0.04,-0.019 -0.059,-0.03 l 1.168,-0.198 c 4.451,-0.741 8.157,0.193 11.641,0.94 0.602,-0.352 0.88,-1.09 0.75,-1.652 -0.115,-0.021 -0.23,-0.043 -0.338,-0.066 -0.978,-0.21 -2.001,-0.432 -3.07,-0.624 -0.078,-1.11 -0.495,-2.565 0.44,-3.188 -0.4,-0.41 -1.018,-0.262 -1.314,0 -0.145,-0.235 -0.257,-0.383 -0.448,-0.529 0.022,-1.89 -0.066,-2.424 -1.205,-3.481 0.468,0.134 1.03,0.36 1.395,-0.103 0.743,-0.85 -2.819,-2.513 2.85,-2.791 -3.365,-0.612 -7.722,-0.532 -11.583,-0.125 -0.801,0.085 -1.9,-0.226 -2.651,-0.477 a 44.195,44.195 0 0 1 -1.704,-0.669 c -0.355,-0.148 -0.463,-0.422 -0.206,-0.36 1.007,0.244 1.08,-0.358 1.528,-1.02 -1.204,-0.405 -2.464,-0.505 -3.746,-0.515 z m 1.095,3.635 c 1.092,-0.01 2.228,0.529 3.4,0.529 1.333,0.724 0.75,1.666 2.204,2.247 1.21,1.186 1.162,5.298 0.293,6.699 -3.597,0.61 -5.853,1.106 -9.68,0.94 1.014,-0.178 1.858,-0.409 2.394,-0.757 -0.33,-0.155 -0.535,-0.391 -0.763,-0.543 0.525,0.047 1.572,0.121 2.313,0 0.741,-0.121 0.957,-0.562 0.647,-1.08 -0.158,-0.262 -1.264,-0.26 -1.572,-0.272 -0.486,-0.018 -0.845,-0.345 -1,-0.602 2.07,-0.892 2.394,-1.563 1.198,-3.357 -0.252,-0.362 0.347,-0.357 0.477,-0.852 0.097,-0.365 -0.207,-1.06 -1.27,-1.028 -0.15,-0.656 0.226,-1.11 0.279,-1.69 a 2.572,2.572 0 0 1 1.08,-0.234 z"
       inkscape:connector-curvature="0"
       style="fill:#ffe100" />
    <path
       id="path38"
       overflow="visible"
       font-weight="400"
       style="color:#000000;font-weight:400;line-height:normal;font-family:Sans;-inkscape-font-specification:Sans;text-indent:0;text-align:start;text-transform:none;overflow:visible;fill:none;stroke:#000000;stroke-width:0.23503;marker:none"
       d="m 382.922,88.278 c -1.111,0.017 -2.267,0.114 -3.475,0.316 -4.335,0.722 -6.63,1.312 -11.663,0.903 -3.663,-0.298 -5.376,0.231 -7.72,1.33 -0.52,0.243 -1.825,0.308 -2.915,0.36 -1.09,0.05 -1.866,0.014 -1.866,0.014 -0.462,-0.02 -0.9,0.383 -0.918,0.845 -0.02,0.461 0.383,0.899 0.844,0.918 0,0 0.844,0.04 2.02,-0.015 1.176,-0.055 2.534,-0.307 3.585,-0.799 2.268,-1.063 3.346,-1.298 6.823,-1.015 5.188,0.422 7.781,-0.206 12.097,-0.925 4.467,-0.745 8.183,0.198 11.678,0.947 3.004,0.644 7.573,0.661 7.573,0.661 0.464,0.01 0.895,-0.41 0.898,-0.874 0.004,-0.465 -0.419,-0.89 -0.884,-0.889 0,0 -4.575,-0.059 -7.212,-0.624 -2.614,-0.56 -5.533,-1.206 -8.865,-1.153 z"
       inkscape:connector-curvature="0" />
    <path
       id="path40"
       d="m 377.722,81.778 c 0.935,0.263 1.502,0.043 1.89,-0.54 0.755,0.724 2.34,0.607 2.805,-0.125 1.2,1.11 2.687,0.511 3.096,-0.146 0.698,1.1 1.982,0.98 2.721,0.333 0.44,0.663 1.72,1.132 2.452,0.644 m 3.892,-2.968 c -2.635,0 -4.735,-0.444 -7.286,-0.632 -2.55,-0.19 -5.341,-0.073 -8.961,0.309 -3.494,0.368 -6.956,0.05 -10.322,0.366 -3.53,0.331 -7.58,0.862 -10.596,1.69 m 2.175,2.606 c 0.548,0.388 1.812,0.003 2.2,-0.706 0.583,0.573 1.976,0.656 2.307,-0.333 0.705,0.768 1.855,0.631 2.285,-0.228 0.874,0.756 1.813,0.472 2.368,-0.063"
       inkscape:connector-curvature="0"
       style="fill:none;stroke:#000000;stroke-width:0.23503" />
    <path
       id="path42"
       d="m 360.61,89.45 a 0.838,0.838 0 1 1 -1.676,0 0.838,0.838 0 0 1 1.676,0 z"
       inkscape:connector-curvature="0"
       style="fill:#ffe100" />
    <path
       id="path44"
       d="m 359.969,88.638 c 0.168,0.586 0.14,1.166 -0.676,1.476 -0.002,0.008 0.002,0.014 0,0.022 a 0.84,0.84 0 0 0 0.478,0.154 0.838,0.838 0 1 0 0.198,-1.653 z"
       inkscape:connector-curvature="0"
       style="fill:#d9a005" />
    <path
       id="path46"
       d="m 360.61,89.45 a 0.838,0.838 0 1 1 -1.676,0 0.838,0.838 0 0 1 1.676,0 z m 7.91,-8.413 a 0.8385,0.8385 0 1 1 -1.677,0 0.838,0.838 0 0 1 1.676,0 z"
       inkscape:connector-curvature="0"
       style="fill:none;stroke:#000000;stroke-width:0.23503" />
    <path
       id="path48"
       d="m 379.522,87.128 a 0.838,0.838 0 1 1 -1.676,0 0.838,0.838 0 0 1 1.676,0 z"
       inkscape:connector-curvature="0"
       style="fill:#ffe100" />
    <path
       id="path50"
       d="m 379.374,86.647 c -0.185,0.655 -0.661,0.85 -1.44,0.86 a 0.837,0.837 0 0 0 1.586,-0.375 0.84,0.84 0 0 0 -0.146,-0.485 z"
       inkscape:connector-curvature="0"
       style="fill:#d9a005" />
    <path
       id="path52"
       d="m 379.522,87.128 a 0.838,0.838 0 1 1 -1.676,0 0.838,0.838 0 0 1 1.676,0 z"
       inkscape:connector-curvature="0"
       style="fill:none;stroke:#000000;stroke-width:0.23503" />
    <path
       id="path54"
       d="m 367.733,87.448 a 0.8385,0.8385 0 1 1 -1.677,0 0.8385,0.8385 0 0 1 1.677,0 z"
       inkscape:connector-curvature="0"
       style="fill:#ffe100" />
    <path
       id="path56"
       d="m 367.092,86.634 c 0.167,0.587 0.14,1.167 -0.676,1.477 -0.002,0.008 0.002,0.014 0,0.022 a 0.84,0.84 0 0 0 0.477,0.154 0.838,0.838 0 1 0 0.198,-1.653 z"
       inkscape:connector-curvature="0"
       style="fill:#d9a005" />
    <path
       id="path58"
       d="m 367.733,87.448 a 0.8385,0.8385 0 1 1 -1.677,0 0.8385,0.8385 0 0 1 1.677,0 z m 31.369,1.444 c -1.207,-0.02 -1.348,-0.866 -2.176,-1.197 m -19.557,-1.607 c 0.849,-0.796 1.733,-0.481 2.088,-0.03 0.593,-1.008 2.309,-1.47 3.085,-0.25 0.533,-0.968 2.01,-1.328 2.66,-0.353 1.038,-0.95 2.129,-0.777 2.638,0.166 0.639,-0.536 1.192,-0.515 1.807,-0.208 m -30.954,3.054 c 0.563,-0.738 1.549,-0.69 1.953,-0.083 0.59,-0.942 1.671,-1.454 2.514,-0.706 0.238,-0.838 1.45,-1.477 2.295,-0.665 0.28,-0.813 1.08,-1.157 1.818,-0.935"
       inkscape:connector-curvature="0"
       style="fill:none;stroke:#000000;stroke-width:0.23503" />
    <path
       id="path60"
       d="m 363.044,88.724 a 0.8385,0.8385 0 1 1 -1.677,0 0.8385,0.8385 0 0 1 1.677,0 z"
       inkscape:connector-curvature="0"
       style="fill:#ffe100" />
    <path
       id="path62"
       d="m 362.403,87.91 c 0.167,0.587 0.14,1.167 -0.676,1.477 -0.003,0.008 0.002,0.014 0,0.022 a 0.84,0.84 0 0 0 0.477,0.154 0.838,0.838 0 1 0 0.198,-1.653 z"
       inkscape:connector-curvature="0"
       style="fill:#d9a005" />
    <path
       id="path64"
       d="m 363.044,88.724 a 0.8385,0.8385 0 1 1 -1.677,0 0.8385,0.8385 0 0 1 1.677,0 z"
       inkscape:connector-curvature="0"
       style="fill:none;stroke:#000000;stroke-width:0.23503" />
    <path
       id="path66"
       d="m 365.403,88.049 a 0.8385,0.8385 0 1 1 -1.677,0 0.8385,0.8385 0 0 1 1.677,0 z"
       inkscape:connector-curvature="0"
       style="fill:#ffe100" />
    <path
       id="path68"
       d="m 364.762,87.235 c 0.168,0.587 0.14,1.167 -0.676,1.477 -0.002,0.008 0.002,0.014 0,0.022 a 0.84,0.84 0 0 0 0.477,0.154 0.838,0.838 0 1 0 0.198,-1.653 z"
       inkscape:connector-curvature="0"
       style="fill:#d9a005" />
    <path
       id="path70"
       d="m 365.403,88.049 a 0.8385,0.8385 0 1 1 -1.677,0 0.8385,0.8385 0 0 1 1.677,0 z"
       inkscape:connector-curvature="0"
       style="fill:none;stroke:#000000;stroke-width:0.23503" />
    <path
       id="path72"
       d="m 382,86.654 a 0.838,0.838 0 1 1 -1.676,0 0.838,0.838 0 0 1 1.676,0 z"
       inkscape:connector-curvature="0"
       style="fill:#ffe100" />
    <path
       id="path74"
       d="m 381.852,86.172 c -0.185,0.655 -0.661,0.85 -1.44,0.86 a 0.837,0.837 0 0 0 1.586,-0.375 0.84,0.84 0 0 0 -0.146,-0.485 z"
       inkscape:connector-curvature="0"
       style="fill:#d9a005" />
    <path
       id="path76"
       d="m 382,86.654 a 0.838,0.838 0 1 1 -1.676,0 0.838,0.838 0 0 1 1.676,0 z"
       inkscape:connector-curvature="0"
       style="fill:none;stroke:#000000;stroke-width:0.23503" />
    <path
       id="path78"
       d="m 384.85,86.416 a 0.8385,0.8385 0 1 1 -1.677,0 0.838,0.838 0 0 1 1.676,0 z"
       inkscape:connector-curvature="0"
       style="fill:#ffe100" />
    <path
       id="path80"
       d="m 384.701,85.935 c -0.185,0.655 -0.661,0.85 -1.44,0.86 a 0.837,0.837 0 0 0 1.586,-0.375 0.84,0.84 0 0 0 -0.146,-0.485 z"
       inkscape:connector-curvature="0"
       style="fill:#d9a005" />
    <path
       id="path82"
       d="m 384.85,86.416 a 0.8385,0.8385 0 1 1 -1.677,0 0.838,0.838 0 0 1 1.676,0 z"
       inkscape:connector-curvature="0"
       style="fill:none;stroke:#000000;stroke-width:0.23503" />
    <path
       id="path84"
       d="m 387.476,86.535 a 0.8385,0.8385 0 1 1 -1.677,0 0.8385,0.8385 0 0 1 1.677,0 z"
       inkscape:connector-curvature="0"
       style="fill:#ffe100" />
    <path
       id="path86"
       d="m 387.328,86.054 c -0.186,0.654 -0.661,0.849 -1.44,0.859 a 0.837,0.837 0 0 0 1.586,-0.375 0.84,0.84 0 0 0 -0.146,-0.484 z"
       inkscape:connector-curvature="0"
       style="fill:#d9a005" />
    <path
       id="path88"
       d="m 387.476,86.535 a 0.8385,0.8385 0 1 1 -1.677,0 0.8385,0.8385 0 0 1 1.677,0 z"
       inkscape:connector-curvature="0"
       style="fill:none;stroke:#000000;stroke-width:0.23503" />
    <path
       id="path90"
       d="m 390.073,86.891 a 0.8385,0.8385 0 1 1 -1.677,0 0.8385,0.8385 0 0 1 1.677,0 z"
       inkscape:connector-curvature="0"
       style="fill:#ffe100" />
    <path
       id="path92"
       d="m 389.924,86.41 c -0.185,0.655 -0.66,0.849 -1.44,0.859 a 0.837,0.837 0 0 0 1.586,-0.375 0.84,0.84 0 0 0 -0.146,-0.484 z"
       inkscape:connector-curvature="0"
       style="fill:#d9a005" />
    <path
       id="path94"
       d="m 390.073,86.891 a 0.8385,0.8385 0 1 1 -1.677,0 0.8385,0.8385 0 0 1 1.677,0 z"
       inkscape:connector-curvature="0"
       style="fill:none;stroke:#000000;stroke-width:0.23503" />
    <path
       id="path96"
       d="m 361.16,81.898 a 0.8385,0.8385 0 1 1 -1.677,0 0.838,0.838 0 0 1 1.676,0 z"
       inkscape:connector-curvature="0"
       style="fill:#ffe100" />
    <path
       id="path98"
       d="m 360.814,81.227 c 0.063,0.756 -0.44,1.235 -1.043,1.3 a 0.84,0.84 0 0 0 0.55,0.213 0.843,0.843 0 0 0 0.838,-0.845 0.821,0.821 0 0 0 -0.345,-0.668 z"
       inkscape:connector-curvature="0"
       style="fill:#d9a005" />
    <path
       id="path100"
       d="m 361.16,81.898 a 0.8385,0.8385 0 1 1 -1.677,0 0.838,0.838 0 0 1 1.676,0 z"
       inkscape:connector-curvature="0"
       style="fill:none;stroke:#000000;stroke-width:0.23503" />
    <g
       id="g108">
      <path
         id="path102"
         d="m 363.593,81.601 a 0.8385,0.8385 0 1 1 -1.677,0 0.8385,0.8385 0 0 1 1.677,0 z"
         inkscape:connector-curvature="0"
         style="fill:#ffe100" />
      <path
         id="path104"
         d="m 363.247,80.93 c 0.064,0.757 -0.44,1.235 -1.043,1.3 a 0.84,0.84 0 0 0 0.551,0.213 0.843,0.843 0 0 0 0.837,-0.845 0.821,0.821 0 0 0 -0.345,-0.668 z"
         inkscape:connector-curvature="0"
         style="fill:#d9a005" />
      <path
         id="path106"
         d="m 363.593,81.601 a 0.8385,0.8385 0 1 1 -1.677,0 0.8385,0.8385 0 0 1 1.677,0 z"
         inkscape:connector-curvature="0"
         style="fill:none;stroke:#000000;stroke-width:0.23503" />
    </g>
    <g
       id="g116">
      <path
         id="path110"
         d="m 366.056,81.304 a 0.8385,0.8385 0 1 1 -1.677,0 0.8385,0.8385 0 0 1 1.677,0 z"
         inkscape:connector-curvature="0"
         style="fill:#ffe100" />
      <path
         id="path112"
         d="m 365.71,80.633 c 0.064,0.757 -0.44,1.235 -1.043,1.3 a 0.84,0.84 0 0 0 0.551,0.213 0.843,0.843 0 0 0 0.838,-0.844 0.821,0.821 0 0 0 -0.346,-0.669 z"
         inkscape:connector-curvature="0"
         style="fill:#d9a005" />
      <path
         id="path114"
         d="m 366.056,81.304 a 0.8385,0.8385 0 1 1 -1.677,0 0.8385,0.8385 0 0 1 1.677,0 z"
         inkscape:connector-curvature="0"
         style="fill:none;stroke:#000000;stroke-width:0.23503" />
    </g>
    <g
       id="g124">
      <path
         id="path118"
         d="m 379.233,80.444 a 0.8385,0.8385 0 1 1 -1.677,0 0.8385,0.8385 0 0 1 1.677,0 z"
         inkscape:connector-curvature="0"
         style="fill:#ffe100" />
      <path
         id="path120"
         d="m 378.706,79.662 c -0.002,0.006 -0.006,0.01 -0.008,0.015 0.046,0.852 -0.277,1.252 -0.91,1.337 a 0.84,0.84 0 0 0 0.61,0.271 0.843,0.843 0 0 0 0.308,-1.623 z"
         inkscape:connector-curvature="0"
         style="fill:#d9a005" />
      <path
         id="path122"
         d="m 379.233,80.444 a 0.8385,0.8385 0 1 1 -1.677,0 0.8385,0.8385 0 0 1 1.677,0 z"
         inkscape:connector-curvature="0"
         style="fill:none;stroke:#000000;stroke-width:0.23503" />
    </g>
    <g
       id="g132">
      <path
         id="path126"
         d="m 381.978,80.31 a 0.838,0.838 0 1 1 -1.676,0 0.838,0.838 0 0 1 1.676,0 z"
         inkscape:connector-curvature="0"
         style="fill:#ffe100" />
      <path
         id="path128"
         d="m 381.45,79.529 c 0,0.005 -0.005,0.009 -0.006,0.014 0.045,0.853 -0.278,1.252 -0.911,1.337 a 0.84,0.84 0 0 0 0.61,0.272 0.843,0.843 0 0 0 0.308,-1.623 z"
         inkscape:connector-curvature="0"
         style="fill:#d9a005" />
      <path
         id="path130"
         d="m 381.978,80.31 a 0.838,0.838 0 1 1 -1.676,0 0.838,0.838 0 0 1 1.676,0 z"
         inkscape:connector-curvature="0"
         style="fill:none;stroke:#000000;stroke-width:0.23503" />
    </g>
    <g
       id="g140">
      <path
         id="path134"
         d="m 385.05,80.31 a 0.8385,0.8385 0 1 1 -1.677,0 0.8385,0.8385 0 0 1 1.677,0 z"
         inkscape:connector-curvature="0"
         style="fill:#ffe100" />
      <path
         id="path136"
         d="m 384.523,79.529 -0.008,0.014 c 0.045,0.853 -0.277,1.252 -0.91,1.337 a 0.84,0.84 0 0 0 0.609,0.272 0.843,0.843 0 0 0 0.309,-1.623 z"
         inkscape:connector-curvature="0"
         style="fill:#d9a005" />
      <path
         id="path138"
         d="m 385.05,80.31 a 0.8385,0.8385 0 1 1 -1.677,0 0.8385,0.8385 0 0 1 1.677,0 z"
         inkscape:connector-curvature="0"
         style="fill:none;stroke:#000000;stroke-width:0.23503" />
    </g>
    <g
       id="g148">
      <path
         id="path142"
         d="m 387.943,80.325 a 0.838,0.838 0 1 1 -1.676,0 0.838,0.838 0 0 1 1.676,0 z"
         inkscape:connector-curvature="0"
         style="fill:#ffe100" />
      <path
         id="path144"
         d="m 387.416,79.543 c -0.002,0.006 -0.006,0.01 -0.007,0.015 0.045,0.852 -0.278,1.252 -0.911,1.337 a 0.84,0.84 0 0 0 0.61,0.272 0.843,0.843 0 0 0 0.308,-1.624 z"
         inkscape:connector-curvature="0"
         style="fill:#d9a005" />
      <path
         id="path146"
         d="m 387.943,80.325 a 0.838,0.838 0 1 1 -1.676,0 0.838,0.838 0 0 1 1.676,0 z"
         inkscape:connector-curvature="0"
         style="fill:none;stroke:#000000;stroke-width:0.23503" />
    </g>
    <g
       id="g156">
      <path
         id="path150"
         d="m 390.689,80.562 a 0.8385,0.8385 0 1 1 -1.677,0 0.8385,0.8385 0 0 1 1.677,0 z"
         inkscape:connector-curvature="0"
         style="fill:#ffe100" />
      <path
         id="path152"
         d="m 390.161,79.781 c -10e-4,0.005 -0.006,0.01 -0.007,0.015 0.045,0.852 -0.278,1.252 -0.91,1.337 a 0.84,0.84 0 0 0 0.609,0.271 0.843,0.843 0 0 0 0.308,-1.623 z"
         inkscape:connector-curvature="0"
         style="fill:#d9a005" />
      <path
         id="path154"
         d="m 390.689,80.562 a 0.8385,0.8385 0 1 1 -1.677,0 0.8385,0.8385 0 0 1 1.677,0 z"
         inkscape:connector-curvature="0"
         style="fill:none;stroke:#000000;stroke-width:0.23503" />
    </g>
    <g
       id="g172">
      <path
         id="path158"
         d="m 357.596,80.495 c -1.158,-0.31 -2.172,2.684 -2.802,5.185 -0.63,2.502 -0.628,5.404 0.68,5.404 2.121,0 3.667,-2.991 4,-4.817 0.644,-3.542 -0.679,-5.45 -1.878,-5.772 z"
         inkscape:connector-curvature="0"
         style="fill:#ffe100" />
      <path
         id="path160"
         d="m 354.779,88.88 c 0,0.37 0.337,0.552 0.9,0.445 0.492,-0.094 1.03,-1.161 0.458,-1.447 m 0.556,-0.264 c 0.328,0.416 0.746,0.277 0.99,-0.084 0.207,-0.307 0.41,-0.873 0.414,-1.29 0.005,-0.415 -0.313,-0.682 -0.897,-0.389 m -0.727,-2.291 c -0.195,-1.581 1.423,-1.432 1.968,-0.412 0.45,0.842 -0.266,2.395 -0.793,1.792"
         inkscape:connector-curvature="0"
         style="fill:none;stroke:#000000;stroke-width:0.23503" />
      <path
         id="path162"
         d="m 357.912,80.617 c 1.373,1.82 1.776,4.913 0.213,7.03 -1.61,2.178 -2.84,2.357 -3.503,2.71 0.175,0.45 0.451,0.726 0.852,0.726 2.122,0 3.67,-2.992 4.003,-4.818 0.588,-3.233 -0.464,-5.102 -1.565,-5.648 z"
         inkscape:connector-curvature="0"
         style="fill:#d9a005" />
      <path
         id="path164"
         d="m 357.596,80.495 c -1.158,-0.31 -2.172,2.684 -2.802,5.185 -0.63,2.502 -0.628,5.404 0.68,5.404 2.121,0 3.667,-2.991 4,-4.817 0.644,-3.542 -0.679,-5.45 -1.878,-5.772 z"
         inkscape:connector-curvature="0"
         style="fill:none;stroke:#000000;stroke-width:0.23503" />
      <path
         id="path166"
         d="m 354.916,87.76 c -0.671,0 -0.956,-1.256 -0.845,-2.035 0.112,-0.78 0.823,-1.475 1.55,-1.475 0.892,0 1.102,1.022 1.028,1.836 -0.065,0.864 -0.665,1.675 -1.733,1.675 z"
         inkscape:connector-curvature="0"
         style="fill:#ffe100" />
      <path
         id="path168"
         d="m 356.12,84.392 c 0.006,1.563 -0.179,2.496 -1.762,2.982 0.14,0.232 0.324,0.39 0.558,0.39 1.068,0 1.668,-0.811 1.733,-1.675 0.058,-0.632 -0.057,-1.39 -0.529,-1.697 z"
         inkscape:connector-curvature="0"
         style="fill:#d9a005" />
      <path
         id="path170"
         d="m 354.916,87.76 c -0.671,0 -0.956,-1.256 -0.845,-2.035 0.112,-0.78 0.823,-1.475 1.55,-1.475 0.892,0 1.102,1.022 1.028,1.836 -0.065,0.864 -0.665,1.675 -1.733,1.675 z"
         inkscape:connector-curvature="0"
         style="fill:none;stroke:#000000;stroke-width:0.23503" />
    </g>
    <g
       id="g188">
      <path
         id="path174"
         d="m 377.693,84.448 c -0.157,2.968 -2.215,5.156 -5.573,5.405 -2.884,0.214 -5.119,-1.669 -4.946,-4.93 0.157,-2.967 2.334,-5.465 5.515,-5.61 2.889,-0.131 5.162,2.168 5.004,5.135 z"
         inkscape:connector-curvature="0"
         style="fill:#d9a005" />
      <path
         id="path176"
         d="m 372.279,79.346 c -2.956,0.332 -4.954,2.738 -5.105,5.575 -0.122,2.307 0.957,3.925 2.622,4.598 0.828,-0.167 1.523,-0.377 1.983,-0.676 -0.33,-0.155 -0.535,-0.391 -0.763,-0.543 0.525,0.047 1.572,0.121 2.313,0 0.741,-0.121 0.957,-0.562 0.647,-1.08 -0.158,-0.262 -1.264,-0.26 -1.572,-0.272 -0.486,-0.018 -0.845,-0.345 -1,-0.602 2.07,-0.892 2.394,-1.563 1.198,-3.357 -0.252,-0.362 0.347,-0.357 0.477,-0.852 0.097,-0.365 -0.207,-1.06 -1.27,-1.028 -0.15,-0.656 0.226,-1.11 0.279,-1.69 0.064,-0.029 0.127,-0.049 0.19,-0.073 z"
         inkscape:connector-curvature="0"
         style="fill:#ffe100" />
      <path
         id="path178"
         d="m 374.066,84.748 a 1.87,1.87 0 1 1 -3.74,0 1.87,1.87 0 0 1 3.74,0 z"
         inkscape:connector-curvature="0"
         style="fill:none;stroke:#000000;stroke-width:0.23503;stroke-linecap:round;stroke-linejoin:round" />
      <path
         id="path180"
         d="m 370.888,87.47 c -1.034,0.884 0.796,0.955 1.579,0.955 1.181,0 2.593,-0.068 1.952,-1.35 m -3.313,-4.685 c -0.96,-0.783 0.494,-1.475 1.464,-1.475 1.343,0 2.223,0.59 1.091,1.58"
         inkscape:connector-curvature="0"
         style="fill:none;stroke:#000000;stroke-width:0.23503" />
      <path
         id="path182"
         d="m 374.556,82.891 c -0.116,0.35 0.205,0.746 0.205,1.05 0,0.807 0.521,1.633 0.808,0.485 0.071,-0.284 0.021,-1.025 -0.148,-1.492 -0.17,-0.466 -0.458,-0.857 -0.865,-0.043 z"
         inkscape:connector-curvature="0"
         style="fill:#ffe100" />
      <path
         id="path184"
         d="m 374.6,85.863 c 0.957,0.726 1.44,-0.264 1.44,-2.083 0,-1.288 -1.275,-2.418 -1.514,-0.705 m -3.991,-0.092 c -1.327,-1.06 -1.661,0.567 -1.97,1.89 -0.483,2.063 0.797,3.209 1.596,1.928"
         inkscape:connector-curvature="0"
         style="fill:none;stroke:#000000;stroke-width:0.23503" />
      <path
         id="path186"
         transform="matrix(0.23503,-0.01068,-0.01248,0.2356,293.977,-16.122)"
         d="m 379.77,444.085 c 0,12.594 -8.282,21.509 -22.55,21.918 -12.252,0.351 -22.208,-8.092 -22.208,-21.93 0,-12.594 8.722,-22.804 22.254,-22.804 12.29,0 22.504,10.222 22.504,22.816 z"
         inkscape:connector-curvature="0"
         style="fill:none;stroke:#000000;stroke-linecap:round;stroke-linejoin:round" />
    </g>
    <g
       id="g204">
      <path
         id="path190"
         d="m 398.139,84.807 c -0.177,2.425 -1.753,4.571 -3.984,4.242 -2.543,-0.376 -3.999,-2.287 -4.072,-4.858 -0.077,-2.721 1.823,-4.412 4.072,-4.242 2.249,0.17 4.151,2.555 3.984,4.858 z"
         inkscape:connector-curvature="0"
         style="fill:#d9a005" />
      <path
         id="path192"
         d="m 392.462,80.544 a 2.457,2.457 0 0 0 -0.72,0.08 h -0.065 c -0.997,0.718 -1.64,1.965 -1.594,3.57 0.041,1.465 0.533,2.71 1.417,3.584 l 0.015,-0.014 c -0.111,-0.845 0.53,-1.12 0.852,-1.602 0.226,0.697 1.667,1.56 2.1,0.706 0.266,-0.523 -1.028,-0.865 -1.454,-1.352 2.112,0.12 2.655,-2.149 0.882,-2.835 0.355,-0.63 1.36,-0.245 0.874,-1.22 -0.115,-0.23 -0.245,-0.459 -0.426,-0.557 -0.19,-0.103 -1.093,-0.349 -1.88,-0.36 z"
         inkscape:connector-curvature="0"
         style="fill:#ffe100" />
      <path
         id="path194"
         d="m 395.755,84.25 a 1.579,1.579 0 1 1 -3.158,0 1.579,1.579 0 0 1 3.158,0 z"
         inkscape:connector-curvature="0"
         style="fill:none;stroke:#000000;stroke-width:0.23503;stroke-linecap:round;stroke-linejoin:round" />
      <path
         id="path196"
         d="m 392.43,85.808 c 0,0.868 0.116,1.14 1.015,1.512 0.624,0.26 1.52,0.215 1.52,-0.432 m -1.827,-4.533 c -0.804,-0.961 -1.595,-0.148 -1.818,0.881 -0.215,0.996 0.02,1.95 0.922,1.91 m 1.268,-3.326 c -1.303,-1.313 0.31,-1.162 1.33,-0.811 0.774,0.266 1.452,1.057 0.686,1.516 m 0.457,0.728 c 0.802,-0.181 0.703,1.008 0.727,1.62 0.033,0.819 -0.278,1.847 -1.1,1.6"
         inkscape:connector-curvature="0"
         style="fill:none;stroke:#000000;stroke-width:0.23503" />
      <path
         id="path198"
         d="m 396.605,81.102 c 0.454,0.693 0.826,1.482 0.978,2.108 0.76,3.128 -1.313,5.533 -3.328,5.501 -0.367,-0.006 -1.303,-0.08 -2.02,-0.36 0.545,0.343 1.183,0.59 1.917,0.698 2.23,0.33 3.812,-1.82 3.988,-4.245 0.1,-1.369 -0.535,-2.758 -1.535,-3.702 z"
         inkscape:connector-curvature="0"
         style="fill:#a37508" />
      <path
         id="path200"
         transform="matrix(0.23503,0.01779,0,0.23503,287.77,-27.487)"
         d="m 469.586,442.246 c -0.75,10.372 -7.457,20.013 -16.95,19.328 -10.817,-0.78 -17.012,-8.44 -17.323,-19.357 -0.33,-11.552 7.756,-19.357 17.324,-19.357 9.568,0 17.661,9.53 16.949,19.386 z"
         inkscape:connector-curvature="0"
         style="fill:none;stroke:#000000;stroke-linecap:round;stroke-linejoin:round" />
      <path
         id="path202"
         d="m 396.201,85.168 c -0.176,-0.1 -0.234,0.145 -0.294,0.264 -0.052,0.106 -0.153,0.117 -0.22,0.184 -0.029,0.029 -0.041,0.157 -0.037,0.198 0.03,0.287 0.272,0.223 0.455,0.038 0.182,-0.185 0.305,-0.49 0.096,-0.684 z"
         inkscape:connector-curvature="0"
         style="fill:#ffe100" />
    </g>
    <g
       id="g212">
      <path
         id="path206"
         d="m 358.637,96.639 c -0.134,1.083 -0.045,1.648 0.193,2.064 0.237,0.415 0.74,0.846 1.528,0.846 0.789,0 1.616,-0.454 1.832,-1.261 0.184,-0.685 0.142,-1.435 -0.244,-2.013 -0.386,-0.58 -0.849,-1.088 -0.849,-1.088 -1.537,0 -2.327,0.369 -2.46,1.452 z"
         inkscape:connector-curvature="0"
         style="fill:#d9a005" />
      <path
         id="path208"
         d="m 360.145,95.255 c -0.913,0.147 -1.403,0.551 -1.505,1.381 -0.091,0.735 -0.077,1.228 0.014,1.601 0.91,0.921 2.181,0.851 2.556,0.074 0.398,-0.825 0.523,-2.53 -1.065,-3.056 z"
         inkscape:connector-curvature="0"
         style="fill:#ffe100" />
      <path
         id="path210"
         d="m 358.637,96.639 c -0.134,1.083 -0.045,1.648 0.193,2.064 0.237,0.415 0.74,0.846 1.528,0.846 0.789,0 1.616,-0.454 1.832,-1.261 0.184,-0.685 0.142,-1.435 -0.244,-2.013 -0.386,-0.58 -0.849,-1.088 -0.849,-1.088 -1.537,0 -2.327,0.369 -2.46,1.452 z"
         inkscape:connector-curvature="0"
         style="fill:none;stroke:#000000;stroke-width:0.23503" />
    </g>
    <g
       id="g220">
      <path
         id="path214"
         d="m 367.27,99.531 c -1.17,0 -1.996,-0.674 -2.057,-1.92 -0.074,-1.518 0.474,-2.403 2.42,-2.403 1.075,0.556 1.377,1.451 1.295,2.56 -0.07,0.943 -0.712,1.763 -1.658,1.763 z"
         inkscape:connector-curvature="0"
         style="fill:#d9a005" />
      <path
         id="path216"
         d="m 366.675,95.3 c -1.171,0.264 -1.522,1.082 -1.462,2.313 0.005,0.107 0.02,0.21 0.037,0.309 0.27,0.579 0.822,0.976 1.454,0.976 0.9,0 1.63,-0.807 1.63,-1.8 0,-0.992 -0.73,-1.799 -1.63,-1.799 -0.01,0.002 -0.02,-0.002 -0.03,0 z"
         inkscape:connector-curvature="0"
         style="fill:#ffe100" />
      <path
         id="path218"
         d="m 367.27,99.531 c -1.17,0 -1.996,-0.674 -2.057,-1.92 -0.074,-1.518 0.474,-2.403 2.42,-2.403 1.075,0.556 1.377,1.451 1.295,2.56 -0.07,0.943 -0.712,1.763 -1.658,1.763 z"
         inkscape:connector-curvature="0"
         style="fill:none;stroke:#000000;stroke-width:0.23503" />
    </g>
    <g
       id="g228">
      <path
         id="path222"
         d="m 376.29,94.824 c -1.792,-0.112 -2.761,0.427 -2.702,2.223 0.036,1.076 0.68,2.015 1.953,2.015 1.175,0 1.803,-0.853 1.757,-2.274 -0.024,-0.77 -0.58,-1.534 -1.009,-1.964 z"
         inkscape:connector-curvature="0"
         style="fill:#d9a005" />
      <path
         id="path224"
         d="m 375.158,94.866 c -1.058,0.177 -1.617,0.813 -1.572,2.181 0.014,0.418 0.126,0.81 0.323,1.139 1.135,0.347 1.967,-0.2 2.16,-1.014 0.26,-1.103 -0.092,-1.588 -0.911,-2.306 z"
         inkscape:connector-curvature="0"
         style="fill:#ffe100" />
      <path
         id="path226"
         d="m 376.29,94.824 c -1.792,-0.112 -2.761,0.427 -2.702,2.223 0.036,1.076 0.68,2.015 1.953,2.015 1.175,0 1.803,-0.853 1.757,-2.274 -0.024,-0.77 -0.58,-1.534 -1.009,-1.964 z"
         inkscape:connector-curvature="0"
         style="fill:none;stroke:#000000;stroke-width:0.23503" />
    </g>
    <path
       id="path230"
       d="m 383.906,93.287 c -0.257,0.032 -0.51,0.067 -0.764,0.103 l 0.183,4.664 c 0.248,-0.038 0.496,-0.071 0.742,-0.103 0.999,-0.827 1.081,-1.591 1.065,-2.306 -0.018,-0.829 -0.432,-1.649 -1.226,-2.358 z"
       inkscape:connector-curvature="0"
       style="fill:#a37508" />
    <g
       id="g238">
      <path
         id="path232"
         d="m 383.502,93.401 c -1.932,0.15 -2.807,0.613 -2.512,2.718 0.14,0.996 0.853,1.833 1.983,1.733 1.389,-0.122 1.752,-1.414 1.572,-2.629 -0.103,-0.691 -0.561,-1.378 -1.043,-1.822 z"
         inkscape:connector-curvature="0"
         style="fill:#d9a005" />
      <path
         id="path234"
         d="m 382.393,93.559 c -1.147,0.273 -1.634,0.916 -1.403,2.563 0.028,0.198 0.082,0.386 0.154,0.566 1.927,0.541 2.634,-2.114 1.249,-3.13 z"
         inkscape:connector-curvature="0"
         style="fill:#ffe100" />
      <path
         id="path236"
         d="m 383.502,93.401 c -1.932,0.15 -2.807,0.613 -2.512,2.718 0.14,0.996 0.853,1.833 1.983,1.733 1.389,-0.122 1.752,-1.414 1.572,-2.629 -0.103,-0.691 -0.561,-1.378 -1.043,-1.822 z"
         inkscape:connector-curvature="0"
         style="fill:none;stroke:#000000;stroke-width:0.23503" />
    </g>
    <path
       id="path240"
       d="m 390.567,93.081 v 4.686 c 0.495,0.037 0.988,0.087 1.491,0.147 0.891,-0.789 0.963,-1.524 0.948,-2.21 -0.02,-0.897 -0.496,-1.789 -1.425,-2.535 l -0.08,-0.029 c -0.317,-0.026 -0.629,-0.04 -0.934,-0.059 z"
       inkscape:connector-curvature="0"
       style="fill:#a37508" />
    <g
       id="g248">
      <path
         id="path242"
         d="m 390.976,93.37 c -1.923,-0.029 -2.364,0.55 -2.326,2.202 0.028,1.251 0.57,2.067 1.807,2.077 1.177,0.01 1.913,-1.151 1.87,-2.285 -0.03,-0.81 -0.645,-1.984 -1.35,-1.994 z"
         inkscape:connector-curvature="0"
         style="fill:#d9a005" />
      <path
         id="path244"
         d="m 390.325,93.39 c -1.372,0.114 -1.707,0.736 -1.675,2.181 0.006,0.246 0.034,0.474 0.081,0.683 1.57,0.81 2.493,-1.478 1.609,-2.864 z"
         inkscape:connector-curvature="0"
         style="fill:#ffe100" />
      <path
         id="path246"
         d="m 390.976,93.37 c -1.923,-0.029 -2.364,0.55 -2.326,2.202 0.028,1.251 0.57,2.067 1.807,2.077 1.177,0.01 1.913,-1.151 1.87,-2.285 -0.03,-0.81 -0.645,-1.984 -1.35,-1.994 z"
         inkscape:connector-curvature="0"
         style="fill:none;stroke:#000000;stroke-width:0.23503" />
    </g>
    <path
       id="path250"
       d="m 401.016,99.99 c 0,-1.517 0.08,-3.575 -0.044,-5.22 -12.512,-3.024 -17.273,-1.54 -24.722,-0.118 -5.25,1.002 -14.402,-0.092 -21.174,0.801 -0.12,1.792 -0.594,3.892 0.089,5.372 2.977,-2.076 17.277,-0.016 22.86,-1.596 7.72,-2.184 13.986,-2.179 22.991,0.76 z"
       inkscape:connector-curvature="0"
       style="fill:none;stroke:#000000;stroke-width:0.23503;stroke-linejoin:round" />
    <g
       id="g258">
      <path
         id="path252"
         d="m 401.09,95.216 c -1.757,0.878 -1.374,2.854 -0.103,3.843 1.817,-1.395 1.558,-2.801 0.104,-3.843 z"
         inkscape:connector-curvature="0"
         style="fill:#a37508" />
      <path
         id="path254"
         d="m 400.88,95.343 c -0.99,0.61 -1.156,1.61 -0.808,2.498 1.359,0.33 2.059,-1.321 0.822,-2.498 -0.004,0 -0.01,0.002 -0.014,0 z"
         inkscape:connector-curvature="0"
         style="fill:#d9a005" />
      <path
         id="path256"
         d="m 401.09,95.216 c -1.757,0.878 -1.374,2.854 -0.103,3.843 1.817,-1.395 1.558,-2.801 0.104,-3.843 z"
         inkscape:connector-curvature="0"
         style="fill:none;stroke:#000000;stroke-width:0.23503" />
    </g>
    <g
       id="g266">
      <path
         id="path260"
         d="m 355.754,95.501 c -0.622,0 -0.727,-0.063 -1.187,0.32 -0.6,0.499 -1.015,1.337 -1.015,2.105 0,0.768 0.497,1.296 0.979,1.764 0.372,0.36 0.675,0.334 1.081,0.334 0.559,0 1.135,-0.939 1.247,-2.046 0.112,-1.107 -0.308,-2.477 -1.105,-2.477 z"
         inkscape:connector-curvature="0"
         style="fill:#d9a005" />
      <path
         id="path262"
         d="m 355.224,95.498 c -0.223,0.015 -0.366,0.084 -0.653,0.323 -0.6,0.499 -1.021,1.34 -1.021,2.108 0,0.256 0.062,0.48 0.154,0.69 0.405,0.393 0.952,0.601 1.564,0.397 0.69,-0.23 1.074,-1.368 0.823,-2.306 a 2.31,2.31 0 0 0 -0.8,-1.212 c -0.022,0 -0.047,-0.002 -0.067,0 z"
         inkscape:connector-curvature="0"
         style="fill:#ffe100" />
      <path
         id="path264"
         d="m 355.754,95.501 c -0.622,0 -0.727,-0.063 -1.187,0.32 -0.6,0.499 -1.015,1.337 -1.015,2.105 0,0.768 0.497,1.296 0.979,1.764 0.372,0.36 0.675,0.334 1.081,0.334 0.559,0 1.135,-0.939 1.247,-2.046 0.112,-1.107 -0.308,-2.477 -1.105,-2.477 z"
         inkscape:connector-curvature="0"
         style="fill:none;stroke:#000000;stroke-width:0.23503" />
    </g>
    <g
       id="g270">
      <path
         id="path268"
         d="m 427.599,119.655 c 0.3,1.224 0.608,3.72 -0.05,4.755 -4.48,-0.03 -4.633,0.898 -6.896,0.898 1.027,-2.69 5.283,-3.093 6.946,-5.653 z m -105.198,0 c -0.3,1.224 -0.608,3.72 0.05,4.755 4.48,-0.03 4.633,0.898 6.896,0.898 -1.027,-2.69 -5.283,-3.093 -6.946,-5.653 z m 45.829,27.337 c 1.025,0 3.869,-1.199 4.047,-2.017 -4.373,-0.07 -8.916,-6.776 -12.575,-9.48 1.02,0 3.578,-1.464 3.78,-2.22 -2.205,0.262 -7.274,-5.427 -16.501,-8.674 0.234,-0.872 1.865,-0.742 4.323,-2.783 1.285,-1.068 2.735,-2.7 3.016,-5.255 -5.977,2.126 -12.203,0.31 -18.183,-1.292 -8.238,-2.208 -14.398,-3.928 -16.07,3.01 -2.212,-1.276 -6.514,-1.712 -8.494,-1.586 -3.057,0.194 -9.228,2.384 -9.228,7.95 0,1.789 -0.064,3.542 0.928,4.73 1.9,-5.773 8.141,-1.443 10.894,0 1.902,0.996 3.026,1.605 4.11,2.231 -1.944,0 -3.316,-0.31 -4.994,-0.73 -3.118,-0.779 -7.253,0.332 -10.425,0.332 -4.938,0 -7.066,-4.485 -6.495,-11 -1.856,0 -3.268,0.83 -3.973,2.095 -2.465,4.422 1.535,10.978 6.729,12.595 4.78,1.489 9.954,-0.13 11.932,-0.52 4.536,-0.893 10.6,-0.864 14.088,1.673 -1.296,0 -3.41,0.089 -4.844,0.375 -2.464,0.493 -4.734,0.688 -6.343,-0.462 2.842,7.85 11.34,6.17 18.75,6.993 2.794,0.75 13.383,3.94 18.503,15.632 4.745,10.832 0.247,27.397 -14.254,24.933 0.47,1.819 0.953,3.64 1.612,5.468 -4.346,1.196 -13.939,-3.909 -10.707,-8.577 10.296,-14.868 -12.814,-27.001 -19.686,-30.969 -0.754,1.137 -1.539,2.235 -2.533,3.051 -12.435,-8.58 -38.63,-22.474 -39.028,-32.062 -0.18,-4.344 -2.128,-6.271 -4.547,-6.448 -4.032,-0.294 -9.313,4.247 -9.44,10.304 -0.268,12.743 10.328,21.13 21.586,27.515 11.257,6.386 23.193,10.15 25.558,14.679 -13.876,-4.084 -34.155,-10.837 -37.934,-17.384 -4.28,-7.803 -11.328,0.232 -9.038,7.829 2.34,7.76 11.243,12.97 24.925,16.635 11.129,2.982 21.57,4.247 21.932,8.232 -7.139,0.143 -26.725,-0.764 -31.315,-5.354 -2.237,-2.237 -5.36,-5.44 -8.75,-5.698 -8.42,-0.644 -6.67,9.946 -3.165,14.39 6.331,8.03 27.52,8.056 44.669,7.541 -7.797,6.445 -33.363,4.345 -41.388,-1.209 -10.134,-0.902 -8.253,11.644 0.748,14.449 9.13,2.844 27.514,2.907 35.862,-1.267 5.531,-2.765 4.893,1.727 4.893,1.727 -6.147,4.02 -20.484,6.835 -31.775,6.505 -7.086,-0.207 -10.993,-6.274 -14.506,-2.82 -5.006,4.92 0.214,15.08 13.124,15.08 11.96,-0.219 29.361,-5.735 36.726,-11.627 -0.954,9.206 -37.632,27.439 -46.8,15.081 -10.726,3.754 -3.64,18.095 5.24,19.284 19.265,2.579 33.214,-12.895 46.683,-21.874 -12.459,12.743 -30.542,37.745 -50.138,27.63 -9.88,4.183 0.019,17.845 7.944,17.845 25.049,0 41.139,-24.453 51.116,-34.768 -4.255,15.88 -16.559,29.528 -31.142,30.854 -2.713,7.596 7.348,11.103 12.895,9.037 13.076,-4.871 25.503,-20.34 27.687,-32.35 3.35,6.563 -4.182,18.539 -10.073,20.895 3.262,10.272 16.91,1.067 17.154,-9.67 2.317,8.647 -0.275,17.859 -4.836,22.564 -6.326,6.528 -12.31,7.195 -23.83,6.16 -0.17,3.713 0.673,8.41 2.302,11.397 0,0 -12.174,-0.282 -16.463,0.978 -3.856,1.134 -4.037,3.233 -8.29,2.879 -2.003,-1.73 -3.157,-3.101 -5.928,-3.857 -2.255,-2.194 -4.362,-7.315 -7.484,-7.368 -1.44,-0.025 -2.342,0.373 -3.684,1.554 -3.016,-1.791 -8.262,0.476 -9.152,3.742 6.488,0.038 5.026,6.216 9.67,6.216 1.244,0 2.188,1.477 2.188,2.821 -7.944,-0.645 -16.349,-2.919 -14.621,5.814 -4.374,1.512 -7.192,5.826 -4.663,9.44 1.428,-1.4 2.573,-2.971 4.375,-3.626 5.353,3.257 8.203,-1.337 11.57,-3.281 2.13,-1.23 5.871,-0.823 4.72,1.093 -1.57,2.615 -16.046,6.578 -11.915,12.722 -1.737,5.922 -0.622,10.02 3.454,13.009 -0.102,-2.806 0.476,-6.247 1.727,-8.29 8.746,0 6.61,-3.44 9.382,-7.597 1.364,-2.045 5.205,-7.023 8.635,-7.023 9.024,0 3.304,15.828 16.578,14.62 0.689,3.114 -1.619,5.536 -2.82,7.081 4.878,-0.58 9.152,-2.892 9.152,-8.116 5.396,-17.094 -15.254,-12.81 -15.254,-21.414 25.783,0 37.646,-3.534 37.646,14.91 20.834,-10.868 17.808,-38.176 23.025,-40.065 3.032,-1.098 6.852,1.087 7.138,4.72 1.083,13.744 -4.815,25.088 -11.858,33.387 -6.726,7.925 -16.955,9.258 -28.551,8.634 0.458,5.237 2.78,9.725 5.123,13.24 13.763,-0.972 25.966,-9.337 33.847,-20.838 -3.938,14.697 -18.593,22.862 -31.091,25.182 1.64,4.051 5.663,8.667 10.778,11.619 11.166,-6.77 20.47,-15.695 25.206,-27.533 -1.7,14.419 -9.988,25.181 -20.418,31.904 2.338,3.487 7.851,7.905 12.846,10.467 9.193,-12.52 12.688,-28.13 17.012,-42.544 0.127,12.957 -2.595,36.868 -10.304,46.856 3.784,4.038 9.94,9.095 14.448,9.095 4.507,0 10.664,-5.057 14.448,-9.095 -7.71,-9.988 -10.431,-33.899 -10.304,-46.856 4.324,14.414 7.819,30.023 17.012,42.544 4.995,-2.562 10.508,-6.98 12.846,-10.467 -10.43,-6.723 -18.718,-17.485 -20.418,-31.904 4.735,11.838 14.04,20.764 25.206,27.533 5.115,-2.952 9.137,-7.568 10.778,-11.619 -12.498,-2.32 -27.153,-10.485 -31.09,-25.182 7.88,11.501 20.083,19.866 33.846,20.838 2.343,-3.515 4.665,-8.003 5.123,-13.24 -11.596,0.624 -21.825,-0.71 -28.55,-8.634 -7.044,-8.3 -12.942,-19.643 -11.859,-33.387 0.286,-3.633 4.106,-5.818 7.138,-4.72 5.217,1.89 2.19,29.197 23.025,40.064 0,-18.443 11.863,-14.909 37.646,-14.909 0,8.603 -20.65,4.32 -15.254,21.414 0,5.224 4.274,7.535 9.153,8.116 -1.202,-1.545 -3.51,-3.967 -2.82,-7.08 13.273,1.207 7.553,-14.621 16.577,-14.621 3.43,0 7.271,4.978 8.635,7.023 2.771,4.157 0.636,7.598 9.382,7.598 1.251,2.042 1.829,5.483 1.727,8.289 4.076,-2.989 5.191,-7.087 3.454,-13.01 4.131,-6.143 -10.345,-10.106 -11.915,-12.72 -1.151,-1.917 2.59,-2.324 4.72,-1.094 3.367,1.944 6.217,6.538 11.57,3.28 1.802,0.656 2.947,2.227 4.375,3.627 2.53,-3.614 -0.289,-7.928 -4.663,-9.44 1.728,-8.733 -6.677,-6.459 -14.621,-5.814 0,-1.344 0.944,-2.82 2.188,-2.82 4.644,0 3.182,-6.179 9.67,-6.217 -0.89,-3.266 -6.136,-5.533 -9.152,-3.742 -1.342,-1.18 -2.244,-1.579 -3.684,-1.554 -3.122,0.053 -5.23,5.174 -7.484,7.368 -2.771,0.756 -3.925,2.127 -5.929,3.857 -4.252,0.354 -4.433,-1.745 -8.289,-2.879 -4.289,-1.26 -16.463,-0.978 -16.463,-0.978 1.63,-2.987 2.472,-7.684 2.303,-11.398 -11.52,1.036 -17.505,0.369 -23.831,-6.159 -4.56,-4.705 -7.153,-13.917 -4.836,-22.565 0.244,10.738 13.892,19.943 17.154,9.671 -5.89,-2.356 -13.423,-14.332 -10.073,-20.895 2.184,12.01 14.611,27.479 27.687,32.35 5.547,2.066 15.608,-1.441 12.895,-9.037 -14.583,-1.326 -26.887,-14.974 -31.142,-30.854 9.977,10.315 26.067,34.768 51.116,34.768 7.925,0 17.823,-13.662 7.944,-17.845 -19.596,10.115 -37.68,-14.887 -50.138,-27.63 13.469,8.98 27.418,24.453 46.684,21.874 8.88,-1.189 15.965,-15.53 5.238,-19.284 -9.167,12.358 -45.845,-5.875 -46.799,-15.081 7.365,5.892 24.767,11.408 36.726,11.628 12.91,0 18.13,-10.162 13.124,-15.082 -3.513,-3.453 -7.42,2.614 -14.506,2.82 -11.291,0.33 -25.628,-2.485 -31.775,-6.504 0,0 -0.638,-4.492 4.893,-1.727 8.348,4.174 26.732,4.111 35.862,1.267 9,-2.805 10.882,-15.351 0.748,-14.449 -8.025,5.554 -33.591,7.654 -41.388,1.21 17.149,0.514 38.338,0.488 44.67,-7.542 3.504,-4.444 5.254,-15.034 -3.167,-14.39 -3.389,0.259 -6.512,3.46 -8.75,5.698 -4.59,4.59 -24.175,5.497 -31.314,5.354 0.363,-3.985 10.803,-5.25 21.932,-8.232 13.682,-3.666 22.585,-8.875 24.925,-16.635 2.29,-7.597 -4.758,-15.632 -9.038,-7.83 -3.78,6.548 -24.058,13.3 -37.934,17.385 2.365,-4.53 14.3,-8.293 25.558,-14.679 11.258,-6.386 21.854,-14.772 21.587,-27.515 -0.128,-6.057 -5.409,-10.598 -9.44,-10.304 -2.42,0.177 -4.368,2.104 -4.548,6.448 -0.397,9.588 -26.593,23.481 -39.028,32.062 -0.994,-0.816 -1.779,-1.914 -2.533,-3.05 -6.872,3.967 -29.982,16.1 -19.686,30.968 3.232,4.668 -6.36,9.773 -10.707,8.577 0.66,-1.827 1.142,-3.65 1.612,-5.468 -14.501,2.464 -18.999,-14.101 -14.254,-24.933 5.12,-11.691 15.71,-14.883 18.503,-15.632 7.41,-0.823 15.908,0.858 18.75,-6.993 -1.609,1.15 -3.88,0.955 -6.343,0.462 -1.433,-0.286 -3.548,-0.375 -4.844,-0.375 3.488,-2.537 9.552,-2.566 14.088,-1.672 1.978,0.39 7.153,2.008 11.932,0.52 5.194,-1.618 9.194,-8.174 6.729,-12.596 -0.705,-1.265 -2.117,-2.095 -3.973,-2.095 0.57,6.515 -1.557,11 -6.495,11 -3.172,0 -7.307,-1.11 -10.425,-0.331 -1.678,0.42 -3.05,0.729 -4.994,0.729 1.084,-0.626 2.208,-1.235 4.11,-2.232 2.753,-1.442 8.993,-5.772 10.894,0 0.992,-1.187 0.928,-2.94 0.928,-4.729 0,-5.566 -6.17,-7.756 -9.228,-7.95 -1.98,-0.126 -6.282,0.31 -8.494,1.586 -1.672,-6.938 -7.832,-5.218 -16.07,-3.01 -5.98,1.602 -12.206,3.418 -18.183,1.292 0.281,2.555 1.73,4.187 3.016,5.255 2.458,2.041 4.09,1.91 4.323,2.783 -9.227,3.247 -14.296,8.936 -16.502,8.674 0.203,0.756 2.76,2.22 3.781,2.22 -3.659,2.704 -8.202,9.41 -12.575,9.48 0.178,0.818 3.022,2.017 4.047,2.017 -3.518,2.724 -6.77,8.147 -6.77,8.147 0,0 -3.252,-5.423 -6.77,-8.147 z"
         inkscape:connector-curvature="0"
         style="fill-rule:evenodd" />
    </g>
  </g>
</svg>
