<?xml version="1.0" encoding="UTF-8" standalone="no"?>
<svg
   xmlns:dc="http://purl.org/dc/elements/1.1/"
   xmlns:cc="http://creativecommons.org/ns#"
   xmlns:rdf="http://www.w3.org/1999/02/22-rdf-syntax-ns#"
   xmlns:svg="http://www.w3.org/2000/svg"
   xmlns="http://www.w3.org/2000/svg"
   xmlns:sodipodi="http://sodipodi.sourceforge.net/DTD/sodipodi-0.dtd"
   xmlns:inkscape="http://www.inkscape.org/namespaces/inkscape"
   width="1200"
   height="600"
   id="svg2"
   version="1.1"
   inkscape:version="0.48.2 r9819"
   sodipodi:docname="AJAX.svg">
  <metadata
     id="metadata42">
    <rdf:RDF>
      <cc:Work
         rdf:about="">
        <dc:format>image/svg+xml</dc:format>
        <dc:type
           rdf:resource="http://purl.org/dc/dcmitype/StillImage" />
      </cc:Work>
    </rdf:RDF>
  </metadata>
  <defs
     id="defs40" />
  <sodipodi:namedview
     pagecolor="#ffffff"
     bordercolor="#666666"
     borderopacity="1"
     objecttolerance="10"
     gridtolerance="10"
     guidetolerance="10"
     inkscape:pageopacity="0"
     inkscape:pageshadow="2"
     inkscape:window-width="1280"
     inkscape:window-height="1004"
     id="namedview38"
     showgrid="false"
     fit-margin-top="0"
     fit-margin-left="0"
     fit-margin-right="0"
     fit-margin-bottom="0"
     inkscape:zoom="0.53666667"
     inkscape:cx="960.32095"
     inkscape:cy="-22.743977"
     inkscape:window-x="-8"
     inkscape:window-y="-8"
     inkscape:window-maximized="1"
     inkscape:current-layer="svg2" />
  <rect
     width="1200"
     height="600"
     id="rect4"
     style="fill:#019801;stroke:none"
     x="0"
     y="0" />
  <rect
     x="325"
     width="550"
     height="600"
     id="rect6"
     style="fill:#f7ce18;fill-opacity:1;stroke:none"
     y="0" />
  <rect
     x="415"
     width="370"
     height="600"
     id="rect8"
     style="fill:#00297b;fill-opacity:1;stroke:none"
     y="0" />
  <g
     transform="matrix(3.0777637,0,0,3.1425072,-819.12189,-644.5228)"
     id="g10"
     style="fill:#ffe700">
    <path
       d="m 537.46875,25 c -1.03653,0.0129 -1.53215,0.05763 -1.59375,0.0625 -0.004,2.86e-4 -0.0937,0 -0.0937,0 -19.26182,0.01865 -31.37194,5.689466 -38.5625,13.03125 l 18.4375,34.6875 c -0.28392,0.248919 -0.56269,0.491349 -0.84375,0.75 -15.71728,19.389207 -5.21875,34.09375 -5.21875,34.09375 0,0 -41.26876,11.36484 -42.90625,18.71875 -1.63746,7.35645 46.5,-1.3125 46.5,-1.3125 l -0.15625,1.1875 c -0.28305,-0.28674 -0.55536,-0.57062 -0.8125,-0.875 -3.60243,3.00945 -22.5997,23.08359 -3.9375,30.4375 0.27029,-0.0748 0.48923,-0.14455 0.75,-0.21875 l -0.4375,3.21875 c 0,0 -93.64392,86.90384 -21.9375,162.125 0.65501,-0.33439 2.3125,-3.34375 2.3125,-3.34375 0,0 25.19914,31.76174 51.71875,38.78125 19.75219,20.69852 22.37991,22.44359 22.625,22.28125 0.12569,1.06068 4.83431,41.02096 0.3125,48.9375 -6.22241,-2.0063 -69.75267,-4.33191 -79.25,-0.65625 -8.51239,2.67509 -41.24738,1.00556 -33.0625,55.5 6.21991,-14.71036 11.78125,-27.75 11.78125,-27.75 0,0 -0.98487,19.72791 6.875,26.75 C 468.65876,460.67698 477.5,446.625 477.5,446.625 c 0,0 1.62132,22.7212 6.53125,26.0625 4.91242,3.34385 4.91663,-36.7501 32.09375,-33.40625 27.17459,3.34385 46.84375,2.3125 46.84375,2.3125 0,0 9.16623,78.58105 6.21875,85.9375 -19.64721,-4.68136 -66.49005,1.99595 -69.4375,14.03125 27.50207,-1.67194 40.28125,1.6875 40.28125,1.6875 0,0 -22.24989,20.04909 -15.375,31.75 0,0 35.67978,-41.77836 105.09375,-32.75 -10.47735,-17.38542 -44.1875,-15.40625 -44.1875,-15.40625 0,0 -10.49738,-81.2374 -2.3125,-85.25 8.18485,-4.0126 42.90625,0.34375 42.90625,0.34375 4.58245,0 12.43866,-12.69609 6.21875,-20.71875 -6.22241,-8.02524 -24.56115,-38.79359 -17.03125,-44.8125 7.5324,-6.01636 48.46875,3.34375 48.46875,3.34375 L 640.75,349.625 c 23.54367,21.25117 33.53125,45.84375 33.53125,45.84375 0.1933,0.26316 0.72672,-3.90831 1.375,-10.65625 2.99238,9.38815 2.794,19.04679 -2.6875,28.375 23.24967,-15.71351 15.71875,-43.125 15.71875,-43.125 0,0 18.97929,50.47939 -27.1875,75.21875 4.91242,4.34697 8.1875,3.34375 8.1875,3.34375 l -7.84375,8.03125 c 0,0 -3.60702,6.00415 27.5,-9.375 -8.51485,7.02209 -9.15625,12.03125 -9.15625,12.03125 0,0 2.29156,6.71043 22.59375,-11.34375 -16.37226,18.05418 -20,27.39686 -20,27.0625 41.9193,-3.8054 130.66525,-136.00543 -6.0625,-186.71875 -0.79294,-2.6626 -1.80633,-4.27461 -3.09375,-4.5 -11.45984,-2.0063 -91.36401,-43.11169 -108.71875,-51.46875 -8.10116,-3.90281 -12.84911,-4.11412 -15.875,-2.625 l -0.8125,-1.0625 c 0,0 -11.79337,-56.83558 11.78125,-84.25 28.4871,-24.07057 25.54498,-50.146894 24.5625,-49.8125 -0.0812,-0.545575 -0.2016,-1.085982 -0.3125,-1.625 0,0.334394 30.4525,-7.040606 30.125,-7.375 -1.91505,-14.336627 -6.98747,-23.896569 -19.0625,-37.0625 -6.6e-4,3.5e-4 0.0639,-0.06397 0.0625,-0.0625 C 577.03963,25.946311 545.15059,24.904376 537.46875,25 z"
       transform="matrix(0.32491123,0,0,0.31821725,266.1419,205.09827)"
       id="path12"
       style="fill:#f7ce18;fill-opacity:1;stroke:none"
       inkscape:connector-curvature="0" />
    <path
       d="m 439.69038,237.96507 c 0,0.99883 -0.8097,1.80854 -1.80853,1.80854 -0.99884,0 -1.80854,-0.80971 -1.80854,-1.80854 0,-0.99883 0.8097,-1.80853 1.80854,-1.80853 0.99883,0 1.80853,0.8097 1.80853,1.80853 z"
       id="path24"
       style="fill:#00297b;fill-opacity:1;stroke:none"
       inkscape:connector-curvature="0" />
    <path
       d="m 417.66893,245.94368 c 0,0 12.34076,-2.97858 13.82965,-2.55295"
       id="path36"
       inkscape:connector-curvature="0" />
  </g>
</svg>
