<?xml version="1.0" encoding="utf-8"?>
<!-- Generator: Adobe Illustrator 16.0.3, SVG Export Plug-In . SVG Version: 6.00 Build 0)  -->
<!DOCTYPE svg PUBLIC "-//W3C//DTD SVG 1.1//EN" "http://www.w3.org/Graphics/SVG/1.1/DTD/svg11.dtd">
<svg version="1.1"
	 id="svg2" xmlns:svg="http://www.w3.org/2000/svg" xmlns:rdf="http://www.w3.org/1999/02/22-rdf-syntax-ns#" xmlns:cc="http://creativecommons.org/ns#" xmlns:dc="http://purl.org/dc/elements/1.1/"
	 xmlns="http://www.w3.org/2000/svg" xmlns:xlink="http://www.w3.org/1999/xlink" x="0px" y="0px" width="1200px" height="600px"
	 viewBox="0 0 1200 600" enable-background="new 0 0 1200 600" xml:space="preserve">
<path id="path12" fill="#006600" d="M1200,448v152H0V448H1200z"/>
<path id="path6" fill="#FFFFFF" d="M1200,150v298H0V150H1200z"/>
<path id="path4" fill="#DA0000" d="M1200,0v150H0V0H1200z"/>
<path id="path8" fill="#DA0000" d="M385.75,192.75c-6.335,0.28-11.62-4.694-17.75-5.75c-76.21-27.18-161.4,43.81-150,124
	c6.435,77.59,100.3,125.4,167.8,91.75c-67.73,61.45-188.2,29.45-217.5-58c-32.29-81.69,31.34-178.9,116.8-184.8
	C282.976,161.012,340.97,152.678,385.75,192.75z"/>
<path id="path10" fill="#DA0000" d="M436,227c7.6,9.712,8.983,23.61,16.25,33.75l34.5-13.5c-2.717,11.99-11.352,23.06-12.5,35.5
	c10.108,5.821,22.05,8.486,31.75,14.25c-7.878,7.447-21.892,9.424-31.75,15.25c1.002,12.49,9.813,23.5,12.5,35.5
	c-12.092-2.367-23.062-11.35-35.5-12.5c-5.909,10.57-8.564,23.68-15,33.5l-14.5-33.5c-12.44,1.15-23.41,10.13-35.5,12.5l13.5-34.5
	c-10.32-6.477-23.312-9.593-33.75-15.25c8.762-6.956,23.828-8.812,33.75-16.25l-13.5-34.5c11.52,3.146,22.85,9.995,34.5,13.5
	C427.534,250.42,430.351,238.02,436,227z"/>
</svg>
