<?xml version="1.0" encoding="UTF-8"?>
<svg version="1.0" xmlns="http://www.w3.org/2000/svg" xmlns:xlink="http://www.w3.org/1999/xlink" width="810" height="450">
	<rect width="810" height="450" fill="#bf0a30"/>
	<rect y="150" width="810" height="150" fill="#fff"/>
	<rect width="300" height="300" fill="#002868"/>
	<g id="s" transform="translate(150,45)" fill="#fff">
		<g id="c">
			<path id="t" d="M 0,-22 v 22 h 11" transform="rotate(18 0,-22)"/>
			<use xlink:href="#t" transform="scale(-1,1)"/>
		</g>
		<use xlink:href="#c" transform="rotate(72)"/>
		<use xlink:href="#c" transform="rotate(144)"/>
		<use xlink:href="#c" transform="rotate(216)"/>
		<use xlink:href="#c" transform="rotate(288)"/>
	</g>
	<use xlink:href="#s" transform="rotate(27.692308 150,150)"/>
	<use xlink:href="#s" transform="rotate(55.384615 150,150)"/>
	<use xlink:href="#s" transform="rotate(83.076923 150,150)"/>
	<use xlink:href="#s" transform="rotate(110.769231 150,150)"/>
	<use xlink:href="#s" transform="rotate(138.461538 150,150)"/>
	<use xlink:href="#s" transform="rotate(166.153846 150,150)"/>
	<use xlink:href="#s" transform="rotate(193.846154 150,150)"/>
	<use xlink:href="#s" transform="rotate(221.538462 150,150)"/>
	<use xlink:href="#s" transform="rotate(249.230769 150,150)"/>
	<use xlink:href="#s" transform="rotate(276.923077 150,150)"/>
	<use xlink:href="#s" transform="rotate(304.615385 150,150)"/>
	<use xlink:href="#s" transform="rotate(332.307692 150,150)"/>
</svg>