<?xml version="1.0" encoding="UTF-8" standalone="no"?>
<!-- Creator: CorelDRAW -->
<svg
   xmlns:dc="http://purl.org/dc/elements/1.1/"
   xmlns:cc="http://creativecommons.org/ns#"
   xmlns:rdf="http://www.w3.org/1999/02/22-rdf-syntax-ns#"
   xmlns:svg="http://www.w3.org/2000/svg"
   xmlns="http://www.w3.org/2000/svg"
   xmlns:sodipodi="http://sodipodi.sourceforge.net/DTD/sodipodi-0.dtd"
   xmlns:inkscape="http://www.inkscape.org/namespaces/inkscape"
   xml:space="preserve"
   width="259.292mm"
   height="166.687mm"
   shape-rendering="geometricPrecision"
   text-rendering="geometricPrecision"
   image-rendering="optimizeQuality"
   fill-rule="evenodd"
   clip-rule="evenodd"
   viewBox="0 0 259.292 166.687"
   id="svg3945"
   sodipodi:version="0.32"
   inkscape:version="0.46"
   sodipodi:docname="Bandera.svg"
   inkscape:output_extension="org.inkscape.output.svg.inkscape"><metadata
   id="metadata4160"><rdf:RDF><cc:Work
       rdf:about=""><dc:format>image/svg+xml</dc:format><dc:type
         rdf:resource="http://purl.org/dc/dcmitype/StillImage" /></cc:Work></rdf:RDF></metadata><defs
   id="defs4158"><inkscape:perspective
     sodipodi:type="inkscape:persp3d"
     inkscape:vp_x="0 : 295.31161 : 1"
     inkscape:vp_y="0 : 1000 : 0"
     inkscape:vp_z="918.75116 : 295.31161 : 1"
     inkscape:persp3d-origin="459.37558 : 196.87441 : 1"
     id="perspective4162" /></defs><sodipodi:namedview
   inkscape:window-height="712"
   inkscape:window-width="1024"
   inkscape:pageshadow="2"
   inkscape:pageopacity="0.0"
   guidetolerance="10.0"
   gridtolerance="10.0"
   objecttolerance="10.0"
   borderopacity="1.0"
   bordercolor="#666666"
   pagecolor="#ffffff"
   id="base"
   showgrid="false"
   inkscape:zoom="0.5921081"
   inkscape:cx="459.37558"
   inkscape:cy="295.31161"
   inkscape:window-x="-4"
   inkscape:window-y="-4"
   inkscape:current-layer="svg3945" />
 <g
   id="Capa_x0020_1">
  <metadata
   id="CorelCorpID_0Corel-Layer" />
  <rect
   id="blue"
   fill="#3B3481"
   x="0.0002"
   y="-0.0002"
   width="259.292"
   height="166.687" />
  <rect
   id="white"
   fill="white"
   x="0.0002"
   y="55.5623"
   width="259.292"
   height="55.5625" />
  <g
   id="_16rays">
   <g
   id="_8rays">
    <g
   id="_4rays">
     <g
   id="_2rays">
      <path
   id="path11"
   fill="#DA251D"
   stroke="#843511"
   stroke-width="0.2137"
   d="M128.506 83.3435l0.8548 21.7976c0,0 0,0.4274 0.2849,0.4274 0.2849,0 0.2849,-0.4274 0.2849,-0.4274l0.8548 -21.7976m-2.2794 0l0 0 0 0z" />
      <path
   id="path13"
   fill="#843511"
   d="M129.076 83.3435l0.5699 14.9591 0.5699 -14.9591m-1.1398 0l0 0 0 0z" />
      <g
   id="g15">
       <path
   id="path17"
   fill="#DA251D"
   stroke="#843511"
   stroke-width="0.2137"
   d="M127.555 90.4055c-1.2803,2.7199 -0.1423,4.9869 -1.4214,7.3436 -1.2791,2.3567 -0.4617,4.4131 -0.5351,5.4885 -0.0734,1.0755 -1.0105,1.3937 -0.7739,1.6599 0.2366,0.2662 1.2163,-0.2614 1.5843,-1.7131 0.3681,-1.4517 -0.5512,-2.2929 0.9812,-5.1797 1.5323,-2.8867 0.2936,-4.3018 1.839,-6.8951m-1.6741 -0.7041l0 0 0 0z" />
       <path
   id="path19"
   fill="#843511"
   d="M127.916 91.1331c-0.9869,2.707 0.0967,4.5267 -1.2522,6.8692 1.5145,-1.7273 0.4877,-3.8262 1.7822,-6.6159m-0.53 -0.2533l0 0 0 0z" />
      </g>
     </g>
     <g
   id="g3960">
      <g
   id="g3962">
       <path
   id="_65624120"
   fill="#DA251D"
   stroke="#843511"
   stroke-width="0.2137"
   d="M130.786 83.3435l-0.8548 -21.7976c0,0 0,-0.4274 -0.2849,-0.4274 -0.2849,0 -0.2849,0.4274 -0.2849,0.4274l-0.8548 21.7976m2.2794 0l0 0 0 0z" />
       <path
   id="_65624048"
   fill="#843511"
   d="M130.216 83.3435l-0.5699 -14.9591 -0.5699 14.9591m1.1398 0l0 0 0 0z" />
       <g
   id="g3966">
        <path
   id="_65623976"
   fill="#DA251D"
   stroke="#843511"
   stroke-width="0.2137"
   d="M131.737 76.2815c1.2803,-2.7199 0.1423,-4.9869 1.4214,-7.3436 1.2791,-2.3567 0.4617,-4.4131 0.5351,-5.4885 0.0734,-1.0755 1.0105,-1.3937 0.7739,-1.6599 -0.2366,-0.2662 -1.2163,0.2614 -1.5843,1.7131 -0.3681,1.4517 0.5512,2.2929 -0.9812,5.1797 -1.5323,2.8867 -0.2936,4.3018 -1.839,6.8951m1.6741 0.7041l0 0 0 0z" />
        <path
   id="_65623904"
   fill="#843511"
   d="M131.376 75.5539c0.9869,-2.707 -0.0967,-4.5267 1.2522,-6.8692 -1.5145,1.7273 -0.4877,3.8262 -1.7822,6.6159m0.53 0.2533l0 0 0 0z" />
       </g>
      </g>
     </g>
    </g>
    <g
   id="g3970">
     <g
   id="g3972">
      <g
   id="g3974">
       <path
   id="_65623688"
   fill="#DA251D"
   stroke="#843511"
   stroke-width="0.2137"
   d="M129.646 82.2038l-21.7976 0.8548c0,0 -0.4274,0 -0.4274,0.2849 0,0.2849 0.4274,0.2849 0.4274,0.2849l21.7976 0.8548m0 -2.2794l0 0 0 0z" />
       <path
   id="_65623616"
   fill="#843511"
   d="M129.646 82.7736l-14.9591 0.5699 14.9591 0.5699m0 -1.1398l0 0 0 0z" />
       <g
   id="g3978">
        <path
   id="_65623544"
   fill="#DA251D"
   stroke="#843511"
   stroke-width="0.2137"
   d="M122.584 81.2525c-2.7199,-1.2803 -4.9869,-0.1423 -7.3436,-1.4214 -2.3567,-1.2791 -4.4131,-0.4617 -5.4885,-0.5351 -1.0755,-0.0734 -1.3937,-1.0105 -1.6599,-0.7739 -0.2662,0.2366 0.2614,1.2163 1.7131,1.5843 1.4517,0.3681 2.2929,-0.5512 5.1797,0.9812 2.8867,1.5323 4.3018,0.2936 6.8951,1.839m0.7041 -1.6741l0 0 0 0z" />
        <path
   id="_65623472"
   fill="#843511"
   d="M121.856 81.6133c-2.707,-0.9869 -4.5267,0.0967 -6.8692,-1.2522 1.7273,1.5145 3.8262,0.4877 6.6159,1.7822m0.2533 -0.53l0 0 0 0z" />
       </g>
      </g>
      <g
   id="g3982">
       <g
   id="g3984">
        <path
   id="_65623352"
   fill="#DA251D"
   stroke="#843511"
   stroke-width="0.2137"
   d="M129.646 84.4832l21.7976 -0.8548c0,0 0.4274,0 0.4274,-0.2849 0,-0.2849 -0.4274,-0.2849 -0.4274,-0.2849l-21.7976 -0.8548m0 2.2794l0 0 0 0z" />
        <path
   id="_65623280"
   fill="#843511"
   d="M129.646 83.9134l14.9591 -0.5699 -14.9591 -0.5699m0 1.1398l0 0 0 0z" />
        <g
   id="g3988">
         <path
   id="_65623208"
   fill="#DA251D"
   stroke="#843511"
   stroke-width="0.2137"
   d="M136.708 85.4345c2.7199,1.2803 4.9869,0.1423 7.3436,1.4214 2.3567,1.2791 4.4131,0.4617 5.4885,0.5351 1.0755,0.0734 1.3937,1.0105 1.6599,0.7739 0.2662,-0.2366 -0.2614,-1.2163 -1.7131,-1.5843 -1.4517,-0.3681 -2.2929,0.5512 -5.1797,-0.9812 -2.8867,-1.5323 -4.3018,-0.2936 -6.8951,-1.839m-0.7041 1.6741l0 0 0 0z" />
         <path
   id="_65623136"
   fill="#843511"
   d="M137.436 85.0737c2.707,0.9869 4.5267,-0.0967 6.8692,1.2522 -1.7273,-1.5145 -3.8262,-0.4877 -6.6159,-1.7822m-0.2533 0.53l0 0 0 0z" />
        </g>
       </g>
      </g>
     </g>
    </g>
   </g>
   <g
   id="g3992">
    <g
   id="g3994">
     <g
   id="g3996">
      <g
   id="g3998">
       <path
   id="_65622872"
   fill="#DA251D"
   stroke="#843511"
   stroke-width="0.2137"
   d="M128.84 82.5376l-14.8088 16.0176c0,0 -0.3022,0.3023 -0.1007,0.5037 0.2014,0.2015 0.5037,-0.1007 0.5037,-0.1007l16.0176 -14.8088m-1.6118 -1.6118l0 0 0 0z" />
       <path
   id="_65622800"
   fill="#843511"
   d="M129.243 82.9405l-10.1747 10.9807 10.9807 -10.1747m-0.806 -0.806l0 0 0 0z" />
       <g
   id="g4002">
        <path
   id="_65622728"
   fill="#DA251D"
   stroke="#843511"
   stroke-width="0.2137"
   d="M123.174 86.8585c-2.8286,1.018 -3.6268,3.4257 -6.1977,4.1877 -2.571,0.7619 -3.447,2.794 -4.2594,3.5026 -0.8124,0.7085 -1.7,0.2709 -1.7209,0.6265 -0.0209,0.3555 1.0449,0.6752 2.3316,-0.0911 1.2867,-0.7662 1.2316,-2.0111 4.3564,-2.9688 3.1247,-0.9577 3.2495,-2.8342 6.176,-3.5753m-0.686 -1.6816l0 0 0 0z" />
        <path
   id="_65622656"
   fill="#843511"
   d="M122.914 87.6282c-2.612,1.2162 -3.1325,3.2692 -5.7427,3.9718 2.2923,-0.1505 3.0504,-2.3607 5.9384,-3.418m-0.1957 -0.5538l0 0 0 0z" />
       </g>
      </g>
      <g
   id="g4006">
       <g
   id="g4008">
        <path
   id="_65622536"
   fill="#DA251D"
   stroke="#843511"
   stroke-width="0.2137"
   d="M130.452 84.1494l14.8088 -16.0176c0,0 0.3022,-0.3023 0.1007,-0.5037 -0.2014,-0.2015 -0.5037,0.1007 -0.5037,0.1007l-16.0176 14.8088m1.6118 1.6118l0 0 0 0z" />
        <path
   id="_65622464"
   fill="#843511"
   d="M130.049 83.7465l10.1747 -10.9807 -10.9807 10.1747m0.806 0.806l0 0 0 0z" />
        <g
   id="g4012">
         <path
   id="_65622392"
   fill="#DA251D"
   stroke="#843511"
   stroke-width="0.2137"
   d="M136.118 79.8285c2.8286,-1.018 3.6268,-3.4257 6.1977,-4.1877 2.571,-0.7619 3.447,-2.794 4.2594,-3.5026 0.8124,-0.7085 1.7,-0.2709 1.7209,-0.6265 0.0209,-0.3555 -1.0449,-0.6752 -2.3316,0.0911 -1.2867,0.7662 -1.2316,2.0111 -4.3564,2.9688 -3.1247,0.9577 -3.2495,2.8342 -6.176,3.5753m0.686 1.6816l0 0 0 0z" />
         <path
   id="_65622320"
   fill="#843511"
   d="M136.377 79.0588c2.612,-1.2162 3.1325,-3.2692 5.7427,-3.9718 -2.2923,0.1505 -3.0504,2.3607 -5.9384,3.418m0.1957 0.5538l0 0 0 0z" />
        </g>
       </g>
      </g>
     </g>
     <g
   id="g4016">
      <g
   id="g4018">
       <g
   id="g4020">
        <path
   id="_65622152"
   fill="#DA251D"
   stroke="#843511"
   stroke-width="0.2137"
   d="M130.452 82.5376l-16.0176 -14.8088c0,0 -0.3023,-0.3022 -0.5037,-0.1007 -0.2015,0.2014 0.1007,0.5037 0.1007,0.5037l14.8088 16.0176m1.6118 -1.6118l0 0 0 0z" />
        <path
   id="_65622080"
   fill="#843511"
   d="M130.049 82.9405l-10.9807 -10.1747 10.1747 10.9807m0.806 -0.806l0 0 0 0z" />
        <g
   id="g4024">
         <path
   id="_65622008"
   fill="#DA251D"
   stroke="#843511"
   stroke-width="0.2137"
   d="M126.131 76.8713c-1.018,-2.8286 -3.4257,-3.6268 -4.1877,-6.1977 -0.7619,-2.571 -2.794,-3.447 -3.5026,-4.2594 -0.7085,-0.8124 -0.2709,-1.7 -0.6265,-1.7209 -0.3555,-0.0209 -0.6752,1.0449 0.0911,2.3316 0.7662,1.2867 2.0111,1.2316 2.9688,4.3564 0.9577,3.1247 2.8342,3.2495 3.5753,6.176m1.6816 -0.686l0 0 0 0z" />
         <path
   id="_65621936"
   fill="#843511"
   d="M125.361 76.612c-1.2162,-2.612 -3.2692,-3.1325 -3.9718,-5.7427 0.1505,2.2923 2.3607,3.0504 3.418,5.9384m0.5538 -0.1957l0 0 0 0z" />
        </g>
       </g>
       <g
   id="g4028">
        <g
   id="g4030">
         <path
   id="_65621816"
   fill="#DA251D"
   stroke="#843511"
   stroke-width="0.2137"
   d="M128.84 84.1494l16.0176 14.8088c0,0 0.3023,0.3022 0.5037,0.1007 0.2015,-0.2014 -0.1007,-0.5037 -0.1007,-0.5037l-14.8088 -16.0176m-1.6118 1.6118l0 0 0 0z" />
         <path
   id="_65621744"
   fill="#843511"
   d="M129.243 83.7465l10.9807 10.1747 -10.1747 -10.9807m-0.806 0.806l0 0 0 0z" />
         <g
   id="g4034">
          <path
   id="_65621672"
   fill="#DA251D"
   stroke="#843511"
   stroke-width="0.2137"
   d="M133.161 89.8157c1.018,2.8286 3.4257,3.6268 4.1877,6.1977 0.7619,2.571 2.794,3.447 3.5026,4.2594 0.7085,0.8124 0.2709,1.7 0.6265,1.7209 0.3555,0.0209 0.6752,-1.0449 -0.0911,-2.3316 -0.7662,-1.2867 -2.0111,-1.2316 -2.9688,-4.3564 -0.9577,-3.1247 -2.8342,-3.2495 -3.5753,-6.176m-1.6816 0.686l0 0 0 0z" />
          <path
   id="_65621600"
   fill="#843511"
   d="M133.931 90.075c1.2162,2.612 3.2692,3.1325 3.9718,5.7427 -0.1505,-2.2923 -2.3607,-3.0504 -3.418,-5.9384m-0.5538 0.1957l0 0 0 0z" />
         </g>
        </g>
       </g>
      </g>
     </g>
    </g>
   </g>
  </g>
  <path
   fill="#DA251D"
   stroke="#843511"
   stroke-width="0.2137"
   d="M128.593 82.9073l-7.5518 20.4655c0,0 -0.1636,0.3949 0.0997,0.5039 0.2632,0.1091 0.4268,-0.2858 0.4268,-0.2858l9.1313 -19.8112m-2.106 -0.8724l0 0 0 0z"
   id="path4038" />
  <path
   fill="#843511"
   d="M129.119 83.1254l-5.1981 14.0385 6.2511 -13.6023m-1.053 -0.4362l0 0 0 0z"
   id="path4040" />
  <path
   fill="#DA251D"
   stroke="#843511"
   stroke-width="0.2137"
   d="M125.012 89.0677c-2.2237,2.023 -2.0398,4.5529 -4.1234,6.2407 -2.0836,1.6878 -2.1154,3.9005 -2.5948,4.866 -0.4793,0.9655 -1.4668,0.9008 -1.3501,1.2373 0.1167,0.3365 1.2237,0.224 2.1193,-0.9763 0.8955,-1.2004 0.3682,-2.3294 2.8886,-4.41 2.5204,-2.0806 1.9175,-3.862 4.3377,-5.6666m-1.2773 -1.2911l0 0 0 0z"
   id="path4042" />
  <path
   fill="#843511"
   d="M125.066 89.8781c-1.9476,2.1232 -1.6429,4.2191 -3.7855,5.8671 2.0602,-1.0162 1.9147,-3.3484 4.1783,-5.4304m-0.3928 -0.4367l0 0 0 0z"
   id="path4044" />
  <path
   fill="#DA251D"
   stroke="#843511"
   stroke-width="0.2137"
   d="M130.699 83.7797l7.5518 -20.4655c0,0 0.1636,-0.3949 -0.0997,-0.5039 -0.2632,-0.1091 -0.4268,0.2858 -0.4268,0.2858l-9.1313 19.8112m2.106 0.8724l0 0 0 0z"
   id="path4046" />
  <path
   fill="#843511"
   d="M130.172 83.5616l5.1981 -14.0385 -6.2511 13.6023m1.053 0.4362l0 0 0 0z"
   id="path4048" />
  <path
   fill="#DA251D"
   stroke="#843511"
   stroke-width="0.2137"
   d="M134.28 77.6193c2.2237,-2.023 2.0398,-4.5529 4.1234,-6.2407 2.0836,-1.6878 2.1154,-3.9005 2.5948,-4.866 0.4793,-0.9655 1.4668,-0.9008 1.3501,-1.2373 -0.1167,-0.3365 -1.2237,-0.224 -2.1193,0.9763 -0.8955,1.2004 -0.3682,2.3294 -2.8886,4.41 -2.5204,2.0806 -1.9175,3.862 -4.3377,5.6666m1.2773 1.2911l0 0 0 0z"
   id="path4050" />
  <path
   fill="#843511"
   d="M134.225 76.8089c1.9476,-2.1232 1.6429,-4.2191 3.7855,-5.8671 -2.0602,1.0162 -1.9147,3.3484 -4.1783,5.4304m0.3928 0.4367l0 0 0 0z"
   id="path4052" />
  <path
   fill="#DA251D"
   stroke="#843511"
   stroke-width="0.2137"
   d="M130.082 82.2905l-20.4655 -7.5518c0,0 -0.3949,-0.1636 -0.5039,0.0997 -0.1091,0.2632 0.2858,0.4268 0.2858,0.4268l19.8112 9.1313m0.8724 -2.106l0 0 0 0z"
   id="path4054" />
  <path
   fill="#843511"
   d="M129.864 82.817l-14.0385 -5.1981 13.6023 6.2511m0.4362 -1.053l0 0 0 0z"
   id="path4056" />
  <path
   fill="#DA251D"
   stroke="#843511"
   stroke-width="0.2137"
   d="M123.922 78.7091c-2.023,-2.2237 -4.5529,-2.0398 -6.2407,-4.1234 -1.6878,-2.0836 -3.9005,-2.1154 -4.866,-2.5948 -0.9655,-0.4793 -0.9008,-1.4668 -1.2373,-1.3501 -0.3365,0.1167 -0.224,1.2237 0.9763,2.1193 1.2004,0.8955 2.3294,0.3682 4.41,2.8886 2.0806,2.5204 3.862,1.9175 5.6666,4.3377m1.2911 -1.2773l0 0 0 0z"
   id="path4058" />
  <path
   fill="#843511"
   d="M123.111 78.764c-2.1232,-1.9476 -4.2191,-1.6429 -5.8671,-3.7855 1.0162,2.0602 3.3484,1.9147 5.4304,4.1783m0.4367 -0.3928l0 0 0 0z"
   id="path4060" />
  <path
   fill="#DA251D"
   stroke="#843511"
   stroke-width="0.2137"
   d="M129.21 84.3965l20.4655 7.5518c0,0 0.3949,0.1636 0.5039,-0.0997 0.1091,-0.2632 -0.2858,-0.4268 -0.2858,-0.4268l-19.8112 -9.1313m-0.8724 2.106l0 0 0 0z"
   id="path4062" />
  <path
   fill="#843511"
   d="M129.428 83.87l14.0385 5.1981 -13.6023 -6.2511m-0.4362 1.053l0 0 0 0z"
   id="path4064" />
  <path
   fill="#DA251D"
   stroke="#843511"
   stroke-width="0.2137"
   d="M135.37 87.9779c2.023,2.2237 4.5529,2.0398 6.2407,4.1234 1.6878,2.0836 3.9005,2.1154 4.866,2.5948 0.9655,0.4793 0.9008,1.4668 1.2373,1.3501 0.3365,-0.1167 0.224,-1.2237 -0.9763,-2.1193 -1.2004,-0.8955 -2.3294,-0.3682 -4.41,-2.8886 -2.0806,-2.5204 -3.862,-1.9175 -5.6666,-4.3377m-1.2911 1.2773l0 0 0 0z"
   id="path4066" />
  <path
   fill="#843511"
   d="M136.181 87.923c2.1232,1.9476 4.2191,1.6429 5.8671,3.7855 -1.0162,-2.0602 -3.3484,-1.9147 -5.4304,-4.1783m-0.4367 0.3928l0 0 0 0z"
   id="path4068" />
  <path
   fill="#DA251D"
   stroke="#843511"
   stroke-width="0.2137"
   d="M129.21 82.2905l-19.8112 9.1313c0,0 -0.3949,0.1636 -0.2858,0.4268 0.109,0.2633 0.5039,0.0997 0.5039,0.0997l20.4655 -7.5518m-0.8724 -2.106l0 0 0 0z"
   id="path4070" />
  <path
   fill="#843511"
   d="M129.428 82.817l-13.6023 6.2511 14.0385 -5.1981m-0.4362 -1.053l0 0 0 0z"
   id="path4072" />
  <path
   fill="#DA251D"
   stroke="#843511"
   stroke-width="0.2137"
   d="M122.321 84.1142c-3.0029,-0.142 -4.6618,1.7769 -7.3286,1.4971 -2.6668,-0.2799 -4.2538,1.2622 -5.2755,1.6059 -1.0217,0.3438 -1.6743,-0.4002 -1.8297,-0.0797 -0.1554,0.3205 0.707,1.0237 2.189,0.8081 1.482,-0.2155 1.9075,-1.3867 5.1609,-1.0757 3.2534,0.311 4.0868,-1.3749 7.0741,-0.9397m0.0098 -1.816l0 0 0 0z"
   id="path4074" />
  <path
   fill="#843511"
   d="M121.787 84.726c-2.8786,0.1241 -4.1451,1.8216 -6.8255,1.4718 2.1754,0.7383 3.7216,-1.0136 6.7944,-0.8853m0.0311 -0.5865l0 0 0 0z"
   id="path4076" />
  <path
   fill="#DA251D"
   stroke="#843511"
   stroke-width="0.2137"
   d="M130.082 84.3965l19.8112 -9.1313c0,0 0.3949,-0.1636 0.2858,-0.4268 -0.109,-0.2633 -0.5039,-0.0997 -0.5039,-0.0997l-20.4655 7.5518m0.8724 2.106l0 0 0 0z"
   id="path4078" />
  <path
   fill="#843511"
   d="M129.864 83.87l13.6023 -6.2511 -14.0385 5.1981m0.4362 1.053l0 0 0 0z"
   id="path4080" />
  <path
   fill="#DA251D"
   stroke="#843511"
   stroke-width="0.2137"
   d="M136.971 82.5728c3.0029,0.142 4.6618,-1.7769 7.3286,-1.4971 2.6668,0.2799 4.2538,-1.2622 5.2755,-1.6059 1.0217,-0.3438 1.6743,0.4002 1.8297,0.0797 0.1554,-0.3205 -0.707,-1.0237 -2.189,-0.8081 -1.482,0.2155 -1.9075,1.3867 -5.1609,1.0757 -3.2534,-0.311 -4.0868,1.3749 -7.0741,0.9397m-0.0098 1.816l0 0 0 0z"
   id="path4082" />
  <path
   fill="#843511"
   d="M137.505 81.961c2.8786,-0.1241 4.1451,-1.8216 6.8255,-1.4718 -2.1754,-0.7383 -3.7216,1.0136 -6.7944,0.8853m-0.0311 0.5865l0 0 0 0z"
   id="path4084" />
  <path
   fill="#DA251D"
   stroke="#843511"
   stroke-width="0.2137"
   d="M130.699 82.9073l-9.1313 -19.8112c0,0 -0.1636,-0.3949 -0.4268,-0.2858 -0.2633,0.109 -0.0997,0.5039 -0.0997,0.5039l7.5518 20.4655m2.106 -0.8724l0 0 0 0z"
   id="path4086" />
  <path
   fill="#843511"
   d="M130.172 83.1254l-6.2511 -13.6023 5.1981 14.0385m1.053 -0.4362l0 0 0 0z"
   id="path4088" />
  <path
   fill="#DA251D"
   stroke="#843511"
   stroke-width="0.2137"
   d="M128.875 76.0189c0.142,-3.0029 -1.7769,-4.6618 -1.4971,-7.3286 0.2799,-2.6668 -1.2622,-4.2538 -1.6059,-5.2755 -0.3438,-1.0217 0.4002,-1.6743 0.0797,-1.8297 -0.3205,-0.1554 -1.0237,0.707 -0.8081,2.189 0.2155,1.482 1.3867,1.9075 1.0757,5.1609 -0.311,3.2534 1.3749,4.0868 0.9397,7.0741m1.816 0.0098l0 0 0 0z"
   id="path4090" />
  <path
   fill="#843511"
   d="M128.263 75.4847c-0.1241,-2.8786 -1.8216,-4.1451 -1.4718,-6.8255 -0.7383,2.1754 1.0136,3.7216 0.8853,6.7944m0.5865 0.0311l0 0 0 0z"
   id="path4092" />
  <path
   fill="#DA251D"
   stroke="#843511"
   stroke-width="0.2137"
   d="M128.593 83.7797l9.1313 19.8112c0,0 0.1636,0.3949 0.4268,0.2858 0.2633,-0.109 0.0997,-0.5039 0.0997,-0.5039l-7.5518 -20.4655m-2.106 0.8724l0 0 0 0z"
   id="path4094" />
  <path
   fill="#843511"
   d="M129.119 83.5616l6.2511 13.6023 -5.1981 -14.0385m-1.053 0.4362l0 0 0 0z"
   id="path4096" />
  <path
   fill="#DA251D"
   stroke="#843511"
   stroke-width="0.2137"
   d="M130.417 90.6681c-0.142,3.0029 1.7769,4.6618 1.4971,7.3286 -0.2799,2.6668 1.2622,4.2538 1.6059,5.2755 0.3438,1.0217 -0.4002,1.6743 -0.0797,1.8297 0.3205,0.1554 1.0237,-0.707 0.8081,-2.189 -0.2155,-1.482 -1.3867,-1.9075 -1.0757,-5.1609 0.311,-3.2534 -1.3749,-4.0868 -0.9397,-7.0741m-1.816 -0.0098l0 0 0 0z"
   id="path4098" />
  <path
   fill="#843511"
   d="M131.028 91.2023c0.1241,2.8786 1.8216,4.1451 1.4718,6.8255 0.7383,-2.1754 -1.0136,-3.7216 -0.8853,-6.7944m-0.5865 -0.0311l0 0 0 0z"
   id="path4100" />
  <circle
   id="circle29"
   fill="#DA251D"
   stroke="#843511"
   stroke-width="0.1425"
   cx="129.646"
   cy="83.3435"
   r="8.5481" />
  <g
   id="face_right">
   <path
   id="path32"
   fill="#843511"
   d="M135.487 81.3489c-1.6384,-1.4246 -3.7042,-1.6383 -4.8439,-0.5698 -0.8272,1.106 -0.7535,2.4082 0.2137,3.7754 -0.0713,0 -0.2137,0.0712 -0.285,0.1424 -0.7184,-1.368 -0.8419,-2.7768 -0.3561,-4.0603 1.5671,-1.2822 3.7041,-1.4247 5.2713,0.7123z" />
   <path
   id="path34"
   fill="#843511"
   d="M132.923 80.9215c-0.9261,0 -1.1398,0.2137 -1.5672,0.5699 -0.4274,0.3562 -0.6411,0.285 -0.7123,0.3562 -0.0713,0.0712 0,0.2849 0.1424,0.2137 0.1425,-0.0712 0.4274,-0.2137 0.8549,-0.5699 0.4274,-0.3562 0.8548,-0.3562 1.2822,-0.3562 1.2822,0 1.9945,1.0686 2.137,0.9973 0.1424,-0.0712 -0.7124,-1.211 -2.137,-1.211z" />
   <path
   id="path36"
   fill="#843511"
   d="M134.561 82.1325c-0.926,-0.9973 -2.6356,-1.0685 -3.348,0.0713l0.285 0c0.7123,-1.1398 2.4219,-0.6411 2.5644,-0.1425l0 0.1425m0.4986 -0.0713l0 0 0 0z" />
   <circle
   id="circle38"
   fill="#843511"
   cx="132.78"
   cy="82.0613"
   r="0.6411" />
   <path
   id="path40"
   fill="#843511"
   d="M131.213 82.2038c0.7124,0.6411 2.2795,0.7123 3.348,-0.0713l-0.4986 -0.0712c-0.7123,0.7836 -1.8521,0.7123 -2.5644,0.1425l0 -0.1425m-0.285 0.1425l0 0 0 0z" />
   <path
   id="path42"
   fill="#843511"
   d="M134.632 82.4887c-1.211,0.926 -2.422,0.8548 -3.1343,0.4274 -0.7124,-0.4274 -0.7124,-0.5699 -0.5699,-0.5699 0.1425,0 0.2849,0.1425 0.8548,0.4274 0.5699,0.285 1.4247,0.285 2.8494,-0.2849z" />
   <path
   id="path44"
   fill="#843511"
   d="M131.142 84.6257c0.2018,0.0717 0.3193,0.2817 0.275,0.4912 -0.0443,0.2095 -0.2368,0.3538 -0.4503,0.3377 -0.2135,-0.0161 -0.3822,-0.1877 -0.3946,-0.4015 -0.0712,0.1425 -0.3561,0.5699 -0.926,0.5699l-0.1425 0 0.1425 0.2137c0.1425,0 0.5699,0 0.8548,-0.2137 0.1658,0.2378 0.4704,0.3348 0.7431,0.2366 0.2728,-0.0982 0.4457,-0.3672 0.4218,-0.656 -0.0239,-0.2889 -0.2386,-0.5258 -0.5238,-0.5779z" />
   <path
   id="path46"
   fill="#843511"
   d="M131.997 87.6175c-0.6411,-0.4274 -0.926,-1.0685 -1.6384,-1.0685 -0.1424,0 -0.4274,0.0713 -0.7123,0.2137l-0.1425 0 0.1425 0.2137c0.2849,0 0.7123,-0.3561 1.211,-0.0712 0.4986,0.2849 0.7836,0.5699 1.1397,0.7123z" />
   <path
   id="path48"
   fill="#843511"
   d="M131.783 87.6175c-1.4247,-0.4274 -1.7096,-0.1424 -2.137,-0.1424l-0.1425 0 0.1425 0.2849c0.5699,0 0.8548,-0.4274 2.137,-0.1425z" />
   <path
   id="path50"
   fill="#843511"
   d="M131.997 87.6175c-1.5671,-0.1424 -1.0685,0.7836 -2.3507,0.7836l-0.1425 0 0.1425 0.2137c1.5671,0 0.8548,-0.8548 2.3507,-0.9973z" />
   <path
   id="path52"
   fill="#843511"
   d="M130.928 89.897c0,-0.7081 -0.5741,-1.2822 -1.2822,-1.2822 -0.7081,0 -1.2822,0.5741 -1.2822,1.2822 0.141,-0.5941 0.6716,-1.0135 1.2822,-1.0135 0.6106,0 1.1412,0.4194 1.2822,1.0135z" />
  </g>
  <g
   id="_65567520">
   <g
   id="g4116">
    <path
   id="_65617472"
   fill="#843511"
   d="M123.805 81.3489c1.6384,-1.4246 3.7042,-1.6383 4.8439,-0.5698 0.8272,1.106 0.7535,2.4082 -0.2137,3.7754 0.0713,0 0.2137,0.0712 0.285,0.1424 0.7184,-1.368 0.8419,-2.7768 0.3561,-4.0603 -1.5671,-1.2822 -3.7041,-1.4247 -5.2713,0.7123z" />
    <path
   id="_65617400"
   fill="#843511"
   d="M126.369 80.9215c0.9261,0 1.1398,0.2137 1.5672,0.5699 0.4274,0.3562 0.6411,0.285 0.7123,0.3562 0.0713,0.0712 0,0.2849 -0.1424,0.2137 -0.1425,-0.0712 -0.4274,-0.2137 -0.8549,-0.5699 -0.4274,-0.3562 -0.8548,-0.3562 -1.2822,-0.3562 -1.2822,0 -1.9945,1.0686 -2.137,0.9973 -0.1424,-0.0712 0.7124,-1.211 2.137,-1.211z" />
    <path
   id="_65617328"
   fill="#843511"
   d="M124.731 82.1325c0.926,-0.9973 2.6356,-1.0685 3.348,0.0713l-0.285 0c-0.7123,-1.1398 -2.4219,-0.6411 -2.5644,-0.1425l0 0.1425m-0.4986 -0.0713l0 0 0 0z" />
    <circle
   id="_65617256"
   fill="#843511"
   cx="126.512"
   cy="82.0613"
   r="0.6411" />
    <path
   id="_65617184"
   fill="#843511"
   d="M128.079 82.2038c-0.7124,0.6411 -2.2795,0.7123 -3.348,-0.0713l0.4986 -0.0712c0.7123,0.7836 1.8521,0.7123 2.5644,0.1425l0 -0.1425m0.285 0.1425l0 0 0 0z" />
    <path
   id="_65617112"
   fill="#843511"
   d="M124.66 82.4887c1.211,0.926 2.422,0.8548 3.1343,0.4274 0.7124,-0.4274 0.7124,-0.5699 0.5699,-0.5699 -0.1425,0 -0.2849,0.1425 -0.8548,0.4274 -0.5699,0.285 -1.4247,0.285 -2.8494,-0.2849z" />
    <path
   id="_65617040"
   fill="#843511"
   d="M128.15 84.6257c-0.2018,0.0717 -0.3193,0.2817 -0.275,0.4912 0.0443,0.2095 0.2368,0.3538 0.4503,0.3377 0.2135,-0.0161 0.3822,-0.1877 0.3946,-0.4015 0.0712,0.1425 0.3561,0.5699 0.926,0.5699l0.1425 0 -0.1425 0.2137c-0.1425,0 -0.5699,0 -0.8548,-0.2137 -0.1658,0.2378 -0.4704,0.3348 -0.7431,0.2366 -0.2728,-0.0982 -0.4457,-0.3672 -0.4218,-0.656 0.0239,-0.2889 0.2386,-0.5258 0.5238,-0.5779z" />
    <path
   id="_65567784"
   fill="#843511"
   d="M127.295 87.6175c0.6411,-0.4274 0.926,-1.0685 1.6384,-1.0685 0.1424,0 0.4274,0.0713 0.7123,0.2137l0.1425 0 -0.1425 0.2137c-0.2849,0 -0.7123,-0.3561 -1.211,-0.0712 -0.4986,0.2849 -0.7836,0.5699 -1.1397,0.7123z" />
    <path
   id="_65567712"
   fill="#843511"
   d="M127.509 87.6175c1.4247,-0.4274 1.7096,-0.1424 2.137,-0.1424l0.1425 0 -0.1425 0.2849c-0.5699,0 -0.8548,-0.4274 -2.137,-0.1425z" />
    <path
   id="_65567640"
   fill="#843511"
   d="M127.295 87.6175c1.5671,-0.1424 1.0685,0.7836 2.3507,0.7836l0.1425 0 -0.1425 0.2137c-1.5671,0 -0.8548,-0.8548 -2.3507,-0.9973z" />
    <path
   id="_65567568"
   fill="#843511"
   d="M128.364 89.897c0,-0.7081 0.5741,-1.2822 1.2822,-1.2822 0.7081,0 1.2822,0.5741 1.2822,1.2822 -0.141,-0.5941 -0.6716,-1.0135 -1.2822,-1.0135 -0.6106,0 -1.1412,0.4194 -1.2822,1.0135z" />
   </g>
  </g>
  <g
   id="_67362736">
   <path
   id="path18218"
   fill="#843511"
   d="M23.9281 34.7731c2.5879,-3.5866 5.578,-7.0313 9.9587,-9.8518 20.4951,-8.2155 -21.5885,32.0943 -9.9587,9.8518z"
   nodetypes="ccc" />
   <path
   id="path14425"
   fill="#DA251D"
   d="M23.7953 11.759c0.2178,0.5562 0.9195,0.7639 0.5096,1.7724 -0.9724,1.4481 -1.5143,1.4392 -2.4592,1.8762 0.7609,0.177 2.807,0.8632 4.9218,1.5768 2.4361,0.5867 3.8004,1.6536 2.8285,2.0096 -3.5275,5.9597 -9.1573,9.868 -13.736,14.802 -5.1914,-8.4765 -11.4459,-20.0172 -0.2883,-23.0848 2.5856,-0.4835 5.1094,-1.298 8.2236,1.0478z"
   nodetypes="cccccccc" />
   <path
   id="path7227"
   fill="#843811"
   d="M24.3539 13.3743c-0.2694,0.9357 -1.1222,1.8481 -2.3404,2.0921 -3.3528,-0.3257 -5.6732,0.5597 -7.2172,1.7092 1.017,-1.4182 1.732,-3.4751 6.0654,-2.6428 0.8915,-0.6521 2.0621,-1.0319 3.4922,-1.1585z"
   nodetypes="ccccc" />
   <path
   id="path7229"
   fill="#843511"
   d="M24.8889 18.6524c3.5815,-0.8186 -3.5962,1.6748 -7.2581,6.5206 -0.1274,-2.3194 -0.0043,-4.5448 7.2581,-6.5206z"
   nodetypes="ccc" />
   <path
   id="path7231"
   fill="#DA251D"
   d="M23.3755 11.9441l1.015 1.1805c2.2771,1.9584 4.9779,1.2293 5.1601,-0.8628 -0.8551,-2.8731 -4.7147,-1.4915 -6.1751,-0.3177z"
   nodetypes="cccc" />
   <path
   id="path13382"
   fill="#DE251D"
   d="M39.4554 24.3637l-5.6248 -6.0387c-1.6372,-0.7467 -2.9852,-0.3054 -4.2416,0.5121 -5.0346,3.3811 -9.3868,8.0277 -13.2849,13.517 -0.7281,1.3062 -1.1333,2.6182 -0.4103,3.9503 1.8686,1.2511 4.6322,5.3848 6.9533,5.2954 -0.0559,-0.0879 -0.3065,-0.222 -0.3628,-0.3429 1.2571,-8.4907 11.6505,-16.7285 16.9711,-16.8932z"
   nodetypes="cccccccc" />
  </g>
  <g
   id="_65219512">
   <path
   id="path18218_0"
   fill="#843511"
   d="M235.067 34.7731c-2.5879,-3.5866 -5.578,-7.0313 -9.9587,-9.8518 -20.4951,-8.2155 21.5885,32.0943 9.9587,9.8518z"
   nodetypes="ccc" />
   <path
   id="path14425_1"
   fill="#DA251D"
   d="M235.2 11.759c-0.2178,0.5562 -0.9195,0.7639 -0.5096,1.7724 0.9724,1.4481 1.5143,1.4392 2.4592,1.8762 -0.7609,0.177 -2.807,0.8632 -4.9218,1.5768 -2.4361,0.5867 -3.8004,1.6536 -2.8285,2.0096 3.5275,5.9597 9.1573,9.868 13.736,14.802 5.1914,-8.4765 11.4459,-20.0172 0.2883,-23.0848 -2.5856,-0.4835 -5.1094,-1.298 -8.2236,1.0478z"
   nodetypes="cccccccc" />
   <path
   id="path7227_2"
   fill="#843811"
   d="M234.642 13.3743c0.2694,0.9357 1.1222,1.8481 2.3404,2.0921 3.3528,-0.3257 5.6732,0.5597 7.2172,1.7092 -1.017,-1.4182 -1.732,-3.4751 -6.0654,-2.6428 -0.8915,-0.6521 -2.0621,-1.0319 -3.4922,-1.1585z"
   nodetypes="ccccc" />
   <path
   id="path7229_3"
   fill="#843511"
   d="M234.107 18.6524c-3.5815,-0.8186 3.5962,1.6748 7.2581,6.5206 0.1274,-2.3194 0.0043,-4.5448 -7.2581,-6.5206z"
   nodetypes="ccc" />
   <path
   id="path7231_4"
   fill="#DA251D"
   d="M235.62 11.9441l-1.015 1.1805c-2.2771,1.9584 -4.9779,1.2293 -5.1601,-0.8628 0.8551,-2.8731 4.7147,-1.4915 6.1751,-0.3177z"
   nodetypes="cccc" />
   <path
   id="path13382_5"
   fill="#DE251D"
   d="M219.54 24.3637l5.6248 -6.0387c1.6372,-0.7467 2.9852,-0.3054 4.2416,0.5121 5.0346,3.3811 9.3868,8.0277 13.2849,13.517 0.7281,1.3062 1.1333,2.6182 0.4103,3.9503 -1.8686,1.2511 -4.6322,5.3848 -6.9533,5.2954 0.0559,-0.0879 0.3065,-0.222 0.3628,-0.3429 -1.2571,-8.4907 -11.6505,-16.7285 -16.9711,-16.8932z"
   nodetypes="cccccccc" />
  </g>
  <g
   id="_67364080">
   <path
   id="path18218_6"
   fill="#843511"
   d="M235.067 131.553c-2.5879,3.5866 -5.578,7.0313 -9.9587,9.8518 -20.4951,8.2155 21.5885,-32.0943 9.9587,-9.8518z"
   nodetypes="ccc" />
   <path
   id="path14425_7"
   fill="#DA251D"
   d="M235.2 154.567c-0.2178,-0.5562 -0.9195,-0.7639 -0.5096,-1.7724 0.9724,-1.4481 1.5143,-1.4392 2.4592,-1.8762 -0.7609,-0.177 -2.807,-0.8632 -4.9218,-1.5768 -2.4361,-0.5867 -3.8004,-1.6536 -2.8285,-2.0096 3.5275,-5.9597 9.1573,-9.868 13.736,-14.802 5.1914,8.4765 11.4459,20.0172 0.2883,23.0848 -2.5856,0.4835 -5.1094,1.298 -8.2236,-1.0478z"
   nodetypes="cccccccc" />
   <path
   id="path7227_8"
   fill="#843811"
   d="M234.641 152.952c0.2694,-0.9357 1.1222,-1.8481 2.3404,-2.0921 3.3528,0.3257 5.6732,-0.5597 7.2172,-1.7092 -1.017,1.4182 -1.732,3.4751 -6.0654,2.6428 -0.8915,0.6521 -2.0621,1.0319 -3.4922,1.1585z"
   nodetypes="ccccc" />
   <path
   id="path7229_9"
   fill="#843511"
   d="M234.106 147.674c-3.5815,0.8186 3.5962,-1.6748 7.2581,-6.5206 0.1274,2.3194 0.0043,4.5448 -7.2581,6.5206z"
   nodetypes="ccc" />
   <path
   id="path7231_10"
   fill="#DA251D"
   d="M235.62 154.382l-1.015 -1.1805c-2.2771,-1.9584 -4.9779,-1.2293 -5.1601,0.8628 0.8551,2.8731 4.7147,1.4915 6.1751,0.3177z"
   nodetypes="cccc" />
   <path
   id="path13382_11"
   fill="#DE251D"
   d="M219.54 141.963l5.6248 6.0387c1.6372,0.7467 2.9852,0.3054 4.2416,-0.5121 5.0346,-3.3811 9.3868,-8.0277 13.2849,-13.517 0.7281,-1.3062 1.1333,-2.6182 0.4103,-3.9503 -1.8686,-1.2511 -4.6322,-5.3848 -6.9533,-5.2954 0.0559,0.0879 0.3065,0.222 0.3628,0.3429 -1.2571,8.4907 -11.6505,16.7285 -16.9711,16.8932z"
   nodetypes="cccccccc" />
  </g>
  <g
   id="_65219536">
   <path
   id="path18218_12"
   fill="#843511"
   d="M23.928 132.146c2.5879,3.5866 5.578,7.0313 9.9587,9.8518 20.4951,8.2155 -21.5885,-32.0943 -9.9587,-9.8518z"
   nodetypes="ccc" />
   <path
   id="path14425_13"
   fill="#DA251D"
   d="M23.7952 155.16c0.2178,-0.5562 0.9195,-0.7639 0.5096,-1.7724 -0.9724,-1.4481 -1.5143,-1.4392 -2.4592,-1.8762 0.7609,-0.177 2.807,-0.8632 4.9218,-1.5768 2.4361,-0.5867 3.8004,-1.6536 2.8285,-2.0096 -3.5275,-5.9597 -9.1573,-9.868 -13.736,-14.802 -5.1914,8.4765 -11.4459,20.0172 -0.2883,23.0848 2.5856,0.4835 5.1094,1.298 8.2236,-1.0478z"
   nodetypes="cccccccc" />
   <path
   id="path7227_14"
   fill="#843811"
   d="M24.3538 153.545c-0.2694,-0.9357 -1.1222,-1.8481 -2.3404,-2.0921 -3.3528,0.3257 -5.6732,-0.5597 -7.2172,-1.7092 1.017,1.4182 1.732,3.4751 6.0654,2.6428 0.8915,0.6521 2.0621,1.0319 3.4922,1.1585z"
   nodetypes="ccccc" />
   <path
   id="path7229_15"
   fill="#843511"
   d="M24.8888 148.267c3.5815,0.8186 -3.5962,-1.6748 -7.2581,-6.5206 -0.1274,2.3194 -0.0043,4.5448 7.2581,6.5206z"
   nodetypes="ccc" />
   <path
   id="path7231_16"
   fill="#DA251D"
   d="M23.3754 154.975l1.015 -1.1805c2.2771,-1.9584 4.9779,-1.2293 5.1601,0.8628 -0.8551,2.8731 -4.7147,1.4915 -6.1751,0.3177z"
   nodetypes="cccc" />
   <path
   id="path13382_17"
   fill="#DE251D"
   d="M39.4553 142.555l-5.6248 6.0387c-1.6372,0.7467 -2.9852,0.3054 -4.2416,-0.5121 -5.0346,-3.3811 -9.3868,-8.0277 -13.2849,-13.517 -0.7281,-1.3062 -1.1333,-2.6182 -0.4103,-3.9503 1.8686,-1.2511 4.6322,-5.3848 6.9533,-5.2954 -0.0559,0.0879 -0.3065,0.222 -0.3628,0.3429 1.2571,8.4907 11.6505,16.7285 16.9711,16.8932z"
   nodetypes="cccccccc" />
  </g>
 </g>
</svg>