<?xml version="1.0" encoding="UTF-8"?>
<svg width="900" height="600" version="1.1" xmlns="http://www.w3.org/2000/svg" xmlns:cc="http://creativecommons.org/ns#" xmlns:dc="http://purl.org/dc/elements/1.1/" xmlns:rdf="http://www.w3.org/1999/02/22-rdf-syntax-ns#"><metadata><rdf:RDF><cc:Work rdf:about=""><dc:format>image/svg+xml</dc:format><dc:type rdf:resource="http://purl.org/dc/dcmitype/StillImage"/><dc:title/></cc:Work></rdf:RDF></metadata><g transform="translate(0,-480)" stroke-width=".51003"><rect x=".12542" y="481.47" width="900" height="600" fill="#c00"/><path d="m246.9 611.42c-25.806 0-55.991 24.959-55.991 53.917 0 19.891 18.664 32.143 42.166 32.143 22.087 0 35.14-7.8 44.729-19.034-5.9751 53.746-63.274 106.24-110.4 118.23 58.756 0.99539 126.73-43.244 127.19-127.19 0.18525-33.641-11.751-58.065-47.696-58.065zm-2.765 71.889c-22.938 2.1677-32.964-8.7097-33.871-22.811-1.153-17.898 11.751-35.945 34.562-35.945 19.214 0 31.12 14.171 33.18 37.3-8.7097 9.9871-22.465 20.378-33.871 21.456z"/><path d="m122.52 645.54c6.506-3.9816 12.924-7.2746 18.818-9.7327 25.031-10.429 47.497-10.084 57.174-14.71-2.4194-7.1253-8.9862-7.2995-17.972-16.59-13.092-1.4157-44.182 14.865-67.653 31.36-9.7244-9.5502-12.885-12.221-15.296-18.918h-42.169c9.3235 9.0111 23.912 12.022 45.57 27.832-3.7853 3.0525-7.1419 5.9972-9.8544 8.7124-18.039 18.041-24.31 31.692-24.31 45.022 0 20.87 18.664 34.562 40.438 34.562 20.096 0 36.697-12.567 39.401-27.65 1.0728-5.9917 3.8572-30.586-20.392-55.991-1.3161-1.3797-2.5659-2.6737-3.7548-3.8986zm13.087 50.903c-1.4267 11.959-11.986 24.885-31.797 24.885-12.633 0-23.502-11.458-23.502-24.194 0-10.756 7.3493-22.759 16.59-31.797 4.623-4.5235 9.5447-8.6101 14.547-12.321 2.1235 1.7945 4.2968 3.6968 6.5364 5.7539 11.732 10.767 18.664 28.991 17.627 37.673z"/><path d="m327.08 500.82c0 56.065-0.82119 149.33 0 173.5 0.69125 20.35 13.134 31.797 37.327 31.797 25.576 0 39.299-12.434 39.747-31.106 0.57511-24.119-24.539-35.641-24.539-41.129 0-12.252 63.365-37.828 111.64-54.263-4.7226-10.985-6.7963-17.206-6.9124-27.65-12.556 2.1484-15.091 13.554-61.175 34.908-30.932 14.331-58.065 31.297-58.065 48.733 0 13.67 25.922 14.361 25.922 37.327 0 9.9816-9.5613 18.664-22.465 18.664-21.199 0-28.601-10.764-29.032-22.12-1.0369-27.346 8.0654-100.39 6.9124-168.66z"/><path d="m479.16 619.72c-19.123-1.9991-26.726 4.9134-53.226 13.825 0 5.1429 2.765 13.25 6.9124 14.862 19.355-9.7189 30.647-9.4866 46.775-21.008-0.69122-4.377-0.46174-7.6783-0.46174-7.6783z"/></g></svg>
