<svg width="687" height="418" xmlns="http://www.w3.org/2000/svg" preserveAspectRatio="xMidYMid meet">
 <title>Nishan Sahib</title>
 <g>
  <title>Layer 1</title>
  <path stroke="#000000" id="svg_8" d="m0,418l0,-418l687,418l-687,0z" stroke-linecap="null" stroke-linejoin="null" stroke-dasharray="null" stroke-width="0" fill="#F4C430"/>
  <metadata>Created by potrace 1.11, written by Peter Selinger 2001-2013</metadata>
  <g id="svg_6">
   <g id="svg_4" fill="#000000" transform="matrix(0.0280487 0 0 -0.0280487 -842.446 -294.028)">
    <path id="svg_5" d="m35508.300781,-16414.199219c-193,-255 -256,-317 -576,-572c-104,-82 -188,-154 -188,-160c0,-7 14,-41 30,-76c37,-79 41,-109 15,-128c-11,-8 -72,-43 -136,-79c-346,-195 -628,-495 -804,-859c-162,-333 -208,-665 -145,-1040c55,-327 228,-654 489,-927c163,-171 285,-262 491,-370c130,-68 150,-80 150,-93c0,-5 -29,-75 -65,-154c-35,-80 -63,-146 -62,-147c1,0 63,-30 137,-66c149,-71 255,-134 403,-239l97,-70l0,-207c0,-114 -4,-213 -9,-221c-10,-16 -67,13 -315,161c-701,420 -1248,933 -1500,1408c-193,365 -308,817 -310,1220c0,213 15,310 70,453c76,197 131,279 390,577c219,253 248,289 240,297c-18,19 -284,-102 -420,-190c-177,-116 -424,-354 -537,-519c-120,-175 -216,-398 -281,-653c-29,-111 -31,-136 -35,-334c-10,-429 36,-685 198,-1112c155,-411 220,-523 604,-1039c296,-398 369,-505 409,-592c44,-96 80,-212 100,-318c9,-47 21,-89 26,-94c10,-10 33,8 325,264c213,187 359,310 413,349l33,23l77,-27c133,-47 382,-180 365,-195c-4,-4 -57,-29 -118,-55c-265,-114 -359,-171 -484,-290c-162,-155 -212,-252 -214,-417c-2,-92 -1,-98 28,-139c17,-23 47,-56 68,-73c52,-41 144,-48 229,-16c108,40 198,148 198,236c0,22 -12,85 -26,139l-26,100l24,18c13,11 76,46 142,79c113,57 206,88 309,103l47,7l0,-253c0,-140 -5,-270 -10,-289c-5,-20 -26,-51 -46,-70c-57,-54 -94,-142 -94,-220c0,-121 89,-253 210,-309c48,-23 68,-26 155,-26c81,1 111,5 158,24c78,31 151,93 196,165c32,54 36,66 36,130c0,61 -5,81 -34,140c-18,38 -50,87 -70,109l-36,40l-3,266c-2,159 1,272 7,280c8,12 18,13 68,2c129,-29 416,-161 430,-198c4,-9 -6,-64 -20,-122c-34,-133 -33,-144 3,-207c35,-62 77,-99 150,-133c45,-21 70,-26 136,-26c72,0 84,3 115,26c83,64 121,209 85,332c-36,123 -204,315 -376,429c-89,59 -238,135 -355,183c-38,16 -74,32 -78,35c-10,9 121,87 214,128c36,16 104,42 152,58l86,28l77,-60c43,-32 144,-116 226,-186c81,-71 216,-187 299,-258c83,-71 155,-130 159,-130c12,0 19,24 30,115c28,227 124,390 580,986c125,163 244,324 264,358c58,94 177,349 249,531c389,979 275,1819 -328,2426c-190,190 -416,340 -633,418c-77,28 -102,32 -102,17c0,-16 109,-151 250,-311c372,-422 425,-539 437,-966c9,-299 -15,-482 -97,-756c-105,-350 -241,-610 -470,-898c-99,-125 -364,-392 -505,-509c-176,-147 -406,-314 -565,-413c-273,-169 -466,-275 -479,-263c-3,4 -7,102 -9,218l-2,212l102,71c142,99 268,174 419,250c71,35 129,69 129,74c0,6 -30,70 -67,143c-37,72 -69,135 -71,140c-2,4 10,12 28,18c63,23 215,101 294,153c180,117 401,319 520,474c177,232 303,529 342,810c20,142 15,421 -10,554c-79,430 -358,857 -746,1144c-134,99 -280,186 -354,210c-28,9 -52,18 -54,19c-1,1 18,48 42,103l45,102l-102,72c-281,199 -476,388 -686,666c-34,44.999023 -64,81.999023 -66,81.999023c-3,0 -39,-45 -81,-100.999023zm847,-1340c191,-95 482,-372 596,-567c99,-169 193,-508 193,-696c0,-124 -59,-358 -126,-504c-71,-155 -244,-392 -381,-522c-77,-74 -328,-270 -397,-310l-35,-21l-29,93c-31,97 -81,278 -154,558l-43,165l0,400c0,424 3,461 57,715c52,247 151,631 183,707c17,41 20,40 136,-18zm-1397,24c2,-10 20,-72 40,-138c180,-618 255,-1148 217,-1531c-16,-152 -46,-345 -72,-454c-20,-86 -142,-464 -157,-488c-11,-17 -106,32 -275,145c-150,99 -279,222 -376,358c-80,114 -183,323 -215,440c-67,238 -57,563 25,810c114,345 376,656 699,829c95,51 106,54 114,29z" fill="#0e3759"/>
   </g>
  </g>
 </g>
</svg>