<?xml version="1.0" encoding="utf-8"?>
<!DOCTYPE svg PUBLIC "-//W3C//DTD SVG 1.0//EN" "http://www.w3.org/TR/2001/REC-SVG-20010904/DTD/svg10.dtd">
<svg xmlns="http://www.w3.org/2000/svg" width="288" height="288" viewBox="0 0 288 288">
<g fill="#E0C03D">
	<circle cx="144" cy="145" r="26"/> 
	<path d="M182,152c-4,1-7-3-7-7s3-8,7-7l105,7z"/>
	<path d="M151,105c1,4-3,8-7,8s-8-4-7-8l7-105z"/>
	<path d="M105,138c4-1,8,3,8,7s-4,8-8,7L0,145z"/>
	<path d="M137,183c-1-4,3-8,7-8s8,4,7,8l-7,105z"/>
	<path d="M177,122c-3,3-8,3-11,0s-3-8,0-10l80-70z"/>
	<path d="M122,112c3,3,3,8,0,11s-8,3-10,0L42,43z"/>
	<path d="M112,167c2-3,7-3,10,0s3,7,0,10l-80,69z"/>
	<path d="M166,177c-3-3-3-7,0-10s8-3,11,0l69,79z"/>
	<path d="M168,106c-1,4-5,5-9,3c-4-1-6-5-5-8l41-79z"/>
	<path d="M134,101c1,3-1,7-5,8c-4,2-8,1-9-3L93,22z"/>
	<path d="M104,121c4,1,5,5,3,9c-1,4-5,6-8,4L20,94z"/>
	<path d="M99,155c3-2,7,1,8,5c2,3,1,8-2,9l-85,27z"/>
	<path d="M120,184c1-4,5-5,9-3c4,1,6,5,4,8l-40,79z"/>
	<path d="M154,189c-1-3,1-7,5-9c4-1,8,0,9,3l27,85z"/>
	<path d="M182,169c-3-1-4-6-3-10c2-3,6-6,9-4l79,41z"/>
	<path d="M189,134c-3,2-7-1-9-5c-1-3,0-8,3-9l85-27z"/>
</g></svg>