<svg height="600" viewBox="0 0 250 250" width="900" xmlns="http://www.w3.org/2000/svg"><path d="m-62.5 0h375v250h-375z" fill="#d70000"/><g fill="#fff" transform="matrix(1.15795 0 0 1.1574 422.807665 269.49234)"><path d="m-300.29401-52.341999h86v4h-86z"/><path d="m-295.29401-57.341999h76v4h-76z"/><path d="m-290.29401-62.341999h66v4h-66z"/><path d="m-285.29401-67.342003h56v4h-56z"/><path d="m-280.29401-72.342003h46v4h-46z"/><path d="m-287.29501-163.343h60v4h-60z"/><path d="m-283.29501-168.343h52v4h-52z"/><path d="m-279.29501-173.343h44v4h-44z"/><path d="m-275.29501-178.343h36v4h-36z"/><path d="m-271.29501-183.343h28v4h-28z"/><path d="m-267.29501-188.343h20v4h-20z"/><path d="m-263.29501-193.343h12v4h-12z"/><path d="m-259.29501-198.343h4v4h-4z"/><path d="m-258.29501-201.343h2v2h-2z"/><path d="m-261.29501-158.343h8v2h-8z"/><path d="m-258.29501-155.343h2v2h-2z"/></g><g transform="matrix(.416667 0 0 .416667 -511.661335 -91.43076)"><g transform="matrix(2.88791 0 0 2.89089 926.599 188.783)"><g transform="translate(86.659 3.76234)"><path d="m122.77 145.023c.268 1.723.611 3.47 1.08 5.259-.059.547-.026 1.1.003 1.654.031.55.063 1.102.003 1.612-.268 1.138-.45 2.279-.57 3.421-.121 1.148-.179 1.63164-.196 2.76964l14.94948-.00042c-.245-1.764-.57348-2.58622-1.13948-3.71722-.558-1.112-1.269-1.927-2.136-2.439l-.724-3.473c.179-1.033.33-2.087.479-3.14.3-2.11.601-4.22 1.171-6.318.327-1.204.779-2.271 1.257-3.4.779-1.841 1.627-3.843 2.134-6.847.346-2.057.395-4.524.447-7.179.069-3.537.146-7.412.94-11.04.625.23 1.36.431 2.189.606.909.193 1.931.357 3.045.497.22.603.327 1.189.355 1.776.032.641-.029 1.282-.136 1.943l-.05.317.317-.026c.776-.061 1.675-.418 2.323-1.143.092-.104.181-.216.263-.336.197.896.565 1.435 1.019 2.101.322.473.69 1.013 1.072 1.812.194.789-.429 2.198-1.165 3.868-.975 2.208-2.142 4.851-1.953 7.313l.001.011v.002c.212 2.705 1.092 4.988 1.807 6.848.428 1.107.795 2.061.918 2.844v.003c.004.019-.001-.007.001.003l.001.002c.123.786.071 1.444-.095 1.907-.085.235-.197.413-.328.523-.109.093-.235.137-.368.12-.122-.015-.26-.077-.405-.193-.689-.552-.644-1.771-.596-3.018.015-.382.029-.769.022-1.147 0 0 0 0 0-.002-.001-.021-.001-.034-.001-.05l-.007-.365-.338.139c-1.073.434-2.146.996-3.218 1.685l-.128.082.012.147c.088 1.124.567 2.456 1.304 3.551.509.757 1.142 1.403 1.855 1.795.735.405 1.555.54 2.409.256.59-.196 1.192-.593 1.79-1.242 1.91-2.071 1.446-4.664.945-7.47-.403-2.259-.833-4.66-.012-6.975.602-1.7 1.566-3.262 2.607-4.776 1.941.952 4.244 1.167 6.959.545l.979-.223-.97-.265c-2.139-.582-3.855-1.434-5.271-2.473.145-.209.289-.421.432-.631 1.795.696 3.88.804 6.289.251l.977-.223-.968-.264c-1.924-.523-3.506-1.266-4.834-2.165.693-1.321 1.198-2.697 1.344-4.194.504-5.214-1.745-7.733-3.835-10.076-.054-.062-.109-.122-.163-.183-.225-2.24-.445-4.068-1.067-5.75-.628-1.701-1.66-3.241-3.502-4.88-1.8-4.211-4.064-7.029-6.846-8.31-2.769-1.275-6.027-1.022-9.817.901-1.026-.843-2.063-1.4-3.108-1.512-1.025-.107-2.045.211-3.058 1.102 0 0-4.01563-2.6903-7.95888-2.69305s-7.81412 2.68205-7.81412 2.68205c-1.009-.884-2.025-1.199-3.046-1.092-1.046.112-2.08.669-3.108 1.512-3.791-1.923-7.048-2.176-9.817-.901-2.781 1.28-5.046 4.099-6.845 8.31-1.843 1.64-2.875 3.179-3.502 4.88-.622 1.682-.842 3.51-1.067 5.75-.054.062-.109.122-.164.183-2.089 2.342-4.338 4.862-3.834 10.076.144 1.498.65 2.874 1.344 4.194-1.329.899-2.912 1.642-4.834 2.165l-.968.264.978.223c2.408.552 4.493.445 6.288-.251.142.209.286.421.432.631-1.417 1.04-3.133 1.891-5.273 2.473l-.968.265.979.223c2.714.622 5.018.407 6.959-.545 1.04 1.515 2.005 3.076 2.607 4.776.821 2.314.392 4.716-.012 6.975-.502 2.806-.965 5.398.945 7.47.598.649 1.201 1.046 1.79 1.242.855.284 1.674.149 2.41-.256.713-.392 1.346-1.038 1.855-1.795.735-1.095 1.215-2.427 1.303-3.551l.011-.147-.127-.082c-1.073-.688-2.145-1.251-3.217-1.685l-.338-.139-.007.365c0 .016 0 .029-.001.05v.002c-.006.379.008.766.023 1.147.047 1.246.093 2.466-.596 3.018-.146.116-.283.179-.406.193-.133.017-.26-.027-.369-.12-.13-.11-.242-.288-.327-.523-.166-.463-.218-1.121-.094-1.907v-.002c.002-.01-.002.016 0-.003v-.003c.125-.783.492-1.736.918-2.844.717-1.859 1.596-4.143 1.808-6.848v-.002l.001-.011c.188-2.462-.979-5.104-1.953-7.313-.737-1.669-1.359-3.079-1.166-3.868.381-.798.75-1.339 1.073-1.812.454-.666.821-1.204 1.019-2.101.082.121.17.233.263.336.648.725 1.546 1.082 2.323 1.143l.318.026-.051-.317c-.106-.662-.166-1.302-.135-1.943.028-.587.135-1.173.355-1.776 1.115-.139 2.137-.304 3.044-.497.829-.176 1.564-.376 2.19-.606.794 3.628.871 7.502.941 11.04.052 2.655.101 5.123.447 7.179.506 3.004 1.354 5.006 2.133 6.847.478 1.129.929 2.196 1.256 3.4.57 2.099.871 4.208 1.172 6.318.149 1.053.301 2.106.479 3.14l-.724 3.473c-.867.513-1.58 1.327-2.135 2.439-.566 1.131-.85026 1.95573-1.09726 3.71973l14.85116-.00413c-.018-1.138-.0199-1.6186-.1419-2.7676-.119-1.142-.302-2.283-.57-3.421-.059-.511-.028-1.063.002-1.612.031-.555.063-1.107.005-1.654.424-1.615.744-3.196.999-4.755.479.029.952-.01 1.404-.117.366-.085.719-.216 1.047-.386z" fill="#d70000"/><path d="m159.348 120.589c1.132.758 2.438 1.407 3.97 1.91-1.847.288-3.478.147-4.908-.383.332-.505.648-1.012.938-1.527zm-6.114-1.563c.991 1.548 2.165 2.982 3.687 4.195 1.34 1.068 2.948 1.964 4.938 2.617-2.224.347-4.131.072-5.758-.753-1.853-.941-3.351-2.601-4.546-4.879.059-.55.246-.881.527-1.05.284-.171.682-.198 1.152-.13zm-69.464 1.563c-1.131.758-2.438 1.407-3.97 1.91 1.847.288 3.478.147 4.909-.383-.333-.505-.65-1.012-.939-1.527zm6.113-1.563c-.991 1.548-2.165 2.982-3.685 4.195-1.34 1.068-2.948 1.964-4.938 2.617 2.224.347 4.131.072 5.758-.753 1.851-.941 3.351-2.601 4.545-4.879-.057-.55-.246-.881-.526-1.05-.286-.171-.684-.198-1.154-.13zm31.675 15.519.002.018c.131 1.158.241 2.278.352 3.396.005.044.01.089.014.135-.256-.011-.505.011-.739.062.006-.065.014-.131.02-.196.11-1.118.221-2.238.351-3.396zm1.108 9.941c0 .003 0 .007.001.009-.333.192-.699.335-1.085.426-.336.079-.686.117-1.039.112v.002c-.444.003-.927-.086-1.35-.229-1.404-.473-2.691-1.697-3.256-3.868-.51-1.958-.018-4.116.743-6.186-.00372-.00057.1518-.40216.153-.406-.001 0-.001 0-.001 0 .27107-.63381.51831-1.27576.793-1.908-.00115.00131.17624-.3979.176-.4.05-.112.099-.224.147-.335.044-.099.088-.195.131-.294-.00169.00059.17923-.40109.177-.398.093-.214.185-.425.271-.632.00412.00034.16604-.40271.168-.402.104-.255.2-.502.288-.742-.00379.00273.14072-.40485.142-.406.089-.271.164-.531.223-.779-.00096-.00372.10204-.51817.099-.524.312-2.218-.595-5.333-1.481-8.385-.296-1.016-.589-2.025-.835-2.991-.333-1.315-.148-1.729.207-3.297.03-.135-.056-.27-.19-.299-.135-.03-.27.054-.301.189-.143.629-.274 1.255-.389 1.878-.267-.316-.635-.54-1.051-.676-.592-.194-1.285-.211-1.912-.069-.043.01-.086.021-.128.032.027-1.036.084-2.106.165-3.204.002-.025-.002-.051-.007-.073.509-.733.905-1.794 1.299-2.848.353-.949.704-1.892 1.119-2.539.096.031.198.048.308.049 1.471.019.852-4.391-.052-4.442-.163.152-.307.315-.434.484-.169-.829-.548-1.62-.812-2.287-.14039-.353618-.27302-.713346-.391-1.059-.16125-1.982607-1.33703-4.363022-1.18904-6.14528-.17923-1.296065.34029-3.434297.67392-4.252104.50444-.144875 6.461-5.599564 15.06168-.08492 1.50421 3.373383-.11087 8.115342-.60856 10.560304-.021.048-.027.1-.02.148-.095.278-.204.554-.314.833-.264.667-.644 1.458-.812 2.287-.128-.169-.271-.332-.434-.484-.905.051-1.523 4.461-.053 4.442.109-.001.212-.019.307-.049.416.647.767 1.59 1.121 2.539.393 1.054.79 2.115 1.297 2.848-.004.022-.007.048-.005.073.081 1.098.137 2.168.164 3.204-.041-.011-.084-.021-.127-.032-.628-.142-1.321-.125-1.913.069-.416.136-.784.36-1.05.676-.114-.623-.246-1.249-.391-1.878-.029-.135-.166-.219-.3-.189-.136.029-.221.165-.189.299.001.002.001.005.002.008h-.007c.001.023.002.047.004.07l-.006.002c.144.429.059 1.087.069 1.559.133 5.416-.797 8.673-1.845 12.343-.033.113-.062.213-.132.46-.08425.28096-.13426.52747-.215.723-.503 1.535-1.282 2.873-2.092 4.119l-.177.271c-.174.264-.348.523-.521.781-1.104 1.647-2.136 3.186-2.494 4.918-.28 1.354-.12 2.672.308 3.617.215.472.498.857.831 1.115.186.143.386.245.597.304.218.046.429.057.636.035.409-.063.838-.292 1.263-.722.18-.183.227-.33.283-.487-.479.216-1.024.168-1.49-.11 0-.001.001-.004.001-.007-.233-.136-.414-.353-.525-.583-.001-.002-.002-.003-.002-.005-.001-.001-.001-.001-.001-.001-.001-.002-.001-.003-.002-.003v-.003c-.001-.001-.002-.002-.002-.002 0-.002 0-.002-.001-.002 0-.001-.001-.003-.002-.003 0-.001 0-.001 0-.001-.091-.192-.149-.403-.177-.617-.164-1.279.536-2.074 1.784-2.037.254-.005.509.035.763.124v.005c.312.1.609.259.865.479.325.278.585.661.72 1.151.467 1.694-.082 3.028-1.088 3.828-.001-.004-.002-.007-.002-.012-.136.114-.291.22-.46.316zm-13.521 2.807c-.02-.131-.038-.262-.057-.393-.304-2.13-.607-4.26-1.186-6.382-.334-1.224-.795-2.313-1.284-3.462-.769-1.813-1.607-3.785-2.105-6.735-.34-2.015-.388-4.467-.44-7.106-.062-3.097-.129-6.455-.679-9.701 1.839 2.509 1.935 7.282 2.017 11.408.049 2.455.094 4.684.5 6.128.722 2.563 1.438 4.48 2.042 6.097 1.328 3.557 2.107 5.644 1.192 10.146zm-8.17027-53.96268 6.53727-5.09532.029.015.129-.108c.999-.841 1.991-1.398 2.971-1.502.928-.098 1.859.215 2.799 1.085-.397 1.481-.556 2.843-.519 4.108-1.057-1.589-2.101-2.492-3.05-2.848-.673-.251-1.301-.236-1.855.002-.548.234-1.018.682-1.386 1.298-.707 1.181-1.042 3.003-.819 5.123-.637-.382-1.29-.642-1.958-.778-.789-.162-1.596-.15-2.42.032-.26-.37-.396-.734-.321-1.146l-.22753-.317729zm14.53927 11.64768c-.441.693-.801 1.658-1.163 2.629-.421 1.128-.847 2.267-1.386 2.932-.489.602-1.104.788-1.965.123-.656-2.379-1.534-4.195-2.554-5.647-1.006-1.432-2.151-2.512-3.357-3.431-.167-3.212-1.671-4.776-2.811-5.96-.175-.182-.341-.354-.49-.521.669-.118 1.324-.112 1.963.019.761.155 1.505.489 2.232.998.173.122.424-.031.394-.242-.328-2.232-.025-4.146.684-5.333.314-.525.705-.903 1.151-1.094.438-.188.94-.199 1.484.005.837.314 1.771 1.124 2.737 2.554.00067.000236.28357.427765.281.43.097.152.191.311.287.476.086.714.234 1.397.436 2.055.00202-.000096.15706.478283.157.48.30479.839487.28284 1.728918.462 2.616.00187.002234.15888.484888.161.486.084.229.173.455.264.684.157.396.317.799.446 1.226.00171-.00202.12679.49309.126.487.057.251.256.669.278.944.003.04.016.076.035.107-.528 1.139-.422 2.403.148 2.977zm.482 13.704c-.018.695 0 1.383.063 2.061.225 2.383 1.001 4.644 2.666 6.707-2.352-.484-3.784-2.313-4.571-5.024-.303-1.04-.51-2.21-.639-3.484.014-.029.024-.059.028-.093.039-.366.216-.627.456-.788.177-.118.394-.184.619-.2.23-.017.467.02.678.106.315.127.58.367.7.715zm.325-3.281c-.132.823-.231 1.64-.286 2.447-.16-.148-.347-.264-.548-.346-.287-.118-.601-.167-.903-.145-.307.022-.608.118-.863.287-.107.072-.206.154-.293.252-.073-1.094-.095-2.253-.074-3.464.083-.026.168-.049.253-.068.541-.124 1.137-.108 1.642.057.481.157.875.454 1.045.896.01.029.019.055.027.084zm2.49 35.14017c-.007.224-.019 1.14083-.032 1.36583-.001.029-.002.74783-.004.77483-1.323-.262-2.605-.352-3.849-.289-1.35.066-2.66.312-3.936.716-.341-.094-.702-.172-1.089-.231-.232-.036-.477-.065-.732-.085l.35594-2.10908c.178.017.14906.00842.31306.03342.398.061.76.142 1.102.235l.062.018.058-.02c1.256-.401 2.55-.647 3.887-.714 1.251-.06 2.539.034 3.864.305zm.021 3.30283c.217.948.373 1.895.483 2.841-.295.161-.552.41-.756.723-.212.324-.367.72-.451 1.161-.033-.089-.069-.176-.107-.261-.502-1.119-1.413-1.896-2.38-1.896-.058 0-.12.004-.186.012-.584.061-1.079.406-1.424.934-.144.219-.26.468-.347.744-.085-.255-.197-.489-.332-.693-.345-.528-.839-.873-1.424-.935-.064-.006-.127-.01-.186-.01-.965 0-1.877.775-2.38 1.896-.039.089-.076.178-.109.271-.063-.57-.238-1.077-.5-1.478-.345-.529-.839-.873-1.424-.934-.064-.008-.126-.011-.186-.011-.163 0-.323.022-.481.064.005-.01.009-.02.013-.028.534-1.063 1.211-1.823 2.036-2.282l.091-.05c.38.017.729.053 1.057.103.398.061.76.143 1.102.237l.062.016.058-.02c1.256-.401 2.55-.646 3.887-.714 1.257-.06 2.551.034 3.884.31zm-13.142 5.367c.173-.852.392-1.61.656-2.275.249-.145.511-.225.777-.225.05 0 .095.003.135.006.424.044.792.306 1.054.708.276.425.44 1.007.44 1.663 0 .041 0 .082-.001.123zm13.686-1.967c.064.654.108 1.308.136 1.967h-.969c.021-.603.179-1.135.438-1.53.113-.174.246-.323.395-.437zm-5.383 1.967c.013-.625.174-1.175.439-1.583.264-.4.63-.662 1.054-.706.04-.004.085-.007.135-.007.761 0 1.498.653 1.921 1.598.084.187.155.39.213.599.009.033.018.065.025.1h-3.787zm-4.416 0c.005-.017.009-.033.013-.048.058-.211.129-.411.213-.599.423-.944 1.161-1.599 1.921-1.599.05 0 .095.003.135.007.424.045.79.305 1.054.708.259.396.418.928.438 1.53h-3.774zm-13.264-42.53c-.686-.205-1.297-.647-1.673-1.257h-.001c-.171-.276-.288-.565-.396-.86.124-1.473.628-2.174 1.108-2.841.173-.24.343-.477.494-.741-.059.401-.173.791-.285 1.181-.385 1.329-.769 2.66.753 4.518zm-4.538 4.188c.2.827.642 1.826 1.132 2.934.942 2.129 2.068 4.673 1.921 6.991-.002.023-.022.279-.024.304-.235 2.55-1.074 4.718-1.759 6.494-.437 1.132-.814 2.107-.947 2.946h-.001c-.001.008-.001.009-.001.011-.137.874-.075 1.617.117 2.149.115.321.279.573.478.739.219.186.476.27.754.236.216-.026.441-.122.663-.3.889-.711.838-2.054.786-3.429-.01-.268-.021-.536-.022-.798.888.382 1.778.854 2.667 1.415-.11 1.012-.55 2.188-1.207 3.162-.467.693-1.043 1.282-1.685 1.633-.619.34-1.304.454-2.015.219-.513-.171-1.045-.523-1.583-1.103-1.745-1.89-1.301-4.364-.822-7.044.092-.512.186-1.032.266-1.557l.047-.332c.063-.443.114-.89.144-1.34l.019-.333c.012-.268.017-.534.011-.802l-.011-.336c-.021-.399-.063-.801-.135-1.2l-.066-.332c-.073-.332-.167-.666-.285-.998-.01-.029-.021-.06-.031-.088l-.119-.314c-.265-.675-.581-1.328-.931-1.963l-.165-.292c-.171-.299-.349-.594-.532-.883l-.18-.283c-.222-.344-.45-.684-.682-1.021 1.679-.946 3.067-2.464 4.198-4.485zm42.198 26.424c.019-.131.036-.262.055-.393.305-2.13.608-4.26 1.188-6.382.334-1.224.795-2.313 1.283-3.462.77-1.813 1.607-3.785 2.104-6.735.34-2.015.39-4.467.441-7.106.062-3.097.128-6.455.679-9.701-1.839 2.509-1.937 7.282-2.018 11.408-.05 2.455-.094 4.684-.499 6.128-.722 2.563-1.438 4.48-2.042 6.097-1.327 3.557-2.107 5.644-1.191 10.146zm8.028-53.801-6.397-5.257-.028.015-.129-.108c-.998-.841-1.991-1.398-2.971-1.502-.927-.098-1.859.215-2.799 1.085.397 1.481.555 2.843.52 4.108 1.055-1.589 2.1-2.492 3.049-2.848.673-.251 1.301-.236 1.855.002.549.234 1.019.682 1.387 1.298.705 1.181 1.041 3.003.818 5.123.638-.382 1.29-.642 1.958-.778.788-.162 1.595-.15 2.42.032.26-.37.396-.734.321-1.146-.001-.008-.003-.016-.004-.024zm-14.399 11.486c.442.693.803 1.658 1.164 2.629.421 1.128.847 2.267 1.387 2.932.488.602 1.102.788 1.964.123.656-2.379 1.534-4.195 2.555-5.647 1.006-1.432 2.149-2.512 3.355-3.431.168-3.212 1.673-4.776 2.811-5.96.176-.182.342-.354.491-.521-.669-.118-1.324-.112-1.963.019-.761.155-1.505.489-2.232.998-.172.122-.424-.031-.394-.242.328-2.232.026-4.146-.684-5.333-.313-.525-.705-.903-1.152-1.094-.438-.188-.939-.199-1.483.005-.838.314-1.771 1.124-2.737 2.554-.00513-.001654-.27484.426698-.281.43-.095.152-.189.311-.286.476-.086.714-.234 1.397-.437 2.055.00217.000393-.14881.480447-.158.48-.30456.839501-.28242 1.728772-.461 2.616-.00114-.002707-.16078.493461-.162.486-.084.229-.173.455-.264.684-.157.396-.317.799-.445 1.226-.00047.00402-.12629.49366-.128.487-.056.251-.256.669-.278.944-.002.04-.014.076-.033.107.528 1.139.422 2.403-.149 2.977zm-8.757 23.005c-2.695-.451-4.309-2.435-5.175-5.417-.859-2.965-.978-6.921-.684-11.331-.624.521-1.38.563-2.367-.234-.019-.016-.078-.106-.085-.129-.641-2.355-1.501-4.145-2.502-5.569-1-1.422-2.14-2.486-3.341-3.391-.037-.027-.1-.144-.102-.19-.128-3.104-1.579-4.612-2.673-5.75-.691-.719-1.252-1.302-1.323-2.052l6.76406-6.013594c-.17661.632422-9.730133-7.232615-16.195808 7.369646-2.109301 2.16358-3.201104 3.494266-3.946252 6.657948-.248 1.167-.39 2.438-.535 3.888l-.008.083-.054.059c-.073.082-.145.164-.218.245-.757.847-1.537 1.718-2.189 2.737-.000359-.00018-.194179.31405-.193.314-.255.427-.486.88-.683 1.369-.001081.00067-.126245.32474-.125.325-.099.275-.188.562-.266.859.00033.00198-.07876.32381-.078.327-.195.876-.287 1.857-.239 2.973-.009083.00162.015952.33597.019.336.009.149.022.3.037.455.068.7.222 1.377.44 2.035.002901.00447.111872.32347.113.324.123.332.261.661.412.985-.000244.00292.146947.30394.145.303.133.268.274.534.423.797-.003626.00261.176346.31425.179.31.437.747.927 1.479 1.438 2.211.017-.016.035-.029.052-.043 1.476-1.177 2.616-2.567 3.577-4.072.001-.001.001-.003.001-.004.234-1.12.576-2.094 1.014-2.935.442-.848.984-1.561 1.616-2.154.101-.095.261-.09.356.011s.09.259-.011.354c-.59.554-1.098 1.224-1.514 2.02-.372.714-.67 1.53-.889 2.456.488-.043.919.015 1.263.222.227.136.412.331.545.596.363-.723.712-1.233 1.02-1.683.532-.779.935-1.37 1.054-2.638-.093-1.266.337-2.323 1.167-3.474.311-.433.613-.852.792-1.448-.003-.047.014-.091.045-.124.286-.722.685-.935 1.069-1.139.326-.173.64-.339.826-.911.029-.087.124-.135.212-.106s.136.123.107.211c-.228.698-.6.896-.987 1.102-.301.159-.612.326-.85.816.832-.039 1.562-.16 2.168-.381.644-.235 1.15-.584 1.487-1.067.053-.076.159-.094.234-.041.076.053.095.157.042.233-.379.542-.938.931-1.649 1.189-.661.241-1.455.371-2.355.407.031.708-.153 1.347-.337 1.985-.36 1.244-.719 2.489.692 4.217-.056-.483-.082-.958-.058-1.43.034-.682.166-1.366.444-2.075l.055-.139.149-.019c1.166-.142 2.227-.31 3.16-.507.93-.197 1.733-.424 2.388-.687l.273-.109.022.098c.471-.31.614-1.235.622-2.411-.024-.062-.023-.129.001-.188-.001-.09-.002-.18-.004-.272-.013-.729-.068-1.548-.125-2.366-.093-1.368-.186-2.738-.081-3.808.004-.041.008-.079.008-.081.015-.137.14-.237.277-.222.138.014.238.138.223.275-.005.05-.007.065-.008.077-.077.782-.039 1.768.024 2.801l1.449 1.565c.094.101.088.261-.014.354-.103.094-.262.088-.356-.013l-1.026-1.109c.003.043.006.085.009.128.055.814.11 1.627.124 2.391.003.111.004.222.004.33l1.042 1.616c.075.117.041.272-.076.347-.118.075-.273.041-.348-.075l-.648-1.006c-.082 1.092-.348 1.91-.98 2.183.032.15.063.299.094.45.022.01.044.025.063.041.002.002.033.034.036.036 2.401 2.461 2.507 7.746 2.598 12.267.048 2.423.092 4.624.479 6.003.718 2.553 1.429 4.454 2.028 6.058 1.481 3.969 2.296 6.151.924 11.701.041.273.085.545.13.817.146.016.286.035.424.056.387.06.748.139 1.089.231.015-.006.028-.01.042-.014.652-5.548-.427-10.087-1.561-14.849-1.584-6.645-3.27-13.723-.562-24.587.034-.134.17-.216.305-.183.136.033.218.169.184.303-2.678 10.744-1.007 17.762.563 24.352 1.131 4.745 2.208 9.271 1.596 14.809 1.096-.303 2.219-.491 3.369-.547 1.313-.065 2.668.039 4.067.334.325-1.328.581-2.634.795-3.926-.023-.005-.046-.007-.068-.012-1.809-.327-3.566-1.688-4.271-4.396-.646-2.486.203-5.21 1.235-7.705.005-.036.019-.068.04-.096.279-.67.487-1.14.763-1.762.222-.501.443-1 .665-1.534.296-.719.544-1.388.688-1.98zm3.217 6.543c.126 1.109.238 2.247.35 3.384.009.082.017.162.024.243.009.002.018.006.026.007.485.103.966.319 1.365.663.396.343.713.806.876 1.4.533 1.929-.115 3.455-1.285 4.371-.066.053-.136.103-.206.15.234 1.528.525 3.075.912 4.651 1.399-.295 2.754-.399 4.066-.334 1.151.056 2.273.244 3.369.547-.612-5.538.466-10.063 1.596-14.809 1.568-6.59 3.24-13.608.562-24.352-.032-.134.049-.27.184-.303.136-.033.272.049.305.183 2.708 10.864 1.022 17.942-.56 24.587-1.134 4.762-2.215 9.301-1.562 14.849.015.004.028.008.041.014.343-.093.703-.172 1.09-.231.138-.021.279-.04.424-.056.046-.272.09-.544.13-.817-1.371-5.55-.557-7.732.925-11.701.6-1.604 1.31-3.505 2.028-6.058.387-1.379.431-3.58.479-6.003.09-4.521.196-9.806 2.598-12.267.002-.002.033-.034.035-.036.02-.016.041-.031.063-.041.03-.15.063-.299.094-.45-.634-.273-.898-1.091-.98-2.183l-.647 1.006c-.075.116-.23.149-.348.075-.118-.075-.15-.23-.076-.347l1.042-1.616c0-.108.001-.219.003-.33.015-.764.069-1.577.125-2.391.003-.043.006-.085.008-.128l-1.025 1.109c-.094.101-.253.107-.355.013-.103-.093-.108-.252-.016-.354l1.449-1.565c.064-1.033.102-2.019.024-2.801 0-.011-.003-.027-.008-.077-.015-.137.084-.261.224-.275.137-.016.262.084.276.222 0 .002.005.04.009.081.105 1.07.011 2.44-.081 3.808-.056.818-.112 1.637-.126 2.366-.001.092-.003.182-.003.272.024.059.024.126 0 .188.009 1.176.151 2.101.623 2.411l.022-.098.272.109c.653.263 1.458.49 2.389.687.933.197 1.994.365 3.159.507l.149.019.055.139c.279.709.412 1.393.444 2.075.023.472-.002.947-.058 1.43 1.411-1.728 1.053-2.973.692-4.217-.184-.638-.369-1.277-.338-1.985-.9-.036-1.693-.166-2.354-.407-.711-.258-1.27-.647-1.649-1.189-.053-.076-.034-.18.041-.233.077-.053.182-.035.234.041.338.483.843.832 1.488 1.067.606.221 1.336.342 2.168.381-.237-.49-.55-.657-.85-.816-.387-.206-.759-.404-.987-1.102-.029-.088.02-.182.106-.211.089-.028.184.02.213.106.186.572.499.738.826.911.383.204.782.417 1.069 1.139.03.033.048.077.045.124.178.596.48 1.015.791 1.448.828 1.151 1.258 2.208 1.166 3.474.118 1.268.521 1.858 1.054 2.638.308.45.657.96 1.02 1.683.133-.265.318-.46.545-.596.345-.207.775-.265 1.264-.222-.219-.925-.519-1.741-.89-2.456-.417-.796-.925-1.466-1.514-2.02-.102-.095-.106-.253-.012-.354.096-.101.254-.106.355-.011.633.593 1.176 1.307 1.617 2.154.438.841.779 1.815 1.014 2.935 0 .001 0 .003.001.004.962 1.505 2.101 2.895 3.576 4.072.019.014.035.027.053.043.511-.733 1.001-1.465 1.438-2.211-.00031-.00034.17998-.31156.179-.31.149-.264.291-.53.423-.797.00248-.00015.15248-.30519.148-.303.15-.324.289-.653.41-.985.00345-.0001.11686-.3225.115-.324.218-.658.371-1.335.438-2.035.016-.155.027-.306.037-.455.00263-.00506.01901-.33548.018-.336.047-1.115-.045-2.097-.239-2.973.00159-.00091-.07691-.32773-.079-.327-.078-.297-.167-.584-.268-.859-.00008.00003-.12152-.32448-.122-.325-.198-.489-.431-.942-.684-1.369-.01104-.0123-.19261-.31167-.194-.314-.652-1.019-1.432-1.89-2.189-2.737-.072-.081-.146-.163-.218-.245l-.054-.059-.008-.083c-.146-1.45-.24112-2.81475-.48712-3.98175-1.15469-4.332104-3.14122-5.558684-4.03161-6.468619-3.24937-7.171869-7.69961-11.313167-16.03535-7.385456l6.63808 5.934825c-.07.75-.632 1.333-1.322 2.052-1.095 1.138-2.546 2.646-2.675 5.75-.001.046-.063.163-.1.19-1.201.905-2.343 1.969-3.342 3.391-1 1.425-1.861 3.214-2.502 5.569-.006.022-.067.113-.085.129-.986.797-1.743.755-2.366.234.292 4.41.176 8.366-.686 11.331-.874 3.013-2.514 5.008-5.258 5.432-.574 1.845-1.526 3.393-2.481 4.831zm2.244 16.01517c.007.224.02 1.83266.033 2.05766.001.029.002.056.004.083 1.322-.262 2.604-.352 3.848-.289 1.351.066 2.661.312 3.935.716.343-.094.703-.172 1.09-.231.233-.036.478-.065.733-.085l-.46947-2.11634c-.4363.07265-.87259.16804-1.30353.27568l-.06.018-.06-.02c-1.255-.401-2.549-.647-3.886-.714-1.25-.06-2.538.034-3.864.305zm-.02 3.30283c-.217.948-.374 1.895-.483 2.841.295.161.552.41.757.723.211.324.366.72.45 1.161.034-.089.069-.176.107-.261.502-1.119 1.414-1.896 2.38-1.896.059 0 .121.004.187.012.583.061 1.078.406 1.424.934.143.219.26.468.347.744.085-.255.197-.489.331-.693.345-.528.839-.873 1.424-.935.065-.006.127-.01.186-.01.966 0 1.878.775 2.381 1.896.038.089.074.178.109.271.063-.57.236-1.077.498-1.478.346-.529.841-.873 1.425-.934.065-.008.128-.011.186-.011.164 0 .324.022.482.064-.005-.01-.009-.02-.014-.028-.533-1.063-1.212-1.823-2.034-2.282l-.093-.05c-.379.017-.729.053-1.056.103-.397.061-.761.143-1.103.237l-.06.016-.06-.02c-1.255-.401-2.549-.646-3.886-.714-1.258-.06-2.552.034-3.885.31zm13.141 5.367c-.172-.852-.392-1.61-.657-2.275-.248-.145-.511-.225-.777-.225-.05 0-.094.003-.134.006-.425.044-.791.306-1.054.708-.277.425-.44 1.007-.44 1.663 0 .041.001.082.002.123zm-13.686-1.967c-.063.654-.107 1.308-.134 1.967h.968c-.021-.603-.18-1.135-.438-1.53-.114-.174-.247-.323-.396-.437zm5.385 1.967c-.014-.625-.174-1.175-.439-1.583-.265-.4-.631-.662-1.055-.706-.04-.004-.085-.007-.135-.007-.761 0-1.497.653-1.921 1.598-.085.187-.155.39-.213.599-.009.033-.017.065-.025.1h3.788zm4.415 0c-.004-.017-.008-.033-.013-.048-.057-.211-.13-.411-.213-.599-.423-.944-1.161-1.599-1.921-1.599-.05 0-.096.003-.135.007-.425.045-.791.305-1.054.708-.259.396-.418.928-.438 1.53h3.774zm13.263-42.53c.686-.205 1.298-.647 1.674-1.257h.001c.17-.276.287-.565.395-.86-.122-1.473-.627-2.174-1.107-2.841-.173-.24-.343-.477-.493-.741.06.401.173.791.285 1.181.383 1.329.768 2.66-.755 4.518zm4.538 4.188c-.2.827-.642 1.826-1.132 2.934-.942 2.129-2.067 4.673-1.921 6.991.003.023.022.279.025.304.234 2.55 1.073 4.718 1.758 6.494.438 1.132.814 2.107.947 2.946h.001c.002.008.002.009.002.011h-.002c.139.874.076 1.617-.116 2.149-.114.321-.279.573-.478.739-.219.186-.475.27-.754.236-.217-.026-.441-.122-.663-.3-.889-.711-.838-2.054-.786-3.429.011-.268.021-.536.022-.798-.888.382-1.777.854-2.667 1.415.11 1.012.552 2.188 1.208 3.162.467.693 1.042 1.282 1.684 1.633.619.34 1.305.454 2.016.219.512-.171 1.045-.523 1.581-1.103 1.746-1.89 1.303-4.364.822-7.044-.091-.512-.185-1.032-.265-1.557l-.049-.332c-.062-.443-.112-.89-.144-1.34l-.02-.333c-.012-.268-.016-.534-.011-.802l.01-.336c.02-.399.063-.801.134-1.2l.067-.332c.073-.332.167-.666.286-.998.01-.029.019-.06.03-.088l.119-.314c.266-.675.581-1.328.931-1.963l.167-.292c.169-.299.349-.594.531-.883l.179-.283c.222-.344.45-.684.682-1.021-1.675-.946-3.062-2.464-4.194-4.485zm-24.546-5.468c.132.823.232 1.64.285 2.447.16-.148.348-.264.548-.346.287-.118.603-.167.905-.145.307.022.606.118.862.287.106.072.207.154.294.252.072-1.094.094-2.253.072-3.464-.083-.026-.167-.049-.252-.068-.54-.124-1.137-.108-1.642.057-.48.157-.876.454-1.045.896-.009.029-.019.055-.027.084zm-10.115 1.022c-.096.739-.158 1.471-.181 2.193.004.029.003.057-.003.085-.017.675 0 1.342.063 1.997.209 2.227.92 4.343 2.434 6.281.119-2.086-.703-4.918-1.513-7.698-.281-.971-.562-1.935-.8-2.858zm8.038 9.719c1.108-1.704 1.659-3.533 1.838-5.444.062-.654.08-1.322.063-1.997-.005-.028-.007-.056-.002-.085-.028-.898-.12-1.812-.257-2.735-.041 4.283-.774 7.195-1.642 10.261zm2.404-7.46c.019.695-.001 1.383-.065 2.061-.223 2.383-1 4.644-2.665 6.707 2.353-.484 3.784-2.313 4.571-5.024.303-1.04.511-2.21.64-3.484-.015-.029-.026-.059-.029-.093-.039-.366-.215-.627-.457-.788-.177-.118-.393-.184-.618-.2-.231-.017-.466.02-.678.106-.315.127-.58.367-.699.715zm-5.995 23.831c-.446.255-.885.259-1.313-.071-.267-.205-.498-.524-.68-.925-.39-.858-.532-2.064-.273-3.311.329-1.593 1.292-3.058 2.338-4.618l-.146.938c-.125 1.109-.237 2.247-.35 3.384-.014.142-.027.281-.042.423-.226.107-.422.252-.576.431-.411.475-.59 1.228-.5 1.933.034.27.109.536.223.773.257.535.732.931 1.319 1.043zm-1.112 16.698h3.086c.03-.745.083-1.492.162-2.241.12-1.142.304-2.283.573-3.421.058-.511.027-1.063-.004-1.612-.03-.555-.061-1.107-.004-1.654-.47-1.789-.813-3.536-1.082-5.259-.329.17-.684.301-1.051.387-.452.107-.928.146-1.407.117-.257 1.559-.577 3.14-1.002 4.755.059.547.026 1.1-.004 1.654-.031.55-.063 1.102-.003 1.612.269 1.138.452 2.279.572 3.421.08.749.132 1.496.164 2.241z" fill="#fff"/><path d="m148.509 100.898c1.691.562 4.434 2.071 3.456 3.456-.429.606-1.836.523-2.268.011-.718-.853-.468-2.747-1.188-3.467zm.208-1.777c-.038-.134-.177-.211-.31-.174-.133.038-.212.176-.174.309.323 1.137 1.174 1.221 2.109 1.313 1.125.11 2.396.236 2.672 2.886.014.138.138.238.275.224.138-.013.237-.137.225-.275-.318-3.058-1.808-3.205-3.123-3.334-.756-.075-1.446-.143-1.674-.949zm-53.537 1.777c-1.691.562-4.434 2.071-3.455 3.456.429.606 1.836.523 2.267.011.718-.853.468-2.747 1.188-3.467zm27.16 39.277c.558.005.891-.814 1.39-.37.5.443-.253 1.732-1.538 1.801-1.284.07-1.683-1.297-1.241-1.671.442-.375.831.237 1.389.24zm-27.368-41.054c.038-.134.177-.211.31-.174.134.038.211.176.172.309-.322 1.137-1.172 1.221-2.109 1.313-1.125.11-2.396.236-2.672 2.886-.014.138-.137.238-.275.224-.137-.013-.238-.137-.224-.275.318-3.058 1.807-3.205 3.122-3.334.758-.075 1.447-.143 1.676-.949z" fill="#d70000"/></g><g stroke="#d70000" stroke-width=".4"><path d="m194.14336 91.794287-6.99244 5.761374"/><path d="m222.28935 91.794276 6.99244 5.761374"/></g></g><g fill="none" stroke="#d70000"><path d="m1451.6902 456.21084c6.9344 1.17025 17.8728 1.41751 24.572 0"/><path d="m1578.964 456.21039c6.9344 1.17025 17.8728 1.41751 24.572 0"/><path d="m1508.7007 456.21057c12.338 1.21382 24.9625 1.37677 38.007 0"/></g></g></svg>