<?xml version="1.0" encoding="UTF-8" standalone="no"?>
<!-- Created with Inkscape (http://www.inkscape.org/) -->
<svg
   xmlns:dc="http://purl.org/dc/elements/1.1/"
   xmlns:cc="http://web.resource.org/cc/"
   xmlns:rdf="http://www.w3.org/1999/02/22-rdf-syntax-ns#"
   xmlns:svg="http://www.w3.org/2000/svg"
   xmlns="http://www.w3.org/2000/svg"
   xmlns:sodipodi="http://sodipodi.sourceforge.net/DTD/sodipodi-0.dtd"
   xmlns:inkscape="http://www.inkscape.org/namespaces/inkscape"
   width="1800"
   height="1200"
   id="svg1935"
   sodipodi:version="0.32"
   inkscape:version="0.44"
   version="1.0"
   sodipodi:docbase="C:\flags"
   sodipodi:docname="Flag of Toro, Uganda.svg">
  <defs
     id="defs1937" />
  <sodipodi:namedview
     id="base"
     pagecolor="#ffffff"
     bordercolor="#666666"
     borderopacity="1.0"
     gridtolerance="10000"
     guidetolerance="10"
     objecttolerance="10"
     inkscape:pageopacity="0.0"
     inkscape:pageshadow="2"
     inkscape:zoom="0.31416667"
     inkscape:cx="900"
     inkscape:cy="600"
     inkscape:document-units="px"
     inkscape:current-layer="layer1"
     width="1800px"
     height="1200px"
     showguides="true"
     inkscape:guide-bbox="true"
     inkscape:window-width="847"
     inkscape:window-height="579"
     inkscape:window-x="127"
     inkscape:window-y="301" />
  <metadata
     id="metadata1940">
    <rdf:RDF>
      <cc:Work
         rdf:about="">
        <dc:format>image/svg+xml</dc:format>
        <dc:type
           rdf:resource="http://purl.org/dc/dcmitype/StillImage" />
      </cc:Work>
    </rdf:RDF>
  </metadata>
  <g
     inkscape:label="Layer 1"
     inkscape:groupmode="layer"
     id="layer1">
    <rect
       style="opacity:1;fill:yellow;fill-opacity:1;stroke:none;stroke-width:4;stroke-linecap:round;stroke-linejoin:round;stroke-miterlimit:4;stroke-dasharray:none;stroke-opacity:1"
       id="rect3094"
       width="900"
       height="1200"
       x="0"
       y="0"
       ry="0" />
    <rect
       style="opacity:1;fill:blue;fill-opacity:1;stroke:none;stroke-width:4;stroke-linecap:round;stroke-linejoin:round;stroke-miterlimit:4;stroke-dasharray:none;stroke-opacity:1"
       id="rect3096"
       width="900"
       height="1200"
       x="900"
       y="0"
       ry="0" />
    <path
       style="fill:white;fill-rule:evenodd;stroke:black;stroke-width:4;stroke-linecap:butt;stroke-linejoin:miter;stroke-miterlimit:4;stroke-dasharray:none;stroke-opacity:1"
       d="M 694.74801,315.06631 C 694.74801,315.06631 639.84085,285.62335 621.53846,251.40584 C 603.23607,217.18833 621.53846,178.19629 621.53846,178.19629 C 621.53846,178.19629 663.71352,185.35809 682.01591,219.5756 C 700.3183,253.7931 694.74801,315.06631 694.74801,315.06631 z "
       id="path3070"
       sodipodi:nodetypes="czczc" />
    <rect
       style="fill:white;fill-opacity:1;stroke:black;stroke-width:3.99998212;stroke-linecap:round;stroke-linejoin:round;stroke-miterlimit:4;stroke-dasharray:none;stroke-opacity:1"
       id="rect3066"
       width="25.740768"
       height="788.3418"
       x="-435.4534"
       y="583.56903"
       ry="17.506546"
       transform="matrix(-0.846928,0.531707,0.531707,0.846928,0,0)" />
    <path
       style="fill:white;fill-rule:evenodd;stroke:black;stroke-width:4;stroke-linecap:butt;stroke-linejoin:miter;stroke-miterlimit:4;stroke-dasharray:none;stroke-opacity:1"
       d="M 1142.9629,319.84085 C 1142.9629,319.84085 1197.87,290.39789 1216.1724,256.18038 C 1234.4748,221.96287 1216.1724,182.97083 1216.1724,182.97083 C 1216.1724,182.97083 1173.9974,190.13263 1155.695,224.35014 C 1137.3926,258.56764 1142.9629,319.84085 1142.9629,319.84085 z "
       id="path3072"
       sodipodi:nodetypes="czczc" />
    <rect
       style="fill:white;fill-opacity:1;stroke:black;stroke-width:3.99998808;stroke-linecap:round;stroke-linejoin:round;stroke-miterlimit:4;stroke-dasharray:none;stroke-opacity:1"
       id="rect3062"
       width="28.061817"
       height="768.0943"
       x="1122.0713"
       y="-392.67993"
       ry="17.506575"
       transform="matrix(0.846928,0.531707,-0.531707,0.846928,0,0)" />
    <g
       id="g2028"
       transform="translate(149.6021,28.64721)">
      <path
         d="M 1253.7344,440.86314 C 1220.3254,429.07175 1198.7079,406.47161 1188.8818,382.88884 C 1180.0382,359.30607 1159.4033,323.93191 1143.6815,316.07097 C 1126.977,307.22744 1114.203,297.40133 1120.0987,284.62731 C 1125.0118,272.83592 1125.9944,264.97503 1121.0813,259.07931 C 1115.1856,252.20101 1106.3421,247.28792 1101.429,255.14887 C 1097.4986,262.02712 1099.4638,261.04453 1097.4986,266.9402 C 1093.5681,257.11404 1082.7593,249.25315 1075.881,256.13145 C 1069.9853,262.02712 1068.0201,262.02712 1069.9853,271.85328 C 1060.1592,267.92284 1052.2982,269.88811 1052.2982,279.71422 C 1052.2982,288.55775 1057.2113,300.34914 1066.0548,297.40133 C 1075.881,294.45347 1079.8114,289.54039 1079.8114,289.54039 C 1081.7767,295.43606 1074.8984,308.21008 1088.655,313.12316 C 1076.8636,313.12316 1064.0896,313.12316 1063.107,320.00147 C 1062.1244,325.89713 1058.1939,336.70593 1067.0375,343.58424 C 1076.8636,349.47991 1077.8462,342.6016 1079.8114,334.74066 C 1085.7072,335.7233 1094.5507,328.84499 1099.4638,333.75807 C 1104.3769,338.67116 1112.2377,357.34085 1114.203,365.20174 C 1116.1682,372.08004 1120.0987,358.32348 1120.0987,353.4104 C 1120.0987,368.1496 1121.0813,382.88884 1121.0813,382.88884 C 1123.0465,377.97576 1125.9944,369.13223 1125.9944,369.13223 C 1125.9944,380.92362 1125.0118,395.66281 1127.9596,405.48898 C 1132.8727,396.64545 1136.8032,392.71501 1136.8032,385.8367 C 1135.8205,406.47161 1130.9074,415.31514 1133.8553,433.0022 C 1138.7684,428.08911 1142.6988,420.22822 1146.6293,411.38465 C 1138.7684,431.03697 1140.7336,441.84577 1146.6293,453.63711 C 1148.5945,444.79358 1155.4728,441.84577 1153.5076,434.96747 C 1149.5771,445.77622 1149.5771,460.51541 1158.4207,468.37635 C 1158.4207,457.56761 1164.3164,460.51541 1163.3337,453.63711 C 1161.3685,466.41113 1162.3512,467.39377 1169.2295,477.21988 C 1175.1251,486.06346 1182.9861,489.01127 1182.9861,500.80271 C 1197.7253,507.68096 1254.717,459.53283 1253.7344,440.86314 z "
         style="fill:white;stroke:black;stroke-width:4.26933384"
         id="21236792" />
      <path
         d="M 1340.2045,629.52527 C 1326.4479,629.52527 1316.6217,627.56004 1304.8304,630.50785 C 1292.0563,618.71652 1272.404,617.73388 1258.6475,626.57741 C 1244.8909,635.42093 1232.1168,655.07326 1208.5341,641.31665 C 1195.7601,633.45576 1204.6036,617.73388 1209.5167,613.80344 C 1191.8296,615.76866 1180.0382,631.49049 1197.7253,651.14282 C 1185.9339,644.26451 1175.1251,655.07326 1158.4207,631.49049 C 1159.4033,653.10804 1172.1773,671.77773 1204.6036,661.95157 C 1177.0904,668.82987 1192.8122,693.39528 1161.3685,685.53434 C 1174.1425,701.25617 1192.8122,693.39528 1204.6036,675.70818 C 1200.6731,689.46478 1199.6905,688.4822 1204.6036,698.30836 C 1214.4298,686.51693 1218.3602,699.29095 1229.169,692.41264 C 1223.2733,703.22139 1229.169,715.01283 1234.0821,722.87372 C 1238.9951,729.75203 1241.943,730.73466 1235.0647,739.57819 C 1210.4993,737.61297 1175.1251,733.68247 1163.3337,736.63033 C 1152.525,727.7868 1149.5771,723.85631 1140.7336,718.94322 C 1142.6988,704.20403 1138.7684,697.32573 1130.9074,701.25617 C 1122.0639,705.18667 1120.0987,705.18667 1119.1161,715.01283 C 1110.2725,710.09975 1106.3421,711.08233 1101.429,718.94322 C 1097.4986,727.7868 1100.4464,728.76939 1102.4116,735.64769 C 1095.5333,742.52605 1096.5159,758.24788 1100.4464,762.17833 C 1104.3769,766.10882 1110.2725,767.09141 1114.203,758.24788 C 1125.0118,758.24788 1139.751,761.19574 1148.5945,758.24788 C 1146.6293,763.16091 1139.751,765.12618 1136.8032,768.07399 C 1124.0291,771.0219 1119.1161,777.90016 1124.0291,785.7611 C 1128.9422,792.6394 1134.8379,795.58726 1140.7336,794.60462 C 1147.6119,792.6394 1151.5424,789.69154 1149.5771,779.86538 C 1155.4728,773.96971 1160.3859,761.19574 1167.2642,766.10882 C 1177.0904,774.95235 1165.299,781.83065 1185.9339,789.69154 C 1183.9687,783.79588 1199.6905,783.79588 1197.7253,777.90016 C 1202.6384,790.67418 1207.5515,792.6394 1216.395,800.50034 C 1220.3254,794.60462 1229.169,789.69154 1226.2212,783.79588 C 1233.0995,798.53512 1243.9082,800.50034 1244.8909,809.34387 C 1254.717,798.53512 1257.6648,794.60462 1256.6822,782.81324 C 1263.5605,800.50034 1269.4562,806.39601 1278.2997,797.55248 C 1286.1607,788.70896 1288.1259,785.7611 1288.1259,785.7611 C 1298.9347,792.6394 1310.726,787.72632 1318.587,771.0219 C 1303.8477,777.90016 1294.0216,778.88279 1284.1955,770.03927 C 1280.265,758.24788 1275.3519,755.30002 1278.2997,740.56078 C 1280.265,725.82158 1293.039,699.29095 1328.4131,701.25617 C 1363.7873,703.22139 1364.7699,622.64696 1340.2045,629.52527 z "
         style="fill:white;stroke:black;stroke-width:4.26933384"
         id="21236704" />
      <path
         d="M 1583.8931,281.67945 C 1577.0148,293.47083 1564.2408,296.41869 1555.3973,293.47083 C 1547.5363,289.54039 1542.6233,286.59253 1539.6754,277.749 C 1536.7276,270.8707 1532.7971,257.11404 1518.0579,258.09667 C 1530.8319,249.25315 1535.745,236.47917 1522.9709,222.72251 C 1515.11,250.23578 1513.1448,245.3227 1473.8402,256.13145 C 1433.553,266.9402 1417.8312,304.27963 1419.7963,345.54946 C 1421.7616,379.94098 1431.5877,403.52376 1467.9445,438.89791 C 1507.2491,476.2373 1527.884,495.88962 1527.884,540.10731 C 1518.0579,515.5419 1499.3882,514.55926 1484.649,508.6636 C 1470.8923,503.75051 1469.9097,486.06346 1479.7359,471.32421 C 1452.2227,477.21988 1454.1878,501.78529 1465.9793,513.57668 C 1457.1358,515.5419 1456.1531,517.50712 1454.1878,526.35065 C 1441.4139,530.28115 1432.5703,527.33329 1421.7616,513.57668 C 1416.8485,533.22901 1427.6573,540.10731 1445.3444,540.10731 C 1418.8137,554.8465 1422.7442,591.20325 1445.3444,598.08155 C 1429.6225,581.37708 1443.3791,563.69003 1453.2053,552.88128 C 1450.2575,577.44669 1475.8054,579.41191 1482.6838,565.65525 C 1464.9966,566.63789 1466.9619,535.19423 1491.5273,535.19423 C 1514.1274,535.19423 1527.884,558.77695 1526.9014,579.41191 C 1525.9188,600.04683 1508.2317,633.45576 1469.9097,632.47313 C 1436.5008,631.49049 1418.8137,609.87294 1405.0571,592.18589 C 1402.1093,579.41191 1399.1614,567.62053 1395.231,559.75959 C 1383.4396,534.21159 1351.0133,500.80271 1343.1523,470.34158 C 1335.2915,440.86314 1209.5167,472.3068 1209.5167,472.3068 C 1200.6731,481.15038 1188.8818,490.97654 1178.073,500.80271 C 1168.2468,509.64618 1114.203,541.0899 1103.3942,555.82914 C 1093.5681,557.79436 1081.7767,558.77695 1073.9158,567.62053 C 1063.107,567.62053 1042.4721,564.67267 1042.4721,564.67267 C 1037.559,552.88128 1024.785,551.89864 1021.8372,561.72481 C 1017.9067,570.56834 1016.9241,581.37708 1037.559,577.44669 L 1049.3504,579.41191 C 1038.5416,587.2728 1035.5938,587.2728 1028.7155,592.18589 C 1016.9241,592.18589 1002.1849,593.16852 1006.1153,606.92513 C 1011.0284,620.68174 1012.9936,618.71652 1023.8024,617.73388 C 1034.6112,616.7513 1037.559,613.80344 1038.5416,603.97727 C 1047.3851,601.02941 1051.3156,602.99464 1060.1592,596.11633 C 1059.1765,608.89035 1055.2461,617.73388 1055.2461,617.73388 C 1045.4199,622.64696 1040.5068,630.50785 1048.3678,637.38621 C 1055.2461,643.28188 1063.107,645.2471 1068.0201,638.36885 C 1073.9158,630.50785 1073.9158,627.56004 1070.9679,618.71652 C 1073.9158,610.85558 1078.8289,600.04683 1084.7245,596.11633 C 1089.6376,593.16852 1093.5681,592.18589 1091.6028,599.06419 C 1087.6724,617.73388 1098.4811,617.73388 1093.5681,631.49049 C 1106.3421,617.73388 1114.203,608.89035 1110.2725,593.16852 C 1115.1856,607.90772 1118.1335,610.85558 1118.1335,610.85558 C 1124.0291,602.01205 1122.0639,594.15116 1120.0987,587.2728 C 1125.9944,598.08155 1127.9596,602.01205 1127.9596,602.01205 C 1131.8901,596.11633 1134.8379,596.11633 1133.8553,587.2728 C 1139.751,595.13375 1144.664,596.11633 1149.5771,598.08155 C 1144.664,591.20325 1150.5598,588.25544 1149.5771,580.3945 C 1152.525,593.16852 1164.3164,598.08155 1175.1251,594.15116 C 1165.299,588.25544 1168.2468,582.35972 1165.299,577.44669 C 1171.1947,584.325 1178.073,591.20325 1185.9339,589.23808 C 1180.0382,584.325 1185.9339,577.44669 1182.0034,570.56834 C 1187.8991,580.3945 1191.8296,584.325 1206.5688,582.35972 C 1197.7253,577.44669 1204.6036,571.55097 1197.7253,566.63789 C 1204.6036,574.49883 1213.4471,578.42928 1229.169,579.41191 C 1226.2212,573.51619 1231.1342,569.58575 1231.1342,566.63789 C 1234.0821,576.46405 1235.0647,575.48142 1234.0821,580.3945 C 1243.9082,571.55097 1250.7865,568.60311 1253.7344,563.69003 C 1261.5953,578.42928 1271.4214,587.2728 1281.2476,593.16852 C 1295.9868,602.99464 1323.5001,599.06419 1334.3088,614.78602 C 1343.1523,626.57741 1340.2045,644.26451 1333.3262,663.91679 C 1327.4305,683.56912 1326.4479,702.23881 1336.274,720.9085 C 1347.0828,738.59555 1356.909,755.30002 1349.0481,766.10882 C 1342.1698,776.91757 1317.6043,781.83065 1329.3958,809.34387 C 1331.361,794.60462 1332.3436,792.6394 1342.1698,787.72632 C 1342.1698,801.48293 1340.2045,811.30909 1351.9959,819.17003 C 1349.0481,806.39601 1352.9785,800.50034 1356.909,794.60462 C 1364.7699,807.37865 1369.683,812.29168 1382.4569,804.43079 C 1375.5786,800.50034 1356.909,789.69154 1367.7177,771.0219 C 1378.5265,783.79588 1389.3353,787.72632 1395.231,784.77846 C 1402.1093,781.83065 1408.9876,782.81324 1421.7616,760.2131 C 1418.8137,776.91757 1420.779,787.72632 1430.6051,798.53512 C 1419.7963,806.39601 1413.9007,826.04834 1410.9528,834.89187 C 1408.9876,843.73539 1405.0571,843.73539 1397.1962,845.70062 C 1390.3179,847.66589 1391.3005,836.85709 1382.4569,836.85709 C 1373.6135,836.85709 1367.7177,849.63111 1369.683,858.47464 C 1371.6482,867.31817 1372.6308,871.24861 1376.5613,873.21383 C 1367.7177,878.12692 1368.7004,885.98786 1375.5786,893.8488 C 1381.4744,900.7271 1383.4396,895.81402 1389.3353,894.83138 C 1396.2136,905.64013 1408.9876,912.51849 1413.9007,902.69232 C 1417.8312,893.8488 1412.9181,884.02263 1413.9007,876.16169 C 1414.8832,869.28344 1428.6399,867.31817 1432.5703,860.43986 C 1437.4834,870.26602 1438.4661,878.12692 1438.4661,878.12692 C 1435.5182,887.95308 1435.5182,900.7271 1450.2575,892.86616 C 1464.014,884.02263 1467.9445,882.05741 1465.9793,869.28344 C 1464.014,856.50936 1455.1705,860.43986 1450.2575,862.40508 C 1451.24,855.52678 1453.2053,849.63111 1449.2748,838.82231 C 1464.014,844.71803 1471.875,843.73539 1482.6838,828.01356 C 1470.8923,827.03092 1468.9271,820.15267 1457.1358,819.17003 C 1477.7707,819.17003 1490.5446,815.23959 1494.4751,797.55248 C 1485.6316,802.46557 1480.7185,794.60462 1474.8228,793.62204 C 1484.649,790.67418 1497.4229,791.65682 1503.3186,778.88279 C 1495.4577,783.79588 1489.5621,770.03927 1481.7011,770.03927 C 1495.4577,765.12618 1501.3534,763.16091 1506.2665,754.31744 C 1498.4056,755.30002 1491.5273,741.54341 1481.7011,750.38694 C 1490.5446,739.57819 1512.1622,746.45649 1515.11,733.68247 C 1506.2665,734.66511 1498.4056,732.69988 1493.4925,724.83894 C 1489.5621,716.97805 1488.5794,708.13448 1481.7011,708.13448 C 1490.5446,709.11711 1495.4577,708.13448 1495.4577,708.13448 C 1483.6663,701.25617 1476.788,691.43001 1478.7533,673.74295 C 1465.9793,689.46478 1444.3617,703.22139 1432.5703,701.25617 C 1420.779,699.29095 1407.0224,691.43001 1408.005,674.72554 C 1408.9876,659.98634 1411.9354,657.03848 1411.9354,644.26451 C 1424.7094,655.07326 1444.3617,662.9342 1474.8228,658.02112 C 1524.9362,651.14282 1555.3973,611.83821 1553.432,557.79436 C 1551.4668,504.7331 1537.7102,477.21988 1492.5099,434.96747 C 1450.2575,395.66281 1442.3965,377.97576 1440.4313,340.63638 C 1438.4661,300.34914 1457.1358,274.80114 1478.7533,268.90547 C 1493.4925,263.99239 1501.3534,280.69686 1493.4925,291.50561 C 1486.6142,301.33177 1484.649,319.01883 1491.5273,331.79285 C 1499.3882,329.82763 1500.3708,325.89713 1509.2143,319.01883 C 1493.4925,333.75807 1488.5794,354.39299 1495.4577,373.06268 C 1503.3186,392.71501 1523.9536,390.74978 1532.7971,390.74978 C 1519.0405,365.20174 1539.6754,356.35821 1539.6754,335.7233 C 1542.6233,360.28865 1554.4147,369.13223 1575.0496,356.35821 C 1559.3277,355.37557 1556.3799,336.70593 1560.3104,326.87977 C 1563.2582,318.03619 1569.1539,316.07097 1560.3104,304.27963 C 1577.9974,310.1753 1583.8931,295.43606 1583.8931,281.67945 z "
         style="fill:white;stroke:black;stroke-width:4.26933384"
         id="21236616" />
      <path
         d="M 1299.9173,362.25393 C 1286.1607,359.30607 1273.3867,359.30607 1258.6475,360.28865 C 1243.9082,361.27129 1217.3776,343.58424 1224.2559,322.94927 C 1213.4471,328.84499 1208.5341,342.6016 1219.3428,358.32348 C 1230.1516,374.04531 1242.9256,373.06268 1260.6127,372.08004 C 1279.2824,371.09746 1293.039,369.13223 1304.8304,377.97576 C 1316.6217,385.8367 1310.726,365.20174 1299.9173,362.25393 z "
         style="fill:white;stroke:black;stroke-width:4.26933384"
         id="21236528" />
      <path
         d="M 1255.6996,343.58424 C 1253.7344,348.49732 1254.717,356.35821 1261.5953,362.25393 C 1265.5258,354.39299 1265.5258,346.5321 1269.4562,343.58424 C 1262.5779,340.63638 1255.6996,343.58424 1255.6996,343.58424 z "
         style="fill:white;stroke:black;stroke-width:4.26933384"
         id="21236440" />
      <path
         d="M 1260.6127,372.08004 C 1258.6475,375.0279 1257.6648,383.87143 1258.6475,387.80192 C 1263.5605,391.73237 1269.4562,390.74978 1272.404,387.80192 C 1267.491,381.9062 1261.5953,378.9584 1260.6127,372.08004 z "
         style="fill:white;stroke:black;stroke-width:4.26933384"
         id="21236352" />
      <path
         d="M 1331.361,267.92284 C 1323.5001,277.749 1312.6913,285.60994 1304.8304,286.59253 C 1295.9868,287.57517 1283.2128,285.60994 1280.265,292.48825 C 1276.3345,298.38391 1273.3867,299.36655 1262.5779,299.36655 C 1251.7692,299.36655 1245.8734,301.33177 1241.943,300.34914 C 1237.0299,299.36655 1236.0473,307.22744 1242.9256,313.12316 C 1240.9604,321.96669 1244.8909,328.84499 1242.9256,333.75807 C 1240.9604,338.67116 1240.9604,343.58424 1249.8039,344.56682 C 1259.6301,345.54946 1267.491,347.51468 1275.3519,343.58424 C 1284.1955,338.67116 1288.1259,343.58424 1295.9868,340.63638 C 1295.9868,347.51468 1293.039,362.25393 1302.8652,373.06268 C 1304.8304,377.97576 1304.8304,381.9062 1295.9868,383.87143 C 1287.1433,385.8367 1260.6127,386.81929 1255.6996,383.87143 C 1249.8039,380.92362 1246.8561,378.9584 1247.8387,386.81929 C 1248.8213,395.66281 1248.8213,404.50634 1242.9256,409.41942 C 1251.7692,411.38465 1249.8039,408.43684 1256.6822,402.54117 C 1271.4214,405.48898 1294.0216,406.47161 1304.8304,399.59326 C 1299.9173,411.38465 1298.9347,421.21081 1282.2302,421.21081 C 1265.5258,421.21081 1260.6127,423.17608 1255.6996,433.98483 C 1241.943,435.95005 1238.0125,438.89791 1226.2212,443.81094 C 1214.4298,448.72403 1199.6905,446.75886 1188.8818,444.79358 C 1192.8122,454.61975 1202.6384,463.46327 1214.4298,463.46327 C 1204.6036,466.41113 1200.6731,478.20252 1199.6905,484.09824 C 1198.7079,490.97654 1189.8644,496.87221 1178.073,500.80271 C 1197.7253,501.78529 1207.5515,496.87221 1224.2559,477.21988 C 1241.943,456.58502 1238.9951,466.41113 1251.7692,463.46327 C 1242.9256,469.35899 1236.0473,470.34158 1232.1168,480.16774 C 1227.2038,489.9939 1226.2212,493.92435 1217.3776,494.90699 C 1230.1516,503.75051 1238.9951,501.78529 1243.9082,490.97654 C 1247.8387,480.16774 1258.6475,472.3068 1268.4736,471.32421 C 1254.717,479.18516 1254.717,480.16774 1254.717,490.97654 C 1254.717,501.78529 1250.7865,513.57668 1244.8909,508.6636 C 1250.7865,520.45498 1258.6475,521.43757 1265.5258,514.55926 C 1271.4214,506.69837 1272.404,499.82007 1279.2824,493.92435 C 1273.3867,503.75051 1267.491,516.52454 1265.5258,520.45498 C 1262.5779,525.36806 1262.5779,530.28115 1258.6475,534.21159 C 1267.491,535.19423 1281.2476,533.22901 1285.1781,527.33329 C 1290.0911,520.45498 1302.8652,494.90699 1303.8477,481.15038 C 1299.9173,505.71574 1298.9347,509.64618 1298.9347,516.52454 C 1298.9347,522.4202 1295.9868,531.26373 1295.9868,531.26373 C 1307.7782,531.26373 1316.6217,526.35065 1317.6043,513.57668 C 1318.587,500.80271 1317.6043,495.88962 1320.5522,484.09824 C 1320.5522,499.82007 1322.5174,501.78529 1322.5174,513.57668 C 1322.5174,525.36806 1328.4131,530.28115 1339.2219,533.22901 C 1334.3088,522.4202 1342.1698,519.47234 1336.274,506.69837 C 1331.361,493.92435 1331.361,491.95913 1334.3088,484.09824 C 1339.2219,497.85479 1342.1698,496.87221 1341.1871,507.68096 C 1340.2045,518.48976 1352.9785,529.29851 1368.7004,525.36806 C 1359.8568,516.52454 1356.909,496.87221 1360.8394,470.34158 C 1361.8221,502.76788 1378.5265,513.57668 1394.2483,496.87221 C 1382.4569,493.92435 1378.5265,488.02863 1381.4744,470.34158 C 1390.3179,479.18516 1400.144,476.2373 1402.1093,464.44591 C 1388.3527,461.49805 1384.4222,449.70666 1386.3874,443.81094 C 1389.3353,436.93269 1389.3353,433.0022 1383.4396,427.10653 C 1395.231,430.05439 1408.005,432.01961 1409.9702,418.263 C 1400.144,418.263 1392.2831,415.31514 1391.3005,405.48898 C 1390.3179,395.66281 1389.3353,387.80192 1381.4744,381.9062 C 1394.2483,384.85406 1398.1788,383.87143 1405.0571,370.11482 C 1393.2657,372.08004 1383.4396,367.16696 1382.4569,355.37557 C 1381.4744,343.58424 1388.3527,330.81021 1375.5786,323.93191 C 1381.4744,319.01883 1382.4569,314.1058 1383.4396,305.26222 C 1378.5265,310.1753 1373.6135,317.05361 1363.7873,314.1058 C 1359.8568,298.38391 1349.0481,284.62731 1331.361,285.60994 C 1335.2915,277.749 1336.274,277.749 1331.361,267.92284 z "
         style="fill:white;stroke:black;stroke-width:4.26933384"
         id="21236264" />
      <path
         d="M 1295.9868,328.84499 C 1295.0042,336.70593 1303.8477,347.51468 1309.7435,351.44513"
         style="fill:white;stroke:black;stroke-width:4.26933384"
         id="21236176" />
      <path
         d="M 1381.4744,381.9062 C 1369.683,375.0279 1366.7351,369.13223 1361.8221,358.32348"
         style="fill:white;stroke:black;stroke-width:4.26933384"
         id="21236088" />
      <path
         d="M 1383.4396,427.10653 C 1379.5091,422.19345 1373.6135,419.24559 1371.6482,411.38465"
         style="fill:white;stroke:black;stroke-width:4.26933384"
         id="21236000" />
      <path
         d="M 1381.4744,470.34158 C 1384.4222,453.63711 1378.5265,442.82836 1369.683,436.93269"
         style="fill:white;stroke:black;stroke-width:4.26933384"
         id="21235912" />
      <path
         d="M 1360.8394,470.34158 C 1359.8568,461.49805 1359.8568,448.72403 1358.8742,445.77622"
         style="fill:white;stroke:black;stroke-width:4.26933384"
         id="21235824" />
      <path
         d="M 1291.0738,433.0022 C 1279.2824,435.95005 1271.4214,435.95005 1262.5779,438.89791 C 1253.7344,440.86314 1256.6822,442.82836 1244.8909,449.70666 C 1233.0995,457.56761 1227.2038,460.51541 1214.4298,463.46327"
         style="fill:white;stroke:black;stroke-width:4.26933384"
         id="21235736" />
      <path
         d="M 1308.7608,577.44669 C 1324.4827,591.20325 1337.2567,607.90772 1339.2219,624.61219"
         style="fill:white;stroke:black;stroke-width:4.26933384"
         id="21235648" />
      <path
         d="M 1253.7344,563.69003 C 1265.5258,567.62053 1268.4736,567.62053 1275.3519,566.63789"
         style="fill:white;stroke:black;stroke-width:4.26933384"
         id="21235560" />
      <path
         d="M 1069.9853,271.85328 C 1079.8114,275.78378 1094.5507,286.59253 1099.4638,296.41869"
         style="fill:white;stroke:black;stroke-width:4.26933384"
         id="21235472" />
      <path
         d="M 1097.4986,266.9402 C 1100.4464,274.80114 1103.3942,280.69686 1106.3421,286.59253"
         style="fill:white;stroke:black;stroke-width:4.26933384"
         id="21235384" />
      <path
         d="M 1509.2143,319.01883 C 1514.1274,311.15789 1519.0405,308.21008 1519.0405,300.34914"
         style="fill:white;stroke:black;stroke-width:4.26933384"
         id="21235296" />
      <path
         d="M 1511.1796,353.4104 C 1509.2143,369.13223 1511.1796,380.92362 1531.8145,386.81929"
         style="fill:white;stroke:black;stroke-width:4.26933384"
         id="21235208" />
      <path
         d="M 1282.2302,309.19272 C 1284.1955,305.26222 1287.1433,301.33177 1287.1433,301.33177 C 1292.0563,306.2448 1302.8652,309.19272 1298.9347,316.07097 C 1287.1433,318.03619 1279.2824,313.12316 1275.3519,309.19272 L 1282.2302,309.19272 z "
         style="fill:white;stroke:black;stroke-width:4.26933384"
         id="21235120" />
      <path
         d="M 1344.135,311.15789 C 1353.9611,312.14052 1369.683,319.01883 1375.5786,323.93191"
         style="fill:white;stroke:black;stroke-width:4.26933384"
         id="21235032" />
      <path
         d="M 1116.1682,256.13145 C 1118.1335,246.30529 1103.3942,236.47917 1093.5681,236.47917 C 1100.4464,243.35748 1102.4116,247.28792 1101.429,255.14887 C 1107.3247,262.02712 1111.2552,262.02712 1116.1682,256.13145 z "
         style="fill:white;stroke:black;stroke-width:4.26933384"
         id="21234944" />
      <path
         d="M 1081.7767,255.14887 C 1075.881,249.25315 1062.1244,241.39226 1051.3156,256.13145 C 1067.0375,259.07931 1065.0723,259.07931 1070.9679,264.97503 C 1077.8462,262.02712 1079.8114,262.02712 1081.7767,255.14887 z "
         style="fill:white;stroke:black;stroke-width:4.26933384"
         id="21234856" />
      <path
         d="M 1054.2635,275.78378 C 1048.3678,272.83592 1037.559,277.749 1032.646,287.57517 C 1045.4199,285.60994 1054.2635,285.60994 1059.1765,292.48825 C 1063.107,287.57517 1058.1939,280.69686 1054.2635,275.78378 z "
         style="fill:white;stroke:black;stroke-width:4.26933384"
         id="21234768" />
      <path
         d="M 1063.107,331.79285 C 1055.2461,330.81021 1040.5068,332.77544 1036.5764,325.89713 C 1042.4721,343.58424 1053.2809,347.51468 1067.0375,343.58424 C 1069.9853,337.68852 1067.0375,336.70593 1063.107,331.79285 z "
         style="fill:white;stroke:black;stroke-width:4.26933384"
         id="21234680" />
      <path
         d="M 1024.785,557.79436 C 1012.9936,551.89864 1001.2022,562.70745 1001.2022,576.46405 C 1009.0632,571.55097 1016.9241,570.56834 1022.8198,574.49883 C 1026.7502,567.62053 1025.7676,562.70745 1024.785,557.79436 z "
         style="fill:white;stroke:black;stroke-width:4.26933384"
         id="21234592" />
      <path
         d="M 1006.1153,606.92513 C 999.23702,615.76866 996.28916,628.54268 1004.1501,641.31665 C 1008.0805,632.47313 1012.9936,619.6991 1020.8546,617.73388 C 1022.8198,611.83821 1013.9763,606.92513 1006.1153,606.92513 z "
         style="fill:white;stroke:black;stroke-width:4.26933384"
         id="21234504" />
      <path
         d="M 1046.4026,631.49049 C 1042.4721,638.36885 1041.4895,656.0559 1053.2809,662.9342 C 1054.2635,653.10804 1054.2635,643.28188 1062.1244,639.35143 C 1061.1418,632.47313 1054.2635,627.56004 1046.4026,631.49049 z "
         style="fill:white;stroke:black;stroke-width:4.26933384"
         id="21234416" />
      <path
         d="M 1435.5182,718.94322 C 1444.3617,717.96064 1447.3096,720.9085 1454.1878,715.99542 C 1454.1878,723.85631 1452.2227,729.75203 1453.2053,735.64769"
         style="fill:white;stroke:black;stroke-width:4.26933384"
         id="21234328" />
      <path
         d="M 1354.9437,709.11711 C 1355.9264,718.94322 1368.7004,730.73466 1379.5091,726.80422"
         style="fill:white;stroke:black;stroke-width:4.26933384"
         id="21234240" />
      <path
         d="M 1119.1161,715.01283 C 1125.9944,717.96064 1128.9422,723.85631 1131.8901,727.7868 C 1133.8553,732.69988 1138.7684,736.63033 1145.6467,740.56078"
         style="fill:white;stroke:black;stroke-width:4.26933384"
         id="21234152" />
      <path
         d="M 1102.4116,735.64769 C 1111.2552,730.73466 1118.1335,730.73466 1122.0639,737.61297 C 1125.9944,743.50863 1128.9422,743.50863 1135.8205,745.47386"
         style="fill:white;stroke:black;stroke-width:4.26933384"
         id="21234064" />
      <path
         d="M 1125.9944,701.25617 C 1119.1161,697.32573 1100.4464,691.43001 1096.5159,706.16925 C 1103.3942,706.16925 1114.203,710.09975 1119.1161,715.01283 C 1125.0118,715.01283 1126.977,708.13448 1125.9944,701.25617 z "
         style="fill:white;stroke:black;stroke-width:4.26933384"
         id="21233976" />
      <path
         d="M 1104.3769,718.94322 C 1100.4464,715.01283 1078.8289,715.99542 1085.7072,737.61297 C 1091.6028,733.68247 1096.5159,735.64769 1102.4116,735.64769 C 1106.3421,730.73466 1107.3247,723.85631 1104.3769,718.94322 z "
         style="fill:white;stroke:black;stroke-width:4.26933384"
         id="21233888" />
      <path
         d="M 1100.4464,741.54341 C 1090.6202,738.59555 1071.9506,740.56078 1074.8984,765.12618 C 1084.7245,755.30002 1093.5681,757.26524 1099.4638,758.24788 C 1104.3769,748.42172 1104.3769,749.40435 1100.4464,741.54341 z "
         style="fill:white;stroke:black;stroke-width:4.26933384"
         id="21233800" />
      <path
         d="M 1125.0118,781.83065 C 1119.1161,788.70896 1115.1856,806.39601 1130.9074,816.22218 C 1130.9074,807.37865 1132.8727,801.48293 1140.7336,794.60462 C 1135.8205,785.7611 1136.8032,774.95235 1125.0118,781.83065 z "
         style="fill:white;stroke:black;stroke-width:4.26933384"
         id="21233712" />
      <path
         d="M 1376.5613,873.21383 C 1386.3874,870.26602 1391.3005,867.31817 1395.231,858.47464"
         style="fill:white;stroke:black;stroke-width:4.26933384"
         id="21233624" />
      <path
         d="M 1389.3353,894.83138 C 1388.3527,885.98786 1390.3179,884.02263 1395.231,881.07477 C 1401.1267,877.14433 1405.0571,872.23125 1407.0224,868.3008"
         style="fill:white;stroke:black;stroke-width:4.26933384"
         id="21233536" />
      <path
         d="M 1368.7004,847.66589 C 1358.8742,847.66589 1345.1176,861.42245 1355.9264,878.12692 C 1361.8221,868.3008 1365.7525,870.26602 1371.6482,868.3008 C 1376.5613,862.40508 1378.5265,848.64847 1368.7004,847.66589 z "
         style="fill:white;stroke:black;stroke-width:4.26933384"
         id="21233448" />
      <path
         d="M 1368.7004,885.00527 C 1361.8221,892.86616 1360.8394,904.65755 1379.5091,912.51849 C 1378.5265,904.65755 1377.5439,901.70969 1382.4569,895.81402 C 1381.4744,887.95308 1377.5439,883.04 1368.7004,885.00527 z "
         style="fill:white;stroke:black;stroke-width:4.26933384"
         id="21233360" />
      <path
         d="M 1389.3353,894.83138 C 1378.5265,905.64013 1377.5439,921.36202 1401.1267,926.2751 C 1400.144,915.4663 1398.1788,911.53585 1403.0919,905.64013 C 1405.0571,897.77924 1396.2136,891.88358 1389.3353,894.83138 z "
         style="fill:white;stroke:black;stroke-width:4.26933384"
         id="21233272" />
      <path
         d="M 1464.014,877.14433 C 1467.9445,891.88358 1465.9793,902.69232 1447.3096,907.60541 C 1451.24,897.77924 1452.2227,889.9183 1445.3444,886.97049 C 1449.2748,881.07477 1455.1705,873.21383 1464.014,877.14433 z "
         style="fill:white;stroke:black;stroke-width:4.26933384"
         id="21233184" />
    </g>
    <g
       id="g2072"
       transform="matrix(-1,0,0,1,1683.187,28.81154)">
      <path
         d="M 1253.7344,440.86314 C 1220.3254,429.07175 1198.7079,406.47161 1188.8818,382.88884 C 1180.0382,359.30607 1159.4033,323.93191 1143.6815,316.07097 C 1126.977,307.22744 1114.203,297.40133 1120.0987,284.62731 C 1125.0118,272.83592 1125.9944,264.97503 1121.0813,259.07931 C 1115.1856,252.20101 1106.3421,247.28792 1101.429,255.14887 C 1097.4986,262.02712 1099.4638,261.04453 1097.4986,266.9402 C 1093.5681,257.11404 1082.7593,249.25315 1075.881,256.13145 C 1069.9853,262.02712 1068.0201,262.02712 1069.9853,271.85328 C 1060.1592,267.92284 1052.2982,269.88811 1052.2982,279.71422 C 1052.2982,288.55775 1057.2113,300.34914 1066.0548,297.40133 C 1075.881,294.45347 1079.8114,289.54039 1079.8114,289.54039 C 1081.7767,295.43606 1074.8984,308.21008 1088.655,313.12316 C 1076.8636,313.12316 1064.0896,313.12316 1063.107,320.00147 C 1062.1244,325.89713 1058.1939,336.70593 1067.0375,343.58424 C 1076.8636,349.47991 1077.8462,342.6016 1079.8114,334.74066 C 1085.7072,335.7233 1094.5507,328.84499 1099.4638,333.75807 C 1104.3769,338.67116 1112.2377,357.34085 1114.203,365.20174 C 1116.1682,372.08004 1120.0987,358.32348 1120.0987,353.4104 C 1120.0987,368.1496 1121.0813,382.88884 1121.0813,382.88884 C 1123.0465,377.97576 1125.9944,369.13223 1125.9944,369.13223 C 1125.9944,380.92362 1125.0118,395.66281 1127.9596,405.48898 C 1132.8727,396.64545 1136.8032,392.71501 1136.8032,385.8367 C 1135.8205,406.47161 1130.9074,415.31514 1133.8553,433.0022 C 1138.7684,428.08911 1142.6988,420.22822 1146.6293,411.38465 C 1138.7684,431.03697 1140.7336,441.84577 1146.6293,453.63711 C 1148.5945,444.79358 1155.4728,441.84577 1153.5076,434.96747 C 1149.5771,445.77622 1149.5771,460.51541 1158.4207,468.37635 C 1158.4207,457.56761 1164.3164,460.51541 1163.3337,453.63711 C 1161.3685,466.41113 1162.3512,467.39377 1169.2295,477.21988 C 1175.1251,486.06346 1182.9861,489.01127 1182.9861,500.80271 C 1197.7253,507.68096 1254.717,459.53283 1253.7344,440.86314 z "
         style="fill:white;stroke:black;stroke-width:4.26933384"
         id="path2074" />
      <path
         d="M 1340.2045,629.52527 C 1326.4479,629.52527 1316.6217,627.56004 1304.8304,630.50785 C 1292.0563,618.71652 1272.404,617.73388 1258.6475,626.57741 C 1244.8909,635.42093 1232.1168,655.07326 1208.5341,641.31665 C 1195.7601,633.45576 1204.6036,617.73388 1209.5167,613.80344 C 1191.8296,615.76866 1180.0382,631.49049 1197.7253,651.14282 C 1185.9339,644.26451 1175.1251,655.07326 1158.4207,631.49049 C 1159.4033,653.10804 1172.1773,671.77773 1204.6036,661.95157 C 1177.0904,668.82987 1192.8122,693.39528 1161.3685,685.53434 C 1174.1425,701.25617 1192.8122,693.39528 1204.6036,675.70818 C 1200.6731,689.46478 1199.6905,688.4822 1204.6036,698.30836 C 1214.4298,686.51693 1218.3602,699.29095 1229.169,692.41264 C 1223.2733,703.22139 1229.169,715.01283 1234.0821,722.87372 C 1238.9951,729.75203 1241.943,730.73466 1235.0647,739.57819 C 1210.4993,737.61297 1175.1251,733.68247 1163.3337,736.63033 C 1152.525,727.7868 1149.5771,723.85631 1140.7336,718.94322 C 1142.6988,704.20403 1138.7684,697.32573 1130.9074,701.25617 C 1122.0639,705.18667 1120.0987,705.18667 1119.1161,715.01283 C 1110.2725,710.09975 1106.3421,711.08233 1101.429,718.94322 C 1097.4986,727.7868 1100.4464,728.76939 1102.4116,735.64769 C 1095.5333,742.52605 1096.5159,758.24788 1100.4464,762.17833 C 1104.3769,766.10882 1110.2725,767.09141 1114.203,758.24788 C 1125.0118,758.24788 1139.751,761.19574 1148.5945,758.24788 C 1146.6293,763.16091 1139.751,765.12618 1136.8032,768.07399 C 1124.0291,771.0219 1119.1161,777.90016 1124.0291,785.7611 C 1128.9422,792.6394 1134.8379,795.58726 1140.7336,794.60462 C 1147.6119,792.6394 1151.5424,789.69154 1149.5771,779.86538 C 1155.4728,773.96971 1160.3859,761.19574 1167.2642,766.10882 C 1177.0904,774.95235 1165.299,781.83065 1185.9339,789.69154 C 1183.9687,783.79588 1199.6905,783.79588 1197.7253,777.90016 C 1202.6384,790.67418 1207.5515,792.6394 1216.395,800.50034 C 1220.3254,794.60462 1229.169,789.69154 1226.2212,783.79588 C 1233.0995,798.53512 1243.9082,800.50034 1244.8909,809.34387 C 1254.717,798.53512 1257.6648,794.60462 1256.6822,782.81324 C 1263.5605,800.50034 1269.4562,806.39601 1278.2997,797.55248 C 1286.1607,788.70896 1288.1259,785.7611 1288.1259,785.7611 C 1298.9347,792.6394 1310.726,787.72632 1318.587,771.0219 C 1303.8477,777.90016 1294.0216,778.88279 1284.1955,770.03927 C 1280.265,758.24788 1275.3519,755.30002 1278.2997,740.56078 C 1280.265,725.82158 1293.039,699.29095 1328.4131,701.25617 C 1363.7873,703.22139 1364.7699,622.64696 1340.2045,629.52527 z "
         style="fill:white;stroke:black;stroke-width:4.26933384"
         id="path2076" />
      <path
         d="M 1583.8931,281.67945 C 1577.0148,293.47083 1564.2408,296.41869 1555.3973,293.47083 C 1547.5363,289.54039 1542.6233,286.59253 1539.6754,277.749 C 1536.7276,270.8707 1532.7971,257.11404 1518.0579,258.09667 C 1530.8319,249.25315 1535.745,236.47917 1522.9709,222.72251 C 1515.11,250.23578 1513.1448,245.3227 1473.8402,256.13145 C 1433.553,266.9402 1417.8312,304.27963 1419.7963,345.54946 C 1421.7616,379.94098 1431.5877,403.52376 1467.9445,438.89791 C 1507.2491,476.2373 1527.884,495.88962 1527.884,540.10731 C 1518.0579,515.5419 1499.3882,514.55926 1484.649,508.6636 C 1470.8923,503.75051 1469.9097,486.06346 1479.7359,471.32421 C 1452.2227,477.21988 1454.1878,501.78529 1465.9793,513.57668 C 1457.1358,515.5419 1456.1531,517.50712 1454.1878,526.35065 C 1441.4139,530.28115 1432.5703,527.33329 1421.7616,513.57668 C 1416.8485,533.22901 1427.6573,540.10731 1445.3444,540.10731 C 1418.8137,554.8465 1422.7442,591.20325 1445.3444,598.08155 C 1429.6225,581.37708 1443.3791,563.69003 1453.2053,552.88128 C 1450.2575,577.44669 1475.8054,579.41191 1482.6838,565.65525 C 1464.9966,566.63789 1466.9619,535.19423 1491.5273,535.19423 C 1514.1274,535.19423 1527.884,558.77695 1526.9014,579.41191 C 1525.9188,600.04683 1508.2317,633.45576 1469.9097,632.47313 C 1436.5008,631.49049 1418.8137,609.87294 1405.0571,592.18589 C 1402.1093,579.41191 1399.1614,567.62053 1395.231,559.75959 C 1383.4396,534.21159 1351.0133,500.80271 1343.1523,470.34158 C 1335.2915,440.86314 1209.5167,472.3068 1209.5167,472.3068 C 1200.6731,481.15038 1188.8818,490.97654 1178.073,500.80271 C 1168.2468,509.64618 1114.203,541.0899 1103.3942,555.82914 C 1093.5681,557.79436 1081.7767,558.77695 1073.9158,567.62053 C 1063.107,567.62053 1042.4721,564.67267 1042.4721,564.67267 C 1037.559,552.88128 1024.785,551.89864 1021.8372,561.72481 C 1017.9067,570.56834 1016.9241,581.37708 1037.559,577.44669 L 1049.3504,579.41191 C 1038.5416,587.2728 1035.5938,587.2728 1028.7155,592.18589 C 1016.9241,592.18589 1002.1849,593.16852 1006.1153,606.92513 C 1011.0284,620.68174 1012.9936,618.71652 1023.8024,617.73388 C 1034.6112,616.7513 1037.559,613.80344 1038.5416,603.97727 C 1047.3851,601.02941 1051.3156,602.99464 1060.1592,596.11633 C 1059.1765,608.89035 1055.2461,617.73388 1055.2461,617.73388 C 1045.4199,622.64696 1040.5068,630.50785 1048.3678,637.38621 C 1055.2461,643.28188 1063.107,645.2471 1068.0201,638.36885 C 1073.9158,630.50785 1073.9158,627.56004 1070.9679,618.71652 C 1073.9158,610.85558 1078.8289,600.04683 1084.7245,596.11633 C 1089.6376,593.16852 1093.5681,592.18589 1091.6028,599.06419 C 1087.6724,617.73388 1098.4811,617.73388 1093.5681,631.49049 C 1106.3421,617.73388 1114.203,608.89035 1110.2725,593.16852 C 1115.1856,607.90772 1118.1335,610.85558 1118.1335,610.85558 C 1124.0291,602.01205 1122.0639,594.15116 1120.0987,587.2728 C 1125.9944,598.08155 1127.9596,602.01205 1127.9596,602.01205 C 1131.8901,596.11633 1134.8379,596.11633 1133.8553,587.2728 C 1139.751,595.13375 1144.664,596.11633 1149.5771,598.08155 C 1144.664,591.20325 1150.5598,588.25544 1149.5771,580.3945 C 1152.525,593.16852 1164.3164,598.08155 1175.1251,594.15116 C 1165.299,588.25544 1168.2468,582.35972 1165.299,577.44669 C 1171.1947,584.325 1178.073,591.20325 1185.9339,589.23808 C 1180.0382,584.325 1185.9339,577.44669 1182.0034,570.56834 C 1187.8991,580.3945 1191.8296,584.325 1206.5688,582.35972 C 1197.7253,577.44669 1204.6036,571.55097 1197.7253,566.63789 C 1204.6036,574.49883 1213.4471,578.42928 1229.169,579.41191 C 1226.2212,573.51619 1231.1342,569.58575 1231.1342,566.63789 C 1234.0821,576.46405 1235.0647,575.48142 1234.0821,580.3945 C 1243.9082,571.55097 1250.7865,568.60311 1253.7344,563.69003 C 1261.5953,578.42928 1271.4214,587.2728 1281.2476,593.16852 C 1295.9868,602.99464 1323.5001,599.06419 1334.3088,614.78602 C 1343.1523,626.57741 1340.2045,644.26451 1333.3262,663.91679 C 1327.4305,683.56912 1326.4479,702.23881 1336.274,720.9085 C 1347.0828,738.59555 1356.909,755.30002 1349.0481,766.10882 C 1342.1698,776.91757 1317.6043,781.83065 1329.3958,809.34387 C 1331.361,794.60462 1332.3436,792.6394 1342.1698,787.72632 C 1342.1698,801.48293 1340.2045,811.30909 1351.9959,819.17003 C 1349.0481,806.39601 1352.9785,800.50034 1356.909,794.60462 C 1364.7699,807.37865 1369.683,812.29168 1382.4569,804.43079 C 1375.5786,800.50034 1356.909,789.69154 1367.7177,771.0219 C 1378.5265,783.79588 1389.3353,787.72632 1395.231,784.77846 C 1402.1093,781.83065 1408.9876,782.81324 1421.7616,760.2131 C 1418.8137,776.91757 1420.779,787.72632 1430.6051,798.53512 C 1419.7963,806.39601 1413.9007,826.04834 1410.9528,834.89187 C 1408.9876,843.73539 1405.0571,843.73539 1397.1962,845.70062 C 1390.3179,847.66589 1391.3005,836.85709 1382.4569,836.85709 C 1373.6135,836.85709 1367.7177,849.63111 1369.683,858.47464 C 1371.6482,867.31817 1372.6308,871.24861 1376.5613,873.21383 C 1367.7177,878.12692 1368.7004,885.98786 1375.5786,893.8488 C 1381.4744,900.7271 1383.4396,895.81402 1389.3353,894.83138 C 1396.2136,905.64013 1408.9876,912.51849 1413.9007,902.69232 C 1417.8312,893.8488 1412.9181,884.02263 1413.9007,876.16169 C 1414.8832,869.28344 1428.6399,867.31817 1432.5703,860.43986 C 1437.4834,870.26602 1438.4661,878.12692 1438.4661,878.12692 C 1435.5182,887.95308 1435.5182,900.7271 1450.2575,892.86616 C 1464.014,884.02263 1467.9445,882.05741 1465.9793,869.28344 C 1464.014,856.50936 1455.1705,860.43986 1450.2575,862.40508 C 1451.24,855.52678 1453.2053,849.63111 1449.2748,838.82231 C 1464.014,844.71803 1471.875,843.73539 1482.6838,828.01356 C 1470.8923,827.03092 1468.9271,820.15267 1457.1358,819.17003 C 1477.7707,819.17003 1490.5446,815.23959 1494.4751,797.55248 C 1485.6316,802.46557 1480.7185,794.60462 1474.8228,793.62204 C 1484.649,790.67418 1497.4229,791.65682 1503.3186,778.88279 C 1495.4577,783.79588 1489.5621,770.03927 1481.7011,770.03927 C 1495.4577,765.12618 1501.3534,763.16091 1506.2665,754.31744 C 1498.4056,755.30002 1491.5273,741.54341 1481.7011,750.38694 C 1490.5446,739.57819 1512.1622,746.45649 1515.11,733.68247 C 1506.2665,734.66511 1498.4056,732.69988 1493.4925,724.83894 C 1489.5621,716.97805 1488.5794,708.13448 1481.7011,708.13448 C 1490.5446,709.11711 1495.4577,708.13448 1495.4577,708.13448 C 1483.6663,701.25617 1476.788,691.43001 1478.7533,673.74295 C 1465.9793,689.46478 1444.3617,703.22139 1432.5703,701.25617 C 1420.779,699.29095 1407.0224,691.43001 1408.005,674.72554 C 1408.9876,659.98634 1411.9354,657.03848 1411.9354,644.26451 C 1424.7094,655.07326 1444.3617,662.9342 1474.8228,658.02112 C 1524.9362,651.14282 1555.3973,611.83821 1553.432,557.79436 C 1551.4668,504.7331 1537.7102,477.21988 1492.5099,434.96747 C 1450.2575,395.66281 1442.3965,377.97576 1440.4313,340.63638 C 1438.4661,300.34914 1457.1358,274.80114 1478.7533,268.90547 C 1493.4925,263.99239 1501.3534,280.69686 1493.4925,291.50561 C 1486.6142,301.33177 1484.649,319.01883 1491.5273,331.79285 C 1499.3882,329.82763 1500.3708,325.89713 1509.2143,319.01883 C 1493.4925,333.75807 1488.5794,354.39299 1495.4577,373.06268 C 1503.3186,392.71501 1523.9536,390.74978 1532.7971,390.74978 C 1519.0405,365.20174 1539.6754,356.35821 1539.6754,335.7233 C 1542.6233,360.28865 1554.4147,369.13223 1575.0496,356.35821 C 1559.3277,355.37557 1556.3799,336.70593 1560.3104,326.87977 C 1563.2582,318.03619 1569.1539,316.07097 1560.3104,304.27963 C 1577.9974,310.1753 1583.8931,295.43606 1583.8931,281.67945 z "
         style="fill:white;stroke:black;stroke-width:4.26933384"
         id="path2078" />
      <path
         d="M 1299.9173,362.25393 C 1286.1607,359.30607 1273.3867,359.30607 1258.6475,360.28865 C 1243.9082,361.27129 1217.3776,343.58424 1224.2559,322.94927 C 1213.4471,328.84499 1208.5341,342.6016 1219.3428,358.32348 C 1230.1516,374.04531 1242.9256,373.06268 1260.6127,372.08004 C 1279.2824,371.09746 1293.039,369.13223 1304.8304,377.97576 C 1316.6217,385.8367 1310.726,365.20174 1299.9173,362.25393 z "
         style="fill:white;stroke:black;stroke-width:4.26933384"
         id="path2080" />
      <path
         d="M 1255.6996,343.58424 C 1253.7344,348.49732 1254.717,356.35821 1261.5953,362.25393 C 1265.5258,354.39299 1265.5258,346.5321 1269.4562,343.58424 C 1262.5779,340.63638 1255.6996,343.58424 1255.6996,343.58424 z "
         style="fill:white;stroke:black;stroke-width:4.26933384"
         id="path2082" />
      <path
         d="M 1260.6127,372.08004 C 1258.6475,375.0279 1257.6648,383.87143 1258.6475,387.80192 C 1263.5605,391.73237 1269.4562,390.74978 1272.404,387.80192 C 1267.491,381.9062 1261.5953,378.9584 1260.6127,372.08004 z "
         style="fill:white;stroke:black;stroke-width:4.26933384"
         id="path2084" />
      <path
         d="M 1331.361,267.92284 C 1323.5001,277.749 1312.6913,285.60994 1304.8304,286.59253 C 1295.9868,287.57517 1283.2128,285.60994 1280.265,292.48825 C 1276.3345,298.38391 1273.3867,299.36655 1262.5779,299.36655 C 1251.7692,299.36655 1245.8734,301.33177 1241.943,300.34914 C 1237.0299,299.36655 1236.0473,307.22744 1242.9256,313.12316 C 1240.9604,321.96669 1244.8909,328.84499 1242.9256,333.75807 C 1240.9604,338.67116 1240.9604,343.58424 1249.8039,344.56682 C 1259.6301,345.54946 1267.491,347.51468 1275.3519,343.58424 C 1284.1955,338.67116 1288.1259,343.58424 1295.9868,340.63638 C 1295.9868,347.51468 1293.039,362.25393 1302.8652,373.06268 C 1304.8304,377.97576 1304.8304,381.9062 1295.9868,383.87143 C 1287.1433,385.8367 1260.6127,386.81929 1255.6996,383.87143 C 1249.8039,380.92362 1246.8561,378.9584 1247.8387,386.81929 C 1248.8213,395.66281 1248.8213,404.50634 1242.9256,409.41942 C 1251.7692,411.38465 1249.8039,408.43684 1256.6822,402.54117 C 1271.4214,405.48898 1294.0216,406.47161 1304.8304,399.59326 C 1299.9173,411.38465 1298.9347,421.21081 1282.2302,421.21081 C 1265.5258,421.21081 1260.6127,423.17608 1255.6996,433.98483 C 1241.943,435.95005 1238.0125,438.89791 1226.2212,443.81094 C 1214.4298,448.72403 1199.6905,446.75886 1188.8818,444.79358 C 1192.8122,454.61975 1202.6384,463.46327 1214.4298,463.46327 C 1204.6036,466.41113 1200.6731,478.20252 1199.6905,484.09824 C 1198.7079,490.97654 1189.8644,496.87221 1178.073,500.80271 C 1197.7253,501.78529 1207.5515,496.87221 1224.2559,477.21988 C 1241.943,456.58502 1238.9951,466.41113 1251.7692,463.46327 C 1242.9256,469.35899 1236.0473,470.34158 1232.1168,480.16774 C 1227.2038,489.9939 1226.2212,493.92435 1217.3776,494.90699 C 1230.1516,503.75051 1238.9951,501.78529 1243.9082,490.97654 C 1247.8387,480.16774 1258.6475,472.3068 1268.4736,471.32421 C 1254.717,479.18516 1254.717,480.16774 1254.717,490.97654 C 1254.717,501.78529 1250.7865,513.57668 1244.8909,508.6636 C 1250.7865,520.45498 1258.6475,521.43757 1265.5258,514.55926 C 1271.4214,506.69837 1272.404,499.82007 1279.2824,493.92435 C 1273.3867,503.75051 1267.491,516.52454 1265.5258,520.45498 C 1262.5779,525.36806 1262.5779,530.28115 1258.6475,534.21159 C 1267.491,535.19423 1281.2476,533.22901 1285.1781,527.33329 C 1290.0911,520.45498 1302.8652,494.90699 1303.8477,481.15038 C 1299.9173,505.71574 1298.9347,509.64618 1298.9347,516.52454 C 1298.9347,522.4202 1295.9868,531.26373 1295.9868,531.26373 C 1307.7782,531.26373 1316.6217,526.35065 1317.6043,513.57668 C 1318.587,500.80271 1317.6043,495.88962 1320.5522,484.09824 C 1320.5522,499.82007 1322.5174,501.78529 1322.5174,513.57668 C 1322.5174,525.36806 1328.4131,530.28115 1339.2219,533.22901 C 1334.3088,522.4202 1342.1698,519.47234 1336.274,506.69837 C 1331.361,493.92435 1331.361,491.95913 1334.3088,484.09824 C 1339.2219,497.85479 1342.1698,496.87221 1341.1871,507.68096 C 1340.2045,518.48976 1352.9785,529.29851 1368.7004,525.36806 C 1359.8568,516.52454 1356.909,496.87221 1360.8394,470.34158 C 1361.8221,502.76788 1378.5265,513.57668 1394.2483,496.87221 C 1382.4569,493.92435 1378.5265,488.02863 1381.4744,470.34158 C 1390.3179,479.18516 1400.144,476.2373 1402.1093,464.44591 C 1388.3527,461.49805 1384.4222,449.70666 1386.3874,443.81094 C 1389.3353,436.93269 1389.3353,433.0022 1383.4396,427.10653 C 1395.231,430.05439 1408.005,432.01961 1409.9702,418.263 C 1400.144,418.263 1392.2831,415.31514 1391.3005,405.48898 C 1390.3179,395.66281 1389.3353,387.80192 1381.4744,381.9062 C 1394.2483,384.85406 1398.1788,383.87143 1405.0571,370.11482 C 1393.2657,372.08004 1383.4396,367.16696 1382.4569,355.37557 C 1381.4744,343.58424 1388.3527,330.81021 1375.5786,323.93191 C 1381.4744,319.01883 1382.4569,314.1058 1383.4396,305.26222 C 1378.5265,310.1753 1373.6135,317.05361 1363.7873,314.1058 C 1359.8568,298.38391 1349.0481,284.62731 1331.361,285.60994 C 1335.2915,277.749 1336.274,277.749 1331.361,267.92284 z "
         style="fill:white;stroke:black;stroke-width:4.26933384"
         id="path2086" />
      <path
         d="M 1295.9868,328.84499 C 1295.0042,336.70593 1303.8477,347.51468 1309.7435,351.44513"
         style="fill:white;stroke:black;stroke-width:4.26933384"
         id="path2088" />
      <path
         d="M 1381.4744,381.9062 C 1369.683,375.0279 1366.7351,369.13223 1361.8221,358.32348"
         style="fill:white;stroke:black;stroke-width:4.26933384"
         id="path2090" />
      <path
         d="M 1383.4396,427.10653 C 1379.5091,422.19345 1373.6135,419.24559 1371.6482,411.38465"
         style="fill:white;stroke:black;stroke-width:4.26933384"
         id="path2092" />
      <path
         d="M 1381.4744,470.34158 C 1384.4222,453.63711 1378.5265,442.82836 1369.683,436.93269"
         style="fill:white;stroke:black;stroke-width:4.26933384"
         id="path2094" />
      <path
         d="M 1360.8394,470.34158 C 1359.8568,461.49805 1359.8568,448.72403 1358.8742,445.77622"
         style="fill:white;stroke:black;stroke-width:4.26933384"
         id="path2096" />
      <path
         d="M 1291.0738,433.0022 C 1279.2824,435.95005 1271.4214,435.95005 1262.5779,438.89791 C 1253.7344,440.86314 1256.6822,442.82836 1244.8909,449.70666 C 1233.0995,457.56761 1227.2038,460.51541 1214.4298,463.46327"
         style="fill:white;stroke:black;stroke-width:4.26933384"
         id="path2098" />
      <path
         d="M 1308.7608,577.44669 C 1324.4827,591.20325 1337.2567,607.90772 1339.2219,624.61219"
         style="fill:white;stroke:black;stroke-width:4.26933384"
         id="path2100" />
      <path
         d="M 1253.7344,563.69003 C 1265.5258,567.62053 1268.4736,567.62053 1275.3519,566.63789"
         style="fill:white;stroke:black;stroke-width:4.26933384"
         id="path2102" />
      <path
         d="M 1069.9853,271.85328 C 1079.8114,275.78378 1094.5507,286.59253 1099.4638,296.41869"
         style="fill:white;stroke:black;stroke-width:4.26933384"
         id="path2104" />
      <path
         d="M 1097.4986,266.9402 C 1100.4464,274.80114 1103.3942,280.69686 1106.3421,286.59253"
         style="fill:white;stroke:black;stroke-width:4.26933384"
         id="path2106" />
      <path
         d="M 1509.2143,319.01883 C 1514.1274,311.15789 1519.0405,308.21008 1519.0405,300.34914"
         style="fill:white;stroke:black;stroke-width:4.26933384"
         id="path2108" />
      <path
         d="M 1511.1796,353.4104 C 1509.2143,369.13223 1511.1796,380.92362 1531.8145,386.81929"
         style="fill:white;stroke:black;stroke-width:4.26933384"
         id="path2110" />
      <path
         d="M 1282.2302,309.19272 C 1284.1955,305.26222 1287.1433,301.33177 1287.1433,301.33177 C 1292.0563,306.2448 1302.8652,309.19272 1298.9347,316.07097 C 1287.1433,318.03619 1279.2824,313.12316 1275.3519,309.19272 L 1282.2302,309.19272 z "
         style="fill:white;stroke:black;stroke-width:4.26933384"
         id="path2112" />
      <path
         d="M 1344.135,311.15789 C 1353.9611,312.14052 1369.683,319.01883 1375.5786,323.93191"
         style="fill:white;stroke:black;stroke-width:4.26933384"
         id="path2114" />
      <path
         d="M 1116.1682,256.13145 C 1118.1335,246.30529 1103.3942,236.47917 1093.5681,236.47917 C 1100.4464,243.35748 1102.4116,247.28792 1101.429,255.14887 C 1107.3247,262.02712 1111.2552,262.02712 1116.1682,256.13145 z "
         style="fill:white;stroke:black;stroke-width:4.26933384"
         id="path2116" />
      <path
         d="M 1081.7767,255.14887 C 1075.881,249.25315 1062.1244,241.39226 1051.3156,256.13145 C 1067.0375,259.07931 1065.0723,259.07931 1070.9679,264.97503 C 1077.8462,262.02712 1079.8114,262.02712 1081.7767,255.14887 z "
         style="fill:white;stroke:black;stroke-width:4.26933384"
         id="path2118" />
      <path
         d="M 1054.2635,275.78378 C 1048.3678,272.83592 1037.559,277.749 1032.646,287.57517 C 1045.4199,285.60994 1054.2635,285.60994 1059.1765,292.48825 C 1063.107,287.57517 1058.1939,280.69686 1054.2635,275.78378 z "
         style="fill:white;stroke:black;stroke-width:4.26933384"
         id="path2120" />
      <path
         d="M 1063.107,331.79285 C 1055.2461,330.81021 1040.5068,332.77544 1036.5764,325.89713 C 1042.4721,343.58424 1053.2809,347.51468 1067.0375,343.58424 C 1069.9853,337.68852 1067.0375,336.70593 1063.107,331.79285 z "
         style="fill:white;stroke:black;stroke-width:4.26933384"
         id="path2122" />
      <path
         d="M 1024.785,557.79436 C 1012.9936,551.89864 1001.2022,562.70745 1001.2022,576.46405 C 1009.0632,571.55097 1016.9241,570.56834 1022.8198,574.49883 C 1026.7502,567.62053 1025.7676,562.70745 1024.785,557.79436 z "
         style="fill:white;stroke:black;stroke-width:4.26933384"
         id="path2124" />
      <path
         d="M 1006.1153,606.92513 C 999.23702,615.76866 996.28916,628.54268 1004.1501,641.31665 C 1008.0805,632.47313 1012.9936,619.6991 1020.8546,617.73388 C 1022.8198,611.83821 1013.9763,606.92513 1006.1153,606.92513 z "
         style="fill:white;stroke:black;stroke-width:4.26933384"
         id="path2126" />
      <path
         d="M 1046.4026,631.49049 C 1042.4721,638.36885 1041.4895,656.0559 1053.2809,662.9342 C 1054.2635,653.10804 1054.2635,643.28188 1062.1244,639.35143 C 1061.1418,632.47313 1054.2635,627.56004 1046.4026,631.49049 z "
         style="fill:white;stroke:black;stroke-width:4.26933384"
         id="path2128" />
      <path
         d="M 1435.5182,718.94322 C 1444.3617,717.96064 1447.3096,720.9085 1454.1878,715.99542 C 1454.1878,723.85631 1452.2227,729.75203 1453.2053,735.64769"
         style="fill:white;stroke:black;stroke-width:4.26933384"
         id="path2130" />
      <path
         d="M 1354.9437,709.11711 C 1355.9264,718.94322 1368.7004,730.73466 1379.5091,726.80422"
         style="fill:white;stroke:black;stroke-width:4.26933384"
         id="path2132" />
      <path
         d="M 1119.1161,715.01283 C 1125.9944,717.96064 1128.9422,723.85631 1131.8901,727.7868 C 1133.8553,732.69988 1138.7684,736.63033 1145.6467,740.56078"
         style="fill:white;stroke:black;stroke-width:4.26933384"
         id="path2134" />
      <path
         d="M 1102.4116,735.64769 C 1111.2552,730.73466 1118.1335,730.73466 1122.0639,737.61297 C 1125.9944,743.50863 1128.9422,743.50863 1135.8205,745.47386"
         style="fill:white;stroke:black;stroke-width:4.26933384"
         id="path2136" />
      <path
         d="M 1125.9944,701.25617 C 1119.1161,697.32573 1100.4464,691.43001 1096.5159,706.16925 C 1103.3942,706.16925 1114.203,710.09975 1119.1161,715.01283 C 1125.0118,715.01283 1126.977,708.13448 1125.9944,701.25617 z "
         style="fill:white;stroke:black;stroke-width:4.26933384"
         id="path2138" />
      <path
         d="M 1104.3769,718.94322 C 1100.4464,715.01283 1078.8289,715.99542 1085.7072,737.61297 C 1091.6028,733.68247 1096.5159,735.64769 1102.4116,735.64769 C 1106.3421,730.73466 1107.3247,723.85631 1104.3769,718.94322 z "
         style="fill:white;stroke:black;stroke-width:4.26933384"
         id="path2140" />
      <path
         d="M 1100.4464,741.54341 C 1090.6202,738.59555 1071.9506,740.56078 1074.8984,765.12618 C 1084.7245,755.30002 1093.5681,757.26524 1099.4638,758.24788 C 1104.3769,748.42172 1104.3769,749.40435 1100.4464,741.54341 z "
         style="fill:white;stroke:black;stroke-width:4.26933384"
         id="path2142" />
      <path
         d="M 1125.0118,781.83065 C 1119.1161,788.70896 1115.1856,806.39601 1130.9074,816.22218 C 1130.9074,807.37865 1132.8727,801.48293 1140.7336,794.60462 C 1135.8205,785.7611 1136.8032,774.95235 1125.0118,781.83065 z "
         style="fill:white;stroke:black;stroke-width:4.26933384"
         id="path2144" />
      <path
         d="M 1376.5613,873.21383 C 1386.3874,870.26602 1391.3005,867.31817 1395.231,858.47464"
         style="fill:white;stroke:black;stroke-width:4.26933384"
         id="path2146" />
      <path
         d="M 1389.3353,894.83138 C 1388.3527,885.98786 1390.3179,884.02263 1395.231,881.07477 C 1401.1267,877.14433 1405.0571,872.23125 1407.0224,868.3008"
         style="fill:white;stroke:black;stroke-width:4.26933384"
         id="path2148" />
      <path
         d="M 1368.7004,847.66589 C 1358.8742,847.66589 1345.1176,861.42245 1355.9264,878.12692 C 1361.8221,868.3008 1365.7525,870.26602 1371.6482,868.3008 C 1376.5613,862.40508 1378.5265,848.64847 1368.7004,847.66589 z "
         style="fill:white;stroke:black;stroke-width:4.26933384"
         id="path2150" />
      <path
         d="M 1368.7004,885.00527 C 1361.8221,892.86616 1360.8394,904.65755 1379.5091,912.51849 C 1378.5265,904.65755 1377.5439,901.70969 1382.4569,895.81402 C 1381.4744,887.95308 1377.5439,883.04 1368.7004,885.00527 z "
         style="fill:white;stroke:black;stroke-width:4.26933384"
         id="path2152" />
      <path
         d="M 1389.3353,894.83138 C 1378.5265,905.64013 1377.5439,921.36202 1401.1267,926.2751 C 1400.144,915.4663 1398.1788,911.53585 1403.0919,905.64013 C 1405.0571,897.77924 1396.2136,891.88358 1389.3353,894.83138 z "
         style="fill:white;stroke:black;stroke-width:4.26933384"
         id="path2154" />
      <path
         d="M 1464.014,877.14433 C 1467.9445,891.88358 1465.9793,902.69232 1447.3096,907.60541 C 1451.24,897.77924 1452.2227,889.9183 1445.3444,886.97049 C 1449.2748,881.07477 1455.1705,873.21383 1464.014,877.14433 z "
         style="fill:white;stroke:black;stroke-width:4.26933384"
         id="path2156" />
    </g>
    <path
       style="fill:white;fill-rule:evenodd;stroke:black;stroke-width:4;stroke-linecap:butt;stroke-linejoin:miter;stroke-opacity:1;stroke-miterlimit:4;stroke-dasharray:none"
       d="M 706.6313,614.32361 L 706.6313,894.00531 C 742.70557,971.4589 766.04775,1087.5331 843.50133,1110.8753 L 1024.4828,1110.8753 C 1076.6225,1089.0822 1112.8471,971.374 1142.7056,898.6525 L 1142.7056,611.14058 L 706.6313,614.32361 z "
       id="path2160"
       sodipodi:nodetypes="ccccccc" />
    <path
       sodipodi:type="arc"
       style="opacity:1;fill:white;fill-opacity:1;stroke:black;stroke-width:3.4000001;stroke-linecap:round;stroke-linejoin:miter;stroke-miterlimit:4;stroke-dasharray:none;stroke-opacity:1"
       id="path2162"
       sodipodi:cx="921.48541"
       sodipodi:cy="647.74536"
       sodipodi:rx="218.03714"
       sodipodi:ry="39.7878"
       d="M 1139.5226 647.74536 A 218.03714 39.7878 0 1 1  703.44827,647.74536 A 218.03714 39.7878 0 1 1  1139.5226 647.74536 z"
       transform="translate(0,-34)" />
    <rect
       style="opacity:1;fill:white;fill-opacity:1;stroke:black;stroke-width:4;stroke-linecap:round;stroke-linejoin:round;stroke-miterlimit:4;stroke-dasharray:none;stroke-opacity:1"
       id="rect3052"
       width="44.562336"
       height="235.54376"
       x="732.09552"
       y="662.06897"
       ry="22.281168" />
    <rect
       style="opacity:1;fill:white;fill-opacity:1;stroke:black;stroke-width:4;stroke-linecap:round;stroke-linejoin:round;stroke-miterlimit:4;stroke-dasharray:none;stroke-opacity:1"
       id="rect3054"
       width="44.562336"
       height="235.54376"
       x="1072.6791"
       y="655.70294"
       ry="22.281168" />
    <rect
       style="opacity:1;fill:white;fill-opacity:1;stroke:black;stroke-width:4;stroke-linecap:round;stroke-linejoin:round;stroke-miterlimit:4;stroke-dasharray:none;stroke-opacity:1"
       id="rect3056"
       width="44.562336"
       height="235.54376"
       x="983.55438"
       y="674.80109"
       ry="22.281168" />
    <rect
       style="opacity:1;fill:white;fill-opacity:1;stroke:black;stroke-width:4;stroke-linecap:round;stroke-linejoin:round;stroke-miterlimit:4;stroke-dasharray:none;stroke-opacity:1"
       id="rect3058"
       width="44.562336"
       height="235.54376"
       x="821.22015"
       y="681.16711"
       ry="22.281168" />
    <rect
       style="opacity:1;fill:white;fill-opacity:1;stroke:black;stroke-width:4;stroke-linecap:round;stroke-linejoin:round;stroke-miterlimit:4;stroke-dasharray:none;stroke-opacity:1"
       id="rect3060"
       width="44.562336"
       height="235.54376"
       x="903.97876"
       y="690.71619"
       ry="22.281168" />
    <rect
       style="opacity:1;fill:white;fill-opacity:1;stroke:black;stroke-width:3.58727551;stroke-linecap:round;stroke-linejoin:round;stroke-miterlimit:4;stroke-dasharray:none;stroke-opacity:1"
       id="rect3086"
       width="172.29601"
       height="140.46576"
       x="811.46472"
       y="152.5788"
       ry="14.046527" />
    <path
       style="fill:white;fill-rule:evenodd;stroke:black;stroke-width:4;stroke-linecap:butt;stroke-linejoin:miter;stroke-opacity:1;stroke-miterlimit:4;stroke-dasharray:none"
       d="M 811.67109,283.28912 C 811.67109,283.28912 858.57825,516.44563 902.34483,515.64987 C 946.11141,514.85411 982.7374,286.47215 982.7374,286.47215 C 982.7374,286.47215 943.74536,371.61803 899.97878,372.41379 C 856.2122,373.20955 811.67109,283.28912 811.67109,283.28912 z "
       id="path3088"
       sodipodi:nodetypes="czczc" />
    <rect
       style="opacity:1;fill:#2b0000;fill-opacity:1;stroke:black;stroke-width:4;stroke-linecap:round;stroke-linejoin:round;stroke-miterlimit:4;stroke-dasharray:none;stroke-opacity:1"
       id="rect3090"
       width="171.88329"
       height="47.745358"
       x="811.67108"
       y="181.43236"
       ry="17.506569" />
    <path
       style="fill:black;fill-rule:evenodd;stroke:black;stroke-width:4;stroke-linecap:butt;stroke-linejoin:miter;stroke-miterlimit:4;stroke-dasharray:none;stroke-opacity:1"
       d="M 855.62373,350.08021 C 855.62373,350.08021 878.6509,464.53882 900.1363,464.14818 C 921.6217,463.75753 939.6017,351.64279 939.6017,351.64279 C 939.6017,351.64279 920.4602,393.44166 898.9748,393.83231 C 877.4893,394.22295 855.62373,350.08021 855.62373,350.08021 z "
       id="path3092"
       sodipodi:nodetypes="czczc" />
  </g>
</svg>
