<?xml version="1.0" encoding="UTF-8"?>
<!DOCTYPE svg PUBLIC "-//W3C//DTD SVG 1.1//EN" "http://www.w3.org/Graphics/SVG/1.1/DTD/svg11.dtd">
<svg version="1.1" xmlns="http://www.w3.org/2000/svg"

height="600" width="1200">

<rect fill="#cc0000" x="0" y="0" width="1200" height="600"/>
<path fill="#ffd700" d="M 106.16529,130.78187 C 113.55825,127.39726 118.11342,123.15425 121.72846,116.28522 C 127.13378,106.01444 127.27121,106.46604 117.86098,103.57614 C 113.32901,102.18436 109.56224,101.14786 109.49037,101.27281 C 109.41851,101.39777 108.10945,104.11045 106.58135,107.30099 C 102.67349,115.46033 97.921325,118.5 89.073029,118.5 C 77.416225,118.5 71.418837,113.69552 68.405673,101.94346 C 64.920902,88.352029 68.159525,71.943865 75.384387,66.586493 C 86.316755,58.479934 102.36894,61.819634 107.07443,73.179691 C 108.07396,75.592769 108.73348,76.010572 110.89137,75.597712 C 125.63388,72.777089 125.12134,72.963644 124.42894,70.67036 C 123.02889,66.033286 118.44702,58.721658 115.09923,55.782261 C 113.16985,54.088242 109.09573,51.532083 106.04563,50.101909 C 101.17136,47.816388 99.222585,47.501496 89.948137,47.500796 C 79.755848,47.500027 79.135787,47.62874 71.752154,51.277929 C 56.185739,58.971269 48.799112,74.192711 50.301441,95.480891 C 51.627384,114.26966 61.871146,127.93057 78.032906,132.46311 C 86.170272,134.74523 99.210389,133.96592 106.16529,130.78187 z M 193.16529,130.78187 C 200.55825,127.39726 205.11342,123.15425 208.72846,116.28522 C 214.13378,106.01444 214.27121,106.46604 204.86098,103.57614 C 200.32901,102.18436 196.56224,101.14786 196.49037,101.27281 C 196.41851,101.39777 195.10945,104.11045 193.58135,107.30099 C 189.67349,115.46033 184.92133,118.5 176.07303,118.5 C 164.41623,118.5 158.41884,113.69552 155.40567,101.94346 C 151.9209,88.352029 155.15952,71.943865 162.38439,66.586493 C 173.31676,58.479934 189.36894,61.819634 194.07443,73.179691 C 195.07396,75.592769 195.73348,76.010572 197.89137,75.597712 C 212.63388,72.777089 212.12134,72.963644 211.42894,70.67036 C 210.02889,66.033286 205.44702,58.721658 202.09923,55.782261 C 200.16985,54.088242 196.09573,51.532083 193.04563,50.101909 C 188.17136,47.816388 186.22259,47.501496 176.94814,47.500796 C 166.75585,47.500027 166.13579,47.62874 158.75215,51.277929 C 143.18574,58.971269 135.79911,74.192711 137.30144,95.480891 C 138.62738,114.26966 148.87115,127.93057 165.03291,132.46311 C 173.17027,134.74523 186.21039,133.96592 193.16529,130.78187 z M 245,118.13588 L 245,102.27175 L 259.75,101.7778 C 275.9683,101.23469 279.23432,100.3672 285.38164,94.969776 C 291.72223,89.40267 293.50617,84.882208 293.4598,74.5 C 293.41548,64.575559 291.73306,59.920109 286.34158,54.803048 C 280.36897,49.134427 277.60144,48.605656 251.75,48.193905 L 228,47.815625 L 228,90.907812 L 228,134 L 236.5,134 L 245,134 L 245,118.13588 z M 245,75 L 245,63 L 254.75,63.005577 C 266.79082,63.012464 271.10963,64.153141 274.54279,68.233219 C 276.80423,70.920788 277.13779,72.085183 276.71663,75.821665 C 275.75927,84.315396 270.48449,86.934273 254.25,86.976143 L 245,87 L 245,75 z M 319.14931,128 C 320.1587,124.975 321.70454,120.57628 322.58451,118.22508 L 324.18445,113.95015 L 339.71412,114.22508 L 355.24378,114.5 L 358.73854,124.25 L 362.2333,134 L 371.09774,134 L 379.96217,134 L 376.99259,125.75 C 375.35932,121.2125 368.44021,101.975 361.61678,83 L 349.21055,48.5 L 339.35528,48.236699 L 329.5,47.973398 L 318.7836,78.236699 C 312.88958,94.881514 306.03154,114.25433 303.54351,121.28739 L 299.01982,134.07479 L 308.16694,133.78739 L 317.31406,133.5 L 319.14931,128 z M 333.88865,85.25 C 336.5418,77.6875 338.89451,70.923172 339.11689,70.21816 C 339.33928,69.513148 341.8635,75.700648 344.72629,83.96816 L 349.93135,99 L 339.49804,99 L 329.06474,99 L 333.88865,85.25 z"/>
</svg>