<?xml version="1.0" encoding="UTF-8" standalone="no"?>
<!-- Created with Inkscape (http://www.inkscape.org/) -->

<svg
   xmlns:dc="http://purl.org/dc/elements/1.1/"
   xmlns:cc="http://creativecommons.org/ns#"
   xmlns:rdf="http://www.w3.org/1999/02/22-rdf-syntax-ns#"
   xmlns:svg="http://www.w3.org/2000/svg"
   xmlns="http://www.w3.org/2000/svg"
   xmlns:sodipodi="http://sodipodi.sourceforge.net/DTD/sodipodi-0.dtd"
   xmlns:inkscape="http://www.inkscape.org/namespaces/inkscape"
   id="svg2"
   version="1.1"
   inkscape:version="0.48.4 r9939"
   width="730"
   height="600"
   sodipodi:docname="Flag of Bulgaria (14th century).svg">
  <metadata
     id="metadata8">
    <rdf:RDF>
      <cc:Work
         rdf:about="">
        <dc:format>image/svg+xml</dc:format>
        <dc:type
           rdf:resource="http://purl.org/dc/dcmitype/StillImage" />
        <dc:title />
      </cc:Work>
    </rdf:RDF>
  </metadata>
  <defs
     id="defs6" />
  <sodipodi:namedview
     pagecolor="#ffffff"
     bordercolor="#666666"
     borderopacity="1"
     objecttolerance="10"
     gridtolerance="10"
     guidetolerance="10"
     inkscape:pageopacity="0"
     inkscape:pageshadow="2"
     inkscape:window-width="931"
     inkscape:window-height="752"
     id="namedview4"
     showgrid="false"
     inkscape:zoom="0.65866226"
     inkscape:cx="381.70657"
     inkscape:cy="296.14465"
     inkscape:window-x="173"
     inkscape:window-y="97"
     inkscape:window-maximized="0"
     inkscape:current-layer="svg2">
    <inkscape:grid
       type="xygrid"
       id="grid2981" />
  </sodipodi:namedview>
  <path
     style="fill:#ffffff;fill-rule:evenodd;stroke:#000000;stroke-width:0.4996182;stroke-opacity:1"
     inkscape:connector-curvature="0"
     id="path10"
     d="M 729.75019,299.99929 C 649.80494,448.31457 561.81408,537.3899 419.96236,569.77173 341.37072,587.71259 220,599.99626 0.24980911,599.74645 c 0,-196.91307 0,-398.39179 0,-599.49432238 C 220,0.00231571 340,20.002114 419.96236,35.22263 559.86654,70.193132 649.80494,150.12571 729.75019,299.99929 z"
     class="fil0 str0"
     sodipodi:nodetypes="cscccc" />
  <path
     d="m 40,278.18181 c 73.76472,0 87.17648,0 167.64705,0 0,-130.9091 0,-87.27274 0,-218.18181 C 127.17648,60 113.76472,60 40,60 z"
     style="fill:#d62612;fill-opacity:1;fill-rule:evenodd"
     id="path2996"
     sodipodi:nodetypes="ccccc"
     inkscape:connector-curvature="0" />
  <path
     inkscape:connector-curvature="0"
     sodipodi:nodetypes="ccccc"
     id="path2998"
     style="fill:#d62612;fill-opacity:1;fill-rule:evenodd"
     d="m 252.35295,278.18181 c 73.76469,0 87.17646,0 167.64705,0 0,-130.9091 0,-87.27275 0,-218.18181 -80.47059,0 -93.88236,0 -167.64705,0 z" />
  <path
     inkscape:connector-curvature="0"
     sodipodi:nodetypes="ccccc"
     id="path3000"
     style="fill:#d62612;fill-opacity:1;fill-rule:evenodd"
     d="m 40,540 c 73.76472,0 87.17648,0 167.64705,0 0,-130.90909 0,-87.27272 0,-218.18181 -80.47057,0 -93.88233,0 -167.64705,0 z" />
  <path
     d="m 252.35295,540 c 73.7647,0 87.17647,0 167.64705,0 0,-130.90909 0,-87.27272 0,-218.18181 -80.47058,0 -93.88235,0 -167.64705,0 z"
     style="fill:#d62612;fill-opacity:1;fill-rule:evenodd"
     id="path3002"
     sodipodi:nodetypes="ccccc"
     inkscape:connector-curvature="0" />
  <path
     d="m 40,278.18181 c 1.1e-5,19.19999 1.1e-5,22.6909 0,43.63636 228,0 152.00001,10e-6 380,2e-5 -10e-6,-20.94547 0,-24.43638 0,-43.63634 z"
     style="fill:#ffffff;fill-opacity:1;fill-rule:evenodd"
     id="path3004"
     sodipodi:nodetypes="ccccc"
     inkscape:connector-curvature="0" />
  <path
     inkscape:connector-curvature="0"
     sodipodi:nodetypes="ccccc"
     id="path3006"
     style="fill:#ffffff;fill-opacity:1;fill-rule:evenodd"
     d="m 207.64705,540 c 19.67061,0 23.24706,0 44.7059,0 0,-288.00001 0,-192.00001 0,-480 -21.45884,0 -25.03529,0 -44.7059,0 z" />
</svg>
