<?xml version="1.0" encoding="UTF-8" ?>
<!DOCTYPE svg PUBLIC "-//W3C//DTD SVG 1.1//EN" "http://www.w3.org/Graphics/SVG/1.1/DTD/svg11.dtd">
<svg width="1000pt" height="1000pt" viewBox="0 0 1000 1000" version="1.1" xmlns="http://www.w3.org/2000/svg">
<g id="#000000ff">
<path fill="#000000" opacity="1.00" d=" M 0.00 0.00 L 1000.00 0.00 L 1000.00 1000.00 L 0.00 1000.00 L 0.00 0.00 M 2.02 2.02 C 1.98 334.01 2.00 666.00 2.01 997.99 C 168.34 998.01 334.67 998.01 501.00 997.99 C 666.66 998.00 832.32 998.02 997.98 997.98 C 998.01 665.99 998.01 334.01 997.98 2.02 C 832.32 1.98 666.66 1.99 501.00 2.01 C 334.67 2.00 168.34 1.98 2.02 2.02 Z" />
</g>
<g id="#ffffffff">
<path fill="#ffffff" opacity="1.00" d=" M 2.02 2.02 C 168.34 1.98 334.67 2.00 501.00 2.01 C 501.00 334.00 501.00 666.00 501.00 997.99 C 334.67 998.01 168.34 998.01 2.01 997.99 C 2.00 666.00 1.98 334.01 2.02 2.02 Z" />
</g>
<g id="#3700fcff">
<path fill="#3700fc" opacity="1.00" d=" M 501.00 2.01 C 666.66 1.99 832.32 1.98 997.98 2.02 C 998.01 334.01 998.01 665.99 997.98 997.98 C 832.32 998.02 666.66 998.00 501.00 997.99 C 501.00 666.00 501.00 334.00 501.00 2.01 Z" />
</g>
</svg>
