<?xml version="1.0" encoding="utf-8"?>
<!-- Generator: Adobe Illustrator 22.1.0, SVG Export Plug-In . SVG Version: 6.00 Build 0)  -->
<svg version="1.1"
	 id="svg2211" inkscape:version="0.48.4 r9939" sodipodi:docname="Flag_of_the_Second_Saudi_State.svg" xmlns:cc="http://creativecommons.org/ns#" xmlns:dc="http://purl.org/dc/elements/1.1/" xmlns:inkscape="http://www.inkscape.org/namespaces/inkscape" xmlns:rdf="http://www.w3.org/1999/02/22-rdf-syntax-ns#" xmlns:sodipodi="http://sodipodi.sourceforge.net/DTD/sodipodi-0.dtd" xmlns:svg="http://www.w3.org/2000/svg"
	 xmlns="http://www.w3.org/2000/svg" xmlns:xlink="http://www.w3.org/1999/xlink" x="0px" y="0px" width="725px" height="500px"
	 viewBox="0 0 725 500" style="enable-background:new 0 0 725 500;" xml:space="preserve">
<style type="text/css">
	.st0{fill:#006C35;}
	.st1{fill:#FFFFFF;}
</style>
<sodipodi:namedview  bordercolor="#666666" borderopacity="1" gridtolerance="10" guidetolerance="10" id="namedview8" inkscape:current-layer="g2292" inkscape:cx="401.10162" inkscape:cy="287.48431" inkscape:pageopacity="0" inkscape:pageshadow="2" inkscape:window-height="988" inkscape:window-maximized="1" inkscape:window-width="1680" inkscape:window-x="-8" inkscape:window-y="-8" inkscape:zoom="0.944" objecttolerance="10" pagecolor="#ffffff" showgrid="false">
	</sodipodi:namedview>
<defs>
	
	
		<inkscape:perspective  id="perspective12" inkscape:persp3d-origin="362.5 : 166.66667 : 1" inkscape:vp_x="0 : 250 : 1" inkscape:vp_y="0 : 1000 : 0" inkscape:vp_z="725 : 250 : 1" sodipodi:type="inkscape:persp3d">
		</inkscape:perspective>
</defs>
<g id="g2292">
	<rect id="rect2220" class="st0" width="600" height="500"/>
	<rect id="rect2282" x="596.3" class="st1" width="128.7" height="500"/>
	<g>
		<g id="g4298" transform="matrix(2.1932951,0,0,2.1932951,-533.80454,1070.2553)">
			<path id="path2997" inkscape:connector-curvature="0" sodipodi:nodetypes="cccccc" class="st1" d="M446.7-337.7
				c3.5-3.1,7.1-4.1,10.5-4.6l-0.8-0.4l-3.9-0.1l-5.7,3.2L446.7-337.7z"/>
			<path id="path3778" inkscape:connector-curvature="0" sodipodi:nodetypes="ccccccc" class="st1" d="M440.1-330.4l1.7-0.6l3,3.5
				l-1.4,0.3l2.1,19.1c-0.5,2.4-1.6,3-2.6,4.1L440.1-330.4z"/>
			<path id="path3778-1" inkscape:connector-curvature="0" sodipodi:nodetypes="ccccccc" class="st1" d="M349.8-373.6l2.1-0.6
				l3.9,3.5l-1.7,0.3l2.7,19.1c-0.6,2.4-2,3-3.3,4.1L349.8-373.6z"/>
			<path id="path3778-1-7" inkscape:connector-curvature="0" sodipodi:nodetypes="ccccccc" class="st1" d="M398.8-373.3l2.1-0.6
				l3.9,3.5l-1.7,0.3l2.7,19.1c-0.6,2.4-2,3-3.3,4.1L398.8-373.3z"/>
			<path id="path3778-1-4" inkscape:connector-curvature="0" sodipodi:nodetypes="ccccccc" class="st1" d="M449.1-372.8l2.1-0.6
				l3.9,3.5l-1.7,0.3l2.7,19.1c-0.6,2.4-2,3-3.3,4.1L449.1-372.8z"/>
			<path id="path3778-1-0" inkscape:connector-curvature="0" sodipodi:nodetypes="ccccccc" class="st1" d="M342.6-335l1.7-0.6l3,3.5
				l-1.4,0.3l2.1,19.1c-0.5,2.4-1.6,3-2.6,4.1L342.6-335z"/>
			<path id="path3850-4" inkscape:connector-curvature="0" class="st1" d="M497.8-373.7l-17.3,16c0,0-11-7-11.6-7.6l-2.7-3l-2.3-0.1
				l-1.7,2l15.4,10.7c-2.6,3.6-2.6,5.5-1.4,6.4c1.4,1,4.4,0.7,6.9,0c0.9-0.3,4.6-4.5-0.8-7c0,0,18.4-15,18.6-15.1
				C501.2-371.5,497.8-373.7,497.8-373.7z M480.9-353.7c0.5,0,1,0.2,1.2,0.4c0.5,0.6,0,1.4-1,1.9c-1.1,0.5-2.3,0.4-2.8-0.1
				s0-1.4,1-1.9C479.8-353.6,480.3-353.8,480.9-353.7z"/>
			<path id="path3873" inkscape:connector-curvature="0" class="st1" d="M325.3-329.8c0.3-0.1,11.4-5.3,11.4-5.3s2.3-0.2,2,0.1
				c-0.3,0.3-0.5,0.9-0.8,1s-11.2,4.9-11.2,4.9L325.3-329.8z"/>
			<path id="path3873-8" inkscape:connector-curvature="0" class="st1" d="M327.7-368.4c0.3-0.1,14.6-5.3,14.6-5.3s2.9-0.2,2.6,0.1
				c-0.3,0.3-0.6,0.9-1,1c-0.3,0.1-14.4,4.9-14.4,4.9L327.7-368.4z"/>
			<path id="path3893" inkscape:connector-curvature="0" class="st1" d="M316.4-317.9c0,0,1.7,0,1.7,0.2s-0.1,3-0.1,3l0.2,2.1
				l0.8,0.2l1.2-0.6l0.5-3l0.4-3.1l1.6-2.1l2.3-0.3l-0.8,2.1c0,0-0.3,2.5-0.3,2.7s0.6,3.1,0.6,3.1l1.6,1.1l1.6,0.2l1.5-0.9l0.6-1.9
				l-0.5-2.6l-0.5-2.7l-0.1-2.1l1.6-0.5l1.5,0.2l0.1,3.2l0.2,3l1,1.8l1.5,1.2l1.5,0.2l0.6-1.3l-0.6-1.3l-2.3-5.1l-0.3-1.7l0.9-1.3
				l1.8,0.1l2.1,5.8l0.6,2.5v2.6l-1.1,1.5L337-311h-1.8l-2-0.8l-1.3-0.7l-1.5,1.5l-1.3,0.9h-2.7l-2.5-0.4l-1.4-1.8l-0.9,1.5l-1.1,1
				l-2.3-0.1l-1.8-1.8l-0.1-2.6L316.4-317.9z"/>
			<path id="path3893-8" inkscape:connector-curvature="0" class="st1" d="M316.5-356.7c0,0,2.1,0,2.1,0.2s-0.1,3-0.1,3l0.3,2.1
				l1,0.2l1.5-0.6l0.6-3l0.5-3.1l2.1-2.1l3-0.3l-1,2.1c0,0-0.4,2.5-0.4,2.7s0.9,3.1,0.9,3.1l2,1.1l2,0.2l1.8-0.9l0.9-1.9l-0.6-2.6
				l-0.6-2.7l-0.1-2.1l2.1-0.5l1.8,0.2l0.1,3.2l0.3,3l1.3,1.8l1.9,1.2l1.9,0.2l0.8-1.3l-0.9-1.3l-2.9-5.1l-0.4-1.7l1.1-1.3l2.4,0.1
				l2.8,5.8l0.9,2.5v2.6l-1.4,1.5l-1.4,0.6h-2.3l-2.7-0.8l-1.7-0.7l-1.9,1.5l-1.6,0.9h-3.4l-3.1-0.4l-1.8-1.8l-1.2,1.5l-1.4,1
				l-2.9-0.1l-2.4-1.8l-0.1-2.6L316.5-356.7z"/>
			<path id="path3913" inkscape:connector-curvature="0" class="st1" d="M414.6-354.3l2.7,0.2l0.1,4.2l1.5,2l2.1,0.2l0.5-1.7l2-2.9
				l2.3-2.6l1.9-0.4l2.7,0.7l3.8,2.6l2.6,1.2l4.5-0.7l1-1.9l-1.7-12.7l-1.6-6.3l0.5-1.6l1.4-1.1l2.3,2.5l1.1,2.2l-1.6,0.2l1.5,9.6
				l1.1,5.9l-0.1,3.6l-1.1,1.8l-3.1,1.4l-4.8-0.1l-2.7-1.1l-3.2-2.2l-2-1.1l-0.4,2l-1.5,2.2l-2.6,3l-3.3,0.7l-3.2-1.1l-1.5-2.4
				L414.6-354.3z"/>
			<path id="path4030-8-2-3" inkscape:connector-curvature="0" sodipodi:nodetypes="cccccccccccccccccccccccc" class="st1" d="
				M336-329.8c0,0.8-0.2,1.5-0.5,2.1s-0.8,0.9-1.3,0.9c-0.3,0-0.5,0-0.8-0.1c-0.2-0.1-0.4-0.2-0.8-0.3c-0.1,0.3-0.3,0.7-0.6,0.9
				c-0.4,0.4-0.8,0.5-1.2,0.5c-0.5,0-0.9-0.2-1.2-0.5c-0.2-0.3-0.4-0.7-0.4-1.2c0-0.2,0-0.4,0.1-0.7c0-0.3,0.1-0.5,0.1-0.6l0.5-0.2
				c0,0.5,0.1,0.9,0.2,1.1c0.2,0.2,0.4,0.3,0.9,0.3c0.2,0,0.5-0.2,0.9-0.7s0.4-1,0.5-1.4l0.4-0.1c0.1,0.5,0.2,0.7,0.3,0.8
				c0.2,0.2,0.5,0.3,1,0.3c0.3,0,0.6-0.2,0.9-0.7c0.1-0.3,0.3-0.7,0.3-1.1l0.4-0.1C336-330.3,336-330.1,336-329.8L336-329.8z"/>
			<path id="path4030-8-2-34" inkscape:connector-curvature="0" sodipodi:nodetypes="cccccccccccccccccccccccc" class="st1" d="
				M342.1-368.4c0,0.8-0.2,1.5-0.6,2.1s-1,0.9-1.6,0.9c-0.3,0-0.6,0-1-0.1c-0.3-0.1-0.6-0.2-1-0.3c-0.2,0.3-0.4,0.7-0.9,0.9
				c-0.5,0.4-1,0.5-1.5,0.5c-0.6,0-1.2-0.2-1.5-0.5s-0.5-0.7-0.5-1.2c0-0.2,0-0.4,0.1-0.7c0.1-0.3,0.1-0.5,0.1-0.6l0.8-0.2
				c0,0.5,0.1,0.9,0.3,1.1c0.2,0.2,0.6,0.3,1.1,0.3c0.3,0,0.6-0.2,1.1-0.7c0.3-0.5,0.6-1,0.6-1.4l0.5-0.1c0.2,0.5,0.3,0.7,0.4,0.8
				c0.2,0.2,0.6,0.3,1.2,0.3c0.4,0,0.8-0.2,1.1-0.7c0.2-0.3,0.3-0.7,0.4-1.1l0.5-0.1C342.1-368.9,342.1-368.7,342.1-368.4
				L342.1-368.4z"/>
			<path id="path4211" inkscape:connector-curvature="0" class="st1" d="M459.9-325.5l-2.3,0.5c0,0-0.3,2.1-0.2,2.3l0.6,2.3l1.8,3.7
				l0.5,2.9l-0.5,2l-6,4.9l-3.8,0.4l-0.8-0.8l0.5-3.7l1.9-2.6l-1.3-0.8l-2.5,2L447-310l-0.4,3.5l1.1,2c0,0,5.1,0.5,5.4,0.5
				s1.6-0.5,1.6-0.5l1.8-1.3l4.2-3.3l3.4,3.7l4.2,0.1l0.8-1l2.5-0.1l1.5,0.7l2.8,0.1l0.4-0.9l1.2,0.1l1.9,1.3l6.4-0.2l14.1-3.5
				l0.5-0.9l0.2-1l-8.2-0.7l-6.6-1.1l4.2-1.3l4.9-1.5l2.1-1.5l-0.8-1.9l-3.3-2.6l-2.5,0.6l-1.2,2.2l0.6,1.5l-2.8,1.1l-2.9,1.8
				l-3,2.1l2.9,1.7l2.7,0.4l2.4,0.3l-0.8,0.7l-3.8,1l-2.9,0.2l-3.1-1.5l-3-1.9c0,0-1.8-0.1-2.1-0.1c-0.3,0-2.5,0.5-2.5,0.5l-1.6,1.7
				l-2.6,1.1l-2.6-1.1l-1-3.2l-1-4.1l-1.6-6L459.9-325.5z M492.8-319.6c0.6,0,1.1,0.5,1.1,1s-0.4,1-1.1,1s-1.1-0.4-1.1-1
				S492.3-319.6,492.8-319.6z M474.5-308.5c0.3,0,0.6,0.3,0.6,0.6c0,0.3-0.3,0.5-0.6,0.5s-0.6-0.2-0.6-0.5S474.2-308.5,474.5-308.5z
				"/>
			<path id="path3850-4-1" inkscape:connector-curvature="0" class="st1" d="M399.4-373.6l-17.3,16c0,0-11-7-11.6-7.6l-2.7-3
				l-2.3-0.1l-1.7,2l15.4,10.7c-2.6,3.6-2.6,5.5-1.4,6.4c1.4,1,4.4,0.7,6.9,0c0.9-0.3,4.6-4.5-0.8-7c0,0,18.4-15,18.6-15.1
				C402.9-371.4,399.4-373.6,399.4-373.6z M382.5-353.6c0.5,0,1,0.2,1.2,0.4c0.5,0.6,0,1.4-1,1.9c-1.1,0.5-2.3,0.4-2.8-0.1
				c-0.5-0.6,0-1.4,1-1.9C381.5-353.5,382-353.6,382.5-353.6z"/>
			<path id="path4260" inkscape:connector-curvature="0" class="st1" d="M356-317c0.3,0.1,1.8,0.2,1.8,0.2l-0.1,2.7l0.1,3.7l2.3,2.4
				l2.3,0.3l2.7-0.7l3-1.9l2.1-1.8l1.6-1.1l1.5-0.5l-0.3-3.5l-1.3-7.7l-1.2-5.8l-0.3-3.5l1.1-1.1l1.3,0.7l2,4.9l0.6,9.4l0.5,6.4
				l-2.7,2.7c0,0-3.3,3-3.5,3.1s-3.5,2-3.5,2s-2.3,0.8-2.6,0.9c-0.3,0.1-3-0.1-3-0.1s-1.8-0.7-2-0.9c-0.2-0.1-2.7-2.1-2.7-2.1
				l-0.8-1.5l-0.2-5.2L356-317z"/>
			<path id="path4262" inkscape:connector-curvature="0" class="st1" d="M413.2-314.4c0.2,0,1.8-0.1,1.8,0c0,0.2-1.1,1.5-1.2,1.7
				c-0.2,0.2-1.6,3.3-1.6,3.4c0,0.2,0.9,2.4,0.9,2.4l1.5,0.1l2.5-1.9l2.9-2.5l3.1-2.8c0,0,2.3-1.4,2.5-1.4s3.5-0.3,3.5-0.3l3.4,0.2
				l0.8,3.4l-1.8,0.1c0,0-1.8-0.9-2-0.9s-3.5,0.1-3.5,0.1l-3,2.8l-5.1,4.3l-2.5,1.5c0,0-2.8-0.2-2.9-0.2c-0.2,0-1.9-2.2-1.9-2.2
				l-0.2-2.8l1.1-2.6L413.2-314.4z"/>
			<path id="path4264" inkscape:connector-curvature="0" class="st1" d="M408.4-316.6l-1.3,3.1h-0.8l-1-1.3l-1.4,0.9l-1.3,1.4
				l-2-0.8l-1.8-1.2l-1.1,0.2l-1.9,1.1l-2.6,0.7l-2.3-0.2l-1.5-1.1l-2.1-2l-2.3,0.2l-2.5,2.2l-0.1,1.5l2.1,1.8h3.7l-0.1,0.5
				l-3.5,3.5l-4.8,2.9l-4.4,2.1l-6.2,1.5l0.6,1.1c0,0,3.4-0.1,3.8-0.1c0.3,0,4-1,4-1l3.5-1.3l2.7-1.6c0,0,4.5-2.8,4.8-3
				s1.7-2.3,1.7-2.3l0.2-2.1h3.8l1.3-0.9l1.7-1.2l1.3,0.1l1.1,1.6l2,0.7l1.6-0.6l2-0.9l3.1-0.3l1.7-2.7v-2L408.4-316.6L408.4-316.6z
				 M386.1-313.9c0.4,0,0.9,0.4,0.9,0.8s-0.4,0.8-0.9,0.8c-0.4,0-0.9-0.4-0.9-0.8S385.7-313.9,386.1-313.9z"/>
		</g>
		<g>
			<path class="st1" d="M456.4,180.8c-2,0-3.9,0.4-4.2,0.8c-0.9,1.5-21.2-11.4-15-16c1-1.7,1.1-1.7,1.6,0.5c0.7,2.8,2.2,2.8,3.8-0.2
				c0.7-1.2,0.5-2.9-0.3-3.8c-0.9-1-1-2.7-0.3-3.9c1.6-2.9-0.5-4.8-3.4-2.9c-1.3,0.8-3.6,1.3-5.2,1s-3.6,0.4-4.5,1.5
				c-1.4,1.7-1.3,2,0.7,1.8c2.6-0.2,4.3,1.5,3.3,3.4c-1.5,2.7-6.7,0.4-20-9.1c-10-7.1-22-14.3-51.8-31.1C308.9,93.5,296,88,273,85.2
				c-6.6-0.8-15-1.1-18.8-0.6l-6.9,0.8l8.1,1.6c11.4,2.2,28.2,7.6,41.6,13.4c14.5,6.2,71.7,38.3,88.5,49.6
				c30.5,20.5,33.4,22.7,33.6,25.1c0.2,3.4-1.5,4.3-2.6,1.5c-0.5-1.3-1.4-2.3-1.9-2.2c-1.9,0.4-2.7,3.4-1.5,5.6
				c0.7,1.2,0.8,3.3,0.2,4.5c-0.6,1.2-0.9,2.6-0.7,3c0.5,1.2,4.8,0.5,5.6-0.9c0.4-0.7,1.6-0.7,2.7-0.1c1.1,0.6,3.1,0.4,4.4-0.4
				c2.8-1.7,2.6-3.4-0.3-3.1c-2.8,0.3-2.4-3.3,0.4-4.1c2.6-0.7,4.6,0.4,9.2,5.1c2,2,6.6,5.4,10.2,7.5c6.1,3.5,7,3.7,11,2.6
				c5.4-1.5,7.1-4.3,5.6-9.4C460.1,180.9,460,180.8,456.4,180.8z"/>
			<path class="st1" d="M263.8,184.8c-1.5,5.1,0.2,7.9,5.6,9.4c4,1.1,4.9,0.9,11-2.6c3.6-2.1,8.2-5.4,10.2-7.5
				c4.6-4.7,6.6-5.9,9.2-5.1c2.8,0.8,3.1,4.3,0.4,4.1c-2.9-0.3-3,1.4-0.3,3.1c1.3,0.8,3.3,1,4.4,0.4s2.3-0.6,2.7,0.1
				c0.8,1.4,5.1,2.1,5.6,0.9c0.2-0.4-0.2-1.8-0.7-3c-0.6-1.2-0.5-3.2,0.2-4.5c1.3-2.2,0.4-5.3-1.5-5.6c-0.5-0.1-1.4,0.9-1.9,2.2
				c-1.1,2.9-2.8,1.9-2.6-1.5c0.1-2.5,3-4.6,33.6-25.1c16.8-11.3,74-43.3,88.5-49.6c13.4-5.8,30.2-11.2,41.6-13.4l8.1-1.6l-6.9-0.8
				c-3.8-0.5-12.2-0.2-18.8,0.6c-23,2.8-35.9,8.3-88.1,37.6c-29.8,16.7-41.9,24-51.8,31.1c-13.3,9.5-18.4,11.8-20,9.1
				c-1-1.8,0.7-3.6,3.3-3.4c2,0.2,2.1-0.1,0.7-1.8c-0.9-1.1-2.9-1.8-4.5-1.5s-3.9-0.2-5.2-1c-2.9-1.8-5,0-3.4,2.9
				c0.7,1.2,0.6,2.9-0.3,3.9c-0.8,0.9-1,2.7-0.3,3.8c1.6,2.9,3.1,3,3.8,0.2c0.5-2.2,0.6-2.2,1.6-0.5c3.6,5-14.2,17.5-15,16
				c-0.3-0.5-2.2-0.9-4.2-0.8C265,180.8,264.9,180.9,263.8,184.8z"/>
		</g>
	</g>
</g>
</svg>
