<svg height="600" width="900" xmlns="http://www.w3.org/2000/svg" xmlns:xlink="http://www.w3.org/1999/xlink"><path d="m0 0h900v600h-900z" fill="#ce1126"/><path d="m0 200h900v400h-900z" fill="#fff"/><path d="m0 400h900v200h-900z"/><g fill="#007a3d"><path id="a" d="m0-1 .58778525 1.80901699-1.53884177-1.11803398h1.90211304l-1.53884177 1.11803398z" fill="#007a3d" transform="matrix(60 0 0 60 200 300)"/><g fill="#007a3d"><use x="250" xlink:href="#a"/><use x="500" xlink:href="#a"/><g transform="scale(2)"><path d="m138.08604 170.79597-1.65175-1.66677 1.66652-1.65195 1.66653-1.65194 1.65237 1.66677 1.65173 1.66675-1.66653 1.65194-1.66714 1.65195zm-11.34042-.83665c-.59454-.21756-1.55811-.93176-2.19021-1.62304-1.19091-1.30314-1.46199-1.91157-.66168-1.48303 1.19337.63862 3.55607 1.05442 4.39704.77367 3.10203-1.03603 3.80745-5.17643 1.32952-7.80358-.48608-.51542-.88409-1.11452-.88409-1.33133 0-.21683.51691-.62271 1.14841-.90198.88409-.39119 1.31597-.81732 1.88154-1.85617.57421-1.05558.81017-1.28501 1.08556-1.05643.3943.32697 1.72505 3.50318 1.72505 4.11665 0 .32389.48055.39539 2.65783.39539h2.65781l-.41523-.99547c-.22857-.54749-.60378-1.28414-.83482-1.63697-.37396-.57162-.37581-.67284-.01725-.92908.22119-.15817.95741-.67605 1.63636-1.15086.67831-.47479 1.31165-1.07206 1.40653-1.32726.23534-.63157 1.70472-2.45491 1.97827-2.45491.12137 0 .22119 1.91126.22119 4.24728v4.24727h16.59075 16.59076v-6.08381-6.0838l-.9229-.57055-.92353-.57059-.93461.71316-.93523.71314v4.34851 4.34848h-13.93602c-7.66541 0-13.93663-.04788-13.93663-.10639 0-.09302 6.93473-9.45871 7.78311-10.51178.17619-.219.61178-.81629.96787-1.32728.3561-.51101.71838-.98882.80523-1.06183.08747-.07299.44727-.55081.80092-1.06179.35301-.51102.76519-1.06868.91613-1.23924.15095-.17057 2.66337-3.53799 5.58304-7.48316 2.92027-3.94518 5.39636-7.18021 5.50355-7.18897.10658-.00876.25875.31257.33761.71406.43804 2.22185.77443 3.46659 1.12068 4.14979.44421.87525.18361 1.20158-.98883 1.23838-.55571.01743-1.83349 1.58678-7.83115 9.61472-3.94177 5.27663-7.20705 9.68891-7.25571 9.80506-.04869.11613 3.50493.21116 7.89706.21116h7.98579l.00433-2.85364c.00246-1.5695.09178-2.97722.19898-3.12826.50151-.70589 5.78081-4.39501 6.14922-4.2972.22918.06075 1.64129 1.04263 3.13777 2.18194l2.72067 2.07145v8.85287 8.85285h-23.05481-23.05541l-.4633 1.71227c-.55572 2.05219-1.46507 3.5316-2.68556 4.36774-1.149.78723-3.75385 1.00512-5.29161.44256zm57.47096-20.30493c0-9.63725.08687-13.84728.28833-13.97176.15834-.09798.84528.40618 1.52607 1.1204.68139.7142 1.89509 1.86102 2.69847 2.54847 1.26794 1.08591 1.40039 1.28591 1.00854 1.52434-1.30734.7944-1.27406.54447-1.27406 9.70531v8.60832h2.54077c2.25612 0 2.6726-.0772 3.71626-.68887 1.29503-.75887 1.38128-.65884.74054.85555-.23965.56531-.50828 1.68485-.59761 2.48786l-.16204 1.46001-5.24294.07197-5.24233.07198zm3.59922-16.35519c-.60439-.45695-1.82055-.50792-2.5685-.10761-.29017.15517-.78984.24086-1.11081.19043-.54647-.08587-.52183-.14995.39245-1.01316.96234-.90838.97156-.93767.67215-2.05995-.38874-1.45524-.06715-2.01664 1.2174-2.12639.68448-.05853 1.10712.07234 1.49895.46455.60378.60367.64506.77575.31052 1.30343-.17189.27115-.35733.28971-.75717.0757-.60563-.32409-.865-.16176-.865.54129 0 .32965.47685.72347 1.45952 1.20562.80339.39382 1.46015.80207 1.46015.90724 0 .24681-.77937 1.02805-1.0141 1.01704-.09919-.00465-.41216-.18383-.69556-.39819z"/><path d="m267.98526 159.93797c.13912-3.88103.54006-5.19737 1.96388-6.44751 1.09649-.96272 2.66441-1.41824 4.47915-1.30135l1.35932.0876.08158-1.58777c.10337-2.01212-.07925-2.7302-.74839-2.94259-.80352-.25501-.63941-1.08872.33372-1.69548.47631-.29698 1.64204-1.32605 2.59046-2.28681.94844-.96073 1.81781-1.7468 1.93198-1.7468.11416 0 .20756 3.8373.20756 8.52733v8.52734h1.86534 1.86537v-8.77477c0-7.62178-.05503-8.82982-.41874-9.19354-.23033-.23032-.53012-.41875-.66621-.41875-.59794 0-.17532-1.06742.61861-1.56245.47632-.29699 1.63632-1.32027 2.57776-2.27398.94143-.95368 1.81082-1.67272 1.93197-1.59784s.22026 5.46531.22026 11.97873v11.8426h1.86536 1.86536v-12.12657-12.12655l-.6662-.57926c-.36642-.31859-.6662-.72399-.6662-.9009 0-.1769.82885-.99131 1.84189-1.80981 1.01302-.8185 2.10044-1.8513 2.41647-2.2951 1.36058-1.91078 1.3377-2.19541 1.3377 16.64748v17.45437h-14.1549-14.1549zm7.93559-2.59816v-1.73212h-1.04541c-1.40351 0-2.6853 1.21818-2.6853 2.55206v.91218h1.86537 1.86534zm23.18368-7.83978c0-9.67441.08721-13.9007.28939-14.02565.15916-.09838.84867.40774 1.53225 1.12471.68358.71696 1.9024 1.86819 2.70851 2.5583 1.27334 1.09011 1.40617 1.29088 1.01245 1.53022-1.31187.79749-1.27894.54659-1.27894 9.74279v8.64153h2.60294c2.36119 0 2.69722-.06408 3.61819-.68989.55838-.37943 1.0809-.62425 1.16113-.54402.08023.08024-.06429.66049-.32117 1.28947-.25685.62897-.54167 1.80311-.63292 2.60922l-.1659 1.46564-5.26297.07224-5.26296.07226zm-20.97348-14.49812c-.46988-.17206-1.0095-.47674-1.19916-.67706-.29006-.30638-.14578-.33583.90833-.18542 1.89447.27032 3.05464-.05122 4.1116-1.13953l.9288-.95635 1.29058.45838c.70983.25212 1.45226.39632 1.64983.32045.51218-.19663 1.43983-1.6677 1.34689-2.13585-.11334-.57082.41105-.48443.73512.1211.63561 1.18765.10482 2.69533-1.11041 3.15402-.59475.2245-1.16992.23108-2.13344.02445-1.18354-.25382-1.37865-.22719-1.89762.25891-1.16354 1.08983-2.9319 1.37891-4.63052.7569zm24.58665-1.92018c-.6065-.4587-1.82766-.50985-2.57853-.10802-.29105.15577-.79279.24179-1.11502.19117-.54876-.08621-.52384-.15052.39396-1.01706.96585-.91189.97544-.94128.67473-2.06792-.38993-1.46083-.06731-2.02439 1.22195-2.1346.68749-.05875 1.11156.07263 1.50526.46636.60603.606.64714.77875.31146 1.30846-.17248.2722-.35889.29083-.76031.07598-.60794-.32535-.86836-.16238-.86836.54339 0 .33092.47877.72624 1.46564 1.21025.80609.39535 1.46563.8052 1.46563.91075 0 .24778-.78223 1.03204-1.01832 1.02097-.09946-.00467-.41362-.18453-.69809-.39973zm-21.36047-2.47404c-.64242-.43778-1.99649-2.68323-2.04846-3.39694-.04458-.61244.06365-.79927.49935-.86172.76187-.10923 1.1141.39794 1.70054 2.44863.47871 1.674.43396 2.20896-.15143 1.81003z"/></g></g></g></svg>