<?xml version="1.0" encoding="UTF-8" standalone="no"?>
<!-- Created with Inkscape (http://www.inkscape.org/) -->

<svg
   xmlns:dc="http://purl.org/dc/elements/1.1/"
   xmlns:cc="http://creativecommons.org/ns#"
   xmlns:rdf="http://www.w3.org/1999/02/22-rdf-syntax-ns#"
   xmlns:svg="http://www.w3.org/2000/svg"
   xmlns="http://www.w3.org/2000/svg"
   xmlns:sodipodi="http://sodipodi.sourceforge.net/DTD/sodipodi-0.dtd"
   xmlns:inkscape="http://www.inkscape.org/namespaces/inkscape"
   id="svg2816"
   version="1.1"
   inkscape:version="0.47 r22583"
   width="340"
   height="227"
   sodipodi:docname="Flag of the First East Turkestan Republic.svg">
  <metadata
     id="metadata2822">
    <rdf:RDF>
      <cc:Work
         rdf:about="">
        <dc:format>image/svg+xml</dc:format>
        <dc:type
           rdf:resource="http://purl.org/dc/dcmitype/StillImage" />
        <dc:title></dc:title>
      </cc:Work>
    </rdf:RDF>
  </metadata>
  <defs
     id="defs2820">
    <inkscape:perspective
       sodipodi:type="inkscape:persp3d"
       inkscape:vp_x="0 : 0.5 : 1"
       inkscape:vp_y="0 : 1000 : 0"
       inkscape:vp_z="1 : 0.5 : 1"
       inkscape:persp3d-origin="0.5 : 0.33333333 : 1"
       id="perspective2824" />
    <inkscape:perspective
       id="perspective2868"
       inkscape:persp3d-origin="0.5 : 0.33333333 : 1"
       inkscape:vp_z="1 : 0.5 : 1"
       inkscape:vp_y="0 : 1000 : 0"
       inkscape:vp_x="0 : 0.5 : 1"
       sodipodi:type="inkscape:persp3d" />
  </defs>
  <sodipodi:namedview
     pagecolor="#ffffff"
     bordercolor="#666666"
     borderopacity="1"
     objecttolerance="10"
     gridtolerance="10"
     guidetolerance="10"
     inkscape:pageopacity="0"
     inkscape:pageshadow="2"
     inkscape:window-width="1024"
     inkscape:window-height="540"
     id="namedview2818"
     showgrid="false"
     inkscape:zoom="0.90958229"
     inkscape:cx="170"
     inkscape:cy="83.073958"
     inkscape:window-x="0"
     inkscape:window-y="0"
     inkscape:window-maximized="1"
     inkscape:current-layer="svg2816"
     showguides="true"
     inkscape:guide-bbox="true" />
  <rect
     style="opacity:1;fill:#ffffff;fill-opacity:1;stroke:none;stroke-opacity:1"
     id="rect3786"
     width="349.61102"
     height="235.27283"
     x="-4.3976231"
     y="-2.7758014" />
  <g
     id="g3745"
     style="stroke:#0084ff;stroke-opacity:1;fill:none;fill-opacity:1">
    <path
       sodipodi:nodetypes="ccccc"
       id="path2828"
       d="m 304.7031,143.00261 -4.08085,-3.74078 c -1.37524,-0.33046 -1.70035,3.33312 -1.70035,5.44113 l -0.34007,36.7276 c -0.0688,23.44208 -18.62904,28.24927 -37.40775,32.64676"
       style="fill:none;stroke:#0084ff;stroke-width:4;stroke-linecap:round;stroke-linejoin:round;stroke-opacity:1;stroke-miterlimit:4;stroke-dasharray:none;fill-opacity:1" />
    <path
       sodipodi:nodetypes="ccc"
       id="path2830"
       d="m 287.35951,138.58169 c -0.93491,-1.10663 -1.84395,-0.64226 -1.70035,0.85018 -1.1879,18.47716 0.64854,52.93677 -1.02022,54.5813"
       style="fill:none;stroke:#0084ff;stroke-width:4;stroke-linecap:round;stroke-linejoin:round;stroke-opacity:1;stroke-miterlimit:4;stroke-dasharray:none;fill-opacity:1" />
    <path
       id="path2832"
       d="m 291.10028,161.70648 0.68014,0.68014 -0.34007,5.44113"
       style="fill:none;stroke:#0084ff;stroke-width:4;stroke-linecap:round;stroke-linejoin:round;stroke-opacity:1;stroke-miterlimit:4;stroke-dasharray:none;fill-opacity:1" />
    <path
       sodipodi:nodetypes="cccccc"
       id="path2834"
       d="m 272.39641,137.90155 -0.68014,47.94993 c -0.98533,8.15843 -2.12133,16.14735 -10.20212,16.32338 -7.48764,0.45343 -9.32782,-4.53428 -16.32338,-4.76099 -8.53445,0.11792 -12.76332,9.74839 -20.40422,9.86205 -4.52318,-0.13554 -8.50771,-3.04873 -10.54218,-8.50177"
       style="fill:none;stroke:#0084ff;stroke-width:4;stroke-linecap:round;stroke-linejoin:round;stroke-opacity:1;stroke-miterlimit:4;stroke-dasharray:none;fill-opacity:1" />
    <path
       sodipodi:nodetypes="ccc"
       id="path2836"
       d="m 291.68538,177.94492 c -12.77791,-8.99115 -21.98731,-20.06953 -32.70339,-29.57734 -2.64513,-2.24248 -5.29025,-3.70194 -7.93538,-5.04978"
       style="fill:none;stroke:#0084ff;stroke-width:4;stroke-linecap:round;stroke-linejoin:round;stroke-opacity:1;stroke-miterlimit:4;stroke-dasharray:none;fill-opacity:1" />
    <path
       id="path2838"
       d="m 258.98199,207.52225 -5.77118,3.84745"
       style="fill:none;stroke:#0084ff;stroke-width:4;stroke-linecap:round;stroke-linejoin:round;stroke-opacity:1;stroke-miterlimit:4;stroke-dasharray:none;fill-opacity:1" />
    <path
       id="path2840"
       d="m 241.42797,204.15572 -0.7214,5.53072"
       style="fill:none;stroke:#0084ff;stroke-width:4;stroke-linecap:round;stroke-linejoin:round;stroke-opacity:1;stroke-miterlimit:4;stroke-dasharray:none;fill-opacity:1" />
    <path
       sodipodi:nodetypes="ccccc"
       id="path2842"
       d="m 258.74153,185.8803 c -4.67211,-5.47366 -6.71063,-6.87094 -6.97352,-10.09958 0.34723,-2.28459 1.75029,-2.98543 3.36652,-3.36653 1.70533,0.37872 2.60327,2.04575 2.40467,4.32839 0.37084,2.1869 -3.15304,3.35285 -9.37818,8.41632"
       style="fill:none;stroke:#0084ff;stroke-width:4;stroke-linecap:round;stroke-linejoin:round;stroke-opacity:1;stroke-miterlimit:4;stroke-dasharray:none;fill-opacity:1" />
    <path
       sodipodi:nodetypes="cccc"
       id="path2844"
       d="m 231.32839,141.875 c 3.23141,2.10236 5.42409,4.71127 6.73305,7.45445 0.56109,4.72916 -0.32062,24.36723 -0.24047,36.31038 l -0.48093,2.88559"
       style="fill:none;stroke:#0084ff;stroke-width:4;stroke-linecap:round;stroke-linejoin:miter;stroke-opacity:1;stroke-miterlimit:4;stroke-dasharray:none;fill-opacity:1" />
    <path
       sodipodi:nodetypes="cccccc"
       id="path2846"
       d="m 290.96398,156.30297 c -28.30385,3.81143 -79.7213,18.08795 -81.03707,26.9322 0.20621,2.44357 1.48668,5.15323 3.60699,5.29025 4.64276,0.46219 7.68396,-0.5138 8.17585,-3.60699 1.59034,-7.84942 -10.03371,-16.70954 -19.23729,-24.04661 -6.99569,-3.03204 -9.98381,-8.20812 -10.09958,-11.3019"
       style="fill:none;stroke:#0084ff;stroke-width:4;stroke-linecap:round;stroke-linejoin:round;stroke-opacity:1;stroke-miterlimit:4;stroke-dasharray:none;fill-opacity:1" />
    <path
       sodipodi:nodetypes="cc"
       id="path2848"
       d="m 215.45763,142.11547 c 1.9365,2.31717 4.55972,2.80309 8.41631,0"
       style="fill:none;stroke:#0084ff;stroke-width:4;stroke-linecap:round;stroke-linejoin:miter;stroke-opacity:1;stroke-miterlimit:4;stroke-dasharray:none;fill-opacity:1" />
    <path
       sodipodi:nodetypes="cc"
       id="path2850"
       d="m 215.21716,152.69597 c 2.72528,-0.65885 5.45057,-1.35681 8.17585,-2.64512"
       style="fill:none;stroke:#0084ff;stroke-width:4;stroke-linecap:round;stroke-linejoin:miter;stroke-opacity:1;stroke-miterlimit:4;stroke-dasharray:none;fill-opacity:1" />
    <path
       sodipodi:nodetypes="ccc"
       id="path2852"
       d="m 226.2786,156.54343 c -1.82412,6.72347 -5.89997,0.35636 -6.73305,0.48093 -1.22017,0.16967 -2.38312,6.21131 -5.04979,1.4428"
       style="fill:none;stroke:#0084ff;stroke-width:4;stroke-linecap:round;stroke-linejoin:round;stroke-opacity:1;stroke-miterlimit:4;stroke-dasharray:none;fill-opacity:1" />
    <path
       id="path2854"
       d="m 225.31674,166.40254 -5.53072,1.4428"
       style="fill:none;stroke:#0084ff;stroke-width:4;stroke-linecap:round;stroke-linejoin:miter;stroke-opacity:1;stroke-miterlimit:4;stroke-dasharray:none;fill-opacity:1" />
    <path
       sodipodi:nodetypes="ccc"
       id="path2856"
       d="m 208.00318,143.07733 -2.40466,-0.96186 c -2.48063,0.60176 -1.14818,8.62354 -2.64513,44.48622"
       style="fill:none;stroke:#0084ff;stroke-width:4;stroke-linecap:round;stroke-linejoin:round;stroke-opacity:1;stroke-miterlimit:4;stroke-dasharray:none;fill-opacity:1" />
    <path
       id="path2858"
       d="m 193.57521,141.63453 -0.48093,2.1642"
       style="fill:none;stroke:#0084ff;stroke-width:4;stroke-linecap:round;stroke-linejoin:miter;stroke-opacity:1;stroke-miterlimit:4;stroke-dasharray:none;fill-opacity:1" />
    <path
       sodipodi:nodetypes="ccccc"
       id="path2842-1"
       d="m 196.46081,185.39937 c -4.67211,-5.47366 -6.71063,-6.87094 -6.97352,-10.09958 0.34723,-2.28459 1.75029,-2.98543 3.36652,-3.36653 1.70533,0.37872 2.60327,2.04575 2.40467,4.32839 0.37084,2.1869 -3.15304,3.35285 -9.37818,8.41632"
       style="fill:none;stroke:#0084ff;stroke-width:4;stroke-linecap:round;stroke-linejoin:miter;stroke-opacity:1;stroke-miterlimit:4;stroke-dasharray:none;fill-opacity:1" />
    <path
       sodipodi:nodetypes="ccc"
       id="path2882"
       d="m 196.94174,204.15572 c -5.63276,11.24804 -15.14663,10.34679 -14.42797,-1.20233 2.50953,-3.48723 -0.7371,-2.86293 -2.40466,-3.36653"
       style="fill:none;stroke:#0084ff;stroke-width:4;stroke-linecap:round;stroke-linejoin:round;stroke-opacity:1;stroke-miterlimit:4;stroke-dasharray:none;fill-opacity:1" />
    <path
       sodipodi:nodetypes="ccccccc"
       id="path2884"
       d="m 176.50212,184.67797 c -3.93444,-3.55481 -7.8501,-7.55372 -7.69492,-10.82098 -0.67341,-2.59714 1.24811,-4.52308 4.08793,-4.56885 2.51503,0.53087 4.36447,1.72734 4.32839,4.80932 -0.0617,3.94392 -13.66061,10.36713 -22.36335,14.66843 7.55341,3.39027 17.06636,4.74938 20.43962,5.29025 -6.00438,1.50108 -11.30596,3.4707 -15.38983,6.25212"
       style="fill:none;stroke:#0084ff;stroke-width:4;stroke-linecap:round;stroke-linejoin:round;stroke-opacity:1;stroke-miterlimit:4;stroke-dasharray:none;fill-opacity:1" />
    <path
       sodipodi:nodetypes="ccccc"
       id="path2886"
       d="m 185.63983,148.12712 c -1.02358,-1.65844 -2.67965,-1.41937 -4.32839,-1.20233 0.57093,16.68566 -12.2877,20.13215 -9.85911,0 0.28106,25.52169 -24.4864,19.50742 -21.64195,-2.40466 2.08225,11.6906 -17.47491,34.73821 -25.97034,8.89724"
       style="fill:none;stroke:#0084ff;stroke-width:4;stroke-linecap:round;stroke-linejoin:round;stroke-opacity:1;stroke-miterlimit:4;stroke-dasharray:none;fill-opacity:1" />
    <path
       sodipodi:nodetypes="ccccc"
       id="path2888"
       d="m 159.42903,153.17691 c -11.04413,5.44642 -28.47228,-2.6428 -29.0964,-7.21399 0,-2.00389 1.76342,-3.0459 3.12606,-3.12606 1.16957,0.22583 2.34166,0.44663 2.88559,1.92373 0.47646,4.7247 -8.64915,11.87063 -17.79449,15.87077"
       style="fill:none;stroke:#0084ff;stroke-width:4;stroke-linecap:round;stroke-linejoin:round;stroke-opacity:1;stroke-miterlimit:4;stroke-dasharray:none;fill-opacity:1" />
    <path
       sodipodi:nodetypes="ccc"
       id="path2890"
       d="m 162.07415,136.58475 c -1.27677,1.52867 -2.39325,3.21762 -5.53072,2.88559 1.1742,2.16419 2.29619,4.32839 0.96187,6.49258"
       style="fill:none;stroke:#0084ff;stroke-width:4;stroke-linecap:round;stroke-linejoin:round;stroke-opacity:1;stroke-miterlimit:4;stroke-dasharray:none;fill-opacity:1" />
    <path
       sodipodi:nodetypes="ccccc"
       id="path2892"
       d="m 112.53814,152.93644 c -3.65769,-2.41939 -8.49341,-6.89489 -7.69492,-9.61864 0.73535,-1.34869 1.5156,-3.61435 3.36653,-2.8856 2.15573,0.48094 3.20974,1.68326 2.64512,2.8856 -0.5555,2.50159 -5.05542,5.43368 -11.301904,7.45445"
       style="fill:none;stroke:#0084ff;stroke-width:4;stroke-linecap:round;stroke-linejoin:round;stroke-opacity:1;stroke-miterlimit:4;stroke-dasharray:none;fill-opacity:1" />
    <path
       sodipodi:nodetypes="ccc"
       id="path2894"
       d="m 160.87182,169.28814 c 0.79754,5.67094 -4.73365,6.87096 -6.01165,0.24046 1.04202,7.0842 -5.61088,6.16802 -5.53072,2.1642"
       style="fill:none;stroke:#0084ff;stroke-width:4;stroke-linecap:round;stroke-linejoin:round;stroke-opacity:1;stroke-miterlimit:4;stroke-dasharray:none;fill-opacity:1" />
    <path
       sodipodi:nodetypes="cc"
       id="path2896"
       d="m 149.32945,211.61017 c -1.65288,-1.02264 -2.56473,-3.52732 -3.60699,-5.77119"
       style="fill:none;stroke:#0084ff;stroke-width:4;stroke-linecap:round;stroke-linejoin:round;stroke-opacity:1;stroke-miterlimit:4;stroke-dasharray:none;fill-opacity:1" />
    <path
       sodipodi:nodetypes="cccc"
       id="path3688"
       d="m 164.95975,213.29343 c -17.88851,-6.57703 -20.06627,-24.86742 -23.32522,-41.1197 2.28137,7.5346 4.65134,15.06921 5.53072,22.60381 -9.42961,13.88116 -22.19899,25.38202 -36.31038,0.48093"
       style="fill:none;stroke:#0084ff;stroke-width:4;stroke-linecap:round;stroke-linejoin:round;stroke-opacity:1;stroke-miterlimit:4;stroke-dasharray:none;fill-opacity:1" />
    <path
       sodipodi:nodetypes="cc"
       id="path3690"
       d="m 125.52331,181.07097 c 11.5404,10.38509 -2.13872,16.87228 -21.40149,29.57734"
       style="fill:none;stroke:#0084ff;stroke-width:4;stroke-linecap:round;stroke-linejoin:round;stroke-opacity:1;stroke-miterlimit:4;stroke-dasharray:none;fill-opacity:1" />
    <path
       sodipodi:nodetypes="cc"
       id="path3692"
       d="m 106.28602,198.38453 c 3.44308,-1.85078 6.57633,-4.32122 9.37818,-7.45445"
       style="fill:none;stroke:#0084ff;stroke-width:4;stroke-linecap:round;stroke-linejoin:round;stroke-opacity:1;stroke-miterlimit:4;stroke-dasharray:none;fill-opacity:1" />
    <path
       id="path3694"
       d="m 106.28602,171.45233 -9.859113,-0.7214"
       style="fill:none;stroke:#0084ff;stroke-width:4;stroke-linecap:round;stroke-linejoin:round;stroke-opacity:1;stroke-miterlimit:4;stroke-dasharray:none;fill-opacity:1" />
    <path
       sodipodi:nodetypes="cccccccc"
       id="path3696"
       d="m 112.7786,181.79237 c -6.79112,7.51822 -15.17114,13.07923 -19.958685,9.13771 -11.301141,8.32726 -20.396024,7.92533 -17.073093,0 -5.907227,7.73813 -11.749035,0.76442 -11.542373,-2.16419 -0.285401,-1.44765 1.408364,-2.59941 3.12606,-2.64513 1.498675,-0.35222 3.129284,0.71495 3.126059,2.1642 -12.007395,15.83943 -45.232475,20.46615 -29.336865,-11.06144 l -9.85911,4.08792"
       style="fill:none;stroke:#0084ff;stroke-width:4;stroke-linecap:round;stroke-linejoin:round;stroke-opacity:1;stroke-miterlimit:4;stroke-dasharray:none;fill-opacity:1" />
    <path
       sodipodi:nodetypes="cccc"
       id="path3698"
       d="m 90.896187,151.25318 c -2.467108,-0.68598 -4.102956,0.29055 -5.290255,2.16419 L 85.125,190.20869 c -0.170873,13.3766 -22.596942,34.61463 -38.23411,6.49258"
       style="fill:none;stroke:#0084ff;stroke-width:4;stroke-linecap:round;stroke-linejoin:round;stroke-opacity:1;stroke-miterlimit:4;stroke-dasharray:none;fill-opacity:1" />
    <path
       id="path3700"
       d="m 63.242585,142.5964 -4.809322,37.51271"
       style="fill:none;stroke:#0084ff;stroke-width:4;stroke-linecap:round;stroke-linejoin:round;stroke-opacity:1;stroke-miterlimit:4;stroke-dasharray:none;fill-opacity:1" />
    <path
       sodipodi:nodetypes="cc"
       id="path3702"
       d="m 54.345339,136.34428 c -2.602869,5.80758 -5.734199,7.6517 -9.618644,3.84746"
       style="fill:none;stroke:#0084ff;stroke-width:4;stroke-linecap:round;stroke-linejoin:round;stroke-opacity:1;stroke-miterlimit:4;stroke-dasharray:none;fill-opacity:1" />
    <path
       sodipodi:nodetypes="cccc"
       id="path3704"
       d="m 79.113348,150.05085 c -0.581643,9.93877 -7.991554,13.91753 -9.859111,1.44279 -1.751835,11.751 -20.260487,13.72498 -21.401483,-0.48093 l -5.290254,8.65678"
       style="fill:none;stroke:#0084ff;stroke-width:4;stroke-linecap:round;stroke-linejoin:round;stroke-opacity:1;stroke-miterlimit:4;stroke-dasharray:none;fill-opacity:1" />
    <path
       id="path3706"
       d="m 68.773305,200.78919 -5.771186,2.40467"
       style="fill:none;stroke:#0084ff;stroke-width:4;stroke-linecap:round;stroke-linejoin:round;stroke-opacity:1;stroke-miterlimit:4;stroke-dasharray:none;fill-opacity:1" />
  </g>
  <path
     sodipodi:type="star"
     style="fill:#0084ff;stroke:none;stroke-opacity:1;fill-opacity:1"
     id="path3782"
     sodipodi:sides="5"
     sodipodi:cx="57.811974"
     sodipodi:cy="66.486763"
     sodipodi:r1="17.486366"
     sodipodi:r2="6.9739525"
     sodipodi:arg1="1.3352513"
     sodipodi:arg2="1.9598915"
     inkscape:flatsided="false"
     inkscape:rounded="0"
     inkscape:randomized="0"
     d="m 61.892819,83.490283 -6.726424,-10.550852 -12.26468,2.682824 7.955878,-9.657602 -6.341511,-10.835366 11.643426,4.582126 8.345411,-9.379448 -0.759844,12.489512 11.499258,5.038548 -12.113036,3.136817 -1.238478,12.493441 z"
     transform="matrix(1.2110639,-0.1038248,0.1038248,1.2110639,62.19151,-32.442983)" />
  <path
     style="fill:#0084ff;stroke:none;stroke-width:2.10000000000000010;stroke-linecap:round;stroke-linejoin:bevel;stroke-opacity:1;fill-opacity:1;stroke-miterlimit:4;stroke-dasharray:none"
     d="m 113.58352,77.709084 c 15.7436,51.508486 71.09382,51.741756 94.80646,25.036656 21.83419,-24.589588 19.81928,-77.147623 -30.19308,-90.330177 31.0203,21.950551 30.2725,53.964595 12.30216,74.684785 -17.59924,20.292312 -61.52986,21.716832 -76.91554,-9.391264 z"
     id="path3784"
     sodipodi:nodetypes="cscsc" />
</svg>
