<svg xmlns="http://www.w3.org/2000/svg" width="492" height="492" viewBox="0 0 492 492"><defs><style>.cls-1{fill:#aa0f0f;}</style></defs><g id="Layer_2" data-name="Layer 2"><g id="Layer_1-2" data-name="Layer 1"><path class="cls-1" d="M167.3435,388.5667c-.2619-7.8958-.5094-14.7345-.7434-20.5715q-.0233-19.9218-1.2123-57.0705-1.0635-32.065-1.8208-41.5423-.7614-12.3872-7.359-18.5846-6.6-6.1936-19.4974-7.5068a294.312,294.312,0,0,0-30.65-1.3119q-.4553-10.2007-4.8554-10.2033-4.403,0-4.8554,10.2033-17.9057,0-30.9532,1.3119Q52.3454,244.6029,45.9,250.7249q-6.4512,6.122-7.0555,18.5118-2.187,39.78-2.8315,95.0487-1.5481,35.742-2.0331,82.1489-.1531,10.7851,4.5519,10.7864,4.5519,0,5.1588-10.7864.6044-13.85,1.3656-48.9761.37-19.195.97-33.2418l-.1721,0q.5348-14.482,1.1835-44.4.6042-31.3377,1.8207-48.9762.4553-8.5987,4.4-12.9729t12.7454-5.3932a303.64,303.64,0,0,1,35.6568-1.7491q11.9841,0,20.6354.583c.0352.0022,4.1216.2774,4.4.2915q4.8542.2942,9.1039.8746,8.7977,1.1687,13.0489,5.539,4.2458,4.373,4.8554,12.9728,1.6677,18.66,2.1242,48.9762.6042,38.7753,1.0622,48.83.0572,1.3563.1817,2.5415.494,11.81.7118,26.27.6043,38.7753,1.0621,48.83.4553,10.7851,5.1589,10.7864,3.3354,0,4.2484-5.1016a39.2034,39.2034,0,0,0,.3035-5.6848Q168.5573,426.4662,167.3435,388.5667Z"/><path class="cls-1" d="M298.1465,241.1527q-23.5954-1.3376-55.2528-1.3375-31.6607,0-54.8595,1.3375-16.1245.8917-16.1236,5.7958,0,4.0125,11.4045,4.0125,9.6313,0,29.5927-.743,19.9545-.7419,29.9859-.7431,10.0281,0,30.0843.7431,20.0562.7455,29.8876.743a35.3374,35.3374,0,0,0,6.2922-.4458q5.1114-.8917,5.1123-3.5667Q314.27,242.0444,298.1465,241.1527Z"/><path class="cls-1" d="M144.937,365.553q-.2256-5.7169-.2255-8.3766,0-20.02-15.3345-21.6567a290.9352,290.9352,0,0,0-30.8194-1.6345,183.1556,183.1556,0,0,0-26.46,1.6345q-13.6819,1.8389-13.6807,20.0223,0,3.0645-.15,8.8874t-.15,8.6831q0,25.949,3.7585,31.872,4.0266,6.2613,20.7415,6.8952-2.8884,16.7967-5.8767,34.777-2.4445,14.4738,2.1789,15.21,4.4731.71,7.3639-13.6947,2.31-12.0846,6.6163-36.3656c.4838-.026.9739-.0475,1.4492-.0793h15.3345c.64-.0025,1.29-.0135,1.9416-.0249q6.528,27.27,8.8907,36.3478,3.5808,13.8872,8.079,12.8739,3.19-.72,2.5747-7.5322a70.4636,70.4636,0,0,0-1.3679-7.437q-3.1421-13.97-8.1518-34.6578,15.8947-.3276,19.755-6.7206,3.7559-5.717,3.7584-30.4419Q145.1624,371.2755,144.937,365.553Zm-18.2662,33.098q-4.2107,0-12.6283-.577-8.4218-.5745-12.4781-.577-4.51,0-13.305.577-8.7948.582-13.3049.577-5.4121,0-6.6149-10.0973a332.026,332.026,0,0,1,33.6758-1.731,317.5314,317.5314,0,0,1,33.0744,1.731Q134.3355,398.656,126.6708,398.651ZM134.94,378.22q-16.54-1.459-32.9241-1.4591-16.6875,0-33.5254,1.4591v-9.4846q16.8351-1.4592,33.5254-1.4591,16.5358,0,33.0744,1.4591ZM102.0154,356.793q-16.6875,0-33.5254,1.4184v-.7092q-.1518-8.2714,10.0726-8.9827,11.4231-.9414,25.8582-.9456a169.7966,169.7966,0,0,1,20.1453.9456q10.3734,1.1861,10.5237,9.6919Q118.55,356.793,102.0154,356.793Z"/><path class="cls-1" d="M68.7407,322.9231a57.544,57.544,0,0,1,7.0458-.63,59.3626,59.3626,0,0,1,7.12.63,59.2831,59.2831,0,0,0,7.12.6306q8.01,0,8.01-6.0955,0-7.7733-16.91-9.038v-8.6178q15.575,1.4731,15.575-5.8852,0-8.1974-15.575-8.1973v-9.0381q5.9307.424,8.01.42,8.9,0,8.9-6.0954,0-7.7733-21.0633-7.777-23.14,0-23.14,8.4076,0,5.6749,8.6033,5.675,2.3708,0,9.0483-.63V285.72q-16.3192,0-16.3166,8.4075,0,5.887,9.79,5.8852,1.63,0,6.5266-.21V308.42Q54.13,310.5238,54.13,317.8786q0,5.6751,7.5649,5.6751A57.5873,57.5873,0,0,0,68.7407,322.9231Z"/><path class="cls-1" d="M141.5843,297.7305q-2.1851,0-3.4122,4.0989a26.6452,26.6452,0,0,0-.9554,7.0268q0,1.9536-6.1419,1.9519a34.7222,34.7222,0,0,1-3.5487-.1952c.0032-2.3851.03-9.1255.0435-15.7355,1.6694.112,3.6246.2829,5.8784.5149q6.5181.6747,9.7132.6723a4.4083,4.4083,0,0,0,2.0449-.4034,3.2291,3.2291,0,0,0,1.6614-3.2272q0-4.4375-5.24-5.2442a107.665,107.665,0,0,0-14.05-1.1595c-.0036-3.2969-.0179-5.7785-.051-6.4523q10.78,3.3216,14.0582,3.3182,4.3663,0,4.3676-4.099,0-8.001-18.4258-11.5161-.2754-7.8041-2.32-10.54c.0222.0078.0456.0135.0487.004a2.9027,2.9027,0,0,0-2.3073-1.3481,2.7035,2.7035,0,0,0-1.7275.9508c.0017.0065.0156.0052.028.0029q-2.1851,2.5392-2.4568,10.93-17.4726,2.3423-17.47,10.54,0,4.2959,4.2311,4.2941,1.0907,0,13.1027-2.7326c-.0127.702-.0216,3.2763-.0269,6.6752a101.9221,101.9221,0,0,0-12.7854,1.1318q-5.24.8067-5.24,5.2442,0,3.6306,3.7064,3.6306,3.13,0,9.6173-.6723c1.743-.18,3.3026-.3228,4.6963-.4307.0008,6.6245.0116,13.3309.0323,15.6513a17.3613,17.3613,0,0,1-2.4567.1952q-4.6418,0-4.6406-1.5615a27.48,27.48,0,0,0-.9554-7.222q-1.2284-4.2906-3.4121-4.2941-4.5042,0-4.5041,10.15,0,13.8616,13.0345,14.2487,13.0322.3937,16.8561.39,13.5123,0,13.5122-14.8343Q146.0883,297.7305,141.5843,297.7305Z"/><path class="cls-1" d="M138.6616,218.4858q-13.1976-.8943-31.2573-.8959h-1.8662V200.1265c12.981-.06,24.8088-.32,28.1956-.7794q12.4183-1.5863,18.7775-9.0767,6.3565-7.4935,7.0872-22.4713.7293-11.4591,1.7535-50.23,1.1678-45.8271,1.169-69.97a59.39,59.39,0,0,0-.2922-6.8735q-.8767-6.1671-4.0916-6.1686-4.5314,0-4.9684,13.0421-.4383,12.1611-1.0229,59.0424-.4383,36.6561-2.0458,59.2186-.5857,10.3969-4.676,15.6859-4.0929,5.2874-12.5671,6.6973-4.0929.702-8.7677,1.0575c-.2683.0171-4.2038.35-4.2377.3525q-6.251.5268-14.3134.6607V53.9666q0-22.4664-4.5435-22.4665-4.8366,0-4.8367,22.4665V190.3334a221.9865,221.9865,0,0,1-30.52-2.09q-8.4766-1.2352-12.2747-6.5211-3.8019-5.2874-4.2377-15.6859-1.1716-21.3273-1.7536-59.2185-.7332-42.4768-1.3151-59.2187-.5858-13.0405-4.9684-13.0421-4.5312,0-4.3838,13.0421.582,70.3223,2.7765,120.3759.5819,14.9778,6.7949,22.3832,6.2091,7.4024,18.7775,8.9886c3.87.4885,17.1577.7511,31.1044.7883V217.59H92.586q-18.2924,0-31.4888.8959-27.7844,1.7932-27.7843,7.346,0,4.8377,12.503,4.8376,2.5456,0,6.7145-.1791,25.7-1.7934,47.2332-1.7918,21.5328,0,47.2332,1.7918,4.1677.176,6.7145.1791,12.503,0,12.503-4.8376Q166.2143,220.2806,138.6616,218.4858Z"/><path class="cls-1" d="M398.3364,311.0171q0-26.8508-.6979-39.294-1.169-25.7554-24.891-26.6325-5.3544-.2145-14.4225-.2183-7.9111,0-12.0963.2183-22.1031,1.0953-23.0295,26.96-.9326,25.8685-.93,70.1834,0,37.3293.93,52.1736.9264,14.8482,12.5616,18.9921,6.2806,1.75,24.6578,1.7464,9.3007,0,13.7246-.2183,20.0034-.6549,22.3316-20.3019,1.1629-18.337.9311-27.724Q398.3305,336.3418,398.3364,311.0171ZM387.7378,268.33s.1661,67.3793.282,67.3827v15.3242c0,3.9983-.0165,7.7118-.0463,11.1953-7.2846-5.1817-11.5266-10.6721-12.3871-16.1494-.1922-1.2241-.3-3.5323-.4982-7.7222-.3407-7.2152-.4684-14.3472-.3783-21.1964.1409-10.7856.7392-33.5254,1.7689-61.3043Q387.7189,258.3059,387.7378,268.33ZM368.39,255.05c-1.0432,28.079-1.65,51.1077-1.7933,62.007-.0911,7.0129.04,14.31.3882,21.6875.2169,4.6194.3259,6.9385.5873,8.6,1.4091,8.9772,8.2233,17.2054,20.2689,24.5127q-.37,18.5609-1.5133,23.7593c-.1427.6014-.3066,1.1668-.4813,1.714a71.3025,71.3025,0,0,1-12.4036-13.5843c-1.457-2.112-3.61-5.5127-5.6622-9.0765-3.432-5.9584-6.8259-12.79-6.8539-12.844-4.3747,10.4757-5.9693,13.5082-5.9694,13.5083s-2.0185,3.8384-4.7991,7.9361a87.0885,87.0885,0,0,1-14.7617,16.4732,14.3024,14.3024,0,0,1-1.2254-4.1268,193.8432,193.8432,0,0,1-1.811-23.8524c13.9236-7.7337,21.762-16.5573,23.2845-26.2566.2614-1.6615.37-3.9806.5872-8.5991.3486-7.367.4784-14.6646.3873-21.6874-.1389-10.659-.7234-32.98-1.73-60.32Q361.1781,254.7866,368.39,255.05ZM332.762,335.7127c.3987-.0148.8457-54.03.8457-67.1276q.277-12.4952,11.841-13.2649c.4366-.0329.89-.059,1.3348-.0884,1.0031,27.2566,1.5854,49.4885,1.7233,60.0953.09,6.86-.0376,13.9921-.3773,21.1975-.1981,4.1889-.306,6.4971-.4982,7.7211-.9728,6.197-6.2782,12.41-15.4214,18.1743-.0071-1.1441-.0118-2.3026-.0118-3.4887Q332.1981,348.7172,332.762,335.7127Zm28.4747,70.3521q-10.4338,0-16.07-.4643a15.946,15.946,0,0,1-3.5627-.6473,88.749,88.749,0,0,0,8.95-9.5341,83.9638,83.9638,0,0,0,9.1108-13.816c.7317-1.4124,1.3028-2.62,1.7029-3.4967.4358.826,1.0726,2.009,1.8732,3.4114a117.6747,117.6747,0,0,0,8.0038,12.1957,71.579,71.579,0,0,0,10.04,10.3472,9.6112,9.6112,0,0,1-4.8247,1.54Q371.6629,406.0688,361.2367,406.0648Z"/><path class="cls-1" d="M457.8411,262.7341c-.307-6.2657-2.6661-9.546-4.5634-11.4778a18.9034,18.9034,0,0,0-11.56-5.2582c-.1775-.0122-17.8971.19-19.6739.6874-6.28,1.7567-11.9664,8.2971-11.9664,14.525,0,1.0073,0,2.4974-.0009,4.4095-.0055,10.8906,1.9392,136.88-1.7435,148.5754a9.5532,9.5532,0,0,1-2.4133,4.4536c-2.6608,2.5431-5.5307,2.008-11.2565,4.8755-3.8536,1.93-3.4479,3.5551-10.141,11.4778-4.9691,5.79-7.5043,8.7353-11.3579,11.3762-.7226.4825-1.3817.8855-2.06,1.2537-3.9654,2.151-7.0825,3.36-14.7735,5.7548-3.2233,1.0038-6.0929,1.8754-8.52,2.6023-1.65,1.2677-2.5246,2.8854-2.1238,4.07.4715,1.393,2.5538,1.7308,3.9707,1.9423,3.4111.5093,6.2519-.33,11.744-2.4181a80.5471,80.5471,0,0,0,9.0254-3.6566,84.6269,84.6269,0,0,0,12.0678-7.2117,36.8817,36.8817,0,0,0,6.5024-6.0311c5.438-6.5575,5.7967-8.35,9.7231-11.44,3.6241-2.8514,7.2108-3.7892,10.4586-4.6383,1.5039-.3932,5.2349-1.2691,17.8931-.6893,9.021.4132,13.2177,1.1371,19.9578-.3447,3.8071-.8369,5.3571-1.703,6.5379-2.7572,4.9471-4.4168,3.8336-12.5121,3.5646-14.2214C457.03,408.187,458.6524,279.2905,457.8411,262.7341Zm-8.62,148.3985a12.996,12.996,0,0,1-3.955,5.485,5.7845,5.7845,0,0,1-.5374.3564c-3.8391,2.2122-11.0435,2.03-16.1952,1.675-5.7074-.3927-7.3348-.7483-8.37-2.1411a8.3183,8.3183,0,0,1-1.217-3.867c-.4429-3.0562,1.3008-148.6183,1.96-151.0882a6.1822,6.1822,0,0,1,.5916-1.7c1.38-2.1841,4.48-1.9763,12.3256-2.1827,3.1171-.0819,9.4931-.2946,12.3477,1.4389a4.7086,4.7086,0,0,1,1.9889,2.1152,5.3286,5.3286,0,0,1,.3079,2.1975C448.46,263.5094,448.5857,325.2477,449.2213,411.1326Z"/><path class="cls-1" d="M430.4934,264.54c.3045-2.252,1.8426-3.8435,3.4142-3.8793,2.3212-.0528,3.4175,3.3175,3.5018,3.5884.5128,1.6481.5273,4.0862.4667,25.3875-.0311,10.9361,1.8741,115.3875,1.2856,117.784a4.8191,4.8191,0,0,1-1.8427,3.1109,3.6264,3.6264,0,0,1-3.2652.0951,5.1948,5.1948,0,0,1-2.5777-4.7593c-.009-5.4272-.996-37.2939-1.0877-43.693-.4585-46.6221,0-41.8482,0-54.5448,0-6.5474,0-11.5966.0109-17.3211.0039-2.0474.0293-8.7957.0808-22.2925C430.48,267.9611,430.4932,264.5943,430.4934,264.54Z"/><path class="cls-1" d="M310.6753,53.58q0-15.3194-3.6759-15.3193-4.4112,0-4.9626,14.3373-28.6727-2.1588-44.8469-2.16-4.5965,0-8.0871.1964,0-14.9232-4.595-14.9265-4.7817,0-4.7787,14.3373A527.7623,527.7623,0,0,0,184.4057,53.58q-.7368-15.3194-5.1464-15.3193-4.4112,0-4.4112,26.1214,0,29.46,2.5732,50.0823,2.757,23.5682,25.3642,23.5682,6.4314,0,19.4827-.3928,13.0481-.3912,19.4826-.3928,7.5342,0,22.6073.3928,15.0684.3961,22.6072.3928,21.3192,0,23.1587-18.8545a366.74,366.74,0,0,0,1.6541-36.7271q0-4.9066-.5513-14.5337Q310.6754,58.2968,310.6753,53.58Zm-25.3642,75.2217q-5.6993,0-17.1851-.491-11.4889-.4876-17.369-.491-7.72,0-23.2506.491-15.534.4928-23.2505.491-16.7272,0-17.4609-17.6761,28.6727-1.7676,57.1614-1.7676,28.302,0,56.4263,1.7676Q298.9091,128.8017,285.3111,128.8016Zm16.5419-27.889q-28.6725-1.9606-57.7128-1.964-28.8579,0-58.2641,1.964l-.7352-15.3193q29.7753-2.3568,58.9993-2.3568t57.8966,2.3568Zm.1838-25.5322q-28.6727-1.9606-58.08-1.964-29.4093,0-59.5507,1.964V62.6144A579.9416,579.9416,0,0,1,244.14,59.4719a528.3012,528.3012,0,0,1,57.8966,3.1425Z"/><path class="cls-1" d="M308.1009,213.7783q-10.1476,0-29.5639,1.46-15.1668,1.1079-24.359,1.3753c-1.743-.0779-3.4265-.13-5.0383-.1509V188.5116q23.9646.4206,48.1071,2.7117,3.3208.21,5.423.2086,8.0441,0,8.047-3.9633,0-5.2113-13.47-6.8835a425.8234,425.8234,0,0,0-48.1071-2.7116V160.3518q9.6184,0,29.564,1.46,19.4178,1.4619,29.564,1.46,8.22,0,8.2219-3.9632,0-5.632-13.295-7.0921-22.743-2.5032-58.4283-2.5031-37.089,0-59.1279,2.5031-13.4728,1.4618-13.47,7.0921,0,3.965,8.3969,3.9632,1.9228,0,5.0731-.2086,27.9867-2.5031,54.58-2.7117v17.5217a461.8982,461.8982,0,0,0-48.9817,2.7116q-13.4728,1.4619-13.47,6.8835,0,3.9651,8.222,3.9633,9.6184,0,27.1149-1.2516,18.893-1.4566,27.1148-1.6687v27.9512q-2.1171.027-4.3669.1168c.0235.0208.0456.0434.069.0642q-24.6336-.3575-50.4484-2.6569-3.149-.21-5.0731-.2086-8.397,0-8.3969,3.9632,0,5.632,13.47,7.0921,22.0418,2.5031,59.1279,2.5031,35.6866,0,58.4282-2.5031,13.2921-1.4619,13.2951-7.0921Q316.3229,213.7766,308.1009,213.7783Z"/><g id="g42"><path id="path40" class="cls-1" d="M0,0V492H492V0ZM463,463H29V29H463Z"/></g><path class="cls-1" d="M444.3843,76.1373q-2.6335-20.5864-20.8485-24.1155a170.7876,170.7876,0,0,0-31.9677-3.5291q0-17.0574-3.8039-17.0574-3.8064,0-3.8039,17.0574a171.6254,171.6254,0,0,0-33.5039,3.5291q-16.24,3.3363-18.8734,24.1155-6.1449,49.8029-6.73,136.6548v1.1763q-.1476,12.5447,3.365,12.5479,3.6552,0,3.95-13.7242,1.7557-68.8176,3.6577-97.05,2.1945-31.5642,3.2187-37.6438,2.486-14.5068,11.997-16.2731l15.7766-2.8064a38.8706,38.8706,0,0,1,1.5646,8.4471q.5439,6.7212.2458,41.3916-.3251,31.007-3.9947,106.3784-.7863,15.0238,2.8592,15.2908,3.5022.2531,4.3445-13.4773l.0926-1.2863q6.2586-95.0074,4.0493-149.9033a54.0413,54.0413,0,0,0-.7987-7.3743q6.3636-.3817,12.73-.3854c3.5767,0,7.2381.113,10.9514.2943a53.5806,53.5806,0,0,0-.6334,8.0165q-.27,55.2075,9.3335,150.4026l.1379,1.2886q1.3244,13.7565,4.8173,13.3849,3.6345-.39,2.3183-15.4547-6.3243-75.5662-7.744-106.6941-1.5194-34.8081-1.214-41.5766a38.8521,38.8521,0,0,1,1.3184-8.7218c.7838-.1035,1.3309-.28,1.3436-.5476q15.2145,3.3363,16.9715,4.1173,9.3609,4.3149,11.2655,15.4888,2.6334,24.7038,3.365,37.84,1.3167,20.9819,2.1945,48.4271.2914,7.4537,1.1705,48.4272.2913,13.721,3.95,13.7242,3.3639,0,3.365-12.744Q450.8217,126.7212,444.3843,76.1373Z"/><path class="cls-1" d="M309.9172,442.8772c.0185-.5182-3.1718-41.8718-3.6945-60.0966-.04-1.8429-.0773-3.6971-.1078-5.5752H306.08q-.2547-11.3235-.2577-23.552,0-32.1685.4585-40.4327l.7641-9.7821q0-9.3435-4.1261-9.3473-3.9761,0-6.877,23.0422-16.2-2.8221-47.3747-3.0433V302.5692q1.2218,0,5.3487.2174,3.5142.2192,5.6544.2173,10.2364,0,15.435-3.9128,7.1818-5.65,7.1827-19.5642c0-1.3043-.0528-2.5336-.1529-3.6955q16.3512,1.5237,19.5612,1.5217,5.8225,0,7.6123-2.7128a4.8427,4.8427,0,0,0,.7929-2.9391c-.6569-4.3579-12.2817-6.1084-15.56-6.5774-19.7124-2.8206-40.6137-2.7222-49.3111-2.7832-10.3453-.0725-34.8772-.591-53.9942,2.7832-3.5883.6333-13.1967,2.5-13.7841,6.5774a4.6765,4.6765,0,0,0,.7688,2.882q1.796,2.7713,7.7892,2.77,3.2092,0,19.2555-1.3043-.1536,2.1757-.1528,4.3476,0,22.6113,23.0761,22.6075,2.1387,0,5.8836-.2173,3.7434-.2136,4.8139-.2174V314.09q-31.3291.2193-47.68,3.0433-2.4459-23.0384-6.7241-23.0422-4.1262,0-4.1262,9.7821,0,.2193.6113,9.3473.6085,9.13.6113,41.3022,0,30.3046-1.5969,54.8826c-.0669.09-1.0719,13.4972-1.6234,19.6679-.097.95-.1932,1.9025-.2946,2.8368-.173,1.5971-.307,3.07-.4064,4.4326-.1885,1.8171-.3816,3.616-.5849,5.3764a91.5387,91.5387,0,0,0-.6835,9.3413q-.088,9.7817,3.5077,9.8154,4.4947.0422,6.26-12.9848c.42-3.0133.8115-6.2049,1.1792-9.5391.0162-.12.0341-.233.05-.3552q4.2763-32.1684,4.279-88.4736,0-9.3435-.1528-18.9121,16.1964-1.9565,47.3747-2.1738v9.9995c-4.6107.2684-11.4775.828-19.8718,2.1305-5.3828.8353-6.3385,1.1917-7.1979,1.6782-6.0607,3.4312-5.8193,12.4812-6.8568,32.4937-.69,13.3161-1.34,26.6431-1.5787,39.9752q-.8093,13.3222-2.0744,25.0085a89.8,89.8,0,0,0-.6113,9.3473q0,9.7821,3.6678,9.7821,4.5846,0,6.2656-13.0428.66-4.9633,1.2162-10.5113a61.2171,61.2171,0,0,0,1.0616-10.1268c.0722-1.9236.1481-3.71.2267-5.4194q.7259-10.7781,1.1536-23.2385c.3923-9.0609.345-8.603.6064-19.3831.0908-3.7451.25-11.03.5949-21.2851a3.2858,3.2858,0,0,1,1.7854-2.3191c3.1457-.8176,5.5617-1.4108,5.8936-1.4914,4.3687-1.0618,14.011-2.3555,15.2264-2.5173l.0211,51.9145h-.03q.0086,20.7656.0169,41.5312,0,18.0407,5.0287,18.0425,4.8755,0,4.8763-18.0425.0108-3.3185.0215-6.6368c.02-.8606.0329-1.7443.0329-2.6772q.1379-42.3456.2755-84.691a85.1132,85.1132,0,0,1,11.9043,1.6781,44.0263,44.0263,0,0,1,9.0582,2.327,4.63,4.63,0,0,1,2.2705,1.5246,4.8387,4.8387,0,0,1,.8836,2.8652c.0443,2.1032.0847,8.3278.1974,16.2937l-.0053-.0069c.0044.2688.0121.5289.0167.7971.2322,15.9522.7568,38.3986,2.1626,49.0587.4659,6.2446.9936,12.321,1.6,18.1836q1.8339,17.1692,6.7241,17.173,3.6678,0,3.6678-9.7821a90.4437,90.4437,0,0,0-.6113-9.3473q-.9828-9.17-1.6875-19.3346c-.2481-10.0158-1.12-26.6331-1.6077-37.26-.0511-2.495-.0952-5.0154-.128-7.576h-.1781c-.0014-.0512-.0034-.111-.0048-.1607-.5035-18.7494,1.0728-26.8618-4.64-30.9083-1.2035-.8525-2.4629-1.3351-11.9042-3.0767-7.436-1.3716-13.5549-2.3452-17.6878-2.97v-9.9995q31.0221.2193,47.0691,2.1738-.3064,23.5349.2473,44.7307l-.0113-.0141q.747,37.4756,4.0111,68.0261,1.8923,17.1628,6.7826,17.15,3.6677-.0126,3.6344-9.7945Q310.3892,447.5186,309.9172,442.8772ZM224.5211,290.2734q-9.4778,0-9.475-9.698a27.6543,27.6543,0,0,1,.3056-3.8792q14.9759-1.0756,29.8-1.0776,13.4456,0,27.0494.8621c.1,1.293.1528,2.445.1528,3.4481q0,10.3447-11.7672,10.3446Z"/></g></g></svg>