<svg xmlns="http://www.w3.org/2000/svg" width="82" height="20" viewBox="0 0 82 20"><g stroke-linecap="round" transform="matrix(1.15493 0 0 1.15493 -23.143 -1196.756)" stroke="#424242"><circle r="5" cy="10" cx="43" transform="matrix(.79998 0 0 .79998 8.1 1036.862)" fill="none" stroke-width="1.25"/><path d="M52.5 1048.862a4 4 0 01-4-4v-4M65.5 1042.862v5.9M62.5 1038.862v7.5c0 6-8 6-8 0v-7.5" fill="none"/><g fill="none"><path d="M74.828 1047.69a4 4 0 111.172-2.828M71.5 1044.862H76"/></g><g fill="none"><path d="M84.5 1040.862v5c0 4-6 4-6 0v-5M90.5 1040.862v5c0 4-6 4-6 0v-5"/></g><g fill="none"><path d="M28.5 1050.862v-7.5c0-6 8-6 8 0v7.5M20.5 1050.862v-7.5c0-6 8-6 8 0v7.5"/></g><circle r=".5" cy="3.5" cx="65.5" transform="translate(0 1036.862)" fill="#212121" stroke-linejoin="round"/></g></svg>