<svg xmlns="http://www.w3.org/2000/svg" viewBox="0 0 1600 900"><rect fill="#030303" width="1600" height="900"/><defs><linearGradient id="a" x1="0" x2="0" y1="1" y2="0" gradientTransform="rotate(0,0.5,0.5)"><stop offset="0" stop-color="#563A44"/><stop offset="1" stop-color="#152A55"/></linearGradient><linearGradient id="b" x1="0" x2="0" y1="0" y2="1" gradientTransform="rotate(0,0.5,0.5)"><stop offset="0" stop-color="#F00"/><stop offset="1" stop-color="#FC0"/></linearGradient></defs><g fill="#FFF" fill-opacity="0" stroke-miterlimit="10"><g stroke="url(#a)" stroke-width="3.3"><path transform="translate(-8.4 -4.8) rotate(-4.8 1409 581) scale(0.964)" d="M1409 581 1450.35 511 1490 581z"/><circle stroke-width="1.1" transform="translate(-30 12) rotate(-2.4 800 450) scale(0.994)" cx="500" cy="100" r="40"/><path transform="translate(-8.4 18) rotate(-30 401 736) scale(0.994)" d="M400.86 735.5h-83.73c0-23.12 18.74-41.87 41.87-41.87S400.86 712.38 400.86 735.5z"/></g><g stroke="url(#b)" stroke-width="1"><path transform="translate(72 7.2) rotate(-1.8 150 345) scale(1.012)" d="M149.8 345.2 118.4 389.8 149.8 434.4 181.2 389.8z"/><rect stroke-width="2.2" transform="translate(18 -36) rotate(-43.2 1089 759)" x="1039" y="709" width="100" height="100"/><path transform="translate(-4.8 -4.8) rotate(-7.2 1400 132) scale(0.94)" d="M1426.8 132.4 1405.7 168.8 1363.7 168.8 1342.7 132.4 1363.7 96 1405.7 96z"/></g></g></svg>