<svg height="678" version="1.1" width="1148" xmlns="http://www.w3.org/2000/svg" style="overflow: hidden; position: relative;"><desc>Created with Raphaël 2.0.1</desc><defs></defs><rect x="0" y="0" width="1148" height="678" r="0" rx="0" ry="0" fill="#64c9f2" stroke="none" style=""></rect><path style="opacity: 0.11;" fill="none" stroke="#4d3697" d="M0,0L0,678" stroke-width="101" opacity="0.11"></path><path style="opacity: 0.11;" fill="none" stroke="#4d3697" d="M18,0L18,678" stroke-width="132" opacity="0.11"></path><path style="opacity: 0.11;" fill="none" stroke="#4d3697" d="M37,0L37,678" stroke-width="104" opacity="0.11"></path><path style="opacity: 0.11;" fill="none" stroke="#4d3697" d="M57,0L57,678" stroke-width="72" opacity="0.11"></path><path style="opacity: 0.11;" fill="none" stroke="#4d3697" d="M78,0L78,678" stroke-width="87" opacity="0.11"></path><path style="opacity: 0.11;" fill="none" stroke="#4d3697" d="M108,0L108,678" stroke-width="117" opacity="0.11"></path><path style="opacity: 0.11;" fill="none" stroke="#4d3697" d="M129,0L129,678" stroke-width="96" opacity="0.11"></path><path style="opacity: 0.11;" fill="none" stroke="#4d3697" d="M143,0L143,678" stroke-width="141" opacity="0.11"></path><path style="opacity: 0.11;" fill="none" stroke="#4d3697" d="M168,0L168,678" stroke-width="72" opacity="0.11"></path><path style="opacity: 0.11;" fill="none" stroke="#4d3697" d="M194,0L194,678" stroke-width="134" opacity="0.11"></path><path style="opacity: 0.11;" fill="none" stroke="#4d3697" d="M206,0L206,678" stroke-width="143" opacity="0.11"></path><path style="opacity: 0.11;" fill="none" stroke="#4d3697" d="M232,0L232,678" stroke-width="148" opacity="0.11"></path><path style="opacity: 0.11;" fill="none" stroke="#4d3697" d="M245,0L245,678" stroke-width="82" opacity="0.11"></path><path style="opacity: 0.11;" fill="none" stroke="#4d3697" d="M269,0L269,678" stroke-width="105" opacity="0.11"></path><path style="opacity: 0.11;" fill="none" stroke="#4d3697" d="M299,0L299,678" stroke-width="76" opacity="0.11"></path><path style="opacity: 0.11;" fill="none" stroke="#4d3697" d="M299,0L299,678" stroke-width="142" opacity="0.11"></path><path style="opacity: 0.11;" fill="none" stroke="#4d3697" d="M306,0L306,678" stroke-width="95" opacity="0.11"></path><path style="opacity: 0.11;" fill="none" stroke="#4d3697" d="M322,0L322,678" stroke-width="138" opacity="0.11"></path><path style="opacity: 0.11;" fill="none" stroke="#4d3697" d="M325,0L325,678" stroke-width="146" opacity="0.11"></path><path style="opacity: 0.11;" fill="none" stroke="#4d3697" d="M343,0L343,678" stroke-width="110" opacity="0.11"></path><path style="opacity: 0.11;" fill="none" stroke="#4d3697" d="M360,0L360,678" stroke-width="138" opacity="0.11"></path><path style="opacity: 0.11;" fill="none" stroke="#4d3697" d="M366,0L366,678" stroke-width="139" opacity="0.11"></path><path style="opacity: 0.11;" fill="none" stroke="#4d3697" d="M381,0L381,678" stroke-width="80" opacity="0.11"></path><path style="opacity: 0.11;" fill="none" stroke="#4d3697" d="M394,0L394,678" stroke-width="73" opacity="0.11"></path><path style="opacity: 0.11;" fill="none" stroke="#4d3697" d="M398,0L398,678" stroke-width="111" opacity="0.11"></path><path style="opacity: 0.11;" fill="none" stroke="#4d3697" d="M409,0L409,678" stroke-width="113" opacity="0.11"></path><path style="opacity: 0.11;" fill="none" stroke="#4d3697" d="M429,0L429,678" stroke-width="100" opacity="0.11"></path><path style="opacity: 0.11;" fill="none" stroke="#4d3697" d="M444,0L444,678" stroke-width="104" opacity="0.11"></path><path style="opacity: 0.11;" fill="none" stroke="#4d3697" d="M464,0L464,678" stroke-width="83" opacity="0.11"></path><path style="opacity: 0.11;" fill="none" stroke="#4d3697" d="M484,0L484,678" stroke-width="94" opacity="0.11"></path><path style="opacity: 0.11;" fill="none" stroke="#4d3697" d="M495,0L495,678" stroke-width="92" opacity="0.11"></path><path style="opacity: 0.11;" fill="none" stroke="#4d3697" d="M501,0L501,678" stroke-width="149" opacity="0.11"></path><path style="opacity: 0.11;" fill="none" stroke="#4d3697" d="M526,0L526,678" stroke-width="76" opacity="0.11"></path><path style="opacity: 0.11;" fill="none" stroke="#4d3697" d="M552,0L552,678" stroke-width="95" opacity="0.11"></path><path style="opacity: 0.11;" fill="none" stroke="#4d3697" d="M571,0L571,678" stroke-width="101" opacity="0.11"></path><path style="opacity: 0.11;" fill="none" stroke="#4d3697" d="M573,0L573,678" stroke-width="119" opacity="0.11"></path><path style="opacity: 0.11;" fill="none" stroke="#4d3697" d="M590,0L590,678" stroke-width="100" opacity="0.11"></path><path style="opacity: 0.11;" fill="none" stroke="#4d3697" d="M602,0L602,678" stroke-width="131" opacity="0.11"></path><path style="opacity: 0.11;" fill="none" stroke="#4d3697" d="M619,0L619,678" stroke-width="132" opacity="0.11"></path><path style="opacity: 0.11;" fill="none" stroke="#4d3697" d="M635,0L635,678" stroke-width="120" opacity="0.11"></path><path style="opacity: 0.11;" fill="none" stroke="#4d3697" d="M662,0L662,678" stroke-width="145" opacity="0.11"></path><path style="opacity: 0.11;" fill="none" stroke="#4d3697" d="M664,0L664,678" stroke-width="134" opacity="0.11"></path><path style="opacity: 0.11;" fill="none" stroke="#4d3697" d="M667,0L667,678" stroke-width="119" opacity="0.11"></path><path style="opacity: 0.11;" fill="none" stroke="#4d3697" d="M684,0L684,678" stroke-width="129" opacity="0.11"></path><path style="opacity: 0.11;" fill="none" stroke="#4d3697" d="M694,0L694,678" stroke-width="122" opacity="0.11"></path><path style="opacity: 0.11;" fill="none" stroke="#4d3697" d="M721,0L721,678" stroke-width="133" opacity="0.11"></path><path style="opacity: 0.11;" fill="none" stroke="#4d3697" d="M740,0L740,678" stroke-width="80" opacity="0.11"></path><path style="opacity: 0.11;" fill="none" stroke="#4d3697" d="M757,0L757,678" stroke-width="89" opacity="0.11"></path><path style="opacity: 0.11;" fill="none" stroke="#4d3697" d="M767,0L767,678" stroke-width="144" opacity="0.11"></path><path style="opacity: 0.11;" fill="none" stroke="#4d3697" d="M776,0L776,678" stroke-width="122" opacity="0.11"></path><path style="opacity: 0.11;" fill="none" stroke="#4d3697" d="M778,0L778,678" stroke-width="87" opacity="0.11"></path><path style="opacity: 0.11;" fill="none" stroke="#4d3697" d="M807,0L807,678" stroke-width="100" opacity="0.11"></path><path style="opacity: 0.11;" fill="none" stroke="#4d3697" d="M812,0L812,678" stroke-width="76" opacity="0.11"></path><path style="opacity: 0.11;" fill="none" stroke="#4d3697" d="M816,0L816,678" stroke-width="88" opacity="0.11"></path><path style="opacity: 0.11;" fill="none" stroke="#4d3697" d="M820,0L820,678" stroke-width="94" opacity="0.11"></path><path style="opacity: 0.11;" fill="none" stroke="#4d3697" d="M825,0L825,678" stroke-width="96" opacity="0.11"></path><path style="opacity: 0.11;" fill="none" stroke="#4d3697" d="M828,0L828,678" stroke-width="127" opacity="0.11"></path><path style="opacity: 0.11;" fill="none" stroke="#4d3697" d="M837,0L837,678" stroke-width="112" opacity="0.11"></path><path style="opacity: 0.11;" fill="none" stroke="#4d3697" d="M849,0L849,678" stroke-width="76" opacity="0.11"></path><path style="opacity: 0.11;" fill="none" stroke="#4d3697" d="M874,0L874,678" stroke-width="148" opacity="0.11"></path><path style="opacity: 0.11;" fill="none" stroke="#4d3697" d="M884,0L884,678" stroke-width="112" opacity="0.11"></path><path style="opacity: 0.11;" fill="none" stroke="#4d3697" d="M910,0L910,678" stroke-width="105" opacity="0.11"></path><path style="opacity: 0.11;" fill="none" stroke="#4d3697" d="M934,0L934,678" stroke-width="83" opacity="0.11"></path><path style="opacity: 0.11;" fill="none" stroke="#4d3697" d="M958,0L958,678" stroke-width="82" opacity="0.11"></path><path style="opacity: 0.11;" fill="none" stroke="#4d3697" d="M971,0L971,678" stroke-width="107" opacity="0.11"></path><path style="opacity: 0.11;" fill="none" stroke="#4d3697" d="M992,0L992,678" stroke-width="145" opacity="0.11"></path><path style="opacity: 0.11;" fill="none" stroke="#4d3697" d="M1021,0L1021,678" stroke-width="87" opacity="0.11"></path><path style="opacity: 0.11;" fill="none" stroke="#4d3697" d="M1026,0L1026,678" stroke-width="143" opacity="0.11"></path><path style="opacity: 0.11;" fill="none" stroke="#4d3697" d="M1052,0L1052,678" stroke-width="146" opacity="0.11"></path><path style="opacity: 0.11;" fill="none" stroke="#4d3697" d="M1078,0L1078,678" stroke-width="148" opacity="0.11"></path><path style="opacity: 0.11;" fill="none" stroke="#4d3697" d="M1105,0L1105,678" stroke-width="83" opacity="0.11"></path><path style="opacity: 0.11;" fill="none" stroke="#4d3697" d="M1108,0L1108,678" stroke-width="115" opacity="0.11"></path><path style="opacity: 0.11;" fill="none" stroke="#4d3697" d="M1134,0L1134,678" stroke-width="95" opacity="0.11"></path><path style="opacity: 0.11;" fill="none" stroke="#4d3697" d="M1140,0L1140,678" stroke-width="140" opacity="0.11"></path><path style="opacity: 0.11;" fill="none" stroke="#4d3697" d="M1148,0L1148,678" stroke-width="113" opacity="0.11"></path></svg>