<?xml version="1.0" encoding="utf-8"?>

<!DOCTYPE svg PUBLIC "-//W3C//DTD SVG 1.1//EN" "http://www.w3.org/Graphics/SVG/1.1/DTD/svg11.dtd">
<svg version="1.1" id="Layer_1" xmlns="http://www.w3.org/2000/svg" xmlns:xlink="http://www.w3.org/1999/xlink" x="0px" y="0px"
	 viewBox="0 0 1642 1640.808" enable-background="new 0 0 1642 1640.808" xml:space="preserve">
<g>
	<path d="M1189.13,1248.111c68.33-1.18,186.9-3.74,255-8.15c-102.73,154.57-256.25,257.99-427.55,305.14
		C1099.24,1469.951,1155.03,1354.011,1189.13,1248.111z"/>
	<path d="M452.87,1248.111c34.35,106.67,90.24,222.15,172.55,296.99c-170.69-46.98-324.48-150.07-427.55-305.14
		C265.95,1244.361,384.48,1246.931,452.87,1248.111z"/>
	<path d="M1137.75,1248.911c-45.05,132.52-135.82,300.15-273.25,321.79c-29.46,1.83-57.54,1.83-87,0
		c-137.4-21.64-228.15-189.13-273.25-321.79C701.17,1251.671,935.87,1251.741,1137.75,1248.911z"/>
	<path d="M625.41,94.441c-82.66,75.16-138.44,191.09-172.54,296.99c-68.22,1.18-186.86,3.74-255,8.15
		C300.6,245.011,454.1,141.601,625.41,94.441z"/>
	<path d="M438.36,440.231c-64.29,235.21-65.35,520.02,0,759.08c-46.08-0.85-228.44-4.33-272.03-11.15
		c-125.71-225.98-133.88-496.11,0-736.79C210.02,444.541,394.12,441.041,438.36,440.231z"/>
	<path d="M1153,439.391c67.59,235.67,67.66,524.86,0,760.76c-206.91,3.09-456.82,3.1-664,0c-67.59-235.67-67.66-524.86,0-760.76
		C696.33,436.291,946.28,436.301,1153,439.391z"/>
	<path d="M1475.67,451.371c125.7,225.98,133.88,496.11,0,736.79c-43.57,6.82-226.71,10.32-272.03,11.15
		c64.01-234.16,65.62-519.03,0-759.08C1249.5,441.071,1432.06,444.561,1475.67,451.371z"/>
	<path d="M1444.13,399.581c-68.14-4.41-186.79-6.98-255-8.15c-34.11-105.95-89.91-221.85-172.55-296.99
		C1187.27,141.421,1341.06,244.511,1444.13,399.581z"/>
	<path d="M864.49,68.841c137.43,21.63,228.17,189.16,273.26,321.79c-197.62-2.77-432.5-2.82-633.5,0
		c45-132.36,135.72-300.15,273.27-321.79C806.85,67.021,834.92,67.001,864.49,68.841z"/>
</g>
</svg>
