<svg xmlns="http://www.w3.org/2000/svg" xmlns:xlink="http://www.w3.org/1999/xlink" version="1.1" x="0px" y="0px" viewBox="0 0 100 125" enable-background="new 0 0 100 100" xml:space="preserve"><path fill="#000000" d="M30.61,60.223l46.637-29.93c0,0,10.606-8.572,15.546-2.761c4.939,5.811,0.682,9.421-9.298,16.999  l-44.24,31.381c0,0-8.281,6.175-14.311,0.581C18.617,70.624,25.004,63.82,30.61,60.223z"/><path fill="#000000" d="M95.698,33.925c0,0,0.827,3.949-3.052,7.481C88.641,45.059,73.12,56.059,73.12,56.059l0.714-2.664  C73.834,53.395,95.48,39.519,95.698,33.925z"/><path fill="#000000" d="M65.816,59.061l6.83-4.893c0,0-3.535,17.241-3.5,18.477c0,0-1.416,8.28-2.578,10.679  c0,0-3.924,8.935-5.012,9.225c0,0-0.873-2.323,0-8.862c0.87-6.537,3.269-14.816,3.269-14.816s1.161-6.03-0.363-7.266l-0.638-1.234  L65.816,59.061z"/><path fill="#000000" d="M72.452,60.73c0,0,4.214,7.554,6.247,7.846h1.091c0,0-1.091,3.123,0.362,4.793  c1.453,1.672,4.213,1.236,4.213,1.236s-1.381,2.832,0,5.303c1.381,2.47,4.142,1.162,4.142,1.162s-1.233,2.688,0,4.867  c1.235,2.18,5.013,1.379,5.304,1.233c0.289-0.146,0.871-0.218,0.871-0.218s-0.509,2.341,1.6,0.479c0,0,2.105-3.312-1.092-3.021  c0,0-7.117,2.615-3.85-2.251c0,0,4.432-5.886-2.396-3.996c0,0-5.23,3.051-1.963-2.179c0,0,4.604-5.739-2.272-4.358  c0,0-4.337,1.67-2.229-2.181c0,0,3.971-4.965-1.162-3.994c0,0-3.851,3.703-4.067-2.907c0,0,0.291-0.942,1.162-1.452  c0.872-0.508-0.218-2.105-0.437-2.47c-0.218-0.362-2.42-2.856-2.42-2.856l-2.521,1.842l-0.581,2.76"/><path fill="#000000" d="M89.96,24.264L77.102,9.227c0,0-4.357-4.141-5.447-4.504c-1.09-0.363-3.486-1.961-3.85,1.38  c-0.365,3.342-0.365,5.739-0.365,5.739s0.291,3.269,1.744,3.487c1.453,0.218,3.996-2.47,3.996-2.47s1.524-1.453,3.994,3.196  l3.125,3.414c0,0,1.128,4.019-2.729,3.444c-0.059-0.009-0.116-0.019-0.178-0.029c-4.068-0.727-3.488-3.56-3.488-3.56  s-1.524-0.727-1.088,2.107c0.435,2.833,2.25,4.358,2.832,4.939l1.744,1.525C77.393,27.896,83.072,23.139,89.96,24.264z"/><path fill="#000000" d="M70.796,32.405c0,0,0.509,0.53-10.401-1.895c-9.861-2.19-19.105-4.067-19.105-4.067S24,22.883,20.513,17.29  c0,0-0.726-0.799,3.196-1.743c3.923-0.944,8.935-2.688,19.105,0c10.17,2.688,23.536,6.102,23.536,6.102l5.377,1.899  c0,0,2.03,3.1,4.14,5.365L70.796,32.405z"/><path fill="#000000" d="M34.824,55.646l5.448-17.943c0,0,0.726-6.029-0.581-8.645c-1.308-2.615-4.94,4.358-5.303,5.085  c0,0-3.196,8.136-6.392,19.177l0.653,3.561c0,0-1.308,1.09,0.799,0.944c0,0,0.653,0.653,0.508,1.09L34.824,55.646z"/><path fill="#000000" d="M21.167,69.447c0,0-0.219,1.599-1.671-0.146c-1.453-1.742-9.153-11.912-9.734-12.277  c-0.581-0.361-6.174-9.296-6.538-11.693c0,0,0.727-1.018,3.051-1.961l1.671-0.799c0,0,0.654-0.727,1.961,0.799  c1.308,1.525,3.197,2.542,3.197,2.542s-1.017,6.878,3.414,10.448c0,0,4.068,1.805,6.683,0c2.616-1.805,0.509-1.949,0.509-1.949  l-0.073-0.799c0,0,0.948-0.568,2.542,1.017l0.659-0.043l0.431,2.295c0,0-1.506,2.041,0.654,1.981l0.291,0.996  C28.213,59.857,21.167,63.562,21.167,69.447z"/><path fill="#000000" d="M63.082,61.115c0,0,0.872,0.509,0.508,1.598l-26.224,17.87c0,0-8.862,5.667-14.31-4.576  c0,0,5.448,7.413,13.753,3.345L63.082,61.115z"/><path fill="#000000" d="M28.358,81.564c0,0-1.574,0.498-0.993,2.047c0.582,1.552,1.599,1.503,2.519,0.729  c0.92-0.773,0.415-1.502,0-2.275C29.47,81.288,28.358,81.564,28.358,81.564z"/><path fill="#000000" d="M29.835,85.841c0.969-0.241,1.018-1.646,1.018-1.646c1.163,0.92,1.695,3.051,1.889,7.021  c0.193,3.972-3.826,3.585-3.826,3.585s-3.292,0.436-3.922-5.474c-0.629-5.907,1.646-6.054,1.646-6.054  C27.018,86.342,28.867,86.082,29.835,85.841z M26.736,91.7c1.405,3.438,3.874,1.502,3.874,1.502  c2.325-0.679,0.485-6.927,0.485-6.927c-2.276,2.713-4.891-0.482-4.891-0.482S25.332,88.264,26.736,91.7z"/></svg>
