<svg xmlns="http://www.w3.org/2000/svg" width="344" height="320"><style>line, path, circle,rect,polygon{stroke:black;stroke-width:2;stroke-opacity:1;fill-opacity:1;stroke-linecap:round;stroke-linejoin:miter;}text{font-family:monospace;font-size:14px;}rect.backdrop{stroke:none;fill:white;}.broken{stroke-dasharray:8;}.filled{fill:black;}.bg_filled{fill:white;}.nofill{fill:white;}.end_marked_arrow{marker-end:url(#arrow);}.start_marked_arrow{marker-start:url(#arrow);}.end_marked_diamond{marker-end:url(#diamond);}.start_marked_diamond{marker-start:url(#diamond);}.end_marked_circle{marker-end:url(#circle);}.start_marked_circle{marker-start:url(#circle);}.end_marked_open_circle{marker-end:url(#open_circle);}.start_marked_open_circle{marker-start:url(#open_circle);}.end_marked_big_open_circle{marker-end:url(#big_open_circle);}.start_marked_big_open_circle{marker-start:url(#big_open_circle);}</style><defs><marker id="arrow" viewBox="-2 -2 8 8" refX="4" refY="2" markerWidth="7" markerHeight="7" orient="auto-start-reverse"><polygon points="0,0 0,4 4,2 0,0"/></marker><marker id="diamond" viewBox="-2 -2 8 8" refX="4" refY="2" markerWidth="7" markerHeight="7" orient="auto-start-reverse"><polygon points="0,2 2,0 4,2 2,4 0,2"/></marker><marker id="circle" viewBox="0 0 8 8" refX="4" refY="4" markerWidth="7" markerHeight="7" orient="auto-start-reverse"><circle cx="4" cy="4" r="2" class="filled"/></marker><marker id="open_circle" viewBox="0 0 8 8" refX="4" refY="4" markerWidth="7" markerHeight="7" orient="auto-start-reverse"><circle cx="4" cy="4" r="2" class="bg_filled"/></marker><marker id="big_open_circle" viewBox="0 0 8 8" refX="4" refY="4" markerWidth="7" markerHeight="7" orient="auto-start-reverse"><circle cx="4" cy="4" r="3" class="bg_filled"/></marker></defs><rect class="backdrop" x="0" y="0" width="344" height="320"/><line x1="60" y1="16" x2="60" y2="288" class="solid"/><line x1="188" y1="64" x2="188" y2="288" class="solid"/><text x="130" y="44">CONTENT</text><text x="194" y="44">PANES</text><text x="26" y="92">S</text><text x="26" y="108">I</text><text x="26" y="124">D</text><text x="26" y="140">E</text><text x="26" y="156">B</text><text x="26" y="172">A</text><text x="26" y="188">R</text><text x="114" y="156">1</text><text x="258" y="156">2</text><g><path d="M 8,8 A 4,4 0,0,0 4,12" class="nofill"/><line x1="4" y1="12" x2="4" y2="292" class="solid"/><line x1="8" y1="8" x2="324" y2="8" class="solid"/><path d="M 324,8 A 8,8 0,0,1 332,16" class="nofill"/><line x1="332" y1="16" x2="332" y2="292" class="solid"/><path d="M 4,292 A 4,4 0,0,0 8,296" class="nofill"/><line x1="8" y1="296" x2="328" y2="296" class="solid"/><path d="M 332,292 A 4,4 0,0,1 328,296" class="nofill"/></g></svg>