<?xml version="1.0" standalone="no"?>
<!DOCTYPE svg PUBLIC "-//W3C//DTD SVG 20010904//EN"
 "http://www.w3.org/TR/2001/REC-SVG-20010904/DTD/svg10.dtd">
<svg version="1.0" xmlns="http://www.w3.org/2000/svg"
 width="512.000000pt" height="512.000000pt" viewBox="0 0 512.000000 512.000000"
 preserveAspectRatio="xMidYMid meet">

<g transform="translate(0.000000,512.000000) scale(0.100000,-0.100000)"
fill="#000000" stroke="none">
<path d="M2735 5081 c-19 -8 -19 -8 0 -18 17 -10 16 -12 -15 -17 -19 -3 -118
-7 -220 -10 -252 -8 -402 -34 -606 -106 -49 -17 -123 -42 -164 -55 -204 -65
-317 -114 -326 -143 -3 -9 -10 -25 -15 -34 -5 -10 -9 -21 -9 -24 0 -8 52 1
107 17 60 18 71 6 49 -57 -9 -26 -16 -51 -16 -56 0 -17 50 -7 156 33 160 60
327 107 350 98 15 -5 16 -8 4 -12 -8 -3 -37 -13 -65 -22 -27 -10 -64 -24 -82
-31 -17 -8 -35 -14 -40 -14 -17 0 -208 -78 -246 -100 -56 -33 -34 -47 41 -26
65 18 112 21 112 7 0 -19 -61 -60 -127 -85 -40 -15 -86 -42 -111 -66 -23 -22
-88 -74 -145 -117 -102 -77 -120 -93 -167 -152 -14 -17 -32 -34 -42 -37 -9 -2
-45 -29 -80 -59 -196 -168 -290 -314 -443 -690 -70 -170 -100 -233 -167 -343
-96 -160 -113 -247 -103 -527 7 -200 20 -290 70 -475 64 -237 126 -382 274
-640 67 -117 274 -383 370 -475 41 -39 52 -65 28 -65 -18 0 -131 73 -176 114
-185 165 -222 209 -334 395 -58 98 -98 143 -110 124 -7 -11 28 -90 88 -198 48
-87 88 -168 105 -211 5 -11 4 -27 -1 -35 -7 -11 -14 -8 -33 16 -33 40 -42 27
-18 -27 94 -212 400 -477 755 -655 303 -151 648 -252 949 -279 37 -3 70 -10
73 -15 8 -12 538 -12 551 0 5 5 65 21 134 35 435 90 500 107 641 172 232 106
417 220 559 344 36 31 81 67 100 80 62 43 150 133 219 225 198 265 247 338
303 450 65 128 155 383 178 502 7 35 17 63 21 63 5 0 9 21 9 46 0 27 -4 43
-10 39 -5 -3 -10 -20 -10 -37 0 -17 -6 -39 -13 -47 -14 -16 -33 -68 -67 -180
-11 -36 -23 -67 -27 -70 -5 -3 -17 -33 -28 -66 -25 -78 -108 -246 -129 -264
-32 -26 -17 20 50 158 36 75 70 144 75 153 5 10 9 27 9 39 0 36 -24 7 -92
-112 -97 -169 -236 -377 -259 -390 -15 -8 -24 -8 -32 0 -19 19 -37 12 -58 -24
-24 -41 -30 -42 -47 -14 -12 18 -4 34 81 162 52 78 97 150 100 159 9 25 -11
22 -34 -5 -24 -29 -25 -4 -1 39 9 17 41 79 71 138 49 98 53 109 41 131 -10 19
-11 30 -2 48 27 54 72 173 72 189 0 25 -17 22 -31 -5 -7 -12 -33 -47 -59 -77
-44 -52 -90 -120 -206 -304 -52 -82 -94 -136 -94 -119 0 6 12 28 27 49 15 21
47 80 72 129 36 73 46 103 49 158 7 104 -15 92 -93 -53 -42 -79 -145 -212
-145 -187 0 12 34 76 79 147 38 60 70 122 92 177 22 58 -43 15 -78 -52 -28
-52 -120 -190 -137 -204 -14 -11 -16 -11 -16 2 0 16 11 38 90 178 48 85 74
154 66 174 -5 14 -10 12 -29 -12 -13 -15 -40 -57 -61 -93 -69 -118 -145 -216
-186 -239 -22 -12 -74 -63 -116 -114 -77 -92 -90 -105 -155 -162 -293 -258
-577 -410 -914 -490 -39 -9 -125 -18 -190 -20 -66 -2 -163 -8 -216 -14 -66 -7
-114 -7 -155 0 -32 5 -84 14 -114 19 -30 4 -75 13 -100 19 -25 5 -87 19 -138
31 -203 45 -444 144 -588 240 -168 113 -246 189 -369 363 -101 142 -155 243
-184 347 -12 41 -28 95 -35 120 -26 83 -40 224 -39 380 1 147 21 328 41 367 5
10 12 34 16 53 8 46 71 207 105 273 16 28 45 93 66 142 70 165 144 265 342
461 133 133 148 145 245 192 95 47 198 91 371 160 37 14 67 30 67 35 0 5 -8 6
-17 2 -10 -3 -58 -15 -108 -25 -227 -46 -429 -163 -630 -365 -167 -167 -259
-296 -306 -429 -29 -81 -189 -389 -216 -416 -14 -13 -15 -7 -8 55 10 100 8
116 -19 145 -25 27 -25 28 13 129 42 111 -8 64 -68 -64 -21 -44 -41 -88 -44
-97 -9 -26 -24 -22 -31 7 -4 15 -14 25 -25 25 -29 0 -31 10 -10 62 88 223 217
431 364 586 45 48 105 92 105 77 0 -3 -16 -29 -35 -58 -33 -48 -45 -87 -27
-87 4 0 21 9 37 20 40 27 55 25 55 -5 0 -25 1 -25 28 -11 15 8 65 50 112 93
130 119 178 156 265 202 80 44 133 82 202 148 21 19 59 46 84 59 79 40 283
103 355 110 57 5 73 10 90 31 27 31 48 22 39 -17 -3 -15 -2 -31 3 -34 5 -3 88
-12 183 -21 96 -8 195 -18 222 -21 43 -6 47 -5 47 15 0 13 -6 21 -17 21 -9 0
-14 3 -10 6 10 10 149 -17 234 -46 114 -40 227 -100 346 -187 56 -40 107 -73
114 -73 14 0 8 23 -14 55 -17 25 -17 45 0 45 18 0 59 -40 156 -150 87 -99 106
-116 115 -102 6 11 -27 102 -57 156 -19 33 -87 94 -219 196 -28 22 -36 44 -19
54 10 7 59 -14 109 -45 17 -12 32 -16 32 -10 0 6 -37 38 -82 71 -122 88 -138
101 -138 112 0 15 59 -1 105 -29 22 -14 85 -59 140 -100 55 -41 134 -93 175
-116 75 -42 81 -49 95 -119 3 -16 17 -34 33 -42 38 -20 126 -215 118 -261 -5
-24 2 -54 26 -111 28 -69 33 -91 34 -174 1 -83 5 -105 34 -175 47 -112 101
-195 170 -258 76 -71 194 -136 258 -144 136 -16 325 104 393 251 60 129 84
348 55 496 -28 139 -47 173 -261 464 -86 117 -151 192 -315 359 -171 176 -336
325 -440 399 -240 171 -470 282 -668 323 -41 9 -83 20 -94 26 -57 30 -365 52
-423 30z m161 -32 c3 -5 -20 -9 -50 -9 -30 0 -57 4 -60 9 -3 4 19 8 50 8 30 0
57 -4 60 -8z m144 -29 c12 -8 11 -10 -7 -10 -13 0 -23 5 -23 10 0 13 11 13 30
0z m125 -30 c4 -6 -8 -10 -29 -10 -19 0 -38 5 -41 10 -4 6 8 10 29 10 19 0 38
-4 41 -10z m-1500 -629 c8 -15 -18 -35 -92 -71 -146 -72 -170 -85 -226 -122
-75 -49 -91 -48 -39 2 22 22 44 40 49 40 5 0 20 11 33 25 32 34 216 128 262
134 4 1 9 -3 13 -8z m-185 -320 c0 -16 -94 -80 -104 -71 -12 12 10 37 53 60
41 22 51 24 51 11z m-929 -1911 c11 -41 29 -118 39 -170 40 -200 115 -365 283
-622 32 -48 60 -95 63 -103 10 -26 -10 -16 -55 28 -56 53 -130 166 -183 277
-54 112 -165 435 -183 530 -20 109 -28 197 -19 212 9 14 20 -18 55 -152z
m3924 -1092 c-4 -13 -41 -58 -83 -100 -80 -81 -117 -105 -62 -40 18 20 54 65
82 100 52 64 74 79 63 40z"/>
<path d="M773 4255 c-39 -41 -57 -85 -34 -85 20 0 103 54 118 76 12 19 13 27
3 39 -20 25 -41 17 -87 -30z"/>
<path d="M901 4169 c-168 -152 -318 -334 -395 -479 -22 -42 -22 -42 39 35 26
33 58 69 70 80 13 11 71 76 131 145 59 69 143 162 187 206 115 118 92 127 -32
13z"/>
<path d="M472 3638 c-14 -14 -16 -28 -3 -28 9 0 24 30 18 36 -2 2 -9 -2 -15
-8z"/>
<path d="M906 3198 c-18 -25 -7 -44 18 -35 17 7 23 57 7 57 -6 0 -17 -10 -25
-22z"/>
<path d="M3960 2605 c0 -41 -2 -45 -25 -45 -22 0 -25 -4 -25 -40 0 -36 3 -40
25 -40 25 0 25 -1 25 -85 0 -133 20 -155 135 -155 l65 0 0 35 c0 33 -2 35 -34
35 -63 0 -66 4 -66 91 l0 79 50 0 50 0 0 40 0 40 -50 0 -50 0 0 45 0 45 -50 0
-50 0 0 -45z"/>
<path d="M77 2586 c-22 -46 -44 -137 -52 -211 -8 -67 11 -130 40 -141 25 -10
37 10 40 63 1 26 6 100 10 164 10 154 -3 197 -38 125z"/>
<path d="M177 2573 c-9 -16 -18 -170 -11 -197 7 -30 20 -34 28 -8 11 39 11
205 -1 209 -6 2 -13 0 -16 -4z"/>
<path d="M1290 2542 c-54 -27 -80 -74 -80 -145 0 -42 6 -69 20 -92 36 -59 134
-88 218 -66 39 11 42 14 42 45 0 43 -4 46 -48 31 -78 -27 -127 6 -127 87 0 67
29 92 95 85 25 -2 53 -8 63 -12 26 -11 24 60 -2 75 -32 17 -142 12 -181 -8z"/>
<path d="M1695 2541 c-58 -35 -69 -57 -73 -134 -2 -58 1 -78 17 -104 30 -47
75 -67 151 -68 113 0 170 56 170 167 0 63 -24 109 -72 138 -45 27 -150 28
-193 1z m138 -69 c40 -44 28 -145 -19 -162 -33 -13 -72 4 -84 35 -19 50 -8
116 24 137 20 14 63 8 79 -10z"/>
<path d="M2110 2400 l0 -160 50 0 50 0 0 100 c0 94 2 103 25 125 13 14 33 25
43 25 37 0 47 -28 50 -141 l4 -109 49 0 49 0 0 109 c0 116 -8 152 -42 189 -28
29 -99 30 -145 2 -33 -20 -33 -20 -33 0 0 17 -7 20 -50 20 l-50 0 0 -160z"/>
<path d="M2574 2546 c-3 -8 -4 -25 -2 -38 3 -21 9 -23 77 -28 l74 -5 -76 -81
c-67 -71 -77 -87 -77 -118 l0 -36 140 0 140 0 0 35 0 35 -80 0 c-44 0 -80 3
-80 8 0 4 36 43 80 87 72 71 80 83 80 117 l0 38 -135 0 c-108 0 -137 -3 -141
-14z"/>
<path d="M3055 2542 c-56 -36 -69 -58 -73 -129 -5 -80 13 -122 67 -156 30 -18
49 -22 116 -21 109 2 135 13 135 59 0 40 -1 40 -55 20 -58 -21 -108 -19 -139
6 -52 41 -37 49 88 49 63 0 117 4 120 9 4 5 1 32 -4 59 -8 34 -21 59 -46 83
-32 31 -40 34 -107 37 -58 2 -78 -1 -102 -16z m135 -62 c38 -38 27 -50 -45
-50 -72 0 -78 8 -40 45 29 30 58 32 85 5z"/>
<path d="M3460 2340 l0 -220 50 0 50 0 0 80 0 79 38 -25 c29 -20 45 -25 75
-21 82 11 121 65 122 167 0 74 -25 128 -70 148 -41 19 -103 15 -136 -9 l-29
-20 0 20 c0 18 -6 21 -50 21 l-50 0 0 -220z m214 128 c22 -30 21 -116 -1 -140
-19 -22 -76 -24 -92 -4 -16 19 -25 79 -17 110 14 57 80 77 110 34z"/>
<path d="M4731 1574 c0 -11 3 -14 6 -6 3 7 2 16 -1 19 -3 4 -6 -2 -5 -13z"/>
<path d="M4696 1524 c-9 -22 3 -32 14 -14 12 19 12 30 1 30 -5 0 -12 -7 -15
-16z"/>
<path d="M4677 1483 c-4 -3 -7 -11 -7 -17 0 -6 5 -5 12 2 6 6 9 14 7 17 -3 3
-9 2 -12 -2z"/>
<path d="M3743 1347 c-191 -168 -429 -285 -715 -353 -205 -49 -491 -59 -683
-25 -66 11 -138 21 -160 21 l-40 -1 35 -19 c65 -34 185 -44 460 -37 253 6 370
19 490 54 61 18 209 73 225 84 9 7 79 44 201 109 28 15 65 37 82 48 16 12 34
22 39 22 16 0 123 91 123 105 0 28 -20 25 -57 -8z"/>
</g>
</svg>
