<?xml version="1.0" encoding="UTF-8" standalone="no"?>
<svg
   version="1.0"
   width="424pt"
   height="180pt"
   viewBox="0 0 424 180"
   preserveAspectRatio="xMidYMid meet"
   id="svg144"
   sodipodi:docname="archive_scholar.svg"
   inkscape:version="1.1.2 (0a00cf5339, 2022-02-04)"
   xmlns:inkscape="http://www.inkscape.org/namespaces/inkscape"
   xmlns:sodipodi="http://sodipodi.sourceforge.net/DTD/sodipodi-0.dtd"
   xmlns="http://www.w3.org/2000/svg"
   xmlns:svg="http://www.w3.org/2000/svg">
  <defs
     id="defs148" />
  <sodipodi:namedview
     id="namedview146"
     pagecolor="#ffffff"
     bordercolor="#666666"
     borderopacity="1.0"
     inkscape:pageshadow="2"
     inkscape:pageopacity="0.0"
     inkscape:pagecheckerboard="0"
     inkscape:document-units="pt"
     showgrid="false"
     inkscape:zoom="1.1283937"
     inkscape:cx="294.66667"
     inkscape:cy="294.22356"
     inkscape:window-width="1712"
     inkscape:window-height="899"
     inkscape:window-x="0"
     inkscape:window-y="0"
     inkscape:window-maximized="1"
     inkscape:current-layer="svg144" />
  <g
     transform="matrix(0.10652716,0,0,-0.1148773,-25.776921,336.48617)"
     fill="#000000"
     stroke="none"
     id="g142">
    <path
       d="m 524,2865 c -13,-33 4,-45 61,-45 54,0 55,0 55,30 0,30 -1,30 -55,30 -40,0 -57,-4 -61,-15 z"
       id="path2" />
    <path
       d="m 750,2850 v -30 h 80 81 l -16,30 c -15,29 -18,30 -80,30 h -65 z"
       id="path4" />
    <path
       d="m 1068,2875 c -3,-3 -3,-17 0,-30 4,-23 9,-25 53,-25 48,0 49,1 49,30 0,29 -1,30 -48,30 -27,0 -51,-2 -54,-5 z"
       id="path6" />
    <path
       d="m 1254,2874 c -6,-3 -9,-16 -6,-29 l 4,-25 h 178 c 170,0 179,1 185,20 3,11 3,24 0,30 -6,10 -338,13 -361,4 z"
       id="path8" />
    <path
       d="m 1697,2874 c -4,-4 -7,-18 -7,-31 v -24 l 153,3 152,3 v 25 25 l -146,3 c -80,1 -148,-1 -152,-4 z"
       id="path10" />
    <path
       d="m 2105,2870 c -3,-6 -3,-19 0,-30 6,-19 15,-20 163,-20 157,1 157,1 134,20 -13,11 -40,24 -60,30 -48,13 -229,13 -237,0 z"
       id="path12" />
    <path
       d="m 2560,2850 v -30 h 75 c 41,0 75,3 75,8 0,4 -7,18 -16,30 -13,19 -24,22 -75,22 -59,0 -59,0 -59,-30 z"
       id="path14" />
    <path
       d="m 2870,2850 v -31 l 53,3 c 48,3 52,5 52,28 0,23 -4,25 -52,28 l -53,3 z"
       id="path16" />
    <path
       d="m 3095,2870 c -3,-6 -3,-19 0,-30 6,-19 15,-20 156,-20 h 149 v 30 30 h -149 c -90,0 -152,-4 -156,-10 z"
       id="path18" />
    <path
       d="m 3464,2865 c -4,-8 -4,-22 0,-30 4,-13 35,-15 191,-15 h 186 l -3,28 -3,27 -183,3 c -156,2 -183,0 -188,-13 z"
       id="path20" />
    <path
       d="m 1190,2627 v -227 h 26 26 l -4,205 c -3,196 -4,205 -25,227 l -23,22 z"
       id="path22" />
    <path
       d="m 1628,2808 -3,-43 -62,-3 -63,-3 v -178 c 0,-198 2,-191 -68,-191 h -35 l 23,-25 c 20,-21 33,-25 82,-25 h 58 v 180 180 h 55 55 v 58 c -1,50 -15,92 -33,92 -3,0 -7,-19 -9,-42 z"
       id="path24" />
    <path
       d="m 2020,2819 c 0,-53 -13,-59 -117,-59 -91,0 -93,0 -93,-24 0,-23 2,-24 118,-28 64,-3 123,-3 130,0 7,2 12,23 12,51 0,38 -5,52 -25,71 l -25,23 z"
       id="path26" />
    <path
       d="m 2990,2627 c 0,-145 -4,-227 -10,-227 -6,0 -10,-91 -10,-252 0,-139 -3,-263 -6,-275 -14,-51 -20,-7 -16,102 l 4,115 h -71 -71 v -86 c 0,-47 5,-94 11,-105 15,-28 2,-76 -22,-82 -10,-3 -19,0 -19,6 0,7 -9,1 -19,-12 -11,-14 -21,-19 -25,-13 -3,5 -6,183 -6,394 l -1,384 -24,40 -24,39 -1,-130 c -1,-71 -1,-254 0,-405 0,-151 -2,-290 -6,-307 -6,-32 -8,-33 -61,-33 -36,0 -60,5 -70,15 -18,18 -38,6 -49,-28 -7,-22 -25,-62 -98,-221 -43,-93 -38,-111 28,-101 114,17 155,28 161,43 5,13 -6,14 -80,8 -47,-3 -85,-4 -85,-1 0,2 11,28 24,57 13,29 38,87 56,128 18,41 35,77 37,79 1,3 13,-5 26,-16 12,-11 35,-23 51,-27 l 29,-7 -23,-24 c -12,-13 -35,-29 -51,-35 -24,-10 -27,-15 -18,-31 6,-12 6,-25 0,-37 -6,-11 -6,-24 0,-33 7,-11 15,-7 41,22 18,21 43,39 56,42 12,3 22,4 22,3 0,-2 -9,-29 -20,-61 -24,-69 -23,-62 -4,-69 16,-6 52,62 119,229 18,43 36,80 41,82 5,2 15,-11 23,-29 11,-23 12,-38 3,-57 -5,-14 -29,-70 -52,-125 -38,-91 -44,-126 -22,-126 5,0 19,23 33,52 22,47 66,88 95,88 6,0 24,-25 40,-55 18,-35 35,-55 47,-55 22,0 22,-1 -13,71 l -30,62 45,49 c 25,28 46,55 46,62 6,59 -4,573 -12,582 -6,7 -6,15 -1,18 5,3 7,19 4,36 -4,25 -1,30 17,30 21,0 21,3 21,198 v 198 l -30,29 -30,29 z m -135,-747 c 3,-5 1,-10 -4,-10 -6,0 -11,5 -11,10 0,6 2,10 4,10 3,0 8,-4 11,-10 z m 105,-79 c 0,-13 -26,-21 -67,-21 -42,0 -38,9 9,20 46,11 58,11 58,1 z m -10,-94 c 0,-8 -20,-28 -45,-46 -48,-35 -54,-29 -29,25 13,27 22,34 45,34 17,0 29,-5 29,-13 z"
       id="path28" />
    <path
       d="m 3420,2812 c 0,-49 -6,-52 -116,-52 -83,0 -84,0 -84,-25 0,-25 1,-25 95,-27 52,-1 107,-2 122,-2 21,-1 28,5 34,26 5,19 3,28 -7,32 -8,3 -14,18 -14,34 0,16 -7,35 -15,42 -13,11 -15,7 -15,-28 z"
       id="path30" />
    <path
       d="m 3848,2809 -3,-44 -62,-3 -63,-3 v -179 -180 h 30 30 v 150 149 l 63,3 62,3 3,45 c 3,39 -1,49 -27,74 l -30,29 z"
       id="path32" />
    <path
       d="m 658,2624 c -2,-121 0,-222 4,-225 5,-3 30,-59 57,-125 26,-65 81,-197 120,-293 40,-95 70,-179 67,-187 -4,-10 -25,-14 -76,-14 -38,0 -70,-4 -70,-8 0,-5 10,-18 23,-30 20,-19 35,-22 100,-22 58,0 77,3 77,13 0,8 -18,58 -41,113 -23,54 -60,146 -84,204 -79,194 -106,255 -115,264 -6,6 -10,109 -10,246 v 237 l -25,23 -24,23 z"
       id="path34" />
    <path
       d="m 2473,2759 c 10,-41 -11,-95 -49,-128 l -35,-31 36,-60 c 20,-33 39,-60 42,-60 3,0 -2,12 -12,26 -17,26 -16,27 18,55 48,39 63,87 47,144 -7,24 -21,52 -33,62 -20,18 -20,17 -14,-8 z"
       id="path36" />
    <path
       d="m 2230,2735 c 0,-30 3,-35 24,-35 37,0 76,18 76,34 0,20 -31,36 -69,36 -29,0 -31,-3 -31,-35 z"
       id="path38" />
    <path
       d="m 2780,2750 c 6,-11 13,-20 16,-20 2,0 0,9 -6,20 -6,11 -13,20 -16,20 -2,0 0,-9 6,-20 z"
       id="path40" />
    <path
       d="m 1297,2729 c 36,-36 63,-34 63,6 0,23 -3,25 -47,25 h -48 z"
       id="path42" />
    <path
       d="m 3517,2729 c 36,-36 63,-34 63,6 0,23 -3,25 -47,25 h -48 z"
       id="path44" />
    <path
       d="m 2830,2670 c 6,-11 13,-20 16,-20 2,0 0,9 -6,20 -6,11 -13,20 -16,20 -2,0 0,-9 6,-20 z"
       id="path46" />
    <path
       d="m 2007,2664 c -4,-4 -7,-22 -7,-41 v -33 h -95 -95 v -34 -35 l 113,6 c 61,2 118,6 125,9 21,6 14,76 -11,107 -12,16 -26,25 -30,21 z"
       id="path48" />
    <path
       d="m 3408,2634 -3,-39 -92,-3 -93,-3 v -36 -36 l 38,7 c 20,3 74,6 120,6 h 82 v 48 c 0,38 -5,53 -24,71 l -25,23 z"
       id="path50" />
    <path
       d="m 520,2603 c 0,-87 5,-93 66,-93 h 54 v 70 70 h -60 -60 z"
       id="path52" />
    <path
       d="m 750,2579 v -70 l 53,3 52,3 3,68 3,67 h -56 -55 z"
       id="path54" />
    <path
       d="m 910,2639 c 0,-5 18,-37 40,-70 l 41,-59 h 89 90 v 70 70 h -50 c -49,0 -50,-1 -50,-30 0,-38 -10,-38 -32,0 -16,28 -21,30 -73,30 -32,0 -55,-4 -55,-11 z"
       id="path56" />
    <path
       d="m 1380,2580 v -70 h 49 c 57,0 61,6 61,86 v 54 h -55 -55 z"
       id="path58" />
    <path
       d="m 1692,2583 3,-68 46,-3 c 41,-3 47,0 53,20 3,13 6,33 6,45 0,21 5,22 93,25 87,3 92,4 95,26 3,22 3,22 -148,22 h -151 z"
       id="path60" />
    <path
       d="m 2105,2639 c -4,-5 -4,-37 0,-70 l 7,-59 h 48 49 l 3,42 c 4,61 29,62 63,4 27,-46 27,-46 81,-46 30,0 54,2 54,5 0,3 -10,25 -21,47 l -22,42 22,14 c 11,8 21,18 21,23 0,13 -297,11 -305,-2 z"
       id="path62" />
    <path
       d="m 2560,2580 v -70 h 49 49 l 6,44 c 4,24 4,56 0,70 -6,24 -11,26 -55,26 h -49 z"
       id="path64" />
    <path
       d="m 2710,2642 c 0,-10 47,-81 73,-109 18,-20 30,-23 103,-23 93,0 94,1 94,93 v 47 h -55 -55 v -37 -38 l -22,38 c -21,36 -23,37 -80,37 -32,0 -58,-3 -58,-8 z"
       id="path66" />
    <path
       d="m 3094,2635 c -4,-9 -3,-40 1,-70 l 6,-55 h 50 49 v 45 45 h 95 c 95,0 95,0 95,25 v 25 h -145 c -121,0 -147,-3 -151,-15 z"
       id="path68" />
    <path
       d="m 3602,2583 3,-68 46,-3 c 45,-3 47,-2 53,29 3,17 6,49 6,70 v 39 h -55 -56 z"
       id="path70" />
    <path
       d="m 880,2526 c 0,-106 -2,-116 -20,-126 -12,-6 -28,-10 -38,-9 -42,4 -46,-1 -22,-26 19,-21 33,-25 77,-25 h 53 v 111 c 0,107 -14,168 -41,185 -5,3 -9,-46 -9,-110 z"
       id="path72" />
    <path
       d="m 2230,2490 c 0,-89 0,-90 25,-90 24,0 25,3 25,56 0,40 -6,67 -21,90 -11,19 -23,34 -25,34 -2,0 -4,-40 -4,-90 z"
       id="path74" />
    <path
       d="m 2030,2447 c 0,-26 -6,-39 -20,-47 -20,-11 -19,-12 15,-36 20,-13 40,-24 45,-24 6,0 10,22 10,48 0,39 -5,53 -25,72 l -25,23 z"
       id="path76" />
    <path
       d="m 3430,2441 c 0,-26 -5,-41 -16,-45 -9,-3 -61,-6 -116,-6 -76,0 -99,-3 -96,-12 3,-7 29,-88 58,-180 48,-148 70,-193 70,-140 0,22 -70,245 -81,257 -20,21 -5,25 86,25 85,0 95,2 95,18 0,23 19,42 42,42 25,0 23,22 -5,53 -31,36 -37,34 -37,-12 z"
       id="path78" />
    <path
       d="m 2487,2431 c 8,-30 -10,-41 -71,-41 h -49 l 23,-25 c 18,-19 34,-25 67,-25 38,0 43,3 43,23 0,13 4,27 9,33 6,5 3,18 -9,34 l -19,25 z"
       id="path80" />
    <path
       d="m 3635,2391 c -3,-6 -4,-15 -1,-20 4,-5 2,-11 -4,-13 -5,-1 -35,-68 -65,-148 -31,-80 -81,-209 -111,-287 l -56,-143 h -71 -71 l 29,-30 c 27,-28 34,-30 100,-30 h 72 l 107,280 c 58,153 106,286 106,295 0,9 -5,26 -11,37 -8,15 -8,19 1,13 8,-5 11,1 8,21 -3,29 -22,43 -33,25 z"
       id="path82" />
    <path
       d="m 1695,2371 c -22,-10 -49,-28 -59,-40 l -19,-21 h 211 c 117,0 212,4 212,8 0,14 -33,40 -73,57 -54,22 -219,20 -272,-4 z"
       id="path84" />
    <path
       d="m 503,2351 c -6,-17 -8,-32 -5,-35 3,-3 43,-6 89,-6 87,0 89,1 77,48 -6,20 -12,22 -78,22 -70,0 -72,-1 -83,-29 z"
       id="path86" />
    <path
       d="m 970,2345 v -35 h 201 c 218,0 233,5 149,48 -40,20 -58,22 -197,22 H 970 Z"
       id="path88" />
    <path
       d="m 2150,2345 v -35 h 70 70 v 35 35 h -70 -70 z"
       id="path90" />
    <path
       d="m 2520,2345 v -35 h 70 70 v 35 35 h -70 -70 z"
       id="path92" />
    <path
       d="m 2812,2348 3,-33 h 65 65 l 3,33 3,32 h -71 -71 z"
       id="path94" />
    <path
       d="m 3030,2370 c 0,-5 5,-21 12,-35 11,-24 16,-25 86,-25 72,0 74,1 68,23 -3,12 -6,28 -6,35 0,8 -23,12 -80,12 -44,0 -80,-4 -80,-10 z"
       id="path96" />
    <path
       d="m 3446,2358 c -12,-46 -9,-48 62,-48 73,0 68,-3 100,63 2,4 -32,7 -76,7 -74,0 -80,-2 -86,-22 z"
       id="path98" />
    <path
       d="m 3680,2368 c 0,-7 3,-23 6,-35 6,-23 8,-23 194,-23 201,0 200,0 200,51 0,18 -10,19 -200,19 -153,0 -200,-3 -200,-12 z"
       id="path100" />
    <path
       d="m 2310,2267 c 0,-96 0,-98 23,-95 20,3 22,9 25,68 2,57 -1,69 -22,95 l -25,30 z"
       id="path102" />
    <path
       d="m 4100,2323 c 0,-74 2,-73 -136,-73 h -124 v -40 c 0,-36 3,-40 25,-40 14,0 25,5 25,10 0,6 50,10 130,10 h 130 v 58 c -1,45 -6,63 -25,87 l -25,30 z"
       id="path104" />
    <path
       d="m 2013,2249 -51,-52 -33,25 c -44,33 -76,40 -124,27 -106,-30 -151,-177 -80,-265 l 23,-29 v 55 c 1,60 14,104 40,134 47,51 147,65 200,27 17,-11 34,-21 39,-21 12,0 93,83 93,96 0,10 -41,54 -51,54 -2,0 -27,-23 -56,-51 z"
       id="path106" />
    <path
       d="m 1435,2238 c 11,-58 -12,-118 -61,-164 l -44,-42 36,-61 c 38,-64 56,-83 29,-30 -9,17 -15,32 -13,33 102,62 135,154 88,246 -27,53 -43,61 -35,18 z"
       id="path108" />
    <path
       d="m 1130,2200 c 0,-47 2,-50 25,-50 18,0 25,5 25,20 0,17 7,20 40,20 33,0 40,3 40,20 0,26 -29,40 -84,40 h -46 z"
       id="path110" />
    <path
       d="m 575,2155 c -5,-11 -14,-35 -21,-54 -21,-52 -18,-61 21,-61 47,0 52,18 27,83 -17,43 -21,49 -27,32 z"
       id="path112" />
    <path
       d="m 4080,2084 c 0,-38 -4,-54 -16,-58 -9,-3 -63,-6 -120,-6 h -104 v -45 c 0,-41 2,-45 25,-45 16,0 25,6 25,15 0,12 19,15 113,15 75,0 117,4 125,12 7,7 12,31 12,55 0,33 -6,50 -30,75 l -29,33 z"
       id="path114" />
    <path
       d="m 375,2048 c -10,-24 -26,-67 -36,-95 l -18,-53 h 68 c 37,0 72,5 78,11 10,10 124,8 305,-6 l 78,-7 -25,69 c -51,137 -38,123 -121,123 h -74 l 10,-26 c 6,-14 10,-27 10,-30 0,-2 -31,-4 -70,-4 h -70 l 10,26 c 6,14 10,27 10,30 0,2 -31,4 -69,4 h -69 z"
       id="path116" />
    <path
       d="m 972,1998 3,-93 68,-3 67,-3 v 66 c 0,62 1,65 24,65 19,0 32,-14 62,-65 l 38,-65 h 74 74 l -40,75 c -37,67 -39,75 -22,80 10,3 24,12 30,20 11,13 -13,15 -184,15 H 969 Z"
       id="path118" />
    <path
       d="m 1520,2067 c 0,-41 28,-118 51,-143 22,-24 24,-24 238,-24 h 216 l -33,33 c -20,20 -35,28 -40,21 -30,-43 -133,-59 -192,-29 -39,20 -69,66 -78,117 l -7,43 -78,3 c -75,3 -77,2 -77,-21 z"
       id="path120" />
    <path
       d="m 2152,1998 3,-93 68,-3 67,-3 v 71 70 h 115 115 v -70 -70 h 70 70 v 95 95 h -255 -256 z"
       id="path122" />
    <path
       d="m 3140,2078 c 1,-7 16,-49 34,-93 l 32,-80 105,-3 105,-3 26,54 c 15,29 34,72 42,95 l 15,42 h -69 -69 l -17,-55 c -10,-30 -21,-55 -24,-55 -3,0 -14,25 -24,55 l -17,55 h -70 c -49,0 -69,-4 -69,-12 z"
       id="path124" />
    <path
       d="m 3680,2041 c 0,-26 3,-69 6,-95 l 7,-46 201,2 c 169,2 179,3 63,5 l -138,4 3,62 3,62 123,3 122,3 v 24 25 h -195 -195 z"
       id="path126" />
    <path
       d="m 2310,1923 c 0,-140 1,-138 -73,-141 -33,-2 -63,-5 -66,-7 -2,-3 5,-15 17,-28 12,-13 22,-27 22,-31 0,-5 -23,-33 -50,-63 -28,-31 -57,-71 -65,-90 -21,-49 -19,-106 3,-126 23,-21 93,-22 130,-3 81,43 144,170 122,247 -7,22 -7,35 0,37 6,2 10,52 10,123 v 119 h 70 70 v 30 30 h -95 -95 z m -7,-241 c 17,-86 -65,-212 -137,-212 -21,0 -36,6 -40,16 -7,18 13,69 46,118 22,32 104,104 119,105 4,1 9,-12 12,-27 z"
       id="path128" />
    <path
       d="m 1128,1898 -3,-113 -69,-3 -69,-3 28,-29 c 26,-28 34,-30 97,-30 h 68 v 120 c 0,94 -4,126 -16,145 -9,14 -20,25 -25,25 -5,0 -10,-51 -11,-112 z"
       id="path130" />
    <path
       d="m 1419,1885 c 5,-11 17,-29 26,-40 l 16,-20 -10,20 c -5,11 -17,29 -26,40 l -16,20 z"
       id="path132" />
    <path
       d="m 472,1873 c -5,-10 -15,-35 -21,-55 l -13,-38 h -69 c -38,0 -69,-4 -69,-8 0,-5 11,-19 24,-31 20,-19 32,-22 97,-19 l 74,3 22,55 22,55 81,3 c 69,2 81,5 76,18 -3,9 -6,20 -6,25 0,5 -47,9 -105,9 -89,0 -106,-3 -113,-17 z"
       id="path134" />
    <path
       d="m 4108,1839 -3,-54 -197,-3 c -109,-1 -198,-6 -198,-10 0,-5 10,-18 23,-30 22,-21 32,-22 225,-22 h 202 v 63 c 0,54 -4,67 -24,86 l -25,23 z"
       id="path136" />
    <path
       d="m 2050,1838 c -14,-11 -47,-31 -75,-44 -43,-20 -64,-22 -155,-20 -79,2 -114,7 -140,21 -31,16 -34,16 -21,1 8,-9 34,-29 58,-43 l 43,-25 -35,-48 c -44,-60 -85,-147 -85,-182 0,-60 74,-79 129,-32 53,44 34,80 -23,44 -57,-35 -59,10 -4,110 49,88 51,90 122,83 33,-3 62,-7 64,-8 1,-1 -7,-24 -19,-51 -75,-172 -82,-191 -74,-203 13,-22 25,-10 56,57 36,75 42,82 82,82 22,0 27,-4 23,-17 -2,-10 -7,-28 -11,-39 -8,-31 21,-39 39,-11 8,12 24,47 36,77 12,30 28,70 36,87 13,32 10,63 -7,63 -5,0 -20,-22 -33,-49 -24,-47 -44,-61 -89,-61 -16,0 -16,2 2,39 14,27 32,43 58,54 21,8 54,29 73,45 l 35,30 -21,28 c -26,36 -34,38 -64,12 z"
       id="path138" />
    <path
       d="m 1460,1803 c 0,-22 -4,-23 -82,-23 h -82 l 29,-30 c 25,-26 36,-30 82,-30 52,0 53,0 53,-31 0,-43 15,-68 68,-116 l 47,-41 -24,-26 c -32,-34 -98,-58 -147,-54 -55,4 -56,31 -3,92 29,32 39,50 31,58 -20,20 -122,-95 -122,-139 0,-5 9,-19 20,-31 17,-18 32,-22 87,-22 79,0 139,29 173,85 19,31 20,40 10,64 -6,16 -29,43 -51,60 -71,58 -45,123 50,123 35,-1 51,4 55,14 8,22 -17,28 -89,21 -61,-6 -65,-5 -84,21 -20,26 -20,26 -21,5 z"
       id="path140" />
  </g>
</svg>
