<?xml version="1.0" standalone="no"?>
<!DOCTYPE svg PUBLIC "-//W3C//DTD SVG 20010904//EN"
 "http://www.w3.org/TR/2001/REC-SVG-20010904/DTD/svg10.dtd">
<svg version="1.0" xmlns="http://www.w3.org/2000/svg"
 width="442.000000pt" height="442.000000pt" viewBox="0 0 442.000000 442.000000"
 preserveAspectRatio="xMidYMid meet">

<g transform="translate(0.000000,442.000000) scale(0.100000,-0.100000)"
fill="#000000" stroke="none">
<path d="M524 2865 c-13 -33 4 -45 61 -45 54 0 55 0 55 30 0 30 -1 30 -55 30
-40 0 -57 -4 -61 -15z"/>
<path d="M750 2850 l0 -30 80 0 81 0 -16 30 c-15 29 -18 30 -80 30 l-65 0 0
-30z"/>
<path d="M1068 2875 c-3 -3 -3 -17 0 -30 4 -23 9 -25 53 -25 48 0 49 1 49 30
0 29 -1 30 -48 30 -27 0 -51 -2 -54 -5z"/>
<path d="M1254 2874 c-6 -3 -9 -16 -6 -29 l4 -25 178 0 c170 0 179 1 185 20 3
11 3 24 0 30 -6 10 -338 13 -361 4z"/>
<path d="M1697 2874 c-4 -4 -7 -18 -7 -31 l0 -24 153 3 152 3 0 25 0 25 -146
3 c-80 1 -148 -1 -152 -4z"/>
<path d="M2105 2870 c-3 -6 -3 -19 0 -30 6 -19 15 -20 163 -20 157 1 157 1
134 20 -13 11 -40 24 -60 30 -48 13 -229 13 -237 0z"/>
<path d="M2560 2850 l0 -30 75 0 c41 0 75 3 75 8 0 4 -7 18 -16 30 -13 19 -24
22 -75 22 -59 0 -59 0 -59 -30z"/>
<path d="M2870 2850 l0 -31 53 3 c48 3 52 5 52 28 0 23 -4 25 -52 28 l-53 3 0
-31z"/>
<path d="M3095 2870 c-3 -6 -3 -19 0 -30 6 -19 15 -20 156 -20 l149 0 0 30 0
30 -149 0 c-90 0 -152 -4 -156 -10z"/>
<path d="M3464 2865 c-4 -8 -4 -22 0 -30 4 -13 35 -15 191 -15 l186 0 -3 28
-3 27 -183 3 c-156 2 -183 0 -188 -13z"/>
<path d="M1190 2627 l0 -227 26 0 26 0 -4 205 c-3 196 -4 205 -25 227 l-23 22
0 -227z"/>
<path d="M1628 2808 l-3 -43 -62 -3 -63 -3 0 -178 c0 -198 2 -191 -68 -191
l-35 0 23 -25 c20 -21 33 -25 82 -25 l58 0 0 180 0 180 55 0 55 0 0 58 c-1 50
-15 92 -33 92 -3 0 -7 -19 -9 -42z"/>
<path d="M2020 2819 c0 -53 -13 -59 -117 -59 -91 0 -93 0 -93 -24 0 -23 2 -24
118 -28 64 -3 123 -3 130 0 7 2 12 23 12 51 0 38 -5 52 -25 71 l-25 23 0 -34z"/>
<path d="M2990 2627 c0 -145 -4 -227 -10 -227 -6 0 -10 -91 -10 -252 0 -139
-3 -263 -6 -275 -14 -51 -20 -7 -16 102 l4 115 -71 0 -71 0 0 -86 c0 -47 5
-94 11 -105 15 -28 2 -76 -22 -82 -10 -3 -19 0 -19 6 0 7 -9 1 -19 -12 -11
-14 -21 -19 -25 -13 -3 5 -6 183 -6 394 l-1 384 -24 40 -24 39 -1 -130 c-1
-71 -1 -254 0 -405 0 -151 -2 -290 -6 -307 -6 -32 -8 -33 -61 -33 -36 0 -60 5
-70 15 -18 18 -38 6 -49 -28 -7 -22 -25 -62 -98 -221 -43 -93 -38 -111 28
-101 114 17 155 28 161 43 5 13 -6 14 -80 8 -47 -3 -85 -4 -85 -1 0 2 11 28
24 57 13 29 38 87 56 128 18 41 35 77 37 79 1 3 13 -5 26 -16 12 -11 35 -23
51 -27 l29 -7 -23 -24 c-12 -13 -35 -29 -51 -35 -24 -10 -27 -15 -18 -31 6
-12 6 -25 0 -37 -6 -11 -6 -24 0 -33 7 -11 15 -7 41 22 18 21 43 39 56 42 12
3 22 4 22 3 0 -2 -9 -29 -20 -61 -24 -69 -23 -62 -4 -69 16 -6 52 62 119 229
18 43 36 80 41 82 5 2 15 -11 23 -29 11 -23 12 -38 3 -57 -5 -14 -29 -70 -52
-125 -38 -91 -44 -126 -22 -126 5 0 19 23 33 52 22 47 66 88 95 88 6 0 24 -25
40 -55 18 -35 35 -55 47 -55 22 0 22 -1 -13 71 l-30 62 45 49 c25 28 46 55 46
62 6 59 -4 573 -12 582 -6 7 -6 15 -1 18 5 3 7 19 4 36 -4 25 -1 30 17 30 21
0 21 3 21 198 l0 198 -30 29 -30 29 0 -227z m-135 -747 c3 -5 1 -10 -4 -10 -6
0 -11 5 -11 10 0 6 2 10 4 10 3 0 8 -4 11 -10z m105 -79 c0 -13 -26 -21 -67
-21 -42 0 -38 9 9 20 46 11 58 11 58 1z m-10 -94 c0 -8 -20 -28 -45 -46 -48
-35 -54 -29 -29 25 13 27 22 34 45 34 17 0 29 -5 29 -13z"/>
<path d="M3420 2812 c0 -49 -6 -52 -116 -52 -83 0 -84 0 -84 -25 0 -25 1 -25
95 -27 52 -1 107 -2 122 -2 21 -1 28 5 34 26 5 19 3 28 -7 32 -8 3 -14 18 -14
34 0 16 -7 35 -15 42 -13 11 -15 7 -15 -28z"/>
<path d="M3848 2809 l-3 -44 -62 -3 -63 -3 0 -179 0 -180 30 0 30 0 0 150 0
149 63 3 62 3 3 45 c3 39 -1 49 -27 74 l-30 29 -3 -44z"/>
<path d="M658 2624 c-2 -121 0 -222 4 -225 5 -3 30 -59 57 -125 26 -65 81
-197 120 -293 40 -95 70 -179 67 -187 -4 -10 -25 -14 -76 -14 -38 0 -70 -4
-70 -8 0 -5 10 -18 23 -30 20 -19 35 -22 100 -22 58 0 77 3 77 13 0 8 -18 58
-41 113 -23 54 -60 146 -84 204 -79 194 -106 255 -115 264 -6 6 -10 109 -10
246 l0 237 -25 23 -24 23 -3 -219z"/>
<path d="M2473 2759 c10 -41 -11 -95 -49 -128 l-35 -31 36 -60 c20 -33 39 -60
42 -60 3 0 -2 12 -12 26 -17 26 -16 27 18 55 48 39 63 87 47 144 -7 24 -21 52
-33 62 -20 18 -20 17 -14 -8z"/>
<path d="M2230 2735 c0 -30 3 -35 24 -35 37 0 76 18 76 34 0 20 -31 36 -69 36
-29 0 -31 -3 -31 -35z"/>
<path d="M2780 2750 c6 -11 13 -20 16 -20 2 0 0 9 -6 20 -6 11 -13 20 -16 20
-2 0 0 -9 6 -20z"/>
<path d="M1297 2729 c36 -36 63 -34 63 6 0 23 -3 25 -47 25 l-48 0 32 -31z"/>
<path d="M3517 2729 c36 -36 63 -34 63 6 0 23 -3 25 -47 25 l-48 0 32 -31z"/>
<path d="M2830 2670 c6 -11 13 -20 16 -20 2 0 0 9 -6 20 -6 11 -13 20 -16 20
-2 0 0 -9 6 -20z"/>
<path d="M2007 2664 c-4 -4 -7 -22 -7 -41 l0 -33 -95 0 -95 0 0 -34 0 -35 113
6 c61 2 118 6 125 9 21 6 14 76 -11 107 -12 16 -26 25 -30 21z"/>
<path d="M3408 2634 l-3 -39 -92 -3 -93 -3 0 -36 0 -36 38 7 c20 3 74 6 120 6
l82 0 0 48 c0 38 -5 53 -24 71 l-25 23 -3 -38z"/>
<path d="M520 2603 c0 -87 5 -93 66 -93 l54 0 0 70 0 70 -60 0 -60 0 0 -47z"/>
<path d="M750 2579 l0 -70 53 3 52 3 3 68 3 67 -56 0 -55 0 0 -71z"/>
<path d="M910 2639 c0 -5 18 -37 40 -70 l41 -59 89 0 90 0 0 70 0 70 -50 0
c-49 0 -50 -1 -50 -30 0 -38 -10 -38 -32 0 -16 28 -21 30 -73 30 -32 0 -55 -4
-55 -11z"/>
<path d="M1380 2580 l0 -70 49 0 c57 0 61 6 61 86 l0 54 -55 0 -55 0 0 -70z"/>
<path d="M1692 2583 l3 -68 46 -3 c41 -3 47 0 53 20 3 13 6 33 6 45 0 21 5 22
93 25 87 3 92 4 95 26 3 22 3 22 -148 22 l-151 0 3 -67z"/>
<path d="M2105 2639 c-4 -5 -4 -37 0 -70 l7 -59 48 0 49 0 3 42 c4 61 29 62
63 4 27 -46 27 -46 81 -46 30 0 54 2 54 5 0 3 -10 25 -21 47 l-22 42 22 14
c11 8 21 18 21 23 0 13 -297 11 -305 -2z"/>
<path d="M2560 2580 l0 -70 49 0 49 0 6 44 c4 24 4 56 0 70 -6 24 -11 26 -55
26 l-49 0 0 -70z"/>
<path d="M2710 2642 c0 -10 47 -81 73 -109 18 -20 30 -23 103 -23 93 0 94 1
94 93 l0 47 -55 0 -55 0 0 -37 0 -38 -22 38 c-21 36 -23 37 -80 37 -32 0 -58
-3 -58 -8z"/>
<path d="M3094 2635 c-4 -9 -3 -40 1 -70 l6 -55 50 0 49 0 0 45 0 45 95 0 c95
0 95 0 95 25 l0 25 -145 0 c-121 0 -147 -3 -151 -15z"/>
<path d="M3602 2583 l3 -68 46 -3 c45 -3 47 -2 53 29 3 17 6 49 6 70 l0 39
-55 0 -56 0 3 -67z"/>
<path d="M880 2526 c0 -106 -2 -116 -20 -126 -12 -6 -28 -10 -38 -9 -42 4 -46
-1 -22 -26 19 -21 33 -25 77 -25 l53 0 0 111 c0 107 -14 168 -41 185 -5 3 -9
-46 -9 -110z"/>
<path d="M2230 2490 c0 -89 0 -90 25 -90 24 0 25 3 25 56 0 40 -6 67 -21 90
-11 19 -23 34 -25 34 -2 0 -4 -40 -4 -90z"/>
<path d="M2030 2447 c0 -26 -6 -39 -20 -47 -20 -11 -19 -12 15 -36 20 -13 40
-24 45 -24 6 0 10 22 10 48 0 39 -5 53 -25 72 l-25 23 0 -36z"/>
<path d="M3430 2441 c0 -26 -5 -41 -16 -45 -9 -3 -61 -6 -116 -6 -76 0 -99 -3
-96 -12 3 -7 29 -88 58 -180 48 -148 70 -193 70 -140 0 22 -70 245 -81 257
-20 21 -5 25 86 25 85 0 95 2 95 18 0 23 19 42 42 42 25 0 23 22 -5 53 -31 36
-37 34 -37 -12z"/>
<path d="M2487 2431 c8 -30 -10 -41 -71 -41 l-49 0 23 -25 c18 -19 34 -25 67
-25 38 0 43 3 43 23 0 13 4 27 9 33 6 5 3 18 -9 34 l-19 25 6 -24z"/>
<path d="M3635 2391 c-3 -6 -4 -15 -1 -20 4 -5 2 -11 -4 -13 -5 -1 -35 -68
-65 -148 -31 -80 -81 -209 -111 -287 l-56 -143 -71 0 -71 0 29 -30 c27 -28 34
-30 100 -30 l72 0 107 280 c58 153 106 286 106 295 0 9 -5 26 -11 37 -8 15 -8
19 1 13 8 -5 11 1 8 21 -3 29 -22 43 -33 25z"/>
<path d="M1695 2371 c-22 -10 -49 -28 -59 -40 l-19 -21 211 0 c117 0 212 4
212 8 0 14 -33 40 -73 57 -54 22 -219 20 -272 -4z"/>
<path d="M503 2351 c-6 -17 -8 -32 -5 -35 3 -3 43 -6 89 -6 87 0 89 1 77 48
-6 20 -12 22 -78 22 -70 0 -72 -1 -83 -29z"/>
<path d="M970 2345 l0 -35 201 0 c218 0 233 5 149 48 -40 20 -58 22 -197 22
l-153 0 0 -35z"/>
<path d="M2150 2345 l0 -35 70 0 70 0 0 35 0 35 -70 0 -70 0 0 -35z"/>
<path d="M2520 2345 l0 -35 70 0 70 0 0 35 0 35 -70 0 -70 0 0 -35z"/>
<path d="M2812 2348 l3 -33 65 0 65 0 3 33 3 32 -71 0 -71 0 3 -32z"/>
<path d="M3030 2370 c0 -5 5 -21 12 -35 11 -24 16 -25 86 -25 72 0 74 1 68 23
-3 12 -6 28 -6 35 0 8 -23 12 -80 12 -44 0 -80 -4 -80 -10z"/>
<path d="M3446 2358 c-12 -46 -9 -48 62 -48 73 0 68 -3 100 63 2 4 -32 7 -76
7 -74 0 -80 -2 -86 -22z"/>
<path d="M3680 2368 c0 -7 3 -23 6 -35 6 -23 8 -23 194 -23 201 0 200 0 200
51 0 18 -10 19 -200 19 -153 0 -200 -3 -200 -12z"/>
<path d="M2310 2267 c0 -96 0 -98 23 -95 20 3 22 9 25 68 2 57 -1 69 -22 95
l-25 30 -1 -98z"/>
<path d="M4100 2323 c0 -74 2 -73 -136 -73 l-124 0 0 -40 c0 -36 3 -40 25 -40
14 0 25 5 25 10 0 6 50 10 130 10 l130 0 0 58 c-1 45 -6 63 -25 87 l-25 30 0
-42z"/>
<path d="M2013 2249 l-51 -52 -33 25 c-44 33 -76 40 -124 27 -106 -30 -151
-177 -80 -265 l23 -29 0 55 c1 60 14 104 40 134 47 51 147 65 200 27 17 -11
34 -21 39 -21 12 0 93 83 93 96 0 10 -41 54 -51 54 -2 0 -27 -23 -56 -51z"/>
<path d="M1435 2238 c11 -58 -12 -118 -61 -164 l-44 -42 36 -61 c38 -64 56
-83 29 -30 -9 17 -15 32 -13 33 102 62 135 154 88 246 -27 53 -43 61 -35 18z"/>
<path d="M1130 2200 c0 -47 2 -50 25 -50 18 0 25 5 25 20 0 17 7 20 40 20 33
0 40 3 40 20 0 26 -29 40 -84 40 l-46 0 0 -50z"/>
<path d="M575 2155 c-5 -11 -14 -35 -21 -54 -21 -52 -18 -61 21 -61 47 0 52
18 27 83 -17 43 -21 49 -27 32z"/>
<path d="M4080 2084 c0 -38 -4 -54 -16 -58 -9 -3 -63 -6 -120 -6 l-104 0 0
-45 c0 -41 2 -45 25 -45 16 0 25 6 25 15 0 12 19 15 113 15 75 0 117 4 125 12
7 7 12 31 12 55 0 33 -6 50 -30 75 l-29 33 -1 -51z"/>
<path d="M375 2048 c-10 -24 -26 -67 -36 -95 l-18 -53 68 0 c37 0 72 5 78 11
10 10 124 8 305 -6 l78 -7 -25 69 c-51 137 -38 123 -121 123 l-74 0 10 -26 c6
-14 10 -27 10 -30 0 -2 -31 -4 -70 -4 l-70 0 10 26 c6 14 10 27 10 30 0 2 -31
4 -69 4 l-69 0 -17 -42z"/>
<path d="M972 1998 l3 -93 68 -3 67 -3 0 66 c0 62 1 65 24 65 19 0 32 -14 62
-65 l38 -65 74 0 74 0 -40 75 c-37 67 -39 75 -22 80 10 3 24 12 30 20 11 13
-13 15 -184 15 l-197 0 3 -92z"/>
<path d="M1520 2067 c0 -41 28 -118 51 -143 22 -24 24 -24 238 -24 l216 0 -33
33 c-20 20 -35 28 -40 21 -30 -43 -133 -59 -192 -29 -39 20 -69 66 -78 117
l-7 43 -78 3 c-75 3 -77 2 -77 -21z"/>
<path d="M2152 1998 l3 -93 68 -3 67 -3 0 71 0 70 115 0 115 0 0 -70 0 -70 70
0 70 0 0 95 0 95 -255 0 -256 0 3 -92z"/>
<path d="M3140 2078 c1 -7 16 -49 34 -93 l32 -80 105 -3 105 -3 26 54 c15 29
34 72 42 95 l15 42 -69 0 -69 0 -17 -55 c-10 -30 -21 -55 -24 -55 -3 0 -14 25
-24 55 l-17 55 -70 0 c-49 0 -69 -4 -69 -12z"/>
<path d="M3680 2041 c0 -26 3 -69 6 -95 l7 -46 201 2 c169 2 179 3 63 5 l-138
4 3 62 3 62 123 3 122 3 0 24 0 25 -195 0 -195 0 0 -49z"/>
<path d="M2310 1923 c0 -140 1 -138 -73 -141 -33 -2 -63 -5 -66 -7 -2 -3 5
-15 17 -28 12 -13 22 -27 22 -31 0 -5 -23 -33 -50 -63 -28 -31 -57 -71 -65
-90 -21 -49 -19 -106 3 -126 23 -21 93 -22 130 -3 81 43 144 170 122 247 -7
22 -7 35 0 37 6 2 10 52 10 123 l0 119 70 0 70 0 0 30 0 30 -95 0 -95 0 0 -97z
m-7 -241 c17 -86 -65 -212 -137 -212 -21 0 -36 6 -40 16 -7 18 13 69 46 118
22 32 104 104 119 105 4 1 9 -12 12 -27z"/>
<path d="M1128 1898 l-3 -113 -69 -3 -69 -3 28 -29 c26 -28 34 -30 97 -30 l68
0 0 120 c0 94 -4 126 -16 145 -9 14 -20 25 -25 25 -5 0 -10 -51 -11 -112z"/>
<path d="M1419 1885 c5 -11 17 -29 26 -40 l16 -20 -10 20 c-5 11 -17 29 -26
40 l-16 20 10 -20z"/>
<path d="M472 1873 c-5 -10 -15 -35 -21 -55 l-13 -38 -69 0 c-38 0 -69 -4 -69
-8 0 -5 11 -19 24 -31 20 -19 32 -22 97 -19 l74 3 22 55 22 55 81 3 c69 2 81
5 76 18 -3 9 -6 20 -6 25 0 5 -47 9 -105 9 -89 0 -106 -3 -113 -17z"/>
<path d="M4108 1839 l-3 -54 -197 -3 c-109 -1 -198 -6 -198 -10 0 -5 10 -18
23 -30 22 -21 32 -22 225 -22 l202 0 0 63 c0 54 -4 67 -24 86 l-25 23 -3 -53z"/>
<path d="M2050 1838 c-14 -11 -47 -31 -75 -44 -43 -20 -64 -22 -155 -20 -79 2
-114 7 -140 21 -31 16 -34 16 -21 1 8 -9 34 -29 58 -43 l43 -25 -35 -48 c-44
-60 -85 -147 -85 -182 0 -60 74 -79 129 -32 53 44 34 80 -23 44 -57 -35 -59
10 -4 110 49 88 51 90 122 83 33 -3 62 -7 64 -8 1 -1 -7 -24 -19 -51 -75 -172
-82 -191 -74 -203 13 -22 25 -10 56 57 36 75 42 82 82 82 22 0 27 -4 23 -17
-2 -10 -7 -28 -11 -39 -8 -31 21 -39 39 -11 8 12 24 47 36 77 12 30 28 70 36
87 13 32 10 63 -7 63 -5 0 -20 -22 -33 -49 -24 -47 -44 -61 -89 -61 -16 0 -16
2 2 39 14 27 32 43 58 54 21 8 54 29 73 45 l35 30 -21 28 c-26 36 -34 38 -64
12z"/>
<path d="M1460 1803 c0 -22 -4 -23 -82 -23 l-82 0 29 -30 c25 -26 36 -30 82
-30 52 0 53 0 53 -31 0 -43 15 -68 68 -116 l47 -41 -24 -26 c-32 -34 -98 -58
-147 -54 -55 4 -56 31 -3 92 29 32 39 50 31 58 -20 20 -122 -95 -122 -139 0
-5 9 -19 20 -31 17 -18 32 -22 87 -22 79 0 139 29 173 85 19 31 20 40 10 64
-6 16 -29 43 -51 60 -71 58 -45 123 50 123 35 -1 51 4 55 14 8 22 -17 28 -89
21 -61 -6 -65 -5 -84 21 -20 26 -20 26 -21 5z"/>
</g>
</svg>
