<?xml version="1.0" encoding="UTF-8" standalone="no"?>
<svg
   width="1628"
   height="527.401"
   viewBox="0 0 1628 527.401"
   fill="none"
   version="1.1"
   id="svg16"
   sodipodi:docname="DOAJ_logo-colour.svg"
   inkscape:version="1.1 (c68e22c387, 2021-05-23)"
   xmlns:inkscape="http://www.inkscape.org/namespaces/inkscape"
   xmlns:sodipodi="http://sodipodi.sourceforge.net/DTD/sodipodi-0.dtd"
   xmlns="http://www.w3.org/2000/svg"
   xmlns:svg="http://www.w3.org/2000/svg">
  <defs
     id="defs20" />
  <sodipodi:namedview
     id="namedview18"
     pagecolor="#ffffff"
     bordercolor="#666666"
     borderopacity="1.0"
     inkscape:pageshadow="2"
     inkscape:pageopacity="0.0"
     inkscape:pagecheckerboard="0"
     showgrid="false"
     fit-margin-top="100"
     fit-margin-left="100"
     fit-margin-right="100"
     fit-margin-bottom="100"
     inkscape:zoom="0.55104167"
     inkscape:cx="1160.5293"
     inkscape:cy="264.04537"
     inkscape:window-width="1858"
     inkscape:window-height="1057"
     inkscape:window-x="54"
     inkscape:window-y="1061"
     inkscape:window-maximized="1"
     inkscape:current-layer="svg16" />
  <path
     d="m 598.314,102.645 h 112.397 c 43.489,0.294 76.107,18.365 97.851,54.215 7.787,12.048 12.709,24.683 14.766,37.906 1.616,13.223 2.424,36.07 2.424,68.54 0,34.527 -1.249,58.623 -3.746,72.287 -1.176,6.905 -2.939,13.076 -5.29,18.512 -2.497,5.289 -5.509,10.799 -9.035,16.529 -9.403,15.133 -22.48,27.621 -39.229,37.465 -16.602,10.579 -36.951,15.868 -61.047,15.868 H 598.314 Z m 48.706,275.262 h 58.181 c 27.328,0 47.163,-9.33 59.504,-27.989 5.437,-6.906 8.889,-15.648 10.359,-26.226 1.322,-10.432 1.983,-29.973 1.983,-58.623 0,-27.915 -0.661,-47.897 -1.983,-59.945 -1.763,-12.047 -5.951,-21.818 -12.562,-29.311 -13.517,-18.659 -32.617,-27.695 -57.301,-27.107 H 647.02 Z"
     fill="#282624"
     id="path2" />
  <path
     d="m 846.517,263.306 c 0,-37.319 1.102,-62.296 3.306,-74.931 2.351,-12.635 5.947,-22.847 10.797,-30.634 7.79,-14.839 20.28,-28.062 37.47,-39.669 16.89,-11.754 37.98,-17.778 63.25,-18.072 25.56,0.294 46.87,6.318 63.91,18.072 16.9,11.607 29.09,24.83 36.58,39.669 5.44,7.787 9.19,17.999 11.24,30.634 1.91,12.635 2.87,37.612 2.87,74.931 0,36.731 -0.96,61.561 -2.87,74.49 -2.05,12.93 -5.8,23.288 -11.24,31.075 -7.49,14.839 -19.68,27.915 -36.58,39.228 -17.04,11.754 -38.35,17.925 -63.91,18.513 -25.27,-0.588 -46.36,-6.759 -63.25,-18.513 -17.19,-11.313 -29.68,-24.389 -37.47,-39.228 -2.35,-4.849 -4.48,-9.477 -6.39,-13.885 -1.762,-4.554 -3.231,-10.284 -4.407,-17.19 -2.204,-12.929 -3.306,-37.759 -3.306,-74.49 z m 48.923,0 c 0,31.589 1.18,52.966 3.53,64.132 2.06,11.166 6.24,20.202 12.56,27.108 5.14,6.611 11.9,11.974 20.28,16.088 8.22,4.848 18.07,7.273 29.53,7.273 11.61,0 21.67,-2.425 30.19,-7.273 8.08,-4.114 14.55,-9.477 19.4,-16.088 6.31,-6.906 10.65,-15.942 13,-27.108 2.2,-11.166 3.3,-32.543 3.3,-64.132 0,-31.589 -1.1,-53.113 -3.3,-64.573 -2.35,-10.872 -6.69,-19.761 -13,-26.667 -4.85,-6.611 -11.32,-12.121 -19.4,-16.528 -8.52,-4.261 -18.58,-6.539 -30.19,-6.832 -11.46,0.293 -21.31,2.571 -29.53,6.832 -8.38,4.407 -15.14,9.917 -20.28,16.528 -6.32,6.906 -10.5,15.795 -12.56,26.667 -2.35,11.46 -3.53,32.984 -3.53,64.573 z"
     fill="#282624"
     id="path4" />
  <path
     d="m 1250.31,308.926 -46.5,-140.386 h -0.88 l -46.5,140.386 z m 13.89,43.195 h -121.88 l -24.68,71.846 h -51.57 l 116.8,-321.322 h 40.78 l 116.8,321.322 h -51.35 z"
     fill="#282624"
     id="path6" />
  <path
     d="m 1380.78,356.309 c 4.56,6.024 10.43,10.946 17.63,14.766 7.2,4.554 15.65,6.832 25.35,6.832 12.93,0.293 25.27,-4.188 37.02,-13.444 5.73,-4.555 10.21,-10.578 13.44,-18.072 3.38,-7.199 5.07,-16.235 5.07,-27.107 V 102.645 H 1528 v 221.487 c -0.59,32.324 -11.17,57.301 -31.74,74.932 -20.42,18.071 -44.15,27.254 -71.18,27.548 -37.32,-0.882 -65.16,-14.84 -83.53,-41.874 z"
     fill="#282624"
     id="path8" />
  <path
     d="m 323.961,427.401 c 89.676,0 162.372,-72.697 162.372,-162.373 V 102.656 c -89.676,0 -162.372,72.696 -162.372,162.372 z"
     fill="#982e0a"
     id="path10" />
  <path
     d="m 211.98,427.401 c 89.676,0 162.373,-72.697 162.373,-162.373 V 102.656 c -89.676,0 -162.373,72.696 -162.373,162.372 z"
     fill="#fd5a3b"
     id="path12" />
  <path
     d="m 100,427.401 c 89.676,0 162.372,-72.697 162.372,-162.372 V 102.656 C 172.697,102.656 100,175.353 100,265.029 Z"
     fill="#fa9a87"
     id="path14" />
</svg>
