<?xml version="1.0" encoding="UTF-8" standalone="no"?>
<svg
   xmlns:svg="http://www.w3.org/2000/svg"
   xmlns="http://www.w3.org/2000/svg"
   version="1.1"
   viewBox="0 0 2544 3608"
   fill="#211d1d"
   id="svg2">
  <path
     d="m 615.39,1849.26 c 227.9,0 412.64,184.75 412.64,412.65 0,227.87 -184.74,412.62 -412.64,412.62 -227.906,0 -412.679,-184.75 -412.679,-412.62 0,-227.9 184.773,-412.65 412.679,-412.65 m 299.62,923.28 c 0,-117.97 95.63,-213.64 213.61,-213.64 118.04,0 213.71,95.67 213.71,213.64 0,118.03 -95.67,213.7 -213.71,213.7 -117.98,0 -213.61,-95.67 -213.61,-213.7 M 0.473,2262.57 c 0,339.94 275.605,615.5 615.557,615.5 73.55,0 143.76,-13.58 209.17,-37.22 0.84,2.49 2.03,4.3 3.18,6.26 33.87,133.82 154.68,232.9 298.98,232.9 170.51,0 308.77,-138.22 308.77,-308.72 0,-147.02 -102.83,-269.78 -240.4,-300.97 0.83,-3.3 1.84,-6.66 2.77,-9.99 4.22,-12.48 7.92,-25.15 11.39,-37.98 4.94,-16.02 9.57,-32.13 12.2,-48.79 1.4,-8.51 2.58,-19.55 3.58,-30.11 1.523,-11.73 2.727,-23.431 3.584,-35.321 l 0.071,0.02 0.477,0.064 c 187.961,25.6 380.728,4.869 560.996,-62.244 262.639,-97.78 480.971,-287.384 614.596,-533.727 l -0.12,-0.064 c 17.124,-31.548 26.099,-66.872 26.11,-102.768 0,-119.053 -96.513,-215.565 -215.567,-215.564 -79.057,0.013 -151.764,43.3 -189.455,112.795 l -0.211,-0.114 c -127.292,234.716 -372.856,380.919 -639.867,380.963 -193.09,0 -378.271,-76.704 -514.806,-213.24 -136.536,-136.536 -213.241,-321.718 -213.241,-514.809 0,-193.09 76.705,-378.271 213.241,-514.806 136.535,-136.535 321.716,-213.24 514.806,-213.24 301.493,0.239 571.647,186.283 679.391,467.867 h -477.639 c -119.11,0 -215.668,96.558 -215.668,215.668 0,119.11 96.558,215.668 215.668,215.668 l 737.852,0.011 c 1.021,0.02 2.043,0.032 3.064,0.037 0.248,-0.011 0.495,-0.024 0.742,-0.037 h 3.233 l -0.061,-0.158 c 117.502,-2.133 211.664,-97.95 211.752,-215.47 -0.04,-3.387 -0.16,-6.772 -0.359,-10.153 l 0.121,-0.01 -0.189,-1.943 c -0.269,-3.789 -0.638,-7.569 -1.106,-11.338 C 2526.823,814.149 2411.478,551.823 2218.051,352.332 2024.624,152.841 1765.983,29.453 1489.225,4.639 1455.536,1.636 1421.734,0.108 1387.916,0.061 c -4.831,-0.007 -9.663,0.016 -14.494,0.07 -13.433,0.149 -26.862,0.531 -40.281,1.146 C 812.82,25.153 372.286,393.112 256.109,900.84 194.045,1172.079 231.633,1456.517 361.854,1702.261 148.825,1799.072 0.473,2013.29 0.473,2262.57 Z"
     id="path4" />
  <path
     d="m 426.93,3370.199 c 0,12.133 -5.879,18.18 -17.649,18.18 H 263.297 v 14.441 c 0,46.352 20.129,69.52 60.422,69.52 25.668,0 47.949,-4.981 66.84,-14.981 2.496,-1.418 5.171,-2.129 8.031,-2.129 5.344,0 9.793,2.129 13.367,6.411 3.559,4.281 5.348,9.089 5.348,14.441 0,7.488 -3.575,13.188 -10.696,17.117 -24.246,12.821 -52.406,19.242 -84.496,19.242 -36.011,0 -63.101,-11.23 -81.285,-33.703 -16.039,-19.59 -24.062,-46.148 -24.062,-79.668 v -49.73 c 0,-33.508 8.187,-60.07 24.601,-79.68 18.528,-22.461 45.453,-33.691 80.746,-33.691 36.719,0 63.992,11.23 81.821,33.691 15.328,18.899 22.996,45.11 22.996,78.61 z m -45.461,-27.82 c 0,-45.258 -19.43,-67.91 -58.285,-67.91 -39.938,0 -59.887,22.652 -59.887,67.91 v 9.101 h 118.172 z m 309.621,170.062 c -10.34,0 -19.97,-3.742 -28.88,-11.23 -4.99,-4.281 -9.27,-10.871 -12.84,-19.781 -19.6,20.691 -47.23,31.011 -82.88,31.011 -58.107,0 -87.166,-32.441 -87.166,-97.32 V 3259.5 c 0,-6.41 2.227,-11.941 6.68,-16.578 4.465,-4.633 10.078,-6.953 16.851,-6.953 6.415,0 11.855,2.32 16.305,6.953 4.47,4.637 6.69,10.168 6.69,16.578 v 151.332 c 0,18.906 3.39,32.797 10.16,41.719 8.2,10.34 21.74,15.5 40.64,15.5 31.02,0 52.59,-11.93 64.71,-35.821 V 3259.5 c 0,-6.41 2.32,-11.941 6.95,-16.578 4.63,-4.633 10.16,-6.953 16.58,-6.953 6.41,0 11.94,2.32 16.57,6.953 4.63,4.637 6.96,10.168 6.96,16.578 v 183.43 c 0,16.761 5.52,27.98 16.57,33.679 6.07,3.223 9.1,8.391 9.1,15.512 0,13.559 -7.67,20.32 -23,20.32 M 901.25,3284.09 c -2.85,-0.352 -5.88,-0.789 -9.09,-1.328 -3.21,-0.543 -6.34,-0.961 -9.35,-1.332 -3.04,-0.36 -5.63,-0.539 -7.76,-0.539 -32.81,0 -52.59,16.23 -59.36,48.66 v 159.371 c 0,6.777 -2.32,12.387 -6.95,16.84 -4.63,4.449 -10.16,6.679 -16.58,6.679 -6.41,0 -11.95,-2.32 -16.58,-6.953 -4.62,-4.629 -6.95,-10.168 -6.95,-16.566 v -180.223 c 0,-16.75 -5.53,-27.988 -16.58,-33.699 -6.06,-3.199 -9.09,-8.359 -9.09,-15.5 0,-13.539 7.67,-20.328 23,-20.328 3.92,0 6.41,0.187 7.48,0.539 17.47,4.648 29.42,15.687 35.83,33.16 17.47,-24.609 42.06,-36.902 73.8,-36.902 14.62,0 26.56,2.14 35.83,6.422 7.49,3.918 11.23,10.16 11.23,18.718 0,6.411 -2.14,11.942 -6.42,16.571 -4.28,4.652 -9.44,6.949 -15.5,6.949 -1.79,0 -4.11,-0.168 -6.96,-0.539 m 224.61,195.742 c -18.54,21.746 -46.17,32.609 -82.88,32.609 -36.36,0 -63.82,-10.863 -82.36,-32.609 -16.76,-19.613 -25.14,-45.641 -25.14,-78.094 v -55.066 c 0,-32.442 8.38,-58.473 25.14,-78.082 18.54,-21.731 46,-32.621 82.36,-32.621 36.71,0 64.34,10.89 82.88,32.621 16.76,19.609 25.13,45.64 25.13,78.082 v 55.066 c 0,32.453 -8.37,58.481 -25.13,78.094 m -21.91,-133.16 c 0,-44.922 -20.33,-67.383 -60.97,-67.383 -40.3,0 -60.43,22.461 -60.43,67.383 v 55.066 c 0,45.293 20.13,67.934 60.43,67.934 40.64,0 60.97,-22.641 60.97,-67.934 z m 219.24,165.769 c -24.26,0 -45.45,-6.953 -63.64,-20.863 v 91.992 c 0,6.758 -2.32,12.379 -6.95,16.84 -4.66,4.461 -10.16,6.692 -16.59,6.692 -6.42,0 -11.85,-2.231 -16.3,-6.692 -4.47,-4.461 -6.68,-10.082 -6.68,-16.84 v -278.09 c 0,-17.101 -5,-28.339 -14.98,-33.679 -6.07,-3.211 -9.1,-8.379 -9.1,-15.512 0,-13.539 7.67,-20.32 23.01,-20.32 10.32,0 19.77,3.742 28.34,11.23 3.56,3.211 6.95,7.321 10.16,12.301 21.74,-15.68 45.08,-23.531 70.05,-23.531 65.94,0 98.94,36 98.94,108.019 v 48.66 c 0,79.864 -32.09,119.793 -96.26,119.793 m 49.19,-171.121 c 0,-43.129 -19.61,-64.718 -58.83,-64.718 -18.89,0 -36.89,7.488 -54,22.468 v 148.129 c 16.05,16.422 34.57,24.602 55.62,24.602 38.13,0 57.21,-24.063 57.21,-72.199 z m 304.29,28.879 c 0,12.133 -5.9,18.18 -17.66,18.18 h -145.99 v 14.441 c 0,46.352 20.13,69.52 60.44,69.52 25.66,0 47.93,-4.981 66.85,-14.981 2.47,-1.418 5.14,-2.129 8.01,-2.129 5.35,0 9.79,2.129 13.34,6.411 3.57,4.281 5.37,9.089 5.37,14.441 0,7.488 -3.57,13.188 -10.69,17.117 -24.27,12.821 -52.43,19.242 -84.49,19.242 -36.03,0 -63.13,-11.23 -81.3,-33.703 -16.03,-19.59 -24.05,-46.148 -24.05,-79.668 v -49.73 c 0,-33.508 8.19,-60.07 24.6,-79.68 18.53,-22.461 45.45,-33.691 80.75,-33.691 36.71,0 63.96,11.23 81.82,33.691 15.31,18.899 23,45.11 23,78.61 z m -45.46,-27.82 c 0,-45.258 -19.45,-67.91 -58.3,-67.91 -39.93,0 -59.89,22.652 -59.89,67.91 v 9.101 h 118.19 z m 283.94,170.062 c -11.04,0 -20.31,-3.742 -27.8,-11.23 -4.28,-3.211 -7.84,-8.551 -10.7,-16.039 -16.75,18.18 -41.7,27.269 -74.87,27.269 -31.73,0 -55.6,-7.492 -71.65,-22.461 -14.63,-13.898 -21.93,-32.621 -21.93,-56.152 v -4.277 c 0,-23.52 7.84,-42.071 23.53,-55.602 17.82,-14.617 42.79,-21.937 74.87,-21.937 h 60.96 v -12.832 c 0,-22.809 -3.56,-38.86 -10.69,-48.121 -8.2,-10.707 -23,-16.059 -44.4,-16.059 -19.96,0 -38.14,4.461 -54.54,13.379 -3.92,2.141 -7.66,3.199 -11.22,3.199 -5.71,0 -10.44,-2.039 -14.18,-6.137 -3.75,-4.101 -5.6,-8.839 -5.6,-14.179 0,-6.782 3.2,-12.301 9.62,-16.571 19.97,-12.48 46.17,-18.722 78.61,-18.722 36.37,0 62.38,9.09 78.08,27.269 13.89,16.762 20.85,43.5 20.85,80.211 v 99.481 c 0,16.761 5,27.98 14.98,33.679 6.06,3.93 9.09,9.09 9.09,15.512 0,13.559 -7.69,20.32 -23.01,20.32 m -47.59,-124.062 h -56.15 c -37.78,0 -56.69,13.902 -56.69,41.699 v 4.293 c 0,27.809 18.37,41.711 55.09,41.711 38.49,0 57.75,-18.723 57.75,-56.16 z m 323.28,117.383 c -4.47,4.449 -10.08,6.679 -16.85,6.679 -6.41,0 -11.86,-2.23 -16.31,-6.679 -4.47,-4.453 -6.68,-10.063 -6.68,-16.84 v -150.813 c 0,-18.89 -3.41,-32.8 -10.16,-41.718 -8.21,-10.692 -21.75,-16.039 -40.64,-16.039 -30.31,0 -51.88,11.226 -64.71,33.687 v 174.883 c 0,6.777 -2.34,12.387 -6.95,16.84 -4.64,4.449 -10.17,6.679 -16.58,6.679 -6.41,0 -11.96,-2.32 -16.58,-6.953 -4.63,-4.629 -6.95,-10.168 -6.95,-16.566 v -180.223 c 0,-16.75 -5.55,-27.988 -16.58,-33.699 -6.07,-3.199 -9.09,-8.359 -9.09,-15.5 0,-13.539 7.65,-20.328 23.01,-20.328 9.95,0 19.58,3.75 28.87,11.238 5.34,5.34 9.26,11.231 11.76,17.641 19.6,-21.391 47.4,-32.082 83.43,-32.082 58.45,0 87.69,32.621 87.69,97.859 v 155.094 c 0,6.777 -2.23,12.387 -6.68,16.84 m 260.15,6.679 c -11.04,0 -20.32,-3.742 -27.81,-11.23 -4.28,-3.211 -7.83,-8.551 -10.7,-16.039 -16.75,18.18 -41.7,27.269 -74.87,27.269 -31.72,0 -55.6,-7.492 -71.65,-22.461 -14.62,-13.898 -21.92,-32.621 -21.92,-56.152 v -4.277 c 0,-23.52 7.83,-42.071 23.52,-55.602 17.83,-14.617 42.8,-21.937 74.88,-21.937 h 60.95 v -12.832 c 0,-22.809 -3.56,-38.86 -10.69,-48.121 -8.2,-10.707 -22.99,-16.059 -44.38,-16.059 -19.98,0 -38.16,4.461 -54.55,13.379 -3.92,2.141 -7.66,3.199 -11.23,3.199 -5.71,0 -10.43,-2.039 -14.17,-6.137 -3.75,-4.101 -5.61,-8.839 -5.61,-14.179 0,-6.782 3.2,-12.301 9.63,-16.571 19.96,-12.48 46.17,-18.722 78.6,-18.722 36.37,0 62.38,9.09 78.08,27.269 13.9,16.762 20.85,43.5 20.85,80.211 v 99.481 c 0,16.761 5,27.98 14.98,33.679 6.06,3.93 9.09,9.09 9.09,15.512 0,13.559 -7.67,20.32 -23,20.32 m -47.6,-124.062 h -56.15 c -37.78,0 -56.67,13.902 -56.67,41.699 v 4.293 c 0,27.809 18.36,41.711 55.07,41.711 38.5,0 57.75,-18.723 57.75,-56.16 v -31.543"
     id="path6" />
</svg>
