<?xml version="1.0" encoding="utf-8"?>
<!-- Generator: Adobe Illustrator 18.0.0, SVG Export Plug-In . SVG Version: 6.00 Build 0)  -->
<!DOCTYPE svg PUBLIC "-//W3C//DTD SVG 1.1//EN" "http://www.w3.org/Graphics/SVG/1.1/DTD/svg11.dtd">
<svg version="1.1" id="Layer_1" xmlns="http://www.w3.org/2000/svg" xmlns:xlink="http://www.w3.org/1999/xlink" x="0px" y="0px"
	 viewBox="0 0 379 94" enable-background="new 0 0 379 94" xml:space="preserve">
<text transform="matrix(1 0 0 1 4210 363)" font-family="'RomainBPTextRegular'" font-size="11">Fogg Museum</text>
<text transform="matrix(1 0 0 1 4210 377)" font-family="'RomainBPTextRegular'" font-size="11">Busch-Reisinger Museum</text>
<text transform="matrix(1 0 0 1 4210 390)" font-family="'RomainBPTextRegular'" font-size="11">Arthur M. Sackler Museum</text>
<defs>
	<filter id="Adobe_OpacityMaskFilter" filterUnits="userSpaceOnUse" x="3979" y="348" width="379" height="94">
		<feColorMatrix  type="matrix" values="1 0 0 0 0  0 1 0 0 0  0 0 1 0 0  0 0 0 1 0"/>
	</filter>
</defs>
<mask maskUnits="userSpaceOnUse" x="3979" y="348" width="379" height="94" id="SVGID_1_">
	<g filter="url(#Adobe_OpacityMaskFilter)">
		<polygon fill="#FFFFFF" points="4205.3,351.3 4206.1,352 4155.1,403 4154.4,402.2 		"/>
		<g>
			<text transform="matrix(1 0 0 1 3981 389.75)"><tspan x="0" y="0" fill="#FFFFFF" font-family="'NeutralBP-HarvardDemi'" font-size="46" letter-spacing="-1">Ha</tspan><tspan x="61.6" y="0" fill="#FFFFFF" font-family="'NeutralBP-HarvardDemi'" font-size="46" letter-spacing="1">r</tspan><tspan x="81.2" y="0" fill="#FFFFFF" font-family="'NeutralBP-HarvardDemi'" font-size="46" letter-spacing="-2">v</tspan><tspan x="104.9" y="0" fill="#FFFFFF" font-family="'NeutralBP-HarvardDemi'" font-size="46" letter-spacing="-2">a</tspan><tspan x="132" y="0" fill="#FFFFFF" font-family="'NeutralBP-HarvardDemi'" font-size="46">r</tspan><tspan x="148.8" y="0" fill="#FFFFFF" font-family="'NeutralBP-HarvardDemi'" font-size="46">d</tspan><tspan x="1.8" y="48" fill="#FFFFFF" font-family="'NeutralBP-HarvardDemi'" font-size="46">A</tspan><tspan x="35" y="48" fill="#FFFFFF" font-family="'NeutralBP-HarvardDemi'" font-size="46">r</tspan><tspan x="51.8" y="48" fill="#FFFFFF" font-family="'NeutralBP-HarvardDemi'" font-size="46">t</tspan><tspan x="68.3" y="48" fill="#FFFFFF" font-family="'NeutralBP-HarvardDemi'" font-size="46" letter-spacing="-3"> </tspan><tspan x="77.2" y="48" fill="#FFFFFF" font-family="'NeutralBP-HarvardDemi'" font-size="46" letter-spacing="-2">M</tspan><tspan x="119.4" y="48" fill="#FFFFFF" font-family="'NeutralBP-HarvardDemi'" font-size="46" letter-spacing="-3">u</tspan><tspan x="144.6" y="48" fill="#FFFFFF" font-family="'NeutralBP-HarvardDemi'" font-size="46">s</tspan><tspan x="169.2" y="48" fill="#FFFFFF" font-family="'NeutralBP-HarvardDemi'" font-size="46" letter-spacing="-2">e</tspan><tspan x="193.7" y="48" fill="#FFFFFF" font-family="'NeutralBP-HarvardDemi'" font-size="46" letter-spacing="-2">u</tspan><tspan x="220.3" y="48" fill="#FFFFFF" font-family="'NeutralBP-HarvardDemi'" font-size="46" letter-spacing="-2">m</tspan><tspan x="261.6" y="48" fill="#FFFFFF" font-family="'NeutralBP-HarvardDemi'" font-size="46">s</tspan></text>
		</g>
	</g>
</mask>
<rect x="3979" y="348" mask="url(#SVGID_1_)" width="379" height="94"/>
<text transform="matrix(1 0 0 1 4210 363)" font-family="'RomainBPTextRegular'" font-size="11">Fogg Museum</text>
<text transform="matrix(1 0 0 1 4210 377)" font-family="'RomainBPTextRegular'" font-size="11">Busch-Reisinger Museum</text>
<text transform="matrix(1 0 0 1 4210 390)" font-family="'RomainBPTextRegular'" font-size="11">Arthur M. Sackler Museum</text>
<defs>
	<filter id="Adobe_OpacityMaskFilter_1_" filterUnits="userSpaceOnUse" x="3979" y="348" width="379" height="94">
		<feColorMatrix  type="matrix" values="1 0 0 0 0  0 1 0 0 0  0 0 1 0 0  0 0 0 1 0"/>
	</filter>
</defs>
<mask maskUnits="userSpaceOnUse" x="3979" y="348" width="379" height="94" id="SVGID_2_">
	<g filter="url(#Adobe_OpacityMaskFilter_1_)">
		<polygon fill="#FFFFFF" points="4205.3,351.3 4206.1,352 4155.1,403 4154.4,402.2 		"/>
		<g>
			<text transform="matrix(1 0 0 1 3981 389.75)"><tspan x="0" y="0" fill="#FFFFFF" font-family="'NeutralBP-HarvardDemi'" font-size="46" letter-spacing="-1">Ha</tspan><tspan x="61.6" y="0" fill="#FFFFFF" font-family="'NeutralBP-HarvardDemi'" font-size="46" letter-spacing="1">r</tspan><tspan x="81.2" y="0" fill="#FFFFFF" font-family="'NeutralBP-HarvardDemi'" font-size="46" letter-spacing="-2">v</tspan><tspan x="104.9" y="0" fill="#FFFFFF" font-family="'NeutralBP-HarvardDemi'" font-size="46" letter-spacing="-2">a</tspan><tspan x="132" y="0" fill="#FFFFFF" font-family="'NeutralBP-HarvardDemi'" font-size="46">r</tspan><tspan x="148.8" y="0" fill="#FFFFFF" font-family="'NeutralBP-HarvardDemi'" font-size="46">d</tspan><tspan x="1.8" y="48" fill="#FFFFFF" font-family="'NeutralBP-HarvardDemi'" font-size="46">A</tspan><tspan x="35" y="48" fill="#FFFFFF" font-family="'NeutralBP-HarvardDemi'" font-size="46">r</tspan><tspan x="51.8" y="48" fill="#FFFFFF" font-family="'NeutralBP-HarvardDemi'" font-size="46">t</tspan><tspan x="68.3" y="48" fill="#FFFFFF" font-family="'NeutralBP-HarvardDemi'" font-size="46" letter-spacing="-3"> </tspan><tspan x="77.2" y="48" fill="#FFFFFF" font-family="'NeutralBP-HarvardDemi'" font-size="46" letter-spacing="-2">M</tspan><tspan x="119.4" y="48" fill="#FFFFFF" font-family="'NeutralBP-HarvardDemi'" font-size="46" letter-spacing="-3">u</tspan><tspan x="144.6" y="48" fill="#FFFFFF" font-family="'NeutralBP-HarvardDemi'" font-size="46">s</tspan><tspan x="169.2" y="48" fill="#FFFFFF" font-family="'NeutralBP-HarvardDemi'" font-size="46" letter-spacing="-2">e</tspan><tspan x="193.7" y="48" fill="#FFFFFF" font-family="'NeutralBP-HarvardDemi'" font-size="46" letter-spacing="-2">u</tspan><tspan x="220.3" y="48" fill="#FFFFFF" font-family="'NeutralBP-HarvardDemi'" font-size="46" letter-spacing="-2">m</tspan><tspan x="261.6" y="48" fill="#FFFFFF" font-family="'NeutralBP-HarvardDemi'" font-size="46">s</tspan></text>
		</g>
	</g>
</mask>
<rect x="3979" y="348" mask="url(#SVGID_2_)" width="379" height="94"/>
<g>
	<path d="M229.7,14.7l0.5-0.1c0.3-0.1,0.5-0.2,0.5-0.5c0-0.3,0-1.2,0-2.1V9.4c0-1.2,0-2,0-2c0-0.4-0.2-0.5-0.5-0.6l-0.5-0.1V6.5h6.6
		v1.9H236c-0.1-1.1-0.7-1.4-1.5-1.4c-0.7,0-1.8,0-2.5,0c0,0,0,1.4,0,2.3v1h1.4c0.9,0,1.2-0.2,1.3-1h0.3v2.6h-0.3
		c-0.1-1-0.4-1.1-1.3-1.1h-1.4v1.5c0,0.9,0,1.9,0,1.9c0,0.4,0.2,0.5,0.7,0.5l0.7,0.1V15h-3.7V14.7z"/>
	<path d="M239.7,9.5c1.7,0,2.8,1.3,2.8,2.9c0,1.5-1.2,2.8-2.9,2.8c-1.8,0-2.8-1.4-2.8-2.9C236.9,10.6,238.2,9.5,239.7,9.5z
		 M239.7,9.9c-1,0-1.7,0.9-1.7,2.4c0,1.3,0.6,2.4,1.6,2.4c1,0,1.7-0.9,1.7-2.4C241.3,10.9,240.7,9.9,239.7,9.9z"/>
	<path d="M245.9,13.5c-0.9,0-1.3,0.4-1.3,0.7c0,0.3,0.2,0.5,0.8,0.5l1.4,0c1.5,0,2.3,0.5,2.3,1.6c0,1.3-1.2,2.1-3,2.1
		c-1.2,0-2.6-0.5-2.6-1.6c0-0.4,0.4-0.9,1.2-1.1c-0.6-0.1-0.9-0.6-0.9-1c0-0.4,0.3-1.1,1.5-1.2c-0.8-0.3-1.4-1-1.4-2
		c0-1.3,1.1-2,2.2-1.9c0.4,0,0.8,0.1,1.1,0.3l2.2-0.2c0.3,1.1-0.4,0.8-0.9,0.7l-1-0.3c0.5,0.4,0.8,0.9,0.8,1.5
		C248.1,12.7,247.2,13.5,245.9,13.5z M245.4,15.7c-0.3,0-0.4,0-0.6,0c-0.3,0.2-0.6,0.6-0.6,1c0,0.9,0.9,1.2,1.7,1.2
		c1,0,2.2-0.3,2.2-1.3c0-0.7-0.7-1-1.5-0.9L245.4,15.7z M244.8,11.4c0,1,0.3,1.8,1.1,1.8c0.9,0,1.1-0.9,1.2-1.6c0-1-0.3-1.8-1.1-1.8
		C245.2,9.8,244.8,10.4,244.8,11.4z"/>
	<path d="M252,13.5c-0.9,0-1.3,0.4-1.3,0.7c0,0.3,0.2,0.5,0.8,0.5l1.4,0c1.5,0,2.3,0.5,2.3,1.6c0,1.3-1.2,2.1-3,2.1
		c-1.2,0-2.6-0.5-2.6-1.6c0-0.4,0.4-0.9,1.2-1.1c-0.6-0.1-0.9-0.6-0.9-1c0-0.4,0.3-1.1,1.5-1.2c-0.8-0.3-1.4-1-1.4-2
		c0-1.3,1.1-2,2.2-1.9c0.4,0,0.8,0.1,1.1,0.3l2.2-0.2c0.3,1.1-0.4,0.8-0.9,0.7l-1-0.3c0.5,0.4,0.8,0.9,0.8,1.5
		C254.3,12.7,253.3,13.5,252,13.5z M251.6,15.7c-0.3,0-0.4,0-0.6,0c-0.3,0.2-0.6,0.6-0.6,1c0,0.9,0.9,1.2,1.7,1.2
		c1,0,2.2-0.3,2.2-1.3c0-0.7-0.7-1-1.5-0.9L251.6,15.7z M250.9,11.4c0,1,0.3,1.8,1.1,1.8c0.9,0,1.1-0.9,1.2-1.6c0-1-0.3-1.8-1.1-1.8
		C251.3,9.8,250.9,10.4,250.9,11.4z"/>
	<path d="M268.3,14.7l0.6,0.1V15h-3.5v-0.3l0.5-0.1c0.3-0.1,0.6-0.2,0.6-0.5c0,0,0-0.9-0.1-2.1l-0.2-4.5l-2.8,7.5h-0.2L260,7.5
		l-0.3,6.2c0,0.5,0.1,1,1.2,1V15h-3v-0.3c0.9,0,1.3-0.5,1.3-1l0.4-6.3c0-0.4-0.2-0.6-0.5-0.6l-0.6,0V6.5h2.6l2.6,6.5l2.5-6.5h2.5
		v0.3l-0.6,0c-0.3,0-0.6,0.2-0.5,0.7l0.2,4.6c0,0.9,0.1,2.1,0.1,2.1C267.7,14.5,267.9,14.6,268.3,14.7z"/>
	<path d="M273.9,13.7c-0.4,0.9-1,1.4-1.8,1.4c-1.4,0-1.7-1.1-1.7-2.3v-2.3c0-0.3-0.1-0.4-0.3-0.5l-0.6-0.1V9.8l2-0.1v3.1
		c0,1,0.2,1.7,1.1,1.7c0.5,0,1.1-0.3,1.4-1.2v-2.7c0-0.3-0.1-0.4-0.3-0.5l-0.6-0.1V9.8l2-0.1v4.6c0,0.2,0.1,0.3,0.5,0.4l0.5,0.1V15
		h-1.9L273.9,13.7z"/>
	<path d="M277.1,14.6l-0.3,0.5h-0.2v-2.1h0.3c0.2,1.1,0.8,1.6,1.6,1.6c0.6,0,1.1-0.2,1.1-0.9c0-0.6-0.5-0.9-1.1-1.1l-0.5-0.1
		c-1-0.3-1.3-0.9-1.3-1.5c0-1,0.9-1.5,1.9-1.5c0.4,0,0.9,0.1,1.3,0.4l0.3-0.4h0.2v1.9h-0.3c-0.1-1-0.7-1.5-1.4-1.5
		c-0.5,0-1,0.3-1,0.8c0,0.6,0.4,0.8,1,0.9l0.5,0.1c0.9,0.2,1.5,0.7,1.5,1.6c0,1.1-0.9,1.7-2,1.7C278.1,15.2,277.5,15.1,277.1,14.6z"
		/>
	<path d="M282.6,11.8v0.4c0,1.4,0.7,2.4,1.8,2.4c0.5,0,1.3-0.1,1.8-1.1l0.3,0.1c-0.5,1.1-1.3,1.6-2.3,1.6c-1.7,0-2.7-1.2-2.7-2.8
		c0-1.7,1.2-2.8,2.7-2.8c1.2,0,2.2,0.8,2.3,2.3H282.6z M282.7,11.4h2.7c0-1.3-0.6-1.6-1.2-1.6C283.4,9.8,282.8,10.5,282.7,11.4z"/>
	<path d="M291.4,13.7c-0.4,0.9-1,1.4-1.8,1.4c-1.4,0-1.7-1.1-1.7-2.3v-2.3c0-0.3-0.1-0.4-0.3-0.5l-0.6-0.1V9.8l2-0.1v3.1
		c0,1,0.2,1.7,1.1,1.7c0.5,0,1.1-0.3,1.4-1.2v-2.7c0-0.3-0.1-0.4-0.3-0.5l-0.6-0.1V9.8l2-0.1v4.6c0,0.2,0.1,0.3,0.5,0.4l0.5,0.1V15
		h-1.9L291.4,13.7z"/>
	<path d="M295.8,9.6l0.1,1.1c0.4-0.7,1-1.2,1.8-1.2c0.9,0,1.4,0.4,1.6,1.3c0.4-0.8,1.1-1.3,1.9-1.3c1.1,0,1.7,0.7,1.7,2.1v0.9
		c0,0.6,0,1.8,0,1.8c0,0.2,0.1,0.3,0.5,0.4l0.5,0.1V15H301v-0.3l0.5-0.1c0.4-0.1,0.4-0.2,0.4-0.4c0,0,0-1.1,0-1.8v-0.7
		c0-1-0.2-1.6-1.1-1.6c-0.5,0-1,0.3-1.4,1c0,0.2,0,0.3,0,0.5v0.9c0,0.6,0,1.8,0,1.8c0,0.2,0.1,0.3,0.5,0.4l0.5,0.1V15h-2.9v-0.3
		l0.5-0.1c0.4-0.1,0.4-0.2,0.4-0.4c0,0,0-1.1,0-1.8v-0.7c0-1-0.2-1.6-1.1-1.6c-0.4,0-1,0.3-1.3,0.9v1.4c0,0.9,0,1.8,0,1.8
		c0,0.3,0.1,0.4,0.4,0.4l0.5,0.1V15h-2.9v-0.3l0.5-0.1c0.4-0.1,0.4-0.2,0.4-0.4c0,0,0-1.2,0-1.8l0-2c0-0.3-0.1-0.3-0.3-0.4l-0.6-0.1
		V9.7L295.8,9.6z"/>
</g>
<g>
	<path d="M229.7,28.7l0.5-0.1c0.3-0.1,0.5-0.2,0.5-0.5c0-0.3,0-1.2,0-2.1v-2.6c0-1.2,0-2,0-2c0-0.4-0.2-0.5-0.5-0.6l-0.5-0.1v-0.3
		c0.9,0,2.4,0,3.4,0c1.7-0.1,3,0.5,3,2c0,1-0.9,1.8-1.9,2c1.2,0.1,2.4,0.8,2.4,2.1c0,1.5-1.3,2.4-3.1,2.4h-3.9V28.7z M231.9,24.4
		h0.9c1.3,0,2.1-0.6,2.1-1.8c0-1.4-1-1.7-2-1.6c-0.5,0-0.9,0-0.9,0V24.4z M231.9,24.7V26c0,1,0,1.9,0,1.9c0,0.7,0.3,0.7,1.2,0.7
		c1.5,0,2.2-0.6,2.2-2c0-1.1-0.7-1.9-2.2-1.9H231.9z"/>
	<path d="M241.7,27.7c-0.4,0.9-1,1.4-1.8,1.4c-1.4,0-1.7-1.1-1.7-2.3v-2.3c0-0.3-0.1-0.4-0.3-0.5l-0.6-0.1v-0.3l2-0.1v3.1
		c0,1,0.2,1.7,1.1,1.7c0.5,0,1.1-0.3,1.4-1.2v-2.7c0-0.3-0.1-0.4-0.3-0.5l-0.6-0.1v-0.3l2-0.1v4.6c0,0.2,0.1,0.3,0.5,0.4l0.5,0.1V29
		h-1.9L241.7,27.7z"/>
	<path d="M244.9,28.6l-0.3,0.5h-0.2v-2.1h0.3c0.2,1.1,0.8,1.6,1.6,1.6c0.6,0,1.1-0.2,1.1-0.9c0-0.6-0.5-0.9-1.1-1.1l-0.6-0.1
		c-1-0.3-1.3-0.9-1.3-1.5c0-1,0.9-1.5,1.9-1.5c0.4,0,0.9,0.1,1.3,0.4l0.3-0.4h0.2v1.9h-0.3c-0.1-1-0.7-1.5-1.4-1.5
		c-0.5,0-1,0.3-1,0.8c0,0.6,0.4,0.8,1,0.9l0.5,0.1c0.9,0.2,1.5,0.7,1.5,1.6c0,1.1-0.9,1.7-2,1.7C246,29.2,245.3,29.1,244.9,28.6z"/>
	<path d="M254.2,27.7c-0.5,1.2-1.5,1.5-2.2,1.5c-1.7,0-2.7-1.3-2.7-2.8c0-1.7,1.2-2.9,2.8-2.9c0.7,0,1.9,0.3,1.9,0.9
		c0,0.3-0.2,0.5-0.5,0.5c-0.8,0-0.4-1.1-1.5-1.1c-0.7,0-1.6,0.8-1.6,2.3c0,1.4,0.7,2.4,1.8,2.4c0.4,0,1.1-0.1,1.6-1L254.2,27.7z"/>
	<path d="M256.8,24.8c0.4-0.8,1.1-1.3,1.9-1.3c1.1,0,1.7,0.7,1.7,2.1v0.9c0,0.6,0,1.8,0,1.8c0,0.2,0.1,0.3,0.5,0.4l0.5,0.1V29h-2.9
		v-0.3l0.5-0.1c0.4-0.1,0.4-0.2,0.4-0.4c0,0,0-1.1,0-1.8v-0.7c0-1-0.2-1.6-1.2-1.6c-0.5,0-1.1,0.3-1.4,1v1.4c0,0.9,0,1.8,0,1.8
		c0,0.3,0.1,0.4,0.4,0.4l0.5,0.1V29h-2.9v-0.3l0.5-0.1c0.4-0.1,0.4-0.2,0.4-0.4c0,0,0-1.2,0-1.8v-3.6c0-1.1,0-1.6,0-1.7
		c0-0.3-0.1-0.4-0.3-0.5l-0.6-0.1v-0.3l2-0.2c0,0,0,1.6,0,2.6V24.8z"/>
	<path d="M262.1,26h3.2v0.5h-3.2V26z"/>
	<path d="M266.5,20.5c0.9,0,2.1,0,3.2,0c1.5,0,3.3,0.3,3.3,2.1c0,1-0.9,2.1-2.4,2.2c1.1,0.1,1.7,0.6,2.1,1.8c0.6,1.7,0.9,2.2,2,2.2
		l0,0.2c-0.4,0.2-0.7,0.2-1.1,0.2c-1.2,0-1.8-1-2.2-2.3c-0.5-1.7-1.4-1.9-2.7-1.9V26c0,1,0,2.1,0,2.1c0,0.4,0.2,0.5,0.7,0.5l0.7,0.1
		V29h-3.6v-0.3l0.5-0.1c0.3-0.1,0.6-0.2,0.6-0.5c0,0,0-0.5,0-2.1v-2.6c0-0.9,0-1.6,0-2c0-0.4-0.2-0.5-0.6-0.6l-0.5-0.1V20.5z
		 M268.8,24.6h0.6c1.7,0,2.3-0.8,2.3-2c0-1.5-1.2-1.8-2.3-1.8c-0.3,0-0.4,0-0.7,0V24.6z"/>
	<path d="M276.2,25.8v0.4c0,1.4,0.7,2.4,1.8,2.4c0.5,0,1.3-0.1,1.8-1.1l0.3,0.1c-0.5,1.1-1.3,1.6-2.3,1.6c-1.7,0-2.7-1.2-2.7-2.8
		c0-1.7,1.2-2.8,2.7-2.8c1.2,0,2.2,0.8,2.3,2.3H276.2z M276.3,25.4h2.7c0-1.3-0.6-1.6-1.2-1.6C277,23.8,276.4,24.5,276.3,25.4z"/>
	<path d="M281.7,24.6c0-0.3-0.1-0.4-0.3-0.5l-0.6-0.1v-0.3l2-0.2v2.9c0,0.9,0,1.8,0,1.8c0,0.3,0,0.4,0.4,0.4l0.5,0.1V29h-2.9v-0.3
		l0.5-0.1c0.4-0.1,0.4-0.2,0.5-0.4c0,0,0-1.2,0-1.8V24.6z M282.2,20.6c0.4,0,0.8,0.3,0.8,0.7c0,0.4-0.3,0.8-0.8,0.8
		c-0.4,0-0.7-0.3-0.7-0.8C281.5,21,281.8,20.6,282.2,20.6z"/>
	<path d="M285.1,28.6l-0.3,0.5h-0.2v-2.1h0.3c0.2,1.1,0.8,1.6,1.6,1.6c0.6,0,1.1-0.2,1.1-0.9c0-0.6-0.5-0.9-1.1-1.1l-0.5-0.1
		c-1-0.3-1.3-0.9-1.3-1.5c0-1,0.9-1.5,1.9-1.5c0.4,0,0.9,0.1,1.3,0.4l0.3-0.4h0.2v1.9H288c-0.1-1-0.7-1.5-1.4-1.5
		c-0.5,0-1,0.3-1,0.8c0,0.6,0.4,0.8,1,0.9l0.5,0.1c0.9,0.2,1.5,0.7,1.5,1.6c0,1.1-0.9,1.7-2,1.7C286.2,29.2,285.5,29.1,285.1,28.6z"
		/>
	<path d="M290.4,24.6c0-0.3-0.1-0.4-0.3-0.5l-0.6-0.1v-0.3l2-0.2v2.9c0,0.9,0,1.8,0,1.8c0,0.3,0,0.4,0.4,0.4l0.5,0.1V29h-2.9v-0.3
		l0.5-0.1c0.4-0.1,0.4-0.2,0.5-0.4c0,0,0-1.2,0-1.8V24.6z M290.9,20.6c0.4,0,0.8,0.3,0.8,0.7c0,0.4-0.3,0.8-0.8,0.8
		c-0.4,0-0.7-0.3-0.7-0.8C290.1,21,290.4,20.6,290.9,20.6z"/>
	<path d="M295,23.6l0.1,1.1c0.5-0.9,1.1-1.3,1.9-1.3c1.1,0,1.7,0.7,1.7,2.1v0.9c0,0.6,0,1.8,0,1.8c0,0.2,0.1,0.3,0.5,0.4l0.5,0.1V29
		h-2.9v-0.3l0.5-0.1c0.4-0.1,0.4-0.2,0.4-0.4c0,0,0-1.1,0-1.8v-0.7c0-1-0.3-1.6-1.2-1.6c-0.4,0-1,0.3-1.4,1v1.3c0,0.9,0,1.8,0,1.8
		c0,0.3,0.1,0.4,0.4,0.4l0.5,0.1V29H293v-0.3l0.5-0.1c0.4-0.1,0.4-0.2,0.4-0.4c0,0,0-1.2,0-1.8l0-2c0-0.3-0.1-0.3-0.3-0.4L293,24
		v-0.3L295,23.6z"/>
	<path d="M302.5,27.5c-0.9,0-1.3,0.4-1.3,0.7c0,0.3,0.2,0.5,0.8,0.5l1.4,0c1.5,0,2.3,0.5,2.3,1.6c0,1.3-1.2,2.1-3,2.1
		c-1.2,0-2.6-0.5-2.6-1.6c0-0.4,0.4-0.9,1.2-1.1c-0.6-0.1-0.9-0.6-0.9-1c0-0.4,0.3-1.1,1.5-1.2c-0.8-0.3-1.4-1-1.4-2
		c0-1.3,1.1-2,2.2-1.9c0.4,0,0.8,0.1,1.1,0.3l2.2-0.2c0.3,1.1-0.4,0.8-0.9,0.7l-1-0.3c0.5,0.4,0.8,0.9,0.8,1.5
		C304.8,26.7,303.9,27.5,302.5,27.5z M302.1,29.7c-0.3,0-0.4,0-0.6,0c-0.3,0.2-0.6,0.6-0.6,1c0,0.9,0.9,1.2,1.7,1.2
		c1,0,2.2-0.3,2.2-1.3c0-0.7-0.7-1-1.5-0.9L302.1,29.7z M301.5,25.4c0,1,0.3,1.8,1.1,1.8c0.9,0,1.1-0.9,1.2-1.6c0-1-0.3-1.8-1.1-1.8
		C301.9,23.8,301.5,24.4,301.5,25.4z"/>
	<path d="M307.5,25.8v0.4c0,1.4,0.7,2.4,1.8,2.4c0.5,0,1.3-0.1,1.8-1.1l0.3,0.1c-0.5,1.1-1.3,1.6-2.3,1.6c-1.7,0-2.7-1.2-2.7-2.8
		c0-1.7,1.2-2.8,2.7-2.8c1.2,0,2.2,0.8,2.3,2.3H307.5z M307.5,25.4h2.7c0-1.3-0.6-1.6-1.2-1.6C308.3,23.8,307.6,24.5,307.5,25.4z"/>
	<path d="M313.9,23.6l0,1.5c0.2-0.9,0.8-1.7,1.7-1.7c0.5,0,0.8,0.3,0.8,0.7c0,0.3-0.3,0.5-0.5,0.5c-0.5,0-0.7-0.5-0.8-0.5
		c-0.3,0-0.8,0.5-1,1.3v1c0,0.9,0,1.8,0,1.8c0,0.3,0.1,0.4,0.4,0.4l0.6,0.1V29h-3v-0.3l0.5-0.1c0.4-0.1,0.4-0.2,0.5-0.4
		c0,0,0-1.1,0-1.8v-1.9c0-0.3-0.1-0.4-0.3-0.5L312,24v-0.3L313.9,23.6z"/>
	<path d="M329.4,28.7l0.6,0.1V29h-3.5v-0.3l0.5-0.1c0.3-0.1,0.6-0.2,0.6-0.5c0,0,0-0.9-0.1-2.1l-0.2-4.5l-2.8,7.5h-0.2l-3.1-7.6
		l-0.3,6.2c0,0.5,0.1,1,1.2,1V29h-3v-0.3c0.9,0,1.3-0.5,1.3-1l0.4-6.3c0-0.4-0.2-0.6-0.5-0.6l-0.6,0v-0.3h2.6l2.6,6.5l2.5-6.5h2.5
		v0.3l-0.6,0c-0.3,0-0.6,0.2-0.5,0.7l0.2,4.6c0,0.9,0.1,2.1,0.1,2.1C328.8,28.5,329,28.6,329.4,28.7z"/>
	<path d="M335,27.7c-0.4,0.9-1,1.4-1.8,1.4c-1.4,0-1.7-1.1-1.7-2.3v-2.3c0-0.3-0.1-0.4-0.3-0.5l-0.6-0.1v-0.3l2-0.1v3.1
		c0,1,0.2,1.7,1.1,1.7c0.5,0,1.1-0.3,1.4-1.2v-2.7c0-0.3-0.1-0.4-0.3-0.5L334,24v-0.3l2-0.1v4.6c0,0.2,0.1,0.3,0.5,0.4l0.5,0.1V29
		h-1.9L335,27.7z"/>
	<path d="M338.2,28.6l-0.3,0.5h-0.2v-2.1h0.3c0.2,1.1,0.8,1.6,1.6,1.6c0.6,0,1.1-0.2,1.1-0.9c0-0.6-0.5-0.9-1.1-1.1l-0.5-0.1
		c-1-0.3-1.3-0.9-1.3-1.5c0-1,0.9-1.5,1.9-1.5c0.4,0,0.9,0.1,1.3,0.4l0.3-0.4h0.2v1.9H341c-0.1-1-0.7-1.5-1.4-1.5
		c-0.5,0-1,0.3-1,0.8c0,0.6,0.4,0.8,1,0.9l0.5,0.1c0.9,0.2,1.5,0.7,1.5,1.6c0,1.1-0.9,1.7-2,1.7C339.3,29.2,338.6,29.1,338.2,28.6z"
		/>
	<path d="M343.8,25.8v0.4c0,1.4,0.7,2.4,1.8,2.4c0.5,0,1.3-0.1,1.8-1.1l0.3,0.1c-0.5,1.1-1.3,1.6-2.3,1.6c-1.7,0-2.7-1.2-2.7-2.8
		c0-1.7,1.2-2.8,2.7-2.8c1.2,0,2.2,0.8,2.3,2.3H343.8z M343.8,25.4h2.7c0-1.3-0.6-1.6-1.2-1.6C344.5,23.8,343.9,24.5,343.8,25.4z"/>
	<path d="M352.5,27.7c-0.4,0.9-1,1.4-1.8,1.4c-1.4,0-1.7-1.1-1.7-2.3v-2.3c0-0.3-0.1-0.4-0.3-0.5l-0.6-0.1v-0.3l2-0.1v3.1
		c0,1,0.2,1.7,1.1,1.7c0.5,0,1.1-0.3,1.4-1.2v-2.7c0-0.3-0.1-0.4-0.3-0.5l-0.6-0.1v-0.3l2-0.1v4.6c0,0.2,0.1,0.3,0.5,0.4l0.5,0.1V29
		h-1.9L352.5,27.7z"/>
	<path d="M356.9,23.6l0.1,1.1c0.4-0.7,1-1.2,1.8-1.2c0.9,0,1.4,0.4,1.6,1.3c0.4-0.8,1.1-1.3,1.9-1.3c1.1,0,1.7,0.7,1.7,2.1v0.9
		c0,0.6,0,1.8,0,1.8c0,0.2,0.1,0.3,0.5,0.4l0.5,0.1V29h-2.9v-0.3l0.5-0.1c0.4-0.1,0.4-0.2,0.4-0.4c0,0,0-1.1,0-1.8v-0.7
		c0-1-0.2-1.6-1.1-1.6c-0.5,0-1,0.3-1.4,1c0,0.2,0,0.3,0,0.5v0.9c0,0.6,0,1.8,0,1.8c0,0.2,0.1,0.3,0.5,0.4l0.5,0.1V29h-2.9v-0.3
		l0.5-0.1c0.4-0.1,0.4-0.2,0.4-0.4c0,0,0-1.1,0-1.8v-0.7c0-1-0.2-1.6-1.1-1.6c-0.4,0-1,0.3-1.3,0.9v1.4c0,0.9,0,1.8,0,1.8
		c0,0.3,0.1,0.4,0.4,0.4l0.5,0.1V29H355v-0.3l0.5-0.1c0.4-0.1,0.4-0.2,0.4-0.4c0,0,0-1.2,0-1.8l0-2c0-0.3-0.1-0.3-0.3-0.4L355,24
		v-0.3L356.9,23.6z"/>
</g>
<g>
	<path d="M233.1,33.3h0.3l3.3,7.9c0.1,0.3,0.3,0.5,0.7,0.5l0.4,0V42h-3.4v-0.3l0.5,0c0.5-0.1,0.6-0.3,0.4-0.6l-0.8-2.1h-3l-0.6,1.6
		c-0.4,1,0,1.1,0.5,1.2l0.3,0V42h-2.7v-0.3l0.3,0c0.5-0.1,0.7-0.3,1.1-1.1L233.1,33.3z M231.7,38.2h2.4l-1.2-3.1L231.7,38.2z"/>
	<path d="M240,36.6l0,1.5c0.2-0.9,0.8-1.7,1.7-1.7c0.5,0,0.8,0.3,0.8,0.7c0,0.3-0.3,0.5-0.5,0.5c-0.5,0-0.7-0.5-0.8-0.5
		c-0.3,0-0.8,0.5-1,1.3v1c0,0.9,0,1.8,0,1.8c0,0.3,0.1,0.4,0.4,0.4l0.6,0.1V42h-3v-0.3l0.5-0.1c0.4-0.1,0.4-0.2,0.5-0.4
		c0,0,0-1.1,0-1.8v-1.9c0-0.3-0.1-0.4-0.3-0.5l-0.6-0.1v-0.3L240,36.6z"/>
	<path d="M244.7,35.3v1.5h1.6v0.4h-1.6v1.6c0,1.5,0,1.9,0,1.9c0,0.6,0.3,0.9,0.7,0.9c0.3,0,0.7-0.2,0.9-0.4l0.1,0.2
		c-0.6,0.7-1.1,0.8-1.6,0.8c-0.7,0-1.3-0.4-1.3-1.3v-3.7l-0.8-0.1v-0.3h0.9l0.8-1.5H244.7z"/>
	<path d="M249,37.8c0.4-0.8,1.1-1.3,1.9-1.3c1.1,0,1.7,0.7,1.7,2.1v0.9c0,0.6,0,1.8,0,1.8c0,0.2,0.1,0.3,0.5,0.4l0.5,0.1V42h-2.9
		v-0.3l0.5-0.1c0.4-0.1,0.4-0.2,0.4-0.4c0,0,0-1.1,0-1.8v-0.7c0-1-0.2-1.6-1.2-1.6c-0.5,0-1.1,0.3-1.4,1v1.4c0,0.9,0,1.8,0,1.8
		c0,0.3,0.1,0.4,0.4,0.4l0.5,0.1V42H247v-0.3l0.5-0.1c0.4-0.1,0.4-0.2,0.4-0.4c0,0,0-1.2,0-1.8v-3.6c0-1.1,0-1.6,0-1.7
		c0-0.3-0.1-0.4-0.3-0.5l-0.6-0.1v-0.3l2-0.2c0,0,0,1.6,0,2.6V37.8z"/>
	<path d="M258.4,40.7c-0.4,0.9-1,1.4-1.8,1.4c-1.4,0-1.7-1.1-1.7-2.3v-2.3c0-0.3-0.1-0.4-0.3-0.5l-0.6-0.1v-0.3l2-0.1v3.1
		c0,1,0.2,1.7,1.1,1.7c0.5,0,1.1-0.3,1.4-1.2v-2.7c0-0.3-0.1-0.4-0.3-0.5l-0.6-0.1v-0.3l2-0.1v4.6c0,0.2,0.1,0.3,0.5,0.4l0.5,0.1V42
		h-1.9L258.4,40.7z"/>
	<path d="M262.9,36.6l0,1.5c0.2-0.9,0.8-1.7,1.7-1.7c0.5,0,0.8,0.3,0.8,0.7c0,0.3-0.3,0.5-0.5,0.5c-0.5,0-0.7-0.5-0.8-0.5
		c-0.3,0-0.8,0.5-1,1.3v1c0,0.9,0,1.8,0,1.8c0,0.3,0.1,0.4,0.4,0.4l0.6,0.1V42h-3v-0.3l0.5-0.1c0.4-0.1,0.4-0.2,0.5-0.4
		c0,0,0-1.1,0-1.8v-1.9c0-0.3-0.1-0.4-0.3-0.5L261,37v-0.3L262.9,36.6z"/>
	<path d="M278.5,41.7l0.6,0.1V42h-3.5v-0.3l0.5-0.1c0.3-0.1,0.6-0.2,0.6-0.5c0,0,0-0.9-0.1-2.1l-0.2-4.5l-2.8,7.5h-0.2l-3.1-7.6
		l-0.3,6.2c0,0.5,0.1,1,1.2,1V42h-3v-0.3c0.9,0,1.3-0.5,1.3-1l0.4-6.3c0-0.4-0.2-0.6-0.5-0.6l-0.6,0v-0.3h2.6l2.6,6.5l2.5-6.5h2.5
		v0.3l-0.6,0c-0.3,0-0.6,0.2-0.5,0.7l0.2,4.6c0,0.9,0.1,2.1,0.1,2.1C278,41.5,278.2,41.6,278.5,41.7z"/>
	<path d="M281.2,40.5c0.5,0,0.9,0.4,0.9,0.8c0,0.5-0.4,0.9-0.9,0.9c-0.5,0-0.8-0.4-0.8-0.9C280.4,40.8,280.7,40.5,281.2,40.5z"/>
	<path d="M290.6,40.2c0-0.9-0.6-1.5-1.7-1.9l-1.3-0.4c-1.3-0.4-1.8-1.3-1.8-2.3c0-1.4,1.3-2.3,2.8-2.3c1.1,0,1.8,0.3,2.4,0.6
		l0.1,1.5h-0.3c-0.5-1.2-1.3-1.7-2.2-1.7c-1.1,0-1.7,0.5-1.7,1.3c0,0.7,0.3,1.3,1.4,1.6l1,0.3c0.8,0.3,2.4,0.8,2.4,2.5
		c0,1.5-1.2,2.6-3,2.6c-1.1,0-2.2-0.3-2.9-0.7l-0.1-1.7h0.2c0.6,1.7,1.5,1.9,2.8,1.9C290,41.7,290.6,41,290.6,40.2z"/>
	<path d="M297.1,37.9l0,2.7c0,0.5,0.1,0.9,0.5,0.9c0.2,0,0.4-0.1,0.6-0.3l0.2,0.1c-0.4,0.6-0.8,0.8-1.2,0.8c-0.5,0-0.9-0.3-1-0.9
		c-0.5,0.7-1.1,0.9-1.6,0.9c-0.9,0-1.5-0.6-1.5-1.4c0-1.2,1.2-1.7,3-1.7h0.1v-1.3c0-0.6-0.2-1-0.8-1c-0.6,0-0.9,0.3-0.9,0.7
		c0,0.4-0.1,0.7-0.5,0.7c-0.3,0-0.5-0.2-0.5-0.5c0-0.7,0.9-1.3,1.9-1.3C296.2,36.5,297.1,36.8,297.1,37.9z M294.9,41.6
		c0.4,0,0.9-0.2,1.2-0.6v-1.6c-1.5,0.1-2,0.7-2,1.3C294,41.3,294.4,41.6,294.9,41.6z"/>
	<path d="M303.7,40.7c-0.5,1.2-1.5,1.5-2.2,1.5c-1.7,0-2.7-1.3-2.7-2.8c0-1.7,1.2-2.9,2.8-2.9c0.7,0,1.9,0.3,1.9,0.9
		c0,0.3-0.2,0.5-0.5,0.5c-0.8,0-0.4-1.1-1.5-1.1c-0.7,0-1.6,0.8-1.6,2.3c0,1.4,0.7,2.4,1.8,2.4c0.4,0,1.1-0.1,1.6-1L303.7,40.7z"/>
	<path d="M305,33.7l-0.6-0.1v-0.3l2-0.2c0,0,0,1.5,0,2.6v3.6c0,0.9,0,1.8,0,1.8c0,0.3,0.1,0.4,0.4,0.4l0.5,0.1V42h-2.9v-0.3l0.5-0.1
		c0.4-0.1,0.4-0.2,0.5-0.4c0,0,0-1.2,0-1.8v-3.6c0-0.9,0-1.6,0-1.7C305.3,33.9,305.2,33.8,305,33.7z M307.9,37.9
		c0.6-0.6,0.4-0.9-0.3-0.9v-0.3h2.6V37c-0.7,0-1.1,0.3-1.5,0.7l-1.3,1.2l2.2,2.3c0.4,0.5,0.7,0.5,1.2,0.5V42h-2.9v-0.2l0.8-0.2
		l-2.2-2.4L307.9,37.9z"/>
	<path d="M311.6,33.7l-0.6-0.1v-0.3l2-0.2c0,0,0,1.5,0,2.6v3.6c0,0.9,0,1.8,0,1.8c0,0.3,0.1,0.4,0.4,0.4l0.5,0.1V42H311v-0.3
		l0.5-0.1c0.4-0.1,0.4-0.2,0.5-0.4c0,0,0-1.2,0-1.8v-3.6c0-0.9,0-1.6,0-1.7C311.9,33.9,311.8,33.8,311.6,33.7z"/>
	<path d="M315.8,38.8v0.4c0,1.4,0.7,2.4,1.8,2.4c0.5,0,1.3-0.1,1.8-1.1l0.3,0.1c-0.5,1.1-1.3,1.6-2.3,1.6c-1.7,0-2.7-1.2-2.7-2.8
		c0-1.7,1.2-2.8,2.7-2.8c1.2,0,2.2,0.8,2.3,2.3H315.8z M315.8,38.4h2.7c0-1.3-0.6-1.6-1.2-1.6C316.6,36.8,315.9,37.5,315.8,38.4z"/>
	<path d="M322.4,36.6l0,1.5c0.2-0.9,0.8-1.7,1.7-1.7c0.5,0,0.8,0.3,0.8,0.7c0,0.3-0.3,0.5-0.5,0.5c-0.5,0-0.7-0.5-0.8-0.5
		c-0.3,0-0.8,0.5-1,1.3v1c0,0.9,0,1.8,0,1.8c0,0.3,0.1,0.4,0.4,0.4l0.6,0.1V42h-3v-0.3l0.5-0.1c0.4-0.1,0.4-0.2,0.5-0.4
		c0,0,0-1.1,0-1.8v-1.9c0-0.3-0.1-0.4-0.3-0.5l-0.6-0.1v-0.3L322.4,36.6z"/>
	<path d="M338,41.7l0.6,0.1V42h-3.5v-0.3l0.5-0.1c0.3-0.1,0.6-0.2,0.6-0.5c0,0,0-0.9-0.1-2.1l-0.2-4.5l-2.8,7.5h-0.2l-3.1-7.6
		l-0.3,6.2c0,0.5,0.1,1,1.2,1V42h-3v-0.3c0.9,0,1.3-0.5,1.3-1l0.4-6.3c0-0.4-0.2-0.6-0.5-0.6l-0.6,0v-0.3h2.6l2.6,6.5l2.5-6.5h2.5
		v0.3l-0.6,0c-0.3,0-0.6,0.2-0.5,0.7l0.2,4.6c0,0.9,0.1,2.1,0.1,2.1C337.5,41.5,337.7,41.6,338,41.7z"/>
	<path d="M343.7,40.7c-0.4,0.9-1,1.4-1.8,1.4c-1.4,0-1.7-1.1-1.7-2.3v-2.3c0-0.3-0.1-0.4-0.3-0.5l-0.6-0.1v-0.3l2-0.1v3.1
		c0,1,0.2,1.7,1.1,1.7c0.5,0,1.1-0.3,1.4-1.2v-2.7c0-0.3-0.1-0.4-0.3-0.5l-0.6-0.1v-0.3l2-0.1v4.6c0,0.2,0.1,0.3,0.5,0.4l0.5,0.1V42
		h-1.9L343.7,40.7z"/>
	<path d="M347,41.6l-0.3,0.5h-0.2v-2.1h0.3c0.2,1.1,0.8,1.6,1.6,1.6c0.6,0,1.1-0.2,1.1-0.9c0-0.6-0.5-0.9-1.1-1.1l-0.6-0.1
		c-1-0.3-1.3-0.9-1.3-1.5c0-1,0.9-1.5,1.9-1.5c0.4,0,0.9,0.1,1.3,0.4l0.3-0.4h0.2v1.9h-0.3c-0.1-1-0.7-1.5-1.4-1.5
		c-0.5,0-1,0.3-1,0.8c0,0.6,0.4,0.8,1,0.9l0.5,0.1c0.9,0.2,1.5,0.7,1.5,1.6c0,1.1-0.9,1.7-2,1.7C348.1,42.2,347.5,42.1,347,41.6z"/>
	<path d="M352.7,38.8v0.4c0,1.4,0.7,2.4,1.8,2.4c0.5,0,1.3-0.1,1.8-1.1l0.3,0.1c-0.5,1.1-1.3,1.6-2.3,1.6c-1.7,0-2.7-1.2-2.7-2.8
		c0-1.7,1.2-2.8,2.7-2.8c1.2,0,2.2,0.8,2.3,2.3H352.7z M352.8,38.4h2.7c0-1.3-0.6-1.6-1.2-1.6C353.5,36.8,352.9,37.5,352.8,38.4z"/>
	<path d="M361.6,40.7c-0.4,0.9-1,1.4-1.8,1.4c-1.4,0-1.7-1.1-1.7-2.3v-2.3c0-0.3-0.1-0.4-0.3-0.5l-0.6-0.1v-0.3l2-0.1v3.1
		c0,1,0.2,1.7,1.1,1.7c0.5,0,1.1-0.3,1.4-1.2v-2.7c0-0.3-0.1-0.4-0.3-0.5l-0.6-0.1v-0.3l2-0.1v4.6c0,0.2,0.1,0.3,0.5,0.4l0.5,0.1V42
		h-1.9L361.6,40.7z"/>
	<path d="M366.1,36.6l0.1,1.1c0.4-0.7,1-1.2,1.8-1.2c0.9,0,1.4,0.4,1.6,1.3c0.4-0.8,1.1-1.3,1.9-1.3c1.1,0,1.7,0.7,1.7,2.1v0.9
		c0,0.6,0,1.8,0,1.8c0,0.2,0.1,0.3,0.5,0.4l0.5,0.1V42h-2.9v-0.3l0.5-0.1c0.4-0.1,0.4-0.2,0.4-0.4c0,0,0-1.1,0-1.8v-0.7
		c0-1-0.2-1.6-1.1-1.6c-0.5,0-1,0.3-1.4,1c0,0.2,0,0.3,0,0.5v0.9c0,0.6,0,1.8,0,1.8c0,0.2,0.1,0.3,0.5,0.4l0.5,0.1V42h-2.9v-0.3
		l0.5-0.1c0.4-0.1,0.4-0.2,0.4-0.4c0,0,0-1.1,0-1.8v-0.7c0-1-0.2-1.6-1.1-1.6c-0.4,0-1,0.3-1.3,0.9v1.4c0,0.9,0,1.8,0,1.8
		c0,0.3,0.1,0.4,0.4,0.4l0.5,0.1V42h-2.9v-0.3l0.5-0.1c0.4-0.1,0.4-0.2,0.4-0.4c0,0,0-1.2,0-1.8l0-2c0-0.3-0.1-0.3-0.3-0.4l-0.6-0.1
		v-0.3L366.1,36.6z"/>
</g>
<g>
	<polygon points="224.3,3.3 225.1,4 174.1,55 173.4,54.2 	"/>
	<g>
		<path d="M26.4,25.8h-17l0.1,16H3.9V7h5.6L9.3,21h17l0-14h5.3v34.7h-5.3L26.4,25.8z"/>
		<path d="M54.6,38.6c-1.1,1.4-3.4,3.9-7.6,3.9c-6.4,0-11.1-4.5-11.1-12.9c0-6.7,3.9-13.2,11.3-13.2c4.1,0,6.4,2.3,7.4,3.7l0.1-3.1
			h4.9v24.7h-4.9L54.6,38.6z M54.7,29.6c0-5.4-2.2-8.9-6.6-8.9c-4.3,0-6.6,3.5-6.6,8.9s2.3,8.7,6.6,8.7C52.4,38.3,54.7,35,54.7,29.6
			z"/>
		<path d="M65.5,17h4.8l0.1,4.3c0.9-2,2.7-4.2,5.5-4.7c1.2-0.1,1.9-0.2,2.8-0.2l-0.1,5.7c-0.1,0-0.9-0.2-1.7-0.2
			c-2.3,0-4.4,1.2-5.4,3.7c-0.7,1.5-0.8,4.2-0.8,7.6v8.4h-5.2V17z"/>
		<path d="M81.9,17H88l6.5,19.7L101,17h5.6l-9.1,24.7h-6.4L81.9,17z"/>
		<path d="M125.9,38.6c-1.1,1.4-3.4,3.9-7.6,3.9c-6.4,0-11.1-4.5-11.1-12.9c0-6.7,3.9-13.2,11.3-13.2c4.1,0,6.4,2.3,7.4,3.7l0.1-3.1
			h4.9v24.7h-4.9L125.9,38.6z M125.9,29.6c0-5.4-2.2-8.9-6.6-8.9c-4.3,0-6.6,3.5-6.6,8.9s2.3,8.7,6.6,8.7
			C123.7,38.3,125.9,35,125.9,29.6z"/>
		<path d="M135.8,17h4.8l0.1,4.3c0.9-2,2.7-4.2,5.5-4.7c1.2-0.1,1.9-0.2,2.8-0.2l-0.1,5.7c-0.1,0-0.9-0.2-1.7-0.2
			c-2.3,0-4.4,1.2-5.4,3.7c-0.7,1.5-0.8,4.2-0.8,7.6v8.4h-5.2V17z"/>
		<path d="M151.1,29.6c0-6.7,3.9-13.2,11.2-13.2c4,0,6.3,2.3,7.3,3.7L169.4,6h5.3v35.8h-4.9l-0.1-3.2c-1.1,1.6-3.4,3.9-7.5,3.9
			C155.6,42.4,151.1,38,151.1,29.6z M169.8,29.6c0-5.4-2.2-8.9-6.6-8.9c-4.3,0-6.6,3.5-6.6,8.9s2.3,8.7,6.6,8.7
			C167.6,38.3,169.8,35,169.8,29.6z"/>
		<path d="M15.5,54.9h6.7l12.4,34.8h-6.3l-3-9.1H11.6l-3.1,9.1H2.7L15.5,54.9z M12.9,76.5h10.9L18.4,60L12.9,76.5z"/>
		<path d="M38.8,65h4.8l0.1,4.3c0.9-2,2.7-4.2,5.5-4.7c1.2-0.1,1.9-0.2,2.8-0.2l-0.1,5.7c-0.1,0-0.9-0.2-1.7-0.2
			c-2.3,0-4.4,1.2-5.4,3.7c-0.7,1.5-0.8,4.2-0.8,7.6v8.4h-5.2V65z"/>
		<path d="M52.9,65h3.5l0.3-6.7h4.9V65h4.9v4h-4.9l0,12.7c0,2.1,0,4,2.7,4c1.2,0,2.4-0.1,2.4-0.1l0.2,4.1c0,0-2.1,0.4-4.7,0.4
			c-4.4,0-5.9-2.2-5.9-6.8V69.1h-3.4V65z"/>
		<path d="M81.1,55h7.6l10.8,28.9L110.4,55h7.4v34.7h-5.5l0.3-27.3l-10.3,27.3h-6.2L85.9,62l0.4,27.7h-5.2V55z"/>
		<path d="M123,81.2V65h5.4v13.9c0,3.3,0.4,7,4.7,7c2.7,0,4.3-1.6,5.2-3.8c0.5-1.3,0.6-2.9,0.6-7.7V65h5.3v24.7h-4.9l-0.1-3.3
			c-0.8,1.4-3.1,4-7.7,4C125.6,90.4,123,86,123,81.2z"/>
		<path d="M146.6,83.6l5.3-0.9c0,0.6,0.8,3.7,5.4,3.7c3.2,0,4.7-1.1,4.7-3c0-2.1-1.6-3.1-5.6-4.1c-6.6-1.7-8.7-4.1-8.7-7.9
			c0-4,3.3-7.2,9.5-7.2c8.9,0,9.6,6.3,9.6,6.3l-5,1c0-0.3-0.5-3.3-4.7-3.3c-2.4,0-4.1,1.1-4.1,2.9c0,1.7,1.4,2.8,6,3.9
			c6.1,1.6,8.4,4,8.4,7.8c0,4.1-2.9,7.5-10.4,7.5C147.2,90.5,146.6,83.6,146.6,83.6z"/>
		<path d="M171.5,77.5c0-7.4,4-13.2,11.9-13.2c6.9,0,10.7,4.6,10.8,11.5c0,1,0,2-0.1,2.6h-17.2c0.1,4.7,2.7,7.8,6.7,7.8
			c4.4,0,5.7-3.2,5.7-3.2l4.7,1.5c0,0-2.6,5.9-10.4,5.9C175.4,90.5,171.5,85.1,171.5,77.5z M176.8,74.8h12.1c0-3.4-2-6.3-5.7-6.3
			C179.8,68.4,177.3,71,176.8,74.8z"/>
		<path d="M197.3,81.2V65h5.4v13.9c0,3.3,0.4,7,4.7,7c2.7,0,4.3-1.6,5.2-3.8c0.5-1.3,0.6-2.9,0.6-7.7V65h5.3v24.7h-4.9l-0.1-3.3
			c-0.8,1.4-3.1,4-7.7,4C199.9,90.4,197.3,86,197.3,81.2z"/>
		<path d="M224.1,65h4.9l0.1,3.5c1.1-1.7,3.4-4.1,7.7-4.1c4.4,0,6.5,2.4,7.5,4.5c1-1.8,3.4-4.5,8-4.5c6.4,0,8.7,4.4,8.7,9.8v15.5
			h-5.4v-14c0-3.1-0.4-6.9-4.9-6.9c-2.3,0-3.9,1.2-4.8,3.5c-0.6,1.6-0.7,3.3-0.7,8.5v8.9h-5.3v-14c0-3.1-0.4-6.9-4.8-6.9
			c-2.4,0-4,1.3-4.9,3.5c-0.6,1.7-0.7,3.2-0.7,8v9.4h-5.3V65z"/>
		<path d="M263.6,83.6l5.3-0.9c0,0.6,0.8,3.7,5.4,3.7c3.2,0,4.7-1.1,4.7-3c0-2.1-1.6-3.1-5.6-4.1c-6.6-1.7-8.7-4.1-8.7-7.9
			c0-4,3.3-7.2,9.5-7.2c8.9,0,9.6,6.3,9.6,6.3l-5,1c0-0.3-0.5-3.3-4.7-3.3c-2.4,0-4.1,1.1-4.1,2.9c0,1.7,1.4,2.8,6,3.9
			c6.1,1.6,8.4,4,8.4,7.8c0,4.1-2.9,7.5-10.4,7.5C264.3,90.5,263.6,83.6,263.6,83.6z"/>
	</g>
</g>
</svg>
