<?xml version="1.0" encoding="utf-8"?>
<!-- Svg Vector Icons : http://www.onlinewebfonts.com/icon -->
<!DOCTYPE svg PUBLIC "-//W3C//DTD SVG 1.1//EN" "http://www.w3.org/Graphics/SVG/1.1/DTD/svg11.dtd">
<svg version="1.1" xmlns="http://www.w3.org/2000/svg" xmlns:xlink="http://www.w3.org/1999/xlink" x="0px" y="0px" viewBox="0 0 256 256" enable-background="new 0 0 256 256" xml:space="preserve">
<metadata> Svg Vector Icons : http://www.onlinewebfonts.com/icon </metadata>
<g><g><g><path fill="#000000" d="M117.5,10.4c-40.2,3.6-76.3,28-94.5,63.8c-14.9,29.4-17.1,62.5-6.1,93.5c2.2,6.2,7.5,17.1,11,22.8c15.9,25.2,40.9,43.8,69.6,51.5c27.2,7.3,56,4.5,81.7-7.9c12.8-6.1,21.9-12.6,32.1-22.9c10.3-10.2,16.7-19.3,22.9-32.1c13.9-28.7,15.6-60.6,5-91c-4.1-11.7-12.2-25.8-20.6-35.9C194.2,23,155.6,7,117.5,10.4z M144.2,24.5c22.1,3.5,42,13.6,57.9,29.5c16,16.1,26,35.8,29.6,58.6c1.1,7.2,1.1,23.7,0,30.9c-3.6,22.9-13.5,42.5-29.6,58.6c-16.1,16-35.8,26-58.6,29.6c-7.2,1.1-23.7,1.1-30.9,0c-22.9-3.6-42.5-13.5-58.6-29.6c-16-16-26-35.8-29.6-58.4c-1.2-7.5-1.2-23.7,0-31.3C29,82.8,45.1,57.4,70.3,40.5c13-8.8,30.1-14.9,46.8-16.7C122.9,23.1,138.3,23.6,144.2,24.5z"/><path fill="#000000" d="M72.9,74.4c-0.9,0.4-2,1.4-2.5,2.3c-1,1.6-1,2.3-1,52.3c0,42.7,0.1,50.8,0.7,51.6c1,1.3,9.7,1.7,12.3,0.6l1.8-0.8l0.1-47.1l0.1-47.1l18.1,47.2l18.1,47.2l1.7,0.7c2.1,0.9,9.7,0.6,10.7-0.4c0.4-0.4,8.9-21.1,19-46.1c10.1-25,18.7-46.2,19.1-47.1c0.7-1.5,0.7,2.8,0.8,45.3c0,39.7,0.1,47,0.7,47.8c0.6,0.8,1.4,0.9,5.6,1c3.7,0.1,5.4,0,6.7-0.6l1.8-0.7v-51.1c0-49.8,0-51.1-1-52.6c-1.5-2.6-3-3-9.9-3c-3.4,0-6.8,0.1-7.6,0.3c-2,0.4-5,3-6.1,5.3c-0.5,1-8.2,19.6-17.1,41.3c-8.9,21.7-16.4,39.5-16.7,39.4c-0.2,0-7.5-17.9-16.1-39.7c-8.7-21.8-16.3-40.6-16.9-41.8c-0.9-1.6-1.9-2.5-3.6-3.3c-2.2-1.1-2.9-1.2-9.8-1.3C76.2,73.8,74.1,73.9,72.9,74.4z"/></g></g></g>
</svg>