<?xml version="1.0" standalone="no"?>
<!DOCTYPE svg PUBLIC "-//W3C//DTD SVG 20010904//EN"
 "http://www.w3.org/TR/2001/REC-SVG-20010904/DTD/svg10.dtd">
<svg version="1.0" xmlns="http://www.w3.org/2000/svg"
 width="225.000000pt" height="225.000000pt" viewBox="0 0 225.000000 225.000000"
 preserveAspectRatio="xMidYMid meet">

<g transform="translate(0.000000,225.000000) scale(0.100000,-0.100000)"
fill="#000000" stroke="none">
<path d="M995 2012 c-66 -38 -210 -119 -320 -182 -110 -62 -215 -124 -232
-137 l-33 -24 0 -134 c0 -73 3 -140 6 -149 3 -9 64 -48 135 -87 l129 -71 108
60 c59 33 159 89 222 125 l115 65 35 -20 c19 -12 56 -34 83 -51 l47 -29 0 -69
c0 -38 -2 -69 -4 -69 -2 0 -35 18 -72 40 -38 22 -77 40 -88 40 -21 0 -670
-374 -698 -402 -16 -16 -18 -38 -18 -166 0 -104 4 -153 13 -164 18 -22 681
-398 703 -398 19 0 19 0 427 242 l267 159 0 543 c0 424 -3 546 -13 554 -24 20
-671 392 -681 392 -6 0 -65 -31 -131 -68z m360 -137 c83 -48 203 -117 267
-153 65 -37 117 -69 118 -72 0 -3 -44 -28 -98 -56 l-97 -52 -3 -384 -2 -384
-210 -128 -210 -129 0 -124 c0 -99 -3 -124 -13 -121 -8 2 -152 82 -320 178
l-307 175 0 126 0 126 320 186 c176 103 322 187 326 187 3 0 48 -26 101 -57
126 -75 127 -75 131 90 3 145 13 128 -131 212 l-86 50 -1 117 c0 64 -4 119 -8
122 -4 3 -109 -51 -233 -119 l-224 -124 -5 -115 -5 -114 -93 51 -92 52 2 115
3 114 320 182 320 183 40 -24 c22 -12 108 -62 190 -110z"/>
<path d="M1003 957 c-62 -34 -113 -65 -113 -69 0 -4 52 -35 117 -69 92 -49
119 -60 132 -51 9 6 55 35 104 64 48 29 87 56 87 60 0 3 -12 15 -27 26 -28 18
-179 102 -185 102 -2 0 -54 -29 -115 -63z"/>
</g>
</svg>
