<?xml version="1.0" encoding="UTF-8" standalone="no"?>
<svg
   xmlns:dc="http://purl.org/dc/elements/1.1/"
   xmlns:cc="http://creativecommons.org/ns#"
   xmlns:rdf="http://www.w3.org/1999/02/22-rdf-syntax-ns#"
   xmlns:svg="http://www.w3.org/2000/svg"
   xmlns="http://www.w3.org/2000/svg"
   xmlns:sodipodi="http://sodipodi.sourceforge.net/DTD/sodipodi-0.dtd"
   xmlns:inkscape="http://www.inkscape.org/namespaces/inkscape"
   viewBox="55 15 710.00003 435"
   version="1.1"
   id="svg23"
   sodipodi:docname="open-library-tight-logo.svg"
   inkscape:version="0.92.1 r15371"
   width="710"
   height="435">
  <metadata
     id="metadata29">
    <rdf:RDF>
      <cc:Work
         rdf:about="">
        <dc:format>image/svg+xml</dc:format>
        <dc:type
           rdf:resource="http://purl.org/dc/dcmitype/StillImage" />
        <dc:title></dc:title>
      </cc:Work>
    </rdf:RDF>
  </metadata>
  <defs
     id="defs27" />
  <sodipodi:namedview
     pagecolor="#ffffff"
     bordercolor="#666666"
     borderopacity="1"
     objecttolerance="10"
     gridtolerance="10"
     guidetolerance="10"
     inkscape:pageopacity="0"
     inkscape:pageshadow="2"
     inkscape:window-width="1024"
     inkscape:window-height="704"
     id="namedview25"
     showgrid="false"
     inkscape:zoom="0.42001533"
     inkscape:cx="196.72344"
     inkscape:cy="132.83436"
     inkscape:window-x="0"
     inkscape:window-y="27"
     inkscape:window-maximized="1"
     inkscape:current-layer="svg23"
     fit-margin-top="10"
     fit-margin-left="10"
     fit-margin-right="10"
     fit-margin-bottom="10" />
  <style
     id="style2">.st0{fill:none;stroke:#d3ccb0;stroke-width:5;stroke-miterlimit:10}</style>
  <g
     id="g981"
     transform="translate(0,-124.66559)">
    <g
       transform="translate(-335.4,298.26559)"
       id="g44">
      <path
         style="fill:none;stroke:#d3ccb0;stroke-width:5;stroke-miterlimit:10"
         inkscape:connector-curvature="0"
         id="path4"
         d="m 401.3,87 h 689.2 M 400.4,263.9 h 689.2"
         class="st0" />
      <g
         id="g20">
        <path
           inkscape:connector-curvature="0"
           id="path16"
           d="m 430.5,185.8 c 0,22.3 0.6,32.1 3.3,34.8 2.4,2.4 6.4,3.5 18.2,3.5 8.1,0 14.7,-0.2 18.4,-4.6 2,-2.4 3.5,-6.2 3.9,-9.1 0.2,-1.2 0.5,-2 1.4,-2 0.8,0 0.9,0.6 0.9,2.3 0,1.7 -1.1,10.8 -2.3,15.2 -1.1,3.5 -1.5,4.1 -9.6,4.1 -10.9,0 -18.8,-0.3 -25.2,-0.5 -6.4,-0.3 -11.1,-0.5 -15.5,-0.5 -0.6,0 -3.2,0.2 -6.2,0.2 -3,0.2 -6.4,0.3 -8.7,0.3 -1.7,0 -2.4,-0.3 -2.4,-1.2 0,-0.5 0.3,-0.9 1.2,-0.9 1.4,0 3.2,-0.3 4.6,-0.6 3,-0.6 3.8,-3.9 4.4,-8.4 0.8,-6.4 0.8,-18.4 0.8,-33 v -26.7 c 0,-23.7 0,-28 -0.3,-32.8 -0.3,-5.2 -1.5,-7.6 -6.5,-8.7 -1.2,-0.3 -3.8,-0.5 -5.2,-0.5 -0.6,0 -1.2,-0.3 -1.2,-0.9 0,-0.9 0.8,-1.2 2.4,-1.2 6.8,0 16.4,0.5 17.2,0.5 0.8,0 11.8,-0.5 16.4,-0.5 1.7,0 2.4,0.3 2.4,1.2 0,0.6 -0.6,0.9 -1.2,0.9 -1.1,0 -3.2,0.2 -5,0.5 -4.4,0.8 -5.6,3.3 -5.9,8.7 -0.3,4.9 -0.3,9.1 -0.3,32.8 z m 89.9,-0.3 c 0,14.6 0,26.6 0.8,33 0.5,4.4 1.4,7.7 5.9,8.4 2.1,0.3 5.5,0.6 6.8,0.6 0.9,0 1.2,0.5 1.2,0.9 0,0.8 -0.8,1.2 -2.4,1.2 -8.4,0 -17.9,-0.5 -18.7,-0.5 -0.8,0 -10.3,0.5 -14.9,0.5 -1.7,0 -2.4,-0.3 -2.4,-1.2 0,-0.5 0.3,-0.9 1.2,-0.9 1.4,0 3.2,-0.3 4.6,-0.6 3,-0.6 3.8,-3.9 4.4,-8.4 0.8,-6.4 0.8,-18.4 0.8,-33 v -26.7 c 0,-23.7 0,-28 -0.3,-32.8 -0.3,-5.2 -1.8,-7.7 -5.2,-8.5 -1.7,-0.5 -3.6,-0.6 -4.7,-0.6 -0.6,0 -1.2,-0.3 -1.2,-0.9 0,-0.9 0.8,-1.2 2.4,-1.2 5,0 14.6,0.5 15.3,0.5 0.8,0 10.3,-0.5 14.9,-0.5 1.7,0 2.4,0.3 2.4,1.2 0,0.6 -0.6,0.9 -1.2,0.9 -1.1,0 -2,0.2 -3.8,0.5 -4.1,0.8 -5.3,3.3 -5.6,8.7 -0.3,4.9 -0.3,9.1 -0.3,32.8 z m 54.1,-26.7 c 0,-23.7 0,-28 -0.3,-32.8 -0.3,-5.2 -1.5,-7.6 -6.5,-8.7 -1.2,-0.3 -3.8,-0.5 -5.2,-0.5 -0.6,0 -1.2,-0.3 -1.2,-0.9 0,-0.9 0.8,-1.2 2.4,-1.2 6.8,0 16.4,0.5 17.2,0.5 3.6,0 9.6,-0.5 16.6,-0.5 24.9,0 30.4,15.2 30.4,22.8 0,12.5 -7.1,19.9 -14.3,27.3 11.2,3.5 26.3,14.3 26.3,32.1 0,16.3 -12.8,33.1 -38.7,33.1 -1.7,0 -6.5,-0.3 -10.9,-0.5 -4.4,-0.3 -8.7,-0.5 -9.3,-0.5 -0.3,0 -2.9,0 -6.1,0.2 -3,0 -6.5,0.3 -8.8,0.3 -1.7,0 -2.4,-0.3 -2.4,-1.2 0,-0.5 0.3,-0.9 1.2,-0.9 1.4,0 3.2,-0.3 4.6,-0.6 3,-0.6 3.8,-3.9 4.4,-8.4 0.8,-6.4 0.8,-18.4 0.8,-33 v -26.6 z m 12.1,3.3 c 0,1.1 0.3,1.4 1.1,1.7 0.9,0.2 3.6,0.6 9.3,0.6 8.5,0 10.6,-0.3 13.8,-3.9 3.2,-3.6 5.5,-9.1 5.5,-15.3 0,-12.6 -5.6,-26.1 -20.5,-26.1 -1.7,0 -4.9,0.2 -7.3,0.8 -1.4,0.3 -1.8,0.8 -1.8,1.7 v 40.5 z m 0,16.1 c 0,11.7 0,30.5 0.2,32.8 0.5,7.4 0.5,9.6 5.2,11.8 4.1,2 10.6,2.3 13.4,2.3 8.2,0 21.4,-4.4 21.4,-21.6 0,-9.1 -3,-22.3 -14.7,-30.4 -5.2,-3.5 -9,-4 -12.6,-4.4 -2,-0.3 -9.6,-0.3 -11.8,-0.3 -0.6,0 -0.9,0.3 -0.9,1.1 v 8.7 z m 90,-19.4 c 0,-23.7 0,-28 -0.3,-32.8 -0.3,-5.2 -1.5,-7.6 -6.5,-8.7 -1.2,-0.3 -3.8,-0.5 -5.2,-0.5 -0.6,0 -1.2,-0.3 -1.2,-0.9 0,-0.9 0.8,-1.2 2.4,-1.2 6.8,0 16.4,0.5 17.2,0.5 1.7,0 13.2,-0.5 17.9,-0.5 9.6,0 19.7,0.9 27.8,6.7 3.8,2.7 10.5,10.2 10.5,20.7 0,11.2 -4.7,22.5 -18.4,35.1 12.5,16 22.8,29.5 31.6,38.9 8.2,8.7 14.7,10.3 18.5,10.9 2.9,0.5 5,0.5 5.9,0.5 0.8,0 1.4,0.5 1.4,0.9 0,0.9 -0.9,1.2 -3.6,1.2 h -10.8 c -8.5,0 -12.3,-0.8 -16.3,-2.9 -6.5,-3.5 -11.8,-10.9 -20.5,-22.3 -6.4,-8.4 -13.5,-18.5 -16.6,-22.5 -0.6,-0.6 -1.1,-0.9 -2,-0.9 l -18.7,-0.3 c -0.8,0 -1.1,0.5 -1.1,1.2 v 3.6 c 0,14.6 0,26.6 0.8,33 0.5,4.4 1.4,7.7 5.9,8.4 2.1,0.3 5.5,0.6 6.8,0.6 0.9,0 1.2,0.5 1.2,0.9 0,0.8 -0.8,1.2 -2.4,1.2 -8.4,0 -17.9,-0.5 -18.7,-0.5 -0.2,0 -9.7,0.5 -14.3,0.5 -1.7,0 -2.4,-0.3 -2.4,-1.2 0,-0.5 0.3,-0.9 1.2,-0.9 1.4,0 3.2,-0.3 4.6,-0.6 3,-0.6 3.8,-3.9 4.4,-8.4 0.8,-6.4 0.8,-18.4 0.8,-33 v -26.7 z m 12.1,13.2 c 0,0.8 0.3,1.4 1.1,1.8 2.3,1.4 9.3,2.4 16,2.4 3.6,0 7.9,-0.5 11.4,-2.9 5.3,-3.6 9.3,-11.8 9.3,-23.4 0,-19 -10,-30.4 -26.3,-30.4 -4.6,0 -8.7,0.5 -10.2,0.9 -0.8,0.3 -1.2,0.9 -1.2,1.8 V 172 Z" />
        <path
           inkscape:connector-curvature="0"
           id="path18"
           d="m 813.7,118.5 c 1.8,-5 2.4,-5.9 3.3,-5.9 0.9,0 1.5,0.8 3.3,5.5 2.3,5.8 26.1,68.5 35.4,91.6 5.5,13.5 9.9,16 13.1,16.9 2.3,0.8 4.6,0.9 6.1,0.9 0.9,0 1.5,0.2 1.5,0.9 0,0.9 -1.4,1.2 -3,1.2 -2.3,0 -13.4,0 -23.9,-0.3 -2.9,-0.2 -4.6,-0.2 -4.6,-1.1 0,-0.6 0.5,-0.9 1.1,-1.1 0.9,-0.3 1.8,-1.7 0.9,-4.1 l -14.1,-37.4 c -0.3,-0.6 -0.6,-0.9 -1.4,-0.9 h -32.7 c -0.8,0 -1.2,0.5 -1.5,1.2 l -9.1,26.9 c -1.4,3.8 -2.1,7.4 -2.1,10.2 0,3 3.2,4.4 5.8,4.4 h 1.5 c 1.1,0 1.5,0.3 1.5,0.9 0,0.9 -0.9,1.2 -2.3,1.2 -3.6,0 -10.2,-0.5 -11.8,-0.5 -1.6,0 -10,0.5 -17.2,0.5 -2,0 -2.9,-0.3 -2.9,-1.2 0,-0.6 0.6,-0.9 1.4,-0.9 1.1,0 3.2,-0.2 4.4,-0.3 7,-0.9 10,-6.7 12.8,-14.3 z m 15.8,60.8 c 0.8,0 0.8,-0.5 0.6,-1.1 l -14.4,-41 c -0.8,-2.3 -1.5,-2.3 -2.3,0 l -13.4,41 c -0.3,0.8 0,1.1 0.5,1.1 z m 68.7,-20.5 c 0,-23.7 0,-28 -0.3,-32.8 -0.3,-5.2 -1.5,-7.6 -6.5,-8.7 -1.2,-0.3 -3.8,-0.5 -5.2,-0.5 -0.6,0 -1.2,-0.3 -1.2,-0.9 0,-0.9 0.8,-1.2 2.4,-1.2 6.8,0 16.4,0.5 17.2,0.5 1.7,0 13.2,-0.5 17.9,-0.5 9.6,0 19.7,0.9 27.8,6.7 3.8,2.7 10.5,10.2 10.5,20.7 0,11.2 -4.7,22.5 -18.4,35.1 12.5,16 22.8,29.5 31.6,38.9 8.2,8.7 14.7,10.3 18.5,10.9 2.9,0.5 5,0.5 5.9,0.5 0.8,0 1.4,0.5 1.4,0.9 0,0.9 -0.9,1.2 -3.6,1.2 h -10.8 c -8.5,0 -12.3,-0.8 -16.3,-2.9 -6.5,-3.5 -11.8,-10.9 -20.5,-22.3 -6.4,-8.4 -13.5,-18.5 -16.6,-22.5 -0.6,-0.6 -1.1,-0.9 -2,-0.9 l -18.7,-0.3 c -0.8,0 -1.1,0.5 -1.1,1.2 v 3.6 c 0,14.6 0,26.6 0.8,33 0.5,4.4 1.4,7.7 5.9,8.4 2.1,0.3 5.5,0.6 6.8,0.6 0.9,0 1.2,0.5 1.2,0.9 0,0.8 -0.8,1.2 -2.4,1.2 -8.4,0 -17.9,-0.5 -18.7,-0.5 -0.2,0 -9.7,0.5 -14.3,0.5 -1.7,0 -2.4,-0.3 -2.4,-1.2 0,-0.5 0.3,-0.9 1.2,-0.9 1.4,0 3.2,-0.3 4.6,-0.6 3,-0.6 3.8,-3.9 4.4,-8.4 0.8,-6.4 0.8,-18.4 0.8,-33 v -26.7 z m 12.2,13.2 c 0,0.8 0.3,1.4 1.1,1.8 2.3,1.4 9.3,2.4 16,2.4 3.6,0 7.9,-0.5 11.4,-2.9 5.3,-3.6 9.3,-11.8 9.3,-23.4 0,-19 -10,-30.4 -26.3,-30.4 -4.6,0 -8.7,0.5 -10.2,0.9 -0.8,0.3 -1.2,0.9 -1.2,1.8 V 172 Z m 116.2,18.2 c 0,-8.2 -1.5,-11.5 -3.5,-16 -1.1,-2.4 -21.4,-35.9 -26.7,-43.8 -3.8,-5.6 -7.6,-9.4 -10.3,-11.2 -2.3,-1.5 -5.2,-2.4 -6.5,-2.4 -0.8,0 -1.5,-0.3 -1.5,-1.1 0,-0.6 0.6,-1.1 2,-1.1 2.9,0 14.3,0.5 15,0.5 1.1,0 6.8,-0.5 12.8,-0.5 1.7,0 2,0.5 2,1.1 0,0.6 -0.9,0.8 -2.3,1.4 -1.2,0.6 -2,1.5 -2,2.7 0,1.8 0.8,3.6 2,5.9 2.4,4.4 25.2,43.6 28,48 2.9,-6.4 22.2,-39.7 25.2,-44.7 2,-3.2 2.6,-5.8 2.6,-7.7 0,-2.1 -0.6,-3.8 -2.4,-4.3 -1.4,-0.5 -2.3,-0.8 -2.3,-1.5 0,-0.6 0.9,-0.9 2.4,-0.9 3.9,0 8.8,0.5 10,0.5 0.9,0 11.8,-0.5 14.7,-0.5 1.1,0 2,0.3 2,0.9 0,0.8 -0.8,1.2 -2,1.2 -1.7,0 -4.6,0.6 -7,2.1 -3,1.8 -4.7,3.6 -8.1,7.7 -5,6.1 -26.3,41.8 -29,48.3 -2.3,5.5 -2.3,10.2 -2.3,15.2 v 13.1 c 0,2.4 0,8.8 0.5,15.2 0.3,4.4 1.7,7.7 6.2,8.4 2.1,0.3 5.5,0.6 6.8,0.6 0.9,0 1.2,0.5 1.2,0.9 0,0.8 -0.8,1.2 -2.4,1.2 -8.4,0 -17.9,-0.5 -18.7,-0.5 -0.8,0 -10.3,0.5 -14.9,0.5 -1.7,0 -2.4,-0.3 -2.4,-1.2 0,-0.5 0.3,-0.9 1.2,-0.9 1.4,0 3.2,-0.3 4.6,-0.6 3,-0.6 4.4,-3.9 4.7,-8.4 0.5,-6.4 0.5,-12.8 0.5,-15.2 v -12.9 z" />
      </g>
    </g>
    <g
       id="g965">
      <g
         id="g951">
        <g
           id="g945">
          <path
             style="fill:none;stroke:#d3ccb0;stroke-width:5;stroke-linecap:butt;stroke-linejoin:miter;stroke-miterlimit:4;stroke-dasharray:none;stroke-opacity:1"
             d="M 412.35319,156.61809 544.88973,282.34201"
             id="path134"
             inkscape:connector-curvature="0"
             sodipodi:nodetypes="cc" />
          <path
             style="fill:none;stroke:#d3ccb0;stroke-width:5;stroke-linecap:butt;stroke-linejoin:miter;stroke-miterlimit:4;stroke-dasharray:none;stroke-opacity:1"
             d="M 289.24079,261.63822 412.35319,156.61809"
             id="path136"
             inkscape:connector-curvature="0"
             sodipodi:nodetypes="cc" />
        </g>
        <circle
           style="stroke-width:1.12819815"
           transform="rotate(9.5430212)"
           id="circle12"
           r="13.876838"
           cy="91.970482"
           cx="435.94809" />
      </g>
      <g
         id="g955">
        <path
           style="fill:#518abe;stroke-width:1.12819815"
           inkscape:connector-curvature="0"
           id="path8"
           d="M 541.04161,422.79223 250.25468,396.10088 c -16.67201,-1.54437 -29.04075,-16.43687 -27.49637,-33.10889 l 7.96696,-86.17893 c 1.54438,-16.67201 16.43688,-29.04075 33.10889,-27.49637 l 290.78693,26.69134 c 16.67201,1.54438 29.04075,16.43688 27.49638,33.10889 l -7.96697,86.17893 c -1.54437,16.67201 -16.43687,29.04075 -33.10889,27.49638 z" />
        <path
           style="fill:#ffffff;stroke-width:1.12819815"
           inkscape:connector-curvature="0"
           id="path10"
           d="m 287.0466,282.04859 c 8.45662,0.73526 15.59394,3.19358 21.44936,7.15245 5.72547,4.05141 9.98394,9.34344 12.53418,15.94994 2.55025,6.60649 3.42969,14.30494 2.67572,22.87281 -0.6024,6.3053 -2.02005,12.01592 -4.12299,17.03933 -2.2142,5.0047 -5.22495,9.30348 -9.01354,12.78507 -3.78859,3.48159 -8.22506,6.05344 -13.40196,7.58559 -5.17691,1.53215 -10.98299,2.0433 -17.39955,1.4222 -6.41655,-0.62111 -12.10847,-2.15002 -16.9458,-4.67929 -4.83733,-2.52927 -8.85748,-5.83638 -11.94918,-9.90264 -3.0917,-4.06625 -5.14371,-8.87294 -6.39723,-14.34621 -1.25351,-5.47327 -1.54215,-11.24195 -1.06971,-17.45469 0.6024,-6.30529 2.02005,-12.01592 4.36421,-17.11318 2.34416,-5.09725 5.33621,-9.28477 9.10609,-12.6551 3.76989,-3.37034 8.18765,-5.83093 13.36456,-7.36308 5.17691,-1.53215 10.50055,-1.8956 16.80584,-1.2932 z m 19.76473,44.39342 c 0.54629,-5.97152 0.0716,-11.31387 -1.44283,-15.91577 -1.51441,-4.60191 -4.01338,-8.11091 -7.34824,-10.7308 -3.33485,-2.61989 -7.43175,-4.10946 -12.04946,-4.54256 -3.26391,-0.3199 -6.41752,0.0652 -9.33088,1.06262 -2.91336,0.99746 -5.47521,2.62603 -7.7781,4.75574 -2.21033,2.25968 -4.18041,5.13177 -5.68771,8.65367 -1.52602,3.63315 -2.44059,7.71231 -2.87368,12.33003 -0.4331,4.61771 -0.23509,8.88391 0.59404,12.79859 0.82912,3.91469 2.23421,7.12538 4.06659,9.8359 1.94364,2.72922 4.24073,4.71703 6.85386,6.18596 2.61312,1.46893 5.65354,2.43769 8.93615,2.64633 4.28394,0.37699 8.29118,-0.32218 12.02173,-2.09748 3.73054,-1.7753 6.86932,-4.79412 9.41633,-9.05646 2.41704,-4.16977 4.0011,-9.50922 4.6222,-15.92577 z m 62.00166,14.9995 -15.20695,-1.41248 -2.18418,23.19982 c -0.31991,3.26391 -1.3064,5.72934 -3.07073,7.37758 -1.74563,1.53698 -3.80536,2.22034 -6.1792,2.05007 -2.48509,-0.18898 -4.46808,-1.32317 -5.76384,-3.14265 -1.40702,-1.83818 -1.88559,-4.4355 -1.56569,-7.69941 l 5.82019,-63.20162 c 0.37602,-3.59768 1.38121,-6.17437 3.21939,-7.58139 1.83818,-1.40702 4.56547,-1.97815 8.16315,-1.60213 l 21.28973,1.97747 c 6.30529,0.6024 11.0707,1.51794 14.40749,2.76532 3.22554,1.22868 6.00507,3.06879 8.24604,5.39039 2.22227,2.43285 3.81344,5.21721 4.86604,8.48305 0.94135,3.24713 1.25159,6.84578 0.93072,10.79594 -0.71656,8.34536 -3.91532,14.44298 -9.48501,18.31156 -5.43973,3.77602 -13.34295,5.19305 -23.48715,4.28848 z m -0.59569,-37.96754 -11.14552,-1.0729 -2.27964,25.12863 11.14552,1.0729 c 3.95017,0.32087 7.27018,0.307 9.88621,-0.28283 2.72728,-0.57113 4.86183,-1.69952 6.42235,-3.49643 1.54182,-1.68565 2.41705,-4.16978 2.68084,-7.09991 0.37602,-3.59768 -0.47278,-6.71486 -2.36127,-9.09159 -2.16616,-2.76663 -6.9119,-4.47968 -14.34849,-5.15787 z m 102.68357,9.82642 -37.40544,-3.42833 -1.90169,20.15844 34.47531,3.16453 c 2.59636,0.20768 4.41294,0.97068 5.5797,2.19646 1.16677,1.22578 1.59116,2.78437 1.49571,4.71317 -0.20671,1.9101 -0.8949,3.28164 -2.23194,4.4297 -1.33703,1.14806 -3.34065,1.49764 -5.80705,1.19741 l -34.47531,-3.16453 -2.09163,23.32978 38.75925,3.54152 c 2.59636,0.20768 4.52419,0.98939 5.78351,2.34513 1.25932,1.35574 1.77627,3.04429 1.55086,5.06565 -0.20672,1.9101 -1.04357,3.48545 -2.3619,4.52226 -1.4483,1.12935 -3.45192,1.47893 -6.04827,1.27125 l -45.17581,-4.16262 c -3.59768,-0.37602 -6.17436,-1.38121 -7.60009,-3.10813 -1.42572,-1.72693 -1.99685,-4.45421 -1.63954,-7.94063 l 5.66959,-61.6253 c 0.17027,-2.37384 0.72946,-4.33909 1.65887,-5.78448 0.81815,-1.4641 2.00652,-2.40835 3.60252,-3.05526 1.59599,-0.64692 3.5435,-0.66272 5.91734,-0.49245 l 43.822,4.04943 c 2.59635,0.20768 4.52419,0.98939 5.78351,2.34513 1.14806,1.33704 1.68371,2.91433 1.477,4.82443 -0.20671,1.91009 -0.9136,3.3929 -2.3619,4.52225 -1.85592,0.83203 -3.87824,1.29287 -6.4746,1.08519 z m 44.4215,-0.1971 27.52639,51.30401 4.53864,-48.77349 c 0.3012,-3.15264 1.15773,-5.52552 2.66214,-6.98865 1.5044,-1.46313 3.43417,-2.05393 5.69675,-1.90237 2.37384,0.17028 4.15301,1.1558 5.46748,2.86402 1.2032,1.68951 1.70048,4.17558 1.39928,7.32822 l -5.93338,64.55543 c -0.64077,7.21407 -3.94692,10.54796 -9.91844,10.00167 -1.46507,-0.13189 -2.78146,-0.4676 -3.9492,-1.00712 -1.16773,-0.53952 -2.18679,-1.28286 -3.14974,-2.35997 -0.96296,-1.07711 -1.79595,-2.24677 -2.61023,-3.5277 -0.81429,-1.28092 -1.60987,-2.6731 -2.29419,-4.04658 l -26.93366,-50.74675 -4.42641,48.10593 c -0.3012,3.15265 -1.25028,5.39556 -2.88465,6.95125 -1.61567,1.44442 -3.56414,2.14648 -5.80802,1.88366 -2.37384,-0.17027 -4.15301,-1.15579 -5.44877,-2.97527 -1.31446,-1.70822 -1.81174,-4.19429 -1.52925,-7.23567 l 5.8389,-63.31289 c 0.22638,-2.70761 0.69302,-4.80282 1.51117,-6.26692 0.83686,-1.57535 2.1926,-2.83467 3.95596,-3.79666 1.76337,-0.96198 3.52577,-1.23771 5.45457,-1.14226 1.46506,0.1319 2.78146,0.46761 3.81923,1.09968 1.03777,0.63208 1.83432,1.338 2.59346,2.26645 0.75914,0.92844 1.48087,2.0794 2.16519,3.45288 0.70303,1.26222 1.4799,2.76566 2.25678,4.2691 z" />
      </g>
    </g>
  </g>
</svg>
