<?xml version="1.0" encoding="utf-8"?>
<!-- Generator: Adobe Illustrator 16.0.0, SVG Export Plug-In . SVG Version: 6.00 Build 0)  -->
<!DOCTYPE svg PUBLIC "-//W3C//DTD SVG 1.1//EN" "http://www.w3.org/Graphics/SVG/1.1/DTD/svg11.dtd">
<svg version="1.1" id="Layer_1" xmlns="http://www.w3.org/2000/svg" xmlns:xlink="http://www.w3.org/1999/xlink" x="0px" y="0px"
	 width="199.262px" height="282.755px" viewBox="0 0 199.262 282.755" enable-background="new 0 0 199.262 282.755"
	 xml:space="preserve">
<g>
	<defs>
		<rect id="SVGID_1_" width="199.262" height="282.755"/>
	</defs>
	<clipPath id="SVGID_2_">
		<use xlink:href="#SVGID_1_"  overflow="visible"/>
	</clipPath>
	<g clip-path="url(#SVGID_2_)">
		<defs>
			<rect id="SVGID_3_" x="-1200.145" y="-0.146" width="1440" height="2408.001"/>
		</defs>
		<clipPath id="SVGID_4_">
			<use xlink:href="#SVGID_3_"  overflow="visible"/>
		</clipPath>
	</g>
</g>
<g>
	<rect fill="#AACA47" width="199.262" height="282.755"/>
</g>
<g>
	<defs>
		<path id="SVGID_5_" d="M164.436,236.378c-0.121-0.502-0.322-1.077-0.604-1.724c-0.283-0.646-0.663-1.401-1.146-2.263
			c-0.48-0.862-1.045-1.832-1.688-2.909l-37.495-52.148l33.518-37.711c1.043-1.292,1.887-2.424,2.532-3.394
			c0.641-0.97,1.145-1.832,1.506-2.586s0.621-1.417,0.783-1.993c0.16-0.574,0.242-1.148,0.242-1.724
			c0-0.646-0.263-1.222-0.784-1.725c-0.524-0.501-1.407-0.897-2.652-1.186c-1.247-0.285-2.915-0.52-5.003-0.699
			c-2.092-0.18-4.744-0.27-7.958-0.27c-3.056,0-5.546,0.072-7.474,0.215c-1.93,0.146-3.518,0.36-4.764,0.646
			c-1.246,0.288-2.23,0.701-2.953,1.239c-0.725,0.539-1.368,1.239-1.93,2.101c0,0-33.064,43.266-35.686,46.762
			c-2.623,3.496,0,6.249,0,6.249l37.133,54.196c0.562,0.934,1.185,1.688,1.869,2.263c0.682,0.575,1.666,1.007,2.953,1.292
			c1.285,0.287,2.973,0.485,5.064,0.594c2.089,0.106,4.78,0.161,8.076,0.161c3.215,0,5.909-0.072,8.078-0.216
			c2.171-0.146,3.877-0.377,5.125-0.7c1.244-0.324,2.129-0.736,2.652-1.239c0.521-0.502,0.783-1.113,0.783-1.831
			C164.615,237.348,164.556,236.882,164.436,236.378"/>
	</defs>
	<clipPath id="SVGID_6_">
		<use xlink:href="#SVGID_5_"  overflow="visible"/>
	</clipPath>
	<g clip-path="url(#SVGID_6_)">
		<defs>
			<rect id="SVGID_7_" x="-1200.145" y="-0.146" width="1440" height="2408.001"/>
		</defs>
		<clipPath id="SVGID_8_">
			<use xlink:href="#SVGID_7_"  overflow="visible"/>
		</clipPath>
		<rect x="86.715" y="121.048" clip-path="url(#SVGID_8_)" fill="#FFFFFF" width="82.9" height="125.718"/>
	</g>
</g>
<g>
	<defs>
		<path id="SVGID_9_" d="M73.549,82.797c-0.172-0.086-0.308-0.139-0.406-0.159c-0.098-0.02-0.176-0.002-0.234,0.053
			c-0.059,0.056-0.096,0.154-0.112,0.3c-0.016,0.146-0.022,0.351-0.022,0.617c0,0.221,0.007,0.397,0.022,0.535
			c0.017,0.138,0.036,0.245,0.06,0.323s0.057,0.136,0.1,0.171s0.096,0.069,0.158,0.101l5.459,2.868v0.024l-5.459,2.962
			c-0.07,0.032-0.127,0.065-0.17,0.101s-0.076,0.094-0.101,0.176c-0.022,0.082-0.04,0.195-0.052,0.342
			c-0.013,0.145-0.018,0.335-0.018,0.569c0,0.267,0.007,0.475,0.022,0.623c0.017,0.148,0.052,0.253,0.106,0.312
			s0.133,0.075,0.234,0.048c0.103-0.028,0.24-0.088,0.412-0.183l6.953-3.903h4.494c0.055,0,0.104-0.017,0.147-0.047
			c0.043-0.031,0.079-0.085,0.105-0.159c0.028-0.075,0.05-0.177,0.065-0.306c0.015-0.129,0.023-0.291,0.023-0.487
			c0-0.182-0.009-0.338-0.023-0.471c-0.016-0.134-0.037-0.237-0.065-0.312c-0.026-0.073-0.062-0.129-0.105-0.164
			c-0.044-0.035-0.093-0.053-0.147-0.053h-4.494L73.549,82.797z M77.148,96.993c0.252,0.1,0.469,0.245,0.653,0.441
			s0.326,0.446,0.424,0.753c0.099,0.306,0.147,0.701,0.147,1.188v1.67h-3.977v-1.752c0-0.502,0.049-0.899,0.146-1.194
			c0.099-0.293,0.232-0.534,0.4-0.723s0.371-0.323,0.605-0.406c0.236-0.082,0.49-0.123,0.766-0.123
			C76.619,96.847,76.898,96.896,77.148,96.993z M84.803,94.113c-0.099,0.027-0.25,0.08-0.453,0.158l-2.742,1.047
			c-0.312,0.125-0.596,0.253-0.847,0.382c-0.251,0.13-0.471,0.267-0.659,0.411c-0.188,0.146-0.346,0.307-0.476,0.482
			c-0.13,0.177-0.237,0.37-0.323,0.583c-0.126-0.385-0.287-0.726-0.483-1.024c-0.196-0.298-0.429-0.55-0.699-0.758
			s-0.575-0.368-0.912-0.482c-0.337-0.113-0.71-0.17-1.118-0.17c-0.51,0-0.967,0.095-1.37,0.282s-0.743,0.46-1.019,0.817
			c-0.273,0.356-0.485,0.795-0.635,1.316c-0.148,0.521-0.224,1.158-0.224,1.91v3.316c0,0.157,0.058,0.306,0.171,0.447
			c0.114,0.141,0.3,0.211,0.559,0.211h11.424c0.055,0,0.104-0.016,0.147-0.047c0.043-0.031,0.079-0.086,0.105-0.164
			c0.028-0.079,0.05-0.183,0.065-0.312c0.015-0.129,0.023-0.288,0.023-0.476c0-0.195-0.009-0.356-0.023-0.482
			c-0.016-0.125-0.037-0.228-0.065-0.306c-0.026-0.078-0.062-0.133-0.105-0.165c-0.044-0.031-0.093-0.046-0.147-0.046h-5.094v-1.211
			c0-0.408,0.051-0.739,0.152-0.994s0.245-0.477,0.43-0.664c0.185-0.188,0.41-0.354,0.677-0.494
			c0.267-0.142,0.564-0.271,0.894-0.388l2.848-1.012c0.086-0.023,0.157-0.055,0.212-0.094s0.1-0.101,0.135-0.183
			c0.036-0.083,0.06-0.188,0.071-0.317c0.012-0.129,0.018-0.3,0.018-0.512c0-0.219-0.006-0.401-0.018-0.546
			c-0.012-0.146-0.029-0.26-0.054-0.342c-0.022-0.082-0.053-0.139-0.088-0.17s-0.081-0.048-0.136-0.048
			C84.98,94.071,84.9,94.086,84.803,94.113z M80.861,108.903c0.584,0.13,1.096,0.344,1.535,0.642s0.788,0.687,1.047,1.164
			c0.259,0.479,0.389,1.062,0.389,1.751c0,0.69-0.116,1.271-0.348,1.741s-0.561,0.852-0.988,1.146
			c-0.428,0.295-0.936,0.505-1.523,0.63s-1.238,0.188-1.953,0.188c-0.635,0-1.24-0.068-1.817-0.206s-1.083-0.354-1.518-0.646
			c-0.436-0.295-0.778-0.679-1.029-1.152s-0.376-1.057-0.376-1.747c0-0.689,0.117-1.27,0.352-1.739
			c0.236-0.471,0.565-0.851,0.988-1.141c0.424-0.29,0.924-0.5,1.5-0.63c0.577-0.129,1.211-0.193,1.9-0.193
			C79.663,108.71,80.277,108.774,80.861,108.903z M76.173,106.993c-0.776,0.251-1.427,0.619-1.954,1.105
			c-0.525,0.486-0.921,1.084-1.188,1.793c-0.266,0.71-0.4,1.522-0.4,2.439c0,0.957,0.153,1.804,0.459,2.541
			c0.307,0.736,0.741,1.354,1.307,1.856c0.564,0.503,1.248,0.883,2.053,1.141c0.805,0.259,1.7,0.389,2.688,0.389
			c1.051,0,1.973-0.117,2.765-0.354c0.793-0.234,1.453-0.593,1.982-1.075s0.928-1.082,1.193-1.799c0.268-0.718,0.4-1.555,0.4-2.511
			s-0.153-1.803-0.459-2.539c-0.306-0.737-0.742-1.354-1.312-1.853c-0.568-0.497-1.258-0.874-2.07-1.129
			c-0.812-0.254-1.727-0.382-2.746-0.382C77.855,106.617,76.949,106.743,76.173,106.993z M73.284,119.585
			c-0.105,0.017-0.192,0.038-0.259,0.065s-0.113,0.062-0.141,0.105c-0.027,0.044-0.042,0.093-0.042,0.147v8.747
			c0,0.055,0.015,0.104,0.042,0.147c0.027,0.044,0.074,0.081,0.141,0.112s0.153,0.053,0.259,0.063
			c0.106,0.012,0.229,0.019,0.37,0.019c0.143,0,0.266-0.007,0.371-0.019c0.105-0.011,0.192-0.032,0.259-0.063
			c0.067-0.031,0.116-0.068,0.147-0.112c0.031-0.043,0.047-0.093,0.047-0.147v-3.374h10.518c0.055,0,0.104-0.016,0.147-0.048
			c0.043-0.03,0.079-0.085,0.105-0.164c0.028-0.078,0.05-0.178,0.065-0.299c0.015-0.122,0.023-0.285,0.023-0.489
			c0-0.195-0.009-0.358-0.023-0.487c-0.016-0.129-0.037-0.229-0.065-0.3c-0.026-0.071-0.062-0.123-0.105-0.159
			c-0.044-0.035-0.093-0.052-0.147-0.052H74.479v-3.375c0-0.11-0.064-0.193-0.194-0.253c-0.13-0.059-0.339-0.088-0.63-0.088
			C73.514,119.562,73.391,119.57,73.284,119.585z M80.49,130.813c-0.368,0.173-0.687,0.398-0.953,0.677
			c-0.266,0.277-0.498,0.594-0.693,0.946c-0.196,0.353-0.373,0.713-0.529,1.082c-0.157,0.368-0.312,0.729-0.465,1.082
			c-0.153,0.353-0.32,0.668-0.5,0.945c-0.181,0.279-0.393,0.504-0.637,0.677c-0.242,0.173-0.532,0.258-0.869,0.258
			c-0.229,0-0.441-0.047-0.642-0.141c-0.2-0.093-0.372-0.228-0.518-0.399c-0.146-0.173-0.259-0.384-0.341-0.635
			c-0.083-0.251-0.125-0.529-0.125-0.835c0-0.399,0.053-0.76,0.154-1.082c0.102-0.32,0.21-0.601,0.323-0.84
			c0.114-0.239,0.222-0.439,0.323-0.6c0.102-0.161,0.153-0.276,0.153-0.347c0-0.055-0.017-0.101-0.048-0.136
			s-0.08-0.067-0.146-0.094c-0.066-0.028-0.15-0.046-0.253-0.054s-0.228-0.012-0.377-0.012c-0.125,0-0.235,0.004-0.329,0.012
			s-0.174,0.021-0.24,0.042c-0.067,0.019-0.122,0.042-0.166,0.07c-0.043,0.026-0.094,0.069-0.152,0.124
			c-0.059,0.054-0.137,0.177-0.235,0.37c-0.098,0.191-0.19,0.419-0.276,0.682s-0.161,0.555-0.224,0.876
			c-0.063,0.321-0.095,0.646-0.095,0.976c0,0.564,0.081,1.09,0.242,1.576c0.16,0.485,0.386,0.909,0.676,1.27
			c0.291,0.36,0.641,0.643,1.053,0.846c0.412,0.204,0.869,0.307,1.371,0.307c0.51,0,0.955-0.083,1.336-0.248
			c0.38-0.164,0.705-0.385,0.976-0.663s0.506-0.595,0.706-0.946c0.199-0.353,0.383-0.712,0.547-1.077
			c0.165-0.363,0.32-0.723,0.465-1.075c0.146-0.353,0.311-0.666,0.494-0.94c0.185-0.274,0.396-0.496,0.636-0.665
			c0.239-0.168,0.519-0.253,0.841-0.253c0.299,0,0.562,0.062,0.795,0.183c0.23,0.122,0.427,0.29,0.588,0.506
			c0.16,0.216,0.283,0.472,0.37,0.771c0.087,0.298,0.13,0.622,0.13,0.976c0,0.471-0.057,0.896-0.171,1.275
			c-0.114,0.381-0.239,0.708-0.376,0.982c-0.138,0.274-0.264,0.499-0.377,0.676s-0.171,0.308-0.171,0.395
			c0,0.062,0.019,0.115,0.054,0.158s0.092,0.078,0.17,0.105s0.175,0.046,0.288,0.053c0.114,0.009,0.249,0.012,0.405,0.012
			c0.127,0,0.23-0.003,0.312-0.012c0.082-0.007,0.154-0.021,0.218-0.04c0.062-0.021,0.116-0.044,0.159-0.071
			c0.043-0.028,0.096-0.072,0.158-0.135c0.063-0.063,0.148-0.198,0.26-0.406c0.109-0.207,0.217-0.46,0.322-0.758
			c0.106-0.299,0.195-0.633,0.266-1.006c0.07-0.372,0.105-0.758,0.105-1.158c0-0.65-0.086-1.254-0.259-1.811
			s-0.413-1.034-0.724-1.434c-0.31-0.401-0.691-0.717-1.146-0.947c-0.455-0.231-0.973-0.347-1.554-0.347
			C81.295,130.556,80.859,130.642,80.49,130.813z M73.102,141.913c-0.047,0-0.092,0.016-0.135,0.047s-0.078,0.087-0.105,0.165
			c-0.027,0.079-0.049,0.18-0.065,0.306c-0.016,0.125-0.022,0.286-0.022,0.481c0,0.188,0.007,0.345,0.022,0.471
			c0.017,0.125,0.038,0.228,0.065,0.306c0.027,0.079,0.062,0.135,0.105,0.171c0.043,0.034,0.088,0.053,0.135,0.053h11.895
			c0.055,0,0.104-0.016,0.147-0.047c0.043-0.031,0.079-0.087,0.105-0.165c0.028-0.078,0.05-0.183,0.065-0.312
			c0.015-0.129,0.023-0.288,0.023-0.477c0-0.195-0.009-0.356-0.023-0.481c-0.016-0.126-0.037-0.227-0.065-0.306
			c-0.026-0.078-0.062-0.134-0.105-0.165c-0.044-0.031-0.093-0.047-0.147-0.047H73.102z M73.113,148.18
			c-0.055,0-0.104,0.016-0.146,0.047s-0.078,0.088-0.105,0.171c-0.027,0.082-0.049,0.188-0.065,0.316
			c-0.016,0.13-0.022,0.293-0.022,0.488c0,0.188,0.007,0.346,0.022,0.471c0.017,0.125,0.038,0.228,0.065,0.306
			s0.062,0.131,0.105,0.158s0.092,0.042,0.146,0.042h4.859v5.667h-4.859c-0.055,0-0.104,0.016-0.146,0.047s-0.078,0.087-0.105,0.165
			c-0.027,0.079-0.049,0.18-0.065,0.306c-0.016,0.126-0.022,0.286-0.022,0.481c0,0.188,0.007,0.348,0.022,0.477
			c0.017,0.13,0.038,0.233,0.065,0.312s0.062,0.134,0.105,0.165s0.092,0.047,0.146,0.047h11.883c0.055,0,0.104-0.016,0.147-0.047
			c0.043-0.031,0.079-0.087,0.105-0.165c0.028-0.078,0.05-0.182,0.065-0.312c0.015-0.129,0.023-0.288,0.023-0.477
			c0-0.195-0.009-0.355-0.023-0.481c-0.016-0.126-0.037-0.227-0.065-0.306c-0.026-0.078-0.062-0.134-0.105-0.165
			c-0.044-0.031-0.093-0.047-0.147-0.047h-5.341v-5.667h5.341c0.055,0,0.104-0.015,0.147-0.042c0.043-0.027,0.079-0.08,0.105-0.158
			c0.028-0.078,0.05-0.181,0.065-0.306c0.015-0.125,0.023-0.282,0.023-0.471c0-0.195-0.009-0.358-0.023-0.488
			c-0.016-0.129-0.037-0.234-0.065-0.316c-0.026-0.083-0.062-0.14-0.105-0.171c-0.044-0.031-0.093-0.047-0.147-0.047H73.113z
			 M73.284,166.485c-0.105,0.017-0.192,0.038-0.259,0.065c-0.066,0.026-0.113,0.062-0.141,0.105s-0.042,0.092-0.042,0.147v8.748
			c0,0.055,0.015,0.103,0.042,0.146c0.027,0.044,0.074,0.082,0.141,0.112c0.066,0.031,0.153,0.053,0.259,0.065
			c0.106,0.011,0.229,0.017,0.37,0.017c0.143,0,0.266-0.006,0.371-0.017c0.105-0.013,0.192-0.034,0.259-0.065
			c0.067-0.03,0.116-0.068,0.147-0.112c0.031-0.043,0.047-0.091,0.047-0.146v-3.375h10.518c0.055,0,0.104-0.016,0.147-0.047
			c0.043-0.031,0.079-0.087,0.105-0.165c0.028-0.078,0.05-0.179,0.065-0.3c0.015-0.121,0.023-0.284,0.023-0.487
			c0-0.197-0.009-0.359-0.023-0.488c-0.016-0.13-0.037-0.229-0.065-0.3c-0.026-0.07-0.062-0.124-0.105-0.159
			c-0.044-0.035-0.093-0.053-0.147-0.053H74.479v-3.374c0-0.11-0.064-0.194-0.194-0.253c-0.13-0.06-0.339-0.088-0.63-0.088
			C73.514,166.463,73.391,166.47,73.284,166.485z M77.148,180.307c0.252,0.098,0.469,0.245,0.653,0.44
			c0.185,0.197,0.326,0.448,0.424,0.753c0.099,0.306,0.147,0.701,0.147,1.188v1.67h-3.977v-1.752c0-0.502,0.049-0.899,0.146-1.194
			c0.099-0.294,0.232-0.534,0.4-0.722c0.168-0.188,0.371-0.323,0.605-0.406c0.236-0.082,0.49-0.123,0.766-0.123
			C76.619,180.16,76.898,180.208,77.148,180.307z M84.803,177.426c-0.099,0.027-0.25,0.081-0.453,0.159l-2.742,1.046
			c-0.312,0.126-0.596,0.253-0.847,0.382c-0.251,0.13-0.471,0.268-0.659,0.412c-0.188,0.146-0.346,0.306-0.476,0.482
			c-0.13,0.176-0.237,0.37-0.323,0.581c-0.126-0.384-0.287-0.724-0.483-1.022c-0.196-0.297-0.429-0.55-0.699-0.758
			c-0.271-0.207-0.575-0.368-0.912-0.482c-0.337-0.113-0.71-0.171-1.118-0.171c-0.51,0-0.967,0.095-1.37,0.283
			s-0.743,0.461-1.019,0.816c-0.273,0.357-0.485,0.796-0.635,1.316c-0.148,0.522-0.224,1.159-0.224,1.911v3.315
			c0,0.157,0.058,0.307,0.171,0.447c0.114,0.142,0.3,0.212,0.559,0.212h11.424c0.055,0,0.104-0.017,0.147-0.047
			c0.043-0.032,0.079-0.087,0.105-0.165c0.028-0.078,0.05-0.182,0.065-0.312c0.015-0.129,0.023-0.288,0.023-0.477
			c0-0.195-0.009-0.356-0.023-0.481c-0.016-0.126-0.037-0.228-0.065-0.307c-0.026-0.077-0.062-0.133-0.105-0.164
			c-0.044-0.03-0.093-0.047-0.147-0.047h-5.094v-1.212c0-0.406,0.051-0.738,0.152-0.993c0.102-0.254,0.245-0.476,0.43-0.664
			s0.41-0.353,0.677-0.494c0.267-0.141,0.564-0.271,0.894-0.388l2.848-1.012c0.086-0.023,0.157-0.054,0.212-0.094
			c0.055-0.039,0.1-0.1,0.135-0.182c0.036-0.082,0.06-0.188,0.071-0.317c0.012-0.13,0.018-0.3,0.018-0.512
			c0-0.219-0.006-0.401-0.018-0.546c-0.012-0.146-0.029-0.26-0.054-0.342c-0.022-0.083-0.053-0.139-0.088-0.171
			c-0.035-0.031-0.081-0.047-0.136-0.047C84.98,177.385,84.9,177.399,84.803,177.426z M80.619,192.664v4.221l-5.905-2.058v-0.022
			L80.619,192.664z M73.208,193.335c-0.062,0.022-0.118,0.05-0.165,0.081c-0.047,0.032-0.086,0.069-0.117,0.112
			s-0.057,0.1-0.076,0.171c-0.02,0.07-0.036,0.152-0.047,0.246c-0.012,0.094-0.02,0.21-0.024,0.347
			c-0.004,0.138-0.005,0.305-0.005,0.5c0,0.235,0.005,0.43,0.018,0.582c0.012,0.152,0.031,0.275,0.059,0.371
			c0.027,0.094,0.068,0.164,0.123,0.212c0.055,0.047,0.125,0.086,0.211,0.117l11.354,4.244c0.165,0.063,0.303,0.098,0.412,0.105
			c0.11,0.008,0.191-0.016,0.246-0.07c0.057-0.055,0.093-0.151,0.113-0.288c0.02-0.137,0.029-0.319,0.029-0.547
			c0-0.219-0.006-0.399-0.018-0.54c-0.012-0.142-0.034-0.249-0.065-0.323c-0.031-0.075-0.07-0.133-0.118-0.172
			c-0.047-0.038-0.105-0.074-0.176-0.104l-2.765-0.965v-5.268l2.788-1.022c0.07-0.023,0.13-0.051,0.177-0.083
			c0.047-0.031,0.083-0.086,0.105-0.165c0.024-0.077,0.042-0.188,0.054-0.334s0.018-0.347,0.018-0.606
			c0-0.259-0.009-0.462-0.023-0.61c-0.016-0.149-0.052-0.255-0.106-0.318c-0.055-0.062-0.134-0.088-0.235-0.075
			c-0.102,0.011-0.239,0.044-0.412,0.099L73.208,193.335z M77.148,210.911c0.252,0.098,0.469,0.245,0.653,0.44
			c0.185,0.197,0.326,0.448,0.424,0.754c0.099,0.305,0.147,0.7,0.147,1.187v1.67h-3.977v-1.752c0-0.502,0.049-0.899,0.146-1.193
			c0.099-0.295,0.232-0.535,0.4-0.723c0.168-0.188,0.371-0.323,0.605-0.406c0.236-0.083,0.49-0.123,0.766-0.123
			C76.619,210.765,76.898,210.813,77.148,210.911z M84.803,208.03c-0.099,0.027-0.25,0.08-0.453,0.159l-2.742,1.046
			c-0.312,0.126-0.596,0.253-0.847,0.383c-0.251,0.129-0.471,0.267-0.659,0.411c-0.188,0.146-0.346,0.306-0.476,0.482
			c-0.13,0.176-0.237,0.37-0.323,0.582c-0.126-0.384-0.287-0.725-0.483-1.023c-0.196-0.297-0.429-0.55-0.699-0.758
			c-0.271-0.207-0.575-0.368-0.912-0.482c-0.337-0.113-0.71-0.171-1.118-0.171c-0.51,0-0.967,0.095-1.37,0.283
			s-0.743,0.461-1.019,0.816c-0.273,0.357-0.485,0.796-0.635,1.316c-0.148,0.522-0.224,1.159-0.224,1.911v3.315
			c0,0.157,0.058,0.307,0.171,0.447c0.114,0.142,0.3,0.212,0.559,0.212h11.424c0.055,0,0.104-0.017,0.147-0.047
			c0.043-0.032,0.079-0.087,0.105-0.165c0.028-0.078,0.05-0.182,0.065-0.312c0.015-0.13,0.023-0.288,0.023-0.477
			c0-0.195-0.009-0.356-0.023-0.482c-0.016-0.125-0.037-0.227-0.065-0.306c-0.026-0.077-0.062-0.133-0.105-0.164
			c-0.044-0.03-0.093-0.047-0.147-0.047h-5.094v-1.211c0-0.407,0.051-0.739,0.152-0.994c0.102-0.254,0.245-0.476,0.43-0.664
			s0.41-0.353,0.677-0.494c0.267-0.141,0.564-0.271,0.894-0.388l2.848-1.011c0.086-0.024,0.157-0.055,0.212-0.095
			c0.055-0.039,0.1-0.1,0.135-0.182c0.036-0.082,0.06-0.188,0.071-0.318c0.012-0.129,0.018-0.299,0.018-0.511
			c0-0.219-0.006-0.401-0.018-0.547s-0.029-0.259-0.054-0.341c-0.022-0.083-0.053-0.139-0.088-0.171
			c-0.035-0.03-0.081-0.047-0.136-0.047C84.98,207.989,84.9,208.004,84.803,208.03z M80.861,222.821
			c0.584,0.13,1.096,0.343,1.535,0.641s0.788,0.687,1.047,1.165c0.259,0.478,0.389,1.062,0.389,1.752s-0.116,1.27-0.348,1.739
			c-0.231,0.471-0.561,0.853-0.988,1.146s-0.936,0.505-1.523,0.629c-0.588,0.126-1.238,0.188-1.953,0.188
			c-0.635,0-1.24-0.068-1.817-0.205s-1.083-0.354-1.518-0.646c-0.436-0.294-0.778-0.679-1.029-1.152
			c-0.251-0.475-0.376-1.057-0.376-1.746c0-0.69,0.117-1.271,0.352-1.741c0.236-0.47,0.565-0.851,0.988-1.14
			c0.424-0.29,0.924-0.5,1.5-0.63c0.577-0.129,1.211-0.193,1.9-0.193C79.663,222.628,80.277,222.692,80.861,222.821z
			 M76.173,220.911c-0.776,0.251-1.427,0.619-1.954,1.104c-0.525,0.486-0.921,1.084-1.188,1.794c-0.266,0.709-0.4,1.521-0.4,2.439
			c0,0.957,0.153,1.803,0.459,2.539c0.307,0.737,0.741,1.356,1.307,1.858c0.564,0.502,1.248,0.882,2.053,1.141
			s1.7,0.388,2.688,0.388c1.051,0,1.973-0.117,2.765-0.353c0.793-0.234,1.453-0.594,1.982-1.076
			c0.529-0.481,0.928-1.081,1.193-1.799c0.268-0.718,0.4-1.553,0.4-2.511c0-0.955-0.153-1.802-0.459-2.539
			c-0.306-0.736-0.742-1.354-1.312-1.852c-0.568-0.498-1.258-0.874-2.07-1.129c-0.812-0.254-1.727-0.383-2.746-0.383
			C77.855,220.534,76.949,220.66,76.173,220.911z M73.037,234.755c-0.129,0.06-0.194,0.147-0.194,0.266v5.938
			c0,0.157,0.058,0.305,0.171,0.446c0.114,0.142,0.3,0.212,0.559,0.212h11.412c0.062,0,0.115-0.016,0.159-0.048
			c0.043-0.03,0.079-0.085,0.105-0.164c0.028-0.077,0.05-0.182,0.065-0.311c0.015-0.13,0.023-0.289,0.023-0.478
			c0-0.194-0.009-0.358-0.023-0.487c-0.016-0.13-0.037-0.23-0.065-0.306c-0.026-0.075-0.062-0.128-0.105-0.158
			c-0.044-0.032-0.097-0.047-0.159-0.047h-5.035v-4.327c0-0.048-0.016-0.095-0.047-0.142s-0.076-0.084-0.135-0.111
			c-0.061-0.027-0.141-0.049-0.242-0.064c-0.102-0.017-0.223-0.024-0.365-0.024c-0.148,0-0.271,0.008-0.37,0.024
			c-0.098,0.016-0.178,0.037-0.241,0.064c-0.062,0.027-0.109,0.064-0.141,0.111s-0.047,0.094-0.047,0.142v4.327h-3.906v-4.598
			c0-0.118-0.062-0.206-0.188-0.266c-0.126-0.058-0.33-0.087-0.613-0.087C73.373,234.668,73.166,234.697,73.037,234.755z"/>
	</defs>
	<clipPath id="SVGID_10_">
		<use xlink:href="#SVGID_9_"  overflow="visible"/>
	</clipPath>
	<g clip-path="url(#SVGID_10_)">
		<defs>
			<rect id="SVGID_11_" x="-1200.145" y="-0.146" width="1440" height="2408.001"/>
		</defs>
		<clipPath id="SVGID_12_">
			<use xlink:href="#SVGID_11_"  overflow="visible"/>
		</clipPath>
		<rect x="67.631" y="77.63" clip-path="url(#SVGID_12_)" fill="#1B1A1A" width="22.848" height="168.986"/>
	</g>
</g>
<g>
	<defs>
		<path id="SVGID_13_" d="M65.351,151.508c-0.099,0.015-0.179,0.036-0.241,0.063c-0.062,0.028-0.107,0.063-0.135,0.106
			c-0.027,0.044-0.041,0.088-0.041,0.136v4.974h-4.083v-4.222c0-0.055-0.014-0.104-0.042-0.147c-0.027-0.043-0.072-0.08-0.135-0.111
			s-0.143-0.053-0.24-0.064c-0.099-0.013-0.215-0.018-0.348-0.018c-0.148,0-0.274,0.005-0.377,0.018
			c-0.102,0.012-0.184,0.033-0.246,0.064c-0.063,0.031-0.108,0.068-0.136,0.111c-0.028,0.043-0.041,0.093-0.041,0.147v4.222h-3.624
			v-4.893c0-0.055-0.016-0.104-0.047-0.146s-0.076-0.078-0.135-0.105c-0.06-0.028-0.138-0.05-0.236-0.064
			c-0.098-0.016-0.217-0.023-0.358-0.023s-0.265,0.008-0.37,0.023c-0.105,0.015-0.191,0.036-0.254,0.064
			c-0.062,0.027-0.107,0.062-0.135,0.105s-0.041,0.092-0.041,0.146v6.232c0,0.157,0.057,0.306,0.17,0.446
			c0.114,0.142,0.301,0.212,0.56,0.212h10.964c0.26,0,0.446-0.07,0.56-0.212c0.114-0.141,0.171-0.289,0.171-0.446v-6.313
			c0-0.048-0.014-0.092-0.041-0.136c-0.028-0.043-0.075-0.078-0.142-0.106c-0.067-0.027-0.151-0.049-0.253-0.063
			c-0.102-0.017-0.224-0.024-0.365-0.024C65.568,151.483,65.448,151.491,65.351,151.508z M54.527,161.501
			c-0.106,0.016-0.192,0.037-0.26,0.064c-0.066,0.027-0.113,0.062-0.141,0.106c-0.027,0.043-0.041,0.092-0.041,0.146v8.747
			c0,0.057,0.014,0.104,0.041,0.148c0.027,0.043,0.074,0.08,0.141,0.11c0.067,0.032,0.153,0.054,0.26,0.065
			c0.105,0.013,0.229,0.018,0.371,0.018c0.141,0,0.264-0.005,0.369-0.018c0.106-0.012,0.192-0.033,0.26-0.065
			c0.066-0.03,0.115-0.067,0.146-0.11c0.031-0.044,0.047-0.092,0.047-0.148v-3.373h10.518c0.056,0,0.104-0.017,0.147-0.047
			c0.043-0.032,0.079-0.087,0.105-0.165c0.028-0.079,0.05-0.179,0.065-0.3c0.016-0.122,0.023-0.285,0.023-0.488
			c0-0.195-0.008-0.358-0.023-0.488c-0.016-0.129-0.037-0.229-0.065-0.3c-0.026-0.07-0.062-0.123-0.105-0.159
			c-0.043-0.034-0.092-0.052-0.147-0.052H55.721v-3.375c0-0.109-0.064-0.194-0.193-0.253c-0.13-0.059-0.34-0.088-0.629-0.088
			C54.756,161.478,54.633,161.485,54.527,161.501z M54.345,173.588c-0.047,0-0.093,0.014-0.136,0.04
			c-0.043,0.028-0.078,0.079-0.105,0.154c-0.027,0.074-0.049,0.172-0.064,0.293c-0.016,0.122-0.023,0.296-0.023,0.523
			c0,0.188,0.008,0.345,0.023,0.471c0.016,0.125,0.037,0.226,0.064,0.3s0.062,0.127,0.105,0.159c0.043,0.03,0.089,0.047,0.136,0.047
			h7.329c0.69,0,1.229,0.064,1.617,0.193c0.389,0.13,0.717,0.327,0.982,0.594c0.268,0.267,0.467,0.584,0.601,0.952
			s0.2,0.776,0.2,1.223c0,0.447-0.066,0.857-0.2,1.229c-0.134,0.373-0.333,0.693-0.601,0.964c-0.266,0.27-0.598,0.474-0.994,0.611
			c-0.395,0.138-0.974,0.206-1.734,0.206h-7.2c-0.047,0-0.093,0.016-0.136,0.047s-0.078,0.084-0.105,0.158
			c-0.027,0.075-0.049,0.177-0.064,0.306c-0.016,0.13-0.023,0.297-0.023,0.5c0,0.188,0.008,0.345,0.023,0.47
			c0.016,0.127,0.037,0.229,0.064,0.307s0.062,0.134,0.105,0.165c0.043,0.03,0.089,0.047,0.136,0.047h7.341
			c0.996,0,1.787-0.113,2.371-0.342c0.584-0.228,1.074-0.558,1.471-0.993c0.396-0.435,0.693-0.958,0.895-1.569
			c0.199-0.612,0.299-1.289,0.299-2.035c0-0.768-0.109-1.462-0.328-2.081c-0.221-0.618-0.536-1.145-0.948-1.575
			c-0.411-0.431-0.913-0.767-1.506-1.006c-0.592-0.238-1.343-0.357-2.253-0.357H54.345z M54.527,186.239
			c-0.106,0.016-0.192,0.036-0.26,0.064c-0.066,0.027-0.113,0.062-0.141,0.104c-0.027,0.044-0.041,0.093-0.041,0.148v8.747
			c0,0.056,0.014,0.104,0.041,0.147s0.074,0.08,0.141,0.112c0.067,0.03,0.153,0.052,0.26,0.063c0.105,0.012,0.229,0.018,0.371,0.018
			c0.141,0,0.264-0.006,0.369-0.018c0.106-0.012,0.192-0.033,0.26-0.063c0.066-0.032,0.115-0.069,0.146-0.112
			s0.047-0.092,0.047-0.147v-3.374h10.518c0.056,0,0.104-0.016,0.147-0.047s0.079-0.087,0.105-0.165
			c0.028-0.078,0.05-0.179,0.065-0.3c0.016-0.122,0.023-0.284,0.023-0.487c0-0.196-0.008-0.359-0.023-0.489
			c-0.016-0.129-0.037-0.229-0.065-0.299c-0.026-0.071-0.062-0.124-0.105-0.159s-0.092-0.053-0.147-0.053H55.721v-3.374
			c0-0.11-0.064-0.195-0.193-0.253c-0.13-0.06-0.34-0.089-0.629-0.089C54.756,186.215,54.633,186.223,54.527,186.239z
			 M54.345,198.35c-0.047,0-0.093,0.015-0.136,0.047c-0.043,0.031-0.078,0.086-0.105,0.164s-0.049,0.181-0.064,0.306
			c-0.016,0.126-0.023,0.287-0.023,0.482c0,0.188,0.008,0.345,0.023,0.47c0.016,0.126,0.037,0.228,0.064,0.307
			c0.027,0.077,0.062,0.135,0.105,0.169c0.043,0.036,0.089,0.054,0.136,0.054h11.894c0.056,0,0.104-0.016,0.147-0.047
			s0.079-0.086,0.105-0.165c0.028-0.077,0.05-0.183,0.065-0.312c0.016-0.13,0.023-0.288,0.023-0.476
			c0-0.195-0.008-0.356-0.023-0.482c-0.016-0.125-0.037-0.228-0.065-0.306c-0.026-0.078-0.062-0.133-0.105-0.164
			c-0.043-0.032-0.092-0.047-0.147-0.047H54.345z M54.527,203.062c-0.106,0.017-0.192,0.038-0.26,0.065
			c-0.066,0.027-0.113,0.063-0.141,0.106s-0.041,0.092-0.041,0.146v8.747c0,0.056,0.014,0.104,0.041,0.147s0.074,0.081,0.141,0.111
			c0.067,0.032,0.153,0.054,0.26,0.064c0.105,0.012,0.229,0.019,0.371,0.019c0.141,0,0.264-0.007,0.369-0.019
			c0.106-0.011,0.192-0.032,0.26-0.064c0.066-0.03,0.115-0.068,0.146-0.111s0.047-0.092,0.047-0.147v-3.374h10.518
			c0.056,0,0.104-0.016,0.147-0.047s0.079-0.086,0.105-0.165c0.028-0.077,0.05-0.178,0.065-0.3c0.016-0.12,0.023-0.283,0.023-0.488
			c0-0.194-0.008-0.357-0.023-0.486c-0.016-0.13-0.037-0.229-0.065-0.301c-0.026-0.07-0.062-0.123-0.105-0.159
			c-0.043-0.035-0.092-0.052-0.147-0.052H55.721v-3.375c0-0.11-0.064-0.193-0.193-0.253c-0.13-0.059-0.34-0.088-0.629-0.088
			C54.756,203.04,54.633,203.048,54.527,203.062z M61.732,214.292c-0.368,0.172-0.686,0.397-0.953,0.676
			c-0.266,0.277-0.497,0.594-0.693,0.946c-0.195,0.354-0.373,0.713-0.529,1.081c-0.157,0.369-0.312,0.729-0.465,1.083
			c-0.152,0.353-0.319,0.668-0.5,0.945c-0.181,0.279-0.393,0.505-0.635,0.677c-0.244,0.172-0.534,0.259-0.871,0.259
			c-0.228,0-0.441-0.047-0.642-0.141s-0.372-0.228-0.518-0.399c-0.145-0.174-0.259-0.385-0.341-0.636s-0.123-0.529-0.123-0.834
			c0-0.401,0.051-0.761,0.152-1.083c0.102-0.32,0.21-0.601,0.323-0.841c0.114-0.238,0.222-0.438,0.323-0.6
			c0.103-0.16,0.153-0.275,0.153-0.347c0-0.054-0.015-0.1-0.047-0.136c-0.031-0.034-0.081-0.065-0.147-0.094
			c-0.066-0.026-0.15-0.045-0.253-0.053c-0.102-0.007-0.228-0.012-0.376-0.012c-0.125,0-0.235,0.005-0.33,0.012
			c-0.094,0.008-0.174,0.022-0.24,0.042c-0.066,0.019-0.122,0.043-0.165,0.07c-0.044,0.027-0.095,0.069-0.153,0.123
			c-0.059,0.055-0.137,0.179-0.234,0.37c-0.099,0.192-0.191,0.42-0.277,0.683c-0.086,0.262-0.16,0.555-0.223,0.876
			s-0.095,0.646-0.095,0.976c0,0.564,0.08,1.09,0.241,1.576s0.387,0.908,0.676,1.27c0.291,0.36,0.643,0.644,1.054,0.846
			c0.411,0.204,0.868,0.307,1.37,0.307c0.51,0,0.955-0.083,1.336-0.247s0.705-0.387,0.977-0.664c0.27-0.279,0.506-0.595,0.705-0.947
			c0.201-0.352,0.383-0.711,0.547-1.075c0.165-0.364,0.32-0.724,0.465-1.076c0.146-0.353,0.311-0.666,0.494-0.94
			c0.185-0.274,0.396-0.496,0.636-0.664c0.239-0.169,0.52-0.253,0.841-0.253c0.299,0,0.563,0.061,0.795,0.183
			c0.23,0.121,0.428,0.289,0.588,0.505s0.285,0.472,0.371,0.771c0.086,0.298,0.129,0.622,0.129,0.976
			c0,0.47-0.057,0.896-0.171,1.275c-0.113,0.381-0.239,0.708-0.376,0.982c-0.138,0.274-0.264,0.499-0.377,0.676
			s-0.17,0.308-0.17,0.394c0,0.063,0.018,0.115,0.053,0.159c0.035,0.043,0.092,0.078,0.17,0.105
			c0.078,0.028,0.175,0.046,0.289,0.054c0.113,0.008,0.248,0.011,0.406,0.011c0.125,0,0.229-0.003,0.311-0.011
			s0.155-0.021,0.219-0.042c0.062-0.02,0.115-0.043,0.158-0.07s0.096-0.072,0.158-0.136c0.063-0.062,0.15-0.197,0.26-0.404
			c0.109-0.208,0.217-0.461,0.323-0.759s0.194-0.634,0.265-1.006s0.105-0.759,0.105-1.158c0-0.65-0.086-1.254-0.259-1.811
			c-0.172-0.557-0.413-1.035-0.724-1.434c-0.309-0.401-0.691-0.716-1.146-0.947c-0.455-0.23-0.973-0.347-1.553-0.347
			C62.537,214.033,62.102,214.119,61.732,214.292z M54.392,225.391c-0.063,0-0.118,0.012-0.165,0.035s-0.086,0.068-0.117,0.135
			c-0.031,0.067-0.055,0.157-0.07,0.271c-0.016,0.113-0.023,0.265-0.023,0.453c0,0.18,0.008,0.324,0.023,0.435
			c0.016,0.109,0.039,0.199,0.07,0.27c0.031,0.071,0.07,0.118,0.117,0.142s0.102,0.035,0.165,0.035h5.895
			c0.313,0,0.64-0.001,0.976-0.006c0.338-0.004,0.674-0.008,1.006-0.012c0.334-0.004,0.668-0.008,1.001-0.012s0.657-0.01,0.97-0.018
			v0.023c-0.643,0.321-1.28,0.648-1.911,0.982c-0.632,0.332-1.265,0.668-1.9,1.005l-5.6,2.986c-0.126,0.063-0.235,0.127-0.329,0.193
			c-0.095,0.067-0.171,0.14-0.23,0.219c-0.059,0.078-0.104,0.17-0.135,0.276c-0.031,0.104-0.047,0.226-0.047,0.357v1.459
			c0,0.188,0.062,0.356,0.188,0.505c0.126,0.149,0.322,0.224,0.589,0.224h11.376c0.056,0,0.104-0.013,0.147-0.041
			s0.079-0.076,0.105-0.147c0.028-0.07,0.05-0.162,0.065-0.276c0.016-0.113,0.023-0.264,0.023-0.452
			c0-0.172-0.008-0.313-0.023-0.424c-0.016-0.109-0.037-0.197-0.065-0.264c-0.026-0.066-0.062-0.113-0.105-0.142
			c-0.043-0.027-0.092-0.041-0.147-0.041h-6.8c-0.267,0-0.544,0.002-0.835,0.005c-0.29,0.005-0.582,0.011-0.877,0.019
			c-0.294,0.008-0.586,0.014-0.876,0.018c-0.29,0.005-0.568,0.006-0.835,0.006v-0.012c0.596-0.305,1.195-0.613,1.799-0.923
			c0.605-0.31,1.201-0.621,1.789-0.935l6.152-3.292c0.26-0.126,0.449-0.264,0.571-0.412c0.122-0.149,0.183-0.345,0.183-0.588v-1.352
			c0-0.204-0.062-0.373-0.188-0.506c-0.126-0.134-0.321-0.2-0.589-0.2H54.392z M54.345,239.618c-0.047,0-0.093,0.015-0.136,0.047
			c-0.043,0.03-0.078,0.085-0.105,0.164c-0.027,0.078-0.049,0.181-0.064,0.306c-0.016,0.126-0.023,0.287-0.023,0.481
			c0,0.188,0.008,0.346,0.023,0.471c0.016,0.126,0.037,0.228,0.064,0.306s0.062,0.136,0.105,0.171s0.089,0.053,0.136,0.053h11.894
			c0.056,0,0.104-0.016,0.147-0.048c0.043-0.03,0.079-0.085,0.105-0.164c0.028-0.077,0.05-0.182,0.065-0.311
			c0.016-0.13,0.023-0.289,0.023-0.478c0-0.194-0.008-0.355-0.023-0.481c-0.016-0.125-0.037-0.228-0.065-0.306
			c-0.026-0.079-0.062-0.134-0.105-0.164c-0.043-0.032-0.092-0.047-0.147-0.047H54.345z"/>
	</defs>
	<clipPath id="SVGID_14_">
		<use xlink:href="#SVGID_13_"  overflow="visible"/>
	</clipPath>
	<g clip-path="url(#SVGID_14_)">
		<defs>
			<rect id="SVGID_15_" x="-1200.145" y="-0.146" width="1440" height="2408.001"/>
		</defs>
		<clipPath id="SVGID_16_">
			<use xlink:href="#SVGID_15_"  overflow="visible"/>
		</clipPath>
		<rect x="48.874" y="146.483" clip-path="url(#SVGID_16_)" fill="#1B1A1A" width="22.847" height="100.133"/>
	</g>
</g>
<g>
	<defs>
		<path id="SVGID_17_" d="M42.976,68.346c-0.368,0.172-0.687,0.398-0.952,0.677c-0.268,0.277-0.499,0.594-0.695,0.946
			c-0.195,0.353-0.372,0.713-0.529,1.082c-0.156,0.368-0.312,0.728-0.465,1.081s-0.319,0.668-0.5,0.946
			c-0.18,0.278-0.392,0.504-0.635,0.677c-0.244,0.172-0.533,0.258-0.871,0.258c-0.227,0-0.441-0.047-0.641-0.141
			c-0.2-0.094-0.373-0.228-0.518-0.399c-0.146-0.173-0.26-0.385-0.342-0.636s-0.123-0.529-0.123-0.834c0-0.4,0.051-0.76,0.152-1.082
			c0.103-0.321,0.21-0.602,0.324-0.841c0.113-0.239,0.222-0.438,0.323-0.6c0.103-0.16,0.153-0.276,0.153-0.347
			c0-0.055-0.016-0.1-0.047-0.135c-0.031-0.036-0.081-0.066-0.148-0.094c-0.066-0.028-0.15-0.046-0.252-0.054
			s-0.228-0.012-0.377-0.012c-0.125,0-0.234,0.004-0.33,0.012c-0.094,0.008-0.174,0.021-0.24,0.042
			c-0.066,0.019-0.121,0.042-0.164,0.069s-0.095,0.069-0.153,0.124c-0.06,0.055-0.138,0.178-0.235,0.37
			c-0.098,0.191-0.189,0.419-0.276,0.683c-0.087,0.263-0.161,0.554-0.224,0.875c-0.062,0.322-0.094,0.647-0.094,0.977
			c0,0.564,0.08,1.089,0.24,1.575c0.161,0.486,0.387,0.909,0.677,1.27c0.29,0.361,0.642,0.643,1.053,0.847
			c0.412,0.204,0.87,0.307,1.371,0.307c0.51,0,0.954-0.083,1.335-0.248c0.381-0.164,0.706-0.385,0.977-0.664
			c0.271-0.277,0.506-0.594,0.705-0.946c0.201-0.353,0.383-0.711,0.549-1.076c0.164-0.364,0.318-0.724,0.464-1.075
			c0.146-0.353,0.31-0.666,0.493-0.941c0.186-0.274,0.396-0.496,0.637-0.664c0.238-0.168,0.52-0.253,0.84-0.253
			c0.299,0,0.563,0.062,0.795,0.182c0.231,0.122,0.428,0.291,0.588,0.507c0.161,0.215,0.285,0.472,0.371,0.771
			c0.086,0.298,0.129,0.623,0.129,0.976c0,0.47-0.057,0.896-0.17,1.275s-0.239,0.707-0.377,0.982
			c-0.137,0.273-0.262,0.499-0.377,0.676c-0.113,0.176-0.17,0.308-0.17,0.394c0,0.062,0.018,0.116,0.053,0.159
			c0.035,0.042,0.092,0.078,0.171,0.105s0.175,0.045,0.288,0.053s0.249,0.012,0.406,0.012c0.125,0,0.229-0.004,0.311-0.012
			c0.083-0.008,0.156-0.021,0.219-0.041s0.115-0.043,0.158-0.07c0.043-0.028,0.096-0.073,0.158-0.136
			c0.064-0.062,0.15-0.198,0.26-0.406c0.109-0.207,0.218-0.46,0.323-0.758c0.106-0.298,0.194-0.633,0.265-1.006
			c0.071-0.372,0.106-0.758,0.106-1.157c0-0.651-0.087-1.255-0.259-1.811c-0.172-0.558-0.414-1.034-0.725-1.435
			c-0.309-0.4-0.691-0.716-1.146-0.946c-0.455-0.231-0.973-0.348-1.553-0.348C43.779,68.087,43.344,68.174,42.976,68.346z
			 M43.511,81.114c0.593,0.174,1.087,0.434,1.482,0.782s0.69,0.785,0.882,1.312c0.192,0.524,0.289,1.187,0.289,1.986v1.693h-9.248
			v-1.705c0-0.847,0.115-1.534,0.342-2.063c0.229-0.529,0.543-0.96,0.947-1.293s0.88-0.578,1.43-0.735
			c0.549-0.157,1.145-0.235,1.788-0.235C42.223,80.855,42.918,80.942,43.511,81.114z M38.816,79.187
			c-0.748,0.267-1.383,0.657-1.9,1.169c-0.518,0.515-0.911,1.149-1.182,1.906c-0.271,0.755-0.406,1.675-0.406,2.757v3.21
			c0,0.156,0.057,0.305,0.171,0.446s0.3,0.211,0.559,0.211h10.965c0.259,0,0.445-0.069,0.559-0.211
			c0.114-0.142,0.171-0.29,0.171-0.446v-2.951c0-1.105-0.127-2.05-0.383-2.835c-0.254-0.783-0.645-1.445-1.17-1.986
			c-0.525-0.54-1.188-0.954-1.988-1.24c-0.801-0.287-1.749-0.43-2.848-0.43C40.414,78.786,39.565,78.92,38.816,79.187z
			 M35.635,93.155c-0.062,0-0.118,0.011-0.166,0.034c-0.046,0.024-0.085,0.069-0.117,0.135c-0.031,0.067-0.055,0.157-0.07,0.271
			c-0.016,0.113-0.023,0.265-0.023,0.452c0,0.181,0.008,0.325,0.023,0.435c0.016,0.11,0.039,0.2,0.07,0.271
			c0.032,0.071,0.071,0.118,0.117,0.142c0.048,0.024,0.104,0.035,0.166,0.035h5.894c0.313,0,0.64-0.002,0.977-0.006
			s0.673-0.008,1.006-0.012s0.667-0.008,1-0.012s0.657-0.01,0.971-0.018v0.023c-0.644,0.321-1.28,0.648-1.912,0.981
			c-0.631,0.334-1.265,0.668-1.899,1.005l-5.601,2.987c-0.125,0.062-0.235,0.128-0.329,0.194s-0.171,0.14-0.229,0.217
			c-0.059,0.078-0.104,0.171-0.136,0.276c-0.031,0.106-0.047,0.226-0.047,0.359v1.457c0,0.188,0.063,0.357,0.188,0.506
			c0.126,0.149,0.321,0.224,0.589,0.224H47.48c0.057,0,0.105-0.015,0.148-0.041c0.043-0.027,0.078-0.077,0.105-0.147
			s0.049-0.162,0.064-0.276c0.016-0.113,0.023-0.265,0.023-0.452c0-0.172-0.008-0.313-0.023-0.424
			c-0.016-0.109-0.037-0.198-0.064-0.265s-0.062-0.113-0.105-0.141c-0.043-0.028-0.092-0.041-0.148-0.041h-6.799
			c-0.268,0-0.545,0.002-0.836,0.006c-0.29,0.003-0.582,0.01-0.877,0.018c-0.293,0.008-0.585,0.014-0.875,0.018
			c-0.291,0.004-0.569,0.006-0.836,0.006v-0.013c0.596-0.305,1.196-0.612,1.801-0.923c0.604-0.31,1.199-0.62,1.787-0.934
			l6.153-3.293c0.259-0.125,0.448-0.263,0.571-0.411c0.121-0.149,0.182-0.346,0.182-0.589V93.86c0-0.205-0.062-0.373-0.188-0.506
			c-0.125-0.134-0.321-0.199-0.588-0.199H35.635z M43.105,109.42v4.223l-5.906-2.059v-0.023L43.105,109.42z M35.693,110.091
			c-0.062,0.024-0.117,0.051-0.165,0.083c-0.047,0.031-0.086,0.068-0.118,0.111c-0.031,0.043-0.057,0.1-0.076,0.17
			s-0.035,0.153-0.047,0.248c-0.012,0.094-0.02,0.21-0.023,0.347s-0.006,0.304-0.006,0.499c0,0.235,0.006,0.429,0.018,0.583
			c0.012,0.151,0.031,0.276,0.059,0.37c0.028,0.093,0.068,0.164,0.123,0.211c0.057,0.047,0.127,0.087,0.213,0.118l11.353,4.244
			c0.165,0.062,0.302,0.099,0.411,0.105c0.11,0.008,0.193-0.015,0.248-0.07c0.055-0.055,0.092-0.151,0.111-0.288
			s0.029-0.319,0.029-0.546c0-0.22-0.006-0.4-0.018-0.541c-0.012-0.142-0.033-0.249-0.064-0.323
			c-0.031-0.075-0.07-0.132-0.117-0.171s-0.106-0.075-0.177-0.105l-2.765-0.964v-5.269l2.788-1.022
			c0.071-0.024,0.13-0.051,0.177-0.083c0.047-0.03,0.082-0.085,0.105-0.164s0.041-0.189,0.053-0.335s0.018-0.347,0.018-0.606
			c0-0.258-0.008-0.462-0.023-0.611c-0.016-0.148-0.051-0.254-0.105-0.316c-0.055-0.063-0.134-0.089-0.235-0.077
			c-0.103,0.012-0.239,0.046-0.412,0.101L35.693,110.091z M46.558,118.339c-0.105,0.016-0.192,0.039-0.259,0.07
			c-0.066,0.032-0.113,0.07-0.141,0.117c-0.027,0.048-0.041,0.099-0.041,0.153v4.315h-10.53c-0.047,0-0.093,0.016-0.135,0.047
			c-0.043,0.032-0.079,0.087-0.106,0.165c-0.027,0.077-0.049,0.18-0.064,0.305c-0.016,0.126-0.023,0.287-0.023,0.482
			c0,0.188,0.008,0.347,0.023,0.476c0.016,0.13,0.037,0.234,0.064,0.312s0.063,0.134,0.106,0.165
			c0.042,0.03,0.088,0.047,0.135,0.047h11.436c0.259,0,0.445-0.071,0.559-0.212c0.114-0.142,0.171-0.29,0.171-0.446v-5.656
			c0-0.117-0.064-0.208-0.193-0.271c-0.13-0.062-0.336-0.094-0.618-0.094C46.791,118.315,46.664,118.323,46.558,118.339z
			 M39.635,131.242c0.25,0.099,0.469,0.245,0.652,0.441c0.185,0.196,0.325,0.446,0.424,0.752c0.098,0.307,0.146,0.703,0.146,1.188
			v1.67h-3.977v-1.752c0-0.501,0.05-0.898,0.147-1.193c0.099-0.294,0.231-0.534,0.399-0.723c0.17-0.188,0.371-0.324,0.606-0.406
			s0.49-0.123,0.765-0.123C39.105,131.096,39.383,131.145,39.635,131.242z M47.287,128.361c-0.098,0.028-0.249,0.081-0.453,0.159
			l-2.74,1.047c-0.314,0.126-0.597,0.253-0.848,0.382s-0.471,0.267-0.658,0.412c-0.189,0.145-0.348,0.305-0.477,0.482
			c-0.13,0.176-0.238,0.37-0.324,0.581c-0.125-0.384-0.286-0.726-0.482-1.023c-0.196-0.297-0.43-0.55-0.699-0.758
			c-0.271-0.208-0.575-0.368-0.912-0.481c-0.338-0.114-0.71-0.171-1.117-0.171c-0.51,0-0.967,0.094-1.371,0.282
			s-0.743,0.46-1.018,0.816c-0.274,0.357-0.486,0.796-0.636,1.317s-0.224,1.158-0.224,1.911v3.315c0,0.156,0.057,0.306,0.171,0.446
			c0.114,0.142,0.3,0.212,0.559,0.212H47.48c0.057,0,0.105-0.016,0.148-0.047c0.043-0.03,0.078-0.087,0.105-0.165
			c0.027-0.077,0.049-0.182,0.064-0.312c0.016-0.129,0.023-0.288,0.023-0.476c0-0.196-0.008-0.356-0.023-0.482
			c-0.016-0.125-0.037-0.228-0.064-0.305c-0.027-0.079-0.062-0.134-0.105-0.166c-0.043-0.03-0.092-0.047-0.148-0.047h-5.094v-1.211
			c0-0.407,0.051-0.738,0.154-0.993c0.102-0.255,0.244-0.477,0.429-0.665c0.185-0.188,0.409-0.353,0.677-0.493
			c0.267-0.141,0.564-0.271,0.894-0.388l2.847-1.012c0.086-0.023,0.157-0.055,0.213-0.094c0.055-0.039,0.1-0.1,0.135-0.183
			c0.035-0.082,0.059-0.188,0.07-0.317s0.018-0.3,0.018-0.512c0-0.219-0.006-0.401-0.018-0.547
			c-0.012-0.145-0.029-0.258-0.053-0.341c-0.023-0.082-0.053-0.139-0.088-0.17s-0.08-0.047-0.136-0.047
			C47.466,128.321,47.385,128.335,47.287,128.361z M46.593,141.03c-0.098,0.017-0.178,0.038-0.241,0.064
			c-0.062,0.028-0.107,0.063-0.135,0.106c-0.027,0.044-0.041,0.088-0.041,0.135v4.974h-4.083v-4.221c0-0.055-0.013-0.104-0.04-0.147
			c-0.028-0.043-0.073-0.079-0.137-0.111c-0.062-0.031-0.143-0.053-0.24-0.064s-0.214-0.018-0.348-0.018
			c-0.148,0-0.274,0.006-0.376,0.018c-0.103,0.012-0.185,0.033-0.247,0.064c-0.062,0.032-0.107,0.068-0.136,0.111
			c-0.026,0.043-0.041,0.093-0.041,0.147v4.221h-3.624v-4.891c0-0.056-0.016-0.104-0.047-0.147
			c-0.031-0.042-0.076-0.077-0.135-0.105c-0.059-0.027-0.137-0.049-0.235-0.064s-0.218-0.023-0.358-0.023
			c-0.142,0-0.266,0.008-0.371,0.023s-0.189,0.037-0.253,0.064c-0.062,0.028-0.107,0.063-0.136,0.105
			c-0.027,0.043-0.041,0.092-0.041,0.147v6.231c0,0.157,0.057,0.306,0.171,0.447c0.114,0.141,0.3,0.212,0.559,0.212h10.965
			c0.259,0,0.445-0.071,0.559-0.212c0.114-0.142,0.171-0.29,0.171-0.447v-6.314c0-0.047-0.014-0.091-0.041-0.135
			c-0.027-0.043-0.074-0.078-0.141-0.106c-0.066-0.026-0.152-0.048-0.254-0.064c-0.102-0.016-0.224-0.023-0.365-0.023
			C46.811,141.007,46.691,141.015,46.593,141.03z M35.599,152.576c-0.055,0-0.104,0.017-0.146,0.047
			c-0.043,0.032-0.079,0.089-0.106,0.171s-0.049,0.188-0.064,0.317c-0.016,0.13-0.023,0.292-0.023,0.488
			c0,0.188,0.008,0.345,0.023,0.471c0.016,0.125,0.037,0.228,0.064,0.305c0.027,0.079,0.063,0.132,0.106,0.159
			c0.042,0.027,0.092,0.041,0.146,0.041h4.858v5.667h-4.858c-0.055,0-0.104,0.017-0.146,0.048c-0.043,0.031-0.079,0.086-0.106,0.164
			c-0.027,0.079-0.049,0.181-0.064,0.306c-0.016,0.126-0.023,0.287-0.023,0.481c0,0.189,0.008,0.348,0.023,0.477
			c0.016,0.13,0.037,0.233,0.064,0.312c0.027,0.078,0.063,0.133,0.106,0.165c0.042,0.03,0.092,0.047,0.146,0.047H47.48
			c0.057,0,0.105-0.017,0.148-0.047c0.043-0.032,0.078-0.087,0.105-0.165c0.027-0.079,0.049-0.183,0.064-0.312
			c0.016-0.129,0.023-0.287,0.023-0.477c0-0.194-0.008-0.355-0.023-0.481c-0.016-0.125-0.037-0.227-0.064-0.306
			c-0.027-0.078-0.062-0.133-0.105-0.164s-0.092-0.048-0.148-0.048h-5.34v-5.667h5.34c0.057,0,0.105-0.014,0.148-0.041
			s0.078-0.08,0.105-0.159c0.027-0.077,0.049-0.18,0.064-0.305c0.016-0.126,0.023-0.282,0.023-0.471
			c0-0.196-0.008-0.358-0.023-0.488c-0.016-0.129-0.037-0.235-0.064-0.317s-0.062-0.139-0.105-0.171
			c-0.043-0.03-0.092-0.047-0.148-0.047H35.599z M35.77,164.957c-0.105,0.016-0.192,0.037-0.259,0.065
			c-0.067,0.027-0.113,0.062-0.142,0.104c-0.027,0.044-0.041,0.093-0.041,0.147v8.748c0,0.056,0.014,0.104,0.041,0.147
			c0.028,0.043,0.074,0.08,0.142,0.111c0.066,0.032,0.153,0.053,0.259,0.064c0.105,0.013,0.229,0.018,0.371,0.018
			c0.141,0,0.265-0.005,0.37-0.018c0.106-0.012,0.192-0.032,0.259-0.064c0.066-0.031,0.115-0.068,0.146-0.111
			c0.032-0.043,0.048-0.092,0.048-0.147v-3.374H47.48c0.057,0,0.105-0.017,0.148-0.047c0.043-0.032,0.078-0.087,0.105-0.165
			s0.049-0.178,0.064-0.3s0.023-0.284,0.023-0.488c0-0.195-0.008-0.358-0.023-0.488c-0.016-0.129-0.037-0.229-0.064-0.3
			s-0.062-0.123-0.105-0.159c-0.043-0.034-0.092-0.052-0.148-0.052H36.964v-3.375c0-0.109-0.065-0.193-0.194-0.252
			s-0.339-0.089-0.629-0.089C35.998,164.934,35.875,164.942,35.77,164.957z M46.593,176.538c-0.098,0.016-0.178,0.037-0.241,0.064
			c-0.062,0.028-0.107,0.062-0.135,0.106c-0.027,0.043-0.041,0.088-0.041,0.135v4.975h-4.083v-4.222c0-0.055-0.013-0.104-0.04-0.147
			c-0.028-0.043-0.073-0.079-0.137-0.111c-0.062-0.031-0.143-0.053-0.24-0.064s-0.214-0.018-0.348-0.018
			c-0.148,0-0.274,0.006-0.376,0.018c-0.103,0.012-0.185,0.033-0.247,0.064c-0.062,0.032-0.107,0.068-0.136,0.111
			c-0.026,0.043-0.041,0.093-0.041,0.147v4.222h-3.624v-4.893c0-0.055-0.016-0.103-0.047-0.147
			c-0.031-0.042-0.076-0.077-0.135-0.105c-0.059-0.027-0.137-0.048-0.235-0.063s-0.218-0.024-0.358-0.024
			c-0.142,0-0.266,0.009-0.371,0.024s-0.189,0.036-0.253,0.063c-0.062,0.028-0.107,0.063-0.136,0.105
			c-0.027,0.045-0.041,0.093-0.041,0.147v6.232c0,0.157,0.057,0.305,0.171,0.446s0.3,0.213,0.559,0.213h10.965
			c0.259,0,0.445-0.071,0.559-0.213c0.114-0.142,0.171-0.289,0.171-0.446v-6.314c0-0.047-0.014-0.092-0.041-0.135
			c-0.027-0.044-0.074-0.078-0.141-0.106c-0.066-0.027-0.152-0.049-0.254-0.064s-0.224-0.022-0.365-0.022
			C46.811,176.516,46.691,176.522,46.593,176.538z M35.635,188.084c-0.062,0-0.118,0.012-0.166,0.035
			c-0.046,0.023-0.085,0.068-0.117,0.135c-0.031,0.067-0.055,0.157-0.07,0.271c-0.016,0.113-0.023,0.265-0.023,0.453
			c0,0.18,0.008,0.324,0.023,0.435c0.016,0.109,0.039,0.199,0.07,0.27c0.032,0.071,0.071,0.118,0.117,0.142
			c0.048,0.023,0.104,0.035,0.166,0.035h5.894c0.313,0,0.64-0.001,0.977-0.005s0.673-0.009,1.006-0.013s0.667-0.008,1-0.012
			s0.657-0.01,0.971-0.018v0.023c-0.644,0.321-1.28,0.648-1.912,0.982c-0.631,0.332-1.265,0.668-1.899,1.005l-5.601,2.986
			c-0.125,0.063-0.235,0.128-0.329,0.193c-0.094,0.067-0.171,0.14-0.229,0.219c-0.059,0.078-0.104,0.17-0.136,0.276
			c-0.031,0.104-0.047,0.226-0.047,0.358v1.458c0,0.188,0.063,0.356,0.188,0.506c0.126,0.148,0.321,0.223,0.589,0.223H47.48
			c0.057,0,0.105-0.013,0.148-0.041c0.043-0.027,0.078-0.076,0.105-0.147c0.027-0.07,0.049-0.162,0.064-0.276
			c0.016-0.113,0.023-0.264,0.023-0.452c0-0.173-0.008-0.313-0.023-0.424c-0.016-0.109-0.037-0.197-0.064-0.264
			s-0.062-0.113-0.105-0.142c-0.043-0.027-0.092-0.041-0.148-0.041h-6.799c-0.268,0-0.545,0.003-0.836,0.006
			c-0.29,0.004-0.582,0.01-0.877,0.019c-0.293,0.007-0.585,0.013-0.875,0.017c-0.291,0.005-0.569,0.006-0.836,0.006v-0.012
			c0.596-0.306,1.196-0.613,1.801-0.923c0.604-0.31,1.199-0.621,1.787-0.935l6.153-3.292c0.259-0.126,0.448-0.264,0.571-0.412
			c0.121-0.149,0.182-0.344,0.182-0.588v-1.352c0-0.204-0.062-0.373-0.188-0.506c-0.125-0.133-0.321-0.2-0.588-0.2H35.635z
			 M43.152,208.283c0.502,0.148,0.924,0.374,1.265,0.676s0.598,0.677,0.771,1.123c0.172,0.447,0.258,1.016,0.258,1.705v1.259h-7.893
			v-1.259c0-0.752,0.098-1.356,0.293-1.812c0.196-0.453,0.47-0.822,0.818-1.104c0.349-0.283,0.758-0.489,1.229-0.617
			c0.471-0.131,0.98-0.195,1.53-0.195C42.074,208.06,42.65,208.135,43.152,208.283z M38.67,205.367
			c-0.762,0.29-1.395,0.714-1.9,1.271s-0.885,1.236-1.135,2.039c-0.251,0.804-0.377,1.763-0.377,2.876v3.691
			c0,0.234,0.07,0.434,0.211,0.594c0.143,0.16,0.361,0.241,0.66,0.241h10.752c0.299,0,0.518-0.081,0.66-0.241
			c0.141-0.16,0.211-0.359,0.211-0.594v-3.41c0-1.129-0.115-2.11-0.348-2.945c-0.23-0.835-0.602-1.544-1.111-2.128
			c-0.51-0.583-1.172-1.035-1.988-1.353c-0.815-0.317-1.808-0.476-2.977-0.476C40.316,204.933,39.43,205.078,38.67,205.367z
			 M47.234,218.636c-0.055,0.012-0.117,0.031-0.188,0.059c-0.07,0.027-0.153,0.065-0.247,0.111
			c-0.094,0.048-0.199,0.103-0.317,0.165l-5.694,3.657l-4.117-3.269c-0.142-0.103-0.265-0.185-0.371-0.248
			c-0.105-0.062-0.199-0.111-0.281-0.146c-0.083-0.035-0.156-0.061-0.219-0.076s-0.125-0.023-0.188-0.023
			c-0.071,0-0.134,0.025-0.188,0.076c-0.056,0.051-0.099,0.138-0.13,0.258c-0.031,0.122-0.057,0.285-0.076,0.488
			c-0.02,0.204-0.029,0.463-0.029,0.776c0,0.298,0.008,0.541,0.023,0.729s0.039,0.343,0.07,0.464
			c0.031,0.122,0.076,0.218,0.136,0.288c0.059,0.07,0.135,0.134,0.229,0.188l5.105,3.48h-5.129c-0.071,0-0.134,0.023-0.188,0.071
			c-0.056,0.047-0.101,0.128-0.136,0.245c-0.035,0.118-0.062,0.275-0.082,0.472c-0.02,0.195-0.029,0.439-0.029,0.729
			c0,0.298,0.01,0.545,0.029,0.741c0.02,0.195,0.047,0.353,0.082,0.47s0.08,0.2,0.136,0.247c0.055,0.047,0.117,0.071,0.188,0.071
			h11.764c0.079,0,0.146-0.024,0.201-0.071s0.1-0.13,0.135-0.247s0.061-0.274,0.076-0.47c0.016-0.196,0.023-0.443,0.023-0.741
			c0-0.289-0.01-0.533-0.029-0.729c-0.02-0.196-0.047-0.354-0.082-0.472c-0.035-0.117-0.08-0.198-0.135-0.245
			c-0.055-0.048-0.122-0.071-0.201-0.071h-5.941l5.918-3.622c0.103-0.054,0.186-0.115,0.248-0.182s0.109-0.163,0.141-0.288
			c0.031-0.126,0.053-0.29,0.064-0.494c0.012-0.203,0.018-0.466,0.018-0.788c0-0.312-0.008-0.576-0.023-0.787
			c-0.016-0.212-0.041-0.378-0.076-0.5c-0.035-0.121-0.08-0.208-0.135-0.259c-0.055-0.05-0.122-0.076-0.201-0.076
			C47.34,218.618,47.289,218.624,47.234,218.636z M39.729,235.319c0.203,0.083,0.379,0.207,0.523,0.37
			c0.145,0.165,0.258,0.371,0.335,0.618c0.079,0.247,0.118,0.57,0.118,0.97v1.293h-3.224v-1.387c0-0.423,0.039-0.753,0.118-0.988
			c0.078-0.234,0.186-0.427,0.322-0.576c0.138-0.147,0.301-0.256,0.489-0.322c0.188-0.067,0.392-0.101,0.611-0.101
			C39.289,235.196,39.525,235.237,39.729,235.319z M47.264,231.493c-0.113,0.03-0.28,0.086-0.5,0.164l-2.553,0.999
			c-0.307,0.126-0.578,0.255-0.818,0.388c-0.238,0.134-0.447,0.273-0.623,0.418c-0.177,0.146-0.324,0.3-0.441,0.464
			c-0.117,0.165-0.215,0.346-0.294,0.542c-0.126-0.408-0.292-0.765-0.5-1.07s-0.451-0.562-0.729-0.771s-0.594-0.362-0.947-0.464
			c-0.353-0.103-0.74-0.153-1.164-0.153c-0.588,0-1.101,0.114-1.535,0.341c-0.436,0.228-0.795,0.546-1.077,0.952
			c-0.282,0.408-0.489,0.892-0.624,1.452c-0.133,0.562-0.199,1.237-0.199,2.029v3.997c0,0.235,0.07,0.434,0.211,0.594
			c0.143,0.161,0.361,0.241,0.66,0.241h11.258c0.079,0,0.146-0.023,0.201-0.07c0.055-0.048,0.1-0.127,0.135-0.241
			s0.061-0.271,0.076-0.471c0.016-0.199,0.023-0.448,0.023-0.746c0-0.29-0.008-0.533-0.023-0.729
			c-0.016-0.195-0.041-0.353-0.076-0.47s-0.08-0.2-0.135-0.247c-0.055-0.048-0.122-0.071-0.201-0.071h-4.529v-0.87
			c0-0.289,0.035-0.526,0.105-0.711c0.071-0.184,0.182-0.349,0.33-0.494c0.149-0.145,0.335-0.274,0.559-0.388
			c0.225-0.113,0.492-0.226,0.807-0.335l2.67-0.906c0.094-0.022,0.173-0.062,0.235-0.117c0.063-0.055,0.114-0.145,0.153-0.271
			c0.039-0.125,0.066-0.289,0.082-0.493s0.023-0.475,0.023-0.812c0-0.353-0.006-0.643-0.018-0.87s-0.027-0.403-0.047-0.529
			c-0.02-0.124-0.049-0.211-0.088-0.258c-0.039-0.048-0.086-0.07-0.142-0.07C47.466,231.446,47.378,231.461,47.264,231.493z"/>
	</defs>
	<clipPath id="SVGID_18_">
		<use xlink:href="#SVGID_17_"  overflow="visible"/>
	</clipPath>
	<g clip-path="url(#SVGID_18_)">
		<defs>
			<rect id="SVGID_19_" x="-1200.145" y="-0.146" width="1440" height="2408.001"/>
		</defs>
		<clipPath id="SVGID_20_">
			<use xlink:href="#SVGID_19_"  overflow="visible"/>
		</clipPath>
		<rect x="30.117" y="63.087" clip-path="url(#SVGID_20_)" fill="#1B1A1A" width="22.847" height="183.529"/>
	</g>
</g>
</svg>
