<?xml version="1.0" standalone="no"?>
<!DOCTYPE svg PUBLIC "-//W3C//DTD SVG 20010904//EN"
 "http://www.w3.org/TR/2001/REC-SVG-20010904/DTD/svg10.dtd">
<svg version="1.0" xmlns="http://www.w3.org/2000/svg"
 width="508.000000pt" height="103.000000pt" viewBox="0 0 508.000000 103.000000"
 preserveAspectRatio="xMidYMid meet">

<g transform="translate(0.000000,103.000000) scale(0.100000,-0.100000)"
fill="#000000" stroke="none">
<path d="M325 959 c-60 -34 -155 -90 -210 -124 l-100 -63 -6 -134 c-4 -74 -4
-191 0 -259 l6 -124 100 -62 c55 -35 151 -90 213 -124 128 -70 125 -70 239 -7
l73 40 -30 52 c-17 28 -34 57 -38 64 -7 10 -17 11 -55 0 -109 -29 -244 26
-312 128 -84 126 -69 277 38 385 62 63 116 84 212 84 67 0 88 -5 130 -27 65
-34 118 -90 146 -153 44 -96 23 -241 -43 -312 l-21 -22 39 -48 c21 -26 44 -54
50 -62 10 -13 20 -9 72 24 34 22 63 49 66 60 3 11 6 126 6 256 l0 235 -28 21
c-83 61 -391 233 -418 233 -10 0 -68 -28 -129 -61z"/>
<path d="M3070 911 l-35 -6 -3 -297 -2 -298 60 0 60 0 0 160 0 160 44 0 c69 0
76 -16 76 -182 l0 -138 61 0 61 0 -4 153 c-5 179 -17 216 -81 248 -30 16 -54
20 -98 17 l-59 -3 0 98 c0 108 5 103 -80 88z"/>
<path d="M4550 911 l-35 -6 -3 -90 -3 -90 -79 0 c-64 0 -84 -4 -107 -21 -65
-48 -99 -169 -73 -264 16 -58 72 -114 130 -130 44 -12 177 -8 228 6 l22 6 0
299 0 299 -22 -1 c-13 -1 -39 -4 -58 -8z m-56 -287 c13 -5 16 -25 16 -115 l0
-109 -44 0 c-33 0 -52 6 -73 24 -26 22 -28 30 -28 94 0 86 18 112 76 112 20 0
44 -3 53 -6z"/>
<path d="M1274 730 c-83 -12 -132 -73 -118 -148 9 -46 46 -82 111 -105 28 -10
58 -26 68 -36 15 -17 15 -20 -1 -36 -15 -14 -28 -16 -73 -11 -31 3 -66 9 -77
12 -17 5 -23 0 -28 -23 -4 -15 -9 -35 -12 -44 -6 -22 55 -39 140 -39 115 0
176 43 176 125 0 59 -29 91 -118 131 -63 29 -73 37 -70 57 3 21 8 22 78 22
l74 0 9 38 c5 21 7 40 5 42 -10 10 -126 20 -164 15z"/>
<path d="M2041 728 c-35 -4 -66 -9 -68 -12 -3 -3 -2 -25 1 -49 l7 -45 37 9
c89 21 152 0 152 -50 0 -16 -9 -18 -69 -19 -124 0 -180 -50 -168 -149 9 -85
81 -120 222 -109 137 10 125 -6 125 175 0 137 -2 160 -20 188 -10 17 -28 37
-40 43 -34 18 -110 26 -179 18z m129 -288 l0 -50 -50 0 c-41 0 -52 4 -65 24
-29 43 3 74 78 75 l37 1 0 -50z"/>
<path d="M2811 728 c-120 -21 -191 -141 -161 -273 23 -103 95 -155 210 -154
92 1 116 9 112 40 -8 67 -5 65 -80 61 -62 -4 -71 -2 -98 21 -27 23 -29 31 -29
91 0 58 3 69 26 92 28 28 76 35 130 21 24 -6 26 -3 36 38 6 26 6 48 2 51 -20
12 -107 19 -148 12z"/>
<path d="M3615 730 c-92 -13 -161 -90 -172 -191 -14 -144 70 -238 214 -239
104 0 126 17 107 86 -5 20 -11 21 -73 16 -61 -4 -70 -2 -97 21 -27 23 -29 31
-29 91 0 58 3 69 27 93 22 22 36 27 75 26 26 -1 54 -3 62 -4 17 -5 45 77 30
86 -18 12 -105 20 -144 15z"/>
<path d="M1615 714 c-43 -22 -64 -44 -86 -86 -59 -115 -18 -262 85 -309 47
-21 143 -25 210 -8 l43 11 -8 41 c-4 23 -8 45 -9 49 0 4 -12 3 -26 -2 -14 -6
-52 -10 -85 -10 -54 0 -64 3 -90 29 -16 16 -29 34 -29 40 0 7 46 11 136 11
l137 0 -5 64 c-10 123 -73 186 -184 186 -34 0 -72 -7 -89 -16z m120 -80 c14
-6 45 -53 45 -69 0 -3 -36 -5 -80 -5 -44 0 -80 3 -80 6 0 12 24 50 39 61 18
14 50 16 76 7z"/>
<path d="M2410 717 l-45 -13 -3 -197 -2 -197 60 0 60 0 0 161 0 160 67 -2 68
-3 8 43 c5 24 6 46 2 49 -12 13 -169 11 -215 -1z"/>
<path d="M3905 716 c-92 -41 -137 -162 -105 -278 32 -114 174 -172 288 -117
138 67 140 318 2 389 -46 23 -139 26 -185 6z m137 -103 c64 -57 33 -213 -42
-213 -42 0 -59 9 -75 41 -20 38 -19 128 1 157 30 43 78 48 116 15z"/>
<path d="M4805 716 c-41 -18 -92 -77 -104 -123 -33 -119 9 -231 104 -274 45
-21 148 -25 208 -8 39 11 43 19 31 77 -6 28 -9 30 -31 21 -13 -5 -51 -9 -83
-9 -48 0 -64 4 -89 26 -57 48 -46 54 104 54 l135 0 0 38 c-1 89 -29 148 -90
190 -38 26 -134 30 -185 8z m127 -90 c10 -7 22 -25 27 -39 l11 -27 -80 0 c-89
0 -98 8 -55 54 26 29 69 34 97 12z"/>
</g>
</svg>
