<?xml version="1.0" encoding="iso-8859-1"?>
<!-- Uploaded to: SVG Repo, www.svgrepo.com, Generator: SVG Repo Mixer Tools -->
<!DOCTYPE svg PUBLIC "-//W3C//DTD SVG 1.1//EN" "http://www.w3.org/Graphics/SVG/1.1/DTD/svg11.dtd">
<svg fill="#000000" height="800px" width="800px" version="1.1" id="Capa_1" xmlns="http://www.w3.org/2000/svg" xmlns:xlink="http://www.w3.org/1999/xlink" 
	 viewBox="0 0 435.926 435.926" xml:space="preserve">
<g>
	<path d="M434.886,210.701c-1.42-2.506-4.079-4.056-6.96-4.056h-34.625v-16.208c0-4.418-3.582-8-8-8h-24.333V150.52
		c0-4.418-3.582-8-8-8h-31.667v-32.281c0-4.418-3.582-8-8-8h-79.667c-4.418,0-8,3.582-8,8v32.281h-31.667c-4.418,0-8,3.582-8,8
		v31.917h-24.333c-4.418,0-8,3.582-8,8v31.583h-32.333v-87.5c0-4.418-3.582-8-8-8h-96c-4.418,0-8,3.582-8,8v87.5H8
		c-2.875,0-5.529,1.542-6.952,4.041c-1.423,2.498-1.396,5.568,0.071,8.04l48.63,81.985c6.023,10.034,19.391,17.601,31.093,17.601
		H345.4c11.703,0,25.071-7.567,31.098-17.607l58.292-97.323C436.27,216.285,436.307,213.208,434.886,210.701z M377.301,206.645h-56
		v-8.208h56V206.645z M305.301,198.437v8.314c-13.408,1.063-22.964,10.084-27.404,15.27h-36.262v-23.583H305.301z M344.968,182.437
		h-64V158.52h64V182.437z M241.635,118.239h63.667v24.281h-63.667V118.239z M201.968,158.52h63v23.917h-63V158.52z M169.635,198.437
		h56v23.583h-56V198.437z M25.301,142.52h80v15.417h-16c-4.418,0-8,3.582-8,8s3.582,8,8,8h16v16.25h-16c-4.418,0-8,3.582-8,8
		s3.582,8,8,8h16v15.833h-80V142.52z M362.775,307.852c-3.09,5.147-11.371,9.835-17.375,9.835H80.843
		c-6.003,0-14.285-4.688-17.354-9.8L22.047,238.02h91.254h168.5c2.663,0,5.176-1.361,6.662-3.571
		c0.08-0.118,8.07-11.804,19.447-11.804h76.056c0.435,0.073,0.879,0.12,1.334,0.12s0.899-0.047,1.334-0.12h27.174L362.775,307.852z"
		/>
	<path d="M65.301,157.94c-2.11,0-4.17,0.85-5.66,2.34c-1.49,1.49-2.34,3.55-2.34,5.66c0,2.1,0.85,4.16,2.34,5.65
		c1.49,1.49,3.55,2.35,5.66,2.35c2.11,0,4.17-0.86,5.66-2.35c1.49-1.49,2.34-3.55,2.34-5.65c0-2.11-0.85-4.17-2.34-5.66
		C69.471,158.79,67.411,157.94,65.301,157.94z"/>
	<path d="M41.631,157.94c-2.1,0-4.17,0.85-5.65,2.34c-1.49,1.49-2.35,3.55-2.35,5.66c0,2.1,0.86,4.16,2.35,5.65
		c1.49,1.49,3.55,2.35,5.65,2.35c2.11,0,4.17-0.86,5.66-2.35c1.49-1.49,2.34-3.55,2.34-5.65c0-2.11-0.85-4.17-2.34-5.66
		C45.801,158.79,43.741,157.94,41.631,157.94z"/>
	<path d="M65.301,190.19c-2.11,0-4.17,0.85-5.66,2.34c-1.49,1.49-2.34,3.55-2.34,5.66c0,2.1,0.85,4.16,2.34,5.65
		c1.49,1.49,3.55,2.35,5.66,2.35c2.11,0,4.17-0.86,5.66-2.35c1.49-1.49,2.34-3.55,2.34-5.65c0-2.11-0.85-4.17-2.34-5.66
		C69.471,191.04,67.411,190.19,65.301,190.19z"/>
	<path d="M41.631,190.19c-2.1,0-4.16,0.85-5.65,2.34c-1.49,1.49-2.35,3.55-2.35,5.66c0,2.1,0.86,4.16,2.35,5.65
		c1.49,1.49,3.55,2.35,5.65,2.35c2.11,0,4.17-0.86,5.66-2.35c1.49-1.49,2.34-3.55,2.34-5.65c0-2.11-0.85-4.17-2.34-5.66
		C45.801,191.04,43.741,190.19,41.631,190.19z"/>
	<path d="M121.481,254.27c-2.1,0-4.16,0.85-5.65,2.34c-1.49,1.49-2.35,3.55-2.35,5.66c0,2.1,0.86,4.17,2.35,5.66
		c1.48,1.49,3.55,2.34,5.65,2.34c2.11,0,4.17-0.85,5.66-2.34c1.49-1.49,2.34-3.55,2.34-5.66c0-2.11-0.85-4.17-2.34-5.66
		C125.651,255.121,123.591,254.27,121.481,254.27z"/>
	<path d="M153.551,254.27c-2.11,0-4.17,0.85-5.66,2.34c-1.49,1.49-2.34,3.55-2.34,5.66c0,2.11,0.85,4.17,2.34,5.66
		c1.49,1.49,3.56,2.34,5.66,2.34c2.11,0,4.17-0.85,5.66-2.34c1.49-1.49,2.34-3.55,2.34-5.66c0-2.11-0.85-4.17-2.34-5.66
		C157.721,255.121,155.661,254.27,153.551,254.27z"/>
	<path d="M185.621,254.27c-2.11,0-4.17,0.85-5.66,2.34c-1.49,1.49-2.34,3.56-2.34,5.66s0.85,4.17,2.34,5.66
		c1.49,1.49,3.55,2.34,5.66,2.34c2.1,0,4.16-0.85,5.65-2.34c1.49-1.49,2.35-3.56,2.35-5.66s-0.86-4.17-2.35-5.66
		C189.781,255.121,187.721,254.27,185.621,254.27z"/>
	<path d="M217.681,254.27c-2.1,0-4.17,0.85-5.65,2.34c-1.49,1.49-2.35,3.55-2.35,5.66c0,2.11,0.86,4.17,2.35,5.66
		c1.48,1.49,3.55,2.34,5.65,2.34c2.11,0,4.17-0.85,5.66-2.34c1.49-1.49,2.34-3.55,2.34-5.66c0-2.11-0.85-4.17-2.34-5.66
		C221.851,255.121,219.791,254.27,217.681,254.27z"/>
	<path d="M249.751,254.27c-2.1,0-4.17,0.85-5.66,2.34c-1.49,1.49-2.34,3.55-2.34,5.66c0,2.11,0.85,4.17,2.34,5.66
		c1.49,1.49,3.56,2.34,5.66,2.34c2.11,0,4.17-0.85,5.66-2.34c1.49-1.49,2.34-3.55,2.34-5.66c0-2.11-0.85-4.17-2.34-5.66
		C253.921,255.121,251.861,254.27,249.751,254.27z"/>
	<path d="M281.821,254.27c-2.11,0-4.17,0.85-5.66,2.34c-1.49,1.49-2.34,3.55-2.34,5.66c0,2.11,0.85,4.17,2.34,5.66
		c1.49,1.49,3.55,2.34,5.66,2.34c2.1,0,4.16-0.85,5.65-2.34c1.49-1.49,2.35-3.55,2.35-5.66c0-2.11-0.86-4.17-2.35-5.66
		C285.981,255.121,283.921,254.27,281.821,254.27z"/>
</g>
</svg>