<svg viewBox="0 0 2000 2000" xmlns="http://www.w3.org/2000/svg"><path d="m1000 69c-515.52 0-933.28 417.84-933.28 933.24s417.76 933.29 933.28 933.29 933.36-417.89 933.36-933.29-417.84-933.24-933.36-933.24z" fill="#fff"/><path d="m1000 0c-552.32 0-1000 447.72-1000 1000s447.68 1000 1000 1000 1000-447.72 1000-1000-447.6-1000-1000-1000zm-86.88 1595.07-431.12-248.86v-502l431.12 232.79zm76.8-636.19-510.08-270.38 510.08-294.5 510.16 294.5zm510.48 388.29-429.52 248v-516.17l429.52-232z" fill="#1faad8"/></svg>