<?xml version="1.0" encoding="UTF-8" standalone="no"?>
<!-- Created with Inkscape (http://www.inkscape.org/) -->
<svg
   xmlns:dc="http://purl.org/dc/elements/1.1/"
   xmlns:cc="http://creativecommons.org/ns#"
   xmlns:rdf="http://www.w3.org/1999/02/22-rdf-syntax-ns#"
   xmlns:svg="http://www.w3.org/2000/svg"
   xmlns="http://www.w3.org/2000/svg"
   xmlns:xlink="http://www.w3.org/1999/xlink"
   xmlns:sodipodi="http://sodipodi.sourceforge.net/DTD/sodipodi-0.dtd"
   xmlns:inkscape="http://www.inkscape.org/namespaces/inkscape"
   id="svg2457"
   sodipodi:version="0.32"
   inkscape:version="0.46"
   width="125"
   height="177"
   version="1.0"
   sodipodi:docname="WikiSpecies 2.svg"
   style="display:inline"
   inkscape:output_extension="org.inkscape.output.svg.inkscape">
  <metadata
     id="metadata2462">
    <rdf:RDF>
      <cc:Work
         rdf:about="">
        <dc:format>image/svg+xml</dc:format>
        <dc:type
           rdf:resource="http://purl.org/dc/dcmitype/StillImage" />
      </cc:Work>
    </rdf:RDF>
  </metadata>
  <defs
     id="defs2460"><linearGradient
   id="linearGradient3777">
  <stop
     style="stop-color:#b1e8ce;stop-opacity:1;"
     offset="0"
     id="stop3779" />
  <stop
     id="stop3785"
     offset="0.6599986"
     style="stop-color:#62b18c;stop-opacity:1;" />
  <stop
     style="stop-color:#2e6049;stop-opacity:1;"
     offset="1"
     id="stop3781" />
</linearGradient>
<linearGradient
   id="linearGradient3767">
  <stop
     style="stop-color:#0c81c8;stop-opacity:1;"
     offset="0"
     id="stop3769" />
  <stop
     id="stop3775"
     offset="0.65376371"
     style="stop-color:#07476f;stop-opacity:1;" />
  <stop
     style="stop-color:#020e16;stop-opacity:1;"
     offset="1"
     id="stop3771" />
</linearGradient>
<linearGradient
   id="linearGradient3757">
  <stop
     style="stop-color:#b2d4e7;stop-opacity:1;"
     offset="0"
     id="stop3759" />
  <stop
     id="stop3765"
     offset="0.6586777"
     style="stop-color:#6692a9;stop-opacity:1;" />
  <stop
     style="stop-color:#1a506c;stop-opacity:1;"
     offset="1"
     id="stop3761" />
</linearGradient>
<linearGradient
   id="linearGradient3747">
  <stop
     style="stop-color:#06b160;stop-opacity:1;"
     offset="0"
     id="stop3749" />
  <stop
     id="stop3755"
     offset="0.64434171"
     style="stop-color:#038748;stop-opacity:1;" />
  <stop
     style="stop-color:#011b0f;stop-opacity:1;"
     offset="1"
     id="stop3751" />
</linearGradient>
<linearGradient
   id="linearGradient3739">
  <stop
     style="stop-color:#1489cc;stop-opacity:1;"
     offset="0"
     id="stop3741" />
  <stop
     style="stop-color:#041b28;stop-opacity:1;"
     offset="1"
     id="stop3743" />
</linearGradient>
<linearGradient
   id="linearGradient3729">
  <stop
     style="stop-color:#b5f0d4;stop-opacity:1;"
     offset="0"
     id="stop3731" />
  <stop
     id="stop3737"
     offset="0.66300207"
     style="stop-color:#66a788;stop-opacity:1;" />
  <stop
     style="stop-color:#185e3c;stop-opacity:1;"
     offset="1"
     id="stop3733" />
</linearGradient>
<linearGradient
   id="linearGradient3290">
  <stop
     style="stop-color:#68c5ff;stop-opacity:1;"
     offset="0"
     id="stop3292" />
  <stop
     id="stop3298"
     offset="0.41085503"
     style="stop-color:#3485b8;stop-opacity:1;" />
  <stop
     style="stop-color:#004672;stop-opacity:1;"
     offset="1"
     id="stop3294" />
</linearGradient>
<linearGradient
   id="linearGradient3274">
  <stop
     style="stop-color:#e29988;stop-opacity:1;"
     offset="0"
     id="stop3276" />
  <stop
     style="stop-color:#651300;stop-opacity:1;"
     offset="1"
     id="stop3278" />
</linearGradient>
<inkscape:perspective
   sodipodi:type="inkscape:persp3d"
   inkscape:vp_x="0 : 526.18109 : 1"
   inkscape:vp_y="0 : 1000 : 0"
   inkscape:vp_z="744.09448 : 526.18109 : 1"
   inkscape:persp3d-origin="372.04724 : 350.78739 : 1"
   id="perspective2464" />
<radialGradient
   inkscape:collect="always"
   xlink:href="#linearGradient3274"
   id="radialGradient3288"
   cx="72.246704"
   cy="15.148643"
   fx="72.246704"
   fy="15.148643"
   r="16.08283"
   gradientUnits="userSpaceOnUse"
   gradientTransform="matrix(1.2756544,5.1513587e-2,-6.1487549e-2,1.5226442,-18.983669,-11.639037)" />
<radialGradient
   inkscape:collect="always"
   xlink:href="#linearGradient3290"
   id="radialGradient3296"
   cx="95.671997"
   cy="92.710663"
   fx="95.671997"
   fy="92.710663"
   r="56.546879"
   gradientTransform="matrix(1.0655411,0,0,1.3090827,-38.738657,-23.590592)"
   gradientUnits="userSpaceOnUse" />

 <style
   id="style3482"
   type="text/css">
   
    .str1 {stroke:#007CC3;stroke-width:0.0762}
    .str0 {stroke:#44916C;stroke-width:0.0762}
    .fil0 {fill:#006AA5}
    .fil1 {fill:#44916C}
    .fil2 {fill:#922D2A}
    .fil3 {fill:#1F1A17;fill-rule:nonzero}
   
  </style>

  <inkscape:perspective
   id="perspective3558"
   inkscape:persp3d-origin="88.58268 : 59.05512 : 1"
   inkscape:vp_z="177.16536 : 88.58268 : 1"
   inkscape:vp_y="0 : 1000 : 0"
   inkscape:vp_x="0 : 88.58268 : 1"
   sodipodi:type="inkscape:persp3d" />

  <metadata
   id="CorelCorpID_0Corel-Layer" />

  
  
  
 
   
   
   
   
   
   
   
   
   
   
   
   
   
   
   
   
   
   
   
   
   
   
   
   
   
   
   
   
   
   
   
  <radialGradient
   inkscape:collect="always"
   xlink:href="#linearGradient3729"
   id="radialGradient3735"
   cx="-14.393866"
   cy="51.996113"
   fx="-14.393866"
   fy="51.996113"
   r="28.345594"
   gradientTransform="matrix(1.0000197,0,0,5.4810531,82.458117,-231.90232)"
   gradientUnits="userSpaceOnUse" />
<radialGradient
   inkscape:collect="always"
   xlink:href="#linearGradient3739"
   id="radialGradient3745"
   cx="-25.177269"
   cy="50.780872"
   fx="-25.177269"
   fy="50.780872"
   r="28.40255"
   gradientTransform="matrix(1,3.4469678e-8,-1.1771012e-7,3.414889,82.457838,-126.18439)"
   gradientUnits="userSpaceOnUse" />
<radialGradient
   inkscape:collect="always"
   xlink:href="#linearGradient3747"
   id="radialGradient3753"
   cx="-16.042332"
   cy="74.776764"
   fx="-16.042332"
   fy="74.776764"
   r="26.704981"
   gradientTransform="matrix(1.1064735,5.2186608e-8,-2.9448115e-7,6.2436629,84.165937,-395.65836)"
   gradientUnits="userSpaceOnUse" />
<radialGradient
   inkscape:collect="always"
   xlink:href="#linearGradient3757"
   id="radialGradient3763"
   cx="-23.502258"
   cy="76.337822"
   fx="-23.502258"
   fy="76.337822"
   r="26.878765"
   gradientTransform="matrix(1,0,0,3.5482111,82.457831,-198.0791)"
   gradientUnits="userSpaceOnUse" />
<radialGradient
   inkscape:collect="always"
   xlink:href="#linearGradient3767"
   id="radialGradient3773"
   cx="-23.790691"
   cy="99.942299"
   fx="-23.790691"
   fy="99.942299"
   r="26.582016"
   gradientTransform="matrix(1,0,0,3.5385686,82.457831,-257.2646)"
   gradientUnits="userSpaceOnUse" />
<radialGradient
   inkscape:collect="always"
   xlink:href="#linearGradient3777"
   id="radialGradient3783"
   cx="-15.993745"
   cy="99.431076"
   fx="-15.993745"
   fy="99.431076"
   r="26.656857"
   gradientTransform="matrix(1,0,0,3.2879122,82.457831,-231.04378)"
   gradientUnits="userSpaceOnUse" />
</defs>
  <sodipodi:namedview
     inkscape:window-height="917"
     inkscape:window-width="1501"
     inkscape:pageshadow="2"
     inkscape:pageopacity="0.0"
     guidetolerance="10.0"
     gridtolerance="10.0"
     objecttolerance="10.0"
     borderopacity="1.0"
     bordercolor="#666666"
     pagecolor="#ffffff"
     id="base"
     showgrid="false"
     inkscape:zoom="2.8135593"
     inkscape:cx="16.402023"
     inkscape:cy="92.668034"
     inkscape:window-x="164"
     inkscape:window-y="111"
     inkscape:current-layer="layer2" />
  <g
     inkscape:groupmode="layer"
     id="layer2"
     inkscape:label="2"
     style="display:inline">
    <path
       sodipodi:type="arc"
       style="opacity:1;fill:url(#radialGradient3288);fill-opacity:1;fill-rule:evenodd;stroke:none;stroke-width:0.60000002;stroke-linecap:round;stroke-miterlimit:4;stroke-dasharray:none;stroke-opacity:1;display:inline"
       id="path2468"
       sodipodi:cx="67.796684"
       sodipodi:cy="21.947289"
       sodipodi:rx="16.08283"
       sodipodi:ry="16.08283"
       d="M 83.879515,21.947289 A 16.08283,16.08283 0 1 1 51.713854,21.947289 A 16.08283,16.08283 0 1 1 83.879515,21.947289 z"
       transform="matrix(1.0165746,0,0,1.0165746,-5.9016252,-2.3867342)" />
    <path
       style="opacity:1;fill:url(#radialGradient3296);fill-opacity:1;fill-rule:evenodd;stroke:none;stroke-width:0.60000002;stroke-linecap:round;stroke-miterlimit:4;stroke-dasharray:none;stroke-opacity:1"
       d="M 105.43817,42.934858 L 96.03192,52.122358 C 102.96714,59.723361 107.18817,69.753299 107.18817,80.747358 C 107.18817,104.47006 87.55267,123.71611 63.34441,123.71611 C 39.136159,123.71611 19.46941,104.47006 19.46941,80.747358 C 19.46941,69.866646 23.622951,59.944462 30.43816,52.372358 L 20.87566,43.091108 C 12.037149,52.962497 6.65691,65.916728 6.65691,80.122358 C 6.65691,110.98962 32.005331,136.02861 63.21941,136.02861 C 94.4335,136.02861 119.75067,110.98962 119.75067,80.122358 C 119.75067,65.850666 114.34298,52.823085 105.43817,42.934858 z"
       id="path2490" />
    <g
       id="g3674"
       transform="translate(-5.1520822,0.6283031)">
      <path
         style="fill:#1f1a17;fill-rule:nonzero"
         id="_137632688"
         class="fil3"
         d="M 18.212126,164.76685 L 18.101464,165.1772 L 17.190963,165.1772 L 16.506118,167.90201 C 16.202093,169.10157 15.895704,170.03098 15.58971,170.68629 C 15.153362,171.61372 14.683541,172.2517 14.181426,172.60495 C 13.798638,172.87511 13.415849,173.01098 13.03503,173.01098 C 12.786139,173.01098 12.573478,172.93655 12.399018,172.78572 C 12.269453,172.68372 12.205655,172.54746 12.205655,172.38166 C 12.205655,172.24973 12.25882,172.13277 12.36515,172.03471 C 12.47148,171.93901 12.601045,171.89018 12.75424,171.89018 C 12.866871,171.89018 12.960599,171.92405 13.036999,171.99454 C 13.113793,172.06661 13.151993,172.14734 13.151993,172.2391 C 13.151993,172.33046 13.109461,172.41553 13.022428,172.49429 C 12.956267,172.55179 12.922399,172.59629 12.922399,172.62386 C 12.922399,172.66245 12.93697,172.69199 12.9669,172.71128 C 13.003131,172.74082 13.060628,172.75579 13.14136,172.75579 C 13.320152,172.75579 13.507214,172.69829 13.70491,172.58763 C 13.900636,172.475 14.077065,172.30723 14.230259,172.08591 C 14.385816,171.86261 14.530347,171.54126 14.666607,171.12224 C 14.726073,170.94778 14.881236,170.3736 15.134459,169.39733 L 16.219027,165.1772 L 15.134459,165.1772 L 15.221492,164.76685 C 15.566081,164.76685 15.806308,164.74361 15.944931,164.69439 C 16.080798,164.64792 16.206425,164.55616 16.321025,164.42029 C 16.436019,164.286 16.584881,164.03317 16.768005,163.66298 C 17.012565,163.1652 17.246491,162.77808 17.471753,162.50359 C 17.778142,162.13577 18.101464,161.85695 18.439751,161.67225 C 18.778039,161.48715 19.097029,161.39539 19.396723,161.39539 C 19.711775,161.39539 19.966967,161.47652 20.155998,161.63602 C 20.347787,161.79551 20.443484,161.96997 20.443484,162.15506 C 20.443484,162.30156 20.39662,162.42286 20.300922,162.52289 C 20.205225,162.62292 20.081567,162.67372 19.932705,162.67372 C 19.80314,162.67372 19.698779,162.63552 19.618047,162.56109 C 19.537315,162.48666 19.496752,162.39726 19.496752,162.29329 C 19.496752,162.22713 19.524319,162.14443 19.577484,162.04637 C 19.630649,161.94871 19.65861,161.88254 19.65861,161.85065 C 19.65861,161.79118 19.639313,161.74865 19.603082,161.71872 C 19.547948,161.67855 19.469185,161.65728 19.364823,161.65728 C 19.10333,161.65728 18.869404,161.73998 18.661075,161.90617 C 18.382254,162.1271 18.133363,162.47169 17.914402,162.94191 C 17.80177,163.18647 17.595411,163.79491 17.297687,164.76685 L 18.212126,164.76685 L 18.212126,164.76685 z" />
      <path
         style="fill:#1f1a17;fill-rule:nonzero"
         id="path3496"
         class="fil3"
         d="M 18.641779,164.96691 L 20.79201,164.61799 L 19.894505,167.64485 C 20.621882,166.40236 21.283492,165.53479 21.876578,165.04134 C 22.212896,164.75818 22.487385,164.61799 22.700045,164.61799 C 22.835912,164.61799 22.944605,164.65855 23.023368,164.73928 C 23.101737,164.82001 23.1423,164.93698 23.1423,165.09017 C 23.1423,165.36466 23.072201,165.62615 22.92964,165.87504 C 22.829611,166.06211 22.68705,166.15583 22.499987,166.15583 C 22.40429,166.15583 22.321195,166.1259 22.253065,166.06211 C 22.185329,166.00067 22.142797,165.90497 22.125469,165.77698 C 22.117199,165.69625 22.097902,165.64545 22.070335,165.61985 C 22.036467,165.58795 21.997873,165.57102 21.951009,165.57102 C 21.88091,165.57102 21.815142,165.58795 21.751344,165.61985 C 21.645014,165.67932 21.478824,165.84118 21.259863,166.107 C 20.915274,166.51302 20.54115,167.04074 20.139064,167.68935 C 19.964604,167.96384 19.813379,168.2722 19.690115,168.61679 C 19.515655,169.09094 19.415626,169.37606 19.390421,169.47176 L 19.190363,170.25663 L 18.23733,170.25663 L 19.390421,166.38779 C 19.524319,165.93884 19.590086,165.61749 19.590086,165.42609 C 19.590086,165.35166 19.558187,165.29023 19.496752,165.241 C 19.413657,165.17327 19.302994,165.14137 19.167128,165.14137 C 19.079701,165.14137 18.918237,165.16027 18.68628,165.1965 L 18.641779,164.96691 L 18.641779,164.96691 z" />
      <path
         style="fill:#1f1a17;fill-rule:nonzero"
         id="path3498"
         class="fil3"
         d="M 23.989003,167.90634 C 23.959073,168.11467 23.944108,168.28716 23.944108,168.42539 C 23.944108,168.79322 24.076036,169.10787 24.33753,169.36976 C 24.599417,169.62929 24.916438,169.75885 25.290563,169.75885 C 25.59065,169.75885 25.877741,169.69742 26.1542,169.57376 C 26.430658,169.45246 26.841014,169.18034 27.38566,168.76132 L 27.515619,168.94208 C 26.530687,169.91835 25.592619,170.4055 24.699446,170.4055 C 24.09297,170.4055 23.635751,170.2141 23.327393,169.83328 C 23.021005,169.45049 22.867811,169.0295 22.867811,168.56795 C 22.867811,167.94888 23.057236,167.31483 23.440024,166.66622 C 23.822813,166.01957 24.301692,165.51549 24.880207,165.15594 C 25.456359,164.79678 26.052201,164.61799 26.662615,164.61799 C 27.102901,164.61799 27.428192,164.70738 27.640852,164.88578 C 27.851544,165.06457 27.957874,165.27526 27.957874,165.51982 C 27.957874,165.86638 27.821614,166.196 27.547518,166.51106 C 27.185602,166.92377 26.653951,167.25537 25.952172,167.50859 C 25.486289,167.67872 24.831374,167.81262 23.989003,167.90634 L 23.989003,167.90634 z M 24.031535,167.60232 C 24.646281,167.53183 25.148001,167.41053 25.533153,167.2404 C 26.045507,167.01278 26.428689,166.73868 26.683881,166.42166 C 26.939074,166.10267 27.06667,165.80061 27.06667,165.51352 C 27.06667,165.33906 27.011536,165.19847 26.900873,165.09017 C 26.79218,164.98187 26.635048,164.92831 26.430658,164.92831 C 26.007306,164.92831 25.558751,165.15397 25.082234,165.60489 C 24.605718,166.05581 24.256797,166.72175 24.031535,167.60232 L 24.031535,167.60232 z" />
      <path
         style="fill:#1f1a17;fill-rule:nonzero"
         id="path3500"
         class="fil3"
         d="M 29.653249,167.90634 C 29.623319,168.11467 29.608354,168.28716 29.608354,168.42539 C 29.608354,168.79322 29.740282,169.10787 30.001775,169.36976 C 30.263662,169.62929 30.580684,169.75885 30.954808,169.75885 C 31.254896,169.75885 31.541987,169.69742 31.818445,169.57376 C 32.094904,169.45246 32.505259,169.18034 33.049906,168.76132 L 33.179865,168.94208 C 32.194933,169.91835 31.256865,170.4055 30.363692,170.4055 C 29.757216,170.4055 29.299996,170.2141 28.991639,169.83328 C 28.685251,169.45049 28.532056,169.0295 28.532056,168.56795 C 28.532056,167.94888 28.721482,167.31483 29.10427,166.66622 C 29.487059,166.01957 29.965938,165.51549 30.544453,165.15594 C 31.120605,164.79678 31.716447,164.61799 32.326861,164.61799 C 32.767146,164.61799 33.092438,164.70738 33.305098,164.88578 C 33.515789,165.06457 33.622119,165.27526 33.622119,165.51982 C 33.622119,165.86638 33.485859,166.196 33.211764,166.51106 C 32.849848,166.92377 32.318197,167.25537 31.616418,167.50859 C 31.150535,167.67872 30.49562,167.81262 29.653249,167.90634 L 29.653249,167.90634 z M 29.695781,167.60232 C 30.310526,167.53183 30.812247,167.41053 31.197399,167.2404 C 31.709752,167.01278 32.092935,166.73868 32.348127,166.42166 C 32.603319,166.10267 32.730915,165.80061 32.730915,165.51352 C 32.730915,165.33906 32.675781,165.19847 32.565119,165.09017 C 32.456426,164.98187 32.299294,164.92831 32.094904,164.92831 C 31.671552,164.92831 31.222997,165.15397 30.74648,165.60489 C 30.269963,166.05581 29.921043,166.72175 29.695781,167.60232 L 29.695781,167.60232 z" />
      <path
         style="fill:#1f1a17;fill-rule:nonzero"
         id="path3502"
         class="fil3"
         d="M 41.617752,164.61799 L 41.236933,166.52996 L 41.007338,166.52996 C 40.986072,165.97271 40.866746,165.56866 40.652117,165.31543 C 40.435125,165.0626 40.166936,164.93501 39.847946,164.93501 C 39.590784,164.93501 39.384425,165.00511 39.2332,165.14767 C 39.082369,165.28787 39.005969,165.45799 39.005969,165.65805 C 39.005969,165.79431 39.035505,165.92624 39.097334,166.0495 C 39.1568,166.17474 39.288728,166.3492 39.492724,166.57485 C 40.033039,167.164 40.381959,167.60862 40.539486,167.90634 C 40.696618,168.20604 40.775381,168.48919 40.775381,168.75502 C 40.775381,169.18664 40.596589,169.56943 40.237429,169.90338 C 39.877876,170.2397 39.424988,170.4055 38.87601,170.4055 C 38.576316,170.4055 38.231728,170.3354 37.840275,170.1948 C 37.704015,170.144 37.597685,170.12037 37.523254,170.12037 C 37.336192,170.12037 37.1956,170.2141 37.099903,170.4055 L 36.868339,170.4055 L 37.248765,168.38719 L 37.478753,168.38719 C 37.503957,169.01887 37.635885,169.46546 37.872174,169.72695 C 38.10807,169.98845 38.433755,170.12037 38.844111,170.12037 C 39.158769,170.12037 39.410023,170.03098 39.595116,169.85455 C 39.78021,169.67812 39.871575,169.46113 39.871575,169.20397 C 39.871575,169.03777 39.839676,168.88261 39.773515,168.74202 C 39.656552,168.49352 39.411992,168.14893 39.039837,167.70865 C 38.66965,167.26836 38.429423,166.93638 38.323093,166.71742 C 38.218732,166.49609 38.165567,166.27713 38.165567,166.05581 C 38.165567,165.65372 38.31246,165.31346 38.603883,165.03504 C 38.897276,164.75621 39.273763,164.61799 39.735315,164.61799 C 39.869212,164.61799 39.988538,164.62862 40.096837,164.64792 C 40.154334,164.66052 40.290594,164.70738 40.505224,164.78811 C 40.717884,164.86885 40.860445,164.90941 40.932907,164.90941 C 41.109336,164.90941 41.260561,164.81135 41.379494,164.61799 L 41.617752,164.61799 L 41.617752,164.61799 z" />
      <path
         style="fill:#1f1a17;fill-rule:nonzero"
         id="path3504"
         class="fil3"
         d="M 44.776151,164.61799 L 44.346498,166.0495 C 44.79978,165.51785 45.203834,165.14767 45.559056,164.93501 C 45.914277,164.72235 46.2758,164.61799 46.645986,164.61799 C 47.015779,164.61799 47.330831,164.76252 47.592324,165.0563 C 47.853818,165.34969 47.985746,165.73051 47.985746,166.20034 C 47.985746,167.11281 47.61359,168.0426 46.871248,168.98894 C 46.126937,169.93331 45.261331,170.4055 44.272067,170.4055 C 44.063739,170.4055 43.880615,170.38423 43.72112,170.33737 C 43.559655,170.29286 43.380863,170.21213 43.180805,170.09517 L 42.725948,171.70312 C 42.634189,172.01778 42.589688,172.22413 42.589688,172.31983 C 42.589688,172.4112 42.612923,172.48799 42.66215,172.55376 C 42.70862,172.61756 42.787383,172.66639 42.893714,172.70262 C 43.002407,172.73885 43.217036,172.75579 43.536026,172.75579 L 43.480892,172.98538 L 40.545787,172.98538 L 40.607222,172.75579 C 40.994342,172.73885 41.253867,172.67308 41.390127,172.55573 C 41.524024,172.43876 41.666585,172.1178 41.817416,171.59009 L 43.393465,166.13221 C 43.489556,165.78565 43.536026,165.57299 43.536026,165.48989 C 43.536026,165.37726 43.504127,165.29023 43.440329,165.2284 C 43.374562,165.1646 43.276502,165.13467 43.144968,165.13467 C 43.023673,165.13467 42.855513,165.14964 42.638521,165.1772 L 42.638521,164.93501 L 44.776151,164.61799 L 44.776151,164.61799 z M 43.325729,169.60132 C 43.58289,169.91008 43.929842,170.06327 44.365795,170.06327 C 44.580425,170.06327 44.801749,170.00341 45.025042,169.88212 C 45.250698,169.76318 45.46966,169.58439 45.68232,169.34613 C 45.896949,169.11024 46.088737,168.83811 46.258865,168.52739 C 46.428994,168.21903 46.582188,167.85318 46.718054,167.43416 C 46.852345,167.01514 46.920081,166.59809 46.920081,166.18773 C 46.920081,165.85575 46.843681,165.60055 46.692456,165.42413 C 46.541625,165.2477 46.362833,165.16027 46.160805,165.16027 C 45.71225,165.16027 45.267632,165.41782 44.829316,165.93254 C 44.391393,166.44726 44.07004,167.04901 43.86565,167.73818 L 43.325729,169.60132 L 43.325729,169.60132 z" />
      <path
         style="fill:#1f1a17;fill-rule:nonzero"
         id="path3506"
         class="fil3"
         d="M 49.855581,167.90634 C 49.825651,168.11467 49.810686,168.28716 49.810686,168.42539 C 49.810686,168.79322 49.942614,169.10787 50.204107,169.36976 C 50.465995,169.62929 50.783016,169.75885 51.15714,169.75885 C 51.457228,169.75885 51.744319,169.69742 52.020777,169.57376 C 52.297236,169.45246 52.707591,169.18034 53.252238,168.76132 L 53.382197,168.94208 C 52.397265,169.91835 51.459197,170.4055 50.566024,170.4055 C 49.959548,170.4055 49.502328,170.2141 49.193971,169.83328 C 48.887583,169.45049 48.734389,169.0295 48.734389,168.56795 C 48.734389,167.94888 48.923814,167.31483 49.306602,166.66622 C 49.689391,166.01957 50.16827,165.51549 50.746785,165.15594 C 51.322937,164.79678 51.918779,164.61799 52.529193,164.61799 C 52.969479,164.61799 53.29477,164.70738 53.50743,164.88578 C 53.718121,165.06457 53.824452,165.27526 53.824452,165.51982 C 53.824452,165.86638 53.688191,166.196 53.414096,166.51106 C 53.05218,166.92377 52.520529,167.25537 51.81875,167.50859 C 51.352867,167.67872 50.697952,167.81262 49.855581,167.90634 L 49.855581,167.90634 z M 49.898113,167.60232 C 50.512859,167.53183 51.014579,167.41053 51.399731,167.2404 C 51.912084,167.01278 52.295267,166.73868 52.550459,166.42166 C 52.805651,166.10267 52.933248,165.80061 52.933248,165.51352 C 52.933248,165.33906 52.878113,165.19847 52.767451,165.09017 C 52.658758,164.98187 52.501626,164.92831 52.297236,164.92831 C 51.873884,164.92831 51.425329,165.15397 50.948812,165.60489 C 50.472296,166.05581 50.123375,166.72175 49.898113,167.60232 L 49.898113,167.60232 z" />
      <path
         style="fill:#1f1a17;fill-rule:nonzero"
         id="path3508"
         class="fil3"
         d="M 58.927117,168.89758 C 58.495495,169.41663 58.059542,169.79941 57.619256,170.04161 C 57.178577,170.2842 56.713087,170.4055 56.223575,170.4055 C 55.634427,170.4055 55.172875,170.2397 54.843252,169.90771 C 54.513628,169.57612 54.347832,169.12914 54.347832,168.56795 C 54.347832,167.93194 54.52623,167.30656 54.881452,166.69182 C 55.236673,166.07707 55.71319,165.57732 56.312971,165.19453 C 56.915114,164.80938 57.501899,164.61799 58.080808,164.61799 C 58.533695,164.61799 58.871983,164.71171 59.095276,164.90075 C 59.320538,165.09017 59.433563,165.32213 59.433563,165.59622 C 59.433563,165.85378 59.3548,166.07274 59.195305,166.25586 C 59.080311,166.39842 58.935781,166.46852 58.765652,166.46852 C 58.638056,166.46852 58.529363,166.42599 58.444299,166.3429 C 58.359235,166.2602 58.316703,166.15583 58.316703,166.03257 C 58.316703,165.95381 58.333637,165.87938 58.363567,165.81322 C 58.395466,165.74745 58.459264,165.66672 58.55693,165.57299 C 58.65499,165.47926 58.714456,165.41349 58.735722,165.37096 C 58.755019,165.3304 58.765652,165.2859 58.765652,165.241 C 58.765652,165.15397 58.727059,165.07954 58.648689,165.02204 C 58.527394,164.93895 58.357266,164.89641 58.135942,164.89641 C 57.729524,164.89641 57.32547,165.04134 56.927716,165.32843 C 56.527994,165.61355 56.187737,166.02194 55.904584,166.54926 C 55.564328,167.1896 55.394199,167.82758 55.394199,168.46792 C 55.394199,168.89128 55.515495,169.2272 55.755722,169.47373 C 55.996343,169.72262 56.325967,169.84628 56.740654,169.84628 C 57.059644,169.84628 57.376666,169.76515 57.691324,169.60566 C 58.004014,169.44616 58.357266,169.15474 58.746355,168.73572 L 58.927117,168.89758 L 58.927117,168.89758 z" />
      <path
         style="fill:#1f1a17;fill-rule:nonzero"
         id="path3510"
         class="fil3"
         d="M 62.517531,162.14443 C 62.691991,162.14443 62.838884,162.2039 62.960179,162.32519 C 63.079112,162.44413 63.140941,162.59102 63.140941,162.76745 C 63.140941,162.93758 63.079112,163.08211 62.955847,163.20576 C 62.834552,163.32903 62.687659,163.38849 62.517531,163.38849 C 62.347403,163.38849 62.20051,163.32903 62.077245,163.20576 C 61.95595,163.08211 61.894515,162.93758 61.894515,162.76745 C 61.894515,162.59102 61.953981,162.44413 62.075276,162.32519 C 62.194209,162.2039 62.343071,162.14443 62.517531,162.14443 L 62.517531,162.14443 z M 62.598263,164.61799 L 61.364834,168.98461 C 61.281738,169.28037 61.239206,169.45679 61.239206,169.51429 C 61.239206,169.58242 61.258503,169.63559 61.298673,169.67812 C 61.339236,169.71868 61.3861,169.73995 61.439265,169.73995 C 61.5007,169.73995 61.575131,169.70569 61.662558,169.63992 C 61.900816,169.45246 62.139074,169.18664 62.379302,168.84205 L 62.598263,168.98461 C 62.315504,169.41663 61.983517,169.78012 61.600729,170.07587 C 61.31797,170.2972 61.047812,170.4055 60.790651,170.4055 C 60.620129,170.4055 60.4819,170.3543 60.3736,170.25466 C 60.264907,170.15227 60.211742,170.02468 60.211742,169.86951 C 60.211742,169.71632 60.262938,169.46113 60.367299,169.10394 L 61.177771,166.311 C 61.309306,165.85575 61.377436,165.56866 61.377436,165.45169 C 61.377436,165.36033 61.345537,165.2859 61.279769,165.2284 C 61.215971,165.16893 61.126575,165.14137 61.015913,165.14137 C 60.924548,165.14137 60.735123,165.16263 60.448031,165.2091 L 60.448031,164.96691 L 62.598263,164.61799 L 62.598263,164.61799 z" />
      <path
         style="fill:#1f1a17;fill-rule:nonzero"
         id="path3512"
         class="fil3"
         d="M 64.729592,167.90634 C 64.699662,168.11467 64.684697,168.28716 64.684697,168.42539 C 64.684697,168.79322 64.816625,169.10787 65.078118,169.36976 C 65.340005,169.62929 65.657027,169.75885 66.031151,169.75885 C 66.331239,169.75885 66.61833,169.69742 66.894788,169.57376 C 67.171247,169.45246 67.581602,169.18034 68.126249,168.76132 L 68.256208,168.94208 C 67.271276,169.91835 66.333208,170.4055 65.440034,170.4055 C 64.833559,170.4055 64.376339,170.2141 64.067982,169.83328 C 63.761594,169.45049 63.608399,169.0295 63.608399,168.56795 C 63.608399,167.94888 63.797825,167.31483 64.180613,166.66622 C 64.563402,166.01957 65.042281,165.51549 65.620796,165.15594 C 66.196948,164.79678 66.79279,164.61799 67.403204,164.61799 C 67.843489,164.61799 68.168781,164.70738 68.381441,164.88578 C 68.592132,165.06457 68.698462,165.27526 68.698462,165.51982 C 68.698462,165.86638 68.562202,166.196 68.288107,166.51106 C 67.926191,166.92377 67.39454,167.25537 66.692761,167.50859 C 66.226877,167.67872 65.571963,167.81262 64.729592,167.90634 L 64.729592,167.90634 z M 64.772124,167.60232 C 65.386869,167.53183 65.88859,167.41053 66.273741,167.2404 C 66.786095,167.01278 67.169278,166.73868 67.42447,166.42166 C 67.679662,166.10267 67.807258,165.80061 67.807258,165.51352 C 67.807258,165.33906 67.752124,165.19847 67.641462,165.09017 C 67.532769,164.98187 67.375637,164.92831 67.171247,164.92831 C 66.747895,164.92831 66.299339,165.15397 65.822823,165.60489 C 65.346306,166.05581 64.997386,166.72175 64.772124,167.60232 L 64.772124,167.60232 z" />
      <path
         style="fill:#1f1a17;fill-rule:nonzero"
         id="path3514"
         class="fil3"
         d="M 73.503403,164.61799 L 73.122584,166.52996 L 72.892989,166.52996 C 72.871723,165.97271 72.752397,165.56866 72.537768,165.31543 C 72.320776,165.0626 72.052588,164.93501 71.733597,164.93501 C 71.476436,164.93501 71.270076,165.00511 71.118851,165.14767 C 70.96802,165.28787 70.89162,165.45799 70.89162,165.65805 C 70.89162,165.79431 70.921156,165.92624 70.982985,166.0495 C 71.042451,166.17474 71.174379,166.3492 71.378376,166.57485 C 71.91869,167.164 72.267611,167.60862 72.425137,167.90634 C 72.582269,168.20604 72.661032,168.48919 72.661032,168.75502 C 72.661032,169.18664 72.48224,169.56943 72.12308,169.90338 C 71.763527,170.2397 71.310639,170.4055 70.761661,170.4055 C 70.461967,170.4055 70.117379,170.3354 69.725927,170.1948 C 69.589666,170.144 69.483336,170.12037 69.408905,170.12037 C 69.221843,170.12037 69.081251,170.2141 68.985554,170.4055 L 68.75399,170.4055 L 69.134416,168.38719 L 69.364404,168.38719 C 69.389608,169.01887 69.521536,169.46546 69.757826,169.72695 C 69.993721,169.98845 70.319406,170.12037 70.729762,170.12037 C 71.04442,170.12037 71.295674,170.03098 71.480768,169.85455 C 71.665861,169.67812 71.757226,169.46113 71.757226,169.20397 C 71.757226,169.03777 71.725327,168.88261 71.659166,168.74202 C 71.542203,168.49352 71.297644,168.14893 70.925488,167.70865 C 70.555302,167.26836 70.315074,166.93638 70.208744,166.71742 C 70.104383,166.49609 70.051218,166.27713 70.051218,166.05581 C 70.051218,165.65372 70.198111,165.31346 70.489534,165.03504 C 70.782927,164.75621 71.159414,164.61799 71.620966,164.61799 C 71.754863,164.61799 71.874189,164.62862 71.982488,164.64792 C 72.039985,164.66052 72.176246,164.70738 72.390875,164.78811 C 72.603535,164.86885 72.746096,164.90941 72.818558,164.90941 C 72.994988,164.90941 73.146213,164.81135 73.265145,164.61799 L 73.503403,164.61799 L 73.503403,164.61799 z" />
      <path
         style="fill:#1f1a17;fill-rule:nonzero"
         id="path3516"
         class="fil3"
         d="M 83.93439,161.39539 L 81.790065,168.74871 C 81.675465,169.14844 81.615999,169.40993 81.615999,169.53359 C 81.615999,169.57612 81.634902,169.61432 81.669164,169.65252 C 81.705001,169.68875 81.741232,169.70805 81.777463,169.70805 C 81.832597,169.70805 81.896395,169.68009 81.97122,169.62692 C 82.113387,169.52689 82.349677,169.2784 82.681269,168.88064 L 82.894323,169.01021 C 82.594236,169.4249 82.29218,169.76318 81.988154,170.02034 C 81.681766,170.2779 81.396644,170.4055 81.130818,170.4055 C 80.988257,170.4055 80.873657,170.35666 80.781898,170.25663 C 80.690533,170.1566 80.643669,170.01641 80.643669,169.83328 C 80.643669,169.59502 80.707467,169.2784 80.831125,168.88064 L 81.073321,168.1064 C 80.471571,169.03777 79.922593,169.68009 79.429142,170.03767 C 79.088886,170.2842 78.761231,170.4055 78.450905,170.4055 C 78.136247,170.4055 77.859394,170.2653 77.625468,169.98648 C 77.389573,169.70569 77.27261,169.32487 77.27261,168.84205 C 77.27261,168.22336 77.470305,167.56176 77.866089,166.85998 C 78.259511,166.1578 78.780528,165.58795 79.429142,165.14767 C 79.939921,164.79441 80.409742,164.61799 80.837426,164.61799 C 81.062688,164.61799 81.254082,164.66249 81.41791,164.75425 C 81.579768,164.84561 81.739263,164.99644 81.896395,165.2091 L 82.507203,163.03957 C 82.553673,162.88677 82.589904,162.76548 82.619834,162.67372 C 82.668667,162.50595 82.694265,162.36969 82.694265,162.26139 C 82.694265,162.17397 82.662366,162.1019 82.600537,162.0444 C 82.513504,161.97194 82.400873,161.93807 82.264613,161.93807 C 82.168915,161.93807 82.011389,161.95264 81.790065,161.9806 L 81.790065,161.75062 L 83.93439,161.39539 L 83.93439,161.39539 z M 81.6223,165.81991 C 81.6223,165.55369 81.545506,165.33906 81.392312,165.1772 C 81.239511,165.01574 81.043785,164.93501 80.805527,164.93501 C 80.282146,164.93501 79.7375,165.36663 79.169618,166.23027 C 78.604099,167.09587 78.318977,167.92131 78.318977,168.71012 C 78.318977,169.02281 78.389076,169.26107 78.525336,169.4249 C 78.663565,169.58872 78.827392,169.67182 79.018787,169.67182 C 79.450408,169.67182 79.993086,169.20397 80.643669,168.26787 C 81.296615,167.33413 81.6223,166.51736 81.6223,165.81991 L 81.6223,165.81991 z" />
      <path
         style="fill:#1f1a17;fill-rule:nonzero"
         id="path3518"
         class="fil3"
         d="M 86.265382,162.14443 C 86.439843,162.14443 86.586736,162.2039 86.708031,162.32519 C 86.826963,162.44413 86.888792,162.59102 86.888792,162.76745 C 86.888792,162.93758 86.826963,163.08211 86.703699,163.20576 C 86.582404,163.32903 86.435511,163.38849 86.265382,163.38849 C 86.095254,163.38849 85.948361,163.32903 85.825097,163.20576 C 85.703802,163.08211 85.642367,162.93758 85.642367,162.76745 C 85.642367,162.59102 85.701833,162.44413 85.823128,162.32519 C 85.94206,162.2039 86.090922,162.14443 86.265382,162.14443 L 86.265382,162.14443 z M 86.346115,164.61799 L 85.112685,168.98461 C 85.02959,169.28037 84.987058,169.45679 84.987058,169.51429 C 84.987058,169.58242 85.006355,169.63559 85.046524,169.67812 C 85.087087,169.71868 85.133951,169.73995 85.187116,169.73995 C 85.248551,169.73995 85.322982,169.70569 85.410409,169.63992 C 85.648668,169.45246 85.886926,169.18664 86.127153,168.84205 L 86.346115,168.98461 C 86.063355,169.41663 85.731369,169.78012 85.34858,170.07587 C 85.065821,170.2972 84.795664,170.4055 84.538502,170.4055 C 84.36798,170.4055 84.229751,170.3543 84.121452,170.25466 C 84.012759,170.15227 83.959594,170.02468 83.959594,169.86951 C 83.959594,169.71632 84.01079,169.46113 84.115151,169.10394 L 84.925623,166.311 C 85.057157,165.85575 85.125287,165.56866 85.125287,165.45169 C 85.125287,165.36033 85.093388,165.2859 85.027621,165.2284 C 84.963823,165.16893 84.874427,165.14137 84.763765,165.14137 C 84.672399,165.14137 84.482974,165.16263 84.195883,165.2091 L 84.195883,164.96691 L 86.346115,164.61799 L 86.346115,164.61799 z" />
      <path
         style="fill:#1f1a17;fill-rule:nonzero"
         id="path3520"
         class="fil3"
         d="M 87.62247,164.96691 L 89.772702,164.61799 L 88.875197,167.64485 C 89.602573,166.40236 90.264183,165.53479 90.857269,165.04134 C 91.193587,164.75818 91.468077,164.61799 91.680737,164.61799 C 91.816603,164.61799 91.925296,164.65855 92.004059,164.73928 C 92.082428,164.82001 92.122991,164.93698 92.122991,165.09017 C 92.122991,165.36466 92.052892,165.62615 91.910331,165.87504 C 91.810302,166.06211 91.667741,166.15583 91.480679,166.15583 C 91.384982,166.15583 91.301887,166.1259 91.233756,166.06211 C 91.16602,166.00067 91.123488,165.90497 91.10616,165.77698 C 91.09789,165.69625 91.078593,165.64545 91.051026,165.61985 C 91.017158,165.58795 90.978564,165.57102 90.9317,165.57102 C 90.861601,165.57102 90.795834,165.58795 90.732036,165.61985 C 90.625706,165.67932 90.459516,165.84118 90.240554,166.107 C 89.895966,166.51302 89.521841,167.04074 89.119756,167.68935 C 88.945296,167.96384 88.794071,168.2722 88.670806,168.61679 C 88.496346,169.09094 88.396317,169.37606 88.371113,169.47176 L 88.171055,170.25663 L 87.218022,170.25663 L 88.371113,166.38779 C 88.50501,165.93884 88.570777,165.61749 88.570777,165.42609 C 88.570777,165.35166 88.538878,165.29023 88.477443,165.241 C 88.394348,165.17327 88.283686,165.14137 88.14782,165.14137 C 88.060393,165.14137 87.898928,165.16027 87.666971,165.1965 L 87.62247,164.96691 L 87.62247,164.96691 z" />
      <path
         style="fill:#1f1a17;fill-rule:nonzero"
         id="path3522"
         class="fil3"
         d="M 92.969694,167.90634 C 92.939764,168.11467 92.924799,168.28716 92.924799,168.42539 C 92.924799,168.79322 93.056728,169.10787 93.318221,169.36976 C 93.580108,169.62929 93.897129,169.75885 94.271254,169.75885 C 94.571341,169.75885 94.858433,169.69742 95.134891,169.57376 C 95.411349,169.45246 95.821705,169.18034 96.366352,168.76132 L 96.496311,168.94208 C 95.511378,169.91835 94.57331,170.4055 93.680137,170.4055 C 93.073662,170.4055 92.616442,170.2141 92.308085,169.83328 C 92.001696,169.45049 91.848502,169.0295 91.848502,168.56795 C 91.848502,167.94888 92.037927,167.31483 92.420716,166.66622 C 92.803504,166.01957 93.282384,165.51549 93.860898,165.15594 C 94.43705,164.79678 95.032893,164.61799 95.643307,164.61799 C 96.083592,164.61799 96.408884,164.70738 96.621544,164.88578 C 96.832235,165.06457 96.938565,165.27526 96.938565,165.51982 C 96.938565,165.86638 96.802305,166.196 96.52821,166.51106 C 96.166293,166.92377 95.634643,167.25537 94.932864,167.50859 C 94.46698,167.67872 93.812065,167.81262 92.969694,167.90634 L 92.969694,167.90634 z M 93.012226,167.60232 C 93.626972,167.53183 94.128693,167.41053 94.513844,167.2404 C 95.026198,167.01278 95.40938,166.73868 95.664573,166.42166 C 95.919765,166.10267 96.047361,165.80061 96.047361,165.51352 C 96.047361,165.33906 95.992227,165.19847 95.881565,165.09017 C 95.772872,164.98187 95.61574,164.92831 95.411349,164.92831 C 94.987998,164.92831 94.539442,165.15397 94.062926,165.60489 C 93.586409,166.05581 93.237489,166.72175 93.012226,167.60232 L 93.012226,167.60232 z" />
      <path
         style="fill:#1f1a17;fill-rule:nonzero"
         id="path3524"
         class="fil3"
         d="M 102.04123,168.89758 C 101.60961,169.41663 101.17366,169.79941 100.73337,170.04161 C 100.29269,170.2842 99.827201,170.4055 99.337688,170.4055 C 98.74854,170.4055 98.286989,170.2397 97.957365,169.90771 C 97.627742,169.57612 97.461946,169.12914 97.461946,168.56795 C 97.461946,167.93194 97.640344,167.30656 97.995566,166.69182 C 98.350787,166.07707 98.827303,165.57732 99.427084,165.19453 C 100.02923,164.80938 100.61601,164.61799 101.19492,164.61799 C 101.64781,164.61799 101.9861,164.71171 102.20939,164.90075 C 102.43465,165.09017 102.54768,165.32213 102.54768,165.59622 C 102.54768,165.85378 102.46891,166.07274 102.30942,166.25586 C 102.19442,166.39842 102.04989,166.46852 101.87977,166.46852 C 101.75217,166.46852 101.64348,166.42599 101.55841,166.3429 C 101.47335,166.2602 101.43082,166.15583 101.43082,166.03257 C 101.43082,165.95381 101.44775,165.87938 101.47768,165.81322 C 101.50958,165.74745 101.57338,165.66672 101.67104,165.57299 C 101.7691,165.47926 101.82857,165.41349 101.84984,165.37096 C 101.86913,165.3304 101.87977,165.2859 101.87977,165.241 C 101.87977,165.15397 101.84117,165.07954 101.7628,165.02204 C 101.64151,164.93895 101.47138,164.89641 101.25006,164.89641 C 100.84364,164.89641 100.43958,165.04134 100.04183,165.32843 C 99.642107,165.61355 99.301851,166.02194 99.018698,166.54926 C 98.678441,167.1896 98.508313,167.82758 98.508313,168.46792 C 98.508313,168.89128 98.629608,169.2272 98.869836,169.47373 C 99.110457,169.72262 99.44008,169.84628 99.854768,169.84628 C 100.17376,169.84628 100.49078,169.76515 100.80544,169.60566 C 101.11813,169.44616 101.47138,169.15474 101.86047,168.73572 L 102.04123,168.89758 L 102.04123,168.89758 z" />
      <path
         style="fill:#1f1a17;fill-rule:nonzero"
         id="path3526"
         class="fil3"
         d="M 106.0932,163.07147 L 105.60605,164.76685 L 106.58468,164.76685 L 106.47835,165.16027 L 105.50602,165.16027 L 104.43405,168.83575 C 104.31945,169.23153 104.25959,169.48672 104.25959,169.60132 C 104.25959,169.67379 104.27692,169.72695 104.31079,169.76515 C 104.34269,169.80138 104.38325,169.82068 104.42775,169.82068 C 104.53211,169.82068 104.67034,169.74822 104.84047,169.60132 C 104.9405,169.51862 105.16182,169.26343 105.50602,168.83575 L 105.71238,168.99091 C 105.32959,169.54816 104.96807,169.94197 104.62781,170.1696 C 104.39585,170.32673 104.15996,170.4055 103.92367,170.4055 C 103.74094,170.4055 103.59208,170.348 103.47511,170.23537 C 103.35775,170.12037 103.30065,169.97387 103.30065,169.79508 C 103.30065,169.57179 103.36642,169.22917 103.50032,168.76762 L 104.54038,165.16027 L 103.60035,165.16027 L 103.66217,164.91571 C 104.11939,164.79245 104.50021,164.60538 104.80227,164.35846 C 105.10629,164.11193 105.44458,163.68228 105.81871,163.07147 L 106.0932,163.07147 L 106.0932,163.07147 z" />
      <path
         style="fill:#1f1a17;fill-rule:nonzero"
         id="path3528"
         class="fil3"
         d="M 112.22293,166.56855 C 112.22293,167.19157 112.0591,167.80828 111.72948,168.41909 C 111.39789,169.0295 110.93831,169.51232 110.34916,169.86951 C 109.75804,170.2267 109.18583,170.4055 108.62858,170.4055 C 108.05833,170.4055 107.59481,170.22473 107.23526,169.86085 C 106.87571,169.49736 106.69731,169.02714 106.69731,168.44863 C 106.69731,167.83821 106.87138,167.22583 107.22266,166.61108 C 107.57355,165.99634 108.04337,165.51116 108.63055,165.15397 C 109.2197,164.79678 109.78758,164.61799 110.33656,164.61799 C 110.88514,164.61799 111.33606,164.79875 111.69128,165.16027 C 112.0465,165.51982 112.22293,165.99004 112.22293,166.56855 z M 111.18917,166.13654 C 111.18917,165.75178 111.09583,165.45602 110.90641,165.24967 C 110.71698,165.04331 110.47242,164.94131 110.1747,164.94131 C 109.56232,164.94131 109.00073,165.37962 108.48799,166.2535 C 107.97563,167.12777 107.71808,167.99574 107.71808,168.86135 C 107.71808,169.25477 107.81811,169.55879 108.01817,169.77382 C 108.21783,169.98845 108.46908,170.09517 108.77114,170.09517 C 109.35793,170.09517 109.9069,169.65882 110.41926,168.78888 C 110.932,167.91895 111.18917,167.03404 111.18917,166.13654 L 111.18917,166.13654 z" />
      <path
         style="fill:#1f1a17;fill-rule:nonzero"
         id="path3530"
         class="fil3"
         d="M 113.36972,164.96691 L 115.51995,164.61799 L 114.62245,167.64485 C 115.34983,166.40236 116.01143,165.53479 116.60452,165.04134 C 116.94084,164.75818 117.21533,164.61799 117.42799,164.61799 C 117.56385,164.61799 117.67255,164.65855 117.75131,164.73928 C 117.82968,164.82001 117.87024,164.93698 117.87024,165.09017 C 117.87024,165.36466 117.80014,165.62615 117.65758,165.87504 C 117.55755,166.06211 117.41499,166.15583 117.22793,166.15583 C 117.13223,166.15583 117.04914,166.1259 116.98101,166.06211 C 116.91327,166.00067 116.87074,165.90497 116.85341,165.77698 C 116.84514,165.69625 116.82585,165.64545 116.79828,165.61985 C 116.76441,165.58795 116.72582,165.57102 116.67895,165.57102 C 116.60885,165.57102 116.54309,165.58795 116.47929,165.61985 C 116.37296,165.67932 116.20677,165.84118 115.98781,166.107 C 115.64322,166.51302 115.26909,167.04074 114.86701,167.68935 C 114.69255,167.96384 114.54132,168.2722 114.41806,168.61679 C 114.2436,169.09094 114.14357,169.37606 114.11836,169.47176 L 113.91831,170.25663 L 112.96527,170.25663 L 114.11836,166.38779 C 114.25226,165.93884 114.31803,165.61749 114.31803,165.42609 C 114.31803,165.35166 114.28613,165.29023 114.22469,165.241 C 114.1416,165.17327 114.03094,165.14137 113.89507,165.14137 C 113.80764,165.14137 113.64618,165.16027 113.41422,165.1965 L 113.36972,164.96691 L 113.36972,164.96691 z" />
      <path
         style="fill:#1f1a17;fill-rule:nonzero"
         id="path3532"
         class="fil3"
         d="M 119.70779,164.61799 C 119.84838,164.85821 119.94604,165.08387 120.00118,165.2922 C 120.05474,165.50289 120.1079,165.91561 120.16304,166.52996 L 120.43753,169.59502 C 120.68642,169.2973 121.04794,168.82315 121.52209,168.17414 C 121.74972,167.85948 122.03248,167.42983 122.3688,166.88518 C 122.57279,166.55359 122.69645,166.31966 122.74292,166.18773 C 122.76655,166.12157 122.77915,166.05147 122.77915,165.98137 C 122.77915,165.93687 122.76655,165.89828 122.73662,165.86874 C 122.70708,165.84118 122.63265,165.80691 122.50899,165.76635 C 122.38573,165.72815 122.28373,165.65372 122.203,165.54975 C 122.12187,165.44342 122.0817,165.32213 122.0817,165.1839 C 122.0817,165.01377 122.13251,164.87751 122.23254,164.77315 C 122.3306,164.66918 122.45583,164.61799 122.60469,164.61799 C 122.78782,164.61799 122.94298,164.69242 123.07294,164.84561 C 123.2025,164.99644 123.2663,165.20516 123.2663,165.47099 C 123.2663,165.79864 123.15367,166.17474 122.93038,166.59612 C 122.70472,167.01711 122.2731,167.66375 121.63275,168.53605 C 120.99477,169.40993 120.21817,170.36099 119.31003,171.39043 C 118.68268,172.10087 118.2168,172.54943 117.91278,172.73452 C 117.61072,172.91764 117.35119,173.01098 117.1342,173.01098 C 117.00424,173.01098 116.89161,172.96214 116.79395,172.86448 C 116.69589,172.76642 116.64942,172.65379 116.64942,172.52383 C 116.64942,172.36236 116.71518,172.21547 116.85144,172.08157 C 116.98534,171.94965 117.13223,171.88388 117.28937,171.88388 C 117.37246,171.88388 117.44256,171.90081 117.49572,171.93901 C 117.52999,171.96028 117.56582,172.01974 117.60442,172.1178 C 117.64459,172.2135 117.68082,172.27927 117.71469,172.31353 C 117.73398,172.3348 117.75958,172.34307 117.78912,172.34307 C 117.81275,172.34307 117.85725,172.32416 117.91908,172.28163 C 118.14867,172.14104 118.4145,171.91578 118.71655,171.60939 C 119.11667,171.201 119.41006,170.86902 119.60146,170.61185 L 119.25254,166.66189 C 119.19543,166.00894 119.108,165.61119 118.99104,165.47099 C 118.87408,165.3304 118.68032,165.25833 118.40623,165.25833 C 118.3188,165.25833 118.16167,165.27093 117.93837,165.29653 L 117.88285,165.06694 L 119.70779,164.61799 L 119.70779,164.61799 z" />
    </g>
    <g
       id="g3696">
      <path
         style="fill:#1f1a17;fill-rule:nonzero"
         id="_137574792"
         class="fil3"
         d="M 25.291744,142.39735 L 25.291744,142.85103 C 24.863273,142.85103 24.513959,142.92585 24.243408,143.07944 C 23.977582,143.23775 23.719633,143.52445 23.478224,143.94465 C 23.315973,144.23174 23.058417,144.9095 22.709103,145.98264 L 18.105008,159.29951 L 17.618253,159.29951 L 13.850228,148.73581 L 10.111345,159.29951 L 9.6706656,159.29951 L 4.762939,145.57898 C 4.3970846,144.55585 4.1643397,143.94898 4.0686426,143.76153 C 3.9063907,143.45396 3.6815222,143.22515 3.4030947,143.0755 C 3.1242735,142.92585 2.7418788,142.85103 2.2633932,142.85103 L 2.2633932,142.39735 L 8.3813142,142.39735 L 8.3813142,142.85103 L 8.0902847,142.85103 C 7.6574816,142.85103 7.3290397,142.94633 7.100233,143.14205 C 6.8757582,143.33739 6.7591889,143.57446 6.7591889,143.84895 C 6.7591889,144.13171 6.937981,144.78899 7.2959592,145.81212 L 10.548086,155.08254 L 13.289041,147.20111 L 12.802285,145.81212 L 12.415558,144.70156 C 12.245036,144.29396 12.053642,143.93638 11.841769,143.62842 C 11.73347,143.47483 11.604693,143.34566 11.450711,143.23775 C 11.246714,143.09204 11.043112,142.98807 10.843448,142.92152 C 10.685528,142.87584 10.444119,142.85103 10.111345,142.85103 L 10.111345,142.39735 L 16.5455,142.39735 L 16.5455,142.85103 L 16.104426,142.85103 C 15.651145,142.85103 15.318371,142.94633 15.106498,143.14205 C 14.894232,143.33739 14.790265,143.59967 14.790265,143.93205 C 14.790265,144.34792 14.973389,145.07175 15.339243,146.10315 L 18.504337,155.08254 L 21.648559,145.98264 C 22.006143,144.97211 22.184935,144.27742 22.184935,143.88637 C 22.184935,143.6993 22.12665,143.52445 22.010081,143.36259 C 21.889573,143.20034 21.743862,143.08377 21.56507,143.02155 C 21.2575,142.90498 20.853839,142.85103 20.359207,142.85103 L 20.359207,142.39735 L 25.291744,142.39735 L 25.291744,142.39735 z" />
      <path
         style="fill:#1f1a17;fill-rule:nonzero"
         id="path3535"
         class="fil3"
         d="M 31.26356,158.58434 L 31.26356,158.92105 L 25.951779,158.92105 L 25.951779,158.58434 L 26.39167,158.58434 C 26.903236,158.58434 27.27421,158.4343 27.504986,158.135 C 27.651879,157.94163 27.726704,157.47063 27.726704,156.72829 L 27.726704,148.72163 C 27.726704,148.09468 27.686141,147.67959 27.608166,147.47993 C 27.545549,147.32713 27.421103,147.19599 27.233647,147.0869 C 26.965459,146.9404 26.684669,146.86873 26.39167,146.86873 L 25.951779,146.86873 L 25.951779,146.52887 L 31.26356,146.52887 L 31.26356,146.86873 L 30.81461,146.86873 C 30.309345,146.86873 29.941128,147.01838 29.710352,147.31453 C 29.557552,147.51104 29.479576,147.97889 29.479576,148.72163 L 29.479576,156.72829 C 29.479576,157.35524 29.520139,157.76993 29.598115,157.9696 C 29.660337,158.1224 29.788327,158.25354 29.981691,158.36262 C 30.243972,158.50952 30.521218,158.58434 30.81461,158.58434 L 31.26356,158.58434 z" />
      <path
         style="fill:#1f1a17;fill-rule:nonzero"
         id="path3537"
         class="fil3"
         d="M 37.311775,152.04976 L 41.881214,156.59124 C 42.629857,157.33949 43.269413,157.85106 43.799489,158.1224 C 44.329958,158.39373 44.860033,158.54693 45.390503,158.58434 L 45.390503,158.92105 L 39.495087,158.92105 L 39.495087,158.58434 C 39.847552,158.58434 40.103532,158.52487 40.259483,158.40319 C 40.415434,158.28465 40.493409,158.1539 40.493409,158.00701 C 40.493409,157.86051 40.462298,157.72937 40.405982,157.61398 C 40.34691,157.49859 40.156697,157.28357 39.835344,156.96537 L 35.555753,152.73579 L 35.555753,156.72829 C 35.555753,157.35524 35.596316,157.76993 35.677442,157.9696 C 35.736514,158.1224 35.864504,158.25354 36.061018,158.36262 C 36.322905,158.50952 36.597394,158.58434 36.890787,158.58434 L 37.311775,158.58434 L 37.311775,158.92105 L 32.031106,158.92105 L 32.031106,158.58434 L 32.467847,158.58434 C 32.979413,158.58434 33.350387,158.4343 33.584313,158.135 C 33.731206,157.94163 33.802881,157.47063 33.802881,156.72829 L 33.802881,148.72163 C 33.802881,148.09468 33.762318,147.67644 33.684342,147.47048 C 33.621726,147.32398 33.49728,147.19599 33.309824,147.0869 C 33.041636,146.9404 32.760845,146.86873 32.467847,146.86873 L 32.031106,146.86873 L 32.031106,146.52887 L 37.311775,146.52887 L 37.311775,146.86873 L 36.890787,146.86873 C 36.603695,146.86873 36.329206,146.93725 36.061018,147.07745 C 35.870805,147.17433 35.739664,147.32083 35.66799,147.51734 C 35.593165,147.71071 35.555753,148.11319 35.555753,148.72163 L 35.555753,152.51447 C 35.680592,152.39908 36.09528,152.01196 36.809661,151.35389 C 38.618848,149.6979 39.713655,148.59049 40.09093,148.03836 C 40.253182,147.79498 40.337458,147.57996 40.337458,147.3988 C 40.337458,147.25861 40.272085,147.13377 40.144095,147.02783 C 40.016105,146.9215 39.801082,146.86873 39.495087,146.86873 L 39.21154,146.86873 L 39.21154,146.52887 L 43.762076,146.52887 L 43.762076,146.86873 C 43.493888,146.87503 43.25051,146.90929 43.032337,146.97782 C 42.814163,147.04319 42.545581,147.17433 42.227772,147.36454 C 41.91272,147.55791 41.522842,147.86666 41.057747,148.29395 C 40.923849,148.41564 40.306347,149.03944 39.202089,150.16575 L 37.311775,152.04976 L 37.311775,152.04976 z" />
      <path
         style="fill:#1f1a17;fill-rule:nonzero"
         id="path3539"
         class="fil3"
         d="M 51.011035,158.58434 L 51.011035,158.92105 L 45.699254,158.92105 L 45.699254,158.58434 L 46.139146,158.58434 C 46.650712,158.58434 47.021686,158.4343 47.252462,158.135 C 47.399355,157.94163 47.47418,157.47063 47.47418,156.72829 L 47.47418,148.72163 C 47.47418,148.09468 47.433617,147.67959 47.355641,147.47993 C 47.293025,147.32713 47.168579,147.19599 46.981123,147.0869 C 46.712935,146.9404 46.432144,146.86873 46.139146,146.86873 L 45.699254,146.86873 L 45.699254,146.52887 L 51.011035,146.52887 L 51.011035,146.86873 L 50.562085,146.86873 C 50.05682,146.86873 49.688603,147.01838 49.457827,147.31453 C 49.305027,147.51104 49.227052,147.97889 49.227052,148.72163 L 49.227052,156.72829 C 49.227052,157.35524 49.267615,157.76993 49.34559,157.9696 C 49.407813,158.1224 49.535803,158.25354 49.729166,158.36262 C 49.991447,158.50952 50.268693,158.58434 50.562085,158.58434 L 51.011035,158.58434 L 51.011035,158.58434 z" />
      <path
         style="fill:#1f1a17;fill-rule:nonzero"
         id="path3541"
         class="fil3"
         d="M 60.047521,146.24808 L 60.047521,150.53357 L 59.710415,150.53357 C 59.598178,149.71011 59.401664,149.05519 59.120874,148.56844 C 58.837327,148.07892 58.431697,147.6922 57.907529,147.40826 C 57.383754,147.12116 56.844227,146.97782 56.282647,146.97782 C 55.649392,146.97782 55.125617,147.17118 54.710536,147.55791 C 54.295849,147.94463 54.089883,148.38452 54.089883,148.87758 C 54.089883,149.25486 54.221024,149.60102 54.482911,149.90977 C 54.860186,150.36817 55.758479,150.97662 57.177789,151.73747 C 58.335212,152.35851 59.127175,152.83543 59.548557,153.16938 C 59.972696,153.49979 60.299957,153.89282 60.527976,154.34216 C 60.755601,154.79426 60.870989,155.26527 60.870989,155.75832 C 60.870989,156.69718 60.505922,157.50489 59.779333,158.18501 C 59.049199,158.86474 58.113494,159.20499 56.968673,159.20499 C 56.607151,159.20499 56.270045,159.17664 55.951842,159.12072 C 55.76478,159.09276 55.371752,158.98013 54.77906,158.78991 C 54.186762,158.59655 53.809093,158.50006 53.649991,158.50006 C 53.497191,158.50006 53.378653,158.54693 53.288075,158.63711 C 53.201042,158.72769 53.135275,158.9179 53.091561,159.20499 L 52.754849,159.20499 L 52.754849,154.95651 L 53.091561,154.95651 C 53.250663,155.84575 53.46608,156.51012 53.734268,156.95276 C 54.002456,157.39266 54.411236,157.76087 54.963366,158.05387 C 55.512344,158.34411 56.117244,158.49061 56.77531,158.49061 C 57.536555,158.49061 58.138698,158.29095 58.581347,157.88847 C 59.021239,157.48638 59.242563,157.01223 59.242563,156.46325 C 59.242563,156.15765 59.15868,155.85166 58.993278,155.53975 C 58.824725,155.22785 58.562838,154.94116 58.210373,154.67297 C 57.973296,154.48866 57.324288,154.10194 56.263744,153.50609 C 55.203593,152.9134 54.451799,152.43964 54.002456,152.08718 C 53.553507,151.73156 53.216401,151.34168 52.982474,150.91715 C 52.751699,150.48986 52.636311,150.01886 52.636311,149.50729 C 52.636311,148.61845 52.976173,147.85445 53.659443,147.21174 C 54.342713,146.56904 55.2095,146.24808 56.263744,146.24808 C 56.922203,146.24808 57.620831,146.40718 58.356872,146.73129 C 58.696735,146.88409 58.940113,146.95931 59.077554,146.95931 C 59.236656,146.95931 59.367402,146.91244 59.467431,146.81871 C 59.567067,146.72223 59.648193,146.53162 59.710415,146.24808 L 60.047521,146.24808 L 60.047521,146.24808 z" />
      <path
         style="fill:#1f1a17;fill-rule:nonzero"
         id="path3543"
         class="fil3"
         d="M 65.711767,153.11937 L 65.711767,156.72829 C 65.711767,157.50804 65.799194,157.99165 65.970504,158.18186 C 66.201673,158.45005 66.550987,158.58434 67.01884,158.58434 L 67.49575,158.58434 L 67.49575,158.92105 L 62.18712,158.92105 L 62.18712,158.58434 L 62.651822,158.58434 C 63.17599,158.58434 63.550115,158.41264 63.774589,158.07278 C 63.896278,157.88256 63.958895,157.43322 63.958895,156.72829 L 63.958895,148.72163 C 63.958895,147.94148 63.877769,147.45827 63.712367,147.27121 C 63.47529,147.00263 63.119675,146.86873 62.651822,146.86873 L 62.18712,146.86873 L 62.18712,146.52887 L 66.728598,146.52887 C 67.836007,146.52887 68.709095,146.64425 69.348652,146.87188 C 69.991358,147.0995 70.527735,147.48623 70.967626,148.02891 C 71.407518,148.57159 71.625692,149.21429 71.625692,149.95664 C 71.625692,150.96717 71.291736,151.79063 70.624613,152.42389 C 69.957096,153.05714 69.01509,153.37535 67.795444,153.37535 C 67.498901,153.37535 67.174791,153.35329 66.828233,153.30958 C 66.48207,153.26587 66.107945,153.20364 65.711767,153.11937 L 65.711767,153.11937 z M 65.711767,152.59835 C 66.036271,152.65781 66.322968,152.70468 66.572647,152.73579 C 66.822326,152.76375 67.034199,152.7795 67.212203,152.7795 C 67.845458,152.7795 68.391286,152.53613 68.852838,152.04346 C 69.311239,151.55356 69.542015,150.9203 69.542015,150.14055 C 69.542015,149.60417 69.432928,149.10521 69.214754,148.64641 C 68.993036,148.18486 68.684285,147.84185 68.281806,147.61422 C 67.87972,147.38345 67.420926,147.27121 66.909359,147.27121 C 66.600608,147.27121 66.201673,147.32713 65.711767,147.44252 L 65.711767,152.59835 L 65.711767,152.59835 z" />
      <path
         style="fill:#1f1a17;fill-rule:nonzero"
         id="path3545"
         class="fil3"
         d="M 76.195131,147.20544 L 76.195131,152.10253 L 78.918364,152.10253 C 79.62605,152.10253 80.097053,151.9966 80.33413,151.78433 C 80.652333,151.50354 80.827187,151.01088 80.864599,150.3028 L 81.201311,150.3028 L 81.201311,154.61665 L 80.864599,154.61665 C 80.780323,154.01451 80.692896,153.62778 80.608619,153.45647 C 80.499532,153.24421 80.318771,153.07565 80.069092,152.95396 C 79.819807,152.83267 79.435837,152.77005 78.918364,152.77005 L 76.195131,152.77005 L 76.195131,156.85628 C 76.195131,157.40526 76.219941,157.73882 76.266805,157.85736 C 76.31682,157.9759 76.401096,158.06962 76.522785,158.1413 C 76.644474,158.20982 76.8784,158.24408 77.218263,158.24408 L 79.320449,158.24408 C 80.019078,158.24408 80.530644,158.19722 80.845696,158.09759 C 81.163899,158.0011 81.466349,157.81049 81.759741,157.5238 C 82.137016,157.14613 82.523743,156.57549 82.919921,155.81424 L 83.284988,155.81424 L 82.218142,158.92105 L 72.667333,158.92105 L 72.667333,158.58434 L 73.107225,158.58434 C 73.397467,158.58434 73.674713,158.51227 73.936994,158.37207 C 74.133508,158.2752 74.264254,158.1287 74.336323,157.93533 C 74.404846,157.73882 74.439108,157.33949 74.439108,156.73774 L 74.439108,148.68697 C 74.439108,147.90092 74.361133,147.41771 74.202032,147.2338 C 73.983858,146.99042 73.618791,146.86873 73.107225,146.86873 L 72.667333,146.86873 L 72.667333,146.52887 L 82.218142,146.52887 L 82.355584,149.24225 L 81.996818,149.24225 C 81.868828,148.59049 81.72863,148.1443 81.572679,147.90092 C 81.416728,147.65794 81.189103,147.47048 80.883108,147.34288 C 80.640124,147.25231 80.209684,147.20544 79.594939,147.20544 L 76.195131,147.20544 L 76.195131,147.20544 z" />
      <path
         style="fill:#1f1a17;fill-rule:nonzero"
         id="path3547"
         class="fil3"
         d="M 94.981697,146.24808 L 95.265638,150.45875 L 94.981697,150.45875 C 94.604422,149.19854 94.064895,148.29119 93.366266,147.73591 C 92.664094,147.18063 91.825267,146.90299 90.842698,146.90299 C 90.01923,146.90299 89.276888,147.11211 88.612522,147.52995 C 87.948155,147.94778 87.427138,148.61215 87.046712,149.52619 C 86.666286,150.44024 86.47568,151.57876 86.47568,152.93545 C 86.47568,154.05507 86.653684,155.02819 87.015601,155.85166 C 87.374366,156.67197 87.913893,157.30208 88.637332,157.74197 C 89.358014,158.18186 90.181482,158.40004 91.107736,158.40004 C 91.912694,158.40004 92.620774,158.22873 93.238276,157.88256 C 93.852628,157.53916 94.529597,156.85628 95.265638,155.83315 L 95.549579,156.01391 C 94.928926,157.11817 94.201943,157.92588 93.375324,158.43745 C 92.545555,158.94901 91.56338,159.20499 90.421709,159.20499 C 88.369144,159.20499 86.778524,158.44375 85.652606,156.9185 C 84.813385,155.78628 84.392397,154.45125 84.392397,152.91655 C 84.392397,151.68155 84.670037,150.54303 85.222166,149.50729 C 85.777051,148.47195 86.541447,147.67014 87.511414,147.0995 C 88.484532,146.53162 89.545076,146.24808 90.696199,146.24808 C 91.591341,146.24808 92.477031,146.46625 93.347363,146.90299 C 93.602949,147.03728 93.787255,147.10581 93.896342,147.10581 C 94.058594,147.10581 94.201943,147.04634 94.323631,146.93095 C 94.482733,146.7687 94.59497,146.53792 94.663494,146.24808 L 94.981697,146.24808 L 94.981697,146.24808 z" />
      <path
         style="fill:#1f1a17;fill-rule:nonzero"
         id="path3549"
         class="fil3"
         d="M 101.97468,158.58434 L 101.97468,158.92105 L 96.662894,158.92105 L 96.662894,158.58434 L 97.102786,158.58434 C 97.614352,158.58434 97.985326,158.4343 98.216102,158.135 C 98.362995,157.94163 98.43782,157.47063 98.43782,156.72829 L 98.43782,148.72163 C 98.43782,148.09468 98.397257,147.67959 98.319282,147.47993 C 98.256665,147.32713 98.132219,147.19599 97.944763,147.0869 C 97.676575,146.9404 97.395785,146.86873 97.102786,146.86873 L 96.662894,146.86873 L 96.662894,146.52887 L 101.97468,146.52887 L 101.97468,146.86873 L 101.52573,146.86873 C 101.02046,146.86873 100.65224,147.01838 100.42147,147.31453 C 100.26867,147.51104 100.19069,147.97889 100.19069,148.72163 L 100.19069,156.72829 C 100.19069,157.35524 100.23126,157.76993 100.30923,157.9696 C 100.37145,158.1224 100.49944,158.25354 100.69281,158.36262 C 100.95509,158.50952 101.23233,158.58434 101.52573,158.58434 L 101.97468,158.58434 z" />
      <path
         style="fill:#1f1a17;fill-rule:nonzero"
         id="path3551"
         class="fil3"
         d="M 106.34169,147.20544 L 106.34169,152.10253 L 109.06493,152.10253 C 109.77261,152.10253 110.24362,151.9966 110.48069,151.78433 C 110.7989,151.50354 110.97375,151.01088 111.01116,150.3028 L 111.34787,150.3028 L 111.34787,154.61665 L 111.01116,154.61665 C 110.92689,154.01451 110.83946,153.62778 110.75518,153.45647 C 110.6461,153.24421 110.46533,153.07565 110.21565,152.95396 C 109.96637,152.83267 109.5824,152.77005 109.06493,152.77005 L 106.34169,152.77005 L 106.34169,156.85628 C 106.34169,157.40526 106.3665,157.73882 106.41337,157.85736 C 106.46338,157.9759 106.54766,158.06962 106.66935,158.1413 C 106.79104,158.20982 107.02496,158.24408 107.36483,158.24408 L 109.46701,158.24408 C 110.16564,158.24408 110.67721,158.19722 110.99226,158.09759 C 111.31046,158.0011 111.61291,157.81049 111.9063,157.5238 C 112.28358,157.14613 112.67031,156.57549 113.06648,155.81424 L 113.43155,155.81424 L 112.36471,158.92105 L 102.8139,158.92105 L 102.8139,158.58434 L 103.25379,158.58434 C 103.54403,158.58434 103.82128,158.51227 104.08356,158.37207 C 104.28007,158.2752 104.41082,158.1287 104.48289,157.93533 C 104.55141,157.73882 104.58567,157.33949 104.58567,156.73774 L 104.58567,148.68697 C 104.58567,147.90092 104.5077,147.41771 104.34859,147.2338 C 104.13042,146.99042 103.76535,146.86873 103.25379,146.86873 L 102.8139,146.86873 L 102.8139,146.52887 L 112.36471,146.52887 L 112.50215,149.24225 L 112.14338,149.24225 C 112.01539,148.59049 111.87519,148.1443 111.71924,147.90092 C 111.56329,147.65794 111.33567,147.47048 111.02967,147.34288 C 110.78669,147.25231 110.35625,147.20544 109.7415,147.20544 L 106.34169,147.20544 L 106.34169,147.20544 z" />
      <path
         style="fill:#1f1a17;fill-rule:nonzero"
         id="path3553"
         class="fil3"
         d="M 122.44283,146.24808 L 122.44283,150.53357 L 122.10573,150.53357 C 121.99349,149.71011 121.79698,149.05519 121.51619,148.56844 C 121.23264,148.07892 120.82701,147.6922 120.30284,147.40826 C 119.77907,147.12116 119.23954,146.97782 118.67796,146.97782 C 118.0447,146.97782 117.52093,147.17118 117.10585,147.55791 C 116.69116,147.94463 116.48519,148.38452 116.48519,148.87758 C 116.48519,149.25486 116.61634,149.60102 116.87822,149.90977 C 117.2555,150.36817 118.15379,150.97662 119.5731,151.73747 C 120.73052,152.35851 121.52249,152.83543 121.94387,153.16938 C 122.36801,153.49979 122.69527,153.89282 122.92329,154.34216 C 123.15091,154.79426 123.2663,155.26527 123.2663,155.75832 C 123.2663,156.69718 122.90123,157.50489 122.17464,158.18501 C 121.44451,158.86474 120.50881,159.20499 119.36398,159.20499 C 119.00246,159.20499 118.66536,159.17664 118.34715,159.12072 C 118.16009,159.09276 117.76706,158.98013 117.17437,158.78991 C 116.58207,158.59655 116.2044,158.50006 116.0453,158.50006 C 115.8925,158.50006 115.77396,158.54693 115.68339,158.63711 C 115.59635,158.72769 115.53059,158.9179 115.48687,159.20499 L 115.15016,159.20499 L 115.15016,154.95651 L 115.48687,154.95651 C 115.64597,155.84575 115.86139,156.51012 116.12958,156.95276 C 116.39777,157.39266 116.80655,157.76087 117.35868,158.05387 C 117.90766,158.34411 118.51256,158.49061 119.17062,158.49061 C 119.93187,158.49061 120.53401,158.29095 120.97666,157.88847 C 121.41655,157.48638 121.63787,157.01223 121.63787,156.46325 C 121.63787,156.15765 121.55399,155.85166 121.38859,155.53975 C 121.22004,155.22785 120.95815,154.94116 120.60568,154.67297 C 120.36861,154.48866 119.7196,154.10194 118.65906,153.50609 C 117.5989,152.9134 116.84711,152.43964 116.39777,152.08718 C 115.94882,151.73156 115.61171,151.34168 115.37779,150.91715 C 115.14701,150.48986 115.03162,150.01886 115.03162,149.50729 C 115.03162,148.61845 115.37149,147.85445 116.05475,147.21174 C 116.73802,146.56904 117.60481,146.24808 118.65906,146.24808 C 119.31751,146.24808 120.01614,146.40718 120.75218,146.73129 C 121.09205,146.88409 121.33542,146.95931 121.47287,146.95931 C 121.63197,146.95931 121.76271,146.91244 121.86274,146.81871 C 121.96238,146.72223 122.0435,146.53162 122.10573,146.24808 L 122.44283,146.24808 L 122.44283,146.24808 z" />
    </g>
    <path
       style="fill:url(#radialGradient3745);fill-opacity:1;fill-rule:evenodd;stroke:none;stroke-width:1px;stroke-linecap:butt;stroke-linejoin:miter;stroke-opacity:1"
       d="M 29.055723,28.433735 L 28.878012,40.162651 C 28.878012,40.162651 30.337896,46.318524 40.518072,49.507715 C 50.415182,52.608228 64.345622,51.498206 74.105421,55.89006 C 82.572763,59.700316 85.478915,66.019578 85.478915,66.019578 L 85.683113,55.025067 C 85.683113,55.025067 84.945783,49.225904 77.126506,46.826807 C 69.307228,44.427711 56.230236,43.647722 41.02148,38.446523 C 34.198457,36.113137 28.966867,28.611446 29.055723,28.433735 z"
       id="path3715"
       sodipodi:nodetypes="ccssccssc" />
    <path
       style="fill:url(#radialGradient3753);fill-opacity:1;fill-rule:evenodd;stroke:none;stroke-width:1px;stroke-linecap:butt;stroke-linejoin:miter;stroke-opacity:1"
       d="M 40.136625,53.589675 L 39.71052,66.482026 C 39.71052,66.482026 40.776474,69.231769 50.207011,71.951331 C 55.850247,73.578718 72.583153,75.043791 81.246195,78.558973 C 88.822466,81.633179 92.320783,88.855422 92.320783,88.855422 L 93.120481,78.103916 C 90.621919,72.013389 87.734234,70.504306 77.539334,67.877354 C 70.597997,66.088758 62.637498,65.77064 56.500436,63.738758 C 44.449297,59.74882 40.136625,53.589675 40.136625,53.589675 z"
       id="path3717"
       sodipodi:nodetypes="ccssccssc" />
    <path
       style="fill:url(#radialGradient3735);fill-opacity:1;fill-rule:evenodd;stroke:none;stroke-width:1px;stroke-linecap:butt;stroke-linejoin:miter;stroke-opacity:1"
       d="M 96.408131,28.34488 L 96.408131,39.851656 C 96.408131,39.851656 94.786104,45.197607 86.056476,48.426205 C 74.809905,52.585677 57.628499,52.289016 46.115964,58.733433 C 40.91319,61.645811 39.718373,66.463856 39.718373,66.463856 L 39.896084,53.224398 C 39.896084,53.224398 41.887094,48.304538 52.069276,45.138554 C 65.136629,41.075473 73.425981,42.624997 85.079066,37.674699 C 92.66827,34.450761 96.496987,28.433735 96.408131,28.34488 z"
       id="path3709"
       sodipodi:nodetypes="ccssccssc" />
    <path
       style="fill:url(#radialGradient3773);fill-opacity:1;fill-rule:evenodd;stroke:none;stroke-width:1px;stroke-linecap:butt;stroke-linejoin:miter;stroke-opacity:1"
       d="M 32.542644,77.837349 L 32.085123,90.540749 C 32.085123,90.540749 34.087316,94.584975 40.016355,97.103733 C 51.345196,101.9164 59.330893,98.372863 75.971385,105.91567 C 83.480539,109.31942 85.249155,114.9395 85.249155,114.9395 L 85.212349,102.18373 C 85.212349,102.18373 84.23494,98.274093 76.948795,95.875 C 69.662649,93.475904 53.749025,91.840789 42.937803,87.792697 C 35.50232,85.008597 32.453789,77.748494 32.542644,77.837349 z"
       id="path3719"
       sodipodi:nodetypes="ccssccssc" />
    <path
       style="fill:url(#radialGradient3783);fill-opacity:1;fill-rule:evenodd;stroke:none;stroke-width:1px;stroke-linecap:butt;stroke-linejoin:miter;stroke-opacity:1"
       d="M 39.807229,113.64608 C 39.807229,113.29066 39.984939,101.47289 39.984939,101.47289 C 39.984939,101.47289 40.824539,97.962453 52.158131,94.364458 C 62.844148,90.972036 76.12307,91.040001 82.342949,88.463194 C 88.562829,85.886387 93.120943,78.098526 93.120943,78.098526 L 93.07382,91.013977 C 93.07382,91.013977 93.400249,95.618336 83.905543,98.625053 C 71.557138,102.53546 63.746922,101.13898 51.583728,105.68143 C 44.690968,108.2556 39.984939,113.91265 39.807229,113.64608 z"
       id="path3713"
       sodipodi:nodetypes="ccssccssc" />
    <path
       style="fill:url(#radialGradient3763);fill-opacity:1;fill-rule:evenodd;stroke:none;stroke-width:1px;stroke-linecap:butt;stroke-linejoin:miter;stroke-opacity:1"
       d="M 85.683114,55.023529 L 85.834337,66.108434 C 85.834337,66.108434 84.087231,69.366887 76.403033,72.473685 C 65.937953,76.704819 56.427973,74.311773 43.094879,79.96988 C 38.121497,82.080412 32.076807,90.543675 32.076807,90.543675 L 32.432229,77.126506 C 32.432229,77.126506 36.016549,71.358324 42.472891,69.040663 C 56.334337,64.064759 61.48795,67.707832 75.971385,61.754518 C 80.870791,59.740652 85.541284,55.575758 85.683114,55.023529 z"
       id="path3711"
       sodipodi:nodetypes="ccssccssc" />
  </g>
</svg>
